999
dxflib 2.2.0.0
  0
SECTION
  2
HEADER
  9
$ACADVER
  1
AC1015
  9
$HANDSEED
  5
FFFF
  9
$DIMLIM
 70
0
  9
$DIMLUNIT
 70
2
  9
$DIMTIX
 70
0
  9
$AUNITS
 70
0
  9
$QTEXTMODE
 70
0
  9
$USERR1
 40
0.0
  9
$DIMALTU
 70
2
  9
$USERR2
 40
0.0
  9
$UCSORGBOTTOM
 10
0.0
 20
0.0
 30
0.0
  9
$USERR3
 40
0.0
  9
$USERR4
 40
0.0
  9
$USERR5
 40
0.0
  9
$LIMMAX
 10
420.0
 20
297.0
  9
$PELEVATION
 40
0.0
  9
$DIMALTZ
 70
0
  9
$DIMADEC
 70
0
  9
$JOINSTYLE
280
0
  9
$TILEMODE
 70
1
  9
$DIMATFIT
 70
3
  9
$PEXTMIN
 10
0.0
 20
0.0
 30
0.0
  9
$TDUSRTIMER
 40
0.0000187731
  9
$DWGCODEPAGE
  3
ANSI_1252
  9
$UCSORTHOVIEW
 70
0
  9
$DIMSOXD
 70
0
  9
$DIMTZIN
 70
0
  9
$SPLINETYPE
 70
6
  9
$DIMLFAC
 40
1.0
  9
$DIMSE1
 70
0
  9
$FILLETRAD
 40
0.0
  9
$DIMSE2
 70
0
  9
$PSTYLEMODE
290
1
  9
$TEXTSTYLE
  7
Standard
  9
$DIMTSZ
 40
0.0
  9
$PUCSXDIR
 10
1.0
 20
0.0
 30
0.0
  9
$DIMTXSTY
  7
Standard
  9
$PLIMMAX
 10
215.9000000000000057
 20
279.3999999999999773
  9
$DIMTM
 40
0.0
  9
$UCSORG
 10
0.0
 20
0.0
 30
0.0
  9
$DIMTP
 40
0.0
  9
$PSLTSCALE
 70
1
  9
$EXTNAMES
290
1
  9
$ANGBASE
 50
0.0
  9
$PUCSYDIR
 10
0.0
 20
1.0
 30
0.0
  9
$DIMASZ
 40
1.8
  9
$PUCSORTHOVIEW
 70
0
  9
$UNITMODE
 70
0
  9
$MEASUREMENT
 70
1
  9
$INSBASE
 10
0.0
 20
0.0
 30
0.0
  9
$EXTMAX
 10
420.0
 20
297.0
 30
0.0
  9
$ELEVATION
 40
0.0
  9
$TDCREATE
 40
2454670.4520583911798894
  9
$DIMDEC
 70
4
  9
$CELTYPE
  6
ByLayer
  9
$GRIDUNIT
 10
0.0
 20
0.0
  9
$MENU
  1
.
  9
$ANGDIR
 70
0
  9
$DIMALTTD
 70
2
  9
$TREEDEPTH
 70
3020
  9
$PROXYGRAPHICS
 70
1
  9
$LTSCALE
 40
1.0
  9
$DIMTMOVE
 70
0
  9
$DIMAZIN
 70
0
  9
$TDUPDATE
 40
2454670.4520583911798894
  9
$DIMTOLJ
 70
1
  9
$DIMCEN
 40
0.09
  9
$DIMTVP
 40
0.0
  9
$TRACEWID
 40
0.05
  9
$CMLSTYLE
  2
Standard
  9
$DISPSILH
 70
0
  9
$DIMSTYLE
  2
Standard
  9
$SKETCHINC
 40
0.1
  9
$FILLMODE
 70
1
  9
$PLINEGEN
 70
0
  9
$DIMLWD
 70
-2
  9
$THICKNESS
 40
0.0
  9
$PUCSORG
 10
0.0
 20
0.0
 30
0.0
  9
$DIMLWE
 70
-2
  9
$CELTSCALE
 40
1.0
  9
$DIMALTTZ
 70
0
  9
$INSUNITS
 70
4
  9
$UCSORGBACK
 10
0.0
 20
0.0
 30
0.0
  9
$PLINEWID
 40
0.0
  9
$PEXTMAX
 10
420.0
 20
297.0
 30
0.0
  9
$DIMJUST
 70
0
  9
$UCSYDIR
 10
0.0
 20
1.0
 30
0.0
  9
$PUCSORGBACK
 10
0.0
 20
0.0
 30
0.0
  9
$GRIDMODE
 70
1
  9
$PUCSORGBOTTOM
 10
0.0
 20
0.0
 30
0.0
  9
$PDSIZE
 40
0.0
  9
$DIMUPT
 70
0
  9
$DIMTAD
 70
0
  9
$MAXACTVP
 70
64
  9
$UCSXDIR
 10
1.0
 20
0.0
 30
0.0
  9
$DIMSAH
 70
0
  9
$TDUCREATE
 40
2454670.4103917251341045
  9
$DIMFRAC
 70
0
  9
$USERI1
 70
0
  9
$USERI2
 70
0
  9
$CELWEIGHT
370
-1
  9
$USERI3
 70
0
  9
$UCSORGRIGHT
 10
0.0
 20
0.0
 30
0.0
  9
$LWDISPLAY
290
0
  9
$SKPOLY
 70
0
  9
$USERI4
 70
0
  9
$USERI5
 70
0
  9
$UCSORGTOP
 10
0.0
 20
0.0
 30
0.0
  9
$LIMMIN
 10
0.0
 20
0.0
  9
$ACADMAINTVER
 70
18
  9
$MIRRTEXT
 70
0
  9
$TDUUPDATE
 40
2454670.4103917251341045
  9
$TEXTSIZE
 40
0.2
  9
$DIMGAP
 40
0.09
  9
$LUPREC
 70
4
  9
$CECOLOR
 62
256
  9
$DIMSD1
 70
0
  9
$DIMSD2
 70
0
  9
$WORLDVIEW
 70
1
  9
$PUCSORGRIGHT
 10
0.0
 20
0.0
 30
0.0
  9
$PLIMCHECK
 70
0
  9
$DIMTFAC
 40
1.0
  9
$CMLJUST
 70
0
  9
$USRTIMER
 70
1
  9
$SURFU
 70
6
  9
$SURFV
 70
6
  9
$DIMASO
 70
1
  9
$DIMDLE
 40
0.0
  9
$EXTMIN
 10
0.0
 20
0.0
 30
0.0
  9
$UCSORGLEFT
 10
0.0
 20
0.0
 30
0.0
  9
$OLESTARTUP
290
0
  9
$PUCSORGFRONT
 10
0.0
 20
0.0
 30
0.0
  9
$DIMDLI
 40
0.38
  9
$LUNITS
 70
2
  9
$DIMCLRD
 70
0
  9
$SHADEDIF
 70
70
  9
$DIMCLRE
 70
0
  9
$SPLINESEGS
 70
8
  9
$PUCSORGLEFT
 10
0.0
 20
0.0
 30
0.0
  9
$DIMALTRND
 40
0.0
  9
$DIMRND
 40
0.0
  9
$DIMALT
 70
0
  9
$FINGERPRINTGUID
  2
{957EB8BD-B1CB-432B-9497-5194FA736EDC}
  9
$DIMCLRT
 70
0
  9
$PUCSORGTOP
 10
0.0
 20
0.0
 30
0.0
  9
$DIMTOH
 70
1
  9
$UCSORGFRONT
 10
0.0
 20
0.0
 30
0.0
  9
$VISRETAIN
 70
1
  9
$SHADEDGE
 70
3
  9
$DIMTOL
 70
0
  9
$SURFTYPE
 70
6
  9
$VERSIONGUID
  2
{F0539855-98D3-4F5B-8BA8-A3C366CB493D}
  9
$CHAMFERA
 40
0.0
  9
$SURFTAB1
 70
6
  9
$CHAMFERB
 40
0.0
  9
$SURFTAB2
 70
6
  9
$CHAMFERC
 40
0.0
  9
$AUPREC
 70
0
  9
$CHAMFERD
 40
0.0
  9
$DIMTDEC
 70
4
  9
$PDMODE
 70
0
  9
$PLIMMIN
 10
0.0
 20
0.0
  9
$SPLFRAME
 70
0
  9
$XEDIT
290
1
  9
$DIMDSEP
 70
46
  9
$LIMCHECK
 70
0
  9
$PINSBASE
 10
0.0
 20
0.0
 30
0.0
  9
$ORTHOMODE
 70
0
  9
$PSVPSCALE
 40
0.0
  9
$CLAYER
  8
Insulator Retainer
  9
$DIMSHO
 70
1
  9
$DIMTOFL
 70
0
  9
$DIMTXT
 40
0.35
  9
$DIMEXE
 40
0.18
  9
$TDINDWG
 40
0.0000187731
  9
$REGENMODE
 70
1
  9
$ATTMODE
 70
1
  9
$CMLSCALE
 40
1.0
  9
$DIMTIH
 70
1
  9
$DIMZIN
 70
0
  9
$CEPSNTYPE
380
0
  9
$DIMSCALE
 40
1.0
  9
$DIMALTD
 70
2
  9
$DIMAUNIT
 70
0
  9
$DIMEXO
 40
0.0625
  9
$DIMALTF
 40
25.3999999999999986
  9
$ENDCAPS
280
0
  9
$CLAYER
  8
Insulator Retainer
  0
ENDSEC
  0
SECTION
  2
TABLES
  0
TABLE
  2
VPORT
  5
8
100
AcDbSymbolTable
 70
1
  0
VPORT
  5
30
100
AcDbSymbolTableRecord
100
AcDbViewportTableRecord
  2
*Active
 70
0
 10
0.0
 20
0.0
 11
1.0
 21
1.0
 12
286.3055555555554861
 22
148.5
 13
0.0
 23
0.0
 14
10.0
 24
10.0
 15
10.0
 25
10.0
 16
0.0
 26
0.0
 36
1.0
 17
0.0
 27
0.0
 37
0.0
 40
297.0
 41
1.92798353909465
 42
50.0
 43
0.0
 44
0.0
 50
0.0
 51
0.0
 71
0
 72
100
 73
1
 74
3
 75
1
 76
1
 77
0
 78
0
281
0
 65
1
110
0.0
120
0.0
130
0.0
111
1.0
121
0.0
131
0.0
112
0.0
122
1.0
132
0.0
 79
0
146
0.0
  0
ENDTAB
  0
TABLE
  2
LTYPE
  5
5
100
AcDbSymbolTable
 70
21
  0
LTYPE
  5
14
100
AcDbSymbolTableRecord
100
AcDbLinetypeTableRecord
  2
ByBlock
 70
0
  3

 72
65
 73
0
 40
0.0
  0
LTYPE
  5
15
100
AcDbSymbolTableRecord
100
AcDbLinetypeTableRecord
  2
ByLayer
 70
0
  3

 72
65
 73
0
 40
0.0
  0
LTYPE
  5
16
100
AcDbSymbolTableRecord
100
AcDbLinetypeTableRecord
  2
CONTINUOUS
 70
0
  3
Solid line
 72
65
 73
0
 40
0.0
  0
LTYPE
  5
31
100
AcDbSymbolTableRecord
100
AcDbLinetypeTableRecord
  2
DOT
 70
0
  3
Dot . . . . . . . . . . . . . . . . . . . . . .
 72
65
 73
2
 40
6.3499999999999996
 49
0.0
 74
0
 49
-6.3499999999999996
 74
0
  0
LTYPE
  5
32
100
AcDbSymbolTableRecord
100
AcDbLinetypeTableRecord
  2
DOT2
 70
0
  3
Dot (.5x) .....................................
 72
65
 73
2
 40
3.1749999999999998
 49
0.0
 74
0
 49
-3.1749999999999998
 74
0
  0
LTYPE
  5
33
100
AcDbSymbolTableRecord
100
AcDbLinetypeTableRecord
  2
DOTX2
 70
0
  3
Dot (2x) .  .  .  .  .  .  .  .  .  .  .  .  .
 72
65
 73
2
 40
12.6999999999999993
 49
0.0
 74
0
 49
-12.6999999999999993
 74
0
  0
LTYPE
  5
34
100
AcDbSymbolTableRecord
100
AcDbLinetypeTableRecord
  2
DASHED
 70
0
  3
Dashed __ __ __ __ __ __ __ __ __ __ __ __ __ _
 72
65
 73
2
 40
19.0500000000000007
 49
12.6999999999999993
 74
0
 49
-6.3499999999999996
 74
0
  0
LTYPE
  5
35
100
AcDbSymbolTableRecord
100
AcDbLinetypeTableRecord
  2
DASHED2
 70
0
  3
Dashed (.5x) _ _ _ _ _ _ _ _ _ _ _ _ _ _ _ _ _
 72
65
 73
2
 40
9.5250000000000004
 49
6.3499999999999996
 74
0
 49
-3.1749999999999998
 74
0
  0
LTYPE
  5
36
100
AcDbSymbolTableRecord
100
AcDbLinetypeTableRecord
  2
DASHEDX2
 70
0
  3
Dashed (2x) ____  ____  ____  ____  ____  ___
 72
65
 73
2
 40
38.1000000000000014
 49
25.3999999999999986
 74
0
 49
-12.6999999999999993
 74
0
  0
LTYPE
  5
37
100
AcDbSymbolTableRecord
100
AcDbLinetypeTableRecord
  2
DASHDOT
 70
0
  3
Dash dot __ . __ . __ . __ . __ . __ . __ . __
 72
65
 73
4
 40
25.3999999999999986
 49
12.6999999999999993
 74
0
 49
-6.3499999999999996
 74
0
 49
0.0
 74
0
 49
-6.3499999999999996
 74
0
  0
LTYPE
  5
38
100
AcDbSymbolTableRecord
100
AcDbLinetypeTableRecord
  2
DASHDOT2
 70
0
  3
Dash dot (.5x) _._._._._._._._._._._._._._._.
 72
65
 73
4
 40
12.6999999999999993
 49
6.3499999999999996
 74
0
 49
-3.1749999999999998
 74
0
 49
0.0
 74
0
 49
-3.1749999999999998
 74
0
  0
LTYPE
  5
39
100
AcDbSymbolTableRecord
100
AcDbLinetypeTableRecord
  2
DASHDOTX2
 70
0
  3
Dash dot (2x) ____  .  ____  .  ____  .  ___
 72
65
 73
4
 40
50.7999999999999972
 49
25.3999999999999986
 74
0
 49
-12.6999999999999993
 74
0
 49
0.0
 74
0
 49
-12.6999999999999993
 74
0
  0
LTYPE
  5
3A
100
AcDbSymbolTableRecord
100
AcDbLinetypeTableRecord
  2
DIVIDE
 70
0
  3
Divide ____ . . ____ . . ____ . . ____ . . ____
 72
65
 73
6
 40
31.75
 49
12.6999999999999993
 74
0
 49
-6.3499999999999996
 74
0
 49
0.0
 74
0
 49
-6.3499999999999996
 74
0
 49
0.0
 74
0
 49
-6.3499999999999996
 74
0
  0
LTYPE
  5
3B
100
AcDbSymbolTableRecord
100
AcDbLinetypeTableRecord
  2
DIVIDE2
 70
0
  3
Divide (.5x) __..__..__..__..__..__..__..__.._
 72
65
 73
6
 40
15.875
 49
6.3499999999999996
 74
0
 49
-3.1749999999999998
 74
0
 49
0.0
 74
0
 49
-3.1749999999999998
 74
0
 49
0.0
 74
0
 49
-3.1749999999999998
 74
0
  0
LTYPE
  5
3C
100
AcDbSymbolTableRecord
100
AcDbLinetypeTableRecord
  2
DIVIDEX2
 70
0
  3
Divide (2x) ________  .  .  ________  .  .  _
 72
65
 73
6
 40
63.5
 49
25.3999999999999986
 74
0
 49
-12.6999999999999993
 74
0
 49
0.0
 74
0
 49
-12.6999999999999993
 74
0
 49
0.0
 74
0
 49
-12.6999999999999993
 74
0
  0
LTYPE
  5
3D
100
AcDbSymbolTableRecord
100
AcDbLinetypeTableRecord
  2
CENTER
 70
0
  3
Center ____ _ ____ _ ____ _ ____ _ ____ _ ____
 72
65
 73
4
 40
50.7999999999999972
 49
31.75
 74
0
 49
-6.3499999999999996
 74
0
 49
6.3499999999999996
 74
0
 49
-6.3499999999999996
 74
0
  0
LTYPE
  5
3E
100
AcDbSymbolTableRecord
100
AcDbLinetypeTableRecord
  2
CENTER2
 70
0
  3
Center (.5x) ___ _ ___ _ ___ _ ___ _ ___ _ ___
 72
65
 73
4
 40
28.5749999999999993
 49
19.0500000000000007
 74
0
 49
-3.1749999999999998
 74
0
 49
3.1749999999999998
 74
0
 49
-3.1749999999999998
 74
0
  0
LTYPE
  5
3F
100
AcDbSymbolTableRecord
100
AcDbLinetypeTableRecord
  2
CENTERX2
 70
0
  3
Center (2x) ________  __  ________  __  _____
 72
65
 73
4
 40
101.5999999999999943
 49
63.5
 74
0
 49
-12.6999999999999993
 74
0
 49
12.6999999999999993
 74
0
 49
-12.6999999999999993
 74
0
  0
LTYPE
  5
40
100
AcDbSymbolTableRecord
100
AcDbLinetypeTableRecord
  2
BORDER
 70
0
  3
Border __ __ . __ __ . __ __ . __ __ . __ __ .
 72
65
 73
6
 40
44.4500000000000028
 49
12.6999999999999993
 74
0
 49
-6.3499999999999996
 74
0
 49
12.6999999999999993
 74
0
 49
-6.3499999999999996
 74
0
 49
0.0
 74
0
 49
-6.3499999999999996
 74
0
  0
LTYPE
  5
41
100
AcDbSymbolTableRecord
100
AcDbLinetypeTableRecord
  2
BORDER2
 70
0
  3
Border (.5x) __.__.__.__.__.__.__.__.__.__.__.
 72
65
 73
6
 40
22.2250000000000014
 49
6.3499999999999996
 74
0
 49
-3.1749999999999998
 74
0
 49
6.3499999999999996
 74
0
 49
-3.1749999999999998
 74
0
 49
0.0
 74
0
 49
-3.1749999999999998
 74
0
  0
LTYPE
  5
42
100
AcDbSymbolTableRecord
100
AcDbLinetypeTableRecord
  2
BORDERX2
 70
0
  3
Border (2x) ____  ____  .  ____  ____  .  ___
 72
65
 73
6
 40
88.9000000000000057
 49
25.3999999999999986
 74
0
 49
-12.6999999999999993
 74
0
 49
25.3999999999999986
 74
0
 49
-12.6999999999999993
 74
0
 49
0.0
 74
0
 49
-12.6999999999999993
 74
0
  0
ENDTAB
  0
TABLE
  2
LAYER
  5
2
100
AcDbSymbolTable
 70
9
  0
LAYER
  5
10
100
AcDbSymbolTableRecord
100
AcDbLayerTableRecord
  2
0
 70
0
 62
7
420
16777215
  6
CONTINUOUS
370
0
390
F
  0
LAYER
  5
43
100
AcDbSymbolTableRecord
100
AcDbLayerTableRecord
  2
Notes
 70
0
 62
7
420
16777215
  6
CONTINUOUS
370
0
390
F
  0
LAYER
  5
44
100
AcDbSymbolTableRecord
100
AcDbLayerTableRecord
  2
Extruder Mount Plate
 70
0
 62
7
420
16777215
  6
CONTINUOUS
370
0
390
F
  0
LAYER
  5
45
100
AcDbSymbolTableRecord
100
AcDbLayerTableRecord
  2
Insulator Retainer
 70
0
 62
7
420
16777215
  6
CONTINUOUS
370
0
390
F
  0
LAYER
  5
46
100
AcDbSymbolTableRecord
100
AcDbLayerTableRecord
  2
Drawings
 70
0
 62
5
420
255
  6
CONTINUOUS
370
0
390
F
  0
LAYER
  5
47
100
AcDbSymbolTableRecord
100
AcDbLayerTableRecord
  2
Extruder Mount Plate Text
 70
0
 62
4
420
65535
  6
CONTINUOUS
370
0
390
F
  0
LAYER
  5
48
100
AcDbSymbolTableRecord
100
AcDbLayerTableRecord
  2
Insulator Retainer Text
 70
0
 62
4
420
65535
  6
CONTINUOUS
370
0
390
F
  0
LAYER
  5
49
100
AcDbSymbolTableRecord
100
AcDbLayerTableRecord
  2
Steel Washer Template
 70
0
 62
7
420
0
  6
CONTINUOUS
370
0
390
F
  0
LAYER
  5
4A
100
AcDbSymbolTableRecord
100
AcDbLayerTableRecord
  2
heater block
 70
0
 62
7
420
0
  6
CONTINUOUS
370
0
390
F
  0
ENDTAB
  0
TABLE
  2
STYLE
  5
3
100
AcDbSymbolTable
 70
1
  0
STYLE
  5
11
100
AcDbSymbolTableRecord
100
AcDbTextStyleTableRecord
  2
Standard
 70
0
 40
0.0
 41
0.75
 50
0.0
 71
0
 42
2.5
  3
txt
  4

  0
ENDTAB
  0
TABLE
  2
VIEW
  5
6
100
AcDbSymbolTable
 70
0
  0
ENDTAB
  0
TABLE
  2
UCS
  5
7
100
AcDbSymbolTable
 70
0
  0
ENDTAB
  0
TABLE
  2
APPID
  5
9
100
AcDbSymbolTable
 70
1
  0
APPID
  5
12
100
AcDbSymbolTableRecord
100
AcDbRegAppTableRecord
  2
ACAD
 70
0
  0
ENDTAB
  0
TABLE
  2
DIMSTYLE
  5
A
100
AcDbSymbolTable
 70
1
100
AcDbDimStyleTable
 71
0
  0
DIMSTYLE
105
27
100
AcDbSymbolTableRecord
100
AcDbDimStyleTableRecord
  2
Standard
 41
1.8
 42
0.0625
 43
3.75
 44
0.18
 70
0
 73
0
 74
0
 77
1
 78
8
140
0.35
141
2.5
143
0.03937007874016
147
0.09
171
3
172
1
271
2
272
2
274
3
278
44
283
0
284
8
340
11
  0
ENDTAB
  0
TABLE
  2
BLOCK_RECORD
  5
1
100
AcDbSymbolTable
 70
1
  0
BLOCK_RECORD
  5
1F
100
AcDbSymbolTableRecord
100
AcDbBlockTableRecord
  2
*Model_Space
340
22
  0
BLOCK_RECORD
  5
1B
100
AcDbSymbolTableRecord
100
AcDbBlockTableRecord
  2
*Paper_Space
340
1E
  0
BLOCK_RECORD
  5
23
100
AcDbSymbolTableRecord
100
AcDbBlockTableRecord
  2
*Paper_Space0
340
26
  0
ENDTAB
  0
ENDSEC
  0
SECTION
  2
BLOCKS
  0
BLOCK
  5
20
100
AcDbEntity
  8
0
100
AcDbBlockBegin
  2
*Model_Space
 70
0
 10
0.0
 20
0.0
 30
0.0
  3
*Model_Space
  1

  0
ENDBLK
  5
21
100
AcDbEntity
  8
0
100
AcDbBlockEnd
  0
BLOCK
  5
1C
100
AcDbEntity
 67
1
  8
0
100
AcDbBlockBegin
  2
*Paper_Space
 70
0
 10
0.0
 20
0.0
 30
0.0
  3
*Paper_Space
  1

  0
ENDBLK
  5
1D
100
AcDbEntity
 67
1
  8
0
100
AcDbBlockEnd
  0
BLOCK
  5
24
100
AcDbEntity
  8
0
100
AcDbBlockBegin
  2
*Paper_Space0
 70
0
 10
0.0
 20
0.0
 30
0.0
  3
*Paper_Space0
  1

  0
ENDBLK
  5
25
100
AcDbEntity
  8
0
100
AcDbBlockEnd
  0
ENDSEC
  0
SECTION
  2
ENTITIES
  0
CIRCLE
  5
4B
100
AcDbEntity
100
AcDbCircle
  8
Drawings
 62
256
370
-1
  6
ByLayer
 10
144.0
 20
136.600000000000307
 30
0.0
 40
25.3000000000000007
  0
CIRCLE
  5
4C
100
AcDbEntity
100
AcDbCircle
  8
Insulator Retainer
 62
256
370
-1
  6
ByLayer
 10
144.0
 20
136.600000000000307
 30
0.0
 40
8.0
  0
CIRCLE
  5
4D
100
AcDbEntity
100
AcDbCircle
  8
Steel Washer Template
 62
256
370
-1
  6
ByLayer
 10
144.0
 20
136.600000000000307
 30
0.0
 40
25.3000000000000007
  0
CIRCLE
  5
4E
100
AcDbEntity
100
AcDbCircle
  8
Steel Washer Template
 62
256
370
-1
  6
ByLayer
 10
144.0
 20
136.600000000000307
 30
0.0
 40
4.75
  0
CIRCLE
  5
4F
100
AcDbEntity
100
AcDbCircle
  8
Extruder Mount Plate
 62
256
370
-1
  6
ByLayer
 10
131.625
 20
136.600000000000307
 30
0.0
 40
1.45
  0
CIRCLE
  5
50
100
AcDbEntity
100
AcDbCircle
  8
Drawings
 62
256
370
-1
  6
ByLayer
 10
131.625
 20
136.600000000000307
 30
0.0
 40
4.375
  0
CIRCLE
  5
51
100
AcDbEntity
100
AcDbCircle
  8
Insulator Retainer
 62
256
370
-1
  6
ByLayer
 10
131.625
 20
136.600000000000307
 30
0.0
 40
1.45
  0
CIRCLE
  5
52
100
AcDbEntity
100
AcDbCircle
  8
Extruder Mount Plate
 62
256
370
-1
  6
ByLayer
 10
156.875
 20
136.6000000000002785
 30
0.0
 40
1.45
  0
CIRCLE
  5
53
100
AcDbEntity
100
AcDbCircle
  8
Drawings
 62
256
370
-1
  6
ByLayer
 10
156.875
 20
136.6000000000002785
 30
0.0
 40
4.375
  0
CIRCLE
  5
54
100
AcDbEntity
100
AcDbCircle
  8
Insulator Retainer
 62
256
370
-1
  6
ByLayer
 10
156.875
 20
136.6000000000002785
 30
0.0
 40
1.45
  0
CIRCLE
  5
55
100
AcDbEntity
100
AcDbCircle
  8
Extruder Mount Plate
 62
256
370
-1
  6
ByLayer
 10
144.0
 20
136.600000000000307
 30
0.0
 40
2.0
  0
CIRCLE
  5
56
100
AcDbEntity
100
AcDbCircle
  8
Drawings
 62
256
370
-1
  6
ByLayer
 10
144.0
 20
136.600000000000307
 30
0.0
 40
26.8000000000000007
  0
LINE
  5
57
100
AcDbEntity
100
AcDbLine
  8
Drawings
 62
256
370
-1
  6
ByLayer
 10
144.0
 20
136.600000000000307
 30
0.0
 11
120.7905191785770711
 21
150.0000000000003695
 31
0.0
  0
LINE
  5
58
100
AcDbEntity
100
AcDbLine
  8
Drawings
 62
256
370
-1
  6
ByLayer
 10
144.0
 20
136.600000000000307
 30
0.0
 11
144.0
 21
109.8000000000002956
 31
0.0
  0
LINE
  5
59
100
AcDbEntity
100
AcDbLine
  8
Drawings
 62
256
370
-1
  6
ByLayer
 10
144.0
 20
136.600000000000307
 30
0.0
 11
167.2094808214229715
 21
150.0000000000003126
 31
0.0
  0
CIRCLE
  5
5A
100
AcDbEntity
100
AcDbCircle
  8
Drawings
 62
256
370
-1
  6
ByLayer
 10
120.801933517592289
 20
149.993409928297325
 30
0.0
 40
4.375
  0
CIRCLE
  5
5B
100
AcDbEntity
100
AcDbCircle
  8
Extruder Mount Plate
 62
256
370
-1
  6
ByLayer
 10
120.801933517592289
 20
149.993409928297325
 30
0.0
 40
1.45
  0
CIRCLE
  5
5C
100
AcDbEntity
100
AcDbCircle
  8
Insulator Retainer
 62
256
370
-1
  6
ByLayer
 10
120.801933517592289
 20
149.993409928297325
 30
0.0
 40
1.45
  0
CIRCLE
  5
5D
100
AcDbEntity
100
AcDbCircle
  8
Steel Washer Template
 62
256
370
-1
  6
ByLayer
 10
120.801933517592289
 20
149.993409928297325
 30
0.0
 40
1.5
  0
LINE
  5
5E
100
AcDbEntity
100
AcDbLine
  8
Steel Washer Template
 62
256
370
-1
  6
ByLayer
 10
120.801933517592289
 20
151.493409928297325
 30
0.0
 11
120.801933517592289
 21
148.493409928297325
 31
0.0
  0
LINE
  5
5F
100
AcDbEntity
100
AcDbLine
  8
Steel Washer Template
 62
256
370
-1
  6
ByLayer
 10
119.3019335175922748
 20
149.993409928297325
 30
0.0
 11
122.301933517592289
 21
149.993409928297325
 31
0.0
  0
CIRCLE
  5
60
100
AcDbEntity
100
AcDbCircle
  8
Drawings
 62
256
370
-1
  6
ByLayer
 10
167.2094808214229715
 20
150.0000000000003126
 30
0.0
 40
4.375
  0
CIRCLE
  5
61
100
AcDbEntity
100
AcDbCircle
  8
Extruder Mount Plate
 62
256
370
-1
  6
ByLayer
 10
167.2094808214229715
 20
150.0000000000003126
 30
0.0
 40
1.45
  0
CIRCLE
  5
62
100
AcDbEntity
100
AcDbCircle
  8
Insulator Retainer
 62
256
370
-1
  6
ByLayer
 10
167.2094808214229715
 20
150.0000000000003126
 30
0.0
 40
1.45
  0
CIRCLE
  5
63
100
AcDbEntity
100
AcDbCircle
  8
Steel Washer Template
 62
256
370
-1
  6
ByLayer
 10
167.2094808214229715
 20
150.0000000000003126
 30
0.0
 40
1.5
  0
LINE
  5
64
100
AcDbEntity
100
AcDbLine
  8
Steel Washer Template
 62
256
370
-1
  6
ByLayer
 10
167.2094808214229715
 20
151.5000000000003126
 30
0.0
 11
167.2094808214229715
 21
148.5000000000002558
 31
0.0
  0
LINE
  5
65
100
AcDbEntity
100
AcDbLine
  8
Steel Washer Template
 62
256
370
-1
  6
ByLayer
 10
165.7094808214229715
 20
150.0000000000003126
 30
0.0
 11
168.7094808214229715
 21
150.0000000000002842
 31
0.0
  0
CIRCLE
  5
66
100
AcDbEntity
100
AcDbCircle
  8
Drawings
 62
256
370
-1
  6
ByLayer
 10
144.0
 20
109.8000000000002956
 30
0.0
 40
4.375
  0
CIRCLE
  5
67
100
AcDbEntity
100
AcDbCircle
  8
Extruder Mount Plate
 62
256
370
-1
  6
ByLayer
 10
144.0
 20
109.8000000000002956
 30
0.0
 40
1.45
  0
CIRCLE
  5
68
100
AcDbEntity
100
AcDbCircle
  8
Insulator Retainer
 62
256
370
-1
  6
ByLayer
 10
144.0
 20
109.8000000000002956
 30
0.0
 40
1.45
  0
CIRCLE
  5
69
100
AcDbEntity
100
AcDbCircle
  8
Steel Washer Template
 62
256
370
-1
  6
ByLayer
 10
144.0
 20
109.8000000000002956
 30
0.0
 40
1.5
  0
LINE
  5
6A
100
AcDbEntity
100
AcDbLine
  8
Steel Washer Template
 62
256
370
-1
  6
ByLayer
 10
144.0
 20
111.3000000000002956
 30
0.0
 11
143.9999999999999716
 21
108.3000000000002672
 31
0.0
  0
LINE
  5
6B
100
AcDbEntity
100
AcDbLine
  8
Steel Washer Template
 62
256
370
-1
  6
ByLayer
 10
142.5
 20
109.8000000000002956
 30
0.0
 11
145.5000000000000284
 21
109.800000000000324
 31
0.0
  0
CIRCLE
  5
6C
100
AcDbEntity
100
AcDbCircle
  8
Drawings
 62
256
370
-1
  6
ByLayer
 10
144.0
 20
109.8000000000002956
 30
0.0
 40
4.3799999999999999
  0
CIRCLE
  5
6D
100
AcDbEntity
100
AcDbCircle
  8
Steel Washer Template
 62
256
370
-1
  6
ByLayer
 10
144.0
 20
109.8000000000002956
 30
0.0
 40
1.5
  0
ARC
  5
6E
100
AcDbEntity
  8
Extruder Mount Plate
 62
256
370
-1
  6
ByLayer
100
AcDbCircle
 10
50.9973864338831007
 20
116.1029783359506382
 30
0.0
 40
2.0
100
AcDbArc
 50
180.0
 51
269.9999999999997726
  0
ARC
  5
6F
100
AcDbEntity
  8
Extruder Mount Plate
 62
256
370
-1
  6
ByLayer
100
AcDbCircle
 10
91.9973864338831078
 20
136.6029783359506951
 30
0.0
 40
2.5
100
AcDbArc
 50
360.0
 51
180.0
  0
ARC
  5
70
100
AcDbEntity
  8
Extruder Mount Plate
 62
256
370
-1
  6
ByLayer
100
AcDbCircle
 10
56.9973864338831078
 20
136.6029783359506382
 30
0.0
 40
2.5
100
AcDbArc
 50
360.0
 51
180.0
  0
ARC
  5
71
100
AcDbEntity
  8
Insulator Retainer
 62
256
370
-1
  6
ByLayer
100
AcDbCircle
 10
120.3018186434742915
 20
109.1029783359506382
 30
0.0
 40
5.0
100
AcDbArc
 50
49.2437442883100971
 51
90.0
  0
LINE
  5
72
100
AcDbEntity
100
AcDbLine
  8
Extruder Mount Plate
 62
256
370
-1
  6
ByLayer
 10
120.3018186434742773
 20
114.1029783359506382
 30
0.0
 11
50.9973864338830936
 21
114.1029783359506382
 31
0.0
  0
ARC
  5
73
100
AcDbEntity
  8
Extruder Mount Plate
 62
256
370
-1
  6
ByLayer
100
AcDbCircle
 10
120.3018186434742773
 20
109.1029783359506382
 30
0.0
 40
5.0
100
AcDbArc
 50
49.2437442883099692
 51
90.0
  0
MTEXT
  5
74
100
AcDbEntity
100
AcDbMText
  8
Notes
 62
256
370
-1
  6
ByLayer
 10
50.0
 20
180.0
 30
0.0
 40
3.0
 41
100.0
 71
1
 72
2
  1
Insulator\~Retainer:\~1/4"\~acrylic\PExtruder\~Mount\~Plate:\~1/4"\~acrylic
  7
standard
 50
0.0
 73
0
 44
1.0
  0
CIRCLE
  5
75
100
AcDbEntity
100
AcDbCircle
  8
Drawings
 62
256
370
-1
  6
ByLayer
 10
117.9986932169415468
 20
136.601489167975501
 30
0.0
 40
26.0013068257028657
  0
CIRCLE
  5
76
100
AcDbEntity
100
AcDbCircle
  8
Drawings
 62
256
370
-1
  6
ByLayer
 10
100.4986932169415468
 20
136.6014891679754726
 30
0.0
 40
43.5013068085475822
  0
ARC
  5
77
100
AcDbEntity
  8
Extruder Mount Plate
 62
256
370
-1
  6
ByLayer
100
AcDbCircle
 10
58.8315488339490145
 20
124.1029783359506382
 30
0.0
 40
5.0
100
AcDbArc
 50
133.8842964185371045
 51
73.8021181510758737
  0
ARC
  5
78
100
AcDbEntity
  8
Extruder Mount Plate
 62
256
370
-1
  6
ByLayer
100
AcDbCircle
 10
95.1983602451163051
 20
124.1029783359506951
 30
0.0
 40
5.0
100
AcDbArc
 50
144.0639496042512917
 51
83.832715716776903
  0
LINE
  5
79
100
AcDbEntity
100
AcDbLine
  8
Extruder Mount Plate
 62
256
370
-1
  6
ByLayer
 10
59.4973864338831078
 20
136.6029783359506382
 30
0.0
 11
59.4973864338831078
 21
136.6014891679749041
 31
0.0
  0
LINE
  5
7A
100
AcDbEntity
100
AcDbLine
  8
Extruder Mount Plate
 62
256
370
-1
  6
ByLayer
 10
54.4973864338831078
 20
136.6029783359506382
 30
0.0
 11
54.4973864338831078
 21
136.6014891679754726
 31
0.0
  0
ARC
  5
7B
100
AcDbEntity
  8
Extruder Mount Plate
 62
256
370
-1
  6
ByLayer
100
AcDbCircle
 10
100.4986932169415468
 20
136.6014891679754726
 30
0.0
 40
41.0013068085475822
100
AcDbArc
 50
179.9980379982529541
 51
190.8200766663324544
  0
ARC
  5
7C
100
AcDbEntity
  8
Extruder Mount Plate
 62
256
370
-1
  6
ByLayer
100
AcDbCircle
 10
100.4986932169415468
 20
136.6014891679754726
 30
0.0
 40
46.0013068085475822
100
AcDbArc
 50
180.0
 51
191.1489257238845028
  0
ARC
  5
7D
100
AcDbEntity
  8
Extruder Mount Plate
 62
256
370
-1
  6
ByLayer
100
AcDbCircle
 10
117.9986932169415468
 20
136.601489167975501
 30
0.0
 40
28.5013068257028657
100
AcDbArc
 50
180.0
 51
199.607027469222885
  0
ARC
  5
7E
100
AcDbEntity
  8
Extruder Mount Plate
 62
256
370
-1
  6
ByLayer
100
AcDbCircle
 10
117.9986932169415468
 20
136.601489167975501
 30
0.0
 40
23.5013068257028657
100
AcDbArc
 50
180.0
 51
198.6810168746205534
  0
LINE
  5
7F
100
AcDbEntity
100
AcDbLine
  8
Extruder Mount Plate
 62
256
370
-1
  6
ByLayer
 10
94.4973864338831078
 20
136.6029783359506951
 30
0.0
 11
94.4973864338831078
 21
136.6014891679751599
 31
0.0
  0
LINE
  5
80
100
AcDbEntity
100
AcDbLine
  8
Extruder Mount Plate
 62
256
370
-1
  6
ByLayer
 10
89.4973864338831078
 20
136.6029783359506951
 30
0.0
 11
89.4973864338831078
 21
136.601489167975501
 31
0.0
  0
ARC
  5
81
100
AcDbEntity
  8
Extruder Mount Plate
 62
256
370
-1
  6
ByLayer
100
AcDbCircle
 10
144.0
 20
136.600000000000307
 30
0.0
 40
31.3000000000000007
100
AcDbArc
 50
229.2437442883099834
 51
141.6899440019171834
  0
ARC
  5
82
100
AcDbEntity
  8
Extruder Mount Plate
 62
256
370
-1
  6
ByLayer
100
AcDbCircle
 10
115.5165668148702593
 20
159.1029783359506382
 30
0.0
 40
5.0
100
AcDbArc
 50
270.0
 51
321.6899440019171834
  0
LINE
  5
83
100
AcDbEntity
100
AcDbLine
  8
Extruder Mount Plate
 62
256
370
-1
  6
ByLayer
 10
115.5165668148702593
 20
154.1029783359506382
 30
0.0
 11
50.9973864338831504
 21
154.1029783359506382
 31
0.0
  0
LINE
  5
84
100
AcDbEntity
100
AcDbLine
  8
Extruder Mount Plate
 62
256
370
-1
  6
ByLayer
 10
48.9973864338831504
 20
152.1029783359506382
 30
0.0
 11
48.9973864338831007
 21
116.1029783359506382
 31
0.0
  0
ARC
  5
85
100
AcDbEntity
  8
Extruder Mount Plate
 62
256
370
-1
  6
ByLayer
100
AcDbCircle
 10
50.9973864338831504
 20
152.1029783359506382
 30
0.0
 40
2.0
100
AcDbArc
 50
90.0
 51
180.0
  0
MTEXT
  5
86
100
AcDbEntity
100
AcDbMText
  8
Extruder Mount Plate Text
 62
256
370
-1
  6
ByLayer
 10
80.0
 20
150.0
 30
0.0
 40
3.0
 41
100.0
 71
5
 72
2
  1
Extruder\~Mount\~Plate
  7
standard
 50
360.0
 73
1
 44
1.0
  0
ARC
  5
87
100
AcDbEntity
  8
Insulator Retainer
 62
256
370
-1
  6
ByLayer
100
AcDbCircle
 10
50.9973864338831007
 20
116.102978335950624
 30
0.0
 40
2.0
100
AcDbArc
 50
180.0
 51
269.9999999999997726
  0
ARC
  5
88
100
AcDbEntity
  8
Insulator Retainer
 62
256
370
-1
  6
ByLayer
100
AcDbCircle
 10
91.997386433883122
 20
136.6029783359506951
 30
0.0
 40
2.5
100
AcDbArc
 50
360.0
 51
180.0
  0
ARC
  5
89
100
AcDbEntity
  8
Insulator Retainer
 62
256
370
-1
  6
ByLayer
100
AcDbCircle
 10
56.9973864338831149
 20
136.6029783359506098
 30
0.0
 40
2.5
100
AcDbArc
 50
360.0
 51
180.0
  0
LINE
  5
8A
100
AcDbEntity
100
AcDbLine
  8
Insulator Retainer
 62
256
370
-1
  6
ByLayer
 10
120.3018186434742915
 20
114.1029783359506098
 30
0.0
 11
50.9973864338830936
 21
114.1029783359506098
 31
0.0
  0
ARC
  5
8B
100
AcDbEntity
  8
Insulator Retainer
 62
256
370
-1
  6
ByLayer
100
AcDbCircle
 10
58.8315488339490145
 20
124.1029783359506382
 30
0.0
 40
5.0
100
AcDbArc
 50
133.8842964185371045
 51
73.8021181510758737
  0
ARC
  5
8C
100
AcDbEntity
  8
Insulator Retainer
 62
256
370
-1
  6
ByLayer
100
AcDbCircle
 10
95.1983602451163051
 20
124.1029783359506666
 30
0.0
 40
5.0
100
AcDbArc
 50
144.0639496042512917
 51
83.832715716776903
  0
LINE
  5
8D
100
AcDbEntity
100
AcDbLine
  8
Insulator Retainer
 62
256
370
-1
  6
ByLayer
 10
59.4973864338831149
 20
136.6029783359505814
 30
0.0
 11
59.4973864338831149
 21
136.6014891679748757
 31
0.0
  0
LINE
  5
8E
100
AcDbEntity
100
AcDbLine
  8
Insulator Retainer
 62
256
370
-1
  6
ByLayer
 10
54.4973864338831149
 20
136.6029783359506382
 30
0.0
 11
54.4973864338831149
 21
136.6014891679754442
 31
0.0
  0
ARC
  5
8F
100
AcDbEntity
  8
Insulator Retainer
 62
256
370
-1
  6
ByLayer
100
AcDbCircle
 10
100.4986932169415468
 20
136.6014891679754442
 30
0.0
 40
41.0013068085475822
100
AcDbArc
 50
179.9980379982529541
 51
190.8200766663324544
  0
ARC
  5
90
100
AcDbEntity
  8
Insulator Retainer
 62
256
370
-1
  6
ByLayer
100
AcDbCircle
 10
100.4986932169415468
 20
136.6014891679754442
 30
0.0
 40
46.0013068085475822
100
AcDbArc
 50
180.0
 51
191.1489257238845028
  0
ARC
  5
91
100
AcDbEntity
  8
Insulator Retainer
 62
256
370
-1
  6
ByLayer
100
AcDbCircle
 10
117.9986932169415468
 20
136.6014891679754442
 30
0.0
 40
28.5013068257028657
100
AcDbArc
 50
180.0
 51
199.607027469222885
  0
ARC
  5
92
100
AcDbEntity
  8
Insulator Retainer
 62
256
370
-1
  6
ByLayer
100
AcDbCircle
 10
117.9986932169415468
 20
136.6014891679754442
 30
0.0
 40
23.5013068257028657
100
AcDbArc
 50
180.0
 51
198.6810168746205534
  0
LINE
  5
93
100
AcDbEntity
100
AcDbLine
  8
Insulator Retainer
 62
256
370
-1
  6
ByLayer
 10
94.497386433883122
 20
136.6029783359506666
 30
0.0
 11
94.497386433883122
 21
136.6014891679751599
 31
0.0
  0
LINE
  5
94
100
AcDbEntity
100
AcDbLine
  8
Insulator Retainer
 62
256
370
-1
  6
ByLayer
 10
89.497386433883122
 20
136.6029783359506951
 30
0.0
 11
89.497386433883122
 21
136.6014891679754726
 31
0.0
  0
LINE
  5
95
100
AcDbEntity
100
AcDbLine
  8
Insulator Retainer
 62
256
370
-1
  6
ByLayer
 10
48.9973864338831575
 20
152.1029783359506382
 30
0.0
 11
48.9973864338831007
 21
116.1029783359506382
 31
0.0
  0
ARC
  5
96
100
AcDbEntity
  8
Insulator Retainer
 62
256
370
-1
  6
ByLayer
100
AcDbCircle
 10
50.9973864338831575
 20
152.1029783359506098
 30
0.0
 40
2.0
100
AcDbArc
 50
90.0
 51
180.0
  0
ARC
  5
97
100
AcDbEntity
  8
Insulator Retainer
 62
256
370
-1
  6
ByLayer
100
AcDbCircle
 10
144.0
 20
136.600000000000307
 30
0.0
 40
31.3000000000000007
100
AcDbArc
 50
229.2437442883099834
 51
141.6899440019172118
  0
LINE
  5
98
100
AcDbEntity
100
AcDbLine
  8
Insulator Retainer
 62
256
370
-1
  6
ByLayer
 10
115.5165668148702451
 20
154.1029783359506098
 30
0.0
 11
50.9973864338831575
 21
154.1029783359506098
 31
0.0
  0
ARC
  5
99
100
AcDbEntity
  8
Insulator Retainer
 62
256
370
-1
  6
ByLayer
100
AcDbCircle
 10
115.5165668148702451
 20
159.1029783359506098
 30
0.0
 40
5.0
100
AcDbArc
 50
270.0
 51
321.6899440019174676
  0
MTEXT
  5
9A
100
AcDbEntity
100
AcDbMText
  8
Insulator Retainer Text
 62
256
370
-1
  6
ByLayer
 10
80.0
 20
146.0
 30
0.0
 40
3.0
 41
100.0
 71
5
 72
2
  1
Insulator\~Retainer
  7
standard
 50
360.0
 73
1
 44
1.0
  0
ENDSEC
  0
SECTION
  2
OBJECTS
  0
DICTIONARY
  5
C
100
AcDbDictionary
280
0
281
1
  3
ACAD_GROUP
350
D
  3
ACAD_LAYOUT
350
1A
  3
ACAD_MLINESTYLE
350
17
  3
ACAD_PLOTSETTINGS
350
19
  3
ACAD_PLOTSTYLENAME
350
E
  3
AcDbVariableDictionary
350
9B
  0
DICTIONARY
  5
D
100
AcDbDictionary
280
0
281
1
  0
ACDBDICTIONARYWDFLT
  5
E
100
AcDbDictionary
281
1
  3
Normal
350
F
100
AcDbDictionaryWithDefault
340
F
  0
ACDBPLACEHOLDER
  5
F
  0
DICTIONARY
  5
17
100
AcDbDictionary
280
0
281
1
  3
Standard
350
18
  0
MLINESTYLE
  5
18
100
AcDbMlineStyle
  2
STANDARD
 70
0
  3

 62
256
 51
90.0
 52
90.0
 71
2
 49
0.5
 62
256
  6
BYLAYER
 49
-0.5
 62
256
  6
BYLAYER
  0
DICTIONARY
  5
19
100
AcDbDictionary
280
0
281
1
  0
DICTIONARY
  5
1A
100
AcDbDictionary
281
1
  3
Layout1
350
1E
  3
Layout2
350
26
  3
Model
350
22
  0
LAYOUT
  5
1E
100
AcDbPlotSettings
  1

  2
C:\Program Files\AutoCAD 2002\plotters\DWF ePlot (optimized for plotting).pc3
  4

  6

 40
0.0
 41
0.0
 42
0.0
 43
0.0
 44
0.0
 45
0.0
 46
0.0
 47
0.0
 48
0.0
 49
0.0
140
0.0
141
0.0
142
1.0
143
1.0
 70
688
 72
0
 73
0
 74
5
  7

 75
16
147
1.0
148
0.0
149
0.0
100
AcDbLayout
  1
Layout1
 70
1
 71
1
 10
0.0
 20
0.0
 11
420.0
 21
297.0
 12
0.0
 22
0.0
 32
0.0
 14
100000000000000000000.0
 24
100000000000000000000.0
 34
100000000000000000000.0
 15
-100000000000000000000.0
 25
-100000000000000000000.0
 35
-100000000000000000000.0
146
0.0
 13
0.0
 23
0.0
 33
0.0
 16
1.0
 26
0.0
 36
0.0
 17
0.0
 27
1.0
 37
0.0
 76
0
330
1B
  0
LAYOUT
  5
22
100
AcDbPlotSettings
  1

  2
C:\Program Files\AutoCAD 2002\plotters\DWF ePlot (optimized for plotting).pc3
  4

  6

 40
0.0
 41
0.0
 42
0.0
 43
0.0
 44
0.0
 45
0.0
 46
0.0
 47
0.0
 48
0.0
 49
0.0
140
0.0
141
0.0
142
1.0
143
1.0
 70
1712
 72
0
 73
0
 74
0
  7

 75
0
147
1.0
148
0.0
149
0.0
100
AcDbLayout
  1
Model
 70
1
 71
0
 10
0.0
 20
0.0
 11
12.0
 21
9.0
 12
0.0
 22
0.0
 32
0.0
 14
0.0
 24
0.0
 34
0.0
 15
0.0
 25
0.0
 35
0.0
146
0.0
 13
0.0
 23
0.0
 33
0.0
 16
1.0
 26
0.0
 36
0.0
 17
0.0
 27
1.0
 37
0.0
 76
0
330
1F
  0
LAYOUT
  5
26
100
AcDbPlotSettings
  1

  2
C:\Program Files\AutoCAD 2002\plotters\DWF ePlot (optimized for plotting).pc3
  4

  6

 40
0.0
 41
0.0
 42
0.0
 43
0.0
 44
0.0
 45
0.0
 46
0.0
 47
0.0
 48
0.0
 49
0.0
140
0.0
141
0.0
142
1.0
143
1.0
 70
688
 72
0
 73
0
 74
5
  7

 75
16
147
1.0
148
0.0
149
0.0
100
AcDbLayout
  1
Layout2
 70
1
 71
2
 10
0.0
 20
0.0
 11
12.0
 21
9.0
 12
0.0
 22
0.0
 32
0.0
 14
0.0
 24
0.0
 34
0.0
 15
0.0
 25
0.0
 35
0.0
146
0.0
 13
0.0
 23
0.0
 33
0.0
 16
1.0
 26
0.0
 36
0.0
 17
0.0
 27
1.0
 37
0.0
 76
0
330
23
  0
DICTIONARY
  5
9B
100
AcDbDictionary
281
1
  3
DIMASSOC
350
9D
  3
HIDETEXT
350
9C
  0
DICTIONARYVAR
  5
9C
100
DictionaryVariables
280
0
  1
2
  0
DICTIONARYVAR
  5
9D
100
DictionaryVariables
280
0
  1
1
  0
ENDSEC
  0
EOF
