999
dxflib 2.2.0.0
  0
SECTION
  2
HEADER
  9
$ACADVER
  1
AC1015
  9
$HANDSEED
  5
FFFF
  9
$DIMASZ
 40
2.5
  9
$PLIMMIN
 10
0.0
 20
0.0
  9
$DIMEXE
 40
1.25
  9
$DIMGAP
 40
0.625
  9
$PLIMMAX
 10
210.0
 20
297.0
  9
$INSUNITS
 70
4
  9
$DIMSTYLE
  2
Standard
  9
$CLAYER
  8
0
  9
$DIMEXO
 40
0.625
  9
$DIMTXT
 40
2.5
  9
$CLAYER
  8
0
  0
ENDSEC
  0
SECTION
  2
TABLES
  0
TABLE
  2
VPORT
  5
8
100
AcDbSymbolTable
 70
1
  0
VPORT
  5
30
100
AcDbSymbolTableRecord
100
AcDbViewportTableRecord
  2
*Active
 70
0
 10
0.0
 20
0.0
 11
1.0
 21
1.0
 12
286.3055555555554861
 22
148.5
 13
0.0
 23
0.0
 14
10.0
 24
10.0
 15
10.0
 25
10.0
 16
0.0
 26
0.0
 36
1.0
 17
0.0
 27
0.0
 37
0.0
 40
297.0
 41
1.92798353909465
 42
50.0
 43
0.0
 44
0.0
 50
0.0
 51
0.0
 71
0
 72
100
 73
1
 74
3
 75
1
 76
1
 77
0
 78
0
281
0
 65
1
110
0.0
120
0.0
130
0.0
111
1.0
121
0.0
131
0.0
112
0.0
122
1.0
132
0.0
 79
0
146
0.0
  0
ENDTAB
  0
TABLE
  2
LTYPE
  5
5
100
AcDbSymbolTable
 70
21
  0
LTYPE
  5
14
100
AcDbSymbolTableRecord
100
AcDbLinetypeTableRecord
  2
ByBlock
 70
0
  3

 72
65
 73
0
 40
0.0
  0
LTYPE
  5
15
100
AcDbSymbolTableRecord
100
AcDbLinetypeTableRecord
  2
ByLayer
 70
0
  3

 72
65
 73
0
 40
0.0
  0
LTYPE
  5
16
100
AcDbSymbolTableRecord
100
AcDbLinetypeTableRecord
  2
CONTINUOUS
 70
0
  3
Solid line
 72
65
 73
0
 40
0.0
  0
LTYPE
  5
31
100
AcDbSymbolTableRecord
100
AcDbLinetypeTableRecord
  2
DOT
 70
0
  3
Dot . . . . . . . . . . . . . . . . . . . . . .
 72
65
 73
2
 40
6.3499999999999996
 49
0.0
 74
0
 49
-6.3499999999999996
 74
0
  0
LTYPE
  5
32
100
AcDbSymbolTableRecord
100
AcDbLinetypeTableRecord
  2
DOT2
 70
0
  3
Dot (.5x) .....................................
 72
65
 73
2
 40
3.1749999999999998
 49
0.0
 74
0
 49
-3.1749999999999998
 74
0
  0
LTYPE
  5
33
100
AcDbSymbolTableRecord
100
AcDbLinetypeTableRecord
  2
DOTX2
 70
0
  3
Dot (2x) .  .  .  .  .  .  .  .  .  .  .  .  .
 72
65
 73
2
 40
12.6999999999999993
 49
0.0
 74
0
 49
-12.6999999999999993
 74
0
  0
LTYPE
  5
34
100
AcDbSymbolTableRecord
100
AcDbLinetypeTableRecord
  2
DASHED
 70
0
  3
Dashed __ __ __ __ __ __ __ __ __ __ __ __ __ _
 72
65
 73
2
 40
19.0500000000000007
 49
12.6999999999999993
 74
0
 49
-6.3499999999999996
 74
0
  0
LTYPE
  5
35
100
AcDbSymbolTableRecord
100
AcDbLinetypeTableRecord
  2
DASHED2
 70
0
  3
Dashed (.5x) _ _ _ _ _ _ _ _ _ _ _ _ _ _ _ _ _
 72
65
 73
2
 40
9.5250000000000004
 49
6.3499999999999996
 74
0
 49
-3.1749999999999998
 74
0
  0
LTYPE
  5
36
100
AcDbSymbolTableRecord
100
AcDbLinetypeTableRecord
  2
DASHEDX2
 70
0
  3
Dashed (2x) ____  ____  ____  ____  ____  ___
 72
65
 73
2
 40
38.1000000000000014
 49
25.3999999999999986
 74
0
 49
-12.6999999999999993
 74
0
  0
LTYPE
  5
37
100
AcDbSymbolTableRecord
100
AcDbLinetypeTableRecord
  2
DASHDOT
 70
0
  3
Dash dot __ . __ . __ . __ . __ . __ . __ . __
 72
65
 73
4
 40
25.3999999999999986
 49
12.6999999999999993
 74
0
 49
-6.3499999999999996
 74
0
 49
0.0
 74
0
 49
-6.3499999999999996
 74
0
  0
LTYPE
  5
38
100
AcDbSymbolTableRecord
100
AcDbLinetypeTableRecord
  2
DASHDOT2
 70
0
  3
Dash dot (.5x) _._._._._._._._._._._._._._._.
 72
65
 73
4
 40
12.6999999999999993
 49
6.3499999999999996
 74
0
 49
-3.1749999999999998
 74
0
 49
0.0
 74
0
 49
-3.1749999999999998
 74
0
  0
LTYPE
  5
39
100
AcDbSymbolTableRecord
100
AcDbLinetypeTableRecord
  2
DASHDOTX2
 70
0
  3
Dash dot (2x) ____  .  ____  .  ____  .  ___
 72
65
 73
4
 40
50.7999999999999972
 49
25.3999999999999986
 74
0
 49
-12.6999999999999993
 74
0
 49
0.0
 74
0
 49
-12.6999999999999993
 74
0
  0
LTYPE
  5
3A
100
AcDbSymbolTableRecord
100
AcDbLinetypeTableRecord
  2
DIVIDE
 70
0
  3
Divide ____ . . ____ . . ____ . . ____ . . ____
 72
65
 73
6
 40
31.75
 49
12.6999999999999993
 74
0
 49
-6.3499999999999996
 74
0
 49
0.0
 74
0
 49
-6.3499999999999996
 74
0
 49
0.0
 74
0
 49
-6.3499999999999996
 74
0
  0
LTYPE
  5
3B
100
AcDbSymbolTableRecord
100
AcDbLinetypeTableRecord
  2
DIVIDE2
 70
0
  3
Divide (.5x) __..__..__..__..__..__..__..__.._
 72
65
 73
6
 40
15.875
 49
6.3499999999999996
 74
0
 49
-3.1749999999999998
 74
0
 49
0.0
 74
0
 49
-3.1749999999999998
 74
0
 49
0.0
 74
0
 49
-3.1749999999999998
 74
0
  0
LTYPE
  5
3C
100
AcDbSymbolTableRecord
100
AcDbLinetypeTableRecord
  2
DIVIDEX2
 70
0
  3
Divide (2x) ________  .  .  ________  .  .  _
 72
65
 73
6
 40
63.5
 49
25.3999999999999986
 74
0
 49
-12.6999999999999993
 74
0
 49
0.0
 74
0
 49
-12.6999999999999993
 74
0
 49
0.0
 74
0
 49
-12.6999999999999993
 74
0
  0
LTYPE
  5
3D
100
AcDbSymbolTableRecord
100
AcDbLinetypeTableRecord
  2
CENTER
 70
0
  3
Center ____ _ ____ _ ____ _ ____ _ ____ _ ____
 72
65
 73
4
 40
50.7999999999999972
 49
31.75
 74
0
 49
-6.3499999999999996
 74
0
 49
6.3499999999999996
 74
0
 49
-6.3499999999999996
 74
0
  0
LTYPE
  5
3E
100
AcDbSymbolTableRecord
100
AcDbLinetypeTableRecord
  2
CENTER2
 70
0
  3
Center (.5x) ___ _ ___ _ ___ _ ___ _ ___ _ ___
 72
65
 73
4
 40
28.5749999999999993
 49
19.0500000000000007
 74
0
 49
-3.1749999999999998
 74
0
 49
3.1749999999999998
 74
0
 49
-3.1749999999999998
 74
0
  0
LTYPE
  5
3F
100
AcDbSymbolTableRecord
100
AcDbLinetypeTableRecord
  2
CENTERX2
 70
0
  3
Center (2x) ________  __  ________  __  _____
 72
65
 73
4
 40
101.5999999999999943
 49
63.5
 74
0
 49
-12.6999999999999993
 74
0
 49
12.6999999999999993
 74
0
 49
-12.6999999999999993
 74
0
  0
LTYPE
  5
40
100
AcDbSymbolTableRecord
100
AcDbLinetypeTableRecord
  2
BORDER
 70
0
  3
Border __ __ . __ __ . __ __ . __ __ . __ __ .
 72
65
 73
6
 40
44.4500000000000028
 49
12.6999999999999993
 74
0
 49
-6.3499999999999996
 74
0
 49
12.6999999999999993
 74
0
 49
-6.3499999999999996
 74
0
 49
0.0
 74
0
 49
-6.3499999999999996
 74
0
  0
LTYPE
  5
41
100
AcDbSymbolTableRecord
100
AcDbLinetypeTableRecord
  2
BORDER2
 70
0
  3
Border (.5x) __.__.__.__.__.__.__.__.__.__.__.
 72
65
 73
6
 40
22.2250000000000014
 49
6.3499999999999996
 74
0
 49
-3.1749999999999998
 74
0
 49
6.3499999999999996
 74
0
 49
-3.1749999999999998
 74
0
 49
0.0
 74
0
 49
-3.1749999999999998
 74
0
  0
LTYPE
  5
42
100
AcDbSymbolTableRecord
100
AcDbLinetypeTableRecord
  2
BORDERX2
 70
0
  3
Border (2x) ____  ____  .  ____  ____  .  ___
 72
65
 73
6
 40
88.9000000000000057
 49
25.3999999999999986
 74
0
 49
-12.6999999999999993
 74
0
 49
25.3999999999999986
 74
0
 49
-12.6999999999999993
 74
0
 49
0.0
 74
0
 49
-12.6999999999999993
 74
0
  0
ENDTAB
  0
TABLE
  2
LAYER
  5
2
100
AcDbSymbolTable
 70
8
  0
LAYER
  5
10
100
AcDbSymbolTableRecord
100
AcDbLayerTableRecord
  2
0
 70
0
 62
7
420
0
  6
CONTINUOUS
370
25
390
F
  0
LAYER
  5
43
100
AcDbSymbolTableRecord
100
AcDbLayerTableRecord
  2
Filament Guide Middle Text
 70
0
 62
4
420
65535
  6
CONTINUOUS
370
0
390
F
  0
LAYER
  5
44
100
AcDbSymbolTableRecord
100
AcDbLayerTableRecord
  2
Filament Guide Middle
 70
0
 62
7
420
0
  6
CONTINUOUS
370
0
390
F
  0
LAYER
  5
45
100
AcDbSymbolTableRecord
100
AcDbLayerTableRecord
  2
Filament Guide Middle Honeycomb
 70
0
 62
7
420
0
  6
CONTINUOUS
370
0
390
F
  0
LAYER
  5
46
100
AcDbSymbolTableRecord
100
AcDbLayerTableRecord
  2
Dino Brackets
 70
0
 62
7
420
0
  6
CONTINUOUS
370
0
390
F
  0
LAYER
  5
47
100
AcDbSymbolTableRecord
100
AcDbLayerTableRecord
  2
Dino Etch
 70
0
 62
4
420
65535
  6
CONTINUOUS
370
0
390
F
  0
LAYER
  5
48
100
AcDbSymbolTableRecord
100
AcDbLayerTableRecord
  2
Insulator Retainer
 70
0
 62
7
420
16777215
  6
CONTINUOUS
370
0
390
F
  0
LAYER
  5
49
100
AcDbSymbolTableRecord
100
AcDbLayerTableRecord
  2
Insulator Retainer Text
 70
0
 62
4
420
65535
  6
CONTINUOUS
370
0
390
F
  0
ENDTAB
  0
TABLE
  2
STYLE
  5
3
100
AcDbSymbolTable
 70
1
  0
STYLE
  5
11
100
AcDbSymbolTableRecord
100
AcDbTextStyleTableRecord
  2
Standard
 70
0
 40
0.0
 41
0.75
 50
0.0
 71
0
 42
2.5
  3
txt
  4

  0
ENDTAB
  0
TABLE
  2
VIEW
  5
6
100
AcDbSymbolTable
 70
0
  0
ENDTAB
  0
TABLE
  2
UCS
  5
7
100
AcDbSymbolTable
 70
0
  0
ENDTAB
  0
TABLE
  2
APPID
  5
9
100
AcDbSymbolTable
 70
1
  0
APPID
  5
12
100
AcDbSymbolTableRecord
100
AcDbRegAppTableRecord
  2
ACAD
 70
0
  0
ENDTAB
  0
TABLE
  2
DIMSTYLE
  5
A
100
AcDbSymbolTable
 70
1
100
AcDbDimStyleTable
 71
0
  0
DIMSTYLE
105
27
100
AcDbSymbolTableRecord
100
AcDbDimStyleTableRecord
  2
Standard
 41
2.5
 42
0.625
 43
3.75
 44
1.25
 70
0
 73
0
 74
0
 77
1
 78
8
140
2.5
141
2.5
143
0.03937007874016
147
0.625
171
3
172
1
271
2
272
2
274
3
278
44
283
0
284
8
340
11
  0
ENDTAB
  0
TABLE
  2
BLOCK_RECORD
  5
1
100
AcDbSymbolTable
 70
1
  0
BLOCK_RECORD
  5
1F
100
AcDbSymbolTableRecord
100
AcDbBlockTableRecord
  2
*Model_Space
340
22
  0
BLOCK_RECORD
  5
1B
100
AcDbSymbolTableRecord
100
AcDbBlockTableRecord
  2
*Paper_Space
340
1E
  0
BLOCK_RECORD
  5
23
100
AcDbSymbolTableRecord
100
AcDbBlockTableRecord
  2
*Paper_Space0
340
26
  0
BLOCK_RECORD
  5
4A
100
AcDbSymbolTableRecord
100
AcDbBlockTableRecord
  2
tbits
340
0
  0
BLOCK_RECORD
  5
4B
100
AcDbSymbolTableRecord
100
AcDbBlockTableRecord
  2
slots
340
0
  0
ENDTAB
  0
ENDSEC
  0
SECTION
  2
BLOCKS
  0
BLOCK
  5
20
100
AcDbEntity
  8
0
100
AcDbBlockBegin
  2
*Model_Space
 70
0
 10
0.0
 20
0.0
 30
0.0
  3
*Model_Space
  1

  0
ENDBLK
  5
21
100
AcDbEntity
  8
0
100
AcDbBlockEnd
  0
BLOCK
  5
1C
100
AcDbEntity
 67
1
  8
0
100
AcDbBlockBegin
  2
*Paper_Space
 70
0
 10
0.0
 20
0.0
 30
0.0
  3
*Paper_Space
  1

  0
ENDBLK
  5
1D
100
AcDbEntity
 67
1
  8
0
100
AcDbBlockEnd
  0
BLOCK
  5
24
100
AcDbEntity
  8
0
100
AcDbBlockBegin
  2
*Paper_Space0
 70
0
 10
0.0
 20
0.0
 30
0.0
  3
*Paper_Space0
  1

  0
ENDBLK
  5
25
100
AcDbEntity
  8
0
100
AcDbBlockEnd
  0
BLOCK
  5
4C
100
AcDbEntity
  8
0
100
AcDbBlockBegin
  2
tbits
 70
0
 10
0.0
 20
0.0
 30
0.0
  3
tbits
  1

  0
LINE
  5
4D
100
AcDbEntity
100
AcDbLine
  8
0
 62
256
370
0
  6
ByLayer
 10
-1.5
 20
0.0
 30
0.0
 11
-1.5
 21
8.0
 31
0.0
  0
LINE
  5
4E
100
AcDbEntity
100
AcDbLine
  8
0
 62
256
370
0
  6
ByLayer
 10
1.5
 20
8.0
 30
0.0
 11
1.5
 21
0.0
 31
0.0
  0
LINE
  5
4F
100
AcDbEntity
100
AcDbLine
  8
0
 62
256
370
0
  6
ByLayer
 10
1.5
 20
8.0
 30
0.0
 11
2.8000000000000003
 21
8.0
 31
0.0
  0
LINE
  5
50
100
AcDbEntity
100
AcDbLine
  8
0
 62
256
370
0
  6
ByLayer
 10
-2.8000000000000003
 20
8.0
 30
0.0
 11
-1.5
 21
8.0
 31
0.0
  0
LINE
  5
51
100
AcDbEntity
100
AcDbLine
  8
0
 62
256
370
0
  6
ByLayer
 10
1.5
 20
0.0
 30
0.0
 11
5.0
 21
0.0
 31
0.0
  0
LINE
  5
52
100
AcDbEntity
100
AcDbLine
  8
0
 62
256
370
0
  6
ByLayer
 10
5.0
 20
0.0
 30
0.0
 11
5.0
 21
-4.5
 31
0.0
  0
LINE
  5
53
100
AcDbEntity
100
AcDbLine
  8
0
 62
256
370
0
  6
ByLayer
 10
5.0
 20
-4.5
 30
0.0
 11
10.0
 21
-4.5
 31
0.0
  0
LINE
  5
54
100
AcDbEntity
100
AcDbLine
  8
0
 62
256
370
0
  6
ByLayer
 10
10.0
 20
0.0
 30
0.0
 11
10.0004751072897431
 21
-4.5
 31
0.0
  0
LINE
  5
55
100
AcDbEntity
100
AcDbLine
  8
0
 62
256
370
0
  6
ByLayer
 10
-10.0
 20
-4.5
 30
0.0
 11
-5.0
 21
-4.5
 31
0.0
  0
LINE
  5
56
100
AcDbEntity
100
AcDbLine
  8
0
 62
256
370
0
  6
ByLayer
 10
-5.0
 20
0.0
 30
0.0
 11
-5.0
 21
-4.5
 31
0.0
  0
LINE
  5
57
100
AcDbEntity
100
AcDbLine
  8
0
 62
256
370
0
  6
ByLayer
 10
-10.0
 20
-4.5
 30
0.0
 11
-10.0
 21
0.0
 31
0.0
  0
LINE
  5
58
100
AcDbEntity
100
AcDbLine
  8
0
 62
256
370
0
  6
ByLayer
 10
-1.5
 20
0.0
 30
0.0
 11
-5.0
 21
0.0
 31
0.0
  0
LINE
  5
59
100
AcDbEntity
100
AcDbLine
  8
0
 62
256
370
0
  6
ByLayer
 10
-2.8000000000000003
 20
10.0999999999999996
 30
0.0
 11
-2.8000000000000003
 21
8.0
 31
0.0
  0
LINE
  5
5A
100
AcDbEntity
100
AcDbLine
  8
0
 62
256
370
0
  6
ByLayer
 10
-1.5
 20
10.0999999999999996
 30
0.0
 11
-1.5
 21
12.0
 31
0.0
  0
LINE
  5
5B
100
AcDbEntity
100
AcDbLine
  8
0
 62
256
370
0
  6
ByLayer
 10
-1.5
 20
10.0999999999999996
 30
0.0
 11
-2.8000000000000003
 21
10.0999999999999996
 31
0.0
  0
LINE
  5
5C
100
AcDbEntity
100
AcDbLine
  8
0
 62
256
370
0
  6
ByLayer
 10
1.5
 20
12.0
 30
0.0
 11
1.5
 21
10.0999999999999996
 31
0.0
  0
LINE
  5
5D
100
AcDbEntity
100
AcDbLine
  8
0
 62
256
370
0
  6
ByLayer
 10
2.8000000000000003
 20
8.0
 30
0.0
 11
2.8000000000000003
 21
10.0999999999999996
 31
0.0
  0
LINE
  5
5E
100
AcDbEntity
100
AcDbLine
  8
0
 62
256
370
0
  6
ByLayer
 10
2.8000000000000003
 20
10.0999999999999996
 30
0.0
 11
1.5
 21
10.0999999999999996
 31
0.0
  0
LINE
  5
5F
100
AcDbEntity
100
AcDbLine
  8
Dino Brackets
 62
256
370
0
  6
ByLayer
 10
-1.5
 20
12.0
 30
0.0
 11
1.5
 21
12.0
 31
0.0
  0
ENDBLK
  5
60
100
AcDbEntity
  8
0
100
AcDbBlockEnd
  0
BLOCK
  5
61
100
AcDbEntity
  8
0
100
AcDbBlockBegin
  2
slots
 70
0
 10
0.0
 20
0.0
 30
0.0
  3
slots
  1

  0
LINE
  5
62
100
AcDbEntity
100
AcDbLine
  8
0
 62
256
370
-1
  6
ByLayer
 10
-10.0
 20
-2.25
 30
0.0
 11
-10.0
 21
2.249912042802384
 31
0.0
  0
LINE
  5
63
100
AcDbEntity
100
AcDbLine
  8
0
 62
256
370
-1
  6
ByLayer
 10
10.0
 20
-2.25
 30
0.0
 11
9.9972040489664487
 21
2.2502263635154867
 31
0.0
  0
CIRCLE
  5
64
100
AcDbEntity
100
AcDbCircle
  8
0
 62
256
370
-1
  6
ByLayer
 10
0.0
 20
0.0
 30
0.0
 40
1.5
  0
LINE
  5
65
100
AcDbEntity
100
AcDbLine
  8
0
 62
256
370
-1
  6
ByLayer
 10
5.0
 20
-2.249956021401192
 30
0.0
 11
10.0
 21
-2.25
 31
0.0
  0
LINE
  5
66
100
AcDbEntity
100
AcDbLine
  8
0
 62
256
370
-1
  6
ByLayer
 10
9.9972040489664487
 20
2.2502263635154867
 30
0.0
 11
5.0
 21
2.250043978598808
 31
0.0
  0
LINE
  5
67
100
AcDbEntity
100
AcDbLine
  8
0
 62
256
370
-1
  6
ByLayer
 10
5.0
 20
-2.249956021401192
 30
0.0
 11
5.0
 21
2.250043978598808
 31
0.0
  0
LINE
  5
68
100
AcDbEntity
100
AcDbLine
  8
0
 62
256
370
-1
  6
ByLayer
 10
-10.0
 20
-2.25
 30
0.0
 11
-5.0
 21
-2.249956021401192
 31
0.0
  0
LINE
  5
69
100
AcDbEntity
100
AcDbLine
  8
0
 62
256
370
-1
  6
ByLayer
 10
-5.0
 20
2.250043978598808
 30
0.0
 11
-10.0
 21
2.249912042802384
 31
0.0
  0
LINE
  5
6A
100
AcDbEntity
100
AcDbLine
  8
0
 62
256
370
-1
  6
ByLayer
 10
-5.0
 20
-2.249956021401192
 30
0.0
 11
-5.0
 21
2.250043978598808
 31
0.0
  0
ENDBLK
  5
6B
100
AcDbEntity
  8
0
100
AcDbBlockEnd
  0
ENDSEC
  0
SECTION
  2
ENTITIES
  0
LINE
  5
6C
100
AcDbEntity
100
AcDbLine
  8
0
 62
256
370
-1
  6
ByLayer
 10
0.0
 20
0.0
 30
0.0
 11
0.0000000000000187
 21
304.8000000000000114
 31
0.0
  0
LINE
  5
6D
100
AcDbEntity
100
AcDbLine
  8
0
 62
256
370
-1
  6
ByLayer
 10
0.0
 20
0.0
 30
0.0
 11
609.6000000000000227
 21
0.0
 31
0.0
  0
MTEXT
  5
6E
100
AcDbEntity
100
AcDbMText
  8
Filament Guide Middle Text
 62
256
370
-1
  6
ByLayer
 10
56.0000000000000142
 20
75.4999999999999716
 30
0.0
 40
2.0
 41
100.0
 71
5
 72
2
  1
Filament\~Guide\~Middle
  7
standard
 50
0.0
 73
1
 44
1.0
  0
MTEXT
  5
6F
100
AcDbEntity
100
AcDbMText
  8
Filament Guide Middle Text
 62
256
370
-1
  6
ByLayer
 10
4.0000000000000142
 20
36.4999999999999503
 30
0.0
 40
2.0
 41
100.0
 71
4
 72
2
  1
Filament\PGuide\PMiddle
  7
standard
 50
0.0
 73
1
 44
1.0
  0
CIRCLE
  5
70
100
AcDbEntity
100
AcDbCircle
  8
Filament Guide Middle
 62
256
370
-1
  6
ByLayer
 10
13.0000000000000071
 20
8.4999999999999822
 30
0.0
 40
1.45
  0
CIRCLE
  5
71
100
AcDbEntity
100
AcDbCircle
  8
Filament Guide Middle
 62
256
370
-1
  6
ByLayer
 10
13.0000000000000497
 20
72.8999999999999773
 30
0.0
 40
1.45
  0
CIRCLE
  5
72
100
AcDbEntity
100
AcDbCircle
  8
Filament Guide Middle
 62
256
370
-1
  6
ByLayer
 10
75.1500000000000483
 20
72.8999999999999488
 30
0.0
 40
1.45
  0
CIRCLE
  5
73
100
AcDbEntity
100
AcDbCircle
  8
Filament Guide Middle
 62
256
370
-1
  6
ByLayer
 10
75.1500000000000341
 20
8.4999999999999147
 30
0.0
 40
1.45
  0
ARC
  5
74
100
AcDbEntity
  8
Filament Guide Middle
 62
256
370
-1
  6
ByLayer
100
AcDbCircle
 10
78.0000000000000426
 20
72.9999999999999432
 30
0.0
 40
5.0
100
AcDbArc
 50
0.0
 51
90.0
  0
ARC
  5
75
100
AcDbEntity
  8
Filament Guide Middle
 62
256
370
-1
  6
ByLayer
100
AcDbCircle
 10
8.0000000000000426
 20
72.9999999999999432
 30
0.0
 40
5.0
100
AcDbArc
 50
90.0
 51
180.0
  0
LINE
  5
76
100
AcDbEntity
100
AcDbLine
  8
Filament Guide Middle
 62
256
370
-1
  6
ByLayer
 10
49.5250000000000199
 20
9.7999999999999616
 30
0.0
 11
49.5250000000000554
 21
7.4999999999999716
 31
0.0
  0
LINE
  5
77
100
AcDbEntity
100
AcDbLine
  8
Filament Guide Middle
 62
256
370
-1
  6
ByLayer
 10
44.2250000000000369
 20
9.7999999999999616
 30
0.0
 11
44.2250000000000227
 21
7.4999999999999574
 31
0.0
  0
LINE
  5
78
100
AcDbEntity
100
AcDbLine
  8
Filament Guide Middle
 62
256
370
-1
  6
ByLayer
 10
45.4250000000000043
 20
9.7999999999999616
 30
0.0
 11
44.2250000000000369
 21
9.7999999999999616
 31
0.0
  0
LINE
  5
79
100
AcDbEntity
100
AcDbLine
  8
Filament Guide Middle
 62
256
370
-1
  6
ByLayer
 10
48.3250000000000313
 20
9.7999999999999616
 30
0.0
 11
49.5250000000000199
 21
9.7999999999999616
 31
0.0
  0
LINE
  5
7A
100
AcDbEntity
100
AcDbLine
  8
Filament Guide Middle
 62
256
370
-1
  6
ByLayer
 10
24.2750000000000128
 20
9.8499999999999766
 30
0.0
 11
24.2750000000000199
 21
7.4999999999999787
 31
0.0
  0
LINE
  5
7B
100
AcDbEntity
100
AcDbLine
  8
Filament Guide Middle
 62
256
370
-1
  6
ByLayer
 10
18.9750000000000298
 20
9.850000000000005
 30
0.0
 11
18.9750000000000583
 21
7.4999999999999716
 31
0.0
  0
LINE
  5
7C
100
AcDbEntity
100
AcDbLine
  8
Filament Guide Middle
 62
256
370
-1
  6
ByLayer
 10
18.9750000000000298
 20
9.850000000000005
 30
0.0
 11
20.1750000000000362
 21
9.8499999999999837
 31
0.0
  0
LINE
  5
7D
100
AcDbEntity
100
AcDbLine
  8
Filament Guide Middle
 62
256
370
-1
  6
ByLayer
 10
23.0750000000000384
 20
9.849999999999973
 30
0.0
 11
24.2750000000000128
 21
9.8499999999999766
 31
0.0
  0
LINE
  5
7E
100
AcDbEntity
100
AcDbLine
  8
Filament Guide Middle
 62
256
370
-1
  6
ByLayer
 10
44.2250000000000227
 20
7.4999999999999574
 30
0.0
 11
45.4250000000000327
 21
7.4999999999999787
 31
0.0
  0
LINE
  5
7F
100
AcDbEntity
100
AcDbLine
  8
Filament Guide Middle
 62
256
370
-1
  6
ByLayer
 10
48.3250000000000099
 20
7.4999999999999503
 30
0.0
 11
49.5250000000000554
 21
7.4999999999999716
 31
0.0
  0
LINE
  5
80
100
AcDbEntity
100
AcDbLine
  8
Filament Guide Middle
 62
256
370
-1
  6
ByLayer
 10
18.9750000000000583
 20
7.4999999999999716
 30
0.0
 11
20.175000000000054
 21
7.4999999999999503
 31
0.0
  0
LINE
  5
81
100
AcDbEntity
100
AcDbLine
  8
Filament Guide Middle
 62
256
370
-1
  6
ByLayer
 10
23.0750000000000561
 20
7.4999999999999645
 30
0.0
 11
24.2750000000000199
 21
7.4999999999999787
 31
0.0
  0
LINE
  5
82
100
AcDbEntity
100
AcDbLine
  8
Filament Guide Middle
 62
256
370
-1
  6
ByLayer
 10
8.0000000000000426
 20
77.9999999999999716
 30
0.0
 11
32.3750000000000426
 21
77.9999999999999432
 31
0.0
  0
LINE
  5
83
100
AcDbEntity
100
AcDbLine
  8
Filament Guide Middle
 62
256
370
-1
  6
ByLayer
 10
35.6250000000000711
 20
77.9999999999999432
 30
0.0
 11
78.0000000000000426
 21
77.9999999999999432
 31
0.0
  0
LINE
  5
84
100
AcDbEntity
100
AcDbLine
  8
Filament Guide Middle
 62
256
370
-1
  6
ByLayer
 10
20.1750000000000362
 20
9.8499999999999837
 30
0.0
 11
20.1750000000000433
 21
11.3499999999999872
 31
0.0
  0
LINE
  5
85
100
AcDbEntity
100
AcDbLine
  8
Filament Guide Middle
 62
256
370
-1
  6
ByLayer
 10
23.0750000000000632
 20
11.349999999999941
 30
0.0
 11
23.0750000000000384
 21
9.849999999999973
 31
0.0
  0
LINE
  5
86
100
AcDbEntity
100
AcDbLine
  8
Filament Guide Middle
 62
256
370
-1
  6
ByLayer
 10
20.1750000000000433
 20
11.3499999999999872
 30
0.0
 11
23.0750000000000632
 21
11.349999999999941
 31
0.0
  0
LINE
  5
87
100
AcDbEntity
100
AcDbLine
  8
Filament Guide Middle
 62
256
370
-1
  6
ByLayer
 10
45.4250000000000043
 20
11.2999999999999616
 30
0.0
 11
45.4250000000000043
 21
9.7999999999999616
 31
0.0
  0
LINE
  5
88
100
AcDbEntity
100
AcDbLine
  8
Filament Guide Middle
 62
256
370
-1
  6
ByLayer
 10
48.3250000000000313
 20
11.2999999999999616
 30
0.0
 11
48.3250000000000313
 21
9.7999999999999616
 31
0.0
  0
LINE
  5
89
100
AcDbEntity
100
AcDbLine
  8
Filament Guide Middle
 62
256
370
-1
  6
ByLayer
 10
45.4250000000000043
 20
11.2999999999999616
 30
0.0
 11
48.3250000000000313
 21
11.2999999999999616
 31
0.0
  0
LINE
  5
8A
100
AcDbEntity
100
AcDbLine
  8
Filament Guide Middle Honeycomb
 62
256
370
-1
  6
ByLayer
 10
19.4492247596126511
 20
72.9999999999999716
 30
0.0
 11
27.3750000000000426
 21
72.9999999999999716
 31
0.0
  0
LINE
  5
8B
100
AcDbEntity
100
AcDbLine
  8
Filament Guide Middle Honeycomb
 62
256
370
-1
  6
ByLayer
 10
27.3750000000000426
 20
72.9999999999999716
 30
0.0
 11
27.3750000000000711
 21
49.4854992430359317
 31
0.0
  0
LINE
  5
8C
100
AcDbEntity
100
AcDbLine
  8
Filament Guide Middle Honeycomb
 62
256
370
-1
  6
ByLayer
 10
8.0000000000000426
 20
68.8253834536241271
 30
0.0
 11
8.0000000000000426
 21
51.1899745962155777
 31
0.0
  0
LINE
  5
8D
100
AcDbEntity
100
AcDbLine
  8
Filament Guide Middle Honeycomb
 62
256
370
-1
  6
ByLayer
 10
13.2549881065517781
 20
40.9999745962145568
 30
0.0
 11
15.4600637960155751
 21
40.9999745962152602
 31
0.0
  0
LINE
  5
8E
100
AcDbEntity
100
AcDbLine
  8
Filament Guide Middle Honeycomb
 62
256
370
-1
  6
ByLayer
 10
13.2549881065517496
 20
30.9999745962155515
 30
0.0
 11
15.4600637960155716
 21
30.9999745962155409
 31
0.0
  0
LINE
  5
8F
100
AcDbEntity
100
AcDbLine
  8
Filament Guide Middle Honeycomb
 62
256
370
-1
  6
ByLayer
 10
8.0000000000000355
 20
20.8099745962155396
 30
0.0
 11
8.0000000000000426
 21
12.5746165463758466
 31
0.0
  0
LINE
  5
90
100
AcDbEntity
100
AcDbLine
  8
Filament Guide Middle Honeycomb
 62
256
370
-1
  6
ByLayer
 10
27.3750000000000426
 20
22.5144499493951749
 30
0.0
 11
27.3750000000000426
 21
14.8499999999999766
 31
0.0
  0
LINE
  5
91
100
AcDbEntity
100
AcDbLine
  8
Filament Guide Middle Honeycomb
 62
256
370
-1
  6
ByLayer
 10
40.6250000000000711
 20
59.1621069462389286
 30
0.0
 11
40.6250000000000711
 21
72.9999999999999716
 31
0.0
  0
LINE
  5
92
100
AcDbEntity
100
AcDbLine
  8
Filament Guide Middle Honeycomb
 62
256
370
-1
  6
ByLayer
 10
40.6250000000000711
 20
72.9999999999999716
 30
0.0
 11
68.7007752403875855
 21
72.9999999999999716
 31
0.0
  0
LINE
  5
93
100
AcDbEntity
100
AcDbLine
  8
Filament Guide Middle Honeycomb
 62
256
370
-1
  6
ByLayer
 10
78.0000000000000426
 20
67.1138095434041873
 30
0.0
 11
78.0000000000000426
 21
52.3324575672765988
 31
0.0
  0
ARC
  5
94
100
AcDbEntity
  8
Filament Guide Middle Honeycomb
 62
256
370
-1
  6
ByLayer
100
AcDbCircle
 10
13.0000000000000497
 20
72.8999999999999773
 30
0.0
 40
6.4499999999999948
100
AcDbArc
 50
219.1773936864241819
 51
0.8883422500379582
  0
ARC
  5
95
100
AcDbEntity
  8
Filament Guide Middle Honeycomb
 62
256
370
-1
  6
ByLayer
100
AcDbCircle
 10
8.0000000000000426
 20
44.7399745962155322
 30
0.0
 40
6.4500000000000099
100
AcDbArc
 50
324.560361221903861
 51
90.0
  0
ARC
  5
96
100
AcDbEntity
  8
Filament Guide Middle Honeycomb
 62
256
370
-1
  6
ByLayer
100
AcDbCircle
 10
28.0000000000000426
 20
35.9999745962155515
 30
0.0
 40
13.5000000000000107
100
AcDbArc
 50
92.6535308674057916
 51
158.2615392084795189
  0
ARC
  5
97
100
AcDbEntity
  8
Filament Guide Middle Honeycomb
 62
256
370
-1
  6
ByLayer
100
AcDbCircle
 10
8.0000000000000426
 20
27.2599745962155637
 30
0.0
 40
6.4500000000000011
100
AcDbArc
 50
270.0
 51
35.4396387780963877
  0
ARC
  5
98
100
AcDbEntity
  8
Filament Guide Middle Honeycomb
 62
256
370
-1
  6
ByLayer
100
AcDbCircle
 10
28.0000000000000426
 20
35.9999745962155515
 30
0.0
 40
13.5000000000000018
100
AcDbArc
 50
201.7384607915204811
 51
267.3464691325941658
  0
ARC
  5
99
100
AcDbEntity
  8
Filament Guide Middle Honeycomb
 62
256
370
-1
  6
ByLayer
100
AcDbCircle
 10
56.5000000000000426
 20
35.9999745962155302
 30
0.0
 40
27.0000000000000036
100
AcDbArc
 50
37.2221338960613224
 51
90.0
  0
ARC
  5
9A
100
AcDbEntity
  8
Filament Guide Middle Honeycomb
 62
256
370
-1
  6
ByLayer
100
AcDbCircle
 10
54.5000000000000426
 20
35.9999745962155231
 30
0.0
 40
27.0
100
AcDbArc
 50
90.0
 51
120.92321565535525
  0
ARC
  5
9B
100
AcDbEntity
  8
Filament Guide Middle Honeycomb
 62
256
370
-1
  6
ByLayer
100
AcDbCircle
 10
75.1500000000000483
 20
72.8999999999999773
 30
0.0
 40
6.4499999999998918
100
AcDbArc
 50
179.1116577499624611
 51
296.2226465049216131
  0
ARC
  5
9C
100
AcDbEntity
  8
Filament Guide Middle Honeycomb
 62
256
370
-1
  6
ByLayer
100
AcDbCircle
 10
13.0000000000000071
 20
8.4999999999999822
 30
0.0
 40
6.4500000000000002
100
AcDbArc
 50
79.8976949439641686
 51
140.8226063135757045
  0
LINE
  5
9D
100
AcDbEntity
100
AcDbLine
  8
Filament Guide Middle Honeycomb
 62
256
370
-1
  6
ByLayer
 10
27.3750000000000426
 20
14.8499999999999766
 30
0.0
 11
14.1313708498985022
 21
14.8499999999999908
 31
0.0
  0
LINE
  5
9E
100
AcDbEntity
100
AcDbLine
  8
Filament Guide Middle Honeycomb
 62
256
370
-1
  6
ByLayer
 10
54.5000000000000426
 20
62.9999745962155302
 30
0.0
 11
56.5000000000000426
 21
62.9999745962155373
 31
0.0
  0
ARC
  5
9F
100
AcDbEntity
  8
Filament Guide Middle
 62
256
370
-1
  6
ByLayer
100
AcDbCircle
 10
57.6250000000000711
 20
35.9999745962155302
 30
0.0
 40
21.0
100
AcDbArc
 50
270.0
 51
90.0
  0
LINE
  5
A0
100
AcDbEntity
100
AcDbLine
  8
Filament Guide Middle
 62
256
370
-1
  6
ByLayer
 10
55.6250000000000426
 20
56.9999745962155302
 30
0.0
 11
57.6250000000000711
 21
56.9999745962155302
 31
0.0
  0
LINE
  5
A1
100
AcDbEntity
100
AcDbLine
  8
Filament Guide Middle
 62
256
370
-1
  6
ByLayer
 10
55.6250000000000497
 20
14.9999745962155338
 30
0.0
 11
57.6250000000000426
 21
14.999974596215516
 31
0.0
  0
LINE
  5
A2
100
AcDbEntity
100
AcDbLine
  8
Filament Guide Middle
 62
256
370
-1
  6
ByLayer
 10
20.175000000000022
 20
2.9999999999999716
 30
0.0
 11
3.0
 21
3.0
 31
0.0
  0
LINE
  5
A3
100
AcDbEntity
100
AcDbLine
  8
Filament Guide Middle
 62
256
370
-1
  6
ByLayer
 10
23.0750000000000242
 20
2.9999999999999716
 30
0.0
 11
32.3750000000000284
 21
2.9999999999999503
 31
0.0
  0
LINE
  5
A4
100
AcDbEntity
100
AcDbLine
  8
Filament Guide Middle
 62
256
370
-1
  6
ByLayer
 10
35.6250000000000711
 20
2.9999999999999432
 30
0.0
 11
45.4250000000000043
 21
2.9999999999999432
 31
0.0
  0
LINE
  5
A5
100
AcDbEntity
100
AcDbLine
  8
Filament Guide Middle
 62
256
370
-1
  6
ByLayer
 10
48.3250000000000597
 20
2.9999999999999503
 30
0.0
 11
83.0
 21
2.9999999999999147
 31
0.0
  0
LINE
  5
A6
100
AcDbEntity
100
AcDbLine
  8
Filament Guide Middle
 62
256
370
-1
  6
ByLayer
 10
3.0
 20
3.0
 30
0.0
 11
3.0000000000000426
 21
72.9999999999999432
 31
0.0
  0
LINE
  5
A7
100
AcDbEntity
100
AcDbLine
  8
Filament Guide Middle
 62
256
370
-1
  6
ByLayer
 10
20.175000000000054
 20
7.4999999999999503
 30
0.0
 11
20.175000000000022
 21
2.9999999999999716
 31
0.0
  0
LINE
  5
A8
100
AcDbEntity
100
AcDbLine
  8
Filament Guide Middle
 62
256
370
-1
  6
ByLayer
 10
23.0750000000000561
 20
7.4999999999999645
 30
0.0
 11
23.0750000000000242
 21
2.9999999999999716
 31
0.0
  0
LINE
  5
A9
100
AcDbEntity
100
AcDbLine
  8
Filament Guide Middle
 62
256
370
-1
  6
ByLayer
 10
32.3750000000000426
 20
27.326199466550257
 30
0.0
 11
32.3750000000000284
 21
2.9999999999999503
 31
0.0
  0
LINE
  5
AA
100
AcDbEntity
100
AcDbLine
  8
Filament Guide Middle
 62
256
370
-1
  6
ByLayer
 10
35.6250000000000426
 20
21.5263995368184808
 30
0.0
 11
35.6250000000000711
 21
2.9999999999999432
 31
0.0
  0
LINE
  5
AB
100
AcDbEntity
100
AcDbLine
  8
Filament Guide Middle
 62
256
370
-1
  6
ByLayer
 10
45.4250000000000327
 20
7.4999999999999787
 30
0.0
 11
45.4250000000000043
 21
2.9999999999999432
 31
0.0
  0
LINE
  5
AC
100
AcDbEntity
100
AcDbLine
  8
Filament Guide Middle
 62
256
370
-1
  6
ByLayer
 10
48.3250000000000099
 20
7.4999999999999503
 30
0.0
 11
48.3250000000000597
 21
2.9999999999999503
 31
0.0
  0
LINE
  5
AD
100
AcDbEntity
100
AcDbLine
  8
Filament Guide Middle
 62
256
370
-1
  6
ByLayer
 10
83.0000000000000426
 20
72.9999999999999432
 30
0.0
 11
83.0
 21
2.9999999999999147
 31
0.0
  0
LINE
  5
AE
100
AcDbEntity
100
AcDbLine
  8
Filament Guide Middle
 62
256
370
-1
  6
ByLayer
 10
32.3750000000000426
 20
77.9999999999999432
 30
0.0
 11
32.3750000000000711
 21
43.131550509013465
 31
0.0
  0
ARC
  5
AF
100
AcDbEntity
  8
Filament Guide Middle
 62
256
370
-1
  6
ByLayer
100
AcDbCircle
 10
31.3750000000000426
 20
27.3261994665502499
 30
0.0
 40
1.0
100
AcDbArc
 50
0.0
 51
137.0614590195337712
  0
ARC
  5
B0
100
AcDbEntity
  8
Filament Guide Middle
 62
256
370
-1
  6
ByLayer
100
AcDbCircle
 10
27.7500000000000426
 20
35.9999745962155444
 30
0.0
 40
8.5
100
AcDbArc
 50
57.0356126762443978
 51
289.8977704559867448
  0
ARC
  5
B1
100
AcDbEntity
  8
Filament Guide Middle
 62
256
370
-1
  6
ByLayer
100
AcDbCircle
 10
55.3750000000000711
 20
35.9999745962155231
 30
0.0
 40
21.0
100
AcDbArc
 50
206.2681193860142628
 51
270.0
  0
LINE
  5
B2
100
AcDbEntity
100
AcDbLine
  8
Filament Guide Middle
 62
256
370
-1
  6
ByLayer
 10
35.6250000000000426
 20
21.5263995368184808
 30
0.0
 11
36.0703787727770973
 21
26.6171022041998384
 31
0.0
  0
ARC
  5
B3
100
AcDbEntity
  8
Filament Guide Middle
 62
256
370
-1
  6
ByLayer
100
AcDbCircle
 10
36.3194274473000434
 20
26.5953132685129177
 30
0.0
 40
0.25
100
AcDbArc
 50
26.2681193860132289
 51
174.9999999999994316
  0
ARC
  5
B4
100
AcDbEntity
  8
Filament Guide Middle
 62
256
370
-1
  6
ByLayer
100
AcDbCircle
 10
55.3750000000000711
 20
35.9999745962155231
 30
0.0
 40
21.0
100
AcDbArc
 50
90.0
 51
160.1316807489963026
  0
LINE
  5
B5
100
AcDbEntity
100
AcDbLine
  8
Filament Guide Middle
 62
256
370
-1
  6
ByLayer
 10
35.6250000000000711
 20
77.9999999999999432
 30
0.0
 11
35.6250000000000426
 21
43.1370258080255482
 31
0.0
  0
CIRCLE
  5
B6
100
AcDbEntity
100
AcDbCircle
  8
Filament Guide Middle
 62
256
370
-1
  6
ByLayer
 10
7.7500000000000568
 20
44.7399745962154682
 30
0.0
 40
1.45
  0
CIRCLE
  5
B7
100
AcDbEntity
100
AcDbCircle
  8
Filament Guide Middle
 62
256
370
-1
  6
ByLayer
 10
7.7500000000000568
 20
27.2599745962155708
 30
0.0
 40
1.45
  0
ARC
  5
B8
100
AcDbEntity
  8
Dino Brackets
 62
256
370
-1
  6
ByLayer
100
AcDbCircle
 10
7.9999999999999911
 20
84.0
 30
0.0
 40
5.0
100
AcDbArc
 50
180.0
 51
270.0
  0
ARC
  5
B9
100
AcDbEntity
  8
Dino Brackets
 62
256
370
-1
  6
ByLayer
100
AcDbCircle
 10
2.9999999999999627
 20
93.5
 30
0.0
 40
3.0
100
AcDbArc
 50
270.0
 51
90.0
  0
LINE
  5
BA
100
AcDbEntity
100
AcDbLine
  8
Dino Brackets
 62
256
370
-1
  6
ByLayer
 10
3.0000000000000639
 20
84.0
 30
0.0
 11
3.0000000000000657
 21
90.5
 31
0.0
  0
CIRCLE
  5
BB
100
AcDbEntity
100
AcDbCircle
  8
Dino Brackets
 62
256
370
-1
  6
ByLayer
 10
10.1499999999999542
 20
84.0999999999999517
 30
0.0
 40
1.45
  0
CIRCLE
  5
BC
100
AcDbEntity
100
AcDbCircle
  8
Dino Brackets
 62
256
370
-1
  6
ByLayer
 10
10.1500000000000714
 20
148.5
 30
0.0
 40
1.45
  0
ARC
  5
BD
100
AcDbEntity
  8
Dino Brackets
 62
256
370
-1
  6
ByLayer
100
AcDbCircle
 10
23.0000000000000142
 20
84.0
 30
0.0
 40
5.0
100
AcDbArc
 50
270.0
 51
360.0
  0
LINE
  5
BE
100
AcDbEntity
100
AcDbLine
  8
Dino Brackets
 62
256
370
-1
  6
ByLayer
 10
27.9999999999999645
 20
93.9999999999999432
 30
0.0
 11
31.5355339059327378
 21
97.5355339059326525
 31
0.0
  0
LINE
  5
BF
100
AcDbEntity
100
AcDbLine
  8
Dino Brackets
 62
256
370
-1
  6
ByLayer
 10
31.5355339059327378
 20
97.5355339059326525
 30
0.0
 11
27.9999999999999858
 21
101.0710678118654613
 31
0.0
  0
LINE
  5
C0
100
AcDbEntity
100
AcDbLine
  8
Dino Brackets
 62
256
370
-1
  6
ByLayer
 10
27.9999999999999858
 20
101.0710678118654613
 30
0.0
 11
31.5355339059327093
 21
104.6066017177981564
 31
0.0
  0
LINE
  5
C1
100
AcDbEntity
100
AcDbLine
  8
Dino Brackets
 62
256
370
-1
  6
ByLayer
 10
31.5355339059327093
 20
104.6066017177981564
 30
0.0
 11
28.0000000000000568
 21
108.142135623730951
 31
0.0
  0
LINE
  5
C2
100
AcDbEntity
100
AcDbLine
  8
Dino Brackets
 62
256
370
-1
  6
ByLayer
 10
28.0000000000000568
 20
108.142135623730951
 30
0.0
 11
31.5355339059327662
 21
111.6776695296636177
 31
0.0
  0
LINE
  5
C3
100
AcDbEntity
100
AcDbLine
  8
Dino Brackets
 62
256
370
-1
  6
ByLayer
 10
31.5355339059327662
 20
111.6776695296636177
 30
0.0
 11
28.0000000000000426
 21
115.2132034355964265
 31
0.0
  0
LINE
  5
C4
100
AcDbEntity
100
AcDbLine
  8
Dino Brackets
 62
256
370
-1
  6
ByLayer
 10
28.0000000000000426
 20
115.2132034355964265
 30
0.0
 11
31.5355339059327804
 21
118.7487373415291216
 31
0.0
  0
LINE
  5
C5
100
AcDbEntity
100
AcDbLine
  8
Dino Brackets
 62
256
370
-1
  6
ByLayer
 10
31.5355339059327804
 20
118.7487373415291216
 30
0.0
 11
28.0000000000000142
 21
122.2842712474618025
 31
0.0
  0
LINE
  5
C6
100
AcDbEntity
100
AcDbLine
  8
Dino Brackets
 62
256
370
-1
  6
ByLayer
 10
28.0000000000000284
 20
83.9999999999999432
 30
0.0
 11
27.9999999999999645
 21
93.9999999999999432
 31
0.0
  0
LINE
  5
C7
100
AcDbEntity
100
AcDbLine
  8
Dino Brackets
 62
256
370
-1
  6
ByLayer
 10
28.0000000000000142
 20
122.2842712474618025
 30
0.0
 11
31.5355339059327946
 21
125.8198051533945687
 31
0.0
  0
LINE
  5
C8
100
AcDbEntity
100
AcDbLine
  8
Dino Brackets
 62
256
370
-1
  6
ByLayer
 10
31.5355339059327946
 20
125.8198051533945687
 30
0.0
 11
28.0000000000000142
 21
129.3553390593274344
 31
0.0
  0
LINE
  5
C9
100
AcDbEntity
100
AcDbLine
  8
Dino Brackets
 62
256
370
-1
  6
ByLayer
 10
28.0000000000000142
 20
129.3553390593274344
 30
0.0
 11
31.5355339059327946
 21
132.8908729652600869
 31
0.0
  0
LINE
  5
CA
100
AcDbEntity
100
AcDbLine
  8
Dino Brackets
 62
256
370
-1
  6
ByLayer
 10
31.5355339059327946
 20
132.8908729652600869
 30
0.0
 11
28.0000000000000284
 21
136.426406871192853
 31
0.0
  0
LINE
  5
CB
100
AcDbEntity
100
AcDbLine
  8
Dino Brackets
 62
256
370
-1
  6
ByLayer
 10
28.0000000000000284
 20
136.426406871192853
 30
0.0
 11
31.5355339059327946
 21
139.9619407771255624
 31
0.0
  0
LINE
  5
CC
100
AcDbEntity
100
AcDbLine
  8
Dino Brackets
 62
256
370
-1
  6
ByLayer
 10
31.5355339059327946
 20
139.9619407771255624
 30
0.0
 11
28.0000000000000711
 21
143.4974746830583285
 31
0.0
  0
LINE
  5
CD
100
AcDbEntity
100
AcDbLine
  8
Dino Brackets
 62
256
370
-1
  6
ByLayer
 10
28.0000000000000711
 20
143.4974746830583285
 30
0.0
 11
31.5355339059327662
 21
147.0330085889909242
 31
0.0
  0
LINE
  5
CE
100
AcDbEntity
100
AcDbLine
  8
Dino Brackets
 62
256
370
-1
  6
ByLayer
 10
31.5355339059327662
 20
147.0330085889909242
 30
0.0
 11
28.0000000000000355
 21
150.5685424949236904
 31
0.0
  0
LINE
  5
CF
100
AcDbEntity
100
AcDbLine
  8
Dino Brackets
 62
256
370
-1
  6
ByLayer
 10
8.0000000000000941
 20
79.0
 30
0.0
 11
23.0000000000000426
 21
79.0000000000000284
 31
0.0
  0
INSERT
  5
D0
100
AcDbEntity
100
AcDbBlockReference
  8
Dino Brackets
 62
256
370
-1
  6
ByLayer
  2
tbits
 10
53.8750000000000711
 20
209.0
 30
0.0
 41
1.0
 42
-1.0
 43
1.0
 50
360.0
 44
1.0
 45
1.0
  0
INSERT
  5
D1
100
AcDbEntity
100
AcDbBlockReference
  8
Dino Brackets
 62
256
370
-1
  6
ByLayer
  2
tbits
 10
29.5000000000001137
 20
209.0
 30
0.0
 41
1.0
 42
-1.0
 43
1.0
 50
360.0
 44
1.0
 45
1.0
  0
LINE
  5
D2
100
AcDbEntity
100
AcDbLine
  8
Dino Brackets
 62
256
370
-1
  6
ByLayer
 10
39.5000000000001137
 20
209.0
 30
0.0
 11
43.8750000000000995
 21
209.0
 31
0.0
  0
LINE
  5
D3
100
AcDbEntity
100
AcDbLine
  8
Dino Brackets
 62
256
370
-1
  6
ByLayer
 10
63.8750000000000568
 20
198.9999999999999716
 30
0.0
 11
63.8750000000000568
 21
208.9999999999999716
 31
0.0
  0
ARC
  5
D4
100
AcDbEntity
  8
Dino Brackets
 62
256
370
-1
  6
ByLayer
100
AcDbCircle
 10
53.8750000000000568
 20
199.0000000000000284
 30
0.0
 40
10.0
100
AcDbArc
 50
269.9999999999999432
 51
360.0
  0
INSERT
  5
D5
100
AcDbEntity
100
AcDbBlockReference
  8
Dino Brackets
 62
256
370
-1
  6
ByLayer
  2
slots
 10
13.0000000000000835
 20
184.0
 30
0.0
 41
1.0
 42
-1.0
 43
1.0
 50
270.0
 44
1.0
 45
1.0
  0
LINE
  5
D6
100
AcDbEntity
100
AcDbLine
  8
Dino Brackets
 62
256
370
-1
  6
ByLayer
 10
48.0000000000000639
 20
188.9999999999999432
 30
0.0
 11
53.8750000000000426
 21
189.0
 31
0.0
  0
LINE
  5
D7
100
AcDbEntity
100
AcDbLine
  8
Dino Brackets
 62
256
370
-1
  6
ByLayer
 10
3.0000000000000657
 20
96.5
 30
0.0
 11
3.000000000000087
 21
209.0
 31
0.0
  0
LINE
  5
D8
100
AcDbEntity
100
AcDbLine
  8
Dino Brackets
 62
256
370
-1
  6
ByLayer
 10
3.000000000000087
 20
209.0
 30
0.0
 11
19.5000000000000853
 21
209.0
 31
0.0
  0
ARC
  5
D9
100
AcDbEntity
  8
Dino Brackets
 62
256
370
-1
  6
ByLayer
100
AcDbCircle
 10
48.0000000000000355
 20
168.9999999999999432
 30
0.0
 40
20.0
100
AcDbArc
 50
90.0
 51
180.0
  0
LINE
  5
DA
100
AcDbEntity
100
AcDbLine
  8
Dino Brackets
 62
256
370
-1
  6
ByLayer
 10
28.0000000000000355
 20
150.5685424949236904
 30
0.0
 11
28.0000000000000568
 21
169.0
 31
0.0
  0
LINE
  5
DB
100
AcDbEntity
100
AcDbLine
  8
Dino Etch
 62
256
370
-1
  6
ByLayer
 10
27.9999999999999645
 20
93.9999999999999432
 30
0.0
 11
28.0000000000000355
 21
150.5685424949236904
 31
0.0
  0
ARC
  5
DC
100
AcDbEntity
  8
Dino Brackets
 62
256
370
-1
  6
ByLayer
100
AcDbCircle
 10
88.8754751072898301
 20
208.5
 30
0.0
 40
5.0
100
AcDbArc
 50
360.0
 51
89.9999999999999858
  0
ARC
  5
DD
100
AcDbEntity
  8
Dino Brackets
 62
256
370
-1
  6
ByLayer
100
AcDbCircle
 10
93.8754751072898301
 20
199.0000000000000568
 30
0.0
 40
3.0
100
AcDbArc
 50
89.9999999999999858
 51
270.0
  0
LINE
  5
DE
100
AcDbEntity
100
AcDbLine
  8
Dino Brackets
 62
256
370
-1
  6
ByLayer
 10
93.8754751072898301
 20
208.4999999999999432
 30
0.0
 11
93.8754751072898301
 21
202.0000000000000568
 31
0.0
  0
CIRCLE
  5
DF
100
AcDbEntity
100
AcDbCircle
  8
Dino Brackets
 62
256
370
-1
  6
ByLayer
 10
86.7254751072898529
 20
208.4000000000000341
 30
0.0
 40
1.45
  0
CIRCLE
  5
E0
100
AcDbEntity
100
AcDbCircle
  8
Dino Brackets
 62
256
370
-1
  6
ByLayer
 10
86.7254751072898529
 20
144.0000000000000568
 30
0.0
 40
1.45
  0
ARC
  5
E1
100
AcDbEntity
  8
Dino Brackets
 62
256
370
-1
  6
ByLayer
100
AcDbCircle
 10
73.875475107289887
 20
208.5000000000000568
 30
0.0
 40
5.0
100
AcDbArc
 50
89.9999999999999858
 51
180.0
  0
LINE
  5
E2
100
AcDbEntity
100
AcDbLine
  8
Dino Brackets
 62
256
370
-1
  6
ByLayer
 10
68.8754751072898301
 20
198.5
 30
0.0
 11
65.3399412013571208
 21
194.9644660940672907
 31
0.0
  0
LINE
  5
E3
100
AcDbEntity
100
AcDbLine
  8
Dino Brackets
 62
256
370
-1
  6
ByLayer
 10
65.3399412013571208
 20
194.9644660940672907
 30
0.0
 11
68.8754751072898301
 21
191.4289321881345245
 31
0.0
  0
LINE
  5
E4
100
AcDbEntity
100
AcDbLine
  8
Dino Brackets
 62
256
370
-1
  6
ByLayer
 10
68.8754751072898301
 20
191.4289321881345245
 30
0.0
 11
65.339941201357064
 21
187.8933982822017015
 31
0.0
  0
LINE
  5
E5
100
AcDbEntity
100
AcDbLine
  8
Dino Brackets
 62
256
370
-1
  6
ByLayer
 10
65.339941201357064
 20
187.8933982822017015
 30
0.0
 11
68.8754751072898301
 21
184.3578643762694469
 31
0.0
  0
LINE
  5
E6
100
AcDbEntity
100
AcDbLine
  8
Dino Brackets
 62
256
370
-1
  6
ByLayer
 10
68.8754751072898301
 20
184.3578643762694469
 30
0.0
 11
65.3399412013571208
 21
180.8223304703362828
 31
0.0
  0
LINE
  5
E7
100
AcDbEntity
100
AcDbLine
  8
Dino Brackets
 62
256
370
-1
  6
ByLayer
 10
65.3399412013571208
 20
180.8223304703362828
 30
0.0
 11
68.8754751072898301
 21
177.2867965644036303
 31
0.0
  0
LINE
  5
E8
100
AcDbEntity
100
AcDbLine
  8
Dino Brackets
 62
256
370
-1
  6
ByLayer
 10
68.8754751072898301
 20
177.2867965644036303
 30
0.0
 11
65.3399412013571208
 21
173.751262658470921
 31
0.0
  0
LINE
  5
E9
100
AcDbEntity
100
AcDbLine
  8
Dino Brackets
 62
256
370
-1
  6
ByLayer
 10
65.3399412013571208
 20
173.751262658470921
 30
0.0
 11
68.8754751072898301
 21
170.2157287525381548
 31
0.0
  0
LINE
  5
EA
100
AcDbEntity
100
AcDbLine
  8
Dino Brackets
 62
256
370
-1
  6
ByLayer
 10
68.8754751072898301
 20
208.5000000000000568
 30
0.0
 11
68.8754751072898301
 21
198.5
 31
0.0
  0
LINE
  5
EB
100
AcDbEntity
100
AcDbLine
  8
Dino Brackets
 62
256
370
-1
  6
ByLayer
 10
68.8754751072898301
 20
170.2157287525381548
 30
0.0
 11
65.3399412013571208
 21
166.6801948466053886
 31
0.0
  0
LINE
  5
EC
100
AcDbEntity
100
AcDbLine
  8
Dino Brackets
 62
256
370
-1
  6
ByLayer
 10
65.3399412013571208
 20
166.6801948466053886
 30
0.0
 11
68.8754751072898301
 21
163.1446609406726793
 31
0.0
  0
LINE
  5
ED
100
AcDbEntity
100
AcDbLine
  8
Dino Brackets
 62
256
370
-1
  6
ByLayer
 10
68.8754751072898301
 20
163.1446609406726793
 30
0.0
 11
65.3399412013571208
 21
159.6091270347399131
 31
0.0
  0
LINE
  5
EE
100
AcDbEntity
100
AcDbLine
  8
Dino Brackets
 62
256
370
-1
  6
ByLayer
 10
65.3399412013571208
 20
159.6091270347399131
 30
0.0
 11
68.8754751072898301
 21
156.0735931288072038
 31
0.0
  0
LINE
  5
EF
100
AcDbEntity
100
AcDbLine
  8
Dino Brackets
 62
256
370
-1
  6
ByLayer
 10
68.8754751072898301
 20
156.0735931288072038
 30
0.0
 11
65.339941201357064
 21
152.5380592228743808
 31
0.0
  0
LINE
  5
F0
100
AcDbEntity
100
AcDbLine
  8
Dino Brackets
 62
256
370
-1
  6
ByLayer
 10
65.339941201357064
 20
152.5380592228743808
 30
0.0
 11
68.8754751072898301
 21
149.0025253169417283
 31
0.0
  0
LINE
  5
F1
100
AcDbEntity
100
AcDbLine
  8
Dino Brackets
 62
256
370
-1
  6
ByLayer
 10
68.8754751072898301
 20
149.0025253169417283
 30
0.0
 11
65.3399412013571208
 21
145.4669914110089621
 31
0.0
  0
LINE
  5
F2
100
AcDbEntity
100
AcDbLine
  8
Dino Brackets
 62
256
370
-1
  6
ByLayer
 10
65.3399412013571208
 20
145.4669914110089621
 30
0.0
 11
68.8754751072898301
 21
141.9314575050762528
 31
0.0
  0
LINE
  5
F3
100
AcDbEntity
100
AcDbLine
  8
Dino Etch
 62
256
370
-1
  6
ByLayer
 10
68.8754751072898301
 20
198.5
 30
0.0
 11
68.8754751072898301
 21
141.9314575050762528
 31
0.0
  0
LINE
  5
F4
100
AcDbEntity
100
AcDbLine
  8
Dino Brackets
 62
256
370
-1
  6
ByLayer
 10
88.8754751072898301
 20
213.5
 30
0.0
 11
73.8754751072898301
 21
213.5
 31
0.0
  0
INSERT
  5
F5
100
AcDbEntity
100
AcDbBlockReference
  8
Dino Brackets
 62
256
370
-1
  6
ByLayer
  2
tbits
 10
43.0004751072898301
 20
83.5
 30
0.0
 41
1.0
 42
-1.0
 43
1.0
 50
180.0
 44
1.0
 45
1.0
  0
INSERT
  5
F6
100
AcDbEntity
100
AcDbBlockReference
  8
Dino Brackets
 62
256
370
-1
  6
ByLayer
  2
tbits
 10
67.375475107289887
 20
83.5000000000000853
 30
0.0
 41
1.0
 42
-1.0
 43
1.0
 50
180.0
 44
1.0
 45
1.0
  0
LINE
  5
F7
100
AcDbEntity
100
AcDbLine
  8
Dino Brackets
 62
256
370
-1
  6
ByLayer
 10
57.3754751072898301
 20
83.5000000000000284
 30
0.0
 11
53.000475107289887
 21
83.5
 31
0.0
  0
LINE
  5
F8
100
AcDbEntity
100
AcDbLine
  8
Dino Brackets
 62
256
370
-1
  6
ByLayer
 10
33.000475107289887
 20
93.5000000000000426
 30
0.0
 11
33.0004751072898301
 21
83.5000000000000568
 31
0.0
  0
ARC
  5
F9
100
AcDbEntity
  8
Dino Brackets
 62
256
370
-1
  6
ByLayer
100
AcDbCircle
 10
43.0004751072899438
 20
93.5000000000001137
 30
0.0
 40
10.0
100
AcDbArc
 50
89.9999999999999858
 51
180.0
  0
LINE
  5
FA
100
AcDbEntity
100
AcDbLine
  8
Dino Brackets
 62
256
370
-1
  6
ByLayer
 10
48.8754751072898301
 20
103.5000000000000711
 30
0.0
 11
43.000475107289887
 21
103.5000000000000284
 31
0.0
  0
INSERT
  5
FB
100
AcDbEntity
100
AcDbBlockReference
  8
Dino Brackets
 62
256
370
-1
  6
ByLayer
  2
slots
 10
83.8754751072898301
 20
123.5000000000000568
 30
0.0
 41
1.0
 42
-1.0
 43
1.0
 50
89.9999999999999858
 44
1.0
 45
1.0
  0
LINE
  5
FC
100
AcDbEntity
100
AcDbLine
  8
Dino Brackets
 62
256
370
-1
  6
ByLayer
 10
68.8754751072898301
 20
141.9314575050762528
 30
0.0
 11
68.8754751072898301
 21
123.5
 31
0.0
  0
ARC
  5
FD
100
AcDbEntity
  8
Dino Brackets
 62
256
370
-1
  6
ByLayer
100
AcDbCircle
 10
48.8754751072898301
 20
123.5000000000000568
 30
0.0
 40
20.0
100
AcDbArc
 50
270.0
 51
360.0
  0
LINE
  5
FE
100
AcDbEntity
100
AcDbLine
  8
Dino Brackets
 62
256
370
-1
  6
ByLayer
 10
93.8754751072898301
 20
83.5000000000000426
 30
0.0
 11
77.375475107289887
 21
83.5000000000000711
 31
0.0
  0
LINE
  5
FF
100
AcDbEntity
100
AcDbLine
  8
Dino Brackets
 62
256
370
-1
  6
ByLayer
 10
93.8754751072898301
 20
196.0000000000000568
 30
0.0
 11
93.8754751072898301
 21
83.5000000000000426
 31
0.0
  0
INSERT
  5
100
100
AcDbEntity
100
AcDbBlockReference
  8
Dino Brackets
 62
256
370
-1
  6
ByLayer
  2
tbits
 10
38.0000000000000568
 20
147.0
 30
0.0
 50
270.0
 44
1.0
 45
1.0
  0
LINE
  5
101
100
AcDbEntity
100
AcDbLine
  8
Dino Brackets
 62
256
370
-1
  6
ByLayer
 10
38.0000000000000568
 20
137.0
 30
0.0
 11
38.0000000000000568
 21
122.0
 31
0.0
  0
INSERT
  5
102
100
AcDbEntity
100
AcDbBlockReference
  8
Dino Brackets
 62
256
370
-1
  6
ByLayer
  2
tbits
 10
48.5000000000000568
 20
122.0
 30
0.0
 50
360.0
 44
1.0
 45
1.0
  0
LINE
  5
103
100
AcDbEntity
100
AcDbLine
  8
Dino Brackets
 62
256
370
-1
  6
ByLayer
 10
38.0000000000000568
 20
122.0
 30
0.0
 11
38.5000000000000284
 21
122.0
 31
0.0
  0
LINE
  5
104
100
AcDbEntity
100
AcDbLine
  8
Dino Brackets
 62
256
370
-1
  6
ByLayer
 10
58.5000000000000568
 20
122.0
 30
0.0
 11
59.0000000000000568
 21
122.0
 31
0.0
  0
INSERT
  5
105
100
AcDbEntity
100
AcDbBlockReference
  8
Dino Brackets
 62
256
370
-1
  6
ByLayer
  2
tbits
 10
58.9997624463551915
 20
162.0000000000000284
 30
0.0
 50
90.0
 44
1.0
 45
1.0
  0
LINE
  5
106
100
AcDbEntity
100
AcDbLine
  8
Dino Brackets
 62
256
370
-1
  6
ByLayer
 10
59.0000000000000568
 20
122.0
 30
0.0
 11
59.0000000000000568
 21
152.0
 31
0.0
  0
LINE
  5
107
100
AcDbEntity
100
AcDbLine
  8
Dino Brackets
 62
256
370
-1
  6
ByLayer
 10
38.0000000000000853
 20
177.0
 30
0.0
 11
38.0000000000000568
 21
157.0000000000000284
 31
0.0
  0
LINE
  5
108
100
AcDbEntity
100
AcDbLine
  8
Dino Brackets
 62
256
370
-1
  6
ByLayer
 10
58.9997624463551915
 20
172.0
 30
0.0
 11
58.9998812231776242
 21
177.0
 31
0.0
  0
LINE
  5
109
100
AcDbEntity
100
AcDbLine
  8
Dino Brackets
 62
256
370
-1
  6
ByLayer
 10
58.9998812231776242
 20
177.0
 30
0.0
 11
38.0000000000000853
 21
177.0
 31
0.0
  0
LINE
  5
10A
100
AcDbEntity
100
AcDbLine
  8
Dino Brackets
 62
256
370
-1
  6
ByLayer
 10
124.0000000000000284
 20
3.1249999999999822
 30
0.0
 11
124.0000000000000284
 21
63.9999999999999858
 31
0.0
  0
LINE
  5
10B
100
AcDbEntity
100
AcDbLine
  8
Dino Brackets
 62
256
370
-1
  6
ByLayer
 10
84.0
 20
3.1250000000000284
 30
0.0
 11
84.0
 21
64.0
 31
0.0
  0
LINE
  5
10C
100
AcDbEntity
100
AcDbLine
  8
Dino Brackets
 62
256
370
-1
  6
ByLayer
 10
84.0
 20
3.1250000000000284
 30
0.0
 11
124.0000000000000284
 21
3.1249999999999822
 31
0.0
  0
INSERT
  5
10D
100
AcDbEntity
100
AcDbBlockReference
  8
Dino Brackets
 62
256
370
-1
  6
ByLayer
  2
slots
 10
104.0000000000000284
 20
13.1251131817577367
 30
0.0
 50
180.0
 44
1.0
 45
1.0
  0
LINE
  5
10E
100
AcDbEntity
100
AcDbLine
  8
Dino Brackets
 62
256
370
-1
  6
ByLayer
 10
106.5029783359869668
 20
21.0026135661169064
 30
0.0
 11
106.5029783359867963
 21
29.172486547194687
 31
0.0
  0
ARC
  5
10F
100
AcDbEntity
  8
Dino Brackets
 62
256
370
-1
  6
ByLayer
100
AcDbCircle
 10
104.0029783361150351
 20
33.5026135661169207
 30
0.0
 40
5.0
100
AcDbArc
 50
299.9999999999984652
 51
239.9999999999986073
  0
LINE
  5
110
100
AcDbEntity
100
AcDbLine
  8
Dino Brackets
 62
256
370
-1
  6
ByLayer
 10
101.5029783359870237
 20
21.0026135661169278
 30
0.0
 11
101.50297833598691
 21
29.1724865471948078
 31
0.0
  0
ARC
  5
111
100
AcDbEntity
  8
Dino Brackets
 62
256
370
-1
  6
ByLayer
100
AcDbCircle
 10
104.0029783359258033
 20
21.0026135661169064
 30
0.0
 40
2.5
100
AcDbArc
 50
180.0
 51
360.0
  0
ARC
  5
112
100
AcDbEntity
  8
Dino Brackets
 62
256
370
-1
  6
ByLayer
100
AcDbCircle
 10
104.0029783360088231
 20
56.0026135661168993
 30
0.0
 40
2.5
100
AcDbArc
 50
180.0
 51
360.0
  0
LINE
  5
113
100
AcDbEntity
100
AcDbLine
  8
Dino Brackets
 62
256
370
-1
  6
ByLayer
 10
101.5029783359868532
 20
56.0026135661169064
 30
0.0
 11
101.5029783359869953
 21
64.0026135661168496
 31
0.0
  0
LINE
  5
114
100
AcDbEntity
100
AcDbLine
  8
Dino Brackets
 62
256
370
-1
  6
ByLayer
 10
106.5029783359874216
 20
56.0026135661169064
 30
0.0
 11
106.50297833598691
 21
64.0026135661169064
 31
0.0
  0
LINE
  5
115
100
AcDbEntity
100
AcDbLine
  8
Dino Brackets
 62
256
370
-1
  6
ByLayer
 10
84.0
 20
64.0
 30
0.0
 11
101.5029783359869668
 21
63.9999999999999929
 31
0.0
  0
LINE
  5
116
100
AcDbEntity
100
AcDbLine
  8
Dino Brackets
 62
256
370
-1
  6
ByLayer
 10
106.50297833598691
 20
63.9999999999999929
 30
0.0
 11
124.0000000000000284
 21
63.9999999999999858
 31
0.0
  0
INSERT
  5
117
100
AcDbEntity
100
AcDbBlockReference
  8
Dino Brackets
 62
256
370
-1
  6
ByLayer
  2
slots
 10
91.25
 20
54.0
 30
0.0
 50
90.0
 44
1.0
 45
1.0
  0
INSERT
  5
118
100
AcDbEntity
100
AcDbBlockReference
  8
Dino Brackets
 62
256
370
-1
  6
ByLayer
  2
slots
 10
91.2500000000000284
 20
29.6250000000000533
 30
0.0
 50
90.0
 44
1.0
 45
1.0
  0
INSERT
  5
119
100
AcDbEntity
100
AcDbBlockReference
  8
Dino Brackets
 62
256
370
-1
  6
ByLayer
  2
slots
 10
116.7502263635155373
 20
54.0027959510335123
 30
0.0
 50
90.0
 44
1.0
 45
1.0
  0
INSERT
  5
11A
100
AcDbEntity
100
AcDbBlockReference
  8
Dino Brackets
 62
256
370
-1
  6
ByLayer
  2
slots
 10
116.7502263635155089
 20
29.6277959510335975
 30
0.0
 50
90.0
 44
1.0
 45
1.0
  0
LINE
  5
11B
100
AcDbEntity
100
AcDbLine
  8
0
 62
256
370
-1
  6
ByLayer
 10
0.0000000000000187
 20
304.8000000000000114
 30
0.0
 11
609.6000000000000227
 21
304.8000000000000114
 31
0.0
  0
LINE
  5
11C
100
AcDbEntity
100
AcDbLine
  8
0
 62
256
370
-1
  6
ByLayer
 10
609.6000000000000227
 20
304.8000000000000114
 30
0.0
 11
609.6000000000000227
 21
0.0
 31
0.0
  0
CIRCLE
  5
11D
100
AcDbEntity
100
AcDbCircle
  8
Insulator Retainer
 62
256
370
-1
  6
ByLayer
 10
158.0
 20
34.0
 30
0.0
 40
8.0
  0
CIRCLE
  5
11E
100
AcDbEntity
100
AcDbCircle
  8
Insulator Retainer
 62
256
370
-1
  6
ByLayer
 10
145.625
 20
34.0
 30
0.0
 40
1.45
  0
CIRCLE
  5
11F
100
AcDbEntity
100
AcDbCircle
  8
Insulator Retainer
 62
256
370
-1
  6
ByLayer
 10
170.875
 20
34.0
 30
0.0
 40
1.45
  0
CIRCLE
  5
120
100
AcDbEntity
100
AcDbCircle
  8
Insulator Retainer
 62
256
370
-1
  6
ByLayer
 10
158.0
 20
34.0
 30
0.0
 40
31.5
  0
MTEXT
  5
121
100
AcDbEntity
100
AcDbMText
  8
Insulator Retainer Text
 62
256
370
-1
  6
ByLayer
 10
160.0
 20
20.399999999999693
 30
0.0
 40
3.0
 41
100.0
 71
5
 72
2
  1
Insulator\~Retainer
  7
standard
 50
360.0
 73
1
 44
1.0
  0
CIRCLE
  5
122
100
AcDbEntity
100
AcDbCircle
  8
Insulator Retainer
 62
256
370
-1
  6
ByLayer
 10
134.8885360579707253
 20
47.3434099282970067
 30
0.0
 40
1.45
  0
CIRCLE
  5
123
100
AcDbEntity
100
AcDbCircle
  8
Insulator Retainer
 62
256
370
-1
  6
ByLayer
 10
181.1228782810445068
 20
47.3499999999999943
 30
0.0
 40
1.45
  0
CIRCLE
  5
124
100
AcDbEntity
100
AcDbCircle
  8
Insulator Retainer
 62
256
370
-1
  6
ByLayer
 10
158.0
 20
7.2999999999999972
 30
0.0
 40
1.45
  0
LINE
  5
125
100
AcDbEntity
100
AcDbLine
  8
Dino Brackets
 62
256
370
-1
  6
ByLayer
 10
99.561193216941561
 20
70.0
 30
0.0
 11
160.4361932169415184
 21
69.9999999999999858
 31
0.0
  0
LINE
  5
126
100
AcDbEntity
100
AcDbLine
  8
Dino Brackets
 62
256
370
-1
  6
ByLayer
 10
99.5611932169415752
 20
110.0
 30
0.0
 11
160.4361932169415184
 21
110.0
 31
0.0
  0
LINE
  5
127
100
AcDbEntity
100
AcDbLine
  8
Dino Brackets
 62
256
370
-1
  6
ByLayer
 10
99.5611932169415752
 20
110.0
 30
0.0
 11
99.561193216941561
 21
70.0
 31
0.0
  0
LINE
  5
128
100
AcDbEntity
100
AcDbLine
  8
Dino Brackets
 62
256
370
-1
  6
ByLayer
 10
117.4388067830584532
 20
87.4970216640130616
 30
0.0
 11
125.6086797641362409
 21
87.4970216640132321
 31
0.0
  0
ARC
  5
129
100
AcDbEntity
  8
Dino Brackets
 62
256
370
-1
  6
ByLayer
100
AcDbCircle
 10
129.9388067830584532
 20
89.9970216638849934
 30
0.0
 40
5.0
100
AcDbArc
 50
209.9999999999984936
 51
149.9999999999986073
  0
LINE
  5
12A
100
AcDbEntity
100
AcDbLine
  8
Dino Brackets
 62
256
370
-1
  6
ByLayer
 10
117.4388067830584532
 20
92.4970216640129763
 30
0.0
 11
125.6086797641363546
 21
92.49702166401309
 31
0.0
  0
ARC
  5
12B
100
AcDbEntity
  8
Dino Brackets
 62
256
370
-1
  6
ByLayer
100
AcDbCircle
 10
117.4388067830584532
 20
89.9970216640757599
 30
0.0
 40
2.5
100
AcDbArc
 50
90.0
 51
270.0
  0
ARC
  5
12C
100
AcDbEntity
  8
Dino Brackets
 62
256
370
-1
  6
ByLayer
100
AcDbCircle
 10
152.4388067830584532
 20
89.9970216639837872
 30
0.0
 40
2.5
100
AcDbArc
 50
90.0
 51
270.0
  0
LINE
  5
12D
100
AcDbEntity
100
AcDbLine
  8
Dino Brackets
 62
256
370
-1
  6
ByLayer
 10
152.4388067830584532
 20
92.4970216640132179
 30
0.0
 11
160.4388067830584248
 21
92.4970216640130758
 31
0.0
  0
LINE
  5
12E
100
AcDbEntity
100
AcDbLine
  8
Dino Brackets
 62
256
370
-1
  6
ByLayer
 10
152.4388067830584532
 20
87.4970216640125784
 30
0.0
 11
160.4388067830584248
 21
87.4970216640130758
 31
0.0
  0
LINE
  5
12F
100
AcDbEntity
100
AcDbLine
  8
Dino Brackets
 62
256
370
-1
  6
ByLayer
 10
160.4361932169415468
 20
110.0
 30
0.0
 11
160.4361932169415468
 21
92.49702166401309
 31
0.0
  0
LINE
  5
130
100
AcDbEntity
100
AcDbLine
  8
Dino Brackets
 62
256
370
-1
  6
ByLayer
 10
160.4361932169415468
 20
87.4970216640130616
 30
0.0
 11
160.4361932169415184
 21
69.9999999999999858
 31
0.0
  0
CIRCLE
  5
131
100
AcDbEntity
100
AcDbCircle
  8
Dino Brackets
 62
256
370
-1
  6
ByLayer
 10
150.4361932169415468
 20
102.75
 30
0.0
 40
2.75
  0
CIRCLE
  5
132
100
AcDbEntity
100
AcDbCircle
  8
Dino Brackets
 62
256
370
-1
  6
ByLayer
 10
126.061193216941561
 20
102.7499999999999716
 30
0.0
 40
2.75
  0
CIRCLE
  5
133
100
AcDbEntity
100
AcDbCircle
  8
Dino Brackets
 62
256
370
-1
  6
ByLayer
 10
109.5613063986993154
 20
90.0
 30
0.0
 40
2.75
  0
CIRCLE
  5
134
100
AcDbEntity
100
AcDbCircle
  8
Dino Brackets
 62
256
370
-1
  6
ByLayer
 10
126.0639891679750946
 20
77.2497736364844911
 30
0.0
 40
2.75
  0
CIRCLE
  5
135
100
AcDbEntity
100
AcDbCircle
  8
Dino Brackets
 62
256
370
-1
  6
ByLayer
 10
150.4389891679750804
 20
77.2497736364845196
 30
0.0
 40
2.75
  0
ENDSEC
  0
SECTION
  2
OBJECTS
  0
DICTIONARY
  5
C
100
AcDbDictionary
280
0
281
1
  3
ACAD_GROUP
350
D
  3
ACAD_LAYOUT
350
1A
  3
ACAD_MLINESTYLE
350
17
  3
ACAD_PLOTSETTINGS
350
19
  3
ACAD_PLOTSTYLENAME
350
E
  3
AcDbVariableDictionary
350
136
  0
DICTIONARY
  5
D
100
AcDbDictionary
280
0
281
1
  0
ACDBDICTIONARYWDFLT
  5
E
100
AcDbDictionary
281
1
  3
Normal
350
F
100
AcDbDictionaryWithDefault
340
F
  0
ACDBPLACEHOLDER
  5
F
  0
DICTIONARY
  5
17
100
AcDbDictionary
280
0
281
1
  3
Standard
350
18
  0
MLINESTYLE
  5
18
100
AcDbMlineStyle
  2
STANDARD
 70
0
  3

 62
256
 51
90.0
 52
90.0
 71
2
 49
0.5
 62
256
  6
BYLAYER
 49
-0.5
 62
256
  6
BYLAYER
  0
DICTIONARY
  5
19
100
AcDbDictionary
280
0
281
1
  0
DICTIONARY
  5
1A
100
AcDbDictionary
281
1
  3
Layout1
350
1E
  3
Layout2
350
26
  3
Model
350
22
  0
LAYOUT
  5
1E
100
AcDbPlotSettings
  1

  2
C:\Program Files\AutoCAD 2002\plotters\DWF ePlot (optimized for plotting).pc3
  4

  6

 40
0.0
 41
0.0
 42
0.0
 43
0.0
 44
0.0
 45
0.0
 46
0.0
 47
0.0
 48
0.0
 49
0.0
140
0.0
141
0.0
142
1.0
143
1.0
 70
688
 72
0
 73
0
 74
5
  7

 75
16
147
1.0
148
0.0
149
0.0
100
AcDbLayout
  1
Layout1
 70
1
 71
1
 10
0.0
 20
0.0
 11
420.0
 21
297.0
 12
0.0
 22
0.0
 32
0.0
 14
100000000000000000000.0
 24
100000000000000000000.0
 34
100000000000000000000.0
 15
-100000000000000000000.0
 25
-100000000000000000000.0
 35
-100000000000000000000.0
146
0.0
 13
0.0
 23
0.0
 33
0.0
 16
1.0
 26
0.0
 36
0.0
 17
0.0
 27
1.0
 37
0.0
 76
0
330
1B
  0
LAYOUT
  5
22
100
AcDbPlotSettings
  1

  2
C:\Program Files\AutoCAD 2002\plotters\DWF ePlot (optimized for plotting).pc3
  4

  6

 40
0.0
 41
0.0
 42
0.0
 43
0.0
 44
0.0
 45
0.0
 46
0.0
 47
0.0
 48
0.0
 49
0.0
140
0.0
141
0.0
142
1.0
143
1.0
 70
1712
 72
0
 73
0
 74
0
  7

 75
0
147
1.0
148
0.0
149
0.0
100
AcDbLayout
  1
Model
 70
1
 71
0
 10
0.0
 20
0.0
 11
12.0
 21
9.0
 12
0.0
 22
0.0
 32
0.0
 14
0.0
 24
0.0
 34
0.0
 15
0.0
 25
0.0
 35
0.0
146
0.0
 13
0.0
 23
0.0
 33
0.0
 16
1.0
 26
0.0
 36
0.0
 17
0.0
 27
1.0
 37
0.0
 76
0
330
1F
  0
LAYOUT
  5
26
100
AcDbPlotSettings
  1

  2
C:\Program Files\AutoCAD 2002\plotters\DWF ePlot (optimized for plotting).pc3
  4

  6

 40
0.0
 41
0.0
 42
0.0
 43
0.0
 44
0.0
 45
0.0
 46
0.0
 47
0.0
 48
0.0
 49
0.0
140
0.0
141
0.0
142
1.0
143
1.0
 70
688
 72
0
 73
0
 74
5
  7

 75
16
147
1.0
148
0.0
149
0.0
100
AcDbLayout
  1
Layout2
 70
1
 71
2
 10
0.0
 20
0.0
 11
12.0
 21
9.0
 12
0.0
 22
0.0
 32
0.0
 14
0.0
 24
0.0
 34
0.0
 15
0.0
 25
0.0
 35
0.0
146
0.0
 13
0.0
 23
0.0
 33
0.0
 16
1.0
 26
0.0
 36
0.0
 17
0.0
 27
1.0
 37
0.0
 76
0
330
23
  0
DICTIONARY
  5
136
100
AcDbDictionary
281
1
  3
DIMASSOC
350
138
  3
HIDETEXT
350
137
  0
DICTIONARYVAR
  5
137
100
DictionaryVariables
280
0
  1
2
  0
DICTIONARYVAR
  5
138
100
DictionaryVariables
280
0
  1
1
  0
ENDSEC
  0
EOF
