999
dxflib 2.2.0.0
  0
SECTION
  2
HEADER
  9
$ACADVER
  1
AC1015
  9
$HANDSEED
  5
FFFF
  9
$DIMASZ
 40
2.5
  9
$PLIMMIN
 10
0.0
 20
0.0
  9
$DIMEXE
 40
1.25
  9
$DIMGAP
 40
0.625
  9
$PLIMMAX
 10
210.0
 20
297.0
  9
$INSUNITS
 70
4
  9
$DIMSTYLE
  2
Standard
  9
$CLAYER
  8
0
  9
$DIMEXO
 40
0.625
  9
$DIMTXT
 40
2.5
  9
$CLAYER
  8
Spacer Plate Text
  0
ENDSEC
  0
SECTION
  2
TABLES
  0
TABLE
  2
VPORT
  5
8
100
AcDbSymbolTable
 70
1
  0
VPORT
  5
30
100
AcDbSymbolTableRecord
100
AcDbViewportTableRecord
  2
*Active
 70
0
 10
0.0
 20
0.0
 11
1.0
 21
1.0
 12
286.3055555555554861
 22
148.5
 13
0.0
 23
0.0
 14
10.0
 24
10.0
 15
10.0
 25
10.0
 16
0.0
 26
0.0
 36
1.0
 17
0.0
 27
0.0
 37
0.0
 40
297.0
 41
1.92798353909465
 42
50.0
 43
0.0
 44
0.0
 50
0.0
 51
0.0
 71
0
 72
100
 73
1
 74
3
 75
1
 76
1
 77
0
 78
0
281
0
 65
1
110
0.0
120
0.0
130
0.0
111
1.0
121
0.0
131
0.0
112
0.0
122
1.0
132
0.0
 79
0
146
0.0
  0
ENDTAB
  0
TABLE
  2
LTYPE
  5
5
100
AcDbSymbolTable
 70
21
  0
LTYPE
  5
14
100
AcDbSymbolTableRecord
100
AcDbLinetypeTableRecord
  2
ByBlock
 70
0
  3

 72
65
 73
0
 40
0.0
  0
LTYPE
  5
15
100
AcDbSymbolTableRecord
100
AcDbLinetypeTableRecord
  2
ByLayer
 70
0
  3

 72
65
 73
0
 40
0.0
  0
LTYPE
  5
16
100
AcDbSymbolTableRecord
100
AcDbLinetypeTableRecord
  2
CONTINUOUS
 70
0
  3
Solid line
 72
65
 73
0
 40
0.0
  0
LTYPE
  5
31
100
AcDbSymbolTableRecord
100
AcDbLinetypeTableRecord
  2
DOT
 70
0
  3
Dot . . . . . . . . . . . . . . . . . . . . . .
 72
65
 73
2
 40
6.3499999999999996
 49
0.0
 74
0
 49
-6.3499999999999996
 74
0
  0
LTYPE
  5
32
100
AcDbSymbolTableRecord
100
AcDbLinetypeTableRecord
  2
DOT2
 70
0
  3
Dot (.5x) .....................................
 72
65
 73
2
 40
3.1749999999999998
 49
0.0
 74
0
 49
-3.1749999999999998
 74
0
  0
LTYPE
  5
33
100
AcDbSymbolTableRecord
100
AcDbLinetypeTableRecord
  2
DOTX2
 70
0
  3
Dot (2x) .  .  .  .  .  .  .  .  .  .  .  .  .
 72
65
 73
2
 40
12.6999999999999993
 49
0.0
 74
0
 49
-12.6999999999999993
 74
0
  0
LTYPE
  5
34
100
AcDbSymbolTableRecord
100
AcDbLinetypeTableRecord
  2
DASHED
 70
0
  3
Dashed __ __ __ __ __ __ __ __ __ __ __ __ __ _
 72
65
 73
2
 40
19.0500000000000007
 49
12.6999999999999993
 74
0
 49
-6.3499999999999996
 74
0
  0
LTYPE
  5
35
100
AcDbSymbolTableRecord
100
AcDbLinetypeTableRecord
  2
DASHED2
 70
0
  3
Dashed (.5x) _ _ _ _ _ _ _ _ _ _ _ _ _ _ _ _ _
 72
65
 73
2
 40
9.5250000000000004
 49
6.3499999999999996
 74
0
 49
-3.1749999999999998
 74
0
  0
LTYPE
  5
36
100
AcDbSymbolTableRecord
100
AcDbLinetypeTableRecord
  2
DASHEDX2
 70
0
  3
Dashed (2x) ____  ____  ____  ____  ____  ___
 72
65
 73
2
 40
38.1000000000000014
 49
25.3999999999999986
 74
0
 49
-12.6999999999999993
 74
0
  0
LTYPE
  5
37
100
AcDbSymbolTableRecord
100
AcDbLinetypeTableRecord
  2
DASHDOT
 70
0
  3
Dash dot __ . __ . __ . __ . __ . __ . __ . __
 72
65
 73
4
 40
25.3999999999999986
 49
12.6999999999999993
 74
0
 49
-6.3499999999999996
 74
0
 49
0.0
 74
0
 49
-6.3499999999999996
 74
0
  0
LTYPE
  5
38
100
AcDbSymbolTableRecord
100
AcDbLinetypeTableRecord
  2
DASHDOT2
 70
0
  3
Dash dot (.5x) _._._._._._._._._._._._._._._.
 72
65
 73
4
 40
12.6999999999999993
 49
6.3499999999999996
 74
0
 49
-3.1749999999999998
 74
0
 49
0.0
 74
0
 49
-3.1749999999999998
 74
0
  0
LTYPE
  5
39
100
AcDbSymbolTableRecord
100
AcDbLinetypeTableRecord
  2
DASHDOTX2
 70
0
  3
Dash dot (2x) ____  .  ____  .  ____  .  ___
 72
65
 73
4
 40
50.7999999999999972
 49
25.3999999999999986
 74
0
 49
-12.6999999999999993
 74
0
 49
0.0
 74
0
 49
-12.6999999999999993
 74
0
  0
LTYPE
  5
3A
100
AcDbSymbolTableRecord
100
AcDbLinetypeTableRecord
  2
DIVIDE
 70
0
  3
Divide ____ . . ____ . . ____ . . ____ . . ____
 72
65
 73
6
 40
31.75
 49
12.6999999999999993
 74
0
 49
-6.3499999999999996
 74
0
 49
0.0
 74
0
 49
-6.3499999999999996
 74
0
 49
0.0
 74
0
 49
-6.3499999999999996
 74
0
  0
LTYPE
  5
3B
100
AcDbSymbolTableRecord
100
AcDbLinetypeTableRecord
  2
DIVIDE2
 70
0
  3
Divide (.5x) __..__..__..__..__..__..__..__.._
 72
65
 73
6
 40
15.875
 49
6.3499999999999996
 74
0
 49
-3.1749999999999998
 74
0
 49
0.0
 74
0
 49
-3.1749999999999998
 74
0
 49
0.0
 74
0
 49
-3.1749999999999998
 74
0
  0
LTYPE
  5
3C
100
AcDbSymbolTableRecord
100
AcDbLinetypeTableRecord
  2
DIVIDEX2
 70
0
  3
Divide (2x) ________  .  .  ________  .  .  _
 72
65
 73
6
 40
63.5
 49
25.3999999999999986
 74
0
 49
-12.6999999999999993
 74
0
 49
0.0
 74
0
 49
-12.6999999999999993
 74
0
 49
0.0
 74
0
 49
-12.6999999999999993
 74
0
  0
LTYPE
  5
3D
100
AcDbSymbolTableRecord
100
AcDbLinetypeTableRecord
  2
CENTER
 70
0
  3
Center ____ _ ____ _ ____ _ ____ _ ____ _ ____
 72
65
 73
4
 40
50.7999999999999972
 49
31.75
 74
0
 49
-6.3499999999999996
 74
0
 49
6.3499999999999996
 74
0
 49
-6.3499999999999996
 74
0
  0
LTYPE
  5
3E
100
AcDbSymbolTableRecord
100
AcDbLinetypeTableRecord
  2
CENTER2
 70
0
  3
Center (.5x) ___ _ ___ _ ___ _ ___ _ ___ _ ___
 72
65
 73
4
 40
28.5749999999999993
 49
19.0500000000000007
 74
0
 49
-3.1749999999999998
 74
0
 49
3.1749999999999998
 74
0
 49
-3.1749999999999998
 74
0
  0
LTYPE
  5
3F
100
AcDbSymbolTableRecord
100
AcDbLinetypeTableRecord
  2
CENTERX2
 70
0
  3
Center (2x) ________  __  ________  __  _____
 72
65
 73
4
 40
101.5999999999999943
 49
63.5
 74
0
 49
-12.6999999999999993
 74
0
 49
12.6999999999999993
 74
0
 49
-12.6999999999999993
 74
0
  0
LTYPE
  5
40
100
AcDbSymbolTableRecord
100
AcDbLinetypeTableRecord
  2
BORDER
 70
0
  3
Border __ __ . __ __ . __ __ . __ __ . __ __ .
 72
65
 73
6
 40
44.4500000000000028
 49
12.6999999999999993
 74
0
 49
-6.3499999999999996
 74
0
 49
12.6999999999999993
 74
0
 49
-6.3499999999999996
 74
0
 49
0.0
 74
0
 49
-6.3499999999999996
 74
0
  0
LTYPE
  5
41
100
AcDbSymbolTableRecord
100
AcDbLinetypeTableRecord
  2
BORDER2
 70
0
  3
Border (.5x) __.__.__.__.__.__.__.__.__.__.__.
 72
65
 73
6
 40
22.2250000000000014
 49
6.3499999999999996
 74
0
 49
-3.1749999999999998
 74
0
 49
6.3499999999999996
 74
0
 49
-3.1749999999999998
 74
0
 49
0.0
 74
0
 49
-3.1749999999999998
 74
0
  0
LTYPE
  5
42
100
AcDbSymbolTableRecord
100
AcDbLinetypeTableRecord
  2
BORDERX2
 70
0
  3
Border (2x) ____  ____  .  ____  ____  .  ___
 72
65
 73
6
 40
88.9000000000000057
 49
25.3999999999999986
 74
0
 49
-12.6999999999999993
 74
0
 49
25.3999999999999986
 74
0
 49
-12.6999999999999993
 74
0
 49
0.0
 74
0
 49
-12.6999999999999993
 74
0
  0
ENDTAB
  0
TABLE
  2
LAYER
  5
2
100
AcDbSymbolTable
 70
11
  0
LAYER
  5
10
100
AcDbSymbolTableRecord
100
AcDbLayerTableRecord
  2
0
 70
0
 62
7
420
0
  6
CONTINUOUS
370
25
390
F
  0
LAYER
  5
43
100
AcDbSymbolTableRecord
100
AcDbLayerTableRecord
  2
Retainer Plate
 70
0
 62
7
420
0
  6
CONTINUOUS
370
0
390
F
  0
LAYER
  5
44
100
AcDbSymbolTableRecord
100
AcDbLayerTableRecord
  2
Retainer Plate Text
 70
0
 62
1
420
16711680
  6
CONTINUOUS
370
0
390
F
  0
LAYER
  5
45
100
AcDbSymbolTableRecord
100
AcDbLayerTableRecord
  2
Filament Guide Bottom
 70
0
 62
7
420
0
  6
CONTINUOUS
370
0
390
F
  0
LAYER
  5
46
100
AcDbSymbolTableRecord
100
AcDbLayerTableRecord
  2
Filament Guide Bottom Text
 70
0
 62
1
420
16711680
  6
CONTINUOUS
370
0
390
F
  0
LAYER
  5
47
100
AcDbSymbolTableRecord
100
AcDbLayerTableRecord
  2
Filament Guide Top
 70
0
 62
7
420
0
  6
CONTINUOUS
370
0
390
F
  0
LAYER
  5
48
100
AcDbSymbolTableRecord
100
AcDbLayerTableRecord
  2
Filament Guide Top Text
 70
0
 62
1
420
16711680
  6
CONTINUOUS
370
0
390
F
  0
LAYER
  5
49
100
AcDbSymbolTableRecord
100
AcDbLayerTableRecord
  2
Spacer Plate
 70
0
 62
7
420
0
  6
CONTINUOUS
370
0
390
F
  0
LAYER
  5
4A
100
AcDbSymbolTableRecord
100
AcDbLayerTableRecord
  2
Spacer Plate Text
 70
0
 62
1
420
16711680
  6
CONTINUOUS
370
0
390
F
  0
LAYER
  5
4B
100
AcDbSymbolTableRecord
100
AcDbLayerTableRecord
  2
Idler Wheel
 70
0
 62
7
420
0
  6
CONTINUOUS
370
0
390
F
  0
LAYER
  5
4C
100
AcDbSymbolTableRecord
100
AcDbLayerTableRecord
  2
Idler Wheel Text
 70
0
 62
1
420
16711680
  6
CONTINUOUS
370
0
390
F
  0
ENDTAB
  0
TABLE
  2
STYLE
  5
3
100
AcDbSymbolTable
 70
1
  0
STYLE
  5
11
100
AcDbSymbolTableRecord
100
AcDbTextStyleTableRecord
  2
Standard
 70
0
 40
0.0
 41
0.75
 50
0.0
 71
0
 42
2.5
  3
txt
  4

  0
ENDTAB
  0
TABLE
  2
VIEW
  5
6
100
AcDbSymbolTable
 70
0
  0
ENDTAB
  0
TABLE
  2
UCS
  5
7
100
AcDbSymbolTable
 70
0
  0
ENDTAB
  0
TABLE
  2
APPID
  5
9
100
AcDbSymbolTable
 70
1
  0
APPID
  5
12
100
AcDbSymbolTableRecord
100
AcDbRegAppTableRecord
  2
ACAD
 70
0
  0
ENDTAB
  0
TABLE
  2
DIMSTYLE
  5
A
100
AcDbSymbolTable
 70
1
100
AcDbDimStyleTable
 71
0
  0
DIMSTYLE
105
27
100
AcDbSymbolTableRecord
100
AcDbDimStyleTableRecord
  2
Standard
 41
2.5
 42
0.625
 43
3.75
 44
1.25
 70
0
 73
0
 74
0
 77
1
 78
8
140
2.5
141
2.5
143
0.03937007874016
147
0.625
171
3
172
1
271
2
272
2
274
3
278
44
283
0
284
8
340
11
  0
ENDTAB
  0
TABLE
  2
BLOCK_RECORD
  5
1
100
AcDbSymbolTable
 70
1
  0
BLOCK_RECORD
  5
1F
100
AcDbSymbolTableRecord
100
AcDbBlockTableRecord
  2
*Model_Space
340
22
  0
BLOCK_RECORD
  5
1B
100
AcDbSymbolTableRecord
100
AcDbBlockTableRecord
  2
*Paper_Space
340
1E
  0
BLOCK_RECORD
  5
23
100
AcDbSymbolTableRecord
100
AcDbBlockTableRecord
  2
*Paper_Space0
340
26
  0
ENDTAB
  0
ENDSEC
  0
SECTION
  2
BLOCKS
  0
BLOCK
  5
20
100
AcDbEntity
  8
0
100
AcDbBlockBegin
  2
*Model_Space
 70
0
 10
0.0
 20
0.0
 30
0.0
  3
*Model_Space
  1

  0
ENDBLK
  5
21
100
AcDbEntity
  8
0
100
AcDbBlockEnd
  0
BLOCK
  5
1C
100
AcDbEntity
 67
1
  8
0
100
AcDbBlockBegin
  2
*Paper_Space
 70
0
 10
0.0
 20
0.0
 30
0.0
  3
*Paper_Space
  1

  0
ENDBLK
  5
1D
100
AcDbEntity
 67
1
  8
0
100
AcDbBlockEnd
  0
BLOCK
  5
24
100
AcDbEntity
  8
0
100
AcDbBlockBegin
  2
*Paper_Space0
 70
0
 10
0.0
 20
0.0
 30
0.0
  3
*Paper_Space0
  1

  0
ENDBLK
  5
25
100
AcDbEntity
  8
0
100
AcDbBlockEnd
  0
ENDSEC
  0
SECTION
  2
ENTITIES
  0
ARC
  5
4D
100
AcDbEntity
  8
Spacer Plate
 62
256
370
-1
  6
ByLayer
100
AcDbCircle
 10
75.0
 20
72.5
 30
0.0
 40
5.0
100
AcDbArc
 50
0.0
 51
90.0
  0
LINE
  5
4E
100
AcDbEntity
100
AcDbLine
  8
Spacer Plate
 62
256
370
-1
  6
ByLayer
 10
75.0
 20
77.5
 30
0.0
 11
5.0
 21
77.5
 31
0.0
  0
ARC
  5
4F
100
AcDbEntity
  8
Spacer Plate
 62
256
370
-1
  6
ByLayer
100
AcDbCircle
 10
5.0
 20
72.5
 30
0.0
 40
5.0
100
AcDbArc
 50
90.0
 51
180.0
  0
ARC
  5
50
100
AcDbEntity
  8
Spacer Plate
 62
256
370
-1
  6
ByLayer
100
AcDbCircle
 10
54.6250000000000142
 20
35.4999745962155657
 30
0.0
 40
4.0
100
AcDbArc
 50
270.0
 51
90.0
  0
LINE
  5
51
100
AcDbEntity
100
AcDbLine
  8
Spacer Plate
 62
256
370
-1
  6
ByLayer
 10
-0.0000000000000071
 20
2.5000000000000142
 30
0.0
 11
79.9999999999999716
 21
2.4999999999999787
 31
0.0
  0
LINE
  5
52
100
AcDbEntity
100
AcDbLine
  8
Spacer Plate
 62
256
370
-1
  6
ByLayer
 10
0.0
 20
72.5
 30
0.0
 11
-0.0000000000000071
 21
2.5000000000000142
 31
0.0
  0
LINE
  5
53
100
AcDbEntity
100
AcDbLine
  8
Spacer Plate
 62
256
370
-1
  6
ByLayer
 10
79.9999999999999716
 20
2.4999999999999787
 30
0.0
 11
80.0
 21
72.5
 31
0.0
  0
CIRCLE
  5
54
100
AcDbEntity
100
AcDbCircle
  8
Spacer Plate
 62
256
370
-1
  6
ByLayer
 10
40.25
 20
35.4999745962155657
 30
0.0
 40
3.0
  0
ARC
  5
55
100
AcDbEntity
  8
Spacer Plate Text
 62
256
370
-1
  6
ByLayer
100
AcDbCircle
 10
28.8749211595330912
 20
74.2916666666666856
 30
0.0
 40
2.208333333333333
100
AcDbArc
 50
63.0699999999999932
 51
90.0
  0
ARC
  5
56
100
AcDbEntity
  8
Spacer Plate Text
 62
256
370
-1
  6
ByLayer
100
AcDbCircle
 10
28.8749211595330877
 20
75.8333333333333428
 30
0.0
 40
0.6666666666666666
100
AcDbArc
 50
90.0
 51
243.0
  0
LINE
  5
57
100
AcDbEntity
100
AcDbLine
  8
Spacer Plate Text
 62
256
370
-1
  6
ByLayer
 10
28.5719211595330869
 20
75.2393333333333487
 30
0.0
 11
29.5112544928664207
 21
74.7606666666666797
 31
0.0
  0
ARC
  5
58
100
AcDbEntity
  8
Spacer Plate Text
 62
256
370
-1
  6
ByLayer
100
AcDbCircle
 10
29.2082544928664234
 20
74.1666666666666856
 30
0.0
 40
0.6666666666666666
100
AcDbArc
 50
270.0
 51
62.980000000000004
  0
ARC
  5
59
100
AcDbEntity
  8
Spacer Plate Text
 62
256
370
-1
  6
ByLayer
100
AcDbCircle
 10
29.2082544928664234
 20
75.7083333333333428
 30
0.0
 40
2.208333333333333
100
AcDbArc
 50
243.0999999999999943
 51
270.0
  0
LINE
  5
5A
100
AcDbEntity
100
AcDbLine
  8
Spacer Plate Text
 62
256
370
-1
  6
ByLayer
 10
30.8750788404669052
 20
73.5000000000000142
 30
0.0
 11
31.708412173800248
 21
73.5000000000000142
 31
0.0
  0
ARC
  5
5B
100
AcDbEntity
  8
Spacer Plate Text
 62
256
370
-1
  6
ByLayer
100
AcDbCircle
 10
31.708412173800248
 20
74.0000000000000142
 30
0.0
 40
0.5
100
AcDbArc
 50
270.0
 51
0.0
  0
LINE
  5
5C
100
AcDbEntity
100
AcDbLine
  8
Spacer Plate Text
 62
256
370
-1
  6
ByLayer
 10
32.2084121738002409
 20
74.0000000000000142
 30
0.0
 11
32.2084121738002409
 21
75.0000000000000142
 31
0.0
  0
ARC
  5
5D
100
AcDbEntity
  8
Spacer Plate Text
 62
256
370
-1
  6
ByLayer
100
AcDbCircle
 10
31.7084121738002445
 20
75.0000000000000142
 30
0.0
 40
0.5
100
AcDbArc
 50
0.0
 51
90.0
  0
LINE
  5
5E
100
AcDbEntity
100
AcDbLine
  8
Spacer Plate Text
 62
256
370
-1
  6
ByLayer
 10
31.7084121738002409
 20
75.5000000000000142
 30
0.0
 11
30.8750788404669052
 21
75.5
 31
0.0
  0
LINE
  5
5F
100
AcDbEntity
100
AcDbLine
  8
Spacer Plate Text
 62
256
370
-1
  6
ByLayer
 10
30.8750788404669052
 20
75.5
 30
0.0
 11
30.8750788404669123
 21
72.5000000000000284
 31
0.0
  0
LINE
  5
60
100
AcDbEntity
100
AcDbLine
  8
Spacer Plate Text
 62
256
370
-1
  6
ByLayer
 10
33.3750788404669052
 20
75.5
 30
0.0
 11
34.0417455071335766
 21
75.5
 31
0.0
  0
ARC
  5
61
100
AcDbEntity
  8
Spacer Plate Text
 62
256
370
-1
  6
ByLayer
100
AcDbCircle
 10
34.0417455071335695
 20
75.0
 30
0.0
 40
0.5
100
AcDbArc
 50
0.0
 51
90.0
  0
LINE
  5
62
100
AcDbEntity
100
AcDbLine
  8
Spacer Plate Text
 62
256
370
-1
  6
ByLayer
 10
34.5417455071335766
 20
75.0
 30
0.0
 11
34.5417455071335766
 21
73.5
 31
0.0
  0
LINE
  5
63
100
AcDbEntity
100
AcDbLine
  8
Spacer Plate Text
 62
256
370
-1
  6
ByLayer
 10
34.5417455071335766
 20
73.5
 30
0.0
 11
33.7084121738002409
 21
73.5
 31
0.0
  0
ARC
  5
64
100
AcDbEntity
  8
Spacer Plate Text
 62
256
370
-1
  6
ByLayer
100
AcDbCircle
 10
33.7084121738002409
 20
74.0
 30
0.0
 40
0.5
100
AcDbArc
 50
90.0
 51
270.0
  0
LINE
  5
65
100
AcDbEntity
100
AcDbLine
  8
Spacer Plate Text
 62
256
370
-1
  6
ByLayer
 10
33.7084121738002409
 20
74.5
 30
0.0
 11
34.5417455071335766
 21
74.5
 31
0.0
  0
LINE
  5
66
100
AcDbEntity
100
AcDbLine
  8
Spacer Plate Text
 62
256
370
-1
  6
ByLayer
 10
36.5417455071335766
 20
75.5
 30
0.0
 11
36.0417455071335695
 21
75.5
 31
0.0
  0
ARC
  5
67
100
AcDbEntity
  8
Spacer Plate Text
 62
256
370
-1
  6
ByLayer
100
AcDbCircle
 10
36.0417455071335766
 20
75.0
 30
0.0
 40
0.5
100
AcDbArc
 50
90.0
 51
180.0
  0
LINE
  5
68
100
AcDbEntity
100
AcDbLine
  8
Spacer Plate Text
 62
256
370
-1
  6
ByLayer
 10
35.5417455071335766
 20
75.0
 30
0.0
 11
35.5417455071335766
 21
74.0
 31
0.0
  0
ARC
  5
69
100
AcDbEntity
  8
Spacer Plate Text
 62
256
370
-1
  6
ByLayer
100
AcDbCircle
 10
36.0417455071335766
 20
74.0
 30
0.0
 40
0.5
100
AcDbArc
 50
180.0
 51
270.0
  0
LINE
  5
6A
100
AcDbEntity
100
AcDbLine
  8
Spacer Plate Text
 62
256
370
-1
  6
ByLayer
 10
36.0417455071335766
 20
73.5
 30
0.0
 11
36.5417455071335766
 21
73.5
 31
0.0
  0
LINE
  5
6B
100
AcDbEntity
100
AcDbLine
  8
Spacer Plate Text
 62
256
370
-1
  6
ByLayer
 10
37.5417455071335766
 20
74.5
 30
0.0
 11
38.8750788404669123
 21
74.5
 31
0.0
  0
LINE
  5
6C
100
AcDbEntity
100
AcDbLine
  8
Spacer Plate Text
 62
256
370
-1
  6
ByLayer
 10
38.8750788404669123
 20
74.5
 30
0.0
 11
38.8750788404669123
 21
74.8333333333333286
 31
0.0
  0
ARC
  5
6D
100
AcDbEntity
  8
Spacer Plate Text
 62
256
370
-1
  6
ByLayer
100
AcDbCircle
 10
38.2084121738002409
 20
74.8333333333333286
 30
0.0
 40
0.6666666666666666
100
AcDbArc
 50
0.0
 51
180.0
  0
LINE
  5
6E
100
AcDbEntity
100
AcDbLine
  8
Spacer Plate Text
 62
256
370
-1
  6
ByLayer
 10
37.5417455071335766
 20
74.8333333333333286
 30
0.0
 11
37.5417455071335766
 21
74.0
 31
0.0
  0
ARC
  5
6F
100
AcDbEntity
  8
Spacer Plate Text
 62
256
370
-1
  6
ByLayer
100
AcDbCircle
 10
38.0417455071335766
 20
74.0
 30
0.0
 40
0.5
100
AcDbArc
 50
180.0
 51
270.0
  0
LINE
  5
70
100
AcDbEntity
100
AcDbLine
  8
Spacer Plate Text
 62
256
370
-1
  6
ByLayer
 10
38.0417455071335766
 20
73.5
 30
0.0
 11
38.8750788404669123
 21
73.5
 31
0.0
  0
LINE
  5
71
100
AcDbEntity
100
AcDbLine
  8
Spacer Plate Text
 62
256
370
-1
  6
ByLayer
 10
39.8750788404669123
 20
73.5
 30
0.0
 11
39.8750788404669123
 21
75.5
 31
0.0
  0
LINE
  5
72
100
AcDbEntity
100
AcDbLine
  8
Spacer Plate Text
 62
256
370
-1
  6
ByLayer
 10
39.8750788404669123
 20
75.5
 30
0.0
 11
40.5417455071335766
 21
75.5
 31
0.0
  0
ARC
  5
73
100
AcDbEntity
  8
Spacer Plate Text
 62
256
370
-1
  6
ByLayer
100
AcDbCircle
 10
40.5417455071335766
 20
75.1666666666666714
 30
0.0
 40
0.3333333333333333
100
AcDbArc
 50
0.0
 51
90.0
  0
LINE
  5
74
100
AcDbEntity
100
AcDbLine
  8
Spacer Plate Text
 62
256
370
-1
  6
ByLayer
 10
44.1250788404669123
 20
73.5
 30
0.0
 11
44.1250788404669123
 21
76.5
 31
0.0
  0
LINE
  5
75
100
AcDbEntity
100
AcDbLine
  8
Spacer Plate Text
 62
256
370
-1
  6
ByLayer
 10
44.1250788404669123
 20
76.5
 30
0.0
 11
45.1250788404669123
 21
76.5
 31
0.0
  0
ARC
  5
76
100
AcDbEntity
  8
Spacer Plate Text
 62
256
370
-1
  6
ByLayer
100
AcDbCircle
 10
45.1250788404669123
 20
75.8333333333333286
 30
0.0
 40
0.6666666666666666
100
AcDbArc
 50
0.0
 51
90.0
  0
LINE
  5
77
100
AcDbEntity
100
AcDbLine
  8
Spacer Plate Text
 62
256
370
-1
  6
ByLayer
 10
45.7917455071335766
 20
75.8333333333333286
 30
0.0
 11
45.7917455071335766
 21
75.5
 31
0.0
  0
ARC
  5
78
100
AcDbEntity
  8
Spacer Plate Text
 62
256
370
-1
  6
ByLayer
100
AcDbCircle
 10
45.1250788404669123
 20
75.5
 30
0.0
 40
0.6666666666666666
100
AcDbArc
 50
270.0
 51
0.0
  0
LINE
  5
79
100
AcDbEntity
100
AcDbLine
  8
Spacer Plate Text
 62
256
370
-1
  6
ByLayer
 10
45.1250788404669123
 20
74.8333333333333286
 30
0.0
 11
44.1250788404669123
 21
74.8333333333333428
 31
0.0
  0
LINE
  5
7A
100
AcDbEntity
100
AcDbLine
  8
Spacer Plate Text
 62
256
370
-1
  6
ByLayer
 10
46.7917455071335837
 20
76.5
 30
0.0
 11
46.7917455071335766
 21
73.8333333333333286
 31
0.0
  0
ARC
  5
7B
100
AcDbEntity
  8
Spacer Plate Text
 62
256
370
-1
  6
ByLayer
100
AcDbCircle
 10
47.1250788404669123
 20
73.8333333333333286
 30
0.0
 40
0.3333333333333333
100
AcDbArc
 50
180.0
 51
270.0
  0
LINE
  5
7C
100
AcDbEntity
100
AcDbLine
  8
Spacer Plate Text
 62
256
370
-1
  6
ByLayer
 10
48.2917455071335837
 20
75.5
 30
0.0
 11
48.9584121738002551
 21
75.5
 31
0.0
  0
ARC
  5
7D
100
AcDbEntity
  8
Spacer Plate Text
 62
256
370
-1
  6
ByLayer
100
AcDbCircle
 10
48.9584121738002551
 20
75.0
 30
0.0
 40
0.5
100
AcDbArc
 50
0.0
 51
90.0
  0
LINE
  5
7E
100
AcDbEntity
100
AcDbLine
  8
Spacer Plate Text
 62
256
370
-1
  6
ByLayer
 10
49.4584121738002551
 20
75.0
 30
0.0
 11
49.458412173800248
 21
73.5
 31
0.0
  0
LINE
  5
7F
100
AcDbEntity
100
AcDbLine
  8
Spacer Plate Text
 62
256
370
-1
  6
ByLayer
 10
49.458412173800248
 20
73.5
 30
0.0
 11
48.6250788404669123
 21
73.5
 31
0.0
  0
ARC
  5
80
100
AcDbEntity
  8
Spacer Plate Text
 62
256
370
-1
  6
ByLayer
100
AcDbCircle
 10
48.6250788404669123
 20
74.0
 30
0.0
 40
0.5
100
AcDbArc
 50
90.0
 51
270.0
  0
LINE
  5
81
100
AcDbEntity
100
AcDbLine
  8
Spacer Plate Text
 62
256
370
-1
  6
ByLayer
 10
48.6250788404669123
 20
74.5
 30
0.0
 11
49.458412173800248
 21
74.5
 31
0.0
  0
LINE
  5
82
100
AcDbEntity
100
AcDbLine
  8
Spacer Plate Text
 62
256
370
-1
  6
ByLayer
 10
50.4584121738002409
 20
75.4999999999999858
 30
0.0
 11
51.4584121738002409
 21
75.4999999999999858
 31
0.0
  0
LINE
  5
83
100
AcDbEntity
100
AcDbLine
  8
Spacer Plate Text
 62
256
370
-1
  6
ByLayer
 10
50.7917455071335766
 20
76.4999999999999858
 30
0.0
 11
50.7917455071335766
 21
73.4999999999999858
 31
0.0
  0
LINE
  5
84
100
AcDbEntity
100
AcDbLine
  8
Spacer Plate Text
 62
256
370
-1
  6
ByLayer
 10
52.4584121738002409
 20
74.5
 30
0.0
 11
53.7917455071335766
 21
74.5
 31
0.0
  0
LINE
  5
85
100
AcDbEntity
100
AcDbLine
  8
Spacer Plate Text
 62
256
370
-1
  6
ByLayer
 10
53.7917455071335766
 20
74.5
 30
0.0
 11
53.7917455071335766
 21
74.8333333333333286
 31
0.0
  0
ARC
  5
86
100
AcDbEntity
  8
Spacer Plate Text
 62
256
370
-1
  6
ByLayer
100
AcDbCircle
 10
53.1250788404669052
 20
74.8333333333333286
 30
0.0
 40
0.6666666666666666
100
AcDbArc
 50
0.0
 51
180.0
  0
LINE
  5
87
100
AcDbEntity
100
AcDbLine
  8
Spacer Plate Text
 62
256
370
-1
  6
ByLayer
 10
52.4584121738002409
 20
74.8333333333333286
 30
0.0
 11
52.4584121738002409
 21
74.0
 31
0.0
  0
ARC
  5
88
100
AcDbEntity
  8
Spacer Plate Text
 62
256
370
-1
  6
ByLayer
100
AcDbCircle
 10
52.9584121738002409
 20
74.0
 30
0.0
 40
0.5
100
AcDbArc
 50
180.0
 51
270.0
  0
LINE
  5
89
100
AcDbEntity
100
AcDbLine
  8
Spacer Plate Text
 62
256
370
-1
  6
ByLayer
 10
52.9584121738002409
 20
73.5
 30
0.0
 11
53.7917455071335837
 21
73.5
 31
0.0
  0
CIRCLE
  5
8A
100
AcDbEntity
100
AcDbCircle
  8
Spacer Plate
 62
256
370
-1
  6
ByLayer
 10
24.7500000000000071
 20
35.4999745962155799
 30
0.0
 40
8.6500000000000004
  0
ARC
  5
8B
100
AcDbEntity
  8
Spacer Plate
 62
256
370
-1
  6
ByLayer
100
AcDbCircle
 10
51.6750000000000185
 20
35.4999745962155728
 30
0.0
 40
4.0
100
AcDbArc
 50
90.0
 51
270.0
  0
LINE
  5
8C
100
AcDbEntity
100
AcDbLine
  8
Spacer Plate
 62
256
370
-1
  6
ByLayer
 10
51.6750000000000185
 20
39.4999745962155586
 30
0.0
 11
54.6250000000000142
 21
39.4999745962155302
 31
0.0
  0
LINE
  5
8D
100
AcDbEntity
100
AcDbLine
  8
Spacer Plate
 62
256
370
-1
  6
ByLayer
 10
54.6250000000000142
 20
31.4999745962155728
 30
0.0
 11
51.6750000000000114
 21
31.4999745962155693
 31
0.0
  0
CIRCLE
  5
8E
100
AcDbEntity
100
AcDbCircle
  8
Spacer Plate
 62
256
370
-1
  6
ByLayer
 10
9.9999999999999964
 20
8.0000000000000036
 30
0.0
 40
1.5
  0
CIRCLE
  5
8F
100
AcDbEntity
100
AcDbCircle
  8
Spacer Plate
 62
256
370
-1
  6
ByLayer
 10
10.0000000000000071
 20
72.4000000000000057
 30
0.0
 40
1.5
  0
CIRCLE
  5
90
100
AcDbEntity
100
AcDbCircle
  8
Spacer Plate
 62
256
370
-1
  6
ByLayer
 10
72.1500000000000057
 20
72.4000000000000057
 30
0.0
 40
1.5
  0
CIRCLE
  5
91
100
AcDbEntity
100
AcDbCircle
  8
Spacer Plate
 62
256
370
-1
  6
ByLayer
 10
72.1500000000000057
 20
7.9999999999999858
 30
0.0
 40
1.5
  0
CIRCLE
  5
92
100
AcDbEntity
100
AcDbCircle
  8
Spacer Plate
 62
256
370
-1
  6
ByLayer
 10
17.0000000000000142
 20
22.0765808375567651
 30
0.0
 40
1.5
  0
CIRCLE
  5
93
100
AcDbEntity
100
AcDbCircle
  8
Spacer Plate
 62
256
370
-1
  6
ByLayer
 10
9.2500000000000071
 20
35.4999745962155586
 30
0.0
 40
1.5
  0
CIRCLE
  5
94
100
AcDbEntity
100
AcDbCircle
  8
Spacer Plate
 62
256
370
-1
  6
ByLayer
 10
17.0000000000000142
 20
48.9233683548743699
 30
0.0
 40
1.5
  0
MTEXT
  5
95
100
AcDbEntity
100
AcDbMText
  8
Spacer Plate Text
 62
256
370
-1
  6
ByLayer
 10
4.0000000000000071
 20
74.5000000000000142
 30
0.0
 40
4.0
 41
100.0
 71
1
 72
2
  1
2
  7
standard
 50
0.0
 73
0
 44
1.0
  0
ARC
  5
96
100
AcDbEntity
  8
Filament Guide Bottom
 62
256
370
-1
  6
ByLayer
100
AcDbCircle
 10
165.0
 20
72.5
 30
0.0
 40
5.0
100
AcDbArc
 50
0.0
 51
90.0
  0
LINE
  5
97
100
AcDbEntity
100
AcDbLine
  8
Filament Guide Bottom
 62
256
370
-1
  6
ByLayer
 10
95.0
 20
77.5
 30
0.0
 11
165.0
 21
77.5
 31
0.0
  0
ARC
  5
98
100
AcDbEntity
  8
Filament Guide Bottom
 62
256
370
-1
  6
ByLayer
100
AcDbCircle
 10
95.0
 20
72.5
 30
0.0
 40
5.0
100
AcDbArc
 50
90.0
 51
180.0
  0
LINE
  5
99
100
AcDbEntity
100
AcDbLine
  8
Filament Guide Bottom
 62
256
370
-1
  6
ByLayer
 10
132.4249999999999829
 20
9.2999999999999972
 30
0.0
 11
135.3250000000000171
 21
9.2999999999999972
 31
0.0
  0
LINE
  5
9A
100
AcDbEntity
100
AcDbLine
  8
Filament Guide Bottom
 62
256
370
-1
  6
ByLayer
 10
135.3250000000000171
 20
9.2999999999999972
 30
0.0
 11
135.3249999999999886
 21
7.0
 31
0.0
  0
LINE
  5
9B
100
AcDbEntity
100
AcDbLine
  8
Filament Guide Bottom
 62
256
370
-1
  6
ByLayer
 10
135.3249999999999886
 20
7.0
 30
0.0
 11
132.4250000000000114
 21
7.0
 31
0.0
  0
LINE
  5
9C
100
AcDbEntity
100
AcDbLine
  8
Filament Guide Bottom
 62
256
370
-1
  6
ByLayer
 10
132.4250000000000114
 20
7.0
 30
0.0
 11
132.4249999999999829
 21
9.2999999999999972
 31
0.0
  0
LINE
  5
9D
100
AcDbEntity
100
AcDbLine
  8
Filament Guide Bottom
 62
256
370
-1
  6
ByLayer
 10
110.0749999999999886
 20
9.350000000000005
 30
0.0
 11
107.1749999999999829
 21
9.3500000000000156
 31
0.0
  0
LINE
  5
9E
100
AcDbEntity
100
AcDbLine
  8
Filament Guide Bottom
 62
256
370
-1
  6
ByLayer
 10
107.1749999999999829
 20
9.3500000000000156
 30
0.0
 11
107.1750000000000114
 21
7.0
 31
0.0
  0
LINE
  5
9F
100
AcDbEntity
100
AcDbLine
  8
Filament Guide Bottom
 62
256
370
-1
  6
ByLayer
 10
107.1750000000000114
 20
7.0
 30
0.0
 11
110.0749999999999886
 21
7.0000000000000071
 31
0.0
  0
LINE
  5
A0
100
AcDbEntity
100
AcDbLine
  8
Filament Guide Bottom
 62
256
370
-1
  6
ByLayer
 10
110.0749999999999886
 20
7.0000000000000071
 30
0.0
 11
110.0749999999999886
 21
9.350000000000005
 31
0.0
  0
ARC
  5
A1
100
AcDbEntity
  8
Filament Guide Bottom
 62
256
370
-1
  6
ByLayer
100
AcDbCircle
 10
144.6250000000000284
 20
35.4999745962155657
 30
0.0
 40
21.0
100
AcDbArc
 50
270.0
 51
90.0
  0
LINE
  5
A2
100
AcDbEntity
100
AcDbLine
  8
Filament Guide Bottom
 62
256
370
-1
  6
ByLayer
 10
169.9999999999999716
 20
2.4999999999999787
 30
0.0
 11
90.0
 21
2.5000000000000142
 31
0.0
  0
LINE
  5
A3
100
AcDbEntity
100
AcDbLine
  8
Filament Guide Bottom
 62
256
370
-1
  6
ByLayer
 10
90.0
 20
2.5000000000000142
 30
0.0
 11
90.0
 21
72.5
 31
0.0
  0
LINE
  5
A4
100
AcDbEntity
100
AcDbLine
  8
Filament Guide Bottom
 62
256
370
-1
  6
ByLayer
 10
170.0
 20
72.5
 30
0.0
 11
169.9999999999999716
 21
2.4999999999999787
 31
0.0
  0
ARC
  5
A5
100
AcDbEntity
  8
Filament Guide Bottom
 62
256
370
-1
  6
ByLayer
100
AcDbCircle
 10
142.0750000000000171
 20
35.4999745962155657
 30
0.0
 40
21.0
100
AcDbArc
 50
90.0
 51
165.850799387182775
  0
ARC
  5
A6
100
AcDbEntity
  8
Filament Guide Bottom
 62
256
370
-1
  6
ByLayer
100
AcDbCircle
 10
142.0750000000000171
 20
35.4999745962155657
 30
0.0
 40
21.0
100
AcDbArc
 50
194.1492006128172534
 51
270.0
  0
ARC
  5
A7
100
AcDbEntity
  8
Filament Guide Bottom
 62
256
370
-1
  6
ByLayer
100
AcDbCircle
 10
114.75
 20
35.4999745962155799
 30
0.0
 40
8.6500000000000004
100
AcDbArc
 50
36.4027129460893804
 51
323.5972870539106339
  0
LINE
  5
A8
100
AcDbEntity
100
AcDbLine
  8
Filament Guide Bottom
 62
256
370
-1
  6
ByLayer
 10
142.0750000000000171
 20
56.4999745962155657
 30
0.0
 11
144.625
 21
56.4999745962155657
 31
0.0
  0
LINE
  5
A9
100
AcDbEntity
100
AcDbLine
  8
Filament Guide Bottom
 62
256
370
-1
  6
ByLayer
 10
144.625
 20
14.4999745962155586
 30
0.0
 11
142.0749999999999886
 21
14.4999745962155622
 31
0.0
  0
LINE
  5
AA
100
AcDbEntity
100
AcDbLine
  8
Filament Guide Bottom Text
 62
256
370
-1
  6
ByLayer
 10
115.8086123729107015
 20
68.3061313454764161
 30
0.0
 11
114.9197234840218158
 21
68.3061313454764161
 31
0.0
  0
LINE
  5
AB
100
AcDbEntity
100
AcDbLine
  8
Filament Guide Bottom Text
 62
256
370
-1
  6
ByLayer
 10
114.9197234840218158
 20
68.3061313454764161
 30
0.0
 11
114.9197234840218016
 21
66.3061313454764161
 31
0.0
  0
LINE
  5
AC
100
AcDbEntity
100
AcDbLine
  8
Filament Guide Bottom Text
 62
256
370
-1
  6
ByLayer
 10
114.9197234840218158
 20
67.4172424565875303
 30
0.0
 11
115.8086123729107015
 21
67.4172424565875303
 31
0.0
  0
LINE
  5
AD
100
AcDbEntity
100
AcDbLine
  8
Filament Guide Bottom Text
 62
256
370
-1
  6
ByLayer
 10
116.4752790395773587
 20
66.3061313454764161
 30
0.0
 11
116.4752790395773729
 21
67.6394646788097447
 31
0.0
  0
LINE
  5
AE
100
AcDbEntity
100
AcDbLine
  8
Filament Guide Bottom Text
 62
256
370
-1
  6
ByLayer
 10
116.4752790395773729
 20
68.1950202343653018
 30
0.0
 11
116.4752790395773729
 21
68.3061313454764161
 31
0.0
  0
LINE
  5
AF
100
AcDbEntity
100
AcDbLine
  8
Filament Guide Bottom Text
 62
256
370
-1
  6
ByLayer
 10
117.1419457062440301
 20
68.3061313454764303
 30
0.0
 11
117.1419457062440301
 21
66.5283535676986588
 31
0.0
  0
ARC
  5
B0
100
AcDbEntity
  8
Filament Guide Bottom Text
 62
256
370
-1
  6
ByLayer
100
AcDbCircle
 10
117.3641679284662587
 20
66.5283535676986588
 30
0.0
 40
0.2222222222222222
100
AcDbArc
 50
180.0
 51
270.0
  0
LINE
  5
B1
100
AcDbEntity
100
AcDbLine
  8
Filament Guide Bottom Text
 62
256
370
-1
  6
ByLayer
 10
118.1419457062440301
 20
67.6394646788097589
 30
0.0
 11
118.5863901506884872
 21
67.6394646788097589
 31
0.0
  0
ARC
  5
B2
100
AcDbEntity
  8
Filament Guide Bottom Text
 62
256
370
-1
  6
ByLayer
100
AcDbCircle
 10
118.5863901506884872
 20
67.3061313454764303
 30
0.0
 40
0.3333333333333333
100
AcDbArc
 50
0.0
 51
90.0
  0
LINE
  5
B3
100
AcDbEntity
100
AcDbLine
  8
Filament Guide Bottom Text
 62
256
370
-1
  6
ByLayer
 10
118.9197234840218158
 20
67.3061313454764303
 30
0.0
 11
118.9197234840218158
 21
66.3061313454764303
 31
0.0
  0
LINE
  5
B4
100
AcDbEntity
100
AcDbLine
  8
Filament Guide Bottom Text
 62
256
370
-1
  6
ByLayer
 10
118.9197234840218158
 20
66.3061313454764303
 30
0.0
 11
118.3641679284662587
 21
66.3061313454764303
 31
0.0
  0
ARC
  5
B5
100
AcDbEntity
  8
Filament Guide Bottom Text
 62
256
370
-1
  6
ByLayer
100
AcDbCircle
 10
118.3641679284662587
 20
66.6394646788097589
 30
0.0
 40
0.3333333333333333
100
AcDbArc
 50
90.0
 51
270.0
  0
LINE
  5
B6
100
AcDbEntity
100
AcDbLine
  8
Filament Guide Bottom Text
 62
256
370
-1
  6
ByLayer
 10
118.3641679284662587
 20
66.9727980121431017
 30
0.0
 11
118.9197234840218158
 21
66.9727980121431017
 31
0.0
  0
LINE
  5
B7
100
AcDbEntity
100
AcDbLine
  8
Filament Guide Bottom Text
 62
256
370
-1
  6
ByLayer
 10
119.5863901506884872
 20
66.3061313454764161
 30
0.0
 11
119.5863901506884872
 21
67.6394646788097447
 31
0.0
  0
LINE
  5
B8
100
AcDbEntity
100
AcDbLine
  8
Filament Guide Bottom Text
 62
256
370
-1
  6
ByLayer
 10
119.5863901506884872
 20
67.6394646788097447
 30
0.0
 11
120.5863901506884872
 21
67.6394646788097447
 31
0.0
  0
ARC
  5
B9
100
AcDbEntity
  8
Filament Guide Bottom Text
 62
256
370
-1
  6
ByLayer
100
AcDbCircle
 10
120.5863901506884872
 20
67.3061313454764161
 30
0.0
 40
0.3333333333333333
100
AcDbArc
 50
0.0
 51
90.0
  0
LINE
  5
BA
100
AcDbEntity
100
AcDbLine
  8
Filament Guide Bottom Text
 62
256
370
-1
  6
ByLayer
 10
120.9197234840218158
 20
67.3061313454764161
 30
0.0
 11
120.9197234840218158
 21
66.3061313454764161
 31
0.0
  0
LINE
  5
BB
100
AcDbEntity
100
AcDbLine
  8
Filament Guide Bottom Text
 62
256
370
-1
  6
ByLayer
 10
120.2530568173551586
 20
67.6394646788097447
 30
0.0
 11
120.2530568173551586
 21
66.3061313454764161
 31
0.0
  0
LINE
  5
BC
100
AcDbEntity
100
AcDbLine
  8
Filament Guide Bottom Text
 62
256
370
-1
  6
ByLayer
 10
121.5863901506884872
 20
66.9727980121430733
 30
0.0
 11
122.4752790395773729
 21
66.9727980121430733
 31
0.0
  0
LINE
  5
BD
100
AcDbEntity
100
AcDbLine
  8
Filament Guide Bottom Text
 62
256
370
-1
  6
ByLayer
 10
122.4752790395773729
 20
66.9727980121430733
 30
0.0
 11
122.4752790395773729
 21
67.1950202343652876
 31
0.0
  0
ARC
  5
BE
100
AcDbEntity
  8
Filament Guide Bottom Text
 62
256
370
-1
  6
ByLayer
100
AcDbCircle
 10
122.0308345951329159
 20
67.1950202343652876
 30
0.0
 40
0.4444444444444444
100
AcDbArc
 50
0.0
 51
180.0
  0
LINE
  5
BF
100
AcDbEntity
100
AcDbLine
  8
Filament Guide Bottom Text
 62
256
370
-1
  6
ByLayer
 10
121.586390150688473
 20
67.1950202343652876
 30
0.0
 11
121.5863901506884872
 21
66.6394646788097305
 31
0.0
  0
ARC
  5
C0
100
AcDbEntity
  8
Filament Guide Bottom Text
 62
256
370
-1
  6
ByLayer
100
AcDbCircle
 10
121.9197234840218158
 20
66.6394646788097305
 30
0.0
 40
0.3333333333333333
100
AcDbArc
 50
180.0
 51
270.0
  0
LINE
  5
C1
100
AcDbEntity
100
AcDbLine
  8
Filament Guide Bottom Text
 62
256
370
-1
  6
ByLayer
 10
121.9197234840218158
 20
66.3061313454764019
 30
0.0
 11
122.4752790395773729
 21
66.3061313454764019
 31
0.0
  0
LINE
  5
C2
100
AcDbEntity
100
AcDbLine
  8
Filament Guide Bottom Text
 62
256
370
-1
  6
ByLayer
 10
123.1419457062440301
 20
66.3061313454764161
 30
0.0
 11
123.1419457062440301
 21
67.6394646788097447
 31
0.0
  0
LINE
  5
C3
100
AcDbEntity
100
AcDbLine
  8
Filament Guide Bottom Text
 62
256
370
-1
  6
ByLayer
 10
123.1419457062440301
 20
67.6394646788097447
 30
0.0
 11
123.6975012617996015
 21
67.6394646788097447
 31
0.0
  0
ARC
  5
C4
100
AcDbEntity
  8
Filament Guide Bottom Text
 62
256
370
-1
  6
ByLayer
100
AcDbCircle
 10
123.6975012617995873
 20
67.3061313454764161
 30
0.0
 40
0.3333333333333333
100
AcDbArc
 50
0.0
 51
90.0
  0
LINE
  5
C5
100
AcDbEntity
100
AcDbLine
  8
Filament Guide Bottom Text
 62
256
370
-1
  6
ByLayer
 10
124.0308345951329301
 20
67.3061313454764161
 30
0.0
 11
124.0308345951329301
 21
66.3061313454764161
 31
0.0
  0
LINE
  5
C6
100
AcDbEntity
100
AcDbLine
  8
Filament Guide Bottom Text
 62
256
370
-1
  6
ByLayer
 10
124.6975012617995873
 20
67.6394646788097447
 30
0.0
 11
125.3641679284662587
 21
67.6394646788097447
 31
0.0
  0
LINE
  5
C7
100
AcDbEntity
100
AcDbLine
  8
Filament Guide Bottom Text
 62
256
370
-1
  6
ByLayer
 10
124.9197234840218158
 20
68.3061313454764161
 30
0.0
 11
124.9197234840218158
 21
66.3061313454764161
 31
0.0
  0
LINE
  5
C8
100
AcDbEntity
100
AcDbLine
  8
Filament Guide Bottom Text
 62
256
370
-1
  6
ByLayer
 10
128.6419457062440586
 20
68.3061313454764161
 30
0.0
 11
127.9752790395773729
 21
68.3061313454764161
 31
0.0
  0
ARC
  5
C9
100
AcDbEntity
  8
Filament Guide Bottom Text
 62
256
370
-1
  6
ByLayer
100
AcDbCircle
 10
127.9752790395773729
 20
67.8616869010319732
 30
0.0
 40
0.4444444444444444
100
AcDbArc
 50
90.0
 51
180.0
  0
LINE
  5
CA
100
AcDbEntity
100
AcDbLine
  8
Filament Guide Bottom Text
 62
256
370
-1
  6
ByLayer
 10
127.5308345951329301
 20
67.8616869010319732
 30
0.0
 11
127.5308345951329301
 21
66.7505757899208589
 31
0.0
  0
ARC
  5
CB
100
AcDbEntity
  8
Filament Guide Bottom Text
 62
256
370
-1
  6
ByLayer
100
AcDbCircle
 10
127.9752790395773729
 20
66.7505757899208589
 30
0.0
 40
0.4444444444444444
100
AcDbArc
 50
180.0
 51
270.0
  0
LINE
  5
CC
100
AcDbEntity
100
AcDbLine
  8
Filament Guide Bottom Text
 62
256
370
-1
  6
ByLayer
 10
127.9752790395773729
 20
66.3061313454764161
 30
0.0
 11
128.6419457062440301
 21
66.3061313454764161
 31
0.0
  0
LINE
  5
CD
100
AcDbEntity
100
AcDbLine
  8
Filament Guide Bottom Text
 62
256
370
-1
  6
ByLayer
 10
128.6419457062440301
 20
66.3061313454764161
 30
0.0
 11
128.6419457062440301
 21
67.4172424565875303
 31
0.0
  0
LINE
  5
CE
100
AcDbEntity
100
AcDbLine
  8
Filament Guide Bottom Text
 62
256
370
-1
  6
ByLayer
 10
128.6419457062440301
 20
67.4172424565875303
 30
0.0
 11
128.3086123729107157
 21
67.4172424565875303
 31
0.0
  0
LINE
  5
CF
100
AcDbEntity
100
AcDbLine
  8
Filament Guide Bottom Text
 62
256
370
-1
  6
ByLayer
 10
129.3086123729107157
 20
67.6394646788097447
 30
0.0
 11
129.3086123729107157
 21
66.6394646788097447
 31
0.0
  0
ARC
  5
D0
100
AcDbEntity
  8
Filament Guide Bottom Text
 62
256
370
-1
  6
ByLayer
100
AcDbCircle
 10
129.6419457062440301
 20
66.6394646788097447
 30
0.0
 40
0.3333333333333333
100
AcDbArc
 50
180.0
 51
270.0
  0
LINE
  5
D1
100
AcDbEntity
100
AcDbLine
  8
Filament Guide Bottom Text
 62
256
370
-1
  6
ByLayer
 10
129.6419457062440301
 20
66.3061313454764161
 30
0.0
 11
130.1975012617996015
 21
66.3061313454764161
 31
0.0
  0
LINE
  5
D2
100
AcDbEntity
100
AcDbLine
  8
Filament Guide Bottom Text
 62
256
370
-1
  6
ByLayer
 10
130.1975012617996015
 20
66.3061313454764161
 30
0.0
 11
130.1975012617995731
 21
67.6394646788097447
 31
0.0
  0
LINE
  5
D3
100
AcDbEntity
100
AcDbLine
  8
Filament Guide Bottom Text
 62
256
370
-1
  6
ByLayer
 10
130.8641679284662587
 20
66.3061313454764161
 30
0.0
 11
130.8641679284662587
 21
67.6394646788097447
 31
0.0
  0
LINE
  5
D4
100
AcDbEntity
100
AcDbLine
  8
Filament Guide Bottom Text
 62
256
370
-1
  6
ByLayer
 10
130.8641679284662587
 20
68.1950202343653018
 30
0.0
 11
130.8641679284662587
 21
68.3061313454764161
 31
0.0
  0
LINE
  5
D5
100
AcDbEntity
100
AcDbLine
  8
Filament Guide Bottom Text
 62
256
370
-1
  6
ByLayer
 10
132.41972348402183
 20
68.3061313454764161
 30
0.0
 11
132.4197234840218016
 21
66.3061313454764161
 31
0.0
  0
LINE
  5
D6
100
AcDbEntity
100
AcDbLine
  8
Filament Guide Bottom Text
 62
256
370
-1
  6
ByLayer
 10
132.4197234840218016
 20
66.3061313454764161
 30
0.0
 11
131.8641679284662587
 21
66.3061313454764161
 31
0.0
  0
ARC
  5
D7
100
AcDbEntity
  8
Filament Guide Bottom Text
 62
256
370
-1
  6
ByLayer
100
AcDbCircle
 10
131.8641679284662587
 20
66.6394646788097447
 30
0.0
 40
0.3333333333333333
100
AcDbArc
 50
180.0
 51
270.0
  0
LINE
  5
D8
100
AcDbEntity
100
AcDbLine
  8
Filament Guide Bottom Text
 62
256
370
-1
  6
ByLayer
 10
131.5308345951329159
 20
66.6394646788097447
 30
0.0
 11
131.5308345951329159
 21
67.3061313454764161
 31
0.0
  0
ARC
  5
D9
100
AcDbEntity
  8
Filament Guide Bottom Text
 62
256
370
-1
  6
ByLayer
100
AcDbCircle
 10
131.8641679284662587
 20
67.3061313454764161
 30
0.0
 40
0.3333333333333333
100
AcDbArc
 50
90.0
 51
180.0
  0
LINE
  5
DA
100
AcDbEntity
100
AcDbLine
  8
Filament Guide Bottom Text
 62
256
370
-1
  6
ByLayer
 10
131.8641679284662587
 20
67.6394646788097447
 30
0.0
 11
132.4197234840218016
 21
67.6394646788097447
 31
0.0
  0
LINE
  5
DB
100
AcDbEntity
100
AcDbLine
  8
Filament Guide Bottom Text
 62
256
370
-1
  6
ByLayer
 10
133.0863901506884872
 20
66.9727980121430875
 30
0.0
 11
133.9752790395773729
 21
66.9727980121430875
 31
0.0
  0
LINE
  5
DC
100
AcDbEntity
100
AcDbLine
  8
Filament Guide Bottom Text
 62
256
370
-1
  6
ByLayer
 10
133.9752790395773729
 20
66.9727980121430875
 30
0.0
 11
133.9752790395773729
 21
67.1950202343653018
 31
0.0
  0
ARC
  5
DD
100
AcDbEntity
  8
Filament Guide Bottom Text
 62
256
370
-1
  6
ByLayer
100
AcDbCircle
 10
133.5308345951329159
 20
67.1950202343653018
 30
0.0
 40
0.4444444444444444
100
AcDbArc
 50
0.0
 51
180.0
  0
LINE
  5
DE
100
AcDbEntity
100
AcDbLine
  8
Filament Guide Bottom Text
 62
256
370
-1
  6
ByLayer
 10
133.0863901506884872
 20
67.1950202343653018
 30
0.0
 11
133.0863901506884872
 21
66.6394646788097447
 31
0.0
  0
ARC
  5
DF
100
AcDbEntity
  8
Filament Guide Bottom Text
 62
256
370
-1
  6
ByLayer
100
AcDbCircle
 10
133.4197234840218016
 20
66.6394646788097447
 30
0.0
 40
0.3333333333333333
100
AcDbArc
 50
180.0
 51
270.0
  0
LINE
  5
E0
100
AcDbEntity
100
AcDbLine
  8
Filament Guide Bottom Text
 62
256
370
-1
  6
ByLayer
 10
133.4197234840218016
 20
66.3061313454764161
 30
0.0
 11
133.9752790395773729
 21
66.3061313454764161
 31
0.0
  0
LINE
  5
E1
100
AcDbEntity
100
AcDbLine
  8
Filament Guide Bottom Text
 62
256
370
-1
  6
ByLayer
 10
136.1419457062440301
 20
66.3061313454764161
 30
0.0
 11
136.1419457062440301
 21
68.3061313454764161
 31
0.0
  0
LINE
  5
E2
100
AcDbEntity
100
AcDbLine
  8
Filament Guide Bottom Text
 62
256
370
-1
  6
ByLayer
 10
136.1419457062440301
 20
68.3061313454764161
 30
0.0
 11
136.6975012617995731
 21
68.3061313454764161
 31
0.0
  0
ARC
  5
E3
100
AcDbEntity
  8
Filament Guide Bottom Text
 62
256
370
-1
  6
ByLayer
100
AcDbCircle
 10
136.6975012617995731
 20
67.8616869010319732
 30
0.0
 40
0.4444444444444444
100
AcDbArc
 50
270.0
 51
90.0
  0
LINE
  5
E4
100
AcDbEntity
100
AcDbLine
  8
Filament Guide Bottom Text
 62
256
370
-1
  6
ByLayer
 10
136.1419457062440301
 20
67.4172424565875303
 30
0.0
 11
136.719723484021813
 21
67.4172424565875303
 31
0.0
  0
ARC
  5
E5
100
AcDbEntity
  8
Filament Guide Bottom Text
 62
256
370
-1
  6
ByLayer
100
AcDbCircle
 10
136.719723484021813
 20
66.8839091232541989
 30
0.0
 40
0.5333333333333333
100
AcDbArc
 50
0.0
 51
90.0
  0
LINE
  5
E6
100
AcDbEntity
100
AcDbLine
  8
Filament Guide Bottom Text
 62
256
370
-1
  6
ByLayer
 10
137.2530568173551444
 20
66.8839091232541989
 30
0.0
 11
137.2530568173551444
 21
66.8394646788097475
 31
0.0
  0
ARC
  5
E7
100
AcDbEntity
  8
Filament Guide Bottom Text
 62
256
370
-1
  6
ByLayer
100
AcDbCircle
 10
136.719723484021813
 20
66.8394646788097475
 30
0.0
 40
0.5333333333333333
100
AcDbArc
 50
270.0
 51
0.0
  0
LINE
  5
E8
100
AcDbEntity
100
AcDbLine
  8
Filament Guide Bottom Text
 62
256
370
-1
  6
ByLayer
 10
136.719723484021813
 20
66.3061313454764161
 30
0.0
 11
136.1419457062440301
 21
66.3061313454764161
 31
0.0
  0
LINE
  5
E9
100
AcDbEntity
100
AcDbLine
  8
Filament Guide Bottom Text
 62
256
370
-1
  6
ByLayer
 10
137.91972348402183
 20
67.1950202343652876
 30
0.0
 11
137.9197234840218016
 21
66.7505757899208447
 31
0.0
  0
ARC
  5
EA
100
AcDbEntity
  8
Filament Guide Bottom Text
 62
256
370
-1
  6
ByLayer
100
AcDbCircle
 10
138.3641679284662587
 20
66.7505757899208447
 30
0.0
 40
0.4444444444444444
100
AcDbArc
 50
180.0
 51
0.0
  0
LINE
  5
EB
100
AcDbEntity
100
AcDbLine
  8
Filament Guide Bottom Text
 62
256
370
-1
  6
ByLayer
 10
138.8086123729106873
 20
66.7505757899208447
 30
0.0
 11
138.8086123729107157
 21
67.1950202343652876
 31
0.0
  0
ARC
  5
EC
100
AcDbEntity
  8
Filament Guide Bottom Text
 62
256
370
-1
  6
ByLayer
100
AcDbCircle
 10
138.3641679284662587
 20
67.1950202343652876
 30
0.0
 40
0.4444444444444444
100
AcDbArc
 50
0.0
 51
180.0
  0
LINE
  5
ED
100
AcDbEntity
100
AcDbLine
  8
Filament Guide Bottom Text
 62
256
370
-1
  6
ByLayer
 10
139.4752790395773729
 20
67.6394646788097447
 30
0.0
 11
140.1419457062440301
 21
67.6394646788097447
 31
0.0
  0
LINE
  5
EE
100
AcDbEntity
100
AcDbLine
  8
Filament Guide Bottom Text
 62
256
370
-1
  6
ByLayer
 10
139.6975012617995731
 20
68.3061313454764161
 30
0.0
 11
139.6975012617996015
 21
66.3061313454764161
 31
0.0
  0
LINE
  5
EF
100
AcDbEntity
100
AcDbLine
  8
Filament Guide Bottom Text
 62
256
370
-1
  6
ByLayer
 10
140.8086123729106873
 20
67.6394646788097447
 30
0.0
 11
141.4752790395773445
 21
67.6394646788097447
 31
0.0
  0
LINE
  5
F0
100
AcDbEntity
100
AcDbLine
  8
Filament Guide Bottom Text
 62
256
370
-1
  6
ByLayer
 10
141.0308345951329159
 20
68.3061313454764161
 30
0.0
 11
141.0308345951329159
 21
66.3061313454764161
 31
0.0
  0
LINE
  5
F1
100
AcDbEntity
100
AcDbLine
  8
Filament Guide Bottom Text
 62
256
370
-1
  6
ByLayer
 10
142.1419457062440301
 20
67.1950202343652876
 30
0.0
 11
142.1419457062440301
 21
66.7505757899208447
 31
0.0
  0
ARC
  5
F2
100
AcDbEntity
  8
Filament Guide Bottom Text
 62
256
370
-1
  6
ByLayer
100
AcDbCircle
 10
142.5863901506884872
 20
66.7505757899208447
 30
0.0
 40
0.4444444444444444
100
AcDbArc
 50
180.0
 51
0.0
  0
LINE
  5
F3
100
AcDbEntity
100
AcDbLine
  8
Filament Guide Bottom Text
 62
256
370
-1
  6
ByLayer
 10
143.0308345951329159
 20
66.7505757899208447
 30
0.0
 11
143.0308345951329159
 21
67.1950202343652876
 31
0.0
  0
ARC
  5
F4
100
AcDbEntity
  8
Filament Guide Bottom Text
 62
256
370
-1
  6
ByLayer
100
AcDbCircle
 10
142.5863901506884872
 20
67.1950202343652876
 30
0.0
 40
0.4444444444444444
100
AcDbArc
 50
0.0
 51
180.0
  0
LINE
  5
F5
100
AcDbEntity
100
AcDbLine
  8
Filament Guide Bottom Text
 62
256
370
-1
  6
ByLayer
 10
143.6975012617995731
 20
66.3061313454764019
 30
0.0
 11
143.6975012617995731
 21
67.6394646788097305
 31
0.0
  0
LINE
  5
F6
100
AcDbEntity
100
AcDbLine
  8
Filament Guide Bottom Text
 62
256
370
-1
  6
ByLayer
 10
143.6975012617995731
 20
67.6394646788097305
 30
0.0
 11
144.6975012617995731
 21
67.6394646788097305
 31
0.0
  0
ARC
  5
F7
100
AcDbEntity
  8
Filament Guide Bottom Text
 62
256
370
-1
  6
ByLayer
100
AcDbCircle
 10
144.6975012617995731
 20
67.3061313454764019
 30
0.0
 40
0.3333333333333333
100
AcDbArc
 50
0.0
 51
90.0
  0
LINE
  5
F8
100
AcDbEntity
100
AcDbLine
  8
Filament Guide Bottom Text
 62
256
370
-1
  6
ByLayer
 10
145.0308345951329443
 20
67.3061313454764019
 30
0.0
 11
145.0308345951329443
 21
66.3061313454764019
 31
0.0
  0
LINE
  5
F9
100
AcDbEntity
100
AcDbLine
  8
Filament Guide Bottom Text
 62
256
370
-1
  6
ByLayer
 10
144.3641679284662587
 20
67.6394646788097305
 30
0.0
 11
144.3641679284662587
 21
66.3061313454764019
 31
0.0
  0
CIRCLE
  5
FA
100
AcDbEntity
100
AcDbCircle
  8
Filament Guide Bottom
 62
256
370
-1
  6
ByLayer
 10
100.0
 20
8.0000000000000036
 30
0.0
 40
1.5
  0
CIRCLE
  5
FB
100
AcDbEntity
100
AcDbCircle
  8
Filament Guide Bottom
 62
256
370
-1
  6
ByLayer
 10
100.0
 20
72.4000000000000057
 30
0.0
 40
1.5
  0
CIRCLE
  5
FC
100
AcDbEntity
100
AcDbCircle
  8
Filament Guide Bottom
 62
256
370
-1
  6
ByLayer
 10
162.1500000000000057
 20
72.4000000000000057
 30
0.0
 40
1.5
  0
CIRCLE
  5
FD
100
AcDbEntity
100
AcDbCircle
  8
Filament Guide Bottom
 62
256
370
-1
  6
ByLayer
 10
162.1500000000000057
 20
7.9999999999999858
 30
0.0
 40
1.5
  0
CIRCLE
  5
FE
100
AcDbEntity
100
AcDbCircle
  8
Filament Guide Bottom
 62
256
370
-1
  6
ByLayer
 10
107.0000000000000142
 20
48.9233683548743699
 30
0.0
 40
1.5
  0
CIRCLE
  5
FF
100
AcDbEntity
100
AcDbCircle
  8
Filament Guide Bottom
 62
256
370
-1
  6
ByLayer
 10
99.25
 20
35.4999745962155586
 30
0.0
 40
1.5
  0
CIRCLE
  5
100
100
AcDbEntity
100
AcDbCircle
  8
Filament Guide Bottom
 62
256
370
-1
  6
ByLayer
 10
107.0000000000000142
 20
22.0765808375567651
 30
0.0
 40
1.5
  0
MTEXT
  5
101
100
AcDbEntity
100
AcDbMText
  8
Filament Guide Bottom Text
 62
256
370
-1
  6
ByLayer
 10
94.0
 20
74.5000000000000142
 30
0.0
 40
4.0
 41
100.0
 71
1
 72
2
  1
3
  7
standard
 50
0.0
 73
0
 44
1.0
  0
ARC
  5
102
100
AcDbEntity
  8
Filament Guide Top
 62
256
370
-1
  6
ByLayer
100
AcDbCircle
 10
255.0
 20
72.5
 30
0.0
 40
5.0
100
AcDbArc
 50
0.0
 51
90.0
  0
LINE
  5
103
100
AcDbEntity
100
AcDbLine
  8
Filament Guide Top
 62
256
370
-1
  6
ByLayer
 10
185.0
 20
77.5
 30
0.0
 11
255.0
 21
77.5
 31
0.0
  0
ARC
  5
104
100
AcDbEntity
  8
Filament Guide Top
 62
256
370
-1
  6
ByLayer
100
AcDbCircle
 10
185.0
 20
72.5
 30
0.0
 40
5.0
100
AcDbArc
 50
90.0
 51
180.0
  0
LINE
  5
105
100
AcDbEntity
100
AcDbLine
  8
Filament Guide Top
 62
256
370
-1
  6
ByLayer
 10
222.4249999999999829
 20
9.3000000000000185
 30
0.0
 11
225.3249999999999602
 21
9.3000000000000149
 31
0.0
  0
LINE
  5
106
100
AcDbEntity
100
AcDbLine
  8
Filament Guide Top
 62
256
370
-1
  6
ByLayer
 10
225.3249999999999602
 20
9.3000000000000149
 30
0.0
 11
225.3249999999999886
 21
7.0000000000000213
 31
0.0
  0
LINE
  5
107
100
AcDbEntity
100
AcDbLine
  8
Filament Guide Top
 62
256
370
-1
  6
ByLayer
 10
225.3249999999999886
 20
7.0000000000000213
 30
0.0
 11
222.4249999999999829
 21
7.0000000000000213
 31
0.0
  0
LINE
  5
108
100
AcDbEntity
100
AcDbLine
  8
Filament Guide Top
 62
256
370
-1
  6
ByLayer
 10
222.4249999999999829
 20
7.0000000000000213
 30
0.0
 11
222.4249999999999829
 21
9.3000000000000185
 31
0.0
  0
LINE
  5
109
100
AcDbEntity
100
AcDbLine
  8
Filament Guide Top
 62
256
370
-1
  6
ByLayer
 10
197.1749999999999829
 20
9.3500000000000227
 30
0.0
 11
200.0749999999999886
 21
9.3500000000000192
 31
0.0
  0
LINE
  5
10A
100
AcDbEntity
100
AcDbLine
  8
Filament Guide Top
 62
256
370
-1
  6
ByLayer
 10
200.0749999999999886
 20
9.3500000000000192
 30
0.0
 11
200.0749999999999886
 21
7.0000000000000213
 31
0.0
  0
LINE
  5
10B
100
AcDbEntity
100
AcDbLine
  8
Filament Guide Top
 62
256
370
-1
  6
ByLayer
 10
200.0749999999999886
 20
7.0000000000000213
 30
0.0
 11
197.1749999999999829
 21
7.0000000000000213
 31
0.0
  0
LINE
  5
10C
100
AcDbEntity
100
AcDbLine
  8
Filament Guide Top
 62
256
370
-1
  6
ByLayer
 10
197.1749999999999829
 20
7.0000000000000213
 30
0.0
 11
197.1749999999999829
 21
9.3500000000000227
 31
0.0
  0
ARC
  5
10D
100
AcDbEntity
  8
Filament Guide Top
 62
256
370
-1
  6
ByLayer
100
AcDbCircle
 10
234.625
 20
35.4999745962155728
 30
0.0
 40
21.0
100
AcDbArc
 50
270.0
 51
90.0
  0
LINE
  5
10E
100
AcDbEntity
100
AcDbLine
  8
Filament Guide Top
 62
256
370
-1
  6
ByLayer
 10
260.0
 20
2.4999999999999716
 30
0.0
 11
179.9999999999999716
 21
2.5000000000000284
 31
0.0
  0
LINE
  5
10F
100
AcDbEntity
100
AcDbLine
  8
Filament Guide Top
 62
256
370
-1
  6
ByLayer
 10
179.9999999999999716
 20
2.5000000000000284
 30
0.0
 11
180.0
 21
72.5
 31
0.0
  0
LINE
  5
110
100
AcDbEntity
100
AcDbLine
  8
Filament Guide Top
 62
256
370
-1
  6
ByLayer
 10
260.0
 20
72.5
 30
0.0
 11
260.0
 21
2.4999999999999716
 31
0.0
  0
ARC
  5
111
100
AcDbEntity
  8
Filament Guide Top
 62
256
370
-1
  6
ByLayer
100
AcDbCircle
 10
232.0749999999999886
 20
35.499974596215587
 30
0.0
 40
21.0
100
AcDbArc
 50
90.0
 51
165.8507993871828319
  0
ARC
  5
112
100
AcDbEntity
  8
Filament Guide Top
 62
256
370
-1
  6
ByLayer
100
AcDbCircle
 10
204.7499999999999716
 20
35.4999745962155941
 30
0.0
 40
8.6500000000000004
100
AcDbArc
 50
36.4027129460891601
 51
323.5972870539108612
  0
ARC
  5
113
100
AcDbEntity
  8
Filament Guide Top
 62
256
370
-1
  6
ByLayer
100
AcDbCircle
 10
232.0749999999999886
 20
35.499974596215587
 30
0.0
 40
21.0
100
AcDbArc
 50
194.1492006128171397
 51
270.0
  0
LINE
  5
114
100
AcDbEntity
100
AcDbLine
  8
Filament Guide Top
 62
256
370
-1
  6
ByLayer
 10
232.0749999999999886
 20
56.499974596215587
 30
0.0
 11
234.6250000000000284
 21
56.4999745962155799
 31
0.0
  0
LINE
  5
115
100
AcDbEntity
100
AcDbLine
  8
Filament Guide Top
 62
256
370
-1
  6
ByLayer
 10
232.0749999999999886
 20
14.4999745962155835
 30
0.0
 11
234.625
 21
14.4999745962155906
 31
0.0
  0
LINE
  5
116
100
AcDbEntity
100
AcDbLine
  8
Filament Guide Top Text
 62
256
370
-1
  6
ByLayer
 10
209.0792131099220512
 20
68.0335812840588403
 30
0.0
 11
208.1903242210331655
 21
68.0335812840588403
 31
0.0
  0
LINE
  5
117
100
AcDbEntity
100
AcDbLine
  8
Filament Guide Top Text
 62
256
370
-1
  6
ByLayer
 10
208.1903242210331655
 20
68.0335812840588403
 30
0.0
 11
208.1903242210331655
 21
66.0335812840588403
 31
0.0
  0
LINE
  5
118
100
AcDbEntity
100
AcDbLine
  8
Filament Guide Top Text
 62
256
370
-1
  6
ByLayer
 10
208.1903242210331655
 20
67.1446923951699546
 30
0.0
 11
209.0792131099220512
 21
67.1446923951699546
 31
0.0
  0
LINE
  5
119
100
AcDbEntity
100
AcDbLine
  8
Filament Guide Top Text
 62
256
370
-1
  6
ByLayer
 10
209.7458797765887368
 20
66.0335812840588119
 30
0.0
 11
209.7458797765887368
 21
67.3669146173921263
 31
0.0
  0
LINE
  5
11A
100
AcDbEntity
100
AcDbLine
  8
Filament Guide Top Text
 62
256
370
-1
  6
ByLayer
 10
209.7458797765887368
 20
67.9224701729476976
 30
0.0
 11
209.7458797765887084
 21
68.0335812840588119
 31
0.0
  0
LINE
  5
11B
100
AcDbEntity
100
AcDbLine
  8
Filament Guide Top Text
 62
256
370
-1
  6
ByLayer
 10
210.412546443255394
 20
68.0335812840588261
 30
0.0
 11
210.412546443255394
 21
66.2558035062810404
 31
0.0
  0
ARC
  5
11C
100
AcDbEntity
  8
Filament Guide Top Text
 62
256
370
-1
  6
ByLayer
100
AcDbCircle
 10
210.6347686654776226
 20
66.2558035062810404
 30
0.0
 40
0.2222222222222222
100
AcDbArc
 50
180.0
 51
270.0
  0
LINE
  5
11D
100
AcDbEntity
100
AcDbLine
  8
Filament Guide Top Text
 62
256
370
-1
  6
ByLayer
 10
211.412546443255394
 20
67.3669146173921547
 30
0.0
 11
211.8569908876998227
 21
67.3669146173921405
 31
0.0
  0
ARC
  5
11E
100
AcDbEntity
  8
Filament Guide Top Text
 62
256
370
-1
  6
ByLayer
100
AcDbCircle
 10
211.8569908876998511
 20
67.0335812840588119
 30
0.0
 40
0.3333333333333333
100
AcDbArc
 50
0.0
 51
90.0
  0
LINE
  5
11F
100
AcDbEntity
100
AcDbLine
  8
Filament Guide Top Text
 62
256
370
-1
  6
ByLayer
 10
212.1903242210331655
 20
67.0335812840588119
 30
0.0
 11
212.1903242210331655
 21
66.0335812840588261
 31
0.0
  0
LINE
  5
120
100
AcDbEntity
100
AcDbLine
  8
Filament Guide Top Text
 62
256
370
-1
  6
ByLayer
 10
212.1903242210331655
 20
66.0335812840588261
 30
0.0
 11
211.6347686654776226
 21
66.0335812840588261
 31
0.0
  0
ARC
  5
121
100
AcDbEntity
  8
Filament Guide Top Text
 62
256
370
-1
  6
ByLayer
100
AcDbCircle
 10
211.6347686654776226
 20
66.3669146173921547
 30
0.0
 40
0.3333333333333333
100
AcDbArc
 50
90.0
 51
270.0
  0
LINE
  5
122
100
AcDbEntity
100
AcDbLine
  8
Filament Guide Top Text
 62
256
370
-1
  6
ByLayer
 10
211.6347686654776226
 20
66.7002479507254833
 30
0.0
 11
212.1903242210331655
 21
66.7002479507254833
 31
0.0
  0
LINE
  5
123
100
AcDbEntity
100
AcDbLine
  8
Filament Guide Top Text
 62
256
370
-1
  6
ByLayer
 10
212.8569908876998511
 20
66.0335812840588119
 30
0.0
 11
212.8569908876998511
 21
67.3669146173921547
 31
0.0
  0
LINE
  5
124
100
AcDbEntity
100
AcDbLine
  8
Filament Guide Top Text
 62
256
370
-1
  6
ByLayer
 10
212.8569908876998511
 20
67.3669146173921547
 30
0.0
 11
213.8569908876998511
 21
67.3669146173921547
 31
0.0
  0
ARC
  5
125
100
AcDbEntity
  8
Filament Guide Top Text
 62
256
370
-1
  6
ByLayer
100
AcDbCircle
 10
213.8569908876998227
 20
67.0335812840588119
 30
0.0
 40
0.3333333333333333
100
AcDbArc
 50
0.0
 51
90.0
  0
LINE
  5
126
100
AcDbEntity
100
AcDbLine
  8
Filament Guide Top Text
 62
256
370
-1
  6
ByLayer
 10
214.1903242210331655
 20
67.0335812840588261
 30
0.0
 11
214.1903242210331655
 21
66.0335812840588119
 31
0.0
  0
LINE
  5
127
100
AcDbEntity
100
AcDbLine
  8
Filament Guide Top Text
 62
256
370
-1
  6
ByLayer
 10
213.5236575543665083
 20
67.3669146173921547
 30
0.0
 11
213.5236575543665083
 21
66.0335812840588119
 31
0.0
  0
LINE
  5
128
100
AcDbEntity
100
AcDbLine
  8
Filament Guide Top Text
 62
256
370
-1
  6
ByLayer
 10
214.8569908876998511
 20
66.7002479507254975
 30
0.0
 11
215.7458797765887084
 21
66.7002479507254833
 31
0.0
  0
LINE
  5
129
100
AcDbEntity
100
AcDbLine
  8
Filament Guide Top Text
 62
256
370
-1
  6
ByLayer
 10
215.7458797765887084
 20
66.7002479507254833
 30
0.0
 11
215.7458797765887084
 21
66.9224701729476976
 31
0.0
  0
ARC
  5
12A
100
AcDbEntity
  8
Filament Guide Top Text
 62
256
370
-1
  6
ByLayer
100
AcDbCircle
 10
215.3014353321442798
 20
66.9224701729476976
 30
0.0
 40
0.4444444444444444
100
AcDbArc
 50
0.0
 51
180.0
  0
LINE
  5
12B
100
AcDbEntity
100
AcDbLine
  8
Filament Guide Top Text
 62
256
370
-1
  6
ByLayer
 10
214.8569908876998227
 20
66.9224701729477118
 30
0.0
 11
214.8569908876998227
 21
66.3669146173921547
 31
0.0
  0
ARC
  5
12C
100
AcDbEntity
  8
Filament Guide Top Text
 62
256
370
-1
  6
ByLayer
100
AcDbCircle
 10
215.1903242210331655
 20
66.3669146173921547
 30
0.0
 40
0.3333333333333333
100
AcDbArc
 50
180.0
 51
270.0
  0
LINE
  5
12D
100
AcDbEntity
100
AcDbLine
  8
Filament Guide Top Text
 62
256
370
-1
  6
ByLayer
 10
215.1903242210331655
 20
66.0335812840588119
 30
0.0
 11
215.7458797765887368
 21
66.0335812840588261
 31
0.0
  0
LINE
  5
12E
100
AcDbEntity
100
AcDbLine
  8
Filament Guide Top Text
 62
256
370
-1
  6
ByLayer
 10
216.412546443255394
 20
66.0335812840588119
 30
0.0
 11
216.412546443255394
 21
67.3669146173921405
 31
0.0
  0
LINE
  5
12F
100
AcDbEntity
100
AcDbLine
  8
Filament Guide Top Text
 62
256
370
-1
  6
ByLayer
 10
216.412546443255394
 20
67.3669146173921405
 30
0.0
 11
216.9681019988109369
 21
67.3669146173921547
 31
0.0
  0
ARC
  5
130
100
AcDbEntity
  8
Filament Guide Top Text
 62
256
370
-1
  6
ByLayer
100
AcDbCircle
 10
216.9681019988109369
 20
67.0335812840588261
 30
0.0
 40
0.3333333333333333
100
AcDbArc
 50
0.0
 51
90.0
  0
LINE
  5
131
100
AcDbEntity
100
AcDbLine
  8
Filament Guide Top Text
 62
256
370
-1
  6
ByLayer
 10
217.3014353321442798
 20
67.0335812840588261
 30
0.0
 11
217.3014353321442798
 21
66.0335812840588119
 31
0.0
  0
LINE
  5
132
100
AcDbEntity
100
AcDbLine
  8
Filament Guide Top Text
 62
256
370
-1
  6
ByLayer
 10
217.9681019988109369
 20
67.3669146173921547
 30
0.0
 11
218.6347686654775941
 21
67.3669146173921547
 31
0.0
  0
LINE
  5
133
100
AcDbEntity
100
AcDbLine
  8
Filament Guide Top Text
 62
256
370
-1
  6
ByLayer
 10
218.1903242210331655
 20
68.0335812840588119
 30
0.0
 11
218.1903242210331655
 21
66.0335812840588119
 31
0.0
  0
LINE
  5
134
100
AcDbEntity
100
AcDbLine
  8
Filament Guide Top Text
 62
256
370
-1
  6
ByLayer
 10
221.912546443255394
 20
68.0335812840588261
 30
0.0
 11
221.2458797765887084
 21
68.0335812840588261
 31
0.0
  0
ARC
  5
135
100
AcDbEntity
  8
Filament Guide Top Text
 62
256
370
-1
  6
ByLayer
100
AcDbCircle
 10
221.2458797765887368
 20
67.5891368396143832
 30
0.0
 40
0.4444444444444444
100
AcDbArc
 50
90.0
 51
180.0
  0
LINE
  5
136
100
AcDbEntity
100
AcDbLine
  8
Filament Guide Top Text
 62
256
370
-1
  6
ByLayer
 10
220.8014353321442798
 20
67.589136839614369
 30
0.0
 11
220.8014353321442798
 21
66.478025728503269
 31
0.0
  0
ARC
  5
137
100
AcDbEntity
  8
Filament Guide Top Text
 62
256
370
-1
  6
ByLayer
100
AcDbCircle
 10
221.2458797765887084
 20
66.478025728503269
 30
0.0
 40
0.4444444444444444
100
AcDbArc
 50
180.0
 51
270.0
  0
LINE
  5
138
100
AcDbEntity
100
AcDbLine
  8
Filament Guide Top Text
 62
256
370
-1
  6
ByLayer
 10
221.2458797765887084
 20
66.0335812840588261
 30
0.0
 11
221.912546443255394
 21
66.0335812840588119
 31
0.0
  0
LINE
  5
139
100
AcDbEntity
100
AcDbLine
  8
Filament Guide Top Text
 62
256
370
-1
  6
ByLayer
 10
221.912546443255394
 20
66.0335812840588119
 30
0.0
 11
221.912546443255394
 21
67.1446923951699262
 31
0.0
  0
LINE
  5
13A
100
AcDbEntity
100
AcDbLine
  8
Filament Guide Top Text
 62
256
370
-1
  6
ByLayer
 10
221.912546443255394
 20
67.1446923951699262
 30
0.0
 11
221.5792131099220512
 21
67.1446923951699404
 31
0.0
  0
LINE
  5
13B
100
AcDbEntity
100
AcDbLine
  8
Filament Guide Top Text
 62
256
370
-1
  6
ByLayer
 10
222.5792131099220512
 20
67.3669146173921547
 30
0.0
 11
222.5792131099220512
 21
66.3669146173921547
 31
0.0
  0
ARC
  5
13C
100
AcDbEntity
  8
Filament Guide Top Text
 62
256
370
-1
  6
ByLayer
100
AcDbCircle
 10
222.912546443255394
 20
66.3669146173921547
 30
0.0
 40
0.3333333333333333
100
AcDbArc
 50
180.0
 51
270.0
  0
LINE
  5
13D
100
AcDbEntity
100
AcDbLine
  8
Filament Guide Top Text
 62
256
370
-1
  6
ByLayer
 10
222.912546443255394
 20
66.0335812840588261
 30
0.0
 11
223.4681019988109369
 21
66.0335812840588119
 31
0.0
  0
LINE
  5
13E
100
AcDbEntity
100
AcDbLine
  8
Filament Guide Top Text
 62
256
370
-1
  6
ByLayer
 10
223.4681019988109369
 20
66.0335812840588119
 30
0.0
 11
223.4681019988109369
 21
67.3669146173921547
 31
0.0
  0
LINE
  5
13F
100
AcDbEntity
100
AcDbLine
  8
Filament Guide Top Text
 62
256
370
-1
  6
ByLayer
 10
224.1347686654776226
 20
66.0335812840588119
 30
0.0
 11
224.1347686654776226
 21
67.3669146173921547
 31
0.0
  0
LINE
  5
140
100
AcDbEntity
100
AcDbLine
  8
Filament Guide Top Text
 62
256
370
-1
  6
ByLayer
 10
224.1347686654776226
 20
67.9224701729476976
 30
0.0
 11
224.1347686654776226
 21
68.0335812840588119
 31
0.0
  0
LINE
  5
141
100
AcDbEntity
100
AcDbLine
  8
Filament Guide Top Text
 62
256
370
-1
  6
ByLayer
 10
225.6903242210331655
 20
68.0335812840588119
 30
0.0
 11
225.6903242210331655
 21
66.0335812840588261
 31
0.0
  0
LINE
  5
142
100
AcDbEntity
100
AcDbLine
  8
Filament Guide Top Text
 62
256
370
-1
  6
ByLayer
 10
225.6903242210331655
 20
66.0335812840588261
 30
0.0
 11
225.1347686654776226
 21
66.0335812840588119
 31
0.0
  0
ARC
  5
143
100
AcDbEntity
  8
Filament Guide Top Text
 62
256
370
-1
  6
ByLayer
100
AcDbCircle
 10
225.1347686654776226
 20
66.3669146173921547
 30
0.0
 40
0.3333333333333333
100
AcDbArc
 50
180.0
 51
270.0
  0
LINE
  5
144
100
AcDbEntity
100
AcDbLine
  8
Filament Guide Top Text
 62
256
370
-1
  6
ByLayer
 10
224.8014353321442798
 20
66.3669146173921547
 30
0.0
 11
224.8014353321442798
 21
67.0335812840588119
 31
0.0
  0
ARC
  5
145
100
AcDbEntity
  8
Filament Guide Top Text
 62
256
370
-1
  6
ByLayer
100
AcDbCircle
 10
225.1347686654776226
 20
67.0335812840588119
 30
0.0
 40
0.3333333333333333
100
AcDbArc
 50
90.0
 51
180.0
  0
LINE
  5
146
100
AcDbEntity
100
AcDbLine
  8
Filament Guide Top Text
 62
256
370
-1
  6
ByLayer
 10
225.1347686654776226
 20
67.3669146173921547
 30
0.0
 11
225.6903242210331655
 21
67.3669146173921547
 31
0.0
  0
LINE
  5
147
100
AcDbEntity
100
AcDbLine
  8
Filament Guide Top Text
 62
256
370
-1
  6
ByLayer
 10
226.3569908876998511
 20
66.7002479507254833
 30
0.0
 11
227.2458797765887084
 21
66.7002479507254975
 31
0.0
  0
LINE
  5
148
100
AcDbEntity
100
AcDbLine
  8
Filament Guide Top Text
 62
256
370
-1
  6
ByLayer
 10
227.2458797765887084
 20
66.7002479507254975
 30
0.0
 11
227.2458797765887084
 21
66.9224701729477118
 31
0.0
  0
ARC
  5
149
100
AcDbEntity
  8
Filament Guide Top Text
 62
256
370
-1
  6
ByLayer
100
AcDbCircle
 10
226.8014353321442798
 20
66.9224701729476976
 30
0.0
 40
0.4444444444444444
100
AcDbArc
 50
0.0
 51
180.0
  0
LINE
  5
14A
100
AcDbEntity
100
AcDbLine
  8
Filament Guide Top Text
 62
256
370
-1
  6
ByLayer
 10
226.3569908876998511
 20
66.9224701729477118
 30
0.0
 11
226.3569908876998511
 21
66.3669146173921547
 31
0.0
  0
ARC
  5
14B
100
AcDbEntity
  8
Filament Guide Top Text
 62
256
370
-1
  6
ByLayer
100
AcDbCircle
 10
226.6903242210331655
 20
66.3669146173921547
 30
0.0
 40
0.3333333333333333
100
AcDbArc
 50
180.0
 51
270.0
  0
LINE
  5
14C
100
AcDbEntity
100
AcDbLine
  8
Filament Guide Top Text
 62
256
370
-1
  6
ByLayer
 10
226.6903242210331655
 20
66.0335812840588261
 30
0.0
 11
227.2458797765887368
 21
66.0335812840588119
 31
0.0
  0
LINE
  5
14D
100
AcDbEntity
100
AcDbLine
  8
Filament Guide Top Text
 62
256
370
-1
  6
ByLayer
 10
229.412546443255394
 20
68.0335812840588119
 30
0.0
 11
230.7458797765887084
 21
68.0335812840588119
 31
0.0
  0
LINE
  5
14E
100
AcDbEntity
100
AcDbLine
  8
Filament Guide Top Text
 62
256
370
-1
  6
ByLayer
 10
230.0792131099220512
 20
68.0335812840588119
 30
0.0
 11
230.0792131099220512
 21
66.0335812840588119
 31
0.0
  0
LINE
  5
14F
100
AcDbEntity
100
AcDbLine
  8
Filament Guide Top Text
 62
256
370
-1
  6
ByLayer
 10
231.412546443255394
 20
66.9224701729476976
 30
0.0
 11
231.412546443255394
 21
66.4780257285032405
 31
0.0
  0
ARC
  5
150
100
AcDbEntity
  8
Filament Guide Top Text
 62
256
370
-1
  6
ByLayer
100
AcDbCircle
 10
231.8569908876998227
 20
66.4780257285032405
 30
0.0
 40
0.4444444444444444
100
AcDbArc
 50
180.0
 51
0.0
  0
LINE
  5
151
100
AcDbEntity
100
AcDbLine
  8
Filament Guide Top Text
 62
256
370
-1
  6
ByLayer
 10
232.3014353321442798
 20
66.4780257285032405
 30
0.0
 11
232.3014353321442798
 21
66.9224701729476976
 31
0.0
  0
ARC
  5
152
100
AcDbEntity
  8
Filament Guide Top Text
 62
256
370
-1
  6
ByLayer
100
AcDbCircle
 10
231.8569908876998227
 20
66.9224701729476976
 30
0.0
 40
0.4444444444444444
100
AcDbArc
 50
0.0
 51
180.0
  0
LINE
  5
153
100
AcDbEntity
100
AcDbLine
  8
Filament Guide Top Text
 62
256
370
-1
  6
ByLayer
 10
232.9681019988109369
 20
66.0335812840588119
 30
0.0
 11
233.5236575543665083
 21
66.0335812840588261
 31
0.0
  0
ARC
  5
154
100
AcDbEntity
  8
Filament Guide Top Text
 62
256
370
-1
  6
ByLayer
100
AcDbCircle
 10
233.5236575543665083
 20
66.3669146173921547
 30
0.0
 40
0.3333333333333333
100
AcDbArc
 50
270.0
 51
0.0
  0
LINE
  5
155
100
AcDbEntity
100
AcDbLine
  8
Filament Guide Top Text
 62
256
370
-1
  6
ByLayer
 10
233.8569908876998227
 20
66.3669146173921547
 30
0.0
 11
233.8569908876998227
 21
67.0335812840588119
 31
0.0
  0
ARC
  5
156
100
AcDbEntity
  8
Filament Guide Top Text
 62
256
370
-1
  6
ByLayer
100
AcDbCircle
 10
233.5236575543665083
 20
67.0335812840588119
 30
0.0
 40
0.3333333333333333
100
AcDbArc
 50
0.0
 51
90.0
  0
LINE
  5
157
100
AcDbEntity
100
AcDbLine
  8
Filament Guide Top Text
 62
256
370
-1
  6
ByLayer
 10
233.5236575543665083
 20
67.3669146173921547
 30
0.0
 11
232.9681019988109369
 21
67.3669146173921547
 31
0.0
  0
LINE
  5
158
100
AcDbEntity
100
AcDbLine
  8
Filament Guide Top Text
 62
256
370
-1
  6
ByLayer
 10
232.9681019988109369
 20
67.3669146173921547
 30
0.0
 11
232.9681019988109369
 21
65.3669146173921547
 31
0.0
  0
CIRCLE
  5
159
100
AcDbEntity
100
AcDbCircle
  8
Filament Guide Top
 62
256
370
-1
  6
ByLayer
 10
190.0
 20
8.0000000000000036
 30
0.0
 40
1.5
  0
CIRCLE
  5
15A
100
AcDbEntity
100
AcDbCircle
  8
Filament Guide Top
 62
256
370
-1
  6
ByLayer
 10
190.0
 20
72.4000000000000199
 30
0.0
 40
1.5
  0
CIRCLE
  5
15B
100
AcDbEntity
100
AcDbCircle
  8
Filament Guide Top
 62
256
370
-1
  6
ByLayer
 10
252.1500000000000057
 20
72.4000000000000057
 30
0.0
 40
1.5
  0
CIRCLE
  5
15C
100
AcDbEntity
100
AcDbCircle
  8
Filament Guide Top
 62
256
370
-1
  6
ByLayer
 10
252.1500000000000057
 20
7.9999999999999787
 30
0.0
 40
1.5
  0
CIRCLE
  5
15D
100
AcDbEntity
100
AcDbCircle
  8
Filament Guide Top
 62
256
370
-1
  6
ByLayer
 10
197.0
 20
48.9233683548743912
 30
0.0
 40
1.5
  0
CIRCLE
  5
15E
100
AcDbEntity
100
AcDbCircle
  8
Filament Guide Top
 62
256
370
-1
  6
ByLayer
 10
189.25
 20
35.4999745962155799
 30
0.0
 40
1.5
  0
CIRCLE
  5
15F
100
AcDbEntity
100
AcDbCircle
  8
Filament Guide Top
 62
256
370
-1
  6
ByLayer
 10
197.0
 20
22.0765808375567865
 30
0.0
 40
1.5
  0
MTEXT
  5
160
100
AcDbEntity
100
AcDbMText
  8
Filament Guide Top Text
 62
256
370
-1
  6
ByLayer
 10
184.0
 20
74.5000000000000284
 30
0.0
 40
4.0
 41
100.0
 71
1
 72
2
  1
5
  7
standard
 50
0.0
 73
0
 44
1.0
  0
ARC
  5
161
100
AcDbEntity
  8
Retainer Plate
 62
256
370
-1
  6
ByLayer
100
AcDbCircle
 10
345.0
 20
72.5
 30
0.0
 40
5.0
100
AcDbArc
 50
0.0
 51
90.0
  0
LINE
  5
162
100
AcDbEntity
100
AcDbLine
  8
Retainer Plate
 62
256
370
-1
  6
ByLayer
 10
275.0
 20
77.4999999999999716
 30
0.0
 11
345.0
 21
77.5
 31
0.0
  0
ARC
  5
163
100
AcDbEntity
  8
Retainer Plate
 62
256
370
-1
  6
ByLayer
100
AcDbCircle
 10
275.0
 20
72.5
 30
0.0
 40
5.0
100
AcDbArc
 50
90.0
 51
180.0
  0
ARC
  5
164
100
AcDbEntity
  8
Retainer Plate
 62
256
370
-1
  6
ByLayer
100
AcDbCircle
 10
324.625
 20
35.4999745962155657
 30
0.0
 40
4.0
100
AcDbArc
 50
270.0
 51
90.0
  0
LINE
  5
165
100
AcDbEntity
100
AcDbLine
  8
Retainer Plate
 62
256
370
-1
  6
ByLayer
 10
350.0
 20
2.4999999999999787
 30
0.0
 11
270.0
 21
2.5000000000000142
 31
0.0
  0
LINE
  5
166
100
AcDbEntity
100
AcDbLine
  8
Retainer Plate
 62
256
370
-1
  6
ByLayer
 10
270.0
 20
2.5000000000000142
 30
0.0
 11
270.0
 21
72.4999999999999858
 31
0.0
  0
LINE
  5
167
100
AcDbEntity
100
AcDbLine
  8
Retainer Plate
 62
256
370
-1
  6
ByLayer
 10
350.0
 20
72.5
 30
0.0
 11
350.0
 21
2.4999999999999787
 31
0.0
  0
LINE
  5
168
100
AcDbEntity
100
AcDbLine
  8
Retainer Plate Text
 62
256
370
-1
  6
ByLayer
 10
286.0
 20
55.4000000000000057
 30
0.0
 11
286.0
 21
57.4000000000000057
 31
0.0
  0
LINE
  5
169
100
AcDbEntity
100
AcDbLine
  8
Retainer Plate Text
 62
256
370
-1
  6
ByLayer
 10
286.0
 20
57.4000000000000057
 30
0.0
 11
286.6666666666666856
 21
57.4000000000000057
 31
0.0
  0
ARC
  5
16A
100
AcDbEntity
  8
Retainer Plate Text
 62
256
370
-1
  6
ByLayer
100
AcDbCircle
 10
286.6666666666666856
 20
56.9555555555555557
 30
0.0
 40
0.4444444444444444
100
AcDbArc
 50
0.0
 51
90.0
  0
LINE
  5
16B
100
AcDbEntity
100
AcDbLine
  8
Retainer Plate Text
 62
256
370
-1
  6
ByLayer
 10
287.1111111111110858
 20
56.9555555555555628
 30
0.0
 11
287.1111111111111427
 21
56.7333333333333414
 31
0.0
  0
ARC
  5
16C
100
AcDbEntity
  8
Retainer Plate Text
 62
256
370
-1
  6
ByLayer
100
AcDbCircle
 10
286.6666666666666856
 20
56.7333333333333485
 30
0.0
 40
0.4444444444444444
100
AcDbArc
 50
270.0
 51
0.0
  0
LINE
  5
16D
100
AcDbEntity
100
AcDbLine
  8
Retainer Plate Text
 62
256
370
-1
  6
ByLayer
 10
286.6666666666666856
 20
56.2888888888888914
 30
0.0
 11
286.0
 21
56.2888888888888914
 31
0.0
  0
LINE
  5
16E
100
AcDbEntity
100
AcDbLine
  8
Retainer Plate Text
 62
256
370
-1
  6
ByLayer
 10
286.6666666666666856
 20
56.2888888888888914
 30
0.0
 11
287.1111111111111427
 21
55.4000000000000057
 31
0.0
  0
LINE
  5
16F
100
AcDbEntity
100
AcDbLine
  8
Retainer Plate Text
 62
256
370
-1
  6
ByLayer
 10
287.7777777777777715
 20
56.06666666666667
 30
0.0
 11
288.6666666666666856
 21
56.06666666666667
 31
0.0
  0
LINE
  5
170
100
AcDbEntity
100
AcDbLine
  8
Retainer Plate Text
 62
256
370
-1
  6
ByLayer
 10
288.6666666666666856
 20
56.06666666666667
 30
0.0
 11
288.6666666666666856
 21
56.2888888888888843
 31
0.0
  0
ARC
  5
171
100
AcDbEntity
  8
Retainer Plate Text
 62
256
370
-1
  6
ByLayer
100
AcDbCircle
 10
288.2222222222222285
 20
56.2888888888888843
 30
0.0
 40
0.4444444444444444
100
AcDbArc
 50
0.0
 51
180.0
  0
LINE
  5
172
100
AcDbEntity
100
AcDbLine
  8
Retainer Plate Text
 62
256
370
-1
  6
ByLayer
 10
287.7777777777777715
 20
56.2888888888888985
 30
0.0
 11
287.7777777777777715
 21
55.7333333333333414
 31
0.0
  0
ARC
  5
173
100
AcDbEntity
  8
Retainer Plate Text
 62
256
370
-1
  6
ByLayer
100
AcDbCircle
 10
288.1111111111111427
 20
55.7333333333333414
 30
0.0
 40
0.3333333333333333
100
AcDbArc
 50
180.0
 51
270.0
  0
LINE
  5
174
100
AcDbEntity
100
AcDbLine
  8
Retainer Plate Text
 62
256
370
-1
  6
ByLayer
 10
288.1111111111110858
 20
55.3999999999999986
 30
0.0
 11
288.6666666666666856
 21
55.4000000000000057
 31
0.0
  0
LINE
  5
175
100
AcDbEntity
100
AcDbLine
  8
Retainer Plate Text
 62
256
370
-1
  6
ByLayer
 10
289.3333333333333144
 20
56.7333333333333343
 30
0.0
 11
290.0
 21
56.7333333333333485
 31
0.0
  0
LINE
  5
176
100
AcDbEntity
100
AcDbLine
  8
Retainer Plate Text
 62
256
370
-1
  6
ByLayer
 10
289.5555555555555429
 20
57.4000000000000057
 30
0.0
 11
289.5555555555555429
 21
55.4000000000000057
 31
0.0
  0
LINE
  5
177
100
AcDbEntity
100
AcDbLine
  8
Retainer Plate Text
 62
256
370
-1
  6
ByLayer
 10
290.7777777777777715
 20
56.7333333333333343
 30
0.0
 11
291.2222222222222285
 21
56.7333333333333414
 31
0.0
  0
ARC
  5
178
100
AcDbEntity
  8
Retainer Plate Text
 62
256
370
-1
  6
ByLayer
100
AcDbCircle
 10
291.2222222222222285
 20
56.4000000000000057
 30
0.0
 40
0.3333333333333333
100
AcDbArc
 50
0.0
 51
90.0
  0
LINE
  5
179
100
AcDbEntity
100
AcDbLine
  8
Retainer Plate Text
 62
256
370
-1
  6
ByLayer
 10
291.5555555555555429
 20
56.4000000000000057
 30
0.0
 11
291.5555555555555429
 21
55.4000000000000128
 31
0.0
  0
LINE
  5
17A
100
AcDbEntity
100
AcDbLine
  8
Retainer Plate Text
 62
256
370
-1
  6
ByLayer
 10
291.5555555555555429
 20
55.4000000000000128
 30
0.0
 11
291.0
 21
55.4000000000000057
 31
0.0
  0
ARC
  5
17B
100
AcDbEntity
  8
Retainer Plate Text
 62
256
370
-1
  6
ByLayer
100
AcDbCircle
 10
291.0
 20
55.7333333333333485
 30
0.0
 40
0.3333333333333333
100
AcDbArc
 50
90.0
 51
270.0
  0
LINE
  5
17C
100
AcDbEntity
100
AcDbLine
  8
Retainer Plate Text
 62
256
370
-1
  6
ByLayer
 10
291.0
 20
56.06666666666667
 30
0.0
 11
291.5555555555555429
 21
56.0666666666666771
 31
0.0
  0
LINE
  5
17D
100
AcDbEntity
100
AcDbLine
  8
Retainer Plate Text
 62
256
370
-1
  6
ByLayer
 10
292.2222222222222285
 20
55.3999999999999986
 30
0.0
 11
292.2222222222222285
 21
56.7333333333333343
 31
0.0
  0
LINE
  5
17E
100
AcDbEntity
100
AcDbLine
  8
Retainer Plate Text
 62
256
370
-1
  6
ByLayer
 10
292.2222222222222285
 20
57.2888888888888914
 30
0.0
 11
292.2222222222222285
 21
57.4000000000000057
 31
0.0
  0
LINE
  5
17F
100
AcDbEntity
100
AcDbLine
  8
Retainer Plate Text
 62
256
370
-1
  6
ByLayer
 10
292.8888888888889142
 20
55.4000000000000057
 30
0.0
 11
292.8888888888889142
 21
56.7333333333333343
 31
0.0
  0
LINE
  5
180
100
AcDbEntity
100
AcDbLine
  8
Retainer Plate Text
 62
256
370
-1
  6
ByLayer
 10
292.8888888888889142
 20
56.7333333333333343
 30
0.0
 11
293.4444444444444571
 21
56.7333333333333414
 31
0.0
  0
ARC
  5
181
100
AcDbEntity
  8
Retainer Plate Text
 62
256
370
-1
  6
ByLayer
100
AcDbCircle
 10
293.4444444444444571
 20
56.4000000000000057
 30
0.0
 40
0.3333333333333333
100
AcDbArc
 50
0.0
 51
90.0
  0
LINE
  5
182
100
AcDbEntity
100
AcDbLine
  8
Retainer Plate Text
 62
256
370
-1
  6
ByLayer
 10
293.7777777777777715
 20
56.4000000000000057
 30
0.0
 11
293.7777777777777715
 21
55.4000000000000057
 31
0.0
  0
LINE
  5
183
100
AcDbEntity
100
AcDbLine
  8
Retainer Plate Text
 62
256
370
-1
  6
ByLayer
 10
294.4444444444444571
 20
56.0666666666666629
 30
0.0
 11
295.3333333333333144
 21
56.0666666666666629
 31
0.0
  0
LINE
  5
184
100
AcDbEntity
100
AcDbLine
  8
Retainer Plate Text
 62
256
370
-1
  6
ByLayer
 10
295.3333333333333144
 20
56.0666666666666629
 30
0.0
 11
295.3333333333333144
 21
56.2888888888888843
 31
0.0
  0
ARC
  5
185
100
AcDbEntity
  8
Retainer Plate Text
 62
256
370
-1
  6
ByLayer
100
AcDbCircle
 10
294.8888888888889142
 20
56.2888888888888843
 30
0.0
 40
0.4444444444444444
100
AcDbArc
 50
0.0
 51
180.0
  0
LINE
  5
186
100
AcDbEntity
100
AcDbLine
  8
Retainer Plate Text
 62
256
370
-1
  6
ByLayer
 10
294.4444444444444571
 20
56.2888888888888772
 30
0.0
 11
294.4444444444444571
 21
55.7333333333333343
 31
0.0
  0
ARC
  5
187
100
AcDbEntity
  8
Retainer Plate Text
 62
256
370
-1
  6
ByLayer
100
AcDbCircle
 10
294.7777777777777715
 20
55.7333333333333343
 30
0.0
 40
0.3333333333333333
100
AcDbArc
 50
180.0
 51
270.0
  0
LINE
  5
188
100
AcDbEntity
100
AcDbLine
  8
Retainer Plate Text
 62
256
370
-1
  6
ByLayer
 10
294.7777777777777715
 20
55.3999999999999986
 30
0.0
 11
295.3333333333333144
 21
55.3999999999999986
 31
0.0
  0
LINE
  5
189
100
AcDbEntity
100
AcDbLine
  8
Retainer Plate Text
 62
256
370
-1
  6
ByLayer
 10
296.0
 20
55.4000000000000057
 30
0.0
 11
296.0
 21
56.7333333333333414
 31
0.0
  0
LINE
  5
18A
100
AcDbEntity
100
AcDbLine
  8
Retainer Plate Text
 62
256
370
-1
  6
ByLayer
 10
296.0
 20
56.7333333333333414
 30
0.0
 11
296.4444444444444571
 21
56.7333333333333414
 31
0.0
  0
ARC
  5
18B
100
AcDbEntity
  8
Retainer Plate Text
 62
256
370
-1
  6
ByLayer
100
AcDbCircle
 10
296.4444444444444571
 20
56.51111111111112
 30
0.0
 40
0.2222222222222222
100
AcDbArc
 50
0.0
 51
90.0
  0
LINE
  5
18C
100
AcDbEntity
100
AcDbLine
  8
Retainer Plate Text
 62
256
370
-1
  6
ByLayer
 10
298.8333333333333144
 20
55.4000000000000057
 30
0.0
 11
298.8333333333333712
 21
57.4000000000000128
 31
0.0
  0
LINE
  5
18D
100
AcDbEntity
100
AcDbLine
  8
Retainer Plate Text
 62
256
370
-1
  6
ByLayer
 10
298.8333333333333712
 20
57.4000000000000128
 30
0.0
 11
299.5
 21
57.4000000000000057
 31
0.0
  0
ARC
  5
18E
100
AcDbEntity
  8
Retainer Plate Text
 62
256
370
-1
  6
ByLayer
100
AcDbCircle
 10
299.5
 20
56.955555555555577
 30
0.0
 40
0.4444444444444444
100
AcDbArc
 50
0.0
 51
90.0
  0
LINE
  5
18F
100
AcDbEntity
100
AcDbLine
  8
Retainer Plate Text
 62
256
370
-1
  6
ByLayer
 10
299.9444444444444571
 20
56.955555555555577
 30
0.0
 11
299.9444444444444571
 21
56.7333333333333485
 31
0.0
  0
ARC
  5
190
100
AcDbEntity
  8
Retainer Plate Text
 62
256
370
-1
  6
ByLayer
100
AcDbCircle
 10
299.5
 20
56.7333333333333485
 30
0.0
 40
0.4444444444444444
100
AcDbArc
 50
270.0
 51
0.0
  0
LINE
  5
191
100
AcDbEntity
100
AcDbLine
  8
Retainer Plate Text
 62
256
370
-1
  6
ByLayer
 10
299.5
 20
56.2888888888888985
 30
0.0
 11
298.8333333333333144
 21
56.2888888888889056
 31
0.0
  0
LINE
  5
192
100
AcDbEntity
100
AcDbLine
  8
Retainer Plate Text
 62
256
370
-1
  6
ByLayer
 10
300.6111111111111427
 20
57.4000000000000057
 30
0.0
 11
300.6111111111111427
 21
55.62222222222222
 31
0.0
  0
ARC
  5
193
100
AcDbEntity
  8
Retainer Plate Text
 62
256
370
-1
  6
ByLayer
100
AcDbCircle
 10
300.8333333333333144
 20
55.62222222222222
 30
0.0
 40
0.2222222222222222
100
AcDbArc
 50
180.0
 51
270.0
  0
LINE
  5
194
100
AcDbEntity
100
AcDbLine
  8
Retainer Plate Text
 62
256
370
-1
  6
ByLayer
 10
301.6111111111110858
 20
56.7333333333333343
 30
0.0
 11
302.0555555555555429
 21
56.7333333333333343
 31
0.0
  0
ARC
  5
195
100
AcDbEntity
  8
Retainer Plate Text
 62
256
370
-1
  6
ByLayer
100
AcDbCircle
 10
302.0555555555555429
 20
56.4000000000000057
 30
0.0
 40
0.3333333333333333
100
AcDbArc
 50
0.0
 51
90.0
  0
LINE
  5
196
100
AcDbEntity
100
AcDbLine
  8
Retainer Plate Text
 62
256
370
-1
  6
ByLayer
 10
302.3888888888889142
 20
56.4000000000000057
 30
0.0
 11
302.3888888888889142
 21
55.4000000000000057
 31
0.0
  0
LINE
  5
197
100
AcDbEntity
100
AcDbLine
  8
Retainer Plate Text
 62
256
370
-1
  6
ByLayer
 10
302.3888888888889142
 20
55.4000000000000057
 30
0.0
 11
301.8333333333333144
 21
55.4000000000000057
 31
0.0
  0
ARC
  5
198
100
AcDbEntity
  8
Retainer Plate Text
 62
256
370
-1
  6
ByLayer
100
AcDbCircle
 10
301.8333333333333144
 20
55.7333333333333414
 30
0.0
 40
0.3333333333333333
100
AcDbArc
 50
90.0
 51
270.0
  0
LINE
  5
199
100
AcDbEntity
100
AcDbLine
  8
Retainer Plate Text
 62
256
370
-1
  6
ByLayer
 10
301.8333333333333144
 20
56.06666666666667
 30
0.0
 11
302.3888888888889142
 21
56.06666666666667
 31
0.0
  0
LINE
  5
19A
100
AcDbEntity
100
AcDbLine
  8
Retainer Plate Text
 62
256
370
-1
  6
ByLayer
 10
303.0555555555555429
 20
56.7333333333333414
 30
0.0
 11
303.7222222222222285
 21
56.7333333333333343
 31
0.0
  0
LINE
  5
19B
100
AcDbEntity
100
AcDbLine
  8
Retainer Plate Text
 62
256
370
-1
  6
ByLayer
 10
303.2777777777777715
 20
57.4000000000000057
 30
0.0
 11
303.2777777777777715
 21
55.4000000000000057
 31
0.0
  0
LINE
  5
19C
100
AcDbEntity
100
AcDbLine
  8
Retainer Plate Text
 62
256
370
-1
  6
ByLayer
 10
304.3888888888889142
 20
56.0666666666666771
 30
0.0
 11
305.2777777777777715
 21
56.06666666666667
 31
0.0
  0
LINE
  5
19D
100
AcDbEntity
100
AcDbLine
  8
Retainer Plate Text
 62
256
370
-1
  6
ByLayer
 10
305.2777777777777715
 20
56.06666666666667
 30
0.0
 11
305.2777777777777715
 21
56.2888888888888914
 31
0.0
  0
ARC
  5
19E
100
AcDbEntity
  8
Retainer Plate Text
 62
256
370
-1
  6
ByLayer
100
AcDbCircle
 10
304.8333333333333144
 20
56.2888888888888914
 30
0.0
 40
0.4444444444444444
100
AcDbArc
 50
0.0
 51
180.0
  0
LINE
  5
19F
100
AcDbEntity
100
AcDbLine
  8
Retainer Plate Text
 62
256
370
-1
  6
ByLayer
 10
304.3888888888889142
 20
56.2888888888888914
 30
0.0
 11
304.3888888888889142
 21
55.7333333333333414
 31
0.0
  0
ARC
  5
1A0
100
AcDbEntity
  8
Retainer Plate Text
 62
256
370
-1
  6
ByLayer
100
AcDbCircle
 10
304.7222222222222285
 20
55.7333333333333414
 30
0.0
 40
0.3333333333333333
100
AcDbArc
 50
180.0
 51
270.0
  0
LINE
  5
1A1
100
AcDbEntity
100
AcDbLine
  8
Retainer Plate Text
 62
256
370
-1
  6
ByLayer
 10
304.7222222222222285
 20
55.4000000000000057
 30
0.0
 11
305.2777777777777715
 21
55.4000000000000057
 31
0.0
  0
CIRCLE
  5
1A2
100
AcDbEntity
100
AcDbCircle
  8
Retainer Plate
 62
256
370
-1
  6
ByLayer
 10
294.75
 20
35.4999745962155799
 30
0.0
 40
4.5
  0
CIRCLE
  5
1A3
100
AcDbEntity
100
AcDbCircle
  8
Retainer Plate
 62
256
370
-1
  6
ByLayer
 10
287.0
 20
22.0765808375567651
 30
0.0
 40
3.0
  0
CIRCLE
  5
1A4
100
AcDbEntity
100
AcDbCircle
  8
Retainer Plate
 62
256
370
-1
  6
ByLayer
 10
279.25
 20
35.4999745962155586
 30
0.0
 40
3.0
  0
CIRCLE
  5
1A5
100
AcDbEntity
100
AcDbCircle
  8
Retainer Plate
 62
256
370
-1
  6
ByLayer
 10
287.0
 20
48.9233683548743699
 30
0.0
 40
3.0
  0
MTEXT
  5
1A6
100
AcDbEntity
100
AcDbMText
  8
Retainer Plate Text
 62
256
370
-1
  6
ByLayer
 10
310.0
 20
62.5
 30
0.0
 40
2.0
 41
100.0
 71
5
 72
2
  1
wiki.makerbot.com/plastruder-mk4
  7
normal
 50
0.0
 73
1
 44
1.0
  0
MTEXT
  5
1A7
100
AcDbEntity
100
AcDbMText
  8
Retainer Plate Text
 62
256
370
-1
  6
ByLayer
 10
310.9165900295568008
 20
67.2333333333333343
 30
0.0
 40
5.0
 41
100.0
 71
5
 72
2
  1
Plastruder\~MK4
  7
normal
 50
0.0
 73
1
 44
1.0
  0
ARC
  5
1A8
100
AcDbEntity
  8
Retainer Plate
 62
256
370
-1
  6
ByLayer
100
AcDbCircle
 10
321.6750000000000114
 20
35.4999745962155728
 30
0.0
 40
4.0
100
AcDbArc
 50
90.0
 51
270.0
  0
LINE
  5
1A9
100
AcDbEntity
100
AcDbLine
  8
Retainer Plate
 62
256
370
-1
  6
ByLayer
 10
321.6750000000000114
 20
39.4999745962155586
 30
0.0
 11
324.625
 21
39.4999745962155302
 31
0.0
  0
LINE
  5
1AA
100
AcDbEntity
100
AcDbLine
  8
Retainer Plate
 62
256
370
-1
  6
ByLayer
 10
324.625
 20
31.4999745962155586
 30
0.0
 11
321.6750000000000114
 21
31.4999745962155657
 31
0.0
  0
CIRCLE
  5
1AB
100
AcDbEntity
100
AcDbCircle
  8
Retainer Plate
 62
256
370
-1
  6
ByLayer
 10
342.1499999999999773
 20
72.4000000000000057
 30
0.0
 40
1.5
  0
CIRCLE
  5
1AC
100
AcDbEntity
100
AcDbCircle
  8
Retainer Plate
 62
256
370
-1
  6
ByLayer
 10
342.1499999999999773
 20
7.9999999999999858
 30
0.0
 40
1.5
  0
CIRCLE
  5
1AD
100
AcDbEntity
100
AcDbCircle
  8
Retainer Plate
 62
256
370
-1
  6
ByLayer
 10
280.0
 20
8.0000000000000036
 30
0.0
 40
1.5
  0
CIRCLE
  5
1AE
100
AcDbEntity
100
AcDbCircle
  8
Retainer Plate
 62
256
370
-1
  6
ByLayer
 10
280.0
 20
72.4000000000000057
 30
0.0
 40
1.5
  0
MTEXT
  5
1AF
100
AcDbEntity
100
AcDbMText
  8
Retainer Plate Text
 62
256
370
-1
  6
ByLayer
 10
274.0
 20
74.5000000000000142
 30
0.0
 40
4.0
 41
100.0
 71
1
 72
2
  1
6
  7
standard
 50
0.0
 73
0
 44
1.0
  0
CIRCLE
  5
1B0
100
AcDbEntity
100
AcDbCircle
  8
Idler Wheel
 62
256
370
-1
  6
ByLayer
 10
390.0
 20
80.0
 30
0.0
 40
10.9499999999999993
  0
CIRCLE
  5
1B1
100
AcDbEntity
100
AcDbCircle
  8
Idler Wheel
 62
256
370
-1
  6
ByLayer
 10
390.0
 20
80.0
 30
0.0
 40
20.5
  0
LINE
  5
1B2
100
AcDbEntity
100
AcDbLine
  8
Idler Wheel Text
 62
256
370
-1
  6
ByLayer
 10
385.0
 20
67.0000254037844343
 30
0.0
 11
385.6666666666666856
 21
64.0000254037844343
 31
0.0
  0
LINE
  5
1B3
100
AcDbEntity
100
AcDbLine
  8
Idler Wheel Text
 62
256
370
-1
  6
ByLayer
 10
385.6666666666666856
 20
64.0000254037844343
 30
0.0
 11
386.3333333333333144
 21
66.0000254037844343
 31
0.0
  0
LINE
  5
1B4
100
AcDbEntity
100
AcDbLine
  8
Idler Wheel Text
 62
256
370
-1
  6
ByLayer
 10
386.3333333333333144
 20
66.0000254037844343
 30
0.0
 11
387.0
 21
64.0000254037844343
 31
0.0
  0
LINE
  5
1B5
100
AcDbEntity
100
AcDbLine
  8
Idler Wheel Text
 62
256
370
-1
  6
ByLayer
 10
387.0
 20
64.0000254037844343
 30
0.0
 11
387.6666666666666856
 21
67.0000254037844343
 31
0.0
  0
LINE
  5
1B6
100
AcDbEntity
100
AcDbLine
  8
Idler Wheel Text
 62
256
370
-1
  6
ByLayer
 10
388.6666666666666856
 20
67.0000254037844343
 30
0.0
 11
388.6666666666666856
 21
64.0000254037844343
 31
0.0
  0
LINE
  5
1B7
100
AcDbEntity
100
AcDbLine
  8
Idler Wheel Text
 62
256
370
-1
  6
ByLayer
 10
388.6666666666666288
 20
66.0000254037844343
 30
0.0
 11
389.5
 21
66.0000254037844343
 31
0.0
  0
ARC
  5
1B8
100
AcDbEntity
  8
Idler Wheel Text
 62
256
370
-1
  6
ByLayer
100
AcDbCircle
 10
389.5
 20
65.5000254037844343
 30
0.0
 40
0.5
100
AcDbArc
 50
0.0
 51
90.0
  0
LINE
  5
1B9
100
AcDbEntity
100
AcDbLine
  8
Idler Wheel Text
 62
256
370
-1
  6
ByLayer
 10
390.0
 20
65.5000254037844343
 30
0.0
 11
390.0
 21
64.0000254037844343
 31
0.0
  0
LINE
  5
1BA
100
AcDbEntity
100
AcDbLine
  8
Idler Wheel Text
 62
256
370
-1
  6
ByLayer
 10
391.0
 20
65.0000254037844343
 30
0.0
 11
392.3333333333333144
 21
65.0000254037844343
 31
0.0
  0
LINE
  5
1BB
100
AcDbEntity
100
AcDbLine
  8
Idler Wheel Text
 62
256
370
-1
  6
ByLayer
 10
392.3333333333333144
 20
65.0000254037844343
 30
0.0
 11
392.3333333333333144
 21
65.3333587371177629
 31
0.0
  0
ARC
  5
1BC
100
AcDbEntity
  8
Idler Wheel Text
 62
256
370
-1
  6
ByLayer
100
AcDbCircle
 10
391.6666666666666288
 20
65.3333587371177629
 30
0.0
 40
0.6666666666666666
100
AcDbArc
 50
0.0
 51
180.0
  0
LINE
  5
1BD
100
AcDbEntity
100
AcDbLine
  8
Idler Wheel Text
 62
256
370
-1
  6
ByLayer
 10
391.0
 20
65.3333587371177629
 30
0.0
 11
391.0
 21
64.5000254037844343
 31
0.0
  0
ARC
  5
1BE
100
AcDbEntity
  8
Idler Wheel Text
 62
256
370
-1
  6
ByLayer
100
AcDbCircle
 10
391.5
 20
64.5000254037844343
 30
0.0
 40
0.5
100
AcDbArc
 50
180.0
 51
270.0
  0
LINE
  5
1BF
100
AcDbEntity
100
AcDbLine
  8
Idler Wheel Text
 62
256
370
-1
  6
ByLayer
 10
391.5
 20
64.0000254037844343
 30
0.0
 11
392.3333333333333144
 21
64.0000254037844343
 31
0.0
  0
LINE
  5
1C0
100
AcDbEntity
100
AcDbLine
  8
Idler Wheel Text
 62
256
370
-1
  6
ByLayer
 10
393.3333333333333144
 20
65.0000254037844343
 30
0.0
 11
394.6666666666666856
 21
65.0000254037844343
 31
0.0
  0
LINE
  5
1C1
100
AcDbEntity
100
AcDbLine
  8
Idler Wheel Text
 62
256
370
-1
  6
ByLayer
 10
394.6666666666666856
 20
65.0000254037844343
 30
0.0
 11
394.6666666666666856
 21
65.3333587371177629
 31
0.0
  0
ARC
  5
1C2
100
AcDbEntity
  8
Idler Wheel Text
 62
256
370
-1
  6
ByLayer
100
AcDbCircle
 10
394.0
 20
65.3333587371177629
 30
0.0
 40
0.6666666666666666
100
AcDbArc
 50
0.0
 51
180.0
  0
LINE
  5
1C3
100
AcDbEntity
100
AcDbLine
  8
Idler Wheel Text
 62
256
370
-1
  6
ByLayer
 10
393.3333333333333144
 20
65.3333587371177629
 30
0.0
 11
393.3333333333333144
 21
64.5000254037844343
 31
0.0
  0
ARC
  5
1C4
100
AcDbEntity
  8
Idler Wheel Text
 62
256
370
-1
  6
ByLayer
100
AcDbCircle
 10
393.8333333333333144
 20
64.5000254037844343
 30
0.0
 40
0.5
100
AcDbArc
 50
180.0
 51
270.0
  0
LINE
  5
1C5
100
AcDbEntity
100
AcDbLine
  8
Idler Wheel Text
 62
256
370
-1
  6
ByLayer
 10
393.8333333333333144
 20
64.0000254037844343
 30
0.0
 11
394.6666666666666856
 21
64.0000254037844343
 31
0.0
  0
LINE
  5
1C6
100
AcDbEntity
100
AcDbLine
  8
Idler Wheel Text
 62
256
370
-1
  6
ByLayer
 10
395.6666666666666856
 20
67.0000254037844343
 30
0.0
 11
395.6666666666666856
 21
64.3333587371177629
 31
0.0
  0
ARC
  5
1C7
100
AcDbEntity
  8
Idler Wheel Text
 62
256
370
-1
  6
ByLayer
100
AcDbCircle
 10
396.0
 20
64.3333587371177629
 30
0.0
 40
0.3333333333333333
100
AcDbArc
 50
180.0
 51
270.0
  0
LINE
  5
1C8
100
AcDbEntity
100
AcDbLine
  8
Idler Wheel Text
 62
256
370
-1
  6
ByLayer
 10
386.5
 20
96.0000254037844343
 30
0.0
 11
386.5
 21
93.0000254037844343
 31
0.0
  0
LINE
  5
1C9
100
AcDbEntity
100
AcDbLine
  8
Idler Wheel Text
 62
256
370
-1
  6
ByLayer
 10
388.8333333333333144
 20
96.0000254037844343
 30
0.0
 11
388.8333333333333144
 21
93.0000254037844343
 31
0.0
  0
LINE
  5
1CA
100
AcDbEntity
100
AcDbLine
  8
Idler Wheel Text
 62
256
370
-1
  6
ByLayer
 10
388.8333333333333144
 20
93.0000254037844343
 30
0.0
 11
388.0
 21
93.0000254037844343
 31
0.0
  0
ARC
  5
1CB
100
AcDbEntity
  8
Idler Wheel Text
 62
256
370
-1
  6
ByLayer
100
AcDbCircle
 10
388.0
 20
93.5000254037844343
 30
0.0
 40
0.5
100
AcDbArc
 50
180.0
 51
270.0
  0
LINE
  5
1CC
100
AcDbEntity
100
AcDbLine
  8
Idler Wheel Text
 62
256
370
-1
  6
ByLayer
 10
387.5
 20
93.5000254037844343
 30
0.0
 11
387.5
 21
94.5000254037844343
 31
0.0
  0
ARC
  5
1CD
100
AcDbEntity
  8
Idler Wheel Text
 62
256
370
-1
  6
ByLayer
100
AcDbCircle
 10
388.0
 20
94.5000254037844343
 30
0.0
 40
0.5
100
AcDbArc
 50
90.0
 51
180.0
  0
LINE
  5
1CE
100
AcDbEntity
100
AcDbLine
  8
Idler Wheel Text
 62
256
370
-1
  6
ByLayer
 10
388.0
 20
95.0000254037844343
 30
0.0
 11
388.8333333333333144
 21
95.0000254037844343
 31
0.0
  0
LINE
  5
1CF
100
AcDbEntity
100
AcDbLine
  8
Idler Wheel Text
 62
256
370
-1
  6
ByLayer
 10
389.8333333333333144
 20
96.0000254037844343
 30
0.0
 11
389.8333333333333144
 21
93.3333587371177771
 31
0.0
  0
ARC
  5
1D0
100
AcDbEntity
  8
Idler Wheel Text
 62
256
370
-1
  6
ByLayer
100
AcDbCircle
 10
390.1666666666666856
 20
93.3333587371177629
 30
0.0
 40
0.3333333333333333
100
AcDbArc
 50
180.0
 51
270.0
  0
LINE
  5
1D1
100
AcDbEntity
100
AcDbLine
  8
Idler Wheel Text
 62
256
370
-1
  6
ByLayer
 10
391.1666666666666856
 20
94.0000254037844343
 30
0.0
 11
392.5
 21
94.0000254037844343
 31
0.0
  0
LINE
  5
1D2
100
AcDbEntity
100
AcDbLine
  8
Idler Wheel Text
 62
256
370
-1
  6
ByLayer
 10
392.5
 20
94.0000254037844343
 30
0.0
 11
392.5
 21
94.3333587371177771
 31
0.0
  0
ARC
  5
1D3
100
AcDbEntity
  8
Idler Wheel Text
 62
256
370
-1
  6
ByLayer
100
AcDbCircle
 10
391.8333333333333144
 20
94.3333587371177771
 30
0.0
 40
0.6666666666666666
100
AcDbArc
 50
0.0
 51
180.0
  0
LINE
  5
1D4
100
AcDbEntity
100
AcDbLine
  8
Idler Wheel Text
 62
256
370
-1
  6
ByLayer
 10
391.1666666666666856
 20
94.3333587371177771
 30
0.0
 11
391.1666666666666856
 21
93.5000254037844343
 31
0.0
  0
ARC
  5
1D5
100
AcDbEntity
  8
Idler Wheel Text
 62
256
370
-1
  6
ByLayer
100
AcDbCircle
 10
391.6666666666666856
 20
93.5000254037844343
 30
0.0
 40
0.5
100
AcDbArc
 50
180.0
 51
270.0
  0
LINE
  5
1D6
100
AcDbEntity
100
AcDbLine
  8
Idler Wheel Text
 62
256
370
-1
  6
ByLayer
 10
391.6666666666666856
 20
93.0000254037844343
 30
0.0
 11
392.5
 21
93.0000254037844343
 31
0.0
  0
LINE
  5
1D7
100
AcDbEntity
100
AcDbLine
  8
Idler Wheel Text
 62
256
370
-1
  6
ByLayer
 10
393.5
 20
93.0000254037844343
 30
0.0
 11
393.5
 21
95.0000254037844343
 31
0.0
  0
LINE
  5
1D8
100
AcDbEntity
100
AcDbLine
  8
Idler Wheel Text
 62
256
370
-1
  6
ByLayer
 10
393.5
 20
95.0000254037844343
 30
0.0
 11
394.1666666666666856
 21
95.0000254037844343
 31
0.0
  0
ARC
  5
1D9
100
AcDbEntity
  8
Idler Wheel Text
 62
256
370
-1
  6
ByLayer
100
AcDbCircle
 10
394.1666666666666856
 20
94.6666920704510915
 30
0.0
 40
0.3333333333333333
100
AcDbArc
 50
0.0
 51
90.0
  0
CIRCLE
  5
1DA
100
AcDbEntity
100
AcDbCircle
  8
Idler Wheel
 62
256
370
-1
  6
ByLayer
 10
390.0
 20
30.0
 30
0.0
 40
10.9499999999999993
  0
CIRCLE
  5
1DB
100
AcDbEntity
100
AcDbCircle
  8
Idler Wheel
 62
256
370
-1
  6
ByLayer
 10
390.0
 20
30.0
 30
0.0
 40
20.5
  0
LINE
  5
1DC
100
AcDbEntity
100
AcDbLine
  8
Idler Wheel Text
 62
256
370
-1
  6
ByLayer
 10
385.0
 20
17.0000254037844343
 30
0.0
 11
385.6666666666666856
 21
14.0000254037844378
 31
0.0
  0
LINE
  5
1DD
100
AcDbEntity
100
AcDbLine
  8
Idler Wheel Text
 62
256
370
-1
  6
ByLayer
 10
385.6666666666666856
 20
14.0000254037844378
 30
0.0
 11
386.3333333333333144
 21
16.0000254037844414
 31
0.0
  0
LINE
  5
1DE
100
AcDbEntity
100
AcDbLine
  8
Idler Wheel Text
 62
256
370
-1
  6
ByLayer
 10
386.3333333333333144
 20
16.0000254037844414
 30
0.0
 11
387.0
 21
14.0000254037844396
 31
0.0
  0
LINE
  5
1DF
100
AcDbEntity
100
AcDbLine
  8
Idler Wheel Text
 62
256
370
-1
  6
ByLayer
 10
387.0
 20
14.0000254037844396
 30
0.0
 11
387.6666666666666856
 21
17.0000254037844378
 31
0.0
  0
LINE
  5
1E0
100
AcDbEntity
100
AcDbLine
  8
Idler Wheel Text
 62
256
370
-1
  6
ByLayer
 10
388.6666666666666856
 20
17.0000254037844343
 30
0.0
 11
388.6666666666666856
 21
14.0000254037844343
 31
0.0
  0
LINE
  5
1E1
100
AcDbEntity
100
AcDbLine
  8
Idler Wheel Text
 62
256
370
-1
  6
ByLayer
 10
388.6666666666666288
 20
16.0000254037844343
 30
0.0
 11
389.5
 21
16.0000254037844343
 31
0.0
  0
ARC
  5
1E2
100
AcDbEntity
  8
Idler Wheel Text
 62
256
370
-1
  6
ByLayer
100
AcDbCircle
 10
389.5
 20
15.5000254037844343
 30
0.0
 40
0.5
100
AcDbArc
 50
0.0
 51
90.0
  0
LINE
  5
1E3
100
AcDbEntity
100
AcDbLine
  8
Idler Wheel Text
 62
256
370
-1
  6
ByLayer
 10
390.0
 20
15.5000254037844343
 30
0.0
 11
390.0
 21
14.0000254037844343
 31
0.0
  0
LINE
  5
1E4
100
AcDbEntity
100
AcDbLine
  8
Idler Wheel Text
 62
256
370
-1
  6
ByLayer
 10
391.0
 20
15.0000254037844343
 30
0.0
 11
392.3333333333333144
 21
15.0000254037844343
 31
0.0
  0
LINE
  5
1E5
100
AcDbEntity
100
AcDbLine
  8
Idler Wheel Text
 62
256
370
-1
  6
ByLayer
 10
392.3333333333333144
 20
15.0000254037844343
 30
0.0
 11
392.3333333333333144
 21
15.3333587371177646
 31
0.0
  0
ARC
  5
1E6
100
AcDbEntity
  8
Idler Wheel Text
 62
256
370
-1
  6
ByLayer
100
AcDbCircle
 10
391.6666666666666288
 20
15.3333587371177664
 30
0.0
 40
0.6666666666666666
100
AcDbArc
 50
0.0
 51
180.0
  0
LINE
  5
1E7
100
AcDbEntity
100
AcDbLine
  8
Idler Wheel Text
 62
256
370
-1
  6
ByLayer
 10
391.0
 20
15.3333587371177646
 30
0.0
 11
391.0
 21
14.5000254037844343
 31
0.0
  0
ARC
  5
1E8
100
AcDbEntity
  8
Idler Wheel Text
 62
256
370
-1
  6
ByLayer
100
AcDbCircle
 10
391.5
 20
14.5000254037844343
 30
0.0
 40
0.5
100
AcDbArc
 50
180.0
 51
270.0
  0
LINE
  5
1E9
100
AcDbEntity
100
AcDbLine
  8
Idler Wheel Text
 62
256
370
-1
  6
ByLayer
 10
391.5
 20
14.0000254037844343
 30
0.0
 11
392.3333333333333144
 21
14.0000254037844325
 31
0.0
  0
LINE
  5
1EA
100
AcDbEntity
100
AcDbLine
  8
Idler Wheel Text
 62
256
370
-1
  6
ByLayer
 10
393.3333333333333144
 20
15.0000254037844325
 30
0.0
 11
394.6666666666666856
 21
15.0000254037844361
 31
0.0
  0
LINE
  5
1EB
100
AcDbEntity
100
AcDbLine
  8
Idler Wheel Text
 62
256
370
-1
  6
ByLayer
 10
394.6666666666666856
 20
15.0000254037844361
 30
0.0
 11
394.6666666666666856
 21
15.3333587371177646
 31
0.0
  0
ARC
  5
1EC
100
AcDbEntity
  8
Idler Wheel Text
 62
256
370
-1
  6
ByLayer
100
AcDbCircle
 10
394.0
 20
15.3333587371177682
 30
0.0
 40
0.6666666666666666
100
AcDbArc
 50
0.0
 51
180.0
  0
LINE
  5
1ED
100
AcDbEntity
100
AcDbLine
  8
Idler Wheel Text
 62
256
370
-1
  6
ByLayer
 10
393.3333333333333144
 20
15.3333587371177682
 30
0.0
 11
393.3333333333333144
 21
14.5000254037844325
 31
0.0
  0
ARC
  5
1EE
100
AcDbEntity
  8
Idler Wheel Text
 62
256
370
-1
  6
ByLayer
100
AcDbCircle
 10
393.8333333333333144
 20
14.5000254037844343
 30
0.0
 40
0.5
100
AcDbArc
 50
180.0
 51
270.0
  0
LINE
  5
1EF
100
AcDbEntity
100
AcDbLine
  8
Idler Wheel Text
 62
256
370
-1
  6
ByLayer
 10
393.8333333333333144
 20
14.0000254037844361
 30
0.0
 11
394.6666666666666856
 21
14.0000254037844325
 31
0.0
  0
LINE
  5
1F0
100
AcDbEntity
100
AcDbLine
  8
Idler Wheel Text
 62
256
370
-1
  6
ByLayer
 10
395.6666666666666856
 20
17.0000254037844343
 30
0.0
 11
395.6666666666666856
 21
14.3333587371177682
 31
0.0
  0
ARC
  5
1F1
100
AcDbEntity
  8
Idler Wheel Text
 62
256
370
-1
  6
ByLayer
100
AcDbCircle
 10
396.0
 20
14.3333587371177646
 30
0.0
 40
0.3333333333333333
100
AcDbArc
 50
180.0
 51
270.0
  0
LINE
  5
1F2
100
AcDbEntity
100
AcDbLine
  8
Idler Wheel Text
 62
256
370
-1
  6
ByLayer
 10
386.5
 20
46.0000254037844343
 30
0.0
 11
386.5
 21
43.0000254037844343
 31
0.0
  0
LINE
  5
1F3
100
AcDbEntity
100
AcDbLine
  8
Idler Wheel Text
 62
256
370
-1
  6
ByLayer
 10
388.8333333333333144
 20
46.0000254037844343
 30
0.0
 11
388.8333333333333144
 21
43.0000254037844343
 31
0.0
  0
LINE
  5
1F4
100
AcDbEntity
100
AcDbLine
  8
Idler Wheel Text
 62
256
370
-1
  6
ByLayer
 10
388.8333333333333144
 20
43.0000254037844343
 30
0.0
 11
388.0
 21
43.0000254037844343
 31
0.0
  0
ARC
  5
1F5
100
AcDbEntity
  8
Idler Wheel Text
 62
256
370
-1
  6
ByLayer
100
AcDbCircle
 10
388.0
 20
43.5000254037844343
 30
0.0
 40
0.5
100
AcDbArc
 50
180.0
 51
270.0
  0
LINE
  5
1F6
100
AcDbEntity
100
AcDbLine
  8
Idler Wheel Text
 62
256
370
-1
  6
ByLayer
 10
387.5
 20
43.5000254037844343
 30
0.0
 11
387.5
 21
44.5000254037844343
 31
0.0
  0
ARC
  5
1F7
100
AcDbEntity
  8
Idler Wheel Text
 62
256
370
-1
  6
ByLayer
100
AcDbCircle
 10
388.0
 20
44.5000254037844343
 30
0.0
 40
0.5
100
AcDbArc
 50
90.0
 51
180.0
  0
LINE
  5
1F8
100
AcDbEntity
100
AcDbLine
  8
Idler Wheel Text
 62
256
370
-1
  6
ByLayer
 10
388.0
 20
45.0000254037844343
 30
0.0
 11
388.8333333333333144
 21
45.0000254037844343
 31
0.0
  0
LINE
  5
1F9
100
AcDbEntity
100
AcDbLine
  8
Idler Wheel Text
 62
256
370
-1
  6
ByLayer
 10
389.8333333333333144
 20
46.0000254037844343
 30
0.0
 11
389.8333333333333144
 21
43.33335873711777
 31
0.0
  0
ARC
  5
1FA
100
AcDbEntity
  8
Idler Wheel Text
 62
256
370
-1
  6
ByLayer
100
AcDbCircle
 10
390.1666666666666856
 20
43.33335873711777
 30
0.0
 40
0.3333333333333333
100
AcDbArc
 50
180.0
 51
270.0
  0
LINE
  5
1FB
100
AcDbEntity
100
AcDbLine
  8
Idler Wheel Text
 62
256
370
-1
  6
ByLayer
 10
391.1666666666666856
 20
44.0000254037844343
 30
0.0
 11
392.5
 21
44.0000254037844343
 31
0.0
  0
LINE
  5
1FC
100
AcDbEntity
100
AcDbLine
  8
Idler Wheel Text
 62
256
370
-1
  6
ByLayer
 10
392.5
 20
44.0000254037844343
 30
0.0
 11
392.5
 21
44.33335873711777
 31
0.0
  0
ARC
  5
1FD
100
AcDbEntity
  8
Idler Wheel Text
 62
256
370
-1
  6
ByLayer
100
AcDbCircle
 10
391.8333333333333144
 20
44.33335873711777
 30
0.0
 40
0.6666666666666666
100
AcDbArc
 50
0.0
 51
180.0
  0
LINE
  5
1FE
100
AcDbEntity
100
AcDbLine
  8
Idler Wheel Text
 62
256
370
-1
  6
ByLayer
 10
391.1666666666666856
 20
44.33335873711777
 30
0.0
 11
391.1666666666666856
 21
43.5000254037844343
 31
0.0
  0
ARC
  5
1FF
100
AcDbEntity
  8
Idler Wheel Text
 62
256
370
-1
  6
ByLayer
100
AcDbCircle
 10
391.6666666666666856
 20
43.5000254037844343
 30
0.0
 40
0.5
100
AcDbArc
 50
180.0
 51
270.0
  0
LINE
  5
200
100
AcDbEntity
100
AcDbLine
  8
Idler Wheel Text
 62
256
370
-1
  6
ByLayer
 10
391.6666666666666856
 20
43.0000254037844343
 30
0.0
 11
392.5
 21
43.0000254037844343
 31
0.0
  0
LINE
  5
201
100
AcDbEntity
100
AcDbLine
  8
Idler Wheel Text
 62
256
370
-1
  6
ByLayer
 10
393.5
 20
43.0000254037844343
 30
0.0
 11
393.5
 21
45.0000254037844343
 31
0.0
  0
LINE
  5
202
100
AcDbEntity
100
AcDbLine
  8
Idler Wheel Text
 62
256
370
-1
  6
ByLayer
 10
393.5
 20
45.0000254037844343
 30
0.0
 11
394.1666666666666856
 21
45.0000254037844343
 31
0.0
  0
ARC
  5
203
100
AcDbEntity
  8
Idler Wheel Text
 62
256
370
-1
  6
ByLayer
100
AcDbCircle
 10
394.1666666666666856
 20
44.6666920704510986
 30
0.0
 40
0.3333333333333333
100
AcDbArc
 50
0.0
 51
90.0
  0
ENDSEC
  0
SECTION
  2
OBJECTS
  0
DICTIONARY
  5
C
100
AcDbDictionary
280
0
281
1
  3
ACAD_GROUP
350
D
  3
ACAD_LAYOUT
350
1A
  3
ACAD_MLINESTYLE
350
17
  3
ACAD_PLOTSETTINGS
350
19
  3
ACAD_PLOTSTYLENAME
350
E
  3
AcDbVariableDictionary
350
204
  0
DICTIONARY
  5
D
100
AcDbDictionary
280
0
281
1
  0
ACDBDICTIONARYWDFLT
  5
E
100
AcDbDictionary
281
1
  3
Normal
350
F
100
AcDbDictionaryWithDefault
340
F
  0
ACDBPLACEHOLDER
  5
F
  0
DICTIONARY
  5
17
100
AcDbDictionary
280
0
281
1
  3
Standard
350
18
  0
MLINESTYLE
  5
18
100
AcDbMlineStyle
  2
STANDARD
 70
0
  3

 62
256
 51
90.0
 52
90.0
 71
2
 49
0.5
 62
256
  6
BYLAYER
 49
-0.5
 62
256
  6
BYLAYER
  0
DICTIONARY
  5
19
100
AcDbDictionary
280
0
281
1
  0
DICTIONARY
  5
1A
100
AcDbDictionary
281
1
  3
Layout1
350
1E
  3
Layout2
350
26
  3
Model
350
22
  0
LAYOUT
  5
1E
100
AcDbPlotSettings
  1

  2
C:\Program Files\AutoCAD 2002\plotters\DWF ePlot (optimized for plotting).pc3
  4

  6

 40
0.0
 41
0.0
 42
0.0
 43
0.0
 44
0.0
 45
0.0
 46
0.0
 47
0.0
 48
0.0
 49
0.0
140
0.0
141
0.0
142
1.0
143
1.0
 70
688
 72
0
 73
0
 74
5
  7

 75
16
147
1.0
148
0.0
149
0.0
100
AcDbLayout
  1
Layout1
 70
1
 71
1
 10
0.0
 20
0.0
 11
420.0
 21
297.0
 12
0.0
 22
0.0
 32
0.0
 14
100000000000000000000.0
 24
100000000000000000000.0
 34
100000000000000000000.0
 15
-100000000000000000000.0
 25
-100000000000000000000.0
 35
-100000000000000000000.0
146
0.0
 13
0.0
 23
0.0
 33
0.0
 16
1.0
 26
0.0
 36
0.0
 17
0.0
 27
1.0
 37
0.0
 76
0
330
1B
  0
LAYOUT
  5
22
100
AcDbPlotSettings
  1

  2
C:\Program Files\AutoCAD 2002\plotters\DWF ePlot (optimized for plotting).pc3
  4

  6

 40
0.0
 41
0.0
 42
0.0
 43
0.0
 44
0.0
 45
0.0
 46
0.0
 47
0.0
 48
0.0
 49
0.0
140
0.0
141
0.0
142
1.0
143
1.0
 70
1712
 72
0
 73
0
 74
0
  7

 75
0
147
1.0
148
0.0
149
0.0
100
AcDbLayout
  1
Model
 70
1
 71
0
 10
0.0
 20
0.0
 11
12.0
 21
9.0
 12
0.0
 22
0.0
 32
0.0
 14
0.0
 24
0.0
 34
0.0
 15
0.0
 25
0.0
 35
0.0
146
0.0
 13
0.0
 23
0.0
 33
0.0
 16
1.0
 26
0.0
 36
0.0
 17
0.0
 27
1.0
 37
0.0
 76
0
330
1F
  0
LAYOUT
  5
26
100
AcDbPlotSettings
  1

  2
C:\Program Files\AutoCAD 2002\plotters\DWF ePlot (optimized for plotting).pc3
  4

  6

 40
0.0
 41
0.0
 42
0.0
 43
0.0
 44
0.0
 45
0.0
 46
0.0
 47
0.0
 48
0.0
 49
0.0
140
0.0
141
0.0
142
1.0
143
1.0
 70
688
 72
0
 73
0
 74
5
  7

 75
16
147
1.0
148
0.0
149
0.0
100
AcDbLayout
  1
Layout2
 70
1
 71
2
 10
0.0
 20
0.0
 11
12.0
 21
9.0
 12
0.0
 22
0.0
 32
0.0
 14
0.0
 24
0.0
 34
0.0
 15
0.0
 25
0.0
 35
0.0
146
0.0
 13
0.0
 23
0.0
 33
0.0
 16
1.0
 26
0.0
 36
0.0
 17
0.0
 27
1.0
 37
0.0
 76
0
330
23
  0
DICTIONARY
  5
204
100
AcDbDictionary
281
1
  3
DIMASSOC
350
206
  3
HIDETEXT
350
205
  0
DICTIONARYVAR
  5
205
100
DictionaryVariables
280
0
  1
2
  0
DICTIONARYVAR
  5
206
100
DictionaryVariables
280
0
  1
1
  0
ENDSEC
  0
EOF
