999
dxflib 2.2.0.0
  0
SECTION
  2
HEADER
  9
$ACADVER
  1
AC1015
  9
$HANDSEED
  5
FFFF
  9
$DIMASZ
 40
2.5
  9
$PLIMMIN
 10
0.0
 20
0.0
  9
$DIMEXE
 40
1.25
  9
$DIMGAP
 40
0.625
  9
$PLIMMAX
 10
210.0
 20
297.0
  9
$INSUNITS
 70
4
  9
$DIMSTYLE
  2
Standard
  9
$CLAYER
  8
0
  9
$DIMEXO
 40
0.625
  9
$DIMTXT
 40
2.5
  9
$CLAYER
  8
0
  0
ENDSEC
  0
SECTION
  2
TABLES
  0
TABLE
  2
VPORT
  5
8
100
AcDbSymbolTable
 70
1
  0
VPORT
  5
30
100
AcDbSymbolTableRecord
100
AcDbViewportTableRecord
  2
*Active
 70
0
 10
0.0
 20
0.0
 11
1.0
 21
1.0
 12
286.3055555555554861
 22
148.5
 13
0.0
 23
0.0
 14
10.0
 24
10.0
 15
10.0
 25
10.0
 16
0.0
 26
0.0
 36
1.0
 17
0.0
 27
0.0
 37
0.0
 40
297.0
 41
1.92798353909465
 42
50.0
 43
0.0
 44
0.0
 50
0.0
 51
0.0
 71
0
 72
100
 73
1
 74
3
 75
1
 76
1
 77
0
 78
0
281
0
 65
1
110
0.0
120
0.0
130
0.0
111
1.0
121
0.0
131
0.0
112
0.0
122
1.0
132
0.0
 79
0
146
0.0
  0
ENDTAB
  0
TABLE
  2
LTYPE
  5
5
100
AcDbSymbolTable
 70
21
  0
LTYPE
  5
14
100
AcDbSymbolTableRecord
100
AcDbLinetypeTableRecord
  2
ByBlock
 70
0
  3

 72
65
 73
0
 40
0.0
  0
LTYPE
  5
15
100
AcDbSymbolTableRecord
100
AcDbLinetypeTableRecord
  2
ByLayer
 70
0
  3

 72
65
 73
0
 40
0.0
  0
LTYPE
  5
16
100
AcDbSymbolTableRecord
100
AcDbLinetypeTableRecord
  2
CONTINUOUS
 70
0
  3
Solid line
 72
65
 73
0
 40
0.0
  0
LTYPE
  5
31
100
AcDbSymbolTableRecord
100
AcDbLinetypeTableRecord
  2
DOT
 70
0
  3
Dot . . . . . . . . . . . . . . . . . . . . . .
 72
65
 73
2
 40
6.3499999999999996
 49
0.0
 74
0
 49
-6.3499999999999996
 74
0
  0
LTYPE
  5
32
100
AcDbSymbolTableRecord
100
AcDbLinetypeTableRecord
  2
DOT2
 70
0
  3
Dot (.5x) .....................................
 72
65
 73
2
 40
3.1749999999999998
 49
0.0
 74
0
 49
-3.1749999999999998
 74
0
  0
LTYPE
  5
33
100
AcDbSymbolTableRecord
100
AcDbLinetypeTableRecord
  2
DOTX2
 70
0
  3
Dot (2x) .  .  .  .  .  .  .  .  .  .  .  .  .
 72
65
 73
2
 40
12.6999999999999993
 49
0.0
 74
0
 49
-12.6999999999999993
 74
0
  0
LTYPE
  5
34
100
AcDbSymbolTableRecord
100
AcDbLinetypeTableRecord
  2
DASHED
 70
0
  3
Dashed __ __ __ __ __ __ __ __ __ __ __ __ __ _
 72
65
 73
2
 40
19.0500000000000007
 49
12.6999999999999993
 74
0
 49
-6.3499999999999996
 74
0
  0
LTYPE
  5
35
100
AcDbSymbolTableRecord
100
AcDbLinetypeTableRecord
  2
DASHED2
 70
0
  3
Dashed (.5x) _ _ _ _ _ _ _ _ _ _ _ _ _ _ _ _ _
 72
65
 73
2
 40
9.5250000000000004
 49
6.3499999999999996
 74
0
 49
-3.1749999999999998
 74
0
  0
LTYPE
  5
36
100
AcDbSymbolTableRecord
100
AcDbLinetypeTableRecord
  2
DASHEDX2
 70
0
  3
Dashed (2x) ____  ____  ____  ____  ____  ___
 72
65
 73
2
 40
38.1000000000000014
 49
25.3999999999999986
 74
0
 49
-12.6999999999999993
 74
0
  0
LTYPE
  5
37
100
AcDbSymbolTableRecord
100
AcDbLinetypeTableRecord
  2
DASHDOT
 70
0
  3
Dash dot __ . __ . __ . __ . __ . __ . __ . __
 72
65
 73
4
 40
25.3999999999999986
 49
12.6999999999999993
 74
0
 49
-6.3499999999999996
 74
0
 49
0.0
 74
0
 49
-6.3499999999999996
 74
0
  0
LTYPE
  5
38
100
AcDbSymbolTableRecord
100
AcDbLinetypeTableRecord
  2
DASHDOT2
 70
0
  3
Dash dot (.5x) _._._._._._._._._._._._._._._.
 72
65
 73
4
 40
12.6999999999999993
 49
6.3499999999999996
 74
0
 49
-3.1749999999999998
 74
0
 49
0.0
 74
0
 49
-3.1749999999999998
 74
0
  0
LTYPE
  5
39
100
AcDbSymbolTableRecord
100
AcDbLinetypeTableRecord
  2
DASHDOTX2
 70
0
  3
Dash dot (2x) ____  .  ____  .  ____  .  ___
 72
65
 73
4
 40
50.7999999999999972
 49
25.3999999999999986
 74
0
 49
-12.6999999999999993
 74
0
 49
0.0
 74
0
 49
-12.6999999999999993
 74
0
  0
LTYPE
  5
3A
100
AcDbSymbolTableRecord
100
AcDbLinetypeTableRecord
  2
DIVIDE
 70
0
  3
Divide ____ . . ____ . . ____ . . ____ . . ____
 72
65
 73
6
 40
31.75
 49
12.6999999999999993
 74
0
 49
-6.3499999999999996
 74
0
 49
0.0
 74
0
 49
-6.3499999999999996
 74
0
 49
0.0
 74
0
 49
-6.3499999999999996
 74
0
  0
LTYPE
  5
3B
100
AcDbSymbolTableRecord
100
AcDbLinetypeTableRecord
  2
DIVIDE2
 70
0
  3
Divide (.5x) __..__..__..__..__..__..__..__.._
 72
65
 73
6
 40
15.875
 49
6.3499999999999996
 74
0
 49
-3.1749999999999998
 74
0
 49
0.0
 74
0
 49
-3.1749999999999998
 74
0
 49
0.0
 74
0
 49
-3.1749999999999998
 74
0
  0
LTYPE
  5
3C
100
AcDbSymbolTableRecord
100
AcDbLinetypeTableRecord
  2
DIVIDEX2
 70
0
  3
Divide (2x) ________  .  .  ________  .  .  _
 72
65
 73
6
 40
63.5
 49
25.3999999999999986
 74
0
 49
-12.6999999999999993
 74
0
 49
0.0
 74
0
 49
-12.6999999999999993
 74
0
 49
0.0
 74
0
 49
-12.6999999999999993
 74
0
  0
LTYPE
  5
3D
100
AcDbSymbolTableRecord
100
AcDbLinetypeTableRecord
  2
CENTER
 70
0
  3
Center ____ _ ____ _ ____ _ ____ _ ____ _ ____
 72
65
 73
4
 40
50.7999999999999972
 49
31.75
 74
0
 49
-6.3499999999999996
 74
0
 49
6.3499999999999996
 74
0
 49
-6.3499999999999996
 74
0
  0
LTYPE
  5
3E
100
AcDbSymbolTableRecord
100
AcDbLinetypeTableRecord
  2
CENTER2
 70
0
  3
Center (.5x) ___ _ ___ _ ___ _ ___ _ ___ _ ___
 72
65
 73
4
 40
28.5749999999999993
 49
19.0500000000000007
 74
0
 49
-3.1749999999999998
 74
0
 49
3.1749999999999998
 74
0
 49
-3.1749999999999998
 74
0
  0
LTYPE
  5
3F
100
AcDbSymbolTableRecord
100
AcDbLinetypeTableRecord
  2
CENTERX2
 70
0
  3
Center (2x) ________  __  ________  __  _____
 72
65
 73
4
 40
101.5999999999999943
 49
63.5
 74
0
 49
-12.6999999999999993
 74
0
 49
12.6999999999999993
 74
0
 49
-12.6999999999999993
 74
0
  0
LTYPE
  5
40
100
AcDbSymbolTableRecord
100
AcDbLinetypeTableRecord
  2
BORDER
 70
0
  3
Border __ __ . __ __ . __ __ . __ __ . __ __ .
 72
65
 73
6
 40
44.4500000000000028
 49
12.6999999999999993
 74
0
 49
-6.3499999999999996
 74
0
 49
12.6999999999999993
 74
0
 49
-6.3499999999999996
 74
0
 49
0.0
 74
0
 49
-6.3499999999999996
 74
0
  0
LTYPE
  5
41
100
AcDbSymbolTableRecord
100
AcDbLinetypeTableRecord
  2
BORDER2
 70
0
  3
Border (.5x) __.__.__.__.__.__.__.__.__.__.__.
 72
65
 73
6
 40
22.2250000000000014
 49
6.3499999999999996
 74
0
 49
-3.1749999999999998
 74
0
 49
6.3499999999999996
 74
0
 49
-3.1749999999999998
 74
0
 49
0.0
 74
0
 49
-3.1749999999999998
 74
0
  0
LTYPE
  5
42
100
AcDbSymbolTableRecord
100
AcDbLinetypeTableRecord
  2
BORDERX2
 70
0
  3
Border (2x) ____  ____  .  ____  ____  .  ___
 72
65
 73
6
 40
88.9000000000000057
 49
25.3999999999999986
 74
0
 49
-12.6999999999999993
 74
0
 49
25.3999999999999986
 74
0
 49
-12.6999999999999993
 74
0
 49
0.0
 74
0
 49
-12.6999999999999993
 74
0
  0
ENDTAB
  0
TABLE
  2
LAYER
  5
2
100
AcDbSymbolTable
 70
17
  0
LAYER
  5
10
100
AcDbSymbolTableRecord
100
AcDbLayerTableRecord
  2
0
 70
0
 62
7
420
0
  6
CONTINUOUS
370
25
390
F
  0
LAYER
  5
43
100
AcDbSymbolTableRecord
100
AcDbLayerTableRecord
  2
Filament Guide Bottom
 70
0
 62
7
420
0
  6
CONTINUOUS
370
0
390
F
  0
LAYER
  5
44
100
AcDbSymbolTableRecord
100
AcDbLayerTableRecord
  2
Filament Guide Bottom Honeycomb
 70
0
 62
7
420
0
  6
CONTINUOUS
370
0
390
F
  0
LAYER
  5
45
100
AcDbSymbolTableRecord
100
AcDbLayerTableRecord
  2
Filament Guide Bottom Text
 70
0
 62
4
420
65535
  6
CONTINUOUS
370
0
390
F
  0
LAYER
  5
46
100
AcDbSymbolTableRecord
100
AcDbLayerTableRecord
  2
Filament Guide Middle Text
 70
0
 62
4
420
65535
  6
CONTINUOUS
370
0
390
F
  0
LAYER
  5
47
100
AcDbSymbolTableRecord
100
AcDbLayerTableRecord
  2
Filament Guide Middle
 70
0
 62
7
420
0
  6
CONTINUOUS
370
0
390
F
  0
LAYER
  5
48
100
AcDbSymbolTableRecord
100
AcDbLayerTableRecord
  2
Filament Guide Middle Honeycomb
 70
0
 62
7
420
0
  6
CONTINUOUS
370
0
390
F
  0
LAYER
  5
49
100
AcDbSymbolTableRecord
100
AcDbLayerTableRecord
  2
Filament Guide Top
 70
0
 62
7
420
0
  6
CONTINUOUS
370
0
390
F
  0
LAYER
  5
4A
100
AcDbSymbolTableRecord
100
AcDbLayerTableRecord
  2
Filament Guide Top Honeycomb
 70
0
 62
7
420
0
  6
CONTINUOUS
370
0
390
F
  0
LAYER
  5
4B
100
AcDbSymbolTableRecord
100
AcDbLayerTableRecord
  2
Filament Guide Top Text
 70
0
 62
4
420
65535
  6
CONTINUOUS
370
0
390
F
  0
LAYER
  5
4C
100
AcDbSymbolTableRecord
100
AcDbLayerTableRecord
  2
Idler Wheel Text
 70
0
 62
4
420
65535
  6
CONTINUOUS
370
0
390
F
  0
LAYER
  5
4D
100
AcDbSymbolTableRecord
100
AcDbLayerTableRecord
  2
Idler Wheel
 70
0
 62
7
420
0
  6
CONTINUOUS
370
0
390
F
  0
LAYER
  5
4E
100
AcDbSymbolTableRecord
100
AcDbLayerTableRecord
  2
Retainer Plate
 70
0
 62
7
420
0
  6
CONTINUOUS
370
0
390
F
  0
LAYER
  5
4F
100
AcDbSymbolTableRecord
100
AcDbLayerTableRecord
  2
Retainer Plate Text
 70
0
 62
4
420
65535
  6
CONTINUOUS
370
0
390
F
  0
LAYER
  5
50
100
AcDbSymbolTableRecord
100
AcDbLayerTableRecord
  2
Spacer Plate
 70
0
 62
7
420
0
  6
CONTINUOUS
370
0
390
F
  0
LAYER
  5
51
100
AcDbSymbolTableRecord
100
AcDbLayerTableRecord
  2
Spacer Plate Honeycomb
 70
0
 62
7
420
0
  6
CONTINUOUS
370
0
390
F
  0
LAYER
  5
52
100
AcDbSymbolTableRecord
100
AcDbLayerTableRecord
  2
Spacer Plate Text
 70
0
 62
4
420
65535
  6
CONTINUOUS
370
0
390
F
  0
ENDTAB
  0
TABLE
  2
STYLE
  5
3
100
AcDbSymbolTable
 70
1
  0
STYLE
  5
11
100
AcDbSymbolTableRecord
100
AcDbTextStyleTableRecord
  2
Standard
 70
0
 40
0.0
 41
0.75
 50
0.0
 71
0
 42
2.5
  3
txt
  4

  0
ENDTAB
  0
TABLE
  2
VIEW
  5
6
100
AcDbSymbolTable
 70
0
  0
ENDTAB
  0
TABLE
  2
UCS
  5
7
100
AcDbSymbolTable
 70
0
  0
ENDTAB
  0
TABLE
  2
APPID
  5
9
100
AcDbSymbolTable
 70
1
  0
APPID
  5
12
100
AcDbSymbolTableRecord
100
AcDbRegAppTableRecord
  2
ACAD
 70
0
  0
ENDTAB
  0
TABLE
  2
DIMSTYLE
  5
A
100
AcDbSymbolTable
 70
1
100
AcDbDimStyleTable
 71
0
  0
DIMSTYLE
105
27
100
AcDbSymbolTableRecord
100
AcDbDimStyleTableRecord
  2
Standard
 41
2.5
 42
0.625
 43
3.75
 44
1.25
 70
0
 73
0
 74
0
 77
1
 78
8
140
2.5
141
2.5
143
0.03937007874016
147
0.625
171
3
172
1
271
2
272
2
274
3
278
44
283
0
284
8
340
11
  0
ENDTAB
  0
TABLE
  2
BLOCK_RECORD
  5
1
100
AcDbSymbolTable
 70
1
  0
BLOCK_RECORD
  5
1F
100
AcDbSymbolTableRecord
100
AcDbBlockTableRecord
  2
*Model_Space
340
22
  0
BLOCK_RECORD
  5
1B
100
AcDbSymbolTableRecord
100
AcDbBlockTableRecord
  2
*Paper_Space
340
1E
  0
BLOCK_RECORD
  5
23
100
AcDbSymbolTableRecord
100
AcDbBlockTableRecord
  2
*Paper_Space0
340
26
  0
ENDTAB
  0
ENDSEC
  0
SECTION
  2
BLOCKS
  0
BLOCK
  5
20
100
AcDbEntity
  8
0
100
AcDbBlockBegin
  2
*Model_Space
 70
0
 10
0.0
 20
0.0
 30
0.0
  3
*Model_Space
  1

  0
ENDBLK
  5
21
100
AcDbEntity
  8
0
100
AcDbBlockEnd
  0
BLOCK
  5
1C
100
AcDbEntity
 67
1
  8
0
100
AcDbBlockBegin
  2
*Paper_Space
 70
0
 10
0.0
 20
0.0
 30
0.0
  3
*Paper_Space
  1

  0
ENDBLK
  5
1D
100
AcDbEntity
 67
1
  8
0
100
AcDbBlockEnd
  0
BLOCK
  5
24
100
AcDbEntity
  8
0
100
AcDbBlockBegin
  2
*Paper_Space0
 70
0
 10
0.0
 20
0.0
 30
0.0
  3
*Paper_Space0
  1

  0
ENDBLK
  5
25
100
AcDbEntity
  8
0
100
AcDbBlockEnd
  0
ENDSEC
  0
SECTION
  2
ENTITIES
  0
CIRCLE
  5
53
100
AcDbEntity
100
AcDbCircle
  8
Filament Guide Bottom
 62
256
370
-1
  6
ByLayer
 10
9.9999999999999964
 20
8.0000000000000036
 30
0.0
 40
1.45
  0
CIRCLE
  5
54
100
AcDbEntity
100
AcDbCircle
  8
Filament Guide Bottom
 62
256
370
-1
  6
ByLayer
 10
10.0000000000000071
 20
72.4000000000000057
 30
0.0
 40
1.45
  0
CIRCLE
  5
55
100
AcDbEntity
100
AcDbCircle
  8
Filament Guide Bottom
 62
256
370
-1
  6
ByLayer
 10
72.1500000000000057
 20
72.4000000000000057
 30
0.0
 40
1.45
  0
CIRCLE
  5
56
100
AcDbEntity
100
AcDbCircle
  8
Filament Guide Bottom
 62
256
370
-1
  6
ByLayer
 10
72.1500000000000057
 20
7.9999999999999858
 30
0.0
 40
1.45
  0
ARC
  5
57
100
AcDbEntity
  8
Filament Guide Bottom
 62
256
370
-1
  6
ByLayer
100
AcDbCircle
 10
75.0
 20
72.5
 30
0.0
 40
5.0
100
AcDbArc
 50
0.0
 51
90.0
  0
LINE
  5
58
100
AcDbEntity
100
AcDbLine
  8
Filament Guide Bottom
 62
256
370
-1
  6
ByLayer
 10
5.0
 20
77.5
 30
0.0
 11
75.0
 21
77.5
 31
0.0
  0
ARC
  5
59
100
AcDbEntity
  8
Filament Guide Bottom
 62
256
370
-1
  6
ByLayer
100
AcDbCircle
 10
5.0
 20
72.5
 30
0.0
 40
5.0
100
AcDbArc
 50
90.0
 51
180.0
  0
LINE
  5
5A
100
AcDbEntity
100
AcDbLine
  8
Filament Guide Bottom Honeycomb
 62
256
370
-1
  6
ByLayer
 10
74.9999999999999716
 20
66.6138095434042299
 30
0.0
 11
74.9999999999999716
 21
51.8324575672766414
 31
0.0
  0
ARC
  5
5B
100
AcDbEntity
  8
Filament Guide Bottom Honeycomb
 62
256
370
-1
  6
ByLayer
100
AcDbCircle
 10
72.1500000000000057
 20
72.4000000000000199
 30
0.0
 40
6.4499999999998918
100
AcDbArc
 50
179.1116577499620348
 51
296.2226465049216131
  0
ARC
  5
5C
100
AcDbEntity
  8
Filament Guide Bottom Honeycomb
 62
256
370
-1
  6
ByLayer
100
AcDbCircle
 10
53.4999999999999716
 20
35.4999745962155373
 30
0.0
 40
27.0
100
AcDbArc
 50
37.2221338960613224
 51
90.0
  0
LINE
  5
5D
100
AcDbEntity
100
AcDbLine
  8
Filament Guide Bottom Honeycomb
 62
256
370
-1
  6
ByLayer
 10
53.5
 20
62.4999745962155657
 30
0.0
 11
51.4999999999999716
 21
62.4999745962155799
 31
0.0
  0
ARC
  5
5E
100
AcDbEntity
  8
Filament Guide Bottom Honeycomb
 62
256
370
-1
  6
ByLayer
100
AcDbCircle
 10
10.0
 20
72.4000000000000199
 30
0.0
 40
6.4500000000000126
100
AcDbArc
 50
219.1773936864242387
 51
0.888342250037548
  0
LINE
  5
5F
100
AcDbEntity
100
AcDbLine
  8
Filament Guide Bottom Honeycomb
 62
256
370
-1
  6
ByLayer
 10
16.4492247596125836
 20
72.5
 30
0.0
 11
24.3750000000000071
 21
72.5
 31
0.0
  0
LINE
  5
60
100
AcDbEntity
100
AcDbLine
  8
Filament Guide Bottom Honeycomb
 62
256
370
-1
  6
ByLayer
 10
37.6250000000000142
 20
72.5
 30
0.0
 11
65.7007752403876424
 21
72.5
 31
0.0
  0
LINE
  5
61
100
AcDbEntity
100
AcDbLine
  8
Filament Guide Bottom Honeycomb
 62
256
370
-1
  6
ByLayer
 10
4.9999999999999858
 20
12.0746165463758821
 30
0.0
 11
5.0
 21
30.499974596215587
 31
0.0
  0
ARC
  5
62
100
AcDbEntity
  8
Filament Guide Bottom Honeycomb
 62
256
370
-1
  6
ByLayer
100
AcDbCircle
 10
51.5
 20
35.4999745962155586
 30
0.0
 40
26.9999999999999964
100
AcDbArc
 50
90.0
 51
120.92321565535525
  0
LINE
  5
63
100
AcDbEntity
100
AcDbLine
  8
Filament Guide Bottom Honeycomb
 62
256
370
-1
  6
ByLayer
 10
37.6250000000000142
 20
58.6621069462389571
 30
0.0
 11
37.6250000000000142
 21
72.5
 31
0.0
  0
LINE
  5
64
100
AcDbEntity
100
AcDbLine
  8
Filament Guide Bottom Honeycomb
 62
256
370
-1
  6
ByLayer
 10
4.9999999999999929
 20
68.3253834536241271
 30
0.0
 11
5.0
 21
40.4999745962154023
 31
0.0
  0
MTEXT
  5
65
100
AcDbEntity
100
AcDbMText
  8
Filament Guide Bottom Text
 62
256
370
-1
  6
ByLayer
 10
37.0
 20
75.0
 30
0.0
 40
2.0
 41
100.0
 71
5
 72
2
  1
Filament\~Guide\~Bottom
  7
standard
 50
0.0
 73
1
 44
1.0
  0
LINE
  5
66
100
AcDbEntity
100
AcDbLine
  8
Filament Guide Bottom
 62
256
370
-1
  6
ByLayer
 10
42.4249999999999758
 20
9.2999999999999972
 30
0.0
 11
45.3250000000000028
 21
9.2999999999999972
 31
0.0
  0
LINE
  5
67
100
AcDbEntity
100
AcDbLine
  8
Filament Guide Bottom
 62
256
370
-1
  6
ByLayer
 10
45.3250000000000028
 20
9.2999999999999972
 30
0.0
 11
45.3249999999999815
 21
7.0
 31
0.0
  0
LINE
  5
68
100
AcDbEntity
100
AcDbLine
  8
Filament Guide Bottom
 62
256
370
-1
  6
ByLayer
 10
45.3249999999999815
 20
7.0
 30
0.0
 11
42.4250000000000043
 21
7.0
 31
0.0
  0
LINE
  5
69
100
AcDbEntity
100
AcDbLine
  8
Filament Guide Bottom
 62
256
370
-1
  6
ByLayer
 10
42.4250000000000043
 20
7.0
 30
0.0
 11
42.4249999999999758
 21
9.2999999999999972
 31
0.0
  0
LINE
  5
6A
100
AcDbEntity
100
AcDbLine
  8
Filament Guide Bottom
 62
256
370
-1
  6
ByLayer
 10
20.0749999999999922
 20
9.350000000000005
 30
0.0
 11
17.1749999999999901
 21
9.3500000000000156
 31
0.0
  0
LINE
  5
6B
100
AcDbEntity
100
AcDbLine
  8
Filament Guide Bottom
 62
256
370
-1
  6
ByLayer
 10
17.1749999999999901
 20
9.3500000000000156
 30
0.0
 11
17.1750000000000185
 21
7.0
 31
0.0
  0
LINE
  5
6C
100
AcDbEntity
100
AcDbLine
  8
Filament Guide Bottom
 62
256
370
-1
  6
ByLayer
 10
17.1750000000000185
 20
7.0
 30
0.0
 11
20.0749999999999815
 21
7.0000000000000071
 31
0.0
  0
LINE
  5
6D
100
AcDbEntity
100
AcDbLine
  8
Filament Guide Bottom
 62
256
370
-1
  6
ByLayer
 10
20.0749999999999815
 20
7.0000000000000071
 30
0.0
 11
20.0749999999999922
 21
9.350000000000005
 31
0.0
  0
ARC
  5
6E
100
AcDbEntity
  8
Filament Guide Bottom Honeycomb
 62
256
370
-1
  6
ByLayer
100
AcDbCircle
 10
9.9999999999999964
 20
8.0000000000000036
 30
0.0
 40
6.4500000000000002
100
AcDbArc
 50
31.2906619124737198
 51
140.8226063135757329
  0
ARC
  5
6F
100
AcDbEntity
  8
Filament Guide Bottom
 62
256
370
-1
  6
ByLayer
100
AcDbCircle
 10
54.6250000000000142
 20
35.4999745962155657
 30
0.0
 40
21.0
100
AcDbArc
 50
270.0
 51
90.0
  0
LINE
  5
70
100
AcDbEntity
100
AcDbLine
  8
Filament Guide Bottom
 62
256
370
-1
  6
ByLayer
 10
52.6250000000000142
 20
56.4999745962155657
 30
0.0
 11
54.6250000000000142
 21
56.4999745962155657
 31
0.0
  0
LINE
  5
71
100
AcDbEntity
100
AcDbLine
  8
Filament Guide Bottom
 62
256
370
-1
  6
ByLayer
 10
52.6250000000000071
 20
14.4999745962155586
 30
0.0
 11
54.6250000000000213
 21
14.4999745962155657
 31
0.0
  0
LINE
  5
72
100
AcDbEntity
100
AcDbLine
  8
Filament Guide Bottom Honeycomb
 62
256
370
-1
  6
ByLayer
 10
15.51180551180828
 20
11.3499999999999908
 30
0.0
 11
24.3750000000000071
 21
11.3500000000000014
 31
0.0
  0
LINE
  5
73
100
AcDbEntity
100
AcDbLine
  8
Filament Guide Bottom
 62
256
370
-1
  6
ByLayer
 10
79.9999999999999716
 20
2.4999999999999787
 30
0.0
 11
-0.0000000000000071
 21
2.5000000000000142
 31
0.0
  0
LINE
  5
74
100
AcDbEntity
100
AcDbLine
  8
Filament Guide Bottom
 62
256
370
-1
  6
ByLayer
 10
-0.0000000000000071
 20
2.5000000000000142
 30
0.0
 11
0.0
 21
72.5
 31
0.0
  0
LINE
  5
75
100
AcDbEntity
100
AcDbLine
  8
Filament Guide Bottom
 62
256
370
-1
  6
ByLayer
 10
80.0
 20
72.5
 30
0.0
 11
79.9999999999999716
 21
2.4999999999999787
 31
0.0
  0
LINE
  5
76
100
AcDbEntity
100
AcDbLine
  8
Filament Guide Bottom Honeycomb
 62
256
370
-1
  6
ByLayer
 10
5.0
 20
40.4999745962154023
 30
0.0
 11
12.7100637960155183
 21
40.499974596215516
 31
0.0
  0
LINE
  5
77
100
AcDbEntity
100
AcDbLine
  8
Filament Guide Bottom Honeycomb
 62
256
370
-1
  6
ByLayer
 10
12.7100637960155183
 20
30.4999745962155906
 30
0.0
 11
5.0
 21
30.499974596215587
 31
0.0
  0
LINE
  5
78
100
AcDbEntity
100
AcDbLine
  8
Filament Guide Bottom Honeycomb
 62
256
370
-1
  6
ByLayer
 10
24.3750000000000071
 20
72.5
 30
0.0
 11
24.3750000000000142
 21
48.9715882709020889
 31
0.0
  0
ARC
  5
79
100
AcDbEntity
  8
Filament Guide Bottom Honeycomb
 62
256
370
-1
  6
ByLayer
100
AcDbCircle
 10
25.2499999999999716
 20
35.499974596215587
 30
0.0
 40
13.5000000000000018
100
AcDbArc
 50
93.7162203915484895
 51
158.2615392084795474
  0
LINE
  5
7A
100
AcDbEntity
100
AcDbLine
  8
Filament Guide Bottom Honeycomb
 62
256
370
-1
  6
ByLayer
 10
24.3750000000000071
 20
11.3500000000000014
 30
0.0
 11
24.375
 21
22.0283609215290994
 31
0.0
  0
ARC
  5
7B
100
AcDbEntity
  8
Filament Guide Bottom Honeycomb
 62
256
370
-1
  6
ByLayer
100
AcDbCircle
 10
25.2499999999999716
 20
35.499974596215587
 30
0.0
 40
13.5000000000000018
100
AcDbArc
 50
201.7384607915205095
 51
266.2837796084514821
  0
ARC
  5
7C
100
AcDbEntity
  8
Filament Guide Bottom
 62
256
370
-1
  6
ByLayer
100
AcDbCircle
 10
52.3750000000000142
 20
35.4999745962155657
 30
0.0
 40
21.0
100
AcDbArc
 50
191.8581016662791114
 51
270.0
  0
ARC
  5
7D
100
AcDbEntity
  8
Filament Guide Bottom
 62
256
370
-1
  6
ByLayer
100
AcDbCircle
 10
52.3750000000000142
 20
35.4999745962155657
 30
0.0
 40
21.0
100
AcDbArc
 50
90.0
 51
168.1418983337208886
  0
ARC
  5
7E
100
AcDbEntity
  8
Filament Guide Bottom
 62
256
370
-1
  6
ByLayer
100
AcDbCircle
 10
24.5000000000000071
 20
35.4999745962155657
 30
0.0
 40
8.5
100
AcDbArc
 50
30.5092641657752708
 51
329.4907358342247221
  0
CIRCLE
  5
7F
100
AcDbEntity
100
AcDbCircle
  8
Filament Guide Top
 62
256
370
-1
  6
ByLayer
 10
90.0
 20
8.0000000000000036
 30
0.0
 40
1.45
  0
CIRCLE
  5
80
100
AcDbEntity
100
AcDbCircle
  8
Filament Guide Top
 62
256
370
-1
  6
ByLayer
 10
90.0
 20
72.4000000000000199
 30
0.0
 40
1.45
  0
CIRCLE
  5
81
100
AcDbEntity
100
AcDbCircle
  8
Filament Guide Top
 62
256
370
-1
  6
ByLayer
 10
152.1500000000000057
 20
72.4000000000000057
 30
0.0
 40
1.45
  0
CIRCLE
  5
82
100
AcDbEntity
100
AcDbCircle
  8
Filament Guide Top
 62
256
370
-1
  6
ByLayer
 10
152.1500000000000057
 20
7.9999999999999787
 30
0.0
 40
1.45
  0
ARC
  5
83
100
AcDbEntity
  8
Filament Guide Top
 62
256
370
-1
  6
ByLayer
100
AcDbCircle
 10
155.0
 20
72.5
 30
0.0
 40
5.0
100
AcDbArc
 50
0.0
 51
90.0
  0
LINE
  5
84
100
AcDbEntity
100
AcDbLine
  8
Filament Guide Top
 62
256
370
-1
  6
ByLayer
 10
85.0
 20
77.5
 30
0.0
 11
155.0
 21
77.5
 31
0.0
  0
ARC
  5
85
100
AcDbEntity
  8
Filament Guide Top
 62
256
370
-1
  6
ByLayer
100
AcDbCircle
 10
85.0
 20
72.5
 30
0.0
 40
5.0
100
AcDbArc
 50
90.0
 51
180.0
  0
LINE
  5
86
100
AcDbEntity
100
AcDbLine
  8
Filament Guide Top
 62
256
370
-1
  6
ByLayer
 10
122.4249999999999829
 20
9.3000000000000185
 30
0.0
 11
125.3249999999999744
 21
9.3000000000000149
 31
0.0
  0
LINE
  5
87
100
AcDbEntity
100
AcDbLine
  8
Filament Guide Top
 62
256
370
-1
  6
ByLayer
 10
125.3249999999999744
 20
9.3000000000000149
 30
0.0
 11
125.3249999999999744
 21
7.0000000000000213
 31
0.0
  0
LINE
  5
88
100
AcDbEntity
100
AcDbLine
  8
Filament Guide Top
 62
256
370
-1
  6
ByLayer
 10
125.3249999999999744
 20
7.0000000000000213
 30
0.0
 11
122.4249999999999687
 21
7.0000000000000213
 31
0.0
  0
LINE
  5
89
100
AcDbEntity
100
AcDbLine
  8
Filament Guide Top
 62
256
370
-1
  6
ByLayer
 10
122.4249999999999687
 20
7.0000000000000213
 30
0.0
 11
122.4249999999999829
 21
9.3000000000000185
 31
0.0
  0
LINE
  5
8A
100
AcDbEntity
100
AcDbLine
  8
Filament Guide Top
 62
256
370
-1
  6
ByLayer
 10
97.1749999999999972
 20
9.3500000000000227
 30
0.0
 11
100.0750000000000028
 21
9.3500000000000192
 31
0.0
  0
LINE
  5
8B
100
AcDbEntity
100
AcDbLine
  8
Filament Guide Top
 62
256
370
-1
  6
ByLayer
 10
100.0750000000000028
 20
9.3500000000000192
 30
0.0
 11
100.0749999999999886
 21
7.0000000000000213
 31
0.0
  0
LINE
  5
8C
100
AcDbEntity
100
AcDbLine
  8
Filament Guide Top
 62
256
370
-1
  6
ByLayer
 10
100.0749999999999886
 20
7.0000000000000213
 30
0.0
 11
97.1749999999999972
 21
7.0000000000000213
 31
0.0
  0
LINE
  5
8D
100
AcDbEntity
100
AcDbLine
  8
Filament Guide Top
 62
256
370
-1
  6
ByLayer
 10
97.1749999999999972
 20
7.0000000000000213
 30
0.0
 11
97.1749999999999972
 21
9.3500000000000227
 31
0.0
  0
LINE
  5
8E
100
AcDbEntity
100
AcDbLine
  8
Filament Guide Top Honeycomb
 62
256
370
-1
  6
ByLayer
 10
105.0750000000000028
 20
8.0000000000000213
 30
0.0
 11
105.0750000000000171
 21
14.3500000000000227
 31
0.0
  0
LINE
  5
8F
100
AcDbEntity
100
AcDbLine
  8
Filament Guide Top Honeycomb
 62
256
370
-1
  6
ByLayer
 10
155.0
 20
66.6138095434042441
 30
0.0
 11
155.0
 21
51.8324575672766557
 31
0.0
  0
ARC
  5
90
100
AcDbEntity
  8
Filament Guide Top Honeycomb
 62
256
370
-1
  6
ByLayer
100
AcDbCircle
 10
152.1500000000000341
 20
72.4000000000000341
 30
0.0
 40
6.4499999999998918
100
AcDbArc
 50
179.1116577499620348
 51
296.2226465049216131
  0
ARC
  5
91
100
AcDbEntity
  8
Filament Guide Top Honeycomb
 62
256
370
-1
  6
ByLayer
100
AcDbCircle
 10
133.5
 20
35.4999745962155657
 30
0.0
 40
27.0
100
AcDbArc
 50
37.2221338960613224
 51
90.0
  0
LINE
  5
92
100
AcDbEntity
100
AcDbLine
  8
Filament Guide Top Honeycomb
 62
256
370
-1
  6
ByLayer
 10
133.5
 20
62.4999745962155799
 30
0.0
 11
131.5
 21
62.499974596215587
 31
0.0
  0
LINE
  5
93
100
AcDbEntity
100
AcDbLine
  8
Filament Guide Top Honeycomb
 62
256
370
-1
  6
ByLayer
 10
105.0750000000000171
 20
14.3500000000000227
 30
0.0
 11
88.8686291501014978
 21
14.3500000000000192
 31
0.0
  0
ARC
  5
94
100
AcDbEntity
  8
Filament Guide Top Honeycomb
 62
256
370
-1
  6
ByLayer
100
AcDbCircle
 10
90.0
 20
8.0000000000000249
 30
0.0
 40
6.4500000000000002
100
AcDbArc
 50
100.1023050560360872
 51
140.8226063135759034
  0
LINE
  5
95
100
AcDbEntity
100
AcDbLine
  8
Filament Guide Top Honeycomb
 62
256
370
-1
  6
ByLayer
 10
85.0000000000000142
 20
53.0734330202138835
 30
0.0
 11
92.6499999999999915
 21
48.6567041293047922
 31
0.0
  0
LINE
  5
96
100
AcDbEntity
100
AcDbLine
  8
Filament Guide Top Honeycomb
 62
256
370
-1
  6
ByLayer
 10
92.6499999999999915
 20
48.6567041293047922
 30
0.0
 11
92.6499999999999915
 21
40.9522676917855861
 31
0.0
  0
LINE
  5
97
100
AcDbEntity
100
AcDbLine
  8
Filament Guide Top Honeycomb
 62
256
370
-1
  6
ByLayer
 10
92.6499999999999915
 20
30.0476815006456803
 30
0.0
 11
92.6499999999999773
 21
22.343245063126389
 31
0.0
  0
LINE
  5
98
100
AcDbEntity
100
AcDbLine
  8
Filament Guide Top Honeycomb
 62
256
370
-1
  6
ByLayer
 10
92.6499999999999773
 20
22.343245063126389
 30
0.0
 11
85.0000000000000142
 21
17.9265161722172977
 31
0.0
  0
LINE
  5
99
100
AcDbEntity
100
AcDbLine
  8
Filament Guide Top Honeycomb
 62
256
370
-1
  6
ByLayer
 10
85.0000000000000142
 20
17.9265161722172977
 30
0.0
 11
85.0
 21
12.0746165463758999
 31
0.0
  0
ARC
  5
9A
100
AcDbEntity
  8
Filament Guide Top Honeycomb
 62
256
370
-1
  6
ByLayer
100
AcDbCircle
 10
105.0000000000000142
 20
35.4999745962156013
 30
0.0
 40
13.5000000000000018
100
AcDbArc
 50
79.8674542309601776
 51
156.1794419776694269
  0
LINE
  5
9B
100
AcDbEntity
100
AcDbLine
  8
Filament Guide Top Honeycomb
 62
256
370
-1
  6
ByLayer
 10
107.375
 20
72.5000000000000284
 30
0.0
 11
107.375
 21
48.7894205967078776
 31
0.0
  0
LINE
  5
9C
100
AcDbEntity
100
AcDbLine
  8
Filament Guide Top Honeycomb
 62
256
370
-1
  6
ByLayer
 10
107.375
 20
72.5000000000000284
 30
0.0
 11
96.4492247596126049
 21
72.5000000000000284
 31
0.0
  0
LINE
  5
9D
100
AcDbEntity
100
AcDbLine
  8
Filament Guide Top Honeycomb
 62
256
370
-1
  6
ByLayer
 10
114.625
 20
72.5000000000000142
 30
0.0
 11
145.7007752403875429
 21
72.5000000000000284
 31
0.0
  0
LINE
  5
9E
100
AcDbEntity
100
AcDbLine
  8
Filament Guide Top Honeycomb
 62
256
370
-1
  6
ByLayer
 10
114.625
 20
72.5000000000000142
 30
0.0
 11
114.625
 21
56.5768428408101585
 31
0.0
  0
ARC
  5
9F
100
AcDbEntity
  8
Filament Guide Top Honeycomb
 62
256
370
-1
  6
ByLayer
100
AcDbCircle
 10
131.5
 20
35.4999745962155799
 30
0.0
 40
26.9999999999999964
100
AcDbArc
 50
90.0
 51
128.6821874534894619
  0
ARC
  5
A0
100
AcDbEntity
  8
Filament Guide Top Honeycomb
 62
256
370
-1
  6
ByLayer
100
AcDbCircle
 10
105.0000000000000142
 20
35.4999745962156013
 30
0.0
 40
13.5000000000000018
100
AcDbArc
 50
203.8205580223305731
 51
280.1325457690397798
  0
LINE
  5
A1
100
AcDbEntity
100
AcDbLine
  8
Filament Guide Top Honeycomb
 62
256
370
-1
  6
ByLayer
 10
107.3749999999999858
 20
22.2105285957233285
 30
0.0
 11
107.3749999999999716
 21
8.0000000000000213
 31
0.0
  0
LINE
  5
A2
100
AcDbEntity
100
AcDbLine
  8
Filament Guide Top Honeycomb
 62
256
370
-1
  6
ByLayer
 10
105.0750000000000028
 20
8.0000000000000213
 30
0.0
 11
107.3749999999999716
 21
8.0000000000000213
 31
0.0
  0
MTEXT
  5
A3
100
AcDbEntity
100
AcDbMText
  8
Filament Guide Top Text
 62
256
370
-1
  6
ByLayer
 10
120.9999999999999858
 20
75.0000000000000284
 30
0.0
 40
2.0
 41
100.0
 71
5
 72
2
  1
Filament\~Guide\~Top
  7
standard
 50
0.0
 73
1
 44
1.0
  0
ARC
  5
A4
100
AcDbEntity
  8
Filament Guide Top Honeycomb
 62
256
370
-1
  6
ByLayer
100
AcDbCircle
 10
90.0000000000000284
 20
72.4000000000000341
 30
0.0
 40
6.4500000000000126
100
AcDbArc
 50
219.1773936864244376
 51
0.888342250037548
  0
LINE
  5
A5
100
AcDbEntity
100
AcDbLine
  8
Filament Guide Top Honeycomb
 62
256
370
-1
  6
ByLayer
 10
85.0000000000000142
 20
53.0734330202138835
 30
0.0
 11
85.0000000000000142
 21
68.3253834536241413
 31
0.0
  0
ARC
  5
A6
100
AcDbEntity
  8
Filament Guide Top
 62
256
370
-1
  6
ByLayer
100
AcDbCircle
 10
134.625
 20
35.4999745962155728
 30
0.0
 40
21.0
100
AcDbArc
 50
270.0
 51
90.0
  0
LINE
  5
A7
100
AcDbEntity
100
AcDbLine
  8
Filament Guide Top
 62
256
370
-1
  6
ByLayer
 10
132.625
 20
56.499974596215587
 30
0.0
 11
134.6250000000000284
 21
56.4999745962155799
 31
0.0
  0
LINE
  5
A8
100
AcDbEntity
100
AcDbLine
  8
Filament Guide Top
 62
256
370
-1
  6
ByLayer
 10
132.625
 20
14.499974596215587
 30
0.0
 11
134.625
 21
14.4999745962155906
 31
0.0
  0
LINE
  5
A9
100
AcDbEntity
100
AcDbLine
  8
Filament Guide Top
 62
256
370
-1
  6
ByLayer
 10
160.0
 20
2.4999999999999716
 30
0.0
 11
79.9999999999999716
 21
2.5000000000000284
 31
0.0
  0
ARC
  5
AA
100
AcDbEntity
  8
Filament Guide Top
 62
256
370
-1
  6
ByLayer
100
AcDbCircle
 10
132.375
 20
35.4999745962155799
 30
0.0
 40
21.0
100
AcDbArc
 50
192.6940078568220258
 51
270.0
  0
ARC
  5
AB
100
AcDbEntity
  8
Filament Guide Top
 62
256
370
-1
  6
ByLayer
100
AcDbCircle
 10
132.375
 20
35.4999745962155799
 30
0.0
 40
21.0
100
AcDbArc
 50
90.0
 51
167.3059921431779742
  0
ARC
  5
AC
100
AcDbEntity
  8
Filament Guide Top
 62
256
370
-1
  6
ByLayer
100
AcDbCircle
 10
104.7499999999999574
 20
35.4999745962155941
 30
0.0
 40
8.5
100
AcDbArc
 50
32.8810949883045964
 51
327.1189050116954036
  0
MTEXT
  5
AD
100
AcDbEntity
100
AcDbMText
  8
Idler Wheel Text
 62
256
370
-1
  6
ByLayer
 10
132.875
 20
21.0000000000000178
 30
0.0
 40
3.0
 41
100.0
 71
5
 72
2
  1
Wheel
  7
standard
 50
0.0
 73
1
 44
1.0
  0
MTEXT
  5
AE
100
AcDbEntity
100
AcDbMText
  8
Idler Wheel Text
 62
256
370
-1
  6
ByLayer
 10
132.875
 20
50.0000000000000213
 30
0.0
 40
3.0
 41
100.0
 71
5
 72
2
  1
Idler
  7
standard
 50
0.0
 73
1
 44
1.0
  0
CIRCLE
  5
AF
100
AcDbEntity
100
AcDbCircle
  8
Idler Wheel
 62
256
370
-1
  6
ByLayer
 10
132.375
 20
35.4999745962155799
 30
0.0
 40
10.9499999999999993
  0
CIRCLE
  5
B0
100
AcDbEntity
100
AcDbCircle
  8
Idler Wheel
 62
256
370
-1
  6
ByLayer
 10
132.375
 20
35.4999745962155799
 30
0.0
 40
20.5
  0
LINE
  5
B1
100
AcDbEntity
100
AcDbLine
  8
Filament Guide Top
 62
256
370
-1
  6
ByLayer
 10
84.75
 20
47.2999305467462463
 30
0.0
 11
82.0999999999999943
 21
45.7699525649280972
 31
0.0
  0
LINE
  5
B2
100
AcDbEntity
100
AcDbLine
  8
Filament Guide Top
 62
256
370
-1
  6
ByLayer
 10
84.75
 20
47.2999305467462463
 30
0.0
 11
87.4000000000000057
 21
45.7699525649280332
 31
0.0
  0
LINE
  5
B3
100
AcDbEntity
100
AcDbLine
  8
Filament Guide Top
 62
256
370
-1
  6
ByLayer
 10
87.4000000000000057
 20
45.7699525649280332
 30
0.0
 11
87.4000000000000057
 21
42.7099966275031093
 31
0.0
  0
LINE
  5
B4
100
AcDbEntity
100
AcDbLine
  8
Filament Guide Top
 62
256
370
-1
  6
ByLayer
 10
87.4000000000000057
 20
42.7099966275031093
 30
0.0
 11
84.75
 21
41.1800186456848607
 31
0.0
  0
LINE
  5
B5
100
AcDbEntity
100
AcDbLine
  8
Filament Guide Top
 62
256
370
-1
  6
ByLayer
 10
82.0999999999999943
 20
45.7699525649280972
 30
0.0
 11
82.0999999999999943
 21
42.7099966275031377
 31
0.0
  0
LINE
  5
B6
100
AcDbEntity
100
AcDbLine
  8
Filament Guide Top
 62
256
370
-1
  6
ByLayer
 10
82.0999999999999943
 20
42.7099966275031377
 30
0.0
 11
84.75
 21
41.1800186456848607
 31
0.0
  0
LINE
  5
B7
100
AcDbEntity
100
AcDbLine
  8
Filament Guide Top
 62
256
370
-1
  6
ByLayer
 10
84.75
 20
29.819930546746253
 30
0.0
 11
82.0999999999999943
 21
28.2899525649280505
 31
0.0
  0
LINE
  5
B8
100
AcDbEntity
100
AcDbLine
  8
Filament Guide Top
 62
256
370
-1
  6
ByLayer
 10
84.75
 20
29.819930546746253
 30
0.0
 11
87.4000000000000057
 21
28.2899525649280434
 31
0.0
  0
LINE
  5
B9
100
AcDbEntity
100
AcDbLine
  8
Filament Guide Top
 62
256
370
-1
  6
ByLayer
 10
87.4000000000000057
 20
28.2899525649280434
 30
0.0
 11
87.4000000000000057
 21
25.2299966275031267
 31
0.0
  0
LINE
  5
BA
100
AcDbEntity
100
AcDbLine
  8
Filament Guide Top
 62
256
370
-1
  6
ByLayer
 10
87.4000000000000057
 20
25.2299966275031267
 30
0.0
 11
84.75
 21
23.7000186456849526
 31
0.0
  0
LINE
  5
BB
100
AcDbEntity
100
AcDbLine
  8
Filament Guide Top
 62
256
370
-1
  6
ByLayer
 10
82.0999999999999943
 20
28.2899525649280505
 30
0.0
 11
82.0999999999999943
 21
25.2299966275031373
 31
0.0
  0
LINE
  5
BC
100
AcDbEntity
100
AcDbLine
  8
Filament Guide Top
 62
256
370
-1
  6
ByLayer
 10
82.0999999999999943
 20
25.2299966275031373
 30
0.0
 11
84.75
 21
23.7000186456849526
 31
0.0
  0
ARC
  5
BD
100
AcDbEntity
  8
Retainer Plate
 62
256
370
-1
  6
ByLayer
100
AcDbCircle
 10
235.0
 20
72.5
 30
0.0
 40
5.0
100
AcDbArc
 50
0.0
 51
90.0
  0
LINE
  5
BE
100
AcDbEntity
100
AcDbLine
  8
Retainer Plate
 62
256
370
-1
  6
ByLayer
 10
165.0
 20
77.4999999999999716
 30
0.0
 11
235.0
 21
77.5
 31
0.0
  0
ARC
  5
BF
100
AcDbEntity
  8
Retainer Plate
 62
256
370
-1
  6
ByLayer
100
AcDbCircle
 10
165.0
 20
72.5
 30
0.0
 40
5.0
100
AcDbArc
 50
90.0
 51
180.0
  0
MTEXT
  5
C0
100
AcDbEntity
100
AcDbMText
  8
Retainer Plate Text
 62
256
370
-1
  6
ByLayer
 10
176.0
 20
57.4000000000000057
 30
0.0
 40
2.0
 41
100.0
 71
1
 72
2
  1
Retainer\~Plate
  7
standard
 50
0.0
 73
1
 44
1.0
  0
LINE
  5
C1
100
AcDbEntity
100
AcDbLine
  8
Retainer Plate
 62
256
370
-1
  6
ByLayer
 10
166.9400440494693498
 20
72.4000000000000057
 30
0.0
 11
168.4700220312875558
 21
69.75
 31
0.0
  0
LINE
  5
C2
100
AcDbEntity
100
AcDbLine
  8
Retainer Plate
 62
256
370
-1
  6
ByLayer
 10
166.9400440494693498
 20
72.4000000000000057
 30
0.0
 11
168.4700220312875274
 21
75.0500000000000114
 31
0.0
  0
LINE
  5
C3
100
AcDbEntity
100
AcDbLine
  8
Retainer Plate
 62
256
370
-1
  6
ByLayer
 10
168.4700220312875274
 20
75.0500000000000114
 30
0.0
 11
171.5299779687124726
 21
75.0500000000000114
 31
0.0
  0
LINE
  5
C4
100
AcDbEntity
100
AcDbLine
  8
Retainer Plate
 62
256
370
-1
  6
ByLayer
 10
171.5299779687124726
 20
75.0500000000000114
 30
0.0
 11
173.0599559505306502
 21
72.4000000000000057
 31
0.0
  0
LINE
  5
C5
100
AcDbEntity
100
AcDbLine
  8
Retainer Plate
 62
256
370
-1
  6
ByLayer
 10
168.4700220312875558
 20
69.75
 30
0.0
 11
171.5299779687124442
 21
69.75
 31
0.0
  0
LINE
  5
C6
100
AcDbEntity
100
AcDbLine
  8
Retainer Plate
 62
256
370
-1
  6
ByLayer
 10
171.5299779687124442
 20
69.75
 30
0.0
 11
173.0599559505306502
 21
72.4000000000000057
 31
0.0
  0
LINE
  5
C7
100
AcDbEntity
100
AcDbLine
  8
Retainer Plate
 62
256
370
-1
  6
ByLayer
 10
229.0900440494693555
 20
72.4000000000000057
 30
0.0
 11
230.6200220312875331
 21
69.75
 31
0.0
  0
LINE
  5
C8
100
AcDbEntity
100
AcDbLine
  8
Retainer Plate
 62
256
370
-1
  6
ByLayer
 10
229.0900440494693555
 20
72.4000000000000057
 30
0.0
 11
230.6200220312875331
 21
75.0500000000000114
 31
0.0
  0
LINE
  5
C9
100
AcDbEntity
100
AcDbLine
  8
Retainer Plate
 62
256
370
-1
  6
ByLayer
 10
230.6200220312875331
 20
75.0500000000000114
 30
0.0
 11
233.6799779687124783
 21
75.0500000000000114
 31
0.0
  0
LINE
  5
CA
100
AcDbEntity
100
AcDbLine
  8
Retainer Plate
 62
256
370
-1
  6
ByLayer
 10
233.6799779687124783
 20
75.0500000000000114
 30
0.0
 11
235.2099559505306559
 21
72.4000000000000057
 31
0.0
  0
LINE
  5
CB
100
AcDbEntity
100
AcDbLine
  8
Retainer Plate
 62
256
370
-1
  6
ByLayer
 10
230.6200220312875331
 20
69.75
 30
0.0
 11
233.6799779687124783
 21
69.75
 31
0.0
  0
LINE
  5
CC
100
AcDbEntity
100
AcDbLine
  8
Retainer Plate
 62
256
370
-1
  6
ByLayer
 10
233.6799779687124783
 20
69.75
 30
0.0
 11
235.2099559505306559
 21
72.4000000000000057
 31
0.0
  0
LINE
  5
CD
100
AcDbEntity
100
AcDbLine
  8
Retainer Plate
 62
256
370
-1
  6
ByLayer
 10
229.0900440494693555
 20
8.0
 30
0.0
 11
230.6200220312875331
 21
5.3499999999999872
 31
0.0
  0
LINE
  5
CE
100
AcDbEntity
100
AcDbLine
  8
Retainer Plate
 62
256
370
-1
  6
ByLayer
 10
229.0900440494693555
 20
8.0
 30
0.0
 11
230.6200220312875331
 21
10.6499999999999879
 31
0.0
  0
LINE
  5
CF
100
AcDbEntity
100
AcDbLine
  8
Retainer Plate
 62
256
370
-1
  6
ByLayer
 10
230.6200220312875331
 20
10.6499999999999879
 30
0.0
 11
233.6799779687124783
 21
10.6500000000000092
 31
0.0
  0
LINE
  5
D0
100
AcDbEntity
100
AcDbLine
  8
Retainer Plate
 62
256
370
-1
  6
ByLayer
 10
233.6799779687124783
 20
10.6500000000000092
 30
0.0
 11
235.2099559505306559
 21
8.0
 31
0.0
  0
LINE
  5
D1
100
AcDbEntity
100
AcDbLine
  8
Retainer Plate
 62
256
370
-1
  6
ByLayer
 10
230.6200220312875331
 20
5.3499999999999872
 30
0.0
 11
233.6799779687124783
 21
5.3500000000000014
 31
0.0
  0
LINE
  5
D2
100
AcDbEntity
100
AcDbLine
  8
Retainer Plate
 62
256
370
-1
  6
ByLayer
 10
233.6799779687124783
 20
5.3500000000000014
 30
0.0
 11
235.2099559505306559
 21
8.0
 31
0.0
  0
LINE
  5
D3
100
AcDbEntity
100
AcDbLine
  8
Retainer Plate
 62
256
370
-1
  6
ByLayer
 10
166.9400440494693498
 20
8.0000000000000071
 30
0.0
 11
168.4700220312875274
 21
5.3500000000000014
 31
0.0
  0
LINE
  5
D4
100
AcDbEntity
100
AcDbLine
  8
Retainer Plate
 62
256
370
-1
  6
ByLayer
 10
166.9400440494693498
 20
8.0000000000000071
 30
0.0
 11
168.4700220312875274
 21
10.6500000000000234
 31
0.0
  0
LINE
  5
D5
100
AcDbEntity
100
AcDbLine
  8
Retainer Plate
 62
256
370
-1
  6
ByLayer
 10
168.4700220312875274
 20
10.6500000000000234
 30
0.0
 11
171.5299779687124726
 21
10.6500000000000163
 31
0.0
  0
LINE
  5
D6
100
AcDbEntity
100
AcDbLine
  8
Retainer Plate
 62
256
370
-1
  6
ByLayer
 10
171.5299779687124726
 20
10.6500000000000163
 30
0.0
 11
173.0599559505306217
 21
8.0000000000000213
 31
0.0
  0
LINE
  5
D7
100
AcDbEntity
100
AcDbLine
  8
Retainer Plate
 62
256
370
-1
  6
ByLayer
 10
168.4700220312875274
 20
5.3500000000000014
 30
0.0
 11
171.5299779687124726
 21
5.3499999999999872
 31
0.0
  0
LINE
  5
D8
100
AcDbEntity
100
AcDbLine
  8
Retainer Plate
 62
256
370
-1
  6
ByLayer
 10
171.5299779687124726
 20
5.3499999999999872
 30
0.0
 11
173.0599559505306217
 21
8.0000000000000213
 31
0.0
  0
ARC
  5
D9
100
AcDbEntity
  8
Retainer Plate
 62
256
370
-1
  6
ByLayer
100
AcDbCircle
 10
214.6250000000000284
 20
35.4999745962155657
 30
0.0
 40
4.0
100
AcDbArc
 50
270.0
 51
90.0
  0
MTEXT
  5
DA
100
AcDbEntity
100
AcDbMText
  8
Retainer Plate Text
 62
256
370
-1
  6
ByLayer
 10
202.5
 20
67.4000000000000057
 30
0.0
 40
3.0
 41
100.0
 71
5
 72
2
  1
Pinch\~Wheel\~Extruder\~v1.2
  7
standard
 50
0.0
 73
1
 44
1.0
  0
LINE
  5
DB
100
AcDbEntity
100
AcDbLine
  8
Retainer Plate
 62
256
370
-1
  6
ByLayer
 10
239.9999999999999716
 20
2.4999999999999787
 30
0.0
 11
160.0
 21
2.5000000000000142
 31
0.0
  0
LINE
  5
DC
100
AcDbEntity
100
AcDbLine
  8
Retainer Plate
 62
256
370
-1
  6
ByLayer
 10
160.0
 20
2.5000000000000142
 30
0.0
 11
160.0
 21
72.4999999999999858
 31
0.0
  0
CIRCLE
  5
DD
100
AcDbEntity
100
AcDbCircle
  8
Retainer Plate
 62
256
370
-1
  6
ByLayer
 10
184.75
 20
35.4999745962155799
 30
0.0
 40
3.1000000000000001
  0
ARC
  5
DE
100
AcDbEntity
  8
Retainer Plate
 62
256
370
-1
  6
ByLayer
100
AcDbCircle
 10
212.375
 20
35.4999745962155657
 30
0.0
 40
4.0
100
AcDbArc
 50
90.0
 51
270.0
  0
LINE
  5
DF
100
AcDbEntity
100
AcDbLine
  8
Retainer Plate
 62
256
370
-1
  6
ByLayer
 10
212.375
 20
39.4999745962155586
 30
0.0
 11
214.625
 21
39.4999745962155302
 31
0.0
  0
LINE
  5
E0
100
AcDbEntity
100
AcDbLine
  8
Retainer Plate
 62
256
370
-1
  6
ByLayer
 10
214.625
 20
31.4999745962155586
 30
0.0
 11
212.375
 21
31.4999745962155657
 31
0.0
  0
CIRCLE
  5
E1
100
AcDbEntity
100
AcDbCircle
  8
Retainer Plate
 62
256
370
-1
  6
ByLayer
 10
164.75
 20
44.239974596215589
 30
0.0
 40
1.45
  0
CIRCLE
  5
E2
100
AcDbEntity
100
AcDbCircle
  8
Retainer Plate
 62
256
370
-1
  6
ByLayer
 10
164.75
 20
26.7599745962155851
 30
0.0
 40
1.45
  0
MTEXT
  5
E3
100
AcDbEntity
100
AcDbMText
  8
Retainer Plate Text
 62
256
370
-1
  6
ByLayer
 10
176.0
 20
64.4000000000000057
 30
0.0
 40
2.0
 41
100.0
 71
1
 72
2
  1
go.makerbot.com/plastruder-mk3
  7
standard
 50
0.0
 73
1
 44
1.0
  0
CIRCLE
  5
E4
100
AcDbEntity
100
AcDbCircle
  8
Spacer Plate
 62
256
370
-1
  6
ByLayer
 10
250.0
 20
8.0000000000000036
 30
0.0
 40
1.45
  0
CIRCLE
  5
E5
100
AcDbEntity
100
AcDbCircle
  8
Spacer Plate
 62
256
370
-1
  6
ByLayer
 10
250.0
 20
72.4000000000000057
 30
0.0
 40
1.45
  0
CIRCLE
  5
E6
100
AcDbEntity
100
AcDbCircle
  8
Spacer Plate
 62
256
370
-1
  6
ByLayer
 10
312.1499999999999773
 20
72.4000000000000057
 30
0.0
 40
1.45
  0
CIRCLE
  5
E7
100
AcDbEntity
100
AcDbCircle
  8
Spacer Plate
 62
256
370
-1
  6
ByLayer
 10
312.1499999999999773
 20
7.9999999999999858
 30
0.0
 40
1.45
  0
ARC
  5
E8
100
AcDbEntity
  8
Spacer Plate
 62
256
370
-1
  6
ByLayer
100
AcDbCircle
 10
315.0
 20
72.5
 30
0.0
 40
5.0
100
AcDbArc
 50
0.0
 51
90.0
  0
LINE
  5
E9
100
AcDbEntity
100
AcDbLine
  8
Spacer Plate
 62
256
370
-1
  6
ByLayer
 10
315.0
 20
77.5
 30
0.0
 11
245.0
 21
77.5
 31
0.0
  0
ARC
  5
EA
100
AcDbEntity
  8
Spacer Plate
 62
256
370
-1
  6
ByLayer
100
AcDbCircle
 10
245.0
 20
72.5
 30
0.0
 40
5.0
100
AcDbArc
 50
90.0
 51
180.0
  0
LINE
  5
EB
100
AcDbEntity
100
AcDbLine
  8
Spacer Plate Honeycomb
 62
256
370
-1
  6
ByLayer
 10
256.4492247596126617
 20
72.5
 30
0.0
 11
277.9959862385326232
 21
72.5
 31
0.0
  0
LINE
  5
EC
100
AcDbEntity
100
AcDbLine
  8
Spacer Plate Honeycomb
 62
256
370
-1
  6
ByLayer
 10
282.6806192660556007
 20
72.5
 30
0.0
 11
305.7007752403874292
 21
72.5
 31
0.0
  0
LINE
  5
ED
100
AcDbEntity
100
AcDbLine
  8
Spacer Plate Honeycomb
 62
256
370
-1
  6
ByLayer
 10
315.0
 20
66.6138095434043009
 30
0.0
 11
315.0
 21
37.75
 31
0.0
  0
LINE
  5
EE
100
AcDbEntity
100
AcDbLine
  8
Spacer Plate Honeycomb
 62
256
370
-1
  6
ByLayer
 10
315.0
 20
33.1573471396398247
 30
0.0
 11
315.0
 21
13.7861904565957794
 31
0.0
  0
LINE
  5
EF
100
AcDbEntity
100
AcDbLine
  8
Spacer Plate Honeycomb
 62
256
370
-1
  6
ByLayer
 10
305.7000000000000455
 20
7.9999999999999929
 30
0.0
 11
282.6806192660556007
 21
7.9999999999999929
 31
0.0
  0
LINE
  5
F0
100
AcDbEntity
100
AcDbLine
  8
Spacer Plate Honeycomb
 62
256
370
-1
  6
ByLayer
 10
277.9959862385326232
 20
8.0
 30
0.0
 11
256.4499999999999886
 21
8.0000000000000107
 31
0.0
  0
ARC
  5
F1
100
AcDbEntity
  8
Spacer Plate Honeycomb
 62
256
370
-1
  6
ByLayer
100
AcDbCircle
 10
312.1499999999999773
 20
72.4000000000000057
 30
0.0
 40
6.4499999999999913
100
AcDbArc
 50
179.1116577499624611
 51
296.2226465049216131
  0
ARC
  5
F2
100
AcDbEntity
  8
Spacer Plate Honeycomb
 62
256
370
-1
  6
ByLayer
100
AcDbCircle
 10
312.1499999999999773
 20
7.9999999999999858
 30
0.0
 40
6.4499999999999966
100
AcDbArc
 50
63.7773534950783656
 51
180.0
  0
ARC
  5
F3
100
AcDbEntity
  8
Spacer Plate Honeycomb
 62
256
370
-1
  6
ByLayer
100
AcDbCircle
 10
250.0
 20
8.0000000000000036
 30
0.0
 40
6.4499999999999984
100
AcDbArc
 50
89.9591649907429769
 51
140.8226063135749371
  0
ARC
  5
F4
100
AcDbEntity
  8
Spacer Plate Honeycomb
 62
256
370
-1
  6
ByLayer
100
AcDbCircle
 10
250.0
 20
8.0000000000000036
 30
0.0
 40
6.4500000000000028
100
AcDbArc
 50
0.0
 51
34.5236696115239283
  0
ARC
  5
F5
100
AcDbEntity
  8
Spacer Plate Honeycomb
 62
256
370
-1
  6
ByLayer
100
AcDbCircle
 10
250.0
 20
72.4000000000000057
 30
0.0
 40
6.4499999999999993
100
AcDbArc
 50
219.1773936864241819
 51
259.8773436619745212
  0
ARC
  5
F6
100
AcDbEntity
  8
Spacer Plate Honeycomb
 62
256
370
-1
  6
ByLayer
100
AcDbCircle
 10
250.0
 20
72.4000000000000057
 30
0.0
 40
6.4500000000000082
100
AcDbArc
 50
315.3128390411935129
 51
0.888342250037548
  0
MTEXT
  5
F7
100
AcDbEntity
100
AcDbMText
  8
Spacer Plate Text
 62
256
370
-1
  6
ByLayer
 10
281.0
 20
75.0
 30
0.0
 40
3.0
 41
100.0
 71
5
 72
2
  1
Spacer\~Plate
  7
standard
 50
0.0
 73
1
 44
1.0
  0
ARC
  5
F8
100
AcDbEntity
  8
Spacer Plate
 62
256
370
-1
  6
ByLayer
100
AcDbCircle
 10
294.625
 20
35.4999745962155657
 30
0.0
 40
4.0
100
AcDbArc
 50
270.0
 51
90.0
  0
LINE
  5
F9
100
AcDbEntity
100
AcDbLine
  8
Spacer Plate Honeycomb
 62
256
370
-1
  6
ByLayer
 10
292.625
 20
44.4999745962155728
 30
0.0
 11
294.625
 21
44.4999745962155728
 31
0.0
  0
LINE
  5
FA
100
AcDbEntity
100
AcDbLine
  8
Spacer Plate Honeycomb
 62
256
370
-1
  6
ByLayer
 10
294.625
 20
26.4999745962155693
 30
0.0
 11
292.625
 21
26.4999745962155728
 31
0.0
  0
LINE
  5
FB
100
AcDbEntity
100
AcDbLine
  8
Spacer Plate Honeycomb
 62
256
370
-1
  6
ByLayer
 10
303.3147696517052623
 20
33.1573471396398247
 30
0.0
 11
315.0
 21
33.1573471396398247
 31
0.0
  0
ARC
  5
FC
100
AcDbEntity
  8
Spacer Plate Honeycomb
 62
256
370
-1
  6
ByLayer
100
AcDbCircle
 10
294.625
 20
35.4999745962155657
 30
0.0
 40
9.0
100
AcDbArc
 50
270.0
 51
344.9126144914360452
  0
ARC
  5
FD
100
AcDbEntity
  8
Spacer Plate Honeycomb
 62
256
370
-1
  6
ByLayer
100
AcDbCircle
 10
294.625
 20
35.4999745962155657
 30
0.0
 40
9.0000000000000071
100
AcDbArc
 50
14.4776792153860931
 51
90.0
  0
LINE
  5
FE
100
AcDbEntity
100
AcDbLine
  8
Spacer Plate Honeycomb
 62
256
370
-1
  6
ByLayer
 10
315.0
 20
37.75
 30
0.0
 11
303.3392059696982415
 21
37.7499999999999716
 31
0.0
  0
LINE
  5
FF
100
AcDbEntity
100
AcDbLine
  8
Spacer Plate
 62
256
370
-1
  6
ByLayer
 10
240.0
 20
2.5000000000000142
 30
0.0
 11
320.0
 21
2.4999999999999787
 31
0.0
  0
LINE
  5
100
100
AcDbEntity
100
AcDbLine
  8
Spacer Plate
 62
256
370
-1
  6
ByLayer
 10
240.0
 20
72.5
 30
0.0
 11
240.0
 21
2.5000000000000142
 31
0.0
  0
LINE
  5
101
100
AcDbEntity
100
AcDbLine
  8
Spacer Plate
 62
256
370
-1
  6
ByLayer
 10
320.0
 20
2.4999999999999787
 30
0.0
 11
320.0
 21
72.5
 31
0.0
  0
LINE
  5
102
100
AcDbEntity
100
AcDbLine
  8
Spacer Plate Honeycomb
 62
256
370
-1
  6
ByLayer
 10
277.9959862385326232
 20
27.7550453619456121
 30
0.0
 11
277.9959862385326232
 21
8.0
 31
0.0
  0
LINE
  5
103
100
AcDbEntity
100
AcDbLine
  8
Spacer Plate Honeycomb
 62
256
370
-1
  6
ByLayer
 10
282.6806192660556007
 20
7.9999999999999929
 30
0.0
 11
282.6806192660556007
 21
27.9624497803060663
 31
0.0
  0
ARC
  5
104
100
AcDbEntity
  8
Spacer Plate Honeycomb
 62
256
370
-1
  6
ByLayer
100
AcDbCircle
 10
292.625
 20
35.4999745962155586
 30
0.0
 40
8.9999999999999929
100
AcDbArc
 50
219.0863741724145086
 51
270.0
  0
ARC
  5
105
100
AcDbEntity
  8
Spacer Plate Honeycomb
 62
256
370
-1
  6
ByLayer
100
AcDbCircle
 10
292.625
 20
35.4999745962155586
 30
0.0
 40
9.0
100
AcDbArc
 50
90.0
 51
140.913625827585463
  0
LINE
  5
106
100
AcDbEntity
100
AcDbLine
  8
Spacer Plate Honeycomb
 62
256
370
-1
  6
ByLayer
 10
282.6806192660556007
 20
43.0374994121250651
 30
0.0
 11
282.6806192660556007
 21
72.5
 31
0.0
  0
LINE
  5
107
100
AcDbEntity
100
AcDbLine
  8
Spacer Plate Honeycomb
 62
256
370
-1
  6
ByLayer
 10
277.9959862385326232
 20
72.5
 30
0.0
 11
277.9959862385326232
 21
43.2449038304855193
 31
0.0
  0
ARC
  5
108
100
AcDbEntity
  8
Spacer Plate Honeycomb
 62
256
370
-1
  6
ByLayer
100
AcDbCircle
 10
265.0
 20
35.4999745962155657
 30
0.0
 40
13.3000000000000007
100
AcDbArc
 50
32.1301573259128261
 51
91.0813112349459857
  0
LINE
  5
109
100
AcDbEntity
100
AcDbLine
  8
Spacer Plate Honeycomb
 62
256
370
-1
  6
ByLayer
 10
254.5856731350529003
 20
67.864131626859745
 30
0.0
 11
258.0911611338588614
 21
56.8101475969367726
 31
0.0
  0
LINE
  5
10A
100
AcDbEntity
100
AcDbLine
  8
Spacer Plate Honeycomb
 62
256
370
-1
  6
ByLayer
 10
248.8663737213450418
 20
66.0504022599583038
 30
0.0
 11
252.2090806434216574
 21
55.5097217766892115
 31
0.0
  0
LINE
  5
10B
100
AcDbEntity
100
AcDbLine
  8
Spacer Plate Honeycomb
 62
256
370
-1
  6
ByLayer
 10
245.0
 20
68.3253834536241413
 30
0.0
 11
245.0
 21
42.428177826491023
 31
0.0
  0
LINE
  5
10C
100
AcDbEntity
100
AcDbLine
  8
Spacer Plate Honeycomb
 62
256
370
-1
  6
ByLayer
 10
245.0
 20
28.5717713659400587
 30
0.0
 11
245.0
 21
12.0746165463759922
 31
0.0
  0
LINE
  5
10D
100
AcDbEntity
100
AcDbLine
  8
Spacer Plate Honeycomb
 62
256
370
-1
  6
ByLayer
 10
251.0592469379784575
 20
16.4538297682765133
 30
0.0
 11
250.0045969491932567
 21
14.4499983618647754
 31
0.0
  0
LINE
  5
10E
100
AcDbEntity
100
AcDbLine
  8
Spacer Plate Honeycomb
 62
256
370
-1
  6
ByLayer
 10
256.5892018402842609
 20
14.0781970038168573
 30
0.0
 11
255.314104230253605
 21
11.6555158637325924
 31
0.0
  0
ARC
  5
10F
100
AcDbEntity
  8
Spacer Plate Honeycomb
 62
256
370
-1
  6
ByLayer
100
AcDbCircle
 10
265.0
 20
35.4999745962155657
 30
0.0
 40
13.3000000000000025
100
AcDbArc
 50
268.9186887650540143
 51
327.8698426740872378
  0
ARC
  5
110
100
AcDbEntity
  8
Spacer Plate Honeycomb
 62
256
370
-1
  6
ByLayer
100
AcDbCircle
 10
256.75
 20
48.9233683548743699
 30
0.0
 40
8.0
100
AcDbArc
 50
359.099257398104271
 51
80.3490692503944643
  0
ARC
  5
111
100
AcDbEntity
  8
Spacer Plate Honeycomb
 62
256
370
-1
  6
ByLayer
100
AcDbCircle
 10
280.0
 20
35.4999745962155657
 30
0.0
 40
8.0
100
AcDbArc
 50
104.5072033784852579
 51
117.8478353157173899
  0
ARC
  5
112
100
AcDbEntity
  8
Spacer Plate Honeycomb
 62
256
370
-1
  6
ByLayer
100
AcDbCircle
 10
280.0
 20
35.4999745962155657
 30
0.0
 40
8.0
100
AcDbArc
 50
45.1782043240011717
 51
70.4227548321852623
  0
ARC
  5
113
100
AcDbEntity
  8
Spacer Plate Honeycomb
 62
256
370
-1
  6
ByLayer
100
AcDbCircle
 10
280.0
 20
35.4999745962155657
 30
0.0
 40
8.0
100
AcDbArc
 50
289.5772451678147377
 51
314.821795675998942
  0
ARC
  5
114
100
AcDbEntity
  8
Spacer Plate Honeycomb
 62
256
370
-1
  6
ByLayer
100
AcDbCircle
 10
280.0
 20
35.4999745962155657
 30
0.0
 40
8.0
100
AcDbArc
 50
242.1521646842826669
 51
255.4927966215147421
  0
ARC
  5
115
100
AcDbEntity
  8
Spacer Plate Honeycomb
 62
256
370
-1
  6
ByLayer
100
AcDbCircle
 10
256.75
 20
22.0765808375567651
 30
0.0
 40
8.0
100
AcDbArc
 50
268.8482904543863583
 51
0.9007426018957106
  0
ARC
  5
116
100
AcDbEntity
  8
Spacer Plate Honeycomb
 62
256
370
-1
  6
ByLayer
100
AcDbCircle
 10
249.0
 20
35.4999745962155657
 30
0.0
 40
8.0
100
AcDbArc
 50
239.9999999999999432
 51
285.6384884370835948
  0
ARC
  5
117
100
AcDbEntity
  8
Spacer Plate Honeycomb
 62
256
370
-1
  6
ByLayer
100
AcDbCircle
 10
256.75
 20
22.0765808375567651
 30
0.0
 40
8.0
100
AcDbArc
 50
134.361511562916462
 51
224.655616843655082
  0
ARC
  5
118
100
AcDbEntity
  8
Spacer Plate Honeycomb
 62
256
370
-1
  6
ByLayer
100
AcDbCircle
 10
249.0
 20
35.4999745962155657
 30
0.0
 40
8.0
100
AcDbArc
 50
74.3615115629164052
 51
120.0000000000000426
  0
ARC
  5
119
100
AcDbEntity
  8
Spacer Plate Honeycomb
 62
256
370
-1
  6
ByLayer
100
AcDbCircle
 10
256.75
 20
48.9233683548743699
 30
0.0
 40
8.0
100
AcDbArc
 50
124.5840737476103754
 51
225.6384884370835664
  0
CIRCLE
  5
11A
100
AcDbEntity
100
AcDbCircle
  8
Spacer Plate
 62
256
370
-1
  6
ByLayer
 10
264.75
 20
35.4999745962155799
 30
0.0
 40
8.5
  0
CIRCLE
  5
11B
100
AcDbEntity
100
AcDbCircle
  8
Spacer Plate
 62
256
370
-1
  6
ByLayer
 10
280.25
 20
35.4999745962155657
 30
0.0
 40
3.0
  0
CIRCLE
  5
11C
100
AcDbEntity
100
AcDbCircle
  8
Spacer Plate
 62
256
370
-1
  6
ByLayer
 10
257.0
 20
22.0765808375567651
 30
0.0
 40
3.0
  0
CIRCLE
  5
11D
100
AcDbEntity
100
AcDbCircle
  8
Spacer Plate
 62
256
370
-1
  6
ByLayer
 10
249.25
 20
35.4999745962155586
 30
0.0
 40
3.0
  0
CIRCLE
  5
11E
100
AcDbEntity
100
AcDbCircle
  8
Spacer Plate
 62
256
370
-1
  6
ByLayer
 10
257.0
 20
48.9233683548743699
 30
0.0
 40
3.0
  0
ARC
  5
11F
100
AcDbEntity
  8
Spacer Plate
 62
256
370
-1
  6
ByLayer
100
AcDbCircle
 10
292.375
 20
35.4999745962155657
 30
0.0
 40
4.0
100
AcDbArc
 50
90.0
 51
270.0
  0
LINE
  5
120
100
AcDbEntity
100
AcDbLine
  8
Spacer Plate
 62
256
370
-1
  6
ByLayer
 10
292.375
 20
39.4999745962155586
 30
0.0
 11
294.625
 21
39.4999745962155799
 31
0.0
  0
LINE
  5
121
100
AcDbEntity
100
AcDbLine
  8
Spacer Plate
 62
256
370
-1
  6
ByLayer
 10
294.625
 20
31.4999745962155728
 30
0.0
 11
292.375
 21
31.4999745962155764
 31
0.0
  0
ENDSEC
  0
SECTION
  2
OBJECTS
  0
DICTIONARY
  5
C
100
AcDbDictionary
280
0
281
1
  3
ACAD_GROUP
350
D
  3
ACAD_LAYOUT
350
1A
  3
ACAD_MLINESTYLE
350
17
  3
ACAD_PLOTSETTINGS
350
19
  3
ACAD_PLOTSTYLENAME
350
E
  3
AcDbVariableDictionary
350
122
  0
DICTIONARY
  5
D
100
AcDbDictionary
280
0
281
1
  0
ACDBDICTIONARYWDFLT
  5
E
100
AcDbDictionary
281
1
  3
Normal
350
F
100
AcDbDictionaryWithDefault
340
F
  0
ACDBPLACEHOLDER
  5
F
  0
DICTIONARY
  5
17
100
AcDbDictionary
280
0
281
1
  3
Standard
350
18
  0
MLINESTYLE
  5
18
100
AcDbMlineStyle
  2
STANDARD
 70
0
  3

 62
256
 51
90.0
 52
90.0
 71
2
 49
0.5
 62
256
  6
BYLAYER
 49
-0.5
 62
256
  6
BYLAYER
  0
DICTIONARY
  5
19
100
AcDbDictionary
280
0
281
1
  0
DICTIONARY
  5
1A
100
AcDbDictionary
281
1
  3
Layout1
350
1E
  3
Layout2
350
26
  3
Model
350
22
  0
LAYOUT
  5
1E
100
AcDbPlotSettings
  1

  2
C:\Program Files\AutoCAD 2002\plotters\DWF ePlot (optimized for plotting).pc3
  4

  6

 40
0.0
 41
0.0
 42
0.0
 43
0.0
 44
0.0
 45
0.0
 46
0.0
 47
0.0
 48
0.0
 49
0.0
140
0.0
141
0.0
142
1.0
143
1.0
 70
688
 72
0
 73
0
 74
5
  7

 75
16
147
1.0
148
0.0
149
0.0
100
AcDbLayout
  1
Layout1
 70
1
 71
1
 10
0.0
 20
0.0
 11
420.0
 21
297.0
 12
0.0
 22
0.0
 32
0.0
 14
100000000000000000000.0
 24
100000000000000000000.0
 34
100000000000000000000.0
 15
-100000000000000000000.0
 25
-100000000000000000000.0
 35
-100000000000000000000.0
146
0.0
 13
0.0
 23
0.0
 33
0.0
 16
1.0
 26
0.0
 36
0.0
 17
0.0
 27
1.0
 37
0.0
 76
0
330
1B
  0
LAYOUT
  5
22
100
AcDbPlotSettings
  1

  2
C:\Program Files\AutoCAD 2002\plotters\DWF ePlot (optimized for plotting).pc3
  4

  6

 40
0.0
 41
0.0
 42
0.0
 43
0.0
 44
0.0
 45
0.0
 46
0.0
 47
0.0
 48
0.0
 49
0.0
140
0.0
141
0.0
142
1.0
143
1.0
 70
1712
 72
0
 73
0
 74
0
  7

 75
0
147
1.0
148
0.0
149
0.0
100
AcDbLayout
  1
Model
 70
1
 71
0
 10
0.0
 20
0.0
 11
12.0
 21
9.0
 12
0.0
 22
0.0
 32
0.0
 14
0.0
 24
0.0
 34
0.0
 15
0.0
 25
0.0
 35
0.0
146
0.0
 13
0.0
 23
0.0
 33
0.0
 16
1.0
 26
0.0
 36
0.0
 17
0.0
 27
1.0
 37
0.0
 76
0
330
1F
  0
LAYOUT
  5
26
100
AcDbPlotSettings
  1

  2
C:\Program Files\AutoCAD 2002\plotters\DWF ePlot (optimized for plotting).pc3
  4

  6

 40
0.0
 41
0.0
 42
0.0
 43
0.0
 44
0.0
 45
0.0
 46
0.0
 47
0.0
 48
0.0
 49
0.0
140
0.0
141
0.0
142
1.0
143
1.0
 70
688
 72
0
 73
0
 74
5
  7

 75
16
147
1.0
148
0.0
149
0.0
100
AcDbLayout
  1
Layout2
 70
1
 71
2
 10
0.0
 20
0.0
 11
12.0
 21
9.0
 12
0.0
 22
0.0
 32
0.0
 14
0.0
 24
0.0
 34
0.0
 15
0.0
 25
0.0
 35
0.0
146
0.0
 13
0.0
 23
0.0
 33
0.0
 16
1.0
 26
0.0
 36
0.0
 17
0.0
 27
1.0
 37
0.0
 76
0
330
23
  0
DICTIONARY
  5
122
100
AcDbDictionary
281
1
  3
DIMASSOC
350
124
  3
HIDETEXT
350
123
  0
DICTIONARYVAR
  5
123
100
DictionaryVariables
280
0
  1
2
  0
DICTIONARYVAR
  5
124
100
DictionaryVariables
280
0
  1
1
  0
ENDSEC
  0
EOF
