solid
  facet normal 0.000000 0.000000 -1.000000
    outer loop
      vertex -0.000000 30.500000 0.000000
      vertex 6.341307 29.833502 0.000000
      vertex -6.341307 29.833502 0.000000
    endloop
  endfacet
  facet normal -0.000000 0.000000 -1.000000
    outer loop
      vertex -6.341307 29.833502 0.000000
      vertex 6.341307 29.833502 0.000000
      vertex 12.405468 27.863136 0.000000
    endloop
  endfacet
  facet normal 0.000000 0.000000 -1.000000
    outer loop
      vertex -6.341307 29.833502 0.000000
      vertex 12.405468 27.863136 0.000000
      vertex 17.927450 24.675018 0.000000
    endloop
  endfacet
  facet normal 0.000000 0.000000 -1.000000
    outer loop
      vertex -6.341307 29.833502 0.000000
      vertex 17.927450 24.675018 0.000000
      vertex 22.665917 20.408483 0.000000
    endloop
  endfacet
  facet normal 0.000000 0.000000 -1.000000
    outer loop
      vertex -6.341307 29.833502 0.000000
      vertex 22.665917 20.408483 0.000000
      vertex 26.413775 15.250000 0.000000
    endloop
  endfacet
  facet normal 0.000000 0.000000 -1.000000
    outer loop
      vertex -6.341307 29.833502 0.000000
      vertex 26.413775 15.250000 0.000000
      vertex 29.007224 9.425018 0.000000
    endloop
  endfacet
  facet normal 0.000000 0.000000 -1.000000
    outer loop
      vertex -6.341307 29.833502 0.000000
      vertex 29.007224 9.425018 0.000000
      vertex 30.332918 3.188118 0.000000
    endloop
  endfacet
  facet normal 0.000000 0.000000 -1.000000
    outer loop
      vertex -6.341307 29.833502 0.000000
      vertex 30.332918 3.188118 0.000000
      vertex 30.332918 -3.188118 0.000000
    endloop
  endfacet
  facet normal 0.000000 0.000000 -1.000000
    outer loop
      vertex -6.341307 29.833502 0.000000
      vertex 30.332918 -3.188118 0.000000
      vertex 29.007224 -9.425018 0.000000
    endloop
  endfacet
  facet normal 0.000000 0.000000 -1.000000
    outer loop
      vertex -6.341307 29.833502 0.000000
      vertex 29.007224 -9.425018 0.000000
      vertex 26.413775 -15.250000 0.000000
    endloop
  endfacet
  facet normal 0.000000 0.000000 -1.000000
    outer loop
      vertex -6.341307 29.833502 0.000000
      vertex 26.413775 -15.250000 0.000000
      vertex 22.665917 -20.408483 0.000000
    endloop
  endfacet
  facet normal 0.000000 0.000000 -1.000000
    outer loop
      vertex -6.341307 29.833502 0.000000
      vertex 22.665917 -20.408483 0.000000
      vertex 17.927450 -24.675018 0.000000
    endloop
  endfacet
  facet normal 0.000000 0.000000 -1.000000
    outer loop
      vertex -6.341307 29.833502 0.000000
      vertex 17.927450 -24.675018 0.000000
      vertex 12.405468 -27.863136 0.000000
    endloop
  endfacet
  facet normal 0.000000 0.000000 -1.000000
    outer loop
      vertex -6.341307 29.833502 0.000000
      vertex 12.405468 -27.863136 0.000000
      vertex 6.341307 -29.833502 0.000000
    endloop
  endfacet
  facet normal 0.000000 0.000000 -1.000000
    outer loop
      vertex -6.341307 29.833502 0.000000
      vertex 6.341307 -29.833502 0.000000
      vertex 0.000000 -30.500000 0.000000
    endloop
  endfacet
  facet normal 0.000000 0.000000 -1.000000
    outer loop
      vertex -6.341307 29.833502 0.000000
      vertex 0.000000 -30.500000 0.000000
      vertex -6.341307 -29.833502 0.000000
    endloop
  endfacet
  facet normal 0.000000 0.000000 -1.000000
    outer loop
      vertex -6.341307 29.833502 0.000000
      vertex -6.341307 -29.833502 0.000000
      vertex -12.405468 -27.863136 0.000000
    endloop
  endfacet
  facet normal 0.000000 0.000000 -1.000000
    outer loop
      vertex -6.341307 29.833502 0.000000
      vertex -12.405468 -27.863136 0.000000
      vertex -17.927450 -24.675018 0.000000
    endloop
  endfacet
  facet normal 0.000000 0.000000 -1.000000
    outer loop
      vertex -6.341307 29.833502 0.000000
      vertex -17.927450 -24.675018 0.000000
      vertex -22.665917 -20.408483 0.000000
    endloop
  endfacet
  facet normal 0.000000 0.000000 -1.000000
    outer loop
      vertex -6.341307 29.833502 0.000000
      vertex -22.665917 -20.408483 0.000000
      vertex -26.413775 -15.250000 0.000000
    endloop
  endfacet
  facet normal 0.000000 0.000000 -1.000000
    outer loop
      vertex -6.341307 29.833502 0.000000
      vertex -26.413775 -15.250000 0.000000
      vertex -29.007224 -9.425018 0.000000
    endloop
  endfacet
  facet normal 0.000000 0.000000 -1.000000
    outer loop
      vertex -6.341307 29.833502 0.000000
      vertex -29.007224 -9.425018 0.000000
      vertex -30.332918 -3.188118 0.000000
    endloop
  endfacet
  facet normal 0.000000 0.000000 -1.000000
    outer loop
      vertex -6.341307 29.833502 0.000000
      vertex -30.332918 -3.188118 0.000000
      vertex -30.332918 3.188118 0.000000
    endloop
  endfacet
  facet normal 0.000000 0.000000 -1.000000
    outer loop
      vertex -6.341307 29.833502 0.000000
      vertex -30.332918 3.188118 0.000000
      vertex -29.007224 9.425018 0.000000
    endloop
  endfacet
  facet normal 0.000000 0.000000 -1.000000
    outer loop
      vertex -6.341307 29.833502 0.000000
      vertex -29.007224 9.425018 0.000000
      vertex -26.413775 15.250000 0.000000
    endloop
  endfacet
  facet normal 0.000000 0.000000 -1.000000
    outer loop
      vertex -6.341307 29.833502 0.000000
      vertex -26.413775 15.250000 0.000000
      vertex -22.665917 20.408483 0.000000
    endloop
  endfacet
  facet normal 0.000000 0.000000 -1.000000
    outer loop
      vertex -6.341307 29.833502 0.000000
      vertex -22.665917 20.408483 0.000000
      vertex -17.927450 24.675018 0.000000
    endloop
  endfacet
  facet normal 0.000000 0.000000 -1.000000
    outer loop
      vertex -6.341307 29.833502 0.000000
      vertex -17.927450 24.675018 0.000000
      vertex -12.405468 27.863136 0.000000
    endloop
  endfacet
  facet normal 0.104528 0.994522 0.000000
    outer loop
      vertex -0.000000 30.500000 0.000000
      vertex -0.000000 30.500000 10.000000
      vertex 6.341307 29.833502 0.000000
    endloop
  endfacet
  facet normal 0.104528 0.994522 -0.000000
    outer loop
      vertex 6.341307 29.833502 0.000000
      vertex -0.000000 30.500000 10.000000
      vertex 4.757184 30.000000 10.000000
    endloop
  endfacet
  facet normal 0.104528 0.994522 0.000000
    outer loop
      vertex 6.341307 29.833502 0.000000
      vertex 5.000000 29.974479 10.000000
      vertex 6.341307 29.833502 10.000000
    endloop
  endfacet
  facet normal 0.104528 0.994522 0.000000
    outer loop
      vertex 5.000000 29.974479 10.000000
      vertex 6.341307 29.833502 0.000000
      vertex 4.757184 30.000000 10.000000
    endloop
  endfacet
  facet normal -0.104528 0.994522 0.000000
    outer loop
      vertex -0.000000 30.500000 0.000000
      vertex -6.341307 29.833502 0.000000
      vertex -0.000000 30.500000 10.000000
    endloop
  endfacet
  facet normal -0.104528 0.994522 0.000000
    outer loop
      vertex -0.000000 30.500000 10.000000
      vertex -6.341307 29.833502 0.000000
      vertex -6.341307 29.833502 10.000000
    endloop
  endfacet
  facet normal -0.309017 0.951056 0.000000
    outer loop
      vertex -6.341307 29.833502 0.000000
      vertex -12.405468 27.863136 0.000000
      vertex -6.341307 29.833502 10.000000
    endloop
  endfacet
  facet normal -0.309017 0.951056 0.000000
    outer loop
      vertex -6.341307 29.833502 10.000000
      vertex -12.405468 27.863136 0.000000
      vertex -12.405468 27.863136 10.000000
    endloop
  endfacet
  facet normal -0.500000 0.866025 0.000000
    outer loop
      vertex -12.405468 27.863136 0.000000
      vertex -17.927450 24.675018 0.000000
      vertex -12.405468 27.863136 10.000000
    endloop
  endfacet
  facet normal -0.500000 0.866025 0.000000
    outer loop
      vertex -12.405468 27.863136 10.000000
      vertex -17.927450 24.675018 0.000000
      vertex -17.927450 24.675018 10.000000
    endloop
  endfacet
  facet normal -0.669131 0.743145 0.000000
    outer loop
      vertex -17.927450 24.675018 0.000000
      vertex -22.665917 20.408483 0.000000
      vertex -17.927450 24.675018 10.000000
    endloop
  endfacet
  facet normal -0.669131 0.743145 0.000000
    outer loop
      vertex -17.927450 24.675018 10.000000
      vertex -22.665917 20.408483 0.000000
      vertex -22.665917 20.408483 10.000000
    endloop
  endfacet
  facet normal -0.809017 0.587785 0.000000
    outer loop
      vertex -22.665917 20.408483 0.000000
      vertex -26.413775 15.250000 0.000000
      vertex -22.665917 20.408483 10.000000
    endloop
  endfacet
  facet normal -0.809017 0.587785 0.000000
    outer loop
      vertex -22.665917 20.408483 10.000000
      vertex -26.413775 15.250000 0.000000
      vertex -26.413775 15.250000 10.000000
    endloop
  endfacet
  facet normal -0.913545 0.406737 0.000000
    outer loop
      vertex -26.413775 15.250000 0.000000
      vertex -29.007224 9.425018 0.000000
      vertex -26.413775 15.250000 10.000000
    endloop
  endfacet
  facet normal -0.913545 0.406737 0.000000
    outer loop
      vertex -26.413775 15.250000 10.000000
      vertex -29.007224 9.425018 0.000000
      vertex -29.007224 9.425018 10.000000
    endloop
  endfacet
  facet normal -0.978148 0.207912 0.000000
    outer loop
      vertex -29.007224 9.425018 0.000000
      vertex -30.332918 3.188118 0.000000
      vertex -29.007224 9.425018 10.000000
    endloop
  endfacet
  facet normal -0.978148 0.207912 0.000000
    outer loop
      vertex -29.007224 9.425018 10.000000
      vertex -30.332918 3.188118 0.000000
      vertex -30.332918 3.188118 10.000000
    endloop
  endfacet
  facet normal -1.000000 -0.000000 -0.000000
    outer loop
      vertex -30.332918 3.188118 0.000000
      vertex -30.332918 -3.188118 0.000000
      vertex -30.332918 3.188118 10.000000
    endloop
  endfacet
  facet normal -1.000000 -0.000000 0.000000
    outer loop
      vertex -30.332918 3.188118 10.000000
      vertex -30.332918 -3.188118 0.000000
      vertex -30.332918 -3.188118 10.000000
    endloop
  endfacet
  facet normal -0.978148 -0.207912 -0.000000
    outer loop
      vertex -30.332918 -3.188118 0.000000
      vertex -29.007224 -9.425018 0.000000
      vertex -30.332918 -3.188118 10.000000
    endloop
  endfacet
  facet normal -0.978148 -0.207912 0.000000
    outer loop
      vertex -30.332918 -3.188118 10.000000
      vertex -29.007224 -9.425018 0.000000
      vertex -29.007224 -9.425018 10.000000
    endloop
  endfacet
  facet normal -0.913545 -0.406737 -0.000000
    outer loop
      vertex -29.007224 -9.425018 0.000000
      vertex -26.413775 -15.250000 0.000000
      vertex -29.007224 -9.425018 10.000000
    endloop
  endfacet
  facet normal -0.913545 -0.406737 0.000000
    outer loop
      vertex -29.007224 -9.425018 10.000000
      vertex -26.413775 -15.250000 0.000000
      vertex -26.413775 -15.250000 10.000000
    endloop
  endfacet
  facet normal -0.809017 -0.587785 -0.000000
    outer loop
      vertex -26.413775 -15.250000 0.000000
      vertex -22.665917 -20.408483 0.000000
      vertex -26.413775 -15.250000 10.000000
    endloop
  endfacet
  facet normal -0.809017 -0.587785 0.000000
    outer loop
      vertex -26.413775 -15.250000 10.000000
      vertex -22.665917 -20.408483 0.000000
      vertex -22.665917 -20.408483 10.000000
    endloop
  endfacet
  facet normal -0.669131 -0.743145 0.000000
    outer loop
      vertex -22.665917 -20.408483 10.000000
      vertex -22.665917 -20.408483 0.000000
      vertex -17.927450 -24.675018 0.000000
    endloop
  endfacet
  facet normal -0.669131 -0.743145 0.000000
    outer loop
      vertex -17.927450 -24.675018 10.000000
      vertex -22.665917 -20.408483 10.000000
      vertex -17.927450 -24.675018 0.000000
    endloop
  endfacet
  facet normal -0.500000 -0.866025 0.000000
    outer loop
      vertex -17.927450 -24.675018 10.000000
      vertex -17.927450 -24.675018 0.000000
      vertex -12.405468 -27.863136 0.000000
    endloop
  endfacet
  facet normal -0.500000 -0.866025 0.000000
    outer loop
      vertex -12.405468 -27.863136 10.000000
      vertex -17.927450 -24.675018 10.000000
      vertex -12.405468 -27.863136 0.000000
    endloop
  endfacet
  facet normal -0.309017 -0.951056 0.000000
    outer loop
      vertex -12.405468 -27.863136 10.000000
      vertex -12.405468 -27.863136 0.000000
      vertex -6.341307 -29.833502 0.000000
    endloop
  endfacet
  facet normal -0.309017 -0.951056 0.000000
    outer loop
      vertex -6.341307 -29.833502 10.000000
      vertex -12.405468 -27.863136 10.000000
      vertex -6.341307 -29.833502 0.000000
    endloop
  endfacet
  facet normal -0.104528 -0.994522 0.000000
    outer loop
      vertex -6.341307 -29.833502 10.000000
      vertex -6.341307 -29.833502 0.000000
      vertex 0.000000 -30.500000 0.000000
    endloop
  endfacet
  facet normal -0.104528 -0.994522 0.000000
    outer loop
      vertex 0.000000 -30.500000 10.000000
      vertex -6.341307 -29.833502 10.000000
      vertex 0.000000 -30.500000 0.000000
    endloop
  endfacet
  facet normal 0.104528 -0.994522 0.000000
    outer loop
      vertex 0.000000 -30.500000 0.000000
      vertex 6.341307 -29.833502 0.000000
      vertex 6.341307 -29.833502 10.000000
    endloop
  endfacet
  facet normal 0.104528 -0.994522 -0.000000
    outer loop
      vertex 5.000000 -29.974479 10.000000
      vertex 0.000000 -30.500000 0.000000
      vertex 6.341307 -29.833502 10.000000
    endloop
  endfacet
  facet normal 0.104528 -0.994522 0.000000
    outer loop
      vertex 0.000000 -30.500000 10.000000
      vertex 0.000000 -30.500000 0.000000
      vertex 4.757184 -30.000000 10.000000
    endloop
  endfacet
  facet normal 0.104528 -0.994522 0.000000
    outer loop
      vertex 5.000000 -29.974479 10.000000
      vertex 4.757184 -30.000000 10.000000
      vertex 0.000000 -30.500000 0.000000
    endloop
  endfacet
  facet normal 0.309017 -0.951056 0.000000
    outer loop
      vertex 6.341307 -29.833502 0.000000
      vertex 12.405468 -27.863136 0.000000
      vertex 12.405468 -27.863136 10.000000
    endloop
  endfacet
  facet normal 0.309017 -0.951056 0.000000
    outer loop
      vertex 6.341307 -29.833502 10.000000
      vertex 6.341307 -29.833502 0.000000
      vertex 12.405468 -27.863136 10.000000
    endloop
  endfacet
  facet normal 0.500000 -0.866025 0.000000
    outer loop
      vertex 12.405468 -27.863136 0.000000
      vertex 17.927450 -24.675018 0.000000
      vertex 17.927450 -24.675018 10.000000
    endloop
  endfacet
  facet normal 0.500000 -0.866025 0.000000
    outer loop
      vertex 12.405468 -27.863136 10.000000
      vertex 12.405468 -27.863136 0.000000
      vertex 17.927450 -24.675018 10.000000
    endloop
  endfacet
  facet normal 0.669131 -0.743145 0.000000
    outer loop
      vertex 17.927450 -24.675018 0.000000
      vertex 22.665917 -20.408483 0.000000
      vertex 22.665917 -20.408483 10.000000
    endloop
  endfacet
  facet normal 0.669131 -0.743145 0.000000
    outer loop
      vertex 17.927450 -24.675018 10.000000
      vertex 17.927450 -24.675018 0.000000
      vertex 22.665917 -20.408483 10.000000
    endloop
  endfacet
  facet normal 0.809017 -0.587785 0.000000
    outer loop
      vertex 22.665917 -20.408483 0.000000
      vertex 26.413775 -15.250000 0.000000
      vertex 26.413775 -15.250000 10.000000
    endloop
  endfacet
  facet normal 0.809017 -0.587785 0.000000
    outer loop
      vertex 22.665917 -20.408483 10.000000
      vertex 22.665917 -20.408483 0.000000
      vertex 26.413775 -15.250000 10.000000
    endloop
  endfacet
  facet normal 0.913545 -0.406737 0.000000
    outer loop
      vertex 26.413775 -15.250000 0.000000
      vertex 29.007224 -9.425018 0.000000
      vertex 29.007224 -9.425018 10.000000
    endloop
  endfacet
  facet normal 0.913545 -0.406737 0.000000
    outer loop
      vertex 26.413775 -15.250000 10.000000
      vertex 26.413775 -15.250000 0.000000
      vertex 29.007224 -9.425018 10.000000
    endloop
  endfacet
  facet normal 0.978148 -0.207912 0.000000
    outer loop
      vertex 29.007224 -9.425018 0.000000
      vertex 30.332918 -3.188118 0.000000
      vertex 30.332918 -3.188118 10.000000
    endloop
  endfacet
  facet normal 0.978148 -0.207912 0.000000
    outer loop
      vertex 29.007224 -9.425018 10.000000
      vertex 29.007224 -9.425018 0.000000
      vertex 30.332918 -3.188118 10.000000
    endloop
  endfacet
  facet normal 1.000000 0.000000 0.000000
    outer loop
      vertex 30.332918 -3.188118 0.000000
      vertex 30.332918 3.188118 0.000000
      vertex 30.332918 3.188118 10.000000
    endloop
  endfacet
  facet normal 1.000000 0.000000 -0.000000
    outer loop
      vertex 30.332918 -3.188118 10.000000
      vertex 30.332918 -3.188118 0.000000
      vertex 30.332918 3.188118 10.000000
    endloop
  endfacet
  facet normal 0.978148 0.207912 0.000000
    outer loop
      vertex 30.332918 3.188118 0.000000
      vertex 29.007224 9.425018 0.000000
      vertex 29.007224 9.425018 10.000000
    endloop
  endfacet
  facet normal 0.978148 0.207912 -0.000000
    outer loop
      vertex 30.332918 3.188118 10.000000
      vertex 30.332918 3.188118 0.000000
      vertex 29.007224 9.425018 10.000000
    endloop
  endfacet
  facet normal 0.913545 0.406737 0.000000
    outer loop
      vertex 29.007224 9.425018 0.000000
      vertex 26.413775 15.250000 0.000000
      vertex 26.413775 15.250000 10.000000
    endloop
  endfacet
  facet normal 0.913545 0.406737 -0.000000
    outer loop
      vertex 29.007224 9.425018 10.000000
      vertex 29.007224 9.425018 0.000000
      vertex 26.413775 15.250000 10.000000
    endloop
  endfacet
  facet normal 0.809017 0.587785 0.000000
    outer loop
      vertex 26.413775 15.250000 0.000000
      vertex 22.665917 20.408483 0.000000
      vertex 22.665917 20.408483 10.000000
    endloop
  endfacet
  facet normal 0.809017 0.587785 -0.000000
    outer loop
      vertex 26.413775 15.250000 10.000000
      vertex 26.413775 15.250000 0.000000
      vertex 22.665917 20.408483 10.000000
    endloop
  endfacet
  facet normal 0.669131 0.743145 0.000000
    outer loop
      vertex 17.927450 24.675018 0.000000
      vertex 17.927450 24.675018 10.000000
      vertex 22.665917 20.408483 0.000000
    endloop
  endfacet
  facet normal 0.669131 0.743145 0.000000
    outer loop
      vertex 22.665917 20.408483 0.000000
      vertex 17.927450 24.675018 10.000000
      vertex 22.665917 20.408483 10.000000
    endloop
  endfacet
  facet normal 0.500000 0.866025 0.000000
    outer loop
      vertex 12.405468 27.863136 0.000000
      vertex 12.405468 27.863136 10.000000
      vertex 17.927450 24.675018 0.000000
    endloop
  endfacet
  facet normal 0.500000 0.866025 0.000000
    outer loop
      vertex 17.927450 24.675018 0.000000
      vertex 12.405468 27.863136 10.000000
      vertex 17.927450 24.675018 10.000000
    endloop
  endfacet
  facet normal 0.309017 0.951056 0.000000
    outer loop
      vertex 6.341307 29.833502 0.000000
      vertex 6.341307 29.833502 10.000000
      vertex 12.405468 27.863136 0.000000
    endloop
  endfacet
  facet normal 0.309017 0.951056 0.000000
    outer loop
      vertex 12.405468 27.863136 0.000000
      vertex 6.341307 29.833502 10.000000
      vertex 12.405468 27.863136 10.000000
    endloop
  endfacet
  facet normal -0.000000 0.000000 1.000000
    outer loop
      vertex 6.341307 29.833502 10.000000
      vertex 5.000000 29.974479 10.000000
      vertex 5.000000 -29.974479 10.000000
    endloop
  endfacet
  facet normal -0.000000 0.000000 1.000000
    outer loop
      vertex 12.405468 -27.863136 10.000000
      vertex 6.341307 29.833502 10.000000
      vertex 6.341307 -29.833502 10.000000
    endloop
  endfacet
  facet normal -0.000000 0.000000 1.000000
    outer loop
      vertex 6.341307 -29.833502 10.000000
      vertex 6.341307 29.833502 10.000000
      vertex 5.000000 -29.974479 10.000000
    endloop
  endfacet
  facet normal -0.000000 0.000000 1.000000
    outer loop
      vertex 17.927450 -24.675018 10.000000
      vertex 6.341307 29.833502 10.000000
      vertex 12.405468 -27.863136 10.000000
    endloop
  endfacet
  facet normal -0.000000 0.000000 1.000000
    outer loop
      vertex 22.665917 -20.408483 10.000000
      vertex 6.341307 29.833502 10.000000
      vertex 17.927450 -24.675018 10.000000
    endloop
  endfacet
  facet normal -0.000000 0.000000 1.000000
    outer loop
      vertex 26.413775 -15.250000 10.000000
      vertex 6.341307 29.833502 10.000000
      vertex 22.665917 -20.408483 10.000000
    endloop
  endfacet
  facet normal -0.000000 0.000000 1.000000
    outer loop
      vertex 29.007224 -9.425018 10.000000
      vertex 6.341307 29.833502 10.000000
      vertex 26.413775 -15.250000 10.000000
    endloop
  endfacet
  facet normal -0.000000 0.000000 1.000000
    outer loop
      vertex 30.332918 -3.188118 10.000000
      vertex 6.341307 29.833502 10.000000
      vertex 29.007224 -9.425018 10.000000
    endloop
  endfacet
  facet normal -0.000000 -0.000000 1.000000
    outer loop
      vertex 30.332918 3.188118 10.000000
      vertex 6.341307 29.833502 10.000000
      vertex 30.332918 -3.188118 10.000000
    endloop
  endfacet
  facet normal -0.000000 -0.000000 1.000000
    outer loop
      vertex 29.007224 9.425018 10.000000
      vertex 6.341307 29.833502 10.000000
      vertex 30.332918 3.188118 10.000000
    endloop
  endfacet
  facet normal -0.000000 -0.000000 1.000000
    outer loop
      vertex 26.413775 15.250000 10.000000
      vertex 6.341307 29.833502 10.000000
      vertex 29.007224 9.425018 10.000000
    endloop
  endfacet
  facet normal -0.000000 -0.000000 1.000000
    outer loop
      vertex 22.665917 20.408483 10.000000
      vertex 6.341307 29.833502 10.000000
      vertex 26.413775 15.250000 10.000000
    endloop
  endfacet
  facet normal -0.000000 -0.000000 1.000000
    outer loop
      vertex 17.927450 24.675018 10.000000
      vertex 6.341307 29.833502 10.000000
      vertex 22.665917 20.408483 10.000000
    endloop
  endfacet
  facet normal -0.000000 -0.000000 1.000000
    outer loop
      vertex 12.405468 27.863136 10.000000
      vertex 6.341307 29.833502 10.000000
      vertex 17.927450 24.675018 10.000000
    endloop
  endfacet
  facet normal 1.000000 -0.000000 -0.000000
    outer loop
      vertex 5.000000 29.974479 10.000000
      vertex 5.000000 30.000000 10.000000
      vertex 5.000000 17.239000 83.013000
    endloop
  endfacet
  facet normal 1.000000 0.000000 -0.000000
    outer loop
      vertex 5.000000 -30.000000 10.000000
      vertex 5.000000 -29.974479 10.000000
      vertex 5.000000 -17.239000 83.013000
    endloop
  endfacet
  facet normal 1.000000 -0.000000 0.000000
    outer loop
      vertex 5.000000 -29.974479 10.000000
      vertex 5.000000 -16.298000 86.373000
      vertex 5.000000 -17.239000 83.013000
    endloop
  endfacet
  facet normal 1.000000 0.000000 -0.000000
    outer loop
      vertex 5.000000 -29.974479 10.000000
      vertex 5.000000 -14.711000 89.479000
      vertex 5.000000 -16.298000 86.373000
    endloop
  endfacet
  facet normal 1.000000 0.000000 -0.000000
    outer loop
      vertex 5.000000 -29.974479 10.000000
      vertex 5.000000 -12.538000 92.208000
      vertex 5.000000 -14.711000 89.479000
    endloop
  endfacet
  facet normal 1.000000 0.000000 -0.000000
    outer loop
      vertex 5.000000 -29.974479 10.000000
      vertex 5.000000 -9.867000 94.453000
      vertex 5.000000 -12.538000 92.208000
    endloop
  endfacet
  facet normal 1.000000 0.000000 -0.000000
    outer loop
      vertex 5.000000 -29.974479 10.000000
      vertex 5.000000 -6.805000 96.123000
      vertex 5.000000 -9.867000 94.453000
    endloop
  endfacet
  facet normal 1.000000 0.000000 -0.000000
    outer loop
      vertex 5.000000 -29.974479 10.000000
      vertex 5.000000 -3.471000 97.152000
      vertex 5.000000 -6.805000 96.123000
    endloop
  endfacet
  facet normal 1.000000 0.000000 -0.000000
    outer loop
      vertex 5.000000 -29.974479 10.000000
      vertex 5.000000 0.000000 97.500000
      vertex 5.000000 -3.471000 97.152000
    endloop
  endfacet
  facet normal 1.000000 -0.000000 -0.000000
    outer loop
      vertex 5.000000 -29.974479 10.000000
      vertex 5.000000 3.471000 97.152000
      vertex 5.000000 0.000000 97.500000
    endloop
  endfacet
  facet normal 1.000000 -0.000000 -0.000000
    outer loop
      vertex 5.000000 -29.974479 10.000000
      vertex 5.000000 6.805000 96.123000
      vertex 5.000000 3.471000 97.152000
    endloop
  endfacet
  facet normal 1.000000 0.000000 -0.000000
    outer loop
      vertex 5.000000 -29.974479 10.000000
      vertex 5.000000 9.867000 94.453000
      vertex 5.000000 6.805000 96.123000
    endloop
  endfacet
  facet normal 1.000000 -0.000000 -0.000000
    outer loop
      vertex 5.000000 -29.974479 10.000000
      vertex 5.000000 12.538000 92.208000
      vertex 5.000000 9.867000 94.453000
    endloop
  endfacet
  facet normal 1.000000 -0.000000 -0.000000
    outer loop
      vertex 5.000000 -29.974479 10.000000
      vertex 5.000000 14.711000 89.479000
      vertex 5.000000 12.538000 92.208000
    endloop
  endfacet
  facet normal 1.000000 0.000000 -0.000000
    outer loop
      vertex 5.000000 -29.974479 10.000000
      vertex 5.000000 16.298000 86.373000
      vertex 5.000000 14.711000 89.479000
    endloop
  endfacet
  facet normal 1.000000 -0.000000 -0.000000
    outer loop
      vertex 5.000000 -29.974479 10.000000
      vertex 5.000000 17.239000 83.013000
      vertex 5.000000 16.298000 86.373000
    endloop
  endfacet
  facet normal 1.000000 0.000000 -0.000000
    outer loop
      vertex 5.000000 -29.974479 10.000000
      vertex 5.000000 29.974479 10.000000
      vertex 5.000000 17.239000 83.013000
    endloop
  endfacet
  facet normal 0.000000 0.000000 -1.000000
    outer loop
      vertex 5.000000 29.974479 10.000000
      vertex 4.757184 30.000000 10.000000
      vertex 5.000000 30.000000 10.000000
    endloop
  endfacet
  facet normal -0.000000 0.985068 0.172167
    outer loop
      vertex -5.000000 30.000000 10.000000
      vertex -5.000000 17.239000 83.013000
      vertex -0.000000 30.000000 10.000000
    endloop
  endfacet
  facet normal -0.000000 0.985068 0.172167
    outer loop
      vertex -0.000000 30.000000 10.000000
      vertex -5.000000 17.239000 83.013000
      vertex 5.000000 17.239000 83.013000
    endloop
  endfacet
  facet normal 0.000000 0.985068 0.172167
    outer loop
      vertex 4.757184 30.000000 10.000000
      vertex 5.000000 17.239000 83.013000
      vertex 5.000000 30.000000 10.000000
    endloop
  endfacet
  facet normal 0.000000 0.985068 0.172167
    outer loop
      vertex -0.000000 30.000000 10.000000
      vertex 5.000000 17.239000 83.013000
      vertex 4.757184 30.000000 10.000000
    endloop
  endfacet
  facet normal -0.000000 0.000000 1.000000
    outer loop
      vertex -0.000000 30.000000 10.000000
      vertex -0.000000 30.500000 10.000000
      vertex -6.341307 29.833502 10.000000
    endloop
  endfacet
  facet normal 0.000000 0.000000 1.000000
    outer loop
      vertex 0.000000 -30.000000 10.000000
      vertex -12.405468 -27.863136 10.000000
      vertex -6.341307 -29.833502 10.000000
    endloop
  endfacet
  facet normal 0.000000 0.000000 1.000000
    outer loop
      vertex 0.000000 -30.500000 10.000000
      vertex 0.000000 -30.000000 10.000000
      vertex -6.341307 -29.833502 10.000000
    endloop
  endfacet
  facet normal -0.000000 0.000000 1.000000
    outer loop
      vertex 4.757184 30.000000 10.000000
      vertex -0.000000 30.500000 10.000000
      vertex -0.000000 30.000000 10.000000
    endloop
  endfacet
  facet normal 0.000000 0.000000 1.000000
    outer loop
      vertex 4.757184 -30.000000 10.000000
      vertex 0.000000 -30.000000 10.000000
      vertex 0.000000 -30.500000 10.000000
    endloop
  endfacet
  facet normal 0.000000 0.000000 1.000000
    outer loop
      vertex 0.000000 -30.000000 10.000000
      vertex -17.927450 -24.675018 10.000000
      vertex -12.405468 -27.863136 10.000000
    endloop
  endfacet
  facet normal 0.000000 0.000000 1.000000
    outer loop
      vertex 0.000000 -30.000000 10.000000
      vertex -22.665917 -20.408483 10.000000
      vertex -17.927450 -24.675018 10.000000
    endloop
  endfacet
  facet normal 0.000000 0.000000 1.000000
    outer loop
      vertex 0.000000 -30.000000 10.000000
      vertex -26.413775 -15.250000 10.000000
      vertex -22.665917 -20.408483 10.000000
    endloop
  endfacet
  facet normal 0.000000 0.000000 1.000000
    outer loop
      vertex 0.000000 -30.000000 10.000000
      vertex -29.007224 -9.425018 10.000000
      vertex -26.413775 -15.250000 10.000000
    endloop
  endfacet
  facet normal 0.000000 0.000000 1.000000
    outer loop
      vertex 0.000000 -30.000000 10.000000
      vertex -30.332918 -3.188118 10.000000
      vertex -29.007224 -9.425018 10.000000
    endloop
  endfacet
  facet normal 0.000000 0.000000 1.000000
    outer loop
      vertex 0.000000 -30.000000 10.000000
      vertex -30.332918 3.188118 10.000000
      vertex -30.332918 -3.188118 10.000000
    endloop
  endfacet
  facet normal 0.000000 0.000000 1.000000
    outer loop
      vertex 0.000000 -30.000000 10.000000
      vertex -29.007224 9.425018 10.000000
      vertex -30.332918 3.188118 10.000000
    endloop
  endfacet
  facet normal 0.000000 0.000000 1.000000
    outer loop
      vertex 0.000000 -30.000000 10.000000
      vertex -26.413775 15.250000 10.000000
      vertex -29.007224 9.425018 10.000000
    endloop
  endfacet
  facet normal 0.000000 0.000000 1.000000
    outer loop
      vertex 0.000000 -30.000000 10.000000
      vertex -22.665917 20.408483 10.000000
      vertex -26.413775 15.250000 10.000000
    endloop
  endfacet
  facet normal 0.000000 0.000000 1.000000
    outer loop
      vertex 0.000000 -30.000000 10.000000
      vertex -17.927450 24.675018 10.000000
      vertex -22.665917 20.408483 10.000000
    endloop
  endfacet
  facet normal 0.000000 0.000000 1.000000
    outer loop
      vertex 0.000000 -30.000000 10.000000
      vertex -12.405468 27.863136 10.000000
      vertex -17.927450 24.675018 10.000000
    endloop
  endfacet
  facet normal 0.000000 0.000000 1.000000
    outer loop
      vertex 0.000000 -30.000000 10.000000
      vertex -6.341307 29.833502 10.000000
      vertex -12.405468 27.863136 10.000000
    endloop
  endfacet
  facet normal 0.000000 0.000000 1.000000
    outer loop
      vertex 0.000000 -30.000000 10.000000
      vertex -0.000000 30.000000 10.000000
      vertex -6.341307 29.833502 10.000000
    endloop
  endfacet
  facet normal 0.000000 -0.985068 0.172167
    outer loop
      vertex 5.000000 -17.239000 83.013000
      vertex -5.000000 -17.239000 83.013000
      vertex -5.000000 -30.000000 10.000000
    endloop
  endfacet
  facet normal 0.000000 -0.985068 0.172167
    outer loop
      vertex 4.757184 -30.000000 10.000000
      vertex 5.000000 -17.239000 83.013000
      vertex 0.000000 -30.000000 10.000000
    endloop
  endfacet
  facet normal 0.000000 -0.985068 0.172167
    outer loop
      vertex 0.000000 -30.000000 10.000000
      vertex 5.000000 -17.239000 83.013000
      vertex -5.000000 -30.000000 10.000000
    endloop
  endfacet
  facet normal 0.000000 -0.985068 0.172167
    outer loop
      vertex 5.000000 -30.000000 10.000000
      vertex 5.000000 -17.239000 83.013000
      vertex 4.757184 -30.000000 10.000000
    endloop
  endfacet
  facet normal -0.000000 0.000000 -1.000000
    outer loop
      vertex 4.757184 -30.000000 10.000000
      vertex 5.000000 -29.974479 10.000000
      vertex 5.000000 -30.000000 10.000000
    endloop
  endfacet
  facet normal 0.000000 -0.962949 0.269683
    outer loop
      vertex 5.000000 -16.298000 86.373000
      vertex -5.000000 -16.298000 86.373000
      vertex -5.000000 -17.239000 83.013000
    endloop
  endfacet
  facet normal 0.000000 -0.962949 0.269683
    outer loop
      vertex 5.000000 -17.239000 83.013000
      vertex 5.000000 -16.298000 86.373000
      vertex -5.000000 -17.239000 83.013000
    endloop
  endfacet
  facet normal 0.000000 -0.890494 0.454995
    outer loop
      vertex 5.000000 -14.711000 89.479000
      vertex -5.000000 -14.711000 89.479000
      vertex -5.000000 -16.298000 86.373000
    endloop
  endfacet
  facet normal 0.000000 -0.890494 0.454995
    outer loop
      vertex 5.000000 -16.298000 86.373000
      vertex 5.000000 -14.711000 89.479000
      vertex -5.000000 -16.298000 86.373000
    endloop
  endfacet
  facet normal 0.000000 -0.782293 0.622911
    outer loop
      vertex 5.000000 -12.538000 92.208000
      vertex -5.000000 -12.538000 92.208000
      vertex -5.000000 -14.711000 89.479000
    endloop
  endfacet
  facet normal 0.000000 -0.782293 0.622911
    outer loop
      vertex 5.000000 -14.711000 89.479000
      vertex 5.000000 -12.538000 92.208000
      vertex -5.000000 -14.711000 89.479000
    endloop
  endfacet
  facet normal 0.000000 -0.643421 0.765513
    outer loop
      vertex 5.000000 -9.867000 94.453000
      vertex -5.000000 -9.867000 94.453000
      vertex -5.000000 -12.538000 92.208000
    endloop
  endfacet
  facet normal 0.000000 -0.643421 0.765513
    outer loop
      vertex 5.000000 -12.538000 92.208000
      vertex 5.000000 -9.867000 94.453000
      vertex -5.000000 -12.538000 92.208000
    endloop
  endfacet
  facet normal 0.000000 -0.478812 0.877917
    outer loop
      vertex 5.000000 -6.805000 96.123000
      vertex -5.000000 -6.805000 96.123000
      vertex -5.000000 -9.867000 94.453000
    endloop
  endfacet
  facet normal 0.000000 -0.478812 0.877917
    outer loop
      vertex 5.000000 -9.867000 94.453000
      vertex 5.000000 -6.805000 96.123000
      vertex -5.000000 -9.867000 94.453000
    endloop
  endfacet
  facet normal 0.000000 -0.294911 0.955525
    outer loop
      vertex 5.000000 -3.471000 97.152000
      vertex -5.000000 -3.471000 97.152000
      vertex -5.000000 -6.805000 96.123000
    endloop
  endfacet
  facet normal 0.000000 -0.294911 0.955525
    outer loop
      vertex 5.000000 -6.805000 96.123000
      vertex 5.000000 -3.471000 97.152000
      vertex -5.000000 -6.805000 96.123000
    endloop
  endfacet
  facet normal 0.000000 -0.099759 0.995012
    outer loop
      vertex 5.000000 0.000000 97.500000
      vertex -5.000000 -0.000000 97.500000
      vertex -5.000000 -3.471000 97.152000
    endloop
  endfacet
  facet normal 0.000000 -0.099759 0.995012
    outer loop
      vertex 5.000000 -3.471000 97.152000
      vertex 5.000000 0.000000 97.500000
      vertex -5.000000 -3.471000 97.152000
    endloop
  endfacet
  facet normal 0.000000 0.099759 0.995012
    outer loop
      vertex 5.000000 3.471000 97.152000
      vertex -5.000000 3.471000 97.152000
      vertex -5.000000 -0.000000 97.500000
    endloop
  endfacet
  facet normal 0.000000 0.099759 0.995012
    outer loop
      vertex 5.000000 0.000000 97.500000
      vertex 5.000000 3.471000 97.152000
      vertex -5.000000 -0.000000 97.500000
    endloop
  endfacet
  facet normal 0.000000 0.294911 0.955525
    outer loop
      vertex 5.000000 6.805000 96.123000
      vertex -5.000000 6.805000 96.123000
      vertex -5.000000 3.471000 97.152000
    endloop
  endfacet
  facet normal 0.000000 0.294911 0.955525
    outer loop
      vertex 5.000000 3.471000 97.152000
      vertex 5.000000 6.805000 96.123000
      vertex -5.000000 3.471000 97.152000
    endloop
  endfacet
  facet normal 0.000000 0.478812 0.877917
    outer loop
      vertex 5.000000 9.867000 94.453000
      vertex -5.000000 9.867000 94.453000
      vertex -5.000000 6.805000 96.123000
    endloop
  endfacet
  facet normal 0.000000 0.478812 0.877917
    outer loop
      vertex 5.000000 6.805000 96.123000
      vertex 5.000000 9.867000 94.453000
      vertex -5.000000 6.805000 96.123000
    endloop
  endfacet
  facet normal 0.000000 0.643421 0.765513
    outer loop
      vertex 5.000000 12.538000 92.208000
      vertex -5.000000 12.538000 92.208000
      vertex -5.000000 9.867000 94.453000
    endloop
  endfacet
  facet normal 0.000000 0.643421 0.765513
    outer loop
      vertex 5.000000 9.867000 94.453000
      vertex 5.000000 12.538000 92.208000
      vertex -5.000000 9.867000 94.453000
    endloop
  endfacet
  facet normal 0.000000 0.782293 0.622911
    outer loop
      vertex -5.000000 14.711000 89.479000
      vertex -5.000000 12.538000 92.208000
      vertex 5.000000 14.711000 89.479000
    endloop
  endfacet
  facet normal 0.000000 0.782293 0.622911
    outer loop
      vertex 5.000000 14.711000 89.479000
      vertex -5.000000 12.538000 92.208000
      vertex 5.000000 12.538000 92.208000
    endloop
  endfacet
  facet normal 0.000000 0.890494 0.454995
    outer loop
      vertex -5.000000 16.298000 86.373000
      vertex -5.000000 14.711000 89.479000
      vertex 5.000000 16.298000 86.373000
    endloop
  endfacet
  facet normal 0.000000 0.890494 0.454995
    outer loop
      vertex 5.000000 16.298000 86.373000
      vertex -5.000000 14.711000 89.479000
      vertex 5.000000 14.711000 89.479000
    endloop
  endfacet
  facet normal 0.000000 0.962949 0.269683
    outer loop
      vertex -5.000000 17.239000 83.013000
      vertex -5.000000 16.298000 86.373000
      vertex 5.000000 17.239000 83.013000
    endloop
  endfacet
  facet normal 0.000000 0.962949 0.269683
    outer loop
      vertex 5.000000 17.239000 83.013000
      vertex -5.000000 16.298000 86.373000
      vertex 5.000000 16.298000 86.373000
    endloop
  endfacet
  facet normal -0.000000 0.000000 -1.000000
    outer loop
      vertex -5.000000 30.000000 10.000000
      vertex -0.000000 30.000000 10.000000
      vertex -5.000000 -30.000000 10.000000
    endloop
  endfacet
  facet normal 0.000000 0.000000 -1.000000
    outer loop
      vertex -5.000000 -30.000000 10.000000
      vertex -0.000000 30.000000 10.000000
      vertex 0.000000 -30.000000 10.000000
    endloop
  endfacet
  facet normal -1.000000 -0.000000 0.000000
    outer loop
      vertex -5.000000 30.000000 10.000000
      vertex -5.000000 -30.000000 10.000000
      vertex -5.000000 17.239000 83.013000
    endloop
  endfacet
  facet normal -1.000000 0.000000 0.000000
    outer loop
      vertex -5.000000 -12.500000 80.000000
      vertex -5.000000 -30.000000 10.000000
      vertex -5.000000 -17.239000 83.013000
    endloop
  endfacet
  facet normal -1.000000 -0.000000 0.000000
    outer loop
      vertex -5.000000 -11.419318 85.084208
      vertex -5.000000 -17.239000 83.013000
      vertex -5.000000 -16.298000 86.373000
    endloop
  endfacet
  facet normal -1.000000 -0.000000 0.000000
    outer loop
      vertex -5.000000 -10.112712 87.347316
      vertex -5.000000 -16.298000 86.373000
      vertex -5.000000 -14.711000 89.479000
    endloop
  endfacet
  facet normal -1.000000 -0.000000 0.000000
    outer loop
      vertex -5.000000 -8.364133 89.289310
      vertex -5.000000 -14.711000 89.479000
      vertex -5.000000 -12.538000 92.208000
    endloop
  endfacet
  facet normal -1.000000 -0.000000 0.000000
    outer loop
      vertex -5.000000 -6.250000 90.825318
      vertex -5.000000 -12.538000 92.208000
      vertex -5.000000 -9.867000 94.453000
    endloop
  endfacet
  facet normal -1.000000 -0.000000 0.000000
    outer loop
      vertex -5.000000 -1.306606 92.431524
      vertex -5.000000 -9.867000 94.453000
      vertex -5.000000 -6.805000 96.123000
    endloop
  endfacet
  facet normal -1.000000 -0.000000 -0.000000
    outer loop
      vertex -5.000000 1.306606 92.431524
      vertex -5.000000 -6.805000 96.123000
      vertex -5.000000 -3.471000 97.152000
    endloop
  endfacet
  facet normal -1.000000 -0.000000 0.000000
    outer loop
      vertex -5.000000 6.250000 90.825318
      vertex -5.000000 -3.471000 97.152000
      vertex -5.000000 -0.000000 97.500000
    endloop
  endfacet
  facet normal -1.000000 0.000000 0.000000
    outer loop
      vertex -5.000000 17.239000 83.013000
      vertex -5.000000 -0.000000 97.500000
      vertex -5.000000 3.471000 97.152000
    endloop
  endfacet
  facet normal -1.000000 0.000000 0.000000
    outer loop
      vertex -5.000000 17.239000 83.013000
      vertex -5.000000 3.471000 97.152000
      vertex -5.000000 6.805000 96.123000
    endloop
  endfacet
  facet normal -1.000000 -0.000000 -0.000000
    outer loop
      vertex -5.000000 17.239000 83.013000
      vertex -5.000000 6.805000 96.123000
      vertex -5.000000 9.867000 94.453000
    endloop
  endfacet
  facet normal -1.000000 0.000000 0.000000
    outer loop
      vertex -5.000000 17.239000 83.013000
      vertex -5.000000 9.867000 94.453000
      vertex -5.000000 12.538000 92.208000
    endloop
  endfacet
  facet normal -1.000000 0.000000 0.000000
    outer loop
      vertex -5.000000 17.239000 83.013000
      vertex -5.000000 12.538000 92.208000
      vertex -5.000000 14.711000 89.479000
    endloop
  endfacet
  facet normal -1.000000 -0.000000 -0.000000
    outer loop
      vertex -5.000000 17.239000 83.013000
      vertex -5.000000 14.711000 89.479000
      vertex -5.000000 16.298000 86.373000
    endloop
  endfacet
  facet normal -1.000000 0.000000 0.000000
    outer loop
      vertex -5.000000 17.239000 83.013000
      vertex -5.000000 12.226845 77.401104
      vertex -5.000000 12.500000 80.000000
    endloop
  endfacet
  facet normal -1.000000 0.000000 0.000000
    outer loop
      vertex -5.000000 17.239000 83.013000
      vertex -5.000000 12.500000 80.000000
      vertex -5.000000 12.226845 82.598896
    endloop
  endfacet
  facet normal -1.000000 -0.000000 -0.000000
    outer loop
      vertex -5.000000 10.112712 87.347316
      vertex -5.000000 17.239000 83.013000
      vertex -5.000000 11.419318 85.084208
    endloop
  endfacet
  facet normal -1.000000 -0.000000 -0.000000
    outer loop
      vertex -5.000000 8.364133 89.289310
      vertex -5.000000 17.239000 83.013000
      vertex -5.000000 10.112712 87.347316
    endloop
  endfacet
  facet normal -1.000000 -0.000000 -0.000000
    outer loop
      vertex -5.000000 3.862712 91.888206
      vertex -5.000000 -3.471000 97.152000
      vertex -5.000000 6.250000 90.825318
    endloop
  endfacet
  facet normal -1.000000 -0.000000 0.000000
    outer loop
      vertex -5.000000 17.239000 83.013000
      vertex -5.000000 8.364133 89.289310
      vertex -5.000000 -0.000000 97.500000
    endloop
  endfacet
  facet normal -1.000000 0.000000 0.000000
    outer loop
      vertex -5.000000 8.364133 89.289310
      vertex -5.000000 6.250000 90.825318
      vertex -5.000000 -0.000000 97.500000
    endloop
  endfacet
  facet normal -1.000000 0.000000 0.000000
    outer loop
      vertex -5.000000 -1.306606 92.431524
      vertex -5.000000 -6.805000 96.123000
      vertex -5.000000 1.306606 92.431524
    endloop
  endfacet
  facet normal -1.000000 -0.000000 -0.000000
    outer loop
      vertex -5.000000 1.306606 92.431524
      vertex -5.000000 -3.471000 97.152000
      vertex -5.000000 3.862712 91.888206
    endloop
  endfacet
  facet normal -1.000000 -0.000000 0.000000
    outer loop
      vertex -5.000000 -8.364133 89.289310
      vertex -5.000000 -12.538000 92.208000
      vertex -5.000000 -6.250000 90.825318
    endloop
  endfacet
  facet normal -1.000000 -0.000000 0.000000
    outer loop
      vertex -5.000000 -3.862712 91.888206
      vertex -5.000000 -9.867000 94.453000
      vertex -5.000000 -1.306606 92.431524
    endloop
  endfacet
  facet normal -1.000000 -0.000000 0.000000
    outer loop
      vertex -5.000000 -6.250000 90.825318
      vertex -5.000000 -9.867000 94.453000
      vertex -5.000000 -3.862712 91.888206
    endloop
  endfacet
  facet normal -1.000000 0.000000 -0.000000
    outer loop
      vertex -5.000000 -12.500000 80.000000
      vertex -5.000000 -17.239000 83.013000
      vertex -5.000000 -12.226845 82.598896
    endloop
  endfacet
  facet normal -1.000000 0.000000 0.000000
    outer loop
      vertex -5.000000 -12.226845 77.401104
      vertex -5.000000 -30.000000 10.000000
      vertex -5.000000 -12.500000 80.000000
    endloop
  endfacet
  facet normal -1.000000 -0.000000 0.000000
    outer loop
      vertex -5.000000 8.364133 70.710690
      vertex -5.000000 -30.000000 10.000000
      vertex -5.000000 6.250000 69.174682
    endloop
  endfacet
  facet normal -1.000000 -0.000000 0.000000
    outer loop
      vertex -5.000000 -11.419318 74.915792
      vertex -5.000000 -30.000000 10.000000
      vertex -5.000000 -12.226845 77.401104
    endloop
  endfacet
  facet normal -1.000000 0.000000 0.000000
    outer loop
      vertex -5.000000 -10.112712 72.652684
      vertex -5.000000 -30.000000 10.000000
      vertex -5.000000 -11.419318 74.915792
    endloop
  endfacet
  facet normal -1.000000 0.000000 0.000000
    outer loop
      vertex -5.000000 -8.364133 70.710690
      vertex -5.000000 -30.000000 10.000000
      vertex -5.000000 -10.112712 72.652684
    endloop
  endfacet
  facet normal -1.000000 0.000000 0.000000
    outer loop
      vertex -5.000000 -6.250000 69.174682
      vertex -5.000000 -30.000000 10.000000
      vertex -5.000000 -8.364133 70.710690
    endloop
  endfacet
  facet normal -1.000000 -0.000000 0.000000
    outer loop
      vertex -5.000000 -3.862712 68.111794
      vertex -5.000000 -30.000000 10.000000
      vertex -5.000000 -6.250000 69.174682
    endloop
  endfacet
  facet normal -1.000000 0.000000 0.000000
    outer loop
      vertex -5.000000 -1.306606 67.568476
      vertex -5.000000 -30.000000 10.000000
      vertex -5.000000 -3.862712 68.111794
    endloop
  endfacet
  facet normal -1.000000 0.000000 0.000000
    outer loop
      vertex -5.000000 1.306606 67.568476
      vertex -5.000000 -30.000000 10.000000
      vertex -5.000000 -1.306606 67.568476
    endloop
  endfacet
  facet normal -1.000000 -0.000000 0.000000
    outer loop
      vertex -5.000000 3.862712 68.111794
      vertex -5.000000 -30.000000 10.000000
      vertex -5.000000 1.306606 67.568476
    endloop
  endfacet
  facet normal -1.000000 -0.000000 0.000000
    outer loop
      vertex -5.000000 6.250000 69.174682
      vertex -5.000000 -30.000000 10.000000
      vertex -5.000000 3.862712 68.111794
    endloop
  endfacet
  facet normal -1.000000 -0.000000 0.000000
    outer loop
      vertex -5.000000 10.112712 72.652684
      vertex -5.000000 -30.000000 10.000000
      vertex -5.000000 8.364133 70.710690
    endloop
  endfacet
  facet normal -1.000000 -0.000000 0.000000
    outer loop
      vertex -5.000000 11.419318 85.084208
      vertex -5.000000 17.239000 83.013000
      vertex -5.000000 12.226845 82.598896
    endloop
  endfacet
  facet normal -1.000000 -0.000000 0.000000
    outer loop
      vertex -5.000000 17.239000 83.013000
      vertex -5.000000 -30.000000 10.000000
      vertex -5.000000 10.112712 72.652684
    endloop
  endfacet
  facet normal -1.000000 0.000000 0.000000
    outer loop
      vertex -5.000000 17.239000 83.013000
      vertex -5.000000 10.112712 72.652684
      vertex -5.000000 11.419318 74.915792
    endloop
  endfacet
  facet normal -1.000000 -0.000000 0.000000
    outer loop
      vertex -5.000000 12.226845 77.401104
      vertex -5.000000 17.239000 83.013000
      vertex -5.000000 11.419318 74.915792
    endloop
  endfacet
  facet normal -1.000000 0.000000 -0.000000
    outer loop
      vertex -5.000000 -12.226845 82.598896
      vertex -5.000000 -17.239000 83.013000
      vertex -5.000000 -11.419318 85.084208
    endloop
  endfacet
  facet normal -1.000000 -0.000000 0.000000
    outer loop
      vertex -5.000000 -11.419318 85.084208
      vertex -5.000000 -16.298000 86.373000
      vertex -5.000000 -10.112712 87.347316
    endloop
  endfacet
  facet normal -1.000000 -0.000000 0.000000
    outer loop
      vertex -5.000000 -10.112712 87.347316
      vertex -5.000000 -14.711000 89.479000
      vertex -5.000000 -8.364133 89.289310
    endloop
  endfacet
  facet normal 0.000000 -0.994522 0.104528
    outer loop
      vertex -5.000000 12.226845 77.401104
      vertex -0.000000 12.226845 77.401104
      vertex -0.000000 12.500000 80.000000
    endloop
  endfacet
  facet normal 0.000000 -0.994522 0.104528
    outer loop
      vertex -5.000000 12.500000 80.000000
      vertex -5.000000 12.226845 77.401104
      vertex -0.000000 12.500000 80.000000
    endloop
  endfacet
  facet normal 0.000000 -0.951056 0.309017
    outer loop
      vertex -5.000000 11.419318 74.915792
      vertex -0.000000 11.419318 74.915792
      vertex -0.000000 12.226845 77.401104
    endloop
  endfacet
  facet normal 0.000000 -0.951056 0.309017
    outer loop
      vertex -5.000000 12.226845 77.401104
      vertex -5.000000 11.419318 74.915792
      vertex -0.000000 12.226845 77.401104
    endloop
  endfacet
  facet normal 0.000000 -0.866025 0.500000
    outer loop
      vertex -5.000000 10.112712 72.652684
      vertex -0.000000 10.112712 72.652684
      vertex -0.000000 11.419318 74.915792
    endloop
  endfacet
  facet normal 0.000000 -0.866025 0.500000
    outer loop
      vertex -5.000000 11.419318 74.915792
      vertex -5.000000 10.112712 72.652684
      vertex -0.000000 11.419318 74.915792
    endloop
  endfacet
  facet normal 0.000000 -0.743145 0.669131
    outer loop
      vertex -5.000000 8.364133 70.710690
      vertex -0.000000 8.364133 70.710690
      vertex -0.000000 10.112712 72.652684
    endloop
  endfacet
  facet normal 0.000000 -0.743145 0.669131
    outer loop
      vertex -5.000000 10.112712 72.652684
      vertex -5.000000 8.364133 70.710690
      vertex -0.000000 10.112712 72.652684
    endloop
  endfacet
  facet normal 0.000000 -0.587785 0.809017
    outer loop
      vertex -5.000000 6.250000 69.174682
      vertex -0.000000 6.250000 69.174682
      vertex -0.000000 8.364133 70.710690
    endloop
  endfacet
  facet normal 0.000000 -0.587785 0.809017
    outer loop
      vertex -5.000000 8.364133 70.710690
      vertex -5.000000 6.250000 69.174682
      vertex -0.000000 8.364133 70.710690
    endloop
  endfacet
  facet normal 0.000000 -0.406736 0.913546
    outer loop
      vertex -5.000000 3.862712 68.111794
      vertex -0.000000 3.862712 68.111794
      vertex -0.000000 6.250000 69.174682
    endloop
  endfacet
  facet normal 0.000000 -0.406736 0.913546
    outer loop
      vertex -5.000000 6.250000 69.174682
      vertex -5.000000 3.862712 68.111794
      vertex -0.000000 6.250000 69.174682
    endloop
  endfacet
  facet normal 0.000000 -0.207912 0.978148
    outer loop
      vertex -5.000000 1.306606 67.568476
      vertex -0.000000 1.306606 67.568476
      vertex -0.000000 3.862712 68.111794
    endloop
  endfacet
  facet normal 0.000000 -0.207912 0.978148
    outer loop
      vertex -5.000000 3.862712 68.111794
      vertex -5.000000 1.306606 67.568476
      vertex -0.000000 3.862712 68.111794
    endloop
  endfacet
  facet normal 0.000000 0.000000 1.000000
    outer loop
      vertex -5.000000 -1.306606 67.568476
      vertex -0.000000 -1.306606 67.568476
      vertex -0.000000 1.306606 67.568476
    endloop
  endfacet
  facet normal 0.000000 -0.000000 1.000000
    outer loop
      vertex -5.000000 1.306606 67.568476
      vertex -5.000000 -1.306606 67.568476
      vertex -0.000000 1.306606 67.568476
    endloop
  endfacet
  facet normal 0.000000 0.207912 0.978148
    outer loop
      vertex -5.000000 -3.862712 68.111794
      vertex -0.000000 -3.862712 68.111794
      vertex -0.000000 -1.306606 67.568476
    endloop
  endfacet
  facet normal -0.000000 0.207912 0.978148
    outer loop
      vertex -5.000000 -1.306606 67.568476
      vertex -5.000000 -3.862712 68.111794
      vertex -0.000000 -1.306606 67.568476
    endloop
  endfacet
  facet normal 0.000000 0.406736 0.913546
    outer loop
      vertex -5.000000 -6.250000 69.174682
      vertex -0.000000 -6.250000 69.174682
      vertex -0.000000 -3.862712 68.111794
    endloop
  endfacet
  facet normal 0.000000 0.406736 0.913546
    outer loop
      vertex -5.000000 -3.862712 68.111794
      vertex -5.000000 -6.250000 69.174682
      vertex -0.000000 -3.862712 68.111794
    endloop
  endfacet
  facet normal 0.000000 0.587785 0.809017
    outer loop
      vertex -5.000000 -8.364133 70.710690
      vertex -0.000000 -8.364133 70.710690
      vertex -0.000000 -6.250000 69.174682
    endloop
  endfacet
  facet normal 0.000000 0.587785 0.809017
    outer loop
      vertex -5.000000 -6.250000 69.174682
      vertex -5.000000 -8.364133 70.710690
      vertex -0.000000 -6.250000 69.174682
    endloop
  endfacet
  facet normal -0.000000 0.743145 0.669131
    outer loop
      vertex 0.000000 -10.112712 72.652684
      vertex -0.000000 -8.364133 70.710690
      vertex -5.000000 -10.112712 72.652684
    endloop
  endfacet
  facet normal 0.000000 0.743145 0.669131
    outer loop
      vertex -5.000000 -10.112712 72.652684
      vertex -0.000000 -8.364133 70.710690
      vertex -5.000000 -8.364133 70.710690
    endloop
  endfacet
  facet normal -0.000000 0.866025 0.500000
    outer loop
      vertex 0.000000 -11.419318 74.915792
      vertex 0.000000 -10.112712 72.652684
      vertex -5.000000 -11.419318 74.915792
    endloop
  endfacet
  facet normal 0.000000 0.866025 0.500000
    outer loop
      vertex -5.000000 -11.419318 74.915792
      vertex 0.000000 -10.112712 72.652684
      vertex -5.000000 -10.112712 72.652684
    endloop
  endfacet
  facet normal -0.000000 0.951056 0.309017
    outer loop
      vertex 0.000000 -12.226845 77.401104
      vertex 0.000000 -11.419318 74.915792
      vertex -5.000000 -12.226845 77.401104
    endloop
  endfacet
  facet normal 0.000000 0.951056 0.309017
    outer loop
      vertex -5.000000 -12.226845 77.401104
      vertex 0.000000 -11.419318 74.915792
      vertex -5.000000 -11.419318 74.915792
    endloop
  endfacet
  facet normal -0.000000 0.994522 0.104528
    outer loop
      vertex 0.000000 -12.500000 80.000000
      vertex 0.000000 -12.226845 77.401104
      vertex -5.000000 -12.500000 80.000000
    endloop
  endfacet
  facet normal 0.000000 0.994522 0.104528
    outer loop
      vertex -5.000000 -12.500000 80.000000
      vertex 0.000000 -12.226845 77.401104
      vertex -5.000000 -12.226845 77.401104
    endloop
  endfacet
  facet normal 0.000000 0.994522 -0.104528
    outer loop
      vertex 0.000000 -12.500000 80.000000
      vertex -5.000000 -12.500000 80.000000
      vertex 0.000000 -12.226845 82.598896
    endloop
  endfacet
  facet normal -0.000000 0.994522 -0.104528
    outer loop
      vertex 0.000000 -12.226845 82.598896
      vertex -5.000000 -12.500000 80.000000
      vertex -5.000000 -12.226845 82.598896
    endloop
  endfacet
  facet normal -0.000000 0.951056 -0.309017
    outer loop
      vertex 0.000000 -12.226845 82.598896
      vertex -5.000000 -12.226845 82.598896
      vertex 0.000000 -11.419318 85.084208
    endloop
  endfacet
  facet normal -0.000000 0.951056 -0.309017
    outer loop
      vertex 0.000000 -11.419318 85.084208
      vertex -5.000000 -12.226845 82.598896
      vertex -5.000000 -11.419318 85.084208
    endloop
  endfacet
  facet normal -0.000000 0.866025 -0.500000
    outer loop
      vertex 0.000000 -11.419318 85.084208
      vertex -5.000000 -11.419318 85.084208
      vertex 0.000000 -10.112712 87.347316
    endloop
  endfacet
  facet normal -0.000000 0.866025 -0.500000
    outer loop
      vertex 0.000000 -10.112712 87.347316
      vertex -5.000000 -11.419318 85.084208
      vertex -5.000000 -10.112712 87.347316
    endloop
  endfacet
  facet normal -0.000000 0.743145 -0.669131
    outer loop
      vertex 0.000000 -10.112712 87.347316
      vertex -5.000000 -10.112712 87.347316
      vertex 0.000000 -8.364133 89.289310
    endloop
  endfacet
  facet normal -0.000000 0.743145 -0.669131
    outer loop
      vertex 0.000000 -8.364133 89.289310
      vertex -5.000000 -10.112712 87.347316
      vertex -5.000000 -8.364133 89.289310
    endloop
  endfacet
  facet normal -0.000000 0.587785 -0.809017
    outer loop
      vertex 0.000000 -8.364133 89.289310
      vertex -5.000000 -8.364133 89.289310
      vertex 0.000000 -6.250000 90.825318
    endloop
  endfacet
  facet normal -0.000000 0.587785 -0.809017
    outer loop
      vertex 0.000000 -6.250000 90.825318
      vertex -5.000000 -8.364133 89.289310
      vertex -5.000000 -6.250000 90.825318
    endloop
  endfacet
  facet normal -0.000000 0.406736 -0.913546
    outer loop
      vertex 0.000000 -6.250000 90.825318
      vertex -5.000000 -6.250000 90.825318
      vertex 0.000000 -3.862712 91.888206
    endloop
  endfacet
  facet normal -0.000000 0.406736 -0.913546
    outer loop
      vertex 0.000000 -3.862712 91.888206
      vertex -5.000000 -6.250000 90.825318
      vertex -5.000000 -3.862712 91.888206
    endloop
  endfacet
  facet normal -0.000000 0.207912 -0.978148
    outer loop
      vertex 0.000000 -3.862712 91.888206
      vertex -5.000000 -3.862712 91.888206
      vertex 0.000000 -1.306606 92.431524
    endloop
  endfacet
  facet normal -0.000000 0.207912 -0.978148
    outer loop
      vertex 0.000000 -1.306606 92.431524
      vertex -5.000000 -3.862712 91.888206
      vertex -5.000000 -1.306606 92.431524
    endloop
  endfacet
  facet normal 0.000000 0.000000 -1.000000
    outer loop
      vertex 0.000000 -1.306606 92.431524
      vertex -5.000000 -1.306606 92.431524
      vertex 0.000000 1.306606 92.431524
    endloop
  endfacet
  facet normal 0.000000 0.000000 -1.000000
    outer loop
      vertex 0.000000 1.306606 92.431524
      vertex -5.000000 -1.306606 92.431524
      vertex -5.000000 1.306606 92.431524
    endloop
  endfacet
  facet normal 0.000000 -0.207912 -0.978148
    outer loop
      vertex 0.000000 1.306606 92.431524
      vertex -5.000000 1.306606 92.431524
      vertex 0.000000 3.862712 91.888206
    endloop
  endfacet
  facet normal 0.000000 -0.207912 -0.978148
    outer loop
      vertex 0.000000 3.862712 91.888206
      vertex -5.000000 1.306606 92.431524
      vertex -5.000000 3.862712 91.888206
    endloop
  endfacet
  facet normal 0.000000 -0.406736 -0.913546
    outer loop
      vertex 0.000000 3.862712 91.888206
      vertex -5.000000 3.862712 91.888206
      vertex 0.000000 6.250000 90.825318
    endloop
  endfacet
  facet normal 0.000000 -0.406736 -0.913546
    outer loop
      vertex 0.000000 6.250000 90.825318
      vertex -5.000000 3.862712 91.888206
      vertex -5.000000 6.250000 90.825318
    endloop
  endfacet
  facet normal 0.000000 -0.587785 -0.809017
    outer loop
      vertex 0.000000 6.250000 90.825318
      vertex -5.000000 6.250000 90.825318
      vertex 0.000000 8.364133 89.289310
    endloop
  endfacet
  facet normal 0.000000 -0.587785 -0.809017
    outer loop
      vertex 0.000000 8.364133 89.289310
      vertex -5.000000 6.250000 90.825318
      vertex -5.000000 8.364133 89.289310
    endloop
  endfacet
  facet normal 0.000000 -0.743145 -0.669131
    outer loop
      vertex -0.000000 10.112712 87.347316
      vertex 0.000000 8.364133 89.289310
      vertex -5.000000 8.364133 89.289310
    endloop
  endfacet
  facet normal 0.000000 -0.743145 -0.669131
    outer loop
      vertex -5.000000 10.112712 87.347316
      vertex -0.000000 10.112712 87.347316
      vertex -5.000000 8.364133 89.289310
    endloop
  endfacet
  facet normal 0.000000 -0.866025 -0.500000
    outer loop
      vertex -0.000000 11.419318 85.084208
      vertex -0.000000 10.112712 87.347316
      vertex -5.000000 10.112712 87.347316
    endloop
  endfacet
  facet normal 0.000000 -0.866025 -0.500000
    outer loop
      vertex -5.000000 11.419318 85.084208
      vertex -0.000000 11.419318 85.084208
      vertex -5.000000 10.112712 87.347316
    endloop
  endfacet
  facet normal 0.000000 -0.951056 -0.309017
    outer loop
      vertex -0.000000 12.226845 82.598896
      vertex -0.000000 11.419318 85.084208
      vertex -5.000000 11.419318 85.084208
    endloop
  endfacet
  facet normal 0.000000 -0.951056 -0.309017
    outer loop
      vertex -5.000000 12.226845 82.598896
      vertex -0.000000 12.226845 82.598896
      vertex -5.000000 11.419318 85.084208
    endloop
  endfacet
  facet normal 0.000000 -0.994522 -0.104528
    outer loop
      vertex -0.000000 12.500000 80.000000
      vertex -0.000000 12.226845 82.598896
      vertex -5.000000 12.226845 82.598896
    endloop
  endfacet
  facet normal 0.000000 -0.994522 -0.104528
    outer loop
      vertex -5.000000 12.500000 80.000000
      vertex -0.000000 12.500000 80.000000
      vertex -5.000000 12.226845 82.598896
    endloop
  endfacet
  facet normal -1.000000 -0.000000 0.000000
    outer loop
      vertex -0.000000 11.419318 74.915792
      vertex -0.000000 10.112712 72.652684
      vertex -0.000000 12.226845 77.401104
    endloop
  endfacet
  facet normal -1.000000 -0.000000 0.000000
    outer loop
      vertex -0.000000 12.226845 77.401104
      vertex -0.000000 10.112712 72.652684
      vertex -0.000000 8.364133 70.710690
    endloop
  endfacet
  facet normal -1.000000 -0.000000 0.000000
    outer loop
      vertex -0.000000 12.226845 77.401104
      vertex -0.000000 8.364133 70.710690
      vertex -0.000000 6.250000 69.174682
    endloop
  endfacet
  facet normal -1.000000 -0.000000 0.000000
    outer loop
      vertex -0.000000 12.226845 77.401104
      vertex -0.000000 6.250000 69.174682
      vertex -0.000000 3.862712 68.111794
    endloop
  endfacet
  facet normal -1.000000 -0.000000 0.000000
    outer loop
      vertex -0.000000 12.226845 77.401104
      vertex -0.000000 3.862712 68.111794
      vertex -0.000000 1.306606 67.568476
    endloop
  endfacet
  facet normal -1.000000 -0.000000 0.000000
    outer loop
      vertex -0.000000 12.226845 77.401104
      vertex -0.000000 1.306606 67.568476
      vertex -0.000000 -1.306606 67.568476
    endloop
  endfacet
  facet normal -1.000000 -0.000000 0.000000
    outer loop
      vertex -0.000000 12.226845 77.401104
      vertex -0.000000 -1.306606 67.568476
      vertex -0.000000 -3.862712 68.111794
    endloop
  endfacet
  facet normal -1.000000 -0.000000 0.000000
    outer loop
      vertex -0.000000 12.226845 77.401104
      vertex -0.000000 -3.862712 68.111794
      vertex -0.000000 -6.250000 69.174682
    endloop
  endfacet
  facet normal -1.000000 -0.000000 0.000000
    outer loop
      vertex -0.000000 12.226845 77.401104
      vertex -0.000000 -6.250000 69.174682
      vertex -0.000000 -8.364133 70.710690
    endloop
  endfacet
  facet normal -1.000000 -0.000000 0.000000
    outer loop
      vertex -0.000000 12.226845 77.401104
      vertex -0.000000 -8.364133 70.710690
      vertex 0.000000 -10.112712 72.652684
    endloop
  endfacet
  facet normal -1.000000 -0.000000 0.000000
    outer loop
      vertex -0.000000 12.226845 77.401104
      vertex 0.000000 -10.112712 72.652684
      vertex 0.000000 -11.419318 74.915792
    endloop
  endfacet
  facet normal -1.000000 -0.000000 0.000000
    outer loop
      vertex -0.000000 12.226845 77.401104
      vertex 0.000000 -11.419318 74.915792
      vertex 0.000000 -12.226845 77.401104
    endloop
  endfacet
  facet normal -1.000000 -0.000000 0.000000
    outer loop
      vertex -0.000000 12.226845 77.401104
      vertex 0.000000 -12.226845 77.401104
      vertex 0.000000 -12.500000 80.000000
    endloop
  endfacet
  facet normal -1.000000 -0.000000 0.000000
    outer loop
      vertex -0.000000 12.226845 77.401104
      vertex 0.000000 -12.500000 80.000000
      vertex 0.000000 -12.226845 82.598896
    endloop
  endfacet
  facet normal -1.000000 -0.000000 0.000000
    outer loop
      vertex -0.000000 12.226845 77.401104
      vertex 0.000000 -12.226845 82.598896
      vertex 0.000000 -11.419318 85.084208
    endloop
  endfacet
  facet normal -1.000000 -0.000000 0.000000
    outer loop
      vertex -0.000000 12.226845 77.401104
      vertex 0.000000 -11.419318 85.084208
      vertex 0.000000 -10.112712 87.347316
    endloop
  endfacet
  facet normal -1.000000 -0.000000 0.000000
    outer loop
      vertex -0.000000 12.226845 77.401104
      vertex 0.000000 -10.112712 87.347316
      vertex 0.000000 -8.364133 89.289310
    endloop
  endfacet
  facet normal -1.000000 -0.000000 0.000000
    outer loop
      vertex -0.000000 12.226845 77.401104
      vertex 0.000000 -8.364133 89.289310
      vertex 0.000000 -6.250000 90.825318
    endloop
  endfacet
  facet normal -1.000000 -0.000000 0.000000
    outer loop
      vertex -0.000000 12.226845 77.401104
      vertex 0.000000 -6.250000 90.825318
      vertex 0.000000 -3.862712 91.888206
    endloop
  endfacet
  facet normal -1.000000 -0.000000 0.000000
    outer loop
      vertex -0.000000 12.226845 77.401104
      vertex 0.000000 -3.862712 91.888206
      vertex 0.000000 -1.306606 92.431524
    endloop
  endfacet
  facet normal -1.000000 -0.000000 0.000000
    outer loop
      vertex -0.000000 12.226845 77.401104
      vertex 0.000000 -1.306606 92.431524
      vertex 0.000000 1.306606 92.431524
    endloop
  endfacet
  facet normal -1.000000 -0.000000 0.000000
    outer loop
      vertex -0.000000 12.226845 77.401104
      vertex 0.000000 1.306606 92.431524
      vertex 0.000000 3.862712 91.888206
    endloop
  endfacet
  facet normal -1.000000 -0.000000 0.000000
    outer loop
      vertex -0.000000 12.226845 77.401104
      vertex 0.000000 3.862712 91.888206
      vertex 0.000000 6.250000 90.825318
    endloop
  endfacet
  facet normal -1.000000 -0.000000 0.000000
    outer loop
      vertex -0.000000 12.226845 77.401104
      vertex 0.000000 6.250000 90.825318
      vertex 0.000000 8.364133 89.289310
    endloop
  endfacet
  facet normal -1.000000 -0.000000 0.000000
    outer loop
      vertex -0.000000 12.226845 77.401104
      vertex 0.000000 8.364133 89.289310
      vertex -0.000000 10.112712 87.347316
    endloop
  endfacet
  facet normal -1.000000 -0.000000 0.000000
    outer loop
      vertex -0.000000 12.226845 77.401104
      vertex -0.000000 10.112712 87.347316
      vertex -0.000000 11.419318 85.084208
    endloop
  endfacet
  facet normal -1.000000 -0.000000 0.000000
    outer loop
      vertex -0.000000 12.226845 77.401104
      vertex -0.000000 11.419318 85.084208
      vertex -0.000000 12.226845 82.598896
    endloop
  endfacet
  facet normal -1.000000 -0.000000 0.000000
    outer loop
      vertex -0.000000 12.226845 77.401104
      vertex -0.000000 12.226845 82.598896
      vertex -0.000000 12.500000 80.000000
    endloop
  endfacet
endsolid
