solid
  facet normal -0.000000 0.000000 -1.000000
    outer loop
      vertex -17.500000 0.000000 0.000000
      vertex -17.117583 3.638455 0.000000
      vertex -17.117583 -3.638455 0.000000
    endloop
  endfacet
  facet normal 0.000000 -0.000000 -1.000000
    outer loop
      vertex -17.117583 -3.638455 0.000000
      vertex -17.117583 3.638455 0.000000
      vertex -15.987046 7.117891 0.000000
    endloop
  endfacet
  facet normal 0.000000 0.000000 -1.000000
    outer loop
      vertex -17.117583 -3.638455 0.000000
      vertex -15.987046 7.117891 0.000000
      vertex -14.157797 10.286242 0.000000
    endloop
  endfacet
  facet normal 0.000000 0.000000 -1.000000
    outer loop
      vertex -14.159955 6.304418 0.000000
      vertex -14.157797 10.286242 0.000000
      vertex -11.709786 13.005034 0.000000
    endloop
  endfacet
  facet normal 0.000000 -0.000000 -1.000000
    outer loop
      vertex -10.371524 11.518745 0.000000
      vertex -11.709786 13.005034 0.000000
      vertex -8.750000 15.155445 0.000000
    endloop
  endfacet
  facet normal 0.000000 -0.000000 -1.000000
    outer loop
      vertex -7.750000 13.423394 0.000000
      vertex -8.750000 15.155445 0.000000
      vertex -5.407797 16.643489 0.000000
    endloop
  endfacet
  facet normal 0.000000 -0.000000 -1.000000
    outer loop
      vertex -4.789763 14.741376 0.000000
      vertex -5.407797 16.643489 0.000000
      vertex -1.829248 17.404133 0.000000
    endloop
  endfacet
  facet normal 0.000000 -0.000000 -1.000000
    outer loop
      vertex -1.620191 15.415089 0.000000
      vertex -1.829248 17.404133 0.000000
      vertex 1.829248 17.404133 0.000000
    endloop
  endfacet
  facet normal 0.000000 0.000000 -1.000000
    outer loop
      vertex 1.620191 15.415089 0.000000
      vertex 1.829248 17.404133 0.000000
      vertex 5.407797 16.643489 0.000000
    endloop
  endfacet
  facet normal 0.000000 0.000000 -1.000000
    outer loop
      vertex 4.789763 14.741376 0.000000
      vertex 5.407797 16.643489 0.000000
      vertex 8.750000 15.155445 0.000000
    endloop
  endfacet
  facet normal -0.000000 0.000000 -1.000000
    outer loop
      vertex 7.750000 13.423394 0.000000
      vertex 8.750000 15.155445 0.000000
      vertex 11.709786 13.005034 0.000000
    endloop
  endfacet
  facet normal -0.000000 0.000000 -1.000000
    outer loop
      vertex 10.371524 11.518745 0.000000
      vertex 11.709786 13.005034 0.000000
      vertex 14.157797 10.286242 0.000000
    endloop
  endfacet
  facet normal -0.000000 0.000000 -1.000000
    outer loop
      vertex 12.539763 9.110671 0.000000
      vertex 14.157797 10.286242 0.000000
      vertex 15.987046 7.117891 0.000000
    endloop
  endfacet
  facet normal -0.000000 0.000000 -1.000000
    outer loop
      vertex 14.159955 6.304418 0.000000
      vertex 15.987046 7.117891 0.000000
      vertex 17.117583 3.638455 0.000000
    endloop
  endfacet
  facet normal -0.000000 0.000000 -1.000000
    outer loop
      vertex 15.500000 0.000000 0.000000
      vertex 17.117583 3.638455 0.000000
      vertex 17.500000 0.000000 0.000000
    endloop
  endfacet
  facet normal -0.000000 0.000000 -1.000000
    outer loop
      vertex 15.161288 -3.222631 0.000000
      vertex 17.500000 0.000000 0.000000
      vertex 17.117583 -3.638455 0.000000
    endloop
  endfacet
  facet normal -0.000000 0.000000 -1.000000
    outer loop
      vertex 14.159955 -6.304418 0.000000
      vertex 17.117583 -3.638455 0.000000
      vertex 15.987046 -7.117891 0.000000
    endloop
  endfacet
  facet normal -0.000000 0.000000 -1.000000
    outer loop
      vertex 12.539763 -9.110671 0.000000
      vertex 15.987046 -7.117891 0.000000
      vertex 14.157797 -10.286242 0.000000
    endloop
  endfacet
  facet normal -0.000000 0.000000 -1.000000
    outer loop
      vertex 10.371524 -11.518745 0.000000
      vertex 14.157797 -10.286242 0.000000
      vertex 11.709786 -13.005034 0.000000
    endloop
  endfacet
  facet normal -0.000000 0.000000 -1.000000
    outer loop
      vertex 7.750000 -13.423394 0.000000
      vertex 11.709786 -13.005034 0.000000
      vertex 8.750000 -15.155445 0.000000
    endloop
  endfacet
  facet normal 0.000000 0.000000 -1.000000
    outer loop
      vertex 4.789763 -14.741376 0.000000
      vertex 8.750000 -15.155445 0.000000
      vertex 5.407797 -16.643489 0.000000
    endloop
  endfacet
  facet normal 0.000000 0.000000 -1.000000
    outer loop
      vertex 1.620191 -15.415089 0.000000
      vertex 5.407797 -16.643489 0.000000
      vertex 1.829248 -17.404133 0.000000
    endloop
  endfacet
  facet normal 0.000000 0.000000 -1.000000
    outer loop
      vertex -1.620191 -15.415089 0.000000
      vertex 1.829248 -17.404133 0.000000
      vertex -1.829248 -17.404133 0.000000
    endloop
  endfacet
  facet normal 0.000000 0.000000 -1.000000
    outer loop
      vertex -7.750000 -13.423394 0.000000
      vertex -1.829248 -17.404133 0.000000
      vertex -5.407797 -16.643489 0.000000
    endloop
  endfacet
  facet normal 0.000000 0.000000 -1.000000
    outer loop
      vertex -10.371524 -11.518745 0.000000
      vertex -5.407797 -16.643489 0.000000
      vertex -8.750000 -15.155445 0.000000
    endloop
  endfacet
  facet normal 0.000000 0.000000 -1.000000
    outer loop
      vertex -17.117583 -3.638455 0.000000
      vertex -8.750000 -15.155445 0.000000
      vertex -11.709786 -13.005034 0.000000
    endloop
  endfacet
  facet normal 0.000000 0.000000 -1.000000
    outer loop
      vertex -17.117583 -3.638455 0.000000
      vertex -11.709786 -13.005034 0.000000
      vertex -14.157797 -10.286242 0.000000
    endloop
  endfacet
  facet normal 0.000000 0.000000 -1.000000
    outer loop
      vertex -17.117583 -3.638455 0.000000
      vertex -14.157797 -10.286242 0.000000
      vertex -15.987046 -7.117891 0.000000
    endloop
  endfacet
  facet normal 0.000000 0.000000 -1.000000
    outer loop
      vertex -15.161288 -3.222631 0.000000
      vertex -17.117583 -3.638455 0.000000
      vertex -15.500000 0.000000 0.000000
    endloop
  endfacet
  facet normal 0.000000 0.000000 -1.000000
    outer loop
      vertex 4.789763 -14.741376 0.000000
      vertex 5.407797 -16.643489 0.000000
      vertex 1.620191 -15.415089 0.000000
    endloop
  endfacet
  facet normal 0.000000 0.000000 -1.000000
    outer loop
      vertex -14.159955 -6.304418 0.000000
      vertex -17.117583 -3.638455 0.000000
      vertex -15.161288 -3.222631 0.000000
    endloop
  endfacet
  facet normal 0.000000 0.000000 -1.000000
    outer loop
      vertex -12.539763 -9.110671 0.000000
      vertex -17.117583 -3.638455 0.000000
      vertex -14.159955 -6.304418 0.000000
    endloop
  endfacet
  facet normal 0.000000 0.000000 -1.000000
    outer loop
      vertex -7.750000 -13.423394 0.000000
      vertex -5.407797 -16.643489 0.000000
      vertex -10.371524 -11.518745 0.000000
    endloop
  endfacet
  facet normal 0.000000 0.000000 -1.000000
    outer loop
      vertex -17.117583 -3.638455 0.000000
      vertex -12.539763 -9.110671 0.000000
      vertex -8.750000 -15.155445 0.000000
    endloop
  endfacet
  facet normal 0.000000 0.000000 -1.000000
    outer loop
      vertex -12.539763 -9.110671 0.000000
      vertex -10.371524 -11.518745 0.000000
      vertex -8.750000 -15.155445 0.000000
    endloop
  endfacet
  facet normal 0.000000 0.000000 -1.000000
    outer loop
      vertex -4.789763 -14.741376 0.000000
      vertex -1.829248 -17.404133 0.000000
      vertex -7.750000 -13.423394 0.000000
    endloop
  endfacet
  facet normal 0.000000 0.000000 -1.000000
    outer loop
      vertex -1.620191 -15.415089 0.000000
      vertex -1.829248 -17.404133 0.000000
      vertex -4.789763 -14.741376 0.000000
    endloop
  endfacet
  facet normal -0.000000 0.000000 -1.000000
    outer loop
      vertex 15.161288 3.222631 0.000000
      vertex 17.117583 3.638455 0.000000
      vertex 15.500000 0.000000 0.000000
    endloop
  endfacet
  facet normal 0.000000 0.000000 -1.000000
    outer loop
      vertex 12.539763 9.110671 0.000000
      vertex 15.987046 7.117891 0.000000
      vertex 14.159955 6.304418 0.000000
    endloop
  endfacet
  facet normal 0.000000 0.000000 -1.000000
    outer loop
      vertex 14.159955 6.304418 0.000000
      vertex 17.117583 3.638455 0.000000
      vertex 15.161288 3.222631 0.000000
    endloop
  endfacet
  facet normal 0.000000 0.000000 -1.000000
    outer loop
      vertex 15.500000 0.000000 0.000000
      vertex 17.500000 0.000000 0.000000
      vertex 15.161288 -3.222631 0.000000
    endloop
  endfacet
  facet normal 0.000000 0.000000 -1.000000
    outer loop
      vertex 15.161288 -3.222631 0.000000
      vertex 17.117583 -3.638455 0.000000
      vertex 14.159955 -6.304418 0.000000
    endloop
  endfacet
  facet normal 0.000000 0.000000 -1.000000
    outer loop
      vertex 14.159955 -6.304418 0.000000
      vertex 15.987046 -7.117891 0.000000
      vertex 12.539763 -9.110671 0.000000
    endloop
  endfacet
  facet normal 0.000000 0.000000 -1.000000
    outer loop
      vertex 12.539763 -9.110671 0.000000
      vertex 14.157797 -10.286242 0.000000
      vertex 10.371524 -11.518745 0.000000
    endloop
  endfacet
  facet normal 0.000000 0.000000 -1.000000
    outer loop
      vertex 10.371524 -11.518745 0.000000
      vertex 11.709786 -13.005034 0.000000
      vertex 7.750000 -13.423394 0.000000
    endloop
  endfacet
  facet normal 0.000000 0.000000 -1.000000
    outer loop
      vertex 7.750000 -13.423394 0.000000
      vertex 8.750000 -15.155445 0.000000
      vertex 4.789763 -14.741376 0.000000
    endloop
  endfacet
  facet normal 0.000000 0.000000 -1.000000
    outer loop
      vertex -12.539763 9.110671 0.000000
      vertex -11.709786 13.005034 0.000000
      vertex -10.371524 11.518745 0.000000
    endloop
  endfacet
  facet normal 0.000000 0.000000 -1.000000
    outer loop
      vertex -14.159955 6.304418 0.000000
      vertex -11.709786 13.005034 0.000000
      vertex -12.539763 9.110671 0.000000
    endloop
  endfacet
  facet normal 0.000000 0.000000 -1.000000
    outer loop
      vertex -15.161288 3.222631 0.000000
      vertex -14.157797 10.286242 0.000000
      vertex -14.159955 6.304418 0.000000
    endloop
  endfacet
  facet normal 0.000000 0.000000 -1.000000
    outer loop
      vertex -17.117583 -3.638455 0.000000
      vertex -14.157797 10.286242 0.000000
      vertex -15.161288 3.222631 0.000000
    endloop
  endfacet
  facet normal 0.000000 0.000000 -1.000000
    outer loop
      vertex -10.371524 11.518745 0.000000
      vertex -8.750000 15.155445 0.000000
      vertex -7.750000 13.423394 0.000000
    endloop
  endfacet
  facet normal 0.000000 -0.000000 -1.000000
    outer loop
      vertex -15.500000 0.000000 0.000000
      vertex -17.117583 -3.638455 0.000000
      vertex -15.161288 3.222631 0.000000
    endloop
  endfacet
  facet normal 0.000000 0.000000 -1.000000
    outer loop
      vertex -7.750000 13.423394 0.000000
      vertex -5.407797 16.643489 0.000000
      vertex -4.789763 14.741376 0.000000
    endloop
  endfacet
  facet normal 0.000000 0.000000 -1.000000
    outer loop
      vertex -4.789763 14.741376 0.000000
      vertex -1.829248 17.404133 0.000000
      vertex -1.620191 15.415089 0.000000
    endloop
  endfacet
  facet normal -0.000000 0.000000 -1.000000
    outer loop
      vertex -1.620191 15.415089 0.000000
      vertex 1.829248 17.404133 0.000000
      vertex 1.620191 15.415089 0.000000
    endloop
  endfacet
  facet normal -0.000000 0.000000 -1.000000
    outer loop
      vertex 1.620191 15.415089 0.000000
      vertex 5.407797 16.643489 0.000000
      vertex 4.789763 14.741376 0.000000
    endloop
  endfacet
  facet normal -0.000000 0.000000 -1.000000
    outer loop
      vertex 4.789763 14.741376 0.000000
      vertex 8.750000 15.155445 0.000000
      vertex 7.750000 13.423394 0.000000
    endloop
  endfacet
  facet normal 0.000000 0.000000 -1.000000
    outer loop
      vertex 7.750000 13.423394 0.000000
      vertex 11.709786 13.005034 0.000000
      vertex 10.371524 11.518745 0.000000
    endloop
  endfacet
  facet normal 0.000000 0.000000 -1.000000
    outer loop
      vertex 10.371524 11.518745 0.000000
      vertex 14.157797 10.286242 0.000000
      vertex 12.539763 9.110671 0.000000
    endloop
  endfacet
  facet normal 0.000000 0.000000 -1.000000
    outer loop
      vertex 1.620191 -15.415089 0.000000
      vertex 1.829248 -17.404133 0.000000
      vertex -1.620191 -15.415089 0.000000
    endloop
  endfacet
  facet normal -0.994522 0.104528 0.000000
    outer loop
      vertex -17.500000 0.000000 0.000000
      vertex -17.500000 0.000000 82.500000
      vertex -17.117583 3.638455 0.000000
    endloop
  endfacet
  facet normal -0.994522 0.104528 0.000000
    outer loop
      vertex -17.117583 3.638455 0.000000
      vertex -17.500000 0.000000 82.500000
      vertex -17.117583 3.638455 82.500000
    endloop
  endfacet
  facet normal -0.994522 -0.104528 -0.000000
    outer loop
      vertex -17.500000 0.000000 0.000000
      vertex -17.117583 -3.638455 0.000000
      vertex -17.500000 0.000000 82.500000
    endloop
  endfacet
  facet normal -0.994522 -0.104528 0.000000
    outer loop
      vertex -17.500000 0.000000 82.500000
      vertex -17.117583 -3.638455 0.000000
      vertex -17.117583 -3.638455 82.500000
    endloop
  endfacet
  facet normal -0.951057 -0.309017 -0.000000
    outer loop
      vertex -17.117583 -3.638455 0.000000
      vertex -15.987046 -7.117891 0.000000
      vertex -17.117583 -3.638455 82.500000
    endloop
  endfacet
  facet normal -0.951057 -0.309017 0.000000
    outer loop
      vertex -17.117583 -3.638455 82.500000
      vertex -15.987046 -7.117891 0.000000
      vertex -15.987046 -7.117891 82.500000
    endloop
  endfacet
  facet normal -0.866025 -0.500000 -0.000000
    outer loop
      vertex -15.987046 -7.117891 0.000000
      vertex -14.157797 -10.286242 0.000000
      vertex -15.987046 -7.117891 82.500000
    endloop
  endfacet
  facet normal -0.866025 -0.500000 0.000000
    outer loop
      vertex -15.987046 -7.117891 82.500000
      vertex -14.157797 -10.286242 0.000000
      vertex -14.157797 -10.286242 82.500000
    endloop
  endfacet
  facet normal -0.743145 -0.669131 -0.000000
    outer loop
      vertex -14.157797 -10.286242 0.000000
      vertex -11.709786 -13.005034 0.000000
      vertex -14.157797 -10.286242 82.500000
    endloop
  endfacet
  facet normal -0.743145 -0.669131 0.000000
    outer loop
      vertex -14.157797 -10.286242 82.500000
      vertex -11.709786 -13.005034 0.000000
      vertex -11.709786 -13.005034 82.500000
    endloop
  endfacet
  facet normal -0.587785 -0.809017 0.000000
    outer loop
      vertex -11.709786 -13.005034 82.500000
      vertex -11.709786 -13.005034 0.000000
      vertex -8.750000 -15.155445 0.000000
    endloop
  endfacet
  facet normal -0.587785 -0.809017 0.000000
    outer loop
      vertex -8.750000 -15.155445 82.500000
      vertex -11.709786 -13.005034 82.500000
      vertex -8.750000 -15.155445 0.000000
    endloop
  endfacet
  facet normal -0.406736 -0.913546 0.000000
    outer loop
      vertex -8.750000 -15.155445 82.500000
      vertex -8.750000 -15.155445 0.000000
      vertex -5.407797 -16.643489 0.000000
    endloop
  endfacet
  facet normal -0.406736 -0.913546 0.000000
    outer loop
      vertex -5.407797 -16.643489 82.500000
      vertex -8.750000 -15.155445 82.500000
      vertex -5.407797 -16.643489 0.000000
    endloop
  endfacet
  facet normal -0.207912 -0.978148 0.000000
    outer loop
      vertex -5.407797 -16.643489 82.500000
      vertex -5.407797 -16.643489 0.000000
      vertex -1.829248 -17.404133 0.000000
    endloop
  endfacet
  facet normal -0.207912 -0.978148 0.000000
    outer loop
      vertex -1.829248 -17.404133 82.500000
      vertex -5.407797 -16.643489 82.500000
      vertex -1.829248 -17.404133 0.000000
    endloop
  endfacet
  facet normal 0.000000 -1.000000 0.000000
    outer loop
      vertex -1.829248 -17.404133 82.500000
      vertex -1.829248 -17.404133 0.000000
      vertex 1.829248 -17.404133 0.000000
    endloop
  endfacet
  facet normal 0.000000 -1.000000 0.000000
    outer loop
      vertex 1.829248 -17.404133 82.500000
      vertex -1.829248 -17.404133 82.500000
      vertex 1.829248 -17.404133 0.000000
    endloop
  endfacet
  facet normal 0.207912 -0.978148 0.000000
    outer loop
      vertex 1.829248 -17.404133 82.500000
      vertex 1.829248 -17.404133 0.000000
      vertex 5.407797 -16.643489 0.000000
    endloop
  endfacet
  facet normal 0.207912 -0.978148 0.000000
    outer loop
      vertex 5.407797 -16.643489 82.500000
      vertex 1.829248 -17.404133 82.500000
      vertex 5.407797 -16.643489 0.000000
    endloop
  endfacet
  facet normal 0.406736 -0.913546 0.000000
    outer loop
      vertex 5.407797 -16.643489 82.500000
      vertex 5.407797 -16.643489 0.000000
      vertex 8.750000 -15.155445 0.000000
    endloop
  endfacet
  facet normal 0.406736 -0.913546 0.000000
    outer loop
      vertex 8.750000 -15.155445 82.500000
      vertex 5.407797 -16.643489 82.500000
      vertex 8.750000 -15.155445 0.000000
    endloop
  endfacet
  facet normal 0.587785 -0.809017 0.000000
    outer loop
      vertex 8.750000 -15.155445 82.500000
      vertex 8.750000 -15.155445 0.000000
      vertex 11.709786 -13.005034 0.000000
    endloop
  endfacet
  facet normal 0.587785 -0.809017 0.000000
    outer loop
      vertex 11.709786 -13.005034 82.500000
      vertex 8.750000 -15.155445 82.500000
      vertex 11.709786 -13.005034 0.000000
    endloop
  endfacet
  facet normal 0.743145 -0.669131 0.000000
    outer loop
      vertex 11.709786 -13.005034 82.500000
      vertex 11.709786 -13.005034 0.000000
      vertex 14.157797 -10.286242 0.000000
    endloop
  endfacet
  facet normal 0.743145 -0.669131 0.000000
    outer loop
      vertex 14.157797 -10.286242 82.500000
      vertex 11.709786 -13.005034 82.500000
      vertex 14.157797 -10.286242 0.000000
    endloop
  endfacet
  facet normal 0.866025 -0.500000 0.000000
    outer loop
      vertex 14.157797 -10.286242 82.500000
      vertex 14.157797 -10.286242 0.000000
      vertex 15.987046 -7.117891 0.000000
    endloop
  endfacet
  facet normal 0.866025 -0.500000 0.000000
    outer loop
      vertex 15.987046 -7.117891 82.500000
      vertex 14.157797 -10.286242 82.500000
      vertex 15.987046 -7.117891 0.000000
    endloop
  endfacet
  facet normal 0.951057 -0.309017 0.000000
    outer loop
      vertex 15.987046 -7.117891 82.500000
      vertex 15.987046 -7.117891 0.000000
      vertex 17.117583 -3.638455 0.000000
    endloop
  endfacet
  facet normal 0.951057 -0.309017 0.000000
    outer loop
      vertex 17.117583 -3.638455 82.500000
      vertex 15.987046 -7.117891 82.500000
      vertex 17.117583 -3.638455 0.000000
    endloop
  endfacet
  facet normal 0.994522 -0.104528 0.000000
    outer loop
      vertex 17.117583 -3.638455 82.500000
      vertex 17.117583 -3.638455 0.000000
      vertex 17.500000 0.000000 0.000000
    endloop
  endfacet
  facet normal 0.994522 -0.104528 0.000000
    outer loop
      vertex 17.500000 0.000000 82.500000
      vertex 17.117583 -3.638455 82.500000
      vertex 17.500000 0.000000 0.000000
    endloop
  endfacet
  facet normal 0.994522 0.104528 0.000000
    outer loop
      vertex 17.500000 0.000000 0.000000
      vertex 17.117583 3.638455 0.000000
      vertex 17.117583 3.638455 82.500000
    endloop
  endfacet
  facet normal 0.994522 0.104528 -0.000000
    outer loop
      vertex 17.500000 0.000000 82.500000
      vertex 17.500000 0.000000 0.000000
      vertex 17.117583 3.638455 82.500000
    endloop
  endfacet
  facet normal 0.951057 0.309017 0.000000
    outer loop
      vertex 17.117583 3.638455 0.000000
      vertex 15.987046 7.117891 0.000000
      vertex 15.987046 7.117891 82.500000
    endloop
  endfacet
  facet normal 0.951057 0.309017 -0.000000
    outer loop
      vertex 17.117583 3.638455 82.500000
      vertex 17.117583 3.638455 0.000000
      vertex 15.987046 7.117891 82.500000
    endloop
  endfacet
  facet normal 0.866025 0.500000 0.000000
    outer loop
      vertex 15.987046 7.117891 0.000000
      vertex 14.157797 10.286242 0.000000
      vertex 14.157797 10.286242 82.500000
    endloop
  endfacet
  facet normal 0.866025 0.500000 -0.000000
    outer loop
      vertex 15.987046 7.117891 82.500000
      vertex 15.987046 7.117891 0.000000
      vertex 14.157797 10.286242 82.500000
    endloop
  endfacet
  facet normal 0.743145 0.669131 0.000000
    outer loop
      vertex 14.157797 10.286242 0.000000
      vertex 11.709786 13.005034 0.000000
      vertex 11.709786 13.005034 82.500000
    endloop
  endfacet
  facet normal 0.743145 0.669131 -0.000000
    outer loop
      vertex 14.157797 10.286242 82.500000
      vertex 14.157797 10.286242 0.000000
      vertex 11.709786 13.005034 82.500000
    endloop
  endfacet
  facet normal 0.587785 0.809017 0.000000
    outer loop
      vertex 8.750000 15.155445 0.000000
      vertex 8.750000 15.155445 82.500000
      vertex 11.709786 13.005034 0.000000
    endloop
  endfacet
  facet normal 0.587785 0.809017 0.000000
    outer loop
      vertex 11.709786 13.005034 0.000000
      vertex 8.750000 15.155445 82.500000
      vertex 11.709786 13.005034 82.500000
    endloop
  endfacet
  facet normal 0.406736 0.913546 0.000000
    outer loop
      vertex 5.407797 16.643489 0.000000
      vertex 5.407797 16.643489 82.500000
      vertex 8.750000 15.155445 0.000000
    endloop
  endfacet
  facet normal 0.406736 0.913546 0.000000
    outer loop
      vertex 8.750000 15.155445 0.000000
      vertex 5.407797 16.643489 82.500000
      vertex 8.750000 15.155445 82.500000
    endloop
  endfacet
  facet normal 0.207912 0.978148 0.000000
    outer loop
      vertex 1.829248 17.404133 0.000000
      vertex 1.829248 17.404133 82.500000
      vertex 5.407797 16.643489 0.000000
    endloop
  endfacet
  facet normal 0.207912 0.978148 0.000000
    outer loop
      vertex 5.407797 16.643489 0.000000
      vertex 1.829248 17.404133 82.500000
      vertex 5.407797 16.643489 82.500000
    endloop
  endfacet
  facet normal 0.000000 1.000000 0.000000
    outer loop
      vertex -1.829248 17.404133 0.000000
      vertex -1.829248 17.404133 82.500000
      vertex 1.829248 17.404133 0.000000
    endloop
  endfacet
  facet normal 0.000000 1.000000 0.000000
    outer loop
      vertex 1.829248 17.404133 0.000000
      vertex -1.829248 17.404133 82.500000
      vertex 1.829248 17.404133 82.500000
    endloop
  endfacet
  facet normal -0.207912 0.978148 0.000000
    outer loop
      vertex -5.407797 16.643489 0.000000
      vertex -5.407797 16.643489 82.500000
      vertex -1.829248 17.404133 0.000000
    endloop
  endfacet
  facet normal -0.207912 0.978148 0.000000
    outer loop
      vertex -1.829248 17.404133 0.000000
      vertex -5.407797 16.643489 82.500000
      vertex -1.829248 17.404133 82.500000
    endloop
  endfacet
  facet normal -0.406736 0.913546 0.000000
    outer loop
      vertex -8.750000 15.155445 0.000000
      vertex -8.750000 15.155445 82.500000
      vertex -5.407797 16.643489 0.000000
    endloop
  endfacet
  facet normal -0.406736 0.913546 0.000000
    outer loop
      vertex -5.407797 16.643489 0.000000
      vertex -8.750000 15.155445 82.500000
      vertex -5.407797 16.643489 82.500000
    endloop
  endfacet
  facet normal -0.587785 0.809017 0.000000
    outer loop
      vertex -11.709786 13.005034 0.000000
      vertex -11.709786 13.005034 82.500000
      vertex -8.750000 15.155445 0.000000
    endloop
  endfacet
  facet normal -0.587785 0.809017 0.000000
    outer loop
      vertex -8.750000 15.155445 0.000000
      vertex -11.709786 13.005034 82.500000
      vertex -8.750000 15.155445 82.500000
    endloop
  endfacet
  facet normal -0.743145 0.669131 0.000000
    outer loop
      vertex -14.157797 10.286242 0.000000
      vertex -14.157797 10.286242 82.500000
      vertex -11.709786 13.005034 0.000000
    endloop
  endfacet
  facet normal -0.743145 0.669131 0.000000
    outer loop
      vertex -11.709786 13.005034 0.000000
      vertex -14.157797 10.286242 82.500000
      vertex -11.709786 13.005034 82.500000
    endloop
  endfacet
  facet normal -0.866025 0.500000 0.000000
    outer loop
      vertex -15.987046 7.117891 0.000000
      vertex -15.987046 7.117891 82.500000
      vertex -14.157797 10.286242 0.000000
    endloop
  endfacet
  facet normal -0.866025 0.500000 0.000000
    outer loop
      vertex -14.157797 10.286242 0.000000
      vertex -15.987046 7.117891 82.500000
      vertex -14.157797 10.286242 82.500000
    endloop
  endfacet
  facet normal -0.951057 0.309017 0.000000
    outer loop
      vertex -17.117583 3.638455 0.000000
      vertex -17.117583 3.638455 82.500000
      vertex -15.987046 7.117891 0.000000
    endloop
  endfacet
  facet normal -0.951057 0.309017 0.000000
    outer loop
      vertex -15.987046 7.117891 0.000000
      vertex -17.117583 3.638455 82.500000
      vertex -15.987046 7.117891 82.500000
    endloop
  endfacet
  facet normal 0.994522 -0.104528 0.000000
    outer loop
      vertex -15.161288 3.222631 0.000000
      vertex -15.161288 3.222631 80.500000
      vertex -15.500000 0.000000 80.500000
    endloop
  endfacet
  facet normal 0.994522 -0.104528 0.000000
    outer loop
      vertex -15.500000 0.000000 0.000000
      vertex -15.161288 3.222631 0.000000
      vertex -15.500000 0.000000 80.500000
    endloop
  endfacet
  facet normal 0.994522 0.104528 0.000000
    outer loop
      vertex -15.500000 0.000000 80.500000
      vertex -15.161288 -3.222631 80.500000
      vertex -15.161288 -3.222631 0.000000
    endloop
  endfacet
  facet normal 0.994522 0.104528 0.000000
    outer loop
      vertex -15.500000 0.000000 0.000000
      vertex -15.500000 0.000000 80.500000
      vertex -15.161288 -3.222631 0.000000
    endloop
  endfacet
  facet normal 0.951057 -0.309017 0.000000
    outer loop
      vertex -14.159955 6.304418 0.000000
      vertex -14.159955 6.304418 80.500000
      vertex -15.161288 3.222631 80.500000
    endloop
  endfacet
  facet normal 0.951057 -0.309017 0.000000
    outer loop
      vertex -15.161288 3.222631 0.000000
      vertex -14.159955 6.304418 0.000000
      vertex -15.161288 3.222631 80.500000
    endloop
  endfacet
  facet normal 0.866025 -0.500000 0.000000
    outer loop
      vertex -12.539763 9.110671 0.000000
      vertex -12.539763 9.110671 80.500000
      vertex -14.159955 6.304418 80.500000
    endloop
  endfacet
  facet normal 0.866025 -0.500000 0.000000
    outer loop
      vertex -14.159955 6.304418 0.000000
      vertex -12.539763 9.110671 0.000000
      vertex -14.159955 6.304418 80.500000
    endloop
  endfacet
  facet normal 0.743145 -0.669131 0.000000
    outer loop
      vertex -10.371524 11.518745 0.000000
      vertex -10.371524 11.518745 80.500000
      vertex -12.539763 9.110671 80.500000
    endloop
  endfacet
  facet normal 0.743145 -0.669131 0.000000
    outer loop
      vertex -12.539763 9.110671 0.000000
      vertex -10.371524 11.518745 0.000000
      vertex -12.539763 9.110671 80.500000
    endloop
  endfacet
  facet normal 0.587785 -0.809017 0.000000
    outer loop
      vertex -7.750000 13.423394 0.000000
      vertex -7.750000 13.423394 80.500000
      vertex -10.371524 11.518745 80.500000
    endloop
  endfacet
  facet normal 0.587785 -0.809017 0.000000
    outer loop
      vertex -10.371524 11.518745 0.000000
      vertex -7.750000 13.423394 0.000000
      vertex -10.371524 11.518745 80.500000
    endloop
  endfacet
  facet normal 0.406737 -0.913546 0.000000
    outer loop
      vertex -4.789763 14.741376 0.000000
      vertex -4.789763 14.741376 80.500000
      vertex -7.750000 13.423394 80.500000
    endloop
  endfacet
  facet normal 0.406737 -0.913546 0.000000
    outer loop
      vertex -7.750000 13.423394 0.000000
      vertex -4.789763 14.741376 0.000000
      vertex -7.750000 13.423394 80.500000
    endloop
  endfacet
  facet normal 0.207912 -0.978148 0.000000
    outer loop
      vertex -1.620191 15.415089 0.000000
      vertex -1.620191 15.415089 80.500000
      vertex -4.789763 14.741376 80.500000
    endloop
  endfacet
  facet normal 0.207912 -0.978148 0.000000
    outer loop
      vertex -4.789763 14.741376 0.000000
      vertex -1.620191 15.415089 0.000000
      vertex -4.789763 14.741376 80.500000
    endloop
  endfacet
  facet normal 0.000000 -1.000000 0.000000
    outer loop
      vertex 1.620191 15.415089 0.000000
      vertex 1.620191 15.415089 80.500000
      vertex -1.620191 15.415089 80.500000
    endloop
  endfacet
  facet normal -0.000000 -1.000000 -0.000000
    outer loop
      vertex -1.620191 15.415089 0.000000
      vertex 1.620191 15.415089 0.000000
      vertex -1.620191 15.415089 80.500000
    endloop
  endfacet
  facet normal -0.207912 -0.978148 -0.000000
    outer loop
      vertex 4.789763 14.741376 0.000000
      vertex 4.789763 14.741376 80.500000
      vertex 1.620191 15.415089 80.500000
    endloop
  endfacet
  facet normal -0.207912 -0.978148 -0.000000
    outer loop
      vertex 1.620191 15.415089 0.000000
      vertex 4.789763 14.741376 0.000000
      vertex 1.620191 15.415089 80.500000
    endloop
  endfacet
  facet normal -0.406737 -0.913546 -0.000000
    outer loop
      vertex 7.750000 13.423394 0.000000
      vertex 7.750000 13.423394 80.500000
      vertex 4.789763 14.741376 80.500000
    endloop
  endfacet
  facet normal -0.406737 -0.913546 -0.000000
    outer loop
      vertex 4.789763 14.741376 0.000000
      vertex 7.750000 13.423394 0.000000
      vertex 4.789763 14.741376 80.500000
    endloop
  endfacet
  facet normal -0.587785 -0.809017 -0.000000
    outer loop
      vertex 10.371524 11.518745 0.000000
      vertex 10.371524 11.518745 80.500000
      vertex 7.750000 13.423394 80.500000
    endloop
  endfacet
  facet normal -0.587785 -0.809017 -0.000000
    outer loop
      vertex 7.750000 13.423394 0.000000
      vertex 10.371524 11.518745 0.000000
      vertex 7.750000 13.423394 80.500000
    endloop
  endfacet
  facet normal -0.743145 -0.669131 0.000000
    outer loop
      vertex 12.539763 9.110671 80.500000
      vertex 10.371524 11.518745 80.500000
      vertex 12.539763 9.110671 0.000000
    endloop
  endfacet
  facet normal -0.743145 -0.669131 0.000000
    outer loop
      vertex 12.539763 9.110671 0.000000
      vertex 10.371524 11.518745 80.500000
      vertex 10.371524 11.518745 0.000000
    endloop
  endfacet
  facet normal -0.866025 -0.500000 0.000000
    outer loop
      vertex 14.159955 6.304418 80.500000
      vertex 12.539763 9.110671 80.500000
      vertex 14.159955 6.304418 0.000000
    endloop
  endfacet
  facet normal -0.866025 -0.500000 0.000000
    outer loop
      vertex 14.159955 6.304418 0.000000
      vertex 12.539763 9.110671 80.500000
      vertex 12.539763 9.110671 0.000000
    endloop
  endfacet
  facet normal -0.951057 -0.309017 0.000000
    outer loop
      vertex 15.161288 3.222631 80.500000
      vertex 14.159955 6.304418 80.500000
      vertex 15.161288 3.222631 0.000000
    endloop
  endfacet
  facet normal -0.951057 -0.309017 0.000000
    outer loop
      vertex 15.161288 3.222631 0.000000
      vertex 14.159955 6.304418 80.500000
      vertex 14.159955 6.304418 0.000000
    endloop
  endfacet
  facet normal -0.994522 -0.104528 0.000000
    outer loop
      vertex 15.500000 0.000000 80.500000
      vertex 15.161288 3.222631 80.500000
      vertex 15.500000 0.000000 0.000000
    endloop
  endfacet
  facet normal -0.994522 -0.104528 0.000000
    outer loop
      vertex 15.500000 0.000000 0.000000
      vertex 15.161288 3.222631 80.500000
      vertex 15.161288 3.222631 0.000000
    endloop
  endfacet
  facet normal -0.994522 0.104528 0.000000
    outer loop
      vertex 15.500000 0.000000 80.500000
      vertex 15.500000 0.000000 0.000000
      vertex 15.161288 -3.222631 80.500000
    endloop
  endfacet
  facet normal -0.994522 0.104528 0.000000
    outer loop
      vertex 15.161288 -3.222631 80.500000
      vertex 15.500000 0.000000 0.000000
      vertex 15.161288 -3.222631 0.000000
    endloop
  endfacet
  facet normal -0.951057 0.309017 0.000000
    outer loop
      vertex 15.161288 -3.222631 80.500000
      vertex 15.161288 -3.222631 0.000000
      vertex 14.159955 -6.304418 80.500000
    endloop
  endfacet
  facet normal -0.951057 0.309017 0.000000
    outer loop
      vertex 14.159955 -6.304418 80.500000
      vertex 15.161288 -3.222631 0.000000
      vertex 14.159955 -6.304418 0.000000
    endloop
  endfacet
  facet normal -0.866025 0.500000 0.000000
    outer loop
      vertex 14.159955 -6.304418 80.500000
      vertex 14.159955 -6.304418 0.000000
      vertex 12.539763 -9.110671 80.500000
    endloop
  endfacet
  facet normal -0.866025 0.500000 0.000000
    outer loop
      vertex 12.539763 -9.110671 80.500000
      vertex 14.159955 -6.304418 0.000000
      vertex 12.539763 -9.110671 0.000000
    endloop
  endfacet
  facet normal -0.743145 0.669131 0.000000
    outer loop
      vertex 12.539763 -9.110671 80.500000
      vertex 12.539763 -9.110671 0.000000
      vertex 10.371524 -11.518745 80.500000
    endloop
  endfacet
  facet normal -0.743145 0.669131 0.000000
    outer loop
      vertex 10.371524 -11.518745 80.500000
      vertex 12.539763 -9.110671 0.000000
      vertex 10.371524 -11.518745 0.000000
    endloop
  endfacet
  facet normal -0.587785 0.809017 0.000000
    outer loop
      vertex 10.371524 -11.518745 80.500000
      vertex 10.371524 -11.518745 0.000000
      vertex 7.750000 -13.423394 80.500000
    endloop
  endfacet
  facet normal -0.587785 0.809017 0.000000
    outer loop
      vertex 7.750000 -13.423394 80.500000
      vertex 10.371524 -11.518745 0.000000
      vertex 7.750000 -13.423394 0.000000
    endloop
  endfacet
  facet normal -0.406737 0.913546 0.000000
    outer loop
      vertex 7.750000 -13.423394 80.500000
      vertex 7.750000 -13.423394 0.000000
      vertex 4.789763 -14.741376 80.500000
    endloop
  endfacet
  facet normal -0.406737 0.913546 0.000000
    outer loop
      vertex 4.789763 -14.741376 80.500000
      vertex 7.750000 -13.423394 0.000000
      vertex 4.789763 -14.741376 0.000000
    endloop
  endfacet
  facet normal -0.207912 0.978148 0.000000
    outer loop
      vertex 4.789763 -14.741376 80.500000
      vertex 4.789763 -14.741376 0.000000
      vertex 1.620191 -15.415089 80.500000
    endloop
  endfacet
  facet normal -0.207912 0.978148 0.000000
    outer loop
      vertex 1.620191 -15.415089 80.500000
      vertex 4.789763 -14.741376 0.000000
      vertex 1.620191 -15.415089 0.000000
    endloop
  endfacet
  facet normal 0.000000 1.000000 0.000000
    outer loop
      vertex 1.620191 -15.415089 80.500000
      vertex 1.620191 -15.415089 0.000000
      vertex -1.620191 -15.415089 80.500000
    endloop
  endfacet
  facet normal 0.000000 1.000000 -0.000000
    outer loop
      vertex -1.620191 -15.415089 80.500000
      vertex 1.620191 -15.415089 0.000000
      vertex -1.620191 -15.415089 0.000000
    endloop
  endfacet
  facet normal 0.207912 0.978148 -0.000000
    outer loop
      vertex -1.620191 -15.415089 80.500000
      vertex -1.620191 -15.415089 0.000000
      vertex -4.789763 -14.741376 80.500000
    endloop
  endfacet
  facet normal 0.207912 0.978148 -0.000000
    outer loop
      vertex -4.789763 -14.741376 80.500000
      vertex -1.620191 -15.415089 0.000000
      vertex -4.789763 -14.741376 0.000000
    endloop
  endfacet
  facet normal 0.406737 0.913546 -0.000000
    outer loop
      vertex -4.789763 -14.741376 80.500000
      vertex -4.789763 -14.741376 0.000000
      vertex -7.750000 -13.423394 80.500000
    endloop
  endfacet
  facet normal 0.406737 0.913546 -0.000000
    outer loop
      vertex -7.750000 -13.423394 80.500000
      vertex -4.789763 -14.741376 0.000000
      vertex -7.750000 -13.423394 0.000000
    endloop
  endfacet
  facet normal 0.587785 0.809017 -0.000000
    outer loop
      vertex -7.750000 -13.423394 80.500000
      vertex -7.750000 -13.423394 0.000000
      vertex -10.371524 -11.518745 80.500000
    endloop
  endfacet
  facet normal 0.587785 0.809017 -0.000000
    outer loop
      vertex -10.371524 -11.518745 80.500000
      vertex -7.750000 -13.423394 0.000000
      vertex -10.371524 -11.518745 0.000000
    endloop
  endfacet
  facet normal 0.743145 0.669131 0.000000
    outer loop
      vertex -12.539763 -9.110671 80.500000
      vertex -10.371524 -11.518745 80.500000
      vertex -10.371524 -11.518745 0.000000
    endloop
  endfacet
  facet normal 0.743145 0.669131 0.000000
    outer loop
      vertex -12.539763 -9.110671 0.000000
      vertex -12.539763 -9.110671 80.500000
      vertex -10.371524 -11.518745 0.000000
    endloop
  endfacet
  facet normal 0.866025 0.500000 0.000000
    outer loop
      vertex -14.159955 -6.304418 80.500000
      vertex -12.539763 -9.110671 80.500000
      vertex -12.539763 -9.110671 0.000000
    endloop
  endfacet
  facet normal 0.866025 0.500000 0.000000
    outer loop
      vertex -14.159955 -6.304418 0.000000
      vertex -14.159955 -6.304418 80.500000
      vertex -12.539763 -9.110671 0.000000
    endloop
  endfacet
  facet normal 0.951057 0.309017 0.000000
    outer loop
      vertex -15.161288 -3.222631 80.500000
      vertex -14.159955 -6.304418 80.500000
      vertex -14.159955 -6.304418 0.000000
    endloop
  endfacet
  facet normal 0.951057 0.309017 0.000000
    outer loop
      vertex -15.161288 -3.222631 0.000000
      vertex -15.161288 -3.222631 80.500000
      vertex -14.159955 -6.304418 0.000000
    endloop
  endfacet
  facet normal 0.000000 0.000000 1.000000
    outer loop
      vertex -17.117583 -3.638455 82.500000
      vertex -15.987046 -7.117891 82.500000
      vertex -14.157797 -10.286242 82.500000
    endloop
  endfacet
  facet normal 0.000000 0.000000 1.000000
    outer loop
      vertex -8.750000 -15.155445 82.500000
      vertex -17.117583 -3.638455 82.500000
      vertex -11.709786 -13.005034 82.500000
    endloop
  endfacet
  facet normal 0.000000 0.000000 1.000000
    outer loop
      vertex -11.709786 -13.005034 82.500000
      vertex -17.117583 -3.638455 82.500000
      vertex -14.157797 -10.286242 82.500000
    endloop
  endfacet
  facet normal 0.000000 0.000000 1.000000
    outer loop
      vertex -5.407797 -16.643489 82.500000
      vertex -17.117583 -3.638455 82.500000
      vertex -8.750000 -15.155445 82.500000
    endloop
  endfacet
  facet normal 0.000000 0.000000 1.000000
    outer loop
      vertex -1.829248 -17.404133 82.500000
      vertex -17.117583 -3.638455 82.500000
      vertex -5.407797 -16.643489 82.500000
    endloop
  endfacet
  facet normal -0.000000 0.000000 1.000000
    outer loop
      vertex 1.829248 -17.404133 82.500000
      vertex -17.117583 -3.638455 82.500000
      vertex -1.829248 -17.404133 82.500000
    endloop
  endfacet
  facet normal -0.000000 -0.000000 1.000000
    outer loop
      vertex -6.000000 -10.392305 82.500000
      vertex -17.117583 -3.638455 82.500000
      vertex 1.829248 -17.404133 82.500000
    endloop
  endfacet
  facet normal -0.000000 -0.000000 1.000000
    outer loop
      vertex -1.254342 -11.934263 82.500000
      vertex -3.708204 -11.412678 82.500000
      vertex 5.407797 -16.643489 82.500000
    endloop
  endfacet
  facet normal 0.000000 -0.000000 1.000000
    outer loop
      vertex 3.708204 -11.412678 82.500000
      vertex 1.254342 -11.934263 82.500000
      vertex 8.750000 -15.155445 82.500000
    endloop
  endfacet
  facet normal 0.000000 -0.000000 1.000000
    outer loop
      vertex 6.000000 -10.392305 82.500000
      vertex 3.708204 -11.412678 82.500000
      vertex 11.709786 -13.005034 82.500000
    endloop
  endfacet
  facet normal 0.000000 -0.000000 1.000000
    outer loop
      vertex 8.029567 -8.917738 82.500000
      vertex 6.000000 -10.392305 82.500000
      vertex 14.157797 -10.286242 82.500000
    endloop
  endfacet
  facet normal 0.000000 -0.000000 1.000000
    outer loop
      vertex 10.962545 -4.880840 82.500000
      vertex 9.708204 -7.053423 82.500000
      vertex 15.987046 -7.117891 82.500000
    endloop
  endfacet
  facet normal 0.000000 -0.000000 1.000000
    outer loop
      vertex 11.737771 -2.494940 82.500000
      vertex 10.962545 -4.880840 82.500000
      vertex 17.117583 -3.638455 82.500000
    endloop
  endfacet
  facet normal 0.000000 -0.000000 1.000000
    outer loop
      vertex 12.000000 0.000000 82.500000
      vertex 11.737771 -2.494940 82.500000
      vertex 17.500000 0.000000 82.500000
    endloop
  endfacet
  facet normal 0.000000 0.000000 1.000000
    outer loop
      vertex 6.000000 10.392305 82.500000
      vertex 8.029567 8.917738 82.500000
      vertex 11.709786 13.005034 82.500000
    endloop
  endfacet
  facet normal 0.000000 0.000000 1.000000
    outer loop
      vertex -9.708204 -7.053423 82.500000
      vertex -10.962545 -4.880840 82.500000
      vertex -17.117583 -3.638455 82.500000
    endloop
  endfacet
  facet normal 0.000000 0.000000 1.000000
    outer loop
      vertex -8.029567 8.917738 82.500000
      vertex -6.000000 10.392305 82.500000
      vertex -1.829248 17.404133 82.500000
    endloop
  endfacet
  facet normal 0.000000 0.000000 1.000000
    outer loop
      vertex -3.708204 11.412678 82.500000
      vertex -1.254342 11.934263 82.500000
      vertex 1.829248 17.404133 82.500000
    endloop
  endfacet
  facet normal 0.000000 -0.000000 1.000000
    outer loop
      vertex -8.750000 15.155445 82.500000
      vertex -17.117583 -3.638455 82.500000
      vertex -5.407797 16.643489 82.500000
    endloop
  endfacet
  facet normal 0.000000 -0.000000 1.000000
    outer loop
      vertex -11.709786 13.005034 82.500000
      vertex -17.117583 -3.638455 82.500000
      vertex -8.750000 15.155445 82.500000
    endloop
  endfacet
  facet normal 0.000000 -0.000000 1.000000
    outer loop
      vertex -14.157797 10.286242 82.500000
      vertex -17.117583 -3.638455 82.500000
      vertex -11.709786 13.005034 82.500000
    endloop
  endfacet
  facet normal 0.000000 -0.000000 1.000000
    outer loop
      vertex -15.987046 7.117891 82.500000
      vertex -17.117583 -3.638455 82.500000
      vertex -14.157797 10.286242 82.500000
    endloop
  endfacet
  facet normal 0.000000 -0.000000 1.000000
    outer loop
      vertex -17.117583 3.638455 82.500000
      vertex -17.117583 -3.638455 82.500000
      vertex -15.987046 7.117891 82.500000
    endloop
  endfacet
  facet normal 0.000000 0.000000 1.000000
    outer loop
      vertex -17.500000 0.000000 82.500000
      vertex -17.117583 -3.638455 82.500000
      vertex -17.117583 3.638455 82.500000
    endloop
  endfacet
  facet normal 0.000000 0.000000 1.000000
    outer loop
      vertex 8.029567 8.917738 82.500000
      vertex 9.708204 7.053423 82.500000
      vertex 14.157797 10.286242 82.500000
    endloop
  endfacet
  facet normal 0.000000 0.000000 1.000000
    outer loop
      vertex -10.962545 -4.880840 82.500000
      vertex -11.737771 -2.494940 82.500000
      vertex -17.117583 -3.638455 82.500000
    endloop
  endfacet
  facet normal 0.000000 0.000000 1.000000
    outer loop
      vertex -1.254342 11.934263 82.500000
      vertex 1.254342 11.934263 82.500000
      vertex 5.407797 16.643489 82.500000
    endloop
  endfacet
  facet normal 0.000000 0.000000 1.000000
    outer loop
      vertex 1.254342 11.934263 82.500000
      vertex 3.708204 11.412678 82.500000
      vertex 8.750000 15.155445 82.500000
    endloop
  endfacet
  facet normal 0.000000 0.000000 1.000000
    outer loop
      vertex -5.407797 16.643489 82.500000
      vertex -17.117583 -3.638455 82.500000
      vertex -10.962545 4.880840 82.500000
    endloop
  endfacet
  facet normal 0.000000 -0.000000 1.000000
    outer loop
      vertex -5.407797 16.643489 82.500000
      vertex -9.708204 7.053423 82.500000
      vertex -1.829248 17.404133 82.500000
    endloop
  endfacet
  facet normal 0.000000 0.000000 1.000000
    outer loop
      vertex -5.407797 16.643489 82.500000
      vertex -10.962545 4.880840 82.500000
      vertex -9.708204 7.053423 82.500000
    endloop
  endfacet
  facet normal 0.000000 0.000000 1.000000
    outer loop
      vertex -9.708204 7.053423 82.500000
      vertex -8.029567 8.917738 82.500000
      vertex -1.829248 17.404133 82.500000
    endloop
  endfacet
  facet normal 0.000000 -0.000000 1.000000
    outer loop
      vertex -1.829248 17.404133 82.500000
      vertex -6.000000 10.392305 82.500000
      vertex 1.829248 17.404133 82.500000
    endloop
  endfacet
  facet normal 0.000000 0.000000 1.000000
    outer loop
      vertex -6.000000 10.392305 82.500000
      vertex -3.708204 11.412678 82.500000
      vertex 1.829248 17.404133 82.500000
    endloop
  endfacet
  facet normal 0.000000 -0.000000 1.000000
    outer loop
      vertex 1.829248 17.404133 82.500000
      vertex -1.254342 11.934263 82.500000
      vertex 5.407797 16.643489 82.500000
    endloop
  endfacet
  facet normal -0.000000 0.000000 1.000000
    outer loop
      vertex -11.737771 2.494940 82.500000
      vertex -10.962545 4.880840 82.500000
      vertex -17.117583 -3.638455 82.500000
    endloop
  endfacet
  facet normal 0.000000 -0.000000 1.000000
    outer loop
      vertex 5.407797 16.643489 82.500000
      vertex 1.254342 11.934263 82.500000
      vertex 8.750000 15.155445 82.500000
    endloop
  endfacet
  facet normal 0.000000 -0.000000 1.000000
    outer loop
      vertex 8.750000 15.155445 82.500000
      vertex 3.708204 11.412678 82.500000
      vertex 11.709786 13.005034 82.500000
    endloop
  endfacet
  facet normal 0.000000 0.000000 1.000000
    outer loop
      vertex 3.708204 11.412678 82.500000
      vertex 6.000000 10.392305 82.500000
      vertex 11.709786 13.005034 82.500000
    endloop
  endfacet
  facet normal 0.000000 -0.000000 1.000000
    outer loop
      vertex 11.709786 13.005034 82.500000
      vertex 8.029567 8.917738 82.500000
      vertex 14.157797 10.286242 82.500000
    endloop
  endfacet
  facet normal 0.000000 -0.000000 1.000000
    outer loop
      vertex 14.157797 10.286242 82.500000
      vertex 9.708204 7.053423 82.500000
      vertex 15.987046 7.117891 82.500000
    endloop
  endfacet
  facet normal 0.000000 0.000000 1.000000
    outer loop
      vertex 10.962545 4.880840 82.500000
      vertex 11.737771 2.494940 82.500000
      vertex 17.117583 3.638455 82.500000
    endloop
  endfacet
  facet normal 0.000000 -0.000000 1.000000
    outer loop
      vertex 15.987046 7.117891 82.500000
      vertex 10.962545 4.880840 82.500000
      vertex 17.117583 3.638455 82.500000
    endloop
  endfacet
  facet normal -0.000000 0.000000 1.000000
    outer loop
      vertex -12.000000 0.000000 82.500000
      vertex -11.737771 2.494940 82.500000
      vertex -17.117583 -3.638455 82.500000
    endloop
  endfacet
  facet normal 0.000000 -0.000000 1.000000
    outer loop
      vertex 17.117583 3.638455 82.500000
      vertex 11.737771 2.494940 82.500000
      vertex 17.500000 0.000000 82.500000
    endloop
  endfacet
  facet normal 0.000000 0.000000 1.000000
    outer loop
      vertex 11.737771 2.494940 82.500000
      vertex 12.000000 0.000000 82.500000
      vertex 17.500000 0.000000 82.500000
    endloop
  endfacet
  facet normal 0.000000 0.000000 1.000000
    outer loop
      vertex 17.500000 0.000000 82.500000
      vertex 11.737771 -2.494940 82.500000
      vertex 17.117583 -3.638455 82.500000
    endloop
  endfacet
  facet normal 0.000000 0.000000 1.000000
    outer loop
      vertex 17.117583 -3.638455 82.500000
      vertex 10.962545 -4.880840 82.500000
      vertex 15.987046 -7.117891 82.500000
    endloop
  endfacet
  facet normal -0.000000 0.000000 1.000000
    outer loop
      vertex 15.987046 -7.117891 82.500000
      vertex 9.708204 -7.053423 82.500000
      vertex 14.157797 -10.286242 82.500000
    endloop
  endfacet
  facet normal 0.000000 -0.000000 1.000000
    outer loop
      vertex 9.708204 -7.053423 82.500000
      vertex 8.029567 -8.917738 82.500000
      vertex 14.157797 -10.286242 82.500000
    endloop
  endfacet
  facet normal 0.000000 0.000000 1.000000
    outer loop
      vertex 14.157797 -10.286242 82.500000
      vertex 6.000000 -10.392305 82.500000
      vertex 11.709786 -13.005034 82.500000
    endloop
  endfacet
  facet normal -0.000000 0.000000 1.000000
    outer loop
      vertex 11.709786 -13.005034 82.500000
      vertex 3.708204 -11.412678 82.500000
      vertex 8.750000 -15.155445 82.500000
    endloop
  endfacet
  facet normal -0.000000 0.000000 1.000000
    outer loop
      vertex 8.750000 -15.155445 82.500000
      vertex 1.254342 -11.934263 82.500000
      vertex 5.407797 -16.643489 82.500000
    endloop
  endfacet
  facet normal 0.000000 -0.000000 1.000000
    outer loop
      vertex 1.254342 -11.934263 82.500000
      vertex -1.254342 -11.934263 82.500000
      vertex 5.407797 -16.643489 82.500000
    endloop
  endfacet
  facet normal -0.000000 0.000000 1.000000
    outer loop
      vertex 5.407797 -16.643489 82.500000
      vertex -3.708204 -11.412678 82.500000
      vertex 1.829248 -17.404133 82.500000
    endloop
  endfacet
  facet normal -0.000000 -0.000000 1.000000
    outer loop
      vertex -3.708204 -11.412678 82.500000
      vertex -6.000000 -10.392305 82.500000
      vertex 1.829248 -17.404133 82.500000
    endloop
  endfacet
  facet normal -0.000000 -0.000000 1.000000
    outer loop
      vertex -8.029567 -8.917738 82.500000
      vertex -17.117583 -3.638455 82.500000
      vertex -6.000000 -10.392305 82.500000
    endloop
  endfacet
  facet normal 0.000000 0.000000 1.000000
    outer loop
      vertex -8.029567 -8.917738 82.500000
      vertex -9.708204 -7.053423 82.500000
      vertex -17.117583 -3.638455 82.500000
    endloop
  endfacet
  facet normal 0.000000 0.000000 1.000000
    outer loop
      vertex 9.708204 7.053423 82.500000
      vertex 10.962545 4.880840 82.500000
      vertex 15.987046 7.117891 82.500000
    endloop
  endfacet
  facet normal -0.000000 0.000000 1.000000
    outer loop
      vertex -11.737771 -2.494940 82.500000
      vertex -12.000000 0.000000 82.500000
      vertex -17.117583 -3.638455 82.500000
    endloop
  endfacet
  facet normal -0.000000 0.000000 -1.000000
    outer loop
      vertex -14.159955 6.304418 80.500000
      vertex -12.539763 9.110671 80.500000
      vertex -15.161288 3.222631 80.500000
    endloop
  endfacet
  facet normal 0.000000 0.000000 -1.000000
    outer loop
      vertex -15.161288 3.222631 80.500000
      vertex -12.539763 9.110671 80.500000
      vertex -10.371524 11.518745 80.500000
    endloop
  endfacet
  facet normal 0.000000 0.000000 -1.000000
    outer loop
      vertex -15.161288 3.222631 80.500000
      vertex -10.371524 11.518745 80.500000
      vertex -7.750000 13.423394 80.500000
    endloop
  endfacet
  facet normal 0.000000 0.000000 -1.000000
    outer loop
      vertex -15.161288 3.222631 80.500000
      vertex -7.750000 13.423394 80.500000
      vertex -4.789763 14.741376 80.500000
    endloop
  endfacet
  facet normal 0.000000 0.000000 -1.000000
    outer loop
      vertex -15.161288 3.222631 80.500000
      vertex -4.789763 14.741376 80.500000
      vertex -1.620191 15.415089 80.500000
    endloop
  endfacet
  facet normal 0.000000 0.000000 -1.000000
    outer loop
      vertex -15.161288 3.222631 80.500000
      vertex -1.620191 15.415089 80.500000
      vertex 1.620191 15.415089 80.500000
    endloop
  endfacet
  facet normal 0.000000 0.000000 -1.000000
    outer loop
      vertex -15.161288 3.222631 80.500000
      vertex 1.620191 15.415089 80.500000
      vertex 4.789763 14.741376 80.500000
    endloop
  endfacet
  facet normal 0.000000 0.000000 -1.000000
    outer loop
      vertex -15.161288 3.222631 80.500000
      vertex 4.789763 14.741376 80.500000
      vertex 7.750000 13.423394 80.500000
    endloop
  endfacet
  facet normal 0.000000 0.000000 -1.000000
    outer loop
      vertex -15.161288 3.222631 80.500000
      vertex 7.750000 13.423394 80.500000
      vertex 10.371524 11.518745 80.500000
    endloop
  endfacet
  facet normal 0.000000 0.000000 -1.000000
    outer loop
      vertex -15.161288 3.222631 80.500000
      vertex 10.371524 11.518745 80.500000
      vertex 12.539763 9.110671 80.500000
    endloop
  endfacet
  facet normal 0.000000 0.000000 -1.000000
    outer loop
      vertex -15.161288 3.222631 80.500000
      vertex 12.539763 9.110671 80.500000
      vertex 14.159955 6.304418 80.500000
    endloop
  endfacet
  facet normal -0.000000 0.000000 -1.000000
    outer loop
      vertex -15.161288 3.222631 80.500000
      vertex 14.159955 6.304418 80.500000
      vertex 15.161288 3.222631 80.500000
    endloop
  endfacet
  facet normal 0.000000 0.000000 -1.000000
    outer loop
      vertex -15.161288 3.222631 80.500000
      vertex 15.161288 3.222631 80.500000
      vertex 15.500000 0.000000 80.500000
    endloop
  endfacet
  facet normal 0.000000 0.000000 -1.000000
    outer loop
      vertex -15.161288 3.222631 80.500000
      vertex 15.500000 0.000000 80.500000
      vertex 15.161288 -3.222631 80.500000
    endloop
  endfacet
  facet normal 0.000000 0.000000 -1.000000
    outer loop
      vertex -15.161288 3.222631 80.500000
      vertex 15.161288 -3.222631 80.500000
      vertex 14.159955 -6.304418 80.500000
    endloop
  endfacet
  facet normal 0.000000 0.000000 -1.000000
    outer loop
      vertex -15.161288 3.222631 80.500000
      vertex 14.159955 -6.304418 80.500000
      vertex 12.539763 -9.110671 80.500000
    endloop
  endfacet
  facet normal 0.000000 0.000000 -1.000000
    outer loop
      vertex -15.161288 3.222631 80.500000
      vertex 12.539763 -9.110671 80.500000
      vertex 10.371524 -11.518745 80.500000
    endloop
  endfacet
  facet normal 0.000000 0.000000 -1.000000
    outer loop
      vertex -15.161288 3.222631 80.500000
      vertex 10.371524 -11.518745 80.500000
      vertex 7.750000 -13.423394 80.500000
    endloop
  endfacet
  facet normal 0.000000 0.000000 -1.000000
    outer loop
      vertex -15.161288 3.222631 80.500000
      vertex 7.750000 -13.423394 80.500000
      vertex 4.789763 -14.741376 80.500000
    endloop
  endfacet
  facet normal 0.000000 0.000000 -1.000000
    outer loop
      vertex -15.161288 3.222631 80.500000
      vertex 4.789763 -14.741376 80.500000
      vertex 1.620191 -15.415089 80.500000
    endloop
  endfacet
  facet normal 0.000000 0.000000 -1.000000
    outer loop
      vertex -15.161288 3.222631 80.500000
      vertex 1.620191 -15.415089 80.500000
      vertex -1.620191 -15.415089 80.500000
    endloop
  endfacet
  facet normal 0.000000 0.000000 -1.000000
    outer loop
      vertex -15.161288 3.222631 80.500000
      vertex -1.620191 -15.415089 80.500000
      vertex -4.789763 -14.741376 80.500000
    endloop
  endfacet
  facet normal 0.000000 0.000000 -1.000000
    outer loop
      vertex -15.161288 3.222631 80.500000
      vertex -4.789763 -14.741376 80.500000
      vertex -7.750000 -13.423394 80.500000
    endloop
  endfacet
  facet normal 0.000000 0.000000 -1.000000
    outer loop
      vertex -15.161288 3.222631 80.500000
      vertex -7.750000 -13.423394 80.500000
      vertex -10.371524 -11.518745 80.500000
    endloop
  endfacet
  facet normal 0.000000 0.000000 -1.000000
    outer loop
      vertex -15.161288 3.222631 80.500000
      vertex -10.371524 -11.518745 80.500000
      vertex -12.539763 -9.110671 80.500000
    endloop
  endfacet
  facet normal 0.000000 0.000000 -1.000000
    outer loop
      vertex -15.161288 3.222631 80.500000
      vertex -12.539763 -9.110671 80.500000
      vertex -14.159955 -6.304418 80.500000
    endloop
  endfacet
  facet normal 0.000000 0.000000 -1.000000
    outer loop
      vertex -15.161288 3.222631 80.500000
      vertex -14.159955 -6.304418 80.500000
      vertex -15.161288 -3.222631 80.500000
    endloop
  endfacet
  facet normal 0.000000 0.000000 -1.000000
    outer loop
      vertex -15.161288 3.222631 80.500000
      vertex -15.161288 -3.222631 80.500000
      vertex -15.500000 0.000000 80.500000
    endloop
  endfacet
  facet normal -0.994522 0.104529 0.000000
    outer loop
      vertex -12.000000 0.000000 82.500000
      vertex -12.000000 0.000000 92.500000
      vertex -11.737771 2.494940 82.500000
    endloop
  endfacet
  facet normal -0.994522 0.104529 0.000000
    outer loop
      vertex -11.737771 2.494940 82.500000
      vertex -12.000000 0.000000 92.500000
      vertex -11.737771 2.494940 92.500000
    endloop
  endfacet
  facet normal -0.994522 -0.104529 -0.000000
    outer loop
      vertex -12.000000 0.000000 82.500000
      vertex -11.737771 -2.494940 82.500000
      vertex -12.000000 0.000000 92.500000
    endloop
  endfacet
  facet normal -0.994522 -0.104529 0.000000
    outer loop
      vertex -12.000000 0.000000 92.500000
      vertex -11.737771 -2.494940 82.500000
      vertex -11.737771 -2.494940 92.500000
    endloop
  endfacet
  facet normal -0.951057 -0.309017 -0.000000
    outer loop
      vertex -11.737771 -2.494940 82.500000
      vertex -10.962545 -4.880840 82.500000
      vertex -11.737771 -2.494940 92.500000
    endloop
  endfacet
  facet normal -0.951057 -0.309017 0.000000
    outer loop
      vertex -11.737771 -2.494940 92.500000
      vertex -10.962545 -4.880840 82.500000
      vertex -10.962545 -4.880840 92.500000
    endloop
  endfacet
  facet normal -0.866025 -0.500000 -0.000000
    outer loop
      vertex -10.962545 -4.880840 82.500000
      vertex -9.708204 -7.053423 82.500000
      vertex -10.962545 -4.880840 92.500000
    endloop
  endfacet
  facet normal -0.866025 -0.500000 0.000000
    outer loop
      vertex -10.962545 -4.880840 92.500000
      vertex -9.708204 -7.053423 82.500000
      vertex -9.708204 -7.053423 92.500000
    endloop
  endfacet
  facet normal -0.743145 -0.669131 -0.000000
    outer loop
      vertex -9.708204 -7.053423 82.500000
      vertex -8.029567 -8.917738 82.500000
      vertex -9.708204 -7.053423 92.500000
    endloop
  endfacet
  facet normal -0.743145 -0.669131 0.000000
    outer loop
      vertex -9.708204 -7.053423 92.500000
      vertex -8.029567 -8.917738 82.500000
      vertex -8.029567 -8.917738 92.500000
    endloop
  endfacet
  facet normal -0.587785 -0.809017 0.000000
    outer loop
      vertex -8.029567 -8.917738 92.500000
      vertex -8.029567 -8.917738 82.500000
      vertex -6.000000 -10.392305 82.500000
    endloop
  endfacet
  facet normal -0.587785 -0.809017 0.000000
    outer loop
      vertex -6.000000 -10.392305 92.500000
      vertex -8.029567 -8.917738 92.500000
      vertex -6.000000 -10.392305 82.500000
    endloop
  endfacet
  facet normal -0.406737 -0.913546 0.000000
    outer loop
      vertex -6.000000 -10.392305 92.500000
      vertex -6.000000 -10.392305 82.500000
      vertex -3.708204 -11.412678 82.500000
    endloop
  endfacet
  facet normal -0.406737 -0.913546 0.000000
    outer loop
      vertex -3.708204 -11.412678 92.500000
      vertex -6.000000 -10.392305 92.500000
      vertex -3.708204 -11.412678 82.500000
    endloop
  endfacet
  facet normal -0.207912 -0.978148 0.000000
    outer loop
      vertex -3.708204 -11.412678 92.500000
      vertex -3.708204 -11.412678 82.500000
      vertex -1.254342 -11.934263 82.500000
    endloop
  endfacet
  facet normal -0.207912 -0.978148 0.000000
    outer loop
      vertex -1.254342 -11.934263 92.500000
      vertex -3.708204 -11.412678 92.500000
      vertex -1.254342 -11.934263 82.500000
    endloop
  endfacet
  facet normal 0.000000 -1.000000 0.000000
    outer loop
      vertex -1.254342 -11.934263 92.500000
      vertex -1.254342 -11.934263 82.500000
      vertex 1.254342 -11.934263 82.500000
    endloop
  endfacet
  facet normal 0.000000 -1.000000 0.000000
    outer loop
      vertex 1.254342 -11.934263 92.500000
      vertex -1.254342 -11.934263 92.500000
      vertex 1.254342 -11.934263 82.500000
    endloop
  endfacet
  facet normal 0.207912 -0.978148 0.000000
    outer loop
      vertex 1.254342 -11.934263 92.500000
      vertex 1.254342 -11.934263 82.500000
      vertex 3.708204 -11.412678 82.500000
    endloop
  endfacet
  facet normal 0.207912 -0.978148 0.000000
    outer loop
      vertex 3.708204 -11.412678 92.500000
      vertex 1.254342 -11.934263 92.500000
      vertex 3.708204 -11.412678 82.500000
    endloop
  endfacet
  facet normal 0.406737 -0.913546 0.000000
    outer loop
      vertex 3.708204 -11.412678 92.500000
      vertex 3.708204 -11.412678 82.500000
      vertex 6.000000 -10.392305 82.500000
    endloop
  endfacet
  facet normal 0.406737 -0.913546 0.000000
    outer loop
      vertex 6.000000 -10.392305 92.500000
      vertex 3.708204 -11.412678 92.500000
      vertex 6.000000 -10.392305 82.500000
    endloop
  endfacet
  facet normal 0.587785 -0.809017 0.000000
    outer loop
      vertex 6.000000 -10.392305 92.500000
      vertex 6.000000 -10.392305 82.500000
      vertex 8.029567 -8.917738 82.500000
    endloop
  endfacet
  facet normal 0.587785 -0.809017 0.000000
    outer loop
      vertex 8.029567 -8.917738 92.500000
      vertex 6.000000 -10.392305 92.500000
      vertex 8.029567 -8.917738 82.500000
    endloop
  endfacet
  facet normal 0.743145 -0.669131 0.000000
    outer loop
      vertex 8.029567 -8.917738 92.500000
      vertex 8.029567 -8.917738 82.500000
      vertex 9.708204 -7.053423 82.500000
    endloop
  endfacet
  facet normal 0.743145 -0.669131 0.000000
    outer loop
      vertex 9.708204 -7.053423 92.500000
      vertex 8.029567 -8.917738 92.500000
      vertex 9.708204 -7.053423 82.500000
    endloop
  endfacet
  facet normal 0.866025 -0.500000 0.000000
    outer loop
      vertex 9.708204 -7.053423 92.500000
      vertex 9.708204 -7.053423 82.500000
      vertex 10.962545 -4.880840 82.500000
    endloop
  endfacet
  facet normal 0.866025 -0.500000 0.000000
    outer loop
      vertex 10.962545 -4.880840 92.500000
      vertex 9.708204 -7.053423 92.500000
      vertex 10.962545 -4.880840 82.500000
    endloop
  endfacet
  facet normal 0.951057 -0.309017 0.000000
    outer loop
      vertex 10.962545 -4.880840 92.500000
      vertex 10.962545 -4.880840 82.500000
      vertex 11.737771 -2.494940 82.500000
    endloop
  endfacet
  facet normal 0.951057 -0.309017 0.000000
    outer loop
      vertex 11.737771 -2.494940 92.500000
      vertex 10.962545 -4.880840 92.500000
      vertex 11.737771 -2.494940 82.500000
    endloop
  endfacet
  facet normal 0.994522 -0.104529 0.000000
    outer loop
      vertex 11.737771 -2.494940 92.500000
      vertex 11.737771 -2.494940 82.500000
      vertex 12.000000 0.000000 82.500000
    endloop
  endfacet
  facet normal 0.994522 -0.104529 0.000000
    outer loop
      vertex 12.000000 0.000000 92.500000
      vertex 11.737771 -2.494940 92.500000
      vertex 12.000000 0.000000 82.500000
    endloop
  endfacet
  facet normal 0.994522 0.104529 0.000000
    outer loop
      vertex 12.000000 0.000000 82.500000
      vertex 11.737771 2.494940 82.500000
      vertex 11.737771 2.494940 92.500000
    endloop
  endfacet
  facet normal 0.994522 0.104529 -0.000000
    outer loop
      vertex 12.000000 0.000000 92.500000
      vertex 12.000000 0.000000 82.500000
      vertex 11.737771 2.494940 92.500000
    endloop
  endfacet
  facet normal 0.951057 0.309017 0.000000
    outer loop
      vertex 11.737771 2.494940 82.500000
      vertex 10.962545 4.880840 82.500000
      vertex 10.962545 4.880840 92.500000
    endloop
  endfacet
  facet normal 0.951057 0.309017 -0.000000
    outer loop
      vertex 11.737771 2.494940 92.500000
      vertex 11.737771 2.494940 82.500000
      vertex 10.962545 4.880840 92.500000
    endloop
  endfacet
  facet normal 0.866025 0.500000 0.000000
    outer loop
      vertex 10.962545 4.880840 82.500000
      vertex 9.708204 7.053423 82.500000
      vertex 9.708204 7.053423 92.500000
    endloop
  endfacet
  facet normal 0.866025 0.500000 -0.000000
    outer loop
      vertex 10.962545 4.880840 92.500000
      vertex 10.962545 4.880840 82.500000
      vertex 9.708204 7.053423 92.500000
    endloop
  endfacet
  facet normal 0.743145 0.669131 0.000000
    outer loop
      vertex 9.708204 7.053423 82.500000
      vertex 8.029567 8.917738 82.500000
      vertex 8.029567 8.917738 92.500000
    endloop
  endfacet
  facet normal 0.743145 0.669131 -0.000000
    outer loop
      vertex 9.708204 7.053423 92.500000
      vertex 9.708204 7.053423 82.500000
      vertex 8.029567 8.917738 92.500000
    endloop
  endfacet
  facet normal 0.587785 0.809017 0.000000
    outer loop
      vertex 6.000000 10.392305 82.500000
      vertex 6.000000 10.392305 92.500000
      vertex 8.029567 8.917738 82.500000
    endloop
  endfacet
  facet normal 0.587785 0.809017 0.000000
    outer loop
      vertex 8.029567 8.917738 82.500000
      vertex 6.000000 10.392305 92.500000
      vertex 8.029567 8.917738 92.500000
    endloop
  endfacet
  facet normal 0.406737 0.913546 0.000000
    outer loop
      vertex 3.708204 11.412678 82.500000
      vertex 3.708204 11.412678 92.500000
      vertex 6.000000 10.392305 82.500000
    endloop
  endfacet
  facet normal 0.406737 0.913546 0.000000
    outer loop
      vertex 6.000000 10.392305 82.500000
      vertex 3.708204 11.412678 92.500000
      vertex 6.000000 10.392305 92.500000
    endloop
  endfacet
  facet normal 0.207912 0.978148 0.000000
    outer loop
      vertex 1.254342 11.934263 82.500000
      vertex 1.254342 11.934263 92.500000
      vertex 3.708204 11.412678 82.500000
    endloop
  endfacet
  facet normal 0.207912 0.978148 0.000000
    outer loop
      vertex 3.708204 11.412678 82.500000
      vertex 1.254342 11.934263 92.500000
      vertex 3.708204 11.412678 92.500000
    endloop
  endfacet
  facet normal 0.000000 1.000000 0.000000
    outer loop
      vertex -1.254342 11.934263 82.500000
      vertex -1.254342 11.934263 92.500000
      vertex 1.254342 11.934263 82.500000
    endloop
  endfacet
  facet normal 0.000000 1.000000 0.000000
    outer loop
      vertex 1.254342 11.934263 82.500000
      vertex -1.254342 11.934263 92.500000
      vertex 1.254342 11.934263 92.500000
    endloop
  endfacet
  facet normal -0.207912 0.978148 0.000000
    outer loop
      vertex -3.708204 11.412678 82.500000
      vertex -3.708204 11.412678 92.500000
      vertex -1.254342 11.934263 82.500000
    endloop
  endfacet
  facet normal -0.207912 0.978148 0.000000
    outer loop
      vertex -1.254342 11.934263 82.500000
      vertex -3.708204 11.412678 92.500000
      vertex -1.254342 11.934263 92.500000
    endloop
  endfacet
  facet normal -0.406737 0.913546 0.000000
    outer loop
      vertex -6.000000 10.392305 82.500000
      vertex -6.000000 10.392305 92.500000
      vertex -3.708204 11.412678 82.500000
    endloop
  endfacet
  facet normal -0.406737 0.913546 0.000000
    outer loop
      vertex -3.708204 11.412678 82.500000
      vertex -6.000000 10.392305 92.500000
      vertex -3.708204 11.412678 92.500000
    endloop
  endfacet
  facet normal -0.587785 0.809017 0.000000
    outer loop
      vertex -8.029567 8.917738 82.500000
      vertex -8.029567 8.917738 92.500000
      vertex -6.000000 10.392305 82.500000
    endloop
  endfacet
  facet normal -0.587785 0.809017 0.000000
    outer loop
      vertex -6.000000 10.392305 82.500000
      vertex -8.029567 8.917738 92.500000
      vertex -6.000000 10.392305 92.500000
    endloop
  endfacet
  facet normal -0.743145 0.669131 0.000000
    outer loop
      vertex -9.708204 7.053423 82.500000
      vertex -9.708204 7.053423 92.500000
      vertex -8.029567 8.917738 82.500000
    endloop
  endfacet
  facet normal -0.743145 0.669131 0.000000
    outer loop
      vertex -8.029567 8.917738 82.500000
      vertex -9.708204 7.053423 92.500000
      vertex -8.029567 8.917738 92.500000
    endloop
  endfacet
  facet normal -0.866025 0.500000 0.000000
    outer loop
      vertex -10.962545 4.880840 82.500000
      vertex -10.962545 4.880840 92.500000
      vertex -9.708204 7.053423 82.500000
    endloop
  endfacet
  facet normal -0.866025 0.500000 0.000000
    outer loop
      vertex -9.708204 7.053423 82.500000
      vertex -10.962545 4.880840 92.500000
      vertex -9.708204 7.053423 92.500000
    endloop
  endfacet
  facet normal -0.951057 0.309017 0.000000
    outer loop
      vertex -11.737771 2.494940 82.500000
      vertex -11.737771 2.494940 92.500000
      vertex -10.962545 4.880840 82.500000
    endloop
  endfacet
  facet normal -0.951057 0.309017 0.000000
    outer loop
      vertex -10.962545 4.880840 82.500000
      vertex -11.737771 2.494940 92.500000
      vertex -10.962545 4.880840 92.500000
    endloop
  endfacet
  facet normal 0.000000 0.000000 1.000000
    outer loop
      vertex -11.737771 2.494940 92.500000
      vertex -12.000000 0.000000 92.500000
      vertex -11.737771 -2.494940 92.500000
    endloop
  endfacet
  facet normal 0.000000 0.000000 1.000000
    outer loop
      vertex -9.708204 -7.053423 92.500000
      vertex -11.737771 2.494940 92.500000
      vertex -10.962545 -4.880840 92.500000
    endloop
  endfacet
  facet normal 0.000000 0.000000 1.000000
    outer loop
      vertex -10.962545 -4.880840 92.500000
      vertex -11.737771 2.494940 92.500000
      vertex -11.737771 -2.494940 92.500000
    endloop
  endfacet
  facet normal 0.000000 0.000000 1.000000
    outer loop
      vertex -8.029567 -8.917738 92.500000
      vertex -11.737771 2.494940 92.500000
      vertex -9.708204 -7.053423 92.500000
    endloop
  endfacet
  facet normal 0.000000 0.000000 1.000000
    outer loop
      vertex -6.000000 -10.392305 92.500000
      vertex -11.737771 2.494940 92.500000
      vertex -8.029567 -8.917738 92.500000
    endloop
  endfacet
  facet normal 0.000000 0.000000 1.000000
    outer loop
      vertex -3.708204 -11.412678 92.500000
      vertex -11.737771 2.494940 92.500000
      vertex -6.000000 -10.392305 92.500000
    endloop
  endfacet
  facet normal 0.000000 0.000000 1.000000
    outer loop
      vertex -1.254342 -11.934263 92.500000
      vertex -11.737771 2.494940 92.500000
      vertex -3.708204 -11.412678 92.500000
    endloop
  endfacet
  facet normal -0.000000 0.000000 1.000000
    outer loop
      vertex 1.254342 -11.934263 92.500000
      vertex -11.737771 2.494940 92.500000
      vertex -1.254342 -11.934263 92.500000
    endloop
  endfacet
  facet normal -0.000000 0.000000 1.000000
    outer loop
      vertex 3.708204 -11.412678 92.500000
      vertex -11.737771 2.494940 92.500000
      vertex 1.254342 -11.934263 92.500000
    endloop
  endfacet
  facet normal -0.000000 0.000000 1.000000
    outer loop
      vertex 6.000000 -10.392305 92.500000
      vertex -11.737771 2.494940 92.500000
      vertex 3.708204 -11.412678 92.500000
    endloop
  endfacet
  facet normal -0.000000 0.000000 1.000000
    outer loop
      vertex 8.029567 -8.917738 92.500000
      vertex -11.737771 2.494940 92.500000
      vertex 6.000000 -10.392305 92.500000
    endloop
  endfacet
  facet normal -0.000000 0.000000 1.000000
    outer loop
      vertex 9.708204 -7.053423 92.500000
      vertex -11.737771 2.494940 92.500000
      vertex 8.029567 -8.917738 92.500000
    endloop
  endfacet
  facet normal -0.000000 0.000000 1.000000
    outer loop
      vertex 10.962545 -4.880840 92.500000
      vertex -11.737771 2.494940 92.500000
      vertex 9.708204 -7.053423 92.500000
    endloop
  endfacet
  facet normal -0.000000 0.000000 1.000000
    outer loop
      vertex 11.737771 -2.494940 92.500000
      vertex -11.737771 2.494940 92.500000
      vertex 10.962545 -4.880840 92.500000
    endloop
  endfacet
  facet normal -0.000000 0.000000 1.000000
    outer loop
      vertex 12.000000 0.000000 92.500000
      vertex -11.737771 2.494940 92.500000
      vertex 11.737771 -2.494940 92.500000
    endloop
  endfacet
  facet normal 0.000000 -0.000000 1.000000
    outer loop
      vertex 11.737771 2.494940 92.500000
      vertex -11.737771 2.494940 92.500000
      vertex 12.000000 0.000000 92.500000
    endloop
  endfacet
  facet normal 0.000000 -0.000000 1.000000
    outer loop
      vertex 10.962545 4.880840 92.500000
      vertex -11.737771 2.494940 92.500000
      vertex 11.737771 2.494940 92.500000
    endloop
  endfacet
  facet normal 0.000000 -0.000000 1.000000
    outer loop
      vertex 9.708204 7.053423 92.500000
      vertex -11.737771 2.494940 92.500000
      vertex 10.962545 4.880840 92.500000
    endloop
  endfacet
  facet normal 0.000000 -0.000000 1.000000
    outer loop
      vertex 8.029567 8.917738 92.500000
      vertex -11.737771 2.494940 92.500000
      vertex 9.708204 7.053423 92.500000
    endloop
  endfacet
  facet normal 0.000000 -0.000000 1.000000
    outer loop
      vertex 6.000000 10.392305 92.500000
      vertex -11.737771 2.494940 92.500000
      vertex 8.029567 8.917738 92.500000
    endloop
  endfacet
  facet normal 0.000000 -0.000000 1.000000
    outer loop
      vertex 3.708204 11.412678 92.500000
      vertex -11.737771 2.494940 92.500000
      vertex 6.000000 10.392305 92.500000
    endloop
  endfacet
  facet normal 0.000000 -0.000000 1.000000
    outer loop
      vertex 1.254342 11.934263 92.500000
      vertex -11.737771 2.494940 92.500000
      vertex 3.708204 11.412678 92.500000
    endloop
  endfacet
  facet normal 0.000000 -0.000000 1.000000
    outer loop
      vertex -1.254342 11.934263 92.500000
      vertex -11.737771 2.494940 92.500000
      vertex 1.254342 11.934263 92.500000
    endloop
  endfacet
  facet normal 0.000000 -0.000000 1.000000
    outer loop
      vertex -3.708204 11.412678 92.500000
      vertex -11.737771 2.494940 92.500000
      vertex -1.254342 11.934263 92.500000
    endloop
  endfacet
  facet normal 0.000000 -0.000000 1.000000
    outer loop
      vertex -6.000000 10.392305 92.500000
      vertex -11.737771 2.494940 92.500000
      vertex -3.708204 11.412678 92.500000
    endloop
  endfacet
  facet normal 0.000000 -0.000000 1.000000
    outer loop
      vertex -8.029567 8.917738 92.500000
      vertex -11.737771 2.494940 92.500000
      vertex -6.000000 10.392305 92.500000
    endloop
  endfacet
  facet normal 0.000000 -0.000000 1.000000
    outer loop
      vertex -9.708204 7.053423 92.500000
      vertex -11.737771 2.494940 92.500000
      vertex -8.029567 8.917738 92.500000
    endloop
  endfacet
  facet normal 0.000000 -0.000000 1.000000
    outer loop
      vertex -10.962545 4.880840 92.500000
      vertex -11.737771 2.494940 92.500000
      vertex -9.708204 7.053423 92.500000
    endloop
  endfacet
endsolid
