solid
  facet normal -0.000000 0.000000 -1.000000
    outer loop
      vertex -20.500000 0.000000 0.000000
      vertex -20.052026 4.262190 0.000000
      vertex -20.052026 -4.262190 0.000000
    endloop
  endfacet
  facet normal 0.000000 -0.000000 -1.000000
    outer loop
      vertex -20.052026 -4.262190 0.000000
      vertex -20.052026 4.262190 0.000000
      vertex -18.727682 8.338101 0.000000
    endloop
  endfacet
  facet normal 0.000000 0.000000 -1.000000
    outer loop
      vertex -20.052026 -4.262190 0.000000
      vertex -18.727682 8.338101 0.000000
      vertex -16.584848 12.049598 0.000000
    endloop
  endfacet
  facet normal 0.000000 0.000000 -1.000000
    outer loop
      vertex -16.900591 7.524628 0.000000
      vertex -16.584848 12.049598 0.000000
      vertex -13.717177 15.234469 0.000000
    endloop
  endfacet
  facet normal 0.000000 -0.000000 -1.000000
    outer loop
      vertex -12.378916 13.748179 0.000000
      vertex -13.717177 15.234469 0.000000
      vertex -10.250000 17.753521 0.000000
    endloop
  endfacet
  facet normal 0.000000 -0.000000 -1.000000
    outer loop
      vertex -9.250000 16.021470 0.000000
      vertex -10.250000 17.753521 0.000000
      vertex -6.334848 19.496659 0.000000
    endloop
  endfacet
  facet normal 0.000000 -0.000000 -1.000000
    outer loop
      vertex -5.716814 17.594546 0.000000
      vertex -6.334848 19.496659 0.000000
      vertex -2.142833 20.387699 0.000000
    endloop
  endfacet
  facet normal 0.000000 -0.000000 -1.000000
    outer loop
      vertex -1.933777 18.398655 0.000000
      vertex -2.142833 20.387699 0.000000
      vertex 2.142833 20.387699 0.000000
    endloop
  endfacet
  facet normal 0.000000 0.000000 -1.000000
    outer loop
      vertex 1.933777 18.398655 0.000000
      vertex 2.142833 20.387699 0.000000
      vertex 6.334848 19.496659 0.000000
    endloop
  endfacet
  facet normal 0.000000 0.000000 -1.000000
    outer loop
      vertex 5.716814 17.594546 0.000000
      vertex 6.334848 19.496659 0.000000
      vertex 10.250000 17.753521 0.000000
    endloop
  endfacet
  facet normal -0.000000 0.000000 -1.000000
    outer loop
      vertex 9.250000 16.021470 0.000000
      vertex 10.250000 17.753521 0.000000
      vertex 13.717177 15.234469 0.000000
    endloop
  endfacet
  facet normal -0.000000 0.000000 -1.000000
    outer loop
      vertex 12.378916 13.748179 0.000000
      vertex 13.717177 15.234469 0.000000
      vertex 16.584848 12.049598 0.000000
    endloop
  endfacet
  facet normal -0.000000 0.000000 -1.000000
    outer loop
      vertex 14.966814 10.874027 0.000000
      vertex 16.584848 12.049598 0.000000
      vertex 18.727682 8.338101 0.000000
    endloop
  endfacet
  facet normal -0.000000 0.000000 -1.000000
    outer loop
      vertex 16.900591 7.524628 0.000000
      vertex 18.727682 8.338101 0.000000
      vertex 20.052026 4.262190 0.000000
    endloop
  endfacet
  facet normal -0.000000 0.000000 -1.000000
    outer loop
      vertex 18.500000 0.000000 0.000000
      vertex 20.052026 4.262190 0.000000
      vertex 20.500000 0.000000 0.000000
    endloop
  endfacet
  facet normal -0.000000 0.000000 -1.000000
    outer loop
      vertex 18.095731 -3.846366 0.000000
      vertex 20.500000 0.000000 0.000000
      vertex 20.052026 -4.262190 0.000000
    endloop
  endfacet
  facet normal -0.000000 0.000000 -1.000000
    outer loop
      vertex 16.900591 -7.524628 0.000000
      vertex 20.052026 -4.262190 0.000000
      vertex 18.727682 -8.338101 0.000000
    endloop
  endfacet
  facet normal -0.000000 0.000000 -1.000000
    outer loop
      vertex 14.966814 -10.874027 0.000000
      vertex 18.727682 -8.338101 0.000000
      vertex 16.584848 -12.049598 0.000000
    endloop
  endfacet
  facet normal -0.000000 0.000000 -1.000000
    outer loop
      vertex 12.378916 -13.748179 0.000000
      vertex 16.584848 -12.049598 0.000000
      vertex 13.717177 -15.234469 0.000000
    endloop
  endfacet
  facet normal -0.000000 0.000000 -1.000000
    outer loop
      vertex 9.250000 -16.021470 0.000000
      vertex 13.717177 -15.234469 0.000000
      vertex 10.250000 -17.753521 0.000000
    endloop
  endfacet
  facet normal 0.000000 0.000000 -1.000000
    outer loop
      vertex 5.716814 -17.594546 0.000000
      vertex 10.250000 -17.753521 0.000000
      vertex 6.334848 -19.496659 0.000000
    endloop
  endfacet
  facet normal 0.000000 0.000000 -1.000000
    outer loop
      vertex 1.933777 -18.398655 0.000000
      vertex 6.334848 -19.496659 0.000000
      vertex 2.142833 -20.387699 0.000000
    endloop
  endfacet
  facet normal 0.000000 0.000000 -1.000000
    outer loop
      vertex -1.933777 -18.398655 0.000000
      vertex 2.142833 -20.387699 0.000000
      vertex -2.142833 -20.387699 0.000000
    endloop
  endfacet
  facet normal 0.000000 0.000000 -1.000000
    outer loop
      vertex -9.250000 -16.021470 0.000000
      vertex -2.142833 -20.387699 0.000000
      vertex -6.334848 -19.496659 0.000000
    endloop
  endfacet
  facet normal 0.000000 0.000000 -1.000000
    outer loop
      vertex -12.378916 -13.748179 0.000000
      vertex -6.334848 -19.496659 0.000000
      vertex -10.250000 -17.753521 0.000000
    endloop
  endfacet
  facet normal 0.000000 0.000000 -1.000000
    outer loop
      vertex -20.052026 -4.262190 0.000000
      vertex -10.250000 -17.753521 0.000000
      vertex -13.717177 -15.234469 0.000000
    endloop
  endfacet
  facet normal 0.000000 0.000000 -1.000000
    outer loop
      vertex -20.052026 -4.262190 0.000000
      vertex -13.717177 -15.234469 0.000000
      vertex -16.584848 -12.049598 0.000000
    endloop
  endfacet
  facet normal 0.000000 0.000000 -1.000000
    outer loop
      vertex -20.052026 -4.262190 0.000000
      vertex -16.584848 -12.049598 0.000000
      vertex -18.727682 -8.338101 0.000000
    endloop
  endfacet
  facet normal 0.000000 0.000000 -1.000000
    outer loop
      vertex -18.095731 -3.846366 0.000000
      vertex -20.052026 -4.262190 0.000000
      vertex -18.500000 0.000000 0.000000
    endloop
  endfacet
  facet normal 0.000000 0.000000 -1.000000
    outer loop
      vertex 5.716814 -17.594546 0.000000
      vertex 6.334848 -19.496659 0.000000
      vertex 1.933777 -18.398655 0.000000
    endloop
  endfacet
  facet normal 0.000000 0.000000 -1.000000
    outer loop
      vertex -16.900591 -7.524628 0.000000
      vertex -20.052026 -4.262190 0.000000
      vertex -18.095731 -3.846366 0.000000
    endloop
  endfacet
  facet normal 0.000000 0.000000 -1.000000
    outer loop
      vertex -14.966814 -10.874027 0.000000
      vertex -20.052026 -4.262190 0.000000
      vertex -16.900591 -7.524628 0.000000
    endloop
  endfacet
  facet normal 0.000000 0.000000 -1.000000
    outer loop
      vertex -9.250000 -16.021470 0.000000
      vertex -6.334848 -19.496659 0.000000
      vertex -12.378916 -13.748179 0.000000
    endloop
  endfacet
  facet normal 0.000000 0.000000 -1.000000
    outer loop
      vertex -20.052026 -4.262190 0.000000
      vertex -14.966814 -10.874027 0.000000
      vertex -10.250000 -17.753521 0.000000
    endloop
  endfacet
  facet normal 0.000000 0.000000 -1.000000
    outer loop
      vertex -14.966814 -10.874027 0.000000
      vertex -12.378916 -13.748179 0.000000
      vertex -10.250000 -17.753521 0.000000
    endloop
  endfacet
  facet normal 0.000000 0.000000 -1.000000
    outer loop
      vertex -5.716814 -17.594546 0.000000
      vertex -2.142833 -20.387699 0.000000
      vertex -9.250000 -16.021470 0.000000
    endloop
  endfacet
  facet normal 0.000000 0.000000 -1.000000
    outer loop
      vertex -1.933777 -18.398655 0.000000
      vertex -2.142833 -20.387699 0.000000
      vertex -5.716814 -17.594546 0.000000
    endloop
  endfacet
  facet normal -0.000000 0.000000 -1.000000
    outer loop
      vertex 18.095731 3.846366 0.000000
      vertex 20.052026 4.262190 0.000000
      vertex 18.500000 0.000000 0.000000
    endloop
  endfacet
  facet normal 0.000000 0.000000 -1.000000
    outer loop
      vertex 14.966814 10.874027 0.000000
      vertex 18.727682 8.338101 0.000000
      vertex 16.900591 7.524628 0.000000
    endloop
  endfacet
  facet normal 0.000000 0.000000 -1.000000
    outer loop
      vertex 16.900591 7.524628 0.000000
      vertex 20.052026 4.262190 0.000000
      vertex 18.095731 3.846366 0.000000
    endloop
  endfacet
  facet normal 0.000000 0.000000 -1.000000
    outer loop
      vertex 18.500000 0.000000 0.000000
      vertex 20.500000 0.000000 0.000000
      vertex 18.095731 -3.846366 0.000000
    endloop
  endfacet
  facet normal 0.000000 0.000000 -1.000000
    outer loop
      vertex 18.095731 -3.846366 0.000000
      vertex 20.052026 -4.262190 0.000000
      vertex 16.900591 -7.524628 0.000000
    endloop
  endfacet
  facet normal 0.000000 0.000000 -1.000000
    outer loop
      vertex 16.900591 -7.524628 0.000000
      vertex 18.727682 -8.338101 0.000000
      vertex 14.966814 -10.874027 0.000000
    endloop
  endfacet
  facet normal 0.000000 0.000000 -1.000000
    outer loop
      vertex 14.966814 -10.874027 0.000000
      vertex 16.584848 -12.049598 0.000000
      vertex 12.378916 -13.748179 0.000000
    endloop
  endfacet
  facet normal 0.000000 0.000000 -1.000000
    outer loop
      vertex 12.378916 -13.748179 0.000000
      vertex 13.717177 -15.234469 0.000000
      vertex 9.250000 -16.021470 0.000000
    endloop
  endfacet
  facet normal 0.000000 0.000000 -1.000000
    outer loop
      vertex 9.250000 -16.021470 0.000000
      vertex 10.250000 -17.753521 0.000000
      vertex 5.716814 -17.594546 0.000000
    endloop
  endfacet
  facet normal 0.000000 0.000000 -1.000000
    outer loop
      vertex -14.966814 10.874027 0.000000
      vertex -13.717177 15.234469 0.000000
      vertex -12.378916 13.748179 0.000000
    endloop
  endfacet
  facet normal 0.000000 0.000000 -1.000000
    outer loop
      vertex -16.900591 7.524628 0.000000
      vertex -13.717177 15.234469 0.000000
      vertex -14.966814 10.874027 0.000000
    endloop
  endfacet
  facet normal 0.000000 0.000000 -1.000000
    outer loop
      vertex -18.095731 3.846366 0.000000
      vertex -16.584848 12.049598 0.000000
      vertex -16.900591 7.524628 0.000000
    endloop
  endfacet
  facet normal 0.000000 0.000000 -1.000000
    outer loop
      vertex -20.052026 -4.262190 0.000000
      vertex -16.584848 12.049598 0.000000
      vertex -18.095731 3.846366 0.000000
    endloop
  endfacet
  facet normal 0.000000 0.000000 -1.000000
    outer loop
      vertex -12.378916 13.748179 0.000000
      vertex -10.250000 17.753521 0.000000
      vertex -9.250000 16.021470 0.000000
    endloop
  endfacet
  facet normal 0.000000 -0.000000 -1.000000
    outer loop
      vertex -18.500000 0.000000 0.000000
      vertex -20.052026 -4.262190 0.000000
      vertex -18.095731 3.846366 0.000000
    endloop
  endfacet
  facet normal 0.000000 0.000000 -1.000000
    outer loop
      vertex -9.250000 16.021470 0.000000
      vertex -6.334848 19.496659 0.000000
      vertex -5.716814 17.594546 0.000000
    endloop
  endfacet
  facet normal 0.000000 0.000000 -1.000000
    outer loop
      vertex -5.716814 17.594546 0.000000
      vertex -2.142833 20.387699 0.000000
      vertex -1.933777 18.398655 0.000000
    endloop
  endfacet
  facet normal -0.000000 0.000000 -1.000000
    outer loop
      vertex -1.933777 18.398655 0.000000
      vertex 2.142833 20.387699 0.000000
      vertex 1.933777 18.398655 0.000000
    endloop
  endfacet
  facet normal -0.000000 0.000000 -1.000000
    outer loop
      vertex 1.933777 18.398655 0.000000
      vertex 6.334848 19.496659 0.000000
      vertex 5.716814 17.594546 0.000000
    endloop
  endfacet
  facet normal -0.000000 0.000000 -1.000000
    outer loop
      vertex 5.716814 17.594546 0.000000
      vertex 10.250000 17.753521 0.000000
      vertex 9.250000 16.021470 0.000000
    endloop
  endfacet
  facet normal 0.000000 0.000000 -1.000000
    outer loop
      vertex 9.250000 16.021470 0.000000
      vertex 13.717177 15.234469 0.000000
      vertex 12.378916 13.748179 0.000000
    endloop
  endfacet
  facet normal 0.000000 0.000000 -1.000000
    outer loop
      vertex 12.378916 13.748179 0.000000
      vertex 16.584848 12.049598 0.000000
      vertex 14.966814 10.874027 0.000000
    endloop
  endfacet
  facet normal 0.000000 0.000000 -1.000000
    outer loop
      vertex 1.933777 -18.398655 0.000000
      vertex 2.142833 -20.387699 0.000000
      vertex -1.933777 -18.398655 0.000000
    endloop
  endfacet
  facet normal -0.994522 0.104528 0.000000
    outer loop
      vertex -20.500000 0.000000 0.000000
      vertex -20.500000 0.000000 82.500000
      vertex -20.052026 4.262190 0.000000
    endloop
  endfacet
  facet normal -0.994522 0.104528 0.000000
    outer loop
      vertex -20.052026 4.262190 0.000000
      vertex -20.500000 0.000000 82.500000
      vertex -20.052026 4.262190 82.500000
    endloop
  endfacet
  facet normal -0.994522 -0.104528 -0.000000
    outer loop
      vertex -20.500000 0.000000 0.000000
      vertex -20.052026 -4.262190 0.000000
      vertex -20.500000 0.000000 82.500000
    endloop
  endfacet
  facet normal -0.994522 -0.104528 0.000000
    outer loop
      vertex -20.500000 0.000000 82.500000
      vertex -20.052026 -4.262190 0.000000
      vertex -20.052026 -4.262190 82.500000
    endloop
  endfacet
  facet normal -0.951057 -0.309017 -0.000000
    outer loop
      vertex -20.052026 -4.262190 0.000000
      vertex -18.727682 -8.338101 0.000000
      vertex -20.052026 -4.262190 82.500000
    endloop
  endfacet
  facet normal -0.951057 -0.309017 0.000000
    outer loop
      vertex -20.052026 -4.262190 82.500000
      vertex -18.727682 -8.338101 0.000000
      vertex -18.727682 -8.338101 82.500000
    endloop
  endfacet
  facet normal -0.866025 -0.500000 -0.000000
    outer loop
      vertex -18.727682 -8.338101 0.000000
      vertex -16.584848 -12.049598 0.000000
      vertex -18.727682 -8.338101 82.500000
    endloop
  endfacet
  facet normal -0.866025 -0.500000 0.000000
    outer loop
      vertex -18.727682 -8.338101 82.500000
      vertex -16.584848 -12.049598 0.000000
      vertex -16.584848 -12.049598 82.500000
    endloop
  endfacet
  facet normal -0.743145 -0.669131 -0.000000
    outer loop
      vertex -16.584848 -12.049598 0.000000
      vertex -13.717177 -15.234469 0.000000
      vertex -16.584848 -12.049598 82.500000
    endloop
  endfacet
  facet normal -0.743145 -0.669131 0.000000
    outer loop
      vertex -16.584848 -12.049598 82.500000
      vertex -13.717177 -15.234469 0.000000
      vertex -13.717177 -15.234469 82.500000
    endloop
  endfacet
  facet normal -0.587785 -0.809017 0.000000
    outer loop
      vertex -13.717177 -15.234469 82.500000
      vertex -13.717177 -15.234469 0.000000
      vertex -10.250000 -17.753521 0.000000
    endloop
  endfacet
  facet normal -0.587785 -0.809017 0.000000
    outer loop
      vertex -10.250000 -17.753521 82.500000
      vertex -13.717177 -15.234469 82.500000
      vertex -10.250000 -17.753521 0.000000
    endloop
  endfacet
  facet normal -0.406737 -0.913545 0.000000
    outer loop
      vertex -10.250000 -17.753521 82.500000
      vertex -10.250000 -17.753521 0.000000
      vertex -6.334848 -19.496659 0.000000
    endloop
  endfacet
  facet normal -0.406737 -0.913545 0.000000
    outer loop
      vertex -6.334848 -19.496659 82.500000
      vertex -10.250000 -17.753521 82.500000
      vertex -6.334848 -19.496659 0.000000
    endloop
  endfacet
  facet normal -0.207912 -0.978148 0.000000
    outer loop
      vertex -6.334848 -19.496659 82.500000
      vertex -6.334848 -19.496659 0.000000
      vertex -2.142833 -20.387699 0.000000
    endloop
  endfacet
  facet normal -0.207912 -0.978148 0.000000
    outer loop
      vertex -2.142833 -20.387699 82.500000
      vertex -6.334848 -19.496659 82.500000
      vertex -2.142833 -20.387699 0.000000
    endloop
  endfacet
  facet normal 0.000000 -1.000000 0.000000
    outer loop
      vertex -2.142833 -20.387699 82.500000
      vertex -2.142833 -20.387699 0.000000
      vertex 2.142833 -20.387699 0.000000
    endloop
  endfacet
  facet normal 0.000000 -1.000000 0.000000
    outer loop
      vertex 2.142833 -20.387699 82.500000
      vertex -2.142833 -20.387699 82.500000
      vertex 2.142833 -20.387699 0.000000
    endloop
  endfacet
  facet normal 0.207912 -0.978148 0.000000
    outer loop
      vertex 2.142833 -20.387699 82.500000
      vertex 2.142833 -20.387699 0.000000
      vertex 6.334848 -19.496659 0.000000
    endloop
  endfacet
  facet normal 0.207912 -0.978148 0.000000
    outer loop
      vertex 6.334848 -19.496659 82.500000
      vertex 2.142833 -20.387699 82.500000
      vertex 6.334848 -19.496659 0.000000
    endloop
  endfacet
  facet normal 0.406737 -0.913545 0.000000
    outer loop
      vertex 6.334848 -19.496659 82.500000
      vertex 6.334848 -19.496659 0.000000
      vertex 10.250000 -17.753521 0.000000
    endloop
  endfacet
  facet normal 0.406737 -0.913545 0.000000
    outer loop
      vertex 10.250000 -17.753521 82.500000
      vertex 6.334848 -19.496659 82.500000
      vertex 10.250000 -17.753521 0.000000
    endloop
  endfacet
  facet normal 0.587785 -0.809017 0.000000
    outer loop
      vertex 10.250000 -17.753521 82.500000
      vertex 10.250000 -17.753521 0.000000
      vertex 13.717177 -15.234469 0.000000
    endloop
  endfacet
  facet normal 0.587785 -0.809017 0.000000
    outer loop
      vertex 13.717177 -15.234469 82.500000
      vertex 10.250000 -17.753521 82.500000
      vertex 13.717177 -15.234469 0.000000
    endloop
  endfacet
  facet normal 0.743145 -0.669131 0.000000
    outer loop
      vertex 13.717177 -15.234469 82.500000
      vertex 13.717177 -15.234469 0.000000
      vertex 16.584848 -12.049598 0.000000
    endloop
  endfacet
  facet normal 0.743145 -0.669131 0.000000
    outer loop
      vertex 16.584848 -12.049598 82.500000
      vertex 13.717177 -15.234469 82.500000
      vertex 16.584848 -12.049598 0.000000
    endloop
  endfacet
  facet normal 0.866025 -0.500000 0.000000
    outer loop
      vertex 16.584848 -12.049598 82.500000
      vertex 16.584848 -12.049598 0.000000
      vertex 18.727682 -8.338101 0.000000
    endloop
  endfacet
  facet normal 0.866025 -0.500000 0.000000
    outer loop
      vertex 18.727682 -8.338101 82.500000
      vertex 16.584848 -12.049598 82.500000
      vertex 18.727682 -8.338101 0.000000
    endloop
  endfacet
  facet normal 0.951057 -0.309017 0.000000
    outer loop
      vertex 18.727682 -8.338101 82.500000
      vertex 18.727682 -8.338101 0.000000
      vertex 20.052026 -4.262190 0.000000
    endloop
  endfacet
  facet normal 0.951057 -0.309017 0.000000
    outer loop
      vertex 20.052026 -4.262190 82.500000
      vertex 18.727682 -8.338101 82.500000
      vertex 20.052026 -4.262190 0.000000
    endloop
  endfacet
  facet normal 0.994522 -0.104528 0.000000
    outer loop
      vertex 20.052026 -4.262190 82.500000
      vertex 20.052026 -4.262190 0.000000
      vertex 20.500000 0.000000 0.000000
    endloop
  endfacet
  facet normal 0.994522 -0.104528 0.000000
    outer loop
      vertex 20.500000 0.000000 82.500000
      vertex 20.052026 -4.262190 82.500000
      vertex 20.500000 0.000000 0.000000
    endloop
  endfacet
  facet normal 0.994522 0.104528 0.000000
    outer loop
      vertex 20.500000 0.000000 0.000000
      vertex 20.052026 4.262190 0.000000
      vertex 20.052026 4.262190 82.500000
    endloop
  endfacet
  facet normal 0.994522 0.104528 -0.000000
    outer loop
      vertex 20.500000 0.000000 82.500000
      vertex 20.500000 0.000000 0.000000
      vertex 20.052026 4.262190 82.500000
    endloop
  endfacet
  facet normal 0.951057 0.309017 0.000000
    outer loop
      vertex 20.052026 4.262190 0.000000
      vertex 18.727682 8.338101 0.000000
      vertex 18.727682 8.338101 82.500000
    endloop
  endfacet
  facet normal 0.951057 0.309017 -0.000000
    outer loop
      vertex 20.052026 4.262190 82.500000
      vertex 20.052026 4.262190 0.000000
      vertex 18.727682 8.338101 82.500000
    endloop
  endfacet
  facet normal 0.866025 0.500000 0.000000
    outer loop
      vertex 18.727682 8.338101 0.000000
      vertex 16.584848 12.049598 0.000000
      vertex 16.584848 12.049598 82.500000
    endloop
  endfacet
  facet normal 0.866025 0.500000 -0.000000
    outer loop
      vertex 18.727682 8.338101 82.500000
      vertex 18.727682 8.338101 0.000000
      vertex 16.584848 12.049598 82.500000
    endloop
  endfacet
  facet normal 0.743145 0.669131 0.000000
    outer loop
      vertex 16.584848 12.049598 0.000000
      vertex 13.717177 15.234469 0.000000
      vertex 13.717177 15.234469 82.500000
    endloop
  endfacet
  facet normal 0.743145 0.669131 -0.000000
    outer loop
      vertex 16.584848 12.049598 82.500000
      vertex 16.584848 12.049598 0.000000
      vertex 13.717177 15.234469 82.500000
    endloop
  endfacet
  facet normal 0.587785 0.809017 0.000000
    outer loop
      vertex 10.250000 17.753521 0.000000
      vertex 10.250000 17.753521 82.500000
      vertex 13.717177 15.234469 0.000000
    endloop
  endfacet
  facet normal 0.587785 0.809017 0.000000
    outer loop
      vertex 13.717177 15.234469 0.000000
      vertex 10.250000 17.753521 82.500000
      vertex 13.717177 15.234469 82.500000
    endloop
  endfacet
  facet normal 0.406737 0.913545 0.000000
    outer loop
      vertex 6.334848 19.496659 0.000000
      vertex 6.334848 19.496659 82.500000
      vertex 10.250000 17.753521 0.000000
    endloop
  endfacet
  facet normal 0.406737 0.913545 0.000000
    outer loop
      vertex 10.250000 17.753521 0.000000
      vertex 6.334848 19.496659 82.500000
      vertex 10.250000 17.753521 82.500000
    endloop
  endfacet
  facet normal 0.207912 0.978148 0.000000
    outer loop
      vertex 2.142833 20.387699 0.000000
      vertex 2.142833 20.387699 82.500000
      vertex 6.334848 19.496659 0.000000
    endloop
  endfacet
  facet normal 0.207912 0.978148 0.000000
    outer loop
      vertex 6.334848 19.496659 0.000000
      vertex 2.142833 20.387699 82.500000
      vertex 6.334848 19.496659 82.500000
    endloop
  endfacet
  facet normal 0.000000 1.000000 0.000000
    outer loop
      vertex -2.142833 20.387699 0.000000
      vertex -2.142833 20.387699 82.500000
      vertex 2.142833 20.387699 0.000000
    endloop
  endfacet
  facet normal 0.000000 1.000000 0.000000
    outer loop
      vertex 2.142833 20.387699 0.000000
      vertex -2.142833 20.387699 82.500000
      vertex 2.142833 20.387699 82.500000
    endloop
  endfacet
  facet normal -0.207912 0.978148 0.000000
    outer loop
      vertex -6.334848 19.496659 0.000000
      vertex -6.334848 19.496659 82.500000
      vertex -2.142833 20.387699 0.000000
    endloop
  endfacet
  facet normal -0.207912 0.978148 0.000000
    outer loop
      vertex -2.142833 20.387699 0.000000
      vertex -6.334848 19.496659 82.500000
      vertex -2.142833 20.387699 82.500000
    endloop
  endfacet
  facet normal -0.406737 0.913545 0.000000
    outer loop
      vertex -10.250000 17.753521 0.000000
      vertex -10.250000 17.753521 82.500000
      vertex -6.334848 19.496659 0.000000
    endloop
  endfacet
  facet normal -0.406737 0.913545 0.000000
    outer loop
      vertex -6.334848 19.496659 0.000000
      vertex -10.250000 17.753521 82.500000
      vertex -6.334848 19.496659 82.500000
    endloop
  endfacet
  facet normal -0.587785 0.809017 0.000000
    outer loop
      vertex -13.717177 15.234469 0.000000
      vertex -13.717177 15.234469 82.500000
      vertex -10.250000 17.753521 0.000000
    endloop
  endfacet
  facet normal -0.587785 0.809017 0.000000
    outer loop
      vertex -10.250000 17.753521 0.000000
      vertex -13.717177 15.234469 82.500000
      vertex -10.250000 17.753521 82.500000
    endloop
  endfacet
  facet normal -0.743145 0.669131 0.000000
    outer loop
      vertex -16.584848 12.049598 0.000000
      vertex -16.584848 12.049598 82.500000
      vertex -13.717177 15.234469 0.000000
    endloop
  endfacet
  facet normal -0.743145 0.669131 0.000000
    outer loop
      vertex -13.717177 15.234469 0.000000
      vertex -16.584848 12.049598 82.500000
      vertex -13.717177 15.234469 82.500000
    endloop
  endfacet
  facet normal -0.866025 0.500000 0.000000
    outer loop
      vertex -18.727682 8.338101 0.000000
      vertex -18.727682 8.338101 82.500000
      vertex -16.584848 12.049598 0.000000
    endloop
  endfacet
  facet normal -0.866025 0.500000 0.000000
    outer loop
      vertex -16.584848 12.049598 0.000000
      vertex -18.727682 8.338101 82.500000
      vertex -16.584848 12.049598 82.500000
    endloop
  endfacet
  facet normal -0.951057 0.309017 0.000000
    outer loop
      vertex -20.052026 4.262190 0.000000
      vertex -20.052026 4.262190 82.500000
      vertex -18.727682 8.338101 0.000000
    endloop
  endfacet
  facet normal -0.951057 0.309017 0.000000
    outer loop
      vertex -18.727682 8.338101 0.000000
      vertex -20.052026 4.262190 82.500000
      vertex -18.727682 8.338101 82.500000
    endloop
  endfacet
  facet normal 0.994522 -0.104528 0.000000
    outer loop
      vertex -18.095731 3.846366 0.000000
      vertex -18.095731 3.846366 80.500000
      vertex -18.500000 0.000000 80.500000
    endloop
  endfacet
  facet normal 0.994522 -0.104528 0.000000
    outer loop
      vertex -18.500000 0.000000 0.000000
      vertex -18.095731 3.846366 0.000000
      vertex -18.500000 0.000000 80.500000
    endloop
  endfacet
  facet normal 0.994522 0.104528 0.000000
    outer loop
      vertex -18.500000 0.000000 80.500000
      vertex -18.095731 -3.846366 80.500000
      vertex -18.095731 -3.846366 0.000000
    endloop
  endfacet
  facet normal 0.994522 0.104528 0.000000
    outer loop
      vertex -18.500000 0.000000 0.000000
      vertex -18.500000 0.000000 80.500000
      vertex -18.095731 -3.846366 0.000000
    endloop
  endfacet
  facet normal 0.951056 -0.309017 0.000000
    outer loop
      vertex -16.900591 7.524628 0.000000
      vertex -16.900591 7.524628 80.500000
      vertex -18.095731 3.846366 80.500000
    endloop
  endfacet
  facet normal 0.951056 -0.309017 0.000000
    outer loop
      vertex -18.095731 3.846366 0.000000
      vertex -16.900591 7.524628 0.000000
      vertex -18.095731 3.846366 80.500000
    endloop
  endfacet
  facet normal 0.866025 -0.500000 0.000000
    outer loop
      vertex -14.966814 10.874027 0.000000
      vertex -14.966814 10.874027 80.500000
      vertex -16.900591 7.524628 80.500000
    endloop
  endfacet
  facet normal 0.866025 -0.500000 0.000000
    outer loop
      vertex -16.900591 7.524628 0.000000
      vertex -14.966814 10.874027 0.000000
      vertex -16.900591 7.524628 80.500000
    endloop
  endfacet
  facet normal 0.743145 -0.669131 0.000000
    outer loop
      vertex -12.378916 13.748179 0.000000
      vertex -12.378916 13.748179 80.500000
      vertex -14.966814 10.874027 80.500000
    endloop
  endfacet
  facet normal 0.743145 -0.669131 0.000000
    outer loop
      vertex -14.966814 10.874027 0.000000
      vertex -12.378916 13.748179 0.000000
      vertex -14.966814 10.874027 80.500000
    endloop
  endfacet
  facet normal 0.587785 -0.809017 0.000000
    outer loop
      vertex -9.250000 16.021470 0.000000
      vertex -9.250000 16.021470 80.500000
      vertex -12.378916 13.748179 80.500000
    endloop
  endfacet
  facet normal 0.587785 -0.809017 0.000000
    outer loop
      vertex -12.378916 13.748179 0.000000
      vertex -9.250000 16.021470 0.000000
      vertex -12.378916 13.748179 80.500000
    endloop
  endfacet
  facet normal 0.406737 -0.913545 0.000000
    outer loop
      vertex -5.716814 17.594546 0.000000
      vertex -5.716814 17.594546 80.500000
      vertex -9.250000 16.021470 80.500000
    endloop
  endfacet
  facet normal 0.406737 -0.913545 0.000000
    outer loop
      vertex -9.250000 16.021470 0.000000
      vertex -5.716814 17.594546 0.000000
      vertex -9.250000 16.021470 80.500000
    endloop
  endfacet
  facet normal 0.207912 -0.978148 0.000000
    outer loop
      vertex -1.933777 18.398655 0.000000
      vertex -1.933777 18.398655 80.500000
      vertex -5.716814 17.594546 80.500000
    endloop
  endfacet
  facet normal 0.207912 -0.978148 0.000000
    outer loop
      vertex -5.716814 17.594546 0.000000
      vertex -1.933777 18.398655 0.000000
      vertex -5.716814 17.594546 80.500000
    endloop
  endfacet
  facet normal 0.000000 -1.000000 0.000000
    outer loop
      vertex 1.933777 18.398655 0.000000
      vertex 1.933777 18.398655 80.500000
      vertex -1.933777 18.398655 80.500000
    endloop
  endfacet
  facet normal -0.000000 -1.000000 -0.000000
    outer loop
      vertex -1.933777 18.398655 0.000000
      vertex 1.933777 18.398655 0.000000
      vertex -1.933777 18.398655 80.500000
    endloop
  endfacet
  facet normal -0.207912 -0.978148 -0.000000
    outer loop
      vertex 5.716814 17.594546 0.000000
      vertex 5.716814 17.594546 80.500000
      vertex 1.933777 18.398655 80.500000
    endloop
  endfacet
  facet normal -0.207912 -0.978148 -0.000000
    outer loop
      vertex 1.933777 18.398655 0.000000
      vertex 5.716814 17.594546 0.000000
      vertex 1.933777 18.398655 80.500000
    endloop
  endfacet
  facet normal -0.406737 -0.913545 -0.000000
    outer loop
      vertex 9.250000 16.021470 0.000000
      vertex 9.250000 16.021470 80.500000
      vertex 5.716814 17.594546 80.500000
    endloop
  endfacet
  facet normal -0.406737 -0.913545 -0.000000
    outer loop
      vertex 5.716814 17.594546 0.000000
      vertex 9.250000 16.021470 0.000000
      vertex 5.716814 17.594546 80.500000
    endloop
  endfacet
  facet normal -0.587785 -0.809017 -0.000000
    outer loop
      vertex 12.378916 13.748179 0.000000
      vertex 12.378916 13.748179 80.500000
      vertex 9.250000 16.021470 80.500000
    endloop
  endfacet
  facet normal -0.587785 -0.809017 -0.000000
    outer loop
      vertex 9.250000 16.021470 0.000000
      vertex 12.378916 13.748179 0.000000
      vertex 9.250000 16.021470 80.500000
    endloop
  endfacet
  facet normal -0.743145 -0.669131 0.000000
    outer loop
      vertex 14.966814 10.874027 80.500000
      vertex 12.378916 13.748179 80.500000
      vertex 14.966814 10.874027 0.000000
    endloop
  endfacet
  facet normal -0.743145 -0.669131 0.000000
    outer loop
      vertex 14.966814 10.874027 0.000000
      vertex 12.378916 13.748179 80.500000
      vertex 12.378916 13.748179 0.000000
    endloop
  endfacet
  facet normal -0.866025 -0.500000 0.000000
    outer loop
      vertex 16.900591 7.524628 80.500000
      vertex 14.966814 10.874027 80.500000
      vertex 16.900591 7.524628 0.000000
    endloop
  endfacet
  facet normal -0.866025 -0.500000 0.000000
    outer loop
      vertex 16.900591 7.524628 0.000000
      vertex 14.966814 10.874027 80.500000
      vertex 14.966814 10.874027 0.000000
    endloop
  endfacet
  facet normal -0.951056 -0.309017 0.000000
    outer loop
      vertex 18.095731 3.846366 80.500000
      vertex 16.900591 7.524628 80.500000
      vertex 18.095731 3.846366 0.000000
    endloop
  endfacet
  facet normal -0.951056 -0.309017 0.000000
    outer loop
      vertex 18.095731 3.846366 0.000000
      vertex 16.900591 7.524628 80.500000
      vertex 16.900591 7.524628 0.000000
    endloop
  endfacet
  facet normal -0.994522 -0.104528 0.000000
    outer loop
      vertex 18.500000 0.000000 80.500000
      vertex 18.095731 3.846366 80.500000
      vertex 18.500000 0.000000 0.000000
    endloop
  endfacet
  facet normal -0.994522 -0.104528 0.000000
    outer loop
      vertex 18.500000 0.000000 0.000000
      vertex 18.095731 3.846366 80.500000
      vertex 18.095731 3.846366 0.000000
    endloop
  endfacet
  facet normal -0.994522 0.104528 0.000000
    outer loop
      vertex 18.500000 0.000000 80.500000
      vertex 18.500000 0.000000 0.000000
      vertex 18.095731 -3.846366 80.500000
    endloop
  endfacet
  facet normal -0.994522 0.104528 0.000000
    outer loop
      vertex 18.095731 -3.846366 80.500000
      vertex 18.500000 0.000000 0.000000
      vertex 18.095731 -3.846366 0.000000
    endloop
  endfacet
  facet normal -0.951056 0.309017 0.000000
    outer loop
      vertex 18.095731 -3.846366 80.500000
      vertex 18.095731 -3.846366 0.000000
      vertex 16.900591 -7.524628 80.500000
    endloop
  endfacet
  facet normal -0.951056 0.309017 0.000000
    outer loop
      vertex 16.900591 -7.524628 80.500000
      vertex 18.095731 -3.846366 0.000000
      vertex 16.900591 -7.524628 0.000000
    endloop
  endfacet
  facet normal -0.866025 0.500000 0.000000
    outer loop
      vertex 16.900591 -7.524628 80.500000
      vertex 16.900591 -7.524628 0.000000
      vertex 14.966814 -10.874027 80.500000
    endloop
  endfacet
  facet normal -0.866025 0.500000 0.000000
    outer loop
      vertex 14.966814 -10.874027 80.500000
      vertex 16.900591 -7.524628 0.000000
      vertex 14.966814 -10.874027 0.000000
    endloop
  endfacet
  facet normal -0.743145 0.669131 0.000000
    outer loop
      vertex 14.966814 -10.874027 80.500000
      vertex 14.966814 -10.874027 0.000000
      vertex 12.378916 -13.748179 80.500000
    endloop
  endfacet
  facet normal -0.743145 0.669131 0.000000
    outer loop
      vertex 12.378916 -13.748179 80.500000
      vertex 14.966814 -10.874027 0.000000
      vertex 12.378916 -13.748179 0.000000
    endloop
  endfacet
  facet normal -0.587785 0.809017 0.000000
    outer loop
      vertex 12.378916 -13.748179 80.500000
      vertex 12.378916 -13.748179 0.000000
      vertex 9.250000 -16.021470 80.500000
    endloop
  endfacet
  facet normal -0.587785 0.809017 0.000000
    outer loop
      vertex 9.250000 -16.021470 80.500000
      vertex 12.378916 -13.748179 0.000000
      vertex 9.250000 -16.021470 0.000000
    endloop
  endfacet
  facet normal -0.406737 0.913545 0.000000
    outer loop
      vertex 9.250000 -16.021470 80.500000
      vertex 9.250000 -16.021470 0.000000
      vertex 5.716814 -17.594546 80.500000
    endloop
  endfacet
  facet normal -0.406737 0.913545 0.000000
    outer loop
      vertex 5.716814 -17.594546 80.500000
      vertex 9.250000 -16.021470 0.000000
      vertex 5.716814 -17.594546 0.000000
    endloop
  endfacet
  facet normal -0.207912 0.978148 0.000000
    outer loop
      vertex 5.716814 -17.594546 80.500000
      vertex 5.716814 -17.594546 0.000000
      vertex 1.933777 -18.398655 80.500000
    endloop
  endfacet
  facet normal -0.207912 0.978148 0.000000
    outer loop
      vertex 1.933777 -18.398655 80.500000
      vertex 5.716814 -17.594546 0.000000
      vertex 1.933777 -18.398655 0.000000
    endloop
  endfacet
  facet normal 0.000000 1.000000 0.000000
    outer loop
      vertex 1.933777 -18.398655 80.500000
      vertex 1.933777 -18.398655 0.000000
      vertex -1.933777 -18.398655 80.500000
    endloop
  endfacet
  facet normal 0.000000 1.000000 -0.000000
    outer loop
      vertex -1.933777 -18.398655 80.500000
      vertex 1.933777 -18.398655 0.000000
      vertex -1.933777 -18.398655 0.000000
    endloop
  endfacet
  facet normal 0.207912 0.978148 -0.000000
    outer loop
      vertex -1.933777 -18.398655 80.500000
      vertex -1.933777 -18.398655 0.000000
      vertex -5.716814 -17.594546 80.500000
    endloop
  endfacet
  facet normal 0.207912 0.978148 -0.000000
    outer loop
      vertex -5.716814 -17.594546 80.500000
      vertex -1.933777 -18.398655 0.000000
      vertex -5.716814 -17.594546 0.000000
    endloop
  endfacet
  facet normal 0.406737 0.913545 -0.000000
    outer loop
      vertex -5.716814 -17.594546 80.500000
      vertex -5.716814 -17.594546 0.000000
      vertex -9.250000 -16.021470 80.500000
    endloop
  endfacet
  facet normal 0.406737 0.913545 -0.000000
    outer loop
      vertex -9.250000 -16.021470 80.500000
      vertex -5.716814 -17.594546 0.000000
      vertex -9.250000 -16.021470 0.000000
    endloop
  endfacet
  facet normal 0.587785 0.809017 -0.000000
    outer loop
      vertex -9.250000 -16.021470 80.500000
      vertex -9.250000 -16.021470 0.000000
      vertex -12.378916 -13.748179 80.500000
    endloop
  endfacet
  facet normal 0.587785 0.809017 -0.000000
    outer loop
      vertex -12.378916 -13.748179 80.500000
      vertex -9.250000 -16.021470 0.000000
      vertex -12.378916 -13.748179 0.000000
    endloop
  endfacet
  facet normal 0.743145 0.669131 0.000000
    outer loop
      vertex -14.966814 -10.874027 80.500000
      vertex -12.378916 -13.748179 80.500000
      vertex -12.378916 -13.748179 0.000000
    endloop
  endfacet
  facet normal 0.743145 0.669131 0.000000
    outer loop
      vertex -14.966814 -10.874027 0.000000
      vertex -14.966814 -10.874027 80.500000
      vertex -12.378916 -13.748179 0.000000
    endloop
  endfacet
  facet normal 0.866025 0.500000 0.000000
    outer loop
      vertex -16.900591 -7.524628 80.500000
      vertex -14.966814 -10.874027 80.500000
      vertex -14.966814 -10.874027 0.000000
    endloop
  endfacet
  facet normal 0.866025 0.500000 0.000000
    outer loop
      vertex -16.900591 -7.524628 0.000000
      vertex -16.900591 -7.524628 80.500000
      vertex -14.966814 -10.874027 0.000000
    endloop
  endfacet
  facet normal 0.951056 0.309017 0.000000
    outer loop
      vertex -18.095731 -3.846366 80.500000
      vertex -16.900591 -7.524628 80.500000
      vertex -16.900591 -7.524628 0.000000
    endloop
  endfacet
  facet normal 0.951056 0.309017 0.000000
    outer loop
      vertex -18.095731 -3.846366 0.000000
      vertex -18.095731 -3.846366 80.500000
      vertex -16.900591 -7.524628 0.000000
    endloop
  endfacet
  facet normal 0.000000 0.000000 1.000000
    outer loop
      vertex -20.052026 4.262190 82.500000
      vertex -20.500000 0.000000 82.500000
      vertex -20.052026 -4.262190 82.500000
    endloop
  endfacet
  facet normal 0.000000 0.000000 1.000000
    outer loop
      vertex -16.584848 -12.049598 82.500000
      vertex -20.052026 4.262190 82.500000
      vertex -18.727682 -8.338101 82.500000
    endloop
  endfacet
  facet normal 0.000000 0.000000 1.000000
    outer loop
      vertex -18.727682 -8.338101 82.500000
      vertex -20.052026 4.262190 82.500000
      vertex -20.052026 -4.262190 82.500000
    endloop
  endfacet
  facet normal 0.000000 0.000000 1.000000
    outer loop
      vertex -13.717177 -15.234469 82.500000
      vertex -20.052026 4.262190 82.500000
      vertex -16.584848 -12.049598 82.500000
    endloop
  endfacet
  facet normal 0.000000 0.000000 1.000000
    outer loop
      vertex -10.250000 -17.753521 82.500000
      vertex -20.052026 4.262190 82.500000
      vertex -13.717177 -15.234469 82.500000
    endloop
  endfacet
  facet normal 0.000000 0.000000 1.000000
    outer loop
      vertex -6.334848 -19.496659 82.500000
      vertex -20.052026 4.262190 82.500000
      vertex -10.250000 -17.753521 82.500000
    endloop
  endfacet
  facet normal 0.000000 0.000000 1.000000
    outer loop
      vertex -2.142833 -20.387699 82.500000
      vertex -20.052026 4.262190 82.500000
      vertex -6.334848 -19.496659 82.500000
    endloop
  endfacet
  facet normal -0.000000 0.000000 1.000000
    outer loop
      vertex 2.142833 -20.387699 82.500000
      vertex -20.052026 4.262190 82.500000
      vertex -2.142833 -20.387699 82.500000
    endloop
  endfacet
  facet normal -0.000000 -0.000000 1.000000
    outer loop
      vertex -8.029567 -8.917738 82.500000
      vertex -20.052026 4.262190 82.500000
      vertex 2.142833 -20.387699 82.500000
    endloop
  endfacet
  facet normal 0.000000 -0.000000 1.000000
    outer loop
      vertex 6.000000 -10.392305 82.500000
      vertex 3.708204 -11.412678 82.500000
      vertex 13.717177 -15.234469 82.500000
    endloop
  endfacet
  facet normal 0.000000 0.000000 1.000000
    outer loop
      vertex 10.962545 4.880840 82.500000
      vertex 11.737771 2.494940 82.500000
      vertex 20.052026 4.262190 82.500000
    endloop
  endfacet
  facet normal 0.000000 0.000000 1.000000
    outer loop
      vertex 1.254342 11.934263 82.500000
      vertex 3.708204 11.412678 82.500000
      vertex 13.717177 15.234469 82.500000
    endloop
  endfacet
  facet normal 0.000000 0.000000 1.000000
    outer loop
      vertex 6.000000 10.392305 82.500000
      vertex 8.029567 8.917738 82.500000
      vertex 16.584848 12.049598 82.500000
    endloop
  endfacet
  facet normal 0.000000 -0.000000 1.000000
    outer loop
      vertex 6.334848 19.496659 82.500000
      vertex -20.052026 4.262190 82.500000
      vertex 10.250000 17.753521 82.500000
    endloop
  endfacet
  facet normal 0.000000 -0.000000 1.000000
    outer loop
      vertex 2.142833 20.387699 82.500000
      vertex -20.052026 4.262190 82.500000
      vertex 6.334848 19.496659 82.500000
    endloop
  endfacet
  facet normal 0.000000 -0.000000 1.000000
    outer loop
      vertex -2.142833 20.387699 82.500000
      vertex -20.052026 4.262190 82.500000
      vertex 2.142833 20.387699 82.500000
    endloop
  endfacet
  facet normal 0.000000 -0.000000 1.000000
    outer loop
      vertex -6.334848 19.496659 82.500000
      vertex -20.052026 4.262190 82.500000
      vertex -2.142833 20.387699 82.500000
    endloop
  endfacet
  facet normal 0.000000 -0.000000 1.000000
    outer loop
      vertex -10.250000 17.753521 82.500000
      vertex -20.052026 4.262190 82.500000
      vertex -6.334848 19.496659 82.500000
    endloop
  endfacet
  facet normal 0.000000 -0.000000 1.000000
    outer loop
      vertex -13.717177 15.234469 82.500000
      vertex -20.052026 4.262190 82.500000
      vertex -10.250000 17.753521 82.500000
    endloop
  endfacet
  facet normal 0.000000 -0.000000 1.000000
    outer loop
      vertex -16.584848 12.049598 82.500000
      vertex -20.052026 4.262190 82.500000
      vertex -13.717177 15.234469 82.500000
    endloop
  endfacet
  facet normal 0.000000 -0.000000 1.000000
    outer loop
      vertex -18.727682 8.338101 82.500000
      vertex -20.052026 4.262190 82.500000
      vertex -16.584848 12.049598 82.500000
    endloop
  endfacet
  facet normal 0.000000 0.000000 1.000000
    outer loop
      vertex -9.708204 -7.053423 82.500000
      vertex -10.962545 -4.880840 82.500000
      vertex -20.052026 4.262190 82.500000
    endloop
  endfacet
  facet normal 0.000000 0.000000 1.000000
    outer loop
      vertex -12.000000 0.000000 82.500000
      vertex -11.737771 2.494940 82.500000
      vertex -20.052026 4.262190 82.500000
    endloop
  endfacet
  facet normal 0.000000 0.000000 1.000000
    outer loop
      vertex 11.737771 2.494940 82.500000
      vertex 12.000000 0.000000 82.500000
      vertex 20.500000 0.000000 82.500000
    endloop
  endfacet
  facet normal 0.000000 0.000000 1.000000
    outer loop
      vertex -3.708204 11.412678 82.500000
      vertex -1.254342 11.934263 82.500000
      vertex 10.250000 17.753521 82.500000
    endloop
  endfacet
  facet normal 0.000000 0.000000 1.000000
    outer loop
      vertex 8.029567 8.917738 82.500000
      vertex 9.708204 7.053423 82.500000
      vertex 18.727682 8.338101 82.500000
    endloop
  endfacet
  facet normal 0.000000 0.000000 1.000000
    outer loop
      vertex -6.000000 10.392305 82.500000
      vertex -20.052026 4.262190 82.500000
      vertex -8.029567 8.917738 82.500000
    endloop
  endfacet
  facet normal 0.000000 0.000000 1.000000
    outer loop
      vertex 10.250000 17.753521 82.500000
      vertex -20.052026 4.262190 82.500000
      vertex -6.000000 10.392305 82.500000
    endloop
  endfacet
  facet normal 0.000000 0.000000 1.000000
    outer loop
      vertex 10.250000 17.753521 82.500000
      vertex -6.000000 10.392305 82.500000
      vertex -3.708204 11.412678 82.500000
    endloop
  endfacet
  facet normal 0.000000 -0.000000 1.000000
    outer loop
      vertex 10.250000 17.753521 82.500000
      vertex -1.254342 11.934263 82.500000
      vertex 13.717177 15.234469 82.500000
    endloop
  endfacet
  facet normal 0.000000 0.000000 1.000000
    outer loop
      vertex -1.254342 11.934263 82.500000
      vertex 1.254342 11.934263 82.500000
      vertex 13.717177 15.234469 82.500000
    endloop
  endfacet
  facet normal 0.000000 -0.000000 1.000000
    outer loop
      vertex 13.717177 15.234469 82.500000
      vertex 3.708204 11.412678 82.500000
      vertex 16.584848 12.049598 82.500000
    endloop
  endfacet
  facet normal 0.000000 0.000000 1.000000
    outer loop
      vertex 3.708204 11.412678 82.500000
      vertex 6.000000 10.392305 82.500000
      vertex 16.584848 12.049598 82.500000
    endloop
  endfacet
  facet normal 0.000000 -0.000000 1.000000
    outer loop
      vertex 16.584848 12.049598 82.500000
      vertex 8.029567 8.917738 82.500000
      vertex 18.727682 8.338101 82.500000
    endloop
  endfacet
  facet normal -0.000000 0.000000 1.000000
    outer loop
      vertex -9.708204 7.053423 82.500000
      vertex -8.029567 8.917738 82.500000
      vertex -20.052026 4.262190 82.500000
    endloop
  endfacet
  facet normal 0.000000 -0.000000 1.000000
    outer loop
      vertex 18.727682 8.338101 82.500000
      vertex 9.708204 7.053423 82.500000
      vertex 20.052026 4.262190 82.500000
    endloop
  endfacet
  facet normal 0.000000 0.000000 1.000000
    outer loop
      vertex 9.708204 7.053423 82.500000
      vertex 10.962545 4.880840 82.500000
      vertex 20.052026 4.262190 82.500000
    endloop
  endfacet
  facet normal 0.000000 -0.000000 1.000000
    outer loop
      vertex 20.052026 4.262190 82.500000
      vertex 11.737771 2.494940 82.500000
      vertex 20.500000 0.000000 82.500000
    endloop
  endfacet
  facet normal 0.000000 -0.000000 1.000000
    outer loop
      vertex 9.708204 -7.053423 82.500000
      vertex 8.029567 -8.917738 82.500000
      vertex 16.584848 -12.049598 82.500000
    endloop
  endfacet
  facet normal 0.000000 0.000000 1.000000
    outer loop
      vertex 20.500000 0.000000 82.500000
      vertex 12.000000 0.000000 82.500000
      vertex 20.052026 -4.262190 82.500000
    endloop
  endfacet
  facet normal -0.000000 0.000000 1.000000
    outer loop
      vertex -10.962545 4.880840 82.500000
      vertex -9.708204 7.053423 82.500000
      vertex -20.052026 4.262190 82.500000
    endloop
  endfacet
  facet normal 0.000000 -0.000000 1.000000
    outer loop
      vertex 12.000000 0.000000 82.500000
      vertex 11.737771 -2.494940 82.500000
      vertex 20.052026 -4.262190 82.500000
    endloop
  endfacet
  facet normal 0.000000 0.000000 1.000000
    outer loop
      vertex 20.052026 -4.262190 82.500000
      vertex 10.962545 -4.880840 82.500000
      vertex 18.727682 -8.338101 82.500000
    endloop
  endfacet
  facet normal -0.000000 0.000000 1.000000
    outer loop
      vertex 18.727682 -8.338101 82.500000
      vertex 9.708204 -7.053423 82.500000
      vertex 16.584848 -12.049598 82.500000
    endloop
  endfacet
  facet normal 0.000000 -0.000000 1.000000
    outer loop
      vertex 11.737771 -2.494940 82.500000
      vertex 10.962545 -4.880840 82.500000
      vertex 20.052026 -4.262190 82.500000
    endloop
  endfacet
  facet normal -0.000000 0.000000 1.000000
    outer loop
      vertex 16.584848 -12.049598 82.500000
      vertex 8.029567 -8.917738 82.500000
      vertex 13.717177 -15.234469 82.500000
    endloop
  endfacet
  facet normal 0.000000 -0.000000 1.000000
    outer loop
      vertex 8.029567 -8.917738 82.500000
      vertex 6.000000 -10.392305 82.500000
      vertex 13.717177 -15.234469 82.500000
    endloop
  endfacet
  facet normal -0.000000 0.000000 1.000000
    outer loop
      vertex 13.717177 -15.234469 82.500000
      vertex 3.708204 -11.412678 82.500000
      vertex 10.250000 -17.753521 82.500000
    endloop
  endfacet
  facet normal 0.000000 -0.000000 1.000000
    outer loop
      vertex 3.708204 -11.412678 82.500000
      vertex 1.254342 -11.934263 82.500000
      vertex 10.250000 -17.753521 82.500000
    endloop
  endfacet
  facet normal -0.000000 0.000000 1.000000
    outer loop
      vertex 10.250000 -17.753521 82.500000
      vertex 1.254342 -11.934263 82.500000
      vertex 6.334848 -19.496659 82.500000
    endloop
  endfacet
  facet normal 0.000000 -0.000000 1.000000
    outer loop
      vertex 1.254342 -11.934263 82.500000
      vertex -1.254342 -11.934263 82.500000
      vertex 6.334848 -19.496659 82.500000
    endloop
  endfacet
  facet normal -0.000000 0.000000 1.000000
    outer loop
      vertex 6.334848 -19.496659 82.500000
      vertex -3.708204 -11.412678 82.500000
      vertex 2.142833 -20.387699 82.500000
    endloop
  endfacet
  facet normal -0.000000 -0.000000 1.000000
    outer loop
      vertex -3.708204 -11.412678 82.500000
      vertex -6.000000 -10.392305 82.500000
      vertex 2.142833 -20.387699 82.500000
    endloop
  endfacet
  facet normal -0.000000 -0.000000 1.000000
    outer loop
      vertex -6.000000 -10.392305 82.500000
      vertex -8.029567 -8.917738 82.500000
      vertex 2.142833 -20.387699 82.500000
    endloop
  endfacet
  facet normal -0.000000 -0.000000 1.000000
    outer loop
      vertex -9.708204 -7.053423 82.500000
      vertex -20.052026 4.262190 82.500000
      vertex -8.029567 -8.917738 82.500000
    endloop
  endfacet
  facet normal -0.000000 -0.000000 1.000000
    outer loop
      vertex -1.254342 -11.934263 82.500000
      vertex -3.708204 -11.412678 82.500000
      vertex 6.334848 -19.496659 82.500000
    endloop
  endfacet
  facet normal 0.000000 0.000000 1.000000
    outer loop
      vertex -10.962545 -4.880840 82.500000
      vertex -11.737771 -2.494940 82.500000
      vertex -20.052026 4.262190 82.500000
    endloop
  endfacet
  facet normal 0.000000 0.000000 1.000000
    outer loop
      vertex -11.737771 -2.494940 82.500000
      vertex -12.000000 0.000000 82.500000
      vertex -20.052026 4.262190 82.500000
    endloop
  endfacet
  facet normal 0.000000 -0.000000 1.000000
    outer loop
      vertex 10.962545 -4.880840 82.500000
      vertex 9.708204 -7.053423 82.500000
      vertex 18.727682 -8.338101 82.500000
    endloop
  endfacet
  facet normal 0.000000 0.000000 1.000000
    outer loop
      vertex -11.737771 2.494940 82.500000
      vertex -10.962545 4.880840 82.500000
      vertex -20.052026 4.262190 82.500000
    endloop
  endfacet
  facet normal -0.000000 0.000000 -1.000000
    outer loop
      vertex -16.900591 7.524628 80.500000
      vertex -14.966814 10.874027 80.500000
      vertex -18.095731 3.846366 80.500000
    endloop
  endfacet
  facet normal 0.000000 0.000000 -1.000000
    outer loop
      vertex -18.095731 3.846366 80.500000
      vertex -14.966814 10.874027 80.500000
      vertex -12.378916 13.748179 80.500000
    endloop
  endfacet
  facet normal 0.000000 0.000000 -1.000000
    outer loop
      vertex -18.095731 3.846366 80.500000
      vertex -12.378916 13.748179 80.500000
      vertex -9.250000 16.021470 80.500000
    endloop
  endfacet
  facet normal 0.000000 0.000000 -1.000000
    outer loop
      vertex -18.095731 3.846366 80.500000
      vertex -9.250000 16.021470 80.500000
      vertex -5.716814 17.594546 80.500000
    endloop
  endfacet
  facet normal 0.000000 0.000000 -1.000000
    outer loop
      vertex -18.095731 3.846366 80.500000
      vertex -5.716814 17.594546 80.500000
      vertex -1.933777 18.398655 80.500000
    endloop
  endfacet
  facet normal 0.000000 0.000000 -1.000000
    outer loop
      vertex -18.095731 3.846366 80.500000
      vertex -1.933777 18.398655 80.500000
      vertex 1.933777 18.398655 80.500000
    endloop
  endfacet
  facet normal 0.000000 0.000000 -1.000000
    outer loop
      vertex -18.095731 3.846366 80.500000
      vertex 1.933777 18.398655 80.500000
      vertex 5.716814 17.594546 80.500000
    endloop
  endfacet
  facet normal 0.000000 0.000000 -1.000000
    outer loop
      vertex -18.095731 3.846366 80.500000
      vertex 5.716814 17.594546 80.500000
      vertex 9.250000 16.021470 80.500000
    endloop
  endfacet
  facet normal 0.000000 0.000000 -1.000000
    outer loop
      vertex -18.095731 3.846366 80.500000
      vertex 9.250000 16.021470 80.500000
      vertex 12.378916 13.748179 80.500000
    endloop
  endfacet
  facet normal 0.000000 0.000000 -1.000000
    outer loop
      vertex -18.095731 3.846366 80.500000
      vertex 12.378916 13.748179 80.500000
      vertex 14.966814 10.874027 80.500000
    endloop
  endfacet
  facet normal 0.000000 0.000000 -1.000000
    outer loop
      vertex -18.095731 3.846366 80.500000
      vertex 14.966814 10.874027 80.500000
      vertex 16.900591 7.524628 80.500000
    endloop
  endfacet
  facet normal -0.000000 0.000000 -1.000000
    outer loop
      vertex -18.095731 3.846366 80.500000
      vertex 16.900591 7.524628 80.500000
      vertex 18.095731 3.846366 80.500000
    endloop
  endfacet
  facet normal 0.000000 0.000000 -1.000000
    outer loop
      vertex -18.095731 3.846366 80.500000
      vertex 18.095731 3.846366 80.500000
      vertex 18.500000 0.000000 80.500000
    endloop
  endfacet
  facet normal 0.000000 0.000000 -1.000000
    outer loop
      vertex -18.095731 3.846366 80.500000
      vertex 18.500000 0.000000 80.500000
      vertex 18.095731 -3.846366 80.500000
    endloop
  endfacet
  facet normal 0.000000 0.000000 -1.000000
    outer loop
      vertex -18.095731 3.846366 80.500000
      vertex 18.095731 -3.846366 80.500000
      vertex 16.900591 -7.524628 80.500000
    endloop
  endfacet
  facet normal 0.000000 0.000000 -1.000000
    outer loop
      vertex -18.095731 3.846366 80.500000
      vertex 16.900591 -7.524628 80.500000
      vertex 14.966814 -10.874027 80.500000
    endloop
  endfacet
  facet normal 0.000000 0.000000 -1.000000
    outer loop
      vertex -18.095731 3.846366 80.500000
      vertex 14.966814 -10.874027 80.500000
      vertex 12.378916 -13.748179 80.500000
    endloop
  endfacet
  facet normal 0.000000 0.000000 -1.000000
    outer loop
      vertex -18.095731 3.846366 80.500000
      vertex 12.378916 -13.748179 80.500000
      vertex 9.250000 -16.021470 80.500000
    endloop
  endfacet
  facet normal 0.000000 0.000000 -1.000000
    outer loop
      vertex -18.095731 3.846366 80.500000
      vertex 9.250000 -16.021470 80.500000
      vertex 5.716814 -17.594546 80.500000
    endloop
  endfacet
  facet normal 0.000000 0.000000 -1.000000
    outer loop
      vertex -18.095731 3.846366 80.500000
      vertex 5.716814 -17.594546 80.500000
      vertex 1.933777 -18.398655 80.500000
    endloop
  endfacet
  facet normal 0.000000 0.000000 -1.000000
    outer loop
      vertex -18.095731 3.846366 80.500000
      vertex 1.933777 -18.398655 80.500000
      vertex -1.933777 -18.398655 80.500000
    endloop
  endfacet
  facet normal 0.000000 0.000000 -1.000000
    outer loop
      vertex -18.095731 3.846366 80.500000
      vertex -1.933777 -18.398655 80.500000
      vertex -5.716814 -17.594546 80.500000
    endloop
  endfacet
  facet normal 0.000000 0.000000 -1.000000
    outer loop
      vertex -18.095731 3.846366 80.500000
      vertex -5.716814 -17.594546 80.500000
      vertex -9.250000 -16.021470 80.500000
    endloop
  endfacet
  facet normal 0.000000 0.000000 -1.000000
    outer loop
      vertex -18.095731 3.846366 80.500000
      vertex -9.250000 -16.021470 80.500000
      vertex -12.378916 -13.748179 80.500000
    endloop
  endfacet
  facet normal 0.000000 0.000000 -1.000000
    outer loop
      vertex -18.095731 3.846366 80.500000
      vertex -12.378916 -13.748179 80.500000
      vertex -14.966814 -10.874027 80.500000
    endloop
  endfacet
  facet normal 0.000000 0.000000 -1.000000
    outer loop
      vertex -18.095731 3.846366 80.500000
      vertex -14.966814 -10.874027 80.500000
      vertex -16.900591 -7.524628 80.500000
    endloop
  endfacet
  facet normal 0.000000 0.000000 -1.000000
    outer loop
      vertex -18.095731 3.846366 80.500000
      vertex -16.900591 -7.524628 80.500000
      vertex -18.095731 -3.846366 80.500000
    endloop
  endfacet
  facet normal 0.000000 0.000000 -1.000000
    outer loop
      vertex -18.095731 3.846366 80.500000
      vertex -18.095731 -3.846366 80.500000
      vertex -18.500000 0.000000 80.500000
    endloop
  endfacet
  facet normal -0.994522 -0.104529 -0.000000
    outer loop
      vertex -12.000000 0.000000 82.500000
      vertex -11.737771 -2.494940 82.500000
      vertex -12.000000 0.000000 92.500000
    endloop
  endfacet
  facet normal -0.994522 -0.104529 0.000000
    outer loop
      vertex -12.000000 0.000000 92.500000
      vertex -11.737771 -2.494940 82.500000
      vertex -11.737771 -2.494940 92.500000
    endloop
  endfacet
  facet normal -0.951057 -0.309017 -0.000000
    outer loop
      vertex -11.737771 -2.494940 82.500000
      vertex -10.962545 -4.880840 82.500000
      vertex -11.737771 -2.494940 92.500000
    endloop
  endfacet
  facet normal -0.951057 -0.309017 0.000000
    outer loop
      vertex -11.737771 -2.494940 92.500000
      vertex -10.962545 -4.880840 82.500000
      vertex -10.962545 -4.880840 92.500000
    endloop
  endfacet
  facet normal -0.866025 -0.500000 -0.000000
    outer loop
      vertex -10.962545 -4.880840 82.500000
      vertex -9.708204 -7.053423 82.500000
      vertex -10.962545 -4.880840 92.500000
    endloop
  endfacet
  facet normal -0.866025 -0.500000 0.000000
    outer loop
      vertex -10.962545 -4.880840 92.500000
      vertex -9.708204 -7.053423 82.500000
      vertex -9.708204 -7.053423 92.500000
    endloop
  endfacet
  facet normal -0.743145 -0.669131 -0.000000
    outer loop
      vertex -9.708204 -7.053423 82.500000
      vertex -8.029567 -8.917738 82.500000
      vertex -9.708204 -7.053423 92.500000
    endloop
  endfacet
  facet normal -0.743145 -0.669131 0.000000
    outer loop
      vertex -9.708204 -7.053423 92.500000
      vertex -8.029567 -8.917738 82.500000
      vertex -8.029567 -8.917738 92.500000
    endloop
  endfacet
  facet normal -0.587785 -0.809017 0.000000
    outer loop
      vertex -8.029567 -8.917738 92.500000
      vertex -8.029567 -8.917738 82.500000
      vertex -6.000000 -10.392305 82.500000
    endloop
  endfacet
  facet normal -0.587785 -0.809017 0.000000
    outer loop
      vertex -6.000000 -10.392305 92.500000
      vertex -8.029567 -8.917738 92.500000
      vertex -6.000000 -10.392305 82.500000
    endloop
  endfacet
  facet normal -0.406737 -0.913546 0.000000
    outer loop
      vertex -6.000000 -10.392305 92.500000
      vertex -6.000000 -10.392305 82.500000
      vertex -3.708204 -11.412678 82.500000
    endloop
  endfacet
  facet normal -0.406737 -0.913546 0.000000
    outer loop
      vertex -3.708204 -11.412678 92.500000
      vertex -6.000000 -10.392305 92.500000
      vertex -3.708204 -11.412678 82.500000
    endloop
  endfacet
  facet normal -0.207912 -0.978148 0.000000
    outer loop
      vertex -3.708204 -11.412678 92.500000
      vertex -3.708204 -11.412678 82.500000
      vertex -1.254342 -11.934263 82.500000
    endloop
  endfacet
  facet normal -0.207912 -0.978148 0.000000
    outer loop
      vertex -1.254342 -11.934263 92.500000
      vertex -3.708204 -11.412678 92.500000
      vertex -1.254342 -11.934263 82.500000
    endloop
  endfacet
  facet normal 0.000000 -1.000000 0.000000
    outer loop
      vertex -1.254342 -11.934263 92.500000
      vertex -1.254342 -11.934263 82.500000
      vertex 1.254342 -11.934263 82.500000
    endloop
  endfacet
  facet normal 0.000000 -1.000000 0.000000
    outer loop
      vertex 1.254342 -11.934263 92.500000
      vertex -1.254342 -11.934263 92.500000
      vertex 1.254342 -11.934263 82.500000
    endloop
  endfacet
  facet normal 0.207912 -0.978148 0.000000
    outer loop
      vertex 1.254342 -11.934263 92.500000
      vertex 1.254342 -11.934263 82.500000
      vertex 3.708204 -11.412678 82.500000
    endloop
  endfacet
  facet normal 0.207912 -0.978148 0.000000
    outer loop
      vertex 3.708204 -11.412678 92.500000
      vertex 1.254342 -11.934263 92.500000
      vertex 3.708204 -11.412678 82.500000
    endloop
  endfacet
  facet normal 0.406737 -0.913546 0.000000
    outer loop
      vertex 3.708204 -11.412678 92.500000
      vertex 3.708204 -11.412678 82.500000
      vertex 6.000000 -10.392305 82.500000
    endloop
  endfacet
  facet normal 0.406737 -0.913546 0.000000
    outer loop
      vertex 6.000000 -10.392305 92.500000
      vertex 3.708204 -11.412678 92.500000
      vertex 6.000000 -10.392305 82.500000
    endloop
  endfacet
  facet normal 0.587785 -0.809017 0.000000
    outer loop
      vertex 6.000000 -10.392305 92.500000
      vertex 6.000000 -10.392305 82.500000
      vertex 8.029567 -8.917738 82.500000
    endloop
  endfacet
  facet normal 0.587785 -0.809017 0.000000
    outer loop
      vertex 8.029567 -8.917738 92.500000
      vertex 6.000000 -10.392305 92.500000
      vertex 8.029567 -8.917738 82.500000
    endloop
  endfacet
  facet normal 0.743145 -0.669131 0.000000
    outer loop
      vertex 8.029567 -8.917738 92.500000
      vertex 8.029567 -8.917738 82.500000
      vertex 9.708204 -7.053423 82.500000
    endloop
  endfacet
  facet normal 0.743145 -0.669131 0.000000
    outer loop
      vertex 9.708204 -7.053423 92.500000
      vertex 8.029567 -8.917738 92.500000
      vertex 9.708204 -7.053423 82.500000
    endloop
  endfacet
  facet normal 0.866025 -0.500000 0.000000
    outer loop
      vertex 9.708204 -7.053423 92.500000
      vertex 9.708204 -7.053423 82.500000
      vertex 10.962545 -4.880840 82.500000
    endloop
  endfacet
  facet normal 0.866025 -0.500000 0.000000
    outer loop
      vertex 10.962545 -4.880840 92.500000
      vertex 9.708204 -7.053423 92.500000
      vertex 10.962545 -4.880840 82.500000
    endloop
  endfacet
  facet normal 0.951057 -0.309017 0.000000
    outer loop
      vertex 10.962545 -4.880840 92.500000
      vertex 10.962545 -4.880840 82.500000
      vertex 11.737771 -2.494940 82.500000
    endloop
  endfacet
  facet normal 0.951057 -0.309017 0.000000
    outer loop
      vertex 11.737771 -2.494940 92.500000
      vertex 10.962545 -4.880840 92.500000
      vertex 11.737771 -2.494940 82.500000
    endloop
  endfacet
  facet normal 0.994522 -0.104529 0.000000
    outer loop
      vertex 11.737771 -2.494940 92.500000
      vertex 11.737771 -2.494940 82.500000
      vertex 12.000000 0.000000 82.500000
    endloop
  endfacet
  facet normal 0.994522 -0.104529 0.000000
    outer loop
      vertex 12.000000 0.000000 92.500000
      vertex 11.737771 -2.494940 92.500000
      vertex 12.000000 0.000000 82.500000
    endloop
  endfacet
  facet normal 0.994522 0.104529 0.000000
    outer loop
      vertex 12.000000 0.000000 82.500000
      vertex 11.737771 2.494940 82.500000
      vertex 11.737771 2.494940 92.500000
    endloop
  endfacet
  facet normal 0.994522 0.104529 -0.000000
    outer loop
      vertex 12.000000 0.000000 92.500000
      vertex 12.000000 0.000000 82.500000
      vertex 11.737771 2.494940 92.500000
    endloop
  endfacet
  facet normal 0.951057 0.309017 0.000000
    outer loop
      vertex 11.737771 2.494940 82.500000
      vertex 10.962545 4.880840 82.500000
      vertex 10.962545 4.880840 92.500000
    endloop
  endfacet
  facet normal 0.951057 0.309017 -0.000000
    outer loop
      vertex 11.737771 2.494940 92.500000
      vertex 11.737771 2.494940 82.500000
      vertex 10.962545 4.880840 92.500000
    endloop
  endfacet
  facet normal 0.866025 0.500000 0.000000
    outer loop
      vertex 10.962545 4.880840 82.500000
      vertex 9.708204 7.053423 82.500000
      vertex 9.708204 7.053423 92.500000
    endloop
  endfacet
  facet normal 0.866025 0.500000 -0.000000
    outer loop
      vertex 10.962545 4.880840 92.500000
      vertex 10.962545 4.880840 82.500000
      vertex 9.708204 7.053423 92.500000
    endloop
  endfacet
  facet normal 0.743145 0.669131 0.000000
    outer loop
      vertex 9.708204 7.053423 82.500000
      vertex 8.029567 8.917738 82.500000
      vertex 8.029567 8.917738 92.500000
    endloop
  endfacet
  facet normal 0.743145 0.669131 -0.000000
    outer loop
      vertex 9.708204 7.053423 92.500000
      vertex 9.708204 7.053423 82.500000
      vertex 8.029567 8.917738 92.500000
    endloop
  endfacet
  facet normal 0.587785 0.809017 0.000000
    outer loop
      vertex 6.000000 10.392305 82.500000
      vertex 6.000000 10.392305 92.500000
      vertex 8.029567 8.917738 82.500000
    endloop
  endfacet
  facet normal 0.587785 0.809017 0.000000
    outer loop
      vertex 8.029567 8.917738 82.500000
      vertex 6.000000 10.392305 92.500000
      vertex 8.029567 8.917738 92.500000
    endloop
  endfacet
  facet normal 0.406737 0.913546 0.000000
    outer loop
      vertex 3.708204 11.412678 82.500000
      vertex 3.708204 11.412678 92.500000
      vertex 6.000000 10.392305 82.500000
    endloop
  endfacet
  facet normal 0.406737 0.913546 0.000000
    outer loop
      vertex 6.000000 10.392305 82.500000
      vertex 3.708204 11.412678 92.500000
      vertex 6.000000 10.392305 92.500000
    endloop
  endfacet
  facet normal 0.207912 0.978148 0.000000
    outer loop
      vertex 1.254342 11.934263 82.500000
      vertex 1.254342 11.934263 92.500000
      vertex 3.708204 11.412678 82.500000
    endloop
  endfacet
  facet normal 0.207912 0.978148 0.000000
    outer loop
      vertex 3.708204 11.412678 82.500000
      vertex 1.254342 11.934263 92.500000
      vertex 3.708204 11.412678 92.500000
    endloop
  endfacet
  facet normal 0.000000 1.000000 0.000000
    outer loop
      vertex -1.254342 11.934263 82.500000
      vertex -1.254342 11.934263 92.500000
      vertex 1.254342 11.934263 82.500000
    endloop
  endfacet
  facet normal 0.000000 1.000000 0.000000
    outer loop
      vertex 1.254342 11.934263 82.500000
      vertex -1.254342 11.934263 92.500000
      vertex 1.254342 11.934263 92.500000
    endloop
  endfacet
  facet normal -0.207912 0.978148 0.000000
    outer loop
      vertex -3.708204 11.412678 82.500000
      vertex -3.708204 11.412678 92.500000
      vertex -1.254342 11.934263 82.500000
    endloop
  endfacet
  facet normal -0.207912 0.978148 0.000000
    outer loop
      vertex -1.254342 11.934263 82.500000
      vertex -3.708204 11.412678 92.500000
      vertex -1.254342 11.934263 92.500000
    endloop
  endfacet
  facet normal -0.406737 0.913546 0.000000
    outer loop
      vertex -6.000000 10.392305 82.500000
      vertex -6.000000 10.392305 92.500000
      vertex -3.708204 11.412678 82.500000
    endloop
  endfacet
  facet normal -0.406737 0.913546 0.000000
    outer loop
      vertex -3.708204 11.412678 82.500000
      vertex -6.000000 10.392305 92.500000
      vertex -3.708204 11.412678 92.500000
    endloop
  endfacet
  facet normal -0.587785 0.809017 0.000000
    outer loop
      vertex -8.029567 8.917738 82.500000
      vertex -8.029567 8.917738 92.500000
      vertex -6.000000 10.392305 82.500000
    endloop
  endfacet
  facet normal -0.587785 0.809017 0.000000
    outer loop
      vertex -6.000000 10.392305 82.500000
      vertex -8.029567 8.917738 92.500000
      vertex -6.000000 10.392305 92.500000
    endloop
  endfacet
  facet normal -0.743145 0.669131 0.000000
    outer loop
      vertex -9.708204 7.053423 82.500000
      vertex -9.708204 7.053423 92.500000
      vertex -8.029567 8.917738 82.500000
    endloop
  endfacet
  facet normal -0.743145 0.669131 0.000000
    outer loop
      vertex -8.029567 8.917738 82.500000
      vertex -9.708204 7.053423 92.500000
      vertex -8.029567 8.917738 92.500000
    endloop
  endfacet
  facet normal -0.866025 0.500000 0.000000
    outer loop
      vertex -10.962545 4.880840 82.500000
      vertex -10.962545 4.880840 92.500000
      vertex -9.708204 7.053423 82.500000
    endloop
  endfacet
  facet normal -0.866025 0.500000 0.000000
    outer loop
      vertex -9.708204 7.053423 82.500000
      vertex -10.962545 4.880840 92.500000
      vertex -9.708204 7.053423 92.500000
    endloop
  endfacet
  facet normal -0.951057 0.309017 0.000000
    outer loop
      vertex -11.737771 2.494940 82.500000
      vertex -11.737771 2.494940 92.500000
      vertex -10.962545 4.880840 82.500000
    endloop
  endfacet
  facet normal -0.951057 0.309017 0.000000
    outer loop
      vertex -10.962545 4.880840 82.500000
      vertex -11.737771 2.494940 92.500000
      vertex -10.962545 4.880840 92.500000
    endloop
  endfacet
  facet normal -0.994522 0.104529 0.000000
    outer loop
      vertex -12.000000 0.000000 82.500000
      vertex -12.000000 0.000000 92.500000
      vertex -11.737771 2.494940 82.500000
    endloop
  endfacet
  facet normal -0.994522 0.104529 0.000000
    outer loop
      vertex -11.737771 2.494940 82.500000
      vertex -12.000000 0.000000 92.500000
      vertex -11.737771 2.494940 92.500000
    endloop
  endfacet
  facet normal 0.000000 0.000000 1.000000
    outer loop
      vertex -11.737771 2.494940 92.500000
      vertex -12.000000 0.000000 92.500000
      vertex -11.737771 -2.494940 92.500000
    endloop
  endfacet
  facet normal 0.000000 0.000000 1.000000
    outer loop
      vertex -9.708204 -7.053423 92.500000
      vertex -11.737771 2.494940 92.500000
      vertex -10.962545 -4.880840 92.500000
    endloop
  endfacet
  facet normal 0.000000 0.000000 1.000000
    outer loop
      vertex -10.962545 -4.880840 92.500000
      vertex -11.737771 2.494940 92.500000
      vertex -11.737771 -2.494940 92.500000
    endloop
  endfacet
  facet normal 0.000000 0.000000 1.000000
    outer loop
      vertex -8.029567 -8.917738 92.500000
      vertex -11.737771 2.494940 92.500000
      vertex -9.708204 -7.053423 92.500000
    endloop
  endfacet
  facet normal 0.000000 0.000000 1.000000
    outer loop
      vertex -6.000000 -10.392305 92.500000
      vertex -11.737771 2.494940 92.500000
      vertex -8.029567 -8.917738 92.500000
    endloop
  endfacet
  facet normal 0.000000 0.000000 1.000000
    outer loop
      vertex -3.708204 -11.412678 92.500000
      vertex -11.737771 2.494940 92.500000
      vertex -6.000000 -10.392305 92.500000
    endloop
  endfacet
  facet normal 0.000000 0.000000 1.000000
    outer loop
      vertex -1.254342 -11.934263 92.500000
      vertex -11.737771 2.494940 92.500000
      vertex -3.708204 -11.412678 92.500000
    endloop
  endfacet
  facet normal -0.000000 0.000000 1.000000
    outer loop
      vertex 1.254342 -11.934263 92.500000
      vertex -11.737771 2.494940 92.500000
      vertex -1.254342 -11.934263 92.500000
    endloop
  endfacet
  facet normal -0.000000 0.000000 1.000000
    outer loop
      vertex 3.708204 -11.412678 92.500000
      vertex -11.737771 2.494940 92.500000
      vertex 1.254342 -11.934263 92.500000
    endloop
  endfacet
  facet normal -0.000000 0.000000 1.000000
    outer loop
      vertex 6.000000 -10.392305 92.500000
      vertex -11.737771 2.494940 92.500000
      vertex 3.708204 -11.412678 92.500000
    endloop
  endfacet
  facet normal -0.000000 0.000000 1.000000
    outer loop
      vertex 8.029567 -8.917738 92.500000
      vertex -11.737771 2.494940 92.500000
      vertex 6.000000 -10.392305 92.500000
    endloop
  endfacet
  facet normal -0.000000 0.000000 1.000000
    outer loop
      vertex 9.708204 -7.053423 92.500000
      vertex -11.737771 2.494940 92.500000
      vertex 8.029567 -8.917738 92.500000
    endloop
  endfacet
  facet normal -0.000000 0.000000 1.000000
    outer loop
      vertex 10.962545 -4.880840 92.500000
      vertex -11.737771 2.494940 92.500000
      vertex 9.708204 -7.053423 92.500000
    endloop
  endfacet
  facet normal -0.000000 0.000000 1.000000
    outer loop
      vertex 11.737771 -2.494940 92.500000
      vertex -11.737771 2.494940 92.500000
      vertex 10.962545 -4.880840 92.500000
    endloop
  endfacet
  facet normal -0.000000 0.000000 1.000000
    outer loop
      vertex 12.000000 0.000000 92.500000
      vertex -11.737771 2.494940 92.500000
      vertex 11.737771 -2.494940 92.500000
    endloop
  endfacet
  facet normal 0.000000 -0.000000 1.000000
    outer loop
      vertex 11.737771 2.494940 92.500000
      vertex -11.737771 2.494940 92.500000
      vertex 12.000000 0.000000 92.500000
    endloop
  endfacet
  facet normal 0.000000 -0.000000 1.000000
    outer loop
      vertex 10.962545 4.880840 92.500000
      vertex -11.737771 2.494940 92.500000
      vertex 11.737771 2.494940 92.500000
    endloop
  endfacet
  facet normal 0.000000 -0.000000 1.000000
    outer loop
      vertex 9.708204 7.053423 92.500000
      vertex -11.737771 2.494940 92.500000
      vertex 10.962545 4.880840 92.500000
    endloop
  endfacet
  facet normal 0.000000 -0.000000 1.000000
    outer loop
      vertex 8.029567 8.917738 92.500000
      vertex -11.737771 2.494940 92.500000
      vertex 9.708204 7.053423 92.500000
    endloop
  endfacet
  facet normal 0.000000 -0.000000 1.000000
    outer loop
      vertex 6.000000 10.392305 92.500000
      vertex -11.737771 2.494940 92.500000
      vertex 8.029567 8.917738 92.500000
    endloop
  endfacet
  facet normal 0.000000 -0.000000 1.000000
    outer loop
      vertex 3.708204 11.412678 92.500000
      vertex -11.737771 2.494940 92.500000
      vertex 6.000000 10.392305 92.500000
    endloop
  endfacet
  facet normal 0.000000 -0.000000 1.000000
    outer loop
      vertex 1.254342 11.934263 92.500000
      vertex -11.737771 2.494940 92.500000
      vertex 3.708204 11.412678 92.500000
    endloop
  endfacet
  facet normal 0.000000 -0.000000 1.000000
    outer loop
      vertex -1.254342 11.934263 92.500000
      vertex -11.737771 2.494940 92.500000
      vertex 1.254342 11.934263 92.500000
    endloop
  endfacet
  facet normal 0.000000 -0.000000 1.000000
    outer loop
      vertex -3.708204 11.412678 92.500000
      vertex -11.737771 2.494940 92.500000
      vertex -1.254342 11.934263 92.500000
    endloop
  endfacet
  facet normal 0.000000 -0.000000 1.000000
    outer loop
      vertex -6.000000 10.392305 92.500000
      vertex -11.737771 2.494940 92.500000
      vertex -3.708204 11.412678 92.500000
    endloop
  endfacet
  facet normal 0.000000 -0.000000 1.000000
    outer loop
      vertex -8.029567 8.917738 92.500000
      vertex -11.737771 2.494940 92.500000
      vertex -6.000000 10.392305 92.500000
    endloop
  endfacet
  facet normal 0.000000 -0.000000 1.000000
    outer loop
      vertex -9.708204 7.053423 92.500000
      vertex -11.737771 2.494940 92.500000
      vertex -8.029567 8.917738 92.500000
    endloop
  endfacet
  facet normal 0.000000 -0.000000 1.000000
    outer loop
      vertex -10.962545 4.880840 92.500000
      vertex -11.737771 2.494940 92.500000
      vertex -9.708204 7.053423 92.500000
    endloop
  endfacet
endsolid
