999
dxflib 2.2.0.0
  0
SECTION
  2
HEADER
  9
$ACADVER
  1
AC1015
  9
$HANDSEED
  5
FFFF
  9
$DIMASZ
 40
2.5
  9
$PLIMMIN
 10
0.0
 20
0.0
  9
$DIMEXE
 40
1.25
  9
$DIMGAP
 40
0.625
  9
$PLIMMAX
 10
210.0
 20
297.0
  9
$INSUNITS
 70
4
  9
$DIMSTYLE
  2
Standard
  9
$CLAYER
  8
0
  9
$DIMEXO
 40
0.625
  9
$DIMTXT
 40
2.5
  9
$CLAYER
  8
0
  0
ENDSEC
  0
SECTION
  2
TABLES
  0
TABLE
  2
VPORT
  5
8
100
AcDbSymbolTable
 70
1
  0
VPORT
  5
30
100
AcDbSymbolTableRecord
100
AcDbViewportTableRecord
  2
*Active
 70
0
 10
0.0
 20
0.0
 11
1.0
 21
1.0
 12
286.3055555555554861
 22
148.5
 13
0.0
 23
0.0
 14
10.0
 24
10.0
 15
10.0
 25
10.0
 16
0.0
 26
0.0
 36
1.0
 17
0.0
 27
0.0
 37
0.0
 40
297.0
 41
1.92798353909465
 42
50.0
 43
0.0
 44
0.0
 50
0.0
 51
0.0
 71
0
 72
100
 73
1
 74
3
 75
1
 76
1
 77
0
 78
0
281
0
 65
1
110
0.0
120
0.0
130
0.0
111
1.0
121
0.0
131
0.0
112
0.0
122
1.0
132
0.0
 79
0
146
0.0
  0
ENDTAB
  0
TABLE
  2
LTYPE
  5
5
100
AcDbSymbolTable
 70
21
  0
LTYPE
  5
14
100
AcDbSymbolTableRecord
100
AcDbLinetypeTableRecord
  2
ByBlock
 70
0
  3

 72
65
 73
0
 40
0.0
  0
LTYPE
  5
15
100
AcDbSymbolTableRecord
100
AcDbLinetypeTableRecord
  2
ByLayer
 70
0
  3

 72
65
 73
0
 40
0.0
  0
LTYPE
  5
16
100
AcDbSymbolTableRecord
100
AcDbLinetypeTableRecord
  2
CONTINUOUS
 70
0
  3
Solid line
 72
65
 73
0
 40
0.0
  0
LTYPE
  5
31
100
AcDbSymbolTableRecord
100
AcDbLinetypeTableRecord
  2
DOT
 70
0
  3
Dot . . . . . . . . . . . . . . . . . . . . . .
 72
65
 73
2
 40
6.3499999999999996
 49
0.0
 74
0
 49
-6.3499999999999996
 74
0
  0
LTYPE
  5
32
100
AcDbSymbolTableRecord
100
AcDbLinetypeTableRecord
  2
DOT2
 70
0
  3
Dot (.5x) .....................................
 72
65
 73
2
 40
3.1749999999999998
 49
0.0
 74
0
 49
-3.1749999999999998
 74
0
  0
LTYPE
  5
33
100
AcDbSymbolTableRecord
100
AcDbLinetypeTableRecord
  2
DOTX2
 70
0
  3
Dot (2x) .  .  .  .  .  .  .  .  .  .  .  .  .
 72
65
 73
2
 40
12.6999999999999993
 49
0.0
 74
0
 49
-12.6999999999999993
 74
0
  0
LTYPE
  5
34
100
AcDbSymbolTableRecord
100
AcDbLinetypeTableRecord
  2
DASHED
 70
0
  3
Dashed __ __ __ __ __ __ __ __ __ __ __ __ __ _
 72
65
 73
2
 40
19.0500000000000007
 49
12.6999999999999993
 74
0
 49
-6.3499999999999996
 74
0
  0
LTYPE
  5
35
100
AcDbSymbolTableRecord
100
AcDbLinetypeTableRecord
  2
DASHED2
 70
0
  3
Dashed (.5x) _ _ _ _ _ _ _ _ _ _ _ _ _ _ _ _ _
 72
65
 73
2
 40
9.5250000000000004
 49
6.3499999999999996
 74
0
 49
-3.1749999999999998
 74
0
  0
LTYPE
  5
36
100
AcDbSymbolTableRecord
100
AcDbLinetypeTableRecord
  2
DASHEDX2
 70
0
  3
Dashed (2x) ____  ____  ____  ____  ____  ___
 72
65
 73
2
 40
38.1000000000000014
 49
25.3999999999999986
 74
0
 49
-12.6999999999999993
 74
0
  0
LTYPE
  5
37
100
AcDbSymbolTableRecord
100
AcDbLinetypeTableRecord
  2
DASHDOT
 70
0
  3
Dash dot __ . __ . __ . __ . __ . __ . __ . __
 72
65
 73
4
 40
25.3999999999999986
 49
12.6999999999999993
 74
0
 49
-6.3499999999999996
 74
0
 49
0.0
 74
0
 49
-6.3499999999999996
 74
0
  0
LTYPE
  5
38
100
AcDbSymbolTableRecord
100
AcDbLinetypeTableRecord
  2
DASHDOT2
 70
0
  3
Dash dot (.5x) _._._._._._._._._._._._._._._.
 72
65
 73
4
 40
12.6999999999999993
 49
6.3499999999999996
 74
0
 49
-3.1749999999999998
 74
0
 49
0.0
 74
0
 49
-3.1749999999999998
 74
0
  0
LTYPE
  5
39
100
AcDbSymbolTableRecord
100
AcDbLinetypeTableRecord
  2
DASHDOTX2
 70
0
  3
Dash dot (2x) ____  .  ____  .  ____  .  ___
 72
65
 73
4
 40
50.7999999999999972
 49
25.3999999999999986
 74
0
 49
-12.6999999999999993
 74
0
 49
0.0
 74
0
 49
-12.6999999999999993
 74
0
  0
LTYPE
  5
3A
100
AcDbSymbolTableRecord
100
AcDbLinetypeTableRecord
  2
DIVIDE
 70
0
  3
Divide ____ . . ____ . . ____ . . ____ . . ____
 72
65
 73
6
 40
31.75
 49
12.6999999999999993
 74
0
 49
-6.3499999999999996
 74
0
 49
0.0
 74
0
 49
-6.3499999999999996
 74
0
 49
0.0
 74
0
 49
-6.3499999999999996
 74
0
  0
LTYPE
  5
3B
100
AcDbSymbolTableRecord
100
AcDbLinetypeTableRecord
  2
DIVIDE2
 70
0
  3
Divide (.5x) __..__..__..__..__..__..__..__.._
 72
65
 73
6
 40
15.875
 49
6.3499999999999996
 74
0
 49
-3.1749999999999998
 74
0
 49
0.0
 74
0
 49
-3.1749999999999998
 74
0
 49
0.0
 74
0
 49
-3.1749999999999998
 74
0
  0
LTYPE
  5
3C
100
AcDbSymbolTableRecord
100
AcDbLinetypeTableRecord
  2
DIVIDEX2
 70
0
  3
Divide (2x) ________  .  .  ________  .  .  _
 72
65
 73
6
 40
63.5
 49
25.3999999999999986
 74
0
 49
-12.6999999999999993
 74
0
 49
0.0
 74
0
 49
-12.6999999999999993
 74
0
 49
0.0
 74
0
 49
-12.6999999999999993
 74
0
  0
LTYPE
  5
3D
100
AcDbSymbolTableRecord
100
AcDbLinetypeTableRecord
  2
CENTER
 70
0
  3
Center ____ _ ____ _ ____ _ ____ _ ____ _ ____
 72
65
 73
4
 40
50.7999999999999972
 49
31.75
 74
0
 49
-6.3499999999999996
 74
0
 49
6.3499999999999996
 74
0
 49
-6.3499999999999996
 74
0
  0
LTYPE
  5
3E
100
AcDbSymbolTableRecord
100
AcDbLinetypeTableRecord
  2
CENTER2
 70
0
  3
Center (.5x) ___ _ ___ _ ___ _ ___ _ ___ _ ___
 72
65
 73
4
 40
28.5749999999999993
 49
19.0500000000000007
 74
0
 49
-3.1749999999999998
 74
0
 49
3.1749999999999998
 74
0
 49
-3.1749999999999998
 74
0
  0
LTYPE
  5
3F
100
AcDbSymbolTableRecord
100
AcDbLinetypeTableRecord
  2
CENTERX2
 70
0
  3
Center (2x) ________  __  ________  __  _____
 72
65
 73
4
 40
101.5999999999999943
 49
63.5
 74
0
 49
-12.6999999999999993
 74
0
 49
12.6999999999999993
 74
0
 49
-12.6999999999999993
 74
0
  0
LTYPE
  5
40
100
AcDbSymbolTableRecord
100
AcDbLinetypeTableRecord
  2
BORDER
 70
0
  3
Border __ __ . __ __ . __ __ . __ __ . __ __ .
 72
65
 73
6
 40
44.4500000000000028
 49
12.6999999999999993
 74
0
 49
-6.3499999999999996
 74
0
 49
12.6999999999999993
 74
0
 49
-6.3499999999999996
 74
0
 49
0.0
 74
0
 49
-6.3499999999999996
 74
0
  0
LTYPE
  5
41
100
AcDbSymbolTableRecord
100
AcDbLinetypeTableRecord
  2
BORDER2
 70
0
  3
Border (.5x) __.__.__.__.__.__.__.__.__.__.__.
 72
65
 73
6
 40
22.2250000000000014
 49
6.3499999999999996
 74
0
 49
-3.1749999999999998
 74
0
 49
6.3499999999999996
 74
0
 49
-3.1749999999999998
 74
0
 49
0.0
 74
0
 49
-3.1749999999999998
 74
0
  0
LTYPE
  5
42
100
AcDbSymbolTableRecord
100
AcDbLinetypeTableRecord
  2
BORDERX2
 70
0
  3
Border (2x) ____  ____  .  ____  ____  .  ___
 72
65
 73
6
 40
88.9000000000000057
 49
25.3999999999999986
 74
0
 49
-12.6999999999999993
 74
0
 49
25.3999999999999986
 74
0
 49
-12.6999999999999993
 74
0
 49
0.0
 74
0
 49
-12.6999999999999993
 74
0
  0
ENDTAB
  0
TABLE
  2
LAYER
  5
2
100
AcDbSymbolTable
 70
10
  0
LAYER
  5
10
100
AcDbSymbolTableRecord
100
AcDbLayerTableRecord
  2
0
 70
0
 62
7
420
0
  6
CONTINUOUS
370
0
390
F
  0
LAYER
  5
43
100
AcDbSymbolTableRecord
100
AcDbLayerTableRecord
  2
drawings
 70
1
 62
-5
420
255
  6
CONTINUOUS
370
0
390
F
  0
LAYER
  5
44
100
AcDbSymbolTableRecord
100
AcDbLayerTableRecord
  2
screw-assembly
 70
1
 62
-3
420
65280
  6
CONTINUOUS
370
0
390
F
  0
LAYER
  5
45
100
AcDbSymbolTableRecord
100
AcDbLayerTableRecord
  2
Bearing Housing
 70
0
 62
7
420
0
  6
CONTINUOUS
370
0
390
F
  0
LAYER
  5
46
100
AcDbSymbolTableRecord
100
AcDbLayerTableRecord
  2
drawings2
 70
1
 62
-7
420
0
  6
CONTINUOUS
370
0
390
F
  0
LAYER
  5
47
100
AcDbSymbolTableRecord
100
AcDbLayerTableRecord
  2
screw-lines
 70
1
 62
-2
420
16776960
  6
CONTINUOUS
370
0
390
F
  0
LAYER
  5
48
100
AcDbSymbolTableRecord
100
AcDbLayerTableRecord
  2
Front Plate
 70
0
 62
7
420
0
  6
CONTINUOUS
370
0
390
F
  0
LAYER
  5
49
100
AcDbSymbolTableRecord
100
AcDbLayerTableRecord
  2
Insulator Retainer
 70
0
 62
7
420
0
  6
CONTINUOUS
370
0
390
F
  0
LAYER
  5
4A
100
AcDbSymbolTableRecord
100
AcDbLayerTableRecord
  2
Bearing Retainer
 70
0
 62
7
420
0
  6
CONTINUOUS
370
0
390
F
  0
LAYER
  5
4B
100
AcDbSymbolTableRecord
100
AcDbLayerTableRecord
  2
Left Plate
 70
0
 62
7
420
0
  6
CONTINUOUS
370
0
390
F
  0
ENDTAB
  0
TABLE
  2
STYLE
  5
3
100
AcDbSymbolTable
 70
1
  0
STYLE
  5
11
100
AcDbSymbolTableRecord
100
AcDbTextStyleTableRecord
  2
Standard
 70
0
 40
0.0
 41
0.75
 50
0.0
 71
0
 42
2.5
  3
txt
  4

  0
ENDTAB
  0
TABLE
  2
VIEW
  5
6
100
AcDbSymbolTable
 70
0
  0
ENDTAB
  0
TABLE
  2
UCS
  5
7
100
AcDbSymbolTable
 70
0
  0
ENDTAB
  0
TABLE
  2
APPID
  5
9
100
AcDbSymbolTable
 70
1
  0
APPID
  5
12
100
AcDbSymbolTableRecord
100
AcDbRegAppTableRecord
  2
ACAD
 70
0
  0
ENDTAB
  0
TABLE
  2
DIMSTYLE
  5
A
100
AcDbSymbolTable
 70
1
100
AcDbDimStyleTable
 71
0
  0
DIMSTYLE
105
27
100
AcDbSymbolTableRecord
100
AcDbDimStyleTableRecord
  2
Standard
 41
2.5
 42
0.625
 43
3.75
 44
1.25
 70
0
 73
0
 74
0
 77
1
 78
8
140
2.5
141
2.5
143
0.03937007874016
147
0.625
171
3
172
1
271
2
272
2
274
3
278
44
283
0
284
8
340
11
  0
ENDTAB
  0
TABLE
  2
BLOCK_RECORD
  5
1
100
AcDbSymbolTable
 70
1
  0
BLOCK_RECORD
  5
1F
100
AcDbSymbolTableRecord
100
AcDbBlockTableRecord
  2
*Model_Space
340
22
  0
BLOCK_RECORD
  5
1B
100
AcDbSymbolTableRecord
100
AcDbBlockTableRecord
  2
*Paper_Space
340
1E
  0
BLOCK_RECORD
  5
23
100
AcDbSymbolTableRecord
100
AcDbBlockTableRecord
  2
*Paper_Space0
340
26
  0
ENDTAB
  0
ENDSEC
  0
SECTION
  2
BLOCKS
  0
BLOCK
  5
20
100
AcDbEntity
  8
0
100
AcDbBlockBegin
  2
*Model_Space
 70
0
 10
0.0
 20
0.0
 30
0.0
  3
*Model_Space
  1

  0
ENDBLK
  5
21
100
AcDbEntity
  8
0
100
AcDbBlockEnd
  0
BLOCK
  5
1C
100
AcDbEntity
 67
1
  8
0
100
AcDbBlockBegin
  2
*Paper_Space
 70
0
 10
0.0
 20
0.0
 30
0.0
  3
*Paper_Space
  1

  0
ENDBLK
  5
1D
100
AcDbEntity
 67
1
  8
0
100
AcDbBlockEnd
  0
BLOCK
  5
24
100
AcDbEntity
  8
0
100
AcDbBlockBegin
  2
*Paper_Space0
 70
0
 10
0.0
 20
0.0
 30
0.0
  3
*Paper_Space0
  1

  0
ENDBLK
  5
25
100
AcDbEntity
  8
0
100
AcDbBlockEnd
  0
ENDSEC
  0
SECTION
  2
ENTITIES
  0
LINE
  5
4C
100
AcDbEntity
100
AcDbLine
  8
screw-assembly
 62
256
370
-1
  6
ByLayer
 10
-9.0000000000000018
 20
-14.9999999999999858
 30
0.0
 11
-9.0000000000000018
 21
-19.9999999999999858
 31
0.0
  0
LINE
  5
4D
100
AcDbEntity
100
AcDbLine
  8
screw-assembly
 62
256
370
-1
  6
ByLayer
 10
-9.0000000000000018
 20
-19.9999999999999858
 30
0.0
 11
-13.5000000000000018
 21
-19.9999999999999893
 31
0.0
  0
LINE
  5
4E
100
AcDbEntity
100
AcDbLine
  8
screw-assembly
 62
256
370
-1
  6
ByLayer
 10
-13.5000000000000018
 20
-19.9999999999999893
 30
0.0
 11
-13.5000000000000018
 21
-14.9999999999999858
 31
0.0
  0
LINE
  5
4F
100
AcDbEntity
100
AcDbLine
  8
screw-assembly
 62
256
370
-1
  6
ByLayer
 10
-13.5000000000000018
 20
7.0000000000000142
 30
0.0
 11
-13.5000000000000018
 21
10.0000000000000142
 31
0.0
  0
LINE
  5
50
100
AcDbEntity
100
AcDbLine
  8
screw-assembly
 62
256
370
-1
  6
ByLayer
 10
-13.5000000000000018
 20
7.0000000000000142
 30
0.0
 11
-12.0000000000000018
 21
7.0000000000000142
 31
0.0
  0
LINE
  5
51
100
AcDbEntity
100
AcDbLine
  8
screw-assembly
 62
256
370
-1
  6
ByLayer
 10
-12.0000000000000018
 20
0.0000000000000142
 30
0.0
 11
-12.0000000000000018
 21
7.0000000000000142
 31
0.0
  0
LINE
  5
52
100
AcDbEntity
100
AcDbLine
  8
screw-assembly
 62
256
370
-1
  6
ByLayer
 10
-14.5000000000000018
 20
7.0000000000000142
 30
0.0
 11
-14.5000000000000018
 21
10.0000000000000142
 31
0.0
  0
LINE
  5
53
100
AcDbEntity
100
AcDbLine
  8
screw-assembly
 62
256
370
-1
  6
ByLayer
 10
-14.5000000000000018
 20
7.0000000000000142
 30
0.0
 11
-13.5000000000000018
 21
7.0000000000000142
 31
0.0
  0
LINE
  5
54
100
AcDbEntity
100
AcDbLine
  8
screw-assembly
 62
256
370
-1
  6
ByLayer
 10
-14.5000000000000018
 20
10.0000000000000142
 30
0.0
 11
-13.5000000000000018
 21
10.0000000000000142
 31
0.0
  0
LINE
  5
55
100
AcDbEntity
100
AcDbLine
  8
screw-assembly
 62
256
370
-1
  6
ByLayer
 10
-13.500000000000016
 20
15.0000000000000142
 30
0.0
 11
-9.000000000000016
 21
15.0000000000000142
 31
0.0
  0
LINE
  5
56
100
AcDbEntity
100
AcDbLine
  8
screw-assembly
 62
256
370
-1
  6
ByLayer
 10
-13.500000000000016
 20
15.0000000000000142
 30
0.0
 11
-13.5000000000000018
 21
10.0000000000000142
 31
0.0
  0
LINE
  5
57
100
AcDbEntity
100
AcDbLine
  8
screw-assembly
 62
256
370
-1
  6
ByLayer
 10
-5.0000000000000018
 20
-14.9999999999999858
 30
0.0
 11
-5.000000000000016
 21
-19.9999999999999858
 31
0.0
  0
LINE
  5
58
100
AcDbEntity
100
AcDbLine
  8
screw-assembly
 62
256
370
-1
  6
ByLayer
 10
-5.000000000000016
 20
-19.9999999999999858
 30
0.0
 11
-0.5000000000000302
 21
-19.9999999999999893
 31
0.0
  0
LINE
  5
59
100
AcDbEntity
100
AcDbLine
  8
screw-assembly
 62
256
370
-1
  6
ByLayer
 10
-0.5000000000000302
 20
-19.9999999999999893
 30
0.0
 11
-0.5000000000000018
 21
-14.9999999999999893
 31
0.0
  0
LINE
  5
5A
100
AcDbEntity
100
AcDbLine
  8
screw-assembly
 62
256
370
-1
  6
ByLayer
 10
-2.0000000000000018
 20
0.0000000000000107
 30
0.0
 11
-2.0000000000000018
 21
7.0000000000000142
 31
0.0
  0
LINE
  5
5B
100
AcDbEntity
100
AcDbLine
  8
screw-assembly
 62
256
370
-1
  6
ByLayer
 10
-0.4999999999999876
 20
15.0000000000000142
 30
0.0
 11
-4.9999999999999734
 21
15.0000000000000142
 31
0.0
  0
LINE
  5
5C
100
AcDbEntity
100
AcDbLine
  8
screw-assembly
 62
256
370
-1
  6
ByLayer
 10
-0.4999999999999876
 20
15.0000000000000142
 30
0.0
 11
-0.4999999999999876
 21
10.0000000000000142
 31
0.0
  0
LINE
  5
5D
100
AcDbEntity
100
AcDbLine
  8
screw-assembly
 62
256
370
-1
  6
ByLayer
 10
-14.0000000000000018
 20
-14.9999999999999858
 30
0.0
 11
-14.0000000000000018
 21
0.0000000000000142
 31
0.0
  0
LINE
  5
5E
100
AcDbEntity
100
AcDbLine
  8
screw-assembly
 62
256
370
-1
  6
ByLayer
 10
-0.0000000000000018
 20
-14.9999999999999893
 30
0.0
 11
-0.0000000000000018
 21
0.0000000000000142
 31
0.0
  0
LINE
  5
5F
100
AcDbEntity
100
AcDbLine
  8
screw-assembly
 62
256
370
-1
  6
ByLayer
 10
-9.0000000000000018
 20
-19.9999999999999858
 30
0.0
 11
-9.0000000000000018
 21
-14.9999999999999858
 31
0.0
  0
LINE
  5
60
100
AcDbEntity
100
AcDbLine
  8
screw-assembly
 62
256
370
-1
  6
ByLayer
 10
-5.000000000000016
 20
-19.9999999999999858
 30
0.0
 11
-5.0000000000000018
 21
-14.9999999999999858
 31
0.0
  0
LINE
  5
61
100
AcDbEntity
100
AcDbLine
  8
screw-assembly
 62
256
370
-1
  6
ByLayer
 10
-5.000000000000016
 20
30.0000000000000142
 30
0.0
 11
-6.9999999999999876
 21
30.0000000000000142
 31
0.0
  0
LINE
  5
62
100
AcDbEntity
100
AcDbLine
  8
screw-assembly
 62
256
370
-1
  6
ByLayer
 10
-8.9999999999999734
 20
30.0000000000000142
 30
0.0
 11
-6.9999999999999876
 21
30.0000000000000142
 31
0.0
  0
LINE
  5
63
100
AcDbEntity
100
AcDbLine
  8
screw-assembly
 62
256
370
-1
  6
ByLayer
 10
-9.0000000000000018
 20
-14.9999999999999858
 30
0.0
 11
-5.0000000000000018
 21
-14.9999999999999858
 31
0.0
  0
LINE
  5
64
100
AcDbEntity
100
AcDbLine
  8
screw-assembly
 62
256
370
-1
  6
ByLayer
 10
4.9999999999999982
 20
-14.9999999999999858
 30
0.0
 11
4.9999999999999982
 21
-19.9999999999999858
 31
0.0
  0
LINE
  5
65
100
AcDbEntity
100
AcDbLine
  8
screw-assembly
 62
256
370
-1
  6
ByLayer
 10
4.9999999999999982
 20
-19.9999999999999858
 30
0.0
 11
0.4999999999999982
 21
-19.9999999999999893
 31
0.0
  0
LINE
  5
66
100
AcDbEntity
100
AcDbLine
  8
screw-assembly
 62
256
370
-1
  6
ByLayer
 10
0.4999999999999982
 20
-19.9999999999999893
 30
0.0
 11
0.4999999999999982
 21
-14.9999999999999858
 31
0.0
  0
LINE
  5
67
100
AcDbEntity
100
AcDbLine
  8
screw-assembly
 62
256
370
-1
  6
ByLayer
 10
1.9999999999999982
 20
0.0000000000000142
 30
0.0
 11
1.9999999999999982
 21
7.0000000000000142
 31
0.0
  0
LINE
  5
68
100
AcDbEntity
100
AcDbLine
  8
screw-assembly
 62
256
370
-1
  6
ByLayer
 10
0.499999999999984
 20
15.0000000000000142
 30
0.0
 11
4.999999999999984
 21
15.0000000000000142
 31
0.0
  0
LINE
  5
69
100
AcDbEntity
100
AcDbLine
  8
screw-assembly
 62
256
370
-1
  6
ByLayer
 10
0.499999999999984
 20
15.0000000000000142
 30
0.0
 11
0.4999999999999982
 21
10.0000000000000142
 31
0.0
  0
LINE
  5
6A
100
AcDbEntity
100
AcDbLine
  8
screw-assembly
 62
256
370
-1
  6
ByLayer
 10
8.9999999999999982
 20
-14.9999999999999858
 30
0.0
 11
8.999999999999984
 21
-19.9999999999999858
 31
0.0
  0
LINE
  5
6B
100
AcDbEntity
100
AcDbLine
  8
screw-assembly
 62
256
370
-1
  6
ByLayer
 10
8.999999999999984
 20
-19.9999999999999858
 30
0.0
 11
13.4999999999999698
 21
-19.9999999999999893
 31
0.0
  0
LINE
  5
6C
100
AcDbEntity
100
AcDbLine
  8
screw-assembly
 62
256
370
-1
  6
ByLayer
 10
13.4999999999999698
 20
-19.9999999999999893
 30
0.0
 11
13.4999999999999982
 21
-14.9999999999999893
 31
0.0
  0
LINE
  5
6D
100
AcDbEntity
100
AcDbLine
  8
screw-assembly
 62
256
370
-1
  6
ByLayer
 10
13.4999999999999982
 20
7.0000000000000142
 30
0.0
 11
13.5000000000000124
 21
10.0000000000000142
 31
0.0
  0
LINE
  5
6E
100
AcDbEntity
100
AcDbLine
  8
screw-assembly
 62
256
370
-1
  6
ByLayer
 10
13.4999999999999982
 20
7.0000000000000142
 30
0.0
 11
11.9999999999999982
 21
7.0000000000000142
 31
0.0
  0
LINE
  5
6F
100
AcDbEntity
100
AcDbLine
  8
screw-assembly
 62
256
370
-1
  6
ByLayer
 10
11.9999999999999982
 20
0.0000000000000107
 30
0.0
 11
11.9999999999999982
 21
7.0000000000000142
 31
0.0
  0
LINE
  5
70
100
AcDbEntity
100
AcDbLine
  8
screw-assembly
 62
256
370
-1
  6
ByLayer
 10
14.5000000000000124
 20
7.0000000000000107
 30
0.0
 11
14.5000000000000124
 21
10.0000000000000107
 31
0.0
  0
LINE
  5
71
100
AcDbEntity
100
AcDbLine
  8
screw-assembly
 62
256
370
-1
  6
ByLayer
 10
14.5000000000000124
 20
7.0000000000000107
 30
0.0
 11
13.4999999999999982
 21
7.0000000000000142
 31
0.0
  0
LINE
  5
72
100
AcDbEntity
100
AcDbLine
  8
screw-assembly
 62
256
370
-1
  6
ByLayer
 10
14.5000000000000124
 20
10.0000000000000107
 30
0.0
 11
13.5000000000000124
 21
10.0000000000000142
 31
0.0
  0
LINE
  5
73
100
AcDbEntity
100
AcDbLine
  8
screw-assembly
 62
256
370
-1
  6
ByLayer
 10
13.5000000000000124
 20
15.0000000000000142
 30
0.0
 11
9.0000000000000266
 21
15.0000000000000142
 31
0.0
  0
LINE
  5
74
100
AcDbEntity
100
AcDbLine
  8
screw-assembly
 62
256
370
-1
  6
ByLayer
 10
13.5000000000000124
 20
15.0000000000000142
 30
0.0
 11
13.5000000000000124
 21
10.0000000000000142
 31
0.0
  0
LINE
  5
75
100
AcDbEntity
100
AcDbLine
  8
screw-assembly
 62
256
370
-1
  6
ByLayer
 10
4.9999999999999982
 20
-14.9999999999999858
 30
0.0
 11
-0.0000000000000018
 21
-14.9999999999999858
 31
0.0
  0
LINE
  5
76
100
AcDbEntity
100
AcDbLine
  8
screw-assembly
 62
256
370
-1
  6
ByLayer
 10
-0.0000000000000018
 20
-14.9999999999999858
 30
0.0
 11
-0.0000000000000018
 21
0.0000000000000142
 31
0.0
  0
LINE
  5
77
100
AcDbEntity
100
AcDbLine
  8
screw-assembly
 62
256
370
-1
  6
ByLayer
 10
8.9999999999999982
 20
-14.9999999999999858
 30
0.0
 11
13.9999999999999982
 21
-14.9999999999999893
 31
0.0
  0
LINE
  5
78
100
AcDbEntity
100
AcDbLine
  8
screw-assembly
 62
256
370
-1
  6
ByLayer
 10
13.9999999999999982
 20
-14.9999999999999893
 30
0.0
 11
13.9999999999999982
 21
0.0000000000000142
 31
0.0
  0
LINE
  5
79
100
AcDbEntity
100
AcDbLine
  8
screw-assembly
 62
256
370
-1
  6
ByLayer
 10
4.9999999999999982
 20
-19.9999999999999858
 30
0.0
 11
4.9999999999999982
 21
-14.9999999999999858
 31
0.0
  0
LINE
  5
7A
100
AcDbEntity
100
AcDbLine
  8
screw-assembly
 62
256
370
-1
  6
ByLayer
 10
8.999999999999984
 20
-19.9999999999999858
 30
0.0
 11
8.9999999999999982
 21
-14.9999999999999858
 31
0.0
  0
LINE
  5
7B
100
AcDbEntity
100
AcDbLine
  8
screw-assembly
 62
256
370
-1
  6
ByLayer
 10
8.999999999999984
 20
30.0000000000000142
 30
0.0
 11
7.0000000000000124
 21
30.0000000000000142
 31
0.0
  0
LINE
  5
7C
100
AcDbEntity
100
AcDbLine
  8
screw-assembly
 62
256
370
-1
  6
ByLayer
 10
5.0000000000000266
 20
30.0000000000000142
 30
0.0
 11
7.0000000000000124
 21
30.0000000000000142
 31
0.0
  0
LINE
  5
7D
100
AcDbEntity
100
AcDbLine
  8
screw-assembly
 62
256
370
-1
  6
ByLayer
 10
4.9999999999999982
 20
-14.9999999999999858
 30
0.0
 11
8.9999999999999982
 21
-14.9999999999999858
 31
0.0
  0
LINE
  5
7E
100
AcDbEntity
100
AcDbLine
  8
screw-assembly
 62
256
370
-1
  6
ByLayer
 10
-7.0000000000000018
 20
-19.9999999999999858
 30
0.0
 11
-7.0
 21
-14.9999999999999858
 31
0.0
  0
LINE
  5
7F
100
AcDbEntity
100
AcDbLine
  8
screw-assembly
 62
256
370
-1
  6
ByLayer
 10
-8.9999999999999876
 20
15.0000000000000142
 30
0.0
 11
-8.9999999999999734
 21
30.0000000000000142
 31
0.0
  0
LINE
  5
80
100
AcDbEntity
100
AcDbLine
  8
screw-assembly
 62
256
370
-1
  6
ByLayer
 10
-5.0000000000000089
 20
15.0000000000000142
 30
0.0
 11
-5.000000000000016
 21
30.0000000000000142
 31
0.0
  0
LINE
  5
81
100
AcDbEntity
100
AcDbLine
  8
screw-assembly
 62
256
370
-1
  6
ByLayer
 10
6.9999999999999982
 20
-19.9999999999999858
 30
0.0
 11
7.0
 21
-14.9999999999999858
 31
0.0
  0
LINE
  5
82
100
AcDbEntity
100
AcDbLine
  8
screw-assembly
 62
256
370
-1
  6
ByLayer
 10
8.9999999999999911
 20
15.0000000000000142
 30
0.0
 11
8.999999999999984
 21
30.0000000000000142
 31
0.0
  0
LINE
  5
83
100
AcDbEntity
100
AcDbLine
  8
screw-assembly
 62
256
370
-1
  6
ByLayer
 10
5.0000000000000124
 20
15.0000000000000142
 30
0.0
 11
5.0000000000000266
 21
30.0000000000000142
 31
0.0
  0
LINE
  5
84
100
AcDbEntity
100
AcDbLine
  8
screw-assembly
 62
256
370
-1
  6
ByLayer
 10
-0.5000000000000018
 20
-14.9999999999999893
 30
0.0
 11
-0.0000000000000018
 21
-14.9999999999999893
 31
0.0
  0
LINE
  5
85
100
AcDbEntity
100
AcDbLine
  8
screw-assembly
 62
256
370
-1
  6
ByLayer
 10
-13.5000000000000018
 20
-14.9999999999999858
 30
0.0
 11
-14.0000000000000018
 21
-14.9999999999999858
 31
0.0
  0
LINE
  5
86
100
AcDbEntity
100
AcDbLine
  8
drawings
 62
256
370
-1
  6
ByLayer
 10
-25.0000000000000036
 20
-19.9999999999999858
 30
0.0
 11
25.0
 21
-19.9999999999999254
 31
0.0
  0
LINE
  5
87
100
AcDbEntity
100
AcDbLine
  8
drawings
 62
256
370
-1
  6
ByLayer
 10
-25.0
 20
-15.499999999999984
 30
0.0
 11
-25.0000000000000036
 21
-19.9999999999999858
 31
0.0
  0
LINE
  5
88
100
AcDbEntity
100
AcDbLine
  8
drawings
 62
256
370
-1
  6
ByLayer
 10
-24.9999999999999858
 20
15.0000000000000231
 30
0.0
 11
-24.9999999999999858
 21
10.500000000000016
 31
0.0
  0
LINE
  5
89
100
AcDbEntity
100
AcDbLine
  8
drawings
 62
256
370
-1
  6
ByLayer
 10
25.0000000000000142
 20
15.0
 30
0.0
 11
25.0000000000000142
 21
10.5000000000000142
 31
0.0
  0
LINE
  5
8A
100
AcDbEntity
100
AcDbLine
  8
drawings
 62
256
370
-1
  6
ByLayer
 10
25.0
 20
-15.4999999999999858
 30
0.0
 11
25.0
 21
-19.9999999999999254
 31
0.0
  0
LINE
  5
8B
100
AcDbEntity
100
AcDbLine
  8
drawings
 62
256
370
-1
  6
ByLayer
 10
-25.0
 20
-15.499999999999984
 30
0.0
 11
25.0
 21
-15.4999999999999858
 31
0.0
  0
LINE
  5
8C
100
AcDbEntity
100
AcDbLine
  8
drawings
 62
256
370
-1
  6
ByLayer
 10
24.9999999999999964
 20
-24.3999999999999844
 30
0.0
 11
-25.0000000000000107
 21
-24.3999999999999844
 31
0.0
  0
LINE
  5
8D
100
AcDbEntity
100
AcDbLine
  8
drawings
 62
256
370
-1
  6
ByLayer
 10
-25.0000000000000036
 20
-19.9999999999999858
 30
0.0
 11
-25.0000000000000107
 21
-24.3999999999999844
 31
0.0
  0
LINE
  5
8E
100
AcDbEntity
100
AcDbLine
  8
drawings
 62
256
370
-1
  6
ByLayer
 10
24.9999999999999964
 20
-19.9999999999999254
 30
0.0
 11
24.9999999999999964
 21
-24.3999999999999844
 31
0.0
  0
LINE
  5
8F
100
AcDbEntity
100
AcDbLine
  8
drawings
 62
256
370
-1
  6
ByLayer
 10
0.0000000000000018
 20
15.0000000000000142
 30
0.0
 11
-0.0000000000000006
 21
-24.3999999999999844
 31
0.0
  0
LINE
  5
90
100
AcDbEntity
100
AcDbLine
  8
drawings
 62
256
370
-1
  6
ByLayer
 10
-35.0
 20
15.0000000000000266
 30
0.0
 11
-35.0
 21
-24.3999999999999702
 31
0.0
  0
LINE
  5
91
100
AcDbEntity
100
AcDbLine
  8
drawings
 62
256
370
-1
  6
ByLayer
 10
35.0
 20
15.0000000000000053
 30
0.0
 11
35.0
 21
-24.3999999999999915
 31
0.0
  0
LINE
  5
92
100
AcDbEntity
100
AcDbLine
  8
drawings
 62
256
370
-1
  6
ByLayer
 10
-35.0
 20
-24.3999999999999702
 30
0.0
 11
35.0
 21
-24.3999999999999915
 31
0.0
  0
LINE
  5
93
100
AcDbEntity
100
AcDbLine
  8
drawings
 62
256
370
-1
  6
ByLayer
 10
-24.9999999999999858
 20
10.500000000000016
 30
0.0
 11
-25.0
 21
-15.499999999999984
 31
0.0
  0
LINE
  5
94
100
AcDbEntity
100
AcDbLine
  8
drawings
 62
256
370
-1
  6
ByLayer
 10
25.0000000000000142
 20
10.5000000000000142
 30
0.0
 11
25.0
 21
-15.4999999999999858
 31
0.0
  0
LINE
  5
95
100
AcDbEntity
100
AcDbLine
  8
drawings
 62
256
370
-1
  6
ByLayer
 10
-24.9999999999999929
 20
-2.8749999999999805
 30
0.0
 11
25.0000000000000071
 21
-2.8749999999999805
 31
0.0
  0
LINE
  5
96
100
AcDbEntity
100
AcDbLine
  8
drawings
 62
256
370
-1
  6
ByLayer
 10
-29.4999999999999787
 20
19.5000000000000249
 30
0.0
 11
29.5000000000000213
 21
19.4999999999999964
 31
0.0
  0
LINE
  5
97
100
AcDbEntity
100
AcDbLine
  8
drawings
 62
256
370
-1
  6
ByLayer
 10
25.0000000000000142
 20
10.5000000000000142
 30
0.0
 11
-24.9999999999999929
 21
10.500000000000016
 31
0.0
  0
LINE
  5
98
100
AcDbEntity
100
AcDbLine
  8
drawings
 62
256
370
-1
  6
ByLayer
 10
-24.9999999999999858
 20
15.0000000000000231
 30
0.0
 11
25.0000000000000142
 21
15.0
 31
0.0
  0
LINE
  5
99
100
AcDbEntity
100
AcDbLine
  8
drawings
 62
256
370
-1
  6
ByLayer
 10
-30.0
 20
-24.3999999999999702
 30
0.0
 11
-30.0
 21
19.5000000000000355
 31
0.0
  0
LINE
  5
9A
100
AcDbEntity
100
AcDbLine
  8
drawings
 62
256
370
-1
  6
ByLayer
 10
30.0
 20
19.4999999999999822
 30
0.0
 11
30.0
 21
-24.3999999999999879
 31
0.0
  0
CIRCLE
  5
9B
100
AcDbEntity
100
AcDbCircle
  8
drawings
 62
256
370
-1
  6
ByLayer
 10
-30.0
 20
0.0000000000000128
 30
0.0
 40
3.0
  0
CIRCLE
  5
9C
100
AcDbEntity
100
AcDbCircle
  8
drawings
 62
256
370
-1
  6
ByLayer
 10
-30.0
 20
-14.9999999999999858
 30
0.0
 40
3.0
  0
LINE
  5
9D
100
AcDbEntity
100
AcDbLine
  8
drawings
 62
256
370
-1
  6
ByLayer
 10
30.0
 20
0.0000000000000142
 30
0.0
 11
-29.9999999999999964
 21
0.0000000000000142
 31
0.0
  0
LINE
  5
9E
100
AcDbEntity
100
AcDbLine
  8
drawings
 62
256
370
-1
  6
ByLayer
 10
30.0
 20
-14.9999999999999858
 30
0.0
 11
-29.9999999999999964
 21
-14.9999999999999858
 31
0.0
  0
LINE
  5
9F
100
AcDbEntity
100
AcDbLine
  8
screw-lines
 62
256
370
-1
  6
ByLayer
 10
-25.0000000000000071
 20
-39.75
 30
0.0
 11
25.0
 21
-39.75
 31
0.0
  0
LINE
  5
A0
100
AcDbEntity
100
AcDbLine
  8
drawings
 62
256
370
-1
  6
ByLayer
 10
-25.0000000000000071
 20
-42.0
 30
0.0
 11
25.0
 21
-42.0
 31
0.0
  0
LINE
  5
A1
100
AcDbEntity
100
AcDbLine
  8
screw-lines
 62
256
370
-1
  6
ByLayer
 10
-17.7499999999999787
 20
2.2500000000000195
 30
0.0
 11
-17.750000000000135
 21
-72.5
 31
0.0
  0
LINE
  5
A2
100
AcDbEntity
100
AcDbLine
  8
screw-lines
 62
256
370
-1
  6
ByLayer
 10
-25.0000000000000071
 20
-19.9999999999999858
 30
0.0
 11
-25.0000000000000107
 21
-72.5
 31
0.0
  0
LINE
  5
A3
100
AcDbEntity
100
AcDbLine
  8
drawings
 62
256
370
-1
  6
ByLayer
 10
-22.7500000000000071
 20
-19.9999999999999858
 30
0.0
 11
-22.7500000000000107
 21
-72.5
 31
0.0
  0
LINE
  5
A4
100
AcDbEntity
100
AcDbLine
  8
drawings
 62
256
370
-1
  6
ByLayer
 10
-20.5000000000000071
 20
-19.9999999999999858
 30
0.0
 11
-20.5000000000000107
 21
-72.5
 31
0.0
  0
LINE
  5
A5
100
AcDbEntity
100
AcDbLine
  8
screw-lines
 62
256
370
-1
  6
ByLayer
 10
17.7500000000000213
 20
2.2500000000000107
 30
0.0
 11
17.749999999999865
 21
-72.5
 31
0.0
  0
LINE
  5
A6
100
AcDbEntity
100
AcDbLine
  8
drawings
 62
256
370
-1
  6
ByLayer
 10
20.5
 20
-19.9999999999999254
 30
0.0
 11
20.4999999999999964
 21
-72.4999999999999858
 31
0.0
  0
LINE
  5
A7
100
AcDbEntity
100
AcDbLine
  8
drawings
 62
256
370
-1
  6
ByLayer
 10
22.75
 20
-19.9999999999999254
 30
0.0
 11
22.7499999999999964
 21
-72.4999999999999858
 31
0.0
  0
LINE
  5
A8
100
AcDbEntity
100
AcDbLine
  8
screw-lines
 62
256
370
-1
  6
ByLayer
 10
25.0
 20
-19.9999999999999254
 30
0.0
 11
24.9999999999999964
 21
-72.4999999999999858
 31
0.0
  0
LINE
  5
A9
100
AcDbEntity
100
AcDbLine
  8
drawings
 62
256
370
-1
  6
ByLayer
 10
13.2499999999999929
 20
-70.25
 30
0.0
 11
24.9999999999999964
 21
-70.25
 31
0.0
  0
LINE
  5
AA
100
AcDbEntity
100
AcDbLine
  8
drawings
 62
256
370
-1
  6
ByLayer
 10
-25.0000000000000107
 20
-70.25
 30
0.0
 11
-13.2500000000000071
 21
-70.25
 31
0.0
  0
LINE
  5
AB
100
AcDbEntity
100
AcDbLine
  8
drawings
 62
256
370
-1
  6
ByLayer
 10
13.2499999999999929
 20
-68.0
 30
0.0
 11
24.9999999999999964
 21
-68.0
 31
0.0
  0
LINE
  5
AC
100
AcDbEntity
100
AcDbLine
  8
drawings
 62
256
370
-1
  6
ByLayer
 10
-25.0000000000000107
 20
-68.0
 30
0.0
 11
-13.2500000000000071
 21
-68.0
 31
0.0
  0
LINE
  5
AD
100
AcDbEntity
100
AcDbLine
  8
Bearing Housing
 62
256
370
-1
  6
ByLayer
 10
-5.6666666666666652
 20
-42.0
 30
0.0
 11
5.6666666666666679
 21
-42.0
 31
0.0
  0
CIRCLE
  5
AE
100
AcDbEntity
100
AcDbCircle
  8
Bearing Housing
 62
256
370
-1
  6
ByLayer
 10
-17.7500000000000675
 20
-39.75
 30
0.0
 40
1.5
  0
LINE
  5
AF
100
AcDbEntity
100
AcDbLine
  8
Bearing Housing
 62
256
370
-1
  6
ByLayer
 10
-25.0000000000000071
 20
-37.5
 30
0.0
 11
-13.2500000000000036
 21
-37.5
 31
0.0
  0
LINE
  5
B0
100
AcDbEntity
100
AcDbLine
  8
Bearing Housing
 62
256
370
-1
  6
ByLayer
 10
13.2499999999999964
 20
-37.5
 30
0.0
 11
25.0
 21
-37.5
 31
0.0
  0
CIRCLE
  5
B1
100
AcDbEntity
100
AcDbCircle
  8
Bearing Housing
 62
256
370
-1
  6
ByLayer
 10
17.7499999999999361
 20
-39.75
 30
0.0
 40
1.5
  0
LINE
  5
B2
100
AcDbEntity
100
AcDbLine
  8
Bearing Housing
 62
256
370
-1
  6
ByLayer
 10
13.2499999999999947
 20
-37.5
 30
0.0
 11
13.2499999999999947
 21
-42.0
 31
0.0
  0
LINE
  5
B3
100
AcDbEntity
100
AcDbLine
  8
Bearing Housing
 62
256
370
-1
  6
ByLayer
 10
-13.2500000000000036
 20
-37.5
 30
0.0
 11
-13.2500000000000036
 21
-42.0
 31
0.0
  0
LINE
  5
B4
100
AcDbEntity
100
AcDbLine
  8
Bearing Housing
 62
256
370
-1
  6
ByLayer
 10
-13.2500000000000036
 20
-42.0
 30
0.0
 11
13.2499999999999929
 21
-42.0
 31
0.0
  0
LINE
  5
B5
100
AcDbEntity
100
AcDbLine
  8
Bearing Housing
 62
256
370
-1
  6
ByLayer
 10
-25.0000000000000107
 20
-72.5
 30
0.0
 11
-13.2500000000000071
 21
-72.5
 31
0.0
  0
LINE
  5
B6
100
AcDbEntity
100
AcDbLine
  8
Bearing Housing
 62
256
370
-1
  6
ByLayer
 10
13.2499999999999929
 20
-72.5
 30
0.0
 11
24.9999999999999964
 21
-72.5
 31
0.0
  0
CIRCLE
  5
B7
100
AcDbEntity
100
AcDbCircle
  8
Bearing Housing
 62
256
370
-1
  6
ByLayer
 10
17.7499999999998685
 20
-70.25
 30
0.0
 40
1.5
  0
CIRCLE
  5
B8
100
AcDbEntity
100
AcDbCircle
  8
Bearing Housing
 62
256
370
-1
  6
ByLayer
 10
-17.7500000000001315
 20
-70.25
 30
0.0
 40
1.5
  0
LINE
  5
B9
100
AcDbEntity
100
AcDbLine
  8
Bearing Housing
 62
256
370
-1
  6
ByLayer
 10
-13.2500000000000071
 20
-72.5
 30
0.0
 11
-13.2500000000000071
 21
-68.0
 31
0.0
  0
LINE
  5
BA
100
AcDbEntity
100
AcDbLine
  8
Bearing Housing
 62
256
370
-1
  6
ByLayer
 10
-13.2500000000000071
 20
-68.0
 30
0.0
 11
13.2499999999999929
 21
-68.0
 31
0.0
  0
LINE
  5
BB
100
AcDbEntity
100
AcDbLine
  8
Bearing Housing
 62
256
370
-1
  6
ByLayer
 10
13.2499999999999929
 20
-68.0
 30
0.0
 11
13.2499999999999929
 21
-72.5
 31
0.0
  0
LINE
  5
BC
100
AcDbEntity
100
AcDbLine
  8
Bearing Housing
 62
256
370
-1
  6
ByLayer
 10
-5.6659999999999995
 20
-24.3999999999999844
 30
0.0
 11
5.6660000000000013
 21
-24.3999999999999844
 31
0.0
  0
LINE
  5
BD
100
AcDbEntity
100
AcDbLine
  8
Bearing Housing
 62
256
370
-1
  6
ByLayer
 10
-20.5
 20
-9.0999999999999819
 30
0.0
 11
-20.5
 21
-11.499999999999984
 31
0.0
  0
LINE
  5
BE
100
AcDbEntity
100
AcDbLine
  8
Bearing Housing
 62
256
370
-1
  6
ByLayer
 10
-14.9999999999999982
 20
-9.0999999999999819
 30
0.0
 11
-14.9999999999999982
 21
-11.499999999999984
 31
0.0
  0
LINE
  5
BF
100
AcDbEntity
100
AcDbLine
  8
Bearing Housing
 62
256
370
-1
  6
ByLayer
 10
-20.5
 20
-9.0999999999999819
 30
0.0
 11
-19.25
 21
-9.0999999999999819
 31
0.0
  0
LINE
  5
C0
100
AcDbEntity
100
AcDbLine
  8
Bearing Housing
 62
256
370
-1
  6
ByLayer
 10
-16.25
 20
-9.0999999999999819
 30
0.0
 11
-14.9999999999999982
 21
-9.0999999999999819
 31
0.0
  0
LINE
  5
C1
100
AcDbEntity
100
AcDbLine
  8
Bearing Housing
 62
256
370
-1
  6
ByLayer
 10
-20.5
 20
-11.499999999999984
 30
0.0
 11
-19.25
 21
-11.499999999999984
 31
0.0
  0
LINE
  5
C2
100
AcDbEntity
100
AcDbLine
  8
Bearing Housing
 62
256
370
-1
  6
ByLayer
 10
-16.25
 20
-11.499999999999984
 30
0.0
 11
-14.9999999999999982
 21
-11.499999999999984
 31
0.0
  0
LINE
  5
C3
100
AcDbEntity
100
AcDbLine
  8
Bearing Housing
 62
256
370
-1
  6
ByLayer
 10
15.0000000000000018
 20
-9.0999999999999837
 30
0.0
 11
15.0000000000000018
 21
-11.4999999999999822
 31
0.0
  0
LINE
  5
C4
100
AcDbEntity
100
AcDbLine
  8
Bearing Housing
 62
256
370
-1
  6
ByLayer
 10
20.5
 20
-9.0999999999999837
 30
0.0
 11
20.5
 21
-11.4999999999999822
 31
0.0
  0
LINE
  5
C5
100
AcDbEntity
100
AcDbLine
  8
Bearing Housing
 62
256
370
-1
  6
ByLayer
 10
15.0000000000000018
 20
-9.0999999999999837
 30
0.0
 11
16.25
 21
-9.0999999999999837
 31
0.0
  0
LINE
  5
C6
100
AcDbEntity
100
AcDbLine
  8
Bearing Housing
 62
256
370
-1
  6
ByLayer
 10
19.25
 20
-9.0999999999999837
 30
0.0
 11
20.5
 21
-9.0999999999999837
 31
0.0
  0
LINE
  5
C7
100
AcDbEntity
100
AcDbLine
  8
Bearing Housing
 62
256
370
-1
  6
ByLayer
 10
15.0000000000000018
 20
-11.4999999999999822
 30
0.0
 11
16.25
 21
-11.4999999999999822
 31
0.0
  0
LINE
  5
C8
100
AcDbEntity
100
AcDbLine
  8
Bearing Housing
 62
256
370
-1
  6
ByLayer
 10
19.25
 20
-11.4999999999999822
 30
0.0
 11
20.5
 21
-11.4999999999999822
 31
0.0
  0
LINE
  5
C9
100
AcDbEntity
100
AcDbLine
  8
Bearing Housing
 62
256
370
-1
  6
ByLayer
 10
19.25
 20
-11.4999999999999822
 30
0.0
 11
19.25
 21
-15.4999999999999893
 31
0.0
  0
LINE
  5
CA
100
AcDbEntity
100
AcDbLine
  8
Bearing Housing
 62
256
370
-1
  6
ByLayer
 10
-19.25
 20
-11.4999999999999822
 30
0.0
 11
-19.25
 21
-15.4999999999999787
 31
0.0
  0
LINE
  5
CB
100
AcDbEntity
100
AcDbLine
  8
Bearing Housing
 62
256
370
-1
  6
ByLayer
 10
-5.6659999999999995
 20
-19.9999999999999858
 30
0.0
 11
-5.6659999999999995
 21
-24.3999999999999844
 31
0.0
  0
LINE
  5
CC
100
AcDbEntity
100
AcDbLine
  8
Bearing Housing
 62
256
370
-1
  6
ByLayer
 10
5.6660000000000021
 20
-19.9999999999999858
 30
0.0
 11
5.6660000000000013
 21
-24.3999999999999844
 31
0.0
  0
LINE
  5
CD
100
AcDbEntity
100
AcDbLine
  8
Bearing Housing
 62
256
370
-1
  6
ByLayer
 10
13.25
 20
-15.4999999999999929
 30
0.0
 11
13.2499999999999982
 21
-19.9999999999999858
 31
0.0
  0
LINE
  5
CE
100
AcDbEntity
100
AcDbLine
  8
Bearing Housing
 62
256
370
-1
  6
ByLayer
 10
-13.25
 20
-15.4999999999999734
 30
0.0
 11
-13.2500000000000018
 21
-19.9999999999999787
 31
0.0
  0
LINE
  5
CF
100
AcDbEntity
100
AcDbLine
  8
Bearing Housing
 62
256
370
-1
  6
ByLayer
 10
-16.25
 20
-11.4999999999999822
 30
0.0
 11
-16.25
 21
-15.4999999999999769
 31
0.0
  0
LINE
  5
D0
100
AcDbEntity
100
AcDbLine
  8
Bearing Housing
 62
256
370
-1
  6
ByLayer
 10
-13.2500000000000018
 20
-19.9999999999999822
 30
0.0
 11
-5.6660000000000004
 21
-19.9999999999999858
 31
0.0
  0
LINE
  5
D1
100
AcDbEntity
100
AcDbLine
  8
Bearing Housing
 62
256
370
-1
  6
ByLayer
 10
13.25
 20
-15.4999999999999929
 30
0.0
 11
16.25
 21
-15.4999999999999911
 31
0.0
  0
LINE
  5
D2
100
AcDbEntity
100
AcDbLine
  8
Bearing Housing
 62
256
370
-1
  6
ByLayer
 10
19.25
 20
-15.4999999999999893
 30
0.0
 11
25.0
 21
-15.4999999999999858
 31
0.0
  0
LINE
  5
D3
100
AcDbEntity
100
AcDbLine
  8
Bearing Housing
 62
256
370
-1
  6
ByLayer
 10
16.25
 20
-11.4999999999999822
 30
0.0
 11
16.25
 21
-15.4999999999999911
 31
0.0
  0
LINE
  5
D4
100
AcDbEntity
100
AcDbLine
  8
Bearing Housing
 62
256
370
-1
  6
ByLayer
 10
5.6660000000000039
 20
-19.9999999999999858
 30
0.0
 11
13.2499999999999982
 21
-19.9999999999999858
 31
0.0
  0
LINE
  5
D5
100
AcDbEntity
100
AcDbLine
  8
Bearing Housing
 62
256
370
-1
  6
ByLayer
 10
-25.0
 20
-15.499999999999984
 30
0.0
 11
-19.25
 21
-15.4999999999999787
 31
0.0
  0
LINE
  5
D6
100
AcDbEntity
100
AcDbLine
  8
Bearing Housing
 62
256
370
-1
  6
ByLayer
 10
-16.25
 20
-15.4999999999999769
 30
0.0
 11
-13.25
 21
-15.4999999999999734
 31
0.0
  0
ARC
  5
D7
100
AcDbEntity
  8
Bearing Housing
 62
256
370
-1
  6
ByLayer
100
AcDbCircle
 10
-7.5
 20
-2.9999999999999858
 30
0.0
 40
3.0
100
AcDbArc
 50
89.9999999999999858
 51
180.0
  0
LINE
  5
D8
100
AcDbEntity
100
AcDbLine
  8
Bearing Housing
 62
256
370
-1
  6
ByLayer
 10
-7.4999999999999991
 20
0.0000000000000142
 30
0.0
 11
7.5000000000000009
 21
0.0000000000000142
 31
0.0
  0
ARC
  5
D9
100
AcDbEntity
  8
Bearing Housing
 62
256
370
-1
  6
ByLayer
100
AcDbCircle
 10
7.5000000000000018
 20
-2.9999999999999858
 30
0.0
 40
3.0
100
AcDbArc
 50
0.0
 51
90.0000000000000284
  0
LINE
  5
DA
100
AcDbEntity
100
AcDbLine
  8
Bearing Housing
 62
256
370
-1
  6
ByLayer
 10
-10.5
 20
-11.9999999999999858
 30
0.0
 11
-10.5
 21
-2.9999999999999858
 31
0.0
  0
ARC
  5
DB
100
AcDbEntity
  8
Bearing Housing
 62
256
370
-1
  6
ByLayer
100
AcDbCircle
 10
-7.5
 20
-11.9999999999999858
 30
0.0
 40
3.0
100
AcDbArc
 50
180.0
 51
270.0
  0
LINE
  5
DC
100
AcDbEntity
100
AcDbLine
  8
Bearing Housing
 62
256
370
-1
  6
ByLayer
 10
7.5000000000000009
 20
-14.9999999999999822
 30
0.0
 11
-7.5000000000000009
 21
-14.9999999999999858
 31
0.0
  0
LINE
  5
DD
100
AcDbEntity
100
AcDbLine
  8
Bearing Housing
 62
256
370
-1
  6
ByLayer
 10
10.5
 20
-2.9999999999999858
 30
0.0
 11
10.5
 21
-11.9999999999999822
 31
0.0
  0
ARC
  5
DE
100
AcDbEntity
  8
Bearing Housing
 62
256
370
-1
  6
ByLayer
100
AcDbCircle
 10
7.5
 20
-11.9999999999999822
 30
0.0
 40
3.0
100
AcDbArc
 50
270.0
 51
0.0
  0
LINE
  5
DF
100
AcDbEntity
100
AcDbLine
  8
Bearing Housing
 62
256
370
-1
  6
ByLayer
 10
19.2500000000000142
 20
10.5000000000000107
 30
0.0
 11
25.0000000000000142
 21
10.5000000000000142
 31
0.0
  0
LINE
  5
E0
100
AcDbEntity
100
AcDbLine
  8
Bearing Housing
 62
256
370
-1
  6
ByLayer
 10
-19.25
 20
-7.9999999999999822
 30
0.0
 11
-19.25
 21
-9.0999999999999819
 31
0.0
  0
LINE
  5
E1
100
AcDbEntity
100
AcDbLine
  8
Bearing Housing
 62
256
370
-1
  6
ByLayer
 10
-16.25
 20
-7.9999999999999822
 30
0.0
 11
-16.25
 21
-9.0999999999999819
 31
0.0
  0
LINE
  5
E2
100
AcDbEntity
100
AcDbLine
  8
Bearing Housing
 62
256
370
-1
  6
ByLayer
 10
-19.25
 20
-7.9999999999999822
 30
0.0
 11
-16.25
 21
-7.9999999999999822
 31
0.0
  0
LINE
  5
E3
100
AcDbEntity
100
AcDbLine
  8
Bearing Housing
 62
256
370
-1
  6
ByLayer
 10
16.25
 20
-7.999999999999984
 30
0.0
 11
16.25
 21
-9.0999999999999837
 31
0.0
  0
LINE
  5
E4
100
AcDbEntity
100
AcDbLine
  8
Bearing Housing
 62
256
370
-1
  6
ByLayer
 10
19.25
 20
-7.999999999999984
 30
0.0
 11
19.25
 21
-9.0999999999999837
 31
0.0
  0
LINE
  5
E5
100
AcDbEntity
100
AcDbLine
  8
Bearing Housing
 62
256
370
-1
  6
ByLayer
 10
16.25
 20
-7.999999999999984
 30
0.0
 11
19.25
 21
-7.999999999999984
 31
0.0
  0
LINE
  5
E6
100
AcDbEntity
100
AcDbLine
  8
Bearing Housing
 62
256
370
-1
  6
ByLayer
 10
-19.2499999999999787
 20
2.2500000000000195
 30
0.0
 11
-16.2499999999999787
 21
2.2500000000000195
 31
0.0
  0
LINE
  5
E7
100
AcDbEntity
100
AcDbLine
  8
Bearing Housing
 62
256
370
-1
  6
ByLayer
 10
-20.4999999999999893
 20
5.6500000000000217
 30
0.0
 11
-20.4999999999999893
 21
3.2500000000000195
 31
0.0
  0
LINE
  5
E8
100
AcDbEntity
100
AcDbLine
  8
Bearing Housing
 62
256
370
-1
  6
ByLayer
 10
-14.9999999999999876
 20
5.6500000000000217
 30
0.0
 11
-14.9999999999999876
 21
3.2500000000000195
 31
0.0
  0
LINE
  5
E9
100
AcDbEntity
100
AcDbLine
  8
Bearing Housing
 62
256
370
-1
  6
ByLayer
 10
-20.4999999999999893
 20
3.2500000000000195
 30
0.0
 11
-19.2499999999999822
 21
3.2500000000000195
 31
0.0
  0
LINE
  5
EA
100
AcDbEntity
100
AcDbLine
  8
Bearing Housing
 62
256
370
-1
  6
ByLayer
 10
-16.2499999999999822
 20
3.2500000000000195
 30
0.0
 11
-14.9999999999999876
 21
3.2500000000000195
 31
0.0
  0
LINE
  5
EB
100
AcDbEntity
100
AcDbLine
  8
Bearing Housing
 62
256
370
-1
  6
ByLayer
 10
-20.4999999999999893
 20
5.6500000000000217
 30
0.0
 11
-19.2499999999999822
 21
5.6500000000000217
 31
0.0
  0
LINE
  5
EC
100
AcDbEntity
100
AcDbLine
  8
Bearing Housing
 62
256
370
-1
  6
ByLayer
 10
-16.2499999999999822
 20
5.6500000000000217
 30
0.0
 11
-14.9999999999999876
 21
5.6500000000000217
 31
0.0
  0
LINE
  5
ED
100
AcDbEntity
100
AcDbLine
  8
Bearing Housing
 62
256
370
-1
  6
ByLayer
 10
-19.2499999999999822
 20
3.2500000000000195
 30
0.0
 11
-19.2499999999999822
 21
2.2500000000000195
 31
0.0
  0
LINE
  5
EE
100
AcDbEntity
100
AcDbLine
  8
Bearing Housing
 62
256
370
-1
  6
ByLayer
 10
-16.2499999999999822
 20
3.2500000000000195
 30
0.0
 11
-16.2499999999999822
 21
2.2500000000000195
 31
0.0
  0
LINE
  5
EF
100
AcDbEntity
100
AcDbLine
  8
Bearing Housing
 62
256
370
-1
  6
ByLayer
 10
-19.2499999999999822
 20
10.5000000000000195
 30
0.0
 11
-19.2499999999999822
 21
5.6500000000000217
 31
0.0
  0
LINE
  5
F0
100
AcDbEntity
100
AcDbLine
  8
Bearing Housing
 62
256
370
-1
  6
ByLayer
 10
-24.9999999999999858
 20
10.500000000000016
 30
0.0
 11
-19.2499999999999822
 21
10.5000000000000195
 31
0.0
  0
LINE
  5
F1
100
AcDbEntity
100
AcDbLine
  8
Bearing Housing
 62
256
370
-1
  6
ByLayer
 10
-16.2499999999999822
 20
10.5000000000000195
 30
0.0
 11
-16.2499999999999822
 21
5.6500000000000217
 31
0.0
  0
LINE
  5
F2
100
AcDbEntity
100
AcDbLine
  8
Bearing Housing
 62
256
370
-1
  6
ByLayer
 10
16.2500000000000213
 20
2.2500000000000107
 30
0.0
 11
19.2500000000000213
 21
2.2500000000000107
 31
0.0
  0
LINE
  5
F3
100
AcDbEntity
100
AcDbLine
  8
Bearing Housing
 62
256
370
-1
  6
ByLayer
 10
15.0000000000000107
 20
5.6500000000000128
 30
0.0
 11
15.0000000000000107
 21
3.2500000000000107
 31
0.0
  0
LINE
  5
F4
100
AcDbEntity
100
AcDbLine
  8
Bearing Housing
 62
256
370
-1
  6
ByLayer
 10
20.5000000000000142
 20
5.6500000000000128
 30
0.0
 11
20.5000000000000142
 21
3.2500000000000107
 31
0.0
  0
LINE
  5
F5
100
AcDbEntity
100
AcDbLine
  8
Bearing Housing
 62
256
370
-1
  6
ByLayer
 10
15.0000000000000107
 20
3.2500000000000107
 30
0.0
 11
16.2500000000000178
 21
3.2500000000000107
 31
0.0
  0
LINE
  5
F6
100
AcDbEntity
100
AcDbLine
  8
Bearing Housing
 62
256
370
-1
  6
ByLayer
 10
19.2500000000000178
 20
3.2500000000000107
 30
0.0
 11
20.5000000000000142
 21
3.2500000000000107
 31
0.0
  0
LINE
  5
F7
100
AcDbEntity
100
AcDbLine
  8
Bearing Housing
 62
256
370
-1
  6
ByLayer
 10
15.0000000000000107
 20
5.6500000000000128
 30
0.0
 11
16.2500000000000178
 21
5.6500000000000128
 31
0.0
  0
LINE
  5
F8
100
AcDbEntity
100
AcDbLine
  8
Bearing Housing
 62
256
370
-1
  6
ByLayer
 10
19.2500000000000178
 20
5.6500000000000128
 30
0.0
 11
20.5000000000000142
 21
5.6500000000000128
 31
0.0
  0
LINE
  5
F9
100
AcDbEntity
100
AcDbLine
  8
Bearing Housing
 62
256
370
-1
  6
ByLayer
 10
16.2500000000000178
 20
3.2500000000000107
 30
0.0
 11
16.2500000000000178
 21
2.2500000000000107
 31
0.0
  0
LINE
  5
FA
100
AcDbEntity
100
AcDbLine
  8
Bearing Housing
 62
256
370
-1
  6
ByLayer
 10
19.2500000000000178
 20
3.2500000000000107
 30
0.0
 11
19.2500000000000178
 21
2.2500000000000107
 31
0.0
  0
LINE
  5
FB
100
AcDbEntity
100
AcDbLine
  8
Bearing Housing
 62
256
370
-1
  6
ByLayer
 10
16.2500000000000178
 20
10.5000000000000107
 30
0.0
 11
16.2500000000000178
 21
5.6500000000000128
 31
0.0
  0
LINE
  5
FC
100
AcDbEntity
100
AcDbLine
  8
Bearing Housing
 62
256
370
-1
  6
ByLayer
 10
19.2500000000000178
 20
10.5000000000000107
 30
0.0
 11
19.2500000000000178
 21
5.6500000000000128
 31
0.0
  0
LINE
  5
FD
100
AcDbEntity
100
AcDbLine
  8
Bearing Housing
 62
256
370
-1
  6
ByLayer
 10
-25.0
 20
-15.499999999999984
 30
0.0
 11
-25.0000000000000107
 21
-24.3999999999999737
 31
0.0
  0
LINE
  5
FE
100
AcDbEntity
100
AcDbLine
  8
Bearing Housing
 62
256
370
-1
  6
ByLayer
 10
-25.0000000000000107
 20
-24.3999999999999737
 30
0.0
 11
-35.0
 21
-24.3999999999999702
 31
0.0
  0
LINE
  5
FF
100
AcDbEntity
100
AcDbLine
  8
Bearing Housing
 62
256
370
-1
  6
ByLayer
 10
35.0
 20
-24.3999999999999915
 30
0.0
 11
24.9999999999999964
 21
-24.3999999999999844
 31
0.0
  0
LINE
  5
100
100
AcDbEntity
100
AcDbLine
  8
Bearing Housing
 62
256
370
-1
  6
ByLayer
 10
24.9999999999999964
 20
-24.3999999999999844
 30
0.0
 11
25.0
 21
-15.4999999999999858
 31
0.0
  0
LINE
  5
101
100
AcDbEntity
100
AcDbLine
  8
Bearing Housing
 62
256
370
-1
  6
ByLayer
 10
-35.0
 20
19.5000000000000284
 30
0.0
 11
-24.9999999999999858
 21
19.5000000000000213
 31
0.0
  0
LINE
  5
102
100
AcDbEntity
100
AcDbLine
  8
Bearing Housing
 62
256
370
-1
  6
ByLayer
 10
25.0000000000000142
 20
19.5
 30
0.0
 11
35.0
 21
19.5000000000000071
 31
0.0
  0
LINE
  5
103
100
AcDbEntity
100
AcDbLine
  8
Bearing Housing
 62
256
370
-1
  6
ByLayer
 10
-24.9999999999999858
 20
19.5000000000000213
 30
0.0
 11
-24.9999999999999858
 21
10.500000000000016
 31
0.0
  0
LINE
  5
104
100
AcDbEntity
100
AcDbLine
  8
Bearing Housing
 62
256
370
-1
  6
ByLayer
 10
-35.0
 20
-24.3999999999999702
 30
0.0
 11
-35.0
 21
19.5000000000000355
 31
0.0
  0
LINE
  5
105
100
AcDbEntity
100
AcDbLine
  8
Bearing Housing
 62
256
370
-1
  6
ByLayer
 10
25.0000000000000142
 20
10.5000000000000142
 30
0.0
 11
25.0000000000000142
 21
19.4999999999999858
 31
0.0
  0
LINE
  5
106
100
AcDbEntity
100
AcDbLine
  8
Bearing Housing
 62
256
370
-1
  6
ByLayer
 10
35.0
 20
19.4999999999999787
 30
0.0
 11
35.0
 21
-24.3999999999999915
 31
0.0
  0
LINE
  5
107
100
AcDbEntity
100
AcDbLine
  8
Bearing Housing
 62
256
370
-1
  6
ByLayer
 10
-24.9999999999999929
 20
-0.6249999999999805
 30
0.0
 11
-24.9999999999999929
 21
-5.1249999999999805
 31
0.0
  0
LINE
  5
108
100
AcDbEntity
100
AcDbLine
  8
Bearing Housing
 62
256
370
-1
  6
ByLayer
 10
-24.9999999999999929
 20
-0.6249999999999805
 30
0.0
 11
-20.4999999999999929
 21
-0.6249999999999802
 31
0.0
  0
LINE
  5
109
100
AcDbEntity
100
AcDbLine
  8
Bearing Housing
 62
256
370
-1
  6
ByLayer
 10
-24.9999999999999929
 20
-5.1249999999999805
 30
0.0
 11
-20.4999999999999929
 21
-5.1249999999999805
 31
0.0
  0
LINE
  5
10A
100
AcDbEntity
100
AcDbLine
  8
Bearing Housing
 62
256
370
-1
  6
ByLayer
 10
-20.4999999999999929
 20
-0.6249999999999802
 30
0.0
 11
-20.4999999999999929
 21
-5.1249999999999805
 31
0.0
  0
LINE
  5
10B
100
AcDbEntity
100
AcDbLine
  8
Bearing Housing
 62
256
370
-1
  6
ByLayer
 10
20.5000000000000071
 20
-0.6249999999999805
 30
0.0
 11
20.5000000000000071
 21
-5.1249999999999805
 31
0.0
  0
LINE
  5
10C
100
AcDbEntity
100
AcDbLine
  8
Bearing Housing
 62
256
370
-1
  6
ByLayer
 10
20.5000000000000071
 20
-0.6249999999999805
 30
0.0
 11
25.0000000000000071
 21
-0.6249999999999802
 31
0.0
  0
LINE
  5
10D
100
AcDbEntity
100
AcDbLine
  8
Bearing Housing
 62
256
370
-1
  6
ByLayer
 10
20.5000000000000071
 20
-5.1249999999999805
 30
0.0
 11
25.0000000000000071
 21
-5.1249999999999805
 31
0.0
  0
LINE
  5
10E
100
AcDbEntity
100
AcDbLine
  8
Bearing Housing
 62
256
370
-1
  6
ByLayer
 10
25.0000000000000071
 20
-0.6249999999999802
 30
0.0
 11
25.0000000000000071
 21
-5.1249999999999805
 31
0.0
  0
CIRCLE
  5
10F
100
AcDbEntity
100
AcDbCircle
  8
Bearing Housing
 62
256
370
-1
  6
ByLayer
 10
-30.0
 20
0.0000000000000128
 30
0.0
 40
1.5
  0
CIRCLE
  5
110
100
AcDbEntity
100
AcDbCircle
  8
Bearing Housing
 62
256
370
-1
  6
ByLayer
 10
-30.0
 20
-14.9999999999999858
 30
0.0
 40
1.5
  0
CIRCLE
  5
111
100
AcDbEntity
100
AcDbCircle
  8
Bearing Housing
 62
256
370
-1
  6
ByLayer
 10
30.0
 20
0.0000000000000161
 30
0.0
 40
1.5
  0
CIRCLE
  5
112
100
AcDbEntity
100
AcDbCircle
  8
Bearing Housing
 62
256
370
-1
  6
ByLayer
 10
30.0
 20
-14.9999999999999876
 30
0.0
 40
1.5
  0
LINE
  5
113
100
AcDbEntity
100
AcDbLine
  8
drawings
 62
256
370
-1
  6
ByLayer
 10
-25.0000000000000107
 20
-55.0
 30
0.0
 11
24.9999999999999964
 21
-55.0
 31
0.0
  0
CIRCLE
  5
114
100
AcDbEntity
100
AcDbCircle
  8
Bearing Housing
 62
256
370
-1
  6
ByLayer
 10
22.7499999999999964
 20
-55.0
 30
0.0
 40
1.5
  0
CIRCLE
  5
115
100
AcDbEntity
100
AcDbCircle
  8
Bearing Housing
 62
256
370
-1
  6
ByLayer
 10
-22.7500000000000107
 20
-55.0
 30
0.0
 40
1.5
  0
LINE
  5
116
100
AcDbEntity
100
AcDbLine
  8
drawings
 62
256
370
-1
  6
ByLayer
 10
0.0
 20
-37.4999999999999929
 30
0.0
 11
-0.0000000000000036
 21
-72.4999999999999858
 31
0.0
  0
ARC
  5
117
100
AcDbEntity
  8
Bearing Housing
 62
256
370
-1
  6
ByLayer
100
AcDbCircle
 10
-7.0000000000000018
 20
-58.8729833462074197
 30
0.0
 40
6.5
100
AcDbArc
 50
39.4807212524822617
 51
18.4293274912374407
  0
ARC
  5
118
100
AcDbEntity
  8
Bearing Housing
 62
256
370
-1
  6
ByLayer
100
AcDbCircle
 10
6.9999999999999982
 20
-58.8729833462074197
 30
0.0
 40
6.5
100
AcDbArc
 50
161.5706725087625557
 51
140.5192787475177454
  0
ARC
  5
119
100
AcDbEntity
  8
Bearing Housing
 62
256
370
-1
  6
ByLayer
100
AcDbCircle
 10
-0.0000000000000018
 20
-55.0
 30
0.0
 40
2.0
100
AcDbArc
 50
245.3749381004258225
 51
294.6250618995741206
  0
ARC
  5
11A
100
AcDbEntity
  8
Bearing Housing
 62
256
370
-1
  6
ByLayer
100
AcDbCircle
 10
-0.0000000000000018
 20
-55.0
 30
0.0
 40
2.0
100
AcDbArc
 50
7.4648893567062062
 51
172.5351106432938195
  0
LINE
  5
11B
100
AcDbEntity
100
AcDbLine
  8
drawings
 62
256
370
-1
  6
ByLayer
 10
20.5
 20
-87.5
 30
0.0
 11
20.4999999999999964
 21
-122.5
 31
0.0
  0
LINE
  5
11C
100
AcDbEntity
100
AcDbLine
  8
drawings
 62
256
370
-1
  6
ByLayer
 10
-20.5000000000000071
 20
-87.5
 30
0.0
 11
-20.5000000000000107
 21
-122.5
 31
0.0
  0
LINE
  5
11D
100
AcDbEntity
100
AcDbLine
  8
drawings
 62
256
370
-1
  6
ByLayer
 10
-25.0000000000000071
 20
-92.0
 30
0.0
 11
-5.6660000000000039
 21
-92.0
 31
0.0
  0
LINE
  5
11E
100
AcDbEntity
100
AcDbLine
  8
drawings
 62
256
370
-1
  6
ByLayer
 10
5.6659999999999986
 20
-92.0
 30
0.0
 11
25.0
 21
-92.0
 31
0.0
  0
LINE
  5
11F
100
AcDbEntity
100
AcDbLine
  8
drawings
 62
256
370
-1
  6
ByLayer
 10
5.6659999999999959
 20
-118.0
 30
0.0
 11
24.9999999999999964
 21
-118.0
 31
0.0
  0
LINE
  5
120
100
AcDbEntity
100
AcDbLine
  8
drawings
 62
256
370
-1
  6
ByLayer
 10
-25.0000000000000107
 20
-118.0
 30
0.0
 11
-5.6660000000000048
 21
-118.0
 31
0.0
  0
LINE
  5
121
100
AcDbEntity
100
AcDbLine
  8
drawings
 62
256
370
-1
  6
ByLayer
 10
-5.6666666666666652
 20
-87.5
 30
0.0
 11
5.6666666666666679
 21
-87.5
 31
0.0
  0
LINE
  5
122
100
AcDbEntity
100
AcDbLine
  8
drawings
 62
256
370
-1
  6
ByLayer
 10
-5.6660000000000057
 20
-122.5
 30
0.0
 11
5.6659999999999959
 21
-122.5
 31
0.0
  0
LINE
  5
123
100
AcDbEntity
100
AcDbLine
  8
drawings
 62
256
370
-1
  6
ByLayer
 10
-13.2500000000000071
 20
-72.5
 30
0.0
 11
13.2499999999999929
 21
-72.5
 31
0.0
  0
LINE
  5
124
100
AcDbEntity
100
AcDbLine
  8
drawings
 62
256
370
-1
  6
ByLayer
 10
-13.2500000000000036
 20
-37.5
 30
0.0
 11
13.2499999999999929
 21
-37.5
 31
0.0
  0
CIRCLE
  5
125
100
AcDbEntity
100
AcDbCircle
  8
drawings
 62
256
370
-1
  6
ByLayer
 10
-0.0000000000000018
 20
-105.0
 30
0.0
 40
25.3999999999999986
  0
CIRCLE
  5
126
100
AcDbEntity
100
AcDbCircle
  8
drawings
 62
256
370
-1
  6
ByLayer
 10
-0.0000000000000018
 20
-105.0
 30
0.0
 40
22.3999999999999986
  0
CIRCLE
  5
127
100
AcDbEntity
100
AcDbCircle
  8
Insulator Retainer
 62
256
370
-1
  6
ByLayer
 10
-17.7500000000000675
 20
-139.75
 30
0.0
 40
1.5
  0
CIRCLE
  5
128
100
AcDbEntity
100
AcDbCircle
  8
Insulator Retainer
 62
256
370
-1
  6
ByLayer
 10
17.7499999999999361
 20
-139.75
 30
0.0
 40
1.5
  0
CIRCLE
  5
129
100
AcDbEntity
100
AcDbCircle
  8
Insulator Retainer
 62
256
370
-1
  6
ByLayer
 10
17.7499999999998685
 20
-170.25
 30
0.0
 40
1.5
  0
CIRCLE
  5
12A
100
AcDbEntity
100
AcDbCircle
  8
Insulator Retainer
 62
256
370
-1
  6
ByLayer
 10
-17.7500000000001315
 20
-170.25
 30
0.0
 40
1.5
  0
LINE
  5
12B
100
AcDbEntity
100
AcDbLine
  8
Insulator Retainer
 62
256
370
-1
  6
ByLayer
 10
-25.0000000000000071
 20
-137.5
 30
0.0
 11
-25.0000000000000107
 21
-172.5
 31
0.0
  0
LINE
  5
12C
100
AcDbEntity
100
AcDbLine
  8
Insulator Retainer
 62
256
370
-1
  6
ByLayer
 10
25.0
 20
-137.5
 30
0.0
 11
24.9999999999999964
 21
-172.5
 31
0.0
  0
CIRCLE
  5
12D
100
AcDbEntity
100
AcDbCircle
  8
Insulator Retainer
 62
256
370
-1
  6
ByLayer
 10
22.7499999999999964
 20
-155.0
 30
0.0
 40
1.5
  0
CIRCLE
  5
12E
100
AcDbEntity
100
AcDbCircle
  8
Insulator Retainer
 62
256
370
-1
  6
ByLayer
 10
-22.7500000000000107
 20
-155.0
 30
0.0
 40
1.5
  0
CIRCLE
  5
12F
100
AcDbEntity
100
AcDbCircle
  8
Insulator Retainer
 62
256
370
-1
  6
ByLayer
 10
-0.0000000000000018
 20
-155.0
 30
0.0
 40
8.0
  0
CIRCLE
  5
130
100
AcDbEntity
100
AcDbCircle
  8
Insulator Retainer
 62
256
370
-1
  6
ByLayer
 10
-0.0000000000000018
 20
-132.5999999999999943
 30
0.0
 40
1.5
  0
CIRCLE
  5
131
100
AcDbEntity
100
AcDbCircle
  8
Insulator Retainer
 62
256
370
-1
  6
ByLayer
 10
-0.0000000000000018
 20
-177.4000000000000057
 30
0.0
 40
1.5
  0
LINE
  5
132
100
AcDbEntity
100
AcDbLine
  8
Insulator Retainer
 62
256
370
-1
  6
ByLayer
 10
-25.0000000000000071
 20
-137.5
 30
0.0
 11
-20.5000000000000071
 21
-137.5
 31
0.0
  0
LINE
  5
133
100
AcDbEntity
100
AcDbLine
  8
Insulator Retainer
 62
256
370
-1
  6
ByLayer
 10
20.5000000000000071
 20
-137.5
 30
0.0
 11
25.0
 21
-137.5
 31
0.0
  0
LINE
  5
134
100
AcDbEntity
100
AcDbLine
  8
Insulator Retainer
 62
256
370
-1
  6
ByLayer
 10
20.5000000000000071
 20
-172.5
 30
0.0
 11
24.9999999999999964
 21
-172.5
 31
0.0
  0
LINE
  5
135
100
AcDbEntity
100
AcDbLine
  8
Insulator Retainer
 62
256
370
-1
  6
ByLayer
 10
-25.0000000000000107
 20
-172.5
 30
0.0
 11
-20.5000000000000107
 21
-172.5
 31
0.0
  0
ARC
  5
136
100
AcDbEntity
  8
Insulator Retainer
 62
256
370
-1
  6
ByLayer
100
AcDbCircle
 10
-0.0000000000000018
 20
-155.0
 30
0.0
 40
26.9536639438871148
100
AcDbArc
 50
40.4860115419987281
 51
139.513988458001279
  0
ARC
  5
137
100
AcDbEntity
  8
Insulator Retainer
 62
256
370
-1
  6
ByLayer
100
AcDbCircle
 10
-0.0000000000000018
 20
-155.0
 30
0.0
 40
26.9536639438871148
100
AcDbArc
 50
220.486011541998721
 51
319.513988458001279
  0
CIRCLE
  5
138
100
AcDbEntity
100
AcDbCircle
  8
Bearing Housing
 62
256
370
-1
  6
ByLayer
 10
-17.7500000000000675
 20
-89.75
 30
0.0
 40
1.5
  0
CIRCLE
  5
139
100
AcDbEntity
100
AcDbCircle
  8
Bearing Housing
 62
256
370
-1
  6
ByLayer
 10
17.7499999999999361
 20
-89.75
 30
0.0
 40
1.5
  0
CIRCLE
  5
13A
100
AcDbEntity
100
AcDbCircle
  8
Bearing Housing
 62
256
370
-1
  6
ByLayer
 10
17.7499999999998685
 20
-120.25
 30
0.0
 40
1.5
  0
CIRCLE
  5
13B
100
AcDbEntity
100
AcDbCircle
  8
Bearing Housing
 62
256
370
-1
  6
ByLayer
 10
-17.7500000000001315
 20
-120.25
 30
0.0
 40
1.5
  0
LINE
  5
13C
100
AcDbEntity
100
AcDbLine
  8
Bearing Housing
 62
256
370
-1
  6
ByLayer
 10
-25.0000000000000071
 20
-87.5
 30
0.0
 11
-25.0000000000000107
 21
-122.5
 31
0.0
  0
LINE
  5
13D
100
AcDbEntity
100
AcDbLine
  8
Bearing Housing
 62
256
370
-1
  6
ByLayer
 10
25.0
 20
-87.5
 30
0.0
 11
24.9999999999999964
 21
-122.5
 31
0.0
  0
CIRCLE
  5
13E
100
AcDbEntity
100
AcDbCircle
  8
Bearing Housing
 62
256
370
-1
  6
ByLayer
 10
22.7499999999999964
 20
-105.0
 30
0.0
 40
1.5
  0
CIRCLE
  5
13F
100
AcDbEntity
100
AcDbCircle
  8
Bearing Housing
 62
256
370
-1
  6
ByLayer
 10
-22.7500000000000107
 20
-105.0
 30
0.0
 40
1.5
  0
CIRCLE
  5
140
100
AcDbEntity
100
AcDbCircle
  8
Bearing Retainer
 62
256
370
-1
  6
ByLayer
 10
-0.0000000000000018
 20
-105.0
 30
0.0
 40
1.5
  0
CIRCLE
  5
141
100
AcDbEntity
100
AcDbCircle
  8
Bearing Retainer
 62
256
370
-1
  6
ByLayer
 10
-7.0000000000000018
 20
-108.8729833462074197
 30
0.0
 40
3.5
  0
CIRCLE
  5
142
100
AcDbEntity
100
AcDbCircle
  8
Bearing Retainer
 62
256
370
-1
  6
ByLayer
 10
6.9999999999999982
 20
-108.8729833462074197
 30
0.0
 40
3.5
  0
LINE
  5
143
100
AcDbEntity
100
AcDbLine
  8
Bearing Housing
 62
256
370
-1
  6
ByLayer
 10
-5.6666666666666705
 20
37.0000000000000284
 30
0.0
 11
5.6666666666666643
 21
37.0000000000000284
 31
0.0
  0
CIRCLE
  5
144
100
AcDbEntity
100
AcDbCircle
  8
Bearing Housing
 62
256
370
-1
  6
ByLayer
 10
-17.7500000000000853
 20
34.7500000000000284
 30
0.0
 40
1.5
  0
LINE
  5
145
100
AcDbEntity
100
AcDbLine
  8
Bearing Housing
 62
256
370
-1
  6
ByLayer
 10
-25.0000000000000142
 20
32.5000000000000284
 30
0.0
 11
-13.2500000000000195
 21
32.5000000000000284
 31
0.0
  0
LINE
  5
146
100
AcDbEntity
100
AcDbLine
  8
Bearing Housing
 62
256
370
-1
  6
ByLayer
 10
13.2499999999999964
 20
32.5000000000000355
 30
0.0
 11
24.9999999999999929
 21
32.5000000000000284
 31
0.0
  0
CIRCLE
  5
147
100
AcDbEntity
100
AcDbCircle
  8
Bearing Housing
 62
256
370
-1
  6
ByLayer
 10
17.7499999999999396
 20
34.7500000000000213
 30
0.0
 40
1.5
  0
LINE
  5
148
100
AcDbEntity
100
AcDbLine
  8
Bearing Housing
 62
256
370
-1
  6
ByLayer
 10
13.2499999999999929
 20
32.5000000000000284
 30
0.0
 11
13.25
 21
37.0000000000000213
 31
0.0
  0
LINE
  5
149
100
AcDbEntity
100
AcDbLine
  8
Bearing Housing
 62
256
370
-1
  6
ByLayer
 10
-13.2500000000000195
 20
32.5000000000000284
 30
0.0
 11
-13.2500000000000124
 21
37.0000000000000284
 31
0.0
  0
LINE
  5
14A
100
AcDbEntity
100
AcDbLine
  8
Bearing Housing
 62
256
370
-1
  6
ByLayer
 10
-13.2500000000000124
 20
37.0000000000000284
 30
0.0
 11
13.25
 21
37.0000000000000213
 31
0.0
  0
LINE
  5
14B
100
AcDbEntity
100
AcDbLine
  8
Bearing Housing
 62
256
370
-1
  6
ByLayer
 10
-24.9999999999999964
 20
67.5000000000000284
 30
0.0
 11
-13.2500000000000409
 21
67.5000000000000284
 31
0.0
  0
LINE
  5
14C
100
AcDbEntity
100
AcDbLine
  8
Bearing Housing
 62
256
370
-1
  6
ByLayer
 10
13.2499999999999609
 20
67.5000000000000426
 30
0.0
 11
24.9999999999999858
 21
67.5000000000000426
 31
0.0
  0
CIRCLE
  5
14D
100
AcDbEntity
100
AcDbCircle
  8
Bearing Housing
 62
256
370
-1
  6
ByLayer
 10
17.7499999999998401
 20
65.2500000000000284
 30
0.0
 40
1.5
  0
CIRCLE
  5
14E
100
AcDbEntity
100
AcDbCircle
  8
Bearing Housing
 62
256
370
-1
  6
ByLayer
 10
-17.7500000000001492
 20
65.2500000000000284
 30
0.0
 40
1.5
  0
LINE
  5
14F
100
AcDbEntity
100
AcDbLine
  8
Bearing Housing
 62
256
370
-1
  6
ByLayer
 10
-13.2500000000000409
 20
67.5000000000000284
 30
0.0
 11
-13.2500000000000089
 21
63.0000000000000284
 31
0.0
  0
LINE
  5
150
100
AcDbEntity
100
AcDbLine
  8
Bearing Housing
 62
256
370
-1
  6
ByLayer
 10
-13.2500000000000089
 20
63.0000000000000284
 30
0.0
 11
13.2499999999999574
 21
63.0000000000000497
 31
0.0
  0
LINE
  5
151
100
AcDbEntity
100
AcDbLine
  8
Bearing Housing
 62
256
370
-1
  6
ByLayer
 10
13.2499999999999574
 20
63.0000000000000497
 30
0.0
 11
13.2499999999999609
 21
67.5000000000000426
 31
0.0
  0
CIRCLE
  5
152
100
AcDbEntity
100
AcDbCircle
  8
Bearing Housing
 62
256
370
-1
  6
ByLayer
 10
22.7500000000000071
 20
50.0000000000000213
 30
0.0
 40
1.5
  0
CIRCLE
  5
153
100
AcDbEntity
100
AcDbCircle
  8
Bearing Housing
 62
256
370
-1
  6
ByLayer
 10
-22.7500000000000462
 20
50.0000000000000213
 30
0.0
 40
1.5
  0
CIRCLE
  5
154
100
AcDbEntity
100
AcDbCircle
  8
Bearing Retainer
 62
256
370
-1
  6
ByLayer
 10
-7.0000000000000249
 20
53.8729833462074552
 30
0.0
 40
6.5
  0
CIRCLE
  5
155
100
AcDbEntity
100
AcDbCircle
  8
Bearing Retainer
 62
256
370
-1
  6
ByLayer
 10
6.9999999999999787
 20
53.8729833462074552
 30
0.0
 40
6.5
  0
LINE
  5
156
100
AcDbEntity
100
AcDbLine
  8
Bearing Housing
 62
256
370
-1
  6
ByLayer
 10
-5.6666666666667425
 20
82.0000000000000426
 30
0.0
 11
5.6666666666666146
 21
82.0000000000000426
 31
0.0
  0
CIRCLE
  5
157
100
AcDbEntity
100
AcDbCircle
  8
Bearing Housing
 62
256
370
-1
  6
ByLayer
 10
-17.7500000000000568
 20
79.75
 30
0.0
 40
1.5
  0
CIRCLE
  5
158
100
AcDbEntity
100
AcDbCircle
  8
Bearing Housing
 62
256
370
-1
  6
ByLayer
 10
17.7499999999998863
 20
79.7500000000000426
 30
0.0
 40
1.5
  0
CIRCLE
  5
159
100
AcDbEntity
100
AcDbCircle
  8
Bearing Housing
 62
256
370
-1
  6
ByLayer
 10
17.7499999999999005
 20
110.2499999999999716
 30
0.0
 40
1.5
  0
CIRCLE
  5
15A
100
AcDbEntity
100
AcDbCircle
  8
Bearing Housing
 62
256
370
-1
  6
ByLayer
 10
-17.7500000000001492
 20
110.2500000000000142
 30
0.0
 40
1.5
  0
LINE
  5
15B
100
AcDbEntity
100
AcDbLine
  8
Bearing Housing
 62
256
370
-1
  6
ByLayer
 10
-25.0000000000000142
 20
77.5
 30
0.0
 11
-25.0000000000000142
 21
112.5
 31
0.0
  0
LINE
  5
15C
100
AcDbEntity
100
AcDbLine
  8
Bearing Housing
 62
256
370
-1
  6
ByLayer
 10
24.9999999999999858
 20
77.5000000000000142
 30
0.0
 11
25.0000000000000142
 21
112.5
 31
0.0
  0
CIRCLE
  5
15D
100
AcDbEntity
100
AcDbCircle
  8
Bearing Housing
 62
256
370
-1
  6
ByLayer
 10
22.7499999999999432
 20
95.0000000000000568
 30
0.0
 40
1.5
  0
CIRCLE
  5
15E
100
AcDbEntity
100
AcDbCircle
  8
Bearing Housing
 62
256
370
-1
  6
ByLayer
 10
-22.7500000000000497
 20
95.0000000000000142
 30
0.0
 40
1.5
  0
CIRCLE
  5
15F
100
AcDbEntity
100
AcDbCircle
  8
Bearing Retainer
 62
256
370
-1
  6
ByLayer
 10
6.9999999999999858
 20
98.8729833462074197
 30
0.0
 40
3.5
  0
CIRCLE
  5
160
100
AcDbEntity
100
AcDbCircle
  8
Bearing Retainer
 62
256
370
-1
  6
ByLayer
 10
-0.0000000000000568
 20
90.0000000000000426
 30
0.0
 40
2.0
  0
CIRCLE
  5
161
100
AcDbEntity
100
AcDbCircle
  8
Bearing Retainer
 62
256
370
-1
  6
ByLayer
 10
0.0
 20
44.0
 30
0.0
 40
2.0
  0
LINE
  5
162
100
AcDbEntity
100
AcDbLine
  8
Bearing Housing
 62
256
370
-1
  6
ByLayer
 10
155.6660000000000252
 20
-24.3999999999999488
 30
0.0
 11
144.3339999999999748
 21
-24.3999999999999986
 31
0.0
  0
LINE
  5
163
100
AcDbEntity
100
AcDbLine
  8
Bearing Housing
 62
256
370
-1
  6
ByLayer
 10
170.5
 20
-9.0999999999999623
 30
0.0
 11
170.5
 21
-11.5000000000000284
 31
0.0
  0
LINE
  5
164
100
AcDbEntity
100
AcDbLine
  8
Bearing Housing
 62
256
370
-1
  6
ByLayer
 10
165.0
 20
-9.100000000000005
 30
0.0
 11
165.0
 21
-11.4999999999999325
 31
0.0
  0
LINE
  5
165
100
AcDbEntity
100
AcDbLine
  8
Bearing Housing
 62
256
370
-1
  6
ByLayer
 10
170.5
 20
-9.0999999999999623
 30
0.0
 11
169.25
 21
-9.099999999999973
 31
0.0
  0
LINE
  5
166
100
AcDbEntity
100
AcDbLine
  8
Bearing Housing
 62
256
370
-1
  6
ByLayer
 10
166.25
 20
-9.0999999999999908
 30
0.0
 11
165.0
 21
-9.100000000000005
 31
0.0
  0
LINE
  5
167
100
AcDbEntity
100
AcDbLine
  8
Bearing Housing
 62
256
370
-1
  6
ByLayer
 10
170.5
 20
-11.5000000000000284
 30
0.0
 11
169.25
 21
-11.5000000000000213
 31
0.0
  0
LINE
  5
168
100
AcDbEntity
100
AcDbLine
  8
Bearing Housing
 62
256
370
-1
  6
ByLayer
 10
166.25
 20
-11.5
 30
0.0
 11
165.0
 21
-11.4999999999999325
 31
0.0
  0
LINE
  5
169
100
AcDbEntity
100
AcDbLine
  8
Bearing Housing
 62
256
370
-1
  6
ByLayer
 10
135.0
 20
-9.0999999999999837
 30
0.0
 11
134.9999999999999716
 21
-11.5000000000000071
 31
0.0
  0
LINE
  5
16A
100
AcDbEntity
100
AcDbLine
  8
Bearing Housing
 62
256
370
-1
  6
ByLayer
 10
129.5
 20
-9.1000000000000014
 30
0.0
 11
129.5
 21
-11.4999999999999858
 31
0.0
  0
LINE
  5
16B
100
AcDbEntity
100
AcDbLine
  8
Bearing Housing
 62
256
370
-1
  6
ByLayer
 10
135.0
 20
-9.0999999999999837
 30
0.0
 11
133.75
 21
-9.0999999999999943
 31
0.0
  0
LINE
  5
16C
100
AcDbEntity
100
AcDbLine
  8
Bearing Housing
 62
256
370
-1
  6
ByLayer
 10
130.7499999999999716
 20
-9.1000000000000085
 30
0.0
 11
129.5
 21
-9.1000000000000014
 31
0.0
  0
LINE
  5
16D
100
AcDbEntity
100
AcDbLine
  8
Bearing Housing
 62
256
370
-1
  6
ByLayer
 10
134.9999999999999716
 20
-11.5000000000000071
 30
0.0
 11
133.7499999999999716
 21
-11.5
 31
0.0
  0
LINE
  5
16E
100
AcDbEntity
100
AcDbLine
  8
Bearing Housing
 62
256
370
-1
  6
ByLayer
 10
130.75
 20
-11.4999999999999929
 30
0.0
 11
129.5
 21
-11.4999999999999858
 31
0.0
  0
LINE
  5
16F
100
AcDbEntity
100
AcDbLine
  8
Bearing Housing
 62
256
370
-1
  6
ByLayer
 10
130.75
 20
-11.4999999999999929
 30
0.0
 11
130.7499999999999716
 21
-15.5000000000000071
 31
0.0
  0
LINE
  5
170
100
AcDbEntity
100
AcDbLine
  8
Bearing Housing
 62
256
370
-1
  6
ByLayer
 10
169.25
 20
-11.5000000000000213
 30
0.0
 11
169.25
 21
-15.4999999999999645
 31
0.0
  0
LINE
  5
171
100
AcDbEntity
100
AcDbLine
  8
Bearing Housing
 62
256
370
-1
  6
ByLayer
 10
155.6659999999999968
 20
-19.9999999999999858
 30
0.0
 11
155.6660000000000252
 21
-24.3999999999999488
 31
0.0
  0
LINE
  5
172
100
AcDbEntity
100
AcDbLine
  8
Bearing Housing
 62
256
370
-1
  6
ByLayer
 10
144.3339999999999748
 20
-20.0
 30
0.0
 11
144.3339999999999748
 21
-24.3999999999999986
 31
0.0
  0
LINE
  5
173
100
AcDbEntity
100
AcDbLine
  8
Bearing Housing
 62
256
370
-1
  6
ByLayer
 10
136.75
 20
-15.5000000000000071
 30
0.0
 11
136.75
 21
-19.9999999999999858
 31
0.0
  0
LINE
  5
174
100
AcDbEntity
100
AcDbLine
  8
Bearing Housing
 62
256
370
-1
  6
ByLayer
 10
163.25
 20
-15.4999999999999716
 30
0.0
 11
163.25
 21
-19.9999999999999787
 31
0.0
  0
LINE
  5
175
100
AcDbEntity
100
AcDbLine
  8
Bearing Housing
 62
256
370
-1
  6
ByLayer
 10
166.25
 20
-11.5
 30
0.0
 11
166.25
 21
-15.4999999999999574
 31
0.0
  0
LINE
  5
176
100
AcDbEntity
100
AcDbLine
  8
Bearing Housing
 62
256
370
-1
  6
ByLayer
 10
163.25
 20
-19.9999999999999858
 30
0.0
 11
155.6659999999999968
 21
-19.9999999999999858
 31
0.0
  0
LINE
  5
177
100
AcDbEntity
100
AcDbLine
  8
Bearing Housing
 62
256
370
-1
  6
ByLayer
 10
136.75
 20
-15.5000000000000071
 30
0.0
 11
133.75
 21
-15.5000000000000071
 31
0.0
  0
LINE
  5
178
100
AcDbEntity
100
AcDbLine
  8
Bearing Housing
 62
256
370
-1
  6
ByLayer
 10
130.7499999999999716
 20
-15.5000000000000071
 30
0.0
 11
124.9999999999999716
 21
-15.5000000000000071
 31
0.0
  0
LINE
  5
179
100
AcDbEntity
100
AcDbLine
  8
Bearing Housing
 62
256
370
-1
  6
ByLayer
 10
133.7499999999999716
 20
-11.5
 30
0.0
 11
133.75
 21
-15.5000000000000071
 31
0.0
  0
LINE
  5
17A
100
AcDbEntity
100
AcDbLine
  8
Bearing Housing
 62
256
370
-1
  6
ByLayer
 10
144.3339999999999748
 20
-20.0
 30
0.0
 11
136.75
 21
-19.9999999999999858
 31
0.0
  0
LINE
  5
17B
100
AcDbEntity
100
AcDbLine
  8
Bearing Housing
 62
256
370
-1
  6
ByLayer
 10
175.0
 20
-15.4999999999999858
 30
0.0
 11
169.25
 21
-15.4999999999999645
 31
0.0
  0
LINE
  5
17C
100
AcDbEntity
100
AcDbLine
  8
Bearing Housing
 62
256
370
-1
  6
ByLayer
 10
166.25
 20
-15.4999999999999574
 30
0.0
 11
163.25
 21
-15.4999999999999716
 31
0.0
  0
LINE
  5
17D
100
AcDbEntity
100
AcDbLine
  8
Bearing Housing
 62
256
370
-1
  6
ByLayer
 10
130.75
 20
10.5000000000000426
 30
0.0
 11
124.9999999999999858
 21
10.5000000000000071
 31
0.0
  0
LINE
  5
17E
100
AcDbEntity
100
AcDbLine
  8
Bearing Housing
 62
256
370
-1
  6
ByLayer
 10
145.0
 20
10.4999999999999982
 30
0.0
 11
133.75
 21
10.4999999999999982
 31
0.0
  0
LINE
  5
17F
100
AcDbEntity
100
AcDbLine
  8
Bearing Housing
 62
256
370
-1
  6
ByLayer
 10
169.25
 20
-8.0000000000000249
 30
0.0
 11
169.25
 21
-9.099999999999973
 31
0.0
  0
LINE
  5
180
100
AcDbEntity
100
AcDbLine
  8
Bearing Housing
 62
256
370
-1
  6
ByLayer
 10
166.25
 20
-7.9999999999999716
 30
0.0
 11
166.25
 21
-9.0999999999999908
 31
0.0
  0
LINE
  5
181
100
AcDbEntity
100
AcDbLine
  8
Bearing Housing
 62
256
370
-1
  6
ByLayer
 10
169.25
 20
-8.0000000000000249
 30
0.0
 11
166.25
 21
-7.9999999999999716
 31
0.0
  0
LINE
  5
182
100
AcDbEntity
100
AcDbLine
  8
Bearing Housing
 62
256
370
-1
  6
ByLayer
 10
133.75
 20
-7.9999999999999751
 30
0.0
 11
133.75
 21
-9.0999999999999943
 31
0.0
  0
LINE
  5
183
100
AcDbEntity
100
AcDbLine
  8
Bearing Housing
 62
256
370
-1
  6
ByLayer
 10
130.75
 20
-7.9999999999999645
 30
0.0
 11
130.7499999999999716
 21
-9.1000000000000085
 31
0.0
  0
LINE
  5
184
100
AcDbEntity
100
AcDbLine
  8
Bearing Housing
 62
256
370
-1
  6
ByLayer
 10
133.75
 20
-7.9999999999999751
 30
0.0
 11
130.75
 21
-7.9999999999999645
 31
0.0
  0
LINE
  5
185
100
AcDbEntity
100
AcDbLine
  8
Bearing Housing
 62
256
370
-1
  6
ByLayer
 10
169.2499999999999432
 20
2.2499999999999574
 30
0.0
 11
166.2499999999999716
 21
2.2500000000000675
 31
0.0
  0
LINE
  5
186
100
AcDbEntity
100
AcDbLine
  8
Bearing Housing
 62
256
370
-1
  6
ByLayer
 10
170.5
 20
5.6500000000000128
 30
0.0
 11
170.5
 21
3.2500000000000355
 31
0.0
  0
LINE
  5
187
100
AcDbEntity
100
AcDbLine
  8
Bearing Housing
 62
256
370
-1
  6
ByLayer
 10
165.0
 20
5.6499999999999915
 30
0.0
 11
165.0
 21
3.2500000000000462
 31
0.0
  0
LINE
  5
188
100
AcDbEntity
100
AcDbLine
  8
Bearing Housing
 62
256
370
-1
  6
ByLayer
 10
170.5
 20
3.2500000000000355
 30
0.0
 11
169.25
 21
3.2500000000000178
 31
0.0
  0
LINE
  5
189
100
AcDbEntity
100
AcDbLine
  8
Bearing Housing
 62
256
370
-1
  6
ByLayer
 10
166.2499999999999716
 20
3.2499999999999645
 30
0.0
 11
165.0
 21
3.2500000000000462
 31
0.0
  0
LINE
  5
18A
100
AcDbEntity
100
AcDbLine
  8
Bearing Housing
 62
256
370
-1
  6
ByLayer
 10
170.5
 20
5.6500000000000128
 30
0.0
 11
169.25
 21
5.6499999999999932
 31
0.0
  0
LINE
  5
18B
100
AcDbEntity
100
AcDbLine
  8
Bearing Housing
 62
256
370
-1
  6
ByLayer
 10
166.25
 20
5.649999999999979
 30
0.0
 11
165.0
 21
5.6499999999999915
 31
0.0
  0
LINE
  5
18C
100
AcDbEntity
100
AcDbLine
  8
Bearing Housing
 62
256
370
-1
  6
ByLayer
 10
169.25
 20
3.2500000000000178
 30
0.0
 11
169.2499999999999716
 21
2.2499999999999538
 31
0.0
  0
LINE
  5
18D
100
AcDbEntity
100
AcDbLine
  8
Bearing Housing
 62
256
370
-1
  6
ByLayer
 10
166.2499999999999716
 20
3.2499999999999645
 30
0.0
 11
166.25
 21
2.2500000000000639
 31
0.0
  0
LINE
  5
18E
100
AcDbEntity
100
AcDbLine
  8
Bearing Housing
 62
256
370
-1
  6
ByLayer
 10
169.2499999999999716
 20
10.4999999999999094
 30
0.0
 11
169.25
 21
5.6499999999999932
 31
0.0
  0
LINE
  5
18F
100
AcDbEntity
100
AcDbLine
  8
Bearing Housing
 62
256
370
-1
  6
ByLayer
 10
175.0
 20
10.4999999999999556
 30
0.0
 11
169.2499999999999716
 21
10.4999999999999094
 31
0.0
  0
LINE
  5
190
100
AcDbEntity
100
AcDbLine
  8
Bearing Housing
 62
256
370
-1
  6
ByLayer
 10
166.25
 20
10.4999999999999805
 30
0.0
 11
155.0
 21
10.500000000000016
 31
0.0
  0
LINE
  5
191
100
AcDbEntity
100
AcDbLine
  8
Bearing Housing
 62
256
370
-1
  6
ByLayer
 10
166.25
 20
10.4999999999999805
 30
0.0
 11
166.25
 21
5.649999999999979
 31
0.0
  0
LINE
  5
192
100
AcDbEntity
100
AcDbLine
  8
Bearing Housing
 62
256
370
-1
  6
ByLayer
 10
133.7499999999999716
 20
2.2500000000000036
 30
0.0
 11
130.75
 21
2.2500000000000249
 31
0.0
  0
LINE
  5
193
100
AcDbEntity
100
AcDbLine
  8
Bearing Housing
 62
256
370
-1
  6
ByLayer
 10
135.0
 20
5.650000000000027
 30
0.0
 11
134.9999999999999716
 21
3.2500000000000036
 31
0.0
  0
LINE
  5
194
100
AcDbEntity
100
AcDbLine
  8
Bearing Housing
 62
256
370
-1
  6
ByLayer
 10
129.5
 20
5.6500000000000128
 30
0.0
 11
129.4999999999999716
 21
3.2499999999999929
 31
0.0
  0
LINE
  5
195
100
AcDbEntity
100
AcDbLine
  8
Bearing Housing
 62
256
370
-1
  6
ByLayer
 10
134.9999999999999716
 20
3.2500000000000036
 30
0.0
 11
133.75
 21
3.2500000000000036
 31
0.0
  0
LINE
  5
196
100
AcDbEntity
100
AcDbLine
  8
Bearing Housing
 62
256
370
-1
  6
ByLayer
 10
130.75
 20
3.2500000000000249
 30
0.0
 11
129.4999999999999716
 21
3.2499999999999929
 31
0.0
  0
LINE
  5
197
100
AcDbEntity
100
AcDbLine
  8
Bearing Housing
 62
256
370
-1
  6
ByLayer
 10
135.0
 20
5.650000000000027
 30
0.0
 11
133.75
 21
5.6500000000000181
 31
0.0
  0
LINE
  5
198
100
AcDbEntity
100
AcDbLine
  8
Bearing Housing
 62
256
370
-1
  6
ByLayer
 10
130.75
 20
5.6500000000000217
 30
0.0
 11
129.5
 21
5.6500000000000128
 31
0.0
  0
LINE
  5
199
100
AcDbEntity
100
AcDbLine
  8
Bearing Housing
 62
256
370
-1
  6
ByLayer
 10
133.75
 20
3.2500000000000036
 30
0.0
 11
133.75
 21
2.2500000000000355
 31
0.0
  0
LINE
  5
19A
100
AcDbEntity
100
AcDbLine
  8
Bearing Housing
 62
256
370
-1
  6
ByLayer
 10
130.75
 20
3.2500000000000249
 30
0.0
 11
130.75
 21
2.2500000000000213
 31
0.0
  0
LINE
  5
19B
100
AcDbEntity
100
AcDbLine
  8
Bearing Housing
 62
256
370
-1
  6
ByLayer
 10
133.75
 20
10.4999999999999982
 30
0.0
 11
133.75
 21
5.6500000000000181
 31
0.0
  0
LINE
  5
19C
100
AcDbEntity
100
AcDbLine
  8
Bearing Housing
 62
256
370
-1
  6
ByLayer
 10
130.75
 20
10.500000000000016
 30
0.0
 11
130.75
 21
5.6500000000000217
 31
0.0
  0
LINE
  5
19D
100
AcDbEntity
100
AcDbLine
  8
Bearing Housing
 62
256
370
-1
  6
ByLayer
 10
175.0
 20
-15.4999999999999858
 30
0.0
 11
175.0
 21
-24.3999999999999986
 31
0.0
  0
LINE
  5
19E
100
AcDbEntity
100
AcDbLine
  8
Bearing Housing
 62
256
370
-1
  6
ByLayer
 10
175.0
 20
-24.3999999999999986
 30
0.0
 11
185.0
 21
-24.3999999999999773
 31
0.0
  0
LINE
  5
19F
100
AcDbEntity
100
AcDbLine
  8
Bearing Housing
 62
256
370
-1
  6
ByLayer
 10
114.9999999999999858
 20
-24.3999999999999915
 30
0.0
 11
125.0
 21
-24.3999999999999844
 31
0.0
  0
LINE
  5
1A0
100
AcDbEntity
100
AcDbLine
  8
Bearing Housing
 62
256
370
-1
  6
ByLayer
 10
125.0
 20
-24.3999999999999844
 30
0.0
 11
124.9999999999999716
 21
-15.5000000000000071
 31
0.0
  0
LINE
  5
1A1
100
AcDbEntity
100
AcDbLine
  8
Bearing Housing
 62
256
370
-1
  6
ByLayer
 10
185.0
 20
19.5000000000003304
 30
0.0
 11
175.0
 21
19.5000000000004654
 31
0.0
  0
LINE
  5
1A2
100
AcDbEntity
100
AcDbLine
  8
Bearing Housing
 62
256
370
-1
  6
ByLayer
 10
155.0
 20
19.5000000000005222
 30
0.0
 11
145.0
 21
19.5000000000000249
 31
0.0
  0
LINE
  5
1A3
100
AcDbEntity
100
AcDbLine
  8
Bearing Housing
 62
256
370
-1
  6
ByLayer
 10
124.9999999999999858
 20
19.4999999999998401
 30
0.0
 11
115.0
 21
19.4999999999999964
 31
0.0
  0
LINE
  5
1A4
100
AcDbEntity
100
AcDbLine
  8
Bearing Housing
 62
256
370
-1
  6
ByLayer
 10
175.0
 20
19.5000000000004654
 30
0.0
 11
175.0
 21
10.4999999999999556
 31
0.0
  0
LINE
  5
1A5
100
AcDbEntity
100
AcDbLine
  8
Bearing Housing
 62
256
370
-1
  6
ByLayer
 10
185.0
 20
-24.3999999999999773
 30
0.0
 11
185.0
 21
19.5000000000003304
 31
0.0
  0
LINE
  5
1A6
100
AcDbEntity
100
AcDbLine
  8
Bearing Housing
 62
256
370
-1
  6
ByLayer
 10
155.0
 20
19.5000000000005222
 30
0.0
 11
155.0
 21
10.500000000000016
 31
0.0
  0
LINE
  5
1A7
100
AcDbEntity
100
AcDbLine
  8
Bearing Housing
 62
256
370
-1
  6
ByLayer
 10
145.0
 20
19.5000000000000249
 30
0.0
 11
145.0
 21
10.4999999999999982
 31
0.0
  0
LINE
  5
1A8
100
AcDbEntity
100
AcDbLine
  8
Bearing Housing
 62
256
370
-1
  6
ByLayer
 10
124.9999999999999858
 20
10.5000000000000071
 30
0.0
 11
124.9999999999999858
 21
19.4999999999998401
 31
0.0
  0
LINE
  5
1A9
100
AcDbEntity
100
AcDbLine
  8
Bearing Housing
 62
256
370
-1
  6
ByLayer
 10
115.0
 20
19.4999999999999964
 30
0.0
 11
114.9999999999999858
 21
-24.3999999999999915
 31
0.0
  0
LINE
  5
1AA
100
AcDbEntity
100
AcDbLine
  8
Bearing Housing
 62
256
370
-1
  6
ByLayer
 10
175.0
 20
-0.6249999999999822
 30
0.0
 11
175.0
 21
-5.1250000000000391
 31
0.0
  0
LINE
  5
1AB
100
AcDbEntity
100
AcDbLine
  8
Bearing Housing
 62
256
370
-1
  6
ByLayer
 10
175.0
 20
-0.6249999999999822
 30
0.0
 11
170.5
 21
-0.6249999999999858
 31
0.0
  0
LINE
  5
1AC
100
AcDbEntity
100
AcDbLine
  8
Bearing Housing
 62
256
370
-1
  6
ByLayer
 10
175.0
 20
-5.1250000000000391
 30
0.0
 11
170.5
 21
-5.1249999999999609
 31
0.0
  0
LINE
  5
1AD
100
AcDbEntity
100
AcDbLine
  8
Bearing Housing
 62
256
370
-1
  6
ByLayer
 10
170.5
 20
-0.6249999999999858
 30
0.0
 11
170.5
 21
-5.1249999999999609
 31
0.0
  0
LINE
  5
1AE
100
AcDbEntity
100
AcDbLine
  8
Bearing Housing
 62
256
370
-1
  6
ByLayer
 10
129.5
 20
-0.6249999999999822
 30
0.0
 11
129.5
 21
-5.1249999999999716
 31
0.0
  0
LINE
  5
1AF
100
AcDbEntity
100
AcDbLine
  8
Bearing Housing
 62
256
370
-1
  6
ByLayer
 10
129.5
 20
-0.6249999999999822
 30
0.0
 11
125.0
 21
-0.6249999999999716
 31
0.0
  0
LINE
  5
1B0
100
AcDbEntity
100
AcDbLine
  8
Bearing Housing
 62
256
370
-1
  6
ByLayer
 10
129.5
 20
-5.1249999999999716
 30
0.0
 11
124.9999999999999858
 21
-5.1249999999999893
 31
0.0
  0
LINE
  5
1B1
100
AcDbEntity
100
AcDbLine
  8
Bearing Housing
 62
256
370
-1
  6
ByLayer
 10
125.0
 20
-0.6249999999999716
 30
0.0
 11
124.9999999999999858
 21
-5.1249999999999893
 31
0.0
  0
CIRCLE
  5
1B2
100
AcDbEntity
100
AcDbCircle
  8
Bearing Retainer
 62
256
370
-1
  6
ByLayer
 10
-6.9999999999999716
 20
98.8729833462074055
 30
0.0
 40
6.0
  0
LINE
  5
1B3
100
AcDbEntity
100
AcDbLine
  8
Left Plate
 62
256
370
-1
  6
ByLayer
 10
-50.5
 20
-4.69999999999997
 30
0.0
 11
-50.5
 21
-0.199999999999964
 31
0.0
  0
LINE
  5
1B4
100
AcDbEntity
100
AcDbLine
  8
Left Plate
 62
256
370
-1
  6
ByLayer
 10
-94.5
 20
-0.1999999999999638
 30
0.0
 11
-90.0
 21
-0.1999999999999642
 31
0.0
  0
LINE
  5
1B5
100
AcDbEntity
100
AcDbLine
  8
Left Plate
 62
256
370
-1
  6
ByLayer
 10
-94.5
 20
-4.6999999999999638
 30
0.0
 11
-90.0
 21
-4.6999999999999638
 31
0.0
  0
LINE
  5
1B6
100
AcDbEntity
100
AcDbLine
  8
0
 62
256
370
-1
  6
ByLayer
 10
-55.0
 20
-0.199999999999964
 30
0.0
 11
-50.5
 21
-0.199999999999964
 31
0.0
  0
LINE
  5
1B7
100
AcDbEntity
100
AcDbLine
  8
0
 62
256
370
-1
  6
ByLayer
 10
-50.5
 20
-4.69999999999997
 30
0.0
 11
-55.0
 21
-4.6999999999999673
 31
0.0
  0
LINE
  5
1B8
100
AcDbEntity
100
AcDbLine
  8
0
 62
256
370
-1
  6
ByLayer
 10
-94.5
 20
-4.6999999999999638
 30
0.0
 11
-94.5
 21
-0.1999999999999638
 31
0.0
  0
LINE
  5
1B9
100
AcDbEntity
100
AcDbLine
  8
screw-lines
 62
256
370
-1
  6
ByLayer
 10
-24.9999999999999858
 20
10.500000000000016
 30
0.0
 11
-90.0
 21
10.500000000000016
 31
0.0
  0
LINE
  5
1BA
100
AcDbEntity
100
AcDbLine
  8
screw-lines
 62
256
370
-1
  6
ByLayer
 10
-25.0
 20
-15.499999999999984
 30
0.0
 11
-90.0
 21
-15.499999999999984
 31
0.0
  0
LINE
  5
1BB
100
AcDbEntity
100
AcDbLine
  8
Left Plate
 62
256
370
-1
  6
ByLayer
 10
-90.0
 20
-0.1999999999999636
 30
0.0
 11
-90.0
 21
10.500000000000016
 31
0.0
  0
LINE
  5
1BC
100
AcDbEntity
100
AcDbLine
  8
Left Plate
 62
256
370
-1
  6
ByLayer
 10
-55.0
 20
-0.199999999999964
 30
0.0
 11
-55.0
 21
10.500000000000016
 31
0.0
  0
LINE
  5
1BD
100
AcDbEntity
100
AcDbLine
  8
Left Plate
 62
256
370
-1
  6
ByLayer
 10
-55.0
 20
-15.499999999999984
 30
0.0
 11
-55.0
 21
-4.6999999999999673
 31
0.0
  0
LINE
  5
1BE
100
AcDbEntity
100
AcDbLine
  8
Left Plate
 62
256
370
-1
  6
ByLayer
 10
-90.0
 20
-15.499999999999984
 30
0.0
 11
-90.0
 21
-4.6999999999999638
 31
0.0
  0
LINE
  5
1BF
100
AcDbEntity
100
AcDbLine
  8
drawings
 62
256
370
-1
  6
ByLayer
 10
-72.5
 20
-15.4999999999999858
 30
0.0
 11
-72.5
 21
10.5000000000000142
 31
0.0
  0
LINE
  5
1C0
100
AcDbEntity
100
AcDbLine
  8
drawings
 62
256
370
-1
  6
ByLayer
 10
-94.5
 20
-2.4499999999999633
 30
0.0
 11
-50.5
 21
-2.4499999999999673
 31
0.0
  0
LINE
  5
1C1
100
AcDbEntity
100
AcDbLine
  8
drawings
 62
256
370
-1
  6
ByLayer
 10
-55.0
 20
-10.9999999999999876
 30
0.0
 11
-90.0
 21
-10.999999999999984
 31
0.0
  0
LINE
  5
1C2
100
AcDbEntity
100
AcDbLine
  8
drawings
 62
256
370
-1
  6
ByLayer
 10
-90.0
 20
8.250000000000016
 30
0.0
 11
-55.0
 21
8.2500000000000124
 31
0.0
  0
LINE
  5
1C3
100
AcDbEntity
100
AcDbLine
  8
drawings
 62
256
370
-1
  6
ByLayer
 10
-90.0
 20
6.000000000000016
 30
0.0
 11
-55.0
 21
6.0000000000000124
 31
0.0
  0
LINE
  5
1C4
100
AcDbEntity
100
AcDbLine
  8
drawings
 62
256
370
-1
  6
ByLayer
 10
-55.0
 20
-13.2499999999999876
 30
0.0
 11
-90.0
 21
-13.249999999999984
 31
0.0
  0
LINE
  5
1C5
100
AcDbEntity
100
AcDbLine
  8
Bearing Housing
 62
256
370
-1
  6
ByLayer
 10
-75.2500000000000142
 20
-9.0999999999999854
 30
0.0
 11
-75.2500000000000142
 21
-11.4999999999999876
 31
0.0
  0
LINE
  5
1C6
100
AcDbEntity
100
AcDbLine
  8
Bearing Housing
 62
256
370
-1
  6
ByLayer
 10
-69.7500000000000142
 20
-9.0999999999999854
 30
0.0
 11
-69.7500000000000142
 21
-11.4999999999999876
 31
0.0
  0
LINE
  5
1C7
100
AcDbEntity
100
AcDbLine
  8
Bearing Housing
 62
256
370
-1
  6
ByLayer
 10
-75.2500000000000142
 20
-9.0999999999999854
 30
0.0
 11
-74.0000000000000142
 21
-9.0999999999999854
 31
0.0
  0
LINE
  5
1C8
100
AcDbEntity
100
AcDbLine
  8
Bearing Housing
 62
256
370
-1
  6
ByLayer
 10
-71.0000000000000142
 20
-9.0999999999999854
 30
0.0
 11
-69.7500000000000142
 21
-9.0999999999999854
 31
0.0
  0
LINE
  5
1C9
100
AcDbEntity
100
AcDbLine
  8
Bearing Housing
 62
256
370
-1
  6
ByLayer
 10
-75.2500000000000142
 20
-11.4999999999999876
 30
0.0
 11
-74.0000000000000142
 21
-11.4999999999999876
 31
0.0
  0
LINE
  5
1CA
100
AcDbEntity
100
AcDbLine
  8
Bearing Housing
 62
256
370
-1
  6
ByLayer
 10
-71.0000000000000142
 20
-11.4999999999999876
 30
0.0
 11
-69.7500000000000142
 21
-11.4999999999999876
 31
0.0
  0
LINE
  5
1CB
100
AcDbEntity
100
AcDbLine
  8
Bearing Housing
 62
256
370
-1
  6
ByLayer
 10
-74.0000000000000142
 20
-11.4999999999999858
 30
0.0
 11
-74.0000000000000142
 21
-15.4999999999999822
 31
0.0
  0
LINE
  5
1CC
100
AcDbEntity
100
AcDbLine
  8
Bearing Housing
 62
256
370
-1
  6
ByLayer
 10
-71.0000000000000142
 20
-11.4999999999999858
 30
0.0
 11
-71.0000000000000142
 21
-15.4999999999999805
 31
0.0
  0
LINE
  5
1CD
100
AcDbEntity
100
AcDbLine
  8
Bearing Housing
 62
256
370
-1
  6
ByLayer
 10
-74.0000000000000142
 20
-7.9999999999999858
 30
0.0
 11
-74.0000000000000142
 21
-9.0999999999999854
 31
0.0
  0
LINE
  5
1CE
100
AcDbEntity
100
AcDbLine
  8
Bearing Housing
 62
256
370
-1
  6
ByLayer
 10
-71.0000000000000142
 20
-7.9999999999999858
 30
0.0
 11
-71.0000000000000142
 21
-9.0999999999999854
 31
0.0
  0
LINE
  5
1CF
100
AcDbEntity
100
AcDbLine
  8
Bearing Housing
 62
256
370
-1
  6
ByLayer
 10
-74.0000000000000142
 20
-7.9999999999999858
 30
0.0
 11
-71.0000000000000142
 21
-7.9999999999999858
 31
0.0
  0
LINE
  5
1D0
100
AcDbEntity
100
AcDbLine
  8
Bearing Housing
 62
256
370
-1
  6
ByLayer
 10
-74.0
 20
2.250000000000016
 30
0.0
 11
-71.0
 21
2.250000000000016
 31
0.0
  0
LINE
  5
1D1
100
AcDbEntity
100
AcDbLine
  8
Bearing Housing
 62
256
370
-1
  6
ByLayer
 10
-75.25
 20
5.6500000000000181
 30
0.0
 11
-75.25
 21
3.250000000000016
 31
0.0
  0
LINE
  5
1D2
100
AcDbEntity
100
AcDbLine
  8
Bearing Housing
 62
256
370
-1
  6
ByLayer
 10
-69.75
 20
5.6500000000000181
 30
0.0
 11
-69.75
 21
3.250000000000016
 31
0.0
  0
LINE
  5
1D3
100
AcDbEntity
100
AcDbLine
  8
Bearing Housing
 62
256
370
-1
  6
ByLayer
 10
-75.25
 20
3.250000000000016
 30
0.0
 11
-74.0
 21
3.250000000000016
 31
0.0
  0
LINE
  5
1D4
100
AcDbEntity
100
AcDbLine
  8
Bearing Housing
 62
256
370
-1
  6
ByLayer
 10
-71.0
 20
3.250000000000016
 30
0.0
 11
-69.75
 21
3.250000000000016
 31
0.0
  0
LINE
  5
1D5
100
AcDbEntity
100
AcDbLine
  8
Bearing Housing
 62
256
370
-1
  6
ByLayer
 10
-75.25
 20
5.6500000000000181
 30
0.0
 11
-74.0
 21
5.6500000000000181
 31
0.0
  0
LINE
  5
1D6
100
AcDbEntity
100
AcDbLine
  8
Bearing Housing
 62
256
370
-1
  6
ByLayer
 10
-71.0
 20
5.6500000000000181
 30
0.0
 11
-69.75
 21
5.6500000000000181
 31
0.0
  0
LINE
  5
1D7
100
AcDbEntity
100
AcDbLine
  8
Bearing Housing
 62
256
370
-1
  6
ByLayer
 10
-74.0
 20
3.250000000000016
 30
0.0
 11
-74.0
 21
2.250000000000016
 31
0.0
  0
LINE
  5
1D8
100
AcDbEntity
100
AcDbLine
  8
Bearing Housing
 62
256
370
-1
  6
ByLayer
 10
-71.0
 20
3.250000000000016
 30
0.0
 11
-71.0
 21
2.250000000000016
 31
0.0
  0
LINE
  5
1D9
100
AcDbEntity
100
AcDbLine
  8
Bearing Housing
 62
256
370
-1
  6
ByLayer
 10
-74.0
 20
10.500000000000016
 30
0.0
 11
-74.0
 21
5.6500000000000181
 31
0.0
  0
LINE
  5
1DA
100
AcDbEntity
100
AcDbLine
  8
Bearing Housing
 62
256
370
-1
  6
ByLayer
 10
-71.0
 20
10.500000000000016
 30
0.0
 11
-71.0
 21
5.6500000000000181
 31
0.0
  0
LINE
  5
1DB
100
AcDbEntity
100
AcDbLine
  8
Left Plate
 62
256
370
-1
  6
ByLayer
 10
-25.0000000000000071
 20
-45.125
 30
0.0
 11
-20.5000000000000107
 21
-45.125
 31
0.0
  0
LINE
  5
1DC
100
AcDbEntity
100
AcDbLine
  8
Left Plate
 62
256
370
-1
  6
ByLayer
 10
-20.5000000000000107
 20
-45.125
 30
0.0
 11
-20.5000000000000107
 21
-49.625
 31
0.0
  0
LINE
  5
1DD
100
AcDbEntity
100
AcDbLine
  8
Left Plate
 62
256
370
-1
  6
ByLayer
 10
-20.5000000000000107
 20
-49.625
 30
0.0
 11
-25.0000000000000071
 21
-49.625
 31
0.0
  0
LINE
  5
1DE
100
AcDbEntity
100
AcDbLine
  8
Bearing Housing
 62
256
370
-1
  6
ByLayer
 10
-25.0000000000000071
 20
-37.5
 30
0.0
 11
-25.0000000000000071
 21
-45.125
 31
0.0
  0
LINE
  5
1DF
100
AcDbEntity
100
AcDbLine
  8
Left Plate
 62
256
370
-1
  6
ByLayer
 10
-25.0000000000000071
 20
-64.875
 30
0.0
 11
-20.5000000000000107
 21
-64.875
 31
0.0
  0
LINE
  5
1E0
100
AcDbEntity
100
AcDbLine
  8
Left Plate
 62
256
370
-1
  6
ByLayer
 10
-20.5000000000000107
 20
-64.875
 30
0.0
 11
-20.5000000000000107
 21
-60.375
 31
0.0
  0
LINE
  5
1E1
100
AcDbEntity
100
AcDbLine
  8
Left Plate
 62
256
370
-1
  6
ByLayer
 10
-20.5000000000000107
 20
-60.375
 30
0.0
 11
-25.0000000000000071
 21
-60.375
 31
0.0
  0
LINE
  5
1E2
100
AcDbEntity
100
AcDbLine
  8
Bearing Housing
 62
256
370
-1
  6
ByLayer
 10
-25.0000000000000071
 20
-49.625
 30
0.0
 11
-25.0000000000000071
 21
-60.375
 31
0.0
  0
LINE
  5
1E3
100
AcDbEntity
100
AcDbLine
  8
Bearing Housing
 62
256
370
-1
  6
ByLayer
 10
-25.0000000000000107
 20
-64.875
 30
0.0
 11
-25.0000000000000107
 21
-72.5
 31
0.0
  0
LINE
  5
1E4
100
AcDbEntity
100
AcDbLine
  8
Left Plate
 62
256
370
-1
  6
ByLayer
 10
25.0000000000000107
 20
-45.1250000000000426
 30
0.0
 11
20.5000000000000142
 21
-45.1250000000000142
 31
0.0
  0
LINE
  5
1E5
100
AcDbEntity
100
AcDbLine
  8
Left Plate
 62
256
370
-1
  6
ByLayer
 10
20.5000000000000142
 20
-45.1250000000000142
 30
0.0
 11
20.5000000000000107
 21
-49.6250000000000071
 31
0.0
  0
LINE
  5
1E6
100
AcDbEntity
100
AcDbLine
  8
Left Plate
 62
256
370
-1
  6
ByLayer
 10
20.5000000000000107
 20
-49.6250000000000071
 30
0.0
 11
25.0000000000000071
 21
-49.6250000000000142
 31
0.0
  0
LINE
  5
1E7
100
AcDbEntity
100
AcDbLine
  8
Left Plate
 62
256
370
-1
  6
ByLayer
 10
25.0000000000000071
 20
-64.875
 30
0.0
 11
20.5000000000000071
 21
-64.875
 31
0.0
  0
LINE
  5
1E8
100
AcDbEntity
100
AcDbLine
  8
Left Plate
 62
256
370
-1
  6
ByLayer
 10
20.5000000000000071
 20
-64.875
 30
0.0
 11
20.5000000000000178
 21
-60.3749999999999858
 31
0.0
  0
LINE
  5
1E9
100
AcDbEntity
100
AcDbLine
  8
Left Plate
 62
256
370
-1
  6
ByLayer
 10
20.5000000000000178
 20
-60.3749999999999858
 30
0.0
 11
25.0000000000000107
 21
-60.3749999999999858
 31
0.0
  0
LINE
  5
1EA
100
AcDbEntity
100
AcDbLine
  8
Bearing Housing
 62
256
370
-1
  6
ByLayer
 10
25.0
 20
-37.5
 30
0.0
 11
25.0
 21
-45.1250000000000426
 31
0.0
  0
LINE
  5
1EB
100
AcDbEntity
100
AcDbLine
  8
Bearing Housing
 62
256
370
-1
  6
ByLayer
 10
25.0
 20
-49.6250000000000142
 30
0.0
 11
25.0
 21
-60.3749999999999858
 31
0.0
  0
LINE
  5
1EC
100
AcDbEntity
100
AcDbLine
  8
Bearing Housing
 62
256
370
-1
  6
ByLayer
 10
24.9999999999999964
 20
-64.875
 30
0.0
 11
24.9999999999999964
 21
-72.5
 31
0.0
  0
LINE
  5
1ED
100
AcDbEntity
100
AcDbLine
  8
Left Plate
 62
256
370
-1
  6
ByLayer
 10
-62.625
 20
-15.4999999999999858
 30
0.0
 11
-62.625
 21
-19.9999999999999858
 31
0.0
  0
LINE
  5
1EE
100
AcDbEntity
100
AcDbLine
  8
Left Plate
 62
256
370
-1
  6
ByLayer
 10
-62.625
 20
-19.9999999999999858
 30
0.0
 11
-67.125
 21
-19.9999999999999858
 31
0.0
  0
LINE
  5
1EF
100
AcDbEntity
100
AcDbLine
  8
Left Plate
 62
256
370
-1
  6
ByLayer
 10
-67.125
 20
-19.9999999999999858
 30
0.0
 11
-67.125
 21
-15.4999999999999858
 31
0.0
  0
LINE
  5
1F0
100
AcDbEntity
100
AcDbLine
  8
Left Plate
 62
256
370
-1
  6
ByLayer
 10
-82.375
 20
-15.4999999999999858
 30
0.0
 11
-82.375
 21
-19.9999999999999858
 31
0.0
  0
LINE
  5
1F1
100
AcDbEntity
100
AcDbLine
  8
Left Plate
 62
256
370
-1
  6
ByLayer
 10
-82.375
 20
-19.9999999999999858
 30
0.0
 11
-77.875
 21
-19.9999999999999858
 31
0.0
  0
LINE
  5
1F2
100
AcDbEntity
100
AcDbLine
  8
Left Plate
 62
256
370
-1
  6
ByLayer
 10
-77.875
 20
-19.9999999999999858
 30
0.0
 11
-77.875
 21
-15.4999999999999858
 31
0.0
  0
LINE
  5
1F3
100
AcDbEntity
100
AcDbLine
  8
Bearing Housing
 62
256
370
-1
  6
ByLayer
 10
-67.125
 20
-15.4999999999999858
 30
0.0
 11
-71.0000000000000142
 21
-15.4999999999999858
 31
0.0
  0
LINE
  5
1F4
100
AcDbEntity
100
AcDbLine
  8
Bearing Housing
 62
256
370
-1
  6
ByLayer
 10
-74.0000000000000142
 20
-15.4999999999999858
 30
0.0
 11
-77.875
 21
-15.4999999999999858
 31
0.0
  0
LINE
  5
1F5
100
AcDbEntity
100
AcDbLine
  8
Left Plate
 62
256
370
-1
  6
ByLayer
 10
-74.0000000000000142
 20
-15.4999999999999858
 30
0.0
 11
-77.875
 21
-15.4999999999999858
 31
0.0
  0
LINE
  5
1F6
100
AcDbEntity
100
AcDbLine
  8
Left Plate
 62
256
370
-1
  6
ByLayer
 10
-82.375
 20
-15.499999999999984
 30
0.0
 11
-90.0
 21
-15.499999999999984
 31
0.0
  0
LINE
  5
1F7
100
AcDbEntity
100
AcDbLine
  8
Left Plate
 62
256
370
-1
  6
ByLayer
 10
-55.0
 20
-15.4999999999999876
 30
0.0
 11
-62.625
 21
-15.4999999999999876
 31
0.0
  0
LINE
  5
1F8
100
AcDbEntity
100
AcDbLine
  8
Left Plate
 62
256
370
-1
  6
ByLayer
 10
-67.125
 20
-15.4999999999999858
 30
0.0
 11
-71.0000000000000142
 21
-15.4999999999999858
 31
0.0
  0
LINE
  5
1F9
100
AcDbEntity
100
AcDbLine
  8
Left Plate
 62
256
370
-1
  6
ByLayer
 10
-62.625
 20
10.6000000000000671
 30
0.0
 11
-62.625
 21
15.1000000000000547
 31
0.0
  0
LINE
  5
1FA
100
AcDbEntity
100
AcDbLine
  8
Left Plate
 62
256
370
-1
  6
ByLayer
 10
-62.625
 20
15.1000000000000547
 30
0.0
 11
-67.125
 21
15.1000000000000547
 31
0.0
  0
LINE
  5
1FB
100
AcDbEntity
100
AcDbLine
  8
Left Plate
 62
256
370
-1
  6
ByLayer
 10
-67.125
 20
15.1000000000000547
 30
0.0
 11
-67.125
 21
10.60000000000006
 31
0.0
  0
LINE
  5
1FC
100
AcDbEntity
100
AcDbLine
  8
Left Plate
 62
256
370
-1
  6
ByLayer
 10
-82.375
 20
10.6000000000000583
 30
0.0
 11
-82.375
 21
15.1000000000000583
 31
0.0
  0
LINE
  5
1FD
100
AcDbEntity
100
AcDbLine
  8
Left Plate
 62
256
370
-1
  6
ByLayer
 10
-82.375
 20
15.1000000000000583
 30
0.0
 11
-77.875
 21
15.1000000000000547
 31
0.0
  0
LINE
  5
1FE
100
AcDbEntity
100
AcDbLine
  8
Left Plate
 62
256
370
-1
  6
ByLayer
 10
-77.875
 20
15.1000000000000547
 30
0.0
 11
-77.875
 21
10.6000000000000565
 31
0.0
  0
LINE
  5
1FF
100
AcDbEntity
100
AcDbLine
  8
Bearing Housing
 62
256
370
-1
  6
ByLayer
 10
-67.125
 20
10.60000000000006
 30
0.0
 11
-71.0000000000000142
 21
10.6000000000000547
 31
0.0
  0
LINE
  5
200
100
AcDbEntity
100
AcDbLine
  8
Bearing Housing
 62
256
370
-1
  6
ByLayer
 10
-74.0000000000000142
 20
10.6000000000000565
 30
0.0
 11
-77.875
 21
10.6000000000000565
 31
0.0
  0
LINE
  5
201
100
AcDbEntity
100
AcDbLine
  8
Left Plate
 62
256
370
-1
  6
ByLayer
 10
-74.0000000000000142
 20
10.6000000000000565
 30
0.0
 11
-77.875
 21
10.6000000000000565
 31
0.0
  0
LINE
  5
202
100
AcDbEntity
100
AcDbLine
  8
Left Plate
 62
256
370
-1
  6
ByLayer
 10
-82.375
 20
10.6000000000000565
 30
0.0
 11
-90.0000000000000142
 21
10.6000000000000529
 31
0.0
  0
LINE
  5
203
100
AcDbEntity
100
AcDbLine
  8
Left Plate
 62
256
370
-1
  6
ByLayer
 10
-54.9999999999999858
 20
10.6000000000000458
 30
0.0
 11
-62.625
 21
10.6000000000000671
 31
0.0
  0
LINE
  5
204
100
AcDbEntity
100
AcDbLine
  8
Left Plate
 62
256
370
-1
  6
ByLayer
 10
-67.125
 20
10.60000000000006
 30
0.0
 11
-71.0000000000000142
 21
10.6000000000000547
 31
0.0
  0
LINE
  5
205
100
AcDbEntity
100
AcDbLine
  8
Left Plate
 62
256
370
-1
  6
ByLayer
 10
50.4999999999999929
 20
-4.7000000000000171
 30
0.0
 11
50.4999999999999929
 21
-0.1999999999999797
 31
0.0
  0
LINE
  5
206
100
AcDbEntity
100
AcDbLine
  8
Left Plate
 62
256
370
-1
  6
ByLayer
 10
94.5
 20
-0.1999999999999265
 30
0.0
 11
90.0
 21
-0.2000000000000126
 31
0.0
  0
LINE
  5
207
100
AcDbEntity
100
AcDbLine
  8
Left Plate
 62
256
370
-1
  6
ByLayer
 10
94.4999999999999858
 20
-4.7000000000001165
 30
0.0
 11
90.0
 21
-4.6999999999999922
 31
0.0
  0
LINE
  5
208
100
AcDbEntity
100
AcDbLine
  8
0
 62
256
370
-1
  6
ByLayer
 10
54.9999999999999929
 20
-0.2000000000000091
 30
0.0
 11
50.4999999999999929
 21
-0.1999999999999797
 31
0.0
  0
LINE
  5
209
100
AcDbEntity
100
AcDbLine
  8
0
 62
256
370
-1
  6
ByLayer
 10
50.4999999999999929
 20
-4.7000000000000171
 30
0.0
 11
55.0
 21
-4.6999999999999975
 31
0.0
  0
LINE
  5
20A
100
AcDbEntity
100
AcDbLine
  8
0
 62
256
370
-1
  6
ByLayer
 10
94.4999999999999858
 20
-4.7000000000001165
 30
0.0
 11
94.5
 21
-0.1999999999999265
 31
0.0
  0
LINE
  5
20B
100
AcDbEntity
100
AcDbLine
  8
Left Plate
 62
256
370
-1
  6
ByLayer
 10
90.0
 20
-0.2000000000000126
 30
0.0
 11
90.0
 21
10.4999999999998987
 31
0.0
  0
LINE
  5
20C
100
AcDbEntity
100
AcDbLine
  8
Left Plate
 62
256
370
-1
  6
ByLayer
 10
54.9999999999999929
 20
-0.2000000000000091
 30
0.0
 11
55.0000000000000071
 21
10.4999999999999041
 31
0.0
  0
LINE
  5
20D
100
AcDbEntity
100
AcDbLine
  8
Left Plate
 62
256
370
-1
  6
ByLayer
 10
54.9999999999999787
 20
-15.5000000000000391
 30
0.0
 11
55.0
 21
-4.6999999999999975
 31
0.0
  0
LINE
  5
20E
100
AcDbEntity
100
AcDbLine
  8
Left Plate
 62
256
370
-1
  6
ByLayer
 10
89.9999999999999858
 20
-15.5000000000000355
 30
0.0
 11
90.0
 21
-4.6999999999999922
 31
0.0
  0
LINE
  5
20F
100
AcDbEntity
100
AcDbLine
  8
drawings
 62
256
370
-1
  6
ByLayer
 10
72.5
 20
-15.4999999999999751
 30
0.0
 11
72.5
 21
10.4999999999999911
 31
0.0
  0
LINE
  5
210
100
AcDbEntity
100
AcDbLine
  8
drawings
 62
256
370
-1
  6
ByLayer
 10
94.4999999999999858
 20
-2.4500000000001005
 30
0.0
 11
50.5
 21
-2.4499999999999771
 31
0.0
  0
LINE
  5
211
100
AcDbEntity
100
AcDbLine
  8
drawings
 62
256
370
-1
  6
ByLayer
 10
55.0
 20
-10.9999999999999858
 30
0.0
 11
90.0
 21
-11.0
 31
0.0
  0
LINE
  5
212
100
AcDbEntity
100
AcDbLine
  8
drawings
 62
256
370
-1
  6
ByLayer
 10
90.0000000000000142
 20
8.2499999999999734
 30
0.0
 11
55.0
 21
8.2500000000000497
 31
0.0
  0
LINE
  5
213
100
AcDbEntity
100
AcDbLine
  8
drawings
 62
256
370
-1
  6
ByLayer
 10
90.0
 20
5.999999999998419
 30
0.0
 11
55.0
 21
5.9999999999997158
 31
0.0
  0
LINE
  5
214
100
AcDbEntity
100
AcDbLine
  8
drawings
 62
256
370
-1
  6
ByLayer
 10
54.9999999999999929
 20
-13.25
 30
0.0
 11
89.9999999999999858
 21
-13.2500000000000533
 31
0.0
  0
LINE
  5
215
100
AcDbEntity
100
AcDbLine
  8
Bearing Housing
 62
256
370
-1
  6
ByLayer
 10
75.25
 20
-9.1000000000000476
 30
0.0
 11
75.2500000000000142
 21
-11.5000000000000249
 31
0.0
  0
LINE
  5
216
100
AcDbEntity
100
AcDbLine
  8
Bearing Housing
 62
256
370
-1
  6
ByLayer
 10
69.75
 20
-9.0999999999999925
 30
0.0
 11
69.7500000000000142
 21
-11.500000000000032
 31
0.0
  0
LINE
  5
217
100
AcDbEntity
100
AcDbLine
  8
Bearing Housing
 62
256
370
-1
  6
ByLayer
 10
75.25
 20
-9.1000000000000476
 30
0.0
 11
74.0000000000000142
 21
-9.1000000000000352
 31
0.0
  0
LINE
  5
218
100
AcDbEntity
100
AcDbLine
  8
Bearing Housing
 62
256
370
-1
  6
ByLayer
 10
71.0000000000000142
 20
-9.0999999999999872
 30
0.0
 11
69.75
 21
-9.0999999999999925
 31
0.0
  0
LINE
  5
219
100
AcDbEntity
100
AcDbLine
  8
Bearing Housing
 62
256
370
-1
  6
ByLayer
 10
75.2500000000000142
 20
-11.5000000000000249
 30
0.0
 11
74.0000000000000142
 21
-11.4999999999999929
 31
0.0
  0
LINE
  5
21A
100
AcDbEntity
100
AcDbLine
  8
Bearing Housing
 62
256
370
-1
  6
ByLayer
 10
71.0
 20
-11.5000000000000355
 30
0.0
 11
69.7500000000000142
 21
-11.500000000000032
 31
0.0
  0
LINE
  5
21B
100
AcDbEntity
100
AcDbLine
  8
Bearing Housing
 62
256
370
-1
  6
ByLayer
 10
74.0000000000000142
 20
-11.4999999999999929
 30
0.0
 11
73.9999999999999858
 21
-15.5000000000000639
 31
0.0
  0
LINE
  5
21C
100
AcDbEntity
100
AcDbLine
  8
Bearing Housing
 62
256
370
-1
  6
ByLayer
 10
71.0
 20
-11.5000000000000355
 30
0.0
 11
71.0000000000000142
 21
-15.4999999999999929
 31
0.0
  0
LINE
  5
21D
100
AcDbEntity
100
AcDbLine
  8
Bearing Housing
 62
256
370
-1
  6
ByLayer
 10
74.0
 20
-8.0000000000000799
 30
0.0
 11
74.0000000000000142
 21
-9.1000000000000352
 31
0.0
  0
LINE
  5
21E
100
AcDbEntity
100
AcDbLine
  8
Bearing Housing
 62
256
370
-1
  6
ByLayer
 10
71.0
 20
-8.0000000000000551
 30
0.0
 11
71.0000000000000142
 21
-9.0999999999999872
 31
0.0
  0
LINE
  5
21F
100
AcDbEntity
100
AcDbLine
  8
Bearing Housing
 62
256
370
-1
  6
ByLayer
 10
74.0
 20
-8.0000000000000799
 30
0.0
 11
71.0
 21
-8.0000000000000551
 31
0.0
  0
LINE
  5
220
100
AcDbEntity
100
AcDbLine
  8
Bearing Housing
 62
256
370
-1
  6
ByLayer
 10
74.0
 20
2.249999999999889
 30
0.0
 11
71.0
 21
2.2499999999999858
 31
0.0
  0
LINE
  5
221
100
AcDbEntity
100
AcDbLine
  8
Bearing Housing
 62
256
370
-1
  6
ByLayer
 10
75.25
 20
5.6500000000019055
 30
0.0
 11
75.25
 21
3.2499999999998446
 31
0.0
  0
LINE
  5
222
100
AcDbEntity
100
AcDbLine
  8
Bearing Housing
 62
256
370
-1
  6
ByLayer
 10
69.75
 20
5.6499999999998609
 30
0.0
 11
69.75
 21
3.2499999999997358
 31
0.0
  0
LINE
  5
223
100
AcDbEntity
100
AcDbLine
  8
Bearing Housing
 62
256
370
-1
  6
ByLayer
 10
75.25
 20
3.2499999999998446
 30
0.0
 11
74.0
 21
3.2499999999998987
 31
0.0
  0
LINE
  5
224
100
AcDbEntity
100
AcDbLine
  8
Bearing Housing
 62
256
370
-1
  6
ByLayer
 10
71.0
 20
3.2500000000003317
 30
0.0
 11
69.75
 21
3.2499999999997358
 31
0.0
  0
LINE
  5
225
100
AcDbEntity
100
AcDbLine
  8
Bearing Housing
 62
256
370
-1
  6
ByLayer
 10
75.25
 20
5.6500000000019055
 30
0.0
 11
74.0
 21
5.6500000000007526
 31
0.0
  0
LINE
  5
226
100
AcDbEntity
100
AcDbLine
  8
Bearing Housing
 62
256
370
-1
  6
ByLayer
 10
71.0
 20
5.650000000001449
 30
0.0
 11
69.75
 21
5.6499999999998609
 31
0.0
  0
LINE
  5
227
100
AcDbEntity
100
AcDbLine
  8
Bearing Housing
 62
256
370
-1
  6
ByLayer
 10
74.0
 20
3.2499999999998987
 30
0.0
 11
74.0
 21
2.249999999999889
 31
0.0
  0
LINE
  5
228
100
AcDbEntity
100
AcDbLine
  8
Bearing Housing
 62
256
370
-1
  6
ByLayer
 10
71.0
 20
3.2500000000003317
 30
0.0
 11
71.0
 21
2.2499999999999858
 31
0.0
  0
LINE
  5
229
100
AcDbEntity
100
AcDbLine
  8
Bearing Housing
 62
256
370
-1
  6
ByLayer
 10
74.0
 20
10.4999999999999432
 30
0.0
 11
74.0
 21
5.6500000000007526
 31
0.0
  0
LINE
  5
22A
100
AcDbEntity
100
AcDbLine
  8
Bearing Housing
 62
256
370
-1
  6
ByLayer
 10
71.0
 20
10.4999999999999964
 30
0.0
 11
71.0
 21
5.650000000001449
 31
0.0
  0
LINE
  5
22B
100
AcDbEntity
100
AcDbLine
  8
Left Plate
 62
256
370
-1
  6
ByLayer
 10
62.6249999999999929
 20
-15.4999999999999893
 30
0.0
 11
62.6249999999999858
 21
-20.0000000000000036
 31
0.0
  0
LINE
  5
22C
100
AcDbEntity
100
AcDbLine
  8
Left Plate
 62
256
370
-1
  6
ByLayer
 10
62.6249999999999858
 20
-20.0000000000000036
 30
0.0
 11
67.1249999999999858
 21
-20.0000000000000107
 31
0.0
  0
LINE
  5
22D
100
AcDbEntity
100
AcDbLine
  8
Left Plate
 62
256
370
-1
  6
ByLayer
 10
67.1249999999999858
 20
-20.0000000000000107
 30
0.0
 11
67.1249999999999858
 21
-15.5000000000000142
 31
0.0
  0
LINE
  5
22E
100
AcDbEntity
100
AcDbLine
  8
Left Plate
 62
256
370
-1
  6
ByLayer
 10
82.3749999999999716
 20
-15.5000000000001101
 30
0.0
 11
82.375
 21
-19.9999999999999787
 31
0.0
  0
LINE
  5
22F
100
AcDbEntity
100
AcDbLine
  8
Left Plate
 62
256
370
-1
  6
ByLayer
 10
82.375
 20
-19.9999999999999787
 30
0.0
 11
77.875
 21
-20.0000000000000036
 31
0.0
  0
LINE
  5
230
100
AcDbEntity
100
AcDbLine
  8
Left Plate
 62
256
370
-1
  6
ByLayer
 10
77.875
 20
-20.0000000000000036
 30
0.0
 11
77.8749999999999858
 21
-15.5000000000000639
 31
0.0
  0
LINE
  5
231
100
AcDbEntity
100
AcDbLine
  8
Bearing Housing
 62
256
370
-1
  6
ByLayer
 10
67.1249999999999858
 20
-15.5000000000000142
 30
0.0
 11
71.0000000000000142
 21
-15.4999999999999929
 31
0.0
  0
LINE
  5
232
100
AcDbEntity
100
AcDbLine
  8
Bearing Housing
 62
256
370
-1
  6
ByLayer
 10
73.9999999999999858
 20
-15.5000000000000639
 30
0.0
 11
77.8749999999999858
 21
-15.5000000000000639
 31
0.0
  0
LINE
  5
233
100
AcDbEntity
100
AcDbLine
  8
Left Plate
 62
256
370
-1
  6
ByLayer
 10
73.9999999999999858
 20
-15.5000000000000639
 30
0.0
 11
77.8749999999999858
 21
-15.5000000000000639
 31
0.0
  0
LINE
  5
234
100
AcDbEntity
100
AcDbLine
  8
Left Plate
 62
256
370
-1
  6
ByLayer
 10
82.3749999999999716
 20
-15.5000000000001101
 30
0.0
 11
89.9999999999999858
 21
-15.5000000000000355
 31
0.0
  0
LINE
  5
235
100
AcDbEntity
100
AcDbLine
  8
Left Plate
 62
256
370
-1
  6
ByLayer
 10
54.9999999999999858
 20
-15.5000000000000426
 30
0.0
 11
62.6249999999999929
 21
-15.4999999999999893
 31
0.0
  0
LINE
  5
236
100
AcDbEntity
100
AcDbLine
  8
Left Plate
 62
256
370
-1
  6
ByLayer
 10
67.1249999999999858
 20
-15.5000000000000142
 30
0.0
 11
71.0000000000000142
 21
-15.4999999999999929
 31
0.0
  0
LINE
  5
237
100
AcDbEntity
100
AcDbLine
  8
Left Plate
 62
256
370
-1
  6
ByLayer
 10
62.6250000000000071
 20
10.5999999999999819
 30
0.0
 11
62.6250000000000071
 21
15.1000000000000245
 31
0.0
  0
LINE
  5
238
100
AcDbEntity
100
AcDbLine
  8
Left Plate
 62
256
370
-1
  6
ByLayer
 10
62.6250000000000071
 20
15.1000000000000245
 30
0.0
 11
67.1250000000000142
 21
15.099999999999989
 31
0.0
  0
LINE
  5
239
100
AcDbEntity
100
AcDbLine
  8
Left Plate
 62
256
370
-1
  6
ByLayer
 10
67.1250000000000142
 20
15.099999999999989
 30
0.0
 11
67.125
 21
10.5999999999999446
 31
0.0
  0
LINE
  5
23A
100
AcDbEntity
100
AcDbLine
  8
Left Plate
 62
256
370
-1
  6
ByLayer
 10
82.375
 20
10.5999999999999819
 30
0.0
 11
82.3750000000000142
 21
15.0999999999999766
 31
0.0
  0
LINE
  5
23B
100
AcDbEntity
100
AcDbLine
  8
Left Plate
 62
256
370
-1
  6
ByLayer
 10
82.3750000000000142
 20
15.0999999999999766
 30
0.0
 11
77.8750000000000142
 21
15.100000000000005
 31
0.0
  0
LINE
  5
23C
100
AcDbEntity
100
AcDbLine
  8
Left Plate
 62
256
370
-1
  6
ByLayer
 10
77.8750000000000142
 20
15.100000000000005
 30
0.0
 11
77.875
 21
10.6000000000000263
 31
0.0
  0
LINE
  5
23D
100
AcDbEntity
100
AcDbLine
  8
Bearing Housing
 62
256
370
-1
  6
ByLayer
 10
67.125
 20
10.5999999999999446
 30
0.0
 11
71.0000000000000284
 21
10.5999999999999499
 31
0.0
  0
LINE
  5
23E
100
AcDbEntity
100
AcDbLine
  8
Bearing Housing
 62
256
370
-1
  6
ByLayer
 10
74.0000000000000142
 20
10.6000000000000369
 30
0.0
 11
77.875
 21
10.6000000000000263
 31
0.0
  0
LINE
  5
23F
100
AcDbEntity
100
AcDbLine
  8
Left Plate
 62
256
370
-1
  6
ByLayer
 10
74.0000000000000142
 20
10.6000000000000369
 30
0.0
 11
77.875
 21
10.6000000000000263
 31
0.0
  0
LINE
  5
240
100
AcDbEntity
100
AcDbLine
  8
Left Plate
 62
256
370
-1
  6
ByLayer
 10
82.375
 20
10.5999999999999819
 30
0.0
 11
90.0000000000000142
 21
10.6000000000001062
 31
0.0
  0
LINE
  5
241
100
AcDbEntity
100
AcDbLine
  8
Left Plate
 62
256
370
-1
  6
ByLayer
 10
54.9999999999999929
 20
10.5999999999999908
 30
0.0
 11
62.6250000000000071
 21
10.5999999999999819
 31
0.0
  0
LINE
  5
242
100
AcDbEntity
100
AcDbLine
  8
Left Plate
 62
256
370
-1
  6
ByLayer
 10
67.125
 20
10.5999999999999446
 30
0.0
 11
71.0000000000000284
 21
10.5999999999999499
 31
0.0
  0
LINE
  5
243
100
AcDbEntity
100
AcDbLine
  8
Left Plate
 62
256
370
-1
  6
ByLayer
 10
-24.9999999999999964
 20
59.8750000000000284
 30
0.0
 11
-20.5
 21
59.8750000000000284
 31
0.0
  0
LINE
  5
244
100
AcDbEntity
100
AcDbLine
  8
Left Plate
 62
256
370
-1
  6
ByLayer
 10
-20.5
 20
59.8750000000000284
 30
0.0
 11
-20.5
 21
55.3750000000000284
 31
0.0
  0
LINE
  5
245
100
AcDbEntity
100
AcDbLine
  8
Left Plate
 62
256
370
-1
  6
ByLayer
 10
-20.5
 20
55.3750000000000284
 30
0.0
 11
-24.9999999999999964
 21
55.3750000000000284
 31
0.0
  0
LINE
  5
246
100
AcDbEntity
100
AcDbLine
  8
Bearing Housing
 62
256
370
-1
  6
ByLayer
 10
-24.9999999999999964
 20
67.5000000000000284
 30
0.0
 11
-24.9999999999999964
 21
59.8750000000000284
 31
0.0
  0
LINE
  5
247
100
AcDbEntity
100
AcDbLine
  8
Left Plate
 62
256
370
-1
  6
ByLayer
 10
-24.9999999999999964
 20
40.1250000000000284
 30
0.0
 11
-20.5
 21
40.1250000000000284
 31
0.0
  0
LINE
  5
248
100
AcDbEntity
100
AcDbLine
  8
Left Plate
 62
256
370
-1
  6
ByLayer
 10
-20.5
 20
40.1250000000000284
 30
0.0
 11
-20.5
 21
44.6250000000000284
 31
0.0
  0
LINE
  5
249
100
AcDbEntity
100
AcDbLine
  8
Left Plate
 62
256
370
-1
  6
ByLayer
 10
-20.5
 20
44.6250000000000284
 30
0.0
 11
-24.9999999999999964
 21
44.6250000000000284
 31
0.0
  0
LINE
  5
24A
100
AcDbEntity
100
AcDbLine
  8
Bearing Housing
 62
256
370
-1
  6
ByLayer
 10
-24.9999999999999964
 20
55.3750000000000284
 30
0.0
 11
-24.9999999999999964
 21
44.6250000000000284
 31
0.0
  0
LINE
  5
24B
100
AcDbEntity
100
AcDbLine
  8
Bearing Housing
 62
256
370
-1
  6
ByLayer
 10
-25.0
 20
40.1250000000000284
 30
0.0
 11
-25.0
 21
32.5000000000000284
 31
0.0
  0
LINE
  5
24C
100
AcDbEntity
100
AcDbLine
  8
Left Plate
 62
256
370
-1
  6
ByLayer
 10
25.0000000000000213
 20
59.8749999999999858
 30
0.0
 11
20.5000000000000249
 21
59.8750000000000142
 31
0.0
  0
LINE
  5
24D
100
AcDbEntity
100
AcDbLine
  8
Left Plate
 62
256
370
-1
  6
ByLayer
 10
20.5000000000000249
 20
59.8750000000000142
 30
0.0
 11
20.5000000000000213
 21
55.3750000000000213
 31
0.0
  0
LINE
  5
24E
100
AcDbEntity
100
AcDbLine
  8
Left Plate
 62
256
370
-1
  6
ByLayer
 10
20.5000000000000213
 20
55.3750000000000213
 30
0.0
 11
25.0000000000000178
 21
55.3750000000000142
 31
0.0
  0
LINE
  5
24F
100
AcDbEntity
100
AcDbLine
  8
Left Plate
 62
256
370
-1
  6
ByLayer
 10
25.0000000000000178
 20
40.1250000000000284
 30
0.0
 11
20.5000000000000178
 21
40.1250000000000284
 31
0.0
  0
LINE
  5
250
100
AcDbEntity
100
AcDbLine
  8
Left Plate
 62
256
370
-1
  6
ByLayer
 10
20.5000000000000178
 20
40.1250000000000284
 30
0.0
 11
20.5000000000000284
 21
44.6250000000000426
 31
0.0
  0
LINE
  5
251
100
AcDbEntity
100
AcDbLine
  8
Left Plate
 62
256
370
-1
  6
ByLayer
 10
20.5000000000000284
 20
44.6250000000000426
 30
0.0
 11
25.0000000000000213
 21
44.6250000000000426
 31
0.0
  0
LINE
  5
252
100
AcDbEntity
100
AcDbLine
  8
Bearing Housing
 62
256
370
-1
  6
ByLayer
 10
25.0000000000000107
 20
67.5000000000000284
 30
0.0
 11
25.0000000000000107
 21
59.8749999999999858
 31
0.0
  0
LINE
  5
253
100
AcDbEntity
100
AcDbLine
  8
Bearing Housing
 62
256
370
-1
  6
ByLayer
 10
25.0000000000000107
 20
55.3750000000000142
 30
0.0
 11
25.0000000000000107
 21
44.6250000000000426
 31
0.0
  0
LINE
  5
254
100
AcDbEntity
100
AcDbLine
  8
Bearing Housing
 62
256
370
-1
  6
ByLayer
 10
25.0000000000000071
 20
40.1250000000000284
 30
0.0
 11
25.0000000000000071
 21
32.5000000000000284
 31
0.0
  0
LINE
  5
255
100
AcDbEntity
100
AcDbLine
  8
Insulator Retainer
 62
256
370
-1
  6
ByLayer
 10
-5.6666666666666652
 20
-92.0
 30
0.0
 11
5.6666666666666679
 21
-92.0
 31
0.0
  0
LINE
  5
256
100
AcDbEntity
100
AcDbLine
  8
Insulator Retainer
 62
256
370
-1
  6
ByLayer
 10
-5.6660000000000048
 20
-122.5
 30
0.0
 11
-5.6660000000000048
 21
-118.0
 31
0.0
  0
LINE
  5
257
100
AcDbEntity
100
AcDbLine
  8
Insulator Retainer
 62
256
370
-1
  6
ByLayer
 10
5.6659999999999968
 20
-118.0
 30
0.0
 11
5.6659999999999959
 21
-122.5
 31
0.0
  0
LINE
  5
258
100
AcDbEntity
100
AcDbLine
  8
Insulator Retainer
 62
256
370
-1
  6
ByLayer
 10
-5.6660000000000048
 20
-118.0
 30
0.0
 11
5.6659999999999968
 21
-118.0
 31
0.0
  0
LINE
  5
259
100
AcDbEntity
100
AcDbLine
  8
Insulator Retainer
 62
256
370
-1
  6
ByLayer
 10
-5.666000000000003
 20
-87.5
 30
0.0
 11
-5.666000000000003
 21
-92.0
 31
0.0
  0
LINE
  5
25A
100
AcDbEntity
100
AcDbLine
  8
Insulator Retainer
 62
256
370
-1
  6
ByLayer
 10
5.6659999999999995
 20
-87.5
 30
0.0
 11
5.6659999999999995
 21
-92.0
 31
0.0
  0
LINE
  5
25B
100
AcDbEntity
100
AcDbLine
  8
Insulator Retainer
 62
256
370
-1
  6
ByLayer
 10
-5.6660000000000039
 20
-92.0
 30
0.0
 11
5.6659999999999986
 21
-92.0
 31
0.0
  0
LINE
  5
25C
100
AcDbEntity
100
AcDbLine
  8
Bearing Housing
 62
256
370
-1
  6
ByLayer
 10
-25.0000000000000071
 20
-87.5
 30
0.0
 11
-5.666000000000003
 21
-87.5
 31
0.0
  0
LINE
  5
25D
100
AcDbEntity
100
AcDbLine
  8
Bearing Housing
 62
256
370
-1
  6
ByLayer
 10
5.6659999999999995
 20
-87.5
 30
0.0
 11
25.0
 21
-87.5
 31
0.0
  0
LINE
  5
25E
100
AcDbEntity
100
AcDbLine
  8
Bearing Housing
 62
256
370
-1
  6
ByLayer
 10
5.6659999999999959
 20
-122.5
 30
0.0
 11
24.9999999999999964
 21
-122.5
 31
0.0
  0
LINE
  5
25F
100
AcDbEntity
100
AcDbLine
  8
Bearing Housing
 62
256
370
-1
  6
ByLayer
 10
-25.0000000000000107
 20
-122.5
 30
0.0
 11
-5.6660000000000048
 21
-122.5
 31
0.0
  0
LINE
  5
260
100
AcDbEntity
100
AcDbLine
  8
screw-lines
 62
256
370
-1
  6
ByLayer
 10
-13.2499999999999929
 20
112.5
 30
0.0
 11
-13.2500000000000053
 21
-72.4999999999999858
 31
0.0
  0
LINE
  5
261
100
AcDbEntity
100
AcDbLine
  8
screw-lines
 62
256
370
-1
  6
ByLayer
 10
-5.6659999999999924
 20
112.5000000000000284
 30
0.0
 11
-5.6660000000000048
 21
-122.5
 31
0.0
  0
LINE
  5
262
100
AcDbEntity
100
AcDbLine
  8
screw-lines
 62
256
370
-1
  6
ByLayer
 10
5.6660000000000084
 20
112.5000000000000284
 30
0.0
 11
5.6659999999999959
 21
-122.5
 31
0.0
  0
LINE
  5
263
100
AcDbEntity
100
AcDbLine
  8
screw-lines
 62
256
370
-1
  6
ByLayer
 10
13.2500000000000053
 20
112.5
 30
0.0
 11
13.2499999999999929
 21
-72.5
 31
0.0
  0
LINE
  5
264
100
AcDbEntity
100
AcDbLine
  8
Bearing Housing
 62
256
370
-1
  6
ByLayer
 10
13.2499999999999982
 20
10.5000000000000107
 30
0.0
 11
16.2500000000000142
 21
10.5000000000000107
 31
0.0
  0
LINE
  5
265
100
AcDbEntity
100
AcDbLine
  8
Left Plate
 62
256
370
-1
  6
ByLayer
 10
13.2499999999999982
 20
15.0000000000000178
 30
0.0
 11
13.2499999999999982
 21
10.5000000000000107
 31
0.0
  0
LINE
  5
266
100
AcDbEntity
100
AcDbLine
  8
Left Plate
 62
256
370
-1
  6
ByLayer
 10
-13.25
 20
15.0000000000000284
 30
0.0
 11
-13.25
 21
10.5000000000000178
 31
0.0
  0
LINE
  5
267
100
AcDbEntity
100
AcDbLine
  8
Bearing Housing
 62
256
370
-1
  6
ByLayer
 10
-16.2499999999999822
 20
10.5000000000000195
 30
0.0
 11
-13.25
 21
10.5000000000000178
 31
0.0
  0
LINE
  5
268
100
AcDbEntity
100
AcDbLine
  8
Left Plate
 62
256
370
-1
  6
ByLayer
 10
-13.25
 20
15.0000000000000284
 30
0.0
 11
-5.6659999999999977
 21
15.0000000000000249
 31
0.0
  0
LINE
  5
269
100
AcDbEntity
100
AcDbLine
  8
Bearing Housing
 62
256
370
-1
  6
ByLayer
 10
-5.6659999999999977
 20
19.5000000000000142
 30
0.0
 11
-5.6659999999999977
 21
15.0000000000000249
 31
0.0
  0
LINE
  5
26A
100
AcDbEntity
100
AcDbLine
  8
Bearing Housing
 62
256
370
-1
  6
ByLayer
 10
-5.6659999999999977
 20
19.5000000000000142
 30
0.0
 11
5.666000000000003
 21
19.5000000000000142
 31
0.0
  0
LINE
  5
26B
100
AcDbEntity
100
AcDbLine
  8
Left Plate
 62
256
370
-1
  6
ByLayer
 10
5.666000000000003
 20
15.0000000000000213
 30
0.0
 11
13.2499999999999982
 21
15.0000000000000178
 31
0.0
  0
LINE
  5
26C
100
AcDbEntity
100
AcDbLine
  8
Bearing Housing
 62
256
370
-1
  6
ByLayer
 10
5.666000000000003
 20
19.5000000000000142
 30
0.0
 11
5.666000000000003
 21
15.0000000000000213
 31
0.0
  0
LINE
  5
26D
100
AcDbEntity
100
AcDbLine
  8
Bearing Housing
 62
256
370
-1
  6
ByLayer
 10
-25.0000000000000142
 20
77.5
 30
0.0
 11
-5.6659999999999968
 21
77.5000000000000711
 31
0.0
  0
LINE
  5
26E
100
AcDbEntity
100
AcDbLine
  8
Bearing Housing
 62
256
370
-1
  6
ByLayer
 10
5.6660000000000057
 20
77.5000000000000426
 30
0.0
 11
24.9999999999999858
 21
77.5000000000000142
 31
0.0
  0
LINE
  5
26F
100
AcDbEntity
100
AcDbLine
  8
Bearing Housing
 62
256
370
-1
  6
ByLayer
 10
-25.0000000000000142
 20
112.5
 30
0.0
 11
-5.6659999999999933
 21
112.5
 31
0.0
  0
LINE
  5
270
100
AcDbEntity
100
AcDbLine
  8
Bearing Housing
 62
256
370
-1
  6
ByLayer
 10
-5.6659999999999924
 20
108.0000000000000142
 30
0.0
 11
5.6660000000000066
 21
108.0
 31
0.0
  0
LINE
  5
271
100
AcDbEntity
100
AcDbLine
  8
Bearing Housing
 62
256
370
-1
  6
ByLayer
 10
5.6660000000000084
 20
112.4999999999999716
 30
0.0
 11
25.0000000000000142
 21
112.5
 31
0.0
  0
LINE
  5
272
100
AcDbEntity
100
AcDbLine
  8
0
 62
256
370
-1
  6
ByLayer
 10
-5.6659999999999933
 20
112.5
 30
0.0
 11
-5.6659999999999924
 21
108.0000000000000142
 31
0.0
  0
LINE
  5
273
100
AcDbEntity
100
AcDbLine
  8
0
 62
256
370
-1
  6
ByLayer
 10
5.6660000000000084
 20
112.4999999999999716
 30
0.0
 11
5.6660000000000084
 21
108.0
 31
0.0
  0
LINE
  5
274
100
AcDbEntity
100
AcDbLine
  8
0
 62
256
370
-1
  6
ByLayer
 10
-5.6666666666667425
 20
82.0000000000000426
 30
0.0
 11
-5.6659999999999968
 21
77.5000000000000711
 31
0.0
  0
LINE
  5
275
100
AcDbEntity
100
AcDbLine
  8
0
 62
256
370
-1
  6
ByLayer
 10
5.6666666666666146
 20
82.0000000000000426
 30
0.0
 11
5.6660000000000057
 21
77.5000000000000426
 31
0.0
  0
ENDSEC
  0
SECTION
  2
OBJECTS
  0
DICTIONARY
  5
C
100
AcDbDictionary
280
0
281
1
  3
ACAD_GROUP
350
D
  3
ACAD_LAYOUT
350
1A
  3
ACAD_MLINESTYLE
350
17
  3
ACAD_PLOTSETTINGS
350
19
  3
ACAD_PLOTSTYLENAME
350
E
  3
AcDbVariableDictionary
350
276
  0
DICTIONARY
  5
D
100
AcDbDictionary
280
0
281
1
  0
ACDBDICTIONARYWDFLT
  5
E
100
AcDbDictionary
281
1
  3
Normal
350
F
100
AcDbDictionaryWithDefault
340
F
  0
ACDBPLACEHOLDER
  5
F
  0
DICTIONARY
  5
17
100
AcDbDictionary
280
0
281
1
  3
Standard
350
18
  0
MLINESTYLE
  5
18
100
AcDbMlineStyle
  2
STANDARD
 70
0
  3

 62
256
 51
90.0
 52
90.0
 71
2
 49
0.5
 62
256
  6
BYLAYER
 49
-0.5
 62
256
  6
BYLAYER
  0
DICTIONARY
  5
19
100
AcDbDictionary
280
0
281
1
  0
DICTIONARY
  5
1A
100
AcDbDictionary
281
1
  3
Layout1
350
1E
  3
Layout2
350
26
  3
Model
350
22
  0
LAYOUT
  5
1E
100
AcDbPlotSettings
  1

  2
C:\Program Files\AutoCAD 2002\plotters\DWF ePlot (optimized for plotting).pc3
  4

  6

 40
0.0
 41
0.0
 42
0.0
 43
0.0
 44
0.0
 45
0.0
 46
0.0
 47
0.0
 48
0.0
 49
0.0
140
0.0
141
0.0
142
1.0
143
1.0
 70
688
 72
0
 73
0
 74
5
  7

 75
16
147
1.0
148
0.0
149
0.0
100
AcDbLayout
  1
Layout1
 70
1
 71
1
 10
0.0
 20
0.0
 11
420.0
 21
297.0
 12
0.0
 22
0.0
 32
0.0
 14
100000000000000000000.0
 24
100000000000000000000.0
 34
100000000000000000000.0
 15
-100000000000000000000.0
 25
-100000000000000000000.0
 35
-100000000000000000000.0
146
0.0
 13
0.0
 23
0.0
 33
0.0
 16
1.0
 26
0.0
 36
0.0
 17
0.0
 27
1.0
 37
0.0
 76
0
330
1B
  0
LAYOUT
  5
22
100
AcDbPlotSettings
  1

  2
C:\Program Files\AutoCAD 2002\plotters\DWF ePlot (optimized for plotting).pc3
  4

  6

 40
0.0
 41
0.0
 42
0.0
 43
0.0
 44
0.0
 45
0.0
 46
0.0
 47
0.0
 48
0.0
 49
0.0
140
0.0
141
0.0
142
1.0
143
1.0
 70
1712
 72
0
 73
0
 74
0
  7

 75
0
147
1.0
148
0.0
149
0.0
100
AcDbLayout
  1
Model
 70
1
 71
0
 10
0.0
 20
0.0
 11
12.0
 21
9.0
 12
0.0
 22
0.0
 32
0.0
 14
0.0
 24
0.0
 34
0.0
 15
0.0
 25
0.0
 35
0.0
146
0.0
 13
0.0
 23
0.0
 33
0.0
 16
1.0
 26
0.0
 36
0.0
 17
0.0
 27
1.0
 37
0.0
 76
0
330
1F
  0
LAYOUT
  5
26
100
AcDbPlotSettings
  1

  2
C:\Program Files\AutoCAD 2002\plotters\DWF ePlot (optimized for plotting).pc3
  4

  6

 40
0.0
 41
0.0
 42
0.0
 43
0.0
 44
0.0
 45
0.0
 46
0.0
 47
0.0
 48
0.0
 49
0.0
140
0.0
141
0.0
142
1.0
143
1.0
 70
688
 72
0
 73
0
 74
5
  7

 75
16
147
1.0
148
0.0
149
0.0
100
AcDbLayout
  1
Layout2
 70
1
 71
2
 10
0.0
 20
0.0
 11
12.0
 21
9.0
 12
0.0
 22
0.0
 32
0.0
 14
0.0
 24
0.0
 34
0.0
 15
0.0
 25
0.0
 35
0.0
146
0.0
 13
0.0
 23
0.0
 33
0.0
 16
1.0
 26
0.0
 36
0.0
 17
0.0
 27
1.0
 37
0.0
 76
0
330
23
  0
DICTIONARY
  5
276
100
AcDbDictionary
281
1
  3
DIMASSOC
350
278
  3
HIDETEXT
350
277
  0
DICTIONARYVAR
  5
277
100
DictionaryVariables
280
0
  1
2
  0
DICTIONARYVAR
  5
278
100
DictionaryVariables
280
0
  1
1
  0
ENDSEC
  0
EOF
