999
dxflib 2.2.0.0
  0
SECTION
  2
HEADER
  9
$ACADVER
  1
AC1015
  9
$HANDSEED
  5
FFFF
  9
$DIMASZ
 40
2.5
  9
$PLIMMIN
 10
0.0
 20
0.0
  9
$DIMEXE
 40
1.25
  9
$DIMGAP
 40
0.625
  9
$PLIMMAX
 10
210.0
 20
297.0
  9
$INSUNITS
 70
4
  9
$DIMSTYLE
  2
Standard
  9
$CLAYER
  8
0
  9
$DIMEXO
 40
0.625
  9
$DIMTXT
 40
2.5
  9
$CLAYER
  8
0
  0
ENDSEC
  0
SECTION
  2
TABLES
  0
TABLE
  2
VPORT
  5
8
100
AcDbSymbolTable
 70
1
  0
VPORT
  5
30
100
AcDbSymbolTableRecord
100
AcDbViewportTableRecord
  2
*Active
 70
0
 10
0.0
 20
0.0
 11
1.0
 21
1.0
 12
286.3055555555554861
 22
148.5
 13
0.0
 23
0.0
 14
10.0
 24
10.0
 15
10.0
 25
10.0
 16
0.0
 26
0.0
 36
1.0
 17
0.0
 27
0.0
 37
0.0
 40
297.0
 41
1.92798353909465
 42
50.0
 43
0.0
 44
0.0
 50
0.0
 51
0.0
 71
0
 72
100
 73
1
 74
3
 75
1
 76
1
 77
0
 78
0
281
0
 65
1
110
0.0
120
0.0
130
0.0
111
1.0
121
0.0
131
0.0
112
0.0
122
1.0
132
0.0
 79
0
146
0.0
  0
ENDTAB
  0
TABLE
  2
LTYPE
  5
5
100
AcDbSymbolTable
 70
21
  0
LTYPE
  5
14
100
AcDbSymbolTableRecord
100
AcDbLinetypeTableRecord
  2
ByBlock
 70
0
  3

 72
65
 73
0
 40
0.0
  0
LTYPE
  5
15
100
AcDbSymbolTableRecord
100
AcDbLinetypeTableRecord
  2
ByLayer
 70
0
  3

 72
65
 73
0
 40
0.0
  0
LTYPE
  5
16
100
AcDbSymbolTableRecord
100
AcDbLinetypeTableRecord
  2
CONTINUOUS
 70
0
  3
Solid line
 72
65
 73
0
 40
0.0
  0
LTYPE
  5
31
100
AcDbSymbolTableRecord
100
AcDbLinetypeTableRecord
  2
DOT
 70
0
  3
Dot . . . . . . . . . . . . . . . . . . . . . .
 72
65
 73
2
 40
6.3499999999999996
 49
0.0
 74
0
 49
-6.3499999999999996
 74
0
  0
LTYPE
  5
32
100
AcDbSymbolTableRecord
100
AcDbLinetypeTableRecord
  2
DOT2
 70
0
  3
Dot (.5x) .....................................
 72
65
 73
2
 40
3.1749999999999998
 49
0.0
 74
0
 49
-3.1749999999999998
 74
0
  0
LTYPE
  5
33
100
AcDbSymbolTableRecord
100
AcDbLinetypeTableRecord
  2
DOTX2
 70
0
  3
Dot (2x) .  .  .  .  .  .  .  .  .  .  .  .  .
 72
65
 73
2
 40
12.6999999999999993
 49
0.0
 74
0
 49
-12.6999999999999993
 74
0
  0
LTYPE
  5
34
100
AcDbSymbolTableRecord
100
AcDbLinetypeTableRecord
  2
DASHED
 70
0
  3
Dashed __ __ __ __ __ __ __ __ __ __ __ __ __ _
 72
65
 73
2
 40
19.0500000000000007
 49
12.6999999999999993
 74
0
 49
-6.3499999999999996
 74
0
  0
LTYPE
  5
35
100
AcDbSymbolTableRecord
100
AcDbLinetypeTableRecord
  2
DASHED2
 70
0
  3
Dashed (.5x) _ _ _ _ _ _ _ _ _ _ _ _ _ _ _ _ _
 72
65
 73
2
 40
9.5250000000000004
 49
6.3499999999999996
 74
0
 49
-3.1749999999999998
 74
0
  0
LTYPE
  5
36
100
AcDbSymbolTableRecord
100
AcDbLinetypeTableRecord
  2
DASHEDX2
 70
0
  3
Dashed (2x) ____  ____  ____  ____  ____  ___
 72
65
 73
2
 40
38.1000000000000014
 49
25.3999999999999986
 74
0
 49
-12.6999999999999993
 74
0
  0
LTYPE
  5
37
100
AcDbSymbolTableRecord
100
AcDbLinetypeTableRecord
  2
DASHDOT
 70
0
  3
Dash dot __ . __ . __ . __ . __ . __ . __ . __
 72
65
 73
4
 40
25.3999999999999986
 49
12.6999999999999993
 74
0
 49
-6.3499999999999996
 74
0
 49
0.0
 74
0
 49
-6.3499999999999996
 74
0
  0
LTYPE
  5
38
100
AcDbSymbolTableRecord
100
AcDbLinetypeTableRecord
  2
DASHDOT2
 70
0
  3
Dash dot (.5x) _._._._._._._._._._._._._._._.
 72
65
 73
4
 40
12.6999999999999993
 49
6.3499999999999996
 74
0
 49
-3.1749999999999998
 74
0
 49
0.0
 74
0
 49
-3.1749999999999998
 74
0
  0
LTYPE
  5
39
100
AcDbSymbolTableRecord
100
AcDbLinetypeTableRecord
  2
DASHDOTX2
 70
0
  3
Dash dot (2x) ____  .  ____  .  ____  .  ___
 72
65
 73
4
 40
50.7999999999999972
 49
25.3999999999999986
 74
0
 49
-12.6999999999999993
 74
0
 49
0.0
 74
0
 49
-12.6999999999999993
 74
0
  0
LTYPE
  5
3A
100
AcDbSymbolTableRecord
100
AcDbLinetypeTableRecord
  2
DIVIDE
 70
0
  3
Divide ____ . . ____ . . ____ . . ____ . . ____
 72
65
 73
6
 40
31.75
 49
12.6999999999999993
 74
0
 49
-6.3499999999999996
 74
0
 49
0.0
 74
0
 49
-6.3499999999999996
 74
0
 49
0.0
 74
0
 49
-6.3499999999999996
 74
0
  0
LTYPE
  5
3B
100
AcDbSymbolTableRecord
100
AcDbLinetypeTableRecord
  2
DIVIDE2
 70
0
  3
Divide (.5x) __..__..__..__..__..__..__..__.._
 72
65
 73
6
 40
15.875
 49
6.3499999999999996
 74
0
 49
-3.1749999999999998
 74
0
 49
0.0
 74
0
 49
-3.1749999999999998
 74
0
 49
0.0
 74
0
 49
-3.1749999999999998
 74
0
  0
LTYPE
  5
3C
100
AcDbSymbolTableRecord
100
AcDbLinetypeTableRecord
  2
DIVIDEX2
 70
0
  3
Divide (2x) ________  .  .  ________  .  .  _
 72
65
 73
6
 40
63.5
 49
25.3999999999999986
 74
0
 49
-12.6999999999999993
 74
0
 49
0.0
 74
0
 49
-12.6999999999999993
 74
0
 49
0.0
 74
0
 49
-12.6999999999999993
 74
0
  0
LTYPE
  5
3D
100
AcDbSymbolTableRecord
100
AcDbLinetypeTableRecord
  2
CENTER
 70
0
  3
Center ____ _ ____ _ ____ _ ____ _ ____ _ ____
 72
65
 73
4
 40
50.7999999999999972
 49
31.75
 74
0
 49
-6.3499999999999996
 74
0
 49
6.3499999999999996
 74
0
 49
-6.3499999999999996
 74
0
  0
LTYPE
  5
3E
100
AcDbSymbolTableRecord
100
AcDbLinetypeTableRecord
  2
CENTER2
 70
0
  3
Center (.5x) ___ _ ___ _ ___ _ ___ _ ___ _ ___
 72
65
 73
4
 40
28.5749999999999993
 49
19.0500000000000007
 74
0
 49
-3.1749999999999998
 74
0
 49
3.1749999999999998
 74
0
 49
-3.1749999999999998
 74
0
  0
LTYPE
  5
3F
100
AcDbSymbolTableRecord
100
AcDbLinetypeTableRecord
  2
CENTERX2
 70
0
  3
Center (2x) ________  __  ________  __  _____
 72
65
 73
4
 40
101.5999999999999943
 49
63.5
 74
0
 49
-12.6999999999999993
 74
0
 49
12.6999999999999993
 74
0
 49
-12.6999999999999993
 74
0
  0
LTYPE
  5
40
100
AcDbSymbolTableRecord
100
AcDbLinetypeTableRecord
  2
BORDER
 70
0
  3
Border __ __ . __ __ . __ __ . __ __ . __ __ .
 72
65
 73
6
 40
44.4500000000000028
 49
12.6999999999999993
 74
0
 49
-6.3499999999999996
 74
0
 49
12.6999999999999993
 74
0
 49
-6.3499999999999996
 74
0
 49
0.0
 74
0
 49
-6.3499999999999996
 74
0
  0
LTYPE
  5
41
100
AcDbSymbolTableRecord
100
AcDbLinetypeTableRecord
  2
BORDER2
 70
0
  3
Border (.5x) __.__.__.__.__.__.__.__.__.__.__.
 72
65
 73
6
 40
22.2250000000000014
 49
6.3499999999999996
 74
0
 49
-3.1749999999999998
 74
0
 49
6.3499999999999996
 74
0
 49
-3.1749999999999998
 74
0
 49
0.0
 74
0
 49
-3.1749999999999998
 74
0
  0
LTYPE
  5
42
100
AcDbSymbolTableRecord
100
AcDbLinetypeTableRecord
  2
BORDERX2
 70
0
  3
Border (2x) ____  ____  .  ____  ____  .  ___
 72
65
 73
6
 40
88.9000000000000057
 49
25.3999999999999986
 74
0
 49
-12.6999999999999993
 74
0
 49
25.3999999999999986
 74
0
 49
-12.6999999999999993
 74
0
 49
0.0
 74
0
 49
-12.6999999999999993
 74
0
  0
ENDTAB
  0
TABLE
  2
LAYER
  5
2
100
AcDbSymbolTable
 70
4
  0
LAYER
  5
10
100
AcDbSymbolTableRecord
100
AcDbLayerTableRecord
  2
0
 70
0
 62
7
420
0
  6
CONTINUOUS
370
25
390
F
  0
LAYER
  5
43
100
AcDbSymbolTableRecord
100
AcDbLayerTableRecord
  2
Etch
 70
1
 62
-1
420
16711680
  6
CONTINUOUS
370
0
390
F
  0
LAYER
  5
44
100
AcDbSymbolTableRecord
100
AcDbLayerTableRecord
  2
Drawings
 70
1
 62
-5
420
255
  6
CONTINUOUS
370
0
390
F
  0
LAYER
  5
45
100
AcDbSymbolTableRecord
100
AcDbLayerTableRecord
  2
grill
 70
1
 62
-7
420
0
  6
CONTINUOUS
370
0
390
F
  0
ENDTAB
  0
TABLE
  2
STYLE
  5
3
100
AcDbSymbolTable
 70
1
  0
STYLE
  5
11
100
AcDbSymbolTableRecord
100
AcDbTextStyleTableRecord
  2
Standard
 70
0
 40
0.0
 41
0.75
 50
0.0
 71
0
 42
2.5
  3
txt
  4

  0
ENDTAB
  0
TABLE
  2
VIEW
  5
6
100
AcDbSymbolTable
 70
0
  0
ENDTAB
  0
TABLE
  2
UCS
  5
7
100
AcDbSymbolTable
 70
0
  0
ENDTAB
  0
TABLE
  2
APPID
  5
9
100
AcDbSymbolTable
 70
1
  0
APPID
  5
12
100
AcDbSymbolTableRecord
100
AcDbRegAppTableRecord
  2
ACAD
 70
0
  0
ENDTAB
  0
TABLE
  2
DIMSTYLE
  5
A
100
AcDbSymbolTable
 70
1
100
AcDbDimStyleTable
 71
0
  0
DIMSTYLE
105
27
100
AcDbSymbolTableRecord
100
AcDbDimStyleTableRecord
  2
Standard
 41
2.5
 42
0.625
 43
3.75
 44
1.25
 70
0
 73
0
 74
0
 77
1
 78
8
140
2.5
141
2.5
143
0.03937007874016
147
0.625
171
3
172
1
271
2
272
2
274
3
278
44
283
0
284
8
340
11
  0
ENDTAB
  0
TABLE
  2
BLOCK_RECORD
  5
1
100
AcDbSymbolTable
 70
1
  0
BLOCK_RECORD
  5
1F
100
AcDbSymbolTableRecord
100
AcDbBlockTableRecord
  2
*Model_Space
340
22
  0
BLOCK_RECORD
  5
1B
100
AcDbSymbolTableRecord
100
AcDbBlockTableRecord
  2
*Paper_Space
340
1E
  0
BLOCK_RECORD
  5
23
100
AcDbSymbolTableRecord
100
AcDbBlockTableRecord
  2
*Paper_Space0
340
26
  0
BLOCK_RECORD
  5
46
100
AcDbSymbolTableRecord
100
AcDbBlockTableRecord
  2
tgrips
340
0
  0
ENDTAB
  0
ENDSEC
  0
SECTION
  2
BLOCKS
  0
BLOCK
  5
20
100
AcDbEntity
  8
0
100
AcDbBlockBegin
  2
*Model_Space
 70
0
 10
0.0
 20
0.0
 30
0.0
  3
*Model_Space
  1

  0
ENDBLK
  5
21
100
AcDbEntity
  8
0
100
AcDbBlockEnd
  0
BLOCK
  5
1C
100
AcDbEntity
 67
1
  8
0
100
AcDbBlockBegin
  2
*Paper_Space
 70
0
 10
0.0
 20
0.0
 30
0.0
  3
*Paper_Space
  1

  0
ENDBLK
  5
1D
100
AcDbEntity
 67
1
  8
0
100
AcDbBlockEnd
  0
BLOCK
  5
24
100
AcDbEntity
  8
0
100
AcDbBlockBegin
  2
*Paper_Space0
 70
0
 10
0.0
 20
0.0
 30
0.0
  3
*Paper_Space0
  1

  0
ENDBLK
  5
25
100
AcDbEntity
  8
0
100
AcDbBlockEnd
  0
BLOCK
  5
47
100
AcDbEntity
  8
0
100
AcDbBlockBegin
  2
tgrips
 70
0
 10
0.0
 20
0.0
 30
0.0
  3
tgrips
  1

  0
LINE
  5
48
100
AcDbEntity
100
AcDbLine
  8
0
 62
256
370
-1
  6
ByLayer
 10
0.0
 20
0.0
 30
0.0
 11
10.0
 21
0.0
 31
0.0
  0
LINE
  5
49
100
AcDbEntity
100
AcDbLine
  8
0
 62
256
370
-1
  6
ByLayer
 10
60.0
 20
0.0
 30
0.0
 11
70.0
 21
0.0
 31
0.0
  0
LINE
  5
4A
100
AcDbEntity
100
AcDbLine
  8
0
 62
256
370
-1
  6
ByLayer
 10
70.0
 20
0.0
 30
0.0
 11
70.0
 21
0.0
 31
0.0
  0
LINE
  5
4B
100
AcDbEntity
100
AcDbLine
  8
0
 62
256
370
-1
  6
ByLayer
 10
37.75
 20
-7.0
 30
0.0
 11
37.7474839689560469
 21
-10.0
 31
0.0
  0
LINE
  5
4C
100
AcDbEntity
100
AcDbLine
  8
0
 62
256
370
-1
  6
ByLayer
 10
36.5
 20
-10.0
 30
0.0
 11
37.7474839689560469
 21
-10.0
 31
0.0
  0
LINE
  5
4D
100
AcDbEntity
100
AcDbLine
  8
0
 62
256
370
-1
  6
ByLayer
 10
32.25
 20
-7.0
 30
0.0
 11
32.2453083395828202
 21
-10.0
 31
0.0
  0
LINE
  5
4E
100
AcDbEntity
100
AcDbLine
  8
0
 62
256
370
-1
  6
ByLayer
 10
32.2453083395828202
 20
-10.0
 30
0.0
 11
33.5
 21
-10.0
 31
0.0
  0
LINE
  5
4F
100
AcDbEntity
100
AcDbLine
  8
0
 62
256
370
-1
  6
ByLayer
 10
33.5827980153515355
 20
0.0
 30
0.0
 11
33.5835159800337451
 21
-6.9987197232206464
 31
0.0
  0
LINE
  5
50
100
AcDbEntity
100
AcDbLine
  8
0
 62
256
370
-1
  6
ByLayer
 10
36.4008093934434527
 20
-6.9987197232206464
 30
0.0
 11
36.4008093934435664
 21
0.0044872792644778
 31
0.0
  0
LINE
  5
51
100
AcDbEntity
100
AcDbLine
  8
0
 62
256
370
-1
  6
ByLayer
 10
36.4008093934435664
 20
0.0044872792644778
 30
0.0
 11
50.0
 21
0.0
 31
0.0
  0
LINE
  5
52
100
AcDbEntity
100
AcDbLine
  8
0
 62
256
370
-1
  6
ByLayer
 10
20.0
 20
0.0
 30
0.0
 11
33.5827980153515355
 21
0.0
 31
0.0
  0
LINE
  5
53
100
AcDbEntity
100
AcDbLine
  8
0
 62
256
370
-1
  6
ByLayer
 10
37.75
 20
-7.0
 30
0.0
 11
36.4008093934434527
 21
-6.9987197232206464
 31
0.0
  0
LINE
  5
54
100
AcDbEntity
100
AcDbLine
  8
0
 62
256
370
-1
  6
ByLayer
 10
33.5835159800337451
 20
-6.9987197232206464
 30
0.0
 11
32.25
 21
-7.0
 31
0.0
  0
LINE
  5
55
100
AcDbEntity
100
AcDbLine
  8
0
 62
256
370
-1
  6
ByLayer
 10
33.5
 20
-11.0
 30
0.0
 11
36.5
 21
-11.0
 31
0.0
  0
LINE
  5
56
100
AcDbEntity
100
AcDbLine
  8
0
 62
256
370
-1
  6
ByLayer
 10
33.5
 20
-10.0
 30
0.0
 11
33.5
 21
-11.0
 31
0.0
  0
LINE
  5
57
100
AcDbEntity
100
AcDbLine
  8
0
 62
256
370
-1
  6
ByLayer
 10
36.5
 20
-11.0
 30
0.0
 11
36.5
 21
-10.0
 31
0.0
  0
LINE
  5
58
100
AcDbEntity
100
AcDbLine
  8
0
 62
256
370
-1
  6
ByLayer
 10
20.0
 20
5.0
 30
0.0
 11
20.0
 21
0.0
 31
0.0
  0
LINE
  5
59
100
AcDbEntity
100
AcDbLine
  8
0
 62
256
370
-1
  6
ByLayer
 10
10.0
 20
5.0
 30
0.0
 11
20.0
 21
5.0
 31
0.0
  0
LINE
  5
5A
100
AcDbEntity
100
AcDbLine
  8
0
 62
256
370
-1
  6
ByLayer
 10
10.0
 20
0.0
 30
0.0
 11
10.0
 21
5.0
 31
0.0
  0
LINE
  5
5B
100
AcDbEntity
100
AcDbLine
  8
0
 62
256
370
-1
  6
ByLayer
 10
50.0
 20
5.0
 30
0.0
 11
60.0
 21
5.0
 31
0.0
  0
LINE
  5
5C
100
AcDbEntity
100
AcDbLine
  8
0
 62
256
370
-1
  6
ByLayer
 10
60.0
 20
5.0
 30
0.0
 11
60.0
 21
0.0
 31
0.0
  0
LINE
  5
5D
100
AcDbEntity
100
AcDbLine
  8
0
 62
256
370
-1
  6
ByLayer
 10
50.0
 20
0.0
 30
0.0
 11
50.0
 21
5.0
 31
0.0
  0
ENDBLK
  5
5E
100
AcDbEntity
  8
0
100
AcDbBlockEnd
  0
ENDSEC
  0
SECTION
  2
ENTITIES
  0
LINE
  5
5F
100
AcDbEntity
100
AcDbLine
  8
0
 62
256
370
-1
  6
ByLayer
 10
4.999096186107522
 20
-7.0000000000001776
 30
0.0
 11
4.999096186107522
 21
-7.0000000000001776
 31
0.0
  0
ARC
  5
60
100
AcDbEntity
  8
0
 62
256
370
-1
  6
ByLayer
100
AcDbCircle
 10
230.9999999999994884
 20
-2.0000000000007248
 30
0.0
 40
2.0
100
AcDbArc
 50
90.0
 51
180.0
  0
ARC
  5
61
100
AcDbEntity
  8
0
 62
256
370
-1
  6
ByLayer
100
AcDbCircle
 10
218.9999999999994316
 20
-2.0000000000006963
 30
0.0
 40
2.0
100
AcDbArc
 50
360.0
 51
90.0
  0
ARC
  5
62
100
AcDbEntity
  8
0
 62
256
370
-1
  6
ByLayer
100
AcDbCircle
 10
70.9999999999994458
 20
-2.0000000000006253
 30
0.0
 40
2.0
100
AcDbArc
 50
90.0
 51
180.0
  0
ARC
  5
63
100
AcDbEntity
  8
0
 62
256
370
-1
  6
ByLayer
100
AcDbCircle
 10
58.99999999999973
 20
-2.0000000000005187
 30
0.0
 40
2.0
100
AcDbArc
 50
360.0
 51
90.0
  0
LINE
  5
64
100
AcDbEntity
100
AcDbLine
  8
0
 62
256
370
-1
  6
ByLayer
 10
4.9999999999988347
 20
-50.0000000000001137
 30
0.0
 11
4.9999999999986358
 21
-60.0000000000000924
 31
0.0
  0
LINE
  5
65
100
AcDbEntity
100
AcDbLine
  8
0
 62
256
370
-1
  6
ByLayer
 10
4.9999999999986358
 20
-60.0000000000000924
 30
0.0
 11
4.9999999999986358
 21
-60.0000000000000924
 31
0.0
  0
LINE
  5
66
100
AcDbEntity
100
AcDbLine
  8
0
 62
256
370
-1
  6
ByLayer
 10
14.9999999999993747
 20
-30.5000000000003055
 30
0.0
 11
14.9999999999993747
 21
-30.5000000000003055
 31
0.0
  0
LINE
  5
67
100
AcDbEntity
100
AcDbLine
  8
0
 62
256
370
-1
  6
ByLayer
 10
11.99999999999946
 20
-27.7500000000002842
 30
0.0
 11
14.9999999999993747
 21
-27.747483968956395
 31
0.0
  0
LINE
  5
68
100
AcDbEntity
100
AcDbLine
  8
0
 62
256
370
-1
  6
ByLayer
 10
14.9999999999994316
 20
-26.5000000000003268
 30
0.0
 11
14.9999999999993747
 21
-27.747483968956395
 31
0.0
  0
LINE
  5
69
100
AcDbEntity
100
AcDbLine
  8
0
 62
256
370
-1
  6
ByLayer
 10
11.9999999999994884
 20
-22.2500000000002451
 30
0.0
 11
14.9999999999994884
 21
-22.2453083395831683
 31
0.0
  0
LINE
  5
6A
100
AcDbEntity
100
AcDbLine
  8
0
 62
256
370
-1
  6
ByLayer
 10
14.9999999999994884
 20
-22.2453083395831683
 30
0.0
 11
14.9999999999994884
 21
-23.5000000000003766
 31
0.0
  0
LINE
  5
6B
100
AcDbEntity
100
AcDbLine
  8
0
 62
256
370
-1
  6
ByLayer
 10
4.9999999999994884
 20
-23.5827980153517096
 30
0.0
 11
11.9987197232201481
 21
-23.5835159800340506
 31
0.0
  0
LINE
  5
6C
100
AcDbEntity
100
AcDbLine
  8
0
 62
256
370
-1
  6
ByLayer
 10
11.9987197232200629
 20
-26.4008093934437653
 30
0.0
 11
4.9955127207122416
 21
-26.4008093934436552
 31
0.0
  0
LINE
  5
6D
100
AcDbEntity
100
AcDbLine
  8
0
 62
256
370
-1
  6
ByLayer
 10
4.9955127207122416
 20
-26.4008093934436552
 30
0.0
 11
4.9999999999990905
 21
-40.0000000000001066
 31
0.0
  0
LINE
  5
6E
100
AcDbEntity
100
AcDbLine
  8
0
 62
256
370
-1
  6
ByLayer
 10
4.9999999999998295
 20
-10.0000000000000924
 30
0.0
 11
4.9999999999994884
 21
-23.5827980153517096
 31
0.0
  0
LINE
  5
6F
100
AcDbEntity
100
AcDbLine
  8
0
 62
256
370
-1
  6
ByLayer
 10
11.99999999999946
 20
-27.7500000000002842
 30
0.0
 11
11.9987197232200629
 21
-26.4008093934437653
 31
0.0
  0
LINE
  5
70
100
AcDbEntity
100
AcDbLine
  8
0
 62
256
370
-1
  6
ByLayer
 10
11.9987197232201481
 20
-23.5835159800340506
 30
0.0
 11
11.9999999999994884
 21
-22.2500000000002451
 31
0.0
  0
LINE
  5
71
100
AcDbEntity
100
AcDbLine
  8
0
 62
256
370
-1
  6
ByLayer
 10
15.9999999999994884
 20
-23.5000000000003979
 30
0.0
 11
15.9999999999994031
 21
-26.5000000000004121
 31
0.0
  0
LINE
  5
72
100
AcDbEntity
100
AcDbLine
  8
0
 62
256
370
-1
  6
ByLayer
 10
14.9999999999994884
 20
-23.5000000000003766
 30
0.0
 11
15.9999999999994884
 21
-23.5000000000003979
 31
0.0
  0
LINE
  5
73
100
AcDbEntity
100
AcDbLine
  8
0
 62
256
370
-1
  6
ByLayer
 10
15.9999999999994031
 20
-26.5000000000004121
 30
0.0
 11
14.9999999999994316
 21
-26.5000000000003268
 31
0.0
  0
LINE
  5
74
100
AcDbEntity
100
AcDbLine
  8
0
 62
256
370
-1
  6
ByLayer
 10
-0.000000000000199
 20
-10.0
 30
0.0
 11
4.9999999999998295
 21
-10.0000000000000924
 31
0.0
  0
LINE
  5
75
100
AcDbEntity
100
AcDbLine
  8
0
 62
256
370
-1
  6
ByLayer
 10
0.0
 20
0.0
 30
0.0
 11
-0.000000000000199
 21
-10.0
 31
0.0
  0
LINE
  5
76
100
AcDbEntity
100
AcDbLine
  8
0
 62
256
370
-1
  6
ByLayer
 10
5.0000000000000284
 20
-0.0000000000001137
 30
0.0
 11
0.0
 21
0.0
 31
0.0
  0
LINE
  5
77
100
AcDbEntity
100
AcDbLine
  8
0
 62
256
370
-1
  6
ByLayer
 10
-0.0000000000009663
 20
-39.9999999999999929
 30
0.0
 11
-0.0000000000011084
 21
-50.0000000000000213
 31
0.0
  0
LINE
  5
78
100
AcDbEntity
100
AcDbLine
  8
0
 62
256
370
-1
  6
ByLayer
 10
-0.0000000000011084
 20
-50.0000000000000213
 30
0.0
 11
4.9999999999988347
 21
-50.0000000000001137
 31
0.0
  0
LINE
  5
79
100
AcDbEntity
100
AcDbLine
  8
0
 62
256
370
-1
  6
ByLayer
 10
4.9999999999990905
 20
-40.0000000000001066
 30
0.0
 11
-0.0000000000009663
 21
-39.9999999999999929
 31
0.0
  0
LINE
  5
7A
100
AcDbEntity
100
AcDbLine
  8
0
 62
256
370
-1
  6
ByLayer
 10
278.0000000000002274
 20
-27.750000000000199
 30
0.0
 11
275.0000000000002274
 21
-27.74748396895626
 31
0.0
  0
LINE
  5
7B
100
AcDbEntity
100
AcDbLine
  8
0
 62
256
370
-1
  6
ByLayer
 10
275.0000000000002274
 20
-26.5000000000002416
 30
0.0
 11
275.0000000000002274
 21
-27.74748396895626
 31
0.0
  0
LINE
  5
7C
100
AcDbEntity
100
AcDbLine
  8
0
 62
256
370
-1
  6
ByLayer
 10
278.0000000000002274
 20
-22.2500000000001847
 30
0.0
 11
275.0000000000002842
 21
-22.2453083395831044
 31
0.0
  0
LINE
  5
7D
100
AcDbEntity
100
AcDbLine
  8
0
 62
256
370
-1
  6
ByLayer
 10
275.0000000000002842
 20
-22.2453083395831044
 30
0.0
 11
275.0000000000002274
 21
-23.500000000000199
 31
0.0
  0
LINE
  5
7E
100
AcDbEntity
100
AcDbLine
  8
0
 62
256
370
-1
  6
ByLayer
 10
285.0000000000002274
 20
-23.5827980153517984
 30
0.0
 11
278.0012802767796529
 21
-23.5835159800339937
 31
0.0
  0
LINE
  5
7F
100
AcDbEntity
100
AcDbLine
  8
0
 62
256
370
-1
  6
ByLayer
 10
278.0012802767795961
 20
-26.4008093934436801
 30
0.0
 11
285.0044872792874457
 21
-26.4008093934437653
 31
0.0
  0
LINE
  5
80
100
AcDbEntity
100
AcDbLine
  8
0
 62
256
370
-1
  6
ByLayer
 10
285.0044872792874457
 20
-26.4008093934437653
 30
0.0
 11
285.0000000000002274
 21
-40.0000000000001492
 31
0.0
  0
LINE
  5
81
100
AcDbEntity
100
AcDbLine
  8
0
 62
256
370
-1
  6
ByLayer
 10
285.0000000000002842
 20
-10.0000000000002984
 30
0.0
 11
285.0000000000002274
 21
-23.5827980153517984
 31
0.0
  0
LINE
  5
82
100
AcDbEntity
100
AcDbLine
  8
0
 62
256
370
-1
  6
ByLayer
 10
278.0000000000002274
 20
-27.750000000000199
 30
0.0
 11
278.0012802767795961
 21
-26.4008093934436801
 31
0.0
  0
LINE
  5
83
100
AcDbEntity
100
AcDbLine
  8
0
 62
256
370
-1
  6
ByLayer
 10
278.0012802767796529
 20
-23.5835159800339937
 30
0.0
 11
278.0000000000002274
 21
-22.2500000000001847
 31
0.0
  0
LINE
  5
84
100
AcDbEntity
100
AcDbLine
  8
0
 62
256
370
-1
  6
ByLayer
 10
274.0000000000002274
 20
-23.500000000000167
 30
0.0
 11
274.0000000000002274
 21
-26.5000000000001492
 31
0.0
  0
LINE
  5
85
100
AcDbEntity
100
AcDbLine
  8
0
 62
256
370
-1
  6
ByLayer
 10
275.0000000000002274
 20
-23.500000000000199
 30
0.0
 11
274.0000000000002274
 21
-23.500000000000167
 31
0.0
  0
LINE
  5
86
100
AcDbEntity
100
AcDbLine
  8
0
 62
256
370
-1
  6
ByLayer
 10
274.0000000000002274
 20
-26.5000000000001492
 30
0.0
 11
275.0000000000002274
 21
-26.5000000000002416
 31
0.0
  0
LINE
  5
87
100
AcDbEntity
100
AcDbLine
  8
0
 62
256
370
-1
  6
ByLayer
 10
290.0000000000003411
 20
-10.0000000000002274
 30
0.0
 11
285.0000000000002842
 21
-10.0000000000002984
 31
0.0
  0
LINE
  5
88
100
AcDbEntity
100
AcDbLine
  8
0
 62
256
370
-1
  6
ByLayer
 10
290.0000000000003411
 20
-0.0000000000002558
 30
0.0
 11
290.0000000000003411
 21
-10.0000000000002274
 31
0.0
  0
LINE
  5
89
100
AcDbEntity
100
AcDbLine
  8
0
 62
256
370
-1
  6
ByLayer
 10
285.0000000000002274
 20
-0.0000000000001492
 30
0.0
 11
290.0000000000003411
 21
-0.0000000000002558
 31
0.0
  0
LINE
  5
8A
100
AcDbEntity
100
AcDbLine
  8
0
 62
256
370
-1
  6
ByLayer
 10
290.0000000000002274
 20
-40.0000000000001705
 30
0.0
 11
290.0000000000002274
 21
-50.0000000000002061
 31
0.0
  0
LINE
  5
8B
100
AcDbEntity
100
AcDbLine
  8
0
 62
256
370
-1
  6
ByLayer
 10
290.0000000000002274
 20
-50.0000000000002061
 30
0.0
 11
285.0000000000002274
 21
-50.0000000000002842
 31
0.0
  0
LINE
  5
8C
100
AcDbEntity
100
AcDbLine
  8
0
 62
256
370
-1
  6
ByLayer
 10
285.0000000000002274
 20
-40.0000000000001492
 30
0.0
 11
290.0000000000002274
 21
-40.0000000000001705
 31
0.0
  0
LINE
  5
8D
100
AcDbEntity
100
AcDbLine
  8
0
 62
256
370
-1
  6
ByLayer
 10
284.9999999999996589
 20
-0.0000000000002132
 30
0.0
 11
230.9999999999994884
 21
-0.0000000000002416
 31
0.0
  0
LINE
  5
8E
100
AcDbEntity
100
AcDbLine
  8
0
 62
256
370
-1
  6
ByLayer
 10
218.9999999999993747
 20
-0.000000000000199
 30
0.0
 11
70.9999999999994316
 21
-0.0000000000001776
 31
0.0
  0
LINE
  5
8F
100
AcDbEntity
100
AcDbLine
  8
0
 62
256
370
-1
  6
ByLayer
 10
58.9999999999997584
 20
-0.0000000000001492
 30
0.0
 11
5.0000000000000853
 21
-0.000000000000199
 31
0.0
  0
INSERT
  5
90
100
AcDbEntity
100
AcDbBlockReference
  8
0
 62
256
370
-1
  6
ByLayer
  2
tgrips
 10
5.0000000000002842
 20
-107.0000000000000142
 30
0.0
 41
1.0
 42
-1.0
 43
1.0
 50
360.0
 44
1.0
 45
1.0
  0
LINE
  5
91
100
AcDbEntity
100
AcDbLine
  8
0
 62
256
370
-1
  6
ByLayer
 10
285.0000000000002274
 20
-50.0000000000002842
 30
0.0
 11
284.99999999999892
 21
-107.000000000000739
 31
0.0
  0
LINE
  5
92
100
AcDbEntity
100
AcDbLine
  8
0
 62
256
370
-1
  6
ByLayer
 10
4.9999999999984368
 20
-59.74999999999973
 30
0.0
 11
5.0000000000002842
 21
-107.0000000000000142
 31
0.0
  0
MTEXT
  5
93
100
AcDbEntity
100
AcDbMText
  8
Etch
 62
256
370
-1
  6
ByLayer
 10
20.0
 20
-74.0
 30
0.0
 40
3.0
 41
100.0
 71
1
 72
2
  1
Revision\~1
  7
standard
 50
0.0
 73
0
 44
1.0
  0
MTEXT
  5
94
100
AcDbEntity
100
AcDbMText
  8
Etch
 62
256
370
-1
  6
ByLayer
 10
20.0
 20
-70.0
 30
0.0
 40
3.0
 41
100.0
 71
1
 72
2
  1
Version\~2
  7
normal
 50
0.0
 73
1
 44
1.0
  0
LINE
  5
95
100
AcDbEntity
100
AcDbLine
  8
Drawings
 62
256
370
-1
  6
ByLayer
 10
200.99999999999892
 20
-107.000000000000739
 30
0.0
 11
264.99999999999892
 21
-107.000000000000739
 31
0.0
  0
LINE
  5
96
100
AcDbEntity
100
AcDbLine
  8
Drawings
 62
256
370
-1
  6
ByLayer
 10
200.99999999999892
 20
-107.000000000000739
 30
0.0
 11
200.99999999999892
 21
-7.000000000000739
 31
0.0
  0
LINE
  5
97
100
AcDbEntity
100
AcDbLine
  8
Drawings
 62
256
370
-1
  6
ByLayer
 10
264.99999999999892
 20
-107.000000000000739
 30
0.0
 11
264.99999999999892
 21
-7.000000000000739
 31
0.0
  0
LINE
  5
98
100
AcDbEntity
100
AcDbLine
  8
Drawings
 62
256
370
-1
  6
ByLayer
 10
200.99999999999892
 20
-7.000000000000739
 30
0.0
 11
264.99999999999892
 21
-7.000000000000739
 31
0.0
  0
LINE
  5
99
100
AcDbEntity
100
AcDbLine
  8
Etch
 62
256
370
-1
  6
ByLayer
 10
30.3399685255813552
 20
-57.555932811047569
 30
0.0
 11
31.17330185891376
 21
-57.5559328110476542
 31
0.0
  0
ARC
  5
9A
100
AcDbEntity
  8
Etch
 62
256
370
-1
  6
ByLayer
100
AcDbCircle
 10
31.1733018589138169
 20
-57.055932811047569
 30
0.0
 40
0.5
100
AcDbArc
 50
270.0
 51
360.0
  0
LINE
  5
9B
100
AcDbEntity
100
AcDbLine
  8
Etch
 62
256
370
-1
  6
ByLayer
 10
31.6733018589141579
 20
-57.0559328110476685
 30
0.0
 11
31.6733018589138169
 21
-56.055932811047569
 31
0.0
  0
ARC
  5
9C
100
AcDbEntity
  8
Etch
 62
256
370
-1
  6
ByLayer
100
AcDbCircle
 10
31.1733018589142148
 20
-56.0559328110475406
 30
0.0
 40
0.5
100
AcDbArc
 50
360.0
 51
90.0
  0
LINE
  5
9D
100
AcDbEntity
100
AcDbLine
  8
Etch
 62
256
370
-1
  6
ByLayer
 10
31.1733018589138169
 20
-55.5559328110474411
 30
0.0
 11
30.3399685255808436
 21
-55.5559328110480664
 31
0.0
  0
LINE
  5
9E
100
AcDbEntity
100
AcDbLine
  8
Etch
 62
256
370
-1
  6
ByLayer
 10
30.3399685255808436
 20
-55.5559328110480664
 30
0.0
 11
30.3399685255812415
 21
-58.5559328110475406
 31
0.0
  0
LINE
  5
9F
100
AcDbEntity
100
AcDbLine
  8
Etch
 62
256
370
-1
  6
ByLayer
 10
32.6733018589143853
 20
-56.2225994777145672
 30
0.0
 11
32.6733018589143853
 21
-56.8892661443810965
 31
0.0
  0
ARC
  5
A0
100
AcDbEntity
  8
Etch
 62
256
370
-1
  6
ByLayer
100
AcDbCircle
 10
33.3399685255812415
 20
-56.889266144380656
 30
0.0
 40
0.6666666666666666
100
AcDbArc
 50
180.0
 51
360.0
  0
LINE
  5
A1
100
AcDbEntity
100
AcDbLine
  8
Etch
 62
256
370
-1
  6
ByLayer
 10
34.0066351922471881
 20
-56.8892661443806844
 30
0.0
 11
34.0066351922473018
 21
-56.2225994777141409
 31
0.0
  0
ARC
  5
A2
100
AcDbEntity
  8
Etch
 62
256
370
-1
  6
ByLayer
100
AcDbCircle
 10
33.3399685255812415
 20
-56.2225994777141409
 30
0.0
 40
0.6666666666666666
100
AcDbArc
 50
360.0
 51
180.0
  0
LINE
  5
A3
100
AcDbEntity
100
AcDbLine
  8
Etch
 62
256
370
-1
  6
ByLayer
 10
35.0066351922482681
 20
-55.5559328110474979
 30
0.0
 11
35.5066351922473018
 21
-57.5559328110476827
 31
0.0
  0
LINE
  5
A4
100
AcDbEntity
100
AcDbLine
  8
Etch
 62
256
370
-1
  6
ByLayer
 10
35.5066351922473018
 20
-57.5559328110476827
 30
0.0
 11
36.0066351922474155
 21
-56.2225994777140841
 31
0.0
  0
LINE
  5
A5
100
AcDbEntity
100
AcDbLine
  8
Etch
 62
256
370
-1
  6
ByLayer
 10
36.0066351922474155
 20
-56.2225994777140841
 30
0.0
 11
36.5066351922475292
 21
-57.5559328110475121
 31
0.0
  0
LINE
  5
A6
100
AcDbEntity
100
AcDbLine
  8
Etch
 62
256
370
-1
  6
ByLayer
 10
36.5066351922475292
 20
-57.5559328110475121
 30
0.0
 11
37.006635192247245
 21
-55.5559328110477679
 31
0.0
  0
LINE
  5
A7
100
AcDbEntity
100
AcDbLine
  8
Etch
 62
256
370
-1
  6
ByLayer
 10
38.0066351922473018
 20
-56.5559328110474553
 30
0.0
 11
39.3399685255812415
 21
-56.555932811047569
 31
0.0
  0
LINE
  5
A8
100
AcDbEntity
100
AcDbLine
  8
Etch
 62
256
370
-1
  6
ByLayer
 10
39.3399685255812415
 20
-56.555932811047569
 30
0.0
 11
39.3399685255812415
 21
-56.2225994777145672
 31
0.0
  0
ARC
  5
A9
100
AcDbEntity
  8
Etch
 62
256
370
-1
  6
ByLayer
100
AcDbCircle
 10
38.6733018589138169
 20
-56.2225994777146241
 30
0.0
 40
0.6666666666666666
100
AcDbArc
 50
360.0
 51
180.0
  0
LINE
  5
AA
100
AcDbEntity
100
AcDbLine
  8
Etch
 62
256
370
-1
  6
ByLayer
 10
38.0066351922478134
 20
-56.2225994777141125
 30
0.0
 11
38.0066351922480976
 21
-57.0559328110481658
 31
0.0
  0
ARC
  5
AB
100
AcDbEntity
  8
Etch
 62
256
370
-1
  6
ByLayer
100
AcDbCircle
 10
38.5066351922473018
 20
-57.055932811048109
 30
0.0
 40
0.5
100
AcDbArc
 50
180.0
 51
270.0
  0
LINE
  5
AC
100
AcDbEntity
100
AcDbLine
  8
Etch
 62
256
370
-1
  6
ByLayer
 10
38.5066351922473018
 20
-57.5559328110476258
 30
0.0
 11
39.3399685255812415
 21
-57.5559328110476542
 31
0.0
  0
LINE
  5
AD
100
AcDbEntity
100
AcDbLine
  8
Etch
 62
256
370
-1
  6
ByLayer
 10
40.339968525580673
 20
-57.5559328110480379
 30
0.0
 11
40.3399685255813552
 21
-55.555932811047569
 31
0.0
  0
LINE
  5
AE
100
AcDbEntity
100
AcDbLine
  8
Etch
 62
256
370
-1
  6
ByLayer
 10
40.3399685255813552
 20
-55.555932811047569
 30
0.0
 11
41.006635192248325
 21
-55.5559328110475406
 31
0.0
  0
ARC
  5
AF
100
AcDbEntity
  8
Etch
 62
256
370
-1
  6
ByLayer
100
AcDbCircle
 10
41.0066351922474155
 20
-55.8892661443810681
 30
0.0
 40
0.3333333333333333
100
AcDbArc
 50
360.0
 51
90.0
  0
CIRCLE
  5
B0
100
AcDbEntity
100
AcDbCircle
  8
Etch
 62
256
370
-1
  6
ByLayer
 10
23.5534323606470934
 20
-49.6680597158852208
 30
0.0
 40
6.5192024052026492
  0
SPLINE
  5
B1
  8
Etch
 62
256
370
5
  6
ByLayer
100
AcDbEntity
100
AcDbSpline
 70
8
 71
3
 72
8
 73
4
 74
0
 40
0.0
 40
0.0
 40
0.0
 40
0.0
 40
1.0
 40
1.0
 40
1.0
 40
1.0
 10
20.3888283775164041
 20
-53.4058823135811309
 30
0.0
 10
20.0339710837601501
 20
-53.1996076418609505
 30
0.0
 10
19.9999999999996021
 20
-52.9020435420761999
 30
0.0
 10
20.0
 20
-50.0
 30
0.0
  0
SPLINE
  5
B2
  8
Etch
 62
256
370
5
  6
ByLayer
100
AcDbEntity
100
AcDbSpline
 70
8
 71
3
 72
8
 73
4
 74
0
 40
0.0
 40
0.0
 40
0.0
 40
0.0
 40
1.0
 40
1.0
 40
1.0
 40
1.0
 10
20.0
 20
-50.0
 30
0.0
 10
20.0000000000001705
 20
-46.8061796121895952
 30
0.0
 10
20.034476162890428
 20
-46.5425072984244537
 30
0.0
 10
20.5211126552795236
 20
-46.0145688256607315
 30
0.0
  0
SPLINE
  5
B3
  8
Etch
 62
256
370
5
  6
ByLayer
100
AcDbEntity
100
AcDbSpline
 70
8
 71
3
 72
8
 73
4
 74
0
 40
0.0
 40
0.0
 40
0.0
 40
0.0
 40
1.0
 40
1.0
 40
1.0
 40
1.0
 10
20.5211126552795236
 20
-46.0145688256607315
 30
0.0
 10
21.0298687730409597
 20
-45.4626342120923965
 30
0.0
 10
21.3369477114993629
 20
-45.4003837271393991
 30
0.0
 10
23.5508849986772475
 20
-45.4003837271393849
 30
0.0
  0
SPLINE
  5
B4
  8
Etch
 62
256
370
5
  6
ByLayer
100
AcDbEntity
100
AcDbSpline
 70
8
 71
3
 72
8
 73
4
 74
0
 40
0.0
 40
0.0
 40
0.0
 40
0.0
 40
1.0
 40
1.0
 40
1.0
 40
1.0
 10
23.5508849986772475
 20
-45.4003837271393849
 30
0.0
 10
25.686195934211753
 20
-45.400383727139328
 30
0.0
 10
26.0220273971951315
 20
-45.4633014373047928
 30
0.0
 10
26.5289818589394599
 20
-45.9583283976999581
 30
0.0
  0
SPLINE
  5
B5
  8
Etch
 62
256
370
5
  6
ByLayer
100
AcDbEntity
100
AcDbSpline
 70
8
 71
3
 72
8
 73
4
 74
0
 40
0.0
 40
0.0
 40
0.0
 40
0.0
 40
1.0
 40
1.0
 40
1.0
 40
1.0
 10
26.5289818589394599
 20
-45.9583283976999581
 30
0.0
 10
27.0669902543909302
 20
-46.4836799303158017
 30
0.0
 10
27.0980009885938671
 20
-46.6999967113233367
 30
0.0
 10
27.0980009885929007
 20
-49.9275405254638542
 30
0.0
  0
SPLINE
  5
B6
  8
Etch
 62
256
370
5
  6
ByLayer
100
AcDbEntity
100
AcDbSpline
 70
8
 71
3
 72
8
 73
4
 74
0
 40
0.0
 40
0.0
 40
0.0
 40
0.0
 40
1.0
 40
1.0
 40
1.0
 40
1.0
 10
27.0980009885929007
 20
-49.9275405254638542
 30
0.0
 10
27.0980009885926734
 20
-52.9318920320949644
 30
0.0
 10
27.0655628954436338
 20
-53.2108543072218083
 30
0.0
 10
26.6930307910120632
 20
-53.4102277102429923
 30
0.0
  0
SPLINE
  5
B7
  8
Etch
 62
256
370
5
  6
ByLayer
100
AcDbEntity
100
AcDbSpline
 70
8
 71
3
 72
8
 73
4
 74
0
 40
0.0
 40
0.0
 40
0.0
 40
0.0
 40
1.0
 40
1.0
 40
1.0
 40
1.0
 10
26.6930307910120632
 20
-53.4102277102429923
 30
0.0
 10
26.3429221879146667
 20
-53.5975999360535695
 30
0.0
 10
25.6811481017830943
 20
-53.4281457400429645
 30
0.0
 10
25.5632610942612928
 20
-53.1209374989587957
 30
0.0
  0
SPLINE
  5
B8
  8
Etch
 62
256
370
5
  6
ByLayer
100
AcDbEntity
100
AcDbSpline
 70
8
 71
3
 72
8
 73
4
 74
0
 40
0.0
 40
0.0
 40
0.0
 40
0.0
 40
1.0
 40
1.0
 40
1.0
 40
1.0
 10
25.5632610942612928
 20
-53.1209374989587957
 30
0.0
 10
25.5347313726564948
 20
-53.0465896735121873
 30
0.0
 10
25.5113888462613545
 20
-51.6548271176770868
 30
0.0
 10
25.5113888462620366
 20
-50.0281308659128001
 30
0.0
  0
LINE
  5
B9
100
AcDbEntity
100
AcDbLine
  8
Etch
 62
256
370
5
  6
ByLayer
 10
25.5113888462620366
 20
-50.0281308659128001
 30
0.0
 11
25.5113888462619229
 21
-47.0705016938341601
 31
0.0
  0
LINE
  5
BA
100
AcDbEntity
100
AcDbLine
  8
Etch
 62
256
370
5
  6
ByLayer
 10
25.5113888462619229
 20
-47.0705016938341601
 30
0.0
 11
24.9298563589740638
 21
-47.0705016938341032
 31
0.0
  0
LINE
  5
BB
100
AcDbEntity
100
AcDbLine
  8
Etch
 62
256
370
5
  6
ByLayer
 10
24.9298563589740638
 20
-47.0705016938341032
 30
0.0
 11
24.3483244634612674
 21
-47.0705016938340748
 31
0.0
  0
LINE
  5
BC
100
AcDbEntity
100
AcDbLine
  8
Etch
 62
256
370
5
  6
ByLayer
 10
24.3483244634612674
 20
-47.0705016938340748
 30
0.0
 11
24.324438392624927
 21
-50.0840221471990361
 31
0.0
  0
LINE
  5
BD
100
AcDbEntity
100
AcDbLine
  8
Etch
 62
256
370
5
  6
ByLayer
 10
24.324438392624927
 20
-50.0840221471990361
 30
0.0
 11
24.3005532094507544
 21
-53.0975426005640543
 31
0.0
  0
LINE
  5
BE
100
AcDbEntity
100
AcDbLine
  8
Etch
 62
256
370
5
  6
ByLayer
 10
24.3005532094507544
 20
-53.0975426005640543
 30
0.0
 11
24.066255670596945
 21
-53.2989987522710464
 31
0.0
  0
SPLINE
  5
BF
  8
Etch
 62
256
370
5
  6
ByLayer
100
AcDbEntity
100
AcDbSpline
 70
8
 71
3
 72
8
 73
4
 74
0
 40
0.0
 40
0.0
 40
0.0
 40
0.0
 40
1.0
 40
1.0
 40
1.0
 40
1.0
 10
24.066255670596945
 20
-53.2989987522710464
 30
0.0
 10
23.7564699577515626
 20
-53.5653618625238437
 30
0.0
 10
23.3415307349544605
 20
-53.5653618625239005
 30
0.0
 10
23.0317447262219162
 20
-53.2989987522714728
 30
0.0
  0
LINE
  5
C0
100
AcDbEntity
100
AcDbLine
  8
Etch
 62
256
370
5
  6
ByLayer
 10
23.0317447262219162
 20
-53.2989987522714728
 30
0.0
 11
22.7974471873684479
 21
-53.0975426005634858
 31
0.0
  0
LINE
  5
C1
100
AcDbEntity
100
AcDbLine
  8
Etch
 62
256
370
5
  6
ByLayer
 10
22.7974471873684479
 20
-53.0975426005634858
 30
0.0
 11
22.7735620041944458
 21
-50.0840221471990077
 31
0.0
  0
LINE
  5
C2
100
AcDbEntity
100
AcDbLine
  8
Etch
 62
256
370
5
  6
ByLayer
 10
22.7735620041944458
 20
-50.0840221471990077
 30
0.0
 11
22.7496759333583896
 21
-47.0705016938342027
 31
0.0
  0
LINE
  5
C3
100
AcDbEntity
100
AcDbLine
  8
Etch
 62
256
370
5
  6
ByLayer
 10
22.7496759333583896
 20
-47.0705016938342027
 30
0.0
 11
22.1681443337320161
 21
-47.0705016938342027
 31
0.0
  0
LINE
  5
C4
100
AcDbEntity
100
AcDbLine
  8
Etch
 62
256
370
5
  6
ByLayer
 10
22.1681443337320161
 20
-47.0705016938342027
 30
0.0
 11
21.5866118464446686
 21
-47.0705016938342027
 31
0.0
  0
LINE
  5
C5
100
AcDbEntity
100
AcDbLine
  8
Etch
 62
256
370
5
  6
ByLayer
 10
21.5866118464446686
 20
-47.0705016938342027
 30
0.0
 11
21.5866118464446117
 21
-50.0281308659127717
 31
0.0
  0
SPLINE
  5
C6
  8
Etch
 62
256
370
5
  6
ByLayer
100
AcDbEntity
100
AcDbSpline
 70
8
 71
3
 72
8
 73
4
 74
0
 40
0.0
 40
0.0
 40
0.0
 40
0.0
 40
1.0
 40
1.0
 40
1.0
 40
1.0
 10
21.5866118464446117
 20
-50.0281308659127717
 30
0.0
 10
21.5866118464445549
 20
-51.6548271176770868
 30
0.0
 10
21.563269615937827
 20
-53.0465896735126563
 30
0.0
 10
21.5347395984452987
 20
-53.1209374989575878
 30
0.0
  0
SPLINE
  5
C7
  8
Etch
 62
256
370
5
  6
ByLayer
100
AcDbEntity
100
AcDbSpline
 70
8
 71
3
 72
8
 73
4
 74
0
 40
0.0
 40
0.0
 40
0.0
 40
0.0
 40
1.0
 40
1.0
 40
1.0
 40
1.0
 10
21.5347395984452987
 20
-53.1209374989575878
 30
0.0
 10
21.416500485378549
 20
-53.4290641733259974
 30
0.0
 10
20.7246625034835006
 20
-53.6010982081998009
 30
0.0
 10
20.3888283775164041
 20
-53.4058823135811309
 30
0.0
  0
LINE
  5
C8
100
AcDbEntity
100
AcDbLine
  8
Etch
 62
256
370
5
  6
ByLayer
 10
20.3888283775164041
 20
-53.4058823135811309
 30
0.0
 11
20.3888283775164041
 21
-53.4058823135811309
 31
0.0
  0
ARC
  5
C9
100
AcDbEntity
  8
0
 62
256
370
-1
  6
ByLayer
100
AcDbCircle
 10
212.99999999999892
 20
-21.000000000000739
 30
0.0
 40
2.0
100
AcDbArc
 50
90.0
 51
180.0
  0
LINE
  5
CA
100
AcDbEntity
100
AcDbLine
  8
0
 62
256
370
-1
  6
ByLayer
 10
212.99999999999892
 20
-19.000000000000739
 30
0.0
 11
233.99999999999892
 21
-19.000000000000739
 31
0.0
  0
ARC
  5
CB
100
AcDbEntity
  8
0
 62
256
370
-1
  6
ByLayer
100
AcDbCircle
 10
233.99999999999892
 20
-21.000000000000739
 30
0.0
 40
2.0
100
AcDbArc
 50
0.0
 51
90.0
  0
LINE
  5
CC
100
AcDbEntity
100
AcDbLine
  8
0
 62
256
370
-1
  6
ByLayer
 10
235.99999999999892
 20
-49.000000000000739
 30
0.0
 11
235.99999999999892
 21
-21.000000000000739
 31
0.0
  0
ARC
  5
CD
100
AcDbEntity
  8
0
 62
256
370
-1
  6
ByLayer
100
AcDbCircle
 10
233.99999999999892
 20
-49.000000000000739
 30
0.0
 40
2.0
100
AcDbArc
 50
270.0
 51
0.0
  0
LINE
  5
CE
100
AcDbEntity
100
AcDbLine
  8
0
 62
256
370
-1
  6
ByLayer
 10
212.99999999999892
 20
-51.000000000000739
 30
0.0
 11
233.99999999999892
 21
-51.000000000000739
 31
0.0
  0
LINE
  5
CF
100
AcDbEntity
100
AcDbLine
  8
0
 62
256
370
-1
  6
ByLayer
 10
210.99999999999892
 20
-49.000000000000739
 30
0.0
 11
210.99999999999892
 21
-21.000000000000739
 31
0.0
  0
ARC
  5
D0
100
AcDbEntity
  8
0
 62
256
370
-1
  6
ByLayer
100
AcDbCircle
 10
212.99999999999892
 20
-49.000000000000739
 30
0.0
 40
2.0
100
AcDbArc
 50
180.0
 51
270.0
  0
LINE
  5
D1
100
AcDbEntity
100
AcDbLine
  8
Drawings
 62
256
370
-1
  6
ByLayer
 10
200.99999999999892
 20
-13.000000000000739
 30
0.0
 11
264.99999999999892
 21
-13.000000000000739
 31
0.0
  0
LINE
  5
D2
100
AcDbEntity
100
AcDbLine
  8
Drawings
 62
256
370
-1
  6
ByLayer
 10
206.99999999999892
 20
-107.000000000000739
 30
0.0
 11
206.99999999999892
 21
-7.0000000000007407
 31
0.0
  0
LINE
  5
D3
100
AcDbEntity
100
AcDbLine
  8
Drawings
 62
256
370
-1
  6
ByLayer
 10
200.99999999999892
 20
-101.000000000000739
 30
0.0
 11
264.99999999999892
 21
-101.000000000000739
 31
0.0
  0
LINE
  5
D4
100
AcDbEntity
100
AcDbLine
  8
Drawings
 62
256
370
-1
  6
ByLayer
 10
258.99999999999892
 20
-107.000000000000739
 30
0.0
 11
258.99999999999892
 21
-7.0000000000007381
 31
0.0
  0
CIRCLE
  5
D5
100
AcDbEntity
100
AcDbCircle
  8
0
 62
256
370
-1
  6
ByLayer
 10
206.99999999999892
 20
-13.000000000000739
 30
0.0
 40
1.5
  0
CIRCLE
  5
D6
100
AcDbEntity
100
AcDbCircle
  8
0
 62
256
370
-1
  6
ByLayer
 10
258.99999999999892
 20
-13.000000000000739
 30
0.0
 40
1.5
  0
CIRCLE
  5
D7
100
AcDbEntity
100
AcDbCircle
  8
0
 62
256
370
-1
  6
ByLayer
 10
258.99999999999892
 20
-101.000000000000739
 30
0.0
 40
1.5
  0
CIRCLE
  5
D8
100
AcDbEntity
100
AcDbCircle
  8
0
 62
256
370
-1
  6
ByLayer
 10
206.99999999999892
 20
-101.000000000000739
 30
0.0
 40
1.5
  0
LINE
  5
D9
100
AcDbEntity
100
AcDbLine
  8
0
 62
256
370
-1
  6
ByLayer
 10
240.99999999999892
 20
-43.000000000000739
 30
0.0
 11
240.99999999999892
 21
-27.000000000000739
 31
0.0
  0
LINE
  5
DA
100
AcDbEntity
100
AcDbLine
  8
0
 62
256
370
-1
  6
ByLayer
 10
240.99999999999892
 20
-27.000000000000739
 30
0.0
 11
249.99999999999892
 21
-27.000000000000739
 31
0.0
  0
LINE
  5
DB
100
AcDbEntity
100
AcDbLine
  8
0
 62
256
370
-1
  6
ByLayer
 10
240.99999999999892
 20
-43.000000000000739
 30
0.0
 11
249.99999999999892
 21
-43.000000000000739
 31
0.0
  0
LINE
  5
DC
100
AcDbEntity
100
AcDbLine
  8
0
 62
256
370
-1
  6
ByLayer
 10
249.99999999999892
 20
-43.000000000000739
 30
0.0
 11
249.99999999999892
 21
-27.000000000000739
 31
0.0
  0
INSERT
  5
DD
100
AcDbEntity
100
AcDbBlockReference
  8
0
 62
256
370
-1
  6
ByLayer
  2
tgrips
 10
154.99999999999892
 20
-107.0000000000007248
 30
0.0
 41
1.0
 42
-1.0
 43
1.0
 50
360.0
 44
1.0
 45
1.0
  0
LINE
  5
DE
100
AcDbEntity
100
AcDbLine
  8
0
 62
256
370
-1
  6
ByLayer
 10
154.99999999999892
 20
-107.0000000000007248
 30
0.0
 11
75.00000000000027
 21
-107.0000000000000568
 31
0.0
  0
LINE
  5
DF
100
AcDbEntity
100
AcDbLine
  8
0
 62
256
370
-1
  6
ByLayer
 10
224.99999999999892
 20
-107.000000000000739
 30
0.0
 11
284.99999999999892
 21
-107.000000000000739
 31
0.0
  0
LINE
  5
E0
100
AcDbEntity
100
AcDbLine
  8
0
 62
256
370
-1
  6
ByLayer
 10
220.99999999999946
 20
-3.2500000000005889
 30
0.0
 11
220.9999999999994884
 21
-2.0000000000006111
 31
0.0
  0
ARC
  5
E1
100
AcDbEntity
  8
0
 62
256
370
-1
  6
ByLayer
100
AcDbCircle
 10
222.99999999999946
 20
-3.2500000000006324
 30
0.0
 40
2.0
100
AcDbArc
 50
180.0
 51
270.0
  0
LINE
  5
E2
100
AcDbEntity
100
AcDbLine
  8
0
 62
256
370
-1
  6
ByLayer
 10
226.9999999999993747
 20
-5.2500000000006111
 30
0.0
 11
222.99999999999946
 21
-5.2500000000006324
 31
0.0
  0
LINE
  5
E3
100
AcDbEntity
100
AcDbLine
  8
0
 62
256
370
-1
  6
ByLayer
 10
228.9999999999994031
 20
-2.0000000000006253
 30
0.0
 11
228.9999999999993747
 21
-3.2500000000006439
 31
0.0
  0
ARC
  5
E4
100
AcDbEntity
  8
0
 62
256
370
-1
  6
ByLayer
100
AcDbCircle
 10
226.9999999999993747
 20
-3.2500000000006111
 30
0.0
 40
2.0
100
AcDbArc
 50
270.0
 51
360.0
  0
LINE
  5
E5
100
AcDbEntity
100
AcDbLine
  8
0
 62
256
370
-1
  6
ByLayer
 10
60.9999999999997087
 20
-3.2500000000003793
 30
0.0
 11
60.9999999999998295
 21
-2.00000000000054
 31
0.0
  0
ARC
  5
E6
100
AcDbEntity
  8
0
 62
256
370
-1
  6
ByLayer
100
AcDbCircle
 10
62.9999999999997087
 20
-3.2500000000005684
 30
0.0
 40
2.0
100
AcDbArc
 50
180.0
 51
270.0
  0
LINE
  5
E7
100
AcDbEntity
100
AcDbLine
  8
0
 62
256
370
-1
  6
ByLayer
 10
66.9999999999994316
 20
-5.2500000000005684
 30
0.0
 11
62.9999999999997087
 21
-5.2500000000005684
 31
0.0
  0
LINE
  5
E8
100
AcDbEntity
100
AcDbLine
  8
0
 62
256
370
-1
  6
ByLayer
 10
68.9999999999994458
 20
-2.0000000000005471
 30
0.0
 11
68.9999999999994316
 21
-3.2500000000005844
 31
0.0
  0
ARC
  5
E9
100
AcDbEntity
  8
0
 62
256
370
-1
  6
ByLayer
100
AcDbCircle
 10
66.9999999999994316
 20
-3.2500000000005684
 30
0.0
 40
2.0
100
AcDbArc
 50
270.0
 51
360.0
  0
CIRCLE
  5
EA
100
AcDbEntity
100
AcDbCircle
  8
grill
 62
256
370
-1
  6
ByLayer
 10
206.99999999999892
 20
-51.000000000000739
 30
0.0
 40
2.0
  0
CIRCLE
  5
EB
100
AcDbEntity
100
AcDbCircle
  8
grill
 62
256
370
-1
  6
ByLayer
 10
206.99999999999892
 20
-57.000000000000739
 30
0.0
 40
2.0
  0
CIRCLE
  5
EC
100
AcDbEntity
100
AcDbCircle
  8
grill
 62
256
370
-1
  6
ByLayer
 10
206.99999999999892
 20
-63.000000000000739
 30
0.0
 40
2.0
  0
CIRCLE
  5
ED
100
AcDbEntity
100
AcDbCircle
  8
grill
 62
256
370
-1
  6
ByLayer
 10
206.99999999999892
 20
-69.000000000000739
 30
0.0
 40
2.0
  0
CIRCLE
  5
EE
100
AcDbEntity
100
AcDbCircle
  8
grill
 62
256
370
-1
  6
ByLayer
 10
206.99999999999892
 20
-75.000000000000739
 30
0.0
 40
2.0
  0
CIRCLE
  5
EF
100
AcDbEntity
100
AcDbCircle
  8
grill
 62
256
370
-1
  6
ByLayer
 10
206.99999999999892
 20
-81.000000000000739
 30
0.0
 40
2.0
  0
CIRCLE
  5
F0
100
AcDbEntity
100
AcDbCircle
  8
grill
 62
256
370
-1
  6
ByLayer
 10
206.99999999999892
 20
-87.000000000000739
 30
0.0
 40
2.0
  0
CIRCLE
  5
F1
100
AcDbEntity
100
AcDbCircle
  8
grill
 62
256
370
-1
  6
ByLayer
 10
206.99999999999892
 20
-93.000000000000739
 30
0.0
 40
2.0
  0
CIRCLE
  5
F2
100
AcDbEntity
100
AcDbCircle
  8
grill
 62
256
370
-1
  6
ByLayer
 10
212.196152422705552
 20
-54.000000000000739
 30
0.0
 40
2.0
  0
CIRCLE
  5
F3
100
AcDbEntity
100
AcDbCircle
  8
grill
 62
256
370
-1
  6
ByLayer
 10
212.196152422705552
 20
-60.000000000000739
 30
0.0
 40
2.0
  0
CIRCLE
  5
F4
100
AcDbEntity
100
AcDbCircle
  8
grill
 62
256
370
-1
  6
ByLayer
 10
212.196152422705552
 20
-66.000000000000739
 30
0.0
 40
2.0
  0
CIRCLE
  5
F5
100
AcDbEntity
100
AcDbCircle
  8
grill
 62
256
370
-1
  6
ByLayer
 10
212.196152422705552
 20
-72.000000000000739
 30
0.0
 40
2.0
  0
CIRCLE
  5
F6
100
AcDbEntity
100
AcDbCircle
  8
grill
 62
256
370
-1
  6
ByLayer
 10
212.196152422705552
 20
-78.000000000000739
 30
0.0
 40
2.0
  0
CIRCLE
  5
F7
100
AcDbEntity
100
AcDbCircle
  8
grill
 62
256
370
-1
  6
ByLayer
 10
212.196152422705552
 20
-84.000000000000739
 30
0.0
 40
2.0
  0
CIRCLE
  5
F8
100
AcDbEntity
100
AcDbCircle
  8
grill
 62
256
370
-1
  6
ByLayer
 10
212.196152422705552
 20
-90.000000000000739
 30
0.0
 40
2.0
  0
CIRCLE
  5
F9
100
AcDbEntity
100
AcDbCircle
  8
grill
 62
256
370
-1
  6
ByLayer
 10
212.196152422705552
 20
-96.000000000000739
 30
0.0
 40
2.0
  0
CIRCLE
  5
FA
100
AcDbEntity
100
AcDbCircle
  8
grill
 62
256
370
-1
  6
ByLayer
 10
217.392304845412184
 20
-57.000000000000739
 30
0.0
 40
2.0
  0
CIRCLE
  5
FB
100
AcDbEntity
100
AcDbCircle
  8
grill
 62
256
370
-1
  6
ByLayer
 10
217.392304845412184
 20
-63.000000000000739
 30
0.0
 40
2.0
  0
CIRCLE
  5
FC
100
AcDbEntity
100
AcDbCircle
  8
grill
 62
256
370
-1
  6
ByLayer
 10
217.392304845412184
 20
-69.000000000000739
 30
0.0
 40
2.0
  0
CIRCLE
  5
FD
100
AcDbEntity
100
AcDbCircle
  8
grill
 62
256
370
-1
  6
ByLayer
 10
217.392304845412184
 20
-75.000000000000739
 30
0.0
 40
2.0
  0
CIRCLE
  5
FE
100
AcDbEntity
100
AcDbCircle
  8
grill
 62
256
370
-1
  6
ByLayer
 10
217.392304845412184
 20
-81.000000000000739
 30
0.0
 40
2.0
  0
CIRCLE
  5
FF
100
AcDbEntity
100
AcDbCircle
  8
grill
 62
256
370
-1
  6
ByLayer
 10
217.392304845412184
 20
-87.000000000000739
 30
0.0
 40
2.0
  0
CIRCLE
  5
100
100
AcDbEntity
100
AcDbCircle
  8
grill
 62
256
370
-1
  6
ByLayer
 10
217.392304845412184
 20
-93.000000000000739
 30
0.0
 40
2.0
  0
CIRCLE
  5
101
100
AcDbEntity
100
AcDbCircle
  8
grill
 62
256
370
-1
  6
ByLayer
 10
217.392304845412184
 20
-99.000000000000739
 30
0.0
 40
2.0
  0
CIRCLE
  5
102
100
AcDbEntity
100
AcDbCircle
  8
grill
 62
256
370
-1
  6
ByLayer
 10
222.588457268118816
 20
-60.000000000000739
 30
0.0
 40
2.0
  0
CIRCLE
  5
103
100
AcDbEntity
100
AcDbCircle
  8
grill
 62
256
370
-1
  6
ByLayer
 10
222.588457268118816
 20
-66.000000000000739
 30
0.0
 40
2.0
  0
CIRCLE
  5
104
100
AcDbEntity
100
AcDbCircle
  8
grill
 62
256
370
-1
  6
ByLayer
 10
222.588457268118816
 20
-72.000000000000739
 30
0.0
 40
2.0
  0
CIRCLE
  5
105
100
AcDbEntity
100
AcDbCircle
  8
grill
 62
256
370
-1
  6
ByLayer
 10
222.588457268118816
 20
-78.000000000000739
 30
0.0
 40
2.0
  0
CIRCLE
  5
106
100
AcDbEntity
100
AcDbCircle
  8
grill
 62
256
370
-1
  6
ByLayer
 10
222.588457268118816
 20
-84.000000000000739
 30
0.0
 40
2.0
  0
CIRCLE
  5
107
100
AcDbEntity
100
AcDbCircle
  8
grill
 62
256
370
-1
  6
ByLayer
 10
222.588457268118816
 20
-90.000000000000739
 30
0.0
 40
2.0
  0
CIRCLE
  5
108
100
AcDbEntity
100
AcDbCircle
  8
grill
 62
256
370
-1
  6
ByLayer
 10
222.588457268118816
 20
-96.000000000000739
 30
0.0
 40
2.0
  0
CIRCLE
  5
109
100
AcDbEntity
100
AcDbCircle
  8
grill
 62
256
370
-1
  6
ByLayer
 10
227.7846096908254481
 20
-57.000000000000739
 30
0.0
 40
2.0
  0
CIRCLE
  5
10A
100
AcDbEntity
100
AcDbCircle
  8
grill
 62
256
370
-1
  6
ByLayer
 10
227.7846096908254481
 20
-63.000000000000739
 30
0.0
 40
2.0
  0
CIRCLE
  5
10B
100
AcDbEntity
100
AcDbCircle
  8
grill
 62
256
370
-1
  6
ByLayer
 10
227.7846096908254481
 20
-69.000000000000739
 30
0.0
 40
2.0
  0
CIRCLE
  5
10C
100
AcDbEntity
100
AcDbCircle
  8
grill
 62
256
370
-1
  6
ByLayer
 10
227.7846096908254481
 20
-75.000000000000739
 30
0.0
 40
2.0
  0
CIRCLE
  5
10D
100
AcDbEntity
100
AcDbCircle
  8
grill
 62
256
370
-1
  6
ByLayer
 10
227.7846096908254481
 20
-81.000000000000739
 30
0.0
 40
2.0
  0
CIRCLE
  5
10E
100
AcDbEntity
100
AcDbCircle
  8
grill
 62
256
370
-1
  6
ByLayer
 10
227.7846096908254481
 20
-87.000000000000739
 30
0.0
 40
2.0
  0
CIRCLE
  5
10F
100
AcDbEntity
100
AcDbCircle
  8
grill
 62
256
370
-1
  6
ByLayer
 10
227.7846096908254481
 20
-93.000000000000739
 30
0.0
 40
2.0
  0
CIRCLE
  5
110
100
AcDbEntity
100
AcDbCircle
  8
grill
 62
256
370
-1
  6
ByLayer
 10
232.9807621135320801
 20
-54.000000000000739
 30
0.0
 40
2.0
  0
CIRCLE
  5
111
100
AcDbEntity
100
AcDbCircle
  8
grill
 62
256
370
-1
  6
ByLayer
 10
232.9807621135320801
 20
-60.000000000000739
 30
0.0
 40
2.0
  0
CIRCLE
  5
112
100
AcDbEntity
100
AcDbCircle
  8
grill
 62
256
370
-1
  6
ByLayer
 10
232.9807621135320801
 20
-66.000000000000739
 30
0.0
 40
2.0
  0
CIRCLE
  5
113
100
AcDbEntity
100
AcDbCircle
  8
grill
 62
256
370
-1
  6
ByLayer
 10
232.9807621135320801
 20
-72.000000000000739
 30
0.0
 40
2.0
  0
CIRCLE
  5
114
100
AcDbEntity
100
AcDbCircle
  8
grill
 62
256
370
-1
  6
ByLayer
 10
232.9807621135320801
 20
-78.000000000000739
 30
0.0
 40
2.0
  0
CIRCLE
  5
115
100
AcDbEntity
100
AcDbCircle
  8
grill
 62
256
370
-1
  6
ByLayer
 10
232.9807621135320801
 20
-84.000000000000739
 30
0.0
 40
2.0
  0
CIRCLE
  5
116
100
AcDbEntity
100
AcDbCircle
  8
grill
 62
256
370
-1
  6
ByLayer
 10
232.9807621135320801
 20
-90.000000000000739
 30
0.0
 40
2.0
  0
CIRCLE
  5
117
100
AcDbEntity
100
AcDbCircle
  8
grill
 62
256
370
-1
  6
ByLayer
 10
238.1769145362387121
 20
-57.000000000000739
 30
0.0
 40
2.0
  0
CIRCLE
  5
118
100
AcDbEntity
100
AcDbCircle
  8
grill
 62
256
370
-1
  6
ByLayer
 10
238.1769145362387121
 20
-63.000000000000739
 30
0.0
 40
2.0
  0
CIRCLE
  5
119
100
AcDbEntity
100
AcDbCircle
  8
grill
 62
256
370
-1
  6
ByLayer
 10
238.1769145362387121
 20
-69.000000000000739
 30
0.0
 40
2.0
  0
CIRCLE
  5
11A
100
AcDbEntity
100
AcDbCircle
  8
grill
 62
256
370
-1
  6
ByLayer
 10
238.1769145362387121
 20
-75.000000000000739
 30
0.0
 40
2.0
  0
CIRCLE
  5
11B
100
AcDbEntity
100
AcDbCircle
  8
grill
 62
256
370
-1
  6
ByLayer
 10
238.1769145362387121
 20
-81.000000000000739
 30
0.0
 40
2.0
  0
CIRCLE
  5
11C
100
AcDbEntity
100
AcDbCircle
  8
grill
 62
256
370
-1
  6
ByLayer
 10
238.1769145362387121
 20
-87.000000000000739
 30
0.0
 40
2.0
  0
CIRCLE
  5
11D
100
AcDbEntity
100
AcDbCircle
  8
grill
 62
256
370
-1
  6
ByLayer
 10
238.1769145362387121
 20
-93.000000000000739
 30
0.0
 40
2.0
  0
CIRCLE
  5
11E
100
AcDbEntity
100
AcDbCircle
  8
grill
 62
256
370
-1
  6
ByLayer
 10
243.3730669589453441
 20
-60.000000000000739
 30
0.0
 40
2.0
  0
CIRCLE
  5
11F
100
AcDbEntity
100
AcDbCircle
  8
grill
 62
256
370
-1
  6
ByLayer
 10
243.3730669589453441
 20
-66.000000000000739
 30
0.0
 40
2.0
  0
CIRCLE
  5
120
100
AcDbEntity
100
AcDbCircle
  8
grill
 62
256
370
-1
  6
ByLayer
 10
243.3730669589453441
 20
-72.000000000000739
 30
0.0
 40
2.0
  0
CIRCLE
  5
121
100
AcDbEntity
100
AcDbCircle
  8
grill
 62
256
370
-1
  6
ByLayer
 10
243.3730669589453441
 20
-78.000000000000739
 30
0.0
 40
2.0
  0
CIRCLE
  5
122
100
AcDbEntity
100
AcDbCircle
  8
grill
 62
256
370
-1
  6
ByLayer
 10
243.3730669589453441
 20
-84.000000000000739
 30
0.0
 40
2.0
  0
CIRCLE
  5
123
100
AcDbEntity
100
AcDbCircle
  8
grill
 62
256
370
-1
  6
ByLayer
 10
243.3730669589453441
 20
-90.000000000000739
 30
0.0
 40
2.0
  0
CIRCLE
  5
124
100
AcDbEntity
100
AcDbCircle
  8
grill
 62
256
370
-1
  6
ByLayer
 10
243.3730669589453441
 20
-96.000000000000739
 30
0.0
 40
2.0
  0
CIRCLE
  5
125
100
AcDbEntity
100
AcDbCircle
  8
grill
 62
256
370
-1
  6
ByLayer
 10
248.5692193816519762
 20
-63.000000000000739
 30
0.0
 40
2.0
  0
CIRCLE
  5
126
100
AcDbEntity
100
AcDbCircle
  8
grill
 62
256
370
-1
  6
ByLayer
 10
248.5692193816519762
 20
-69.000000000000739
 30
0.0
 40
2.0
  0
CIRCLE
  5
127
100
AcDbEntity
100
AcDbCircle
  8
grill
 62
256
370
-1
  6
ByLayer
 10
248.5692193816519762
 20
-75.000000000000739
 30
0.0
 40
2.0
  0
CIRCLE
  5
128
100
AcDbEntity
100
AcDbCircle
  8
grill
 62
256
370
-1
  6
ByLayer
 10
248.5692193816519762
 20
-81.000000000000739
 30
0.0
 40
2.0
  0
CIRCLE
  5
129
100
AcDbEntity
100
AcDbCircle
  8
grill
 62
256
370
-1
  6
ByLayer
 10
248.5692193816519762
 20
-87.000000000000739
 30
0.0
 40
2.0
  0
CIRCLE
  5
12A
100
AcDbEntity
100
AcDbCircle
  8
grill
 62
256
370
-1
  6
ByLayer
 10
248.5692193816519762
 20
-93.000000000000739
 30
0.0
 40
2.0
  0
CIRCLE
  5
12B
100
AcDbEntity
100
AcDbCircle
  8
grill
 62
256
370
-1
  6
ByLayer
 10
248.5692193816519762
 20
-99.000000000000739
 30
0.0
 40
2.0
  0
CIRCLE
  5
12C
100
AcDbEntity
100
AcDbCircle
  8
grill
 62
256
370
-1
  6
ByLayer
 10
253.7653718043586082
 20
-60.000000000000739
 30
0.0
 40
2.0
  0
CIRCLE
  5
12D
100
AcDbEntity
100
AcDbCircle
  8
grill
 62
256
370
-1
  6
ByLayer
 10
253.7653718043586082
 20
-66.000000000000739
 30
0.0
 40
2.0
  0
CIRCLE
  5
12E
100
AcDbEntity
100
AcDbCircle
  8
grill
 62
256
370
-1
  6
ByLayer
 10
253.7653718043586082
 20
-72.000000000000739
 30
0.0
 40
2.0
  0
CIRCLE
  5
12F
100
AcDbEntity
100
AcDbCircle
  8
grill
 62
256
370
-1
  6
ByLayer
 10
253.7653718043586082
 20
-78.000000000000739
 30
0.0
 40
2.0
  0
CIRCLE
  5
130
100
AcDbEntity
100
AcDbCircle
  8
grill
 62
256
370
-1
  6
ByLayer
 10
253.7653718043586082
 20
-84.000000000000739
 30
0.0
 40
2.0
  0
CIRCLE
  5
131
100
AcDbEntity
100
AcDbCircle
  8
grill
 62
256
370
-1
  6
ByLayer
 10
253.7653718043586082
 20
-90.000000000000739
 30
0.0
 40
2.0
  0
CIRCLE
  5
132
100
AcDbEntity
100
AcDbCircle
  8
grill
 62
256
370
-1
  6
ByLayer
 10
253.7653718043586082
 20
-96.000000000000739
 30
0.0
 40
2.0
  0
CIRCLE
  5
133
100
AcDbEntity
100
AcDbCircle
  8
grill
 62
256
370
-1
  6
ByLayer
 10
258.9615242270652402
 20
-57.000000000000739
 30
0.0
 40
2.0
  0
CIRCLE
  5
134
100
AcDbEntity
100
AcDbCircle
  8
grill
 62
256
370
-1
  6
ByLayer
 10
258.9615242270652402
 20
-63.000000000000739
 30
0.0
 40
2.0
  0
CIRCLE
  5
135
100
AcDbEntity
100
AcDbCircle
  8
grill
 62
256
370
-1
  6
ByLayer
 10
258.9615242270652402
 20
-69.000000000000739
 30
0.0
 40
2.0
  0
CIRCLE
  5
136
100
AcDbEntity
100
AcDbCircle
  8
grill
 62
256
370
-1
  6
ByLayer
 10
258.9615242270652402
 20
-75.000000000000739
 30
0.0
 40
2.0
  0
CIRCLE
  5
137
100
AcDbEntity
100
AcDbCircle
  8
grill
 62
256
370
-1
  6
ByLayer
 10
258.9615242270652402
 20
-81.000000000000739
 30
0.0
 40
2.0
  0
CIRCLE
  5
138
100
AcDbEntity
100
AcDbCircle
  8
grill
 62
256
370
-1
  6
ByLayer
 10
258.9615242270652402
 20
-87.000000000000739
 30
0.0
 40
2.0
  0
CIRCLE
  5
139
100
AcDbEntity
100
AcDbCircle
  8
grill
 62
256
370
-1
  6
ByLayer
 10
258.9615242270652402
 20
-93.000000000000739
 30
0.0
 40
2.0
  0
CIRCLE
  5
13A
100
AcDbEntity
100
AcDbCircle
  8
grill
 62
256
370
-1
  6
ByLayer
 10
248.5692193816519762
 20
-57.000000000000739
 30
0.0
 40
2.0
  0
CIRCLE
  5
13B
100
AcDbEntity
100
AcDbCircle
  8
grill
 62
256
370
-1
  6
ByLayer
 10
253.7653718043586082
 20
-54.000000000000739
 30
0.0
 40
2.0
  0
CIRCLE
  5
13C
100
AcDbEntity
100
AcDbCircle
  8
grill
 62
256
370
-1
  6
ByLayer
 10
253.7653718043586082
 20
-48.000000000000739
 30
0.0
 40
2.0
  0
CIRCLE
  5
13D
100
AcDbEntity
100
AcDbCircle
  8
grill
 62
256
370
-1
  6
ByLayer
 10
258.9615242270652402
 20
-51.000000000000739
 30
0.0
 40
2.0
  0
CIRCLE
  5
13E
100
AcDbEntity
100
AcDbCircle
  8
grill
 62
256
370
-1
  6
ByLayer
 10
258.9615242270652402
 20
-45.000000000000739
 30
0.0
 40
2.0
  0
ARC
  5
13F
100
AcDbEntity
  8
0
 62
256
370
-1
  6
ByLayer
100
AcDbCircle
 10
207.99999999999892
 20
-52.732050807569621
 30
0.0
 40
1.0
100
AcDbArc
 50
60.0000000000000711
 51
180.0
  0
LINE
  5
140
100
AcDbEntity
100
AcDbLine
  8
0
 62
256
370
-1
  6
ByLayer
 10
222.088457268118816
 20
-59.7113248654059277
 30
0.0
 11
208.49999999999892
 21
-51.86602540378518
 31
0.0
  0
ARC
  5
141
100
AcDbEntity
  8
0
 62
256
370
-1
  6
ByLayer
100
AcDbCircle
 10
222.588457268118816
 20
-58.8452994616214866
 30
0.0
 40
1.0
100
AcDbArc
 50
240.0000000000000284
 51
299.9999999999998863
  0
LINE
  5
142
100
AcDbEntity
100
AcDbLine
  8
0
 62
256
370
-1
  6
ByLayer
 10
232.4807621135320801
 20
-54.2886751345955503
 30
0.0
 11
223.088457268118816
 21
-59.7113248654059277
 31
0.0
  0
ARC
  5
143
100
AcDbEntity
  8
0
 62
256
370
-1
  6
ByLayer
100
AcDbCircle
 10
232.9807621135320801
 20
-55.1547005383799913
 30
0.0
 40
1.0
100
AcDbArc
 50
60.0000000000000711
 51
119.9999999999999432
  0
LINE
  5
144
100
AcDbEntity
100
AcDbLine
  8
0
 62
256
370
-1
  6
ByLayer
 10
242.8730669589453441
 20
-59.7113248654059277
 30
0.0
 11
233.4807621135320801
 21
-54.2886751345955503
 31
0.0
  0
ARC
  5
145
100
AcDbEntity
  8
0
 62
256
370
-1
  6
ByLayer
100
AcDbCircle
 10
243.3730669589453441
 20
-58.8452994616214866
 30
0.0
 40
1.0
100
AcDbArc
 50
240.0000000000000284
 51
299.9999999999998863
  0
LINE
  5
146
100
AcDbEntity
100
AcDbLine
  8
0
 62
256
370
-1
  6
ByLayer
 10
253.2653718043586082
 20
-54.2886751345955503
 30
0.0
 11
243.8730669589453441
 21
-59.7113248654059277
 31
0.0
  0
ARC
  5
147
100
AcDbEntity
  8
0
 62
256
370
-1
  6
ByLayer
100
AcDbCircle
 10
252.7653718043586082
 20
-53.4226497308111092
 30
0.0
 40
1.0
100
AcDbArc
 50
299.9999999999998863
 51
0.0
  0
LINE
  5
148
100
AcDbEntity
100
AcDbLine
  8
0
 62
256
370
-1
  6
ByLayer
 10
253.7653718043586082
 20
-48.5773502691903687
 30
0.0
 11
253.7653718043586082
 21
-53.4226497308111092
 31
0.0
  0
ARC
  5
149
100
AcDbEntity
  8
0
 62
256
370
-1
  6
ByLayer
100
AcDbCircle
 10
254.7653718043586082
 20
-48.5773502691903687
 30
0.0
 40
1.0
100
AcDbArc
 50
119.9999999999999432
 51
180.0
  0
LINE
  5
14A
100
AcDbEntity
100
AcDbLine
  8
0
 62
256
370
-1
  6
ByLayer
 10
257.4615242270652402
 20
-45.86602540378518
 30
0.0
 11
254.2653718043586082
 21
-47.7113248654059277
 31
0.0
  0
ARC
  5
14B
100
AcDbEntity
  8
0
 62
256
370
-1
  6
ByLayer
100
AcDbCircle
 10
257.9615242270652402
 20
-46.732050807569621
 30
0.0
 40
1.0
100
AcDbArc
 50
0.0
 51
119.9999999999999432
  0
LINE
  5
14C
100
AcDbEntity
100
AcDbLine
  8
0
 62
256
370
-1
  6
ByLayer
 10
258.9615242270652402
 20
-92.4226497308111163
 30
0.0
 11
258.9615242270652402
 21
-46.7320508075696139
 31
0.0
  0
ARC
  5
14D
100
AcDbEntity
  8
0
 62
256
370
-1
  6
ByLayer
100
AcDbCircle
 10
257.9615242270652402
 20
-92.4226497308111163
 30
0.0
 40
1.0
100
AcDbArc
 50
300.0000000000001137
 51
0.0
  0
LINE
  5
14E
100
AcDbEntity
100
AcDbLine
  8
0
 62
256
370
-1
  6
ByLayer
 10
249.0692193816519762
 20
-98.7113248654059277
 30
0.0
 11
258.4615242270652402
 21
-93.2886751345955503
 31
0.0
  0
ARC
  5
14F
100
AcDbEntity
  8
0
 62
256
370
-1
  6
ByLayer
100
AcDbCircle
 10
248.5692193816519762
 20
-97.8452994616214937
 30
0.0
 40
1.0
100
AcDbArc
 50
239.9999999999998295
 51
300.0000000000001137
  0
LINE
  5
150
100
AcDbEntity
100
AcDbLine
  8
0
 62
256
370
-1
  6
ByLayer
 10
233.4807621135320801
 20
-90.2886751345955503
 30
0.0
 11
248.0692193816519762
 21
-98.7113248654059277
 31
0.0
  0
ARC
  5
151
100
AcDbEntity
  8
0
 62
256
370
-1
  6
ByLayer
100
AcDbCircle
 10
232.9807621135320801
 20
-91.1547005383799842
 30
0.0
 40
1.0
100
AcDbArc
 50
59.999999999999865
 51
120.0000000000001421
  0
LINE
  5
152
100
AcDbEntity
100
AcDbLine
  8
0
 62
256
370
-1
  6
ByLayer
 10
217.892304845412184
 20
-98.7113248654059277
 30
0.0
 11
232.4807621135320801
 21
-90.2886751345955503
 31
0.0
  0
ARC
  5
153
100
AcDbEntity
  8
0
 62
256
370
-1
  6
ByLayer
100
AcDbCircle
 10
217.392304845412184
 20
-97.8452994616214937
 30
0.0
 40
1.0
100
AcDbArc
 50
239.9999999999998295
 51
300.0000000000001137
  0
LINE
  5
154
100
AcDbEntity
100
AcDbLine
  8
0
 62
256
370
-1
  6
ByLayer
 10
207.49999999999892
 20
-93.2886751345955503
 30
0.0
 11
216.892304845412184
 21
-98.7113248654059277
 31
0.0
  0
LINE
  5
155
100
AcDbEntity
100
AcDbLine
  8
0
 62
256
370
-1
  6
ByLayer
 10
206.99999999999892
 20
-52.732050807569621
 30
0.0
 11
206.99999999999892
 21
-92.4226497308111163
 31
0.0
  0
ARC
  5
156
100
AcDbEntity
  8
0
 62
256
370
-1
  6
ByLayer
100
AcDbCircle
 10
207.99999999999892
 20
-92.4226497308111163
 30
0.0
 40
1.0
100
AcDbArc
 50
180.0
 51
239.9999999999998295
  0
ENDSEC
  0
SECTION
  2
OBJECTS
  0
DICTIONARY
  5
C
100
AcDbDictionary
280
0
281
1
  3
ACAD_GROUP
350
D
  3
ACAD_LAYOUT
350
1A
  3
ACAD_MLINESTYLE
350
17
  3
ACAD_PLOTSETTINGS
350
19
  3
ACAD_PLOTSTYLENAME
350
E
  3
AcDbVariableDictionary
350
157
  0
DICTIONARY
  5
D
100
AcDbDictionary
280
0
281
1
  0
ACDBDICTIONARYWDFLT
  5
E
100
AcDbDictionary
281
1
  3
Normal
350
F
100
AcDbDictionaryWithDefault
340
F
  0
ACDBPLACEHOLDER
  5
F
  0
DICTIONARY
  5
17
100
AcDbDictionary
280
0
281
1
  3
Standard
350
18
  0
MLINESTYLE
  5
18
100
AcDbMlineStyle
  2
STANDARD
 70
0
  3

 62
256
 51
90.0
 52
90.0
 71
2
 49
0.5
 62
256
  6
BYLAYER
 49
-0.5
 62
256
  6
BYLAYER
  0
DICTIONARY
  5
19
100
AcDbDictionary
280
0
281
1
  0
DICTIONARY
  5
1A
100
AcDbDictionary
281
1
  3
Layout1
350
1E
  3
Layout2
350
26
  3
Model
350
22
  0
LAYOUT
  5
1E
100
AcDbPlotSettings
  1

  2
C:\Program Files\AutoCAD 2002\plotters\DWF ePlot (optimized for plotting).pc3
  4

  6

 40
0.0
 41
0.0
 42
0.0
 43
0.0
 44
0.0
 45
0.0
 46
0.0
 47
0.0
 48
0.0
 49
0.0
140
0.0
141
0.0
142
1.0
143
1.0
 70
688
 72
0
 73
0
 74
5
  7

 75
16
147
1.0
148
0.0
149
0.0
100
AcDbLayout
  1
Layout1
 70
1
 71
1
 10
0.0
 20
0.0
 11
420.0
 21
297.0
 12
0.0
 22
0.0
 32
0.0
 14
100000000000000000000.0
 24
100000000000000000000.0
 34
100000000000000000000.0
 15
-100000000000000000000.0
 25
-100000000000000000000.0
 35
-100000000000000000000.0
146
0.0
 13
0.0
 23
0.0
 33
0.0
 16
1.0
 26
0.0
 36
0.0
 17
0.0
 27
1.0
 37
0.0
 76
0
330
1B
  0
LAYOUT
  5
22
100
AcDbPlotSettings
  1

  2
C:\Program Files\AutoCAD 2002\plotters\DWF ePlot (optimized for plotting).pc3
  4

  6

 40
0.0
 41
0.0
 42
0.0
 43
0.0
 44
0.0
 45
0.0
 46
0.0
 47
0.0
 48
0.0
 49
0.0
140
0.0
141
0.0
142
1.0
143
1.0
 70
1712
 72
0
 73
0
 74
0
  7

 75
0
147
1.0
148
0.0
149
0.0
100
AcDbLayout
  1
Model
 70
1
 71
0
 10
0.0
 20
0.0
 11
12.0
 21
9.0
 12
0.0
 22
0.0
 32
0.0
 14
0.0
 24
0.0
 34
0.0
 15
0.0
 25
0.0
 35
0.0
146
0.0
 13
0.0
 23
0.0
 33
0.0
 16
1.0
 26
0.0
 36
0.0
 17
0.0
 27
1.0
 37
0.0
 76
0
330
1F
  0
LAYOUT
  5
26
100
AcDbPlotSettings
  1

  2
C:\Program Files\AutoCAD 2002\plotters\DWF ePlot (optimized for plotting).pc3
  4

  6

 40
0.0
 41
0.0
 42
0.0
 43
0.0
 44
0.0
 45
0.0
 46
0.0
 47
0.0
 48
0.0
 49
0.0
140
0.0
141
0.0
142
1.0
143
1.0
 70
688
 72
0
 73
0
 74
5
  7

 75
16
147
1.0
148
0.0
149
0.0
100
AcDbLayout
  1
Layout2
 70
1
 71
2
 10
0.0
 20
0.0
 11
12.0
 21
9.0
 12
0.0
 22
0.0
 32
0.0
 14
0.0
 24
0.0
 34
0.0
 15
0.0
 25
0.0
 35
0.0
146
0.0
 13
0.0
 23
0.0
 33
0.0
 16
1.0
 26
0.0
 36
0.0
 17
0.0
 27
1.0
 37
0.0
 76
0
330
23
  0
DICTIONARY
  5
157
100
AcDbDictionary
281
1
  3
DIMASSOC
350
159
  3
HIDETEXT
350
158
  0
DICTIONARYVAR
  5
158
100
DictionaryVariables
280
0
  1
2
  0
DICTIONARYVAR
  5
159
100
DictionaryVariables
280
0
  1
1
  0
ENDSEC
  0
EOF
