999
dxflib 2.2.0.0
  0
SECTION
  2
HEADER
  9
$ACADVER
  1
AC1015
  9
$HANDSEED
  5
FFFF
  9
$DIMASZ
 40
2.5
  9
$PLIMMIN
 10
0.0
 20
0.0
  9
$DIMEXE
 40
1.25
  9
$DIMGAP
 40
0.625
  9
$PLIMMAX
 10
210.0
 20
297.0
  9
$INSUNITS
 70
4
  9
$DIMSTYLE
  2
Standard
  9
$CLAYER
  8
0
  9
$DIMEXO
 40
0.625
  9
$DIMTXT
 40
2.5
  9
$CLAYER
  8
0
  0
ENDSEC
  0
SECTION
  2
TABLES
  0
TABLE
  2
VPORT
  5
8
100
AcDbSymbolTable
 70
1
  0
VPORT
  5
30
100
AcDbSymbolTableRecord
100
AcDbViewportTableRecord
  2
*Active
 70
0
 10
0.0
 20
0.0
 11
1.0
 21
1.0
 12
286.3055555555554861
 22
148.5
 13
0.0
 23
0.0
 14
10.0
 24
10.0
 15
10.0
 25
10.0
 16
0.0
 26
0.0
 36
1.0
 17
0.0
 27
0.0
 37
0.0
 40
297.0
 41
1.92798353909465
 42
50.0
 43
0.0
 44
0.0
 50
0.0
 51
0.0
 71
0
 72
100
 73
1
 74
3
 75
1
 76
1
 77
0
 78
0
281
0
 65
1
110
0.0
120
0.0
130
0.0
111
1.0
121
0.0
131
0.0
112
0.0
122
1.0
132
0.0
 79
0
146
0.0
  0
ENDTAB
  0
TABLE
  2
LTYPE
  5
5
100
AcDbSymbolTable
 70
21
  0
LTYPE
  5
14
100
AcDbSymbolTableRecord
100
AcDbLinetypeTableRecord
  2
ByBlock
 70
0
  3

 72
65
 73
0
 40
0.0
  0
LTYPE
  5
15
100
AcDbSymbolTableRecord
100
AcDbLinetypeTableRecord
  2
ByLayer
 70
0
  3

 72
65
 73
0
 40
0.0
  0
LTYPE
  5
16
100
AcDbSymbolTableRecord
100
AcDbLinetypeTableRecord
  2
CONTINUOUS
 70
0
  3
Solid line
 72
65
 73
0
 40
0.0
  0
LTYPE
  5
31
100
AcDbSymbolTableRecord
100
AcDbLinetypeTableRecord
  2
DOT
 70
0
  3
Dot . . . . . . . . . . . . . . . . . . . . . .
 72
65
 73
2
 40
6.3499999999999996
 49
0.0
 74
0
 49
-6.3499999999999996
 74
0
  0
LTYPE
  5
32
100
AcDbSymbolTableRecord
100
AcDbLinetypeTableRecord
  2
DOT2
 70
0
  3
Dot (.5x) .....................................
 72
65
 73
2
 40
3.1749999999999998
 49
0.0
 74
0
 49
-3.1749999999999998
 74
0
  0
LTYPE
  5
33
100
AcDbSymbolTableRecord
100
AcDbLinetypeTableRecord
  2
DOTX2
 70
0
  3
Dot (2x) .  .  .  .  .  .  .  .  .  .  .  .  .
 72
65
 73
2
 40
12.6999999999999993
 49
0.0
 74
0
 49
-12.6999999999999993
 74
0
  0
LTYPE
  5
34
100
AcDbSymbolTableRecord
100
AcDbLinetypeTableRecord
  2
DASHED
 70
0
  3
Dashed __ __ __ __ __ __ __ __ __ __ __ __ __ _
 72
65
 73
2
 40
19.0500000000000007
 49
12.6999999999999993
 74
0
 49
-6.3499999999999996
 74
0
  0
LTYPE
  5
35
100
AcDbSymbolTableRecord
100
AcDbLinetypeTableRecord
  2
DASHED2
 70
0
  3
Dashed (.5x) _ _ _ _ _ _ _ _ _ _ _ _ _ _ _ _ _
 72
65
 73
2
 40
9.5250000000000004
 49
6.3499999999999996
 74
0
 49
-3.1749999999999998
 74
0
  0
LTYPE
  5
36
100
AcDbSymbolTableRecord
100
AcDbLinetypeTableRecord
  2
DASHEDX2
 70
0
  3
Dashed (2x) ____  ____  ____  ____  ____  ___
 72
65
 73
2
 40
38.1000000000000014
 49
25.3999999999999986
 74
0
 49
-12.6999999999999993
 74
0
  0
LTYPE
  5
37
100
AcDbSymbolTableRecord
100
AcDbLinetypeTableRecord
  2
DASHDOT
 70
0
  3
Dash dot __ . __ . __ . __ . __ . __ . __ . __
 72
65
 73
4
 40
25.3999999999999986
 49
12.6999999999999993
 74
0
 49
-6.3499999999999996
 74
0
 49
0.0
 74
0
 49
-6.3499999999999996
 74
0
  0
LTYPE
  5
38
100
AcDbSymbolTableRecord
100
AcDbLinetypeTableRecord
  2
DASHDOT2
 70
0
  3
Dash dot (.5x) _._._._._._._._._._._._._._._.
 72
65
 73
4
 40
12.6999999999999993
 49
6.3499999999999996
 74
0
 49
-3.1749999999999998
 74
0
 49
0.0
 74
0
 49
-3.1749999999999998
 74
0
  0
LTYPE
  5
39
100
AcDbSymbolTableRecord
100
AcDbLinetypeTableRecord
  2
DASHDOTX2
 70
0
  3
Dash dot (2x) ____  .  ____  .  ____  .  ___
 72
65
 73
4
 40
50.7999999999999972
 49
25.3999999999999986
 74
0
 49
-12.6999999999999993
 74
0
 49
0.0
 74
0
 49
-12.6999999999999993
 74
0
  0
LTYPE
  5
3A
100
AcDbSymbolTableRecord
100
AcDbLinetypeTableRecord
  2
DIVIDE
 70
0
  3
Divide ____ . . ____ . . ____ . . ____ . . ____
 72
65
 73
6
 40
31.75
 49
12.6999999999999993
 74
0
 49
-6.3499999999999996
 74
0
 49
0.0
 74
0
 49
-6.3499999999999996
 74
0
 49
0.0
 74
0
 49
-6.3499999999999996
 74
0
  0
LTYPE
  5
3B
100
AcDbSymbolTableRecord
100
AcDbLinetypeTableRecord
  2
DIVIDE2
 70
0
  3
Divide (.5x) __..__..__..__..__..__..__..__.._
 72
65
 73
6
 40
15.875
 49
6.3499999999999996
 74
0
 49
-3.1749999999999998
 74
0
 49
0.0
 74
0
 49
-3.1749999999999998
 74
0
 49
0.0
 74
0
 49
-3.1749999999999998
 74
0
  0
LTYPE
  5
3C
100
AcDbSymbolTableRecord
100
AcDbLinetypeTableRecord
  2
DIVIDEX2
 70
0
  3
Divide (2x) ________  .  .  ________  .  .  _
 72
65
 73
6
 40
63.5
 49
25.3999999999999986
 74
0
 49
-12.6999999999999993
 74
0
 49
0.0
 74
0
 49
-12.6999999999999993
 74
0
 49
0.0
 74
0
 49
-12.6999999999999993
 74
0
  0
LTYPE
  5
3D
100
AcDbSymbolTableRecord
100
AcDbLinetypeTableRecord
  2
CENTER
 70
0
  3
Center ____ _ ____ _ ____ _ ____ _ ____ _ ____
 72
65
 73
4
 40
50.7999999999999972
 49
31.75
 74
0
 49
-6.3499999999999996
 74
0
 49
6.3499999999999996
 74
0
 49
-6.3499999999999996
 74
0
  0
LTYPE
  5
3E
100
AcDbSymbolTableRecord
100
AcDbLinetypeTableRecord
  2
CENTER2
 70
0
  3
Center (.5x) ___ _ ___ _ ___ _ ___ _ ___ _ ___
 72
65
 73
4
 40
28.5749999999999993
 49
19.0500000000000007
 74
0
 49
-3.1749999999999998
 74
0
 49
3.1749999999999998
 74
0
 49
-3.1749999999999998
 74
0
  0
LTYPE
  5
3F
100
AcDbSymbolTableRecord
100
AcDbLinetypeTableRecord
  2
CENTERX2
 70
0
  3
Center (2x) ________  __  ________  __  _____
 72
65
 73
4
 40
101.5999999999999943
 49
63.5
 74
0
 49
-12.6999999999999993
 74
0
 49
12.6999999999999993
 74
0
 49
-12.6999999999999993
 74
0
  0
LTYPE
  5
40
100
AcDbSymbolTableRecord
100
AcDbLinetypeTableRecord
  2
BORDER
 70
0
  3
Border __ __ . __ __ . __ __ . __ __ . __ __ .
 72
65
 73
6
 40
44.4500000000000028
 49
12.6999999999999993
 74
0
 49
-6.3499999999999996
 74
0
 49
12.6999999999999993
 74
0
 49
-6.3499999999999996
 74
0
 49
0.0
 74
0
 49
-6.3499999999999996
 74
0
  0
LTYPE
  5
41
100
AcDbSymbolTableRecord
100
AcDbLinetypeTableRecord
  2
BORDER2
 70
0
  3
Border (.5x) __.__.__.__.__.__.__.__.__.__.__.
 72
65
 73
6
 40
22.2250000000000014
 49
6.3499999999999996
 74
0
 49
-3.1749999999999998
 74
0
 49
6.3499999999999996
 74
0
 49
-3.1749999999999998
 74
0
 49
0.0
 74
0
 49
-3.1749999999999998
 74
0
  0
LTYPE
  5
42
100
AcDbSymbolTableRecord
100
AcDbLinetypeTableRecord
  2
BORDERX2
 70
0
  3
Border (2x) ____  ____  .  ____  ____  .  ___
 72
65
 73
6
 40
88.9000000000000057
 49
25.3999999999999986
 74
0
 49
-12.6999999999999993
 74
0
 49
25.3999999999999986
 74
0
 49
-12.6999999999999993
 74
0
 49
0.0
 74
0
 49
-12.6999999999999993
 74
0
  0
ENDTAB
  0
TABLE
  2
LAYER
  5
2
100
AcDbSymbolTable
 70
2
  0
LAYER
  5
10
100
AcDbSymbolTableRecord
100
AcDbLayerTableRecord
  2
0
 70
0
 62
7
420
0
  6
CONTINUOUS
370
25
390
F
  0
LAYER
  5
43
100
AcDbSymbolTableRecord
100
AcDbLayerTableRecord
  2
Drawings
 70
0
 62
4
420
65535
  6
CONTINUOUS
370
0
390
F
  0
ENDTAB
  0
TABLE
  2
STYLE
  5
3
100
AcDbSymbolTable
 70
1
  0
STYLE
  5
11
100
AcDbSymbolTableRecord
100
AcDbTextStyleTableRecord
  2
Standard
 70
0
 40
0.0
 41
0.75
 50
0.0
 71
0
 42
2.5
  3
txt
  4

  0
ENDTAB
  0
TABLE
  2
VIEW
  5
6
100
AcDbSymbolTable
 70
0
  0
ENDTAB
  0
TABLE
  2
UCS
  5
7
100
AcDbSymbolTable
 70
0
  0
ENDTAB
  0
TABLE
  2
APPID
  5
9
100
AcDbSymbolTable
 70
1
  0
APPID
  5
12
100
AcDbSymbolTableRecord
100
AcDbRegAppTableRecord
  2
ACAD
 70
0
  0
ENDTAB
  0
TABLE
  2
DIMSTYLE
  5
A
100
AcDbSymbolTable
 70
1
100
AcDbDimStyleTable
 71
0
  0
DIMSTYLE
105
27
100
AcDbSymbolTableRecord
100
AcDbDimStyleTableRecord
  2
Standard
 41
2.5
 42
0.625
 43
3.75
 44
1.25
 70
0
 73
0
 74
0
 77
1
 78
8
140
2.5
141
2.5
143
0.03937007874016
147
0.625
171
3
172
1
271
2
272
2
274
3
278
44
283
0
284
8
340
11
  0
ENDTAB
  0
TABLE
  2
BLOCK_RECORD
  5
1
100
AcDbSymbolTable
 70
1
  0
BLOCK_RECORD
  5
1F
100
AcDbSymbolTableRecord
100
AcDbBlockTableRecord
  2
*Model_Space
340
22
  0
BLOCK_RECORD
  5
1B
100
AcDbSymbolTableRecord
100
AcDbBlockTableRecord
  2
*Paper_Space
340
1E
  0
BLOCK_RECORD
  5
23
100
AcDbSymbolTableRecord
100
AcDbBlockTableRecord
  2
*Paper_Space0
340
26
  0
BLOCK_RECORD
  5
44
100
AcDbSymbolTableRecord
100
AcDbBlockTableRecord
  2
m8 holes
340
0
  0
BLOCK_RECORD
  5
45
100
AcDbSymbolTableRecord
100
AcDbBlockTableRecord
  2
slot
340
0
  0
BLOCK_RECORD
  5
46
100
AcDbSymbolTableRecord
100
AcDbBlockTableRecord
  2
stepperdriverboardholes
340
0
  0
ENDTAB
  0
ENDSEC
  0
SECTION
  2
BLOCKS
  0
BLOCK
  5
20
100
AcDbEntity
  8
0
100
AcDbBlockBegin
  2
*Model_Space
 70
0
 10
0.0
 20
0.0
 30
0.0
  3
*Model_Space
  1

  0
ENDBLK
  5
21
100
AcDbEntity
  8
0
100
AcDbBlockEnd
  0
BLOCK
  5
1C
100
AcDbEntity
 67
1
  8
0
100
AcDbBlockBegin
  2
*Paper_Space
 70
0
 10
0.0
 20
0.0
 30
0.0
  3
*Paper_Space
  1

  0
ENDBLK
  5
1D
100
AcDbEntity
 67
1
  8
0
100
AcDbBlockEnd
  0
BLOCK
  5
24
100
AcDbEntity
  8
0
100
AcDbBlockBegin
  2
*Paper_Space0
 70
0
 10
0.0
 20
0.0
 30
0.0
  3
*Paper_Space0
  1

  0
ENDBLK
  5
25
100
AcDbEntity
  8
0
100
AcDbBlockEnd
  0
BLOCK
  5
47
100
AcDbEntity
  8
0
100
AcDbBlockBegin
  2
m8 holes
 70
0
 10
0.0
 20
0.0
 30
0.0
  3
m8 holes
  1

  0
CIRCLE
  5
48
100
AcDbEntity
100
AcDbCircle
  8
0
 62
256
370
-1
  6
ByLayer
 10
10.0
 20
10.0000000000000018
 30
0.0
 40
1.5
  0
CIRCLE
  5
49
100
AcDbEntity
100
AcDbCircle
  8
0
 62
256
370
-1
  6
ByLayer
 10
10.0
 20
-10.0000000000000018
 30
0.0
 40
1.5
  0
CIRCLE
  5
4A
100
AcDbEntity
100
AcDbCircle
  8
0
 62
256
370
-1
  6
ByLayer
 10
-10.0000000000000018
 20
-10.0
 30
0.0
 40
1.5
  0
CIRCLE
  5
4B
100
AcDbEntity
100
AcDbCircle
  8
0
 62
256
370
-1
  6
ByLayer
 10
-10.0
 20
10.0000000000000018
 30
0.0
 40
1.5
  0
CIRCLE
  5
4C
100
AcDbEntity
100
AcDbCircle
  8
0
 62
256
370
-1
  6
ByLayer
 10
0.0
 20
0.0
 30
0.0
 40
3.1200000000000001
  0
ENDBLK
  5
4D
100
AcDbEntity
  8
0
100
AcDbBlockEnd
  0
BLOCK
  5
4E
100
AcDbEntity
  8
0
100
AcDbBlockBegin
  2
slot
 70
0
 10
0.0
 20
0.0
 30
0.0
  3
slot
  1

  0
LINE
  5
4F
100
AcDbEntity
100
AcDbLine
  8
0
 62
256
370
-1
  6
ByLayer
 10
5.0
 20
0.0
 30
0.0
 11
15.0
 21
0.0
 31
0.0
  0
LINE
  5
50
100
AcDbEntity
100
AcDbLine
  8
0
 62
256
370
-1
  6
ByLayer
 10
45.0
 20
-0.0000000000000019
 30
0.0
 11
55.0
 21
-0.0000000000000058
 31
0.0
  0
LINE
  5
51
100
AcDbEntity
100
AcDbLine
  8
0
 62
256
370
-1
  6
ByLayer
 10
45.0
 20
5.0
 30
0.0
 11
45.0
 21
0.0
 31
0.0
  0
LINE
  5
52
100
AcDbEntity
100
AcDbLine
  8
0
 62
256
370
-1
  6
ByLayer
 10
45.0
 20
5.0
 30
0.0
 11
55.0
 21
5.0
 31
0.0
  0
LINE
  5
53
100
AcDbEntity
100
AcDbLine
  8
0
 62
256
370
-1
  6
ByLayer
 10
55.0
 20
0.0
 30
0.0
 11
55.0
 21
5.0
 31
0.0
  0
LINE
  5
54
100
AcDbEntity
100
AcDbLine
  8
0
 62
256
370
-1
  6
ByLayer
 10
15.0
 20
0.0
 30
0.0
 11
15.0
 21
5.0
 31
0.0
  0
LINE
  5
55
100
AcDbEntity
100
AcDbLine
  8
0
 62
256
370
-1
  6
ByLayer
 10
5.0
 20
5.0
 30
0.0
 11
15.0
 21
5.0
 31
0.0
  0
LINE
  5
56
100
AcDbEntity
100
AcDbLine
  8
0
 62
256
370
-1
  6
ByLayer
 10
5.0
 20
5.0
 30
0.0
 11
5.0
 21
0.0
 31
0.0
  0
CIRCLE
  5
57
100
AcDbEntity
100
AcDbCircle
  8
0
 62
256
370
-1
  6
ByLayer
 10
30.0
 20
2.5
 30
0.0
 40
1.5
  0
ENDBLK
  5
58
100
AcDbEntity
  8
0
100
AcDbBlockEnd
  0
BLOCK
  5
59
100
AcDbEntity
  8
0
100
AcDbBlockBegin
  2
stepperdriverboardholes
 70
0
 10
0.0
 20
0.0
 30
0.0
  3
stepperdriverboardholes
  1

  0
CIRCLE
  5
5A
100
AcDbEntity
100
AcDbCircle
  8
0
 62
256
370
-1
  6
ByLayer
 10
-23.6200000000000045
 20
23.6200000000000081
 30
0.0
 40
1.5
  0
CIRCLE
  5
5B
100
AcDbEntity
100
AcDbCircle
  8
0
 62
256
370
-1
  6
ByLayer
 10
23.6200000000000045
 20
23.6200000000000081
 30
0.0
 40
1.5
  0
CIRCLE
  5
5C
100
AcDbEntity
100
AcDbCircle
  8
0
 62
256
370
-1
  6
ByLayer
 10
23.6200000000000045
 20
-23.6200000000000117
 30
0.0
 40
1.5
  0
CIRCLE
  5
5D
100
AcDbEntity
100
AcDbCircle
  8
0
 62
256
370
-1
  6
ByLayer
 10
-23.6200000000000045
 20
-23.6199999999999761
 30
0.0
 40
1.5
  0
ENDBLK
  5
5E
100
AcDbEntity
  8
0
100
AcDbBlockEnd
  0
ENDSEC
  0
SECTION
  2
ENTITIES
  0
INSERT
  5
5F
100
AcDbEntity
100
AcDbBlockReference
  8
0
 62
256
370
-1
  6
ByLayer
  2
m8 holes
 10
60.4994101642749555
 20
-79.9999999999999574
 30
0.0
 41
1.0
 42
-1.0
 43
1.0
 50
270.0
 44
1.0
 45
1.0
  0
INSERT
  5
60
100
AcDbEntity
100
AcDbBlockReference
  8
0
 62
256
370
-1
  6
ByLayer
  2
m8 holes
 10
60.4994101642748774
 20
34.9999999999999361
 30
0.0
 41
1.0
 42
-1.0
 43
1.0
 50
270.0
 44
1.0
 45
1.0
  0
LINE
  5
61
100
AcDbEntity
100
AcDbLine
  8
0
 62
256
370
-1
  6
ByLayer
 10
177.4783742095413857
 20
-19.371209345004182
 30
0.0
 11
177.4783742095413857
 21
-19.371209345004182
 31
0.0
  0
LINE
  5
62
100
AcDbEntity
100
AcDbLine
  8
0
 62
256
370
-1
  6
ByLayer
 10
-175.0000000000000284
 20
-34.9999999999996803
 30
0.0
 11
-175.0000000000000284
 21
-34.9999999999996803
 31
0.0
  0
INSERT
  5
63
100
AcDbEntity
100
AcDbBlockReference
  8
0
 62
256
370
-1
  6
ByLayer
  2
slot
 10
-175.0
 20
-99.9999999999998721
 30
0.0
 50
90.0
 44
1.0
 45
1.0
  0
LINE
  5
64
100
AcDbEntity
100
AcDbLine
  8
0
 62
256
370
-1
  6
ByLayer
 10
174.9994101642751616
 20
-34.9999999999998721
 30
0.0
 11
174.9994101642751616
 21
-34.9999999999998721
 31
0.0
  0
INSERT
  5
65
100
AcDbEntity
100
AcDbBlockReference
  8
0
 62
256
370
-1
  6
ByLayer
  2
slot
 10
174.9994101642749058
 20
-99.9999999999999716
 30
0.0
 41
1.0
 42
-1.0
 43
1.0
 50
90.0
 44
1.0
 45
1.0
  0
INSERT
  5
66
100
AcDbEntity
100
AcDbBlockReference
  8
0
 62
256
370
-1
  6
ByLayer
  2
slot
 10
174.9994101642732574
 20
40.0000000000000142
 30
0.0
 41
1.0
 42
-1.0
 43
1.0
 50
90.0
 44
1.0
 45
1.0
  0
INSERT
  5
67
100
AcDbEntity
100
AcDbBlockReference
  8
0
 62
256
370
-1
  6
ByLayer
  2
slot
 10
-174.9999999999986926
 20
30.0000000000001563
 30
0.0
 50
90.0
 44
1.0
 45
1.0
  0
INSERT
  5
68
100
AcDbEntity
100
AcDbBlockReference
  8
0
 62
256
370
-1
  6
ByLayer
  2
slot
 10
-100.0000000000000284
 20
114.9990961861077636
 30
0.0
 50
180.0
 44
1.0
 45
1.0
  0
INSERT
  5
69
100
AcDbEntity
100
AcDbBlockReference
  8
0
 62
256
370
-1
  6
ByLayer
  2
slot
 10
30.0000000000000746
 20
114.9990961861078347
 30
0.0
 50
180.0
 44
1.0
 45
1.0
  0
INSERT
  5
6A
100
AcDbEntity
100
AcDbBlockReference
  8
0
 62
256
370
-1
  6
ByLayer
  2
slot
 10
99.9999999999999858
 20
-114.9999999999999005
 30
0.0
 50
360.0
 44
1.0
 45
1.0
  0
INSERT
  5
6B
100
AcDbEntity
100
AcDbBlockReference
  8
0
 62
256
370
-1
  6
ByLayer
  2
slot
 10
-160.0
 20
-115.0009038138913127
 30
0.0
 50
360.0
 44
1.0
 45
1.0
  0
INSERT
  5
6C
100
AcDbEntity
100
AcDbBlockReference
  8
0
 62
256
370
-1
  6
ByLayer
  2
slot
 10
-30.0000000000003766
 20
-115.000903813892748
 30
0.0
 50
360.0
 44
1.0
 45
1.0
  0
ARC
  5
6D
100
AcDbEntity
  8
0
 62
256
370
-1
  6
ByLayer
100
AcDbCircle
 10
-180.0000000000001421
 20
-114.9999999999998579
 30
0.0
 40
5.0
100
AcDbArc
 50
180.0
 51
270.0
  0
LINE
  5
6E
100
AcDbEntity
100
AcDbLine
  8
0
 62
256
370
-1
  6
ByLayer
 10
-184.9999999999999147
 20
115.0000000000001137
 30
0.0
 11
-185.0000000000001137
 21
-114.99999999999973
 31
0.0
  0
ARC
  5
6F
100
AcDbEntity
  8
0
 62
256
370
-1
  6
ByLayer
100
AcDbCircle
 10
-179.9999999999999716
 20
115.0000000000001421
 30
0.0
 40
5.0
100
AcDbArc
 50
90.0
 51
180.0
  0
ARC
  5
70
100
AcDbEntity
  8
0
 62
256
370
-1
  6
ByLayer
100
AcDbCircle
 10
179.9999999999999716
 20
115.0000000000000711
 30
0.0
 40
5.0
100
AcDbArc
 50
360.0
 51
90.0
  0
LINE
  5
71
100
AcDbEntity
100
AcDbLine
  8
0
 62
256
370
-1
  6
ByLayer
 10
185.0000000000000853
 20
115.0000000000002416
 30
0.0
 11
184.9999999999997158
 21
-115.0000000000002416
 31
0.0
  0
ARC
  5
72
100
AcDbEntity
  8
0
 62
256
370
-1
  6
ByLayer
100
AcDbCircle
 10
179.9999999999996874
 20
-115.0000000000001137
 30
0.0
 40
5.0
100
AcDbArc
 50
270.0
 51
360.0
  0
INSERT
  5
73
100
AcDbEntity
100
AcDbBlockReference
  8
0
 62
256
370
-1
  6
ByLayer
  2
stepperdriverboardholes
 10
4.9999999999998597
 20
55.0000000000000284
 30
0.0
 50
90.0
 44
1.0
 45
1.0
  0
INSERT
  5
74
100
AcDbEntity
100
AcDbBlockReference
  8
0
 62
256
370
-1
  6
ByLayer
  2
stepperdriverboardholes
 10
-55.0
 20
55.0000000000001066
 30
0.0
 50
90.0
 44
1.0
 45
1.0
  0
INSERT
  5
75
100
AcDbEntity
100
AcDbBlockReference
  8
0
 62
256
370
-1
  6
ByLayer
  2
stepperdriverboardholes
 10
-115.0
 20
55.0000000000001066
 30
0.0
 50
90.0
 44
1.0
 45
1.0
  0
LINE
  5
76
100
AcDbEntity
100
AcDbLine
  8
0
 62
256
370
-1
  6
ByLayer
 10
-180.0000000000001421
 20
-119.9999999999997868
 30
0.0
 11
179.9999999999998295
 21
-120.0000000000000284
 31
0.0
  0
CIRCLE
  5
77
100
AcDbEntity
100
AcDbCircle
  8
0
 62
256
370
-1
  6
ByLayer
 10
29.4999999999999964
 20
-96.4999999999998295
 30
0.0
 40
1.5
  0
CIRCLE
  5
78
100
AcDbEntity
100
AcDbCircle
  8
0
 62
256
370
-1
  6
ByLayer
 10
10.4999999999999449
 20
-96.4999999999999005
 30
0.0
 40
1.5
  0
LINE
  5
79
100
AcDbEntity
100
AcDbLine
  8
Drawings
 62
256
370
-1
  6
ByLayer
 10
183.4622392175064931
 20
98.4552374842838134
 30
0.0
 11
181.4622392175066068
 21
98.4552374842839413
 31
0.0
  0
LINE
  5
7A
100
AcDbEntity
100
AcDbLine
  8
Drawings
 62
256
370
-1
  6
ByLayer
 10
181.4622392175066068
 20
98.4552374842839413
 30
0.0
 11
181.4622392175059247
 21
99.121904150950229
 31
0.0
  0
ARC
  5
7B
100
AcDbEntity
  8
Drawings
 62
256
370
-1
  6
ByLayer
100
AcDbCircle
 10
181.7955725508394664
 20
99.1219041509503143
 30
0.0
 40
0.3333333333333333
100
AcDbArc
 50
90.0
 51
180.0
  0
LINE
  5
7C
100
AcDbEntity
100
AcDbLine
  8
Drawings
 62
256
370
-1
  6
ByLayer
 10
183.4622392175064078
 20
100.4552374842837992
 30
0.0
 11
181.4622392175065499
 21
100.4552374842838987
 31
0.0
  0
LINE
  5
7D
100
AcDbEntity
100
AcDbLine
  8
Drawings
 62
256
370
-1
  6
ByLayer
 10
180.6289058841730082
 20
100.4552374842838276
 30
0.0
 11
180.4622392175063794
 21
100.4552374842836997
 31
0.0
  0
LINE
  5
7E
100
AcDbEntity
100
AcDbLine
  8
Drawings
 62
256
370
-1
  6
ByLayer
 10
184.4622392175064363
 20
101.4552374842837139
 30
0.0
 11
184.4622392175059815
 21
102.2885708176171562
 31
0.0
  0
ARC
  5
7F
100
AcDbEntity
  8
Drawings
 62
256
370
-1
  6
ByLayer
100
AcDbCircle
 10
183.9622392175064931
 20
102.2885708176172841
 30
0.0
 40
0.5
100
AcDbArc
 50
360.0
 51
90.0
  0
LINE
  5
80
100
AcDbEntity
100
AcDbLine
  8
Drawings
 62
256
370
-1
  6
ByLayer
 10
183.9622392175060384
 20
102.7885708176173551
 30
0.0
 11
181.462239217506152
 21
102.788570817616943
 31
0.0
  0
LINE
  5
81
100
AcDbEntity
100
AcDbLine
  8
Drawings
 62
256
370
-1
  6
ByLayer
 10
181.462239217506152
 20
102.788570817616943
 30
0.0
 11
181.4622392175064363
 21
101.9552374842832307
 31
0.0
  0
ARC
  5
82
100
AcDbEntity
  8
Drawings
 62
256
370
-1
  6
ByLayer
100
AcDbCircle
 10
181.962239217506152
 20
101.9552374842839697
 30
0.0
 40
0.5
100
AcDbArc
 50
180.0
 51
270.0
  0
LINE
  5
83
100
AcDbEntity
100
AcDbLine
  8
Drawings
 62
256
370
-1
  6
ByLayer
 10
181.9622392175065499
 20
101.455237484283856
 30
0.0
 11
182.9622392175064931
 21
101.4552374842836997
 31
0.0
  0
ARC
  5
84
100
AcDbEntity
  8
Drawings
 62
256
370
-1
  6
ByLayer
100
AcDbCircle
 10
182.9622392175065499
 20
101.9552374842838276
 30
0.0
 40
0.5
100
AcDbArc
 50
270.0
 51
360.0
  0
LINE
  5
85
100
AcDbEntity
100
AcDbLine
  8
Drawings
 62
256
370
-1
  6
ByLayer
 10
183.4622392175065499
 20
101.9552374842838702
 30
0.0
 11
183.4622392175065499
 21
102.7885708176173409
 31
0.0
  0
LINE
  5
86
100
AcDbEntity
100
AcDbLine
  8
Drawings
 62
256
370
-1
  6
ByLayer
 10
180.4622392175065499
 20
103.7885708176173836
 30
0.0
 11
183.4622392175064363
 21
103.7885708176171846
 31
0.0
  0
LINE
  5
87
100
AcDbEntity
100
AcDbLine
  8
Drawings
 62
256
370
-1
  6
ByLayer
 10
181.4622392175059815
 20
103.7885708176168578
 30
0.0
 11
181.4622392175060952
 21
104.6219041509503427
 31
0.0
  0
ARC
  5
88
100
AcDbEntity
  8
Drawings
 62
256
370
-1
  6
ByLayer
100
AcDbCircle
 10
181.9622392175064931
 20
104.6219041509503143
 30
0.0
 40
0.5
100
AcDbArc
 50
90.0
 51
180.0
  0
LINE
  5
89
100
AcDbEntity
100
AcDbLine
  8
Drawings
 62
256
370
-1
  6
ByLayer
 10
181.9622392175064931
 20
105.1219041509502574
 30
0.0
 11
183.4622392175060952
 21
105.1219041509507832
 31
0.0
  0
LINE
  5
8A
100
AcDbEntity
100
AcDbLine
  8
Drawings
 62
256
370
-1
  6
ByLayer
 10
181.4622392175060384
 20
106.1219041509502716
 30
0.0
 11
181.4622392175060384
 21
107.1219041509503427
 31
0.0
  0
LINE
  5
8B
100
AcDbEntity
100
AcDbLine
  8
Drawings
 62
256
370
-1
  6
ByLayer
 10
180.4622392175060384
 20
106.4552374842837992
 30
0.0
 11
183.4622392175065499
 21
106.4552374842837992
 31
0.0
  0
ARC
  5
8C
100
AcDbEntity
  8
0
 62
256
370
-1
  6
ByLayer
100
AcDbCircle
 10
149.9999999999997726
 20
-85.0000000000001279
 30
0.0
 40
10.0
100
AcDbArc
 50
270.0
 51
360.0
  0
LINE
  5
8D
100
AcDbEntity
100
AcDbLine
  8
0
 62
256
370
-1
  6
ByLayer
 10
159.9999999999999147
 20
-84.9999999999999147
 30
0.0
 11
160.0000000000000853
 21
85.0000000000001563
 31
0.0
  0
ARC
  5
8E
100
AcDbEntity
  8
0
 62
256
370
-1
  6
ByLayer
100
AcDbCircle
 10
150.0000000000000853
 20
85.0000000000001705
 30
0.0
 40
10.0
100
AcDbArc
 50
360.0
 51
90.0
  0
ARC
  5
8F
100
AcDbEntity
  8
0
 62
256
370
-1
  6
ByLayer
100
AcDbCircle
 10
111.9999999999997016
 20
-85.0000000000000995
 30
0.0
 40
10.0
100
AcDbArc
 50
180.0
 51
270.0
  0
LINE
  5
90
100
AcDbEntity
100
AcDbLine
  8
0
 62
256
370
-1
  6
ByLayer
 10
101.9999999999999147
 20
84.9999999999999574
 30
0.0
 11
101.9999999999999289
 21
-84.9999999999999289
 31
0.0
  0
ARC
  5
91
100
AcDbEntity
  8
0
 62
256
370
-1
  6
ByLayer
100
AcDbCircle
 10
112.0000000000000853
 20
85.0000000000000568
 30
0.0
 40
10.0
100
AcDbArc
 50
90.0
 51
180.0
  0
LINE
  5
92
100
AcDbEntity
100
AcDbLine
  8
0
 62
256
370
-1
  6
ByLayer
 10
111.9999999999996874
 20
-95.0000000000000995
 30
0.0
 11
149.9999999999999147
 21
-94.9999999999999005
 31
0.0
  0
LINE
  5
93
100
AcDbEntity
100
AcDbLine
  8
0
 62
256
370
-1
  6
ByLayer
 10
150.0000000000000284
 20
95.0000000000000711
 30
0.0
 11
112.0000000000000284
 21
95.0000000000000995
 31
0.0
  0
CIRCLE
  5
94
100
AcDbEntity
100
AcDbCircle
  8
0
 62
256
370
-1
  6
ByLayer
 10
28.4999999999998863
 20
4.4000000000001611
 30
0.0
 40
1.5
  0
CIRCLE
  5
95
100
AcDbEntity
100
AcDbCircle
  8
0
 62
256
370
-1
  6
ByLayer
 10
-64.5000000000001137
 20
4.4000000000001291
 30
0.0
 40
1.5
  0
CIRCLE
  5
96
100
AcDbEntity
100
AcDbCircle
  8
0
 62
256
370
-1
  6
ByLayer
 10
28.4999999999998366
 20
-73.6000000000002927
 30
0.0
 40
1.5
  0
CIRCLE
  5
97
100
AcDbEntity
100
AcDbCircle
  8
0
 62
256
370
-1
  6
ByLayer
 10
37.999999999999801
 20
-10.6000000000003745
 30
0.0
 40
1.5
  0
CIRCLE
  5
98
100
AcDbEntity
100
AcDbCircle
  8
0
 62
256
370
-1
  6
ByLayer
 10
38.0000000000000924
 20
-29.3999999999999986
 30
0.0
 40
1.5
  0
ARC
  5
99
100
AcDbEntity
  8
0
 62
256
370
-1
  6
ByLayer
100
AcDbCircle
 10
-154.5000000000001421
 20
-100.4999999999997726
 30
0.0
 40
2.0
100
AcDbArc
 50
270.0
 51
360.0
  0
LINE
  5
9A
100
AcDbEntity
100
AcDbLine
  8
0
 62
256
370
-1
  6
ByLayer
 10
-154.5000000000000568
 20
-102.4999999999998153
 30
0.0
 11
-165.5000000000001421
 21
-102.4999999999998721
 31
0.0
  0
ARC
  5
9B
100
AcDbEntity
  8
0
 62
256
370
-1
  6
ByLayer
100
AcDbCircle
 10
-165.4999999999998863
 20
-100.4999999999998437
 30
0.0
 40
2.0
100
AcDbArc
 50
180.0
 51
270.0
  0
ARC
  5
9C
100
AcDbEntity
  8
0
 62
256
370
-1
  6
ByLayer
100
AcDbCircle
 10
-154.5
 20
100.5000000000001421
 30
0.0
 40
2.0
100
AcDbArc
 50
360.0
 51
90.0
  0
LINE
  5
9D
100
AcDbEntity
100
AcDbLine
  8
0
 62
256
370
-1
  6
ByLayer
 10
-165.5
 20
102.5000000000001421
 30
0.0
 11
-154.5
 21
102.5000000000001137
 31
0.0
  0
ARC
  5
9E
100
AcDbEntity
  8
0
 62
256
370
-1
  6
ByLayer
100
AcDbCircle
 10
-165.4999999999998863
 20
100.5000000000000995
 30
0.0
 40
2.0
100
AcDbArc
 50
90.0
 51
180.0
  0
LINE
  5
9F
100
AcDbEntity
100
AcDbLine
  8
Drawings
 62
256
370
-1
  6
ByLayer
 10
-121.5000000000001421
 20
19.1666666666666607
 30
0.0
 11
-121.5000000000000853
 21
20.8333333333331119
 31
0.0
  0
LINE
  5
A0
100
AcDbEntity
100
AcDbLine
  8
Drawings
 62
256
370
-1
  6
ByLayer
 10
-121.5000000000000853
 20
20.8333333333331119
 30
0.0
 11
-118.4999999999998863
 21
19.1666666666666501
 31
0.0
  0
LINE
  5
A1
100
AcDbEntity
100
AcDbLine
  8
Drawings
 62
256
370
-1
  6
ByLayer
 10
-118.4999999999998863
 20
19.1666666666666501
 30
0.0
 11
-118.5000000000000142
 21
20.833333333333556
 31
0.0
  0
LINE
  5
A2
100
AcDbEntity
100
AcDbLine
  8
Drawings
 62
256
370
-1
  6
ByLayer
 10
-61.5000000000001705
 20
19.0000000000000817
 30
0.0
 11
-60.1666666666663659
 21
20.0000000000001243
 31
0.0
  0
LINE
  5
A3
100
AcDbEntity
100
AcDbLine
  8
Drawings
 62
256
370
-1
  6
ByLayer
 10
-60.1666666666663659
 20
20.0000000000001243
 30
0.0
 11
-58.4999999999999716
 21
20.0000000000001066
 31
0.0
  0
LINE
  5
A4
100
AcDbEntity
100
AcDbLine
  8
Drawings
 62
256
370
-1
  6
ByLayer
 10
-60.1666666666663659
 20
20.0000000000001243
 30
0.0
 11
-61.5000000000000213
 21
21.0000000000001386
 31
0.0
  0
LINE
  5
A5
100
AcDbEntity
100
AcDbLine
  8
Drawings
 62
256
370
-1
  6
ByLayer
 10
-1.499999999999958
 20
19.0000000000001137
 30
0.0
 11
1.5000000000000404
 21
21.0000000000001705
 31
0.0
  0
LINE
  5
A6
100
AcDbEntity
100
AcDbLine
  8
Drawings
 62
256
370
-1
  6
ByLayer
 10
1.5000000000000839
 20
19.0000000000001705
 30
0.0
 11
-1.5000000000000717
 21
21.0000000000000568
 31
0.0
  0
ARC
  5
A7
100
AcDbEntity
  8
0
 62
256
370
-1
  6
ByLayer
100
AcDbCircle
 10
56.9999999999998579
 20
56.9999999999999929
 30
0.0
 40
2.0
100
AcDbArc
 50
180.0
 51
270.0
  0
LINE
  5
A8
100
AcDbEntity
100
AcDbLine
  8
0
 62
256
370
-1
  6
ByLayer
 10
56.9999999999999147
 20
55.0000000000000497
 30
0.0
 11
73.0
 21
55.0000000000001563
 31
0.0
  0
ARC
  5
A9
100
AcDbEntity
  8
0
 62
256
370
-1
  6
ByLayer
100
AcDbCircle
 10
72.9999999999999716
 20
57.0000000000000568
 30
0.0
 40
2.0
100
AcDbArc
 50
270.0
 51
360.0
  0
LINE
  5
AA
100
AcDbEntity
100
AcDbLine
  8
0
 62
256
370
-1
  6
ByLayer
 10
74.9999999999999432
 20
57.0
 30
0.0
 11
74.9999999999999858
 21
98.0000000000000568
 31
0.0
  0
ARC
  5
AB
100
AcDbEntity
  8
0
 62
256
370
-1
  6
ByLayer
100
AcDbCircle
 10
73.0000000000000284
 20
98.0000000000000568
 30
0.0
 40
2.0
100
AcDbArc
 50
360.0
 51
90.0
  0
LINE
  5
AC
100
AcDbEntity
100
AcDbLine
  8
0
 62
256
370
-1
  6
ByLayer
 10
73.0000000000000284
 20
100.0000000000000853
 30
0.0
 11
56.9999999999999645
 21
100.0000000000000711
 31
0.0
  0
LINE
  5
AD
100
AcDbEntity
100
AcDbLine
  8
0
 62
256
370
-1
  6
ByLayer
 10
54.9999999999999218
 20
97.9999999999999858
 30
0.0
 11
54.9999999999999645
 21
57.0000000000000568
 31
0.0
  0
ARC
  5
AE
100
AcDbEntity
  8
0
 62
256
370
-1
  6
ByLayer
100
AcDbCircle
 10
56.999999999999865
 20
97.9999999999999574
 30
0.0
 40
2.0
100
AcDbArc
 50
90.0
 51
180.0
  0
CIRCLE
  5
AF
100
AcDbEntity
100
AcDbCircle
  8
0
 62
256
370
-1
  6
ByLayer
 10
-64.4999999999999716
 20
-73.5999999999997954
 30
0.0
 40
1.5
  0
ARC
  5
B0
100
AcDbEntity
  8
0
 62
256
370
-1
  6
ByLayer
100
AcDbCircle
 10
-154.5000000000001421
 20
-85.4999999999997868
 30
0.0
 40
2.0
100
AcDbArc
 50
360.0
 51
90.0
  0
LINE
  5
B1
100
AcDbEntity
100
AcDbLine
  8
0
 62
256
370
-1
  6
ByLayer
 10
-165.4999999999999147
 20
-83.4999999999998579
 30
0.0
 11
-154.5000000000001137
 21
-83.4999999999998153
 31
0.0
  0
ARC
  5
B2
100
AcDbEntity
  8
0
 62
256
370
-1
  6
ByLayer
100
AcDbCircle
 10
-165.5000000000000853
 20
-85.499999999999801
 30
0.0
 40
2.0
100
AcDbArc
 50
90.0
 51
180.0
  0
LINE
  5
B3
100
AcDbEntity
100
AcDbLine
  8
0
 62
256
370
-1
  6
ByLayer
 10
-152.5
 20
-85.4999999999998153
 30
0.0
 11
-152.4999999999998295
 21
-100.4999999999998295
 31
0.0
  0
LINE
  5
B4
100
AcDbEntity
100
AcDbLine
  8
0
 62
256
370
-1
  6
ByLayer
 10
-167.5000000000000284
 20
-100.4999999999997726
 30
0.0
 11
-167.4999999999999716
 21
-85.4999999999998863
 31
0.0
  0
ARC
  5
B5
100
AcDbEntity
  8
0
 62
256
370
-1
  6
ByLayer
100
AcDbCircle
 10
-154.5
 20
85.5000000000001137
 30
0.0
 40
2.0
100
AcDbArc
 50
270.0
 51
360.0
  0
LINE
  5
B6
100
AcDbEntity
100
AcDbLine
  8
0
 62
256
370
-1
  6
ByLayer
 10
-154.4999999999999432
 20
83.5000000000001279
 30
0.0
 11
-165.5000000000001705
 21
83.5000000000001279
 31
0.0
  0
ARC
  5
B7
100
AcDbEntity
  8
0
 62
256
370
-1
  6
ByLayer
100
AcDbCircle
 10
-165.5
 20
85.5000000000000853
 30
0.0
 40
2.0
100
AcDbArc
 50
180.0
 51
270.0
  0
LINE
  5
B8
100
AcDbEntity
100
AcDbLine
  8
0
 62
256
370
-1
  6
ByLayer
 10
-167.5000000000001137
 20
85.500000000000199
 30
0.0
 11
-167.4999999999999147
 21
100.5000000000001563
 31
0.0
  0
LINE
  5
B9
100
AcDbEntity
100
AcDbLine
  8
0
 62
256
370
-1
  6
ByLayer
 10
-152.5000000000000284
 20
100.500000000000199
 30
0.0
 11
-152.5000000000000284
 21
85.5000000000001421
 31
0.0
  0
LINE
  5
BA
100
AcDbEntity
100
AcDbLine
  8
Drawings
 62
256
370
-1
  6
ByLayer
 10
-77.0000000000002984
 20
-49.9999999999999218
 30
0.0
 11
-80.0000000000001279
 21
-49.999999999999865
 31
0.0
  0
LINE
  5
BB
100
AcDbEntity
100
AcDbLine
  8
Drawings
 62
256
370
-1
  6
ByLayer
 10
-80.0000000000001279
 20
-49.999999999999865
 30
0.0
 11
-78.3333333333334565
 21
-48.9999999999998721
 31
0.0
  0
LINE
  5
BC
100
AcDbEntity
100
AcDbLine
  8
Drawings
 62
256
370
-1
  6
ByLayer
 10
-78.3333333333334565
 20
-48.9999999999998721
 30
0.0
 11
-80.0000000000001421
 21
-47.9999999999998721
 31
0.0
  0
LINE
  5
BD
100
AcDbEntity
100
AcDbLine
  8
Drawings
 62
256
370
-1
  6
ByLayer
 10
-80.0000000000001421
 20
-47.9999999999998721
 30
0.0
 11
-77.0000000000001563
 21
-47.9999999999998792
 31
0.0
  0
LINE
  5
BE
100
AcDbEntity
100
AcDbLine
  8
Drawings
 62
256
370
-1
  6
ByLayer
 10
-77.6666666666670551
 20
-46.9999999999998721
 30
0.0
 11
-79.3333333333335275
 21
-46.999999999999865
 31
0.0
  0
ARC
  5
BF
100
AcDbEntity
  8
Drawings
 62
256
370
-1
  6
ByLayer
100
AcDbCircle
 10
-79.3333333333335418
 20
-46.3333333333329094
 30
0.0
 40
0.6666666666666666
100
AcDbArc
 50
180.0
 51
270.0
  0
LINE
  5
C0
100
AcDbEntity
100
AcDbLine
  8
Drawings
 62
256
370
-1
  6
ByLayer
 10
-79.9999999999999716
 20
-46.3333333333333499
 30
0.0
 11
-80.0000000000000853
 21
-45.9999999999998508
 31
0.0
  0
ARC
  5
C1
100
AcDbEntity
  8
Drawings
 62
256
370
-1
  6
ByLayer
100
AcDbCircle
 10
-79.333333333333556
 20
-45.9999999999998579
 30
0.0
 40
0.6666666666666666
100
AcDbArc
 50
90.0
 51
180.0
  0
LINE
  5
C2
100
AcDbEntity
100
AcDbLine
  8
Drawings
 62
256
370
-1
  6
ByLayer
 10
-79.3333333333335986
 20
-45.3333333333329165
 30
0.0
 11
-77.666666666666643
 21
-45.333333333332881
 31
0.0
  0
ARC
  5
C3
100
AcDbEntity
  8
Drawings
 62
256
370
-1
  6
ByLayer
100
AcDbCircle
 10
-77.6666666666664867
 20
-45.9999999999998579
 30
0.0
 40
0.6666666666666666
100
AcDbArc
 50
360.0
 51
90.0
  0
LINE
  5
C4
100
AcDbEntity
100
AcDbLine
  8
Drawings
 62
256
370
-1
  6
ByLayer
 10
-77.0000000000000853
 20
-45.999999999999865
 30
0.0
 11
-77.0000000000000995
 21
-46.3333333333328881
 31
0.0
  0
ARC
  5
C5
100
AcDbEntity
  8
Drawings
 62
256
370
-1
  6
ByLayer
100
AcDbCircle
 10
-77.6666666666666856
 20
-46.333333333333357
 30
0.0
 40
0.6666666666666666
100
AcDbArc
 50
270.0
 51
360.0
  0
LINE
  5
C6
100
AcDbEntity
100
AcDbLine
  8
Drawings
 62
256
370
-1
  6
ByLayer
 10
-80.0000000000001421
 20
-44.3333333333334352
 30
0.0
 11
-80.0000000000001137
 21
-42.3333333333329023
 31
0.0
  0
LINE
  5
C7
100
AcDbEntity
100
AcDbLine
  8
Drawings
 62
256
370
-1
  6
ByLayer
 10
-80.0000000000002984
 20
-43.3333333333328952
 30
0.0
 11
-77.0
 21
-43.3333333333333712
 31
0.0
  0
LINE
  5
C8
100
AcDbEntity
100
AcDbLine
  8
Drawings
 62
256
370
-1
  6
ByLayer
 10
-80.0000000000000284
 20
-41.333333333332881
 30
0.0
 11
-76.9999999999999574
 21
-41.333333333332817
 31
0.0
  0
LINE
  5
C9
100
AcDbEntity
100
AcDbLine
  8
Drawings
 62
256
370
-1
  6
ByLayer
 10
-77.0000000000000568
 20
-39.6666666666663588
 30
0.0
 11
-80.0000000000000568
 21
-39.6666666666664014
 31
0.0
  0
LINE
  5
CA
100
AcDbEntity
100
AcDbLine
  8
Drawings
 62
256
370
-1
  6
ByLayer
 10
-78.6666666666666288
 20
-41.3333333333329307
 30
0.0
 11
-78.6666666666670977
 21
-39.6666666666663659
 31
0.0
  0
LINE
  5
CB
100
AcDbEntity
100
AcDbLine
  8
Drawings
 62
256
370
-1
  6
ByLayer
 10
-80.0000000000001279
 20
-37.3333333333333215
 30
0.0
 11
-79.9999999999998721
 21
-38.6666666666668633
 31
0.0
  0
LINE
  5
CC
100
AcDbEntity
100
AcDbLine
  8
Drawings
 62
256
370
-1
  6
ByLayer
 10
-79.9999999999998721
 20
-38.6666666666668633
 30
0.0
 11
-77.0000000000001279
 21
-38.6666666666664511
 31
0.0
  0
LINE
  5
CD
100
AcDbEntity
100
AcDbLine
  8
Drawings
 62
256
370
-1
  6
ByLayer
 10
-77.0000000000001279
 20
-38.6666666666664511
 30
0.0
 11
-77.0000000000000284
 21
-37.3333333333333783
 31
0.0
  0
LINE
  5
CE
100
AcDbEntity
100
AcDbLine
  8
Drawings
 62
256
370
-1
  6
ByLayer
 10
-78.6666666666671119
 20
-38.6666666666663872
 30
0.0
 11
-78.6666666666671546
 21
-37.6666666666664298
 31
0.0
  0
LINE
  5
CF
100
AcDbEntity
100
AcDbLine
  8
Drawings
 62
256
370
-1
  6
ByLayer
 10
-77.0000000000000142
 20
-36.3333333333328667
 30
0.0
 11
-80.0000000000002132
 21
-36.3333333333333997
 31
0.0
  0
LINE
  5
D0
100
AcDbEntity
100
AcDbLine
  8
Drawings
 62
256
370
-1
  6
ByLayer
 10
-80.0000000000002132
 20
-36.3333333333333997
 30
0.0
 11
-80.0000000000001279
 21
-35.3333333333329449
 31
0.0
  0
ARC
  5
D1
100
AcDbEntity
  8
Drawings
 62
256
370
-1
  6
ByLayer
100
AcDbCircle
 10
-79.3333333333335275
 20
-35.3333333333329662
 30
0.0
 40
0.6666666666666666
100
AcDbArc
 50
90.0
 51
180.0
  0
LINE
  5
D2
100
AcDbEntity
100
AcDbLine
  8
Drawings
 62
256
370
-1
  6
ByLayer
 10
-79.3333333333335133
 20
-34.666666666666373
 30
0.0
 11
-79.0000000000000284
 21
-34.6666666666664014
 31
0.0
  0
ARC
  5
D3
100
AcDbEntity
  8
Drawings
 62
256
370
-1
  6
ByLayer
100
AcDbCircle
 10
-78.9999999999999716
 20
-35.3333333333329094
 30
0.0
 40
0.6666666666666666
100
AcDbArc
 50
360.0
 51
90.0
  0
LINE
  5
D4
100
AcDbEntity
100
AcDbLine
  8
Drawings
 62
256
370
-1
  6
ByLayer
 10
-78.3333333333336981
 20
-35.3333333333330017
 30
0.0
 11
-78.3333333333336412
 21
-36.3333333333329378
 31
0.0
  0
LINE
  5
D5
100
AcDbEntity
100
AcDbLine
  8
Drawings
 62
256
370
-1
  6
ByLayer
 10
-78.3333333333336981
 20
-35.3333333333330017
 30
0.0
 11
-76.9999999999999432
 21
-34.6666666666663872
 31
0.0
  0
LINE
  5
D6
100
AcDbEntity
100
AcDbLine
  8
Drawings
 62
256
370
-1
  6
ByLayer
 10
-76.9999999999998863
 20
-33.6666666666663872
 30
0.0
 11
-80.0000000000001137
 21
-33.666666666666849
 31
0.0
  0
LINE
  5
D7
100
AcDbEntity
100
AcDbLine
  8
Drawings
 62
256
370
-1
  6
ByLayer
 10
-80.0000000000001137
 20
-33.666666666666849
 30
0.0
 11
-80.000000000000199
 21
-32.8333333333334281
 31
0.0
  0
ARC
  5
D8
100
AcDbEntity
  8
Drawings
 62
256
370
-1
  6
ByLayer
100
AcDbCircle
 10
-79.3333333333336697
 20
-32.8333333333333925
 30
0.0
 40
0.6666666666666666
100
AcDbArc
 50
360.0
 51
180.0
  0
LINE
  5
D9
100
AcDbEntity
100
AcDbLine
  8
Drawings
 62
256
370
-1
  6
ByLayer
 10
-78.6666666666665151
 20
-33.6666666666664085
 30
0.0
 11
-78.6666666666669556
 21
-32.8000066666666967
 31
0.0
  0
ARC
  5
DA
100
AcDbEntity
  8
Drawings
 62
256
370
-1
  6
ByLayer
100
AcDbCircle
 10
-77.8666666666667169
 20
-32.8000066666667038
 30
0.0
 40
0.7999999999999999
100
AcDbArc
 50
90.0
 51
180.0
  0
LINE
  5
DB
100
AcDbEntity
100
AcDbLine
  8
Drawings
 62
256
370
-1
  6
ByLayer
 10
-77.8666666666669016
 20
-31.9999999999999325
 30
0.0
 11
-77.8000000000003666
 21
-31.9999999999999183
 31
0.0
  0
ARC
  5
DC
100
AcDbEntity
  8
Drawings
 62
256
370
-1
  6
ByLayer
100
AcDbCircle
 10
-77.8000000000000966
 20
-32.8000066666666541
 30
0.0
 40
0.7999999999999999
100
AcDbArc
 50
360.0
 51
90.0
  0
LINE
  5
DD
100
AcDbEntity
100
AcDbLine
  8
Drawings
 62
256
370
-1
  6
ByLayer
 10
-77.0000000000001847
 20
-32.8000066666666896
 30
0.0
 11
-76.9999999999998863
 21
-33.6666666666663872
 31
0.0
  0
LINE
  5
DE
100
AcDbEntity
100
AcDbLine
  8
Drawings
 62
256
370
-1
  6
ByLayer
 10
-77.6666666666665151
 20
-30.999999999999897
 30
0.0
 11
-79.3333333333333712
 21
-30.9999999999998153
 31
0.0
  0
ARC
  5
DF
100
AcDbEntity
  8
Drawings
 62
256
370
-1
  6
ByLayer
100
AcDbCircle
 10
-79.3333333333337407
 20
-30.3333333333329769
 30
0.0
 40
0.6666666666666666
100
AcDbArc
 50
180.0
 51
270.0
  0
LINE
  5
E0
100
AcDbEntity
100
AcDbLine
  8
Drawings
 62
256
370
-1
  6
ByLayer
 10
-80.0000000000000284
 20
-30.3333333333329449
 30
0.0
 11
-80.00000000000027
 21
-29.9999999999999254
 31
0.0
  0
ARC
  5
E1
100
AcDbEntity
  8
Drawings
 62
256
370
-1
  6
ByLayer
100
AcDbCircle
 10
-79.3333333333334849
 20
-29.9999999999998579
 30
0.0
 40
0.6666666666666666
100
AcDbArc
 50
90.0
 51
180.0
  0
LINE
  5
E2
100
AcDbEntity
100
AcDbLine
  8
Drawings
 62
256
370
-1
  6
ByLayer
 10
-79.3333333333335702
 20
-29.3333333333328952
 30
0.0
 11
-77.6666666666664298
 21
-29.3333333333328632
 31
0.0
  0
ARC
  5
E3
100
AcDbEntity
  8
Drawings
 62
256
370
-1
  6
ByLayer
100
AcDbCircle
 10
-77.6666666666671119
 20
-29.9999999999999361
 30
0.0
 40
0.6666666666666666
100
AcDbArc
 50
360.0
 51
90.0
  0
LINE
  5
E4
100
AcDbEntity
100
AcDbLine
  8
Drawings
 62
256
370
-1
  6
ByLayer
 10
-76.9999999999998721
 20
-29.9999999999998614
 30
0.0
 11
-76.9999999999999858
 21
-30.3333333333328667
 31
0.0
  0
ARC
  5
E5
100
AcDbEntity
  8
Drawings
 62
256
370
-1
  6
ByLayer
100
AcDbCircle
 10
-77.6666666666664582
 20
-30.3333333333329058
 30
0.0
 40
0.6666666666666666
100
AcDbArc
 50
270.0
 51
360.0
  0
LINE
  5
E6
100
AcDbEntity
100
AcDbLine
  8
Drawings
 62
256
370
-1
  6
ByLayer
 10
-76.9999999999999574
 20
-28.3333333333332753
 30
0.0
 11
-79.9999999999999289
 21
-27.3333333333333144
 31
0.0
  0
LINE
  5
E7
100
AcDbEntity
100
AcDbLine
  8
Drawings
 62
256
370
-1
  6
ByLayer
 10
-79.9999999999999289
 20
-27.3333333333333144
 30
0.0
 11
-77.0000000000000142
 21
-26.3333333333333606
 31
0.0
  0
LINE
  5
E8
100
AcDbEntity
100
AcDbLine
  8
Drawings
 62
256
370
-1
  6
ByLayer
 10
-77.8333333333335702
 20
-28.0555623333329258
 30
0.0
 11
-77.8333333333335418
 21
-26.6111033333330909
 31
0.0
  0
LINE
  5
E9
100
AcDbEntity
100
AcDbLine
  8
Drawings
 62
256
370
-1
  6
ByLayer
 10
-77.0000000000000711
 20
-25.3333333333328952
 30
0.0
 11
-80.0000000000000995
 21
-25.3333333333328916
 31
0.0
  0
LINE
  5
EA
100
AcDbEntity
100
AcDbLine
  8
Drawings
 62
256
370
-1
  6
ByLayer
 10
-80.0000000000000995
 20
-25.3333333333328916
 30
0.0
 11
-80.0000000000000568
 21
-24.3333333333334281
 31
0.0
  0
ARC
  5
EB
100
AcDbEntity
  8
Drawings
 62
256
370
-1
  6
ByLayer
100
AcDbCircle
 10
-79.3333333333334423
 20
-24.3333333333333499
 30
0.0
 40
0.6666666666666666
100
AcDbArc
 50
90.0
 51
180.0
  0
LINE
  5
EC
100
AcDbEntity
100
AcDbLine
  8
Drawings
 62
256
370
-1
  6
ByLayer
 10
-79.333333333333627
 20
-23.6666666666664547
 30
0.0
 11
-79.0000000000001847
 21
-23.6666666666664334
 31
0.0
  0
ARC
  5
ED
100
AcDbEntity
  8
Drawings
 62
256
370
-1
  6
ByLayer
100
AcDbCircle
 10
-78.9999999999999147
 20
-24.3333333333328348
 30
0.0
 40
0.6666666666666666
100
AcDbArc
 50
360.0
 51
90.0
  0
LINE
  5
EE
100
AcDbEntity
100
AcDbLine
  8
Drawings
 62
256
370
-1
  6
ByLayer
 10
-78.3333333333334565
 20
-24.33333333333292
 30
0.0
 11
-78.333333333333556
 21
-25.3333333333328881
 31
0.0
  0
LINE
  5
EF
100
AcDbEntity
100
AcDbLine
  8
Drawings
 62
256
370
-1
  6
ByLayer
 10
-78.3333333333334565
 20
-24.33333333333292
 30
0.0
 11
-77.0000000000000426
 21
-23.666666666666373
 31
0.0
  0
LINE
  5
F0
100
AcDbEntity
100
AcDbLine
  8
Drawings
 62
256
370
-1
  6
ByLayer
 10
-77.0000000000000711
 20
-22.6666666666668739
 30
0.0
 11
-77.0000000000001847
 21
-21.6666666666668277
 31
0.0
  0
ARC
  5
F1
100
AcDbEntity
  8
Drawings
 62
256
370
-1
  6
ByLayer
100
AcDbCircle
 10
-77.6666666666664867
 20
-21.6666666666663765
 30
0.0
 40
0.6666666666666666
100
AcDbArc
 50
360.0
 51
90.0
  0
LINE
  5
F2
100
AcDbEntity
100
AcDbLine
  8
Drawings
 62
256
370
-1
  6
ByLayer
 10
-77.6666666666665577
 20
-20.999999999999801
 30
0.0
 11
-79.333333333333556
 21
-20.9999999999999432
 31
0.0
  0
ARC
  5
F3
100
AcDbEntity
  8
Drawings
 62
256
370
-1
  6
ByLayer
100
AcDbCircle
 10
-79.3333333333334849
 20
-21.6666666666669059
 30
0.0
 40
0.6666666666666666
100
AcDbArc
 50
90.0
 51
180.0
  0
LINE
  5
F4
100
AcDbEntity
100
AcDbLine
  8
Drawings
 62
256
370
-1
  6
ByLayer
 10
-80.00000000000027
 20
-21.666666666666405
 30
0.0
 11
-79.9999999999999574
 21
-22.6666666666663694
 31
0.0
  0
LINE
  5
F5
100
AcDbEntity
100
AcDbLine
  8
Drawings
 62
256
370
-1
  6
ByLayer
 10
-79.9999999999999574
 20
-22.6666666666663694
 30
0.0
 11
-77.0000000000000711
 21
-22.6666666666668739
 31
0.0
  0
INSERT
  5
F6
100
AcDbEntity
100
AcDbBlockReference
  8
0
 62
256
370
-1
  6
ByLayer
  2
slot
 10
87.999999999999801
 20
-40.0000000000001279
 30
0.0
 41
1.0
 42
-1.0
 43
1.0
 50
270.0
 44
1.0
 45
1.0
  0
INSERT
  5
F7
100
AcDbEntity
100
AcDbBlockReference
  8
0
 62
256
370
-1
  6
ByLayer
  2
slot
 10
87.9999999999999289
 20
90.0000000000000426
 30
0.0
 41
1.0
 42
-1.0
 43
1.0
 50
270.0
 44
1.0
 45
1.0
  0
LINE
  5
F8
100
AcDbEntity
100
AcDbLine
  8
0
 62
256
370
-1
  6
ByLayer
 10
97.9999999999999005
 20
117.5000000000000568
 30
0.0
 11
97.9999999999999716
 21
115.0000000000000426
 31
0.0
  0
ARC
  5
F9
100
AcDbEntity
  8
0
 62
256
370
-1
  6
ByLayer
100
AcDbCircle
 10
100.4999999999995168
 20
117.5000000000000711
 30
0.0
 40
2.5
100
AcDbArc
 50
90.0
 51
180.0
  0
LINE
  5
FA
100
AcDbEntity
100
AcDbLine
  8
0
 62
256
370
-1
  6
ByLayer
 10
128.0000000000000284
 20
115.0000000000001563
 30
0.0
 11
127.9854372199305743
 21
117.51447868293738
 31
0.0
  0
ARC
  5
FB
100
AcDbEntity
  8
0
 62
256
370
-1
  6
ByLayer
100
AcDbCircle
 10
125.4854791467342352
 20
117.5000000000000995
 30
0.0
 40
2.5
100
AcDbArc
 50
0.3318288250923013
 51
90.0
  0
LINE
  5
FC
100
AcDbEntity
100
AcDbLine
  8
0
 62
256
370
-1
  6
ByLayer
 10
138.0000000000000284
 20
115.0000000000001421
 30
0.0
 11
137.9999999999998863
 21
117.4999999999998437
 31
0.0
  0
ARC
  5
FD
100
AcDbEntity
  8
0
 62
256
370
-1
  6
ByLayer
100
AcDbCircle
 10
140.5000000000000284
 20
117.5000000000001421
 30
0.0
 40
2.5
100
AcDbArc
 50
90.0
 51
180.0
  0
LINE
  5
FE
100
AcDbEntity
100
AcDbLine
  8
0
 62
256
370
-1
  6
ByLayer
 10
100.5000000000000142
 20
120.0000000000001279
 30
0.0
 11
125.4854791467341499
 21
119.9999999999999716
 31
0.0
  0
LINE
  5
FF
100
AcDbEntity
100
AcDbLine
  8
0
 62
256
370
-1
  6
ByLayer
 10
88.0
 20
120.0000000000000711
 30
0.0
 11
87.9999999999999432
 21
115.0
 31
0.0
  0
LINE
  5
100
100
AcDbEntity
100
AcDbLine
  8
0
 62
256
370
-1
  6
ByLayer
 10
-180.0000000000000284
 20
120.0000000000001279
 30
0.0
 11
88.0
 21
120.0000000000000711
 31
0.0
  0
LINE
  5
101
100
AcDbEntity
100
AcDbLine
  8
0
 62
256
370
-1
  6
ByLayer
 10
140.5000000000000568
 20
120.0000000000001705
 30
0.0
 11
179.9999999999999716
 21
119.9999999999999716
 31
0.0
  0
CIRCLE
  5
102
100
AcDbEntity
100
AcDbCircle
  8
0
 62
256
370
-1
  6
ByLayer
 10
-161.0
 20
9.4000000000001069
 30
0.0
 40
1.5
  0
CIRCLE
  5
103
100
AcDbEntity
100
AcDbCircle
  8
0
 62
256
370
-1
  6
ByLayer
 10
-160.9999999999999716
 20
-9.3999999999997783
 30
0.0
 40
1.5
  0
LINE
  5
104
100
AcDbEntity
100
AcDbLine
  8
0
 62
256
370
-1
  6
ByLayer
 10
97.9999999999999716
 20
110.0
 30
0.0
 11
97.9999999999999716
 21
115.0000000000000426
 31
0.0
  0
LINE
  5
105
100
AcDbEntity
100
AcDbLine
  8
0
 62
256
370
-1
  6
ByLayer
 10
97.9999999999999716
 20
110.0
 30
0.0
 11
87.9999999999999716
 21
110.0000000000000853
 31
0.0
  0
LINE
  5
106
100
AcDbEntity
100
AcDbLine
  8
0
 62
256
370
-1
  6
ByLayer
 10
87.9999999999999716
 20
115.0000000000000426
 30
0.0
 11
87.9999999999999716
 21
110.0000000000000853
 31
0.0
  0
LINE
  5
107
100
AcDbEntity
100
AcDbLine
  8
0
 62
256
370
-1
  6
ByLayer
 10
127.9999999999999574
 20
115.0000000000000568
 30
0.0
 11
127.9999999999999716
 21
110.0000000000000711
 31
0.0
  0
LINE
  5
108
100
AcDbEntity
100
AcDbLine
  8
0
 62
256
370
-1
  6
ByLayer
 10
137.9999999999999716
 20
110.0000000000000568
 30
0.0
 11
127.9999999999999716
 21
110.0000000000000711
 31
0.0
  0
LINE
  5
109
100
AcDbEntity
100
AcDbLine
  8
0
 62
256
370
-1
  6
ByLayer
 10
137.9999999999999716
 20
110.0000000000000568
 30
0.0
 11
137.9999999999999716
 21
115.0000000000000711
 31
0.0
  0
CIRCLE
  5
10A
100
AcDbEntity
100
AcDbCircle
  8
0
 62
256
370
-1
  6
ByLayer
 10
112.9999999999999716
 20
112.5000000000000853
 30
0.0
 40
1.5
  0
ENDSEC
  0
SECTION
  2
OBJECTS
  0
DICTIONARY
  5
C
100
AcDbDictionary
280
0
281
1
  3
ACAD_GROUP
350
D
  3
ACAD_LAYOUT
350
1A
  3
ACAD_MLINESTYLE
350
17
  3
ACAD_PLOTSETTINGS
350
19
  3
ACAD_PLOTSTYLENAME
350
E
  3
AcDbVariableDictionary
350
10B
  0
DICTIONARY
  5
D
100
AcDbDictionary
280
0
281
1
  0
ACDBDICTIONARYWDFLT
  5
E
100
AcDbDictionary
281
1
  3
Normal
350
F
100
AcDbDictionaryWithDefault
340
F
  0
ACDBPLACEHOLDER
  5
F
  0
DICTIONARY
  5
17
100
AcDbDictionary
280
0
281
1
  3
Standard
350
18
  0
MLINESTYLE
  5
18
100
AcDbMlineStyle
  2
STANDARD
 70
0
  3

 62
256
 51
90.0
 52
90.0
 71
2
 49
0.5
 62
256
  6
BYLAYER
 49
-0.5
 62
256
  6
BYLAYER
  0
DICTIONARY
  5
19
100
AcDbDictionary
280
0
281
1
  0
DICTIONARY
  5
1A
100
AcDbDictionary
281
1
  3
Layout1
350
1E
  3
Layout2
350
26
  3
Model
350
22
  0
LAYOUT
  5
1E
100
AcDbPlotSettings
  1

  2
C:\Program Files\AutoCAD 2002\plotters\DWF ePlot (optimized for plotting).pc3
  4

  6

 40
0.0
 41
0.0
 42
0.0
 43
0.0
 44
0.0
 45
0.0
 46
0.0
 47
0.0
 48
0.0
 49
0.0
140
0.0
141
0.0
142
1.0
143
1.0
 70
688
 72
0
 73
0
 74
5
  7

 75
16
147
1.0
148
0.0
149
0.0
100
AcDbLayout
  1
Layout1
 70
1
 71
1
 10
0.0
 20
0.0
 11
420.0
 21
297.0
 12
0.0
 22
0.0
 32
0.0
 14
100000000000000000000.0
 24
100000000000000000000.0
 34
100000000000000000000.0
 15
-100000000000000000000.0
 25
-100000000000000000000.0
 35
-100000000000000000000.0
146
0.0
 13
0.0
 23
0.0
 33
0.0
 16
1.0
 26
0.0
 36
0.0
 17
0.0
 27
1.0
 37
0.0
 76
0
330
1B
  0
LAYOUT
  5
22
100
AcDbPlotSettings
  1

  2
C:\Program Files\AutoCAD 2002\plotters\DWF ePlot (optimized for plotting).pc3
  4

  6

 40
0.0
 41
0.0
 42
0.0
 43
0.0
 44
0.0
 45
0.0
 46
0.0
 47
0.0
 48
0.0
 49
0.0
140
0.0
141
0.0
142
1.0
143
1.0
 70
1712
 72
0
 73
0
 74
0
  7

 75
0
147
1.0
148
0.0
149
0.0
100
AcDbLayout
  1
Model
 70
1
 71
0
 10
0.0
 20
0.0
 11
12.0
 21
9.0
 12
0.0
 22
0.0
 32
0.0
 14
0.0
 24
0.0
 34
0.0
 15
0.0
 25
0.0
 35
0.0
146
0.0
 13
0.0
 23
0.0
 33
0.0
 16
1.0
 26
0.0
 36
0.0
 17
0.0
 27
1.0
 37
0.0
 76
0
330
1F
  0
LAYOUT
  5
26
100
AcDbPlotSettings
  1

  2
C:\Program Files\AutoCAD 2002\plotters\DWF ePlot (optimized for plotting).pc3
  4

  6

 40
0.0
 41
0.0
 42
0.0
 43
0.0
 44
0.0
 45
0.0
 46
0.0
 47
0.0
 48
0.0
 49
0.0
140
0.0
141
0.0
142
1.0
143
1.0
 70
688
 72
0
 73
0
 74
5
  7

 75
16
147
1.0
148
0.0
149
0.0
100
AcDbLayout
  1
Layout2
 70
1
 71
2
 10
0.0
 20
0.0
 11
12.0
 21
9.0
 12
0.0
 22
0.0
 32
0.0
 14
0.0
 24
0.0
 34
0.0
 15
0.0
 25
0.0
 35
0.0
146
0.0
 13
0.0
 23
0.0
 33
0.0
 16
1.0
 26
0.0
 36
0.0
 17
0.0
 27
1.0
 37
0.0
 76
0
330
23
  0
DICTIONARY
  5
10B
100
AcDbDictionary
281
1
  3
DIMASSOC
350
10D
  3
HIDETEXT
350
10C
  0
DICTIONARYVAR
  5
10C
100
DictionaryVariables
280
0
  1
2
  0
DICTIONARYVAR
  5
10D
100
DictionaryVariables
280
0
  1
1
  0
ENDSEC
  0
EOF
