999
dxflib 2.2.0.0
  0
SECTION
  2
HEADER
  9
$ACADVER
  1
AC1015
  9
$HANDSEED
  5
FFFF
  9
$DIMASZ
 40
2.5
  9
$PLIMMIN
 10
0.0
 20
0.0
  9
$DIMEXE
 40
1.25
  9
$DIMGAP
 40
0.625
  9
$PLIMMAX
 10
210.0
 20
297.0
  9
$INSUNITS
 70
4
  9
$DIMSTYLE
  2
Standard
  9
$CLAYER
  8
cuts
  9
$DIMEXO
 40
0.625
  9
$DIMTXT
 40
2.5
  9
$CLAYER
  8
build-platform
  0
ENDSEC
  0
SECTION
  2
TABLES
  0
TABLE
  2
VPORT
  5
8
100
AcDbSymbolTable
 70
1
  0
VPORT
  5
30
100
AcDbSymbolTableRecord
100
AcDbViewportTableRecord
  2
*Active
 70
0
 10
0.0
 20
0.0
 11
1.0
 21
1.0
 12
286.3055555555554861
 22
148.5
 13
0.0
 23
0.0
 14
10.0
 24
10.0
 15
10.0
 25
10.0
 16
0.0
 26
0.0
 36
1.0
 17
0.0
 27
0.0
 37
0.0
 40
297.0
 41
1.92798353909465
 42
50.0
 43
0.0
 44
0.0
 50
0.0
 51
0.0
 71
0
 72
100
 73
1
 74
3
 75
1
 76
1
 77
0
 78
0
281
0
 65
1
110
0.0
120
0.0
130
0.0
111
1.0
121
0.0
131
0.0
112
0.0
122
1.0
132
0.0
 79
0
146
0.0
  0
ENDTAB
  0
TABLE
  2
LTYPE
  5
5
100
AcDbSymbolTable
 70
21
  0
LTYPE
  5
14
100
AcDbSymbolTableRecord
100
AcDbLinetypeTableRecord
  2
ByBlock
 70
0
  3

 72
65
 73
0
 40
0.0
  0
LTYPE
  5
15
100
AcDbSymbolTableRecord
100
AcDbLinetypeTableRecord
  2
ByLayer
 70
0
  3

 72
65
 73
0
 40
0.0
  0
LTYPE
  5
16
100
AcDbSymbolTableRecord
100
AcDbLinetypeTableRecord
  2
CONTINUOUS
 70
0
  3
Solid line
 72
65
 73
0
 40
0.0
  0
LTYPE
  5
31
100
AcDbSymbolTableRecord
100
AcDbLinetypeTableRecord
  2
DOT
 70
0
  3
Dot . . . . . . . . . . . . . . . . . . . . . .
 72
65
 73
2
 40
6.3499999999999996
 49
0.0
 74
0
 49
-6.3499999999999996
 74
0
  0
LTYPE
  5
32
100
AcDbSymbolTableRecord
100
AcDbLinetypeTableRecord
  2
DOT2
 70
0
  3
Dot (.5x) .....................................
 72
65
 73
2
 40
3.1749999999999998
 49
0.0
 74
0
 49
-3.1749999999999998
 74
0
  0
LTYPE
  5
33
100
AcDbSymbolTableRecord
100
AcDbLinetypeTableRecord
  2
DOTX2
 70
0
  3
Dot (2x) .  .  .  .  .  .  .  .  .  .  .  .  .
 72
65
 73
2
 40
12.6999999999999993
 49
0.0
 74
0
 49
-12.6999999999999993
 74
0
  0
LTYPE
  5
34
100
AcDbSymbolTableRecord
100
AcDbLinetypeTableRecord
  2
DASHED
 70
0
  3
Dashed __ __ __ __ __ __ __ __ __ __ __ __ __ _
 72
65
 73
2
 40
19.0500000000000007
 49
12.6999999999999993
 74
0
 49
-6.3499999999999996
 74
0
  0
LTYPE
  5
35
100
AcDbSymbolTableRecord
100
AcDbLinetypeTableRecord
  2
DASHED2
 70
0
  3
Dashed (.5x) _ _ _ _ _ _ _ _ _ _ _ _ _ _ _ _ _
 72
65
 73
2
 40
9.5250000000000004
 49
6.3499999999999996
 74
0
 49
-3.1749999999999998
 74
0
  0
LTYPE
  5
36
100
AcDbSymbolTableRecord
100
AcDbLinetypeTableRecord
  2
DASHEDX2
 70
0
  3
Dashed (2x) ____  ____  ____  ____  ____  ___
 72
65
 73
2
 40
38.1000000000000014
 49
25.3999999999999986
 74
0
 49
-12.6999999999999993
 74
0
  0
LTYPE
  5
37
100
AcDbSymbolTableRecord
100
AcDbLinetypeTableRecord
  2
DASHDOT
 70
0
  3
Dash dot __ . __ . __ . __ . __ . __ . __ . __
 72
65
 73
4
 40
25.3999999999999986
 49
12.6999999999999993
 74
0
 49
-6.3499999999999996
 74
0
 49
0.0
 74
0
 49
-6.3499999999999996
 74
0
  0
LTYPE
  5
38
100
AcDbSymbolTableRecord
100
AcDbLinetypeTableRecord
  2
DASHDOT2
 70
0
  3
Dash dot (.5x) _._._._._._._._._._._._._._._.
 72
65
 73
4
 40
12.6999999999999993
 49
6.3499999999999996
 74
0
 49
-3.1749999999999998
 74
0
 49
0.0
 74
0
 49
-3.1749999999999998
 74
0
  0
LTYPE
  5
39
100
AcDbSymbolTableRecord
100
AcDbLinetypeTableRecord
  2
DASHDOTX2
 70
0
  3
Dash dot (2x) ____  .  ____  .  ____  .  ___
 72
65
 73
4
 40
50.7999999999999972
 49
25.3999999999999986
 74
0
 49
-12.6999999999999993
 74
0
 49
0.0
 74
0
 49
-12.6999999999999993
 74
0
  0
LTYPE
  5
3A
100
AcDbSymbolTableRecord
100
AcDbLinetypeTableRecord
  2
DIVIDE
 70
0
  3
Divide ____ . . ____ . . ____ . . ____ . . ____
 72
65
 73
6
 40
31.75
 49
12.6999999999999993
 74
0
 49
-6.3499999999999996
 74
0
 49
0.0
 74
0
 49
-6.3499999999999996
 74
0
 49
0.0
 74
0
 49
-6.3499999999999996
 74
0
  0
LTYPE
  5
3B
100
AcDbSymbolTableRecord
100
AcDbLinetypeTableRecord
  2
DIVIDE2
 70
0
  3
Divide (.5x) __..__..__..__..__..__..__..__.._
 72
65
 73
6
 40
15.875
 49
6.3499999999999996
 74
0
 49
-3.1749999999999998
 74
0
 49
0.0
 74
0
 49
-3.1749999999999998
 74
0
 49
0.0
 74
0
 49
-3.1749999999999998
 74
0
  0
LTYPE
  5
3C
100
AcDbSymbolTableRecord
100
AcDbLinetypeTableRecord
  2
DIVIDEX2
 70
0
  3
Divide (2x) ________  .  .  ________  .  .  _
 72
65
 73
6
 40
63.5
 49
25.3999999999999986
 74
0
 49
-12.6999999999999993
 74
0
 49
0.0
 74
0
 49
-12.6999999999999993
 74
0
 49
0.0
 74
0
 49
-12.6999999999999993
 74
0
  0
LTYPE
  5
3D
100
AcDbSymbolTableRecord
100
AcDbLinetypeTableRecord
  2
CENTER
 70
0
  3
Center ____ _ ____ _ ____ _ ____ _ ____ _ ____
 72
65
 73
4
 40
50.7999999999999972
 49
31.75
 74
0
 49
-6.3499999999999996
 74
0
 49
6.3499999999999996
 74
0
 49
-6.3499999999999996
 74
0
  0
LTYPE
  5
3E
100
AcDbSymbolTableRecord
100
AcDbLinetypeTableRecord
  2
CENTER2
 70
0
  3
Center (.5x) ___ _ ___ _ ___ _ ___ _ ___ _ ___
 72
65
 73
4
 40
28.5749999999999993
 49
19.0500000000000007
 74
0
 49
-3.1749999999999998
 74
0
 49
3.1749999999999998
 74
0
 49
-3.1749999999999998
 74
0
  0
LTYPE
  5
3F
100
AcDbSymbolTableRecord
100
AcDbLinetypeTableRecord
  2
CENTERX2
 70
0
  3
Center (2x) ________  __  ________  __  _____
 72
65
 73
4
 40
101.5999999999999943
 49
63.5
 74
0
 49
-12.6999999999999993
 74
0
 49
12.6999999999999993
 74
0
 49
-12.6999999999999993
 74
0
  0
LTYPE
  5
40
100
AcDbSymbolTableRecord
100
AcDbLinetypeTableRecord
  2
BORDER
 70
0
  3
Border __ __ . __ __ . __ __ . __ __ . __ __ .
 72
65
 73
6
 40
44.4500000000000028
 49
12.6999999999999993
 74
0
 49
-6.3499999999999996
 74
0
 49
12.6999999999999993
 74
0
 49
-6.3499999999999996
 74
0
 49
0.0
 74
0
 49
-6.3499999999999996
 74
0
  0
LTYPE
  5
41
100
AcDbSymbolTableRecord
100
AcDbLinetypeTableRecord
  2
BORDER2
 70
0
  3
Border (.5x) __.__.__.__.__.__.__.__.__.__.__.
 72
65
 73
6
 40
22.2250000000000014
 49
6.3499999999999996
 74
0
 49
-3.1749999999999998
 74
0
 49
6.3499999999999996
 74
0
 49
-3.1749999999999998
 74
0
 49
0.0
 74
0
 49
-3.1749999999999998
 74
0
  0
LTYPE
  5
42
100
AcDbSymbolTableRecord
100
AcDbLinetypeTableRecord
  2
BORDERX2
 70
0
  3
Border (2x) ____  ____  .  ____  ____  .  ___
 72
65
 73
6
 40
88.9000000000000057
 49
25.3999999999999986
 74
0
 49
-12.6999999999999993
 74
0
 49
25.3999999999999986
 74
0
 49
-12.6999999999999993
 74
0
 49
0.0
 74
0
 49
-12.6999999999999993
 74
0
  0
ENDTAB
  0
TABLE
  2
LAYER
  5
2
100
AcDbSymbolTable
 70
3
  0
LAYER
  5
10
100
AcDbSymbolTableRecord
100
AcDbLayerTableRecord
  2
0
 70
0
 62
7
420
0
  6
CONTINUOUS
370
25
390
F
  0
LAYER
  5
43
100
AcDbSymbolTableRecord
100
AcDbLayerTableRecord
  2
build-platform
 70
0
 62
7
420
0
  6
CONTINUOUS
370
0
390
F
  0
LAYER
  5
44
100
AcDbSymbolTableRecord
100
AcDbLayerTableRecord
  2
text
 70
0
 62
4
420
65535
  6
CONTINUOUS
370
0
390
F
  0
ENDTAB
  0
TABLE
  2
STYLE
  5
3
100
AcDbSymbolTable
 70
1
  0
STYLE
  5
11
100
AcDbSymbolTableRecord
100
AcDbTextStyleTableRecord
  2
Standard
 70
0
 40
0.0
 41
0.75
 50
0.0
 71
0
 42
2.5
  3
txt
  4

  0
ENDTAB
  0
TABLE
  2
VIEW
  5
6
100
AcDbSymbolTable
 70
0
  0
ENDTAB
  0
TABLE
  2
UCS
  5
7
100
AcDbSymbolTable
 70
0
  0
ENDTAB
  0
TABLE
  2
APPID
  5
9
100
AcDbSymbolTable
 70
1
  0
APPID
  5
12
100
AcDbSymbolTableRecord
100
AcDbRegAppTableRecord
  2
ACAD
 70
0
  0
ENDTAB
  0
TABLE
  2
DIMSTYLE
  5
A
100
AcDbSymbolTable
 70
1
100
AcDbDimStyleTable
 71
0
  0
DIMSTYLE
105
27
100
AcDbSymbolTableRecord
100
AcDbDimStyleTableRecord
  2
Standard
 41
2.5
 42
0.625
 43
3.75
 44
1.25
 70
0
 73
0
 74
0
 77
1
 78
8
140
2.5
141
2.5
143
0.03937007874016
147
0.625
171
3
172
1
271
2
272
2
274
3
278
44
283
0
284
8
340
11
  0
ENDTAB
  0
TABLE
  2
BLOCK_RECORD
  5
1
100
AcDbSymbolTable
 70
1
  0
BLOCK_RECORD
  5
1F
100
AcDbSymbolTableRecord
100
AcDbBlockTableRecord
  2
*Model_Space
340
22
  0
BLOCK_RECORD
  5
1B
100
AcDbSymbolTableRecord
100
AcDbBlockTableRecord
  2
*Paper_Space
340
1E
  0
BLOCK_RECORD
  5
23
100
AcDbSymbolTableRecord
100
AcDbBlockTableRecord
  2
*Paper_Space0
340
26
  0
BLOCK_RECORD
  5
45
100
AcDbSymbolTableRecord
100
AcDbBlockTableRecord
  2
m3-t-slot
340
0
  0
BLOCK_RECORD
  5
46
100
AcDbSymbolTableRecord
100
AcDbBlockTableRecord
  2
pressfit-bearing
340
0
  0
BLOCK_RECORD
  5
47
100
AcDbSymbolTableRecord
100
AcDbBlockTableRecord
  2
m3-t-10mm-slot
340
0
  0
ENDTAB
  0
ENDSEC
  0
SECTION
  2
BLOCKS
  0
BLOCK
  5
20
100
AcDbEntity
  8
0
100
AcDbBlockBegin
  2
*Model_Space
 70
0
 10
0.0
 20
0.0
 30
0.0
  3
*Model_Space
  1

  0
ENDBLK
  5
21
100
AcDbEntity
  8
0
100
AcDbBlockEnd
  0
BLOCK
  5
1C
100
AcDbEntity
 67
1
  8
0
100
AcDbBlockBegin
  2
*Paper_Space
 70
0
 10
0.0
 20
0.0
 30
0.0
  3
*Paper_Space
  1

  0
ENDBLK
  5
1D
100
AcDbEntity
 67
1
  8
0
100
AcDbBlockEnd
  0
BLOCK
  5
24
100
AcDbEntity
  8
0
100
AcDbBlockBegin
  2
*Paper_Space0
 70
0
 10
0.0
 20
0.0
 30
0.0
  3
*Paper_Space0
  1

  0
ENDBLK
  5
25
100
AcDbEntity
  8
0
100
AcDbBlockEnd
  0
BLOCK
  5
48
100
AcDbEntity
  8
0
100
AcDbBlockBegin
  2
m3-t-slot
 70
0
 10
0.0
 20
0.0
 30
0.0
  3
m3-t-slot
  1

  0
ENDBLK
  5
49
100
AcDbEntity
  8
0
100
AcDbBlockEnd
  0
BLOCK
  5
4A
100
AcDbEntity
  8
0
100
AcDbBlockBegin
  2
pressfit-bearing
 70
0
 10
0.0
 20
0.0
 30
0.0
  3
pressfit-bearing
  1

  0
ENDBLK
  5
4B
100
AcDbEntity
  8
0
100
AcDbBlockEnd
  0
BLOCK
  5
4C
100
AcDbEntity
  8
0
100
AcDbBlockBegin
  2
m3-t-10mm-slot
 70
0
 10
0.0
 20
0.0
 30
0.0
  3
m3-t-10mm-slot
  1

  0
ENDBLK
  5
4D
100
AcDbEntity
  8
0
100
AcDbBlockEnd
  0
ENDSEC
  0
SECTION
  2
ENTITIES
  0
CIRCLE
  5
4E
100
AcDbEntity
100
AcDbCircle
  8
build-platform
 62
256
370
-1
  6
ByLayer
 10
41.0
 20
65.0
 30
0.0
 40
2.7000000000000002
  0
CIRCLE
  5
4F
100
AcDbEntity
100
AcDbCircle
  8
build-platform
 62
256
370
-1
  6
ByLayer
 10
56.0
 20
50.0
 30
0.0
 40
2.7000000000000002
  0
CIRCLE
  5
50
100
AcDbEntity
100
AcDbCircle
  8
build-platform
 62
256
370
-1
  6
ByLayer
 10
41.0
 20
35.0
 30
0.0
 40
2.7000000000000002
  0
LINE
  5
51
100
AcDbEntity
100
AcDbLine
  8
build-platform
 62
256
370
-1
  6
ByLayer
 10
25.5900000000000318
 20
53.9900000000000091
 30
0.0
 11
28.4099999999999682
 21
53.9900000000000091
 31
0.0
  0
LINE
  5
52
100
AcDbEntity
100
AcDbLine
  8
build-platform
 62
256
370
-1
  6
ByLayer
 10
28.4099999999999682
 20
53.9900000000000091
 30
0.0
 11
28.4099999999999682
 21
56.8100000000000023
 31
0.0
  0
LINE
  5
53
100
AcDbEntity
100
AcDbLine
  8
build-platform
 62
256
370
-1
  6
ByLayer
 10
28.4099999999999682
 20
56.8100000000000023
 30
0.0
 11
25.5900000000000318
 21
56.8100000000000023
 31
0.0
  0
LINE
  5
54
100
AcDbEntity
100
AcDbLine
  8
build-platform
 62
256
370
-1
  6
ByLayer
 10
25.5900000000000318
 20
56.8100000000000023
 30
0.0
 11
25.5900000000000318
 21
53.9900000000000091
 31
0.0
  0
LINE
  5
55
100
AcDbEntity
100
AcDbLine
  8
build-platform
 62
256
370
-1
  6
ByLayer
 10
25.5900000000000318
 20
43.1900000000000261
 30
0.0
 11
28.4099999999999682
 21
43.1900000000000261
 31
0.0
  0
LINE
  5
56
100
AcDbEntity
100
AcDbLine
  8
build-platform
 62
256
370
-1
  6
ByLayer
 10
28.4099999999999682
 20
43.1900000000000261
 30
0.0
 11
28.4099999999999682
 21
46.0100000000000193
 31
0.0
  0
LINE
  5
57
100
AcDbEntity
100
AcDbLine
  8
build-platform
 62
256
370
-1
  6
ByLayer
 10
28.4099999999999682
 20
46.0100000000000193
 30
0.0
 11
25.5900000000000318
 21
46.0100000000000193
 31
0.0
  0
LINE
  5
58
100
AcDbEntity
100
AcDbLine
  8
build-platform
 62
256
370
-1
  6
ByLayer
 10
25.5900000000000318
 20
46.0100000000000193
 30
0.0
 11
25.5900000000000318
 21
43.1900000000000261
 31
0.0
  0
LINE
  5
59
100
AcDbEntity
100
AcDbLine
  8
build-platform
 62
256
370
-1
  6
ByLayer
 10
39.5900000000000318
 20
48.5900000000000034
 30
0.0
 11
42.4099999999999682
 21
48.5900000000000034
 31
0.0
  0
LINE
  5
5A
100
AcDbEntity
100
AcDbLine
  8
build-platform
 62
256
370
-1
  6
ByLayer
 10
42.4099999999999682
 20
48.5900000000000034
 30
0.0
 11
42.4099999999999682
 21
51.4099999999999966
 31
0.0
  0
LINE
  5
5B
100
AcDbEntity
100
AcDbLine
  8
build-platform
 62
256
370
-1
  6
ByLayer
 10
42.4099999999999682
 20
51.4099999999999966
 30
0.0
 11
39.5900000000000318
 21
51.4099999999999966
 31
0.0
  0
LINE
  5
5C
100
AcDbEntity
100
AcDbLine
  8
build-platform
 62
256
370
-1
  6
ByLayer
 10
39.5900000000000318
 20
51.4099999999999966
 30
0.0
 11
39.5900000000000318
 21
48.5900000000000034
 31
0.0
  0
LINE
  5
5D
100
AcDbEntity
100
AcDbLine
  8
build-platform
 62
256
370
-1
  6
ByLayer
 10
71.5900000000000318
 20
53.9900000000000091
 30
0.0
 11
74.4099999999999682
 21
53.9900000000000091
 31
0.0
  0
LINE
  5
5E
100
AcDbEntity
100
AcDbLine
  8
build-platform
 62
256
370
-1
  6
ByLayer
 10
74.4099999999999682
 20
53.9900000000000091
 30
0.0
 11
74.4099999999999682
 21
56.8100000000000023
 31
0.0
  0
LINE
  5
5F
100
AcDbEntity
100
AcDbLine
  8
build-platform
 62
256
370
-1
  6
ByLayer
 10
74.4099999999999682
 20
56.8100000000000023
 30
0.0
 11
71.5900000000000318
 21
56.8100000000000023
 31
0.0
  0
LINE
  5
60
100
AcDbEntity
100
AcDbLine
  8
build-platform
 62
256
370
-1
  6
ByLayer
 10
71.5900000000000318
 20
56.8100000000000023
 30
0.0
 11
71.5900000000000318
 21
53.9900000000000091
 31
0.0
  0
LINE
  5
61
100
AcDbEntity
100
AcDbLine
  8
build-platform
 62
256
370
-1
  6
ByLayer
 10
71.5900000000000318
 20
43.1900000000000261
 30
0.0
 11
74.4099999999999682
 21
43.1900000000000261
 31
0.0
  0
LINE
  5
62
100
AcDbEntity
100
AcDbLine
  8
build-platform
 62
256
370
-1
  6
ByLayer
 10
74.4099999999999682
 20
43.1900000000000261
 30
0.0
 11
74.4099999999999682
 21
46.0100000000000193
 31
0.0
  0
LINE
  5
63
100
AcDbEntity
100
AcDbLine
  8
build-platform
 62
256
370
-1
  6
ByLayer
 10
74.4099999999999682
 20
46.0100000000000193
 30
0.0
 11
71.5900000000000318
 21
46.0100000000000193
 31
0.0
  0
LINE
  5
64
100
AcDbEntity
100
AcDbLine
  8
build-platform
 62
256
370
-1
  6
ByLayer
 10
71.5900000000000318
 20
46.0100000000000193
 30
0.0
 11
71.5900000000000318
 21
43.1900000000000261
 31
0.0
  0
LINE
  5
65
100
AcDbEntity
100
AcDbLine
  8
text
 62
256
370
-1
  6
ByLayer
 10
35.5555555555555429
 20
85.0
 30
0.0
 11
35.5555555555555429
 21
95.0
 31
0.0
  0
LINE
  5
66
100
AcDbEntity
100
AcDbLine
  8
text
 62
256
370
-1
  6
ByLayer
 10
35.5555555555555429
 20
95.0
 30
0.0
 11
38.3333333333333144
 21
95.0
 31
0.0
  0
ARC
  5
67
100
AcDbEntity
  8
text
 62
256
370
-1
  6
ByLayer
100
AcDbCircle
 10
38.3333333333333144
 20
92.7777777777777715
 30
0.0
 40
2.2222222222222223
100
AcDbArc
 50
270.0
 51
90.0
  0
LINE
  5
68
100
AcDbEntity
100
AcDbLine
  8
text
 62
256
370
-1
  6
ByLayer
 10
35.5555555555555429
 20
90.5555555555555429
 30
0.0
 11
38.4444444444444571
 21
90.5555555555555429
 31
0.0
  0
ARC
  5
69
100
AcDbEntity
  8
text
 62
256
370
-1
  6
ByLayer
100
AcDbCircle
 10
38.4444444444444571
 20
87.8888888888888857
 30
0.0
 40
2.6666666666666665
100
AcDbArc
 50
0.0
 51
90.0
  0
LINE
  5
6A
100
AcDbEntity
100
AcDbLine
  8
text
 62
256
370
-1
  6
ByLayer
 10
41.1111111111110858
 20
87.8888888888888857
 30
0.0
 11
41.1111111111110858
 21
87.6666666666666856
 31
0.0
  0
ARC
  5
6B
100
AcDbEntity
  8
text
 62
256
370
-1
  6
ByLayer
100
AcDbCircle
 10
38.4444444444444571
 20
87.6666666666666856
 30
0.0
 40
2.6666666666666665
100
AcDbArc
 50
270.0
 51
0.0
  0
LINE
  5
6C
100
AcDbEntity
100
AcDbLine
  8
text
 62
256
370
-1
  6
ByLayer
 10
38.4444444444444571
 20
85.0
 30
0.0
 11
35.5555555555555429
 21
85.0
 31
0.0
  0
LINE
  5
6D
100
AcDbEntity
100
AcDbLine
  8
text
 62
256
370
-1
  6
ByLayer
 10
44.4444444444444571
 20
91.6666666666666856
 30
0.0
 11
44.4444444444444571
 21
86.6666666666666856
 31
0.0
  0
ARC
  5
6E
100
AcDbEntity
  8
text
 62
256
370
-1
  6
ByLayer
100
AcDbCircle
 10
46.1111111111111427
 20
86.6666666666666856
 30
0.0
 40
1.6666666666666667
100
AcDbArc
 50
180.0
 51
270.0
  0
LINE
  5
6F
100
AcDbEntity
100
AcDbLine
  8
text
 62
256
370
-1
  6
ByLayer
 10
46.1111111111111427
 20
85.0
 30
0.0
 11
48.8888888888889142
 21
85.0
 31
0.0
  0
LINE
  5
70
100
AcDbEntity
100
AcDbLine
  8
text
 62
256
370
-1
  6
ByLayer
 10
48.8888888888889142
 20
85.0
 30
0.0
 11
48.8888888888889142
 21
91.6666666666666856
 31
0.0
  0
LINE
  5
71
100
AcDbEntity
100
AcDbLine
  8
text
 62
256
370
-1
  6
ByLayer
 10
52.2222222222222285
 20
85.0
 30
0.0
 11
52.2222222222222285
 21
91.6666666666666856
 31
0.0
  0
LINE
  5
72
100
AcDbEntity
100
AcDbLine
  8
text
 62
256
370
-1
  6
ByLayer
 10
52.2222222222222285
 20
94.4444444444444571
 30
0.0
 11
52.2222222222222285
 21
95.0
 31
0.0
  0
LINE
  5
73
100
AcDbEntity
100
AcDbLine
  8
text
 62
256
370
-1
  6
ByLayer
 10
55.5555555555555429
 20
95.0
 30
0.0
 11
55.5555555555555429
 21
86.1111111111111143
 31
0.0
  0
ARC
  5
74
100
AcDbEntity
  8
text
 62
256
370
-1
  6
ByLayer
100
AcDbCircle
 10
56.6666666666666288
 20
86.1111111111111143
 30
0.0
 40
1.1111111111111112
100
AcDbArc
 50
180.0
 51
270.0
  0
LINE
  5
75
100
AcDbEntity
100
AcDbLine
  8
text
 62
256
370
-1
  6
ByLayer
 10
64.4444444444444571
 20
95.0
 30
0.0
 11
64.4444444444444571
 21
85.0
 31
0.0
  0
LINE
  5
76
100
AcDbEntity
100
AcDbLine
  8
text
 62
256
370
-1
  6
ByLayer
 10
64.4444444444444571
 20
85.0
 30
0.0
 11
61.6666666666666856
 21
85.0
 31
0.0
  0
ARC
  5
77
100
AcDbEntity
  8
text
 62
256
370
-1
  6
ByLayer
100
AcDbCircle
 10
61.6666666666666856
 20
86.6666666666666856
 30
0.0
 40
1.6666666666666667
100
AcDbArc
 50
180.0
 51
270.0
  0
LINE
  5
78
100
AcDbEntity
100
AcDbLine
  8
text
 62
256
370
-1
  6
ByLayer
 10
60.0
 20
86.6666666666666856
 30
0.0
 11
60.0
 21
90.0
 31
0.0
  0
ARC
  5
79
100
AcDbEntity
  8
text
 62
256
370
-1
  6
ByLayer
100
AcDbCircle
 10
61.6666666666666856
 20
90.0
 30
0.0
 40
1.6666666666666667
100
AcDbArc
 50
90.0
 51
180.0
  0
LINE
  5
7A
100
AcDbEntity
100
AcDbLine
  8
text
 62
256
370
-1
  6
ByLayer
 10
61.6666666666666856
 20
91.6666666666666856
 30
0.0
 11
64.4444444444444571
 21
91.6666666666666856
 31
0.0
  0
LINE
  5
7B
100
AcDbEntity
100
AcDbLine
  8
text
 62
256
370
-1
  6
ByLayer
 10
22.2222222222222285
 20
5.0000000000000142
 30
0.0
 11
22.2222222222222285
 21
15.0000000000000142
 31
0.0
  0
LINE
  5
7C
100
AcDbEntity
100
AcDbLine
  8
text
 62
256
370
-1
  6
ByLayer
 10
22.2222222222222285
 20
15.0000000000000142
 30
0.0
 11
25.5555555555555429
 21
15.0000000000000142
 31
0.0
  0
ARC
  5
7D
100
AcDbEntity
  8
text
 62
256
370
-1
  6
ByLayer
100
AcDbCircle
 10
25.5555555555555429
 20
12.7777777777777999
 30
0.0
 40
2.2222222222222223
100
AcDbArc
 50
0.0
 51
90.0
  0
LINE
  5
7E
100
AcDbEntity
100
AcDbLine
  8
text
 62
256
370
-1
  6
ByLayer
 10
27.7777777777777715
 20
12.7777777777777999
 30
0.0
 11
27.7777777777777715
 21
11.6666666666666856
 31
0.0
  0
ARC
  5
7F
100
AcDbEntity
  8
text
 62
256
370
-1
  6
ByLayer
100
AcDbCircle
 10
25.5555555555555429
 20
11.6666666666666856
 30
0.0
 40
2.2222222222222223
100
AcDbArc
 50
270.0
 51
0.0
  0
LINE
  5
80
100
AcDbEntity
100
AcDbLine
  8
text
 62
256
370
-1
  6
ByLayer
 10
25.5555555555555429
 20
9.4444444444444571
 30
0.0
 11
22.2222222222222285
 21
9.4444444444444571
 31
0.0
  0
LINE
  5
81
100
AcDbEntity
100
AcDbLine
  8
text
 62
256
370
-1
  6
ByLayer
 10
31.1111111111110858
 20
15.0
 30
0.0
 11
31.1111111111110858
 21
6.1111111111111143
 31
0.0
  0
ARC
  5
82
100
AcDbEntity
  8
text
 62
256
370
-1
  6
ByLayer
100
AcDbCircle
 10
32.2222222222221717
 20
6.1111111111111143
 30
0.0
 40
1.1111111111111112
100
AcDbArc
 50
180.0
 51
270.0
  0
LINE
  5
83
100
AcDbEntity
100
AcDbLine
  8
text
 62
256
370
-1
  6
ByLayer
 10
36.1111111111110858
 20
11.6666666666666572
 30
0.0
 11
38.3333333333333144
 21
11.6666666666666572
 31
0.0
  0
ARC
  5
84
100
AcDbEntity
  8
text
 62
256
370
-1
  6
ByLayer
100
AcDbCircle
 10
38.3333333333333144
 20
10.0
 30
0.0
 40
1.6666666666666667
100
AcDbArc
 50
0.0
 51
90.0
  0
LINE
  5
85
100
AcDbEntity
100
AcDbLine
  8
text
 62
256
370
-1
  6
ByLayer
 10
40.0
 20
10.0
 30
0.0
 11
40.0
 21
5.0
 31
0.0
  0
LINE
  5
86
100
AcDbEntity
100
AcDbLine
  8
text
 62
256
370
-1
  6
ByLayer
 10
40.0
 20
5.0
 30
0.0
 11
37.2222222222222285
 21
5.0
 31
0.0
  0
ARC
  5
87
100
AcDbEntity
  8
text
 62
256
370
-1
  6
ByLayer
100
AcDbCircle
 10
37.2222222222222285
 20
6.6666666666666572
 30
0.0
 40
1.6666666666666667
100
AcDbArc
 50
90.0
 51
270.0
  0
LINE
  5
88
100
AcDbEntity
100
AcDbLine
  8
text
 62
256
370
-1
  6
ByLayer
 10
37.2222222222222285
 20
8.3333333333333286
 30
0.0
 11
40.0
 21
8.3333333333333286
 31
0.0
  0
LINE
  5
89
100
AcDbEntity
100
AcDbLine
  8
text
 62
256
370
-1
  6
ByLayer
 10
43.3333333333333144
 20
11.6666666666666714
 30
0.0
 11
46.6666666666666288
 21
11.6666666666666714
 31
0.0
  0
LINE
  5
8A
100
AcDbEntity
100
AcDbLine
  8
text
 62
256
370
-1
  6
ByLayer
 10
44.4444444444444002
 20
15.0
 30
0.0
 11
44.4444444444444002
 21
5.0
 31
0.0
  0
LINE
  5
8B
100
AcDbEntity
100
AcDbLine
  8
text
 62
256
370
-1
  6
ByLayer
 10
51.1111111111110858
 20
5.0
 30
0.0
 11
51.1111111111110858
 21
13.3333333333333286
 31
0.0
  0
ARC
  5
8C
100
AcDbEntity
  8
text
 62
256
370
-1
  6
ByLayer
100
AcDbCircle
 10
52.7777777777777715
 20
13.3333333333333286
 30
0.0
 40
1.6666666666666667
100
AcDbArc
 50
90.0
 51
180.0
  0
LINE
  5
8D
100
AcDbEntity
100
AcDbLine
  8
text
 62
256
370
-1
  6
ByLayer
 10
52.7777777777777715
 20
15.0
 30
0.0
 11
53.3333333333333144
 21
15.0
 31
0.0
  0
LINE
  5
8E
100
AcDbEntity
100
AcDbLine
  8
text
 62
256
370
-1
  6
ByLayer
 10
50.0
 20
11.6666666666666714
 30
0.0
 11
53.3333333333333144
 21
11.6666666666666714
 31
0.0
  0
LINE
  5
8F
100
AcDbEntity
100
AcDbLine
  8
text
 62
256
370
-1
  6
ByLayer
 10
56.6666666666666856
 20
9.4444444444444429
 30
0.0
 11
56.6666666666666856
 21
7.2222222222222285
 31
0.0
  0
ARC
  5
90
100
AcDbEntity
  8
text
 62
256
370
-1
  6
ByLayer
100
AcDbCircle
 10
58.8888888888889142
 20
7.2222222222222285
 30
0.0
 40
2.2222222222222223
100
AcDbArc
 50
180.0
 51
0.0
  0
LINE
  5
91
100
AcDbEntity
100
AcDbLine
  8
text
 62
256
370
-1
  6
ByLayer
 10
61.1111111111111427
 20
7.2222222222222285
 30
0.0
 11
61.1111111111111427
 21
9.4444444444444429
 31
0.0
  0
ARC
  5
92
100
AcDbEntity
  8
text
 62
256
370
-1
  6
ByLayer
100
AcDbCircle
 10
58.8888888888889142
 20
9.4444444444444429
 30
0.0
 40
2.2222222222222223
100
AcDbArc
 50
0.0
 51
180.0
  0
LINE
  5
93
100
AcDbEntity
100
AcDbLine
  8
text
 62
256
370
-1
  6
ByLayer
 10
64.4444444444444571
 20
4.9999999999999858
 30
0.0
 11
64.4444444444444571
 21
11.6666666666666572
 31
0.0
  0
LINE
  5
94
100
AcDbEntity
100
AcDbLine
  8
text
 62
256
370
-1
  6
ByLayer
 10
64.4444444444444571
 20
11.6666666666666572
 30
0.0
 11
66.6666666666666856
 21
11.6666666666666572
 31
0.0
  0
ARC
  5
95
100
AcDbEntity
  8
text
 62
256
370
-1
  6
ByLayer
100
AcDbCircle
 10
66.6666666666666856
 20
10.5555555555555429
 30
0.0
 40
1.1111111111111112
100
AcDbArc
 50
0.0
 51
90.0
  0
LINE
  5
96
100
AcDbEntity
100
AcDbLine
  8
text
 62
256
370
-1
  6
ByLayer
 10
71.1111111111110858
 20
5.0
 30
0.0
 11
71.1111111111110858
 21
11.6666666666666714
 31
0.0
  0
LINE
  5
97
100
AcDbEntity
100
AcDbLine
  8
text
 62
256
370
-1
  6
ByLayer
 10
71.1111111111110858
 20
11.6666666666666714
 30
0.0
 11
76.1111111111110858
 21
11.6666666666666714
 31
0.0
  0
ARC
  5
98
100
AcDbEntity
  8
text
 62
256
370
-1
  6
ByLayer
100
AcDbCircle
 10
76.1111111111110858
 20
10.0
 30
0.0
 40
1.6666666666666667
100
AcDbArc
 50
0.0
 51
90.0
  0
LINE
  5
99
100
AcDbEntity
100
AcDbLine
  8
text
 62
256
370
-1
  6
ByLayer
 10
77.7777777777777715
 20
10.0
 30
0.0
 11
77.7777777777777715
 21
5.0
 31
0.0
  0
LINE
  5
9A
100
AcDbEntity
100
AcDbLine
  8
text
 62
256
370
-1
  6
ByLayer
 10
74.4444444444444002
 20
11.6666666666666714
 30
0.0
 11
74.4444444444444002
 21
5.0
 31
0.0
  0
CIRCLE
  5
9B
100
AcDbEntity
100
AcDbCircle
  8
build-platform
 62
256
370
-1
  6
ByLayer
 10
141.0
 20
65.0
 30
0.0
 40
2.7000000000000002
  0
CIRCLE
  5
9C
100
AcDbEntity
100
AcDbCircle
  8
build-platform
 62
256
370
-1
  6
ByLayer
 10
156.0
 20
50.0
 30
0.0
 40
2.7000000000000002
  0
CIRCLE
  5
9D
100
AcDbEntity
100
AcDbCircle
  8
build-platform
 62
256
370
-1
  6
ByLayer
 10
141.0
 20
35.0
 30
0.0
 40
2.7000000000000002
  0
LINE
  5
9E
100
AcDbEntity
100
AcDbLine
  8
build-platform
 62
256
370
-1
  6
ByLayer
 10
125.5900000000000318
 20
53.9900000000000091
 30
0.0
 11
128.4099999999999682
 21
53.9900000000000091
 31
0.0
  0
LINE
  5
9F
100
AcDbEntity
100
AcDbLine
  8
build-platform
 62
256
370
-1
  6
ByLayer
 10
128.4099999999999682
 20
53.9900000000000091
 30
0.0
 11
128.4099999999999682
 21
56.8100000000000023
 31
0.0
  0
LINE
  5
A0
100
AcDbEntity
100
AcDbLine
  8
build-platform
 62
256
370
-1
  6
ByLayer
 10
128.4099999999999682
 20
56.8100000000000023
 30
0.0
 11
125.5900000000000318
 21
56.8100000000000023
 31
0.0
  0
LINE
  5
A1
100
AcDbEntity
100
AcDbLine
  8
build-platform
 62
256
370
-1
  6
ByLayer
 10
125.5900000000000318
 20
56.8100000000000023
 30
0.0
 11
125.5900000000000318
 21
53.9900000000000091
 31
0.0
  0
LINE
  5
A2
100
AcDbEntity
100
AcDbLine
  8
build-platform
 62
256
370
-1
  6
ByLayer
 10
125.5900000000000318
 20
43.1900000000000261
 30
0.0
 11
128.4099999999999682
 21
43.1900000000000261
 31
0.0
  0
LINE
  5
A3
100
AcDbEntity
100
AcDbLine
  8
build-platform
 62
256
370
-1
  6
ByLayer
 10
128.4099999999999682
 20
43.1900000000000261
 30
0.0
 11
128.4099999999999682
 21
46.0100000000000193
 31
0.0
  0
LINE
  5
A4
100
AcDbEntity
100
AcDbLine
  8
build-platform
 62
256
370
-1
  6
ByLayer
 10
128.4099999999999682
 20
46.0100000000000193
 30
0.0
 11
125.5900000000000318
 21
46.0100000000000193
 31
0.0
  0
LINE
  5
A5
100
AcDbEntity
100
AcDbLine
  8
build-platform
 62
256
370
-1
  6
ByLayer
 10
125.5900000000000318
 20
46.0100000000000193
 30
0.0
 11
125.5900000000000318
 21
43.1900000000000261
 31
0.0
  0
LINE
  5
A6
100
AcDbEntity
100
AcDbLine
  8
build-platform
 62
256
370
-1
  6
ByLayer
 10
139.5900000000000318
 20
48.5900000000000034
 30
0.0
 11
142.4099999999999682
 21
48.5900000000000034
 31
0.0
  0
LINE
  5
A7
100
AcDbEntity
100
AcDbLine
  8
build-platform
 62
256
370
-1
  6
ByLayer
 10
142.4099999999999682
 20
48.5900000000000034
 30
0.0
 11
142.4099999999999682
 21
51.4099999999999966
 31
0.0
  0
LINE
  5
A8
100
AcDbEntity
100
AcDbLine
  8
build-platform
 62
256
370
-1
  6
ByLayer
 10
142.4099999999999682
 20
51.4099999999999966
 30
0.0
 11
139.5900000000000318
 21
51.4099999999999966
 31
0.0
  0
LINE
  5
A9
100
AcDbEntity
100
AcDbLine
  8
build-platform
 62
256
370
-1
  6
ByLayer
 10
139.5900000000000318
 20
51.4099999999999966
 30
0.0
 11
139.5900000000000318
 21
48.5900000000000034
 31
0.0
  0
LINE
  5
AA
100
AcDbEntity
100
AcDbLine
  8
build-platform
 62
256
370
-1
  6
ByLayer
 10
171.5900000000000318
 20
53.9900000000000091
 30
0.0
 11
174.4099999999999682
 21
53.9900000000000091
 31
0.0
  0
LINE
  5
AB
100
AcDbEntity
100
AcDbLine
  8
build-platform
 62
256
370
-1
  6
ByLayer
 10
174.4099999999999682
 20
53.9900000000000091
 30
0.0
 11
174.4099999999999682
 21
56.8100000000000023
 31
0.0
  0
LINE
  5
AC
100
AcDbEntity
100
AcDbLine
  8
build-platform
 62
256
370
-1
  6
ByLayer
 10
174.4099999999999682
 20
56.8100000000000023
 30
0.0
 11
171.5900000000000318
 21
56.8100000000000023
 31
0.0
  0
LINE
  5
AD
100
AcDbEntity
100
AcDbLine
  8
build-platform
 62
256
370
-1
  6
ByLayer
 10
171.5900000000000318
 20
56.8100000000000023
 30
0.0
 11
171.5900000000000318
 21
53.9900000000000091
 31
0.0
  0
LINE
  5
AE
100
AcDbEntity
100
AcDbLine
  8
build-platform
 62
256
370
-1
  6
ByLayer
 10
171.5900000000000318
 20
43.1900000000000261
 30
0.0
 11
174.4099999999999682
 21
43.1900000000000261
 31
0.0
  0
LINE
  5
AF
100
AcDbEntity
100
AcDbLine
  8
build-platform
 62
256
370
-1
  6
ByLayer
 10
174.4099999999999682
 20
43.1900000000000261
 30
0.0
 11
174.4099999999999682
 21
46.0100000000000193
 31
0.0
  0
LINE
  5
B0
100
AcDbEntity
100
AcDbLine
  8
build-platform
 62
256
370
-1
  6
ByLayer
 10
174.4099999999999682
 20
46.0100000000000193
 30
0.0
 11
171.5900000000000318
 21
46.0100000000000193
 31
0.0
  0
LINE
  5
B1
100
AcDbEntity
100
AcDbLine
  8
build-platform
 62
256
370
-1
  6
ByLayer
 10
171.5900000000000318
 20
46.0100000000000193
 30
0.0
 11
171.5900000000000318
 21
43.1900000000000261
 31
0.0
  0
LINE
  5
B2
100
AcDbEntity
100
AcDbLine
  8
text
 62
256
370
-1
  6
ByLayer
 10
135.5555555555555429
 20
85.0
 30
0.0
 11
135.5555555555555429
 21
95.0
 31
0.0
  0
LINE
  5
B3
100
AcDbEntity
100
AcDbLine
  8
text
 62
256
370
-1
  6
ByLayer
 10
135.5555555555555429
 20
95.0
 30
0.0
 11
138.3333333333333144
 21
95.0
 31
0.0
  0
ARC
  5
B4
100
AcDbEntity
  8
text
 62
256
370
-1
  6
ByLayer
100
AcDbCircle
 10
138.3333333333333144
 20
92.7777777777777715
 30
0.0
 40
2.2222222222222223
100
AcDbArc
 50
270.0
 51
90.0
  0
LINE
  5
B5
100
AcDbEntity
100
AcDbLine
  8
text
 62
256
370
-1
  6
ByLayer
 10
135.5555555555555429
 20
90.5555555555555429
 30
0.0
 11
138.4444444444444571
 21
90.5555555555555429
 31
0.0
  0
ARC
  5
B6
100
AcDbEntity
  8
text
 62
256
370
-1
  6
ByLayer
100
AcDbCircle
 10
138.4444444444444571
 20
87.8888888888888857
 30
0.0
 40
2.6666666666666665
100
AcDbArc
 50
0.0
 51
90.0
  0
LINE
  5
B7
100
AcDbEntity
100
AcDbLine
  8
text
 62
256
370
-1
  6
ByLayer
 10
141.1111111111110858
 20
87.8888888888888857
 30
0.0
 11
141.1111111111110858
 21
87.6666666666666856
 31
0.0
  0
ARC
  5
B8
100
AcDbEntity
  8
text
 62
256
370
-1
  6
ByLayer
100
AcDbCircle
 10
138.4444444444444571
 20
87.6666666666666856
 30
0.0
 40
2.6666666666666665
100
AcDbArc
 50
270.0
 51
0.0
  0
LINE
  5
B9
100
AcDbEntity
100
AcDbLine
  8
text
 62
256
370
-1
  6
ByLayer
 10
138.4444444444444571
 20
85.0
 30
0.0
 11
135.5555555555555429
 21
85.0
 31
0.0
  0
LINE
  5
BA
100
AcDbEntity
100
AcDbLine
  8
text
 62
256
370
-1
  6
ByLayer
 10
144.4444444444444571
 20
91.6666666666666856
 30
0.0
 11
144.4444444444444571
 21
86.6666666666666856
 31
0.0
  0
ARC
  5
BB
100
AcDbEntity
  8
text
 62
256
370
-1
  6
ByLayer
100
AcDbCircle
 10
146.1111111111111427
 20
86.6666666666666856
 30
0.0
 40
1.6666666666666667
100
AcDbArc
 50
180.0
 51
270.0
  0
LINE
  5
BC
100
AcDbEntity
100
AcDbLine
  8
text
 62
256
370
-1
  6
ByLayer
 10
146.1111111111111427
 20
85.0
 30
0.0
 11
148.8888888888889142
 21
85.0
 31
0.0
  0
LINE
  5
BD
100
AcDbEntity
100
AcDbLine
  8
text
 62
256
370
-1
  6
ByLayer
 10
148.8888888888889142
 20
85.0
 30
0.0
 11
148.8888888888889142
 21
91.6666666666666856
 31
0.0
  0
LINE
  5
BE
100
AcDbEntity
100
AcDbLine
  8
text
 62
256
370
-1
  6
ByLayer
 10
152.2222222222222285
 20
85.0
 30
0.0
 11
152.2222222222222285
 21
91.6666666666666856
 31
0.0
  0
LINE
  5
BF
100
AcDbEntity
100
AcDbLine
  8
text
 62
256
370
-1
  6
ByLayer
 10
152.2222222222222285
 20
94.4444444444444571
 30
0.0
 11
152.2222222222222285
 21
95.0
 31
0.0
  0
LINE
  5
C0
100
AcDbEntity
100
AcDbLine
  8
text
 62
256
370
-1
  6
ByLayer
 10
155.5555555555555429
 20
95.0
 30
0.0
 11
155.5555555555555429
 21
86.1111111111111143
 31
0.0
  0
ARC
  5
C1
100
AcDbEntity
  8
text
 62
256
370
-1
  6
ByLayer
100
AcDbCircle
 10
156.6666666666666288
 20
86.1111111111111143
 30
0.0
 40
1.1111111111111112
100
AcDbArc
 50
180.0
 51
270.0
  0
LINE
  5
C2
100
AcDbEntity
100
AcDbLine
  8
text
 62
256
370
-1
  6
ByLayer
 10
164.4444444444444571
 20
95.0
 30
0.0
 11
164.4444444444444571
 21
85.0
 31
0.0
  0
LINE
  5
C3
100
AcDbEntity
100
AcDbLine
  8
text
 62
256
370
-1
  6
ByLayer
 10
164.4444444444444571
 20
85.0
 30
0.0
 11
161.6666666666666856
 21
85.0
 31
0.0
  0
ARC
  5
C4
100
AcDbEntity
  8
text
 62
256
370
-1
  6
ByLayer
100
AcDbCircle
 10
161.6666666666666856
 20
86.6666666666666856
 30
0.0
 40
1.6666666666666667
100
AcDbArc
 50
180.0
 51
270.0
  0
LINE
  5
C5
100
AcDbEntity
100
AcDbLine
  8
text
 62
256
370
-1
  6
ByLayer
 10
160.0
 20
86.6666666666666856
 30
0.0
 11
160.0
 21
90.0
 31
0.0
  0
ARC
  5
C6
100
AcDbEntity
  8
text
 62
256
370
-1
  6
ByLayer
100
AcDbCircle
 10
161.6666666666666856
 20
90.0
 30
0.0
 40
1.6666666666666667
100
AcDbArc
 50
90.0
 51
180.0
  0
LINE
  5
C7
100
AcDbEntity
100
AcDbLine
  8
text
 62
256
370
-1
  6
ByLayer
 10
161.6666666666666856
 20
91.6666666666666856
 30
0.0
 11
164.4444444444444571
 21
91.6666666666666856
 31
0.0
  0
LINE
  5
C8
100
AcDbEntity
100
AcDbLine
  8
text
 62
256
370
-1
  6
ByLayer
 10
122.2222222222222285
 20
5.0000000000000142
 30
0.0
 11
122.2222222222222285
 21
15.0000000000000142
 31
0.0
  0
LINE
  5
C9
100
AcDbEntity
100
AcDbLine
  8
text
 62
256
370
-1
  6
ByLayer
 10
122.2222222222222285
 20
15.0000000000000142
 30
0.0
 11
125.5555555555555429
 21
15.0000000000000142
 31
0.0
  0
ARC
  5
CA
100
AcDbEntity
  8
text
 62
256
370
-1
  6
ByLayer
100
AcDbCircle
 10
125.5555555555555429
 20
12.7777777777777999
 30
0.0
 40
2.2222222222222223
100
AcDbArc
 50
0.0
 51
90.0
  0
LINE
  5
CB
100
AcDbEntity
100
AcDbLine
  8
text
 62
256
370
-1
  6
ByLayer
 10
127.7777777777777715
 20
12.7777777777777999
 30
0.0
 11
127.7777777777777715
 21
11.6666666666666856
 31
0.0
  0
ARC
  5
CC
100
AcDbEntity
  8
text
 62
256
370
-1
  6
ByLayer
100
AcDbCircle
 10
125.5555555555555429
 20
11.6666666666666856
 30
0.0
 40
2.2222222222222223
100
AcDbArc
 50
270.0
 51
0.0
  0
LINE
  5
CD
100
AcDbEntity
100
AcDbLine
  8
text
 62
256
370
-1
  6
ByLayer
 10
125.5555555555555429
 20
9.4444444444444571
 30
0.0
 11
122.2222222222222285
 21
9.4444444444444571
 31
0.0
  0
LINE
  5
CE
100
AcDbEntity
100
AcDbLine
  8
text
 62
256
370
-1
  6
ByLayer
 10
131.1111111111110858
 20
15.0
 30
0.0
 11
131.1111111111110858
 21
6.1111111111111143
 31
0.0
  0
ARC
  5
CF
100
AcDbEntity
  8
text
 62
256
370
-1
  6
ByLayer
100
AcDbCircle
 10
132.2222222222221717
 20
6.1111111111111143
 30
0.0
 40
1.1111111111111112
100
AcDbArc
 50
180.0
 51
270.0
  0
LINE
  5
D0
100
AcDbEntity
100
AcDbLine
  8
text
 62
256
370
-1
  6
ByLayer
 10
136.1111111111110858
 20
11.6666666666666572
 30
0.0
 11
138.3333333333333144
 21
11.6666666666666572
 31
0.0
  0
ARC
  5
D1
100
AcDbEntity
  8
text
 62
256
370
-1
  6
ByLayer
100
AcDbCircle
 10
138.3333333333333144
 20
10.0
 30
0.0
 40
1.6666666666666667
100
AcDbArc
 50
0.0
 51
90.0
  0
LINE
  5
D2
100
AcDbEntity
100
AcDbLine
  8
text
 62
256
370
-1
  6
ByLayer
 10
140.0
 20
10.0
 30
0.0
 11
140.0
 21
5.0
 31
0.0
  0
LINE
  5
D3
100
AcDbEntity
100
AcDbLine
  8
text
 62
256
370
-1
  6
ByLayer
 10
140.0
 20
5.0
 30
0.0
 11
137.2222222222222285
 21
5.0
 31
0.0
  0
ARC
  5
D4
100
AcDbEntity
  8
text
 62
256
370
-1
  6
ByLayer
100
AcDbCircle
 10
137.2222222222222285
 20
6.6666666666666572
 30
0.0
 40
1.6666666666666667
100
AcDbArc
 50
90.0
 51
270.0
  0
LINE
  5
D5
100
AcDbEntity
100
AcDbLine
  8
text
 62
256
370
-1
  6
ByLayer
 10
137.2222222222222285
 20
8.3333333333333286
 30
0.0
 11
140.0
 21
8.3333333333333286
 31
0.0
  0
LINE
  5
D6
100
AcDbEntity
100
AcDbLine
  8
text
 62
256
370
-1
  6
ByLayer
 10
143.3333333333333144
 20
11.6666666666666714
 30
0.0
 11
146.6666666666666288
 21
11.6666666666666714
 31
0.0
  0
LINE
  5
D7
100
AcDbEntity
100
AcDbLine
  8
text
 62
256
370
-1
  6
ByLayer
 10
144.4444444444444002
 20
15.0
 30
0.0
 11
144.4444444444444002
 21
5.0
 31
0.0
  0
LINE
  5
D8
100
AcDbEntity
100
AcDbLine
  8
text
 62
256
370
-1
  6
ByLayer
 10
151.1111111111110858
 20
5.0
 30
0.0
 11
151.1111111111110858
 21
13.3333333333333286
 31
0.0
  0
ARC
  5
D9
100
AcDbEntity
  8
text
 62
256
370
-1
  6
ByLayer
100
AcDbCircle
 10
152.7777777777777715
 20
13.3333333333333286
 30
0.0
 40
1.6666666666666667
100
AcDbArc
 50
90.0
 51
180.0
  0
LINE
  5
DA
100
AcDbEntity
100
AcDbLine
  8
text
 62
256
370
-1
  6
ByLayer
 10
152.7777777777777715
 20
15.0
 30
0.0
 11
153.3333333333333144
 21
15.0
 31
0.0
  0
LINE
  5
DB
100
AcDbEntity
100
AcDbLine
  8
text
 62
256
370
-1
  6
ByLayer
 10
150.0
 20
11.6666666666666714
 30
0.0
 11
153.3333333333333144
 21
11.6666666666666714
 31
0.0
  0
LINE
  5
DC
100
AcDbEntity
100
AcDbLine
  8
text
 62
256
370
-1
  6
ByLayer
 10
156.6666666666666856
 20
9.4444444444444429
 30
0.0
 11
156.6666666666666856
 21
7.2222222222222285
 31
0.0
  0
ARC
  5
DD
100
AcDbEntity
  8
text
 62
256
370
-1
  6
ByLayer
100
AcDbCircle
 10
158.8888888888889142
 20
7.2222222222222285
 30
0.0
 40
2.2222222222222223
100
AcDbArc
 50
180.0
 51
0.0
  0
LINE
  5
DE
100
AcDbEntity
100
AcDbLine
  8
text
 62
256
370
-1
  6
ByLayer
 10
161.1111111111111427
 20
7.2222222222222285
 30
0.0
 11
161.1111111111111427
 21
9.4444444444444429
 31
0.0
  0
ARC
  5
DF
100
AcDbEntity
  8
text
 62
256
370
-1
  6
ByLayer
100
AcDbCircle
 10
158.8888888888889142
 20
9.4444444444444429
 30
0.0
 40
2.2222222222222223
100
AcDbArc
 50
0.0
 51
180.0
  0
LINE
  5
E0
100
AcDbEntity
100
AcDbLine
  8
text
 62
256
370
-1
  6
ByLayer
 10
164.4444444444444571
 20
4.9999999999999858
 30
0.0
 11
164.4444444444444571
 21
11.6666666666666572
 31
0.0
  0
LINE
  5
E1
100
AcDbEntity
100
AcDbLine
  8
text
 62
256
370
-1
  6
ByLayer
 10
164.4444444444444571
 20
11.6666666666666572
 30
0.0
 11
166.6666666666666856
 21
11.6666666666666572
 31
0.0
  0
ARC
  5
E2
100
AcDbEntity
  8
text
 62
256
370
-1
  6
ByLayer
100
AcDbCircle
 10
166.6666666666666856
 20
10.5555555555555429
 30
0.0
 40
1.1111111111111112
100
AcDbArc
 50
0.0
 51
90.0
  0
LINE
  5
E3
100
AcDbEntity
100
AcDbLine
  8
text
 62
256
370
-1
  6
ByLayer
 10
171.1111111111110858
 20
5.0
 30
0.0
 11
171.1111111111110858
 21
11.6666666666666714
 31
0.0
  0
LINE
  5
E4
100
AcDbEntity
100
AcDbLine
  8
text
 62
256
370
-1
  6
ByLayer
 10
171.1111111111110858
 20
11.6666666666666714
 30
0.0
 11
176.1111111111110858
 21
11.6666666666666714
 31
0.0
  0
ARC
  5
E5
100
AcDbEntity
  8
text
 62
256
370
-1
  6
ByLayer
100
AcDbCircle
 10
176.1111111111110858
 20
10.0
 30
0.0
 40
1.6666666666666667
100
AcDbArc
 50
0.0
 51
90.0
  0
LINE
  5
E6
100
AcDbEntity
100
AcDbLine
  8
text
 62
256
370
-1
  6
ByLayer
 10
177.7777777777777715
 20
10.0
 30
0.0
 11
177.7777777777777715
 21
5.0
 31
0.0
  0
LINE
  5
E7
100
AcDbEntity
100
AcDbLine
  8
text
 62
256
370
-1
  6
ByLayer
 10
174.4444444444444002
 20
11.6666666666666714
 30
0.0
 11
174.4444444444444002
 21
5.0
 31
0.0
  0
CIRCLE
  5
E8
100
AcDbEntity
100
AcDbCircle
  8
build-platform
 62
256
370
-1
  6
ByLayer
 10
241.0
 20
65.0
 30
0.0
 40
2.7000000000000002
  0
CIRCLE
  5
E9
100
AcDbEntity
100
AcDbCircle
  8
build-platform
 62
256
370
-1
  6
ByLayer
 10
256.0
 20
50.0
 30
0.0
 40
2.7000000000000002
  0
CIRCLE
  5
EA
100
AcDbEntity
100
AcDbCircle
  8
build-platform
 62
256
370
-1
  6
ByLayer
 10
241.0
 20
35.0
 30
0.0
 40
2.7000000000000002
  0
LINE
  5
EB
100
AcDbEntity
100
AcDbLine
  8
build-platform
 62
256
370
-1
  6
ByLayer
 10
225.5900000000000318
 20
53.9900000000000091
 30
0.0
 11
228.4099999999999682
 21
53.9900000000000091
 31
0.0
  0
LINE
  5
EC
100
AcDbEntity
100
AcDbLine
  8
build-platform
 62
256
370
-1
  6
ByLayer
 10
228.4099999999999682
 20
53.9900000000000091
 30
0.0
 11
228.4099999999999682
 21
56.8100000000000023
 31
0.0
  0
LINE
  5
ED
100
AcDbEntity
100
AcDbLine
  8
build-platform
 62
256
370
-1
  6
ByLayer
 10
228.4099999999999682
 20
56.8100000000000023
 30
0.0
 11
225.5900000000000318
 21
56.8100000000000023
 31
0.0
  0
LINE
  5
EE
100
AcDbEntity
100
AcDbLine
  8
build-platform
 62
256
370
-1
  6
ByLayer
 10
225.5900000000000318
 20
56.8100000000000023
 30
0.0
 11
225.5900000000000318
 21
53.9900000000000091
 31
0.0
  0
LINE
  5
EF
100
AcDbEntity
100
AcDbLine
  8
build-platform
 62
256
370
-1
  6
ByLayer
 10
225.5900000000000318
 20
43.1900000000000261
 30
0.0
 11
228.4099999999999682
 21
43.1900000000000261
 31
0.0
  0
LINE
  5
F0
100
AcDbEntity
100
AcDbLine
  8
build-platform
 62
256
370
-1
  6
ByLayer
 10
228.4099999999999682
 20
43.1900000000000261
 30
0.0
 11
228.4099999999999682
 21
46.0100000000000193
 31
0.0
  0
LINE
  5
F1
100
AcDbEntity
100
AcDbLine
  8
build-platform
 62
256
370
-1
  6
ByLayer
 10
228.4099999999999682
 20
46.0100000000000193
 30
0.0
 11
225.5900000000000318
 21
46.0100000000000193
 31
0.0
  0
LINE
  5
F2
100
AcDbEntity
100
AcDbLine
  8
build-platform
 62
256
370
-1
  6
ByLayer
 10
225.5900000000000318
 20
46.0100000000000193
 30
0.0
 11
225.5900000000000318
 21
43.1900000000000261
 31
0.0
  0
LINE
  5
F3
100
AcDbEntity
100
AcDbLine
  8
build-platform
 62
256
370
-1
  6
ByLayer
 10
239.5900000000000318
 20
48.5900000000000034
 30
0.0
 11
242.4099999999999682
 21
48.5900000000000034
 31
0.0
  0
LINE
  5
F4
100
AcDbEntity
100
AcDbLine
  8
build-platform
 62
256
370
-1
  6
ByLayer
 10
242.4099999999999682
 20
48.5900000000000034
 30
0.0
 11
242.4099999999999682
 21
51.4099999999999966
 31
0.0
  0
LINE
  5
F5
100
AcDbEntity
100
AcDbLine
  8
build-platform
 62
256
370
-1
  6
ByLayer
 10
242.4099999999999682
 20
51.4099999999999966
 30
0.0
 11
239.5900000000000318
 21
51.4099999999999966
 31
0.0
  0
LINE
  5
F6
100
AcDbEntity
100
AcDbLine
  8
build-platform
 62
256
370
-1
  6
ByLayer
 10
239.5900000000000318
 20
51.4099999999999966
 30
0.0
 11
239.5900000000000318
 21
48.5900000000000034
 31
0.0
  0
LINE
  5
F7
100
AcDbEntity
100
AcDbLine
  8
build-platform
 62
256
370
-1
  6
ByLayer
 10
271.5900000000000318
 20
53.9900000000000091
 30
0.0
 11
274.4099999999999682
 21
53.9900000000000091
 31
0.0
  0
LINE
  5
F8
100
AcDbEntity
100
AcDbLine
  8
build-platform
 62
256
370
-1
  6
ByLayer
 10
274.4099999999999682
 20
53.9900000000000091
 30
0.0
 11
274.4099999999999682
 21
56.8100000000000023
 31
0.0
  0
LINE
  5
F9
100
AcDbEntity
100
AcDbLine
  8
build-platform
 62
256
370
-1
  6
ByLayer
 10
274.4099999999999682
 20
56.8100000000000023
 30
0.0
 11
271.5900000000000318
 21
56.8100000000000023
 31
0.0
  0
LINE
  5
FA
100
AcDbEntity
100
AcDbLine
  8
build-platform
 62
256
370
-1
  6
ByLayer
 10
271.5900000000000318
 20
56.8100000000000023
 30
0.0
 11
271.5900000000000318
 21
53.9900000000000091
 31
0.0
  0
LINE
  5
FB
100
AcDbEntity
100
AcDbLine
  8
build-platform
 62
256
370
-1
  6
ByLayer
 10
271.5900000000000318
 20
43.1900000000000261
 30
0.0
 11
274.4099999999999682
 21
43.1900000000000261
 31
0.0
  0
LINE
  5
FC
100
AcDbEntity
100
AcDbLine
  8
build-platform
 62
256
370
-1
  6
ByLayer
 10
274.4099999999999682
 20
43.1900000000000261
 30
0.0
 11
274.4099999999999682
 21
46.0100000000000193
 31
0.0
  0
LINE
  5
FD
100
AcDbEntity
100
AcDbLine
  8
build-platform
 62
256
370
-1
  6
ByLayer
 10
274.4099999999999682
 20
46.0100000000000193
 30
0.0
 11
271.5900000000000318
 21
46.0100000000000193
 31
0.0
  0
LINE
  5
FE
100
AcDbEntity
100
AcDbLine
  8
build-platform
 62
256
370
-1
  6
ByLayer
 10
271.5900000000000318
 20
46.0100000000000193
 30
0.0
 11
271.5900000000000318
 21
43.1900000000000261
 31
0.0
  0
LINE
  5
FF
100
AcDbEntity
100
AcDbLine
  8
text
 62
256
370
-1
  6
ByLayer
 10
235.5555555555555429
 20
85.0
 30
0.0
 11
235.5555555555555429
 21
95.0
 31
0.0
  0
LINE
  5
100
100
AcDbEntity
100
AcDbLine
  8
text
 62
256
370
-1
  6
ByLayer
 10
235.5555555555555429
 20
95.0
 30
0.0
 11
238.3333333333333144
 21
95.0
 31
0.0
  0
ARC
  5
101
100
AcDbEntity
  8
text
 62
256
370
-1
  6
ByLayer
100
AcDbCircle
 10
238.3333333333333144
 20
92.7777777777777715
 30
0.0
 40
2.2222222222222223
100
AcDbArc
 50
270.0
 51
90.0
  0
LINE
  5
102
100
AcDbEntity
100
AcDbLine
  8
text
 62
256
370
-1
  6
ByLayer
 10
235.5555555555555429
 20
90.5555555555555429
 30
0.0
 11
238.4444444444444571
 21
90.5555555555555429
 31
0.0
  0
ARC
  5
103
100
AcDbEntity
  8
text
 62
256
370
-1
  6
ByLayer
100
AcDbCircle
 10
238.4444444444444571
 20
87.8888888888888857
 30
0.0
 40
2.6666666666666665
100
AcDbArc
 50
0.0
 51
90.0
  0
LINE
  5
104
100
AcDbEntity
100
AcDbLine
  8
text
 62
256
370
-1
  6
ByLayer
 10
241.1111111111110858
 20
87.8888888888888857
 30
0.0
 11
241.1111111111110858
 21
87.6666666666666856
 31
0.0
  0
ARC
  5
105
100
AcDbEntity
  8
text
 62
256
370
-1
  6
ByLayer
100
AcDbCircle
 10
238.4444444444444571
 20
87.6666666666666856
 30
0.0
 40
2.6666666666666665
100
AcDbArc
 50
270.0
 51
0.0
  0
LINE
  5
106
100
AcDbEntity
100
AcDbLine
  8
text
 62
256
370
-1
  6
ByLayer
 10
238.4444444444444571
 20
85.0
 30
0.0
 11
235.5555555555555429
 21
85.0
 31
0.0
  0
LINE
  5
107
100
AcDbEntity
100
AcDbLine
  8
text
 62
256
370
-1
  6
ByLayer
 10
244.4444444444444571
 20
91.6666666666666856
 30
0.0
 11
244.4444444444444571
 21
86.6666666666666856
 31
0.0
  0
ARC
  5
108
100
AcDbEntity
  8
text
 62
256
370
-1
  6
ByLayer
100
AcDbCircle
 10
246.1111111111111427
 20
86.6666666666666856
 30
0.0
 40
1.6666666666666667
100
AcDbArc
 50
180.0
 51
270.0
  0
LINE
  5
109
100
AcDbEntity
100
AcDbLine
  8
text
 62
256
370
-1
  6
ByLayer
 10
246.1111111111111427
 20
85.0
 30
0.0
 11
248.8888888888889142
 21
85.0
 31
0.0
  0
LINE
  5
10A
100
AcDbEntity
100
AcDbLine
  8
text
 62
256
370
-1
  6
ByLayer
 10
248.8888888888889142
 20
85.0
 30
0.0
 11
248.8888888888889142
 21
91.6666666666666856
 31
0.0
  0
LINE
  5
10B
100
AcDbEntity
100
AcDbLine
  8
text
 62
256
370
-1
  6
ByLayer
 10
252.2222222222222285
 20
85.0
 30
0.0
 11
252.2222222222222285
 21
91.6666666666666856
 31
0.0
  0
LINE
  5
10C
100
AcDbEntity
100
AcDbLine
  8
text
 62
256
370
-1
  6
ByLayer
 10
252.2222222222222285
 20
94.4444444444444571
 30
0.0
 11
252.2222222222222285
 21
95.0
 31
0.0
  0
LINE
  5
10D
100
AcDbEntity
100
AcDbLine
  8
text
 62
256
370
-1
  6
ByLayer
 10
255.5555555555555429
 20
95.0
 30
0.0
 11
255.5555555555555429
 21
86.1111111111111143
 31
0.0
  0
ARC
  5
10E
100
AcDbEntity
  8
text
 62
256
370
-1
  6
ByLayer
100
AcDbCircle
 10
256.6666666666666288
 20
86.1111111111111143
 30
0.0
 40
1.1111111111111112
100
AcDbArc
 50
180.0
 51
270.0
  0
LINE
  5
10F
100
AcDbEntity
100
AcDbLine
  8
text
 62
256
370
-1
  6
ByLayer
 10
264.4444444444444571
 20
95.0
 30
0.0
 11
264.4444444444444571
 21
85.0
 31
0.0
  0
LINE
  5
110
100
AcDbEntity
100
AcDbLine
  8
text
 62
256
370
-1
  6
ByLayer
 10
264.4444444444444571
 20
85.0
 30
0.0
 11
261.6666666666666856
 21
85.0
 31
0.0
  0
ARC
  5
111
100
AcDbEntity
  8
text
 62
256
370
-1
  6
ByLayer
100
AcDbCircle
 10
261.6666666666666856
 20
86.6666666666666856
 30
0.0
 40
1.6666666666666667
100
AcDbArc
 50
180.0
 51
270.0
  0
LINE
  5
112
100
AcDbEntity
100
AcDbLine
  8
text
 62
256
370
-1
  6
ByLayer
 10
260.0
 20
86.6666666666666856
 30
0.0
 11
260.0
 21
90.0
 31
0.0
  0
ARC
  5
113
100
AcDbEntity
  8
text
 62
256
370
-1
  6
ByLayer
100
AcDbCircle
 10
261.6666666666666856
 20
90.0
 30
0.0
 40
1.6666666666666667
100
AcDbArc
 50
90.0
 51
180.0
  0
LINE
  5
114
100
AcDbEntity
100
AcDbLine
  8
text
 62
256
370
-1
  6
ByLayer
 10
261.6666666666666856
 20
91.6666666666666856
 30
0.0
 11
264.4444444444444571
 21
91.6666666666666856
 31
0.0
  0
LINE
  5
115
100
AcDbEntity
100
AcDbLine
  8
text
 62
256
370
-1
  6
ByLayer
 10
222.2222222222222285
 20
5.0000000000000142
 30
0.0
 11
222.2222222222222285
 21
15.0000000000000142
 31
0.0
  0
LINE
  5
116
100
AcDbEntity
100
AcDbLine
  8
text
 62
256
370
-1
  6
ByLayer
 10
222.2222222222222285
 20
15.0000000000000142
 30
0.0
 11
225.5555555555555429
 21
15.0000000000000142
 31
0.0
  0
ARC
  5
117
100
AcDbEntity
  8
text
 62
256
370
-1
  6
ByLayer
100
AcDbCircle
 10
225.5555555555555429
 20
12.7777777777777999
 30
0.0
 40
2.2222222222222223
100
AcDbArc
 50
0.0
 51
90.0
  0
LINE
  5
118
100
AcDbEntity
100
AcDbLine
  8
text
 62
256
370
-1
  6
ByLayer
 10
227.7777777777777715
 20
12.7777777777777999
 30
0.0
 11
227.7777777777777715
 21
11.6666666666666856
 31
0.0
  0
ARC
  5
119
100
AcDbEntity
  8
text
 62
256
370
-1
  6
ByLayer
100
AcDbCircle
 10
225.5555555555555429
 20
11.6666666666666856
 30
0.0
 40
2.2222222222222223
100
AcDbArc
 50
270.0
 51
0.0
  0
LINE
  5
11A
100
AcDbEntity
100
AcDbLine
  8
text
 62
256
370
-1
  6
ByLayer
 10
225.5555555555555429
 20
9.4444444444444571
 30
0.0
 11
222.2222222222222285
 21
9.4444444444444571
 31
0.0
  0
LINE
  5
11B
100
AcDbEntity
100
AcDbLine
  8
text
 62
256
370
-1
  6
ByLayer
 10
231.1111111111110858
 20
15.0
 30
0.0
 11
231.1111111111110858
 21
6.1111111111111143
 31
0.0
  0
ARC
  5
11C
100
AcDbEntity
  8
text
 62
256
370
-1
  6
ByLayer
100
AcDbCircle
 10
232.2222222222221717
 20
6.1111111111111143
 30
0.0
 40
1.1111111111111112
100
AcDbArc
 50
180.0
 51
270.0
  0
LINE
  5
11D
100
AcDbEntity
100
AcDbLine
  8
text
 62
256
370
-1
  6
ByLayer
 10
236.1111111111110858
 20
11.6666666666666572
 30
0.0
 11
238.3333333333333144
 21
11.6666666666666572
 31
0.0
  0
ARC
  5
11E
100
AcDbEntity
  8
text
 62
256
370
-1
  6
ByLayer
100
AcDbCircle
 10
238.3333333333333144
 20
10.0
 30
0.0
 40
1.6666666666666667
100
AcDbArc
 50
0.0
 51
90.0
  0
LINE
  5
11F
100
AcDbEntity
100
AcDbLine
  8
text
 62
256
370
-1
  6
ByLayer
 10
240.0
 20
10.0
 30
0.0
 11
240.0
 21
5.0
 31
0.0
  0
LINE
  5
120
100
AcDbEntity
100
AcDbLine
  8
text
 62
256
370
-1
  6
ByLayer
 10
240.0
 20
5.0
 30
0.0
 11
237.2222222222222285
 21
5.0
 31
0.0
  0
ARC
  5
121
100
AcDbEntity
  8
text
 62
256
370
-1
  6
ByLayer
100
AcDbCircle
 10
237.2222222222222285
 20
6.6666666666666572
 30
0.0
 40
1.6666666666666667
100
AcDbArc
 50
90.0
 51
270.0
  0
LINE
  5
122
100
AcDbEntity
100
AcDbLine
  8
text
 62
256
370
-1
  6
ByLayer
 10
237.2222222222222285
 20
8.3333333333333286
 30
0.0
 11
240.0
 21
8.3333333333333286
 31
0.0
  0
LINE
  5
123
100
AcDbEntity
100
AcDbLine
  8
text
 62
256
370
-1
  6
ByLayer
 10
243.3333333333333144
 20
11.6666666666666714
 30
0.0
 11
246.6666666666666288
 21
11.6666666666666714
 31
0.0
  0
LINE
  5
124
100
AcDbEntity
100
AcDbLine
  8
text
 62
256
370
-1
  6
ByLayer
 10
244.4444444444444002
 20
15.0
 30
0.0
 11
244.4444444444444002
 21
5.0
 31
0.0
  0
LINE
  5
125
100
AcDbEntity
100
AcDbLine
  8
text
 62
256
370
-1
  6
ByLayer
 10
251.1111111111110858
 20
5.0
 30
0.0
 11
251.1111111111110858
 21
13.3333333333333286
 31
0.0
  0
ARC
  5
126
100
AcDbEntity
  8
text
 62
256
370
-1
  6
ByLayer
100
AcDbCircle
 10
252.7777777777777715
 20
13.3333333333333286
 30
0.0
 40
1.6666666666666667
100
AcDbArc
 50
90.0
 51
180.0
  0
LINE
  5
127
100
AcDbEntity
100
AcDbLine
  8
text
 62
256
370
-1
  6
ByLayer
 10
252.7777777777777715
 20
15.0
 30
0.0
 11
253.3333333333333144
 21
15.0
 31
0.0
  0
LINE
  5
128
100
AcDbEntity
100
AcDbLine
  8
text
 62
256
370
-1
  6
ByLayer
 10
250.0
 20
11.6666666666666714
 30
0.0
 11
253.3333333333333144
 21
11.6666666666666714
 31
0.0
  0
LINE
  5
129
100
AcDbEntity
100
AcDbLine
  8
text
 62
256
370
-1
  6
ByLayer
 10
256.6666666666666856
 20
9.4444444444444429
 30
0.0
 11
256.6666666666666856
 21
7.2222222222222285
 31
0.0
  0
ARC
  5
12A
100
AcDbEntity
  8
text
 62
256
370
-1
  6
ByLayer
100
AcDbCircle
 10
258.8888888888889142
 20
7.2222222222222285
 30
0.0
 40
2.2222222222222223
100
AcDbArc
 50
180.0
 51
0.0
  0
LINE
  5
12B
100
AcDbEntity
100
AcDbLine
  8
text
 62
256
370
-1
  6
ByLayer
 10
261.1111111111111427
 20
7.2222222222222285
 30
0.0
 11
261.1111111111111427
 21
9.4444444444444429
 31
0.0
  0
ARC
  5
12C
100
AcDbEntity
  8
text
 62
256
370
-1
  6
ByLayer
100
AcDbCircle
 10
258.8888888888889142
 20
9.4444444444444429
 30
0.0
 40
2.2222222222222223
100
AcDbArc
 50
0.0
 51
180.0
  0
LINE
  5
12D
100
AcDbEntity
100
AcDbLine
  8
text
 62
256
370
-1
  6
ByLayer
 10
264.4444444444444571
 20
4.9999999999999858
 30
0.0
 11
264.4444444444444571
 21
11.6666666666666572
 31
0.0
  0
LINE
  5
12E
100
AcDbEntity
100
AcDbLine
  8
text
 62
256
370
-1
  6
ByLayer
 10
264.4444444444444571
 20
11.6666666666666572
 30
0.0
 11
266.6666666666666856
 21
11.6666666666666572
 31
0.0
  0
ARC
  5
12F
100
AcDbEntity
  8
text
 62
256
370
-1
  6
ByLayer
100
AcDbCircle
 10
266.6666666666666856
 20
10.5555555555555429
 30
0.0
 40
1.1111111111111112
100
AcDbArc
 50
0.0
 51
90.0
  0
LINE
  5
130
100
AcDbEntity
100
AcDbLine
  8
text
 62
256
370
-1
  6
ByLayer
 10
271.1111111111110858
 20
5.0
 30
0.0
 11
271.1111111111110858
 21
11.6666666666666714
 31
0.0
  0
LINE
  5
131
100
AcDbEntity
100
AcDbLine
  8
text
 62
256
370
-1
  6
ByLayer
 10
271.1111111111110858
 20
11.6666666666666714
 30
0.0
 11
276.1111111111110858
 21
11.6666666666666714
 31
0.0
  0
ARC
  5
132
100
AcDbEntity
  8
text
 62
256
370
-1
  6
ByLayer
100
AcDbCircle
 10
276.1111111111110858
 20
10.0
 30
0.0
 40
1.6666666666666667
100
AcDbArc
 50
0.0
 51
90.0
  0
LINE
  5
133
100
AcDbEntity
100
AcDbLine
  8
text
 62
256
370
-1
  6
ByLayer
 10
277.7777777777777715
 20
10.0
 30
0.0
 11
277.7777777777777715
 21
5.0
 31
0.0
  0
LINE
  5
134
100
AcDbEntity
100
AcDbLine
  8
text
 62
256
370
-1
  6
ByLayer
 10
274.4444444444444002
 20
11.6666666666666714
 30
0.0
 11
274.4444444444444002
 21
5.0
 31
0.0
  0
CIRCLE
  5
135
100
AcDbEntity
100
AcDbCircle
  8
build-platform
 62
256
370
-1
  6
ByLayer
 10
41.0
 20
165.0
 30
0.0
 40
2.7000000000000002
  0
CIRCLE
  5
136
100
AcDbEntity
100
AcDbCircle
  8
build-platform
 62
256
370
-1
  6
ByLayer
 10
56.0
 20
150.0
 30
0.0
 40
2.7000000000000002
  0
CIRCLE
  5
137
100
AcDbEntity
100
AcDbCircle
  8
build-platform
 62
256
370
-1
  6
ByLayer
 10
41.0
 20
135.0
 30
0.0
 40
2.7000000000000002
  0
LINE
  5
138
100
AcDbEntity
100
AcDbLine
  8
build-platform
 62
256
370
-1
  6
ByLayer
 10
25.5900000000000318
 20
153.9900000000000091
 30
0.0
 11
28.4099999999999682
 21
153.9900000000000091
 31
0.0
  0
LINE
  5
139
100
AcDbEntity
100
AcDbLine
  8
build-platform
 62
256
370
-1
  6
ByLayer
 10
28.4099999999999682
 20
153.9900000000000091
 30
0.0
 11
28.4099999999999682
 21
156.8100000000000023
 31
0.0
  0
LINE
  5
13A
100
AcDbEntity
100
AcDbLine
  8
build-platform
 62
256
370
-1
  6
ByLayer
 10
28.4099999999999682
 20
156.8100000000000023
 30
0.0
 11
25.5900000000000318
 21
156.8100000000000023
 31
0.0
  0
LINE
  5
13B
100
AcDbEntity
100
AcDbLine
  8
build-platform
 62
256
370
-1
  6
ByLayer
 10
25.5900000000000318
 20
156.8100000000000023
 30
0.0
 11
25.5900000000000318
 21
153.9900000000000091
 31
0.0
  0
LINE
  5
13C
100
AcDbEntity
100
AcDbLine
  8
build-platform
 62
256
370
-1
  6
ByLayer
 10
25.5900000000000318
 20
143.1900000000000261
 30
0.0
 11
28.4099999999999682
 21
143.1900000000000261
 31
0.0
  0
LINE
  5
13D
100
AcDbEntity
100
AcDbLine
  8
build-platform
 62
256
370
-1
  6
ByLayer
 10
28.4099999999999682
 20
143.1900000000000261
 30
0.0
 11
28.4099999999999682
 21
146.0100000000000193
 31
0.0
  0
LINE
  5
13E
100
AcDbEntity
100
AcDbLine
  8
build-platform
 62
256
370
-1
  6
ByLayer
 10
28.4099999999999682
 20
146.0100000000000193
 30
0.0
 11
25.5900000000000318
 21
146.0100000000000193
 31
0.0
  0
LINE
  5
13F
100
AcDbEntity
100
AcDbLine
  8
build-platform
 62
256
370
-1
  6
ByLayer
 10
25.5900000000000318
 20
146.0100000000000193
 30
0.0
 11
25.5900000000000318
 21
143.1900000000000261
 31
0.0
  0
LINE
  5
140
100
AcDbEntity
100
AcDbLine
  8
build-platform
 62
256
370
-1
  6
ByLayer
 10
39.5900000000000318
 20
148.5900000000000034
 30
0.0
 11
42.4099999999999682
 21
148.5900000000000034
 31
0.0
  0
LINE
  5
141
100
AcDbEntity
100
AcDbLine
  8
build-platform
 62
256
370
-1
  6
ByLayer
 10
42.4099999999999682
 20
148.5900000000000034
 30
0.0
 11
42.4099999999999682
 21
151.4099999999999966
 31
0.0
  0
LINE
  5
142
100
AcDbEntity
100
AcDbLine
  8
build-platform
 62
256
370
-1
  6
ByLayer
 10
42.4099999999999682
 20
151.4099999999999966
 30
0.0
 11
39.5900000000000318
 21
151.4099999999999966
 31
0.0
  0
LINE
  5
143
100
AcDbEntity
100
AcDbLine
  8
build-platform
 62
256
370
-1
  6
ByLayer
 10
39.5900000000000318
 20
151.4099999999999966
 30
0.0
 11
39.5900000000000318
 21
148.5900000000000034
 31
0.0
  0
LINE
  5
144
100
AcDbEntity
100
AcDbLine
  8
build-platform
 62
256
370
-1
  6
ByLayer
 10
71.5900000000000318
 20
153.9900000000000091
 30
0.0
 11
74.4099999999999682
 21
153.9900000000000091
 31
0.0
  0
LINE
  5
145
100
AcDbEntity
100
AcDbLine
  8
build-platform
 62
256
370
-1
  6
ByLayer
 10
74.4099999999999682
 20
153.9900000000000091
 30
0.0
 11
74.4099999999999682
 21
156.8100000000000023
 31
0.0
  0
LINE
  5
146
100
AcDbEntity
100
AcDbLine
  8
build-platform
 62
256
370
-1
  6
ByLayer
 10
74.4099999999999682
 20
156.8100000000000023
 30
0.0
 11
71.5900000000000318
 21
156.8100000000000023
 31
0.0
  0
LINE
  5
147
100
AcDbEntity
100
AcDbLine
  8
build-platform
 62
256
370
-1
  6
ByLayer
 10
71.5900000000000318
 20
156.8100000000000023
 30
0.0
 11
71.5900000000000318
 21
153.9900000000000091
 31
0.0
  0
LINE
  5
148
100
AcDbEntity
100
AcDbLine
  8
build-platform
 62
256
370
-1
  6
ByLayer
 10
71.5900000000000318
 20
143.1900000000000261
 30
0.0
 11
74.4099999999999682
 21
143.1900000000000261
 31
0.0
  0
LINE
  5
149
100
AcDbEntity
100
AcDbLine
  8
build-platform
 62
256
370
-1
  6
ByLayer
 10
74.4099999999999682
 20
143.1900000000000261
 30
0.0
 11
74.4099999999999682
 21
146.0100000000000193
 31
0.0
  0
LINE
  5
14A
100
AcDbEntity
100
AcDbLine
  8
build-platform
 62
256
370
-1
  6
ByLayer
 10
74.4099999999999682
 20
146.0100000000000193
 30
0.0
 11
71.5900000000000318
 21
146.0100000000000193
 31
0.0
  0
LINE
  5
14B
100
AcDbEntity
100
AcDbLine
  8
build-platform
 62
256
370
-1
  6
ByLayer
 10
71.5900000000000318
 20
146.0100000000000193
 30
0.0
 11
71.5900000000000318
 21
143.1900000000000261
 31
0.0
  0
LINE
  5
14C
100
AcDbEntity
100
AcDbLine
  8
text
 62
256
370
-1
  6
ByLayer
 10
35.5555555555555429
 20
185.0
 30
0.0
 11
35.5555555555555429
 21
195.0
 31
0.0
  0
LINE
  5
14D
100
AcDbEntity
100
AcDbLine
  8
text
 62
256
370
-1
  6
ByLayer
 10
35.5555555555555429
 20
195.0
 30
0.0
 11
38.3333333333333144
 21
195.0
 31
0.0
  0
ARC
  5
14E
100
AcDbEntity
  8
text
 62
256
370
-1
  6
ByLayer
100
AcDbCircle
 10
38.3333333333333144
 20
192.7777777777777715
 30
0.0
 40
2.2222222222222223
100
AcDbArc
 50
270.0
 51
90.0
  0
LINE
  5
14F
100
AcDbEntity
100
AcDbLine
  8
text
 62
256
370
-1
  6
ByLayer
 10
35.5555555555555429
 20
190.5555555555555429
 30
0.0
 11
38.4444444444444571
 21
190.5555555555555429
 31
0.0
  0
ARC
  5
150
100
AcDbEntity
  8
text
 62
256
370
-1
  6
ByLayer
100
AcDbCircle
 10
38.4444444444444571
 20
187.8888888888888857
 30
0.0
 40
2.6666666666666665
100
AcDbArc
 50
0.0
 51
90.0
  0
LINE
  5
151
100
AcDbEntity
100
AcDbLine
  8
text
 62
256
370
-1
  6
ByLayer
 10
41.1111111111110858
 20
187.8888888888888857
 30
0.0
 11
41.1111111111110858
 21
187.6666666666666856
 31
0.0
  0
ARC
  5
152
100
AcDbEntity
  8
text
 62
256
370
-1
  6
ByLayer
100
AcDbCircle
 10
38.4444444444444571
 20
187.6666666666666856
 30
0.0
 40
2.6666666666666665
100
AcDbArc
 50
270.0
 51
0.0
  0
LINE
  5
153
100
AcDbEntity
100
AcDbLine
  8
text
 62
256
370
-1
  6
ByLayer
 10
38.4444444444444571
 20
185.0
 30
0.0
 11
35.5555555555555429
 21
185.0
 31
0.0
  0
LINE
  5
154
100
AcDbEntity
100
AcDbLine
  8
text
 62
256
370
-1
  6
ByLayer
 10
44.4444444444444571
 20
191.6666666666666856
 30
0.0
 11
44.4444444444444571
 21
186.6666666666666856
 31
0.0
  0
ARC
  5
155
100
AcDbEntity
  8
text
 62
256
370
-1
  6
ByLayer
100
AcDbCircle
 10
46.1111111111111427
 20
186.6666666666666856
 30
0.0
 40
1.6666666666666667
100
AcDbArc
 50
180.0
 51
270.0
  0
LINE
  5
156
100
AcDbEntity
100
AcDbLine
  8
text
 62
256
370
-1
  6
ByLayer
 10
46.1111111111111427
 20
185.0
 30
0.0
 11
48.8888888888889142
 21
185.0
 31
0.0
  0
LINE
  5
157
100
AcDbEntity
100
AcDbLine
  8
text
 62
256
370
-1
  6
ByLayer
 10
48.8888888888889142
 20
185.0
 30
0.0
 11
48.8888888888889142
 21
191.6666666666666856
 31
0.0
  0
LINE
  5
158
100
AcDbEntity
100
AcDbLine
  8
text
 62
256
370
-1
  6
ByLayer
 10
52.2222222222222285
 20
185.0
 30
0.0
 11
52.2222222222222285
 21
191.6666666666666856
 31
0.0
  0
LINE
  5
159
100
AcDbEntity
100
AcDbLine
  8
text
 62
256
370
-1
  6
ByLayer
 10
52.2222222222222285
 20
194.4444444444444571
 30
0.0
 11
52.2222222222222285
 21
195.0
 31
0.0
  0
LINE
  5
15A
100
AcDbEntity
100
AcDbLine
  8
text
 62
256
370
-1
  6
ByLayer
 10
55.5555555555555429
 20
195.0
 30
0.0
 11
55.5555555555555429
 21
186.1111111111111143
 31
0.0
  0
ARC
  5
15B
100
AcDbEntity
  8
text
 62
256
370
-1
  6
ByLayer
100
AcDbCircle
 10
56.6666666666666288
 20
186.1111111111111143
 30
0.0
 40
1.1111111111111112
100
AcDbArc
 50
180.0
 51
270.0
  0
LINE
  5
15C
100
AcDbEntity
100
AcDbLine
  8
text
 62
256
370
-1
  6
ByLayer
 10
64.4444444444444571
 20
195.0
 30
0.0
 11
64.4444444444444571
 21
185.0
 31
0.0
  0
LINE
  5
15D
100
AcDbEntity
100
AcDbLine
  8
text
 62
256
370
-1
  6
ByLayer
 10
64.4444444444444571
 20
185.0
 30
0.0
 11
61.6666666666666856
 21
185.0
 31
0.0
  0
ARC
  5
15E
100
AcDbEntity
  8
text
 62
256
370
-1
  6
ByLayer
100
AcDbCircle
 10
61.6666666666666856
 20
186.6666666666666856
 30
0.0
 40
1.6666666666666667
100
AcDbArc
 50
180.0
 51
270.0
  0
LINE
  5
15F
100
AcDbEntity
100
AcDbLine
  8
text
 62
256
370
-1
  6
ByLayer
 10
60.0
 20
186.6666666666666856
 30
0.0
 11
60.0
 21
190.0
 31
0.0
  0
ARC
  5
160
100
AcDbEntity
  8
text
 62
256
370
-1
  6
ByLayer
100
AcDbCircle
 10
61.6666666666666856
 20
190.0
 30
0.0
 40
1.6666666666666667
100
AcDbArc
 50
90.0
 51
180.0
  0
LINE
  5
161
100
AcDbEntity
100
AcDbLine
  8
text
 62
256
370
-1
  6
ByLayer
 10
61.6666666666666856
 20
191.6666666666666856
 30
0.0
 11
64.4444444444444571
 21
191.6666666666666856
 31
0.0
  0
LINE
  5
162
100
AcDbEntity
100
AcDbLine
  8
text
 62
256
370
-1
  6
ByLayer
 10
22.2222222222222285
 20
105.0000000000000142
 30
0.0
 11
22.2222222222222285
 21
115.0000000000000142
 31
0.0
  0
LINE
  5
163
100
AcDbEntity
100
AcDbLine
  8
text
 62
256
370
-1
  6
ByLayer
 10
22.2222222222222285
 20
115.0000000000000142
 30
0.0
 11
25.5555555555555429
 21
115.0000000000000142
 31
0.0
  0
ARC
  5
164
100
AcDbEntity
  8
text
 62
256
370
-1
  6
ByLayer
100
AcDbCircle
 10
25.5555555555555429
 20
112.7777777777777999
 30
0.0
 40
2.2222222222222223
100
AcDbArc
 50
0.0
 51
90.0
  0
LINE
  5
165
100
AcDbEntity
100
AcDbLine
  8
text
 62
256
370
-1
  6
ByLayer
 10
27.7777777777777715
 20
112.7777777777777999
 30
0.0
 11
27.7777777777777715
 21
111.6666666666666856
 31
0.0
  0
ARC
  5
166
100
AcDbEntity
  8
text
 62
256
370
-1
  6
ByLayer
100
AcDbCircle
 10
25.5555555555555429
 20
111.6666666666666856
 30
0.0
 40
2.2222222222222223
100
AcDbArc
 50
270.0
 51
0.0
  0
LINE
  5
167
100
AcDbEntity
100
AcDbLine
  8
text
 62
256
370
-1
  6
ByLayer
 10
25.5555555555555429
 20
109.4444444444444571
 30
0.0
 11
22.2222222222222285
 21
109.4444444444444571
 31
0.0
  0
LINE
  5
168
100
AcDbEntity
100
AcDbLine
  8
text
 62
256
370
-1
  6
ByLayer
 10
31.1111111111110858
 20
115.0
 30
0.0
 11
31.1111111111110858
 21
106.1111111111111143
 31
0.0
  0
ARC
  5
169
100
AcDbEntity
  8
text
 62
256
370
-1
  6
ByLayer
100
AcDbCircle
 10
32.2222222222221717
 20
106.1111111111111143
 30
0.0
 40
1.1111111111111112
100
AcDbArc
 50
180.0
 51
270.0
  0
LINE
  5
16A
100
AcDbEntity
100
AcDbLine
  8
text
 62
256
370
-1
  6
ByLayer
 10
36.1111111111110858
 20
111.6666666666666572
 30
0.0
 11
38.3333333333333144
 21
111.6666666666666572
 31
0.0
  0
ARC
  5
16B
100
AcDbEntity
  8
text
 62
256
370
-1
  6
ByLayer
100
AcDbCircle
 10
38.3333333333333144
 20
110.0
 30
0.0
 40
1.6666666666666667
100
AcDbArc
 50
0.0
 51
90.0
  0
LINE
  5
16C
100
AcDbEntity
100
AcDbLine
  8
text
 62
256
370
-1
  6
ByLayer
 10
40.0
 20
110.0
 30
0.0
 11
40.0
 21
105.0
 31
0.0
  0
LINE
  5
16D
100
AcDbEntity
100
AcDbLine
  8
text
 62
256
370
-1
  6
ByLayer
 10
40.0
 20
105.0
 30
0.0
 11
37.2222222222222285
 21
105.0
 31
0.0
  0
ARC
  5
16E
100
AcDbEntity
  8
text
 62
256
370
-1
  6
ByLayer
100
AcDbCircle
 10
37.2222222222222285
 20
106.6666666666666572
 30
0.0
 40
1.6666666666666667
100
AcDbArc
 50
90.0
 51
270.0
  0
LINE
  5
16F
100
AcDbEntity
100
AcDbLine
  8
text
 62
256
370
-1
  6
ByLayer
 10
37.2222222222222285
 20
108.3333333333333286
 30
0.0
 11
40.0
 21
108.3333333333333286
 31
0.0
  0
LINE
  5
170
100
AcDbEntity
100
AcDbLine
  8
text
 62
256
370
-1
  6
ByLayer
 10
43.3333333333333144
 20
111.6666666666666714
 30
0.0
 11
46.6666666666666288
 21
111.6666666666666714
 31
0.0
  0
LINE
  5
171
100
AcDbEntity
100
AcDbLine
  8
text
 62
256
370
-1
  6
ByLayer
 10
44.4444444444444002
 20
115.0
 30
0.0
 11
44.4444444444444002
 21
105.0
 31
0.0
  0
LINE
  5
172
100
AcDbEntity
100
AcDbLine
  8
text
 62
256
370
-1
  6
ByLayer
 10
51.1111111111110858
 20
105.0
 30
0.0
 11
51.1111111111110858
 21
113.3333333333333286
 31
0.0
  0
ARC
  5
173
100
AcDbEntity
  8
text
 62
256
370
-1
  6
ByLayer
100
AcDbCircle
 10
52.7777777777777715
 20
113.3333333333333286
 30
0.0
 40
1.6666666666666667
100
AcDbArc
 50
90.0
 51
180.0
  0
LINE
  5
174
100
AcDbEntity
100
AcDbLine
  8
text
 62
256
370
-1
  6
ByLayer
 10
52.7777777777777715
 20
115.0
 30
0.0
 11
53.3333333333333144
 21
115.0
 31
0.0
  0
LINE
  5
175
100
AcDbEntity
100
AcDbLine
  8
text
 62
256
370
-1
  6
ByLayer
 10
50.0
 20
111.6666666666666714
 30
0.0
 11
53.3333333333333144
 21
111.6666666666666714
 31
0.0
  0
LINE
  5
176
100
AcDbEntity
100
AcDbLine
  8
text
 62
256
370
-1
  6
ByLayer
 10
56.6666666666666856
 20
109.4444444444444429
 30
0.0
 11
56.6666666666666856
 21
107.2222222222222285
 31
0.0
  0
ARC
  5
177
100
AcDbEntity
  8
text
 62
256
370
-1
  6
ByLayer
100
AcDbCircle
 10
58.8888888888889142
 20
107.2222222222222285
 30
0.0
 40
2.2222222222222223
100
AcDbArc
 50
180.0
 51
0.0
  0
LINE
  5
178
100
AcDbEntity
100
AcDbLine
  8
text
 62
256
370
-1
  6
ByLayer
 10
61.1111111111111427
 20
107.2222222222222285
 30
0.0
 11
61.1111111111111427
 21
109.4444444444444429
 31
0.0
  0
ARC
  5
179
100
AcDbEntity
  8
text
 62
256
370
-1
  6
ByLayer
100
AcDbCircle
 10
58.8888888888889142
 20
109.4444444444444429
 30
0.0
 40
2.2222222222222223
100
AcDbArc
 50
0.0
 51
180.0
  0
LINE
  5
17A
100
AcDbEntity
100
AcDbLine
  8
text
 62
256
370
-1
  6
ByLayer
 10
64.4444444444444571
 20
104.9999999999999858
 30
0.0
 11
64.4444444444444571
 21
111.6666666666666572
 31
0.0
  0
LINE
  5
17B
100
AcDbEntity
100
AcDbLine
  8
text
 62
256
370
-1
  6
ByLayer
 10
64.4444444444444571
 20
111.6666666666666572
 30
0.0
 11
66.6666666666666856
 21
111.6666666666666572
 31
0.0
  0
ARC
  5
17C
100
AcDbEntity
  8
text
 62
256
370
-1
  6
ByLayer
100
AcDbCircle
 10
66.6666666666666856
 20
110.5555555555555429
 30
0.0
 40
1.1111111111111112
100
AcDbArc
 50
0.0
 51
90.0
  0
LINE
  5
17D
100
AcDbEntity
100
AcDbLine
  8
text
 62
256
370
-1
  6
ByLayer
 10
71.1111111111110858
 20
105.0
 30
0.0
 11
71.1111111111110858
 21
111.6666666666666714
 31
0.0
  0
LINE
  5
17E
100
AcDbEntity
100
AcDbLine
  8
text
 62
256
370
-1
  6
ByLayer
 10
71.1111111111110858
 20
111.6666666666666714
 30
0.0
 11
76.1111111111110858
 21
111.6666666666666714
 31
0.0
  0
ARC
  5
17F
100
AcDbEntity
  8
text
 62
256
370
-1
  6
ByLayer
100
AcDbCircle
 10
76.1111111111110858
 20
110.0
 30
0.0
 40
1.6666666666666667
100
AcDbArc
 50
0.0
 51
90.0
  0
LINE
  5
180
100
AcDbEntity
100
AcDbLine
  8
text
 62
256
370
-1
  6
ByLayer
 10
77.7777777777777715
 20
110.0
 30
0.0
 11
77.7777777777777715
 21
105.0
 31
0.0
  0
LINE
  5
181
100
AcDbEntity
100
AcDbLine
  8
text
 62
256
370
-1
  6
ByLayer
 10
74.4444444444444002
 20
111.6666666666666714
 30
0.0
 11
74.4444444444444002
 21
105.0
 31
0.0
  0
CIRCLE
  5
182
100
AcDbEntity
100
AcDbCircle
  8
build-platform
 62
256
370
-1
  6
ByLayer
 10
141.0
 20
165.0
 30
0.0
 40
2.7000000000000002
  0
CIRCLE
  5
183
100
AcDbEntity
100
AcDbCircle
  8
build-platform
 62
256
370
-1
  6
ByLayer
 10
156.0
 20
150.0
 30
0.0
 40
2.7000000000000002
  0
CIRCLE
  5
184
100
AcDbEntity
100
AcDbCircle
  8
build-platform
 62
256
370
-1
  6
ByLayer
 10
141.0
 20
135.0
 30
0.0
 40
2.7000000000000002
  0
LINE
  5
185
100
AcDbEntity
100
AcDbLine
  8
build-platform
 62
256
370
-1
  6
ByLayer
 10
125.5900000000000318
 20
153.9900000000000091
 30
0.0
 11
128.4099999999999682
 21
153.9900000000000091
 31
0.0
  0
LINE
  5
186
100
AcDbEntity
100
AcDbLine
  8
build-platform
 62
256
370
-1
  6
ByLayer
 10
128.4099999999999682
 20
153.9900000000000091
 30
0.0
 11
128.4099999999999682
 21
156.8100000000000023
 31
0.0
  0
LINE
  5
187
100
AcDbEntity
100
AcDbLine
  8
build-platform
 62
256
370
-1
  6
ByLayer
 10
128.4099999999999682
 20
156.8100000000000023
 30
0.0
 11
125.5900000000000318
 21
156.8100000000000023
 31
0.0
  0
LINE
  5
188
100
AcDbEntity
100
AcDbLine
  8
build-platform
 62
256
370
-1
  6
ByLayer
 10
125.5900000000000318
 20
156.8100000000000023
 30
0.0
 11
125.5900000000000318
 21
153.9900000000000091
 31
0.0
  0
LINE
  5
189
100
AcDbEntity
100
AcDbLine
  8
build-platform
 62
256
370
-1
  6
ByLayer
 10
125.5900000000000318
 20
143.1900000000000261
 30
0.0
 11
128.4099999999999682
 21
143.1900000000000261
 31
0.0
  0
LINE
  5
18A
100
AcDbEntity
100
AcDbLine
  8
build-platform
 62
256
370
-1
  6
ByLayer
 10
128.4099999999999682
 20
143.1900000000000261
 30
0.0
 11
128.4099999999999682
 21
146.0100000000000193
 31
0.0
  0
LINE
  5
18B
100
AcDbEntity
100
AcDbLine
  8
build-platform
 62
256
370
-1
  6
ByLayer
 10
128.4099999999999682
 20
146.0100000000000193
 30
0.0
 11
125.5900000000000318
 21
146.0100000000000193
 31
0.0
  0
LINE
  5
18C
100
AcDbEntity
100
AcDbLine
  8
build-platform
 62
256
370
-1
  6
ByLayer
 10
125.5900000000000318
 20
146.0100000000000193
 30
0.0
 11
125.5900000000000318
 21
143.1900000000000261
 31
0.0
  0
LINE
  5
18D
100
AcDbEntity
100
AcDbLine
  8
build-platform
 62
256
370
-1
  6
ByLayer
 10
139.5900000000000318
 20
148.5900000000000034
 30
0.0
 11
142.4099999999999682
 21
148.5900000000000034
 31
0.0
  0
LINE
  5
18E
100
AcDbEntity
100
AcDbLine
  8
build-platform
 62
256
370
-1
  6
ByLayer
 10
142.4099999999999682
 20
148.5900000000000034
 30
0.0
 11
142.4099999999999682
 21
151.4099999999999966
 31
0.0
  0
LINE
  5
18F
100
AcDbEntity
100
AcDbLine
  8
build-platform
 62
256
370
-1
  6
ByLayer
 10
142.4099999999999682
 20
151.4099999999999966
 30
0.0
 11
139.5900000000000318
 21
151.4099999999999966
 31
0.0
  0
LINE
  5
190
100
AcDbEntity
100
AcDbLine
  8
build-platform
 62
256
370
-1
  6
ByLayer
 10
139.5900000000000318
 20
151.4099999999999966
 30
0.0
 11
139.5900000000000318
 21
148.5900000000000034
 31
0.0
  0
LINE
  5
191
100
AcDbEntity
100
AcDbLine
  8
build-platform
 62
256
370
-1
  6
ByLayer
 10
171.5900000000000318
 20
153.9900000000000091
 30
0.0
 11
174.4099999999999682
 21
153.9900000000000091
 31
0.0
  0
LINE
  5
192
100
AcDbEntity
100
AcDbLine
  8
build-platform
 62
256
370
-1
  6
ByLayer
 10
174.4099999999999682
 20
153.9900000000000091
 30
0.0
 11
174.4099999999999682
 21
156.8100000000000023
 31
0.0
  0
LINE
  5
193
100
AcDbEntity
100
AcDbLine
  8
build-platform
 62
256
370
-1
  6
ByLayer
 10
174.4099999999999682
 20
156.8100000000000023
 30
0.0
 11
171.5900000000000318
 21
156.8100000000000023
 31
0.0
  0
LINE
  5
194
100
AcDbEntity
100
AcDbLine
  8
build-platform
 62
256
370
-1
  6
ByLayer
 10
171.5900000000000318
 20
156.8100000000000023
 30
0.0
 11
171.5900000000000318
 21
153.9900000000000091
 31
0.0
  0
LINE
  5
195
100
AcDbEntity
100
AcDbLine
  8
build-platform
 62
256
370
-1
  6
ByLayer
 10
171.5900000000000318
 20
143.1900000000000261
 30
0.0
 11
174.4099999999999682
 21
143.1900000000000261
 31
0.0
  0
LINE
  5
196
100
AcDbEntity
100
AcDbLine
  8
build-platform
 62
256
370
-1
  6
ByLayer
 10
174.4099999999999682
 20
143.1900000000000261
 30
0.0
 11
174.4099999999999682
 21
146.0100000000000193
 31
0.0
  0
LINE
  5
197
100
AcDbEntity
100
AcDbLine
  8
build-platform
 62
256
370
-1
  6
ByLayer
 10
174.4099999999999682
 20
146.0100000000000193
 30
0.0
 11
171.5900000000000318
 21
146.0100000000000193
 31
0.0
  0
LINE
  5
198
100
AcDbEntity
100
AcDbLine
  8
build-platform
 62
256
370
-1
  6
ByLayer
 10
171.5900000000000318
 20
146.0100000000000193
 30
0.0
 11
171.5900000000000318
 21
143.1900000000000261
 31
0.0
  0
LINE
  5
199
100
AcDbEntity
100
AcDbLine
  8
text
 62
256
370
-1
  6
ByLayer
 10
135.5555555555555429
 20
185.0
 30
0.0
 11
135.5555555555555429
 21
195.0
 31
0.0
  0
LINE
  5
19A
100
AcDbEntity
100
AcDbLine
  8
text
 62
256
370
-1
  6
ByLayer
 10
135.5555555555555429
 20
195.0
 30
0.0
 11
138.3333333333333144
 21
195.0
 31
0.0
  0
ARC
  5
19B
100
AcDbEntity
  8
text
 62
256
370
-1
  6
ByLayer
100
AcDbCircle
 10
138.3333333333333144
 20
192.7777777777777715
 30
0.0
 40
2.2222222222222223
100
AcDbArc
 50
270.0
 51
90.0
  0
LINE
  5
19C
100
AcDbEntity
100
AcDbLine
  8
text
 62
256
370
-1
  6
ByLayer
 10
135.5555555555555429
 20
190.5555555555555429
 30
0.0
 11
138.4444444444444571
 21
190.5555555555555429
 31
0.0
  0
ARC
  5
19D
100
AcDbEntity
  8
text
 62
256
370
-1
  6
ByLayer
100
AcDbCircle
 10
138.4444444444444571
 20
187.8888888888888857
 30
0.0
 40
2.6666666666666665
100
AcDbArc
 50
0.0
 51
90.0
  0
LINE
  5
19E
100
AcDbEntity
100
AcDbLine
  8
text
 62
256
370
-1
  6
ByLayer
 10
141.1111111111110858
 20
187.8888888888888857
 30
0.0
 11
141.1111111111110858
 21
187.6666666666666856
 31
0.0
  0
ARC
  5
19F
100
AcDbEntity
  8
text
 62
256
370
-1
  6
ByLayer
100
AcDbCircle
 10
138.4444444444444571
 20
187.6666666666666856
 30
0.0
 40
2.6666666666666665
100
AcDbArc
 50
270.0
 51
0.0
  0
LINE
  5
1A0
100
AcDbEntity
100
AcDbLine
  8
text
 62
256
370
-1
  6
ByLayer
 10
138.4444444444444571
 20
185.0
 30
0.0
 11
135.5555555555555429
 21
185.0
 31
0.0
  0
LINE
  5
1A1
100
AcDbEntity
100
AcDbLine
  8
text
 62
256
370
-1
  6
ByLayer
 10
144.4444444444444571
 20
191.6666666666666856
 30
0.0
 11
144.4444444444444571
 21
186.6666666666666856
 31
0.0
  0
ARC
  5
1A2
100
AcDbEntity
  8
text
 62
256
370
-1
  6
ByLayer
100
AcDbCircle
 10
146.1111111111111427
 20
186.6666666666666856
 30
0.0
 40
1.6666666666666667
100
AcDbArc
 50
180.0
 51
270.0
  0
LINE
  5
1A3
100
AcDbEntity
100
AcDbLine
  8
text
 62
256
370
-1
  6
ByLayer
 10
146.1111111111111427
 20
185.0
 30
0.0
 11
148.8888888888889142
 21
185.0
 31
0.0
  0
LINE
  5
1A4
100
AcDbEntity
100
AcDbLine
  8
text
 62
256
370
-1
  6
ByLayer
 10
148.8888888888889142
 20
185.0
 30
0.0
 11
148.8888888888889142
 21
191.6666666666666856
 31
0.0
  0
LINE
  5
1A5
100
AcDbEntity
100
AcDbLine
  8
text
 62
256
370
-1
  6
ByLayer
 10
152.2222222222222285
 20
185.0
 30
0.0
 11
152.2222222222222285
 21
191.6666666666666856
 31
0.0
  0
LINE
  5
1A6
100
AcDbEntity
100
AcDbLine
  8
text
 62
256
370
-1
  6
ByLayer
 10
152.2222222222222285
 20
194.4444444444444571
 30
0.0
 11
152.2222222222222285
 21
195.0
 31
0.0
  0
LINE
  5
1A7
100
AcDbEntity
100
AcDbLine
  8
text
 62
256
370
-1
  6
ByLayer
 10
155.5555555555555429
 20
195.0
 30
0.0
 11
155.5555555555555429
 21
186.1111111111111143
 31
0.0
  0
ARC
  5
1A8
100
AcDbEntity
  8
text
 62
256
370
-1
  6
ByLayer
100
AcDbCircle
 10
156.6666666666666288
 20
186.1111111111111143
 30
0.0
 40
1.1111111111111112
100
AcDbArc
 50
180.0
 51
270.0
  0
LINE
  5
1A9
100
AcDbEntity
100
AcDbLine
  8
text
 62
256
370
-1
  6
ByLayer
 10
164.4444444444444571
 20
195.0
 30
0.0
 11
164.4444444444444571
 21
185.0
 31
0.0
  0
LINE
  5
1AA
100
AcDbEntity
100
AcDbLine
  8
text
 62
256
370
-1
  6
ByLayer
 10
164.4444444444444571
 20
185.0
 30
0.0
 11
161.6666666666666856
 21
185.0
 31
0.0
  0
ARC
  5
1AB
100
AcDbEntity
  8
text
 62
256
370
-1
  6
ByLayer
100
AcDbCircle
 10
161.6666666666666856
 20
186.6666666666666856
 30
0.0
 40
1.6666666666666667
100
AcDbArc
 50
180.0
 51
270.0
  0
LINE
  5
1AC
100
AcDbEntity
100
AcDbLine
  8
text
 62
256
370
-1
  6
ByLayer
 10
160.0
 20
186.6666666666666856
 30
0.0
 11
160.0
 21
190.0
 31
0.0
  0
ARC
  5
1AD
100
AcDbEntity
  8
text
 62
256
370
-1
  6
ByLayer
100
AcDbCircle
 10
161.6666666666666856
 20
190.0
 30
0.0
 40
1.6666666666666667
100
AcDbArc
 50
90.0
 51
180.0
  0
LINE
  5
1AE
100
AcDbEntity
100
AcDbLine
  8
text
 62
256
370
-1
  6
ByLayer
 10
161.6666666666666856
 20
191.6666666666666856
 30
0.0
 11
164.4444444444444571
 21
191.6666666666666856
 31
0.0
  0
LINE
  5
1AF
100
AcDbEntity
100
AcDbLine
  8
text
 62
256
370
-1
  6
ByLayer
 10
122.2222222222222285
 20
105.0000000000000142
 30
0.0
 11
122.2222222222222285
 21
115.0000000000000142
 31
0.0
  0
LINE
  5
1B0
100
AcDbEntity
100
AcDbLine
  8
text
 62
256
370
-1
  6
ByLayer
 10
122.2222222222222285
 20
115.0000000000000142
 30
0.0
 11
125.5555555555555429
 21
115.0000000000000142
 31
0.0
  0
ARC
  5
1B1
100
AcDbEntity
  8
text
 62
256
370
-1
  6
ByLayer
100
AcDbCircle
 10
125.5555555555555429
 20
112.7777777777777999
 30
0.0
 40
2.2222222222222223
100
AcDbArc
 50
0.0
 51
90.0
  0
LINE
  5
1B2
100
AcDbEntity
100
AcDbLine
  8
text
 62
256
370
-1
  6
ByLayer
 10
127.7777777777777715
 20
112.7777777777777999
 30
0.0
 11
127.7777777777777715
 21
111.6666666666666856
 31
0.0
  0
ARC
  5
1B3
100
AcDbEntity
  8
text
 62
256
370
-1
  6
ByLayer
100
AcDbCircle
 10
125.5555555555555429
 20
111.6666666666666856
 30
0.0
 40
2.2222222222222223
100
AcDbArc
 50
270.0
 51
0.0
  0
LINE
  5
1B4
100
AcDbEntity
100
AcDbLine
  8
text
 62
256
370
-1
  6
ByLayer
 10
125.5555555555555429
 20
109.4444444444444571
 30
0.0
 11
122.2222222222222285
 21
109.4444444444444571
 31
0.0
  0
LINE
  5
1B5
100
AcDbEntity
100
AcDbLine
  8
text
 62
256
370
-1
  6
ByLayer
 10
131.1111111111110858
 20
115.0
 30
0.0
 11
131.1111111111110858
 21
106.1111111111111143
 31
0.0
  0
ARC
  5
1B6
100
AcDbEntity
  8
text
 62
256
370
-1
  6
ByLayer
100
AcDbCircle
 10
132.2222222222221717
 20
106.1111111111111143
 30
0.0
 40
1.1111111111111112
100
AcDbArc
 50
180.0
 51
270.0
  0
LINE
  5
1B7
100
AcDbEntity
100
AcDbLine
  8
text
 62
256
370
-1
  6
ByLayer
 10
136.1111111111110858
 20
111.6666666666666572
 30
0.0
 11
138.3333333333333144
 21
111.6666666666666572
 31
0.0
  0
ARC
  5
1B8
100
AcDbEntity
  8
text
 62
256
370
-1
  6
ByLayer
100
AcDbCircle
 10
138.3333333333333144
 20
110.0
 30
0.0
 40
1.6666666666666667
100
AcDbArc
 50
0.0
 51
90.0
  0
LINE
  5
1B9
100
AcDbEntity
100
AcDbLine
  8
text
 62
256
370
-1
  6
ByLayer
 10
140.0
 20
110.0
 30
0.0
 11
140.0
 21
105.0
 31
0.0
  0
LINE
  5
1BA
100
AcDbEntity
100
AcDbLine
  8
text
 62
256
370
-1
  6
ByLayer
 10
140.0
 20
105.0
 30
0.0
 11
137.2222222222222285
 21
105.0
 31
0.0
  0
ARC
  5
1BB
100
AcDbEntity
  8
text
 62
256
370
-1
  6
ByLayer
100
AcDbCircle
 10
137.2222222222222285
 20
106.6666666666666572
 30
0.0
 40
1.6666666666666667
100
AcDbArc
 50
90.0
 51
270.0
  0
LINE
  5
1BC
100
AcDbEntity
100
AcDbLine
  8
text
 62
256
370
-1
  6
ByLayer
 10
137.2222222222222285
 20
108.3333333333333286
 30
0.0
 11
140.0
 21
108.3333333333333286
 31
0.0
  0
LINE
  5
1BD
100
AcDbEntity
100
AcDbLine
  8
text
 62
256
370
-1
  6
ByLayer
 10
143.3333333333333144
 20
111.6666666666666714
 30
0.0
 11
146.6666666666666288
 21
111.6666666666666714
 31
0.0
  0
LINE
  5
1BE
100
AcDbEntity
100
AcDbLine
  8
text
 62
256
370
-1
  6
ByLayer
 10
144.4444444444444002
 20
115.0
 30
0.0
 11
144.4444444444444002
 21
105.0
 31
0.0
  0
LINE
  5
1BF
100
AcDbEntity
100
AcDbLine
  8
text
 62
256
370
-1
  6
ByLayer
 10
151.1111111111110858
 20
105.0
 30
0.0
 11
151.1111111111110858
 21
113.3333333333333286
 31
0.0
  0
ARC
  5
1C0
100
AcDbEntity
  8
text
 62
256
370
-1
  6
ByLayer
100
AcDbCircle
 10
152.7777777777777715
 20
113.3333333333333286
 30
0.0
 40
1.6666666666666667
100
AcDbArc
 50
90.0
 51
180.0
  0
LINE
  5
1C1
100
AcDbEntity
100
AcDbLine
  8
text
 62
256
370
-1
  6
ByLayer
 10
152.7777777777777715
 20
115.0
 30
0.0
 11
153.3333333333333144
 21
115.0
 31
0.0
  0
LINE
  5
1C2
100
AcDbEntity
100
AcDbLine
  8
text
 62
256
370
-1
  6
ByLayer
 10
150.0
 20
111.6666666666666714
 30
0.0
 11
153.3333333333333144
 21
111.6666666666666714
 31
0.0
  0
LINE
  5
1C3
100
AcDbEntity
100
AcDbLine
  8
text
 62
256
370
-1
  6
ByLayer
 10
156.6666666666666856
 20
109.4444444444444429
 30
0.0
 11
156.6666666666666856
 21
107.2222222222222285
 31
0.0
  0
ARC
  5
1C4
100
AcDbEntity
  8
text
 62
256
370
-1
  6
ByLayer
100
AcDbCircle
 10
158.8888888888889142
 20
107.2222222222222285
 30
0.0
 40
2.2222222222222223
100
AcDbArc
 50
180.0
 51
0.0
  0
LINE
  5
1C5
100
AcDbEntity
100
AcDbLine
  8
text
 62
256
370
-1
  6
ByLayer
 10
161.1111111111111427
 20
107.2222222222222285
 30
0.0
 11
161.1111111111111427
 21
109.4444444444444429
 31
0.0
  0
ARC
  5
1C6
100
AcDbEntity
  8
text
 62
256
370
-1
  6
ByLayer
100
AcDbCircle
 10
158.8888888888889142
 20
109.4444444444444429
 30
0.0
 40
2.2222222222222223
100
AcDbArc
 50
0.0
 51
180.0
  0
LINE
  5
1C7
100
AcDbEntity
100
AcDbLine
  8
text
 62
256
370
-1
  6
ByLayer
 10
164.4444444444444571
 20
104.9999999999999858
 30
0.0
 11
164.4444444444444571
 21
111.6666666666666572
 31
0.0
  0
LINE
  5
1C8
100
AcDbEntity
100
AcDbLine
  8
text
 62
256
370
-1
  6
ByLayer
 10
164.4444444444444571
 20
111.6666666666666572
 30
0.0
 11
166.6666666666666856
 21
111.6666666666666572
 31
0.0
  0
ARC
  5
1C9
100
AcDbEntity
  8
text
 62
256
370
-1
  6
ByLayer
100
AcDbCircle
 10
166.6666666666666856
 20
110.5555555555555429
 30
0.0
 40
1.1111111111111112
100
AcDbArc
 50
0.0
 51
90.0
  0
LINE
  5
1CA
100
AcDbEntity
100
AcDbLine
  8
text
 62
256
370
-1
  6
ByLayer
 10
171.1111111111110858
 20
105.0
 30
0.0
 11
171.1111111111110858
 21
111.6666666666666714
 31
0.0
  0
LINE
  5
1CB
100
AcDbEntity
100
AcDbLine
  8
text
 62
256
370
-1
  6
ByLayer
 10
171.1111111111110858
 20
111.6666666666666714
 30
0.0
 11
176.1111111111110858
 21
111.6666666666666714
 31
0.0
  0
ARC
  5
1CC
100
AcDbEntity
  8
text
 62
256
370
-1
  6
ByLayer
100
AcDbCircle
 10
176.1111111111110858
 20
110.0
 30
0.0
 40
1.6666666666666667
100
AcDbArc
 50
0.0
 51
90.0
  0
LINE
  5
1CD
100
AcDbEntity
100
AcDbLine
  8
text
 62
256
370
-1
  6
ByLayer
 10
177.7777777777777715
 20
110.0
 30
0.0
 11
177.7777777777777715
 21
105.0
 31
0.0
  0
LINE
  5
1CE
100
AcDbEntity
100
AcDbLine
  8
text
 62
256
370
-1
  6
ByLayer
 10
174.4444444444444002
 20
111.6666666666666714
 30
0.0
 11
174.4444444444444002
 21
105.0
 31
0.0
  0
CIRCLE
  5
1CF
100
AcDbEntity
100
AcDbCircle
  8
build-platform
 62
256
370
-1
  6
ByLayer
 10
241.0
 20
165.0
 30
0.0
 40
2.7000000000000002
  0
CIRCLE
  5
1D0
100
AcDbEntity
100
AcDbCircle
  8
build-platform
 62
256
370
-1
  6
ByLayer
 10
256.0
 20
150.0
 30
0.0
 40
2.7000000000000002
  0
CIRCLE
  5
1D1
100
AcDbEntity
100
AcDbCircle
  8
build-platform
 62
256
370
-1
  6
ByLayer
 10
241.0
 20
135.0
 30
0.0
 40
2.7000000000000002
  0
LINE
  5
1D2
100
AcDbEntity
100
AcDbLine
  8
build-platform
 62
256
370
-1
  6
ByLayer
 10
225.5900000000000318
 20
153.9900000000000091
 30
0.0
 11
228.4099999999999682
 21
153.9900000000000091
 31
0.0
  0
LINE
  5
1D3
100
AcDbEntity
100
AcDbLine
  8
build-platform
 62
256
370
-1
  6
ByLayer
 10
228.4099999999999682
 20
153.9900000000000091
 30
0.0
 11
228.4099999999999682
 21
156.8100000000000023
 31
0.0
  0
LINE
  5
1D4
100
AcDbEntity
100
AcDbLine
  8
build-platform
 62
256
370
-1
  6
ByLayer
 10
228.4099999999999682
 20
156.8100000000000023
 30
0.0
 11
225.5900000000000318
 21
156.8100000000000023
 31
0.0
  0
LINE
  5
1D5
100
AcDbEntity
100
AcDbLine
  8
build-platform
 62
256
370
-1
  6
ByLayer
 10
225.5900000000000318
 20
156.8100000000000023
 30
0.0
 11
225.5900000000000318
 21
153.9900000000000091
 31
0.0
  0
LINE
  5
1D6
100
AcDbEntity
100
AcDbLine
  8
build-platform
 62
256
370
-1
  6
ByLayer
 10
225.5900000000000318
 20
143.1900000000000261
 30
0.0
 11
228.4099999999999682
 21
143.1900000000000261
 31
0.0
  0
LINE
  5
1D7
100
AcDbEntity
100
AcDbLine
  8
build-platform
 62
256
370
-1
  6
ByLayer
 10
228.4099999999999682
 20
143.1900000000000261
 30
0.0
 11
228.4099999999999682
 21
146.0100000000000193
 31
0.0
  0
LINE
  5
1D8
100
AcDbEntity
100
AcDbLine
  8
build-platform
 62
256
370
-1
  6
ByLayer
 10
228.4099999999999682
 20
146.0100000000000193
 30
0.0
 11
225.5900000000000318
 21
146.0100000000000193
 31
0.0
  0
LINE
  5
1D9
100
AcDbEntity
100
AcDbLine
  8
build-platform
 62
256
370
-1
  6
ByLayer
 10
225.5900000000000318
 20
146.0100000000000193
 30
0.0
 11
225.5900000000000318
 21
143.1900000000000261
 31
0.0
  0
LINE
  5
1DA
100
AcDbEntity
100
AcDbLine
  8
build-platform
 62
256
370
-1
  6
ByLayer
 10
239.5900000000000318
 20
148.5900000000000034
 30
0.0
 11
242.4099999999999682
 21
148.5900000000000034
 31
0.0
  0
LINE
  5
1DB
100
AcDbEntity
100
AcDbLine
  8
build-platform
 62
256
370
-1
  6
ByLayer
 10
242.4099999999999682
 20
148.5900000000000034
 30
0.0
 11
242.4099999999999682
 21
151.4099999999999966
 31
0.0
  0
LINE
  5
1DC
100
AcDbEntity
100
AcDbLine
  8
build-platform
 62
256
370
-1
  6
ByLayer
 10
242.4099999999999682
 20
151.4099999999999966
 30
0.0
 11
239.5900000000000318
 21
151.4099999999999966
 31
0.0
  0
LINE
  5
1DD
100
AcDbEntity
100
AcDbLine
  8
build-platform
 62
256
370
-1
  6
ByLayer
 10
239.5900000000000318
 20
151.4099999999999966
 30
0.0
 11
239.5900000000000318
 21
148.5900000000000034
 31
0.0
  0
LINE
  5
1DE
100
AcDbEntity
100
AcDbLine
  8
build-platform
 62
256
370
-1
  6
ByLayer
 10
271.5900000000000318
 20
153.9900000000000091
 30
0.0
 11
274.4099999999999682
 21
153.9900000000000091
 31
0.0
  0
LINE
  5
1DF
100
AcDbEntity
100
AcDbLine
  8
build-platform
 62
256
370
-1
  6
ByLayer
 10
274.4099999999999682
 20
153.9900000000000091
 30
0.0
 11
274.4099999999999682
 21
156.8100000000000023
 31
0.0
  0
LINE
  5
1E0
100
AcDbEntity
100
AcDbLine
  8
build-platform
 62
256
370
-1
  6
ByLayer
 10
274.4099999999999682
 20
156.8100000000000023
 30
0.0
 11
271.5900000000000318
 21
156.8100000000000023
 31
0.0
  0
LINE
  5
1E1
100
AcDbEntity
100
AcDbLine
  8
build-platform
 62
256
370
-1
  6
ByLayer
 10
271.5900000000000318
 20
156.8100000000000023
 30
0.0
 11
271.5900000000000318
 21
153.9900000000000091
 31
0.0
  0
LINE
  5
1E2
100
AcDbEntity
100
AcDbLine
  8
build-platform
 62
256
370
-1
  6
ByLayer
 10
271.5900000000000318
 20
143.1900000000000261
 30
0.0
 11
274.4099999999999682
 21
143.1900000000000261
 31
0.0
  0
LINE
  5
1E3
100
AcDbEntity
100
AcDbLine
  8
build-platform
 62
256
370
-1
  6
ByLayer
 10
274.4099999999999682
 20
143.1900000000000261
 30
0.0
 11
274.4099999999999682
 21
146.0100000000000193
 31
0.0
  0
LINE
  5
1E4
100
AcDbEntity
100
AcDbLine
  8
build-platform
 62
256
370
-1
  6
ByLayer
 10
274.4099999999999682
 20
146.0100000000000193
 30
0.0
 11
271.5900000000000318
 21
146.0100000000000193
 31
0.0
  0
LINE
  5
1E5
100
AcDbEntity
100
AcDbLine
  8
build-platform
 62
256
370
-1
  6
ByLayer
 10
271.5900000000000318
 20
146.0100000000000193
 30
0.0
 11
271.5900000000000318
 21
143.1900000000000261
 31
0.0
  0
LINE
  5
1E6
100
AcDbEntity
100
AcDbLine
  8
text
 62
256
370
-1
  6
ByLayer
 10
235.5555555555555429
 20
185.0
 30
0.0
 11
235.5555555555555429
 21
195.0
 31
0.0
  0
LINE
  5
1E7
100
AcDbEntity
100
AcDbLine
  8
text
 62
256
370
-1
  6
ByLayer
 10
235.5555555555555429
 20
195.0
 30
0.0
 11
238.3333333333333144
 21
195.0
 31
0.0
  0
ARC
  5
1E8
100
AcDbEntity
  8
text
 62
256
370
-1
  6
ByLayer
100
AcDbCircle
 10
238.3333333333333144
 20
192.7777777777777715
 30
0.0
 40
2.2222222222222223
100
AcDbArc
 50
270.0
 51
90.0
  0
LINE
  5
1E9
100
AcDbEntity
100
AcDbLine
  8
text
 62
256
370
-1
  6
ByLayer
 10
235.5555555555555429
 20
190.5555555555555429
 30
0.0
 11
238.4444444444444571
 21
190.5555555555555429
 31
0.0
  0
ARC
  5
1EA
100
AcDbEntity
  8
text
 62
256
370
-1
  6
ByLayer
100
AcDbCircle
 10
238.4444444444444571
 20
187.8888888888888857
 30
0.0
 40
2.6666666666666665
100
AcDbArc
 50
0.0
 51
90.0
  0
LINE
  5
1EB
100
AcDbEntity
100
AcDbLine
  8
text
 62
256
370
-1
  6
ByLayer
 10
241.1111111111110858
 20
187.8888888888888857
 30
0.0
 11
241.1111111111110858
 21
187.6666666666666856
 31
0.0
  0
ARC
  5
1EC
100
AcDbEntity
  8
text
 62
256
370
-1
  6
ByLayer
100
AcDbCircle
 10
238.4444444444444571
 20
187.6666666666666856
 30
0.0
 40
2.6666666666666665
100
AcDbArc
 50
270.0
 51
0.0
  0
LINE
  5
1ED
100
AcDbEntity
100
AcDbLine
  8
text
 62
256
370
-1
  6
ByLayer
 10
238.4444444444444571
 20
185.0
 30
0.0
 11
235.5555555555555429
 21
185.0
 31
0.0
  0
LINE
  5
1EE
100
AcDbEntity
100
AcDbLine
  8
text
 62
256
370
-1
  6
ByLayer
 10
244.4444444444444571
 20
191.6666666666666856
 30
0.0
 11
244.4444444444444571
 21
186.6666666666666856
 31
0.0
  0
ARC
  5
1EF
100
AcDbEntity
  8
text
 62
256
370
-1
  6
ByLayer
100
AcDbCircle
 10
246.1111111111111427
 20
186.6666666666666856
 30
0.0
 40
1.6666666666666667
100
AcDbArc
 50
180.0
 51
270.0
  0
LINE
  5
1F0
100
AcDbEntity
100
AcDbLine
  8
text
 62
256
370
-1
  6
ByLayer
 10
246.1111111111111427
 20
185.0
 30
0.0
 11
248.8888888888889142
 21
185.0
 31
0.0
  0
LINE
  5
1F1
100
AcDbEntity
100
AcDbLine
  8
text
 62
256
370
-1
  6
ByLayer
 10
248.8888888888889142
 20
185.0
 30
0.0
 11
248.8888888888889142
 21
191.6666666666666856
 31
0.0
  0
LINE
  5
1F2
100
AcDbEntity
100
AcDbLine
  8
text
 62
256
370
-1
  6
ByLayer
 10
252.2222222222222285
 20
185.0
 30
0.0
 11
252.2222222222222285
 21
191.6666666666666856
 31
0.0
  0
LINE
  5
1F3
100
AcDbEntity
100
AcDbLine
  8
text
 62
256
370
-1
  6
ByLayer
 10
252.2222222222222285
 20
194.4444444444444571
 30
0.0
 11
252.2222222222222285
 21
195.0
 31
0.0
  0
LINE
  5
1F4
100
AcDbEntity
100
AcDbLine
  8
text
 62
256
370
-1
  6
ByLayer
 10
255.5555555555555429
 20
195.0
 30
0.0
 11
255.5555555555555429
 21
186.1111111111111143
 31
0.0
  0
ARC
  5
1F5
100
AcDbEntity
  8
text
 62
256
370
-1
  6
ByLayer
100
AcDbCircle
 10
256.6666666666666288
 20
186.1111111111111143
 30
0.0
 40
1.1111111111111112
100
AcDbArc
 50
180.0
 51
270.0
  0
LINE
  5
1F6
100
AcDbEntity
100
AcDbLine
  8
text
 62
256
370
-1
  6
ByLayer
 10
264.4444444444444571
 20
195.0
 30
0.0
 11
264.4444444444444571
 21
185.0
 31
0.0
  0
LINE
  5
1F7
100
AcDbEntity
100
AcDbLine
  8
text
 62
256
370
-1
  6
ByLayer
 10
264.4444444444444571
 20
185.0
 30
0.0
 11
261.6666666666666856
 21
185.0
 31
0.0
  0
ARC
  5
1F8
100
AcDbEntity
  8
text
 62
256
370
-1
  6
ByLayer
100
AcDbCircle
 10
261.6666666666666856
 20
186.6666666666666856
 30
0.0
 40
1.6666666666666667
100
AcDbArc
 50
180.0
 51
270.0
  0
LINE
  5
1F9
100
AcDbEntity
100
AcDbLine
  8
text
 62
256
370
-1
  6
ByLayer
 10
260.0
 20
186.6666666666666856
 30
0.0
 11
260.0
 21
190.0
 31
0.0
  0
ARC
  5
1FA
100
AcDbEntity
  8
text
 62
256
370
-1
  6
ByLayer
100
AcDbCircle
 10
261.6666666666666856
 20
190.0
 30
0.0
 40
1.6666666666666667
100
AcDbArc
 50
90.0
 51
180.0
  0
LINE
  5
1FB
100
AcDbEntity
100
AcDbLine
  8
text
 62
256
370
-1
  6
ByLayer
 10
261.6666666666666856
 20
191.6666666666666856
 30
0.0
 11
264.4444444444444571
 21
191.6666666666666856
 31
0.0
  0
LINE
  5
1FC
100
AcDbEntity
100
AcDbLine
  8
text
 62
256
370
-1
  6
ByLayer
 10
222.2222222222222285
 20
105.0000000000000142
 30
0.0
 11
222.2222222222222285
 21
115.0000000000000142
 31
0.0
  0
LINE
  5
1FD
100
AcDbEntity
100
AcDbLine
  8
text
 62
256
370
-1
  6
ByLayer
 10
222.2222222222222285
 20
115.0000000000000142
 30
0.0
 11
225.5555555555555429
 21
115.0000000000000142
 31
0.0
  0
ARC
  5
1FE
100
AcDbEntity
  8
text
 62
256
370
-1
  6
ByLayer
100
AcDbCircle
 10
225.5555555555555429
 20
112.7777777777777999
 30
0.0
 40
2.2222222222222223
100
AcDbArc
 50
0.0
 51
90.0
  0
LINE
  5
1FF
100
AcDbEntity
100
AcDbLine
  8
text
 62
256
370
-1
  6
ByLayer
 10
227.7777777777777715
 20
112.7777777777777999
 30
0.0
 11
227.7777777777777715
 21
111.6666666666666856
 31
0.0
  0
ARC
  5
200
100
AcDbEntity
  8
text
 62
256
370
-1
  6
ByLayer
100
AcDbCircle
 10
225.5555555555555429
 20
111.6666666666666856
 30
0.0
 40
2.2222222222222223
100
AcDbArc
 50
270.0
 51
0.0
  0
LINE
  5
201
100
AcDbEntity
100
AcDbLine
  8
text
 62
256
370
-1
  6
ByLayer
 10
225.5555555555555429
 20
109.4444444444444571
 30
0.0
 11
222.2222222222222285
 21
109.4444444444444571
 31
0.0
  0
LINE
  5
202
100
AcDbEntity
100
AcDbLine
  8
text
 62
256
370
-1
  6
ByLayer
 10
231.1111111111110858
 20
115.0
 30
0.0
 11
231.1111111111110858
 21
106.1111111111111143
 31
0.0
  0
ARC
  5
203
100
AcDbEntity
  8
text
 62
256
370
-1
  6
ByLayer
100
AcDbCircle
 10
232.2222222222221717
 20
106.1111111111111143
 30
0.0
 40
1.1111111111111112
100
AcDbArc
 50
180.0
 51
270.0
  0
LINE
  5
204
100
AcDbEntity
100
AcDbLine
  8
text
 62
256
370
-1
  6
ByLayer
 10
236.1111111111110858
 20
111.6666666666666572
 30
0.0
 11
238.3333333333333144
 21
111.6666666666666572
 31
0.0
  0
ARC
  5
205
100
AcDbEntity
  8
text
 62
256
370
-1
  6
ByLayer
100
AcDbCircle
 10
238.3333333333333144
 20
110.0
 30
0.0
 40
1.6666666666666667
100
AcDbArc
 50
0.0
 51
90.0
  0
LINE
  5
206
100
AcDbEntity
100
AcDbLine
  8
text
 62
256
370
-1
  6
ByLayer
 10
240.0
 20
110.0
 30
0.0
 11
240.0
 21
105.0
 31
0.0
  0
LINE
  5
207
100
AcDbEntity
100
AcDbLine
  8
text
 62
256
370
-1
  6
ByLayer
 10
240.0
 20
105.0
 30
0.0
 11
237.2222222222222285
 21
105.0
 31
0.0
  0
ARC
  5
208
100
AcDbEntity
  8
text
 62
256
370
-1
  6
ByLayer
100
AcDbCircle
 10
237.2222222222222285
 20
106.6666666666666572
 30
0.0
 40
1.6666666666666667
100
AcDbArc
 50
90.0
 51
270.0
  0
LINE
  5
209
100
AcDbEntity
100
AcDbLine
  8
text
 62
256
370
-1
  6
ByLayer
 10
237.2222222222222285
 20
108.3333333333333286
 30
0.0
 11
240.0
 21
108.3333333333333286
 31
0.0
  0
LINE
  5
20A
100
AcDbEntity
100
AcDbLine
  8
text
 62
256
370
-1
  6
ByLayer
 10
243.3333333333333144
 20
111.6666666666666714
 30
0.0
 11
246.6666666666666288
 21
111.6666666666666714
 31
0.0
  0
LINE
  5
20B
100
AcDbEntity
100
AcDbLine
  8
text
 62
256
370
-1
  6
ByLayer
 10
244.4444444444444002
 20
115.0
 30
0.0
 11
244.4444444444444002
 21
105.0
 31
0.0
  0
LINE
  5
20C
100
AcDbEntity
100
AcDbLine
  8
text
 62
256
370
-1
  6
ByLayer
 10
251.1111111111110858
 20
105.0
 30
0.0
 11
251.1111111111110858
 21
113.3333333333333286
 31
0.0
  0
ARC
  5
20D
100
AcDbEntity
  8
text
 62
256
370
-1
  6
ByLayer
100
AcDbCircle
 10
252.7777777777777715
 20
113.3333333333333286
 30
0.0
 40
1.6666666666666667
100
AcDbArc
 50
90.0
 51
180.0
  0
LINE
  5
20E
100
AcDbEntity
100
AcDbLine
  8
text
 62
256
370
-1
  6
ByLayer
 10
252.7777777777777715
 20
115.0
 30
0.0
 11
253.3333333333333144
 21
115.0
 31
0.0
  0
LINE
  5
20F
100
AcDbEntity
100
AcDbLine
  8
text
 62
256
370
-1
  6
ByLayer
 10
250.0
 20
111.6666666666666714
 30
0.0
 11
253.3333333333333144
 21
111.6666666666666714
 31
0.0
  0
LINE
  5
210
100
AcDbEntity
100
AcDbLine
  8
text
 62
256
370
-1
  6
ByLayer
 10
256.6666666666666856
 20
109.4444444444444429
 30
0.0
 11
256.6666666666666856
 21
107.2222222222222285
 31
0.0
  0
ARC
  5
211
100
AcDbEntity
  8
text
 62
256
370
-1
  6
ByLayer
100
AcDbCircle
 10
258.8888888888889142
 20
107.2222222222222285
 30
0.0
 40
2.2222222222222223
100
AcDbArc
 50
180.0
 51
0.0
  0
LINE
  5
212
100
AcDbEntity
100
AcDbLine
  8
text
 62
256
370
-1
  6
ByLayer
 10
261.1111111111111427
 20
107.2222222222222285
 30
0.0
 11
261.1111111111111427
 21
109.4444444444444429
 31
0.0
  0
ARC
  5
213
100
AcDbEntity
  8
text
 62
256
370
-1
  6
ByLayer
100
AcDbCircle
 10
258.8888888888889142
 20
109.4444444444444429
 30
0.0
 40
2.2222222222222223
100
AcDbArc
 50
0.0
 51
180.0
  0
LINE
  5
214
100
AcDbEntity
100
AcDbLine
  8
text
 62
256
370
-1
  6
ByLayer
 10
264.4444444444444571
 20
104.9999999999999858
 30
0.0
 11
264.4444444444444571
 21
111.6666666666666572
 31
0.0
  0
LINE
  5
215
100
AcDbEntity
100
AcDbLine
  8
text
 62
256
370
-1
  6
ByLayer
 10
264.4444444444444571
 20
111.6666666666666572
 30
0.0
 11
266.6666666666666856
 21
111.6666666666666572
 31
0.0
  0
ARC
  5
216
100
AcDbEntity
  8
text
 62
256
370
-1
  6
ByLayer
100
AcDbCircle
 10
266.6666666666666856
 20
110.5555555555555429
 30
0.0
 40
1.1111111111111112
100
AcDbArc
 50
0.0
 51
90.0
  0
LINE
  5
217
100
AcDbEntity
100
AcDbLine
  8
text
 62
256
370
-1
  6
ByLayer
 10
271.1111111111110858
 20
105.0
 30
0.0
 11
271.1111111111110858
 21
111.6666666666666714
 31
0.0
  0
LINE
  5
218
100
AcDbEntity
100
AcDbLine
  8
text
 62
256
370
-1
  6
ByLayer
 10
271.1111111111110858
 20
111.6666666666666714
 30
0.0
 11
276.1111111111110858
 21
111.6666666666666714
 31
0.0
  0
ARC
  5
219
100
AcDbEntity
  8
text
 62
256
370
-1
  6
ByLayer
100
AcDbCircle
 10
276.1111111111110858
 20
110.0
 30
0.0
 40
1.6666666666666667
100
AcDbArc
 50
0.0
 51
90.0
  0
LINE
  5
21A
100
AcDbEntity
100
AcDbLine
  8
text
 62
256
370
-1
  6
ByLayer
 10
277.7777777777777715
 20
110.0
 30
0.0
 11
277.7777777777777715
 21
105.0
 31
0.0
  0
LINE
  5
21B
100
AcDbEntity
100
AcDbLine
  8
text
 62
256
370
-1
  6
ByLayer
 10
274.4444444444444002
 20
111.6666666666666714
 30
0.0
 11
274.4444444444444002
 21
105.0
 31
0.0
  0
LINE
  5
21C
100
AcDbEntity
100
AcDbLine
  8
build-platform
 62
256
370
-1
  6
ByLayer
 10
0.0
 20
200.0
 30
0.0
 11
300.0
 21
200.0
 31
0.0
  0
LINE
  5
21D
100
AcDbEntity
100
AcDbLine
  8
build-platform
 62
256
370
-1
  6
ByLayer
 10
300.0
 20
200.0
 30
0.0
 11
300.0
 21
0.0
 31
0.0
  0
LINE
  5
21E
100
AcDbEntity
100
AcDbLine
  8
build-platform
 62
256
370
-1
  6
ByLayer
 10
300.0
 20
0.0
 30
0.0
 11
0.0
 21
0.0
 31
0.0
  0
LINE
  5
21F
100
AcDbEntity
100
AcDbLine
  8
build-platform
 62
256
370
-1
  6
ByLayer
 10
0.0
 20
0.0
 30
0.0
 11
0.0
 21
200.0
 31
0.0
  0
LINE
  5
220
100
AcDbEntity
100
AcDbLine
  8
build-platform
 62
256
370
-1
  6
ByLayer
 10
0.0
 20
100.0
 30
0.0
 11
300.0
 21
100.0
 31
0.0
  0
LINE
  5
221
100
AcDbEntity
100
AcDbLine
  8
build-platform
 62
256
370
-1
  6
ByLayer
 10
200.0
 20
200.0
 30
0.0
 11
200.0
 21
0.0
 31
0.0
  0
LINE
  5
222
100
AcDbEntity
100
AcDbLine
  8
build-platform
 62
256
370
-1
  6
ByLayer
 10
100.0
 20
200.0
 30
0.0
 11
100.0
 21
0.0
 31
0.0
  0
ENDSEC
  0
SECTION
  2
OBJECTS
  0
DICTIONARY
  5
C
100
AcDbDictionary
280
0
281
1
  3
ACAD_GROUP
350
D
  3
ACAD_LAYOUT
350
1A
  3
ACAD_MLINESTYLE
350
17
  3
ACAD_PLOTSETTINGS
350
19
  3
ACAD_PLOTSTYLENAME
350
E
  3
AcDbVariableDictionary
350
223
  0
DICTIONARY
  5
D
100
AcDbDictionary
280
0
281
1
  0
ACDBDICTIONARYWDFLT
  5
E
100
AcDbDictionary
281
1
  3
Normal
350
F
100
AcDbDictionaryWithDefault
340
F
  0
ACDBPLACEHOLDER
  5
F
  0
DICTIONARY
  5
17
100
AcDbDictionary
280
0
281
1
  3
Standard
350
18
  0
MLINESTYLE
  5
18
100
AcDbMlineStyle
  2
STANDARD
 70
0
  3

 62
256
 51
90.0
 52
90.0
 71
2
 49
0.5
 62
256
  6
BYLAYER
 49
-0.5
 62
256
  6
BYLAYER
  0
DICTIONARY
  5
19
100
AcDbDictionary
280
0
281
1
  0
DICTIONARY
  5
1A
100
AcDbDictionary
281
1
  3
Layout1
350
1E
  3
Layout2
350
26
  3
Model
350
22
  0
LAYOUT
  5
1E
100
AcDbPlotSettings
  1

  2
C:\Program Files\AutoCAD 2002\plotters\DWF ePlot (optimized for plotting).pc3
  4

  6

 40
0.0
 41
0.0
 42
0.0
 43
0.0
 44
0.0
 45
0.0
 46
0.0
 47
0.0
 48
0.0
 49
0.0
140
0.0
141
0.0
142
1.0
143
1.0
 70
688
 72
0
 73
0
 74
5
  7

 75
16
147
1.0
148
0.0
149
0.0
100
AcDbLayout
  1
Layout1
 70
1
 71
1
 10
0.0
 20
0.0
 11
420.0
 21
297.0
 12
0.0
 22
0.0
 32
0.0
 14
100000000000000000000.0
 24
100000000000000000000.0
 34
100000000000000000000.0
 15
-100000000000000000000.0
 25
-100000000000000000000.0
 35
-100000000000000000000.0
146
0.0
 13
0.0
 23
0.0
 33
0.0
 16
1.0
 26
0.0
 36
0.0
 17
0.0
 27
1.0
 37
0.0
 76
0
330
1B
  0
LAYOUT
  5
22
100
AcDbPlotSettings
  1

  2
C:\Program Files\AutoCAD 2002\plotters\DWF ePlot (optimized for plotting).pc3
  4

  6

 40
0.0
 41
0.0
 42
0.0
 43
0.0
 44
0.0
 45
0.0
 46
0.0
 47
0.0
 48
0.0
 49
0.0
140
0.0
141
0.0
142
1.0
143
1.0
 70
1712
 72
0
 73
0
 74
0
  7

 75
0
147
1.0
148
0.0
149
0.0
100
AcDbLayout
  1
Model
 70
1
 71
0
 10
0.0
 20
0.0
 11
12.0
 21
9.0
 12
0.0
 22
0.0
 32
0.0
 14
0.0
 24
0.0
 34
0.0
 15
0.0
 25
0.0
 35
0.0
146
0.0
 13
0.0
 23
0.0
 33
0.0
 16
1.0
 26
0.0
 36
0.0
 17
0.0
 27
1.0
 37
0.0
 76
0
330
1F
  0
LAYOUT
  5
26
100
AcDbPlotSettings
  1

  2
C:\Program Files\AutoCAD 2002\plotters\DWF ePlot (optimized for plotting).pc3
  4

  6

 40
0.0
 41
0.0
 42
0.0
 43
0.0
 44
0.0
 45
0.0
 46
0.0
 47
0.0
 48
0.0
 49
0.0
140
0.0
141
0.0
142
1.0
143
1.0
 70
688
 72
0
 73
0
 74
5
  7

 75
16
147
1.0
148
0.0
149
0.0
100
AcDbLayout
  1
Layout2
 70
1
 71
2
 10
0.0
 20
0.0
 11
12.0
 21
9.0
 12
0.0
 22
0.0
 32
0.0
 14
0.0
 24
0.0
 34
0.0
 15
0.0
 25
0.0
 35
0.0
146
0.0
 13
0.0
 23
0.0
 33
0.0
 16
1.0
 26
0.0
 36
0.0
 17
0.0
 27
1.0
 37
0.0
 76
0
330
23
  0
DICTIONARY
  5
223
100
AcDbDictionary
281
1
  3
DIMASSOC
350
225
  3
HIDETEXT
350
224
  0
DICTIONARYVAR
  5
224
100
DictionaryVariables
280
0
  1
2
  0
DICTIONARYVAR
  5
225
100
DictionaryVariables
280
0
  1
1
  0
ENDSEC
  0
EOF
