999
dxflib 2.2.0.0
  0
SECTION
  2
HEADER
  9
$ACADVER
  1
AC1015
  9
$HANDSEED
  5
FFFF
  9
$DIMASZ
 40
2.5
  9
$PLIMMIN
 10
0.0
 20
0.0
  9
$DIMEXE
 40
1.25
  9
$DIMGAP
 40
0.625
  9
$PLIMMAX
 10
210.0
 20
297.0
  9
$INSUNITS
 70
4
  9
$DIMSTYLE
  2
Standard
  9
$CLAYER
  8
0
  9
$DIMEXO
 40
0.625
  9
$DIMTXT
 40
2.5
  9
$CLAYER
  8
text
  0
ENDSEC
  0
SECTION
  2
TABLES
  0
TABLE
  2
VPORT
  5
8
100
AcDbSymbolTable
 70
1
  0
VPORT
  5
30
100
AcDbSymbolTableRecord
100
AcDbViewportTableRecord
  2
*Active
 70
0
 10
0.0
 20
0.0
 11
1.0
 21
1.0
 12
286.3055555555554861
 22
148.5
 13
0.0
 23
0.0
 14
10.0
 24
10.0
 15
10.0
 25
10.0
 16
0.0
 26
0.0
 36
1.0
 17
0.0
 27
0.0
 37
0.0
 40
297.0
 41
1.92798353909465
 42
50.0
 43
0.0
 44
0.0
 50
0.0
 51
0.0
 71
0
 72
100
 73
1
 74
3
 75
1
 76
1
 77
0
 78
0
281
0
 65
1
110
0.0
120
0.0
130
0.0
111
1.0
121
0.0
131
0.0
112
0.0
122
1.0
132
0.0
 79
0
146
0.0
  0
ENDTAB
  0
TABLE
  2
LTYPE
  5
5
100
AcDbSymbolTable
 70
21
  0
LTYPE
  5
14
100
AcDbSymbolTableRecord
100
AcDbLinetypeTableRecord
  2
ByBlock
 70
0
  3

 72
65
 73
0
 40
0.0
  0
LTYPE
  5
15
100
AcDbSymbolTableRecord
100
AcDbLinetypeTableRecord
  2
ByLayer
 70
0
  3

 72
65
 73
0
 40
0.0
  0
LTYPE
  5
16
100
AcDbSymbolTableRecord
100
AcDbLinetypeTableRecord
  2
CONTINUOUS
 70
0
  3
Solid line
 72
65
 73
0
 40
0.0
  0
LTYPE
  5
31
100
AcDbSymbolTableRecord
100
AcDbLinetypeTableRecord
  2
DOT
 70
0
  3
Dot . . . . . . . . . . . . . . . . . . . . . .
 72
65
 73
2
 40
6.3499999999999996
 49
0.0
 74
0
 49
-6.3499999999999996
 74
0
  0
LTYPE
  5
32
100
AcDbSymbolTableRecord
100
AcDbLinetypeTableRecord
  2
DOT2
 70
0
  3
Dot (.5x) .....................................
 72
65
 73
2
 40
3.1749999999999998
 49
0.0
 74
0
 49
-3.1749999999999998
 74
0
  0
LTYPE
  5
33
100
AcDbSymbolTableRecord
100
AcDbLinetypeTableRecord
  2
DOTX2
 70
0
  3
Dot (2x) .  .  .  .  .  .  .  .  .  .  .  .  .
 72
65
 73
2
 40
12.6999999999999993
 49
0.0
 74
0
 49
-12.6999999999999993
 74
0
  0
LTYPE
  5
34
100
AcDbSymbolTableRecord
100
AcDbLinetypeTableRecord
  2
DASHED
 70
0
  3
Dashed __ __ __ __ __ __ __ __ __ __ __ __ __ _
 72
65
 73
2
 40
19.0500000000000007
 49
12.6999999999999993
 74
0
 49
-6.3499999999999996
 74
0
  0
LTYPE
  5
35
100
AcDbSymbolTableRecord
100
AcDbLinetypeTableRecord
  2
DASHED2
 70
0
  3
Dashed (.5x) _ _ _ _ _ _ _ _ _ _ _ _ _ _ _ _ _
 72
65
 73
2
 40
9.5250000000000004
 49
6.3499999999999996
 74
0
 49
-3.1749999999999998
 74
0
  0
LTYPE
  5
36
100
AcDbSymbolTableRecord
100
AcDbLinetypeTableRecord
  2
DASHEDX2
 70
0
  3
Dashed (2x) ____  ____  ____  ____  ____  ___
 72
65
 73
2
 40
38.1000000000000014
 49
25.3999999999999986
 74
0
 49
-12.6999999999999993
 74
0
  0
LTYPE
  5
37
100
AcDbSymbolTableRecord
100
AcDbLinetypeTableRecord
  2
DASHDOT
 70
0
  3
Dash dot __ . __ . __ . __ . __ . __ . __ . __
 72
65
 73
4
 40
25.3999999999999986
 49
12.6999999999999993
 74
0
 49
-6.3499999999999996
 74
0
 49
0.0
 74
0
 49
-6.3499999999999996
 74
0
  0
LTYPE
  5
38
100
AcDbSymbolTableRecord
100
AcDbLinetypeTableRecord
  2
DASHDOT2
 70
0
  3
Dash dot (.5x) _._._._._._._._._._._._._._._.
 72
65
 73
4
 40
12.6999999999999993
 49
6.3499999999999996
 74
0
 49
-3.1749999999999998
 74
0
 49
0.0
 74
0
 49
-3.1749999999999998
 74
0
  0
LTYPE
  5
39
100
AcDbSymbolTableRecord
100
AcDbLinetypeTableRecord
  2
DASHDOTX2
 70
0
  3
Dash dot (2x) ____  .  ____  .  ____  .  ___
 72
65
 73
4
 40
50.7999999999999972
 49
25.3999999999999986
 74
0
 49
-12.6999999999999993
 74
0
 49
0.0
 74
0
 49
-12.6999999999999993
 74
0
  0
LTYPE
  5
3A
100
AcDbSymbolTableRecord
100
AcDbLinetypeTableRecord
  2
DIVIDE
 70
0
  3
Divide ____ . . ____ . . ____ . . ____ . . ____
 72
65
 73
6
 40
31.75
 49
12.6999999999999993
 74
0
 49
-6.3499999999999996
 74
0
 49
0.0
 74
0
 49
-6.3499999999999996
 74
0
 49
0.0
 74
0
 49
-6.3499999999999996
 74
0
  0
LTYPE
  5
3B
100
AcDbSymbolTableRecord
100
AcDbLinetypeTableRecord
  2
DIVIDE2
 70
0
  3
Divide (.5x) __..__..__..__..__..__..__..__.._
 72
65
 73
6
 40
15.875
 49
6.3499999999999996
 74
0
 49
-3.1749999999999998
 74
0
 49
0.0
 74
0
 49
-3.1749999999999998
 74
0
 49
0.0
 74
0
 49
-3.1749999999999998
 74
0
  0
LTYPE
  5
3C
100
AcDbSymbolTableRecord
100
AcDbLinetypeTableRecord
  2
DIVIDEX2
 70
0
  3
Divide (2x) ________  .  .  ________  .  .  _
 72
65
 73
6
 40
63.5
 49
25.3999999999999986
 74
0
 49
-12.6999999999999993
 74
0
 49
0.0
 74
0
 49
-12.6999999999999993
 74
0
 49
0.0
 74
0
 49
-12.6999999999999993
 74
0
  0
LTYPE
  5
3D
100
AcDbSymbolTableRecord
100
AcDbLinetypeTableRecord
  2
CENTER
 70
0
  3
Center ____ _ ____ _ ____ _ ____ _ ____ _ ____
 72
65
 73
4
 40
50.7999999999999972
 49
31.75
 74
0
 49
-6.3499999999999996
 74
0
 49
6.3499999999999996
 74
0
 49
-6.3499999999999996
 74
0
  0
LTYPE
  5
3E
100
AcDbSymbolTableRecord
100
AcDbLinetypeTableRecord
  2
CENTER2
 70
0
  3
Center (.5x) ___ _ ___ _ ___ _ ___ _ ___ _ ___
 72
65
 73
4
 40
28.5749999999999993
 49
19.0500000000000007
 74
0
 49
-3.1749999999999998
 74
0
 49
3.1749999999999998
 74
0
 49
-3.1749999999999998
 74
0
  0
LTYPE
  5
3F
100
AcDbSymbolTableRecord
100
AcDbLinetypeTableRecord
  2
CENTERX2
 70
0
  3
Center (2x) ________  __  ________  __  _____
 72
65
 73
4
 40
101.5999999999999943
 49
63.5
 74
0
 49
-12.6999999999999993
 74
0
 49
12.6999999999999993
 74
0
 49
-12.6999999999999993
 74
0
  0
LTYPE
  5
40
100
AcDbSymbolTableRecord
100
AcDbLinetypeTableRecord
  2
BORDER
 70
0
  3
Border __ __ . __ __ . __ __ . __ __ . __ __ .
 72
65
 73
6
 40
44.4500000000000028
 49
12.6999999999999993
 74
0
 49
-6.3499999999999996
 74
0
 49
12.6999999999999993
 74
0
 49
-6.3499999999999996
 74
0
 49
0.0
 74
0
 49
-6.3499999999999996
 74
0
  0
LTYPE
  5
41
100
AcDbSymbolTableRecord
100
AcDbLinetypeTableRecord
  2
BORDER2
 70
0
  3
Border (.5x) __.__.__.__.__.__.__.__.__.__.__.
 72
65
 73
6
 40
22.2250000000000014
 49
6.3499999999999996
 74
0
 49
-3.1749999999999998
 74
0
 49
6.3499999999999996
 74
0
 49
-3.1749999999999998
 74
0
 49
0.0
 74
0
 49
-3.1749999999999998
 74
0
  0
LTYPE
  5
42
100
AcDbSymbolTableRecord
100
AcDbLinetypeTableRecord
  2
BORDERX2
 70
0
  3
Border (2x) ____  ____  .  ____  ____  .  ___
 72
65
 73
6
 40
88.9000000000000057
 49
25.3999999999999986
 74
0
 49
-12.6999999999999993
 74
0
 49
25.3999999999999986
 74
0
 49
-12.6999999999999993
 74
0
 49
0.0
 74
0
 49
-12.6999999999999993
 74
0
  0
ENDTAB
  0
TABLE
  2
LAYER
  5
2
100
AcDbSymbolTable
 70
4
  0
LAYER
  5
10
100
AcDbSymbolTableRecord
100
AcDbLayerTableRecord
  2
0
 70
0
 62
7
420
0
  6
CONTINUOUS
370
25
390
F
  0
LAYER
  5
43
100
AcDbSymbolTableRecord
100
AcDbLayerTableRecord
  2
side
 70
0
 62
7
420
0
  6
CONTINUOUS
370
0
390
F
  0
LAYER
  5
44
100
AcDbSymbolTableRecord
100
AcDbLayerTableRecord
  2
cuts
 70
0
 62
7
420
0
  6
CONTINUOUS
370
0
390
F
  0
LAYER
  5
45
100
AcDbSymbolTableRecord
100
AcDbLayerTableRecord
  2
text
 70
0
 62
1
420
16711680
  6
CONTINUOUS
370
0
390
F
  0
ENDTAB
  0
TABLE
  2
STYLE
  5
3
100
AcDbSymbolTable
 70
1
  0
STYLE
  5
11
100
AcDbSymbolTableRecord
100
AcDbTextStyleTableRecord
  2
Standard
 70
0
 40
0.0
 41
0.75
 50
0.0
 71
0
 42
2.5
  3
txt
  4

  0
ENDTAB
  0
TABLE
  2
VIEW
  5
6
100
AcDbSymbolTable
 70
0
  0
ENDTAB
  0
TABLE
  2
UCS
  5
7
100
AcDbSymbolTable
 70
0
  0
ENDTAB
  0
TABLE
  2
APPID
  5
9
100
AcDbSymbolTable
 70
1
  0
APPID
  5
12
100
AcDbSymbolTableRecord
100
AcDbRegAppTableRecord
  2
ACAD
 70
0
  0
ENDTAB
  0
TABLE
  2
DIMSTYLE
  5
A
100
AcDbSymbolTable
 70
1
100
AcDbDimStyleTable
 71
0
  0
DIMSTYLE
105
27
100
AcDbSymbolTableRecord
100
AcDbDimStyleTableRecord
  2
Standard
 41
2.5
 42
0.625
 43
3.75
 44
1.25
 70
0
 73
0
 74
0
 77
1
 78
8
140
2.5
141
2.5
143
0.03937007874016
147
0.625
171
3
172
1
271
2
272
2
274
3
278
44
283
0
284
8
340
11
  0
ENDTAB
  0
TABLE
  2
BLOCK_RECORD
  5
1
100
AcDbSymbolTable
 70
1
  0
BLOCK_RECORD
  5
1F
100
AcDbSymbolTableRecord
100
AcDbBlockTableRecord
  2
*Model_Space
340
22
  0
BLOCK_RECORD
  5
1B
100
AcDbSymbolTableRecord
100
AcDbBlockTableRecord
  2
*Paper_Space
340
1E
  0
BLOCK_RECORD
  5
23
100
AcDbSymbolTableRecord
100
AcDbBlockTableRecord
  2
*Paper_Space0
340
26
  0
BLOCK_RECORD
  5
46
100
AcDbSymbolTableRecord
100
AcDbBlockTableRecord
  2
tab
340
0
  0
BLOCK_RECORD
  5
47
100
AcDbSymbolTableRecord
100
AcDbBlockTableRecord
  2
m3-t-slot
340
0
  0
ENDTAB
  0
ENDSEC
  0
SECTION
  2
BLOCKS
  0
BLOCK
  5
20
100
AcDbEntity
  8
0
100
AcDbBlockBegin
  2
*Model_Space
 70
0
 10
0.0
 20
0.0
 30
0.0
  3
*Model_Space
  1

  0
ENDBLK
  5
21
100
AcDbEntity
  8
0
100
AcDbBlockEnd
  0
BLOCK
  5
1C
100
AcDbEntity
 67
1
  8
0
100
AcDbBlockBegin
  2
*Paper_Space
 70
0
 10
0.0
 20
0.0
 30
0.0
  3
*Paper_Space
  1

  0
ENDBLK
  5
1D
100
AcDbEntity
 67
1
  8
0
100
AcDbBlockEnd
  0
BLOCK
  5
24
100
AcDbEntity
  8
0
100
AcDbBlockBegin
  2
*Paper_Space0
 70
0
 10
0.0
 20
0.0
 30
0.0
  3
*Paper_Space0
  1

  0
ENDBLK
  5
25
100
AcDbEntity
  8
0
100
AcDbBlockEnd
  0
BLOCK
  5
48
100
AcDbEntity
  8
0
100
AcDbBlockBegin
  2
tab
 70
0
 10
0.0
 20
0.0
 30
0.0
  3
tab
  1

  0
LINE
  5
49
100
AcDbEntity
100
AcDbLine
  8
cuts
 62
256
370
-1
  6
ByLayer
 10
-5.0
 20
5.0
 30
0.0
 11
-5.0
 21
0.0
 31
0.0
  0
LINE
  5
4A
100
AcDbEntity
100
AcDbLine
  8
cuts
 62
256
370
-1
  6
ByLayer
 10
5.0
 20
0.0
 30
0.0
 11
5.0
 21
5.0
 31
0.0
  0
LINE
  5
4B
100
AcDbEntity
100
AcDbLine
  8
cuts
 62
256
370
-1
  6
ByLayer
 10
-5.0
 20
5.0
 30
0.0
 11
5.0
 21
5.0
 31
0.0
  0
ENDBLK
  5
4C
100
AcDbEntity
  8
0
100
AcDbBlockEnd
  0
BLOCK
  5
4D
100
AcDbEntity
  8
0
100
AcDbBlockBegin
  2
m3-t-slot
 70
0
 10
0.0
 20
0.0
 30
0.0
  3
m3-t-slot
  1

  0
LINE
  5
4E
100
AcDbEntity
100
AcDbLine
  8
cuts
 62
256
370
-1
  6
ByLayer
 10
-1.4999999999999978
 20
11.5
 30
0.0
 11
1.5000000000000058
 21
11.5
 31
0.0
  0
LINE
  5
4F
100
AcDbEntity
100
AcDbLine
  8
cuts
 62
256
370
-1
  6
ByLayer
 10
-2.8599999999999945
 20
5.3299999999999974
 30
0.0
 11
-2.8599999999999945
 21
7.5
 31
0.0
  0
LINE
  5
50
100
AcDbEntity
100
AcDbLine
  8
cuts
 62
256
370
-1
  6
ByLayer
 10
2.859999999999999
 20
7.4999999999999964
 30
0.0
 11
2.8599999999999963
 21
5.3299999999999974
 31
0.0
  0
LINE
  5
51
100
AcDbEntity
100
AcDbLine
  8
cuts
 62
256
370
-1
  6
ByLayer
 10
-1.4999999999999978
 20
0.0000000000000009
 30
0.0
 11
-1.500000000000002
 21
5.330000000000001
 31
0.0
  0
LINE
  5
52
100
AcDbEntity
100
AcDbLine
  8
cuts
 62
256
370
-1
  6
ByLayer
 10
-1.500000000000002
 20
5.330000000000001
 30
0.0
 11
-2.8599999999999945
 21
5.3299999999999974
 31
0.0
  0
LINE
  5
53
100
AcDbEntity
100
AcDbLine
  8
cuts
 62
256
370
-1
  6
ByLayer
 10
1.5000000000000029
 20
5.3299999999999956
 30
0.0
 11
1.4999999999999978
 21
-0.0000000000000009
 31
0.0
  0
LINE
  5
54
100
AcDbEntity
100
AcDbLine
  8
cuts
 62
256
370
-1
  6
ByLayer
 10
2.8599999999999963
 20
5.3299999999999974
 30
0.0
 11
1.5000000000000029
 21
5.3299999999999956
 31
0.0
  0
LINE
  5
55
100
AcDbEntity
100
AcDbLine
  8
cuts
 62
256
370
-1
  6
ByLayer
 10
1.5000000000000058
 20
11.5
 30
0.0
 11
1.5000000000000013
 21
7.5
 31
0.0
  0
LINE
  5
56
100
AcDbEntity
100
AcDbLine
  8
cuts
 62
256
370
-1
  6
ByLayer
 10
1.5000000000000013
 20
7.5
 30
0.0
 11
2.859999999999999
 21
7.4999999999999964
 31
0.0
  0
LINE
  5
57
100
AcDbEntity
100
AcDbLine
  8
cuts
 62
256
370
-1
  6
ByLayer
 10
-2.8599999999999945
 20
7.5
 30
0.0
 11
-1.5000000000000013
 21
7.5
 31
0.0
  0
LINE
  5
58
100
AcDbEntity
100
AcDbLine
  8
cuts
 62
256
370
-1
  6
ByLayer
 10
-1.5000000000000013
 20
7.5
 30
0.0
 11
-1.4999999999999978
 21
11.5
 31
0.0
  0
ENDBLK
  5
59
100
AcDbEntity
  8
0
100
AcDbBlockEnd
  0
ENDSEC
  0
SECTION
  2
ENTITIES
  0
ARC
  5
5A
100
AcDbEntity
  8
side
 62
256
370
-1
  6
ByLayer
100
AcDbCircle
 10
28.4400000000000226
 20
-94.0000000000002984
 30
0.0
 40
10.0
100
AcDbArc
 50
270.0
 51
360.0
  0
INSERT
  5
5B
100
AcDbEntity
100
AcDbBlockReference
  8
side
 62
256
370
-1
  6
ByLayer
  2
tab
 10
4.4399999999999373
 20
40.9999999999997016
 30
0.0
 41
1.0
 42
-1.0
 43
1.0
 50
270.0
 44
1.0
 45
1.0
  0
INSERT
  5
5C
100
AcDbEntity
100
AcDbBlockReference
  8
side
 62
256
370
-1
  6
ByLayer
  2
tab
 10
4.4399999999999862
 20
-34.50000000000027
 30
0.0
 41
1.0
 42
-1.0
 43
1.0
 50
270.0
 44
1.0
 45
1.0
  0
INSERT
  5
5D
100
AcDbEntity
100
AcDbBlockReference
  8
side
 62
256
370
-1
  6
ByLayer
  2
m3-t-slot
 10
4.4399999999999364
 20
65.99999999999973
 30
0.0
 41
1.0
 42
-1.0
 43
1.0
 50
89.9999999999999858
 44
1.0
 45
1.0
  0
INSERT
  5
5E
100
AcDbEntity
100
AcDbBlockReference
  8
side
 62
256
370
-1
  6
ByLayer
  2
m3-t-slot
 10
4.4399999999999427
 20
15.9999999999997016
 30
0.0
 41
1.0
 42
-1.0
 43
1.0
 50
89.9999999999999858
 44
1.0
 45
1.0
  0
INSERT
  5
5F
100
AcDbEntity
100
AcDbBlockReference
  8
side
 62
256
370
-1
  6
ByLayer
  2
m3-t-slot
 10
4.4399999999998281
 20
-54.0000000000002416
 30
0.0
 41
1.0
 42
-1.0
 43
1.0
 50
89.9999999999999858
 44
1.0
 45
1.0
  0
LINE
  5
60
100
AcDbEntity
100
AcDbLine
  8
side
 62
256
370
-1
  6
ByLayer
 10
4.4399999999999391
 20
64.4999999999997016
 30
0.0
 11
4.4399999999999444
 21
45.9999999999997016
 31
0.0
  0
LINE
  5
61
100
AcDbEntity
100
AcDbLine
  8
side
 62
256
370
-1
  6
ByLayer
 10
4.4399999999999391
 20
35.9999999999997016
 30
0.0
 11
4.4399999999999409
 21
17.49999999999973
 31
0.0
  0
LINE
  5
62
100
AcDbEntity
100
AcDbLine
  8
side
 62
256
370
-1
  6
ByLayer
 10
4.4399999999999409
 20
14.4999999999997158
 30
0.0
 11
4.4399999999999311
 21
-29.5000000000003304
 31
0.0
  0
LINE
  5
63
100
AcDbEntity
100
AcDbLine
  8
side
 62
256
370
-1
  6
ByLayer
 10
4.4399999999998787
 20
-39.5000000000002132
 30
0.0
 11
4.4399999999998618
 21
-52.50000000000027
 31
0.0
  0
ARC
  5
64
100
AcDbEntity
  8
side
 62
256
370
-1
  6
ByLayer
100
AcDbCircle
 10
28.4399999999998911
 20
93.9999999999997016
 30
0.0
 40
10.0
100
AcDbArc
 50
360.0
 51
89.9999999999999858
  0
CIRCLE
  5
65
100
AcDbEntity
100
AcDbCircle
  8
side
 62
256
370
-1
  6
ByLayer
 10
13.9399999999997135
 20
4.2499999999997176
 30
0.0
 40
1.5
  0
CIRCLE
  5
66
100
AcDbEntity
100
AcDbCircle
  8
side
 62
256
370
-1
  6
ByLayer
 10
26.4399999999999977
 20
4.2499999999997131
 30
0.0
 40
1.5
  0
LINE
  5
67
100
AcDbEntity
100
AcDbLine
  8
side
 62
256
370
-1
  6
ByLayer
 10
30.4399999999999977
 20
7.8999999999997366
 30
0.0
 11
38.4399999999999125
 21
7.8999999999997765
 31
0.0
  0
LINE
  5
68
100
AcDbEntity
100
AcDbLine
  8
side
 62
256
370
-1
  6
ByLayer
 10
38.4399999999999693
 20
5.7999999999997396
 30
0.0
 11
30.4399999999999977
 21
5.7999999999997369
 31
0.0
  0
LINE
  5
69
100
AcDbEntity
100
AcDbLine
  8
side
 62
256
370
-1
  6
ByLayer
 10
30.4399999999999977
 20
5.7999999999997369
 30
0.0
 11
30.4399999999999977
 21
7.8999999999997366
 31
0.0
  0
LINE
  5
6A
100
AcDbEntity
100
AcDbLine
  8
side
 62
256
370
-1
  6
ByLayer
 10
38.4399999999998769
 20
93.99999999999973
 30
0.0
 11
38.4399999999999977
 21
7.8999999999997499
 31
0.0
  0
LINE
  5
6B
100
AcDbEntity
100
AcDbLine
  8
side
 62
256
370
-1
  6
ByLayer
 10
38.4399999999999693
 20
5.7999999999997396
 30
0.0
 11
38.4399999999999977
 21
-2.9000000000003086
 31
0.0
  0
LINE
  5
6C
100
AcDbEntity
100
AcDbLine
  8
side
 62
256
370
-1
  6
ByLayer
 10
38.4399999999999693
 20
-51.3300000000003251
 30
0.0
 11
38.4399999999998983
 21
-26.5000000000002629
 31
0.0
  0
LINE
  5
6D
100
AcDbEntity
100
AcDbLine
  8
side
 62
256
370
-1
  6
ByLayer
 10
38.4400000000000261
 20
-94.0000000000003268
 30
0.0
 11
38.4400000000000688
 21
-61.330000000000318
 31
0.0
  0
ARC
  5
6E
100
AcDbEntity
  8
side
 62
256
370
-1
  6
ByLayer
100
AcDbCircle
 10
33.4399999999999409
 20
-56.3300000000003322
 30
0.0
 40
5.0
100
AcDbArc
 50
89.9999999999999858
 51
270.0
  0
LINE
  5
6F
100
AcDbEntity
100
AcDbLine
  8
side
 62
256
370
-1
  6
ByLayer
 10
38.4399999999999693
 20
-51.3300000000003251
 30
0.0
 11
33.4399999999999125
 21
-51.3300000000003251
 31
0.0
  0
LINE
  5
70
100
AcDbEntity
100
AcDbLine
  8
side
 62
256
370
-1
  6
ByLayer
 10
33.4399999999999835
 20
-61.3300000000003322
 30
0.0
 11
38.4400000000000688
 21
-61.330000000000318
 31
0.0
  0
LINE
  5
71
100
AcDbEntity
100
AcDbLine
  8
text
 62
256
370
-1
  6
ByLayer
 10
16.2733333333331913
 20
-95.9166666666669698
 30
0.0
 11
22.273333333333202
 21
-91.9166666666669698
 31
0.0
  0
LINE
  5
72
100
AcDbEntity
100
AcDbLine
  8
text
 62
256
370
-1
  6
ByLayer
 10
22.2733333333331629
 20
-95.916666666666984
 30
0.0
 11
16.2733333333331771
 21
-91.916666666666984
 31
0.0
  0
LINE
  5
73
100
AcDbEntity
100
AcDbLine
  8
text
 62
256
370
-1
  6
ByLayer
 10
16.2733333333332126
 20
-85.4166666666669556
 30
0.0
 11
21.6066666666665235
 21
-85.4166666666669698
 31
0.0
  0
ARC
  5
74
100
AcDbEntity
  8
text
 62
256
370
-1
  6
ByLayer
100
AcDbCircle
 10
21.6066666666665377
 20
-84.7500000000002984
 30
0.0
 40
0.6666666666666666
100
AcDbArc
 50
270.0
 51
360.0
  0
LINE
  5
75
100
AcDbEntity
100
AcDbLine
  8
text
 62
256
370
-1
  6
ByLayer
 10
20.2733333333332126
 20
-82.7500000000002984
 30
0.0
 11
20.2733333333332091
 21
-80.0833333333336412
 31
0.0
  0
LINE
  5
76
100
AcDbEntity
100
AcDbLine
  8
text
 62
256
370
-1
  6
ByLayer
 10
20.2733333333332091
 20
-80.0833333333336412
 30
0.0
 11
19.6066666666665093
 21
-80.0833333333336412
 31
0.0
  0
ARC
  5
77
100
AcDbEntity
  8
text
 62
256
370
-1
  6
ByLayer
100
AcDbCircle
 10
19.6066666666665377
 20
-81.4166666666669556
 30
0.0
 40
1.3333333333333333
100
AcDbArc
 50
90.0
 51
270.0
  0
LINE
  5
78
100
AcDbEntity
100
AcDbLine
  8
text
 62
256
370
-1
  6
ByLayer
 10
19.6066666666665377
 20
-82.7500000000002984
 30
0.0
 11
21.2733333333331842
 21
-82.7500000000003126
 31
0.0
  0
ARC
  5
79
100
AcDbEntity
  8
text
 62
256
370
-1
  6
ByLayer
100
AcDbCircle
 10
21.2733333333331913
 20
-81.7500000000002984
 30
0.0
 40
1.0
100
AcDbArc
 50
270.0
 51
360.0
  0
LINE
  5
7A
100
AcDbEntity
100
AcDbLine
  8
text
 62
256
370
-1
  6
ByLayer
 10
22.2733333333331807
 20
-81.7500000000003126
 30
0.0
 11
22.2733333333332055
 21
-80.0833333333336412
 31
0.0
  0
LINE
  5
7B
100
AcDbEntity
100
AcDbLine
  8
text
 62
256
370
-1
  6
ByLayer
 10
22.2733333333331807
 20
-77.4166666666669698
 30
0.0
 11
17.2733333333331665
 21
-77.4166666666669698
 31
0.0
  0
ARC
  5
7C
100
AcDbEntity
  8
text
 62
256
370
-1
  6
ByLayer
100
AcDbCircle
 10
17.2733333333331913
 20
-76.4166666666669698
 30
0.0
 40
1.0
100
AcDbArc
 50
180.0
 51
270.0
  0
LINE
  5
7D
100
AcDbEntity
100
AcDbLine
  8
text
 62
256
370
-1
  6
ByLayer
 10
16.2733333333331984
 20
-76.4166666666669698
 30
0.0
 11
16.2733333333331522
 21
-76.0833333333336412
 31
0.0
  0
LINE
  5
7E
100
AcDbEntity
100
AcDbLine
  8
text
 62
256
370
-1
  6
ByLayer
 10
18.2733333333331913
 20
-78.083333333333627
 30
0.0
 11
18.2733333333331949
 21
-76.083333333333627
 31
0.0
  0
LINE
  5
7F
100
AcDbEntity
100
AcDbLine
  8
text
 62
256
370
-1
  6
ByLayer
 10
18.273333333333202
 20
-74.083333333333627
 30
0.0
 11
18.2733333333331842
 21
-72.083333333333627
 31
0.0
  0
LINE
  5
80
100
AcDbEntity
100
AcDbLine
  8
text
 62
256
370
-1
  6
ByLayer
 10
16.2733333333331665
 20
-73.4166666666669698
 30
0.0
 11
22.2733333333331842
 21
-73.4166666666669698
 31
0.0
  0
LINE
  5
81
100
AcDbEntity
100
AcDbLine
  8
side
 62
256
370
-1
  6
ByLayer
 10
38.4399999999999977
 20
-2.9000000000003086
 30
0.0
 11
26.9399999999996247
 21
-2.9000000000002855
 31
0.0
  0
LINE
  5
82
100
AcDbEntity
100
AcDbLine
  8
side
 62
256
370
-1
  6
ByLayer
 10
26.9399999999996496
 20
-26.5000000000002736
 30
0.0
 11
26.9399999999996247
 21
-2.9000000000002855
 31
0.0
  0
LINE
  5
83
100
AcDbEntity
100
AcDbLine
  8
side
 62
256
370
-1
  6
ByLayer
 10
38.4399999999998983
 20
-26.5000000000002629
 30
0.0
 11
26.9399999999996496
 21
-26.5000000000002736
 31
0.0
  0
ARC
  5
84
100
AcDbEntity
  8
side
 62
256
370
-1
  6
ByLayer
100
AcDbCircle
 10
-28.4400000000000581
 20
-94.0000000000002984
 30
0.0
 40
10.0
100
AcDbArc
 50
180.0
 51
270.0
  0
ARC
  5
85
100
AcDbEntity
  8
side
 62
256
370
-1
  6
ByLayer
100
AcDbCircle
 10
-28.4400000000000617
 20
93.9999999999997868
 30
0.0
 40
10.0
100
AcDbArc
 50
89.9999999999999858
 51
180.0
  0
LINE
  5
86
100
AcDbEntity
100
AcDbLine
  8
side
 62
256
370
-1
  6
ByLayer
 10
-24.4400000000001612
 20
-94.0000000000002842
 30
0.0
 11
-26.4400000000000333
 21
-94.0000000000002984
 31
0.0
  0
LINE
  5
87
100
AcDbEntity
100
AcDbLine
  8
side
 62
256
370
-1
  6
ByLayer
 10
-26.4400000000000333
 20
-94.0000000000002984
 30
0.0
 11
-26.4400000000001434
 21
-104.0000000000002558
 31
0.0
  0
LINE
  5
88
100
AcDbEntity
100
AcDbLine
  8
side
 62
256
370
-1
  6
ByLayer
 10
-24.4400000000000439
 20
93.9999999999996732
 30
0.0
 11
-26.4400000000001185
 21
93.9999999999996447
 31
0.0
  0
LINE
  5
89
100
AcDbEntity
100
AcDbLine
  8
side
 62
256
370
-1
  6
ByLayer
 10
-26.4400000000001185
 20
93.9999999999996447
 30
0.0
 11
-26.4400000000001043
 21
104.0000000000000142
 31
0.0
  0
LINE
  5
8A
100
AcDbEntity
100
AcDbLine
  8
side
 62
256
370
-1
  6
ByLayer
 10
-28.4400000000000475
 20
104.0000000000002984
 30
0.0
 11
-26.4400000000001043
 21
104.0000000000000142
 31
0.0
  0
LINE
  5
8B
100
AcDbEntity
100
AcDbLine
  8
side
 62
256
370
-1
  6
ByLayer
 10
-28.4400000000001576
 20
-104.0000000000002416
 30
0.0
 11
-26.4400000000001434
 21
-104.0000000000002558
 31
0.0
  0
LINE
  5
8C
100
AcDbEntity
100
AcDbLine
  8
side
 62
256
370
-1
  6
ByLayer
 10
-38.4400000000000688
 20
79.4999999999997016
 30
0.0
 11
-38.4400000000000475
 21
93.9999999999998295
 31
0.0
  0
LINE
  5
8D
100
AcDbEntity
100
AcDbLine
  8
cuts
 62
256
370
-1
  6
ByLayer
 10
-30.4400000000000617
 20
79.4999999999997016
 30
0.0
 11
-38.4400000000000688
 21
79.4999999999997016
 31
0.0
  0
LINE
  5
8E
100
AcDbEntity
100
AcDbLine
  8
side
 62
256
370
-1
  6
ByLayer
 10
-38.4400000000001043
 20
-77.9200000000002433
 30
0.0
 11
-38.4400000000000546
 21
-94.0000000000002984
 31
0.0
  0
LINE
  5
8F
100
AcDbEntity
100
AcDbLine
  8
cuts
 62
256
370
-1
  6
ByLayer
 10
-30.4399999999999373
 20
-77.9200000000002717
 30
0.0
 11
-38.4400000000001043
 21
-77.9200000000002433
 31
0.0
  0
LINE
  5
90
100
AcDbEntity
100
AcDbLine
  8
side
 62
256
370
-1
  6
ByLayer
 10
-24.4400000000000652
 20
103.9999999999998153
 30
0.0
 11
-24.4400000000000439
 21
93.9999999999996732
 31
0.0
  0
LINE
  5
91
100
AcDbEntity
100
AcDbLine
  8
side
 62
256
370
-1
  6
ByLayer
 10
-24.4400000000000652
 20
103.9999999999998153
 30
0.0
 11
28.4399999999998947
 21
103.9999999999997868
 31
0.0
  0
LINE
  5
92
100
AcDbEntity
100
AcDbLine
  8
side
 62
256
370
-1
  6
ByLayer
 10
-24.440000000000186
 20
-104.0000000000002274
 30
0.0
 11
28.4399999999999267
 21
-104.00000000000027
 31
0.0
  0
LINE
  5
93
100
AcDbEntity
100
AcDbLine
  8
side
 62
256
370
-1
  6
ByLayer
 10
-24.440000000000186
 20
-104.0000000000002274
 30
0.0
 11
-24.4400000000001612
 21
-94.0000000000002842
 31
0.0
  0
CIRCLE
  5
94
100
AcDbEntity
100
AcDbCircle
  8
cuts
 62
256
370
-1
  6
ByLayer
 10
17.9399999999995607
 20
-34.5000000000002203
 30
0.0
 40
4.6879999999999997
  0
CIRCLE
  5
95
100
AcDbEntity
100
AcDbCircle
  8
cuts
 62
256
370
-1
  6
ByLayer
 10
17.9399999999998059
 20
80.49999999999973
 30
0.0
 40
4.6879999999999997
  0
INSERT
  5
96
100
AcDbEntity
100
AcDbBlockReference
  8
side
 62
256
370
-1
  6
ByLayer
  2
m3-t-slot
 10
-11.940000000000051
 20
85.4999999999997584
 30
0.0
 41
1.0
 42
-1.0
 43
1.0
 50
180.0
 44
1.0
 45
1.0
  0
INSERT
  5
97
100
AcDbEntity
100
AcDbBlockReference
  8
side
 62
256
370
-1
  6
ByLayer
  2
m3-t-slot
 10
-11.9400000000000617
 20
-83.9200000000002717
 30
0.0
 50
180.0
 44
1.0
 45
1.0
  0
LINE
  5
98
100
AcDbEntity
100
AcDbLine
  8
side
 62
256
370
-1
  6
ByLayer
 10
-13.4399999999999942
 20
85.4999999999997016
 30
0.0
 11
-30.4400000000000475
 21
85.4999999999997868
 31
0.0
  0
LINE
  5
99
100
AcDbEntity
100
AcDbLine
  8
side
 62
256
370
-1
  6
ByLayer
 10
-30.4400000000000617
 20
79.4999999999997016
 30
0.0
 11
-30.4400000000000475
 21
85.4999999999997868
 31
0.0
  0
LINE
  5
9A
100
AcDbEntity
100
AcDbLine
  8
side
 62
256
370
-1
  6
ByLayer
 10
4.4399999999999471
 20
85.4999999999997158
 30
0.0
 11
4.4399999999999382
 21
67.4999999999996732
 31
0.0
  0
LINE
  5
9B
100
AcDbEntity
100
AcDbLine
  8
side
 62
256
370
-1
  6
ByLayer
 10
-10.4400000000000546
 20
85.4999999999997584
 30
0.0
 11
4.4399999999999471
 21
85.4999999999997158
 31
0.0
  0
LINE
  5
9C
100
AcDbEntity
100
AcDbLine
  8
side
 62
256
370
-1
  6
ByLayer
 10
-10.4400000000000883
 20
-83.9200000000002859
 30
0.0
 11
4.4399999999999018
 21
-83.9200000000002859
 31
0.0
  0
LINE
  5
9D
100
AcDbEntity
100
AcDbLine
  8
side
 62
256
370
-1
  6
ByLayer
 10
4.4399999999999151
 20
-55.5000000000003055
 30
0.0
 11
4.4399999999999018
 21
-83.9200000000002859
 31
0.0
  0
LINE
  5
9E
100
AcDbEntity
100
AcDbLine
  8
side
 62
256
370
-1
  6
ByLayer
 10
-30.4400000000002073
 20
-83.9200000000002291
 30
0.0
 11
-30.4399999999999373
 21
-77.9200000000002717
 31
0.0
  0
LINE
  5
9F
100
AcDbEntity
100
AcDbLine
  8
side
 62
256
370
-1
  6
ByLayer
 10
-13.440000000000067
 20
-83.9200000000002575
 30
0.0
 11
-30.4400000000002073
 21
-83.9200000000002291
 31
0.0
  0
ENDSEC
  0
SECTION
  2
OBJECTS
  0
DICTIONARY
  5
C
100
AcDbDictionary
280
0
281
1
  3
ACAD_GROUP
350
D
  3
ACAD_LAYOUT
350
1A
  3
ACAD_MLINESTYLE
350
17
  3
ACAD_PLOTSETTINGS
350
19
  3
ACAD_PLOTSTYLENAME
350
E
  3
AcDbVariableDictionary
350
A0
  0
DICTIONARY
  5
D
100
AcDbDictionary
280
0
281
1
  0
ACDBDICTIONARYWDFLT
  5
E
100
AcDbDictionary
281
1
  3
Normal
350
F
100
AcDbDictionaryWithDefault
340
F
  0
ACDBPLACEHOLDER
  5
F
  0
DICTIONARY
  5
17
100
AcDbDictionary
280
0
281
1
  3
Standard
350
18
  0
MLINESTYLE
  5
18
100
AcDbMlineStyle
  2
STANDARD
 70
0
  3

 62
256
 51
90.0
 52
90.0
 71
2
 49
0.5
 62
256
  6
BYLAYER
 49
-0.5
 62
256
  6
BYLAYER
  0
DICTIONARY
  5
19
100
AcDbDictionary
280
0
281
1
  0
DICTIONARY
  5
1A
100
AcDbDictionary
281
1
  3
Layout1
350
1E
  3
Layout2
350
26
  3
Model
350
22
  0
LAYOUT
  5
1E
100
AcDbPlotSettings
  1

  2
C:\Program Files\AutoCAD 2002\plotters\DWF ePlot (optimized for plotting).pc3
  4

  6

 40
0.0
 41
0.0
 42
0.0
 43
0.0
 44
0.0
 45
0.0
 46
0.0
 47
0.0
 48
0.0
 49
0.0
140
0.0
141
0.0
142
1.0
143
1.0
 70
688
 72
0
 73
0
 74
5
  7

 75
16
147
1.0
148
0.0
149
0.0
100
AcDbLayout
  1
Layout1
 70
1
 71
1
 10
0.0
 20
0.0
 11
420.0
 21
297.0
 12
0.0
 22
0.0
 32
0.0
 14
100000000000000000000.0
 24
100000000000000000000.0
 34
100000000000000000000.0
 15
-100000000000000000000.0
 25
-100000000000000000000.0
 35
-100000000000000000000.0
146
0.0
 13
0.0
 23
0.0
 33
0.0
 16
1.0
 26
0.0
 36
0.0
 17
0.0
 27
1.0
 37
0.0
 76
0
330
1B
  0
LAYOUT
  5
22
100
AcDbPlotSettings
  1

  2
C:\Program Files\AutoCAD 2002\plotters\DWF ePlot (optimized for plotting).pc3
  4

  6

 40
0.0
 41
0.0
 42
0.0
 43
0.0
 44
0.0
 45
0.0
 46
0.0
 47
0.0
 48
0.0
 49
0.0
140
0.0
141
0.0
142
1.0
143
1.0
 70
1712
 72
0
 73
0
 74
0
  7

 75
0
147
1.0
148
0.0
149
0.0
100
AcDbLayout
  1
Model
 70
1
 71
0
 10
0.0
 20
0.0
 11
12.0
 21
9.0
 12
0.0
 22
0.0
 32
0.0
 14
0.0
 24
0.0
 34
0.0
 15
0.0
 25
0.0
 35
0.0
146
0.0
 13
0.0
 23
0.0
 33
0.0
 16
1.0
 26
0.0
 36
0.0
 17
0.0
 27
1.0
 37
0.0
 76
0
330
1F
  0
LAYOUT
  5
26
100
AcDbPlotSettings
  1

  2
C:\Program Files\AutoCAD 2002\plotters\DWF ePlot (optimized for plotting).pc3
  4

  6

 40
0.0
 41
0.0
 42
0.0
 43
0.0
 44
0.0
 45
0.0
 46
0.0
 47
0.0
 48
0.0
 49
0.0
140
0.0
141
0.0
142
1.0
143
1.0
 70
688
 72
0
 73
0
 74
5
  7

 75
16
147
1.0
148
0.0
149
0.0
100
AcDbLayout
  1
Layout2
 70
1
 71
2
 10
0.0
 20
0.0
 11
12.0
 21
9.0
 12
0.0
 22
0.0
 32
0.0
 14
0.0
 24
0.0
 34
0.0
 15
0.0
 25
0.0
 35
0.0
146
0.0
 13
0.0
 23
0.0
 33
0.0
 16
1.0
 26
0.0
 36
0.0
 17
0.0
 27
1.0
 37
0.0
 76
0
330
23
  0
DICTIONARY
  5
A0
100
AcDbDictionary
281
1
  3
DIMASSOC
350
A2
  3
HIDETEXT
350
A1
  0
DICTIONARYVAR
  5
A1
100
DictionaryVariables
280
0
  1
2
  0
DICTIONARYVAR
  5
A2
100
DictionaryVariables
280
0
  1
1
  0
ENDSEC
  0
EOF
