999
dxflib 2.0.4.8
  0
SECTION
  2
HEADER
  9
$ACADVER
  1
AC1015
  9
$HANDSEED
  5
FFFF
  9
$DIMASZ
 40
2.5
  9
$DIMGAP
 40
0.625
  9
$DIMEXO
 40
0.625
  9
$INSUNITS
 70
4
  9
$DIMTXT
 40
2.5
  9
$PLIMMAX
 10
210.0
 20
297.0
  9
$PLIMMIN
 10
0.0
 20
0.0
  9
$DIMEXE
 40
1.25
  0
ENDSEC
  0
SECTION
  2
TABLES
  0
TABLE
  2
VPORT
  5
8
100
AcDbSymbolTable
 70
1
  0
VPORT
  5
30
100
AcDbSymbolTableRecord
100
AcDbViewportTableRecord
  2
*Active
 70
0
 10
0.0
 20
0.0
 11
1.0
 21
1.0
 12
286.3055555555554861
 22
148.5
 13
0.0
 23
0.0
 14
10.0
 24
10.0
 15
10.0
 25
10.0
 16
0.0
 26
0.0
 36
1.0
 17
0.0
 27
0.0
 37
0.0
 40
297.0
 41
1.92798353909465
 42
50.0
 43
0.0
 44
0.0
 50
0.0
 51
0.0
 71
0
 72
100
 73
1
 74
3
 75
1
 76
1
 77
0
 78
0
281
0
 65
1
110
0.0
120
0.0
130
0.0
111
1.0
121
0.0
131
0.0
112
0.0
122
1.0
132
0.0
 79
0
146
0.0
  0
ENDTAB
  0
TABLE
  2
LTYPE
  5
5
100
AcDbSymbolTable
 70
21
  0
LTYPE
  5
14
100
AcDbSymbolTableRecord
100
AcDbLinetypeTableRecord
  2
ByBlock
 70
0
  3

 72
65
 73
0
 40
0.0
  0
LTYPE
  5
15
100
AcDbSymbolTableRecord
100
AcDbLinetypeTableRecord
  2
ByLayer
 70
0
  3

 72
65
 73
0
 40
0.0
  0
LTYPE
  5
16
100
AcDbSymbolTableRecord
100
AcDbLinetypeTableRecord
  2
CONTINUOUS
 70
0
  3
Solid line
 72
65
 73
0
 40
0.0
  0
LTYPE
  5
31
100
AcDbSymbolTableRecord
100
AcDbLinetypeTableRecord
  2
DOT
 70
0
  3
Dot . . . . . . . . . . . . . . . . . . . . . .
 72
65
 73
2
 40
6.3499999999999996
 49
0.0
 74
0
 49
-6.3499999999999996
 74
0
  0
LTYPE
  5
32
100
AcDbSymbolTableRecord
100
AcDbLinetypeTableRecord
  2
DOT2
 70
0
  3
Dot (.5x) .....................................
 72
65
 73
2
 40
3.1749999999999998
 49
0.0
 74
0
 49
-3.1749999999999998
 74
0
  0
LTYPE
  5
33
100
AcDbSymbolTableRecord
100
AcDbLinetypeTableRecord
  2
DOTX2
 70
0
  3
Dot (2x) .  .  .  .  .  .  .  .  .  .  .  .  .
 72
65
 73
2
 40
12.6999999999999993
 49
0.0
 74
0
 49
-12.6999999999999993
 74
0
  0
LTYPE
  5
34
100
AcDbSymbolTableRecord
100
AcDbLinetypeTableRecord
  2
DASHED
 70
0
  3
Dashed __ __ __ __ __ __ __ __ __ __ __ __ __ _
 72
65
 73
2
 40
19.0500000000000007
 49
12.6999999999999993
 74
0
 49
-6.3499999999999996
 74
0
  0
LTYPE
  5
35
100
AcDbSymbolTableRecord
100
AcDbLinetypeTableRecord
  2
DASHED2
 70
0
  3
Dashed (.5x) _ _ _ _ _ _ _ _ _ _ _ _ _ _ _ _ _
 72
65
 73
2
 40
9.5250000000000004
 49
6.3499999999999996
 74
0
 49
-3.1749999999999998
 74
0
  0
LTYPE
  5
36
100
AcDbSymbolTableRecord
100
AcDbLinetypeTableRecord
  2
DASHEDX2
 70
0
  3
Dashed (2x) ____  ____  ____  ____  ____  ___
 72
65
 73
2
 40
38.1000000000000014
 49
25.3999999999999986
 74
0
 49
-12.6999999999999993
 74
0
  0
LTYPE
  5
37
100
AcDbSymbolTableRecord
100
AcDbLinetypeTableRecord
  2
DASHDOT
 70
0
  3
Dash dot __ . __ . __ . __ . __ . __ . __ . __
 72
65
 73
4
 40
25.3999999999999986
 49
12.6999999999999993
 74
0
 49
-6.3499999999999996
 74
0
 49
0.0
 74
0
 49
-6.3499999999999996
 74
0
  0
LTYPE
  5
38
100
AcDbSymbolTableRecord
100
AcDbLinetypeTableRecord
  2
DASHDOT2
 70
0
  3
Dash dot (.5x) _._._._._._._._._._._._._._._.
 72
65
 73
4
 40
12.6999999999999993
 49
6.3499999999999996
 74
0
 49
-3.1749999999999998
 74
0
 49
0.0
 74
0
 49
-3.1749999999999998
 74
0
  0
LTYPE
  5
39
100
AcDbSymbolTableRecord
100
AcDbLinetypeTableRecord
  2
DASHDOTX2
 70
0
  3
Dash dot (2x) ____  .  ____  .  ____  .  ___
 72
65
 73
4
 40
50.7999999999999972
 49
25.3999999999999986
 74
0
 49
-12.6999999999999993
 74
0
 49
0.0
 74
0
 49
-12.6999999999999993
 74
0
  0
LTYPE
  5
3A
100
AcDbSymbolTableRecord
100
AcDbLinetypeTableRecord
  2
DIVIDE
 70
0
  3
Divide ____ . . ____ . . ____ . . ____ . . ____
 72
65
 73
6
 40
31.75
 49
12.6999999999999993
 74
0
 49
-6.3499999999999996
 74
0
 49
0.0
 74
0
 49
-6.3499999999999996
 74
0
 49
0.0
 74
0
 49
-6.3499999999999996
 74
0
  0
LTYPE
  5
3B
100
AcDbSymbolTableRecord
100
AcDbLinetypeTableRecord
  2
DIVIDE2
 70
0
  3
Divide (.5x) __..__..__..__..__..__..__..__.._
 72
65
 73
6
 40
15.875
 49
6.3499999999999996
 74
0
 49
-3.1749999999999998
 74
0
 49
0.0
 74
0
 49
-3.1749999999999998
 74
0
 49
0.0
 74
0
 49
-3.1749999999999998
 74
0
  0
LTYPE
  5
3C
100
AcDbSymbolTableRecord
100
AcDbLinetypeTableRecord
  2
DIVIDEX2
 70
0
  3
Divide (2x) ________  .  .  ________  .  .  _
 72
65
 73
6
 40
63.5
 49
25.3999999999999986
 74
0
 49
-12.6999999999999993
 74
0
 49
0.0
 74
0
 49
-12.6999999999999993
 74
0
 49
0.0
 74
0
 49
-12.6999999999999993
 74
0
  0
LTYPE
  5
3D
100
AcDbSymbolTableRecord
100
AcDbLinetypeTableRecord
  2
CENTER
 70
0
  3
Center ____ _ ____ _ ____ _ ____ _ ____ _ ____
 72
65
 73
4
 40
50.7999999999999972
 49
31.75
 74
0
 49
-6.3499999999999996
 74
0
 49
6.3499999999999996
 74
0
 49
-6.3499999999999996
 74
0
  0
LTYPE
  5
3E
100
AcDbSymbolTableRecord
100
AcDbLinetypeTableRecord
  2
CENTER2
 70
0
  3
Center (.5x) ___ _ ___ _ ___ _ ___ _ ___ _ ___
 72
65
 73
4
 40
28.5749999999999993
 49
19.0500000000000007
 74
0
 49
-3.1749999999999998
 74
0
 49
3.1749999999999998
 74
0
 49
-3.1749999999999998
 74
0
  0
LTYPE
  5
3F
100
AcDbSymbolTableRecord
100
AcDbLinetypeTableRecord
  2
CENTERX2
 70
0
  3
Center (2x) ________  __  ________  __  _____
 72
65
 73
4
 40
101.5999999999999943
 49
63.5
 74
0
 49
-12.6999999999999993
 74
0
 49
12.6999999999999993
 74
0
 49
-12.6999999999999993
 74
0
  0
LTYPE
  5
40
100
AcDbSymbolTableRecord
100
AcDbLinetypeTableRecord
  2
BORDER
 70
0
  3
Border __ __ . __ __ . __ __ . __ __ . __ __ .
 72
65
 73
6
 40
44.4500000000000028
 49
12.6999999999999993
 74
0
 49
-6.3499999999999996
 74
0
 49
12.6999999999999993
 74
0
 49
-6.3499999999999996
 74
0
 49
0.0
 74
0
 49
-6.3499999999999996
 74
0
  0
LTYPE
  5
41
100
AcDbSymbolTableRecord
100
AcDbLinetypeTableRecord
  2
BORDER2
 70
0
  3
Border (.5x) __.__.__.__.__.__.__.__.__.__.__.
 72
65
 73
6
 40
22.2250000000000014
 49
6.3499999999999996
 74
0
 49
-3.1749999999999998
 74
0
 49
6.3499999999999996
 74
0
 49
-3.1749999999999998
 74
0
 49
0.0
 74
0
 49
-3.1749999999999998
 74
0
  0
LTYPE
  5
42
100
AcDbSymbolTableRecord
100
AcDbLinetypeTableRecord
  2
BORDERX2
 70
0
  3
Border (2x) ____  ____  .  ____  ____  .  ___
 72
65
 73
6
 40
88.9000000000000057
 49
25.3999999999999986
 74
0
 49
-12.6999999999999993
 74
0
 49
25.3999999999999986
 74
0
 49
-12.6999999999999993
 74
0
 49
0.0
 74
0
 49
-12.6999999999999993
 74
0
  0
ENDTAB
  0
TABLE
  2
LAYER
  5
2
100
AcDbSymbolTable
 70
5
  0
LAYER
  5
10
100
AcDbSymbolTableRecord
100
AcDbLayerTableRecord
  2
0
 70
0
 62
7
  6
CONTINUOUS
370
0
390
F
  0
LAYER
  5
43
100
AcDbSymbolTableRecord
100
AcDbLayerTableRecord
  2
1 Spacer Plate
 70
0
 62
7
  6
CONTINUOUS
370
0
390
F
  0
LAYER
  5
44
100
AcDbSymbolTableRecord
100
AcDbLayerTableRecord
  2
2 Motor Plate
 70
0
 62
7
  6
CONTINUOUS
370
0
390
F
  0
LAYER
  5
45
100
AcDbSymbolTableRecord
100
AcDbLayerTableRecord
  2
3 Filament Guide
 70
0
 62
7
  6
CONTINUOUS
370
0
390
F
  0
LAYER
  5
46
100
AcDbSymbolTableRecord
100
AcDbLayerTableRecord
  2
4 Retainer Plate
 70
0
 62
7
  6
CONTINUOUS
370
0
390
F
  0
ENDTAB
  0
TABLE
  2
STYLE
  5
3
100
AcDbSymbolTable
 70
1
  0
STYLE
  5
11
100
AcDbSymbolTableRecord
100
AcDbTextStyleTableRecord
  2
Standard
 70
0
 40
0.0
 41
0.75
 50
0.0
 71
0
 42
2.5
  3
txt
  4

  0
ENDTAB
  0
TABLE
  2
VIEW
  5
6
100
AcDbSymbolTable
 70
0
  0
ENDTAB
  0
TABLE
  2
UCS
  5
7
100
AcDbSymbolTable
 70
0
  0
ENDTAB
  0
TABLE
  2
APPID
  5
9
100
AcDbSymbolTable
 70
1
  0
APPID
  5
12
100
AcDbSymbolTableRecord
100
AcDbRegAppTableRecord
  2
ACAD
 70
0
  0
ENDTAB
  0
TABLE
  2
DIMSTYLE
  5
A
100
AcDbSymbolTable
 70
1
100
AcDbDimStyleTable
 71
0
  0
DIMSTYLE
105
27
100
AcDbSymbolTableRecord
100
AcDbDimStyleTableRecord
  2
Standard
 41
2.5
 42
0.625
 43
3.75
 44
1.25
 70
0
 73
0
 74
0
 77
1
 78
8
140
2.5
141
2.5
143
0.03937007874016
147
0.625
171
3
172
1
271
2
272
2
274
3
278
44
283
0
284
8
340
11
  0
ENDTAB
  0
TABLE
  2
BLOCK_RECORD
  5
1
100
AcDbSymbolTable
 70
1
  0
BLOCK_RECORD
  5
1F
100
AcDbSymbolTableRecord
100
AcDbBlockTableRecord
  2
*Model_Space
340
22
  0
BLOCK_RECORD
  5
1B
100
AcDbSymbolTableRecord
100
AcDbBlockTableRecord
  2
*Paper_Space
340
1E
  0
BLOCK_RECORD
  5
23
100
AcDbSymbolTableRecord
100
AcDbBlockTableRecord
  2
*Paper_Space0
340
26
  0
ENDTAB
  0
ENDSEC
  0
SECTION
  2
BLOCKS
  0
BLOCK
  5
20
100
AcDbEntity
  8
0
100
AcDbBlockBegin
  2
*Model_Space
 70
0
 10
0.0
 20
0.0
 30
0.0
  3
*Model_Space
  1

  0
ENDBLK
  5
21
100
AcDbEntity
  8
0
100
AcDbBlockEnd
  0
BLOCK
  5
1C
100
AcDbEntity
 67
1
  8
0
100
AcDbBlockBegin
  2
*Paper_Space
 70
0
 10
0.0
 20
0.0
 30
0.0
  3
*Paper_Space
  1

  0
ENDBLK
  5
1D
100
AcDbEntity
 67
1
  8
0
100
AcDbBlockEnd
  0
BLOCK
  5
24
100
AcDbEntity
  8
0
100
AcDbBlockBegin
  2
*Paper_Space0
 70
0
 10
0.0
 20
0.0
 30
0.0
  3
*Paper_Space0
  1

  0
ENDBLK
  5
25
100
AcDbEntity
  8
0
100
AcDbBlockEnd
  0
ENDSEC
  0
SECTION
  2
ENTITIES
  0
CIRCLE
  5
47
100
AcDbEntity
100
AcDbCircle
  8
1 Spacer Plate
 62
256
370
-1
  6
ByLayer
 10
46.4999872981077544
 20
33.0000220003227014
 30
0.0
 40
1.45
  0
CIRCLE
  5
48
100
AcDbEntity
100
AcDbCircle
  8
1 Spacer Plate
 62
256
370
-1
  6
ByLayer
 10
46.4999872981077544
 20
27.0000220003227014
 30
0.0
 40
1.45
  0
ARC
  5
49
100
AcDbEntity
  8
1 Spacer Plate
 62
256
370
-1
  6
ByLayer
100
AcDbCircle
 10
19.9999872981077615
 20
30.0000220003227014
 30
0.0
 40
20.0
100
AcDbArc
 50
90.0
 51
180.0
  0
CIRCLE
  5
4A
100
AcDbEntity
100
AcDbCircle
  8
1 Spacer Plate
 62
256
370
-1
  6
ByLayer
 10
6.5766062411140069
 20
22.2500000003935234
 30
0.0
 40
1.3999999999999999
  0
CIRCLE
  5
4B
100
AcDbEntity
100
AcDbCircle
  8
1 Spacer Plate
 62
256
370
-1
  6
ByLayer
 10
19.9999999999999858
 20
14.500000000000032
 30
0.0
 40
1.3999999999999999
  0
CIRCLE
  5
4C
100
AcDbEntity
100
AcDbCircle
  8
1 Spacer Plate
 62
256
370
-1
  6
ByLayer
 10
20.0000000000000071
 20
45.5
 30
0.0
 40
1.3999999999999999
  0
CIRCLE
  5
4D
100
AcDbEntity
100
AcDbCircle
  8
1 Spacer Plate
 62
256
370
-1
  6
ByLayer
 10
33.4233937586587828
 20
22.2500000000000178
 30
0.0
 40
1.3999999999999999
  0
CIRCLE
  5
4E
100
AcDbEntity
100
AcDbCircle
  8
1 Spacer Plate
 62
256
370
-1
  6
ByLayer
 10
6.5766062413411959
 20
37.7500000000000568
 30
0.0
 40
1.3999999999999999
  0
CIRCLE
  5
4F
100
AcDbEntity
100
AcDbCircle
  8
1 Spacer Plate
 62
256
370
-1
  6
ByLayer
 10
33.4233827588477581
 20
37.74999364844642
 30
0.0
 40
1.3999999999999999
  0
ARC
  5
50
100
AcDbEntity
  8
1 Spacer Plate
 62
256
370
-1
  6
ByLayer
100
AcDbCircle
 10
44.9999999999999716
 20
45.0000000000000426
 30
0.0
 40
5.0
100
AcDbArc
 50
0.0
 51
90.0
  0
LINE
  5
51
100
AcDbEntity
100
AcDbLine
  8
1 Spacer Plate
 62
256
370
-1
  6
ByLayer
 10
20.0
 20
50.0000000000000142
 30
0.0
 11
45.0000000000000213
 21
50.0000000000000284
 31
0.0
  0
LINE
  5
52
100
AcDbEntity
100
AcDbLine
  8
1 Spacer Plate
 62
256
370
-1
  6
ByLayer
 10
0.0
 20
30.0
 30
0.0
 11
0.0
 21
0.000000000000032
 31
0.0
  0
LINE
  5
53
100
AcDbEntity
100
AcDbLine
  8
1 Spacer Plate
 62
256
370
-1
  6
ByLayer
 10
50.0
 20
45.0
 30
0.0
 11
50.0
 21
0.0000000000000142
 31
0.0
  0
LINE
  5
54
100
AcDbEntity
100
AcDbLine
  8
1 Spacer Plate
 62
256
370
-1
  6
ByLayer
 10
0.0
 20
0.0
 30
0.0
 11
50.0
 21
0.0000000000000142
 31
0.0
  0
CIRCLE
  5
55
100
AcDbEntity
100
AcDbCircle
  8
1 Spacer Plate
 62
256
370
-1
  6
ByLayer
 10
19.9999872980999989
 20
30.0000220002999995
 30
0.0
 40
8.4499999999999993
  0
LINE
  5
56
100
AcDbEntity
100
AcDbLine
  8
1 Spacer Plate
 62
256
370
-1
  6
ByLayer
 10
25.0
 20
0.0
 30
0.0
 11
25.0
 21
10.0
 31
0.0
  0
LINE
  5
57
100
AcDbEntity
100
AcDbLine
  8
1 Spacer Plate
 62
256
370
-1
  6
ByLayer
 10
25.0
 20
10.0
 30
0.0
 11
28.0
 21
10.0
 31
0.0
  0
LINE
  5
58
100
AcDbEntity
100
AcDbLine
  8
1 Spacer Plate
 62
256
370
-1
  6
ByLayer
 10
28.0
 20
10.0
 30
0.0
 11
28.0
 21
0.0
 31
0.0
  0
CIRCLE
  5
59
100
AcDbEntity
100
AcDbCircle
  8
1 Spacer Plate
 62
256
370
-1
  6
ByLayer
 10
45.0
 20
39.0
 30
0.0
 40
1.3999999999999999
  0
CIRCLE
  5
5A
100
AcDbEntity
100
AcDbCircle
  8
1 Spacer Plate
 62
256
370
-1
  6
ByLayer
 10
45.0
 20
21.0
 30
0.0
 40
1.3999999999999999
  0
CIRCLE
  5
5B
100
AcDbEntity
100
AcDbCircle
  8
2 Motor Plate
 62
256
370
-1
  6
ByLayer
 10
96.4999872981077544
 20
33.0000220003226872
 30
0.0
 40
1.45
  0
CIRCLE
  5
5C
100
AcDbEntity
100
AcDbCircle
  8
2 Motor Plate
 62
256
370
-1
  6
ByLayer
 10
96.4999872981077544
 20
27.0000220003226872
 30
0.0
 40
1.45
  0
ARC
  5
5D
100
AcDbEntity
  8
2 Motor Plate
 62
256
370
-1
  6
ByLayer
100
AcDbCircle
 10
69.9999872981077544
 20
30.0000220003226872
 30
0.0
 40
20.0
100
AcDbArc
 50
90.0
 51
180.0
  0
CIRCLE
  5
5E
100
AcDbEntity
100
AcDbCircle
  8
2 Motor Plate
 62
256
370
-1
  6
ByLayer
 10
56.5766062411140069
 20
22.2500000003935092
 30
0.0
 40
1.3999999999999999
  0
CIRCLE
  5
5F
100
AcDbEntity
100
AcDbCircle
  8
2 Motor Plate
 62
256
370
-1
  6
ByLayer
 10
69.9999999999999858
 20
14.5000000000000178
 30
0.0
 40
1.3999999999999999
  0
CIRCLE
  5
60
100
AcDbEntity
100
AcDbCircle
  8
2 Motor Plate
 62
256
370
-1
  6
ByLayer
 10
70.0
 20
45.4999999999999858
 30
0.0
 40
1.3999999999999999
  0
CIRCLE
  5
61
100
AcDbEntity
100
AcDbCircle
  8
2 Motor Plate
 62
256
370
-1
  6
ByLayer
 10
83.4233937586587899
 20
22.2500000000000036
 30
0.0
 40
1.3999999999999999
  0
CIRCLE
  5
62
100
AcDbEntity
100
AcDbCircle
  8
2 Motor Plate
 62
256
370
-1
  6
ByLayer
 10
56.5766062413411888
 20
37.7500000000000426
 30
0.0
 40
1.3999999999999999
  0
CIRCLE
  5
63
100
AcDbEntity
100
AcDbCircle
  8
2 Motor Plate
 62
256
370
-1
  6
ByLayer
 10
83.4233827588477652
 20
37.7499936484464058
 30
0.0
 40
1.3999999999999999
  0
ARC
  5
64
100
AcDbEntity
  8
2 Motor Plate
 62
256
370
-1
  6
ByLayer
100
AcDbCircle
 10
94.9999999999999716
 20
45.0000000000000284
 30
0.0
 40
5.0
100
AcDbArc
 50
0.0
 51
90.0
  0
LINE
  5
65
100
AcDbEntity
100
AcDbLine
  8
2 Motor Plate
 62
256
370
-1
  6
ByLayer
 10
70.0
 20
50.0
 30
0.0
 11
95.0000000000000284
 21
50.0000000000000142
 31
0.0
  0
LINE
  5
66
100
AcDbEntity
100
AcDbLine
  8
2 Motor Plate
 62
0
370
-1
  6
ByLayer
 10
69.0
 20
10.0
 30
0.0
 11
84.0
 21
10.0
 31
0.0
  0
LINE
  5
67
100
AcDbEntity
100
AcDbLine
  8
2 Motor Plate
 62
256
370
-1
  6
ByLayer
 10
50.0
 20
30.0
 30
0.0
 11
50.0
 21
0.0
 31
0.0
  0
LINE
  5
68
100
AcDbEntity
100
AcDbLine
  8
2 Motor Plate
 62
0
370
-1
  6
ByLayer
 10
69.0
 20
10.0
 30
0.0
 11
69.0
 21
0.0
 31
0.0
  0
LINE
  5
69
100
AcDbEntity
100
AcDbLine
  8
2 Motor Plate
 62
0
370
-1
  6
ByLayer
 10
84.0
 20
10.0
 30
0.0
 11
84.0
 21
0.0
 31
0.0
  0
LINE
  5
6A
100
AcDbEntity
100
AcDbLine
  8
2 Motor Plate
 62
256
370
-1
  6
ByLayer
 10
100.0
 20
45.0
 30
0.0
 11
100.0
 21
0.0
 31
0.0
  0
LINE
  5
6B
100
AcDbEntity
100
AcDbLine
  8
2 Motor Plate
 62
256
370
-1
  6
ByLayer
 10
50.0
 20
0.0
 30
0.0
 11
69.0
 21
0.0000000000000142
 31
0.0
  0
LINE
  5
6C
100
AcDbEntity
100
AcDbLine
  8
2 Motor Plate
 62
256
370
-1
  6
ByLayer
 10
84.0
 20
0.0000000000000142
 30
0.0
 11
100.0
 21
0.0000000000000142
 31
0.0
  0
CIRCLE
  5
6D
100
AcDbEntity
100
AcDbCircle
  8
2 Motor Plate
 62
256
370
-1
  6
ByLayer
 10
69.9999872980999953
 20
30.0000220002999995
 30
0.0
 40
8.4499999999999993
  0
CIRCLE
  5
6E
100
AcDbEntity
100
AcDbCircle
  8
2 Motor Plate
 62
256
370
-1
  6
ByLayer
 10
95.0
 20
39.0
 30
0.0
 40
1.3999999999999999
  0
CIRCLE
  5
6F
100
AcDbEntity
100
AcDbCircle
  8
2 Motor Plate
 62
256
370
-1
  6
ByLayer
 10
95.0
 20
21.0
 30
0.0
 40
1.3999999999999999
  0
CIRCLE
  5
70
100
AcDbEntity
100
AcDbCircle
  8
3 Filament Guide
 62
256
370
-1
  6
ByLayer
 10
146.4999872981077544
 20
33.0000220003226872
 30
0.0
 40
1.45
  0
CIRCLE
  5
71
100
AcDbEntity
100
AcDbCircle
  8
3 Filament Guide
 62
256
370
-1
  6
ByLayer
 10
146.4999872981077544
 20
27.0000220003226872
 30
0.0
 40
1.45
  0
ARC
  5
72
100
AcDbEntity
  8
3 Filament Guide
 62
256
370
-1
  6
ByLayer
100
AcDbCircle
 10
119.9999872981077544
 20
30.0000220003226872
 30
0.0
 40
20.0
100
AcDbArc
 50
90.0
 51
180.0
  0
LINE
  5
73
100
AcDbEntity
100
AcDbLine
  8
3 Filament Guide
 62
0
370
-1
  6
ByLayer
 10
118.5
 20
9.9999999999999964
 30
0.0
 11
134.5
 21
9.9999999999999964
 31
0.0
  0
LINE
  5
74
100
AcDbEntity
100
AcDbLine
  8
3 Filament Guide
 62
256
370
-1
  6
ByLayer
 10
125.0
 20
20.0
 30
0.0
 11
125.0
 21
10.0
 31
0.0
  0
ARC
  5
75
100
AcDbEntity
  8
3 Filament Guide
 62
256
370
-1
  6
ByLayer
100
AcDbCircle
 10
121.0
 20
46.0
 30
0.0
 40
4.0
100
AcDbArc
 50
0.0
 51
90.0
  0
LINE
  5
76
100
AcDbEntity
100
AcDbLine
  8
3 Filament Guide
 62
256
370
-1
  6
ByLayer
 10
120.0
 20
50.0
 30
0.0
 11
121.0
 21
50.0
 31
0.0
  0
LINE
  5
77
100
AcDbEntity
100
AcDbLine
  8
3 Filament Guide
 62
256
370
-1
  6
ByLayer
 10
100.0
 20
0.0
 30
0.0
 11
100.0000000000000284
 21
29.9999999999999716
 31
0.0
  0
LINE
  5
78
100
AcDbEntity
100
AcDbLine
  8
3 Filament Guide
 62
0
370
-1
  6
ByLayer
 10
118.5
 20
9.9999999999999964
 30
0.0
 11
118.5
 21
-0.0000000000000036
 31
0.0
  0
LINE
  5
79
100
AcDbEntity
100
AcDbLine
  8
3 Filament Guide
 62
0
370
-1
  6
ByLayer
 10
134.5
 20
10.0
 30
0.0
 11
134.5
 21
-0.0000000000000036
 31
0.0
  0
LINE
  5
7A
100
AcDbEntity
100
AcDbLine
  8
3 Filament Guide
 62
256
370
-1
  6
ByLayer
 10
140.3500000000000227
 20
0.0
 30
0.0
 11
150.0
 21
0.0
 31
0.0
  0
LINE
  5
7B
100
AcDbEntity
100
AcDbLine
  8
3 Filament Guide
 62
256
370
-1
  6
ByLayer
 10
108.2999999999999829
 20
0.0
 30
0.0
 11
100.0
 21
0.0
 31
0.0
  0
LINE
  5
7C
100
AcDbEntity
100
AcDbLine
  8
3 Filament Guide
 62
256
370
-1
  6
ByLayer
 10
111.2000000000000171
 20
0.0
 30
0.0
 11
118.5
 21
-0.0000000000000036
 31
0.0
  0
LINE
  5
7D
100
AcDbEntity
100
AcDbLine
  8
3 Filament Guide
 62
256
370
-1
  6
ByLayer
 10
134.5
 20
-0.0000000000000036
 30
0.0
 11
137.4499999999999886
 21
0.0
 31
0.0
  0
CIRCLE
  5
7E
100
AcDbEntity
100
AcDbCircle
  8
3 Filament Guide
 62
256
370
-1
  6
ByLayer
 10
106.5766062411140069
 20
22.2500000003935092
 30
0.0
 40
1.3999999999999999
  0
CIRCLE
  5
7F
100
AcDbEntity
100
AcDbCircle
  8
3 Filament Guide
 62
256
370
-1
  6
ByLayer
 10
120.0
 20
45.4999999999999858
 30
0.0
 40
1.3999999999999999
  0
CIRCLE
  5
80
100
AcDbEntity
100
AcDbCircle
  8
3 Filament Guide
 62
256
370
-1
  6
ByLayer
 10
106.5766062413411817
 20
37.7500000000000426
 30
0.0
 40
1.3999999999999999
  0
CIRCLE
  5
81
100
AcDbEntity
100
AcDbCircle
  8
3 Filament Guide
 62
256
370
-1
  6
ByLayer
 10
119.9999999999999858
 20
14.500000000000032
 30
0.0
 40
1.3999999999999999
  0
CIRCLE
  5
82
100
AcDbEntity
100
AcDbCircle
  8
3 Filament Guide
 62
256
370
-1
  6
ByLayer
 10
133.4233937586587899
 20
22.2500000000000178
 30
0.0
 40
1.3999999999999999
  0
ARC
  5
83
100
AcDbEntity
  8
3 Filament Guide
 62
256
370
-1
  6
ByLayer
100
AcDbCircle
 10
119.9999872980999953
 20
30.0000220002999995
 30
0.0
 40
8.4499999999999993
100
AcDbArc
 50
50.0
 51
300.0
  0
LINE
  5
84
100
AcDbEntity
100
AcDbLine
  8
3 Filament Guide
 62
256
370
-1
  6
ByLayer
 10
125.0
 20
46.0
 30
0.0
 11
125.0
 21
36.8119507272347306
 31
0.0
  0
ARC
  5
85
100
AcDbEntity
  8
3 Filament Guide
 62
0
370
-1
  6
ByLayer
100
AcDbCircle
 10
122.0
 20
20.0
 30
0.0
 40
3.0
100
AcDbArc
 50
0.0
 51
55.0
  0
ARC
  5
86
100
AcDbEntity
  8
3 Filament Guide
 62
0
370
-1
  6
ByLayer
100
AcDbCircle
 10
129.0
 20
36.0
 30
0.0
 40
1.0
100
AcDbArc
 50
180.0
 51
270.0
  0
ARC
  5
87
100
AcDbEntity
  8
3 Filament Guide
 62
0
370
-1
  6
ByLayer
100
AcDbCircle
 10
129.0
 20
24.0
 30
0.0
 40
1.0
100
AcDbArc
 50
90.0
 51
180.0
  0
LINE
  5
88
100
AcDbEntity
100
AcDbLine
  8
3 Filament Guide
 62
256
370
-1
  6
ByLayer
 10
128.0
 20
24.0
 30
0.0
 11
128.0
 21
10.0
 31
0.0
  0
ARC
  5
89
100
AcDbEntity
  8
3 Filament Guide
 62
256
370
-1
  6
ByLayer
100
AcDbCircle
 10
108.2000000000000028
 20
14.8999999999999968
 30
0.0
 40
0.1000000000000014
100
AcDbArc
 50
270.0
 51
0.0
  0
ARC
  5
8A
100
AcDbEntity
  8
3 Filament Guide
 62
256
370
-1
  6
ByLayer
100
AcDbCircle
 10
111.2999999999999972
 20
14.8999999999999968
 30
0.0
 40
0.1000000000000014
100
AcDbArc
 50
180.0
 51
270.0
  0
ARC
  5
8B
100
AcDbEntity
  8
3 Filament Guide
 62
256
370
-1
  6
ByLayer
100
AcDbCircle
 10
111.2999999999999972
 20
12.3999999999999986
 30
0.0
 40
0.0999999999999979
100
AcDbArc
 50
90.0
 51
180.0
  0
ARC
  5
8C
100
AcDbEntity
  8
3 Filament Guide
 62
256
370
-1
  6
ByLayer
100
AcDbCircle
 10
108.2000000000000028
 20
12.399999999999995
 30
0.0
 40
0.1000000000000014
100
AcDbArc
 50
0.0
 51
90.0
  0
LINE
  5
8D
100
AcDbEntity
100
AcDbLine
  8
3 Filament Guide
 62
0
370
-1
  6
ByLayer
 10
111.2000000000000028
 20
12.3999999999999986
 30
0.0
 11
111.2000000000000171
 21
0.0
 31
0.0
  0
LINE
  5
8E
100
AcDbEntity
100
AcDbLine
  8
3 Filament Guide
 62
0
370
-1
  6
ByLayer
 10
108.2999999999999972
 20
12.3999999999999986
 30
0.0
 11
108.2999999999999829
 21
0.0
 31
0.0
  0
ARC
  5
8F
100
AcDbEntity
  8
3 Filament Guide
 62
256
370
-1
  6
ByLayer
100
AcDbCircle
 10
108.4000000000000057
 20
16.8999999999999986
 30
0.0
 40
0.0999999999999996
100
AcDbArc
 50
90.0
 51
180.0
  0
ARC
  5
90
100
AcDbEntity
  8
3 Filament Guide
 62
256
370
-1
  6
ByLayer
100
AcDbCircle
 10
111.0999999999999943
 20
16.8999999999999986
 30
0.0
 40
0.0999999999999996
100
AcDbArc
 50
0.0
 51
90.0
  0
LINE
  5
91
100
AcDbEntity
100
AcDbLine
  8
3 Filament Guide
 62
0
370
-1
  6
ByLayer
 10
111.2000000000000028
 20
16.8999999999999986
 30
0.0
 11
111.2000000000000028
 21
14.8999999999999986
 31
0.0
  0
LINE
  5
92
100
AcDbEntity
100
AcDbLine
  8
3 Filament Guide
 62
0
370
-1
  6
ByLayer
 10
108.2999999999999972
 20
16.8999999999999986
 30
0.0
 11
108.2999999999999972
 21
14.9000000000000004
 31
0.0
  0
LINE
  5
93
100
AcDbEntity
100
AcDbLine
  8
3 Filament Guide
 62
0
370
-1
  6
ByLayer
 10
108.4000000000000057
 20
17.0
 30
0.0
 11
111.0999999999999943
 21
17.0
 31
0.0
  0
ARC
  5
94
100
AcDbEntity
  8
3 Filament Guide
 62
256
370
-1
  6
ByLayer
100
AcDbCircle
 10
106.7000000000000028
 20
14.6999999999999993
 30
0.0
 40
0.0999999999999996
100
AcDbArc
 50
90.0
 51
180.0
  0
ARC
  5
95
100
AcDbEntity
  8
3 Filament Guide
 62
256
370
-1
  6
ByLayer
100
AcDbCircle
 10
106.7000000000000028
 20
12.5999999999999979
 30
0.0
 40
0.0999999999999996
100
AcDbArc
 50
180.0
 51
270.0
  0
ARC
  5
96
100
AcDbEntity
  8
3 Filament Guide
 62
256
370
-1
  6
ByLayer
100
AcDbCircle
 10
112.7999999999999972
 20
12.5999999999999979
 30
0.0
 40
0.1000000000000014
100
AcDbArc
 50
270.0
 51
0.0
  0
ARC
  5
97
100
AcDbEntity
  8
3 Filament Guide
 62
256
370
-1
  6
ByLayer
100
AcDbCircle
 10
112.7999999999999972
 20
14.6999999999999993
 30
0.0
 40
0.0999999999999996
100
AcDbArc
 50
0.0
 51
90.0
  0
LINE
  5
98
100
AcDbEntity
100
AcDbLine
  8
3 Filament Guide
 62
0
370
-1
  6
ByLayer
 10
106.7000000000000028
 20
12.4999999999999964
 30
0.0
 11
108.2000000000000028
 21
12.5
 31
0.0
  0
LINE
  5
99
100
AcDbEntity
100
AcDbLine
  8
3 Filament Guide
 62
0
370
-1
  6
ByLayer
 10
106.5999999999999943
 20
14.6999999999999993
 30
0.0
 11
106.5999999999999943
 21
12.5999999999999979
 31
0.0
  0
LINE
  5
9A
100
AcDbEntity
100
AcDbLine
  8
3 Filament Guide
 62
0
370
-1
  6
ByLayer
 10
108.2000000000000028
 20
14.8000000000000007
 30
0.0
 11
106.7000000000000028
 21
14.7999999999999989
 31
0.0
  0
LINE
  5
9B
100
AcDbEntity
100
AcDbLine
  8
3 Filament Guide
 62
0
370
-1
  6
ByLayer
 10
111.2999999999999972
 20
12.4999999999999964
 30
0.0
 11
112.7999999999999972
 21
12.4999999999999964
 31
0.0
  0
LINE
  5
9C
100
AcDbEntity
100
AcDbLine
  8
3 Filament Guide
 62
0
370
-1
  6
ByLayer
 10
112.9000000000000057
 20
14.6999999999999993
 30
0.0
 11
112.9000000000000057
 21
12.5999999999999979
 31
0.0
  0
LINE
  5
9D
100
AcDbEntity
100
AcDbLine
  8
3 Filament Guide
 62
0
370
-1
  6
ByLayer
 10
111.2999999999999972
 20
14.7999999999999989
 30
0.0
 11
112.7999999999999972
 21
14.7999999999999989
 31
0.0
  0
ARC
  5
9E
100
AcDbEntity
  8
3 Filament Guide
 62
256
370
-1
  6
ByLayer
100
AcDbCircle
 10
137.3500000000000227
 20
14.9000000000000004
 30
0.0
 40
0.1000000000000014
100
AcDbArc
 50
270.0
 51
0.0
  0
ARC
  5
9F
100
AcDbEntity
  8
3 Filament Guide
 62
256
370
-1
  6
ByLayer
100
AcDbCircle
 10
140.4500000000000171
 20
14.9000000000000004
 30
0.0
 40
0.1000000000000014
100
AcDbArc
 50
180.0
 51
270.0
  0
ARC
  5
A0
100
AcDbEntity
  8
3 Filament Guide
 62
256
370
-1
  6
ByLayer
100
AcDbCircle
 10
140.4500000000000171
 20
12.4000000000000021
 30
0.0
 40
0.0999999999999979
100
AcDbArc
 50
90.0
 51
180.0
  0
ARC
  5
A1
100
AcDbEntity
  8
3 Filament Guide
 62
256
370
-1
  6
ByLayer
100
AcDbCircle
 10
137.3500000000000227
 20
12.3999999999999986
 30
0.0
 40
0.1000000000000014
100
AcDbArc
 50
0.0
 51
90.0
  0
LINE
  5
A2
100
AcDbEntity
100
AcDbLine
  8
3 Filament Guide
 62
0
370
-1
  6
ByLayer
 10
140.3500000000000227
 20
12.4000000000000021
 30
0.0
 11
140.3500000000000227
 21
0.0000000000000036
 31
0.0
  0
LINE
  5
A3
100
AcDbEntity
100
AcDbLine
  8
3 Filament Guide
 62
0
370
-1
  6
ByLayer
 10
137.4500000000000171
 20
12.4000000000000021
 30
0.0
 11
137.4499999999999886
 21
0.0000000000000036
 31
0.0
  0
ARC
  5
A4
100
AcDbEntity
  8
3 Filament Guide
 62
256
370
-1
  6
ByLayer
100
AcDbCircle
 10
137.5500000000000114
 20
16.9000000000000021
 30
0.0
 40
0.0999999999999996
100
AcDbArc
 50
90.0
 51
180.0
  0
ARC
  5
A5
100
AcDbEntity
  8
3 Filament Guide
 62
256
370
-1
  6
ByLayer
100
AcDbCircle
 10
140.25
 20
16.9000000000000021
 30
0.0
 40
0.0999999999999996
100
AcDbArc
 50
0.0
 51
90.0
  0
LINE
  5
A6
100
AcDbEntity
100
AcDbLine
  8
3 Filament Guide
 62
0
370
-1
  6
ByLayer
 10
140.3500000000000227
 20
16.9000000000000057
 30
0.0
 11
140.3500000000000227
 21
14.9000000000000021
 31
0.0
  0
LINE
  5
A7
100
AcDbEntity
100
AcDbLine
  8
3 Filament Guide
 62
0
370
-1
  6
ByLayer
 10
137.4500000000000171
 20
16.9000000000000057
 30
0.0
 11
137.4500000000000171
 21
14.9000000000000039
 31
0.0
  0
LINE
  5
A8
100
AcDbEntity
100
AcDbLine
  8
3 Filament Guide
 62
0
370
-1
  6
ByLayer
 10
137.5500000000000114
 20
17.0000000000000036
 30
0.0
 11
140.25
 21
17.0000000000000036
 31
0.0
  0
ARC
  5
A9
100
AcDbEntity
  8
3 Filament Guide
 62
256
370
-1
  6
ByLayer
100
AcDbCircle
 10
135.8500000000000227
 20
14.7000000000000028
 30
0.0
 40
0.0999999999999996
100
AcDbArc
 50
90.0
 51
180.0
  0
ARC
  5
AA
100
AcDbEntity
  8
3 Filament Guide
 62
256
370
-1
  6
ByLayer
100
AcDbCircle
 10
135.8500000000000227
 20
12.6000000000000014
 30
0.0
 40
0.0999999999999996
100
AcDbArc
 50
180.0
 51
270.0
  0
ARC
  5
AB
100
AcDbEntity
  8
3 Filament Guide
 62
256
370
-1
  6
ByLayer
100
AcDbCircle
 10
141.9500000000000171
 20
12.6000000000000014
 30
0.0
 40
0.1000000000000014
100
AcDbArc
 50
270.0
 51
0.0
  0
ARC
  5
AC
100
AcDbEntity
  8
3 Filament Guide
 62
256
370
-1
  6
ByLayer
100
AcDbCircle
 10
141.9500000000000171
 20
14.7000000000000028
 30
0.0
 40
0.0999999999999996
100
AcDbArc
 50
0.0
 51
90.0
  0
LINE
  5
AD
100
AcDbEntity
100
AcDbLine
  8
3 Filament Guide
 62
0
370
-1
  6
ByLayer
 10
135.8500000000000227
 20
12.5
 30
0.0
 11
137.3500000000000227
 21
12.5000000000000036
 31
0.0
  0
LINE
  5
AE
100
AcDbEntity
100
AcDbLine
  8
3 Filament Guide
 62
0
370
-1
  6
ByLayer
 10
135.75
 20
14.7000000000000028
 30
0.0
 11
135.75
 21
12.6000000000000014
 31
0.0
  0
LINE
  5
AF
100
AcDbEntity
100
AcDbLine
  8
3 Filament Guide
 62
0
370
-1
  6
ByLayer
 10
137.3500000000000227
 20
14.8000000000000043
 30
0.0
 11
135.8500000000000227
 21
14.8000000000000025
 31
0.0
  0
LINE
  5
B0
100
AcDbEntity
100
AcDbLine
  8
3 Filament Guide
 62
0
370
-1
  6
ByLayer
 10
140.4500000000000171
 20
12.5
 30
0.0
 11
141.9500000000000171
 21
12.5
 31
0.0
  0
LINE
  5
B1
100
AcDbEntity
100
AcDbLine
  8
3 Filament Guide
 62
0
370
-1
  6
ByLayer
 10
142.0500000000000114
 20
14.7000000000000028
 30
0.0
 11
142.0500000000000114
 21
12.6000000000000014
 31
0.0
  0
LINE
  5
B2
100
AcDbEntity
100
AcDbLine
  8
3 Filament Guide
 62
0
370
-1
  6
ByLayer
 10
140.4500000000000171
 20
14.8000000000000025
 30
0.0
 11
141.9500000000000171
 21
14.8000000000000025
 31
0.0
  0
ARC
  5
B3
100
AcDbEntity
  8
3 Filament Guide
 62
256
370
-1
  6
ByLayer
100
AcDbCircle
 10
149.0
 20
24.0
 30
0.0
 40
1.0
100
AcDbArc
 50
0.0
 51
90.0
  0
ARC
  5
B4
100
AcDbEntity
  8
3 Filament Guide
 62
256
370
-1
  6
ByLayer
100
AcDbCircle
 10
149.0
 20
36.0
 30
0.0
 40
1.0
100
AcDbArc
 50
270.0
 51
0.0
  0
LINE
  5
B5
100
AcDbEntity
100
AcDbLine
  8
3 Filament Guide
 62
256
370
-1
  6
ByLayer
 10
150.0
 20
24.0
 30
0.0
 11
150.0
 21
0.0
 31
0.0
  0
LINE
  5
B6
100
AcDbEntity
100
AcDbLine
  8
3 Filament Guide
 62
0
370
-1
  6
ByLayer
 10
129.0
 20
25.0
 30
0.0
 11
149.0
 21
25.0
 31
0.0
  0
LINE
  5
B7
100
AcDbEntity
100
AcDbLine
  8
3 Filament Guide
 62
256
370
-1
  6
ByLayer
 10
150.0
 20
39.0
 30
0.0
 11
150.0
 21
36.0
 31
0.0
  0
LINE
  5
B8
100
AcDbEntity
100
AcDbLine
  8
3 Filament Guide
 62
0
370
-1
  6
ByLayer
 10
129.0
 20
35.0
 30
0.0
 11
149.0
 21
35.0
 31
0.0
  0
ARC
  5
B9
100
AcDbEntity
  8
3 Filament Guide
 62
256
370
-1
  6
ByLayer
100
AcDbCircle
 10
145.0
 20
39.0
 30
0.0
 40
5.0
100
AcDbArc
 50
0.0
 51
90.0
  0
CIRCLE
  5
BA
100
AcDbEntity
100
AcDbCircle
  8
3 Filament Guide
 62
256
370
-1
  6
ByLayer
 10
145.0
 20
39.0
 30
0.0
 40
1.3999999999999999
  0
CIRCLE
  5
BB
100
AcDbEntity
100
AcDbCircle
  8
3 Filament Guide
 62
256
370
-1
  6
ByLayer
 10
145.0
 20
21.0
 30
0.0
 40
1.3999999999999999
  0
CIRCLE
  5
BC
100
AcDbEntity
100
AcDbCircle
  8
3 Filament Guide
 62
256
370
-1
  6
ByLayer
 10
133.4234000000000151
 20
37.7499899999999968
 30
0.0
 40
1.3999999999999999
  0
ARC
  5
BD
100
AcDbEntity
  8
3 Filament Guide
 62
256
370
-1
  6
ByLayer
100
AcDbCircle
 10
134.0
 20
38.0
 30
0.0
 40
6.0
100
AcDbArc
 50
90.0
 51
180.0
  0
LINE
  5
BE
100
AcDbEntity
100
AcDbLine
  8
3 Filament Guide
 62
256
370
-1
  6
ByLayer
 10
134.0
 20
44.0
 30
0.0
 11
145.0000000000000568
 21
43.9999999999999858
 31
0.0
  0
LINE
  5
BF
100
AcDbEntity
100
AcDbLine
  8
3 Filament Guide
 62
256
370
-1
  6
ByLayer
 10
128.0
 20
38.0
 30
0.0
 11
128.0
 21
36.0
 31
0.0
  0
CIRCLE
  5
C0
100
AcDbEntity
100
AcDbCircle
  8
4 Retainer Plate
 62
256
370
-1
  6
ByLayer
 10
196.4999872981077544
 20
33.0000220003226872
 30
0.0
 40
1.45
  0
CIRCLE
  5
C1
100
AcDbEntity
100
AcDbCircle
  8
4 Retainer Plate
 62
256
370
-1
  6
ByLayer
 10
196.4999872981077544
 20
27.0000220003226872
 30
0.0
 40
1.45
  0
ARC
  5
C2
100
AcDbEntity
  8
4 Retainer Plate
 62
256
370
-1
  6
ByLayer
100
AcDbCircle
 10
169.9999872981077544
 20
30.0000220003226872
 30
0.0
 40
20.0
100
AcDbArc
 50
90.0
 51
180.0
  0
LINE
  5
C3
100
AcDbEntity
100
AcDbLine
  8
4 Retainer Plate
 62
256
370
-1
  6
ByLayer
 10
170.0
 20
50.0
 30
0.0
 11
195.0
 21
50.0
 31
0.0
  0
ARC
  5
C4
100
AcDbEntity
  8
4 Retainer Plate
 62
256
370
-1
  6
ByLayer
100
AcDbCircle
 10
195.0
 20
45.0
 30
0.0
 40
5.0
100
AcDbArc
 50
0.0
 51
90.0
  0
LINE
  5
C5
100
AcDbEntity
100
AcDbLine
  8
4 Retainer Plate
 62
0
370
-1
  6
ByLayer
 10
169.0
 20
10.0
 30
0.0
 11
184.0
 21
10.0
 31
0.0
  0
LINE
  5
C6
100
AcDbEntity
100
AcDbLine
  8
4 Retainer Plate
 62
256
370
-1
  6
ByLayer
 10
200.0
 20
45.0
 30
0.0
 11
200.0
 21
0.0
 31
0.0
  0
LINE
  5
C7
100
AcDbEntity
100
AcDbLine
  8
4 Retainer Plate
 62
0
370
-1
  6
ByLayer
 10
184.0
 20
10.0000000000000036
 30
0.0
 11
184.0
 21
0.0
 31
0.0
  0
LINE
  5
C8
100
AcDbEntity
100
AcDbLine
  8
4 Retainer Plate
 62
0
370
-1
  6
ByLayer
 10
169.0
 20
10.0
 30
0.0
 11
169.0
 21
0.0
 31
0.0
  0
LINE
  5
C9
100
AcDbEntity
100
AcDbLine
  8
4 Retainer Plate
 62
256
370
-1
  6
ByLayer
 10
150.0
 20
0.0
 30
0.0
 11
150.0
 21
30.0
 31
0.0
  0
LINE
  5
CA
100
AcDbEntity
100
AcDbLine
  8
4 Retainer Plate
 62
256
370
-1
  6
ByLayer
 10
169.0
 20
0.0
 30
0.0
 11
150.0
 21
0.0
 31
0.0
  0
LINE
  5
CB
100
AcDbEntity
100
AcDbLine
  8
4 Retainer Plate
 62
0
370
-1
  6
ByLayer
 10
184.0
 20
0.0
 30
0.0
 11
200.0
 21
0.0
 31
0.0
  0
CIRCLE
  5
CC
100
AcDbEntity
100
AcDbCircle
  8
4 Retainer Plate
 62
256
370
-1
  6
ByLayer
 10
156.5766062411140069
 20
22.2500000003935092
 30
0.0
 40
1.3999999999999999
  0
CIRCLE
  5
CD
100
AcDbEntity
100
AcDbCircle
  8
4 Retainer Plate
 62
256
370
-1
  6
ByLayer
 10
170.0
 20
45.4999999999999858
 30
0.0
 40
1.3999999999999999
  0
CIRCLE
  5
CE
100
AcDbEntity
100
AcDbCircle
  8
4 Retainer Plate
 62
256
370
-1
  6
ByLayer
 10
156.5766062413412101
 20
37.7500000000000426
 30
0.0
 40
1.3999999999999999
  0
CIRCLE
  5
CF
100
AcDbEntity
100
AcDbCircle
  8
4 Retainer Plate
 62
256
370
-1
  6
ByLayer
 10
183.4233827588477652
 20
37.7499936484464058
 30
0.0
 40
1.3999999999999999
  0
CIRCLE
  5
D0
100
AcDbEntity
100
AcDbCircle
  8
4 Retainer Plate
 62
256
370
-1
  6
ByLayer
 10
170.0
 20
14.500000000000032
 30
0.0
 40
1.3999999999999999
  0
CIRCLE
  5
D1
100
AcDbEntity
100
AcDbCircle
  8
4 Retainer Plate
 62
256
370
-1
  6
ByLayer
 10
183.4233937586587899
 20
22.2500000000000178
 30
0.0
 40
1.3999999999999999
  0
ARC
  5
D2
100
AcDbEntity
  8
4 Retainer Plate
 62
256
370
-1
  6
ByLayer
100
AcDbCircle
 10
169.9999872980999953
 20
30.0000220002999995
 30
0.0
 40
8.4499999999999993
100
AcDbArc
 50
0.0
 51
0.0
  0
CIRCLE
  5
D3
100
AcDbEntity
100
AcDbCircle
  8
4 Retainer Plate
 62
256
370
-1
  6
ByLayer
 10
195.0
 20
39.0
 30
0.0
 40
1.3999999999999999
  0
CIRCLE
  5
D4
100
AcDbEntity
100
AcDbCircle
  8
4 Retainer Plate
 62
256
370
-1
  6
ByLayer
 10
195.0
 20
21.0
 30
0.0
 40
1.3999999999999999
  0
ENDSEC
  0
SECTION
  2
OBJECTS
  0
DICTIONARY
  5
C
100
AcDbDictionary
280
0
281
1
  3
ACAD_GROUP
350
D
  3
ACAD_LAYOUT
350
1A
  3
ACAD_MLINESTYLE
350
17
  3
ACAD_PLOTSETTINGS
350
19
  3
ACAD_PLOTSTYLENAME
350
E
  3
AcDbVariableDictionary
350
D5
  0
DICTIONARY
  5
D
100
AcDbDictionary
280
0
281
1
  0
ACDBDICTIONARYWDFLT
  5
E
100
AcDbDictionary
281
1
  3
Normal
350
F
100
AcDbDictionaryWithDefault
340
F
  0
ACDBPLACEHOLDER
  5
F
  0
DICTIONARY
  5
17
100
AcDbDictionary
280
0
281
1
  3
Standard
350
18
  0
MLINESTYLE
  5
18
100
AcDbMlineStyle
  2
STANDARD
 70
0
  3

 62
256
 51
90.0
 52
90.0
 71
2
 49
0.5
 62
256
  6
BYLAYER
 49
-0.5
 62
256
  6
BYLAYER
  0
DICTIONARY
  5
19
100
AcDbDictionary
280
0
281
1
  0
DICTIONARY
  5
1A
100
AcDbDictionary
281
1
  3
Layout1
350
1E
  3
Layout2
350
26
  3
Model
350
22
  0
LAYOUT
  5
1E
100
AcDbPlotSettings
  1

  2
C:\Program Files\AutoCAD 2002\plotters\DWF ePlot (optimized for plotting).pc3
  4

  6

 40
0.0
 41
0.0
 42
0.0
 43
0.0
 44
0.0
 45
0.0
 46
0.0
 47
0.0
 48
0.0
 49
0.0
140
0.0
141
0.0
142
1.0
143
1.0
 70
688
 72
0
 73
0
 74
5
  7

 75
16
147
1.0
148
0.0
149
0.0
100
AcDbLayout
  1
Layout1
 70
1
 71
1
 10
0.0
 20
0.0
 11
420.0
 21
297.0
 12
0.0
 22
0.0
 32
0.0
 14
100000000000000000000.0
 24
100000000000000000000.0
 34
100000000000000000000.0
 15
-100000000000000000000.0
 25
-100000000000000000000.0
 35
-100000000000000000000.0
146
0.0
 13
0.0
 23
0.0
 33
0.0
 16
1.0
 26
0.0
 36
0.0
 17
0.0
 27
1.0
 37
0.0
 76
0
330
1B
  0
LAYOUT
  5
22
100
AcDbPlotSettings
  1

  2
C:\Program Files\AutoCAD 2002\plotters\DWF ePlot (optimized for plotting).pc3
  4

  6

 40
0.0
 41
0.0
 42
0.0
 43
0.0
 44
0.0
 45
0.0
 46
0.0
 47
0.0
 48
0.0
 49
0.0
140
0.0
141
0.0
142
1.0
143
1.0
 70
1712
 72
0
 73
0
 74
0
  7

 75
0
147
1.0
148
0.0
149
0.0
100
AcDbLayout
  1
Model
 70
1
 71
0
 10
0.0
 20
0.0
 11
12.0
 21
9.0
 12
0.0
 22
0.0
 32
0.0
 14
0.0
 24
0.0
 34
0.0
 15
0.0
 25
0.0
 35
0.0
146
0.0
 13
0.0
 23
0.0
 33
0.0
 16
1.0
 26
0.0
 36
0.0
 17
0.0
 27
1.0
 37
0.0
 76
0
330
1F
  0
LAYOUT
  5
26
100
AcDbPlotSettings
  1

  2
C:\Program Files\AutoCAD 2002\plotters\DWF ePlot (optimized for plotting).pc3
  4

  6

 40
0.0
 41
0.0
 42
0.0
 43
0.0
 44
0.0
 45
0.0
 46
0.0
 47
0.0
 48
0.0
 49
0.0
140
0.0
141
0.0
142
1.0
143
1.0
 70
688
 72
0
 73
0
 74
5
  7

 75
16
147
1.0
148
0.0
149
0.0
100
AcDbLayout
  1
Layout2
 70
1
 71
2
 10
0.0
 20
0.0
 11
12.0
 21
9.0
 12
0.0
 22
0.0
 32
0.0
 14
0.0
 24
0.0
 34
0.0
 15
0.0
 25
0.0
 35
0.0
146
0.0
 13
0.0
 23
0.0
 33
0.0
 16
1.0
 26
0.0
 36
0.0
 17
0.0
 27
1.0
 37
0.0
 76
0
330
23
  0
DICTIONARY
  5
D5
100
AcDbDictionary
281
1
  3
DIMASSOC
350
D7
  3
HIDETEXT
350
D6
  0
DICTIONARYVAR
  5
D6
100
DictionaryVariables
280
0
  1
2
  0
DICTIONARYVAR
  5
D7
100
DictionaryVariables
280
0
  1
1
  0
ENDSEC
  0
EOF
