<?xml version="1.0" encoding="UTF-8" standalone="yes"?>
<svg width="203mm" height="53mm" viewBox="0 0 203 53" version="1.1" xmlns="http://www.w3.org/2000/svg" style="stroke-linecap: round;">
  <ellipse cx="47.7325" cy="18.835" rx="1.45725" ry="1.45725" style="stroke: rgb(0, 0, 0); stroke-width: 0.1; fill: none;"/>
  <ellipse cx="47.7325" cy="24.865" rx="1.45725" ry="1.45725" style="stroke: rgb(0, 0, 0); stroke-width: 0.1; fill: none;"/>
  <path d="M21.1,1.74998 A20.1,20.1 0 0,0 0.999987,21.85 " style="stroke: rgb(0, 0, 0); stroke-width: 0.1; fill: none;"/>
  <ellipse cx="7.60949" cy="29.6388" rx="1.407" ry="1.407" style="stroke: rgb(0, 0, 0); stroke-width: 0.1; fill: none;"/>
  <ellipse cx="21.1" cy="37.4275" rx="1.407" ry="1.407" style="stroke: rgb(0, 0, 0); stroke-width: 0.1; fill: none;"/>
  <ellipse cx="21.1" cy="6.2725" rx="1.407" ry="1.407" style="stroke: rgb(0, 0, 0); stroke-width: 0.1; fill: none;"/>
  <ellipse cx="34.5905" cy="29.6388" rx="1.407" ry="1.407" style="stroke: rgb(0, 0, 0); stroke-width: 0.1; fill: none;"/>
  <ellipse cx="7.60949" cy="14.0613" rx="1.407" ry="1.407" style="stroke: rgb(0, 0, 0); stroke-width: 0.1; fill: none;"/>
  <ellipse cx="34.5905" cy="14.0613" rx="1.407" ry="1.407" style="stroke: rgb(0, 0, 0); stroke-width: 0.1; fill: none;"/>
  <path d="M51.25,6.775 A5.025,5.025 0 0,0 46.225,1.75 " style="stroke: rgb(0, 0, 0); stroke-width: 0.1; fill: none;"/>
  <path d="M21.1,1.75 L46.225,1.75" style="stroke: rgb(0, 0, 0); stroke-width: 0.1; fill: none;"/>
  <path d="M1,21.85 L1,52" style="stroke: rgb(0, 0, 0); stroke-width: 0.1; fill: none;"/>
  <path d="M51.25,6.775 L51.25,52" style="stroke: rgb(0, 0, 0); stroke-width: 0.1; fill: none;"/>
  <path d="M1,52 L51.25,52" style="stroke: rgb(0, 0, 0); stroke-width: 0.1; fill: none;"/>
  <ellipse cx="21.1" cy="21.85" rx="8.49225" ry="8.49225" style="stroke: rgb(0, 0, 0); stroke-width: 0.1; fill: none;"/>
  <path d="M26.125,52 L26.125,41.95" style="stroke: rgb(0, 0, 0); stroke-width: 0.1; fill: none;"/>
  <path d="M26.125,41.95 L29.14,41.95" style="stroke: rgb(0, 0, 0); stroke-width: 0.1; fill: none;"/>
  <path d="M29.14,41.95 L29.14,52" style="stroke: rgb(0, 0, 0); stroke-width: 0.1; fill: none;"/>
  <ellipse cx="46.225" cy="12.805" rx="1.407" ry="1.407" style="stroke: rgb(0, 0, 0); stroke-width: 0.1; fill: none;"/>
  <ellipse cx="46.225" cy="30.895" rx="1.407" ry="1.407" style="stroke: rgb(0, 0, 0); stroke-width: 0.1; fill: none;"/>
  <ellipse cx="97.9825" cy="18.835" rx="1.45725" ry="1.45725" style="stroke: rgb(0, 0, 0); stroke-width: 0.1; fill: none;"/>
  <ellipse cx="97.9825" cy="24.865" rx="1.45725" ry="1.45725" style="stroke: rgb(0, 0, 0); stroke-width: 0.1; fill: none;"/>
  <path d="M71.35,1.74998 A20.1,20.1 0 0,0 51.25,21.85 " style="stroke: rgb(0, 0, 0); stroke-width: 0.1; fill: none;"/>
  <ellipse cx="57.8595" cy="29.6388" rx="1.407" ry="1.407" style="stroke: rgb(0, 0, 0); stroke-width: 0.1; fill: none;"/>
  <ellipse cx="71.35" cy="37.4275" rx="1.407" ry="1.407" style="stroke: rgb(0, 0, 0); stroke-width: 0.1; fill: none;"/>
  <ellipse cx="71.35" cy="6.2725" rx="1.407" ry="1.407" style="stroke: rgb(0, 0, 0); stroke-width: 0.1; fill: none;"/>
  <ellipse cx="84.8405" cy="29.6388" rx="1.407" ry="1.407" style="stroke: rgb(0, 0, 0); stroke-width: 0.1; fill: none;"/>
  <ellipse cx="57.8595" cy="14.0613" rx="1.407" ry="1.407" style="stroke: rgb(0, 0, 0); stroke-width: 0.1; fill: none;"/>
  <ellipse cx="84.8405" cy="14.0613" rx="1.407" ry="1.407" style="stroke: rgb(0, 0, 0); stroke-width: 0.1; fill: none;"/>
  <path d="M101.5,6.775 A5.025,5.025 0 0,0 96.475,1.75 " style="stroke: rgb(0, 0, 0); stroke-width: 0.1; fill: none;"/>
  <path d="M71.35,1.75 L96.475,1.75" style="stroke: rgb(0, 0, 0); stroke-width: 0.1; fill: none;"/>
  <path d="M70.345,41.95 L85.42,41.95" style="stroke: rgb(0, 0, 0); stroke-width: 0.1; fill: none;"/>
  <path d="M51.25,21.85 L51.25,52" style="stroke: rgb(0, 0, 0); stroke-width: 0.1; fill: none;"/>
  <path d="M70.345,41.95 L70.345,52" style="stroke: rgb(0, 0, 0); stroke-width: 0.1; fill: none;"/>
  <path d="M85.42,41.95 L85.42,52" style="stroke: rgb(0, 0, 0); stroke-width: 0.1; fill: none;"/>
  <path d="M101.5,6.775 L101.5,52" style="stroke: rgb(0, 0, 0); stroke-width: 0.1; fill: none;"/>
  <path d="M51.25,52 L70.345,52" style="stroke: rgb(0, 0, 0); stroke-width: 0.1; fill: none;"/>
  <path d="M85.42,52 L101.5,52" style="stroke: rgb(0, 0, 0); stroke-width: 0.1; fill: none;"/>
  <ellipse cx="71.35" cy="21.85" rx="8.49225" ry="8.49225" style="stroke: rgb(0, 0, 0); stroke-width: 0.1; fill: none;"/>
  <ellipse cx="96.475" cy="12.805" rx="1.407" ry="1.407" style="stroke: rgb(0, 0, 0); stroke-width: 0.1; fill: none;"/>
  <ellipse cx="96.475" cy="30.895" rx="1.407" ry="1.407" style="stroke: rgb(0, 0, 0); stroke-width: 0.1; fill: none;"/>
  <ellipse cx="148.232" cy="18.835" rx="1.45725" ry="1.45725" style="stroke: rgb(0, 0, 0); stroke-width: 0.1; fill: none;"/>
  <ellipse cx="148.232" cy="24.865" rx="1.45725" ry="1.45725" style="stroke: rgb(0, 0, 0); stroke-width: 0.1; fill: none;"/>
  <path d="M121.6,1.74998 A20.1,20.1 0 0,0 101.5,21.85 " style="stroke: rgb(0, 0, 0); stroke-width: 0.1; fill: none;"/>
  <path d="M120.092,41.95 L136.172,41.95" style="stroke: rgb(0, 0, 0); stroke-width: 0.1; fill: none;"/>
  <path d="M126.625,31.9 L126.625,41.95" style="stroke: rgb(0, 0, 0); stroke-width: 0.1; fill: none;"/>
  <path d="M126.625,5.77 A4.02,4.02 0 0,0 122.605,1.75 " style="stroke: rgb(0, 0, 0); stroke-width: 0.1; fill: none;"/>
  <path d="M121.6,1.75 L122.605,1.75" style="stroke: rgb(0, 0, 0); stroke-width: 0.1; fill: none;"/>
  <path d="M101.5,52 L101.5,21.85" style="stroke: rgb(0, 0, 0); stroke-width: 0.1; fill: none;"/>
  <path d="M120.092,41.95 L120.092,52" style="stroke: rgb(0, 0, 0); stroke-width: 0.1; fill: none;"/>
  <path d="M136.172,41.95 L136.172,52" style="stroke: rgb(0, 0, 0); stroke-width: 0.1; fill: none;"/>
  <path d="M142.052,52 L151.75,52" style="stroke: rgb(0, 0, 0); stroke-width: 0.1; fill: none;"/>
  <path d="M109.841,52 L101.5,52" style="stroke: rgb(0, 0, 0); stroke-width: 0.1; fill: none;"/>
  <path d="M112.756,52 L120.092,52" style="stroke: rgb(0, 0, 0); stroke-width: 0.1; fill: none;"/>
  <path d="M136.172,52 L139.137,52" style="stroke: rgb(0, 0, 0); stroke-width: 0.1; fill: none;"/>
  <ellipse cx="108.109" cy="29.6388" rx="1.407" ry="1.407" style="stroke: rgb(0, 0, 0); stroke-width: 0.1; fill: none;"/>
  <ellipse cx="121.6" cy="6.2725" rx="1.407" ry="1.407" style="stroke: rgb(0, 0, 0); stroke-width: 0.1; fill: none;"/>
  <ellipse cx="108.109" cy="14.0613" rx="1.407" ry="1.407" style="stroke: rgb(0, 0, 0); stroke-width: 0.1; fill: none;"/>
  <ellipse cx="121.6" cy="37.4275" rx="1.407" ry="1.407" style="stroke: rgb(0, 0, 0); stroke-width: 0.1; fill: none;"/>
  <ellipse cx="135.091" cy="29.6388" rx="1.407" ry="1.407" style="stroke: rgb(0, 0, 0); stroke-width: 0.1; fill: none;"/>
  <path d="M127.059,15.3445 A8.49225,8.49225 0 1,0 125.846,29.2045 " style="stroke: rgb(0, 0, 0); stroke-width: 0.1; fill: none;"/>
  <path d="M126.625,5.77 L126.625,15.004" style="stroke: rgb(0, 0, 0); stroke-width: 0.1; fill: none;"/>
  <path d="M126.625,31.9 A3.015,3.015 0 0,0 125.339,29.4303 " style="stroke: rgb(0, 0, 0); stroke-width: 0.1; fill: none;"/>
  <path d="M129.64,15.82 A1.005,1.005 0 0,0 130.645,16.825 " style="stroke: rgb(0, 0, 0); stroke-width: 0.1; fill: none;"/>
  <path d="M130.645,26.875 A1.005,1.005 0 0,0 129.64,27.88 " style="stroke: rgb(0, 0, 0); stroke-width: 0.1; fill: none;"/>
  <path d="M129.64,27.88 L129.64,41.95" style="stroke: rgb(0, 0, 0); stroke-width: 0.1; fill: none;"/>
  <path d="M109.741,37.126 A0.1005,0.1005 0 0,0 109.841,37.0255 " style="stroke: rgb(0, 0, 0); stroke-width: 0.1; fill: none;"/>
  <path d="M112.756,37.0255 A0.1005,0.1005 0 0,0 112.856,37.126 " style="stroke: rgb(0, 0, 0); stroke-width: 0.1; fill: none;"/>
  <path d="M112.856,39.4375 A0.1005,0.1005 0 0,0 112.756,39.538 " style="stroke: rgb(0, 0, 0); stroke-width: 0.1; fill: none;"/>
  <path d="M109.841,39.538 A0.1005,0.1005 0 0,0 109.741,39.4375 " style="stroke: rgb(0, 0, 0); stroke-width: 0.1; fill: none;"/>
  <path d="M112.756,39.538 L112.756,52" style="stroke: rgb(0, 0, 0); stroke-width: 0.1; fill: none;"/>
  <path d="M109.841,39.538 L109.841,52" style="stroke: rgb(0, 0, 0); stroke-width: 0.1; fill: none;"/>
  <path d="M109.942,34.915 A0.1005,0.1005 0 0,0 109.841,35.0155 " style="stroke: rgb(0, 0, 0); stroke-width: 0.1; fill: none;"/>
  <path d="M112.756,35.0155 A0.1005,0.1005 0 0,0 112.655,34.915 " style="stroke: rgb(0, 0, 0); stroke-width: 0.1; fill: none;"/>
  <path d="M112.756,35.0155 L112.756,37.0255" style="stroke: rgb(0, 0, 0); stroke-width: 0.1; fill: none;"/>
  <path d="M109.841,35.0155 L109.841,37.0255" style="stroke: rgb(0, 0, 0); stroke-width: 0.1; fill: none;"/>
  <path d="M109.942,34.915 L112.655,34.915" style="stroke: rgb(0, 0, 0); stroke-width: 0.1; fill: none;"/>
  <path d="M108.233,37.126 A0.1005,0.1005 0 0,0 108.133,37.2265 " style="stroke: rgb(0, 0, 0); stroke-width: 0.1; fill: none;"/>
  <path d="M108.133,39.337 A0.1005,0.1005 0 0,0 108.233,39.4375 " style="stroke: rgb(0, 0, 0); stroke-width: 0.1; fill: none;"/>
  <path d="M114.364,39.4375 A0.1005,0.1005 0 0,0 114.464,39.337 " style="stroke: rgb(0, 0, 0); stroke-width: 0.1; fill: none;"/>
  <path d="M114.464,37.2265 A0.1005,0.1005 0 0,0 114.364,37.126 " style="stroke: rgb(0, 0, 0); stroke-width: 0.1; fill: none;"/>
  <path d="M108.233,39.4375 L109.741,39.4375" style="stroke: rgb(0, 0, 0); stroke-width: 0.1; fill: none;"/>
  <path d="M108.133,37.2265 L108.133,39.337" style="stroke: rgb(0, 0, 0); stroke-width: 0.1; fill: none;"/>
  <path d="M109.741,37.126 L108.233,37.126" style="stroke: rgb(0, 0, 0); stroke-width: 0.1; fill: none;"/>
  <path d="M112.856,39.4375 L114.364,39.4375" style="stroke: rgb(0, 0, 0); stroke-width: 0.1; fill: none;"/>
  <path d="M114.464,37.2265 L114.464,39.337" style="stroke: rgb(0, 0, 0); stroke-width: 0.1; fill: none;"/>
  <path d="M112.856,37.126 L114.364,37.126" style="stroke: rgb(0, 0, 0); stroke-width: 0.1; fill: none;"/>
  <path d="M139.037,37.126 A0.1005,0.1005 0 0,0 139.137,37.0255 " style="stroke: rgb(0, 0, 0); stroke-width: 0.1; fill: none;"/>
  <path d="M142.052,37.0255 A0.1005,0.1005 0 0,0 142.152,37.126 " style="stroke: rgb(0, 0, 0); stroke-width: 0.1; fill: none;"/>
  <path d="M142.152,39.4375 A0.1005,0.1005 0 0,0 142.052,39.538 " style="stroke: rgb(0, 0, 0); stroke-width: 0.1; fill: none;"/>
  <path d="M139.137,39.538 A0.1005,0.1005 0 0,0 139.037,39.4375 " style="stroke: rgb(0, 0, 0); stroke-width: 0.1; fill: none;"/>
  <path d="M142.052,39.538 L142.052,52" style="stroke: rgb(0, 0, 0); stroke-width: 0.1; fill: none;"/>
  <path d="M139.137,39.538 L139.137,52" style="stroke: rgb(0, 0, 0); stroke-width: 0.1; fill: none;"/>
  <path d="M139.238,34.915 A0.1005,0.1005 0 0,0 139.137,35.0155 " style="stroke: rgb(0, 0, 0); stroke-width: 0.1; fill: none;"/>
  <path d="M142.052,35.0155 A0.1005,0.1005 0 0,0 141.951,34.915 " style="stroke: rgb(0, 0, 0); stroke-width: 0.1; fill: none;"/>
  <path d="M142.052,35.0155 L142.052,37.0255" style="stroke: rgb(0, 0, 0); stroke-width: 0.1; fill: none;"/>
  <path d="M139.137,35.0155 L139.137,37.0255" style="stroke: rgb(0, 0, 0); stroke-width: 0.1; fill: none;"/>
  <path d="M139.238,34.915 L141.951,34.915" style="stroke: rgb(0, 0, 0); stroke-width: 0.1; fill: none;"/>
  <path d="M137.529,37.126 A0.1005,0.1005 0 0,0 137.429,37.2265 " style="stroke: rgb(0, 0, 0); stroke-width: 0.1; fill: none;"/>
  <path d="M137.429,39.337 A0.1005,0.1005 0 0,0 137.529,39.4375 " style="stroke: rgb(0, 0, 0); stroke-width: 0.1; fill: none;"/>
  <path d="M143.66,39.4375 A0.1005,0.1005 0 0,0 143.76,39.337 " style="stroke: rgb(0, 0, 0); stroke-width: 0.1; fill: none;"/>
  <path d="M143.76,37.2265 A0.1005,0.1005 0 0,0 143.66,37.126 " style="stroke: rgb(0, 0, 0); stroke-width: 0.1; fill: none;"/>
  <path d="M137.529,39.4375 L139.037,39.4375" style="stroke: rgb(0, 0, 0); stroke-width: 0.1; fill: none;"/>
  <path d="M137.429,37.2265 L137.429,39.337" style="stroke: rgb(0, 0, 0); stroke-width: 0.1; fill: none;"/>
  <path d="M139.037,37.126 L137.529,37.126" style="stroke: rgb(0, 0, 0); stroke-width: 0.1; fill: none;"/>
  <path d="M142.152,39.4375 L143.66,39.4375" style="stroke: rgb(0, 0, 0); stroke-width: 0.1; fill: none;"/>
  <path d="M143.76,37.2265 L143.76,39.337" style="stroke: rgb(0, 0, 0); stroke-width: 0.1; fill: none;"/>
  <path d="M142.152,37.126 L143.66,37.126" style="stroke: rgb(0, 0, 0); stroke-width: 0.1; fill: none;"/>
  <path d="M151.75,27.88 A1.005,1.005 0 0,0 150.745,26.875 " style="stroke: rgb(0, 0, 0); stroke-width: 0.1; fill: none;"/>
  <path d="M150.745,16.825 A1.005,1.005 0 0,0 151.75,15.82 " style="stroke: rgb(0, 0, 0); stroke-width: 0.1; fill: none;"/>
  <path d="M151.75,27.88 L151.75,52" style="stroke: rgb(0, 0, 0); stroke-width: 0.1; fill: none;"/>
  <path d="M130.645,26.875 L150.745,26.875" style="stroke: rgb(0, 0, 0); stroke-width: 0.1; fill: none;"/>
  <path d="M151.75,12.805 L151.75,15.82" style="stroke: rgb(0, 0, 0); stroke-width: 0.1; fill: none;"/>
  <path d="M130.645,16.825 L150.745,16.825" style="stroke: rgb(0, 0, 0); stroke-width: 0.1; fill: none;"/>
  <path d="M151.75,12.805 A5.025,5.025 0 0,0 146.725,7.78 " style="stroke: rgb(0, 0, 0); stroke-width: 0.1; fill: none;"/>
  <ellipse cx="146.725" cy="12.805" rx="1.407" ry="1.407" style="stroke: rgb(0, 0, 0); stroke-width: 0.1; fill: none;"/>
  <ellipse cx="146.725" cy="30.895" rx="1.407" ry="1.407" style="stroke: rgb(0, 0, 0); stroke-width: 0.1; fill: none;"/>
  <ellipse cx="135.091" cy="14.0613" rx="1.407" ry="1.407" style="stroke: rgb(0, 0, 0); stroke-width: 0.1; fill: none;"/>
  <path d="M135.67,7.78 A6.03,6.03 0 0,0 129.64,13.81 " style="stroke: rgb(0, 0, 0); stroke-width: 0.1; fill: none;"/>
  <path d="M135.67,7.78 L146.725,7.78" style="stroke: rgb(0, 0, 0); stroke-width: 0.1; fill: none;"/>
  <path d="M129.64,13.81 L129.64,15.82" style="stroke: rgb(0, 0, 0); stroke-width: 0.1; fill: none;"/>
  <ellipse cx="198.482" cy="18.835" rx="1.45725" ry="1.45725" style="stroke: rgb(0, 0, 0); stroke-width: 0.1; fill: none;"/>
  <ellipse cx="198.482" cy="24.865" rx="1.45725" ry="1.45725" style="stroke: rgb(0, 0, 0); stroke-width: 0.1; fill: none;"/>
  <path d="M171.85,1.74998 A20.1,20.1 0 0,0 151.75,21.85 " style="stroke: rgb(0, 0, 0); stroke-width: 0.1; fill: none;"/>
  <path d="M171.85,1.75 L196.975,1.75" style="stroke: rgb(0, 0, 0); stroke-width: 0.1; fill: none;"/>
  <path d="M202,6.775 A5.025,5.025 0 0,0 196.975,1.75 " style="stroke: rgb(0, 0, 0); stroke-width: 0.1; fill: none;"/>
  <path d="M170.845,41.95 L185.92,41.95" style="stroke: rgb(0, 0, 0); stroke-width: 0.1; fill: none;"/>
  <path d="M202,6.775 L202,52" style="stroke: rgb(0, 0, 0); stroke-width: 0.1; fill: none;"/>
  <path d="M185.92,41.95 L185.92,52" style="stroke: rgb(0, 0, 0); stroke-width: 0.1; fill: none;"/>
  <path d="M170.845,41.95 L170.845,52" style="stroke: rgb(0, 0, 0); stroke-width: 0.1; fill: none;"/>
  <path d="M151.75,52 L151.75,21.85" style="stroke: rgb(0, 0, 0); stroke-width: 0.1; fill: none;"/>
  <path d="M170.845,52 L151.75,52" style="stroke: rgb(0, 0, 0); stroke-width: 0.1; fill: none;"/>
  <path d="M185.92,52 L202,52" style="stroke: rgb(0, 0, 0); stroke-width: 0.1; fill: none;"/>
  <ellipse cx="158.359" cy="29.6388" rx="1.407" ry="1.407" style="stroke: rgb(0, 0, 0); stroke-width: 0.1; fill: none;"/>
  <ellipse cx="171.85" cy="6.2725" rx="1.407" ry="1.407" style="stroke: rgb(0, 0, 0); stroke-width: 0.1; fill: none;"/>
  <ellipse cx="158.359" cy="14.0613" rx="1.407" ry="1.407" style="stroke: rgb(0, 0, 0); stroke-width: 0.1; fill: none;"/>
  <ellipse cx="185.34" cy="14.0613" rx="1.407" ry="1.407" style="stroke: rgb(0, 0, 0); stroke-width: 0.1; fill: none;"/>
  <ellipse cx="171.85" cy="37.4275" rx="1.407" ry="1.407" style="stroke: rgb(0, 0, 0); stroke-width: 0.1; fill: none;"/>
  <ellipse cx="185.34" cy="29.6388" rx="1.407" ry="1.407" style="stroke: rgb(0, 0, 0); stroke-width: 0.1; fill: none;"/>
  <ellipse cx="171.85" cy="21.85" rx="8.49225" ry="8.49225" style="stroke: rgb(0, 0, 0); stroke-width: 0.1; fill: none;"/>
  <ellipse cx="196.975" cy="12.805" rx="1.407" ry="1.407" style="stroke: rgb(0, 0, 0); stroke-width: 0.1; fill: none;"/>
  <ellipse cx="196.975" cy="30.895" rx="1.407" ry="1.407" style="stroke: rgb(0, 0, 0); stroke-width: 0.1; fill: none;"/>
</svg>