999
dxflib 2.2.0.0
  0
SECTION
  2
HEADER
  9
$ACADVER
  1
AC1015
  9
$HANDSEED
  5
FFFF
  9
$DIMASZ
 40
2.5
  9
$PLIMMIN
 10
0.0
 20
0.0
  9
$DIMEXE
 40
1.25
  9
$DIMGAP
 40
0.625
  9
$PLIMMAX
 10
210.0
 20
297.0
  9
$INSUNITS
 70
4
  9
$DIMSTYLE
  2
Standard
  9
$CLAYER
  8
Top
  9
$DIMEXO
 40
0.625
  9
$DIMTXT
 40
2.5
  9
$CLAYER
  8
Drawing
  0
ENDSEC
  0
SECTION
  2
TABLES
  0
TABLE
  2
VPORT
  5
8
100
AcDbSymbolTable
 70
1
  0
VPORT
  5
30
100
AcDbSymbolTableRecord
100
AcDbViewportTableRecord
  2
*Active
 70
0
 10
0.0
 20
0.0
 11
1.0
 21
1.0
 12
286.3055555555554861
 22
148.5
 13
0.0
 23
0.0
 14
10.0
 24
10.0
 15
10.0
 25
10.0
 16
0.0
 26
0.0
 36
1.0
 17
0.0
 27
0.0
 37
0.0
 40
297.0
 41
1.92798353909465
 42
50.0
 43
0.0
 44
0.0
 50
0.0
 51
0.0
 71
0
 72
100
 73
1
 74
3
 75
1
 76
1
 77
0
 78
0
281
0
 65
1
110
0.0
120
0.0
130
0.0
111
1.0
121
0.0
131
0.0
112
0.0
122
1.0
132
0.0
 79
0
146
0.0
  0
ENDTAB
  0
TABLE
  2
LTYPE
  5
5
100
AcDbSymbolTable
 70
21
  0
LTYPE
  5
14
100
AcDbSymbolTableRecord
100
AcDbLinetypeTableRecord
  2
ByBlock
 70
0
  3

 72
65
 73
0
 40
0.0
  0
LTYPE
  5
15
100
AcDbSymbolTableRecord
100
AcDbLinetypeTableRecord
  2
ByLayer
 70
0
  3

 72
65
 73
0
 40
0.0
  0
LTYPE
  5
16
100
AcDbSymbolTableRecord
100
AcDbLinetypeTableRecord
  2
CONTINUOUS
 70
0
  3
Solid line
 72
65
 73
0
 40
0.0
  0
LTYPE
  5
31
100
AcDbSymbolTableRecord
100
AcDbLinetypeTableRecord
  2
DOT
 70
0
  3
Dot . . . . . . . . . . . . . . . . . . . . . .
 72
65
 73
2
 40
6.3499999999999996
 49
0.0
 74
0
 49
-6.3499999999999996
 74
0
  0
LTYPE
  5
32
100
AcDbSymbolTableRecord
100
AcDbLinetypeTableRecord
  2
DOT2
 70
0
  3
Dot (.5x) .....................................
 72
65
 73
2
 40
3.1749999999999998
 49
0.0
 74
0
 49
-3.1749999999999998
 74
0
  0
LTYPE
  5
33
100
AcDbSymbolTableRecord
100
AcDbLinetypeTableRecord
  2
DOTX2
 70
0
  3
Dot (2x) .  .  .  .  .  .  .  .  .  .  .  .  .
 72
65
 73
2
 40
12.6999999999999993
 49
0.0
 74
0
 49
-12.6999999999999993
 74
0
  0
LTYPE
  5
34
100
AcDbSymbolTableRecord
100
AcDbLinetypeTableRecord
  2
DASHED
 70
0
  3
Dashed __ __ __ __ __ __ __ __ __ __ __ __ __ _
 72
65
 73
2
 40
19.0500000000000007
 49
12.6999999999999993
 74
0
 49
-6.3499999999999996
 74
0
  0
LTYPE
  5
35
100
AcDbSymbolTableRecord
100
AcDbLinetypeTableRecord
  2
DASHED2
 70
0
  3
Dashed (.5x) _ _ _ _ _ _ _ _ _ _ _ _ _ _ _ _ _
 72
65
 73
2
 40
9.5250000000000004
 49
6.3499999999999996
 74
0
 49
-3.1749999999999998
 74
0
  0
LTYPE
  5
36
100
AcDbSymbolTableRecord
100
AcDbLinetypeTableRecord
  2
DASHEDX2
 70
0
  3
Dashed (2x) ____  ____  ____  ____  ____  ___
 72
65
 73
2
 40
38.1000000000000014
 49
25.3999999999999986
 74
0
 49
-12.6999999999999993
 74
0
  0
LTYPE
  5
37
100
AcDbSymbolTableRecord
100
AcDbLinetypeTableRecord
  2
DASHDOT
 70
0
  3
Dash dot __ . __ . __ . __ . __ . __ . __ . __
 72
65
 73
4
 40
25.3999999999999986
 49
12.6999999999999993
 74
0
 49
-6.3499999999999996
 74
0
 49
0.0
 74
0
 49
-6.3499999999999996
 74
0
  0
LTYPE
  5
38
100
AcDbSymbolTableRecord
100
AcDbLinetypeTableRecord
  2
DASHDOT2
 70
0
  3
Dash dot (.5x) _._._._._._._._._._._._._._._.
 72
65
 73
4
 40
12.6999999999999993
 49
6.3499999999999996
 74
0
 49
-3.1749999999999998
 74
0
 49
0.0
 74
0
 49
-3.1749999999999998
 74
0
  0
LTYPE
  5
39
100
AcDbSymbolTableRecord
100
AcDbLinetypeTableRecord
  2
DASHDOTX2
 70
0
  3
Dash dot (2x) ____  .  ____  .  ____  .  ___
 72
65
 73
4
 40
50.7999999999999972
 49
25.3999999999999986
 74
0
 49
-12.6999999999999993
 74
0
 49
0.0
 74
0
 49
-12.6999999999999993
 74
0
  0
LTYPE
  5
3A
100
AcDbSymbolTableRecord
100
AcDbLinetypeTableRecord
  2
DIVIDE
 70
0
  3
Divide ____ . . ____ . . ____ . . ____ . . ____
 72
65
 73
6
 40
31.75
 49
12.6999999999999993
 74
0
 49
-6.3499999999999996
 74
0
 49
0.0
 74
0
 49
-6.3499999999999996
 74
0
 49
0.0
 74
0
 49
-6.3499999999999996
 74
0
  0
LTYPE
  5
3B
100
AcDbSymbolTableRecord
100
AcDbLinetypeTableRecord
  2
DIVIDE2
 70
0
  3
Divide (.5x) __..__..__..__..__..__..__..__.._
 72
65
 73
6
 40
15.875
 49
6.3499999999999996
 74
0
 49
-3.1749999999999998
 74
0
 49
0.0
 74
0
 49
-3.1749999999999998
 74
0
 49
0.0
 74
0
 49
-3.1749999999999998
 74
0
  0
LTYPE
  5
3C
100
AcDbSymbolTableRecord
100
AcDbLinetypeTableRecord
  2
DIVIDEX2
 70
0
  3
Divide (2x) ________  .  .  ________  .  .  _
 72
65
 73
6
 40
63.5
 49
25.3999999999999986
 74
0
 49
-12.6999999999999993
 74
0
 49
0.0
 74
0
 49
-12.6999999999999993
 74
0
 49
0.0
 74
0
 49
-12.6999999999999993
 74
0
  0
LTYPE
  5
3D
100
AcDbSymbolTableRecord
100
AcDbLinetypeTableRecord
  2
CENTER
 70
0
  3
Center ____ _ ____ _ ____ _ ____ _ ____ _ ____
 72
65
 73
4
 40
50.7999999999999972
 49
31.75
 74
0
 49
-6.3499999999999996
 74
0
 49
6.3499999999999996
 74
0
 49
-6.3499999999999996
 74
0
  0
LTYPE
  5
3E
100
AcDbSymbolTableRecord
100
AcDbLinetypeTableRecord
  2
CENTER2
 70
0
  3
Center (.5x) ___ _ ___ _ ___ _ ___ _ ___ _ ___
 72
65
 73
4
 40
28.5749999999999993
 49
19.0500000000000007
 74
0
 49
-3.1749999999999998
 74
0
 49
3.1749999999999998
 74
0
 49
-3.1749999999999998
 74
0
  0
LTYPE
  5
3F
100
AcDbSymbolTableRecord
100
AcDbLinetypeTableRecord
  2
CENTERX2
 70
0
  3
Center (2x) ________  __  ________  __  _____
 72
65
 73
4
 40
101.5999999999999943
 49
63.5
 74
0
 49
-12.6999999999999993
 74
0
 49
12.6999999999999993
 74
0
 49
-12.6999999999999993
 74
0
  0
LTYPE
  5
40
100
AcDbSymbolTableRecord
100
AcDbLinetypeTableRecord
  2
BORDER
 70
0
  3
Border __ __ . __ __ . __ __ . __ __ . __ __ .
 72
65
 73
6
 40
44.4500000000000028
 49
12.6999999999999993
 74
0
 49
-6.3499999999999996
 74
0
 49
12.6999999999999993
 74
0
 49
-6.3499999999999996
 74
0
 49
0.0
 74
0
 49
-6.3499999999999996
 74
0
  0
LTYPE
  5
41
100
AcDbSymbolTableRecord
100
AcDbLinetypeTableRecord
  2
BORDER2
 70
0
  3
Border (.5x) __.__.__.__.__.__.__.__.__.__.__.
 72
65
 73
6
 40
22.2250000000000014
 49
6.3499999999999996
 74
0
 49
-3.1749999999999998
 74
0
 49
6.3499999999999996
 74
0
 49
-3.1749999999999998
 74
0
 49
0.0
 74
0
 49
-3.1749999999999998
 74
0
  0
LTYPE
  5
42
100
AcDbSymbolTableRecord
100
AcDbLinetypeTableRecord
  2
BORDERX2
 70
0
  3
Border (2x) ____  ____  .  ____  ____  .  ___
 72
65
 73
6
 40
88.9000000000000057
 49
25.3999999999999986
 74
0
 49
-12.6999999999999993
 74
0
 49
25.3999999999999986
 74
0
 49
-12.6999999999999993
 74
0
 49
0.0
 74
0
 49
-12.6999999999999993
 74
0
  0
ENDTAB
  0
TABLE
  2
LAYER
  5
2
100
AcDbSymbolTable
 70
8
  0
LAYER
  5
10
100
AcDbSymbolTableRecord
100
AcDbLayerTableRecord
  2
0
 70
0
 62
7
420
0
  6
CONTINUOUS
370
0
390
F
  0
LAYER
  5
43
100
AcDbSymbolTableRecord
100
AcDbLayerTableRecord
  2
Drawing
 70
0
 62
5
420
255
  6
CONTINUOUS
370
0
390
F
  0
LAYER
  5
44
100
AcDbSymbolTableRecord
100
AcDbLayerTableRecord
  2
12.5W Resistor
 70
0
 62
1
420
16711680
  6
CONTINUOUS
370
0
390
F
  0
LAYER
  5
45
100
AcDbSymbolTableRecord
100
AcDbLayerTableRecord
  2
Side
 70
0
 62
7
420
0
  6
CONTINUOUS
370
0
390
F
  0
LAYER
  5
46
100
AcDbSymbolTableRecord
100
AcDbLayerTableRecord
  2
Front
 70
0
 62
7
420
0
  6
CONTINUOUS
370
0
390
F
  0
LAYER
  5
47
100
AcDbSymbolTableRecord
100
AcDbLayerTableRecord
  2
Top
 70
0
 62
7
420
0
  6
CONTINUOUS
370
0
390
F
  0
LAYER
  5
48
100
AcDbSymbolTableRecord
100
AcDbLayerTableRecord
  2
Measurements
 70
0
 62
5
420
255
  6
CONTINUOUS
370
0
390
F
  0
LAYER
  5
49
100
AcDbSymbolTableRecord
100
AcDbLayerTableRecord
  2
Hex-Top
 70
0
 62
7
420
0
  6
CONTINUOUS
370
0
390
F
  0
ENDTAB
  0
TABLE
  2
STYLE
  5
3
100
AcDbSymbolTable
 70
1
  0
STYLE
  5
11
100
AcDbSymbolTableRecord
100
AcDbTextStyleTableRecord
  2
Standard
 70
0
 40
0.0
 41
0.75
 50
0.0
 71
0
 42
2.5
  3
txt
  4

  0
ENDTAB
  0
TABLE
  2
VIEW
  5
6
100
AcDbSymbolTable
 70
0
  0
ENDTAB
  0
TABLE
  2
UCS
  5
7
100
AcDbSymbolTable
 70
0
  0
ENDTAB
  0
TABLE
  2
APPID
  5
9
100
AcDbSymbolTable
 70
1
  0
APPID
  5
12
100
AcDbSymbolTableRecord
100
AcDbRegAppTableRecord
  2
ACAD
 70
0
  0
ENDTAB
  0
TABLE
  2
DIMSTYLE
  5
A
100
AcDbSymbolTable
 70
1
100
AcDbDimStyleTable
 71
0
  0
DIMSTYLE
105
27
100
AcDbSymbolTableRecord
100
AcDbDimStyleTableRecord
  2
Standard
 41
2.5
 42
0.625
 43
3.75
 44
1.25
 70
0
 73
0
 74
0
 77
1
 78
8
140
2.5
141
2.5
143
0.03937007874016
147
0.625
171
3
172
1
271
2
272
2
274
3
278
44
283
0
284
8
340
11
  0
ENDTAB
  0
TABLE
  2
BLOCK_RECORD
  5
1
100
AcDbSymbolTable
 70
1
  0
BLOCK_RECORD
  5
1F
100
AcDbSymbolTableRecord
100
AcDbBlockTableRecord
  2
*Model_Space
340
22
  0
BLOCK_RECORD
  5
1B
100
AcDbSymbolTableRecord
100
AcDbBlockTableRecord
  2
*Paper_Space
340
1E
  0
BLOCK_RECORD
  5
23
100
AcDbSymbolTableRecord
100
AcDbBlockTableRecord
  2
*Paper_Space0
340
26
  0
ENDTAB
  0
ENDSEC
  0
SECTION
  2
BLOCKS
  0
BLOCK
  5
20
100
AcDbEntity
  8
0
100
AcDbBlockBegin
  2
*Model_Space
 70
0
 10
0.0
 20
0.0
 30
0.0
  3
*Model_Space
  1

  0
ENDBLK
  5
21
100
AcDbEntity
  8
0
100
AcDbBlockEnd
  0
BLOCK
  5
1C
100
AcDbEntity
 67
1
  8
0
100
AcDbBlockBegin
  2
*Paper_Space
 70
0
 10
0.0
 20
0.0
 30
0.0
  3
*Paper_Space
  1

  0
ENDBLK
  5
1D
100
AcDbEntity
 67
1
  8
0
100
AcDbBlockEnd
  0
BLOCK
  5
24
100
AcDbEntity
  8
0
100
AcDbBlockBegin
  2
*Paper_Space0
 70
0
 10
0.0
 20
0.0
 30
0.0
  3
*Paper_Space0
  1

  0
ENDBLK
  5
25
100
AcDbEntity
  8
0
100
AcDbBlockEnd
  0
ENDSEC
  0
SECTION
  2
ENTITIES
  0
LINE
  5
4A
100
AcDbEntity
100
AcDbLine
  8
Side
 62
256
370
-1
  6
ByLayer
 10
-8.9000000000000128
 20
15.9500000000000028
 30
0.0
 11
-9.4000000000000128
 21
15.4500000000000028
 31
0.0
  0
LINE
  5
4B
100
AcDbEntity
100
AcDbLine
  8
Side
 62
256
370
-1
  6
ByLayer
 10
-9.4000000000000128
 20
15.4500000000000028
 30
0.0
 11
-33.4000000000000483
 21
15.4499999999999975
 31
0.0
  0
LINE
  5
4C
100
AcDbEntity
100
AcDbLine
  8
Side
 62
256
370
-1
  6
ByLayer
 10
-33.4000000000000483
 20
15.4499999999999975
 30
0.0
 11
-33.9000000000000483
 21
15.9499999999999975
 31
0.0
  0
CIRCLE
  5
4D
100
AcDbEntity
100
AcDbCircle
  8
Top
 62
256
370
-1
  6
ByLayer
 10
-21.4000000000000128
 20
-48.5
 30
0.0
 40
7.0
  0
MTEXT
  5
4E
100
AcDbEntity
100
AcDbMText
  8
0
 62
256
370
-1
  6
ByLayer
 10
-20.0
 20
50.0
 30
0.0
 40
5.0
 41
100.0
 71
5
 72
2
  1
SIDE\~VIEW
  7
standard
 50
0.0
 73
1
 44
1.0
  0
MTEXT
  5
4F
100
AcDbEntity
100
AcDbMText
  8
0
 62
256
370
-1
  6
ByLayer
 10
51.0
 20
50.0
 30
0.0
 40
5.0
 41
100.0
 71
5
 72
2
  1
FRONT\~VIEW
  7
standard
 50
0.0
 73
1
 44
1.0
  0
LINE
  5
50
100
AcDbEntity
100
AcDbLine
  8
Front
 62
256
370
-1
  6
ByLayer
 10
38.6999999999999886
 20
16.0500000000000043
 30
0.0
 11
39.1999999999999886
 21
15.5500000000000025
 31
0.0
  0
LINE
  5
51
100
AcDbEntity
100
AcDbLine
  8
Front
 62
256
370
-1
  6
ByLayer
 10
63.1999999999999744
 20
15.5500000000000078
 30
0.0
 11
39.1999999999999886
 21
15.5500000000000025
 31
0.0
  0
LINE
  5
52
100
AcDbEntity
100
AcDbLine
  8
Front
 62
256
370
-1
  6
ByLayer
 10
63.1999999999999744
 20
15.5500000000000078
 30
0.0
 11
63.6999999999999744
 21
16.0500000000000078
 31
0.0
  0
MTEXT
  5
53
100
AcDbEntity
100
AcDbMText
  8
0
 62
256
370
-1
  6
ByLayer
 10
-20.0
 20
-15.0
 30
0.0
 40
5.0
 41
100.0
 71
5
 72
2
  1
TOP\~VIEW
  7
standard
 50
0.0
 73
1
 44
1.0
  0
MTEXT
  5
54
100
AcDbEntity
100
AcDbMText
  8
0
 62
256
370
-1
  6
ByLayer
 10
10.0
 20
-30.0
 30
0.0
 40
8.0
 41
100.0
 71
1
 72
2
  1
MK5\~Heater\~Block\PMaterial:\~Aluminum
  7
standard
 50
0.0
 73
1
 44
1.0
  0
LEADER
  5
55
  8
Measurements
 62
256
370
-1
  6
ByLayer
100
AcDbEntity
100
AcDbLeader
  3
Standard
 71
1
 72
0
 73
3
 74
0
 75
0
 40
1.0
 41
10.0
 76
2
 10
-8.9000000000000306
 20
-54.9629498699152634
 10
-4.0
 20
-55.0
  0
DIMENSION
  5
56
100
AcDbEntity
  8
Measurements
 62
256
370
-1
  6
ByLayer
100
AcDbDimension
 10
-14.4000000000000146
 20
-67.0
 30
0.0
 11
-21.4000000000000128
 21
-65.125
 31
0.0
 70
0
 71
5
 72
1
 41
1.0
 42
0.0
  1

  3
Standard
100
AcDbAlignedDimension
 13
-28.4000000000000128
 23
-48.5
 33
0.0
 14
-14.4000000000000128
 24
-48.5
 34
0.0
 50
0.0
100
AcDbRotatedDimension
  0
LEADER
  5
57
  8
Measurements
 62
256
370
-1
  6
ByLayer
100
AcDbEntity
100
AcDbLeader
  3
Standard
 71
1
 72
0
 73
3
 74
0
 75
0
 40
1.0
 41
10.0
 76
2
 10
-33.9000000000000199
 20
-36.4999999999999858
 10
-40.0
 20
-37.0
  0
MTEXT
  5
58
100
AcDbEntity
100
AcDbMText
  8
Measurements
 62
256
370
-1
  6
ByLayer
 10
-41.0
 20
-40.0
 30
0.0
 40
3.0
 41
100.0
 71
9
 72
2
  1
0.5mm\~bevel\~(all\~sides)
  7
standard
 50
0.0
 73
1
 44
1.0
  0
MTEXT
  5
59
100
AcDbEntity
100
AcDbMText
  8
Measurements
 62
256
370
-1
  6
ByLayer
 10
-31.0
 20
-28.0
 30
0.0
 40
3.0
 41
100.0
 71
9
 72
2
  1
D&T\~M3\~x\~0.5mm\~(4\~holes)
  7
standard
 50
0.0
 73
1
 44
1.0
  0
LEADER
  5
5A
  8
Measurements
 62
256
370
-1
  6
ByLayer
100
AcDbEntity
100
AcDbLeader
  3
Standard
 71
1
 72
0
 73
3
 74
0
 75
0
 40
1.0
 41
10.0
 76
3
 10
-21.4000000000000234
 20
-37.2500000000000142
 10
-25.0
 20
-28.0
 10
-30.0
 20
-28.0
  0
LEADER
  5
5B
  8
Measurements
 62
256
370
-1
  6
ByLayer
100
AcDbEntity
100
AcDbLeader
  3
Standard
 71
1
 72
0
 73
3
 74
0
 75
0
 40
1.0
 41
10.0
 76
3
 10
-24.8197880288854265
 20
-42.3922139987150786
 10
-29.0
 20
-32.0
 10
-33.0
 20
-32.0
  0
MTEXT
  5
5C
100
AcDbEntity
100
AcDbMText
  8
Measurements
 62
256
370
-1
  6
ByLayer
 10
-34.0
 20
-32.0
 30
0.0
 40
3.0
 41
100.0
 71
9
 72
2
  1
D&T\~M14\~x\~2.0mm
  7
standard
 50
0.0
 73
1
 44
1.0
  0
LINE
  5
5D
100
AcDbEntity
100
AcDbLine
  8
Top
 62
256
370
-1
  6
ByLayer
 10
-11.5735052027694127
 20
-36.0
 30
0.0
 11
-31.226494797230643
 21
-36.0000000000000284
 31
0.0
  0
LINE
  5
5E
100
AcDbEntity
100
AcDbLine
  8
Top
 62
256
370
-1
  6
ByLayer
 10
-8.9000000000000217
 20
-38.6735052027693911
 30
0.0
 11
-8.9000000000000323
 21
-58.3264947972306231
 31
0.0
  0
LINE
  5
5F
100
AcDbEntity
100
AcDbLine
  8
Top
 62
256
370
-1
  6
ByLayer
 10
-11.5735052027694145
 20
-61.0
 30
0.0
 11
-31.2264947972306182
 21
-60.9999999999999929
 31
0.0
  0
LINE
  5
60
100
AcDbEntity
100
AcDbLine
  8
Top
 62
256
370
-1
  6
ByLayer
 10
-33.9000000000000199
 20
-58.3264947972305876
 30
0.0
 11
-33.9000000000000199
 21
-38.6735052027694053
 31
0.0
  0
ARC
  5
61
100
AcDbEntity
  8
Top
 62
256
370
-1
  6
ByLayer
100
AcDbCircle
 10
-21.4000000000000128
 20
-48.5
 30
0.0
 40
15.9000000000000004
100
AcDbArc
 50
128.171581761324461
 51
141.8284182386757379
  0
ARC
  5
62
100
AcDbEntity
  8
Top
 62
256
370
-1
  6
ByLayer
100
AcDbCircle
 10
-21.4000000000000128
 20
-48.5
 30
0.0
 40
15.9000000000000004
100
AcDbArc
 50
38.1715817613243615
 51
51.8284182386757095
  0
ARC
  5
63
100
AcDbEntity
  8
Top
 62
256
370
-1
  6
ByLayer
100
AcDbCircle
 10
-21.4000000000000128
 20
-48.5
 30
0.0
 40
15.9000000000000004
100
AcDbArc
 50
218.1715817613242336
 51
231.8284182386756243
  0
ARC
  5
64
100
AcDbEntity
  8
Top
 62
256
370
-1
  6
ByLayer
100
AcDbCircle
 10
-21.4000000000000128
 20
-48.5
 30
0.0
 40
15.9000000000000004
100
AcDbArc
 50
308.1715817613243189
 51
321.8284182386755674
  0
CIRCLE
  5
65
100
AcDbEntity
100
AcDbCircle
  8
Top
 62
256
370
-1
  6
ByLayer
 10
-12.2076118445749042
 20
-39.3076118445748861
 30
0.0
 40
1.5
  0
CIRCLE
  5
66
100
AcDbEntity
100
AcDbCircle
  8
Top
 62
256
370
-1
  6
ByLayer
 10
-30.5923881554251231
 20
-39.3076118445748861
 30
0.0
 40
1.5
  0
CIRCLE
  5
67
100
AcDbEntity
100
AcDbCircle
  8
Top
 62
256
370
-1
  6
ByLayer
 10
-30.5923881554251267
 20
-57.6923881554251068
 30
0.0
 40
1.5
  0
CIRCLE
  5
68
100
AcDbEntity
100
AcDbCircle
  8
Top
 62
256
370
-1
  6
ByLayer
 10
-12.2076118445749024
 20
-57.6923881554251139
 30
0.0
 40
1.5
  0
MTEXT
  5
69
100
AcDbEntity
100
AcDbMText
  8
Measurements
 62
256
370
-1
  6
ByLayer
 10
112.9500000000000171
 20
25.8499999999999979
 30
0.0
 40
3.0
 41
100.0
 71
7
 72
2
  1
D&T\~M2\~x\~0.4mm\~(4\~holes)
  7
standard
 50
0.0
 73
1
 44
1.0
  0
LEADER
  5
6A
  8
Measurements
 62
256
370
-1
  6
ByLayer
100
AcDbEntity
100
AcDbLeader
  3
Standard
 71
1
 72
0
 73
3
 74
0
 75
0
 40
1.0
 41
10.0
 76
3
 10
100.0
 20
20.0
 10
104.9500000000000171
 20
25.8499999999999979
 10
111.9500000000000171
 20
25.8499999999999979
  0
LINE
  5
6B
100
AcDbEntity
100
AcDbLine
  8
Drawing
 62
256
370
-1
  6
ByLayer
 10
41.6999999999999815
 20
30.5500000000000078
 30
0.0
 11
41.6999999999999815
 21
15.5500000000000078
 31
0.0
  0
LINE
  5
6C
100
AcDbEntity
100
AcDbLine
  8
12.5W Resistor
 62
256
370
-1
  6
ByLayer
 10
41.6999999999999815
 20
27.6999999999999886
 30
0.0
 11
41.6999999999999815
 21
23.6999999999999886
 31
0.0
  0
LINE
  5
6D
100
AcDbEntity
100
AcDbLine
  8
12.5W Resistor
 62
256
370
-1
  6
ByLayer
 10
60.6999999999999815
 20
27.6999999999999886
 30
0.0
 11
60.6999999999999815
 21
23.6999999999999886
 31
0.0
  0
LINE
  5
6E
100
AcDbEntity
100
AcDbLine
  8
12.5W Resistor
 62
256
370
-1
  6
ByLayer
 10
41.6999999999999815
 20
25.7000000000000028
 30
0.0
 11
60.6999999999999815
 21
25.6999999999999886
 31
0.0
  0
CIRCLE
  5
6F
100
AcDbEntity
100
AcDbCircle
  8
12.5W Resistor
 62
256
370
-1
  6
ByLayer
 10
44.0499999999999758
 20
17.7500000000000142
 30
0.0
 40
1.2
  0
CIRCLE
  5
70
100
AcDbEntity
100
AcDbCircle
  8
12.5W Resistor
 62
256
370
-1
  6
ByLayer
 10
58.3499999999999943
 20
33.6499999999999915
 30
0.0
 40
1.2
  0
LINE
  5
71
100
AcDbEntity
100
AcDbLine
  8
12.5W Resistor
 62
256
370
-1
  6
ByLayer
 10
41.6999999999999815
 20
25.7000000000000028
 30
0.0
 11
33.7499999999999787
 21
25.6999999999999602
 31
0.0
  0
LINE
  5
72
100
AcDbEntity
100
AcDbLine
  8
12.5W Resistor
 62
256
370
-1
  6
ByLayer
 10
68.6499999999999773
 20
25.6999999999999886
 30
0.0
 11
60.6999999999999815
 21
25.6999999999999886
 31
0.0
  0
LINE
  5
73
100
AcDbEntity
100
AcDbLine
  8
12.5W Resistor
 62
256
370
-1
  6
ByLayer
 10
60.6999999999999815
 20
35.8499999999999943
 30
0.0
 11
60.6999999999999815
 21
20.3499999999999943
 31
0.0
  0
LINE
  5
74
100
AcDbEntity
100
AcDbLine
  8
12.5W Resistor
 62
256
370
-1
  6
ByLayer
 10
41.6999999999999815
 20
15.5499999999999972
 30
0.0
 11
41.6999999999999815
 21
31.0499999999999972
 31
0.0
  0
LINE
  5
75
100
AcDbEntity
100
AcDbLine
  8
12.5W Resistor
 62
256
370
-1
  6
ByLayer
 10
41.6999999999999815
 20
15.5499999999999972
 30
0.0
 11
46.4499999999999815
 21
15.5499999999999972
 31
0.0
  0
LINE
  5
76
100
AcDbEntity
100
AcDbLine
  8
12.5W Resistor
 62
256
370
-1
  6
ByLayer
 10
46.4499999999999815
 20
20.3500000000000085
 30
0.0
 11
60.6999999999999815
 21
20.3499999999999943
 31
0.0
  0
LINE
  5
77
100
AcDbEntity
100
AcDbLine
  8
12.5W Resistor
 62
256
370
-1
  6
ByLayer
 10
46.4499999999999815
 20
15.5499999999999972
 30
0.0
 11
46.4499999999999815
 21
20.3500000000000085
 31
0.0
  0
LINE
  5
78
100
AcDbEntity
100
AcDbLine
  8
12.5W Resistor
 62
256
370
-1
  6
ByLayer
 10
41.6999999999999815
 20
31.0499999999999972
 30
0.0
 11
55.9499999999999957
 21
31.0499999999999829
 31
0.0
  0
LINE
  5
79
100
AcDbEntity
100
AcDbLine
  8
12.5W Resistor
 62
256
370
-1
  6
ByLayer
 10
55.9499999999999957
 20
35.8499999999999943
 30
0.0
 11
60.6999999999999815
 21
35.8499999999999943
 31
0.0
  0
LINE
  5
7A
100
AcDbEntity
100
AcDbLine
  8
12.5W Resistor
 62
256
370
-1
  6
ByLayer
 10
55.9499999999999957
 20
31.0499999999999829
 30
0.0
 11
55.9499999999999957
 21
35.8499999999999943
 31
0.0
  0
LINE
  5
7B
100
AcDbEntity
100
AcDbLine
  8
Side
 62
256
370
-1
  6
ByLayer
 10
-32.6500000000000199
 20
30.7500000000000036
 30
0.0
 11
-32.6500000000000199
 21
35.75
 31
0.0
  0
LINE
  5
7C
100
AcDbEntity
100
AcDbLine
  8
Side
 62
256
370
-1
  6
ByLayer
 10
-29.6500000000000199
 20
30.7500000000000107
 30
0.0
 11
-29.6500000000000199
 21
35.75
 31
0.0
  0
LINE
  5
7D
100
AcDbEntity
100
AcDbLine
  8
Side
 62
256
370
-1
  6
ByLayer
 10
-32.6500000000000199
 20
30.7500000000000036
 30
0.0
 11
-29.6500000000000199
 21
30.7500000000000107
 31
0.0
  0
LINE
  5
7E
100
AcDbEntity
100
AcDbLine
  8
Side
 62
256
370
-1
  6
ByLayer
 10
-22.9000000000000234
 20
30.7500000000000036
 30
0.0
 11
-19.9000000000000234
 21
30.7500000000000036
 31
0.0
  0
LINE
  5
7F
100
AcDbEntity
100
AcDbLine
  8
Side
 62
256
370
-1
  6
ByLayer
 10
-19.9000000000000234
 20
30.7500000000000036
 30
0.0
 11
-19.9000000000000234
 21
35.75
 31
0.0
  0
LINE
  5
80
100
AcDbEntity
100
AcDbLine
  8
Side
 62
256
370
-1
  6
ByLayer
 10
-22.9000000000000234
 20
30.7500000000000036
 30
0.0
 11
-22.9000000000000234
 21
35.75
 31
0.0
  0
LINE
  5
81
100
AcDbEntity
100
AcDbLine
  8
Side
 62
256
370
-1
  6
ByLayer
 10
-28.3999999999999986
 20
35.75
 30
0.0
 11
-28.4000000000000021
 21
15.4499999999999993
 31
0.0
  0
LINE
  5
82
100
AcDbEntity
100
AcDbLine
  8
Side
 62
256
370
-1
  6
ByLayer
 10
-14.4000000000000039
 20
35.75
 30
0.0
 11
-14.3999999999999986
 21
15.4500000000000011
 31
0.0
  0
LINE
  5
83
100
AcDbEntity
100
AcDbLine
  8
Side
 62
256
370
-1
  6
ByLayer
 10
-13.150000000000027
 20
30.7500000000000036
 30
0.0
 11
-13.150000000000027
 21
35.75
 31
0.0
  0
LINE
  5
84
100
AcDbEntity
100
AcDbLine
  8
Side
 62
256
370
-1
  6
ByLayer
 10
-10.150000000000027
 20
30.7500000000000036
 30
0.0
 11
-10.150000000000027
 21
35.75
 31
0.0
  0
LINE
  5
85
100
AcDbEntity
100
AcDbLine
  8
Side
 62
256
370
-1
  6
ByLayer
 10
-13.150000000000027
 20
30.7500000000000036
 30
0.0
 11
-10.150000000000027
 21
30.7500000000000036
 31
0.0
  0
LINE
  5
86
100
AcDbEntity
100
AcDbLine
  8
Side
 62
256
370
-1
  6
ByLayer
 10
-33.9000000000000199
 20
35.25
 30
0.0
 11
-33.4000000000000199
 21
35.75
 31
0.0
  0
LINE
  5
87
100
AcDbEntity
100
AcDbLine
  8
Side
 62
256
370
-1
  6
ByLayer
 10
-33.4000000000000199
 20
35.75
 30
0.0
 11
-9.4000000000000163
 21
35.75
 31
0.0
  0
LINE
  5
88
100
AcDbEntity
100
AcDbLine
  8
Side
 62
256
370
-1
  6
ByLayer
 10
-9.4000000000000163
 20
35.75
 30
0.0
 11
-8.9000000000000163
 21
35.25
 31
0.0
  0
LINE
  5
89
100
AcDbEntity
100
AcDbLine
  8
Side
 62
256
370
-1
  6
ByLayer
 10
-8.9000000000000163
 20
35.25
 30
0.0
 11
-8.9000000000000128
 21
15.9500000000000028
 31
0.0
  0
LINE
  5
8A
100
AcDbEntity
100
AcDbLine
  8
Side
 62
256
370
-1
  6
ByLayer
 10
-33.9000000000000199
 20
35.25
 30
0.0
 11
-33.9000000000000483
 21
15.9499999999999975
 31
0.0
  0
LINE
  5
8B
100
AcDbEntity
100
AcDbLine
  8
Front
 62
256
370
-1
  6
ByLayer
 10
44.1999999999999744
 20
35.8500000000000085
 30
0.0
 11
44.1999999999999744
 21
15.5500000000000043
 31
0.0
  0
LINE
  5
8C
100
AcDbEntity
100
AcDbLine
  8
Front
 62
256
370
-1
  6
ByLayer
 10
58.1999999999999744
 20
35.8499999999999943
 30
0.0
 11
58.1999999999999744
 21
15.5500000000000078
 31
0.0
  0
LINE
  5
8D
100
AcDbEntity
100
AcDbLine
  8
Front
 62
256
370
-1
  6
ByLayer
 10
39.9499999999999815
 20
30.850000000000005
 30
0.0
 11
39.9499999999999815
 21
35.8499999999999943
 31
0.0
  0
LINE
  5
8E
100
AcDbEntity
100
AcDbLine
  8
Front
 62
256
370
-1
  6
ByLayer
 10
42.9499999999999815
 20
30.8500000000000121
 30
0.0
 11
42.9499999999999815
 21
35.8499999999999943
 31
0.0
  0
LINE
  5
8F
100
AcDbEntity
100
AcDbLine
  8
Front
 62
256
370
-1
  6
ByLayer
 10
39.9499999999999815
 20
30.850000000000005
 30
0.0
 11
42.9499999999999815
 21
30.8500000000000121
 31
0.0
  0
LINE
  5
90
100
AcDbEntity
100
AcDbLine
  8
Front
 62
256
370
-1
  6
ByLayer
 10
49.6999999999999744
 20
30.850000000000005
 30
0.0
 11
52.6999999999999744
 21
30.850000000000005
 31
0.0
  0
LINE
  5
91
100
AcDbEntity
100
AcDbLine
  8
Front
 62
256
370
-1
  6
ByLayer
 10
52.6999999999999744
 20
30.850000000000005
 30
0.0
 11
52.6999999999999744
 21
35.8500000000000085
 31
0.0
  0
LINE
  5
92
100
AcDbEntity
100
AcDbLine
  8
Front
 62
256
370
-1
  6
ByLayer
 10
49.6999999999999744
 20
30.850000000000005
 30
0.0
 11
49.6999999999999744
 21
35.8500000000000085
 31
0.0
  0
LINE
  5
93
100
AcDbEntity
100
AcDbLine
  8
Front
 62
256
370
-1
  6
ByLayer
 10
59.4499999999999744
 20
30.850000000000005
 30
0.0
 11
59.4499999999999744
 21
35.8499999999999943
 31
0.0
  0
LINE
  5
94
100
AcDbEntity
100
AcDbLine
  8
Front
 62
256
370
-1
  6
ByLayer
 10
62.4499999999999744
 20
30.850000000000005
 30
0.0
 11
62.4499999999999744
 21
35.8499999999999943
 31
0.0
  0
LINE
  5
95
100
AcDbEntity
100
AcDbLine
  8
Front
 62
256
370
-1
  6
ByLayer
 10
59.4499999999999744
 20
30.850000000000005
 30
0.0
 11
62.4499999999999744
 21
30.850000000000005
 31
0.0
  0
LINE
  5
96
100
AcDbEntity
100
AcDbLine
  8
Front
 62
256
370
-1
  6
ByLayer
 10
39.1999999999999886
 20
35.8499999999999943
 30
0.0
 11
38.6999999999999886
 21
35.3499999999999943
 31
0.0
  0
LINE
  5
97
100
AcDbEntity
100
AcDbLine
  8
Front
 62
256
370
-1
  6
ByLayer
 10
63.6999999999999744
 20
35.3500000000000085
 30
0.0
 11
63.6999999999999744
 21
16.0500000000000078
 31
0.0
  0
LINE
  5
98
100
AcDbEntity
100
AcDbLine
  8
Front
 62
256
370
-1
  6
ByLayer
 10
63.1999999999999744
 20
35.8500000000000085
 30
0.0
 11
39.1999999999999886
 21
35.8499999999999943
 31
0.0
  0
LINE
  5
99
100
AcDbEntity
100
AcDbLine
  8
Front
 62
256
370
-1
  6
ByLayer
 10
63.6999999999999744
 20
35.3500000000000085
 30
0.0
 11
63.1999999999999744
 21
35.8500000000000085
 31
0.0
  0
LINE
  5
9A
100
AcDbEntity
100
AcDbLine
  8
Front
 62
256
370
-1
  6
ByLayer
 10
38.6999999999999886
 20
35.3499999999999943
 30
0.0
 11
38.6999999999999886
 21
16.0500000000000043
 31
0.0
  0
LINE
  5
9B
100
AcDbEntity
100
AcDbLine
  8
Front
 62
256
370
-1
  6
ByLayer
 10
61.0624999999999716
 20
35.8500000000000085
 30
0.0
 11
61.0624999999999716
 21
15.5500000000000078
 31
0.0
  0
LINE
  5
9C
100
AcDbEntity
100
AcDbLine
  8
Front
 62
256
370
-1
  6
ByLayer
 10
41.3374999999999915
 20
35.8499999999999943
 30
0.0
 11
41.3374999999999915
 21
15.5500000000000043
 31
0.0
  0
LINE
  5
9D
100
AcDbEntity
100
AcDbLine
  8
12.5W Resistor
 62
256
370
-1
  6
ByLayer
 10
-30.8000000000000362
 20
16.7500000000000213
 30
0.0
 11
-35.8000000000000256
 21
16.7500000000000071
 31
0.0
  0
LINE
  5
9E
100
AcDbEntity
100
AcDbLine
  8
12.5W Resistor
 62
256
370
-1
  6
ByLayer
 10
-30.8000000000000291
 20
17.7500000000000213
 30
0.0
 11
-35.8000000000000114
 21
17.7500000000000071
 31
0.0
  0
LINE
  5
9F
100
AcDbEntity
100
AcDbLine
  8
12.5W Resistor
 62
256
370
-1
  6
ByLayer
 10
-30.8000000000000362
 20
18.7500000000000213
 30
0.0
 11
-35.8000000000000256
 21
18.75
 31
0.0
  0
LINE
  5
A0
100
AcDbEntity
100
AcDbLine
  8
12.5W Resistor
 62
256
370
-1
  6
ByLayer
 10
-30.8000000000000362
 20
18.7500000000000213
 30
0.0
 11
-30.8000000000000362
 21
16.7500000000000213
 31
0.0
  0
LINE
  5
A1
100
AcDbEntity
100
AcDbLine
  8
12.5W Resistor
 62
256
370
-1
  6
ByLayer
 10
-12.0000000000000107
 20
16.7500000000000142
 30
0.0
 11
-7.0000000000000151
 21
16.7500000000000107
 31
0.0
  0
LINE
  5
A2
100
AcDbEntity
100
AcDbLine
  8
12.5W Resistor
 62
256
370
-1
  6
ByLayer
 10
-12.0000000000000178
 20
17.7500000000000142
 30
0.0
 11
-7.0000000000000222
 21
17.7500000000000142
 31
0.0
  0
LINE
  5
A3
100
AcDbEntity
100
AcDbLine
  8
12.5W Resistor
 62
256
370
-1
  6
ByLayer
 10
-12.0000000000000142
 20
18.7500000000000107
 30
0.0
 11
-7.0000000000000115
 21
18.7500000000000107
 31
0.0
  0
LINE
  5
A4
100
AcDbEntity
100
AcDbLine
  8
12.5W Resistor
 62
256
370
-1
  6
ByLayer
 10
-12.0000000000000142
 20
18.7500000000000107
 30
0.0
 11
-12.0000000000000107
 21
16.7500000000000142
 31
0.0
  0
LINE
  5
A5
100
AcDbEntity
100
AcDbLine
  8
12.5W Resistor
 62
256
370
-1
  6
ByLayer
 10
-30.800000000000022
 20
34.6499999999999915
 30
0.0
 11
-35.8000000000000185
 21
34.6499999999999773
 31
0.0
  0
LINE
  5
A6
100
AcDbEntity
100
AcDbLine
  8
12.5W Resistor
 62
256
370
-1
  6
ByLayer
 10
-30.800000000000022
 20
32.6499999999999915
 30
0.0
 11
-35.8000000000000185
 21
32.6499999999999773
 31
0.0
  0
LINE
  5
A7
100
AcDbEntity
100
AcDbLine
  8
12.5W Resistor
 62
256
370
-1
  6
ByLayer
 10
-30.800000000000022
 20
33.6499999999999915
 30
0.0
 11
-35.8000000000000185
 21
33.6499999999999915
 31
0.0
  0
LINE
  5
A8
100
AcDbEntity
100
AcDbLine
  8
12.5W Resistor
 62
256
370
-1
  6
ByLayer
 10
-30.800000000000022
 20
34.6499999999999915
 30
0.0
 11
-30.800000000000022
 21
32.6499999999999915
 31
0.0
  0
LINE
  5
A9
100
AcDbEntity
100
AcDbLine
  8
12.5W Resistor
 62
256
370
-1
  6
ByLayer
 10
-12.0000000000000071
 20
34.6499999999999844
 30
0.0
 11
-7.000000000000008
 21
34.6499999999999915
 31
0.0
  0
LINE
  5
AA
100
AcDbEntity
100
AcDbLine
  8
12.5W Resistor
 62
256
370
-1
  6
ByLayer
 10
-12.0000000000000071
 20
32.6499999999999915
 30
0.0
 11
-7.0000000000000044
 21
32.6499999999999844
 31
0.0
  0
LINE
  5
AB
100
AcDbEntity
100
AcDbLine
  8
12.5W Resistor
 62
256
370
-1
  6
ByLayer
 10
-12.0000000000000071
 20
33.6499999999999915
 30
0.0
 11
-7.0000000000000151
 21
33.6499999999999915
 31
0.0
  0
LINE
  5
AC
100
AcDbEntity
100
AcDbLine
  8
12.5W Resistor
 62
256
370
-1
  6
ByLayer
 10
-12.0000000000000071
 20
34.6499999999999844
 30
0.0
 11
-12.0000000000000071
 21
32.6499999999999915
 31
0.0
  0
LINE
  5
AD
100
AcDbEntity
100
AcDbLine
  8
12.5W Resistor
 62
256
370
-1
  6
ByLayer
 10
-33.900000000000027
 20
35.8499999999999943
 30
0.0
 11
-33.9000000000000199
 21
15.5500000000000007
 31
0.0
  0
LINE
  5
AE
100
AcDbEntity
100
AcDbLine
  8
12.5W Resistor
 62
256
370
-1
  6
ByLayer
 10
-8.9000000000000075
 20
35.849999999999973
 30
0.0
 11
-8.9000000000000128
 21
15.550000000000006
 31
0.0
  0
LINE
  5
AF
100
AcDbEntity
100
AcDbLine
  8
12.5W Resistor
 62
256
370
-1
  6
ByLayer
 10
-43.8000000000000185
 20
31.0499999999999972
 30
0.0
 11
-35.8000000000000185
 21
31.0499999999999972
 31
0.0
  0
LINE
  5
B0
100
AcDbEntity
100
AcDbLine
  8
12.5W Resistor
 62
256
370
-1
  6
ByLayer
 10
-33.900000000000027
 20
35.8499999999999943
 30
0.0
 11
-35.8000000000000185
 21
35.8499999999999801
 31
0.0
  0
LINE
  5
B1
100
AcDbEntity
100
AcDbLine
  8
12.5W Resistor
 62
256
370
-1
  6
ByLayer
 10
-43.8000000000000185
 20
31.0499999999999972
 30
0.0
 11
-43.8000000000000256
 21
20.3500000000000085
 31
0.0
  0
LINE
  5
B2
100
AcDbEntity
100
AcDbLine
  8
12.5W Resistor
 62
256
370
-1
  6
ByLayer
 10
-43.8000000000000256
 20
20.3500000000000085
 30
0.0
 11
-35.8000000000000114
 21
20.3500000000000085
 31
0.0
  0
LINE
  5
B3
100
AcDbEntity
100
AcDbLine
  8
12.5W Resistor
 62
256
370
-1
  6
ByLayer
 10
-33.9000000000000199
 20
15.5499999999999989
 30
0.0
 11
-35.8000000000000114
 21
15.5499999999999989
 31
0.0
  0
LINE
  5
B4
100
AcDbEntity
100
AcDbLine
  8
12.5W Resistor
 62
256
370
-1
  6
ByLayer
 10
-35.8000000000000185
 20
35.8499999999999943
 30
0.0
 11
-33.900000000000027
 21
35.8499999999999943
 31
0.0
  0
LINE
  5
B5
100
AcDbEntity
100
AcDbLine
  8
12.5W Resistor
 62
256
370
-1
  6
ByLayer
 10
-35.8000000000000185
 20
33.6499999999999915
 30
0.0
 11
-30.800000000000022
 21
33.6499999999999915
 31
0.0
  0
LINE
  5
B6
100
AcDbEntity
100
AcDbLine
  8
12.5W Resistor
 62
256
370
-1
  6
ByLayer
 10
-35.8000000000000114
 20
17.7500000000000142
 30
0.0
 11
-30.8000000000000362
 21
17.7500000000000142
 31
0.0
  0
LINE
  5
B7
100
AcDbEntity
100
AcDbLine
  8
12.5W Resistor
 62
256
370
-1
  6
ByLayer
 10
-35.8000000000000114
 20
15.5499999999999972
 30
0.0
 11
-33.9000000000000199
 21
15.5499999999999972
 31
0.0
  0
LINE
  5
B8
100
AcDbEntity
100
AcDbLine
  8
12.5W Resistor
 62
256
370
-1
  6
ByLayer
 10
-8.9000000000000092
 20
31.0499999999999972
 30
0.0
 11
0.9999999999999939
 21
31.0499999999999972
 31
0.0
  0
LINE
  5
B9
100
AcDbEntity
100
AcDbLine
  8
12.5W Resistor
 62
256
370
-1
  6
ByLayer
 10
-8.9000000000000128
 20
20.3500000000000085
 30
0.0
 11
0.9999999999999893
 21
20.3500000000000085
 31
0.0
  0
LINE
  5
BA
100
AcDbEntity
100
AcDbLine
  8
12.5W Resistor
 62
256
370
-1
  6
ByLayer
 10
0.9999999999999939
 20
31.0499999999999972
 30
0.0
 11
0.9999999999999893
 21
20.3500000000000085
 31
0.0
  0
CIRCLE
  5
BB
100
AcDbEntity
100
AcDbCircle
  8
12.5W Resistor
 62
256
370
-1
  6
ByLayer
 10
-38.7000000000000171
 20
25.6999999999999993
 30
0.0
 40
3.75
  0
CIRCLE
  5
BC
100
AcDbEntity
100
AcDbCircle
  8
12.5W Resistor
 62
256
370
-1
  6
ByLayer
 10
-4.1000000000000103
 20
25.6999999999999886
 30
0.0
 40
3.75
  0
LINE
  5
BD
100
AcDbEntity
100
AcDbLine
  8
12.5W Resistor
 62
256
370
-1
  6
ByLayer
 10
-12.0000000000000071
 20
33.6499999999999915
 30
0.0
 11
-7.0000000000000089
 21
33.6499999999999915
 31
0.0
  0
LINE
  5
BE
100
AcDbEntity
100
AcDbLine
  8
12.5W Resistor
 62
256
370
-1
  6
ByLayer
 10
-8.9000000000000057
 20
35.8499999999999943
 30
0.0
 11
-7.000000000000008
 21
35.8499999999999943
 31
0.0
  0
LINE
  5
BF
100
AcDbEntity
100
AcDbLine
  8
12.5W Resistor
 62
256
370
-1
  6
ByLayer
 10
-12.0000000000000107
 20
17.7500000000000142
 30
0.0
 11
-7.0000000000000204
 21
17.7500000000000142
 31
0.0
  0
LINE
  5
C0
100
AcDbEntity
100
AcDbLine
  8
12.5W Resistor
 62
256
370
-1
  6
ByLayer
 10
-8.9000000000000128
 20
15.5500000000000043
 30
0.0
 11
-7.0000000000000222
 21
15.5500000000000043
 31
0.0
  0
LINE
  5
C1
100
AcDbEntity
100
AcDbLine
  8
12.5W Resistor
 62
256
370
-1
  6
ByLayer
 10
-40.7000000000000171
 20
26.1999999999999993
 30
0.0
 11
-40.7000000000000171
 21
25.1999999999999993
 31
0.0
  0
LINE
  5
C2
100
AcDbEntity
100
AcDbLine
  8
12.5W Resistor
 62
256
370
-1
  6
ByLayer
 10
-36.7000000000000171
 20
26.1999999999999993
 30
0.0
 11
-36.7000000000000171
 21
25.1999999999999993
 31
0.0
  0
LINE
  5
C3
100
AcDbEntity
100
AcDbLine
  8
12.5W Resistor
 62
256
370
-1
  6
ByLayer
 10
-6.1000000000000103
 20
26.1999999999999886
 30
0.0
 11
-6.1000000000000103
 21
25.1999999999999886
 31
0.0
  0
LINE
  5
C4
100
AcDbEntity
100
AcDbLine
  8
12.5W Resistor
 62
256
370
-1
  6
ByLayer
 10
-2.1000000000000103
 20
26.1999999999999886
 30
0.0
 11
-2.1000000000000103
 21
25.1999999999999886
 31
0.0
  0
LINE
  5
C5
100
AcDbEntity
100
AcDbLine
  8
12.5W Resistor
 62
256
370
-1
  6
ByLayer
 10
-35.8000000000000185
 20
35.8499999999999801
 30
0.0
 11
-35.8000000000000185
 21
31.0499999999999972
 31
0.0
  0
LINE
  5
C6
100
AcDbEntity
100
AcDbLine
  8
12.5W Resistor
 62
256
370
-1
  6
ByLayer
 10
-35.8000000000000185
 20
20.3500000000000085
 30
0.0
 11
-35.8000000000000114
 21
15.5499999999999989
 31
0.0
  0
LINE
  5
C7
100
AcDbEntity
100
AcDbLine
  8
12.5W Resistor
 62
256
370
-1
  6
ByLayer
 10
-7.0000000000000187
 20
20.3500000000000085
 30
0.0
 11
-7.0000000000000222
 21
15.5500000000000043
 31
0.0
  0
LINE
  5
C8
100
AcDbEntity
100
AcDbLine
  8
12.5W Resistor
 62
256
370
-1
  6
ByLayer
 10
-7.000000000000008
 20
35.849999999999973
 30
0.0
 11
-7.0000000000000115
 21
31.0499999999999972
 31
0.0
  0
LINE
  5
C9
100
AcDbEntity
100
AcDbLine
  8
12.5W Resistor
 62
256
370
-1
  6
ByLayer
 10
-40.7000000000000171
 20
26.1999999999999993
 30
0.0
 11
-39.5660254037844581
 21
26.1999999999999993
 31
0.0
  0
LINE
  5
CA
100
AcDbEntity
100
AcDbLine
  8
12.5W Resistor
 62
256
370
-1
  6
ByLayer
 10
-37.833974596215576
 20
26.1999999999999993
 30
0.0
 11
-36.7000000000000171
 21
26.1999999999999993
 31
0.0
  0
ARC
  5
CB
100
AcDbEntity
  8
12.5W Resistor
 62
256
370
-1
  6
ByLayer
100
AcDbCircle
 10
-38.7000000000000171
 20
25.6999999999999993
 30
0.0
 40
1.0
100
AcDbArc
 50
209.9999999999999147
 51
330.0000000000000568
  0
ARC
  5
CC
100
AcDbEntity
  8
12.5W Resistor
 62
256
370
-1
  6
ByLayer
100
AcDbCircle
 10
-38.7000000000000171
 20
25.6999999999999993
 30
0.0
 40
1.0
100
AcDbArc
 50
29.9999999999999289
 51
150.0000000000000853
  0
LINE
  5
CD
100
AcDbEntity
100
AcDbLine
  8
12.5W Resistor
 62
256
370
-1
  6
ByLayer
 10
-40.7000000000000171
 20
25.1999999999999993
 30
0.0
 11
-39.5660254037844581
 21
25.1999999999999993
 31
0.0
  0
LINE
  5
CE
100
AcDbEntity
100
AcDbLine
  8
12.5W Resistor
 62
256
370
-1
  6
ByLayer
 10
-37.833974596215576
 20
25.1999999999999993
 30
0.0
 11
-36.7000000000000171
 21
25.1999999999999993
 31
0.0
  0
LINE
  5
CF
100
AcDbEntity
100
AcDbLine
  8
12.5W Resistor
 62
256
370
-1
  6
ByLayer
 10
-6.1000000000000103
 20
26.1999999999999886
 30
0.0
 11
-4.9660254037844487
 21
26.1999999999999886
 31
0.0
  0
LINE
  5
D0
100
AcDbEntity
100
AcDbLine
  8
12.5W Resistor
 62
256
370
-1
  6
ByLayer
 10
-3.2339745962155719
 20
26.1999999999999886
 30
0.0
 11
-2.1000000000000103
 21
26.1999999999999886
 31
0.0
  0
LINE
  5
D1
100
AcDbEntity
100
AcDbLine
  8
12.5W Resistor
 62
256
370
-1
  6
ByLayer
 10
-6.1000000000000103
 20
25.1999999999999886
 30
0.0
 11
-4.9660254037844487
 21
25.1999999999999886
 31
0.0
  0
LINE
  5
D2
100
AcDbEntity
100
AcDbLine
  8
12.5W Resistor
 62
256
370
-1
  6
ByLayer
 10
-3.2339745962155719
 20
25.1999999999999886
 30
0.0
 11
-2.1000000000000103
 21
25.1999999999999886
 31
0.0
  0
ARC
  5
D3
100
AcDbEntity
  8
12.5W Resistor
 62
256
370
-1
  6
ByLayer
100
AcDbCircle
 10
-4.1000000000000103
 20
25.6999999999999886
 30
0.0
 40
1.0
100
AcDbArc
 50
30.0000000000000036
 51
150.0000000000000284
  0
ARC
  5
D4
100
AcDbEntity
  8
12.5W Resistor
 62
256
370
-1
  6
ByLayer
100
AcDbCircle
 10
-4.1000000000000103
 20
25.6999999999999886
 30
0.0
 40
1.0
100
AcDbArc
 50
209.9999999999999716
 51
330.0
  0
LINE
  5
D5
100
AcDbEntity
100
AcDbLine
  8
Side
 62
256
370
-1
  6
ByLayer
 10
-8.9000000000000377
 20
18.7500000000000178
 30
0.0
 11
-12.0000000000000178
 21
18.7500000000000107
 31
0.0
  0
LINE
  5
D6
100
AcDbEntity
100
AcDbLine
  8
Side
 62
256
370
-1
  6
ByLayer
 10
-12.0000000000000178
 20
18.7500000000000107
 30
0.0
 11
-12.0000000000000142
 21
16.7500000000000142
 31
0.0
  0
LINE
  5
D7
100
AcDbEntity
100
AcDbLine
  8
Side
 62
256
370
-1
  6
ByLayer
 10
-12.0000000000000142
 20
16.7500000000000142
 30
0.0
 11
-8.9000000000000377
 21
16.7500000000000142
 31
0.0
  0
LINE
  5
D8
100
AcDbEntity
100
AcDbLine
  8
Side
 62
256
370
-1
  6
ByLayer
 10
-33.9000000000000057
 20
18.7500000000000071
 30
0.0
 11
-30.8000000000000362
 21
18.7500000000000071
 31
0.0
  0
LINE
  5
D9
100
AcDbEntity
100
AcDbLine
  8
Side
 62
256
370
-1
  6
ByLayer
 10
-30.8000000000000362
 20
18.7500000000000071
 30
0.0
 11
-30.8000000000000362
 21
16.7500000000000071
 31
0.0
  0
LINE
  5
DA
100
AcDbEntity
100
AcDbLine
  8
Side
 62
256
370
-1
  6
ByLayer
 10
-30.8000000000000362
 20
16.7500000000000071
 30
0.0
 11
-33.9000000000000057
 21
16.7500000000000071
 31
0.0
  0
LINE
  5
DB
100
AcDbEntity
100
AcDbLine
  8
Side
 62
256
370
-1
  6
ByLayer
 10
-8.9000000000000234
 20
34.6499999999999844
 30
0.0
 11
-12.0000000000000178
 21
34.6499999999999844
 31
0.0
  0
LINE
  5
DC
100
AcDbEntity
100
AcDbLine
  8
Side
 62
256
370
-1
  6
ByLayer
 10
-12.0000000000000178
 20
34.6499999999999844
 30
0.0
 11
-12.0000000000000178
 21
32.6499999999999915
 31
0.0
  0
LINE
  5
DD
100
AcDbEntity
100
AcDbLine
  8
Side
 62
256
370
-1
  6
ByLayer
 10
-12.0000000000000178
 20
32.6499999999999915
 30
0.0
 11
-8.9000000000000234
 21
32.6499999999999844
 31
0.0
  0
LINE
  5
DE
100
AcDbEntity
100
AcDbLine
  8
Side
 62
256
370
-1
  6
ByLayer
 10
-33.9000000000000199
 20
34.6499999999999702
 30
0.0
 11
-30.8000000000000291
 21
34.6499999999999844
 31
0.0
  0
LINE
  5
DF
100
AcDbEntity
100
AcDbLine
  8
Side
 62
256
370
-1
  6
ByLayer
 10
-30.8000000000000291
 20
34.6499999999999844
 30
0.0
 11
-30.8000000000000291
 21
32.6499999999999844
 31
0.0
  0
LINE
  5
E0
100
AcDbEntity
100
AcDbLine
  8
Side
 62
256
370
-1
  6
ByLayer
 10
-30.8000000000000291
 20
32.6499999999999844
 30
0.0
 11
-33.9000000000000199
 21
32.6499999999999844
 31
0.0
  0
LINE
  5
E1
100
AcDbEntity
100
AcDbLine
  8
12.5W Resistor
 62
256
370
-1
  6
ByLayer
 10
-33.9000000000000199
 20
-38.9999999999999716
 30
0.0
 11
-33.9000000000000341
 21
-57.9999999999999716
 31
0.0
  0
LINE
  5
E2
100
AcDbEntity
100
AcDbLine
  8
12.5W Resistor
 62
256
370
-1
  6
ByLayer
 10
-35.8000000000000256
 20
-38.9999999999999716
 30
0.0
 11
-35.8000000000000398
 21
-57.9999999999999716
 31
0.0
  0
LINE
  5
E3
100
AcDbEntity
100
AcDbLine
  8
12.5W Resistor
 62
256
370
-1
  6
ByLayer
 10
-43.8000000000000185
 20
-38.9999999999999645
 30
0.0
 11
-43.8000000000000327
 21
-57.9999999999999645
 31
0.0
  0
LINE
  5
E4
100
AcDbEntity
100
AcDbLine
  8
12.5W Resistor
 62
256
370
-1
  6
ByLayer
 10
-43.8000000000000185
 20
-38.9999999999999645
 30
0.0
 11
-33.9000000000000199
 21
-38.9999999999999716
 31
0.0
  0
LINE
  5
E5
100
AcDbEntity
100
AcDbLine
  8
12.5W Resistor
 62
256
370
-1
  6
ByLayer
 10
-33.9000000000000341
 20
-57.9999999999999716
 30
0.0
 11
-43.8000000000000327
 21
-57.9999999999999645
 31
0.0
  0
LINE
  5
E6
100
AcDbEntity
100
AcDbLine
  8
12.5W Resistor
 62
256
370
-1
  6
ByLayer
 10
-30.8000000000000327
 20
-56.6499999999999844
 30
0.0
 11
-35.8000000000000398
 21
-56.6499999999999844
 31
0.0
  0
LINE
  5
E7
100
AcDbEntity
100
AcDbLine
  8
12.5W Resistor
 62
256
370
-1
  6
ByLayer
 10
-30.8000000000000327
 20
-55.6499999999999844
 30
0.0
 11
-35.8000000000000398
 21
-55.6499999999999702
 31
0.0
  0
LINE
  5
E8
100
AcDbEntity
100
AcDbLine
  8
12.5W Resistor
 62
256
370
-1
  6
ByLayer
 10
-30.8000000000000433
 20
-54.6499999999999773
 30
0.0
 11
-35.8000000000000256
 21
-54.6499999999999844
 31
0.0
  0
LINE
  5
E9
100
AcDbEntity
100
AcDbLine
  8
12.5W Resistor
 62
256
370
-1
  6
ByLayer
 10
-30.8000000000000433
 20
-54.6499999999999773
 30
0.0
 11
-30.8000000000000327
 21
-56.6499999999999844
 31
0.0
  0
LINE
  5
EA
100
AcDbEntity
100
AcDbLine
  8
12.5W Resistor
 62
256
370
-1
  6
ByLayer
 10
-30.800000000000022
 20
-40.3499999999999801
 30
0.0
 11
-35.8000000000000256
 21
-40.3499999999999801
 31
0.0
  0
LINE
  5
EB
100
AcDbEntity
100
AcDbLine
  8
12.5W Resistor
 62
256
370
-1
  6
ByLayer
 10
-30.8000000000000291
 20
-42.3499999999999801
 30
0.0
 11
-35.8000000000000256
 21
-42.3499999999999659
 31
0.0
  0
LINE
  5
EC
100
AcDbEntity
100
AcDbLine
  8
12.5W Resistor
 62
256
370
-1
  6
ByLayer
 10
-30.8000000000000291
 20
-41.3499999999999801
 30
0.0
 11
-35.8000000000000256
 21
-41.349999999999973
 31
0.0
  0
LINE
  5
ED
100
AcDbEntity
100
AcDbLine
  8
12.5W Resistor
 62
256
370
-1
  6
ByLayer
 10
-30.800000000000022
 20
-40.3499999999999801
 30
0.0
 11
-30.8000000000000291
 21
-42.3499999999999801
 31
0.0
  0
LINE
  5
EE
100
AcDbEntity
100
AcDbLine
  8
Top
 62
256
370
-1
  6
ByLayer
 10
-33.9000000000000199
 20
-54.6499999999999844
 30
0.0
 11
-30.9000000000000448
 21
-54.6499999999999773
 31
0.0
  0
LINE
  5
EF
100
AcDbEntity
100
AcDbLine
  8
Top
 62
256
370
-1
  6
ByLayer
 10
-30.9000000000000341
 20
-56.6499999999999844
 30
0.0
 11
-33.9000000000000199
 21
-56.6499999999999844
 31
0.0
  0
LINE
  5
F0
100
AcDbEntity
100
AcDbLine
  8
0
 62
256
370
-1
  6
ByLayer
 10
-30.9000000000000448
 20
-54.6499999999999773
 30
0.0
 11
-30.9000000000000341
 21
-56.6499999999999844
 31
0.0
  0
LINE
  5
F1
100
AcDbEntity
100
AcDbLine
  8
Top
 62
256
370
-1
  6
ByLayer
 10
-31.9000000000000234
 20
-40.3499999999999801
 30
0.0
 11
-31.9000000000000306
 21
-42.349999999999973
 31
0.0
  0
LINE
  5
F2
100
AcDbEntity
100
AcDbLine
  8
Top
 62
256
370
-1
  6
ByLayer
 10
-33.9000000000000199
 20
-40.3499999999999801
 30
0.0
 11
-31.9000000000000234
 21
-40.3499999999999801
 31
0.0
  0
LINE
  5
F3
100
AcDbEntity
100
AcDbLine
  8
Top
 62
256
370
-1
  6
ByLayer
 10
-31.9000000000000306
 20
-42.3499999999999801
 30
0.0
 11
-33.9000000000000199
 21
-42.349999999999973
 31
0.0
  0
CIRCLE
  5
F4
100
AcDbEntity
100
AcDbCircle
  8
Drawing
 62
256
370
-1
  6
ByLayer
 10
-21.400000000000027
 20
-48.4999999999999858
 30
0.0
 40
13.0
  0
LINE
  5
F5
100
AcDbEntity
100
AcDbLine
  8
Drawing
 62
256
370
-1
  6
ByLayer
 10
-30.5923881554251231
 20
-39.3076118445748861
 30
0.0
 11
-21.400000000000027
 21
-48.4999999999999858
 31
0.0
  0
LINE
  5
F6
100
AcDbEntity
100
AcDbLine
  8
Drawing
 62
256
370
-1
  6
ByLayer
 10
-21.400000000000027
 20
-48.4999999999999858
 30
0.0
 11
-12.2076118445749042
 21
-39.3076118445748861
 31
0.0
  0
LINE
  5
F7
100
AcDbEntity
100
AcDbLine
  8
Drawing
 62
256
370
-1
  6
ByLayer
 10
-12.2076118445749024
 20
-57.6923881554251139
 30
0.0
 11
-21.4000000000000341
 21
-48.4999999999999858
 31
0.0
  0
LINE
  5
F8
100
AcDbEntity
100
AcDbLine
  8
Drawing
 62
256
370
-1
  6
ByLayer
 10
-21.4000000000000341
 20
-48.4999999999999858
 30
0.0
 11
-30.5923881554251267
 21
-57.6923881554251068
 31
0.0
  0
CIRCLE
  5
F9
100
AcDbEntity
100
AcDbCircle
  8
Drawing
 62
256
370
-1
  6
ByLayer
 10
-21.4000000000000306
 20
-48.4999999999999858
 30
0.0
 40
12.0
  0
LINE
  5
FA
100
AcDbEntity
100
AcDbLine
  8
12.5W Resistor
 62
256
370
-1
  6
ByLayer
 10
-8.9000000000000234
 20
-39.3264947972306231
 30
0.0
 11
-8.900000000000027
 21
-58.3264947972306231
 31
0.0
  0
LINE
  5
FB
100
AcDbEntity
100
AcDbLine
  8
12.5W Resistor
 62
256
370
-1
  6
ByLayer
 10
-7.0000000000000195
 20
-39.3264947972306231
 30
0.0
 11
-7.0000000000000213
 21
-58.3264947972306231
 31
0.0
  0
LINE
  5
FC
100
AcDbEntity
100
AcDbLine
  8
12.5W Resistor
 62
256
370
-1
  6
ByLayer
 10
0.9999999999999769
 20
-39.3264947972306231
 30
0.0
 11
0.9999999999999734
 21
-58.3264947972306231
 31
0.0
  0
LINE
  5
FD
100
AcDbEntity
100
AcDbLine
  8
12.5W Resistor
 62
256
370
-1
  6
ByLayer
 10
-8.9000000000000234
 20
-39.3264947972306231
 30
0.0
 11
0.9999999999999769
 21
-39.3264947972306231
 31
0.0
  0
LINE
  5
FE
100
AcDbEntity
100
AcDbLine
  8
12.5W Resistor
 62
256
370
-1
  6
ByLayer
 10
0.9999999999999734
 20
-58.3264947972306231
 30
0.0
 11
-8.900000000000027
 21
-58.3264947972306231
 31
0.0
  0
LINE
  5
FF
100
AcDbEntity
100
AcDbLine
  8
12.5W Resistor
 62
256
370
-1
  6
ByLayer
 10
-12.0000000000000213
 20
-56.9764947972306217
 30
0.0
 11
-7.0000000000000204
 21
-56.9764947972306217
 31
0.0
  0
LINE
  5
100
100
AcDbEntity
100
AcDbLine
  8
12.5W Resistor
 62
256
370
-1
  6
ByLayer
 10
-12.0000000000000213
 20
-55.9764947972306288
 30
0.0
 11
-7.0000000000000195
 21
-55.9764947972306146
 31
0.0
  0
LINE
  5
101
100
AcDbEntity
100
AcDbLine
  8
12.5W Resistor
 62
256
370
-1
  6
ByLayer
 10
-12.0000000000000178
 20
-54.9764947972306146
 30
0.0
 11
-7.0000000000000213
 21
-54.9764947972306217
 31
0.0
  0
LINE
  5
102
100
AcDbEntity
100
AcDbLine
  8
12.5W Resistor
 62
256
370
-1
  6
ByLayer
 10
-12.0000000000000178
 20
-54.9764947972306146
 30
0.0
 11
-12.0000000000000213
 21
-56.9764947972306217
 31
0.0
  0
LINE
  5
103
100
AcDbEntity
100
AcDbLine
  8
12.5W Resistor
 62
256
370
-1
  6
ByLayer
 10
-12.0000000000000213
 20
-40.6764947972306175
 30
0.0
 11
-7.0000000000000213
 21
-40.6764947972306175
 31
0.0
  0
LINE
  5
104
100
AcDbEntity
100
AcDbLine
  8
12.5W Resistor
 62
256
370
-1
  6
ByLayer
 10
-12.0000000000000178
 20
-42.6764947972306175
 30
0.0
 11
-7.0000000000000204
 21
-42.6764947972306175
 31
0.0
  0
LINE
  5
105
100
AcDbEntity
100
AcDbLine
  8
12.5W Resistor
 62
256
370
-1
  6
ByLayer
 10
-12.0000000000000178
 20
-41.6764947972306175
 30
0.0
 11
-7.0000000000000213
 21
-41.6764947972306175
 31
0.0
  0
LINE
  5
106
100
AcDbEntity
100
AcDbLine
  8
12.5W Resistor
 62
256
370
-1
  6
ByLayer
 10
-12.0000000000000213
 20
-40.6764947972306175
 30
0.0
 11
-12.0000000000000178
 21
-42.6764947972306175
 31
0.0
  0
LINE
  5
107
100
AcDbEntity
100
AcDbLine
  8
0
 62
256
370
-1
  6
ByLayer
 10
-11.9000000000000181
 20
-54.9629498699152563
 30
0.0
 11
-11.9000000000000217
 21
-56.9629498699152634
 31
0.0
  0
LINE
  5
108
100
AcDbEntity
100
AcDbLine
  8
Top
 62
256
370
-1
  6
ByLayer
 10
-8.900000000000027
 20
-54.9629498699152634
 30
0.0
 11
-11.8999999999999986
 21
-54.9629498699152563
 31
0.0
  0
LINE
  5
109
100
AcDbEntity
100
AcDbLine
  8
Top
 62
256
370
-1
  6
ByLayer
 10
-11.899999999999995
 20
-56.9629498699152634
 30
0.0
 11
-8.9000000000000306
 21
-56.9629498699152705
 31
0.0
  0
LINE
  5
10A
100
AcDbEntity
100
AcDbLine
  8
Top
 62
256
370
-1
  6
ByLayer
 10
-10.9000000000000217
 20
-40.6764947972306175
 30
0.0
 11
-10.9000000000000181
 21
-42.6764947972306175
 31
0.0
  0
LINE
  5
10B
100
AcDbEntity
100
AcDbLine
  8
Top
 62
256
370
-1
  6
ByLayer
 10
-8.9000000000000234
 20
-40.6764947972306175
 30
0.0
 11
-10.9000000000000217
 21
-40.6764947972306175
 31
0.0
  0
LINE
  5
10C
100
AcDbEntity
100
AcDbLine
  8
Top
 62
256
370
-1
  6
ByLayer
 10
-10.9000000000000181
 20
-42.6764947972306175
 30
0.0
 11
-8.900000000000027
 21
-42.6764947972306175
 31
0.0
  0
ENDSEC
  0
SECTION
  2
OBJECTS
  0
DICTIONARY
  5
C
100
AcDbDictionary
280
0
281
1
  3
ACAD_GROUP
350
D
  3
ACAD_LAYOUT
350
1A
  3
ACAD_MLINESTYLE
350
17
  3
ACAD_PLOTSETTINGS
350
19
  3
ACAD_PLOTSTYLENAME
350
E
  3
AcDbVariableDictionary
350
10D
  0
DICTIONARY
  5
D
100
AcDbDictionary
280
0
281
1
  0
ACDBDICTIONARYWDFLT
  5
E
100
AcDbDictionary
281
1
  3
Normal
350
F
100
AcDbDictionaryWithDefault
340
F
  0
ACDBPLACEHOLDER
  5
F
  0
DICTIONARY
  5
17
100
AcDbDictionary
280
0
281
1
  3
Standard
350
18
  0
MLINESTYLE
  5
18
100
AcDbMlineStyle
  2
STANDARD
 70
0
  3

 62
256
 51
90.0
 52
90.0
 71
2
 49
0.5
 62
256
  6
BYLAYER
 49
-0.5
 62
256
  6
BYLAYER
  0
DICTIONARY
  5
19
100
AcDbDictionary
280
0
281
1
  0
DICTIONARY
  5
1A
100
AcDbDictionary
281
1
  3
Layout1
350
1E
  3
Layout2
350
26
  3
Model
350
22
  0
LAYOUT
  5
1E
100
AcDbPlotSettings
  1

  2
C:\Program Files\AutoCAD 2002\plotters\DWF ePlot (optimized for plotting).pc3
  4

  6

 40
0.0
 41
0.0
 42
0.0
 43
0.0
 44
0.0
 45
0.0
 46
0.0
 47
0.0
 48
0.0
 49
0.0
140
0.0
141
0.0
142
1.0
143
1.0
 70
688
 72
0
 73
0
 74
5
  7

 75
16
147
1.0
148
0.0
149
0.0
100
AcDbLayout
  1
Layout1
 70
1
 71
1
 10
0.0
 20
0.0
 11
420.0
 21
297.0
 12
0.0
 22
0.0
 32
0.0
 14
100000000000000000000.0
 24
100000000000000000000.0
 34
100000000000000000000.0
 15
-100000000000000000000.0
 25
-100000000000000000000.0
 35
-100000000000000000000.0
146
0.0
 13
0.0
 23
0.0
 33
0.0
 16
1.0
 26
0.0
 36
0.0
 17
0.0
 27
1.0
 37
0.0
 76
0
330
1B
  0
LAYOUT
  5
22
100
AcDbPlotSettings
  1

  2
C:\Program Files\AutoCAD 2002\plotters\DWF ePlot (optimized for plotting).pc3
  4

  6

 40
0.0
 41
0.0
 42
0.0
 43
0.0
 44
0.0
 45
0.0
 46
0.0
 47
0.0
 48
0.0
 49
0.0
140
0.0
141
0.0
142
1.0
143
1.0
 70
1712
 72
0
 73
0
 74
0
  7

 75
0
147
1.0
148
0.0
149
0.0
100
AcDbLayout
  1
Model
 70
1
 71
0
 10
0.0
 20
0.0
 11
12.0
 21
9.0
 12
0.0
 22
0.0
 32
0.0
 14
0.0
 24
0.0
 34
0.0
 15
0.0
 25
0.0
 35
0.0
146
0.0
 13
0.0
 23
0.0
 33
0.0
 16
1.0
 26
0.0
 36
0.0
 17
0.0
 27
1.0
 37
0.0
 76
0
330
1F
  0
LAYOUT
  5
26
100
AcDbPlotSettings
  1

  2
C:\Program Files\AutoCAD 2002\plotters\DWF ePlot (optimized for plotting).pc3
  4

  6

 40
0.0
 41
0.0
 42
0.0
 43
0.0
 44
0.0
 45
0.0
 46
0.0
 47
0.0
 48
0.0
 49
0.0
140
0.0
141
0.0
142
1.0
143
1.0
 70
688
 72
0
 73
0
 74
5
  7

 75
16
147
1.0
148
0.0
149
0.0
100
AcDbLayout
  1
Layout2
 70
1
 71
2
 10
0.0
 20
0.0
 11
12.0
 21
9.0
 12
0.0
 22
0.0
 32
0.0
 14
0.0
 24
0.0
 34
0.0
 15
0.0
 25
0.0
 35
0.0
146
0.0
 13
0.0
 23
0.0
 33
0.0
 16
1.0
 26
0.0
 36
0.0
 17
0.0
 27
1.0
 37
0.0
 76
0
330
23
  0
DICTIONARY
  5
10D
100
AcDbDictionary
281
1
  3
DIMASSOC
350
10F
  3
HIDETEXT
350
10E
  0
DICTIONARYVAR
  5
10E
100
DictionaryVariables
280
0
  1
2
  0
DICTIONARYVAR
  5
10F
100
DictionaryVariables
280
0
  1
1
  0
ENDSEC
  0
EOF
