999
dxflib 2.2.0.0
  0
SECTION
  2
HEADER
  9
$ACADVER
  1
AC1015
  9
$HANDSEED
  5
FFFF
  9
$DIMASZ
 40
2.5
  9
$PLIMMIN
 10
0.0
 20
0.0
  9
$DIMEXE
 40
1.25
  9
$DIMGAP
 40
0.625
  9
$PLIMMAX
 10
210.0
 20
297.0
  9
$INSUNITS
 70
4
  9
$DIMSTYLE
  2
Standard
  9
$CLAYER
  8
fitting_protos_guide
  9
$DIMEXO
 40
0.625
  9
$DIMTXT
 40
2.5
  9
$CLAYER
  8
catbox_side
  0
ENDSEC
  0
SECTION
  2
TABLES
  0
TABLE
  2
VPORT
  5
8
100
AcDbSymbolTable
 70
1
  0
VPORT
  5
30
100
AcDbSymbolTableRecord
100
AcDbViewportTableRecord
  2
*Active
 70
0
 10
0.0
 20
0.0
 11
1.0
 21
1.0
 12
286.3055555555554861
 22
148.5
 13
0.0
 23
0.0
 14
10.0
 24
10.0
 15
10.0
 25
10.0
 16
0.0
 26
0.0
 36
1.0
 17
0.0
 27
0.0
 37
0.0
 40
297.0
 41
1.92798353909465
 42
50.0
 43
0.0
 44
0.0
 50
0.0
 51
0.0
 71
0
 72
100
 73
1
 74
3
 75
1
 76
1
 77
0
 78
0
281
0
 65
1
110
0.0
120
0.0
130
0.0
111
1.0
121
0.0
131
0.0
112
0.0
122
1.0
132
0.0
 79
0
146
0.0
  0
ENDTAB
  0
TABLE
  2
LTYPE
  5
5
100
AcDbSymbolTable
 70
21
  0
LTYPE
  5
14
100
AcDbSymbolTableRecord
100
AcDbLinetypeTableRecord
  2
ByBlock
 70
0
  3

 72
65
 73
0
 40
0.0
  0
LTYPE
  5
15
100
AcDbSymbolTableRecord
100
AcDbLinetypeTableRecord
  2
ByLayer
 70
0
  3

 72
65
 73
0
 40
0.0
  0
LTYPE
  5
16
100
AcDbSymbolTableRecord
100
AcDbLinetypeTableRecord
  2
CONTINUOUS
 70
0
  3
Solid line
 72
65
 73
0
 40
0.0
  0
LTYPE
  5
31
100
AcDbSymbolTableRecord
100
AcDbLinetypeTableRecord
  2
DOT
 70
0
  3
Dot . . . . . . . . . . . . . . . . . . . . . .
 72
65
 73
2
 40
6.3499999999999996
 49
0.0
 74
0
 49
-6.3499999999999996
 74
0
  0
LTYPE
  5
32
100
AcDbSymbolTableRecord
100
AcDbLinetypeTableRecord
  2
DOT2
 70
0
  3
Dot (.5x) .....................................
 72
65
 73
2
 40
3.1749999999999998
 49
0.0
 74
0
 49
-3.1749999999999998
 74
0
  0
LTYPE
  5
33
100
AcDbSymbolTableRecord
100
AcDbLinetypeTableRecord
  2
DOTX2
 70
0
  3
Dot (2x) .  .  .  .  .  .  .  .  .  .  .  .  .
 72
65
 73
2
 40
12.6999999999999993
 49
0.0
 74
0
 49
-12.6999999999999993
 74
0
  0
LTYPE
  5
34
100
AcDbSymbolTableRecord
100
AcDbLinetypeTableRecord
  2
DASHED
 70
0
  3
Dashed __ __ __ __ __ __ __ __ __ __ __ __ __ _
 72
65
 73
2
 40
19.0500000000000007
 49
12.6999999999999993
 74
0
 49
-6.3499999999999996
 74
0
  0
LTYPE
  5
35
100
AcDbSymbolTableRecord
100
AcDbLinetypeTableRecord
  2
DASHED2
 70
0
  3
Dashed (.5x) _ _ _ _ _ _ _ _ _ _ _ _ _ _ _ _ _
 72
65
 73
2
 40
9.5250000000000004
 49
6.3499999999999996
 74
0
 49
-3.1749999999999998
 74
0
  0
LTYPE
  5
36
100
AcDbSymbolTableRecord
100
AcDbLinetypeTableRecord
  2
DASHEDX2
 70
0
  3
Dashed (2x) ____  ____  ____  ____  ____  ___
 72
65
 73
2
 40
38.1000000000000014
 49
25.3999999999999986
 74
0
 49
-12.6999999999999993
 74
0
  0
LTYPE
  5
37
100
AcDbSymbolTableRecord
100
AcDbLinetypeTableRecord
  2
DASHDOT
 70
0
  3
Dash dot __ . __ . __ . __ . __ . __ . __ . __
 72
65
 73
4
 40
25.3999999999999986
 49
12.6999999999999993
 74
0
 49
-6.3499999999999996
 74
0
 49
0.0
 74
0
 49
-6.3499999999999996
 74
0
  0
LTYPE
  5
38
100
AcDbSymbolTableRecord
100
AcDbLinetypeTableRecord
  2
DASHDOT2
 70
0
  3
Dash dot (.5x) _._._._._._._._._._._._._._._.
 72
65
 73
4
 40
12.6999999999999993
 49
6.3499999999999996
 74
0
 49
-3.1749999999999998
 74
0
 49
0.0
 74
0
 49
-3.1749999999999998
 74
0
  0
LTYPE
  5
39
100
AcDbSymbolTableRecord
100
AcDbLinetypeTableRecord
  2
DASHDOTX2
 70
0
  3
Dash dot (2x) ____  .  ____  .  ____  .  ___
 72
65
 73
4
 40
50.7999999999999972
 49
25.3999999999999986
 74
0
 49
-12.6999999999999993
 74
0
 49
0.0
 74
0
 49
-12.6999999999999993
 74
0
  0
LTYPE
  5
3A
100
AcDbSymbolTableRecord
100
AcDbLinetypeTableRecord
  2
DIVIDE
 70
0
  3
Divide ____ . . ____ . . ____ . . ____ . . ____
 72
65
 73
6
 40
31.75
 49
12.6999999999999993
 74
0
 49
-6.3499999999999996
 74
0
 49
0.0
 74
0
 49
-6.3499999999999996
 74
0
 49
0.0
 74
0
 49
-6.3499999999999996
 74
0
  0
LTYPE
  5
3B
100
AcDbSymbolTableRecord
100
AcDbLinetypeTableRecord
  2
DIVIDE2
 70
0
  3
Divide (.5x) __..__..__..__..__..__..__..__.._
 72
65
 73
6
 40
15.875
 49
6.3499999999999996
 74
0
 49
-3.1749999999999998
 74
0
 49
0.0
 74
0
 49
-3.1749999999999998
 74
0
 49
0.0
 74
0
 49
-3.1749999999999998
 74
0
  0
LTYPE
  5
3C
100
AcDbSymbolTableRecord
100
AcDbLinetypeTableRecord
  2
DIVIDEX2
 70
0
  3
Divide (2x) ________  .  .  ________  .  .  _
 72
65
 73
6
 40
63.5
 49
25.3999999999999986
 74
0
 49
-12.6999999999999993
 74
0
 49
0.0
 74
0
 49
-12.6999999999999993
 74
0
 49
0.0
 74
0
 49
-12.6999999999999993
 74
0
  0
LTYPE
  5
3D
100
AcDbSymbolTableRecord
100
AcDbLinetypeTableRecord
  2
CENTER
 70
0
  3
Center ____ _ ____ _ ____ _ ____ _ ____ _ ____
 72
65
 73
4
 40
50.7999999999999972
 49
31.75
 74
0
 49
-6.3499999999999996
 74
0
 49
6.3499999999999996
 74
0
 49
-6.3499999999999996
 74
0
  0
LTYPE
  5
3E
100
AcDbSymbolTableRecord
100
AcDbLinetypeTableRecord
  2
CENTER2
 70
0
  3
Center (.5x) ___ _ ___ _ ___ _ ___ _ ___ _ ___
 72
65
 73
4
 40
28.5749999999999993
 49
19.0500000000000007
 74
0
 49
-3.1749999999999998
 74
0
 49
3.1749999999999998
 74
0
 49
-3.1749999999999998
 74
0
  0
LTYPE
  5
3F
100
AcDbSymbolTableRecord
100
AcDbLinetypeTableRecord
  2
CENTERX2
 70
0
  3
Center (2x) ________  __  ________  __  _____
 72
65
 73
4
 40
101.5999999999999943
 49
63.5
 74
0
 49
-12.6999999999999993
 74
0
 49
12.6999999999999993
 74
0
 49
-12.6999999999999993
 74
0
  0
LTYPE
  5
40
100
AcDbSymbolTableRecord
100
AcDbLinetypeTableRecord
  2
BORDER
 70
0
  3
Border __ __ . __ __ . __ __ . __ __ . __ __ .
 72
65
 73
6
 40
44.4500000000000028
 49
12.6999999999999993
 74
0
 49
-6.3499999999999996
 74
0
 49
12.6999999999999993
 74
0
 49
-6.3499999999999996
 74
0
 49
0.0
 74
0
 49
-6.3499999999999996
 74
0
  0
LTYPE
  5
41
100
AcDbSymbolTableRecord
100
AcDbLinetypeTableRecord
  2
BORDER2
 70
0
  3
Border (.5x) __.__.__.__.__.__.__.__.__.__.__.
 72
65
 73
6
 40
22.2250000000000014
 49
6.3499999999999996
 74
0
 49
-3.1749999999999998
 74
0
 49
6.3499999999999996
 74
0
 49
-3.1749999999999998
 74
0
 49
0.0
 74
0
 49
-3.1749999999999998
 74
0
  0
LTYPE
  5
42
100
AcDbSymbolTableRecord
100
AcDbLinetypeTableRecord
  2
BORDERX2
 70
0
  3
Border (2x) ____  ____  .  ____  ____  .  ___
 72
65
 73
6
 40
88.9000000000000057
 49
25.3999999999999986
 74
0
 49
-12.6999999999999993
 74
0
 49
25.3999999999999986
 74
0
 49
-12.6999999999999993
 74
0
 49
0.0
 74
0
 49
-12.6999999999999993
 74
0
  0
ENDTAB
  0
TABLE
  2
LAYER
  5
2
100
AcDbSymbolTable
 70
10
  0
LAYER
  5
10
100
AcDbSymbolTableRecord
100
AcDbLayerTableRecord
  2
0
 70
0
 62
7
420
0
  6
CONTINUOUS
370
0
390
F
  0
LAYER
  5
43
100
AcDbSymbolTableRecord
100
AcDbLayerTableRecord
  2
catbox_top
 70
0
 62
7
420
0
  6
CONTINUOUS
370
0
390
F
  0
LAYER
  5
44
100
AcDbSymbolTableRecord
100
AcDbLayerTableRecord
  2
catbox_top_guides
 70
1
 62
-5
420
255
  6
DASHED
370
0
390
F
  0
LAYER
  5
45
100
AcDbSymbolTableRecord
100
AcDbLayerTableRecord
  2
fitting_protos
 70
0
 62
7
420
0
  6
CONTINUOUS
370
0
390
F
  0
LAYER
  5
46
100
AcDbSymbolTableRecord
100
AcDbLayerTableRecord
  2
catbox_rear
 70
0
 62
7
420
0
  6
CONTINUOUS
370
0
390
F
  0
LAYER
  5
47
100
AcDbSymbolTableRecord
100
AcDbLayerTableRecord
  2
catbox_rear_guides
 70
1
 62
-5
420
255
  6
DASHED
370
0
390
F
  0
LAYER
  5
48
100
AcDbSymbolTableRecord
100
AcDbLayerTableRecord
  2
nema14_guides
 70
0
 62
3
420
65280
  6
DASHED
370
0
390
F
  0
LAYER
  5
49
100
AcDbSymbolTableRecord
100
AcDbLayerTableRecord
  2
nema14_holes
 70
0
 62
7
420
0
  6
CONTINUOUS
370
0
390
F
  0
LAYER
  5
4A
100
AcDbSymbolTableRecord
100
AcDbLayerTableRecord
  2
basic_mount
 70
0
 62
7
420
0
  6
CONTINUOUS
370
0
390
F
  0
LAYER
  5
4B
100
AcDbSymbolTableRecord
100
AcDbLayerTableRecord
  2
catbox_side
 70
0
 62
7
420
0
  6
CONTINUOUS
370
0
390
F
  0
ENDTAB
  0
TABLE
  2
STYLE
  5
3
100
AcDbSymbolTable
 70
1
  0
STYLE
  5
11
100
AcDbSymbolTableRecord
100
AcDbTextStyleTableRecord
  2
Standard
 70
0
 40
0.0
 41
0.75
 50
0.0
 71
0
 42
2.5
  3
txt
  4

  0
ENDTAB
  0
TABLE
  2
VIEW
  5
6
100
AcDbSymbolTable
 70
0
  0
ENDTAB
  0
TABLE
  2
UCS
  5
7
100
AcDbSymbolTable
 70
0
  0
ENDTAB
  0
TABLE
  2
APPID
  5
9
100
AcDbSymbolTable
 70
1
  0
APPID
  5
12
100
AcDbSymbolTableRecord
100
AcDbRegAppTableRecord
  2
ACAD
 70
0
  0
ENDTAB
  0
TABLE
  2
DIMSTYLE
  5
A
100
AcDbSymbolTable
 70
1
100
AcDbDimStyleTable
 71
0
  0
DIMSTYLE
105
27
100
AcDbSymbolTableRecord
100
AcDbDimStyleTableRecord
  2
Standard
 41
2.5
 42
0.625
 43
3.75
 44
1.25
 70
0
 73
0
 74
0
 77
1
 78
8
140
2.5
141
2.5
143
0.03937007874016
147
0.625
171
3
172
1
271
2
272
2
274
3
278
44
283
0
284
8
340
11
  0
ENDTAB
  0
TABLE
  2
BLOCK_RECORD
  5
1
100
AcDbSymbolTable
 70
1
  0
BLOCK_RECORD
  5
1F
100
AcDbSymbolTableRecord
100
AcDbBlockTableRecord
  2
*Model_Space
340
22
  0
BLOCK_RECORD
  5
1B
100
AcDbSymbolTableRecord
100
AcDbBlockTableRecord
  2
*Paper_Space
340
1E
  0
BLOCK_RECORD
  5
23
100
AcDbSymbolTableRecord
100
AcDbBlockTableRecord
  2
*Paper_Space0
340
26
  0
BLOCK_RECORD
  5
4C
100
AcDbSymbolTableRecord
100
AcDbBlockTableRecord
  2
tabs
340
0
  0
BLOCK_RECORD
  5
4D
100
AcDbSymbolTableRecord
100
AcDbBlockTableRecord
  2
short_tab
340
0
  0
BLOCK_RECORD
  5
4E
100
AcDbSymbolTableRecord
100
AcDbBlockTableRecord
  2
short_slots
340
0
  0
BLOCK_RECORD
  5
4F
100
AcDbSymbolTableRecord
100
AcDbBlockTableRecord
  2
nema14_holes
340
0
  0
BLOCK_RECORD
  5
50
100
AcDbSymbolTableRecord
100
AcDbBlockTableRecord
  2
slots
340
0
  0
ENDTAB
  0
ENDSEC
  0
SECTION
  2
BLOCKS
  0
BLOCK
  5
20
100
AcDbEntity
  8
0
100
AcDbBlockBegin
  2
*Model_Space
 70
0
 10
0.0
 20
0.0
 30
0.0
  3
*Model_Space
  1

  0
ENDBLK
  5
21
100
AcDbEntity
  8
0
100
AcDbBlockEnd
  0
BLOCK
  5
1C
100
AcDbEntity
 67
1
  8
0
100
AcDbBlockBegin
  2
*Paper_Space
 70
0
 10
0.0
 20
0.0
 30
0.0
  3
*Paper_Space
  1

  0
ENDBLK
  5
1D
100
AcDbEntity
 67
1
  8
0
100
AcDbBlockEnd
  0
BLOCK
  5
24
100
AcDbEntity
  8
0
100
AcDbBlockBegin
  2
*Paper_Space0
 70
0
 10
0.0
 20
0.0
 30
0.0
  3
*Paper_Space0
  1

  0
ENDBLK
  5
25
100
AcDbEntity
  8
0
100
AcDbBlockEnd
  0
BLOCK
  5
51
100
AcDbEntity
  8
0
100
AcDbBlockBegin
  2
tabs
 70
0
 10
0.0
 20
0.0
 30
0.0
  3
tabs
  1

  0
LINE
  5
52
100
AcDbEntity
100
AcDbLine
  8
fitting_protos
 62
256
370
-1
  6
ByLayer
 10
-10.0000000000000018
 20
3.0750000000000588
 30
0.0
 11
-10.0
 21
0.0000000000000728
 31
0.0
  0
LINE
  5
53
100
AcDbEntity
100
AcDbLine
  8
fitting_protos
 62
256
370
-1
  6
ByLayer
 10
-30.0
 20
0.0000000000000879
 30
0.0
 11
-30.0
 21
3.0750000000000526
 31
0.0
  0
LINE
  5
54
100
AcDbEntity
100
AcDbLine
  8
fitting_protos
 62
256
370
-1
  6
ByLayer
 10
-30.0
 20
3.0750000000000526
 30
0.0
 11
-10.0000000000000018
 21
3.0750000000000588
 31
0.0
  0
LINE
  5
55
100
AcDbEntity
100
AcDbLine
  8
fitting_protos
 62
256
370
-1
  6
ByLayer
 10
10.0
 20
0.0000000000000728
 30
0.0
 11
10.0
 21
3.0750000000000597
 31
0.0
  0
LINE
  5
56
100
AcDbEntity
100
AcDbLine
  8
fitting_protos
 62
256
370
-1
  6
ByLayer
 10
10.0
 20
3.0750000000000597
 30
0.0
 11
30.0
 21
3.0750000000000561
 31
0.0
  0
LINE
  5
57
100
AcDbEntity
100
AcDbLine
  8
fitting_protos
 62
256
370
-1
  6
ByLayer
 10
30.0
 20
3.0750000000000561
 30
0.0
 11
30.0
 21
0.0000000000000941
 31
0.0
  0
LINE
  5
58
100
AcDbEntity
100
AcDbLine
  8
fitting_protos
 62
256
370
-1
  6
ByLayer
 10
2.0
 20
0.0000000000000711
 30
0.0
 11
10.0
 21
0.0000000000000728
 31
0.0
  0
LINE
  5
59
100
AcDbEntity
100
AcDbLine
  8
fitting_protos
 62
256
370
-1
  6
ByLayer
 10
-10.0
 20
0.0000000000000728
 30
0.0
 11
-2.0000000000000004
 21
0.0000000000000711
 31
0.0
  0
LINE
  5
5A
100
AcDbEntity
100
AcDbLine
  8
fitting_protos
 62
256
370
-1
  6
ByLayer
 10
-3.4399999999999982
 20
-3.9999999999999272
 30
0.0
 11
-3.4399999999999991
 21
-6.8999999999999329
 31
0.0
  0
LINE
  5
5B
100
AcDbEntity
100
AcDbLine
  8
fitting_protos
 62
256
370
-1
  6
ByLayer
 10
-3.4399999999999991
 20
-6.8999999999999329
 30
0.0
 11
-2.0000000000000013
 21
-6.8999999999999346
 31
0.0
  0
LINE
  5
5C
100
AcDbEntity
100
AcDbLine
  8
fitting_protos
 62
256
370
-1
  6
ByLayer
 10
-2.0000000000000013
 20
-6.8999999999999346
 30
0.0
 11
-2.000000000000004
 21
-8.9999999999999289
 31
0.0
  0
LINE
  5
5D
100
AcDbEntity
100
AcDbLine
  8
fitting_protos
 62
256
370
-1
  6
ByLayer
 10
-2.000000000000004
 20
-8.9999999999999289
 30
0.0
 11
1.9999999999999964
 21
-8.9999999999999289
 31
0.0
  0
LINE
  5
5E
100
AcDbEntity
100
AcDbLine
  8
fitting_protos
 62
256
370
-1
  6
ByLayer
 10
1.9999999999999964
 20
-8.9999999999999289
 30
0.0
 11
1.9999999999999998
 21
-6.8999999999999346
 31
0.0
  0
LINE
  5
5F
100
AcDbEntity
100
AcDbLine
  8
fitting_protos
 62
256
370
-1
  6
ByLayer
 10
1.9999999999999998
 20
-6.8999999999999346
 30
0.0
 11
3.4399999999999959
 21
-6.8999999999999364
 31
0.0
  0
LINE
  5
60
100
AcDbEntity
100
AcDbLine
  8
fitting_protos
 62
256
370
-1
  6
ByLayer
 10
3.4399999999999959
 20
-6.8999999999999364
 30
0.0
 11
3.4399999999999973
 21
-3.9999999999999307
 31
0.0
  0
LINE
  5
61
100
AcDbEntity
100
AcDbLine
  8
fitting_protos
 62
256
370
-1
  6
ByLayer
 10
-2.0
 20
-3.9999999999999289
 30
0.0
 11
-3.4399999999999982
 21
-3.9999999999999272
 31
0.0
  0
LINE
  5
62
100
AcDbEntity
100
AcDbLine
  8
fitting_protos
 62
256
370
-1
  6
ByLayer
 10
-2.0000000000000004
 20
0.0000000000000711
 30
0.0
 11
-2.0
 21
-3.9999999999999289
 31
0.0
  0
LINE
  5
63
100
AcDbEntity
100
AcDbLine
  8
fitting_protos
 62
256
370
-1
  6
ByLayer
 10
3.4399999999999973
 20
-3.9999999999999307
 30
0.0
 11
1.9999999999999998
 21
-3.9999999999999289
 31
0.0
  0
LINE
  5
64
100
AcDbEntity
100
AcDbLine
  8
fitting_protos
 62
256
370
-1
  6
ByLayer
 10
1.9999999999999998
 20
-3.9999999999999289
 30
0.0
 11
2.0
 21
0.0000000000000711
 31
0.0
  0
ENDBLK
  5
65
100
AcDbEntity
  8
0
100
AcDbBlockEnd
  0
BLOCK
  5
66
100
AcDbEntity
  8
0
100
AcDbBlockBegin
  2
short_tab
 70
0
 10
0.0
 20
0.0
 30
0.0
  3
short_tab
  1

  0
LINE
  5
67
100
AcDbEntity
100
AcDbLine
  8
0
 62
256
370
-1
  6
ByLayer
 10
-10.0000000000000018
 20
3.0749999999999957
 30
0.0
 11
-10.0
 21
0.0000000000000071
 31
0.0
  0
LINE
  5
68
100
AcDbEntity
100
AcDbLine
  8
0
 62
256
370
-1
  6
ByLayer
 10
10.0
 20
0.0000000000000107
 30
0.0
 11
10.0
 21
3.0749999999999957
 31
0.0
  0
LINE
  5
69
100
AcDbEntity
100
AcDbLine
  8
0
 62
256
370
-1
  6
ByLayer
 10
2.0
 20
0.0000000000000071
 30
0.0
 11
10.0
 21
0.0000000000000107
 31
0.0
  0
LINE
  5
6A
100
AcDbEntity
100
AcDbLine
  8
0
 62
256
370
-1
  6
ByLayer
 10
-10.0
 20
0.0000000000000071
 30
0.0
 11
-2.0000000000000004
 21
0.0000000000000071
 31
0.0
  0
LINE
  5
6B
100
AcDbEntity
100
AcDbLine
  8
0
 62
256
370
-1
  6
ByLayer
 10
-3.4399999999999982
 20
-3.9999999999999929
 30
0.0
 11
-3.4399999999999991
 21
-6.8999999999999986
 31
0.0
  0
LINE
  5
6C
100
AcDbEntity
100
AcDbLine
  8
0
 62
256
370
-1
  6
ByLayer
 10
-3.4399999999999991
 20
-6.8999999999999986
 30
0.0
 11
-2.0000000000000013
 21
-6.8999999999999986
 31
0.0
  0
LINE
  5
6D
100
AcDbEntity
100
AcDbLine
  8
0
 62
256
370
-1
  6
ByLayer
 10
-2.0000000000000013
 20
-6.8999999999999986
 30
0.0
 11
-2.000000000000004
 21
-8.9999999999999929
 31
0.0
  0
LINE
  5
6E
100
AcDbEntity
100
AcDbLine
  8
0
 62
256
370
-1
  6
ByLayer
 10
-2.000000000000004
 20
-8.9999999999999929
 30
0.0
 11
1.9999999999999964
 21
-8.9999999999999947
 31
0.0
  0
LINE
  5
6F
100
AcDbEntity
100
AcDbLine
  8
0
 62
256
370
-1
  6
ByLayer
 10
1.9999999999999964
 20
-8.9999999999999947
 30
0.0
 11
1.9999999999999998
 21
-6.8999999999999986
 31
0.0
  0
LINE
  5
70
100
AcDbEntity
100
AcDbLine
  8
0
 62
256
370
-1
  6
ByLayer
 10
1.9999999999999998
 20
-6.8999999999999986
 30
0.0
 11
3.4399999999999959
 21
-6.8999999999999986
 31
0.0
  0
LINE
  5
71
100
AcDbEntity
100
AcDbLine
  8
0
 62
256
370
-1
  6
ByLayer
 10
3.4399999999999959
 20
-6.8999999999999986
 30
0.0
 11
3.4399999999999973
 21
-3.9999999999999929
 31
0.0
  0
LINE
  5
72
100
AcDbEntity
100
AcDbLine
  8
0
 62
256
370
-1
  6
ByLayer
 10
-2.0
 20
-3.9999999999999929
 30
0.0
 11
-3.4399999999999982
 21
-3.9999999999999929
 31
0.0
  0
LINE
  5
73
100
AcDbEntity
100
AcDbLine
  8
0
 62
256
370
-1
  6
ByLayer
 10
-2.0000000000000004
 20
0.0000000000000071
 30
0.0
 11
-2.0
 21
-3.9999999999999929
 31
0.0
  0
LINE
  5
74
100
AcDbEntity
100
AcDbLine
  8
0
 62
256
370
-1
  6
ByLayer
 10
3.4399999999999973
 20
-3.9999999999999929
 30
0.0
 11
1.9999999999999998
 21
-3.9999999999999929
 31
0.0
  0
LINE
  5
75
100
AcDbEntity
100
AcDbLine
  8
0
 62
256
370
-1
  6
ByLayer
 10
1.9999999999999998
 20
-3.9999999999999929
 30
0.0
 11
2.0
 21
0.0000000000000071
 31
0.0
  0
LINE
  5
76
100
AcDbEntity
100
AcDbLine
  8
0
 62
256
370
-1
  6
ByLayer
 10
-20.0
 20
0.0
 30
0.0
 11
-20.0
 21
3.0750000000000028
 31
0.0
  0
LINE
  5
77
100
AcDbEntity
100
AcDbLine
  8
0
 62
256
370
-1
  6
ByLayer
 10
-20.0
 20
3.0750000000000028
 30
0.0
 11
-10.0000000000000018
 21
3.0749999999999957
 31
0.0
  0
LINE
  5
78
100
AcDbEntity
100
AcDbLine
  8
0
 62
256
370
-1
  6
ByLayer
 10
20.0
 20
3.0750000000000028
 30
0.0
 11
20.0
 21
0.0
 31
0.0
  0
LINE
  5
79
100
AcDbEntity
100
AcDbLine
  8
0
 62
256
370
-1
  6
ByLayer
 10
10.0
 20
3.0749999999999957
 30
0.0
 11
20.0
 21
3.0750000000000028
 31
0.0
  0
ENDBLK
  5
7A
100
AcDbEntity
  8
0
100
AcDbBlockEnd
  0
BLOCK
  5
7B
100
AcDbEntity
  8
0
100
AcDbBlockBegin
  2
short_slots
 70
0
 10
0.0
 20
0.0
 30
0.0
  3
short_slots
  1

  0
LINE
  5
7C
100
AcDbEntity
100
AcDbLine
  8
0
 62
256
370
-1
  6
ByLayer
 10
-9.9000000000000057
 20
1.3424999999999949
 30
0.0
 11
-9.9000000000000057
 21
-1.5325000000000029
 31
0.0
  0
LINE
  5
7D
100
AcDbEntity
100
AcDbLine
  8
0
 62
256
370
-1
  6
ByLayer
 10
9.9000000000000057
 20
-1.532500000000002
 30
0.0
 11
9.9000000000000057
 21
1.3424999999999963
 31
0.0
  0
CIRCLE
  5
7E
100
AcDbEntity
100
AcDbCircle
  8
0
 62
256
370
-1
  6
ByLayer
 10
0.0
 20
0.0
 30
0.0
 40
1.8999999999999999
  0
LINE
  5
7F
100
AcDbEntity
100
AcDbLine
  8
0
 62
256
370
-1
  6
ByLayer
 10
9.9000000000000057
 20
1.3424999999999963
 30
0.0
 11
20.0999999999999943
 21
1.3424999999999949
 31
0.0
  0
LINE
  5
80
100
AcDbEntity
100
AcDbLine
  8
0
 62
256
370
-1
  6
ByLayer
 10
20.0999999999999943
 20
-1.5325000000000089
 30
0.0
 11
9.9000000000000057
 21
-1.532500000000002
 31
0.0
  0
LINE
  5
81
100
AcDbEntity
100
AcDbLine
  8
0
 62
256
370
-1
  6
ByLayer
 10
20.0999999999999943
 20
1.3424999999999949
 30
0.0
 11
20.0999999999999943
 21
-1.5325000000000089
 31
0.0
  0
LINE
  5
82
100
AcDbEntity
100
AcDbLine
  8
0
 62
256
370
-1
  6
ByLayer
 10
-9.9000000000000057
 20
-1.5325000000000029
 30
0.0
 11
-20.0999999999999943
 21
-1.5325000000000013
 31
0.0
  0
LINE
  5
83
100
AcDbEntity
100
AcDbLine
  8
0
 62
256
370
-1
  6
ByLayer
 10
-20.0999999999999943
 20
1.3424999999999914
 30
0.0
 11
-9.9000000000000057
 21
1.3424999999999949
 31
0.0
  0
LINE
  5
84
100
AcDbEntity
100
AcDbLine
  8
0
 62
256
370
-1
  6
ByLayer
 10
-20.0999999999999943
 20
-1.5325000000000013
 30
0.0
 11
-20.0999999999999943
 21
1.3424999999999914
 31
0.0
  0
ENDBLK
  5
85
100
AcDbEntity
  8
0
100
AcDbBlockEnd
  0
BLOCK
  5
86
100
AcDbEntity
  8
0
100
AcDbBlockBegin
  2
nema14_holes
 70
0
 10
0.0
 20
0.0
 30
0.0
  3
nema14_holes
  1

  0
CIRCLE
  5
87
100
AcDbEntity
100
AcDbCircle
  8
nema14_holes
 62
256
370
-1
  6
ByLayer
 10
-12.9549999999999841
 20
12.9549999999999983
 30
0.0
 40
1.4224000000000001
  0
CIRCLE
  5
88
100
AcDbEntity
100
AcDbCircle
  8
nema14_holes
 62
256
370
-1
  6
ByLayer
 10
12.9549999999999841
 20
12.9549999999999983
 30
0.0
 40
1.4224000000000001
  0
CIRCLE
  5
89
100
AcDbEntity
100
AcDbCircle
  8
nema14_holes
 62
256
370
-1
  6
ByLayer
 10
12.954999999999977
 20
-12.9550000000000054
 30
0.0
 40
1.4224000000000001
  0
CIRCLE
  5
8A
100
AcDbEntity
100
AcDbCircle
  8
nema14_holes
 62
256
370
-1
  6
ByLayer
 10
-12.9549999999999876
 20
-12.9549999999999947
 30
0.0
 40
1.4224000000000001
  0
LINE
  5
8B
100
AcDbEntity
100
AcDbLine
  8
nema14_guides
 62
256
370
-1
  6
ByLayer
 10
-17.6530000000000271
 20
-17.6529999999999916
 30
0.0
 11
17.65300000000002
 21
-17.6529999999999987
 31
0.0
  0
LINE
  5
8C
100
AcDbEntity
100
AcDbLine
  8
nema14_guides
 62
256
370
-1
  6
ByLayer
 10
17.65300000000002
 20
-17.6529999999999987
 30
0.0
 11
17.65300000000002
 21
17.6529999999999951
 31
0.0
  0
LINE
  5
8D
100
AcDbEntity
100
AcDbLine
  8
nema14_guides
 62
256
370
-1
  6
ByLayer
 10
17.65300000000002
 20
17.6529999999999951
 30
0.0
 11
-17.6530000000000236
 21
17.6529999999999951
 31
0.0
  0
LINE
  5
8E
100
AcDbEntity
100
AcDbLine
  8
nema14_guides
 62
256
370
-1
  6
ByLayer
 10
-17.6530000000000236
 20
17.6529999999999951
 30
0.0
 11
-17.6530000000000271
 21
-17.6529999999999916
 31
0.0
  0
LINE
  5
8F
100
AcDbEntity
100
AcDbLine
  8
nema14_guides
 62
256
370
-1
  6
ByLayer
 10
-12.9549999999999876
 20
-12.9549999999999947
 30
0.0
 11
12.954999999999977
 21
-12.9550000000000054
 31
0.0
  0
LINE
  5
90
100
AcDbEntity
100
AcDbLine
  8
nema14_guides
 62
256
370
-1
  6
ByLayer
 10
12.954999999999977
 20
-12.9550000000000054
 30
0.0
 11
12.9549999999999841
 21
12.9549999999999983
 31
0.0
  0
LINE
  5
91
100
AcDbEntity
100
AcDbLine
  8
nema14_guides
 62
256
370
-1
  6
ByLayer
 10
12.9549999999999841
 20
12.9549999999999983
 30
0.0
 11
-12.9549999999999841
 21
12.9549999999999983
 31
0.0
  0
LINE
  5
92
100
AcDbEntity
100
AcDbLine
  8
nema14_guides
 62
256
370
-1
  6
ByLayer
 10
-12.9549999999999841
 20
12.9549999999999983
 30
0.0
 11
-12.9549999999999876
 21
-12.9549999999999947
 31
0.0
  0
ENDBLK
  5
93
100
AcDbEntity
  8
0
100
AcDbBlockEnd
  0
BLOCK
  5
94
100
AcDbEntity
  8
0
100
AcDbBlockBegin
  2
slots
 70
0
 10
0.0
 20
0.0
 30
0.0
  3
slots
  1

  0
LINE
  5
95
100
AcDbEntity
100
AcDbLine
  8
fitting_protos
 62
256
370
-1
  6
ByLayer
 10
-30.0999999999999943
 20
1.3424999999999874
 30
0.0
 11
-9.9000000000000057
 21
1.3424999999999949
 31
0.0
  0
LINE
  5
96
100
AcDbEntity
100
AcDbLine
  8
fitting_protos
 62
256
370
-1
  6
ByLayer
 10
-9.9000000000000057
 20
1.3424999999999949
 30
0.0
 11
-9.9000000000000057
 21
-1.5325000000000029
 31
0.0
  0
LINE
  5
97
100
AcDbEntity
100
AcDbLine
  8
fitting_protos
 62
256
370
-1
  6
ByLayer
 10
-9.9000000000000057
 20
-1.5325000000000029
 30
0.0
 11
-30.0999999999999979
 21
-1.5324999999999471
 31
0.0
  0
LINE
  5
98
100
AcDbEntity
100
AcDbLine
  8
fitting_protos
 62
256
370
-1
  6
ByLayer
 10
-30.0999999999999979
 20
-1.5324999999999471
 30
0.0
 11
-30.0999999999999943
 21
1.3424999999999874
 31
0.0
  0
LINE
  5
99
100
AcDbEntity
100
AcDbLine
  8
fitting_protos
 62
256
370
-1
  6
ByLayer
 10
9.9000000000000057
 20
1.3424999999999963
 30
0.0
 11
30.0999999999999943
 21
1.3424999999999812
 31
0.0
  0
LINE
  5
9A
100
AcDbEntity
100
AcDbLine
  8
fitting_protos
 62
256
370
-1
  6
ByLayer
 10
30.0999999999999943
 20
1.3424999999999812
 30
0.0
 11
30.0999999999999943
 21
-1.5324999999999582
 31
0.0
  0
LINE
  5
9B
100
AcDbEntity
100
AcDbLine
  8
fitting_protos
 62
256
370
-1
  6
ByLayer
 10
30.0999999999999943
 20
-1.5324999999999582
 30
0.0
 11
9.9000000000000057
 21
-1.532500000000002
 31
0.0
  0
LINE
  5
9C
100
AcDbEntity
100
AcDbLine
  8
fitting_protos
 62
256
370
-1
  6
ByLayer
 10
9.9000000000000057
 20
-1.532500000000002
 30
0.0
 11
9.9000000000000057
 21
1.3424999999999963
 31
0.0
  0
CIRCLE
  5
9D
100
AcDbEntity
100
AcDbCircle
  8
fitting_protos
 62
256
370
-1
  6
ByLayer
 10
0.0
 20
0.0
 30
0.0
 40
1.8999999999999999
  0
ENDBLK
  5
9E
100
AcDbEntity
  8
0
100
AcDbBlockEnd
  0
ENDSEC
  0
SECTION
  2
ENTITIES
  0
ARC
  5
9F
100
AcDbEntity
  8
catbox_top
 62
256
370
-1
  6
ByLayer
100
AcDbCircle
 10
0.0
 20
0.0
 30
0.0
 40
60.0
100
AcDbArc
 50
29.9999999999999929
 51
60.0000000000000497
  0
LINE
  5
A0
100
AcDbEntity
100
AcDbLine
  8
catbox_top
 62
256
370
-1
  6
ByLayer
 10
51.9615242270663202
 20
30.0
 30
0.0
 11
248.0384757729335945
 21
30.0
 31
0.0
  0
ARC
  5
A1
100
AcDbEntity
  8
catbox_top
 62
256
370
-1
  6
ByLayer
100
AcDbCircle
 10
300.0
 20
0.0
 30
0.0
 40
60.0
100
AcDbArc
 50
120.0000000000000142
 51
150.0000000000000284
  0
LINE
  5
A2
100
AcDbEntity
100
AcDbLine
  8
catbox_top
 62
256
370
-1
  6
ByLayer
 10
270.0
 20
51.9615242270663202
 30
0.0
 11
270.0
 21
248.0384757729335945
 31
0.0
  0
ARC
  5
A3
100
AcDbEntity
  8
catbox_top
 62
256
370
-1
  6
ByLayer
100
AcDbCircle
 10
300.0
 20
300.0
 30
0.0
 40
60.0
100
AcDbArc
 50
210.0
 51
240.0000000000000284
  0
LINE
  5
A4
100
AcDbEntity
100
AcDbLine
  8
catbox_top
 62
256
370
-1
  6
ByLayer
 10
248.0384757729336798
 20
270.0
 30
0.0
 11
51.9615242270663487
 21
270.0
 31
0.0
  0
ARC
  5
A5
100
AcDbEntity
  8
catbox_top
 62
256
370
-1
  6
ByLayer
100
AcDbCircle
 10
0.0
 20
300.0
 30
0.0
 40
60.0
100
AcDbArc
 50
299.9999999999999432
 51
330.0000000000000568
  0
LINE
  5
A6
100
AcDbEntity
100
AcDbLine
  8
catbox_top
 62
256
370
-1
  6
ByLayer
 10
30.0
 20
248.0384757729336798
 30
0.0
 11
30.0
 21
51.9615242270664055
 31
0.0
  0
LINE
  5
A7
100
AcDbEntity
100
AcDbLine
  8
catbox_top
 62
256
370
-1
  6
ByLayer
 10
0.0
 20
0.0
 30
0.0
 11
300.0
 21
0.0
 31
0.0
  0
LINE
  5
A8
100
AcDbEntity
100
AcDbLine
  8
catbox_top
 62
256
370
-1
  6
ByLayer
 10
300.0
 20
0.0
 30
0.0
 11
300.0
 21
300.0
 31
0.0
  0
LINE
  5
A9
100
AcDbEntity
100
AcDbLine
  8
catbox_top
 62
256
370
-1
  6
ByLayer
 10
300.0
 20
300.0
 30
0.0
 11
0.0
 21
300.0
 31
0.0
  0
LINE
  5
AA
100
AcDbEntity
100
AcDbLine
  8
catbox_top
 62
256
370
-1
  6
ByLayer
 10
0.0
 20
300.0
 30
0.0
 11
0.0
 21
0.0
 31
0.0
  0
LINE
  5
AB
100
AcDbEntity
100
AcDbLine
  8
catbox_top_guides
 62
256
370
-1
  6
ByLayer
 10
0.0000000000000004
 20
6.0
 30
0.0
 11
300.0
 21
6.0
 31
0.0
  0
LINE
  5
AC
100
AcDbEntity
100
AcDbLine
  8
catbox_top_guides
 62
256
370
-1
  6
ByLayer
 10
150.0
 20
300.0
 30
0.0
 11
150.0
 21
0.0
 31
0.0
  0
LINE
  5
AD
100
AcDbEntity
100
AcDbLine
  8
catbox_top_guides
 62
256
370
-1
  6
ByLayer
 10
119.9000000000000057
 20
300.0
 30
0.0
 11
119.9000000000000057
 21
0.0000000000000111
 31
0.0
  0
LINE
  5
AE
100
AcDbEntity
100
AcDbLine
  8
catbox_top_guides
 62
256
370
-1
  6
ByLayer
 10
50.0
 20
300.0000000000000568
 30
0.0
 11
50.0
 21
0.0000000000000367
 31
0.0
  0
LINE
  5
AF
100
AcDbEntity
100
AcDbLine
  8
catbox_top
 62
256
370
-1
  6
ByLayer
 10
119.9000000000000057
 20
8.875
 30
0.0
 11
140.0999999999999943
 21
8.875
 31
0.0
  0
LINE
  5
B0
100
AcDbEntity
100
AcDbLine
  8
catbox_top
 62
256
370
-1
  6
ByLayer
 10
140.0999999999999943
 20
8.875
 30
0.0
 11
140.0999999999999943
 21
6.0
 31
0.0
  0
LINE
  5
B1
100
AcDbEntity
100
AcDbLine
  8
catbox_top
 62
256
370
-1
  6
ByLayer
 10
140.0999999999999943
 20
6.0
 30
0.0
 11
119.9000000000000057
 21
6.0
 31
0.0
  0
LINE
  5
B2
100
AcDbEntity
100
AcDbLine
  8
catbox_top
 62
256
370
-1
  6
ByLayer
 10
119.9000000000000057
 20
6.0
 30
0.0
 11
119.9000000000000057
 21
8.875
 31
0.0
  0
LINE
  5
B3
100
AcDbEntity
100
AcDbLine
  8
catbox_top
 62
256
370
-1
  6
ByLayer
 10
159.9000000000000057
 20
8.875
 30
0.0
 11
180.0999999999999943
 21
8.875
 31
0.0
  0
LINE
  5
B4
100
AcDbEntity
100
AcDbLine
  8
catbox_top
 62
256
370
-1
  6
ByLayer
 10
180.0999999999999943
 20
8.875
 30
0.0
 11
180.0999999999999943
 21
6.0
 31
0.0
  0
LINE
  5
B5
100
AcDbEntity
100
AcDbLine
  8
catbox_top
 62
256
370
-1
  6
ByLayer
 10
180.0999999999999943
 20
6.0
 30
0.0
 11
159.9000000000000057
 21
6.0
 31
0.0
  0
LINE
  5
B6
100
AcDbEntity
100
AcDbLine
  8
catbox_top
 62
256
370
-1
  6
ByLayer
 10
159.9000000000000057
 20
6.0
 30
0.0
 11
159.9000000000000057
 21
8.875
 31
0.0
  0
CIRCLE
  5
B7
100
AcDbEntity
100
AcDbCircle
  8
catbox_top
 62
256
370
-1
  6
ByLayer
 10
150.0
 20
7.5324999999999989
 30
0.0
 40
1.8999999999999999
  0
LINE
  5
B8
100
AcDbEntity
100
AcDbLine
  8
catbox_top_guides
 62
256
370
-1
  6
ByLayer
 10
30.0
 20
300.0
 30
0.0
 11
30.0
 21
-0.0000000000000073
 31
0.0
  0
LINE
  5
B9
100
AcDbEntity
100
AcDbLine
  8
catbox_top_guides
 62
256
370
-1
  6
ByLayer
 10
270.0
 20
0.0000000000000037
 30
0.0
 11
270.0
 21
300.0
 31
0.0
  0
LINE
  5
BA
100
AcDbEntity
100
AcDbLine
  8
catbox_top
 62
256
370
-1
  6
ByLayer
 10
30.0
 20
8.8750000000000053
 30
0.0
 11
50.1999999999999886
 21
8.8750000000000053
 31
0.0
  0
LINE
  5
BB
100
AcDbEntity
100
AcDbLine
  8
catbox_top
 62
256
370
-1
  6
ByLayer
 10
50.1999999999999886
 20
8.8750000000000053
 30
0.0
 11
50.1999999999999886
 21
6.0000000000000053
 31
0.0
  0
LINE
  5
BC
100
AcDbEntity
100
AcDbLine
  8
catbox_top
 62
256
370
-1
  6
ByLayer
 10
50.1999999999999886
 20
6.0000000000000053
 30
0.0
 11
30.0
 21
6.0000000000000053
 31
0.0
  0
LINE
  5
BD
100
AcDbEntity
100
AcDbLine
  8
catbox_top
 62
256
370
-1
  6
ByLayer
 10
30.0
 20
6.0000000000000053
 30
0.0
 11
30.0
 21
8.8750000000000053
 31
0.0
  0
LINE
  5
BE
100
AcDbEntity
100
AcDbLine
  8
catbox_top
 62
256
370
-1
  6
ByLayer
 10
70.0
 20
8.8750000000000053
 30
0.0
 11
90.1999999999999886
 21
8.8750000000000053
 31
0.0
  0
LINE
  5
BF
100
AcDbEntity
100
AcDbLine
  8
catbox_top
 62
256
370
-1
  6
ByLayer
 10
90.1999999999999886
 20
8.8750000000000053
 30
0.0
 11
90.1999999999999886
 21
6.0000000000000053
 31
0.0
  0
LINE
  5
C0
100
AcDbEntity
100
AcDbLine
  8
catbox_top
 62
256
370
-1
  6
ByLayer
 10
90.1999999999999886
 20
6.0000000000000053
 30
0.0
 11
70.0
 21
6.0000000000000053
 31
0.0
  0
LINE
  5
C1
100
AcDbEntity
100
AcDbLine
  8
catbox_top
 62
256
370
-1
  6
ByLayer
 10
70.0
 20
6.0000000000000053
 30
0.0
 11
70.0
 21
8.8750000000000053
 31
0.0
  0
CIRCLE
  5
C2
100
AcDbEntity
100
AcDbCircle
  8
catbox_top
 62
256
370
-1
  6
ByLayer
 10
60.0999999999999943
 20
7.5325000000000042
 30
0.0
 40
1.8999999999999999
  0
LINE
  5
C3
100
AcDbEntity
100
AcDbLine
  8
catbox_top
 62
256
370
-1
  6
ByLayer
 10
209.8000000000000114
 20
8.8750000000000053
 30
0.0
 11
230.0
 21
8.8750000000000053
 31
0.0
  0
LINE
  5
C4
100
AcDbEntity
100
AcDbLine
  8
catbox_top
 62
256
370
-1
  6
ByLayer
 10
230.0
 20
8.8750000000000053
 30
0.0
 11
230.0
 21
6.0000000000000053
 31
0.0
  0
LINE
  5
C5
100
AcDbEntity
100
AcDbLine
  8
catbox_top
 62
256
370
-1
  6
ByLayer
 10
230.0
 20
6.0000000000000053
 30
0.0
 11
209.8000000000000114
 21
6.0000000000000053
 31
0.0
  0
LINE
  5
C6
100
AcDbEntity
100
AcDbLine
  8
catbox_top
 62
256
370
-1
  6
ByLayer
 10
209.8000000000000114
 20
6.0000000000000053
 30
0.0
 11
209.8000000000000114
 21
8.8750000000000053
 31
0.0
  0
LINE
  5
C7
100
AcDbEntity
100
AcDbLine
  8
catbox_top
 62
256
370
-1
  6
ByLayer
 10
249.8000000000000114
 20
8.8750000000000053
 30
0.0
 11
270.0
 21
8.8750000000000053
 31
0.0
  0
LINE
  5
C8
100
AcDbEntity
100
AcDbLine
  8
catbox_top
 62
256
370
-1
  6
ByLayer
 10
270.0
 20
8.8750000000000053
 30
0.0
 11
270.0
 21
6.0000000000000053
 31
0.0
  0
LINE
  5
C9
100
AcDbEntity
100
AcDbLine
  8
catbox_top
 62
256
370
-1
  6
ByLayer
 10
270.0
 20
6.0000000000000053
 30
0.0
 11
249.8000000000000114
 21
6.0000000000000053
 31
0.0
  0
LINE
  5
CA
100
AcDbEntity
100
AcDbLine
  8
catbox_top
 62
256
370
-1
  6
ByLayer
 10
249.8000000000000114
 20
6.0000000000000053
 30
0.0
 11
249.8000000000000114
 21
8.8750000000000053
 31
0.0
  0
CIRCLE
  5
CB
100
AcDbEntity
100
AcDbCircle
  8
catbox_top
 62
256
370
-1
  6
ByLayer
 10
239.9000000000000057
 20
7.5325000000000042
 30
0.0
 40
1.8999999999999999
  0
LINE
  5
CC
100
AcDbEntity
100
AcDbLine
  8
catbox_top
 62
256
370
-1
  6
ByLayer
 10
180.0999999999999943
 20
291.1249999999997726
 30
0.0
 11
159.9000000000000057
 21
291.125
 31
0.0
  0
LINE
  5
CD
100
AcDbEntity
100
AcDbLine
  8
catbox_top
 62
256
370
-1
  6
ByLayer
 10
159.9000000000000057
 20
291.125
 30
0.0
 11
159.9000000000000057
 21
294.0000000000003411
 31
0.0
  0
LINE
  5
CE
100
AcDbEntity
100
AcDbLine
  8
catbox_top
 62
256
370
-1
  6
ByLayer
 10
159.9000000000000057
 20
294.0000000000003411
 30
0.0
 11
180.0999999999999943
 21
294.0
 31
0.0
  0
LINE
  5
CF
100
AcDbEntity
100
AcDbLine
  8
catbox_top
 62
256
370
-1
  6
ByLayer
 10
180.0999999999999943
 20
294.0
 30
0.0
 11
180.0999999999999943
 21
291.1249999999997726
 31
0.0
  0
LINE
  5
D0
100
AcDbEntity
100
AcDbLine
  8
catbox_top
 62
256
370
-1
  6
ByLayer
 10
140.0999999999999943
 20
291.1250000000001705
 30
0.0
 11
119.9000000000000057
 21
291.1250000000001137
 31
0.0
  0
LINE
  5
D1
100
AcDbEntity
100
AcDbLine
  8
catbox_top
 62
256
370
-1
  6
ByLayer
 10
119.9000000000000057
 20
291.1250000000001137
 30
0.0
 11
119.9000000000000057
 21
293.9999999999995453
 31
0.0
  0
LINE
  5
D2
100
AcDbEntity
100
AcDbLine
  8
catbox_top
 62
256
370
-1
  6
ByLayer
 10
119.9000000000000057
 20
293.9999999999995453
 30
0.0
 11
140.0999999999999943
 21
293.9999999999998295
 31
0.0
  0
LINE
  5
D3
100
AcDbEntity
100
AcDbLine
  8
catbox_top
 62
256
370
-1
  6
ByLayer
 10
140.0999999999999943
 20
293.9999999999998295
 30
0.0
 11
140.0999999999999943
 21
291.1250000000001705
 31
0.0
  0
CIRCLE
  5
D4
100
AcDbEntity
100
AcDbCircle
  8
catbox_top
 62
256
370
-1
  6
ByLayer
 10
150.0
 20
292.4675000000002569
 30
0.0
 40
1.8999999999999999
  0
LINE
  5
D5
100
AcDbEntity
100
AcDbLine
  8
catbox_top
 62
256
370
-1
  6
ByLayer
 10
270.0
 20
291.1249999999998295
 30
0.0
 11
249.8000000000000114
 21
291.1249999999998295
 31
0.0
  0
LINE
  5
D6
100
AcDbEntity
100
AcDbLine
  8
catbox_top
 62
256
370
-1
  6
ByLayer
 10
249.8000000000000114
 20
291.1249999999998295
 30
0.0
 11
249.8000000000000114
 21
294.0
 31
0.0
  0
LINE
  5
D7
100
AcDbEntity
100
AcDbLine
  8
catbox_top
 62
256
370
-1
  6
ByLayer
 10
249.8000000000000114
 20
294.0
 30
0.0
 11
270.0
 21
293.9999999999998863
 31
0.0
  0
LINE
  5
D8
100
AcDbEntity
100
AcDbLine
  8
catbox_top
 62
256
370
-1
  6
ByLayer
 10
270.0
 20
293.9999999999998863
 30
0.0
 11
270.0
 21
291.1249999999998295
 31
0.0
  0
LINE
  5
D9
100
AcDbEntity
100
AcDbLine
  8
catbox_top
 62
256
370
-1
  6
ByLayer
 10
230.0
 20
291.1249999999998863
 30
0.0
 11
209.8000000000000114
 21
291.125
 31
0.0
  0
LINE
  5
DA
100
AcDbEntity
100
AcDbLine
  8
catbox_top
 62
256
370
-1
  6
ByLayer
 10
209.8000000000000114
 20
291.125
 30
0.0
 11
209.8000000000000114
 21
293.9999999999999432
 31
0.0
  0
LINE
  5
DB
100
AcDbEntity
100
AcDbLine
  8
catbox_top
 62
256
370
-1
  6
ByLayer
 10
209.8000000000000114
 20
293.9999999999999432
 30
0.0
 11
230.0
 21
293.9999999999998863
 31
0.0
  0
LINE
  5
DC
100
AcDbEntity
100
AcDbLine
  8
catbox_top
 62
256
370
-1
  6
ByLayer
 10
230.0
 20
293.9999999999998863
 30
0.0
 11
230.0
 21
291.1249999999998863
 31
0.0
  0
CIRCLE
  5
DD
100
AcDbEntity
100
AcDbCircle
  8
catbox_top
 62
256
370
-1
  6
ByLayer
 10
239.9000000000000057
 20
292.4674999999999727
 30
0.0
 40
1.8999999999999999
  0
LINE
  5
DE
100
AcDbEntity
100
AcDbLine
  8
catbox_top
 62
256
370
-1
  6
ByLayer
 10
90.1999999999999886
 20
291.1249999999999432
 30
0.0
 11
70.0
 21
291.125
 31
0.0
  0
LINE
  5
DF
100
AcDbEntity
100
AcDbLine
  8
catbox_top
 62
256
370
-1
  6
ByLayer
 10
70.0
 20
291.125
 30
0.0
 11
70.0
 21
293.9999999999994884
 31
0.0
  0
LINE
  5
E0
100
AcDbEntity
100
AcDbLine
  8
catbox_top
 62
256
370
-1
  6
ByLayer
 10
70.0
 20
293.9999999999994884
 30
0.0
 11
90.1999999999999886
 21
293.9999999999993179
 31
0.0
  0
LINE
  5
E1
100
AcDbEntity
100
AcDbLine
  8
catbox_top
 62
256
370
-1
  6
ByLayer
 10
90.1999999999999886
 20
293.9999999999993179
 30
0.0
 11
90.1999999999999886
 21
291.1249999999999432
 31
0.0
  0
LINE
  5
E2
100
AcDbEntity
100
AcDbLine
  8
catbox_top
 62
256
370
-1
  6
ByLayer
 10
50.1999999999999815
 20
291.1249999999991473
 30
0.0
 11
29.9999999999999964
 21
291.1249999999994884
 31
0.0
  0
LINE
  5
E3
100
AcDbEntity
100
AcDbLine
  8
catbox_top
 62
256
370
-1
  6
ByLayer
 10
29.9999999999999964
 20
291.1249999999994884
 30
0.0
 11
29.9999999999999964
 21
294.0000000000015348
 31
0.0
  0
LINE
  5
E4
100
AcDbEntity
100
AcDbLine
  8
catbox_top
 62
256
370
-1
  6
ByLayer
 10
29.9999999999999964
 20
294.0000000000015348
 30
0.0
 11
50.1999999999999886
 21
294.0000000000003411
 31
0.0
  0
LINE
  5
E5
100
AcDbEntity
100
AcDbLine
  8
catbox_top
 62
256
370
-1
  6
ByLayer
 10
50.1999999999999886
 20
294.0000000000003411
 30
0.0
 11
50.1999999999999815
 21
291.1249999999991473
 31
0.0
  0
CIRCLE
  5
E6
100
AcDbEntity
100
AcDbCircle
  8
catbox_top
 62
256
370
-1
  6
ByLayer
 10
60.0999999999999943
 20
292.4674999999999159
 30
0.0
 40
1.8999999999999999
  0
LINE
  5
E7
100
AcDbEntity
100
AcDbLine
  8
catbox_top
 62
256
370
-1
  6
ByLayer
 10
8.8750000000001528
 20
119.9000000000000057
 30
0.0
 11
8.8749999999999236
 21
140.0999999999999943
 31
0.0
  0
LINE
  5
E8
100
AcDbEntity
100
AcDbLine
  8
catbox_top
 62
256
370
-1
  6
ByLayer
 10
8.8749999999999236
 20
140.0999999999999943
 30
0.0
 11
5.9999999999996065
 21
140.0999999999999943
 31
0.0
  0
LINE
  5
E9
100
AcDbEntity
100
AcDbLine
  8
catbox_top
 62
256
370
-1
  6
ByLayer
 10
5.9999999999996065
 20
140.0999999999999943
 30
0.0
 11
5.9999999999999165
 21
119.9000000000000057
 31
0.0
  0
LINE
  5
EA
100
AcDbEntity
100
AcDbLine
  8
catbox_top
 62
256
370
-1
  6
ByLayer
 10
5.9999999999999165
 20
119.9000000000000057
 30
0.0
 11
8.8750000000001528
 21
119.9000000000000057
 31
0.0
  0
LINE
  5
EB
100
AcDbEntity
100
AcDbLine
  8
catbox_top
 62
256
370
-1
  6
ByLayer
 10
8.8749999999997904
 20
159.9000000000000057
 30
0.0
 11
8.8749999999998508
 21
180.0999999999999943
 31
0.0
  0
LINE
  5
EC
100
AcDbEntity
100
AcDbLine
  8
catbox_top
 62
256
370
-1
  6
ByLayer
 10
8.8749999999998508
 20
180.0999999999999943
 30
0.0
 11
6.0000000000004201
 21
180.0999999999999943
 31
0.0
  0
LINE
  5
ED
100
AcDbEntity
100
AcDbLine
  8
catbox_top
 62
256
370
-1
  6
ByLayer
 10
6.0000000000004201
 20
180.0999999999999943
 30
0.0
 11
6.0000000000001261
 21
159.9000000000000057
 31
0.0
  0
LINE
  5
EE
100
AcDbEntity
100
AcDbLine
  8
catbox_top
 62
256
370
-1
  6
ByLayer
 10
6.0000000000001261
 20
159.9000000000000057
 30
0.0
 11
8.8749999999997904
 21
159.9000000000000057
 31
0.0
  0
CIRCLE
  5
EF
100
AcDbEntity
100
AcDbCircle
  8
catbox_top
 62
256
370
-1
  6
ByLayer
 10
7.5324999999996507
 20
150.0
 30
0.0
 40
1.8999999999999999
  0
LINE
  5
F0
100
AcDbEntity
100
AcDbLine
  8
catbox_top
 62
256
370
-1
  6
ByLayer
 10
8.8750000000000391
 20
30.0
 30
0.0
 11
8.8750000000000853
 21
50.1999999999999602
 31
0.0
  0
LINE
  5
F1
100
AcDbEntity
100
AcDbLine
  8
catbox_top
 62
256
370
-1
  6
ByLayer
 10
8.8750000000000853
 20
50.1999999999999602
 30
0.0
 11
5.9999999999998765
 21
50.1999999999999886
 31
0.0
  0
LINE
  5
F2
100
AcDbEntity
100
AcDbLine
  8
catbox_top
 62
256
370
-1
  6
ByLayer
 10
5.9999999999998765
 20
50.1999999999999886
 30
0.0
 11
6.0000000000000115
 21
30.0
 31
0.0
  0
LINE
  5
F3
100
AcDbEntity
100
AcDbLine
  8
catbox_top
 62
256
370
-1
  6
ByLayer
 10
6.0000000000000115
 20
30.0
 30
0.0
 11
8.8750000000000391
 21
30.0
 31
0.0
  0
LINE
  5
F4
100
AcDbEntity
100
AcDbLine
  8
catbox_top
 62
256
370
-1
  6
ByLayer
 10
8.8750000000000355
 20
70.0
 30
0.0
 11
8.8749999999999307
 21
90.1999999999999886
 31
0.0
  0
LINE
  5
F5
100
AcDbEntity
100
AcDbLine
  8
catbox_top
 62
256
370
-1
  6
ByLayer
 10
8.8749999999999307
 20
90.1999999999999886
 30
0.0
 11
5.9999999999999716
 21
90.1999999999999602
 31
0.0
  0
LINE
  5
F6
100
AcDbEntity
100
AcDbLine
  8
catbox_top
 62
256
370
-1
  6
ByLayer
 10
5.9999999999999716
 20
90.1999999999999602
 30
0.0
 11
6.0000000000000391
 21
70.0
 31
0.0
  0
LINE
  5
F7
100
AcDbEntity
100
AcDbLine
  8
catbox_top
 62
256
370
-1
  6
ByLayer
 10
6.0000000000000391
 20
70.0
 30
0.0
 11
8.8750000000000355
 21
70.0
 31
0.0
  0
CIRCLE
  5
F8
100
AcDbEntity
100
AcDbCircle
  8
catbox_top
 62
256
370
-1
  6
ByLayer
 10
7.5324999999999473
 20
60.0999999999999943
 30
0.0
 40
1.8999999999999999
  0
LINE
  5
F9
100
AcDbEntity
100
AcDbLine
  8
catbox_top
 62
256
370
-1
  6
ByLayer
 10
8.8750000000000178
 20
209.8000000000000114
 30
0.0
 11
8.8749999999999876
 21
230.0
 31
0.0
  0
LINE
  5
FA
100
AcDbEntity
100
AcDbLine
  8
catbox_top
 62
256
370
-1
  6
ByLayer
 10
8.8749999999999876
 20
230.0
 30
0.0
 11
6.0000000000005
 21
230.0
 31
0.0
  0
LINE
  5
FB
100
AcDbEntity
100
AcDbLine
  8
catbox_top
 62
256
370
-1
  6
ByLayer
 10
6.0000000000005
 20
230.0
 30
0.0
 11
6.0000000000006217
 21
209.8000000000000114
 31
0.0
  0
LINE
  5
FC
100
AcDbEntity
100
AcDbLine
  8
catbox_top
 62
256
370
-1
  6
ByLayer
 10
6.0000000000006217
 20
209.8000000000000114
 30
0.0
 11
8.8750000000000178
 21
209.8000000000000114
 31
0.0
  0
LINE
  5
FD
100
AcDbEntity
100
AcDbLine
  8
catbox_top
 62
256
370
-1
  6
ByLayer
 10
8.8750000000008562
 20
249.8000000000000114
 30
0.0
 11
8.8750000000004903
 21
270.0
 31
0.0
  0
LINE
  5
FE
100
AcDbEntity
100
AcDbLine
  8
catbox_top
 62
256
370
-1
  6
ByLayer
 10
8.8750000000004903
 20
270.0
 30
0.0
 11
5.9999999999984324
 21
270.0
 31
0.0
  0
LINE
  5
FF
100
AcDbEntity
100
AcDbLine
  8
catbox_top
 62
256
370
-1
  6
ByLayer
 10
5.9999999999984324
 20
270.0
 30
0.0
 11
5.9999999999996216
 21
249.8000000000000114
 31
0.0
  0
LINE
  5
100
100
AcDbEntity
100
AcDbLine
  8
catbox_top
 62
256
370
-1
  6
ByLayer
 10
5.9999999999996216
 20
249.8000000000000114
 30
0.0
 11
8.8750000000008562
 21
249.8000000000000114
 31
0.0
  0
CIRCLE
  5
101
100
AcDbEntity
100
AcDbCircle
  8
catbox_top
 62
256
370
-1
  6
ByLayer
 10
7.5325000000000859
 20
239.9000000000000057
 30
0.0
 40
1.8999999999999999
  0
LINE
  5
102
100
AcDbEntity
100
AcDbLine
  8
catbox_top
 62
256
370
-1
  6
ByLayer
 10
291.1250000000001137
 20
180.0999999999999943
 30
0.0
 11
291.1250000000002842
 21
159.9000000000000057
 31
0.0
  0
LINE
  5
103
100
AcDbEntity
100
AcDbLine
  8
catbox_top
 62
256
370
-1
  6
ByLayer
 10
291.1250000000002842
 20
159.9000000000000057
 30
0.0
 11
293.9999999999998295
 21
159.9000000000000057
 31
0.0
  0
LINE
  5
104
100
AcDbEntity
100
AcDbLine
  8
catbox_top
 62
256
370
-1
  6
ByLayer
 10
293.9999999999998295
 20
159.9000000000000057
 30
0.0
 11
293.9999999999995453
 21
180.0999999999999943
 31
0.0
  0
LINE
  5
105
100
AcDbEntity
100
AcDbLine
  8
catbox_top
 62
256
370
-1
  6
ByLayer
 10
293.9999999999995453
 20
180.0999999999999943
 30
0.0
 11
291.1250000000001137
 21
180.0999999999999943
 31
0.0
  0
LINE
  5
106
100
AcDbEntity
100
AcDbLine
  8
catbox_top
 62
256
370
-1
  6
ByLayer
 10
291.1250000000001137
 20
140.0999999999999943
 30
0.0
 11
291.1249999999998295
 21
119.9000000000000057
 31
0.0
  0
LINE
  5
107
100
AcDbEntity
100
AcDbLine
  8
catbox_top
 62
256
370
-1
  6
ByLayer
 10
291.1249999999998295
 20
119.9000000000000057
 30
0.0
 11
294.0000000000001705
 21
119.9000000000000057
 31
0.0
  0
LINE
  5
108
100
AcDbEntity
100
AcDbLine
  8
catbox_top
 62
256
370
-1
  6
ByLayer
 10
294.0000000000001705
 20
119.9000000000000057
 30
0.0
 11
294.0000000000003979
 21
140.0999999999999943
 31
0.0
  0
LINE
  5
109
100
AcDbEntity
100
AcDbLine
  8
catbox_top
 62
256
370
-1
  6
ByLayer
 10
294.0000000000003979
 20
140.0999999999999943
 30
0.0
 11
291.1250000000001137
 21
140.0999999999999943
 31
0.0
  0
CIRCLE
  5
10A
100
AcDbEntity
100
AcDbCircle
  8
catbox_top
 62
256
370
-1
  6
ByLayer
 10
292.4675000000003138
 20
150.0
 30
0.0
 40
1.8999999999999999
  0
LINE
  5
10B
100
AcDbEntity
100
AcDbLine
  8
catbox_top
 62
256
370
-1
  6
ByLayer
 10
291.1249999999996021
 20
270.0
 30
0.0
 11
291.1249999999992042
 21
249.8000000000000114
 31
0.0
  0
LINE
  5
10C
100
AcDbEntity
100
AcDbLine
  8
catbox_top
 62
256
370
-1
  6
ByLayer
 10
291.1249999999992042
 20
249.8000000000000114
 30
0.0
 11
294.0000000000004547
 21
249.8000000000000114
 31
0.0
  0
LINE
  5
10D
100
AcDbEntity
100
AcDbLine
  8
catbox_top
 62
256
370
-1
  6
ByLayer
 10
294.0000000000004547
 20
249.8000000000000114
 30
0.0
 11
294.0000000000015916
 21
270.0
 31
0.0
  0
LINE
  5
10E
100
AcDbEntity
100
AcDbLine
  8
catbox_top
 62
256
370
-1
  6
ByLayer
 10
294.0000000000015916
 20
270.0
 30
0.0
 11
291.1249999999996021
 21
270.0
 31
0.0
  0
LINE
  5
10F
100
AcDbEntity
100
AcDbLine
  8
catbox_top
 62
256
370
-1
  6
ByLayer
 10
291.1250000000000568
 20
230.0
 30
0.0
 11
291.1250000000000568
 21
209.8000000000000114
 31
0.0
  0
LINE
  5
110
100
AcDbEntity
100
AcDbLine
  8
catbox_top
 62
256
370
-1
  6
ByLayer
 10
291.1250000000000568
 20
209.8000000000000114
 30
0.0
 11
293.9999999999994884
 21
209.8000000000000398
 31
0.0
  0
LINE
  5
111
100
AcDbEntity
100
AcDbLine
  8
catbox_top
 62
256
370
-1
  6
ByLayer
 10
293.9999999999994884
 20
209.8000000000000398
 30
0.0
 11
293.9999999999995453
 21
230.0
 31
0.0
  0
LINE
  5
112
100
AcDbEntity
100
AcDbLine
  8
catbox_top
 62
256
370
-1
  6
ByLayer
 10
293.9999999999995453
 20
230.0
 30
0.0
 11
291.1250000000000568
 21
230.0
 31
0.0
  0
CIRCLE
  5
113
100
AcDbEntity
100
AcDbCircle
  8
catbox_top
 62
256
370
-1
  6
ByLayer
 10
292.4674999999999159
 20
239.9000000000000057
 30
0.0
 40
1.8999999999999999
  0
LINE
  5
114
100
AcDbEntity
100
AcDbLine
  8
catbox_top
 62
256
370
-1
  6
ByLayer
 10
291.1249999999999432
 20
90.1999999999999886
 30
0.0
 11
291.125
 21
70.0
 31
0.0
  0
LINE
  5
115
100
AcDbEntity
100
AcDbLine
  8
catbox_top
 62
256
370
-1
  6
ByLayer
 10
291.125
 20
70.0
 30
0.0
 11
294.0
 21
70.0
 31
0.0
  0
LINE
  5
116
100
AcDbEntity
100
AcDbLine
  8
catbox_top
 62
256
370
-1
  6
ByLayer
 10
294.0
 20
70.0
 30
0.0
 11
293.9999999999999432
 21
90.1999999999999886
 31
0.0
  0
LINE
  5
117
100
AcDbEntity
100
AcDbLine
  8
catbox_top
 62
256
370
-1
  6
ByLayer
 10
293.9999999999999432
 20
90.1999999999999886
 30
0.0
 11
291.1249999999999432
 21
90.1999999999999886
 31
0.0
  0
LINE
  5
118
100
AcDbEntity
100
AcDbLine
  8
catbox_top
 62
256
370
-1
  6
ByLayer
 10
291.1249999999999432
 20
50.1999999999999957
 30
0.0
 11
291.125
 21
30.0000000000000036
 31
0.0
  0
LINE
  5
119
100
AcDbEntity
100
AcDbLine
  8
catbox_top
 62
256
370
-1
  6
ByLayer
 10
291.125
 20
30.0000000000000036
 30
0.0
 11
294.0
 21
30.0000000000000036
 31
0.0
  0
LINE
  5
11A
100
AcDbEntity
100
AcDbLine
  8
catbox_top
 62
256
370
-1
  6
ByLayer
 10
294.0
 20
30.0000000000000036
 30
0.0
 11
294.0
 21
50.1999999999999886
 31
0.0
  0
LINE
  5
11B
100
AcDbEntity
100
AcDbLine
  8
catbox_top
 62
256
370
-1
  6
ByLayer
 10
294.0
 20
50.1999999999999886
 30
0.0
 11
291.1249999999999432
 21
50.1999999999999957
 31
0.0
  0
CIRCLE
  5
11C
100
AcDbEntity
100
AcDbCircle
  8
catbox_top
 62
256
370
-1
  6
ByLayer
 10
292.4674999999999727
 20
60.0999999999999943
 30
0.0
 40
1.8999999999999999
  0
LINE
  5
11D
100
AcDbEntity
100
AcDbLine
  8
catbox_rear_guides
 62
256
370
-1
  6
ByLayer
 10
0.0
 20
-20.0
 30
0.0
 11
300.0
 21
-20.0
 31
0.0
  0
INSERT
  5
11E
100
AcDbEntity
100
AcDbBlockReference
  8
catbox_rear
 62
256
370
-1
  6
ByLayer
  2
tabs
 10
60.0999999999999943
 20
-20.0000000000000036
 30
0.0
 44
1.0
 45
1.0
  0
INSERT
  5
11F
100
AcDbEntity
100
AcDbBlockReference
  8
catbox_rear
 62
256
370
-1
  6
ByLayer
  2
tabs
 10
150.0
 20
-20.0
 30
0.0
 44
1.0
 45
1.0
  0
INSERT
  5
120
100
AcDbEntity
100
AcDbBlockReference
  8
catbox_rear
 62
256
370
-1
  6
ByLayer
  2
tabs
 10
239.9000000000000341
 20
-20.0
 30
0.0
 44
1.0
 45
1.0
  0
LINE
  5
121
100
AcDbEntity
100
AcDbLine
  8
catbox_rear_guides
 62
256
370
-1
  6
ByLayer
 10
-10.0
 20
-80.0
 30
0.0
 11
-10.0
 21
-80.0
 31
0.0
  0
INSERT
  5
122
100
AcDbEntity
100
AcDbBlockReference
  8
catbox_rear
 62
256
370
-1
  6
ByLayer
  2
short_tab
 10
7.4375000000001235
 20
-40.0
 30
0.0
 50
90.0
 44
1.0
 45
1.0
  0
INSERT
  5
123
100
AcDbEntity
100
AcDbBlockReference
  8
catbox_rear
 62
256
370
-1
  6
ByLayer
  2
short_tab
 10
292.5624999999998863
 20
-40.0
 30
0.0
 50
270.0
 44
1.0
 45
1.0
  0
LINE
  5
124
100
AcDbEntity
100
AcDbLine
  8
catbox_rear_guides
 62
256
370
-1
  6
ByLayer
 10
0.0
 20
-120.0
 30
0.0
 11
300.0
 21
-120.0
 31
0.0
  0
LINE
  5
125
100
AcDbEntity
100
AcDbLine
  8
catbox_rear_guides
 62
256
370
-1
  6
ByLayer
 10
0.0
 20
0.0
 30
0.0
 11
-0.0000000000000073
 21
-120.0
 31
0.0
  0
LINE
  5
126
100
AcDbEntity
100
AcDbLine
  8
catbox_rear_guides
 62
256
370
-1
  6
ByLayer
 10
60.0999999999999943
 20
7.5325000000000042
 30
0.0
 11
60.0999999999999872
 21
-120.0
 31
0.0
  0
LINE
  5
127
100
AcDbEntity
100
AcDbLine
  8
catbox_rear_guides
 62
256
370
-1
  6
ByLayer
 10
150.0
 20
7.5324999999999989
 30
0.0
 11
150.0
 21
-120.0
 31
0.0
  0
LINE
  5
128
100
AcDbEntity
100
AcDbLine
  8
catbox_rear_guides
 62
256
370
-1
  6
ByLayer
 10
239.9000000000000057
 20
7.5325000000000042
 30
0.0
 11
239.9000000000000057
 21
-120.0
 31
0.0
  0
LINE
  5
129
100
AcDbEntity
100
AcDbLine
  8
catbox_rear_guides
 62
256
370
-1
  6
ByLayer
 10
7.4375000000000844
 20
-20.0000000000000213
 30
0.0
 11
7.4375000000002833
 21
-120.0
 31
0.0
  0
LINE
  5
12A
100
AcDbEntity
100
AcDbLine
  8
catbox_rear_guides
 62
256
370
-1
  6
ByLayer
 10
5.9999999999993028
 20
-19.9999999999999964
 30
0.0
 11
5.9999999999984848
 21
-119.9999999999999716
 31
0.0
  0
LINE
  5
12B
100
AcDbEntity
100
AcDbLine
  8
catbox_rear_guides
 62
256
370
-1
  6
ByLayer
 10
294.0
 20
-19.9999999999999893
 30
0.0
 11
294.0
 21
-120.0000000000000142
 31
0.0
  0
LINE
  5
12C
100
AcDbEntity
100
AcDbLine
  8
catbox_rear_guides
 62
256
370
-1
  6
ByLayer
 10
292.5624999999999432
 20
-20.0000000000000213
 30
0.0
 11
292.5624999999997726
 21
-120.0
 31
0.0
  0
LINE
  5
12D
100
AcDbEntity
100
AcDbLine
  8
catbox_rear_guides
 62
256
370
-1
  6
ByLayer
 10
300.0
 20
-20.0
 30
0.0
 11
300.0
 21
-120.0
 31
0.0
  0
LINE
  5
12E
100
AcDbEntity
100
AcDbLine
  8
catbox_rear_guides
 62
256
370
-1
  6
ByLayer
 10
-0.0000000000000036
 20
-40.0
 30
0.0
 11
300.0
 21
-40.0
 31
0.0
  0
LINE
  5
12F
100
AcDbEntity
100
AcDbLine
  8
catbox_rear_guides
 62
256
370
-1
  6
ByLayer
 10
-0.0000000000000036
 20
-60.0
 30
0.0
 11
300.0
 21
-60.0
 31
0.0
  0
LINE
  5
130
100
AcDbEntity
100
AcDbLine
  8
catbox_rear_guides
 62
256
370
-1
  6
ByLayer
 10
300.0
 20
-80.0
 30
0.0
 11
0.0
 21
-80.0
 31
0.0
  0
LINE
  5
131
100
AcDbEntity
100
AcDbLine
  8
catbox_rear_guides
 62
256
370
-1
  6
ByLayer
 10
-0.0000000000000061
 20
-100.0
 30
0.0
 11
300.0
 21
-100.0
 31
0.0
  0
INSERT
  5
132
100
AcDbEntity
100
AcDbBlockReference
  8
catbox_rear
 62
256
370
-1
  6
ByLayer
  2
short_slots
 10
7.4375000000002434
 20
-100.0
 30
0.0
 50
270.0
 44
1.0
 45
1.0
  0
INSERT
  5
133
100
AcDbEntity
100
AcDbBlockReference
  8
catbox_rear
 62
256
370
-1
  6
ByLayer
  2
short_slots
 10
292.5624999999998295
 20
-100.0
 30
0.0
 50
270.0
 44
1.0
 45
1.0
  0
LINE
  5
134
100
AcDbEntity
100
AcDbLine
  8
catbox_rear_guides
 62
256
370
-1
  6
ByLayer
 10
-10.0
 20
-70.0
 30
0.0
 11
300.0
 21
-70.0
 31
0.0
  0
LINE
  5
135
100
AcDbEntity
100
AcDbLine
  8
catbox_rear_guides
 62
256
370
-1
  6
ByLayer
 10
0.0
 20
-140.0
 30
0.0
 11
0.0
 21
-130.0
 31
0.0
  0
LINE
  5
136
100
AcDbEntity
100
AcDbLine
  8
catbox_rear_guides
 62
256
370
-1
  6
ByLayer
 10
0.0
 20
-130.0
 30
0.0
 11
300.0
 21
-130.0
 31
0.0
  0
LINE
  5
137
100
AcDbEntity
100
AcDbLine
  8
catbox_rear
 62
256
370
-1
  6
ByLayer
 10
7.4375000000000844
 20
-20.0
 30
0.0
 11
30.0999999999999908
 21
-20.0
 31
0.0
  0
LINE
  5
138
100
AcDbEntity
100
AcDbLine
  8
catbox_rear
 62
256
370
-1
  6
ByLayer
 10
7.4375000000001643
 20
-60.0
 30
0.0
 11
7.4375000000001847
 21
-70.0
 31
0.0
  0
LINE
  5
139
100
AcDbEntity
100
AcDbLine
  8
catbox_rear
 62
256
370
-1
  6
ByLayer
 10
7.4375000000001847
 20
-70.0
 30
0.0
 11
-0.0000000000000036
 21
-70.0
 31
0.0
  0
LINE
  5
13A
100
AcDbEntity
100
AcDbLine
  8
catbox_rear
 62
256
370
-1
  6
ByLayer
 10
-0.0000000000000036
 20
-70.0
 30
0.0
 11
0.0
 21
-130.0
 31
0.0
  0
LINE
  5
13B
100
AcDbEntity
100
AcDbLine
  8
catbox_rear
 62
256
370
-1
  6
ByLayer
 10
0.0
 20
-130.0
 30
0.0
 11
300.0
 21
-130.0
 31
0.0
  0
LINE
  5
13C
100
AcDbEntity
100
AcDbLine
  8
catbox_rear
 62
256
370
-1
  6
ByLayer
 10
300.0
 20
-130.0
 30
0.0
 11
300.0
 21
-70.0
 31
0.0
  0
LINE
  5
13D
100
AcDbEntity
100
AcDbLine
  8
catbox_rear
 62
256
370
-1
  6
ByLayer
 10
300.0
 20
-70.0
 30
0.0
 11
292.5624999999998863
 21
-70.0
 31
0.0
  0
LINE
  5
13E
100
AcDbEntity
100
AcDbLine
  8
catbox_rear
 62
256
370
-1
  6
ByLayer
 10
292.5624999999998863
 20
-70.0
 30
0.0
 11
292.5624999999998863
 21
-60.0
 31
0.0
  0
LINE
  5
13F
100
AcDbEntity
100
AcDbLine
  8
catbox_rear
 62
256
370
-1
  6
ByLayer
 10
292.5624999999999432
 20
-20.0
 30
0.0
 11
269.9000000000000341
 21
-20.0
 31
0.0
  0
LINE
  5
140
100
AcDbEntity
100
AcDbLine
  8
catbox_rear
 62
256
370
-1
  6
ByLayer
 10
209.9000000000000057
 20
-20.0
 30
0.0
 11
180.0000000000000284
 21
-20.0
 31
0.0
  0
LINE
  5
141
100
AcDbEntity
100
AcDbLine
  8
catbox_rear
 62
256
370
-1
  6
ByLayer
 10
119.9999999999999858
 20
-20.0
 30
0.0
 11
90.0999999999999943
 21
-20.0
 31
0.0
  0
CIRCLE
  5
142
100
AcDbEntity
100
AcDbCircle
  8
catbox_rear
 62
256
370
-1
  6
ByLayer
 10
35.0
 20
-50.0
 30
0.0
 40
10.9000000000000004
  0
CIRCLE
  5
143
100
AcDbEntity
100
AcDbCircle
  8
catbox_rear
 62
256
370
-1
  6
ByLayer
 10
265.0
 20
-50.0
 30
0.0
 40
10.9000000000000004
  0
INSERT
  5
144
100
AcDbEntity
100
AcDbBlockReference
  8
nema14_holes
 62
256
370
-1
  6
ByLayer
  2
nema14_holes
 10
265.0
 20
-50.0
 30
0.0
 44
1.0
 45
1.0
  0
INSERT
  5
145
100
AcDbEntity
100
AcDbBlockReference
  8
nema14_holes
 62
256
370
-1
  6
ByLayer
  2
nema14_holes
 10
35.0
 20
-50.0
 30
0.0
 44
1.0
 45
1.0
  0
INSERT
  5
146
100
AcDbEntity
100
AcDbBlockReference
  8
basic_mount
 62
256
370
-1
  6
ByLayer
  2
nema14_holes
 10
100.0
 20
200.0
 30
0.0
 44
1.0
 45
1.0
  0
LINE
  5
147
100
AcDbEntity
100
AcDbLine
  8
basic_mount
 62
256
370
-1
  6
ByLayer
 10
82.34699999999998
 20
217.6529999999999916
 30
0.0
 11
117.65300000000002
 21
217.6529999999999916
 31
0.0
  0
LINE
  5
148
100
AcDbEntity
100
AcDbLine
  8
basic_mount
 62
256
370
-1
  6
ByLayer
 10
117.65300000000002
 20
217.6529999999999916
 30
0.0
 11
117.65300000000002
 21
182.3470000000000084
 31
0.0
  0
LINE
  5
149
100
AcDbEntity
100
AcDbLine
  8
basic_mount
 62
256
370
-1
  6
ByLayer
 10
117.65300000000002
 20
182.3470000000000084
 30
0.0
 11
82.34699999999998
 21
182.3470000000000084
 31
0.0
  0
LINE
  5
14A
100
AcDbEntity
100
AcDbLine
  8
basic_mount
 62
256
370
-1
  6
ByLayer
 10
82.34699999999998
 20
182.3470000000000084
 30
0.0
 11
82.34699999999998
 21
217.6529999999999916
 31
0.0
  0
CIRCLE
  5
14B
100
AcDbEntity
100
AcDbCircle
  8
basic_mount
 62
256
370
-1
  6
ByLayer
 10
100.0
 20
200.0
 30
0.0
 40
4.0499999999999998
  0
INSERT
  5
14C
100
AcDbEntity
100
AcDbBlockReference
  8
catbox_side
 62
256
370
-1
  6
ByLayer
  2
tabs
 10
60.0999999999999943
 20
-150.0
 30
0.0
 44
1.0
 45
1.0
  0
INSERT
  5
14D
100
AcDbEntity
100
AcDbBlockReference
  8
catbox_side
 62
256
370
-1
  6
ByLayer
  2
tabs
 10
150.0
 20
-150.0
 30
0.0
 44
1.0
 45
1.0
  0
INSERT
  5
14E
100
AcDbEntity
100
AcDbBlockReference
  8
catbox_side
 62
256
370
-1
  6
ByLayer
  2
tabs
 10
239.9000000000000341
 20
-150.0
 30
0.0
 44
1.0
 45
1.0
  0
LINE
  5
14F
100
AcDbEntity
100
AcDbLine
  8
catbox_side
 62
256
370
-1
  6
ByLayer
 10
209.9000000000000057
 20
-150.0
 30
0.0
 11
180.0000000000000284
 21
-150.0
 31
0.0
  0
LINE
  5
150
100
AcDbEntity
100
AcDbLine
  8
catbox_side
 62
256
370
-1
  6
ByLayer
 10
119.9999999999999858
 20
-150.0
 30
0.0
 11
90.0999999999999943
 21
-150.0
 31
0.0
  0
CIRCLE
  5
151
100
AcDbEntity
100
AcDbCircle
  8
catbox_side
 62
256
370
-1
  6
ByLayer
 10
35.0
 20
-180.0
 30
0.0
 40
10.9000000000000004
  0
CIRCLE
  5
152
100
AcDbEntity
100
AcDbCircle
  8
catbox_side
 62
256
370
-1
  6
ByLayer
 10
265.0
 20
-180.0
 30
0.0
 40
10.9000000000000004
  0
INSERT
  5
153
100
AcDbEntity
100
AcDbBlockReference
  8
catbox_side
 62
256
370
-1
  6
ByLayer
  2
nema14_holes
 10
265.0
 20
-180.0
 30
0.0
 44
1.0
 45
1.0
  0
INSERT
  5
154
100
AcDbEntity
100
AcDbBlockReference
  8
catbox_side
 62
256
370
-1
  6
ByLayer
  2
nema14_holes
 10
35.0
 20
-180.0
 30
0.0
 44
1.0
 45
1.0
  0
INSERT
  5
155
100
AcDbEntity
100
AcDbBlockReference
  8
catbox_side
 62
256
370
-1
  6
ByLayer
  2
short_tab
 10
7.4375000000001235
 20
-230.0
 30
0.0
 50
90.0
 44
1.0
 45
1.0
  0
INSERT
  5
156
100
AcDbEntity
100
AcDbBlockReference
  8
catbox_side
 62
256
370
-1
  6
ByLayer
  2
short_slots
 10
7.4375000000002416
 20
-180.0
 30
0.0
 50
270.0
 44
1.0
 45
1.0
  0
LINE
  5
157
100
AcDbEntity
100
AcDbLine
  8
catbox_side
 62
256
370
-1
  6
ByLayer
 10
-0.0000000000000036
 20
-150.0
 30
0.0
 11
30.0999999999999908
 21
-150.0
 31
0.0
  0
LINE
  5
158
100
AcDbEntity
100
AcDbLine
  8
catbox_side
 62
256
370
-1
  6
ByLayer
 10
-0.0000000000000036
 20
-150.0
 30
0.0
 11
0.0
 21
-210.0
 31
0.0
  0
LINE
  5
159
100
AcDbEntity
100
AcDbLine
  8
catbox_side
 62
256
370
-1
  6
ByLayer
 10
7.4375000000001643
 20
-250.0
 30
0.0
 11
7.4375000000001847
 21
-260.0
 31
0.0
  0
LINE
  5
15A
100
AcDbEntity
100
AcDbLine
  8
catbox_side
 62
256
370
-1
  6
ByLayer
 10
0.0
 20
-210.0
 30
0.0
 11
4.3625000000001339
 21
-210.0
 31
0.0
  0
INSERT
  5
15B
100
AcDbEntity
100
AcDbBlockReference
  8
catbox_side
 62
256
370
-1
  6
ByLayer
  2
short_tab
 10
292.5624999999998863
 20
-230.0
 30
0.0
 41
1.0
 42
-1.0
 43
1.0
 50
89.9999999999999858
 44
1.0
 45
1.0
  0
INSERT
  5
15C
100
AcDbEntity
100
AcDbBlockReference
  8
catbox_side
 62
256
370
-1
  6
ByLayer
  2
short_slots
 10
292.5624999999997726
 20
-179.9999999999999716
 30
0.0
 41
1.0
 42
-1.0
 43
1.0
 50
270.0
 44
1.0
 45
1.0
  0
LINE
  5
15D
100
AcDbEntity
100
AcDbLine
  8
catbox_side
 62
256
370
-1
  6
ByLayer
 10
300.0
 20
-210.0000000000000568
 30
0.0
 11
295.6374999999998181
 21
-210.0000000000000568
 31
0.0
  0
LINE
  5
15E
100
AcDbEntity
100
AcDbLine
  8
catbox_side
 62
256
370
-1
  6
ByLayer
 10
292.5624999999998863
 20
-249.9999999999999432
 30
0.0
 11
292.5624999999998863
 21
-260.0
 31
0.0
  0
LINE
  5
15F
100
AcDbEntity
100
AcDbLine
  8
catbox_side
 62
256
370
-1
  6
ByLayer
 10
7.4375000000001847
 20
-260.0
 30
0.0
 11
292.5624999999998863
 21
-260.0
 31
0.0
  0
LINE
  5
160
100
AcDbEntity
100
AcDbLine
  8
catbox_side
 62
256
370
-1
  6
ByLayer
 10
300.0
 20
-150.0
 30
0.0
 11
269.9000000000000341
 21
-150.0
 31
0.0
  0
LINE
  5
161
100
AcDbEntity
100
AcDbLine
  8
catbox_side
 62
256
370
-1
  6
ByLayer
 10
300.0
 20
-150.0
 30
0.0
 11
300.0
 21
-210.0000000000000568
 31
0.0
  0
ENDSEC
  0
SECTION
  2
OBJECTS
  0
DICTIONARY
  5
C
100
AcDbDictionary
280
0
281
1
  3
ACAD_GROUP
350
D
  3
ACAD_LAYOUT
350
1A
  3
ACAD_MLINESTYLE
350
17
  3
ACAD_PLOTSETTINGS
350
19
  3
ACAD_PLOTSTYLENAME
350
E
  3
AcDbVariableDictionary
350
162
  0
DICTIONARY
  5
D
100
AcDbDictionary
280
0
281
1
  0
ACDBDICTIONARYWDFLT
  5
E
100
AcDbDictionary
281
1
  3
Normal
350
F
100
AcDbDictionaryWithDefault
340
F
  0
ACDBPLACEHOLDER
  5
F
  0
DICTIONARY
  5
17
100
AcDbDictionary
280
0
281
1
  3
Standard
350
18
  0
MLINESTYLE
  5
18
100
AcDbMlineStyle
  2
STANDARD
 70
0
  3

 62
256
 51
90.0
 52
90.0
 71
2
 49
0.5
 62
256
  6
BYLAYER
 49
-0.5
 62
256
  6
BYLAYER
  0
DICTIONARY
  5
19
100
AcDbDictionary
280
0
281
1
  0
DICTIONARY
  5
1A
100
AcDbDictionary
281
1
  3
Layout1
350
1E
  3
Layout2
350
26
  3
Model
350
22
  0
LAYOUT
  5
1E
100
AcDbPlotSettings
  1

  2
C:\Program Files\AutoCAD 2002\plotters\DWF ePlot (optimized for plotting).pc3
  4

  6

 40
0.0
 41
0.0
 42
0.0
 43
0.0
 44
0.0
 45
0.0
 46
0.0
 47
0.0
 48
0.0
 49
0.0
140
0.0
141
0.0
142
1.0
143
1.0
 70
688
 72
0
 73
0
 74
5
  7

 75
16
147
1.0
148
0.0
149
0.0
100
AcDbLayout
  1
Layout1
 70
1
 71
1
 10
0.0
 20
0.0
 11
420.0
 21
297.0
 12
0.0
 22
0.0
 32
0.0
 14
100000000000000000000.0
 24
100000000000000000000.0
 34
100000000000000000000.0
 15
-100000000000000000000.0
 25
-100000000000000000000.0
 35
-100000000000000000000.0
146
0.0
 13
0.0
 23
0.0
 33
0.0
 16
1.0
 26
0.0
 36
0.0
 17
0.0
 27
1.0
 37
0.0
 76
0
330
1B
  0
LAYOUT
  5
22
100
AcDbPlotSettings
  1

  2
C:\Program Files\AutoCAD 2002\plotters\DWF ePlot (optimized for plotting).pc3
  4

  6

 40
0.0
 41
0.0
 42
0.0
 43
0.0
 44
0.0
 45
0.0
 46
0.0
 47
0.0
 48
0.0
 49
0.0
140
0.0
141
0.0
142
1.0
143
1.0
 70
1712
 72
0
 73
0
 74
0
  7

 75
0
147
1.0
148
0.0
149
0.0
100
AcDbLayout
  1
Model
 70
1
 71
0
 10
0.0
 20
0.0
 11
12.0
 21
9.0
 12
0.0
 22
0.0
 32
0.0
 14
0.0
 24
0.0
 34
0.0
 15
0.0
 25
0.0
 35
0.0
146
0.0
 13
0.0
 23
0.0
 33
0.0
 16
1.0
 26
0.0
 36
0.0
 17
0.0
 27
1.0
 37
0.0
 76
0
330
1F
  0
LAYOUT
  5
26
100
AcDbPlotSettings
  1

  2
C:\Program Files\AutoCAD 2002\plotters\DWF ePlot (optimized for plotting).pc3
  4

  6

 40
0.0
 41
0.0
 42
0.0
 43
0.0
 44
0.0
 45
0.0
 46
0.0
 47
0.0
 48
0.0
 49
0.0
140
0.0
141
0.0
142
1.0
143
1.0
 70
688
 72
0
 73
0
 74
5
  7

 75
16
147
1.0
148
0.0
149
0.0
100
AcDbLayout
  1
Layout2
 70
1
 71
2
 10
0.0
 20
0.0
 11
12.0
 21
9.0
 12
0.0
 22
0.0
 32
0.0
 14
0.0
 24
0.0
 34
0.0
 15
0.0
 25
0.0
 35
0.0
146
0.0
 13
0.0
 23
0.0
 33
0.0
 16
1.0
 26
0.0
 36
0.0
 17
0.0
 27
1.0
 37
0.0
 76
0
330
23
  0
DICTIONARY
  5
162
100
AcDbDictionary
281
1
  3
DIMASSOC
350
164
  3
HIDETEXT
350
163
  0
DICTIONARYVAR
  5
163
100
DictionaryVariables
280
0
  1
2
  0
DICTIONARYVAR
  5
164
100
DictionaryVariables
280
0
  1
1
  0
ENDSEC
  0
EOF
