999
dxflib 2.2.0.0
  0
SECTION
  2
HEADER
  9
$ACADVER
  1
AC1015
  9
$HANDSEED
  5
FFFF
  9
$DIMASZ
 40
2.5
  9
$PLIMMIN
 10
0.0
 20
0.0
  9
$DIMEXE
 40
1.25
  9
$DIMGAP
 40
0.625
  9
$PLIMMAX
 10
210.0
 20
297.0
  9
$INSUNITS
 70
4
  9
$DIMSTYLE
  2
Standard
  9
$CLAYER
  8
cuts
  9
$DIMEXO
 40
0.625
  9
$DIMTXT
 40
2.5
  9
$CLAYER
  8
inner-clamp
  0
ENDSEC
  0
SECTION
  2
TABLES
  0
TABLE
  2
VPORT
  5
8
100
AcDbSymbolTable
 70
1
  0
VPORT
  5
30
100
AcDbSymbolTableRecord
100
AcDbViewportTableRecord
  2
*Active
 70
0
 10
0.0
 20
0.0
 11
1.0
 21
1.0
 12
286.3055555555554861
 22
148.5
 13
0.0
 23
0.0
 14
10.0
 24
10.0
 15
10.0
 25
10.0
 16
0.0
 26
0.0
 36
1.0
 17
0.0
 27
0.0
 37
0.0
 40
297.0
 41
1.92798353909465
 42
50.0
 43
0.0
 44
0.0
 50
0.0
 51
0.0
 71
0
 72
100
 73
1
 74
3
 75
1
 76
1
 77
0
 78
0
281
0
 65
1
110
0.0
120
0.0
130
0.0
111
1.0
121
0.0
131
0.0
112
0.0
122
1.0
132
0.0
 79
0
146
0.0
  0
ENDTAB
  0
TABLE
  2
LTYPE
  5
5
100
AcDbSymbolTable
 70
21
  0
LTYPE
  5
14
100
AcDbSymbolTableRecord
100
AcDbLinetypeTableRecord
  2
ByBlock
 70
0
  3

 72
65
 73
0
 40
0.0
  0
LTYPE
  5
15
100
AcDbSymbolTableRecord
100
AcDbLinetypeTableRecord
  2
ByLayer
 70
0
  3

 72
65
 73
0
 40
0.0
  0
LTYPE
  5
16
100
AcDbSymbolTableRecord
100
AcDbLinetypeTableRecord
  2
CONTINUOUS
 70
0
  3
Solid line
 72
65
 73
0
 40
0.0
  0
LTYPE
  5
31
100
AcDbSymbolTableRecord
100
AcDbLinetypeTableRecord
  2
DOT
 70
0
  3
Dot . . . . . . . . . . . . . . . . . . . . . .
 72
65
 73
2
 40
6.3499999999999996
 49
0.0
 74
0
 49
-6.3499999999999996
 74
0
  0
LTYPE
  5
32
100
AcDbSymbolTableRecord
100
AcDbLinetypeTableRecord
  2
DOT2
 70
0
  3
Dot (.5x) .....................................
 72
65
 73
2
 40
3.1749999999999998
 49
0.0
 74
0
 49
-3.1749999999999998
 74
0
  0
LTYPE
  5
33
100
AcDbSymbolTableRecord
100
AcDbLinetypeTableRecord
  2
DOTX2
 70
0
  3
Dot (2x) .  .  .  .  .  .  .  .  .  .  .  .  .
 72
65
 73
2
 40
12.6999999999999993
 49
0.0
 74
0
 49
-12.6999999999999993
 74
0
  0
LTYPE
  5
34
100
AcDbSymbolTableRecord
100
AcDbLinetypeTableRecord
  2
DASHED
 70
0
  3
Dashed __ __ __ __ __ __ __ __ __ __ __ __ __ _
 72
65
 73
2
 40
19.0500000000000007
 49
12.6999999999999993
 74
0
 49
-6.3499999999999996
 74
0
  0
LTYPE
  5
35
100
AcDbSymbolTableRecord
100
AcDbLinetypeTableRecord
  2
DASHED2
 70
0
  3
Dashed (.5x) _ _ _ _ _ _ _ _ _ _ _ _ _ _ _ _ _
 72
65
 73
2
 40
9.5250000000000004
 49
6.3499999999999996
 74
0
 49
-3.1749999999999998
 74
0
  0
LTYPE
  5
36
100
AcDbSymbolTableRecord
100
AcDbLinetypeTableRecord
  2
DASHEDX2
 70
0
  3
Dashed (2x) ____  ____  ____  ____  ____  ___
 72
65
 73
2
 40
38.1000000000000014
 49
25.3999999999999986
 74
0
 49
-12.6999999999999993
 74
0
  0
LTYPE
  5
37
100
AcDbSymbolTableRecord
100
AcDbLinetypeTableRecord
  2
DASHDOT
 70
0
  3
Dash dot __ . __ . __ . __ . __ . __ . __ . __
 72
65
 73
4
 40
25.3999999999999986
 49
12.6999999999999993
 74
0
 49
-6.3499999999999996
 74
0
 49
0.0
 74
0
 49
-6.3499999999999996
 74
0
  0
LTYPE
  5
38
100
AcDbSymbolTableRecord
100
AcDbLinetypeTableRecord
  2
DASHDOT2
 70
0
  3
Dash dot (.5x) _._._._._._._._._._._._._._._.
 72
65
 73
4
 40
12.6999999999999993
 49
6.3499999999999996
 74
0
 49
-3.1749999999999998
 74
0
 49
0.0
 74
0
 49
-3.1749999999999998
 74
0
  0
LTYPE
  5
39
100
AcDbSymbolTableRecord
100
AcDbLinetypeTableRecord
  2
DASHDOTX2
 70
0
  3
Dash dot (2x) ____  .  ____  .  ____  .  ___
 72
65
 73
4
 40
50.7999999999999972
 49
25.3999999999999986
 74
0
 49
-12.6999999999999993
 74
0
 49
0.0
 74
0
 49
-12.6999999999999993
 74
0
  0
LTYPE
  5
3A
100
AcDbSymbolTableRecord
100
AcDbLinetypeTableRecord
  2
DIVIDE
 70
0
  3
Divide ____ . . ____ . . ____ . . ____ . . ____
 72
65
 73
6
 40
31.75
 49
12.6999999999999993
 74
0
 49
-6.3499999999999996
 74
0
 49
0.0
 74
0
 49
-6.3499999999999996
 74
0
 49
0.0
 74
0
 49
-6.3499999999999996
 74
0
  0
LTYPE
  5
3B
100
AcDbSymbolTableRecord
100
AcDbLinetypeTableRecord
  2
DIVIDE2
 70
0
  3
Divide (.5x) __..__..__..__..__..__..__..__.._
 72
65
 73
6
 40
15.875
 49
6.3499999999999996
 74
0
 49
-3.1749999999999998
 74
0
 49
0.0
 74
0
 49
-3.1749999999999998
 74
0
 49
0.0
 74
0
 49
-3.1749999999999998
 74
0
  0
LTYPE
  5
3C
100
AcDbSymbolTableRecord
100
AcDbLinetypeTableRecord
  2
DIVIDEX2
 70
0
  3
Divide (2x) ________  .  .  ________  .  .  _
 72
65
 73
6
 40
63.5
 49
25.3999999999999986
 74
0
 49
-12.6999999999999993
 74
0
 49
0.0
 74
0
 49
-12.6999999999999993
 74
0
 49
0.0
 74
0
 49
-12.6999999999999993
 74
0
  0
LTYPE
  5
3D
100
AcDbSymbolTableRecord
100
AcDbLinetypeTableRecord
  2
CENTER
 70
0
  3
Center ____ _ ____ _ ____ _ ____ _ ____ _ ____
 72
65
 73
4
 40
50.7999999999999972
 49
31.75
 74
0
 49
-6.3499999999999996
 74
0
 49
6.3499999999999996
 74
0
 49
-6.3499999999999996
 74
0
  0
LTYPE
  5
3E
100
AcDbSymbolTableRecord
100
AcDbLinetypeTableRecord
  2
CENTER2
 70
0
  3
Center (.5x) ___ _ ___ _ ___ _ ___ _ ___ _ ___
 72
65
 73
4
 40
28.5749999999999993
 49
19.0500000000000007
 74
0
 49
-3.1749999999999998
 74
0
 49
3.1749999999999998
 74
0
 49
-3.1749999999999998
 74
0
  0
LTYPE
  5
3F
100
AcDbSymbolTableRecord
100
AcDbLinetypeTableRecord
  2
CENTERX2
 70
0
  3
Center (2x) ________  __  ________  __  _____
 72
65
 73
4
 40
101.5999999999999943
 49
63.5
 74
0
 49
-12.6999999999999993
 74
0
 49
12.6999999999999993
 74
0
 49
-12.6999999999999993
 74
0
  0
LTYPE
  5
40
100
AcDbSymbolTableRecord
100
AcDbLinetypeTableRecord
  2
BORDER
 70
0
  3
Border __ __ . __ __ . __ __ . __ __ . __ __ .
 72
65
 73
6
 40
44.4500000000000028
 49
12.6999999999999993
 74
0
 49
-6.3499999999999996
 74
0
 49
12.6999999999999993
 74
0
 49
-6.3499999999999996
 74
0
 49
0.0
 74
0
 49
-6.3499999999999996
 74
0
  0
LTYPE
  5
41
100
AcDbSymbolTableRecord
100
AcDbLinetypeTableRecord
  2
BORDER2
 70
0
  3
Border (.5x) __.__.__.__.__.__.__.__.__.__.__.
 72
65
 73
6
 40
22.2250000000000014
 49
6.3499999999999996
 74
0
 49
-3.1749999999999998
 74
0
 49
6.3499999999999996
 74
0
 49
-3.1749999999999998
 74
0
 49
0.0
 74
0
 49
-3.1749999999999998
 74
0
  0
LTYPE
  5
42
100
AcDbSymbolTableRecord
100
AcDbLinetypeTableRecord
  2
BORDERX2
 70
0
  3
Border (2x) ____  ____  .  ____  ____  .  ___
 72
65
 73
6
 40
88.9000000000000057
 49
25.3999999999999986
 74
0
 49
-12.6999999999999993
 74
0
 49
25.3999999999999986
 74
0
 49
-12.6999999999999993
 74
0
 49
0.0
 74
0
 49
-12.6999999999999993
 74
0
  0
ENDTAB
  0
TABLE
  2
LAYER
  5
2
100
AcDbSymbolTable
 70
7
  0
LAYER
  5
10
100
AcDbSymbolTableRecord
100
AcDbLayerTableRecord
  2
0
 70
0
 62
7
420
0
  6
CONTINUOUS
370
25
390
F
  0
LAYER
  5
43
100
AcDbSymbolTableRecord
100
AcDbLayerTableRecord
  2
carriage_constraints
 70
0
 62
5
420
255
  6
CONTINUOUS
370
0
390
F
  0
LAYER
  5
44
100
AcDbSymbolTableRecord
100
AcDbLayerTableRecord
  2
cuts
 70
0
 62
7
420
0
  6
CONTINUOUS
370
0
390
F
  0
LAYER
  5
45
100
AcDbSymbolTableRecord
100
AcDbLayerTableRecord
  2
carriage_skeleton
 70
0
 62
1
420
16711680
  6
CONTINUOUS
370
0
390
F
  0
LAYER
  5
46
100
AcDbSymbolTableRecord
100
AcDbLayerTableRecord
  2
clamp
 70
0
 62
7
420
0
  6
CONTINUOUS
370
0
390
F
  0
LAYER
  5
47
100
AcDbSymbolTableRecord
100
AcDbLayerTableRecord
  2
inner-clamp
 70
0
 62
7
420
0
  6
CONTINUOUS
370
0
390
F
  0
LAYER
  5
48
100
AcDbSymbolTableRecord
100
AcDbLayerTableRecord
  2
documentation
 70
0
 62
2
420
16776960
  6
CONTINUOUS
370
0
390
F
  0
ENDTAB
  0
TABLE
  2
STYLE
  5
3
100
AcDbSymbolTable
 70
1
  0
STYLE
  5
11
100
AcDbSymbolTableRecord
100
AcDbTextStyleTableRecord
  2
Standard
 70
0
 40
0.0
 41
0.75
 50
0.0
 71
0
 42
2.5
  3
txt
  4

  0
ENDTAB
  0
TABLE
  2
VIEW
  5
6
100
AcDbSymbolTable
 70
0
  0
ENDTAB
  0
TABLE
  2
UCS
  5
7
100
AcDbSymbolTable
 70
0
  0
ENDTAB
  0
TABLE
  2
APPID
  5
9
100
AcDbSymbolTable
 70
1
  0
APPID
  5
12
100
AcDbSymbolTableRecord
100
AcDbRegAppTableRecord
  2
ACAD
 70
0
  0
ENDTAB
  0
TABLE
  2
DIMSTYLE
  5
A
100
AcDbSymbolTable
 70
1
100
AcDbDimStyleTable
 71
0
  0
DIMSTYLE
105
27
100
AcDbSymbolTableRecord
100
AcDbDimStyleTableRecord
  2
Standard
 41
2.5
 42
0.625
 43
3.75
 44
1.25
 70
0
 73
0
 74
0
 77
1
 78
8
140
2.5
141
2.5
143
0.03937007874016
147
0.625
171
3
172
1
271
2
272
2
274
3
278
44
283
0
284
8
340
11
  0
ENDTAB
  0
TABLE
  2
BLOCK_RECORD
  5
1
100
AcDbSymbolTable
 70
1
  0
BLOCK_RECORD
  5
1F
100
AcDbSymbolTableRecord
100
AcDbBlockTableRecord
  2
*Model_Space
340
22
  0
BLOCK_RECORD
  5
1B
100
AcDbSymbolTableRecord
100
AcDbBlockTableRecord
  2
*Paper_Space
340
1E
  0
BLOCK_RECORD
  5
23
100
AcDbSymbolTableRecord
100
AcDbBlockTableRecord
  2
*Paper_Space0
340
26
  0
BLOCK_RECORD
  5
49
100
AcDbSymbolTableRecord
100
AcDbBlockTableRecord
  2
m3-t-slot
340
0
  0
BLOCK_RECORD
  5
4A
100
AcDbSymbolTableRecord
100
AcDbBlockTableRecord
  2
pressfit-bearing
340
0
  0
BLOCK_RECORD
  5
4B
100
AcDbSymbolTableRecord
100
AcDbBlockTableRecord
  2
m3-t-10mm-slot
340
0
  0
ENDTAB
  0
ENDSEC
  0
SECTION
  2
BLOCKS
  0
BLOCK
  5
20
100
AcDbEntity
  8
0
100
AcDbBlockBegin
  2
*Model_Space
 70
0
 10
0.0
 20
0.0
 30
0.0
  3
*Model_Space
  1

  0
ENDBLK
  5
21
100
AcDbEntity
  8
0
100
AcDbBlockEnd
  0
BLOCK
  5
1C
100
AcDbEntity
 67
1
  8
0
100
AcDbBlockBegin
  2
*Paper_Space
 70
0
 10
0.0
 20
0.0
 30
0.0
  3
*Paper_Space
  1

  0
ENDBLK
  5
1D
100
AcDbEntity
 67
1
  8
0
100
AcDbBlockEnd
  0
BLOCK
  5
24
100
AcDbEntity
  8
0
100
AcDbBlockBegin
  2
*Paper_Space0
 70
0
 10
0.0
 20
0.0
 30
0.0
  3
*Paper_Space0
  1

  0
ENDBLK
  5
25
100
AcDbEntity
  8
0
100
AcDbBlockEnd
  0
BLOCK
  5
4C
100
AcDbEntity
  8
0
100
AcDbBlockBegin
  2
m3-t-slot
 70
0
 10
0.0
 20
0.0
 30
0.0
  3
m3-t-slot
  1

  0
LINE
  5
4D
100
AcDbEntity
100
AcDbLine
  8
cuts
 62
256
370
-1
  6
ByLayer
 10
-1.4999999999999978
 20
0.0000000000000009
 30
0.0
 11
-1.5000000000000004
 21
3.330000000000001
 31
0.0
  0
LINE
  5
4E
100
AcDbEntity
100
AcDbLine
  8
cuts
 62
256
370
-1
  6
ByLayer
 10
-1.5000000000000004
 20
3.330000000000001
 30
0.0
 11
-2.6599999999999944
 21
3.3299999999999974
 31
0.0
  0
LINE
  5
4F
100
AcDbEntity
100
AcDbLine
  8
cuts
 62
256
370
-1
  6
ByLayer
 10
-2.6599999999999944
 20
3.3299999999999974
 30
0.0
 11
-2.6599999999999944
 21
5.4999999999999991
 31
0.0
  0
LINE
  5
50
100
AcDbEntity
100
AcDbLine
  8
cuts
 62
256
370
-1
  6
ByLayer
 10
-2.6599999999999944
 20
5.4999999999999991
 30
0.0
 11
-1.4999999999999996
 21
5.5000000000000009
 31
0.0
  0
LINE
  5
51
100
AcDbEntity
100
AcDbLine
  8
cuts
 62
256
370
-1
  6
ByLayer
 10
1.5000000000000036
 20
5.4999999999999991
 30
0.0
 11
2.6599999999999988
 21
5.4999999999999973
 31
0.0
  0
LINE
  5
52
100
AcDbEntity
100
AcDbLine
  8
cuts
 62
256
370
-1
  6
ByLayer
 10
2.6599999999999988
 20
5.4999999999999973
 30
0.0
 11
2.6599999999999961
 21
3.3299999999999974
 31
0.0
  0
LINE
  5
53
100
AcDbEntity
100
AcDbLine
  8
cuts
 62
256
370
-1
  6
ByLayer
 10
2.6599999999999961
 20
3.3299999999999974
 30
0.0
 11
1.5000000000000009
 21
3.3299999999999956
 31
0.0
  0
LINE
  5
54
100
AcDbEntity
100
AcDbLine
  8
cuts
 62
256
370
-1
  6
ByLayer
 10
1.5000000000000009
 20
3.3299999999999956
 30
0.0
 11
1.4999999999999978
 21
-0.0000000000000009
 31
0.0
  0
LINE
  5
55
100
AcDbEntity
100
AcDbLine
  8
cuts
 62
256
370
-1
  6
ByLayer
 10
-1.4999999999999978
 20
7.4999999999999991
 30
0.0
 11
1.5000000000000058
 21
7.4999999999999991
 31
0.0
  0
LINE
  5
56
100
AcDbEntity
100
AcDbLine
  8
cuts
 62
256
370
-1
  6
ByLayer
 10
-1.4999999999999996
 20
5.5000000000000009
 30
0.0
 11
-1.4999999999999978
 21
7.4999999999999991
 31
0.0
  0
LINE
  5
57
100
AcDbEntity
100
AcDbLine
  8
cuts
 62
256
370
-1
  6
ByLayer
 10
1.5000000000000058
 20
7.4999999999999991
 30
0.0
 11
1.5000000000000036
 21
5.4999999999999991
 31
0.0
  0
ENDBLK
  5
58
100
AcDbEntity
  8
0
100
AcDbBlockEnd
  0
BLOCK
  5
59
100
AcDbEntity
  8
0
100
AcDbBlockBegin
  2
pressfit-bearing
 70
0
 10
0.0
 20
0.0
 30
0.0
  3
pressfit-bearing
  1

  0
CIRCLE
  5
5A
100
AcDbEntity
100
AcDbCircle
  8
cuts
 62
256
370
-1
  6
ByLayer
 10
0.0
 20
0.0
 30
0.0
 40
6.0
  0
ENDBLK
  5
5B
100
AcDbEntity
  8
0
100
AcDbBlockEnd
  0
BLOCK
  5
5C
100
AcDbEntity
  8
0
100
AcDbBlockBegin
  2
m3-t-10mm-slot
 70
0
 10
0.0
 20
0.0
 30
0.0
  3
m3-t-10mm-slot
  1

  0
LINE
  5
5D
100
AcDbEntity
100
AcDbLine
  8
cuts
 62
256
370
-1
  6
ByLayer
 10
-1.500000000000004
 20
5.8300000000000018
 30
0.0
 11
-2.6599999999999979
 21
5.8299999999999983
 31
0.0
  0
LINE
  5
5E
100
AcDbEntity
100
AcDbLine
  8
cuts
 62
256
370
-1
  6
ByLayer
 10
-2.6599999999999979
 20
5.8299999999999983
 30
0.0
 11
-2.6599999999999975
 21
8.0
 31
0.0
  0
LINE
  5
5F
100
AcDbEntity
100
AcDbLine
  8
cuts
 62
256
370
-1
  6
ByLayer
 10
-2.6599999999999975
 20
8.0
 30
0.0
 11
-1.5000000000000031
 21
8.0000000000000018
 31
0.0
  0
LINE
  5
60
100
AcDbEntity
100
AcDbLine
  8
cuts
 62
256
370
-1
  6
ByLayer
 10
1.4999999999999998
 20
8.0
 30
0.0
 11
2.6599999999999953
 21
7.9999999999999982
 31
0.0
  0
LINE
  5
61
100
AcDbEntity
100
AcDbLine
  8
cuts
 62
256
370
-1
  6
ByLayer
 10
2.6599999999999953
 20
7.9999999999999982
 30
0.0
 11
2.6599999999999926
 21
5.8299999999999983
 31
0.0
  0
LINE
  5
62
100
AcDbEntity
100
AcDbLine
  8
cuts
 62
256
370
-1
  6
ByLayer
 10
2.6599999999999926
 20
5.8299999999999983
 30
0.0
 11
1.4999999999999971
 21
5.8299999999999965
 31
0.0
  0
LINE
  5
63
100
AcDbEntity
100
AcDbLine
  8
cuts
 62
256
370
-1
  6
ByLayer
 10
-1.5000000000000009
 20
10.0
 30
0.0
 11
1.500000000000002
 21
10.0
 31
0.0
  0
LINE
  5
64
100
AcDbEntity
100
AcDbLine
  8
cuts
 62
256
370
-1
  6
ByLayer
 10
-1.5000000000000031
 20
8.0000000000000018
 30
0.0
 11
-1.5000000000000009
 21
10.0
 31
0.0
  0
LINE
  5
65
100
AcDbEntity
100
AcDbLine
  8
cuts
 62
256
370
-1
  6
ByLayer
 10
1.500000000000002
 20
10.0
 30
0.0
 11
1.4999999999999998
 21
8.0
 31
0.0
  0
LINE
  5
66
100
AcDbEntity
100
AcDbLine
  8
cuts
 62
256
370
-1
  6
ByLayer
 10
-1.4999999999999998
 20
-0.0000000000000003
 30
0.0
 11
-1.500000000000004
 21
5.8300000000000018
 31
0.0
  0
LINE
  5
67
100
AcDbEntity
100
AcDbLine
  8
cuts
 62
256
370
-1
  6
ByLayer
 10
1.4999999999999971
 20
5.8299999999999965
 30
0.0
 11
1.499999999999992
 21
0.0000000000000003
 31
0.0
  0
ENDBLK
  5
68
100
AcDbEntity
  8
0
100
AcDbBlockEnd
  0
ENDSEC
  0
SECTION
  2
ENTITIES
  0
LINE
  5
69
100
AcDbEntity
100
AcDbLine
  8
carriage_constraints
 62
256
370
-1
  6
ByLayer
 10
100.0
 20
47.3400000000000176
 30
0.0
 11
100.0
 21
100.0
 31
0.0
  0
LINE
  5
6A
100
AcDbEntity
100
AcDbLine
  8
carriage_constraints
 62
256
370
-1
  6
ByLayer
 10
140.0
 20
100.0
 30
0.0
 11
140.0
 21
47.3400000000000176
 31
0.0
  0
MTEXT
  5
6B
100
AcDbEntity
100
AcDbMText
  8
carriage_constraints
 62
256
370
-1
  6
ByLayer
 10
40.0
 20
100.0
 30
0.0
 40
4.0
 41
100.0
 71
6
 72
2
  1
top\~of\~Y\~carriage
  7
standard
 50
0.0
 73
0
 44
1.0
  0
MTEXT
  5
6C
100
AcDbEntity
100
AcDbMText
  8
carriage_constraints
 62
256
370
-1
  6
ByLayer
 10
40.0
 20
90.0
 30
0.0
 40
4.0
 41
100.0
 71
6
 72
2
  1
centerline\~of\~rods
  7
standard
 50
0.0
 73
0
 44
1.0
  0
MTEXT
  5
6D
100
AcDbEntity
100
AcDbMText
  8
carriage_constraints
 62
256
370
-1
  6
ByLayer
 10
40.0
 20
71.9200000000000159
 30
0.0
 40
4.0
 41
100.0
 71
6
 72
2
  1
bottom\~of\~carriage
  7
standard
 50
0.0
 73
0
 44
1.0
  0
MTEXT
  5
6E
100
AcDbEntity
100
AcDbMText
  8
carriage_constraints
 62
256
370
-1
  6
ByLayer
 10
40.0
 20
75.1200000000000188
 30
0.0
 40
2.5
 41
100.0
 71
6
 72
2
  1
bottom\~+clr.
  7
standard
 50
0.0
 73
0
 44
1.0
  0
MTEXT
  5
6F
100
AcDbEntity
100
AcDbMText
  8
carriage_constraints
 62
256
370
-1
  6
ByLayer
 10
40.0
 20
81.4200000000000159
 30
0.0
 40
3.0
 41
100.0
 71
6
 72
2
  1
bottom\~of\~belt
  7
standard
 50
0.0
 73
0
 44
1.0
  0
MTEXT
  5
70
100
AcDbEntity
100
AcDbMText
  8
carriage_constraints
 62
256
370
-1
  6
ByLayer
 10
100.0
 20
47.3400000000000176
 30
0.0
 40
4.0
 41
100.0
 71
6
 72
2
  1
left\~rod
  7
standard
 50
90.0
 73
0
 44
1.0
  0
MTEXT
  5
71
100
AcDbEntity
100
AcDbMText
  8
carriage_constraints
 62
256
370
-1
  6
ByLayer
 10
140.0
 20
47.3400000000000176
 30
0.0
 40
4.0
 41
100.0
 71
6
 72
2
  1
right\~rod
  7
standard
 50
90.0
 73
0
 44
1.0
  0
LINE
  5
72
100
AcDbEntity
100
AcDbLine
  8
carriage_constraints
 62
256
370
-1
  6
ByLayer
 10
148.0
 20
100.0
 30
0.0
 11
148.0
 21
47.3400000000000176
 31
0.0
  0
LINE
  5
73
100
AcDbEntity
100
AcDbLine
  8
carriage_constraints
 62
256
370
-1
  6
ByLayer
 10
92.0
 20
47.3400000000000176
 30
0.0
 11
92.0
 21
100.0
 31
0.0
  0
LINE
  5
74
100
AcDbEntity
100
AcDbLine
  8
carriage_constraints
 62
256
370
-1
  6
ByLayer
 10
40.0
 20
100.0
 30
0.0
 11
148.0
 21
100.0
 31
0.0
  0
LINE
  5
75
100
AcDbEntity
100
AcDbLine
  8
carriage_constraints
 62
256
370
-1
  6
ByLayer
 10
40.0
 20
90.0
 30
0.0
 11
148.0
 21
90.0
 31
0.0
  0
LINE
  5
76
100
AcDbEntity
100
AcDbLine
  8
carriage_constraints
 62
256
370
-1
  6
ByLayer
 10
40.0
 20
75.1200000000000188
 30
0.0
 11
148.0
 21
75.1200000000000188
 31
0.0
  0
LINE
  5
77
100
AcDbEntity
100
AcDbLine
  8
carriage_constraints
 62
256
370
-1
  6
ByLayer
 10
40.0
 20
71.9200000000000159
 30
0.0
 11
148.0
 21
71.9200000000000159
 31
0.0
  0
LINE
  5
78
100
AcDbEntity
100
AcDbLine
  8
carriage_skeleton
 62
256
370
-1
  6
ByLayer
 10
92.0
 20
103.4000000000000057
 30
0.0
 11
180.0
 21
103.4000000000000057
 31
0.0
  0
MTEXT
  5
79
100
AcDbEntity
100
AcDbMText
  8
carriage_skeleton
 62
256
370
-1
  6
ByLayer
 10
180.0
 20
103.4000000000000057
 30
0.0
 40
4.0
 41
100.0
 71
4
 72
2
  1
table\~level
  7
standard
 50
0.0
 73
0
 44
1.0
  0
LINE
  5
7A
100
AcDbEntity
100
AcDbLine
  8
carriage_skeleton
 62
256
370
-1
  6
ByLayer
 10
92.0
 20
106.5
 30
0.0
 11
180.0
 21
106.5
 31
0.0
  0
INSERT
  5
7B
100
AcDbEntity
100
AcDbBlockReference
  8
cuts
 62
256
370
-1
  6
ByLayer
  2
m3-t-slot
 10
111.0
 20
103.4000000000000057
 30
0.0
 50
180.0
 44
1.0
 45
1.0
  0
LINE
  5
7C
100
AcDbEntity
100
AcDbLine
  8
cuts
 62
256
370
-1
  6
ByLayer
 10
135.0
 20
103.4000000000000057
 30
0.0
 11
135.0
 21
106.5
 31
0.0
  0
LINE
  5
7D
100
AcDbEntity
100
AcDbLine
  8
cuts
 62
256
370
-1
  6
ByLayer
 10
135.0
 20
106.5
 30
0.0
 11
143.0
 21
106.5
 31
0.0
  0
LINE
  5
7E
100
AcDbEntity
100
AcDbLine
  8
cuts
 62
256
370
-1
  6
ByLayer
 10
143.0
 20
106.5
 30
0.0
 11
143.0
 21
103.4000000000000057
 31
0.0
  0
LINE
  5
7F
100
AcDbEntity
100
AcDbLine
  8
cuts
 62
256
370
-1
  6
ByLayer
 10
143.0
 20
103.4000000000000057
 30
0.0
 11
148.0
 21
103.4000000000000057
 31
0.0
  0
LINE
  5
80
100
AcDbEntity
100
AcDbLine
  8
cuts
 62
256
370
-1
  6
ByLayer
 10
92.0
 20
103.4000000000000057
 30
0.0
 11
97.0
 21
103.4000000000000057
 31
0.0
  0
LINE
  5
81
100
AcDbEntity
100
AcDbLine
  8
cuts
 62
256
370
-1
  6
ByLayer
 10
97.0
 20
103.4000000000000057
 30
0.0
 11
97.0
 21
106.5
 31
0.0
  0
LINE
  5
82
100
AcDbEntity
100
AcDbLine
  8
cuts
 62
256
370
-1
  6
ByLayer
 10
97.0
 20
106.5
 30
0.0
 11
105.0
 21
106.5
 31
0.0
  0
LINE
  5
83
100
AcDbEntity
100
AcDbLine
  8
cuts
 62
256
370
-1
  6
ByLayer
 10
105.0
 20
106.5
 30
0.0
 11
105.0
 21
103.4000000000000057
 31
0.0
  0
LINE
  5
84
100
AcDbEntity
100
AcDbLine
  8
cuts
 62
256
370
-1
  6
ByLayer
 10
105.0
 20
103.4000000000000057
 30
0.0
 11
109.5
 21
103.4000000000000057
 31
0.0
  0
LINE
  5
85
100
AcDbEntity
100
AcDbLine
  8
cuts
 62
256
370
-1
  6
ByLayer
 10
92.0
 20
103.4000000000000057
 30
0.0
 11
92.0
 21
83.1200000000000188
 31
0.0
  0
ARC
  5
86
100
AcDbEntity
  8
cuts
 62
256
370
-1
  6
ByLayer
100
AcDbCircle
 10
100.0
 20
83.1200000000000188
 30
0.0
 40
8.0
100
AcDbArc
 50
180.0
 51
270.0
  0
LINE
  5
87
100
AcDbEntity
100
AcDbLine
  8
cuts
 62
256
370
-1
  6
ByLayer
 10
148.0
 20
83.1200000000000188
 30
0.0
 11
148.0
 21
103.4000000000000057
 31
0.0
  0
ARC
  5
88
100
AcDbEntity
  8
cuts
 62
256
370
-1
  6
ByLayer
100
AcDbCircle
 10
140.0
 20
83.1200000000000188
 30
0.0
 40
8.0
100
AcDbArc
 50
270.0
 51
0.0
  0
LINE
  5
89
100
AcDbEntity
100
AcDbLine
  8
carriage_skeleton
 62
256
370
-1
  6
ByLayer
 10
80.0
 20
120.0
 30
0.0
 11
160.0
 21
120.0
 31
0.0
  0
LINE
  5
8A
100
AcDbEntity
100
AcDbLine
  8
carriage_skeleton
 62
256
370
-1
  6
ByLayer
 10
160.0
 20
160.0
 30
0.0
 11
80.0
 21
160.0
 31
0.0
  0
LINE
  5
8B
100
AcDbEntity
100
AcDbLine
  8
carriage_skeleton
 62
256
370
-1
  6
ByLayer
 10
92.0
 20
160.0
 30
0.0
 11
92.0
 21
81.4200000000000159
 31
0.0
  0
LINE
  5
8C
100
AcDbEntity
100
AcDbLine
  8
carriage_skeleton
 62
256
370
-1
  6
ByLayer
 10
97.0
 20
160.0
 30
0.0
 11
97.0
 21
120.0
 31
0.0
  0
LINE
  5
8D
100
AcDbEntity
100
AcDbLine
  8
carriage_skeleton
 62
256
370
-1
  6
ByLayer
 10
97.0
 20
106.5
 30
0.0
 11
97.0
 21
81.4200000000000159
 31
0.0
  0
LINE
  5
8E
100
AcDbEntity
100
AcDbLine
  8
carriage_skeleton
 62
256
370
-1
  6
ByLayer
 10
105.0
 20
160.0
 30
0.0
 11
105.0
 21
120.0
 31
0.0
  0
LINE
  5
8F
100
AcDbEntity
100
AcDbLine
  8
carriage_skeleton
 62
256
370
-1
  6
ByLayer
 10
105.0
 20
106.5
 30
0.0
 11
105.0
 21
81.4200000000000159
 31
0.0
  0
LINE
  5
90
100
AcDbEntity
100
AcDbLine
  8
carriage_skeleton
 62
256
370
-1
  6
ByLayer
 10
111.0
 20
160.0
 30
0.0
 11
111.0
 21
120.0
 31
0.0
  0
LINE
  5
91
100
AcDbEntity
100
AcDbLine
  8
carriage_skeleton
 62
256
370
-1
  6
ByLayer
 10
111.0
 20
106.5
 30
0.0
 11
111.0
 21
81.4200000000000159
 31
0.0
  0
LINE
  5
92
100
AcDbEntity
100
AcDbLine
  8
carriage_skeleton
 62
256
370
-1
  6
ByLayer
 10
135.0
 20
81.4200000000000159
 30
0.0
 11
135.0
 21
106.5
 31
0.0
  0
LINE
  5
93
100
AcDbEntity
100
AcDbLine
  8
carriage_skeleton
 62
256
370
-1
  6
ByLayer
 10
135.0
 20
120.0
 30
0.0
 11
135.0
 21
160.0
 31
0.0
  0
LINE
  5
94
100
AcDbEntity
100
AcDbLine
  8
carriage_skeleton
 62
256
370
-1
  6
ByLayer
 10
143.0
 20
81.4200000000000159
 30
0.0
 11
143.0
 21
106.5
 31
0.0
  0
LINE
  5
95
100
AcDbEntity
100
AcDbLine
  8
carriage_skeleton
 62
256
370
-1
  6
ByLayer
 10
143.0
 20
120.0
 30
0.0
 11
143.0
 21
160.0
 31
0.0
  0
LINE
  5
96
100
AcDbEntity
100
AcDbLine
  8
carriage_skeleton
 62
256
370
-1
  6
ByLayer
 10
148.0
 20
81.4200000000000159
 30
0.0
 11
148.0
 21
106.5
 31
0.0
  0
LINE
  5
97
100
AcDbEntity
100
AcDbLine
  8
carriage_skeleton
 62
256
370
-1
  6
ByLayer
 10
148.0
 20
120.0
 30
0.0
 11
148.0
 21
160.0
 31
0.0
  0
LINE
  5
98
100
AcDbEntity
100
AcDbLine
  8
cuts
 62
256
370
-1
  6
ByLayer
 10
97.0
 20
156.8000000000000114
 30
0.0
 11
105.0
 21
156.8000000000000114
 31
0.0
  0
LINE
  5
99
100
AcDbEntity
100
AcDbLine
  8
cuts
 62
256
370
-1
  6
ByLayer
 10
105.0
 20
156.8000000000000114
 30
0.0
 11
105.0
 21
153.4000000000000057
 31
0.0
  0
LINE
  5
9A
100
AcDbEntity
100
AcDbLine
  8
cuts
 62
256
370
-1
  6
ByLayer
 10
105.0
 20
153.4000000000000057
 30
0.0
 11
97.0
 21
153.4000000000000057
 31
0.0
  0
LINE
  5
9B
100
AcDbEntity
100
AcDbLine
  8
cuts
 62
256
370
-1
  6
ByLayer
 10
97.0
 20
153.4000000000000057
 30
0.0
 11
97.0
 21
156.8000000000000114
 31
0.0
  0
LINE
  5
9C
100
AcDbEntity
100
AcDbLine
  8
cuts
 62
256
370
-1
  6
ByLayer
 10
135.0
 20
156.8000000000000114
 30
0.0
 11
143.0
 21
156.8000000000000114
 31
0.0
  0
LINE
  5
9D
100
AcDbEntity
100
AcDbLine
  8
cuts
 62
256
370
-1
  6
ByLayer
 10
143.0
 20
156.8000000000000114
 30
0.0
 11
143.0
 21
153.4000000000000057
 31
0.0
  0
LINE
  5
9E
100
AcDbEntity
100
AcDbLine
  8
cuts
 62
256
370
-1
  6
ByLayer
 10
143.0
 20
153.4000000000000057
 30
0.0
 11
135.0
 21
153.4000000000000057
 31
0.0
  0
LINE
  5
9F
100
AcDbEntity
100
AcDbLine
  8
cuts
 62
256
370
-1
  6
ByLayer
 10
135.0
 20
153.4000000000000057
 30
0.0
 11
135.0
 21
156.8000000000000114
 31
0.0
  0
LINE
  5
A0
100
AcDbEntity
100
AcDbLine
  8
cuts
 62
256
370
-1
  6
ByLayer
 10
97.0
 20
126.6000000000000085
 30
0.0
 11
105.0
 21
126.6000000000000085
 31
0.0
  0
LINE
  5
A1
100
AcDbEntity
100
AcDbLine
  8
cuts
 62
256
370
-1
  6
ByLayer
 10
105.0
 20
126.6000000000000085
 30
0.0
 11
105.0
 21
123.2000000000000028
 31
0.0
  0
LINE
  5
A2
100
AcDbEntity
100
AcDbLine
  8
cuts
 62
256
370
-1
  6
ByLayer
 10
105.0
 20
123.2000000000000028
 30
0.0
 11
97.0
 21
123.2000000000000028
 31
0.0
  0
LINE
  5
A3
100
AcDbEntity
100
AcDbLine
  8
cuts
 62
256
370
-1
  6
ByLayer
 10
97.0
 20
123.2000000000000028
 30
0.0
 11
97.0
 21
126.6000000000000085
 31
0.0
  0
LINE
  5
A4
100
AcDbEntity
100
AcDbLine
  8
cuts
 62
256
370
-1
  6
ByLayer
 10
135.0
 20
126.6000000000000085
 30
0.0
 11
143.0
 21
126.6000000000000085
 31
0.0
  0
LINE
  5
A5
100
AcDbEntity
100
AcDbLine
  8
cuts
 62
256
370
-1
  6
ByLayer
 10
143.0
 20
126.6000000000000085
 30
0.0
 11
143.0
 21
123.2000000000000028
 31
0.0
  0
LINE
  5
A6
100
AcDbEntity
100
AcDbLine
  8
cuts
 62
256
370
-1
  6
ByLayer
 10
143.0
 20
123.2000000000000028
 30
0.0
 11
135.0
 21
123.2000000000000028
 31
0.0
  0
LINE
  5
A7
100
AcDbEntity
100
AcDbLine
  8
cuts
 62
256
370
-1
  6
ByLayer
 10
135.0
 20
123.2000000000000028
 30
0.0
 11
135.0
 21
126.6000000000000085
 31
0.0
  0
LINE
  5
A8
100
AcDbEntity
100
AcDbLine
  8
carriage_skeleton
 62
256
370
-1
  6
ByLayer
 10
160.0
 20
155.1000000000000227
 30
0.0
 11
80.0
 21
155.1000000000000227
 31
0.0
  0
LINE
  5
A9
100
AcDbEntity
100
AcDbLine
  8
carriage_skeleton
 62
256
370
-1
  6
ByLayer
 10
80.0
 20
124.9000000000000057
 30
0.0
 11
160.0
 21
124.9000000000000057
 31
0.0
  0
CIRCLE
  5
AA
100
AcDbEntity
100
AcDbCircle
  8
cuts
 62
256
370
-1
  6
ByLayer
 10
111.0
 20
155.1000000000000227
 30
0.0
 40
1.5
  0
CIRCLE
  5
AB
100
AcDbEntity
100
AcDbCircle
  8
cuts
 62
256
370
-1
  6
ByLayer
 10
111.0
 20
124.9000000000000057
 30
0.0
 40
1.5
  0
LINE
  5
AC
100
AcDbEntity
100
AcDbLine
  8
cuts
 62
256
370
-1
  6
ByLayer
 10
92.0
 20
160.0
 30
0.0
 11
148.0
 21
160.0
 31
0.0
  0
LINE
  5
AD
100
AcDbEntity
100
AcDbLine
  8
cuts
 62
256
370
-1
  6
ByLayer
 10
148.0
 20
160.0
 30
0.0
 11
148.0
 21
120.0
 31
0.0
  0
LINE
  5
AE
100
AcDbEntity
100
AcDbLine
  8
cuts
 62
256
370
-1
  6
ByLayer
 10
148.0
 20
120.0
 30
0.0
 11
92.0
 21
120.0
 31
0.0
  0
LINE
  5
AF
100
AcDbEntity
100
AcDbLine
  8
cuts
 62
256
370
-1
  6
ByLayer
 10
92.0
 20
120.0
 30
0.0
 11
92.0
 21
160.0
 31
0.0
  0
LINE
  5
B0
100
AcDbEntity
100
AcDbLine
  8
carriage_skeleton
 62
256
370
-1
  6
ByLayer
 10
250.33057193001423
 20
153.4000000000000057
 30
0.0
 11
218.9505719300142061
 21
153.4000000000000057
 31
0.0
  0
LINE
  5
B1
100
AcDbEntity
100
AcDbLine
  8
carriage_skeleton
 62
256
370
-1
  6
ByLayer
 10
250.33057193001423
 20
145.4000000000000057
 30
0.0
 11
218.9505719300142061
 21
145.4000000000000057
 31
0.0
  0
LINE
  5
B2
100
AcDbEntity
100
AcDbLine
  8
carriage_skeleton
 62
256
370
-1
  6
ByLayer
 10
218.9505719300142061
 20
140.0
 30
0.0
 11
250.33057193001423
 21
140.0
 31
0.0
  0
LINE
  5
B3
100
AcDbEntity
100
AcDbLine
  8
carriage_skeleton
 62
256
370
-1
  6
ByLayer
 10
218.9505719300142061
 20
134.6000000000000227
 30
0.0
 11
250.33057193001423
 21
134.6000000000000227
 31
0.0
  0
LINE
  5
B4
100
AcDbEntity
100
AcDbLine
  8
carriage_skeleton
 62
256
370
-1
  6
ByLayer
 10
218.9505719300142061
 20
126.6000000000000085
 30
0.0
 11
250.33057193001423
 21
126.6000000000000085
 31
0.0
  0
LINE
  5
B5
100
AcDbEntity
100
AcDbLine
  8
carriage_skeleton
 62
256
370
-1
  6
ByLayer
 10
80.0
 20
126.6000000000000085
 30
0.0
 11
148.0
 21
126.6000000000000085
 31
0.0
  0
LINE
  5
B6
100
AcDbEntity
100
AcDbLine
  8
carriage_skeleton
 62
256
370
-1
  6
ByLayer
 10
80.0
 20
134.6000000000000227
 30
0.0
 11
148.0
 21
134.6000000000000227
 31
0.0
  0
LINE
  5
B7
100
AcDbEntity
100
AcDbLine
  8
carriage_skeleton
 62
256
370
-1
  6
ByLayer
 10
111.0
 20
140.0
 30
0.0
 11
148.0
 21
140.0
 31
0.0
  0
LINE
  5
B8
100
AcDbEntity
100
AcDbLine
  8
carriage_skeleton
 62
256
370
-1
  6
ByLayer
 10
148.0
 20
145.4000000000000057
 30
0.0
 11
80.0
 21
145.4000000000000057
 31
0.0
  0
LINE
  5
B9
100
AcDbEntity
100
AcDbLine
  8
carriage_skeleton
 62
256
370
-1
  6
ByLayer
 10
148.0
 20
153.4000000000000057
 30
0.0
 11
80.0
 21
153.4000000000000057
 31
0.0
  0
INSERT
  5
BA
100
AcDbEntity
100
AcDbBlockReference
  8
cuts
 62
256
370
-1
  6
ByLayer
  2
m3-t-slot
 10
230.4505719300142061
 20
126.6000000000000085
 30
0.0
 44
1.0
 45
1.0
  0
INSERT
  5
BB
100
AcDbEntity
100
AcDbBlockReference
  8
cuts
 62
256
370
-1
  6
ByLayer
  2
m3-t-slot
 10
230.4505719300142061
 20
153.4000000000000057
 30
0.0
 50
180.0
 44
1.0
 45
1.0
  0
INSERT
  5
BC
100
AcDbEntity
100
AcDbBlockReference
  8
cuts
 62
256
370
-1
  6
ByLayer
  2
m3-t-slot
 10
222.0505719300144847
 20
140.0
 30
0.0
 50
270.0
 44
1.0
 45
1.0
  0
LINE
  5
BD
100
AcDbEntity
100
AcDbLine
  8
carriage_skeleton
 62
256
370
-1
  6
ByLayer
 10
250.33057193001423
 20
156.8000000000000114
 30
0.0
 11
80.0
 21
156.8000000000000114
 31
0.0
  0
LINE
  5
BE
100
AcDbEntity
100
AcDbLine
  8
carriage_skeleton
 62
256
370
-1
  6
ByLayer
 10
80.0
 20
123.2000000000000028
 30
0.0
 11
250.3305719300141732
 21
123.2000000000000028
 31
0.0
  0
LINE
  5
BF
100
AcDbEntity
100
AcDbLine
  8
cuts
 62
256
370
-1
  6
ByLayer
 10
228.9505719300142061
 20
153.4000000000000057
 30
0.0
 11
218.9505719300142061
 21
153.4000000000000057
 31
0.0
  0
LINE
  5
C0
100
AcDbEntity
100
AcDbLine
  8
cuts
 62
256
370
-1
  6
ByLayer
 10
218.9505719300142061
 20
153.4000000000000057
 30
0.0
 11
218.9505719300142061
 21
145.4000000000000057
 31
0.0
  0
LINE
  5
C1
100
AcDbEntity
100
AcDbLine
  8
cuts
 62
256
370
-1
  6
ByLayer
 10
218.9505719300142061
 20
145.4000000000000057
 30
0.0
 11
222.0505719300145415
 21
145.4000000000000057
 31
0.0
  0
LINE
  5
C2
100
AcDbEntity
100
AcDbLine
  8
cuts
 62
256
370
-1
  6
ByLayer
 10
222.0505719300145415
 20
145.4000000000000057
 30
0.0
 11
222.0505719300144847
 21
141.5
 31
0.0
  0
LINE
  5
C3
100
AcDbEntity
100
AcDbLine
  8
cuts
 62
256
370
-1
  6
ByLayer
 10
222.0505719300144563
 20
138.5
 30
0.0
 11
222.0505719300143994
 21
134.6000000000000227
 31
0.0
  0
LINE
  5
C4
100
AcDbEntity
100
AcDbLine
  8
cuts
 62
256
370
-1
  6
ByLayer
 10
222.0505719300143994
 20
134.6000000000000227
 30
0.0
 11
218.9505719300142061
 21
134.6000000000000227
 31
0.0
  0
LINE
  5
C5
100
AcDbEntity
100
AcDbLine
  8
cuts
 62
256
370
-1
  6
ByLayer
 10
218.9505719300142061
 20
134.6000000000000227
 30
0.0
 11
218.9505719300142061
 21
126.6000000000000085
 31
0.0
  0
LINE
  5
C6
100
AcDbEntity
100
AcDbLine
  8
cuts
 62
256
370
-1
  6
ByLayer
 10
218.9505719300142061
 20
126.6000000000000085
 30
0.0
 11
228.9505719300142061
 21
126.6000000000000085
 31
0.0
  0
LINE
  5
C7
100
AcDbEntity
100
AcDbLine
  8
carriage_constraints
 62
256
370
-1
  6
ByLayer
 10
132.0
 20
100.0
 30
0.0
 11
132.0
 21
47.3400000000000176
 31
0.0
  0
LINE
  5
C8
100
AcDbEntity
100
AcDbLine
  8
carriage_constraints
 62
256
370
-1
  6
ByLayer
 10
134.0
 20
100.0
 30
0.0
 11
134.0
 21
47.3400000000000176
 31
0.0
  0
LINE
  5
C9
100
AcDbEntity
100
AcDbLine
  8
carriage_constraints
 62
256
370
-1
  6
ByLayer
 10
106.0
 20
47.3400000000000176
 30
0.0
 11
106.0
 21
100.0
 31
0.0
  0
LINE
  5
CA
100
AcDbEntity
100
AcDbLine
  8
carriage_constraints
 62
256
370
-1
  6
ByLayer
 10
119.0
 20
47.3400000000000105
 30
0.0
 11
119.0
 21
100.0
 31
0.0
  0
LINE
  5
CB
100
AcDbEntity
100
AcDbLine
  8
carriage_constraints
 62
256
370
-1
  6
ByLayer
 10
40.0
 20
83.1200000000000188
 30
0.0
 11
148.0
 21
83.1200000000000188
 31
0.0
  0
LINE
  5
CC
100
AcDbEntity
100
AcDbLine
  8
carriage_constraints
 62
256
370
-1
  6
ByLayer
 10
40.0
 20
77.1200000000000188
 30
0.0
 11
148.0
 21
77.1200000000000188
 31
0.0
  0
LINE
  5
CD
100
AcDbEntity
100
AcDbLine
  8
carriage_skeleton
 62
256
370
-1
  6
ByLayer
 10
124.2999999999999972
 20
160.0
 30
0.0
 11
124.2999999999999972
 21
120.0
 31
0.0
  0
LINE
  5
CE
100
AcDbEntity
100
AcDbLine
  8
carriage_skeleton
 62
256
370
-1
  6
ByLayer
 10
127.7000000000000028
 20
160.0
 30
0.0
 11
127.7000000000000028
 21
120.0
 31
0.0
  0
LINE
  5
CF
100
AcDbEntity
100
AcDbLine
  8
cuts
 62
256
370
-1
  6
ByLayer
 10
124.2999999999999972
 20
153.4000000000000057
 30
0.0
 11
127.7000000000000028
 21
153.4000000000000057
 31
0.0
  0
LINE
  5
D0
100
AcDbEntity
100
AcDbLine
  8
cuts
 62
256
370
-1
  6
ByLayer
 10
127.7000000000000028
 20
153.4000000000000057
 30
0.0
 11
127.7000000000000028
 21
145.4000000000000057
 31
0.0
  0
LINE
  5
D1
100
AcDbEntity
100
AcDbLine
  8
cuts
 62
256
370
-1
  6
ByLayer
 10
127.7000000000000028
 20
145.4000000000000057
 30
0.0
 11
124.2999999999999972
 21
145.4000000000000057
 31
0.0
  0
LINE
  5
D2
100
AcDbEntity
100
AcDbLine
  8
cuts
 62
256
370
-1
  6
ByLayer
 10
124.2999999999999972
 20
145.4000000000000057
 30
0.0
 11
124.2999999999999972
 21
153.4000000000000057
 31
0.0
  0
LINE
  5
D3
100
AcDbEntity
100
AcDbLine
  8
cuts
 62
256
370
-1
  6
ByLayer
 10
124.2999999999999972
 20
134.6000000000000227
 30
0.0
 11
127.7000000000000028
 21
134.6000000000000227
 31
0.0
  0
LINE
  5
D4
100
AcDbEntity
100
AcDbLine
  8
cuts
 62
256
370
-1
  6
ByLayer
 10
127.7000000000000028
 20
134.6000000000000227
 30
0.0
 11
127.7000000000000028
 21
126.6000000000000085
 31
0.0
  0
LINE
  5
D5
100
AcDbEntity
100
AcDbLine
  8
cuts
 62
256
370
-1
  6
ByLayer
 10
127.7000000000000028
 20
126.6000000000000085
 30
0.0
 11
124.2999999999999972
 21
126.6000000000000085
 31
0.0
  0
LINE
  5
D6
100
AcDbEntity
100
AcDbLine
  8
cuts
 62
256
370
-1
  6
ByLayer
 10
124.2999999999999972
 20
126.6000000000000085
 30
0.0
 11
124.2999999999999972
 21
134.6000000000000227
 31
0.0
  0
CIRCLE
  5
D7
100
AcDbEntity
100
AcDbCircle
  8
cuts
 62
256
370
-1
  6
ByLayer
 10
126.0
 20
140.0
 30
0.0
 40
1.5
  0
CIRCLE
  5
D8
100
AcDbEntity
100
AcDbCircle
  8
cuts
 62
256
370
-1
  6
ByLayer
 10
126.0
 20
95.0
 30
0.0
 40
1.5
  0
CIRCLE
  5
D9
100
AcDbEntity
100
AcDbCircle
  8
carriage_skeleton
 62
256
370
-1
  6
ByLayer
 10
140.0
 20
90.0
 30
0.0
 40
7.5
  0
CIRCLE
  5
DA
100
AcDbEntity
100
AcDbCircle
  8
carriage_skeleton
 62
256
370
-1
  6
ByLayer
 10
100.0
 20
90.0
 30
0.0
 40
7.5
  0
CIRCLE
  5
DB
100
AcDbEntity
100
AcDbCircle
  8
cuts
 62
256
370
-1
  6
ByLayer
 10
140.0
 20
90.0
 30
0.0
 40
5.0
  0
CIRCLE
  5
DC
100
AcDbEntity
100
AcDbCircle
  8
cuts
 62
256
370
-1
  6
ByLayer
 10
100.0
 20
90.0
 30
0.0
 40
5.0
  0
LINE
  5
DD
100
AcDbEntity
100
AcDbLine
  8
cuts
 62
256
370
-1
  6
ByLayer
 10
100.0
 20
75.1200000000000188
 30
0.0
 11
106.0
 21
75.1200000000000188
 31
0.0
  0
LINE
  5
DE
100
AcDbEntity
100
AcDbLine
  8
cuts
 62
256
370
-1
  6
ByLayer
 10
250.3305719300142016
 20
126.6000000000000085
 30
0.0
 11
250.33057193001423
 21
153.4000000000000057
 31
0.0
  0
LINE
  5
DF
100
AcDbEntity
100
AcDbLine
  8
carriage_skeleton
 62
256
370
-1
  6
ByLayer
 10
243.3305719300142016
 20
126.6000000000000085
 30
0.0
 11
243.33057193001423
 21
153.4000000000000057
 31
0.0
  0
LINE
  5
E0
100
AcDbEntity
100
AcDbLine
  8
carriage_skeleton
 62
256
370
-1
  6
ByLayer
 10
40.0
 20
82.1200000000000188
 30
0.0
 11
148.0
 21
82.1200000000000188
 31
0.0
  0
LINE
  5
E1
100
AcDbEntity
100
AcDbLine
  8
carriage_skeleton
 62
256
370
-1
  6
ByLayer
 10
126.0
 20
160.0
 30
0.0
 11
126.0
 21
82.1200000000000188
 31
0.0
  0
CIRCLE
  5
E2
100
AcDbEntity
100
AcDbCircle
  8
cuts
 62
256
370
-1
  6
ByLayer
 10
126.0000000000000142
 20
82.1200000000000188
 30
0.0
 40
1.5
  0
INSERT
  5
E3
100
AcDbEntity
100
AcDbBlockReference
  8
cuts
 62
256
370
-1
  6
ByLayer
  2
m3-t-slot
 10
243.3305719300142016
 20
126.6000000000000085
 30
0.0
 44
1.0
 45
1.0
  0
INSERT
  5
E4
100
AcDbEntity
100
AcDbBlockReference
  8
cuts
 62
256
370
-1
  6
ByLayer
  2
m3-t-slot
 10
243.33057193001423
 20
153.4000000000000057
 30
0.0
 50
180.0
 44
1.0
 45
1.0
  0
LINE
  5
E5
100
AcDbEntity
100
AcDbLine
  8
cuts
 62
256
370
-1
  6
ByLayer
 10
250.33057193001423
 20
153.4000000000000057
 30
0.0
 11
244.83057193001423
 21
153.4000000000000057
 31
0.0
  0
LINE
  5
E6
100
AcDbEntity
100
AcDbLine
  8
cuts
 62
256
370
-1
  6
ByLayer
 10
241.83057193001423
 20
153.4000000000000057
 30
0.0
 11
231.9505719300142061
 21
153.4000000000000057
 31
0.0
  0
LINE
  5
E7
100
AcDbEntity
100
AcDbLine
  8
cuts
 62
256
370
-1
  6
ByLayer
 10
231.9505719300142061
 20
126.6000000000000085
 30
0.0
 11
241.8305719300142016
 21
126.6000000000000085
 31
0.0
  0
LINE
  5
E8
100
AcDbEntity
100
AcDbLine
  8
cuts
 62
256
370
-1
  6
ByLayer
 10
244.8305719300142016
 20
126.6000000000000085
 30
0.0
 11
250.3305719300142016
 21
126.6000000000000085
 31
0.0
  0
LINE
  5
E9
100
AcDbEntity
100
AcDbLine
  8
carriage_skeleton
 62
256
370
-1
  6
ByLayer
 10
122.0
 20
99.0
 30
0.0
 11
122.0
 21
74.0
 31
0.0
  0
LINE
  5
EA
100
AcDbEntity
100
AcDbLine
  8
carriage_skeleton
 62
256
370
-1
  6
ByLayer
 10
130.0
 20
99.0
 30
0.0
 11
130.0
 21
74.0
 31
0.0
  0
LINE
  5
EB
100
AcDbEntity
100
AcDbLine
  8
carriage_skeleton
 62
256
370
-1
  6
ByLayer
 10
130.0
 20
99.0
 30
0.0
 11
122.0
 21
99.0
 31
0.0
  0
LINE
  5
EC
100
AcDbEntity
100
AcDbLine
  8
carriage_skeleton
 62
256
370
-1
  6
ByLayer
 10
133.0
 20
83.5
 30
0.0
 11
130.0
 21
86.5
 31
0.0
  0
LINE
  5
ED
100
AcDbEntity
100
AcDbLine
  8
clamp
 62
256
370
-1
  6
ByLayer
 10
127.3000000000000114
 20
38.0
 30
0.0
 11
127.0
 21
37.5
 31
0.0
  0
LINE
  5
EE
100
AcDbEntity
100
AcDbLine
  8
clamp
 62
256
370
-1
  6
ByLayer
 10
127.0
 20
37.5
 30
0.0
 11
127.3000000000000114
 21
37.0
 31
0.0
  0
LINE
  5
EF
100
AcDbEntity
100
AcDbLine
  8
clamp
 62
256
370
-1
  6
ByLayer
 10
127.3000000000000114
 20
37.0
 30
0.0
 11
127.0
 21
36.5
 31
0.0
  0
LINE
  5
F0
100
AcDbEntity
100
AcDbLine
  8
clamp
 62
256
370
-1
  6
ByLayer
 10
127.0
 20
36.5
 30
0.0
 11
127.3000000000000114
 21
36.0
 31
0.0
  0
LINE
  5
F1
100
AcDbEntity
100
AcDbLine
  8
clamp
 62
256
370
-1
  6
ByLayer
 10
127.3000000000000114
 20
36.0
 30
0.0
 11
127.0
 21
35.5
 31
0.0
  0
LINE
  5
F2
100
AcDbEntity
100
AcDbLine
  8
clamp
 62
256
370
-1
  6
ByLayer
 10
127.0
 20
35.5
 30
0.0
 11
127.3000000000000114
 21
35.0
 31
0.0
  0
LINE
  5
F3
100
AcDbEntity
100
AcDbLine
  8
clamp
 62
256
370
-1
  6
ByLayer
 10
127.3000000000000114
 20
35.0
 30
0.0
 11
127.0
 21
34.5
 31
0.0
  0
LINE
  5
F4
100
AcDbEntity
100
AcDbLine
  8
clamp
 62
256
370
-1
  6
ByLayer
 10
127.0
 20
34.5
 30
0.0
 11
127.3000000000000114
 21
34.0
 31
0.0
  0
LINE
  5
F5
100
AcDbEntity
100
AcDbLine
  8
clamp
 62
256
370
-1
  6
ByLayer
 10
127.3000000000000114
 20
34.0
 30
0.0
 11
127.0
 21
33.5
 31
0.0
  0
LINE
  5
F6
100
AcDbEntity
100
AcDbLine
  8
clamp
 62
256
370
-1
  6
ByLayer
 10
127.0
 20
33.5
 30
0.0
 11
127.3000000000000114
 21
33.0
 31
0.0
  0
LINE
  5
F7
100
AcDbEntity
100
AcDbLine
  8
clamp
 62
256
370
-1
  6
ByLayer
 10
127.3000000000000114
 20
33.0
 30
0.0
 11
127.0
 21
32.5
 31
0.0
  0
LINE
  5
F8
100
AcDbEntity
100
AcDbLine
  8
clamp
 62
256
370
-1
  6
ByLayer
 10
127.0
 20
38.5
 30
0.0
 11
127.3000000000000114
 21
38.0
 31
0.0
  0
LINE
  5
F9
100
AcDbEntity
100
AcDbLine
  8
clamp
 62
256
370
-1
  6
ByLayer
 10
127.2280000000000086
 20
32.1200000000000188
 30
0.0
 11
130.0
 21
32.1200000000000188
 31
0.0
  0
LINE
  5
FA
100
AcDbEntity
100
AcDbLine
  8
clamp
 62
256
370
-1
  6
ByLayer
 10
127.0
 20
32.5
 30
0.0
 11
127.2280000000000086
 21
32.1200000000000188
 31
0.0
  0
LINE
  5
FB
100
AcDbEntity
100
AcDbLine
  8
clamp
 62
256
370
-1
  6
ByLayer
 10
130.0
 20
32.1200000000000188
 30
0.0
 11
130.0
 21
30.1200000000000188
 31
0.0
  0
LINE
  5
FC
100
AcDbEntity
100
AcDbLine
  8
clamp
 62
256
370
-1
  6
ByLayer
 10
125.4644660940672622
 20
40.0355339059327378
 30
0.0
 11
127.0
 21
38.5
 31
0.0
  0
ARC
  5
FD
100
AcDbEntity
  8
clamp
 62
256
370
-1
  6
ByLayer
100
AcDbCircle
 10
129.0
 20
43.5710678118654755
 30
0.0
 40
5.0
100
AcDbArc
 50
180.0
 51
225.0
  0
LINE
  5
FE
100
AcDbEntity
100
AcDbLine
  8
clamp
 62
256
370
-1
  6
ByLayer
 10
124.0
 20
51.0
 30
0.0
 11
124.0
 21
43.5710678118654755
 31
0.0
  0
ARC
  5
FF
100
AcDbEntity
  8
clamp
 62
256
370
-1
  6
ByLayer
100
AcDbCircle
 10
121.0
 20
51.0
 30
0.0
 40
3.0
100
AcDbArc
 50
0.0
 51
90.0
  0
LINE
  5
100
100
AcDbEntity
100
AcDbLine
  8
clamp
 62
256
370
-1
  6
ByLayer
 10
119.0
 20
54.0
 30
0.0
 11
121.0
 21
54.0
 31
0.0
  0
ARC
  5
101
100
AcDbEntity
  8
clamp
 62
256
370
-1
  6
ByLayer
100
AcDbCircle
 10
119.0
 20
51.0
 30
0.0
 40
3.0
100
AcDbArc
 50
90.0
 51
180.0
  0
LINE
  5
102
100
AcDbEntity
100
AcDbLine
  8
clamp
 62
256
370
-1
  6
ByLayer
 10
116.0
 20
33.1200000000000188
 30
0.0
 11
116.0
 21
51.0
 31
0.0
  0
LINE
  5
103
100
AcDbEntity
100
AcDbLine
  8
clamp
 62
256
370
-1
  6
ByLayer
 10
130.0
 20
30.1200000000000188
 30
0.0
 11
119.0
 21
30.1200000000000188
 31
0.0
  0
ARC
  5
104
100
AcDbEntity
  8
clamp
 62
256
370
-1
  6
ByLayer
100
AcDbCircle
 10
119.0
 20
33.1200000000000188
 30
0.0
 40
3.0
100
AcDbArc
 50
180.0
 51
270.0
  0
CIRCLE
  5
105
100
AcDbEntity
100
AcDbCircle
  8
clamp
 62
256
370
-1
  6
ByLayer
 10
120.0
 20
50.0
 30
0.0
 40
1.5
  0
CIRCLE
  5
106
100
AcDbEntity
100
AcDbCircle
  8
clamp
 62
256
370
-1
  6
ByLayer
 10
120.0000000000000142
 20
37.1200000000000188
 30
0.0
 40
1.5
  0
LINE
  5
107
100
AcDbEntity
100
AcDbLine
  8
cuts
 62
256
370
-1
  6
ByLayer
 10
112.5
 20
103.4000000000000057
 30
0.0
 11
135.0
 21
103.4000000000000057
 31
0.0
  0
LINE
  5
108
100
AcDbEntity
100
AcDbLine
  8
cuts
 62
256
370
-1
  6
ByLayer
 10
106.0
 20
75.1200000000000188
 30
0.0
 11
106.0
 21
84.9200000000000159
 31
0.0
  0
LINE
  5
109
100
AcDbEntity
100
AcDbLine
  8
cuts
 62
256
370
-1
  6
ByLayer
 10
106.0
 20
84.9200000000000159
 30
0.0
 11
119.0
 21
84.9200000000000159
 31
0.0
  0
LINE
  5
10A
100
AcDbEntity
100
AcDbLine
  8
cuts
 62
256
370
-1
  6
ByLayer
 10
119.0
 20
84.9200000000000159
 30
0.0
 11
119.0
 21
75.1200000000000188
 31
0.0
  0
LINE
  5
10B
100
AcDbEntity
100
AcDbLine
  8
cuts
 62
256
370
-1
  6
ByLayer
 10
133.8000000000000114
 20
75.1200000000000188
 30
0.0
 11
140.0
 21
75.1200000000000188
 31
0.0
  0
LINE
  5
10C
100
AcDbEntity
100
AcDbLine
  8
cuts
 62
256
370
-1
  6
ByLayer
 10
133.8000000000000114
 20
83.1200000000000188
 30
0.0
 11
133.8000000000000114
 21
75.1200000000000188
 31
0.0
  0
LINE
  5
10D
100
AcDbEntity
100
AcDbLine
  8
cuts
 62
256
370
-1
  6
ByLayer
 10
119.0
 20
75.1200000000000188
 30
0.0
 11
131.7000000000000171
 21
75.1200000000000188
 31
0.0
  0
LINE
  5
10E
100
AcDbEntity
100
AcDbLine
  8
cuts
 62
256
370
-1
  6
ByLayer
 10
131.7000000000000171
 20
75.1200000000000188
 30
0.0
 11
131.7000000000000171
 21
83.1200000000000188
 31
0.0
  0
LINE
  5
10F
100
AcDbEntity
100
AcDbLine
  8
cuts
 62
256
370
-1
  6
ByLayer
 10
131.7000000000000171
 20
83.1200000000000188
 30
0.0
 11
133.8000000000000114
 21
83.1200000000000188
 31
0.0
  0
LINE
  5
110
100
AcDbEntity
100
AcDbLine
  8
cuts
 62
256
370
-1
  6
ByLayer
 10
198.0
 20
90.0
 30
0.0
 11
262.0
 21
90.0
 31
0.0
  0
LINE
  5
111
100
AcDbEntity
100
AcDbLine
  8
cuts
 62
256
370
-1
  6
ByLayer
 10
262.0
 20
90.0
 30
0.0
 11
262.0
 21
30.0
 31
0.0
  0
LINE
  5
112
100
AcDbEntity
100
AcDbLine
  8
cuts
 62
256
370
-1
  6
ByLayer
 10
198.0
 20
30.0000000000000071
 30
0.0
 11
198.0
 21
90.0
 31
0.0
  0
LINE
  5
113
100
AcDbEntity
100
AcDbLine
  8
cuts
 62
256
370
-1
  6
ByLayer
 10
262.0
 20
30.0
 30
0.0
 11
198.0
 21
30.0000000000000071
 31
0.0
  0
CIRCLE
  5
114
100
AcDbEntity
100
AcDbCircle
  8
cuts
 62
256
370
-1
  6
ByLayer
 10
221.0
 20
75.1000000000000227
 30
0.0
 40
2.7000000000000002
  0
CIRCLE
  5
115
100
AcDbEntity
100
AcDbCircle
  8
cuts
 62
256
370
-1
  6
ByLayer
 10
236.0
 20
60.0
 30
0.0
 40
2.7000000000000002
  0
CIRCLE
  5
116
100
AcDbEntity
100
AcDbCircle
  8
cuts
 62
256
370
-1
  6
ByLayer
 10
221.0
 20
44.9000000000000057
 30
0.0
 40
2.7000000000000002
  0
LINE
  5
117
100
AcDbEntity
100
AcDbLine
  8
carriage_skeleton
 62
256
370
-1
  6
ByLayer
 10
248.3305719300142016
 20
126.6000000000000085
 30
0.0
 11
248.33057193001423
 21
153.4000000000000057
 31
0.0
  0
LINE
  5
118
100
AcDbEntity
100
AcDbLine
  8
carriage_skeleton
 62
256
370
-1
  6
ByLayer
 10
242.3305719300142016
 20
126.6000000000000085
 30
0.0
 11
242.33057193001423
 21
153.4000000000000057
 31
0.0
  0
LINE
  5
119
100
AcDbEntity
100
AcDbLine
  8
cuts
 62
256
370
-1
  6
ByLayer
 10
242.3305719300142016
 20
139.5500000000000114
 30
0.0
 11
248.3305719300142016
 21
139.5500000000000114
 31
0.0
  0
LINE
  5
11A
100
AcDbEntity
100
AcDbLine
  8
cuts
 62
256
370
-1
  6
ByLayer
 10
248.3305719300142016
 20
139.5500000000000114
 30
0.0
 11
248.3305719300142016
 21
140.4500000000000171
 31
0.0
  0
LINE
  5
11B
100
AcDbEntity
100
AcDbLine
  8
cuts
 62
256
370
-1
  6
ByLayer
 10
248.3305719300142016
 20
140.4500000000000171
 30
0.0
 11
242.3305719300142016
 21
140.4500000000000171
 31
0.0
  0
LINE
  5
11C
100
AcDbEntity
100
AcDbLine
  8
cuts
 62
256
370
-1
  6
ByLayer
 10
242.3305719300142016
 20
140.4500000000000171
 30
0.0
 11
242.3305719300142016
 21
139.5500000000000114
 31
0.0
  0
LINE
  5
11D
100
AcDbEntity
100
AcDbLine
  8
cuts
 62
256
370
-1
  6
ByLayer
 10
242.3305719300142016
 20
141.5500000000000114
 30
0.0
 11
248.3305719300142016
 21
141.5500000000000114
 31
0.0
  0
LINE
  5
11E
100
AcDbEntity
100
AcDbLine
  8
cuts
 62
256
370
-1
  6
ByLayer
 10
248.3305719300142016
 20
141.5500000000000114
 30
0.0
 11
248.3305719300142016
 21
142.4500000000000171
 31
0.0
  0
LINE
  5
11F
100
AcDbEntity
100
AcDbLine
  8
cuts
 62
256
370
-1
  6
ByLayer
 10
248.3305719300142016
 20
142.4500000000000171
 30
0.0
 11
242.3305719300142016
 21
142.4500000000000171
 31
0.0
  0
LINE
  5
120
100
AcDbEntity
100
AcDbLine
  8
cuts
 62
256
370
-1
  6
ByLayer
 10
242.3305719300142016
 20
142.4500000000000171
 30
0.0
 11
242.3305719300142016
 21
141.5500000000000114
 31
0.0
  0
LINE
  5
121
100
AcDbEntity
100
AcDbLine
  8
cuts
 62
256
370
-1
  6
ByLayer
 10
242.3305719300142016
 20
137.5500000000000114
 30
0.0
 11
248.3305719300142016
 21
137.5500000000000114
 31
0.0
  0
LINE
  5
122
100
AcDbEntity
100
AcDbLine
  8
cuts
 62
256
370
-1
  6
ByLayer
 10
248.3305719300142016
 20
137.5500000000000114
 30
0.0
 11
248.3305719300142016
 21
138.4500000000000171
 31
0.0
  0
LINE
  5
123
100
AcDbEntity
100
AcDbLine
  8
cuts
 62
256
370
-1
  6
ByLayer
 10
248.3305719300142016
 20
138.4500000000000171
 30
0.0
 11
242.3305719300142016
 21
138.4500000000000171
 31
0.0
  0
LINE
  5
124
100
AcDbEntity
100
AcDbLine
  8
cuts
 62
256
370
-1
  6
ByLayer
 10
242.3305719300142016
 20
138.4500000000000171
 30
0.0
 11
242.3305719300142016
 21
137.5500000000000114
 31
0.0
  0
CIRCLE
  5
125
100
AcDbEntity
100
AcDbCircle
  8
cuts
 62
256
370
-1
  6
ByLayer
 10
234.6405719300142323
 20
140.0
 30
0.0
 40
1.5
  0
CIRCLE
  5
126
100
AcDbEntity
100
AcDbCircle
  8
inner-clamp
 62
256
370
-1
  6
ByLayer
 10
264.6405719300142323
 20
140.0
 30
0.0
 40
1.5
  0
MTEXT
  5
127
100
AcDbEntity
100
AcDbMText
  8
documentation
 62
256
370
-1
  6
ByLayer
 10
160.0
 20
40.0
 30
0.0
 40
8.0
 41
100.0
 71
4
 72
0
  1
x2
  7
standard
 50
0.0
 73
1
 44
1.0
  0
MTEXT
  5
128
100
AcDbEntity
100
AcDbMText
  8
documentation
 62
256
370
-1
  6
ByLayer
 10
160.0
 20
90.0
 30
0.0
 40
8.0
 41
100.0
 71
4
 72
0
  1
x2
  7
standard
 50
0.0
 73
1
 44
1.0
  0
LINE
  5
129
100
AcDbEntity
100
AcDbLine
  8
inner-clamp
 62
256
370
-1
  6
ByLayer
 10
264.6405719300142323
 20
145.0899999999997476
 30
0.0
 11
280.0
 21
145.0899999999997476
 31
0.0
  0
LINE
  5
12A
100
AcDbEntity
100
AcDbLine
  8
inner-clamp
 62
256
370
-1
  6
ByLayer
 10
264.6405719300142323
 20
134.9100000000002524
 30
0.0
 11
280.0
 21
134.9100000000002524
 31
0.0
  0
LINE
  5
12B
100
AcDbEntity
100
AcDbLine
  8
inner-clamp
 62
256
370
-1
  6
ByLayer
 10
280.0
 20
145.0899999999997476
 30
0.0
 11
280.0
 21
134.9100000000002524
 31
0.0
  0
ARC
  5
12C
100
AcDbEntity
  8
inner-clamp
 62
256
370
-1
  6
ByLayer
100
AcDbCircle
 10
264.6405719300142323
 20
140.0
 30
0.0
 40
5.0899999999997467
100
AcDbArc
 50
90.0
 51
270.0
  0
ENDSEC
  0
SECTION
  2
OBJECTS
  0
DICTIONARY
  5
C
100
AcDbDictionary
280
0
281
1
  3
ACAD_GROUP
350
D
  3
ACAD_LAYOUT
350
1A
  3
ACAD_MLINESTYLE
350
17
  3
ACAD_PLOTSETTINGS
350
19
  3
ACAD_PLOTSTYLENAME
350
E
  3
AcDbVariableDictionary
350
12D
  0
DICTIONARY
  5
D
100
AcDbDictionary
280
0
281
1
  0
ACDBDICTIONARYWDFLT
  5
E
100
AcDbDictionary
281
1
  3
Normal
350
F
100
AcDbDictionaryWithDefault
340
F
  0
ACDBPLACEHOLDER
  5
F
  0
DICTIONARY
  5
17
100
AcDbDictionary
280
0
281
1
  3
Standard
350
18
  0
MLINESTYLE
  5
18
100
AcDbMlineStyle
  2
STANDARD
 70
0
  3

 62
256
 51
90.0
 52
90.0
 71
2
 49
0.5
 62
256
  6
BYLAYER
 49
-0.5
 62
256
  6
BYLAYER
  0
DICTIONARY
  5
19
100
AcDbDictionary
280
0
281
1
  0
DICTIONARY
  5
1A
100
AcDbDictionary
281
1
  3
Layout1
350
1E
  3
Layout2
350
26
  3
Model
350
22
  0
LAYOUT
  5
1E
100
AcDbPlotSettings
  1

  2
C:\Program Files\AutoCAD 2002\plotters\DWF ePlot (optimized for plotting).pc3
  4

  6

 40
0.0
 41
0.0
 42
0.0
 43
0.0
 44
0.0
 45
0.0
 46
0.0
 47
0.0
 48
0.0
 49
0.0
140
0.0
141
0.0
142
1.0
143
1.0
 70
688
 72
0
 73
0
 74
5
  7

 75
16
147
1.0
148
0.0
149
0.0
100
AcDbLayout
  1
Layout1
 70
1
 71
1
 10
0.0
 20
0.0
 11
420.0
 21
297.0
 12
0.0
 22
0.0
 32
0.0
 14
100000000000000000000.0
 24
100000000000000000000.0
 34
100000000000000000000.0
 15
-100000000000000000000.0
 25
-100000000000000000000.0
 35
-100000000000000000000.0
146
0.0
 13
0.0
 23
0.0
 33
0.0
 16
1.0
 26
0.0
 36
0.0
 17
0.0
 27
1.0
 37
0.0
 76
0
330
1B
  0
LAYOUT
  5
22
100
AcDbPlotSettings
  1

  2
C:\Program Files\AutoCAD 2002\plotters\DWF ePlot (optimized for plotting).pc3
  4

  6

 40
0.0
 41
0.0
 42
0.0
 43
0.0
 44
0.0
 45
0.0
 46
0.0
 47
0.0
 48
0.0
 49
0.0
140
0.0
141
0.0
142
1.0
143
1.0
 70
1712
 72
0
 73
0
 74
0
  7

 75
0
147
1.0
148
0.0
149
0.0
100
AcDbLayout
  1
Model
 70
1
 71
0
 10
0.0
 20
0.0
 11
12.0
 21
9.0
 12
0.0
 22
0.0
 32
0.0
 14
0.0
 24
0.0
 34
0.0
 15
0.0
 25
0.0
 35
0.0
146
0.0
 13
0.0
 23
0.0
 33
0.0
 16
1.0
 26
0.0
 36
0.0
 17
0.0
 27
1.0
 37
0.0
 76
0
330
1F
  0
LAYOUT
  5
26
100
AcDbPlotSettings
  1

  2
C:\Program Files\AutoCAD 2002\plotters\DWF ePlot (optimized for plotting).pc3
  4

  6

 40
0.0
 41
0.0
 42
0.0
 43
0.0
 44
0.0
 45
0.0
 46
0.0
 47
0.0
 48
0.0
 49
0.0
140
0.0
141
0.0
142
1.0
143
1.0
 70
688
 72
0
 73
0
 74
5
  7

 75
16
147
1.0
148
0.0
149
0.0
100
AcDbLayout
  1
Layout2
 70
1
 71
2
 10
0.0
 20
0.0
 11
12.0
 21
9.0
 12
0.0
 22
0.0
 32
0.0
 14
0.0
 24
0.0
 34
0.0
 15
0.0
 25
0.0
 35
0.0
146
0.0
 13
0.0
 23
0.0
 33
0.0
 16
1.0
 26
0.0
 36
0.0
 17
0.0
 27
1.0
 37
0.0
 76
0
330
23
  0
DICTIONARY
  5
12D
100
AcDbDictionary
281
1
  3
DIMASSOC
350
12F
  3
HIDETEXT
350
12E
  0
DICTIONARYVAR
  5
12E
100
DictionaryVariables
280
0
  1
2
  0
DICTIONARYVAR
  5
12F
100
DictionaryVariables
280
0
  1
1
  0
ENDSEC
  0
EOF
