999
dxflib 2.2.0.0
  0
SECTION
  2
HEADER
  9
$ACADVER
  1
AC1015
  9
$HANDSEED
  5
FFFF
  9
$DIMASZ
 40
2.5
  9
$PLIMMIN
 10
0.0
 20
0.0
  9
$DIMEXE
 40
1.25
  9
$DIMGAP
 40
0.625
  9
$PLIMMAX
 10
210.0
 20
297.0
  9
$INSUNITS
 70
4
  9
$DIMSTYLE
  2
Standard
  9
$CLAYER
  8
cuts
  9
$DIMEXO
 40
0.625
  9
$DIMTXT
 40
2.5
  9
$CLAYER
  8
cuts
  0
ENDSEC
  0
SECTION
  2
TABLES
  0
TABLE
  2
VPORT
  5
8
100
AcDbSymbolTable
 70
1
  0
VPORT
  5
30
100
AcDbSymbolTableRecord
100
AcDbViewportTableRecord
  2
*Active
 70
0
 10
0.0
 20
0.0
 11
1.0
 21
1.0
 12
286.3055555555554861
 22
148.5
 13
0.0
 23
0.0
 14
10.0
 24
10.0
 15
10.0
 25
10.0
 16
0.0
 26
0.0
 36
1.0
 17
0.0
 27
0.0
 37
0.0
 40
297.0
 41
1.92798353909465
 42
50.0
 43
0.0
 44
0.0
 50
0.0
 51
0.0
 71
0
 72
100
 73
1
 74
3
 75
1
 76
1
 77
0
 78
0
281
0
 65
1
110
0.0
120
0.0
130
0.0
111
1.0
121
0.0
131
0.0
112
0.0
122
1.0
132
0.0
 79
0
146
0.0
  0
ENDTAB
  0
TABLE
  2
LTYPE
  5
5
100
AcDbSymbolTable
 70
21
  0
LTYPE
  5
14
100
AcDbSymbolTableRecord
100
AcDbLinetypeTableRecord
  2
ByBlock
 70
0
  3

 72
65
 73
0
 40
0.0
  0
LTYPE
  5
15
100
AcDbSymbolTableRecord
100
AcDbLinetypeTableRecord
  2
ByLayer
 70
0
  3

 72
65
 73
0
 40
0.0
  0
LTYPE
  5
16
100
AcDbSymbolTableRecord
100
AcDbLinetypeTableRecord
  2
CONTINUOUS
 70
0
  3
Solid line
 72
65
 73
0
 40
0.0
  0
LTYPE
  5
31
100
AcDbSymbolTableRecord
100
AcDbLinetypeTableRecord
  2
DOT
 70
0
  3
Dot . . . . . . . . . . . . . . . . . . . . . .
 72
65
 73
2
 40
6.3499999999999996
 49
0.0
 74
0
 49
-6.3499999999999996
 74
0
  0
LTYPE
  5
32
100
AcDbSymbolTableRecord
100
AcDbLinetypeTableRecord
  2
DOT2
 70
0
  3
Dot (.5x) .....................................
 72
65
 73
2
 40
3.1749999999999998
 49
0.0
 74
0
 49
-3.1749999999999998
 74
0
  0
LTYPE
  5
33
100
AcDbSymbolTableRecord
100
AcDbLinetypeTableRecord
  2
DOTX2
 70
0
  3
Dot (2x) .  .  .  .  .  .  .  .  .  .  .  .  .
 72
65
 73
2
 40
12.6999999999999993
 49
0.0
 74
0
 49
-12.6999999999999993
 74
0
  0
LTYPE
  5
34
100
AcDbSymbolTableRecord
100
AcDbLinetypeTableRecord
  2
DASHED
 70
0
  3
Dashed __ __ __ __ __ __ __ __ __ __ __ __ __ _
 72
65
 73
2
 40
19.0500000000000007
 49
12.6999999999999993
 74
0
 49
-6.3499999999999996
 74
0
  0
LTYPE
  5
35
100
AcDbSymbolTableRecord
100
AcDbLinetypeTableRecord
  2
DASHED2
 70
0
  3
Dashed (.5x) _ _ _ _ _ _ _ _ _ _ _ _ _ _ _ _ _
 72
65
 73
2
 40
9.5250000000000004
 49
6.3499999999999996
 74
0
 49
-3.1749999999999998
 74
0
  0
LTYPE
  5
36
100
AcDbSymbolTableRecord
100
AcDbLinetypeTableRecord
  2
DASHEDX2
 70
0
  3
Dashed (2x) ____  ____  ____  ____  ____  ___
 72
65
 73
2
 40
38.1000000000000014
 49
25.3999999999999986
 74
0
 49
-12.6999999999999993
 74
0
  0
LTYPE
  5
37
100
AcDbSymbolTableRecord
100
AcDbLinetypeTableRecord
  2
DASHDOT
 70
0
  3
Dash dot __ . __ . __ . __ . __ . __ . __ . __
 72
65
 73
4
 40
25.3999999999999986
 49
12.6999999999999993
 74
0
 49
-6.3499999999999996
 74
0
 49
0.0
 74
0
 49
-6.3499999999999996
 74
0
  0
LTYPE
  5
38
100
AcDbSymbolTableRecord
100
AcDbLinetypeTableRecord
  2
DASHDOT2
 70
0
  3
Dash dot (.5x) _._._._._._._._._._._._._._._.
 72
65
 73
4
 40
12.6999999999999993
 49
6.3499999999999996
 74
0
 49
-3.1749999999999998
 74
0
 49
0.0
 74
0
 49
-3.1749999999999998
 74
0
  0
LTYPE
  5
39
100
AcDbSymbolTableRecord
100
AcDbLinetypeTableRecord
  2
DASHDOTX2
 70
0
  3
Dash dot (2x) ____  .  ____  .  ____  .  ___
 72
65
 73
4
 40
50.7999999999999972
 49
25.3999999999999986
 74
0
 49
-12.6999999999999993
 74
0
 49
0.0
 74
0
 49
-12.6999999999999993
 74
0
  0
LTYPE
  5
3A
100
AcDbSymbolTableRecord
100
AcDbLinetypeTableRecord
  2
DIVIDE
 70
0
  3
Divide ____ . . ____ . . ____ . . ____ . . ____
 72
65
 73
6
 40
31.75
 49
12.6999999999999993
 74
0
 49
-6.3499999999999996
 74
0
 49
0.0
 74
0
 49
-6.3499999999999996
 74
0
 49
0.0
 74
0
 49
-6.3499999999999996
 74
0
  0
LTYPE
  5
3B
100
AcDbSymbolTableRecord
100
AcDbLinetypeTableRecord
  2
DIVIDE2
 70
0
  3
Divide (.5x) __..__..__..__..__..__..__..__.._
 72
65
 73
6
 40
15.875
 49
6.3499999999999996
 74
0
 49
-3.1749999999999998
 74
0
 49
0.0
 74
0
 49
-3.1749999999999998
 74
0
 49
0.0
 74
0
 49
-3.1749999999999998
 74
0
  0
LTYPE
  5
3C
100
AcDbSymbolTableRecord
100
AcDbLinetypeTableRecord
  2
DIVIDEX2
 70
0
  3
Divide (2x) ________  .  .  ________  .  .  _
 72
65
 73
6
 40
63.5
 49
25.3999999999999986
 74
0
 49
-12.6999999999999993
 74
0
 49
0.0
 74
0
 49
-12.6999999999999993
 74
0
 49
0.0
 74
0
 49
-12.6999999999999993
 74
0
  0
LTYPE
  5
3D
100
AcDbSymbolTableRecord
100
AcDbLinetypeTableRecord
  2
CENTER
 70
0
  3
Center ____ _ ____ _ ____ _ ____ _ ____ _ ____
 72
65
 73
4
 40
50.7999999999999972
 49
31.75
 74
0
 49
-6.3499999999999996
 74
0
 49
6.3499999999999996
 74
0
 49
-6.3499999999999996
 74
0
  0
LTYPE
  5
3E
100
AcDbSymbolTableRecord
100
AcDbLinetypeTableRecord
  2
CENTER2
 70
0
  3
Center (.5x) ___ _ ___ _ ___ _ ___ _ ___ _ ___
 72
65
 73
4
 40
28.5749999999999993
 49
19.0500000000000007
 74
0
 49
-3.1749999999999998
 74
0
 49
3.1749999999999998
 74
0
 49
-3.1749999999999998
 74
0
  0
LTYPE
  5
3F
100
AcDbSymbolTableRecord
100
AcDbLinetypeTableRecord
  2
CENTERX2
 70
0
  3
Center (2x) ________  __  ________  __  _____
 72
65
 73
4
 40
101.5999999999999943
 49
63.5
 74
0
 49
-12.6999999999999993
 74
0
 49
12.6999999999999993
 74
0
 49
-12.6999999999999993
 74
0
  0
LTYPE
  5
40
100
AcDbSymbolTableRecord
100
AcDbLinetypeTableRecord
  2
BORDER
 70
0
  3
Border __ __ . __ __ . __ __ . __ __ . __ __ .
 72
65
 73
6
 40
44.4500000000000028
 49
12.6999999999999993
 74
0
 49
-6.3499999999999996
 74
0
 49
12.6999999999999993
 74
0
 49
-6.3499999999999996
 74
0
 49
0.0
 74
0
 49
-6.3499999999999996
 74
0
  0
LTYPE
  5
41
100
AcDbSymbolTableRecord
100
AcDbLinetypeTableRecord
  2
BORDER2
 70
0
  3
Border (.5x) __.__.__.__.__.__.__.__.__.__.__.
 72
65
 73
6
 40
22.2250000000000014
 49
6.3499999999999996
 74
0
 49
-3.1749999999999998
 74
0
 49
6.3499999999999996
 74
0
 49
-3.1749999999999998
 74
0
 49
0.0
 74
0
 49
-3.1749999999999998
 74
0
  0
LTYPE
  5
42
100
AcDbSymbolTableRecord
100
AcDbLinetypeTableRecord
  2
BORDERX2
 70
0
  3
Border (2x) ____  ____  .  ____  ____  .  ___
 72
65
 73
6
 40
88.9000000000000057
 49
25.3999999999999986
 74
0
 49
-12.6999999999999993
 74
0
 49
25.3999999999999986
 74
0
 49
-12.6999999999999993
 74
0
 49
0.0
 74
0
 49
-12.6999999999999993
 74
0
  0
ENDTAB
  0
TABLE
  2
LAYER
  5
2
100
AcDbSymbolTable
 70
5
  0
LAYER
  5
10
100
AcDbSymbolTableRecord
100
AcDbLayerTableRecord
  2
0
 70
0
 62
7
420
0
  6
CONTINUOUS
370
25
390
F
  0
LAYER
  5
43
100
AcDbSymbolTableRecord
100
AcDbLayerTableRecord
  2
skeleton
 70
0
 62
24
420
7541266
  6
CONTINUOUS
370
0
390
F
  0
LAYER
  5
44
100
AcDbSymbolTableRecord
100
AcDbLayerTableRecord
  2
cuts
 70
0
 62
7
420
0
  6
CONTINUOUS
370
0
390
F
  0
LAYER
  5
45
100
AcDbSymbolTableRecord
100
AcDbLayerTableRecord
  2
nema_mount
 70
0
 62
37
420
3881787
  6
CONTINUOUS
370
0
390
F
  0
LAYER
  5
46
100
AcDbSymbolTableRecord
100
AcDbLayerTableRecord
  2
documentatio
 70
0
 62
1
420
16711680
  6
CONTINUOUS
370
0
390
F
  0
ENDTAB
  0
TABLE
  2
STYLE
  5
3
100
AcDbSymbolTable
 70
1
  0
STYLE
  5
11
100
AcDbSymbolTableRecord
100
AcDbTextStyleTableRecord
  2
Standard
 70
0
 40
0.0
 41
0.75
 50
0.0
 71
0
 42
2.5
  3
txt
  4

  0
ENDTAB
  0
TABLE
  2
VIEW
  5
6
100
AcDbSymbolTable
 70
0
  0
ENDTAB
  0
TABLE
  2
UCS
  5
7
100
AcDbSymbolTable
 70
0
  0
ENDTAB
  0
TABLE
  2
APPID
  5
9
100
AcDbSymbolTable
 70
1
  0
APPID
  5
12
100
AcDbSymbolTableRecord
100
AcDbRegAppTableRecord
  2
ACAD
 70
0
  0
ENDTAB
  0
TABLE
  2
DIMSTYLE
  5
A
100
AcDbSymbolTable
 70
1
100
AcDbDimStyleTable
 71
0
  0
DIMSTYLE
105
27
100
AcDbSymbolTableRecord
100
AcDbDimStyleTableRecord
  2
Standard
 41
2.5
 42
0.625
 43
3.75
 44
1.25
 70
0
 73
0
 74
0
 77
1
 78
8
140
2.5
141
2.5
143
0.03937007874016
147
0.625
171
3
172
1
271
2
272
2
274
3
278
44
283
0
284
8
340
11
  0
ENDTAB
  0
TABLE
  2
BLOCK_RECORD
  5
1
100
AcDbSymbolTable
 70
1
  0
BLOCK_RECORD
  5
1F
100
AcDbSymbolTableRecord
100
AcDbBlockTableRecord
  2
*Model_Space
340
22
  0
BLOCK_RECORD
  5
1B
100
AcDbSymbolTableRecord
100
AcDbBlockTableRecord
  2
*Paper_Space
340
1E
  0
BLOCK_RECORD
  5
23
100
AcDbSymbolTableRecord
100
AcDbBlockTableRecord
  2
*Paper_Space0
340
26
  0
BLOCK_RECORD
  5
47
100
AcDbSymbolTableRecord
100
AcDbBlockTableRecord
  2
m3-t-slot
340
0
  0
BLOCK_RECORD
  5
48
100
AcDbSymbolTableRecord
100
AcDbBlockTableRecord
  2
pressfit-bearing
340
0
  0
ENDTAB
  0
ENDSEC
  0
SECTION
  2
BLOCKS
  0
BLOCK
  5
20
100
AcDbEntity
  8
0
100
AcDbBlockBegin
  2
*Model_Space
 70
0
 10
0.0
 20
0.0
 30
0.0
  3
*Model_Space
  1

  0
ENDBLK
  5
21
100
AcDbEntity
  8
0
100
AcDbBlockEnd
  0
BLOCK
  5
1C
100
AcDbEntity
 67
1
  8
0
100
AcDbBlockBegin
  2
*Paper_Space
 70
0
 10
0.0
 20
0.0
 30
0.0
  3
*Paper_Space
  1

  0
ENDBLK
  5
1D
100
AcDbEntity
 67
1
  8
0
100
AcDbBlockEnd
  0
BLOCK
  5
24
100
AcDbEntity
  8
0
100
AcDbBlockBegin
  2
*Paper_Space0
 70
0
 10
0.0
 20
0.0
 30
0.0
  3
*Paper_Space0
  1

  0
ENDBLK
  5
25
100
AcDbEntity
  8
0
100
AcDbBlockEnd
  0
BLOCK
  5
49
100
AcDbEntity
  8
0
100
AcDbBlockBegin
  2
m3-t-slot
 70
0
 10
0.0
 20
0.0
 30
0.0
  3
m3-t-slot
  1

  0
LINE
  5
4A
100
AcDbEntity
100
AcDbLine
  8
cuts
 62
256
370
-1
  6
ByLayer
 10
-1.4999999999999982
 20
0.0000000000000011
 30
0.0
 11
-1.5
 21
3.3300000000000001
 31
0.0
  0
LINE
  5
4B
100
AcDbEntity
100
AcDbLine
  8
cuts
 62
256
370
-1
  6
ByLayer
 10
-1.5
 20
3.3300000000000001
 30
0.0
 11
-2.6599999999999939
 21
3.3299999999999992
 31
0.0
  0
LINE
  5
4C
100
AcDbEntity
100
AcDbLine
  8
cuts
 62
256
370
-1
  6
ByLayer
 10
-2.6599999999999939
 20
3.3299999999999992
 30
0.0
 11
-2.6599999999999939
 21
5.5000000000000009
 31
0.0
  0
LINE
  5
4D
100
AcDbEntity
100
AcDbLine
  8
cuts
 62
256
370
-1
  6
ByLayer
 10
-2.6599999999999939
 20
5.5000000000000009
 30
0.0
 11
-1.4999999999999996
 21
5.5000000000000009
 31
0.0
  0
LINE
  5
4E
100
AcDbEntity
100
AcDbLine
  8
cuts
 62
256
370
-1
  6
ByLayer
 10
1.5000000000000036
 20
5.5
 30
0.0
 11
2.6599999999999993
 21
5.4999999999999982
 31
0.0
  0
LINE
  5
4F
100
AcDbEntity
100
AcDbLine
  8
cuts
 62
256
370
-1
  6
ByLayer
 10
2.6599999999999993
 20
5.4999999999999982
 30
0.0
 11
2.6599999999999966
 21
3.3299999999999983
 31
0.0
  0
LINE
  5
50
100
AcDbEntity
100
AcDbLine
  8
cuts
 62
256
370
-1
  6
ByLayer
 10
2.6599999999999966
 20
3.3299999999999983
 30
0.0
 11
1.5000000000000016
 21
3.3299999999999974
 31
0.0
  0
LINE
  5
51
100
AcDbEntity
100
AcDbLine
  8
cuts
 62
256
370
-1
  6
ByLayer
 10
1.5000000000000016
 20
3.3299999999999974
 30
0.0
 11
1.4999999999999982
 21
-0.0000000000000011
 31
0.0
  0
LINE
  5
52
100
AcDbEntity
100
AcDbLine
  8
cuts
 62
256
370
-1
  6
ByLayer
 10
-1.4999999999999971
 20
7.5
 30
0.0
 11
1.500000000000006
 21
7.5
 31
0.0
  0
LINE
  5
53
100
AcDbEntity
100
AcDbLine
  8
cuts
 62
256
370
-1
  6
ByLayer
 10
-1.4999999999999996
 20
5.5000000000000009
 30
0.0
 11
-1.4999999999999971
 21
7.5
 31
0.0
  0
LINE
  5
54
100
AcDbEntity
100
AcDbLine
  8
cuts
 62
256
370
-1
  6
ByLayer
 10
1.500000000000006
 20
7.5
 30
0.0
 11
1.5000000000000036
 21
5.5
 31
0.0
  0
ENDBLK
  5
55
100
AcDbEntity
  8
0
100
AcDbBlockEnd
  0
BLOCK
  5
56
100
AcDbEntity
  8
0
100
AcDbBlockBegin
  2
pressfit-bearing
 70
0
 10
0.0
 20
0.0
 30
0.0
  3
pressfit-bearing
  1

  0
CIRCLE
  5
57
100
AcDbEntity
100
AcDbCircle
  8
cuts
 62
256
370
-1
  6
ByLayer
 10
0.0
 20
0.0
 30
0.0
 40
6.0
  0
ENDBLK
  5
58
100
AcDbEntity
  8
0
100
AcDbBlockEnd
  0
ENDSEC
  0
SECTION
  2
ENTITIES
  0
MTEXT
  5
59
100
AcDbEntity
100
AcDbMText
  8
skeleton
 62
256
370
-1
  6
ByLayer
 10
-9.9999999999999982
 20
38.0
 30
0.0
 40
3.0
 41
100.0
 71
6
 72
2
  1
belt\~clearance
  7
standard
 50
0.0
 73
1
 44
1.0
  0
MTEXT
  5
5A
100
AcDbEntity
100
AcDbMText
  8
skeleton
 62
256
370
-1
  6
ByLayer
 10
-10.0
 20
0.0
 30
0.0
 40
3.0
 41
100.0
 71
6
 72
2
  1
floor
  7
standard
 50
0.0
 73
1
 44
1.0
  0
MTEXT
  5
5B
100
AcDbEntity
100
AcDbMText
  8
skeleton
 62
256
370
-1
  6
ByLayer
 10
-9.9999999999999982
 20
26.5
 30
0.0
 40
3.0
 41
100.0
 71
6
 72
2
  1
supporting\~rods
  7
standard
 50
0.0
 73
1
 44
1.0
  0
LINE
  5
5C
100
AcDbEntity
100
AcDbLine
  8
nema_mount
 62
256
370
-1
  6
ByLayer
 10
0.0000000000000016
 20
26.5
 30
0.0
 11
42.1599999999999966
 21
26.4999999999999858
 31
0.0
  0
LINE
  5
5D
100
AcDbEntity
100
AcDbLine
  8
nema_mount
 62
256
370
-1
  6
ByLayer
 10
0.0000000000000087
 20
68.6599999999999824
 30
0.0
 11
42.1599999999999966
 21
68.6599999999999824
 31
0.0
  0
CIRCLE
  5
5E
100
AcDbEntity
100
AcDbCircle
  8
nema_mount
 62
256
370
-1
  6
ByLayer
 10
21.0800000000000018
 20
47.5799999999999983
 30
0.0
 40
2.5
  0
CIRCLE
  5
5F
100
AcDbEntity
100
AcDbCircle
  8
nema_mount
 62
256
370
-1
  6
ByLayer
 10
21.0800000000000018
 20
47.5799999999999983
 30
0.0
 40
11.0
  0
CIRCLE
  5
60
100
AcDbEntity
100
AcDbCircle
  8
nema_mount
 62
256
370
-1
  6
ByLayer
 10
36.5750000000000028
 20
63.0749999999999886
 30
0.0
 40
1.5
  0
CIRCLE
  5
61
100
AcDbEntity
100
AcDbCircle
  8
nema_mount
 62
256
370
-1
  6
ByLayer
 10
36.5749999999999957
 20
32.0849999999999937
 30
0.0
 40
1.5
  0
CIRCLE
  5
62
100
AcDbEntity
100
AcDbCircle
  8
nema_mount
 62
256
370
-1
  6
ByLayer
 10
5.5850000000000026
 20
32.085000000000008
 30
0.0
 40
1.5
  0
CIRCLE
  5
63
100
AcDbEntity
100
AcDbCircle
  8
nema_mount
 62
256
370
-1
  6
ByLayer
 10
5.5850000000000062
 20
63.0750000000000028
 30
0.0
 40
1.5
  0
LINE
  5
64
100
AcDbEntity
100
AcDbLine
  8
nema_mount
 62
256
370
-1
  6
ByLayer
 10
0.0000000000000051
 20
47.5799999999999983
 30
0.0
 11
42.1599999999999966
 21
47.5799999999999983
 31
0.0
  0
LINE
  5
65
100
AcDbEntity
100
AcDbLine
  8
nema_mount
 62
256
370
-1
  6
ByLayer
 10
21.0799999999999947
 20
26.5
 30
0.0
 11
21.0799999999999983
 21
68.6599999999999824
 31
0.0
  0
LINE
  5
66
100
AcDbEntity
100
AcDbLine
  8
nema_mount
 62
256
370
-1
  6
ByLayer
 10
36.5749999999999957
 20
26.5
 30
0.0
 11
36.5750000000000028
 21
68.6599999999999824
 31
0.0
  0
LINE
  5
67
100
AcDbEntity
100
AcDbLine
  8
nema_mount
 62
256
370
-1
  6
ByLayer
 10
5.5849999999999955
 20
26.5000000000000142
 30
0.0
 11
5.5850000000000009
 21
68.6599999999999824
 31
0.0
  0
LINE
  5
68
100
AcDbEntity
100
AcDbLine
  8
nema_mount
 62
256
370
-1
  6
ByLayer
 10
0.0000000000000016
 20
63.0749999999999886
 30
0.0
 11
42.1599999999999966
 21
63.0750000000000028
 31
0.0
  0
CIRCLE
  5
69
100
AcDbEntity
100
AcDbCircle
  8
skeleton
 62
256
370
-1
  6
ByLayer
 10
21.0799999999999983
 20
47.5799999999999983
 30
0.0
 40
15.125
  0
MTEXT
  5
6A
100
AcDbEntity
100
AcDbMText
  8
skeleton
 62
256
370
-1
  6
ByLayer
 10
-9.9999999999999982
 20
47.5799999999999983
 30
0.0
 40
3.0
 41
100.0
 71
6
 72
2
  1
axis\~level
  7
standard
 50
0.0
 73
1
 44
1.0
  0
CIRCLE
  5
6B
100
AcDbEntity
100
AcDbCircle
  8
skeleton
 62
256
370
-1
  6
ByLayer
 10
21.0799999999999983
 20
47.5799999999999983
 30
0.0
 40
13.0
  0
MTEXT
  5
6C
100
AcDbEntity
100
AcDbMText
  8
skeleton
 62
256
370
-1
  6
ByLayer
 10
-9.9999999999999982
 20
60.5799999999999983
 30
0.0
 40
3.0
 41
100.0
 71
6
 72
2
  1
belt\~level
  7
standard
 50
0.0
 73
1
 44
1.0
  0
LINE
  5
6D
100
AcDbEntity
100
AcDbLine
  8
skeleton
 62
256
370
-1
  6
ByLayer
 10
179.0
 20
49.5799999999999983
 30
0.0
 11
209.0
 21
49.5799999999999983
 31
0.0
  0
CIRCLE
  5
6E
100
AcDbEntity
100
AcDbCircle
  8
skeleton
 62
256
370
-1
  6
ByLayer
 10
194.0
 20
49.5799999999999912
 30
0.0
 40
11.0
  0
CIRCLE
  5
6F
100
AcDbEntity
100
AcDbCircle
  8
skeleton
 62
256
370
-1
  6
ByLayer
 10
194.0
 20
49.5799999999999983
 30
0.0
 40
15.0
  0
CIRCLE
  5
70
100
AcDbEntity
100
AcDbCircle
  8
skeleton
 62
256
370
-1
  6
ByLayer
 10
194.0
 20
49.5799999999999983
 30
0.0
 40
4.0
  0
LINE
  5
71
100
AcDbEntity
100
AcDbLine
  8
nema_mount
 62
256
370
-1
  6
ByLayer
 10
19.5799999999999983
 20
58.4772473588516846
 30
0.0
 11
19.5799999999999983
 21
68.6599999999999824
 31
0.0
  0
LINE
  5
72
100
AcDbEntity
100
AcDbLine
  8
nema_mount
 62
256
370
-1
  6
ByLayer
 10
22.5799999999999983
 20
58.4772473588516846
 30
0.0
 11
22.5799999999999983
 21
68.6599999999999824
 31
0.0
  0
LINE
  5
73
100
AcDbEntity
100
AcDbLine
  8
skeleton
 62
256
370
-1
  6
ByLayer
 10
240.0
 20
-10.0000000000000586
 30
0.0
 11
240.0
 21
60.5799999999999912
 31
0.0
  0
LINE
  5
74
100
AcDbEntity
100
AcDbLine
  8
skeleton
 62
256
370
-1
  6
ByLayer
 10
-9.9999999999999982
 20
60.5799999999999983
 30
0.0
 11
209.0000000000000284
 21
60.5799999999999983
 31
0.0
  0
LINE
  5
75
100
AcDbEntity
100
AcDbLine
  8
skeleton
 62
256
370
-1
  6
ByLayer
 10
-9.9999999999999982
 20
47.5799999999999983
 30
0.0
 11
209.0000000000000284
 21
47.5799999999999983
 31
0.0
  0
LINE
  5
76
100
AcDbEntity
100
AcDbLine
  8
skeleton
 62
256
370
-1
  6
ByLayer
 10
-9.9999999999999982
 20
38.0
 30
0.0
 11
209.0000000000000284
 21
38.0
 31
0.0
  0
LINE
  5
77
100
AcDbEntity
100
AcDbLine
  8
skeleton
 62
256
370
-1
  6
ByLayer
 10
-9.9999999999999982
 20
26.5
 30
0.0
 11
209.0000000000000284
 21
26.5
 31
0.0
  0
LINE
  5
78
100
AcDbEntity
100
AcDbLine
  8
skeleton
 62
256
370
-1
  6
ByLayer
 10
-10.0
 20
0.0
 30
0.0
 11
209.0000000000000284
 21
0.0
 31
0.0
  0
LINE
  5
79
100
AcDbEntity
100
AcDbLine
  8
skeleton
 62
256
370
-1
  6
ByLayer
 10
240.0
 20
47.5799999999999983
 30
0.0
 11
320.0
 21
47.5799999999999983
 31
0.0
  0
LINE
  5
7A
100
AcDbEntity
100
AcDbLine
  8
skeleton
 62
256
370
-1
  6
ByLayer
 10
240.0
 20
38.0
 30
0.0
 11
320.0
 21
38.0
 31
0.0
  0
LINE
  5
7B
100
AcDbEntity
100
AcDbLine
  8
skeleton
 62
256
370
-1
  6
ByLayer
 10
240.0
 20
26.5
 30
0.0
 11
320.0
 21
26.5
 31
0.0
  0
LINE
  5
7C
100
AcDbEntity
100
AcDbLine
  8
skeleton
 62
256
370
-1
  6
ByLayer
 10
240.0
 20
0.0
 30
0.0
 11
320.0
 21
0.0
 31
0.0
  0
LINE
  5
7D
100
AcDbEntity
100
AcDbLine
  8
skeleton
 62
256
370
-1
  6
DASHED
 10
278.5
 20
-10.0000000000000746
 30
0.0
 11
278.5
 21
60.5799999999999983
 31
0.0
  0
LINE
  5
7E
100
AcDbEntity
100
AcDbLine
  8
skeleton
 62
256
370
-1
  6
DASHED
 10
258.5
 20
-10.0000000000000728
 30
0.0
 11
258.5
 21
60.5799999999999983
 31
0.0
  0
LINE
  5
7F
100
AcDbEntity
100
AcDbLine
  8
skeleton
 62
256
370
-1
  6
DASHED
 10
298.5
 20
-10.0000000000000799
 30
0.0
 11
298.5
 21
60.5799999999999912
 31
0.0
  0
MTEXT
  5
80
100
AcDbEntity
100
AcDbMText
  8
skeleton
 62
256
370
-1
  6
ByLayer
 10
287.0
 20
-10.0000000000000764
 30
0.0
 40
3.0
 41
100.0
 71
6
 72
2
  1
motor\~plate
  7
standard
 50
45.0
 73
1
 44
1.0
  0
MTEXT
  5
81
100
AcDbEntity
100
AcDbMText
  8
skeleton
 62
256
370
-1
  6
ByLayer
 10
273.5
 20
-10.0000000000000746
 30
0.0
 40
3.0
 41
100.0
 71
6
 72
2
  1
intermediate\~plate
  7
standard
 50
45.0
 73
1
 44
1.0
  0
MTEXT
  5
82
100
AcDbEntity
100
AcDbMText
  8
skeleton
 62
256
370
-1
  6
ByLayer
 10
246.5
 20
-10.0000000000000604
 30
0.0
 40
3.0
 41
100.0
 71
6
 72
2
  1
support\~plate
  7
standard
 50
45.0
 73
1
 44
1.0
  0
LINE
  5
83
100
AcDbEntity
100
AcDbLine
  8
nema_mount
 62
256
370
-1
  6
ByLayer
 10
-0.0000000000000056
 20
32.085000000000008
 30
0.0
 11
320.0000000000000568
 21
32.0849999999999014
 31
0.0
  0
LINE
  5
84
100
AcDbEntity
100
AcDbLine
  8
skeleton
 62
256
370
-1
  6
ByLayer
 10
45.6599999999999966
 20
26.4999999999999858
 30
0.0
 11
45.6599999999999966
 21
68.6599999999999824
 31
0.0
  0
MTEXT
  5
85
100
AcDbEntity
100
AcDbMText
  8
documentatio
 62
256
370
-1
  6
ByLayer
 10
-60.0
 20
40.0
 30
0.0
 40
8.0
 41
100.0
 71
6
 72
2
  1
motor\~plate
  7
standard
 50
0.0
 73
1
 44
1.0
  0
LINE
  5
86
100
AcDbEntity
100
AcDbLine
  8
skeleton
 62
256
370
-1
  6
ByLayer
 10
60.0
 20
50.0
 30
0.0
 11
60.0
 21
40.0
 31
0.0
  0
LINE
  5
87
100
AcDbEntity
100
AcDbLine
  8
skeleton
 62
256
370
-1
  6
ByLayer
 10
160.0
 20
50.0
 30
0.0
 11
160.0
 21
40.0
 31
0.0
  0
LINE
  5
88
100
AcDbEntity
100
AcDbLine
  8
cuts
 62
256
370
-1
  6
ByLayer
 10
42.1599999999999966
 20
38.0
 30
0.0
 11
45.6599999999999895
 21
38.0
 31
0.0
  0
LINE
  5
89
100
AcDbEntity
100
AcDbLine
  8
cuts
 62
256
370
-1
  6
ByLayer
 10
45.6599999999999895
 20
38.0
 30
0.0
 11
45.6599999999999966
 21
47.5799999999999983
 31
0.0
  0
LINE
  5
8A
100
AcDbEntity
100
AcDbLine
  8
cuts
 62
256
370
-1
  6
ByLayer
 10
179.0
 20
47.5799999999999983
 30
0.0
 11
179.0
 21
37.9999999999999929
 31
0.0
  0
LINE
  5
8B
100
AcDbEntity
100
AcDbLine
  8
cuts
 62
256
370
-1
  6
ByLayer
 10
179.0
 20
37.9999999999999929
 30
0.0
 11
182.5
 21
37.9999999999999929
 31
0.0
  0
CIRCLE
  5
8C
100
AcDbEntity
100
AcDbCircle
  8
cuts
 62
256
370
-1
  6
ByLayer
 10
194.0
 20
49.5799999999999912
 30
0.0
 40
4.0
  0
CIRCLE
  5
8D
100
AcDbEntity
100
AcDbCircle
  8
cuts
 62
256
370
-1
  6
ByLayer
 10
5.5850000000000009
 20
63.0749999999999886
 30
0.0
 40
1.5
  0
CIRCLE
  5
8E
100
AcDbEntity
100
AcDbCircle
  8
cuts
 62
256
370
-1
  6
ByLayer
 10
36.5750000000000028
 20
63.0749999999999957
 30
0.0
 40
1.5
  0
CIRCLE
  5
8F
100
AcDbEntity
100
AcDbCircle
  8
cuts
 62
256
370
-1
  6
ByLayer
 10
36.5749999999999957
 20
32.0849999999999937
 30
0.0
 40
1.5
  0
CIRCLE
  5
90
100
AcDbEntity
100
AcDbCircle
  8
cuts
 62
256
370
-1
  6
ByLayer
 10
5.5849999999999964
 20
32.085000000000008
 30
0.0
 40
1.5
  0
LINE
  5
91
100
AcDbEntity
100
AcDbLine
  8
cuts
 62
256
370
-1
  6
ByLayer
 10
240.0
 20
32.0849999999999298
 30
0.0
 11
246.5
 21
32.0849999999999298
 31
0.0
  0
LINE
  5
92
100
AcDbEntity
100
AcDbLine
  8
cuts
 62
256
370
-1
  6
ByLayer
 10
246.5
 20
32.0849999999999298
 30
0.0
 11
246.5
 21
38.0000000000000071
 31
0.0
  0
LINE
  5
93
100
AcDbEntity
100
AcDbLine
  8
cuts
 62
256
370
-1
  6
ByLayer
 10
246.5
 20
38.0000000000000071
 30
0.0
 11
250.0
 21
38.0
 31
0.0
  0
LINE
  5
94
100
AcDbEntity
100
AcDbLine
  8
cuts
 62
256
370
-1
  6
ByLayer
 10
250.0
 20
38.0
 30
0.0
 11
250.0000000000000284
 21
32.0849999999999227
 31
0.0
  0
LINE
  5
95
100
AcDbEntity
100
AcDbLine
  8
cuts
 62
256
370
-1
  6
ByLayer
 10
250.0000000000000284
 20
32.0849999999999227
 30
0.0
 11
270.0000000000000568
 21
32.0849999999999156
 31
0.0
  0
LINE
  5
96
100
AcDbEntity
100
AcDbLine
  8
cuts
 62
256
370
-1
  6
ByLayer
 10
270.0000000000000568
 20
32.0849999999999156
 30
0.0
 11
270.0
 21
38.0
 31
0.0
  0
LINE
  5
97
100
AcDbEntity
100
AcDbLine
  8
cuts
 62
256
370
-1
  6
ByLayer
 10
287.0
 20
38.0
 30
0.0
 11
287.0
 21
32.0849999999999085
 31
0.0
  0
INSERT
  5
98
100
AcDbEntity
100
AcDbBlockReference
  8
cuts
 62
256
370
-1
  6
ByLayer
  2
m3-t-slot
 10
60.0
 20
47.5799999999999983
 30
0.0
 50
180.0
 44
1.0
 45
1.0
  0
INSERT
  5
99
100
AcDbEntity
100
AcDbBlockReference
  8
cuts
 62
256
370
-1
  6
ByLayer
  2
m3-t-slot
 10
160.0
 20
47.5799999999999983
 30
0.0
 50
180.0
 44
1.0
 45
1.0
  0
LINE
  5
9A
100
AcDbEntity
100
AcDbLine
  8
cuts
 62
256
370
-1
  6
ByLayer
 10
45.6599999999999966
 20
47.5799999999999983
 30
0.0
 11
58.5
 21
47.5799999999999983
 31
0.0
  0
LINE
  5
9B
100
AcDbEntity
100
AcDbLine
  8
cuts
 62
256
370
-1
  6
ByLayer
 10
161.5
 20
47.5799999999999983
 30
0.0
 11
179.0
 21
47.5799999999999983
 31
0.0
  0
LINE
  5
9C
100
AcDbEntity
100
AcDbLine
  8
skeleton
 62
256
370
-1
  6
ByLayer
 10
240.0
 20
235.6599999999999682
 30
0.0
 11
300.0
 21
235.6599999999999682
 31
0.0
  0
LINE
  5
9D
100
AcDbEntity
100
AcDbLine
  8
skeleton
 62
256
370
-1
  6
ByLayer
 10
240.0
 20
102.3199999999999363
 30
0.0
 11
300.0
 21
102.3199999999999363
 31
0.0
  0
LINE
  5
9E
100
AcDbEntity
100
AcDbLine
  8
skeleton
 62
256
370
-1
  6
ByLayer
 10
240.0
 20
221.3199999999999363
 30
0.0
 11
300.0
 21
221.3199999999999363
 31
0.0
  0
LINE
  5
9F
100
AcDbEntity
100
AcDbLine
  8
skeleton
 62
256
370
-1
  6
ByLayer
 10
240.0
 20
121.3199999999999363
 30
0.0
 11
300.0
 21
121.3199999999999363
 31
0.0
  0
LINE
  5
A0
100
AcDbEntity
100
AcDbLine
  8
skeleton
 62
256
370
-1
  6
ByLayer
 10
246.5
 20
-10.0000000000000604
 30
0.0
 11
246.5
 21
60.5800000000000054
 31
0.0
  0
LINE
  5
A1
100
AcDbEntity
100
AcDbLine
  8
skeleton
 62
256
370
-1
  6
ByLayer
 10
246.5
 20
102.3199999999999363
 30
0.0
 11
246.5
 21
235.6599999999999966
 31
0.0
  0
LINE
  5
A2
100
AcDbEntity
100
AcDbLine
  8
skeleton
 62
256
370
-1
  6
ByLayer
 10
250.0
 20
-10.0000000000000604
 30
0.0
 11
250.0
 21
60.5800000000000054
 31
0.0
  0
LINE
  5
A3
100
AcDbEntity
100
AcDbLine
  8
skeleton
 62
256
370
-1
  6
ByLayer
 10
250.0
 20
102.3199999999999363
 30
0.0
 11
250.0
 21
235.6599999999999966
 31
0.0
  0
LINE
  5
A4
100
AcDbEntity
100
AcDbLine
  8
skeleton
 62
256
370
-1
  6
ByLayer
 10
283.5
 20
-10.0000000000000764
 30
0.0
 11
283.5
 21
60.5800000000000054
 31
0.0
  0
LINE
  5
A5
100
AcDbEntity
100
AcDbLine
  8
skeleton
 62
256
370
-1
  6
ByLayer
 10
283.5
 20
102.3199999999999505
 30
0.0
 11
283.5
 21
235.6599999999999397
 31
0.0
  0
LINE
  5
A6
100
AcDbEntity
100
AcDbLine
  8
skeleton
 62
256
370
-1
  6
ByLayer
 10
287.0
 20
-10.0000000000000764
 30
0.0
 11
287.0
 21
60.5800000000000054
 31
0.0
  0
LINE
  5
A7
100
AcDbEntity
100
AcDbLine
  8
skeleton
 62
256
370
-1
  6
ByLayer
 10
287.0
 20
102.3199999999999505
 30
0.0
 11
287.0
 21
235.6599999999999397
 31
0.0
  0
LINE
  5
A8
100
AcDbEntity
100
AcDbLine
  8
skeleton
 62
256
370
-1
  6
ByLayer
 10
291.0
 20
102.3199999999999505
 30
0.0
 11
291.0
 21
235.6599999999999397
 31
0.0
  0
LINE
  5
A9
100
AcDbEntity
100
AcDbLine
  8
skeleton
 62
256
370
-1
  6
ByLayer
 10
242.5
 20
102.3199999999999363
 30
0.0
 11
242.5
 21
235.6599999999999966
 31
0.0
  0
LINE
  5
AA
100
AcDbEntity
100
AcDbLine
  8
cuts
 62
256
370
-1
  6
ByLayer
 10
242.5
 20
235.6599999999999682
 30
0.0
 11
291.0
 21
235.6599999999999682
 31
0.0
  0
LINE
  5
AB
100
AcDbEntity
100
AcDbLine
  8
cuts
 62
256
370
-1
  6
ByLayer
 10
291.0
 20
102.3199999999999363
 30
0.0
 11
242.5
 21
102.3199999999999363
 31
0.0
  0
CIRCLE
  5
AC
100
AcDbEntity
100
AcDbCircle
  8
cuts
 62
256
370
-1
  6
ByLayer
 10
285.1499999999999773
 20
221.3199999999999079
 30
0.0
 40
1.5
  0
CIRCLE
  5
AD
100
AcDbEntity
100
AcDbCircle
  8
cuts
 62
256
370
-1
  6
ByLayer
 10
285.1499999999999773
 20
121.3199999999999363
 30
0.0
 40
1.5
  0
CIRCLE
  5
AE
100
AcDbEntity
100
AcDbCircle
  8
cuts
 62
256
370
-1
  6
ByLayer
 10
248.1500000000000057
 20
121.3199999999999363
 30
0.0
 40
1.5
  0
CIRCLE
  5
AF
100
AcDbEntity
100
AcDbCircle
  8
cuts
 62
256
370
-1
  6
ByLayer
 10
248.1500000000000057
 20
221.3199999999999363
 30
0.0
 40
1.5
  0
LINE
  5
B0
100
AcDbEntity
100
AcDbLine
  8
skeleton
 62
256
370
-1
  6
ByLayer
 10
240.0
 20
54.5799999999999983
 30
0.0
 11
320.0
 21
54.5799999999999983
 31
0.0
  0
LINE
  5
B1
100
AcDbEntity
100
AcDbLine
  8
skeleton
 62
256
370
-1
  6
ByLayer
 10
248.1500000000000057
 20
26.4999999999999964
 30
0.0
 11
248.1500000000000057
 21
235.6599999999999966
 31
0.0
  0
LINE
  5
B2
100
AcDbEntity
100
AcDbLine
  8
skeleton
 62
256
370
-1
  6
ByLayer
 10
285.1499999999999773
 20
26.5000000000000107
 30
0.0
 11
285.1499999999999773
 21
235.6599999999999397
 31
0.0
  0
LINE
  5
B3
100
AcDbEntity
100
AcDbLine
  8
skeleton
 62
256
370
-1
  6
ByLayer
 10
90.0
 20
36.0
 30
0.0
 11
140.0
 21
36.0
 31
0.0
  0
LINE
  5
B4
100
AcDbEntity
100
AcDbLine
  8
skeleton
 62
256
370
-1
  6
ByLayer
 10
-9.9999999999999982
 20
51.0799999999999983
 30
0.0
 11
209.0000000000000284
 21
51.0799999999999983
 31
0.0
  0
LINE
  5
B5
100
AcDbEntity
100
AcDbLine
  8
skeleton
 62
256
370
-1
  6
ByLayer
 10
-10.0
 20
12.5
 30
0.0
 11
209.0000000000000284
 21
12.5
 31
0.0
  0
LINE
  5
B6
100
AcDbEntity
100
AcDbLine
  8
skeleton
 62
256
370
-1
  6
ByLayer
 10
-10.0
 20
9.0
 30
0.0
 11
209.0000000000000284
 21
9.0
 31
0.0
  0
LINE
  5
B7
100
AcDbEntity
100
AcDbLine
  8
skeleton
 62
256
370
-1
  6
ByLayer
 10
69.5
 20
18.5
 30
0.0
 11
69.5
 21
9.0
 31
0.0
  0
LINE
  5
B8
100
AcDbEntity
100
AcDbLine
  8
cuts
 62
256
370
-1
  6
ByLayer
 10
69.5
 20
9.0
 30
0.0
 11
69.5
 21
12.5
 31
0.0
  0
INSERT
  5
B9
100
AcDbEntity
100
AcDbBlockReference
  8
cuts
 62
256
370
-1
  6
ByLayer
  2
m3-t-slot
 10
80.0
 20
12.5
 30
0.0
 44
1.0
 45
1.0
  0
LINE
  5
BA
100
AcDbEntity
100
AcDbLine
  8
cuts
 62
256
370
-1
  6
ByLayer
 10
78.5
 20
12.5
 30
0.0
 11
69.5
 21
12.5
 31
0.0
  0
LINE
  5
BB
100
AcDbEntity
100
AcDbLine
  8
cuts
 62
256
370
-1
  6
ByLayer
 10
111.230000000000004
 20
26.5
 30
0.0
 11
130.2300000000000182
 21
26.5
 31
0.0
  0
LINE
  5
BC
100
AcDbEntity
100
AcDbLine
  8
cuts
 62
256
370
-1
  6
ByLayer
 10
130.2300000000000182
 20
26.5
 30
0.0
 11
130.2300000000000182
 21
20.5
 31
0.0
  0
LINE
  5
BD
100
AcDbEntity
100
AcDbLine
  8
cuts
 62
256
370
-1
  6
ByLayer
 10
130.2300000000000182
 20
20.5
 30
0.0
 11
111.230000000000004
 21
20.5
 31
0.0
  0
LINE
  5
BE
100
AcDbEntity
100
AcDbLine
  8
cuts
 62
256
370
-1
  6
ByLayer
 10
111.230000000000004
 20
20.5
 30
0.0
 11
111.230000000000004
 21
26.5
 31
0.0
  0
CIRCLE
  5
BF
100
AcDbEntity
100
AcDbCircle
  8
cuts
 62
256
370
-1
  6
ByLayer
 10
127.230000000000004
 20
23.5
 30
0.0
 40
1.5
  0
CIRCLE
  5
C0
100
AcDbEntity
100
AcDbCircle
  8
cuts
 62
256
370
-1
  6
ByLayer
 10
114.230000000000004
 20
23.5
 30
0.0
 40
1.5
  0
LINE
  5
C1
100
AcDbEntity
100
AcDbLine
  8
skeleton
 62
256
370
-1
  6
ByLayer
 10
115.7300000000000182
 20
47.5799999999999983
 30
0.0
 11
115.730000000000004
 21
20.5000000000000036
 31
0.0
  0
LINE
  5
C2
100
AcDbEntity
100
AcDbLine
  8
skeleton
 62
256
370
-1
  6
ByLayer
 10
114.2300000000000182
 20
47.5799999999999983
 30
0.0
 11
114.230000000000004
 21
20.5000000000000036
 31
0.0
  0
LINE
  5
C3
100
AcDbEntity
100
AcDbLine
  8
skeleton
 62
256
370
-1
  6
ByLayer
 10
111.2300000000000182
 20
47.5799999999999983
 30
0.0
 11
111.230000000000004
 21
20.5000000000000036
 31
0.0
  0
LINE
  5
C4
100
AcDbEntity
100
AcDbLine
  8
skeleton
 62
256
370
-1
  6
ByLayer
 10
120.7300000000000182
 20
47.5799999999999983
 30
0.0
 11
120.730000000000004
 21
20.5
 31
0.0
  0
LINE
  5
C5
100
AcDbEntity
100
AcDbLine
  8
skeleton
 62
256
370
-1
  6
ByLayer
 10
125.7300000000000182
 20
47.5799999999999983
 30
0.0
 11
125.730000000000004
 21
20.5
 31
0.0
  0
LINE
  5
C6
100
AcDbEntity
100
AcDbLine
  8
skeleton
 62
256
370
-1
  6
ByLayer
 10
127.2300000000000182
 20
47.5799999999999983
 30
0.0
 11
127.230000000000004
 21
20.5
 31
0.0
  0
LINE
  5
C7
100
AcDbEntity
100
AcDbLine
  8
skeleton
 62
256
370
-1
  6
ByLayer
 10
130.2300000000000182
 20
47.5799999999999983
 30
0.0
 11
130.2300000000000182
 21
20.5
 31
0.0
  0
LINE
  5
C8
100
AcDbEntity
100
AcDbLine
  8
cuts
 62
256
370
-1
  6
ByLayer
 10
185.0
 20
12.5
 30
0.0
 11
185.0
 21
9.0
 31
0.0
  0
LINE
  5
C9
100
AcDbEntity
100
AcDbLine
  8
cuts
 62
256
370
-1
  6
ByLayer
 10
185.0
 20
9.0
 30
0.0
 11
165.0
 21
9.0
 31
0.0
  0
LINE
  5
CA
100
AcDbEntity
100
AcDbLine
  8
cuts
 62
256
370
-1
  6
ByLayer
 10
165.0
 20
9.0
 30
0.0
 11
165.0
 21
12.5
 31
0.0
  0
INSERT
  5
CB
100
AcDbEntity
100
AcDbBlockReference
  8
cuts
 62
256
370
-1
  6
ByLayer
  2
m3-t-slot
 10
155.0
 20
12.5
 30
0.0
 44
1.0
 45
1.0
  0
INSERT
  5
CC
100
AcDbEntity
100
AcDbBlockReference
  8
cuts
 62
256
370
-1
  6
ByLayer
  2
m3-t-slot
 10
195.0
 20
12.5
 30
0.0
 44
1.0
 45
1.0
  0
LINE
  5
CD
100
AcDbEntity
100
AcDbLine
  8
cuts
 62
256
370
-1
  6
ByLayer
 10
165.0
 20
12.5
 30
0.0
 11
156.5
 21
12.5
 31
0.0
  0
LINE
  5
CE
100
AcDbEntity
100
AcDbLine
  8
cuts
 62
256
370
-1
  6
ByLayer
 10
193.5
 20
12.5
 30
0.0
 11
185.0
 21
12.5
 31
0.0
  0
ARC
  5
CF
100
AcDbEntity
  8
cuts
 62
256
370
-1
  6
ByLayer
100
AcDbCircle
 10
132.0
 20
28.0
 30
0.0
 40
8.0
100
AcDbArc
 50
0.0
 51
90.0
  0
LINE
  5
D0
100
AcDbEntity
100
AcDbLine
  8
cuts
 62
256
370
-1
  6
ByLayer
 10
140.0
 20
28.0
 30
0.0
 11
140.0
 21
20.5
 31
0.0
  0
LINE
  5
D1
100
AcDbEntity
100
AcDbLine
  8
cuts
 62
256
370
-1
  6
ByLayer
 10
153.5
 20
12.5
 30
0.0
 11
148.0
 21
12.5
 31
0.0
  0
ARC
  5
D2
100
AcDbEntity
  8
cuts
 62
256
370
-1
  6
ByLayer
100
AcDbCircle
 10
148.0
 20
20.5
 30
0.0
 40
8.0
100
AcDbArc
 50
180.0
 51
270.0
  0
LINE
  5
D3
100
AcDbEntity
100
AcDbLine
  8
cuts
 62
256
370
-1
  6
ByLayer
 10
201.0
 20
12.5
 30
0.0
 11
196.5
 21
12.5
 31
0.0
  0
ARC
  5
D4
100
AcDbEntity
  8
cuts
 62
256
370
-1
  6
ByLayer
100
AcDbCircle
 10
201.0
 20
20.5
 30
0.0
 40
8.0
100
AcDbArc
 50
270.0
 51
360.0
  0
ARC
  5
D5
100
AcDbEntity
  8
cuts
 62
256
370
-1
  6
ByLayer
100
AcDbCircle
 10
103.0
 20
28.0
 30
0.0
 40
8.0
100
AcDbArc
 50
90.0
 51
180.0
  0
LINE
  5
D6
100
AcDbEntity
100
AcDbLine
  8
cuts
 62
256
370
-1
  6
ByLayer
 10
95.0
 20
20.5
 30
0.0
 11
95.0
 21
28.0
 31
0.0
  0
LINE
  5
D7
100
AcDbEntity
100
AcDbLine
  8
cuts
 62
256
370
-1
  6
ByLayer
 10
81.4999999999999858
 20
12.5
 30
0.0
 11
87.0
 21
12.5
 31
0.0
  0
ARC
  5
D8
100
AcDbEntity
  8
cuts
 62
256
370
-1
  6
ByLayer
100
AcDbCircle
 10
87.0
 20
20.5
 30
0.0
 40
8.0
100
AcDbArc
 50
270.0
 51
0.0
  0
INSERT
  5
D9
100
AcDbEntity
100
AcDbBlockReference
  8
cuts
 62
256
370
-1
  6
ByLayer
  2
m3-t-slot
 10
15.0
 20
12.5
 30
0.0
 44
1.0
 45
1.0
  0
LINE
  5
DA
100
AcDbEntity
100
AcDbLine
  8
cuts
 62
256
370
-1
  6
ByLayer
 10
16.5
 20
12.5
 30
0.0
 11
25.0
 21
12.5
 31
0.0
  0
LINE
  5
DB
100
AcDbEntity
100
AcDbLine
  8
cuts
 62
256
370
-1
  6
ByLayer
 10
25.0
 20
12.5
 30
0.0
 11
25.0
 21
9.0
 31
0.0
  0
LINE
  5
DC
100
AcDbEntity
100
AcDbLine
  8
cuts
 62
256
370
-1
  6
ByLayer
 10
40.0
 20
9.0
 30
0.0
 11
40.0
 21
12.5
 31
0.0
  0
LINE
  5
DD
100
AcDbEntity
100
AcDbLine
  8
cuts
 62
256
370
-1
  6
ByLayer
 10
40.0
 20
12.5
 30
0.0
 11
55.0
 21
12.5
 31
0.0
  0
LINE
  5
DE
100
AcDbEntity
100
AcDbLine
  8
cuts
 62
256
370
-1
  6
ByLayer
 10
55.0
 20
12.5
 30
0.0
 11
55.0
 21
9.0
 31
0.0
  0
LINE
  5
DF
100
AcDbEntity
100
AcDbLine
  8
cuts
 62
256
370
-1
  6
ByLayer
 10
25.0
 20
9.0
 30
0.0
 11
40.0
 21
9.0
 31
0.0
  0
LINE
  5
E0
100
AcDbEntity
100
AcDbLine
  8
cuts
 62
256
370
-1
  6
ByLayer
 10
55.0
 20
9.0
 30
0.0
 11
69.5
 21
9.0
 31
0.0
  0
LINE
  5
E1
100
AcDbEntity
100
AcDbLine
  8
cuts
 62
256
370
-1
  6
ByLayer
 10
8.0000000000000018
 20
12.5
 30
0.0
 11
13.5000000000000018
 21
12.5
 31
0.0
  0
ARC
  5
E2
100
AcDbEntity
  8
cuts
 62
256
370
-1
  6
ByLayer
100
AcDbCircle
 10
8.0000000000000018
 20
20.5
 30
0.0
 40
8.0
100
AcDbArc
 50
180.0
 51
270.0
  0
LINE
  5
E3
100
AcDbEntity
100
AcDbLine
  8
skeleton
 62
256
370
-1
  6
ByLayer
 10
0.0000000000000092
 20
76.1599999999999824
 30
0.0
 11
42.1599999999999966
 21
76.1599999999999824
 31
0.0
  0
CIRCLE
  5
E4
100
AcDbEntity
100
AcDbCircle
  8
cuts
 62
256
370
-1
  6
ByLayer
 10
21.0799999999999983
 20
47.5799999999999983
 30
0.0
 40
11.0
  0
LINE
  5
E5
100
AcDbEntity
100
AcDbLine
  8
skeleton
 62
256
370
-1
  6
ByLayer
 10
100.0
 20
70.0
 30
0.0
 11
100.0
 21
40.0
 31
0.0
  0
LINE
  5
E6
100
AcDbEntity
100
AcDbLine
  8
skeleton
 62
256
370
-1
  6
ByLayer
 10
140.0
 20
40.0
 30
0.0
 11
140.0
 21
70.0
 31
0.0
  0
LINE
  5
E7
100
AcDbEntity
100
AcDbLine
  8
cuts
 62
256
370
-1
  6
ByLayer
 10
100.0
 20
47.5799999999999983
 30
0.0
 11
100.0
 21
51.0799999999999983
 31
0.0
  0
LINE
  5
E8
100
AcDbEntity
100
AcDbLine
  8
cuts
 62
256
370
-1
  6
ByLayer
 10
100.0
 20
51.0799999999999983
 30
0.0
 11
140.0
 21
51.0799999999999983
 31
0.0
  0
LINE
  5
E9
100
AcDbEntity
100
AcDbLine
  8
cuts
 62
256
370
-1
  6
ByLayer
 10
140.0
 20
51.0799999999999983
 30
0.0
 11
140.0
 21
47.5799999999999983
 31
0.0
  0
LINE
  5
EA
100
AcDbEntity
100
AcDbLine
  8
cuts
 62
256
370
-1
  6
ByLayer
 10
140.0
 20
47.5799999999999983
 30
0.0
 11
158.5
 21
47.5799999999999983
 31
0.0
  0
LINE
  5
EB
100
AcDbEntity
100
AcDbLine
  8
skeleton
 62
256
370
-1
  6
ByLayer
 10
240.0
 20
141.3199999999999363
 30
0.0
 11
300.0
 21
141.3199999999999363
 31
0.0
  0
LINE
  5
EC
100
AcDbEntity
100
AcDbLine
  8
skeleton
 62
256
370
-1
  6
ByLayer
 10
240.0
 20
181.3199999999999363
 30
0.0
 11
300.0
 21
181.3199999999999363
 31
0.0
  0
LINE
  5
ED
100
AcDbEntity
100
AcDbLine
  8
skeleton
 62
256
370
-1
  6
ByLayer
 10
240.0
 20
70.5799999999999983
 30
0.0
 11
320.0
 21
70.5799999999999983
 31
0.0
  0
LINE
  5
EE
100
AcDbEntity
100
AcDbLine
  8
cuts
 62
256
370
-1
  6
ByLayer
 10
246.5
 20
181.3199999999999363
 30
0.0
 11
250.0
 21
181.3199999999999363
 31
0.0
  0
LINE
  5
EF
100
AcDbEntity
100
AcDbLine
  8
cuts
 62
256
370
-1
  6
ByLayer
 10
250.0
 20
181.3199999999999363
 30
0.0
 11
250.0
 21
141.3199999999999363
 31
0.0
  0
LINE
  5
F0
100
AcDbEntity
100
AcDbLine
  8
cuts
 62
256
370
-1
  6
ByLayer
 10
250.0
 20
141.3199999999999363
 30
0.0
 11
246.5
 21
141.3199999999999363
 31
0.0
  0
LINE
  5
F1
100
AcDbEntity
100
AcDbLine
  8
cuts
 62
256
370
-1
  6
ByLayer
 10
246.5
 20
141.3199999999999363
 30
0.0
 11
246.5
 21
181.3199999999999363
 31
0.0
  0
LINE
  5
F2
100
AcDbEntity
100
AcDbLine
  8
cuts
 62
256
370
-1
  6
ByLayer
 10
283.5
 20
181.3199999999999363
 30
0.0
 11
287.0
 21
181.3199999999999363
 31
0.0
  0
LINE
  5
F3
100
AcDbEntity
100
AcDbLine
  8
cuts
 62
256
370
-1
  6
ByLayer
 10
287.0
 20
181.3199999999999363
 30
0.0
 11
287.0
 21
141.3199999999999363
 31
0.0
  0
LINE
  5
F4
100
AcDbEntity
100
AcDbLine
  8
cuts
 62
256
370
-1
  6
ByLayer
 10
287.0
 20
141.3199999999999363
 30
0.0
 11
283.5
 21
141.3199999999999363
 31
0.0
  0
LINE
  5
F5
100
AcDbEntity
100
AcDbLine
  8
cuts
 62
256
370
-1
  6
ByLayer
 10
283.5
 20
141.3199999999999363
 30
0.0
 11
283.5
 21
181.3199999999999363
 31
0.0
  0
LINE
  5
F6
100
AcDbEntity
100
AcDbLine
  8
cuts
 62
256
370
-1
  6
ByLayer
 10
283.5
 20
37.9999999999999929
 30
0.0
 11
283.4999999999999432
 21
32.0849999999999156
 31
0.0
  0
LINE
  5
F7
100
AcDbEntity
100
AcDbLine
  8
cuts
 62
256
370
-1
  6
ByLayer
 10
283.4999999999999432
 20
32.0849999999999156
 30
0.0
 11
280.5
 21
32.0849999999999156
 31
0.0
  0
LINE
  5
F8
100
AcDbEntity
100
AcDbLine
  8
cuts
 62
256
370
-1
  6
ByLayer
 10
280.5
 20
32.0849999999999156
 30
0.0
 11
280.5
 21
38.0
 31
0.0
  0
LINE
  5
F9
100
AcDbEntity
100
AcDbLine
  8
cuts
 62
256
370
-1
  6
ByLayer
 10
280.5
 20
47.5799999999999983
 30
0.0
 11
270.5
 21
47.5799999999999983
 31
0.0
  0
LINE
  5
FA
100
AcDbEntity
100
AcDbLine
  8
cuts
 62
256
370
-1
  6
ByLayer
 10
270.0
 20
38.0
 30
0.0
 11
280.5
 21
38.0
 31
0.0
  0
LINE
  5
FB
100
AcDbEntity
100
AcDbLine
  8
cuts
 62
256
370
-1
  6
ByLayer
 10
283.5
 20
38.0
 30
0.0
 11
287.0
 21
38.0
 31
0.0
  0
LINE
  5
FC
100
AcDbEntity
100
AcDbLine
  8
skeleton
 62
256
370
-1
  6
ByLayer
 10
0.0
 20
100.0
 30
0.0
 11
50.0
 21
100.0
 31
0.0
  0
LINE
  5
FD
100
AcDbEntity
100
AcDbLine
  8
skeleton
 62
256
370
-1
  6
ByLayer
 10
0.000000000000003
 20
148.5
 30
0.0
 11
50.0
 21
148.5
 31
0.0
  0
LINE
  5
FE
100
AcDbEntity
100
AcDbLine
  8
nema_mount
 62
256
370
-1
  6
ByLayer
 10
0.0000000000000016
 20
26.5
 30
0.0
 11
0.0000000000000221
 21
148.5
 31
0.0
  0
LINE
  5
FF
100
AcDbEntity
100
AcDbLine
  8
skeleton
 62
256
370
-1
  6
ByLayer
 10
8.0
 20
70.0
 30
0.0
 11
8.0
 21
148.5
 31
0.0
  0
LINE
  5
100
100
AcDbEntity
100
AcDbLine
  8
skeleton
 62
256
370
-1
  6
ByLayer
 10
15.0
 20
73.0
 30
0.0
 11
15.0
 21
148.5
 31
0.0
  0
LINE
  5
101
100
AcDbEntity
100
AcDbLine
  8
skeleton
 62
256
370
-1
  6
ByLayer
 10
28.0
 20
148.5
 30
0.0
 11
28.0
 21
73.0
 31
0.0
  0
LINE
  5
102
100
AcDbEntity
100
AcDbLine
  8
skeleton
 62
256
370
-1
  6
ByLayer
 10
34.0
 20
70.0
 30
0.0
 11
34.0
 21
148.5
 31
0.0
  0
LINE
  5
103
100
AcDbEntity
100
AcDbLine
  8
nema_mount
 62
256
370
-1
  6
ByLayer
 10
42.1599999999999966
 20
26.4999999999999858
 30
0.0
 11
42.1599999999999966
 21
148.5
 31
0.0
  0
LINE
  5
104
100
AcDbEntity
100
AcDbLine
  8
skeleton
 62
256
370
-1
  6
ByLayer
 10
0.0000000000000019
 20
142.6500000000000057
 30
0.0
 11
50.0
 21
142.6500000000000057
 31
0.0
  0
LINE
  5
105
100
AcDbEntity
100
AcDbLine
  8
skeleton
 62
256
370
-1
  6
ByLayer
 10
0.0000000000000003
 20
105.6500000000000057
 30
0.0
 11
50.0
 21
105.6500000000000057
 31
0.0
  0
LINE
  5
106
100
AcDbEntity
100
AcDbLine
  8
skeleton
 62
256
370
-1
  6
ByLayer
 10
0.0000000000000005
 20
107.4500000000000028
 30
0.0
 11
50.0
 21
107.4500000000000028
 31
0.0
  0
LINE
  5
107
100
AcDbEntity
100
AcDbLine
  8
skeleton
 62
256
370
-1
  6
ByLayer
 10
0.0
 20
103.8500000000000085
 30
0.0
 11
50.0
 21
103.8500000000000085
 31
0.0
  0
LINE
  5
108
100
AcDbEntity
100
AcDbLine
  8
skeleton
 62
256
370
-1
  6
ByLayer
 10
0.000000000000002
 20
144.4500000000000171
 30
0.0
 11
50.0
 21
144.4500000000000171
 31
0.0
  0
LINE
  5
109
100
AcDbEntity
100
AcDbLine
  8
skeleton
 62
256
370
-1
  6
ByLayer
 10
0.0000000000000016
 20
140.8499999999999943
 30
0.0
 11
50.0
 21
140.8499999999999943
 31
0.0
  0
LINE
  5
10A
100
AcDbEntity
100
AcDbLine
  8
cuts
 62
256
370
-1
  6
ByLayer
 10
14.9999999999999982
 20
144.4500000000000171
 30
0.0
 11
28.0
 21
144.4500000000000171
 31
0.0
  0
LINE
  5
10B
100
AcDbEntity
100
AcDbLine
  8
cuts
 62
256
370
-1
  6
ByLayer
 10
28.0
 20
144.4500000000000171
 30
0.0
 11
28.0
 21
140.8499999999999943
 31
0.0
  0
LINE
  5
10C
100
AcDbEntity
100
AcDbLine
  8
cuts
 62
256
370
-1
  6
ByLayer
 10
28.0
 20
140.8499999999999943
 30
0.0
 11
14.9999999999999982
 21
140.8499999999999943
 31
0.0
  0
LINE
  5
10D
100
AcDbEntity
100
AcDbLine
  8
cuts
 62
256
370
-1
  6
ByLayer
 10
14.9999999999999982
 20
140.8499999999999943
 30
0.0
 11
14.9999999999999982
 21
144.4500000000000171
 31
0.0
  0
LINE
  5
10E
100
AcDbEntity
100
AcDbLine
  8
cuts
 62
256
370
-1
  6
ByLayer
 10
15.0
 20
107.4500000000000028
 30
0.0
 11
28.0
 21
107.4500000000000028
 31
0.0
  0
LINE
  5
10F
100
AcDbEntity
100
AcDbLine
  8
cuts
 62
256
370
-1
  6
ByLayer
 10
28.0
 20
107.4500000000000028
 30
0.0
 11
28.0
 21
103.8500000000000085
 31
0.0
  0
LINE
  5
110
100
AcDbEntity
100
AcDbLine
  8
cuts
 62
256
370
-1
  6
ByLayer
 10
28.0
 20
103.8500000000000085
 30
0.0
 11
15.0
 21
103.8500000000000085
 31
0.0
  0
LINE
  5
111
100
AcDbEntity
100
AcDbLine
  8
cuts
 62
256
370
-1
  6
ByLayer
 10
15.0
 20
103.8500000000000085
 30
0.0
 11
15.0
 21
107.4500000000000028
 31
0.0
  0
CIRCLE
  5
112
100
AcDbEntity
100
AcDbCircle
  8
cuts
 62
256
370
-1
  6
ByLayer
 10
8.0
 20
142.6500000000000057
 30
0.0
 40
1.5
  0
CIRCLE
  5
113
100
AcDbEntity
100
AcDbCircle
  8
cuts
 62
256
370
-1
  6
ByLayer
 10
8.0
 20
105.6500000000000057
 30
0.0
 40
1.5
  0
CIRCLE
  5
114
100
AcDbEntity
100
AcDbCircle
  8
cuts
 62
256
370
-1
  6
ByLayer
 10
34.0
 20
105.6500000000000057
 30
0.0
 40
1.5
  0
CIRCLE
  5
115
100
AcDbEntity
100
AcDbCircle
  8
cuts
 62
256
370
-1
  6
ByLayer
 10
34.0
 20
142.6500000000000057
 30
0.0
 40
1.5
  0
LINE
  5
116
100
AcDbEntity
100
AcDbLine
  8
skeleton
 62
256
370
-1
  6
ByLayer
 10
330.0
 20
-10.0000000000000586
 30
0.0
 11
330.0
 21
60.5799999999999912
 31
0.0
  0
LINE
  5
117
100
AcDbEntity
100
AcDbLine
  8
skeleton
 62
256
370
-1
  6
ByLayer
 10
330.0
 20
47.5799999999999983
 30
0.0
 11
410.0
 21
47.5799999999999983
 31
0.0
  0
LINE
  5
118
100
AcDbEntity
100
AcDbLine
  8
skeleton
 62
256
370
-1
  6
ByLayer
 10
330.0
 20
38.0
 30
0.0
 11
410.0
 21
38.0
 31
0.0
  0
LINE
  5
119
100
AcDbEntity
100
AcDbLine
  8
skeleton
 62
256
370
-1
  6
ByLayer
 10
330.0
 20
26.5
 30
0.0
 11
410.0
 21
26.5
 31
0.0
  0
LINE
  5
11A
100
AcDbEntity
100
AcDbLine
  8
skeleton
 62
256
370
-1
  6
ByLayer
 10
330.0
 20
0.0
 30
0.0
 11
410.0
 21
0.0
 31
0.0
  0
LINE
  5
11B
100
AcDbEntity
100
AcDbLine
  8
skeleton
 62
256
370
-1
  6
DASHED
 10
368.5
 20
-10.0000000000000746
 30
0.0
 11
368.5
 21
60.5799999999999983
 31
0.0
  0
LINE
  5
11C
100
AcDbEntity
100
AcDbLine
  8
skeleton
 62
256
370
-1
  6
DASHED
 10
348.5
 20
-10.0000000000000728
 30
0.0
 11
348.5
 21
60.5799999999999983
 31
0.0
  0
LINE
  5
11D
100
AcDbEntity
100
AcDbLine
  8
skeleton
 62
256
370
-1
  6
DASHED
 10
388.5
 20
-10.0000000000000799
 30
0.0
 11
388.5
 21
60.5799999999999912
 31
0.0
  0
MTEXT
  5
11E
100
AcDbEntity
100
AcDbMText
  8
skeleton
 62
256
370
-1
  6
ByLayer
 10
377.0
 20
-10.0000000000000764
 30
0.0
 40
3.0
 41
100.0
 71
6
 72
2
  1
motor\~plate
  7
standard
 50
45.0
 73
1
 44
1.0
  0
MTEXT
  5
11F
100
AcDbEntity
100
AcDbMText
  8
skeleton
 62
256
370
-1
  6
ByLayer
 10
363.5
 20
-10.0000000000000746
 30
0.0
 40
3.0
 41
100.0
 71
6
 72
2
  1
intermediate\~plate
  7
standard
 50
45.0
 73
1
 44
1.0
  0
MTEXT
  5
120
100
AcDbEntity
100
AcDbMText
  8
skeleton
 62
256
370
-1
  6
ByLayer
 10
336.5
 20
-10.0000000000000604
 30
0.0
 40
3.0
 41
100.0
 71
6
 72
2
  1
support\~plate
  7
standard
 50
45.0
 73
1
 44
1.0
  0
LINE
  5
121
100
AcDbEntity
100
AcDbLine
  8
cuts
 62
256
370
-1
  6
ByLayer
 10
330.0
 20
32.0849999999999298
 30
0.0
 11
336.5
 21
32.0849999999999298
 31
0.0
  0
LINE
  5
122
100
AcDbEntity
100
AcDbLine
  8
cuts
 62
256
370
-1
  6
ByLayer
 10
336.5
 20
32.0849999999999298
 30
0.0
 11
336.5
 21
38.0000000000000071
 31
0.0
  0
LINE
  5
123
100
AcDbEntity
100
AcDbLine
  8
cuts
 62
256
370
-1
  6
ByLayer
 10
336.5
 20
38.0000000000000071
 30
0.0
 11
340.0
 21
38.0
 31
0.0
  0
LINE
  5
124
100
AcDbEntity
100
AcDbLine
  8
cuts
 62
256
370
-1
  6
ByLayer
 10
340.0
 20
38.0
 30
0.0
 11
340.0
 21
32.0849999999999227
 31
0.0
  0
LINE
  5
125
100
AcDbEntity
100
AcDbLine
  8
cuts
 62
256
370
-1
  6
ByLayer
 10
340.0
 20
32.0849999999999227
 30
0.0
 11
360.0000000000000568
 21
32.0849999999999156
 31
0.0
  0
LINE
  5
126
100
AcDbEntity
100
AcDbLine
  8
cuts
 62
256
370
-1
  6
ByLayer
 10
360.0000000000000568
 20
32.0849999999999156
 30
0.0
 11
360.0
 21
38.0
 31
0.0
  0
LINE
  5
127
100
AcDbEntity
100
AcDbLine
  8
cuts
 62
256
370
-1
  6
ByLayer
 10
377.0
 20
38.0
 30
0.0
 11
377.0
 21
32.0849999999999085
 31
0.0
  0
LINE
  5
128
100
AcDbEntity
100
AcDbLine
  8
skeleton
 62
256
370
-1
  6
ByLayer
 10
336.5
 20
-10.0000000000000604
 30
0.0
 11
336.5
 21
60.5800000000000054
 31
0.0
  0
LINE
  5
129
100
AcDbEntity
100
AcDbLine
  8
skeleton
 62
256
370
-1
  6
ByLayer
 10
377.0
 20
-10.0000000000000764
 30
0.0
 11
377.0
 21
60.5800000000000054
 31
0.0
  0
LINE
  5
12A
100
AcDbEntity
100
AcDbLine
  8
skeleton
 62
256
370
-1
  6
ByLayer
 10
330.0
 20
54.5799999999999983
 30
0.0
 11
410.0
 21
54.5799999999999983
 31
0.0
  0
LINE
  5
12B
100
AcDbEntity
100
AcDbLine
  8
skeleton
 62
256
370
-1
  6
ByLayer
 10
330.0
 20
70.5799999999999983
 30
0.0
 11
410.0
 21
70.5799999999999983
 31
0.0
  0
LINE
  5
12C
100
AcDbEntity
100
AcDbLine
  8
cuts
 62
256
370
-1
  6
ByLayer
 10
373.5
 20
37.9999999999999929
 30
0.0
 11
373.4999999999999432
 21
32.0849999999999156
 31
0.0
  0
LINE
  5
12D
100
AcDbEntity
100
AcDbLine
  8
cuts
 62
256
370
-1
  6
ByLayer
 10
373.4999999999999432
 20
32.0849999999999156
 30
0.0
 11
370.5
 21
32.0849999999999156
 31
0.0
  0
LINE
  5
12E
100
AcDbEntity
100
AcDbLine
  8
cuts
 62
256
370
-1
  6
ByLayer
 10
370.5
 20
32.0849999999999156
 30
0.0
 11
370.5
 21
38.0
 31
0.0
  0
LINE
  5
12F
100
AcDbEntity
100
AcDbLine
  8
cuts
 62
256
370
-1
  6
ByLayer
 10
370.5
 20
47.5799999999999983
 30
0.0
 11
360.5
 21
47.5799999999999983
 31
0.0
  0
LINE
  5
130
100
AcDbEntity
100
AcDbLine
  8
cuts
 62
256
370
-1
  6
ByLayer
 10
360.0
 20
38.0
 30
0.0
 11
370.5
 21
38.0
 31
0.0
  0
LINE
  5
131
100
AcDbEntity
100
AcDbLine
  8
cuts
 62
256
370
-1
  6
ByLayer
 10
373.5
 20
38.0
 30
0.0
 11
377.0
 21
38.0
 31
0.0
  0
LINE
  5
132
100
AcDbEntity
100
AcDbLine
  8
skeleton
 62
256
370
-1
  6
ByLayer
 10
373.5
 20
-10.0000000000000764
 30
0.0
 11
373.5
 21
76.1599999999999966
 31
0.0
  0
LINE
  5
133
100
AcDbEntity
100
AcDbLine
  8
skeleton
 62
256
370
-1
  6
ByLayer
 10
340.0
 20
-10.0000000000000604
 30
0.0
 11
340.0
 21
76.1599999999999966
 31
0.0
  0
LINE
  5
134
100
AcDbEntity
100
AcDbLine
  8
nema_mount
 62
256
370
-1
  6
ByLayer
 10
350.0
 20
-10.0000000000000622
 30
0.0
 11
350.0
 21
76.1599999999999966
 31
0.0
  0
LINE
  5
135
100
AcDbEntity
100
AcDbLine
  8
nema_mount
 62
256
370
-1
  6
ByLayer
 10
0.0000000000000011
 20
117.4500000000000028
 30
0.0
 11
50.0
 21
117.4500000000000028
 31
0.0
  0
LINE
  5
136
100
AcDbEntity
100
AcDbLine
  8
nema_mount
 62
256
370
-1
  6
ByLayer
 10
45.5599999999999952
 20
26.4999999999999858
 30
0.0
 11
45.5599999999999952
 21
148.5
 31
0.0
  0
LINE
  5
137
100
AcDbEntity
100
AcDbLine
  8
nema_mount
 62
256
370
-1
  6
ByLayer
 10
48.9599999999999937
 20
26.4999999999999858
 30
0.0
 11
48.9599999999999937
 21
148.5
 31
0.0
  0
LINE
  5
138
100
AcDbEntity
100
AcDbLine
  8
cuts
 62
256
370
-1
  6
ByLayer
 10
0.0000000000000221
 20
100.0
 30
0.0
 11
0.0000000000000221
 21
148.5
 31
0.0
  0
LINE
  5
139
100
AcDbEntity
100
AcDbLine
  8
cuts
 62
256
370
-1
  6
ByLayer
 10
42.1599999999999966
 20
117.4500000000000028
 30
0.0
 11
45.5599999999999952
 21
117.4500000000000028
 31
0.0
  0
LINE
  5
13A
100
AcDbEntity
100
AcDbLine
  8
cuts
 62
256
370
-1
  6
ByLayer
 10
45.5599999999999952
 20
117.4500000000000028
 30
0.0
 11
45.5599999999999952
 21
107.4500000000000028
 31
0.0
  0
LINE
  5
13B
100
AcDbEntity
100
AcDbLine
  8
cuts
 62
256
370
-1
  6
ByLayer
 10
45.5599999999999952
 20
107.4500000000000028
 30
0.0
 11
42.1599999999999966
 21
107.4500000000000028
 31
0.0
  0
LINE
  5
13C
100
AcDbEntity
100
AcDbLine
  8
cuts
 62
256
370
-1
  6
ByLayer
 10
42.1599999999999966
 20
107.4500000000000028
 30
0.0
 11
42.1599999999999966
 21
117.4500000000000028
 31
0.0
  0
LINE
  5
13D
100
AcDbEntity
100
AcDbLine
  8
skeleton
 62
256
370
-1
  6
ByLayer
 10
0.0000000000000017
 20
127.4500000000000028
 30
0.0
 11
50.0
 21
127.4500000000000028
 31
0.0
  0
LINE
  5
13E
100
AcDbEntity
100
AcDbLine
  8
cuts
 62
256
370
-1
  6
ByLayer
 10
0.0000000000000221
 20
148.5
 30
0.0
 11
42.1599999999999966
 21
148.5
 31
0.0
  0
LINE
  5
13F
100
AcDbEntity
100
AcDbLine
  8
cuts
 62
256
370
-1
  6
ByLayer
 10
42.1599999999999966
 20
127.4500000000000028
 30
0.0
 11
42.1599999999999966
 21
148.5
 31
0.0
  0
LINE
  5
140
100
AcDbEntity
100
AcDbLine
  8
cuts
 62
256
370
-1
  6
ByLayer
 10
40.9599999999999937
 20
100.0
 30
0.0
 11
0.0000000000000221
 21
100.0
 31
0.0
  0
ARC
  5
141
100
AcDbEntity
  8
cuts
 62
256
370
-1
  6
ByLayer
100
AcDbCircle
 10
40.9599999999999937
 20
108.0
 30
0.0
 40
8.0
100
AcDbArc
 50
270.0
 51
0.0
  0
LINE
  5
142
100
AcDbEntity
100
AcDbLine
  8
cuts
 62
256
370
-1
  6
ByLayer
 10
48.9599999999999937
 20
121.4500000000000028
 30
0.0
 11
48.9599999999999937
 21
108.0
 31
0.0
  0
LINE
  5
143
100
AcDbEntity
100
AcDbLine
  8
cuts
 62
256
370
-1
  6
ByLayer
 10
42.9599999999999937
 20
127.4500000000000028
 30
0.0
 11
42.1599999999999966
 21
127.4500000000000028
 31
0.0
  0
ARC
  5
144
100
AcDbEntity
  8
cuts
 62
256
370
-1
  6
ByLayer
100
AcDbCircle
 10
42.9599999999999937
 20
121.4500000000000028
 30
0.0
 40
6.0
100
AcDbArc
 50
0.0
 51
90.0
  0
LINE
  5
145
100
AcDbEntity
100
AcDbLine
  8
skeleton
 62
256
370
-1
  6
ByLayer
 10
0.0
 20
-0.0000000000000006
 30
0.0
 11
0.0000000000000037
 21
60.0
 31
0.0
  0
LINE
  5
146
100
AcDbEntity
100
AcDbLine
  8
skeleton
 62
256
370
-1
  6
ByLayer
 10
95.0
 20
39.0
 30
0.0
 11
95.0
 21
-0.0000000000000024
 31
0.0
  0
LINE
  5
147
100
AcDbEntity
100
AcDbLine
  8
skeleton
 62
256
370
-1
  6
ByLayer
 10
87.0
 20
39.0
 30
0.0
 11
87.0
 21
-0.0000000000000024
 31
0.0
  0
LINE
  5
148
100
AcDbEntity
100
AcDbLine
  8
skeleton
 62
256
370
-1
  6
ByLayer
 10
87.0
 20
-21.5
 30
0.0
 11
87.0
 21
-70.0
 31
0.0
  0
LINE
  5
149
100
AcDbEntity
100
AcDbLine
  8
skeleton
 62
256
370
-1
  6
ByLayer
 10
80.0
 20
20.0
 30
0.0
 11
80.0
 21
-0.0000000000000005
 31
0.0
  0
LINE
  5
14A
100
AcDbEntity
100
AcDbLine
  8
skeleton
 62
256
370
-1
  6
ByLayer
 10
80.0
 20
-21.5
 30
0.0
 11
80.0
 21
-70.0
 31
0.0
  0
LINE
  5
14B
100
AcDbEntity
100
AcDbLine
  8
skeleton
 62
256
370
-1
  6
ByLayer
 10
69.5
 20
-70.0
 30
0.0
 11
69.5
 21
-21.5000000000000071
 31
0.0
  0
LINE
  5
14C
100
AcDbEntity
100
AcDbLine
  8
skeleton
 62
256
370
-1
  6
ByLayer
 10
69.5
 20
-0.0000000000000102
 30
0.0
 11
69.5
 21
60.5799999999999983
 31
0.0
  0
LINE
  5
14D
100
AcDbEntity
100
AcDbLine
  8
skeleton
 62
256
370
-1
  6
ByLayer
 10
55.0
 20
14.0
 30
0.0
 11
55.0
 21
0.0000000000000007
 31
0.0
  0
LINE
  5
14E
100
AcDbEntity
100
AcDbLine
  8
skeleton
 62
256
370
-1
  6
ByLayer
 10
55.0
 20
-21.5
 30
0.0
 11
55.0
 21
-70.0
 31
0.0
  0
LINE
  5
14F
100
AcDbEntity
100
AcDbLine
  8
skeleton
 62
256
370
-1
  6
ByLayer
 10
40.0
 20
20.0
 30
0.0
 11
40.0
 21
-0.0000000000000005
 31
0.0
  0
LINE
  5
150
100
AcDbEntity
100
AcDbLine
  8
skeleton
 62
256
370
-1
  6
ByLayer
 10
40.0
 20
-21.5
 30
0.0
 11
40.0
 21
-70.0
 31
0.0
  0
LINE
  5
151
100
AcDbEntity
100
AcDbLine
  8
skeleton
 62
256
370
-1
  6
ByLayer
 10
25.0
 20
20.0
 30
0.0
 11
25.0
 21
-0.0000000000000005
 31
0.0
  0
LINE
  5
152
100
AcDbEntity
100
AcDbLine
  8
skeleton
 62
256
370
-1
  6
ByLayer
 10
25.0
 20
-21.5
 30
0.0
 11
25.0
 21
-70.0
 31
0.0
  0
LINE
  5
153
100
AcDbEntity
100
AcDbLine
  8
skeleton
 62
256
370
-1
  6
ByLayer
 10
15.0000000000000053
 20
20.0
 30
0.0
 11
15.0000000000000036
 21
-0.0000000000000005
 31
0.0
  0
LINE
  5
154
100
AcDbEntity
100
AcDbLine
  8
skeleton
 62
256
370
-1
  6
ByLayer
 10
15.0000000000000018
 20
-21.5
 30
0.0
 11
14.9999999999999982
 21
-70.0
 31
0.0
  0
LINE
  5
155
100
AcDbEntity
100
AcDbLine
  8
skeleton
 62
256
370
-1
  6
ByLayer
 10
7.9999999999999956
 20
-70.0
 30
0.0
 11
7.9999999999999982
 21
-21.5
 31
0.0
  0
LINE
  5
156
100
AcDbEntity
100
AcDbLine
  8
skeleton
 62
256
370
-1
  6
ByLayer
 10
8.0
 20
-0.0000000000000006
 30
0.0
 11
8.0000000000000036
 21
60.0
 31
0.0
  0
LINE
  5
157
100
AcDbEntity
100
AcDbLine
  8
skeleton
 62
256
370
-1
  6
ByLayer
 10
148.0
 20
-29.1500000000000057
 30
0.0
 11
201.0
 21
-29.1500000000000057
 31
0.0
  0
LINE
  5
158
100
AcDbEntity
100
AcDbLine
  8
skeleton
 62
256
370
-1
  6
ByLayer
 10
148.0
 20
-25.5499999999999829
 30
0.0
 11
201.0
 21
-25.5499999999999829
 31
0.0
  0
LINE
  5
159
100
AcDbEntity
100
AcDbLine
  8
skeleton
 62
256
370
-1
  6
ByLayer
 10
148.0
 20
-21.5
 30
0.0
 11
201.0
 21
-21.5
 31
0.0
  0
LINE
  5
15A
100
AcDbEntity
100
AcDbLine
  8
skeleton
 62
256
370
-1
  6
ByLayer
 10
148.0
 20
-27.3499999999999943
 30
0.0
 11
201.0
 21
-27.3499999999999943
 31
0.0
  0
LINE
  5
15B
100
AcDbEntity
100
AcDbLine
  8
skeleton
 62
256
370
-1
  6
ByLayer
 10
148.0
 20
-62.5499999999999972
 30
0.0
 11
201.0
 21
-62.5499999999999972
 31
0.0
  0
LINE
  5
15C
100
AcDbEntity
100
AcDbLine
  8
skeleton
 62
256
370
-1
  6
ByLayer
 10
148.0
 20
-66.1499999999999915
 30
0.0
 11
201.0
 21
-66.1499999999999915
 31
0.0
  0
LINE
  5
15D
100
AcDbEntity
100
AcDbLine
  8
skeleton
 62
256
370
-1
  6
ByLayer
 10
148.0
 20
-70.0
 30
0.0
 11
201.0
 21
-70.0
 31
0.0
  0
LINE
  5
15E
100
AcDbEntity
100
AcDbLine
  8
skeleton
 62
256
370
-1
  6
ByLayer
 10
209.0
 20
-0.0000000000000102
 30
0.0
 11
209.0
 21
60.5799999999999983
 31
0.0
  0
LINE
  5
15F
100
AcDbEntity
100
AcDbLine
  8
skeleton
 62
256
370
-1
  6
ByLayer
 10
194.0
 20
0.0000000000000006
 30
0.0
 11
194.0
 21
60.5799999999999912
 31
0.0
  0
LINE
  5
160
100
AcDbEntity
100
AcDbLine
  8
skeleton
 62
256
370
-1
  6
ByLayer
 10
184.5
 20
0.0000000000000003
 30
0.0
 11
184.5
 21
60.5799999999999983
 31
0.0
  0
LINE
  5
161
100
AcDbEntity
100
AcDbLine
  8
skeleton
 62
256
370
-1
  6
ByLayer
 10
179.0
 20
0.0000000000000003
 30
0.0
 11
179.0
 21
60.5799999999999983
 31
0.0
  0
LINE
  5
162
100
AcDbEntity
100
AcDbLine
  8
skeleton
 62
256
370
-1
  6
ByLayer
 10
140.0
 20
28.0
 30
0.0
 11
140.0
 21
-0.0000000000000021
 31
0.0
  0
LINE
  5
163
100
AcDbEntity
100
AcDbLine
  8
skeleton
 62
256
370
-1
  6
ByLayer
 10
148.0
 20
-64.3499999999999943
 30
0.0
 11
201.0
 21
-64.3499999999999943
 31
0.0
  0
LINE
  5
164
100
AcDbEntity
100
AcDbLine
  8
skeleton
 62
256
370
-1
  6
ByLayer
 10
7.9999999999999982
 20
-25.5499999999999829
 30
0.0
 11
87.0
 21
-25.5499999999999829
 31
0.0
  0
LINE
  5
165
100
AcDbEntity
100
AcDbLine
  8
skeleton
 62
256
370
-1
  6
ByLayer
 10
7.9999999999999973
 20
-21.5
 30
0.0
 11
87.0
 21
-21.5
 31
0.0
  0
LINE
  5
166
100
AcDbEntity
100
AcDbLine
  8
skeleton
 62
256
370
-1
  6
ByLayer
 10
7.9999999999999982
 20
-27.3499999999999943
 30
0.0
 11
87.0
 21
-27.3499999999999943
 31
0.0
  0
LINE
  5
167
100
AcDbEntity
100
AcDbLine
  8
skeleton
 62
256
370
-1
  6
ByLayer
 10
7.9999999999999982
 20
-29.1500000000000057
 30
0.0
 11
87.0
 21
-29.1500000000000057
 31
0.0
  0
LINE
  5
168
100
AcDbEntity
100
AcDbLine
  8
skeleton
 62
256
370
-1
  6
ByLayer
 10
7.9999999999999956
 20
-62.5499999999999972
 30
0.0
 11
87.0
 21
-62.5499999999999972
 31
0.0
  0
LINE
  5
169
100
AcDbEntity
100
AcDbLine
  8
skeleton
 62
256
370
-1
  6
ByLayer
 10
7.9999999999999947
 20
-64.3499999999999943
 30
0.0
 11
87.0000000000000142
 21
-64.3499999999999943
 31
0.0
  0
LINE
  5
16A
100
AcDbEntity
100
AcDbLine
  8
skeleton
 62
256
370
-1
  6
ByLayer
 10
7.9999999999999964
 20
-66.1499999999999915
 30
0.0
 11
87.0
 21
-66.1499999999999915
 31
0.0
  0
LINE
  5
16B
100
AcDbEntity
100
AcDbLine
  8
skeleton
 62
256
370
-1
  6
ByLayer
 10
7.9999999999999947
 20
-70.0
 30
0.0
 11
87.0000000000000142
 21
-70.0
 31
0.0
  0
CIRCLE
  5
16C
100
AcDbEntity
100
AcDbCircle
  8
cuts
 62
256
370
-1
  6
ByLayer
 10
15.0000000000000018
 20
-27.3499999999999943
 30
0.0
 40
1.5
  0
CIRCLE
  5
16D
100
AcDbEntity
100
AcDbCircle
  8
cuts
 62
256
370
-1
  6
ByLayer
 10
80.0
 20
-27.3499999999999943
 30
0.0
 40
1.5
  0
CIRCLE
  5
16E
100
AcDbEntity
100
AcDbCircle
  8
cuts
 62
256
370
-1
  6
ByLayer
 10
80.0
 20
-64.3499999999999943
 30
0.0
 40
1.5
  0
CIRCLE
  5
16F
100
AcDbEntity
100
AcDbCircle
  8
cuts
 62
256
370
-1
  6
ByLayer
 10
14.9999999999999982
 20
-64.3499999999999943
 30
0.0
 40
1.5
  0
LINE
  5
170
100
AcDbEntity
100
AcDbLine
  8
cuts
 62
256
370
-1
  6
ByLayer
 10
25.0
 20
-25.5499999999999829
 30
0.0
 11
40.0
 21
-25.5499999999999829
 31
0.0
  0
LINE
  5
171
100
AcDbEntity
100
AcDbLine
  8
cuts
 62
256
370
-1
  6
ByLayer
 10
40.0
 20
-25.5499999999999829
 30
0.0
 11
40.0
 21
-29.1500000000000057
 31
0.0
  0
LINE
  5
172
100
AcDbEntity
100
AcDbLine
  8
cuts
 62
256
370
-1
  6
ByLayer
 10
40.0
 20
-29.1500000000000057
 30
0.0
 11
25.0
 21
-29.1500000000000057
 31
0.0
  0
LINE
  5
173
100
AcDbEntity
100
AcDbLine
  8
cuts
 62
256
370
-1
  6
ByLayer
 10
25.0
 20
-29.1500000000000057
 30
0.0
 11
25.0
 21
-25.5499999999999829
 31
0.0
  0
LINE
  5
174
100
AcDbEntity
100
AcDbLine
  8
cuts
 62
256
370
-1
  6
ByLayer
 10
55.0
 20
-25.5499999999999829
 30
0.0
 11
69.5
 21
-25.5499999999999829
 31
0.0
  0
LINE
  5
175
100
AcDbEntity
100
AcDbLine
  8
cuts
 62
256
370
-1
  6
ByLayer
 10
69.5
 20
-25.5499999999999829
 30
0.0
 11
69.5
 21
-29.1500000000000057
 31
0.0
  0
LINE
  5
176
100
AcDbEntity
100
AcDbLine
  8
cuts
 62
256
370
-1
  6
ByLayer
 10
69.5
 20
-29.1500000000000057
 30
0.0
 11
55.0
 21
-29.1500000000000057
 31
0.0
  0
LINE
  5
177
100
AcDbEntity
100
AcDbLine
  8
cuts
 62
256
370
-1
  6
ByLayer
 10
55.0
 20
-29.1500000000000057
 30
0.0
 11
55.0
 21
-25.5499999999999829
 31
0.0
  0
LINE
  5
178
100
AcDbEntity
100
AcDbLine
  8
cuts
 62
256
370
-1
  6
ByLayer
 10
25.0
 20
-62.5499999999999972
 30
0.0
 11
40.0
 21
-62.5499999999999972
 31
0.0
  0
LINE
  5
179
100
AcDbEntity
100
AcDbLine
  8
cuts
 62
256
370
-1
  6
ByLayer
 10
40.0
 20
-62.5499999999999972
 30
0.0
 11
40.0
 21
-66.1499999999999915
 31
0.0
  0
LINE
  5
17A
100
AcDbEntity
100
AcDbLine
  8
cuts
 62
256
370
-1
  6
ByLayer
 10
40.0
 20
-66.1499999999999915
 30
0.0
 11
25.0
 21
-66.1499999999999915
 31
0.0
  0
LINE
  5
17B
100
AcDbEntity
100
AcDbLine
  8
cuts
 62
256
370
-1
  6
ByLayer
 10
25.0
 20
-66.1499999999999915
 30
0.0
 11
25.0
 21
-62.5499999999999972
 31
0.0
  0
LINE
  5
17C
100
AcDbEntity
100
AcDbLine
  8
cuts
 62
256
370
-1
  6
ByLayer
 10
54.9999999999999929
 20
-62.5499999999999972
 30
0.0
 11
69.5
 21
-62.5499999999999972
 31
0.0
  0
LINE
  5
17D
100
AcDbEntity
100
AcDbLine
  8
cuts
 62
256
370
-1
  6
ByLayer
 10
69.5
 20
-62.5499999999999972
 30
0.0
 11
69.5
 21
-66.1499999999999915
 31
0.0
  0
LINE
  5
17E
100
AcDbEntity
100
AcDbLine
  8
cuts
 62
256
370
-1
  6
ByLayer
 10
69.5
 20
-66.1499999999999915
 30
0.0
 11
54.9999999999999929
 21
-66.1499999999999915
 31
0.0
  0
LINE
  5
17F
100
AcDbEntity
100
AcDbLine
  8
cuts
 62
256
370
-1
  6
ByLayer
 10
54.9999999999999929
 20
-66.1499999999999915
 30
0.0
 11
54.9999999999999929
 21
-62.5499999999999972
 31
0.0
  0
LINE
  5
180
100
AcDbEntity
100
AcDbLine
  8
cuts
 62
256
370
-1
  6
ByLayer
 10
7.9999999999999982
 20
-21.5
 30
0.0
 11
87.0
 21
-21.5
 31
0.0
  0
LINE
  5
181
100
AcDbEntity
100
AcDbLine
  8
cuts
 62
256
370
-1
  6
ByLayer
 10
87.0
 20
-21.5
 30
0.0
 11
87.0
 21
-70.0
 31
0.0
  0
LINE
  5
182
100
AcDbEntity
100
AcDbLine
  8
cuts
 62
256
370
-1
  6
ByLayer
 10
87.0
 20
-70.0
 30
0.0
 11
7.9999999999999982
 21
-70.0
 31
0.0
  0
LINE
  5
183
100
AcDbEntity
100
AcDbLine
  8
cuts
 62
256
370
-1
  6
ByLayer
 10
7.9999999999999982
 20
-70.0
 30
0.0
 11
7.9999999999999982
 21
-21.5
 31
0.0
  0
LINE
  5
184
100
AcDbEntity
100
AcDbLine
  8
cuts
 62
256
370
-1
  6
ByLayer
 10
148.0
 20
-21.5000000000000036
 30
0.0
 11
201.0
 21
-21.5000000000000036
 31
0.0
  0
LINE
  5
185
100
AcDbEntity
100
AcDbLine
  8
cuts
 62
256
370
-1
  6
ByLayer
 10
201.0
 20
-21.5000000000000036
 30
0.0
 11
201.0
 21
-70.0
 31
0.0
  0
LINE
  5
186
100
AcDbEntity
100
AcDbLine
  8
cuts
 62
256
370
-1
  6
ByLayer
 10
201.0
 20
-70.0
 30
0.0
 11
148.0
 21
-70.0
 31
0.0
  0
LINE
  5
187
100
AcDbEntity
100
AcDbLine
  8
cuts
 62
256
370
-1
  6
ByLayer
 10
148.0
 20
-70.0
 30
0.0
 11
148.0
 21
-21.5000000000000036
 31
0.0
  0
LINE
  5
188
100
AcDbEntity
100
AcDbLine
  8
skeleton
 62
256
370
-1
  6
ByLayer
 10
148.0
 20
27.9999999999999964
 30
0.0
 11
148.0
 21
0.0000000000000012
 31
0.0
  0
LINE
  5
189
100
AcDbEntity
100
AcDbLine
  8
skeleton
 62
256
370
-1
  6
ByLayer
 10
148.0
 20
-21.5000000000000036
 30
0.0
 11
148.0
 21
-70.0
 31
0.0
  0
LINE
  5
18A
100
AcDbEntity
100
AcDbLine
  8
skeleton
 62
256
370
-1
  6
ByLayer
 10
155.0
 20
17.0
 30
0.0
 11
155.0
 21
0.0000000000000016
 31
0.0
  0
LINE
  5
18B
100
AcDbEntity
100
AcDbLine
  8
skeleton
 62
256
370
-1
  6
ByLayer
 10
155.0
 20
-21.5
 30
0.0
 11
155.0
 21
-70.0000000000000142
 31
0.0
  0
LINE
  5
18C
100
AcDbEntity
100
AcDbLine
  8
skeleton
 62
256
370
-1
  6
ByLayer
 10
165.0
 20
16.0
 30
0.0
 11
165.0
 21
0.0000000000000006
 31
0.0
  0
LINE
  5
18D
100
AcDbEntity
100
AcDbLine
  8
skeleton
 62
256
370
-1
  6
ByLayer
 10
165.0
 20
-21.5
 30
0.0
 11
165.0
 21
-69.9999999999999858
 31
0.0
  0
LINE
  5
18E
100
AcDbEntity
100
AcDbLine
  8
skeleton
 62
256
370
-1
  6
ByLayer
 10
185.0
 20
15.0
 30
0.0
 11
185.0
 21
0.0000000000000009
 31
0.0
  0
LINE
  5
18F
100
AcDbEntity
100
AcDbLine
  8
skeleton
 62
256
370
-1
  6
ByLayer
 10
185.0
 20
-21.5
 30
0.0
 11
185.0
 21
-70.0
 31
0.0
  0
LINE
  5
190
100
AcDbEntity
100
AcDbLine
  8
skeleton
 62
256
370
-1
  6
ByLayer
 10
195.0
 20
16.0
 30
0.0
 11
195.0
 21
0.0000000000000006
 31
0.0
  0
LINE
  5
191
100
AcDbEntity
100
AcDbLine
  8
skeleton
 62
256
370
-1
  6
ByLayer
 10
195.0
 20
-21.5
 30
0.0
 11
195.0
 21
-69.9999999999999858
 31
0.0
  0
LINE
  5
192
100
AcDbEntity
100
AcDbLine
  8
skeleton
 62
256
370
-1
  6
ByLayer
 10
201.0
 20
-70.0
 30
0.0
 11
201.0
 21
-21.5000000000000036
 31
0.0
  0
LINE
  5
193
100
AcDbEntity
100
AcDbLine
  8
skeleton
 62
256
370
-1
  6
ByLayer
 10
201.0
 20
-0.0000000000000102
 30
0.0
 11
201.0
 21
60.5799999999999983
 31
0.0
  0
LINE
  5
194
100
AcDbEntity
100
AcDbLine
  8
cuts
 62
256
370
-1
  6
ByLayer
 10
165.0
 20
-25.5499999999999829
 30
0.0
 11
185.0
 21
-25.5499999999999829
 31
0.0
  0
LINE
  5
195
100
AcDbEntity
100
AcDbLine
  8
cuts
 62
256
370
-1
  6
ByLayer
 10
185.0
 20
-25.5499999999999829
 30
0.0
 11
185.0
 21
-29.1500000000000057
 31
0.0
  0
LINE
  5
196
100
AcDbEntity
100
AcDbLine
  8
cuts
 62
256
370
-1
  6
ByLayer
 10
185.0
 20
-29.1500000000000057
 30
0.0
 11
165.0
 21
-29.1500000000000057
 31
0.0
  0
LINE
  5
197
100
AcDbEntity
100
AcDbLine
  8
cuts
 62
256
370
-1
  6
ByLayer
 10
165.0
 20
-29.1500000000000057
 30
0.0
 11
165.0
 21
-25.5499999999999829
 31
0.0
  0
LINE
  5
198
100
AcDbEntity
100
AcDbLine
  8
cuts
 62
256
370
-1
  6
ByLayer
 10
165.0
 20
-62.5499999999999972
 30
0.0
 11
185.0
 21
-62.5499999999999972
 31
0.0
  0
LINE
  5
199
100
AcDbEntity
100
AcDbLine
  8
cuts
 62
256
370
-1
  6
ByLayer
 10
185.0
 20
-62.5499999999999972
 30
0.0
 11
185.0
 21
-66.1499999999999915
 31
0.0
  0
LINE
  5
19A
100
AcDbEntity
100
AcDbLine
  8
cuts
 62
256
370
-1
  6
ByLayer
 10
185.0
 20
-66.1499999999999915
 30
0.0
 11
165.0
 21
-66.1499999999999915
 31
0.0
  0
LINE
  5
19B
100
AcDbEntity
100
AcDbLine
  8
cuts
 62
256
370
-1
  6
ByLayer
 10
165.0
 20
-66.1499999999999915
 30
0.0
 11
165.0
 21
-62.5499999999999972
 31
0.0
  0
CIRCLE
  5
19C
100
AcDbEntity
100
AcDbCircle
  8
cuts
 62
256
370
-1
  6
ByLayer
 10
155.0
 20
-27.3499999999999943
 30
0.0
 40
1.5
  0
CIRCLE
  5
19D
100
AcDbEntity
100
AcDbCircle
  8
cuts
 62
256
370
-1
  6
ByLayer
 10
195.0
 20
-27.3499999999999943
 30
0.0
 40
1.5
  0
CIRCLE
  5
19E
100
AcDbEntity
100
AcDbCircle
  8
cuts
 62
256
370
-1
  6
ByLayer
 10
195.0
 20
-64.3499999999999943
 30
0.0
 40
1.5
  0
CIRCLE
  5
19F
100
AcDbEntity
100
AcDbCircle
  8
cuts
 62
256
370
-1
  6
ByLayer
 10
155.0
 20
-64.3499999999999943
 30
0.0
 40
1.5
  0
INSERT
  5
1A0
100
AcDbEntity
100
AcDbBlockReference
  8
cuts
 62
256
370
-1
  6
ByLayer
  2
m3-t-slot
 10
7.9999999999999982
 20
79.1599999999999824
 30
0.0
 50
180.0
 44
1.0
 45
1.0
  0
LINE
  5
1A1
100
AcDbEntity
100
AcDbLine
  8
cuts
 62
256
370
-1
  6
ByLayer
 10
0.0000000000000098
 20
79.1599999999999824
 30
0.0
 11
6.5
 21
79.1599999999999824
 31
0.0
  0
LINE
  5
1A2
100
AcDbEntity
100
AcDbLine
  8
cuts
 62
256
370
-1
  6
ByLayer
 10
9.4999999999999964
 20
79.1599999999999824
 30
0.0
 11
15.0
 21
79.1599999999999824
 31
0.0
  0
LINE
  5
1A3
100
AcDbEntity
100
AcDbLine
  8
cuts
 62
256
370
-1
  6
ByLayer
 10
15.0
 20
79.1599999999999824
 30
0.0
 11
15.0
 21
82.6599999999999824
 31
0.0
  0
LINE
  5
1A4
100
AcDbEntity
100
AcDbLine
  8
cuts
 62
256
370
-1
  6
ByLayer
 10
15.0
 20
82.6599999999999824
 30
0.0
 11
28.0
 21
82.6599999999999824
 31
0.0
  0
LINE
  5
1A5
100
AcDbEntity
100
AcDbLine
  8
cuts
 62
256
370
-1
  6
ByLayer
 10
28.0
 20
82.6599999999999824
 30
0.0
 11
28.0000000000000036
 21
79.1599999999999824
 31
0.0
  0
LINE
  5
1A6
100
AcDbEntity
100
AcDbLine
  8
nema_mount
 62
256
370
-1
  6
ByLayer
 10
42.1599999999999966
 20
79.1599999999999824
 30
0.0
 11
242.1599999999999966
 21
79.1599999999999824
 31
0.0
  0
LINE
  5
1A7
100
AcDbEntity
100
AcDbLine
  8
cuts
 62
256
370
-1
  6
ByLayer
 10
42.1599999999999966
 20
79.1599999999999824
 30
0.0
 11
28.0000000000000036
 21
79.1599999999999824
 31
0.0
  0
LINE
  5
1A8
100
AcDbEntity
100
AcDbLine
  8
nema_mount
 62
256
370
-1
  6
ByLayer
 10
242.1599999999999966
 20
79.1599999999999824
 30
0.0
 11
442.1599999999999682
 21
79.1599999999999824
 31
0.0
  0
LINE
  5
1A9
100
AcDbEntity
100
AcDbLine
  8
skeleton
 62
256
370
-1
  6
ByLayer
 10
280.5
 20
-10.0000000000000764
 30
0.0
 11
280.5
 21
79.1599999999999966
 31
0.0
  0
LINE
  5
1AA
100
AcDbEntity
100
AcDbLine
  8
skeleton
 62
256
370
-1
  6
ByLayer
 10
370.5
 20
-10.0000000000000764
 30
0.0
 11
370.5
 21
79.1599999999999966
 31
0.0
  0
CIRCLE
  5
1AB
100
AcDbEntity
100
AcDbCircle
  8
cuts
 62
256
370
-1
  6
ByLayer
 10
298.5
 20
69.1599999999999966
 30
0.0
 40
4.0
  0
CIRCLE
  5
1AC
100
AcDbEntity
100
AcDbCircle
  8
cuts
 62
256
370
-1
  6
ByLayer
 10
258.5
 20
69.1599999999999824
 30
0.0
 40
4.0
  0
ARC
  5
1AD
100
AcDbEntity
  8
cuts
 62
256
370
-1
  6
ByLayer
100
AcDbCircle
 10
248.0
 20
71.1599999999999824
 30
0.0
 40
8.0
100
AcDbArc
 50
90.0
 51
180.0
  0
LINE
  5
1AE
100
AcDbEntity
100
AcDbLine
  8
cuts
 62
256
370
-1
  6
ByLayer
 10
248.0
 20
79.1599999999999824
 30
0.0
 11
262.5
 21
79.1599999999999824
 31
0.0
  0
ARC
  5
1AF
100
AcDbEntity
  8
cuts
 62
256
370
-1
  6
ByLayer
100
AcDbCircle
 10
262.5
 20
71.1599999999999824
 30
0.0
 40
8.0
100
AcDbArc
 50
0.0
 51
90.0
  0
ARC
  5
1B0
100
AcDbEntity
  8
cuts
 62
256
370
-1
  6
ByLayer
100
AcDbCircle
 10
288.5
 20
71.1599999999999824
 30
0.0
 40
8.0
100
AcDbArc
 50
90.0
 51
180.0
  0
CIRCLE
  5
1B1
100
AcDbEntity
100
AcDbCircle
  8
cuts
 62
256
370
-1
  6
ByLayer
 10
388.5
 20
69.1599999999999966
 30
0.0
 40
4.0
  0
CIRCLE
  5
1B2
100
AcDbEntity
100
AcDbCircle
  8
cuts
 62
256
370
-1
  6
ByLayer
 10
348.5
 20
69.1599999999999824
 30
0.0
 40
4.0
  0
ARC
  5
1B3
100
AcDbEntity
  8
cuts
 62
256
370
-1
  6
ByLayer
100
AcDbCircle
 10
338.0
 20
71.1599999999999824
 30
0.0
 40
8.0
100
AcDbArc
 50
90.0
 51
180.0
  0
ARC
  5
1B4
100
AcDbEntity
  8
cuts
 62
256
370
-1
  6
ByLayer
100
AcDbCircle
 10
352.5
 20
71.1599999999999824
 30
0.0
 40
8.0
100
AcDbArc
 50
0.0
 51
90.0
  0
ARC
  5
1B5
100
AcDbEntity
  8
cuts
 62
256
370
-1
  6
ByLayer
100
AcDbCircle
 10
378.5
 20
71.1599999999999824
 30
0.0
 40
8.0
100
AcDbArc
 50
90.0
 51
180.0
  0
LINE
  5
1B6
100
AcDbEntity
100
AcDbLine
  8
cuts
 62
256
370
-1
  6
ByLayer
 10
338.0
 20
79.1599999999999824
 30
0.0
 11
340.0
 21
79.1599999999999824
 31
0.0
  0
LINE
  5
1B7
100
AcDbEntity
100
AcDbLine
  8
cuts
 62
256
370
-1
  6
ByLayer
 10
350.0
 20
79.1599999999999824
 30
0.0
 11
352.5
 21
79.1599999999999824
 31
0.0
  0
LINE
  5
1B8
100
AcDbEntity
100
AcDbLine
  8
cuts
 62
256
370
-1
  6
ByLayer
 10
240.0
 20
71.1599999999999824
 30
0.0
 11
240.0
 21
32.0849999999999298
 31
0.0
  0
LINE
  5
1B9
100
AcDbEntity
100
AcDbLine
  8
cuts
 62
256
370
-1
  6
ByLayer
 10
270.5
 20
47.5799999999999983
 30
0.0
 11
270.5
 21
71.1599999999999824
 31
0.0
  0
LINE
  5
1BA
100
AcDbEntity
100
AcDbLine
  8
cuts
 62
256
370
-1
  6
ByLayer
 10
280.5
 20
71.1599999999999824
 30
0.0
 11
280.5
 21
47.5799999999999983
 31
0.0
  0
LINE
  5
1BB
100
AcDbEntity
100
AcDbLine
  8
cuts
 62
256
370
-1
  6
ByLayer
 10
330.0
 20
71.1599999999999824
 30
0.0
 11
330.0
 21
32.0849999999999298
 31
0.0
  0
LINE
  5
1BC
100
AcDbEntity
100
AcDbLine
  8
cuts
 62
256
370
-1
  6
ByLayer
 10
360.5
 20
47.5799999999999983
 30
0.0
 11
360.5
 21
71.1599999999999824
 31
0.0
  0
LINE
  5
1BD
100
AcDbEntity
100
AcDbLine
  8
cuts
 62
256
370
-1
  6
ByLayer
 10
370.5
 20
71.1599999999999824
 30
0.0
 11
370.5
 21
47.5799999999999983
 31
0.0
  0
LINE
  5
1BE
100
AcDbEntity
100
AcDbLine
  8
cuts
 62
256
370
-1
  6
ByLayer
 10
340.0
 20
79.1599999999999824
 30
0.0
 11
340.0
 21
82.6599999999999824
 31
0.0
  0
LINE
  5
1BF
100
AcDbEntity
100
AcDbLine
  8
cuts
 62
256
370
-1
  6
ByLayer
 10
340.0
 20
82.6599999999999824
 30
0.0
 11
350.0
 21
82.6599999999999824
 31
0.0
  0
LINE
  5
1C0
100
AcDbEntity
100
AcDbLine
  8
cuts
 62
256
370
-1
  6
ByLayer
 10
350.0
 20
82.6599999999999824
 30
0.0
 11
350.0
 21
79.1599999999999824
 31
0.0
  0
LINE
  5
1C1
100
AcDbEntity
100
AcDbLine
  8
cuts
 62
256
370
-1
  6
ByLayer
 10
0.0000000000000103
 20
79.1599999999999824
 30
0.0
 11
0.0000000000000014
 21
20.5
 31
0.0
  0
LINE
  5
1C2
100
AcDbEntity
100
AcDbLine
  8
skeleton
 62
256
370
-1
  6
ByLayer
 10
42.1599999999999966
 20
79.1599999999999824
 30
0.0
 11
242.1599999999999966
 21
79.1599999999999824
 31
0.0
  0
LINE
  5
1C3
100
AcDbEntity
100
AcDbLine
  8
cuts
 62
256
370
-1
  6
ByLayer
 10
209.0
 20
79.1599999999999824
 30
0.0
 11
209.0
 21
20.4999999999999964
 31
0.0
  0
LINE
  5
1C4
100
AcDbEntity
100
AcDbLine
  8
cuts
 62
256
370
-1
  6
ByLayer
 10
182.5
 20
79.1599999999999824
 30
0.0
 11
209.0
 21
79.1599999999999824
 31
0.0
  0
INSERT
  5
1C5
100
AcDbEntity
100
AcDbBlockReference
  8
cuts
 62
256
370
-1
  6
ByLayer
  2
m3-t-slot
 10
182.5
 20
72.1599999999999824
 30
0.0
 50
270.0
 44
1.0
 45
1.0
  0
INSERT
  5
1C6
100
AcDbEntity
100
AcDbBlockReference
  8
cuts
 62
256
370
-1
  6
ByLayer
  2
m3-t-slot
 10
42.1599999999999966
 20
72.1599999999999824
 30
0.0
 50
90.0
 44
1.0
 45
1.0
  0
LINE
  5
1C7
100
AcDbEntity
100
AcDbLine
  8
cuts
 62
256
370
-1
  6
ByLayer
 10
42.1599999999999966
 20
79.1599999999999824
 30
0.0
 11
42.1599999999999966
 21
73.6599999999999824
 31
0.0
  0
LINE
  5
1C8
100
AcDbEntity
100
AcDbLine
  8
cuts
 62
256
370
-1
  6
ByLayer
 10
42.1599999999999966
 20
70.6599999999999824
 30
0.0
 11
42.1599999999999966
 21
38.0
 31
0.0
  0
LINE
  5
1C9
100
AcDbEntity
100
AcDbLine
  8
cuts
 62
256
370
-1
  6
ByLayer
 10
182.5
 20
37.9999999999999929
 30
0.0
 11
182.5
 21
70.6599999999999824
 31
0.0
  0
LINE
  5
1CA
100
AcDbEntity
100
AcDbLine
  8
cuts
 62
256
370
-1
  6
ByLayer
 10
182.5
 20
73.6599999999999824
 30
0.0
 11
182.5
 21
79.1599999999999824
 31
0.0
  0
LINE
  5
1CB
100
AcDbEntity
100
AcDbLine
  8
nema_mount
 62
256
370
-1
  6
ByLayer
 10
42.1599999999999966
 20
72.1599999999999824
 30
0.0
 11
402.1599999999999682
 21
72.1599999999999824
 31
0.0
  0
CIRCLE
  5
1CC
100
AcDbEntity
100
AcDbCircle
  8
cuts
 62
256
370
-1
  6
ByLayer
 10
248.1499999999999773
 20
72.1599999999999824
 30
0.0
 40
1.5
  0
CIRCLE
  5
1CD
100
AcDbEntity
100
AcDbCircle
  8
cuts
 62
256
370
-1
  6
ByLayer
 10
285.1499999999999773
 20
72.1599999999999824
 30
0.0
 40
1.5
  0
CIRCLE
  5
1CE
100
AcDbEntity
100
AcDbCircle
  8
cuts
 62
256
370
-1
  6
ByLayer
 10
340.0
 20
72.1599999999999824
 30
0.0
 40
1.5
  0
LINE
  5
1CF
100
AcDbEntity
100
AcDbLine
  8
skeleton
 62
256
370
-1
  6
ByLayer
 10
375.25
 20
38.0
 30
0.0
 11
375.25
 21
72.1599999999999824
 31
0.0
  0
CIRCLE
  5
1D0
100
AcDbEntity
100
AcDbCircle
  8
cuts
 62
256
370
-1
  6
ByLayer
 10
375.25
 20
72.1599999999999824
 30
0.0
 40
1.5
  0
LINE
  5
1D1
100
AcDbEntity
100
AcDbLine
  8
cuts
 62
256
370
-1
  6
ByLayer
 10
377.0
 20
32.0849999999999085
 30
0.0
 11
400.0
 21
32.0849999999998943
 31
0.0
  0
LINE
  5
1D2
100
AcDbEntity
100
AcDbLine
  8
cuts
 62
256
370
-1
  6
ByLayer
 10
287.0
 20
32.0849999999999085
 30
0.0
 11
310.0
 21
32.0849999999998943
 31
0.0
  0
LINE
  5
1D3
100
AcDbEntity
100
AcDbLine
  8
cuts
 62
256
370
-1
  6
ByLayer
 10
288.5
 20
79.1599999999999824
 30
0.0
 11
302.0
 21
79.1599999999999824
 31
0.0
  0
LINE
  5
1D4
100
AcDbEntity
100
AcDbLine
  8
cuts
 62
256
370
-1
  6
ByLayer
 10
310.0
 20
71.1599999999999824
 30
0.0
 11
310.0
 21
32.0849999999998943
 31
0.0
  0
ARC
  5
1D5
100
AcDbEntity
  8
cuts
 62
256
370
-1
  6
ByLayer
100
AcDbCircle
 10
302.0
 20
71.1599999999999824
 30
0.0
 40
8.0
100
AcDbArc
 50
0.0
 51
90.0
  0
LINE
  5
1D6
100
AcDbEntity
100
AcDbLine
  8
cuts
 62
256
370
-1
  6
ByLayer
 10
378.5
 20
79.1599999999999824
 30
0.0
 11
392.0
 21
79.1599999999999824
 31
0.0
  0
LINE
  5
1D7
100
AcDbEntity
100
AcDbLine
  8
cuts
 62
256
370
-1
  6
ByLayer
 10
400.0
 20
71.1599999999999824
 30
0.0
 11
400.0
 21
32.0849999999998943
 31
0.0
  0
ARC
  5
1D8
100
AcDbEntity
  8
cuts
 62
256
370
-1
  6
ByLayer
100
AcDbCircle
 10
392.0
 20
71.1599999999999824
 30
0.0
 40
8.0
100
AcDbArc
 50
0.0
 51
90.0
  0
LINE
  5
1D9
100
AcDbEntity
100
AcDbLine
  8
cuts
 62
256
370
-1
  6
ByLayer
 10
103.0
 20
36.0
 30
0.0
 11
132.0
 21
36.0
 31
0.0
  0
LINE
  5
1DA
100
AcDbEntity
100
AcDbLine
  8
skeleton
 62
256
370
-1
  6
ByLayer
 10
-9.9999999999999982
 20
45.0799999999999983
 30
0.0
 11
209.0000000000000284
 21
45.0799999999999983
 31
0.0
  0
LINE
  5
1DB
100
AcDbEntity
100
AcDbLine
  8
skeleton
 62
256
370
-1
  6
ByLayer
 10
-9.9999999999999982
 20
41.5799999999999983
 30
0.0
 11
209.0000000000000284
 21
41.5799999999999983
 31
0.0
  0
LINE
  5
1DC
100
AcDbEntity
100
AcDbLine
  8
cuts
 62
256
370
-1
  6
ByLayer
 10
111.2300000000000182
 20
45.0799999999999983
 30
0.0
 11
130.2300000000000182
 21
45.0799999999999983
 31
0.0
  0
LINE
  5
1DD
100
AcDbEntity
100
AcDbLine
  8
cuts
 62
256
370
-1
  6
ByLayer
 10
130.2300000000000182
 20
45.0799999999999983
 30
0.0
 11
130.2300000000000182
 21
41.5799999999999983
 31
0.0
  0
LINE
  5
1DE
100
AcDbEntity
100
AcDbLine
  8
cuts
 62
256
370
-1
  6
ByLayer
 10
130.2300000000000182
 20
41.5799999999999983
 30
0.0
 11
111.2300000000000182
 21
41.5799999999999983
 31
0.0
  0
LINE
  5
1DF
100
AcDbEntity
100
AcDbLine
  8
cuts
 62
256
370
-1
  6
ByLayer
 10
111.2300000000000182
 20
41.5799999999999983
 30
0.0
 11
111.2300000000000182
 21
45.0799999999999983
 31
0.0
  0
ARC
  5
1E0
100
AcDbEntity
  8
cuts
 62
256
370
-1
  6
ByLayer
100
AcDbCircle
 10
240.0
 20
138.8199999999999363
 30
0.0
 40
2.5
100
AcDbArc
 50
180.0
 51
270.0
  0
LINE
  5
1E1
100
AcDbEntity
100
AcDbLine
  8
cuts
 62
256
370
-1
  6
ByLayer
 10
240.0
 20
136.3199999999999363
 30
0.0
 11
240.0
 21
136.3199999999999363
 31
0.0
  0
LINE
  5
1E2
100
AcDbEntity
100
AcDbLine
  8
cuts
 62
256
370
-1
  6
ByLayer
 10
242.5
 20
102.3199999999999363
 30
0.0
 11
242.5
 21
133.8199999999999363
 31
0.0
  0
ARC
  5
1E3
100
AcDbEntity
  8
cuts
 62
256
370
-1
  6
ByLayer
100
AcDbCircle
 10
240.0
 20
133.8199999999999363
 30
0.0
 40
2.5
100
AcDbArc
 50
0.0
 51
90.0
  0
LINE
  5
1E4
100
AcDbEntity
100
AcDbLine
  8
cuts
 62
256
370
-1
  6
ByLayer
 10
291.0
 20
133.8199999999999363
 30
0.0
 11
291.0
 21
102.3199999999999363
 31
0.0
  0
ARC
  5
1E5
100
AcDbEntity
  8
cuts
 62
256
370
-1
  6
ByLayer
100
AcDbCircle
 10
293.5
 20
133.8199999999999363
 30
0.0
 40
2.5
100
AcDbArc
 50
90.0
 51
180.0
  0
LINE
  5
1E6
100
AcDbEntity
100
AcDbLine
  8
cuts
 62
256
370
-1
  6
ByLayer
 10
293.5
 20
136.3199999999999363
 30
0.0
 11
293.5
 21
136.3199999999999363
 31
0.0
  0
ARC
  5
1E7
100
AcDbEntity
  8
cuts
 62
256
370
-1
  6
ByLayer
100
AcDbCircle
 10
293.5
 20
138.8199999999999363
 30
0.0
 40
2.5
100
AcDbArc
 50
270.0
 51
0.0
  0
LINE
  5
1E8
100
AcDbEntity
100
AcDbLine
  8
cuts
 62
256
370
-1
  6
ByLayer
 10
296.0
 20
183.8199999999999363
 30
0.0
 11
296.0
 21
138.8199999999999363
 31
0.0
  0
ARC
  5
1E9
100
AcDbEntity
  8
cuts
 62
256
370
-1
  6
ByLayer
100
AcDbCircle
 10
293.5
 20
183.8199999999999363
 30
0.0
 40
2.5
100
AcDbArc
 50
0.0
 51
90.0
  0
LINE
  5
1EA
100
AcDbEntity
100
AcDbLine
  8
cuts
 62
256
370
-1
  6
ByLayer
 10
293.5
 20
186.3199999999999363
 30
0.0
 11
293.5
 21
186.3199999999999363
 31
0.0
  0
LINE
  5
1EB
100
AcDbEntity
100
AcDbLine
  8
cuts
 62
256
370
-1
  6
ByLayer
 10
291.0
 20
235.6599999999999682
 30
0.0
 11
291.0
 21
188.8199999999999363
 31
0.0
  0
ARC
  5
1EC
100
AcDbEntity
  8
cuts
 62
256
370
-1
  6
ByLayer
100
AcDbCircle
 10
293.5
 20
188.8199999999999363
 30
0.0
 40
2.5
100
AcDbArc
 50
180.0
 51
270.0
  0
LINE
  5
1ED
100
AcDbEntity
100
AcDbLine
  8
cuts
 62
256
370
-1
  6
ByLayer
 10
242.5
 20
188.8199999999999363
 30
0.0
 11
242.5
 21
235.6599999999999682
 31
0.0
  0
ARC
  5
1EE
100
AcDbEntity
  8
cuts
 62
256
370
-1
  6
ByLayer
100
AcDbCircle
 10
240.0
 20
188.8199999999999363
 30
0.0
 40
2.5
100
AcDbArc
 50
270.0
 51
0.0
  0
LINE
  5
1EF
100
AcDbEntity
100
AcDbLine
  8
cuts
 62
256
370
-1
  6
ByLayer
 10
240.0
 20
186.3199999999999363
 30
0.0
 11
240.0
 21
186.3199999999999363
 31
0.0
  0
LINE
  5
1F0
100
AcDbEntity
100
AcDbLine
  8
cuts
 62
256
370
-1
  6
ByLayer
 10
237.5
 20
138.8199999999999363
 30
0.0
 11
237.5
 21
183.8199999999999363
 31
0.0
  0
ARC
  5
1F1
100
AcDbEntity
  8
cuts
 62
256
370
-1
  6
ByLayer
100
AcDbCircle
 10
240.0
 20
183.8199999999999363
 30
0.0
 40
2.5
100
AcDbArc
 50
90.0
 51
180.0
  0
LINE
  5
1F2
100
AcDbEntity
100
AcDbLine
  8
skeleton
 62
256
370
-1
  6
ByLayer
 10
240.0
 20
154.0899999999999466
 30
0.0
 11
300.0
 21
154.0899999999999466
 31
0.0
  0
LINE
  5
1F3
100
AcDbEntity
100
AcDbLine
  8
skeleton
 62
256
370
-1
  6
ByLayer
 10
250.0000000000000284
 20
-0.6850000000000804
 30
0.0
 11
270.0000000000000568
 21
-0.6850000000000875
 31
0.0
  0
LINE
  5
1F4
100
AcDbEntity
100
AcDbLine
  8
skeleton
 62
256
370
-1
  6
ByLayer
 10
240.0
 20
167.0899999999999466
 30
0.0
 11
300.0
 21
167.0899999999999466
 31
0.0
  0
LINE
  5
1F5
100
AcDbEntity
100
AcDbLine
  8
skeleton
 62
256
370
-1
  6
ByLayer
 10
241.5
 20
102.3199999999999363
 30
0.0
 11
241.5
 21
235.6599999999999966
 31
0.0
  0
LINE
  5
1F6
100
AcDbEntity
100
AcDbLine
  8
skeleton
 62
256
370
-1
  6
ByLayer
 10
292.0
 20
102.3199999999999505
 30
0.0
 11
292.0
 21
235.6599999999999397
 31
0.0
  0
CIRCLE
  5
1F7
100
AcDbEntity
100
AcDbCircle
  8
cuts
 62
256
370
-1
  6
ByLayer
 10
241.5
 20
167.0899999999999466
 30
0.0
 40
1.5
  0
CIRCLE
  5
1F8
100
AcDbEntity
100
AcDbCircle
  8
cuts
 62
256
370
-1
  6
ByLayer
 10
241.5
 20
154.0899999999999466
 30
0.0
 40
1.5
  0
CIRCLE
  5
1F9
100
AcDbEntity
100
AcDbCircle
  8
cuts
 62
256
370
-1
  6
ByLayer
 10
292.0
 20
154.0899999999999466
 30
0.0
 40
1.5
  0
CIRCLE
  5
1FA
100
AcDbEntity
100
AcDbCircle
  8
cuts
 62
256
370
-1
  6
ByLayer
 10
292.0
 20
167.0899999999999466
 30
0.0
 40
1.5
  0
LINE
  5
1FB
100
AcDbEntity
100
AcDbLine
  8
cuts
 62
256
370
-1
  6
ByLayer
 10
100.0
 20
47.5799999999999983
 30
0.0
 11
61.5
 21
47.5799999999999983
 31
0.0
  0
INSERT
  5
1FC
100
AcDbEntity
100
AcDbBlockReference
  8
cuts
 62
256
370
-1
  6
ByLayer
  2
pressfit-bearing
 10
69.5
 20
26.4999999999999964
 30
0.0
 44
1.0
 45
1.0
  0
INSERT
  5
1FD
100
AcDbEntity
100
AcDbBlockReference
  8
cuts
 62
256
370
-1
  6
ByLayer
  2
pressfit-bearing
 10
184.5
 20
26.5
 30
0.0
 44
1.0
 45
1.0
  0
ENDSEC
  0
SECTION
  2
OBJECTS
  0
DICTIONARY
  5
C
100
AcDbDictionary
280
0
281
1
  3
ACAD_GROUP
350
D
  3
ACAD_LAYOUT
350
1A
  3
ACAD_MLINESTYLE
350
17
  3
ACAD_PLOTSETTINGS
350
19
  3
ACAD_PLOTSTYLENAME
350
E
  3
AcDbVariableDictionary
350
1FE
  0
DICTIONARY
  5
D
100
AcDbDictionary
280
0
281
1
  0
ACDBDICTIONARYWDFLT
  5
E
100
AcDbDictionary
281
1
  3
Normal
350
F
100
AcDbDictionaryWithDefault
340
F
  0
ACDBPLACEHOLDER
  5
F
  0
DICTIONARY
  5
17
100
AcDbDictionary
280
0
281
1
  3
Standard
350
18
  0
MLINESTYLE
  5
18
100
AcDbMlineStyle
  2
STANDARD
 70
0
  3

 62
256
 51
90.0
 52
90.0
 71
2
 49
0.5
 62
256
  6
BYLAYER
 49
-0.5
 62
256
  6
BYLAYER
  0
DICTIONARY
  5
19
100
AcDbDictionary
280
0
281
1
  0
DICTIONARY
  5
1A
100
AcDbDictionary
281
1
  3
Layout1
350
1E
  3
Layout2
350
26
  3
Model
350
22
  0
LAYOUT
  5
1E
100
AcDbPlotSettings
  1

  2
C:\Program Files\AutoCAD 2002\plotters\DWF ePlot (optimized for plotting).pc3
  4

  6

 40
0.0
 41
0.0
 42
0.0
 43
0.0
 44
0.0
 45
0.0
 46
0.0
 47
0.0
 48
0.0
 49
0.0
140
0.0
141
0.0
142
1.0
143
1.0
 70
688
 72
0
 73
0
 74
5
  7

 75
16
147
1.0
148
0.0
149
0.0
100
AcDbLayout
  1
Layout1
 70
1
 71
1
 10
0.0
 20
0.0
 11
420.0
 21
297.0
 12
0.0
 22
0.0
 32
0.0
 14
100000000000000000000.0
 24
100000000000000000000.0
 34
100000000000000000000.0
 15
-100000000000000000000.0
 25
-100000000000000000000.0
 35
-100000000000000000000.0
146
0.0
 13
0.0
 23
0.0
 33
0.0
 16
1.0
 26
0.0
 36
0.0
 17
0.0
 27
1.0
 37
0.0
 76
0
330
1B
  0
LAYOUT
  5
22
100
AcDbPlotSettings
  1

  2
C:\Program Files\AutoCAD 2002\plotters\DWF ePlot (optimized for plotting).pc3
  4

  6

 40
0.0
 41
0.0
 42
0.0
 43
0.0
 44
0.0
 45
0.0
 46
0.0
 47
0.0
 48
0.0
 49
0.0
140
0.0
141
0.0
142
1.0
143
1.0
 70
1712
 72
0
 73
0
 74
0
  7

 75
0
147
1.0
148
0.0
149
0.0
100
AcDbLayout
  1
Model
 70
1
 71
0
 10
0.0
 20
0.0
 11
12.0
 21
9.0
 12
0.0
 22
0.0
 32
0.0
 14
0.0
 24
0.0
 34
0.0
 15
0.0
 25
0.0
 35
0.0
146
0.0
 13
0.0
 23
0.0
 33
0.0
 16
1.0
 26
0.0
 36
0.0
 17
0.0
 27
1.0
 37
0.0
 76
0
330
1F
  0
LAYOUT
  5
26
100
AcDbPlotSettings
  1

  2
C:\Program Files\AutoCAD 2002\plotters\DWF ePlot (optimized for plotting).pc3
  4

  6

 40
0.0
 41
0.0
 42
0.0
 43
0.0
 44
0.0
 45
0.0
 46
0.0
 47
0.0
 48
0.0
 49
0.0
140
0.0
141
0.0
142
1.0
143
1.0
 70
688
 72
0
 73
0
 74
5
  7

 75
16
147
1.0
148
0.0
149
0.0
100
AcDbLayout
  1
Layout2
 70
1
 71
2
 10
0.0
 20
0.0
 11
12.0
 21
9.0
 12
0.0
 22
0.0
 32
0.0
 14
0.0
 24
0.0
 34
0.0
 15
0.0
 25
0.0
 35
0.0
146
0.0
 13
0.0
 23
0.0
 33
0.0
 16
1.0
 26
0.0
 36
0.0
 17
0.0
 27
1.0
 37
0.0
 76
0
330
23
  0
DICTIONARY
  5
1FE
100
AcDbDictionary
281
1
  3
DIMASSOC
350
200
  3
HIDETEXT
350
1FF
  0
DICTIONARYVAR
  5
1FF
100
DictionaryVariables
280
0
  1
2
  0
DICTIONARYVAR
  5
200
100
DictionaryVariables
280
0
  1
1
  0
ENDSEC
  0
EOF
