999
dxflib 2.2.0.0
  0
SECTION
  2
HEADER
  9
$ACADVER
  1
AC1015
  9
$HANDSEED
  5
FFFF
  9
$DIMASZ
 40
2.5
  9
$PLIMMIN
 10
0.0
 20
0.0
  9
$DIMEXE
 40
1.25
  9
$DIMGAP
 40
0.625
  9
$PLIMMAX
 10
210.0
 20
297.0
  9
$INSUNITS
 70
4
  9
$DIMSTYLE
  2
Standard
  9
$CLAYER
  8
0
  9
$DIMEXO
 40
0.625
  9
$DIMTXT
 40
2.5
  9
$CLAYER
  8
rod-support
  0
ENDSEC
  0
SECTION
  2
TABLES
  0
TABLE
  2
VPORT
  5
8
100
AcDbSymbolTable
 70
1
  0
VPORT
  5
30
100
AcDbSymbolTableRecord
100
AcDbViewportTableRecord
  2
*Active
 70
0
 10
0.0
 20
0.0
 11
1.0
 21
1.0
 12
286.3055555555554861
 22
148.5
 13
0.0
 23
0.0
 14
10.0
 24
10.0
 15
10.0
 25
10.0
 16
0.0
 26
0.0
 36
1.0
 17
0.0
 27
0.0
 37
0.0
 40
297.0
 41
1.92798353909465
 42
50.0
 43
0.0
 44
0.0
 50
0.0
 51
0.0
 71
0
 72
100
 73
1
 74
3
 75
1
 76
1
 77
0
 78
0
281
0
 65
1
110
0.0
120
0.0
130
0.0
111
1.0
121
0.0
131
0.0
112
0.0
122
1.0
132
0.0
 79
0
146
0.0
  0
ENDTAB
  0
TABLE
  2
LTYPE
  5
5
100
AcDbSymbolTable
 70
21
  0
LTYPE
  5
14
100
AcDbSymbolTableRecord
100
AcDbLinetypeTableRecord
  2
ByBlock
 70
0
  3

 72
65
 73
0
 40
0.0
  0
LTYPE
  5
15
100
AcDbSymbolTableRecord
100
AcDbLinetypeTableRecord
  2
ByLayer
 70
0
  3

 72
65
 73
0
 40
0.0
  0
LTYPE
  5
16
100
AcDbSymbolTableRecord
100
AcDbLinetypeTableRecord
  2
CONTINUOUS
 70
0
  3
Solid line
 72
65
 73
0
 40
0.0
  0
LTYPE
  5
31
100
AcDbSymbolTableRecord
100
AcDbLinetypeTableRecord
  2
DOT
 70
0
  3
Dot . . . . . . . . . . . . . . . . . . . . . .
 72
65
 73
2
 40
6.3499999999999996
 49
0.0
 74
0
 49
-6.3499999999999996
 74
0
  0
LTYPE
  5
32
100
AcDbSymbolTableRecord
100
AcDbLinetypeTableRecord
  2
DOT2
 70
0
  3
Dot (.5x) .....................................
 72
65
 73
2
 40
3.1749999999999998
 49
0.0
 74
0
 49
-3.1749999999999998
 74
0
  0
LTYPE
  5
33
100
AcDbSymbolTableRecord
100
AcDbLinetypeTableRecord
  2
DOTX2
 70
0
  3
Dot (2x) .  .  .  .  .  .  .  .  .  .  .  .  .
 72
65
 73
2
 40
12.6999999999999993
 49
0.0
 74
0
 49
-12.6999999999999993
 74
0
  0
LTYPE
  5
34
100
AcDbSymbolTableRecord
100
AcDbLinetypeTableRecord
  2
DASHED
 70
0
  3
Dashed __ __ __ __ __ __ __ __ __ __ __ __ __ _
 72
65
 73
2
 40
19.0500000000000007
 49
12.6999999999999993
 74
0
 49
-6.3499999999999996
 74
0
  0
LTYPE
  5
35
100
AcDbSymbolTableRecord
100
AcDbLinetypeTableRecord
  2
DASHED2
 70
0
  3
Dashed (.5x) _ _ _ _ _ _ _ _ _ _ _ _ _ _ _ _ _
 72
65
 73
2
 40
9.5250000000000004
 49
6.3499999999999996
 74
0
 49
-3.1749999999999998
 74
0
  0
LTYPE
  5
36
100
AcDbSymbolTableRecord
100
AcDbLinetypeTableRecord
  2
DASHEDX2
 70
0
  3
Dashed (2x) ____  ____  ____  ____  ____  ___
 72
65
 73
2
 40
38.1000000000000014
 49
25.3999999999999986
 74
0
 49
-12.6999999999999993
 74
0
  0
LTYPE
  5
37
100
AcDbSymbolTableRecord
100
AcDbLinetypeTableRecord
  2
DASHDOT
 70
0
  3
Dash dot __ . __ . __ . __ . __ . __ . __ . __
 72
65
 73
4
 40
25.3999999999999986
 49
12.6999999999999993
 74
0
 49
-6.3499999999999996
 74
0
 49
0.0
 74
0
 49
-6.3499999999999996
 74
0
  0
LTYPE
  5
38
100
AcDbSymbolTableRecord
100
AcDbLinetypeTableRecord
  2
DASHDOT2
 70
0
  3
Dash dot (.5x) _._._._._._._._._._._._._._._.
 72
65
 73
4
 40
12.6999999999999993
 49
6.3499999999999996
 74
0
 49
-3.1749999999999998
 74
0
 49
0.0
 74
0
 49
-3.1749999999999998
 74
0
  0
LTYPE
  5
39
100
AcDbSymbolTableRecord
100
AcDbLinetypeTableRecord
  2
DASHDOTX2
 70
0
  3
Dash dot (2x) ____  .  ____  .  ____  .  ___
 72
65
 73
4
 40
50.7999999999999972
 49
25.3999999999999986
 74
0
 49
-12.6999999999999993
 74
0
 49
0.0
 74
0
 49
-12.6999999999999993
 74
0
  0
LTYPE
  5
3A
100
AcDbSymbolTableRecord
100
AcDbLinetypeTableRecord
  2
DIVIDE
 70
0
  3
Divide ____ . . ____ . . ____ . . ____ . . ____
 72
65
 73
6
 40
31.75
 49
12.6999999999999993
 74
0
 49
-6.3499999999999996
 74
0
 49
0.0
 74
0
 49
-6.3499999999999996
 74
0
 49
0.0
 74
0
 49
-6.3499999999999996
 74
0
  0
LTYPE
  5
3B
100
AcDbSymbolTableRecord
100
AcDbLinetypeTableRecord
  2
DIVIDE2
 70
0
  3
Divide (.5x) __..__..__..__..__..__..__..__.._
 72
65
 73
6
 40
15.875
 49
6.3499999999999996
 74
0
 49
-3.1749999999999998
 74
0
 49
0.0
 74
0
 49
-3.1749999999999998
 74
0
 49
0.0
 74
0
 49
-3.1749999999999998
 74
0
  0
LTYPE
  5
3C
100
AcDbSymbolTableRecord
100
AcDbLinetypeTableRecord
  2
DIVIDEX2
 70
0
  3
Divide (2x) ________  .  .  ________  .  .  _
 72
65
 73
6
 40
63.5
 49
25.3999999999999986
 74
0
 49
-12.6999999999999993
 74
0
 49
0.0
 74
0
 49
-12.6999999999999993
 74
0
 49
0.0
 74
0
 49
-12.6999999999999993
 74
0
  0
LTYPE
  5
3D
100
AcDbSymbolTableRecord
100
AcDbLinetypeTableRecord
  2
CENTER
 70
0
  3
Center ____ _ ____ _ ____ _ ____ _ ____ _ ____
 72
65
 73
4
 40
50.7999999999999972
 49
31.75
 74
0
 49
-6.3499999999999996
 74
0
 49
6.3499999999999996
 74
0
 49
-6.3499999999999996
 74
0
  0
LTYPE
  5
3E
100
AcDbSymbolTableRecord
100
AcDbLinetypeTableRecord
  2
CENTER2
 70
0
  3
Center (.5x) ___ _ ___ _ ___ _ ___ _ ___ _ ___
 72
65
 73
4
 40
28.5749999999999993
 49
19.0500000000000007
 74
0
 49
-3.1749999999999998
 74
0
 49
3.1749999999999998
 74
0
 49
-3.1749999999999998
 74
0
  0
LTYPE
  5
3F
100
AcDbSymbolTableRecord
100
AcDbLinetypeTableRecord
  2
CENTERX2
 70
0
  3
Center (2x) ________  __  ________  __  _____
 72
65
 73
4
 40
101.5999999999999943
 49
63.5
 74
0
 49
-12.6999999999999993
 74
0
 49
12.6999999999999993
 74
0
 49
-12.6999999999999993
 74
0
  0
LTYPE
  5
40
100
AcDbSymbolTableRecord
100
AcDbLinetypeTableRecord
  2
BORDER
 70
0
  3
Border __ __ . __ __ . __ __ . __ __ . __ __ .
 72
65
 73
6
 40
44.4500000000000028
 49
12.6999999999999993
 74
0
 49
-6.3499999999999996
 74
0
 49
12.6999999999999993
 74
0
 49
-6.3499999999999996
 74
0
 49
0.0
 74
0
 49
-6.3499999999999996
 74
0
  0
LTYPE
  5
41
100
AcDbSymbolTableRecord
100
AcDbLinetypeTableRecord
  2
BORDER2
 70
0
  3
Border (.5x) __.__.__.__.__.__.__.__.__.__.__.
 72
65
 73
6
 40
22.2250000000000014
 49
6.3499999999999996
 74
0
 49
-3.1749999999999998
 74
0
 49
6.3499999999999996
 74
0
 49
-3.1749999999999998
 74
0
 49
0.0
 74
0
 49
-3.1749999999999998
 74
0
  0
LTYPE
  5
42
100
AcDbSymbolTableRecord
100
AcDbLinetypeTableRecord
  2
BORDERX2
 70
0
  3
Border (2x) ____  ____  .  ____  ____  .  ___
 72
65
 73
6
 40
88.9000000000000057
 49
25.3999999999999986
 74
0
 49
-12.6999999999999993
 74
0
 49
25.3999999999999986
 74
0
 49
-12.6999999999999993
 74
0
 49
0.0
 74
0
 49
-12.6999999999999993
 74
0
  0
ENDTAB
  0
TABLE
  2
LAYER
  5
2
100
AcDbSymbolTable
 70
9
  0
LAYER
  5
10
100
AcDbSymbolTableRecord
100
AcDbLayerTableRecord
  2
0
 70
0
 62
7
420
0
  6
CONTINUOUS
370
25
390
F
  0
LAYER
  5
43
100
AcDbSymbolTableRecord
100
AcDbLayerTableRecord
  2
main-deck
 70
0
 62
7
420
0
  6
CONTINUOUS
370
0
390
F
  0
LAYER
  5
44
100
AcDbSymbolTableRecord
100
AcDbLayerTableRecord
  2
cuts
 70
0
 62
7
420
0
  6
CONTINUOUS
370
0
390
F
  0
LAYER
  5
45
100
AcDbSymbolTableRecord
100
AcDbLayerTableRecord
  2
side
 70
0
 62
7
420
0
  6
CONTINUOUS
370
0
390
F
  0
LAYER
  5
46
100
AcDbSymbolTableRecord
100
AcDbLayerTableRecord
  2
rib
 70
0
 62
7
420
0
  6
CONTINUOUS
370
0
390
F
  0
LAYER
  5
47
100
AcDbSymbolTableRecord
100
AcDbLayerTableRecord
  2
rod-support
 70
0
 62
7
420
0
  6
CONTINUOUS
370
0
390
F
  0
LAYER
  5
48
100
AcDbSymbolTableRecord
100
AcDbLayerTableRecord
  2
rod-backplate
 70
0
 62
7
420
0
  6
CONTINUOUS
370
0
390
F
  0
LAYER
  5
49
100
AcDbSymbolTableRecord
100
AcDbLayerTableRecord
  2
inner-clamp
 70
0
 62
7
420
0
  6
CONTINUOUS
370
0
390
F
  0
LAYER
  5
4A
100
AcDbSymbolTableRecord
100
AcDbLayerTableRecord
  2
text
 70
0
 62
4
420
65535
  6
CONTINUOUS
370
0
390
F
  0
ENDTAB
  0
TABLE
  2
STYLE
  5
3
100
AcDbSymbolTable
 70
1
  0
STYLE
  5
11
100
AcDbSymbolTableRecord
100
AcDbTextStyleTableRecord
  2
Standard
 70
0
 40
0.0
 41
0.75
 50
0.0
 71
0
 42
2.5
  3
txt
  4

  0
ENDTAB
  0
TABLE
  2
VIEW
  5
6
100
AcDbSymbolTable
 70
0
  0
ENDTAB
  0
TABLE
  2
UCS
  5
7
100
AcDbSymbolTable
 70
0
  0
ENDTAB
  0
TABLE
  2
APPID
  5
9
100
AcDbSymbolTable
 70
1
  0
APPID
  5
12
100
AcDbSymbolTableRecord
100
AcDbRegAppTableRecord
  2
ACAD
 70
0
  0
ENDTAB
  0
TABLE
  2
DIMSTYLE
  5
A
100
AcDbSymbolTable
 70
1
100
AcDbDimStyleTable
 71
0
  0
DIMSTYLE
105
27
100
AcDbSymbolTableRecord
100
AcDbDimStyleTableRecord
  2
Standard
 41
2.5
 42
0.625
 43
3.75
 44
1.25
 70
0
 73
0
 74
0
 77
1
 78
8
140
2.5
141
2.5
143
0.03937007874016
147
0.625
171
3
172
1
271
2
272
2
274
3
278
44
283
0
284
8
340
11
  0
ENDTAB
  0
TABLE
  2
BLOCK_RECORD
  5
1
100
AcDbSymbolTable
 70
1
  0
BLOCK_RECORD
  5
1F
100
AcDbSymbolTableRecord
100
AcDbBlockTableRecord
  2
*Model_Space
340
22
  0
BLOCK_RECORD
  5
1B
100
AcDbSymbolTableRecord
100
AcDbBlockTableRecord
  2
*Paper_Space
340
1E
  0
BLOCK_RECORD
  5
23
100
AcDbSymbolTableRecord
100
AcDbBlockTableRecord
  2
*Paper_Space0
340
26
  0
BLOCK_RECORD
  5
4B
100
AcDbSymbolTableRecord
100
AcDbBlockTableRecord
  2
nema17
340
0
  0
BLOCK_RECORD
  5
4C
100
AcDbSymbolTableRecord
100
AcDbBlockTableRecord
  2
slot
340
0
  0
BLOCK_RECORD
  5
4D
100
AcDbSymbolTableRecord
100
AcDbBlockTableRecord
  2
tab
340
0
  0
BLOCK_RECORD
  5
4E
100
AcDbSymbolTableRecord
100
AcDbBlockTableRecord
  2
m3-t-slot
340
0
  0
ENDTAB
  0
ENDSEC
  0
SECTION
  2
BLOCKS
  0
BLOCK
  5
20
100
AcDbEntity
  8
0
100
AcDbBlockBegin
  2
*Model_Space
 70
0
 10
0.0
 20
0.0
 30
0.0
  3
*Model_Space
  1

  0
ENDBLK
  5
21
100
AcDbEntity
  8
0
100
AcDbBlockEnd
  0
BLOCK
  5
1C
100
AcDbEntity
 67
1
  8
0
100
AcDbBlockBegin
  2
*Paper_Space
 70
0
 10
0.0
 20
0.0
 30
0.0
  3
*Paper_Space
  1

  0
ENDBLK
  5
1D
100
AcDbEntity
 67
1
  8
0
100
AcDbBlockEnd
  0
BLOCK
  5
24
100
AcDbEntity
  8
0
100
AcDbBlockBegin
  2
*Paper_Space0
 70
0
 10
0.0
 20
0.0
 30
0.0
  3
*Paper_Space0
  1

  0
ENDBLK
  5
25
100
AcDbEntity
  8
0
100
AcDbBlockEnd
  0
BLOCK
  5
4F
100
AcDbEntity
  8
0
100
AcDbBlockBegin
  2
nema17
 70
0
 10
0.0
 20
0.0
 30
0.0
  3
nema17
  1

  0
CIRCLE
  5
50
100
AcDbEntity
100
AcDbCircle
  8
cuts
 62
256
370
-1
  6
ByLayer
 10
0.0000000000000051
 20
0.0
 30
0.0
 40
11.0
  0
CIRCLE
  5
51
100
AcDbEntity
100
AcDbCircle
  8
cuts
 62
256
370
-1
  6
ByLayer
 10
15.495000000000001
 20
15.4949999999999939
 30
0.0
 40
1.5
  0
CIRCLE
  5
52
100
AcDbEntity
100
AcDbCircle
  8
cuts
 62
256
370
-1
  6
ByLayer
 10
15.4949999999999974
 20
-15.4950000000000028
 30
0.0
 40
1.5
  0
CIRCLE
  5
53
100
AcDbEntity
100
AcDbCircle
  8
cuts
 62
256
370
-1
  6
ByLayer
 10
-15.4950000000000045
 20
-15.4949999999999868
 30
0.0
 40
1.5
  0
CIRCLE
  5
54
100
AcDbEntity
100
AcDbCircle
  8
cuts
 62
256
370
-1
  6
ByLayer
 10
-15.4949999999999992
 20
15.495000000000001
 30
0.0
 40
1.5
  0
ENDBLK
  5
55
100
AcDbEntity
  8
0
100
AcDbBlockEnd
  0
BLOCK
  5
56
100
AcDbEntity
  8
0
100
AcDbBlockBegin
  2
slot
 70
0
 10
0.0
 20
0.0
 30
0.0
  3
slot
  1

  0
LINE
  5
57
100
AcDbEntity
100
AcDbLine
  8
cuts
 62
256
370
-1
  6
ByLayer
 10
-1.6000000000000001
 20
4.9500000000000002
 30
0.0
 11
1.6000000000000001
 21
4.9499999999999993
 31
0.0
  0
LINE
  5
58
100
AcDbEntity
100
AcDbLine
  8
cuts
 62
256
370
-1
  6
ByLayer
 10
1.5999999999999996
 20
-4.9500000000000002
 30
0.0
 11
1.6000000000000001
 21
4.9499999999999993
 31
0.0
  0
LINE
  5
59
100
AcDbEntity
100
AcDbLine
  8
cuts
 62
256
370
-1
  6
ByLayer
 10
-1.6000000000000001
 20
4.9500000000000002
 30
0.0
 11
-1.6000000000000001
 21
-4.9499999999999993
 31
0.0
  0
LINE
  5
5A
100
AcDbEntity
100
AcDbLine
  8
cuts
 62
256
370
-1
  6
ByLayer
 10
-1.6000000000000001
 20
-4.9499999999999993
 30
0.0
 11
1.5999999999999996
 21
-4.9500000000000002
 31
0.0
  0
ENDBLK
  5
5B
100
AcDbEntity
  8
0
100
AcDbBlockEnd
  0
BLOCK
  5
5C
100
AcDbEntity
  8
0
100
AcDbBlockBegin
  2
tab
 70
0
 10
0.0
 20
0.0
 30
0.0
  3
tab
  1

  0
LINE
  5
5D
100
AcDbEntity
100
AcDbLine
  8
cuts
 62
256
370
-1
  6
ByLayer
 10
5.0
 20
0.0
 30
0.0
 11
5.0
 21
3.2000000000000002
 31
0.0
  0
LINE
  5
5E
100
AcDbEntity
100
AcDbLine
  8
cuts
 62
256
370
-1
  6
ByLayer
 10
5.0
 20
3.2000000000000002
 30
0.0
 11
-5.0
 21
3.2000000000000002
 31
0.0
  0
LINE
  5
5F
100
AcDbEntity
100
AcDbLine
  8
cuts
 62
256
370
-1
  6
ByLayer
 10
-5.0
 20
3.2000000000000002
 30
0.0
 11
-5.0
 21
0.0
 31
0.0
  0
ENDBLK
  5
60
100
AcDbEntity
  8
0
100
AcDbBlockEnd
  0
BLOCK
  5
61
100
AcDbEntity
  8
0
100
AcDbBlockBegin
  2
m3-t-slot
 70
0
 10
0.0
 20
0.0
 30
0.0
  3
m3-t-slot
  1

  0
LINE
  5
62
100
AcDbEntity
100
AcDbLine
  8
cuts
 62
256
370
-1
  6
ByLayer
 10
-1.4999999999999978
 20
0.0000000000000009
 30
0.0
 11
-1.5000000000000004
 21
3.330000000000001
 31
0.0
  0
LINE
  5
63
100
AcDbEntity
100
AcDbLine
  8
cuts
 62
256
370
-1
  6
ByLayer
 10
1.5000000000000009
 20
3.3299999999999956
 30
0.0
 11
1.4999999999999978
 21
-0.0000000000000009
 31
0.0
  0
LINE
  5
64
100
AcDbEntity
100
AcDbLine
  8
cuts
 62
256
370
-1
  6
ByLayer
 10
-1.4999999999999978
 20
7.4999999999999991
 30
0.0
 11
1.5000000000000058
 21
7.4999999999999991
 31
0.0
  0
LINE
  5
65
100
AcDbEntity
100
AcDbLine
  8
cuts
 62
256
370
-1
  6
ByLayer
 10
-1.4999999999999996
 20
5.5000000000000009
 30
0.0
 11
-1.4999999999999978
 21
7.4999999999999991
 31
0.0
  0
LINE
  5
66
100
AcDbEntity
100
AcDbLine
  8
cuts
 62
256
370
-1
  6
ByLayer
 10
1.5000000000000058
 20
7.4999999999999991
 30
0.0
 11
1.5000000000000036
 21
5.4999999999999991
 31
0.0
  0
LINE
  5
67
100
AcDbEntity
100
AcDbLine
  8
cuts
 62
256
370
-1
  6
ByLayer
 10
-1.5000000000000004
 20
3.330000000000001
 30
0.0
 11
-2.8599999999999945
 21
3.3299999999999974
 31
0.0
  0
LINE
  5
68
100
AcDbEntity
100
AcDbLine
  8
cuts
 62
256
370
-1
  6
ByLayer
 10
-2.8599999999999945
 20
3.3299999999999974
 30
0.0
 11
-2.8599999999999945
 21
5.4999999999999991
 31
0.0
  0
LINE
  5
69
100
AcDbEntity
100
AcDbLine
  8
cuts
 62
256
370
-1
  6
ByLayer
 10
-2.8599999999999945
 20
5.4999999999999991
 30
0.0
 11
-1.4999999999999996
 21
5.5000000000000009
 31
0.0
  0
LINE
  5
6A
100
AcDbEntity
100
AcDbLine
  8
cuts
 62
256
370
-1
  6
ByLayer
 10
1.5000000000000036
 20
5.4999999999999991
 30
0.0
 11
2.859999999999999
 21
5.4999999999999973
 31
0.0
  0
LINE
  5
6B
100
AcDbEntity
100
AcDbLine
  8
cuts
 62
256
370
-1
  6
ByLayer
 10
2.859999999999999
 20
5.4999999999999973
 30
0.0
 11
2.8599999999999963
 21
3.3299999999999974
 31
0.0
  0
LINE
  5
6C
100
AcDbEntity
100
AcDbLine
  8
cuts
 62
256
370
-1
  6
ByLayer
 10
2.8599999999999963
 20
3.3299999999999974
 30
0.0
 11
1.5000000000000009
 21
3.3299999999999956
 31
0.0
  0
ENDBLK
  5
6D
100
AcDbEntity
  8
0
100
AcDbBlockEnd
  0
ENDSEC
  0
SECTION
  2
ENTITIES
  0
INSERT
  5
6E
100
AcDbEntity
100
AcDbBlockReference
  8
main-deck
 62
256
370
-1
  6
ByLayer
  2
nema17
 10
-0.0292497607654261
 20
21.0799999999999734
 30
0.0
 44
1.0
 45
1.0
  0
LINE
  5
6F
100
AcDbEntity
100
AcDbLine
  8
main-deck
 62
256
370
-1
  6
ByLayer
 10
-30.8292497820824103
 20
0.0000000000000075
 30
0.0
 11
21.5707502179175954
 21
-0.0000000000000052
 31
0.0
  0
LINE
  5
70
100
AcDbEntity
100
AcDbLine
  8
main-deck
 62
256
370
-1
  6
ByLayer
 10
21.5707502179175954
 20
-0.0000000000000052
 30
0.0
 11
21.5707502179175918
 21
21.0799999999999912
 31
0.0
  0
LINE
  5
71
100
AcDbEntity
100
AcDbLine
  8
main-deck
 62
256
370
-1
  6
ByLayer
 10
21.5707502179175918
 20
21.0799999999999912
 30
0.0
 11
27.3707502179175961
 21
21.0799999999999912
 31
0.0
  0
LINE
  5
72
100
AcDbEntity
100
AcDbLine
  8
main-deck
 62
256
370
-1
  6
ByLayer
 10
-36.6292497820824039
 20
21.0800000000000054
 30
0.0
 11
-30.8292497820823996
 21
21.0800000000000054
 31
0.0
  0
LINE
  5
73
100
AcDbEntity
100
AcDbLine
  8
main-deck
 62
256
370
-1
  6
ByLayer
 10
-30.8292497820823996
 20
21.0800000000000054
 30
0.0
 11
-30.8292497820824103
 21
0.0000000000000075
 31
0.0
  0
LINE
  5
74
100
AcDbEntity
100
AcDbLine
  8
main-deck
 62
256
370
-1
  6
ByLayer
 10
-30.8292497820823854
 20
188.5
 30
0.0
 11
-36.6292497820823897
 21
188.5
 31
0.0
  0
LINE
  5
75
100
AcDbEntity
100
AcDbLine
  8
main-deck
 62
256
370
-1
  6
ByLayer
 10
-36.6292497820823897
 20
188.5
 30
0.0
 11
-36.6292497820824039
 21
21.0800000000000054
 31
0.0
  0
LINE
  5
76
100
AcDbEntity
100
AcDbLine
  8
main-deck
 62
256
370
-1
  6
ByLayer
 10
27.3707502179175961
 20
21.0799999999999912
 30
0.0
 11
27.3707502179176103
 21
188.5
 31
0.0
  0
LINE
  5
77
100
AcDbEntity
100
AcDbLine
  8
main-deck
 62
256
370
-1
  6
ByLayer
 10
21.5707502179176061
 20
188.4999999999999716
 30
0.0
 11
27.3707502179176103
 21
188.5
 31
0.0
  0
CIRCLE
  5
78
100
AcDbEntity
100
AcDbCircle
  8
main-deck
 62
256
370
-1
  6
ByLayer
 10
-32.6292497820823968
 20
170.0000000000000284
 30
0.0
 40
1.5
  0
CIRCLE
  5
79
100
AcDbEntity
100
AcDbCircle
  8
main-deck
 62
256
370
-1
  6
ByLayer
 10
23.3707502179176068
 20
169.9999999999999716
 30
0.0
 40
1.5
  0
CIRCLE
  5
7A
100
AcDbEntity
100
AcDbCircle
  8
main-deck
 62
256
370
-1
  6
ByLayer
 10
-32.6292497820824039
 20
50.0
 30
0.0
 40
1.5
  0
CIRCLE
  5
7B
100
AcDbEntity
100
AcDbCircle
  8
main-deck
 62
256
370
-1
  6
ByLayer
 10
23.3707502179175997
 20
49.9999999999999929
 30
0.0
 40
1.5
  0
CIRCLE
  5
7C
100
AcDbEntity
100
AcDbCircle
  8
main-deck
 62
256
370
-1
  6
ByLayer
 10
23.3707502179176032
 20
119.9999999999999858
 30
0.0
 40
1.5
  0
CIRCLE
  5
7D
100
AcDbEntity
100
AcDbCircle
  8
main-deck
 62
256
370
-1
  6
ByLayer
 10
-32.6292497820823968
 20
120.0
 30
0.0
 40
1.5
  0
INSERT
  5
7E
100
AcDbEntity
100
AcDbBlockReference
  8
main-deck
 62
256
370
-1
  6
ByLayer
  2
slot
 10
-32.6292497820823897
 20
145.0
 30
0.0
 44
1.0
 45
1.0
  0
INSERT
  5
7F
100
AcDbEntity
100
AcDbBlockReference
  8
main-deck
 62
256
370
-1
  6
ByLayer
  2
slot
 10
23.3707502179176068
 20
145.0
 30
0.0
 44
1.0
 45
1.0
  0
INSERT
  5
80
100
AcDbEntity
100
AcDbBlockReference
  8
main-deck
 62
256
370
-1
  6
ByLayer
  2
slot
 10
-32.6292497820823968
 20
69.5000000000000142
 30
0.0
 44
1.0
 45
1.0
  0
INSERT
  5
81
100
AcDbEntity
100
AcDbBlockReference
  8
main-deck
 62
256
370
-1
  6
ByLayer
  2
slot
 10
23.3707502179175997
 20
69.4999999999999858
 30
0.0
 44
1.0
 45
1.0
  0
ARC
  5
82
100
AcDbEntity
  8
side
 62
256
370
-1
  6
ByLayer
100
AcDbCircle
 10
-159.1666666666668846
 20
9.9999999999999982
 30
0.0
 40
10.0
100
AcDbArc
 50
180.0
 51
270.0
  0
INSERT
  5
83
100
AcDbEntity
100
AcDbBlockReference
  8
side
 62
256
370
-1
  6
ByLayer
  2
tab
 10
-135.1666666666667425
 20
145.0
 30
0.0
 50
270.0
 44
1.0
 45
1.0
  0
INSERT
  5
84
100
AcDbEntity
100
AcDbBlockReference
  8
side
 62
256
370
-1
  6
ByLayer
  2
tab
 10
-135.1666666666667709
 20
69.5000000000000284
 30
0.0
 50
270.0
 44
1.0
 45
1.0
  0
INSERT
  5
85
100
AcDbEntity
100
AcDbBlockReference
  8
side
 62
256
370
-1
  6
ByLayer
  2
m3-t-slot
 10
-135.1666666666667425
 20
170.0
 30
0.0
 50
90.0
 44
1.0
 45
1.0
  0
INSERT
  5
86
100
AcDbEntity
100
AcDbBlockReference
  8
side
 62
256
370
-1
  6
ByLayer
  2
m3-t-slot
 10
-135.1666666666667425
 20
120.0000000000000142
 30
0.0
 50
90.0
 44
1.0
 45
1.0
  0
INSERT
  5
87
100
AcDbEntity
100
AcDbBlockReference
  8
side
 62
256
370
-1
  6
ByLayer
  2
m3-t-slot
 10
-135.1666666666667425
 20
50.0
 30
0.0
 50
90.0
 44
1.0
 45
1.0
  0
LINE
  5
88
100
AcDbEntity
100
AcDbLine
  8
side
 62
256
370
-1
  6
ByLayer
 10
-135.1666666666667709
 20
188.5000000000000284
 30
0.0
 11
-135.1666666666667425
 21
171.5
 31
0.0
  0
LINE
  5
89
100
AcDbEntity
100
AcDbLine
  8
side
 62
256
370
-1
  6
ByLayer
 10
-135.1666666666667425
 20
168.5
 30
0.0
 11
-135.1666666666667425
 21
150.0
 31
0.0
  0
LINE
  5
8A
100
AcDbEntity
100
AcDbLine
  8
side
 62
256
370
-1
  6
ByLayer
 10
-135.1666666666667425
 20
140.0
 30
0.0
 11
-135.1666666666667425
 21
121.5000000000000284
 31
0.0
  0
LINE
  5
8B
100
AcDbEntity
100
AcDbLine
  8
side
 62
256
370
-1
  6
ByLayer
 10
-135.1666666666667425
 20
118.5000000000000284
 30
0.0
 11
-135.1666666666667425
 21
74.5000000000000142
 31
0.0
  0
LINE
  5
8C
100
AcDbEntity
100
AcDbLine
  8
side
 62
256
370
-1
  6
ByLayer
 10
-135.1666666666667425
 20
64.5000000000000426
 30
0.0
 11
-135.1666666666667425
 21
51.5000000000000071
 31
0.0
  0
LINE
  5
8D
100
AcDbEntity
100
AcDbLine
  8
side
 62
256
370
-1
  6
ByLayer
 10
-135.1666666666667425
 20
48.4999999999999929
 30
0.0
 11
-135.1666666666667425
 21
21.0800000000000018
 31
0.0
  0
LINE
  5
8E
100
AcDbEntity
100
AcDbLine
  8
side
 62
256
370
-1
  6
ByLayer
 10
-102.4866666666667356
 20
21.0800000000000232
 30
0.0
 11
-102.4866666666667356
 21
24.3800000000000203
 31
0.0
  0
LINE
  5
8F
100
AcDbEntity
100
AcDbLine
  8
side
 62
256
370
-1
  6
ByLayer
 10
-102.4866666666667356
 20
24.3800000000000203
 30
0.0
 11
-94.4866666666667356
 21
24.3800000000000239
 31
0.0
  0
LINE
  5
90
100
AcDbEntity
100
AcDbLine
  8
side
 62
256
370
-1
  6
ByLayer
 10
-102.4866666666667356
 20
185.1999999999999886
 30
0.0
 11
-94.4866666666667356
 21
185.1999999999999886
 31
0.0
  0
LINE
  5
91
100
AcDbEntity
100
AcDbLine
  8
side
 62
256
370
-1
  6
ByLayer
 10
-102.4866666666667356
 20
185.1999999999999886
 30
0.0
 11
-102.4866666666667356
 21
188.5
 31
0.0
  0
INSERT
  5
92
100
AcDbEntity
100
AcDbBlockReference
  8
side
 62
256
370
-1
  6
ByLayer
  2
m3-t-slot
 10
-120.9866666666667356
 20
188.5000000000000284
 30
0.0
 44
1.0
 45
1.0
  0
INSERT
  5
93
100
AcDbEntity
100
AcDbBlockReference
  8
side
 62
256
370
-1
  6
ByLayer
  2
m3-t-slot
 10
-120.9866666666667356
 20
21.0800000000000196
 30
0.0
 41
1.0
 42
-1.0
 43
1.0
 50
360.0
 44
1.0
 45
1.0
  0
LINE
  5
94
100
AcDbEntity
100
AcDbLine
  8
side
 62
256
370
-1
  6
ByLayer
 10
-119.4866666666667356
 20
21.0800000000000267
 30
0.0
 11
-102.4866666666667356
 21
21.0800000000000018
 31
0.0
  0
LINE
  5
95
100
AcDbEntity
100
AcDbLine
  8
side
 62
256
370
-1
  6
ByLayer
 10
-122.4866666666667356
 20
21.0800000000000267
 30
0.0
 11
-135.1666666666667425
 21
21.0800000000000303
 31
0.0
  0
LINE
  5
96
100
AcDbEntity
100
AcDbLine
  8
side
 62
256
370
-1
  6
ByLayer
 10
-135.1666666666667709
 20
188.5000000000000284
 30
0.0
 11
-122.4866666666667356
 21
188.5000000000000284
 31
0.0
  0
LINE
  5
97
100
AcDbEntity
100
AcDbLine
  8
side
 62
256
370
-1
  6
ByLayer
 10
-119.4866666666667641
 20
188.5000000000000284
 30
0.0
 11
-102.4866666666667356
 21
188.5
 31
0.0
  0
LINE
  5
98
100
AcDbEntity
100
AcDbLine
  8
side
 62
256
370
-1
  6
ByLayer
 10
-94.4866666666667356
 20
24.3800000000000239
 30
0.0
 11
-94.4866666666667356
 21
9.9999999999999947
 31
0.0
  0
ARC
  5
99
100
AcDbEntity
  8
side
 62
256
370
-1
  6
ByLayer
100
AcDbCircle
 10
-104.4866666666667356
 20
9.9999999999999929
 30
0.0
 40
10.0
100
AcDbArc
 50
270.0
 51
0.0
  0
INSERT
  5
9A
100
AcDbEntity
100
AcDbBlockReference
  8
rib
 62
256
370
-1
  6
ByLayer
  2
m3-t-slot
 10
-135.1666666666667425
 20
-46.4000000000000057
 30
0.0
 50
90.0
 44
1.0
 45
1.0
  0
LINE
  5
9B
100
AcDbEntity
100
AcDbLine
  8
rib
 62
256
370
-1
  6
ByLayer
 10
-135.1666666666667425
 20
-20.0000000000000355
 30
0.0
 11
-135.1666666666667425
 21
-44.9000000000000057
 31
0.0
  0
LINE
  5
9C
100
AcDbEntity
100
AcDbLine
  8
rib
 62
256
370
-1
  6
ByLayer
 10
-135.1666666666667425
 20
-47.900000000000027
 30
0.0
 11
-135.1666666666667425
 21
-72.7999999999999829
 31
0.0
  0
CIRCLE
  5
9D
100
AcDbEntity
100
AcDbCircle
  8
rod-support
 62
256
370
-1
  6
ByLayer
 10
-120.9866666666667356
 20
363.3707502179175322
 30
0.0
 40
1.5
  0
CIRCLE
  5
9E
100
AcDbEntity
100
AcDbCircle
  8
rod-support
 62
256
370
-1
  6
ByLayer
 10
-120.9866666666667356
 20
307.3707502179175322
 30
0.0
 40
1.5
  0
LINE
  5
9F
100
AcDbEntity
100
AcDbLine
  8
rod-support
 62
256
370
-1
  6
ByLayer
 10
-94.4866666666667356
 20
309.1707502179175435
 30
0.0
 11
-102.4866666666667072
 21
309.1707502179176004
 31
0.0
  0
LINE
  5
A0
100
AcDbEntity
100
AcDbLine
  8
rod-support
 62
256
370
-1
  6
ByLayer
 10
-94.4866666666667356
 20
361.5707502179175776
 30
0.0
 11
-102.4866666666667072
 21
361.5707502179175776
 31
0.0
  0
LINE
  5
A1
100
AcDbEntity
100
AcDbLine
  8
rod-support
 62
256
370
-1
  6
ByLayer
 10
-94.4866666666667356
 20
364.7707502179175663
 30
0.0
 11
-102.4866666666667072
 21
364.7707502179175663
 31
0.0
  0
LINE
  5
A2
100
AcDbEntity
100
AcDbLine
  8
rod-support
 62
256
370
-1
  6
ByLayer
 10
-94.4866666666667356
 20
305.9707502179175549
 30
0.0
 11
-102.4866666666667072
 21
305.9707502179176117
 31
0.0
  0
LINE
  5
A3
100
AcDbEntity
100
AcDbLine
  8
rod-support
 62
256
370
-1
  6
ByLayer
 10
-94.4866666666667356
 20
303.370750217917589
 30
0.0
 11
-94.4866666666667356
 21
305.8707502179175322
 31
0.0
  0
LINE
  5
A4
100
AcDbEntity
100
AcDbLine
  8
rod-support
 62
256
370
-1
  6
ByLayer
 10
-131.8666666666667027
 20
367.3707502179175322
 30
0.0
 11
-94.4866666666667072
 21
367.3707502179175322
 31
0.0
  0
LINE
  5
A5
100
AcDbEntity
100
AcDbLine
  8
rod-support
 62
256
370
-1
  6
ByLayer
 10
-94.4866666666667072
 20
367.3707502179175322
 30
0.0
 11
-94.4866666666667356
 21
364.7707502179175663
 31
0.0
  0
LINE
  5
A6
100
AcDbEntity
100
AcDbLine
  8
rod-support
 62
256
370
-1
  6
ByLayer
 10
-102.4866666666667072
 20
364.7707502179175663
 30
0.0
 11
-102.4866666666667072
 21
361.5707502179175776
 31
0.0
  0
LINE
  5
A7
100
AcDbEntity
100
AcDbLine
  8
rod-support
 62
256
370
-1
  6
ByLayer
 10
-102.4866666666667072
 20
309.1707502179176004
 30
0.0
 11
-102.4866666666667072
 21
305.9707502179176117
 31
0.0
  0
LINE
  5
A8
100
AcDbEntity
100
AcDbLine
  8
rod-support
 62
256
370
-1
  6
ByLayer
 10
-94.4866666666667356
 20
309.1707502179175435
 30
0.0
 11
-94.4866666666667356
 21
361.5707502179175776
 31
0.0
  0
LINE
  5
A9
100
AcDbEntity
100
AcDbLine
  8
rod-backplate
 62
256
370
-1
  6
ByLayer
 10
15.5133333333332644
 20
309.1707502179175435
 30
0.0
 11
7.5133333333332928
 21
309.1707502179176004
 31
0.0
  0
LINE
  5
AA
100
AcDbEntity
100
AcDbLine
  8
rod-backplate
 62
256
370
-1
  6
ByLayer
 10
15.5133333333332644
 20
361.5707502179175776
 30
0.0
 11
7.5133333333332928
 21
361.5707502179175776
 31
0.0
  0
LINE
  5
AB
100
AcDbEntity
100
AcDbLine
  8
rod-backplate
 62
256
370
-1
  6
ByLayer
 10
15.5133333333332644
 20
309.1707502179175435
 30
0.0
 11
15.5133333333332644
 21
361.5707502179175776
 31
0.0
  0
LINE
  5
AC
100
AcDbEntity
100
AcDbLine
  8
main-deck
 62
256
370
-1
  6
ByLayer
 10
21.5707502179176096
 20
208.0
 30
0.0
 11
-30.8292497820823854
 21
207.9999999999999716
 31
0.0
  0
ARC
  5
AD
100
AcDbEntity
  8
side
 62
256
370
-1
  6
ByLayer
100
AcDbCircle
 10
-159.1666666666666856
 20
198.0
 30
0.0
 40
10.0
100
AcDbArc
 50
90.0
 51
180.0
  0
ARC
  5
AE
100
AcDbEntity
  8
side
 62
256
370
-1
  6
ByLayer
100
AcDbCircle
 10
-104.4866666666667356
 20
198.0
 30
0.0
 40
10.0
100
AcDbArc
 50
0.0
 51
90.0
  0
LINE
  5
AF
100
AcDbEntity
100
AcDbLine
  8
main-deck
 62
256
370
-1
  6
ByLayer
 10
-30.8292497820823854
 20
207.9999999999999716
 30
0.0
 11
-30.8292497820823854
 21
188.5
 31
0.0
  0
LINE
  5
B0
100
AcDbEntity
100
AcDbLine
  8
main-deck
 62
256
370
-1
  6
ByLayer
 10
21.5707502179176096
 20
208.0
 30
0.0
 11
21.5707502179176061
 21
188.4999999999999716
 31
0.0
  0
LINE
  5
B1
100
AcDbEntity
100
AcDbLine
  8
side
 62
256
370
-1
  6
ByLayer
 10
-94.4866666666667356
 20
185.1999999999999886
 30
0.0
 11
-94.4866666666667356
 21
198.0
 31
0.0
  0
LINE
  5
B2
100
AcDbEntity
100
AcDbLine
  8
rod-support
 62
256
370
-1
  6
ByLayer
 10
-110.9866666666667356
 20
349.370750217917589
 30
0.0
 11
-110.9866666666667356
 21
321.3707502179175322
 31
0.0
  0
ARC
  5
B3
100
AcDbEntity
  8
rod-support
 62
256
370
-1
  6
ByLayer
100
AcDbCircle
 10
-110.9866666666667356
 20
355.370750217917589
 30
0.0
 40
6.0
100
AcDbArc
 50
180.0
 51
270.0
  0
ARC
  5
B4
100
AcDbEntity
  8
rod-support
 62
256
370
-1
  6
ByLayer
100
AcDbCircle
 10
-110.9866666666667356
 20
315.3707502179175322
 30
0.0
 40
6.0
100
AcDbArc
 50
90.0
 51
180.0
  0
LINE
  5
B5
100
AcDbEntity
100
AcDbLine
  8
rod-support
 62
256
370
-1
  6
ByLayer
 10
-116.9866666666667356
 20
355.370750217917589
 30
0.0
 11
-131.8666666666667311
 21
355.370750217917589
 31
0.0
  0
LINE
  5
B6
100
AcDbEntity
100
AcDbLine
  8
rod-support
 62
256
370
-1
  6
ByLayer
 10
-131.8666666666667027
 20
367.3707502179175322
 30
0.0
 11
-131.8666666666667311
 21
355.370750217917589
 31
0.0
  0
LINE
  5
B7
100
AcDbEntity
100
AcDbLine
  8
rod-support
 62
256
370
-1
  6
ByLayer
 10
-131.8666666666667311
 20
315.3707502179175322
 30
0.0
 11
-131.8666666666667311
 21
303.370750217917589
 31
0.0
  0
LINE
  5
B8
100
AcDbEntity
100
AcDbLine
  8
rod-support
 62
256
370
-1
  6
ByLayer
 10
-116.9866666666667356
 20
315.3707502179175322
 30
0.0
 11
-131.8666666666667311
 21
315.3707502179175322
 31
0.0
  0
LINE
  5
B9
100
AcDbEntity
100
AcDbLine
  8
rod-backplate
 62
256
370
-1
  6
ByLayer
 10
-0.9866666666667356
 20
349.370750217917589
 30
0.0
 11
-0.9866666666667356
 21
321.3707502179175322
 31
0.0
  0
LINE
  5
BA
100
AcDbEntity
100
AcDbLine
  8
rod-backplate
 62
256
370
-1
  6
ByLayer
 10
-0.9866666666667356
 20
309.1707502179176004
 30
0.0
 11
15.5133333333332644
 21
309.1707502179176004
 31
0.0
  0
LINE
  5
BB
100
AcDbEntity
100
AcDbLine
  8
rod-backplate
 62
256
370
-1
  6
ByLayer
 10
-0.9866666666667356
 20
309.3707502179175322
 30
0.0
 11
-0.9866666666667356
 21
309.1707502179176004
 31
0.0
  0
LINE
  5
BC
100
AcDbEntity
100
AcDbLine
  8
rod-backplate
 62
256
370
-1
  6
ByLayer
 10
15.5133333333332626
 20
361.5707502179175776
 30
0.0
 11
-0.9866666666667339
 21
361.5707502179175776
 31
0.0
  0
LINE
  5
BD
100
AcDbEntity
100
AcDbLine
  8
rod-backplate
 62
256
370
-1
  6
ByLayer
 10
-0.9866666666667356
 20
361.370750217917589
 30
0.0
 11
-0.9866666666667339
 21
361.5707502179175776
 31
0.0
  0
ARC
  5
BE
100
AcDbEntity
  8
rod-backplate
 62
256
370
-1
  6
ByLayer
100
AcDbCircle
 10
-0.9866666666667356
 20
355.370750217917589
 30
0.0
 40
6.0
100
AcDbArc
 50
90.0
 51
270.0
  0
ARC
  5
BF
100
AcDbEntity
  8
rod-backplate
 62
256
370
-1
  6
ByLayer
100
AcDbCircle
 10
-0.9866666666667356
 20
315.3707502179175322
 30
0.0
 40
6.0
100
AcDbArc
 50
90.0
 51
270.0
  0
ARC
  5
C0
100
AcDbEntity
  8
inner-clamp
 62
256
370
-1
  6
ByLayer
100
AcDbCircle
 10
-86.666666666666373
 20
-36.4000000000000057
 30
0.0
 40
5.0
100
AcDbArc
 50
270.0
 51
90.0000000000003268
  0
CIRCLE
  5
C1
100
AcDbEntity
100
AcDbCircle
  8
inner-clamp
 62
256
370
-1
  6
ByLayer
 10
-86.666666666666373
 20
-36.4000000000000057
 30
0.0
 40
1.5
  0
ARC
  5
C2
100
AcDbEntity
  8
main-deck
 62
256
370
-1
  6
ByLayer
100
AcDbCircle
 10
-4.8792497820823399
 20
196.0000000015843398
 30
0.0
 40
3.0
100
AcDbArc
 50
360.0
 51
180.0
  0
ARC
  5
C3
100
AcDbEntity
  8
main-deck
 62
256
370
-1
  6
ByLayer
100
AcDbCircle
 10
-4.8792497820823408
 20
186.0000000015843398
 30
0.0
 40
3.0
100
AcDbArc
 50
170.4059317731405372
 51
9.5940682268595019
  0
LINE
  5
C4
100
AcDbEntity
100
AcDbLine
  8
main-deck
 62
256
370
-1
  6
ByLayer
 10
-7.8792497820823399
 20
196.0000000015843398
 30
0.0
 11
-7.8792497820823399
 21
186.0000000015843398
 31
0.0
  0
LINE
  5
C5
100
AcDbEntity
100
AcDbLine
  8
main-deck
 62
256
370
-1
  6
ByLayer
 10
-1.8792497820823411
 20
186.0000000015843398
 30
0.0
 11
-1.8792497820823399
 21
196.0000000015843398
 31
0.0
  0
CIRCLE
  5
C6
100
AcDbEntity
100
AcDbCircle
  8
rib
 62
256
370
-1
  6
ByLayer
 10
-146.666666666666373
 20
-54.4000000000000128
 30
0.0
 40
1.5
  0
CIRCLE
  5
C7
100
AcDbEntity
100
AcDbCircle
  8
rib
 62
256
370
-1
  6
ByLayer
 10
-146.666666666666373
 20
-38.4000000000000057
 30
0.0
 40
1.5
  0
INSERT
  5
C8
100
AcDbEntity
100
AcDbBlockReference
  8
rib
 62
256
370
-1
  6
ByLayer
  2
m3-t-slot
 10
-157.1666666666667993
 20
-72.7999999999999829
 30
0.0
 44
1.0
 45
1.0
  0
INSERT
  5
C9
100
AcDbEntity
100
AcDbBlockReference
  8
rib
 62
256
370
-1
  6
ByLayer
  2
m3-t-slot
 10
-144.6666666666663446
 20
-72.7999999999999829
 30
0.0
 44
1.0
 45
1.0
  0
INSERT
  5
CA
100
AcDbEntity
100
AcDbBlockReference
  8
rib
 62
256
370
-1
  6
ByLayer
  2
m3-t-slot
 10
-144.6666666666664014
 20
-20.0000000000000107
 30
0.0
 41
1.0
 42
-1.0
 43
1.0
 50
360.0
 44
1.0
 45
1.0
  0
INSERT
  5
CB
100
AcDbEntity
100
AcDbBlockReference
  8
rib
 62
256
370
-1
  6
ByLayer
  2
m3-t-slot
 10
-157.1666666666667993
 20
-20.0000000000000107
 30
0.0
 41
1.0
 42
-1.0
 43
1.0
 50
360.0
 44
1.0
 45
1.0
  0
LINE
  5
CC
100
AcDbEntity
100
AcDbLine
  8
rib
 62
256
370
-1
  6
ByLayer
 10
-143.1666666666664014
 20
-20.000000000000032
 30
0.0
 11
-135.1666666666667425
 21
-20.0000000000000355
 31
0.0
  0
LINE
  5
CD
100
AcDbEntity
100
AcDbLine
  8
rib
 62
256
370
-1
  6
ByLayer
 10
-135.1666666666667425
 20
-72.7999999999999829
 30
0.0
 11
-143.1666666666663446
 21
-72.7999999999999829
 31
0.0
  0
LINE
  5
CE
100
AcDbEntity
100
AcDbLine
  8
rib
 62
256
370
-1
  6
ByLayer
 10
-146.1666666666663446
 20
-72.7999999999999829
 30
0.0
 11
-155.6666666666667993
 21
-72.7999999999999829
 31
0.0
  0
LINE
  5
CF
100
AcDbEntity
100
AcDbLine
  8
rib
 62
256
370
-1
  6
ByLayer
 10
-155.6666666666667993
 20
-20.0000000000000107
 30
0.0
 11
-146.1666666666664014
 21
-20.0000000000000107
 31
0.0
  0
CIRCLE
  5
D0
100
AcDbEntity
100
AcDbCircle
  8
side
 62
256
370
-1
  6
ByLayer
 10
-144.6666666666665151
 20
108.2500000000000284
 30
0.0
 40
1.5
  0
CIRCLE
  5
D1
100
AcDbEntity
100
AcDbCircle
  8
side
 62
256
370
-1
  6
ByLayer
 10
-157.1666666666667993
 20
108.2500000000000284
 30
0.0
 40
1.5
  0
CIRCLE
  5
D2
100
AcDbEntity
100
AcDbCircle
  8
main-deck
 62
256
370
-1
  6
ByLayer
 10
-4.6292497820823986
 20
108.2499999999999858
 30
0.0
 40
1.5
  0
CIRCLE
  5
D3
100
AcDbEntity
100
AcDbCircle
  8
rod-support
 62
256
370
-1
  6
ByLayer
 10
-120.9866666666667356
 20
483.3707502179175322
 30
0.0
 40
1.5
  0
CIRCLE
  5
D4
100
AcDbEntity
100
AcDbCircle
  8
rod-support
 62
256
370
-1
  6
ByLayer
 10
-120.9866666666667356
 20
427.3707502179175322
 30
0.0
 40
1.5
  0
LINE
  5
D5
100
AcDbEntity
100
AcDbLine
  8
rod-support
 62
256
370
-1
  6
ByLayer
 10
-94.4866666666667356
 20
429.1707502179175435
 30
0.0
 11
-102.4866666666667072
 21
429.1707502179176004
 31
0.0
  0
LINE
  5
D6
100
AcDbEntity
100
AcDbLine
  8
rod-support
 62
256
370
-1
  6
ByLayer
 10
-94.4866666666667356
 20
481.5707502179175776
 30
0.0
 11
-102.4866666666667072
 21
481.5707502179175776
 31
0.0
  0
LINE
  5
D7
100
AcDbEntity
100
AcDbLine
  8
rod-support
 62
256
370
-1
  6
ByLayer
 10
-94.4866666666667356
 20
484.7707502179175663
 30
0.0
 11
-102.4866666666667072
 21
484.7707502179175663
 31
0.0
  0
LINE
  5
D8
100
AcDbEntity
100
AcDbLine
  8
rod-support
 62
256
370
-1
  6
ByLayer
 10
-94.4866666666667356
 20
425.9707502179175549
 30
0.0
 11
-102.4866666666667072
 21
425.9707502179176117
 31
0.0
  0
LINE
  5
D9
100
AcDbEntity
100
AcDbLine
  8
rod-support
 62
256
370
-1
  6
ByLayer
 10
-94.4866666666667356
 20
423.370750217917589
 30
0.0
 11
-94.4866666666667356
 21
425.8707502179175322
 31
0.0
  0
LINE
  5
DA
100
AcDbEntity
100
AcDbLine
  8
rod-support
 62
256
370
-1
  6
ByLayer
 10
-131.8666666666667027
 20
487.3707502179175322
 30
0.0
 11
-94.4866666666667072
 21
487.3707502179175322
 31
0.0
  0
LINE
  5
DB
100
AcDbEntity
100
AcDbLine
  8
rod-support
 62
256
370
-1
  6
ByLayer
 10
-94.4866666666667072
 20
487.3707502179175322
 30
0.0
 11
-94.4866666666667356
 21
484.7707502179175663
 31
0.0
  0
LINE
  5
DC
100
AcDbEntity
100
AcDbLine
  8
rod-support
 62
256
370
-1
  6
ByLayer
 10
-102.4866666666667072
 20
484.7707502179175663
 30
0.0
 11
-102.4866666666667072
 21
481.5707502179175776
 31
0.0
  0
LINE
  5
DD
100
AcDbEntity
100
AcDbLine
  8
rod-support
 62
256
370
-1
  6
ByLayer
 10
-102.4866666666667072
 20
429.1707502179176004
 30
0.0
 11
-102.4866666666667072
 21
425.9707502179176117
 31
0.0
  0
LINE
  5
DE
100
AcDbEntity
100
AcDbLine
  8
rod-support
 62
256
370
-1
  6
ByLayer
 10
-94.4866666666667356
 20
429.1707502179175435
 30
0.0
 11
-94.4866666666667356
 21
481.5707502179175776
 31
0.0
  0
LINE
  5
DF
100
AcDbEntity
100
AcDbLine
  8
rod-support
 62
256
370
-1
  6
ByLayer
 10
-110.9866666666667356
 20
469.370750217917589
 30
0.0
 11
-110.9866666666667356
 21
441.3707502179175322
 31
0.0
  0
ARC
  5
E0
100
AcDbEntity
  8
rod-support
 62
256
370
-1
  6
ByLayer
100
AcDbCircle
 10
-110.9866666666667356
 20
475.370750217917589
 30
0.0
 40
6.0
100
AcDbArc
 50
180.0
 51
270.0
  0
ARC
  5
E1
100
AcDbEntity
  8
rod-support
 62
256
370
-1
  6
ByLayer
100
AcDbCircle
 10
-110.9866666666667356
 20
435.3707502179175322
 30
0.0
 40
6.0
100
AcDbArc
 50
90.0
 51
180.0
  0
LINE
  5
E2
100
AcDbEntity
100
AcDbLine
  8
rod-support
 62
256
370
-1
  6
ByLayer
 10
-116.9866666666667356
 20
475.370750217917589
 30
0.0
 11
-131.8666666666667311
 21
475.370750217917589
 31
0.0
  0
LINE
  5
E3
100
AcDbEntity
100
AcDbLine
  8
rod-support
 62
256
370
-1
  6
ByLayer
 10
-131.8666666666667027
 20
487.3707502179175322
 30
0.0
 11
-131.8666666666667311
 21
475.370750217917589
 31
0.0
  0
LINE
  5
E4
100
AcDbEntity
100
AcDbLine
  8
rod-support
 62
256
370
-1
  6
ByLayer
 10
-131.8666666666667311
 20
435.3707502179175322
 30
0.0
 11
-131.8666666666667311
 21
423.370750217917589
 31
0.0
  0
LINE
  5
E5
100
AcDbEntity
100
AcDbLine
  8
rod-support
 62
256
370
-1
  6
ByLayer
 10
-116.9866666666667356
 20
435.3707502179175322
 30
0.0
 11
-131.8666666666667311
 21
435.3707502179175322
 31
0.0
  0
LINE
  5
E6
100
AcDbEntity
100
AcDbLine
  8
side
 62
256
370
-1
  6
ByLayer
 10
-161.1666666666667993
 20
111.9000000000000341
 30
0.0
 11
-169.1666666666667709
 21
111.9000000000000341
 31
0.0
  0
LINE
  5
E7
100
AcDbEntity
100
AcDbLine
  8
side
 62
256
370
-1
  6
ByLayer
 10
-169.1666666666667993
 20
109.8000000000000398
 30
0.0
 11
-161.1666666666667993
 21
109.8000000000000398
 31
0.0
  0
LINE
  5
E8
100
AcDbEntity
100
AcDbLine
  8
side
 62
256
370
-1
  6
ByLayer
 10
-161.1666666666667993
 20
109.8000000000000398
 30
0.0
 11
-161.1666666666667993
 21
111.9000000000000341
 31
0.0
  0
LINE
  5
E9
100
AcDbEntity
100
AcDbLine
  8
side
 62
256
370
-1
  6
ByLayer
 10
-169.1666666666667993
 20
101.1000000000000369
 30
0.0
 11
-158.6666666666664867
 21
101.1000000000000227
 31
0.0
  0
LINE
  5
EA
100
AcDbEntity
100
AcDbLine
  8
side
 62
256
370
-1
  6
ByLayer
 10
-169.1666666666666856
 20
198.0
 30
0.0
 11
-169.1666666666667993
 21
111.9000000000000483
 31
0.0
  0
LINE
  5
EB
100
AcDbEntity
100
AcDbLine
  8
side
 62
256
370
-1
  6
ByLayer
 10
-169.1666666666667993
 20
109.8000000000000398
 30
0.0
 11
-169.1666666666667993
 21
101.1000000000000369
 31
0.0
  0
LINE
  5
EC
100
AcDbEntity
100
AcDbLine
  8
rib
 62
256
370
-1
  6
ByLayer
 10
-167.166666666666913
 20
-46.0000000000000071
 30
0.0
 11
-161.1666666666667993
 21
-46.0000000000000071
 31
0.0
  0
LINE
  5
ED
100
AcDbEntity
100
AcDbLine
  8
rib
 62
256
370
-1
  6
ByLayer
 10
-161.1666666666667993
 20
-46.0000000000000071
 30
0.0
 11
-161.1666666666667993
 21
-46.8000000000000043
 31
0.0
  0
LINE
  5
EE
100
AcDbEntity
100
AcDbLine
  8
rib
 62
256
370
-1
  6
ByLayer
 10
-161.1666666666667993
 20
-46.8000000000000043
 30
0.0
 11
-167.166666666666913
 21
-46.8000000000000043
 31
0.0
  0
LINE
  5
EF
100
AcDbEntity
100
AcDbLine
  8
rib
 62
256
370
-1
  6
ByLayer
 10
-167.166666666666913
 20
-46.8000000000000043
 30
0.0
 11
-167.166666666666913
 21
-46.0000000000000071
 31
0.0
  0
LINE
  5
F0
100
AcDbEntity
100
AcDbLine
  8
rib
 62
256
370
-1
  6
ByLayer
 10
-167.166666666666913
 20
-44.0000000000000071
 30
0.0
 11
-161.1666666666667993
 21
-44.0000000000000071
 31
0.0
  0
LINE
  5
F1
100
AcDbEntity
100
AcDbLine
  8
rib
 62
256
370
-1
  6
ByLayer
 10
-161.1666666666667993
 20
-44.0000000000000071
 30
0.0
 11
-161.1666666666667993
 21
-44.8000000000000043
 31
0.0
  0
LINE
  5
F2
100
AcDbEntity
100
AcDbLine
  8
rib
 62
256
370
-1
  6
ByLayer
 10
-161.1666666666667993
 20
-44.8000000000000043
 30
0.0
 11
-167.166666666666913
 21
-44.8000000000000043
 31
0.0
  0
LINE
  5
F3
100
AcDbEntity
100
AcDbLine
  8
rib
 62
256
370
-1
  6
ByLayer
 10
-167.166666666666913
 20
-44.8000000000000043
 30
0.0
 11
-167.166666666666913
 21
-44.0000000000000071
 31
0.0
  0
LINE
  5
F4
100
AcDbEntity
100
AcDbLine
  8
rib
 62
256
370
-1
  6
ByLayer
 10
-167.166666666666913
 20
-42.0000000000000071
 30
0.0
 11
-161.1666666666667993
 21
-42.0000000000000071
 31
0.0
  0
LINE
  5
F5
100
AcDbEntity
100
AcDbLine
  8
rib
 62
256
370
-1
  6
ByLayer
 10
-161.1666666666667993
 20
-42.0000000000000071
 30
0.0
 11
-161.1666666666667993
 21
-42.8000000000000043
 31
0.0
  0
LINE
  5
F6
100
AcDbEntity
100
AcDbLine
  8
rib
 62
256
370
-1
  6
ByLayer
 10
-161.1666666666667993
 20
-42.8000000000000043
 30
0.0
 11
-167.166666666666913
 21
-42.8000000000000043
 31
0.0
  0
LINE
  5
F7
100
AcDbEntity
100
AcDbLine
  8
rib
 62
256
370
-1
  6
ByLayer
 10
-167.166666666666913
 20
-42.8000000000000043
 30
0.0
 11
-167.166666666666913
 21
-42.0000000000000071
 31
0.0
  0
LINE
  5
F8
100
AcDbEntity
100
AcDbLine
  8
rib
 62
256
370
-1
  6
ByLayer
 10
-167.166666666666913
 20
-40.0000000000000071
 30
0.0
 11
-161.1666666666667993
 21
-40.0000000000000071
 31
0.0
  0
LINE
  5
F9
100
AcDbEntity
100
AcDbLine
  8
rib
 62
256
370
-1
  6
ByLayer
 10
-161.1666666666667993
 20
-40.0000000000000071
 30
0.0
 11
-161.1666666666667993
 21
-40.8000000000000043
 31
0.0
  0
LINE
  5
FA
100
AcDbEntity
100
AcDbLine
  8
rib
 62
256
370
-1
  6
ByLayer
 10
-161.1666666666667993
 20
-40.8000000000000043
 30
0.0
 11
-167.166666666666913
 21
-40.8000000000000043
 31
0.0
  0
LINE
  5
FB
100
AcDbEntity
100
AcDbLine
  8
rib
 62
256
370
-1
  6
ByLayer
 10
-167.166666666666913
 20
-40.8000000000000043
 30
0.0
 11
-167.166666666666913
 21
-40.0000000000000071
 31
0.0
  0
LINE
  5
FC
100
AcDbEntity
100
AcDbLine
  8
rib
 62
256
370
-1
  6
ByLayer
 10
-167.166666666666913
 20
-38.0000000000000071
 30
0.0
 11
-161.1666666666667993
 21
-38.0000000000000071
 31
0.0
  0
LINE
  5
FD
100
AcDbEntity
100
AcDbLine
  8
rib
 62
256
370
-1
  6
ByLayer
 10
-161.1666666666667993
 20
-38.0000000000000071
 30
0.0
 11
-161.1666666666667993
 21
-38.8000000000000043
 31
0.0
  0
LINE
  5
FE
100
AcDbEntity
100
AcDbLine
  8
rib
 62
256
370
-1
  6
ByLayer
 10
-161.1666666666667993
 20
-38.8000000000000043
 30
0.0
 11
-167.166666666666913
 21
-38.8000000000000043
 31
0.0
  0
LINE
  5
FF
100
AcDbEntity
100
AcDbLine
  8
rib
 62
256
370
-1
  6
ByLayer
 10
-167.166666666666913
 20
-38.8000000000000043
 30
0.0
 11
-167.166666666666913
 21
-38.0000000000000071
 31
0.0
  0
LINE
  5
100
100
AcDbEntity
100
AcDbLine
  8
rib
 62
256
370
-1
  6
ByLayer
 10
-167.166666666666913
 20
-36.0000000000000071
 30
0.0
 11
-161.1666666666667993
 21
-36.0000000000000071
 31
0.0
  0
LINE
  5
101
100
AcDbEntity
100
AcDbLine
  8
rib
 62
256
370
-1
  6
ByLayer
 10
-161.1666666666667993
 20
-36.0000000000000071
 30
0.0
 11
-161.1666666666667993
 21
-36.8000000000000043
 31
0.0
  0
LINE
  5
102
100
AcDbEntity
100
AcDbLine
  8
rib
 62
256
370
-1
  6
ByLayer
 10
-161.1666666666667993
 20
-36.8000000000000043
 30
0.0
 11
-167.166666666666913
 21
-36.8000000000000043
 31
0.0
  0
LINE
  5
103
100
AcDbEntity
100
AcDbLine
  8
rib
 62
256
370
-1
  6
ByLayer
 10
-167.166666666666913
 20
-36.8000000000000043
 30
0.0
 11
-167.166666666666913
 21
-36.0000000000000071
 31
0.0
  0
LINE
  5
104
100
AcDbEntity
100
AcDbLine
  8
rib
 62
256
370
-1
  6
ByLayer
 10
-167.166666666666913
 20
-34.0000000000000071
 30
0.0
 11
-161.1666666666667993
 21
-34.0000000000000071
 31
0.0
  0
LINE
  5
105
100
AcDbEntity
100
AcDbLine
  8
rib
 62
256
370
-1
  6
ByLayer
 10
-161.1666666666667993
 20
-34.0000000000000071
 30
0.0
 11
-161.1666666666667993
 21
-34.8000000000000043
 31
0.0
  0
LINE
  5
106
100
AcDbEntity
100
AcDbLine
  8
rib
 62
256
370
-1
  6
ByLayer
 10
-161.1666666666667993
 20
-34.8000000000000043
 30
0.0
 11
-167.166666666666913
 21
-34.8000000000000043
 31
0.0
  0
LINE
  5
107
100
AcDbEntity
100
AcDbLine
  8
rib
 62
256
370
-1
  6
ByLayer
 10
-167.166666666666913
 20
-34.8000000000000043
 30
0.0
 11
-167.166666666666913
 21
-34.0000000000000071
 31
0.0
  0
LINE
  5
108
100
AcDbEntity
100
AcDbLine
  8
rib
 62
256
370
-1
  6
ByLayer
 10
-167.166666666666913
 20
-48.0000000000000071
 30
0.0
 11
-161.1666666666667993
 21
-48.0000000000000071
 31
0.0
  0
LINE
  5
109
100
AcDbEntity
100
AcDbLine
  8
rib
 62
256
370
-1
  6
ByLayer
 10
-161.1666666666667993
 20
-48.0000000000000071
 30
0.0
 11
-161.1666666666667993
 21
-48.8000000000000043
 31
0.0
  0
LINE
  5
10A
100
AcDbEntity
100
AcDbLine
  8
rib
 62
256
370
-1
  6
ByLayer
 10
-161.1666666666667993
 20
-48.8000000000000043
 30
0.0
 11
-167.166666666666913
 21
-48.8000000000000043
 31
0.0
  0
LINE
  5
10B
100
AcDbEntity
100
AcDbLine
  8
rib
 62
256
370
-1
  6
ByLayer
 10
-167.166666666666913
 20
-48.8000000000000043
 30
0.0
 11
-167.166666666666913
 21
-48.0000000000000071
 31
0.0
  0
LINE
  5
10C
100
AcDbEntity
100
AcDbLine
  8
rib
 62
256
370
-1
  6
ByLayer
 10
-167.166666666666913
 20
-50.0000000000000071
 30
0.0
 11
-161.1666666666667993
 21
-50.0000000000000071
 31
0.0
  0
LINE
  5
10D
100
AcDbEntity
100
AcDbLine
  8
rib
 62
256
370
-1
  6
ByLayer
 10
-161.1666666666667993
 20
-50.0000000000000071
 30
0.0
 11
-161.1666666666667993
 21
-50.8000000000000043
 31
0.0
  0
LINE
  5
10E
100
AcDbEntity
100
AcDbLine
  8
rib
 62
256
370
-1
  6
ByLayer
 10
-161.1666666666667993
 20
-50.8000000000000043
 30
0.0
 11
-167.166666666666913
 21
-50.8000000000000043
 31
0.0
  0
LINE
  5
10F
100
AcDbEntity
100
AcDbLine
  8
rib
 62
256
370
-1
  6
ByLayer
 10
-167.166666666666913
 20
-50.8000000000000043
 30
0.0
 11
-167.166666666666913
 21
-50.0000000000000071
 31
0.0
  0
LINE
  5
110
100
AcDbEntity
100
AcDbLine
  8
rib
 62
256
370
-1
  6
ByLayer
 10
-167.166666666666913
 20
-52.0000000000000071
 30
0.0
 11
-161.1666666666667993
 21
-52.0000000000000071
 31
0.0
  0
LINE
  5
111
100
AcDbEntity
100
AcDbLine
  8
rib
 62
256
370
-1
  6
ByLayer
 10
-161.1666666666667993
 20
-52.0000000000000071
 30
0.0
 11
-161.1666666666667993
 21
-52.8000000000000043
 31
0.0
  0
LINE
  5
112
100
AcDbEntity
100
AcDbLine
  8
rib
 62
256
370
-1
  6
ByLayer
 10
-161.1666666666667993
 20
-52.8000000000000043
 30
0.0
 11
-167.166666666666913
 21
-52.8000000000000043
 31
0.0
  0
LINE
  5
113
100
AcDbEntity
100
AcDbLine
  8
rib
 62
256
370
-1
  6
ByLayer
 10
-167.166666666666913
 20
-52.8000000000000043
 30
0.0
 11
-167.166666666666913
 21
-52.0000000000000071
 31
0.0
  0
LINE
  5
114
100
AcDbEntity
100
AcDbLine
  8
rib
 62
256
370
-1
  6
ByLayer
 10
-167.166666666666913
 20
-54.0000000000000071
 30
0.0
 11
-161.1666666666667993
 21
-54.0000000000000071
 31
0.0
  0
LINE
  5
115
100
AcDbEntity
100
AcDbLine
  8
rib
 62
256
370
-1
  6
ByLayer
 10
-161.1666666666667993
 20
-54.0000000000000071
 30
0.0
 11
-161.1666666666667993
 21
-54.8000000000000043
 31
0.0
  0
LINE
  5
116
100
AcDbEntity
100
AcDbLine
  8
rib
 62
256
370
-1
  6
ByLayer
 10
-161.1666666666667993
 20
-54.8000000000000043
 30
0.0
 11
-167.166666666666913
 21
-54.8000000000000043
 31
0.0
  0
LINE
  5
117
100
AcDbEntity
100
AcDbLine
  8
rib
 62
256
370
-1
  6
ByLayer
 10
-167.166666666666913
 20
-54.8000000000000043
 30
0.0
 11
-167.166666666666913
 21
-54.0000000000000071
 31
0.0
  0
LINE
  5
118
100
AcDbEntity
100
AcDbLine
  8
rib
 62
256
370
-1
  6
ByLayer
 10
-167.166666666666913
 20
-56.0000000000000071
 30
0.0
 11
-161.1666666666667993
 21
-56.0000000000000071
 31
0.0
  0
LINE
  5
119
100
AcDbEntity
100
AcDbLine
  8
rib
 62
256
370
-1
  6
ByLayer
 10
-161.1666666666667993
 20
-56.0000000000000071
 30
0.0
 11
-161.1666666666667993
 21
-56.8000000000000043
 31
0.0
  0
LINE
  5
11A
100
AcDbEntity
100
AcDbLine
  8
rib
 62
256
370
-1
  6
ByLayer
 10
-161.1666666666667993
 20
-56.8000000000000043
 30
0.0
 11
-167.166666666666913
 21
-56.8000000000000043
 31
0.0
  0
LINE
  5
11B
100
AcDbEntity
100
AcDbLine
  8
rib
 62
256
370
-1
  6
ByLayer
 10
-167.166666666666913
 20
-56.8000000000000043
 30
0.0
 11
-167.166666666666913
 21
-56.0000000000000071
 31
0.0
  0
LINE
  5
11C
100
AcDbEntity
100
AcDbLine
  8
rib
 62
256
370
-1
  6
ByLayer
 10
-167.166666666666913
 20
-58.0000000000000071
 30
0.0
 11
-161.1666666666667993
 21
-58.0000000000000071
 31
0.0
  0
LINE
  5
11D
100
AcDbEntity
100
AcDbLine
  8
rib
 62
256
370
-1
  6
ByLayer
 10
-161.1666666666667993
 20
-58.0000000000000071
 30
0.0
 11
-161.1666666666667993
 21
-58.8000000000000043
 31
0.0
  0
LINE
  5
11E
100
AcDbEntity
100
AcDbLine
  8
rib
 62
256
370
-1
  6
ByLayer
 10
-161.1666666666667993
 20
-58.8000000000000043
 30
0.0
 11
-167.166666666666913
 21
-58.8000000000000043
 31
0.0
  0
LINE
  5
11F
100
AcDbEntity
100
AcDbLine
  8
rib
 62
256
370
-1
  6
ByLayer
 10
-167.166666666666913
 20
-58.8000000000000043
 30
0.0
 11
-167.166666666666913
 21
-58.0000000000000071
 31
0.0
  0
CIRCLE
  5
120
100
AcDbEntity
100
AcDbCircle
  8
rib
 62
256
370
-1
  6
ByLayer
 10
-156.666666666666373
 20
-54.4000000000000128
 30
0.0
 40
1.5
  0
CIRCLE
  5
121
100
AcDbEntity
100
AcDbCircle
  8
rib
 62
256
370
-1
  6
ByLayer
 10
-156.666666666666373
 20
-38.4000000000000057
 30
0.0
 40
1.5
  0
CIRCLE
  5
122
100
AcDbEntity
100
AcDbCircle
  8
inner-clamp
 62
256
370
-1
  6
ByLayer
 10
-96.666666666666373
 20
-36.4000000000000057
 30
0.0
 40
1.5
  0
LINE
  5
123
100
AcDbEntity
100
AcDbLine
  8
rib
 62
256
370
-1
  6
ByLayer
 10
-169.1666666666685614
 20
-20.0000000000000107
 30
0.0
 11
-158.6666666666667993
 21
-20.0000000000000178
 31
0.0
  0
LINE
  5
124
100
AcDbEntity
100
AcDbLine
  8
rib
 62
256
370
-1
  6
ByLayer
 10
-158.6666666666667993
 20
-72.7999999999999829
 30
0.0
 11
-169.166666666669272
 21
-72.7999999999999687
 31
0.0
  0
LINE
  5
125
100
AcDbEntity
100
AcDbLine
  8
rib
 62
256
370
-1
  6
ByLayer
 10
-169.166666666669272
 20
-72.7999999999999687
 30
0.0
 11
-169.1666666666685614
 21
-20.0000000000000107
 31
0.0
  0
LINE
  5
126
100
AcDbEntity
100
AcDbLine
  8
inner-clamp
 62
256
370
-1
  6
ByLayer
 10
-86.666666666666373
 20
-41.4000000000000057
 30
0.0
 11
-109.1666666666688457
 21
-41.4000000000000057
 31
0.0
  0
LINE
  5
127
100
AcDbEntity
100
AcDbLine
  8
inner-clamp
 62
256
370
-1
  6
ByLayer
 10
-109.1666666666687036
 20
-31.4000000000000057
 30
0.0
 11
-109.1666666666688457
 21
-41.4000000000000057
 31
0.0
  0
LINE
  5
128
100
AcDbEntity
100
AcDbLine
  8
inner-clamp
 62
256
370
-1
  6
ByLayer
 10
-86.6666666666664014
 20
-31.4000000000000057
 30
0.0
 11
-109.1666666666687036
 21
-31.4000000000000057
 31
0.0
  0
LINE
  5
129
100
AcDbEntity
100
AcDbLine
  8
side
 62
256
370
-1
  6
ByLayer
 10
-108.4866666666667356
 20
0.0
 30
0.0
 11
-108.4866666666667356
 21
9.9999999999999929
 31
0.0
  0
LINE
  5
12A
100
AcDbEntity
100
AcDbLine
  8
side
 62
256
370
-1
  6
ByLayer
 10
-108.4866666666667356
 20
9.9999999999999929
 30
0.0
 11
-106.4866666666667356
 21
9.9999999999999929
 31
0.0
  0
LINE
  5
12B
100
AcDbEntity
100
AcDbLine
  8
side
 62
256
370
-1
  6
ByLayer
 10
-106.4866666666667356
 20
9.9999999999999929
 30
0.0
 11
-106.4866666666667356
 21
0.0
 31
0.0
  0
LINE
  5
12C
100
AcDbEntity
100
AcDbLine
  8
side
 62
256
370
-1
  6
ByLayer
 10
-108.4866666666667356
 20
208.0
 30
0.0
 11
-108.4866666666667356
 21
198.0
 31
0.0
  0
LINE
  5
12D
100
AcDbEntity
100
AcDbLine
  8
side
 62
256
370
-1
  6
ByLayer
 10
-108.4866666666667356
 20
198.0
 30
0.0
 11
-106.4866666666667072
 21
198.0
 31
0.0
  0
LINE
  5
12E
100
AcDbEntity
100
AcDbLine
  8
side
 62
256
370
-1
  6
ByLayer
 10
-106.4866666666667072
 20
198.0
 30
0.0
 11
-106.4866666666667072
 21
208.0
 31
0.0
  0
LINE
  5
12F
100
AcDbEntity
100
AcDbLine
  8
side
 62
256
370
-1
  6
ByLayer
 10
-104.4866666666667356
 20
208.0
 30
0.0
 11
-106.4866666666667072
 21
208.0
 31
0.0
  0
LINE
  5
130
100
AcDbEntity
100
AcDbLine
  8
side
 62
256
370
-1
  6
ByLayer
 10
-108.4866666666667356
 20
208.0
 30
0.0
 11
-159.1666666666666856
 21
208.0
 31
0.0
  0
LINE
  5
131
100
AcDbEntity
100
AcDbLine
  8
side
 62
256
370
-1
  6
ByLayer
 10
-104.4866666666667356
 20
-0.0000000000000081
 30
0.0
 11
-106.4866666666667356
 21
-0.0000000000000079
 31
0.0
  0
LINE
  5
132
100
AcDbEntity
100
AcDbLine
  8
side
 62
256
370
-1
  6
ByLayer
 10
-108.4866666666667356
 20
-0.0000000000000076
 30
0.0
 11
-159.1666666666668846
 21
-0.0000000000000013
 31
0.0
  0
LINE
  5
133
100
AcDbEntity
100
AcDbLine
  8
side
 62
256
370
-1
  6
ByLayer
 10
-169.1666666666667993
 20
77.5000000000000284
 30
0.0
 11
-158.6666666666664867
 21
77.5000000000000284
 31
0.0
  0
LINE
  5
134
100
AcDbEntity
100
AcDbLine
  8
side
 62
256
370
-1
  6
ByLayer
 10
-158.6666666666664867
 20
77.5000000000000284
 30
0.0
 11
-158.6666666666664867
 21
101.1000000000000227
 31
0.0
  0
LINE
  5
135
100
AcDbEntity
100
AcDbLine
  8
side
 62
256
370
-1
  6
ByLayer
 10
-169.1666666666668277
 20
52.6699999999999946
 30
0.0
 11
-169.1666666666667993
 21
77.5000000000000284
 31
0.0
  0
LINE
  5
136
100
AcDbEntity
100
AcDbLine
  8
side
 62
256
370
-1
  6
ByLayer
 10
-169.1666666666668846
 20
10.0000000000000089
 30
0.0
 11
-169.1666666666668846
 21
42.6699999999999804
 31
0.0
  0
ARC
  5
137
100
AcDbEntity
  8
side
 62
256
370
-1
  6
ByLayer
100
AcDbCircle
 10
-164.1666666666668277
 20
47.6699999999999875
 30
0.0
 40
5.0
100
AcDbArc
 50
270.0
 51
90.0
  0
LINE
  5
138
100
AcDbEntity
100
AcDbLine
  8
side
 62
256
370
-1
  6
ByLayer
 10
-169.1666666666668277
 20
52.6699999999999946
 30
0.0
 11
-164.1666666666668277
 21
52.6699999999999875
 31
0.0
  0
LINE
  5
139
100
AcDbEntity
100
AcDbLine
  8
side
 62
256
370
-1
  6
ByLayer
 10
-164.1666666666668277
 20
42.6699999999999875
 30
0.0
 11
-169.1666666666668846
 21
42.6699999999999804
 31
0.0
  0
CIRCLE
  5
13A
100
AcDbEntity
100
AcDbCircle
  8
rod-support
 62
256
370
-1
  6
ByLayer
 10
-118.286666666666747
 20
420.2707502179176231
 30
0.0
 40
1.5
  0
CIRCLE
  5
13B
100
AcDbEntity
100
AcDbCircle
  8
rod-support
 62
256
370
-1
  6
ByLayer
 10
-99.286666666666747
 20
420.2707502179176231
 30
0.0
 40
1.5
  0
LINE
  5
13C
100
AcDbEntity
100
AcDbLine
  8
rod-support
 62
256
370
-1
  6
ByLayer
 10
-96.4866666666667356
 20
423.370750217917589
 30
0.0
 11
-96.4866666666667356
 21
417.1707502179176004
 31
0.0
  0
LINE
  5
13D
100
AcDbEntity
100
AcDbLine
  8
rod-support
 62
256
370
-1
  6
ByLayer
 10
-96.4866666666667356
 20
417.1707502179176004
 30
0.0
 11
-102.786666666666747
 21
417.1707502179176004
 31
0.0
  0
LINE
  5
13E
100
AcDbEntity
100
AcDbLine
  8
rod-support
 62
256
370
-1
  6
ByLayer
 10
-114.786666666666747
 20
417.1707502179176004
 30
0.0
 11
-121.0866666666667442
 21
417.1707502179176004
 31
0.0
  0
CIRCLE
  5
13F
100
AcDbEntity
100
AcDbCircle
  8
rod-support
 62
256
370
-1
  6
ByLayer
 10
-131.0666666666667197
 20
300.2707502179176231
 30
0.0
 40
1.5
  0
CIRCLE
  5
140
100
AcDbEntity
100
AcDbCircle
  8
rod-support
 62
256
370
-1
  6
ByLayer
 10
-112.0666666666667339
 20
300.2707502179176231
 30
0.0
 40
1.5
  0
LINE
  5
141
100
AcDbEntity
100
AcDbLine
  8
rod-support
 62
256
370
-1
  6
ByLayer
 10
-133.8666666666667311
 20
303.370750217917589
 30
0.0
 11
-133.8666666666667311
 21
297.1707502179176004
 31
0.0
  0
LINE
  5
142
100
AcDbEntity
100
AcDbLine
  8
rod-support
 62
256
370
-1
  6
ByLayer
 10
-109.2666666666667226
 20
297.1707502179176004
 30
0.0
 11
-115.5666666666667339
 21
297.1707502179176004
 31
0.0
  0
LINE
  5
143
100
AcDbEntity
100
AcDbLine
  8
rod-support
 62
256
370
-1
  6
ByLayer
 10
-127.5666666666667339
 20
297.1707502179176004
 30
0.0
 11
-133.8666666666667311
 21
297.1707502179176004
 31
0.0
  0
LINE
  5
144
100
AcDbEntity
100
AcDbLine
  8
rod-support
 62
256
370
-1
  6
ByLayer
 10
-115.5666666666667339
 20
303.370750217917589
 30
0.0
 11
-115.5666666666667339
 21
297.1707502179176004
 31
0.0
  0
LINE
  5
145
100
AcDbEntity
100
AcDbLine
  8
rod-support
 62
256
370
-1
  6
ByLayer
 10
-127.5666666666667481
 20
303.370750217917589
 30
0.0
 11
-127.5666666666667339
 21
297.1707502179176004
 31
0.0
  0
LINE
  5
146
100
AcDbEntity
100
AcDbLine
  8
rod-support
 62
256
370
-1
  6
ByLayer
 10
-115.5666666666667339
 20
303.370750217917589
 30
0.0
 11
-127.5666666666667481
 21
303.370750217917589
 31
0.0
  0
LINE
  5
147
100
AcDbEntity
100
AcDbLine
  8
rod-support
 62
256
370
-1
  6
ByLayer
 10
-94.4866666666667356
 20
303.370750217917589
 30
0.0
 11
-109.2666666666667226
 21
303.370750217917589
 31
0.0
  0
LINE
  5
148
100
AcDbEntity
100
AcDbLine
  8
rod-support
 62
256
370
-1
  6
ByLayer
 10
-109.2666666666667226
 20
303.370750217917589
 30
0.0
 11
-109.2666666666667226
 21
297.1707502179176004
 31
0.0
  0
LINE
  5
149
100
AcDbEntity
100
AcDbLine
  8
rod-support
 62
256
370
-1
  6
ByLayer
 10
-121.0866666666667442
 20
423.370750217917589
 30
0.0
 11
-131.8666666666667311
 21
423.370750217917589
 31
0.0
  0
LINE
  5
14A
100
AcDbEntity
100
AcDbLine
  8
rod-support
 62
256
370
-1
  6
ByLayer
 10
-121.0866666666667442
 20
423.370750217917589
 30
0.0
 11
-121.0866666666667442
 21
417.1707502179176004
 31
0.0
  0
LINE
  5
14B
100
AcDbEntity
100
AcDbLine
  8
rod-support
 62
256
370
-1
  6
ByLayer
 10
-114.7866666666667612
 20
423.370750217917589
 30
0.0
 11
-114.786666666666747
 21
417.1707502179176004
 31
0.0
  0
LINE
  5
14C
100
AcDbEntity
100
AcDbLine
  8
rod-support
 62
256
370
-1
  6
ByLayer
 10
-102.786666666666747
 20
423.370750217917589
 30
0.0
 11
-102.786666666666747
 21
417.1707502179176004
 31
0.0
  0
LINE
  5
14D
100
AcDbEntity
100
AcDbLine
  8
rod-support
 62
256
370
-1
  6
ByLayer
 10
-102.786666666666747
 20
423.370750217917589
 30
0.0
 11
-114.7866666666667612
 21
423.370750217917589
 31
0.0
  0
LINE
  5
14E
100
AcDbEntity
100
AcDbLine
  8
side
 62
256
370
-1
  6
ByLayer
 10
-96.4866666666667356
 20
423.370750217917589
 30
0.0
 11
-94.4866666666667356
 21
423.370750217917589
 31
0.0
  0
LINE
  5
14F
100
AcDbEntity
100
AcDbLine
  8
side
 62
256
370
-1
  6
ByLayer
 10
-131.8666666666667311
 20
303.370750217917589
 30
0.0
 11
-133.8666666666667311
 21
303.370750217917589
 31
0.0
  0
ARC
  5
150
100
AcDbEntity
  8
side
 62
256
370
-1
  6
ByLayer
100
AcDbCircle
 10
-240.8333333333331439
 20
10.0
 30
0.0
 40
10.0
100
AcDbArc
 50
270.0
 51
360.0
  0
INSERT
  5
151
100
AcDbEntity
100
AcDbBlockReference
  8
side
 62
256
370
-1
  6
ByLayer
  2
tab
 10
-264.8333333333332575
 20
145.0
 30
0.0
 41
1.0
 42
-1.0
 43
1.0
 50
270.0
 44
1.0
 45
1.0
  0
INSERT
  5
152
100
AcDbEntity
100
AcDbBlockReference
  8
side
 62
256
370
-1
  6
ByLayer
  2
tab
 10
-264.8333333333332007
 20
69.5000000000000284
 30
0.0
 41
1.0
 42
-1.0
 43
1.0
 50
270.0
 44
1.0
 45
1.0
  0
INSERT
  5
153
100
AcDbEntity
100
AcDbBlockReference
  8
side
 62
256
370
-1
  6
ByLayer
  2
m3-t-slot
 10
-264.8333333333332575
 20
170.0000000000000284
 30
0.0
 41
1.0
 42
-1.0
 43
1.0
 50
89.9999999999999858
 44
1.0
 45
1.0
  0
INSERT
  5
154
100
AcDbEntity
100
AcDbBlockReference
  8
side
 62
256
370
-1
  6
ByLayer
  2
m3-t-slot
 10
-264.8333333333332575
 20
120.0
 30
0.0
 41
1.0
 42
-1.0
 43
1.0
 50
89.9999999999999858
 44
1.0
 45
1.0
  0
INSERT
  5
155
100
AcDbEntity
100
AcDbBlockReference
  8
side
 62
256
370
-1
  6
ByLayer
  2
m3-t-slot
 10
-264.8333333333333712
 20
50.0000000000000568
 30
0.0
 41
1.0
 42
-1.0
 43
1.0
 50
89.9999999999999858
 44
1.0
 45
1.0
  0
LINE
  5
156
100
AcDbEntity
100
AcDbLine
  8
side
 62
256
370
-1
  6
ByLayer
 10
-264.8333333333332575
 20
188.5000000000000284
 30
0.0
 11
-264.8333333333332575
 21
171.4999999999999716
 31
0.0
  0
LINE
  5
157
100
AcDbEntity
100
AcDbLine
  8
side
 62
256
370
-1
  6
ByLayer
 10
-264.8333333333332575
 20
168.5
 30
0.0
 11
-264.8333333333332575
 21
150.0
 31
0.0
  0
LINE
  5
158
100
AcDbEntity
100
AcDbLine
  8
side
 62
256
370
-1
  6
ByLayer
 10
-264.8333333333332575
 20
140.0
 30
0.0
 11
-264.8333333333332575
 21
121.5000000000000284
 31
0.0
  0
LINE
  5
159
100
AcDbEntity
100
AcDbLine
  8
side
 62
256
370
-1
  6
ByLayer
 10
-264.8333333333332575
 20
118.5000000000000142
 30
0.0
 11
-264.8333333333332575
 21
74.4999999999999716
 31
0.0
  0
LINE
  5
15A
100
AcDbEntity
100
AcDbLine
  8
side
 62
256
370
-1
  6
ByLayer
 10
-264.8333333333333144
 20
64.5000000000000853
 30
0.0
 11
-264.8333333333333144
 21
51.5000000000000284
 31
0.0
  0
LINE
  5
15B
100
AcDbEntity
100
AcDbLine
  8
side
 62
256
370
-1
  6
ByLayer
 10
-264.8333333333332575
 20
48.5
 30
0.0
 11
-264.8333333333332575
 21
21.0800000000000125
 31
0.0
  0
LINE
  5
15C
100
AcDbEntity
100
AcDbLine
  8
side
 62
256
370
-1
  6
ByLayer
 10
-297.5133333333333212
 20
21.0800000000000693
 30
0.0
 11
-297.5133333333332075
 21
24.3800000000000239
 31
0.0
  0
LINE
  5
15D
100
AcDbEntity
100
AcDbLine
  8
side
 62
256
370
-1
  6
ByLayer
 10
-297.5133333333332075
 20
24.3800000000000239
 30
0.0
 11
-305.5133333333333212
 21
24.3800000000000523
 31
0.0
  0
LINE
  5
15E
100
AcDbEntity
100
AcDbLine
  8
side
 62
256
370
-1
  6
ByLayer
 10
-297.5133333333332644
 20
185.1999999999999886
 30
0.0
 11
-305.5133333333332644
 21
185.1999999999999886
 31
0.0
  0
LINE
  5
15F
100
AcDbEntity
100
AcDbLine
  8
side
 62
256
370
-1
  6
ByLayer
 10
-297.5133333333332644
 20
185.1999999999999886
 30
0.0
 11
-297.5133333333332644
 21
188.5000000000000853
 31
0.0
  0
INSERT
  5
160
100
AcDbEntity
100
AcDbBlockReference
  8
side
 62
256
370
-1
  6
ByLayer
  2
m3-t-slot
 10
-279.0133333333332644
 20
188.5000000000000568
 30
0.0
 41
1.0
 42
-1.0
 43
1.0
 50
180.0
 44
1.0
 45
1.0
  0
INSERT
  5
161
100
AcDbEntity
100
AcDbBlockReference
  8
side
 62
256
370
-1
  6
ByLayer
  2
m3-t-slot
 10
-279.0133333333332644
 20
21.0800000000000125
 30
0.0
 50
180.0
 44
1.0
 45
1.0
  0
LINE
  5
162
100
AcDbEntity
100
AcDbLine
  8
side
 62
256
370
-1
  6
ByLayer
 10
-280.5133333333332644
 20
21.0800000000000409
 30
0.0
 11
-297.5133333333333212
 21
21.0800000000000693
 31
0.0
  0
LINE
  5
163
100
AcDbEntity
100
AcDbLine
  8
side
 62
256
370
-1
  6
ByLayer
 10
-277.5133333333333212
 20
21.0800000000000693
 30
0.0
 11
-264.8333333333333712
 21
21.0800000000000978
 31
0.0
  0
LINE
  5
164
100
AcDbEntity
100
AcDbLine
  8
side
 62
256
370
-1
  6
ByLayer
 10
-264.8333333333332575
 20
188.5000000000000284
 30
0.0
 11
-277.5133333333332644
 21
188.5000000000000568
 31
0.0
  0
LINE
  5
165
100
AcDbEntity
100
AcDbLine
  8
side
 62
256
370
-1
  6
ByLayer
 10
-280.5133333333332075
 20
188.5
 30
0.0
 11
-297.5133333333332644
 21
188.5000000000000853
 31
0.0
  0
LINE
  5
166
100
AcDbEntity
100
AcDbLine
  8
side
 62
256
370
-1
  6
ByLayer
 10
-305.5133333333333212
 20
24.3800000000000523
 30
0.0
 11
-305.5133333333332644
 21
10.0
 31
0.0
  0
ARC
  5
167
100
AcDbEntity
  8
side
 62
256
370
-1
  6
ByLayer
100
AcDbCircle
 10
-295.5133333333332644
 20
10.0
 30
0.0
 40
10.0
100
AcDbArc
 50
180.0
 51
270.0
  0
ARC
  5
168
100
AcDbEntity
  8
side
 62
256
370
-1
  6
ByLayer
100
AcDbCircle
 10
-240.8333333333333144
 20
198.0
 30
0.0
 40
10.0
100
AcDbArc
 50
360.0
 51
89.9999999999999858
  0
ARC
  5
169
100
AcDbEntity
  8
side
 62
256
370
-1
  6
ByLayer
100
AcDbCircle
 10
-295.5133333333332644
 20
198.0000000000000853
 30
0.0
 40
10.0
100
AcDbArc
 50
89.9999999999999858
 51
180.0
  0
LINE
  5
16A
100
AcDbEntity
100
AcDbLine
  8
side
 62
256
370
-1
  6
ByLayer
 10
-305.5133333333332644
 20
185.1999999999999886
 30
0.0
 11
-305.5133333333332644
 21
198.0000000000001137
 31
0.0
  0
CIRCLE
  5
16B
100
AcDbEntity
100
AcDbCircle
  8
side
 62
256
370
-1
  6
ByLayer
 10
-255.3333333333334849
 20
108.2500000000000142
 30
0.0
 40
1.5
  0
CIRCLE
  5
16C
100
AcDbEntity
100
AcDbCircle
  8
side
 62
256
370
-1
  6
ByLayer
 10
-242.8333333333332007
 20
108.2500000000000142
 30
0.0
 40
1.5
  0
LINE
  5
16D
100
AcDbEntity
100
AcDbLine
  8
side
 62
256
370
-1
  6
ByLayer
 10
-238.8333333333332007
 20
111.9000000000000341
 30
0.0
 11
-230.833333333333286
 21
111.9000000000000625
 31
0.0
  0
LINE
  5
16E
100
AcDbEntity
100
AcDbLine
  8
side
 62
256
370
-1
  6
ByLayer
 10
-230.8333333333332291
 20
109.800000000000054
 30
0.0
 11
-238.8333333333332007
 21
109.8000000000000398
 31
0.0
  0
LINE
  5
16F
100
AcDbEntity
100
AcDbLine
  8
side
 62
256
370
-1
  6
ByLayer
 10
-238.8333333333332007
 20
109.8000000000000398
 30
0.0
 11
-238.8333333333332007
 21
111.9000000000000341
 31
0.0
  0
LINE
  5
170
100
AcDbEntity
100
AcDbLine
  8
side
 62
256
370
-1
  6
ByLayer
 10
-230.8333333333332007
 20
101.1000000000000227
 30
0.0
 11
-241.3333333333335702
 21
101.1000000000000369
 31
0.0
  0
LINE
  5
171
100
AcDbEntity
100
AcDbLine
  8
side
 62
256
370
-1
  6
ByLayer
 10
-230.8333333333333144
 20
198.0000000000000284
 30
0.0
 11
-230.8333333333332007
 21
111.9000000000000483
 31
0.0
  0
LINE
  5
172
100
AcDbEntity
100
AcDbLine
  8
side
 62
256
370
-1
  6
ByLayer
 10
-230.8333333333332291
 20
109.800000000000054
 30
0.0
 11
-230.8333333333332007
 21
101.1000000000000227
 31
0.0
  0
LINE
  5
173
100
AcDbEntity
100
AcDbLine
  8
side
 62
256
370
-1
  6
ByLayer
 10
-291.5133333333333212
 20
0.0000000000000568
 30
0.0
 11
-291.5133333333333212
 21
10.0
 31
0.0
  0
LINE
  5
174
100
AcDbEntity
100
AcDbLine
  8
side
 62
256
370
-1
  6
ByLayer
 10
-291.5133333333333212
 20
10.0
 30
0.0
 11
-293.5133333333332644
 21
10.0
 31
0.0
  0
LINE
  5
175
100
AcDbEntity
100
AcDbLine
  8
side
 62
256
370
-1
  6
ByLayer
 10
-293.5133333333332644
 20
10.0
 30
0.0
 11
-293.5133333333333212
 21
0.0000000000000284
 31
0.0
  0
LINE
  5
176
100
AcDbEntity
100
AcDbLine
  8
side
 62
256
370
-1
  6
ByLayer
 10
-291.5133333333332644
 20
208.0000000000001137
 30
0.0
 11
-291.5133333333332644
 21
197.9999999999999716
 31
0.0
  0
LINE
  5
177
100
AcDbEntity
100
AcDbLine
  8
side
 62
256
370
-1
  6
ByLayer
 10
-291.5133333333332644
 20
197.9999999999999716
 30
0.0
 11
-293.5133333333333212
 21
197.9999999999999432
 31
0.0
  0
LINE
  5
178
100
AcDbEntity
100
AcDbLine
  8
side
 62
256
370
-1
  6
ByLayer
 10
-293.5133333333333212
 20
197.9999999999999432
 30
0.0
 11
-293.5133333333333212
 21
208.0000000000003126
 31
0.0
  0
LINE
  5
179
100
AcDbEntity
100
AcDbLine
  8
side
 62
256
370
-1
  6
ByLayer
 10
-295.5133333333332644
 20
208.0000000000005969
 30
0.0
 11
-293.5133333333333212
 21
208.0000000000003126
 31
0.0
  0
LINE
  5
17A
100
AcDbEntity
100
AcDbLine
  8
side
 62
256
370
-1
  6
ByLayer
 10
-291.5133333333332644
 20
208.0000000000001137
 30
0.0
 11
-240.8333333333333144
 21
208.0000000000000853
 31
0.0
  0
LINE
  5
17B
100
AcDbEntity
100
AcDbLine
  8
side
 62
256
370
-1
  6
ByLayer
 10
-295.5133333333333781
 20
0.0000000000000568
 30
0.0
 11
-293.5133333333333212
 21
0.0000000000000284
 31
0.0
  0
LINE
  5
17C
100
AcDbEntity
100
AcDbLine
  8
side
 62
256
370
-1
  6
ByLayer
 10
-291.5133333333333212
 20
0.0000000000000568
 30
0.0
 11
-240.8333333333332575
 21
0.0000000000000284
 31
0.0
  0
LINE
  5
17D
100
AcDbEntity
100
AcDbLine
  8
side
 62
256
370
-1
  6
ByLayer
 10
-230.833333333333286
 20
77.5000000000000568
 30
0.0
 11
-241.3333333333335418
 21
77.5000000000000284
 31
0.0
  0
LINE
  5
17E
100
AcDbEntity
100
AcDbLine
  8
side
 62
256
370
-1
  6
ByLayer
 10
-241.3333333333335418
 20
77.5000000000000284
 30
0.0
 11
-241.3333333333335702
 21
101.1000000000000369
 31
0.0
  0
LINE
  5
17F
100
AcDbEntity
100
AcDbLine
  8
side
 62
256
370
-1
  6
ByLayer
 10
-230.8333333333332007
 20
52.6699999999999875
 30
0.0
 11
-230.833333333333286
 21
77.5000000000000568
 31
0.0
  0
LINE
  5
180
100
AcDbEntity
100
AcDbLine
  8
side
 62
256
370
-1
  6
ByLayer
 10
-230.8333333333331154
 20
10.0
 30
0.0
 11
-230.8333333333331154
 21
42.6699999999999875
 31
0.0
  0
ARC
  5
181
100
AcDbEntity
  8
side
 62
256
370
-1
  6
ByLayer
100
AcDbCircle
 10
-235.8333333333332291
 20
47.6699999999999875
 30
0.0
 40
5.0
100
AcDbArc
 50
89.9999999999999858
 51
270.0
  0
LINE
  5
182
100
AcDbEntity
100
AcDbLine
  8
side
 62
256
370
-1
  6
ByLayer
 10
-230.8333333333332007
 20
52.6699999999999875
 30
0.0
 11
-235.8333333333332575
 21
52.6699999999999875
 31
0.0
  0
LINE
  5
183
100
AcDbEntity
100
AcDbLine
  8
side
 62
256
370
-1
  6
ByLayer
 10
-235.8333333333331723
 20
42.6699999999999875
 30
0.0
 11
-230.8333333333331154
 21
42.6699999999999875
 31
0.0
  0
LINE
  5
184
100
AcDbEntity
100
AcDbLine
  8
rod-backplate
 62
256
370
-1
  6
ByLayer
 10
15.5133333333332644
 20
429.1707502179175435
 30
0.0
 11
7.5133333333332928
 21
429.1707502179176004
 31
0.0
  0
LINE
  5
185
100
AcDbEntity
100
AcDbLine
  8
rod-backplate
 62
256
370
-1
  6
ByLayer
 10
15.5133333333332644
 20
481.5707502179175776
 30
0.0
 11
7.5133333333332928
 21
481.5707502179175776
 31
0.0
  0
LINE
  5
186
100
AcDbEntity
100
AcDbLine
  8
rod-backplate
 62
256
370
-1
  6
ByLayer
 10
15.5133333333332644
 20
429.1707502179175435
 30
0.0
 11
15.5133333333332644
 21
481.5707502179175776
 31
0.0
  0
LINE
  5
187
100
AcDbEntity
100
AcDbLine
  8
rod-backplate
 62
256
370
-1
  6
ByLayer
 10
-0.9866666666667356
 20
469.370750217917589
 30
0.0
 11
-0.9866666666667356
 21
441.3707502179175322
 31
0.0
  0
LINE
  5
188
100
AcDbEntity
100
AcDbLine
  8
rod-backplate
 62
256
370
-1
  6
ByLayer
 10
-0.9866666666667356
 20
429.1707502179176004
 30
0.0
 11
15.5133333333332644
 21
429.1707502179176004
 31
0.0
  0
LINE
  5
189
100
AcDbEntity
100
AcDbLine
  8
rod-backplate
 62
256
370
-1
  6
ByLayer
 10
-0.9866666666667356
 20
429.3707502179175322
 30
0.0
 11
-0.9866666666667356
 21
429.1707502179176004
 31
0.0
  0
LINE
  5
18A
100
AcDbEntity
100
AcDbLine
  8
rod-backplate
 62
256
370
-1
  6
ByLayer
 10
15.5133333333332626
 20
481.5707502179175776
 30
0.0
 11
-0.9866666666667339
 21
481.5707502179175776
 31
0.0
  0
LINE
  5
18B
100
AcDbEntity
100
AcDbLine
  8
rod-backplate
 62
256
370
-1
  6
ByLayer
 10
-0.9866666666667356
 20
481.370750217917589
 30
0.0
 11
-0.9866666666667339
 21
481.5707502179175776
 31
0.0
  0
ARC
  5
18C
100
AcDbEntity
  8
rod-backplate
 62
256
370
-1
  6
ByLayer
100
AcDbCircle
 10
-0.9866666666667356
 20
475.370750217917589
 30
0.0
 40
6.0
100
AcDbArc
 50
90.0
 51
270.0
  0
ARC
  5
18D
100
AcDbEntity
  8
rod-backplate
 62
256
370
-1
  6
ByLayer
100
AcDbCircle
 10
-0.9866666666667356
 20
435.3707502179175322
 30
0.0
 40
6.0
100
AcDbArc
 50
90.0
 51
270.0
  0
ARC
  5
18E
100
AcDbEntity
  8
inner-clamp
 62
256
370
-1
  6
ByLayer
100
AcDbCircle
 10
-86.666666666666373
 20
-86.4000000000000057
 30
0.0
 40
5.0
100
AcDbArc
 50
270.0
 51
90.0000000000003268
  0
CIRCLE
  5
18F
100
AcDbEntity
100
AcDbCircle
  8
inner-clamp
 62
256
370
-1
  6
ByLayer
 10
-86.666666666666373
 20
-86.4000000000000057
 30
0.0
 40
1.5
  0
CIRCLE
  5
190
100
AcDbEntity
100
AcDbCircle
  8
inner-clamp
 62
256
370
-1
  6
ByLayer
 10
-96.666666666666373
 20
-86.4000000000000057
 30
0.0
 40
1.5
  0
LINE
  5
191
100
AcDbEntity
100
AcDbLine
  8
inner-clamp
 62
256
370
-1
  6
ByLayer
 10
-86.666666666666373
 20
-91.4000000000000057
 30
0.0
 11
-109.1666666666688457
 21
-91.4000000000000057
 31
0.0
  0
LINE
  5
192
100
AcDbEntity
100
AcDbLine
  8
inner-clamp
 62
256
370
-1
  6
ByLayer
 10
-109.1666666666687036
 20
-81.4000000000000057
 30
0.0
 11
-109.1666666666688457
 21
-91.4000000000000057
 31
0.0
  0
LINE
  5
193
100
AcDbEntity
100
AcDbLine
  8
inner-clamp
 62
256
370
-1
  6
ByLayer
 10
-86.6666666666664014
 20
-81.4000000000000057
 30
0.0
 11
-109.1666666666687036
 21
-81.4000000000000057
 31
0.0
  0
LINE
  5
194
100
AcDbEntity
100
AcDbLine
  8
text
 62
256
370
-1
  6
ByLayer
 10
-3.0
 20
54.4168241281073648
 30
0.0
 11
3.0000000000000004
 21
58.4168241281073648
 31
0.0
  0
LINE
  5
195
100
AcDbEntity
100
AcDbLine
  8
text
 62
256
370
-1
  6
ByLayer
 10
3.0
 20
54.4168241281073648
 30
0.0
 11
-3.0
 21
58.4168241281073648
 31
0.0
  0
ARC
  5
196
100
AcDbEntity
  8
text
 62
256
370
-1
  6
ByLayer
100
AcDbCircle
 10
1.7860000000000003
 20
66.3594907947740325
 30
0.0
 40
2.7046666666666668
100
AcDbArc
 50
153.0999999999999943
 51
198.2999999999999829
  0
ARC
  5
197
100
AcDbEntity
  8
text
 62
256
370
-1
  6
ByLayer
100
AcDbCircle
 10
-0.0226666666666673
 20
65.7621574614406939
 30
0.0
 40
0.7999999999999999
100
AcDbArc
 50
198.2999999999999829
 51
337.8000000000000114
  0
LINE
  5
198
100
AcDbEntity
100
AcDbLine
  8
text
 62
256
370
-1
  6
ByLayer
 10
0.7180000000000022
 20
65.4598907947740258
 30
0.0
 11
1.3633333333333288
 21
67.0401574614406996
 31
0.0
  0
ARC
  5
199
100
AcDbEntity
  8
text
 62
256
370
-1
  6
ByLayer
100
AcDbCircle
 10
2.1039999999999992
 20
66.7381574614406929
 30
0.0
 40
0.7999999999999999
100
AcDbArc
 50
18.3000000000000327
 51
157.7900000000000205
  0
ARC
  5
19A
100
AcDbEntity
  8
text
 62
256
370
-1
  6
ByLayer
100
AcDbCircle
 10
0.2953333333333306
 20
66.1408241281073686
 30
0.0
 40
2.7046666666666668
100
AcDbArc
 50
333.0999999999999659
 51
18.3000000000000327
  0
LINE
  5
19B
100
AcDbEntity
100
AcDbLine
  8
text
 62
256
370
-1
  6
ByLayer
 10
-1.0
 20
69.5831758718926352
 30
0.0
 11
-1.0
 21
71.5831758718926352
 31
0.0
  0
LINE
  5
19C
100
AcDbEntity
100
AcDbLine
  8
text
 62
256
370
-1
  6
ByLayer
 10
-2.9999999999999991
 20
70.2498425385593066
 30
0.0
 11
3.0
 21
70.2498425385593066
 31
0.0
  0
LINE
  5
19D
100
AcDbEntity
100
AcDbLine
  8
text
 62
256
370
-1
  6
ByLayer
 10
-0.9999999999999987
 20
73.9165092052259638
 30
0.0
 11
-0.9999999999999987
 21
75.2498425385593066
 31
0.0
  0
ARC
  5
19E
100
AcDbEntity
  8
text
 62
256
370
-1
  6
ByLayer
100
AcDbCircle
 10
0.0000000000000018
 20
75.2498425385593066
 30
0.0
 40
1.0
100
AcDbArc
 50
90.0
 51
180.0
  0
LINE
  5
19F
100
AcDbEntity
100
AcDbLine
  8
text
 62
256
370
-1
  6
ByLayer
 10
0.0000000000000018
 20
76.2498425385593066
 30
0.0
 11
3.0000000000000013
 21
76.2498425385593066
 31
0.0
  0
LINE
  5
1A0
100
AcDbEntity
100
AcDbLine
  8
text
 62
256
370
-1
  6
ByLayer
 10
3.0000000000000013
 20
76.2498425385593066
 30
0.0
 11
3.0000000000000013
 21
74.5831758718926352
 31
0.0
  0
ARC
  5
1A1
100
AcDbEntity
  8
text
 62
256
370
-1
  6
ByLayer
100
AcDbCircle
 10
2.0000000000000009
 20
74.5831758718926352
 30
0.0
 40
1.0
100
AcDbArc
 50
180.0
 51
360.0
  0
LINE
  5
1A2
100
AcDbEntity
100
AcDbLine
  8
text
 62
256
370
-1
  6
ByLayer
 10
1.0000000000000013
 20
74.5831758718926352
 30
0.0
 11
1.0000000000000018
 21
76.2498425385593066
 31
0.0
  0
LINE
  5
1A3
100
AcDbEntity
100
AcDbLine
  8
text
 62
256
370
-1
  6
ByLayer
 10
5.0000000000000027
 20
78.2498425385593066
 30
0.0
 11
5.0000000000000036
 21
79.916509205225978
 31
0.0
  0
ARC
  5
1A4
100
AcDbEntity
  8
text
 62
256
370
-1
  6
ByLayer
100
AcDbCircle
 10
4.0000000000000036
 20
79.916509205225978
 30
0.0
 40
1.0
100
AcDbArc
 50
360.0
 51
90.0
  0
LINE
  5
1A5
100
AcDbEntity
100
AcDbLine
  8
text
 62
256
370
-1
  6
ByLayer
 10
4.0000000000000036
 20
80.916509205225978
 30
0.0
 11
-0.9999999999999973
 21
80.916509205225978
 31
0.0
  0
LINE
  5
1A6
100
AcDbEntity
100
AcDbLine
  8
text
 62
256
370
-1
  6
ByLayer
 10
-0.9999999999999973
 20
80.916509205225978
 30
0.0
 11
-0.9999999999999973
 21
79.2498425385593066
 31
0.0
  0
ARC
  5
1A7
100
AcDbEntity
  8
text
 62
256
370
-1
  6
ByLayer
100
AcDbCircle
 10
0.0000000000000027
 20
79.2498425385593066
 30
0.0
 40
1.0
100
AcDbArc
 50
180.0
 51
270.0
  0
LINE
  5
1A8
100
AcDbEntity
100
AcDbLine
  8
text
 62
256
370
-1
  6
ByLayer
 10
0.0000000000000027
 20
78.2498425385593066
 30
0.0
 11
2.0000000000000027
 21
78.2498425385593066
 31
0.0
  0
ARC
  5
1A9
100
AcDbEntity
  8
text
 62
256
370
-1
  6
ByLayer
100
AcDbCircle
 10
2.0000000000000027
 20
79.2498425385593066
 30
0.0
 40
1.0
100
AcDbArc
 50
270.0
 51
360.0
  0
LINE
  5
1AA
100
AcDbEntity
100
AcDbLine
  8
text
 62
256
370
-1
  6
ByLayer
 10
3.0000000000000027
 20
79.2498425385593066
 30
0.0
 11
3.0000000000000027
 21
80.916509205225978
 31
0.0
  0
LINE
  5
1AB
100
AcDbEntity
100
AcDbLine
  8
text
 62
256
370
-1
  6
ByLayer
 10
0.999999999999996
 20
82.9165092052259638
 30
0.0
 11
0.9999999999999964
 21
85.5831758718926352
 31
0.0
  0
LINE
  5
1AC
100
AcDbEntity
100
AcDbLine
  8
text
 62
256
370
-1
  6
ByLayer
 10
0.9999999999999964
 20
85.5831758718926352
 30
0.0
 11
0.3333333333333246
 21
85.5831758718926352
 31
0.0
  0
ARC
  5
1AD
100
AcDbEntity
  8
text
 62
256
370
-1
  6
ByLayer
100
AcDbCircle
 10
0.3333333333333246
 20
84.2498425385592924
 30
0.0
 40
1.3333333333333333
100
AcDbArc
 50
90.0
 51
270.0
  0
LINE
  5
1AE
100
AcDbEntity
100
AcDbLine
  8
text
 62
256
370
-1
  6
ByLayer
 10
0.3333333333333246
 20
82.9165092052259638
 30
0.0
 11
1.999999999999996
 21
82.9165092052259638
 31
0.0
  0
ARC
  5
1AF
100
AcDbEntity
  8
text
 62
256
370
-1
  6
ByLayer
100
AcDbCircle
 10
1.9999999999999958
 20
83.9165092052259638
 30
0.0
 40
1.0
100
AcDbArc
 50
270.0
 51
360.0
  0
LINE
  5
1B0
100
AcDbEntity
100
AcDbLine
  8
text
 62
256
370
-1
  6
ByLayer
 10
2.999999999999996
 20
83.9165092052259638
 30
0.0
 11
2.999999999999996
 21
85.5831758718926352
 31
0.0
  0
LINE
  5
1B1
100
AcDbEntity
100
AcDbLine
  8
text
 62
256
370
-1
  6
ByLayer
 10
-253.0
 20
8.0833333333333339
 30
0.0
 11
-247.0
 21
12.0833333333333339
 31
0.0
  0
LINE
  5
1B2
100
AcDbEntity
100
AcDbLine
  8
text
 62
256
370
-1
  6
ByLayer
 10
-247.0
 20
8.0833333333333339
 30
0.0
 11
-253.0
 21
12.0833333333333357
 31
0.0
  0
LINE
  5
1B3
100
AcDbEntity
100
AcDbLine
  8
text
 62
256
370
-1
  6
ByLayer
 10
-253.0
 20
18.5833333333333321
 30
0.0
 11
-247.6666666666666572
 21
18.5833333333333321
 31
0.0
  0
ARC
  5
1B4
100
AcDbEntity
  8
text
 62
256
370
-1
  6
ByLayer
100
AcDbCircle
 10
-247.6666666666666572
 20
19.2499999999999893
 30
0.0
 40
0.6666666666666666
100
AcDbArc
 50
270.0
 51
360.0
  0
LINE
  5
1B5
100
AcDbEntity
100
AcDbLine
  8
text
 62
256
370
-1
  6
ByLayer
 10
-249.0
 20
21.25
 30
0.0
 11
-249.0
 21
23.9166666666666572
 31
0.0
  0
LINE
  5
1B6
100
AcDbEntity
100
AcDbLine
  8
text
 62
256
370
-1
  6
ByLayer
 10
-249.0
 20
23.9166666666666572
 30
0.0
 11
-249.6666666666666572
 21
23.9166666666666572
 31
0.0
  0
ARC
  5
1B7
100
AcDbEntity
  8
text
 62
256
370
-1
  6
ByLayer
100
AcDbCircle
 10
-249.6666666666666572
 20
22.5833333333333428
 30
0.0
 40
1.3333333333333333
100
AcDbArc
 50
90.0
 51
270.0
  0
LINE
  5
1B8
100
AcDbEntity
100
AcDbLine
  8
text
 62
256
370
-1
  6
ByLayer
 10
-249.6666666666666572
 20
21.25
 30
0.0
 11
-248.0
 21
21.25
 31
0.0
  0
ARC
  5
1B9
100
AcDbEntity
  8
text
 62
256
370
-1
  6
ByLayer
100
AcDbCircle
 10
-248.0
 20
22.25
 30
0.0
 40
1.0
100
AcDbArc
 50
270.0
 51
360.0
  0
LINE
  5
1BA
100
AcDbEntity
100
AcDbLine
  8
text
 62
256
370
-1
  6
ByLayer
 10
-247.0
 20
22.25
 30
0.0
 11
-247.0
 21
23.9166666666666572
 31
0.0
  0
LINE
  5
1BB
100
AcDbEntity
100
AcDbLine
  8
text
 62
256
370
-1
  6
ByLayer
 10
-247.0
 20
26.583333333333325
 30
0.0
 11
-252.0
 21
26.583333333333325
 31
0.0
  0
ARC
  5
1BC
100
AcDbEntity
  8
text
 62
256
370
-1
  6
ByLayer
100
AcDbCircle
 10
-252.0
 20
27.583333333333325
 30
0.0
 40
1.0
100
AcDbArc
 50
180.0
 51
270.0
  0
LINE
  5
1BD
100
AcDbEntity
100
AcDbLine
  8
text
 62
256
370
-1
  6
ByLayer
 10
-253.0
 20
27.583333333333325
 30
0.0
 11
-253.0
 21
27.9166666666666679
 31
0.0
  0
LINE
  5
1BE
100
AcDbEntity
100
AcDbLine
  8
text
 62
256
370
-1
  6
ByLayer
 10
-251.0
 20
25.9166666666666679
 30
0.0
 11
-251.0
 21
27.9166666666666679
 31
0.0
  0
LINE
  5
1BF
100
AcDbEntity
100
AcDbLine
  8
text
 62
256
370
-1
  6
ByLayer
 10
-251.0
 20
29.9166666666666643
 30
0.0
 11
-251.0
 21
31.9166666666666643
 31
0.0
  0
LINE
  5
1C0
100
AcDbEntity
100
AcDbLine
  8
text
 62
256
370
-1
  6
ByLayer
 10
-253.0
 20
30.5833333333333215
 30
0.0
 11
-247.0
 21
30.5833333333333215
 31
0.0
  0
LINE
  5
1C1
100
AcDbEntity
100
AcDbLine
  8
text
 62
256
370
-1
  6
ByLayer
 10
-147.0
 20
33.9166666666666643
 30
0.0
 11
-153.0
 21
29.9166666666666643
 31
0.0
  0
LINE
  5
1C2
100
AcDbEntity
100
AcDbLine
  8
text
 62
256
370
-1
  6
ByLayer
 10
-153.0
 20
33.9166666666666643
 30
0.0
 11
-147.0
 21
29.9166666666666607
 31
0.0
  0
LINE
  5
1C3
100
AcDbEntity
100
AcDbLine
  8
text
 62
256
370
-1
  6
ByLayer
 10
-153.0
 20
23.4166666666666679
 30
0.0
 11
-149.0
 21
23.4166666666666679
 31
0.0
  0
LINE
  5
1C4
100
AcDbEntity
100
AcDbLine
  8
text
 62
256
370
-1
  6
ByLayer
 10
-149.0
 20
23.4166666666666679
 30
0.0
 11
-149.0
 21
22.083333333333325
 31
0.0
  0
ARC
  5
1C5
100
AcDbEntity
  8
text
 62
256
370
-1
  6
ByLayer
100
AcDbCircle
 10
-149.6666666666666572
 20
22.083333333333325
 30
0.0
 40
0.6666666666666666
100
AcDbArc
 50
270.0
 51
360.0
  0
LINE
  5
1C6
100
AcDbEntity
100
AcDbLine
  8
text
 62
256
370
-1
  6
ByLayer
 10
-153.0
 20
19.4166666666666679
 30
0.0
 11
-149.0
 21
19.4166666666666679
 31
0.0
  0
LINE
  5
1C7
100
AcDbEntity
100
AcDbLine
  8
text
 62
256
370
-1
  6
ByLayer
 10
-147.3333333333333428
 20
19.4166666666666679
 30
0.0
 11
-147.0
 21
19.4166666666666679
 31
0.0
  0
LINE
  5
1C8
100
AcDbEntity
100
AcDbLine
  8
text
 62
256
370
-1
  6
ByLayer
 10
-155.0
 20
17.4166666666666679
 30
0.0
 11
-155.0
 21
15.7500000000000107
 31
0.0
  0
ARC
  5
1C9
100
AcDbEntity
  8
text
 62
256
370
-1
  6
ByLayer
100
AcDbCircle
 10
-154.0
 20
15.7500000000000107
 30
0.0
 40
1.0
100
AcDbArc
 50
180.0
 51
270.0
  0
LINE
  5
1CA
100
AcDbEntity
100
AcDbLine
  8
text
 62
256
370
-1
  6
ByLayer
 10
-154.0
 20
14.7500000000000107
 30
0.0
 11
-149.0
 21
14.7500000000000089
 31
0.0
  0
LINE
  5
1CB
100
AcDbEntity
100
AcDbLine
  8
text
 62
256
370
-1
  6
ByLayer
 10
-149.0
 20
14.7500000000000089
 30
0.0
 11
-149.0
 21
16.4166666666666679
 31
0.0
  0
ARC
  5
1CC
100
AcDbEntity
  8
text
 62
256
370
-1
  6
ByLayer
100
AcDbCircle
 10
-150.0
 20
16.4166666666666679
 30
0.0
 40
1.0
100
AcDbArc
 50
360.0
 51
90.0
  0
LINE
  5
1CD
100
AcDbEntity
100
AcDbLine
  8
text
 62
256
370
-1
  6
ByLayer
 10
-150.0
 20
17.4166666666666679
 30
0.0
 11
-152.0
 21
17.4166666666666679
 31
0.0
  0
ARC
  5
1CE
100
AcDbEntity
  8
text
 62
256
370
-1
  6
ByLayer
100
AcDbCircle
 10
-152.0
 20
16.4166666666666679
 30
0.0
 40
1.0
100
AcDbArc
 50
90.0
 51
180.0
  0
LINE
  5
1CF
100
AcDbEntity
100
AcDbLine
  8
text
 62
256
370
-1
  6
ByLayer
 10
-153.0
 20
16.4166666666666679
 30
0.0
 11
-153.0
 21
14.7500000000000107
 31
0.0
  0
LINE
  5
1D0
100
AcDbEntity
100
AcDbLine
  8
text
 62
256
370
-1
  6
ByLayer
 10
-147.0
 20
12.7499999999999982
 30
0.0
 11
-153.0
 21
12.75
 31
0.0
  0
LINE
  5
1D1
100
AcDbEntity
100
AcDbLine
  8
text
 62
256
370
-1
  6
ByLayer
 10
-149.0
 20
12.7499999999999982
 30
0.0
 11
-149.0
 21
11.0833333333333428
 31
0.0
  0
ARC
  5
1D2
100
AcDbEntity
  8
text
 62
256
370
-1
  6
ByLayer
100
AcDbCircle
 10
-150.0
 20
11.083333333333341
 30
0.0
 40
1.0
100
AcDbArc
 50
270.0
 51
360.0
  0
LINE
  5
1D3
100
AcDbEntity
100
AcDbLine
  8
text
 62
256
370
-1
  6
ByLayer
 10
-150.0
 20
10.0833333333333428
 30
0.0
 11
-153.0
 21
10.0833333333333428
 31
0.0
  0
LINE
  5
1D4
100
AcDbEntity
100
AcDbLine
  8
text
 62
256
370
-1
  6
ByLayer
 10
-149.0
 20
8.0833333333333339
 30
0.0
 11
-149.0
 21
6.0833333333333339
 31
0.0
  0
LINE
  5
1D5
100
AcDbEntity
100
AcDbLine
  8
text
 62
256
370
-1
  6
ByLayer
 10
-147.0
 20
7.4166666666666767
 30
0.0
 11
-153.0
 21
7.4166666666666785
 31
0.0
  0
LINE
  5
1D6
100
AcDbEntity
100
AcDbLine
  8
text
 62
256
370
-1
  6
ByLayer
 10
-98.0
 20
359.9444444444444571
 30
0.0
 11
-102.0
 21
357.2777777777777715
 31
0.0
  0
LINE
  5
1D7
100
AcDbEntity
100
AcDbLine
  8
text
 62
256
370
-1
  6
ByLayer
 10
-102.0
 20
359.9444444444444571
 30
0.0
 11
-98.0
 21
357.2777777777777715
 31
0.0
  0
LINE
  5
1D8
100
AcDbEntity
100
AcDbLine
  8
text
 62
256
370
-1
  6
ByLayer
 10
-102.0
 20
352.5
 30
0.0
 11
-98.6666666666666856
 21
352.5
 31
0.0
  0
ARC
  5
1D9
100
AcDbEntity
  8
text
 62
256
370
-1
  6
ByLayer
100
AcDbCircle
 10
-98.6666666666666856
 20
351.8333333333333144
 30
0.0
 40
0.6666666666666666
100
AcDbArc
 50
360.0
 51
90.0
  0
LINE
  5
1DA
100
AcDbEntity
100
AcDbLine
  8
text
 62
256
370
-1
  6
ByLayer
 10
-98.0
 20
351.8333333333333144
 30
0.0
 11
-98.0
 21
351.6111111111111427
 31
0.0
  0
LINE
  5
1DB
100
AcDbEntity
100
AcDbLine
  8
text
 62
256
370
-1
  6
ByLayer
 10
-99.3333333333333144
 20
352.9444444444444571
 30
0.0
 11
-99.3333333333333144
 21
351.6111111111111427
 31
0.0
  0
LINE
  5
1DC
100
AcDbEntity
100
AcDbLine
  8
text
 62
256
370
-1
  6
ByLayer
 10
-102.0
 20
350.2777777777777715
 30
0.0
 11
-99.3333333333333144
 21
350.2777777777777715
 31
0.0
  0
LINE
  5
1DD
100
AcDbEntity
100
AcDbLine
  8
text
 62
256
370
-1
  6
ByLayer
 10
-99.3333333333333144
 20
350.2777777777777715
 30
0.0
 11
-99.3333333333333144
 21
349.3888888888889142
 31
0.0
  0
ARC
  5
1DE
100
AcDbEntity
  8
text
 62
256
370
-1
  6
ByLayer
100
AcDbCircle
 10
-99.7777777777777715
 20
349.3888888888888573
 30
0.0
 40
0.4444444444444444
100
AcDbArc
 50
270.0
 51
360.0
  0
LINE
  5
1DF
100
AcDbEntity
100
AcDbLine
  8
text
 62
256
370
-1
  6
ByLayer
 10
-100.2222222222222285
 20
347.6111111111110858
 30
0.0
 11
-101.1111111111110858
 21
347.6111111111110858
 31
0.0
  0
ARC
  5
1E0
100
AcDbEntity
  8
text
 62
256
370
-1
  6
ByLayer
100
AcDbCircle
 10
-101.1111111111110858
 20
346.7222222222221717
 30
0.0
 40
0.8888888888888888
100
AcDbArc
 50
90.0
 51
270.0
  0
LINE
  5
1E1
100
AcDbEntity
100
AcDbLine
  8
text
 62
256
370
-1
  6
ByLayer
 10
-101.1111111111110858
 20
345.8333333333333144
 30
0.0
 11
-100.2222222222222285
 21
345.8333333333333144
 31
0.0
  0
ARC
  5
1E2
100
AcDbEntity
  8
text
 62
256
370
-1
  6
ByLayer
100
AcDbCircle
 10
-100.2222222222222285
 20
346.7222222222221717
 30
0.0
 40
0.8888888888888888
100
AcDbArc
 50
270.0
 51
90.0
  0
LINE
  5
1E3
100
AcDbEntity
100
AcDbLine
  8
text
 62
256
370
-1
  6
ByLayer
 10
-102.0
 20
344.5
 30
0.0
 11
-99.3333333333333144
 21
344.5
 31
0.0
  0
LINE
  5
1E4
100
AcDbEntity
100
AcDbLine
  8
text
 62
256
370
-1
  6
ByLayer
 10
-99.3333333333333144
 20
344.5
 30
0.0
 11
-99.3333333333333144
 21
343.3888888888888573
 31
0.0
  0
ARC
  5
1E5
100
AcDbEntity
  8
text
 62
256
370
-1
  6
ByLayer
100
AcDbCircle
 10
-100.0
 20
343.3888888888888573
 30
0.0
 40
0.6666666666666666
100
AcDbArc
 50
270.0
 51
360.0
  0
LINE
  5
1E6
100
AcDbEntity
100
AcDbLine
  8
text
 62
256
370
-1
  6
ByLayer
 10
-100.0
 20
342.7222222222222285
 30
0.0
 11
-102.0
 21
342.7222222222222285
 31
0.0
  0
LINE
  5
1E7
100
AcDbEntity
100
AcDbLine
  8
text
 62
256
370
-1
  6
ByLayer
 10
-99.3333333333333144
 20
341.3888888888889142
 30
0.0
 11
-99.3333333333333144
 21
340.0555555555555998
 31
0.0
  0
LINE
  5
1E8
100
AcDbEntity
100
AcDbLine
  8
text
 62
256
370
-1
  6
ByLayer
 10
-98.0
 20
340.9444444444444571
 30
0.0
 11
-102.0
 21
340.9444444444444571
 31
0.0
  0
LINE
  5
1E9
100
AcDbEntity
100
AcDbLine
  8
text
 62
256
370
-1
  6
ByLayer
 10
-98.0
 20
478.8333333333333144
 30
0.0
 11
-102.0
 21
476.1666666666666288
 31
0.0
  0
LINE
  5
1EA
100
AcDbEntity
100
AcDbLine
  8
text
 62
256
370
-1
  6
ByLayer
 10
-102.0
 20
478.8333333333333144
 30
0.0
 11
-98.0
 21
476.1666666666666288
 31
0.0
  0
LINE
  5
1EB
100
AcDbEntity
100
AcDbLine
  8
text
 62
256
370
-1
  6
ByLayer
 10
-98.0
 20
471.8333333333333144
 30
0.0
 11
-102.0
 21
471.8333333333333144
 31
0.0
  0
LINE
  5
1EC
100
AcDbEntity
100
AcDbLine
  8
text
 62
256
370
-1
  6
ByLayer
 10
-102.0
 20
471.8333333333333144
 30
0.0
 11
-102.0
 21
470.7222222222221717
 31
0.0
  0
ARC
  5
1ED
100
AcDbEntity
  8
text
 62
256
370
-1
  6
ByLayer
100
AcDbCircle
 10
-101.3333333333333144
 20
470.7222222222221717
 30
0.0
 40
0.6666666666666666
100
AcDbArc
 50
180.0
 51
270.0
  0
LINE
  5
1EE
100
AcDbEntity
100
AcDbLine
  8
text
 62
256
370
-1
  6
ByLayer
 10
-101.3333333333333144
 20
470.0555555555555429
 30
0.0
 11
-100.0
 21
470.0555555555555429
 31
0.0
  0
ARC
  5
1EF
100
AcDbEntity
  8
text
 62
256
370
-1
  6
ByLayer
100
AcDbCircle
 10
-100.0
 20
470.7222222222221717
 30
0.0
 40
0.6666666666666666
100
AcDbArc
 50
270.0
 51
360.0
  0
LINE
  5
1F0
100
AcDbEntity
100
AcDbLine
  8
text
 62
256
370
-1
  6
ByLayer
 10
-99.3333333333333144
 20
470.7222222222221717
 30
0.0
 11
-99.3333333333333144
 21
471.8333333333333144
 31
0.0
  0
LINE
  5
1F1
100
AcDbEntity
100
AcDbLine
  8
text
 62
256
370
-1
  6
ByLayer
 10
-99.3333333333333144
 20
468.5
 30
0.0
 11
-99.3333333333333144
 21
467.6111111111110858
 31
0.0
  0
ARC
  5
1F2
100
AcDbEntity
  8
text
 62
256
370
-1
  6
ByLayer
100
AcDbCircle
 10
-100.0
 20
467.6111111111110858
 30
0.0
 40
0.6666666666666666
100
AcDbArc
 50
270.0
 51
360.0
  0
LINE
  5
1F3
100
AcDbEntity
100
AcDbLine
  8
text
 62
256
370
-1
  6
ByLayer
 10
-100.0
 20
466.9444444444444571
 30
0.0
 11
-102.0
 21
466.9444444444444571
 31
0.0
  0
LINE
  5
1F4
100
AcDbEntity
100
AcDbLine
  8
text
 62
256
370
-1
  6
ByLayer
 10
-102.0
 20
466.9444444444444571
 30
0.0
 11
-102.0
 21
468.0555555555555429
 31
0.0
  0
ARC
  5
1F5
100
AcDbEntity
  8
text
 62
256
370
-1
  6
ByLayer
100
AcDbCircle
 10
-101.3333333333333144
 20
468.0555555555555429
 30
0.0
 40
0.6666666666666666
100
AcDbArc
 50
360.0
 51
180.0
  0
LINE
  5
1F6
100
AcDbEntity
100
AcDbLine
  8
text
 62
256
370
-1
  6
ByLayer
 10
-100.6666666666666856
 20
468.0555555555555429
 30
0.0
 11
-100.6666666666666856
 21
466.9444444444444571
 31
0.0
  0
LINE
  5
1F7
100
AcDbEntity
100
AcDbLine
  8
text
 62
256
370
-1
  6
ByLayer
 10
-99.3333333333333144
 20
464.2777777777777715
 30
0.0
 11
-99.3333333333333144
 21
464.9444444444444002
 31
0.0
  0
ARC
  5
1F8
100
AcDbEntity
  8
text
 62
256
370
-1
  6
ByLayer
100
AcDbCircle
 10
-100.0
 20
464.9444444444444002
 30
0.0
 40
0.6666666666666666
100
AcDbArc
 50
360.0
 51
90.0
  0
LINE
  5
1F9
100
AcDbEntity
100
AcDbLine
  8
text
 62
256
370
-1
  6
ByLayer
 10
-100.0
 20
465.6111111111110858
 30
0.0
 11
-101.3333333333333144
 21
465.6111111111110858
 31
0.0
  0
ARC
  5
1FA
100
AcDbEntity
  8
text
 62
256
370
-1
  6
ByLayer
100
AcDbCircle
 10
-101.3333333333333144
 20
464.9444444444444002
 30
0.0
 40
0.6666666666666666
100
AcDbArc
 50
90.0
 51
180.0
  0
LINE
  5
1FB
100
AcDbEntity
100
AcDbLine
  8
text
 62
256
370
-1
  6
ByLayer
 10
-102.0
 20
464.9444444444444002
 30
0.0
 11
-102.0
 21
464.2777777777777715
 31
0.0
  0
LINE
  5
1FC
100
AcDbEntity
100
AcDbLine
  8
text
 62
256
370
-1
  6
ByLayer
 10
-98.0
 20
462.9444444444444571
 30
0.0
 11
-102.0
 21
462.9444444444444571
 31
0.0
  0
LINE
  5
1FD
100
AcDbEntity
100
AcDbLine
  8
text
 62
256
370
-1
  6
ByLayer
 10
-100.4444444444444571
 20
462.9444444444444571
 30
0.0
 11
-99.3333333333333144
 21
461.1666666666666856
 31
0.0
  0
LINE
  5
1FE
100
AcDbEntity
100
AcDbLine
  8
text
 62
256
370
-1
  6
ByLayer
 10
-100.0773333333333426
 20
462.3573333333333153
 30
0.0
 11
-102.0
 21
461.1666666666666856
 31
0.0
  0
LINE
  5
1FF
100
AcDbEntity
100
AcDbLine
  8
text
 62
256
370
-1
  6
ByLayer
 10
12.0
 20
357.2777777777777715
 30
0.0
 11
7.9999999999999991
 21
354.6111111111110858
 31
0.0
  0
LINE
  5
200
100
AcDbEntity
100
AcDbLine
  8
text
 62
256
370
-1
  6
ByLayer
 10
8.0
 20
357.2777777777777715
 30
0.0
 11
12.0
 21
354.6111111111110858
 31
0.0
  0
LINE
  5
201
100
AcDbEntity
100
AcDbLine
  8
text
 62
256
370
-1
  6
ByLayer
 10
10.6666666666666856
 20
348.9444444444444571
 30
0.0
 11
10.6666666666666856
 21
349.6111111111110858
 31
0.0
  0
ARC
  5
202
100
AcDbEntity
  8
text
 62
256
370
-1
  6
ByLayer
100
AcDbCircle
 10
10.0
 20
349.6111111111110858
 30
0.0
 40
0.6666666666666666
100
AcDbArc
 50
360.0
 51
90.0
  0
LINE
  5
203
100
AcDbEntity
100
AcDbLine
  8
text
 62
256
370
-1
  6
ByLayer
 10
10.0
 20
350.2777777777777715
 30
0.0
 11
8.6666666666666856
 21
350.2777777777777715
 31
0.0
  0
ARC
  5
204
100
AcDbEntity
  8
text
 62
256
370
-1
  6
ByLayer
100
AcDbCircle
 10
8.6666666666666856
 20
349.6111111111110858
 30
0.0
 40
0.6666666666666666
100
AcDbArc
 50
90.0
 51
180.0
  0
LINE
  5
205
100
AcDbEntity
100
AcDbLine
  8
text
 62
256
370
-1
  6
ByLayer
 10
8.0
 20
349.6111111111110858
 30
0.0
 11
8.0
 21
348.9444444444444571
 31
0.0
  0
LINE
  5
206
100
AcDbEntity
100
AcDbLine
  8
text
 62
256
370
-1
  6
ByLayer
 10
10.6666666666666856
 20
347.3888888888888573
 30
0.0
 11
10.6666666666666856
 21
346.5
 31
0.0
  0
ARC
  5
207
100
AcDbEntity
  8
text
 62
256
370
-1
  6
ByLayer
100
AcDbCircle
 10
10.0
 20
346.5
 30
0.0
 40
0.6666666666666666
100
AcDbArc
 50
270.0
 51
360.0
  0
LINE
  5
208
100
AcDbEntity
100
AcDbLine
  8
text
 62
256
370
-1
  6
ByLayer
 10
10.0
 20
345.8333333333333144
 30
0.0
 11
8.0
 21
345.8333333333333144
 31
0.0
  0
LINE
  5
209
100
AcDbEntity
100
AcDbLine
  8
text
 62
256
370
-1
  6
ByLayer
 10
8.0
 20
345.8333333333333144
 30
0.0
 11
8.0
 21
346.9444444444444002
 31
0.0
  0
ARC
  5
20A
100
AcDbEntity
  8
text
 62
256
370
-1
  6
ByLayer
100
AcDbCircle
 10
8.6666666666666856
 20
346.9444444444444002
 30
0.0
 40
0.6666666666666666
100
AcDbArc
 50
360.0
 51
180.0
  0
LINE
  5
20B
100
AcDbEntity
100
AcDbLine
  8
text
 62
256
370
-1
  6
ByLayer
 10
9.3333333333333144
 20
346.9444444444444002
 30
0.0
 11
9.3333333333333144
 21
345.8333333333333144
 31
0.0
  0
LINE
  5
20C
100
AcDbEntity
100
AcDbLine
  8
text
 62
256
370
-1
  6
ByLayer
 10
7.9999999999999956
 20
344.5
 30
0.0
 11
7.9999999999999956
 21
343.3888888888889142
 31
0.0
  0
ARC
  5
20D
100
AcDbEntity
  8
text
 62
256
370
-1
  6
ByLayer
100
AcDbCircle
 10
8.6666666666666803
 20
343.3888888888889142
 30
0.0
 40
0.6666666666666666
100
AcDbArc
 50
180.0
 51
270.0
  0
LINE
  5
20E
100
AcDbEntity
100
AcDbLine
  8
text
 62
256
370
-1
  6
ByLayer
 10
8.6666666666666821
 20
342.7222222222222285
 30
0.0
 11
9.9999999999999947
 21
342.7222222222222285
 31
0.0
  0
ARC
  5
20F
100
AcDbEntity
  8
text
 62
256
370
-1
  6
ByLayer
100
AcDbCircle
 10
9.9999999999999964
 20
343.3888888888889142
 30
0.0
 40
0.6666666666666666
100
AcDbArc
 50
270.0
 51
360.0
  0
LINE
  5
210
100
AcDbEntity
100
AcDbLine
  8
text
 62
256
370
-1
  6
ByLayer
 10
10.6666666666666821
 20
343.3888888888889142
 30
0.0
 11
10.6666666666666821
 21
344.5
 31
0.0
  0
LINE
  5
211
100
AcDbEntity
100
AcDbLine
  8
text
 62
256
370
-1
  6
ByLayer
 10
10.6666666666666821
 20
344.5
 30
0.0
 11
6.6666666666666812
 21
344.5
 31
0.0
  0
LINE
  5
212
100
AcDbEntity
100
AcDbLine
  8
text
 62
256
370
-1
  6
ByLayer
 10
12.0
 20
477.2777777777777715
 30
0.0
 11
7.9999999999999991
 21
474.6111111111110858
 31
0.0
  0
LINE
  5
213
100
AcDbEntity
100
AcDbLine
  8
text
 62
256
370
-1
  6
ByLayer
 10
8.0
 20
477.2777777777777715
 30
0.0
 11
12.0
 21
474.6111111111110858
 31
0.0
  0
LINE
  5
214
100
AcDbEntity
100
AcDbLine
  8
text
 62
256
370
-1
  6
ByLayer
 10
10.6666666666666856
 20
468.9444444444444571
 30
0.0
 11
10.6666666666666856
 21
469.6111111111110858
 31
0.0
  0
ARC
  5
215
100
AcDbEntity
  8
text
 62
256
370
-1
  6
ByLayer
100
AcDbCircle
 10
10.0
 20
469.6111111111110858
 30
0.0
 40
0.6666666666666666
100
AcDbArc
 50
360.0
 51
90.0
  0
LINE
  5
216
100
AcDbEntity
100
AcDbLine
  8
text
 62
256
370
-1
  6
ByLayer
 10
10.0
 20
470.2777777777777715
 30
0.0
 11
8.6666666666666856
 21
470.2777777777777715
 31
0.0
  0
ARC
  5
217
100
AcDbEntity
  8
text
 62
256
370
-1
  6
ByLayer
100
AcDbCircle
 10
8.6666666666666856
 20
469.6111111111110858
 30
0.0
 40
0.6666666666666666
100
AcDbArc
 50
90.0
 51
180.0
  0
LINE
  5
218
100
AcDbEntity
100
AcDbLine
  8
text
 62
256
370
-1
  6
ByLayer
 10
8.0
 20
469.6111111111110858
 30
0.0
 11
8.0
 21
468.9444444444444571
 31
0.0
  0
LINE
  5
219
100
AcDbEntity
100
AcDbLine
  8
text
 62
256
370
-1
  6
ByLayer
 10
10.6666666666666856
 20
467.3888888888888573
 30
0.0
 11
10.6666666666666856
 21
466.5
 31
0.0
  0
ARC
  5
21A
100
AcDbEntity
  8
text
 62
256
370
-1
  6
ByLayer
100
AcDbCircle
 10
10.0
 20
466.5
 30
0.0
 40
0.6666666666666666
100
AcDbArc
 50
270.0
 51
360.0
  0
LINE
  5
21B
100
AcDbEntity
100
AcDbLine
  8
text
 62
256
370
-1
  6
ByLayer
 10
10.0
 20
465.8333333333333144
 30
0.0
 11
8.0
 21
465.8333333333333144
 31
0.0
  0
LINE
  5
21C
100
AcDbEntity
100
AcDbLine
  8
text
 62
256
370
-1
  6
ByLayer
 10
8.0
 20
465.8333333333333144
 30
0.0
 11
8.0
 21
466.9444444444444002
 31
0.0
  0
ARC
  5
21D
100
AcDbEntity
  8
text
 62
256
370
-1
  6
ByLayer
100
AcDbCircle
 10
8.6666666666666856
 20
466.9444444444444002
 30
0.0
 40
0.6666666666666666
100
AcDbArc
 50
360.0
 51
180.0
  0
LINE
  5
21E
100
AcDbEntity
100
AcDbLine
  8
text
 62
256
370
-1
  6
ByLayer
 10
9.3333333333333144
 20
466.9444444444444002
 30
0.0
 11
9.3333333333333144
 21
465.8333333333333144
 31
0.0
  0
LINE
  5
21F
100
AcDbEntity
100
AcDbLine
  8
text
 62
256
370
-1
  6
ByLayer
 10
7.9999999999999956
 20
464.5
 30
0.0
 11
7.9999999999999956
 21
463.3888888888889142
 31
0.0
  0
ARC
  5
220
100
AcDbEntity
  8
text
 62
256
370
-1
  6
ByLayer
100
AcDbCircle
 10
8.6666666666666803
 20
463.3888888888889142
 30
0.0
 40
0.6666666666666666
100
AcDbArc
 50
180.0
 51
270.0
  0
LINE
  5
221
100
AcDbEntity
100
AcDbLine
  8
text
 62
256
370
-1
  6
ByLayer
 10
8.6666666666666821
 20
462.7222222222222285
 30
0.0
 11
9.9999999999999947
 21
462.7222222222222285
 31
0.0
  0
ARC
  5
222
100
AcDbEntity
  8
text
 62
256
370
-1
  6
ByLayer
100
AcDbCircle
 10
9.9999999999999964
 20
463.3888888888889142
 30
0.0
 40
0.6666666666666666
100
AcDbArc
 50
270.0
 51
360.0
  0
LINE
  5
223
100
AcDbEntity
100
AcDbLine
  8
text
 62
256
370
-1
  6
ByLayer
 10
10.6666666666666821
 20
463.3888888888889142
 30
0.0
 11
10.6666666666666821
 21
464.5
 31
0.0
  0
LINE
  5
224
100
AcDbEntity
100
AcDbLine
  8
text
 62
256
370
-1
  6
ByLayer
 10
10.6666666666666821
 20
464.5
 30
0.0
 11
6.6666666666666812
 21
464.5
 31
0.0
  0
LINE
  5
225
100
AcDbEntity
100
AcDbLine
  8
text
 62
256
370
-1
  6
ByLayer
 10
-149.5
 20
-40.2083333333333357
 30
0.0
 11
-152.5
 21
-42.2083333333333357
 31
0.0
  0
LINE
  5
226
100
AcDbEntity
100
AcDbLine
  8
text
 62
256
370
-1
  6
ByLayer
 10
-152.5
 20
-40.2083333333333357
 30
0.0
 11
-149.5
 21
-42.2083333333333357
 31
0.0
  0
LINE
  5
227
100
AcDbEntity
100
AcDbLine
  8
text
 62
256
370
-1
  6
ByLayer
 10
-152.5
 20
-45.4583333333333357
 30
0.0
 11
-150.5
 21
-45.4583333333333357
 31
0.0
  0
LINE
  5
228
100
AcDbEntity
100
AcDbLine
  8
text
 62
256
370
-1
  6
ByLayer
 10
-150.5
 20
-45.4583333333333357
 30
0.0
 11
-150.5
 21
-46.1249999999999929
 31
0.0
  0
ARC
  5
229
100
AcDbEntity
  8
text
 62
256
370
-1
  6
ByLayer
100
AcDbCircle
 10
-150.8333333333333428
 20
-46.1249999999999929
 30
0.0
 40
0.3333333333333333
100
AcDbArc
 50
270.0
 51
360.0
  0
LINE
  5
22A
100
AcDbEntity
100
AcDbLine
  8
text
 62
256
370
-1
  6
ByLayer
 10
-152.5
 20
-47.4583333333333357
 30
0.0
 11
-150.5
 21
-47.4583333333333357
 31
0.0
  0
LINE
  5
22B
100
AcDbEntity
100
AcDbLine
  8
text
 62
256
370
-1
  6
ByLayer
 10
-149.6666666666666572
 20
-47.4583333333333357
 30
0.0
 11
-149.5
 21
-47.4583333333333357
 31
0.0
  0
LINE
  5
22C
100
AcDbEntity
100
AcDbLine
  8
text
 62
256
370
-1
  6
ByLayer
 10
-149.5
 20
-48.4583333333333357
 30
0.0
 11
-152.5
 21
-48.4583333333333357
 31
0.0
  0
LINE
  5
22D
100
AcDbEntity
100
AcDbLine
  8
text
 62
256
370
-1
  6
ByLayer
 10
-152.5
 20
-48.4583333333333357
 30
0.0
 11
-152.5
 21
-49.2916666666666785
 31
0.0
  0
ARC
  5
22E
100
AcDbEntity
  8
text
 62
256
370
-1
  6
ByLayer
100
AcDbCircle
 10
-152.0
 20
-49.2916666666666785
 30
0.0
 40
0.5
100
AcDbArc
 50
180.0
 51
270.0
  0
LINE
  5
22F
100
AcDbEntity
100
AcDbLine
  8
text
 62
256
370
-1
  6
ByLayer
 10
-152.0
 20
-49.7916666666666785
 30
0.0
 11
-151.0
 21
-49.7916666666666785
 31
0.0
  0
ARC
  5
230
100
AcDbEntity
  8
text
 62
256
370
-1
  6
ByLayer
100
AcDbCircle
 10
-151.0
 20
-49.2916666666666785
 30
0.0
 40
0.5
100
AcDbArc
 50
270.0
 51
360.0
  0
LINE
  5
231
100
AcDbEntity
100
AcDbLine
  8
text
 62
256
370
-1
  6
ByLayer
 10
-150.5
 20
-49.2916666666666785
 30
0.0
 11
-150.5
 21
-48.4583333333333357
 31
0.0
  0
LINE
  5
232
100
AcDbEntity
100
AcDbLine
  8
text
 62
256
370
-1
  6
ByLayer
 10
-108.0666666666666629
 20
-35.1999999999999957
 30
0.0
 11
-107.0
 21
-36.7999999999999972
 31
0.0
  0
LINE
  5
233
100
AcDbEntity
100
AcDbLine
  8
text
 62
256
370
-1
  6
ByLayer
 10
-108.0666666666666629
 20
-36.7999999999999972
 30
0.0
 11
-107.0
 21
-35.1999999999999957
 31
0.0
  0
LINE
  5
234
100
AcDbEntity
100
AcDbLine
  8
text
 62
256
370
-1
  6
ByLayer
 10
-104.7333333333333343
 20
-35.7333333333333272
 30
0.0
 11
-105.0
 21
-35.7333333333333272
 31
0.0
  0
ARC
  5
235
100
AcDbEntity
  8
text
 62
256
370
-1
  6
ByLayer
100
AcDbCircle
 10
-105.0
 20
-36.0
 30
0.0
 40
0.2666666666666667
100
AcDbArc
 50
90.0
 51
180.0
  0
LINE
  5
236
100
AcDbEntity
100
AcDbLine
  8
text
 62
256
370
-1
  6
ByLayer
 10
-105.2666666666666657
 20
-36.0
 30
0.0
 11
-105.2666666666666657
 21
-36.5333333333333314
 31
0.0
  0
ARC
  5
237
100
AcDbEntity
  8
text
 62
256
370
-1
  6
ByLayer
100
AcDbCircle
 10
-105.0
 20
-36.5333333333333314
 30
0.0
 40
0.2666666666666667
100
AcDbArc
 50
180.0
 51
270.0
  0
LINE
  5
238
100
AcDbEntity
100
AcDbLine
  8
text
 62
256
370
-1
  6
ByLayer
 10
-105.0
 20
-36.7999999999999972
 30
0.0
 11
-104.7333333333333343
 21
-36.7999999999999972
 31
0.0
  0
LINE
  5
239
100
AcDbEntity
100
AcDbLine
  8
text
 62
256
370
-1
  6
ByLayer
 10
-104.2000000000000028
 20
-35.1999999999999957
 30
0.0
 11
-104.2000000000000028
 21
-36.62222222222222
 31
0.0
  0
ARC
  5
23A
100
AcDbEntity
  8
text
 62
256
370
-1
  6
ByLayer
100
AcDbCircle
 10
-104.0222222222222257
 20
-36.62222222222222
 30
0.0
 40
0.1777777777777778
100
AcDbArc
 50
180.0
 51
270.0
  0
LINE
  5
23B
100
AcDbEntity
100
AcDbLine
  8
text
 62
256
370
-1
  6
ByLayer
 10
-103.4000000000000057
 20
-35.7333333333333272
 30
0.0
 11
-103.0444444444444514
 21
-35.7333333333333272
 31
0.0
  0
ARC
  5
23C
100
AcDbEntity
  8
text
 62
256
370
-1
  6
ByLayer
100
AcDbCircle
 10
-103.0444444444444514
 20
-36.0
 30
0.0
 40
0.2666666666666667
100
AcDbArc
 50
0.0
 51
90.0
  0
LINE
  5
23D
100
AcDbEntity
100
AcDbLine
  8
text
 62
256
370
-1
  6
ByLayer
 10
-102.7777777777777857
 20
-36.0
 30
0.0
 11
-102.7777777777777857
 21
-36.7999999999999972
 31
0.0
  0
LINE
  5
23E
100
AcDbEntity
100
AcDbLine
  8
text
 62
256
370
-1
  6
ByLayer
 10
-102.7777777777777857
 20
-36.7999999999999972
 30
0.0
 11
-103.2222222222222285
 21
-36.7999999999999972
 31
0.0
  0
ARC
  5
23F
100
AcDbEntity
  8
text
 62
256
370
-1
  6
ByLayer
100
AcDbCircle
 10
-103.2222222222222285
 20
-36.5333333333333314
 30
0.0
 40
0.2666666666666667
100
AcDbArc
 50
90.0
 51
270.0
  0
LINE
  5
240
100
AcDbEntity
100
AcDbLine
  8
text
 62
256
370
-1
  6
ByLayer
 10
-103.2222222222222285
 20
-36.2666666666666657
 30
0.0
 11
-102.7777777777777857
 21
-36.2666666666666657
 31
0.0
  0
LINE
  5
241
100
AcDbEntity
100
AcDbLine
  8
text
 62
256
370
-1
  6
ByLayer
 10
-102.24444444444444
 20
-36.8000000000000043
 30
0.0
 11
-102.24444444444444
 21
-35.7333333333333343
 31
0.0
  0
LINE
  5
242
100
AcDbEntity
100
AcDbLine
  8
text
 62
256
370
-1
  6
ByLayer
 10
-102.24444444444444
 20
-35.7333333333333343
 30
0.0
 11
-101.4444444444444429
 21
-35.7333333333333343
 31
0.0
  0
ARC
  5
243
100
AcDbEntity
  8
text
 62
256
370
-1
  6
ByLayer
100
AcDbCircle
 10
-101.4444444444444429
 20
-36.0000000000000071
 30
0.0
 40
0.2666666666666667
100
AcDbArc
 50
0.0
 51
90.0
  0
LINE
  5
244
100
AcDbEntity
100
AcDbLine
  8
text
 62
256
370
-1
  6
ByLayer
 10
-101.1777777777777771
 20
-36.0000000000000071
 30
0.0
 11
-101.1777777777777771
 21
-36.8000000000000043
 31
0.0
  0
LINE
  5
245
100
AcDbEntity
100
AcDbLine
  8
text
 62
256
370
-1
  6
ByLayer
 10
-101.7111111111111086
 20
-35.7333333333333343
 30
0.0
 11
-101.7111111111111086
 21
-36.8000000000000043
 31
0.0
  0
LINE
  5
246
100
AcDbEntity
100
AcDbLine
  8
text
 62
256
370
-1
  6
ByLayer
 10
-100.6444444444444457
 20
-36.7999999999999972
 30
0.0
 11
-100.2000000000000028
 21
-36.7999999999999972
 31
0.0
  0
ARC
  5
247
100
AcDbEntity
  8
text
 62
256
370
-1
  6
ByLayer
100
AcDbCircle
 10
-100.2000000000000028
 20
-36.5333333333333314
 30
0.0
 40
0.2666666666666667
100
AcDbArc
 50
270.0
 51
0.0
  0
LINE
  5
248
100
AcDbEntity
100
AcDbLine
  8
text
 62
256
370
-1
  6
ByLayer
 10
-99.9333333333333371
 20
-36.5333333333333314
 30
0.0
 11
-99.9333333333333371
 21
-36.0
 31
0.0
  0
ARC
  5
249
100
AcDbEntity
  8
text
 62
256
370
-1
  6
ByLayer
100
AcDbCircle
 10
-100.2000000000000028
 20
-36.0
 30
0.0
 40
0.2666666666666667
100
AcDbArc
 50
0.0
 51
90.0
  0
LINE
  5
24A
100
AcDbEntity
100
AcDbLine
  8
text
 62
256
370
-1
  6
ByLayer
 10
-100.2000000000000028
 20
-35.7333333333333272
 30
0.0
 11
-100.6444444444444457
 21
-35.7333333333333272
 31
0.0
  0
LINE
  5
24B
100
AcDbEntity
100
AcDbLine
  8
text
 62
256
370
-1
  6
ByLayer
 10
-100.6444444444444457
 20
-35.7333333333333272
 30
0.0
 11
-100.6444444444444457
 21
-37.3333333333333286
 31
0.0
  0
LINE
  5
24C
100
AcDbEntity
100
AcDbLine
  8
text
 62
256
370
-1
  6
ByLayer
 10
-108.0666666666666629
 20
-85.2000000000000028
 30
0.0
 11
-107.0
 21
-86.7999999999999972
 31
0.0
  0
LINE
  5
24D
100
AcDbEntity
100
AcDbLine
  8
text
 62
256
370
-1
  6
ByLayer
 10
-108.0666666666666629
 20
-86.7999999999999972
 30
0.0
 11
-107.0
 21
-85.2000000000000028
 31
0.0
  0
LINE
  5
24E
100
AcDbEntity
100
AcDbLine
  8
text
 62
256
370
-1
  6
ByLayer
 10
-104.7333333333333343
 20
-85.7333333333333343
 30
0.0
 11
-105.0
 21
-85.7333333333333343
 31
0.0
  0
ARC
  5
24F
100
AcDbEntity
  8
text
 62
256
370
-1
  6
ByLayer
100
AcDbCircle
 10
-105.0
 20
-86.0
 30
0.0
 40
0.2666666666666667
100
AcDbArc
 50
90.0
 51
180.0
  0
LINE
  5
250
100
AcDbEntity
100
AcDbLine
  8
text
 62
256
370
-1
  6
ByLayer
 10
-105.2666666666666657
 20
-86.0
 30
0.0
 11
-105.2666666666666657
 21
-86.5333333333333314
 31
0.0
  0
ARC
  5
251
100
AcDbEntity
  8
text
 62
256
370
-1
  6
ByLayer
100
AcDbCircle
 10
-105.0
 20
-86.5333333333333314
 30
0.0
 40
0.2666666666666667
100
AcDbArc
 50
180.0
 51
270.0
  0
LINE
  5
252
100
AcDbEntity
100
AcDbLine
  8
text
 62
256
370
-1
  6
ByLayer
 10
-105.0
 20
-86.7999999999999972
 30
0.0
 11
-104.7333333333333343
 21
-86.7999999999999972
 31
0.0
  0
LINE
  5
253
100
AcDbEntity
100
AcDbLine
  8
text
 62
256
370
-1
  6
ByLayer
 10
-104.2000000000000028
 20
-85.2000000000000028
 30
0.0
 11
-104.2000000000000028
 21
-86.62222222222222
 31
0.0
  0
ARC
  5
254
100
AcDbEntity
  8
text
 62
256
370
-1
  6
ByLayer
100
AcDbCircle
 10
-104.0222222222222257
 20
-86.62222222222222
 30
0.0
 40
0.1777777777777778
100
AcDbArc
 50
180.0
 51
270.0
  0
LINE
  5
255
100
AcDbEntity
100
AcDbLine
  8
text
 62
256
370
-1
  6
ByLayer
 10
-103.4000000000000057
 20
-85.7333333333333343
 30
0.0
 11
-103.0444444444444514
 21
-85.7333333333333343
 31
0.0
  0
ARC
  5
256
100
AcDbEntity
  8
text
 62
256
370
-1
  6
ByLayer
100
AcDbCircle
 10
-103.0444444444444514
 20
-86.0
 30
0.0
 40
0.2666666666666667
100
AcDbArc
 50
0.0
 51
90.0
  0
LINE
  5
257
100
AcDbEntity
100
AcDbLine
  8
text
 62
256
370
-1
  6
ByLayer
 10
-102.7777777777777857
 20
-86.0
 30
0.0
 11
-102.7777777777777857
 21
-86.7999999999999972
 31
0.0
  0
LINE
  5
258
100
AcDbEntity
100
AcDbLine
  8
text
 62
256
370
-1
  6
ByLayer
 10
-102.7777777777777857
 20
-86.7999999999999972
 30
0.0
 11
-103.2222222222222285
 21
-86.7999999999999972
 31
0.0
  0
ARC
  5
259
100
AcDbEntity
  8
text
 62
256
370
-1
  6
ByLayer
100
AcDbCircle
 10
-103.2222222222222285
 20
-86.5333333333333314
 30
0.0
 40
0.2666666666666667
100
AcDbArc
 50
90.0
 51
270.0
  0
LINE
  5
25A
100
AcDbEntity
100
AcDbLine
  8
text
 62
256
370
-1
  6
ByLayer
 10
-103.2222222222222285
 20
-86.2666666666666657
 30
0.0
 11
-102.7777777777777857
 21
-86.2666666666666657
 31
0.0
  0
LINE
  5
25B
100
AcDbEntity
100
AcDbLine
  8
text
 62
256
370
-1
  6
ByLayer
 10
-102.24444444444444
 20
-86.7999999999999972
 30
0.0
 11
-102.24444444444444
 21
-85.7333333333333343
 31
0.0
  0
LINE
  5
25C
100
AcDbEntity
100
AcDbLine
  8
text
 62
256
370
-1
  6
ByLayer
 10
-102.24444444444444
 20
-85.7333333333333343
 30
0.0
 11
-101.4444444444444429
 21
-85.7333333333333343
 31
0.0
  0
ARC
  5
25D
100
AcDbEntity
  8
text
 62
256
370
-1
  6
ByLayer
100
AcDbCircle
 10
-101.4444444444444429
 20
-86.0
 30
0.0
 40
0.2666666666666667
100
AcDbArc
 50
0.0
 51
90.0
  0
LINE
  5
25E
100
AcDbEntity
100
AcDbLine
  8
text
 62
256
370
-1
  6
ByLayer
 10
-101.1777777777777771
 20
-86.0
 30
0.0
 11
-101.1777777777777771
 21
-86.7999999999999972
 31
0.0
  0
LINE
  5
25F
100
AcDbEntity
100
AcDbLine
  8
text
 62
256
370
-1
  6
ByLayer
 10
-101.7111111111111086
 20
-85.7333333333333343
 30
0.0
 11
-101.7111111111111086
 21
-86.7999999999999972
 31
0.0
  0
LINE
  5
260
100
AcDbEntity
100
AcDbLine
  8
text
 62
256
370
-1
  6
ByLayer
 10
-100.6444444444444457
 20
-86.7999999999999972
 30
0.0
 11
-100.2000000000000028
 21
-86.7999999999999972
 31
0.0
  0
ARC
  5
261
100
AcDbEntity
  8
text
 62
256
370
-1
  6
ByLayer
100
AcDbCircle
 10
-100.2000000000000028
 20
-86.5333333333333314
 30
0.0
 40
0.2666666666666667
100
AcDbArc
 50
270.0
 51
0.0
  0
LINE
  5
262
100
AcDbEntity
100
AcDbLine
  8
text
 62
256
370
-1
  6
ByLayer
 10
-99.9333333333333371
 20
-86.5333333333333314
 30
0.0
 11
-99.9333333333333371
 21
-86.0
 31
0.0
  0
ARC
  5
263
100
AcDbEntity
  8
text
 62
256
370
-1
  6
ByLayer
100
AcDbCircle
 10
-100.2000000000000028
 20
-86.0
 30
0.0
 40
0.2666666666666667
100
AcDbArc
 50
0.0
 51
90.0
  0
LINE
  5
264
100
AcDbEntity
100
AcDbLine
  8
text
 62
256
370
-1
  6
ByLayer
 10
-100.2000000000000028
 20
-85.7333333333333343
 30
0.0
 11
-100.6444444444444457
 21
-85.7333333333333343
 31
0.0
  0
LINE
  5
265
100
AcDbEntity
100
AcDbLine
  8
text
 62
256
370
-1
  6
ByLayer
 10
-100.6444444444444457
 20
-85.7333333333333343
 30
0.0
 11
-100.6444444444444457
 21
-87.3333333333333286
 31
0.0
  0
CIRCLE
  5
266
100
AcDbEntity
100
AcDbCircle
  8
side
 62
256
370
-1
  6
ByLayer
 10
-154.9868037737462885
 20
54.2579410293828133
 30
0.0
 40
2.0
  0
CIRCLE
  5
267
100
AcDbEntity
100
AcDbCircle
  8
side
 62
256
370
-1
  6
ByLayer
 10
-154.9868037737462885
 20
40.6934557720371117
 30
0.0
 40
2.0
  0
CIRCLE
  5
268
100
AcDbEntity
100
AcDbCircle
  8
rod-support
 62
256
370
-1
  6
ByLayer
 10
-105.4866666666667356
 20
463.370750217917589
 30
0.0
 40
1.5
  0
CIRCLE
  5
269
100
AcDbEntity
100
AcDbCircle
  8
rod-backplate
 62
256
370
-1
  6
ByLayer
 10
4.5133333333332644
 20
463.370750217917589
 30
0.0
 40
1.5
  0
CIRCLE
  5
26A
100
AcDbEntity
100
AcDbCircle
  8
rod-support
 62
256
370
-1
  6
ByLayer
 10
-105.4866666666667356
 20
447.370750217917589
 30
0.0
 40
1.5
  0
CIRCLE
  5
26B
100
AcDbEntity
100
AcDbCircle
  8
rod-backplate
 62
256
370
-1
  6
ByLayer
 10
4.5133333333332644
 20
447.370750217917589
 30
0.0
 40
1.5
  0
CIRCLE
  5
26C
100
AcDbEntity
100
AcDbCircle
  8
rod-support
 62
256
370
-1
  6
ByLayer
 10
-105.4866666666667356
 20
343.370750217917589
 30
0.0
 40
1.5
  0
CIRCLE
  5
26D
100
AcDbEntity
100
AcDbCircle
  8
rod-backplate
 62
256
370
-1
  6
ByLayer
 10
4.5133333333332644
 20
343.370750217917589
 30
0.0
 40
1.5
  0
CIRCLE
  5
26E
100
AcDbEntity
100
AcDbCircle
  8
rod-support
 62
256
370
-1
  6
ByLayer
 10
-105.4866666666667356
 20
327.370750217917589
 30
0.0
 40
1.5
  0
CIRCLE
  5
26F
100
AcDbEntity
100
AcDbCircle
  8
rod-backplate
 62
256
370
-1
  6
ByLayer
 10
4.5133333333332644
 20
327.370750217917589
 30
0.0
 40
1.5
  0
CIRCLE
  5
270
100
AcDbEntity
100
AcDbCircle
  8
cuts
 62
256
370
-1
  6
ByLayer
 10
-251.3333333333333997
 20
184.5000000000000284
 30
0.0
 40
4.6879999999999997
  0
CIRCLE
  5
271
100
AcDbEntity
100
AcDbCircle
  8
cuts
 62
256
370
-1
  6
ByLayer
 10
-148.6666666666666003
 20
184.5000000000000284
 30
0.0
 40
4.6879999999999997
  0
CIRCLE
  5
272
100
AcDbEntity
100
AcDbCircle
  8
cuts
 62
256
370
-1
  6
ByLayer
 10
-148.6666666666664582
 20
69.5000000000000711
 30
0.0
 40
4.6879999999999997
  0
CIRCLE
  5
273
100
AcDbEntity
100
AcDbCircle
  8
cuts
 62
256
370
-1
  6
ByLayer
 10
-251.333333333333627
 20
69.5000000000000853
 30
0.0
 40
4.6879999999999997
  0
CIRCLE
  5
274
100
AcDbEntity
100
AcDbCircle
  8
rod-support
 62
256
370
-1
  6
ByLayer
 10
-110.9866666666667356
 20
475.370750217917589
 30
0.0
 40
3.0230000000000001
  0
CIRCLE
  5
275
100
AcDbEntity
100
AcDbCircle
  8
rod-support
 62
256
370
-1
  6
ByLayer
 10
-110.9866666666667356
 20
435.3707502179175322
 30
0.0
 40
3.0230000000000001
  0
CIRCLE
  5
276
100
AcDbEntity
100
AcDbCircle
  8
rod-support
 62
256
370
-1
  6
ByLayer
 10
-110.9866666666667356
 20
355.370750217917589
 30
0.0
 40
3.0230000000000001
  0
CIRCLE
  5
277
100
AcDbEntity
100
AcDbCircle
  8
rod-support
 62
256
370
-1
  6
ByLayer
 10
-110.9866666666667356
 20
315.3707502179175322
 30
0.0
 40
3.0230000000000001
  0
ENDSEC
  0
SECTION
  2
OBJECTS
  0
DICTIONARY
  5
C
100
AcDbDictionary
280
0
281
1
  3
ACAD_GROUP
350
D
  3
ACAD_LAYOUT
350
1A
  3
ACAD_MLINESTYLE
350
17
  3
ACAD_PLOTSETTINGS
350
19
  3
ACAD_PLOTSTYLENAME
350
E
  3
AcDbVariableDictionary
350
278
  0
DICTIONARY
  5
D
100
AcDbDictionary
280
0
281
1
  0
ACDBDICTIONARYWDFLT
  5
E
100
AcDbDictionary
281
1
  3
Normal
350
F
100
AcDbDictionaryWithDefault
340
F
  0
ACDBPLACEHOLDER
  5
F
  0
DICTIONARY
  5
17
100
AcDbDictionary
280
0
281
1
  3
Standard
350
18
  0
MLINESTYLE
  5
18
100
AcDbMlineStyle
  2
STANDARD
 70
0
  3

 62
256
 51
90.0
 52
90.0
 71
2
 49
0.5
 62
256
  6
BYLAYER
 49
-0.5
 62
256
  6
BYLAYER
  0
DICTIONARY
  5
19
100
AcDbDictionary
280
0
281
1
  0
DICTIONARY
  5
1A
100
AcDbDictionary
281
1
  3
Layout1
350
1E
  3
Layout2
350
26
  3
Model
350
22
  0
LAYOUT
  5
1E
100
AcDbPlotSettings
  1

  2
C:\Program Files\AutoCAD 2002\plotters\DWF ePlot (optimized for plotting).pc3
  4

  6

 40
0.0
 41
0.0
 42
0.0
 43
0.0
 44
0.0
 45
0.0
 46
0.0
 47
0.0
 48
0.0
 49
0.0
140
0.0
141
0.0
142
1.0
143
1.0
 70
688
 72
0
 73
0
 74
5
  7

 75
16
147
1.0
148
0.0
149
0.0
100
AcDbLayout
  1
Layout1
 70
1
 71
1
 10
0.0
 20
0.0
 11
420.0
 21
297.0
 12
0.0
 22
0.0
 32
0.0
 14
100000000000000000000.0
 24
100000000000000000000.0
 34
100000000000000000000.0
 15
-100000000000000000000.0
 25
-100000000000000000000.0
 35
-100000000000000000000.0
146
0.0
 13
0.0
 23
0.0
 33
0.0
 16
1.0
 26
0.0
 36
0.0
 17
0.0
 27
1.0
 37
0.0
 76
0
330
1B
  0
LAYOUT
  5
22
100
AcDbPlotSettings
  1

  2
C:\Program Files\AutoCAD 2002\plotters\DWF ePlot (optimized for plotting).pc3
  4

  6

 40
0.0
 41
0.0
 42
0.0
 43
0.0
 44
0.0
 45
0.0
 46
0.0
 47
0.0
 48
0.0
 49
0.0
140
0.0
141
0.0
142
1.0
143
1.0
 70
1712
 72
0
 73
0
 74
0
  7

 75
0
147
1.0
148
0.0
149
0.0
100
AcDbLayout
  1
Model
 70
1
 71
0
 10
0.0
 20
0.0
 11
12.0
 21
9.0
 12
0.0
 22
0.0
 32
0.0
 14
0.0
 24
0.0
 34
0.0
 15
0.0
 25
0.0
 35
0.0
146
0.0
 13
0.0
 23
0.0
 33
0.0
 16
1.0
 26
0.0
 36
0.0
 17
0.0
 27
1.0
 37
0.0
 76
0
330
1F
  0
LAYOUT
  5
26
100
AcDbPlotSettings
  1

  2
C:\Program Files\AutoCAD 2002\plotters\DWF ePlot (optimized for plotting).pc3
  4

  6

 40
0.0
 41
0.0
 42
0.0
 43
0.0
 44
0.0
 45
0.0
 46
0.0
 47
0.0
 48
0.0
 49
0.0
140
0.0
141
0.0
142
1.0
143
1.0
 70
688
 72
0
 73
0
 74
5
  7

 75
16
147
1.0
148
0.0
149
0.0
100
AcDbLayout
  1
Layout2
 70
1
 71
2
 10
0.0
 20
0.0
 11
12.0
 21
9.0
 12
0.0
 22
0.0
 32
0.0
 14
0.0
 24
0.0
 34
0.0
 15
0.0
 25
0.0
 35
0.0
146
0.0
 13
0.0
 23
0.0
 33
0.0
 16
1.0
 26
0.0
 36
0.0
 17
0.0
 27
1.0
 37
0.0
 76
0
330
23
  0
DICTIONARY
  5
278
100
AcDbDictionary
281
1
  3
DIMASSOC
350
27A
  3
HIDETEXT
350
279
  0
DICTIONARYVAR
  5
279
100
DictionaryVariables
280
0
  1
2
  0
DICTIONARYVAR
  5
27A
100
DictionaryVariables
280
0
  1
1
  0
ENDSEC
  0
EOF
