999
dxflib 2.2.0.0
  0
SECTION
  2
HEADER
  9
$ACADVER
  1
AC1015
  9
$HANDSEED
  5
FFFF
  9
$DIMASZ
 40
2.5
  9
$PLIMMIN
 10
0.0
 20
0.0
  9
$DIMEXE
 40
1.25
  9
$DIMGAP
 40
0.625
  9
$PLIMMAX
 10
210.0
 20
297.0
  9
$INSUNITS
 70
4
  9
$DIMEXO
 40
0.625
  9
$DIMTXT
 40
2.5
  9
$CLAYER
  8
2
  0
ENDSEC
  0
SECTION
  2
TABLES
  0
TABLE
  2
VPORT
  5
8
100
AcDbSymbolTable
 70
1
  0
VPORT
  5
30
100
AcDbSymbolTableRecord
100
AcDbViewportTableRecord
  2
*Active
 70
0
 10
0.0
 20
0.0
 11
1.0
 21
1.0
 12
286.3055555555554861
 22
148.5
 13
0.0
 23
0.0
 14
10.0
 24
10.0
 15
10.0
 25
10.0
 16
0.0
 26
0.0
 36
1.0
 17
0.0
 27
0.0
 37
0.0
 40
297.0
 41
1.92798353909465
 42
50.0
 43
0.0
 44
0.0
 50
0.0
 51
0.0
 71
0
 72
100
 73
1
 74
3
 75
1
 76
1
 77
0
 78
0
281
0
 65
1
110
0.0
120
0.0
130
0.0
111
1.0
121
0.0
131
0.0
112
0.0
122
1.0
132
0.0
 79
0
146
0.0
  0
ENDTAB
  0
TABLE
  2
LTYPE
  5
5
100
AcDbSymbolTable
 70
21
  0
LTYPE
  5
14
100
AcDbSymbolTableRecord
100
AcDbLinetypeTableRecord
  2
ByBlock
 70
0
  3

 72
65
 73
0
 40
0.0
  0
LTYPE
  5
15
100
AcDbSymbolTableRecord
100
AcDbLinetypeTableRecord
  2
ByLayer
 70
0
  3

 72
65
 73
0
 40
0.0
  0
LTYPE
  5
16
100
AcDbSymbolTableRecord
100
AcDbLinetypeTableRecord
  2
CONTINUOUS
 70
0
  3
Solid line
 72
65
 73
0
 40
0.0
  0
LTYPE
  5
31
100
AcDbSymbolTableRecord
100
AcDbLinetypeTableRecord
  2
DOT
 70
0
  3
Dot . . . . . . . . . . . . . . . . . . . . . .
 72
65
 73
2
 40
6.3499999999999996
 49
0.0
 74
0
 49
-6.3499999999999996
 74
0
  0
LTYPE
  5
32
100
AcDbSymbolTableRecord
100
AcDbLinetypeTableRecord
  2
DOT2
 70
0
  3
Dot (.5x) .....................................
 72
65
 73
2
 40
3.1749999999999998
 49
0.0
 74
0
 49
-3.1749999999999998
 74
0
  0
LTYPE
  5
33
100
AcDbSymbolTableRecord
100
AcDbLinetypeTableRecord
  2
DOTX2
 70
0
  3
Dot (2x) .  .  .  .  .  .  .  .  .  .  .  .  .
 72
65
 73
2
 40
12.6999999999999993
 49
0.0
 74
0
 49
-12.6999999999999993
 74
0
  0
LTYPE
  5
34
100
AcDbSymbolTableRecord
100
AcDbLinetypeTableRecord
  2
DASHED
 70
0
  3
Dashed __ __ __ __ __ __ __ __ __ __ __ __ __ _
 72
65
 73
2
 40
19.0500000000000007
 49
12.6999999999999993
 74
0
 49
-6.3499999999999996
 74
0
  0
LTYPE
  5
35
100
AcDbSymbolTableRecord
100
AcDbLinetypeTableRecord
  2
DASHED2
 70
0
  3
Dashed (.5x) _ _ _ _ _ _ _ _ _ _ _ _ _ _ _ _ _
 72
65
 73
2
 40
9.5250000000000004
 49
6.3499999999999996
 74
0
 49
-3.1749999999999998
 74
0
  0
LTYPE
  5
36
100
AcDbSymbolTableRecord
100
AcDbLinetypeTableRecord
  2
DASHEDX2
 70
0
  3
Dashed (2x) ____  ____  ____  ____  ____  ___
 72
65
 73
2
 40
38.1000000000000014
 49
25.3999999999999986
 74
0
 49
-12.6999999999999993
 74
0
  0
LTYPE
  5
37
100
AcDbSymbolTableRecord
100
AcDbLinetypeTableRecord
  2
DASHDOT
 70
0
  3
Dash dot __ . __ . __ . __ . __ . __ . __ . __
 72
65
 73
4
 40
25.3999999999999986
 49
12.6999999999999993
 74
0
 49
-6.3499999999999996
 74
0
 49
0.0
 74
0
 49
-6.3499999999999996
 74
0
  0
LTYPE
  5
38
100
AcDbSymbolTableRecord
100
AcDbLinetypeTableRecord
  2
DASHDOT2
 70
0
  3
Dash dot (.5x) _._._._._._._._._._._._._._._.
 72
65
 73
4
 40
12.6999999999999993
 49
6.3499999999999996
 74
0
 49
-3.1749999999999998
 74
0
 49
0.0
 74
0
 49
-3.1749999999999998
 74
0
  0
LTYPE
  5
39
100
AcDbSymbolTableRecord
100
AcDbLinetypeTableRecord
  2
DASHDOTX2
 70
0
  3
Dash dot (2x) ____  .  ____  .  ____  .  ___
 72
65
 73
4
 40
50.7999999999999972
 49
25.3999999999999986
 74
0
 49
-12.6999999999999993
 74
0
 49
0.0
 74
0
 49
-12.6999999999999993
 74
0
  0
LTYPE
  5
3A
100
AcDbSymbolTableRecord
100
AcDbLinetypeTableRecord
  2
DIVIDE
 70
0
  3
Divide ____ . . ____ . . ____ . . ____ . . ____
 72
65
 73
6
 40
31.75
 49
12.6999999999999993
 74
0
 49
-6.3499999999999996
 74
0
 49
0.0
 74
0
 49
-6.3499999999999996
 74
0
 49
0.0
 74
0
 49
-6.3499999999999996
 74
0
  0
LTYPE
  5
3B
100
AcDbSymbolTableRecord
100
AcDbLinetypeTableRecord
  2
DIVIDE2
 70
0
  3
Divide (.5x) __..__..__..__..__..__..__..__.._
 72
65
 73
6
 40
15.875
 49
6.3499999999999996
 74
0
 49
-3.1749999999999998
 74
0
 49
0.0
 74
0
 49
-3.1749999999999998
 74
0
 49
0.0
 74
0
 49
-3.1749999999999998
 74
0
  0
LTYPE
  5
3C
100
AcDbSymbolTableRecord
100
AcDbLinetypeTableRecord
  2
DIVIDEX2
 70
0
  3
Divide (2x) ________  .  .  ________  .  .  _
 72
65
 73
6
 40
63.5
 49
25.3999999999999986
 74
0
 49
-12.6999999999999993
 74
0
 49
0.0
 74
0
 49
-12.6999999999999993
 74
0
 49
0.0
 74
0
 49
-12.6999999999999993
 74
0
  0
LTYPE
  5
3D
100
AcDbSymbolTableRecord
100
AcDbLinetypeTableRecord
  2
CENTER
 70
0
  3
Center ____ _ ____ _ ____ _ ____ _ ____ _ ____
 72
65
 73
4
 40
50.7999999999999972
 49
31.75
 74
0
 49
-6.3499999999999996
 74
0
 49
6.3499999999999996
 74
0
 49
-6.3499999999999996
 74
0
  0
LTYPE
  5
3E
100
AcDbSymbolTableRecord
100
AcDbLinetypeTableRecord
  2
CENTER2
 70
0
  3
Center (.5x) ___ _ ___ _ ___ _ ___ _ ___ _ ___
 72
65
 73
4
 40
28.5749999999999993
 49
19.0500000000000007
 74
0
 49
-3.1749999999999998
 74
0
 49
3.1749999999999998
 74
0
 49
-3.1749999999999998
 74
0
  0
LTYPE
  5
3F
100
AcDbSymbolTableRecord
100
AcDbLinetypeTableRecord
  2
CENTERX2
 70
0
  3
Center (2x) ________  __  ________  __  _____
 72
65
 73
4
 40
101.5999999999999943
 49
63.5
 74
0
 49
-12.6999999999999993
 74
0
 49
12.6999999999999993
 74
0
 49
-12.6999999999999993
 74
0
  0
LTYPE
  5
40
100
AcDbSymbolTableRecord
100
AcDbLinetypeTableRecord
  2
BORDER
 70
0
  3
Border __ __ . __ __ . __ __ . __ __ . __ __ .
 72
65
 73
6
 40
44.4500000000000028
 49
12.6999999999999993
 74
0
 49
-6.3499999999999996
 74
0
 49
12.6999999999999993
 74
0
 49
-6.3499999999999996
 74
0
 49
0.0
 74
0
 49
-6.3499999999999996
 74
0
  0
LTYPE
  5
41
100
AcDbSymbolTableRecord
100
AcDbLinetypeTableRecord
  2
BORDER2
 70
0
  3
Border (.5x) __.__.__.__.__.__.__.__.__.__.__.
 72
65
 73
6
 40
22.2250000000000014
 49
6.3499999999999996
 74
0
 49
-3.1749999999999998
 74
0
 49
6.3499999999999996
 74
0
 49
-3.1749999999999998
 74
0
 49
0.0
 74
0
 49
-3.1749999999999998
 74
0
  0
LTYPE
  5
42
100
AcDbSymbolTableRecord
100
AcDbLinetypeTableRecord
  2
BORDERX2
 70
0
  3
Border (2x) ____  ____  .  ____  ____  .  ___
 72
65
 73
6
 40
88.9000000000000057
 49
25.3999999999999986
 74
0
 49
-12.6999999999999993
 74
0
 49
25.3999999999999986
 74
0
 49
-12.6999999999999993
 74
0
 49
0.0
 74
0
 49
-12.6999999999999993
 74
0
  0
ENDTAB
  0
TABLE
  2
LAYER
  5
2
100
AcDbSymbolTable
 70
2
  0
LAYER
  5
10
100
AcDbSymbolTableRecord
100
AcDbLayerTableRecord
  2
0
 70
0
 62
7
420
0
  6
CONTINUOUS
370
0
390
F
  0
LAYER
  5
43
100
AcDbSymbolTableRecord
100
AcDbLayerTableRecord
  2
2
 70
0
 62
4
420
65535
  6
CONTINUOUS
370
0
390
F
  0
ENDTAB
  0
TABLE
  2
STYLE
  5
3
100
AcDbSymbolTable
 70
1
  0
STYLE
  5
11
100
AcDbSymbolTableRecord
100
AcDbTextStyleTableRecord
  2
Standard
 70
0
 40
0.0
 41
0.75
 50
0.0
 71
0
 42
2.5
  3
txt
  4

  0
ENDTAB
  0
TABLE
  2
VIEW
  5
6
100
AcDbSymbolTable
 70
0
  0
ENDTAB
  0
TABLE
  2
UCS
  5
7
100
AcDbSymbolTable
 70
0
  0
ENDTAB
  0
TABLE
  2
APPID
  5
9
100
AcDbSymbolTable
 70
1
  0
APPID
  5
12
100
AcDbSymbolTableRecord
100
AcDbRegAppTableRecord
  2
ACAD
 70
0
  0
ENDTAB
  0
TABLE
  2
DIMSTYLE
  5
A
100
AcDbSymbolTable
 70
1
100
AcDbDimStyleTable
 71
0
  0
DIMSTYLE
105
27
100
AcDbSymbolTableRecord
100
AcDbDimStyleTableRecord
  2
Standard
 41
2.5
 42
0.625
 43
3.75
 44
1.25
 70
0
 73
0
 74
0
 77
1
 78
8
140
2.5
141
2.5
143
0.03937007874016
147
0.625
171
3
172
1
271
2
272
2
274
3
278
44
283
0
284
8
340
11
  0
ENDTAB
  0
TABLE
  2
BLOCK_RECORD
  5
1
100
AcDbSymbolTable
 70
1
  0
BLOCK_RECORD
  5
1F
100
AcDbSymbolTableRecord
100
AcDbBlockTableRecord
  2
*Model_Space
340
22
  0
BLOCK_RECORD
  5
1B
100
AcDbSymbolTableRecord
100
AcDbBlockTableRecord
  2
*Paper_Space
340
1E
  0
BLOCK_RECORD
  5
23
100
AcDbSymbolTableRecord
100
AcDbBlockTableRecord
  2
*Paper_Space0
340
26
  0
ENDTAB
  0
ENDSEC
  0
SECTION
  2
BLOCKS
  0
BLOCK
  5
20
100
AcDbEntity
  8
0
100
AcDbBlockBegin
  2
*Model_Space
 70
0
 10
0.0
 20
0.0
 30
0.0
  3
*Model_Space
  1

  0
ENDBLK
  5
21
100
AcDbEntity
  8
0
100
AcDbBlockEnd
  0
BLOCK
  5
1C
100
AcDbEntity
 67
1
  8
0
100
AcDbBlockBegin
  2
*Paper_Space
 70
0
 10
0.0
 20
0.0
 30
0.0
  3
*Paper_Space
  1

  0
ENDBLK
  5
1D
100
AcDbEntity
 67
1
  8
0
100
AcDbBlockEnd
  0
BLOCK
  5
24
100
AcDbEntity
  8
0
100
AcDbBlockBegin
  2
*Paper_Space0
 70
0
 10
0.0
 20
0.0
 30
0.0
  3
*Paper_Space0
  1

  0
ENDBLK
  5
25
100
AcDbEntity
  8
0
100
AcDbBlockEnd
  0
ENDSEC
  0
SECTION
  2
ENTITIES
  0
LINE
  5
44
100
AcDbEntity
100
AcDbLine
  8
0
 62
256
370
-1
  6
ByLayer
 10
0.0
 20
0.0
 30
0.0
 11
0.000000000000004
 21
65.0
 31
0.0
  0
LINE
  5
45
100
AcDbEntity
100
AcDbLine
  8
0
 62
256
370
-1
  6
ByLayer
 10
0.0
 20
0.0
 30
0.0
 11
65.0
 21
0.0
 31
0.0
  0
LINE
  5
46
100
AcDbEntity
100
AcDbLine
  8
0
 62
256
370
-1
  6
ByLayer
 10
0.000000000000004
 20
65.0
 30
0.0
 11
65.0
 21
65.0
 31
0.0
  0
LINE
  5
47
100
AcDbEntity
100
AcDbLine
  8
0
 62
256
370
-1
  6
ByLayer
 10
65.0
 20
0.0
 30
0.0
 11
65.0
 21
65.0
 31
0.0
  0
SPLINE
  5
48
  8
2
 62
256
370
-1
  6
ByLayer
100
AcDbEntity
100
AcDbSpline
 70
8
 71
3
 72
8
 73
4
 74
0
 40
0.0
 40
0.0
 40
0.0
 40
0.0
 40
1.0
 40
1.0
 40
1.0
 40
1.0
 10
1.5657577527109545
 20
54.2558834286747356
 30
0.0
 10
1.1326785297109581
 20
54.5076276540726212
 30
0.0
 10
1.091219129500967
 20
54.8707844255547172
 30
0.0
 10
1.091219129500967
 20
58.4125314445046513
 30
0.0
  0
SPLINE
  5
49
  8
2
 62
256
370
-1
  6
ByLayer
100
AcDbEntity
100
AcDbSpline
 70
8
 71
3
 72
8
 73
4
 74
0
 40
0.0
 40
0.0
 40
0.0
 40
0.0
 40
1.0
 40
1.0
 40
1.0
 40
1.0
 10
1.091219129500967
 20
58.4125314445046513
 30
0.0
 10
1.091219129500967
 20
62.3103722844446963
 30
0.0
 10
1.1332949444809586
 20
62.6321664331947261
 30
0.0
 10
1.7272017281809653
 20
63.2764794784646938
 30
0.0
  0
SPLINE
  5
4A
  8
2
 62
256
370
-1
  6
ByLayer
100
AcDbEntity
100
AcDbSpline
 70
8
 71
3
 72
8
 73
4
 74
0
 40
0.0
 40
0.0
 40
0.0
 40
0.0
 40
1.0
 40
1.0
 40
1.0
 40
1.0
 10
1.7272017281809653
 20
63.2764794784646938
 30
0.0
 10
2.3481040121509658
 20
63.9500781836247256
 30
0.0
 10
2.7228729979009607
 20
64.0260506720846649
 30
0.0
 10
5.4248330730409613
 20
64.0260506720846934
 30
0.0
  0
SPLINE
  5
4B
  8
2
 62
256
370
-1
  6
ByLayer
100
AcDbEntity
100
AcDbSpline
 70
8
 71
3
 72
8
 73
4
 74
0
 40
0.0
 40
0.0
 40
0.0
 40
0.0
 40
1.0
 40
1.0
 40
1.0
 40
1.0
 10
5.4248330730409613
 20
64.0260506720846934
 30
0.0
 10
8.030835026770955
 20
64.0260506720846934
 30
0.0
 10
8.4406945156609758
 20
63.9492638805746481
 30
0.0
 10
9.0593980008409574
 20
63.3451171006046536
 30
0.0
  0
SPLINE
  5
4C
  8
2
 62
256
370
-1
  6
ByLayer
100
AcDbEntity
100
AcDbSpline
 70
8
 71
3
 72
8
 73
4
 74
0
 40
0.0
 40
0.0
 40
0.0
 40
0.0
 40
1.0
 40
1.0
 40
1.0
 40
1.0
 10
9.0593980008409574
 20
63.3451171006046536
 30
0.0
 10
9.7160007027409563
 20
62.7039612400646718
 30
0.0
 10
9.7538471974009546
 20
62.4399613023747122
 30
0.0
 10
9.7538471974009546
 20
58.5009633112946688
 30
0.0
  0
SPLINE
  5
4D
  8
2
 62
256
370
-1
  6
ByLayer
100
AcDbEntity
100
AcDbSpline
 70
8
 71
3
 72
8
 73
4
 74
0
 40
0.0
 40
0.0
 40
0.0
 40
0.0
 40
1.0
 40
1.0
 40
1.0
 40
1.0
 10
9.7538471974009546
 20
58.5009633112946688
 30
0.0
 10
9.7538471974009546
 20
54.8343563709747173
 30
0.0
 10
9.7142587081009601
 20
54.4939018630463465
 30
0.0
 10
9.2596085792509584
 20
54.2505801672148493
 30
0.0
  0
SPLINE
  5
4E
  8
2
 62
256
370
-1
  6
ByLayer
100
AcDbEntity
100
AcDbSpline
 70
8
 71
3
 72
8
 73
4
 74
0
 40
0.0
 40
0.0
 40
0.0
 40
0.0
 40
1.0
 40
1.0
 40
1.0
 40
1.0
 10
9.2596085792509584
 20
54.2505801672148493
 30
0.0
 10
8.8323248106409622
 20
54.0219050930546132
 30
0.0
 10
8.024674490170959
 20
54.2287124289447036
 30
0.0
 10
7.8808014050809625
 20
54.6036392197647444
 30
0.0
  0
SPLINE
  5
4F
  8
2
 62
256
370
-1
  6
ByLayer
100
AcDbEntity
100
AcDbSpline
 70
8
 71
3
 72
8
 73
4
 74
0
 40
0.0
 40
0.0
 40
0.0
 40
0.0
 40
1.0
 40
1.0
 40
1.0
 40
1.0
 10
7.8808014050809625
 20
54.6036392197647444
 30
0.0
 10
7.8459828177709667
 20
54.6943756905752707
 30
0.0
 10
7.8174948498709647
 20
56.3929273531347235
 30
0.0
 10
7.8174948498709647
 20
58.3781996334746509
 30
0.0
  0
LINE
  5
50
100
AcDbEntity
100
AcDbLine
  8
2
 62
256
370
-1
  6
ByLayer
 10
7.8174948498709647
 20
58.3781996334746509
 30
0.0
 11
7.8174948498709647
 21
61.9877851381346829
 31
0.0
  0
LINE
  5
51
100
AcDbEntity
100
AcDbLine
  8
2
 62
256
370
-1
  6
ByLayer
 10
7.8174948498709647
 20
61.9877851381346829
 30
0.0
 11
7.1077739503009774
 21
61.9877851381346829
 31
0.0
  0
LINE
  5
52
100
AcDbEntity
100
AcDbLine
  8
2
 62
256
370
-1
  6
ByLayer
 10
7.1077739503009774
 20
61.9877851381346829
 30
0.0
 11
6.3980537729509663
 21
61.9877851381347114
 31
0.0
  0
LINE
  5
53
100
AcDbEntity
100
AcDbLine
  8
2
 62
256
370
-1
  6
ByLayer
 10
6.3980537729509663
 20
61.9877851381347114
 30
0.0
 11
6.3689024459809573
 21
58.309988121134694
 31
0.0
  0
LINE
  5
54
100
AcDbEntity
100
AcDbLine
  8
2
 62
256
370
-1
  6
ByLayer
 10
6.3689024459809573
 20
58.309988121134694
 30
0.0
 11
6.3397522023409572
 21
54.6321911041353019
 31
0.0
  0
LINE
  5
55
100
AcDbEntity
100
AcDbLine
  8
2
 62
256
370
-1
  6
ByLayer
 10
6.3397522023409572
 20
54.6321911041353019
 30
0.0
 11
6.0538079710609622
 21
54.3863275550843355
 31
0.0
  0
SPLINE
  5
56
  8
2
 62
256
370
-1
  6
ByLayer
100
AcDbEntity
100
AcDbSpline
 70
8
 71
3
 72
8
 73
4
 74
0
 40
0.0
 40
0.0
 40
0.0
 40
0.0
 40
1.0
 40
1.0
 40
1.0
 40
1.0
 10
6.0538079710609622
 20
54.3863275550843355
 30
0.0
 10
5.6757355510309608
 20
54.0612494719950121
 30
0.0
 10
5.1693304147609602
 20
54.0612494719947279
 30
0.0
 10
4.7912576336209582
 20
54.3863275550842502
 30
0.0
  0
LINE
  5
57
100
AcDbEntity
100
AcDbLine
  8
2
 62
256
370
-1
  6
ByLayer
 10
4.7912576336209582
 20
54.3863275550842502
 30
0.0
 11
4.5053134023409527
 21
54.6321911041347335
 31
0.0
  0
LINE
  5
58
100
AcDbEntity
100
AcDbLine
  8
2
 62
256
370
-1
  6
ByLayer
 10
4.5053134023409527
 20
54.6321911041347335
 30
0.0
 11
4.4761631587009632
 21
58.3099881211346656
 31
0.0
  0
LINE
  5
59
100
AcDbEntity
100
AcDbLine
  8
2
 62
256
370
-1
  6
ByLayer
 10
4.4761631587009632
 20
58.3099881211346656
 30
0.0
 11
4.4470118317309648
 21
61.9877851381347114
 31
0.0
  0
LINE
  5
5A
100
AcDbEntity
100
AcDbLine
  8
2
 62
256
370
-1
  6
ByLayer
 10
4.4470118317309648
 20
61.9877851381347114
 30
0.0
 11
3.737292015490965
 21
61.9877851381346829
 31
0.0
  0
LINE
  5
5B
100
AcDbEntity
100
AcDbLine
  8
2
 62
256
370
-1
  6
ByLayer
 10
3.737292015490965
 20
61.9877851381346829
 30
0.0
 11
3.0275711159209564
 21
61.9877851381346829
 31
0.0
  0
LINE
  5
5C
100
AcDbEntity
100
AcDbLine
  8
2
 62
256
370
-1
  6
ByLayer
 10
3.0275711159209564
 20
61.9877851381346829
 30
0.0
 11
3.0275711159209564
 21
58.3781996334747646
 31
0.0
  0
SPLINE
  5
5D
  8
2
 62
256
370
-1
  6
ByLayer
100
AcDbEntity
100
AcDbSpline
 70
8
 71
3
 72
8
 73
4
 74
0
 40
0.0
 40
0.0
 40
0.0
 40
0.0
 40
1.0
 40
1.0
 40
1.0
 40
1.0
 10
3.0275711159209564
 20
58.3781996334747646
 30
0.0
 10
3.0275711159209564
 20
56.3929273531347519
 30
0.0
 10
2.9990835091309549
 20
54.6943756905743896
 30
0.0
 10
2.9642645607109586
 20
54.6036392197648865
 30
0.0
  0
SPLINE
  5
5E
  8
2
 62
256
370
-1
  6
ByLayer
100
AcDbEntity
100
AcDbSpline
 70
8
 71
3
 72
8
 73
4
 74
0
 40
0.0
 40
0.0
 40
0.0
 40
0.0
 40
1.0
 40
1.0
 40
1.0
 40
1.0
 10
2.9642645607109586
 20
54.6036392197648865
 30
0.0
 10
2.8199617547209606
 20
54.2275915435051274
 30
0.0
 10
1.9756204915909628
 20
54.0176356895244965
 30
0.0
 10
1.5657577527109545
 20
54.2558834286747356
 30
0.0
  0
LINE
  5
5F
100
AcDbEntity
100
AcDbLine
  8
2
 62
256
370
-1
  6
ByLayer
 10
1.5657577527109545
 20
54.2558834286747356
 30
0.0
 11
1.5657577527109545
 21
54.2558834286747356
 31
0.0
  0
LINE
  5
60
100
AcDbEntity
100
AcDbLine
  8
2
 62
256
370
-1
  6
ByLayer
 10
10.7651404468309622
 20
54.4383642283027029
 30
0.0
 11
10.4672398634509598
 21
54.7362640894645551
 31
0.0
  0
LINE
  5
61
100
AcDbEntity
100
AcDbLine
  8
2
 62
256
370
-1
  6
ByLayer
 10
10.4672398634509598
 20
54.7362640894645551
 30
0.0
 11
10.4672398634509598
 21
56.4455746633646811
 31
0.0
  0
LINE
  5
62
100
AcDbEntity
100
AcDbLine
  8
2
 62
256
370
-1
  6
ByLayer
 10
10.4672398634509598
 20
56.4455746633646811
 30
0.0
 11
10.4672398634509634
 21
58.1548845150446994
 31
0.0
  0
LINE
  5
63
100
AcDbEntity
100
AcDbLine
  8
2
 62
256
370
-1
  6
ByLayer
 10
10.4672398634509634
 20
58.1548845150446994
 30
0.0
 11
10.7410901597209545
 21
58.4407225799846515
 31
0.0
  0
LINE
  5
64
100
AcDbEntity
100
AcDbLine
  8
2
 62
256
370
-1
  6
ByLayer
 10
10.7410901597209545
 20
58.4407225799846515
 30
0.0
 11
11.0149400948809628
 21
58.7265606449247173
 31
0.0
  0
LINE
  5
65
100
AcDbEntity
100
AcDbLine
  8
2
 62
256
370
-1
  6
ByLayer
 10
11.0149400948809628
 20
58.7265606449247173
 30
0.0
 11
12.7839883738609572
 21
58.7265606449246889
 31
0.0
  0
SPLINE
  5
66
  8
2
 62
256
370
-1
  6
ByLayer
100
AcDbEntity
100
AcDbSpline
 70
8
 71
3
 72
8
 73
4
 74
0
 40
0.0
 40
0.0
 40
0.0
 40
0.0
 40
1.0
 40
1.0
 40
1.0
 40
1.0
 10
12.7839883738609572
 20
58.7265606449246889
 30
0.0
 10
14.5263517071709529
 20
58.7265606449246889
 30
0.0
 10
14.55680844679096
 20
58.7227877676446894
 30
0.0
 10
14.803185855370959
 20
58.4764096368446928
 30
0.0
  0
SPLINE
  5
67
  8
2
 62
256
370
-1
  6
ByLayer
100
AcDbEntity
100
AcDbSpline
 70
8
 71
3
 72
8
 73
4
 74
0
 40
0.0
 40
0.0
 40
0.0
 40
0.0
 40
1.0
 40
1.0
 40
1.0
 40
1.0
 10
14.803185855370959
 20
58.4764096368446928
 30
0.0
 10
15.1448619985009572
 20
58.1347342159346852
 30
0.0
 10
15.1468506312709543
 20
57.5218532683946648
 30
0.0
 10
14.8075639530109591
 20
57.1271094829946549
 30
0.0
  0
SPLINE
  5
68
  8
2
 62
256
370
-1
  6
ByLayer
100
AcDbEntity
100
AcDbSpline
 70
8
 71
3
 72
8
 73
4
 74
0
 40
0.0
 40
0.0
 40
0.0
 40
0.0
 40
1.0
 40
1.0
 40
1.0
 40
1.0
 10
14.8075639530109591
 20
57.1271094829946549
 30
0.0
 10
14.5714554295009577
 20
56.8524084115646815
 30
0.0
 10
14.5193613397909616
 20
56.8397988114746795
 30
0.0
 10
13.4826914462209544
 20
56.8064109419846659
 30
0.0
  0
LINE
  5
69
100
AcDbEntity
100
AcDbLine
  8
2
 62
256
370
-1
  6
ByLayer
 10
13.4826914462209544
 20
56.8064109419846659
 30
0.0
 11
12.4035918498709599
 21
56.7716551878147015
 31
0.0
  0
LINE
  5
6A
100
AcDbEntity
100
AcDbLine
  8
2
 62
256
370
-1
  6
ByLayer
 10
12.4035918498709599
 20
56.7716551878147015
 30
0.0
 11
12.4035918498709599
 21
56.4242359512446967
 31
0.0
  0
LINE
  5
6B
100
AcDbEntity
100
AcDbLine
  8
2
 62
256
370
-1
  6
ByLayer
 10
12.4035918498709599
 20
56.4242359512446967
 30
0.0
 11
12.4035918498709599
 21
56.0768156313447435
 31
0.0
  0
LINE
  5
6C
100
AcDbEntity
100
AcDbLine
  8
2
 62
256
370
-1
  6
ByLayer
 10
12.4035918498709599
 20
56.0768156313447435
 30
0.0
 11
14.0851608702409621
 21
56.076815631344715
 31
0.0
  0
LINE
  5
6D
100
AcDbEntity
100
AcDbLine
  8
2
 62
256
370
-1
  6
ByLayer
 10
14.0851608702409621
 20
56.076815631344715
 30
0.0
 11
15.7667298906109608
 21
56.0768156313446866
 31
0.0
  0
LINE
  5
6E
100
AcDbEntity
100
AcDbLine
  8
2
 62
256
370
-1
  6
ByLayer
 10
15.7667298906109608
 20
56.0768156313446866
 30
0.0
 11
15.7667298906109608
 21
57.7532359453346658
 31
0.0
  0
LINE
  5
6F
100
AcDbEntity
100
AcDbLine
  8
2
 62
256
370
-1
  6
ByLayer
 10
15.7667298906109608
 20
57.7532359453346658
 30
0.0
 11
15.7667298906109608
 21
59.4296573426546502
 31
0.0
  0
LINE
  5
70
100
AcDbEntity
100
AcDbLine
  8
2
 62
256
370
-1
  6
ByLayer
 10
15.7667298906109608
 20
59.4296573426546502
 30
0.0
 11
13.3116495280609648
 21
59.4602830817546817
 31
0.0
  0
SPLINE
  5
71
  8
2
 62
256
370
-1
  6
ByLayer
100
AcDbEntity
100
AcDbSpline
 70
8
 71
3
 72
8
 73
4
 74
0
 40
0.0
 40
0.0
 40
0.0
 40
0.0
 40
1.0
 40
1.0
 40
1.0
 40
1.0
 10
13.3116495280609648
 20
59.4602830817546817
 30
0.0
 10
10.8714768696409578
 20
59.490724654754672
 30
0.0
 10
10.8553868913709586
 20
59.4923716774647175
 30
0.0
 10
10.661904514480959
 20
59.7315048583346595
 30
0.0
  0
SPLINE
  5
72
  8
2
 62
256
370
-1
  6
ByLayer
100
AcDbEntity
100
AcDbSpline
 70
8
 71
3
 72
8
 73
4
 74
0
 40
0.0
 40
0.0
 40
0.0
 40
0.0
 40
1.0
 40
1.0
 40
1.0
 40
1.0
 10
10.661904514480959
 20
59.7315048583346595
 30
0.0
 10
10.443945740680963
 20
60.0008914738947112
 30
0.0
 10
10.4084970164209594
 20
60.5243951686646824
 30
0.0
 10
10.5823732869709559
 20
60.9060126055646549
 30
0.0
  0
SPLINE
  5
73
  8
2
 62
256
370
-1
  6
ByLayer
100
AcDbEntity
100
AcDbSpline
 70
8
 71
3
 72
8
 73
4
 74
0
 40
0.0
 40
0.0
 40
0.0
 40
0.0
 40
1.0
 40
1.0
 40
1.0
 40
1.0
 10
10.5823732869709559
 20
60.9060126055646549
 30
0.0
 10
10.7850166634509677
 20
61.3507661537546767
 30
0.0
 10
11.0734680814609661
 20
61.3920074435247045
 30
0.0
 10
13.7402098205209597
 20
61.3575026608046699
 30
0.0
  0
LINE
  5
74
100
AcDbEntity
100
AcDbLine
  8
2
 62
256
370
-1
  6
ByLayer
 10
13.7402098205209597
 20
61.3575026608046699
 30
0.0
 11
16.2253395906109503
 21
61.325349065294688
 31
0.0
  0
LINE
  5
75
100
AcDbEntity
100
AcDbLine
  8
2
 62
256
370
-1
  6
ByLayer
 10
16.2253395906109503
 20
61.325349065294688
 30
0.0
 11
16.7067187205509526
 21
61.0423785748646708
 31
0.0
  0
SPLINE
  5
76
  8
2
 62
256
370
-1
  6
ByLayer
100
AcDbEntity
100
AcDbSpline
 70
8
 71
3
 72
8
 73
4
 74
0
 40
0.0
 40
0.0
 40
0.0
 40
0.0
 40
1.0
 40
1.0
 40
1.0
 40
1.0
 10
16.7067187205509526
 20
61.0423785748646708
 30
0.0
 10
17.0188759267309599
 20
60.8588826950246755
 30
0.0
 10
17.2875724610809627
 20
60.5901865217846876
 30
0.0
 10
17.4710679798109574
 20
60.2780293156046696
 30
0.0
  0
LINE
  5
77
100
AcDbEntity
100
AcDbLine
  8
2
 62
256
370
-1
  6
ByLayer
 10
17.4710679798109574
 20
60.2780293156046696
 30
0.0
 11
17.7540384702409568
 21
59.7966501856646744
 31
0.0
  0
LINE
  5
78
100
AcDbEntity
100
AcDbLine
  8
2
 62
256
370
-1
  6
ByLayer
 10
17.7540384702409568
 20
59.7966501856646744
 30
0.0
 11
17.7540384702409568
 21
57.7583846517146924
 31
0.0
  0
LINE
  5
79
100
AcDbEntity
100
AcDbLine
  8
2
 62
256
370
-1
  6
ByLayer
 10
17.7540384702409568
 20
57.7583846517146924
 30
0.0
 11
17.7540384702409568
 21
55.7201194788746648
 31
0.0
  0
LINE
  5
7A
100
AcDbEntity
100
AcDbLine
  8
2
 62
256
370
-1
  6
ByLayer
 10
17.7540384702409568
 20
55.7201194788746648
 30
0.0
 11
17.4733837782409616
 21
55.2426912534446615
 31
0.0
  0
SPLINE
  5
7B
  8
2
 62
256
370
-1
  6
ByLayer
100
AcDbEntity
100
AcDbSpline
 70
8
 71
3
 72
8
 73
4
 74
0
 40
0.0
 40
0.0
 40
0.0
 40
0.0
 40
1.0
 40
1.0
 40
1.0
 40
1.0
 10
17.4733837782409616
 20
55.2426912534446615
 30
0.0
 10
16.8812941000609555
 20
54.2354734914746928
 30
0.0
 10
16.538932570150962
 20
54.1404636449246368
 30
0.0
 10
13.5015901380709558
 20
54.1404636449247221
 30
0.0
  0
LINE
  5
7C
100
AcDbEntity
100
AcDbLine
  8
2
 62
256
370
-1
  6
ByLayer
 10
13.5015901380709558
 20
54.1404636449247221
 30
0.0
 11
11.0630403079909563
 21
54.1404636449247789
 31
0.0
  0
LINE
  5
7D
100
AcDbEntity
100
AcDbLine
  8
2
 62
256
370
-1
  6
ByLayer
 10
11.0630403079909563
 20
54.1404636449247789
 30
0.0
 11
10.7651404468309622
 21
54.4383642283027029
 31
0.0
  0
LINE
  5
7E
100
AcDbEntity
100
AcDbLine
  8
2
 62
256
370
-1
  6
ByLayer
 10
10.7651404468309622
 20
54.4383642283027029
 30
0.0
 11
10.7651404468309622
 21
54.4383642283027029
 31
0.0
  0
LINE
  5
7F
100
AcDbEntity
100
AcDbLine
  8
2
 62
256
370
-1
  6
ByLayer
 10
18.8552889151009566
 20
54.3864232492346105
 30
0.0
 11
18.5693446838209582
 21
54.632381770214721
 31
0.0
  0
LINE
  5
80
100
AcDbEntity
100
AcDbLine
  8
2
 62
256
370
-1
  6
ByLayer
 10
18.5693446838209582
 20
54.632381770214721
 30
0.0
 11
18.5693446838209582
 21
59.0637337463546999
 31
0.0
  0
SPLINE
  5
81
  8
2
 62
256
370
-1
  6
ByLayer
100
AcDbEntity
100
AcDbSpline
 70
8
 71
3
 72
8
 73
4
 74
0
 40
0.0
 40
0.0
 40
0.0
 40
0.0
 40
1.0
 40
1.0
 40
1.0
 40
1.0
 10
18.5693446838209582
 20
59.0637337463546999
 30
0.0
 10
18.5693446838209582
 20
63.2638514617646592
 30
0.0
 10
18.5793810140509592
 20
63.5061757717047044
 30
0.0
 10
18.7616845086709603
 20
63.7076173741046716
 30
0.0
  0
SPLINE
  5
82
  8
2
 62
256
370
-1
  6
ByLayer
100
AcDbEntity
100
AcDbSpline
 70
8
 71
3
 72
8
 73
4
 74
0
 40
0.0
 40
0.0
 40
0.0
 40
0.0
 40
1.0
 40
1.0
 40
1.0
 40
1.0
 10
18.7616845086709603
 20
63.7076173741046716
 30
0.0
 10
19.0342218089809663
 20
64.0087690308146762
 30
0.0
 10
19.5841042281409443
 20
64.090186696964679
 30
0.0
 10
20.0014267774009582
 20
63.8911796981846862
 30
0.0
  0
SPLINE
  5
83
  8
2
 62
256
370
-1
  6
ByLayer
100
AcDbEntity
100
AcDbSpline
 70
8
 71
3
 72
8
 73
4
 74
0
 40
0.0
 40
0.0
 40
0.0
 40
0.0
 40
1.0
 40
1.0
 40
1.0
 40
1.0
 10
20.0014267774009582
 20
63.8911796981846862
 30
0.0
 10
20.4884356122409628
 20
63.6589408294346981
 30
0.0
 10
20.5554262116709552
 20
63.2905761295346849
 30
0.0
 10
20.5560845152009577
 20
60.8412608881346841
 30
0.0
  0
LINE
  5
84
100
AcDbEntity
100
AcDbLine
  8
2
 62
256
370
-1
  6
ByLayer
 10
20.5560845152009577
 20
60.8412608881346841
 30
0.0
 11
20.5566532634509542
 21
58.7265606449246889
 31
0.0
  0
LINE
  5
85
100
AcDbEntity
100
AcDbLine
  8
2
 62
256
370
-1
  6
ByLayer
 10
20.5566532634509542
 20
58.7265606449246889
 30
0.0
 11
21.2700462906109635
 21
58.7265606449246889
 31
0.0
  0
LINE
  5
86
100
AcDbEntity
100
AcDbLine
  8
2
 62
256
370
-1
  6
ByLayer
 10
21.2700462906109635
 20
58.7265606449246889
 30
0.0
 11
21.983438956660958
 21
58.7265606449246889
 31
0.0
  0
LINE
  5
87
100
AcDbEntity
100
AcDbLine
  8
2
 62
256
370
-1
  6
ByLayer
 10
21.983438956660958
 20
58.7265606449246889
 30
0.0
 11
21.983438956660958
 21
59.7523932662846846
 31
0.0
  0
SPLINE
  5
88
  8
2
 62
256
370
-1
  6
ByLayer
100
AcDbEntity
100
AcDbSpline
 70
8
 71
3
 72
8
 73
4
 74
0
 40
0.0
 40
0.0
 40
0.0
 40
0.0
 40
1.0
 40
1.0
 40
1.0
 40
1.0
 10
21.983438956660958
 20
59.7523932662846846
 30
0.0
 10
21.983438956660958
 20
60.3166012802547016
 30
0.0
 10
22.0275470987209481
 20
60.8606427451646823
 30
0.0
 10
22.0814572106209539
 20
60.9613751018846699
 30
0.0
  0
SPLINE
  5
89
  8
2
 62
256
370
-1
  6
ByLayer
100
AcDbEntity
100
AcDbSpline
 70
8
 71
3
 72
8
 73
4
 74
0
 40
0.0
 40
0.0
 40
0.0
 40
0.0
 40
1.0
 40
1.0
 40
1.0
 40
1.0
 10
22.0814572106209539
 20
60.9613751018846699
 30
0.0
 10
22.3275695644609655
 20
61.4212392980246875
 30
0.0
 10
23.2943278398109577
 20
61.4798922286646814
 30
0.0
 10
23.67649452502096
 20
61.0581468041246751
 30
0.0
  0
SPLINE
  5
8A
  8
2
 62
256
370
-1
  6
ByLayer
100
AcDbEntity
100
AcDbSpline
 70
8
 71
3
 72
8
 73
4
 74
0
 40
0.0
 40
0.0
 40
0.0
 40
0.0
 40
1.0
 40
1.0
 40
1.0
 40
1.0
 10
23.67649452502096
 20
61.0581468041246751
 30
0.0
 10
23.8332260149909558
 20
60.8851834196546804
 30
0.0
 10
23.8752682467409549
 20
60.649710088634663
 30
0.0
 10
23.9035890207109532
 20
59.7862242177446888
 30
0.0
  0
SPLINE
  5
8B
  8
2
 62
256
370
-1
  6
ByLayer
100
AcDbEntity
100
AcDbSpline
 70
8
 71
3
 72
8
 73
4
 74
0
 40
0.0
 40
0.0
 40
0.0
 40
0.0
 40
1.0
 40
1.0
 40
1.0
 40
1.0
 10
23.9035890207109532
 20
59.7862242177446888
 30
0.0
 10
23.9365905025009624
 20
58.7800518692246783
 30
0.0
 10
23.9494510740409545
 20
58.7264476174946708
 30
0.0
 10
24.1583719867609545
 20
58.7243228462546938
 30
0.0
  0
SPLINE
  5
8C
  8
2
 62
256
370
-1
  6
ByLayer
100
AcDbEntity
100
AcDbSpline
 70
8
 71
3
 72
8
 73
4
 74
0
 40
0.0
 40
0.0
 40
0.0
 40
0.0
 40
1.0
 40
1.0
 40
1.0
 40
1.0
 10
24.1583719867609545
 20
58.7243228462546938
 30
0.0
 10
24.6006880424509617
 20
58.7198234156546732
 30
0.0
 10
25.2274565583709602
 20
58.340535860474688
 30
0.0
 10
25.5181844138209577
 20
57.9014362115546533
 30
0.0
  0
SPLINE
  5
8D
  8
2
 62
256
370
-1
  6
ByLayer
100
AcDbEntity
100
AcDbSpline
 70
8
 71
3
 72
8
 73
4
 74
0
 40
0.0
 40
0.0
 40
0.0
 40
0.0
 40
1.0
 40
1.0
 40
1.0
 40
1.0
 10
25.5181844138209577
 20
57.9014362115546533
 30
0.0
 10
25.7906874086809559
 20
57.4898625334946871
 30
0.0
 10
25.8069759974509587
 20
57.3994633394246989
 30
0.0
 10
25.8406137550609607
 20
56.1120624951146567
 30
0.0
  0
LINE
  5
8E
100
AcDbEntity
100
AcDbLine
  8
2
 62
256
370
-1
  6
ByLayer
 10
25.8406137550609607
 20
56.1120624951146567
 30
0.0
 11
25.8760397293909534
 21
54.7561605282446919
 31
0.0
  0
LINE
  5
8F
100
AcDbEntity
100
AcDbLine
  8
2
 62
256
370
-1
  6
ByLayer
 10
25.8760397293909534
 20
54.7561605282446919
 30
0.0
 11
25.5681912877309614
 21
54.4483120865845933
 31
0.0
  0
SPLINE
  5
90
  8
2
 62
256
370
-1
  6
ByLayer
100
AcDbEntity
100
AcDbSpline
 70
8
 71
3
 72
8
 73
4
 74
0
 40
0.0
 40
0.0
 40
0.0
 40
0.0
 40
1.0
 40
1.0
 40
1.0
 40
1.0
 10
25.5681912877309614
 20
54.4483120865845933
 30
0.0
 10
25.2367825852309586
 20
54.1169033840846794
 30
0.0
 10
24.8392188918409538
 20
54.0509574758846725
 30
0.0
 10
24.3944339270809607
 20
54.2536149356547526
 30
0.0
  0
SPLINE
  5
91
  8
2
 62
256
370
-1
  6
ByLayer
100
AcDbEntity
100
AcDbSpline
 70
8
 71
3
 72
8
 73
4
 74
0
 40
0.0
 40
0.0
 40
0.0
 40
0.0
 40
1.0
 40
1.0
 40
1.0
 40
1.0
 10
24.3944339270809607
 20
54.2536149356547526
 30
0.0
 10
24.0224953215109593
 20
54.4230824142146048
 30
0.0
 10
23.9197909430809581
 20
54.7634950334546886
 30
0.0
 10
23.9197909430809581
 20
55.8268274838746663
 30
0.0
  0
LINE
  5
92
100
AcDbEntity
100
AcDbLine
  8
2
 62
256
370
-1
  6
ByLayer
 10
23.9197909430809581
 20
55.8268274838746663
 30
0.0
 11
23.9197909430809581
 21
56.7902086585046959
 31
0.0
  0
LINE
  5
93
100
AcDbEntity
100
AcDbLine
  8
2
 62
256
370
-1
  6
ByLayer
 10
23.9197909430809581
 20
56.7902086585046959
 30
0.0
 11
22.2382222838209564
 21
56.7902086585046675
 31
0.0
  0
LINE
  5
94
100
AcDbEntity
100
AcDbLine
  8
2
 62
256
370
-1
  6
ByLayer
 10
22.2382222838209564
 20
56.7902086585046675
 30
0.0
 11
20.5566532634509578
 21
56.7902086585046959
 31
0.0
  0
LINE
  5
95
100
AcDbEntity
100
AcDbLine
  8
2
 62
256
370
-1
  6
ByLayer
 10
20.5566532634509578
 20
56.7902086585046959
 30
0.0
 11
20.5566532634509578
 21
55.9206723895646576
 31
0.0
  0
SPLINE
  5
96
  8
2
 62
256
370
-1
  6
ByLayer
100
AcDbEntity
100
AcDbSpline
 70
8
 71
3
 72
8
 73
4
 74
0
 40
0.0
 40
0.0
 40
0.0
 40
0.0
 40
1.0
 40
1.0
 40
1.0
 40
1.0
 10
20.5566532634509578
 20
55.9206723895646576
 30
0.0
 10
20.5566532634509578
 20
55.3911789632246609
 30
0.0
 10
20.4987991081309566
 20
54.9126728244447122
 30
0.0
 10
20.4087129964309568
 20
54.6970652378544173
 30
0.0
  0
SPLINE
  5
97
  8
2
 62
256
370
-1
  6
ByLayer
100
AcDbEntity
100
AcDbSpline
 70
8
 71
3
 72
8
 73
4
 74
0
 40
0.0
 40
0.0
 40
0.0
 40
0.0
 40
1.0
 40
1.0
 40
1.0
 40
1.0
 10
20.4087129964309568
 20
54.6970652378544173
 30
0.0
 10
20.1635034175909524
 20
54.1101975713846173
 30
0.0
 10
19.362613076320951
 20
53.9500409530647289
 30
0.0
 10
18.8552889151009566
 20
54.3864232492346105
 30
0.0
  0
LINE
  5
98
100
AcDbEntity
100
AcDbLine
  8
2
 62
256
370
-1
  6
ByLayer
 10
18.8552889151009566
 20
54.3864232492346105
 30
0.0
 11
18.8552889151009566
 21
54.3864232492346105
 31
0.0
  0
SPLINE
  5
99
  8
2
 62
256
370
-1
  6
ByLayer
100
AcDbEntity
100
AcDbSpline
 70
8
 71
3
 72
8
 73
4
 74
0
 40
0.0
 40
0.0
 40
0.0
 40
0.0
 40
1.0
 40
1.0
 40
1.0
 40
1.0
 10
27.9453650566609539
 20
54.3336769948646747
 30
0.0
 10
27.7211558298709519
 20
54.4374827587946584
 30
0.0
 10
27.4140270804409596
 20
54.6543155916147043
 30
0.0
 10
27.2628570455809545
 20
54.8155270122447007
 30
0.0
  0
SPLINE
  5
9A
  8
2
 62
256
370
-1
  6
ByLayer
100
AcDbEntity
100
AcDbSpline
 70
8
 71
3
 72
8
 73
4
 74
0
 40
0.0
 40
0.0
 40
0.0
 40
0.0
 40
1.0
 40
1.0
 40
1.0
 40
1.0
 10
27.2628570455809545
 20
54.8155270122447007
 30
0.0
 10
26.7342208943809538
 20
55.379277499844676
 30
0.0
 10
26.6712505325809595
 20
55.6961851080746726
 30
0.0
 10
26.6736873028609551
 20
57.7805896667246657
 30
0.0
  0
SPLINE
  5
9B
  8
2
 62
256
370
-1
  6
ByLayer
100
AcDbEntity
100
AcDbSpline
 70
8
 71
3
 72
8
 73
4
 74
0
 40
0.0
 40
0.0
 40
0.0
 40
0.0
 40
1.0
 40
1.0
 40
1.0
 40
1.0
 10
26.6736873028609551
 20
57.7805896667246657
 30
0.0
 10
26.6761565730409593
 20
59.8921814750546844
 30
0.0
 10
26.7511609255909626
 20
60.2265335851646739
 30
0.0
 10
27.3479565892909626
 20
60.7863450848846867
 30
0.0
  0
SPLINE
  5
9C
  8
2
 62
256
370
-1
  6
ByLayer
100
AcDbEntity
100
AcDbSpline
 70
8
 71
3
 72
8
 73
4
 74
0
 40
0.0
 40
0.0
 40
0.0
 40
0.0
 40
1.0
 40
1.0
 40
1.0
 40
1.0
 10
27.3479565892909626
 20
60.7863450848846867
 30
0.0
 10
27.8723258647309571
 20
61.2782180714246749
 30
0.0
 10
28.3559962376209533
 20
61.3763056585046627
 30
0.0
 10
30.2570547770809561
 20
61.3763056585046627
 30
0.0
  0
SPLINE
  5
9D
  8
2
 62
256
370
-1
  6
ByLayer
100
AcDbEntity
100
AcDbSpline
 70
8
 71
3
 72
8
 73
4
 74
0
 40
0.0
 40
0.0
 40
0.0
 40
0.0
 40
1.0
 40
1.0
 40
1.0
 40
1.0
 10
30.2570547770809561
 20
61.3763056585046627
 30
0.0
 10
32.3616724679809522
 20
61.3763056585046627
 30
0.0
 10
32.7795872376409605
 20
61.2864141850946851
 30
0.0
 10
33.3563337130309634
 20
60.7096677097046609
 30
0.0
  0
SPLINE
  5
9E
  8
2
 62
256
370
-1
  6
ByLayer
100
AcDbEntity
100
AcDbSpline
 70
8
 71
3
 72
8
 73
4
 74
0
 40
0.0
 40
0.0
 40
0.0
 40
0.0
 40
1.0
 40
1.0
 40
1.0
 40
1.0
 10
33.3563337130309634
 20
60.7096677097046609
 30
0.0
 10
33.8896245721309555
 20
60.1763768506046688
 30
0.0
 10
34.0463806175809509
 20
59.5705707701846734
 30
0.0
 10
33.9947350264909574
 20
58.2424757177546724
 30
0.0
  0
SPLINE
  5
9F
  8
2
 62
256
370
-1
  6
ByLayer
100
AcDbEntity
100
AcDbSpline
 70
8
 71
3
 72
8
 73
4
 74
0
 40
0.0
 40
0.0
 40
0.0
 40
0.0
 40
1.0
 40
1.0
 40
1.0
 40
1.0
 10
33.9947350264909574
 20
58.2424757177546724
 30
0.0
 10
33.961064768980961
 20
57.3766307152346542
 30
0.0
 10
33.9364312892209554
 20
57.2823802830146747
 30
0.0
 10
33.6756697860109568
 20
57.0217209739346629
 30
0.0
  0
LINE
  5
A0
100
AcDbEntity
100
AcDbLine
  8
2
 62
256
370
-1
  6
ByLayer
 10
33.6756697860109568
 20
57.0217209739346629
 30
0.0
 11
33.3930929054809553
 21
56.7392520652946644
 31
0.0
  0
LINE
  5
A1
100
AcDbEntity
100
AcDbLine
  8
2
 62
256
370
-1
  6
ByLayer
 10
33.3930929054809553
 20
56.7392520652946644
 30
0.0
 11
31.6651992498709625
 21
56.7392520652946644
 31
0.0
  0
LINE
  5
A2
100
AcDbEntity
100
AcDbLine
  8
2
 62
256
370
-1
  6
ByLayer
 10
31.6651992498709625
 20
56.7392520652946644
 30
0.0
 11
29.937305955370956
 21
56.7392520652946928
 31
0.0
  0
LINE
  5
A3
100
AcDbEntity
100
AcDbLine
  8
2
 62
256
370
-1
  6
ByLayer
 10
29.937305955370956
 20
56.7392520652946928
 30
0.0
 11
29.667414869140952
 21
57.0091427904146713
 31
0.0
  0
SPLINE
  5
A4
  8
2
 62
256
370
-1
  6
ByLayer
100
AcDbEntity
100
AcDbSpline
 70
8
 71
3
 72
8
 73
4
 74
0
 40
0.0
 40
0.0
 40
0.0
 40
0.0
 40
1.0
 40
1.0
 40
1.0
 40
1.0
 10
29.667414869140952
 20
57.0091427904146713
 30
0.0
 10
29.2790500918909586
 20
57.3975079287747008
 30
0.0
 10
29.2740898849309588
 20
58.0123034815346728
 30
0.0
 10
29.6562359868709606
 20
58.3947666380546764
 30
0.0
  0
SPLINE
  5
A5
  8
2
 62
256
370
-1
  6
ByLayer
100
AcDbEntity
100
AcDbSpline
 70
8
 71
3
 72
8
 73
4
 74
0
 40
0.0
 40
0.0
 40
0.0
 40
0.0
 40
1.0
 40
1.0
 40
1.0
 40
1.0
 10
29.6562359868709606
 20
58.3947666380546764
 30
0.0
 10
29.9210383109809541
 20
58.6597881559346774
 30
0.0
 10
29.9969862439609543
 20
58.677560906804672
 30
0.0
 10
31.0048464206209609
 20
58.7103587225546732
 30
0.0
  0
LINE
  5
A6
100
AcDbEntity
100
AcDbLine
  8
2
 62
256
370
-1
  6
ByLayer
 10
31.0048464206209609
 20
58.7103587225546732
 30
0.0
 11
32.0728523566609596
 21
58.7451141156146832
 31
0.0
  0
LINE
  5
A7
100
AcDbEntity
100
AcDbLine
  8
2
 62
256
370
-1
  6
ByLayer
 10
32.0728523566609596
 20
58.7451141156146832
 30
0.0
 11
32.0728523566609596
 21
59.0925333521846881
 31
0.0
  0
LINE
  5
A8
100
AcDbEntity
100
AcDbLine
  8
2
 62
256
370
-1
  6
ByLayer
 10
32.0728523566609596
 20
59.0925333521846881
 30
0.0
 11
32.0728523566609596
 21
59.4399536720846697
 31
0.0
  0
LINE
  5
A9
100
AcDbEntity
100
AcDbLine
  8
2
 62
256
370
-1
  6
ByLayer
 10
32.0728523566609596
 20
59.4399536720846697
 30
0.0
 11
30.3403267430809578
 21
59.4399536720846697
 31
0.0
  0
LINE
  5
AA
100
AcDbEntity
100
AcDbLine
  8
2
 62
256
370
-1
  6
ByLayer
 10
30.3403267430809578
 20
59.4399536720846697
 30
0.0
 11
28.6078014906109601
 21
59.4399536720846697
 31
0.0
  0
LINE
  5
AB
100
AcDbEntity
100
AcDbLine
  8
2
 62
256
370
-1
  6
ByLayer
 10
28.6078014906109601
 20
59.4399536720846697
 30
0.0
 11
28.6078014906109601
 21
57.7583846517146924
 31
0.0
  0
LINE
  5
AC
100
AcDbEntity
100
AcDbLine
  8
2
 62
256
370
-1
  6
ByLayer
 10
28.6078014906109601
 20
57.7583846517146924
 30
0.0
 11
28.6078014906109601
 21
56.0768156313446866
 31
0.0
  0
LINE
  5
AD
100
AcDbEntity
100
AcDbLine
  8
2
 62
256
370
-1
  6
ByLayer
 10
28.6078014906109601
 20
56.0768156313446866
 30
0.0
 11
30.9970803889609527
 21
56.0768156313446582
 31
0.0
  0
SPLINE
  5
AE
  8
2
 62
256
370
-1
  6
ByLayer
100
AcDbEntity
100
AcDbSpline
 70
8
 71
3
 72
8
 73
4
 74
0
 40
0.0
 40
0.0
 40
0.0
 40
0.0
 40
1.0
 40
1.0
 40
1.0
 40
1.0
 10
30.9970803889609527
 20
56.0768156313446582
 30
0.0
 10
33.3758564029609488
 20
56.0768156313446582
 30
0.0
 10
33.3876163112209525
 20
56.0757344680046685
 30
0.0
 10
33.672303879700948
 20
55.8308563881446673
 30
0.0
  0
SPLINE
  5
AF
  8
2
 62
256
370
-1
  6
ByLayer
100
AcDbEntity
100
AcDbSpline
 70
8
 71
3
 72
8
 73
4
 74
0
 40
0.0
 40
0.0
 40
0.0
 40
0.0
 40
1.0
 40
1.0
 40
1.0
 40
1.0
 10
33.672303879700948
 20
55.8308563881446673
 30
0.0
 10
33.9097402046809577
 20
55.6266219610046733
 30
0.0
 10
33.9582477498709636
 20
55.5041049213146493
 30
0.0
 10
33.9582477498709636
 20
55.1086396381346617
 30
0.0
  0
SPLINE
  5
B0
  8
2
 62
256
370
-1
  6
ByLayer
100
AcDbEntity
100
AcDbSpline
 70
8
 71
3
 72
8
 73
4
 74
0
 40
0.0
 40
0.0
 40
0.0
 40
0.0
 40
1.0
 40
1.0
 40
1.0
 40
1.0
 10
33.9582477498709636
 20
55.1086396381346617
 30
0.0
 10
33.9582477498709636
 20
54.7131743549546741
 30
0.0
 10
33.9097402046809577
 20
54.5906573152646786
 30
0.0
 10
33.672303879700948
 20
54.3864232492346673
 30
0.0
  0
SPLINE
  5
B1
  8
2
 62
256
370
-1
  6
ByLayer
100
AcDbEntity
100
AcDbSpline
 70
8
 71
3
 72
8
 73
4
 74
0
 40
0.0
 40
0.0
 40
0.0
 40
0.0
 40
1.0
 40
1.0
 40
1.0
 40
1.0
 10
33.672303879700948
 20
54.3864232492346673
 30
0.0
 10
33.3865560922609532
 20
54.1406340888446493
 30
0.0
 10
33.384618014890961
 20
54.1404658115846757
 30
0.0
 10
30.8696887253809535
 20
54.1427018047046715
 30
0.0
  0
SPLINE
  5
B2
  8
2
 62
256
370
-1
  6
ByLayer
100
AcDbEntity
100
AcDbSpline
 70
8
 71
3
 72
8
 73
4
 74
0
 40
0.0
 40
0.0
 40
0.0
 40
0.0
 40
1.0
 40
1.0
 40
1.0
 40
1.0
 10
30.8696887253809535
 20
54.1427018047046715
 30
0.0
 10
28.6377414818209566
 20
54.144687187484692
 30
0.0
 10
28.3068982775809523
 20
54.1662927598946453
 30
0.0
 10
27.9453650566609539
 20
54.3336769948646747
 30
0.0
  0
LINE
  5
B3
100
AcDbEntity
100
AcDbLine
  8
2
 62
256
370
-1
  6
ByLayer
 10
27.9453650566609539
 20
54.3336769948646747
 30
0.0
 11
27.9453650566609539
 21
54.3336769948646747
 31
0.0
  0
SPLINE
  5
B4
  8
2
 62
256
370
-1
  6
ByLayer
100
AcDbEntity
100
AcDbSpline
 70
8
 71
3
 72
8
 73
4
 74
0
 40
0.0
 40
0.0
 40
0.0
 40
0.0
 40
1.0
 40
1.0
 40
1.0
 40
1.0
 10
35.2321636634509474
 20
54.2721886285046651
 30
0.0
 10
34.7760947334109574
 20
54.5026024473146151
 30
0.0
 10
34.7033245684309506
 20
54.9773682087146653
 30
0.0
 10
34.744673830090953
 20
57.4526447313446624
 30
0.0
  0
SPLINE
  5
B5
  8
2
 62
256
370
-1
  6
ByLayer
100
AcDbEntity
100
AcDbSpline
 70
8
 71
3
 72
8
 73
4
 74
0
 40
0.0
 40
0.0
 40
0.0
 40
0.0
 40
1.0
 40
1.0
 40
1.0
 40
1.0
 10
34.744673830090953
 20
57.4526447313446624
 30
0.0
 10
34.7738157682009543
 20
59.1971797801946877
 30
0.0
 10
34.8172973844109634
 20
59.7738937556846679
 30
0.0
 10
34.9406092272109561
 20
60.0514331517146616
 30
0.0
  0
SPLINE
  5
B6
  8
2
 62
256
370
-1
  6
ByLayer
100
AcDbEntity
100
AcDbSpline
 70
8
 71
3
 72
8
 73
4
 74
0
 40
0.0
 40
0.0
 40
0.0
 40
0.0
 40
1.0
 40
1.0
 40
1.0
 40
1.0
 10
34.9406092272109561
 20
60.0514331517146616
 30
0.0
 10
35.152376770060954
 20
60.5280589907246735
 30
0.0
 10
35.8396676830909655
 20
61.1335176833246692
 30
0.0
 10
36.3205177868809557
 20
61.2670424391446886
 30
0.0
  0
SPLINE
  5
B7
  8
2
 62
256
370
-1
  6
ByLayer
100
AcDbEntity
100
AcDbSpline
 70
8
 71
3
 72
8
 73
4
 74
0
 40
0.0
 40
0.0
 40
0.0
 40
0.0
 40
1.0
 40
1.0
 40
1.0
 40
1.0
 10
36.3205177868809557
 20
61.2670424391446886
 30
0.0
 10
36.8597817664909613
 20
61.4167875339446994
 30
0.0
 10
39.8712708892309564
 20
61.4094887786246773
 30
0.0
 10
40.1561787348109576
 20
61.2577460233046622
 30
0.0
  0
SPLINE
  5
B8
  8
2
 62
256
370
-1
  6
ByLayer
100
AcDbEntity
100
AcDbSpline
 70
8
 71
3
 72
8
 73
4
 74
0
 40
0.0
 40
0.0
 40
0.0
 40
0.0
 40
1.0
 40
1.0
 40
1.0
 40
1.0
 10
40.1561787348109576
 20
61.2577460233046622
 30
0.0
 10
40.5074279040409593
 20
61.0706686544846775
 30
0.0
 10
40.626837592180955
 20
60.849118641734691
 30
0.0
 10
40.6303259147809541
 20
60.3780192301646821
 30
0.0
  0
SPLINE
  5
B9
  8
2
 62
256
370
-1
  6
ByLayer
100
AcDbEntity
100
AcDbSpline
 70
8
 71
3
 72
8
 73
4
 74
0
 40
0.0
 40
0.0
 40
0.0
 40
0.0
 40
1.0
 40
1.0
 40
1.0
 40
1.0
 10
40.6303259147809541
 20
60.3780192301646821
 30
0.0
 10
40.6327811016709504
 20
60.0463700284046524
 30
0.0
 10
40.5729296469409562
 20
59.8796177359346586
 30
0.0
 10
40.3834155078409509
 20
59.6901046801646658
 30
0.0
  0
SPLINE
  5
BA
  8
2
 62
256
370
-1
  6
ByLayer
100
AcDbEntity
100
AcDbSpline
 70
8
 71
3
 72
8
 73
4
 74
0
 40
0.0
 40
0.0
 40
0.0
 40
0.0
 40
1.0
 40
1.0
 40
1.0
 40
1.0
 10
40.3834155078409509
 20
59.6901046801646658
 30
0.0
 10
40.13804523505096
 20
59.4447333240446767
 30
0.0
 10
40.1011444874809513
 20
59.4399536720846697
 30
0.0
 10
38.4522999775309486
 20
59.4399536720846697
 30
0.0
  0
LINE
  5
BB
100
AcDbEntity
100
AcDbLine
  8
2
 62
256
370
-1
  6
ByLayer
 10
38.4522999775309486
 20
59.4399536720846697
 30
0.0
 11
36.7713343719709584
 21
59.4399536720846697
 31
0.0
  0
LINE
  5
BC
100
AcDbEntity
100
AcDbLine
  8
2
 62
256
370
-1
  6
ByLayer
 10
36.7713343719709584
 20
59.4399536720846697
 30
0.0
 11
36.7406197998109576
 21
57.035997818894657
 31
0.0
  0
LINE
  5
BD
100
AcDbEntity
100
AcDbLine
  8
2
 62
256
370
-1
  6
ByLayer
 10
36.7406197998109576
 20
57.035997818894657
 30
0.0
 11
36.7099059498709579
 21
54.632042326814684
 31
0.0
  0
LINE
  5
BE
100
AcDbEntity
100
AcDbLine
  8
2
 62
256
370
-1
  6
ByLayer
 10
36.7099059498709579
 20
54.632042326814684
 30
0.0
 11
36.4239620797009565
 21
54.386253166424666
 31
0.0
  0
SPLINE
  5
BF
  8
2
 62
256
370
-1
  6
ByLayer
100
AcDbEntity
100
AcDbSpline
 70
8
 71
3
 72
8
 73
4
 74
0
 40
0.0
 40
0.0
 40
0.0
 40
0.0
 40
1.0
 40
1.0
 40
1.0
 40
1.0
 10
36.4239620797009565
 20
54.386253166424666
 30
0.0
 10
36.1056948923209546
 20
54.1126812859646691
 30
0.0
 10
35.6367267519709543
 20
54.0677974796246872
 30
0.0
 10
35.2321636634509474
 20
54.2721886285046651
 30
0.0
  0
LINE
  5
C0
100
AcDbEntity
100
AcDbLine
  8
2
 62
256
370
-1
  6
ByLayer
 10
35.2321636634509474
 20
54.2721886285046651
 30
0.0
 11
35.2321636634509474
 21
54.2721886285046651
 31
0.0
  0
LINE
  5
C1
100
AcDbEntity
100
AcDbLine
  8
2
 62
256
370
-1
  6
ByLayer
 10
41.7307425566509593
 20
54.4378435076846188
 30
0.0
 11
41.3979164974009493
 21
54.7352233704447144
 31
0.0
  0
LINE
  5
C2
100
AcDbEntity
100
AcDbLine
  8
2
 62
256
370
-1
  6
ByLayer
 10
41.3979164974009493
 20
54.7352233704447144
 30
0.0
 11
41.3979164974009493
 21
59.0725805802446757
 31
0.0
  0
LINE
  5
C3
100
AcDbEntity
100
AcDbLine
  8
2
 62
256
370
-1
  6
ByLayer
 10
41.3979164974009493
 20
59.0725805802446757
 30
0.0
 11
41.3979164974009493
 21
63.4099388733746707
 31
0.0
  0
LINE
  5
C4
100
AcDbEntity
100
AcDbLine
  8
2
 62
256
370
-1
  6
ByLayer
 10
41.3979164974009493
 20
63.4099388733746707
 30
0.0
 11
41.6802976563109624
 21
63.6925161150146835
 31
0.0
  0
LINE
  5
C5
100
AcDbEntity
100
AcDbLine
  8
2
 62
256
370
-1
  6
ByLayer
 10
41.6802976563109624
 20
63.6925161150146835
 30
0.0
 11
41.9626788152209613
 21
63.9750940788746902
 31
0.0
  0
LINE
  5
C6
100
AcDbEntity
100
AcDbLine
  8
2
 62
256
370
-1
  6
ByLayer
 10
41.9626788152209613
 20
63.9750940788746902
 30
0.0
 11
44.3507859116209602
 21
64.0057750678047057
 31
0.0
  0
SPLINE
  5
C7
  8
2
 62
256
370
-1
  6
ByLayer
100
AcDbEntity
100
AcDbSpline
 70
8
 71
3
 72
8
 73
4
 74
0
 40
0.0
 40
0.0
 40
0.0
 40
0.0
 40
1.0
 40
1.0
 40
1.0
 40
1.0
 10
44.3507859116209602
 20
64.0057750678047057
 30
0.0
 10
47.0352047074009576
 20
64.0402636005746899
 30
0.0
 10
47.3795097313309554
 20
63.988070566724673
 30
0.0
 10
47.9666218692709592
 20
63.4576498099046944
 30
0.0
  0
SPLINE
  5
C8
  8
2
 62
256
370
-1
  6
ByLayer
100
AcDbEntity
100
AcDbSpline
 70
8
 71
3
 72
8
 73
4
 74
0
 40
0.0
 40
0.0
 40
0.0
 40
0.0
 40
1.0
 40
1.0
 40
1.0
 40
1.0
 10
47.9666218692709592
 20
63.4576498099046944
 30
0.0
 10
48.5973416508109537
 20
62.8878323131946786
 30
0.0
 10
48.6847147430809599
 20
62.6003421700046658
 30
0.0
 10
48.6847147430809599
 20
61.0948641078146863
 30
0.0
  0
SPLINE
  5
C9
  8
2
 62
256
370
-1
  6
ByLayer
100
AcDbEntity
100
AcDbSpline
 70
8
 71
3
 72
8
 73
4
 74
0
 40
0.0
 40
0.0
 40
0.0
 40
0.0
 40
1.0
 40
1.0
 40
1.0
 40
1.0
 10
48.6847147430809599
 20
61.0948641078146863
 30
0.0
 10
48.6847147430809599
 20
59.885833161254709
 30
0.0
 10
48.6649345817209635
 20
59.7449219003846963
 30
0.0
 10
48.4508230738609598
 20
59.4286971511646698
 30
0.0
  0
LINE
  5
CA
100
AcDbEntity
100
AcDbLine
  8
2
 62
256
370
-1
  6
ByLayer
 10
48.4508230738609598
 20
59.4286971511646698
 30
0.0
 11
48.2169310435309555
 21
59.0832571585046935
 31
0.0
  0
LINE
  5
CB
100
AcDbEntity
100
AcDbLine
  8
2
 62
256
370
-1
  6
ByLayer
 10
48.2169310435309555
 20
59.0832571585046935
 30
0.0
 11
48.4578885521209557
 21
58.7265606449246889
 31
0.0
  0
SPLINE
  5
CC
  8
2
 62
256
370
-1
  6
ByLayer
100
AcDbEntity
100
AcDbSpline
 70
8
 71
3
 72
8
 73
4
 74
0
 40
0.0
 40
0.0
 40
0.0
 40
0.0
 40
1.0
 40
1.0
 40
1.0
 40
1.0
 10
48.4578885521209557
 20
58.7265606449246889
 30
0.0
 10
48.6875574010009586
 20
58.3865741354846648
 30
0.0
 10
48.6973207320709633
 20
58.3025954772146804
 30
0.0
 10
48.6663021052909528
 20
56.9339084107946576
 30
0.0
  0
SPLINE
  5
CD
  8
2
 62
256
370
-1
  6
ByLayer
100
AcDbEntity
100
AcDbSpline
 70
8
 71
3
 72
8
 73
4
 74
0
 40
0.0
 40
0.0
 40
0.0
 40
0.0
 40
1.0
 40
1.0
 40
1.0
 40
1.0
 10
48.6663021052909528
 20
56.9339084107946576
 30
0.0
 10
48.6348078966409645
 20
55.5442690199546689
 30
0.0
 10
48.6243465399409587
 20
55.4843868708746868
 30
0.0
 10
48.3419744087809633
 20
55.0773657065846862
 30
0.0
  0
SPLINE
  5
CE
  8
2
 62
256
370
-1
  6
ByLayer
100
AcDbEntity
100
AcDbSpline
 70
8
 71
3
 72
8
 73
4
 74
0
 40
0.0
 40
0.0
 40
0.0
 40
0.0
 40
1.0
 40
1.0
 40
1.0
 40
1.0
 10
48.3419744087809633
 20
55.0773657065846862
 30
0.0
 10
48.1599309133609523
 20
54.8149615139846844
 30
0.0
 10
47.8553508783109649
 20
54.5596859938945045
 30
0.0
 10
47.5321368450409594
 20
54.3986211839247744
 30
0.0
  0
SPLINE
  5
CF
  8
2
 62
256
370
-1
  6
ByLayer
100
AcDbEntity
100
AcDbSpline
 70
8
 71
3
 72
8
 73
4
 74
0
 40
0.0
 40
0.0
 40
0.0
 40
0.0
 40
1.0
 40
1.0
 40
1.0
 40
1.0
 10
47.5321368450409594
 20
54.3986211839247744
 30
0.0
 10
47.0204948915509533
 20
54.1436598295346698
 30
0.0
 10
46.9834432000009627
 20
54.1404636449247221
 30
0.0
 10
44.5388252774809601
 20
54.1404636449247221
 30
0.0
  0
LINE
  5
D0
100
AcDbEntity
100
AcDbLine
  8
2
 62
256
370
-1
  6
ByLayer
 10
44.5388252774809601
 20
54.1404636449247221
 30
0.0
 11
42.0635678936809612
 21
54.1404636449246937
 31
0.0
  0
LINE
  5
D1
100
AcDbEntity
100
AcDbLine
  8
2
 62
256
370
-1
  6
ByLayer
 10
42.0635678936809612
 20
54.1404636449246937
 30
0.0
 11
41.7307425566509593
 21
54.4378435076846188
 31
0.0
  0
LINE
  5
D2
100
AcDbEntity
100
AcDbLine
  8
2
 62
256
370
-1
  6
ByLayer
 10
41.7307425566509593
 20
54.4378435076846188
 30
0.0
 11
41.7307425566509593
 21
54.4378435076846188
 31
0.0
  0
LINE
  5
D3
100
AcDbEntity
100
AcDbLine
  8
2
 62
256
370
-1
  6
ByLayer
 10
46.7483627566609599
 20
57.095948578874669
 30
0.0
 11
46.7483627566609599
 21
58.115081165294697
 31
0.0
  0
LINE
  5
D4
100
AcDbEntity
100
AcDbLine
  8
2
 62
256
370
-1
  6
ByLayer
 10
46.7483627566609599
 20
58.115081165294697
 30
0.0
 11
45.0667940974009582
 21
58.1150811652946686
 31
0.0
  0
LINE
  5
D5
100
AcDbEntity
100
AcDbLine
  8
2
 62
256
370
-1
  6
ByLayer
 10
45.0667940974009582
 20
58.1150811652946686
 30
0.0
 11
43.3852250770309595
 21
58.115081165294697
 31
0.0
  0
LINE
  5
D6
100
AcDbEntity
100
AcDbLine
  8
2
 62
256
370
-1
  6
ByLayer
 10
43.3852250770309595
 20
58.115081165294697
 30
0.0
 11
43.3852250770309595
 21
57.095948578874669
 31
0.0
  0
LINE
  5
D7
100
AcDbEntity
100
AcDbLine
  8
2
 62
256
370
-1
  6
ByLayer
 10
43.3852250770309595
 20
57.095948578874669
 30
0.0
 11
43.3852250770309595
 21
56.0768156313446582
 31
0.0
  0
LINE
  5
D8
100
AcDbEntity
100
AcDbLine
  8
2
 62
256
370
-1
  6
ByLayer
 10
43.3852250770309595
 20
56.0768156313446582
 30
0.0
 11
45.0667940974009582
 21
56.0768156313446582
 31
0.0
  0
LINE
  5
D9
100
AcDbEntity
100
AcDbLine
  8
2
 62
256
370
-1
  6
ByLayer
 10
45.0667940974009582
 20
56.0768156313446582
 30
0.0
 11
46.7483627566609599
 21
56.0768156313446866
 31
0.0
  0
LINE
  5
DA
100
AcDbEntity
100
AcDbLine
  8
2
 62
256
370
-1
  6
ByLayer
 10
46.7483627566609599
 20
56.0768156313446866
 30
0.0
 11
46.7483627566609599
 21
57.095948578874669
 31
0.0
  0
LINE
  5
DB
100
AcDbEntity
100
AcDbLine
  8
2
 62
256
370
-1
  6
ByLayer
 10
46.7483627566609599
 20
57.095948578874669
 30
0.0
 11
46.7483627566609599
 21
57.095948578874669
 31
0.0
  0
LINE
  5
DC
100
AcDbEntity
100
AcDbLine
  8
2
 62
256
370
-1
  6
ByLayer
 10
46.7483627566609599
 20
61.0705657381346896
 30
0.0
 11
46.7483627566609599
 21
62.089698685664672
 31
0.0
  0
LINE
  5
DD
100
AcDbEntity
100
AcDbLine
  8
2
 62
256
370
-1
  6
ByLayer
 10
46.7483627566609599
 20
62.089698685664672
 30
0.0
 11
45.0667940974009582
 21
62.089698685664672
 31
0.0
  0
LINE
  5
DE
100
AcDbEntity
100
AcDbLine
  8
2
 62
256
370
-1
  6
ByLayer
 10
45.0667940974009582
 20
62.089698685664672
 30
0.0
 11
43.3852250770309595
 21
62.089698685664672
 31
0.0
  0
LINE
  5
DF
100
AcDbEntity
100
AcDbLine
  8
2
 62
256
370
-1
  6
ByLayer
 10
43.3852250770309595
 20
62.089698685664672
 30
0.0
 11
43.3852250770309595
 21
61.0705657381346896
 31
0.0
  0
LINE
  5
E0
100
AcDbEntity
100
AcDbLine
  8
2
 62
256
370
-1
  6
ByLayer
 10
43.3852250770309595
 20
61.0705657381346896
 30
0.0
 11
43.3852250770309595
 21
60.0514331517146616
 31
0.0
  0
LINE
  5
E1
100
AcDbEntity
100
AcDbLine
  8
2
 62
256
370
-1
  6
ByLayer
 10
43.3852250770309595
 20
60.0514331517146616
 30
0.0
 11
45.0667940974009582
 21
60.0514331517146616
 31
0.0
  0
LINE
  5
E2
100
AcDbEntity
100
AcDbLine
  8
2
 62
256
370
-1
  6
ByLayer
 10
45.0667940974009582
 20
60.0514331517146616
 30
0.0
 11
46.7483627566609599
 21
60.05143315171469
 31
0.0
  0
LINE
  5
E3
100
AcDbEntity
100
AcDbLine
  8
2
 62
256
370
-1
  6
ByLayer
 10
46.7483627566609599
 20
60.05143315171469
 30
0.0
 11
46.7483627566609599
 21
61.0705657381346896
 31
0.0
  0
LINE
  5
E4
100
AcDbEntity
100
AcDbLine
  8
2
 62
256
370
-1
  6
ByLayer
 10
46.7483627566609599
 20
61.0705657381346896
 30
0.0
 11
46.7483627566609599
 21
61.0705657381346896
 31
0.0
  0
SPLINE
  5
E5
  8
2
 62
256
370
-1
  6
ByLayer
100
AcDbEntity
100
AcDbSpline
 70
8
 71
3
 72
8
 73
4
 74
0
 40
0.0
 40
0.0
 40
0.0
 40
0.0
 40
1.0
 40
1.0
 40
1.0
 40
1.0
 10
50.7730626229309578
 20
54.3266580997945709
 30
0.0
 10
50.2573191820609608
 20
54.5658436416143218
 30
0.0
 10
49.7466153923509538
 20
55.1419693689147152
 30
0.0
 10
49.6080625408909626
 20
55.6408991670747639
 30
0.0
  0
SPLINE
  5
E6
  8
2
 62
256
370
-1
  6
ByLayer
100
AcDbEntity
100
AcDbSpline
 70
8
 71
3
 72
8
 73
4
 74
0
 40
0.0
 40
0.0
 40
0.0
 40
0.0
 40
1.0
 40
1.0
 40
1.0
 40
1.0
 10
49.6080625408909626
 20
55.6408991670747639
 30
0.0
 10
49.4682028323409568
 20
56.1445291729946803
 30
0.0
 10
49.4697884663509626
 20
59.3779395295646566
 30
0.0
 10
49.6101432567109555
 20
59.8834079464946853
 30
0.0
  0
SPLINE
  5
E7
  8
2
 62
256
370
-1
  6
ByLayer
100
AcDbEntity
100
AcDbSpline
 70
8
 71
3
 72
8
 73
4
 74
0
 40
0.0
 40
0.0
 40
0.0
 40
0.0
 40
1.0
 40
1.0
 40
1.0
 40
1.0
 10
49.6101432567109555
 20
59.8834079464946853
 30
0.0
 10
49.7531012890609645
 20
60.3982543901246913
 30
0.0
 10
50.4508586143309614
 20
61.0900006783346612
 30
0.0
 10
50.989587428920963
 20
61.2509687108247078
 30
0.0
  0
SPLINE
  5
E8
  8
2
 62
256
370
-1
  6
ByLayer
100
AcDbEntity
100
AcDbSpline
 70
8
 71
3
 72
8
 73
4
 74
0
 40
0.0
 40
0.0
 40
0.0
 40
0.0
 40
1.0
 40
1.0
 40
1.0
 40
1.0
 10
50.989587428920963
 20
61.2509687108247078
 30
0.0
 10
51.5539554146209511
 20
61.4195984141846907
 30
0.0
 10
54.7838416987009609
 20
61.4195984141846907
 30
0.0
 10
55.3482100455109602
 20
61.2509687108246794
 30
0.0
  0
SPLINE
  5
E9
  8
2
 62
256
370
-1
  6
ByLayer
100
AcDbEntity
100
AcDbSpline
 70
8
 71
3
 72
8
 73
4
 74
0
 40
0.0
 40
0.0
 40
0.0
 40
0.0
 40
1.0
 40
1.0
 40
1.0
 40
1.0
 10
55.3482100455109602
 20
61.2509687108246794
 30
0.0
 10
55.9203205907209551
 20
61.0800264590246798
 30
0.0
 10
56.5608401754409513
 20
60.4217705955447002
 30
0.0
 10
56.7247617266209616
 20
59.836300424774663
 30
0.0
  0
SPLINE
  5
EA
  8
2
 62
256
370
-1
  6
ByLayer
100
AcDbEntity
100
AcDbSpline
 70
8
 71
3
 72
8
 73
4
 74
0
 40
0.0
 40
0.0
 40
0.0
 40
0.0
 40
1.0
 40
1.0
 40
1.0
 40
1.0
 10
56.7247617266209616
 20
59.836300424774663
 30
0.0
 10
56.814891532630952
 20
59.5143878319446742
 30
0.0
 10
56.8441345815409562
 20
58.7980589804847114
 30
0.0
 10
56.8206342649609581
 20
57.4878601785447643
 30
0.0
  0
SPLINE
  5
EB
  8
2
 62
256
370
-1
  6
ByLayer
100
AcDbEntity
100
AcDbSpline
 70
8
 71
3
 72
8
 73
4
 74
0
 40
0.0
 40
0.0
 40
0.0
 40
0.0
 40
1.0
 40
1.0
 40
1.0
 40
1.0
 10
56.8206342649609581
 20
57.4878601785447643
 30
0.0
 10
56.7872424232609632
 20
55.6261716568346571
 30
0.0
 10
56.7833077687009578
 20
55.5973149956247141
 30
0.0
 10
56.5056878451409546
 20
55.1781507853646644
 30
0.0
  0
SPLINE
  5
EC
  8
2
 62
256
370
-1
  6
ByLayer
100
AcDbEntity
100
AcDbSpline
 70
8
 71
3
 72
8
 73
4
 74
0
 40
0.0
 40
0.0
 40
0.0
 40
0.0
 40
1.0
 40
1.0
 40
1.0
 40
1.0
 10
56.5056878451409546
 20
55.1781507853646644
 30
0.0
 10
56.3510659597909651
 20
54.9446938925846382
 30
0.0
 10
56.0335419367909608
 20
54.6271738417943027
 30
0.0
 10
55.8000810718009603
 20
54.4725523175537774
 30
0.0
  0
LINE
  5
ED
100
AcDbEntity
100
AcDbLine
  8
2
 62
256
370
-1
  6
ByLayer
 10
55.8000810718009603
 20
54.4725523175537774
 30
0.0
 11
55.375605294550958
 21
54.191420238134782
 31
0.0
  0
LINE
  5
EE
100
AcDbEntity
100
AcDbLine
  8
2
 62
256
370
-1
  6
ByLayer
 10
55.375605294550958
 20
54.191420238134782
 30
0.0
 11
53.2785969135709578
 21
54.1643084604446585
 31
0.0
  0
SPLINE
  5
EF
  8
2
 62
256
370
-1
  6
ByLayer
100
AcDbEntity
100
AcDbSpline
 70
8
 71
3
 72
8
 73
4
 74
0
 40
0.0
 40
0.0
 40
0.0
 40
0.0
 40
1.0
 40
1.0
 40
1.0
 40
1.0
 10
53.2785969135709578
 20
54.1643084604446585
 30
0.0
 10
51.4133579583409599
 20
54.1401928124245444
 30
0.0
 10
51.1364382270709541
 20
54.1581356461046539
 30
0.0
 10
50.7730626229309578
 20
54.3266580997945709
 30
0.0
  0
LINE
  5
F0
100
AcDbEntity
100
AcDbLine
  8
2
 62
256
370
-1
  6
ByLayer
 10
50.7730626229309578
 20
54.3266580997945709
 30
0.0
 11
50.7730626229309578
 21
54.3266580997945709
 31
0.0
  0
LINE
  5
F1
100
AcDbEntity
100
AcDbLine
  8
2
 62
256
370
-1
  6
ByLayer
 10
54.9014241702409578
 20
57.7608488663546495
 30
0.0
 11
54.9014241702409578
 21
59.4448821013646693
 31
0.0
  0
LINE
  5
F2
100
AcDbEntity
100
AcDbLine
  8
2
 62
256
370
-1
  6
ByLayer
 10
54.9014241702409578
 20
59.4448821013646693
 30
0.0
 11
53.1943770338209561
 21
59.4169394095647192
 31
0.0
  0
LINE
  5
F3
100
AcDbEntity
100
AcDbLine
  8
2
 62
256
370
-1
  6
ByLayer
 10
53.1943770338209561
 20
59.4169394095647192
 30
0.0
 11
51.4873298974009614
 21
59.3889970788746666
 31
0.0
  0
LINE
  5
F4
100
AcDbEntity
100
AcDbLine
  8
2
 62
256
370
-1
  6
ByLayer
 10
51.4873298974009614
 20
59.3889970788746666
 30
0.0
 11
51.4593269002309555
 21
57.7329065356646822
 31
0.0
  0
LINE
  5
F5
100
AcDbEntity
100
AcDbLine
  8
2
 62
256
370
-1
  6
ByLayer
 10
51.4593269002309555
 20
57.7329065356646822
 30
0.0
 11
51.4313242641709607
 21
56.0768156313446582
 31
0.0
  0
LINE
  5
F6
100
AcDbEntity
100
AcDbLine
  8
2
 62
256
370
-1
  6
ByLayer
 10
51.4313242641709607
 20
56.0768156313446582
 30
0.0
 11
53.1663743977609613
 21
56.076815631344715
 31
0.0
  0
LINE
  5
F7
100
AcDbEntity
100
AcDbLine
  8
2
 62
256
370
-1
  6
ByLayer
 10
53.1663743977609613
 20
56.076815631344715
 30
0.0
 11
54.9014241702409578
 21
56.076815631344715
 31
0.0
  0
LINE
  5
F8
100
AcDbEntity
100
AcDbLine
  8
2
 62
256
370
-1
  6
ByLayer
 10
54.9014241702409578
 20
56.076815631344715
 30
0.0
 11
54.9014241702409578
 21
57.7608488663546495
 31
0.0
  0
LINE
  5
F9
100
AcDbEntity
100
AcDbLine
  8
2
 62
256
370
-1
  6
ByLayer
 10
54.9014241702409578
 20
57.7608488663546495
 30
0.0
 11
54.9014241702409578
 21
57.7608488663546495
 31
0.0
  0
SPLINE
  5
FA
  8
2
 62
256
370
-1
  6
ByLayer
100
AcDbEntity
100
AcDbSpline
 70
8
 71
3
 72
8
 73
4
 74
0
 40
0.0
 40
0.0
 40
0.0
 40
0.0
 40
1.0
 40
1.0
 40
1.0
 40
1.0
 10
58.825085097400958
 20
54.2609263298245139
 30
0.0
 10
58.3018377907309642
 20
54.4481091427652188
 30
0.0
 10
57.8416301789809566
 20
54.8633639761645782
 30
0.0
 10
57.61549262479096
 20
55.3523683048645978
 30
0.0
  0
SPLINE
  5
FB
  8
2
 62
256
370
-1
  6
ByLayer
100
AcDbEntity
100
AcDbSpline
 70
8
 71
3
 72
8
 73
4
 74
0
 40
0.0
 40
0.0
 40
0.0
 40
0.0
 40
1.0
 40
1.0
 40
1.0
 40
1.0
 10
57.61549262479096
 20
55.3523683048645978
 30
0.0
 10
57.4093659812509571
 20
55.7981022667046602
 30
0.0
 10
57.3982990430809608
 20
55.9752162495146592
 30
0.0
 10
57.3982990430809608
 20
58.8284738313446667
 30
0.0
  0
SPLINE
  5
FC
  8
2
 62
256
370
-1
  6
ByLayer
100
AcDbEntity
100
AcDbSpline
 70
8
 71
3
 72
8
 73
4
 74
0
 40
0.0
 40
0.0
 40
0.0
 40
0.0
 40
1.0
 40
1.0
 40
1.0
 40
1.0
 10
57.3982990430809608
 20
58.8284738313446667
 30
0.0
 10
57.3982990430809608
 20
60.4820167435046869
 30
0.0
 10
57.4338987113209569
 20
61.9623489108447245
 30
0.0
 10
57.4774092163309618
 20
62.1181017927146968
 30
0.0
  0
SPLINE
  5
FD
  8
2
 62
256
370
-1
  6
ByLayer
100
AcDbEntity
100
AcDbSpline
 70
8
 71
3
 72
8
 73
4
 74
0
 40
0.0
 40
0.0
 40
0.0
 40
0.0
 40
1.0
 40
1.0
 40
1.0
 40
1.0
 10
57.4774092163309618
 20
62.1181017927146968
 30
0.0
 10
57.638632192480955
 20
62.6952173225246554
 30
0.0
 10
58.6951902193009545
 20
62.876808347114661
 30
0.0
 10
59.12547011758096
 20
62.4013553933846481
 30
0.0
  0
SPLINE
  5
FE
  8
2
 62
256
370
-1
  6
ByLayer
100
AcDbEntity
100
AcDbSpline
 70
8
 71
3
 72
8
 73
4
 74
0
 40
0.0
 40
0.0
 40
0.0
 40
0.0
 40
1.0
 40
1.0
 40
1.0
 40
1.0
 10
59.12547011758096
 20
62.4013553933846481
 30
0.0
 10
59.2219944594709631
 20
62.294697221564661
 30
0.0
 10
59.325511696510965
 20
62.0244446642246885
 30
0.0
 10
59.3555098264309606
 20
61.8007937134946417
 30
0.0
  0
LINE
  5
FF
100
AcDbEntity
100
AcDbLine
  8
2
 62
256
370
-1
  6
ByLayer
 10
59.3555098264309606
 20
61.8007937134946417
 30
0.0
 11
59.4100518808309559
 21
61.3941556869146723
 31
0.0
  0
LINE
  5
100
100
AcDbEntity
100
AcDbLine
  8
2
 62
256
370
-1
  6
ByLayer
 10
59.4100518808309559
 20
61.3941556869146723
 30
0.0
 11
60.4769297092309586
 21
61.3597527372147056
 31
0.0
  0
SPLINE
  5
101
  8
2
 62
256
370
-1
  6
ByLayer
100
AcDbEntity
100
AcDbSpline
 70
8
 71
3
 72
8
 73
4
 74
0
 40
0.0
 40
0.0
 40
0.0
 40
0.0
 40
1.0
 40
1.0
 40
1.0
 40
1.0
 10
60.4769297092309586
 20
61.3597527372147056
 30
0.0
 10
61.5003623935309562
 20
61.3267501720946768
 30
0.0
 10
61.5538157012809606
 20
61.3137043511246702
 30
0.0
 10
61.789579725850956
 20
61.0394048340146753
 30
0.0
  0
SPLINE
  5
102
  8
2
 62
256
370
-1
  6
ByLayer
100
AcDbEntity
100
AcDbSpline
 70
8
 71
3
 72
8
 73
4
 74
0
 40
0.0
 40
0.0
 40
0.0
 40
0.0
 40
1.0
 40
1.0
 40
1.0
 40
1.0
 10
61.789579725850956
 20
61.0394048340146753
 30
0.0
 10
61.9447223318209623
 20
60.858904361624667
 30
0.0
 10
62.0353529974009632
 20
60.6261158834546734
 30
0.0
 10
62.0353529974009632
 20
60.4081296652946946
 30
0.0
  0
SPLINE
  5
103
  8
2
 62
256
370
-1
  6
ByLayer
100
AcDbEntity
100
AcDbSpline
 70
8
 71
3
 72
8
 73
4
 74
0
 40
0.0
 40
0.0
 40
0.0
 40
0.0
 40
1.0
 40
1.0
 40
1.0
 40
1.0
 10
62.0353529974009632
 20
60.4081296652946946
 30
0.0
 10
62.0353529974009632
 20
60.1901434471346874
 30
0.0
 10
61.9447223318209623
 20
59.9573549689646654
 30
0.0
 10
61.789579725850956
 20
59.7768544965747139
 30
0.0
  0
SPLINE
  5
104
  8
2
 62
256
370
-1
  6
ByLayer
100
AcDbEntity
100
AcDbSpline
 70
8
 71
3
 72
8
 73
4
 74
0
 40
0.0
 40
0.0
 40
0.0
 40
0.0
 40
1.0
 40
1.0
 40
1.0
 40
1.0
 10
61.789579725850956
 20
59.7768544965747139
 30
0.0
 10
61.5534712023409583
 20
59.5021534251447122
 30
0.0
 10
61.501377112630955
 20
59.4895434639446705
 30
0.0
 10
60.4647072190609549
 20
59.4561555944546853
 30
0.0
  0
LINE
  5
105
100
AcDbEntity
100
AcDbLine
  8
2
 62
256
370
-1
  6
ByLayer
 10
60.4647072190609549
 20
59.4561555944546853
 30
0.0
 11
59.385607983820961
 21
59.421400201394647
 31
0.0
  0
LINE
  5
106
100
AcDbEntity
100
AcDbLine
  8
2
 62
256
370
-1
  6
ByLayer
 10
59.385607983820961
 20
59.421400201394647
 30
0.0
 11
59.385607983820961
 21
57.7543438308146904
 31
0.0
  0
LINE
  5
107
100
AcDbEntity
100
AcDbLine
  8
2
 62
256
370
-1
  6
ByLayer
 10
59.385607983820961
 20
57.7543438308146904
 30
0.0
 11
59.385607983820961
 21
56.0872874602347338
 31
0.0
  0
LINE
  5
108
100
AcDbEntity
100
AcDbLine
  8
2
 62
256
370
-1
  6
ByLayer
 10
59.385607983820961
 20
56.0872874602347338
 30
0.0
 11
61.7725696393009613
 21
56.056572888074669
 31
0.0
  0
SPLINE
  5
109
  8
2
 62
256
370
-1
  6
ByLayer
100
AcDbEntity
100
AcDbSpline
 70
8
 71
3
 72
8
 73
4
 74
0
 40
0.0
 40
0.0
 40
0.0
 40
0.0
 40
1.0
 40
1.0
 40
1.0
 40
1.0
 10
61.7725696393009613
 20
56.056572888074669
 30
0.0
 10
64.1389671636109568
 20
56.02612409287471
 30
0.0
 10
64.161793648930967
 20
56.0237302946847251
 30
0.0
 10
64.4223142917709595
 20
55.7787897427947144
 30
0.0
  0
SPLINE
  5
10A
  8
2
 62
256
370
-1
  6
ByLayer
100
AcDbEntity
100
AcDbSpline
 70
8
 71
3
 72
8
 73
4
 74
0
 40
0.0
 40
0.0
 40
0.0
 40
0.0
 40
1.0
 40
1.0
 40
1.0
 40
1.0
 10
64.4223142917709595
 20
55.7787897427947144
 30
0.0
 10
64.7531379960709614
 20
55.4677483665146838
 30
0.0
 10
64.7869815863809606
 20
54.7985259534450222
 30
0.0
 10
64.4904221655409629
 20
54.4320151922836999
 30
0.0
  0
SPLINE
  5
10B
  8
2
 62
256
370
-1
  6
ByLayer
100
AcDbEntity
100
AcDbSpline
 70
8
 71
3
 72
8
 73
4
 74
0
 40
0.0
 40
0.0
 40
0.0
 40
0.0
 40
1.0
 40
1.0
 40
1.0
 40
1.0
 10
64.4904221655409629
 20
54.4320151922836999
 30
0.0
 10
64.2959257917709692
 20
54.1916426818946491
 30
0.0
 10
64.2933626329909487
 20
54.1914021826342491
 30
0.0
 10
61.7132854883809614
 20
54.1714873272447051
 30
0.0
  0
SPLINE
  5
10C
  8
2
 62
256
370
-1
  6
ByLayer
100
AcDbEntity
100
AcDbSpline
 70
8
 71
3
 72
8
 73
4
 74
0
 40
0.0
 40
0.0
 40
0.0
 40
0.0
 40
1.0
 40
1.0
 40
1.0
 40
1.0
 10
61.7132854883809614
 20
54.1714873272447051
 30
0.0
 10
60.0806349563809619
 20
54.1588845882447174
 30
0.0
 10
59.0183757248809613
 20
54.1917802648049189
 30
0.0
 10
58.825085097400958
 20
54.2609263298245139
 30
0.0
  0
LINE
  5
10D
100
AcDbEntity
100
AcDbLine
  8
2
 62
256
370
-1
  6
ByLayer
 10
58.825085097400958
 20
54.2609263298245139
 30
0.0
 11
58.825085097400958
 21
54.2609263298245139
 31
0.0
  0
SPLINE
  5
10E
  8
2
 62
256
370
-1
  6
ByLayer
100
AcDbEntity
100
AcDbSpline
 70
8
 71
3
 72
8
 73
4
 74
0
 40
0.0
 40
0.0
 40
0.0
 40
0.0
 40
1.0
 40
1.0
 40
1.0
 40
1.0
 10
0.829099284310967
 20
0.4708942180447195
 30
0.0
 10
0.7066465222009555
 20
0.5202315940147457
 30
0.0
 10
0.5575983697009619
 20
0.6518933833447136
 30
0.0
 10
0.4978812478909624
 20
0.7634742066846911
 30
0.0
  0
SPLINE
  5
10F
  8
2
 62
256
370
-1
  6
ByLayer
100
AcDbEntity
100
AcDbSpline
 70
8
 71
3
 72
8
 73
4
 74
0
 40
0.0
 40
0.0
 40
0.0
 40
0.0
 40
1.0
 40
1.0
 40
1.0
 40
1.0
 10
0.4978812478909624
 20
0.7634742066846911
 30
0.0
 10
0.4275222143809572
 20
0.8949413577247185
 30
0.0
 10
0.3893059430809558
 20
2.1182245937647508
 30
0.0
 10
0.3893059430809629
 20
4.2389059019047011
 30
0.0
  0
LINE
  5
110
100
AcDbEntity
100
AcDbLine
  8
2
 62
256
370
-1
  6
ByLayer
 10
0.3893059430809629
 20
4.2389059019047011
 30
0.0
 11
0.3893059430809629
 21
7.5114634713546877
 31
0.0
  0
LINE
  5
111
100
AcDbEntity
100
AcDbLine
  8
2
 62
256
370
-1
  6
ByLayer
 10
0.3893059430809629
 20
7.5114634713546877
 30
0.0
 11
0.6394569511609696
 21
7.7616133961047353
 31
0.0
  0
SPLINE
  5
112
  8
2
 62
256
370
-1
  6
ByLayer
100
AcDbEntity
100
AcDbSpline
 70
8
 71
3
 72
8
 73
4
 74
0
 40
0.0
 40
0.0
 40
0.0
 40
0.0
 40
1.0
 40
1.0
 40
1.0
 40
1.0
 10
0.6394569511609696
 20
7.7616133961047353
 30
0.0
 10
0.9619177089709652
 20
8.0840752372447469
 30
0.0
 10
1.5718227490009689
 20
8.1021199039446969
 30
0.0
 10
1.9552175693209684
 20
7.8005414152147239
 30
0.0
  0
LINE
  5
113
100
AcDbEntity
100
AcDbLine
  8
2
 62
256
370
-1
  6
ByLayer
 10
1.9552175693209684
 20
7.8005414152147239
 30
0.0
 11
2.2237447430809674
 21
7.5893180651347052
 31
0.0
  0
LINE
  5
114
100
AcDbEntity
100
AcDbLine
  8
2
 62
256
370
-1
  6
ByLayer
 10
2.2237447430809674
 20
7.5893180651347052
 30
0.0
 11
2.2237447430809674
 21
4.1900173856646745
 31
0.0
  0
LINE
  5
115
100
AcDbEntity
100
AcDbLine
  8
2
 62
256
370
-1
  6
ByLayer
 10
2.2237447430809674
 20
4.1900173856646745
 30
0.0
 11
2.2237447430809638
 21
0.7907167061947007
 31
0.0
  0
LINE
  5
116
100
AcDbEntity
100
AcDbLine
  8
2
 62
256
370
-1
  6
ByLayer
 10
2.2237447430809638
 20
0.7907167061947007
 30
0.0
 11
1.955217569320947
 21
0.5794929950047276
 31
0.0
  0
SPLINE
  5
117
  8
2
 62
256
370
-1
  6
ByLayer
100
AcDbEntity
100
AcDbSpline
 70
8
 71
3
 72
8
 73
4
 74
0
 40
0.0
 40
0.0
 40
0.0
 40
0.0
 40
1.0
 40
1.0
 40
1.0
 40
1.0
 10
1.955217569320947
 20
0.5794929950047276
 30
0.0
 10
1.6764814547509594
 20
0.3602389196346962
 30
0.0
 10
1.2143509322509587
 20
0.3156732512047142
 30
0.0
 10
0.829099284310967
 20
0.4708942180447195
 30
0.0
  0
LINE
  5
118
100
AcDbEntity
100
AcDbLine
  8
2
 62
256
370
-1
  6
ByLayer
 10
0.829099284310967
 20
0.4708942180447195
 30
0.0
 11
0.829099284310967
 21
0.4708942180447195
 31
0.0
  0
LINE
  5
119
100
AcDbEntity
100
AcDbLine
  8
2
 62
256
370
-1
  6
ByLayer
 10
4.2064213647409616
 20
0.6184210141147162
 30
0.0
 11
3.9562699955509579
 21
0.8685712999746897
 31
0.0
  0
LINE
  5
11A
100
AcDbEntity
100
AcDbLine
  8
2
 62
256
370
-1
  6
ByLayer
 10
3.9562699955509579
 20
0.8685712999746897
 30
0.0
 11
3.9579466292809613
 21
3.8032104369547142
 31
0.0
  0
SPLINE
  5
11B
  8
2
 62
256
370
-1
  6
ByLayer
100
AcDbEntity
100
AcDbSpline
 70
8
 71
3
 72
8
 73
4
 74
0
 40
0.0
 40
0.0
 40
0.0
 40
0.0
 40
1.0
 40
1.0
 40
1.0
 40
1.0
 10
3.9579466292809613
 20
3.8032104369547142
 30
0.0
 10
3.9595741520509584
 20
6.6512297571246961
 30
0.0
 10
3.9663420756709691
 20
6.7496557042746588
 30
0.0
 10
4.1872514792809596
 20
7.1378565375847529
 30
0.0
  0
SPLINE
  5
11C
  8
2
 62
256
370
-1
  6
ByLayer
100
AcDbEntity
100
AcDbSpline
 70
8
 71
3
 72
8
 73
4
 74
0
 40
0.0
 40
0.0
 40
0.0
 40
0.0
 40
1.0
 40
1.0
 40
1.0
 40
1.0
 10
4.1872514792809596
 20
7.1378565375847529
 30
0.0
 10
4.3291586815309735
 20
7.3872261036247835
 30
0.0
 10
4.584027230650964
 20
7.6270963100047311
 30
0.0
 10
4.864040230180958
 20
7.7748144943746809
 30
0.0
  0
SPLINE
  5
11D
  8
2
 62
256
370
-1
  6
ByLayer
100
AcDbEntity
100
AcDbSpline
 70
8
 71
3
 72
8
 73
4
 74
0
 40
0.0
 40
0.0
 40
0.0
 40
0.0
 40
1.0
 40
1.0
 40
1.0
 40
1.0
 10
4.864040230180958
 20
7.7748144943746809
 30
0.0
 10
5.2734024706009599
 20
7.9907694687847197
 30
0.0
 10
5.4421307569909629
 20
8.0117647652946573
 30
0.0
 10
6.7682797876309664
 20
8.0117647652947142
 30
0.0
  0
SPLINE
  5
11E
  8
2
 62
256
370
-1
  6
ByLayer
100
AcDbEntity
100
AcDbSpline
 70
8
 71
3
 72
8
 73
4
 74
0
 40
0.0
 40
0.0
 40
0.0
 40
0.0
 40
1.0
 40
1.0
 40
1.0
 40
1.0
 10
6.7682797876309664
 20
8.0117647652947142
 30
0.0
 10
8.32914237385096
 20
8.0117647652947142
 30
0.0
 10
8.6342312128909597
 20
7.9472994080947217
 30
0.0
 10
9.08996358841096
 20
7.5211928580847029
 30
0.0
  0
SPLINE
  5
11F
  8
2
 62
256
370
-1
  6
ByLayer
100
AcDbEntity
100
AcDbSpline
 70
8
 71
3
 72
8
 73
4
 74
0
 40
0.0
 40
0.0
 40
0.0
 40
0.0
 40
1.0
 40
1.0
 40
1.0
 40
1.0
 10
9.08996358841096
 20
7.5211928580847029
 30
0.0
 10
9.6380877629809589
 20
7.0087015738747596
 30
0.0
 10
9.6634134906109637
 20
6.8412703946046918
 30
0.0
 10
9.6634134906109637
 20
3.7300481065146869
 30
0.0
  0
LINE
  5
120
100
AcDbEntity
100
AcDbLine
  8
2
 62
256
370
-1
  6
ByLayer
 10
9.6634134906109637
 20
3.7300481065146869
 30
0.0
 11
9.6634134906109637
 21
0.8685712999746897
 31
0.0
  0
LINE
  5
121
100
AcDbEntity
100
AcDbLine
  8
2
 62
256
370
-1
  6
ByLayer
 10
9.6634134906109637
 20
0.8685712999746897
 30
0.0
 11
9.4132621214209529
 21
0.6184210141146878
 31
0.0
  0
SPLINE
  5
122
  8
2
 62
256
370
-1
  6
ByLayer
100
AcDbEntity
100
AcDbSpline
 70
8
 71
3
 72
8
 73
4
 74
0
 40
0.0
 40
0.0
 40
0.0
 40
0.0
 40
1.0
 40
1.0
 40
1.0
 40
1.0
 10
9.4132621214209529
 20
0.6184210141146878
 30
0.0
 10
9.2555787454909648
 20
0.4607365548546909
 30
0.0
 10
9.0466719160609692
 20
0.3682696449247089
 30
0.0
 10
8.8481072770309623
 20
0.3682696449246805
 30
0.0
  0
SPLINE
  5
123
  8
2
 62
256
370
-1
  6
ByLayer
100
AcDbEntity
100
AcDbSpline
 70
8
 71
3
 72
8
 73
4
 74
0
 40
0.0
 40
0.0
 40
0.0
 40
0.0
 40
1.0
 40
1.0
 40
1.0
 40
1.0
 10
8.8481072770309623
 20
0.3682696449246805
 30
0.0
 10
8.649542638000959
 20
0.3682696449247089
 30
0.0
 10
8.4406354474609593
 20
0.4607365548546909
 30
0.0
 10
8.282952432640954
 20
0.6184210141147162
 30
0.0
  0
LINE
  5
124
100
AcDbEntity
100
AcDbLine
  8
2
 62
256
370
-1
  6
ByLayer
 10
8.282952432640954
 20
0.6184210141147162
 30
0.0
 11
8.032801063450961
 21
0.8685712999746897
 31
0.0
  0
LINE
  5
125
100
AcDbEntity
100
AcDbLine
  8
2
 62
256
370
-1
  6
ByLayer
 10
8.032801063450961
 20
0.8685712999746897
 30
0.0
 11
8.032801063450961
 21
3.624862180164655
 31
0.0
  0
LINE
  5
126
100
AcDbEntity
100
AcDbLine
  8
2
 62
256
370
-1
  6
ByLayer
 10
8.032801063450961
 20
3.624862180164655
 30
0.0
 11
8.032801063450961
 21
6.3811523381346262
 31
0.0
  0
LINE
  5
127
100
AcDbEntity
100
AcDbLine
  8
2
 62
256
370
-1
  6
ByLayer
 10
8.032801063450961
 20
6.3811523381346262
 30
0.0
 11
6.8098417430809661
 21
6.3811523381347115
 31
0.0
  0
LINE
  5
128
100
AcDbEntity
100
AcDbLine
  8
2
 62
256
370
-1
  6
ByLayer
 10
6.8098417430809661
 20
6.3811523381347115
 30
0.0
 11
5.5868824227109677
 21
6.3811523381347115
 31
0.0
  0
LINE
  5
129
100
AcDbEntity
100
AcDbLine
  8
2
 62
256
370
-1
  6
ByLayer
 10
5.5868824227109677
 20
6.3811523381347115
 30
0.0
 11
5.5868824227109641
 21
3.6248621801646834
 31
0.0
  0
LINE
  5
12A
100
AcDbEntity
100
AcDbLine
  8
2
 62
256
370
-1
  6
ByLayer
 10
5.5868824227109641
 20
3.6248621801646834
 30
0.0
 11
5.5868824227109428
 21
0.8685712999747182
 31
0.0
  0
LINE
  5
12B
100
AcDbEntity
100
AcDbLine
  8
2
 62
256
370
-1
  6
ByLayer
 10
5.5868824227109428
 20
0.8685712999747182
 30
0.0
 11
5.3367310535209569
 21
0.6184210141146878
 31
0.0
  0
SPLINE
  5
12C
  8
2
 62
256
370
-1
  6
ByLayer
100
AcDbEntity
100
AcDbSpline
 70
8
 71
3
 72
8
 73
4
 74
0
 40
0.0
 40
0.0
 40
0.0
 40
0.0
 40
1.0
 40
1.0
 40
1.0
 40
1.0
 10
5.3367310535209569
 20
0.6184210141146878
 30
0.0
 10
5.1790480387009659
 20
0.4607365548547193
 30
0.0
 10
4.9701412092709631
 20
0.3682696449247373
 30
0.0
 10
4.7715762091309699
 20
0.3682696449246805
 30
0.0
  0
SPLINE
  5
12D
  8
2
 62
256
370
-1
  6
ByLayer
100
AcDbEntity
100
AcDbSpline
 70
8
 71
3
 72
8
 73
4
 74
0
 40
0.0
 40
0.0
 40
0.0
 40
0.0
 40
1.0
 40
1.0
 40
1.0
 40
1.0
 10
4.7715762091309699
 20
0.3682696449246805
 30
0.0
 10
4.5730115701009559
 20
0.3682696449247089
 30
0.0
 10
4.3641047406709603
 20
0.4607365548546909
 30
0.0
 10
4.2064213647409616
 20
0.6184210141147162
 30
0.0
  0
LINE
  5
12E
100
AcDbEntity
100
AcDbLine
  8
2
 62
256
370
-1
  6
ByLayer
 10
4.2064213647409616
 20
0.6184210141147162
 30
0.0
 11
4.2064213647409616
 21
0.6184210141147162
 31
0.0
  0
LINE
  5
12F
100
AcDbEntity
100
AcDbLine
  8
2
 62
256
370
-1
  6
ByLayer
 10
11.6309263811509496
 20
0.6141017774046986
 30
0.0
 11
11.3449821498709582
 21
0.8599339098846883
 31
0.0
  0
LINE
  5
130
100
AcDbEntity
100
AcDbLine
  8
2
 62
256
370
-1
  6
ByLayer
 10
11.3449821498709582
 20
0.8599339098846883
 30
0.0
 11
11.31400974517096
 21
3.9008047477747141
 31
0.0
  0
SPLINE
  5
131
  8
2
 62
256
370
-1
  6
ByLayer
100
AcDbEntity
100
AcDbSpline
 70
8
 71
3
 72
8
 73
4
 74
0
 40
0.0
 40
0.0
 40
0.0
 40
0.0
 40
1.0
 40
1.0
 40
1.0
 40
1.0
 10
11.31400974517096
 20
3.9008047477747141
 30
0.0
 10
11.2969751031409587
 20
5.5732839072246918
 30
0.0
 10
11.3105517558109554
 20
7.0909050153847204
 30
0.0
 10
11.3441812078909621
 20
7.2732962597347068
 30
0.0
  0
SPLINE
  5
132
  8
2
 62
256
370
-1
  6
ByLayer
100
AcDbEntity
100
AcDbSpline
 70
8
 71
3
 72
8
 73
4
 74
0
 40
0.0
 40
0.0
 40
0.0
 40
0.0
 40
1.0
 40
1.0
 40
1.0
 40
1.0
 10
11.3441812078909621
 20
7.2732962597347068
 30
0.0
 10
11.3778106599709652
 20
7.455687142974682
 30
0.0
 10
11.5035838285309566
 20
7.6964572354746679
 30
0.0
 10
11.6236763756809616
 20
7.8083406689947026
 30
0.0
  0
SPLINE
  5
133
  8
2
 62
256
370
-1
  6
ByLayer
100
AcDbEntity
100
AcDbSpline
 70
8
 71
3
 72
8
 73
4
 74
0
 40
0.0
 40
0.0
 40
0.0
 40
0.0
 40
1.0
 40
1.0
 40
1.0
 40
1.0
 10
11.6236763756809616
 20
7.8083406689947026
 30
0.0
 10
11.8258651146709646
 20
7.9967079227347426
 30
0.0
 10
11.9841630998209681
 20
8.0117647652946857
 30
0.0
 10
13.7624341282009617
 20
8.0117647652947426
 30
0.0
  0
SPLINE
  5
134
  8
2
 62
256
370
-1
  6
ByLayer
100
AcDbEntity
100
AcDbSpline
 70
8
 71
3
 72
8
 73
4
 74
0
 40
0.0
 40
0.0
 40
0.0
 40
0.0
 40
1.0
 40
1.0
 40
1.0
 40
1.0
 10
13.7624341282009617
 20
8.0117647652947426
 30
0.0
 10
15.8878781161309632
 20
8.0117647652946857
 30
0.0
 10
16.1629778530009638
 20
7.9539228877146968
 30
0.0
 10
16.6198358083909667
 20
7.4109777527646656
 30
0.0
  0
SPLINE
  5
135
  8
2
 62
256
370
-1
  6
ByLayer
100
AcDbEntity
100
AcDbSpline
 70
8
 71
3
 72
8
 73
4
 74
0
 40
0.0
 40
0.0
 40
0.0
 40
0.0
 40
1.0
 40
1.0
 40
1.0
 40
1.0
 10
16.6198358083909667
 20
7.4109777527646656
 30
0.0
 10
17.0393044343809663
 20
6.912468286644696
 30
0.0
 10
17.1019454638609609
 20
6.4939663521246871
 30
0.0
 10
17.1019454638609574
 20
4.1900173856646745
 30
0.0
  0
SPLINE
  5
136
  8
2
 62
256
370
-1
  6
ByLayer
100
AcDbEntity
100
AcDbSpline
 70
8
 71
3
 72
8
 73
4
 74
0
 40
0.0
 40
0.0
 40
0.0
 40
0.0
 40
1.0
 40
1.0
 40
1.0
 40
1.0
 10
17.1019454638609574
 20
4.1900173856646745
 30
0.0
 10
17.1019454638609574
 20
1.8860680580947076
 30
0.0
 10
17.0393044343809521
 20
1.4675664846846814
 30
0.0
 10
16.6198358083909596
 20
0.9690566574546722
 30
0.0
  0
SPLINE
  5
137
  8
2
 62
256
370
-1
  6
ByLayer
100
AcDbEntity
100
AcDbSpline
 70
8
 71
3
 72
8
 73
4
 74
0
 40
0.0
 40
0.0
 40
0.0
 40
0.0
 40
1.0
 40
1.0
 40
1.0
 40
1.0
 10
16.6198358083909596
 20
0.9690566574546722
 30
0.0
 10
16.1644067652709396
 20
0.4278094617247064
 30
0.0
 10
15.8849368751809514
 20
0.3682696449247089
 30
0.0
 10
13.7998566797209463
 20
0.3682696449247089
 30
0.0
  0
SPLINE
  5
138
  8
2
 62
256
370
-1
  6
ByLayer
100
AcDbEntity
100
AcDbSpline
 70
8
 71
3
 72
8
 73
4
 74
0
 40
0.0
 40
0.0
 40
0.0
 40
0.0
 40
1.0
 40
1.0
 40
1.0
 40
1.0
 10
13.7998566797209463
 20
0.3682696449247089
 30
0.0
 10
11.9565934346509586
 20
0.3682696449247089
 30
0.0
 10
11.9108393532109531
 20
0.373455184524687
 30
0.0
 10
11.6309263811509496
 20
0.6141017774046986
 30
0.0
  0
LINE
  5
139
100
AcDbEntity
100
AcDbLine
  8
2
 62
256
370
-1
  6
ByLayer
 10
11.6309263811509496
 20
0.6141017774046986
 30
0.0
 11
11.6309263811509496
 21
0.6141017774046986
 31
0.0
  0
LINE
  5
13A
100
AcDbEntity
100
AcDbLine
  8
2
 62
256
370
-1
  6
ByLayer
 10
15.3705562634509576
 20
4.1900173856646745
 30
0.0
 11
15.3705562634509576
 21
6.3811523381347115
 31
0.0
  0
LINE
  5
13B
100
AcDbEntity
100
AcDbLine
  8
2
 62
256
370
-1
  6
ByLayer
 10
15.3705562634509576
 20
6.3811523381347115
 30
0.0
 11
14.1985538974009593
 21
6.3811523381346831
 31
0.0
  0
LINE
  5
13C
100
AcDbEntity
100
AcDbLine
  8
2
 62
256
370
-1
  6
ByLayer
 10
14.1985538974009593
 20
6.3811523381346831
 30
0.0
 11
13.026551170240964
 21
6.3811523381347115
 31
0.0
  0
LINE
  5
13D
100
AcDbEntity
100
AcDbLine
  8
2
 62
256
370
-1
  6
ByLayer
 10
13.026551170240964
 20
6.3811523381347115
 30
0.0
 11
13.026551170240964
 21
4.1900173856646745
 31
0.0
  0
LINE
  5
13E
100
AcDbEntity
100
AcDbLine
  8
2
 62
256
370
-1
  6
ByLayer
 10
13.026551170240964
 20
4.1900173856646745
 30
0.0
 11
13.0265511702409569
 21
1.9988820720847116
 31
0.0
  0
LINE
  5
13F
100
AcDbEntity
100
AcDbLine
  8
2
 62
256
370
-1
  6
ByLayer
 10
13.0265511702409569
 20
1.9988820720847116
 30
0.0
 11
14.1985538974009557
 21
1.9988820720847116
 31
0.0
  0
LINE
  5
140
100
AcDbEntity
100
AcDbLine
  8
2
 62
256
370
-1
  6
ByLayer
 10
14.1985538974009557
 20
1.9988820720847116
 30
0.0
 11
15.3705562634509576
 21
1.9988820720846832
 31
0.0
  0
LINE
  5
141
100
AcDbEntity
100
AcDbLine
  8
2
 62
256
370
-1
  6
ByLayer
 10
15.3705562634509576
 20
1.9988820720846832
 30
0.0
 11
15.3705562634509576
 21
4.1900173856646745
 31
0.0
  0
LINE
  5
142
100
AcDbEntity
100
AcDbLine
  8
2
 62
256
370
-1
  6
ByLayer
 10
15.3705562634509576
 20
4.1900173856646745
 30
0.0
 11
15.3705562634509576
 21
4.1900173856646745
 31
0.0
  0
SPLINE
  5
143
  8
2
 62
256
370
-1
  6
ByLayer
100
AcDbEntity
100
AcDbSpline
 70
8
 71
3
 72
8
 73
4
 74
0
 40
0.0
 40
0.0
 40
0.0
 40
0.0
 40
1.0
 40
1.0
 40
1.0
 40
1.0
 10
19.6468389389509532
 20
0.6029496172747031
 30
0.0
 10
19.343511594490959
 20
0.7633528737246991
 30
0.0
 10
19.1287771718809516
 20
0.9780872963347065
 30
0.0
 10
18.9683739154309592
 20
1.2814146407947078
 30
0.0
  0
SPLINE
  5
144
  8
2
 62
256
370
-1
  6
ByLayer
100
AcDbEntity
100
AcDbSpline
 70
8
 71
3
 72
8
 73
4
 74
0
 40
0.0
 40
0.0
 40
0.0
 40
0.0
 40
1.0
 40
1.0
 40
1.0
 40
1.0
 10
18.9683739154309592
 20
1.2814146407947078
 30
0.0
 10
18.7393431479209553
 20
1.7145184192746967
 30
0.0
 10
18.7336939430809544
 20
1.7948383110246766
 30
0.0
 10
18.7336939430809579
 20
4.6183321233247057
 30
0.0
  0
LINE
  5
145
100
AcDbEntity
100
AcDbLine
  8
2
 62
256
370
-1
  6
ByLayer
 10
18.7336939430809579
 20
4.6183321233247057
 30
0.0
 11
18.7336939430809579
 21
7.5114634713546877
 31
0.0
  0
LINE
  5
146
100
AcDbEntity
100
AcDbLine
  8
2
 62
256
370
-1
  6
ByLayer
 10
18.7336939430809579
 20
7.5114634713546877
 30
0.0
 11
18.9838453122709652
 21
7.7616133961047353
 31
0.0
  0
SPLINE
  5
147
  8
2
 62
256
370
-1
  6
ByLayer
100
AcDbEntity
100
AcDbSpline
 70
8
 71
3
 72
8
 73
4
 74
0
 40
0.0
 40
0.0
 40
0.0
 40
0.0
 40
1.0
 40
1.0
 40
1.0
 40
1.0
 10
18.9838453122709652
 20
7.7616133961047353
 30
0.0
 10
19.1415286882009639
 20
7.9192978553647038
 30
0.0
 10
19.350435517630963
 20
8.0117647652947142
 30
0.0
 10
19.5490001566609592
 20
8.0117647652946857
 30
0.0
  0
SPLINE
  5
148
  8
2
 62
256
370
-1
  6
ByLayer
100
AcDbEntity
100
AcDbSpline
 70
8
 71
3
 72
8
 73
4
 74
0
 40
0.0
 40
0.0
 40
0.0
 40
0.0
 40
1.0
 40
1.0
 40
1.0
 40
1.0
 10
19.5490001566609592
 20
8.0117647652946857
 30
0.0
 10
19.7475651568009667
 20
8.0117647652947142
 30
0.0
 10
19.9564719862309587
 20
7.9192978553646753
 30
0.0
 10
20.114155001050964
 20
7.7616133961046785
 30
0.0
  0
LINE
  5
149
100
AcDbEntity
100
AcDbLine
  8
2
 62
256
370
-1
  6
ByLayer
 10
20.114155001050964
 20
7.7616133961046785
 30
0.0
 11
20.3643063702409606
 21
7.5114634713546877
 31
0.0
  0
LINE
  5
14A
100
AcDbEntity
100
AcDbLine
  8
2
 62
256
370
-1
  6
ByLayer
 10
20.3643063702409606
 20
7.5114634713546877
 30
0.0
 11
20.364306370240957
 21
4.7551722300547112
 31
0.0
  0
LINE
  5
14B
100
AcDbEntity
100
AcDbLine
  8
2
 62
256
370
-1
  6
ByLayer
 10
20.364306370240957
 20
4.7551722300547112
 30
0.0
 11
20.364306370240957
 21
1.9988820720846832
 31
0.0
  0
LINE
  5
14C
100
AcDbEntity
100
AcDbLine
  8
2
 62
256
370
-1
  6
ByLayer
 10
20.364306370240957
 20
1.9988820720846832
 30
0.0
 11
21.5872656906109555
 21
1.9988820720846832
 31
0.0
  0
LINE
  5
14D
100
AcDbEntity
100
AcDbLine
  8
2
 62
256
370
-1
  6
ByLayer
 10
21.5872656906109555
 20
1.9988820720846832
 30
0.0
 11
22.8102246498709569
 21
1.9988820720846832
 31
0.0
  0
LINE
  5
14E
100
AcDbEntity
100
AcDbLine
  8
2
 62
256
370
-1
  6
ByLayer
 10
22.8102246498709569
 20
1.9988820720846832
 30
0.0
 11
22.8102246498709569
 21
4.7551722300546828
 31
0.0
  0
LINE
  5
14F
100
AcDbEntity
100
AcDbLine
  8
2
 62
256
370
-1
  6
ByLayer
 10
22.8102246498709569
 20
4.7551722300546828
 30
0.0
 11
22.8102246498709604
 21
7.5114634713546877
 31
0.0
  0
LINE
  5
150
100
AcDbEntity
100
AcDbLine
  8
2
 62
256
370
-1
  6
ByLayer
 10
22.8102246498709604
 20
7.5114634713546877
 30
0.0
 11
23.0603760190609677
 21
7.7616133961047069
 31
0.0
  0
SPLINE
  5
151
  8
2
 62
256
370
-1
  6
ByLayer
100
AcDbEntity
100
AcDbSpline
 70
8
 71
3
 72
8
 73
4
 74
0
 40
0.0
 40
0.0
 40
0.0
 40
0.0
 40
1.0
 40
1.0
 40
1.0
 40
1.0
 10
23.0603760190609677
 20
7.7616133961047069
 30
0.0
 10
23.2180593949909593
 20
7.9192978553646753
 30
0.0
 10
23.4269662244209655
 20
8.0117647652947142
 30
0.0
 10
23.6255308634509618
 20
8.0117647652946857
 30
0.0
  0
SPLINE
  5
152
  8
2
 62
256
370
-1
  6
ByLayer
100
AcDbEntity
100
AcDbSpline
 70
8
 71
3
 72
8
 73
4
 74
0
 40
0.0
 40
0.0
 40
0.0
 40
0.0
 40
1.0
 40
1.0
 40
1.0
 40
1.0
 10
23.6255308634509618
 20
8.0117647652946857
 30
0.0
 10
23.824095502480958
 20
8.0117647652946857
 30
0.0
 10
24.0330026930209648
 20
7.9192978553646753
 30
0.0
 10
24.1906857078409594
 20
7.7616133961047069
 30
0.0
  0
LINE
  5
153
100
AcDbEntity
100
AcDbLine
  8
2
 62
256
370
-1
  6
ByLayer
 10
24.1906857078409594
 20
7.7616133961047069
 30
0.0
 11
24.4408370770309631
 21
7.5114634713546877
 31
0.0
  0
LINE
  5
154
100
AcDbEntity
100
AcDbLine
  8
2
 62
256
370
-1
  6
ByLayer
 10
24.4408370770309631
 20
7.5114634713546877
 30
0.0
 11
24.4408370770309489
 21
4.6238968284246766
 31
0.0
  0
SPLINE
  5
155
  8
2
 62
256
370
-1
  6
ByLayer
100
AcDbEntity
100
AcDbSpline
 70
8
 71
3
 72
8
 73
4
 74
0
 40
0.0
 40
0.0
 40
0.0
 40
0.0
 40
1.0
 40
1.0
 40
1.0
 40
1.0
 10
24.4408370770309489
 20
4.6238968284246766
 30
0.0
 10
24.4408370770309489
 20
1.8307384227847194
 30
0.0
 10
24.4333404334309598
 20
1.7216095363446868
 30
0.0
 10
24.2115322270309505
 20
1.2860639320446978
 30
0.0
  0
SPLINE
  5
156
  8
2
 62
256
370
-1
  6
ByLayer
100
AcDbEntity
100
AcDbSpline
 70
8
 71
3
 72
8
 73
4
 74
0
 40
0.0
 40
0.0
 40
0.0
 40
0.0
 40
1.0
 40
1.0
 40
1.0
 40
1.0
 10
24.2115322270309505
 20
1.2860639320446978
 30
0.0
 10
24.0486015616909548
 20
0.9661305831246807
 30
0.0
 10
23.852214415960951
 20
0.768132525684706
 30
0.0
 10
23.5330672035109565
 20
0.6020331200947169
 30
0.0
  0
SPLINE
  5
157
  8
2
 62
256
370
-1
  6
ByLayer
100
AcDbEntity
100
AcDbSpline
 70
8
 71
3
 72
8
 73
4
 74
0
 40
0.0
 40
0.0
 40
0.0
 40
0.0
 40
1.0
 40
1.0
 40
1.0
 40
1.0
 10
23.5330672035109565
 20
0.6020331200947169
 30
0.0
 10
23.1243000723709464
 20
0.3892934691247092
 30
0.0
 10
22.9493079719209554
 20
0.3682696449246805
 30
0.0
 10
21.5872656906109484
 20
0.3682696449246805
 30
0.0
  0
SPLINE
  5
158
  8
2
 62
256
370
-1
  6
ByLayer
100
AcDbEntity
100
AcDbSpline
 70
8
 71
3
 72
8
 73
4
 74
0
 40
0.0
 40
0.0
 40
0.0
 40
0.0
 40
1.0
 40
1.0
 40
1.0
 40
1.0
 10
21.5872656906109484
 20
0.3682696449246805
 30
0.0
 10
20.2214606431009614
 20
0.3682696449246805
 30
0.0
 10
20.0518299428209552
 20
0.3887850262447046
 30
0.0
 10
19.6468389389509532
 20
0.6029496172747031
 30
0.0
  0
LINE
  5
159
100
AcDbEntity
100
AcDbLine
  8
2
 62
256
370
-1
  6
ByLayer
 10
19.6468389389509532
 20
0.6029496172747031
 30
0.0
 11
19.6468389389509532
 21
0.6029496172747031
 31
0.0
  0
SPLINE
  5
15A
  8
2
 62
256
370
-1
  6
ByLayer
100
AcDbEntity
100
AcDbSpline
 70
8
 71
3
 72
8
 73
4
 74
0
 40
0.0
 40
0.0
 40
0.0
 40
0.0
 40
1.0
 40
1.0
 40
1.0
 40
1.0
 10
26.4522136381609521
 20
0.4956613085046797
 30
0.0
 10
25.9996045030309553
 20
0.8393585843047049
 30
0.0
 10
26.0515162321909521
 20
1.6603862247247037
 30
0.0
 10
26.5399272571609544
 20
1.882920984444695
 30
0.0
  0
SPLINE
  5
15B
  8
2
 62
256
370
-1
  6
ByLayer
100
AcDbEntity
100
AcDbSpline
 70
8
 71
3
 72
8
 73
4
 74
0
 40
0.0
 40
0.0
 40
0.0
 40
0.0
 40
1.0
 40
1.0
 40
1.0
 40
1.0
 10
26.5399272571609544
 20
1.882920984444695
 30
0.0
 10
26.697205106560947
 20
1.9545821806146932
 30
0.0
 10
27.4350019475209557
 20
1.9988820720846832
 30
0.0
 10
28.4712060091909471
 20
1.9988820720846832
 30
0.0
  0
LINE
  5
15C
100
AcDbEntity
100
AcDbLine
  8
2
 62
256
370
-1
  6
ByLayer
 10
28.4712060091909471
 20
1.9988820720846832
 30
0.0
 11
30.1479798498709535
 21
1.9988820720846832
 31
0.0
  0
LINE
  5
15D
100
AcDbEntity
100
AcDbLine
  8
2
 62
256
370
-1
  6
ByLayer
 10
30.1479798498709535
 20
1.9988820720846832
 30
0.0
 11
30.1479798498709499
 21
2.6613181449246781
 31
0.0
  0
LINE
  5
15E
100
AcDbEntity
100
AcDbLine
  8
2
 62
256
370
-1
  6
ByLayer
 10
30.1479798498709499
 20
2.6613181449246781
 30
0.0
 11
30.1479798498709606
 21
3.3237545788746559
 31
0.0
  0
LINE
  5
15F
100
AcDbEntity
100
AcDbLine
  8
2
 62
256
370
-1
  6
ByLayer
 10
30.1479798498709606
 20
3.3237545788746559
 30
0.0
 11
29.0014555998709653
 21
3.3261862936146827
 31
0.0
  0
SPLINE
  5
160
  8
2
 62
256
370
-1
  6
ByLayer
100
AcDbEntity
100
AcDbSpline
 70
8
 71
3
 72
8
 73
4
 74
0
 40
0.0
 40
0.0
 40
0.0
 40
0.0
 40
1.0
 40
1.0
 40
1.0
 40
1.0
 10
29.0014555998709653
 20
3.3261862936146827
 30
0.0
 10
27.2741379147109662
 20
3.329849032344697
 30
0.0
 10
26.7655480629409652
 20
3.5057857965546759
 30
0.0
 10
26.3262324702409636
 20
4.2516267238746934
 30
0.0
  0
SPLINE
  5
161
  8
2
 62
256
370
-1
  6
ByLayer
100
AcDbEntity
100
AcDbSpline
 70
8
 71
3
 72
8
 73
4
 74
0
 40
0.0
 40
0.0
 40
0.0
 40
0.0
 40
1.0
 40
1.0
 40
1.0
 40
1.0
 10
26.3262324702409636
 20
4.2516267238746934
 30
0.0
 10
26.1569964631909571
 20
4.5389449787046772
 30
0.0
 10
26.1226473188809543
 20
4.7792705447946844
 30
0.0
 10
26.1238295930209574
 20
5.667759672084685
 30
0.0
  0
SPLINE
  5
162
  8
2
 62
256
370
-1
  6
ByLayer
100
AcDbEntity
100
AcDbSpline
 70
8
 71
3
 72
8
 73
4
 74
0
 40
0.0
 40
0.0
 40
0.0
 40
0.0
 40
1.0
 40
1.0
 40
1.0
 40
1.0
 10
26.1238295930209574
 20
5.667759672084685
 30
0.0
 10
26.1253462550209576
 20
6.8077572199447047
 30
0.0
 10
26.222040318610965
 20
7.1280155678646793
 30
0.0
 10
26.6987242963309654
 20
7.571845035564678
 30
0.0
  0
SPLINE
  5
163
  8
2
 62
256
370
-1
  6
ByLayer
100
AcDbEntity
100
AcDbSpline
 70
8
 71
3
 72
8
 73
4
 74
0
 40
0.0
 40
0.0
 40
0.0
 40
0.0
 40
1.0
 40
1.0
 40
1.0
 40
1.0
 10
26.6987242963309654
 20
7.571845035564678
 30
0.0
 10
27.1147710439609639
 20
7.9592160380946666
 30
0.0
 10
27.4410147901309642
 20
8.0117647652946857
 30
0.0
 10
29.4299317537009664
 20
8.0117647652946857
 30
0.0
  0
SPLINE
  5
164
  8
2
 62
256
370
-1
  6
ByLayer
100
AcDbEntity
100
AcDbSpline
 70
8
 71
3
 72
8
 73
4
 74
0
 40
0.0
 40
0.0
 40
0.0
 40
0.0
 40
1.0
 40
1.0
 40
1.0
 40
1.0
 10
29.4299317537009664
 20
8.0117647652946857
 30
0.0
 10
31.1524798979809567
 20
8.0117647652946857
 30
0.0
 10
31.3724038324009626
 20
7.9922940752046827
 30
0.0
 10
31.5838582928809615
 20
7.8210687131646921
 30
0.0
  0
SPLINE
  5
165
  8
2
 62
256
370
-1
  6
ByLayer
100
AcDbEntity
100
AcDbSpline
 70
8
 71
3
 72
8
 73
4
 74
0
 40
0.0
 40
0.0
 40
0.0
 40
0.0
 40
1.0
 40
1.0
 40
1.0
 40
1.0
 10
31.5838582928809615
 20
7.8210687131646921
 30
0.0
 10
31.9326280808509679
 20
7.5386518043646902
 30
0.0
 10
31.9100605114009639
 20
6.9423245003346779
 30
0.0
 10
31.5385090157509573
 20
6.6227287892646984
 30
0.0
  0
SPLINE
  5
166
  8
2
 62
256
370
-1
  6
ByLayer
100
AcDbEntity
100
AcDbSpline
 70
8
 71
3
 72
8
 73
4
 74
0
 40
0.0
 40
0.0
 40
0.0
 40
0.0
 40
1.0
 40
1.0
 40
1.0
 40
1.0
 10
31.5385090157509573
 20
6.6227287892646984
 30
0.0
 10
31.2669275736109604
 20
6.3891242024946564
 30
0.0
 10
31.2006776107909651
 20
6.3811523381346831
 30
0.0
 10
29.5308175821709611
 20
6.3811523381346831
 30
0.0
  0
LINE
  5
167
100
AcDbEntity
100
AcDbLine
  8
2
 62
256
370
-1
  6
ByLayer
 10
29.5308175821709611
 20
6.3811523381346831
 30
0.0
 11
27.8039747566609634
 21
6.3811523381346831
 31
0.0
  0
LINE
  5
168
100
AcDbEntity
100
AcDbLine
  8
2
 62
256
370
-1
  6
ByLayer
 10
27.8039747566609634
 20
6.3811523381346831
 30
0.0
 11
27.8039747566609527
 21
5.7187162652946881
 31
0.0
  0
LINE
  5
169
100
AcDbEntity
100
AcDbLine
  8
2
 62
256
370
-1
  6
ByLayer
 10
27.8039747566609527
 20
5.7187162652946881
 30
0.0
 11
27.8039747566609634
 21
5.056279831344682
 31
0.0
  0
LINE
  5
16A
100
AcDbEntity
100
AcDbLine
  8
2
 62
256
370
-1
  6
ByLayer
 10
27.8039747566609634
 20
5.056279831344682
 30
0.0
 11
29.0014555998709653
 21
5.0557114442046895
 31
0.0
  0
SPLINE
  5
16B
  8
2
 62
256
370
-1
  6
ByLayer
100
AcDbEntity
100
AcDbSpline
 70
8
 71
3
 72
8
 73
4
 74
0
 40
0.0
 40
0.0
 40
0.0
 40
0.0
 40
1.0
 40
1.0
 40
1.0
 40
1.0
 10
29.0014555998709653
 20
5.0557114442046895
 30
0.0
 10
29.6600700455809516
 20
5.0553994451646815
 30
0.0
 10
30.380228107480967
 20
5.0048108230446644
 30
0.0
 10
30.6018080923609652
 20
4.9432939289947058
 30
0.0
  0
SPLINE
  5
16C
  8
2
 62
256
370
-1
  6
ByLayer
100
AcDbEntity
100
AcDbSpline
 70
8
 71
3
 72
8
 73
4
 74
0
 40
0.0
 40
0.0
 40
0.0
 40
0.0
 40
1.0
 40
1.0
 40
1.0
 40
1.0
 10
30.6018080923609652
 20
4.9432939289947058
 30
0.0
 10
31.1169806183209658
 20
4.8002647579746736
 30
0.0
 10
31.6244903900809682
 20
4.2927549862146748
 30
0.0
 10
31.7675191999909607
 20
3.7775824602547061
 30
0.0
  0
SPLINE
  5
16D
  8
2
 62
256
370
-1
  6
ByLayer
100
AcDbEntity
100
AcDbSpline
 70
8
 71
3
 72
8
 73
4
 74
0
 40
0.0
 40
0.0
 40
0.0
 40
0.0
 40
1.0
 40
1.0
 40
1.0
 40
1.0
 10
31.7675191999909607
 20
3.7775824602547061
 30
0.0
 10
31.9065433000009548
 20
3.2768305010346808
 30
0.0
 10
31.9128865582609613
 20
2.0685763020846935
 30
0.0
 10
31.7790201923809583
 20
1.5867082292046746
 30
0.0
  0
SPLINE
  5
16E
  8
2
 62
256
370
-1
  6
ByLayer
100
AcDbEntity
100
AcDbSpline
 70
8
 71
3
 72
8
 73
4
 74
0
 40
0.0
 40
0.0
 40
0.0
 40
0.0
 40
1.0
 40
1.0
 40
1.0
 40
1.0
 10
31.7790201923809583
 20
1.5867082292046746
 30
0.0
 10
31.6651820704309657
 20
1.1769350456046936
 30
0.0
 10
31.1540290598809584
 20
0.6372994838046964
 30
0.0
 10
30.7273465394209637
 20
0.4764332843346608
 30
0.0
  0
SPLINE
  5
16F
  8
2
 62
256
370
-1
  6
ByLayer
100
AcDbEntity
100
AcDbSpline
 70
8
 71
3
 72
8
 73
4
 74
0
 40
0.0
 40
0.0
 40
0.0
 40
0.0
 40
1.0
 40
1.0
 40
1.0
 40
1.0
 10
30.7273465394209637
 20
0.4764332843346608
 30
0.0
 10
30.3034261493509618
 20
0.3166088872146986
 30
0.0
 10
26.6664627289309486
 20
0.3329668091046756
 30
0.0
 10
26.4522136381609521
 20
0.4956613085046797
 30
0.0
  0
LINE
  5
170
100
AcDbEntity
100
AcDbLine
  8
2
 62
256
370
-1
  6
ByLayer
 10
26.4522136381609521
 20
0.4956613085046797
 30
0.0
 11
26.4522136381609521
 21
0.4956613085046797
 31
0.0
  0
LINE
  5
171
100
AcDbEntity
100
AcDbLine
  8
2
 62
256
370
-1
  6
ByLayer
 10
35.3918813258509459
 20
0.6184210141146593
 30
0.0
 11
35.14172995666096
 21
0.8685712999746613
 31
0.0
  0
LINE
  5
172
100
AcDbEntity
100
AcDbLine
  8
2
 62
256
370
-1
  6
ByLayer
 10
35.14172995666096
 20
0.8685712999746613
 30
0.0
 11
35.1417299566609671
 21
3.6140707689246767
 31
0.0
  0
LINE
  5
173
100
AcDbEntity
100
AcDbLine
  8
2
 62
256
370
-1
  6
ByLayer
 10
35.1417299566609671
 20
3.6140707689246767
 30
0.0
 11
35.14172995666096
 21
6.3595702378746637
 31
0.0
  0
LINE
  5
174
100
AcDbEntity
100
AcDbLine
  8
2
 62
256
370
-1
  6
ByLayer
 10
35.14172995666096
 20
6.3595702378746637
 30
0.0
 11
34.3164404960209595
 21
6.3970487614446654
 31
0.0
  0
SPLINE
  5
175
  8
2
 62
256
370
-1
  6
ByLayer
100
AcDbEntity
100
AcDbSpline
 70
8
 71
3
 72
8
 73
4
 74
0
 40
0.0
 40
0.0
 40
0.0
 40
0.0
 40
1.0
 40
1.0
 40
1.0
 40
1.0
 10
34.3164404960209595
 20
6.3970487614446654
 30
0.0
 10
33.5979244012909675
 20
6.4296782999346647
 30
0.0
 10
33.4660719458809552
 20
6.4654978841646766
 30
0.0
 10
33.2973079096009599
 20
6.6739136039946629
 30
0.0
  0
SPLINE
  5
176
  8
2
 62
256
370
-1
  6
ByLayer
100
AcDbEntity
100
AcDbSpline
 70
8
 71
3
 72
8
 73
4
 74
0
 40
0.0
 40
0.0
 40
0.0
 40
0.0
 40
1.0
 40
1.0
 40
1.0
 40
1.0
 10
33.2973079096009599
 20
6.6739136039946629
 30
0.0
 10
33.0098961272809603
 20
7.0288518729846885
 30
0.0
 10
33.0439451891809597
 20
7.542500153634677
 30
0.0
 10
33.3719919575809598
 20
7.8005414152146955
 30
0.0
  0
SPLINE
  5
177
  8
2
 62
256
370
-1
  6
ByLayer
100
AcDbEntity
100
AcDbSpline
 70
8
 71
3
 72
8
 73
4
 74
0
 40
0.0
 40
0.0
 40
0.0
 40
0.0
 40
1.0
 40
1.0
 40
1.0
 40
1.0
 10
33.3719919575809598
 20
7.8005414152146955
 30
0.0
 10
33.6256959269509608
 20
8.0001048845046796
 30
0.0
 10
33.7678985171809671
 20
8.0117647652946857
 30
0.0
 10
35.9481033921709638
 20
8.0117647652946857
 30
0.0
  0
SPLINE
  5
178
  8
2
 62
256
370
-1
  6
ByLayer
100
AcDbEntity
100
AcDbSpline
 70
8
 71
3
 72
8
 73
4
 74
0
 40
0.0
 40
0.0
 40
0.0
 40
0.0
 40
1.0
 40
1.0
 40
1.0
 40
1.0
 10
35.9481033921709638
 20
8.0117647652946857
 30
0.0
 10
37.8181447492909584
 20
8.0117647652946857
 30
0.0
 10
38.2964277220909679
 20
7.9832302142046672
 30
0.0
 10
38.4705466585609557
 20
7.861272533904696
 30
0.0
  0
SPLINE
  5
179
  8
2
 62
256
370
-1
  6
ByLayer
100
AcDbEntity
100
AcDbSpline
 70
8
 71
3
 72
8
 73
4
 74
0
 40
0.0
 40
0.0
 40
0.0
 40
0.0
 40
1.0
 40
1.0
 40
1.0
 40
1.0
 10
38.4705466585609557
 20
7.861272533904696
 30
0.0
 10
38.9249053716409605
 20
7.5430270131246857
 30
0.0
 10
38.8470652222609516
 20
6.7271776901046678
 30
0.0
 10
38.3403145037209683
 20
6.4962857616546614
 30
0.0
  0
SPLINE
  5
17A
  8
2
 62
256
370
-1
  6
ByLayer
100
AcDbEntity
100
AcDbSpline
 70
8
 71
3
 72
8
 73
4
 74
0
 40
0.0
 40
0.0
 40
0.0
 40
0.0
 40
1.0
 40
1.0
 40
1.0
 40
1.0
 10
38.3403145037209683
 20
6.4962857616546614
 30
0.0
 10
38.2013344591309618
 20
6.4329622342746688
 30
0.0
 10
37.7916858584809532
 20
6.3811523381346831
 30
0.0
 10
37.4299836380809552
 20
6.3811523381346831
 30
0.0
  0
LINE
  5
17B
100
AcDbEntity
100
AcDbLine
  8
2
 62
256
370
-1
  6
ByLayer
 10
37.4299836380809552
 20
6.3811523381346831
 30
0.0
 11
36.7723423838209627
 21
6.3811523381346831
 31
0.0
  0
LINE
  5
17C
100
AcDbEntity
100
AcDbLine
  8
2
 62
256
370
-1
  6
ByLayer
 10
36.7723423838209627
 20
6.3811523381346831
 30
0.0
 11
36.7723423838209627
 21
3.6248621801646834
 31
0.0
  0
LINE
  5
17D
100
AcDbEntity
100
AcDbLine
  8
2
 62
256
370
-1
  6
ByLayer
 10
36.7723423838209627
 20
3.6248621801646834
 30
0.0
 11
36.7723423838209484
 21
0.8685712999746613
 31
0.0
  0
LINE
  5
17E
100
AcDbEntity
100
AcDbLine
  8
2
 62
256
370
-1
  6
ByLayer
 10
36.7723423838209484
 20
0.8685712999746613
 30
0.0
 11
36.5221910146309554
 21
0.6184210141146593
 31
0.0
  0
SPLINE
  5
17F
  8
2
 62
256
370
-1
  6
ByLayer
100
AcDbEntity
100
AcDbSpline
 70
8
 71
3
 72
8
 73
4
 74
0
 40
0.0
 40
0.0
 40
0.0
 40
0.0
 40
1.0
 40
1.0
 40
1.0
 40
1.0
 10
36.5221910146309554
 20
0.6184210141146593
 30
0.0
 10
36.3645079998109537
 20
0.4607365548546625
 30
0.0
 10
36.1556008092709575
 20
0.3682696449246805
 30
0.0
 10
35.9570361702409613
 20
0.3682696449246805
 30
0.0
  0
SPLINE
  5
180
  8
2
 62
256
370
-1
  6
ByLayer
100
AcDbEntity
100
AcDbSpline
 70
8
 71
3
 72
8
 73
4
 74
0
 40
0.0
 40
0.0
 40
0.0
 40
0.0
 40
1.0
 40
1.0
 40
1.0
 40
1.0
 10
35.9570361702409613
 20
0.3682696449246805
 30
0.0
 10
35.7584715312109438
 20
0.3682696449246805
 30
0.0
 10
35.5495647017809517
 20
0.4607365548546625
 30
0.0
 10
35.3918813258509459
 20
0.6184210141146593
 30
0.0
  0
LINE
  5
181
100
AcDbEntity
100
AcDbLine
  8
2
 62
256
370
-1
  6
ByLayer
 10
35.3918813258509459
 20
0.6184210141146593
 30
0.0
 11
35.3918813258509459
 21
0.6184210141146593
 31
0.0
  0
LINE
  5
182
100
AcDbEntity
100
AcDbLine
  8
2
 62
256
370
-1
  6
ByLayer
 10
40.0982676779509433
 20
0.5794929950046708
 30
0.0
 11
39.8297401430809472
 21
0.7907167061946723
 31
0.0
  0
LINE
  5
183
100
AcDbEntity
100
AcDbLine
  8
2
 62
256
370
-1
  6
ByLayer
 10
39.8297401430809472
 20
0.7907167061946723
 30
0.0
 11
39.8297401430809472
 21
4.4012407357446648
 31
0.0
  0
LINE
  5
184
100
AcDbEntity
100
AcDbLine
  8
2
 62
256
370
-1
  6
ByLayer
 10
39.8297401430809472
 20
4.4012407357446648
 30
0.0
 11
39.8297401430809614
 21
8.0117647652946573
 31
0.0
  0
LINE
  5
185
100
AcDbEntity
100
AcDbLine
  8
2
 62
256
370
-1
  6
ByLayer
 10
39.8297401430809614
 20
8.0117647652946573
 30
0.0
 11
42.0048465059809644
 21
8.0117647652946573
 31
0.0
  0
SPLINE
  5
186
  8
2
 62
256
370
-1
  6
ByLayer
100
AcDbEntity
100
AcDbSpline
 70
8
 71
3
 72
8
 73
4
 74
0
 40
0.0
 40
0.0
 40
0.0
 40
0.0
 40
1.0
 40
1.0
 40
1.0
 40
1.0
 10
42.0048465059809644
 20
8.0117647652946573
 30
0.0
 10
44.0788489299709596
 20
8.0117647652946857
 30
0.0
 10
44.2005801943009615
 20
8.0008559933046968
 30
0.0
 10
44.6237382811609677
 20
7.777085154054646
 30
0.0
  0
SPLINE
  5
187
  8
2
 62
256
370
-1
  6
ByLayer
100
AcDbEntity
100
AcDbSpline
 70
8
 71
3
 72
8
 73
4
 74
0
 40
0.0
 40
0.0
 40
0.0
 40
0.0
 40
1.0
 40
1.0
 40
1.0
 40
1.0
 10
44.6237382811609677
 20
7.777085154054646
 30
0.0
 10
45.2876837938009587
 20
7.4259815121546637
 30
0.0
 10
45.5368832770309595
 20
6.8867940878646721
 30
0.0
 10
45.5368832770309595
 20
5.8013270388846649
 30
0.0
  0
SPLINE
  5
188
  8
2
 62
256
370
-1
  6
ByLayer
100
AcDbEntity
100
AcDbSpline
 70
8
 71
3
 72
8
 73
4
 74
0
 40
0.0
 40
0.0
 40
0.0
 40
0.0
 40
1.0
 40
1.0
 40
1.0
 40
1.0
 10
45.5368832770309595
 20
5.8013270388846649
 30
0.0
 10
45.5368832770309524
 20
5.2666892394846627
 30
0.0
 10
45.478773455830968
 20
4.8087428985546694
 30
0.0
 10
45.381341283400964
 20
4.5755561160546563
 30
0.0
  0
SPLINE
  5
189
  8
2
 62
256
370
-1
  6
ByLayer
100
AcDbEntity
100
AcDbSpline
 70
8
 71
3
 72
8
 73
4
 74
0
 40
0.0
 40
0.0
 40
0.0
 40
0.0
 40
1.0
 40
1.0
 40
1.0
 40
1.0
 10
45.381341283400964
 20
4.5755561160546563
 30
0.0
 10
45.2408933266609523
 20
4.2394157892246653
 30
0.0
 10
45.241647685450971
 20
4.1698956142446661
 30
0.0
 10
45.3891203150209606
 20
3.8591200149246845
 30
0.0
  0
SPLINE
  5
18A
  8
2
 62
256
370
-1
  6
ByLayer
100
AcDbEntity
100
AcDbSpline
 70
8
 71
3
 72
8
 73
4
 74
0
 40
0.0
 40
0.0
 40
0.0
 40
0.0
 40
1.0
 40
1.0
 40
1.0
 40
1.0
 10
45.3891203150209606
 20
3.8591200149246845
 30
0.0
 10
45.5199858568009645
 20
3.5833406690346692
 30
0.0
 10
45.5458323050509648
 20
3.2409683058246799
 30
0.0
 10
45.519183831490956
 20
2.1361970384646725
 30
0.0
  0
SPLINE
  5
18B
  8
2
 62
256
370
-1
  6
ByLayer
100
AcDbEntity
100
AcDbSpline
 70
8
 71
3
 72
8
 73
4
 74
0
 40
0.0
 40
0.0
 40
0.0
 40
0.0
 40
1.0
 40
1.0
 40
1.0
 40
1.0
 10
45.519183831490956
 20
2.1361970384646725
 30
0.0
 10
45.4876733728909599
 20
0.8298725857146962
 30
0.0
 10
45.4732881949309373
 20
0.7472231733546835
 30
0.0
 10
45.2453317296709656
 20
0.5628577406346835
 30
0.0
  0
SPLINE
  5
18C
  8
2
 62
256
370
-1
  6
ByLayer
100
AcDbEntity
100
AcDbSpline
 70
8
 71
3
 72
8
 73
4
 74
0
 40
0.0
 40
0.0
 40
0.0
 40
0.0
 40
1.0
 40
1.0
 40
1.0
 40
1.0
 10
45.2453317296709656
 20
0.5628577406346835
 30
0.0
 10
44.9102592051109681
 20
0.2918591300346804
 30
0.0
 10
44.4600084793909573
 20
0.314833670454675
 30
0.0
 10
44.1564222190609428
 20
0.6184210141146593
 30
0.0
  0
SPLINE
  5
18D
  8
2
 62
256
370
-1
  6
ByLayer
100
AcDbEntity
100
AcDbSpline
 70
8
 71
3
 72
8
 73
4
 74
0
 40
0.0
 40
0.0
 40
0.0
 40
0.0
 40
1.0
 40
1.0
 40
1.0
 40
1.0
 10
44.1564222190609428
 20
0.6184210141146593
 30
0.0
 10
43.9185189788509547
 20
0.8563231709946706
 30
0.0
 10
43.9062708498709569
 20
0.9286784205846743
 30
0.0
 10
43.9062708498709497
 20
2.0961633005346414
 30
0.0
  0
LINE
  5
18E
100
AcDbEntity
100
AcDbLine
  8
2
 62
256
370
-1
  6
ByLayer
 10
43.9062708498709497
 20
2.0961633005346414
 30
0.0
 11
43.9062708498709497
 21
3.3237545788746559
 31
0.0
  0
LINE
  5
18F
100
AcDbEntity
100
AcDbLine
  8
2
 62
256
370
-1
  6
ByLayer
 10
43.9062708498709497
 20
3.3237545788746559
 30
0.0
 11
42.683311890610959
 21
3.3237545788746559
 31
0.0
  0
LINE
  5
190
100
AcDbEntity
100
AcDbLine
  8
2
 62
256
370
-1
  6
ByLayer
 10
42.683311890610959
 20
3.3237545788746559
 30
0.0
 11
41.4603525702409641
 21
3.3237545788746559
 31
0.0
  0
LINE
  5
191
100
AcDbEntity
100
AcDbLine
  8
2
 62
256
370
-1
  6
ByLayer
 10
41.4603525702409641
 20
3.3237545788746559
 30
0.0
 11
41.460352570240957
 21
2.0961633005346698
 31
0.0
  0
SPLINE
  5
192
  8
2
 62
256
370
-1
  6
ByLayer
100
AcDbEntity
100
AcDbSpline
 70
8
 71
3
 72
8
 73
4
 74
0
 40
0.0
 40
0.0
 40
0.0
 40
0.0
 40
1.0
 40
1.0
 40
1.0
 40
1.0
 10
41.460352570240957
 20
2.0961633005346698
 30
0.0
 10
41.4603525702409641
 20
0.9286784205846743
 30
0.0
 10
41.4481048023709562
 20
0.8563231709946706
 30
0.0
 10
41.2102012010509497
 20
0.6184210141146593
 30
0.0
  0
SPLINE
  5
193
  8
2
 62
256
370
-1
  6
ByLayer
100
AcDbEntity
100
AcDbSpline
 70
8
 71
3
 72
8
 73
4
 74
0
 40
0.0
 40
0.0
 40
0.0
 40
0.0
 40
1.0
 40
1.0
 40
1.0
 40
1.0
 10
41.2102012010509497
 20
0.6184210141146593
 30
0.0
 10
40.9007497921009531
 20
0.3089685218346574
 30
0.0
 10
40.4617238096209633
 20
0.2935989580146838
 30
0.0
 10
40.0982676779509433
 20
0.5794929950046708
 30
0.0
  0
LINE
  5
194
100
AcDbEntity
100
AcDbLine
  8
2
 62
256
370
-1
  6
ByLayer
 10
40.0982676779509433
 20
0.5794929950046708
 30
0.0
 11
40.0982676779509433
 21
0.5794929950046708
 31
0.0
  0
LINE
  5
195
100
AcDbEntity
100
AcDbLine
  8
2
 62
256
370
-1
  6
ByLayer
 10
43.8854492472709552
 20
5.6932377881346667
 30
0.0
 11
43.9155838767709596
 21
6.3811523381346831
 31
0.0
  0
LINE
  5
196
100
AcDbEntity
100
AcDbLine
  8
2
 62
256
370
-1
  6
ByLayer
 10
43.9155838767709596
 20
6.3811523381346831
 30
0.0
 11
42.6879680429509634
 21
6.3811523381346831
 31
0.0
  0
LINE
  5
197
100
AcDbEntity
100
AcDbLine
  8
2
 62
256
370
-1
  6
ByLayer
 10
42.6879680429509634
 20
6.3811523381346831
 30
0.0
 11
41.4603525702409641
 21
6.3811523381346831
 31
0.0
  0
LINE
  5
198
100
AcDbEntity
100
AcDbLine
  8
2
 62
256
370
-1
  6
ByLayer
 10
41.4603525702409641
 20
6.3811523381346831
 30
0.0
 11
41.460352570240957
 21
5.6645248487046729
 31
0.0
  0
LINE
  5
199
100
AcDbEntity
100
AcDbLine
  8
2
 62
256
370
-1
  6
ByLayer
 10
41.460352570240957
 20
5.6645248487046729
 30
0.0
 11
41.4603525702409641
 21
4.9478984426046679
 31
0.0
  0
LINE
  5
19A
100
AcDbEntity
100
AcDbLine
  8
2
 62
256
370
-1
  6
ByLayer
 10
41.4603525702409641
 20
4.9478984426046679
 30
0.0
 11
42.6578334134509589
 21
4.9766102987046565
 31
0.0
  0
LINE
  5
19B
100
AcDbEntity
100
AcDbLine
  8
2
 62
256
370
-1
  6
ByLayer
 10
42.6578334134509589
 20
4.9766102987046565
 30
0.0
 11
43.8553142566609608
 21
5.0053232381346504
 31
0.0
  0
LINE
  5
19C
100
AcDbEntity
100
AcDbLine
  8
2
 62
256
370
-1
  6
ByLayer
 10
43.8553142566609608
 20
5.0053232381346504
 30
0.0
 11
43.8854492472709552
 21
5.6932377881346667
 31
0.0
  0
LINE
  5
19D
100
AcDbEntity
100
AcDbLine
  8
2
 62
256
370
-1
  6
ByLayer
 10
43.8854492472709552
 20
5.6932377881346667
 30
0.0
 11
43.8854492472709552
 21
5.6932377881346667
 31
0.0
  0
SPLINE
  5
19E
  8
2
 62
256
370
-1
  6
ByLayer
100
AcDbEntity
100
AcDbSpline
 70
8
 71
3
 72
8
 73
4
 74
0
 40
0.0
 40
0.0
 40
0.0
 40
0.0
 40
1.0
 40
1.0
 40
1.0
 40
1.0
 10
47.6122532245909582
 20
0.487466639274686
 30
0.0
 10
47.4925304540809563
 20
0.5454377942346582
 30
0.0
 10
47.3434823015809698
 20
0.7050043588146764
 30
0.0
 10
47.2810351881709678
 20
0.842060409324688
 30
0.0
  0
SPLINE
  5
19F
  8
2
 62
256
370
-1
  6
ByLayer
100
AcDbEntity
100
AcDbSpline
 70
8
 71
3
 72
8
 73
4
 74
0
 40
0.0
 40
0.0
 40
0.0
 40
0.0
 40
1.0
 40
1.0
 40
1.0
 40
1.0
 10
47.2810351881709678
 20
0.842060409324688
 30
0.0
 10
47.1596838115609529
 20
1.1083963676046551
 30
0.0
 10
47.1165347776609593
 20
7.04678784557467
 30
0.0
 10
47.2327973921509709
 20
7.480801621254642
 30
0.0
  0
SPLINE
  5
1A0
  8
2
 62
256
370
-1
  6
ByLayer
100
AcDbEntity
100
AcDbSpline
 70
8
 71
3
 72
8
 73
4
 74
0
 40
0.0
 40
0.0
 40
0.0
 40
0.0
 40
1.0
 40
1.0
 40
1.0
 40
1.0
 10
47.2327973921509709
 20
7.480801621254642
 30
0.0
 10
47.3497154212909521
 20
7.9172626394046688
 30
0.0
 10
48.0973286764909673
 20
8.1409518677947119
 30
0.0
 10
48.6292050677209673
 20
7.8986134745646552
 30
0.0
  0
SPLINE
  5
1A1
  8
2
 62
256
370
-1
  6
ByLayer
100
AcDbEntity
100
AcDbSpline
 70
8
 71
3
 72
8
 73
4
 74
0
 40
0.0
 40
0.0
 40
0.0
 40
0.0
 40
1.0
 40
1.0
 40
1.0
 40
1.0
 10
48.6292050677209673
 20
7.8986134745646552
 30
0.0
 10
49.0759335265009682
 20
7.695070211964719
 30
0.0
 10
49.1038476906109622
 20
7.4732266167846717
 30
0.0
 10
49.1038476906109622
 20
4.1264255535546681
 30
0.0
  0
LINE
  5
1A2
100
AcDbEntity
100
AcDbLine
  8
2
 62
256
370
-1
  6
ByLayer
 10
49.1038476906109622
 20
4.1264255535546681
 30
0.0
 11
49.103847690610948
 21
0.9640700894646841
 31
0.0
  0
LINE
  5
1A3
100
AcDbEntity
100
AcDbLine
  8
2
 62
256
370
-1
  6
ByLayer
 10
49.103847690610948
 20
0.9640700894646841
 30
0.0
 11
48.8059471072309563
 21
0.6661702283046509
 31
0.0
  0
SPLINE
  5
1A4
  8
2
 62
256
370
-1
  6
ByLayer
100
AcDbEntity
100
AcDbSpline
 70
8
 71
3
 72
8
 73
4
 74
0
 40
0.0
 40
0.0
 40
0.0
 40
0.0
 40
1.0
 40
1.0
 40
1.0
 40
1.0
 10
48.8059471072309563
 20
0.6661702283046509
 30
0.0
 10
48.4888448607109623
 20
0.3490683428946681
 30
0.0
 10
48.0375942214009655
 20
0.2815129674246748
 30
0.0
 10
47.6122532245909582
 20
0.487466639274686
 30
0.0
  0
LINE
  5
1A5
100
AcDbEntity
100
AcDbLine
  8
2
 62
256
370
-1
  6
ByLayer
 10
47.6122532245909582
 20
0.487466639274686
 30
0.0
 11
47.6122532245909582
 21
0.487466639274686
 31
0.0
  0
SPLINE
  5
1A6
  8
2
 62
256
370
-1
  6
ByLayer
100
AcDbEntity
100
AcDbSpline
 70
8
 71
3
 72
8
 73
4
 74
0
 40
0.0
 40
0.0
 40
0.0
 40
0.0
 40
1.0
 40
1.0
 40
1.0
 40
1.0
 10
51.6476047525309525
 20
0.6029496172746462
 30
0.0
 10
51.3442774080709512
 20
0.7633528737246706
 30
0.0
 10
51.129542985460958
 20
0.9780872963346781
 30
0.0
 10
50.9691397290109549
 20
1.2814146407946509
 30
0.0
  0
SPLINE
  5
1A7
  8
2
 62
256
370
-1
  6
ByLayer
100
AcDbEntity
100
AcDbSpline
 70
8
 71
3
 72
8
 73
4
 74
0
 40
0.0
 40
0.0
 40
0.0
 40
0.0
 40
1.0
 40
1.0
 40
1.0
 40
1.0
 10
50.9691397290109549
 20
1.2814146407946509
 30
0.0
 10
50.7429198417409495
 20
1.7092036022946786
 30
0.0
 10
50.7344597566609607
 20
1.8138514747446948
 30
0.0
 10
50.7344597566609536
 20
4.1844515972346699
 30
0.0
  0
SPLINE
  5
1A8
  8
2
 62
256
370
-1
  6
ByLayer
100
AcDbEntity
100
AcDbSpline
 70
8
 71
3
 72
8
 73
4
 74
0
 40
0.0
 40
0.0
 40
0.0
 40
0.0
 40
1.0
 40
1.0
 40
1.0
 40
1.0
 10
50.7344597566609536
 20
4.1844515972346699
 30
0.0
 10
50.7344597566609607
 20
6.5321114847546937
 30
0.0
 10
50.7448651413109673
 20
6.6643376890146442
 30
0.0
 10
50.9637646066609591
 20
7.0984291033446709
 30
0.0
  0
SPLINE
  5
1A9
  8
2
 62
256
370
-1
  6
ByLayer
100
AcDbEntity
100
AcDbSpline
 70
8
 71
3
 72
8
 73
4
 74
0
 40
0.0
 40
0.0
 40
0.0
 40
0.0
 40
1.0
 40
1.0
 40
1.0
 40
1.0
 10
50.9637646066609591
 20
7.0984291033446709
 30
0.0
 10
51.1312784801209617
 20
7.4306206923247373
 30
0.0
 10
51.3156038296309518
 20
7.6149460418346564
 30
0.0
 10
51.6477954186109613
 20
7.7824599152946519
 30
0.0
  0
SPLINE
  5
1AA
  8
2
 62
256
370
-1
  6
ByLayer
100
AcDbEntity
100
AcDbSpline
 70
8
 71
3
 72
8
 73
4
 74
0
 40
0.0
 40
0.0
 40
0.0
 40
0.0
 40
1.0
 40
1.0
 40
1.0
 40
1.0
 10
51.6477954186109613
 20
7.7824599152946519
 30
0.0
 10
52.0724781118909661
 20
7.9966154785746539
 30
0.0
 10
52.2323924254009597
 20
8.0117647652946573
 30
0.0
 10
54.0682355821909582
 20
8.0117647652947142
 30
0.0
  0
SPLINE
  5
1AB
  8
2
 62
256
370
-1
  6
ByLayer
100
AcDbEntity
100
AcDbSpline
 70
8
 71
3
 72
8
 73
4
 74
0
 40
0.0
 40
0.0
 40
0.0
 40
0.0
 40
1.0
 40
1.0
 40
1.0
 40
1.0
 10
54.0682355821909582
 20
8.0117647652947142
 30
0.0
 10
55.8980655352609617
 20
8.0117647652946573
 30
0.0
 10
56.0480392126909592
 20
7.9976753364246065
 30
0.0
 10
56.2377761566609635
 20
7.8079380313446904
 30
0.0
  0
SPLINE
  5
1AC
  8
2
 62
256
370
-1
  6
ByLayer
100
AcDbEntity
100
AcDbSpline
 70
8
 71
3
 72
8
 73
4
 74
0
 40
0.0
 40
0.0
 40
0.0
 40
0.0
 40
1.0
 40
1.0
 40
1.0
 40
1.0
 10
56.2377761566609635
 20
7.8079380313446904
 30
0.0
 10
56.5494404476909622
 20
7.4962741014246888
 30
0.0
 10
56.5156723293709717
 20
6.8618630534647025
 30
0.0
 10
56.1730757168509669
 20
6.5923756882146449
 30
0.0
  0
SPLINE
  5
1AD
  8
2
 62
256
370
-1
  6
ByLayer
100
AcDbEntity
100
AcDbSpline
 70
8
 71
3
 72
8
 73
4
 74
0
 40
0.0
 40
0.0
 40
0.0
 40
0.0
 40
1.0
 40
1.0
 40
1.0
 40
1.0
 10
56.1730757168509669
 20
6.5923756882146449
 30
0.0
 10
55.9247681753209633
 20
6.3970570669746962
 30
0.0
 10
55.7709443430709655
 20
6.3811523381346831
 30
0.0
 10
54.1301536694509551
 20
6.3811523381346547
 30
0.0
  0
LINE
  5
1AE
100
AcDbEntity
100
AcDbLine
  8
2
 62
256
370
-1
  6
ByLayer
 10
54.1301536694509551
 20
6.3811523381346547
 30
0.0
 11
52.3557591569209535
 21
6.3811523381346547
 31
0.0
  0
LINE
  5
1AF
100
AcDbEntity
100
AcDbLine
  8
2
 62
256
370
-1
  6
ByLayer
 10
52.3557591569209535
 20
6.3811523381346547
 30
0.0
 11
52.3858941475309621
 21
5.6932377881346667
 31
0.0
  0
LINE
  5
1B0
100
AcDbEntity
100
AcDbLine
  8
2
 62
256
370
-1
  6
ByLayer
 10
52.3858941475309621
 20
5.6932377881346667
 30
0.0
 11
52.4160287770309594
 21
5.0053232381346788
 31
0.0
  0
LINE
  5
1B1
100
AcDbEntity
100
AcDbLine
  8
2
 62
256
370
-1
  6
ByLayer
 10
52.4160287770309594
 20
5.0053232381346788
 30
0.0
 11
54.2843963893009587
 21
4.9543666449246473
 31
0.0
  0
SPLINE
  5
1B2
  8
2
 62
256
370
-1
  6
ByLayer
100
AcDbEntity
100
AcDbSpline
 70
8
 71
3
 72
8
 73
4
 74
0
 40
0.0
 40
0.0
 40
0.0
 40
0.0
 40
1.0
 40
1.0
 40
1.0
 40
1.0
 10
54.2843963893009587
 20
4.9543666449246473
 30
0.0
 10
56.380947966130968
 20
4.8971874041947103
 30
0.0
 10
56.4416028906109588
 20
4.874159058384663
 30
0.0
 10
56.4416028906109588
 20
4.135377470454614
 30
0.0
  0
SPLINE
  5
1B3
  8
2
 62
256
370
-1
  6
ByLayer
100
AcDbEntity
100
AcDbSpline
 70
8
 71
3
 72
8
 73
4
 74
0
 40
0.0
 40
0.0
 40
0.0
 40
0.0
 40
1.0
 40
1.0
 40
1.0
 40
1.0
 10
56.4416028906109588
 20
4.135377470454614
 30
0.0
 10
56.4416028906109659
 20
3.4765091644147503
 30
0.0
 10
56.3147951419009516
 20
3.4342058501346457
 30
0.0
 10
54.2451325378909601
 20
3.402623169534678
 30
0.0
  0
LINE
  5
1B4
100
AcDbEntity
100
AcDbLine
  8
2
 62
256
370
-1
  6
ByLayer
 10
54.2451325378909601
 20
3.402623169534678
 30
0.0
 11
52.4160287770309523
 21
3.3747111720846874
 31
0.0
  0
LINE
  5
1B5
100
AcDbEntity
100
AcDbLine
  8
2
 62
256
370
-1
  6
ByLayer
 10
52.4160287770309523
 20
3.3747111720846874
 30
0.0
 11
52.3858941475309621
 21
2.6867966220846995
 31
0.0
  0
LINE
  5
1B6
100
AcDbEntity
100
AcDbLine
  8
2
 62
256
370
-1
  6
ByLayer
 10
52.3858941475309621
 20
2.6867966220846995
 30
0.0
 11
52.3557591569209606
 21
1.9988820720846832
 31
0.0
  0
LINE
  5
1B7
100
AcDbEntity
100
AcDbLine
  8
2
 62
256
370
-1
  6
ByLayer
 10
52.3557591569209606
 20
1.9988820720846832
 30
0.0
 11
54.1301536694509551
 21
1.9988820720846547
 31
0.0
  0
SPLINE
  5
1B8
  8
2
 62
256
370
-1
  6
ByLayer
100
AcDbEntity
100
AcDbSpline
 70
8
 71
3
 72
8
 73
4
 74
0
 40
0.0
 40
0.0
 40
0.0
 40
0.0
 40
1.0
 40
1.0
 40
1.0
 40
1.0
 10
54.1301536694509551
 20
1.9988820720846547
 30
0.0
 10
55.7709443430709584
 20
1.9988820720846832
 30
0.0
 10
55.9247681753209562
 20
1.98297734324467
 30
0.0
 10
56.1730757168509527
 20
1.7876587220046929
 30
0.0
  0
SPLINE
  5
1B9
  8
2
 62
256
370
-1
  6
ByLayer
100
AcDbEntity
100
AcDbSpline
 70
8
 71
3
 72
8
 73
4
 74
0
 40
0.0
 40
0.0
 40
0.0
 40
0.0
 40
1.0
 40
1.0
 40
1.0
 40
1.0
 10
56.1730757168509527
 20
1.7876587220046929
 30
0.0
 10
56.5524203274109496
 20
1.4892666679146487
 30
0.0
 10
56.5524203274109567
 20
0.8778850490946866
 30
0.0
 10
56.173075716850974
 20
0.5794929950046992
 30
0.0
  0
SPLINE
  5
1BA
  8
2
 62
256
370
-1
  6
ByLayer
100
AcDbEntity
100
AcDbSpline
 70
8
 71
3
 72
8
 73
4
 74
0
 40
0.0
 40
0.0
 40
0.0
 40
0.0
 40
1.0
 40
1.0
 40
1.0
 40
1.0
 10
56.173075716850974
 20
0.5794929950046992
 30
0.0
 10
55.923148596970961
 20
0.3829003776846491
 30
0.0
 10
55.772487004990964
 20
0.3682696449246805
 30
0.0
 10
53.9979704372809479
 20
0.3682696449246805
 30
0.0
  0
SPLINE
  5
1BB
  8
2
 62
256
370
-1
  6
ByLayer
100
AcDbEntity
100
AcDbSpline
 70
8
 71
3
 72
8
 73
4
 74
0
 40
0.0
 40
0.0
 40
0.0
 40
0.0
 40
1.0
 40
1.0
 40
1.0
 40
1.0
 10
53.9979704372809479
 20
0.3682696449246805
 30
0.0
 10
52.2042623175109597
 20
0.3682696449247089
 30
0.0
 10
52.0651190512009379
 20
0.3821626299546494
 30
0.0
 10
51.6476047525309525
 20
0.6029496172746462
 30
0.0
  0
LINE
  5
1BC
100
AcDbEntity
100
AcDbLine
  8
2
 62
256
370
-1
  6
ByLayer
 10
51.6476047525309525
 20
0.6029496172746462
 30
0.0
 11
51.6476047525309525
 21
0.6029496172746462
 31
0.0
  0
SPLINE
  5
1BD
  8
2
 62
256
370
-1
  6
ByLayer
100
AcDbEntity
100
AcDbSpline
 70
8
 71
3
 72
8
 73
4
 74
0
 40
0.0
 40
0.0
 40
0.0
 40
0.0
 40
1.0
 40
1.0
 40
1.0
 40
1.0
 10
58.4426556779509667
 20
0.5794929950046708
 30
0.0
 10
58.2355309263709486
 20
0.7424178825846752
 30
0.0
 10
58.1741281430809778
 20
0.8805489575646561
 30
0.0
 10
58.1741281430809636
 20
1.183575858504696
 30
0.0
  0
SPLINE
  5
1BE
  8
2
 62
256
370
-1
  6
ByLayer
100
AcDbEntity
100
AcDbSpline
 70
8
 71
3
 72
8
 73
4
 74
0
 40
0.0
 40
0.0
 40
0.0
 40
0.0
 40
1.0
 40
1.0
 40
1.0
 40
1.0
 10
58.1741281430809636
 20
1.183575858504696
 30
0.0
 10
58.1741281430809565
 20
1.4866027594447075
 30
0.0
 10
58.23553092637097
 20
1.62473383442466
 30
0.0
 10
58.4426556779509667
 20
1.7876587220046929
 30
0.0
  0
SPLINE
  5
1BF
  8
2
 62
256
370
-1
  6
ByLayer
100
AcDbEntity
100
AcDbSpline
 70
8
 71
3
 72
8
 73
4
 74
0
 40
0.0
 40
0.0
 40
0.0
 40
0.0
 40
1.0
 40
1.0
 40
1.0
 40
1.0
 10
58.4426556779509667
 20
1.7876587220046929
 30
0.0
 10
58.690901830780966
 20
1.9829296767246376
 30
0.0
 10
58.844840857120964
 20
1.9988820720847116
 30
0.0
 10
60.4809208507909659
 20
1.99888207208474
 30
0.0
  0
LINE
  5
1C0
100
AcDbEntity
100
AcDbLine
  8
2
 62
256
370
-1
  6
ByLayer
 10
60.4809208507909659
 20
1.99888207208474
 30
0.0
 11
62.2506588498709519
 21
1.9988820720846263
 31
0.0
  0
LINE
  5
1C1
100
AcDbEntity
100
AcDbLine
  8
2
 62
256
370
-1
  6
ByLayer
 10
62.2506588498709519
 20
1.9988820720846263
 30
0.0
 11
62.250658849870959
 21
2.6499854297946399
 31
0.0
  0
LINE
  5
1C2
100
AcDbEntity
100
AcDbLine
  8
2
 62
256
370
-1
  6
ByLayer
 10
62.250658849870959
 20
2.6499854297946399
 30
0.0
 11
62.2506588498709519
 21
3.3010880652846595
 31
0.0
  0
LINE
  5
1C3
100
AcDbEntity
100
AcDbLine
  8
2
 62
256
370
-1
  6
ByLayer
 10
62.2506588498709519
 20
3.3010880652846595
 30
0.0
 11
60.7983950406109486
 21
3.3388439213345862
 31
0.0
  0
SPLINE
  5
1C4
  8
2
 62
256
370
-1
  6
ByLayer
100
AcDbEntity
100
AcDbSpline
 70
8
 71
3
 72
8
 73
4
 74
0
 40
0.0
 40
0.0
 40
0.0
 40
0.0
 40
1.0
 40
1.0
 40
1.0
 40
1.0
 10
60.7983950406109486
 20
3.3388439213345862
 30
0.0
 10
59.207800823650949
 20
3.3801960718746784
 30
0.0
 10
58.8774949510909664
 20
3.4825935068047045
 30
0.0
 10
58.4395645763509606
 20
4.0700988935346629
 30
0.0
  0
SPLINE
  5
1C5
  8
2
 62
256
370
-1
  6
ByLayer
100
AcDbEntity
100
AcDbSpline
 70
8
 71
3
 72
8
 73
4
 74
0
 40
0.0
 40
0.0
 40
0.0
 40
0.0
 40
1.0
 40
1.0
 40
1.0
 40
1.0
 10
58.4395645763509606
 20
4.0700988935346629
 30
0.0
 10
58.2475822504009599
 20
4.3276522955046914
 30
0.0
 10
58.2250850974009637
 20
4.4952362243047048
 30
0.0
 10
58.2250850974009637
 20
5.667759672084685
 30
0.0
  0
SPLINE
  5
1C6
  8
2
 62
256
370
-1
  6
ByLayer
100
AcDbEntity
100
AcDbSpline
 70
8
 71
3
 72
8
 73
4
 74
0
 40
0.0
 40
0.0
 40
0.0
 40
0.0
 40
1.0
 40
1.0
 40
1.0
 40
1.0
 10
58.2250850974009637
 20
5.667759672084685
 30
0.0
 10
58.2250850974009637
 20
7.0959352776846458
 30
0.0
 10
58.283806277830962
 20
7.2703282966447205
 30
0.0
 10
58.9264430504809624
 20
7.7506844019546577
 30
0.0
  0
SPLINE
  5
1C7
  8
2
 62
256
370
-1
  6
ByLayer
100
AcDbEntity
100
AcDbSpline
 70
8
 71
3
 72
8
 73
4
 74
0
 40
0.0
 40
0.0
 40
0.0
 40
0.0
 40
1.0
 40
1.0
 40
1.0
 40
1.0
 10
58.9264430504809624
 20
7.7506844019546577
 30
0.0
 10
59.1846594504109689
 20
7.9436958914046158
 30
0.0
 10
59.3736770632609634
 20
7.9633731364147309
 30
0.0
 10
61.2473728535809627
 20
7.9923063529447234
 30
0.0
  0
SPLINE
  5
1C8
  8
2
 62
256
370
-1
  6
ByLayer
100
AcDbEntity
100
AcDbSpline
 70
8
 71
3
 72
8
 73
4
 74
0
 40
0.0
 40
0.0
 40
0.0
 40
0.0
 40
1.0
 40
1.0
 40
1.0
 40
1.0
 10
61.2473728535809627
 20
7.9923063529447234
 30
0.0
 10
62.9283720423709667
 20
8.0182647452947151
 30
0.0
 10
63.3282786174409651
 20
7.9968845055246618
 30
0.0
 10
63.5207581918609634
 20
7.8707668380247071
 30
0.0
  0
SPLINE
  5
1C9
  8
2
 62
256
370
-1
  6
ByLayer
100
AcDbEntity
100
AcDbSpline
 70
8
 71
3
 72
8
 73
4
 74
0
 40
0.0
 40
0.0
 40
0.0
 40
0.0
 40
1.0
 40
1.0
 40
1.0
 40
1.0
 10
63.5207581918609634
 20
7.8707668380247071
 30
0.0
 10
63.9947168724109687
 20
7.5602176546746875
 30
0.0
 10
63.9285763259209645
 20
6.7321194804546565
 30
0.0
 10
63.4109782240909681
 20
6.4962857616546898
 30
0.0
  0
SPLINE
  5
1CA
  8
2
 62
256
370
-1
  6
ByLayer
100
AcDbEntity
100
AcDbSpline
 70
8
 71
3
 72
8
 73
4
 74
0
 40
0.0
 40
0.0
 40
0.0
 40
0.0
 40
1.0
 40
1.0
 40
1.0
 40
1.0
 10
63.4109782240909681
 20
6.4962857616546898
 30
0.0
 10
63.2558854513009337
 20
6.4256212290846122
 30
0.0
 10
62.5106612998609634
 20
6.3811523381346831
 30
0.0
 10
61.4815144109209655
 20
6.3811523381347115
 30
0.0
  0
LINE
  5
1CB
100
AcDbEntity
100
AcDbLine
  8
2
 62
256
370
-1
  6
ByLayer
 10
61.4815144109209655
 20
6.3811523381347115
 30
0.0
 11
59.8047405702409662
 21
6.3811523381346831
 31
0.0
  0
LINE
  5
1CC
100
AcDbEntity
100
AcDbLine
  8
2
 62
256
370
-1
  6
ByLayer
 10
59.8047405702409662
 20
6.3811523381346831
 30
0.0
 11
59.8047405702409591
 21
5.7187162652946313
 31
0.0
  0
LINE
  5
1CD
100
AcDbEntity
100
AcDbLine
  8
2
 62
256
370
-1
  6
ByLayer
 10
59.8047405702409591
 20
5.7187162652946313
 30
0.0
 11
59.8047405702409662
 21
5.0562798313447104
 31
0.0
  0
LINE
  5
1CE
100
AcDbEntity
100
AcDbLine
  8
2
 62
256
370
-1
  6
ByLayer
 10
59.8047405702409662
 20
5.0562798313447104
 30
0.0
 11
61.0531780066609713
 21
5.0518071228846395
 31
0.0
  0
SPLINE
  5
1CF
  8
2
 62
256
370
-1
  6
ByLayer
100
AcDbEntity
100
AcDbSpline
 70
8
 71
3
 72
8
 73
4
 74
0
 40
0.0
 40
0.0
 40
0.0
 40
0.0
 40
1.0
 40
1.0
 40
1.0
 40
1.0
 10
61.0531780066609713
 20
5.0518071228846395
 30
0.0
 10
62.7909227430709649
 20
5.0455801420446278
 30
0.0
 10
63.2970696856909569
 20
4.8410004937446729
 30
0.0
 10
63.6895998667909709
 20
3.9861906517147077
 30
0.0
  0
SPLINE
  5
1D0
  8
2
 62
256
370
-1
  6
ByLayer
100
AcDbEntity
100
AcDbSpline
 70
8
 71
3
 72
8
 73
4
 74
0
 40
0.0
 40
0.0
 40
0.0
 40
0.0
 40
1.0
 40
1.0
 40
1.0
 40
1.0
 10
63.6895998667909709
 20
3.9861906517147077
 30
0.0
 10
63.9225400111609616
 20
3.4789174070047011
 30
0.0
 10
63.9534799159609619
 20
1.9572717278946925
 30
0.0
 10
63.7409529587809587
 20
1.4605638395645997
 30
0.0
  0
SPLINE
  5
1D1
  8
2
 62
256
370
-1
  6
ByLayer
100
AcDbEntity
100
AcDbSpline
 70
8
 71
3
 72
8
 73
4
 74
0
 40
0.0
 40
0.0
 40
0.0
 40
0.0
 40
1.0
 40
1.0
 40
1.0
 40
1.0
 10
63.7409529587809587
 20
1.4605638395645997
 30
0.0
 10
63.5712623142409541
 20
1.0639704487447261
 30
0.0
 10
63.1185318461509581
 20
0.6241771075146403
 30
0.0
 10
62.7281123530009594
 20
0.4766665613946657
 30
0.0
  0
SPLINE
  5
1D2
  8
2
 62
256
370
-1
  6
ByLayer
100
AcDbEntity
100
AcDbSpline
 70
8
 71
3
 72
8
 73
4
 74
0
 40
0.0
 40
0.0
 40
0.0
 40
0.0
 40
1.0
 40
1.0
 40
1.0
 40
1.0
 10
62.7281123530009594
 20
0.4766665613946657
 30
0.0
 10
62.5635223872109663
 20
0.4144801694046691
 30
0.0
 10
61.6461462654709749
 20
0.3682696449246521
 30
0.0
 10
60.5761997242909587
 20
0.3682696449246805
 30
0.0
  0
SPLINE
  5
1D3
  8
2
 62
256
370
-1
  6
ByLayer
100
AcDbEntity
100
AcDbSpline
 70
8
 71
3
 72
8
 73
4
 74
0
 40
0.0
 40
0.0
 40
0.0
 40
0.0
 40
1.0
 40
1.0
 40
1.0
 40
1.0
 10
60.5761997242909587
 20
0.3682696449246805
 30
0.0
 10
58.8437289994309793
 20
0.3682696449246805
 30
0.0
 10
58.692098549320967
 20
0.3832817098446526
 30
0.0
 10
58.4426556779509667
 20
0.5794929950046708
 30
0.0
  0
LINE
  5
1D4
100
AcDbEntity
100
AcDbLine
  8
2
 62
256
370
-1
  6
ByLayer
 10
58.4426556779509667
 20
0.5794929950046708
 30
0.0
 11
58.4426556779509667
 21
0.5794929950046708
 31
0.0
  0
CIRCLE
  5
1D5
100
AcDbEntity
100
AcDbCircle
  8
2
 62
256
370
-1
  6
ByLayer
 10
32.5
 20
32.5
 30
0.0
 40
0.25
  0
ENDSEC
  0
SECTION
  2
OBJECTS
  0
DICTIONARY
  5
C
100
AcDbDictionary
280
0
281
1
  3
ACAD_GROUP
350
D
  3
ACAD_LAYOUT
350
1A
  3
ACAD_MLINESTYLE
350
17
  3
ACAD_PLOTSETTINGS
350
19
  3
ACAD_PLOTSTYLENAME
350
E
  3
AcDbVariableDictionary
350
1D6
  0
DICTIONARY
  5
D
100
AcDbDictionary
280
0
281
1
  0
ACDBDICTIONARYWDFLT
  5
E
100
AcDbDictionary
281
1
  3
Normal
350
F
100
AcDbDictionaryWithDefault
340
F
  0
ACDBPLACEHOLDER
  5
F
  0
DICTIONARY
  5
17
100
AcDbDictionary
280
0
281
1
  3
Standard
350
18
  0
MLINESTYLE
  5
18
100
AcDbMlineStyle
  2
STANDARD
 70
0
  3

 62
256
 51
90.0
 52
90.0
 71
2
 49
0.5
 62
256
  6
BYLAYER
 49
-0.5
 62
256
  6
BYLAYER
  0
DICTIONARY
  5
19
100
AcDbDictionary
280
0
281
1
  0
DICTIONARY
  5
1A
100
AcDbDictionary
281
1
  3
Layout1
350
1E
  3
Layout2
350
26
  3
Model
350
22
  0
LAYOUT
  5
1E
100
AcDbPlotSettings
  1

  2
C:\Program Files\AutoCAD 2002\plotters\DWF ePlot (optimized for plotting).pc3
  4

  6

 40
0.0
 41
0.0
 42
0.0
 43
0.0
 44
0.0
 45
0.0
 46
0.0
 47
0.0
 48
0.0
 49
0.0
140
0.0
141
0.0
142
1.0
143
1.0
 70
688
 72
0
 73
0
 74
5
  7

 75
16
147
1.0
148
0.0
149
0.0
100
AcDbLayout
  1
Layout1
 70
1
 71
1
 10
0.0
 20
0.0
 11
420.0
 21
297.0
 12
0.0
 22
0.0
 32
0.0
 14
100000000000000000000.0
 24
100000000000000000000.0
 34
100000000000000000000.0
 15
-100000000000000000000.0
 25
-100000000000000000000.0
 35
-100000000000000000000.0
146
0.0
 13
0.0
 23
0.0
 33
0.0
 16
1.0
 26
0.0
 36
0.0
 17
0.0
 27
1.0
 37
0.0
 76
0
330
1B
  0
LAYOUT
  5
22
100
AcDbPlotSettings
  1

  2
C:\Program Files\AutoCAD 2002\plotters\DWF ePlot (optimized for plotting).pc3
  4

  6

 40
0.0
 41
0.0
 42
0.0
 43
0.0
 44
0.0
 45
0.0
 46
0.0
 47
0.0
 48
0.0
 49
0.0
140
0.0
141
0.0
142
1.0
143
1.0
 70
1712
 72
0
 73
0
 74
0
  7

 75
0
147
1.0
148
0.0
149
0.0
100
AcDbLayout
  1
Model
 70
1
 71
0
 10
0.0
 20
0.0
 11
12.0
 21
9.0
 12
0.0
 22
0.0
 32
0.0
 14
0.0
 24
0.0
 34
0.0
 15
0.0
 25
0.0
 35
0.0
146
0.0
 13
0.0
 23
0.0
 33
0.0
 16
1.0
 26
0.0
 36
0.0
 17
0.0
 27
1.0
 37
0.0
 76
0
330
1F
  0
LAYOUT
  5
26
100
AcDbPlotSettings
  1

  2
C:\Program Files\AutoCAD 2002\plotters\DWF ePlot (optimized for plotting).pc3
  4

  6

 40
0.0
 41
0.0
 42
0.0
 43
0.0
 44
0.0
 45
0.0
 46
0.0
 47
0.0
 48
0.0
 49
0.0
140
0.0
141
0.0
142
1.0
143
1.0
 70
688
 72
0
 73
0
 74
5
  7

 75
16
147
1.0
148
0.0
149
0.0
100
AcDbLayout
  1
Layout2
 70
1
 71
2
 10
0.0
 20
0.0
 11
12.0
 21
9.0
 12
0.0
 22
0.0
 32
0.0
 14
0.0
 24
0.0
 34
0.0
 15
0.0
 25
0.0
 35
0.0
146
0.0
 13
0.0
 23
0.0
 33
0.0
 16
1.0
 26
0.0
 36
0.0
 17
0.0
 27
1.0
 37
0.0
 76
0
330
23
  0
DICTIONARY
  5
1D6
100
AcDbDictionary
281
1
  3
DIMASSOC
350
1D8
  3
HIDETEXT
350
1D7
  0
DICTIONARYVAR
  5
1D7
100
DictionaryVariables
280
0
  1
2
  0
DICTIONARYVAR
  5
1D8
100
DictionaryVariables
280
0
  1
1
  0
ENDSEC
  0
EOF
