999
dxflib 2.2.0.0
  0
SECTION
  2
HEADER
  9
$ACADVER
  1
AC1015
  9
$HANDSEED
  5
FFFF
  9
$DIMASZ
 40
2.5
  9
$GRIDMODE
 70
1
  9
$PLIMMIN
 10
0.0
 20
0.0
  9
$DIMEXE
 40
1.25
  9
$DIMGAP
 40
0.625
  9
$PLIMMAX
 10
210.0
 20
297.0
  9
$INSUNITS
 70
4
  9
$DIMSTYLE
  2
Standard
  9
$CLAYER
  8
0
  9
$DIMEXO
 40
0.625
  9
$DIMTXT
 40
2.5
  9
$CLAYER
  8
0
  0
ENDSEC
  0
SECTION
  2
TABLES
  0
TABLE
  2
VPORT
  5
8
100
AcDbSymbolTable
 70
1
  0
VPORT
  5
30
100
AcDbSymbolTableRecord
100
AcDbViewportTableRecord
  2
*Active
 70
0
 10
0.0
 20
0.0
 11
1.0
 21
1.0
 12
286.3055555555554861
 22
148.5
 13
0.0
 23
0.0
 14
10.0
 24
10.0
 15
10.0
 25
10.0
 16
0.0
 26
0.0
 36
1.0
 17
0.0
 27
0.0
 37
0.0
 40
297.0
 41
1.92798353909465
 42
50.0
 43
0.0
 44
0.0
 50
0.0
 51
0.0
 71
0
 72
100
 73
1
 74
3
 75
1
 76
1
 77
0
 78
0
281
0
 65
1
110
0.0
120
0.0
130
0.0
111
1.0
121
0.0
131
0.0
112
0.0
122
1.0
132
0.0
 79
0
146
0.0
  0
ENDTAB
  0
TABLE
  2
LTYPE
  5
5
100
AcDbSymbolTable
 70
21
  0
LTYPE
  5
14
100
AcDbSymbolTableRecord
100
AcDbLinetypeTableRecord
  2
ByBlock
 70
0
  3

 72
65
 73
0
 40
0.0
  0
LTYPE
  5
15
100
AcDbSymbolTableRecord
100
AcDbLinetypeTableRecord
  2
ByLayer
 70
0
  3

 72
65
 73
0
 40
0.0
  0
LTYPE
  5
16
100
AcDbSymbolTableRecord
100
AcDbLinetypeTableRecord
  2
CONTINUOUS
 70
0
  3
Solid line
 72
65
 73
0
 40
0.0
  0
LTYPE
  5
31
100
AcDbSymbolTableRecord
100
AcDbLinetypeTableRecord
  2
DOT
 70
0
  3
Dot . . . . . . . . . . . . . . . . . . . . . .
 72
65
 73
2
 40
6.3499999999999996
 49
0.0
 74
0
 49
-6.3499999999999996
 74
0
  0
LTYPE
  5
32
100
AcDbSymbolTableRecord
100
AcDbLinetypeTableRecord
  2
DOT2
 70
0
  3
Dot (.5x) .....................................
 72
65
 73
2
 40
3.1749999999999998
 49
0.0
 74
0
 49
-3.1749999999999998
 74
0
  0
LTYPE
  5
33
100
AcDbSymbolTableRecord
100
AcDbLinetypeTableRecord
  2
DOTX2
 70
0
  3
Dot (2x) .  .  .  .  .  .  .  .  .  .  .  .  .
 72
65
 73
2
 40
12.6999999999999993
 49
0.0
 74
0
 49
-12.6999999999999993
 74
0
  0
LTYPE
  5
34
100
AcDbSymbolTableRecord
100
AcDbLinetypeTableRecord
  2
DASHED
 70
0
  3
Dashed __ __ __ __ __ __ __ __ __ __ __ __ __ _
 72
65
 73
2
 40
19.0500000000000007
 49
12.6999999999999993
 74
0
 49
-6.3499999999999996
 74
0
  0
LTYPE
  5
35
100
AcDbSymbolTableRecord
100
AcDbLinetypeTableRecord
  2
DASHED2
 70
0
  3
Dashed (.5x) _ _ _ _ _ _ _ _ _ _ _ _ _ _ _ _ _
 72
65
 73
2
 40
9.5250000000000004
 49
6.3499999999999996
 74
0
 49
-3.1749999999999998
 74
0
  0
LTYPE
  5
36
100
AcDbSymbolTableRecord
100
AcDbLinetypeTableRecord
  2
DASHEDX2
 70
0
  3
Dashed (2x) ____  ____  ____  ____  ____  ___
 72
65
 73
2
 40
38.1000000000000014
 49
25.3999999999999986
 74
0
 49
-12.6999999999999993
 74
0
  0
LTYPE
  5
37
100
AcDbSymbolTableRecord
100
AcDbLinetypeTableRecord
  2
DASHDOT
 70
0
  3
Dash dot __ . __ . __ . __ . __ . __ . __ . __
 72
65
 73
4
 40
25.3999999999999986
 49
12.6999999999999993
 74
0
 49
-6.3499999999999996
 74
0
 49
0.0
 74
0
 49
-6.3499999999999996
 74
0
  0
LTYPE
  5
38
100
AcDbSymbolTableRecord
100
AcDbLinetypeTableRecord
  2
DASHDOT2
 70
0
  3
Dash dot (.5x) _._._._._._._._._._._._._._._.
 72
65
 73
4
 40
12.6999999999999993
 49
6.3499999999999996
 74
0
 49
-3.1749999999999998
 74
0
 49
0.0
 74
0
 49
-3.1749999999999998
 74
0
  0
LTYPE
  5
39
100
AcDbSymbolTableRecord
100
AcDbLinetypeTableRecord
  2
DASHDOTX2
 70
0
  3
Dash dot (2x) ____  .  ____  .  ____  .  ___
 72
65
 73
4
 40
50.7999999999999972
 49
25.3999999999999986
 74
0
 49
-12.6999999999999993
 74
0
 49
0.0
 74
0
 49
-12.6999999999999993
 74
0
  0
LTYPE
  5
3A
100
AcDbSymbolTableRecord
100
AcDbLinetypeTableRecord
  2
DIVIDE
 70
0
  3
Divide ____ . . ____ . . ____ . . ____ . . ____
 72
65
 73
6
 40
31.75
 49
12.6999999999999993
 74
0
 49
-6.3499999999999996
 74
0
 49
0.0
 74
0
 49
-6.3499999999999996
 74
0
 49
0.0
 74
0
 49
-6.3499999999999996
 74
0
  0
LTYPE
  5
3B
100
AcDbSymbolTableRecord
100
AcDbLinetypeTableRecord
  2
DIVIDE2
 70
0
  3
Divide (.5x) __..__..__..__..__..__..__..__.._
 72
65
 73
6
 40
15.875
 49
6.3499999999999996
 74
0
 49
-3.1749999999999998
 74
0
 49
0.0
 74
0
 49
-3.1749999999999998
 74
0
 49
0.0
 74
0
 49
-3.1749999999999998
 74
0
  0
LTYPE
  5
3C
100
AcDbSymbolTableRecord
100
AcDbLinetypeTableRecord
  2
DIVIDEX2
 70
0
  3
Divide (2x) ________  .  .  ________  .  .  _
 72
65
 73
6
 40
63.5
 49
25.3999999999999986
 74
0
 49
-12.6999999999999993
 74
0
 49
0.0
 74
0
 49
-12.6999999999999993
 74
0
 49
0.0
 74
0
 49
-12.6999999999999993
 74
0
  0
LTYPE
  5
3D
100
AcDbSymbolTableRecord
100
AcDbLinetypeTableRecord
  2
CENTER
 70
0
  3
Center ____ _ ____ _ ____ _ ____ _ ____ _ ____
 72
65
 73
4
 40
50.7999999999999972
 49
31.75
 74
0
 49
-6.3499999999999996
 74
0
 49
6.3499999999999996
 74
0
 49
-6.3499999999999996
 74
0
  0
LTYPE
  5
3E
100
AcDbSymbolTableRecord
100
AcDbLinetypeTableRecord
  2
CENTER2
 70
0
  3
Center (.5x) ___ _ ___ _ ___ _ ___ _ ___ _ ___
 72
65
 73
4
 40
28.5749999999999993
 49
19.0500000000000007
 74
0
 49
-3.1749999999999998
 74
0
 49
3.1749999999999998
 74
0
 49
-3.1749999999999998
 74
0
  0
LTYPE
  5
3F
100
AcDbSymbolTableRecord
100
AcDbLinetypeTableRecord
  2
CENTERX2
 70
0
  3
Center (2x) ________  __  ________  __  _____
 72
65
 73
4
 40
101.5999999999999943
 49
63.5
 74
0
 49
-12.6999999999999993
 74
0
 49
12.6999999999999993
 74
0
 49
-12.6999999999999993
 74
0
  0
LTYPE
  5
40
100
AcDbSymbolTableRecord
100
AcDbLinetypeTableRecord
  2
BORDER
 70
0
  3
Border __ __ . __ __ . __ __ . __ __ . __ __ .
 72
65
 73
6
 40
44.4500000000000028
 49
12.6999999999999993
 74
0
 49
-6.3499999999999996
 74
0
 49
12.6999999999999993
 74
0
 49
-6.3499999999999996
 74
0
 49
0.0
 74
0
 49
-6.3499999999999996
 74
0
  0
LTYPE
  5
41
100
AcDbSymbolTableRecord
100
AcDbLinetypeTableRecord
  2
BORDER2
 70
0
  3
Border (.5x) __.__.__.__.__.__.__.__.__.__.__.
 72
65
 73
6
 40
22.2250000000000014
 49
6.3499999999999996
 74
0
 49
-3.1749999999999998
 74
0
 49
6.3499999999999996
 74
0
 49
-3.1749999999999998
 74
0
 49
0.0
 74
0
 49
-3.1749999999999998
 74
0
  0
LTYPE
  5
42
100
AcDbSymbolTableRecord
100
AcDbLinetypeTableRecord
  2
BORDERX2
 70
0
  3
Border (2x) ____  ____  .  ____  ____  .  ___
 72
65
 73
6
 40
88.9000000000000057
 49
25.3999999999999986
 74
0
 49
-12.6999999999999993
 74
0
 49
25.3999999999999986
 74
0
 49
-12.6999999999999993
 74
0
 49
0.0
 74
0
 49
-12.6999999999999993
 74
0
  0
ENDTAB
  0
TABLE
  2
LAYER
  5
2
100
AcDbSymbolTable
 70
2
  0
LAYER
  5
10
100
AcDbSymbolTableRecord
100
AcDbLayerTableRecord
  2
0
 70
0
 62
7
420
0
  6
CONTINUOUS
370
25
390
F
  0
LAYER
  5
43
100
AcDbSymbolTableRecord
100
AcDbLayerTableRecord
  2
Motor Plate
 70
0
 62
7
420
0
  6
CONTINUOUS
370
0
390
F
  0
ENDTAB
  0
TABLE
  2
STYLE
  5
3
100
AcDbSymbolTable
 70
1
  0
STYLE
  5
11
100
AcDbSymbolTableRecord
100
AcDbTextStyleTableRecord
  2
Standard
 70
0
 40
0.0
 41
0.75
 50
0.0
 71
0
 42
2.5
  3
txt
  4

  0
ENDTAB
  0
TABLE
  2
VIEW
  5
6
100
AcDbSymbolTable
 70
0
  0
ENDTAB
  0
TABLE
  2
UCS
  5
7
100
AcDbSymbolTable
 70
0
  0
ENDTAB
  0
TABLE
  2
APPID
  5
9
100
AcDbSymbolTable
 70
1
  0
APPID
  5
12
100
AcDbSymbolTableRecord
100
AcDbRegAppTableRecord
  2
ACAD
 70
0
  0
ENDTAB
  0
TABLE
  2
DIMSTYLE
  5
A
100
AcDbSymbolTable
 70
1
100
AcDbDimStyleTable
 71
0
  0
DIMSTYLE
105
27
100
AcDbSymbolTableRecord
100
AcDbDimStyleTableRecord
  2
Standard
 41
2.5
 42
0.625
 43
3.75
 44
1.25
 70
0
 73
0
 74
0
 77
1
 78
8
140
2.5
141
2.5
143
0.03937007874016
147
0.625
171
3
172
1
271
2
272
2
274
3
278
44
283
0
284
8
340
11
  0
ENDTAB
  0
TABLE
  2
BLOCK_RECORD
  5
1
100
AcDbSymbolTable
 70
1
  0
BLOCK_RECORD
  5
1F
100
AcDbSymbolTableRecord
100
AcDbBlockTableRecord
  2
*Model_Space
340
22
  0
BLOCK_RECORD
  5
1B
100
AcDbSymbolTableRecord
100
AcDbBlockTableRecord
  2
*Paper_Space
340
1E
  0
BLOCK_RECORD
  5
23
100
AcDbSymbolTableRecord
100
AcDbBlockTableRecord
  2
*Paper_Space0
340
26
  0
BLOCK_RECORD
  5
44
100
AcDbSymbolTableRecord
100
AcDbBlockTableRecord
  2
slots
340
0
  0
BLOCK_RECORD
  5
45
100
AcDbSymbolTableRecord
100
AcDbBlockTableRecord
  2
tabs
340
0
  0
BLOCK_RECORD
  5
46
100
AcDbSymbolTableRecord
100
AcDbBlockTableRecord
  2
tabs no ts
340
0
  0
BLOCK_RECORD
  5
47
100
AcDbSymbolTableRecord
100
AcDbBlockTableRecord
  2
tbits
340
0
  0
ENDTAB
  0
ENDSEC
  0
SECTION
  2
BLOCKS
  0
BLOCK
  5
20
100
AcDbEntity
  8
0
100
AcDbBlockBegin
  2
*Model_Space
 70
0
 10
0.0
 20
0.0
 30
0.0
  3
*Model_Space
  1

  0
ENDBLK
  5
21
100
AcDbEntity
  8
0
100
AcDbBlockEnd
  0
BLOCK
  5
1C
100
AcDbEntity
 67
1
  8
0
100
AcDbBlockBegin
  2
*Paper_Space
 70
0
 10
0.0
 20
0.0
 30
0.0
  3
*Paper_Space
  1

  0
ENDBLK
  5
1D
100
AcDbEntity
 67
1
  8
0
100
AcDbBlockEnd
  0
BLOCK
  5
24
100
AcDbEntity
  8
0
100
AcDbBlockBegin
  2
*Paper_Space0
 70
0
 10
0.0
 20
0.0
 30
0.0
  3
*Paper_Space0
  1

  0
ENDBLK
  5
25
100
AcDbEntity
  8
0
100
AcDbBlockEnd
  0
BLOCK
  5
48
100
AcDbEntity
  8
0
100
AcDbBlockBegin
  2
slots
 70
0
 10
0.0
 20
0.0
 30
0.0
  3
slots
  1

  0
LINE
  5
49
100
AcDbEntity
100
AcDbLine
  8
0
 62
256
370
-1
  6
ByLayer
 10
5.0
 20
-1.5
 30
0.0
 11
5.0
 21
1.5
 31
0.0
  0
LINE
  5
4A
100
AcDbEntity
100
AcDbLine
  8
0
 62
256
370
-1
  6
ByLayer
 10
5.0
 20
1.5
 30
0.0
 11
15.0
 21
1.5
 31
0.0
  0
LINE
  5
4B
100
AcDbEntity
100
AcDbLine
  8
0
 62
256
370
-1
  6
ByLayer
 10
15.0
 20
1.5
 30
0.0
 11
15.0
 21
-1.5
 31
0.0
  0
LINE
  5
4C
100
AcDbEntity
100
AcDbLine
  8
0
 62
256
370
-1
  6
ByLayer
 10
15.0
 20
-1.5
 30
0.0
 11
5.0
 21
-1.5
 31
0.0
  0
LINE
  5
4D
100
AcDbEntity
100
AcDbLine
  8
0
 62
256
370
-1
  6
ByLayer
 10
5.0
 20
-1.5
 30
0.0
 11
5.0
 21
-1.5
 31
0.0
  0
LINE
  5
4E
100
AcDbEntity
100
AcDbLine
  8
0
 62
256
370
-1
  6
ByLayer
 10
-5.0
 20
-1.5
 30
0.0
 11
-5.0
 21
1.5
 31
0.0
  0
LINE
  5
4F
100
AcDbEntity
100
AcDbLine
  8
0
 62
256
370
-1
  6
ByLayer
 10
-5.0
 20
1.5
 30
0.0
 11
-15.0
 21
1.5
 31
0.0
  0
LINE
  5
50
100
AcDbEntity
100
AcDbLine
  8
0
 62
256
370
-1
  6
ByLayer
 10
-15.0
 20
1.5
 30
0.0
 11
-15.0
 21
-1.5
 31
0.0
  0
LINE
  5
51
100
AcDbEntity
100
AcDbLine
  8
0
 62
256
370
-1
  6
ByLayer
 10
-15.0
 20
-1.5
 30
0.0
 11
-5.0
 21
-1.5
 31
0.0
  0
CIRCLE
  5
52
100
AcDbEntity
100
AcDbCircle
  8
0
 62
256
370
-1
  6
ByLayer
 10
0.0
 20
0.0
 30
0.0
 40
1.5
  0
ENDBLK
  5
53
100
AcDbEntity
  8
0
100
AcDbBlockEnd
  0
BLOCK
  5
54
100
AcDbEntity
  8
0
100
AcDbBlockBegin
  2
tabs
 70
0
 10
0.0
 20
0.0
 30
0.0
  3
tabs
  1

  0
LINE
  5
55
100
AcDbEntity
100
AcDbLine
  8
0
 62
256
370
-1
  6
ByLayer
 10
-15.0
 20
0.0
 30
0.0
 11
-15.0
 21
-3.0
 31
0.0
  0
LINE
  5
56
100
AcDbEntity
100
AcDbLine
  8
0
 62
256
370
-1
  6
ByLayer
 10
-15.0
 20
-3.0
 30
0.0
 11
-5.0
 21
-3.0
 31
0.0
  0
LINE
  5
57
100
AcDbEntity
100
AcDbLine
  8
0
 62
256
370
-1
  6
ByLayer
 10
-5.0
 20
-3.0
 30
0.0
 11
-5.0
 21
0.0
 31
0.0
  0
LINE
  5
58
100
AcDbEntity
100
AcDbLine
  8
0
 62
256
370
-1
  6
ByLayer
 10
5.0
 20
0.0
 30
0.0
 11
5.0
 21
-3.0000000000000013
 31
0.0
  0
LINE
  5
59
100
AcDbEntity
100
AcDbLine
  8
0
 62
256
370
-1
  6
ByLayer
 10
5.0
 20
-3.0000000000000013
 30
0.0
 11
15.0
 21
-3.0000000000000049
 31
0.0
  0
LINE
  5
5A
100
AcDbEntity
100
AcDbLine
  8
0
 62
256
370
-1
  6
ByLayer
 10
15.0
 20
-3.0000000000000049
 30
0.0
 11
15.0
 21
0.0
 31
0.0
  0
LINE
  5
5B
100
AcDbEntity
100
AcDbLine
  8
0
 62
256
370
-1
  6
ByLayer
 10
-5.0
 20
0.0
 30
0.0
 11
-1.4999999999999993
 21
-0.0000000000000009
 31
0.0
  0
LINE
  5
5C
100
AcDbEntity
100
AcDbLine
  8
0
 62
256
370
-1
  6
ByLayer
 10
1.4999999999999967
 20
-0.0000000000000009
 30
0.0
 11
5.0
 21
0.0
 31
0.0
  0
LINE
  5
5D
100
AcDbEntity
100
AcDbLine
  8
0
 62
256
370
-1
  6
ByLayer
 10
-2.7579892769680621
 20
7.0044872792644757
 30
0.0
 11
-2.7554732459241063
 21
10.0044872792644792
 31
0.0
  0
LINE
  5
5E
100
AcDbEntity
100
AcDbLine
  8
0
 62
256
370
-1
  6
ByLayer
 10
-1.5079892769680627
 20
10.0044872792644757
 30
0.0
 11
-2.7554732459241063
 21
10.0044872792644792
 31
0.0
  0
LINE
  5
5F
100
AcDbEntity
100
AcDbLine
  8
0
 62
256
370
-1
  6
ByLayer
 10
2.7420107230319379
 20
7.0044872792644739
 30
0.0
 11
2.7467023834491231
 21
10.0044872792644757
 31
0.0
  0
LINE
  5
60
100
AcDbEntity
100
AcDbLine
  8
0
 62
256
370
-1
  6
ByLayer
 10
2.7467023834491231
 20
10.0044872792644757
 30
0.0
 11
1.4920107230319413
 21
10.0044872792644775
 31
0.0
  0
LINE
  5
61
100
AcDbEntity
100
AcDbLine
  8
0
 62
256
370
-1
  6
ByLayer
 10
1.4092127076804035
 20
0.0044872792644783
 30
0.0
 11
1.4084947429981931
 21
7.003207002485123
 31
0.0
  0
LINE
  5
62
100
AcDbEntity
100
AcDbLine
  8
0
 62
256
370
-1
  6
ByLayer
 10
-1.4087986704115141
 20
7.0032070024851247
 30
0.0
 11
-1.4087986704116284
 21
0.0
 31
0.0
  0
LINE
  5
63
100
AcDbEntity
100
AcDbLine
  8
0
 62
256
370
-1
  6
ByLayer
 10
-2.7579892769680621
 20
7.0044872792644757
 30
0.0
 11
-1.4087986704115141
 21
7.0032070024851247
 31
0.0
  0
LINE
  5
64
100
AcDbEntity
100
AcDbLine
  8
0
 62
256
370
-1
  6
ByLayer
 10
1.4084947429981931
 20
7.003207002485123
 30
0.0
 11
2.7420107230319379
 21
7.0044872792644739
 31
0.0
  0
LINE
  5
65
100
AcDbEntity
100
AcDbLine
  8
0
 62
256
370
-1
  6
ByLayer
 10
1.4920107230319373
 20
11.0044872792644757
 30
0.0
 11
-1.5079892769680581
 21
11.0044872792644775
 31
0.0
  0
LINE
  5
66
100
AcDbEntity
100
AcDbLine
  8
0
 62
256
370
-1
  6
ByLayer
 10
1.4920107230319413
 20
10.0044872792644775
 30
0.0
 11
1.4920107230319373
 21
11.0044872792644757
 31
0.0
  0
LINE
  5
67
100
AcDbEntity
100
AcDbLine
  8
0
 62
256
370
-1
  6
ByLayer
 10
-1.5079892769680581
 20
11.0044872792644775
 30
0.0
 11
-1.5079892769680627
 21
10.0044872792644757
 31
0.0
  0
ENDBLK
  5
68
100
AcDbEntity
  8
0
100
AcDbBlockEnd
  0
BLOCK
  5
69
100
AcDbEntity
  8
0
100
AcDbBlockBegin
  2
tabs no ts
 70
0
 10
0.0
 20
0.0
 30
0.0
  3
tabs no ts
  1

  0
LINE
  5
6A
100
AcDbEntity
100
AcDbLine
  8
0
 62
256
370
-1
  6
ByLayer
 10
-15.0
 20
-0.0000000000000018
 30
0.0
 11
-15.0000000000000018
 21
-2.9999999999999947
 31
0.0
  0
LINE
  5
6B
100
AcDbEntity
100
AcDbLine
  8
0
 62
256
370
-1
  6
ByLayer
 10
-15.0000000000000018
 20
-2.9999999999999947
 30
0.0
 11
-4.9999999999999982
 21
-2.9999999999999982
 31
0.0
  0
LINE
  5
6C
100
AcDbEntity
100
AcDbLine
  8
0
 62
256
370
-1
  6
ByLayer
 10
-4.9999999999999982
 20
-2.9999999999999982
 30
0.0
 11
-5.0
 21
0.0000000000000009
 31
0.0
  0
LINE
  5
6D
100
AcDbEntity
100
AcDbLine
  8
0
 62
256
370
-1
  6
ByLayer
 10
5.0
 20
-0.0000000000000009
 30
0.0
 11
4.9999999999999964
 21
-3.0000000000000009
 31
0.0
  0
LINE
  5
6E
100
AcDbEntity
100
AcDbLine
  8
0
 62
256
370
-1
  6
ByLayer
 10
4.9999999999999964
 20
-3.0000000000000009
 30
0.0
 11
14.9999999999999964
 21
-3.0000000000000142
 31
0.0
  0
LINE
  5
6F
100
AcDbEntity
100
AcDbLine
  8
0
 62
256
370
-1
  6
ByLayer
 10
14.9999999999999964
 20
-3.0000000000000142
 30
0.0
 11
14.9999999999999982
 21
-0.0000000000000062
 31
0.0
  0
LINE
  5
70
100
AcDbEntity
100
AcDbLine
  8
0
 62
256
370
-1
  6
ByLayer
 10
-5.0
 20
0.0000000000000009
 30
0.0
 11
5.0
 21
-0.0000000000000009
 31
0.0
  0
ENDBLK
  5
71
100
AcDbEntity
  8
0
100
AcDbBlockEnd
  0
BLOCK
  5
72
100
AcDbEntity
  8
0
100
AcDbBlockBegin
  2
tbits
 70
0
 10
0.0
 20
0.0
 30
0.0
  3
tbits
  1

  0
LINE
  5
73
100
AcDbEntity
100
AcDbLine
  8
0
 62
256
370
-1
  6
ByLayer
 10
-1.5
 20
13.0
 30
0.0
 11
1.5
 21
13.0
 31
0.0
  0
LINE
  5
74
100
AcDbEntity
100
AcDbLine
  8
0
 62
256
370
-1
  6
ByLayer
 10
-1.5
 20
0.0
 30
0.0
 11
-1.5
 21
8.0
 31
0.0
  0
LINE
  5
75
100
AcDbEntity
100
AcDbLine
  8
0
 62
256
370
-1
  6
ByLayer
 10
-1.5
 20
10.0
 30
0.0
 11
-1.5
 21
13.0
 31
0.0
  0
LINE
  5
76
100
AcDbEntity
100
AcDbLine
  8
0
 62
256
370
-1
  6
ByLayer
 10
1.5
 20
13.0
 30
0.0
 11
1.5
 21
10.0
 31
0.0
  0
LINE
  5
77
100
AcDbEntity
100
AcDbLine
  8
0
 62
256
370
-1
  6
ByLayer
 10
1.5
 20
8.0
 30
0.0
 11
1.5
 21
0.0
 31
0.0
  0
LINE
  5
78
100
AcDbEntity
100
AcDbLine
  8
0
 62
256
370
-1
  6
ByLayer
 10
1.5
 20
8.0
 30
0.0
 11
2.8000000000000003
 21
8.0
 31
0.0
  0
LINE
  5
79
100
AcDbEntity
100
AcDbLine
  8
0
 62
256
370
-1
  6
ByLayer
 10
2.8000000000000003
 20
8.0
 30
0.0
 11
2.8000000000000003
 21
10.0
 31
0.0
  0
LINE
  5
7A
100
AcDbEntity
100
AcDbLine
  8
0
 62
256
370
-1
  6
ByLayer
 10
-2.8000000000000003
 20
8.0
 30
0.0
 11
-1.5
 21
8.0
 31
0.0
  0
LINE
  5
7B
100
AcDbEntity
100
AcDbLine
  8
0
 62
256
370
-1
  6
ByLayer
 10
-2.8000000000000003
 20
10.0
 30
0.0
 11
-2.8000000000000003
 21
8.0
 31
0.0
  0
LINE
  5
7C
100
AcDbEntity
100
AcDbLine
  8
0
 62
256
370
-1
  6
ByLayer
 10
1.5
 20
0.0
 30
0.0
 11
5.0
 21
0.0
 31
0.0
  0
LINE
  5
7D
100
AcDbEntity
100
AcDbLine
  8
0
 62
256
370
-1
  6
ByLayer
 10
5.0
 20
0.0
 30
0.0
 11
5.0
 21
-4.5
 31
0.0
  0
LINE
  5
7E
100
AcDbEntity
100
AcDbLine
  8
0
 62
256
370
-1
  6
ByLayer
 10
5.0
 20
-4.5
 30
0.0
 11
10.0
 21
-4.5
 31
0.0
  0
LINE
  5
7F
100
AcDbEntity
100
AcDbLine
  8
0
 62
256
370
-1
  6
ByLayer
 10
10.0
 20
0.0
 30
0.0
 11
10.0004751072897431
 21
-4.5
 31
0.0
  0
LINE
  5
80
100
AcDbEntity
100
AcDbLine
  8
0
 62
256
370
-1
  6
ByLayer
 10
-10.0
 20
-4.5
 30
0.0
 11
-5.0
 21
-4.5
 31
0.0
  0
LINE
  5
81
100
AcDbEntity
100
AcDbLine
  8
0
 62
256
370
-1
  6
ByLayer
 10
-5.0
 20
0.0
 30
0.0
 11
-5.0
 21
-4.5
 31
0.0
  0
LINE
  5
82
100
AcDbEntity
100
AcDbLine
  8
0
 62
256
370
-1
  6
ByLayer
 10
-10.0
 20
-4.5
 30
0.0
 11
-10.0
 21
0.0
 31
0.0
  0
LINE
  5
83
100
AcDbEntity
100
AcDbLine
  8
0
 62
256
370
-1
  6
ByLayer
 10
-1.5
 20
0.0
 30
0.0
 11
-5.0
 21
0.0
 31
0.0
  0
LINE
  5
84
100
AcDbEntity
100
AcDbLine
  8
0
 62
256
370
-1
  6
ByLayer
 10
-1.5
 20
10.0999999999999996
 30
0.0
 11
-2.8000000000000003
 21
10.0999999999999996
 31
0.0
  0
LINE
  5
85
100
AcDbEntity
100
AcDbLine
  8
0
 62
256
370
-1
  6
ByLayer
 10
2.8000000000000003
 20
10.0999999999999996
 30
0.0
 11
1.5
 21
10.0999999999999996
 31
0.0
  0
ENDBLK
  5
86
100
AcDbEntity
  8
0
100
AcDbBlockEnd
  0
ENDSEC
  0
SECTION
  2
ENTITIES
  0
LINE
  5
87
100
AcDbEntity
100
AcDbLine
  8
0
 62
256
370
-1
  6
ByLayer
 10
101.5
 20
173.0
 30
0.0
 11
111.5
 21
173.0
 31
0.0
  0
INSERT
  5
88
100
AcDbEntity
100
AcDbBlockReference
  8
0
 62
256
370
-1
  6
ByLayer
  2
tabs
 10
106.5
 20
3.0
 30
0.0
 44
1.0
 45
1.0
  0
LINE
  5
89
100
AcDbEntity
100
AcDbLine
  8
0
 62
256
370
-1
  6
ByLayer
 10
91.5
 20
3.0
 30
0.0
 11
91.5
 21
3.0
 31
0.0
  0
LINE
  5
8A
100
AcDbEntity
100
AcDbLine
  8
0
 62
256
370
-1
  6
ByLayer
 10
141.5
 20
3.0
 30
0.0
 11
121.5
 21
3.0
 31
0.0
  0
LINE
  5
8B
100
AcDbEntity
100
AcDbLine
  8
0
 62
256
370
-1
  6
ByLayer
 10
91.5
 20
3.0
 30
0.0
 11
71.5
 21
3.0
 31
0.0
  0
INSERT
  5
8C
100
AcDbEntity
100
AcDbBlockReference
  8
0
 62
256
370
-1
  6
ByLayer
  2
slots
 10
106.5
 20
51.5
 30
0.0
 44
1.0
 45
1.0
  0
INSERT
  5
8D
100
AcDbEntity
100
AcDbBlockReference
  8
0
 62
256
370
-1
  6
ByLayer
  2
slots
 10
135.0
 20
103.0
 30
0.0
 50
90.0
 44
1.0
 45
1.0
  0
INSERT
  5
8E
100
AcDbEntity
100
AcDbBlockReference
  8
0
 62
256
370
-1
  6
ByLayer
  2
slots
 10
135.0
 20
233.0
 30
0.0
 50
90.0
 44
1.0
 45
1.0
  0
INSERT
  5
8F
100
AcDbEntity
100
AcDbBlockReference
  8
0
 62
256
370
-1
  6
ByLayer
  2
slots
 10
76.5
 20
103.0
 30
0.0
 50
90.0
 44
1.0
 45
1.0
  0
INSERT
  5
90
100
AcDbEntity
100
AcDbBlockReference
  8
0
 62
256
370
-1
  6
ByLayer
  2
slots
 10
76.5
 20
233.0
 30
0.0
 50
90.0
 44
1.0
 45
1.0
  0
INSERT
  5
91
100
AcDbEntity
100
AcDbBlockReference
  8
0
 62
256
370
-1
  6
ByLayer
  2
slots
 10
106.5
 20
143.0
 30
0.0
 44
1.0
 45
1.0
  0
LINE
  5
92
100
AcDbEntity
100
AcDbLine
  8
0
 62
256
370
-1
  6
ByLayer
 10
111.4999999999999858
 20
283.0
 30
0.0
 11
101.5
 21
283.0
 31
0.0
  0
LINE
  5
93
100
AcDbEntity
100
AcDbLine
  8
0
 62
256
370
-1
  6
ByLayer
 10
111.5
 20
173.0
 30
0.0
 11
111.5000000000000142
 21
283.0
 31
0.0
  0
LINE
  5
94
100
AcDbEntity
100
AcDbLine
  8
0
 62
256
370
-1
  6
ByLayer
 10
101.5000000000000284
 20
283.0
 30
0.0
 11
101.5
 21
173.0
 31
0.0
  0
INSERT
  5
95
100
AcDbEntity
100
AcDbBlockReference
  8
0
 62
256
370
-1
  6
ByLayer
  2
tabs
 10
156.5
 20
233.0
 30
0.0
 50
270.0
 44
1.0
 45
1.0
  0
INSERT
  5
96
100
AcDbEntity
100
AcDbBlockReference
  8
0
 62
256
370
-1
  6
ByLayer
  2
tabs
 10
156.5
 20
103.0
 30
0.0
 50
270.0
 44
1.0
 45
1.0
  0
INSERT
  5
97
100
AcDbEntity
100
AcDbBlockReference
  8
0
 62
256
370
-1
  6
ByLayer
  2
tabs
 10
181.5
 20
3.0
 30
0.0
 44
1.0
 45
1.0
  0
LINE
  5
98
100
AcDbEntity
100
AcDbLine
  8
0
 62
256
370
-1
  6
ByLayer
 10
156.5
 20
3.0
 30
0.0
 11
166.5
 21
3.0
 31
0.0
  0
LINE
  5
99
100
AcDbEntity
100
AcDbLine
  8
0
 62
256
370
-1
  6
ByLayer
 10
196.5
 20
3.0
 30
0.0
 11
206.5
 21
3.0
 31
0.0
  0
LINE
  5
9A
100
AcDbEntity
100
AcDbLine
  8
0
 62
256
370
-1
  6
ByLayer
 10
156.5
 20
238.0
 30
0.0
 11
156.5
 21
234.4087986704116702
 31
0.0
  0
LINE
  5
9B
100
AcDbEntity
100
AcDbLine
  8
0
 62
256
370
-1
  6
ByLayer
 10
156.5
 20
218.0
 30
0.0
 11
156.5
 21
118.0
 31
0.0
  0
LINE
  5
9C
100
AcDbEntity
100
AcDbLine
  8
0
 62
256
370
-1
  6
ByLayer
 10
156.5
 20
108.0
 30
0.0
 11
156.5
 21
104.4087986704116418
 31
0.0
  0
LINE
  5
9D
100
AcDbEntity
100
AcDbLine
  8
0
 62
256
370
-1
  6
ByLayer
 10
156.5
 20
88.0
 30
0.0
 11
156.5
 21
3.0
 31
0.0
  0
INSERT
  5
9E
100
AcDbEntity
100
AcDbBlockReference
  8
0
 62
256
370
-1
  6
ByLayer
  2
slots
 10
181.5
 20
142.5
 30
0.0
 44
1.0
 45
1.0
  0
INSERT
  5
9F
100
AcDbEntity
100
AcDbBlockReference
  8
0
 62
256
370
-1
  6
ByLayer
  2
tabs
 10
50.0000000000000284
 20
233.0
 30
0.0
 41
1.0
 42
-1.0
 43
1.0
 50
270.0
 44
1.0
 45
1.0
  0
INSERT
  5
A0
100
AcDbEntity
100
AcDbBlockReference
  8
0
 62
256
370
-1
  6
ByLayer
  2
tabs
 10
50.0
 20
103.0
 30
0.0
 41
1.0
 42
-1.0
 43
1.0
 50
270.0
 44
1.0
 45
1.0
  0
INSERT
  5
A1
100
AcDbEntity
100
AcDbBlockReference
  8
0
 62
256
370
-1
  6
ByLayer
  2
tabs
 10
25.0
 20
3.0
 30
0.0
 41
1.0
 42
-1.0
 43
1.0
 50
180.0
 44
1.0
 45
1.0
  0
LINE
  5
A2
100
AcDbEntity
100
AcDbLine
  8
0
 62
256
370
-1
  6
ByLayer
 10
50.0000000000000426
 20
3.0
 30
0.0
 11
39.9999999999999432
 21
3.0
 31
0.0
  0
LINE
  5
A3
100
AcDbEntity
100
AcDbLine
  8
0
 62
256
370
-1
  6
ByLayer
 10
9.9999999999999005
 20
3.0000000000000568
 30
0.0
 11
-0.0000000000000142
 21
3.0000000000000284
 31
0.0
  0
LINE
  5
A4
100
AcDbEntity
100
AcDbLine
  8
0
 62
256
370
-1
  6
ByLayer
 10
50.0000000000000284
 20
238.0
 30
0.0
 11
49.9999999999999858
 21
234.4087986704116702
 31
0.0
  0
LINE
  5
A5
100
AcDbEntity
100
AcDbLine
  8
0
 62
256
370
-1
  6
ByLayer
 10
50.0
 20
218.0
 30
0.0
 11
50.0
 21
118.0
 31
0.0
  0
LINE
  5
A6
100
AcDbEntity
100
AcDbLine
  8
0
 62
256
370
-1
  6
ByLayer
 10
49.9999999999999858
 20
108.0
 30
0.0
 11
50.0000000000000142
 21
104.4087986704116133
 31
0.0
  0
LINE
  5
A7
100
AcDbEntity
100
AcDbLine
  8
0
 62
256
370
-1
  6
ByLayer
 10
49.9999999999999858
 20
88.0
 30
0.0
 11
50.0000000000000426
 21
3.0
 31
0.0
  0
INSERT
  5
A8
100
AcDbEntity
100
AcDbBlockReference
  8
0
 62
256
370
-1
  6
ByLayer
  2
slots
 10
25.0
 20
142.4999999999999716
 30
0.0
 41
1.0
 42
-1.0
 43
1.0
 50
180.0
 44
1.0
 45
1.0
  0
INSERT
  5
A9
100
AcDbEntity
100
AcDbBlockReference
  8
0
 62
256
370
-1
  6
ByLayer
  2
slots
 10
181.5
 20
51.5
 30
0.0
 44
1.0
 45
1.0
  0
INSERT
  5
AA
100
AcDbEntity
100
AcDbBlockReference
  8
0
 62
256
370
-1
  6
ByLayer
  2
slots
 10
26.5
 20
51.5
 30
0.0
 44
1.0
 45
1.0
  0
INSERT
  5
AB
100
AcDbEntity
100
AcDbBlockReference
  8
0
 62
256
370
-1
  6
ByLayer
  2
tabs
 10
106.4999999999999574
 20
300.0
 30
0.0
 50
180.0
 44
1.0
 45
1.0
  0
LINE
  5
AC
100
AcDbEntity
100
AcDbLine
  8
0
 62
256
370
-1
  6
ByLayer
 10
121.4999999999999574
 20
300.0
 30
0.0
 11
141.5
 21
300.0
 31
0.0
  0
LINE
  5
AD
100
AcDbEntity
100
AcDbLine
  8
0
 62
256
370
-1
  6
ByLayer
 10
71.4999999999999289
 20
300.0
 30
0.0
 11
91.4999999999999574
 21
300.0
 31
0.0
  0
INSERT
  5
AE
100
AcDbEntity
100
AcDbBlockReference
  8
0
 62
256
370
-1
  6
ByLayer
  2
tabs
 10
181.5
 20
300.0
 30
0.0
 50
180.0
 44
1.0
 45
1.0
  0
LINE
  5
AF
100
AcDbEntity
100
AcDbLine
  8
0
 62
256
370
-1
  6
ByLayer
 10
166.5
 20
300.0
 30
0.0
 11
156.5
 21
300.0
 31
0.0
  0
LINE
  5
B0
100
AcDbEntity
100
AcDbLine
  8
0
 62
256
370
-1
  6
ByLayer
 10
206.5
 20
300.0
 30
0.0
 11
196.5
 21
300.0
 31
0.0
  0
INSERT
  5
B1
100
AcDbEntity
100
AcDbBlockReference
  8
0
 62
256
370
-1
  6
ByLayer
  2
tabs
 10
24.9999999999999432
 20
300.0
 30
0.0
 41
1.0
 42
-1.0
 43
1.0
 50
360.0
 44
1.0
 45
1.0
  0
LINE
  5
B2
100
AcDbEntity
100
AcDbLine
  8
0
 62
256
370
-1
  6
ByLayer
 10
39.9999999999998721
 20
300.0
 30
0.0
 11
49.9999999999999147
 21
300.0
 31
0.0
  0
LINE
  5
B3
100
AcDbEntity
100
AcDbLine
  8
0
 62
256
370
-1
  6
ByLayer
 10
0.0
 20
300.0
 30
0.0
 11
10.0
 21
300.0
 31
0.0
  0
LINE
  5
B4
100
AcDbEntity
100
AcDbLine
  8
0
 62
256
370
-1
  6
ByLayer
 10
-0.0000000000000142
 20
3.0000000000000284
 30
0.0
 11
0.0000000000000139
 21
300.0
 31
0.0
  0
LINE
  5
B5
100
AcDbEntity
100
AcDbLine
  8
0
 62
256
370
-1
  6
ByLayer
 10
49.9999999999999361
 20
300.0
 30
0.0
 11
50.0000000000000284
 21
248.0
 31
0.0
  0
LINE
  5
B6
100
AcDbEntity
100
AcDbLine
  8
0
 62
256
370
-1
  6
ByLayer
 10
71.5
 20
3.0
 30
0.0
 11
71.5
 21
300.0
 31
0.0
  0
LINE
  5
B7
100
AcDbEntity
100
AcDbLine
  8
0
 62
256
370
-1
  6
ByLayer
 10
141.5
 20
300.0
 30
0.0
 11
141.5
 21
3.0
 31
0.0
  0
LINE
  5
B8
100
AcDbEntity
100
AcDbLine
  8
0
 62
256
370
-1
  6
ByLayer
 10
156.5
 20
300.0
 30
0.0
 11
156.5
 21
248.0
 31
0.0
  0
LINE
  5
B9
100
AcDbEntity
100
AcDbLine
  8
0
 62
256
370
-1
  6
ByLayer
 10
206.5
 20
3.0
 30
0.0
 11
206.5
 21
300.0
 31
0.0
  0
INSERT
  5
BA
100
AcDbEntity
100
AcDbBlockReference
  8
0
 62
256
370
-1
  6
ByLayer
  2
slots
 10
106.5
 20
161.0
 30
0.0
 44
1.0
 45
1.0
  0
INSERT
  5
BB
100
AcDbEntity
100
AcDbBlockReference
  8
0
 62
256
370
-1
  6
ByLayer
  2
slots
 10
181.5
 20
160.5
 30
0.0
 44
1.0
 45
1.0
  0
INSERT
  5
BC
100
AcDbEntity
100
AcDbBlockReference
  8
0
 62
256
370
-1
  6
ByLayer
  2
slots
 10
25.0
 20
160.4999999999998863
 30
0.0
 41
1.0
 42
-1.0
 43
1.0
 50
180.0
 44
1.0
 45
1.0
  0
INSERT
  5
BD
100
AcDbEntity
100
AcDbBlockReference
  8
0
 62
256
370
-1
  6
ByLayer
  2
slots
 10
106.5
 20
164.0
 30
0.0
 44
1.0
 45
1.0
  0
INSERT
  5
BE
100
AcDbEntity
100
AcDbBlockReference
  8
0
 62
256
370
-1
  6
ByLayer
  2
slots
 10
250.0
 20
248.5
 30
0.0
 44
1.0
 45
1.0
  0
INSERT
  5
BF
100
AcDbEntity
100
AcDbBlockReference
  8
0
 62
256
370
-1
  6
ByLayer
  2
slots
 10
278.5
 20
275.0
 30
0.0
 50
90.0
 44
1.0
 45
1.0
  0
INSERT
  5
C0
100
AcDbEntity
100
AcDbBlockReference
  8
0
 62
256
370
-1
  6
ByLayer
  2
slots
 10
221.5
 20
275.0
 30
0.0
 50
90.0
 44
1.0
 45
1.0
  0
LINE
  5
C1
100
AcDbEntity
100
AcDbLine
  8
0
 62
256
370
-1
  6
ByLayer
 10
285.0
 20
240.0
 30
0.0
 11
285.0
 21
300.0
 31
0.0
  0
LINE
  5
C2
100
AcDbEntity
100
AcDbLine
  8
0
 62
256
370
-1
  6
ByLayer
 10
215.0
 20
300.0
 30
0.0
 11
215.0
 21
240.0
 31
0.0
  0
LINE
  5
C3
100
AcDbEntity
100
AcDbLine
  8
0
 62
256
370
-1
  6
ByLayer
 10
285.0
 20
240.0
 30
0.0
 11
215.0
 21
240.0
 31
0.0
  0
LINE
  5
C4
100
AcDbEntity
100
AcDbLine
  8
0
 62
256
370
-1
  6
ByLayer
 10
215.0
 20
300.0
 30
0.0
 11
285.0
 21
300.0
 31
0.0
  0
LINE
  5
C5
100
AcDbEntity
100
AcDbLine
  8
0
 62
256
370
-1
  6
ByLayer
 10
250.0
 20
260.0
 30
0.0
 11
234.9497474683058158
 21
275.0502525316941842
 31
0.0
  0
ARC
  5
C6
100
AcDbEntity
  8
0
 62
256
370
-1
  6
ByLayer
100
AcDbCircle
 10
239.89949493661166
 20
280.0
 30
0.0
 40
7.0
100
AcDbArc
 50
135.0000000000000853
 51
225.0
  0
LINE
  5
C7
100
AcDbEntity
100
AcDbLine
  8
0
 62
256
370
-1
  6
ByLayer
 10
244.9497474683058442
 20
285.0502525316941274
 30
0.0
 11
250.0
 21
280.0
 31
0.0
  0
ARC
  5
C8
100
AcDbEntity
  8
0
 62
256
370
-1
  6
ByLayer
100
AcDbCircle
 10
240.0
 20
280.1005050633883116
 30
0.0
 40
7.0
100
AcDbArc
 50
44.9999999999999218
 51
135.0000000000002558
  0
LINE
  5
C9
100
AcDbEntity
100
AcDbLine
  8
0
 62
256
370
-1
  6
ByLayer
 10
250.0
 20
280.0
 30
0.0
 11
255.0502525316941842
 21
285.0502525316941842
 31
0.0
  0
ARC
  5
CA
100
AcDbEntity
  8
0
 62
256
370
-1
  6
ByLayer
100
AcDbCircle
 10
260.0
 20
280.1005050633883684
 30
0.0
 40
7.0
100
AcDbArc
 50
45.0
 51
135.0
  0
LINE
  5
CB
100
AcDbEntity
100
AcDbLine
  8
0
 62
256
370
-1
  6
ByLayer
 10
264.9497474683058158
 20
285.0502525316941842
 30
0.0
 11
265.0502525316941842
 21
284.9497474683058158
 31
0.0
  0
LINE
  5
CC
100
AcDbEntity
100
AcDbLine
  8
0
 62
256
370
-1
  6
ByLayer
 10
265.0502525316941842
 20
275.0502525316941842
 30
0.0
 11
250.0
 21
260.0
 31
0.0
  0
ARC
  5
CD
100
AcDbEntity
  8
0
 62
256
370
-1
  6
ByLayer
100
AcDbCircle
 10
260.1005050633883684
 20
280.0
 30
0.0
 40
7.0
100
AcDbArc
 50
315.0000000000000568
 51
44.9999999999999218
  0
LINE
  5
CE
100
AcDbEntity
100
AcDbLine
  8
0
 62
256
370
-1
  6
ByLayer
 10
234.9497474683058158
 20
284.9497474683058158
 30
0.0
 11
235.0502525316941558
 21
285.0502525316941842
 31
0.0
  0
LINE
  5
CF
100
AcDbEntity
100
AcDbLine
  8
0
 62
256
370
-1
  6
ByLayer
 10
234.9497474683058442
 20
284.9497474683058158
 30
0.0
 11
235.0502525316941558
 21
285.0502525316941274
 31
0.0
  0
CIRCLE
  5
D0
100
AcDbEntity
100
AcDbCircle
  8
0
 62
256
370
-1
  6
ByLayer
 10
255.0
 20
226.5
 30
0.0
 40
1.5
  0
CIRCLE
  5
D1
100
AcDbEntity
100
AcDbCircle
  8
0
 62
256
370
-1
  6
ByLayer
 10
225.0000000000000284
 20
226.5
 30
0.0
 40
1.5
  0
INSERT
  5
D2
100
AcDbEntity
100
AcDbBlockReference
  8
0
 62
256
370
-1
  6
ByLayer
  2
tabs no ts
 10
265.0
 20
211.5000000000000853
 30
0.0
 50
90.0
 44
1.0
 45
1.0
  0
INSERT
  5
D3
100
AcDbEntity
100
AcDbBlockReference
  8
0
 62
256
370
-1
  6
ByLayer
  2
tabs no ts
 10
215.0
 20
211.5000000000000853
 30
0.0
 50
270.0
 44
1.0
 45
1.0
  0
INSERT
  5
D4
100
AcDbEntity
100
AcDbBlockReference
  8
0
 62
256
370
-1
  6
ByLayer
  2
tabs no ts
 10
240.0000000000000284
 20
186.5
 30
0.0
 44
1.0
 45
1.0
  0
LINE
  5
D5
100
AcDbEntity
100
AcDbLine
  8
0
 62
256
370
-1
  6
ByLayer
 10
224.9999999999999716
 20
186.5
 30
0.0
 11
215.0
 21
186.5000000000000568
 31
0.0
  0
LINE
  5
D6
100
AcDbEntity
100
AcDbLine
  8
0
 62
256
370
-1
  6
ByLayer
 10
255.0
 20
186.5
 30
0.0
 11
265.0
 21
186.5
 31
0.0
  0
LINE
  5
D7
100
AcDbEntity
100
AcDbLine
  8
0
 62
256
370
-1
  6
ByLayer
 10
265.0
 20
186.5
 30
0.0
 11
265.0
 21
196.5
 31
0.0
  0
LINE
  5
D8
100
AcDbEntity
100
AcDbLine
  8
0
 62
256
370
-1
  6
ByLayer
 10
215.0
 20
196.5000000000000568
 30
0.0
 11
215.0
 21
186.5000000000000568
 31
0.0
  0
LINE
  5
D9
100
AcDbEntity
100
AcDbLine
  8
0
 62
256
370
-1
  6
ByLayer
 10
265.0
 20
236.5
 30
0.0
 11
265.0
 21
226.5
 31
0.0
  0
LINE
  5
DA
100
AcDbEntity
100
AcDbLine
  8
0
 62
256
370
-1
  6
ByLayer
 10
215.0
 20
236.5
 30
0.0
 11
215.0
 21
226.5
 31
0.0
  0
LINE
  5
DB
100
AcDbEntity
100
AcDbLine
  8
0
 62
256
370
-1
  6
ByLayer
 10
215.0
 20
236.5
 30
0.0
 11
265.0
 21
236.5
 31
0.0
  0
CIRCLE
  5
DC
100
AcDbEntity
100
AcDbCircle
  8
0
 62
256
370
-1
  6
ByLayer
 10
240.0
 20
206.5
 30
0.0
 40
11.0
  0
CIRCLE
  5
DD
100
AcDbEntity
100
AcDbCircle
  8
0
 62
256
370
-1
  6
ByLayer
 10
255.0
 20
165.0
 30
0.0
 40
1.5
  0
CIRCLE
  5
DE
100
AcDbEntity
100
AcDbCircle
  8
0
 62
256
370
-1
  6
ByLayer
 10
225.0
 20
165.0
 30
0.0
 40
1.5
  0
CIRCLE
  5
DF
100
AcDbEntity
100
AcDbCircle
  8
0
 62
256
370
-1
  6
ByLayer
 10
240.0
 20
145.0
 30
0.0
 40
0.0
  0
CIRCLE
  5
E0
100
AcDbEntity
100
AcDbCircle
  8
0
 62
256
370
-1
  6
ByLayer
 10
240.0
 20
145.0
 30
0.0
 40
4.0452052697457725
  0
LINE
  5
E1
100
AcDbEntity
100
AcDbLine
  8
0
 62
256
370
-1
  6
ByLayer
 10
215.0
 20
175.0
 30
0.0
 11
265.0
 21
175.0
 31
0.0
  0
LINE
  5
E2
100
AcDbEntity
100
AcDbLine
  8
0
 62
256
370
-1
  6
ByLayer
 10
215.0
 20
175.0
 30
0.0
 11
215.0
 21
125.0000000000000284
 31
0.0
  0
LINE
  5
E3
100
AcDbEntity
100
AcDbLine
  8
0
 62
256
370
-1
  6
ByLayer
 10
265.0
 20
175.0
 30
0.0
 11
265.0
 21
125.0
 31
0.0
  0
LINE
  5
E4
100
AcDbEntity
100
AcDbLine
  8
0
 62
256
370
-1
  6
ByLayer
 10
265.0
 20
125.0
 30
0.0
 11
215.0
 21
125.0000000000000284
 31
0.0
  0
INSERT
  5
E5
100
AcDbEntity
100
AcDbBlockReference
  8
0
 62
256
370
-1
  6
ByLayer
  2
tabs no ts
 10
265.0
 20
91.5000000000000426
 30
0.0
 50
90.0
 44
1.0
 45
1.0
  0
INSERT
  5
E6
100
AcDbEntity
100
AcDbBlockReference
  8
0
 62
256
370
-1
  6
ByLayer
  2
tabs no ts
 10
215.0
 20
91.5000000000000426
 30
0.0
 50
270.0
 44
1.0
 45
1.0
  0
INSERT
  5
E7
100
AcDbEntity
100
AcDbBlockReference
  8
0
 62
256
370
-1
  6
ByLayer
  2
tabs no ts
 10
240.0
 20
66.5
 30
0.0
 44
1.0
 45
1.0
  0
LINE
  5
E8
100
AcDbEntity
100
AcDbLine
  8
0
 62
256
370
-1
  6
ByLayer
 10
225.0
 20
66.5000000000000284
 30
0.0
 11
214.9999999999999716
 21
66.5000000000000426
 31
0.0
  0
LINE
  5
E9
100
AcDbEntity
100
AcDbLine
  8
0
 62
256
370
-1
  6
ByLayer
 10
255.0
 20
66.5
 30
0.0
 11
265.0
 21
66.5
 31
0.0
  0
LINE
  5
EA
100
AcDbEntity
100
AcDbLine
  8
0
 62
256
370
-1
  6
ByLayer
 10
265.0
 20
66.5
 30
0.0
 11
265.0
 21
76.5000000000000426
 31
0.0
  0
LINE
  5
EB
100
AcDbEntity
100
AcDbLine
  8
0
 62
256
370
-1
  6
ByLayer
 10
215.0
 20
76.5000000000000284
 30
0.0
 11
214.9999999999999716
 21
66.5000000000000426
 31
0.0
  0
LINE
  5
EC
100
AcDbEntity
100
AcDbLine
  8
0
 62
256
370
-1
  6
ByLayer
 10
265.0
 20
116.5
 30
0.0
 11
265.0
 21
106.5
 31
0.0
  0
LINE
  5
ED
100
AcDbEntity
100
AcDbLine
  8
0
 62
256
370
-1
  6
ByLayer
 10
215.0
 20
116.5
 30
0.0
 11
215.0
 21
106.5
 31
0.0
  0
LINE
  5
EE
100
AcDbEntity
100
AcDbLine
  8
0
 62
256
370
-1
  6
ByLayer
 10
252.0
 20
87.5
 30
0.0
 11
252.0
 21
87.5
 31
0.0
  0
LINE
  5
EF
100
AcDbEntity
100
AcDbLine
  8
0
 62
256
370
-1
  6
ByLayer
 10
228.0
 20
89.4999999999999574
 30
0.0
 11
228.0
 21
87.5
 31
0.0
  0
LINE
  5
F0
100
AcDbEntity
100
AcDbLine
  8
0
 62
256
370
-1
  6
ByLayer
 10
252.0
 20
87.5
 30
0.0
 11
252.0
 21
89.5000000000000142
 31
0.0
  0
ARC
  5
F1
100
AcDbEntity
  8
0
 62
256
370
-1
  6
ByLayer
100
AcDbCircle
 10
240.0
 20
86.5
 30
0.0
 40
12.0
100
AcDbArc
 50
180.0
 51
0.0
  0
LINE
  5
F2
100
AcDbEntity
100
AcDbLine
  8
0
 62
256
370
-1
  6
ByLayer
 10
252.0
 20
88.5
 30
0.0
 11
251.0
 21
91.4999999999999716
 31
0.0
  0
LINE
  5
F3
100
AcDbEntity
100
AcDbLine
  8
0
 62
256
370
-1
  6
ByLayer
 10
251.0
 20
91.4999999999999716
 30
0.0
 11
252.0
 21
93.5
 31
0.0
  0
LINE
  5
F4
100
AcDbEntity
100
AcDbLine
  8
0
 62
256
370
-1
  6
ByLayer
 10
228.0
 20
88.5
 30
0.0
 11
229.0
 21
91.5
 31
0.0
  0
LINE
  5
F5
100
AcDbEntity
100
AcDbLine
  8
0
 62
256
370
-1
  6
ByLayer
 10
229.0
 20
91.5
 30
0.0
 11
228.0
 21
93.5
 31
0.0
  0
LINE
  5
F6
100
AcDbEntity
100
AcDbLine
  8
0
 62
256
370
-1
  6
ByLayer
 10
228.0
 20
116.5
 30
0.0
 11
228.0
 21
93.5
 31
0.0
  0
LINE
  5
F7
100
AcDbEntity
100
AcDbLine
  8
0
 62
256
370
-1
  6
ByLayer
 10
252.0
 20
93.5
 30
0.0
 11
252.0
 21
116.5
 31
0.0
  0
LINE
  5
F8
100
AcDbEntity
100
AcDbLine
  8
0
 62
256
370
-1
  6
ByLayer
 10
252.0
 20
116.5
 30
0.0
 11
265.0
 21
116.5
 31
0.0
  0
LINE
  5
F9
100
AcDbEntity
100
AcDbLine
  8
0
 62
256
370
-1
  6
ByLayer
 10
215.0
 20
116.5
 30
0.0
 11
228.0
 21
116.5
 31
0.0
  0
CIRCLE
  5
FA
100
AcDbEntity
100
AcDbCircle
  8
0
 62
256
370
-1
  6
ByLayer
 10
255.0
 20
45.0
 30
0.0
 40
1.5
  0
CIRCLE
  5
FB
100
AcDbEntity
100
AcDbCircle
  8
0
 62
256
370
-1
  6
ByLayer
 10
225.0
 20
45.0
 30
0.0
 40
1.5
  0
CIRCLE
  5
FC
100
AcDbEntity
100
AcDbCircle
  8
0
 62
256
370
-1
  6
ByLayer
 10
240.0
 20
25.0
 30
0.0
 40
0.0
  0
LINE
  5
FD
100
AcDbEntity
100
AcDbLine
  8
0
 62
256
370
-1
  6
ByLayer
 10
215.0
 20
55.0
 30
0.0
 11
265.0
 21
55.0
 31
0.0
  0
CIRCLE
  5
FE
100
AcDbEntity
100
AcDbCircle
  8
0
 62
256
370
-1
  6
ByLayer
 10
240.0
 20
25.0
 30
0.0
 40
11.0
  0
LINE
  5
FF
100
AcDbEntity
100
AcDbLine
  8
0
 62
256
370
-1
  6
ByLayer
 10
215.0
 20
55.0
 30
0.0
 11
215.0
 21
5.0000000000000533
 31
0.0
  0
LINE
  5
100
100
AcDbEntity
100
AcDbLine
  8
0
 62
256
370
-1
  6
ByLayer
 10
265.0
 20
55.0
 30
0.0
 11
265.0
 21
4.9999999999999929
 31
0.0
  0
LINE
  5
101
100
AcDbEntity
100
AcDbLine
  8
0
 62
256
370
-1
  6
ByLayer
 10
215.0
 20
5.0000000000000533
 30
0.0
 11
265.0
 21
4.9999999999999929
 31
0.0
  0
LWPOLYLINE
  5
102
  8
0
 62
7
420
16777215
370
-1
  6
ByLayer
100
AcDbEntity
100
AcDbPolyline
 90
264
 70
1
 10
293.8148501150001266
 20
224.9096954842200375
 10
293.26680879744805
 20
225.1696961015039733
 10
292.8359540011520608
 20
225.6321102107880279
 10
292.5654675868640879
 20
226.2773209531080738
 10
292.4914018572200121
 20
227.106453148896037
 10
292.6584115769721279
 20
228.1172167295399618
 10
292.5986873836519067
 20
228.9601777611360376
 10
292.3067643653720893
 20
230.0884031933760525
 10
291.7741740605839027
 20
231.3462212896079677
 10
291.0055255954400195
 20
232.6576989111960074
 10
290.0
 20
232.6800000000000068
 10
288.9944744045599805
 20
232.6576989111960643
 10
288.2258259394160973
 20
231.3462212896080246
 10
287.6932356346280812
 20
230.0884031933761094
 10
287.4013126163480933
 20
228.9601777611360376
 10
287.3415884230280426
 20
228.1172167295400186
 10
287.5085981427800448
 20
227.106453148896037
 10
287.4345324131360826
 20
226.277320953108017
 10
287.1640459988480529
 20
225.6321102107880279
 10
286.7331912025520637
 20
225.1696961015040301
 10
286.1851498850000439
 20
224.9096954842200944
 10
286.0167748898360287
 20
224.865598483200074
 10
285.8489093691200651
 20
224.8196001095640781
 10
285.2442913572200496
 20
224.7707465902560671
 10
284.6399531034440997
 20
224.955781557852049
 10
284.0830996261159953
 20
225.3793072441080767
 10
283.6043907251240626
 20
226.0603239243239955
 10
283.2436435947681161
 20
227.0191757221200533
 10
282.7704404099000612
 20
227.7193392934680674
 10
281.9535149445680418
 20
228.5504496696360093
 10
280.8633691623439859
 20
229.3734569418840579
 10
279.5419612543880135
 20
230.1249056460600855
 10
278.6600000000000819
 20
229.641456157860091
 10
277.8003398347401003
 20
229.119380050620066
 10
277.7904095480480464
 20
227.5992828812999846
 10
277.9580818623800269
 20
226.243685303940083
 10
278.2693818286400074
 20
225.120651909816047
 10
278.6391396756920926
 20
224.360764145148039
 10
279.2891561259801279
 20
223.5689220671040403
 10
279.6395794207761014
 20
222.8138396575680531
 10
279.7279366857680429
 20
222.1198275567000451
 10
279.586012541276034
 20
221.5039377928080171
 10
279.2413951466600679
 20
221.0047499945640084
 10
279.1176266240480572
 20
220.8823733740080684
 10
278.9952500054359916
 20
220.7586048533400458
 10
278.4960622071919829
 20
220.4139874587240229
 10
277.8801724433000118
 20
220.2720633142320708
 10
277.1861603424319469
 20
220.3604205792240123
 10
276.4310779328960166
 20
220.7108438740200427
 10
275.6392358548520178
 20
221.3608603243080779
 10
274.8793480901840667
 20
221.7306181713600495
 10
273.7563146960599738
 20
222.0419181376200299
 10
272.4007171187000722
 20
222.2095904519520673
 10
270.8806199493800477
 20
222.1996601652600134
 10
270.3585438421400227
 20
221.3400000000000887
 10
269.8750943539400282
 20
220.4580387456120434
 10
270.626543058115999
 20
219.1366308376560141
 10
271.4495503303640476
 20
218.0464850554320719
 10
272.2806607065319326
 20
217.2295595900999956
 10
272.9808242778800604
 20
216.7563564052320544
 10
273.9396760756760045
 20
216.3956092748760511
 10
274.6206927558919801
 20
215.9169003738840615
 10
275.0442184421480647
 20
215.360046896556014
 10
275.2292534097440466
 20
214.7557086427800641
 10
275.1803998904360355
 20
214.1510906308799917
 10
275.1344015161520247
 20
213.9832251072480176
 10
275.0903045157800761
 20
213.8148501150000698
 10
274.8303038984959699
 20
213.2668087974481068
 10
274.3678897892119721
 20
212.8359540011521744
 10
273.7226790468920399
 20
212.5654675868639742
 10
272.8935468511040199
 20
212.4914018572201257
 10
271.8827832704599814
 20
212.6584115769721564
 10
271.0398222388640193
 20
212.5986873836520203
 10
269.9115968066240043
 20
212.3067643653721461
 10
268.6537787103919754
 20
211.7741740605842153
 10
267.3423010888039926
 20
211.0055255954401332
 10
267.32000000000005
 20
210.0
 10
267.3423010888039926
 20
208.9944744045600942
 10
268.6537787103919754
 20
208.2258259394160405
 10
269.9115968066240043
 20
207.6932356346280244
 10
271.0398222388640193
 20
207.4013126163481502
 10
271.8827832704599814
 20
207.3415884230280426
 10
272.8935468511040199
 20
207.5085981427800448
 10
273.7226790468920399
 20
207.4345324131360258
 10
274.3678897892119721
 20
207.1640459988479961
 10
274.8303038984959699
 20
206.7331912025520637
 10
275.0903045157800761
 20
206.1851498850000439
 10
275.1344015167999828
 20
206.0167748898360855
 10
275.1803998904359787
 20
205.8489093691200651
 10
275.2292534097439329
 20
205.2442913572199927
 10
275.044218442147951
 20
204.6399531034440429
 10
274.6206927558919801
 20
204.0830996261159953
 10
273.9396760756760045
 20
203.6043907251240626
 10
272.9808242778798899
 20
203.2436435947680593
 10
272.2806607065319326
 20
202.7704404099000044
 10
271.4495503303640476
 20
201.9535149445680418
 10
270.6265430581159421
 20
200.8633691623440427
 10
269.8750943539400282
 20
199.5419612543880135
 10
270.3585438421399658
 20
198.6600000000000819
 10
270.8806199493800477
 20
197.8003398347400434
 10
272.4007171187000722
 20
197.7904095480480464
 10
273.7563146960599738
 20
197.9580818623800269
 10
274.8793480901840098
 20
198.2693818286400642
 10
275.639235854851961
 20
198.6391396756919789
 10
276.4310779328960166
 20
199.2891561259800142
 10
277.1861603424320606
 20
199.6395794207761014
 10
277.8801724433000118
 20
199.7279366857680429
 10
278.4960622071919829
 20
199.586012541276034
 10
278.9952500054359916
 20
199.2413951466600111
 10
279.1176266259919316
 20
199.1176266240480004
 10
279.2413951466600111
 20
198.9952500054360485
 10
279.5860125412759771
 20
198.4960622071920398
 10
279.7279366857680429
 20
197.8801724433000686
 10
279.6395794207759309
 20
197.1861603424320606
 10
279.2891561259801279
 20
196.4310779328960166
 10
278.6391396756918652
 20
195.6392358548520747
 10
278.2693818286399505
 20
194.879348090183953
 10
277.9580818623800269
 20
193.7563146960599738
 10
277.7904095480479896
 20
192.4007171187000154
 10
277.8003398347399298
 20
190.8806199493799909
 10
278.6600000000000819
 20
190.3585438421400227
 10
279.5419612543880135
 20
189.8750943539400282
 10
280.8633691623439859
 20
190.6265430581160558
 10
281.9535149445679849
 20
191.4495503303639907
 10
282.7704404098998907
 20
192.2806607065320463
 10
283.2436435947679456
 20
192.9808242778800036
 10
283.604390725123892
 20
193.9396760756760045
 10
284.0830996261159953
 20
194.620692755892037
 10
284.6399531034439292
 20
195.044218442147951
 10
285.2442913572199359
 20
195.2292534097441035
 10
285.8489093691200083
 20
195.1803998904360355
 10
286.0167748927519824
 20
195.1344015161520247
 10
286.1851498849999871
 20
195.0903045157800761
 10
286.7331912025518932
 20
194.8303038984960267
 10
287.1640459988478824
 20
194.3678897892119721
 10
287.4345324131359121
 20
193.722679046891983
 10
287.5085981427800448
 20
192.8935468511040199
 10
287.3415884230280426
 20
191.8827832704600382
 10
287.4013126163479228
 20
191.0398222388640761
 10
287.6932356346280812
 20
189.9115968066240612
 10
288.2258259394160405
 20
188.6537787103920323
 10
288.9944744045599805
 20
187.3423010888040494
 10
290.0
 20
187.3199999999999932
 10
291.0055255954400195
 20
187.3423010888039926
 10
291.7741740605839027
 20
188.6537787103920323
 10
292.3067643653720324
 20
189.9115968066239475
 10
292.5986873836520772
 20
191.0398222388640193
 10
292.6584115769720711
 20
191.8827832704600382
 10
292.4914018572200121
 20
192.893546851103963
 10
292.5654675868640879
 20
193.722679046891983
 10
292.8359540011519471
 20
194.3678897892119721
 10
293.2668087974479363
 20
194.8303038984959699
 10
293.8148501150001266
 20
195.0903045157799625
 10
293.9832251101639145
 20
195.1344015167999828
 10
294.1510906308799917
 20
195.1803998904359787
 10
294.7557086427800641
 20
195.2292534097439329
 10
295.3600468965559003
 20
195.0442184421478942
 10
295.9169003738840615
 20
194.6206927558919801
 10
296.3956092748760511
 20
193.9396760756760614
 10
296.7563564052318839
 20
192.9808242778799467
 10
297.2295595900999956
 20
192.2806607065319895
 10
298.0464850554319582
 20
191.4495503303639339
 10
299.1366308376560141
 20
190.626543058115999
 10
300.4580387456119297
 20
189.8750943539400282
 10
301.3399999999999181
 20
190.358543842139909
 10
302.1996601652600134
 20
190.8806199493799909
 10
302.2095904519519536
 20
192.4007171186999017
 10
302.0419181376199731
 20
193.756314696059917
 10
301.7306181713599926
 20
194.879348090183953
 10
301.3608603243079074
 20
195.6392358548520178
 10
300.7108438740200427
 20
196.4310779328959029
 10
300.3604205792238986
 20
197.1861603424319469
 10
300.2720633142319571
 20
197.8801724433000118
 10
300.413987458723966
 20
198.4960622071919829
 10
300.7586048533399321
 20
198.9952500054359916
 10
300.8823733759519428
 20
199.1176266259920453
 10
301.0047499945640084
 20
199.2413951466600111
 10
301.5039377928079602
 20
199.5860125412759771
 10
302.1198275566999882
 20
199.7279366857679292
 10
302.8138396575679394
 20
199.6395794207759309
 10
303.5689220671039834
 20
199.2891561259799573
 10
304.3607641451479822
 20
198.6391396756919221
 10
305.1206519098159902
 20
198.2693818286399505
 10
306.2436853039400262
 20
197.9580818623799701
 10
307.5992828812999278
 20
197.7904095480480464
 10
309.119380050620066
 20
197.8003398347399866
 10
309.6414561578600342
 20
198.660000000000025
 10
310.1249056460599149
 20
199.5419612543878429
 10
309.373456941884001
 20
200.863369162343929
 10
308.5504496696359524
 20
201.9535149445679281
 10
307.7193392934678968
 20
202.7704404098998907
 10
307.0191757221199396
 20
203.2436435947678888
 10
306.0603239243239386
 20
203.6043907251239489
 10
305.3793072441080199
 20
204.083099626116109
 10
304.955781557852049
 20
204.6399531034439292
 10
304.7707465902559534
 20
205.2442913572199359
 10
304.8196001095640213
 20
205.8489093691200083
 10
304.8655984838479753
 20
206.0167748927519256
 10
304.9096954842200375
 20
206.1851498849998734
 10
305.1696961015040301
 20
206.73319120255195
 10
305.6321102107880279
 20
207.1640459988481666
 10
306.2773209531079601
 20
207.4345324131363668
 10
307.1064531488959801
 20
207.5085981427802153
 10
308.1172167295400186
 20
207.3415884230279289
 10
308.9601777611359807
 20
207.4013126163478375
 10
310.0884031933759957
 20
207.6932356346279391
 10
311.3462212896080246
 20
208.2258259394160973
 10
312.6576989111960074
 20
208.9944744045599236
 10
312.67999999999995
 20
210.0
 10
312.6576989111960074
 20
211.0055255954405311
 10
311.3462212896080246
 20
211.7741740605839027
 10
310.0884031933759957
 20
212.3067643653720609
 10
308.9601777611359807
 20
212.5986873836521909
 10
308.1172167295400186
 20
212.6584115769720711
 10
307.1064531488959801
 20
212.4914018572198415
 10
306.2773209531079601
 20
212.5654675868641448
 10
305.6321102107880279
 20
212.8359540011522881
 10
305.1696961015040301
 20
213.26680879744805
 10
304.9096954842200944
 20
213.8148501150001266
 10
304.8655984831999604
 20
213.9832251101641418
 10
304.8196001095640213
 20
214.1510906308800486
 10
304.7707465902560671
 20
214.7557086427800641
 10
304.955781557852049
 20
215.360046896556014
 10
305.3793072441080199
 20
215.9169003738840047
 10
306.0603239243239955
 20
216.3956092748759943
 10
307.0191757221199396
 20
216.7563564052321112
 10
307.7193392934678968
 20
217.229559590100223
 10
308.5504496696359524
 20
218.0464850554320719
 10
309.373456941884001
 20
219.136630837656071
 10
310.1249056460599718
 20
220.4580387456119297
 10
309.6414561578600342
 20
221.3400000000000318
 10
309.119380050620066
 20
222.1996601652600702
 10
307.5992828813000983
 20
222.2095904519520673
 10
306.2436853039400262
 20
222.0419181376200299
 10
305.1206519098159333
 20
221.7306181713600495
 10
304.3607641451479822
 20
221.3608603243080779
 10
303.5689220671039834
 20
220.7108438740199858
 10
302.8138396575679394
 20
220.3604205792240123
 10
302.1198275567001019
 20
220.2720633142319571
 10
301.5039377928080171
 20
220.4139874587240229
 10
301.0047499945640084
 20
220.7586048533399889
 10
300.8823733740080684
 20
220.8823733759519996
 10
300.7586048533399889
 20
221.0047499945639515
 10
300.4139874587240229
 20
221.5039377928080171
 10
300.2720633142320139
 20
222.1198275566999882
 10
300.3604205792240691
 20
222.8138396575680531
 10
300.7108438740200427
 20
223.5689220671040403
 10
301.3608603243079642
 20
224.360764145148039
 10
301.7306181713600495
 20
225.120651909816047
 10
302.0419181376200299
 20
226.243685303940083
 10
302.2095904519520104
 20
227.5992828813000415
 10
302.1996601652600702
 20
229.1193800506200091
 10
301.3400000000000318
 20
229.6414561578599773
 10
300.4580387456119865
 20
230.1249056460600286
 10
299.1366308376560141
 20
229.373456941884001
 10
298.0464850554320151
 20
228.5504496696360093
 10
297.2295595900999388
 20
227.7193392934680674
 10
296.7563564052320544
 20
227.0191757221199964
 10
296.395609274876108
 20
226.0603239243239955
 10
295.9169003738840047
 20
225.3793072441080767
 10
295.3600468965560708
 20
224.955781557852049
 10
294.7557086427800641
 20
224.7707465902560671
 10
294.1510906308799917
 20
224.8196001095639645
 10
293.9832251072480176
 20
224.8655984838480322
  0
LINE
  5
103
100
AcDbEntity
100
AcDbLine
  8
0
 62
256
370
-1
  6
ByLayer
 10
296.3250000074917807
 20
206.405994335561445
 30
0.0
 11
289.9500000074917807
 21
202.7253871047922757
 31
0.0
  0
LINE
  5
104
100
AcDbEntity
100
AcDbLine
  8
0
 62
256
370
-1
  6
ByLayer
 10
296.2749999999999773
 20
213.6806082091423491
 30
0.0
 11
296.2749999999999773
 21
206.3193917908576509
 31
0.0
  0
LINE
  5
105
100
AcDbEntity
100
AcDbLine
  8
0
 62
256
370
-1
  6
ByLayer
 10
289.9500000074917807
 20
217.2746128952077243
 30
0.0
 11
296.3250000074917807
 21
213.594005664438555
 31
0.0
  0
LINE
  5
106
100
AcDbEntity
100
AcDbLine
  8
0
 62
256
370
-1
  6
ByLayer
 10
290.0499999925082193
 20
217.2746128952077243
 30
0.0
 11
283.6749999925082193
 21
213.594005664438555
 31
0.0
  0
LINE
  5
107
100
AcDbEntity
100
AcDbLine
  8
0
 62
256
370
-1
  6
ByLayer
 10
283.7250000000000227
 20
213.6806082091424059
 30
0.0
 11
283.7249999999999659
 21
206.3193917908576509
 31
0.0
  0
LINE
  5
108
100
AcDbEntity
100
AcDbLine
  8
0
 62
256
370
-1
  6
ByLayer
 10
283.6749999925082193
 20
206.405994335561445
 30
0.0
 11
290.0499999925082193
 21
202.7253871047922757
 31
0.0
  0
LWPOLYLINE
  5
109
  8
0
 62
7
420
16777215
370
-1
  6
ByLayer
100
AcDbEntity
100
AcDbPolyline
 90
264
 70
1
 10
293.8148501150001266
 20
104.909695484220066
 10
293.26680879744805
 20
105.1696961015040017
 10
292.8359540011520608
 20
105.6321102107880563
 10
292.5654675868640879
 20
106.2773209531081022
 10
292.4914018572200121
 20
107.1064531488960654
 10
292.6584115769721279
 20
108.1172167295399902
 10
292.5986873836519067
 20
108.960177761136066
 10
292.3067643653720893
 20
110.0884031933760809
 10
291.7741740605839027
 20
111.3462212896079961
 10
291.0055255954400195
 20
112.6576989111960359
 10
290.0
 20
112.6800000000000352
 10
288.9944744045599805
 20
112.6576989111960927
 10
288.2258259394160973
 20
111.346221289608053
 10
287.6932356346280812
 20
110.0884031933761378
 10
287.4013126163480933
 20
108.960177761136066
 10
287.3415884230280426
 20
108.117216729540047
 10
287.5085981427800448
 20
107.1064531488960654
 10
287.4345324131360826
 20
106.2773209531080454
 10
287.1640459988480529
 20
105.6321102107880563
 10
286.7331912025520637
 20
105.1696961015040586
 10
286.1851498850000439
 20
104.9096954842201228
 10
286.0167748898360287
 20
104.8655984832001025
 10
285.8489093691200651
 20
104.8196001095641066
 10
285.2442913572200496
 20
104.7707465902560955
 10
284.6399531034440997
 20
104.9557815578520774
 10
284.0830996261159953
 20
105.3793072441081051
 10
283.6043907251240626
 20
106.0603239243240239
 10
283.2436435947681161
 20
107.0191757221200817
 10
282.7704404099000612
 20
107.7193392934680958
 10
281.9535149445680418
 20
108.5504496696360377
 10
280.8633691623439859
 20
109.3734569418840863
 10
279.5419612543880135
 20
110.1249056460601139
 10
278.6600000000000819
 20
109.6414561578601194
 10
277.8003398347401003
 20
109.1193800506200944
 10
277.7904095480480464
 20
107.5992828813000131
 10
277.9580818623800269
 20
106.2436853039401115
 10
278.2693818286400074
 20
105.1206519098160754
 10
278.6391396756920926
 20
104.3607641451480674
 10
279.2891561259801279
 20
103.5689220671040687
 10
279.6395794207761014
 20
102.8138396575680815
 10
279.7279366857680429
 20
102.1198275567000735
 10
279.586012541276034
 20
101.5039377928080455
 10
279.2413951466600679
 20
101.0047499945640368
 10
279.1176266240480572
 20
100.8823733740080968
 10
278.9952500054359916
 20
100.7586048533400742
 10
278.4960622071919829
 20
100.4139874587240513
 10
277.8801724433000118
 20
100.2720633142320992
 10
277.1861603424319469
 20
100.3604205792240407
 10
276.4310779328960166
 20
100.7108438740200711
 10
275.6392358548520178
 20
101.3608603243081063
 10
274.8793480901840667
 20
101.7306181713600921
 10
273.7563146960599738
 20
102.0419181376200584
 10
272.4007171187000722
 20
102.2095904519520957
 10
270.8806199493800477
 20
102.1996601652600418
 10
270.3585438421400227
 20
101.3400000000001455
 10
269.8750943539400282
 20
100.458038745612086
 10
270.626543058115999
 20
99.1366308376560426
 10
271.4495503303640476
 20
98.0464850554321004
 10
272.2806607065319326
 20
97.229559590100024
 10
272.9808242778800604
 20
96.7563564052320828
 10
273.9396760756760045
 20
96.3956092748760796
 10
274.6206927558919801
 20
95.91690037388409
 10
275.0442184421480647
 20
95.3600468965560424
 10
275.2292534097440466
 20
94.7557086427800783
 10
275.1803998904360355
 20
94.1510906308800202
 10
275.1344015161520247
 20
93.983225107248046
 10
275.0903045157800761
 20
93.8148501150000982
 10
274.8303038984959699
 20
93.2668087974481352
 10
274.3678897892119721
 20
92.8359540011522029
 10
273.7226790468920399
 20
92.5654675868640027
 10
272.8935468511040199
 20
92.49140185722014
 10
271.8827832704599814
 20
92.6584115769721564
 10
271.0398222388640193
 20
92.5986873836520488
 10
269.9115968066240043
 20
92.3067643653721746
 10
268.6537787103919754
 20
91.7741740605843006
 10
267.3423010888039926
 20
91.0055255954401474
 10
267.32000000000005
 20
90.0
 10
267.3423010888039926
 20
88.99447440456008
 10
268.6537787103919754
 20
88.2258259394160547
 10
269.9115968066240043
 20
87.6932356346280528
 10
271.0398222388640193
 20
87.4013126163481928
 10
271.8827832704599814
 20
87.3415884230280568
 10
272.8935468511040199
 20
87.508598142780059
 10
273.7226790468920399
 20
87.43453241313604
 10
274.3678897892119721
 20
87.1640459988480245
 10
274.8303038984959699
 20
86.7331912025520921
 10
275.0903045157800761
 20
86.1851498850000723
 10
275.1344015167999828
 20
86.0167748898361282
 10
275.1803998904359787
 20
85.8489093691201077
 10
275.2292534097439329
 20
85.2442913572200212
 10
275.044218442147951
 20
84.6399531034440713
 10
274.6206927558919801
 20
84.0830996261160095
 10
273.9396760756760045
 20
83.6043907251241052
 10
272.9808242778798899
 20
83.2436435947680735
 10
272.2806607065319326
 20
82.7704404099000328
 10
271.4495503303640476
 20
81.9535149445680844
 10
270.6265430581159421
 20
80.8633691623440711
 10
269.8750943539400282
 20
79.5419612543880419
 10
270.3585438421399658
 20
78.6600000000001103
 10
270.8806199493800477
 20
77.8003398347400719
 10
272.4007171187000722
 20
77.7904095480480748
 10
273.7563146960599738
 20
77.9580818623800553
 10
274.8793480901840098
 20
78.2693818286400926
 10
275.639235854851961
 20
78.6391396756920074
 10
276.4310779328960166
 20
79.2891561259800426
 10
277.1861603424320606
 20
79.6395794207761298
 10
277.8801724433000118
 20
79.7279366857680714
 10
278.4960622071919829
 20
79.5860125412760624
 10
278.9952500054359916
 20
79.2413951466600395
 10
279.1176266259919316
 20
79.1176266240480288
 10
279.2413951466600111
 20
78.9952500054360769
 10
279.5860125412759771
 20
78.4960622071920682
 10
279.7279366857680429
 20
77.880172443300097
 10
279.6395794207759309
 20
77.186160342432089
 10
279.2891561259801279
 20
76.431077932896045
 10
278.6391396756918652
 20
75.6392358548521031
 10
278.2693818286399505
 20
74.8793480901839814
 10
277.9580818623800269
 20
73.7563146960600022
 10
277.7904095480479896
 20
72.4007171187000438
 10
277.8003398347399866
 20
70.8806199493800193
 10
278.6600000000000819
 20
70.3585438421400511
 10
279.5419612543880703
 20
69.8750943539401135
 10
280.8633691623439859
 20
70.6265430581160842
 10
281.9535149445679849
 20
71.449550330364076
 10
282.7704404098998907
 20
72.2806607065320179
 10
283.2436435947679456
 20
72.980824277880032
 10
283.604390725123892
 20
73.939676075676033
 10
284.0830996261159953
 20
74.6206927558920654
 10
284.6399531034439292
 20
75.0442184421479794
 10
285.2442913572199359
 20
75.2292534097441319
 10
285.8489093691200083
 20
75.180399890436064
 10
286.0167748927519824
 20
75.1344015161520531
 10
286.1851498850000439
 20
75.0903045157801046
 10
286.7331912025518932
 20
74.8303038984960551
 10
287.1640459988478824
 20
74.3678897892120006
 10
287.4345324131359121
 20
73.7226790468920115
 10
287.5085981427800448
 20
72.8935468511040483
 10
287.3415884230280426
 20
71.8827832704600667
 10
287.4013126163479228
 20
71.0398222388641045
 10
287.6932356346280812
 20
69.9115968066240896
 10
288.2258259394160405
 20
68.6537787103920607
 10
288.9944744045599805
 20
67.3423010888040778
 10
290.0
 20
67.3199999999999648
 10
291.0055255954400195
 20
67.342301088804021
 10
291.7741740605839027
 20
68.6537787103920607
 10
292.3067643653720324
 20
69.9115968066239759
 10
292.5986873836520772
 20
71.0398222388641045
 10
292.6584115769720711
 20
71.8827832704600667
 10
292.4914018572200121
 20
72.8935468511039915
 10
292.5654675868640879
 20
73.7226790468920115
 10
292.8359540011519471
 20
74.3678897892120006
 10
293.2668087974479363
 20
74.8303038984959983
 10
293.8148501150001266
 20
75.0903045157799909
 10
293.9832251101639145
 20
75.1344015168000112
 10
294.1510906308799917
 20
75.1803998904360071
 10
294.7557086427800641
 20
75.2292534097439614
 10
295.3600468965559003
 20
75.0442184421479226
 10
295.9169003738840615
 20
74.6206927558920086
 10
296.3956092748760511
 20
73.9396760756760898
 10
296.7563564052318839
 20
72.9808242778799752
 10
297.2295595900999956
 20
72.2806607065320179
 10
298.0464850554319582
 20
71.4495503303639623
 10
299.1366308376560141
 20
70.6265430581160274
 10
300.4580387456119297
 20
69.8750943539400566
 10
301.3399999999999181
 20
70.3585438421399232
 10
302.1996601652600134
 20
70.8806199493800193
 10
302.2095904519519536
 20
72.4007171186999301
 10
302.0419181376199731
 20
73.7563146960599454
 10
301.7306181713599926
 20
74.8793480901839814
 10
301.3608603243079074
 20
75.6392358548520463
 10
300.7108438740200427
 20
76.4310779328959313
 10
300.3604205792238986
 20
77.1861603424319753
 10
300.2720633142319571
 20
77.8801724433000402
 10
300.413987458723966
 20
78.4960622071920113
 10
300.7586048533399321
 20
78.99525000543602
 10
300.8823733759519428
 20
79.1176266259920737
 10
301.0047499945640084
 20
79.2413951466600395
 10
301.5039377928079602
 20
79.5860125412760055
 10
302.1198275566999882
 20
79.7279366857679577
 10
302.8138396575679394
 20
79.6395794207759593
 10
303.5689220671039834
 20
79.2891561259799715
 10
304.3607641451479822
 20
78.6391396756919363
 10
305.1206519098159902
 20
78.2693818286399789
 10
306.2436853039400262
 20
77.9580818623799985
 10
307.5992828812999278
 20
77.7904095480480748
 10
309.119380050620066
 20
77.8003398347400008
 10
309.6414561578600342
 20
78.6600000000000534
 10
310.1249056460599149
 20
79.5419612543878713
 10
309.373456941884001
 20
80.8633691623439432
 10
308.5504496696359524
 20
81.9535149445679423
 10
307.7193392934678968
 20
82.7704404098999191
 10
307.0191757221199396
 20
83.243643594767903
 10
306.0603239243239386
 20
83.6043907251239773
 10
305.3793072441080199
 20
84.0830996261161232
 10
304.955781557852049
 20
84.6399531034439576
 10
304.7707465902559534
 20
85.2442913572199643
 10
304.8196001095640213
 20
85.8489093691200367
 10
304.8655984838479753
 20
86.0167748927519398
 10
304.9096954842200375
 20
86.1851498849998876
 10
305.1696961015040301
 20
86.7331912025519784
 10
305.6321102107880279
 20
87.1640459988481808
 10
306.2773209531079601
 20
87.4345324131364094
 10
307.1064531488959801
 20
87.5085981427802153
 10
308.1172167295400186
 20
87.3415884230279573
 10
308.9601777611359807
 20
87.4013126163478375
 10
310.0884031933759957
 20
87.6932356346279391
 10
311.3462212896080246
 20
88.2258259394160973
 10
312.6576989111960074
 20
88.9944744045599094
 10
312.67999999999995
 20
90.0
 10
312.6576989111960074
 20
91.0055255954405453
 10
311.3462212896080246
 20
91.7741740605838885
 10
310.0884031933759957
 20
92.3067643653721035
 10
308.9601777611359807
 20
92.5986873836522051
 10
308.1172167295400186
 20
92.6584115769720853
 10
307.1064531488959801
 20
92.49140185721987
 10
306.2773209531079601
 20
92.5654675868641874
 10
305.6321102107880279
 20
92.8359540011523166
 10
305.1696961015040301
 20
93.2668087974480784
 10
304.9096954842200944
 20
93.814850115000155
 10
304.8655984831999604
 20
93.9832251101641702
 10
304.8196001095640213
 20
94.151090630880077
 10
304.7707465902560671
 20
94.7557086427800925
 10
304.955781557852049
 20
95.3600468965560424
 10
305.3793072441080199
 20
95.9169003738840331
 10
306.0603239243239955
 20
96.3956092748760227
 10
307.0191757221199396
 20
96.7563564052321397
 10
307.7193392934678968
 20
97.2295595901002514
 10
308.5504496696359524
 20
98.0464850554321004
 10
309.373456941884001
 20
99.1366308376560994
 10
310.1249056460599718
 20
100.4580387456119581
 10
309.6414561578600342
 20
101.3400000000000603
 10
309.119380050620066
 20
102.1996601652600987
 10
307.5992828813000983
 20
102.2095904519520957
 10
306.2436853039400262
 20
102.0419181376200584
 10
305.1206519098159333
 20
101.7306181713600779
 10
304.3607641451479822
 20
101.3608603243081063
 10
303.5689220671039834
 20
100.7108438740200143
 10
302.8138396575679394
 20
100.3604205792240407
 10
302.1198275567001019
 20
100.2720633142319855
 10
301.5039377928080171
 20
100.4139874587240513
 10
301.0047499945640084
 20
100.7586048533400174
 10
300.8823733740080684
 20
100.882373375952028
 10
300.7586048533399889
 20
101.00474999456398
 10
300.4139874587240229
 20
101.5039377928080455
 10
300.2720633142320139
 20
102.1198275567000167
 10
300.3604205792240691
 20
102.8138396575680815
 10
300.7108438740200427
 20
103.5689220671040687
 10
301.3608603243079642
 20
104.3607641451480674
 10
301.7306181713600495
 20
105.1206519098160754
 10
302.0419181376200299
 20
106.2436853039401115
 10
302.2095904519520104
 20
107.5992828813000699
 10
302.1996601652600702
 20
109.1193800506200375
 10
301.3400000000000318
 20
109.6414561578600058
 10
300.4580387456119865
 20
110.1249056460600571
 10
299.1366308376560141
 20
109.3734569418840294
 10
298.0464850554320151
 20
108.5504496696360377
 10
297.2295595900999388
 20
107.7193392934680958
 10
296.7563564052320544
 20
107.0191757221200248
 10
296.395609274876108
 20
106.0603239243240239
 10
295.9169003738840047
 20
105.3793072441081051
 10
295.3600468965560708
 20
104.9557815578520774
 10
294.7557086427800641
 20
104.7707465902560955
 10
294.1510906308799917
 20
104.8196001095639929
 10
293.9832251072480176
 20
104.8655984838480606
  0
ARC
  5
10A
100
AcDbEntity
  8
0
 62
256
370
-1
  6
ByLayer
100
AcDbCircle
 10
290.0
 20
90.0
 30
0.0
 40
2.8300000000000001
100
AcDbArc
 50
33.3765774442065606
 51
326.6071974979699917
  0
LINE
  5
10B
100
AcDbEntity
100
AcDbLine
  8
0
 62
256
370
-1
  6
ByLayer
 10
292.3467633941323243
 20
91.6119226235689723
 30
0.0
 11
292.3463068346982254
 21
88.3874128830165375
 31
0.0
  0
CIRCLE
  5
10C
100
AcDbEntity
100
AcDbCircle
  8
0
 62
256
370
-1
  6
ByLayer
 10
340.0000000000000568
 20
280.5
 30
0.0
 40
11.0
  0
CIRCLE
  5
10D
100
AcDbEntity
100
AcDbCircle
  8
Motor Plate
 62
256
370
-1
  6
ByLayer
 10
340.0000000000000568
 20
296.0
 30
0.0
 40
1.3999999999999999
  0
CIRCLE
  5
10E
100
AcDbEntity
100
AcDbCircle
  8
Motor Plate
 62
256
370
-1
  6
ByLayer
 10
340.0000000000000568
 20
265.0
 30
0.0
 40
1.3999999999999999
  0
CIRCLE
  5
10F
100
AcDbEntity
100
AcDbCircle
  8
Motor Plate
 62
256
370
-1
  6
ByLayer
 10
353.4233937586588468
 20
272.75
 30
0.0
 40
1.3999999999999999
  0
CIRCLE
  5
110
100
AcDbEntity
100
AcDbCircle
  8
Motor Plate
 62
256
370
-1
  6
ByLayer
 10
326.5766062413412669
 20
272.75
 30
0.0
 40
1.3999999999999999
  0
CIRCLE
  5
111
100
AcDbEntity
100
AcDbCircle
  8
Motor Plate
 62
256
370
-1
  6
ByLayer
 10
353.4233937586588468
 20
288.25
 30
0.0
 40
1.3999999999999999
  0
CIRCLE
  5
112
100
AcDbEntity
100
AcDbCircle
  8
Motor Plate
 62
256
370
-1
  6
ByLayer
 10
326.5766062413412669
 20
288.25
 30
0.0
 40
1.3999999999999999
  0
LINE
  5
113
100
AcDbEntity
100
AcDbLine
  8
0
 62
256
370
-1
  6
ByLayer
 10
365.0
 20
301.5
 30
0.0
 11
315.0
 21
301.5
 31
0.0
  0
LINE
  5
114
100
AcDbEntity
100
AcDbLine
  8
0
 62
256
370
-1
  6
ByLayer
 10
315.0
 20
301.5
 30
0.0
 11
315.0
 21
271.5
 31
0.0
  0
LINE
  5
115
100
AcDbEntity
100
AcDbLine
  8
0
 62
256
370
-1
  6
ByLayer
 10
315.0
 20
271.5
 30
0.0
 11
315.0
 21
221.5000000000000284
 31
0.0
  0
LINE
  5
116
100
AcDbEntity
100
AcDbLine
  8
0
 62
256
370
-1
  6
ByLayer
 10
365.0
 20
301.5
 30
0.0
 11
365.0
 21
221.5
 31
0.0
  0
CIRCLE
  5
117
100
AcDbEntity
100
AcDbCircle
  8
0
 62
256
370
-1
  6
ByLayer
 10
340.0
 20
241.5
 30
0.0
 40
4.0452052697457725
  0
CIRCLE
  5
118
100
AcDbEntity
100
AcDbCircle
  8
0
 62
256
370
-1
  6
ByLayer
 10
355.0
 20
261.5
 30
0.0
 40
1.5
  0
CIRCLE
  5
119
100
AcDbEntity
100
AcDbCircle
  8
0
 62
256
370
-1
  6
ByLayer
 10
325.0
 20
261.5
 30
0.0
 40
1.5
  0
INSERT
  5
11A
100
AcDbEntity
100
AcDbBlockReference
  8
0
 62
256
370
-1
  6
ByLayer
  2
tabs no ts
 10
340.0
 20
221.5
 30
0.0
 44
1.0
 45
1.0
  0
LINE
  5
11B
100
AcDbEntity
100
AcDbLine
  8
0
 62
256
370
-1
  6
ByLayer
 10
325.0
 20
221.5
 30
0.0
 11
315.0
 21
221.5000000000000284
 31
0.0
  0
LINE
  5
11C
100
AcDbEntity
100
AcDbLine
  8
0
 62
256
370
-1
  6
ByLayer
 10
355.0
 20
221.5
 30
0.0
 11
365.0
 21
221.5
 31
0.0
  0
LINE
  5
11D
100
AcDbEntity
100
AcDbLine
  8
0
 62
256
370
-1
  6
ByLayer
 10
356.5883031206706164
 20
27.0749999999999851
 30
0.0
 11
356.5883031206706164
 21
27.0749999999999851
 31
0.0
  0
LINE
  5
11E
100
AcDbEntity
100
AcDbLine
  8
0
 62
256
370
-1
  6
ByLayer
 10
352.0
 20
30.0
 30
0.0
 11
352.0
 21
30.0
 31
0.0
  0
ARC
  5
11F
100
AcDbEntity
  8
0
 62
256
370
-1
  6
ByLayer
100
AcDbCircle
 10
340.0
 20
30.0
 30
0.0
 40
12.0
100
AcDbArc
 50
180.0
 51
0.0
  0
LINE
  5
120
100
AcDbEntity
100
AcDbLine
  8
0
 62
256
370
-1
  6
ByLayer
 10
352.0
 20
32.0
 30
0.0
 11
351.0
 21
35.0
 31
0.0
  0
LINE
  5
121
100
AcDbEntity
100
AcDbLine
  8
0
 62
256
370
-1
  6
ByLayer
 10
351.0
 20
35.0
 30
0.0
 11
352.0
 21
37.0
 31
0.0
  0
LINE
  5
122
100
AcDbEntity
100
AcDbLine
  8
0
 62
256
370
-1
  6
ByLayer
 10
328.0
 20
32.0
 30
0.0
 11
329.0
 21
35.0
 31
0.0
  0
LINE
  5
123
100
AcDbEntity
100
AcDbLine
  8
0
 62
256
370
-1
  6
ByLayer
 10
329.0
 20
35.0
 30
0.0
 11
328.0
 21
37.0
 31
0.0
  0
LINE
  5
124
100
AcDbEntity
100
AcDbLine
  8
0
 62
256
370
-1
  6
ByLayer
 10
328.0
 20
32.0
 30
0.0
 11
328.0
 21
30.0
 31
0.0
  0
LINE
  5
125
100
AcDbEntity
100
AcDbLine
  8
0
 62
256
370
-1
  6
ByLayer
 10
352.0
 20
30.0
 30
0.0
 11
352.0
 21
32.0
 31
0.0
  0
CIRCLE
  5
126
100
AcDbEntity
100
AcDbCircle
  8
0
 62
256
370
-1
  6
ByLayer
 10
392.0
 20
29.9999999999999858
 30
0.0
 40
2.5
  0
CIRCLE
  5
127
100
AcDbEntity
100
AcDbCircle
  8
0
 62
256
370
-1
  6
ByLayer
 10
288.0
 20
30.0000000000000071
 30
0.0
 40
2.5
  0
LINE
  5
128
100
AcDbEntity
100
AcDbLine
  8
0
 62
256
370
-1
  6
ByLayer
 10
270.0
 20
60.0000000000000426
 30
0.0
 11
328.0
 21
60.0
 31
0.0
  0
LINE
  5
129
100
AcDbEntity
100
AcDbLine
  8
0
 62
256
370
-1
  6
ByLayer
 10
328.0
 20
60.0
 30
0.0
 11
328.0
 21
37.0
 31
0.0
  0
LINE
  5
12A
100
AcDbEntity
100
AcDbLine
  8
0
 62
256
370
-1
  6
ByLayer
 10
270.0
 20
-0.0000000000000249
 30
0.0
 11
270.0
 21
60.0000000000000426
 31
0.0
  0
LINE
  5
12B
100
AcDbEntity
100
AcDbLine
  8
0
 62
256
370
-1
  6
ByLayer
 10
410.0
 20
-0.0000000000000142
 30
0.0
 11
270.0
 21
-0.0000000000000249
 31
0.0
  0
LINE
  5
12C
100
AcDbEntity
100
AcDbLine
  8
0
 62
256
370
-1
  6
ByLayer
 10
410.0
 20
60.0000000000000213
 30
0.0
 11
410.0
 21
-0.0000000000000142
 31
0.0
  0
LINE
  5
12D
100
AcDbEntity
100
AcDbLine
  8
0
 62
256
370
-1
  6
ByLayer
 10
352.0
 20
60.0
 30
0.0
 11
410.0
 21
60.0000000000000213
 31
0.0
  0
LINE
  5
12E
100
AcDbEntity
100
AcDbLine
  8
0
 62
256
370
-1
  6
ByLayer
 10
352.0
 20
37.0
 30
0.0
 11
352.0
 21
60.0
 31
0.0
  0
CIRCLE
  5
12F
100
AcDbEntity
100
AcDbCircle
  8
0
 62
256
370
-1
  6
ByLayer
 10
311.5
 20
35.0000000000000355
 30
0.0
 40
4.0
  0
CIRCLE
  5
130
100
AcDbEntity
100
AcDbCircle
  8
0
 62
256
370
-1
  6
ByLayer
 10
368.5
 20
35.0000000000000142
 30
0.0
 40
4.0
  0
CIRCLE
  5
131
100
AcDbEntity
100
AcDbCircle
  8
0
 62
256
370
-1
  6
ByLayer
 10
340.0
 20
8.5
 30
0.0
 40
4.0
  0
LINE
  5
132
100
AcDbEntity
100
AcDbLine
  8
0
 62
256
370
-1
  6
ByLayer
 10
352.0
 20
150.0
 30
0.0
 11
352.0
 21
150.0
 31
0.0
  0
ARC
  5
133
100
AcDbEntity
  8
0
 62
256
370
-1
  6
ByLayer
100
AcDbCircle
 10
340.0
 20
150.0
 30
0.0
 40
12.0
100
AcDbArc
 50
180.0
 51
0.0
  0
LINE
  5
134
100
AcDbEntity
100
AcDbLine
  8
0
 62
256
370
-1
  6
ByLayer
 10
352.0
 20
152.0
 30
0.0
 11
351.0
 21
155.0
 31
0.0
  0
LINE
  5
135
100
AcDbEntity
100
AcDbLine
  8
0
 62
256
370
-1
  6
ByLayer
 10
351.0
 20
155.0
 30
0.0
 11
352.0
 21
157.0
 31
0.0
  0
LINE
  5
136
100
AcDbEntity
100
AcDbLine
  8
0
 62
256
370
-1
  6
ByLayer
 10
328.0
 20
152.0
 30
0.0
 11
329.0
 21
155.0
 31
0.0
  0
LINE
  5
137
100
AcDbEntity
100
AcDbLine
  8
0
 62
256
370
-1
  6
ByLayer
 10
329.0
 20
155.0
 30
0.0
 11
328.0
 21
157.0
 31
0.0
  0
LINE
  5
138
100
AcDbEntity
100
AcDbLine
  8
0
 62
256
370
-1
  6
ByLayer
 10
328.0
 20
152.0
 30
0.0
 11
328.0
 21
150.0
 31
0.0
  0
LINE
  5
139
100
AcDbEntity
100
AcDbLine
  8
0
 62
256
370
-1
  6
ByLayer
 10
352.0
 20
150.0
 30
0.0
 11
352.0
 21
152.0
 31
0.0
  0
CIRCLE
  5
13A
100
AcDbEntity
100
AcDbCircle
  8
0
 62
256
370
-1
  6
ByLayer
 10
392.0
 20
150.0
 30
0.0
 40
2.5
  0
CIRCLE
  5
13B
100
AcDbEntity
100
AcDbCircle
  8
0
 62
256
370
-1
  6
ByLayer
 10
288.0
 20
150.0
 30
0.0
 40
2.5
  0
LINE
  5
13C
100
AcDbEntity
100
AcDbLine
  8
0
 62
256
370
-1
  6
ByLayer
 10
270.0
 20
180.0000000000000284
 30
0.0
 11
328.0
 21
180.0
 31
0.0
  0
LINE
  5
13D
100
AcDbEntity
100
AcDbLine
  8
0
 62
256
370
-1
  6
ByLayer
 10
328.0
 20
180.0
 30
0.0
 11
328.0
 21
157.0
 31
0.0
  0
LINE
  5
13E
100
AcDbEntity
100
AcDbLine
  8
0
 62
256
370
-1
  6
ByLayer
 10
270.0
 20
119.9999999999999716
 30
0.0
 11
270.0
 21
180.0000000000000284
 31
0.0
  0
LINE
  5
13F
100
AcDbEntity
100
AcDbLine
  8
0
 62
256
370
-1
  6
ByLayer
 10
410.0
 20
119.9999999999999858
 30
0.0
 11
270.0
 21
119.9999999999999716
 31
0.0
  0
LINE
  5
140
100
AcDbEntity
100
AcDbLine
  8
0
 62
256
370
-1
  6
ByLayer
 10
410.0
 20
180.0000000000000284
 30
0.0
 11
410.0
 21
119.9999999999999858
 31
0.0
  0
LINE
  5
141
100
AcDbEntity
100
AcDbLine
  8
0
 62
256
370
-1
  6
ByLayer
 10
352.0
 20
180.0
 30
0.0
 11
410.0
 21
180.0000000000000284
 31
0.0
  0
LINE
  5
142
100
AcDbEntity
100
AcDbLine
  8
0
 62
256
370
-1
  6
ByLayer
 10
352.0
 20
157.0
 30
0.0
 11
352.0
 21
180.0
 31
0.0
  0
INSERT
  5
143
100
AcDbEntity
100
AcDbBlockReference
  8
0
 62
256
370
-1
  6
ByLayer
  2
slots
 10
340.0
 20
128.5
 30
0.0
 44
1.0
 45
1.0
  0
INSERT
  5
144
100
AcDbEntity
100
AcDbBlockReference
  8
0
 62
256
370
-1
  6
ByLayer
  2
slots
 10
368.5
 20
155.0
 30
0.0
 50
90.0
 44
1.0
 45
1.0
  0
INSERT
  5
145
100
AcDbEntity
100
AcDbBlockReference
  8
0
 62
256
370
-1
  6
ByLayer
  2
slots
 10
311.5
 20
155.0000000000000284
 30
0.0
 50
90.0
 44
1.0
 45
1.0
  0
LINE
  5
146
100
AcDbEntity
100
AcDbLine
  8
0
 62
256
370
-1
  6
ByLayer
 10
346.3250000074917807
 20
196.405994335561445
 30
0.0
 11
339.9500000074917807
 21
192.7253871047922757
 31
0.0
  0
LINE
  5
147
100
AcDbEntity
100
AcDbLine
  8
0
 62
256
370
-1
  6
ByLayer
 10
346.2749999999999773
 20
203.6806082091423491
 30
0.0
 11
346.2749999999999773
 21
196.3193917908576509
 31
0.0
  0
LINE
  5
148
100
AcDbEntity
100
AcDbLine
  8
0
 62
256
370
-1
  6
ByLayer
 10
339.9500000074917807
 20
207.2746128952077243
 30
0.0
 11
346.3250000074917807
 21
203.594005664438555
 31
0.0
  0
LINE
  5
149
100
AcDbEntity
100
AcDbLine
  8
0
 62
256
370
-1
  6
ByLayer
 10
340.0499999925082193
 20
207.2746128952077243
 30
0.0
 11
333.6749999925082193
 21
203.594005664438555
 31
0.0
  0
LINE
  5
14A
100
AcDbEntity
100
AcDbLine
  8
0
 62
256
370
-1
  6
ByLayer
 10
333.7250000000000227
 20
203.6806082091424059
 30
0.0
 11
333.7249999999999659
 21
196.3193917908576509
 31
0.0
  0
LINE
  5
14B
100
AcDbEntity
100
AcDbLine
  8
0
 62
256
370
-1
  6
ByLayer
 10
333.6749999925082193
 20
196.405994335561445
 30
0.0
 11
340.0499999925082193
 21
192.7253871047922757
 31
0.0
  0
LINE
  5
14C
100
AcDbEntity
100
AcDbLine
  8
0
 62
256
370
-1
  6
ByLayer
 10
340.0
 20
213.0
 30
0.0
 11
327.0
 21
213.0
 31
0.0
  0
LINE
  5
14D
100
AcDbEntity
100
AcDbLine
  8
0
 62
256
370
-1
  6
ByLayer
 10
327.0
 20
213.0
 30
0.0
 11
327.0
 21
187.0
 31
0.0
  0
LINE
  5
14E
100
AcDbEntity
100
AcDbLine
  8
0
 62
256
370
-1
  6
ByLayer
 10
327.0
 20
187.0
 30
0.0
 11
353.0
 21
187.0
 31
0.0
  0
LINE
  5
14F
100
AcDbEntity
100
AcDbLine
  8
0
 62
256
370
-1
  6
ByLayer
 10
353.0
 20
187.0
 30
0.0
 11
353.0
 21
195.0
 31
0.0
  0
LINE
  5
150
100
AcDbEntity
100
AcDbLine
  8
0
 62
256
370
-1
  6
ByLayer
 10
353.0
 20
195.0
 30
0.0
 11
373.0
 21
195.0
 31
0.0
  0
LINE
  5
151
100
AcDbEntity
100
AcDbLine
  8
0
 62
256
370
-1
  6
ByLayer
 10
373.0
 20
195.0
 30
0.0
 11
373.0
 21
205.0
 31
0.0
  0
LINE
  5
152
100
AcDbEntity
100
AcDbLine
  8
0
 62
256
370
-1
  6
ByLayer
 10
373.0
 20
205.0
 30
0.0
 11
353.0
 21
205.0
 31
0.0
  0
LINE
  5
153
100
AcDbEntity
100
AcDbLine
  8
0
 62
256
370
-1
  6
ByLayer
 10
353.0
 20
205.0
 30
0.0
 11
353.0
 21
213.0
 31
0.0
  0
LINE
  5
154
100
AcDbEntity
100
AcDbLine
  8
0
 62
256
370
-1
  6
ByLayer
 10
353.0
 20
213.0
 30
0.0
 11
340.0
 21
213.0
 31
0.0
  0
CIRCLE
  5
155
100
AcDbEntity
100
AcDbCircle
  8
0
 62
256
370
-1
  6
ByLayer
 10
355.0
 20
106.5
 30
0.0
 40
1.5
  0
CIRCLE
  5
156
100
AcDbEntity
100
AcDbCircle
  8
0
 62
256
370
-1
  6
ByLayer
 10
325.0
 20
106.5
 30
0.0
 40
1.5
  0
INSERT
  5
157
100
AcDbEntity
100
AcDbBlockReference
  8
0
 62
256
370
-1
  6
ByLayer
  2
tabs no ts
 10
365.0
 20
91.5000000000000853
 30
0.0
 50
90.0
 44
1.0
 45
1.0
  0
INSERT
  5
158
100
AcDbEntity
100
AcDbBlockReference
  8
0
 62
256
370
-1
  6
ByLayer
  2
tabs no ts
 10
315.0
 20
91.5000000000000853
 30
0.0
 50
270.0
 44
1.0
 45
1.0
  0
INSERT
  5
159
100
AcDbEntity
100
AcDbBlockReference
  8
0
 62
256
370
-1
  6
ByLayer
  2
tabs no ts
 10
340.0
 20
66.5
 30
0.0
 44
1.0
 45
1.0
  0
LINE
  5
15A
100
AcDbEntity
100
AcDbLine
  8
0
 62
256
370
-1
  6
ByLayer
 10
325.0
 20
66.5000000000000142
 30
0.0
 11
315.0
 21
66.5000000000000568
 31
0.0
  0
LINE
  5
15B
100
AcDbEntity
100
AcDbLine
  8
0
 62
256
370
-1
  6
ByLayer
 10
355.0
 20
66.5
 30
0.0
 11
365.0
 21
66.5
 31
0.0
  0
LINE
  5
15C
100
AcDbEntity
100
AcDbLine
  8
0
 62
256
370
-1
  6
ByLayer
 10
365.0
 20
66.5
 30
0.0
 11
365.0
 21
76.5
 31
0.0
  0
LINE
  5
15D
100
AcDbEntity
100
AcDbLine
  8
0
 62
256
370
-1
  6
ByLayer
 10
315.0
 20
76.5000000000000568
 30
0.0
 11
315.0
 21
66.5000000000000568
 31
0.0
  0
LINE
  5
15E
100
AcDbEntity
100
AcDbLine
  8
0
 62
256
370
-1
  6
ByLayer
 10
365.0
 20
116.5
 30
0.0
 11
365.0
 21
106.5
 31
0.0
  0
LINE
  5
15F
100
AcDbEntity
100
AcDbLine
  8
0
 62
256
370
-1
  6
ByLayer
 10
315.0
 20
116.5
 30
0.0
 11
315.0
 21
106.5
 31
0.0
  0
CIRCLE
  5
160
100
AcDbEntity
100
AcDbCircle
  8
0
 62
256
370
-1
  6
ByLayer
 10
340.0
 20
86.5
 30
0.0
 40
0.0
  0
CIRCLE
  5
161
100
AcDbEntity
100
AcDbCircle
  8
0
 62
256
370
-1
  6
ByLayer
 10
340.0
 20
86.5
 30
0.0
 40
4.0452052697457725
  0
LINE
  5
162
100
AcDbEntity
100
AcDbLine
  8
0
 62
256
370
-1
  6
ByLayer
 10
315.0
 20
116.5
 30
0.0
 11
365.0
 21
116.5
 31
0.0
  0
ENDSEC
  0
SECTION
  2
OBJECTS
  0
DICTIONARY
  5
C
100
AcDbDictionary
280
0
281
1
  3
ACAD_GROUP
350
D
  3
ACAD_LAYOUT
350
1A
  3
ACAD_MLINESTYLE
350
17
  3
ACAD_PLOTSETTINGS
350
19
  3
ACAD_PLOTSTYLENAME
350
E
  3
AcDbVariableDictionary
350
163
  0
DICTIONARY
  5
D
100
AcDbDictionary
280
0
281
1
  0
ACDBDICTIONARYWDFLT
  5
E
100
AcDbDictionary
281
1
  3
Normal
350
F
100
AcDbDictionaryWithDefault
340
F
  0
ACDBPLACEHOLDER
  5
F
  0
DICTIONARY
  5
17
100
AcDbDictionary
280
0
281
1
  3
Standard
350
18
  0
MLINESTYLE
  5
18
100
AcDbMlineStyle
  2
STANDARD
 70
0
  3

 62
256
 51
90.0
 52
90.0
 71
2
 49
0.5
 62
256
  6
BYLAYER
 49
-0.5
 62
256
  6
BYLAYER
  0
DICTIONARY
  5
19
100
AcDbDictionary
280
0
281
1
  0
DICTIONARY
  5
1A
100
AcDbDictionary
281
1
  3
Layout1
350
1E
  3
Layout2
350
26
  3
Model
350
22
  0
LAYOUT
  5
1E
100
AcDbPlotSettings
  1

  2
C:\Program Files\AutoCAD 2002\plotters\DWF ePlot (optimized for plotting).pc3
  4

  6

 40
0.0
 41
0.0
 42
0.0
 43
0.0
 44
0.0
 45
0.0
 46
0.0
 47
0.0
 48
0.0
 49
0.0
140
0.0
141
0.0
142
1.0
143
1.0
 70
688
 72
0
 73
0
 74
5
  7

 75
16
147
1.0
148
0.0
149
0.0
100
AcDbLayout
  1
Layout1
 70
1
 71
1
 10
0.0
 20
0.0
 11
420.0
 21
297.0
 12
0.0
 22
0.0
 32
0.0
 14
100000000000000000000.0
 24
100000000000000000000.0
 34
100000000000000000000.0
 15
-100000000000000000000.0
 25
-100000000000000000000.0
 35
-100000000000000000000.0
146
0.0
 13
0.0
 23
0.0
 33
0.0
 16
1.0
 26
0.0
 36
0.0
 17
0.0
 27
1.0
 37
0.0
 76
0
330
1B
  0
LAYOUT
  5
22
100
AcDbPlotSettings
  1

  2
C:\Program Files\AutoCAD 2002\plotters\DWF ePlot (optimized for plotting).pc3
  4

  6

 40
0.0
 41
0.0
 42
0.0
 43
0.0
 44
0.0
 45
0.0
 46
0.0
 47
0.0
 48
0.0
 49
0.0
140
0.0
141
0.0
142
1.0
143
1.0
 70
1712
 72
0
 73
0
 74
0
  7

 75
0
147
1.0
148
0.0
149
0.0
100
AcDbLayout
  1
Model
 70
1
 71
0
 10
0.0
 20
0.0
 11
12.0
 21
9.0
 12
0.0
 22
0.0
 32
0.0
 14
0.0
 24
0.0
 34
0.0
 15
0.0
 25
0.0
 35
0.0
146
0.0
 13
0.0
 23
0.0
 33
0.0
 16
1.0
 26
0.0
 36
0.0
 17
0.0
 27
1.0
 37
0.0
 76
0
330
1F
  0
LAYOUT
  5
26
100
AcDbPlotSettings
  1

  2
C:\Program Files\AutoCAD 2002\plotters\DWF ePlot (optimized for plotting).pc3
  4

  6

 40
0.0
 41
0.0
 42
0.0
 43
0.0
 44
0.0
 45
0.0
 46
0.0
 47
0.0
 48
0.0
 49
0.0
140
0.0
141
0.0
142
1.0
143
1.0
 70
688
 72
0
 73
0
 74
5
  7

 75
16
147
1.0
148
0.0
149
0.0
100
AcDbLayout
  1
Layout2
 70
1
 71
2
 10
0.0
 20
0.0
 11
12.0
 21
9.0
 12
0.0
 22
0.0
 32
0.0
 14
0.0
 24
0.0
 34
0.0
 15
0.0
 25
0.0
 35
0.0
146
0.0
 13
0.0
 23
0.0
 33
0.0
 16
1.0
 26
0.0
 36
0.0
 17
0.0
 27
1.0
 37
0.0
 76
0
330
23
  0
DICTIONARY
  5
163
100
AcDbDictionary
281
1
  3
DIMASSOC
350
165
  3
HIDETEXT
350
164
  0
DICTIONARYVAR
  5
164
100
DictionaryVariables
280
0
  1
2
  0
DICTIONARYVAR
  5
165
100
DictionaryVariables
280
0
  1
1
  0
ENDSEC
  0
EOF
