999
dxflib 2.2.0.0
  0
SECTION
  2
HEADER
  9
$ACADVER
  1
AC1015
  9
$HANDSEED
  5
FFFF
  9
$DIMASZ
 40
2.5
  9
$PLIMMIN
 10
0.0
 20
0.0
  9
$DIMEXE
 40
1.25
  9
$DIMGAP
 40
0.625
  9
$PLIMMAX
 10
210.0
 20
297.0
  9
$INSUNITS
 70
4
  9
$DIMSTYLE
  2
Standard
  9
$CLAYER
  8
0
  9
$DIMEXO
 40
0.625
  9
$DIMTXT
 40
2.5
  9
$CLAYER
  8
0
  0
ENDSEC
  0
SECTION
  2
TABLES
  0
TABLE
  2
VPORT
  5
8
100
AcDbSymbolTable
 70
1
  0
VPORT
  5
30
100
AcDbSymbolTableRecord
100
AcDbViewportTableRecord
  2
*Active
 70
0
 10
0.0
 20
0.0
 11
1.0
 21
1.0
 12
286.30555555555549
 22
148.5
 13
0.0
 23
0.0
 14
10.0
 24
10.0
 15
10.0
 25
10.0
 16
0.0
 26
0.0
 36
1.0
 17
0.0
 27
0.0
 37
0.0
 40
297.0
 41
1.92798353909465
 42
50.0
 43
0.0
 44
0.0
 50
0.0
 51
0.0
 71
0
 72
100
 73
1
 74
3
 75
1
 76
1
 77
0
 78
0
281
0
 65
1
110
0.0
120
0.0
130
0.0
111
1.0
121
0.0
131
0.0
112
0.0
122
1.0
132
0.0
 79
0
146
0.0
  0
ENDTAB
  0
TABLE
  2
LTYPE
  5
5
100
AcDbSymbolTable
 70
21
  0
LTYPE
  5
14
100
AcDbSymbolTableRecord
100
AcDbLinetypeTableRecord
  2
ByBlock
 70
0
  3

 72
65
 73
0
 40
0.0
  0
LTYPE
  5
15
100
AcDbSymbolTableRecord
100
AcDbLinetypeTableRecord
  2
ByLayer
 70
0
  3

 72
65
 73
0
 40
0.0
  0
LTYPE
  5
16
100
AcDbSymbolTableRecord
100
AcDbLinetypeTableRecord
  2
CONTINUOUS
 70
0
  3
Solid line
 72
65
 73
0
 40
0.0
  0
LTYPE
  5
31
100
AcDbSymbolTableRecord
100
AcDbLinetypeTableRecord
  2
DOT
 70
0
  3
Dot . . . . . . . . . . . . . . . . . . . . . .
 72
65
 73
2
 40
6.3499999999999996
 49
0.0
 74
0
 49
-6.3499999999999996
 74
0
  0
LTYPE
  5
32
100
AcDbSymbolTableRecord
100
AcDbLinetypeTableRecord
  2
DOT2
 70
0
  3
Dot (.5x) .....................................
 72
65
 73
2
 40
3.1749999999999998
 49
0.0
 74
0
 49
-3.1749999999999998
 74
0
  0
LTYPE
  5
33
100
AcDbSymbolTableRecord
100
AcDbLinetypeTableRecord
  2
DOTX2
 70
0
  3
Dot (2x) .  .  .  .  .  .  .  .  .  .  .  .  .
 72
65
 73
2
 40
12.699999999999999
 49
0.0
 74
0
 49
-12.699999999999999
 74
0
  0
LTYPE
  5
34
100
AcDbSymbolTableRecord
100
AcDbLinetypeTableRecord
  2
DASHED
 70
0
  3
Dashed __ __ __ __ __ __ __ __ __ __ __ __ __ _
 72
65
 73
2
 40
19.050000000000001
 49
12.699999999999999
 74
0
 49
-6.3499999999999996
 74
0
  0
LTYPE
  5
35
100
AcDbSymbolTableRecord
100
AcDbLinetypeTableRecord
  2
DASHED2
 70
0
  3
Dashed (.5x) _ _ _ _ _ _ _ _ _ _ _ _ _ _ _ _ _
 72
65
 73
2
 40
9.5250000000000004
 49
6.3499999999999996
 74
0
 49
-3.1749999999999998
 74
0
  0
LTYPE
  5
36
100
AcDbSymbolTableRecord
100
AcDbLinetypeTableRecord
  2
DASHEDX2
 70
0
  3
Dashed (2x) ____  ____  ____  ____  ____  ___
 72
65
 73
2
 40
38.100000000000001
 49
25.399999999999999
 74
0
 49
-12.699999999999999
 74
0
  0
LTYPE
  5
37
100
AcDbSymbolTableRecord
100
AcDbLinetypeTableRecord
  2
DASHDOT
 70
0
  3
Dash dot __ . __ . __ . __ . __ . __ . __ . __
 72
65
 73
4
 40
25.399999999999999
 49
12.699999999999999
 74
0
 49
-6.3499999999999996
 74
0
 49
0.0
 74
0
 49
-6.3499999999999996
 74
0
  0
LTYPE
  5
38
100
AcDbSymbolTableRecord
100
AcDbLinetypeTableRecord
  2
DASHDOT2
 70
0
  3
Dash dot (.5x) _._._._._._._._._._._._._._._.
 72
65
 73
4
 40
12.699999999999999
 49
6.3499999999999996
 74
0
 49
-3.1749999999999998
 74
0
 49
0.0
 74
0
 49
-3.1749999999999998
 74
0
  0
LTYPE
  5
39
100
AcDbSymbolTableRecord
100
AcDbLinetypeTableRecord
  2
DASHDOTX2
 70
0
  3
Dash dot (2x) ____  .  ____  .  ____  .  ___
 72
65
 73
4
 40
50.799999999999997
 49
25.399999999999999
 74
0
 49
-12.699999999999999
 74
0
 49
0.0
 74
0
 49
-12.699999999999999
 74
0
  0
LTYPE
  5
3A
100
AcDbSymbolTableRecord
100
AcDbLinetypeTableRecord
  2
DIVIDE
 70
0
  3
Divide ____ . . ____ . . ____ . . ____ . . ____
 72
65
 73
6
 40
31.75
 49
12.699999999999999
 74
0
 49
-6.3499999999999996
 74
0
 49
0.0
 74
0
 49
-6.3499999999999996
 74
0
 49
0.0
 74
0
 49
-6.3499999999999996
 74
0
  0
LTYPE
  5
3B
100
AcDbSymbolTableRecord
100
AcDbLinetypeTableRecord
  2
DIVIDE2
 70
0
  3
Divide (.5x) __..__..__..__..__..__..__..__.._
 72
65
 73
6
 40
15.875
 49
6.3499999999999996
 74
0
 49
-3.1749999999999998
 74
0
 49
0.0
 74
0
 49
-3.1749999999999998
 74
0
 49
0.0
 74
0
 49
-3.1749999999999998
 74
0
  0
LTYPE
  5
3C
100
AcDbSymbolTableRecord
100
AcDbLinetypeTableRecord
  2
DIVIDEX2
 70
0
  3
Divide (2x) ________  .  .  ________  .  .  _
 72
65
 73
6
 40
63.5
 49
25.399999999999999
 74
0
 49
-12.699999999999999
 74
0
 49
0.0
 74
0
 49
-12.699999999999999
 74
0
 49
0.0
 74
0
 49
-12.699999999999999
 74
0
  0
LTYPE
  5
3D
100
AcDbSymbolTableRecord
100
AcDbLinetypeTableRecord
  2
CENTER
 70
0
  3
Center ____ _ ____ _ ____ _ ____ _ ____ _ ____
 72
65
 73
4
 40
50.799999999999997
 49
31.75
 74
0
 49
-6.3499999999999996
 74
0
 49
6.3499999999999996
 74
0
 49
-6.3499999999999996
 74
0
  0
LTYPE
  5
3E
100
AcDbSymbolTableRecord
100
AcDbLinetypeTableRecord
  2
CENTER2
 70
0
  3
Center (.5x) ___ _ ___ _ ___ _ ___ _ ___ _ ___
 72
65
 73
4
 40
28.574999999999999
 49
19.050000000000001
 74
0
 49
-3.1749999999999998
 74
0
 49
3.1749999999999998
 74
0
 49
-3.1749999999999998
 74
0
  0
LTYPE
  5
3F
100
AcDbSymbolTableRecord
100
AcDbLinetypeTableRecord
  2
CENTERX2
 70
0
  3
Center (2x) ________  __  ________  __  _____
 72
65
 73
4
 40
101.59999999999999
 49
63.5
 74
0
 49
-12.699999999999999
 74
0
 49
12.699999999999999
 74
0
 49
-12.699999999999999
 74
0
  0
LTYPE
  5
40
100
AcDbSymbolTableRecord
100
AcDbLinetypeTableRecord
  2
BORDER
 70
0
  3
Border __ __ . __ __ . __ __ . __ __ . __ __ .
 72
65
 73
6
 40
44.450000000000003
 49
12.699999999999999
 74
0
 49
-6.3499999999999996
 74
0
 49
12.699999999999999
 74
0
 49
-6.3499999999999996
 74
0
 49
0.0
 74
0
 49
-6.3499999999999996
 74
0
  0
LTYPE
  5
41
100
AcDbSymbolTableRecord
100
AcDbLinetypeTableRecord
  2
BORDER2
 70
0
  3
Border (.5x) __.__.__.__.__.__.__.__.__.__.__.
 72
65
 73
6
 40
22.225000000000001
 49
6.3499999999999996
 74
0
 49
-3.1749999999999998
 74
0
 49
6.3499999999999996
 74
0
 49
-3.1749999999999998
 74
0
 49
0.0
 74
0
 49
-3.1749999999999998
 74
0
  0
LTYPE
  5
42
100
AcDbSymbolTableRecord
100
AcDbLinetypeTableRecord
  2
BORDERX2
 70
0
  3
Border (2x) ____  ____  .  ____  ____  .  ___
 72
65
 73
6
 40
88.900000000000006
 49
25.399999999999999
 74
0
 49
-12.699999999999999
 74
0
 49
25.399999999999999
 74
0
 49
-12.699999999999999
 74
0
 49
0.0
 74
0
 49
-12.699999999999999
 74
0
  0
ENDTAB
  0
TABLE
  2
LAYER
  5
2
100
AcDbSymbolTable
 70
3
  0
LAYER
  5
10
100
AcDbSymbolTableRecord
100
AcDbLayerTableRecord
  2
0
 70
0
 62
7
420
0
  6
CONTINUOUS
370
25
390
F
  0
LAYER
  5
43
100
AcDbSymbolTableRecord
100
AcDbLayerTableRecord
  2
Flange
 70
0
 62
7
420
0
  6
CONTINUOUS
370
0
390
F
  0
LAYER
  5
44
100
AcDbSymbolTableRecord
100
AcDbLayerTableRecord
  2
Flange Etch
 70
0
 62
1
420
16711680
  6
CONTINUOUS
370
0
390
F
  0
ENDTAB
  0
TABLE
  2
STYLE
  5
3
100
AcDbSymbolTable
 70
1
  0
STYLE
  5
11
100
AcDbSymbolTableRecord
100
AcDbTextStyleTableRecord
  2
Standard
 70
0
 40
0.0
 41
0.75
 50
0.0
 71
0
 42
2.5
  3
txt
  4

  0
ENDTAB
  0
TABLE
  2
VIEW
  5
6
100
AcDbSymbolTable
 70
0
  0
ENDTAB
  0
TABLE
  2
UCS
  5
7
100
AcDbSymbolTable
 70
0
  0
ENDTAB
  0
TABLE
  2
APPID
  5
9
100
AcDbSymbolTable
 70
1
  0
APPID
  5
12
100
AcDbSymbolTableRecord
100
AcDbRegAppTableRecord
  2
ACAD
 70
0
  0
ENDTAB
  0
TABLE
  2
DIMSTYLE
  5
A
100
AcDbSymbolTable
 70
1
100
AcDbDimStyleTable
 71
0
  0
DIMSTYLE
105
27
100
AcDbSymbolTableRecord
100
AcDbDimStyleTableRecord
  2
Standard
 41
2.5
 42
0.625
 43
3.75
 44
1.25
 70
0
 73
0
 74
0
 77
1
 78
8
140
2.5
141
2.5
143
0.03937007874016
147
0.625
171
3
172
1
271
2
272
2
274
3
278
44
283
0
284
8
340
11
  0
ENDTAB
  0
TABLE
  2
BLOCK_RECORD
  5
1
100
AcDbSymbolTable
 70
1
  0
BLOCK_RECORD
  5
1F
100
AcDbSymbolTableRecord
100
AcDbBlockTableRecord
  2
*Model_Space
340
22
  0
BLOCK_RECORD
  5
1B
100
AcDbSymbolTableRecord
100
AcDbBlockTableRecord
  2
*Paper_Space
340
1E
  0
BLOCK_RECORD
  5
23
100
AcDbSymbolTableRecord
100
AcDbBlockTableRecord
  2
*Paper_Space0
340
26
  0
BLOCK_RECORD
  5
45
100
AcDbSymbolTableRecord
100
AcDbBlockTableRecord
  2
tabs-with-bolt-20
340
0
  0
BLOCK_RECORD
  5
46
100
AcDbSymbolTableRecord
100
AcDbBlockTableRecord
  2
holes-20
340
0
  0
ENDTAB
  0
ENDSEC
  0
SECTION
  2
BLOCKS
  0
BLOCK
  5
20
100
AcDbEntity
  8
0
100
AcDbBlockBegin
  2
*Model_Space
 70
0
 10
0.0
 20
0.0
 30
0.0
  3
*Model_Space
  1

  0
ENDBLK
  5
21
100
AcDbEntity
  8
0
100
AcDbBlockEnd
  0
BLOCK
  5
1C
100
AcDbEntity
 67
1
  8
0
100
AcDbBlockBegin
  2
*Paper_Space
 70
0
 10
0.0
 20
0.0
 30
0.0
  3
*Paper_Space
  1

  0
ENDBLK
  5
1D
100
AcDbEntity
 67
1
  8
0
100
AcDbBlockEnd
  0
BLOCK
  5
24
100
AcDbEntity
  8
0
100
AcDbBlockBegin
  2
*Paper_Space0
 70
0
 10
0.0
 20
0.0
 30
0.0
  3
*Paper_Space0
  1

  0
ENDBLK
  5
25
100
AcDbEntity
  8
0
100
AcDbBlockEnd
  0
BLOCK
  5
47
100
AcDbEntity
  8
0
100
AcDbBlockBegin
  2
tabs-with-bolt-20
 70
0
 10
0.0
 20
0.0
 30
0.0
  3
tabs-with-bolt-20
  1

  0
LINE
  5
48
100
AcDbEntity
100
AcDbLine
  8
0
 62
256
370
-1
  6
ByLayer
 10
-1.499999999999996
 20
11.500000000000004
 30
0.0
 11
1.5000000000000056
 21
11.500000000000004
 31
0.0
  0
LINE
  5
49
100
AcDbEntity
100
AcDbLine
  8
0
 62
256
370
-1
  6
ByLayer
 10
-10.000000000000002
 20
-4.4999999999999947
 30
0.0
 11
-10.0
 21
0.0000000000000018
 31
0.0
  0
ARC
  5
4A
100
AcDbEntity
  8
0
 62
256
370
-1
  6
ByLayer
100
AcDbCircle
 10
-9.5000000000000036
 20
-4.4999999999999929
 30
0.0
 40
0.5
100
AcDbArc
 50
180.0
 51
270.0
  0
LINE
  5
4B
100
AcDbEntity
100
AcDbLine
  8
0
 62
256
370
-1
  6
ByLayer
 10
-5.4999999999999964
 20
-5.0
 30
0.0
 11
-9.5000000000000036
 21
-4.9999999999999929
 31
0.0
  0
LINE
  5
4C
100
AcDbEntity
100
AcDbLine
  8
0
 62
256
370
-1
  6
ByLayer
 10
-4.9999999999999982
 20
0.0000000000000009
 30
0.0
 11
-5.0000000000000018
 21
-4.4999999999999947
 31
0.0
  0
ARC
  5
4D
100
AcDbEntity
  8
0
 62
256
370
-1
  6
ByLayer
100
AcDbCircle
 10
-5.4999999999999982
 20
-4.4999999999999982
 30
0.0
 40
0.5
100
AcDbArc
 50
270.0
 51
0.0
  0
LINE
  5
4E
100
AcDbEntity
100
AcDbLine
  8
0
 62
256
370
-1
  6
ByLayer
 10
-1.9999999999999973
 20
0.0000000000000049
 30
0.0
 11
-4.9999999999999982
 21
0.0000000000000009
 31
0.0
  0
ARC
  5
4F
100
AcDbEntity
  8
0
 62
256
370
-1
  6
ByLayer
100
AcDbCircle
 10
-1.9999999999999982
 20
0.5000000000000058
 30
0.0
 40
0.5
100
AcDbArc
 50
270.00000000000006
 51
0.0
  0
LINE
  5
50
100
AcDbEntity
100
AcDbLine
  8
0
 62
256
370
-1
  6
ByLayer
 10
1.9999999999999978
 20
0.0000000000000027
 30
0.0
 11
4.9999999999999982
 21
-0.0000000000000009
 31
0.0
  0
ARC
  5
51
100
AcDbEntity
  8
0
 62
256
370
-1
  6
ByLayer
100
AcDbCircle
 10
1.9999999999999991
 20
0.500000000000004
 30
0.0
 40
0.5
100
AcDbArc
 50
180.0
 51
269.99999999999994
  0
LINE
  5
52
100
AcDbEntity
100
AcDbLine
  8
0
 62
256
370
-1
  6
ByLayer
 10
4.9999999999999982
 20
-0.0000000000000009
 30
0.0
 11
5.0
 21
-4.4999999999999982
 31
0.0
  0
ARC
  5
53
100
AcDbEntity
  8
0
 62
256
370
-1
  6
ByLayer
100
AcDbCircle
 10
5.4999999999999964
 20
-4.5
 30
0.0
 40
0.5
100
AcDbArc
 50
180.0
 51
270.0
  0
LINE
  5
54
100
AcDbEntity
100
AcDbLine
  8
0
 62
256
370
-1
  6
ByLayer
 10
5.4999999999999929
 20
-5.0000000000000018
 30
0.0
 11
9.4999999999999947
 21
-5.0000000000000053
 31
0.0
  0
LINE
  5
55
100
AcDbEntity
100
AcDbLine
  8
0
 62
256
370
-1
  6
ByLayer
 10
9.9999999999999947
 20
-4.5000000000000018
 30
0.0
 11
9.9999999999999982
 21
-0.0000000000000071
 31
0.0
  0
ARC
  5
56
100
AcDbEntity
  8
0
 62
256
370
-1
  6
ByLayer
100
AcDbCircle
 10
9.5000000000000018
 20
-4.4999999999999982
 30
0.0
 40
0.5
100
AcDbArc
 50
270.0
 51
0.0
  0
LINE
  5
57
100
AcDbEntity
100
AcDbLine
  8
0
 62
256
370
-1
  6
ByLayer
 10
-2.8599999999999892
 20
10.500000000000005
 30
0.0
 11
-1.9999999999999969
 21
10.500000000000005
 31
0.0
  0
LINE
  5
58
100
AcDbEntity
100
AcDbLine
  8
0
 62
256
370
-1
  6
ByLayer
 10
-1.4999999999999969
 20
11.000000000000005
 30
0.0
 11
-1.499999999999996
 21
11.500000000000004
 31
0.0
  0
ARC
  5
59
100
AcDbEntity
  8
0
 62
256
370
-1
  6
ByLayer
100
AcDbCircle
 10
-1.9999999999999969
 20
11.000000000000005
 30
0.0
 40
0.5
100
AcDbArc
 50
270.0
 51
0.0
  0
LINE
  5
5A
100
AcDbEntity
100
AcDbLine
  8
0
 62
256
370
-1
  6
ByLayer
 10
1.5000000000000056
 20
11.500000000000004
 30
0.0
 11
1.500000000000004
 21
11.000000000000004
 31
0.0
  0
LINE
  5
5B
100
AcDbEntity
100
AcDbLine
  8
0
 62
256
370
-1
  6
ByLayer
 10
2.0000000000000018
 20
10.500000000000002
 30
0.0
 11
2.8600000000000017
 21
10.499999999999998
 31
0.0
  0
ARC
  5
5C
100
AcDbEntity
  8
0
 62
256
370
-1
  6
ByLayer
100
AcDbCircle
 10
2.000000000000004
 20
11.000000000000002
 30
0.0
 40
0.5
100
AcDbArc
 50
180.0
 51
269.99999999999977
  0
LINE
  5
5D
100
AcDbEntity
100
AcDbLine
  8
0
 62
256
370
-1
  6
ByLayer
 10
-2.8599999999999923
 20
7.9999999999999982
 30
0.0
 11
-2.8599999999999892
 21
10.500000000000005
 31
0.0
  0
LINE
  5
5E
100
AcDbEntity
100
AcDbLine
  8
0
 62
256
370
-1
  6
ByLayer
 10
2.8600000000000017
 20
10.499999999999998
 30
0.0
 11
2.8599999999999968
 21
7.9999999999999982
 31
0.0
  0
LINE
  5
5F
100
AcDbEntity
100
AcDbLine
  8
0
 62
256
370
-1
  6
ByLayer
 10
-2.0
 20
8.0
 30
0.0
 11
-2.8599999999999923
 21
7.9999999999999982
 31
0.0
  0
LINE
  5
60
100
AcDbEntity
100
AcDbLine
  8
0
 62
256
370
-1
  6
ByLayer
 10
-1.4999999999999978
 20
0.5000000000000058
 30
0.0
 11
-1.4999999999999989
 21
7.5
 31
0.0
  0
ARC
  5
61
100
AcDbEntity
  8
0
 62
256
370
-1
  6
ByLayer
100
AcDbCircle
 10
-1.9999999999999989
 20
7.5000000000000009
 30
0.0
 40
0.5
100
AcDbArc
 50
360.0
 51
90.000000000000156
  0
LINE
  5
62
100
AcDbEntity
100
AcDbLine
  8
0
 62
256
370
-1
  6
ByLayer
 10
2.8599999999999968
 20
7.9999999999999982
 30
0.0
 11
2.0000000000000027
 21
7.9999999999999964
 31
0.0
  0
LINE
  5
63
100
AcDbEntity
100
AcDbLine
  8
0
 62
256
370
-1
  6
ByLayer
 10
1.5000000000000038
 20
7.4999999999999964
 30
0.0
 11
1.4999999999999967
 21
0.5000000000000013
 31
0.0
  0
ARC
  5
64
100
AcDbEntity
  8
0
 62
256
370
-1
  6
ByLayer
100
AcDbCircle
 10
2.0000000000000036
 20
7.4999999999999956
 30
0.0
 40
0.5
100
AcDbArc
 50
90.000000000000156
 51
180.0
  0
ENDBLK
  5
65
100
AcDbEntity
  8
0
100
AcDbBlockEnd
  0
BLOCK
  5
66
100
AcDbEntity
  8
0
100
AcDbBlockBegin
  2
holes-20
 70
0
 10
0.0
 20
0.0
 30
0.0
  3
holes-20
  1

  0
LINE
  5
67
100
AcDbEntity
100
AcDbLine
  8
0
 62
256
370
-1
  6
ByLayer
 10
-5.0
 20
0.0
 30
0.0
 11
-10.0
 21
0.0000000000000018
 31
0.0
  0
LINE
  5
68
100
AcDbEntity
100
AcDbLine
  8
0
 62
256
370
-1
  6
ByLayer
 10
5.0
 20
0.0
 30
0.0
 11
10.0
 21
0.0000000000000004
 31
0.0
  0
LINE
  5
69
100
AcDbEntity
100
AcDbLine
  8
0
 62
256
370
-1
  6
ByLayer
 10
-5.0000000000000009
 20
-4.5
 30
0.0
 11
-10.0
 21
-4.4999999999999982
 31
0.0
  0
LINE
  5
6A
100
AcDbEntity
100
AcDbLine
  8
0
 62
256
370
-1
  6
ByLayer
 10
4.9999999999999991
 20
-4.5
 30
0.0
 11
10.0
 21
-4.5
 31
0.0
  0
LINE
  5
6B
100
AcDbEntity
100
AcDbLine
  8
0
 62
256
370
-1
  6
ByLayer
 10
-10.0
 20
0.0000000000000018
 30
0.0
 11
-10.0
 21
-4.4999999999999973
 31
0.0
  0
LINE
  5
6C
100
AcDbEntity
100
AcDbLine
  8
0
 62
256
370
-1
  6
ByLayer
 10
10.0
 20
0.0000000000000004
 30
0.0
 11
10.0
 21
-4.5
 31
0.0
  0
LINE
  5
6D
100
AcDbEntity
100
AcDbLine
  8
0
 62
256
370
-1
  6
ByLayer
 10
-5.0
 20
0.0
 30
0.0
 11
-5.0000000000000009
 21
-2.1749999999999998
 31
0.0
  0
LINE
  5
6E
100
AcDbEntity
100
AcDbLine
  8
0
 62
256
370
-1
  6
ByLayer
 10
-5.0000000000000009
 20
-2.3250000000000002
 30
0.0
 11
-5.0000000000000018
 21
-4.5
 31
0.0
  0
LINE
  5
6F
100
AcDbEntity
100
AcDbLine
  8
0
 62
256
370
-1
  6
ByLayer
 10
-5.0000000000000009
 20
-2.3250000000000002
 30
0.0
 11
-1.4981238266578663
 21
-2.3250000000000002
 31
0.0
  0
LINE
  5
70
100
AcDbEntity
100
AcDbLine
  8
0
 62
256
370
-1
  6
ByLayer
 10
-5.0000000000000009
 20
-2.1749999999999998
 30
0.0
 11
-1.4981238266578663
 21
-2.1749999999999998
 31
0.0
  0
LINE
  5
71
100
AcDbEntity
100
AcDbLine
  8
0
 62
256
370
-1
  6
ByLayer
 10
1.4981238266578627
 20
-2.1749999999999998
 30
0.0
 11
4.9999999999999991
 21
-2.1749999999999998
 31
0.0
  0
LINE
  5
72
100
AcDbEntity
100
AcDbLine
  8
0
 62
256
370
-1
  6
ByLayer
 10
1.4981238266578627
 20
-2.3250000000000002
 30
0.0
 11
4.9999999999999991
 21
-2.3250000000000002
 31
0.0
  0
ARC
  5
73
100
AcDbEntity
  8
0
 62
256
370
-1
  6
ByLayer
100
AcDbCircle
 10
-0.0000000000000009
 20
-2.25
 30
0.0
 40
1.5
100
AcDbArc
 50
182.86598398259886
 51
357.13401601740111
  0
ARC
  5
74
100
AcDbEntity
  8
0
 62
256
370
-1
  6
ByLayer
100
AcDbCircle
 10
-0.0000000000000009
 20
-2.25
 30
0.0
 40
1.5
100
AcDbArc
 50
2.8659839825988596
 51
177.13401601740114
  0
LINE
  5
75
100
AcDbEntity
100
AcDbLine
  8
0
 62
256
370
-1
  6
ByLayer
 10
5.0
 20
0.0
 30
0.0
 11
4.9999999999999991
 21
-2.1749999999999998
 31
0.0
  0
LINE
  5
76
100
AcDbEntity
100
AcDbLine
  8
0
 62
256
370
-1
  6
ByLayer
 10
4.9999999999999991
 20
-2.3250000000000002
 30
0.0
 11
4.9999999999999982
 21
-4.5
 31
0.0
  0
ENDBLK
  5
77
100
AcDbEntity
  8
0
100
AcDbBlockEnd
  0
ENDSEC
  0
SECTION
  2
ENTITIES
  0
LINE
  5
78
100
AcDbEntity
100
AcDbLine
  8
0
 62
256
370
-1
  6
ByLayer
 10
33.999999999999602
 20
148.50000000000003
 30
0.0
 11
33.999999999999602
 21
151.50000000000003
 31
0.0
  0
LINE
  5
79
100
AcDbEntity
100
AcDbLine
  8
0
 62
256
370
-1
  6
ByLayer
 10
17.999999999999599
 20
140.00000000000003
 30
0.0
 11
22.499999999999599
 21
140.00000000000003
 31
0.0
  0
ARC
  5
7A
100
AcDbEntity
  8
0
 62
256
370
-1
  6
ByLayer
100
AcDbCircle
 10
17.999999999999602
 20
140.50000000000003
 30
0.0
 40
0.5
100
AcDbArc
 50
180.0
 51
270.0
  0
LINE
  5
7B
100
AcDbEntity
100
AcDbLine
  8
0
 62
256
370
-1
  6
ByLayer
 10
17.499999999999602
 20
144.50000000000003
 30
0.0
 11
17.499999999999595
 21
140.50000000000003
 31
0.0
  0
LINE
  5
7C
100
AcDbEntity
100
AcDbLine
  8
0
 62
256
370
-1
  6
ByLayer
 10
22.499999999999602
 20
145.00000000000003
 30
0.0
 11
17.999999999999602
 21
145.00000000000003
 31
0.0
  0
ARC
  5
7D
100
AcDbEntity
  8
0
 62
256
370
-1
  6
ByLayer
100
AcDbCircle
 10
17.999999999999602
 20
144.50000000000003
 30
0.0
 40
0.5
100
AcDbArc
 50
90.0
 51
180.0
  0
LINE
  5
7E
100
AcDbEntity
100
AcDbLine
  8
0
 62
256
370
-1
  6
ByLayer
 10
22.499999999999602
 20
148.00000000000003
 30
0.0
 11
22.499999999999602
 21
145.00000000000003
 31
0.0
  0
ARC
  5
7F
100
AcDbEntity
  8
0
 62
256
370
-1
  6
ByLayer
100
AcDbCircle
 10
22.999999999999602
 20
148.00000000000003
 30
0.0
 40
0.5
100
AcDbArc
 50
90.0
 51
179.99999999999994
  0
LINE
  5
80
100
AcDbEntity
100
AcDbLine
  8
0
 62
256
370
-1
  6
ByLayer
 10
22.499999999999602
 20
152.00000000000003
 30
0.0
 11
22.499999999999602
 21
155.00000000000003
 31
0.0
  0
ARC
  5
81
100
AcDbEntity
  8
0
 62
256
370
-1
  6
ByLayer
100
AcDbCircle
 10
22.999999999999602
 20
152.00000000000003
 30
0.0
 40
0.5
100
AcDbArc
 50
180.00000000000006
 51
270.0
  0
LINE
  5
82
100
AcDbEntity
100
AcDbLine
  8
0
 62
256
370
-1
  6
ByLayer
 10
22.499999999999602
 20
155.00000000000003
 30
0.0
 11
17.999999999999602
 21
155.00000000000003
 31
0.0
  0
ARC
  5
83
100
AcDbEntity
  8
0
 62
256
370
-1
  6
ByLayer
100
AcDbCircle
 10
17.999999999999602
 20
155.50000000000003
 30
0.0
 40
0.5
100
AcDbArc
 50
180.0
 51
270.0
  0
LINE
  5
84
100
AcDbEntity
100
AcDbLine
  8
0
 62
256
370
-1
  6
ByLayer
 10
17.499999999999602
 20
155.50000000000003
 30
0.0
 11
17.499999999999599
 21
159.50000000000003
 31
0.0
  0
LINE
  5
85
100
AcDbEntity
100
AcDbLine
  8
0
 62
256
370
-1
  6
ByLayer
 10
17.999999999999602
 20
160.00000000000003
 30
0.0
 11
22.499999999999602
 21
160.00000000000003
 31
0.0
  0
ARC
  5
86
100
AcDbEntity
  8
0
 62
256
370
-1
  6
ByLayer
100
AcDbCircle
 10
17.999999999999606
 20
159.50000000000003
 30
0.0
 40
0.5
100
AcDbArc
 50
90.0
 51
180.0
  0
LINE
  5
87
100
AcDbEntity
100
AcDbLine
  8
0
 62
256
370
-1
  6
ByLayer
 10
32.999999999999602
 20
147.14000000000004
 30
0.0
 11
32.999999999999602
 21
148.00000000000003
 31
0.0
  0
LINE
  5
88
100
AcDbEntity
100
AcDbLine
  8
0
 62
256
370
-1
  6
ByLayer
 10
33.499999999999602
 20
148.50000000000003
 30
0.0
 11
33.999999999999602
 21
148.50000000000003
 31
0.0
  0
ARC
  5
89
100
AcDbEntity
  8
0
 62
256
370
-1
  6
ByLayer
100
AcDbCircle
 10
33.499999999999602
 20
148.00000000000003
 30
0.0
 40
0.5
100
AcDbArc
 50
90.0
 51
180.0
  0
LINE
  5
8A
100
AcDbEntity
100
AcDbLine
  8
0
 62
256
370
-1
  6
ByLayer
 10
33.999999999999602
 20
151.50000000000003
 30
0.0
 11
33.499999999999602
 21
151.50000000000003
 31
0.0
  0
LINE
  5
8B
100
AcDbEntity
100
AcDbLine
  8
0
 62
256
370
-1
  6
ByLayer
 10
32.999999999999602
 20
152.00000000000003
 30
0.0
 11
32.999999999999602
 21
152.86000000000001
 31
0.0
  0
ARC
  5
8C
100
AcDbEntity
  8
0
 62
256
370
-1
  6
ByLayer
100
AcDbCircle
 10
33.499999999999602
 20
152.00000000000003
 30
0.0
 40
0.5
100
AcDbArc
 50
180.0000000000002
 51
270.0
  0
LINE
  5
8D
100
AcDbEntity
100
AcDbLine
  8
0
 62
256
370
-1
  6
ByLayer
 10
30.499999999999602
 20
147.14000000000004
 30
0.0
 11
32.999999999999602
 21
147.14000000000004
 31
0.0
  0
LINE
  5
8E
100
AcDbEntity
100
AcDbLine
  8
0
 62
256
370
-1
  6
ByLayer
 10
32.999999999999602
 20
152.86000000000001
 30
0.0
 11
30.499999999999602
 21
152.86000000000001
 31
0.0
  0
LINE
  5
8F
100
AcDbEntity
100
AcDbLine
  8
0
 62
256
370
-1
  6
ByLayer
 10
30.499999999999602
 20
148.00000000000003
 30
0.0
 11
30.499999999999602
 21
147.14000000000004
 31
0.0
  0
LINE
  5
90
100
AcDbEntity
100
AcDbLine
  8
0
 62
256
370
-1
  6
ByLayer
 10
22.999999999999602
 20
148.50000000000003
 30
0.0
 11
29.999999999999602
 21
148.50000000000003
 31
0.0
  0
ARC
  5
91
100
AcDbEntity
  8
0
 62
256
370
-1
  6
ByLayer
100
AcDbCircle
 10
29.999999999999602
 20
148.00000000000003
 30
0.0
 40
0.5
100
AcDbArc
 50
359.99999999999983
 51
90.0
  0
LINE
  5
92
100
AcDbEntity
100
AcDbLine
  8
0
 62
256
370
-1
  6
ByLayer
 10
30.499999999999602
 20
152.86000000000001
 30
0.0
 11
30.499999999999602
 21
152.00000000000003
 31
0.0
  0
LINE
  5
93
100
AcDbEntity
100
AcDbLine
  8
0
 62
256
370
-1
  6
ByLayer
 10
29.999999999999602
 20
151.50000000000003
 30
0.0
 11
22.999999999999602
 21
151.50000000000003
 31
0.0
  0
ARC
  5
94
100
AcDbEntity
  8
0
 62
256
370
-1
  6
ByLayer
100
AcDbCircle
 10
29.999999999999602
 20
152.00000000000003
 30
0.0
 40
0.5
100
AcDbArc
 50
270.0
 51
359.99999999999983
  0
LINE
  5
95
100
AcDbEntity
100
AcDbLine
  8
0
 62
256
370
-1
  6
ByLayer
 10
100.99999999999955
 20
151.5
 30
0.0
 11
100.99999999999955
 21
148.50000000000003
 31
0.0
  0
LINE
  5
96
100
AcDbEntity
100
AcDbLine
  8
0
 62
256
370
-1
  6
ByLayer
 10
116.99999999999955
 20
160.0
 30
0.0
 11
112.49999999999955
 21
160.0
 31
0.0
  0
ARC
  5
97
100
AcDbEntity
  8
0
 62
256
370
-1
  6
ByLayer
100
AcDbCircle
 10
116.99999999999955
 20
159.5
 30
0.0
 40
0.5
100
AcDbArc
 50
360.0
 51
90.0
  0
LINE
  5
98
100
AcDbEntity
100
AcDbLine
  8
0
 62
256
370
-1
  6
ByLayer
 10
117.49999999999955
 20
155.5
 30
0.0
 11
117.49999999999955
 21
159.5
 31
0.0
  0
LINE
  5
99
100
AcDbEntity
100
AcDbLine
  8
0
 62
256
370
-1
  6
ByLayer
 10
112.49999999999955
 20
155.0
 30
0.0
 11
116.99999999999955
 21
155.0
 31
0.0
  0
ARC
  5
9A
100
AcDbEntity
  8
0
 62
256
370
-1
  6
ByLayer
100
AcDbCircle
 10
116.99999999999955
 20
155.5
 30
0.0
 40
0.5
100
AcDbArc
 50
270.0
 51
360.0
  0
LINE
  5
9B
100
AcDbEntity
100
AcDbLine
  8
0
 62
256
370
-1
  6
ByLayer
 10
112.49999999999955
 20
152.0
 30
0.0
 11
112.49999999999955
 21
155.0
 31
0.0
  0
ARC
  5
9C
100
AcDbEntity
  8
0
 62
256
370
-1
  6
ByLayer
100
AcDbCircle
 10
111.99999999999955
 20
152.0
 30
0.0
 40
0.5
100
AcDbArc
 50
270.0
 51
359.99999999999994
  0
LINE
  5
9D
100
AcDbEntity
100
AcDbLine
  8
0
 62
256
370
-1
  6
ByLayer
 10
112.49999999999955
 20
148.0
 30
0.0
 11
112.49999999999955
 21
145.0
 31
0.0
  0
ARC
  5
9E
100
AcDbEntity
  8
0
 62
256
370
-1
  6
ByLayer
100
AcDbCircle
 10
111.99999999999955
 20
148.0
 30
0.0
 40
0.5
100
AcDbArc
 50
0.0000000000000509
 51
90.0
  0
LINE
  5
9F
100
AcDbEntity
100
AcDbLine
  8
0
 62
256
370
-1
  6
ByLayer
 10
112.49999999999955
 20
145.0
 30
0.0
 11
116.99999999999955
 21
145.0
 31
0.0
  0
ARC
  5
A0
100
AcDbEntity
  8
0
 62
256
370
-1
  6
ByLayer
100
AcDbCircle
 10
116.99999999999955
 20
144.5
 30
0.0
 40
0.5
100
AcDbArc
 50
360.0
 51
90.0
  0
LINE
  5
A1
100
AcDbEntity
100
AcDbLine
  8
0
 62
256
370
-1
  6
ByLayer
 10
117.49999999999955
 20
144.5
 30
0.0
 11
117.49999999999955
 21
140.5
 31
0.0
  0
LINE
  5
A2
100
AcDbEntity
100
AcDbLine
  8
0
 62
256
370
-1
  6
ByLayer
 10
116.99999999999955
 20
140.0
 30
0.0
 11
112.49999999999955
 21
140.0
 31
0.0
  0
ARC
  5
A3
100
AcDbEntity
  8
0
 62
256
370
-1
  6
ByLayer
100
AcDbCircle
 10
116.99999999999955
 20
140.5
 30
0.0
 40
0.5
100
AcDbArc
 50
270.0
 51
360.0
  0
LINE
  5
A4
100
AcDbEntity
100
AcDbLine
  8
0
 62
256
370
-1
  6
ByLayer
 10
101.99999999999955
 20
152.85999999999999
 30
0.0
 11
101.99999999999955
 21
152.0
 31
0.0
  0
LINE
  5
A5
100
AcDbEntity
100
AcDbLine
  8
0
 62
256
370
-1
  6
ByLayer
 10
101.49999999999955
 20
151.5
 30
0.0
 11
100.99999999999955
 21
151.5
 31
0.0
  0
ARC
  5
A6
100
AcDbEntity
  8
0
 62
256
370
-1
  6
ByLayer
100
AcDbCircle
 10
101.49999999999955
 20
152.0
 30
0.0
 40
0.5
100
AcDbArc
 50
270.0
 51
360.0
  0
LINE
  5
A7
100
AcDbEntity
100
AcDbLine
  8
0
 62
256
370
-1
  6
ByLayer
 10
100.99999999999955
 20
148.50000000000003
 30
0.0
 11
101.49999999999955
 21
148.5
 31
0.0
  0
LINE
  5
A8
100
AcDbEntity
100
AcDbLine
  8
0
 62
256
370
-1
  6
ByLayer
 10
101.99999999999955
 20
148.0
 30
0.0
 11
101.99999999999955
 21
147.14000000000001
 31
0.0
  0
ARC
  5
A9
100
AcDbEntity
  8
0
 62
256
370
-1
  6
ByLayer
100
AcDbCircle
 10
101.49999999999955
 20
148.0
 30
0.0
 40
0.5
100
AcDbArc
 50
0.0000000000002036
 51
90.0
  0
LINE
  5
AA
100
AcDbEntity
100
AcDbLine
  8
0
 62
256
370
-1
  6
ByLayer
 10
104.49999999999955
 20
152.85999999999999
 30
0.0
 11
101.99999999999955
 21
152.85999999999999
 31
0.0
  0
LINE
  5
AB
100
AcDbEntity
100
AcDbLine
  8
0
 62
256
370
-1
  6
ByLayer
 10
101.99999999999955
 20
147.14000000000001
 30
0.0
 11
104.49999999999955
 21
147.14000000000001
 31
0.0
  0
LINE
  5
AC
100
AcDbEntity
100
AcDbLine
  8
0
 62
256
370
-1
  6
ByLayer
 10
104.49999999999955
 20
152.0
 30
0.0
 11
104.49999999999955
 21
152.85999999999999
 31
0.0
  0
LINE
  5
AD
100
AcDbEntity
100
AcDbLine
  8
0
 62
256
370
-1
  6
ByLayer
 10
111.99999999999955
 20
151.5
 30
0.0
 11
104.99999999999955
 21
151.5
 31
0.0
  0
ARC
  5
AE
100
AcDbEntity
  8
0
 62
256
370
-1
  6
ByLayer
100
AcDbCircle
 10
104.99999999999955
 20
152.0
 30
0.0
 40
0.5
100
AcDbArc
 50
179.9999999999998
 51
270.0
  0
LINE
  5
AF
100
AcDbEntity
100
AcDbLine
  8
0
 62
256
370
-1
  6
ByLayer
 10
104.49999999999955
 20
147.14000000000001
 30
0.0
 11
104.49999999999955
 21
148.0
 31
0.0
  0
LINE
  5
B0
100
AcDbEntity
100
AcDbLine
  8
0
 62
256
370
-1
  6
ByLayer
 10
104.99999999999955
 20
148.5
 30
0.0
 11
111.99999999999955
 21
148.5
 31
0.0
  0
ARC
  5
B1
100
AcDbEntity
  8
0
 62
256
370
-1
  6
ByLayer
100
AcDbCircle
 10
104.99999999999955
 20
148.0
 30
0.0
 40
0.5
100
AcDbArc
 50
90.0
 51
179.9999999999998
  0
LINE
  5
B2
100
AcDbEntity
100
AcDbLine
  8
Flange
 62
256
370
-1
  6
ByLayer
 10
117.49999999999955
 20
155.49999999999994
 30
0.0
 11
117.49999999999955
 21
144.50000000000003
 31
0.0
  0
LINE
  5
B3
100
AcDbEntity
100
AcDbLine
  8
Flange
 62
256
370
-1
  6
ByLayer
 10
17.499999999999545
 20
155.50000000000009
 30
0.0
 11
17.499999999999545
 21
144.50000000000031
 31
0.0
  0
CIRCLE
  5
B4
100
AcDbEntity
100
AcDbCircle
  8
Flange
 62
256
370
-1
  6
ByLayer
 10
109.5
 20
190.49999999999997
 30
0.0
 40
1.5
  0
CIRCLE
  5
B5
100
AcDbEntity
100
AcDbCircle
  8
Flange
 62
256
370
-1
  6
ByLayer
 10
109.5
 20
109.49999999999997
 30
0.0
 40
1.5
  0
CIRCLE
  5
B6
100
AcDbEntity
100
AcDbCircle
  8
Flange
 62
256
370
-1
  6
ByLayer
 10
190.50000000000003
 20
109.49999999999994
 30
0.0
 40
1.5
  0
CIRCLE
  5
B7
100
AcDbEntity
100
AcDbCircle
  8
Flange
 62
256
370
-1
  6
ByLayer
 10
190.50000000000006
 20
190.49999999999997
 30
0.0
 40
1.5
  0
CIRCLE
  5
B8
100
AcDbEntity
100
AcDbCircle
  8
Flange
 62
256
370
-1
  6
ByLayer
 10
150.0
 20
150.0
 30
0.0
 40
140.0
  0
CIRCLE
  5
B9
100
AcDbEntity
100
AcDbCircle
  8
Flange
 62
256
370
-1
  6
ByLayer
 10
150.00000000000003
 20
150.0
 30
0.0
 40
4.0
  0
ARC
  5
BA
100
AcDbEntity
  8
Flange
 62
256
370
-1
  6
ByLayer
100
AcDbCircle
 10
67.50000000000756
 20
495.99999999989359
 30
0.0
 40
338.99999999989564
100
AcDbArc
 50
262.3718503314156
 51
277.62814966858173
  0
ARC
  5
BB
100
AcDbEntity
  8
Flange
 62
256
370
-1
  6
ByLayer
100
AcDbCircle
 10
67.500000000006722
 20
-196.00000000012693
 30
0.0
 40
339.00000000012483
100
AcDbArc
 50
82.371850331423374
 51
97.628149668579141
  0
LINE
  5
BC
100
AcDbEntity
100
AcDbLine
  8
0
 62
256
370
-1
  6
ByLayer
 10
209.2990381056768
 20
50.291053161004726
 30
0.0
 11
206.70096189432346
 21
48.791053161004719
 31
0.0
  0
LINE
  5
BD
100
AcDbEntity
100
AcDbLine
  8
0
 62
256
370
-1
  6
ByLayer
 10
224.66025403784448
 20
40.684646700453705
 30
0.0
 11
222.41025403784451
 21
44.581761017483664
 31
0.0
  0
ARC
  5
BE
100
AcDbEntity
  8
0
 62
256
370
-1
  6
ByLayer
100
AcDbCircle
 10
224.22724133595227
 20
40.434646700453698
 30
0.0
 40
0.5
100
AcDbArc
 50
300.0
 51
29.999999999999964
  0
LINE
  5
BF
100
AcDbEntity
100
AcDbLine
  8
0
 62
256
370
-1
  6
ByLayer
 10
221.01313972081454
 20
38.001633998561474
 30
0.0
 11
224.47724133595227
 21
40.001633998561488
 31
0.0
  0
LINE
  5
C0
100
AcDbEntity
100
AcDbLine
  8
0
 62
256
370
-1
  6
ByLayer
 10
218.0801270189223
 20
42.081761017483672
 30
0.0
 11
220.3301270189223
 21
38.184646700453705
 31
0.0
  0
ARC
  5
C1
100
AcDbEntity
  8
0
 62
256
370
-1
  6
ByLayer
100
AcDbCircle
 10
220.76313972081454
 20
38.43464670045369
 30
0.0
 40
0.5
100
AcDbArc
 50
210.0
 51
300.0
  0
LINE
  5
C2
100
AcDbEntity
100
AcDbLine
  8
0
 62
256
370
-1
  6
ByLayer
 10
215.48205080756898
 20
40.581761017483672
 30
0.0
 11
218.0801270189223
 21
42.081761017483672
 31
0.0
  0
ARC
  5
C3
100
AcDbEntity
  8
0
 62
256
370
-1
  6
ByLayer
100
AcDbCircle
 10
215.23205080756898
 20
41.014773719375896
 30
0.0
 40
0.5
100
AcDbArc
 50
210.0
 51
299.99999999999994
  0
LINE
  5
C4
100
AcDbEntity
100
AcDbLine
  8
0
 62
256
370
-1
  6
ByLayer
 10
212.01794919243125
 20
38.581761017483672
 30
0.0
 11
209.41987298107793
 21
37.081761017483672
 31
0.0
  0
ARC
  5
C5
100
AcDbEntity
  8
0
 62
256
370
-1
  6
ByLayer
100
AcDbCircle
 10
211.76794919243125
 20
39.014773719375896
 30
0.0
 40
0.5
100
AcDbArc
 50
300.00000000000006
 51
29.999999999999964
  0
LINE
  5
C6
100
AcDbEntity
100
AcDbLine
  8
0
 62
256
370
-1
  6
ByLayer
 10
209.41987298107793
 20
37.081761017483672
 30
0.0
 11
211.66987298107793
 21
33.184646700453698
 31
0.0
  0
ARC
  5
C7
100
AcDbEntity
  8
0
 62
256
370
-1
  6
ByLayer
100
AcDbCircle
 10
211.23686027918569
 20
32.934646700453698
 30
0.0
 40
0.5
100
AcDbArc
 50
300.0
 51
29.999999999999964
  0
LINE
  5
C8
100
AcDbEntity
100
AcDbLine
  8
0
 62
256
370
-1
  6
ByLayer
 10
211.48686027918569
 20
32.501633998561481
 30
0.0
 11
208.02275866404796
 21
30.501633998561474
 31
0.0
  0
LINE
  5
C9
100
AcDbEntity
100
AcDbLine
  8
0
 62
256
370
-1
  6
ByLayer
 10
207.33974596215572
 20
30.684646700453701
 30
0.0
 11
205.08974596215572
 21
34.581761017483672
 31
0.0
  0
ARC
  5
CA
100
AcDbEntity
  8
0
 62
256
370
-1
  6
ByLayer
100
AcDbCircle
 10
207.77275866404796
 20
30.934646700453698
 30
0.0
 40
0.5
100
AcDbArc
 50
210.0
 51
300.0
  0
LINE
  5
CB
100
AcDbEntity
100
AcDbLine
  8
0
 62
256
370
-1
  6
ByLayer
 10
210.9768326548236
 20
50.10502775722027
 30
0.0
 11
210.23205080756901
 21
49.675027757220285
 31
0.0
  0
LINE
  5
CC
100
AcDbEntity
100
AcDbLine
  8
0
 62
256
370
-1
  6
ByLayer
 10
209.54903810567677
 20
49.858040459112502
 30
0.0
 11
209.2990381056768
 21
50.291053161004726
 31
0.0
  0
ARC
  5
CD
100
AcDbEntity
  8
0
 62
256
370
-1
  6
ByLayer
100
AcDbCircle
 10
209.98205080756898
 20
50.108040459112502
 30
0.0
 40
0.5
100
AcDbArc
 50
210.0
 51
300.0
  0
LINE
  5
CE
100
AcDbEntity
100
AcDbLine
  8
0
 62
256
370
-1
  6
ByLayer
 10
206.70096189432346
 20
48.791053161004719
 30
0.0
 11
206.95096189432346
 21
48.358040459112502
 31
0.0
  0
LINE
  5
CF
100
AcDbEntity
100
AcDbLine
  8
0
 62
256
370
-1
  6
ByLayer
 10
206.76794919243125
 20
47.675027757220285
 30
0.0
 11
206.0231673451766
 21
47.245027757220278
 31
0.0
  0
ARC
  5
D0
100
AcDbEntity
  8
0
 62
256
370
-1
  6
ByLayer
100
AcDbCircle
 10
206.51794919243125
 20
48.108040459112502
 30
0.0
 40
0.5
100
AcDbArc
 50
300.00000000000023
 51
29.999999999999964
  0
LINE
  5
D1
100
AcDbEntity
100
AcDbLine
  8
0
 62
256
370
-1
  6
ByLayer
 10
212.2268326548236
 20
47.939964247759171
 30
0.0
 11
210.9768326548236
 21
50.10502775722027
 31
0.0
  0
LINE
  5
D2
100
AcDbEntity
100
AcDbLine
  8
0
 62
256
370
-1
  6
ByLayer
 10
206.0231673451766
 20
47.245027757220278
 30
0.0
 11
207.27316734517663
 21
45.079964247759186
 31
0.0
  0
LINE
  5
D3
100
AcDbEntity
100
AcDbLine
  8
0
 62
256
370
-1
  6
ByLayer
 10
211.48205080756898
 20
47.509964247759179
 30
0.0
 11
212.2268326548236
 21
47.939964247759171
 31
0.0
  0
LINE
  5
D4
100
AcDbEntity
100
AcDbLine
  8
0
 62
256
370
-1
  6
ByLayer
 10
214.79903810567677
 20
40.764773719375896
 30
0.0
 11
211.29903810567677
 21
46.826951545866962
 31
0.0
  0
ARC
  5
D5
100
AcDbEntity
  8
0
 62
256
370
-1
  6
ByLayer
100
AcDbCircle
 10
211.73205080756901
 20
47.076951545866962
 30
0.0
 40
0.5
100
AcDbArc
 50
119.99999999999986
 51
209.99999999999997
  0
LINE
  5
D6
100
AcDbEntity
100
AcDbLine
  8
0
 62
256
370
-1
  6
ByLayer
 10
207.27316734517663
 20
45.079964247759186
 30
0.0
 11
208.01794919243125
 21
45.509964247759179
 31
0.0
  0
LINE
  5
D7
100
AcDbEntity
100
AcDbLine
  8
0
 62
256
370
-1
  6
ByLayer
 10
208.70096189432346
 20
45.326951545866969
 30
0.0
 11
212.20096189432346
 21
39.264773719375896
 31
0.0
  0
ARC
  5
D8
100
AcDbEntity
  8
0
 62
256
370
-1
  6
ByLayer
100
AcDbCircle
 10
208.26794919243125
 20
45.076951545866962
 30
0.0
 40
0.5
100
AcDbArc
 50
29.999999999999964
 51
119.99999999999986
  0
LINE
  5
D9
100
AcDbEntity
100
AcDbLine
  8
0
 62
256
370
-1
  6
ByLayer
 10
173.20096189432354
 20
106.8147552145621
 30
0.0
 11
175.79903810567686
 21
108.3147552145621
 31
0.0
  0
LINE
  5
DA
100
AcDbEntity
100
AcDbLine
  8
0
 62
256
370
-1
  6
ByLayer
 10
157.8397459621558
 20
116.42116167511313
 30
0.0
 11
160.0897459621558
 21
112.52404735808315
 31
0.0
  0
ARC
  5
DB
100
AcDbEntity
  8
0
 62
256
370
-1
  6
ByLayer
100
AcDbCircle
 10
158.27275866404804
 20
116.67116167511313
 30
0.0
 40
0.5
100
AcDbArc
 50
119.99999999999997
 51
209.99999999999997
  0
LINE
  5
DC
100
AcDbEntity
100
AcDbLine
  8
0
 62
256
370
-1
  6
ByLayer
 10
161.48686027918578
 20
119.10417437700535
 30
0.0
 11
158.02275866404804
 21
117.10417437700535
 31
0.0
  0
LINE
  5
DD
100
AcDbEntity
100
AcDbLine
  8
0
 62
256
370
-1
  6
ByLayer
 10
164.41987298107802
 20
115.02404735808315
 30
0.0
 11
162.16987298107802
 21
118.92116167511313
 31
0.0
  0
ARC
  5
DE
100
AcDbEntity
  8
0
 62
256
370
-1
  6
ByLayer
100
AcDbCircle
 10
161.73686027918578
 20
118.67116167511313
 30
0.0
 40
0.5
100
AcDbArc
 50
29.999999999999964
 51
119.99999999999997
  0
LINE
  5
DF
100
AcDbEntity
100
AcDbLine
  8
0
 62
256
370
-1
  6
ByLayer
 10
167.01794919243133
 20
116.52404735808315
 30
0.0
 11
164.41987298107802
 21
115.02404735808315
 31
0.0
  0
ARC
  5
E0
100
AcDbEntity
  8
0
 62
256
370
-1
  6
ByLayer
100
AcDbCircle
 10
167.26794919243133
 20
116.09103465619093
 30
0.0
 40
0.5
100
AcDbArc
 50
29.999999999999964
 51
119.99999999999991
  0
LINE
  5
E1
100
AcDbEntity
100
AcDbLine
  8
0
 62
256
370
-1
  6
ByLayer
 10
170.48205080756907
 20
118.52404735808315
 30
0.0
 11
173.08012701892238
 21
120.02404735808315
 31
0.0
  0
ARC
  5
E2
100
AcDbEntity
  8
0
 62
256
370
-1
  6
ByLayer
100
AcDbCircle
 10
170.73205080756907
 20
118.09103465619093
 30
0.0
 40
0.5
100
AcDbArc
 50
120.00000000000001
 51
209.99999999999997
  0
LINE
  5
E3
100
AcDbEntity
100
AcDbLine
  8
0
 62
256
370
-1
  6
ByLayer
 10
173.08012701892238
 20
120.02404735808315
 30
0.0
 11
170.83012701892241
 21
123.92116167511313
 31
0.0
  0
ARC
  5
E4
100
AcDbEntity
  8
0
 62
256
370
-1
  6
ByLayer
100
AcDbCircle
 10
171.26313972081462
 20
124.17116167511313
 30
0.0
 40
0.5
100
AcDbArc
 50
119.99999999999997
 51
209.99999999999997
  0
LINE
  5
E5
100
AcDbEntity
100
AcDbLine
  8
0
 62
256
370
-1
  6
ByLayer
 10
171.01313972081462
 20
124.60417437700535
 30
0.0
 11
174.47724133595236
 21
126.60417437700534
 31
0.0
  0
LINE
  5
E6
100
AcDbEntity
100
AcDbLine
  8
0
 62
256
370
-1
  6
ByLayer
 10
175.1602540378446
 20
126.42116167511313
 30
0.0
 11
177.4102540378446
 21
122.52404735808315
 31
0.0
  0
ARC
  5
E7
100
AcDbEntity
  8
0
 62
256
370
-1
  6
ByLayer
100
AcDbCircle
 10
174.72724133595239
 20
126.17116167511313
 30
0.0
 40
0.5
100
AcDbArc
 50
29.999999999999964
 51
119.99999999999997
  0
LINE
  5
E8
100
AcDbEntity
100
AcDbLine
  8
0
 62
256
370
-1
  6
ByLayer
 10
171.52316734517672
 20
107.00078061834655
 30
0.0
 11
172.2679491924313
 21
107.43078061834655
 31
0.0
  0
LINE
  5
E9
100
AcDbEntity
100
AcDbLine
  8
0
 62
256
370
-1
  6
ByLayer
 10
172.95096189432354
 20
107.24776791645432
 30
0.0
 11
173.20096189432354
 21
106.8147552145621
 31
0.0
  0
ARC
  5
EA
100
AcDbEntity
  8
0
 62
256
370
-1
  6
ByLayer
100
AcDbCircle
 10
172.5179491924313
 20
106.99776791645432
 30
0.0
 40
0.5
100
AcDbArc
 50
29.999999999999964
 51
119.99999999999997
  0
LINE
  5
EB
100
AcDbEntity
100
AcDbLine
  8
0
 62
256
370
-1
  6
ByLayer
 10
175.79903810567686
 20
108.3147552145621
 30
0.0
 11
175.54903810567686
 21
108.74776791645432
 31
0.0
  0
LINE
  5
EC
100
AcDbEntity
100
AcDbLine
  8
0
 62
256
370
-1
  6
ByLayer
 10
175.73205080756907
 20
109.43078061834655
 30
0.0
 11
176.47683265482371
 21
109.86078061834654
 31
0.0
  0
ARC
  5
ED
100
AcDbEntity
  8
0
 62
256
370
-1
  6
ByLayer
100
AcDbCircle
 10
175.98205080756907
 20
108.99776791645432
 30
0.0
 40
0.5
100
AcDbArc
 50
120.00000000000017
 51
209.99999999999997
  0
LINE
  5
EE
100
AcDbEntity
100
AcDbLine
  8
0
 62
256
370
-1
  6
ByLayer
 10
170.27316734517672
 20
109.16584412780765
 30
0.0
 11
171.52316734517672
 21
107.00078061834655
 31
0.0
  0
LINE
  5
EF
100
AcDbEntity
100
AcDbLine
  8
0
 62
256
370
-1
  6
ByLayer
 10
176.47683265482371
 20
109.86078061834654
 30
0.0
 11
175.22683265482368
 21
112.02584412780763
 31
0.0
  0
LINE
  5
F0
100
AcDbEntity
100
AcDbLine
  8
0
 62
256
370
-1
  6
ByLayer
 10
171.0179491924313
 20
109.59584412780764
 30
0.0
 11
170.27316734517672
 21
109.16584412780765
 31
0.0
  0
LINE
  5
F1
100
AcDbEntity
100
AcDbLine
  8
0
 62
256
370
-1
  6
ByLayer
 10
167.70096189432354
 20
116.34103465619093
 30
0.0
 11
171.20096189432354
 21
110.27885682969986
 31
0.0
  0
ARC
  5
F2
100
AcDbEntity
  8
0
 62
256
370
-1
  6
ByLayer
100
AcDbCircle
 10
170.76794919243133
 20
110.02885682969986
 30
0.0
 40
0.5
100
AcDbArc
 50
299.99999999999983
 51
29.999999999999964
  0
LINE
  5
F3
100
AcDbEntity
100
AcDbLine
  8
0
 62
256
370
-1
  6
ByLayer
 10
175.22683265482368
 20
112.02584412780763
 30
0.0
 11
174.48205080756907
 21
111.59584412780764
 31
0.0
  0
LINE
  5
F4
100
AcDbEntity
100
AcDbLine
  8
0
 62
256
370
-1
  6
ByLayer
 10
173.79903810567686
 20
111.77885682969986
 30
0.0
 11
170.29903810567686
 21
117.84103465619093
 31
0.0
  0
ARC
  5
F5
100
AcDbEntity
  8
0
 62
256
370
-1
  6
ByLayer
100
AcDbCircle
 10
174.23205080756907
 20
112.02885682969986
 30
0.0
 40
0.5
100
AcDbArc
 50
209.99999999999997
 51
299.99999999999983
  0
LINE
  5
F6
100
AcDbEntity
100
AcDbLine
  8
Flange
 62
256
370
-1
  6
ByLayer
 10
161.48686027918581
 20
119.10417437700536
 30
0.0
 11
171.01313972081459
 21
124.60417437700532
 31
0.0
  0
LINE
  5
F7
100
AcDbEntity
100
AcDbLine
  8
Flange
 62
256
370
-1
  6
ByLayer
 10
211.48686027918563
 20
32.501633998561374
 30
0.0
 11
221.01313972081425
 21
38.001633998561232
 31
0.0
  0
ARC
  5
F8
100
AcDbEntity
  8
Flange
 62
256
370
-1
  6
ByLayer
100
AcDbCircle
 10
-108.3947897093276
 20
-94.447095812156306
 30
0.0
 40
338.99999999989564
100
AcDbArc
 50
22.371850331415548
 51
37.628149668581734
  0
ARC
  5
F9
100
AcDbEntity
  8
Flange
 62
256
370
-1
  6
ByLayer
100
AcDbCircle
 10
490.89478970952229
 20
251.55290418785313
 30
0.0
 40
339.00000000012483
100
AcDbArc
 50
202.37185033142336
 51
217.62814966857914
  0
LINE
  5
FA
100
AcDbEntity
100
AcDbLine
  8
0
 62
256
370
-1
  6
ByLayer
 10
206.7009618943236
 20
251.20894683899519
 30
0.0
 11
209.29903810567691
 21
249.70894683899522
 31
0.0
  0
LINE
  5
FB
100
AcDbEntity
100
AcDbLine
  8
0
 62
256
370
-1
  6
ByLayer
 10
207.33974596215586
 20
269.31535329954625
 30
0.0
 11
205.08974596215586
 21
265.41823898251624
 31
0.0
  0
ARC
  5
FC
100
AcDbEntity
  8
0
 62
256
370
-1
  6
ByLayer
100
AcDbCircle
 10
207.7727586640481
 20
269.06535329954625
 30
0.0
 40
0.5
100
AcDbArc
 50
59.999999999999986
 51
150.00000000000003
  0
LINE
  5
FD
100
AcDbEntity
100
AcDbLine
  8
0
 62
256
370
-1
  6
ByLayer
 10
211.48686027918586
 20
267.49836600143846
 30
0.0
 11
208.0227586640481
 21
269.49836600143846
 31
0.0
  0
LINE
  5
FE
100
AcDbEntity
100
AcDbLine
  8
0
 62
256
370
-1
  6
ByLayer
 10
209.41987298107807
 20
262.91823898251624
 30
0.0
 11
211.66987298107807
 21
266.81535329954625
 31
0.0
  0
ARC
  5
FF
100
AcDbEntity
  8
0
 62
256
370
-1
  6
ByLayer
100
AcDbCircle
 10
211.23686027918586
 20
267.06535329954625
 30
0.0
 40
0.5
100
AcDbArc
 50
330.0
 51
59.999999999999986
  0
LINE
  5
100
100
AcDbEntity
100
AcDbLine
  8
0
 62
256
370
-1
  6
ByLayer
 10
212.01794919243139
 20
261.41823898251624
 30
0.0
 11
209.41987298107807
 21
262.91823898251624
 31
0.0
  0
ARC
  5
101
100
AcDbEntity
  8
0
 62
256
370
-1
  6
ByLayer
100
AcDbCircle
 10
211.76794919243139
 20
260.98522628062403
 30
0.0
 40
0.5
100
AcDbArc
 50
330.0
 51
59.999999999999929
  0
LINE
  5
102
100
AcDbEntity
100
AcDbLine
  8
0
 62
256
370
-1
  6
ByLayer
 10
215.48205080756912
 20
259.41823898251624
 30
0.0
 11
218.08012701892244
 21
257.91823898251624
 31
0.0
  0
ARC
  5
103
100
AcDbEntity
  8
0
 62
256
370
-1
  6
ByLayer
100
AcDbCircle
 10
215.23205080756912
 20
258.98522628062403
 30
0.0
 40
0.5
100
AcDbArc
 50
60.000000000000036
 51
150.00000000000003
  0
LINE
  5
104
100
AcDbEntity
100
AcDbLine
  8
0
 62
256
370
-1
  6
ByLayer
 10
218.08012701892244
 20
257.91823898251624
 30
0.0
 11
220.33012701892244
 21
261.81535329954619
 31
0.0
  0
ARC
  5
105
100
AcDbEntity
  8
0
 62
256
370
-1
  6
ByLayer
100
AcDbCircle
 10
220.76313972081468
 20
261.56535329954619
 30
0.0
 40
0.5
100
AcDbArc
 50
59.999999999999986
 51
150.00000000000003
  0
LINE
  5
106
100
AcDbEntity
100
AcDbLine
  8
0
 62
256
370
-1
  6
ByLayer
 10
221.01313972081468
 20
261.99836600143846
 30
0.0
 11
224.47724133595241
 21
259.99836600143846
 31
0.0
  0
LINE
  5
107
100
AcDbEntity
100
AcDbLine
  8
0
 62
256
370
-1
  6
ByLayer
 10
224.66025403784465
 20
259.31535329954619
 30
0.0
 11
222.41025403784465
 21
255.41823898251624
 31
0.0
  0
ARC
  5
108
100
AcDbEntity
  8
0
 62
256
370
-1
  6
ByLayer
100
AcDbCircle
 10
224.22724133595241
 20
259.56535329954619
 30
0.0
 40
0.5
100
AcDbArc
 50
330.0
 51
59.999999999999986
  0
LINE
  5
109
100
AcDbEntity
100
AcDbLine
  8
0
 62
256
370
-1
  6
ByLayer
 10
206.02316734517674
 20
252.75497224277964
 30
0.0
 11
206.76794919243136
 21
252.32497224277964
 31
0.0
  0
LINE
  5
10A
100
AcDbEntity
100
AcDbLine
  8
0
 62
256
370
-1
  6
ByLayer
 10
206.9509618943236
 20
251.64195954088743
 30
0.0
 11
206.7009618943236
 21
251.20894683899519
 31
0.0
  0
ARC
  5
10B
100
AcDbEntity
  8
0
 62
256
370
-1
  6
ByLayer
100
AcDbCircle
 10
206.51794919243139
 20
251.89195954088743
 30
0.0
 40
0.5
100
AcDbArc
 50
330.0
 51
59.999999999999986
  0
LINE
  5
10C
100
AcDbEntity
100
AcDbLine
  8
0
 62
256
370
-1
  6
ByLayer
 10
209.29903810567691
 20
249.70894683899522
 30
0.0
 11
209.54903810567691
 21
250.14195954088743
 31
0.0
  0
LINE
  5
10D
100
AcDbEntity
100
AcDbLine
  8
0
 62
256
370
-1
  6
ByLayer
 10
210.23205080756912
 20
250.32497224277964
 30
0.0
 11
210.97683265482377
 21
249.89497224277963
 31
0.0
  0
ARC
  5
10E
100
AcDbEntity
  8
0
 62
256
370
-1
  6
ByLayer
100
AcDbCircle
 10
209.98205080756912
 20
249.89195954088743
 30
0.0
 40
0.5
100
AcDbArc
 50
60.000000000000185
 51
150.00000000000003
  0
LINE
  5
10F
100
AcDbEntity
100
AcDbLine
  8
0
 62
256
370
-1
  6
ByLayer
 10
207.27316734517677
 20
254.92003575224072
 30
0.0
 11
206.02316734517674
 21
252.75497224277964
 31
0.0
  0
LINE
  5
110
100
AcDbEntity
100
AcDbLine
  8
0
 62
256
370
-1
  6
ByLayer
 10
210.97683265482377
 20
249.89497224277963
 30
0.0
 11
212.22683265482374
 21
252.06003575224074
 31
0.0
  0
LINE
  5
111
100
AcDbEntity
100
AcDbLine
  8
0
 62
256
370
-1
  6
ByLayer
 10
208.01794919243139
 20
254.49003575224074
 30
0.0
 11
207.27316734517677
 21
254.92003575224072
 31
0.0
  0
LINE
  5
112
100
AcDbEntity
100
AcDbLine
  8
0
 62
256
370
-1
  6
ByLayer
 10
212.2009618943236
 20
260.73522628062403
 30
0.0
 11
208.7009618943236
 21
254.67304845413295
 31
0.0
  0
ARC
  5
113
100
AcDbEntity
  8
0
 62
256
370
-1
  6
ByLayer
100
AcDbCircle
 10
208.26794919243136
 20
254.92304845413295
 30
0.0
 40
0.5
100
AcDbArc
 50
239.99999999999983
 51
330.00000000000006
  0
LINE
  5
114
100
AcDbEntity
100
AcDbLine
  8
0
 62
256
370
-1
  6
ByLayer
 10
212.22683265482374
 20
252.06003575224074
 30
0.0
 11
211.48205080756912
 21
252.49003575224074
 31
0.0
  0
LINE
  5
115
100
AcDbEntity
100
AcDbLine
  8
0
 62
256
370
-1
  6
ByLayer
 10
211.29903810567691
 20
253.17304845413295
 30
0.0
 11
214.79903810567691
 21
259.23522628062403
 31
0.0
  0
ARC
  5
116
100
AcDbEntity
  8
0
 62
256
370
-1
  6
ByLayer
100
AcDbCircle
 10
211.73205080756912
 20
252.92304845413295
 30
0.0
 40
0.5
100
AcDbArc
 50
150.00000000000003
 51
239.99999999999983
  0
LINE
  5
117
100
AcDbEntity
100
AcDbLine
  8
0
 62
256
370
-1
  6
ByLayer
 10
175.79903810567689
 20
191.68524478543787
 30
0.0
 11
173.20096189432357
 21
193.18524478543787
 31
0.0
  0
LINE
  5
118
100
AcDbEntity
100
AcDbLine
  8
0
 62
256
370
-1
  6
ByLayer
 10
175.16025403784462
 20
173.57883832488685
 30
0.0
 11
177.41025403784462
 21
177.47595264191682
 31
0.0
  0
ARC
  5
119
100
AcDbEntity
  8
0
 62
256
370
-1
  6
ByLayer
100
AcDbCircle
 10
174.72724133595239
 20
173.82883832488685
 30
0.0
 40
0.5
100
AcDbArc
 50
240.00000000000003
 51
330.00000000000006
  0
LINE
  5
11A
100
AcDbEntity
100
AcDbLine
  8
0
 62
256
370
-1
  6
ByLayer
 10
171.01313972081465
 20
175.39582562299464
 30
0.0
 11
174.47724133595239
 21
173.39582562299464
 31
0.0
  0
LINE
  5
11B
100
AcDbEntity
100
AcDbLine
  8
0
 62
256
370
-1
  6
ByLayer
 10
173.08012701892241
 20
179.97595264191682
 30
0.0
 11
170.83012701892241
 21
176.07883832488685
 31
0.0
  0
ARC
  5
11C
100
AcDbEntity
  8
0
 62
256
370
-1
  6
ByLayer
100
AcDbCircle
 10
171.26313972081465
 20
175.82883832488685
 30
0.0
 40
0.5
100
AcDbArc
 50
150.00000000000003
 51
240.00000000000003
  0
LINE
  5
11D
100
AcDbEntity
100
AcDbLine
  8
0
 62
256
370
-1
  6
ByLayer
 10
170.4820508075691
 20
181.47595264191682
 30
0.0
 11
173.08012701892241
 21
179.97595264191682
 31
0.0
  0
ARC
  5
11E
100
AcDbEntity
  8
0
 62
256
370
-1
  6
ByLayer
100
AcDbCircle
 10
170.7320508075691
 20
181.90896534380903
 30
0.0
 40
0.5
100
AcDbArc
 50
150.00000000000003
 51
239.99999999999997
  0
LINE
  5
11F
100
AcDbEntity
100
AcDbLine
  8
0
 62
256
370
-1
  6
ByLayer
 10
167.01794919243136
 20
183.47595264191682
 30
0.0
 11
164.41987298107804
 21
184.97595264191682
 31
0.0
  0
ARC
  5
120
100
AcDbEntity
  8
0
 62
256
370
-1
  6
ByLayer
100
AcDbCircle
 10
167.26794919243136
 20
183.90896534380903
 30
0.0
 40
0.5
100
AcDbArc
 50
240.00000000000009
 51
330.00000000000006
  0
LINE
  5
121
100
AcDbEntity
100
AcDbLine
  8
0
 62
256
370
-1
  6
ByLayer
 10
164.41987298107804
 20
184.97595264191682
 30
0.0
 11
162.16987298107804
 21
181.07883832488685
 31
0.0
  0
ARC
  5
122
100
AcDbEntity
  8
0
 62
256
370
-1
  6
ByLayer
100
AcDbCircle
 10
161.73686027918581
 20
181.32883832488685
 30
0.0
 40
0.5
100
AcDbArc
 50
240.00000000000003
 51
330.00000000000006
  0
LINE
  5
123
100
AcDbEntity
100
AcDbLine
  8
0
 62
256
370
-1
  6
ByLayer
 10
161.48686027918581
 20
180.89582562299464
 30
0.0
 11
158.02275866404807
 21
182.89582562299461
 31
0.0
  0
LINE
  5
124
100
AcDbEntity
100
AcDbLine
  8
0
 62
256
370
-1
  6
ByLayer
 10
157.83974596215583
 20
183.57883832488685
 30
0.0
 11
160.08974596215583
 21
187.47595264191682
 31
0.0
  0
ARC
  5
125
100
AcDbEntity
  8
0
 62
256
370
-1
  6
ByLayer
100
AcDbCircle
 10
158.27275866404807
 20
183.32883832488685
 30
0.0
 40
0.5
100
AcDbArc
 50
150.00000000000003
 51
240.00000000000003
  0
LINE
  5
126
100
AcDbEntity
100
AcDbLine
  8
0
 62
256
370
-1
  6
ByLayer
 10
176.47683265482371
 20
190.13921938165342
 30
0.0
 11
175.7320508075691
 21
190.56921938165343
 31
0.0
  0
LINE
  5
127
100
AcDbEntity
100
AcDbLine
  8
0
 62
256
370
-1
  6
ByLayer
 10
175.54903810567689
 20
191.25223208354564
 30
0.0
 11
175.79903810567689
 21
191.68524478543787
 31
0.0
  0
ARC
  5
128
100
AcDbEntity
  8
0
 62
256
370
-1
  6
ByLayer
100
AcDbCircle
 10
175.9820508075691
 20
191.00223208354566
 30
0.0
 40
0.5
100
AcDbArc
 50
150.00000000000003
 51
240.00000000000003
  0
LINE
  5
129
100
AcDbEntity
100
AcDbLine
  8
0
 62
256
370
-1
  6
ByLayer
 10
173.20096189432357
 20
193.18524478543787
 30
0.0
 11
172.95096189432357
 21
192.75223208354564
 31
0.0
  0
LINE
  5
12A
100
AcDbEntity
100
AcDbLine
  8
0
 62
256
370
-1
  6
ByLayer
 10
172.26794919243133
 20
192.56921938165343
 30
0.0
 11
171.52316734517672
 21
192.99921938165343
 31
0.0
  0
ARC
  5
12B
100
AcDbEntity
  8
0
 62
256
370
-1
  6
ByLayer
100
AcDbCircle
 10
172.51794919243136
 20
193.00223208354564
 30
0.0
 40
0.5
100
AcDbArc
 50
240.00000000000023
 51
330.00000000000006
  0
LINE
  5
12C
100
AcDbEntity
100
AcDbLine
  8
0
 62
256
370
-1
  6
ByLayer
 10
175.22683265482371
 20
187.97415587219234
 30
0.0
 11
176.47683265482371
 21
190.13921938165342
 31
0.0
  0
LINE
  5
12D
100
AcDbEntity
100
AcDbLine
  8
0
 62
256
370
-1
  6
ByLayer
 10
171.52316734517672
 20
192.99921938165343
 30
0.0
 11
170.27316734517674
 21
190.83415587219233
 31
0.0
  0
LINE
  5
12E
100
AcDbEntity
100
AcDbLine
  8
0
 62
256
370
-1
  6
ByLayer
 10
174.4820508075691
 20
188.40415587219232
 30
0.0
 11
175.22683265482371
 21
187.97415587219234
 31
0.0
  0
LINE
  5
12F
100
AcDbEntity
100
AcDbLine
  8
0
 62
256
370
-1
  6
ByLayer
 10
170.29903810567689
 20
182.15896534380903
 30
0.0
 11
173.79903810567689
 21
188.22114317030011
 31
0.0
  0
ARC
  5
130
100
AcDbEntity
  8
0
 62
256
370
-1
  6
ByLayer
100
AcDbCircle
 10
174.2320508075691
 20
187.97114317030011
 30
0.0
 40
0.5
100
AcDbArc
 50
59.999999999999879
 51
150.00000000000003
  0
LINE
  5
131
100
AcDbEntity
100
AcDbLine
  8
0
 62
256
370
-1
  6
ByLayer
 10
170.27316734517674
 20
190.83415587219233
 30
0.0
 11
171.01794919243136
 21
190.40415587219232
 31
0.0
  0
LINE
  5
132
100
AcDbEntity
100
AcDbLine
  8
0
 62
256
370
-1
  6
ByLayer
 10
171.20096189432357
 20
189.72114317030011
 30
0.0
 11
167.70096189432357
 21
183.65896534380903
 31
0.0
  0
ARC
  5
133
100
AcDbEntity
  8
0
 62
256
370
-1
  6
ByLayer
100
AcDbCircle
 10
170.76794919243136
 20
189.97114317030011
 30
0.0
 40
0.5
100
AcDbArc
 50
330.00000000000006
 51
59.999999999999879
  0
LINE
  5
134
100
AcDbEntity
100
AcDbLine
  8
Flange
 62
256
370
-1
  6
ByLayer
 10
171.01313972081459
 20
175.39582562299464
 30
0.0
 11
161.48686027918583
 21
180.89582562299461
 31
0.0
  0
LINE
  5
135
100
AcDbEntity
100
AcDbLine
  8
Flange
 62
256
370
-1
  6
ByLayer
 10
221.01313972081471
 20
261.99836600143851
 30
0.0
 11
211.48686027918609
 21
267.49836600143834
 31
0.0
  0
ARC
  5
136
100
AcDbEntity
  8
Flange
 62
256
370
-1
  6
ByLayer
100
AcDbCircle
 10
490.89478970931992
 20
48.44709581226266
 30
0.0
 40
338.99999999989564
100
AcDbArc
 50
142.37185033141552
 51
157.6281496685817
  0
ARC
  5
137
100
AcDbEntity
  8
Flange
 62
256
370
-1
  6
ByLayer
100
AcDbCircle
 10
-108.39478970952899
 20
394.44709581227386
 30
0.0
 40
339.00000000012483
100
AcDbArc
 50
322.37185033142333
 51
337.62814966857911
  0
CIRCLE
  5
138
100
AcDbEntity
100
AcDbCircle
  8
Flange
 62
256
370
-1
  6
ByLayer
 10
82.500000000000028
 20
266.91342951089922
 30
0.0
 40
1.5
  0
CIRCLE
  5
139
100
AcDbEntity
100
AcDbCircle
  8
Flange
 62
256
370
-1
  6
ByLayer
 10
33.086570489100808
 20
217.50000000000006
 30
0.0
 40
1.5
  0
CIRCLE
  5
13A
100
AcDbEntity
100
AcDbCircle
  8
Flange
 62
256
370
-1
  6
ByLayer
 10
15.0
 20
150.00000000000003
 30
0.0
 40
1.5
  0
CIRCLE
  5
13B
100
AcDbEntity
100
AcDbCircle
  8
Flange
 62
256
370
-1
  6
ByLayer
 10
33.086570489100737
 20
82.500000000000085
 30
0.0
 40
1.5
  0
CIRCLE
  5
13C
100
AcDbEntity
100
AcDbCircle
  8
Flange
 62
256
370
-1
  6
ByLayer
 10
82.499999999999929
 20
33.086570489100794
 30
0.0
 40
1.5
  0
CIRCLE
  5
13D
100
AcDbEntity
100
AcDbCircle
  8
Flange
 62
256
370
-1
  6
ByLayer
 10
149.99999999999997
 20
14.999999999999972
 30
0.0
 40
1.5
  0
CIRCLE
  5
13E
100
AcDbEntity
100
AcDbCircle
  8
Flange
 62
256
370
-1
  6
ByLayer
 10
217.49999999999991
 20
33.086570489100708
 30
0.0
 40
1.5
  0
CIRCLE
  5
13F
100
AcDbEntity
100
AcDbCircle
  8
Flange
 62
256
370
-1
  6
ByLayer
 10
266.91342951089916
 20
82.499999999999943
 30
0.0
 40
1.5
  0
CIRCLE
  5
140
100
AcDbEntity
100
AcDbCircle
  8
Flange
 62
256
370
-1
  6
ByLayer
 10
285.0
 20
149.99999999999997
 30
0.0
 40
1.5
  0
CIRCLE
  5
141
100
AcDbEntity
100
AcDbCircle
  8
Flange
 62
256
370
-1
  6
ByLayer
 10
266.91342951089928
 20
217.49999999999989
 30
0.0
 40
1.5
  0
CIRCLE
  5
142
100
AcDbEntity
100
AcDbCircle
  8
Flange
 62
256
370
-1
  6
ByLayer
 10
217.50000000000017
 20
266.91342951089911
 30
0.0
 40
1.5
  0
CIRCLE
  5
143
100
AcDbEntity
100
AcDbCircle
  8
Flange
 62
256
370
-1
  6
ByLayer
 10
150.00000000000003
 20
285.0
 30
0.0
 40
1.5
  0
ARC
  5
144
100
AcDbEntity
  8
Flange Etch
 62
256
370
-1
  6
ByLayer
100
AcDbCircle
 10
59.444313043665836
 20
148.81944444444446
 30
0.0
 40
3.6805555555555558
100
AcDbArc
 50
63.069999999999993
 51
90.0
  0
ARC
  5
145
100
AcDbEntity
  8
Flange Etch
 62
256
370
-1
  6
ByLayer
100
AcDbCircle
 10
59.444313043665836
 20
151.38888888888889
 30
0.0
 40
1.1111111111111112
100
AcDbArc
 50
90.0
 51
243.0
  0
LINE
  5
146
100
AcDbEntity
100
AcDbLine
  8
Flange Etch
 62
256
370
-1
  6
ByLayer
 10
58.939313043665834
 20
150.39888888888888
 30
0.0
 11
60.504868599221389
 21
149.60111111111112
 31
0.0
  0
ARC
  5
147
100
AcDbEntity
  8
Flange Etch
 62
256
370
-1
  6
ByLayer
100
AcDbCircle
 10
59.999868599221386
 20
148.61111111111111
 30
0.0
 40
1.1111111111111112
100
AcDbArc
 50
270.0
 51
62.980000000000004
  0
ARC
  5
148
100
AcDbEntity
  8
Flange Etch
 62
256
370
-1
  6
ByLayer
100
AcDbCircle
 10
59.999868599221386
 20
151.18055555555554
 30
0.0
 40
3.6805555555555558
100
AcDbArc
 50
243.09999999999999
 51
270.0
  0
LINE
  5
149
100
AcDbEntity
100
AcDbLine
  8
Flange Etch
 62
256
370
-1
  6
ByLayer
 10
62.777909178555539
 20
147.5
 30
0.0
 11
64.166798067444432
 21
147.5
 31
0.0
  0
ARC
  5
14A
100
AcDbEntity
  8
Flange Etch
 62
256
370
-1
  6
ByLayer
100
AcDbCircle
 10
64.166798067444432
 20
148.33333333333334
 30
0.0
 40
0.8333333333333334
100
AcDbArc
 50
270.0
 51
0.0
  0
LINE
  5
14B
100
AcDbEntity
100
AcDbLine
  8
Flange Etch
 62
256
370
-1
  6
ByLayer
 10
65.000131400777761
 20
148.33333333333334
 30
0.0
 11
65.000131400777761
 21
150.0
 31
0.0
  0
ARC
  5
14C
100
AcDbEntity
  8
Flange Etch
 62
256
370
-1
  6
ByLayer
100
AcDbCircle
 10
64.166798067444432
 20
150.0
 30
0.0
 40
0.8333333333333334
100
AcDbArc
 50
0.0
 51
90.0
  0
LINE
  5
14D
100
AcDbEntity
100
AcDbLine
  8
Flange Etch
 62
256
370
-1
  6
ByLayer
 10
64.166798067444432
 20
150.83333333333334
 30
0.0
 11
62.777909178555539
 21
150.83333333333334
 31
0.0
  0
LINE
  5
14E
100
AcDbEntity
100
AcDbLine
  8
Flange Etch
 62
256
370
-1
  6
ByLayer
 10
62.777909178555539
 20
150.83333333333334
 30
0.0
 11
62.777909178555539
 21
145.83333333333334
 31
0.0
  0
LINE
  5
14F
100
AcDbEntity
100
AcDbLine
  8
Flange Etch
 62
256
370
-1
  6
ByLayer
 10
66.666798067444418
 20
149.72222222222223
 30
0.0
 11
66.666798067444418
 21
148.61111111111111
 31
0.0
  0
ARC
  5
150
100
AcDbEntity
  8
Flange Etch
 62
256
370
-1
  6
ByLayer
100
AcDbCircle
 10
67.777909178555532
 20
148.61111111111111
 30
0.0
 40
1.1111111111111112
100
AcDbArc
 50
180.0
 51
0.0
  0
LINE
  5
151
100
AcDbEntity
100
AcDbLine
  8
Flange Etch
 62
256
370
-1
  6
ByLayer
 10
68.889020289666647
 20
148.61111111111111
 30
0.0
 11
68.889020289666647
 21
149.72222222222223
 31
0.0
  0
ARC
  5
152
100
AcDbEntity
  8
Flange Etch
 62
256
370
-1
  6
ByLayer
100
AcDbCircle
 10
67.777909178555532
 20
149.72222222222223
 30
0.0
 40
1.1111111111111112
100
AcDbArc
 50
0.0
 51
180.0
  0
LINE
  5
153
100
AcDbEntity
100
AcDbLine
  8
Flange Etch
 62
256
370
-1
  6
ByLayer
 10
70.555686956333318
 20
152.5
 30
0.0
 11
70.555686956333318
 21
147.5
 31
0.0
  0
LINE
  5
154
100
AcDbEntity
100
AcDbLine
  8
Flange Etch
 62
256
370
-1
  6
ByLayer
 10
70.555686956333318
 20
149.44444444444446
 30
0.0
 11
72.777909178555547
 21
150.83333333333334
 31
0.0
  0
LINE
  5
155
100
AcDbEntity
100
AcDbLine
  8
Flange Etch
 62
256
370
-1
  6
ByLayer
 10
71.289575845222203
 20
149.90333333333334
 30
0.0
 11
72.777909178555547
 21
147.5
 31
0.0
  0
LINE
  5
156
100
AcDbEntity
100
AcDbLine
  8
Flange Etch
 62
256
370
-1
  6
ByLayer
 10
74.444575845222204
 20
149.16666666666666
 30
0.0
 11
76.666798067444432
 21
149.16666666666666
 31
0.0
  0
LINE
  5
157
100
AcDbEntity
100
AcDbLine
  8
Flange Etch
 62
256
370
-1
  6
ByLayer
 10
76.666798067444432
 20
149.16666666666666
 30
0.0
 11
76.666798067444432
 21
149.72222222222223
 31
0.0
  0
ARC
  5
158
100
AcDbEntity
  8
Flange Etch
 62
256
370
-1
  6
ByLayer
100
AcDbCircle
 10
75.555686956333318
 20
149.72222222222223
 30
0.0
 40
1.1111111111111112
100
AcDbArc
 50
0.0
 51
180.0
  0
LINE
  5
159
100
AcDbEntity
100
AcDbLine
  8
Flange Etch
 62
256
370
-1
  6
ByLayer
 10
74.444575845222204
 20
149.72222222222223
 30
0.0
 11
74.444575845222204
 21
148.33333333333334
 31
0.0
  0
ARC
  5
15A
100
AcDbEntity
  8
Flange Etch
 62
256
370
-1
  6
ByLayer
100
AcDbCircle
 10
75.277909178555532
 20
148.33333333333334
 30
0.0
 40
0.8333333333333334
100
AcDbArc
 50
180.0
 51
270.0
  0
LINE
  5
15B
100
AcDbEntity
100
AcDbLine
  8
Flange Etch
 62
256
370
-1
  6
ByLayer
 10
75.277909178555532
 20
147.5
 30
0.0
 11
76.666798067444432
 21
147.5
 31
0.0
  0
ARC
  5
15C
100
AcDbEntity
  8
Flange Etch
 62
256
370
-1
  6
ByLayer
100
AcDbCircle
 10
196.300234579857
 20
72.166752416441227
 30
0.0
 40
3.6805555555555558
100
AcDbArc
 50
183.06999999999999
 51
210.0
  0
ARC
  5
15D
100
AcDbEntity
  8
Flange Etch
 62
256
370
-1
  6
ByLayer
100
AcDbCircle
 10
194.07503041735532
 20
70.882030194219013
 30
0.0
 40
1.1111111111111112
100
AcDbArc
 50
210.0
 51
3.0000000000000169
  0
LINE
  5
15E
100
AcDbEntity
100
AcDbLine
  8
Flange Etch
 62
256
370
-1
  6
ByLayer
 10
195.18489556710193
 20
70.939687365307861
 30
0.0
 11
195.09301361145441
 21
72.694387136343707
 31
0.0
  0
ARC
  5
15F
100
AcDbEntity
  8
Flange Etch
 62
256
370
-1
  6
ByLayer
100
AcDbCircle
 10
196.20287876120099
 20
72.75204430743257
 30
0.0
 40
1.1111111111111112
100
AcDbArc
 50
29.999999999999964
 51
182.97999999999999
  0
ARC
  5
160
100
AcDbEntity
  8
Flange Etch
 62
256
370
-1
  6
ByLayer
100
AcDbCircle
 10
193.97767459869931
 20
71.467322085210355
 30
0.0
 40
3.6805555555555558
100
AcDbArc
 50
3.1000000000000107
 51
29.999999999999964
  0
LINE
  5
161
100
AcDbEntity
100
AcDbLine
  8
Flange Etch
 62
256
370
-1
  6
ByLayer
 10
195.77610892018328
 20
75.713453577435544
 30
0.0
 11
195.08166447573885
 21
76.916266638247265
 31
0.0
  0
ARC
  5
162
100
AcDbEntity
  8
Flange Etch
 62
256
370
-1
  6
ByLayer
100
AcDbCircle
 10
194.35997663925181
 20
76.499599971580594
 30
0.0
 40
0.8333333333333334
100
AcDbArc
 50
29.999999999999964
 51
119.99999999999999
  0
LINE
  5
163
100
AcDbEntity
100
AcDbLine
  8
Flange Etch
 62
256
370
-1
  6
ByLayer
 10
193.94330997258513
 20
77.221287808067643
 30
0.0
 11
192.49993429961106
 21
76.3879544747343
 31
0.0
  0
ARC
  5
164
100
AcDbEntity
  8
Flange Etch
 62
256
370
-1
  6
ByLayer
100
AcDbCircle
 10
192.91660096627774
 20
75.666266638247265
 30
0.0
 40
0.8333333333333334
100
AcDbArc
 50
119.99999999999999
 51
210.0
  0
LINE
  5
165
100
AcDbEntity
100
AcDbLine
  8
Flange Etch
 62
256
370
-1
  6
ByLayer
 10
192.19491312979071
 20
75.249599971580594
 30
0.0
 11
192.88935757423516
 21
74.046786910768887
 31
0.0
  0
LINE
  5
166
100
AcDbEntity
100
AcDbLine
  8
Flange Etch
 62
256
370
-1
  6
ByLayer
 10
192.88935757423516
 20
74.046786910768887
 30
0.0
 11
197.21948459315735
 21
76.546786910768873
 31
0.0
  0
LINE
  5
167
100
AcDbEntity
100
AcDbLine
  8
Flange Etch
 62
256
370
-1
  6
ByLayer
 10
191.90716357844008
 20
77.970219036597243
 30
0.0
 11
192.86941402708948
 21
78.5257745921528
 31
0.0
  0
ARC
  5
168
100
AcDbEntity
  8
Flange Etch
 62
256
370
-1
  6
ByLayer
100
AcDbCircle
 10
192.31385847153391
 20
79.488025040802185
 30
0.0
 40
1.1111111111111112
100
AcDbArc
 50
299.99999999999994
 51
119.99999999999999
  0
LINE
  5
169
100
AcDbEntity
100
AcDbLine
  8
Flange Etch
 62
256
370
-1
  6
ByLayer
 10
191.75830291597836
 20
80.450275489451556
 30
0.0
 11
190.79605246732896
 21
79.894719933895999
 31
0.0
  0
ARC
  5
16A
100
AcDbEntity
  8
Flange Etch
 62
256
370
-1
  6
ByLayer
100
AcDbCircle
 10
191.35160802288453
 20
78.932469485246628
 30
0.0
 40
1.1111111111111112
100
AcDbArc
 50
119.99999999999999
 51
299.99999999999994
  0
LINE
  5
16B
100
AcDbEntity
100
AcDbLine
  8
Flange Etch
 62
256
370
-1
  6
ByLayer
 10
187.55709301237221
 20
79.949206717981184
 30
0.0
 11
191.88722003129439
 21
82.449206717981184
 31
0.0
  0
LINE
  5
16C
100
AcDbEntity
100
AcDbLine
  8
Flange Etch
 62
256
370
-1
  6
ByLayer
 10
190.20328174615798
 20
81.47698449575897
 30
0.0
 11
187.88935757423516
 21
82.707040948613283
 31
0.0
  0
LINE
  5
16D
100
AcDbEntity
100
AcDbLine
  8
Flange Etch
 62
256
370
-1
  6
ByLayer
 10
189.43892786642135
 20
81.883106472647427
 30
0.0
 11
190.77610892018328
 21
84.37370761527994
 31
0.0
  0
LINE
  5
16E
100
AcDbEntity
100
AcDbLine
  8
Flange Etch
 62
256
370
-1
  6
ByLayer
 10
188.49939991387589
 20
84.983749954920668
 30
0.0
 11
187.38828880276478
 21
86.908250852219425
 31
0.0
  0
LINE
  5
16F
100
AcDbEntity
100
AcDbLine
  8
Flange Etch
 62
256
370
-1
  6
ByLayer
 10
187.38828880276478
 20
86.908250852219425
 30
0.0
 11
186.90716357844008
 21
86.630473074441639
 31
0.0
  0
ARC
  5
170
100
AcDbEntity
  8
Flange Etch
 62
256
370
-1
  6
ByLayer
100
AcDbCircle
 10
187.46271913399565
 20
85.668222625792268
 30
0.0
 40
1.1111111111111112
100
AcDbArc
 50
119.99999999999999
 51
299.99999999999994
  0
LINE
  5
171
100
AcDbEntity
100
AcDbLine
  8
Flange Etch
 62
256
370
-1
  6
ByLayer
 10
188.01827468955119
 20
84.705972177142883
 30
0.0
 11
189.22108775036293
 21
85.40041662158734
 31
0.0
  0
ARC
  5
172
100
AcDbEntity
  8
Flange Etch
 62
256
370
-1
  6
ByLayer
100
AcDbCircle
 10
188.80442108369627
 20
86.122104458074375
 30
0.0
 40
0.8333333333333334
100
AcDbArc
 50
299.99999999999994
 51
29.999999999999964
  0
LINE
  5
173
100
AcDbEntity
100
AcDbLine
  8
Flange Etch
 62
256
370
-1
  6
ByLayer
 10
189.5261089201833
 20
86.538771124741032
 30
0.0
 11
188.83166447573885
 21
87.741584185552753
 31
0.0
  0
ARC
  5
174
100
AcDbEntity
  8
Flange Etch
 62
256
370
-1
  6
ByLayer
100
AcDbCircle
 10
194.25545237647717
 20
229.01380313911423
 30
0.0
 40
3.6805555555555558
100
AcDbArc
 50
303.06999999999999
 51
330.0
  0
ARC
  5
175
100
AcDbEntity
  8
Flange Etch
 62
256
370
-1
  6
ByLayer
100
AcDbCircle
 10
196.48065653897885
 20
227.729080916892
 30
0.0
 40
1.1111111111111112
100
AcDbArc
 50
330.0
 51
122.99999999999999
  0
LINE
  5
176
100
AcDbEntity
100
AcDbLine
  8
Flange Etch
 62
256
370
-1
  6
ByLayer
 10
195.87579138923223
 20
228.66142374580315
 30
0.0
 11
194.40211778932422
 21
227.70450175254507
 31
0.0
  0
ARC
  5
177
100
AcDbEntity
  8
Flange Etch
 62
256
370
-1
  6
ByLayer
100
AcDbCircle
 10
193.79725263957764
 20
228.63684458145622
 30
0.0
 40
1.1111111111111112
100
AcDbArc
 50
150.00000000000003
 51
302.97999999999996
  0
ARC
  5
178
100
AcDbEntity
  8
Flange Etch
 62
256
370
-1
  6
ByLayer
100
AcDbCircle
 10
196.02245680207929
 20
227.35212235923399
 30
0.0
 40
3.6805555555555558
100
AcDbArc
 50
123.09999999999998
 51
150.00000000000003
  0
LINE
  5
179
100
AcDbEntity
100
AcDbLine
  8
Flange Etch
 62
256
370
-1
  6
ByLayer
 10
191.44598190126118
 20
226.78654642256436
 30
0.0
 11
190.75153745681672
 21
225.58373336175265
 31
0.0
  0
ARC
  5
17A
100
AcDbEntity
  8
Flange Etch
 62
256
370
-1
  6
ByLayer
100
AcDbCircle
 10
191.47322529330378
 20
225.16706669508596
 30
0.0
 40
0.8333333333333334
100
AcDbArc
 50
150.00000000000003
 51
239.99999999999997
  0
LINE
  5
17B
100
AcDbEntity
100
AcDbLine
  8
Flange Etch
 62
256
370
-1
  6
ByLayer
 10
191.0565586266371
 20
224.44537885859893
 30
0.0
 11
192.49993429961117
 21
223.61204552526559
 31
0.0
  0
ARC
  5
17C
100
AcDbEntity
  8
Flange Etch
 62
256
370
-1
  6
ByLayer
100
AcDbCircle
 10
192.91660096627783
 20
224.33373336175265
 30
0.0
 40
0.8333333333333334
100
AcDbArc
 50
239.99999999999997
 51
330.0
  0
LINE
  5
17D
100
AcDbEntity
100
AcDbLine
  8
Flange Etch
 62
256
370
-1
  6
ByLayer
 10
193.63828880276486
 20
223.91706669508596
 30
0.0
 11
194.33273324720932
 21
225.11987975589767
 31
0.0
  0
LINE
  5
17E
100
AcDbEntity
100
AcDbLine
  8
Flange Etch
 62
256
370
-1
  6
ByLayer
 10
194.33273324720932
 20
225.11987975589767
 30
0.0
 11
190.00260622828711
 21
227.61987975589767
 31
0.0
  0
LINE
  5
17F
100
AcDbEntity
100
AcDbLine
  8
Flange Etch
 62
256
370
-1
  6
ByLayer
 10
191.42603835411549
 20
222.30755874118043
 30
0.0
 11
190.46378790546609
 21
222.86311429673597
 31
0.0
  0
ARC
  5
180
100
AcDbEntity
  8
Flange Etch
 62
256
370
-1
  6
ByLayer
100
AcDbCircle
 10
189.90823234991055
 20
221.9008638480866
 30
0.0
 40
1.1111111111111112
100
AcDbArc
 50
59.999999999999986
 51
239.99999999999997
  0
LINE
  5
181
100
AcDbEntity
100
AcDbLine
  8
Flange Etch
 62
256
370
-1
  6
ByLayer
 10
189.35267679435498
 20
220.93861339943723
 30
0.0
 11
190.31492724300438
 21
220.38305784388166
 31
0.0
  0
ARC
  5
182
100
AcDbEntity
  8
Flange Etch
 62
256
370
-1
  6
ByLayer
100
AcDbCircle
 10
190.87048279855992
 20
221.34530829253106
 30
0.0
 40
1.1111111111111112
100
AcDbArc
 50
239.99999999999997
 51
59.999999999999986
  0
LINE
  5
183
100
AcDbEntity
100
AcDbLine
  8
Flange Etch
 62
256
370
-1
  6
ByLayer
 10
191.88722003129448
 20
217.55079328201873
 30
0.0
 11
187.55709301237229
 21
220.05079328201873
 31
0.0
  0
LINE
  5
184
100
AcDbEntity
100
AcDbLine
  8
Flange Etch
 62
256
370
-1
  6
ByLayer
 10
189.2410312975087
 20
219.0785710597965
 30
0.0
 11
189.33273324720932
 21
216.4596257180533
 31
0.0
  0
LINE
  5
185
100
AcDbEntity
100
AcDbLine
  8
Flange Etch
 62
256
370
-1
  6
ByLayer
 10
189.27149628835645
 20
218.21356019401915
 30
0.0
 11
186.44598190126118
 21
218.12629238471996
 31
0.0
  0
LINE
  5
186
100
AcDbEntity
100
AcDbLine
  8
Flange Etch
 62
256
370
-1
  6
ByLayer
 10
187.05602424090188
 20
215.84958337841258
 30
0.0
 11
185.94491312979076
 21
213.92508248111383
 31
0.0
  0
LINE
  5
187
100
AcDbEntity
100
AcDbLine
  8
Flange Etch
 62
256
370
-1
  6
ByLayer
 10
185.94491312979076
 20
213.92508248111383
 30
0.0
 11
186.42603835411549
 21
213.64730470333603
 31
0.0
  0
ARC
  5
188
100
AcDbEntity
  8
Flange Etch
 62
256
370
-1
  6
ByLayer
100
AcDbCircle
 10
186.98159390967103
 20
214.60955515198543
 30
0.0
 40
1.1111111111111112
100
AcDbArc
 50
239.99999999999997
 51
59.999999999999986
  0
LINE
  5
189
100
AcDbEntity
100
AcDbLine
  8
Flange Etch
 62
256
370
-1
  6
ByLayer
 10
187.53714946522661
 20
215.5718056006348
 30
0.0
 11
186.33433640441487
 21
216.26625004507923
 31
0.0
  0
ARC
  5
18A
100
AcDbEntity
  8
Flange Etch
 62
256
370
-1
  6
ByLayer
100
AcDbCircle
 10
185.91766973774821
 20
215.5445622085922
 30
0.0
 40
0.8333333333333334
100
AcDbArc
 50
59.999999999999986
 51
150.00000000000003
  0
LINE
  5
18B
100
AcDbEntity
100
AcDbLine
  8
Flange Etch
 62
256
370
-1
  6
ByLayer
 10
185.19598190126115
 20
215.96122887525888
 30
0.0
 11
184.50153745681672
 21
214.75841581444715
 31
0.0
  0
LINE
  5
18C
100
AcDbEntity
100
AcDbLine
  8
Flange Etch
 62
256
370
-1
  6
ByLayer
 10
142.2222222222222
 20
22.499999999999972
 30
0.0
 11
139.99999999999997
 21
22.499999999999972
 31
0.0
  0
LINE
  5
18D
100
AcDbEntity
100
AcDbLine
  8
Flange Etch
 62
256
370
-1
  6
ByLayer
 10
139.99999999999997
 20
22.499999999999972
 30
0.0
 11
139.99999999999997
 21
17.499999999999972
 31
0.0
  0
LINE
  5
18E
100
AcDbEntity
100
AcDbLine
  8
Flange Etch
 62
256
370
-1
  6
ByLayer
 10
139.99999999999997
 20
20.27777777777775
 30
0.0
 11
142.2222222222222
 21
20.27777777777775
 31
0.0
  0
LINE
  5
18F
100
AcDbEntity
100
AcDbLine
  8
Flange Etch
 62
256
370
-1
  6
ByLayer
 10
143.88888888888886
 20
22.499999999999972
 30
0.0
 11
143.88888888888886
 21
18.055555555555529
 31
0.0
  0
ARC
  5
190
100
AcDbEntity
  8
Flange Etch
 62
256
370
-1
  6
ByLayer
100
AcDbCircle
 10
144.4444444444444
 20
18.055555555555529
 30
0.0
 40
0.5555555555555556
100
AcDbArc
 50
180.0
 51
270.0
  0
LINE
  5
191
100
AcDbEntity
100
AcDbLine
  8
Flange Etch
 62
256
370
-1
  6
ByLayer
 10
146.38888888888886
 20
20.833333333333307
 30
0.0
 11
147.49999999999997
 21
20.833333333333307
 31
0.0
  0
ARC
  5
192
100
AcDbEntity
  8
Flange Etch
 62
256
370
-1
  6
ByLayer
100
AcDbCircle
 10
147.49999999999997
 20
19.999999999999975
 30
0.0
 40
0.8333333333333334
100
AcDbArc
 50
0.0
 51
90.0
  0
LINE
  5
193
100
AcDbEntity
100
AcDbLine
  8
Flange Etch
 62
256
370
-1
  6
ByLayer
 10
148.33333333333331
 20
19.999999999999975
 30
0.0
 11
148.33333333333331
 21
17.499999999999975
 31
0.0
  0
LINE
  5
194
100
AcDbEntity
100
AcDbLine
  8
Flange Etch
 62
256
370
-1
  6
ByLayer
 10
148.33333333333331
 20
17.499999999999975
 30
0.0
 11
146.94444444444443
 21
17.499999999999975
 31
0.0
  0
ARC
  5
195
100
AcDbEntity
  8
Flange Etch
 62
256
370
-1
  6
ByLayer
100
AcDbCircle
 10
146.94444444444443
 20
18.333333333333307
 30
0.0
 40
0.8333333333333334
100
AcDbArc
 50
90.0
 51
270.0
  0
LINE
  5
196
100
AcDbEntity
100
AcDbLine
  8
Flange Etch
 62
256
370
-1
  6
ByLayer
 10
146.94444444444443
 20
19.166666666666643
 30
0.0
 11
148.33333333333331
 21
19.166666666666643
 31
0.0
  0
LINE
  5
197
100
AcDbEntity
100
AcDbLine
  8
Flange Etch
 62
256
370
-1
  6
ByLayer
 10
149.99999999999997
 20
17.499999999999972
 30
0.0
 11
149.99999999999997
 21
20.833333333333304
 31
0.0
  0
LINE
  5
198
100
AcDbEntity
100
AcDbLine
  8
Flange Etch
 62
256
370
-1
  6
ByLayer
 10
149.99999999999997
 20
20.833333333333304
 30
0.0
 11
151.38888888888886
 21
20.833333333333304
 31
0.0
  0
ARC
  5
199
100
AcDbEntity
  8
Flange Etch
 62
256
370
-1
  6
ByLayer
100
AcDbCircle
 10
151.38888888888886
 20
19.999999999999972
 30
0.0
 40
0.8333333333333334
100
AcDbArc
 50
0.0
 51
90.0
  0
LINE
  5
19A
100
AcDbEntity
100
AcDbLine
  8
Flange Etch
 62
256
370
-1
  6
ByLayer
 10
152.2222222222222
 20
19.999999999999972
 30
0.0
 11
152.2222222222222
 21
17.499999999999972
 31
0.0
  0
LINE
  5
19B
100
AcDbEntity
100
AcDbLine
  8
Flange Etch
 62
256
370
-1
  6
ByLayer
 10
153.88888888888886
 20
15.833333333333306
 30
0.0
 11
155.27777777777774
 21
15.833333333333306
 31
0.0
  0
ARC
  5
19C
100
AcDbEntity
  8
Flange Etch
 62
256
370
-1
  6
ByLayer
100
AcDbCircle
 10
155.27777777777774
 20
16.666666666666639
 30
0.0
 40
0.8333333333333334
100
AcDbArc
 50
270.0
 51
0.0
  0
LINE
  5
19D
100
AcDbEntity
100
AcDbLine
  8
Flange Etch
 62
256
370
-1
  6
ByLayer
 10
156.11111111111109
 20
16.666666666666639
 30
0.0
 11
156.11111111111109
 21
20.833333333333304
 31
0.0
  0
LINE
  5
19E
100
AcDbEntity
100
AcDbLine
  8
Flange Etch
 62
256
370
-1
  6
ByLayer
 10
156.11111111111109
 20
20.833333333333304
 30
0.0
 11
154.7222222222222
 21
20.833333333333304
 31
0.0
  0
ARC
  5
19F
100
AcDbEntity
  8
Flange Etch
 62
256
370
-1
  6
ByLayer
100
AcDbCircle
 10
154.7222222222222
 20
19.999999999999972
 30
0.0
 40
0.8333333333333334
100
AcDbArc
 50
90.0
 51
180.0
  0
LINE
  5
1A0
100
AcDbEntity
100
AcDbLine
  8
Flange Etch
 62
256
370
-1
  6
ByLayer
 10
153.88888888888886
 20
19.999999999999972
 30
0.0
 11
153.88888888888886
 21
18.333333333333304
 31
0.0
  0
ARC
  5
1A1
100
AcDbEntity
  8
Flange Etch
 62
256
370
-1
  6
ByLayer
100
AcDbCircle
 10
154.7222222222222
 20
18.333333333333304
 30
0.0
 40
0.8333333333333334
100
AcDbArc
 50
180.0
 51
270.0
  0
LINE
  5
1A2
100
AcDbEntity
100
AcDbLine
  8
Flange Etch
 62
256
370
-1
  6
ByLayer
 10
154.7222222222222
 20
17.499999999999972
 30
0.0
 11
156.11111111111109
 21
17.499999999999972
 31
0.0
  0
LINE
  5
1A3
100
AcDbEntity
100
AcDbLine
  8
Flange Etch
 62
256
370
-1
  6
ByLayer
 10
157.77777777777774
 20
19.166666666666643
 30
0.0
 11
159.99999999999997
 21
19.166666666666643
 31
0.0
  0
LINE
  5
1A4
100
AcDbEntity
100
AcDbLine
  8
Flange Etch
 62
256
370
-1
  6
ByLayer
 10
159.99999999999997
 20
19.166666666666643
 30
0.0
 11
159.99999999999997
 21
19.722222222222197
 31
0.0
  0
ARC
  5
1A5
100
AcDbEntity
  8
Flange Etch
 62
256
370
-1
  6
ByLayer
100
AcDbCircle
 10
158.88888888888886
 20
19.722222222222197
 30
0.0
 40
1.1111111111111112
100
AcDbArc
 50
0.0
 51
180.0
  0
LINE
  5
1A6
100
AcDbEntity
100
AcDbLine
  8
Flange Etch
 62
256
370
-1
  6
ByLayer
 10
157.77777777777774
 20
19.722222222222197
 30
0.0
 11
157.77777777777774
 21
18.333333333333307
 31
0.0
  0
ARC
  5
1A7
100
AcDbEntity
  8
Flange Etch
 62
256
370
-1
  6
ByLayer
100
AcDbCircle
 10
158.61111111111109
 20
18.333333333333307
 30
0.0
 40
0.8333333333333334
100
AcDbArc
 50
180.0
 51
270.0
  0
LINE
  5
1A8
100
AcDbEntity
100
AcDbLine
  8
Flange Etch
 62
256
370
-1
  6
ByLayer
 10
158.61111111111109
 20
17.499999999999975
 30
0.0
 11
159.99999999999997
 21
17.499999999999975
 31
0.0
  0
LINE
  5
1A9
100
AcDbEntity
100
AcDbLine
  8
0
 62
256
370
-1
  6
ByLayer
 10
145.0
 20
215.65060821474776
 30
0.0
 11
140.0
 21
215.65060821474779
 31
0.0
  0
LINE
  5
1AA
100
AcDbEntity
100
AcDbLine
  8
0
 62
256
370
-1
  6
ByLayer
 10
155.0
 20
215.65060821474776
 30
0.0
 11
160.0
 21
215.65060821474773
 31
0.0
  0
LINE
  5
1AB
100
AcDbEntity
100
AcDbLine
  8
0
 62
256
370
-1
  6
ByLayer
 10
145.0
 20
211.15060821474776
 30
0.0
 11
140.0
 21
211.15060821474779
 31
0.0
  0
LINE
  5
1AC
100
AcDbEntity
100
AcDbLine
  8
0
 62
256
370
-1
  6
ByLayer
 10
155.0
 20
211.15060821474776
 30
0.0
 11
160.0
 21
211.15060821474773
 31
0.0
  0
LINE
  5
1AD
100
AcDbEntity
100
AcDbLine
  8
0
 62
256
370
-1
  6
ByLayer
 10
140.0
 20
215.65060821474779
 30
0.0
 11
140.0
 21
211.15060821474779
 31
0.0
  0
LINE
  5
1AE
100
AcDbEntity
100
AcDbLine
  8
0
 62
256
370
-1
  6
ByLayer
 10
160.0
 20
215.65060821474773
 30
0.0
 11
160.0
 21
211.15060821474773
 31
0.0
  0
LINE
  5
1AF
100
AcDbEntity
100
AcDbLine
  8
0
 62
256
370
-1
  6
ByLayer
 10
145.0
 20
215.65060821474776
 30
0.0
 11
145.0
 21
213.47560821474775
 31
0.0
  0
LINE
  5
1B0
100
AcDbEntity
100
AcDbLine
  8
0
 62
256
370
-1
  6
ByLayer
 10
145.0
 20
213.32560821474777
 30
0.0
 11
145.0
 21
211.15060821474776
 31
0.0
  0
LINE
  5
1B1
100
AcDbEntity
100
AcDbLine
  8
0
 62
256
370
-1
  6
ByLayer
 10
145.0
 20
213.32560821474777
 30
0.0
 11
148.50187617334214
 21
213.32560821474777
 31
0.0
  0
LINE
  5
1B2
100
AcDbEntity
100
AcDbLine
  8
0
 62
256
370
-1
  6
ByLayer
 10
145.0
 20
213.47560821474775
 30
0.0
 11
148.50187617334214
 21
213.47560821474775
 31
0.0
  0
LINE
  5
1B3
100
AcDbEntity
100
AcDbLine
  8
0
 62
256
370
-1
  6
ByLayer
 10
151.49812382665786
 20
213.47560821474775
 30
0.0
 11
155.0
 21
213.47560821474775
 31
0.0
  0
LINE
  5
1B4
100
AcDbEntity
100
AcDbLine
  8
0
 62
256
370
-1
  6
ByLayer
 10
151.49812382665786
 20
213.32560821474777
 30
0.0
 11
155.0
 21
213.32560821474777
 31
0.0
  0
ARC
  5
1B5
100
AcDbEntity
  8
0
 62
256
370
-1
  6
ByLayer
100
AcDbCircle
 10
150.0
 20
213.40060821474776
 30
0.0
 40
1.5
100
AcDbArc
 50
182.86598398259872
 51
357.134016017401
  0
ARC
  5
1B6
100
AcDbEntity
  8
0
 62
256
370
-1
  6
ByLayer
100
AcDbCircle
 10
150.0
 20
213.40060821474776
 30
0.0
 40
1.5
100
AcDbArc
 50
2.8659839825987761
 51
177.13401601740108
  0
LINE
  5
1B7
100
AcDbEntity
100
AcDbLine
  8
0
 62
256
370
-1
  6
ByLayer
 10
155.0
 20
215.65060821474776
 30
0.0
 11
155.0
 21
213.47560821474775
 31
0.0
  0
LINE
  5
1B8
100
AcDbEntity
100
AcDbLine
  8
0
 62
256
370
-1
  6
ByLayer
 10
155.0
 20
213.32560821474777
 30
0.0
 11
155.0
 21
211.15060821474776
 31
0.0
  0
LINE
  5
1B9
100
AcDbEntity
100
AcDbLine
  8
0
 62
256
370
-1
  6
ByLayer
 10
90.644905512129071
 20
178.4951770884517
 30
0.0
 11
88.144905512129071
 21
174.16505006952951
 31
0.0
  0
LINE
  5
1BA
100
AcDbEntity
100
AcDbLine
  8
0
 62
256
370
-1
  6
ByLayer
 10
95.6449055121291
 20
187.15543112629607
 30
0.0
 11
98.1449055121291
 21
191.48555814521825
 31
0.0
  0
LINE
  5
1BB
100
AcDbEntity
100
AcDbLine
  8
0
 62
256
370
-1
  6
ByLayer
 10
94.542019829159045
 20
176.2451770884517
 30
0.0
 11
92.042019829159031
 21
171.91505006952949
 31
0.0
  0
LINE
  5
1BC
100
AcDbEntity
100
AcDbLine
  8
0
 62
256
370
-1
  6
ByLayer
 10
99.542019829159059
 20
184.90543112629607
 30
0.0
 11
102.04201982915907
 21
189.23555814521825
 31
0.0
  0
LINE
  5
1BD
100
AcDbEntity
100
AcDbLine
  8
0
 62
256
370
-1
  6
ByLayer
 10
88.144905512129071
 20
174.16505006952951
 30
0.0
 11
92.042019829159031
 21
171.91505006952949
 31
0.0
  0
LINE
  5
1BE
100
AcDbEntity
100
AcDbLine
  8
0
 62
256
370
-1
  6
ByLayer
 10
98.1449055121291
 20
191.48555814521825
 30
0.0
 11
102.04201982915907
 21
189.23555814521825
 31
0.0
  0
LINE
  5
1BF
100
AcDbEntity
100
AcDbLine
  8
0
 62
256
370
-1
  6
ByLayer
 10
90.644905512129071
 20
178.4951770884517
 30
0.0
 11
92.528510765360238
 21
177.40767708845169
 31
0.0
  0
LINE
  5
1C0
100
AcDbEntity
100
AcDbLine
  8
0
 62
256
370
-1
  6
ByLayer
 10
92.658414575927878
 20
177.3326770884517
 30
0.0
 11
94.542019829159045
 21
176.2451770884517
 31
0.0
  0
LINE
  5
1C1
100
AcDbEntity
100
AcDbLine
  8
0
 62
256
370
-1
  6
ByLayer
 10
92.658414575927878
 20
177.3326770884517
 30
0.0
 11
94.409352662598963
 21
180.36539081547343
 31
0.0
  0
LINE
  5
1C2
100
AcDbEntity
100
AcDbLine
  8
0
 62
256
370
-1
  6
ByLayer
 10
92.528510765360238
 20
177.40767708845169
 30
0.0
 11
94.279448852031308
 21
180.44039081547342
 31
0.0
  0
LINE
  5
1C3
100
AcDbEntity
100
AcDbLine
  8
0
 62
256
370
-1
  6
ByLayer
 10
95.777572678689182
 20
183.03521739927433
 30
0.0
 11
97.528510765360252
 21
186.06793112629606
 31
0.0
  0
LINE
  5
1C4
100
AcDbEntity
100
AcDbLine
  8
0
 62
256
370
-1
  6
ByLayer
 10
95.907476489256823
 20
182.96021739927434
 30
0.0
 11
97.658414575927907
 21
185.99293112629607
 31
0.0
  0
ARC
  5
1C5
100
AcDbEntity
  8
0
 62
256
370
-1
  6
ByLayer
100
AcDbCircle
 10
95.093462670644072
 20
181.70030410737388
 30
0.0
 40
1.5
100
AcDbArc
 50
242.86598398259875
 51
57.134016017401002
  0
ARC
  5
1C6
100
AcDbEntity
  8
0
 62
256
370
-1
  6
ByLayer
100
AcDbCircle
 10
95.093462670644072
 20
181.70030410737388
 30
0.0
 40
1.5
100
AcDbArc
 50
62.865983982598749
 51
237.134016017401
  0
LINE
  5
1C7
100
AcDbEntity
100
AcDbLine
  8
0
 62
256
370
-1
  6
ByLayer
 10
95.6449055121291
 20
187.15543112629607
 30
0.0
 11
97.528510765360252
 21
186.06793112629606
 31
0.0
  0
LINE
  5
1C8
100
AcDbEntity
100
AcDbLine
  8
0
 62
256
370
-1
  6
ByLayer
 10
97.658414575927907
 20
185.99293112629607
 30
0.0
 11
99.542019829159059
 21
184.90543112629607
 31
0.0
  0
LINE
  5
1C9
100
AcDbEntity
100
AcDbLine
  8
0
 62
256
370
-1
  6
ByLayer
 10
95.644905512129029
 20
112.84456887370392
 30
0.0
 11
98.144905512129014
 21
108.51444185478172
 31
0.0
  0
LINE
  5
1CA
100
AcDbEntity
100
AcDbLine
  8
0
 62
256
370
-1
  6
ByLayer
 10
90.644905512129057
 20
121.50482291154832
 30
0.0
 11
88.144905512129071
 21
125.83494993047051
 31
0.0
  0
LINE
  5
1CB
100
AcDbEntity
100
AcDbLine
  8
0
 62
256
370
-1
  6
ByLayer
 10
99.542019829159017
 20
115.09456887370391
 30
0.0
 11
102.042019829159
 21
110.76444185478171
 31
0.0
  0
LINE
  5
1CC
100
AcDbEntity
100
AcDbLine
  8
0
 62
256
370
-1
  6
ByLayer
 10
94.542019829159031
 20
123.7548229115483
 30
0.0
 11
92.042019829159045
 21
128.08494993047051
 31
0.0
  0
LINE
  5
1CD
100
AcDbEntity
100
AcDbLine
  8
0
 62
256
370
-1
  6
ByLayer
 10
98.144905512129014
 20
108.51444185478172
 30
0.0
 11
102.042019829159
 21
110.76444185478171
 31
0.0
  0
LINE
  5
1CE
100
AcDbEntity
100
AcDbLine
  8
0
 62
256
370
-1
  6
ByLayer
 10
88.144905512129071
 20
125.83494993047051
 30
0.0
 11
92.042019829159045
 21
128.08494993047051
 31
0.0
  0
LINE
  5
1CF
100
AcDbEntity
100
AcDbLine
  8
0
 62
256
370
-1
  6
ByLayer
 10
95.644905512129029
 20
112.84456887370392
 30
0.0
 11
97.528510765360181
 21
113.93206887370391
 31
0.0
  0
LINE
  5
1D0
100
AcDbEntity
100
AcDbLine
  8
0
 62
256
370
-1
  6
ByLayer
 10
97.65841457592785
 20
114.00706887370391
 30
0.0
 11
99.542019829159017
 21
115.09456887370391
 31
0.0
  0
LINE
  5
1D1
100
AcDbEntity
100
AcDbLine
  8
0
 62
256
370
-1
  6
ByLayer
 10
97.65841457592785
 20
114.00706887370391
 30
0.0
 11
95.907476489256794
 21
117.03978260072564
 31
0.0
  0
LINE
  5
1D2
100
AcDbEntity
100
AcDbLine
  8
0
 62
256
370
-1
  6
ByLayer
 10
97.528510765360181
 20
113.93206887370391
 30
0.0
 11
95.777572678689125
 21
116.96478260072566
 31
0.0
  0
LINE
  5
1D3
100
AcDbEntity
100
AcDbLine
  8
0
 62
256
370
-1
  6
ByLayer
 10
94.279448852031265
 20
119.55960918452658
 30
0.0
 11
92.52851076536021
 21
122.59232291154831
 31
0.0
  0
LINE
  5
1D4
100
AcDbEntity
100
AcDbLine
  8
0
 62
256
370
-1
  6
ByLayer
 10
94.409352662598948
 20
119.63460918452658
 30
0.0
 11
92.658414575927878
 21
122.66732291154831
 31
0.0
  0
ARC
  5
1D5
100
AcDbEntity
  8
0
 62
256
370
-1
  6
ByLayer
100
AcDbCircle
 10
95.09346267064403
 20
118.29969589262612
 30
0.0
 40
1.5
100
AcDbArc
 50
302.86598398259866
 51
117.13401601740104
  0
ARC
  5
1D6
100
AcDbEntity
  8
0
 62
256
370
-1
  6
ByLayer
100
AcDbCircle
 10
95.09346267064403
 20
118.29969589262612
 30
0.0
 40
1.5
100
AcDbArc
 50
122.86598398259872
 51
297.13401601740105
  0
LINE
  5
1D7
100
AcDbEntity
100
AcDbLine
  8
0
 62
256
370
-1
  6
ByLayer
 10
90.644905512129057
 20
121.50482291154832
 30
0.0
 11
92.52851076536021
 21
122.59232291154831
 31
0.0
  0
LINE
  5
1D8
100
AcDbEntity
100
AcDbLine
  8
0
 62
256
370
-1
  6
ByLayer
 10
92.658414575927878
 20
122.66732291154831
 30
0.0
 11
94.542019829159031
 21
123.7548229115483
 31
0.0
  0
LINE
  5
1D9
100
AcDbEntity
100
AcDbLine
  8
0
 62
256
370
-1
  6
ByLayer
 10
155.0
 20
84.34939178525218
 30
0.0
 11
160.0
 21
84.34939178525218
 31
0.0
  0
LINE
  5
1DA
100
AcDbEntity
100
AcDbLine
  8
0
 62
256
370
-1
  6
ByLayer
 10
145.0
 20
84.349391785252209
 30
0.0
 11
140.0
 21
84.349391785252209
 31
0.0
  0
LINE
  5
1DB
100
AcDbEntity
100
AcDbLine
  8
0
 62
256
370
-1
  6
ByLayer
 10
155.0
 20
88.84939178525218
 30
0.0
 11
160.0
 21
88.84939178525218
 31
0.0
  0
LINE
  5
1DC
100
AcDbEntity
100
AcDbLine
  8
0
 62
256
370
-1
  6
ByLayer
 10
145.0
 20
88.849391785252209
 30
0.0
 11
140.0
 21
88.849391785252223
 31
0.0
  0
LINE
  5
1DD
100
AcDbEntity
100
AcDbLine
  8
0
 62
256
370
-1
  6
ByLayer
 10
160.0
 20
84.34939178525218
 30
0.0
 11
160.0
 21
88.84939178525218
 31
0.0
  0
LINE
  5
1DE
100
AcDbEntity
100
AcDbLine
  8
0
 62
256
370
-1
  6
ByLayer
 10
140.0
 20
84.349391785252209
 30
0.0
 11
140.0
 21
88.849391785252223
 31
0.0
  0
LINE
  5
1DF
100
AcDbEntity
100
AcDbLine
  8
0
 62
256
370
-1
  6
ByLayer
 10
155.0
 20
84.34939178525218
 30
0.0
 11
155.0
 21
86.524391785252178
 31
0.0
  0
LINE
  5
1E0
100
AcDbEntity
100
AcDbLine
  8
0
 62
256
370
-1
  6
ByLayer
 10
155.0
 20
86.674391785252183
 30
0.0
 11
155.0
 21
88.84939178525218
 31
0.0
  0
LINE
  5
1E1
100
AcDbEntity
100
AcDbLine
  8
0
 62
256
370
-1
  6
ByLayer
 10
155.0
 20
86.674391785252183
 30
0.0
 11
151.49812382665786
 21
86.674391785252197
 31
0.0
  0
LINE
  5
1E2
100
AcDbEntity
100
AcDbLine
  8
0
 62
256
370
-1
  6
ByLayer
 10
155.0
 20
86.524391785252178
 30
0.0
 11
151.49812382665786
 21
86.524391785252192
 31
0.0
  0
LINE
  5
1E3
100
AcDbEntity
100
AcDbLine
  8
0
 62
256
370
-1
  6
ByLayer
 10
148.50187617334214
 20
86.524391785252192
 30
0.0
 11
145.0
 21
86.524391785252206
 31
0.0
  0
LINE
  5
1E4
100
AcDbEntity
100
AcDbLine
  8
0
 62
256
370
-1
  6
ByLayer
 10
148.50187617334214
 20
86.674391785252197
 30
0.0
 11
145.0
 21
86.674391785252212
 31
0.0
  0
ARC
  5
1E5
100
AcDbEntity
  8
0
 62
256
370
-1
  6
ByLayer
100
AcDbCircle
 10
150.0
 20
86.599391785252195
 30
0.0
 40
1.5
100
AcDbArc
 50
2.865983982598725
 51
177.13401601740097
  0
ARC
  5
1E6
100
AcDbEntity
  8
0
 62
256
370
-1
  6
ByLayer
100
AcDbCircle
 10
150.0
 20
86.599391785252195
 30
0.0
 40
1.5
100
AcDbArc
 50
182.86598398259875
 51
357.13401601740105
  0
LINE
  5
1E7
100
AcDbEntity
100
AcDbLine
  8
0
 62
256
370
-1
  6
ByLayer
 10
145.0
 20
84.349391785252209
 30
0.0
 11
145.0
 21
86.524391785252206
 31
0.0
  0
LINE
  5
1E8
100
AcDbEntity
100
AcDbLine
  8
0
 62
256
370
-1
  6
ByLayer
 10
145.0
 20
86.674391785252212
 30
0.0
 11
145.0
 21
88.849391785252209
 31
0.0
  0
LINE
  5
1E9
100
AcDbEntity
100
AcDbLine
  8
0
 62
256
370
-1
  6
ByLayer
 10
209.3550944878709
 20
121.50482291154822
 30
0.0
 11
211.8550944878709
 21
125.83494993047042
 31
0.0
  0
LINE
  5
1EA
100
AcDbEntity
100
AcDbLine
  8
0
 62
256
370
-1
  6
ByLayer
 10
204.3550944878709
 20
112.84456887370385
 30
0.0
 11
201.8550944878709
 21
108.51444185478165
 31
0.0
  0
LINE
  5
1EB
100
AcDbEntity
100
AcDbLine
  8
0
 62
256
370
-1
  6
ByLayer
 10
205.45798017084093
 20
123.75482291154823
 30
0.0
 11
207.95798017084093
 21
128.08494993047043
 31
0.0
  0
LINE
  5
1EC
100
AcDbEntity
100
AcDbLine
  8
0
 62
256
370
-1
  6
ByLayer
 10
200.45798017084093
 20
115.09456887370385
 30
0.0
 11
197.95798017084093
 21
110.76444185478167
 31
0.0
  0
LINE
  5
1ED
100
AcDbEntity
100
AcDbLine
  8
0
 62
256
370
-1
  6
ByLayer
 10
211.8550944878709
 20
125.83494993047042
 30
0.0
 11
207.95798017084093
 21
128.08494993047043
 31
0.0
  0
LINE
  5
1EE
100
AcDbEntity
100
AcDbLine
  8
0
 62
256
370
-1
  6
ByLayer
 10
201.8550944878709
 20
108.51444185478165
 30
0.0
 11
197.95798017084093
 21
110.76444185478167
 31
0.0
  0
LINE
  5
1EF
100
AcDbEntity
100
AcDbLine
  8
0
 62
256
370
-1
  6
ByLayer
 10
209.3550944878709
 20
121.50482291154822
 30
0.0
 11
207.47148923463976
 21
122.59232291154822
 31
0.0
  0
LINE
  5
1F0
100
AcDbEntity
100
AcDbLine
  8
0
 62
256
370
-1
  6
ByLayer
 10
207.34158542407209
 20
122.66732291154823
 30
0.0
 11
205.45798017084093
 21
123.75482291154823
 31
0.0
  0
LINE
  5
1F1
100
AcDbEntity
100
AcDbLine
  8
0
 62
256
370
-1
  6
ByLayer
 10
207.34158542407209
 20
122.66732291154823
 30
0.0
 11
205.59064733740101
 21
119.6346091845265
 31
0.0
  0
LINE
  5
1F2
100
AcDbEntity
100
AcDbLine
  8
0
 62
256
370
-1
  6
ByLayer
 10
207.47148923463976
 20
122.59232291154822
 30
0.0
 11
205.72055114796868
 21
119.55960918452649
 31
0.0
  0
LINE
  5
1F3
100
AcDbEntity
100
AcDbLine
  8
0
 62
256
370
-1
  6
ByLayer
 10
204.22242732131082
 20
116.96478260072557
 30
0.0
 11
202.47148923463973
 21
113.93206887370384
 31
0.0
  0
LINE
  5
1F4
100
AcDbEntity
100
AcDbLine
  8
0
 62
256
370
-1
  6
ByLayer
 10
204.09252351074315
 20
117.03978260072557
 30
0.0
 11
202.34158542407206
 21
114.00706887370384
 31
0.0
  0
ARC
  5
1F5
100
AcDbEntity
  8
0
 62
256
370
-1
  6
ByLayer
100
AcDbCircle
 10
204.90653732935593
 20
118.29969589262603
 30
0.0
 40
1.5
100
AcDbArc
 50
62.865983982598756
 51
237.13401601740111
  0
ARC
  5
1F6
100
AcDbEntity
  8
0
 62
256
370
-1
  6
ByLayer
100
AcDbCircle
 10
204.90653732935593
 20
118.29969589262603
 30
0.0
 40
1.5
100
AcDbArc
 50
242.86598398259881
 51
57.134016017401102
  0
LINE
  5
1F7
100
AcDbEntity
100
AcDbLine
  8
0
 62
256
370
-1
  6
ByLayer
 10
204.3550944878709
 20
112.84456887370385
 30
0.0
 11
202.47148923463973
 21
113.93206887370384
 31
0.0
  0
LINE
  5
1F8
100
AcDbEntity
100
AcDbLine
  8
0
 62
256
370
-1
  6
ByLayer
 10
202.34158542407206
 20
114.00706887370384
 30
0.0
 11
200.45798017084093
 21
115.09456887370385
 31
0.0
  0
LINE
  5
1F9
100
AcDbEntity
100
AcDbLine
  8
0
 62
256
370
-1
  6
ByLayer
 10
204.35509448787096
 20
187.15543112629604
 30
0.0
 11
201.85509448787099
 21
191.48555814521822
 31
0.0
  0
LINE
  5
1FA
100
AcDbEntity
100
AcDbLine
  8
0
 62
256
370
-1
  6
ByLayer
 10
209.35509448787096
 20
178.49517708845161
 30
0.0
 11
211.85509448787093
 21
174.16505006952943
 31
0.0
  0
LINE
  5
1FB
100
AcDbEntity
100
AcDbLine
  8
0
 62
256
370
-1
  6
ByLayer
 10
200.45798017084098
 20
184.90543112629604
 30
0.0
 11
197.95798017084101
 21
189.23555814521822
 31
0.0
  0
LINE
  5
1FC
100
AcDbEntity
100
AcDbLine
  8
0
 62
256
370
-1
  6
ByLayer
 10
205.45798017084095
 20
176.24517708845164
 30
0.0
 11
207.95798017084095
 21
171.91505006952943
 31
0.0
  0
LINE
  5
1FD
100
AcDbEntity
100
AcDbLine
  8
0
 62
256
370
-1
  6
ByLayer
 10
201.85509448787099
 20
191.48555814521822
 30
0.0
 11
197.95798017084101
 21
189.23555814521822
 31
0.0
  0
LINE
  5
1FE
100
AcDbEntity
100
AcDbLine
  8
0
 62
256
370
-1
  6
ByLayer
 10
211.85509448787093
 20
174.16505006952943
 30
0.0
 11
207.95798017084095
 21
171.91505006952943
 31
0.0
  0
LINE
  5
1FF
100
AcDbEntity
100
AcDbLine
  8
0
 62
256
370
-1
  6
ByLayer
 10
204.35509448787096
 20
187.15543112629604
 30
0.0
 11
202.47148923463979
 21
186.06793112629603
 31
0.0
  0
LINE
  5
200
100
AcDbEntity
100
AcDbLine
  8
0
 62
256
370
-1
  6
ByLayer
 10
202.34158542407215
 20
185.99293112629604
 30
0.0
 11
200.45798017084098
 21
184.90543112629604
 31
0.0
  0
LINE
  5
201
100
AcDbEntity
100
AcDbLine
  8
0
 62
256
370
-1
  6
ByLayer
 10
202.34158542407215
 20
185.99293112629604
 30
0.0
 11
204.09252351074321
 21
182.96021739927428
 31
0.0
  0
LINE
  5
202
100
AcDbEntity
100
AcDbLine
  8
0
 62
256
370
-1
  6
ByLayer
 10
202.47148923463979
 20
186.06793112629603
 30
0.0
 11
204.22242732131087
 21
183.03521739927427
 31
0.0
  0
LINE
  5
203
100
AcDbEntity
100
AcDbLine
  8
0
 62
256
370
-1
  6
ByLayer
 10
205.72055114796871
 20
180.44039081547336
 30
0.0
 11
207.47148923463979
 21
177.40767708845163
 31
0.0
  0
LINE
  5
204
100
AcDbEntity
100
AcDbLine
  8
0
 62
256
370
-1
  6
ByLayer
 10
205.59064733740107
 20
180.36539081547338
 30
0.0
 11
207.34158542407212
 21
177.33267708845165
 31
0.0
  0
ARC
  5
205
100
AcDbEntity
  8
0
 62
256
370
-1
  6
ByLayer
100
AcDbCircle
 10
204.90653732935596
 20
181.70030410737382
 30
0.0
 40
1.5
100
AcDbArc
 50
122.86598398259869
 51
297.13401601740105
  0
ARC
  5
206
100
AcDbEntity
  8
0
 62
256
370
-1
  6
ByLayer
100
AcDbCircle
 10
204.90653732935596
 20
181.70030410737382
 30
0.0
 40
1.5
100
AcDbArc
 50
302.86598398259872
 51
117.13401601740104
  0
LINE
  5
207
100
AcDbEntity
100
AcDbLine
  8
0
 62
256
370
-1
  6
ByLayer
 10
209.35509448787096
 20
178.49517708845161
 30
0.0
 11
207.47148923463979
 21
177.40767708845163
 31
0.0
  0
LINE
  5
208
100
AcDbEntity
100
AcDbLine
  8
0
 62
256
370
-1
  6
ByLayer
 10
207.34158542407212
 20
177.33267708845165
 30
0.0
 11
205.45798017084095
 21
176.24517708845164
 31
0.0
  0
LINE
  5
209
100
AcDbEntity
100
AcDbLine
  8
0
 62
256
370
-1
  6
ByLayer
 10
333.9999999999996
 20
148.50000000000003
 30
0.0
 11
333.9999999999996
 21
151.50000000000003
 31
0.0
  0
LINE
  5
20A
100
AcDbEntity
100
AcDbLine
  8
0
 62
256
370
-1
  6
ByLayer
 10
317.9999999999996
 20
140.00000000000003
 30
0.0
 11
322.4999999999996
 21
140.00000000000003
 31
0.0
  0
ARC
  5
20B
100
AcDbEntity
  8
0
 62
256
370
-1
  6
ByLayer
100
AcDbCircle
 10
317.9999999999996
 20
140.50000000000003
 30
0.0
 40
0.5
100
AcDbArc
 50
180.0
 51
270.0
  0
LINE
  5
20C
100
AcDbEntity
100
AcDbLine
  8
0
 62
256
370
-1
  6
ByLayer
 10
317.4999999999996
 20
144.50000000000003
 30
0.0
 11
317.4999999999996
 21
140.50000000000003
 31
0.0
  0
LINE
  5
20D
100
AcDbEntity
100
AcDbLine
  8
0
 62
256
370
-1
  6
ByLayer
 10
322.4999999999996
 20
145.00000000000003
 30
0.0
 11
317.9999999999996
 21
145.00000000000003
 31
0.0
  0
ARC
  5
20E
100
AcDbEntity
  8
0
 62
256
370
-1
  6
ByLayer
100
AcDbCircle
 10
317.9999999999996
 20
144.50000000000003
 30
0.0
 40
0.5
100
AcDbArc
 50
90.0
 51
180.0
  0
LINE
  5
20F
100
AcDbEntity
100
AcDbLine
  8
0
 62
256
370
-1
  6
ByLayer
 10
322.4999999999996
 20
148.00000000000003
 30
0.0
 11
322.4999999999996
 21
145.00000000000003
 31
0.0
  0
ARC
  5
210
100
AcDbEntity
  8
0
 62
256
370
-1
  6
ByLayer
100
AcDbCircle
 10
322.9999999999996
 20
148.00000000000003
 30
0.0
 40
0.5
100
AcDbArc
 50
90.0
 51
179.99999999999994
  0
LINE
  5
211
100
AcDbEntity
100
AcDbLine
  8
0
 62
256
370
-1
  6
ByLayer
 10
322.4999999999996
 20
152.00000000000003
 30
0.0
 11
322.4999999999996
 21
155.00000000000003
 31
0.0
  0
ARC
  5
212
100
AcDbEntity
  8
0
 62
256
370
-1
  6
ByLayer
100
AcDbCircle
 10
322.9999999999996
 20
152.00000000000003
 30
0.0
 40
0.5
100
AcDbArc
 50
180.00000000000006
 51
270.0
  0
LINE
  5
213
100
AcDbEntity
100
AcDbLine
  8
0
 62
256
370
-1
  6
ByLayer
 10
322.4999999999996
 20
155.00000000000003
 30
0.0
 11
317.9999999999996
 21
155.00000000000003
 31
0.0
  0
ARC
  5
214
100
AcDbEntity
  8
0
 62
256
370
-1
  6
ByLayer
100
AcDbCircle
 10
317.9999999999996
 20
155.50000000000003
 30
0.0
 40
0.5
100
AcDbArc
 50
180.0
 51
270.0
  0
LINE
  5
215
100
AcDbEntity
100
AcDbLine
  8
0
 62
256
370
-1
  6
ByLayer
 10
317.4999999999996
 20
155.50000000000003
 30
0.0
 11
317.4999999999996
 21
159.50000000000003
 31
0.0
  0
LINE
  5
216
100
AcDbEntity
100
AcDbLine
  8
0
 62
256
370
-1
  6
ByLayer
 10
317.9999999999996
 20
160.00000000000003
 30
0.0
 11
322.4999999999996
 21
160.00000000000003
 31
0.0
  0
ARC
  5
217
100
AcDbEntity
  8
0
 62
256
370
-1
  6
ByLayer
100
AcDbCircle
 10
317.9999999999996
 20
159.50000000000003
 30
0.0
 40
0.5
100
AcDbArc
 50
90.0
 51
180.0
  0
LINE
  5
218
100
AcDbEntity
100
AcDbLine
  8
0
 62
256
370
-1
  6
ByLayer
 10
332.9999999999996
 20
147.14000000000001
 30
0.0
 11
332.9999999999996
 21
148.00000000000003
 31
0.0
  0
LINE
  5
219
100
AcDbEntity
100
AcDbLine
  8
0
 62
256
370
-1
  6
ByLayer
 10
333.4999999999996
 20
148.50000000000003
 30
0.0
 11
333.9999999999996
 21
148.50000000000003
 31
0.0
  0
ARC
  5
21A
100
AcDbEntity
  8
0
 62
256
370
-1
  6
ByLayer
100
AcDbCircle
 10
333.4999999999996
 20
148.00000000000003
 30
0.0
 40
0.5
100
AcDbArc
 50
90.0
 51
180.0
  0
LINE
  5
21B
100
AcDbEntity
100
AcDbLine
  8
0
 62
256
370
-1
  6
ByLayer
 10
333.9999999999996
 20
151.50000000000003
 30
0.0
 11
333.4999999999996
 21
151.50000000000003
 31
0.0
  0
LINE
  5
21C
100
AcDbEntity
100
AcDbLine
  8
0
 62
256
370
-1
  6
ByLayer
 10
332.9999999999996
 20
152.00000000000003
 30
0.0
 11
332.9999999999996
 21
152.86000000000004
 31
0.0
  0
ARC
  5
21D
100
AcDbEntity
  8
0
 62
256
370
-1
  6
ByLayer
100
AcDbCircle
 10
333.4999999999996
 20
152.00000000000003
 30
0.0
 40
0.5
100
AcDbArc
 50
180.0000000000002
 51
270.0
  0
LINE
  5
21E
100
AcDbEntity
100
AcDbLine
  8
0
 62
256
370
-1
  6
ByLayer
 10
330.4999999999996
 20
147.14000000000001
 30
0.0
 11
332.9999999999996
 21
147.14000000000001
 31
0.0
  0
LINE
  5
21F
100
AcDbEntity
100
AcDbLine
  8
0
 62
256
370
-1
  6
ByLayer
 10
332.9999999999996
 20
152.86000000000004
 30
0.0
 11
330.4999999999996
 21
152.86000000000004
 31
0.0
  0
LINE
  5
220
100
AcDbEntity
100
AcDbLine
  8
0
 62
256
370
-1
  6
ByLayer
 10
330.4999999999996
 20
148.00000000000003
 30
0.0
 11
330.4999999999996
 21
147.14000000000001
 31
0.0
  0
LINE
  5
221
100
AcDbEntity
100
AcDbLine
  8
0
 62
256
370
-1
  6
ByLayer
 10
322.9999999999996
 20
148.50000000000003
 30
0.0
 11
329.9999999999996
 21
148.50000000000003
 31
0.0
  0
ARC
  5
222
100
AcDbEntity
  8
0
 62
256
370
-1
  6
ByLayer
100
AcDbCircle
 10
329.9999999999996
 20
148.00000000000003
 30
0.0
 40
0.5
100
AcDbArc
 50
359.99999999999983
 51
90.0
  0
LINE
  5
223
100
AcDbEntity
100
AcDbLine
  8
0
 62
256
370
-1
  6
ByLayer
 10
330.4999999999996
 20
152.86000000000004
 30
0.0
 11
330.4999999999996
 21
152.00000000000003
 31
0.0
  0
LINE
  5
224
100
AcDbEntity
100
AcDbLine
  8
0
 62
256
370
-1
  6
ByLayer
 10
329.9999999999996
 20
151.50000000000003
 30
0.0
 11
322.9999999999996
 21
151.50000000000003
 31
0.0
  0
ARC
  5
225
100
AcDbEntity
  8
0
 62
256
370
-1
  6
ByLayer
100
AcDbCircle
 10
329.9999999999996
 20
152.00000000000003
 30
0.0
 40
0.5
100
AcDbArc
 50
270.0
 51
359.99999999999983
  0
LINE
  5
226
100
AcDbEntity
100
AcDbLine
  8
0
 62
256
370
-1
  6
ByLayer
 10
400.99999999999955
 20
151.5
 30
0.0
 11
400.99999999999955
 21
148.50000000000003
 31
0.0
  0
LINE
  5
227
100
AcDbEntity
100
AcDbLine
  8
0
 62
256
370
-1
  6
ByLayer
 10
416.99999999999955
 20
160.0
 30
0.0
 11
412.49999999999955
 21
160.0
 31
0.0
  0
ARC
  5
228
100
AcDbEntity
  8
0
 62
256
370
-1
  6
ByLayer
100
AcDbCircle
 10
416.99999999999955
 20
159.5
 30
0.0
 40
0.5
100
AcDbArc
 50
360.0
 51
90.0
  0
LINE
  5
229
100
AcDbEntity
100
AcDbLine
  8
0
 62
256
370
-1
  6
ByLayer
 10
417.49999999999955
 20
155.5
 30
0.0
 11
417.49999999999955
 21
159.5
 31
0.0
  0
LINE
  5
22A
100
AcDbEntity
100
AcDbLine
  8
0
 62
256
370
-1
  6
ByLayer
 10
412.49999999999955
 20
155.0
 30
0.0
 11
416.99999999999955
 21
155.0
 31
0.0
  0
ARC
  5
22B
100
AcDbEntity
  8
0
 62
256
370
-1
  6
ByLayer
100
AcDbCircle
 10
416.99999999999955
 20
155.5
 30
0.0
 40
0.5
100
AcDbArc
 50
270.0
 51
360.0
  0
LINE
  5
22C
100
AcDbEntity
100
AcDbLine
  8
0
 62
256
370
-1
  6
ByLayer
 10
412.49999999999955
 20
152.0
 30
0.0
 11
412.49999999999955
 21
155.0
 31
0.0
  0
ARC
  5
22D
100
AcDbEntity
  8
0
 62
256
370
-1
  6
ByLayer
100
AcDbCircle
 10
411.99999999999955
 20
152.0
 30
0.0
 40
0.5
100
AcDbArc
 50
270.0
 51
359.99999999999994
  0
LINE
  5
22E
100
AcDbEntity
100
AcDbLine
  8
0
 62
256
370
-1
  6
ByLayer
 10
412.49999999999955
 20
148.0
 30
0.0
 11
412.49999999999955
 21
145.0
 31
0.0
  0
ARC
  5
22F
100
AcDbEntity
  8
0
 62
256
370
-1
  6
ByLayer
100
AcDbCircle
 10
411.99999999999955
 20
148.0
 30
0.0
 40
0.5
100
AcDbArc
 50
0.0000000000000509
 51
90.0
  0
LINE
  5
230
100
AcDbEntity
100
AcDbLine
  8
0
 62
256
370
-1
  6
ByLayer
 10
412.49999999999955
 20
145.0
 30
0.0
 11
416.99999999999955
 21
145.0
 31
0.0
  0
ARC
  5
231
100
AcDbEntity
  8
0
 62
256
370
-1
  6
ByLayer
100
AcDbCircle
 10
416.99999999999955
 20
144.5
 30
0.0
 40
0.5
100
AcDbArc
 50
360.0
 51
90.0
  0
LINE
  5
232
100
AcDbEntity
100
AcDbLine
  8
0
 62
256
370
-1
  6
ByLayer
 10
417.49999999999955
 20
144.5
 30
0.0
 11
417.49999999999955
 21
140.5
 31
0.0
  0
LINE
  5
233
100
AcDbEntity
100
AcDbLine
  8
0
 62
256
370
-1
  6
ByLayer
 10
416.99999999999955
 20
140.0
 30
0.0
 11
412.49999999999955
 21
140.0
 31
0.0
  0
ARC
  5
234
100
AcDbEntity
  8
0
 62
256
370
-1
  6
ByLayer
100
AcDbCircle
 10
416.99999999999955
 20
140.5
 30
0.0
 40
0.5
100
AcDbArc
 50
270.0
 51
360.0
  0
LINE
  5
235
100
AcDbEntity
100
AcDbLine
  8
0
 62
256
370
-1
  6
ByLayer
 10
401.99999999999955
 20
152.86000000000001
 30
0.0
 11
401.99999999999955
 21
152.0
 31
0.0
  0
LINE
  5
236
100
AcDbEntity
100
AcDbLine
  8
0
 62
256
370
-1
  6
ByLayer
 10
401.49999999999955
 20
151.5
 30
0.0
 11
400.99999999999955
 21
151.5
 31
0.0
  0
ARC
  5
237
100
AcDbEntity
  8
0
 62
256
370
-1
  6
ByLayer
100
AcDbCircle
 10
401.49999999999955
 20
152.0
 30
0.0
 40
0.5
100
AcDbArc
 50
270.0
 51
360.0
  0
LINE
  5
238
100
AcDbEntity
100
AcDbLine
  8
0
 62
256
370
-1
  6
ByLayer
 10
400.99999999999955
 20
148.50000000000003
 30
0.0
 11
401.49999999999955
 21
148.5
 31
0.0
  0
LINE
  5
239
100
AcDbEntity
100
AcDbLine
  8
0
 62
256
370
-1
  6
ByLayer
 10
401.99999999999955
 20
148.0
 30
0.0
 11
401.99999999999955
 21
147.13999999999999
 31
0.0
  0
ARC
  5
23A
100
AcDbEntity
  8
0
 62
256
370
-1
  6
ByLayer
100
AcDbCircle
 10
401.49999999999955
 20
148.0
 30
0.0
 40
0.5
100
AcDbArc
 50
0.0000000000002036
 51
90.0
  0
LINE
  5
23B
100
AcDbEntity
100
AcDbLine
  8
0
 62
256
370
-1
  6
ByLayer
 10
404.49999999999955
 20
152.86000000000001
 30
0.0
 11
401.99999999999955
 21
152.86000000000001
 31
0.0
  0
LINE
  5
23C
100
AcDbEntity
100
AcDbLine
  8
0
 62
256
370
-1
  6
ByLayer
 10
401.99999999999955
 20
147.13999999999999
 30
0.0
 11
404.49999999999955
 21
147.13999999999999
 31
0.0
  0
LINE
  5
23D
100
AcDbEntity
100
AcDbLine
  8
0
 62
256
370
-1
  6
ByLayer
 10
404.49999999999955
 20
152.0
 30
0.0
 11
404.49999999999955
 21
152.86000000000001
 31
0.0
  0
LINE
  5
23E
100
AcDbEntity
100
AcDbLine
  8
0
 62
256
370
-1
  6
ByLayer
 10
411.99999999999955
 20
151.5
 30
0.0
 11
404.99999999999955
 21
151.5
 31
0.0
  0
ARC
  5
23F
100
AcDbEntity
  8
0
 62
256
370
-1
  6
ByLayer
100
AcDbCircle
 10
404.99999999999955
 20
152.0
 30
0.0
 40
0.5
100
AcDbArc
 50
179.9999999999998
 51
270.0
  0
LINE
  5
240
100
AcDbEntity
100
AcDbLine
  8
0
 62
256
370
-1
  6
ByLayer
 10
404.49999999999955
 20
147.13999999999999
 30
0.0
 11
404.49999999999955
 21
148.0
 31
0.0
  0
LINE
  5
241
100
AcDbEntity
100
AcDbLine
  8
0
 62
256
370
-1
  6
ByLayer
 10
404.99999999999955
 20
148.5
 30
0.0
 11
411.99999999999955
 21
148.5
 31
0.0
  0
ARC
  5
242
100
AcDbEntity
  8
0
 62
256
370
-1
  6
ByLayer
100
AcDbCircle
 10
404.99999999999955
 20
148.0
 30
0.0
 40
0.5
100
AcDbArc
 50
90.0
 51
179.9999999999998
  0
LINE
  5
243
100
AcDbEntity
100
AcDbLine
  8
Flange
 62
256
370
-1
  6
ByLayer
 10
417.49999999999955
 20
155.49999999999994
 30
0.0
 11
417.49999999999955
 21
144.50000000000003
 31
0.0
  0
LINE
  5
244
100
AcDbEntity
100
AcDbLine
  8
Flange
 62
256
370
-1
  6
ByLayer
 10
317.49999999999955
 20
155.50000000000009
 30
0.0
 11
317.49999999999955
 21
144.50000000000031
 31
0.0
  0
CIRCLE
  5
245
100
AcDbEntity
100
AcDbCircle
  8
Flange
 62
256
370
-1
  6
ByLayer
 10
409.5
 20
190.49999999999997
 30
0.0
 40
1.5
  0
CIRCLE
  5
246
100
AcDbEntity
100
AcDbCircle
  8
Flange
 62
256
370
-1
  6
ByLayer
 10
409.5
 20
109.49999999999997
 30
0.0
 40
1.5
  0
CIRCLE
  5
247
100
AcDbEntity
100
AcDbCircle
  8
Flange
 62
256
370
-1
  6
ByLayer
 10
490.50000000000006
 20
109.49999999999994
 30
0.0
 40
1.5
  0
CIRCLE
  5
248
100
AcDbEntity
100
AcDbCircle
  8
Flange
 62
256
370
-1
  6
ByLayer
 10
490.50000000000006
 20
190.49999999999997
 30
0.0
 40
1.5
  0
CIRCLE
  5
249
100
AcDbEntity
100
AcDbCircle
  8
Flange
 62
256
370
-1
  6
ByLayer
 10
450.0
 20
150.0
 30
0.0
 40
140.0
  0
CIRCLE
  5
24A
100
AcDbEntity
100
AcDbCircle
  8
Flange
 62
256
370
-1
  6
ByLayer
 10
450.0
 20
150.0
 30
0.0
 40
4.0
  0
ARC
  5
24B
100
AcDbEntity
  8
Flange
 62
256
370
-1
  6
ByLayer
100
AcDbCircle
 10
367.50000000000756
 20
495.99999999989359
 30
0.0
 40
338.99999999989564
100
AcDbArc
 50
262.3718503314156
 51
277.62814966858173
  0
ARC
  5
24C
100
AcDbEntity
  8
Flange
 62
256
370
-1
  6
ByLayer
100
AcDbCircle
 10
367.50000000000671
 20
-196.00000000012693
 30
0.0
 40
339.00000000012483
100
AcDbArc
 50
82.371850331423374
 51
97.628149668579141
  0
LINE
  5
24D
100
AcDbEntity
100
AcDbLine
  8
0
 62
256
370
-1
  6
ByLayer
 10
509.2990381056768
 20
50.291053161004726
 30
0.0
 11
506.70096189432348
 21
48.791053161004719
 31
0.0
  0
LINE
  5
24E
100
AcDbEntity
100
AcDbLine
  8
0
 62
256
370
-1
  6
ByLayer
 10
524.66025403784454
 20
40.684646700453705
 30
0.0
 11
522.41025403784454
 21
44.581761017483664
 31
0.0
  0
ARC
  5
24F
100
AcDbEntity
  8
0
 62
256
370
-1
  6
ByLayer
100
AcDbCircle
 10
524.22724133595227
 20
40.434646700453698
 30
0.0
 40
0.5
100
AcDbArc
 50
300.0
 51
29.999999999999964
  0
LINE
  5
250
100
AcDbEntity
100
AcDbLine
  8
0
 62
256
370
-1
  6
ByLayer
 10
521.01313972081448
 20
38.001633998561474
 30
0.0
 11
524.47724133595227
 21
40.001633998561488
 31
0.0
  0
LINE
  5
251
100
AcDbEntity
100
AcDbLine
  8
0
 62
256
370
-1
  6
ByLayer
 10
518.08012701892233
 20
42.081761017483672
 30
0.0
 11
520.33012701892233
 21
38.184646700453705
 31
0.0
  0
ARC
  5
252
100
AcDbEntity
  8
0
 62
256
370
-1
  6
ByLayer
100
AcDbCircle
 10
520.76313972081448
 20
38.43464670045369
 30
0.0
 40
0.5
100
AcDbArc
 50
210.0
 51
300.0
  0
LINE
  5
253
100
AcDbEntity
100
AcDbLine
  8
0
 62
256
370
-1
  6
ByLayer
 10
515.48205080756895
 20
40.581761017483672
 30
0.0
 11
518.08012701892233
 21
42.081761017483672
 31
0.0
  0
ARC
  5
254
100
AcDbEntity
  8
0
 62
256
370
-1
  6
ByLayer
100
AcDbCircle
 10
515.23205080756895
 20
41.014773719375896
 30
0.0
 40
0.5
100
AcDbArc
 50
210.0
 51
299.99999999999994
  0
LINE
  5
255
100
AcDbEntity
100
AcDbLine
  8
0
 62
256
370
-1
  6
ByLayer
 10
512.01794919243127
 20
38.581761017483672
 30
0.0
 11
509.4198729810779
 21
37.081761017483672
 31
0.0
  0
ARC
  5
256
100
AcDbEntity
  8
0
 62
256
370
-1
  6
ByLayer
100
AcDbCircle
 10
511.76794919243122
 20
39.014773719375896
 30
0.0
 40
0.5
100
AcDbArc
 50
300.00000000000006
 51
29.999999999999964
  0
LINE
  5
257
100
AcDbEntity
100
AcDbLine
  8
0
 62
256
370
-1
  6
ByLayer
 10
509.4198729810779
 20
37.081761017483672
 30
0.0
 11
511.6698729810779
 21
33.184646700453698
 31
0.0
  0
ARC
  5
258
100
AcDbEntity
  8
0
 62
256
370
-1
  6
ByLayer
100
AcDbCircle
 10
511.23686027918569
 20
32.934646700453698
 30
0.0
 40
0.5
100
AcDbArc
 50
300.0
 51
29.999999999999964
  0
LINE
  5
259
100
AcDbEntity
100
AcDbLine
  8
0
 62
256
370
-1
  6
ByLayer
 10
511.48686027918569
 20
32.501633998561481
 30
0.0
 11
508.02275866404796
 21
30.501633998561474
 31
0.0
  0
LINE
  5
25A
100
AcDbEntity
100
AcDbLine
  8
0
 62
256
370
-1
  6
ByLayer
 10
507.33974596215575
 20
30.684646700453701
 30
0.0
 11
505.08974596215575
 21
34.581761017483672
 31
0.0
  0
ARC
  5
25B
100
AcDbEntity
  8
0
 62
256
370
-1
  6
ByLayer
100
AcDbCircle
 10
507.77275866404796
 20
30.934646700453698
 30
0.0
 40
0.5
100
AcDbArc
 50
210.0
 51
300.0
  0
LINE
  5
25C
100
AcDbEntity
100
AcDbLine
  8
0
 62
256
370
-1
  6
ByLayer
 10
510.97683265482362
 20
50.105027757220292
 30
0.0
 11
510.23205080756901
 21
49.675027757220285
 31
0.0
  0
LINE
  5
25D
100
AcDbEntity
100
AcDbLine
  8
0
 62
256
370
-1
  6
ByLayer
 10
509.54903810567674
 20
49.858040459112502
 30
0.0
 11
509.2990381056768
 21
50.291053161004726
 31
0.0
  0
ARC
  5
25E
100
AcDbEntity
  8
0
 62
256
370
-1
  6
ByLayer
100
AcDbCircle
 10
509.98205080756901
 20
50.108040459112502
 30
0.0
 40
0.5
100
AcDbArc
 50
210.0
 51
300.0
  0
LINE
  5
25F
100
AcDbEntity
100
AcDbLine
  8
0
 62
256
370
-1
  6
ByLayer
 10
506.70096189432348
 20
48.791053161004719
 30
0.0
 11
506.95096189432348
 21
48.358040459112502
 31
0.0
  0
LINE
  5
260
100
AcDbEntity
100
AcDbLine
  8
0
 62
256
370
-1
  6
ByLayer
 10
506.76794919243122
 20
47.675027757220285
 30
0.0
 11
506.0231673451766
 21
47.245027757220278
 31
0.0
  0
ARC
  5
261
100
AcDbEntity
  8
0
 62
256
370
-1
  6
ByLayer
100
AcDbCircle
 10
506.51794919243122
 20
48.108040459112502
 30
0.0
 40
0.5
100
AcDbArc
 50
300.00000000000023
 51
29.999999999999964
  0
LINE
  5
262
100
AcDbEntity
100
AcDbLine
  8
0
 62
256
370
-1
  6
ByLayer
 10
512.22683265482362
 20
47.939964247759193
 30
0.0
 11
510.97683265482362
 21
50.105027757220292
 31
0.0
  0
LINE
  5
263
100
AcDbEntity
100
AcDbLine
  8
0
 62
256
370
-1
  6
ByLayer
 10
506.0231673451766
 20
47.245027757220278
 30
0.0
 11
507.2731673451766
 21
45.079964247759179
 31
0.0
  0
LINE
  5
264
100
AcDbEntity
100
AcDbLine
  8
0
 62
256
370
-1
  6
ByLayer
 10
511.48205080756901
 20
47.509964247759179
 30
0.0
 11
512.22683265482362
 21
47.939964247759193
 31
0.0
  0
LINE
  5
265
100
AcDbEntity
100
AcDbLine
  8
0
 62
256
370
-1
  6
ByLayer
 10
514.7990381056768
 20
40.764773719375896
 30
0.0
 11
511.2990381056768
 21
46.826951545866962
 31
0.0
  0
ARC
  5
266
100
AcDbEntity
  8
0
 62
256
370
-1
  6
ByLayer
100
AcDbCircle
 10
511.73205080756901
 20
47.076951545866962
 30
0.0
 40
0.5
100
AcDbArc
 50
119.99999999999986
 51
209.99999999999997
  0
LINE
  5
267
100
AcDbEntity
100
AcDbLine
  8
0
 62
256
370
-1
  6
ByLayer
 10
507.2731673451766
 20
45.079964247759179
 30
0.0
 11
508.01794919243122
 21
45.509964247759179
 31
0.0
  0
LINE
  5
268
100
AcDbEntity
100
AcDbLine
  8
0
 62
256
370
-1
  6
ByLayer
 10
508.70096189432348
 20
45.326951545866969
 30
0.0
 11
512.20096189432343
 21
39.264773719375896
 31
0.0
  0
ARC
  5
269
100
AcDbEntity
  8
0
 62
256
370
-1
  6
ByLayer
100
AcDbCircle
 10
508.26794919243127
 20
45.076951545866962
 30
0.0
 40
0.5
100
AcDbArc
 50
29.999999999999964
 51
119.99999999999986
  0
LINE
  5
26A
100
AcDbEntity
100
AcDbLine
  8
0
 62
256
370
-1
  6
ByLayer
 10
473.20096189432354
 20
106.8147552145621
 30
0.0
 11
475.79903810567686
 21
108.3147552145621
 31
0.0
  0
LINE
  5
26B
100
AcDbEntity
100
AcDbLine
  8
0
 62
256
370
-1
  6
ByLayer
 10
457.83974596215586
 20
116.42116167511313
 30
0.0
 11
460.08974596215586
 21
112.52404735808315
 31
0.0
  0
ARC
  5
26C
100
AcDbEntity
  8
0
 62
256
370
-1
  6
ByLayer
100
AcDbCircle
 10
458.27275866404807
 20
116.67116167511313
 30
0.0
 40
0.5
100
AcDbArc
 50
119.99999999999997
 51
209.99999999999997
  0
LINE
  5
26D
100
AcDbEntity
100
AcDbLine
  8
0
 62
256
370
-1
  6
ByLayer
 10
461.48686027918581
 20
119.10417437700535
 30
0.0
 11
458.02275866404807
 21
117.10417437700535
 31
0.0
  0
LINE
  5
26E
100
AcDbEntity
100
AcDbLine
  8
0
 62
256
370
-1
  6
ByLayer
 10
464.41987298107802
 20
115.02404735808315
 30
0.0
 11
462.16987298107802
 21
118.92116167511313
 31
0.0
  0
ARC
  5
26F
100
AcDbEntity
  8
0
 62
256
370
-1
  6
ByLayer
100
AcDbCircle
 10
461.73686027918581
 20
118.67116167511313
 30
0.0
 40
0.5
100
AcDbArc
 50
29.999999999999964
 51
119.99999999999997
  0
LINE
  5
270
100
AcDbEntity
100
AcDbLine
  8
0
 62
256
370
-1
  6
ByLayer
 10
467.01794919243133
 20
116.52404735808315
 30
0.0
 11
464.41987298107802
 21
115.02404735808315
 31
0.0
  0
ARC
  5
271
100
AcDbEntity
  8
0
 62
256
370
-1
  6
ByLayer
100
AcDbCircle
 10
467.26794919243133
 20
116.09103465619093
 30
0.0
 40
0.5
100
AcDbArc
 50
29.999999999999964
 51
119.99999999999991
  0
LINE
  5
272
100
AcDbEntity
100
AcDbLine
  8
0
 62
256
370
-1
  6
ByLayer
 10
470.48205080756912
 20
118.52404735808315
 30
0.0
 11
473.08012701892244
 21
120.02404735808315
 31
0.0
  0
ARC
  5
273
100
AcDbEntity
  8
0
 62
256
370
-1
  6
ByLayer
100
AcDbCircle
 10
470.73205080756912
 20
118.09103465619093
 30
0.0
 40
0.5
100
AcDbArc
 50
120.00000000000001
 51
209.99999999999997
  0
LINE
  5
274
100
AcDbEntity
100
AcDbLine
  8
0
 62
256
370
-1
  6
ByLayer
 10
473.08012701892244
 20
120.02404735808315
 30
0.0
 11
470.83012701892244
 21
123.92116167511313
 31
0.0
  0
ARC
  5
275
100
AcDbEntity
  8
0
 62
256
370
-1
  6
ByLayer
100
AcDbCircle
 10
471.26313972081465
 20
124.17116167511313
 30
0.0
 40
0.5
100
AcDbArc
 50
119.99999999999997
 51
209.99999999999997
  0
LINE
  5
276
100
AcDbEntity
100
AcDbLine
  8
0
 62
256
370
-1
  6
ByLayer
 10
471.01313972081465
 20
124.60417437700535
 30
0.0
 11
474.47724133595239
 21
126.60417437700534
 31
0.0
  0
LINE
  5
277
100
AcDbEntity
100
AcDbLine
  8
0
 62
256
370
-1
  6
ByLayer
 10
475.1602540378446
 20
126.42116167511313
 30
0.0
 11
477.4102540378446
 21
122.52404735808315
 31
0.0
  0
ARC
  5
278
100
AcDbEntity
  8
0
 62
256
370
-1
  6
ByLayer
100
AcDbCircle
 10
474.72724133595239
 20
126.17116167511313
 30
0.0
 40
0.5
100
AcDbArc
 50
29.999999999999964
 51
119.99999999999997
  0
LINE
  5
279
100
AcDbEntity
100
AcDbLine
  8
0
 62
256
370
-1
  6
ByLayer
 10
471.52316734517672
 20
107.00078061834654
 30
0.0
 11
472.26794919243133
 21
107.43078061834655
 31
0.0
  0
LINE
  5
27A
100
AcDbEntity
100
AcDbLine
  8
0
 62
256
370
-1
  6
ByLayer
 10
472.95096189432354
 20
107.24776791645432
 30
0.0
 11
473.20096189432354
 21
106.8147552145621
 31
0.0
  0
ARC
  5
27B
100
AcDbEntity
  8
0
 62
256
370
-1
  6
ByLayer
100
AcDbCircle
 10
472.51794919243133
 20
106.99776791645432
 30
0.0
 40
0.5
100
AcDbArc
 50
29.999999999999964
 51
119.99999999999997
  0
LINE
  5
27C
100
AcDbEntity
100
AcDbLine
  8
0
 62
256
370
-1
  6
ByLayer
 10
475.79903810567686
 20
108.3147552145621
 30
0.0
 11
475.54903810567686
 21
108.74776791645432
 31
0.0
  0
LINE
  5
27D
100
AcDbEntity
100
AcDbLine
  8
0
 62
256
370
-1
  6
ByLayer
 10
475.73205080756912
 20
109.43078061834655
 30
0.0
 11
476.47683265482374
 21
109.86078061834654
 31
0.0
  0
ARC
  5
27E
100
AcDbEntity
  8
0
 62
256
370
-1
  6
ByLayer
100
AcDbCircle
 10
475.98205080756912
 20
108.99776791645432
 30
0.0
 40
0.5
100
AcDbArc
 50
120.00000000000017
 51
209.99999999999997
  0
LINE
  5
27F
100
AcDbEntity
100
AcDbLine
  8
0
 62
256
370
-1
  6
ByLayer
 10
470.27316734517672
 20
109.16584412780763
 30
0.0
 11
471.52316734517672
 21
107.00078061834654
 31
0.0
  0
LINE
  5
280
100
AcDbEntity
100
AcDbLine
  8
0
 62
256
370
-1
  6
ByLayer
 10
476.47683265482374
 20
109.86078061834654
 30
0.0
 11
475.22683265482374
 21
112.02584412780764
 31
0.0
  0
LINE
  5
281
100
AcDbEntity
100
AcDbLine
  8
0
 62
256
370
-1
  6
ByLayer
 10
471.01794919243133
 20
109.59584412780764
 30
0.0
 11
470.27316734517672
 21
109.16584412780763
 31
0.0
  0
LINE
  5
282
100
AcDbEntity
100
AcDbLine
  8
0
 62
256
370
-1
  6
ByLayer
 10
467.70096189432354
 20
116.34103465619093
 30
0.0
 11
471.20096189432354
 21
110.27885682969986
 31
0.0
  0
ARC
  5
283
100
AcDbEntity
  8
0
 62
256
370
-1
  6
ByLayer
100
AcDbCircle
 10
470.76794919243133
 20
110.02885682969986
 30
0.0
 40
0.5
100
AcDbArc
 50
299.99999999999983
 51
29.999999999999964
  0
LINE
  5
284
100
AcDbEntity
100
AcDbLine
  8
0
 62
256
370
-1
  6
ByLayer
 10
475.22683265482374
 20
112.02584412780764
 30
0.0
 11
474.48205080756912
 21
111.59584412780764
 31
0.0
  0
LINE
  5
285
100
AcDbEntity
100
AcDbLine
  8
0
 62
256
370
-1
  6
ByLayer
 10
473.79903810567686
 20
111.77885682969986
 30
0.0
 11
470.29903810567691
 21
117.84103465619093
 31
0.0
  0
ARC
  5
286
100
AcDbEntity
  8
0
 62
256
370
-1
  6
ByLayer
100
AcDbCircle
 10
474.23205080756912
 20
112.02885682969986
 30
0.0
 40
0.5
100
AcDbArc
 50
209.99999999999997
 51
299.99999999999983
  0
LINE
  5
287
100
AcDbEntity
100
AcDbLine
  8
Flange
 62
256
370
-1
  6
ByLayer
 10
461.48686027918581
 20
119.10417437700536
 30
0.0
 11
471.01313972081459
 21
124.60417437700532
 31
0.0
  0
LINE
  5
288
100
AcDbEntity
100
AcDbLine
  8
Flange
 62
256
370
-1
  6
ByLayer
 10
511.48686027918563
 20
32.501633998561374
 30
0.0
 11
521.01313972081425
 21
38.001633998561232
 31
0.0
  0
ARC
  5
289
100
AcDbEntity
  8
Flange
 62
256
370
-1
  6
ByLayer
100
AcDbCircle
 10
191.6052102906724
 20
-94.447095812156306
 30
0.0
 40
338.99999999989564
100
AcDbArc
 50
22.371850331415548
 51
37.628149668581734
  0
ARC
  5
28A
100
AcDbEntity
  8
Flange
 62
256
370
-1
  6
ByLayer
100
AcDbCircle
 10
790.89478970952223
 20
251.55290418785313
 30
0.0
 40
339.00000000012483
100
AcDbArc
 50
202.37185033142336
 51
217.62814966857914
  0
LINE
  5
28B
100
AcDbEntity
100
AcDbLine
  8
0
 62
256
370
-1
  6
ByLayer
 10
506.70096189432354
 20
251.20894683899519
 30
0.0
 11
509.29903810567686
 21
249.70894683899522
 31
0.0
  0
LINE
  5
28C
100
AcDbEntity
100
AcDbLine
  8
0
 62
256
370
-1
  6
ByLayer
 10
507.33974596215586
 20
269.31535329954625
 30
0.0
 11
505.08974596215586
 21
265.41823898251624
 31
0.0
  0
ARC
  5
28D
100
AcDbEntity
  8
0
 62
256
370
-1
  6
ByLayer
100
AcDbCircle
 10
507.77275866404807
 20
269.06535329954625
 30
0.0
 40
0.5
100
AcDbArc
 50
59.999999999999986
 51
150.00000000000003
  0
LINE
  5
28E
100
AcDbEntity
100
AcDbLine
  8
0
 62
256
370
-1
  6
ByLayer
 10
511.48686027918581
 20
267.49836600143846
 30
0.0
 11
508.02275866404807
 21
269.49836600143846
 31
0.0
  0
LINE
  5
28F
100
AcDbEntity
100
AcDbLine
  8
0
 62
256
370
-1
  6
ByLayer
 10
509.41987298107802
 20
262.91823898251624
 30
0.0
 11
511.66987298107802
 21
266.81535329954625
 31
0.0
  0
ARC
  5
290
100
AcDbEntity
  8
0
 62
256
370
-1
  6
ByLayer
100
AcDbCircle
 10
511.23686027918581
 20
267.06535329954625
 30
0.0
 40
0.5
100
AcDbArc
 50
330.0
 51
59.999999999999986
  0
LINE
  5
291
100
AcDbEntity
100
AcDbLine
  8
0
 62
256
370
-1
  6
ByLayer
 10
512.01794919243139
 20
261.41823898251624
 30
0.0
 11
509.41987298107802
 21
262.91823898251624
 31
0.0
  0
ARC
  5
292
100
AcDbEntity
  8
0
 62
256
370
-1
  6
ByLayer
100
AcDbCircle
 10
511.76794919243133
 20
260.98522628062403
 30
0.0
 40
0.5
100
AcDbArc
 50
330.0
 51
59.999999999999929
  0
LINE
  5
293
100
AcDbEntity
100
AcDbLine
  8
0
 62
256
370
-1
  6
ByLayer
 10
515.48205080756907
 20
259.41823898251624
 30
0.0
 11
518.08012701892244
 21
257.91823898251624
 31
0.0
  0
ARC
  5
294
100
AcDbEntity
  8
0
 62
256
370
-1
  6
ByLayer
100
AcDbCircle
 10
515.23205080756907
 20
258.98522628062403
 30
0.0
 40
0.5
100
AcDbArc
 50
60.000000000000036
 51
150.00000000000003
  0
LINE
  5
295
100
AcDbEntity
100
AcDbLine
  8
0
 62
256
370
-1
  6
ByLayer
 10
518.08012701892244
 20
257.91823898251624
 30
0.0
 11
520.33012701892244
 21
261.81535329954619
 31
0.0
  0
ARC
  5
296
100
AcDbEntity
  8
0
 62
256
370
-1
  6
ByLayer
100
AcDbCircle
 10
520.76313972081459
 20
261.56535329954619
 30
0.0
 40
0.5
100
AcDbArc
 50
59.999999999999986
 51
150.00000000000003
  0
LINE
  5
297
100
AcDbEntity
100
AcDbLine
  8
0
 62
256
370
-1
  6
ByLayer
 10
521.01313972081459
 20
261.99836600143846
 30
0.0
 11
524.47724133595239
 21
259.99836600143846
 31
0.0
  0
LINE
  5
298
100
AcDbEntity
100
AcDbLine
  8
0
 62
256
370
-1
  6
ByLayer
 10
524.66025403784465
 20
259.31535329954619
 30
0.0
 11
522.41025403784465
 21
255.41823898251624
 31
0.0
  0
ARC
  5
299
100
AcDbEntity
  8
0
 62
256
370
-1
  6
ByLayer
100
AcDbCircle
 10
524.22724133595239
 20
259.56535329954619
 30
0.0
 40
0.5
100
AcDbArc
 50
330.0
 51
59.999999999999986
  0
LINE
  5
29A
100
AcDbEntity
100
AcDbLine
  8
0
 62
256
370
-1
  6
ByLayer
 10
506.02316734517672
 20
252.75497224277964
 30
0.0
 11
506.76794919243133
 21
252.32497224277964
 31
0.0
  0
LINE
  5
29B
100
AcDbEntity
100
AcDbLine
  8
0
 62
256
370
-1
  6
ByLayer
 10
506.95096189432354
 20
251.64195954088743
 30
0.0
 11
506.70096189432354
 21
251.20894683899519
 31
0.0
  0
ARC
  5
29C
100
AcDbEntity
  8
0
 62
256
370
-1
  6
ByLayer
100
AcDbCircle
 10
506.51794919243133
 20
251.89195954088743
 30
0.0
 40
0.5
100
AcDbArc
 50
330.0
 51
59.999999999999986
  0
LINE
  5
29D
100
AcDbEntity
100
AcDbLine
  8
0
 62
256
370
-1
  6
ByLayer
 10
509.29903810567686
 20
249.70894683899522
 30
0.0
 11
509.54903810567686
 21
250.14195954088743
 31
0.0
  0
LINE
  5
29E
100
AcDbEntity
100
AcDbLine
  8
0
 62
256
370
-1
  6
ByLayer
 10
510.23205080756907
 20
250.32497224277964
 30
0.0
 11
510.97683265482374
 21
249.89497224277963
 31
0.0
  0
ARC
  5
29F
100
AcDbEntity
  8
0
 62
256
370
-1
  6
ByLayer
100
AcDbCircle
 10
509.98205080756912
 20
249.89195954088743
 30
0.0
 40
0.5
100
AcDbArc
 50
60.000000000000185
 51
150.00000000000003
  0
LINE
  5
2A0
100
AcDbEntity
100
AcDbLine
  8
0
 62
256
370
-1
  6
ByLayer
 10
507.27316734517672
 20
254.92003575224075
 30
0.0
 11
506.02316734517672
 21
252.75497224277964
 31
0.0
  0
LINE
  5
2A1
100
AcDbEntity
100
AcDbLine
  8
0
 62
256
370
-1
  6
ByLayer
 10
510.97683265482374
 20
249.89497224277963
 30
0.0
 11
512.22683265482374
 21
252.06003575224074
 31
0.0
  0
LINE
  5
2A2
100
AcDbEntity
100
AcDbLine
  8
0
 62
256
370
-1
  6
ByLayer
 10
508.01794919243133
 20
254.49003575224074
 30
0.0
 11
507.27316734517672
 21
254.92003575224075
 31
0.0
  0
LINE
  5
2A3
100
AcDbEntity
100
AcDbLine
  8
0
 62
256
370
-1
  6
ByLayer
 10
512.20096189432354
 20
260.73522628062403
 30
0.0
 11
508.70096189432354
 21
254.67304845413295
 31
0.0
  0
ARC
  5
2A4
100
AcDbEntity
  8
0
 62
256
370
-1
  6
ByLayer
100
AcDbCircle
 10
508.26794919243133
 20
254.92304845413295
 30
0.0
 40
0.5
100
AcDbArc
 50
239.99999999999983
 51
330.00000000000006
  0
LINE
  5
2A5
100
AcDbEntity
100
AcDbLine
  8
0
 62
256
370
-1
  6
ByLayer
 10
512.22683265482374
 20
252.06003575224074
 30
0.0
 11
511.48205080756912
 21
252.49003575224074
 31
0.0
  0
LINE
  5
2A6
100
AcDbEntity
100
AcDbLine
  8
0
 62
256
370
-1
  6
ByLayer
 10
511.29903810567686
 20
253.17304845413295
 30
0.0
 11
514.79903810567691
 21
259.23522628062403
 31
0.0
  0
ARC
  5
2A7
100
AcDbEntity
  8
0
 62
256
370
-1
  6
ByLayer
100
AcDbCircle
 10
511.73205080756907
 20
252.92304845413295
 30
0.0
 40
0.5
100
AcDbArc
 50
150.00000000000003
 51
239.99999999999983
  0
LINE
  5
2A8
100
AcDbEntity
100
AcDbLine
  8
0
 62
256
370
-1
  6
ByLayer
 10
475.79903810567691
 20
191.68524478543787
 30
0.0
 11
473.2009618943236
 21
193.18524478543787
 31
0.0
  0
LINE
  5
2A9
100
AcDbEntity
100
AcDbLine
  8
0
 62
256
370
-1
  6
ByLayer
 10
475.1602540378446
 20
173.57883832488685
 30
0.0
 11
477.4102540378446
 21
177.47595264191682
 31
0.0
  0
ARC
  5
2AA
100
AcDbEntity
  8
0
 62
256
370
-1
  6
ByLayer
100
AcDbCircle
 10
474.72724133595239
 20
173.82883832488685
 30
0.0
 40
0.5
100
AcDbArc
 50
240.00000000000003
 51
330.00000000000006
  0
LINE
  5
2AB
100
AcDbEntity
100
AcDbLine
  8
0
 62
256
370
-1
  6
ByLayer
 10
471.01313972081465
 20
175.39582562299464
 30
0.0
 11
474.47724133595239
 21
173.39582562299464
 31
0.0
  0
LINE
  5
2AC
100
AcDbEntity
100
AcDbLine
  8
0
 62
256
370
-1
  6
ByLayer
 10
473.08012701892244
 20
179.97595264191682
 30
0.0
 11
470.83012701892244
 21
176.07883832488685
 31
0.0
  0
ARC
  5
2AD
100
AcDbEntity
  8
0
 62
256
370
-1
  6
ByLayer
100
AcDbCircle
 10
471.26313972081465
 20
175.82883832488685
 30
0.0
 40
0.5
100
AcDbArc
 50
150.00000000000003
 51
240.00000000000003
  0
LINE
  5
2AE
100
AcDbEntity
100
AcDbLine
  8
0
 62
256
370
-1
  6
ByLayer
 10
470.48205080756912
 20
181.47595264191682
 30
0.0
 11
473.08012701892244
 21
179.97595264191682
 31
0.0
  0
ARC
  5
2AF
100
AcDbEntity
  8
0
 62
256
370
-1
  6
ByLayer
100
AcDbCircle
 10
470.73205080756912
 20
181.90896534380903
 30
0.0
 40
0.5
100
AcDbArc
 50
150.00000000000003
 51
239.99999999999997
  0
LINE
  5
2B0
100
AcDbEntity
100
AcDbLine
  8
0
 62
256
370
-1
  6
ByLayer
 10
467.01794919243133
 20
183.47595264191682
 30
0.0
 11
464.41987298107802
 21
184.97595264191682
 31
0.0
  0
ARC
  5
2B1
100
AcDbEntity
  8
0
 62
256
370
-1
  6
ByLayer
100
AcDbCircle
 10
467.26794919243133
 20
183.90896534380903
 30
0.0
 40
0.5
100
AcDbArc
 50
240.00000000000009
 51
330.00000000000006
  0
LINE
  5
2B2
100
AcDbEntity
100
AcDbLine
  8
0
 62
256
370
-1
  6
ByLayer
 10
464.41987298107802
 20
184.97595264191682
 30
0.0
 11
462.16987298107802
 21
181.07883832488685
 31
0.0
  0
ARC
  5
2B3
100
AcDbEntity
  8
0
 62
256
370
-1
  6
ByLayer
100
AcDbCircle
 10
461.73686027918581
 20
181.32883832488685
 30
0.0
 40
0.5
100
AcDbArc
 50
240.00000000000003
 51
330.00000000000006
  0
LINE
  5
2B4
100
AcDbEntity
100
AcDbLine
  8
0
 62
256
370
-1
  6
ByLayer
 10
461.48686027918581
 20
180.89582562299464
 30
0.0
 11
458.02275866404807
 21
182.89582562299461
 31
0.0
  0
LINE
  5
2B5
100
AcDbEntity
100
AcDbLine
  8
0
 62
256
370
-1
  6
ByLayer
 10
457.83974596215586
 20
183.57883832488685
 30
0.0
 11
460.08974596215586
 21
187.47595264191682
 31
0.0
  0
ARC
  5
2B6
100
AcDbEntity
  8
0
 62
256
370
-1
  6
ByLayer
100
AcDbCircle
 10
458.27275866404807
 20
183.32883832488685
 30
0.0
 40
0.5
100
AcDbArc
 50
150.00000000000003
 51
240.00000000000003
  0
LINE
  5
2B7
100
AcDbEntity
100
AcDbLine
  8
0
 62
256
370
-1
  6
ByLayer
 10
476.47683265482374
 20
190.13921938165342
 30
0.0
 11
475.73205080756912
 21
190.56921938165343
 31
0.0
  0
LINE
  5
2B8
100
AcDbEntity
100
AcDbLine
  8
0
 62
256
370
-1
  6
ByLayer
 10
475.54903810567686
 20
191.25223208354564
 30
0.0
 11
475.79903810567691
 21
191.68524478543787
 31
0.0
  0
ARC
  5
2B9
100
AcDbEntity
  8
0
 62
256
370
-1
  6
ByLayer
100
AcDbCircle
 10
475.98205080756912
 20
191.00223208354566
 30
0.0
 40
0.5
100
AcDbArc
 50
150.00000000000003
 51
240.00000000000003
  0
LINE
  5
2BA
100
AcDbEntity
100
AcDbLine
  8
0
 62
256
370
-1
  6
ByLayer
 10
473.2009618943236
 20
193.18524478543787
 30
0.0
 11
472.95096189432354
 21
192.75223208354564
 31
0.0
  0
LINE
  5
2BB
100
AcDbEntity
100
AcDbLine
  8
0
 62
256
370
-1
  6
ByLayer
 10
472.26794919243133
 20
192.56921938165343
 30
0.0
 11
471.52316734517672
 21
192.99921938165343
 31
0.0
  0
ARC
  5
2BC
100
AcDbEntity
  8
0
 62
256
370
-1
  6
ByLayer
100
AcDbCircle
 10
472.51794919243133
 20
193.00223208354564
 30
0.0
 40
0.5
100
AcDbArc
 50
240.00000000000023
 51
330.00000000000006
  0
LINE
  5
2BD
100
AcDbEntity
100
AcDbLine
  8
0
 62
256
370
-1
  6
ByLayer
 10
475.22683265482374
 20
187.97415587219234
 30
0.0
 11
476.47683265482374
 21
190.13921938165342
 31
0.0
  0
LINE
  5
2BE
100
AcDbEntity
100
AcDbLine
  8
0
 62
256
370
-1
  6
ByLayer
 10
471.52316734517672
 20
192.99921938165343
 30
0.0
 11
470.27316734517672
 21
190.83415587219233
 31
0.0
  0
LINE
  5
2BF
100
AcDbEntity
100
AcDbLine
  8
0
 62
256
370
-1
  6
ByLayer
 10
474.48205080756912
 20
188.40415587219232
 30
0.0
 11
475.22683265482374
 21
187.97415587219234
 31
0.0
  0
LINE
  5
2C0
100
AcDbEntity
100
AcDbLine
  8
0
 62
256
370
-1
  6
ByLayer
 10
470.29903810567691
 20
182.15896534380903
 30
0.0
 11
473.79903810567686
 21
188.22114317030011
 31
0.0
  0
ARC
  5
2C1
100
AcDbEntity
  8
0
 62
256
370
-1
  6
ByLayer
100
AcDbCircle
 10
474.23205080756912
 20
187.97114317030011
 30
0.0
 40
0.5
100
AcDbArc
 50
59.999999999999879
 51
150.00000000000003
  0
LINE
  5
2C2
100
AcDbEntity
100
AcDbLine
  8
0
 62
256
370
-1
  6
ByLayer
 10
470.27316734517672
 20
190.83415587219233
 30
0.0
 11
471.01794919243133
 21
190.40415587219232
 31
0.0
  0
LINE
  5
2C3
100
AcDbEntity
100
AcDbLine
  8
0
 62
256
370
-1
  6
ByLayer
 10
471.2009618943236
 20
189.72114317030011
 30
0.0
 11
467.70096189432354
 21
183.65896534380903
 31
0.0
  0
ARC
  5
2C4
100
AcDbEntity
  8
0
 62
256
370
-1
  6
ByLayer
100
AcDbCircle
 10
470.76794919243133
 20
189.97114317030011
 30
0.0
 40
0.5
100
AcDbArc
 50
330.00000000000006
 51
59.999999999999879
  0
LINE
  5
2C5
100
AcDbEntity
100
AcDbLine
  8
Flange
 62
256
370
-1
  6
ByLayer
 10
471.01313972081459
 20
175.39582562299464
 30
0.0
 11
461.48686027918586
 21
180.89582562299461
 31
0.0
  0
LINE
  5
2C6
100
AcDbEntity
100
AcDbLine
  8
Flange
 62
256
370
-1
  6
ByLayer
 10
521.01313972081471
 20
261.99836600143851
 30
0.0
 11
511.48686027918609
 21
267.49836600143834
 31
0.0
  0
ARC
  5
2C7
100
AcDbEntity
  8
Flange
 62
256
370
-1
  6
ByLayer
100
AcDbCircle
 10
790.89478970931987
 20
48.44709581226266
 30
0.0
 40
338.99999999989564
100
AcDbArc
 50
142.37185033141552
 51
157.6281496685817
  0
ARC
  5
2C8
100
AcDbEntity
  8
Flange
 62
256
370
-1
  6
ByLayer
100
AcDbCircle
 10
191.60521029047101
 20
394.44709581227386
 30
0.0
 40
339.00000000012483
100
AcDbArc
 50
322.37185033142333
 51
337.62814966857911
  0
CIRCLE
  5
2C9
100
AcDbEntity
100
AcDbCircle
  8
Flange
 62
256
370
-1
  6
ByLayer
 10
382.5
 20
266.91342951089922
 30
0.0
 40
1.5
  0
CIRCLE
  5
2CA
100
AcDbEntity
100
AcDbCircle
  8
Flange
 62
256
370
-1
  6
ByLayer
 10
333.08657048910084
 20
217.50000000000006
 30
0.0
 40
1.5
  0
CIRCLE
  5
2CB
100
AcDbEntity
100
AcDbCircle
  8
Flange
 62
256
370
-1
  6
ByLayer
 10
315.0
 20
150.00000000000003
 30
0.0
 40
1.5
  0
CIRCLE
  5
2CC
100
AcDbEntity
100
AcDbCircle
  8
Flange
 62
256
370
-1
  6
ByLayer
 10
333.08657048910072
 20
82.500000000000085
 30
0.0
 40
1.5
  0
CIRCLE
  5
2CD
100
AcDbEntity
100
AcDbCircle
  8
Flange
 62
256
370
-1
  6
ByLayer
 10
382.49999999999994
 20
33.086570489100794
 30
0.0
 40
1.5
  0
CIRCLE
  5
2CE
100
AcDbEntity
100
AcDbCircle
  8
Flange
 62
256
370
-1
  6
ByLayer
 10
450.0
 20
14.999999999999972
 30
0.0
 40
1.5
  0
CIRCLE
  5
2CF
100
AcDbEntity
100
AcDbCircle
  8
Flange
 62
256
370
-1
  6
ByLayer
 10
517.49999999999989
 20
33.086570489100708
 30
0.0
 40
1.5
  0
CIRCLE
  5
2D0
100
AcDbEntity
100
AcDbCircle
  8
Flange
 62
256
370
-1
  6
ByLayer
 10
566.91342951089916
 20
82.499999999999943
 30
0.0
 40
1.5
  0
CIRCLE
  5
2D1
100
AcDbEntity
100
AcDbCircle
  8
Flange
 62
256
370
-1
  6
ByLayer
 10
585.0
 20
149.99999999999997
 30
0.0
 40
1.5
  0
CIRCLE
  5
2D2
100
AcDbEntity
100
AcDbCircle
  8
Flange
 62
256
370
-1
  6
ByLayer
 10
566.91342951089928
 20
217.49999999999989
 30
0.0
 40
1.5
  0
CIRCLE
  5
2D3
100
AcDbEntity
100
AcDbCircle
  8
Flange
 62
256
370
-1
  6
ByLayer
 10
517.50000000000011
 20
266.91342951089911
 30
0.0
 40
1.5
  0
CIRCLE
  5
2D4
100
AcDbEntity
100
AcDbCircle
  8
Flange
 62
256
370
-1
  6
ByLayer
 10
450.00000000000006
 20
285.0
 30
0.0
 40
1.5
  0
ARC
  5
2D5
100
AcDbEntity
  8
Flange Etch
 62
256
370
-1
  6
ByLayer
100
AcDbCircle
 10
359.44431304366577
 20
148.81944444444446
 30
0.0
 40
3.6805555555555558
100
AcDbArc
 50
63.069999999999993
 51
90.0
  0
ARC
  5
2D6
100
AcDbEntity
  8
Flange Etch
 62
256
370
-1
  6
ByLayer
100
AcDbCircle
 10
359.44431304366577
 20
151.38888888888889
 30
0.0
 40
1.1111111111111112
100
AcDbArc
 50
90.0
 51
243.0
  0
LINE
  5
2D7
100
AcDbEntity
100
AcDbLine
  8
Flange Etch
 62
256
370
-1
  6
ByLayer
 10
358.93931304366578
 20
150.39888888888888
 30
0.0
 11
360.50486859922137
 21
149.60111111111112
 31
0.0
  0
ARC
  5
2D8
100
AcDbEntity
  8
Flange Etch
 62
256
370
-1
  6
ByLayer
100
AcDbCircle
 10
359.99986859922137
 20
148.61111111111111
 30
0.0
 40
1.1111111111111112
100
AcDbArc
 50
270.0
 51
62.980000000000004
  0
ARC
  5
2D9
100
AcDbEntity
  8
Flange Etch
 62
256
370
-1
  6
ByLayer
100
AcDbCircle
 10
359.99986859922137
 20
151.18055555555554
 30
0.0
 40
3.6805555555555558
100
AcDbArc
 50
243.09999999999999
 51
270.0
  0
LINE
  5
2DA
100
AcDbEntity
100
AcDbLine
  8
Flange Etch
 62
256
370
-1
  6
ByLayer
 10
362.77790917855549
 20
147.5
 30
0.0
 11
364.1667980674444
 21
147.5
 31
0.0
  0
ARC
  5
2DB
100
AcDbEntity
  8
Flange Etch
 62
256
370
-1
  6
ByLayer
100
AcDbCircle
 10
364.1667980674444
 20
148.33333333333334
 30
0.0
 40
0.8333333333333334
100
AcDbArc
 50
270.0
 51
0.0
  0
LINE
  5
2DC
100
AcDbEntity
100
AcDbLine
  8
Flange Etch
 62
256
370
-1
  6
ByLayer
 10
365.00013140077772
 20
148.33333333333334
 30
0.0
 11
365.00013140077772
 21
150.0
 31
0.0
  0
ARC
  5
2DD
100
AcDbEntity
  8
Flange Etch
 62
256
370
-1
  6
ByLayer
100
AcDbCircle
 10
364.1667980674444
 20
150.0
 30
0.0
 40
0.8333333333333334
100
AcDbArc
 50
0.0
 51
90.0
  0
LINE
  5
2DE
100
AcDbEntity
100
AcDbLine
  8
Flange Etch
 62
256
370
-1
  6
ByLayer
 10
364.1667980674444
 20
150.83333333333334
 30
0.0
 11
362.77790917855549
 21
150.83333333333334
 31
0.0
  0
LINE
  5
2DF
100
AcDbEntity
100
AcDbLine
  8
Flange Etch
 62
256
370
-1
  6
ByLayer
 10
362.77790917855549
 20
150.83333333333334
 30
0.0
 11
362.77790917855549
 21
145.83333333333334
 31
0.0
  0
LINE
  5
2E0
100
AcDbEntity
100
AcDbLine
  8
Flange Etch
 62
256
370
-1
  6
ByLayer
 10
366.6667980674444
 20
149.72222222222223
 30
0.0
 11
366.6667980674444
 21
148.61111111111111
 31
0.0
  0
ARC
  5
2E1
100
AcDbEntity
  8
Flange Etch
 62
256
370
-1
  6
ByLayer
100
AcDbCircle
 10
367.77790917855549
 20
148.61111111111111
 30
0.0
 40
1.1111111111111112
100
AcDbArc
 50
180.0
 51
0.0
  0
LINE
  5
2E2
100
AcDbEntity
100
AcDbLine
  8
Flange Etch
 62
256
370
-1
  6
ByLayer
 10
368.88902028966663
 20
148.61111111111111
 30
0.0
 11
368.88902028966663
 21
149.72222222222223
 31
0.0
  0
ARC
  5
2E3
100
AcDbEntity
  8
Flange Etch
 62
256
370
-1
  6
ByLayer
100
AcDbCircle
 10
367.77790917855549
 20
149.72222222222223
 30
0.0
 40
1.1111111111111112
100
AcDbArc
 50
0.0
 51
180.0
  0
LINE
  5
2E4
100
AcDbEntity
100
AcDbLine
  8
Flange Etch
 62
256
370
-1
  6
ByLayer
 10
370.55568695633326
 20
152.5
 30
0.0
 11
370.55568695633326
 21
147.5
 31
0.0
  0
LINE
  5
2E5
100
AcDbEntity
100
AcDbLine
  8
Flange Etch
 62
256
370
-1
  6
ByLayer
 10
370.55568695633326
 20
149.44444444444446
 30
0.0
 11
372.77790917855549
 21
150.83333333333334
 31
0.0
  0
LINE
  5
2E6
100
AcDbEntity
100
AcDbLine
  8
Flange Etch
 62
256
370
-1
  6
ByLayer
 10
371.28957584522215
 20
149.90333333333334
 30
0.0
 11
372.77790917855549
 21
147.5
 31
0.0
  0
LINE
  5
2E7
100
AcDbEntity
100
AcDbLine
  8
Flange Etch
 62
256
370
-1
  6
ByLayer
 10
374.44457584522218
 20
149.16666666666666
 30
0.0
 11
376.6667980674444
 21
149.16666666666666
 31
0.0
  0
LINE
  5
2E8
100
AcDbEntity
100
AcDbLine
  8
Flange Etch
 62
256
370
-1
  6
ByLayer
 10
376.6667980674444
 20
149.16666666666666
 30
0.0
 11
376.6667980674444
 21
149.72222222222223
 31
0.0
  0
ARC
  5
2E9
100
AcDbEntity
  8
Flange Etch
 62
256
370
-1
  6
ByLayer
100
AcDbCircle
 10
375.55568695633326
 20
149.72222222222223
 30
0.0
 40
1.1111111111111112
100
AcDbArc
 50
0.0
 51
180.0
  0
LINE
  5
2EA
100
AcDbEntity
100
AcDbLine
  8
Flange Etch
 62
256
370
-1
  6
ByLayer
 10
374.44457584522218
 20
149.72222222222223
 30
0.0
 11
374.44457584522218
 21
148.33333333333334
 31
0.0
  0
ARC
  5
2EB
100
AcDbEntity
  8
Flange Etch
 62
256
370
-1
  6
ByLayer
100
AcDbCircle
 10
375.27790917855549
 20
148.33333333333334
 30
0.0
 40
0.8333333333333334
100
AcDbArc
 50
180.0
 51
270.0
  0
LINE
  5
2EC
100
AcDbEntity
100
AcDbLine
  8
Flange Etch
 62
256
370
-1
  6
ByLayer
 10
375.27790917855549
 20
147.5
 30
0.0
 11
376.6667980674444
 21
147.5
 31
0.0
  0
ARC
  5
2ED
100
AcDbEntity
  8
Flange Etch
 62
256
370
-1
  6
ByLayer
100
AcDbCircle
 10
496.30023457985698
 20
72.166752416441199
 30
0.0
 40
3.6805555555555558
100
AcDbArc
 50
183.06999999999999
 51
210.0
  0
ARC
  5
2EE
100
AcDbEntity
  8
Flange Etch
 62
256
370
-1
  6
ByLayer
100
AcDbCircle
 10
494.07503041735532
 20
70.882030194218984
 30
0.0
 40
1.1111111111111112
100
AcDbArc
 50
210.0
 51
3.0000000000000169
  0
LINE
  5
2EF
100
AcDbEntity
100
AcDbLine
  8
Flange Etch
 62
256
370
-1
  6
ByLayer
 10
495.18489556710193
 20
70.939687365307847
 30
0.0
 11
495.09301361145435
 21
72.694387136343735
 31
0.0
  0
ARC
  5
2F0
100
AcDbEntity
  8
Flange Etch
 62
256
370
-1
  6
ByLayer
100
AcDbCircle
 10
496.20287876120096
 20
72.752044307432598
 30
0.0
 40
1.1111111111111112
100
AcDbArc
 50
29.999999999999964
 51
182.97999999999999
  0
ARC
  5
2F1
100
AcDbEntity
  8
Flange Etch
 62
256
370
-1
  6
ByLayer
100
AcDbCircle
 10
493.97767459869925
 20
71.46732208521037
 30
0.0
 40
3.6805555555555558
100
AcDbArc
 50
3.1000000000000107
 51
29.999999999999964
  0
LINE
  5
2F2
100
AcDbEntity
100
AcDbLine
  8
Flange Etch
 62
256
370
-1
  6
ByLayer
 10
495.77610892018328
 20
75.713453577435544
 30
0.0
 11
495.08166447573882
 21
76.916266638247293
 31
0.0
  0
ARC
  5
2F3
100
AcDbEntity
  8
Flange Etch
 62
256
370
-1
  6
ByLayer
100
AcDbCircle
 10
494.35997663925178
 20
76.499599971580622
 30
0.0
 40
0.8333333333333334
100
AcDbArc
 50
29.999999999999964
 51
119.99999999999999
  0
LINE
  5
2F4
100
AcDbEntity
100
AcDbLine
  8
Flange Etch
 62
256
370
-1
  6
ByLayer
 10
493.94330997258515
 20
77.221287808067643
 30
0.0
 11
492.49993429961108
 21
76.3879544747343
 31
0.0
  0
ARC
  5
2F5
100
AcDbEntity
  8
Flange Etch
 62
256
370
-1
  6
ByLayer
100
AcDbCircle
 10
492.91660096627771
 20
75.666266638247279
 30
0.0
 40
0.8333333333333334
100
AcDbArc
 50
119.99999999999999
 51
210.0
  0
LINE
  5
2F6
100
AcDbEntity
100
AcDbLine
  8
Flange Etch
 62
256
370
-1
  6
ByLayer
 10
492.19491312979068
 20
75.249599971580622
 30
0.0
 11
492.88935757423513
 21
74.046786910768887
 31
0.0
  0
LINE
  5
2F7
100
AcDbEntity
100
AcDbLine
  8
Flange Etch
 62
256
370
-1
  6
ByLayer
 10
492.88935757423513
 20
74.046786910768887
 30
0.0
 11
497.21948459315735
 21
76.546786910768873
 31
0.0
  0
LINE
  5
2F8
100
AcDbEntity
100
AcDbLine
  8
Flange Etch
 62
256
370
-1
  6
ByLayer
 10
491.90716357844008
 20
77.970219036597243
 30
0.0
 11
492.86941402708942
 21
78.5257745921528
 31
0.0
  0
ARC
  5
2F9
100
AcDbEntity
  8
Flange Etch
 62
256
370
-1
  6
ByLayer
100
AcDbCircle
 10
492.31385847153388
 20
79.488025040802157
 30
0.0
 40
1.1111111111111112
100
AcDbArc
 50
299.99999999999994
 51
119.99999999999999
  0
LINE
  5
2FA
100
AcDbEntity
100
AcDbLine
  8
Flange Etch
 62
256
370
-1
  6
ByLayer
 10
491.75830291597833
 20
80.450275489451556
 30
0.0
 11
490.79605246732893
 21
79.894719933895999
 31
0.0
  0
ARC
  5
2FB
100
AcDbEntity
  8
Flange Etch
 62
256
370
-1
  6
ByLayer
100
AcDbCircle
 10
491.35160802288453
 20
78.9324694852466
 30
0.0
 40
1.1111111111111112
100
AcDbArc
 50
119.99999999999999
 51
299.99999999999994
  0
LINE
  5
2FC
100
AcDbEntity
100
AcDbLine
  8
Flange Etch
 62
256
370
-1
  6
ByLayer
 10
487.55709301237221
 20
79.949206717981184
 30
0.0
 11
491.88722003129442
 21
82.449206717981184
 31
0.0
  0
LINE
  5
2FD
100
AcDbEntity
100
AcDbLine
  8
Flange Etch
 62
256
370
-1
  6
ByLayer
 10
490.20328174615798
 20
81.47698449575897
 30
0.0
 11
487.88935757423519
 21
82.707040948613283
 31
0.0
  0
LINE
  5
2FE
100
AcDbEntity
100
AcDbLine
  8
Flange Etch
 62
256
370
-1
  6
ByLayer
 10
489.43892786642135
 20
81.883106472647427
 30
0.0
 11
490.77610892018333
 21
84.37370761527994
 31
0.0
  0
LINE
  5
2FF
100
AcDbEntity
100
AcDbLine
  8
Flange Etch
 62
256
370
-1
  6
ByLayer
 10
488.49939991387589
 20
84.983749954920668
 30
0.0
 11
487.38828880276481
 21
86.908250852219425
 31
0.0
  0
LINE
  5
300
100
AcDbEntity
100
AcDbLine
  8
Flange Etch
 62
256
370
-1
  6
ByLayer
 10
487.38828880276481
 20
86.908250852219425
 30
0.0
 11
486.90716357844008
 21
86.630473074441639
 31
0.0
  0
ARC
  5
301
100
AcDbEntity
  8
Flange Etch
 62
256
370
-1
  6
ByLayer
100
AcDbCircle
 10
487.46271913399568
 20
85.668222625792239
 30
0.0
 40
1.1111111111111112
100
AcDbArc
 50
119.99999999999999
 51
299.99999999999994
  0
LINE
  5
302
100
AcDbEntity
100
AcDbLine
  8
Flange Etch
 62
256
370
-1
  6
ByLayer
 10
488.01827468955122
 20
84.705972177142883
 30
0.0
 11
489.22108775036293
 21
85.40041662158734
 31
0.0
  0
ARC
  5
303
100
AcDbEntity
  8
Flange Etch
 62
256
370
-1
  6
ByLayer
100
AcDbCircle
 10
488.8044210836963
 20
86.122104458074347
 30
0.0
 40
0.8333333333333334
100
AcDbArc
 50
299.99999999999994
 51
29.999999999999964
  0
LINE
  5
304
100
AcDbEntity
100
AcDbLine
  8
Flange Etch
 62
256
370
-1
  6
ByLayer
 10
489.52610892018333
 20
86.538771124741018
 30
0.0
 11
488.83166447573888
 21
87.741584185552753
 31
0.0
  0
ARC
  5
305
100
AcDbEntity
  8
Flange Etch
 62
256
370
-1
  6
ByLayer
100
AcDbCircle
 10
494.25545237647719
 20
229.01380313911426
 30
0.0
 40
3.6805555555555558
100
AcDbArc
 50
303.06999999999999
 51
330.0
  0
ARC
  5
306
100
AcDbEntity
  8
Flange Etch
 62
256
370
-1
  6
ByLayer
100
AcDbCircle
 10
496.48065653897885
 20
227.72908091689203
 30
0.0
 40
1.1111111111111112
100
AcDbArc
 50
330.0
 51
122.99999999999999
  0
LINE
  5
307
100
AcDbEntity
100
AcDbLine
  8
Flange Etch
 62
256
370
-1
  6
ByLayer
 10
495.87579138923223
 20
228.66142374580318
 30
0.0
 11
494.40211778932422
 21
227.70450175254504
 31
0.0
  0
ARC
  5
308
100
AcDbEntity
  8
Flange Etch
 62
256
370
-1
  6
ByLayer
100
AcDbCircle
 10
493.79725263957761
 20
228.63684458145619
 30
0.0
 40
1.1111111111111112
100
AcDbArc
 50
150.00000000000003
 51
302.97999999999996
  0
ARC
  5
309
100
AcDbEntity
  8
Flange Etch
 62
256
370
-1
  6
ByLayer
100
AcDbCircle
 10
496.02245680207926
 20
227.35212235923399
 30
0.0
 40
3.6805555555555558
100
AcDbArc
 50
123.09999999999998
 51
150.00000000000003
  0
LINE
  5
30A
100
AcDbEntity
100
AcDbLine
  8
Flange Etch
 62
256
370
-1
  6
ByLayer
 10
491.44598190126118
 20
226.78654642256436
 30
0.0
 11
490.75153745681672
 21
225.58373336175262
 31
0.0
  0
ARC
  5
30B
100
AcDbEntity
  8
Flange Etch
 62
256
370
-1
  6
ByLayer
100
AcDbCircle
 10
491.47322529330376
 20
225.16706669508594
 30
0.0
 40
0.8333333333333334
100
AcDbArc
 50
150.00000000000003
 51
239.99999999999997
  0
LINE
  5
30C
100
AcDbEntity
100
AcDbLine
  8
Flange Etch
 62
256
370
-1
  6
ByLayer
 10
491.05655862663713
 20
224.44537885859893
 30
0.0
 11
492.49993429961114
 21
223.61204552526559
 31
0.0
  0
ARC
  5
30D
100
AcDbEntity
  8
Flange Etch
 62
256
370
-1
  6
ByLayer
100
AcDbCircle
 10
492.91660096627783
 20
224.33373336175262
 30
0.0
 40
0.8333333333333334
100
AcDbArc
 50
239.99999999999997
 51
330.0
  0
LINE
  5
30E
100
AcDbEntity
100
AcDbLine
  8
Flange Etch
 62
256
370
-1
  6
ByLayer
 10
493.63828880276486
 20
223.91706669508594
 30
0.0
 11
494.33273324720932
 21
225.11987975589767
 31
0.0
  0
LINE
  5
30F
100
AcDbEntity
100
AcDbLine
  8
Flange Etch
 62
256
370
-1
  6
ByLayer
 10
494.33273324720932
 20
225.11987975589767
 30
0.0
 11
490.00260622828711
 21
227.61987975589767
 31
0.0
  0
LINE
  5
310
100
AcDbEntity
100
AcDbLine
  8
Flange Etch
 62
256
370
-1
  6
ByLayer
 10
491.42603835411546
 20
222.30755874118043
 30
0.0
 11
490.46378790546612
 21
222.86311429673597
 31
0.0
  0
ARC
  5
311
100
AcDbEntity
  8
Flange Etch
 62
256
370
-1
  6
ByLayer
100
AcDbCircle
 10
489.90823234991058
 20
221.90086384808663
 30
0.0
 40
1.1111111111111112
100
AcDbArc
 50
59.999999999999986
 51
239.99999999999997
  0
LINE
  5
312
100
AcDbEntity
100
AcDbLine
  8
Flange Etch
 62
256
370
-1
  6
ByLayer
 10
489.35267679435498
 20
220.93861339943723
 30
0.0
 11
490.31492724300438
 21
220.38305784388166
 31
0.0
  0
ARC
  5
313
100
AcDbEntity
  8
Flange Etch
 62
256
370
-1
  6
ByLayer
100
AcDbCircle
 10
490.87048279855992
 20
221.34530829253109
 30
0.0
 40
1.1111111111111112
100
AcDbArc
 50
239.99999999999997
 51
59.999999999999986
  0
LINE
  5
314
100
AcDbEntity
100
AcDbLine
  8
Flange Etch
 62
256
370
-1
  6
ByLayer
 10
491.88722003129448
 20
217.55079328201873
 30
0.0
 11
487.55709301237226
 21
220.05079328201873
 31
0.0
  0
LINE
  5
315
100
AcDbEntity
100
AcDbLine
  8
Flange Etch
 62
256
370
-1
  6
ByLayer
 10
489.2410312975087
 20
219.0785710597965
 30
0.0
 11
489.33273324720926
 21
216.4596257180533
 31
0.0
  0
LINE
  5
316
100
AcDbEntity
100
AcDbLine
  8
Flange Etch
 62
256
370
-1
  6
ByLayer
 10
489.27149628835645
 20
218.21356019401915
 30
0.0
 11
486.44598190126112
 21
218.12629238471996
 31
0.0
  0
LINE
  5
317
100
AcDbEntity
100
AcDbLine
  8
Flange Etch
 62
256
370
-1
  6
ByLayer
 10
487.05602424090188
 20
215.84958337841258
 30
0.0
 11
485.94491312979073
 21
213.92508248111383
 31
0.0
  0
LINE
  5
318
100
AcDbEntity
100
AcDbLine
  8
Flange Etch
 62
256
370
-1
  6
ByLayer
 10
485.94491312979073
 20
213.92508248111383
 30
0.0
 11
486.42603835411546
 21
213.64730470333603
 31
0.0
  0
ARC
  5
319
100
AcDbEntity
  8
Flange Etch
 62
256
370
-1
  6
ByLayer
100
AcDbCircle
 10
486.98159390967101
 20
214.60955515198546
 30
0.0
 40
1.1111111111111112
100
AcDbArc
 50
239.99999999999997
 51
59.999999999999986
  0
LINE
  5
31A
100
AcDbEntity
100
AcDbLine
  8
Flange Etch
 62
256
370
-1
  6
ByLayer
 10
487.53714946522655
 20
215.5718056006348
 30
0.0
 11
486.33433640441484
 21
216.26625004507923
 31
0.0
  0
ARC
  5
31B
100
AcDbEntity
  8
Flange Etch
 62
256
370
-1
  6
ByLayer
100
AcDbCircle
 10
485.91766973774821
 20
215.54456220859223
 30
0.0
 40
0.8333333333333334
100
AcDbArc
 50
59.999999999999986
 51
150.00000000000003
  0
LINE
  5
31C
100
AcDbEntity
100
AcDbLine
  8
Flange Etch
 62
256
370
-1
  6
ByLayer
 10
485.19598190126112
 20
215.96122887525891
 30
0.0
 11
484.50153745681666
 21
214.75841581444715
 31
0.0
  0
LINE
  5
31D
100
AcDbEntity
100
AcDbLine
  8
Flange Etch
 62
256
370
-1
  6
ByLayer
 10
442.22222222222223
 20
22.499999999999972
 30
0.0
 11
440.0
 21
22.499999999999972
 31
0.0
  0
LINE
  5
31E
100
AcDbEntity
100
AcDbLine
  8
Flange Etch
 62
256
370
-1
  6
ByLayer
 10
440.0
 20
22.499999999999972
 30
0.0
 11
440.0
 21
17.499999999999972
 31
0.0
  0
LINE
  5
31F
100
AcDbEntity
100
AcDbLine
  8
Flange Etch
 62
256
370
-1
  6
ByLayer
 10
440.0
 20
20.27777777777775
 30
0.0
 11
442.22222222222223
 21
20.27777777777775
 31
0.0
  0
LINE
  5
320
100
AcDbEntity
100
AcDbLine
  8
Flange Etch
 62
256
370
-1
  6
ByLayer
 10
443.88888888888891
 20
22.499999999999972
 30
0.0
 11
443.88888888888891
 21
18.055555555555529
 31
0.0
  0
ARC
  5
321
100
AcDbEntity
  8
Flange Etch
 62
256
370
-1
  6
ByLayer
100
AcDbCircle
 10
444.44444444444446
 20
18.055555555555529
 30
0.0
 40
0.5555555555555556
100
AcDbArc
 50
180.0
 51
270.0
  0
LINE
  5
322
100
AcDbEntity
100
AcDbLine
  8
Flange Etch
 62
256
370
-1
  6
ByLayer
 10
446.38888888888886
 20
20.833333333333307
 30
0.0
 11
447.5
 21
20.833333333333307
 31
0.0
  0
ARC
  5
323
100
AcDbEntity
  8
Flange Etch
 62
256
370
-1
  6
ByLayer
100
AcDbCircle
 10
447.5
 20
19.999999999999975
 30
0.0
 40
0.8333333333333334
100
AcDbArc
 50
0.0
 51
90.0
  0
LINE
  5
324
100
AcDbEntity
100
AcDbLine
  8
Flange Etch
 62
256
370
-1
  6
ByLayer
 10
448.33333333333331
 20
19.999999999999975
 30
0.0
 11
448.33333333333331
 21
17.499999999999975
 31
0.0
  0
LINE
  5
325
100
AcDbEntity
100
AcDbLine
  8
Flange Etch
 62
256
370
-1
  6
ByLayer
 10
448.33333333333331
 20
17.499999999999975
 30
0.0
 11
446.9444444444444
 21
17.499999999999975
 31
0.0
  0
ARC
  5
326
100
AcDbEntity
  8
Flange Etch
 62
256
370
-1
  6
ByLayer
100
AcDbCircle
 10
446.9444444444444
 20
18.333333333333307
 30
0.0
 40
0.8333333333333334
100
AcDbArc
 50
90.0
 51
270.0
  0
LINE
  5
327
100
AcDbEntity
100
AcDbLine
  8
Flange Etch
 62
256
370
-1
  6
ByLayer
 10
446.9444444444444
 20
19.166666666666643
 30
0.0
 11
448.33333333333331
 21
19.166666666666643
 31
0.0
  0
LINE
  5
328
100
AcDbEntity
100
AcDbLine
  8
Flange Etch
 62
256
370
-1
  6
ByLayer
 10
450.0
 20
17.499999999999972
 30
0.0
 11
450.0
 21
20.833333333333304
 31
0.0
  0
LINE
  5
329
100
AcDbEntity
100
AcDbLine
  8
Flange Etch
 62
256
370
-1
  6
ByLayer
 10
450.0
 20
20.833333333333304
 30
0.0
 11
451.38888888888891
 21
20.833333333333304
 31
0.0
  0
ARC
  5
32A
100
AcDbEntity
  8
Flange Etch
 62
256
370
-1
  6
ByLayer
100
AcDbCircle
 10
451.38888888888891
 20
19.999999999999972
 30
0.0
 40
0.8333333333333334
100
AcDbArc
 50
0.0
 51
90.0
  0
LINE
  5
32B
100
AcDbEntity
100
AcDbLine
  8
Flange Etch
 62
256
370
-1
  6
ByLayer
 10
452.22222222222223
 20
19.999999999999972
 30
0.0
 11
452.22222222222223
 21
17.499999999999972
 31
0.0
  0
LINE
  5
32C
100
AcDbEntity
100
AcDbLine
  8
Flange Etch
 62
256
370
-1
  6
ByLayer
 10
453.88888888888891
 20
15.833333333333306
 30
0.0
 11
455.27777777777783
 21
15.833333333333306
 31
0.0
  0
ARC
  5
32D
100
AcDbEntity
  8
Flange Etch
 62
256
370
-1
  6
ByLayer
100
AcDbCircle
 10
455.27777777777783
 20
16.666666666666639
 30
0.0
 40
0.8333333333333334
100
AcDbArc
 50
270.0
 51
0.0
  0
LINE
  5
32E
100
AcDbEntity
100
AcDbLine
  8
Flange Etch
 62
256
370
-1
  6
ByLayer
 10
456.11111111111114
 20
16.666666666666639
 30
0.0
 11
456.11111111111114
 21
20.833333333333304
 31
0.0
  0
LINE
  5
32F
100
AcDbEntity
100
AcDbLine
  8
Flange Etch
 62
256
370
-1
  6
ByLayer
 10
456.11111111111114
 20
20.833333333333304
 30
0.0
 11
454.72222222222223
 21
20.833333333333304
 31
0.0
  0
ARC
  5
330
100
AcDbEntity
  8
Flange Etch
 62
256
370
-1
  6
ByLayer
100
AcDbCircle
 10
454.72222222222223
 20
19.999999999999972
 30
0.0
 40
0.8333333333333334
100
AcDbArc
 50
90.0
 51
180.0
  0
LINE
  5
331
100
AcDbEntity
100
AcDbLine
  8
Flange Etch
 62
256
370
-1
  6
ByLayer
 10
453.88888888888891
 20
19.999999999999972
 30
0.0
 11
453.88888888888891
 21
18.333333333333304
 31
0.0
  0
ARC
  5
332
100
AcDbEntity
  8
Flange Etch
 62
256
370
-1
  6
ByLayer
100
AcDbCircle
 10
454.72222222222223
 20
18.333333333333304
 30
0.0
 40
0.8333333333333334
100
AcDbArc
 50
180.0
 51
270.0
  0
LINE
  5
333
100
AcDbEntity
100
AcDbLine
  8
Flange Etch
 62
256
370
-1
  6
ByLayer
 10
454.72222222222223
 20
17.499999999999972
 30
0.0
 11
456.11111111111114
 21
17.499999999999972
 31
0.0
  0
LINE
  5
334
100
AcDbEntity
100
AcDbLine
  8
Flange Etch
 62
256
370
-1
  6
ByLayer
 10
457.77777777777777
 20
19.166666666666643
 30
0.0
 11
460.0
 21
19.166666666666643
 31
0.0
  0
LINE
  5
335
100
AcDbEntity
100
AcDbLine
  8
Flange Etch
 62
256
370
-1
  6
ByLayer
 10
460.0
 20
19.166666666666643
 30
0.0
 11
460.0
 21
19.722222222222197
 31
0.0
  0
ARC
  5
336
100
AcDbEntity
  8
Flange Etch
 62
256
370
-1
  6
ByLayer
100
AcDbCircle
 10
458.88888888888886
 20
19.722222222222197
 30
0.0
 40
1.1111111111111112
100
AcDbArc
 50
0.0
 51
180.0
  0
LINE
  5
337
100
AcDbEntity
100
AcDbLine
  8
Flange Etch
 62
256
370
-1
  6
ByLayer
 10
457.77777777777777
 20
19.722222222222197
 30
0.0
 11
457.77777777777777
 21
18.333333333333307
 31
0.0
  0
ARC
  5
338
100
AcDbEntity
  8
Flange Etch
 62
256
370
-1
  6
ByLayer
100
AcDbCircle
 10
458.61111111111109
 20
18.333333333333307
 30
0.0
 40
0.8333333333333334
100
AcDbArc
 50
180.0
 51
270.0
  0
LINE
  5
339
100
AcDbEntity
100
AcDbLine
  8
Flange Etch
 62
256
370
-1
  6
ByLayer
 10
458.61111111111109
 20
17.499999999999975
 30
0.0
 11
460.0
 21
17.499999999999975
 31
0.0
  0
LINE
  5
33A
100
AcDbEntity
100
AcDbLine
  8
0
 62
256
370
-1
  6
ByLayer
 10
445.0
 20
215.65060821474776
 30
0.0
 11
440.0
 21
215.65060821474779
 31
0.0
  0
LINE
  5
33B
100
AcDbEntity
100
AcDbLine
  8
0
 62
256
370
-1
  6
ByLayer
 10
455.0
 20
215.65060821474776
 30
0.0
 11
460.0
 21
215.65060821474773
 31
0.0
  0
LINE
  5
33C
100
AcDbEntity
100
AcDbLine
  8
0
 62
256
370
-1
  6
ByLayer
 10
445.0
 20
211.15060821474776
 30
0.0
 11
440.0
 21
211.15060821474779
 31
0.0
  0
LINE
  5
33D
100
AcDbEntity
100
AcDbLine
  8
0
 62
256
370
-1
  6
ByLayer
 10
455.0
 20
211.15060821474776
 30
0.0
 11
460.0
 21
211.15060821474773
 31
0.0
  0
LINE
  5
33E
100
AcDbEntity
100
AcDbLine
  8
0
 62
256
370
-1
  6
ByLayer
 10
440.0
 20
215.65060821474779
 30
0.0
 11
440.0
 21
211.15060821474779
 31
0.0
  0
LINE
  5
33F
100
AcDbEntity
100
AcDbLine
  8
0
 62
256
370
-1
  6
ByLayer
 10
460.0
 20
215.65060821474773
 30
0.0
 11
460.0
 21
211.15060821474773
 31
0.0
  0
LINE
  5
340
100
AcDbEntity
100
AcDbLine
  8
0
 62
256
370
-1
  6
ByLayer
 10
445.0
 20
215.65060821474776
 30
0.0
 11
445.0
 21
213.47560821474775
 31
0.0
  0
LINE
  5
341
100
AcDbEntity
100
AcDbLine
  8
0
 62
256
370
-1
  6
ByLayer
 10
445.0
 20
213.32560821474777
 30
0.0
 11
445.0
 21
211.15060821474776
 31
0.0
  0
LINE
  5
342
100
AcDbEntity
100
AcDbLine
  8
0
 62
256
370
-1
  6
ByLayer
 10
445.0
 20
213.32560821474777
 30
0.0
 11
448.50187617334211
 21
213.32560821474777
 31
0.0
  0
LINE
  5
343
100
AcDbEntity
100
AcDbLine
  8
0
 62
256
370
-1
  6
ByLayer
 10
445.0
 20
213.47560821474775
 30
0.0
 11
448.50187617334211
 21
213.47560821474775
 31
0.0
  0
LINE
  5
344
100
AcDbEntity
100
AcDbLine
  8
0
 62
256
370
-1
  6
ByLayer
 10
451.49812382665789
 20
213.47560821474775
 30
0.0
 11
455.0
 21
213.47560821474775
 31
0.0
  0
LINE
  5
345
100
AcDbEntity
100
AcDbLine
  8
0
 62
256
370
-1
  6
ByLayer
 10
451.49812382665789
 20
213.32560821474777
 30
0.0
 11
455.0
 21
213.32560821474777
 31
0.0
  0
ARC
  5
346
100
AcDbEntity
  8
0
 62
256
370
-1
  6
ByLayer
100
AcDbCircle
 10
450.0
 20
213.40060821474776
 30
0.0
 40
1.5
100
AcDbArc
 50
182.86598398259872
 51
357.134016017401
  0
ARC
  5
347
100
AcDbEntity
  8
0
 62
256
370
-1
  6
ByLayer
100
AcDbCircle
 10
450.0
 20
213.40060821474776
 30
0.0
 40
1.5
100
AcDbArc
 50
2.8659839825987761
 51
177.13401601740108
  0
LINE
  5
348
100
AcDbEntity
100
AcDbLine
  8
0
 62
256
370
-1
  6
ByLayer
 10
455.0
 20
215.65060821474776
 30
0.0
 11
455.0
 21
213.47560821474775
 31
0.0
  0
LINE
  5
349
100
AcDbEntity
100
AcDbLine
  8
0
 62
256
370
-1
  6
ByLayer
 10
455.0
 20
213.32560821474777
 30
0.0
 11
455.0
 21
211.15060821474776
 31
0.0
  0
LINE
  5
34A
100
AcDbEntity
100
AcDbLine
  8
0
 62
256
370
-1
  6
ByLayer
 10
390.64490551212907
 20
178.4951770884517
 30
0.0
 11
388.14490551212907
 21
174.16505006952951
 31
0.0
  0
LINE
  5
34B
100
AcDbEntity
100
AcDbLine
  8
0
 62
256
370
-1
  6
ByLayer
 10
395.64490551212907
 20
187.15543112629607
 30
0.0
 11
398.14490551212907
 21
191.48555814521825
 31
0.0
  0
LINE
  5
34C
100
AcDbEntity
100
AcDbLine
  8
0
 62
256
370
-1
  6
ByLayer
 10
394.54201982915902
 20
176.2451770884517
 30
0.0
 11
392.04201982915902
 21
171.91505006952949
 31
0.0
  0
LINE
  5
34D
100
AcDbEntity
100
AcDbLine
  8
0
 62
256
370
-1
  6
ByLayer
 10
399.54201982915907
 20
184.90543112629607
 30
0.0
 11
402.04201982915907
 21
189.23555814521825
 31
0.0
  0
LINE
  5
34E
100
AcDbEntity
100
AcDbLine
  8
0
 62
256
370
-1
  6
ByLayer
 10
388.14490551212907
 20
174.16505006952951
 30
0.0
 11
392.04201982915902
 21
171.91505006952949
 31
0.0
  0
LINE
  5
34F
100
AcDbEntity
100
AcDbLine
  8
0
 62
256
370
-1
  6
ByLayer
 10
398.14490551212907
 20
191.48555814521825
 30
0.0
 11
402.04201982915907
 21
189.23555814521825
 31
0.0
  0
LINE
  5
350
100
AcDbEntity
100
AcDbLine
  8
0
 62
256
370
-1
  6
ByLayer
 10
390.64490551212907
 20
178.4951770884517
 30
0.0
 11
392.52851076536024
 21
177.40767708845169
 31
0.0
  0
LINE
  5
351
100
AcDbEntity
100
AcDbLine
  8
0
 62
256
370
-1
  6
ByLayer
 10
392.65841457592785
 20
177.3326770884517
 30
0.0
 11
394.54201982915902
 21
176.2451770884517
 31
0.0
  0
LINE
  5
352
100
AcDbEntity
100
AcDbLine
  8
0
 62
256
370
-1
  6
ByLayer
 10
392.65841457592785
 20
177.3326770884517
 30
0.0
 11
394.40935266259891
 21
180.3653908154734
 31
0.0
  0
LINE
  5
353
100
AcDbEntity
100
AcDbLine
  8
0
 62
256
370
-1
  6
ByLayer
 10
392.52851076536024
 20
177.40767708845169
 30
0.0
 11
394.27944885203129
 21
180.44039081547339
 31
0.0
  0
LINE
  5
354
100
AcDbEntity
100
AcDbLine
  8
0
 62
256
370
-1
  6
ByLayer
 10
395.77757267868918
 20
183.03521739927436
 30
0.0
 11
397.52851076536024
 21
186.06793112629606
 31
0.0
  0
LINE
  5
355
100
AcDbEntity
100
AcDbLine
  8
0
 62
256
370
-1
  6
ByLayer
 10
395.90747648925685
 20
182.96021739927437
 30
0.0
 11
397.65841457592791
 21
185.99293112629607
 31
0.0
  0
ARC
  5
356
100
AcDbEntity
  8
0
 62
256
370
-1
  6
ByLayer
100
AcDbCircle
 10
395.09346267064404
 20
181.70030410737388
 30
0.0
 40
1.5
100
AcDbArc
 50
242.86598398259875
 51
57.134016017401002
  0
ARC
  5
357
100
AcDbEntity
  8
0
 62
256
370
-1
  6
ByLayer
100
AcDbCircle
 10
395.09346267064404
 20
181.70030410737388
 30
0.0
 40
1.5
100
AcDbArc
 50
62.865983982598749
 51
237.134016017401
  0
LINE
  5
358
100
AcDbEntity
100
AcDbLine
  8
0
 62
256
370
-1
  6
ByLayer
 10
395.64490551212907
 20
187.15543112629607
 30
0.0
 11
397.52851076536024
 21
186.06793112629606
 31
0.0
  0
LINE
  5
359
100
AcDbEntity
100
AcDbLine
  8
0
 62
256
370
-1
  6
ByLayer
 10
397.65841457592791
 20
185.99293112629607
 30
0.0
 11
399.54201982915907
 21
184.90543112629607
 31
0.0
  0
LINE
  5
35A
100
AcDbEntity
100
AcDbLine
  8
0
 62
256
370
-1
  6
ByLayer
 10
395.64490551212907
 20
112.84456887370392
 30
0.0
 11
398.14490551212907
 21
108.51444185478172
 31
0.0
  0
LINE
  5
35B
100
AcDbEntity
100
AcDbLine
  8
0
 62
256
370
-1
  6
ByLayer
 10
390.64490551212907
 20
121.50482291154832
 30
0.0
 11
388.14490551212907
 21
125.83494993047051
 31
0.0
  0
LINE
  5
35C
100
AcDbEntity
100
AcDbLine
  8
0
 62
256
370
-1
  6
ByLayer
 10
399.54201982915902
 20
115.09456887370391
 30
0.0
 11
402.04201982915902
 21
110.76444185478171
 31
0.0
  0
LINE
  5
35D
100
AcDbEntity
100
AcDbLine
  8
0
 62
256
370
-1
  6
ByLayer
 10
394.54201982915907
 20
123.7548229115483
 30
0.0
 11
392.04201982915907
 21
128.08494993047051
 31
0.0
  0
LINE
  5
35E
100
AcDbEntity
100
AcDbLine
  8
0
 62
256
370
-1
  6
ByLayer
 10
398.14490551212907
 20
108.51444185478172
 30
0.0
 11
402.04201982915902
 21
110.76444185478171
 31
0.0
  0
LINE
  5
35F
100
AcDbEntity
100
AcDbLine
  8
0
 62
256
370
-1
  6
ByLayer
 10
388.14490551212907
 20
125.83494993047051
 30
0.0
 11
392.04201982915907
 21
128.08494993047051
 31
0.0
  0
LINE
  5
360
100
AcDbEntity
100
AcDbLine
  8
0
 62
256
370
-1
  6
ByLayer
 10
395.64490551212907
 20
112.84456887370392
 30
0.0
 11
397.52851076536024
 21
113.93206887370391
 31
0.0
  0
LINE
  5
361
100
AcDbEntity
100
AcDbLine
  8
0
 62
256
370
-1
  6
ByLayer
 10
397.65841457592791
 20
114.00706887370391
 30
0.0
 11
399.54201982915902
 21
115.09456887370391
 31
0.0
  0
LINE
  5
362
100
AcDbEntity
100
AcDbLine
  8
0
 62
256
370
-1
  6
ByLayer
 10
397.65841457592791
 20
114.00706887370391
 30
0.0
 11
395.90747648925685
 21
117.03978260072563
 31
0.0
  0
LINE
  5
363
100
AcDbEntity
100
AcDbLine
  8
0
 62
256
370
-1
  6
ByLayer
 10
397.52851076536024
 20
113.93206887370391
 30
0.0
 11
395.77757267868918
 21
116.96478260072563
 31
0.0
  0
LINE
  5
364
100
AcDbEntity
100
AcDbLine
  8
0
 62
256
370
-1
  6
ByLayer
 10
394.27944885203129
 20
119.55960918452661
 30
0.0
 11
392.52851076536024
 21
122.59232291154831
 31
0.0
  0
LINE
  5
365
100
AcDbEntity
100
AcDbLine
  8
0
 62
256
370
-1
  6
ByLayer
 10
394.40935266259896
 20
119.6346091845266
 30
0.0
 11
392.65841457592791
 21
122.66732291154831
 31
0.0
  0
ARC
  5
366
100
AcDbEntity
  8
0
 62
256
370
-1
  6
ByLayer
100
AcDbCircle
 10
395.09346267064404
 20
118.29969589262612
 30
0.0
 40
1.5
100
AcDbArc
 50
302.86598398259866
 51
117.13401601740104
  0
ARC
  5
367
100
AcDbEntity
  8
0
 62
256
370
-1
  6
ByLayer
100
AcDbCircle
 10
395.09346267064404
 20
118.29969589262612
 30
0.0
 40
1.5
100
AcDbArc
 50
122.86598398259872
 51
297.13401601740105
  0
LINE
  5
368
100
AcDbEntity
100
AcDbLine
  8
0
 62
256
370
-1
  6
ByLayer
 10
390.64490551212907
 20
121.50482291154832
 30
0.0
 11
392.52851076536024
 21
122.59232291154831
 31
0.0
  0
LINE
  5
369
100
AcDbEntity
100
AcDbLine
  8
0
 62
256
370
-1
  6
ByLayer
 10
392.65841457592791
 20
122.66732291154831
 30
0.0
 11
394.54201982915907
 21
123.7548229115483
 31
0.0
  0
LINE
  5
36A
100
AcDbEntity
100
AcDbLine
  8
0
 62
256
370
-1
  6
ByLayer
 10
455.0
 20
84.34939178525218
 30
0.0
 11
460.0
 21
84.34939178525218
 31
0.0
  0
LINE
  5
36B
100
AcDbEntity
100
AcDbLine
  8
0
 62
256
370
-1
  6
ByLayer
 10
445.0
 20
84.349391785252209
 30
0.0
 11
440.0
 21
84.349391785252209
 31
0.0
  0
LINE
  5
36C
100
AcDbEntity
100
AcDbLine
  8
0
 62
256
370
-1
  6
ByLayer
 10
455.0
 20
88.84939178525218
 30
0.0
 11
460.0
 21
88.84939178525218
 31
0.0
  0
LINE
  5
36D
100
AcDbEntity
100
AcDbLine
  8
0
 62
256
370
-1
  6
ByLayer
 10
445.0
 20
88.849391785252209
 30
0.0
 11
440.0
 21
88.849391785252223
 31
0.0
  0
LINE
  5
36E
100
AcDbEntity
100
AcDbLine
  8
0
 62
256
370
-1
  6
ByLayer
 10
460.0
 20
84.34939178525218
 30
0.0
 11
460.0
 21
88.84939178525218
 31
0.0
  0
LINE
  5
36F
100
AcDbEntity
100
AcDbLine
  8
0
 62
256
370
-1
  6
ByLayer
 10
440.0
 20
84.349391785252209
 30
0.0
 11
440.0
 21
88.849391785252223
 31
0.0
  0
LINE
  5
370
100
AcDbEntity
100
AcDbLine
  8
0
 62
256
370
-1
  6
ByLayer
 10
455.0
 20
84.34939178525218
 30
0.0
 11
455.0
 21
86.524391785252178
 31
0.0
  0
LINE
  5
371
100
AcDbEntity
100
AcDbLine
  8
0
 62
256
370
-1
  6
ByLayer
 10
455.0
 20
86.674391785252183
 30
0.0
 11
455.0
 21
88.84939178525218
 31
0.0
  0
LINE
  5
372
100
AcDbEntity
100
AcDbLine
  8
0
 62
256
370
-1
  6
ByLayer
 10
455.0
 20
86.674391785252183
 30
0.0
 11
451.49812382665789
 21
86.674391785252197
 31
0.0
  0
LINE
  5
373
100
AcDbEntity
100
AcDbLine
  8
0
 62
256
370
-1
  6
ByLayer
 10
455.0
 20
86.524391785252178
 30
0.0
 11
451.49812382665789
 21
86.524391785252192
 31
0.0
  0
LINE
  5
374
100
AcDbEntity
100
AcDbLine
  8
0
 62
256
370
-1
  6
ByLayer
 10
448.50187617334211
 20
86.524391785252192
 30
0.0
 11
445.0
 21
86.524391785252206
 31
0.0
  0
LINE
  5
375
100
AcDbEntity
100
AcDbLine
  8
0
 62
256
370
-1
  6
ByLayer
 10
448.50187617334211
 20
86.674391785252197
 30
0.0
 11
445.0
 21
86.674391785252212
 31
0.0
  0
ARC
  5
376
100
AcDbEntity
  8
0
 62
256
370
-1
  6
ByLayer
100
AcDbCircle
 10
450.0
 20
86.599391785252195
 30
0.0
 40
1.5
100
AcDbArc
 50
2.865983982598725
 51
177.13401601740097
  0
ARC
  5
377
100
AcDbEntity
  8
0
 62
256
370
-1
  6
ByLayer
100
AcDbCircle
 10
450.0
 20
86.599391785252195
 30
0.0
 40
1.5
100
AcDbArc
 50
182.86598398259875
 51
357.13401601740105
  0
LINE
  5
378
100
AcDbEntity
100
AcDbLine
  8
0
 62
256
370
-1
  6
ByLayer
 10
445.0
 20
84.349391785252209
 30
0.0
 11
445.0
 21
86.524391785252206
 31
0.0
  0
LINE
  5
379
100
AcDbEntity
100
AcDbLine
  8
0
 62
256
370
-1
  6
ByLayer
 10
445.0
 20
86.674391785252212
 30
0.0
 11
445.0
 21
88.849391785252209
 31
0.0
  0
LINE
  5
37A
100
AcDbEntity
100
AcDbLine
  8
0
 62
256
370
-1
  6
ByLayer
 10
509.35509448787087
 20
121.50482291154822
 30
0.0
 11
511.85509448787087
 21
125.83494993047042
 31
0.0
  0
LINE
  5
37B
100
AcDbEntity
100
AcDbLine
  8
0
 62
256
370
-1
  6
ByLayer
 10
504.35509448787087
 20
112.84456887370385
 30
0.0
 11
501.85509448787082
 21
108.51444185478161
 31
0.0
  0
LINE
  5
37C
100
AcDbEntity
100
AcDbLine
  8
0
 62
256
370
-1
  6
ByLayer
 10
505.45798017084093
 20
123.75482291154823
 30
0.0
 11
507.95798017084093
 21
128.08494993047043
 31
0.0
  0
LINE
  5
37D
100
AcDbEntity
100
AcDbLine
  8
0
 62
256
370
-1
  6
ByLayer
 10
500.45798017084087
 20
115.09456887370385
 30
0.0
 11
497.95798017084087
 21
110.76444185478161
 31
0.0
  0
LINE
  5
37E
100
AcDbEntity
100
AcDbLine
  8
0
 62
256
370
-1
  6
ByLayer
 10
511.85509448787087
 20
125.83494993047042
 30
0.0
 11
507.95798017084093
 21
128.08494993047043
 31
0.0
  0
LINE
  5
37F
100
AcDbEntity
100
AcDbLine
  8
0
 62
256
370
-1
  6
ByLayer
 10
501.85509448787082
 20
108.51444185478161
 30
0.0
 11
497.95798017084087
 21
110.76444185478161
 31
0.0
  0
LINE
  5
380
100
AcDbEntity
100
AcDbLine
  8
0
 62
256
370
-1
  6
ByLayer
 10
509.35509448787087
 20
121.50482291154822
 30
0.0
 11
507.47148923463971
 21
122.59232291154822
 31
0.0
  0
LINE
  5
381
100
AcDbEntity
100
AcDbLine
  8
0
 62
256
370
-1
  6
ByLayer
 10
507.34158542407204
 20
122.66732291154823
 30
0.0
 11
505.45798017084093
 21
123.75482291154823
 31
0.0
  0
LINE
  5
382
100
AcDbEntity
100
AcDbLine
  8
0
 62
256
370
-1
  6
ByLayer
 10
507.34158542407204
 20
122.66732291154823
 30
0.0
 11
505.59064733740098
 21
119.63460918452652
 31
0.0
  0
LINE
  5
383
100
AcDbEntity
100
AcDbLine
  8
0
 62
256
370
-1
  6
ByLayer
 10
507.47148923463971
 20
122.59232291154822
 30
0.0
 11
505.72055114796865
 21
119.55960918452652
 31
0.0
  0
LINE
  5
384
100
AcDbEntity
100
AcDbLine
  8
0
 62
256
370
-1
  6
ByLayer
 10
504.22242732131076
 20
116.96478260072556
 30
0.0
 11
502.47148923463971
 21
113.93206887370384
 31
0.0
  0
LINE
  5
385
100
AcDbEntity
100
AcDbLine
  8
0
 62
256
370
-1
  6
ByLayer
 10
504.09252351074309
 20
117.03978260072556
 30
0.0
 11
502.34158542407204
 21
114.00706887370384
 31
0.0
  0
ARC
  5
386
100
AcDbEntity
  8
0
 62
256
370
-1
  6
ByLayer
100
AcDbCircle
 10
504.9065373293559
 20
118.29969589262603
 30
0.0
 40
1.5
100
AcDbArc
 50
62.865983982598756
 51
237.13401601740111
  0
ARC
  5
387
100
AcDbEntity
  8
0
 62
256
370
-1
  6
ByLayer
100
AcDbCircle
 10
504.9065373293559
 20
118.29969589262603
 30
0.0
 40
1.5
100
AcDbArc
 50
242.86598398259881
 51
57.134016017401102
  0
LINE
  5
388
100
AcDbEntity
100
AcDbLine
  8
0
 62
256
370
-1
  6
ByLayer
 10
504.35509448787087
 20
112.84456887370385
 30
0.0
 11
502.47148923463971
 21
113.93206887370384
 31
0.0
  0
LINE
  5
389
100
AcDbEntity
100
AcDbLine
  8
0
 62
256
370
-1
  6
ByLayer
 10
502.34158542407204
 20
114.00706887370384
 30
0.0
 11
500.45798017084087
 21
115.09456887370385
 31
0.0
  0
LINE
  5
38A
100
AcDbEntity
100
AcDbLine
  8
0
 62
256
370
-1
  6
ByLayer
 10
504.35509448787093
 20
187.15543112629604
 30
0.0
 11
501.85509448787093
 21
191.48555814521822
 31
0.0
  0
LINE
  5
38B
100
AcDbEntity
100
AcDbLine
  8
0
 62
256
370
-1
  6
ByLayer
 10
509.35509448787093
 20
178.49517708845161
 30
0.0
 11
511.85509448787093
 21
174.16505006952943
 31
0.0
  0
LINE
  5
38C
100
AcDbEntity
100
AcDbLine
  8
0
 62
256
370
-1
  6
ByLayer
 10
500.45798017084098
 20
184.90543112629604
 30
0.0
 11
497.95798017084098
 21
189.23555814521822
 31
0.0
  0
LINE
  5
38D
100
AcDbEntity
100
AcDbLine
  8
0
 62
256
370
-1
  6
ByLayer
 10
505.45798017084093
 20
176.24517708845164
 30
0.0
 11
507.95798017084093
 21
171.91505006952943
 31
0.0
  0
LINE
  5
38E
100
AcDbEntity
100
AcDbLine
  8
0
 62
256
370
-1
  6
ByLayer
 10
501.85509448787093
 20
191.48555814521822
 30
0.0
 11
497.95798017084098
 21
189.23555814521822
 31
0.0
  0
LINE
  5
38F
100
AcDbEntity
100
AcDbLine
  8
0
 62
256
370
-1
  6
ByLayer
 10
511.85509448787093
 20
174.16505006952943
 30
0.0
 11
507.95798017084093
 21
171.91505006952943
 31
0.0
  0
LINE
  5
390
100
AcDbEntity
100
AcDbLine
  8
0
 62
256
370
-1
  6
ByLayer
 10
504.35509448787093
 20
187.15543112629604
 30
0.0
 11
502.47148923463976
 21
186.06793112629603
 31
0.0
  0
LINE
  5
391
100
AcDbEntity
100
AcDbLine
  8
0
 62
256
370
-1
  6
ByLayer
 10
502.34158542407215
 20
185.99293112629604
 30
0.0
 11
500.45798017084098
 21
184.90543112629604
 31
0.0
  0
LINE
  5
392
100
AcDbEntity
100
AcDbLine
  8
0
 62
256
370
-1
  6
ByLayer
 10
502.34158542407215
 20
185.99293112629604
 30
0.0
 11
504.09252351074315
 21
182.96021739927431
 31
0.0
  0
LINE
  5
393
100
AcDbEntity
100
AcDbLine
  8
0
 62
256
370
-1
  6
ByLayer
 10
502.47148923463976
 20
186.06793112629603
 30
0.0
 11
504.22242732131082
 21
183.0352173992743
 31
0.0
  0
LINE
  5
394
100
AcDbEntity
100
AcDbLine
  8
0
 62
256
370
-1
  6
ByLayer
 10
505.72055114796871
 20
180.44039081547334
 30
0.0
 11
507.47148923463976
 21
177.40767708845163
 31
0.0
  0
LINE
  5
395
100
AcDbEntity
100
AcDbLine
  8
0
 62
256
370
-1
  6
ByLayer
 10
505.59064733740104
 20
180.36539081547335
 30
0.0
 11
507.34158542407209
 21
177.33267708845165
 31
0.0
  0
ARC
  5
396
100
AcDbEntity
  8
0
 62
256
370
-1
  6
ByLayer
100
AcDbCircle
 10
504.90653732935596
 20
181.70030410737382
 30
0.0
 40
1.5
100
AcDbArc
 50
122.86598398259869
 51
297.13401601740105
  0
ARC
  5
397
100
AcDbEntity
  8
0
 62
256
370
-1
  6
ByLayer
100
AcDbCircle
 10
504.90653732935596
 20
181.70030410737382
 30
0.0
 40
1.5
100
AcDbArc
 50
302.86598398259872
 51
117.13401601740104
  0
LINE
  5
398
100
AcDbEntity
100
AcDbLine
  8
0
 62
256
370
-1
  6
ByLayer
 10
509.35509448787093
 20
178.49517708845161
 30
0.0
 11
507.47148923463976
 21
177.40767708845163
 31
0.0
  0
LINE
  5
399
100
AcDbEntity
100
AcDbLine
  8
0
 62
256
370
-1
  6
ByLayer
 10
507.34158542407209
 20
177.33267708845165
 30
0.0
 11
505.45798017084093
 21
176.24517708845164
 31
0.0
  0
ENDSEC
  0
SECTION
  2
OBJECTS
  0
DICTIONARY
  5
C
100
AcDbDictionary
280
0
281
1
  3
ACAD_GROUP
350
D
  3
ACAD_LAYOUT
350
1A
  3
ACAD_MLINESTYLE
350
17
  3
ACAD_PLOTSETTINGS
350
19
  3
ACAD_PLOTSTYLENAME
350
E
  3
AcDbVariableDictionary
350
39A
  0
DICTIONARY
  5
D
100
AcDbDictionary
280
0
281
1
  0
ACDBDICTIONARYWDFLT
  5
E
100
AcDbDictionary
281
1
  3
Normal
350
F
100
AcDbDictionaryWithDefault
340
F
  0
ACDBPLACEHOLDER
  5
F
  0
DICTIONARY
  5
17
100
AcDbDictionary
280
0
281
1
  3
Standard
350
18
  0
MLINESTYLE
  5
18
100
AcDbMlineStyle
  2
STANDARD
 70
0
  3

 62
256
 51
90.0
 52
90.0
 71
2
 49
0.5
 62
256
  6
BYLAYER
 49
-0.5
 62
256
  6
BYLAYER
  0
DICTIONARY
  5
19
100
AcDbDictionary
280
0
281
1
  0
DICTIONARY
  5
1A
100
AcDbDictionary
281
1
  3
Layout1
350
1E
  3
Layout2
350
26
  3
Model
350
22
  0
LAYOUT
  5
1E
100
AcDbPlotSettings
  1

  2
C:\Program Files\AutoCAD 2002\plotters\DWF ePlot (optimized for plotting).pc3
  4

  6

 40
0.0
 41
0.0
 42
0.0
 43
0.0
 44
0.0
 45
0.0
 46
0.0
 47
0.0
 48
0.0
 49
0.0
140
0.0
141
0.0
142
1.0
143
1.0
 70
688
 72
0
 73
0
 74
5
  7

 75
16
147
1.0
148
0.0
149
0.0
100
AcDbLayout
  1
Layout1
 70
1
 71
1
 10
0.0
 20
0.0
 11
420.0
 21
297.0
 12
0.0
 22
0.0
 32
0.0
 14
100000000000000000000.0
 24
100000000000000000000.0
 34
100000000000000000000.0
 15
-100000000000000000000.0
 25
-100000000000000000000.0
 35
-100000000000000000000.0
146
0.0
 13
0.0
 23
0.0
 33
0.0
 16
1.0
 26
0.0
 36
0.0
 17
0.0
 27
1.0
 37
0.0
 76
0
330
1B
  0
LAYOUT
  5
22
100
AcDbPlotSettings
  1

  2
C:\Program Files\AutoCAD 2002\plotters\DWF ePlot (optimized for plotting).pc3
  4

  6

 40
0.0
 41
0.0
 42
0.0
 43
0.0
 44
0.0
 45
0.0
 46
0.0
 47
0.0
 48
0.0
 49
0.0
140
0.0
141
0.0
142
1.0
143
1.0
 70
1712
 72
0
 73
0
 74
0
  7

 75
0
147
1.0
148
0.0
149
0.0
100
AcDbLayout
  1
Model
 70
1
 71
0
 10
0.0
 20
0.0
 11
12.0
 21
9.0
 12
0.0
 22
0.0
 32
0.0
 14
0.0
 24
0.0
 34
0.0
 15
0.0
 25
0.0
 35
0.0
146
0.0
 13
0.0
 23
0.0
 33
0.0
 16
1.0
 26
0.0
 36
0.0
 17
0.0
 27
1.0
 37
0.0
 76
0
330
1F
  0
LAYOUT
  5
26
100
AcDbPlotSettings
  1

  2
C:\Program Files\AutoCAD 2002\plotters\DWF ePlot (optimized for plotting).pc3
  4

  6

 40
0.0
 41
0.0
 42
0.0
 43
0.0
 44
0.0
 45
0.0
 46
0.0
 47
0.0
 48
0.0
 49
0.0
140
0.0
141
0.0
142
1.0
143
1.0
 70
688
 72
0
 73
0
 74
5
  7

 75
16
147
1.0
148
0.0
149
0.0
100
AcDbLayout
  1
Layout2
 70
1
 71
2
 10
0.0
 20
0.0
 11
12.0
 21
9.0
 12
0.0
 22
0.0
 32
0.0
 14
0.0
 24
0.0
 34
0.0
 15
0.0
 25
0.0
 35
0.0
146
0.0
 13
0.0
 23
0.0
 33
0.0
 16
1.0
 26
0.0
 36
0.0
 17
0.0
 27
1.0
 37
0.0
 76
0
330
23
  0
DICTIONARY
  5
39A
100
AcDbDictionary
281
1
  3
DIMASSOC
350
39C
  3
HIDETEXT
350
39B
  0
DICTIONARYVAR
  5
39B
100
DictionaryVariables
280
0
  1
2
  0
DICTIONARYVAR
  5
39C
100
DictionaryVariables
280
0
  1
1
  0
ENDSEC
  0
EOF
