999
dxflib 2.2.0.0
  0
SECTION
  2
HEADER
  9
$ACADVER
  1
AC1015
  9
$HANDSEED
  5
FFFF
  9
$DIMASZ
 40
2.5
  9
$PLIMMIN
 10
0.0
 20
0.0
  9
$DIMEXE
 40
1.25
  9
$DIMGAP
 40
0.625
  9
$PLIMMAX
 10
210.0
 20
297.0
  9
$INSUNITS
 70
4
  9
$DIMSTYLE
  2
Standard
  9
$CLAYER
  8
0
  9
$DIMEXO
 40
0.625
  9
$DIMTXT
 40
2.5
  9
$CLAYER
  8
0
  0
ENDSEC
  0
SECTION
  2
TABLES
  0
TABLE
  2
VPORT
  5
8
100
AcDbSymbolTable
 70
1
  0
VPORT
  5
30
100
AcDbSymbolTableRecord
100
AcDbViewportTableRecord
  2
*Active
 70
0
 10
0.0
 20
0.0
 11
1.0
 21
1.0
 12
286.3055555555554861
 22
148.5
 13
0.0
 23
0.0
 14
10.0
 24
10.0
 15
10.0
 25
10.0
 16
0.0
 26
0.0
 36
1.0
 17
0.0
 27
0.0
 37
0.0
 40
297.0
 41
1.92798353909465
 42
50.0
 43
0.0
 44
0.0
 50
0.0
 51
0.0
 71
0
 72
100
 73
1
 74
3
 75
1
 76
1
 77
0
 78
0
281
0
 65
1
110
0.0
120
0.0
130
0.0
111
1.0
121
0.0
131
0.0
112
0.0
122
1.0
132
0.0
 79
0
146
0.0
  0
ENDTAB
  0
TABLE
  2
LTYPE
  5
5
100
AcDbSymbolTable
 70
21
  0
LTYPE
  5
14
100
AcDbSymbolTableRecord
100
AcDbLinetypeTableRecord
  2
ByBlock
 70
0
  3

 72
65
 73
0
 40
0.0
  0
LTYPE
  5
15
100
AcDbSymbolTableRecord
100
AcDbLinetypeTableRecord
  2
ByLayer
 70
0
  3

 72
65
 73
0
 40
0.0
  0
LTYPE
  5
16
100
AcDbSymbolTableRecord
100
AcDbLinetypeTableRecord
  2
CONTINUOUS
 70
0
  3
Solid line
 72
65
 73
0
 40
0.0
  0
LTYPE
  5
31
100
AcDbSymbolTableRecord
100
AcDbLinetypeTableRecord
  2
DOT
 70
0
  3
Dot . . . . . . . . . . . . . . . . . . . . . .
 72
65
 73
2
 40
6.3499999999999996
 49
0.0
 74
0
 49
-6.3499999999999996
 74
0
  0
LTYPE
  5
32
100
AcDbSymbolTableRecord
100
AcDbLinetypeTableRecord
  2
DOT2
 70
0
  3
Dot (.5x) .....................................
 72
65
 73
2
 40
3.1749999999999998
 49
0.0
 74
0
 49
-3.1749999999999998
 74
0
  0
LTYPE
  5
33
100
AcDbSymbolTableRecord
100
AcDbLinetypeTableRecord
  2
DOTX2
 70
0
  3
Dot (2x) .  .  .  .  .  .  .  .  .  .  .  .  .
 72
65
 73
2
 40
12.6999999999999993
 49
0.0
 74
0
 49
-12.6999999999999993
 74
0
  0
LTYPE
  5
34
100
AcDbSymbolTableRecord
100
AcDbLinetypeTableRecord
  2
DASHED
 70
0
  3
Dashed __ __ __ __ __ __ __ __ __ __ __ __ __ _
 72
65
 73
2
 40
19.0500000000000007
 49
12.6999999999999993
 74
0
 49
-6.3499999999999996
 74
0
  0
LTYPE
  5
35
100
AcDbSymbolTableRecord
100
AcDbLinetypeTableRecord
  2
DASHED2
 70
0
  3
Dashed (.5x) _ _ _ _ _ _ _ _ _ _ _ _ _ _ _ _ _
 72
65
 73
2
 40
9.5250000000000004
 49
6.3499999999999996
 74
0
 49
-3.1749999999999998
 74
0
  0
LTYPE
  5
36
100
AcDbSymbolTableRecord
100
AcDbLinetypeTableRecord
  2
DASHEDX2
 70
0
  3
Dashed (2x) ____  ____  ____  ____  ____  ___
 72
65
 73
2
 40
38.1000000000000014
 49
25.3999999999999986
 74
0
 49
-12.6999999999999993
 74
0
  0
LTYPE
  5
37
100
AcDbSymbolTableRecord
100
AcDbLinetypeTableRecord
  2
DASHDOT
 70
0
  3
Dash dot __ . __ . __ . __ . __ . __ . __ . __
 72
65
 73
4
 40
25.3999999999999986
 49
12.6999999999999993
 74
0
 49
-6.3499999999999996
 74
0
 49
0.0
 74
0
 49
-6.3499999999999996
 74
0
  0
LTYPE
  5
38
100
AcDbSymbolTableRecord
100
AcDbLinetypeTableRecord
  2
DASHDOT2
 70
0
  3
Dash dot (.5x) _._._._._._._._._._._._._._._.
 72
65
 73
4
 40
12.6999999999999993
 49
6.3499999999999996
 74
0
 49
-3.1749999999999998
 74
0
 49
0.0
 74
0
 49
-3.1749999999999998
 74
0
  0
LTYPE
  5
39
100
AcDbSymbolTableRecord
100
AcDbLinetypeTableRecord
  2
DASHDOTX2
 70
0
  3
Dash dot (2x) ____  .  ____  .  ____  .  ___
 72
65
 73
4
 40
50.7999999999999972
 49
25.3999999999999986
 74
0
 49
-12.6999999999999993
 74
0
 49
0.0
 74
0
 49
-12.6999999999999993
 74
0
  0
LTYPE
  5
3A
100
AcDbSymbolTableRecord
100
AcDbLinetypeTableRecord
  2
DIVIDE
 70
0
  3
Divide ____ . . ____ . . ____ . . ____ . . ____
 72
65
 73
6
 40
31.75
 49
12.6999999999999993
 74
0
 49
-6.3499999999999996
 74
0
 49
0.0
 74
0
 49
-6.3499999999999996
 74
0
 49
0.0
 74
0
 49
-6.3499999999999996
 74
0
  0
LTYPE
  5
3B
100
AcDbSymbolTableRecord
100
AcDbLinetypeTableRecord
  2
DIVIDE2
 70
0
  3
Divide (.5x) __..__..__..__..__..__..__..__.._
 72
65
 73
6
 40
15.875
 49
6.3499999999999996
 74
0
 49
-3.1749999999999998
 74
0
 49
0.0
 74
0
 49
-3.1749999999999998
 74
0
 49
0.0
 74
0
 49
-3.1749999999999998
 74
0
  0
LTYPE
  5
3C
100
AcDbSymbolTableRecord
100
AcDbLinetypeTableRecord
  2
DIVIDEX2
 70
0
  3
Divide (2x) ________  .  .  ________  .  .  _
 72
65
 73
6
 40
63.5
 49
25.3999999999999986
 74
0
 49
-12.6999999999999993
 74
0
 49
0.0
 74
0
 49
-12.6999999999999993
 74
0
 49
0.0
 74
0
 49
-12.6999999999999993
 74
0
  0
LTYPE
  5
3D
100
AcDbSymbolTableRecord
100
AcDbLinetypeTableRecord
  2
CENTER
 70
0
  3
Center ____ _ ____ _ ____ _ ____ _ ____ _ ____
 72
65
 73
4
 40
50.7999999999999972
 49
31.75
 74
0
 49
-6.3499999999999996
 74
0
 49
6.3499999999999996
 74
0
 49
-6.3499999999999996
 74
0
  0
LTYPE
  5
3E
100
AcDbSymbolTableRecord
100
AcDbLinetypeTableRecord
  2
CENTER2
 70
0
  3
Center (.5x) ___ _ ___ _ ___ _ ___ _ ___ _ ___
 72
65
 73
4
 40
28.5749999999999993
 49
19.0500000000000007
 74
0
 49
-3.1749999999999998
 74
0
 49
3.1749999999999998
 74
0
 49
-3.1749999999999998
 74
0
  0
LTYPE
  5
3F
100
AcDbSymbolTableRecord
100
AcDbLinetypeTableRecord
  2
CENTERX2
 70
0
  3
Center (2x) ________  __  ________  __  _____
 72
65
 73
4
 40
101.5999999999999943
 49
63.5
 74
0
 49
-12.6999999999999993
 74
0
 49
12.6999999999999993
 74
0
 49
-12.6999999999999993
 74
0
  0
LTYPE
  5
40
100
AcDbSymbolTableRecord
100
AcDbLinetypeTableRecord
  2
BORDER
 70
0
  3
Border __ __ . __ __ . __ __ . __ __ . __ __ .
 72
65
 73
6
 40
44.4500000000000028
 49
12.6999999999999993
 74
0
 49
-6.3499999999999996
 74
0
 49
12.6999999999999993
 74
0
 49
-6.3499999999999996
 74
0
 49
0.0
 74
0
 49
-6.3499999999999996
 74
0
  0
LTYPE
  5
41
100
AcDbSymbolTableRecord
100
AcDbLinetypeTableRecord
  2
BORDER2
 70
0
  3
Border (.5x) __.__.__.__.__.__.__.__.__.__.__.
 72
65
 73
6
 40
22.2250000000000014
 49
6.3499999999999996
 74
0
 49
-3.1749999999999998
 74
0
 49
6.3499999999999996
 74
0
 49
-3.1749999999999998
 74
0
 49
0.0
 74
0
 49
-3.1749999999999998
 74
0
  0
LTYPE
  5
42
100
AcDbSymbolTableRecord
100
AcDbLinetypeTableRecord
  2
BORDERX2
 70
0
  3
Border (2x) ____  ____  .  ____  ____  .  ___
 72
65
 73
6
 40
88.9000000000000057
 49
25.3999999999999986
 74
0
 49
-12.6999999999999993
 74
0
 49
25.3999999999999986
 74
0
 49
-12.6999999999999993
 74
0
 49
0.0
 74
0
 49
-12.6999999999999993
 74
0
  0
ENDTAB
  0
TABLE
  2
LAYER
  5
2
100
AcDbSymbolTable
 70
5
  0
LAYER
  5
10
100
AcDbSymbolTableRecord
100
AcDbLayerTableRecord
  2
0
 70
0
 62
7
420
0
  6
CONTINUOUS
370
25
390
F
  0
LAYER
  5
43
100
AcDbSymbolTableRecord
100
AcDbLayerTableRecord
  2
Etch
 70
0
 62
1
420
16711680
  6
CONTINUOUS
370
0
390
F
  0
LAYER
  5
44
100
AcDbSymbolTableRecord
100
AcDbLayerTableRecord
  2
Top
 70
0
 62
7
420
0
  6
CONTINUOUS
370
0
390
F
  0
LAYER
  5
45
100
AcDbSymbolTableRecord
100
AcDbLayerTableRecord
  2
Flange Etch
 70
1
 62
-1
420
16711680
  6
CONTINUOUS
370
0
390
F
  0
LAYER
  5
46
100
AcDbSymbolTableRecord
100
AcDbLayerTableRecord
  2
Bottom
 70
0
 62
7
420
0
  6
CONTINUOUS
370
0
390
F
  0
ENDTAB
  0
TABLE
  2
STYLE
  5
3
100
AcDbSymbolTable
 70
1
  0
STYLE
  5
11
100
AcDbSymbolTableRecord
100
AcDbTextStyleTableRecord
  2
Standard
 70
0
 40
0.0
 41
0.75
 50
0.0
 71
0
 42
2.5
  3
txt
  4

  0
ENDTAB
  0
TABLE
  2
VIEW
  5
6
100
AcDbSymbolTable
 70
0
  0
ENDTAB
  0
TABLE
  2
UCS
  5
7
100
AcDbSymbolTable
 70
0
  0
ENDTAB
  0
TABLE
  2
APPID
  5
9
100
AcDbSymbolTable
 70
1
  0
APPID
  5
12
100
AcDbSymbolTableRecord
100
AcDbRegAppTableRecord
  2
ACAD
 70
0
  0
ENDTAB
  0
TABLE
  2
DIMSTYLE
  5
A
100
AcDbSymbolTable
 70
1
100
AcDbDimStyleTable
 71
0
  0
DIMSTYLE
105
27
100
AcDbSymbolTableRecord
100
AcDbDimStyleTableRecord
  2
Standard
 41
2.5
 42
0.625
 43
3.75
 44
1.25
 70
0
 73
0
 74
0
 77
1
 78
8
140
2.5
141
2.5
143
0.03937007874016
147
0.625
171
3
172
1
271
2
272
2
274
3
278
44
283
0
284
8
340
11
  0
ENDTAB
  0
TABLE
  2
BLOCK_RECORD
  5
1
100
AcDbSymbolTable
 70
1
  0
BLOCK_RECORD
  5
1F
100
AcDbSymbolTableRecord
100
AcDbBlockTableRecord
  2
*Model_Space
340
22
  0
BLOCK_RECORD
  5
1B
100
AcDbSymbolTableRecord
100
AcDbBlockTableRecord
  2
*Paper_Space
340
1E
  0
BLOCK_RECORD
  5
23
100
AcDbSymbolTableRecord
100
AcDbBlockTableRecord
  2
*Paper_Space0
340
26
  0
BLOCK_RECORD
  5
47
100
AcDbSymbolTableRecord
100
AcDbBlockTableRecord
  2
holes-20
340
0
  0
ENDTAB
  0
ENDSEC
  0
SECTION
  2
BLOCKS
  0
BLOCK
  5
20
100
AcDbEntity
  8
0
100
AcDbBlockBegin
  2
*Model_Space
 70
0
 10
0.0
 20
0.0
 30
0.0
  3
*Model_Space
  1

  0
ENDBLK
  5
21
100
AcDbEntity
  8
0
100
AcDbBlockEnd
  0
BLOCK
  5
1C
100
AcDbEntity
 67
1
  8
0
100
AcDbBlockBegin
  2
*Paper_Space
 70
0
 10
0.0
 20
0.0
 30
0.0
  3
*Paper_Space
  1

  0
ENDBLK
  5
1D
100
AcDbEntity
 67
1
  8
0
100
AcDbBlockEnd
  0
BLOCK
  5
24
100
AcDbEntity
  8
0
100
AcDbBlockBegin
  2
*Paper_Space0
 70
0
 10
0.0
 20
0.0
 30
0.0
  3
*Paper_Space0
  1

  0
ENDBLK
  5
25
100
AcDbEntity
  8
0
100
AcDbBlockEnd
  0
BLOCK
  5
48
100
AcDbEntity
  8
0
100
AcDbBlockBegin
  2
holes-20
 70
0
 10
0.0
 20
0.0
 30
0.0
  3
holes-20
  1

  0
LINE
  5
49
100
AcDbEntity
100
AcDbLine
  8
0
 62
256
370
-1
  6
ByLayer
 10
-5.0
 20
0.0
 30
0.0
 11
-10.0
 21
0.0000000000000018
 31
0.0
  0
LINE
  5
4A
100
AcDbEntity
100
AcDbLine
  8
0
 62
256
370
-1
  6
ByLayer
 10
5.0
 20
0.0
 30
0.0
 11
10.0
 21
0.0000000000000004
 31
0.0
  0
LINE
  5
4B
100
AcDbEntity
100
AcDbLine
  8
0
 62
256
370
-1
  6
ByLayer
 10
-5.0000000000000009
 20
-4.5
 30
0.0
 11
-10.0
 21
-4.4999999999999982
 31
0.0
  0
LINE
  5
4C
100
AcDbEntity
100
AcDbLine
  8
0
 62
256
370
-1
  6
ByLayer
 10
4.9999999999999991
 20
-4.5
 30
0.0
 11
10.0
 21
-4.5
 31
0.0
  0
LINE
  5
4D
100
AcDbEntity
100
AcDbLine
  8
0
 62
256
370
-1
  6
ByLayer
 10
-10.0
 20
0.0000000000000018
 30
0.0
 11
-10.0
 21
-4.4999999999999973
 31
0.0
  0
LINE
  5
4E
100
AcDbEntity
100
AcDbLine
  8
0
 62
256
370
-1
  6
ByLayer
 10
10.0
 20
0.0000000000000004
 30
0.0
 11
10.0
 21
-4.5
 31
0.0
  0
LINE
  5
4F
100
AcDbEntity
100
AcDbLine
  8
0
 62
256
370
-1
  6
ByLayer
 10
-5.0
 20
0.0
 30
0.0
 11
-5.0000000000000009
 21
-2.1749999999999998
 31
0.0
  0
LINE
  5
50
100
AcDbEntity
100
AcDbLine
  8
0
 62
256
370
-1
  6
ByLayer
 10
-5.0000000000000009
 20
-2.3250000000000002
 30
0.0
 11
-5.0000000000000018
 21
-4.5
 31
0.0
  0
LINE
  5
51
100
AcDbEntity
100
AcDbLine
  8
0
 62
256
370
-1
  6
ByLayer
 10
-5.0000000000000009
 20
-2.3250000000000002
 30
0.0
 11
-1.4981238266578663
 21
-2.3250000000000002
 31
0.0
  0
LINE
  5
52
100
AcDbEntity
100
AcDbLine
  8
0
 62
256
370
-1
  6
ByLayer
 10
-5.0000000000000009
 20
-2.1749999999999998
 30
0.0
 11
-1.4981238266578663
 21
-2.1749999999999998
 31
0.0
  0
LINE
  5
53
100
AcDbEntity
100
AcDbLine
  8
0
 62
256
370
-1
  6
ByLayer
 10
1.4981238266578627
 20
-2.1749999999999998
 30
0.0
 11
4.9999999999999991
 21
-2.1749999999999998
 31
0.0
  0
LINE
  5
54
100
AcDbEntity
100
AcDbLine
  8
0
 62
256
370
-1
  6
ByLayer
 10
1.4981238266578627
 20
-2.3250000000000002
 30
0.0
 11
4.9999999999999991
 21
-2.3250000000000002
 31
0.0
  0
ARC
  5
55
100
AcDbEntity
  8
0
 62
256
370
-1
  6
ByLayer
100
AcDbCircle
 10
-0.0000000000000009
 20
-2.25
 30
0.0
 40
1.5
100
AcDbArc
 50
182.8659839825988627
 51
357.1340160174011089
  0
ARC
  5
56
100
AcDbEntity
  8
0
 62
256
370
-1
  6
ByLayer
100
AcDbCircle
 10
-0.0000000000000009
 20
-2.25
 30
0.0
 40
1.5
100
AcDbArc
 50
2.8659839825988596
 51
177.1340160174011373
  0
LINE
  5
57
100
AcDbEntity
100
AcDbLine
  8
0
 62
256
370
-1
  6
ByLayer
 10
5.0
 20
0.0
 30
0.0
 11
4.9999999999999991
 21
-2.1749999999999998
 31
0.0
  0
LINE
  5
58
100
AcDbEntity
100
AcDbLine
  8
0
 62
256
370
-1
  6
ByLayer
 10
4.9999999999999991
 20
-2.3250000000000002
 30
0.0
 11
4.9999999999999982
 21
-4.5
 31
0.0
  0
ENDBLK
  5
59
100
AcDbEntity
  8
0
100
AcDbBlockEnd
  0
ENDSEC
  0
SECTION
  2
ENTITIES
  0
LINE
  5
5A
100
AcDbEntity
100
AcDbLine
  8
Etch
 62
256
370
-1
  6
ByLayer
 10
302.5
 20
2.5000000000000284
 30
0.0
 11
302.5
 21
7.5000000000000284
 31
0.0
  0
LINE
  5
5B
100
AcDbEntity
100
AcDbLine
  8
Etch
 62
256
370
-1
  6
ByLayer
 10
302.5
 20
7.5000000000000284
 30
0.0
 11
303.8888888888889142
 21
7.5000000000000284
 31
0.0
  0
ARC
  5
5C
100
AcDbEntity
  8
Etch
 62
256
370
-1
  6
ByLayer
100
AcDbCircle
 10
303.8888888888889142
 20
6.3888888888889177
 30
0.0
 40
1.1111111111111112
100
AcDbArc
 50
270.0
 51
90.0
  0
LINE
  5
5D
100
AcDbEntity
100
AcDbLine
  8
Etch
 62
256
370
-1
  6
ByLayer
 10
302.5
 20
5.2777777777778061
 30
0.0
 11
303.9444444444444571
 21
5.2777777777778061
 31
0.0
  0
ARC
  5
5E
100
AcDbEntity
  8
Etch
 62
256
370
-1
  6
ByLayer
100
AcDbCircle
 10
303.9444444444444571
 20
3.9444444444444731
 30
0.0
 40
1.3333333333333333
100
AcDbArc
 50
0.0
 51
90.0
  0
LINE
  5
5F
100
AcDbEntity
100
AcDbLine
  8
Etch
 62
256
370
-1
  6
ByLayer
 10
305.2777777777777715
 20
3.9444444444444731
 30
0.0
 11
305.2777777777777715
 21
3.8333333333333623
 31
0.0
  0
ARC
  5
60
100
AcDbEntity
  8
Etch
 62
256
370
-1
  6
ByLayer
100
AcDbCircle
 10
303.9444444444444571
 20
3.8333333333333615
 30
0.0
 40
1.3333333333333333
100
AcDbArc
 50
270.0
 51
0.0
  0
LINE
  5
61
100
AcDbEntity
100
AcDbLine
  8
Etch
 62
256
370
-1
  6
ByLayer
 10
303.9444444444444571
 20
2.5000000000000284
 30
0.0
 11
302.5
 21
2.5000000000000284
 31
0.0
  0
LINE
  5
62
100
AcDbEntity
100
AcDbLine
  8
Etch
 62
256
370
-1
  6
ByLayer
 10
306.9444444444444571
 20
4.7222222222222507
 30
0.0
 11
306.9444444444444571
 21
3.6111111111111396
 31
0.0
  0
ARC
  5
63
100
AcDbEntity
  8
Etch
 62
256
370
-1
  6
ByLayer
100
AcDbCircle
 10
308.0555555555555429
 20
3.6111111111111396
 30
0.0
 40
1.1111111111111112
100
AcDbArc
 50
180.0
 51
0.0
  0
LINE
  5
64
100
AcDbEntity
100
AcDbLine
  8
Etch
 62
256
370
-1
  6
ByLayer
 10
309.1666666666666856
 20
3.61111111111114
 30
0.0
 11
309.1666666666666856
 21
4.7222222222222507
 31
0.0
  0
ARC
  5
65
100
AcDbEntity
  8
Etch
 62
256
370
-1
  6
ByLayer
100
AcDbCircle
 10
308.0555555555555429
 20
4.7222222222222516
 30
0.0
 40
1.1111111111111112
100
AcDbArc
 50
0.0
 51
180.0
  0
LINE
  5
66
100
AcDbEntity
100
AcDbLine
  8
Etch
 62
256
370
-1
  6
ByLayer
 10
310.8333333333333144
 20
5.8333333333333623
 30
0.0
 11
312.5
 21
5.8333333333333623
 31
0.0
  0
LINE
  5
67
100
AcDbEntity
100
AcDbLine
  8
Etch
 62
256
370
-1
  6
ByLayer
 10
311.3888888888888573
 20
7.5000000000000284
 30
0.0
 11
311.3888888888888573
 21
2.5000000000000284
 31
0.0
  0
LINE
  5
68
100
AcDbEntity
100
AcDbLine
  8
Etch
 62
256
370
-1
  6
ByLayer
 10
314.1666666666666856
 20
5.8333333333333623
 30
0.0
 11
315.8333333333333712
 21
5.8333333333333623
 31
0.0
  0
LINE
  5
69
100
AcDbEntity
100
AcDbLine
  8
Etch
 62
256
370
-1
  6
ByLayer
 10
314.7222222222222285
 20
7.5000000000000284
 30
0.0
 11
314.7222222222222285
 21
2.5000000000000284
 31
0.0
  0
LINE
  5
6A
100
AcDbEntity
100
AcDbLine
  8
Etch
 62
256
370
-1
  6
ByLayer
 10
317.5
 20
4.7222222222222507
 30
0.0
 11
317.5
 21
3.6111111111111396
 31
0.0
  0
ARC
  5
6B
100
AcDbEntity
  8
Etch
 62
256
370
-1
  6
ByLayer
100
AcDbCircle
 10
318.6111111111110858
 20
3.6111111111111396
 30
0.0
 40
1.1111111111111112
100
AcDbArc
 50
180.0
 51
0.0
  0
LINE
  5
6C
100
AcDbEntity
100
AcDbLine
  8
Etch
 62
256
370
-1
  6
ByLayer
 10
319.7222222222222285
 20
3.61111111111114
 30
0.0
 11
319.7222222222222285
 21
4.7222222222222507
 31
0.0
  0
ARC
  5
6D
100
AcDbEntity
  8
Etch
 62
256
370
-1
  6
ByLayer
100
AcDbCircle
 10
318.6111111111110858
 20
4.7222222222222516
 30
0.0
 40
1.1111111111111112
100
AcDbArc
 50
0.0
 51
180.0
  0
LINE
  5
6E
100
AcDbEntity
100
AcDbLine
  8
Etch
 62
256
370
-1
  6
ByLayer
 10
321.3888888888889142
 20
2.5000000000000284
 30
0.0
 11
321.3888888888889142
 21
5.8333333333333623
 31
0.0
  0
LINE
  5
6F
100
AcDbEntity
100
AcDbLine
  8
Etch
 62
256
370
-1
  6
ByLayer
 10
321.3888888888889142
 20
5.8333333333333623
 30
0.0
 11
323.8888888888889142
 21
5.8333333333333623
 31
0.0
  0
ARC
  5
70
100
AcDbEntity
  8
Etch
 62
256
370
-1
  6
ByLayer
100
AcDbCircle
 10
323.8888888888889142
 20
5.0000000000000284
 30
0.0
 40
0.8333333333333334
100
AcDbArc
 50
0.0
 51
90.0
  0
LINE
  5
71
100
AcDbEntity
100
AcDbLine
  8
Etch
 62
256
370
-1
  6
ByLayer
 10
324.7222222222222285
 20
5.0000000000000293
 30
0.0
 11
324.7222222222222285
 21
2.5000000000000284
 31
0.0
  0
LINE
  5
72
100
AcDbEntity
100
AcDbLine
  8
Etch
 62
256
370
-1
  6
ByLayer
 10
323.0555555555555998
 20
5.8333333333333623
 30
0.0
 11
323.0555555555555998
 21
2.5000000000000284
 31
0.0
  0
CIRCLE
  5
73
100
AcDbEntity
100
AcDbCircle
  8
Bottom
 62
256
370
-1
  6
ByLayer
 10
320.0
 20
280.0
 30
0.0
 40
1.5
  0
CIRCLE
  5
74
100
AcDbEntity
100
AcDbCircle
  8
Bottom
 62
256
370
-1
  6
ByLayer
 10
320.0
 20
20.0000000000000284
 30
0.0
 40
1.5
  0
CIRCLE
  5
75
100
AcDbEntity
100
AcDbCircle
  8
Bottom
 62
256
370
-1
  6
ByLayer
 10
580.0
 20
19.9999999999999716
 30
0.0
 40
1.5
  0
CIRCLE
  5
76
100
AcDbEntity
100
AcDbCircle
  8
Bottom
 62
256
370
-1
  6
ByLayer
 10
580.0
 20
280.0
 30
0.0
 40
1.5
  0
CIRCLE
  5
77
100
AcDbEntity
100
AcDbCircle
  8
Bottom
 62
256
370
-1
  6
ByLayer
 10
450.0000000000000568
 20
213.4006082147482175
 30
0.0
 40
1.5
  0
CIRCLE
  5
78
100
AcDbEntity
100
AcDbCircle
  8
Bottom
 62
256
370
-1
  6
ByLayer
 10
386.5993917852517825
 20
150.0
 30
0.0
 40
1.5
  0
CIRCLE
  5
79
100
AcDbEntity
100
AcDbCircle
  8
Bottom
 62
256
370
-1
  6
ByLayer
 10
450.0
 20
86.5993917852517541
 30
0.0
 40
1.5
  0
CIRCLE
  5
7A
100
AcDbEntity
100
AcDbCircle
  8
Bottom
 62
256
370
-1
  6
ByLayer
 10
513.4006082147482175
 20
149.9999999999999716
 30
0.0
 40
1.5
  0
CIRCLE
  5
7B
100
AcDbEntity
100
AcDbCircle
  8
Bottom
 62
256
370
-1
  6
ByLayer
 10
409.5
 20
190.5
 30
0.0
 40
3.0
  0
CIRCLE
  5
7C
100
AcDbEntity
100
AcDbCircle
  8
Bottom
 62
256
370
-1
  6
ByLayer
 10
409.5
 20
109.5
 30
0.0
 40
3.0
  0
CIRCLE
  5
7D
100
AcDbEntity
100
AcDbCircle
  8
Bottom
 62
256
370
-1
  6
ByLayer
 10
490.5000000000000568
 20
109.5
 30
0.0
 40
3.0
  0
CIRCLE
  5
7E
100
AcDbEntity
100
AcDbCircle
  8
Bottom
 62
256
370
-1
  6
ByLayer
 10
490.5000000000000568
 20
190.5
 30
0.0
 40
3.0
  0
ARC
  5
7F
100
AcDbEntity
  8
Bottom
 62
256
370
-1
  6
ByLayer
100
AcDbCircle
 10
302.5
 20
297.5
 30
0.0
 40
2.5
100
AcDbArc
 50
90.0
 51
180.0
  0
LINE
  5
80
100
AcDbEntity
100
AcDbLine
  8
Bottom
 62
256
370
-1
  6
ByLayer
 10
597.5
 20
300.0
 30
0.0
 11
302.5
 21
300.0
 31
0.0
  0
ARC
  5
81
100
AcDbEntity
  8
Bottom
 62
256
370
-1
  6
ByLayer
100
AcDbCircle
 10
597.5
 20
297.5
 30
0.0
 40
2.5
100
AcDbArc
 50
0.0
 51
90.0
  0
LINE
  5
82
100
AcDbEntity
100
AcDbLine
  8
Bottom
 62
256
370
-1
  6
ByLayer
 10
600.0
 20
2.4999999999999716
 30
0.0
 11
600.0
 21
297.5
 31
0.0
  0
ARC
  5
83
100
AcDbEntity
  8
Bottom
 62
256
370
-1
  6
ByLayer
100
AcDbCircle
 10
597.5
 20
2.4999999999999716
 30
0.0
 40
2.5
100
AcDbArc
 50
270.0
 51
0.0
  0
LINE
  5
84
100
AcDbEntity
100
AcDbLine
  8
Bottom
 62
256
370
-1
  6
ByLayer
 10
302.5
 20
0.0000000000000284
 30
0.0
 11
597.5
 21
-0.0000000000000284
 31
0.0
  0
ARC
  5
85
100
AcDbEntity
  8
Bottom
 62
256
370
-1
  6
ByLayer
100
AcDbCircle
 10
302.5
 20
2.5000000000000284
 30
0.0
 40
2.5
100
AcDbArc
 50
180.0
 51
270.0
  0
CIRCLE
  5
86
100
AcDbEntity
100
AcDbCircle
  8
Bottom
 62
256
370
-1
  6
ByLayer
 10
450.0
 20
150.0
 30
0.0
 40
27.4299999999999997
  0
LINE
  5
87
100
AcDbEntity
100
AcDbLine
  8
0
 62
256
370
-1
  6
ByLayer
 10
355.0
 20
292.5
 30
0.0
 11
360.0
 21
292.5
 31
0.0
  0
LINE
  5
88
100
AcDbEntity
100
AcDbLine
  8
0
 62
256
370
-1
  6
ByLayer
 10
345.0
 20
292.5
 30
0.0
 11
340.0
 21
292.5
 31
0.0
  0
LINE
  5
89
100
AcDbEntity
100
AcDbLine
  8
0
 62
256
370
-1
  6
ByLayer
 10
355.0
 20
297.0
 30
0.0
 11
360.0
 21
297.0
 31
0.0
  0
LINE
  5
8A
100
AcDbEntity
100
AcDbLine
  8
0
 62
256
370
-1
  6
ByLayer
 10
345.0
 20
297.0
 30
0.0
 11
340.0
 21
297.0
 31
0.0
  0
LINE
  5
8B
100
AcDbEntity
100
AcDbLine
  8
0
 62
256
370
-1
  6
ByLayer
 10
360.0
 20
292.5
 30
0.0
 11
360.0
 21
297.0
 31
0.0
  0
LINE
  5
8C
100
AcDbEntity
100
AcDbLine
  8
0
 62
256
370
-1
  6
ByLayer
 10
340.0
 20
292.5
 30
0.0
 11
340.0
 21
297.0
 31
0.0
  0
LINE
  5
8D
100
AcDbEntity
100
AcDbLine
  8
0
 62
256
370
-1
  6
ByLayer
 10
355.0
 20
292.5
 30
0.0
 11
355.0
 21
294.6750000000000114
 31
0.0
  0
LINE
  5
8E
100
AcDbEntity
100
AcDbLine
  8
0
 62
256
370
-1
  6
ByLayer
 10
355.0
 20
294.8249999999999886
 30
0.0
 11
355.0
 21
297.0
 31
0.0
  0
LINE
  5
8F
100
AcDbEntity
100
AcDbLine
  8
0
 62
256
370
-1
  6
ByLayer
 10
355.0
 20
294.8249999999999886
 30
0.0
 11
351.4981238266578885
 21
294.8249999999999886
 31
0.0
  0
LINE
  5
90
100
AcDbEntity
100
AcDbLine
  8
0
 62
256
370
-1
  6
ByLayer
 10
355.0
 20
294.6750000000000114
 30
0.0
 11
351.4981238266578885
 21
294.6750000000000114
 31
0.0
  0
LINE
  5
91
100
AcDbEntity
100
AcDbLine
  8
0
 62
256
370
-1
  6
ByLayer
 10
348.5018761733421115
 20
294.6750000000000114
 30
0.0
 11
345.0
 21
294.6750000000000114
 31
0.0
  0
LINE
  5
92
100
AcDbEntity
100
AcDbLine
  8
0
 62
256
370
-1
  6
ByLayer
 10
348.5018761733421115
 20
294.8249999999999886
 30
0.0
 11
345.0
 21
294.8249999999999886
 31
0.0
  0
ARC
  5
93
100
AcDbEntity
  8
0
 62
256
370
-1
  6
ByLayer
100
AcDbCircle
 10
350.0
 20
294.75
 30
0.0
 40
1.5
100
AcDbArc
 50
2.8659839825988267
 51
177.1340160174011658
  0
ARC
  5
94
100
AcDbEntity
  8
0
 62
256
370
-1
  6
ByLayer
100
AcDbCircle
 10
350.0
 20
294.75
 30
0.0
 40
1.5
100
AcDbArc
 50
182.8659839825988627
 51
357.1340160174011658
  0
LINE
  5
95
100
AcDbEntity
100
AcDbLine
  8
0
 62
256
370
-1
  6
ByLayer
 10
345.0
 20
292.5
 30
0.0
 11
345.0
 21
294.6750000000000114
 31
0.0
  0
LINE
  5
96
100
AcDbEntity
100
AcDbLine
  8
0
 62
256
370
-1
  6
ByLayer
 10
345.0
 20
294.8249999999999886
 30
0.0
 11
345.0
 21
297.0
 31
0.0
  0
LINE
  5
97
100
AcDbEntity
100
AcDbLine
  8
0
 62
256
370
-1
  6
ByLayer
 10
455.0000000000000568
 20
292.5
 30
0.0
 11
460.0000000000000568
 21
292.5
 31
0.0
  0
LINE
  5
98
100
AcDbEntity
100
AcDbLine
  8
0
 62
256
370
-1
  6
ByLayer
 10
445.0000000000000568
 20
292.5
 30
0.0
 11
440.0000000000000568
 21
292.5
 31
0.0
  0
LINE
  5
99
100
AcDbEntity
100
AcDbLine
  8
0
 62
256
370
-1
  6
ByLayer
 10
455.0000000000000568
 20
297.0
 30
0.0
 11
460.0000000000000568
 21
297.0
 31
0.0
  0
LINE
  5
9A
100
AcDbEntity
100
AcDbLine
  8
0
 62
256
370
-1
  6
ByLayer
 10
445.0000000000000568
 20
297.0
 30
0.0
 11
440.0000000000000568
 21
297.0
 31
0.0
  0
LINE
  5
9B
100
AcDbEntity
100
AcDbLine
  8
0
 62
256
370
-1
  6
ByLayer
 10
460.0000000000000568
 20
292.5
 30
0.0
 11
460.0000000000000568
 21
297.0
 31
0.0
  0
LINE
  5
9C
100
AcDbEntity
100
AcDbLine
  8
0
 62
256
370
-1
  6
ByLayer
 10
440.0000000000000568
 20
292.5
 30
0.0
 11
440.0000000000000568
 21
297.0
 31
0.0
  0
LINE
  5
9D
100
AcDbEntity
100
AcDbLine
  8
0
 62
256
370
-1
  6
ByLayer
 10
455.0000000000000568
 20
292.5
 30
0.0
 11
455.0000000000000568
 21
294.6750000000000114
 31
0.0
  0
LINE
  5
9E
100
AcDbEntity
100
AcDbLine
  8
0
 62
256
370
-1
  6
ByLayer
 10
455.0000000000000568
 20
294.8249999999999886
 30
0.0
 11
455.0000000000000568
 21
297.0
 31
0.0
  0
LINE
  5
9F
100
AcDbEntity
100
AcDbLine
  8
0
 62
256
370
-1
  6
ByLayer
 10
455.0000000000000568
 20
294.8249999999999886
 30
0.0
 11
451.4981238266579453
 21
294.8249999999999886
 31
0.0
  0
LINE
  5
A0
100
AcDbEntity
100
AcDbLine
  8
0
 62
256
370
-1
  6
ByLayer
 10
455.0000000000000568
 20
294.6750000000000114
 30
0.0
 11
451.4981238266579453
 21
294.6750000000000114
 31
0.0
  0
LINE
  5
A1
100
AcDbEntity
100
AcDbLine
  8
0
 62
256
370
-1
  6
ByLayer
 10
448.5018761733421684
 20
294.6750000000000114
 30
0.0
 11
445.0000000000000568
 21
294.6750000000000114
 31
0.0
  0
LINE
  5
A2
100
AcDbEntity
100
AcDbLine
  8
0
 62
256
370
-1
  6
ByLayer
 10
448.5018761733421684
 20
294.8249999999999886
 30
0.0
 11
445.0000000000000568
 21
294.8249999999999886
 31
0.0
  0
ARC
  5
A3
100
AcDbEntity
  8
0
 62
256
370
-1
  6
ByLayer
100
AcDbCircle
 10
450.0000000000000568
 20
294.75
 30
0.0
 40
1.5
100
AcDbArc
 50
2.8659839825988267
 51
177.1340160174011658
  0
ARC
  5
A4
100
AcDbEntity
  8
0
 62
256
370
-1
  6
ByLayer
100
AcDbCircle
 10
450.0000000000000568
 20
294.75
 30
0.0
 40
1.5
100
AcDbArc
 50
182.8659839825988627
 51
357.1340160174011658
  0
LINE
  5
A5
100
AcDbEntity
100
AcDbLine
  8
0
 62
256
370
-1
  6
ByLayer
 10
445.0000000000000568
 20
292.5
 30
0.0
 11
445.0000000000000568
 21
294.6750000000000114
 31
0.0
  0
LINE
  5
A6
100
AcDbEntity
100
AcDbLine
  8
0
 62
256
370
-1
  6
ByLayer
 10
445.0000000000000568
 20
294.8249999999999886
 30
0.0
 11
445.0000000000000568
 21
297.0
 31
0.0
  0
LINE
  5
A7
100
AcDbEntity
100
AcDbLine
  8
0
 62
256
370
-1
  6
ByLayer
 10
555.0
 20
292.5
 30
0.0
 11
560.0
 21
292.5
 31
0.0
  0
LINE
  5
A8
100
AcDbEntity
100
AcDbLine
  8
0
 62
256
370
-1
  6
ByLayer
 10
545.0
 20
292.5
 30
0.0
 11
540.0
 21
292.5
 31
0.0
  0
LINE
  5
A9
100
AcDbEntity
100
AcDbLine
  8
0
 62
256
370
-1
  6
ByLayer
 10
555.0
 20
297.0
 30
0.0
 11
560.0
 21
297.0
 31
0.0
  0
LINE
  5
AA
100
AcDbEntity
100
AcDbLine
  8
0
 62
256
370
-1
  6
ByLayer
 10
545.0
 20
297.0
 30
0.0
 11
540.0
 21
297.0
 31
0.0
  0
LINE
  5
AB
100
AcDbEntity
100
AcDbLine
  8
0
 62
256
370
-1
  6
ByLayer
 10
560.0
 20
292.5
 30
0.0
 11
560.0
 21
297.0
 31
0.0
  0
LINE
  5
AC
100
AcDbEntity
100
AcDbLine
  8
0
 62
256
370
-1
  6
ByLayer
 10
540.0
 20
292.5
 30
0.0
 11
540.0
 21
297.0
 31
0.0
  0
LINE
  5
AD
100
AcDbEntity
100
AcDbLine
  8
0
 62
256
370
-1
  6
ByLayer
 10
555.0
 20
292.5
 30
0.0
 11
555.0
 21
294.6750000000000114
 31
0.0
  0
LINE
  5
AE
100
AcDbEntity
100
AcDbLine
  8
0
 62
256
370
-1
  6
ByLayer
 10
555.0
 20
294.8249999999999886
 30
0.0
 11
555.0
 21
297.0
 31
0.0
  0
LINE
  5
AF
100
AcDbEntity
100
AcDbLine
  8
0
 62
256
370
-1
  6
ByLayer
 10
555.0
 20
294.8249999999999886
 30
0.0
 11
551.4981238266578885
 21
294.8249999999999886
 31
0.0
  0
LINE
  5
B0
100
AcDbEntity
100
AcDbLine
  8
0
 62
256
370
-1
  6
ByLayer
 10
555.0
 20
294.6750000000000114
 30
0.0
 11
551.4981238266578885
 21
294.6750000000000114
 31
0.0
  0
LINE
  5
B1
100
AcDbEntity
100
AcDbLine
  8
0
 62
256
370
-1
  6
ByLayer
 10
548.5018761733421115
 20
294.6750000000000114
 30
0.0
 11
545.0
 21
294.6750000000000114
 31
0.0
  0
LINE
  5
B2
100
AcDbEntity
100
AcDbLine
  8
0
 62
256
370
-1
  6
ByLayer
 10
548.5018761733421115
 20
294.8249999999999886
 30
0.0
 11
545.0
 21
294.8249999999999886
 31
0.0
  0
ARC
  5
B3
100
AcDbEntity
  8
0
 62
256
370
-1
  6
ByLayer
100
AcDbCircle
 10
550.0
 20
294.75
 30
0.0
 40
1.5
100
AcDbArc
 50
2.8659839825988267
 51
177.1340160174011658
  0
ARC
  5
B4
100
AcDbEntity
  8
0
 62
256
370
-1
  6
ByLayer
100
AcDbCircle
 10
550.0
 20
294.75
 30
0.0
 40
1.5
100
AcDbArc
 50
182.8659839825988627
 51
357.1340160174011658
  0
LINE
  5
B5
100
AcDbEntity
100
AcDbLine
  8
0
 62
256
370
-1
  6
ByLayer
 10
545.0
 20
292.5
 30
0.0
 11
545.0
 21
294.6750000000000114
 31
0.0
  0
LINE
  5
B6
100
AcDbEntity
100
AcDbLine
  8
0
 62
256
370
-1
  6
ByLayer
 10
545.0
 20
294.8249999999999886
 30
0.0
 11
545.0
 21
297.0
 31
0.0
  0
LINE
  5
B7
100
AcDbEntity
100
AcDbLine
  8
0
 62
256
370
-1
  6
ByLayer
 10
592.5
 20
245.0000000000000284
 30
0.0
 11
592.5
 21
240.0000000000000284
 31
0.0
  0
LINE
  5
B8
100
AcDbEntity
100
AcDbLine
  8
0
 62
256
370
-1
  6
ByLayer
 10
592.5
 20
255.0000000000000284
 30
0.0
 11
592.5
 21
260.0
 31
0.0
  0
LINE
  5
B9
100
AcDbEntity
100
AcDbLine
  8
0
 62
256
370
-1
  6
ByLayer
 10
597.0
 20
245.0000000000000284
 30
0.0
 11
597.0
 21
240.0000000000000284
 31
0.0
  0
LINE
  5
BA
100
AcDbEntity
100
AcDbLine
  8
0
 62
256
370
-1
  6
ByLayer
 10
597.0
 20
255.0000000000000284
 30
0.0
 11
597.0
 21
260.0
 31
0.0
  0
LINE
  5
BB
100
AcDbEntity
100
AcDbLine
  8
0
 62
256
370
-1
  6
ByLayer
 10
592.5
 20
240.0000000000000284
 30
0.0
 11
597.0
 21
240.0000000000000284
 31
0.0
  0
LINE
  5
BC
100
AcDbEntity
100
AcDbLine
  8
0
 62
256
370
-1
  6
ByLayer
 10
592.5
 20
260.0
 30
0.0
 11
597.0
 21
260.0
 31
0.0
  0
LINE
  5
BD
100
AcDbEntity
100
AcDbLine
  8
0
 62
256
370
-1
  6
ByLayer
 10
592.5
 20
245.0000000000000284
 30
0.0
 11
594.6749999999999545
 21
245.0000000000000284
 31
0.0
  0
LINE
  5
BE
100
AcDbEntity
100
AcDbLine
  8
0
 62
256
370
-1
  6
ByLayer
 10
594.8250000000000455
 20
245.0000000000000284
 30
0.0
 11
597.0
 21
245.0000000000000284
 31
0.0
  0
LINE
  5
BF
100
AcDbEntity
100
AcDbLine
  8
0
 62
256
370
-1
  6
ByLayer
 10
594.8250000000000455
 20
245.0000000000000284
 30
0.0
 11
594.8250000000000455
 21
248.50187617334214
 31
0.0
  0
LINE
  5
C0
100
AcDbEntity
100
AcDbLine
  8
0
 62
256
370
-1
  6
ByLayer
 10
594.6749999999999545
 20
245.0000000000000284
 30
0.0
 11
594.6749999999999545
 21
248.50187617334214
 31
0.0
  0
LINE
  5
C1
100
AcDbEntity
100
AcDbLine
  8
0
 62
256
370
-1
  6
ByLayer
 10
594.6750000000000682
 20
251.4981238266579169
 30
0.0
 11
594.6749999999999545
 21
255.0000000000000284
 31
0.0
  0
LINE
  5
C2
100
AcDbEntity
100
AcDbLine
  8
0
 62
256
370
-1
  6
ByLayer
 10
594.8250000000000455
 20
251.4981238266579169
 30
0.0
 11
594.8250000000000455
 21
255.0000000000000284
 31
0.0
  0
ARC
  5
C3
100
AcDbEntity
  8
0
 62
256
370
-1
  6
ByLayer
100
AcDbCircle
 10
594.75
 20
250.0000000000000284
 30
0.0
 40
1.5
100
AcDbArc
 50
272.8659839825988342
 51
87.1340160174011231
  0
ARC
  5
C4
100
AcDbEntity
  8
0
 62
256
370
-1
  6
ByLayer
100
AcDbCircle
 10
594.75
 20
250.0000000000000284
 30
0.0
 40
1.5
100
AcDbArc
 50
92.8659839825988627
 51
267.1340160174011658
  0
LINE
  5
C5
100
AcDbEntity
100
AcDbLine
  8
0
 62
256
370
-1
  6
ByLayer
 10
592.5
 20
255.0000000000000284
 30
0.0
 11
594.6749999999999545
 21
255.0000000000000284
 31
0.0
  0
LINE
  5
C6
100
AcDbEntity
100
AcDbLine
  8
0
 62
256
370
-1
  6
ByLayer
 10
594.8250000000000455
 20
255.0000000000000284
 30
0.0
 11
597.0
 21
255.0000000000000284
 31
0.0
  0
LINE
  5
C7
100
AcDbEntity
100
AcDbLine
  8
0
 62
256
370
-1
  6
ByLayer
 10
592.5
 20
145.0
 30
0.0
 11
592.5
 21
140.0
 31
0.0
  0
LINE
  5
C8
100
AcDbEntity
100
AcDbLine
  8
0
 62
256
370
-1
  6
ByLayer
 10
592.5
 20
155.0
 30
0.0
 11
592.5
 21
160.0
 31
0.0
  0
LINE
  5
C9
100
AcDbEntity
100
AcDbLine
  8
0
 62
256
370
-1
  6
ByLayer
 10
597.0
 20
145.0
 30
0.0
 11
597.0
 21
140.0
 31
0.0
  0
LINE
  5
CA
100
AcDbEntity
100
AcDbLine
  8
0
 62
256
370
-1
  6
ByLayer
 10
597.0
 20
155.0
 30
0.0
 11
597.0
 21
160.0
 31
0.0
  0
LINE
  5
CB
100
AcDbEntity
100
AcDbLine
  8
0
 62
256
370
-1
  6
ByLayer
 10
592.5
 20
140.0
 30
0.0
 11
597.0
 21
140.0
 31
0.0
  0
LINE
  5
CC
100
AcDbEntity
100
AcDbLine
  8
0
 62
256
370
-1
  6
ByLayer
 10
592.5
 20
160.0
 30
0.0
 11
597.0
 21
160.0
 31
0.0
  0
LINE
  5
CD
100
AcDbEntity
100
AcDbLine
  8
0
 62
256
370
-1
  6
ByLayer
 10
592.5
 20
145.0
 30
0.0
 11
594.6749999999999545
 21
145.0
 31
0.0
  0
LINE
  5
CE
100
AcDbEntity
100
AcDbLine
  8
0
 62
256
370
-1
  6
ByLayer
 10
594.8250000000000455
 20
145.0
 30
0.0
 11
597.0
 21
145.0
 31
0.0
  0
LINE
  5
CF
100
AcDbEntity
100
AcDbLine
  8
0
 62
256
370
-1
  6
ByLayer
 10
594.8250000000000455
 20
145.0
 30
0.0
 11
594.8250000000000455
 21
148.5018761733421115
 31
0.0
  0
LINE
  5
D0
100
AcDbEntity
100
AcDbLine
  8
0
 62
256
370
-1
  6
ByLayer
 10
594.6749999999999545
 20
145.0
 30
0.0
 11
594.6749999999999545
 21
148.5018761733421115
 31
0.0
  0
LINE
  5
D1
100
AcDbEntity
100
AcDbLine
  8
0
 62
256
370
-1
  6
ByLayer
 10
594.6750000000000682
 20
151.4981238266578885
 30
0.0
 11
594.6749999999999545
 21
155.0
 31
0.0
  0
LINE
  5
D2
100
AcDbEntity
100
AcDbLine
  8
0
 62
256
370
-1
  6
ByLayer
 10
594.8250000000000455
 20
151.4981238266578885
 30
0.0
 11
594.8250000000000455
 21
155.0
 31
0.0
  0
ARC
  5
D3
100
AcDbEntity
  8
0
 62
256
370
-1
  6
ByLayer
100
AcDbCircle
 10
594.75
 20
150.0
 30
0.0
 40
1.5
100
AcDbArc
 50
272.8659839825988342
 51
87.1340160174011231
  0
ARC
  5
D4
100
AcDbEntity
  8
0
 62
256
370
-1
  6
ByLayer
100
AcDbCircle
 10
594.75
 20
150.0
 30
0.0
 40
1.5
100
AcDbArc
 50
92.8659839825988627
 51
267.1340160174011658
  0
LINE
  5
D5
100
AcDbEntity
100
AcDbLine
  8
0
 62
256
370
-1
  6
ByLayer
 10
592.5
 20
155.0
 30
0.0
 11
594.6749999999999545
 21
155.0
 31
0.0
  0
LINE
  5
D6
100
AcDbEntity
100
AcDbLine
  8
0
 62
256
370
-1
  6
ByLayer
 10
594.8250000000000455
 20
155.0
 30
0.0
 11
597.0
 21
155.0
 31
0.0
  0
LINE
  5
D7
100
AcDbEntity
100
AcDbLine
  8
0
 62
256
370
-1
  6
ByLayer
 10
592.5
 20
44.9999999999999716
 30
0.0
 11
592.5
 21
39.9999999999999716
 31
0.0
  0
LINE
  5
D8
100
AcDbEntity
100
AcDbLine
  8
0
 62
256
370
-1
  6
ByLayer
 10
592.5
 20
54.9999999999999716
 30
0.0
 11
592.5
 21
59.9999999999999716
 31
0.0
  0
LINE
  5
D9
100
AcDbEntity
100
AcDbLine
  8
0
 62
256
370
-1
  6
ByLayer
 10
597.0
 20
44.9999999999999716
 30
0.0
 11
597.0
 21
39.9999999999999716
 31
0.0
  0
LINE
  5
DA
100
AcDbEntity
100
AcDbLine
  8
0
 62
256
370
-1
  6
ByLayer
 10
597.0
 20
54.9999999999999716
 30
0.0
 11
597.0
 21
59.9999999999999716
 31
0.0
  0
LINE
  5
DB
100
AcDbEntity
100
AcDbLine
  8
0
 62
256
370
-1
  6
ByLayer
 10
592.5
 20
39.9999999999999716
 30
0.0
 11
597.0
 21
39.9999999999999716
 31
0.0
  0
LINE
  5
DC
100
AcDbEntity
100
AcDbLine
  8
0
 62
256
370
-1
  6
ByLayer
 10
592.5
 20
59.9999999999999716
 30
0.0
 11
597.0
 21
59.9999999999999716
 31
0.0
  0
LINE
  5
DD
100
AcDbEntity
100
AcDbLine
  8
0
 62
256
370
-1
  6
ByLayer
 10
592.5
 20
44.9999999999999716
 30
0.0
 11
594.6749999999999545
 21
44.9999999999999716
 31
0.0
  0
LINE
  5
DE
100
AcDbEntity
100
AcDbLine
  8
0
 62
256
370
-1
  6
ByLayer
 10
594.8250000000000455
 20
44.9999999999999716
 30
0.0
 11
597.0
 21
44.9999999999999716
 31
0.0
  0
LINE
  5
DF
100
AcDbEntity
100
AcDbLine
  8
0
 62
256
370
-1
  6
ByLayer
 10
594.8250000000000455
 20
44.9999999999999716
 30
0.0
 11
594.8250000000000455
 21
48.5018761733420831
 31
0.0
  0
LINE
  5
E0
100
AcDbEntity
100
AcDbLine
  8
0
 62
256
370
-1
  6
ByLayer
 10
594.6749999999999545
 20
44.9999999999999716
 30
0.0
 11
594.6749999999999545
 21
48.5018761733420831
 31
0.0
  0
LINE
  5
E1
100
AcDbEntity
100
AcDbLine
  8
0
 62
256
370
-1
  6
ByLayer
 10
594.6749999999999545
 20
51.49812382665786
 30
0.0
 11
594.6749999999999545
 21
54.9999999999999716
 31
0.0
  0
LINE
  5
E2
100
AcDbEntity
100
AcDbLine
  8
0
 62
256
370
-1
  6
ByLayer
 10
594.8250000000000455
 20
51.49812382665786
 30
0.0
 11
594.8250000000000455
 21
54.9999999999999716
 31
0.0
  0
ARC
  5
E3
100
AcDbEntity
  8
0
 62
256
370
-1
  6
ByLayer
100
AcDbCircle
 10
594.75
 20
49.9999999999999716
 30
0.0
 40
1.5
100
AcDbArc
 50
272.8659839825988342
 51
87.1340160174011231
  0
ARC
  5
E4
100
AcDbEntity
  8
0
 62
256
370
-1
  6
ByLayer
100
AcDbCircle
 10
594.75
 20
49.9999999999999716
 30
0.0
 40
1.5
100
AcDbArc
 50
92.8659839825988627
 51
267.1340160174011658
  0
LINE
  5
E5
100
AcDbEntity
100
AcDbLine
  8
0
 62
256
370
-1
  6
ByLayer
 10
592.5
 20
54.9999999999999716
 30
0.0
 11
594.6749999999999545
 21
54.9999999999999716
 31
0.0
  0
LINE
  5
E6
100
AcDbEntity
100
AcDbLine
  8
0
 62
256
370
-1
  6
ByLayer
 10
594.8250000000000455
 20
54.9999999999999716
 30
0.0
 11
597.0
 21
54.9999999999999716
 31
0.0
  0
LINE
  5
E7
100
AcDbEntity
100
AcDbLine
  8
0
 62
256
370
-1
  6
ByLayer
 10
545.0
 20
7.5000000000000009
 30
0.0
 11
540.0
 21
7.5000000000000009
 31
0.0
  0
LINE
  5
E8
100
AcDbEntity
100
AcDbLine
  8
0
 62
256
370
-1
  6
ByLayer
 10
555.0
 20
7.5
 30
0.0
 11
560.0
 21
7.5
 31
0.0
  0
LINE
  5
E9
100
AcDbEntity
100
AcDbLine
  8
0
 62
256
370
-1
  6
ByLayer
 10
545.0
 20
3.0000000000000018
 30
0.0
 11
540.0
 21
3.0000000000000036
 31
0.0
  0
LINE
  5
EA
100
AcDbEntity
100
AcDbLine
  8
0
 62
256
370
-1
  6
ByLayer
 10
555.0
 20
2.9999999999999982
 30
0.0
 11
560.0
 21
2.9999999999999956
 31
0.0
  0
LINE
  5
EB
100
AcDbEntity
100
AcDbLine
  8
0
 62
256
370
-1
  6
ByLayer
 10
540.0
 20
7.5000000000000009
 30
0.0
 11
540.0
 21
3.0000000000000044
 31
0.0
  0
LINE
  5
EC
100
AcDbEntity
100
AcDbLine
  8
0
 62
256
370
-1
  6
ByLayer
 10
560.0
 20
7.5
 30
0.0
 11
560.0
 21
2.9999999999999956
 31
0.0
  0
LINE
  5
ED
100
AcDbEntity
100
AcDbLine
  8
0
 62
256
370
-1
  6
ByLayer
 10
545.0
 20
7.5000000000000009
 30
0.0
 11
545.0
 21
5.3250000000000011
 31
0.0
  0
LINE
  5
EE
100
AcDbEntity
100
AcDbLine
  8
0
 62
256
370
-1
  6
ByLayer
 10
545.0
 20
5.1750000000000034
 30
0.0
 11
545.0
 21
3.0000000000000018
 31
0.0
  0
LINE
  5
EF
100
AcDbEntity
100
AcDbLine
  8
0
 62
256
370
-1
  6
ByLayer
 10
545.0
 20
5.1750000000000034
 30
0.0
 11
548.5018761733421115
 21
5.1750000000000007
 31
0.0
  0
LINE
  5
F0
100
AcDbEntity
100
AcDbLine
  8
0
 62
256
370
-1
  6
ByLayer
 10
545.0
 20
5.3250000000000011
 30
0.0
 11
548.5018761733421115
 21
5.3250000000000011
 31
0.0
  0
LINE
  5
F1
100
AcDbEntity
100
AcDbLine
  8
0
 62
256
370
-1
  6
ByLayer
 10
551.4981238266578885
 20
5.3249999999999993
 30
0.0
 11
555.0
 21
5.3249999999999993
 31
0.0
  0
LINE
  5
F2
100
AcDbEntity
100
AcDbLine
  8
0
 62
256
370
-1
  6
ByLayer
 10
551.4981238266578885
 20
5.1749999999999998
 30
0.0
 11
555.0
 21
5.1750000000000007
 31
0.0
  0
ARC
  5
F3
100
AcDbEntity
  8
0
 62
256
370
-1
  6
ByLayer
100
AcDbCircle
 10
550.0
 20
5.25
 30
0.0
 40
1.5
100
AcDbArc
 50
182.8659839825988627
 51
357.1340160174011089
  0
ARC
  5
F4
100
AcDbEntity
  8
0
 62
256
370
-1
  6
ByLayer
100
AcDbCircle
 10
550.0
 20
5.25
 30
0.0
 40
1.5
100
AcDbArc
 50
2.8659839825988596
 51
177.1340160174011373
  0
LINE
  5
F5
100
AcDbEntity
100
AcDbLine
  8
0
 62
256
370
-1
  6
ByLayer
 10
555.0
 20
7.5
 30
0.0
 11
555.0
 21
5.3249999999999993
 31
0.0
  0
LINE
  5
F6
100
AcDbEntity
100
AcDbLine
  8
0
 62
256
370
-1
  6
ByLayer
 10
555.0
 20
5.1750000000000007
 30
0.0
 11
555.0
 21
2.9999999999999982
 31
0.0
  0
LINE
  5
F7
100
AcDbEntity
100
AcDbLine
  8
0
 62
256
370
-1
  6
ByLayer
 10
445.0
 20
7.5000000000000009
 30
0.0
 11
440.0
 21
7.5000000000000009
 31
0.0
  0
LINE
  5
F8
100
AcDbEntity
100
AcDbLine
  8
0
 62
256
370
-1
  6
ByLayer
 10
455.0
 20
7.5
 30
0.0
 11
460.0
 21
7.5
 31
0.0
  0
LINE
  5
F9
100
AcDbEntity
100
AcDbLine
  8
0
 62
256
370
-1
  6
ByLayer
 10
445.0
 20
3.0000000000000018
 30
0.0
 11
440.0
 21
3.0000000000000036
 31
0.0
  0
LINE
  5
FA
100
AcDbEntity
100
AcDbLine
  8
0
 62
256
370
-1
  6
ByLayer
 10
455.0
 20
2.9999999999999982
 30
0.0
 11
460.0
 21
2.9999999999999956
 31
0.0
  0
LINE
  5
FB
100
AcDbEntity
100
AcDbLine
  8
0
 62
256
370
-1
  6
ByLayer
 10
440.0
 20
7.5000000000000009
 30
0.0
 11
440.0
 21
3.0000000000000044
 31
0.0
  0
LINE
  5
FC
100
AcDbEntity
100
AcDbLine
  8
0
 62
256
370
-1
  6
ByLayer
 10
460.0
 20
7.5
 30
0.0
 11
460.0
 21
2.9999999999999956
 31
0.0
  0
LINE
  5
FD
100
AcDbEntity
100
AcDbLine
  8
0
 62
256
370
-1
  6
ByLayer
 10
445.0
 20
7.5000000000000009
 30
0.0
 11
445.0
 21
5.3250000000000011
 31
0.0
  0
LINE
  5
FE
100
AcDbEntity
100
AcDbLine
  8
0
 62
256
370
-1
  6
ByLayer
 10
445.0
 20
5.1750000000000034
 30
0.0
 11
445.0
 21
3.0000000000000018
 31
0.0
  0
LINE
  5
FF
100
AcDbEntity
100
AcDbLine
  8
0
 62
256
370
-1
  6
ByLayer
 10
445.0
 20
5.1750000000000034
 30
0.0
 11
448.5018761733421115
 21
5.1750000000000007
 31
0.0
  0
LINE
  5
100
100
AcDbEntity
100
AcDbLine
  8
0
 62
256
370
-1
  6
ByLayer
 10
445.0
 20
5.3250000000000011
 30
0.0
 11
448.5018761733421115
 21
5.3250000000000011
 31
0.0
  0
LINE
  5
101
100
AcDbEntity
100
AcDbLine
  8
0
 62
256
370
-1
  6
ByLayer
 10
451.4981238266578885
 20
5.3249999999999993
 30
0.0
 11
455.0
 21
5.3249999999999993
 31
0.0
  0
LINE
  5
102
100
AcDbEntity
100
AcDbLine
  8
0
 62
256
370
-1
  6
ByLayer
 10
451.4981238266578885
 20
5.1749999999999998
 30
0.0
 11
455.0
 21
5.1750000000000007
 31
0.0
  0
ARC
  5
103
100
AcDbEntity
  8
0
 62
256
370
-1
  6
ByLayer
100
AcDbCircle
 10
450.0
 20
5.25
 30
0.0
 40
1.5
100
AcDbArc
 50
182.8659839825988627
 51
357.1340160174011089
  0
ARC
  5
104
100
AcDbEntity
  8
0
 62
256
370
-1
  6
ByLayer
100
AcDbCircle
 10
450.0
 20
5.25
 30
0.0
 40
1.5
100
AcDbArc
 50
2.8659839825988596
 51
177.1340160174011373
  0
LINE
  5
105
100
AcDbEntity
100
AcDbLine
  8
0
 62
256
370
-1
  6
ByLayer
 10
455.0
 20
7.5
 30
0.0
 11
455.0
 21
5.3249999999999993
 31
0.0
  0
LINE
  5
106
100
AcDbEntity
100
AcDbLine
  8
0
 62
256
370
-1
  6
ByLayer
 10
455.0
 20
5.1750000000000007
 30
0.0
 11
455.0
 21
2.9999999999999982
 31
0.0
  0
LINE
  5
107
100
AcDbEntity
100
AcDbLine
  8
0
 62
256
370
-1
  6
ByLayer
 10
345.0
 20
7.5000000000000009
 30
0.0
 11
340.0
 21
7.5000000000000009
 31
0.0
  0
LINE
  5
108
100
AcDbEntity
100
AcDbLine
  8
0
 62
256
370
-1
  6
ByLayer
 10
355.0
 20
7.5
 30
0.0
 11
360.0
 21
7.5
 31
0.0
  0
LINE
  5
109
100
AcDbEntity
100
AcDbLine
  8
0
 62
256
370
-1
  6
ByLayer
 10
345.0
 20
3.0000000000000018
 30
0.0
 11
340.0
 21
3.0000000000000036
 31
0.0
  0
LINE
  5
10A
100
AcDbEntity
100
AcDbLine
  8
0
 62
256
370
-1
  6
ByLayer
 10
355.0
 20
2.9999999999999982
 30
0.0
 11
360.0
 21
2.9999999999999956
 31
0.0
  0
LINE
  5
10B
100
AcDbEntity
100
AcDbLine
  8
0
 62
256
370
-1
  6
ByLayer
 10
340.0
 20
7.5000000000000009
 30
0.0
 11
340.0
 21
3.0000000000000044
 31
0.0
  0
LINE
  5
10C
100
AcDbEntity
100
AcDbLine
  8
0
 62
256
370
-1
  6
ByLayer
 10
360.0
 20
7.5
 30
0.0
 11
360.0
 21
2.9999999999999956
 31
0.0
  0
LINE
  5
10D
100
AcDbEntity
100
AcDbLine
  8
0
 62
256
370
-1
  6
ByLayer
 10
345.0
 20
7.5000000000000009
 30
0.0
 11
345.0
 21
5.3250000000000011
 31
0.0
  0
LINE
  5
10E
100
AcDbEntity
100
AcDbLine
  8
0
 62
256
370
-1
  6
ByLayer
 10
345.0
 20
5.1750000000000034
 30
0.0
 11
345.0
 21
3.0000000000000018
 31
0.0
  0
LINE
  5
10F
100
AcDbEntity
100
AcDbLine
  8
0
 62
256
370
-1
  6
ByLayer
 10
345.0
 20
5.1750000000000034
 30
0.0
 11
348.5018761733421115
 21
5.1750000000000007
 31
0.0
  0
LINE
  5
110
100
AcDbEntity
100
AcDbLine
  8
0
 62
256
370
-1
  6
ByLayer
 10
345.0
 20
5.3250000000000011
 30
0.0
 11
348.5018761733421115
 21
5.3250000000000011
 31
0.0
  0
LINE
  5
111
100
AcDbEntity
100
AcDbLine
  8
0
 62
256
370
-1
  6
ByLayer
 10
351.4981238266578885
 20
5.3249999999999993
 30
0.0
 11
355.0
 21
5.3249999999999993
 31
0.0
  0
LINE
  5
112
100
AcDbEntity
100
AcDbLine
  8
0
 62
256
370
-1
  6
ByLayer
 10
351.4981238266578885
 20
5.1749999999999998
 30
0.0
 11
355.0
 21
5.1750000000000007
 31
0.0
  0
ARC
  5
113
100
AcDbEntity
  8
0
 62
256
370
-1
  6
ByLayer
100
AcDbCircle
 10
350.0
 20
5.25
 30
0.0
 40
1.5
100
AcDbArc
 50
182.8659839825988627
 51
357.1340160174011089
  0
ARC
  5
114
100
AcDbEntity
  8
0
 62
256
370
-1
  6
ByLayer
100
AcDbCircle
 10
350.0
 20
5.25
 30
0.0
 40
1.5
100
AcDbArc
 50
2.8659839825988596
 51
177.1340160174011373
  0
LINE
  5
115
100
AcDbEntity
100
AcDbLine
  8
0
 62
256
370
-1
  6
ByLayer
 10
355.0
 20
7.5
 30
0.0
 11
355.0
 21
5.3249999999999993
 31
0.0
  0
LINE
  5
116
100
AcDbEntity
100
AcDbLine
  8
0
 62
256
370
-1
  6
ByLayer
 10
355.0
 20
5.1750000000000007
 30
0.0
 11
355.0
 21
2.9999999999999982
 31
0.0
  0
LINE
  5
117
100
AcDbEntity
100
AcDbLine
  8
0
 62
256
370
-1
  6
ByLayer
 10
307.5
 20
55.0000000000000284
 30
0.0
 11
307.5
 21
60.0000000000000284
 31
0.0
  0
LINE
  5
118
100
AcDbEntity
100
AcDbLine
  8
0
 62
256
370
-1
  6
ByLayer
 10
307.5
 20
45.0000000000000284
 30
0.0
 11
307.5
 21
40.0000000000000284
 31
0.0
  0
LINE
  5
119
100
AcDbEntity
100
AcDbLine
  8
0
 62
256
370
-1
  6
ByLayer
 10
303.0
 20
55.0000000000000284
 30
0.0
 11
303.0
 21
60.0000000000000284
 31
0.0
  0
LINE
  5
11A
100
AcDbEntity
100
AcDbLine
  8
0
 62
256
370
-1
  6
ByLayer
 10
303.0
 20
45.0000000000000284
 30
0.0
 11
303.0
 21
40.0000000000000284
 31
0.0
  0
LINE
  5
11B
100
AcDbEntity
100
AcDbLine
  8
0
 62
256
370
-1
  6
ByLayer
 10
307.5
 20
60.0000000000000284
 30
0.0
 11
303.0
 21
60.0000000000000284
 31
0.0
  0
LINE
  5
11C
100
AcDbEntity
100
AcDbLine
  8
0
 62
256
370
-1
  6
ByLayer
 10
307.5
 20
40.0000000000000284
 30
0.0
 11
303.0
 21
40.0000000000000284
 31
0.0
  0
LINE
  5
11D
100
AcDbEntity
100
AcDbLine
  8
0
 62
256
370
-1
  6
ByLayer
 10
307.5
 20
55.0000000000000284
 30
0.0
 11
305.3249999999999886
 21
55.0000000000000284
 31
0.0
  0
LINE
  5
11E
100
AcDbEntity
100
AcDbLine
  8
0
 62
256
370
-1
  6
ByLayer
 10
305.1750000000000114
 20
55.0000000000000284
 30
0.0
 11
303.0
 21
55.0000000000000284
 31
0.0
  0
LINE
  5
11F
100
AcDbEntity
100
AcDbLine
  8
0
 62
256
370
-1
  6
ByLayer
 10
305.1750000000000114
 20
55.0000000000000284
 30
0.0
 11
305.1750000000000114
 21
51.4981238266579169
 31
0.0
  0
LINE
  5
120
100
AcDbEntity
100
AcDbLine
  8
0
 62
256
370
-1
  6
ByLayer
 10
305.3249999999999886
 20
55.0000000000000284
 30
0.0
 11
305.3249999999999886
 21
51.4981238266579169
 31
0.0
  0
LINE
  5
121
100
AcDbEntity
100
AcDbLine
  8
0
 62
256
370
-1
  6
ByLayer
 10
305.3249999999999886
 20
48.50187617334214
 30
0.0
 11
305.3249999999999886
 21
45.0000000000000284
 31
0.0
  0
LINE
  5
122
100
AcDbEntity
100
AcDbLine
  8
0
 62
256
370
-1
  6
ByLayer
 10
305.1750000000000114
 20
48.50187617334214
 30
0.0
 11
305.1750000000000114
 21
45.0000000000000284
 31
0.0
  0
ARC
  5
123
100
AcDbEntity
  8
0
 62
256
370
-1
  6
ByLayer
100
AcDbCircle
 10
305.25
 20
50.0000000000000284
 30
0.0
 40
1.5
100
AcDbArc
 50
92.86598398259882
 51
267.1340160174010521
  0
ARC
  5
124
100
AcDbEntity
  8
0
 62
256
370
-1
  6
ByLayer
100
AcDbCircle
 10
305.25
 20
50.0000000000000284
 30
0.0
 40
1.5
100
AcDbArc
 50
272.8659839825988911
 51
87.1340160174011658
  0
LINE
  5
125
100
AcDbEntity
100
AcDbLine
  8
0
 62
256
370
-1
  6
ByLayer
 10
307.5
 20
45.0000000000000284
 30
0.0
 11
305.3249999999999886
 21
45.0000000000000284
 31
0.0
  0
LINE
  5
126
100
AcDbEntity
100
AcDbLine
  8
0
 62
256
370
-1
  6
ByLayer
 10
305.1750000000000114
 20
45.0000000000000284
 30
0.0
 11
303.0
 21
45.0000000000000284
 31
0.0
  0
LINE
  5
127
100
AcDbEntity
100
AcDbLine
  8
0
 62
256
370
-1
  6
ByLayer
 10
307.5
 20
155.0000000000000284
 30
0.0
 11
307.5
 21
160.0000000000000284
 31
0.0
  0
LINE
  5
128
100
AcDbEntity
100
AcDbLine
  8
0
 62
256
370
-1
  6
ByLayer
 10
307.5
 20
145.0000000000000284
 30
0.0
 11
307.5
 21
140.0000000000000284
 31
0.0
  0
LINE
  5
129
100
AcDbEntity
100
AcDbLine
  8
0
 62
256
370
-1
  6
ByLayer
 10
303.0
 20
155.0000000000000284
 30
0.0
 11
303.0
 21
160.0000000000000284
 31
0.0
  0
LINE
  5
12A
100
AcDbEntity
100
AcDbLine
  8
0
 62
256
370
-1
  6
ByLayer
 10
303.0
 20
145.0000000000000284
 30
0.0
 11
303.0
 21
140.0000000000000284
 31
0.0
  0
LINE
  5
12B
100
AcDbEntity
100
AcDbLine
  8
0
 62
256
370
-1
  6
ByLayer
 10
307.5
 20
160.0000000000000284
 30
0.0
 11
303.0
 21
160.0000000000000284
 31
0.0
  0
LINE
  5
12C
100
AcDbEntity
100
AcDbLine
  8
0
 62
256
370
-1
  6
ByLayer
 10
307.5
 20
140.0000000000000284
 30
0.0
 11
303.0
 21
140.0000000000000284
 31
0.0
  0
LINE
  5
12D
100
AcDbEntity
100
AcDbLine
  8
0
 62
256
370
-1
  6
ByLayer
 10
307.5
 20
155.0000000000000284
 30
0.0
 11
305.3249999999999886
 21
155.0000000000000284
 31
0.0
  0
LINE
  5
12E
100
AcDbEntity
100
AcDbLine
  8
0
 62
256
370
-1
  6
ByLayer
 10
305.1750000000000114
 20
155.0000000000000284
 30
0.0
 11
303.0
 21
155.0000000000000284
 31
0.0
  0
LINE
  5
12F
100
AcDbEntity
100
AcDbLine
  8
0
 62
256
370
-1
  6
ByLayer
 10
305.1750000000000114
 20
155.0000000000000284
 30
0.0
 11
305.1750000000000114
 21
151.4981238266579169
 31
0.0
  0
LINE
  5
130
100
AcDbEntity
100
AcDbLine
  8
0
 62
256
370
-1
  6
ByLayer
 10
305.3249999999999886
 20
155.0000000000000284
 30
0.0
 11
305.3249999999999886
 21
151.4981238266579169
 31
0.0
  0
LINE
  5
131
100
AcDbEntity
100
AcDbLine
  8
0
 62
256
370
-1
  6
ByLayer
 10
305.3249999999999886
 20
148.50187617334214
 30
0.0
 11
305.3249999999999886
 21
145.0000000000000284
 31
0.0
  0
LINE
  5
132
100
AcDbEntity
100
AcDbLine
  8
0
 62
256
370
-1
  6
ByLayer
 10
305.1750000000000114
 20
148.50187617334214
 30
0.0
 11
305.1750000000000114
 21
145.0000000000000284
 31
0.0
  0
ARC
  5
133
100
AcDbEntity
  8
0
 62
256
370
-1
  6
ByLayer
100
AcDbCircle
 10
305.25
 20
150.0000000000000284
 30
0.0
 40
1.5
100
AcDbArc
 50
92.86598398259882
 51
267.1340160174010521
  0
ARC
  5
134
100
AcDbEntity
  8
0
 62
256
370
-1
  6
ByLayer
100
AcDbCircle
 10
305.25
 20
150.0000000000000284
 30
0.0
 40
1.5
100
AcDbArc
 50
272.8659839825988911
 51
87.1340160174011658
  0
LINE
  5
135
100
AcDbEntity
100
AcDbLine
  8
0
 62
256
370
-1
  6
ByLayer
 10
307.5
 20
145.0000000000000284
 30
0.0
 11
305.3249999999999886
 21
145.0000000000000284
 31
0.0
  0
LINE
  5
136
100
AcDbEntity
100
AcDbLine
  8
0
 62
256
370
-1
  6
ByLayer
 10
305.1750000000000114
 20
145.0000000000000284
 30
0.0
 11
303.0
 21
145.0000000000000284
 31
0.0
  0
LINE
  5
137
100
AcDbEntity
100
AcDbLine
  8
0
 62
256
370
-1
  6
ByLayer
 10
307.5
 20
255.0
 30
0.0
 11
307.5
 21
260.0
 31
0.0
  0
LINE
  5
138
100
AcDbEntity
100
AcDbLine
  8
0
 62
256
370
-1
  6
ByLayer
 10
307.5
 20
245.0
 30
0.0
 11
307.5
 21
240.0
 31
0.0
  0
LINE
  5
139
100
AcDbEntity
100
AcDbLine
  8
0
 62
256
370
-1
  6
ByLayer
 10
303.0
 20
255.0
 30
0.0
 11
303.0
 21
260.0
 31
0.0
  0
LINE
  5
13A
100
AcDbEntity
100
AcDbLine
  8
0
 62
256
370
-1
  6
ByLayer
 10
303.0
 20
245.0
 30
0.0
 11
303.0
 21
240.0
 31
0.0
  0
LINE
  5
13B
100
AcDbEntity
100
AcDbLine
  8
0
 62
256
370
-1
  6
ByLayer
 10
307.5
 20
260.0
 30
0.0
 11
303.0
 21
260.0
 31
0.0
  0
LINE
  5
13C
100
AcDbEntity
100
AcDbLine
  8
0
 62
256
370
-1
  6
ByLayer
 10
307.5
 20
240.0
 30
0.0
 11
303.0
 21
240.0
 31
0.0
  0
LINE
  5
13D
100
AcDbEntity
100
AcDbLine
  8
0
 62
256
370
-1
  6
ByLayer
 10
307.5
 20
255.0
 30
0.0
 11
305.3249999999999886
 21
255.0
 31
0.0
  0
LINE
  5
13E
100
AcDbEntity
100
AcDbLine
  8
0
 62
256
370
-1
  6
ByLayer
 10
305.1750000000000114
 20
255.0
 30
0.0
 11
303.0
 21
255.0
 31
0.0
  0
LINE
  5
13F
100
AcDbEntity
100
AcDbLine
  8
0
 62
256
370
-1
  6
ByLayer
 10
305.1750000000000114
 20
255.0
 30
0.0
 11
305.1750000000000114
 21
251.4981238266578885
 31
0.0
  0
LINE
  5
140
100
AcDbEntity
100
AcDbLine
  8
0
 62
256
370
-1
  6
ByLayer
 10
305.3249999999999886
 20
255.0
 30
0.0
 11
305.3249999999999886
 21
251.4981238266578885
 31
0.0
  0
LINE
  5
141
100
AcDbEntity
100
AcDbLine
  8
0
 62
256
370
-1
  6
ByLayer
 10
305.3249999999999886
 20
248.5018761733421115
 30
0.0
 11
305.3249999999999886
 21
245.0
 31
0.0
  0
LINE
  5
142
100
AcDbEntity
100
AcDbLine
  8
0
 62
256
370
-1
  6
ByLayer
 10
305.1750000000000114
 20
248.5018761733421115
 30
0.0
 11
305.1750000000000114
 21
245.0
 31
0.0
  0
ARC
  5
143
100
AcDbEntity
  8
0
 62
256
370
-1
  6
ByLayer
100
AcDbCircle
 10
305.25
 20
250.0
 30
0.0
 40
1.5
100
AcDbArc
 50
92.86598398259882
 51
267.1340160174010521
  0
ARC
  5
144
100
AcDbEntity
  8
0
 62
256
370
-1
  6
ByLayer
100
AcDbCircle
 10
305.25
 20
250.0
 30
0.0
 40
1.5
100
AcDbArc
 50
272.8659839825988911
 51
87.1340160174011658
  0
LINE
  5
145
100
AcDbEntity
100
AcDbLine
  8
0
 62
256
370
-1
  6
ByLayer
 10
307.5
 20
245.0
 30
0.0
 11
305.3249999999999886
 21
245.0
 31
0.0
  0
LINE
  5
146
100
AcDbEntity
100
AcDbLine
  8
0
 62
256
370
-1
  6
ByLayer
 10
305.1750000000000114
 20
245.0
 30
0.0
 11
303.0
 21
245.0
 31
0.0
  0
LINE
  5
147
100
AcDbEntity
100
AcDbLine
  8
Etch
 62
256
370
-1
  6
ByLayer
 10
2.499999999999972
 20
7.5000000000000284
 30
0.0
 11
5.8333333333333055
 21
7.5000000000000275
 31
0.0
  0
LINE
  5
148
100
AcDbEntity
100
AcDbLine
  8
Etch
 62
256
370
-1
  6
ByLayer
 10
4.1666666666666377
 20
7.5000000000000284
 30
0.0
 11
4.1666666666666385
 21
2.5000000000000284
 31
0.0
  0
LINE
  5
149
100
AcDbEntity
100
AcDbLine
  8
Etch
 62
256
370
-1
  6
ByLayer
 10
7.4999999999999716
 20
4.7222222222222507
 30
0.0
 11
7.4999999999999716
 21
3.6111111111111396
 31
0.0
  0
ARC
  5
14A
100
AcDbEntity
  8
Etch
 62
256
370
-1
  6
ByLayer
100
AcDbCircle
 10
8.6111111111110823
 20
3.6111111111111396
 30
0.0
 40
1.1111111111111112
100
AcDbArc
 50
180.0
 51
0.0
  0
LINE
  5
14B
100
AcDbEntity
100
AcDbLine
  8
Etch
 62
256
370
-1
  6
ByLayer
 10
9.722222222222193
 20
3.6111111111111391
 30
0.0
 11
9.722222222222193
 21
4.7222222222222507
 31
0.0
  0
ARC
  5
14C
100
AcDbEntity
  8
Etch
 62
256
370
-1
  6
ByLayer
100
AcDbCircle
 10
8.6111111111110823
 20
4.7222222222222507
 30
0.0
 40
1.1111111111111112
100
AcDbArc
 50
0.0
 51
180.0
  0
LINE
  5
14D
100
AcDbEntity
100
AcDbLine
  8
Etch
 62
256
370
-1
  6
ByLayer
 10
11.3888888888888609
 20
2.5000000000000284
 30
0.0
 11
12.7777777777777501
 21
2.5000000000000284
 31
0.0
  0
ARC
  5
14E
100
AcDbEntity
  8
Etch
 62
256
370
-1
  6
ByLayer
100
AcDbCircle
 10
12.7777777777777501
 20
3.3333333333333619
 30
0.0
 40
0.8333333333333334
100
AcDbArc
 50
270.0
 51
0.0
  0
LINE
  5
14F
100
AcDbEntity
100
AcDbLine
  8
Etch
 62
256
370
-1
  6
ByLayer
 10
13.6111111111110823
 20
3.3333333333333619
 30
0.0
 11
13.6111111111110823
 21
5.0000000000000284
 31
0.0
  0
ARC
  5
150
100
AcDbEntity
  8
Etch
 62
256
370
-1
  6
ByLayer
100
AcDbCircle
 10
12.7777777777777501
 20
5.0000000000000284
 30
0.0
 40
0.8333333333333334
100
AcDbArc
 50
0.0
 51
90.0
  0
LINE
  5
151
100
AcDbEntity
100
AcDbLine
  8
Etch
 62
256
370
-1
  6
ByLayer
 10
12.7777777777777501
 20
5.8333333333333623
 30
0.0
 11
11.3888888888888609
 21
5.8333333333333623
 31
0.0
  0
LINE
  5
152
100
AcDbEntity
100
AcDbLine
  8
Etch
 62
256
370
-1
  6
ByLayer
 10
11.3888888888888609
 20
5.8333333333333623
 30
0.0
 11
11.3888888888888609
 21
0.8333333333333617
 31
0.0
  0
CIRCLE
  5
153
100
AcDbEntity
100
AcDbCircle
  8
Top
 62
256
370
-1
  6
ByLayer
 10
19.9999999999998863
 20
20.0000000000000568
 30
0.0
 40
1.5
  0
CIRCLE
  5
154
100
AcDbEntity
100
AcDbCircle
  8
Top
 62
256
370
-1
  6
ByLayer
 10
20.0
 20
280.0
 30
0.0
 40
1.5
  0
CIRCLE
  5
155
100
AcDbEntity
100
AcDbCircle
  8
Top
 62
256
370
-1
  6
ByLayer
 10
280.0
 20
280.0
 30
0.0
 40
1.5
  0
CIRCLE
  5
156
100
AcDbEntity
100
AcDbCircle
  8
Top
 62
256
370
-1
  6
ByLayer
 10
280.0
 20
19.9999999999999716
 30
0.0
 40
1.5
  0
ARC
  5
157
100
AcDbEntity
  8
Top
 62
256
370
-1
  6
ByLayer
100
AcDbCircle
 10
2.4999999999998863
 20
2.5000000000000568
 30
0.0
 40
2.5
100
AcDbArc
 50
180.0
 51
270.0
  0
LINE
  5
158
100
AcDbEntity
100
AcDbLine
  8
Top
 62
256
370
-1
  6
ByLayer
 10
297.4999999999999432
 20
0.0
 30
0.0
 11
2.5000000000000568
 21
0.0
 31
0.0
  0
ARC
  5
159
100
AcDbEntity
  8
Top
 62
256
370
-1
  6
ByLayer
100
AcDbCircle
 10
297.4999999999999432
 20
2.5
 30
0.0
 40
2.5
100
AcDbArc
 50
270.0
 51
0.0
  0
LINE
  5
15A
100
AcDbEntity
100
AcDbLine
  8
Top
 62
256
370
-1
  6
ByLayer
 10
300.0
 20
297.5
 30
0.0
 11
300.0
 21
2.4999999999999147
 31
0.0
  0
ARC
  5
15B
100
AcDbEntity
  8
Top
 62
256
370
-1
  6
ByLayer
100
AcDbCircle
 10
297.5
 20
297.5000000000000568
 30
0.0
 40
2.5
100
AcDbArc
 50
0.0
 51
90.0000000000000142
  0
LINE
  5
15C
100
AcDbEntity
100
AcDbLine
  8
Top
 62
256
370
-1
  6
ByLayer
 10
2.5
 20
300.0
 30
0.0
 11
297.5
 21
300.0
 31
0.0
  0
LINE
  5
15D
100
AcDbEntity
100
AcDbLine
  8
Top
 62
256
370
-1
  6
ByLayer
 10
0.0
 20
2.5000000000000284
 30
0.0
 11
0.0000000000000284
 21
297.5
 31
0.0
  0
ARC
  5
15E
100
AcDbEntity
  8
Top
 62
256
370
-1
  6
ByLayer
100
AcDbCircle
 10
2.5
 20
297.5
 30
0.0
 40
2.5
100
AcDbArc
 50
90.0000000000000142
 51
180.0
  0
LINE
  5
15F
100
AcDbEntity
100
AcDbLine
  8
0
 62
256
370
-1
  6
ByLayer
 10
244.9999999999999716
 20
7.4999999999999725
 30
0.0
 11
239.9999999999999716
 21
7.4999999999999725
 31
0.0
  0
LINE
  5
160
100
AcDbEntity
100
AcDbLine
  8
0
 62
256
370
-1
  6
ByLayer
 10
254.9999999999999716
 20
7.4999999999999716
 30
0.0
 11
260.0
 21
7.4999999999999716
 31
0.0
  0
LINE
  5
161
100
AcDbEntity
100
AcDbLine
  8
0
 62
256
370
-1
  6
ByLayer
 10
244.9999999999999716
 20
2.9999999999999734
 30
0.0
 11
239.9999999999999716
 21
2.9999999999999751
 31
0.0
  0
LINE
  5
162
100
AcDbEntity
100
AcDbLine
  8
0
 62
256
370
-1
  6
ByLayer
 10
254.9999999999999716
 20
2.9999999999999698
 30
0.0
 11
260.0
 21
2.9999999999999654
 31
0.0
  0
LINE
  5
163
100
AcDbEntity
100
AcDbLine
  8
0
 62
256
370
-1
  6
ByLayer
 10
239.9999999999999716
 20
7.4999999999999725
 30
0.0
 11
239.9999999999999716
 21
2.999999999999976
 31
0.0
  0
LINE
  5
164
100
AcDbEntity
100
AcDbLine
  8
0
 62
256
370
-1
  6
ByLayer
 10
260.0
 20
7.4999999999999716
 30
0.0
 11
260.0
 21
2.9999999999999654
 31
0.0
  0
LINE
  5
165
100
AcDbEntity
100
AcDbLine
  8
0
 62
256
370
-1
  6
ByLayer
 10
244.9999999999999716
 20
7.4999999999999725
 30
0.0
 11
244.9999999999999716
 21
5.3249999999999726
 31
0.0
  0
LINE
  5
166
100
AcDbEntity
100
AcDbLine
  8
0
 62
256
370
-1
  6
ByLayer
 10
244.9999999999999716
 20
5.174999999999975
 30
0.0
 11
244.9999999999999716
 21
2.9999999999999734
 31
0.0
  0
LINE
  5
167
100
AcDbEntity
100
AcDbLine
  8
0
 62
256
370
-1
  6
ByLayer
 10
244.9999999999999716
 20
5.174999999999975
 30
0.0
 11
248.5018761733421115
 21
5.1749999999999714
 31
0.0
  0
LINE
  5
168
100
AcDbEntity
100
AcDbLine
  8
0
 62
256
370
-1
  6
ByLayer
 10
244.9999999999999716
 20
5.3249999999999726
 30
0.0
 11
248.5018761733421115
 21
5.3249999999999726
 31
0.0
  0
LINE
  5
169
100
AcDbEntity
100
AcDbLine
  8
0
 62
256
370
-1
  6
ByLayer
 10
251.4981238266578316
 20
5.3249999999999709
 30
0.0
 11
254.9999999999999716
 21
5.3249999999999709
 31
0.0
  0
LINE
  5
16A
100
AcDbEntity
100
AcDbLine
  8
0
 62
256
370
-1
  6
ByLayer
 10
251.4981238266578316
 20
5.1749999999999705
 30
0.0
 11
254.9999999999999716
 21
5.1749999999999723
 31
0.0
  0
ARC
  5
16B
100
AcDbEntity
  8
0
 62
256
370
-1
  6
ByLayer
100
AcDbCircle
 10
249.9999999999999716
 20
5.2499999999999716
 30
0.0
 40
1.5
100
AcDbArc
 50
182.8659839825988627
 51
357.1340160174011089
  0
ARC
  5
16C
100
AcDbEntity
  8
0
 62
256
370
-1
  6
ByLayer
100
AcDbCircle
 10
249.9999999999999716
 20
5.2499999999999716
 30
0.0
 40
1.5
100
AcDbArc
 50
2.8659839825988596
 51
177.1340160174011373
  0
LINE
  5
16D
100
AcDbEntity
100
AcDbLine
  8
0
 62
256
370
-1
  6
ByLayer
 10
254.9999999999999716
 20
7.4999999999999716
 30
0.0
 11
254.9999999999999716
 21
5.3249999999999709
 31
0.0
  0
LINE
  5
16E
100
AcDbEntity
100
AcDbLine
  8
0
 62
256
370
-1
  6
ByLayer
 10
254.9999999999999716
 20
5.1749999999999723
 30
0.0
 11
254.9999999999999716
 21
2.9999999999999698
 31
0.0
  0
LINE
  5
16F
100
AcDbEntity
100
AcDbLine
  8
0
 62
256
370
-1
  6
ByLayer
 10
144.9999999999999716
 20
7.5000000000000009
 30
0.0
 11
139.9999999999999716
 21
7.5000000000000009
 31
0.0
  0
LINE
  5
170
100
AcDbEntity
100
AcDbLine
  8
0
 62
256
370
-1
  6
ByLayer
 10
154.9999999999999716
 20
7.5
 30
0.0
 11
159.9999999999999716
 21
7.5
 31
0.0
  0
LINE
  5
171
100
AcDbEntity
100
AcDbLine
  8
0
 62
256
370
-1
  6
ByLayer
 10
144.9999999999999716
 20
3.0000000000000018
 30
0.0
 11
139.9999999999999716
 21
3.0000000000000036
 31
0.0
  0
LINE
  5
172
100
AcDbEntity
100
AcDbLine
  8
0
 62
256
370
-1
  6
ByLayer
 10
154.9999999999999716
 20
2.9999999999999982
 30
0.0
 11
159.9999999999999716
 21
2.9999999999999956
 31
0.0
  0
LINE
  5
173
100
AcDbEntity
100
AcDbLine
  8
0
 62
256
370
-1
  6
ByLayer
 10
139.9999999999999716
 20
7.5000000000000009
 30
0.0
 11
139.9999999999999716
 21
3.0000000000000044
 31
0.0
  0
LINE
  5
174
100
AcDbEntity
100
AcDbLine
  8
0
 62
256
370
-1
  6
ByLayer
 10
159.9999999999999716
 20
7.5
 30
0.0
 11
159.9999999999999716
 21
2.9999999999999956
 31
0.0
  0
LINE
  5
175
100
AcDbEntity
100
AcDbLine
  8
0
 62
256
370
-1
  6
ByLayer
 10
144.9999999999999716
 20
7.5000000000000009
 30
0.0
 11
144.9999999999999716
 21
5.3250000000000011
 31
0.0
  0
LINE
  5
176
100
AcDbEntity
100
AcDbLine
  8
0
 62
256
370
-1
  6
ByLayer
 10
144.9999999999999716
 20
5.1750000000000034
 30
0.0
 11
144.9999999999999716
 21
3.0000000000000018
 31
0.0
  0
LINE
  5
177
100
AcDbEntity
100
AcDbLine
  8
0
 62
256
370
-1
  6
ByLayer
 10
144.9999999999999716
 20
5.1750000000000034
 30
0.0
 11
148.5018761733421115
 21
5.1749999999999998
 31
0.0
  0
LINE
  5
178
100
AcDbEntity
100
AcDbLine
  8
0
 62
256
370
-1
  6
ByLayer
 10
144.9999999999999716
 20
5.3250000000000011
 30
0.0
 11
148.5018761733421115
 21
5.3250000000000011
 31
0.0
  0
LINE
  5
179
100
AcDbEntity
100
AcDbLine
  8
0
 62
256
370
-1
  6
ByLayer
 10
151.4981238266578316
 20
5.3249999999999993
 30
0.0
 11
154.9999999999999716
 21
5.3249999999999993
 31
0.0
  0
LINE
  5
17A
100
AcDbEntity
100
AcDbLine
  8
0
 62
256
370
-1
  6
ByLayer
 10
151.4981238266578316
 20
5.1749999999999989
 30
0.0
 11
154.9999999999999716
 21
5.1750000000000007
 31
0.0
  0
ARC
  5
17B
100
AcDbEntity
  8
0
 62
256
370
-1
  6
ByLayer
100
AcDbCircle
 10
149.9999999999999716
 20
5.25
 30
0.0
 40
1.5
100
AcDbArc
 50
182.8659839825988627
 51
357.1340160174011089
  0
ARC
  5
17C
100
AcDbEntity
  8
0
 62
256
370
-1
  6
ByLayer
100
AcDbCircle
 10
149.9999999999999716
 20
5.25
 30
0.0
 40
1.5
100
AcDbArc
 50
2.8659839825988596
 51
177.1340160174011373
  0
LINE
  5
17D
100
AcDbEntity
100
AcDbLine
  8
0
 62
256
370
-1
  6
ByLayer
 10
154.9999999999999716
 20
7.5
 30
0.0
 11
154.9999999999999716
 21
5.3249999999999993
 31
0.0
  0
LINE
  5
17E
100
AcDbEntity
100
AcDbLine
  8
0
 62
256
370
-1
  6
ByLayer
 10
154.9999999999999716
 20
5.1750000000000007
 30
0.0
 11
154.9999999999999716
 21
2.9999999999999982
 31
0.0
  0
LINE
  5
17F
100
AcDbEntity
100
AcDbLine
  8
0
 62
256
370
-1
  6
ByLayer
 10
44.9999999999999858
 20
7.5000000000000009
 30
0.0
 11
39.9999999999999858
 21
7.5000000000000009
 31
0.0
  0
LINE
  5
180
100
AcDbEntity
100
AcDbLine
  8
0
 62
256
370
-1
  6
ByLayer
 10
54.9999999999999858
 20
7.5
 30
0.0
 11
59.9999999999999858
 21
7.5
 31
0.0
  0
LINE
  5
181
100
AcDbEntity
100
AcDbLine
  8
0
 62
256
370
-1
  6
ByLayer
 10
44.9999999999999858
 20
3.0000000000000018
 30
0.0
 11
39.9999999999999858
 21
3.0000000000000036
 31
0.0
  0
LINE
  5
182
100
AcDbEntity
100
AcDbLine
  8
0
 62
256
370
-1
  6
ByLayer
 10
54.9999999999999858
 20
2.9999999999999982
 30
0.0
 11
59.9999999999999858
 21
2.9999999999999956
 31
0.0
  0
LINE
  5
183
100
AcDbEntity
100
AcDbLine
  8
0
 62
256
370
-1
  6
ByLayer
 10
39.9999999999999858
 20
7.5000000000000009
 30
0.0
 11
39.9999999999999858
 21
3.0000000000000044
 31
0.0
  0
LINE
  5
184
100
AcDbEntity
100
AcDbLine
  8
0
 62
256
370
-1
  6
ByLayer
 10
59.9999999999999858
 20
7.5
 30
0.0
 11
59.9999999999999858
 21
2.9999999999999956
 31
0.0
  0
LINE
  5
185
100
AcDbEntity
100
AcDbLine
  8
0
 62
256
370
-1
  6
ByLayer
 10
44.9999999999999858
 20
7.5000000000000009
 30
0.0
 11
44.9999999999999858
 21
5.3250000000000011
 31
0.0
  0
LINE
  5
186
100
AcDbEntity
100
AcDbLine
  8
0
 62
256
370
-1
  6
ByLayer
 10
44.9999999999999858
 20
5.1750000000000034
 30
0.0
 11
44.9999999999999858
 21
3.0000000000000018
 31
0.0
  0
LINE
  5
187
100
AcDbEntity
100
AcDbLine
  8
0
 62
256
370
-1
  6
ByLayer
 10
44.9999999999999858
 20
5.1750000000000034
 30
0.0
 11
48.5018761733421186
 21
5.1749999999999989
 31
0.0
  0
LINE
  5
188
100
AcDbEntity
100
AcDbLine
  8
0
 62
256
370
-1
  6
ByLayer
 10
44.9999999999999858
 20
5.3250000000000011
 30
0.0
 11
48.5018761733421186
 21
5.3250000000000011
 31
0.0
  0
LINE
  5
189
100
AcDbEntity
100
AcDbLine
  8
0
 62
256
370
-1
  6
ByLayer
 10
51.4981238266578458
 20
5.3249999999999993
 30
0.0
 11
54.9999999999999858
 21
5.3249999999999993
 31
0.0
  0
LINE
  5
18A
100
AcDbEntity
100
AcDbLine
  8
0
 62
256
370
-1
  6
ByLayer
 10
51.4981238266578458
 20
5.1749999999999989
 30
0.0
 11
54.9999999999999858
 21
5.1750000000000007
 31
0.0
  0
ARC
  5
18B
100
AcDbEntity
  8
0
 62
256
370
-1
  6
ByLayer
100
AcDbCircle
 10
49.9999999999999858
 20
5.25
 30
0.0
 40
1.5
100
AcDbArc
 50
182.8659839825988627
 51
357.1340160174011089
  0
ARC
  5
18C
100
AcDbEntity
  8
0
 62
256
370
-1
  6
ByLayer
100
AcDbCircle
 10
49.9999999999999858
 20
5.25
 30
0.0
 40
1.5
100
AcDbArc
 50
2.8659839825988596
 51
177.1340160174011373
  0
LINE
  5
18D
100
AcDbEntity
100
AcDbLine
  8
0
 62
256
370
-1
  6
ByLayer
 10
54.9999999999999858
 20
7.5
 30
0.0
 11
54.9999999999999858
 21
5.3249999999999993
 31
0.0
  0
LINE
  5
18E
100
AcDbEntity
100
AcDbLine
  8
0
 62
256
370
-1
  6
ByLayer
 10
54.9999999999999858
 20
5.1750000000000007
 30
0.0
 11
54.9999999999999858
 21
2.9999999999999982
 31
0.0
  0
LINE
  5
18F
100
AcDbEntity
100
AcDbLine
  8
0
 62
256
370
-1
  6
ByLayer
 10
154.9999999999999716
 20
292.5
 30
0.0
 11
159.9999999999999716
 21
292.5
 31
0.0
  0
LINE
  5
190
100
AcDbEntity
100
AcDbLine
  8
0
 62
256
370
-1
  6
ByLayer
 10
144.9999999999999716
 20
292.5
 30
0.0
 11
139.9999999999999716
 21
292.5
 31
0.0
  0
LINE
  5
191
100
AcDbEntity
100
AcDbLine
  8
0
 62
256
370
-1
  6
ByLayer
 10
154.9999999999999716
 20
297.0
 30
0.0
 11
159.9999999999999716
 21
297.0
 31
0.0
  0
LINE
  5
192
100
AcDbEntity
100
AcDbLine
  8
0
 62
256
370
-1
  6
ByLayer
 10
144.9999999999999716
 20
297.0
 30
0.0
 11
139.9999999999999716
 21
297.0
 31
0.0
  0
LINE
  5
193
100
AcDbEntity
100
AcDbLine
  8
0
 62
256
370
-1
  6
ByLayer
 10
159.9999999999999716
 20
292.5
 30
0.0
 11
159.9999999999999716
 21
297.0
 31
0.0
  0
LINE
  5
194
100
AcDbEntity
100
AcDbLine
  8
0
 62
256
370
-1
  6
ByLayer
 10
139.9999999999999716
 20
292.5
 30
0.0
 11
139.9999999999999716
 21
297.0
 31
0.0
  0
LINE
  5
195
100
AcDbEntity
100
AcDbLine
  8
0
 62
256
370
-1
  6
ByLayer
 10
154.9999999999999716
 20
292.5
 30
0.0
 11
154.9999999999999716
 21
294.6750000000000114
 31
0.0
  0
LINE
  5
196
100
AcDbEntity
100
AcDbLine
  8
0
 62
256
370
-1
  6
ByLayer
 10
154.9999999999999716
 20
294.8249999999999886
 30
0.0
 11
154.9999999999999716
 21
297.0
 31
0.0
  0
LINE
  5
197
100
AcDbEntity
100
AcDbLine
  8
0
 62
256
370
-1
  6
ByLayer
 10
154.9999999999999716
 20
294.8249999999999886
 30
0.0
 11
151.4981238266578316
 21
294.8249999999999886
 31
0.0
  0
LINE
  5
198
100
AcDbEntity
100
AcDbLine
  8
0
 62
256
370
-1
  6
ByLayer
 10
154.9999999999999716
 20
294.6750000000000114
 30
0.0
 11
151.4981238266578316
 21
294.6750000000000114
 31
0.0
  0
LINE
  5
199
100
AcDbEntity
100
AcDbLine
  8
0
 62
256
370
-1
  6
ByLayer
 10
148.5018761733421115
 20
294.6750000000000114
 30
0.0
 11
144.9999999999999716
 21
294.6750000000000114
 31
0.0
  0
LINE
  5
19A
100
AcDbEntity
100
AcDbLine
  8
0
 62
256
370
-1
  6
ByLayer
 10
148.5018761733421115
 20
294.8249999999999886
 30
0.0
 11
144.9999999999999716
 21
294.8249999999999886
 31
0.0
  0
ARC
  5
19B
100
AcDbEntity
  8
0
 62
256
370
-1
  6
ByLayer
100
AcDbCircle
 10
149.9999999999999716
 20
294.75
 30
0.0
 40
1.5
100
AcDbArc
 50
2.8659839825988267
 51
177.1340160174011658
  0
ARC
  5
19C
100
AcDbEntity
  8
0
 62
256
370
-1
  6
ByLayer
100
AcDbCircle
 10
149.9999999999999716
 20
294.75
 30
0.0
 40
1.5
100
AcDbArc
 50
182.8659839825988627
 51
357.1340160174011658
  0
LINE
  5
19D
100
AcDbEntity
100
AcDbLine
  8
0
 62
256
370
-1
  6
ByLayer
 10
144.9999999999999716
 20
292.5
 30
0.0
 11
144.9999999999999716
 21
294.6750000000000114
 31
0.0
  0
LINE
  5
19E
100
AcDbEntity
100
AcDbLine
  8
0
 62
256
370
-1
  6
ByLayer
 10
144.9999999999999716
 20
294.8249999999999886
 30
0.0
 11
144.9999999999999716
 21
297.0
 31
0.0
  0
LINE
  5
19F
100
AcDbEntity
100
AcDbLine
  8
0
 62
256
370
-1
  6
ByLayer
 10
255.0
 20
292.5
 30
0.0
 11
260.0
 21
292.5
 31
0.0
  0
LINE
  5
1A0
100
AcDbEntity
100
AcDbLine
  8
0
 62
256
370
-1
  6
ByLayer
 10
245.0
 20
292.5
 30
0.0
 11
240.0
 21
292.5
 31
0.0
  0
LINE
  5
1A1
100
AcDbEntity
100
AcDbLine
  8
0
 62
256
370
-1
  6
ByLayer
 10
255.0
 20
297.0
 30
0.0
 11
260.0
 21
297.0
 31
0.0
  0
LINE
  5
1A2
100
AcDbEntity
100
AcDbLine
  8
0
 62
256
370
-1
  6
ByLayer
 10
245.0
 20
297.0
 30
0.0
 11
240.0
 21
297.0
 31
0.0
  0
LINE
  5
1A3
100
AcDbEntity
100
AcDbLine
  8
0
 62
256
370
-1
  6
ByLayer
 10
260.0
 20
292.5
 30
0.0
 11
260.0
 21
297.0
 31
0.0
  0
LINE
  5
1A4
100
AcDbEntity
100
AcDbLine
  8
0
 62
256
370
-1
  6
ByLayer
 10
240.0
 20
292.5
 30
0.0
 11
240.0
 21
297.0
 31
0.0
  0
LINE
  5
1A5
100
AcDbEntity
100
AcDbLine
  8
0
 62
256
370
-1
  6
ByLayer
 10
255.0
 20
292.5
 30
0.0
 11
255.0
 21
294.6750000000000114
 31
0.0
  0
LINE
  5
1A6
100
AcDbEntity
100
AcDbLine
  8
0
 62
256
370
-1
  6
ByLayer
 10
255.0
 20
294.8249999999999886
 30
0.0
 11
255.0
 21
297.0
 31
0.0
  0
LINE
  5
1A7
100
AcDbEntity
100
AcDbLine
  8
0
 62
256
370
-1
  6
ByLayer
 10
255.0
 20
294.8249999999999886
 30
0.0
 11
251.49812382665786
 21
294.8249999999999886
 31
0.0
  0
LINE
  5
1A8
100
AcDbEntity
100
AcDbLine
  8
0
 62
256
370
-1
  6
ByLayer
 10
255.0
 20
294.6750000000000114
 30
0.0
 11
251.49812382665786
 21
294.6750000000000114
 31
0.0
  0
LINE
  5
1A9
100
AcDbEntity
100
AcDbLine
  8
0
 62
256
370
-1
  6
ByLayer
 10
248.50187617334214
 20
294.6750000000000114
 30
0.0
 11
245.0
 21
294.6750000000000114
 31
0.0
  0
LINE
  5
1AA
100
AcDbEntity
100
AcDbLine
  8
0
 62
256
370
-1
  6
ByLayer
 10
248.50187617334214
 20
294.8249999999999886
 30
0.0
 11
245.0
 21
294.8249999999999886
 31
0.0
  0
ARC
  5
1AB
100
AcDbEntity
  8
0
 62
256
370
-1
  6
ByLayer
100
AcDbCircle
 10
250.0
 20
294.75
 30
0.0
 40
1.5
100
AcDbArc
 50
2.8659839825988267
 51
177.1340160174011658
  0
ARC
  5
1AC
100
AcDbEntity
  8
0
 62
256
370
-1
  6
ByLayer
100
AcDbCircle
 10
250.0
 20
294.75
 30
0.0
 40
1.5
100
AcDbArc
 50
182.8659839825988627
 51
357.1340160174011658
  0
LINE
  5
1AD
100
AcDbEntity
100
AcDbLine
  8
0
 62
256
370
-1
  6
ByLayer
 10
245.0
 20
292.5
 30
0.0
 11
245.0
 21
294.6750000000000114
 31
0.0
  0
LINE
  5
1AE
100
AcDbEntity
100
AcDbLine
  8
0
 62
256
370
-1
  6
ByLayer
 10
245.0
 20
294.8249999999999886
 30
0.0
 11
245.0
 21
297.0
 31
0.0
  0
LINE
  5
1AF
100
AcDbEntity
100
AcDbLine
  8
0
 62
256
370
-1
  6
ByLayer
 10
54.9999999999999716
 20
292.4999999999999432
 30
0.0
 11
59.9999999999999716
 21
292.4999999999999432
 31
0.0
  0
LINE
  5
1B0
100
AcDbEntity
100
AcDbLine
  8
0
 62
256
370
-1
  6
ByLayer
 10
44.9999999999999716
 20
292.4999999999999432
 30
0.0
 11
39.9999999999999716
 21
292.4999999999999432
 31
0.0
  0
LINE
  5
1B1
100
AcDbEntity
100
AcDbLine
  8
0
 62
256
370
-1
  6
ByLayer
 10
54.9999999999999716
 20
296.9999999999999432
 30
0.0
 11
59.9999999999999716
 21
296.9999999999999432
 31
0.0
  0
LINE
  5
1B2
100
AcDbEntity
100
AcDbLine
  8
0
 62
256
370
-1
  6
ByLayer
 10
44.9999999999999716
 20
296.9999999999999432
 30
0.0
 11
39.9999999999999716
 21
296.9999999999999432
 31
0.0
  0
LINE
  5
1B3
100
AcDbEntity
100
AcDbLine
  8
0
 62
256
370
-1
  6
ByLayer
 10
59.9999999999999716
 20
292.4999999999999432
 30
0.0
 11
59.9999999999999716
 21
296.9999999999999432
 31
0.0
  0
LINE
  5
1B4
100
AcDbEntity
100
AcDbLine
  8
0
 62
256
370
-1
  6
ByLayer
 10
39.9999999999999716
 20
292.4999999999999432
 30
0.0
 11
39.9999999999999716
 21
296.9999999999999432
 31
0.0
  0
LINE
  5
1B5
100
AcDbEntity
100
AcDbLine
  8
0
 62
256
370
-1
  6
ByLayer
 10
54.9999999999999716
 20
292.4999999999999432
 30
0.0
 11
54.9999999999999716
 21
294.6749999999999545
 31
0.0
  0
LINE
  5
1B6
100
AcDbEntity
100
AcDbLine
  8
0
 62
256
370
-1
  6
ByLayer
 10
54.9999999999999716
 20
294.8249999999999318
 30
0.0
 11
54.9999999999999716
 21
296.9999999999999432
 31
0.0
  0
LINE
  5
1B7
100
AcDbEntity
100
AcDbLine
  8
0
 62
256
370
-1
  6
ByLayer
 10
54.9999999999999716
 20
294.8249999999999318
 30
0.0
 11
51.4981238266578387
 21
294.8249999999999318
 31
0.0
  0
LINE
  5
1B8
100
AcDbEntity
100
AcDbLine
  8
0
 62
256
370
-1
  6
ByLayer
 10
54.9999999999999716
 20
294.6749999999999545
 30
0.0
 11
51.4981238266578387
 21
294.6749999999999545
 31
0.0
  0
LINE
  5
1B9
100
AcDbEntity
100
AcDbLine
  8
0
 62
256
370
-1
  6
ByLayer
 10
48.5018761733421115
 20
294.6749999999999545
 30
0.0
 11
44.9999999999999716
 21
294.6749999999999545
 31
0.0
  0
LINE
  5
1BA
100
AcDbEntity
100
AcDbLine
  8
0
 62
256
370
-1
  6
ByLayer
 10
48.5018761733421115
 20
294.8249999999999318
 30
0.0
 11
44.9999999999999716
 21
294.8249999999999318
 31
0.0
  0
ARC
  5
1BB
100
AcDbEntity
  8
0
 62
256
370
-1
  6
ByLayer
100
AcDbCircle
 10
49.9999999999999716
 20
294.7499999999999432
 30
0.0
 40
1.5
100
AcDbArc
 50
2.8659839825988267
 51
177.1340160174011658
  0
ARC
  5
1BC
100
AcDbEntity
  8
0
 62
256
370
-1
  6
ByLayer
100
AcDbCircle
 10
49.9999999999999716
 20
294.7499999999999432
 30
0.0
 40
1.5
100
AcDbArc
 50
182.8659839825988627
 51
357.1340160174011658
  0
LINE
  5
1BD
100
AcDbEntity
100
AcDbLine
  8
0
 62
256
370
-1
  6
ByLayer
 10
44.9999999999999716
 20
292.4999999999999432
 30
0.0
 11
44.9999999999999716
 21
294.6749999999999545
 31
0.0
  0
LINE
  5
1BE
100
AcDbEntity
100
AcDbLine
  8
0
 62
256
370
-1
  6
ByLayer
 10
44.9999999999999716
 20
294.8249999999999318
 30
0.0
 11
44.9999999999999716
 21
296.9999999999999432
 31
0.0
  0
LINE
  5
1BF
100
AcDbEntity
100
AcDbLine
  8
0
 62
256
370
-1
  6
ByLayer
 10
292.5
 20
245.0000000000000284
 30
0.0
 11
292.5
 21
240.0000000000000284
 31
0.0
  0
LINE
  5
1C0
100
AcDbEntity
100
AcDbLine
  8
0
 62
256
370
-1
  6
ByLayer
 10
292.5
 20
255.0000000000000284
 30
0.0
 11
292.5
 21
260.0
 31
0.0
  0
LINE
  5
1C1
100
AcDbEntity
100
AcDbLine
  8
0
 62
256
370
-1
  6
ByLayer
 10
297.0
 20
245.0000000000000284
 30
0.0
 11
297.0
 21
240.0000000000000284
 31
0.0
  0
LINE
  5
1C2
100
AcDbEntity
100
AcDbLine
  8
0
 62
256
370
-1
  6
ByLayer
 10
297.0
 20
255.0000000000000284
 30
0.0
 11
297.0
 21
260.0
 31
0.0
  0
LINE
  5
1C3
100
AcDbEntity
100
AcDbLine
  8
0
 62
256
370
-1
  6
ByLayer
 10
292.5
 20
240.0000000000000284
 30
0.0
 11
297.0
 21
240.0000000000000284
 31
0.0
  0
LINE
  5
1C4
100
AcDbEntity
100
AcDbLine
  8
0
 62
256
370
-1
  6
ByLayer
 10
292.5
 20
260.0
 30
0.0
 11
297.0
 21
260.0
 31
0.0
  0
LINE
  5
1C5
100
AcDbEntity
100
AcDbLine
  8
0
 62
256
370
-1
  6
ByLayer
 10
292.5
 20
245.0000000000000284
 30
0.0
 11
294.6750000000000114
 21
245.0000000000000284
 31
0.0
  0
LINE
  5
1C6
100
AcDbEntity
100
AcDbLine
  8
0
 62
256
370
-1
  6
ByLayer
 10
294.8249999999999886
 20
245.0000000000000284
 30
0.0
 11
297.0
 21
245.0000000000000284
 31
0.0
  0
LINE
  5
1C7
100
AcDbEntity
100
AcDbLine
  8
0
 62
256
370
-1
  6
ByLayer
 10
294.8249999999999886
 20
245.0000000000000284
 30
0.0
 11
294.8249999999999886
 21
248.50187617334214
 31
0.0
  0
LINE
  5
1C8
100
AcDbEntity
100
AcDbLine
  8
0
 62
256
370
-1
  6
ByLayer
 10
294.6750000000000114
 20
245.0000000000000284
 30
0.0
 11
294.6750000000000114
 21
248.50187617334214
 31
0.0
  0
LINE
  5
1C9
100
AcDbEntity
100
AcDbLine
  8
0
 62
256
370
-1
  6
ByLayer
 10
294.6750000000000114
 20
251.4981238266579169
 30
0.0
 11
294.6750000000000114
 21
255.0000000000000284
 31
0.0
  0
LINE
  5
1CA
100
AcDbEntity
100
AcDbLine
  8
0
 62
256
370
-1
  6
ByLayer
 10
294.8249999999999886
 20
251.4981238266579169
 30
0.0
 11
294.8249999999999886
 21
255.0000000000000284
 31
0.0
  0
ARC
  5
1CB
100
AcDbEntity
  8
0
 62
256
370
-1
  6
ByLayer
100
AcDbCircle
 10
294.75
 20
250.0000000000000284
 30
0.0
 40
1.5
100
AcDbArc
 50
272.8659839825988342
 51
87.1340160174011231
  0
ARC
  5
1CC
100
AcDbEntity
  8
0
 62
256
370
-1
  6
ByLayer
100
AcDbCircle
 10
294.75
 20
250.0000000000000284
 30
0.0
 40
1.5
100
AcDbArc
 50
92.8659839825988627
 51
267.1340160174011658
  0
LINE
  5
1CD
100
AcDbEntity
100
AcDbLine
  8
0
 62
256
370
-1
  6
ByLayer
 10
292.5
 20
255.0000000000000284
 30
0.0
 11
294.6750000000000114
 21
255.0000000000000284
 31
0.0
  0
LINE
  5
1CE
100
AcDbEntity
100
AcDbLine
  8
0
 62
256
370
-1
  6
ByLayer
 10
294.8249999999999886
 20
255.0000000000000284
 30
0.0
 11
297.0
 21
255.0000000000000284
 31
0.0
  0
LINE
  5
1CF
100
AcDbEntity
100
AcDbLine
  8
0
 62
256
370
-1
  6
ByLayer
 10
292.5
 20
145.0
 30
0.0
 11
292.5
 21
140.0
 31
0.0
  0
LINE
  5
1D0
100
AcDbEntity
100
AcDbLine
  8
0
 62
256
370
-1
  6
ByLayer
 10
292.5
 20
155.0
 30
0.0
 11
292.5
 21
160.0
 31
0.0
  0
LINE
  5
1D1
100
AcDbEntity
100
AcDbLine
  8
0
 62
256
370
-1
  6
ByLayer
 10
297.0
 20
145.0
 30
0.0
 11
297.0
 21
140.0
 31
0.0
  0
LINE
  5
1D2
100
AcDbEntity
100
AcDbLine
  8
0
 62
256
370
-1
  6
ByLayer
 10
297.0
 20
155.0
 30
0.0
 11
297.0
 21
160.0
 31
0.0
  0
LINE
  5
1D3
100
AcDbEntity
100
AcDbLine
  8
0
 62
256
370
-1
  6
ByLayer
 10
292.5
 20
140.0
 30
0.0
 11
297.0
 21
140.0
 31
0.0
  0
LINE
  5
1D4
100
AcDbEntity
100
AcDbLine
  8
0
 62
256
370
-1
  6
ByLayer
 10
292.5
 20
160.0
 30
0.0
 11
297.0
 21
160.0
 31
0.0
  0
LINE
  5
1D5
100
AcDbEntity
100
AcDbLine
  8
0
 62
256
370
-1
  6
ByLayer
 10
292.5
 20
145.0
 30
0.0
 11
294.6750000000000114
 21
145.0
 31
0.0
  0
LINE
  5
1D6
100
AcDbEntity
100
AcDbLine
  8
0
 62
256
370
-1
  6
ByLayer
 10
294.8249999999999886
 20
145.0
 30
0.0
 11
297.0
 21
145.0
 31
0.0
  0
LINE
  5
1D7
100
AcDbEntity
100
AcDbLine
  8
0
 62
256
370
-1
  6
ByLayer
 10
294.8249999999999886
 20
145.0
 30
0.0
 11
294.8249999999999886
 21
148.5018761733421115
 31
0.0
  0
LINE
  5
1D8
100
AcDbEntity
100
AcDbLine
  8
0
 62
256
370
-1
  6
ByLayer
 10
294.6750000000000114
 20
145.0
 30
0.0
 11
294.6750000000000114
 21
148.5018761733421115
 31
0.0
  0
LINE
  5
1D9
100
AcDbEntity
100
AcDbLine
  8
0
 62
256
370
-1
  6
ByLayer
 10
294.6750000000000114
 20
151.4981238266578885
 30
0.0
 11
294.6750000000000114
 21
155.0
 31
0.0
  0
LINE
  5
1DA
100
AcDbEntity
100
AcDbLine
  8
0
 62
256
370
-1
  6
ByLayer
 10
294.8249999999999886
 20
151.4981238266578885
 30
0.0
 11
294.8249999999999886
 21
155.0
 31
0.0
  0
ARC
  5
1DB
100
AcDbEntity
  8
0
 62
256
370
-1
  6
ByLayer
100
AcDbCircle
 10
294.75
 20
150.0
 30
0.0
 40
1.5
100
AcDbArc
 50
272.8659839825988342
 51
87.1340160174011231
  0
ARC
  5
1DC
100
AcDbEntity
  8
0
 62
256
370
-1
  6
ByLayer
100
AcDbCircle
 10
294.75
 20
150.0
 30
0.0
 40
1.5
100
AcDbArc
 50
92.8659839825988627
 51
267.1340160174011658
  0
LINE
  5
1DD
100
AcDbEntity
100
AcDbLine
  8
0
 62
256
370
-1
  6
ByLayer
 10
292.5
 20
155.0
 30
0.0
 11
294.6750000000000114
 21
155.0
 31
0.0
  0
LINE
  5
1DE
100
AcDbEntity
100
AcDbLine
  8
0
 62
256
370
-1
  6
ByLayer
 10
294.8249999999999886
 20
155.0
 30
0.0
 11
297.0
 21
155.0
 31
0.0
  0
LINE
  5
1DF
100
AcDbEntity
100
AcDbLine
  8
0
 62
256
370
-1
  6
ByLayer
 10
292.5
 20
44.9999999999999716
 30
0.0
 11
292.5
 21
39.9999999999999716
 31
0.0
  0
LINE
  5
1E0
100
AcDbEntity
100
AcDbLine
  8
0
 62
256
370
-1
  6
ByLayer
 10
292.5
 20
54.9999999999999716
 30
0.0
 11
292.5
 21
59.9999999999999716
 31
0.0
  0
LINE
  5
1E1
100
AcDbEntity
100
AcDbLine
  8
0
 62
256
370
-1
  6
ByLayer
 10
297.0
 20
44.9999999999999716
 30
0.0
 11
297.0
 21
39.9999999999999716
 31
0.0
  0
LINE
  5
1E2
100
AcDbEntity
100
AcDbLine
  8
0
 62
256
370
-1
  6
ByLayer
 10
297.0
 20
54.9999999999999716
 30
0.0
 11
297.0
 21
59.9999999999999716
 31
0.0
  0
LINE
  5
1E3
100
AcDbEntity
100
AcDbLine
  8
0
 62
256
370
-1
  6
ByLayer
 10
292.5
 20
39.9999999999999716
 30
0.0
 11
297.0
 21
39.9999999999999716
 31
0.0
  0
LINE
  5
1E4
100
AcDbEntity
100
AcDbLine
  8
0
 62
256
370
-1
  6
ByLayer
 10
292.5
 20
59.9999999999999716
 30
0.0
 11
297.0
 21
59.9999999999999716
 31
0.0
  0
LINE
  5
1E5
100
AcDbEntity
100
AcDbLine
  8
0
 62
256
370
-1
  6
ByLayer
 10
292.5
 20
44.9999999999999716
 30
0.0
 11
294.6750000000000114
 21
44.9999999999999716
 31
0.0
  0
LINE
  5
1E6
100
AcDbEntity
100
AcDbLine
  8
0
 62
256
370
-1
  6
ByLayer
 10
294.8249999999999886
 20
44.9999999999999716
 30
0.0
 11
297.0
 21
44.9999999999999716
 31
0.0
  0
LINE
  5
1E7
100
AcDbEntity
100
AcDbLine
  8
0
 62
256
370
-1
  6
ByLayer
 10
294.8249999999999886
 20
44.9999999999999716
 30
0.0
 11
294.8249999999999886
 21
48.5018761733420831
 31
0.0
  0
LINE
  5
1E8
100
AcDbEntity
100
AcDbLine
  8
0
 62
256
370
-1
  6
ByLayer
 10
294.6750000000000114
 20
44.9999999999999716
 30
0.0
 11
294.6750000000000114
 21
48.5018761733420831
 31
0.0
  0
LINE
  5
1E9
100
AcDbEntity
100
AcDbLine
  8
0
 62
256
370
-1
  6
ByLayer
 10
294.6750000000000114
 20
51.49812382665786
 30
0.0
 11
294.6750000000000114
 21
54.9999999999999716
 31
0.0
  0
LINE
  5
1EA
100
AcDbEntity
100
AcDbLine
  8
0
 62
256
370
-1
  6
ByLayer
 10
294.8249999999999886
 20
51.49812382665786
 30
0.0
 11
294.8249999999999886
 21
54.9999999999999716
 31
0.0
  0
ARC
  5
1EB
100
AcDbEntity
  8
0
 62
256
370
-1
  6
ByLayer
100
AcDbCircle
 10
294.75
 20
49.9999999999999716
 30
0.0
 40
1.5
100
AcDbArc
 50
272.8659839825988342
 51
87.1340160174011231
  0
ARC
  5
1EC
100
AcDbEntity
  8
0
 62
256
370
-1
  6
ByLayer
100
AcDbCircle
 10
294.75
 20
49.9999999999999716
 30
0.0
 40
1.5
100
AcDbArc
 50
92.8659839825988627
 51
267.1340160174011658
  0
LINE
  5
1ED
100
AcDbEntity
100
AcDbLine
  8
0
 62
256
370
-1
  6
ByLayer
 10
292.5
 20
54.9999999999999716
 30
0.0
 11
294.6750000000000114
 21
54.9999999999999716
 31
0.0
  0
LINE
  5
1EE
100
AcDbEntity
100
AcDbLine
  8
0
 62
256
370
-1
  6
ByLayer
 10
294.8249999999999886
 20
54.9999999999999716
 30
0.0
 11
297.0
 21
54.9999999999999716
 31
0.0
  0
LINE
  5
1EF
100
AcDbEntity
100
AcDbLine
  8
0
 62
256
370
-1
  6
ByLayer
 10
7.4999999999999449
 20
155.0000000000000284
 30
0.0
 11
7.4999999999999458
 21
160.0000000000000284
 31
0.0
  0
LINE
  5
1F0
100
AcDbEntity
100
AcDbLine
  8
0
 62
256
370
-1
  6
ByLayer
 10
7.4999999999999423
 20
145.0000000000000284
 30
0.0
 11
7.4999999999999414
 21
140.0000000000000284
 31
0.0
  0
LINE
  5
1F1
100
AcDbEntity
100
AcDbLine
  8
0
 62
256
370
-1
  6
ByLayer
 10
2.9999999999999432
 20
155.0000000000000284
 30
0.0
 11
2.999999999999944
 21
160.0000000000000284
 31
0.0
  0
LINE
  5
1F2
100
AcDbEntity
100
AcDbLine
  8
0
 62
256
370
-1
  6
ByLayer
 10
2.9999999999999405
 20
145.0000000000000284
 30
0.0
 11
2.9999999999999369
 21
140.0000000000000284
 31
0.0
  0
LINE
  5
1F3
100
AcDbEntity
100
AcDbLine
  8
0
 62
256
370
-1
  6
ByLayer
 10
7.4999999999999458
 20
160.0000000000000284
 30
0.0
 11
2.999999999999944
 21
160.0000000000000284
 31
0.0
  0
LINE
  5
1F4
100
AcDbEntity
100
AcDbLine
  8
0
 62
256
370
-1
  6
ByLayer
 10
7.4999999999999414
 20
140.0000000000000284
 30
0.0
 11
2.9999999999999369
 21
140.0000000000000284
 31
0.0
  0
LINE
  5
1F5
100
AcDbEntity
100
AcDbLine
  8
0
 62
256
370
-1
  6
ByLayer
 10
7.4999999999999449
 20
155.0000000000000284
 30
0.0
 11
5.3249999999999345
 21
155.0000000000000284
 31
0.0
  0
LINE
  5
1F6
100
AcDbEntity
100
AcDbLine
  8
0
 62
256
370
-1
  6
ByLayer
 10
5.1749999999999527
 20
155.0000000000000284
 30
0.0
 11
2.9999999999999432
 21
155.0000000000000284
 31
0.0
  0
LINE
  5
1F7
100
AcDbEntity
100
AcDbLine
  8
0
 62
256
370
-1
  6
ByLayer
 10
5.1749999999999527
 20
155.0000000000000284
 30
0.0
 11
5.1749999999999563
 21
151.4981238266578885
 31
0.0
  0
LINE
  5
1F8
100
AcDbEntity
100
AcDbLine
  8
0
 62
256
370
-1
  6
ByLayer
 10
5.3249999999999345
 20
155.0000000000000284
 30
0.0
 11
5.3249999999999318
 21
151.4981238266578885
 31
0.0
  0
LINE
  5
1F9
100
AcDbEntity
100
AcDbLine
  8
0
 62
256
370
-1
  6
ByLayer
 10
5.3249999999999318
 20
148.5018761733421684
 30
0.0
 11
5.3249999999999318
 21
145.0000000000000284
 31
0.0
  0
LINE
  5
1FA
100
AcDbEntity
100
AcDbLine
  8
0
 62
256
370
-1
  6
ByLayer
 10
5.1749999999999545
 20
148.5018761733421684
 30
0.0
 11
5.1749999999999501
 21
145.0000000000000284
 31
0.0
  0
ARC
  5
1FB
100
AcDbEntity
  8
0
 62
256
370
-1
  6
ByLayer
100
AcDbCircle
 10
5.2499999999999432
 20
150.0000000000000284
 30
0.0
 40
1.5
100
AcDbArc
 50
92.86598398259882
 51
267.1340160174010521
  0
ARC
  5
1FC
100
AcDbEntity
  8
0
 62
256
370
-1
  6
ByLayer
100
AcDbCircle
 10
5.2499999999999432
 20
150.0000000000000284
 30
0.0
 40
1.5
100
AcDbArc
 50
272.8659839825988911
 51
87.1340160174011658
  0
LINE
  5
1FD
100
AcDbEntity
100
AcDbLine
  8
0
 62
256
370
-1
  6
ByLayer
 10
7.4999999999999423
 20
145.0000000000000284
 30
0.0
 11
5.3249999999999318
 21
145.0000000000000284
 31
0.0
  0
LINE
  5
1FE
100
AcDbEntity
100
AcDbLine
  8
0
 62
256
370
-1
  6
ByLayer
 10
5.1749999999999501
 20
145.0000000000000284
 30
0.0
 11
2.9999999999999405
 21
145.0000000000000284
 31
0.0
  0
LINE
  5
1FF
100
AcDbEntity
100
AcDbLine
  8
0
 62
256
370
-1
  6
ByLayer
 10
7.4999999999999165
 20
55.0000000000000711
 30
0.0
 11
7.4999999999999174
 21
60.0000000000000711
 31
0.0
  0
LINE
  5
200
100
AcDbEntity
100
AcDbLine
  8
0
 62
256
370
-1
  6
ByLayer
 10
7.4999999999999138
 20
45.0000000000000711
 30
0.0
 11
7.499999999999913
 21
40.0000000000000711
 31
0.0
  0
LINE
  5
201
100
AcDbEntity
100
AcDbLine
  8
0
 62
256
370
-1
  6
ByLayer
 10
2.9999999999999147
 20
55.0000000000000711
 30
0.0
 11
2.9999999999999156
 21
60.0000000000000711
 31
0.0
  0
LINE
  5
202
100
AcDbEntity
100
AcDbLine
  8
0
 62
256
370
-1
  6
ByLayer
 10
2.9999999999999121
 20
45.0000000000000711
 30
0.0
 11
2.9999999999999085
 21
40.0000000000000711
 31
0.0
  0
LINE
  5
203
100
AcDbEntity
100
AcDbLine
  8
0
 62
256
370
-1
  6
ByLayer
 10
7.4999999999999174
 20
60.0000000000000711
 30
0.0
 11
2.9999999999999156
 21
60.0000000000000711
 31
0.0
  0
LINE
  5
204
100
AcDbEntity
100
AcDbLine
  8
0
 62
256
370
-1
  6
ByLayer
 10
7.499999999999913
 20
40.0000000000000711
 30
0.0
 11
2.9999999999999085
 21
40.0000000000000711
 31
0.0
  0
LINE
  5
205
100
AcDbEntity
100
AcDbLine
  8
0
 62
256
370
-1
  6
ByLayer
 10
7.4999999999999165
 20
55.0000000000000711
 30
0.0
 11
5.3249999999999176
 21
55.0000000000000711
 31
0.0
  0
LINE
  5
206
100
AcDbEntity
100
AcDbLine
  8
0
 62
256
370
-1
  6
ByLayer
 10
5.1749999999999137
 20
55.0000000000000711
 30
0.0
 11
2.9999999999999147
 21
55.0000000000000711
 31
0.0
  0
LINE
  5
207
100
AcDbEntity
100
AcDbLine
  8
0
 62
256
370
-1
  6
ByLayer
 10
5.1749999999999137
 20
55.0000000000000711
 30
0.0
 11
5.1749999999999137
 21
51.4981238266579382
 31
0.0
  0
LINE
  5
208
100
AcDbEntity
100
AcDbLine
  8
0
 62
256
370
-1
  6
ByLayer
 10
5.3249999999999176
 20
55.0000000000000711
 30
0.0
 11
5.3249999999999176
 21
51.4981238266579382
 31
0.0
  0
LINE
  5
209
100
AcDbEntity
100
AcDbLine
  8
0
 62
256
370
-1
  6
ByLayer
 10
5.3249999999999176
 20
48.5018761733422039
 30
0.0
 11
5.324999999999914
 21
45.0000000000000711
 31
0.0
  0
LINE
  5
20A
100
AcDbEntity
100
AcDbLine
  8
0
 62
256
370
-1
  6
ByLayer
 10
5.1749999999999101
 20
48.501876173342211
 30
0.0
 11
5.1749999999999101
 21
45.0000000000000711
 31
0.0
  0
ARC
  5
20B
100
AcDbEntity
  8
0
 62
256
370
-1
  6
ByLayer
100
AcDbCircle
 10
5.2499999999999147
 20
50.0000000000000711
 30
0.0
 40
1.5
100
AcDbArc
 50
92.86598398259882
 51
267.1340160174010521
  0
ARC
  5
20C
100
AcDbEntity
  8
0
 62
256
370
-1
  6
ByLayer
100
AcDbCircle
 10
5.2499999999999147
 20
50.0000000000000711
 30
0.0
 40
1.5
100
AcDbArc
 50
272.8659839825988911
 51
87.1340160174011658
  0
LINE
  5
20D
100
AcDbEntity
100
AcDbLine
  8
0
 62
256
370
-1
  6
ByLayer
 10
7.4999999999999138
 20
45.0000000000000711
 30
0.0
 11
5.324999999999914
 21
45.0000000000000711
 31
0.0
  0
LINE
  5
20E
100
AcDbEntity
100
AcDbLine
  8
0
 62
256
370
-1
  6
ByLayer
 10
5.1749999999999101
 20
45.0000000000000711
 30
0.0
 11
2.9999999999999121
 21
45.0000000000000711
 31
0.0
  0
LINE
  5
20F
100
AcDbEntity
100
AcDbLine
  8
0
 62
256
370
-1
  6
ByLayer
 10
7.5000000000000018
 20
255.0
 30
0.0
 11
7.5000000000000027
 21
260.0
 31
0.0
  0
LINE
  5
210
100
AcDbEntity
100
AcDbLine
  8
0
 62
256
370
-1
  6
ByLayer
 10
7.4999999999999991
 20
245.0
 30
0.0
 11
7.4999999999999982
 21
240.0
 31
0.0
  0
LINE
  5
211
100
AcDbEntity
100
AcDbLine
  8
0
 62
256
370
-1
  6
ByLayer
 10
3.0
 20
255.0
 30
0.0
 11
3.0000000000000009
 21
260.0
 31
0.0
  0
LINE
  5
212
100
AcDbEntity
100
AcDbLine
  8
0
 62
256
370
-1
  6
ByLayer
 10
2.9999999999999973
 20
245.0
 30
0.0
 11
2.9999999999999938
 21
240.0
 31
0.0
  0
LINE
  5
213
100
AcDbEntity
100
AcDbLine
  8
0
 62
256
370
-1
  6
ByLayer
 10
7.5000000000000027
 20
260.0
 30
0.0
 11
3.0000000000000009
 21
260.0
 31
0.0
  0
LINE
  5
214
100
AcDbEntity
100
AcDbLine
  8
0
 62
256
370
-1
  6
ByLayer
 10
7.4999999999999982
 20
240.0
 30
0.0
 11
2.9999999999999938
 21
240.0
 31
0.0
  0
LINE
  5
215
100
AcDbEntity
100
AcDbLine
  8
0
 62
256
370
-1
  6
ByLayer
 10
7.5000000000000018
 20
255.0
 30
0.0
 11
5.3249999999999913
 21
255.0
 31
0.0
  0
LINE
  5
216
100
AcDbEntity
100
AcDbLine
  8
0
 62
256
370
-1
  6
ByLayer
 10
5.1750000000000096
 20
255.0
 30
0.0
 11
3.0
 21
255.0
 31
0.0
  0
LINE
  5
217
100
AcDbEntity
100
AcDbLine
  8
0
 62
256
370
-1
  6
ByLayer
 10
5.1750000000000096
 20
255.0
 30
0.0
 11
5.1750000000000131
 21
251.49812382665786
 31
0.0
  0
LINE
  5
218
100
AcDbEntity
100
AcDbLine
  8
0
 62
256
370
-1
  6
ByLayer
 10
5.3249999999999913
 20
255.0
 30
0.0
 11
5.3249999999999886
 21
251.49812382665786
 31
0.0
  0
LINE
  5
219
100
AcDbEntity
100
AcDbLine
  8
0
 62
256
370
-1
  6
ByLayer
 10
5.3249999999999886
 20
248.50187617334214
 30
0.0
 11
5.3249999999999886
 21
245.0
 31
0.0
  0
LINE
  5
21A
100
AcDbEntity
100
AcDbLine
  8
0
 62
256
370
-1
  6
ByLayer
 10
5.1750000000000114
 20
248.50187617334214
 30
0.0
 11
5.1750000000000069
 21
245.0
 31
0.0
  0
ARC
  5
21B
100
AcDbEntity
  8
0
 62
256
370
-1
  6
ByLayer
100
AcDbCircle
 10
5.25
 20
250.0
 30
0.0
 40
1.5
100
AcDbArc
 50
92.86598398259882
 51
267.1340160174010521
  0
ARC
  5
21C
100
AcDbEntity
  8
0
 62
256
370
-1
  6
ByLayer
100
AcDbCircle
 10
5.25
 20
250.0
 30
0.0
 40
1.5
100
AcDbArc
 50
272.8659839825988911
 51
87.1340160174011658
  0
LINE
  5
21D
100
AcDbEntity
100
AcDbLine
  8
0
 62
256
370
-1
  6
ByLayer
 10
7.4999999999999991
 20
245.0
 30
0.0
 11
5.3249999999999886
 21
245.0
 31
0.0
  0
LINE
  5
21E
100
AcDbEntity
100
AcDbLine
  8
0
 62
256
370
-1
  6
ByLayer
 10
5.1750000000000069
 20
245.0
 30
0.0
 11
2.9999999999999973
 21
245.0
 31
0.0
  0
ENDSEC
  0
SECTION
  2
OBJECTS
  0
DICTIONARY
  5
C
100
AcDbDictionary
280
0
281
1
  3
ACAD_GROUP
350
D
  3
ACAD_LAYOUT
350
1A
  3
ACAD_MLINESTYLE
350
17
  3
ACAD_PLOTSETTINGS
350
19
  3
ACAD_PLOTSTYLENAME
350
E
  3
AcDbVariableDictionary
350
21F
  0
DICTIONARY
  5
D
100
AcDbDictionary
280
0
281
1
  0
ACDBDICTIONARYWDFLT
  5
E
100
AcDbDictionary
281
1
  3
Normal
350
F
100
AcDbDictionaryWithDefault
340
F
  0
ACDBPLACEHOLDER
  5
F
  0
DICTIONARY
  5
17
100
AcDbDictionary
280
0
281
1
  3
Standard
350
18
  0
MLINESTYLE
  5
18
100
AcDbMlineStyle
  2
STANDARD
 70
0
  3

 62
256
 51
90.0
 52
90.0
 71
2
 49
0.5
 62
256
  6
BYLAYER
 49
-0.5
 62
256
  6
BYLAYER
  0
DICTIONARY
  5
19
100
AcDbDictionary
280
0
281
1
  0
DICTIONARY
  5
1A
100
AcDbDictionary
281
1
  3
Layout1
350
1E
  3
Layout2
350
26
  3
Model
350
22
  0
LAYOUT
  5
1E
100
AcDbPlotSettings
  1

  2
C:\Program Files\AutoCAD 2002\plotters\DWF ePlot (optimized for plotting).pc3
  4

  6

 40
0.0
 41
0.0
 42
0.0
 43
0.0
 44
0.0
 45
0.0
 46
0.0
 47
0.0
 48
0.0
 49
0.0
140
0.0
141
0.0
142
1.0
143
1.0
 70
688
 72
0
 73
0
 74
5
  7

 75
16
147
1.0
148
0.0
149
0.0
100
AcDbLayout
  1
Layout1
 70
1
 71
1
 10
0.0
 20
0.0
 11
420.0
 21
297.0
 12
0.0
 22
0.0
 32
0.0
 14
100000000000000000000.0
 24
100000000000000000000.0
 34
100000000000000000000.0
 15
-100000000000000000000.0
 25
-100000000000000000000.0
 35
-100000000000000000000.0
146
0.0
 13
0.0
 23
0.0
 33
0.0
 16
1.0
 26
0.0
 36
0.0
 17
0.0
 27
1.0
 37
0.0
 76
0
330
1B
  0
LAYOUT
  5
22
100
AcDbPlotSettings
  1

  2
C:\Program Files\AutoCAD 2002\plotters\DWF ePlot (optimized for plotting).pc3
  4

  6

 40
0.0
 41
0.0
 42
0.0
 43
0.0
 44
0.0
 45
0.0
 46
0.0
 47
0.0
 48
0.0
 49
0.0
140
0.0
141
0.0
142
1.0
143
1.0
 70
1712
 72
0
 73
0
 74
0
  7

 75
0
147
1.0
148
0.0
149
0.0
100
AcDbLayout
  1
Model
 70
1
 71
0
 10
0.0
 20
0.0
 11
12.0
 21
9.0
 12
0.0
 22
0.0
 32
0.0
 14
0.0
 24
0.0
 34
0.0
 15
0.0
 25
0.0
 35
0.0
146
0.0
 13
0.0
 23
0.0
 33
0.0
 16
1.0
 26
0.0
 36
0.0
 17
0.0
 27
1.0
 37
0.0
 76
0
330
1F
  0
LAYOUT
  5
26
100
AcDbPlotSettings
  1

  2
C:\Program Files\AutoCAD 2002\plotters\DWF ePlot (optimized for plotting).pc3
  4

  6

 40
0.0
 41
0.0
 42
0.0
 43
0.0
 44
0.0
 45
0.0
 46
0.0
 47
0.0
 48
0.0
 49
0.0
140
0.0
141
0.0
142
1.0
143
1.0
 70
688
 72
0
 73
0
 74
5
  7

 75
16
147
1.0
148
0.0
149
0.0
100
AcDbLayout
  1
Layout2
 70
1
 71
2
 10
0.0
 20
0.0
 11
12.0
 21
9.0
 12
0.0
 22
0.0
 32
0.0
 14
0.0
 24
0.0
 34
0.0
 15
0.0
 25
0.0
 35
0.0
146
0.0
 13
0.0
 23
0.0
 33
0.0
 16
1.0
 26
0.0
 36
0.0
 17
0.0
 27
1.0
 37
0.0
 76
0
330
23
  0
DICTIONARY
  5
21F
100
AcDbDictionary
281
1
  3
DIMASSOC
350
221
  3
HIDETEXT
350
220
  0
DICTIONARYVAR
  5
220
100
DictionaryVariables
280
0
  1
2
  0
DICTIONARYVAR
  5
221
100
DictionaryVariables
280
0
  1
1
  0
ENDSEC
  0
EOF
