999
dxflib 2.2.0.0
  0
SECTION
  2
HEADER
  9
$ACADVER
  1
AC1015
  9
$HANDSEED
  5
FFFF
  9
$DIMASZ
 40
2.5
  9
$PLIMMIN
 10
0.0
 20
0.0
  9
$DIMEXE
 40
1.25
  9
$DIMGAP
 40
0.625
  9
$PLIMMAX
 10
210.0
 20
297.0
  9
$INSUNITS
 70
4
  9
$DIMEXO
 40
0.625
  9
$DIMTXT
 40
2.5
  9
$CLAYER
  8
0
  0
ENDSEC
  0
SECTION
  2
TABLES
  0
TABLE
  2
VPORT
  5
8
100
AcDbSymbolTable
 70
1
  0
VPORT
  5
30
100
AcDbSymbolTableRecord
100
AcDbViewportTableRecord
  2
*Active
 70
0
 10
0.0
 20
0.0
 11
1.0
 21
1.0
 12
286.3055555555554861
 22
148.5
 13
0.0
 23
0.0
 14
10.0
 24
10.0
 15
10.0
 25
10.0
 16
0.0
 26
0.0
 36
1.0
 17
0.0
 27
0.0
 37
0.0
 40
297.0
 41
1.92798353909465
 42
50.0
 43
0.0
 44
0.0
 50
0.0
 51
0.0
 71
0
 72
100
 73
1
 74
3
 75
1
 76
1
 77
0
 78
0
281
0
 65
1
110
0.0
120
0.0
130
0.0
111
1.0
121
0.0
131
0.0
112
0.0
122
1.0
132
0.0
 79
0
146
0.0
  0
ENDTAB
  0
TABLE
  2
LTYPE
  5
5
100
AcDbSymbolTable
 70
21
  0
LTYPE
  5
14
100
AcDbSymbolTableRecord
100
AcDbLinetypeTableRecord
  2
ByBlock
 70
0
  3

 72
65
 73
0
 40
0.0
  0
LTYPE
  5
15
100
AcDbSymbolTableRecord
100
AcDbLinetypeTableRecord
  2
ByLayer
 70
0
  3

 72
65
 73
0
 40
0.0
  0
LTYPE
  5
16
100
AcDbSymbolTableRecord
100
AcDbLinetypeTableRecord
  2
CONTINUOUS
 70
0
  3
Solid line
 72
65
 73
0
 40
0.0
  0
LTYPE
  5
31
100
AcDbSymbolTableRecord
100
AcDbLinetypeTableRecord
  2
DOT
 70
0
  3
Dot . . . . . . . . . . . . . . . . . . . . . .
 72
65
 73
2
 40
6.3499999999999996
 49
0.0
 74
0
 49
-6.3499999999999996
 74
0
  0
LTYPE
  5
32
100
AcDbSymbolTableRecord
100
AcDbLinetypeTableRecord
  2
DOT2
 70
0
  3
Dot (.5x) .....................................
 72
65
 73
2
 40
3.1749999999999998
 49
0.0
 74
0
 49
-3.1749999999999998
 74
0
  0
LTYPE
  5
33
100
AcDbSymbolTableRecord
100
AcDbLinetypeTableRecord
  2
DOTX2
 70
0
  3
Dot (2x) .  .  .  .  .  .  .  .  .  .  .  .  .
 72
65
 73
2
 40
12.6999999999999993
 49
0.0
 74
0
 49
-12.6999999999999993
 74
0
  0
LTYPE
  5
34
100
AcDbSymbolTableRecord
100
AcDbLinetypeTableRecord
  2
DASHED
 70
0
  3
Dashed __ __ __ __ __ __ __ __ __ __ __ __ __ _
 72
65
 73
2
 40
19.0500000000000007
 49
12.6999999999999993
 74
0
 49
-6.3499999999999996
 74
0
  0
LTYPE
  5
35
100
AcDbSymbolTableRecord
100
AcDbLinetypeTableRecord
  2
DASHED2
 70
0
  3
Dashed (.5x) _ _ _ _ _ _ _ _ _ _ _ _ _ _ _ _ _
 72
65
 73
2
 40
9.5250000000000004
 49
6.3499999999999996
 74
0
 49
-3.1749999999999998
 74
0
  0
LTYPE
  5
36
100
AcDbSymbolTableRecord
100
AcDbLinetypeTableRecord
  2
DASHEDX2
 70
0
  3
Dashed (2x) ____  ____  ____  ____  ____  ___
 72
65
 73
2
 40
38.1000000000000014
 49
25.3999999999999986
 74
0
 49
-12.6999999999999993
 74
0
  0
LTYPE
  5
37
100
AcDbSymbolTableRecord
100
AcDbLinetypeTableRecord
  2
DASHDOT
 70
0
  3
Dash dot __ . __ . __ . __ . __ . __ . __ . __
 72
65
 73
4
 40
25.3999999999999986
 49
12.6999999999999993
 74
0
 49
-6.3499999999999996
 74
0
 49
0.0
 74
0
 49
-6.3499999999999996
 74
0
  0
LTYPE
  5
38
100
AcDbSymbolTableRecord
100
AcDbLinetypeTableRecord
  2
DASHDOT2
 70
0
  3
Dash dot (.5x) _._._._._._._._._._._._._._._.
 72
65
 73
4
 40
12.6999999999999993
 49
6.3499999999999996
 74
0
 49
-3.1749999999999998
 74
0
 49
0.0
 74
0
 49
-3.1749999999999998
 74
0
  0
LTYPE
  5
39
100
AcDbSymbolTableRecord
100
AcDbLinetypeTableRecord
  2
DASHDOTX2
 70
0
  3
Dash dot (2x) ____  .  ____  .  ____  .  ___
 72
65
 73
4
 40
50.7999999999999972
 49
25.3999999999999986
 74
0
 49
-12.6999999999999993
 74
0
 49
0.0
 74
0
 49
-12.6999999999999993
 74
0
  0
LTYPE
  5
3A
100
AcDbSymbolTableRecord
100
AcDbLinetypeTableRecord
  2
DIVIDE
 70
0
  3
Divide ____ . . ____ . . ____ . . ____ . . ____
 72
65
 73
6
 40
31.75
 49
12.6999999999999993
 74
0
 49
-6.3499999999999996
 74
0
 49
0.0
 74
0
 49
-6.3499999999999996
 74
0
 49
0.0
 74
0
 49
-6.3499999999999996
 74
0
  0
LTYPE
  5
3B
100
AcDbSymbolTableRecord
100
AcDbLinetypeTableRecord
  2
DIVIDE2
 70
0
  3
Divide (.5x) __..__..__..__..__..__..__..__.._
 72
65
 73
6
 40
15.875
 49
6.3499999999999996
 74
0
 49
-3.1749999999999998
 74
0
 49
0.0
 74
0
 49
-3.1749999999999998
 74
0
 49
0.0
 74
0
 49
-3.1749999999999998
 74
0
  0
LTYPE
  5
3C
100
AcDbSymbolTableRecord
100
AcDbLinetypeTableRecord
  2
DIVIDEX2
 70
0
  3
Divide (2x) ________  .  .  ________  .  .  _
 72
65
 73
6
 40
63.5
 49
25.3999999999999986
 74
0
 49
-12.6999999999999993
 74
0
 49
0.0
 74
0
 49
-12.6999999999999993
 74
0
 49
0.0
 74
0
 49
-12.6999999999999993
 74
0
  0
LTYPE
  5
3D
100
AcDbSymbolTableRecord
100
AcDbLinetypeTableRecord
  2
CENTER
 70
0
  3
Center ____ _ ____ _ ____ _ ____ _ ____ _ ____
 72
65
 73
4
 40
50.7999999999999972
 49
31.75
 74
0
 49
-6.3499999999999996
 74
0
 49
6.3499999999999996
 74
0
 49
-6.3499999999999996
 74
0
  0
LTYPE
  5
3E
100
AcDbSymbolTableRecord
100
AcDbLinetypeTableRecord
  2
CENTER2
 70
0
  3
Center (.5x) ___ _ ___ _ ___ _ ___ _ ___ _ ___
 72
65
 73
4
 40
28.5749999999999993
 49
19.0500000000000007
 74
0
 49
-3.1749999999999998
 74
0
 49
3.1749999999999998
 74
0
 49
-3.1749999999999998
 74
0
  0
LTYPE
  5
3F
100
AcDbSymbolTableRecord
100
AcDbLinetypeTableRecord
  2
CENTERX2
 70
0
  3
Center (2x) ________  __  ________  __  _____
 72
65
 73
4
 40
101.5999999999999943
 49
63.5
 74
0
 49
-12.6999999999999993
 74
0
 49
12.6999999999999993
 74
0
 49
-12.6999999999999993
 74
0
  0
LTYPE
  5
40
100
AcDbSymbolTableRecord
100
AcDbLinetypeTableRecord
  2
BORDER
 70
0
  3
Border __ __ . __ __ . __ __ . __ __ . __ __ .
 72
65
 73
6
 40
44.4500000000000028
 49
12.6999999999999993
 74
0
 49
-6.3499999999999996
 74
0
 49
12.6999999999999993
 74
0
 49
-6.3499999999999996
 74
0
 49
0.0
 74
0
 49
-6.3499999999999996
 74
0
  0
LTYPE
  5
41
100
AcDbSymbolTableRecord
100
AcDbLinetypeTableRecord
  2
BORDER2
 70
0
  3
Border (.5x) __.__.__.__.__.__.__.__.__.__.__.
 72
65
 73
6
 40
22.2250000000000014
 49
6.3499999999999996
 74
0
 49
-3.1749999999999998
 74
0
 49
6.3499999999999996
 74
0
 49
-3.1749999999999998
 74
0
 49
0.0
 74
0
 49
-3.1749999999999998
 74
0
  0
LTYPE
  5
42
100
AcDbSymbolTableRecord
100
AcDbLinetypeTableRecord
  2
BORDERX2
 70
0
  3
Border (2x) ____  ____  .  ____  ____  .  ___
 72
65
 73
6
 40
88.9000000000000057
 49
25.3999999999999986
 74
0
 49
-12.6999999999999993
 74
0
 49
25.3999999999999986
 74
0
 49
-12.6999999999999993
 74
0
 49
0.0
 74
0
 49
-12.6999999999999993
 74
0
  0
ENDTAB
  0
TABLE
  2
LAYER
  5
2
100
AcDbSymbolTable
 70
1
  0
LAYER
  5
10
100
AcDbSymbolTableRecord
100
AcDbLayerTableRecord
  2
0
 70
0
 62
7
420
0
  6
CONTINUOUS
370
0
390
F
  0
ENDTAB
  0
TABLE
  2
STYLE
  5
3
100
AcDbSymbolTable
 70
1
  0
STYLE
  5
11
100
AcDbSymbolTableRecord
100
AcDbTextStyleTableRecord
  2
Standard
 70
0
 40
0.0
 41
0.75
 50
0.0
 71
0
 42
2.5
  3
txt
  4

  0
ENDTAB
  0
TABLE
  2
VIEW
  5
6
100
AcDbSymbolTable
 70
0
  0
ENDTAB
  0
TABLE
  2
UCS
  5
7
100
AcDbSymbolTable
 70
0
  0
ENDTAB
  0
TABLE
  2
APPID
  5
9
100
AcDbSymbolTable
 70
1
  0
APPID
  5
12
100
AcDbSymbolTableRecord
100
AcDbRegAppTableRecord
  2
ACAD
 70
0
  0
ENDTAB
  0
TABLE
  2
DIMSTYLE
  5
A
100
AcDbSymbolTable
 70
1
100
AcDbDimStyleTable
 71
0
  0
DIMSTYLE
105
27
100
AcDbSymbolTableRecord
100
AcDbDimStyleTableRecord
  2
Standard
 41
2.5
 42
0.625
 43
3.75
 44
1.25
 70
0
 73
0
 74
0
 77
1
 78
8
140
2.5
141
2.5
143
0.03937007874016
147
0.625
171
3
172
1
271
2
272
2
274
3
278
44
283
0
284
8
340
11
  0
ENDTAB
  0
TABLE
  2
BLOCK_RECORD
  5
1
100
AcDbSymbolTable
 70
1
  0
BLOCK_RECORD
  5
1F
100
AcDbSymbolTableRecord
100
AcDbBlockTableRecord
  2
*Model_Space
340
22
  0
BLOCK_RECORD
  5
1B
100
AcDbSymbolTableRecord
100
AcDbBlockTableRecord
  2
*Paper_Space
340
1E
  0
BLOCK_RECORD
  5
23
100
AcDbSymbolTableRecord
100
AcDbBlockTableRecord
  2
*Paper_Space0
340
26
  0
ENDTAB
  0
ENDSEC
  0
SECTION
  2
BLOCKS
  0
BLOCK
  5
20
100
AcDbEntity
  8
0
100
AcDbBlockBegin
  2
*Model_Space
 70
0
 10
0.0
 20
0.0
 30
0.0
  3
*Model_Space
  1

  0
ENDBLK
  5
21
100
AcDbEntity
  8
0
100
AcDbBlockEnd
  0
BLOCK
  5
1C
100
AcDbEntity
 67
1
  8
0
100
AcDbBlockBegin
  2
*Paper_Space
 70
0
 10
0.0
 20
0.0
 30
0.0
  3
*Paper_Space
  1

  0
ENDBLK
  5
1D
100
AcDbEntity
 67
1
  8
0
100
AcDbBlockEnd
  0
BLOCK
  5
24
100
AcDbEntity
  8
0
100
AcDbBlockBegin
  2
*Paper_Space0
 70
0
 10
0.0
 20
0.0
 30
0.0
  3
*Paper_Space0
  1

  0
ENDBLK
  5
25
100
AcDbEntity
  8
0
100
AcDbBlockEnd
  0
ENDSEC
  0
SECTION
  2
ENTITIES
  0
LINE
  5
43
100
AcDbEntity
100
AcDbLine
  8
0
 62
256
370
-1
  6
ByLayer
 10
-29.5527864045000435
 20
70.8944271909999202
 30
0.0
 11
-30.4472135954999565
 21
69.1055728090000798
 31
0.0
  0
LINE
  5
44
100
AcDbEntity
100
AcDbLine
  8
0
 62
256
370
-1
  6
ByLayer
 10
-30.0
 20
51.0
 30
0.0
 11
-30.0
 21
49.0
 31
0.0
  0
LINE
  5
45
100
AcDbEntity
100
AcDbLine
  8
0
 62
256
370
-1
  6
ByLayer
 10
-30.4472135954999601
 20
30.8944271909999166
 30
0.0
 11
-29.5527864045000435
 21
29.1055728090000834
 31
0.0
  0
LINE
  5
46
100
AcDbEntity
100
AcDbLine
  8
0
 62
256
370
-1
  6
ByLayer
 10
129.5527864045000399
 20
70.8944271909998918
 30
0.0
 11
130.4472135954999601
 21
69.1055728089999945
 31
0.0
  0
LINE
  5
47
100
AcDbEntity
100
AcDbLine
  8
0
 62
256
370
-1
  6
ByLayer
 10
130.0
 20
51.0000000000000213
 30
0.0
 11
130.0
 21
49.0000000000000142
 31
0.0
  0
LINE
  5
48
100
AcDbEntity
100
AcDbLine
  8
0
 62
256
370
-1
  6
ByLayer
 10
130.4472135954999317
 20
30.8944271909999166
 30
0.0
 11
129.5527864045000115
 21
29.1055728090000478
 31
0.0
  0
ARC
  5
49
100
AcDbEntity
  8
0
 62
256
370
-1
  6
ByLayer
100
AcDbCircle
 10
30.0
 20
60.0
 30
0.0
 40
10.0
100
AcDbArc
 50
0.0
 51
180.0
  0
ARC
  5
4A
100
AcDbEntity
  8
0
 62
256
370
-1
  6
ByLayer
100
AcDbCircle
 10
30.0
 20
58.9375
 30
0.0
 40
9.0625
100
AcDbArc
 50
6.7329213268596089
 51
173.2670786731403894
  0
LINE
  5
4B
100
AcDbEntity
100
AcDbLine
  8
0
 62
256
370
-1
  6
ByLayer
 10
20.0
 20
60.0
 30
0.0
 11
21.0
 21
60.0
 31
0.0
  0
LINE
  5
4C
100
AcDbEntity
100
AcDbLine
  8
0
 62
256
370
-1
  6
ByLayer
 10
39.0
 20
60.0
 30
0.0
 11
40.0
 21
60.0
 31
0.0
  0
ARC
  5
4D
100
AcDbEntity
  8
0
 62
256
370
-1
  6
ByLayer
100
AcDbCircle
 10
70.0
 20
59.9999999999999929
 30
0.0
 40
10.0
100
AcDbArc
 50
360.0
 51
180.0
  0
ARC
  5
4E
100
AcDbEntity
  8
0
 62
256
370
-1
  6
ByLayer
100
AcDbCircle
 10
70.0
 20
58.9374999999999929
 30
0.0
 40
9.0625
100
AcDbArc
 50
6.7329213268596089
 51
173.2670786731403894
  0
LINE
  5
4F
100
AcDbEntity
100
AcDbLine
  8
0
 62
256
370
-1
  6
ByLayer
 10
80.0
 20
59.9999999999999929
 30
0.0
 11
79.0
 21
59.9999999999999929
 31
0.0
  0
LINE
  5
50
100
AcDbEntity
100
AcDbLine
  8
0
 62
256
370
-1
  6
ByLayer
 10
61.0
 20
60.0
 30
0.0
 11
60.0
 21
60.0
 31
0.0
  0
ARC
  5
51
100
AcDbEntity
  8
0
 62
256
370
-1
  6
ByLayer
100
AcDbCircle
 10
42.4142135623730923
 20
49.0
 30
0.0
 40
1.0
100
AcDbArc
 50
90.0
 51
225.0
  0
LINE
  5
52
100
AcDbEntity
100
AcDbLine
  8
0
 62
256
370
-1
  6
ByLayer
 10
57.5857864376269077
 20
50.0
 30
0.0
 11
42.4142135623730923
 21
50.0
 31
0.0
  0
ARC
  5
53
100
AcDbEntity
  8
0
 62
256
370
-1
  6
ByLayer
100
AcDbCircle
 10
57.5857864376269077
 20
49.0
 30
0.0
 40
1.0
100
AcDbArc
 50
315.0
 51
90.0
  0
LINE
  5
54
100
AcDbEntity
100
AcDbLine
  8
0
 62
256
370
-1
  6
ByLayer
 10
51.2928932188134539
 20
41.2928932188134539
 30
0.0
 11
58.2928932188134539
 21
48.2928932188134539
 31
0.0
  0
ARC
  5
55
100
AcDbEntity
  8
0
 62
256
370
-1
  6
ByLayer
100
AcDbCircle
 10
52.0
 20
40.5857864376269077
 30
0.0
 40
1.0
100
AcDbArc
 50
135.0
 51
180.0
  0
LINE
  5
56
100
AcDbEntity
100
AcDbLine
  8
0
 62
256
370
-1
  6
ByLayer
 10
41.7071067811865461
 20
48.2928932188134539
 30
0.0
 11
48.7071067811865461
 21
41.2928932188134539
 31
0.0
  0
ARC
  5
57
100
AcDbEntity
  8
0
 62
256
370
-1
  6
ByLayer
100
AcDbCircle
 10
48.0
 20
40.5857864376269077
 30
0.0
 40
1.0
100
AcDbArc
 50
0.0
 51
45.0
  0
ARC
  5
58
100
AcDbEntity
  8
0
 62
256
370
-1
  6
ByLayer
100
AcDbCircle
 10
20.4672236055124692
 20
29.1155778140063504
 30
0.0
 40
1.0
100
AcDbArc
 50
29.1282512180520605
 51
116.565051177077919
  0
LINE
  5
59
100
AcDbEntity
100
AcDbLine
  8
0
 62
256
370
-1
  6
ByLayer
 10
20.0200100100125127
 20
30.010005005006267
 30
0.0
 11
20.0200100100125127
 21
30.010005005006267
 31
0.0
  0
ARC
  5
5A
100
AcDbEntity
  8
0
 62
256
370
-1
  6
ByLayer
100
AcDbCircle
 10
20.4672236055124692
 20
29.1155778140063504
 30
0.0
 40
1.0
100
AcDbArc
 50
116.565051177077919
 51
209.1282512180515312
  0
ARC
  5
5B
100
AcDbEntity
  8
0
 62
256
370
-1
  6
ByLayer
100
AcDbCircle
 10
40.0000000000000071
 20
40.0
 30
0.0
 40
21.3606797749979016
100
AcDbArc
 50
209.1282512180518154
 51
293.1359507717853603
  0
LINE
  5
5C
100
AcDbEntity
100
AcDbLine
  8
0
 62
256
370
-1
  6
ByLayer
 10
49.0
 20
40.5857864376269077
 30
0.0
 11
49.0
 21
21.2768250315282117
 31
0.0
  0
ARC
  5
5D
100
AcDbEntity
  8
0
 62
256
370
-1
  6
ByLayer
100
AcDbCircle
 10
48.0
 20
21.2768250315282117
 30
0.0
 40
1.0
100
AcDbArc
 50
293.1359507717846213
 51
0.0
  0
ARC
  5
5E
100
AcDbEntity
  8
0
 62
256
370
-1
  6
ByLayer
100
AcDbCircle
 10
40.0000000000000071
 20
40.0
 30
0.0
 40
23.3606797749979016
100
AcDbArc
 50
209.1282512180518154
 51
294.2360955859122669
  0
ARC
  5
5F
100
AcDbEntity
  8
0
 62
256
370
-1
  6
ByLayer
100
AcDbCircle
 10
50.0000000000000071
 20
17.786429393274215
 30
0.0
 40
1.0
100
AcDbArc
 50
65.7639044140884437
 51
114.2360955859123806
  0
LINE
  5
60
100
AcDbEntity
100
AcDbLine
  8
0
 62
256
370
-1
  6
ByLayer
 10
51.0
 20
40.5857864376269077
 30
0.0
 11
51.0
 21
21.2768250315282117
 31
0.0
  0
ARC
  5
61
100
AcDbEntity
  8
0
 62
256
370
-1
  6
ByLayer
100
AcDbCircle
 10
52.0
 20
21.2768250315282117
 30
0.0
 40
1.0
100
AcDbArc
 50
180.0
 51
246.8640492282142702
  0
ARC
  5
62
100
AcDbEntity
  8
0
 62
256
370
-1
  6
ByLayer
100
AcDbCircle
 10
60.0
 20
40.0
 30
0.0
 40
21.3606797749978981
100
AcDbArc
 50
246.8640492282145829
 51
330.8717487819481562
  0
ARC
  5
63
100
AcDbEntity
  8
0
 62
256
370
-1
  6
ByLayer
100
AcDbCircle
 10
79.5327763944875272
 20
29.1155778140063362
 30
0.0
 40
1.0
100
AcDbArc
 50
63.4349488229219176
 51
150.8717487819482983
  0
LINE
  5
64
100
AcDbEntity
100
AcDbLine
  8
0
 62
256
370
-1
  6
ByLayer
 10
79.9799899899874873
 20
30.0100050050062528
 30
0.0
 11
79.9799899899874873
 21
30.0100050050062528
 31
0.0
  0
ARC
  5
65
100
AcDbEntity
  8
0
 62
256
370
-1
  6
ByLayer
100
AcDbCircle
 10
60.0
 20
40.0
 30
0.0
 40
23.3606797749978981
100
AcDbArc
 50
245.7639044140877616
 51
330.8717487819481562
  0
ARC
  5
66
100
AcDbEntity
  8
0
 62
256
370
-1
  6
ByLayer
100
AcDbCircle
 10
79.5327763944875272
 20
29.1155778140063397
 30
0.0
 40
1.0
100
AcDbArc
 50
330.8717487819477583
 51
63.4349488229218323
  0
ARC
  5
67
100
AcDbEntity
  8
0
 62
256
370
-1
  6
ByLayer
100
AcDbCircle
 10
10.9999999999999964
 20
107.5857864376269077
 30
0.0
 40
1.0
100
AcDbArc
 50
44.9999999999995666
 51
180.0
  0
ARC
  5
68
100
AcDbEntity
  8
0
 62
256
370
-1
  6
ByLayer
100
AcDbCircle
 10
89.0
 20
107.5857864376268935
 30
0.0
 40
1.0
100
AcDbArc
 50
0.0
 51
135.0
  0
ARC
  5
69
100
AcDbEntity
  8
0
 62
256
370
-1
  6
ByLayer
100
AcDbCircle
 10
67.0360509520725287
 20
49.8518759199916701
 30
0.0
 40
32.9763080392579724
100
AcDbArc
 50
13.7748474450563041
 51
17.0078809913293973
  0
ARC
  5
6A
100
AcDbEntity
  8
0
 62
256
370
-1
  6
ByLayer
100
AcDbCircle
 10
66.5155547387840471
 20
49.708591776079686
 30
0.0
 40
33.5159546432408177
100
AcDbArc
 50
16.9818464125935513
 51
19.7613957637303166
  0
ARC
  5
6B
100
AcDbEntity
  8
0
 62
256
370
-1
  6
ByLayer
100
AcDbCircle
 10
65.9931174125368614
 20
49.5350873626432389
 30
0.0
 40
34.0662901379051846
100
AcDbArc
 50
19.7389398770050413
 51
22.2382678329759607
  0
ARC
  5
6C
100
AcDbEntity
  8
0
 62
256
370
-1
  6
ByLayer
100
AcDbCircle
 10
65.464503047124154
 20
49.3322919444533881
 30
0.0
 40
34.6323370903172076
100
AcDbArc
 50
22.2178395859109656
 51
24.5257480614558396
  0
ARC
  5
6D
100
AcDbEntity
  8
0
 62
256
370
-1
  6
ByLayer
100
AcDbCircle
 10
64.9284372306263862
 20
49.1006288030161642
 30
0.0
 40
35.2162020989072957
100
AcDbArc
 50
24.5066136199138889
 51
26.6760741830036316
  0
ARC
  5
6E
100
AcDbEntity
  8
0
 62
256
370
-1
  6
ByLayer
100
AcDbCircle
 10
64.3843733905022049
 20
48.8400581444646775
 30
0.0
 40
35.8193391563331645
100
AcDbArc
 50
26.6578070329580683
 51
28.7236598213722765
  0
ARC
  5
6F
100
AcDbEntity
  8
0
 62
256
370
-1
  6
ByLayer
100
AcDbCircle
 10
63.8320345823193662
 20
48.5501877314074122
 30
0.0
 40
36.443020751116272
100
AcDbArc
 50
28.7059805734262952
 51
30.6928135782147358
  0
ARC
  5
70
100
AcDbEntity
  8
0
 62
256
370
-1
  6
ByLayer
100
AcDbCircle
 10
63.2712763970863818
 20
48.2303447302020203
 30
0.0
 40
37.088486627327292
100
AcDbArc
 50
30.6755230628771685
 51
32.6016740937282208
  0
ARC
  5
71
100
AcDbEntity
  8
0
 62
256
370
-1
  6
ByLayer
100
AcDbCircle
 10
62.7020384007170932
 20
47.8796183412136926
 30
0.0
 40
37.7570050181353096
100
AcDbArc
 50
32.5846204970614082
 51
34.4644135970973977
  0
ARC
  5
72
100
AcDbEntity
  8
0
 62
256
370
-1
  6
ByLayer
100
AcDbCircle
 10
62.1243269574054864
 20
47.4968838745714521
 30
0.0
 40
38.4499042114069525
100
AcDbArc
 50
34.4474744023584663
 51
36.2925669258147749
  0
ARC
  5
73
100
AcDbEntity
  8
0
 62
256
370
-1
  6
ByLayer
100
AcDbCircle
 10
61.538211641962107
 20
47.0808147921857767
 30
0.0
 40
39.1685927179561588
100
AcDbArc
 50
36.2756380783599113
 51
38.0958855377743788
  0
ARC
  5
74
100
AcDbEntity
  8
0
 62
256
370
-1
  6
ByLayer
100
AcDbCircle
 10
60.9438288680188407
 20
46.6298864731339364
 30
0.0
 40
39.9145749013508109
100
AcDbArc
 50
38.0788744182331129
 51
39.8829198283859299
  0
ARC
  5
75
100
AcDbEntity
  8
0
 62
256
370
-1
  6
ByLayer
100
AcDbCircle
 10
60.3413903416093831
 20
46.1423738541861255
 30
0.0
 40
40.6894650351897269
100
AcDbArc
 50
39.8657403297899862
 51
41.6614413142853337
  0
ARC
  5
76
100
AcDbEntity
  8
0
 62
256
370
-1
  6
ByLayer
100
AcDbCircle
 10
50.5631822869051959
 20
30.8430527666205236
 30
0.0
 40
59.105183968070456
100
AcDbArc
 50
74.6485323968455248
 51
79.2378919749421158
  0
ARC
  5
77
100
AcDbEntity
  8
0
 62
256
370
-1
  6
ByLayer
100
AcDbCircle
 10
49.4368177130950031
 20
30.84305276662068
 30
0.0
 40
59.1051839680703495
100
AcDbArc
 50
100.7621080250581116
 51
105.3514676031547168
  0
ARC
  5
78
100
AcDbEntity
  8
0
 62
256
370
-1
  6
ByLayer
100
AcDbCircle
 10
39.6586096583903611
 20
46.1423738541857986
 30
0.0
 40
40.6894650351897553
100
AcDbArc
 50
138.3385586857140765
 51
140.1342596702094454
  0
ARC
  5
79
100
AcDbEntity
  8
0
 62
256
370
-1
  6
ByLayer
100
AcDbCircle
 10
39.0561711319814719
 20
46.6298864731340359
 30
0.0
 40
39.9145749013509956
100
AcDbArc
 50
140.1170801716144751
 51
141.9211255817672566
  0
ARC
  5
7A
100
AcDbEntity
  8
0
 62
256
370
-1
  6
ByLayer
100
AcDbCircle
 10
38.4617883580381061
 20
47.0808147921856772
 30
0.0
 40
39.1685927179563791
100
AcDbArc
 50
141.9041144622256923
 51
143.7243619216401669
  0
ARC
  5
7B
100
AcDbEntity
  8
0
 62
256
370
-1
  6
ByLayer
100
AcDbCircle
 10
37.8756730425940873
 20
47.4968838745715516
 30
0.0
 40
38.4499042114065546
100
AcDbArc
 50
143.7074330741849622
 51
145.5525255976413064
  0
ARC
  5
7C
100
AcDbEntity
  8
0
 62
256
370
-1
  6
ByLayer
100
AcDbCircle
 10
37.2979615992835463
 20
47.8796183412134013
 30
0.0
 40
37.757005018136006
100
AcDbArc
 50
145.5355864029027941
 51
147.4153795029387481
  0
ARC
  5
7D
100
AcDbEntity
  8
0
 62
256
370
-1
  6
ByLayer
100
AcDbCircle
 10
36.7287236029130923
 20
48.2303447302023116
 30
0.0
 40
37.0884866273266809
100
AcDbArc
 50
147.3983259062717366
 51
149.324476937122796
  0
ARC
  5
7E
100
AcDbEntity
  8
0
 62
256
370
-1
  6
ByLayer
100
AcDbCircle
 10
36.1679654176807333
 20
48.5501877314072914
 30
0.0
 40
36.443020751116407
100
AcDbArc
 50
149.3071864217851896
 51
151.2940194265736409
  0
ARC
  5
7F
100
AcDbEntity
  8
0
 62
256
370
-1
  6
ByLayer
100
AcDbCircle
 10
35.6156266094977383
 20
48.840058144464507
 30
0.0
 40
35.8193391563332
100
AcDbArc
 50
151.2763401786274073
 51
153.3421929670416262
  0
ARC
  5
80
100
AcDbEntity
  8
0
 62
256
370
-1
  6
ByLayer
100
AcDbCircle
 10
35.0715627693738341
 20
49.1006288030164058
 30
0.0
 40
35.2162020989073881
100
AcDbArc
 50
153.3239258169969048
 51
155.493386380086605
  0
ARC
  5
81
100
AcDbEntity
  8
0
 62
256
370
-1
  6
ByLayer
100
AcDbCircle
 10
34.5354969528755049
 20
49.3322919444534236
 30
0.0
 40
34.6323370903168808
100
AcDbArc
 50
155.4742519385439152
 51
157.7821604140887928
  0
ARC
  5
82
100
AcDbEntity
  8
0
 62
256
370
-1
  6
ByLayer
100
AcDbCircle
 10
34.0068825874631386
 20
49.5350873626431323
 30
0.0
 40
34.0662901379052201
100
AcDbArc
 50
157.7617321670238937
 51
160.2610601229947918
  0
ARC
  5
83
100
AcDbEntity
  8
0
 62
256
370
-1
  6
ByLayer
100
AcDbCircle
 10
33.484445261216166
 20
49.7085917760796931
 30
0.0
 40
33.5159546432410664
100
AcDbArc
 50
160.2386042362695662
 51
163.0181535874063457
  0
ARC
  5
84
100
AcDbEntity
  8
0
 62
256
370
-1
  6
ByLayer
100
AcDbCircle
 10
32.9639490479269881
 20
49.8518759199921035
 30
0.0
 40
32.9763080392574892
100
AcDbArc
 50
162.9921190086705565
 51
166.2251525549436622
  0
ARC
  5
85
100
AcDbEntity
  8
0
 62
256
370
-1
  6
ByLayer
100
AcDbCircle
 10
32.9639490479275281
 20
50.1481240800078965
 30
0.0
 40
32.9763080392579937
100
AcDbArc
 50
193.7748474450560821
 51
197.0078809913291593
  0
ARC
  5
86
100
AcDbEntity
  8
0
 62
256
370
-1
  6
ByLayer
100
AcDbCircle
 10
33.4844452612158037
 20
50.291408223920115
 30
0.0
 40
33.5159546432406685
100
AcDbArc
 50
196.9818464125935975
 51
199.7613957637303201
  0
ARC
  5
87
100
AcDbEntity
  8
0
 62
256
370
-1
  6
ByLayer
100
AcDbCircle
 10
34.0068825874631386
 20
50.4649126373568748
 30
0.0
 40
34.0662901379052201
100
AcDbArc
 50
199.7389398770052082
 51
202.2382678329761063
  0
ARC
  5
88
100
AcDbEntity
  8
0
 62
256
370
-1
  6
ByLayer
100
AcDbCircle
 10
34.5354969528759455
 20
50.6677080555465622
 30
0.0
 40
34.6323370903172858
100
AcDbArc
 50
202.2178395859108662
 51
204.5257480614557437
  0
ARC
  5
89
100
AcDbEntity
  8
0
 62
256
370
-1
  6
ByLayer
100
AcDbCircle
 10
35.0715627693736991
 20
50.8993711969837435
 30
0.0
 40
35.2162020989073383
100
AcDbArc
 50
204.5066136199136793
 51
206.6760741830034362
  0
ARC
  5
8A
100
AcDbEntity
  8
0
 62
256
370
-1
  6
ByLayer
100
AcDbCircle
 10
35.6156266094976033
 20
51.1599418555352656
 30
0.0
 40
35.8193391563329726
100
AcDbArc
 50
206.6578070329581465
 51
208.7236598213723653
  0
ARC
  5
8B
100
AcDbEntity
  8
0
 62
256
370
-1
  6
ByLayer
100
AcDbCircle
 10
36.1679654176807333
 20
51.4498122685924884
 30
0.0
 40
36.4430207511163076
100
AcDbArc
 50
208.7059805734260181
 51
210.6928135782144693
  0
ARC
  5
8C
100
AcDbEntity
  8
0
 62
256
370
-1
  6
ByLayer
100
AcDbCircle
 10
36.7287236029135045
 20
51.7696552697978873
 30
0.0
 40
37.0884866273271498
100
AcDbArc
 50
210.6755230628770903
 51
212.6016740937281497
  0
ARC
  5
8D
100
AcDbEntity
  8
0
 62
256
370
-1
  6
ByLayer
100
AcDbCircle
 10
37.2979615992828997
 20
52.1203816587865916
 30
0.0
 40
37.7570050181354659
100
AcDbArc
 50
212.584620497061735
 51
214.4644135970977175
  0
ARC
  5
8E
100
AcDbEntity
  8
0
 62
256
370
-1
  6
ByLayer
100
AcDbCircle
 10
37.8756730425945278
 20
52.5031161254284555
 30
0.0
 40
38.4499042114069098
100
AcDbArc
 50
214.4474744023583241
 51
216.2925669258146684
  0
ARC
  5
8F
100
AcDbEntity
  8
0
 62
256
370
-1
  6
ByLayer
100
AcDbCircle
 10
38.4617883580380209
 20
52.9191852078142873
 30
0.0
 40
39.1685927179562938
100
AcDbArc
 50
216.2756380783598615
 51
218.0958855377743646
  0
ARC
  5
90
100
AcDbEntity
  8
0
 62
256
370
-1
  6
ByLayer
100
AcDbCircle
 10
39.0561711319814862
 20
53.3701135268661915
 30
0.0
 40
39.9145749013511377
100
AcDbArc
 50
218.0788744182329424
 51
219.8829198283857522
  0
ARC
  5
91
100
AcDbEntity
  8
0
 62
256
370
-1
  6
ByLayer
100
AcDbCircle
 10
39.6586096583906098
 20
53.8576261458139669
 30
0.0
 40
40.6894650351897837
100
AcDbArc
 50
219.8657403297900714
 51
221.6614413142854119
  0
ARC
  5
92
100
AcDbEntity
  8
0
 62
256
370
-1
  6
ByLayer
100
AcDbCircle
 10
40.2688044182350637
 20
54.3836558442597635
 30
0.0
 40
41.4950012628462304
100
AcDbArc
 50
221.6440100919601548
 51
223.4387705780025328
  0
ARC
  5
93
100
AcDbEntity
  8
0
 62
256
370
-1
  6
ByLayer
100
AcDbCircle
 10
40.8863514437910638
 20
54.9503546792348345
 30
0.0
 40
42.3330603261082246
100
AcDbArc
 50
223.4210039122735623
 51
225.2220533784869474
  0
ARC
  5
94
100
AcDbEntity
  8
0
 62
256
370
-1
  6
ByLayer
100
AcDbCircle
 10
41.5107210032082889
 20
55.5601095977039208
 30
0.0
 40
43.2056736863582032
100
AcDbArc
 50
225.2038642701868412
 51
227.0185155664938463
  0
ARC
  5
95
100
AcDbEntity
  8
0
 62
256
370
-1
  6
ByLayer
100
AcDbCircle
 10
42.1412305943784489
 20
56.2155621668923686
 30
0.0
 40
44.1150456004900775
100
AcDbArc
 50
226.9998107616068523
 51
228.8357227686924773
  0
ARC
  5
96
100
AcDbEntity
  8
0
 62
256
370
-1
  6
ByLayer
100
AcDbCircle
 10
42.7770107372357486
 20
56.9196327653739047
 30
0.0
 40
45.063573766291988
100
AcDbArc
 50
228.816399416774658
 51
230.681871493858722
  0
ARC
  5
97
100
AcDbEntity
  8
0
 62
256
370
-1
  6
ByLayer
100
AcDbCircle
 10
43.416961402956062
 20
57.6755498924388021
 30
0.0
 40
46.0538733185506786
100
AcDbArc
 50
230.6618130925317587
 51
232.566144555589517
  0
ARC
  5
98
100
AcDbEntity
  8
0
 62
256
370
-1
  6
ByLayer
100
AcDbCircle
 10
44.0596959958040912
 20
58.4868856878790382
 30
0.0
 40
47.0888052853754218
100
AcDbArc
 50
232.5452157062894116
 51
234.4991776831996901
  0
ARC
  5
99
100
AcDbEntity
  8
0
 62
256
370
-1
  6
ByLayer
100
AcDbCircle
 10
44.7034684265592617
 20
59.3575994574527996
 30
0.0
 40
48.1715112340969966
100
AcDbArc
 50
234.4772169391844727
 51
236.4937113059341414
  0
ARC
  5
9A
100
AcDbEntity
  8
0
 62
256
370
-1
  6
ByLayer
100
AcDbCircle
 10
45.3460766817476326
 20
60.2920922883365051
 30
0.0
 40
49.3054570555400531
100
AcDbArc
 50
236.4705209384877662
 51
238.5655537341700096
  0
ARC
  5
9B
100
AcDbEntity
  8
0
 62
256
370
-1
  6
ByLayer
100
AcDbCircle
 10
45.9847328574322987
 20
61.2952784606002083
 30
0.0
 40
50.4944913976553096
100
AcDbArc
 50
238.5408843719312699
 51
240.7350866591555132
  0
ARC
  5
9C
100
AcDbEntity
  8
0
 62
256
370
-1
  6
ByLayer
100
AcDbCircle
 10
46.6158838927789674
 20
62.3726852708269917
 30
0.0
 40
51.7429301286186316
100
AcDbArc
 50
240.7086129947679751
 51
243.0297678941818731
  0
ARC
  5
9D
100
AcDbEntity
  8
0
 62
256
370
-1
  6
ByLayer
100
AcDbCircle
 10
47.2349573298926231
 20
63.5306077814375314
 30
0.0
 40
53.0556931245586298
100
AcDbArc
 50
243.0010478120430264
 51
245.4886098865871134
  0
ARC
  5
9E
100
AcDbEntity
  8
0
 62
256
370
-1
  6
ByLayer
100
AcDbCircle
 10
47.8359889570423746
 20
64.7763879608279467
 30
0.0
 40
54.4385628695893971
100
AcDbArc
 50
245.4570100961109063
 51
248.1709893239302289
  0
ARC
  5
9F
100
AcDbEntity
  8
0
 62
256
370
-1
  6
ByLayer
100
AcDbCircle
 10
48.4110600758061267
 20
66.1190353517151266
 30
0.0
 40
55.8987832624592755
100
AcDbArc
 50
248.1355348834218546
 51
251.1764007521363737
  0
ARC
  5
A0
100
AcDbEntity
  8
0
 62
256
370
-1
  6
ByLayer
100
AcDbCircle
 10
48.9494500473339684
 20
67.5710621602147796
 30
0.0
 40
57.4468797362026748
100
AcDbArc
 50
251.1354184153410074
 51
254.6985326896811728
  0
ARC
  5
A1
100
AcDbEntity
  8
0
 62
256
370
-1
  6
ByLayer
100
AcDbCircle
 10
49.4368177130948538
 20
69.1569472333794693
 30
0.0
 40
59.1051839680704632
100
AcDbArc
 50
254.6485323968454679
 51
259.2378919749421016
  0
ARC
  5
A2
100
AcDbEntity
  8
0
 62
256
370
-1
  6
ByLayer
100
AcDbCircle
 10
49.9999999999999929
 20
72.1930530896905367
 30
0.0
 40
62.1930530896905509
100
AcDbArc
 50
259.250476897038709
 51
270.0
  0
ARC
  5
A3
100
AcDbEntity
  8
0
 62
256
370
-1
  6
ByLayer
100
AcDbCircle
 10
49.9999999999999787
 20
72.1930530896907214
 30
0.0
 40
62.1930530896907285
100
AcDbArc
 50
270.0
 51
280.749523102961291
  0
ARC
  5
A4
100
AcDbEntity
  8
0
 62
256
370
-1
  6
ByLayer
100
AcDbCircle
 10
50.5631822869050964
 20
69.1569472333792987
 30
0.0
 40
59.1051839680703068
100
AcDbArc
 50
280.7621080250580121
 51
285.3514676031546173
  0
ARC
  5
A5
100
AcDbEntity
  8
0
 62
256
370
-1
  6
ByLayer
100
AcDbCircle
 10
51.0505499526660742
 20
67.5710621602151065
 30
0.0
 40
57.4468797362029662
100
AcDbArc
 50
285.3014673103186851
 51
288.8645815846587652
  0
ARC
  5
A6
100
AcDbEntity
  8
0
 62
256
370
-1
  6
ByLayer
100
AcDbCircle
 10
51.5889399241934044
 20
66.1190353517162066
 30
0.0
 40
55.8987832624604479
100
AcDbArc
 50
288.8235992478636831
 51
291.8644651165781738
  0
ARC
  5
A7
100
AcDbEntity
  8
0
 62
256
370
-1
  6
ByLayer
100
AcDbCircle
 10
52.1640110429570854
 20
64.7763879608294815
 30
0.0
 40
54.4385628695910242
100
AcDbArc
 50
291.829010676069629
 51
294.5429899038888948
  0
ARC
  5
A8
100
AcDbEntity
  8
0
 62
256
370
-1
  6
ByLayer
100
AcDbCircle
 10
52.7650426701077393
 20
63.5306077814369701
 30
0.0
 40
53.055693124557969
100
AcDbArc
 50
294.5113901134127445
 51
296.9989521879568315
  0
ARC
  5
A9
100
AcDbEntity
  8
0
 62
256
370
-1
  6
ByLayer
100
AcDbCircle
 10
53.3841161072215442
 20
62.3726852708260679
 30
0.0
 40
51.7429301286175729
100
AcDbArc
 50
296.9702321058180132
 51
299.291387005231968
  0
ARC
  5
AA
100
AcDbEntity
  8
0
 62
256
370
-1
  6
ByLayer
100
AcDbCircle
 10
54.0152671425670619
 20
61.2952784606008549
 30
0.0
 40
50.4944913976561907
100
AcDbArc
 50
299.264913340844771
 51
301.4591156280689574
  0
ARC
  5
AB
100
AcDbEntity
  8
0
 62
256
370
-1
  6
ByLayer
100
AcDbCircle
 10
54.6539233182524526
 20
60.2920922883365122
 30
0.0
 40
49.3054570555400034
100
AcDbArc
 50
301.4344462658298767
 51
303.5294790615120633
  0
ARC
  5
AC
100
AcDbEntity
  8
0
 62
256
370
-1
  6
ByLayer
100
AcDbCircle
 10
55.2965315734423228
 20
59.357599457451073
 30
0.0
 40
48.1715112340946803
100
AcDbArc
 50
303.5062886940654039
 51
305.5227830608151294
  0
ARC
  5
AD
100
AcDbEntity
  8
0
 62
256
370
-1
  6
ByLayer
100
AcDbCircle
 10
55.940304004195788
 20
58.4868856878792229
 30
0.0
 40
47.0888052853756491
100
AcDbArc
 50
305.5008223168002246
 51
307.4547842937104747
  0
ARC
  5
AE
100
AcDbEntity
  8
0
 62
256
370
-1
  6
ByLayer
100
AcDbCircle
 10
56.583038597043597
 20
57.6755498924390082
 30
0.0
 40
46.0538733185510409
100
AcDbArc
 50
307.4338554444105966
 51
309.338186907468355
  0
ARC
  5
AF
100
AcDbEntity
  8
0
 62
256
370
-1
  6
ByLayer
100
AcDbCircle
 10
57.222989262763619
 20
56.9196327653748
 30
0.0
 40
45.0635737662930751
100
AcDbArc
 50
309.3181285061411359
 51
311.1836005832251999
  0
ARC
  5
B0
100
AcDbEntity
  8
0
 62
256
370
-1
  6
ByLayer
100
AcDbCircle
 10
57.8587694056219135
 20
56.2155621668919352
 30
0.0
 40
44.1150456004895162
100
AcDbArc
 50
311.1642772313075511
 51
313.0001892383931477
  0
ARC
  5
B1
100
AcDbEntity
  8
0
 62
256
370
-1
  6
ByLayer
100
AcDbCircle
 10
58.4892789967917821
 20
55.5601095977036934
 30
0.0
 40
43.20567368635799
100
AcDbArc
 50
312.9814844335062389
 51
314.7961357298132725
  0
ARC
  5
B2
100
AcDbEntity
  8
0
 62
256
370
-1
  6
ByLayer
100
AcDbCircle
 10
59.1136485562087444
 20
54.9503546792352608
 30
0.0
 40
42.333060326108658
100
AcDbArc
 50
314.7779466215127968
 51
316.5789960877261819
  0
ARC
  5
B3
100
AcDbEntity
  8
0
 62
256
370
-1
  6
ByLayer
100
AcDbCircle
 10
59.7311955817644815
 20
54.3836558442599127
 30
0.0
 40
41.4950012628466638
100
AcDbArc
 50
316.561229421997723
 51
318.3559899080400442
  0
ARC
  5
B4
100
AcDbEntity
  8
0
 62
256
370
-1
  6
ByLayer
100
AcDbCircle
 10
60.3413903416091557
 20
53.8576261458146419
 30
0.0
 40
40.6894650351904019
100
AcDbArc
 50
318.3385586857140197
 51
320.134259670209417
  0
ARC
  5
B5
100
AcDbEntity
  8
0
 62
256
370
-1
  6
ByLayer
100
AcDbCircle
 10
60.9438288680193949
 20
53.370113526865147
 30
0.0
 40
39.9145749013498019
100
AcDbArc
 50
320.1170801716145888
 51
321.9211255817673987
  0
ARC
  5
B6
100
AcDbEntity
  8
0
 62
256
370
-1
  6
ByLayer
100
AcDbCircle
 10
61.5382116419619649
 20
52.9191852078143015
 30
0.0
 40
39.1685927179563151
100
AcDbArc
 50
321.9041144622256638
 51
323.7243619216400816
  0
ARC
  5
B7
100
AcDbEntity
  8
0
 62
256
370
-1
  6
ByLayer
100
AcDbCircle
 10
62.1243269574058274
 20
52.5031161254285479
 30
0.0
 40
38.4499042114066825
100
AcDbArc
 50
323.7074330741849053
 51
325.5525255976412495
  0
ARC
  5
B8
100
AcDbEntity
  8
0
 62
256
370
-1
  6
ByLayer
100
AcDbCircle
 10
62.702038400716873
 20
52.1203816587863713
 30
0.0
 40
37.7570050181355299
100
AcDbArc
 50
325.5355864029027089
 51
327.4153795029386629
  0
ARC
  5
B9
100
AcDbEntity
  8
0
 62
256
370
-1
  6
ByLayer
100
AcDbCircle
 10
63.2712763970865808
 20
51.7696552697978305
 30
0.0
 40
37.0884866273270433
100
AcDbArc
 50
327.3983259062717934
 51
329.3244769371228813
  0
ARC
  5
BA
100
AcDbEntity
  8
0
 62
256
370
-1
  6
ByLayer
100
AcDbCircle
 10
63.8320345823191602
 20
51.4498122685924955
 30
0.0
 40
36.4430207511163999
100
AcDbArc
 50
329.3071864217855591
 51
331.2940194265739819
  0
ARC
  5
BB
100
AcDbEntity
  8
0
 62
256
370
-1
  6
ByLayer
100
AcDbCircle
 10
64.3843733905022475
 20
51.1599418555356564
 30
0.0
 40
35.8193391563332852
100
AcDbArc
 50
331.2763401786271515
 51
333.3421929670413419
  0
ARC
  5
BC
100
AcDbEntity
  8
0
 62
256
370
-1
  6
ByLayer
100
AcDbCircle
 10
64.9284372306261446
 20
50.8993711969835942
 30
0.0
 40
35.2162020989074023
100
AcDbArc
 50
333.323925816996848
 51
335.4933863800866902
  0
ARC
  5
BD
100
AcDbEntity
  8
0
 62
256
370
-1
  6
ByLayer
100
AcDbCircle
 10
65.4645030471241682
 20
50.6677080555467683
 30
0.0
 40
34.6323370903172574
100
AcDbArc
 50
335.4742519385438868
 51
337.7821604140887644
  0
ARC
  5
BE
100
AcDbEntity
  8
0
 62
256
370
-1
  6
ByLayer
100
AcDbCircle
 10
65.9931174125368756
 20
50.4649126373568109
 30
0.0
 40
34.0662901379052059
100
AcDbArc
 50
337.7617321670239221
 51
340.2610601229948202
  0
ARC
  5
BF
100
AcDbEntity
  8
0
 62
256
370
-1
  6
ByLayer
100
AcDbCircle
 10
66.5155547387835497
 20
50.2914082239203069
 30
0.0
 40
33.5159546432413222
100
AcDbArc
 50
340.2386042362698504
 51
343.0181535874066299
  0
ARC
  5
C0
100
AcDbEntity
  8
0
 62
256
370
-1
  6
ByLayer
100
AcDbCircle
 10
67.0360509520732535
 20
50.1481240800079036
 30
0.0
 40
32.9763080392572476
100
AcDbArc
 50
342.9921190086704428
 51
346.22515255494352
  0
ARC
  5
C1
100
AcDbEntity
  8
0
 62
256
370
-1
  6
ByLayer
100
AcDbCircle
 10
40.2688044182355185
 20
45.6163441557400091
 30
0.0
 40
41.4950012628467135
100
AcDbArc
 50
136.8408620372426299
 51
138.3559899080400157
  0
LINE
  5
C2
100
AcDbEntity
100
AcDbLine
  8
0
 62
256
370
-1
  6
ByLayer
 10
10.0
 20
107.5857864376269077
 30
0.0
 11
10.0
 21
74.0000473830191652
 31
0.0
  0
ARC
  5
C3
100
AcDbEntity
  8
0
 62
256
370
-1
  6
ByLayer
100
AcDbCircle
 10
48.9494500473338192
 20
32.4289378397851422
 30
0.0
 40
57.4468797362027033
100
AcDbArc
 50
105.3014673103186567
 51
106.6153315413552747
  0
LINE
  5
C4
100
AcDbEntity
100
AcDbLine
  8
0
 62
256
370
-1
  6
ByLayer
 10
32.5228140413741755
 20
87.4771859586258245
 30
0.0
 11
11.7071067811865461
 21
108.2928932188134468
 31
0.0
  0
LINE
  5
C5
100
AcDbEntity
100
AcDbLine
  8
0
 62
256
370
-1
  6
ByLayer
 10
67.4771859586258245
 20
87.4771859586258245
 30
0.0
 11
88.2928932188134468
 21
108.2928932188134468
 31
0.0
  0
ARC
  5
C6
100
AcDbEntity
  8
0
 62
256
370
-1
  6
ByLayer
100
AcDbCircle
 10
51.0505499526659037
 20
32.4289378397852133
 30
0.0
 40
57.4468797362027175
100
AcDbArc
 50
73.3846684586444411
 51
74.6985326896810733
  0
ARC
  5
C7
100
AcDbEntity
  8
0
 62
256
370
-1
  6
ByLayer
100
AcDbCircle
 10
59.7311955817648013
 20
45.6163441557401228
 30
0.0
 40
41.495001262846408
100
AcDbArc
 50
41.6440100919601832
 51
43.1591379627575549
  0
LINE
  5
C8
100
AcDbEntity
100
AcDbLine
  8
0
 62
256
370
-1
  6
ByLayer
 10
90.0
 20
107.5857864376268935
 30
0.0
 11
90.0
 21
74.0000473830191652
 31
0.0
  0
ARC
  5
C9
100
AcDbEntity
  8
0
 62
256
370
-1
  6
ByLayer
100
AcDbCircle
 10
15.1045628082748333
 20
96.8469185309051426
 30
0.0
 40
0.6
100
AcDbArc
 50
44.9999999999995666
 51
180.0
  0
LINE
  5
CA
100
AcDbEntity
100
AcDbLine
  8
0
 62
256
370
-1
  6
ByLayer
 10
14.5045628082748355
 20
96.8469185309051426
 30
0.0
 11
14.5045628082748355
 21
76.6954750981404914
 31
0.0
  0
LINE
  5
CB
100
AcDbEntity
100
AcDbLine
  8
0
 62
256
370
-1
  6
ByLayer
 10
28.0182512330993418
 20
84.7817582435044983
 30
0.0
 11
15.5288268769867628
 21
97.2711825996170631
 31
0.0
  0
LINE
  5
CC
100
AcDbEntity
100
AcDbLine
  8
0
 62
256
370
-1
  6
ByLayer
 10
14.5045628082748355
 20
76.6954750981404914
 30
0.0
 11
28.0182512330993418
 21
84.7817582435044983
 31
0.0
  0
ARC
  5
CD
100
AcDbEntity
  8
0
 62
256
370
-1
  6
ByLayer
100
AcDbCircle
 10
84.895437191725037
 20
96.8469185309052705
 30
0.0
 40
0.6
100
AcDbArc
 50
0.0
 51
135.0000000000006253
  0
LINE
  5
CE
100
AcDbEntity
100
AcDbLine
  8
0
 62
256
370
-1
  6
ByLayer
 10
85.4954371917250455
 20
96.8469185309052705
 30
0.0
 11
85.4954371917251024
 21
76.6954750981406193
 31
0.0
  0
LINE
  5
CF
100
AcDbEntity
100
AcDbLine
  8
0
 62
256
370
-1
  6
ByLayer
 10
71.9817487669005658
 20
84.7817582435045836
 30
0.0
 11
84.4711731230131164
 21
97.2711825996171768
 31
0.0
  0
LINE
  5
D0
100
AcDbEntity
100
AcDbLine
  8
0
 62
256
370
-1
  6
ByLayer
 10
85.4954371917251024
 20
76.6954750981406193
 30
0.0
 11
71.9817487669005658
 21
84.7817582435045836
 31
0.0
  0
LINE
  5
D1
100
AcDbEntity
100
AcDbLine
  8
0
 62
256
370
-1
  6
ByLayer
 10
99.4626303685875257
 20
55.8493491730435636
 30
0.0
 11
129.5527864045000399
 21
70.8944271909998918
 31
0.0
  0
ARC
  5
D2
100
AcDbEntity
  8
0
 62
256
370
-1
  6
ByLayer
100
AcDbCircle
 10
67.6322557075270225
 20
49.9757892918621707
 30
0.0
 40
32.3677533471402086
100
AcDbArc
 50
10.4550054812547444
 51
13.8131023462055875
  0
LINE
  5
D3
100
AcDbEntity
100
AcDbLine
  8
0
 62
256
370
-1
  6
ByLayer
 10
99.7776336979239602
 20
53.770782860211888
 30
0.0
 11
130.4472135954999601
 21
69.1055728089999945
 31
0.0
  0
ARC
  5
D4
100
AcDbEntity
  8
0
 62
256
370
-1
  6
ByLayer
100
AcDbCircle
 10
67.9172383181348067
 20
50.0
 30
0.0
 40
32.0827616818652004
100
AcDbArc
 50
1.7861635969501652
 51
6.7497456228947978
  0
LINE
  5
D5
100
AcDbEntity
100
AcDbLine
  8
0
 62
256
370
-1
  6
ByLayer
 10
99.9844115196404033
 20
50.9999999999995808
 30
0.0
 11
130.0
 21
51.0000000000000213
 31
0.0
  0
LINE
  5
D6
100
AcDbEntity
100
AcDbLine
  8
0
 62
256
370
-1
  6
ByLayer
 10
99.9844115196404033
 20
49.0000000000004334
 30
0.0
 11
130.0
 21
49.0000000000000142
 31
0.0
  0
LINE
  5
D7
100
AcDbEntity
100
AcDbLine
  8
0
 62
256
370
-1
  6
ByLayer
 10
99.7776336979239602
 20
46.2292171397881191
 30
0.0
 11
130.4472135954999317
 21
30.8944271909999166
 31
0.0
  0
ARC
  5
D8
100
AcDbEntity
  8
0
 62
256
370
-1
  6
ByLayer
100
AcDbCircle
 10
67.917238318134963
 20
49.9999999999999929
 30
0.0
 40
32.082761681865037
100
AcDbArc
 50
353.2502543771052501
 51
358.213836403049811
  0
ARC
  5
D9
100
AcDbEntity
  8
0
 62
256
370
-1
  6
ByLayer
100
AcDbCircle
 10
67.6322557075262125
 20
50.0242107081378364
 30
0.0
 40
32.3677533471410328
100
AcDbArc
 50
346.1868976537945173
 51
349.5449945187454546
  0
LINE
  5
DA
100
AcDbEntity
100
AcDbLine
  8
0
 62
256
370
-1
  6
ByLayer
 10
99.4626303685875541
 20
44.1506508269563867
 30
0.0
 11
129.5527864045000115
 21
29.1055728090000478
 31
0.0
  0
ARC
  5
DB
100
AcDbEntity
  8
0
 62
256
370
-1
  6
ByLayer
100
AcDbCircle
 10
32.3677442924735956
 20
49.9757892918621707
 30
0.0
 40
32.367753347140841
100
AcDbArc
 50
166.1868976537944889
 51
169.5449945187453977
  0
LINE
  5
DC
100
AcDbEntity
100
AcDbLine
  8
0
 62
256
370
-1
  6
ByLayer
 10
0.5373696314124558
 20
55.8493491730436133
 30
0.0
 11
-29.5527864045000435
 21
70.8944271909999202
 31
0.0
  0
LINE
  5
DD
100
AcDbEntity
100
AcDbLine
  8
0
 62
256
370
-1
  6
ByLayer
 10
0.2223663020760512
 20
53.7707828602119164
 30
0.0
 11
-30.4472135954999565
 21
69.1055728090000798
 31
0.0
  0
ARC
  5
DE
100
AcDbEntity
  8
0
 62
256
370
-1
  6
ByLayer
100
AcDbCircle
 10
32.0827616818650867
 20
50.0
 30
0.0
 40
32.0827616818650867
100
AcDbArc
 50
173.2502543771051648
 51
178.2138364030494415
  0
LINE
  5
DF
100
AcDbEntity
100
AcDbLine
  8
0
 62
256
370
-1
  6
ByLayer
 10
0.0155884803595958
 20
50.9999999999995879
 30
0.0
 11
-30.0
 21
51.0
 31
0.0
  0
LINE
  5
E0
100
AcDbEntity
100
AcDbLine
  8
0
 62
256
370
-1
  6
ByLayer
 10
0.0155884803595911
 20
49.0000000000004263
 30
0.0
 11
-30.0
 21
49.0
 31
0.0
  0
ARC
  5
E1
100
AcDbEntity
  8
0
 62
256
370
-1
  6
ByLayer
100
AcDbCircle
 10
32.0827616818651649
 20
50.0
 30
0.0
 40
32.082761681865172
100
AcDbArc
 50
181.7861635969501606
 51
186.749745622894693
  0
LINE
  5
E2
100
AcDbEntity
100
AcDbLine
  8
0
 62
256
370
-1
  6
ByLayer
 10
0.2223663020760341
 20
46.2292171397881546
 30
0.0
 11
-30.4472135954999601
 21
30.8944271909999166
 31
0.0
  0
ARC
  5
E3
100
AcDbEntity
  8
0
 62
256
370
-1
  6
ByLayer
100
AcDbCircle
 10
32.3677442924730059
 20
50.0242107081378364
 30
0.0
 40
32.3677533471402441
100
AcDbArc
 50
190.4550054812547728
 51
193.813102346205568
  0
LINE
  5
E4
100
AcDbEntity
100
AcDbLine
  8
0
 62
256
370
-1
  6
ByLayer
 10
0.5373696314124664
 20
44.1506508269564009
 30
0.0
 11
-29.5527864045000435
 21
29.1055728090000834
 31
0.0
  0
ELLIPSE
  5
E5
100
AcDbEntity
100
AcDbEllipse
  8
0
 62
256
370
-1
  6
ByLayer
 10
49.9999999999999929
 20
96.6650000000000063
 30
0.0
 11
0.0
 21
-3.9989999999999997
 31
0.0
 40
0.6666666666666666
 41
0.0
 42
6.2831853071795862
  0
LINE
  5
E6
100
AcDbEntity
100
AcDbLine
  8
0
 62
256
370
-1
  6
ByLayer
 10
43.3349999999999937
 20
92.6659999999999968
 30
0.0
 11
43.3349999999999937
 21
103.3299999999999983
 31
0.0
  0
LINE
  5
E7
100
AcDbEntity
100
AcDbLine
  8
0
 62
256
370
-1
  6
ByLayer
 10
43.3349999999999937
 20
103.3299999999999983
 30
0.0
 11
40.6689999999999898
 21
103.3299999999999983
 31
0.0
  0
LINE
  5
E8
100
AcDbEntity
100
AcDbLine
  8
0
 62
256
370
-1
  6
ByLayer
 10
56.6649999999999991
 20
92.6659999999999968
 30
0.0
 11
56.6649999999999991
 21
103.3299999999999983
 31
0.0
  0
LINE
  5
E9
100
AcDbEntity
100
AcDbLine
  8
0
 62
256
370
-1
  6
ByLayer
 10
56.6649999999999991
 20
103.3299999999999983
 30
0.0
 11
59.330999999999996
 21
103.3299999999999983
 31
0.0
  0
ARC
  5
EA
100
AcDbEntity
  8
0
 62
256
370
-1
  6
ByLayer
100
AcDbCircle
 10
48.3507210533991341
 20
96.2138973229072718
 30
0.0
 40
6.8973325861444481
100
AcDbArc
 50
330.7086129947678046
 51
333.0297678941818162
  0
ARC
  5
EB
100
AcDbEntity
  8
0
 62
256
370
-1
  6
ByLayer
100
AcDbCircle
 10
48.1963699827339909
 20
96.2964198120748875
 30
0.0
 40
7.0723238935040946
100
AcDbArc
 50
333.0010478120430548
 51
335.4886098865870281
  0
ARC
  5
EC
100
AcDbEntity
  8
0
 62
256
370
-1
  6
ByLayer
100
AcDbCircle
 10
48.030307484822174
 20
96.3765373279734945
 30
0.0
 40
7.2566604305156623
100
AcDbArc
 50
335.4570100961111052
 51
338.1709893239307121
  0
ARC
  5
ED
100
AcDbEntity
  8
0
 62
256
370
-1
  6
ByLayer
100
AcDbCircle
 10
47.8513325876157651
 20
96.4531943081051963
 30
0.0
 40
7.4513078088864688
100
AcDbArc
 50
338.1355348834219967
 51
341.1764007521362601
  0
ARC
  5
EE
100
AcDbEntity
  8
0
 62
256
370
-1
  6
ByLayer
100
AcDbCircle
 10
47.6577774140437072
 20
96.5249616913094997
 30
0.0
 40
7.6576690688354487
100
AcDbArc
 50
341.1354184153411779
 51
344.6985326896814854
  0
ARC
  5
EF
100
AcDbEntity
  8
0
 62
256
370
-1
  6
ByLayer
100
AcDbCircle
 10
47.4463789337901929
 20
96.589927801155639
 30
0.0
 40
7.8787210229441209
100
AcDbArc
 50
344.6485323968454964
 51
349.2378919749419879
  0
ARC
  5
F0
100
AcDbEntity
  8
0
 62
256
370
-1
  6
ByLayer
100
AcDbCircle
 10
47.0416660231442165
 20
96.6650000000000063
 30
0.0
 40
8.2903339768557807
100
AcDbArc
 50
349.2504768970388227
 51
360.0
  0
ARC
  5
F1
100
AcDbEntity
  8
0
 62
256
370
-1
  6
ByLayer
100
AcDbCircle
 10
47.0416660231442236
 20
96.6650000000000063
 30
0.0
 40
8.2903339768557736
100
AcDbArc
 50
0.0000000000000509
 51
10.7495231029612359
  0
ARC
  5
F2
100
AcDbEntity
  8
0
 62
256
370
-1
  6
ByLayer
100
AcDbCircle
 10
47.4463789337901858
 20
96.7400721988443735
 30
0.0
 40
7.8787210229441262
100
AcDbArc
 50
10.7621080250580192
 51
15.3514676031545232
  0
ARC
  5
F3
100
AcDbEntity
  8
0
 62
256
370
-1
  6
ByLayer
100
AcDbCircle
 10
47.6577774140436858
 20
96.8050383086905128
 30
0.0
 40
7.6576690688354692
100
AcDbArc
 50
15.3014673103185164
 51
18.8645815846588434
  0
ARC
  5
F4
100
AcDbEntity
  8
0
 62
256
370
-1
  6
ByLayer
100
AcDbCircle
 10
47.8513325876157438
 20
96.876805691894802
 30
0.0
 40
7.4513078088864919
100
AcDbArc
 50
18.8235992478637897
 51
21.864465116578053
  0
ARC
  5
F5
100
AcDbEntity
  8
0
 62
256
370
-1
  6
ByLayer
100
AcDbCircle
 10
48.0303074848221812
 20
96.9534626720265322
 30
0.0
 40
7.2566604305156464
100
AcDbArc
 50
21.8290106760692062
 51
24.542989903888845
  0
ARC
  5
F6
100
AcDbEntity
  8
0
 62
256
370
-1
  6
ByLayer
100
AcDbCircle
 10
48.1963699827339767
 20
97.0335801879250965
 30
0.0
 40
7.0723238935041142
100
AcDbArc
 50
24.5113901134131353
 51
26.9989521879570695
  0
ARC
  5
F7
100
AcDbEntity
  8
0
 62
256
370
-1
  6
ByLayer
100
AcDbCircle
 10
48.3507210533991412
 20
97.1161026770927691
 30
0.0
 40
6.8973325861444277
100
AcDbArc
 50
26.9702321058180239
 51
29.2913870052320604
  0
ARC
  5
F8
100
AcDbEntity
  8
0
 62
256
370
-1
  6
ByLayer
100
AcDbCircle
 10
48.4943393812018684
 20
97.2002351101042308
 30
0.0
 40
6.7309157033075815
100
AcDbArc
 50
29.2649133408443944
 51
31.459115628068627
  0
ARC
  5
F9
100
AcDbEntity
  8
0
 62
256
370
-1
  6
ByLayer
100
AcDbCircle
 10
48.6280640979647387
 20
97.2853679783230518
 30
0.0
 40
6.5724174255034864
100
AcDbArc
 50
31.434446265829898
 51
33.529479061512184
  0
ARC
  5
FA
100
AcDbEntity
  8
0
 62
256
370
-1
  6
ByLayer
100
AcDbCircle
 10
48.7526319923216747
 20
97.3710276587398198
 30
0.0
 40
6.4212624475049243
100
AcDbArc
 50
33.5062886940653542
 51
35.5227830608150228
  0
ARC
  5
FB
100
AcDbEntity
  8
0
 62
256
370
-1
  6
ByLayer
100
AcDbCircle
 10
48.8686981378057723
 20
97.4568425237593345
 30
0.0
 40
6.2769377445404873
100
AcDbArc
 50
35.5008223168004236
 51
37.4547842937106878
  0
ARC
  5
FC
100
AcDbEntity
  8
0
 62
256
370
-1
  6
ByLayer
100
AcDbCircle
 10
48.9768491993376784
 20
97.5425190449857524
 30
0.0
 40
6.1389813133631126
100
AcDbArc
 50
37.4338554444106748
 51
39.3381869074683763
  0
ARC
  5
FD
100
AcDbEntity
  8
0
 62
256
370
-1
  6
ByLayer
100
AcDbCircle
 10
49.07761295237556
 20
97.6278244687264447
 30
0.0
 40
6.0069743830468179
100
AcDbArc
 50
39.3181285061409795
 51
41.1836005832250507
  0
ARC
  5
FE
100
AcDbEntity
  8
0
 62
256
370
-1
  6
ByLayer
100
AcDbCircle
 10
49.1714655631529638
 20
97.7125739617691238
 30
0.0
 40
5.8805355785456888
100
AcDbArc
 50
41.1642772313074659
 51
43.0001892383929345
  0
ARC
  5
FF
100
AcDbEntity
  8
0
 62
256
370
-1
  6
ByLayer
100
AcDbCircle
 10
49.2588373906265673
 20
97.7966208902728624
 30
0.0
 40
5.7593163023908227
100
AcDbArc
 50
42.9814844335058268
 51
44.7961357298130025
  0
ARC
  5
100
100
AcDbEntity
  8
0
 62
256
370
-1
  6
ByLayer
100
AcDbCircle
 10
49.3401177212577977
 20
97.8798493525424789
 30
0.0
 40
5.642996941470491
100
AcDbArc
 50
44.7779466215129887
 51
46.5789960877262672
  0
ARC
  5
101
100
AcDbEntity
  8
0
 62
256
370
-1
  6
ByLayer
100
AcDbCircle
 10
49.4156586759599605
 20
97.9621683710490316
 30
0.0
 40
5.5312836683377204
100
AcDbArc
 50
46.5612294219976306
 51
48.3559899080398523
  0
ARC
  5
102
100
AcDbEntity
  8
0
 62
256
370
-1
  6
ByLayer
100
AcDbCircle
 10
49.4857784347633824
 20
98.0435073325369757
 30
0.0
 40
5.4239056891902084
100
AcDbArc
 50
48.3385586857144531
 51
50.1342596702099996
  0
ARC
  5
103
100
AcDbEntity
  8
0
 62
256
370
-1
  6
ByLayer
100
AcDbCircle
 10
49.5507638668686994
 20
98.123812388106785
 30
0.0
 40
5.3206128343501975
100
AcDbArc
 50
50.1170801716145817
 51
51.9211255817673916
  0
ARC
  5
104
100
AcDbEntity
  8
0
 62
256
370
-1
  6
ByLayer
100
AcDbCircle
 10
49.6108726117981718
 20
98.2030436118733547
 30
0.0
 40
5.221173409303824
100
AcDbArc
 50
51.9041144622252375
 51
53.7243619216396411
  0
ARC
  5
105
100
AcDbEntity
  8
0
 62
256
370
-1
  6
ByLayer
100
AcDbCircle
 10
49.6663346204802068
 20
98.2811727834219226
 30
0.0
 40
5.125372231380835
100
AcDbArc
 50
53.7074330741852606
 51
55.5525255976415337
  0
ARC
  5
106
100
AcDbEntity
  8
0
 62
256
370
-1
  6
ByLayer
100
AcDbCircle
 10
49.7173531248836227
 20
98.3581817188153877
 30
0.0
 40
5.0330087689176999
100
AcDbArc
 50
55.5355864029025454
 51
57.4153795029383787
  0
ARC
  5
107
100
AcDbEntity
  8
0
 62
256
370
-1
  6
ByLayer
100
AcDbCircle
 10
49.7641049525362433
 20
98.434061143732194
 30
0.0
 40
4.9438952674220751
100
AcDbArc
 50
57.3983259062713813
 51
59.3244769371226681
  0
ARC
  5
108
100
AcDbEntity
  8
0
 62
256
370
-1
  6
ByLayer
100
AcDbCircle
 10
49.8067400245964862
 20
98.5088102098229967
 30
0.0
 40
4.8578546661240178
100
AcDbArc
 50
59.3071864217852607
 51
61.2940194265735983
  0
ARC
  5
109
100
AcDbEntity
  8
0
 62
256
370
-1
  6
ByLayer
100
AcDbCircle
 10
49.8453797506574432
 20
98.5824369729545253
 30
0.0
 40
4.7747179095385528
100
AcDbArc
 50
61.2763401786275708
 51
63.3421929670420454
  0
ARC
  5
10A
100
AcDbEntity
  8
0
 62
256
370
-1
  6
ByLayer
100
AcDbCircle
 10
49.8801138194419025
 20
98.6549606828421304
 30
0.0
 40
4.6943197397847447
100
AcDbArc
 50
63.3239258169968195
 51
65.4933863800864202
  0
ARC
  5
10B
100
AcDbEntity
  8
0
 62
256
370
-1
  6
ByLayer
100
AcDbCircle
 10
49.9109945161955437
 20
98.7264182561815034
 30
0.0
 40
4.616490534139464
100
AcDbArc
 50
65.4742519385439152
 51
67.7821604140887217
  0
ARC
  5
10C
100
AcDbEntity
  8
0
 62
256
370
-1
  6
ByLayer
100
AcDbCircle
 10
49.9380271454404507
 20
98.7968825510914996
 30
0.0
 40
4.5410364753824162
100
AcDbArc
 50
67.7617321670238937
 51
70.2610601229949765
  0
ARC
  5
10D
100
AcDbEntity
  8
0
 62
256
370
-1
  6
ByLayer
100
AcDbCircle
 10
49.9611552837513671
 20
98.8665234466797216
 30
0.0
 40
4.4676767539442013
100
AcDbArc
 50
70.2386042362698078
 51
73.0181535874063457
  0
ARC
  5
10E
100
AcDbEntity
  8
0
 62
256
370
-1
  6
ByLayer
100
AcDbCircle
 10
49.9802550601349154
 20
98.9359055919112222
 30
0.0
 40
4.3957418616331454
100
AcDbArc
 50
72.9921190086705423
 51
76.2251525549436479
  0
ARC
  5
10F
100
AcDbEntity
  8
0
 62
256
370
-1
  6
ByLayer
100
AcDbCircle
 10
49.996772712605221
 20
99.0153796858133433
 30
0.0
 40
4.3146215211738079
100
AcDbArc
 50
76.186897653794432
 51
80.3310462291348983
  0
ARC
  5
110
100
AcDbEntity
  8
0
 62
256
370
-1
  6
ByLayer
100
AcDbCircle
 10
49.9999999999999929
 20
99.0533678678074097
 30
0.0
 40
4.2766321321925931
100
AcDbArc
 50
80.2881896394384427
 51
90.0
  0
ARC
  5
111
100
AcDbEntity
  8
0
 62
256
370
-1
  6
ByLayer
100
AcDbCircle
 10
49.9999999999999929
 20
99.0533678678074097
 30
0.0
 40
4.2766321321925931
100
AcDbArc
 50
90.0
 51
99.7118103605615573
  0
ARC
  5
112
100
AcDbEntity
  8
0
 62
256
370
-1
  6
ByLayer
100
AcDbCircle
 10
50.0032272873943882
 20
99.0153796858132864
 30
0.0
 40
4.3146215211738523
100
AcDbArc
 50
99.6689537708649453
 51
103.813102346205369
  0
ARC
  5
113
100
AcDbEntity
  8
0
 62
256
370
-1
  6
ByLayer
100
AcDbCircle
 10
50.0197449398651059
 20
98.9359055919112649
 30
0.0
 40
4.3957418616331001
100
AcDbArc
 50
103.7748474450564515
 51
107.0078809913296141
  0
ARC
  5
114
100
AcDbEntity
  8
0
 62
256
370
-1
  6
ByLayer
100
AcDbCircle
 10
50.0388447162486258
 20
98.8665234466797358
 30
0.0
 40
4.4676767539441933
100
AcDbArc
 50
106.9818464125936543
 51
109.7613957637302917
  0
ARC
  5
115
100
AcDbEntity
  8
0
 62
256
370
-1
  6
ByLayer
100
AcDbCircle
 10
50.0619728545595351
 20
98.7968825510914712
 30
0.0
 40
4.5410364753824393
100
AcDbArc
 50
109.7389398770048246
 51
112.2382678329760068
  0
ARC
  5
116
100
AcDbEntity
  8
0
 62
256
370
-1
  6
ByLayer
100
AcDbCircle
 10
50.0890054838044207
 20
98.7264182561815176
 30
0.0
 40
4.6164905341394347
100
AcDbArc
 50
112.2178395859110651
 51
114.5257480614558858
  0
ARC
  5
117
100
AcDbEntity
  8
0
 62
256
370
-1
  6
ByLayer
100
AcDbCircle
 10
50.119886180558062
 20
98.6549606828421446
 30
0.0
 40
4.6943197397847189
100
AcDbArc
 50
114.5066136199134803
 51
116.6760741830029815
  0
ARC
  5
118
100
AcDbEntity
  8
0
 62
256
370
-1
  6
ByLayer
100
AcDbCircle
 10
50.154620249342571
 20
98.5824369729545538
 30
0.0
 40
4.7747179095385421
100
AcDbArc
 50
116.6578070329583596
 51
118.7236598213727916
  0
ARC
  5
119
100
AcDbEntity
  8
0
 62
256
370
-1
  6
ByLayer
100
AcDbCircle
 10
50.1932599754034925
 20
98.5088102098229399
 30
0.0
 40
4.8578546661240614
100
AcDbArc
 50
118.7059805734261033
 51
120.6928135782144409
  0
ARC
  5
11A
100
AcDbEntity
  8
0
 62
256
370
-1
  6
ByLayer
100
AcDbCircle
 10
50.2358950474637354
 20
98.4340611437322224
 30
0.0
 40
4.9438952674220413
100
AcDbArc
 50
120.6755230628774314
 51
122.6016740937288176
  0
ARC
  5
11B
100
AcDbEntity
  8
0
 62
256
370
-1
  6
ByLayer
100
AcDbCircle
 10
50.2826468751163631
 20
98.3581817188153025
 30
0.0
 40
5.0330087689177674
100
AcDbArc
 50
122.5846204970610103
 51
124.4644135970968932
  0
ARC
  5
11C
100
AcDbEntity
  8
0
 62
256
370
-1
  6
ByLayer
100
AcDbCircle
 10
50.3336653795198146
 20
98.2811727834219795
 30
0.0
 40
5.1253722313808057
100
AcDbArc
 50
124.4474744023590773
 51
126.2925669258153505
  0
ARC
  5
11D
100
AcDbEntity
  8
0
 62
256
370
-1
  6
ByLayer
100
AcDbCircle
 10
50.389127388201814
 20
98.2030436118732695
 30
0.0
 40
5.2211734093038897
100
AcDbArc
 50
126.2756380783597905
 51
128.0958855377741372
  0
ARC
  5
11E
100
AcDbEntity
  8
0
 62
256
370
-1
  6
ByLayer
100
AcDbCircle
 10
50.449236133131258
 20
98.1238123881068276
 30
0.0
 40
5.320612834350146
100
AcDbArc
 50
128.0788744182326013
 51
129.8829198283854112
  0
ARC
  5
11F
100
AcDbEntity
  8
0
 62
256
370
-1
  6
ByLayer
100
AcDbCircle
 10
50.5142215652366033
 20
98.0435073325369899
 30
0.0
 40
5.4239056891901978
100
AcDbArc
 50
129.8657403297899862
 51
131.661441314285554
  0
ARC
  5
120
100
AcDbEntity
  8
0
 62
256
370
-1
  6
ByLayer
100
AcDbCircle
 10
50.5843413240400537
 20
97.9621683710490174
 30
0.0
 40
5.5312836683377506
100
AcDbArc
 50
131.6440100919602401
 51
133.438770578002476
  0
ARC
  5
121
100
AcDbEntity
  8
0
 62
256
370
-1
  6
ByLayer
100
AcDbCircle
 10
50.6598822787421312
 20
97.8798493525425357
 30
0.0
 40
5.6429969414704004
100
AcDbArc
 50
133.4210039122737328
 51
135.2220533784871179
  0
ARC
  5
122
100
AcDbEntity
  8
0
 62
256
370
-1
  6
ByLayer
100
AcDbCircle
 10
50.7411626093734398
 20
97.7966208902728198
 30
0.0
 40
5.7593163023908627
100
AcDbArc
 50
135.203864270186898
 51
137.0185155664941306
  0
ARC
  5
123
100
AcDbEntity
  8
0
 62
256
370
-1
  6
ByLayer
100
AcDbCircle
 10
50.828534436847022
 20
97.7125739617691096
 30
0.0
 40
5.8805355785456976
100
AcDbArc
 50
136.9998107616069092
 51
138.835722768692392
  0
ARC
  5
124
100
AcDbEntity
  8
0
 62
256
370
-1
  6
ByLayer
100
AcDbCircle
 10
50.9223870476243974
 20
97.6278244687264021
 30
0.0
 40
6.0069743830468241
100
AcDbArc
 50
138.8163994167744306
 51
140.6818714938585231
  0
ARC
  5
125
100
AcDbEntity
  8
0
 62
256
370
-1
  6
ByLayer
100
AcDbCircle
 10
51.0231508006623642
 20
97.5425190449857382
 30
0.0
 40
6.1389813133631632
100
AcDbArc
 50
140.6618130925317587
 51
142.5661445555894318
  0
ARC
  5
126
100
AcDbEntity
  8
0
 62
256
370
-1
  6
ByLayer
100
AcDbCircle
 10
51.1313018621942277
 20
97.456842523759363
 30
0.0
 40
6.2769377445404801
100
AcDbArc
 50
142.5452157062896106
 51
144.4991776831998891
  0
ARC
  5
127
100
AcDbEntity
  8
0
 62
256
370
-1
  6
ByLayer
100
AcDbCircle
 10
51.2473680076784746
 20
97.3710276587396493
 30
0.0
 40
6.4212624475051525
100
AcDbArc
 50
144.477216939184558
 51
146.4937113059342835
  0
ARC
  5
128
100
AcDbEntity
  8
0
 62
256
370
-1
  6
ByLayer
100
AcDbCircle
 10
51.3719359020352613
 20
97.2853679783230803
 30
0.0
 40
6.5724174255034855
100
AcDbArc
 50
146.4705209384880789
 51
148.5655537341702939
  0
ARC
  5
129
100
AcDbEntity
  8
0
 62
256
370
-1
  6
ByLayer
100
AcDbCircle
 10
51.5056606187981387
 20
97.2002351101041739
 30
0.0
 40
6.730915703307625
100
AcDbArc
 50
148.540884371931071
 51
150.7350866591552858
  0
ARC
  5
12A
100
AcDbEntity
  8
0
 62
256
370
-1
  6
ByLayer
100
AcDbCircle
 10
51.6492789466008588
 20
97.1161026770927549
 30
0.0
 40
6.8973325861444481
100
AcDbArc
 50
150.708612994767833
 51
153.0297678941818731
  0
ARC
  5
12B
100
AcDbEntity
  8
0
 62
256
370
-1
  6
ByLayer
100
AcDbCircle
 10
51.8036300172658954
 20
97.0335801879251818
 30
0.0
 40
7.0723238935039756
100
AcDbArc
 50
153.0010478120431969
 51
155.4886098865871134
  0
ARC
  5
12C
100
AcDbEntity
  8
0
 62
256
370
-1
  6
ByLayer
100
AcDbCircle
 10
51.9696925151778117
 20
96.9534626720265038
 30
0.0
 40
7.2566604305156686
100
AcDbArc
 50
155.4570100961109063
 51
158.1709893239305984
  0
ARC
  5
12D
100
AcDbEntity
  8
0
 62
256
370
-1
  6
ByLayer
100
AcDbCircle
 10
52.1486674123842988
 20
96.8768056918947735
 30
0.0
 40
7.4513078088865541
100
AcDbArc
 50
158.1355348834219399
 51
161.1764007521362032
  0
ARC
  5
12E
100
AcDbEntity
  8
0
 62
256
370
-1
  6
ByLayer
100
AcDbCircle
 10
52.3422225859563
 20
96.8050383086905128
 30
0.0
 40
7.6576690688354718
100
AcDbArc
 50
161.1354184153411495
 51
164.6985326896814854
  0
ARC
  5
12F
100
AcDbEntity
  8
0
 62
256
370
-1
  6
ByLayer
100
AcDbCircle
 10
52.5536210662097716
 20
96.7400721988443593
 30
0.0
 40
7.878721022944104
100
AcDbArc
 50
164.6485323968453827
 51
169.2378919749418742
  0
ARC
  5
130
100
AcDbEntity
  8
0
 62
256
370
-1
  6
ByLayer
100
AcDbCircle
 10
52.9583339768557408
 20
96.6650000000000063
 30
0.0
 40
8.2903339768557522
100
AcDbArc
 50
169.2504768970388227
 51
180.0
  0
ARC
  5
131
100
AcDbEntity
  8
0
 62
256
370
-1
  6
ByLayer
100
AcDbCircle
 10
52.9583339768557622
 20
96.6650000000000205
 30
0.0
 40
8.2903339768557736
100
AcDbArc
 50
180.0
 51
190.7495231029611773
  0
ARC
  5
132
100
AcDbEntity
  8
0
 62
256
370
-1
  6
ByLayer
100
AcDbCircle
 10
52.5536210662097147
 20
96.5899278011556248
 30
0.0
 40
7.8787210229440428
100
AcDbArc
 50
190.7621080250580121
 51
195.3514676031545321
  0
ARC
  5
133
100
AcDbEntity
  8
0
 62
256
370
-1
  6
ByLayer
100
AcDbCircle
 10
52.3422225859562431
 20
96.5249616913094997
 30
0.0
 40
7.6576690688354185
100
AcDbArc
 50
195.3014673103186283
 51
198.8645815846588505
  0
ARC
  5
134
100
AcDbEntity
  8
0
 62
256
370
-1
  6
ByLayer
100
AcDbCircle
 10
52.148667412384242
 20
96.4531943081052106
 30
0.0
 40
7.4513078088864901
100
AcDbArc
 50
198.8235992478637968
 51
201.8644651165779464
  0
ARC
  5
135
100
AcDbEntity
  8
0
 62
256
370
-1
  6
ByLayer
100
AcDbCircle
 10
51.9696925151778331
 20
96.3765373279734803
 30
0.0
 40
7.2566604305156801
100
AcDbArc
 50
201.8290106760692026
 51
204.5429899038887811
  0
ARC
  5
136
100
AcDbEntity
  8
0
 62
256
370
-1
  6
ByLayer
100
AcDbCircle
 10
51.8036300172660162
 20
96.2964198120749018
 30
0.0
 40
7.0723238935041222
100
AcDbArc
 50
204.5113901134130856
 51
206.9989521879569168
  0
ARC
  5
137
100
AcDbEntity
  8
0
 62
256
370
-1
  6
ByLayer
100
AcDbCircle
 10
51.6492789466009157
 20
96.2138973229072576
 30
0.0
 40
6.8973325861444961
100
AcDbArc
 50
206.970232105817928
 51
209.291387005231968
  0
ARC
  5
138
100
AcDbEntity
  8
0
 62
256
370
-1
  6
ByLayer
100
AcDbCircle
 10
49.9999999999999361
 20
27.806946910309378
 30
0.0
 40
62.1930530896906362
100
AcDbArc
 50
79.2504768970386522
 51
81.3711706683360632
  0
LINE
  5
139
100
AcDbEntity
100
AcDbLine
  8
0
 62
256
370
-1
  6
ByLayer
 10
59.330999999999996
 20
103.3299999999999983
 30
0.0
 11
59.330999999999996
 21
89.2960377445140807
 31
0.0
  0
ARC
  5
13A
100
AcDbEntity
  8
0
 62
256
370
-1
  6
ByLayer
100
AcDbCircle
 10
49.9999999999999787
 20
27.8069469103093638
 30
0.0
 40
62.1930530896906433
100
AcDbArc
 50
98.6288293316638942
 51
100.749523102961291
  0
LINE
  5
13B
100
AcDbEntity
100
AcDbLine
  8
0
 62
256
370
-1
  6
ByLayer
 10
40.6689999999999898
 20
103.3299999999999983
 30
0.0
 11
40.6689999999999898
 21
89.2960377445140665
 31
0.0
  0
ARC
  5
13C
100
AcDbEntity
  8
0
 62
256
370
-1
  6
ByLayer
100
AcDbCircle
 10
51.5056606187981032
 20
96.1297648898958101
 30
0.0
 40
6.7309157033075833
100
AcDbArc
 50
209.2649133408446858
 51
210.9710762900841416
  0
LINE
  5
13D
100
AcDbEntity
100
AcDbLine
  8
0
 62
256
370
-1
  6
ByLayer
 10
45.7343904819428104
 20
92.6659999999999968
 30
0.0
 11
43.3349999999999937
 21
92.6659999999999968
 31
0.0
  0
ARC
  5
13E
100
AcDbEntity
  8
0
 62
256
370
-1
  6
ByLayer
100
AcDbCircle
 10
48.4943393812019252
 20
96.1297648898957675
 30
0.0
 40
6.730915703307522
100
AcDbArc
 50
329.0289237099159436
 51
330.7350866591555132
  0
LINE
  5
13F
100
AcDbEntity
100
AcDbLine
  8
0
 62
256
370
-1
  6
ByLayer
 10
54.2656095180571683
 20
92.6659999999999968
 30
0.0
 11
56.6649999999999991
 21
92.6659999999999968
 31
0.0
  0
ENDSEC
  0
SECTION
  2
OBJECTS
  0
DICTIONARY
  5
C
100
AcDbDictionary
280
0
281
1
  3
ACAD_GROUP
350
D
  3
ACAD_LAYOUT
350
1A
  3
ACAD_MLINESTYLE
350
17
  3
ACAD_PLOTSETTINGS
350
19
  3
ACAD_PLOTSTYLENAME
350
E
  3
AcDbVariableDictionary
350
140
  0
DICTIONARY
  5
D
100
AcDbDictionary
280
0
281
1
  0
ACDBDICTIONARYWDFLT
  5
E
100
AcDbDictionary
281
1
  3
Normal
350
F
100
AcDbDictionaryWithDefault
340
F
  0
ACDBPLACEHOLDER
  5
F
  0
DICTIONARY
  5
17
100
AcDbDictionary
280
0
281
1
  3
Standard
350
18
  0
MLINESTYLE
  5
18
100
AcDbMlineStyle
  2
STANDARD
 70
0
  3

 62
256
 51
90.0
 52
90.0
 71
2
 49
0.5
 62
256
  6
BYLAYER
 49
-0.5
 62
256
  6
BYLAYER
  0
DICTIONARY
  5
19
100
AcDbDictionary
280
0
281
1
  0
DICTIONARY
  5
1A
100
AcDbDictionary
281
1
  3
Layout1
350
1E
  3
Layout2
350
26
  3
Model
350
22
  0
LAYOUT
  5
1E
100
AcDbPlotSettings
  1

  2
C:\Program Files\AutoCAD 2002\plotters\DWF ePlot (optimized for plotting).pc3
  4

  6

 40
0.0
 41
0.0
 42
0.0
 43
0.0
 44
0.0
 45
0.0
 46
0.0
 47
0.0
 48
0.0
 49
0.0
140
0.0
141
0.0
142
1.0
143
1.0
 70
688
 72
0
 73
0
 74
5
  7

 75
16
147
1.0
148
0.0
149
0.0
100
AcDbLayout
  1
Layout1
 70
1
 71
1
 10
0.0
 20
0.0
 11
420.0
 21
297.0
 12
0.0
 22
0.0
 32
0.0
 14
100000000000000000000.0
 24
100000000000000000000.0
 34
100000000000000000000.0
 15
-100000000000000000000.0
 25
-100000000000000000000.0
 35
-100000000000000000000.0
146
0.0
 13
0.0
 23
0.0
 33
0.0
 16
1.0
 26
0.0
 36
0.0
 17
0.0
 27
1.0
 37
0.0
 76
0
330
1B
  0
LAYOUT
  5
22
100
AcDbPlotSettings
  1

  2
C:\Program Files\AutoCAD 2002\plotters\DWF ePlot (optimized for plotting).pc3
  4

  6

 40
0.0
 41
0.0
 42
0.0
 43
0.0
 44
0.0
 45
0.0
 46
0.0
 47
0.0
 48
0.0
 49
0.0
140
0.0
141
0.0
142
1.0
143
1.0
 70
1712
 72
0
 73
0
 74
0
  7

 75
0
147
1.0
148
0.0
149
0.0
100
AcDbLayout
  1
Model
 70
1
 71
0
 10
0.0
 20
0.0
 11
12.0
 21
9.0
 12
0.0
 22
0.0
 32
0.0
 14
0.0
 24
0.0
 34
0.0
 15
0.0
 25
0.0
 35
0.0
146
0.0
 13
0.0
 23
0.0
 33
0.0
 16
1.0
 26
0.0
 36
0.0
 17
0.0
 27
1.0
 37
0.0
 76
0
330
1F
  0
LAYOUT
  5
26
100
AcDbPlotSettings
  1

  2
C:\Program Files\AutoCAD 2002\plotters\DWF ePlot (optimized for plotting).pc3
  4

  6

 40
0.0
 41
0.0
 42
0.0
 43
0.0
 44
0.0
 45
0.0
 46
0.0
 47
0.0
 48
0.0
 49
0.0
140
0.0
141
0.0
142
1.0
143
1.0
 70
688
 72
0
 73
0
 74
5
  7

 75
16
147
1.0
148
0.0
149
0.0
100
AcDbLayout
  1
Layout2
 70
1
 71
2
 10
0.0
 20
0.0
 11
12.0
 21
9.0
 12
0.0
 22
0.0
 32
0.0
 14
0.0
 24
0.0
 34
0.0
 15
0.0
 25
0.0
 35
0.0
146
0.0
 13
0.0
 23
0.0
 33
0.0
 16
1.0
 26
0.0
 36
0.0
 17
0.0
 27
1.0
 37
0.0
 76
0
330
23
  0
DICTIONARY
  5
140
100
AcDbDictionary
281
1
  3
DIMASSOC
350
142
  3
HIDETEXT
350
141
  0
DICTIONARYVAR
  5
141
100
DictionaryVariables
280
0
  1
2
  0
DICTIONARYVAR
  5
142
100
DictionaryVariables
280
0
  1
1
  0
ENDSEC
  0
EOF
