<?xml version="1.0" standalone="yes"?>

<svg width="542mm" height="465mm" viewBox="0 0 542 465" version="1.1"
xmlns="http://www.w3.org/2000/svg" style="stroke-linecap:round">
  <path d="M92.9321,299.72 L80.9973,299.72" style="stroke:rgb(0,0,0);stroke-width:0.1;fill:none" />
  <path d="M80.9973,299.72 L74.5765,332" style="stroke:rgb(0,0,0);stroke-width:0.1;fill:none" />
  <path d="M92.9321,299.72 L99.3529,332" style="stroke:rgb(0,0,0);stroke-width:0.1;fill:none" />
  <path d="M99.3529,332 L124.129,332" style="stroke:rgb(0,0,0);stroke-width:0.1;fill:none" />
  <path d="M142.485,299.72 L130.55,299.72" style="stroke:rgb(0,0,0);stroke-width:0.1;fill:none" />
  <path d="M130.55,299.72 L124.129,332" style="stroke:rgb(0,0,0);stroke-width:0.1;fill:none" />
  <path d="M142.485,299.72 L148.906,332" style="stroke:rgb(0,0,0);stroke-width:0.1;fill:none" />
  <path d="M148.906,332 L173.682,332" style="stroke:rgb(0,0,0);stroke-width:0.1;fill:none" />
  <path d="M192.038,299.72 L180.103,299.72" style="stroke:rgb(0,0,0);stroke-width:0.1;fill:none" />
  <path d="M180.103,299.72 L173.682,332" style="stroke:rgb(0,0,0);stroke-width:0.1;fill:none" />
  <path d="M192.038,299.72 L198.459,332" style="stroke:rgb(0,0,0);stroke-width:0.1;fill:none" />
  <path d="M198.459,332 L223.235,332" style="stroke:rgb(0,0,0);stroke-width:0.1;fill:none" />
  <path d="M241.591,299.72 L229.656,299.72" style="stroke:rgb(0,0,0);stroke-width:0.1;fill:none" />
  <path d="M229.656,299.72 L223.235,332" style="stroke:rgb(0,0,0);stroke-width:0.1;fill:none" />
  <path d="M241.591,299.72 L248.012,332" style="stroke:rgb(0,0,0);stroke-width:0.1;fill:none" />
  <path d="M248.012,332 L272.788,332" style="stroke:rgb(0,0,0);stroke-width:0.1;fill:none" />
  <path d="M291.144,299.72 L279.209,299.72" style="stroke:rgb(0,0,0);stroke-width:0.1;fill:none" />
  <path d="M279.209,299.72 L272.788,332" style="stroke:rgb(0,0,0);stroke-width:0.1;fill:none" />
  <path d="M291.144,299.72 L297.565,332" style="stroke:rgb(0,0,0);stroke-width:0.1;fill:none" />
  <path d="M297.565,332 L322.341,332" style="stroke:rgb(0,0,0);stroke-width:0.1;fill:none" />
  <path d="M340.697,299.72 L328.762,299.72" style="stroke:rgb(0,0,0);stroke-width:0.1;fill:none" />
  <path d="M328.762,299.72 L322.341,332" style="stroke:rgb(0,0,0);stroke-width:0.1;fill:none" />
  <path d="M340.697,299.72 L347.118,332" style="stroke:rgb(0,0,0);stroke-width:0.1;fill:none" />
  <path d="M347.118,332 L371.894,332" style="stroke:rgb(0,0,0);stroke-width:0.1;fill:none" />
  <path d="M390.25,299.72 L378.315,299.72" style="stroke:rgb(0,0,0);stroke-width:0.1;fill:none" />
  <path d="M378.315,299.72 L371.894,332" style="stroke:rgb(0,0,0);stroke-width:0.1;fill:none" />
  <path d="M390.25,299.72 L396.671,332" style="stroke:rgb(0,0,0);stroke-width:0.1;fill:none" />
  <path d="M396.671,332 L421.447,332" style="stroke:rgb(0,0,0);stroke-width:0.1;fill:none" />
  <path d="M439.803,299.72 L427.868,299.72" style="stroke:rgb(0,0,0);stroke-width:0.1;fill:none" />
  <path d="M427.868,299.72 L421.447,332" style="stroke:rgb(0,0,0);stroke-width:0.1;fill:none" />
  <path d="M439.803,299.72 L446.224,332" style="stroke:rgb(0,0,0);stroke-width:0.1;fill:none" />
  <path d="M59.8,332 L74.5765,332" style="stroke:rgb(0,0,0);stroke-width:0.1;fill:none" />
  <path d="M92.9321,464.28 L80.9973,464.28" style="stroke:rgb(0,0,0);stroke-width:0.1;fill:none" />
  <path d="M80.9973,464.28 L74.5765,432" style="stroke:rgb(0,0,0);stroke-width:0.1;fill:none" />
  <path d="M92.9321,464.28 L99.3529,432" style="stroke:rgb(0,0,0);stroke-width:0.1;fill:none" />
  <path d="M99.3529,432 L124.129,432" style="stroke:rgb(0,0,0);stroke-width:0.1;fill:none" />
  <path d="M142.485,464.28 L130.55,464.28" style="stroke:rgb(0,0,0);stroke-width:0.1;fill:none" />
  <path d="M130.55,464.28 L124.129,432" style="stroke:rgb(0,0,0);stroke-width:0.1;fill:none" />
  <path d="M142.485,464.28 L148.906,432" style="stroke:rgb(0,0,0);stroke-width:0.1;fill:none" />
  <path d="M148.906,432 L173.682,432" style="stroke:rgb(0,0,0);stroke-width:0.1;fill:none" />
  <path d="M192.038,464.28 L180.103,464.28" style="stroke:rgb(0,0,0);stroke-width:0.1;fill:none" />
  <path d="M180.103,464.28 L173.682,432" style="stroke:rgb(0,0,0);stroke-width:0.1;fill:none" />
  <path d="M192.038,464.28 L198.459,432" style="stroke:rgb(0,0,0);stroke-width:0.1;fill:none" />
  <path d="M198.459,432 L223.235,432" style="stroke:rgb(0,0,0);stroke-width:0.1;fill:none" />
  <path d="M241.591,464.28 L229.656,464.28" style="stroke:rgb(0,0,0);stroke-width:0.1;fill:none" />
  <path d="M229.656,464.28 L223.235,432" style="stroke:rgb(0,0,0);stroke-width:0.1;fill:none" />
  <path d="M241.591,464.28 L248.012,432" style="stroke:rgb(0,0,0);stroke-width:0.1;fill:none" />
  <path d="M248.012,432 L272.788,432" style="stroke:rgb(0,0,0);stroke-width:0.1;fill:none" />
  <path d="M291.144,464.28 L279.209,464.28" style="stroke:rgb(0,0,0);stroke-width:0.1;fill:none" />
  <path d="M279.209,464.28 L272.788,432" style="stroke:rgb(0,0,0);stroke-width:0.1;fill:none" />
  <path d="M291.144,464.28 L297.565,432" style="stroke:rgb(0,0,0);stroke-width:0.1;fill:none" />
  <path d="M297.565,432 L322.341,432" style="stroke:rgb(0,0,0);stroke-width:0.1;fill:none" />
  <path d="M340.697,464.28 L328.762,464.28" style="stroke:rgb(0,0,0);stroke-width:0.1;fill:none" />
  <path d="M328.762,464.28 L322.341,432" style="stroke:rgb(0,0,0);stroke-width:0.1;fill:none" />
  <path d="M340.697,464.28 L347.118,432" style="stroke:rgb(0,0,0);stroke-width:0.1;fill:none" />
  <path d="M347.118,432 L371.894,432" style="stroke:rgb(0,0,0);stroke-width:0.1;fill:none" />
  <path d="M390.25,464.28 L378.315,464.28" style="stroke:rgb(0,0,0);stroke-width:0.1;fill:none" />
  <path d="M378.315,464.28 L371.894,432" style="stroke:rgb(0,0,0);stroke-width:0.1;fill:none" />
  <path d="M390.25,464.28 L396.671,432" style="stroke:rgb(0,0,0);stroke-width:0.1;fill:none" />
  <path d="M396.671,432 L421.447,432" style="stroke:rgb(0,0,0);stroke-width:0.1;fill:none" />
  <path d="M439.803,464.28 L427.868,464.28" style="stroke:rgb(0,0,0);stroke-width:0.1;fill:none" />
  <path d="M427.868,464.28 L421.447,432" style="stroke:rgb(0,0,0);stroke-width:0.1;fill:none" />
  <path d="M439.803,464.28 L446.224,432" style="stroke:rgb(0,0,0);stroke-width:0.1;fill:none" />
  <path d="M59.8,432 L74.5765,432" style="stroke:rgb(0,0,0);stroke-width:0.1;fill:none" />
  <path d="M59.8,332 L59.8,432" style="stroke:rgb(0,0,0);stroke-width:0.1;fill:none" />
  <path d="M74.5765,332 L74.5765,432" style="stroke:rgb(255,0,255);stroke-width:0.1;fill:none" />
  <path d="M99.3529,332 L99.3529,432" style="stroke:rgb(255,0,255);stroke-width:0.1;fill:none" />
  <path d="M124.129,332 L124.129,432" style="stroke:rgb(255,0,255);stroke-width:0.1;fill:none" />
  <path d="M148.906,332 L148.906,432" style="stroke:rgb(255,0,255);stroke-width:0.1;fill:none" />
  <path d="M173.682,332 L173.682,432" style="stroke:rgb(255,0,255);stroke-width:0.1;fill:none" />
  <path d="M198.459,332 L198.459,432" style="stroke:rgb(255,0,255);stroke-width:0.1;fill:none" />
  <path d="M223.235,332 L223.235,432" style="stroke:rgb(255,0,255);stroke-width:0.1;fill:none" />
  <path d="M248.012,332 L248.012,432" style="stroke:rgb(255,0,255);stroke-width:0.1;fill:none" />
  <path d="M272.788,332 L272.788,432" style="stroke:rgb(255,0,255);stroke-width:0.1;fill:none" />
  <path d="M297.565,332 L297.565,432" style="stroke:rgb(255,0,255);stroke-width:0.1;fill:none" />
  <path d="M322.341,332 L322.341,432" style="stroke:rgb(255,0,255);stroke-width:0.1;fill:none" />
  <path d="M347.118,332 L347.118,432" style="stroke:rgb(255,0,255);stroke-width:0.1;fill:none" />
  <path d="M371.894,332 L371.894,432" style="stroke:rgb(255,0,255);stroke-width:0.1;fill:none" />
  <path d="M396.671,332 L396.671,432" style="stroke:rgb(255,0,255);stroke-width:0.1;fill:none" />
  <path d="M421.447,332 L421.447,432" style="stroke:rgb(255,0,255);stroke-width:0.1;fill:none" />
  <path d="M446.224,332 L446.224,432" style="stroke:rgb(255,0,255);stroke-width:0.1;fill:none" />
  <path d="M131,73.5 L131,68.5" style="stroke:rgb(0,0,0);stroke-width:0.1;fill:none" />
  <path d="M153.387,77.953 L155.3,73.3336" style="stroke:rgb(0,0,0);stroke-width:0.1;fill:none" />
  <path d="M172.366,90.6343 L175.901,87.0987" style="stroke:rgb(0,0,0);stroke-width:0.1;fill:none" />
  <path d="M185.047,109.613 L189.666,107.7" style="stroke:rgb(0,0,0);stroke-width:0.1;fill:none" />
  <path d="M189.5,132 L194.5,132" style="stroke:rgb(0,0,0);stroke-width:0.1;fill:none" />
  <path d="M185.047,154.387 L189.666,156.3" style="stroke:rgb(0,0,0);stroke-width:0.1;fill:none" />
  <path d="M172.366,173.366 L175.901,176.901" style="stroke:rgb(0,0,0);stroke-width:0.1;fill:none" />
  <path d="M153.387,186.047 L155.3,190.666" style="stroke:rgb(0,0,0);stroke-width:0.1;fill:none" />
  <path d="M131,190.5 L131,195.5" style="stroke:rgb(0,0,0);stroke-width:0.1;fill:none" />
  <path d="M108.613,186.047 L106.7,190.666" style="stroke:rgb(0,0,0);stroke-width:0.1;fill:none" />
  <path d="M76.953,109.613 L72.3336,107.7" style="stroke:rgb(0,0,0);stroke-width:0.1;fill:none" />
  <path d="M89.6343,90.6343 L86.0987,87.0987" style="stroke:rgb(0,0,0);stroke-width:0.1;fill:none" />
  <path d="M108.613,77.953 L106.7,73.3336" style="stroke:rgb(0,0,0);stroke-width:0.1;fill:none" />
  <path d="M72.5,132 L67.5,132" style="stroke:rgb(0,0,0);stroke-width:0.1;fill:none" />
  <path d="M76.953,154.387 L72.3336,156.3" style="stroke:rgb(0,0,0);stroke-width:0.1;fill:none" />
  <path d="M89.6343,173.366 L86.0987,176.901" style="stroke:rgb(0,0,0);stroke-width:0.1;fill:none" />
  <path d="M189.5,132 A58.5,58.5 0 0,0 185.047,109.613 " style="stroke:rgb(0,0,0);stroke-width:0.1;fill:none" />
  <path d="M172.366,90.6343 A58.5,58.5 0 0,0 153.387,77.953 " style="stroke:rgb(0,0,0);stroke-width:0.1;fill:none" />
  <path d="M131,73.5 A58.5,58.5 0 0,0 108.613,77.953 " style="stroke:rgb(0,0,0);stroke-width:0.1;fill:none" />
  <path d="M89.6343,90.6343 A58.5,58.5 0 0,0 76.953,109.613 " style="stroke:rgb(0,0,0);stroke-width:0.1;fill:none" />
  <path d="M72.5,132 A58.5,58.5 0 0,0 76.953,154.387 " style="stroke:rgb(0,0,0);stroke-width:0.1;fill:none" />
  <path d="M89.6343,173.366 A58.5,58.5 0 0,0 108.613,186.047 " style="stroke:rgb(0,0,0);stroke-width:0.1;fill:none" />
  <path d="M131,190.5 A58.5,58.5 0 0,0 153.387,186.047 " style="stroke:rgb(0,0,0);stroke-width:0.1;fill:none" />
  <path d="M172.366,173.366 A58.5,58.5 0 0,0 185.047,154.387 " style="stroke:rgb(0,0,0);stroke-width:0.1;fill:none" />
  <path d="M175.901,87.0987 A63.5,63.5 0 0,0 155.3,73.3336 " style="stroke:rgb(0,0,0);stroke-width:0.1;fill:none" />
  <path d="M131,68.5 A63.5,63.5 0 0,0 106.7,73.3336 " style="stroke:rgb(0,0,0);stroke-width:0.1;fill:none" />
  <path d="M86.0987,87.0987 A63.5,63.5 0 0,0 72.3336,107.7 " style="stroke:rgb(0,0,0);stroke-width:0.1;fill:none" />
  <path d="M67.5,132 A63.5,63.5 0 0,0 72.3336,156.3 " style="stroke:rgb(0,0,0);stroke-width:0.1;fill:none" />
  <path d="M86.0987,176.901 A63.5,63.5 0 0,0 106.7,190.666 " style="stroke:rgb(0,0,0);stroke-width:0.1;fill:none" />
  <path d="M131,195.5 A63.5,63.5 0 0,0 155.3,190.666 " style="stroke:rgb(0,0,0);stroke-width:0.1;fill:none" />
  <path d="M175.901,176.901 A63.5,63.5 0 0,0 189.666,156.3 " style="stroke:rgb(0,0,0);stroke-width:0.1;fill:none" />
  <path d="M194.5,132 A63.5,63.5 0 0,0 189.666,107.7 " style="stroke:rgb(0,0,0);stroke-width:0.1;fill:none" />
  <path d="M131,87 L131,82" style="stroke:rgb(0,0,0);stroke-width:0.1;fill:none" />
  <path d="M148.221,90.4254 L150.134,85.806" style="stroke:rgb(0,0,0);stroke-width:0.1;fill:none" />
  <path d="M113.779,90.4254 L111.866,85.806" style="stroke:rgb(0,0,0);stroke-width:0.1;fill:none" />
  <path d="M99.1802,100.18 L95.6447,96.6447" style="stroke:rgb(0,0,0);stroke-width:0.1;fill:none" />
  <path d="M89.4254,114.779 L84.806,112.866" style="stroke:rgb(0,0,0);stroke-width:0.1;fill:none" />
  <path d="M86,132 L81,132" style="stroke:rgb(0,0,0);stroke-width:0.1;fill:none" />
  <path d="M89.4254,149.221 L84.806,151.134" style="stroke:rgb(0,0,0);stroke-width:0.1;fill:none" />
  <path d="M99.1802,163.82 L95.6447,167.355" style="stroke:rgb(0,0,0);stroke-width:0.1;fill:none" />
  <path d="M113.779,173.575 L111.866,178.194" style="stroke:rgb(0,0,0);stroke-width:0.1;fill:none" />
  <path d="M131,177 L131,182" style="stroke:rgb(0,0,0);stroke-width:0.1;fill:none" />
  <path d="M148.221,173.575 L150.134,178.194" style="stroke:rgb(0,0,0);stroke-width:0.1;fill:none" />
  <path d="M162.82,163.82 L166.355,167.355" style="stroke:rgb(0,0,0);stroke-width:0.1;fill:none" />
  <path d="M172.575,149.221 L177.194,151.134" style="stroke:rgb(0,0,0);stroke-width:0.1;fill:none" />
  <path d="M176,132 L181,132" style="stroke:rgb(0,0,0);stroke-width:0.1;fill:none" />
  <path d="M172.575,114.779 L177.194,112.866" style="stroke:rgb(0,0,0);stroke-width:0.1;fill:none" />
  <path d="M162.82,100.18 L166.355,96.6447" style="stroke:rgb(0,0,0);stroke-width:0.1;fill:none" />
  <path d="M181,132 A50,50 0 0,0 177.194,112.866 " style="stroke:rgb(0,0,0);stroke-width:0.1;fill:none" />
  <path d="M176,132 A45,45 0 0,0 172.575,114.779 " style="stroke:rgb(0,0,0);stroke-width:0.1;fill:none" />
  <path d="M166.355,96.6447 A50,50 0 0,0 150.134,85.806 " style="stroke:rgb(0,0,0);stroke-width:0.1;fill:none" />
  <path d="M162.82,100.18 A45,45 0 0,0 148.221,90.4254 " style="stroke:rgb(0,0,0);stroke-width:0.1;fill:none" />
  <path d="M131,82 A50,50 0 0,0 111.866,85.806 " style="stroke:rgb(0,0,0);stroke-width:0.1;fill:none" />
  <path d="M131,87 A45,45 0 0,0 113.779,90.4254 " style="stroke:rgb(0,0,0);stroke-width:0.1;fill:none" />
  <path d="M95.6447,96.6447 A50,50 0 0,0 84.806,112.866 " style="stroke:rgb(0,0,0);stroke-width:0.1;fill:none" />
  <path d="M99.1802,100.18 A45,45 0 0,0 89.4254,114.779 " style="stroke:rgb(0,0,0);stroke-width:0.1;fill:none" />
  <path d="M81,132 A50,50 0 0,0 84.806,151.134 " style="stroke:rgb(0,0,0);stroke-width:0.1;fill:none" />
  <path d="M86,132 A45,45 0 0,0 89.4254,149.221 " style="stroke:rgb(0,0,0);stroke-width:0.1;fill:none" />
  <path d="M95.6447,167.355 A50,50 0 0,0 111.866,178.194 " style="stroke:rgb(0,0,0);stroke-width:0.1;fill:none" />
  <path d="M99.1802,163.82 A45,45 0 0,0 113.779,173.575 " style="stroke:rgb(0,0,0);stroke-width:0.1;fill:none" />
  <path d="M131,177 A45,45 0 0,0 148.221,173.575 " style="stroke:rgb(0,0,0);stroke-width:0.1;fill:none" />
  <path d="M162.82,163.82 A45,45 0 0,0 172.575,149.221 " style="stroke:rgb(0,0,0);stroke-width:0.1;fill:none" />
  <path d="M131,182 A50,50 0 0,0 150.134,178.194 " style="stroke:rgb(0,0,0);stroke-width:0.1;fill:none" />
  <path d="M166.355,167.355 A50,50 0 0,0 177.194,151.134 " style="stroke:rgb(0,0,0);stroke-width:0.1;fill:none" />
  <ellipse cx="131" cy="132" rx="130" ry="130" style="stroke:rgb(0,0,0);stroke-width:0.1;fill:none;"/>
  <ellipse cx="131" cy="132" rx="4" ry="4" style="stroke:rgb(0,0,0);stroke-width:0.1;fill:none;"/>
  <ellipse cx="411" cy="132" rx="130" ry="130" style="stroke:rgb(0,0,0);stroke-width:0.1;fill:none;"/>
  <ellipse cx="411" cy="132" rx="63.5" ry="63.5" style="stroke:rgb(0,0,0);stroke-width:0.1;fill:none;"/>
  <path d="M466,332 L466,432" style="stroke:rgb(0,0,0);stroke-width:0.1;fill:none" />
  <path d="M446.224,332 L466,332" style="stroke:rgb(0,0,0);stroke-width:0.1;fill:none" />
  <path d="M446.224,432 L466,432" style="stroke:rgb(0,0,0);stroke-width:0.1;fill:none" />
  <ellipse cx="81" cy="362" rx="1.2" ry="1.2" style="stroke:rgb(0,0,0);stroke-width:0.1;fill:none;"/>
</svg>
