999
dxflib 2.2.0.0
  0
SECTION
  2
HEADER
  9
$ACADVER
  1
AC1015
  9
$HANDSEED
  5
FFFF
  9
$DIMASZ
 40
2.5
  9
$PLIMMIN
 10
0.0
 20
0.0
  9
$DIMEXE
 40
1.25
  9
$DIMGAP
 40
0.625
  9
$PLIMMAX
 10
210.0
 20
297.0
  9
$INSUNITS
 70
4
  9
$DIMEXO
 40
0.625
  9
$DIMTXT
 40
2.5
  9
$CLAYER
  8
boundries
  0
ENDSEC
  0
SECTION
  2
TABLES
  0
TABLE
  2
VPORT
  5
8
100
AcDbSymbolTable
 70
1
  0
VPORT
  5
30
100
AcDbSymbolTableRecord
100
AcDbViewportTableRecord
  2
*Active
 70
0
 10
0.0
 20
0.0
 11
1.0
 21
1.0
 12
286.3055555555554861
 22
148.5
 13
0.0
 23
0.0
 14
10.0
 24
10.0
 15
10.0
 25
10.0
 16
0.0
 26
0.0
 36
1.0
 17
0.0
 27
0.0
 37
0.0
 40
297.0
 41
1.92798353909465
 42
50.0
 43
0.0
 44
0.0
 50
0.0
 51
0.0
 71
0
 72
100
 73
1
 74
3
 75
1
 76
1
 77
0
 78
0
281
0
 65
1
110
0.0
120
0.0
130
0.0
111
1.0
121
0.0
131
0.0
112
0.0
122
1.0
132
0.0
 79
0
146
0.0
  0
ENDTAB
  0
TABLE
  2
LTYPE
  5
5
100
AcDbSymbolTable
 70
21
  0
LTYPE
  5
14
100
AcDbSymbolTableRecord
100
AcDbLinetypeTableRecord
  2
ByBlock
 70
0
  3

 72
65
 73
0
 40
0.0
  0
LTYPE
  5
15
100
AcDbSymbolTableRecord
100
AcDbLinetypeTableRecord
  2
ByLayer
 70
0
  3

 72
65
 73
0
 40
0.0
  0
LTYPE
  5
16
100
AcDbSymbolTableRecord
100
AcDbLinetypeTableRecord
  2
CONTINUOUS
 70
0
  3
Solid line
 72
65
 73
0
 40
0.0
  0
LTYPE
  5
31
100
AcDbSymbolTableRecord
100
AcDbLinetypeTableRecord
  2
DOT
 70
0
  3
Dot . . . . . . . . . . . . . . . . . . . . . .
 72
65
 73
2
 40
6.3499999999999996
 49
0.0
 74
0
 49
-6.3499999999999996
 74
0
  0
LTYPE
  5
32
100
AcDbSymbolTableRecord
100
AcDbLinetypeTableRecord
  2
DOT2
 70
0
  3
Dot (.5x) .....................................
 72
65
 73
2
 40
3.1749999999999998
 49
0.0
 74
0
 49
-3.1749999999999998
 74
0
  0
LTYPE
  5
33
100
AcDbSymbolTableRecord
100
AcDbLinetypeTableRecord
  2
DOTX2
 70
0
  3
Dot (2x) .  .  .  .  .  .  .  .  .  .  .  .  .
 72
65
 73
2
 40
12.6999999999999993
 49
0.0
 74
0
 49
-12.6999999999999993
 74
0
  0
LTYPE
  5
34
100
AcDbSymbolTableRecord
100
AcDbLinetypeTableRecord
  2
DASHED
 70
0
  3
Dashed __ __ __ __ __ __ __ __ __ __ __ __ __ _
 72
65
 73
2
 40
19.0500000000000007
 49
12.6999999999999993
 74
0
 49
-6.3499999999999996
 74
0
  0
LTYPE
  5
35
100
AcDbSymbolTableRecord
100
AcDbLinetypeTableRecord
  2
DASHED2
 70
0
  3
Dashed (.5x) _ _ _ _ _ _ _ _ _ _ _ _ _ _ _ _ _
 72
65
 73
2
 40
9.5250000000000004
 49
6.3499999999999996
 74
0
 49
-3.1749999999999998
 74
0
  0
LTYPE
  5
36
100
AcDbSymbolTableRecord
100
AcDbLinetypeTableRecord
  2
DASHEDX2
 70
0
  3
Dashed (2x) ____  ____  ____  ____  ____  ___
 72
65
 73
2
 40
38.1000000000000014
 49
25.3999999999999986
 74
0
 49
-12.6999999999999993
 74
0
  0
LTYPE
  5
37
100
AcDbSymbolTableRecord
100
AcDbLinetypeTableRecord
  2
DASHDOT
 70
0
  3
Dash dot __ . __ . __ . __ . __ . __ . __ . __
 72
65
 73
4
 40
25.3999999999999986
 49
12.6999999999999993
 74
0
 49
-6.3499999999999996
 74
0
 49
0.0
 74
0
 49
-6.3499999999999996
 74
0
  0
LTYPE
  5
38
100
AcDbSymbolTableRecord
100
AcDbLinetypeTableRecord
  2
DASHDOT2
 70
0
  3
Dash dot (.5x) _._._._._._._._._._._._._._._.
 72
65
 73
4
 40
12.6999999999999993
 49
6.3499999999999996
 74
0
 49
-3.1749999999999998
 74
0
 49
0.0
 74
0
 49
-3.1749999999999998
 74
0
  0
LTYPE
  5
39
100
AcDbSymbolTableRecord
100
AcDbLinetypeTableRecord
  2
DASHDOTX2
 70
0
  3
Dash dot (2x) ____  .  ____  .  ____  .  ___
 72
65
 73
4
 40
50.7999999999999972
 49
25.3999999999999986
 74
0
 49
-12.6999999999999993
 74
0
 49
0.0
 74
0
 49
-12.6999999999999993
 74
0
  0
LTYPE
  5
3A
100
AcDbSymbolTableRecord
100
AcDbLinetypeTableRecord
  2
DIVIDE
 70
0
  3
Divide ____ . . ____ . . ____ . . ____ . . ____
 72
65
 73
6
 40
31.75
 49
12.6999999999999993
 74
0
 49
-6.3499999999999996
 74
0
 49
0.0
 74
0
 49
-6.3499999999999996
 74
0
 49
0.0
 74
0
 49
-6.3499999999999996
 74
0
  0
LTYPE
  5
3B
100
AcDbSymbolTableRecord
100
AcDbLinetypeTableRecord
  2
DIVIDE2
 70
0
  3
Divide (.5x) __..__..__..__..__..__..__..__.._
 72
65
 73
6
 40
15.875
 49
6.3499999999999996
 74
0
 49
-3.1749999999999998
 74
0
 49
0.0
 74
0
 49
-3.1749999999999998
 74
0
 49
0.0
 74
0
 49
-3.1749999999999998
 74
0
  0
LTYPE
  5
3C
100
AcDbSymbolTableRecord
100
AcDbLinetypeTableRecord
  2
DIVIDEX2
 70
0
  3
Divide (2x) ________  .  .  ________  .  .  _
 72
65
 73
6
 40
63.5
 49
25.3999999999999986
 74
0
 49
-12.6999999999999993
 74
0
 49
0.0
 74
0
 49
-12.6999999999999993
 74
0
 49
0.0
 74
0
 49
-12.6999999999999993
 74
0
  0
LTYPE
  5
3D
100
AcDbSymbolTableRecord
100
AcDbLinetypeTableRecord
  2
CENTER
 70
0
  3
Center ____ _ ____ _ ____ _ ____ _ ____ _ ____
 72
65
 73
4
 40
50.7999999999999972
 49
31.75
 74
0
 49
-6.3499999999999996
 74
0
 49
6.3499999999999996
 74
0
 49
-6.3499999999999996
 74
0
  0
LTYPE
  5
3E
100
AcDbSymbolTableRecord
100
AcDbLinetypeTableRecord
  2
CENTER2
 70
0
  3
Center (.5x) ___ _ ___ _ ___ _ ___ _ ___ _ ___
 72
65
 73
4
 40
28.5749999999999993
 49
19.0500000000000007
 74
0
 49
-3.1749999999999998
 74
0
 49
3.1749999999999998
 74
0
 49
-3.1749999999999998
 74
0
  0
LTYPE
  5
3F
100
AcDbSymbolTableRecord
100
AcDbLinetypeTableRecord
  2
CENTERX2
 70
0
  3
Center (2x) ________  __  ________  __  _____
 72
65
 73
4
 40
101.5999999999999943
 49
63.5
 74
0
 49
-12.6999999999999993
 74
0
 49
12.6999999999999993
 74
0
 49
-12.6999999999999993
 74
0
  0
LTYPE
  5
40
100
AcDbSymbolTableRecord
100
AcDbLinetypeTableRecord
  2
BORDER
 70
0
  3
Border __ __ . __ __ . __ __ . __ __ . __ __ .
 72
65
 73
6
 40
44.4500000000000028
 49
12.6999999999999993
 74
0
 49
-6.3499999999999996
 74
0
 49
12.6999999999999993
 74
0
 49
-6.3499999999999996
 74
0
 49
0.0
 74
0
 49
-6.3499999999999996
 74
0
  0
LTYPE
  5
41
100
AcDbSymbolTableRecord
100
AcDbLinetypeTableRecord
  2
BORDER2
 70
0
  3
Border (.5x) __.__.__.__.__.__.__.__.__.__.__.
 72
65
 73
6
 40
22.2250000000000014
 49
6.3499999999999996
 74
0
 49
-3.1749999999999998
 74
0
 49
6.3499999999999996
 74
0
 49
-3.1749999999999998
 74
0
 49
0.0
 74
0
 49
-3.1749999999999998
 74
0
  0
LTYPE
  5
42
100
AcDbSymbolTableRecord
100
AcDbLinetypeTableRecord
  2
BORDERX2
 70
0
  3
Border (2x) ____  ____  .  ____  ____  .  ___
 72
65
 73
6
 40
88.9000000000000057
 49
25.3999999999999986
 74
0
 49
-12.6999999999999993
 74
0
 49
25.3999999999999986
 74
0
 49
-12.6999999999999993
 74
0
 49
0.0
 74
0
 49
-12.6999999999999993
 74
0
  0
ENDTAB
  0
TABLE
  2
LAYER
  5
2
100
AcDbSymbolTable
 70
11
  0
LAYER
  5
10
100
AcDbSymbolTableRecord
100
AcDbLayerTableRecord
  2
0
 70
0
 62
7
420
0
  6
CONTINUOUS
370
25
390
F
  0
LAYER
  5
43
100
AcDbSymbolTableRecord
100
AcDbLayerTableRecord
  2
cuts
 70
0
 62
7
420
0
  6
CONTINUOUS
370
0
390
F
  0
LAYER
  5
44
100
AcDbSymbolTableRecord
100
AcDbLayerTableRecord
  2
main-deck
 70
0
 62
7
420
0
  6
CONTINUOUS
370
0
390
F
  0
LAYER
  5
45
100
AcDbSymbolTableRecord
100
AcDbLayerTableRecord
  2
side
 70
0
 62
7
420
0
  6
CONTINUOUS
370
0
390
F
  0
LAYER
  5
46
100
AcDbSymbolTableRecord
100
AcDbLayerTableRecord
  2
rib
 70
0
 62
7
420
0
  6
CONTINUOUS
370
0
390
F
  0
LAYER
  5
47
100
AcDbSymbolTableRecord
100
AcDbLayerTableRecord
  2
rod-support
 70
0
 62
7
420
0
  6
CONTINUOUS
370
0
390
F
  0
LAYER
  5
48
100
AcDbSymbolTableRecord
100
AcDbLayerTableRecord
  2
rod-backplate
 70
0
 62
7
420
0
  6
CONTINUOUS
370
0
390
F
  0
LAYER
  5
49
100
AcDbSymbolTableRecord
100
AcDbLayerTableRecord
  2
inner-clamp
 70
0
 62
7
420
0
  6
CONTINUOUS
370
0
390
F
  0
LAYER
  5
4A
100
AcDbSymbolTableRecord
100
AcDbLayerTableRecord
  2
text
 70
0
 62
4
420
65535
  6
CONTINUOUS
370
0
390
F
  0
LAYER
  5
4B
100
AcDbSymbolTableRecord
100
AcDbLayerTableRecord
  2
boundries
 70
0
 62
3
420
65280
  6
CONTINUOUS
370
0
390
F
  0
LAYER
  5
4C
100
AcDbSymbolTableRecord
100
AcDbLayerTableRecord
  2
build-platform
 70
0
 62
7
420
0
  6
CONTINUOUS
370
0
390
F
  0
ENDTAB
  0
TABLE
  2
STYLE
  5
3
100
AcDbSymbolTable
 70
1
  0
STYLE
  5
11
100
AcDbSymbolTableRecord
100
AcDbTextStyleTableRecord
  2
Standard
 70
0
 40
0.0
 41
0.75
 50
0.0
 71
0
 42
2.5
  3
txt
  4

  0
ENDTAB
  0
TABLE
  2
VIEW
  5
6
100
AcDbSymbolTable
 70
0
  0
ENDTAB
  0
TABLE
  2
UCS
  5
7
100
AcDbSymbolTable
 70
0
  0
ENDTAB
  0
TABLE
  2
APPID
  5
9
100
AcDbSymbolTable
 70
1
  0
APPID
  5
12
100
AcDbSymbolTableRecord
100
AcDbRegAppTableRecord
  2
ACAD
 70
0
  0
ENDTAB
  0
TABLE
  2
DIMSTYLE
  5
A
100
AcDbSymbolTable
 70
1
100
AcDbDimStyleTable
 71
0
  0
DIMSTYLE
105
27
100
AcDbSymbolTableRecord
100
AcDbDimStyleTableRecord
  2
Standard
 41
2.5
 42
0.625
 43
3.75
 44
1.25
 70
0
 73
0
 74
0
 77
1
 78
8
140
2.5
141
2.5
143
0.03937007874016
147
0.625
171
3
172
1
271
2
272
2
274
3
278
44
283
0
284
8
340
11
  0
ENDTAB
  0
TABLE
  2
BLOCK_RECORD
  5
1
100
AcDbSymbolTable
 70
1
  0
BLOCK_RECORD
  5
1F
100
AcDbSymbolTableRecord
100
AcDbBlockTableRecord
  2
*Model_Space
340
22
  0
BLOCK_RECORD
  5
1B
100
AcDbSymbolTableRecord
100
AcDbBlockTableRecord
  2
*Paper_Space
340
1E
  0
BLOCK_RECORD
  5
23
100
AcDbSymbolTableRecord
100
AcDbBlockTableRecord
  2
*Paper_Space0
340
26
  0
BLOCK_RECORD
  5
4D
100
AcDbSymbolTableRecord
100
AcDbBlockTableRecord
  2
nema17
340
0
  0
BLOCK_RECORD
  5
4E
100
AcDbSymbolTableRecord
100
AcDbBlockTableRecord
  2
tab
340
0
  0
BLOCK_RECORD
  5
4F
100
AcDbSymbolTableRecord
100
AcDbBlockTableRecord
  2
m3-t-slot
340
0
  0
BLOCK_RECORD
  5
50
100
AcDbSymbolTableRecord
100
AcDbBlockTableRecord
  2
slot
340
0
  0
ENDTAB
  0
ENDSEC
  0
SECTION
  2
BLOCKS
  0
BLOCK
  5
20
100
AcDbEntity
  8
0
100
AcDbBlockBegin
  2
*Model_Space
 70
0
 10
0.0
 20
0.0
 30
0.0
  3
*Model_Space
  1

  0
ENDBLK
  5
21
100
AcDbEntity
  8
0
100
AcDbBlockEnd
  0
BLOCK
  5
1C
100
AcDbEntity
 67
1
  8
0
100
AcDbBlockBegin
  2
*Paper_Space
 70
0
 10
0.0
 20
0.0
 30
0.0
  3
*Paper_Space
  1

  0
ENDBLK
  5
1D
100
AcDbEntity
 67
1
  8
0
100
AcDbBlockEnd
  0
BLOCK
  5
24
100
AcDbEntity
  8
0
100
AcDbBlockBegin
  2
*Paper_Space0
 70
0
 10
0.0
 20
0.0
 30
0.0
  3
*Paper_Space0
  1

  0
ENDBLK
  5
25
100
AcDbEntity
  8
0
100
AcDbBlockEnd
  0
BLOCK
  5
51
100
AcDbEntity
  8
0
100
AcDbBlockBegin
  2
nema17
 70
0
 10
0.0
 20
0.0
 30
0.0
  3
nema17
  1

  0
CIRCLE
  5
52
100
AcDbEntity
100
AcDbCircle
  8
cuts
 62
256
370
-1
  6
ByLayer
 10
0.0000000000000051
 20
0.0
 30
0.0
 40
11.0
  0
CIRCLE
  5
53
100
AcDbEntity
100
AcDbCircle
  8
cuts
 62
256
370
-1
  6
ByLayer
 10
15.495000000000001
 20
15.4949999999999939
 30
0.0
 40
1.5
  0
CIRCLE
  5
54
100
AcDbEntity
100
AcDbCircle
  8
cuts
 62
256
370
-1
  6
ByLayer
 10
15.4949999999999974
 20
-15.4950000000000028
 30
0.0
 40
1.5
  0
CIRCLE
  5
55
100
AcDbEntity
100
AcDbCircle
  8
cuts
 62
256
370
-1
  6
ByLayer
 10
-15.4950000000000045
 20
-15.4949999999999868
 30
0.0
 40
1.5
  0
CIRCLE
  5
56
100
AcDbEntity
100
AcDbCircle
  8
cuts
 62
256
370
-1
  6
ByLayer
 10
-15.4949999999999992
 20
15.495000000000001
 30
0.0
 40
1.5
  0
ENDBLK
  5
57
100
AcDbEntity
  8
0
100
AcDbBlockEnd
  0
BLOCK
  5
58
100
AcDbEntity
  8
0
100
AcDbBlockBegin
  2
tab
 70
0
 10
0.0
 20
0.0
 30
0.0
  3
tab
  1

  0
LINE
  5
59
100
AcDbEntity
100
AcDbLine
  8
cuts
 62
256
370
-1
  6
ByLayer
 10
-5.0
 20
5.0
 30
0.0
 11
-5.0
 21
0.0
 31
0.0
  0
LINE
  5
5A
100
AcDbEntity
100
AcDbLine
  8
cuts
 62
256
370
-1
  6
ByLayer
 10
5.0
 20
0.0
 30
0.0
 11
5.0
 21
5.0
 31
0.0
  0
LINE
  5
5B
100
AcDbEntity
100
AcDbLine
  8
cuts
 62
256
370
-1
  6
ByLayer
 10
-5.0
 20
5.0
 30
0.0
 11
5.0
 21
5.0
 31
0.0
  0
ENDBLK
  5
5C
100
AcDbEntity
  8
0
100
AcDbBlockEnd
  0
BLOCK
  5
5D
100
AcDbEntity
  8
0
100
AcDbBlockBegin
  2
m3-t-slot
 70
0
 10
0.0
 20
0.0
 30
0.0
  3
m3-t-slot
  1

  0
LINE
  5
5E
100
AcDbEntity
100
AcDbLine
  8
cuts
 62
256
370
-1
  6
ByLayer
 10
-1.4999999999999978
 20
0.0000000000000009
 30
0.0
 11
-1.5000000000000004
 21
3.330000000000001
 31
0.0
  0
LINE
  5
5F
100
AcDbEntity
100
AcDbLine
  8
cuts
 62
256
370
-1
  6
ByLayer
 10
-1.5000000000000004
 20
3.330000000000001
 30
0.0
 11
-2.6599999999999944
 21
3.3299999999999974
 31
0.0
  0
LINE
  5
60
100
AcDbEntity
100
AcDbLine
  8
cuts
 62
256
370
-1
  6
ByLayer
 10
-2.6599999999999944
 20
3.3299999999999974
 30
0.0
 11
-2.6599999999999944
 21
5.4999999999999991
 31
0.0
  0
LINE
  5
61
100
AcDbEntity
100
AcDbLine
  8
cuts
 62
256
370
-1
  6
ByLayer
 10
-2.6599999999999944
 20
5.4999999999999991
 30
0.0
 11
-1.4999999999999996
 21
5.5000000000000009
 31
0.0
  0
LINE
  5
62
100
AcDbEntity
100
AcDbLine
  8
cuts
 62
256
370
-1
  6
ByLayer
 10
1.5000000000000036
 20
5.4999999999999991
 30
0.0
 11
2.6599999999999988
 21
5.4999999999999973
 31
0.0
  0
LINE
  5
63
100
AcDbEntity
100
AcDbLine
  8
cuts
 62
256
370
-1
  6
ByLayer
 10
2.6599999999999988
 20
5.4999999999999973
 30
0.0
 11
2.6599999999999961
 21
3.3299999999999974
 31
0.0
  0
LINE
  5
64
100
AcDbEntity
100
AcDbLine
  8
cuts
 62
256
370
-1
  6
ByLayer
 10
2.6599999999999961
 20
3.3299999999999974
 30
0.0
 11
1.5000000000000009
 21
3.3299999999999956
 31
0.0
  0
LINE
  5
65
100
AcDbEntity
100
AcDbLine
  8
cuts
 62
256
370
-1
  6
ByLayer
 10
1.5000000000000009
 20
3.3299999999999956
 30
0.0
 11
1.4999999999999978
 21
-0.0000000000000009
 31
0.0
  0
LINE
  5
66
100
AcDbEntity
100
AcDbLine
  8
cuts
 62
256
370
-1
  6
ByLayer
 10
-1.4999999999999978
 20
7.4999999999999991
 30
0.0
 11
1.5000000000000058
 21
7.4999999999999991
 31
0.0
  0
LINE
  5
67
100
AcDbEntity
100
AcDbLine
  8
cuts
 62
256
370
-1
  6
ByLayer
 10
-1.4999999999999996
 20
5.5000000000000009
 30
0.0
 11
-1.4999999999999978
 21
7.4999999999999991
 31
0.0
  0
LINE
  5
68
100
AcDbEntity
100
AcDbLine
  8
cuts
 62
256
370
-1
  6
ByLayer
 10
1.5000000000000058
 20
7.4999999999999991
 30
0.0
 11
1.5000000000000036
 21
5.4999999999999991
 31
0.0
  0
ENDBLK
  5
69
100
AcDbEntity
  8
0
100
AcDbBlockEnd
  0
BLOCK
  5
6A
100
AcDbEntity
  8
0
100
AcDbBlockBegin
  2
slot
 70
0
 10
0.0
 20
0.0
 30
0.0
  3
slot
  1

  0
LINE
  5
6B
100
AcDbEntity
100
AcDbLine
  8
cuts
 62
256
370
-1
  6
ByLayer
 10
-2.5
 20
4.9500000000000002
 30
0.0
 11
2.5
 21
4.9499999999999993
 31
0.0
  0
LINE
  5
6C
100
AcDbEntity
100
AcDbLine
  8
cuts
 62
256
370
-1
  6
ByLayer
 10
2.5
 20
4.9499999999999993
 30
0.0
 11
2.4999999999999996
 21
-4.9500000000000002
 31
0.0
  0
LINE
  5
6D
100
AcDbEntity
100
AcDbLine
  8
cuts
 62
256
370
-1
  6
ByLayer
 10
-2.5
 20
4.9500000000000002
 30
0.0
 11
-2.5
 21
-4.9500000000000002
 31
0.0
  0
LINE
  5
6E
100
AcDbEntity
100
AcDbLine
  8
cuts
 62
256
370
-1
  6
ByLayer
 10
-2.5
 20
-4.9500000000000002
 30
0.0
 11
2.4999999999999996
 21
-4.9500000000000002
 31
0.0
  0
ENDBLK
  5
6F
100
AcDbEntity
  8
0
100
AcDbBlockEnd
  0
ENDSEC
  0
SECTION
  2
ENTITIES
  0
LINE
  5
70
100
AcDbEntity
100
AcDbLine
  8
boundries
 62
256
370
-1
  6
ByLayer
 10
0.0
 20
0.0
 30
0.0
 11
292.0
 21
0.0
 31
0.0
  0
LINE
  5
71
100
AcDbEntity
100
AcDbLine
  8
boundries
 62
256
370
-1
  6
ByLayer
 10
292.0
 20
0.0
 30
0.0
 11
292.0
 21
292.0
 31
0.0
  0
LINE
  5
72
100
AcDbEntity
100
AcDbLine
  8
boundries
 62
256
370
-1
  6
ByLayer
 10
292.0
 20
292.0
 30
0.0
 11
0.0
 21
292.0
 31
0.0
  0
LINE
  5
73
100
AcDbEntity
100
AcDbLine
  8
boundries
 62
256
370
-1
  6
ByLayer
 10
0.0
 20
292.0
 30
0.0
 11
0.0
 21
0.0
 31
0.0
  0
ARC
  5
74
100
AcDbEntity
  8
side
 62
256
370
-1
  6
ByLayer
100
AcDbCircle
 10
11.2490882032387844
 20
11.9454249351343478
 30
0.0
 40
10.0
100
AcDbArc
 50
180.0
 51
270.0
  0
INSERT
  5
75
100
AcDbEntity
100
AcDbBlockReference
  8
side
 62
256
370
-1
  6
ByLayer
  2
tab
 10
35.2490882032388981
 20
146.9454249351343549
 30
0.0
 50
270.0
 44
1.0
 45
1.0
  0
INSERT
  5
76
100
AcDbEntity
100
AcDbBlockReference
  8
side
 62
256
370
-1
  6
ByLayer
  2
tab
 10
35.2490882032388981
 20
71.4454249351343833
 30
0.0
 50
270.0
 44
1.0
 45
1.0
  0
INSERT
  5
77
100
AcDbEntity
100
AcDbBlockReference
  8
side
 62
256
370
-1
  6
ByLayer
  2
m3-t-slot
 10
35.2490882032388981
 20
171.9454249351343549
 30
0.0
 50
90.0
 44
1.0
 45
1.0
  0
INSERT
  5
78
100
AcDbEntity
100
AcDbBlockReference
  8
side
 62
256
370
-1
  6
ByLayer
  2
m3-t-slot
 10
35.2490882032388413
 20
121.9454249351343833
 30
0.0
 50
90.0
 44
1.0
 45
1.0
  0
INSERT
  5
79
100
AcDbEntity
100
AcDbBlockReference
  8
side
 62
256
370
-1
  6
ByLayer
  2
m3-t-slot
 10
35.2490882032388413
 20
51.9454249351343478
 30
0.0
 50
90.0
 44
1.0
 45
1.0
  0
LINE
  5
7A
100
AcDbEntity
100
AcDbLine
  8
side
 62
256
370
-1
  6
ByLayer
 10
35.2490882032388981
 20
190.4454249351343833
 30
0.0
 11
35.2490882032388981
 21
173.4454249351343549
 31
0.0
  0
LINE
  5
7B
100
AcDbEntity
100
AcDbLine
  8
side
 62
256
370
-1
  6
ByLayer
 10
35.2490882032388981
 20
170.4454249351343549
 30
0.0
 11
35.2490882032388981
 21
151.9454249351343549
 31
0.0
  0
LINE
  5
7C
100
AcDbEntity
100
AcDbLine
  8
side
 62
256
370
-1
  6
ByLayer
 10
35.2490882032388981
 20
141.9454249351343549
 30
0.0
 11
35.2490882032388981
 21
123.4454249351343833
 31
0.0
  0
LINE
  5
7D
100
AcDbEntity
100
AcDbLine
  8
side
 62
256
370
-1
  6
ByLayer
 10
35.2490882032388981
 20
120.4454249351343833
 30
0.0
 11
35.2490882032388981
 21
76.4454249351343549
 31
0.0
  0
LINE
  5
7E
100
AcDbEntity
100
AcDbLine
  8
side
 62
256
370
-1
  6
ByLayer
 10
35.2490882032388413
 20
66.4454249351344117
 30
0.0
 11
35.2490882032388981
 21
53.4454249351343194
 31
0.0
  0
LINE
  5
7F
100
AcDbEntity
100
AcDbLine
  8
side
 62
256
370
-1
  6
ByLayer
 10
35.2490882032388413
 20
50.4454249351343478
 30
0.0
 11
35.2490882032388981
 21
23.0254249351343603
 31
0.0
  0
INSERT
  5
80
100
AcDbEntity
100
AcDbBlockReference
  8
side
 62
256
370
-1
  6
ByLayer
  2
m3-t-slot
 10
49.429088203238905
 20
190.4454249351343833
 30
0.0
 44
1.0
 45
1.0
  0
INSERT
  5
81
100
AcDbEntity
100
AcDbBlockReference
  8
side
 62
256
370
-1
  6
ByLayer
  2
m3-t-slot
 10
49.4290882032388481
 20
23.0254249351343603
 30
0.0
 41
1.0
 42
-1.0
 43
1.0
 50
360.0
 44
1.0
 45
1.0
  0
LINE
  5
82
100
AcDbEntity
100
AcDbLine
  8
side
 62
256
370
-1
  6
ByLayer
 10
50.9290882032387913
 20
23.0254249351343603
 30
0.0
 11
67.929088203238905
 21
23.0254249351343603
 31
0.0
  0
LINE
  5
83
100
AcDbEntity
100
AcDbLine
  8
side
 62
256
370
-1
  6
ByLayer
 10
47.9290882032388481
 20
23.0254249351343887
 30
0.0
 11
35.2490882032388981
 21
23.0254249351343887
 31
0.0
  0
LINE
  5
84
100
AcDbEntity
100
AcDbLine
  8
side
 62
256
370
-1
  6
ByLayer
 10
35.2490882032388981
 20
190.4454249351343833
 30
0.0
 11
47.929088203238905
 21
190.4454249351343833
 31
0.0
  0
LINE
  5
85
100
AcDbEntity
100
AcDbLine
  8
side
 62
256
370
-1
  6
ByLayer
 10
50.9290882032388481
 20
190.4454249351343833
 30
0.0
 11
67.929088203238905
 21
190.4454249351343549
 31
0.0
  0
ARC
  5
86
100
AcDbEntity
  8
side
 62
256
370
-1
  6
ByLayer
100
AcDbCircle
 10
65.9290882032388481
 20
11.9454249351343194
 30
0.0
 40
10.0
100
AcDbArc
 50
270.0
 51
0.0
  0
ARC
  5
87
100
AcDbEntity
  8
side
 62
256
370
-1
  6
ByLayer
100
AcDbCircle
 10
11.249088203238955
 20
199.9454249351343265
 30
0.0
 40
10.0
100
AcDbArc
 50
90.0
 51
180.0
  0
ARC
  5
88
100
AcDbEntity
  8
side
 62
256
370
-1
  6
ByLayer
100
AcDbCircle
 10
65.929088203238905
 20
199.9454249351343549
 30
0.0
 40
10.0
100
AcDbArc
 50
0.0
 51
90.0
  0
CIRCLE
  5
89
100
AcDbEntity
100
AcDbCircle
  8
side
 62
256
370
-1
  6
ByLayer
 10
25.7490882032391255
 20
110.1954249351343833
 30
0.0
 40
1.5
  0
CIRCLE
  5
8A
100
AcDbEntity
100
AcDbCircle
  8
side
 62
256
370
-1
  6
ByLayer
 10
13.2490882032388413
 20
110.1954249351343833
 30
0.0
 40
1.5
  0
LINE
  5
8B
100
AcDbEntity
100
AcDbLine
  8
side
 62
256
370
-1
  6
ByLayer
 10
9.2490882032387844
 20
113.845424935134389
 30
0.0
 11
1.2490882032388413
 21
113.845424935134389
 31
0.0
  0
LINE
  5
8C
100
AcDbEntity
100
AcDbLine
  8
side
 62
256
370
-1
  6
ByLayer
 10
1.2490882032388413
 20
111.7454249351344231
 30
0.0
 11
9.2490882032387844
 21
111.7454249351344231
 31
0.0
  0
LINE
  5
8D
100
AcDbEntity
100
AcDbLine
  8
side
 62
256
370
-1
  6
ByLayer
 10
9.2490882032387844
 20
111.7454249351344231
 30
0.0
 11
9.2490882032387844
 21
113.845424935134389
 31
0.0
  0
LINE
  5
8E
100
AcDbEntity
100
AcDbLine
  8
side
 62
256
370
-1
  6
ByLayer
 10
1.249088203238955
 20
199.9454249351343265
 30
0.0
 11
1.2490882032388413
 21
113.845424935134389
 31
0.0
  0
LINE
  5
8F
100
AcDbEntity
100
AcDbLine
  8
side
 62
256
370
-1
  6
ByLayer
 10
1.2490882032388413
 20
111.7454249351344231
 30
0.0
 11
1.2490882032387844
 21
103.0454249351344345
 31
0.0
  0
LINE
  5
90
100
AcDbEntity
100
AcDbLine
  8
side
 62
256
370
-1
  6
ByLayer
 10
61.9290882032388481
 20
1.9454249351343194
 30
0.0
 11
61.9290882032388481
 21
11.9454249351343478
 31
0.0
  0
LINE
  5
91
100
AcDbEntity
100
AcDbLine
  8
side
 62
256
370
-1
  6
ByLayer
 10
61.9290882032388481
 20
11.9454249351343478
 30
0.0
 11
63.9290882032387913
 21
11.9454249351343194
 31
0.0
  0
LINE
  5
92
100
AcDbEntity
100
AcDbLine
  8
side
 62
256
370
-1
  6
ByLayer
 10
63.9290882032387913
 20
11.9454249351343194
 30
0.0
 11
63.9290882032389618
 21
1.9454249351343478
 31
0.0
  0
LINE
  5
93
100
AcDbEntity
100
AcDbLine
  8
side
 62
256
370
-1
  6
ByLayer
 10
61.929088203238905
 20
209.9454249351343549
 30
0.0
 11
61.929088203238905
 21
199.9454249351343833
 31
0.0
  0
LINE
  5
94
100
AcDbEntity
100
AcDbLine
  8
side
 62
256
370
-1
  6
ByLayer
 10
61.929088203238905
 20
199.9454249351343833
 30
0.0
 11
63.9290882032389618
 21
199.9454249351343549
 31
0.0
  0
LINE
  5
95
100
AcDbEntity
100
AcDbLine
  8
side
 62
256
370
-1
  6
ByLayer
 10
63.9290882032389618
 20
199.9454249351343549
 30
0.0
 11
63.9290882032389618
 21
209.9454249351343549
 31
0.0
  0
LINE
  5
96
100
AcDbEntity
100
AcDbLine
  8
side
 62
256
370
-1
  6
ByLayer
 10
65.929088203238905
 20
209.9454249351343549
 30
0.0
 11
63.9290882032389618
 21
209.9454249351343549
 31
0.0
  0
LINE
  5
97
100
AcDbEntity
100
AcDbLine
  8
side
 62
256
370
-1
  6
ByLayer
 10
61.929088203238905
 20
209.9454249351343549
 30
0.0
 11
11.249088203238955
 21
209.9454249351343549
 31
0.0
  0
LINE
  5
98
100
AcDbEntity
100
AcDbLine
  8
side
 62
256
370
-1
  6
ByLayer
 10
65.9290882032388481
 20
1.9454249351343194
 30
0.0
 11
63.9290882032389618
 21
1.9454249351343478
 31
0.0
  0
LINE
  5
99
100
AcDbEntity
100
AcDbLine
  8
side
 62
256
370
-1
  6
ByLayer
 10
61.9290882032388481
 20
1.9454249351343194
 30
0.0
 11
11.2490882032387844
 21
1.9454249351343194
 31
0.0
  0
LINE
  5
9A
100
AcDbEntity
100
AcDbLine
  8
side
 62
256
370
-1
  6
ByLayer
 10
1.2490882032387844
 20
54.6154249351343353
 30
0.0
 11
1.2490882032387844
 21
79.4454249351344117
 31
0.0
  0
LINE
  5
9B
100
AcDbEntity
100
AcDbLine
  8
side
 62
256
370
-1
  6
ByLayer
 10
1.2490882032387276
 20
11.9454249351343194
 30
0.0
 11
1.2490882032387844
 21
44.6154249351343353
 31
0.0
  0
ARC
  5
9C
100
AcDbEntity
  8
side
 62
256
370
-1
  6
ByLayer
100
AcDbCircle
 10
6.2490882032387844
 20
49.6154249351343353
 30
0.0
 40
5.0
100
AcDbArc
 50
270.0
 51
90.0
  0
LINE
  5
9D
100
AcDbEntity
100
AcDbLine
  8
side
 62
256
370
-1
  6
ByLayer
 10
1.2490882032387844
 20
54.6154249351343353
 30
0.0
 11
6.2490882032387844
 21
54.6154249351343637
 31
0.0
  0
LINE
  5
9E
100
AcDbEntity
100
AcDbLine
  8
side
 62
256
370
-1
  6
ByLayer
 10
6.2490882032387844
 20
44.6154249351343637
 30
0.0
 11
1.2490882032387844
 21
44.6154249351343353
 31
0.0
  0
CIRCLE
  5
9F
100
AcDbEntity
100
AcDbCircle
  8
side
 62
256
370
-1
  6
ByLayer
 10
21.7490882032390118
 20
186.4454249351343833
 30
0.0
 40
5.96
  0
CIRCLE
  5
A0
100
AcDbEntity
100
AcDbCircle
  8
side
 62
256
370
-1
  6
ByLayer
 10
21.7490882032392392
 20
71.4454249351343833
 30
0.0
 40
5.96
  0
LINE
  5
A1
100
AcDbEntity
100
AcDbLine
  8
text
 62
256
370
-1
  6
ByLayer
 10
23.4157548699056974
 20
35.8620916018009765
 30
0.0
 11
17.4157548699056406
 21
31.862091601801005
 31
0.0
  0
LINE
  5
A2
100
AcDbEntity
100
AcDbLine
  8
text
 62
256
370
-1
  6
ByLayer
 10
17.4157548699056406
 20
35.862091601801005
 30
0.0
 11
23.4157548699055837
 21
31.862091601801005
 31
0.0
  0
LINE
  5
A3
100
AcDbEntity
100
AcDbLine
  8
text
 62
256
370
-1
  6
ByLayer
 10
17.4157548699056406
 20
25.3620916018009765
 30
0.0
 11
21.4157548699056406
 21
25.362091601801005
 31
0.0
  0
LINE
  5
A4
100
AcDbEntity
100
AcDbLine
  8
text
 62
256
370
-1
  6
ByLayer
 10
21.4157548699056406
 20
25.362091601801005
 30
0.0
 11
21.4157548699055269
 21
24.0287582684676622
 31
0.0
  0
ARC
  5
A5
100
AcDbEntity
  8
text
 62
256
370
-1
  6
ByLayer
100
AcDbCircle
 10
20.7490882032388413
 20
24.0287582684676622
 30
0.0
 40
0.6666666666666666
100
AcDbArc
 50
270.0
 51
360.0
  0
LINE
  5
A6
100
AcDbEntity
100
AcDbLine
  8
text
 62
256
370
-1
  6
ByLayer
 10
17.4157548699055837
 20
21.362091601801005
 30
0.0
 11
21.4157548699056974
 21
21.362091601801005
 31
0.0
  0
LINE
  5
A7
100
AcDbEntity
100
AcDbLine
  8
text
 62
256
370
-1
  6
ByLayer
 10
23.0824215365722694
 20
21.362091601801005
 30
0.0
 11
23.4157548699055837
 21
21.362091601801005
 31
0.0
  0
LINE
  5
A8
100
AcDbEntity
100
AcDbLine
  8
text
 62
256
370
-1
  6
ByLayer
 10
15.4157548699055837
 20
19.362091601801005
 30
0.0
 11
15.4157548699056406
 21
17.6954249351343194
 31
0.0
  0
ARC
  5
A9
100
AcDbEntity
  8
text
 62
256
370
-1
  6
ByLayer
100
AcDbCircle
 10
16.4157548699055269
 20
17.6954249351343762
 30
0.0
 40
1.0
100
AcDbArc
 50
180.0
 51
270.0
  0
LINE
  5
AA
100
AcDbEntity
100
AcDbLine
  8
text
 62
256
370
-1
  6
ByLayer
 10
16.4157548699055837
 20
16.6954249351343478
 30
0.0
 11
21.4157548699055269
 21
16.6954249351343762
 31
0.0
  0
LINE
  5
AB
100
AcDbEntity
100
AcDbLine
  8
text
 62
256
370
-1
  6
ByLayer
 10
21.4157548699055269
 20
16.6954249351343762
 30
0.0
 11
21.4157548699055269
 21
18.3620916018010334
 31
0.0
  0
ARC
  5
AC
100
AcDbEntity
  8
text
 62
256
370
-1
  6
ByLayer
100
AcDbCircle
 10
20.4157548699055269
 20
18.362091601801005
 30
0.0
 40
1.0
100
AcDbArc
 50
360.0
 51
90.0
  0
LINE
  5
AD
100
AcDbEntity
100
AcDbLine
  8
text
 62
256
370
-1
  6
ByLayer
 10
20.4157548699055837
 20
19.362091601801005
 30
0.0
 11
18.4157548699056406
 21
19.362091601801005
 31
0.0
  0
ARC
  5
AE
100
AcDbEntity
  8
text
 62
256
370
-1
  6
ByLayer
100
AcDbCircle
 10
18.4157548699055269
 20
18.3620916018010334
 30
0.0
 40
1.0
100
AcDbArc
 50
90.0
 51
180.0
  0
LINE
  5
AF
100
AcDbEntity
100
AcDbLine
  8
text
 62
256
370
-1
  6
ByLayer
 10
17.4157548699055269
 20
18.3620916018010334
 30
0.0
 11
17.4157548699056974
 21
16.6954249351343194
 31
0.0
  0
LINE
  5
B0
100
AcDbEntity
100
AcDbLine
  8
text
 62
256
370
-1
  6
ByLayer
 10
23.4157548699056406
 20
14.6954249351343478
 30
0.0
 11
17.4157548699056974
 21
14.6954249351343194
 31
0.0
  0
LINE
  5
B1
100
AcDbEntity
100
AcDbLine
  8
text
 62
256
370
-1
  6
ByLayer
 10
21.4157548699056406
 20
14.6954249351343478
 30
0.0
 11
21.4157548699055837
 21
13.028758268467719
 31
0.0
  0
ARC
  5
B2
100
AcDbEntity
  8
text
 62
256
370
-1
  6
ByLayer
100
AcDbCircle
 10
20.4157548699055269
 20
13.0287582684676906
 30
0.0
 40
1.0
100
AcDbArc
 50
270.0
 51
360.0
  0
LINE
  5
B3
100
AcDbEntity
100
AcDbLine
  8
text
 62
256
370
-1
  6
ByLayer
 10
20.4157548699055837
 20
12.0287582684676906
 30
0.0
 11
17.4157548699055269
 21
12.028758268467719
 31
0.0
  0
LINE
  5
B4
100
AcDbEntity
100
AcDbLine
  8
text
 62
256
370
-1
  6
ByLayer
 10
21.4157548699056406
 20
10.0287582684676906
 30
0.0
 11
21.4157548699056406
 21
8.0287582684676906
 31
0.0
  0
LINE
  5
B5
100
AcDbEntity
100
AcDbLine
  8
text
 62
256
370
-1
  6
ByLayer
 10
23.4157548699054701
 20
9.3620916018010618
 30
0.0
 11
17.4157548699055837
 21
9.3620916018010334
 31
0.0
  0
CIRCLE
  5
B6
100
AcDbEntity
100
AcDbCircle
  8
side
 62
256
370
-1
  6
ByLayer
 10
15.4289510961593237
 20
56.2033659645171539
 30
0.0
 40
2.0
  0
CIRCLE
  5
B7
100
AcDbEntity
100
AcDbCircle
  8
side
 62
256
370
-1
  6
ByLayer
 10
15.4289510961593237
 20
42.6388807071714595
 30
0.0
 40
2.0
  0
LINE
  5
B8
100
AcDbEntity
100
AcDbLine
  8
side
 62
256
370
-1
  6
ByLayer
 10
1.2490882032387844
 20
103.0454249351344345
 30
0.0
 11
12.7490882032391255
 21
103.0454249351343776
 31
0.0
  0
LINE
  5
B9
100
AcDbEntity
100
AcDbLine
  8
side
 62
256
370
-1
  6
ByLayer
 10
12.7490882032391255
 20
79.4454249351343833
 30
0.0
 11
12.7490882032391255
 21
103.0454249351343776
 31
0.0
  0
LINE
  5
BA
100
AcDbEntity
100
AcDbLine
  8
side
 62
256
370
-1
  6
ByLayer
 10
1.2490882032387844
 20
79.4454249351344117
 30
0.0
 11
12.7490882032391255
 21
79.4454249351343833
 31
0.0
  0
LINE
  5
BB
100
AcDbEntity
100
AcDbLine
  8
side
 62
256
370
-1
  6
ByLayer
 10
67.929088203238905
 20
185.4454249351343549
 30
0.0
 11
67.929088203238905
 21
190.4454249351343549
 31
0.0
  0
LINE
  5
BC
100
AcDbEntity
100
AcDbLine
  8
cuts
 62
256
370
-1
  6
ByLayer
 10
67.929088203238905
 20
185.4454249351343549
 30
0.0
 11
75.929088203238905
 21
185.4454249351343549
 31
0.0
  0
LINE
  5
BD
100
AcDbEntity
100
AcDbLine
  8
side
 62
256
370
-1
  6
ByLayer
 10
75.929088203238905
 20
185.4454249351343549
 30
0.0
 11
75.929088203238905
 21
199.9454249351343265
 31
0.0
  0
LINE
  5
BE
100
AcDbEntity
100
AcDbLine
  8
side
 62
256
370
-1
  6
ByLayer
 10
75.9290882032387913
 20
28.0254249351343319
 30
0.0
 11
75.9290882032388481
 21
11.9454249351343194
 31
0.0
  0
LINE
  5
BF
100
AcDbEntity
100
AcDbLine
  8
cuts
 62
256
370
-1
  6
ByLayer
 10
67.929088203238905
 20
28.0254249351343603
 30
0.0
 11
75.9290882032387913
 21
28.0254249351343319
 31
0.0
  0
LINE
  5
C0
100
AcDbEntity
100
AcDbLine
  8
side
 62
256
370
-1
  6
ByLayer
 10
67.929088203238905
 20
23.0254249351343603
 30
0.0
 11
67.929088203238905
 21
28.0254249351343603
 31
0.0
  0
ARC
  5
C1
100
AcDbEntity
  8
side
 62
256
370
-1
  6
ByLayer
100
AcDbCircle
 10
103.6736676605199818
 20
39.6461406872322399
 30
0.0
 40
10.0
100
AcDbArc
 50
270.0
 51
360.0
  0
INSERT
  5
C2
100
AcDbEntity
100
AcDbBlockReference
  8
side
 62
256
370
-1
  6
ByLayer
  2
tab
 10
79.6736676605198682
 20
174.6461406872323039
 30
0.0
 41
1.0
 42
-1.0
 43
1.0
 50
270.0
 44
1.0
 45
1.0
  0
INSERT
  5
C3
100
AcDbEntity
100
AcDbBlockReference
  8
side
 62
256
370
-1
  6
ByLayer
  2
tab
 10
79.6736676605198682
 20
99.146140687232247
 30
0.0
 41
1.0
 42
-1.0
 43
1.0
 50
270.0
 44
1.0
 45
1.0
  0
INSERT
  5
C4
100
AcDbEntity
100
AcDbBlockReference
  8
side
 62
256
370
-1
  6
ByLayer
  2
m3-t-slot
 10
79.6736676605198682
 20
199.6461406872323607
 30
0.0
 41
1.0
 42
-1.0
 43
1.0
 50
89.9999999999999858
 44
1.0
 45
1.0
  0
INSERT
  5
C5
100
AcDbEntity
100
AcDbBlockReference
  8
side
 62
256
370
-1
  6
ByLayer
  2
m3-t-slot
 10
79.6736676605198682
 20
149.6461406872323039
 30
0.0
 41
1.0
 42
-1.0
 43
1.0
 50
89.9999999999999858
 44
1.0
 45
1.0
  0
INSERT
  5
C6
100
AcDbEntity
100
AcDbBlockReference
  8
side
 62
256
370
-1
  6
ByLayer
  2
m3-t-slot
 10
79.6736676605197545
 20
79.6461406872323607
 30
0.0
 41
1.0
 42
-1.0
 43
1.0
 50
89.9999999999999858
 44
1.0
 45
1.0
  0
LINE
  5
C7
100
AcDbEntity
100
AcDbLine
  8
side
 62
256
370
-1
  6
ByLayer
 10
79.6736676605198682
 20
218.1461406872324176
 30
0.0
 11
79.6736676605198682
 21
201.1461406872321902
 31
0.0
  0
LINE
  5
C8
100
AcDbEntity
100
AcDbLine
  8
side
 62
256
370
-1
  6
ByLayer
 10
79.6736676605198682
 20
198.146140687232247
 30
0.0
 11
79.6736676605198682
 21
179.6461406872323607
 31
0.0
  0
LINE
  5
C9
100
AcDbEntity
100
AcDbLine
  8
side
 62
256
370
-1
  6
ByLayer
 10
79.6736676605198682
 20
169.6461406872323039
 30
0.0
 11
79.6736676605198682
 21
151.1461406872323039
 31
0.0
  0
LINE
  5
CA
100
AcDbEntity
100
AcDbLine
  8
side
 62
256
370
-1
  6
ByLayer
 10
79.6736676605198682
 20
148.1461406872323607
 30
0.0
 11
79.6736676605198682
 21
104.146140687232247
 31
0.0
  0
LINE
  5
CB
100
AcDbEntity
100
AcDbLine
  8
side
 62
256
370
-1
  6
ByLayer
 10
79.6736676605197545
 20
94.1461406872323607
 30
0.0
 11
79.6736676605197545
 21
81.1461406872323607
 31
0.0
  0
LINE
  5
CC
100
AcDbEntity
100
AcDbLine
  8
side
 62
256
370
-1
  6
ByLayer
 10
79.6736676605198682
 20
78.1461406872323607
 30
0.0
 11
79.6736676605198682
 21
50.7261406872322524
 31
0.0
  0
INSERT
  5
CD
100
AcDbEntity
100
AcDbBlockReference
  8
side
 62
256
370
-1
  6
ByLayer
  2
m3-t-slot
 10
65.4936676605198045
 20
218.1461406872323607
 30
0.0
 41
1.0
 42
-1.0
 43
1.0
 50
180.0
 44
1.0
 45
1.0
  0
INSERT
  5
CE
100
AcDbEntity
100
AcDbBlockReference
  8
side
 62
256
370
-1
  6
ByLayer
  2
m3-t-slot
 10
65.4936676605198045
 20
50.7261406872323093
 30
0.0
 50
180.0
 44
1.0
 45
1.0
  0
LINE
  5
CF
100
AcDbEntity
100
AcDbLine
  8
side
 62
256
370
-1
  6
ByLayer
 10
63.9936676605198045
 20
50.7261406872323377
 30
0.0
 11
46.9936676605198045
 21
50.7261406872323377
 31
0.0
  0
LINE
  5
D0
100
AcDbEntity
100
AcDbLine
  8
side
 62
256
370
-1
  6
ByLayer
 10
66.9936676605198045
 20
50.7261406872323661
 30
0.0
 11
79.6736676605197545
 21
50.7261406872323946
 31
0.0
  0
LINE
  5
D1
100
AcDbEntity
100
AcDbLine
  8
side
 62
256
370
-1
  6
ByLayer
 10
79.6736676605198682
 20
218.1461406872324176
 30
0.0
 11
66.9936676605198045
 21
218.1461406872323607
 31
0.0
  0
LINE
  5
D2
100
AcDbEntity
100
AcDbLine
  8
side
 62
256
370
-1
  6
ByLayer
 10
63.9936676605199182
 20
218.1461406872320765
 30
0.0
 11
46.9936676605198045
 21
218.1461406872323607
 31
0.0
  0
ARC
  5
D3
100
AcDbEntity
  8
side
 62
256
370
-1
  6
ByLayer
100
AcDbCircle
 10
48.9936676605198045
 20
39.6461406872322399
 30
0.0
 40
10.0
100
AcDbArc
 50
180.0
 51
270.0
  0
ARC
  5
D4
100
AcDbEntity
  8
side
 62
256
370
-1
  6
ByLayer
100
AcDbCircle
 10
103.6736676605198682
 20
227.6461406872317923
 30
0.0
 40
10.0
100
AcDbArc
 50
360.0
 51
89.9999999999999858
  0
ARC
  5
D5
100
AcDbEntity
  8
side
 62
256
370
-1
  6
ByLayer
100
AcDbCircle
 10
48.9936676605198045
 20
227.6461406872311102
 30
0.0
 40
10.0
100
AcDbArc
 50
89.9999999999999858
 51
180.0
  0
CIRCLE
  5
D6
100
AcDbEntity
100
AcDbCircle
  8
side
 62
256
370
-1
  6
ByLayer
 10
89.1736676605196408
 20
137.896140687232247
 30
0.0
 40
1.5
  0
CIRCLE
  5
D7
100
AcDbEntity
100
AcDbCircle
  8
side
 62
256
370
-1
  6
ByLayer
 10
101.6736676605198682
 20
137.896140687232247
 30
0.0
 40
1.5
  0
LINE
  5
D8
100
AcDbEntity
100
AcDbLine
  8
side
 62
256
370
-1
  6
ByLayer
 10
105.6736676605198682
 20
141.5461406872322812
 30
0.0
 11
113.6736676605198682
 21
141.546140687232338
 31
0.0
  0
LINE
  5
D9
100
AcDbEntity
100
AcDbLine
  8
side
 62
256
370
-1
  6
ByLayer
 10
113.6736676605198682
 20
139.4461406872323721
 30
0.0
 11
105.6736676605198682
 21
139.4461406872323153
 31
0.0
  0
LINE
  5
DA
100
AcDbEntity
100
AcDbLine
  8
side
 62
256
370
-1
  6
ByLayer
 10
105.6736676605198682
 20
139.4461406872323153
 30
0.0
 11
105.6736676605198682
 21
141.5461406872322812
 31
0.0
  0
LINE
  5
DB
100
AcDbEntity
100
AcDbLine
  8
side
 62
256
370
-1
  6
ByLayer
 10
113.6736676605198682
 20
227.6461406872330429
 30
0.0
 11
113.6736676605198682
 21
141.546140687232338
 31
0.0
  0
LINE
  5
DC
100
AcDbEntity
100
AcDbLine
  8
side
 62
256
370
-1
  6
ByLayer
 10
113.6736676605198682
 20
139.4461406872323721
 30
0.0
 11
113.6736676605198682
 21
130.7461406872322698
 31
0.0
  0
LINE
  5
DD
100
AcDbEntity
100
AcDbLine
  8
side
 62
256
370
-1
  6
ByLayer
 10
52.9936676605198045
 20
29.6461406872322399
 30
0.0
 11
52.9936676605198045
 21
39.6461406872322684
 31
0.0
  0
LINE
  5
DE
100
AcDbEntity
100
AcDbLine
  8
side
 62
256
370
-1
  6
ByLayer
 10
52.9936676605198045
 20
39.6461406872322684
 30
0.0
 11
50.9936676605198045
 21
39.6461406872322684
 31
0.0
  0
LINE
  5
DF
100
AcDbEntity
100
AcDbLine
  8
side
 62
256
370
-1
  6
ByLayer
 10
50.9936676605198045
 20
39.6461406872322684
 30
0.0
 11
50.9936676605196908
 21
29.6461406872323536
 31
0.0
  0
LINE
  5
E0
100
AcDbEntity
100
AcDbLine
  8
side
 62
256
370
-1
  6
ByLayer
 10
52.9936676605198045
 20
237.6461406872325313
 30
0.0
 11
52.9936676605198045
 21
227.6461406872332702
 31
0.0
  0
LINE
  5
E1
100
AcDbEntity
100
AcDbLine
  8
side
 62
256
370
-1
  6
ByLayer
 10
52.9936676605198045
 20
227.6461406872332702
 30
0.0
 11
50.9936676605198045
 21
227.6461406872320765
 31
0.0
  0
LINE
  5
E2
100
AcDbEntity
100
AcDbLine
  8
side
 62
256
370
-1
  6
ByLayer
 10
50.9936676605198045
 20
227.6461406872320765
 30
0.0
 11
50.9936676605198045
 21
237.6461406872323607
 31
0.0
  0
LINE
  5
E3
100
AcDbEntity
100
AcDbLine
  8
side
 62
256
370
-1
  6
ByLayer
 10
48.9936676605198045
 20
237.6461406872331565
 30
0.0
 11
50.9936676605198045
 21
237.6461406872323607
 31
0.0
  0
LINE
  5
E4
100
AcDbEntity
100
AcDbLine
  8
side
 62
256
370
-1
  6
ByLayer
 10
52.9936676605198045
 20
237.6461406872325313
 30
0.0
 11
103.6736676605198682
 21
237.6461406872323607
 31
0.0
  0
LINE
  5
E5
100
AcDbEntity
100
AcDbLine
  8
side
 62
256
370
-1
  6
ByLayer
 10
48.9936676605196908
 20
29.6461406872324105
 30
0.0
 11
50.9936676605196908
 21
29.6461406872323536
 31
0.0
  0
LINE
  5
E6
100
AcDbEntity
100
AcDbLine
  8
side
 62
256
370
-1
  6
ByLayer
 10
52.9936676605198045
 20
29.6461406872322399
 30
0.0
 11
103.6736676605196408
 21
29.646140687232382
 31
0.0
  0
LINE
  5
E7
100
AcDbEntity
100
AcDbLine
  8
side
 62
256
370
-1
  6
ByLayer
 10
113.6736676605198682
 20
82.3161406872323198
 30
0.0
 11
113.6736676605198682
 21
107.1461406872323607
 31
0.0
  0
LINE
  5
E8
100
AcDbEntity
100
AcDbLine
  8
side
 62
256
370
-1
  6
ByLayer
 10
113.6736676605199818
 20
39.6461406872322399
 30
0.0
 11
113.6736676605200955
 21
72.3161406872322061
 31
0.0
  0
ARC
  5
E9
100
AcDbEntity
  8
side
 62
256
370
-1
  6
ByLayer
100
AcDbCircle
 10
108.6736676605198682
 20
77.3161406872322061
 30
0.0
 40
5.0
100
AcDbArc
 50
89.9999999999999858
 51
270.0
  0
LINE
  5
EA
100
AcDbEntity
100
AcDbLine
  8
side
 62
256
370
-1
  6
ByLayer
 10
113.6736676605198682
 20
82.3161406872323198
 30
0.0
 11
108.6736676605197545
 21
82.3161406872323198
 31
0.0
  0
LINE
  5
EB
100
AcDbEntity
100
AcDbLine
  8
side
 62
256
370
-1
  6
ByLayer
 10
108.6736676605199818
 20
72.3161406872322061
 30
0.0
 11
113.6736676605200955
 21
72.3161406872322061
 31
0.0
  0
CIRCLE
  5
EC
100
AcDbEntity
100
AcDbCircle
  8
side
 62
256
370
-1
  6
ByLayer
 10
93.1736676605197545
 20
214.1461406872321902
 30
0.0
 40
5.96
  0
CIRCLE
  5
ED
100
AcDbEntity
100
AcDbCircle
  8
side
 62
256
370
-1
  6
ByLayer
 10
93.1736676605195271
 20
99.1461406872323607
 30
0.0
 40
5.96
  0
LINE
  5
EE
100
AcDbEntity
100
AcDbLine
  8
text
 62
256
370
-1
  6
ByLayer
 10
91.5070009938532394
 20
37.7294740205655259
 30
0.0
 11
97.5070009938531257
 21
41.7294740205656112
 31
0.0
  0
LINE
  5
EF
100
AcDbEntity
100
AcDbLine
  8
text
 62
256
370
-1
  6
ByLayer
 10
97.5070009938531257
 20
37.7294740205655543
 30
0.0
 11
91.507000993853012
 21
41.729474020565668
 31
0.0
  0
LINE
  5
F0
100
AcDbEntity
100
AcDbLine
  8
text
 62
256
370
-1
  6
ByLayer
 10
91.5070009938531257
 20
48.2294740205655543
 30
0.0
 11
96.8403343271863832
 21
48.2294740205656396
 31
0.0
  0
ARC
  5
F1
100
AcDbEntity
  8
text
 62
256
370
-1
  6
ByLayer
100
AcDbCircle
 10
96.8403343271864969
 20
48.8961406872322115
 30
0.0
 40
0.6666666666666666
100
AcDbArc
 50
270.0
 51
360.0
  0
LINE
  5
F2
100
AcDbEntity
100
AcDbLine
  8
text
 62
256
370
-1
  6
ByLayer
 10
95.5070009938531257
 20
50.8961406872322399
 30
0.0
 11
95.507000993853012
 21
53.5628073538989824
 31
0.0
  0
LINE
  5
F3
100
AcDbEntity
100
AcDbLine
  8
text
 62
256
370
-1
  6
ByLayer
 10
95.507000993853012
 20
53.5628073538989824
 30
0.0
 11
94.8403343271863832
 21
53.5628073538989256
 31
0.0
  0
ARC
  5
F4
100
AcDbEntity
  8
text
 62
256
370
-1
  6
ByLayer
100
AcDbCircle
 10
94.8403343271863832
 20
52.2294740205656964
 30
0.0
 40
1.3333333333333333
100
AcDbArc
 50
90.0
 51
270.0
  0
LINE
  5
F5
100
AcDbEntity
100
AcDbLine
  8
text
 62
256
370
-1
  6
ByLayer
 10
94.8403343271863832
 20
50.8961406872322399
 30
0.0
 11
96.507000993853012
 21
50.8961406872322968
 31
0.0
  0
ARC
  5
F6
100
AcDbEntity
  8
text
 62
256
370
-1
  6
ByLayer
100
AcDbCircle
 10
96.5070009938531257
 20
51.8961406872322115
 30
0.0
 40
1.0
100
AcDbArc
 50
270.0
 51
360.0
  0
LINE
  5
F7
100
AcDbEntity
100
AcDbLine
  8
text
 62
256
370
-1
  6
ByLayer
 10
97.5070009938531257
 20
51.8961406872322399
 30
0.0
 11
97.5070009938528983
 21
53.5628073538989824
 31
0.0
  0
LINE
  5
F8
100
AcDbEntity
100
AcDbLine
  8
text
 62
256
370
-1
  6
ByLayer
 10
97.5070009938531257
 20
56.2294740205656112
 30
0.0
 11
92.5070009938531257
 21
56.2294740205656112
 31
0.0
  0
ARC
  5
F9
100
AcDbEntity
  8
text
 62
256
370
-1
  6
ByLayer
100
AcDbCircle
 10
92.5070009938531257
 20
57.2294740205655259
 30
0.0
 40
1.0
100
AcDbArc
 50
180.0
 51
270.0
  0
LINE
  5
FA
100
AcDbEntity
100
AcDbLine
  8
text
 62
256
370
-1
  6
ByLayer
 10
91.5070009938531257
 20
57.2294740205655543
 30
0.0
 11
91.507000993853012
 21
57.5628073538989824
 31
0.0
  0
LINE
  5
FB
100
AcDbEntity
100
AcDbLine
  8
text
 62
256
370
-1
  6
ByLayer
 10
93.507000993853012
 20
55.5628073538990108
 30
0.0
 11
93.5070009938531257
 21
57.5628073538988687
 31
0.0
  0
LINE
  5
FC
100
AcDbEntity
100
AcDbLine
  8
text
 62
256
370
-1
  6
ByLayer
 10
93.507000993853012
 20
59.5628073538990108
 30
0.0
 11
93.5070009938531257
 21
61.5628073538988687
 31
0.0
  0
LINE
  5
FD
100
AcDbEntity
100
AcDbLine
  8
text
 62
256
370
-1
  6
ByLayer
 10
91.507000993853012
 20
60.2294740205656112
 30
0.0
 11
97.5070009938531257
 21
60.2294740205656112
 31
0.0
  0
LINE
  5
FE
100
AcDbEntity
100
AcDbLine
  8
side
 62
256
370
-1
  6
ByLayer
 10
113.6736676605198682
 20
130.7461406872322698
 30
0.0
 11
102.1736676605195271
 21
130.7461406872323266
 31
0.0
  0
LINE
  5
FF
100
AcDbEntity
100
AcDbLine
  8
side
 62
256
370
-1
  6
ByLayer
 10
102.1736676605195271
 20
107.1461406872323607
 30
0.0
 11
102.1736676605195271
 21
130.7461406872323266
 31
0.0
  0
LINE
  5
100
100
AcDbEntity
100
AcDbLine
  8
side
 62
256
370
-1
  6
ByLayer
 10
113.6736676605198682
 20
107.1461406872323607
 30
0.0
 11
102.1736676605195271
 21
107.1461406872323607
 31
0.0
  0
LINE
  5
101
100
AcDbEntity
100
AcDbLine
  8
side
 62
256
370
-1
  6
ByLayer
 10
38.9936676605198045
 20
213.1461406872320197
 30
0.0
 11
38.9936676605198045
 21
227.6461406872330429
 31
0.0
  0
LINE
  5
102
100
AcDbEntity
100
AcDbLine
  8
side
 62
256
370
-1
  6
ByLayer
 10
46.9936676605198045
 20
213.1461406872323607
 30
0.0
 11
46.9936676605198045
 21
218.1461406872323607
 31
0.0
  0
LINE
  5
103
100
AcDbEntity
100
AcDbLine
  8
cuts
 62
256
370
-1
  6
ByLayer
 10
46.9936676605198045
 20
213.1461406872323607
 30
0.0
 11
38.9936676605198045
 21
213.1461406872320197
 31
0.0
  0
LINE
  5
104
100
AcDbEntity
100
AcDbLine
  8
side
 62
256
370
-1
  6
ByLayer
 10
46.9936676605198045
 20
50.7261406872323377
 30
0.0
 11
46.9936676605199182
 21
55.7261406872323093
 31
0.0
  0
LINE
  5
105
100
AcDbEntity
100
AcDbLine
  8
side
 62
256
370
-1
  6
ByLayer
 10
38.9936676605196908
 20
55.7261406872323661
 30
0.0
 11
38.9936676605198045
 21
39.6461406872322684
 31
0.0
  0
LINE
  5
106
100
AcDbEntity
100
AcDbLine
  8
cuts
 62
256
370
-1
  6
ByLayer
 10
46.9936676605199182
 20
55.7261406872323093
 30
0.0
 11
38.9936676605196908
 21
55.7261406872323661
 31
0.0
  0
INSERT
  5
107
100
AcDbEntity
100
AcDbBlockReference
  8
0
 62
256
370
-1
  6
ByLayer
  2
m3-t-slot
 10
77.2933772404062438
 20
137.981999451528452
 30
0.0
 50
90.0
 44
1.0
 45
1.0
  0
LINE
  5
108
100
AcDbEntity
100
AcDbLine
  8
rib
 62
256
370
-1
  6
ByLayer
 10
77.2933772404062438
 20
164.3819994515284577
 30
0.0
 11
77.2933772404063006
 21
139.481999451528452
 31
0.0
  0
LINE
  5
109
100
AcDbEntity
100
AcDbLine
  8
rib
 62
256
370
-1
  6
ByLayer
 10
77.2933772404064143
 20
136.4819994515284236
 30
0.0
 11
77.2933772404063006
 21
111.5819994515285032
 31
0.0
  0
CIRCLE
  5
10A
100
AcDbEntity
100
AcDbCircle
  8
rib
 62
256
370
-1
  6
ByLayer
 10
65.7933772404066985
 20
129.981999451528452
 30
0.0
 40
1.5
  0
CIRCLE
  5
10B
100
AcDbEntity
100
AcDbCircle
  8
rib
 62
256
370
-1
  6
ByLayer
 10
65.7933772404066417
 20
145.981999451528452
 30
0.0
 40
1.5
  0
INSERT
  5
10C
100
AcDbEntity
100
AcDbBlockReference
  8
rib
 62
256
370
-1
  6
ByLayer
  2
m3-t-slot
 10
55.2933772404061301
 20
111.5819994515285032
 30
0.0
 44
1.0
 45
1.0
  0
INSERT
  5
10D
100
AcDbEntity
100
AcDbBlockReference
  8
rib
 62
256
370
-1
  6
ByLayer
  2
m3-t-slot
 10
67.7933772404066417
 20
111.5819994515285032
 30
0.0
 44
1.0
 45
1.0
  0
INSERT
  5
10E
100
AcDbEntity
100
AcDbBlockReference
  8
rib
 62
256
370
-1
  6
ByLayer
  2
m3-t-slot
 10
67.7933772404066417
 20
164.3819994515284577
 30
0.0
 41
1.0
 42
-1.0
 43
1.0
 50
360.0
 44
1.0
 45
1.0
  0
INSERT
  5
10F
100
AcDbEntity
100
AcDbBlockReference
  8
rib
 62
256
370
-1
  6
ByLayer
  2
m3-t-slot
 10
55.2933772404061301
 20
164.3819994515284861
 30
0.0
 41
1.0
 42
-1.0
 43
1.0
 50
360.0
 44
1.0
 45
1.0
  0
LINE
  5
110
100
AcDbEntity
100
AcDbLine
  8
rib
 62
256
370
-1
  6
ByLayer
 10
69.2933772404066985
 20
164.3819994515284293
 30
0.0
 11
77.2933772404062438
 21
164.3819994515284577
 31
0.0
  0
LINE
  5
111
100
AcDbEntity
100
AcDbLine
  8
rib
 62
256
370
-1
  6
ByLayer
 10
77.2933772404063006
 20
111.5819994515285032
 30
0.0
 11
69.2933772404068122
 21
111.5819994515285032
 31
0.0
  0
LINE
  5
112
100
AcDbEntity
100
AcDbLine
  8
rib
 62
256
370
-1
  6
ByLayer
 10
66.2933772404068122
 20
111.5819994515285032
 30
0.0
 11
56.7933772404063006
 21
111.5819994515285032
 31
0.0
  0
LINE
  5
113
100
AcDbEntity
100
AcDbLine
  8
rib
 62
256
370
-1
  6
ByLayer
 10
56.7933772404062438
 20
164.3819994515284577
 30
0.0
 11
66.2933772404066417
 21
164.3819994515284577
 31
0.0
  0
LINE
  5
114
100
AcDbEntity
100
AcDbLine
  8
rib
 62
256
370
-1
  6
ByLayer
 10
45.2933772404060733
 20
138.3819994515284861
 30
0.0
 11
51.2933772404063575
 21
138.3819994515284293
 31
0.0
  0
LINE
  5
115
100
AcDbEntity
100
AcDbLine
  8
rib
 62
256
370
-1
  6
ByLayer
 10
51.2933772404063575
 20
138.3819994515284293
 30
0.0
 11
51.2933772404062438
 21
137.5819994515284463
 31
0.0
  0
LINE
  5
116
100
AcDbEntity
100
AcDbLine
  8
rib
 62
256
370
-1
  6
ByLayer
 10
51.2933772404062438
 20
137.5819994515284463
 30
0.0
 11
45.293377240406187
 21
137.5819994515284463
 31
0.0
  0
LINE
  5
117
100
AcDbEntity
100
AcDbLine
  8
rib
 62
256
370
-1
  6
ByLayer
 10
45.293377240406187
 20
137.5819994515284463
 30
0.0
 11
45.2933772404060733
 21
138.3819994515284861
 31
0.0
  0
LINE
  5
118
100
AcDbEntity
100
AcDbLine
  8
rib
 62
256
370
-1
  6
ByLayer
 10
45.293377240406187
 20
140.3819994515284861
 30
0.0
 11
51.293377240406187
 21
140.3819994515284861
 31
0.0
  0
LINE
  5
119
100
AcDbEntity
100
AcDbLine
  8
rib
 62
256
370
-1
  6
ByLayer
 10
51.293377240406187
 20
140.3819994515284861
 30
0.0
 11
51.2933772404063006
 21
139.5819994515284463
 31
0.0
  0
LINE
  5
11A
100
AcDbEntity
100
AcDbLine
  8
rib
 62
256
370
-1
  6
ByLayer
 10
51.2933772404063006
 20
139.5819994515284463
 30
0.0
 11
45.2933772404062438
 21
139.5819994515284463
 31
0.0
  0
LINE
  5
11B
100
AcDbEntity
100
AcDbLine
  8
rib
 62
256
370
-1
  6
ByLayer
 10
45.2933772404062438
 20
139.5819994515284463
 30
0.0
 11
45.293377240406187
 21
140.3819994515284861
 31
0.0
  0
LINE
  5
11C
100
AcDbEntity
100
AcDbLine
  8
rib
 62
256
370
-1
  6
ByLayer
 10
45.2933772404060733
 20
142.3819994515284861
 30
0.0
 11
51.2933772404063575
 21
142.3819994515284293
 31
0.0
  0
LINE
  5
11D
100
AcDbEntity
100
AcDbLine
  8
rib
 62
256
370
-1
  6
ByLayer
 10
51.2933772404063575
 20
142.3819994515284293
 30
0.0
 11
51.293377240406187
 21
141.5819994515284748
 31
0.0
  0
LINE
  5
11E
100
AcDbEntity
100
AcDbLine
  8
rib
 62
256
370
-1
  6
ByLayer
 10
51.293377240406187
 20
141.5819994515284748
 30
0.0
 11
45.293377240406187
 21
141.5819994515284463
 31
0.0
  0
LINE
  5
11F
100
AcDbEntity
100
AcDbLine
  8
rib
 62
256
370
-1
  6
ByLayer
 10
45.293377240406187
 20
141.5819994515284463
 30
0.0
 11
45.2933772404060733
 21
142.3819994515284861
 31
0.0
  0
LINE
  5
120
100
AcDbEntity
100
AcDbLine
  8
rib
 62
256
370
-1
  6
ByLayer
 10
45.2933772404060733
 20
144.3819994515284577
 30
0.0
 11
51.293377240406187
 21
144.3819994515284577
 31
0.0
  0
LINE
  5
121
100
AcDbEntity
100
AcDbLine
  8
rib
 62
256
370
-1
  6
ByLayer
 10
51.293377240406187
 20
144.3819994515284577
 30
0.0
 11
51.293377240406187
 21
143.5819994515284748
 31
0.0
  0
LINE
  5
122
100
AcDbEntity
100
AcDbLine
  8
rib
 62
256
370
-1
  6
ByLayer
 10
51.293377240406187
 20
143.5819994515284748
 30
0.0
 11
45.2933772404060733
 21
143.5819994515284463
 31
0.0
  0
LINE
  5
123
100
AcDbEntity
100
AcDbLine
  8
rib
 62
256
370
-1
  6
ByLayer
 10
45.2933772404060733
 20
143.5819994515284463
 30
0.0
 11
45.2933772404060733
 21
144.3819994515284577
 31
0.0
  0
LINE
  5
124
100
AcDbEntity
100
AcDbLine
  8
rib
 62
256
370
-1
  6
ByLayer
 10
45.2933772404061301
 20
146.3819994515284577
 30
0.0
 11
51.2933772404062438
 21
146.3819994515284577
 31
0.0
  0
LINE
  5
125
100
AcDbEntity
100
AcDbLine
  8
rib
 62
256
370
-1
  6
ByLayer
 10
51.2933772404062438
 20
146.3819994515284577
 30
0.0
 11
51.2933772404063006
 21
145.5819994515284463
 31
0.0
  0
LINE
  5
126
100
AcDbEntity
100
AcDbLine
  8
rib
 62
256
370
-1
  6
ByLayer
 10
51.2933772404063006
 20
145.5819994515284463
 30
0.0
 11
45.2933772404061301
 21
145.5819994515284463
 31
0.0
  0
LINE
  5
127
100
AcDbEntity
100
AcDbLine
  8
rib
 62
256
370
-1
  6
ByLayer
 10
45.2933772404061301
 20
145.5819994515284463
 30
0.0
 11
45.2933772404061301
 21
146.3819994515284577
 31
0.0
  0
LINE
  5
128
100
AcDbEntity
100
AcDbLine
  8
rib
 62
256
370
-1
  6
ByLayer
 10
45.2933772404061301
 20
148.3819994515284861
 30
0.0
 11
51.293377240406187
 21
148.3819994515284861
 31
0.0
  0
LINE
  5
129
100
AcDbEntity
100
AcDbLine
  8
rib
 62
256
370
-1
  6
ByLayer
 10
51.293377240406187
 20
148.3819994515284861
 30
0.0
 11
51.2933772404062438
 21
147.5819994515284463
 31
0.0
  0
LINE
  5
12A
100
AcDbEntity
100
AcDbLine
  8
rib
 62
256
370
-1
  6
ByLayer
 10
51.2933772404062438
 20
147.5819994515284463
 30
0.0
 11
45.293377240406187
 21
147.5819994515284463
 31
0.0
  0
LINE
  5
12B
100
AcDbEntity
100
AcDbLine
  8
rib
 62
256
370
-1
  6
ByLayer
 10
45.293377240406187
 20
147.5819994515284463
 30
0.0
 11
45.2933772404061301
 21
148.3819994515284861
 31
0.0
  0
LINE
  5
12C
100
AcDbEntity
100
AcDbLine
  8
rib
 62
256
370
-1
  6
ByLayer
 10
45.2933772404062438
 20
150.3819994515284577
 30
0.0
 11
51.293377240406187
 21
150.3819994515284861
 31
0.0
  0
LINE
  5
12D
100
AcDbEntity
100
AcDbLine
  8
rib
 62
256
370
-1
  6
ByLayer
 10
51.293377240406187
 20
150.3819994515284861
 30
0.0
 11
51.2933772404063006
 21
149.5819994515284748
 31
0.0
  0
LINE
  5
12E
100
AcDbEntity
100
AcDbLine
  8
rib
 62
256
370
-1
  6
ByLayer
 10
51.2933772404063006
 20
149.5819994515284748
 30
0.0
 11
45.293377240406187
 21
149.5819994515284463
 31
0.0
  0
LINE
  5
12F
100
AcDbEntity
100
AcDbLine
  8
rib
 62
256
370
-1
  6
ByLayer
 10
45.293377240406187
 20
149.5819994515284463
 30
0.0
 11
45.2933772404062438
 21
150.3819994515284577
 31
0.0
  0
LINE
  5
130
100
AcDbEntity
100
AcDbLine
  8
rib
 62
256
370
-1
  6
ByLayer
 10
45.2933772404060733
 20
136.3819994515284861
 30
0.0
 11
51.2933772404063006
 21
136.3819994515284577
 31
0.0
  0
LINE
  5
131
100
AcDbEntity
100
AcDbLine
  8
rib
 62
256
370
-1
  6
ByLayer
 10
51.2933772404063006
 20
136.3819994515284577
 30
0.0
 11
51.2933772404062438
 21
135.5819994515284463
 31
0.0
  0
LINE
  5
132
100
AcDbEntity
100
AcDbLine
  8
rib
 62
256
370
-1
  6
ByLayer
 10
51.2933772404062438
 20
135.5819994515284463
 30
0.0
 11
45.293377240406187
 21
135.5819994515284179
 31
0.0
  0
LINE
  5
133
100
AcDbEntity
100
AcDbLine
  8
rib
 62
256
370
-1
  6
ByLayer
 10
45.293377240406187
 20
135.5819994515284179
 30
0.0
 11
45.2933772404060733
 21
136.3819994515284861
 31
0.0
  0
LINE
  5
134
100
AcDbEntity
100
AcDbLine
  8
rib
 62
256
370
-1
  6
ByLayer
 10
45.293377240406187
 20
134.3819994515284577
 30
0.0
 11
51.2933772404063006
 21
134.3819994515284577
 31
0.0
  0
LINE
  5
135
100
AcDbEntity
100
AcDbLine
  8
rib
 62
256
370
-1
  6
ByLayer
 10
51.2933772404063006
 20
134.3819994515284577
 30
0.0
 11
51.2933772404061301
 21
133.5819994515284748
 31
0.0
  0
LINE
  5
136
100
AcDbEntity
100
AcDbLine
  8
rib
 62
256
370
-1
  6
ByLayer
 10
51.2933772404061301
 20
133.5819994515284748
 30
0.0
 11
45.2933772404061301
 21
133.5819994515284463
 31
0.0
  0
LINE
  5
137
100
AcDbEntity
100
AcDbLine
  8
rib
 62
256
370
-1
  6
ByLayer
 10
45.2933772404061301
 20
133.5819994515284463
 30
0.0
 11
45.293377240406187
 21
134.3819994515284577
 31
0.0
  0
LINE
  5
138
100
AcDbEntity
100
AcDbLine
  8
rib
 62
256
370
-1
  6
ByLayer
 10
45.2933772404060733
 20
132.3819994515284861
 30
0.0
 11
51.293377240406187
 21
132.3819994515284861
 31
0.0
  0
LINE
  5
139
100
AcDbEntity
100
AcDbLine
  8
rib
 62
256
370
-1
  6
ByLayer
 10
51.293377240406187
 20
132.3819994515284861
 30
0.0
 11
51.2933772404062438
 21
131.5819994515284463
 31
0.0
  0
LINE
  5
13A
100
AcDbEntity
100
AcDbLine
  8
rib
 62
256
370
-1
  6
ByLayer
 10
51.2933772404062438
 20
131.5819994515284463
 30
0.0
 11
45.293377240406187
 21
131.5819994515284748
 31
0.0
  0
LINE
  5
13B
100
AcDbEntity
100
AcDbLine
  8
rib
 62
256
370
-1
  6
ByLayer
 10
45.293377240406187
 20
131.5819994515284748
 30
0.0
 11
45.2933772404060733
 21
132.3819994515284861
 31
0.0
  0
LINE
  5
13C
100
AcDbEntity
100
AcDbLine
  8
rib
 62
256
370
-1
  6
ByLayer
 10
45.2933772404060733
 20
130.3819994515284577
 30
0.0
 11
51.293377240406187
 21
130.3819994515284577
 31
0.0
  0
LINE
  5
13D
100
AcDbEntity
100
AcDbLine
  8
rib
 62
256
370
-1
  6
ByLayer
 10
51.293377240406187
 20
130.3819994515284577
 30
0.0
 11
51.2933772404061301
 21
129.5819994515284748
 31
0.0
  0
LINE
  5
13E
100
AcDbEntity
100
AcDbLine
  8
rib
 62
256
370
-1
  6
ByLayer
 10
51.2933772404061301
 20
129.5819994515284748
 30
0.0
 11
45.293377240406187
 21
129.5819994515284463
 31
0.0
  0
LINE
  5
13F
100
AcDbEntity
100
AcDbLine
  8
rib
 62
256
370
-1
  6
ByLayer
 10
45.293377240406187
 20
129.5819994515284463
 30
0.0
 11
45.2933772404060733
 21
130.3819994515284577
 31
0.0
  0
LINE
  5
140
100
AcDbEntity
100
AcDbLine
  8
rib
 62
256
370
-1
  6
ByLayer
 10
45.2933772404061301
 20
128.3819994515284577
 30
0.0
 11
51.293377240406187
 21
128.3819994515284861
 31
0.0
  0
LINE
  5
141
100
AcDbEntity
100
AcDbLine
  8
rib
 62
256
370
-1
  6
ByLayer
 10
51.293377240406187
 20
128.3819994515284861
 30
0.0
 11
51.2933772404061301
 21
127.5819994515284463
 31
0.0
  0
LINE
  5
142
100
AcDbEntity
100
AcDbLine
  8
rib
 62
256
370
-1
  6
ByLayer
 10
51.2933772404061301
 20
127.5819994515284463
 30
0.0
 11
45.2933772404061301
 21
127.5819994515284463
 31
0.0
  0
LINE
  5
143
100
AcDbEntity
100
AcDbLine
  8
rib
 62
256
370
-1
  6
ByLayer
 10
45.2933772404061301
 20
127.5819994515284463
 30
0.0
 11
45.2933772404061301
 21
128.3819994515284577
 31
0.0
  0
LINE
  5
144
100
AcDbEntity
100
AcDbLine
  8
rib
 62
256
370
-1
  6
ByLayer
 10
45.2933772404062438
 20
126.3819994515284577
 30
0.0
 11
51.2933772404062438
 21
126.3819994515284577
 31
0.0
  0
LINE
  5
145
100
AcDbEntity
100
AcDbLine
  8
rib
 62
256
370
-1
  6
ByLayer
 10
51.2933772404062438
 20
126.3819994515284577
 30
0.0
 11
51.2933772404063575
 21
125.5819994515284463
 31
0.0
  0
LINE
  5
146
100
AcDbEntity
100
AcDbLine
  8
rib
 62
256
370
-1
  6
ByLayer
 10
51.2933772404063575
 20
125.5819994515284463
 30
0.0
 11
45.2933772404061301
 21
125.5819994515284463
 31
0.0
  0
LINE
  5
147
100
AcDbEntity
100
AcDbLine
  8
rib
 62
256
370
-1
  6
ByLayer
 10
45.2933772404061301
 20
125.5819994515284463
 30
0.0
 11
45.2933772404062438
 21
126.3819994515284577
 31
0.0
  0
CIRCLE
  5
148
100
AcDbEntity
100
AcDbCircle
  8
rib
 62
256
370
-1
  6
ByLayer
 10
55.7933772404067554
 20
129.981999451528452
 30
0.0
 40
1.5
  0
CIRCLE
  5
149
100
AcDbEntity
100
AcDbCircle
  8
rib
 62
256
370
-1
  6
ByLayer
 10
55.7933772404065849
 20
145.981999451528452
 30
0.0
 40
1.5
  0
LINE
  5
14A
100
AcDbEntity
100
AcDbLine
  8
rib
 62
256
370
-1
  6
ByLayer
 10
43.2933772404044817
 20
164.3819994515284577
 30
0.0
 11
53.7933772404062438
 21
164.3819994515284577
 31
0.0
  0
LINE
  5
14B
100
AcDbEntity
100
AcDbLine
  8
rib
 62
256
370
-1
  6
ByLayer
 10
53.7933772404063006
 20
111.5819994515285032
 30
0.0
 11
43.2933772404038564
 21
111.5819994515284463
 31
0.0
  0
LINE
  5
14C
100
AcDbEntity
100
AcDbLine
  8
rib
 62
256
370
-1
  6
ByLayer
 10
43.2933772404038564
 20
111.5819994515284463
 30
0.0
 11
43.2933772404044817
 21
164.3819994515284577
 31
0.0
  0
LINE
  5
14D
100
AcDbEntity
100
AcDbLine
  8
text
 62
256
370
-1
  6
ByLayer
 10
62.9600439070729863
 20
144.1736661181951149
 30
0.0
 11
59.9600439070730999
 21
142.1736661181950865
 31
0.0
  0
LINE
  5
14E
100
AcDbEntity
100
AcDbLine
  8
text
 62
256
370
-1
  6
ByLayer
 10
59.9600439070729863
 20
144.1736661181951433
 30
0.0
 11
62.9600439070731568
 21
142.1736661181951149
 31
0.0
  0
LINE
  5
14F
100
AcDbEntity
100
AcDbLine
  8
text
 62
256
370
-1
  6
ByLayer
 10
59.9600439070729294
 20
138.9236661181951433
 30
0.0
 11
61.9600439070729863
 21
138.9236661181951149
 31
0.0
  0
LINE
  5
150
100
AcDbEntity
100
AcDbLine
  8
text
 62
256
370
-1
  6
ByLayer
 10
61.9600439070729863
 20
138.9236661181951149
 30
0.0
 11
61.9600439070729863
 21
138.2569994515284577
 31
0.0
  0
ARC
  5
151
100
AcDbEntity
  8
text
 62
256
370
-1
  6
ByLayer
100
AcDbCircle
 10
61.6267105737395582
 20
138.2569994515284577
 30
0.0
 40
0.3333333333333333
100
AcDbArc
 50
270.0
 51
360.0
  0
LINE
  5
152
100
AcDbEntity
100
AcDbLine
  8
text
 62
256
370
-1
  6
ByLayer
 10
59.9600439070730431
 20
136.9236661181951149
 30
0.0
 11
61.9600439070729294
 21
136.9236661181951433
 31
0.0
  0
LINE
  5
153
100
AcDbEntity
100
AcDbLine
  8
text
 62
256
370
-1
  6
ByLayer
 10
62.793377240406528
 20
136.9236661181951149
 30
0.0
 11
62.9600439070731568
 21
136.9236661181951149
 31
0.0
  0
LINE
  5
154
100
AcDbEntity
100
AcDbLine
  8
text
 62
256
370
-1
  6
ByLayer
 10
62.9600439070729294
 20
135.9236661181951433
 30
0.0
 11
59.9600439070730431
 21
135.9236661181951149
 31
0.0
  0
LINE
  5
155
100
AcDbEntity
100
AcDbLine
  8
text
 62
256
370
-1
  6
ByLayer
 10
59.9600439070730431
 20
135.9236661181951149
 30
0.0
 11
59.9600439070730999
 21
135.0903327848618005
 31
0.0
  0
ARC
  5
156
100
AcDbEntity
  8
text
 62
256
370
-1
  6
ByLayer
100
AcDbCircle
 10
60.4600439070730999
 20
135.0903327848617721
 30
0.0
 40
0.5
100
AcDbArc
 50
180.0
 51
270.0
  0
LINE
  5
157
100
AcDbEntity
100
AcDbLine
  8
text
 62
256
370
-1
  6
ByLayer
 10
60.4600439070730999
 20
134.5903327848617721
 30
0.0
 11
61.4600439070730431
 21
134.5903327848617721
 31
0.0
  0
ARC
  5
158
100
AcDbEntity
  8
text
 62
256
370
-1
  6
ByLayer
100
AcDbCircle
 10
61.4600439070731568
 20
135.0903327848617721
 30
0.0
 40
0.5
100
AcDbArc
 50
270.0
 51
360.0
  0
LINE
  5
159
100
AcDbEntity
100
AcDbLine
  8
text
 62
256
370
-1
  6
ByLayer
 10
61.9600439070730431
 20
135.0903327848617721
 30
0.0
 11
61.9600439070729863
 21
135.9236661181951433
 31
0.0
  0
ARC
  5
15A
100
AcDbEntity
  8
inner-clamp
 62
256
370
-1
  6
ByLayer
100
AcDbCircle
 10
64.7593160662864875
 20
174.9061625825150372
 30
0.0
 40
5.0
100
AcDbArc
 50
270.0
 51
90.0000000000003268
  0
CIRCLE
  5
15B
100
AcDbEntity
100
AcDbCircle
  8
inner-clamp
 62
256
370
-1
  6
ByLayer
 10
64.7593160662864875
 20
174.9061625825150372
 30
0.0
 40
1.5
  0
CIRCLE
  5
15C
100
AcDbEntity
100
AcDbCircle
  8
inner-clamp
 62
256
370
-1
  6
ByLayer
 10
54.7593160662863738
 20
174.9061625825150088
 30
0.0
 40
1.5
  0
LINE
  5
15D
100
AcDbEntity
100
AcDbLine
  8
inner-clamp
 62
256
370
-1
  6
ByLayer
 10
64.759316066286317
 20
169.9061625825150088
 30
0.0
 11
42.2593160662839296
 21
169.9061625825150372
 31
0.0
  0
LINE
  5
15E
100
AcDbEntity
100
AcDbLine
  8
inner-clamp
 62
256
370
-1
  6
ByLayer
 10
42.2593160662841001
 20
179.9061625825150372
 30
0.0
 11
42.2593160662839296
 21
169.9061625825150372
 31
0.0
  0
LINE
  5
15F
100
AcDbEntity
100
AcDbLine
  8
inner-clamp
 62
256
370
-1
  6
ByLayer
 10
64.7593160662865444
 20
179.9061625825150657
 30
0.0
 11
42.2593160662841001
 21
179.9061625825150372
 31
0.0
  0
LINE
  5
160
100
AcDbEntity
100
AcDbLine
  8
text
 62
256
370
-1
  6
ByLayer
 10
43.3593160662861123
 20
176.1061625825150543
 30
0.0
 11
44.4259827329527752
 21
174.5061625825150315
 31
0.0
  0
LINE
  5
161
100
AcDbEntity
100
AcDbLine
  8
text
 62
256
370
-1
  6
ByLayer
 10
43.359316066286226
 20
174.5061625825150031
 30
0.0
 11
44.4259827329528321
 21
176.1061625825150543
 31
0.0
  0
LINE
  5
162
100
AcDbEntity
100
AcDbLine
  8
text
 62
256
370
-1
  6
ByLayer
 10
46.6926493996195973
 20
175.5728292491817228
 30
0.0
 11
46.4259827329528321
 21
175.5728292491817228
 31
0.0
  0
ARC
  5
163
100
AcDbEntity
  8
text
 62
256
370
-1
  6
ByLayer
100
AcDbCircle
 10
46.4259827329527752
 20
175.3061625825150429
 30
0.0
 40
0.2666666666666667
100
AcDbArc
 50
90.0
 51
180.0
  0
LINE
  5
164
100
AcDbEntity
100
AcDbLine
  8
text
 62
256
370
-1
  6
ByLayer
 10
46.1593160662861237
 20
175.3061625825150429
 30
0.0
 11
46.1593160662862374
 21
174.7728292491817115
 31
0.0
  0
ARC
  5
165
100
AcDbEntity
  8
text
 62
256
370
-1
  6
ByLayer
100
AcDbCircle
 10
46.4259827329527752
 20
174.7728292491817115
 30
0.0
 40
0.2666666666666667
100
AcDbArc
 50
180.0
 51
270.0
  0
LINE
  5
166
100
AcDbEntity
100
AcDbLine
  8
text
 62
256
370
-1
  6
ByLayer
 10
46.4259827329528321
 20
174.5061625825150315
 30
0.0
 11
46.6926493996193699
 21
174.5061625825150031
 31
0.0
  0
LINE
  5
167
100
AcDbEntity
100
AcDbLine
  8
text
 62
256
370
-1
  6
ByLayer
 10
47.2259827329529571
 20
176.1061625825150543
 30
0.0
 11
47.2259827329528434
 21
174.6839403602928371
 31
0.0
  0
ARC
  5
168
100
AcDbEntity
  8
text
 62
256
370
-1
  6
ByLayer
100
AcDbCircle
 10
47.4037605107305353
 20
174.6839403602928087
 30
0.0
 40
0.1777777777777778
100
AcDbArc
 50
180.0
 51
270.0
  0
LINE
  5
169
100
AcDbEntity
100
AcDbLine
  8
text
 62
256
370
-1
  6
ByLayer
 10
48.0259827329528548
 20
175.5728292491817228
 30
0.0
 11
48.3815382885083523
 21
175.5728292491817228
 31
0.0
  0
ARC
  5
16A
100
AcDbEntity
  8
text
 62
256
370
-1
  6
ByLayer
100
AcDbCircle
 10
48.3815382885082954
 20
175.3061625825150429
 30
0.0
 40
0.2666666666666667
100
AcDbArc
 50
0.0
 51
90.0
  0
LINE
  5
16B
100
AcDbEntity
100
AcDbLine
  8
text
 62
256
370
-1
  6
ByLayer
 10
48.6482049551751174
 20
175.3061625825150429
 30
0.0
 11
48.6482049551749469
 21
174.5061625825150031
 31
0.0
  0
LINE
  5
16C
100
AcDbEntity
100
AcDbLine
  8
text
 62
256
370
-1
  6
ByLayer
 10
48.6482049551749469
 20
174.5061625825150031
 30
0.0
 11
48.2037605107305467
 21
174.5061625825150315
 31
0.0
  0
ARC
  5
16D
100
AcDbEntity
  8
text
 62
256
370
-1
  6
ByLayer
100
AcDbCircle
 10
48.2037605107306035
 20
174.7728292491817115
 30
0.0
 40
0.2666666666666667
100
AcDbArc
 50
90.0
 51
270.0
  0
LINE
  5
16E
100
AcDbEntity
100
AcDbLine
  8
text
 62
256
370
-1
  6
ByLayer
 10
48.2037605107305467
 20
175.0394959158483914
 30
0.0
 11
48.6482049551750606
 21
175.0394959158483914
 31
0.0
  0
LINE
  5
16F
100
AcDbEntity
100
AcDbLine
  8
text
 62
256
370
-1
  6
ByLayer
 10
49.1815382885083636
 20
174.5061625825150315
 30
0.0
 11
49.1815382885084773
 21
175.5728292491816944
 31
0.0
  0
LINE
  5
170
100
AcDbEntity
100
AcDbLine
  8
text
 62
256
370
-1
  6
ByLayer
 10
49.1815382885084773
 20
175.5728292491816944
 30
0.0
 11
49.981538288508375
 21
175.5728292491816944
 31
0.0
  0
ARC
  5
171
100
AcDbEntity
  8
text
 62
256
370
-1
  6
ByLayer
100
AcDbCircle
 10
49.9815382885084887
 20
175.3061625825150429
 30
0.0
 40
0.2666666666666667
100
AcDbArc
 50
0.0
 51
90.0
  0
LINE
  5
172
100
AcDbEntity
100
AcDbLine
  8
text
 62
256
370
-1
  6
ByLayer
 10
50.2482049551749697
 20
175.3061625825150145
 30
0.0
 11
50.2482049551750833
 21
174.5061625825150315
 31
0.0
  0
LINE
  5
173
100
AcDbEntity
100
AcDbLine
  8
text
 62
256
370
-1
  6
ByLayer
 10
49.7148716218416666
 20
175.5728292491816944
 30
0.0
 11
49.7148716218417803
 21
174.5061625825150031
 31
0.0
  0
LINE
  5
174
100
AcDbEntity
100
AcDbLine
  8
text
 62
256
370
-1
  6
ByLayer
 10
50.7815382885083864
 20
174.5061625825150315
 30
0.0
 11
51.2259827329527866
 21
174.5061625825150315
 31
0.0
  0
ARC
  5
175
100
AcDbEntity
  8
text
 62
256
370
-1
  6
ByLayer
100
AcDbCircle
 10
51.2259827329529003
 20
174.7728292491817115
 30
0.0
 40
0.2666666666666667
100
AcDbArc
 50
270.0
 51
0.0
  0
LINE
  5
176
100
AcDbEntity
100
AcDbLine
  8
text
 62
256
370
-1
  6
ByLayer
 10
51.4926493996194381
 20
174.7728292491816831
 30
0.0
 11
51.4926493996195518
 21
175.3061625825150429
 31
0.0
  0
ARC
  5
177
100
AcDbEntity
  8
text
 62
256
370
-1
  6
ByLayer
100
AcDbCircle
 10
51.2259827329527866
 20
175.3061625825150429
 30
0.0
 40
0.2666666666666667
100
AcDbArc
 50
0.0
 51
90.0
  0
LINE
  5
178
100
AcDbEntity
100
AcDbLine
  8
text
 62
256
370
-1
  6
ByLayer
 10
51.2259827329529003
 20
175.5728292491817228
 30
0.0
 11
50.7815382885083295
 21
175.5728292491816944
 31
0.0
  0
LINE
  5
179
100
AcDbEntity
100
AcDbLine
  8
text
 62
256
370
-1
  6
ByLayer
 10
50.7815382885083295
 20
175.5728292491816944
 30
0.0
 11
50.7815382885083864
 21
173.9728292491817285
 31
0.0
  0
ARC
  5
17A
100
AcDbEntity
  8
inner-clamp
 62
256
370
-1
  6
ByLayer
100
AcDbCircle
 10
64.7593160662864875
 20
104.5761526610640431
 30
0.0
 40
5.0
100
AcDbArc
 50
270.0
 51
90.0000000000003268
  0
CIRCLE
  5
17B
100
AcDbEntity
100
AcDbCircle
  8
inner-clamp
 62
256
370
-1
  6
ByLayer
 10
64.7593160662864875
 20
104.5761526610640431
 30
0.0
 40
1.5
  0
CIRCLE
  5
17C
100
AcDbEntity
100
AcDbCircle
  8
inner-clamp
 62
256
370
-1
  6
ByLayer
 10
54.7593160662864307
 20
104.5761526610640999
 30
0.0
 40
1.5
  0
LINE
  5
17D
100
AcDbEntity
100
AcDbLine
  8
inner-clamp
 62
256
370
-1
  6
ByLayer
 10
64.7593160662866012
 20
99.5761526610640999
 30
0.0
 11
42.2593160662838727
 21
99.5761526610640999
 31
0.0
  0
LINE
  5
17E
100
AcDbEntity
100
AcDbLine
  8
inner-clamp
 62
256
370
-1
  6
ByLayer
 10
42.2593160662842138
 20
109.5761526610640999
 30
0.0
 11
42.2593160662838727
 21
99.5761526610640999
 31
0.0
  0
LINE
  5
17F
100
AcDbEntity
100
AcDbLine
  8
inner-clamp
 62
256
370
-1
  6
ByLayer
 10
64.759316066286317
 20
109.5761526610640999
 30
0.0
 11
42.2593160662842138
 21
109.5761526610640999
 31
0.0
  0
LINE
  5
180
100
AcDbEntity
100
AcDbLine
  8
text
 62
256
370
-1
  6
ByLayer
 10
43.359316066286226
 20
105.7761526610640885
 30
0.0
 11
44.4259827329528889
 21
104.1761526610640658
 31
0.0
  0
LINE
  5
181
100
AcDbEntity
100
AcDbLine
  8
text
 62
256
370
-1
  6
ByLayer
 10
43.3593160662862829
 20
104.1761526610640658
 30
0.0
 11
44.4259827329529458
 21
105.7761526610640885
 31
0.0
  0
LINE
  5
182
100
AcDbEntity
100
AcDbLine
  8
text
 62
256
370
-1
  6
ByLayer
 10
46.6926493996195973
 20
105.2428193277307287
 30
0.0
 11
46.4259827329528889
 21
105.2428193277307287
 31
0.0
  0
ARC
  5
183
100
AcDbEntity
  8
text
 62
256
370
-1
  6
ByLayer
100
AcDbCircle
 10
46.4259827329527752
 20
104.9761526610640772
 30
0.0
 40
0.2666666666666667
100
AcDbArc
 50
90.0
 51
180.0
  0
LINE
  5
184
100
AcDbEntity
100
AcDbLine
  8
text
 62
256
370
-1
  6
ByLayer
 10
46.1593160662862942
 20
104.9761526610640772
 30
0.0
 11
46.1593160662862374
 21
104.4428193277307741
 31
0.0
  0
ARC
  5
185
100
AcDbEntity
  8
text
 62
256
370
-1
  6
ByLayer
100
AcDbCircle
 10
46.4259827329527184
 20
104.4428193277307741
 30
0.0
 40
0.2666666666666667
100
AcDbArc
 50
180.0
 51
270.0
  0
LINE
  5
186
100
AcDbEntity
100
AcDbLine
  8
text
 62
256
370
-1
  6
ByLayer
 10
46.4259827329527752
 20
104.1761526610640658
 30
0.0
 11
46.6926493996195404
 21
104.1761526610640658
 31
0.0
  0
LINE
  5
187
100
AcDbEntity
100
AcDbLine
  8
text
 62
256
370
-1
  6
ByLayer
 10
47.2259827329529003
 20
105.7761526610640885
 30
0.0
 11
47.2259827329528434
 21
104.3539304388418714
 31
0.0
  0
ARC
  5
188
100
AcDbEntity
  8
text
 62
256
370
-1
  6
ByLayer
100
AcDbCircle
 10
47.4037605107305922
 20
104.3539304388418714
 30
0.0
 40
0.1777777777777778
100
AcDbArc
 50
180.0
 51
270.0
  0
LINE
  5
189
100
AcDbEntity
100
AcDbLine
  8
text
 62
256
370
-1
  6
ByLayer
 10
48.025982732952798
 20
105.2428193277307287
 30
0.0
 11
48.3815382885084091
 21
105.2428193277306718
 31
0.0
  0
ARC
  5
18A
100
AcDbEntity
  8
text
 62
256
370
-1
  6
ByLayer
100
AcDbCircle
 10
48.3815382885082954
 20
104.9761526610640772
 30
0.0
 40
0.2666666666666667
100
AcDbArc
 50
0.0
 51
90.0
  0
LINE
  5
18B
100
AcDbEntity
100
AcDbLine
  8
text
 62
256
370
-1
  6
ByLayer
 10
48.6482049551750038
 20
104.9761526610640772
 30
0.0
 11
48.6482049551749469
 21
104.1761526610640658
 31
0.0
  0
LINE
  5
18C
100
AcDbEntity
100
AcDbLine
  8
text
 62
256
370
-1
  6
ByLayer
 10
48.6482049551749469
 20
104.1761526610640658
 30
0.0
 11
48.2037605107306035
 21
104.1761526610640658
 31
0.0
  0
ARC
  5
18D
100
AcDbEntity
  8
text
 62
256
370
-1
  6
ByLayer
100
AcDbCircle
 10
48.2037605107305467
 20
104.4428193277307741
 30
0.0
 40
0.2666666666666667
100
AcDbArc
 50
90.0
 51
270.0
  0
LINE
  5
18E
100
AcDbEntity
100
AcDbLine
  8
text
 62
256
370
-1
  6
ByLayer
 10
48.2037605107306035
 20
104.7094859943974257
 30
0.0
 11
48.6482049551750606
 21
104.7094859943974257
 31
0.0
  0
LINE
  5
18F
100
AcDbEntity
100
AcDbLine
  8
text
 62
256
370
-1
  6
ByLayer
 10
49.1815382885083068
 20
104.176152661064009
 30
0.0
 11
49.1815382885083636
 21
105.2428193277307287
 31
0.0
  0
LINE
  5
190
100
AcDbEntity
100
AcDbLine
  8
text
 62
256
370
-1
  6
ByLayer
 10
49.1815382885083636
 20
105.2428193277307287
 30
0.0
 11
49.9815382885084318
 21
105.2428193277307287
 31
0.0
  0
ARC
  5
191
100
AcDbEntity
  8
text
 62
256
370
-1
  6
ByLayer
100
AcDbCircle
 10
49.981538288508375
 20
104.9761526610640772
 30
0.0
 40
0.2666666666666667
100
AcDbArc
 50
0.0
 51
90.0
  0
LINE
  5
192
100
AcDbEntity
100
AcDbLine
  8
text
 62
256
370
-1
  6
ByLayer
 10
50.2482049551750833
 20
104.9761526610640772
 30
0.0
 11
50.2482049551749128
 21
104.1761526610640658
 31
0.0
  0
LINE
  5
193
100
AcDbEntity
100
AcDbLine
  8
text
 62
256
370
-1
  6
ByLayer
 10
49.7148716218417803
 20
105.2428193277307287
 30
0.0
 11
49.7148716218417803
 21
104.1761526610640658
 31
0.0
  0
LINE
  5
194
100
AcDbEntity
100
AcDbLine
  8
text
 62
256
370
-1
  6
ByLayer
 10
50.7815382885082727
 20
104.1761526610640658
 30
0.0
 11
51.2259827329528434
 21
104.1761526610640658
 31
0.0
  0
ARC
  5
195
100
AcDbEntity
  8
text
 62
256
370
-1
  6
ByLayer
100
AcDbCircle
 10
51.2259827329527866
 20
104.4428193277307173
 30
0.0
 40
0.2666666666666667
100
AcDbArc
 50
270.0
 51
0.0
  0
LINE
  5
196
100
AcDbEntity
100
AcDbLine
  8
text
 62
256
370
-1
  6
ByLayer
 10
51.4926493996195518
 20
104.4428193277307741
 30
0.0
 11
51.4926493996193244
 21
104.9761526610640772
 31
0.0
  0
ARC
  5
197
100
AcDbEntity
  8
text
 62
256
370
-1
  6
ByLayer
100
AcDbCircle
 10
51.2259827329529571
 20
104.9761526610640772
 30
0.0
 40
0.2666666666666667
100
AcDbArc
 50
0.0
 51
90.0
  0
LINE
  5
198
100
AcDbEntity
100
AcDbLine
  8
text
 62
256
370
-1
  6
ByLayer
 10
51.2259827329529003
 20
105.2428193277307287
 30
0.0
 11
50.7815382885082727
 21
105.2428193277306718
 31
0.0
  0
LINE
  5
199
100
AcDbEntity
100
AcDbLine
  8
text
 62
256
370
-1
  6
ByLayer
 10
50.7815382885082727
 20
105.2428193277306718
 30
0.0
 11
50.7815382885083295
 21
103.6428193277307628
 31
0.0
  0
LINE
  5
19A
100
AcDbEntity
100
AcDbLine
  8
rod-backplate
 62
256
370
-1
  6
ByLayer
 10
36.0928094062797982
 20
213.6480678186167381
 30
0.0
 11
28.0928094062797982
 21
213.648067818616795
 31
0.0
  0
LINE
  5
19B
100
AcDbEntity
100
AcDbLine
  8
rod-backplate
 62
256
370
-1
  6
ByLayer
 10
36.0928094062797982
 20
266.0480678186168007
 30
0.0
 11
28.0928094062797982
 21
266.0480678186168007
 31
0.0
  0
LINE
  5
19C
100
AcDbEntity
100
AcDbLine
  8
rod-backplate
 62
256
370
-1
  6
ByLayer
 10
36.0928094062797982
 20
213.6480678186167381
 30
0.0
 11
36.0928094062797982
 21
266.0480678186168007
 31
0.0
  0
LINE
  5
19D
100
AcDbEntity
100
AcDbLine
  8
rod-backplate
 62
256
370
-1
  6
ByLayer
 10
19.5928094062796845
 20
253.8480678186167836
 30
0.0
 11
19.5928094062797982
 21
225.8480678186167268
 31
0.0
  0
LINE
  5
19E
100
AcDbEntity
100
AcDbLine
  8
rod-backplate
 62
256
370
-1
  6
ByLayer
 10
19.5928094062797982
 20
213.648067818616795
 30
0.0
 11
36.0928094062797982
 21
213.648067818616795
 31
0.0
  0
LINE
  5
19F
100
AcDbEntity
100
AcDbLine
  8
rod-backplate
 62
256
370
-1
  6
ByLayer
 10
19.5928094062797982
 20
213.8480678186167268
 30
0.0
 11
19.5928094062797982
 21
213.648067818616795
 31
0.0
  0
LINE
  5
1A0
100
AcDbEntity
100
AcDbLine
  8
rod-backplate
 62
256
370
-1
  6
ByLayer
 10
36.0928094062797982
 20
266.0480678186168007
 30
0.0
 11
19.5928094062797982
 21
266.0480678186168007
 31
0.0
  0
LINE
  5
1A1
100
AcDbEntity
100
AcDbLine
  8
rod-backplate
 62
256
370
-1
  6
ByLayer
 10
19.5928094062797982
 20
265.8480678186167552
 30
0.0
 11
19.5928094062797982
 21
266.0480678186168007
 31
0.0
  0
ARC
  5
1A2
100
AcDbEntity
  8
rod-backplate
 62
256
370
-1
  6
ByLayer
100
AcDbCircle
 10
19.5928094062797982
 20
259.8480678186167552
 30
0.0
 40
6.0
100
AcDbArc
 50
90.0
 51
270.0
  0
ARC
  5
1A3
100
AcDbEntity
  8
rod-backplate
 62
256
370
-1
  6
ByLayer
100
AcDbCircle
 10
19.5928094062797982
 20
219.8480678186167268
 30
0.0
 40
6.0
100
AcDbArc
 50
90.0
 51
270.0
  0
LINE
  5
1A4
100
AcDbEntity
100
AcDbLine
  8
text
 62
256
370
-1
  6
ByLayer
 10
32.579476072946477
 20
261.7550953784769945
 30
0.0
 11
28.579476072946477
 21
259.088428711810252
 31
0.0
  0
LINE
  5
1A5
100
AcDbEntity
100
AcDbLine
  8
text
 62
256
370
-1
  6
ByLayer
 10
28.579476072946477
 20
261.7550953784769945
 30
0.0
 11
32.579476072946477
 21
259.088428711810252
 31
0.0
  0
LINE
  5
1A6
100
AcDbEntity
100
AcDbLine
  8
text
 62
256
370
-1
  6
ByLayer
 10
31.2461427396132194
 20
253.4217620451436517
 30
0.0
 11
31.2461427396132194
 21
254.0884287118102804
 31
0.0
  0
ARC
  5
1A7
100
AcDbEntity
  8
text
 62
256
370
-1
  6
ByLayer
100
AcDbCircle
 10
30.579476072946477
 20
254.0884287118102804
 30
0.0
 40
0.6666666666666666
100
AcDbArc
 50
360.0
 51
90.0
  0
LINE
  5
1A8
100
AcDbEntity
100
AcDbLine
  8
text
 62
256
370
-1
  6
ByLayer
 10
30.579476072946477
 20
254.7550953784769661
 30
0.0
 11
29.2461427396132194
 21
254.7550953784769092
 31
0.0
  0
ARC
  5
1A9
100
AcDbEntity
  8
text
 62
256
370
-1
  6
ByLayer
100
AcDbCircle
 10
29.2461427396132194
 20
254.0884287118102804
 30
0.0
 40
0.6666666666666666
100
AcDbArc
 50
90.0
 51
180.0
  0
LINE
  5
1AA
100
AcDbEntity
100
AcDbLine
  8
text
 62
256
370
-1
  6
ByLayer
 10
28.579476072946477
 20
254.0884287118102804
 30
0.0
 11
28.579476072946477
 21
253.4217620451436517
 31
0.0
  0
LINE
  5
1AB
100
AcDbEntity
100
AcDbLine
  8
text
 62
256
370
-1
  6
ByLayer
 10
31.2461427396132194
 20
251.8662064895880519
 30
0.0
 11
31.2461427396132194
 21
250.9773176006991946
 31
0.0
  0
ARC
  5
1AC
100
AcDbEntity
  8
text
 62
256
370
-1
  6
ByLayer
100
AcDbCircle
 10
30.579476072946477
 20
250.9773176006991946
 30
0.0
 40
0.6666666666666666
100
AcDbArc
 50
270.0
 51
360.0
  0
LINE
  5
1AD
100
AcDbEntity
100
AcDbLine
  8
text
 62
256
370
-1
  6
ByLayer
 10
30.579476072946477
 20
250.310650934032509
 30
0.0
 11
28.579476072946477
 21
250.310650934032509
 31
0.0
  0
LINE
  5
1AE
100
AcDbEntity
100
AcDbLine
  8
text
 62
256
370
-1
  6
ByLayer
 10
28.579476072946477
 20
250.310650934032509
 30
0.0
 11
28.579476072946477
 21
251.421762045143538
 31
0.0
  0
ARC
  5
1AF
100
AcDbEntity
  8
text
 62
256
370
-1
  6
ByLayer
100
AcDbCircle
 10
29.2461427396132194
 20
251.421762045143538
 30
0.0
 40
0.6666666666666666
100
AcDbArc
 50
360.0
 51
180.0
  0
LINE
  5
1B0
100
AcDbEntity
100
AcDbLine
  8
text
 62
256
370
-1
  6
ByLayer
 10
29.9128094062797345
 20
251.421762045143538
 30
0.0
 11
29.9128094062797345
 21
250.3106509340325658
 31
0.0
  0
LINE
  5
1B1
100
AcDbEntity
100
AcDbLine
  8
text
 62
256
370
-1
  6
ByLayer
 10
28.579476072946477
 20
248.9773176006991946
 30
0.0
 11
28.579476072946477
 21
247.8662064895881088
 31
0.0
  0
ARC
  5
1B2
100
AcDbEntity
  8
text
 62
256
370
-1
  6
ByLayer
100
AcDbCircle
 10
29.2461427396132194
 20
247.8662064895881088
 30
0.0
 40
0.6666666666666666
100
AcDbArc
 50
180.0
 51
270.0
  0
LINE
  5
1B3
100
AcDbEntity
100
AcDbLine
  8
text
 62
256
370
-1
  6
ByLayer
 10
29.2461427396132194
 20
247.1995398229214231
 30
0.0
 11
30.579476072946477
 21
247.1995398229214231
 31
0.0
  0
ARC
  5
1B4
100
AcDbEntity
  8
text
 62
256
370
-1
  6
ByLayer
100
AcDbCircle
 10
30.579476072946477
 20
247.8662064895881088
 30
0.0
 40
0.6666666666666666
100
AcDbArc
 50
270.0
 51
360.0
  0
LINE
  5
1B5
100
AcDbEntity
100
AcDbLine
  8
text
 62
256
370
-1
  6
ByLayer
 10
31.2461427396132194
 20
247.8662064895881088
 30
0.0
 11
31.2461427396132194
 21
248.9773176006991946
 31
0.0
  0
LINE
  5
1B6
100
AcDbEntity
100
AcDbLine
  8
text
 62
256
370
-1
  6
ByLayer
 10
31.2461427396132194
 20
248.9773176006991946
 30
0.0
 11
27.2461427396132194
 21
248.9773176006991946
 31
0.0
  0
CIRCLE
  5
1B7
100
AcDbEntity
100
AcDbCircle
  8
rod-backplate
 62
256
370
-1
  6
ByLayer
 10
25.0928094062797982
 20
247.8480678186167836
 30
0.0
 40
1.5
  0
CIRCLE
  5
1B8
100
AcDbEntity
100
AcDbCircle
  8
rod-backplate
 62
256
370
-1
  6
ByLayer
 10
25.0928094062796845
 20
231.8480678186167836
 30
0.0
 40
1.5
  0
LINE
  5
1B9
100
AcDbEntity
100
AcDbLine
  8
rod-support
 62
256
370
-1
  6
ByLayer
 10
101.407367416082252
 20
281.1736689682857104
 30
0.0
 11
101.4073674160821952
 21
273.1736689682857104
 31
0.0
  0
LINE
  5
1BA
100
AcDbEntity
100
AcDbLine
  8
rod-support
 62
256
370
-1
  6
ByLayer
 10
49.0073674160822179
 20
281.1736689682857104
 30
0.0
 11
49.0073674160822179
 21
273.1736689682857673
 31
0.0
  0
LINE
  5
1BB
100
AcDbEntity
100
AcDbLine
  8
rod-support
 62
256
370
-1
  6
ByLayer
 10
101.407367416082252
 20
281.1736689682857104
 30
0.0
 11
49.0073674160822179
 21
281.1736689682857104
 31
0.0
  0
LINE
  5
1BC
100
AcDbEntity
100
AcDbLine
  8
rod-support
 62
256
370
-1
  6
ByLayer
 10
61.2073674160822065
 20
264.6736689682857104
 30
0.0
 11
89.2073674160822634
 21
264.6736689682857104
 31
0.0
  0
ARC
  5
1BD
100
AcDbEntity
  8
rod-support
 62
256
370
-1
  6
ByLayer
100
AcDbCircle
 10
55.2073674160822065
 20
264.6736689682857104
 30
0.0
 40
6.0
100
AcDbArc
 50
270.0
 51
360.0
  0
ARC
  5
1BE
100
AcDbEntity
  8
rod-support
 62
256
370
-1
  6
ByLayer
100
AcDbCircle
 10
95.2073674160822634
 20
264.6736689682857104
 30
0.0
 40
6.0
100
AcDbArc
 50
180.0
 51
270.0
  0
LINE
  5
1BF
100
AcDbEntity
100
AcDbLine
  8
rod-support
 62
256
370
-1
  6
ByLayer
 10
55.2073674160822065
 20
258.6736689682857104
 30
0.0
 11
55.2073674160821497
 21
243.793668968285715
 31
0.0
  0
LINE
  5
1C0
100
AcDbEntity
100
AcDbLine
  8
rod-support
 62
256
370
-1
  6
ByLayer
 10
95.2073674160822634
 20
258.6736689682857104
 30
0.0
 11
95.2073674160822065
 21
243.793668968285715
 31
0.0
  0
CIRCLE
  5
1C1
100
AcDbEntity
100
AcDbCircle
  8
rod-support
 62
256
370
-1
  6
ByLayer
 10
55.2073674160822065
 20
264.6736689682857104
 30
0.0
 40
3.9700000000000002
  0
CIRCLE
  5
1C2
100
AcDbEntity
100
AcDbCircle
  8
rod-support
 62
256
370
-1
  6
ByLayer
 10
95.2073674160822634
 20
264.6736689682857104
 30
0.0
 40
3.9700000000000002
  0
LINE
  5
1C3
100
AcDbEntity
100
AcDbLine
  8
text
 62
256
370
-1
  6
ByLayer
 10
50.6336731895553385
 20
277.6603356349524461
 30
0.0
 11
53.3003398562220241
 21
273.6603356349524461
 31
0.0
  0
LINE
  5
1C4
100
AcDbEntity
100
AcDbLine
  8
text
 62
256
370
-1
  6
ByLayer
 10
50.6336731895553385
 20
273.6603356349524461
 30
0.0
 11
53.3003398562219672
 21
277.6603356349524461
 31
0.0
  0
LINE
  5
1C5
100
AcDbEntity
100
AcDbLine
  8
text
 62
256
370
-1
  6
ByLayer
 10
58.0781176339997955
 20
273.6603356349524461
 30
0.0
 11
58.0781176339997955
 21
276.9936689682857605
 31
0.0
  0
ARC
  5
1C6
100
AcDbEntity
  8
text
 62
256
370
-1
  6
ByLayer
100
AcDbCircle
 10
58.7447843006664812
 20
276.9936689682857605
 30
0.0
 40
0.6666666666666666
100
AcDbArc
 50
90.0
 51
180.0
  0
LINE
  5
1C7
100
AcDbEntity
100
AcDbLine
  8
text
 62
256
370
-1
  6
ByLayer
 10
58.7447843006664243
 20
277.6603356349524461
 30
0.0
 11
58.9670065228886529
 21
277.6603356349524461
 31
0.0
  0
LINE
  5
1C8
100
AcDbEntity
100
AcDbLine
  8
text
 62
256
370
-1
  6
ByLayer
 10
57.6336731895553385
 20
276.3270023016191317
 30
0.0
 11
58.9670065228886529
 21
276.3270023016191317
 31
0.0
  0
LINE
  5
1C9
100
AcDbEntity
100
AcDbLine
  8
text
 62
256
370
-1
  6
ByLayer
 10
60.3003398562220241
 20
273.6603356349524461
 30
0.0
 11
60.3003398562220241
 21
276.3270023016191317
 31
0.0
  0
LINE
  5
1CA
100
AcDbEntity
100
AcDbLine
  8
text
 62
256
370
-1
  6
ByLayer
 10
60.3003398562220241
 20
276.3270023016191317
 30
0.0
 11
61.1892287451108814
 21
276.3270023016191317
 31
0.0
  0
ARC
  5
1CB
100
AcDbEntity
  8
text
 62
256
370
-1
  6
ByLayer
100
AcDbCircle
 10
61.1892287451109382
 20
275.8825578571746746
 30
0.0
 40
0.4444444444444444
100
AcDbArc
 50
360.0
 51
90.0
  0
LINE
  5
1CC
100
AcDbEntity
100
AcDbLine
  8
text
 62
256
370
-1
  6
ByLayer
 10
62.9670065228887097
 20
275.4381134127302175
 30
0.0
 11
62.9670065228887097
 21
274.5492245238413602
 31
0.0
  0
ARC
  5
1CD
100
AcDbEntity
  8
text
 62
256
370
-1
  6
ByLayer
100
AcDbCircle
 10
63.8558954117776238
 20
274.5492245238413602
 30
0.0
 40
0.8888888888888888
100
AcDbArc
 50
180.0
 51
360.0
  0
LINE
  5
1CE
100
AcDbEntity
100
AcDbLine
  8
text
 62
256
370
-1
  6
ByLayer
 10
64.7447843006664812
 20
274.5492245238413602
 30
0.0
 11
64.7447843006664812
 21
275.4381134127302175
 31
0.0
  0
ARC
  5
1CF
100
AcDbEntity
  8
text
 62
256
370
-1
  6
ByLayer
100
AcDbCircle
 10
63.8558954117776238
 20
275.4381134127302175
 30
0.0
 40
0.8888888888888888
100
AcDbArc
 50
360.0
 51
180.0
  0
LINE
  5
1D0
100
AcDbEntity
100
AcDbLine
  8
text
 62
256
370
-1
  6
ByLayer
 10
66.0781176339997955
 20
273.6603356349524461
 30
0.0
 11
66.0781176339997955
 21
276.3270023016191317
 31
0.0
  0
LINE
  5
1D1
100
AcDbEntity
100
AcDbLine
  8
text
 62
256
370
-1
  6
ByLayer
 10
66.0781176339997955
 20
276.3270023016191317
 30
0.0
 11
67.1892287451109382
 21
276.3270023016191317
 31
0.0
  0
ARC
  5
1D2
100
AcDbEntity
  8
text
 62
256
370
-1
  6
ByLayer
100
AcDbCircle
 10
67.1892287451109951
 20
275.6603356349524461
 30
0.0
 40
0.6666666666666666
100
AcDbArc
 50
360.0
 51
90.0
  0
LINE
  5
1D3
100
AcDbEntity
100
AcDbLine
  8
text
 62
256
370
-1
  6
ByLayer
 10
67.855895411777567
 20
275.6603356349524461
 30
0.0
 11
67.855895411777567
 21
273.6603356349524461
 31
0.0
  0
LINE
  5
1D4
100
AcDbEntity
100
AcDbLine
  8
text
 62
256
370
-1
  6
ByLayer
 10
69.1892287451108814
 20
276.3270023016191317
 30
0.0
 11
70.5225620784441958
 21
276.3270023016191317
 31
0.0
  0
LINE
  5
1D5
100
AcDbEntity
100
AcDbLine
  8
text
 62
256
370
-1
  6
ByLayer
 10
69.6336731895553385
 20
277.6603356349524461
 30
0.0
 11
69.6336731895553385
 21
273.6603356349524461
 31
0.0
  0
CIRCLE
  5
1D6
100
AcDbEntity
100
AcDbCircle
  8
rod-support
 62
256
370
-1
  6
ByLayer
 10
67.2073674160822065
 20
270.1736689682857104
 30
0.0
 40
1.5
  0
CIRCLE
  5
1D7
100
AcDbEntity
100
AcDbCircle
  8
rod-support
 62
256
370
-1
  6
ByLayer
 10
83.2073674160822065
 20
270.1736689682857104
 30
0.0
 40
1.5
  0
LINE
  5
1D8
100
AcDbEntity
100
AcDbLine
  8
rod-support
 62
256
370
-1
  6
ByLayer
 10
109.0073674160822179
 20
281.1736689682857104
 30
0.0
 11
106.5073674160822748
 21
281.1736689682857104
 31
0.0
  0
CIRCLE
  5
1D9
100
AcDbEntity
100
AcDbCircle
  8
rod-support
 62
256
370
-1
  6
ByLayer
 10
112.1073674160821838
 20
244.5936689682857264
 30
0.0
 40
1.5
  0
CIRCLE
  5
1DA
100
AcDbEntity
100
AcDbCircle
  8
rod-support
 62
256
370
-1
  6
ByLayer
 10
112.1073674160821838
 20
263.5936689682857264
 30
0.0
 40
1.5
  0
LINE
  5
1DB
100
AcDbEntity
100
AcDbLine
  8
rod-support
 62
256
370
-1
  6
ByLayer
 10
109.0073674160822179
 20
241.793668968285715
 30
0.0
 11
115.2073674160821497
 21
241.7936689682856581
 31
0.0
  0
LINE
  5
1DC
100
AcDbEntity
100
AcDbLine
  8
rod-support
 62
256
370
-1
  6
ByLayer
 10
115.2073674160822065
 20
266.3936689682857377
 30
0.0
 11
115.2073674160822065
 21
260.0936689682857264
 31
0.0
  0
LINE
  5
1DD
100
AcDbEntity
100
AcDbLine
  8
rod-support
 62
256
370
-1
  6
ByLayer
 10
115.2073674160822065
 20
248.0936689682857264
 30
0.0
 11
115.2073674160821497
 21
241.7936689682856581
 31
0.0
  0
LINE
  5
1DE
100
AcDbEntity
100
AcDbLine
  8
rod-support
 62
256
370
-1
  6
ByLayer
 10
109.0073674160822179
 20
260.0936689682857264
 30
0.0
 11
115.2073674160822065
 21
260.0936689682857264
 31
0.0
  0
LINE
  5
1DF
100
AcDbEntity
100
AcDbLine
  8
rod-support
 62
256
370
-1
  6
ByLayer
 10
109.0073674160822179
 20
248.0936689682857264
 30
0.0
 11
115.2073674160822065
 21
248.0936689682857264
 31
0.0
  0
LINE
  5
1E0
100
AcDbEntity
100
AcDbLine
  8
rod-support
 62
256
370
-1
  6
ByLayer
 10
109.0073674160822179
 20
260.0936689682857264
 30
0.0
 11
109.0073674160822179
 21
248.0936689682857264
 31
0.0
  0
LINE
  5
1E1
100
AcDbEntity
100
AcDbLine
  8
rod-support
 62
256
370
-1
  6
ByLayer
 10
109.0073674160822179
 20
281.1736689682857104
 30
0.0
 11
109.0073674160822179
 21
266.3936689682857377
 31
0.0
  0
LINE
  5
1E2
100
AcDbEntity
100
AcDbLine
  8
rod-support
 62
256
370
-1
  6
ByLayer
 10
109.0073674160822179
 20
266.3936689682857377
 30
0.0
 11
115.2073674160822065
 21
266.3936689682857377
 31
0.0
  0
CIRCLE
  5
1E3
100
AcDbEntity
100
AcDbCircle
  8
rod-support
 62
256
370
-1
  6
ByLayer
 10
104.1073674160821838
 20
254.6736689682856536
 30
0.0
 40
1.5
  0
LINE
  5
1E4
100
AcDbEntity
100
AcDbLine
  8
rod-support
 62
256
370
-1
  6
ByLayer
 10
41.407367416082252
 20
281.1736689682857104
 30
0.0
 11
44.0073674160822179
 21
281.1736689682857104
 31
0.0
  0
CIRCLE
  5
1E5
100
AcDbEntity
100
AcDbCircle
  8
rod-support
 62
256
370
-1
  6
ByLayer
 10
46.307367416082343
 20
254.6736689682857104
 30
0.0
 40
1.5
  0
LINE
  5
1E6
100
AcDbEntity
100
AcDbLine
  8
rod-support
 62
256
370
-1
  6
ByLayer
 10
41.4073674160823089
 20
243.7936689682857718
 30
0.0
 11
55.2073674160821497
 21
243.793668968285715
 31
0.0
  0
LINE
  5
1E7
100
AcDbEntity
100
AcDbLine
  8
rod-support
 62
256
370
-1
  6
ByLayer
 10
41.4073674160823089
 20
243.7936689682857718
 30
0.0
 11
41.407367416082252
 21
281.1736689682857104
 31
0.0
  0
LINE
  5
1E8
100
AcDbEntity
100
AcDbLine
  8
rod-support
 62
256
370
-1
  6
ByLayer
 10
44.0073674160822179
 20
273.1736689682857673
 30
0.0
 11
49.0073674160822179
 21
273.1736689682857673
 31
0.0
  0
LINE
  5
1E9
100
AcDbEntity
100
AcDbLine
  8
rod-support
 62
256
370
-1
  6
ByLayer
 10
44.0073674160822179
 20
281.1736689682857104
 30
0.0
 11
44.0073674160822179
 21
273.1736689682857673
 31
0.0
  0
LINE
  5
1EA
100
AcDbEntity
100
AcDbLine
  8
rod-support
 62
256
370
-1
  6
ByLayer
 10
106.407367416082252
 20
281.1736689682857104
 30
0.0
 11
106.4073674160821952
 21
273.1736689682857673
 31
0.0
  0
LINE
  5
1EB
100
AcDbEntity
100
AcDbLine
  8
rod-support
 62
256
370
-1
  6
ByLayer
 10
101.4073674160821952
 20
273.1736689682857104
 30
0.0
 11
106.4073674160821952
 21
273.1736689682857673
 31
0.0
  0
LINE
  5
1EC
100
AcDbEntity
100
AcDbLine
  8
rod-support
 62
256
370
-1
  6
ByLayer
 10
95.2073674160822065
 20
243.793668968285715
 30
0.0
 11
109.0073674160822179
 21
243.793668968285715
 31
0.0
  0
LINE
  5
1ED
100
AcDbEntity
100
AcDbLine
  8
side
 62
256
370
-1
  6
ByLayer
 10
109.0073674160822179
 20
243.793668968285715
 30
0.0
 11
109.0073674160822179
 21
241.793668968285715
 31
0.0
  0
INSERT
  5
1EE
100
AcDbEntity
100
AcDbBlockReference
  8
0
 62
256
370
-1
  6
ByLayer
  2
nema17
 10
156.0932013761081407
 20
102.1046851776645781
 30
0.0
 44
1.0
 45
1.0
  0
LINE
  5
1EF
100
AcDbEntity
100
AcDbLine
  8
main-deck
 62
256
370
-1
  6
ByLayer
 10
125.2932013547910515
 20
81.0246851776645372
 30
0.0
 11
177.6932013547910856
 21
81.0246851776645087
 31
0.0
  0
LINE
  5
1F0
100
AcDbEntity
100
AcDbLine
  8
main-deck
 62
256
370
-1
  6
ByLayer
 10
177.6932013547910856
 20
81.0246851776645087
 30
0.0
 11
177.6932013547910856
 21
102.1046851776644928
 31
0.0
  0
LINE
  5
1F1
100
AcDbEntity
100
AcDbLine
  8
main-deck
 62
256
370
-1
  6
ByLayer
 10
125.2932013547909946
 20
102.1046851776645212
 30
0.0
 11
125.2932013547910515
 21
81.0246851776645372
 31
0.0
  0
LINE
  5
1F2
100
AcDbEntity
100
AcDbLine
  8
main-deck
 62
256
370
-1
  6
ByLayer
 10
177.6932013547911993
 20
289.0246851776643666
 30
0.0
 11
125.2932013547911652
 21
289.0246851776645372
 31
0.0
  0
LINE
  5
1F3
100
AcDbEntity
100
AcDbLine
  8
main-deck
 62
256
370
-1
  6
ByLayer
 10
125.2932013547911652
 20
289.0246851776645372
 30
0.0
 11
125.2932013547911652
 21
269.5246851776644803
 31
0.0
  0
LINE
  5
1F4
100
AcDbEntity
100
AcDbLine
  8
main-deck
 62
256
370
-1
  6
ByLayer
 10
177.6932013547911993
 20
289.0246851776643666
 30
0.0
 11
177.6932013547911993
 21
269.5246851776643098
 31
0.0
  0
ARC
  5
1F5
100
AcDbEntity
  8
main-deck
 62
256
370
-1
  6
ByLayer
100
AcDbCircle
 10
151.2432013547912675
 20
277.024685179249218
 30
0.0
 40
3.0
100
AcDbArc
 50
360.0
 51
180.0
  0
ARC
  5
1F6
100
AcDbEntity
  8
main-deck
 62
256
370
-1
  6
ByLayer
100
AcDbCircle
 10
151.2432013547912675
 20
267.0246851792488769
 30
0.0
 40
3.0
100
AcDbArc
 50
170.4059317731405372
 51
9.5940682268595019
  0
LINE
  5
1F7
100
AcDbEntity
100
AcDbLine
  8
main-deck
 62
256
370
-1
  6
ByLayer
 10
148.2432013547912675
 20
277.0246851792488769
 30
0.0
 11
148.2432013547912675
 21
267.0246851792488769
 31
0.0
  0
LINE
  5
1F8
100
AcDbEntity
100
AcDbLine
  8
main-deck
 62
256
370
-1
  6
ByLayer
 10
154.2432013547912675
 20
267.0246851792489338
 30
0.0
 11
154.2432013547912675
 21
277.0246851792487632
 31
0.0
  0
CIRCLE
  5
1F9
100
AcDbEntity
100
AcDbCircle
  8
main-deck
 62
256
370
-1
  6
ByLayer
 10
151.4932013547911538
 20
189.274685177664594
 30
0.0
 40
1.5
  0
LINE
  5
1FA
100
AcDbEntity
100
AcDbLine
  8
text
 62
256
370
-1
  6
ByLayer
 10
153.1224511368735648
 20
135.4415093057719446
 30
0.0
 11
159.1224511368734511
 21
139.4415093057718877
 31
0.0
  0
LINE
  5
1FB
100
AcDbEntity
100
AcDbLine
  8
text
 62
256
370
-1
  6
ByLayer
 10
159.1224511368734511
 20
135.4415093057718877
 30
0.0
 11
153.1224511368735648
 21
139.4415093057718877
 31
0.0
  0
ARC
  5
1FC
100
AcDbEntity
  8
text
 62
256
370
-1
  6
ByLayer
100
AcDbCircle
 10
157.9084511368735093
 20
147.3841759724385554
 30
0.0
 40
2.7046666666666668
100
AcDbArc
 50
153.0999999999999943
 51
198.2999999999999829
  0
ARC
  5
1FD
100
AcDbEntity
  8
text
 62
256
370
-1
  6
ByLayer
100
AcDbCircle
 10
156.0997844702069415
 20
146.7868426391052878
 30
0.0
 40
0.7999999999999999
100
AcDbArc
 50
198.2999999999999829
 51
337.8000000000000114
  0
LINE
  5
1FE
100
AcDbEntity
100
AcDbLine
  8
text
 62
256
370
-1
  6
ByLayer
 10
156.8404511368735257
 20
146.4845759724385346
 30
0.0
 11
157.485784470206795
 21
148.064842639105251
 31
0.0
  0
ARC
  5
1FF
100
AcDbEntity
  8
text
 62
256
370
-1
  6
ByLayer
100
AcDbCircle
 10
158.2264511368734929
 20
147.7628426391052585
 30
0.0
 40
0.7999999999999999
100
AcDbArc
 50
18.3000000000000327
 51
157.7900000000000205
  0
ARC
  5
200
100
AcDbEntity
  8
text
 62
256
370
-1
  6
ByLayer
100
AcDbCircle
 10
156.4177844702068114
 20
147.1655093057719057
 30
0.0
 40
2.7046666666666668
100
AcDbArc
 50
333.0999999999999659
 51
18.3000000000000327
  0
LINE
  5
201
100
AcDbEntity
100
AcDbLine
  8
text
 62
256
370
-1
  6
ByLayer
 10
155.1224511368735648
 20
150.6078610495572718
 30
0.0
 11
155.1224511368735648
 21
152.6078610495572434
 31
0.0
  0
LINE
  5
202
100
AcDbEntity
100
AcDbLine
  8
text
 62
256
370
-1
  6
ByLayer
 10
153.1224511368735648
 20
151.274527716223929
 30
0.0
 11
159.1224511368735648
 21
151.2745277162239006
 31
0.0
  0
LINE
  5
203
100
AcDbEntity
100
AcDbLine
  8
text
 62
256
370
-1
  6
ByLayer
 10
155.1224511368735648
 20
154.9411943828905294
 30
0.0
 11
155.1224511368734511
 21
156.2745277162238153
 31
0.0
  0
ARC
  5
204
100
AcDbEntity
  8
text
 62
256
370
-1
  6
ByLayer
100
AcDbCircle
 10
156.1224511368735648
 20
156.274527716223929
 30
0.0
 40
1.0
100
AcDbArc
 50
90.0
 51
180.0
  0
LINE
  5
205
100
AcDbEntity
100
AcDbLine
  8
text
 62
256
370
-1
  6
ByLayer
 10
156.1224511368735648
 20
157.274527716223929
 30
0.0
 11
159.1224511368735648
 21
157.2745277162238153
 31
0.0
  0
LINE
  5
206
100
AcDbEntity
100
AcDbLine
  8
text
 62
256
370
-1
  6
ByLayer
 10
159.1224511368735648
 20
157.2745277162238153
 30
0.0
 11
159.1224511368735648
 21
155.6078610495572434
 31
0.0
  0
ARC
  5
207
100
AcDbEntity
  8
text
 62
256
370
-1
  6
ByLayer
100
AcDbCircle
 10
158.1224511368734511
 20
155.6078610495571866
 30
0.0
 40
1.0
100
AcDbArc
 50
180.0
 51
360.0
  0
LINE
  5
208
100
AcDbEntity
100
AcDbLine
  8
text
 62
256
370
-1
  6
ByLayer
 10
157.1224511368735648
 20
155.6078610495571581
 30
0.0
 11
157.1224511368734511
 21
157.2745277162238153
 31
0.0
  0
LINE
  5
209
100
AcDbEntity
100
AcDbLine
  8
text
 62
256
370
-1
  6
ByLayer
 10
161.1224511368735648
 20
159.2745277162238438
 30
0.0
 11
161.1224511368735648
 21
160.9411943828905294
 31
0.0
  0
ARC
  5
20A
100
AcDbEntity
  8
text
 62
256
370
-1
  6
ByLayer
100
AcDbCircle
 10
160.1224511368735648
 20
160.9411943828905009
 30
0.0
 40
1.0
100
AcDbArc
 50
360.0
 51
90.0
  0
LINE
  5
20B
100
AcDbEntity
100
AcDbLine
  8
text
 62
256
370
-1
  6
ByLayer
 10
160.1224511368735648
 20
161.9411943828905294
 30
0.0
 11
155.1224511368735648
 21
161.9411943828905009
 31
0.0
  0
LINE
  5
20C
100
AcDbEntity
100
AcDbLine
  8
text
 62
256
370
-1
  6
ByLayer
 10
155.1224511368735648
 20
161.9411943828905009
 30
0.0
 11
155.1224511368735648
 21
160.2745277162239006
 31
0.0
  0
ARC
  5
20D
100
AcDbEntity
  8
text
 62
256
370
-1
  6
ByLayer
100
AcDbCircle
 10
156.1224511368735648
 20
160.2745277162238722
 30
0.0
 40
1.0
100
AcDbArc
 50
180.0
 51
270.0
  0
LINE
  5
20E
100
AcDbEntity
100
AcDbLine
  8
text
 62
256
370
-1
  6
ByLayer
 10
156.1224511368735648
 20
159.2745277162238722
 30
0.0
 11
158.1224511368735648
 21
159.2745277162238722
 31
0.0
  0
ARC
  5
20F
100
AcDbEntity
  8
text
 62
256
370
-1
  6
ByLayer
100
AcDbCircle
 10
158.1224511368735648
 20
160.2745277162239006
 30
0.0
 40
1.0
100
AcDbArc
 50
270.0
 51
360.0
  0
LINE
  5
210
100
AcDbEntity
100
AcDbLine
  8
text
 62
256
370
-1
  6
ByLayer
 10
159.1224511368735648
 20
160.2745277162238722
 30
0.0
 11
159.1224511368735648
 21
161.9411943828905862
 31
0.0
  0
LINE
  5
211
100
AcDbEntity
100
AcDbLine
  8
text
 62
256
370
-1
  6
ByLayer
 10
157.1224511368735648
 20
163.9411943828905009
 30
0.0
 11
157.1224511368735648
 21
166.6078610495571866
 31
0.0
  0
LINE
  5
212
100
AcDbEntity
100
AcDbLine
  8
text
 62
256
370
-1
  6
ByLayer
 10
157.1224511368735648
 20
166.6078610495571866
 30
0.0
 11
156.4557844702068223
 21
166.6078610495571866
 31
0.0
  0
ARC
  5
213
100
AcDbEntity
  8
text
 62
256
370
-1
  6
ByLayer
100
AcDbCircle
 10
156.4557844702068223
 20
165.2745277162238722
 30
0.0
 40
1.3333333333333333
100
AcDbArc
 50
90.0
 51
270.0
  0
LINE
  5
214
100
AcDbEntity
100
AcDbLine
  8
text
 62
256
370
-1
  6
ByLayer
 10
156.4557844702068223
 20
163.9411943828905578
 30
0.0
 11
158.1224511368734511
 21
163.9411943828904725
 31
0.0
  0
ARC
  5
215
100
AcDbEntity
  8
text
 62
256
370
-1
  6
ByLayer
100
AcDbCircle
 10
158.1224511368735648
 20
164.9411943828905009
 30
0.0
 40
1.0
100
AcDbArc
 50
270.0
 51
360.0
  0
LINE
  5
216
100
AcDbEntity
100
AcDbLine
  8
text
 62
256
370
-1
  6
ByLayer
 10
159.1224511368735648
 20
164.9411943828905578
 30
0.0
 11
159.1224511368735648
 21
166.6078610495571866
 31
0.0
  0
CIRCLE
  5
217
100
AcDbEntity
100
AcDbCircle
  8
main-deck
 62
256
370
-1
  6
ByLayer
 10
122.7932013547911652
 20
251.024685177664594
 30
0.0
 40
1.5
  0
CIRCLE
  5
218
100
AcDbEntity
100
AcDbCircle
  8
main-deck
 62
256
370
-1
  6
ByLayer
 10
122.7932013547911083
 20
131.0246851776645372
 30
0.0
 40
1.5
  0
CIRCLE
  5
219
100
AcDbEntity
100
AcDbCircle
  8
main-deck
 62
256
370
-1
  6
ByLayer
 10
122.7932013547911083
 20
201.0246851776645372
 30
0.0
 40
1.5
  0
INSERT
  5
21A
100
AcDbEntity
100
AcDbBlockReference
  8
main-deck
 62
256
370
-1
  6
ByLayer
  2
slot
 10
122.7932013547911083
 20
226.0246851776645372
 30
0.0
 44
1.0
 45
1.0
  0
INSERT
  5
21B
100
AcDbEntity
100
AcDbBlockReference
  8
main-deck
 62
256
370
-1
  6
ByLayer
  2
slot
 10
122.7932013547911083
 20
150.5246851776645656
 30
0.0
 44
1.0
 45
1.0
  0
CIRCLE
  5
21C
100
AcDbEntity
100
AcDbCircle
  8
main-deck
 62
256
370
-1
  6
ByLayer
 10
180.1932013547911993
 20
251.024685177664594
 30
0.0
 40
1.5
  0
CIRCLE
  5
21D
100
AcDbEntity
100
AcDbCircle
  8
main-deck
 62
256
370
-1
  6
ByLayer
 10
180.1932013547910856
 20
131.0246851776645372
 30
0.0
 40
1.5
  0
CIRCLE
  5
21E
100
AcDbEntity
100
AcDbCircle
  8
main-deck
 62
256
370
-1
  6
ByLayer
 10
180.1932013547911993
 20
201.024685177664594
 30
0.0
 40
1.5
  0
INSERT
  5
21F
100
AcDbEntity
100
AcDbBlockReference
  8
main-deck
 62
256
370
-1
  6
ByLayer
  2
slot
 10
180.1932013547910856
 20
226.0246851776645372
 30
0.0
 44
1.0
 45
1.0
  0
INSERT
  5
220
100
AcDbEntity
100
AcDbBlockReference
  8
main-deck
 62
256
370
-1
  6
ByLayer
  2
slot
 10
180.1932013547910856
 20
150.5246851776645372
 30
0.0
 44
1.0
 45
1.0
  0
LINE
  5
221
100
AcDbEntity
100
AcDbLine
  8
main-deck
 62
256
370
-1
  6
ByLayer
 10
125.2932013547911652
 20
269.5246851776644803
 30
0.0
 11
117.4932013547911538
 21
269.5246851776645372
 31
0.0
  0
LINE
  5
222
100
AcDbEntity
100
AcDbLine
  8
main-deck
 62
256
370
-1
  6
ByLayer
 10
177.6932013547911993
 20
269.5246851776643098
 30
0.0
 11
185.4932013547911538
 21
269.524685177664594
 31
0.0
  0
LINE
  5
223
100
AcDbEntity
100
AcDbLine
  8
main-deck
 62
256
370
-1
  6
ByLayer
 10
185.4932013547910401
 20
102.1046851776644928
 30
0.0
 11
185.4932013547911538
 21
269.524685177664594
 31
0.0
  0
LINE
  5
224
100
AcDbEntity
100
AcDbLine
  8
main-deck
 62
256
370
-1
  6
ByLayer
 10
177.6932013547910856
 20
102.1046851776644928
 30
0.0
 11
185.4932013547910401
 21
102.1046851776644928
 31
0.0
  0
LINE
  5
225
100
AcDbEntity
100
AcDbLine
  8
main-deck
 62
256
370
-1
  6
ByLayer
 10
117.4932013547911538
 20
269.5246851776645372
 30
0.0
 11
117.4932013547910969
 21
102.1046851776645781
 31
0.0
  0
LINE
  5
226
100
AcDbEntity
100
AcDbLine
  8
main-deck
 62
256
370
-1
  6
ByLayer
 10
117.4932013547910969
 20
102.1046851776645781
 30
0.0
 11
125.2932013547909946
 21
102.1046851776645212
 31
0.0
  0
LINE
  5
227
100
AcDbEntity
100
AcDbLine
  8
rod-backplate
 62
256
370
-1
  6
ByLayer
 10
130.3422777377866169
 20
27.040431891637752
 30
0.0
 11
130.34227773778656
 21
19.040431891637752
 31
0.0
  0
LINE
  5
228
100
AcDbEntity
100
AcDbLine
  8
rod-backplate
 62
256
370
-1
  6
ByLayer
 10
77.9422777377865259
 20
27.040431891637752
 30
0.0
 11
77.9422777377865259
 21
19.040431891637752
 31
0.0
  0
LINE
  5
229
100
AcDbEntity
100
AcDbLine
  8
rod-backplate
 62
256
370
-1
  6
ByLayer
 10
130.3422777377866169
 20
27.040431891637752
 30
0.0
 11
77.9422777377865259
 21
27.040431891637752
 31
0.0
  0
LINE
  5
22A
100
AcDbEntity
100
AcDbLine
  8
rod-backplate
 62
256
370
-1
  6
ByLayer
 10
90.1422777377865714
 20
10.540431891637752
 30
0.0
 11
118.1422777377866851
 21
10.5404318916376383
 31
0.0
  0
LINE
  5
22B
100
AcDbEntity
100
AcDbLine
  8
rod-backplate
 62
256
370
-1
  6
ByLayer
 10
130.34227773778656
 20
10.5404318916377235
 30
0.0
 11
130.34227773778656
 21
27.040431891637752
 31
0.0
  0
LINE
  5
22C
100
AcDbEntity
100
AcDbLine
  8
rod-backplate
 62
256
370
-1
  6
ByLayer
 10
130.1422777377866282
 20
10.5404318916376383
 30
0.0
 11
130.34227773778656
 21
10.5404318916377235
 31
0.0
  0
LINE
  5
22D
100
AcDbEntity
100
AcDbLine
  8
rod-backplate
 62
256
370
-1
  6
ByLayer
 10
77.9422777377865259
 20
27.040431891637752
 30
0.0
 11
77.9422777377865259
 21
10.5404318916376383
 31
0.0
  0
LINE
  5
22E
100
AcDbEntity
100
AcDbLine
  8
rod-backplate
 62
256
370
-1
  6
ByLayer
 10
78.1422777377865714
 20
10.540431891637752
 30
0.0
 11
77.9422777377865259
 21
10.5404318916376383
 31
0.0
  0
ARC
  5
22F
100
AcDbEntity
  8
rod-backplate
 62
256
370
-1
  6
ByLayer
100
AcDbCircle
 10
84.1422777377865714
 20
10.540431891637752
 30
0.0
 40
6.0
100
AcDbArc
 50
180.0
 51
360.0
  0
ARC
  5
230
100
AcDbEntity
  8
rod-backplate
 62
256
370
-1
  6
ByLayer
100
AcDbCircle
 10
124.1422777377866851
 20
10.540431891637752
 30
0.0
 40
6.0
100
AcDbArc
 50
180.0
 51
360.0
  0
LINE
  5
231
100
AcDbEntity
100
AcDbLine
  8
text
 62
256
370
-1
  6
ByLayer
 10
82.2352501779264458
 20
23.5270985583044308
 30
0.0
 11
84.9019168445930745
 21
19.5270985583044308
 31
0.0
  0
LINE
  5
232
100
AcDbEntity
100
AcDbLine
  8
text
 62
256
370
-1
  6
ByLayer
 10
82.2352501779263321
 20
19.5270985583044308
 30
0.0
 11
84.9019168445930745
 21
23.5270985583044308
 31
0.0
  0
LINE
  5
233
100
AcDbEntity
100
AcDbLine
  8
text
 62
256
370
-1
  6
ByLayer
 10
90.5685835112597601
 20
22.1937652249711732
 30
0.0
 11
89.9019168445930745
 21
22.1937652249710595
 31
0.0
  0
ARC
  5
234
100
AcDbEntity
  8
text
 62
256
370
-1
  6
ByLayer
100
AcDbCircle
 10
89.9019168445930745
 20
21.5270985583044308
 30
0.0
 40
0.6666666666666666
100
AcDbArc
 50
90.0
 51
180.0
  0
LINE
  5
235
100
AcDbEntity
100
AcDbLine
  8
text
 62
256
370
-1
  6
ByLayer
 10
89.2352501779264458
 20
21.5270985583044308
 30
0.0
 11
89.2352501779263889
 21
20.1937652249711732
 31
0.0
  0
ARC
  5
236
100
AcDbEntity
  8
text
 62
256
370
-1
  6
ByLayer
100
AcDbCircle
 10
89.9019168445930745
 20
20.1937652249711732
 30
0.0
 40
0.6666666666666666
100
AcDbArc
 50
180.0
 51
270.0
  0
LINE
  5
237
100
AcDbEntity
100
AcDbLine
  8
text
 62
256
370
-1
  6
ByLayer
 10
89.9019168445931314
 20
19.5270985583044308
 30
0.0
 11
90.5685835112597033
 21
19.5270985583044308
 31
0.0
  0
LINE
  5
238
100
AcDbEntity
100
AcDbLine
  8
text
 62
256
370
-1
  6
ByLayer
 10
92.1241390668153031
 20
22.1937652249711732
 30
0.0
 11
93.0130279557042172
 21
22.1937652249711732
 31
0.0
  0
ARC
  5
239
100
AcDbEntity
  8
text
 62
256
370
-1
  6
ByLayer
100
AcDbCircle
 10
93.0130279557042172
 20
21.5270985583044308
 30
0.0
 40
0.6666666666666666
100
AcDbArc
 50
360.0
 51
90.0
  0
LINE
  5
23A
100
AcDbEntity
100
AcDbLine
  8
text
 62
256
370
-1
  6
ByLayer
 10
93.6796946223709028
 20
21.5270985583044308
 30
0.0
 11
93.679694622370846
 21
19.5270985583044308
 31
0.0
  0
LINE
  5
23B
100
AcDbEntity
100
AcDbLine
  8
text
 62
256
370
-1
  6
ByLayer
 10
93.679694622370846
 20
19.5270985583044308
 30
0.0
 11
92.5685835112597601
 21
19.5270985583044308
 31
0.0
  0
ARC
  5
23C
100
AcDbEntity
  8
text
 62
256
370
-1
  6
ByLayer
100
AcDbCircle
 10
92.568583511259817
 20
20.1937652249711732
 30
0.0
 40
0.6666666666666666
100
AcDbArc
 50
90.0
 51
270.0
  0
LINE
  5
23D
100
AcDbEntity
100
AcDbLine
  8
text
 62
256
370
-1
  6
ByLayer
 10
92.5685835112597601
 20
20.8604318916376883
 30
0.0
 11
93.6796946223709028
 21
20.8604318916376883
 31
0.0
  0
LINE
  5
23E
100
AcDbEntity
100
AcDbLine
  8
text
 62
256
370
-1
  6
ByLayer
 10
95.0130279557041604
 20
19.5270985583044308
 30
0.0
 11
96.1241390668152462
 21
19.5270985583044308
 31
0.0
  0
ARC
  5
23F
100
AcDbEntity
  8
text
 62
256
370
-1
  6
ByLayer
100
AcDbCircle
 10
96.1241390668151894
 20
20.1937652249710595
 30
0.0
 40
0.6666666666666666
100
AcDbArc
 50
270.0
 51
360.0
  0
LINE
  5
240
100
AcDbEntity
100
AcDbLine
  8
text
 62
256
370
-1
  6
ByLayer
 10
96.7908057334819318
 20
20.1937652249710595
 30
0.0
 11
96.7908057334819887
 21
21.5270985583044308
 31
0.0
  0
ARC
  5
241
100
AcDbEntity
  8
text
 62
256
370
-1
  6
ByLayer
100
AcDbCircle
 10
96.1241390668152462
 20
21.5270985583044308
 30
0.0
 40
0.6666666666666666
100
AcDbArc
 50
360.0
 51
90.0
  0
LINE
  5
242
100
AcDbEntity
100
AcDbLine
  8
text
 62
256
370
-1
  6
ByLayer
 10
96.1241390668151894
 20
22.1937652249710595
 30
0.0
 11
95.0130279557041604
 21
22.1937652249711732
 31
0.0
  0
LINE
  5
243
100
AcDbEntity
100
AcDbLine
  8
text
 62
256
370
-1
  6
ByLayer
 10
95.0130279557041604
 20
22.1937652249711732
 30
0.0
 11
95.0130279557041604
 21
18.1937652249711732
 31
0.0
  0
CIRCLE
  5
244
100
AcDbEntity
100
AcDbCircle
  8
rod-backplate
 62
256
370
-1
  6
ByLayer
 10
96.1422777377865714
 20
16.0404318916376383
 30
0.0
 40
1.5
  0
CIRCLE
  5
245
100
AcDbEntity
100
AcDbCircle
  8
rod-backplate
 62
256
370
-1
  6
ByLayer
 10
112.1422777377865714
 20
16.0404318916376383
 30
0.0
 40
1.5
  0
LINE
  5
246
100
AcDbEntity
100
AcDbLine
  8
rod-support
 62
256
370
-1
  6
ByLayer
 10
177.5302934149197824
 20
77.8433432547841448
 30
0.0
 11
177.5302934149197256
 21
69.8433432547842017
 31
0.0
  0
LINE
  5
247
100
AcDbEntity
100
AcDbLine
  8
rod-support
 62
256
370
-1
  6
ByLayer
 10
125.1302934149196915
 20
77.8433432547841448
 30
0.0
 11
125.1302934149196915
 21
69.8433432547842017
 31
0.0
  0
LINE
  5
248
100
AcDbEntity
100
AcDbLine
  8
rod-support
 62
256
370
-1
  6
ByLayer
 10
177.5302934149197824
 20
77.8433432547841448
 30
0.0
 11
125.1302934149196915
 21
77.8433432547841448
 31
0.0
  0
LINE
  5
249
100
AcDbEntity
100
AcDbLine
  8
rod-support
 62
256
370
-1
  6
ByLayer
 10
137.330293414919737
 20
61.3433432547841448
 30
0.0
 11
165.3302934149197938
 21
61.3433432547841448
 31
0.0
  0
ARC
  5
24A
100
AcDbEntity
  8
rod-support
 62
256
370
-1
  6
ByLayer
100
AcDbCircle
 10
131.330293414919737
 20
61.343343254784088
 30
0.0
 40
6.0
100
AcDbArc
 50
270.0
 51
360.0
  0
ARC
  5
24B
100
AcDbEntity
  8
rod-support
 62
256
370
-1
  6
ByLayer
100
AcDbCircle
 10
171.3302934149197938
 20
61.3433432547841448
 30
0.0
 40
6.0
100
AcDbArc
 50
180.0
 51
270.0
  0
LINE
  5
24C
100
AcDbEntity
100
AcDbLine
  8
rod-support
 62
256
370
-1
  6
ByLayer
 10
131.330293414919737
 20
55.3433432547841448
 30
0.0
 11
131.330293414919737
 21
40.4633432547841494
 31
0.0
  0
LINE
  5
24D
100
AcDbEntity
100
AcDbLine
  8
rod-support
 62
256
370
-1
  6
ByLayer
 10
171.3302934149197938
 20
55.3433432547841448
 30
0.0
 11
171.3302934149197938
 21
40.4633432547841494
 31
0.0
  0
CIRCLE
  5
24E
100
AcDbEntity
100
AcDbCircle
  8
rod-support
 62
256
370
-1
  6
ByLayer
 10
171.3302934149197938
 20
61.3433432547841448
 30
0.0
 40
3.9700000000000002
  0
CIRCLE
  5
24F
100
AcDbEntity
100
AcDbCircle
  8
rod-support
 62
256
370
-1
  6
ByLayer
 10
131.330293414919737
 20
61.343343254784088
 30
0.0
 40
3.9700000000000002
  0
LINE
  5
250
100
AcDbEntity
100
AcDbLine
  8
text
 62
256
370
-1
  6
ByLayer
 10
127.8677102995039547
 20
74.3300099214508805
 30
0.0
 11
130.5343769661706972
 21
70.3300099214508805
 31
0.0
  0
LINE
  5
251
100
AcDbEntity
100
AcDbLine
  8
text
 62
256
370
-1
  6
ByLayer
 10
127.8677102995039547
 20
70.3300099214508805
 30
0.0
 11
130.5343769661706972
 21
74.3300099214508805
 31
0.0
  0
LINE
  5
252
100
AcDbEntity
100
AcDbLine
  8
text
 62
256
370
-1
  6
ByLayer
 10
134.8677102995040116
 20
74.3300099214508805
 30
0.0
 11
134.8677102995040116
 21
70.3300099214508805
 31
0.0
  0
LINE
  5
253
100
AcDbEntity
100
AcDbLine
  8
text
 62
256
370
-1
  6
ByLayer
 10
134.8677102995040116
 20
70.3300099214508805
 30
0.0
 11
135.9788214106151543
 21
70.3300099214508805
 31
0.0
  0
ARC
  5
254
100
AcDbEntity
  8
text
 62
256
370
-1
  6
ByLayer
100
AcDbCircle
 10
135.9788214106151543
 20
70.9966765881175661
 30
0.0
 40
0.6666666666666666
100
AcDbArc
 50
270.0
 51
360.0
  0
LINE
  5
255
100
AcDbEntity
100
AcDbLine
  8
text
 62
256
370
-1
  6
ByLayer
 10
136.6454880772817262
 20
70.9966765881175661
 30
0.0
 11
136.645488077281783
 21
72.3300099214508805
 31
0.0
  0
ARC
  5
256
100
AcDbEntity
  8
text
 62
256
370
-1
  6
ByLayer
100
AcDbCircle
 10
135.9788214106151543
 20
72.3300099214508805
 30
0.0
 40
0.6666666666666666
100
AcDbArc
 50
360.0
 51
90.0
  0
LINE
  5
257
100
AcDbEntity
100
AcDbLine
  8
text
 62
256
370
-1
  6
ByLayer
 10
135.9788214106151543
 20
72.9966765881175093
 30
0.0
 11
134.8677102995040116
 21
72.9966765881175661
 31
0.0
  0
LINE
  5
258
100
AcDbEntity
100
AcDbLine
  8
text
 62
256
370
-1
  6
ByLayer
 10
138.201043632837326
 20
72.9966765881175661
 30
0.0
 11
139.0899325217262401
 21
72.9966765881175093
 31
0.0
  0
ARC
  5
259
100
AcDbEntity
  8
text
 62
256
370
-1
  6
ByLayer
100
AcDbCircle
 10
139.0899325217262401
 20
72.3300099214508805
 30
0.0
 40
0.6666666666666666
100
AcDbArc
 50
360.0
 51
90.0
  0
LINE
  5
25A
100
AcDbEntity
100
AcDbLine
  8
text
 62
256
370
-1
  6
ByLayer
 10
139.7565991883928689
 20
72.3300099214508805
 30
0.0
 11
139.7565991883928689
 21
70.3300099214508805
 31
0.0
  0
LINE
  5
25B
100
AcDbEntity
100
AcDbLine
  8
text
 62
256
370
-1
  6
ByLayer
 10
139.7565991883928689
 20
70.3300099214508805
 30
0.0
 11
138.645488077281783
 21
70.3300099214508805
 31
0.0
  0
ARC
  5
25C
100
AcDbEntity
  8
text
 62
256
370
-1
  6
ByLayer
100
AcDbCircle
 10
138.645488077281783
 20
70.9966765881175661
 30
0.0
 40
0.6666666666666666
100
AcDbArc
 50
90.0
 51
270.0
  0
LINE
  5
25D
100
AcDbEntity
100
AcDbLine
  8
text
 62
256
370
-1
  6
ByLayer
 10
138.645488077281783
 20
71.6633432547841949
 30
0.0
 11
139.756599188392812
 21
71.663343254784138
 31
0.0
  0
LINE
  5
25E
100
AcDbEntity
100
AcDbLine
  8
text
 62
256
370
-1
  6
ByLayer
 10
142.4232658550595545
 20
72.9966765881175661
 30
0.0
 11
141.7565991883929257
 21
72.9966765881175661
 31
0.0
  0
ARC
  5
25F
100
AcDbEntity
  8
text
 62
256
370
-1
  6
ByLayer
100
AcDbCircle
 10
141.7565991883928689
 20
72.3300099214508805
 30
0.0
 40
0.6666666666666666
100
AcDbArc
 50
90.0
 51
180.0
  0
LINE
  5
260
100
AcDbEntity
100
AcDbLine
  8
text
 62
256
370
-1
  6
ByLayer
 10
141.0899325217262401
 20
72.3300099214508805
 30
0.0
 11
141.0899325217262401
 21
70.9966765881175661
 31
0.0
  0
ARC
  5
261
100
AcDbEntity
  8
text
 62
256
370
-1
  6
ByLayer
100
AcDbCircle
 10
141.7565991883929257
 20
70.9966765881175661
 30
0.0
 40
0.6666666666666666
100
AcDbArc
 50
180.0
 51
270.0
  0
LINE
  5
262
100
AcDbEntity
100
AcDbLine
  8
text
 62
256
370
-1
  6
ByLayer
 10
141.7565991883928689
 20
70.3300099214508805
 30
0.0
 11
142.4232658550595545
 21
70.3300099214508805
 31
0.0
  0
LINE
  5
263
100
AcDbEntity
100
AcDbLine
  8
text
 62
256
370
-1
  6
ByLayer
 10
143.756599188392812
 20
74.3300099214508805
 30
0.0
 11
143.756599188392812
 21
70.3300099214508805
 31
0.0
  0
LINE
  5
264
100
AcDbEntity
100
AcDbLine
  8
text
 62
256
370
-1
  6
ByLayer
 10
143.7565991883928689
 20
71.8855654770064234
 30
0.0
 11
145.5343769661706403
 21
72.9966765881175661
 31
0.0
  0
LINE
  5
265
100
AcDbEntity
100
AcDbLine
  8
text
 62
256
370
-1
  6
ByLayer
 10
144.3437102995040107
 20
72.2526765881175947
 30
0.0
 11
145.5343769661706403
 21
70.3300099214508805
 31
0.0
  0
CIRCLE
  5
266
100
AcDbEntity
100
AcDbCircle
  8
rod-support
 62
256
370
-1
  6
ByLayer
 10
143.330293414919737
 20
66.8433432547841448
 30
0.0
 40
1.5
  0
CIRCLE
  5
267
100
AcDbEntity
100
AcDbCircle
  8
rod-support
 62
256
370
-1
  6
ByLayer
 10
159.330293414919737
 20
66.8433432547841448
 30
0.0
 40
1.5
  0
LINE
  5
268
100
AcDbEntity
100
AcDbLine
  8
rod-support
 62
256
370
-1
  6
ByLayer
 10
185.1302934149197483
 20
77.8433432547841448
 30
0.0
 11
182.6302934149198052
 21
77.8433432547841448
 31
0.0
  0
CIRCLE
  5
269
100
AcDbEntity
100
AcDbCircle
  8
rod-support
 62
256
370
-1
  6
ByLayer
 10
188.2302934149197142
 20
54.0433432547841335
 30
0.0
 40
1.5
  0
CIRCLE
  5
26A
100
AcDbEntity
100
AcDbCircle
  8
rod-support
 62
256
370
-1
  6
ByLayer
 10
188.2302934149197142
 20
73.0433432547841335
 30
0.0
 40
1.5
  0
LINE
  5
26B
100
AcDbEntity
100
AcDbLine
  8
rod-support
 62
256
370
-1
  6
ByLayer
 10
185.1302934149197483
 20
75.8433432547841448
 30
0.0
 11
191.330293414919737
 21
75.8433432547841448
 31
0.0
  0
LINE
  5
26C
100
AcDbEntity
100
AcDbLine
  8
rod-support
 62
256
370
-1
  6
ByLayer
 10
191.330293414919737
 20
75.8433432547841448
 30
0.0
 11
191.330293414919737
 21
69.5433432547841335
 31
0.0
  0
LINE
  5
26D
100
AcDbEntity
100
AcDbLine
  8
rod-support
 62
256
370
-1
  6
ByLayer
 10
191.330293414919737
 20
57.5433432547841051
 30
0.0
 11
191.330293414919737
 21
51.2433432547841221
 31
0.0
  0
LINE
  5
26E
100
AcDbEntity
100
AcDbLine
  8
rod-support
 62
256
370
-1
  6
ByLayer
 10
185.1302934149197483
 20
51.243343254784179
 30
0.0
 11
191.330293414919737
 21
51.2433432547841221
 31
0.0
  0
LINE
  5
26F
100
AcDbEntity
100
AcDbLine
  8
rod-support
 62
256
370
-1
  6
ByLayer
 10
185.1302934149197483
 20
57.5433432547840766
 30
0.0
 11
191.330293414919737
 21
57.5433432547841051
 31
0.0
  0
LINE
  5
270
100
AcDbEntity
100
AcDbLine
  8
rod-support
 62
256
370
-1
  6
ByLayer
 10
185.1302934149197483
 20
69.5433432547841335
 30
0.0
 11
191.330293414919737
 21
69.5433432547841335
 31
0.0
  0
LINE
  5
271
100
AcDbEntity
100
AcDbLine
  8
rod-support
 62
256
370
-1
  6
ByLayer
 10
185.1302934149197483
 20
69.5433432547841335
 30
0.0
 11
185.1302934149197483
 21
57.5433432547840766
 31
0.0
  0
LINE
  5
272
100
AcDbEntity
100
AcDbLine
  8
side
 62
256
370
-1
  6
ByLayer
 10
185.1302934149197483
 20
75.8433432547841448
 30
0.0
 11
185.1302934149197483
 21
77.8433432547841448
 31
0.0
  0
LINE
  5
273
100
AcDbEntity
100
AcDbLine
  8
rod-support
 62
256
370
-1
  6
ByLayer
 10
117.5302934149197824
 20
77.8433432547842017
 30
0.0
 11
120.1302934149196915
 21
77.8433432547841448
 31
0.0
  0
CIRCLE
  5
274
100
AcDbEntity
100
AcDbCircle
  8
rod-support
 62
256
370
-1
  6
ByLayer
 10
180.2302934149197711
 20
51.3433432547841448
 30
0.0
 40
1.5
  0
CIRCLE
  5
275
100
AcDbEntity
100
AcDbCircle
  8
rod-support
 62
256
370
-1
  6
ByLayer
 10
122.4302934149198734
 20
51.3433432547841448
 30
0.0
 40
1.5
  0
LINE
  5
276
100
AcDbEntity
100
AcDbLine
  8
rod-support
 62
256
370
-1
  6
ByLayer
 10
117.5302934149197824
 20
40.4633432547841778
 30
0.0
 11
131.330293414919737
 21
40.4633432547841494
 31
0.0
  0
LINE
  5
277
100
AcDbEntity
100
AcDbLine
  8
rod-support
 62
256
370
-1
  6
ByLayer
 10
117.5302934149197824
 20
40.4633432547841778
 30
0.0
 11
117.5302934149197824
 21
77.8433432547842017
 31
0.0
  0
LINE
  5
278
100
AcDbEntity
100
AcDbLine
  8
rod-support
 62
256
370
-1
  6
ByLayer
 10
120.1302934149196915
 20
69.8433432547842017
 30
0.0
 11
125.1302934149196915
 21
69.8433432547842017
 31
0.0
  0
LINE
  5
279
100
AcDbEntity
100
AcDbLine
  8
rod-support
 62
256
370
-1
  6
ByLayer
 10
120.1302934149196915
 20
77.8433432547841448
 30
0.0
 11
120.1302934149196915
 21
69.8433432547842017
 31
0.0
  0
LINE
  5
27A
100
AcDbEntity
100
AcDbLine
  8
rod-support
 62
256
370
-1
  6
ByLayer
 10
182.5302934149197824
 20
77.8433432547841448
 30
0.0
 11
182.5302934149196687
 21
69.8433432547841448
 31
0.0
  0
LINE
  5
27B
100
AcDbEntity
100
AcDbLine
  8
rod-support
 62
256
370
-1
  6
ByLayer
 10
177.5302934149197256
 20
69.8433432547842017
 30
0.0
 11
182.5302934149196687
 21
69.8433432547841448
 31
0.0
  0
LINE
  5
27C
100
AcDbEntity
100
AcDbLine
  8
rod-support
 62
256
370
-1
  6
ByLayer
 10
185.1302934149197483
 20
51.243343254784179
 30
0.0
 11
185.1302934149197483
 21
40.4633432547841494
 31
0.0
  0
LINE
  5
27D
100
AcDbEntity
100
AcDbLine
  8
rod-support
 62
256
370
-1
  6
ByLayer
 10
171.3302934149197938
 20
40.4633432547841494
 30
0.0
 11
185.1302934149197483
 21
40.4633432547841494
 31
0.0
  0
LINE
  5
27E
100
AcDbEntity
100
AcDbLine
  8
build-platform
 62
256
370
-1
  6
ByLayer
 10
288.3257892336413875
 20
288.6603356349518776
 30
0.0
 11
288.3257892336413875
 21
188.6603356349519345
 31
0.0
  0
LINE
  5
27F
100
AcDbEntity
100
AcDbLine
  8
build-platform
 62
256
370
-1
  6
ByLayer
 10
288.3257892336413875
 20
188.6603356349519345
 30
0.0
 11
188.3257892336413875
 21
188.6603356349519345
 31
0.0
  0
LINE
  5
280
100
AcDbEntity
100
AcDbLine
  8
build-platform
 62
256
370
-1
  6
ByLayer
 10
188.3257892336413875
 20
188.6603356349519345
 30
0.0
 11
188.3257892336413875
 21
288.6603356349519913
 31
0.0
  0
LINE
  5
281
100
AcDbEntity
100
AcDbLine
  8
build-platform
 62
256
370
-1
  6
ByLayer
 10
188.3257892336413875
 20
288.6603356349519913
 30
0.0
 11
288.3257892336413875
 21
288.6603356349518776
 31
0.0
  0
CIRCLE
  5
282
100
AcDbEntity
100
AcDbCircle
  8
build-platform
 62
256
370
-1
  6
ByLayer
 10
229.3257892336413875
 20
253.6603356349518776
 30
0.0
 40
2.7000000000000002
  0
CIRCLE
  5
283
100
AcDbEntity
100
AcDbCircle
  8
build-platform
 62
256
370
-1
  6
ByLayer
 10
244.3257892336413875
 20
238.6603356349519345
 30
0.0
 40
2.7000000000000002
  0
CIRCLE
  5
284
100
AcDbEntity
100
AcDbCircle
  8
build-platform
 62
256
370
-1
  6
ByLayer
 10
229.3257892336413875
 20
223.6603356349519345
 30
0.0
 40
2.7000000000000002
  0
LINE
  5
285
100
AcDbEntity
100
AcDbLine
  8
build-platform
 62
256
370
-1
  6
ByLayer
 10
213.9157892336414193
 20
242.6503356349518867
 30
0.0
 11
216.7357892336413556
 21
242.6503356349519436
 31
0.0
  0
LINE
  5
286
100
AcDbEntity
100
AcDbLine
  8
build-platform
 62
256
370
-1
  6
ByLayer
 10
216.7357892336413556
 20
242.6503356349519436
 30
0.0
 11
216.7357892336413556
 21
245.4703356349519936
 31
0.0
  0
LINE
  5
287
100
AcDbEntity
100
AcDbLine
  8
build-platform
 62
256
370
-1
  6
ByLayer
 10
216.7357892336413556
 20
245.4703356349519936
 30
0.0
 11
213.9157892336414193
 21
245.4703356349519368
 31
0.0
  0
LINE
  5
288
100
AcDbEntity
100
AcDbLine
  8
build-platform
 62
256
370
-1
  6
ByLayer
 10
213.9157892336414193
 20
245.4703356349519368
 30
0.0
 11
213.9157892336414193
 21
242.6503356349518867
 31
0.0
  0
LINE
  5
289
100
AcDbEntity
100
AcDbLine
  8
build-platform
 62
256
370
-1
  6
ByLayer
 10
213.9157892336414193
 20
231.8503356349520459
 30
0.0
 11
216.7357892336413556
 21
231.8503356349518754
 31
0.0
  0
LINE
  5
28A
100
AcDbEntity
100
AcDbLine
  8
build-platform
 62
256
370
-1
  6
ByLayer
 10
216.7357892336413556
 20
231.8503356349518754
 30
0.0
 11
216.7357892336413556
 21
234.6703356349519254
 31
0.0
  0
LINE
  5
28B
100
AcDbEntity
100
AcDbLine
  8
build-platform
 62
256
370
-1
  6
ByLayer
 10
216.7357892336413556
 20
234.6703356349519254
 30
0.0
 11
213.9157892336414193
 21
234.6703356349520391
 31
0.0
  0
LINE
  5
28C
100
AcDbEntity
100
AcDbLine
  8
build-platform
 62
256
370
-1
  6
ByLayer
 10
213.9157892336414193
 20
234.6703356349520391
 30
0.0
 11
213.9157892336414193
 21
231.8503356349520459
 31
0.0
  0
LINE
  5
28D
100
AcDbEntity
100
AcDbLine
  8
build-platform
 62
256
370
-1
  6
ByLayer
 10
227.9157892336414193
 20
237.2503356349519663
 30
0.0
 11
230.7357892336413556
 21
237.2503356349520232
 31
0.0
  0
LINE
  5
28E
100
AcDbEntity
100
AcDbLine
  8
build-platform
 62
256
370
-1
  6
ByLayer
 10
230.7357892336413556
 20
237.2503356349520232
 30
0.0
 11
230.7357892336413556
 21
240.0703356349520163
 31
0.0
  0
LINE
  5
28F
100
AcDbEntity
100
AcDbLine
  8
build-platform
 62
256
370
-1
  6
ByLayer
 10
230.7357892336413556
 20
240.0703356349520163
 30
0.0
 11
227.9157892336414193
 21
240.0703356349520732
 31
0.0
  0
LINE
  5
290
100
AcDbEntity
100
AcDbLine
  8
build-platform
 62
256
370
-1
  6
ByLayer
 10
227.9157892336414193
 20
240.0703356349520732
 30
0.0
 11
227.9157892336414193
 21
237.2503356349519663
 31
0.0
  0
LINE
  5
291
100
AcDbEntity
100
AcDbLine
  8
build-platform
 62
256
370
-1
  6
ByLayer
 10
259.9157892336414193
 20
242.6503356349521141
 30
0.0
 11
262.7357892336413556
 21
242.6503356349520004
 31
0.0
  0
LINE
  5
292
100
AcDbEntity
100
AcDbLine
  8
build-platform
 62
256
370
-1
  6
ByLayer
 10
262.7357892336413556
 20
242.6503356349520004
 30
0.0
 11
262.7357892336413556
 21
245.4703356349520504
 31
0.0
  0
LINE
  5
293
100
AcDbEntity
100
AcDbLine
  8
build-platform
 62
256
370
-1
  6
ByLayer
 10
262.7357892336413556
 20
245.4703356349520504
 30
0.0
 11
259.9157892336414193
 21
245.4703356349518799
 31
0.0
  0
LINE
  5
294
100
AcDbEntity
100
AcDbLine
  8
build-platform
 62
256
370
-1
  6
ByLayer
 10
259.9157892336414193
 20
245.4703356349518799
 30
0.0
 11
259.9157892336414193
 21
242.6503356349521141
 31
0.0
  0
LINE
  5
295
100
AcDbEntity
100
AcDbLine
  8
build-platform
 62
256
370
-1
  6
ByLayer
 10
259.9157892336414193
 20
231.8503356349519322
 30
0.0
 11
262.7357892336413556
 21
231.8503356349520459
 31
0.0
  0
LINE
  5
296
100
AcDbEntity
100
AcDbLine
  8
build-platform
 62
256
370
-1
  6
ByLayer
 10
262.7357892336413556
 20
231.8503356349520459
 30
0.0
 11
262.7357892336413556
 21
234.6703356349519254
 31
0.0
  0
LINE
  5
297
100
AcDbEntity
100
AcDbLine
  8
build-platform
 62
256
370
-1
  6
ByLayer
 10
262.7357892336413556
 20
234.6703356349519254
 30
0.0
 11
259.9157892336414193
 21
234.6703356349519822
 31
0.0
  0
LINE
  5
298
100
AcDbEntity
100
AcDbLine
  8
build-platform
 62
256
370
-1
  6
ByLayer
 10
259.9157892336414193
 20
234.6703356349519822
 30
0.0
 11
259.9157892336414193
 21
231.8503356349519322
 31
0.0
  0
LINE
  5
299
100
AcDbEntity
100
AcDbLine
  8
text
 62
256
370
-1
  6
ByLayer
 10
223.8813447891969304
 20
273.6603356349519345
 30
0.0
 11
223.8813447891969304
 21
283.6603356349519913
 31
0.0
  0
LINE
  5
29A
100
AcDbEntity
100
AcDbLine
  8
text
 62
256
370
-1
  6
ByLayer
 10
223.8813447891969304
 20
283.6603356349519913
 30
0.0
 11
226.659122566974645
 21
283.6603356349518776
 31
0.0
  0
ARC
  5
29B
100
AcDbEntity
  8
text
 62
256
370
-1
  6
ByLayer
100
AcDbCircle
 10
226.659122566974645
 20
281.4381134127296491
 30
0.0
 40
2.2222222222222223
100
AcDbArc
 50
270.0
 51
90.0
  0
LINE
  5
29C
100
AcDbEntity
100
AcDbLine
  8
text
 62
256
370
-1
  6
ByLayer
 10
223.8813447891969304
 20
279.2158911905073637
 30
0.0
 11
226.7702336780858445
 21
279.2158911905075342
 31
0.0
  0
ARC
  5
29D
100
AcDbEntity
  8
text
 62
256
370
-1
  6
ByLayer
100
AcDbCircle
 10
226.7702336780858445
 20
276.5492245238408486
 30
0.0
 40
2.6666666666666665
100
AcDbArc
 50
0.0
 51
90.0
  0
LINE
  5
29E
100
AcDbEntity
100
AcDbLine
  8
text
 62
256
370
-1
  6
ByLayer
 10
229.4369003447524733
 20
276.5492245238410192
 30
0.0
 11
229.4369003447524733
 21
276.3270023016185633
 31
0.0
  0
ARC
  5
29F
100
AcDbEntity
  8
text
 62
256
370
-1
  6
ByLayer
100
AcDbCircle
 10
226.7702336780858445
 20
276.3270023016187906
 30
0.0
 40
2.6666666666666665
100
AcDbArc
 50
270.0
 51
0.0
  0
LINE
  5
2A0
100
AcDbEntity
100
AcDbLine
  8
text
 62
256
370
-1
  6
ByLayer
 10
226.7702336780858445
 20
273.6603356349526166
 30
0.0
 11
223.8813447891969304
 21
273.6603356349519345
 31
0.0
  0
LINE
  5
2A1
100
AcDbEntity
100
AcDbLine
  8
text
 62
256
370
-1
  6
ByLayer
 10
232.7702336780858445
 20
280.3270023016186769
 30
0.0
 11
232.7702336780858445
 21
275.3270023016187338
 31
0.0
  0
ARC
  5
2A2
100
AcDbEntity
  8
text
 62
256
370
-1
  6
ByLayer
100
AcDbCircle
 10
234.4369003447524733
 20
275.3270023016189043
 30
0.0
 40
1.6666666666666667
100
AcDbArc
 50
180.0
 51
270.0
  0
LINE
  5
2A3
100
AcDbEntity
100
AcDbLine
  8
text
 62
256
370
-1
  6
ByLayer
 10
234.4369003447524733
 20
273.6603356349521619
 30
0.0
 11
237.2146781225303016
 21
273.660335634951764
 31
0.0
  0
LINE
  5
2A4
100
AcDbEntity
100
AcDbLine
  8
text
 62
256
370
-1
  6
ByLayer
 10
237.2146781225303016
 20
273.660335634951764
 30
0.0
 11
237.2146781225303016
 21
280.3270023016185633
 31
0.0
  0
LINE
  5
2A5
100
AcDbEntity
100
AcDbLine
  8
text
 62
256
370
-1
  6
ByLayer
 10
240.5480114558635591
 20
273.6603356349525029
 30
0.0
 11
240.5480114558635591
 21
280.3270023016187338
 31
0.0
  0
LINE
  5
2A6
100
AcDbEntity
100
AcDbLine
  8
text
 62
256
370
-1
  6
ByLayer
 10
240.5480114558635591
 20
283.1047800793963347
 30
0.0
 11
240.5480114558635591
 21
283.6603356349520482
 31
0.0
  0
LINE
  5
2A7
100
AcDbEntity
100
AcDbLine
  8
text
 62
256
370
-1
  6
ByLayer
 10
243.8813447891969304
 20
283.6603356349519913
 30
0.0
 11
243.8813447891969304
 21
274.771446746063134
 31
0.0
  0
ARC
  5
2A8
100
AcDbEntity
  8
text
 62
256
370
-1
  6
ByLayer
100
AcDbCircle
 10
244.9924559003080162
 20
274.7714467460628498
 30
0.0
 40
1.1111111111111112
100
AcDbArc
 50
180.0
 51
270.0
  0
LINE
  5
2A9
100
AcDbEntity
100
AcDbLine
  8
text
 62
256
370
-1
  6
ByLayer
 10
252.7702336780858445
 20
283.6603356349520482
 30
0.0
 11
252.7702336780858445
 21
273.6603356349524461
 31
0.0
  0
LINE
  5
2AA
100
AcDbEntity
100
AcDbLine
  8
text
 62
256
370
-1
  6
ByLayer
 10
252.7702336780858445
 20
273.6603356349524461
 30
0.0
 11
249.9924559003081299
 21
273.6603356349519913
 31
0.0
  0
ARC
  5
2AB
100
AcDbEntity
  8
text
 62
256
370
-1
  6
ByLayer
100
AcDbCircle
 10
249.9924559003081299
 20
275.3270023016193591
 30
0.0
 40
1.6666666666666667
100
AcDbArc
 50
180.0
 51
270.0
  0
LINE
  5
2AC
100
AcDbEntity
100
AcDbLine
  8
text
 62
256
370
-1
  6
ByLayer
 10
248.3257892336413875
 20
275.3270023016185633
 30
0.0
 11
248.3257892336413875
 21
278.6603356349519913
 31
0.0
  0
ARC
  5
2AD
100
AcDbEntity
  8
text
 62
256
370
-1
  6
ByLayer
100
AcDbCircle
 10
249.9924559003081299
 20
278.6603356349521619
 30
0.0
 40
1.6666666666666667
100
AcDbArc
 50
90.0
 51
180.0
  0
LINE
  5
2AE
100
AcDbEntity
100
AcDbLine
  8
text
 62
256
370
-1
  6
ByLayer
 10
249.9924559003081299
 20
280.3270023016186769
 30
0.0
 11
252.7702336780858445
 21
280.3270023016186769
 31
0.0
  0
LINE
  5
2AF
100
AcDbEntity
100
AcDbLine
  8
text
 62
256
370
-1
  6
ByLayer
 10
210.5480114558635591
 20
193.6603356349519345
 30
0.0
 11
210.5480114558635591
 21
203.6603356349519913
 31
0.0
  0
LINE
  5
2B0
100
AcDbEntity
100
AcDbLine
  8
text
 62
256
370
-1
  6
ByLayer
 10
210.5480114558635591
 20
203.6603356349519913
 30
0.0
 11
213.8813447891969304
 21
203.6603356349519345
 31
0.0
  0
ARC
  5
2B1
100
AcDbEntity
  8
text
 62
256
370
-1
  6
ByLayer
100
AcDbCircle
 10
213.8813447891969304
 20
201.4381134127297628
 30
0.0
 40
2.2222222222222223
100
AcDbArc
 50
0.0
 51
90.0
  0
LINE
  5
2B2
100
AcDbEntity
100
AcDbLine
  8
text
 62
256
370
-1
  6
ByLayer
 10
216.1035670114191021
 20
201.4381134127297628
 30
0.0
 11
216.1035670114191021
 21
200.3270023016185917
 31
0.0
  0
ARC
  5
2B3
100
AcDbEntity
  8
text
 62
256
370
-1
  6
ByLayer
100
AcDbCircle
 10
213.8813447891969304
 20
200.3270023016186769
 30
0.0
 40
2.2222222222222223
100
AcDbArc
 50
270.0
 51
0.0
  0
LINE
  5
2B4
100
AcDbEntity
100
AcDbLine
  8
text
 62
256
370
-1
  6
ByLayer
 10
213.8813447891969304
 20
198.1047800793963916
 30
0.0
 11
210.5480114558635591
 21
198.1047800793963916
 31
0.0
  0
LINE
  5
2B5
100
AcDbEntity
100
AcDbLine
  8
text
 62
256
370
-1
  6
ByLayer
 10
219.4369003447524733
 20
203.6603356349519061
 30
0.0
 11
219.4369003447524733
 21
194.7714467460630203
 31
0.0
  0
ARC
  5
2B6
100
AcDbEntity
  8
text
 62
256
370
-1
  6
ByLayer
100
AcDbCircle
 10
220.5480114558635591
 20
194.7714467460630772
 30
0.0
 40
1.1111111111111112
100
AcDbArc
 50
180.0
 51
270.0
  0
LINE
  5
2B7
100
AcDbEntity
100
AcDbLine
  8
text
 62
256
370
-1
  6
ByLayer
 10
224.4369003447524733
 20
200.3270023016185917
 30
0.0
 11
226.659122566974645
 21
200.3270023016185633
 31
0.0
  0
ARC
  5
2B8
100
AcDbEntity
  8
text
 62
256
370
-1
  6
ByLayer
100
AcDbCircle
 10
226.659122566974645
 20
198.6603356349519913
 30
0.0
 40
1.6666666666666667
100
AcDbArc
 50
0.0
 51
90.0
  0
LINE
  5
2B9
100
AcDbEntity
100
AcDbLine
  8
text
 62
256
370
-1
  6
ByLayer
 10
228.3257892336413875
 20
198.6603356349519345
 30
0.0
 11
228.3257892336413875
 21
193.6603356349519913
 31
0.0
  0
LINE
  5
2BA
100
AcDbEntity
100
AcDbLine
  8
text
 62
256
370
-1
  6
ByLayer
 10
228.3257892336413875
 20
193.6603356349519913
 30
0.0
 11
225.5480114558635591
 21
193.6603356349519345
 31
0.0
  0
ARC
  5
2BB
100
AcDbEntity
  8
text
 62
256
370
-1
  6
ByLayer
100
AcDbCircle
 10
225.5480114558635591
 20
195.3270023016185633
 30
0.0
 40
1.6666666666666667
100
AcDbArc
 50
90.0
 51
270.0
  0
LINE
  5
2BC
100
AcDbEntity
100
AcDbLine
  8
text
 62
256
370
-1
  6
ByLayer
 10
225.5480114558636728
 20
196.9936689682853626
 30
0.0
 11
228.3257892336413875
 21
196.9936689682852204
 31
0.0
  0
LINE
  5
2BD
100
AcDbEntity
100
AcDbLine
  8
text
 62
256
370
-1
  6
ByLayer
 10
231.659122566974645
 20
200.3270023016186485
 30
0.0
 11
234.9924559003080162
 21
200.3270023016186201
 31
0.0
  0
LINE
  5
2BE
100
AcDbEntity
100
AcDbLine
  8
text
 62
256
370
-1
  6
ByLayer
 10
232.7702336780857308
 20
203.6603356349519913
 30
0.0
 11
232.7702336780857308
 21
193.6603356349519345
 31
0.0
  0
LINE
  5
2BF
100
AcDbEntity
100
AcDbLine
  8
text
 62
256
370
-1
  6
ByLayer
 10
239.4369003447524733
 20
193.6603356349519913
 30
0.0
 11
239.4369003447524733
 21
201.9936689682852489
 31
0.0
  0
ARC
  5
2C0
100
AcDbEntity
  8
text
 62
256
370
-1
  6
ByLayer
100
AcDbCircle
 10
241.1035670114191021
 20
201.9936689682852489
 30
0.0
 40
1.6666666666666667
100
AcDbArc
 50
90.0
 51
180.0
  0
LINE
  5
2C1
100
AcDbEntity
100
AcDbLine
  8
text
 62
256
370
-1
  6
ByLayer
 10
241.1035670114191021
 20
203.6603356349519345
 30
0.0
 11
241.659122566974645
 21
203.6603356349519345
 31
0.0
  0
LINE
  5
2C2
100
AcDbEntity
100
AcDbLine
  8
text
 62
256
370
-1
  6
ByLayer
 10
238.3257892336413875
 20
200.3270023016185917
 30
0.0
 11
241.659122566974645
 21
200.3270023016186769
 31
0.0
  0
LINE
  5
2C3
100
AcDbEntity
100
AcDbLine
  8
text
 62
256
370
-1
  6
ByLayer
 10
244.9924559003081299
 20
198.1047800793964484
 30
0.0
 11
244.9924559003080162
 21
195.882557857174163
 31
0.0
  0
ARC
  5
2C4
100
AcDbEntity
  8
text
 62
256
370
-1
  6
ByLayer
100
AcDbCircle
 10
247.2146781225303016
 20
195.8825578571741062
 30
0.0
 40
2.2222222222222223
100
AcDbArc
 50
180.0
 51
0.0
  0
LINE
  5
2C5
100
AcDbEntity
100
AcDbLine
  8
text
 62
256
370
-1
  6
ByLayer
 10
249.4369003447524733
 20
195.8825578571742199
 30
0.0
 11
249.4369003447524733
 21
198.1047800793963347
 31
0.0
  0
ARC
  5
2C6
100
AcDbEntity
  8
text
 62
256
370
-1
  6
ByLayer
100
AcDbCircle
 10
247.2146781225303016
 20
198.1047800793963916
 30
0.0
 40
2.2222222222222223
100
AcDbArc
 50
0.0
 51
180.0
  0
LINE
  5
2C7
100
AcDbEntity
100
AcDbLine
  8
text
 62
256
370
-1
  6
ByLayer
 10
252.7702336780858445
 20
193.6603356349518776
 30
0.0
 11
252.7702336780858445
 21
200.3270023016186201
 31
0.0
  0
LINE
  5
2C8
100
AcDbEntity
100
AcDbLine
  8
text
 62
256
370
-1
  6
ByLayer
 10
252.7702336780858445
 20
200.3270023016186201
 30
0.0
 11
254.9924559003080162
 21
200.3270023016185633
 31
0.0
  0
ARC
  5
2C9
100
AcDbEntity
  8
text
 62
256
370
-1
  6
ByLayer
100
AcDbCircle
 10
254.9924559003080162
 20
199.2158911905075342
 30
0.0
 40
1.1111111111111112
100
AcDbArc
 50
0.0
 51
90.0
  0
LINE
  5
2CA
100
AcDbEntity
100
AcDbLine
  8
text
 62
256
370
-1
  6
ByLayer
 10
259.4369003447524733
 20
193.6603356349518776
 30
0.0
 11
259.4369003447524733
 21
200.3270023016186485
 31
0.0
  0
LINE
  5
2CB
100
AcDbEntity
100
AcDbLine
  8
text
 62
256
370
-1
  6
ByLayer
 10
259.4369003447524733
 20
200.3270023016186485
 30
0.0
 11
264.4369003447524733
 21
200.3270023016186201
 31
0.0
  0
ARC
  5
2CC
100
AcDbEntity
  8
text
 62
256
370
-1
  6
ByLayer
100
AcDbCircle
 10
264.4369003447524733
 20
198.6603356349518776
 30
0.0
 40
1.6666666666666667
100
AcDbArc
 50
0.0
 51
90.0
  0
LINE
  5
2CD
100
AcDbEntity
100
AcDbLine
  8
text
 62
256
370
-1
  6
ByLayer
 10
266.1035670114192158
 20
198.6603356349519913
 30
0.0
 11
266.1035670114191021
 21
193.6603356349519913
 31
0.0
  0
LINE
  5
2CE
100
AcDbEntity
100
AcDbLine
  8
text
 62
256
370
-1
  6
ByLayer
 10
262.7702336780857308
 20
200.3270023016185917
 30
0.0
 11
262.7702336780857308
 21
193.6603356349518208
 31
0.0
  0
LINE
  5
2CF
100
AcDbEntity
100
AcDbLine
  8
cuts
 62
256
370
-1
  6
ByLayer
 10
192.4701317212192748
 20
166.6060606256484391
 30
0.0
 11
195.2901317212192112
 21
166.6060606256484391
 31
0.0
  0
LINE
  5
2D0
100
AcDbEntity
100
AcDbLine
  8
cuts
 62
256
370
-1
  6
ByLayer
 10
195.2901317212192112
 20
166.6060606256484391
 30
0.0
 11
195.2901317212192112
 21
169.4260606256484323
 31
0.0
  0
LINE
  5
2D1
100
AcDbEntity
100
AcDbLine
  8
cuts
 62
256
370
-1
  6
ByLayer
 10
195.2901317212192112
 20
169.4260606256484323
 30
0.0
 11
192.4701317212192748
 21
169.4260606256484323
 31
0.0
  0
LINE
  5
2D2
100
AcDbEntity
100
AcDbLine
  8
cuts
 62
256
370
-1
  6
ByLayer
 10
192.4701317212192748
 20
169.4260606256484323
 30
0.0
 11
192.4701317212192748
 21
166.6060606256484391
 31
0.0
  0
LINE
  5
2D3
100
AcDbEntity
100
AcDbLine
  8
cuts
 62
256
370
-1
  6
ByLayer
 10
192.4701317212192748
 20
155.8060606256484846
 30
0.0
 11
195.2901317212192112
 21
155.8060606256484846
 31
0.0
  0
LINE
  5
2D4
100
AcDbEntity
100
AcDbLine
  8
cuts
 62
256
370
-1
  6
ByLayer
 10
195.2901317212192112
 20
155.8060606256484846
 30
0.0
 11
195.2901317212192112
 21
158.6260606256484209
 31
0.0
  0
LINE
  5
2D5
100
AcDbEntity
100
AcDbLine
  8
cuts
 62
256
370
-1
  6
ByLayer
 10
195.2901317212192112
 20
158.6260606256484209
 30
0.0
 11
192.4701317212192748
 21
158.6260606256484209
 31
0.0
  0
LINE
  5
2D6
100
AcDbEntity
100
AcDbLine
  8
cuts
 62
256
370
-1
  6
ByLayer
 10
192.4701317212192748
 20
158.6260606256484209
 30
0.0
 11
192.4701317212192748
 21
155.8060606256484846
 31
0.0
  0
LINE
  5
2D7
100
AcDbEntity
100
AcDbLine
  8
cuts
 62
256
370
-1
  6
ByLayer
 10
206.4701317212192748
 20
161.2060606256484618
 30
0.0
 11
209.2901317212192112
 21
161.2060606256484618
 31
0.0
  0
LINE
  5
2D8
100
AcDbEntity
100
AcDbLine
  8
cuts
 62
256
370
-1
  6
ByLayer
 10
209.2901317212192112
 20
161.2060606256484618
 30
0.0
 11
209.2901317212192112
 21
164.0260606256483982
 31
0.0
  0
LINE
  5
2D9
100
AcDbEntity
100
AcDbLine
  8
cuts
 62
256
370
-1
  6
ByLayer
 10
209.2901317212192112
 20
164.0260606256483982
 30
0.0
 11
206.4701317212192748
 21
164.0260606256483982
 31
0.0
  0
LINE
  5
2DA
100
AcDbEntity
100
AcDbLine
  8
cuts
 62
256
370
-1
  6
ByLayer
 10
206.4701317212192748
 20
164.0260606256483982
 30
0.0
 11
206.4701317212192748
 21
161.2060606256484618
 31
0.0
  0
LINE
  5
2DB
100
AcDbEntity
100
AcDbLine
  8
cuts
 62
256
370
-1
  6
ByLayer
 10
238.4701317212192748
 20
166.6060606256484391
 30
0.0
 11
241.2901317212192112
 21
166.6060606256484391
 31
0.0
  0
LINE
  5
2DC
100
AcDbEntity
100
AcDbLine
  8
cuts
 62
256
370
-1
  6
ByLayer
 10
241.2901317212192112
 20
166.6060606256484391
 30
0.0
 11
241.2901317212192112
 21
169.4260606256484323
 31
0.0
  0
LINE
  5
2DD
100
AcDbEntity
100
AcDbLine
  8
cuts
 62
256
370
-1
  6
ByLayer
 10
241.2901317212192112
 20
169.4260606256484323
 30
0.0
 11
238.4701317212192748
 21
169.4260606256484323
 31
0.0
  0
LINE
  5
2DE
100
AcDbEntity
100
AcDbLine
  8
cuts
 62
256
370
-1
  6
ByLayer
 10
238.4701317212192748
 20
169.4260606256484323
 30
0.0
 11
238.4701317212192748
 21
166.6060606256484391
 31
0.0
  0
LINE
  5
2DF
100
AcDbEntity
100
AcDbLine
  8
cuts
 62
256
370
-1
  6
ByLayer
 10
238.4701317212192748
 20
155.8060606256484846
 30
0.0
 11
241.2901317212192112
 21
155.8060606256484846
 31
0.0
  0
LINE
  5
2E0
100
AcDbEntity
100
AcDbLine
  8
cuts
 62
256
370
-1
  6
ByLayer
 10
241.2901317212192112
 20
155.8060606256484846
 30
0.0
 11
241.2901317212192112
 21
158.6260606256484209
 31
0.0
  0
LINE
  5
2E1
100
AcDbEntity
100
AcDbLine
  8
cuts
 62
256
370
-1
  6
ByLayer
 10
241.2901317212192112
 20
158.6260606256484209
 30
0.0
 11
238.4701317212192748
 21
158.6260606256484209
 31
0.0
  0
LINE
  5
2E2
100
AcDbEntity
100
AcDbLine
  8
cuts
 62
256
370
-1
  6
ByLayer
 10
238.4701317212192748
 20
158.6260606256484209
 30
0.0
 11
238.4701317212192748
 21
155.8060606256484846
 31
0.0
  0
LINE
  5
2E3
100
AcDbEntity
100
AcDbLine
  8
cuts
 62
256
370
-1
  6
ByLayer
 10
188.880131721219243
 20
140.61606062564843
 30
0.0
 11
188.880131721219243
 21
184.61606062564843
 31
0.0
  0
LINE
  5
2E4
100
AcDbEntity
100
AcDbLine
  8
cuts
 62
256
370
-1
  6
ByLayer
 10
244.880131721219243
 20
140.61606062564843
 30
0.0
 11
188.880131721219243
 21
140.61606062564843
 31
0.0
  0
LINE
  5
2E5
100
AcDbEntity
100
AcDbLine
  8
cuts
 62
256
370
-1
  6
ByLayer
 10
188.880131721219243
 20
184.61606062564843
 30
0.0
 11
244.880131721219243
 21
184.61606062564843
 31
0.0
  0
LINE
  5
2E6
100
AcDbEntity
100
AcDbLine
  8
cuts
 62
256
370
-1
  6
ByLayer
 10
244.880131721219243
 20
184.61606062564843
 30
0.0
 11
244.880131721219243
 21
140.61606062564843
 31
0.0
  0
CIRCLE
  5
2E7
100
AcDbEntity
100
AcDbCircle
  8
cuts
 62
256
370
-1
  6
ByLayer
 10
207.880131721219243
 20
146.5160606256484073
 30
0.0
 40
1.5
  0
CIRCLE
  5
2E8
100
AcDbEntity
100
AcDbCircle
  8
cuts
 62
256
370
-1
  6
ByLayer
 10
207.880131721219243
 20
178.7160606256484527
 30
0.0
 40
1.5
  0
CIRCLE
  5
2E9
100
AcDbEntity
100
AcDbCircle
  8
cuts
 62
256
370
-1
  6
ByLayer
 10
221.880131721219243
 20
162.61606062564843
 30
0.0
 40
1.5
  0
LINE
  5
2EA
100
AcDbEntity
100
AcDbLine
  8
text
 62
256
370
-1
  6
ByLayer
 10
210.380131721219243
 20
149.3520403359813429
 30
0.0
 11
212.6023539434414715
 21
151.0187070026480285
 31
0.0
  0
LINE
  5
2EB
100
AcDbEntity
100
AcDbLine
  8
text
 62
256
370
-1
  6
ByLayer
 10
212.6023539434414715
 20
151.0187070026480285
 30
0.0
 11
215.380131721219243
 21
151.0187070026480285
 31
0.0
  0
LINE
  5
2EC
100
AcDbEntity
100
AcDbLine
  8
text
 62
256
370
-1
  6
ByLayer
 10
212.6023539434414715
 20
151.0187070026480285
 30
0.0
 11
210.380131721219243
 21
152.6853736693147141
 31
0.0
  0
ARC
  5
2ED
100
AcDbEntity
  8
text
 62
256
370
-1
  6
ByLayer
100
AcDbCircle
 10
214.0606872767747859
 20
159.2131514470924287
 30
0.0
 40
3.6805555555555558
100
AcDbArc
 50
153.0699999999999932
 51
180.0
  0
ARC
  5
2EE
100
AcDbEntity
  8
text
 62
256
370
-1
  6
ByLayer
100
AcDbCircle
 10
211.4912428323303288
 20
159.2131514470924287
 30
0.0
 40
1.1111111111111112
100
AcDbArc
 50
180.0
 51
333.0
  0
LINE
  5
2EF
100
AcDbEntity
100
AcDbLine
  8
text
 62
256
370
-1
  6
ByLayer
 10
212.4812428323303379
 20
158.7081514470924333
 30
0.0
 11
213.2790206101080912
 21
160.2737070026480239
 31
0.0
  0
ARC
  5
2F0
100
AcDbEntity
  8
text
 62
256
370
-1
  6
ByLayer
100
AcDbCircle
 10
214.2690206101081571
 20
159.7687070026480285
 30
0.0
 40
1.1111111111111112
100
AcDbArc
 50
360.0
 51
152.9799999999999898
  0
ARC
  5
2F1
100
AcDbEntity
  8
text
 62
256
370
-1
  6
ByLayer
100
AcDbCircle
 10
211.6995761656637001
 20
159.7687070026480285
 30
0.0
 40
3.6805555555555558
100
AcDbArc
 50
333.0999999999999659
 51
360.0
  0
LINE
  5
2F2
100
AcDbEntity
100
AcDbLine
  8
text
 62
256
370
-1
  6
ByLayer
 10
212.0467983878858718
 20
162.5467475819821459
 30
0.0
 11
212.0467983878858718
 21
164.2134142486488884
 31
0.0
  0
LINE
  5
2F3
100
AcDbEntity
100
AcDbLine
  8
text
 62
256
370
-1
  6
ByLayer
 10
210.380131721219243
 20
163.1023031375377457
 30
0.0
 11
215.380131721219243
 21
163.1023031375377457
 31
0.0
  0
LINE
  5
2F4
100
AcDbEntity
100
AcDbLine
  8
text
 62
256
370
-1
  6
ByLayer
 10
212.0467983878858718
 20
166.1578586930932886
 30
0.0
 11
212.0467983878858718
 21
167.2689698042043744
 31
0.0
  0
ARC
  5
2F5
100
AcDbEntity
  8
text
 62
256
370
-1
  6
ByLayer
100
AcDbCircle
 10
212.880131721219243
 20
167.2689698042044313
 30
0.0
 40
0.8333333333333334
100
AcDbArc
 50
90.0
 51
180.0
  0
LINE
  5
2F6
100
AcDbEntity
100
AcDbLine
  8
text
 62
256
370
-1
  6
ByLayer
 10
212.880131721219243
 20
168.1023031375377457
 30
0.0
 11
215.380131721219243
 21
168.1023031375377457
 31
0.0
  0
LINE
  5
2F7
100
AcDbEntity
100
AcDbLine
  8
text
 62
256
370
-1
  6
ByLayer
 10
215.380131721219243
 20
168.1023031375377457
 30
0.0
 11
215.380131721219243
 21
166.7134142486488315
 31
0.0
  0
ARC
  5
2F8
100
AcDbEntity
  8
text
 62
256
370
-1
  6
ByLayer
100
AcDbCircle
 10
214.5467983878859286
 20
166.7134142486488884
 30
0.0
 40
0.8333333333333334
100
AcDbArc
 50
180.0
 51
360.0
  0
LINE
  5
2F9
100
AcDbEntity
100
AcDbLine
  8
text
 62
256
370
-1
  6
ByLayer
 10
213.7134650545526142
 20
166.7134142486488884
 30
0.0
 11
213.7134650545526142
 21
168.1023031375377457
 31
0.0
  0
LINE
  5
2FA
100
AcDbEntity
100
AcDbLine
  8
text
 62
256
370
-1
  6
ByLayer
 10
217.0467983878859286
 20
169.7689698042044313
 30
0.0
 11
217.0467983878858718
 21
171.1578586930932886
 31
0.0
  0
ARC
  5
2FB
100
AcDbEntity
  8
text
 62
256
370
-1
  6
ByLayer
100
AcDbCircle
 10
216.2134650545526142
 20
171.1578586930932886
 30
0.0
 40
0.8333333333333334
100
AcDbArc
 50
360.0
 51
90.0
  0
LINE
  5
2FC
100
AcDbEntity
100
AcDbLine
  8
text
 62
256
370
-1
  6
ByLayer
 10
216.2134650545526142
 20
171.991192026426603
 30
0.0
 11
212.0467983878858718
 21
171.991192026426603
 31
0.0
  0
LINE
  5
2FD
100
AcDbEntity
100
AcDbLine
  8
text
 62
256
370
-1
  6
ByLayer
 10
212.0467983878858718
 20
171.991192026426603
 30
0.0
 11
212.0467983878858718
 21
170.6023031375376888
 31
0.0
  0
ARC
  5
2FE
100
AcDbEntity
  8
text
 62
256
370
-1
  6
ByLayer
100
AcDbCircle
 10
212.880131721219243
 20
170.6023031375377457
 30
0.0
 40
0.8333333333333334
100
AcDbArc
 50
180.0
 51
270.0
  0
LINE
  5
2FF
100
AcDbEntity
100
AcDbLine
  8
text
 62
256
370
-1
  6
ByLayer
 10
212.880131721219243
 20
169.7689698042044313
 30
0.0
 11
214.5467983878858718
 21
169.7689698042044313
 31
0.0
  0
ARC
  5
300
100
AcDbEntity
  8
text
 62
256
370
-1
  6
ByLayer
100
AcDbCircle
 10
214.5467983878859286
 20
170.6023031375377457
 30
0.0
 40
0.8333333333333334
100
AcDbArc
 50
270.0
 51
360.0
  0
LINE
  5
301
100
AcDbEntity
100
AcDbLine
  8
text
 62
256
370
-1
  6
ByLayer
 10
215.380131721219243
 20
170.6023031375377457
 30
0.0
 11
215.380131721219243
 21
171.991192026426603
 31
0.0
  0
LINE
  5
302
100
AcDbEntity
100
AcDbLine
  8
text
 62
256
370
-1
  6
ByLayer
 10
213.7134650545526142
 20
173.6578586930932886
 30
0.0
 11
213.7134650545525574
 21
175.8800809153155171
 31
0.0
  0
LINE
  5
303
100
AcDbEntity
100
AcDbLine
  8
text
 62
256
370
-1
  6
ByLayer
 10
213.7134650545525574
 20
175.8800809153155171
 30
0.0
 11
213.1579094989970145
 21
175.8800809153155171
 31
0.0
  0
ARC
  5
304
100
AcDbEntity
  8
text
 62
256
370
-1
  6
ByLayer
100
AcDbCircle
 10
213.1579094989970145
 20
174.7689698042044313
 30
0.0
 40
1.1111111111111112
100
AcDbArc
 50
90.0
 51
270.0
  0
LINE
  5
305
100
AcDbEntity
100
AcDbLine
  8
text
 62
256
370
-1
  6
ByLayer
 10
213.1579094989970145
 20
173.6578586930932886
 30
0.0
 11
214.5467983878859286
 21
173.6578586930932886
 31
0.0
  0
ARC
  5
306
100
AcDbEntity
  8
text
 62
256
370
-1
  6
ByLayer
100
AcDbCircle
 10
214.5467983878859286
 20
174.491192026426603
 30
0.0
 40
0.8333333333333334
100
AcDbArc
 50
270.0
 51
360.0
  0
LINE
  5
307
100
AcDbEntity
100
AcDbLine
  8
text
 62
256
370
-1
  6
ByLayer
 10
215.380131721219243
 20
174.491192026426603
 30
0.0
 11
215.380131721219243
 21
175.8800809153155171
 31
0.0
  0
LINE
  5
308
100
AcDbEntity
100
AcDbLine
  8
cuts
 62
256
370
-1
  6
ByLayer
 10
193.880131721219243
 20
176.2160606256484527
 30
0.0
 11
193.880131721219243
 21
181.2160606256484527
 31
0.0
  0
LINE
  5
309
100
AcDbEntity
100
AcDbLine
  8
cuts
 62
256
370
-1
  6
ByLayer
 10
201.880131721219243
 20
176.2160606256484527
 30
0.0
 11
193.880131721219243
 21
176.2160606256484527
 31
0.0
  0
LINE
  5
30A
100
AcDbEntity
100
AcDbLine
  8
cuts
 62
256
370
-1
  6
ByLayer
 10
201.880131721219243
 20
181.2160606256484527
 30
0.0
 11
201.880131721219243
 21
176.2160606256484527
 31
0.0
  0
LINE
  5
30B
100
AcDbEntity
100
AcDbLine
  8
cuts
 62
256
370
-1
  6
ByLayer
 10
193.880131721219243
 20
181.2160606256484527
 30
0.0
 11
201.880131721219243
 21
181.2160606256484527
 31
0.0
  0
LINE
  5
30C
100
AcDbEntity
100
AcDbLine
  8
cuts
 62
256
370
-1
  6
ByLayer
 10
193.880131721219243
 20
144.0160606256484073
 30
0.0
 11
193.880131721219243
 21
149.0160606256484073
 31
0.0
  0
LINE
  5
30D
100
AcDbEntity
100
AcDbLine
  8
cuts
 62
256
370
-1
  6
ByLayer
 10
201.880131721219243
 20
144.0160606256484073
 30
0.0
 11
193.880131721219243
 21
144.0160606256484073
 31
0.0
  0
LINE
  5
30E
100
AcDbEntity
100
AcDbLine
  8
cuts
 62
256
370
-1
  6
ByLayer
 10
193.880131721219243
 20
149.0160606256484073
 30
0.0
 11
201.880131721219243
 21
149.0160606256484073
 31
0.0
  0
LINE
  5
30F
100
AcDbEntity
100
AcDbLine
  8
cuts
 62
256
370
-1
  6
ByLayer
 10
201.880131721219243
 20
149.0160606256484073
 30
0.0
 11
201.880131721219243
 21
144.0160606256484073
 31
0.0
  0
LINE
  5
310
100
AcDbEntity
100
AcDbLine
  8
cuts
 62
256
370
-1
  6
ByLayer
 10
219.380131721219243
 20
149.2160606256484527
 30
0.0
 11
219.380131721219243
 21
157.2160606256484527
 31
0.0
  0
LINE
  5
311
100
AcDbEntity
100
AcDbLine
  8
cuts
 62
256
370
-1
  6
ByLayer
 10
224.380131721219243
 20
149.2160606256484527
 30
0.0
 11
219.380131721219243
 21
149.2160606256484527
 31
0.0
  0
LINE
  5
312
100
AcDbEntity
100
AcDbLine
  8
cuts
 62
256
370
-1
  6
ByLayer
 10
224.380131721219243
 20
157.2160606256484527
 30
0.0
 11
224.380131721219243
 21
149.2160606256484527
 31
0.0
  0
LINE
  5
313
100
AcDbEntity
100
AcDbLine
  8
cuts
 62
256
370
-1
  6
ByLayer
 10
219.380131721219243
 20
157.2160606256484527
 30
0.0
 11
224.380131721219243
 21
157.2160606256484527
 31
0.0
  0
LINE
  5
314
100
AcDbEntity
100
AcDbLine
  8
cuts
 62
256
370
-1
  6
ByLayer
 10
224.380131721219243
 20
168.0160606256484073
 30
0.0
 11
219.380131721219243
 21
168.0160606256484073
 31
0.0
  0
LINE
  5
315
100
AcDbEntity
100
AcDbLine
  8
cuts
 62
256
370
-1
  6
ByLayer
 10
219.380131721219243
 20
168.0160606256484073
 30
0.0
 11
219.380131721219243
 21
176.0160606256484073
 31
0.0
  0
LINE
  5
316
100
AcDbEntity
100
AcDbLine
  8
cuts
 62
256
370
-1
  6
ByLayer
 10
219.380131721219243
 20
176.0160606256484073
 30
0.0
 11
224.380131721219243
 21
176.0160606256484073
 31
0.0
  0
LINE
  5
317
100
AcDbEntity
100
AcDbLine
  8
cuts
 62
256
370
-1
  6
ByLayer
 10
224.380131721219243
 20
176.0160606256484073
 30
0.0
 11
224.380131721219243
 21
168.0160606256484073
 31
0.0
  0
LINE
  5
318
100
AcDbEntity
100
AcDbLine
  8
cuts
 62
256
370
-1
  6
ByLayer
 10
231.880131721219243
 20
176.2160606256484527
 30
0.0
 11
231.880131721219243
 21
181.2160606256484527
 31
0.0
  0
LINE
  5
319
100
AcDbEntity
100
AcDbLine
  8
cuts
 62
256
370
-1
  6
ByLayer
 10
239.880131721219243
 20
176.2160606256484527
 30
0.0
 11
231.880131721219243
 21
176.2160606256484527
 31
0.0
  0
LINE
  5
31A
100
AcDbEntity
100
AcDbLine
  8
cuts
 62
256
370
-1
  6
ByLayer
 10
239.880131721219243
 20
181.2160606256484527
 30
0.0
 11
239.880131721219243
 21
176.2160606256484527
 31
0.0
  0
LINE
  5
31B
100
AcDbEntity
100
AcDbLine
  8
cuts
 62
256
370
-1
  6
ByLayer
 10
231.880131721219243
 20
181.2160606256484527
 30
0.0
 11
239.880131721219243
 21
181.2160606256484527
 31
0.0
  0
LINE
  5
31C
100
AcDbEntity
100
AcDbLine
  8
cuts
 62
256
370
-1
  6
ByLayer
 10
231.880131721219243
 20
144.0160606256484073
 30
0.0
 11
231.880131721219243
 21
149.0160606256484073
 31
0.0
  0
LINE
  5
31D
100
AcDbEntity
100
AcDbLine
  8
cuts
 62
256
370
-1
  6
ByLayer
 10
239.880131721219243
 20
144.0160606256484073
 30
0.0
 11
231.880131721219243
 21
144.0160606256484073
 31
0.0
  0
LINE
  5
31E
100
AcDbEntity
100
AcDbLine
  8
cuts
 62
256
370
-1
  6
ByLayer
 10
231.880131721219243
 20
149.0160606256484073
 30
0.0
 11
239.880131721219243
 21
149.0160606256484073
 31
0.0
  0
LINE
  5
31F
100
AcDbEntity
100
AcDbLine
  8
cuts
 62
256
370
-1
  6
ByLayer
 10
239.880131721219243
 20
149.0160606256484073
 30
0.0
 11
239.880131721219243
 21
144.0160606256484073
 31
0.0
  0
INSERT
  5
320
100
AcDbEntity
100
AcDbBlockReference
  8
cuts
 62
256
370
-1
  6
ByLayer
  2
m3-t-slot
 10
146.6581654873922389
 20
22.8125871846804671
 30
0.0
 44
1.0
 45
1.0
  0
INSERT
  5
321
100
AcDbEntity
100
AcDbBlockReference
  8
cuts
 62
256
370
-1
  6
ByLayer
  2
m3-t-slot
 10
146.6581654873922389
 20
49.6125871846804216
 30
0.0
 50
180.0
 44
1.0
 45
1.0
  0
LINE
  5
322
100
AcDbEntity
100
AcDbLine
  8
cuts
 62
256
370
-1
  6
ByLayer
 10
166.5381654873922344
 20
22.8125871846804671
 30
0.0
 11
166.5381654873922344
 21
49.6125871846804216
 31
0.0
  0
INSERT
  5
323
100
AcDbEntity
100
AcDbBlockReference
  8
cuts
 62
256
370
-1
  6
ByLayer
  2
m3-t-slot
 10
159.5381654873922344
 20
22.8125871846804671
 30
0.0
 44
1.0
 45
1.0
  0
INSERT
  5
324
100
AcDbEntity
100
AcDbBlockReference
  8
cuts
 62
256
370
-1
  6
ByLayer
  2
m3-t-slot
 10
159.5381654873922344
 20
49.6125871846804216
 30
0.0
 50
180.0
 44
1.0
 45
1.0
  0
LINE
  5
325
100
AcDbEntity
100
AcDbLine
  8
cuts
 62
256
370
-1
  6
ByLayer
 10
166.5381654873922344
 20
49.6125871846804216
 30
0.0
 11
161.0381654873922344
 21
49.6125871846804785
 31
0.0
  0
LINE
  5
326
100
AcDbEntity
100
AcDbLine
  8
cuts
 62
256
370
-1
  6
ByLayer
 10
158.0381654873922344
 20
49.6125871846804216
 30
0.0
 11
148.1581654873922389
 21
49.6125871846804785
 31
0.0
  0
LINE
  5
327
100
AcDbEntity
100
AcDbLine
  8
cuts
 62
256
370
-1
  6
ByLayer
 10
148.1581654873922389
 20
22.8125871846804102
 30
0.0
 11
158.0381654873922344
 21
22.8125871846804102
 31
0.0
  0
LINE
  5
328
100
AcDbEntity
100
AcDbLine
  8
cuts
 62
256
370
-1
  6
ByLayer
 10
161.0381654873922344
 20
22.8125871846803534
 30
0.0
 11
166.5381654873922344
 21
22.8125871846804671
 31
0.0
  0
LINE
  5
329
100
AcDbEntity
100
AcDbLine
  8
cuts
 62
256
370
-1
  6
ByLayer
 10
158.5381654873922344
 20
35.7625871846804557
 30
0.0
 11
164.5381654873922344
 21
35.7625871846805126
 31
0.0
  0
LINE
  5
32A
100
AcDbEntity
100
AcDbLine
  8
cuts
 62
256
370
-1
  6
ByLayer
 10
164.5381654873922344
 20
35.7625871846805126
 30
0.0
 11
164.5381654873922344
 21
36.6625871846804898
 31
0.0
  0
LINE
  5
32B
100
AcDbEntity
100
AcDbLine
  8
cuts
 62
256
370
-1
  6
ByLayer
 10
164.5381654873922344
 20
36.6625871846804898
 30
0.0
 11
158.5381654873922344
 21
36.6625871846804898
 31
0.0
  0
LINE
  5
32C
100
AcDbEntity
100
AcDbLine
  8
cuts
 62
256
370
-1
  6
ByLayer
 10
158.5381654873922344
 20
36.6625871846804898
 30
0.0
 11
158.5381654873922344
 21
35.7625871846804557
 31
0.0
  0
LINE
  5
32D
100
AcDbEntity
100
AcDbLine
  8
cuts
 62
256
370
-1
  6
ByLayer
 10
158.5381654873922344
 20
37.7625871846805126
 30
0.0
 11
164.5381654873922344
 21
37.7625871846805126
 31
0.0
  0
LINE
  5
32E
100
AcDbEntity
100
AcDbLine
  8
cuts
 62
256
370
-1
  6
ByLayer
 10
164.5381654873922344
 20
37.7625871846805126
 30
0.0
 11
164.5381654873922344
 21
38.662587184680433
 31
0.0
  0
LINE
  5
32F
100
AcDbEntity
100
AcDbLine
  8
cuts
 62
256
370
-1
  6
ByLayer
 10
164.5381654873922344
 20
38.662587184680433
 30
0.0
 11
158.5381654873922344
 21
38.6625871846804898
 31
0.0
  0
LINE
  5
330
100
AcDbEntity
100
AcDbLine
  8
cuts
 62
256
370
-1
  6
ByLayer
 10
158.5381654873922344
 20
38.6625871846804898
 30
0.0
 11
158.5381654873922344
 21
37.7625871846805126
 31
0.0
  0
LINE
  5
331
100
AcDbEntity
100
AcDbLine
  8
cuts
 62
256
370
-1
  6
ByLayer
 10
158.5381654873922344
 20
33.7625871846804557
 30
0.0
 11
164.5381654873922344
 21
33.7625871846804557
 31
0.0
  0
LINE
  5
332
100
AcDbEntity
100
AcDbLine
  8
cuts
 62
256
370
-1
  6
ByLayer
 10
164.5381654873922344
 20
33.7625871846804557
 30
0.0
 11
164.5381654873922344
 21
34.6625871846804898
 31
0.0
  0
LINE
  5
333
100
AcDbEntity
100
AcDbLine
  8
cuts
 62
256
370
-1
  6
ByLayer
 10
164.5381654873922344
 20
34.6625871846804898
 30
0.0
 11
158.5381654873922344
 21
34.6625871846804898
 31
0.0
  0
LINE
  5
334
100
AcDbEntity
100
AcDbLine
  8
cuts
 62
256
370
-1
  6
ByLayer
 10
158.5381654873922344
 20
34.6625871846804898
 30
0.0
 11
158.5381654873922344
 21
33.7625871846804557
 31
0.0
  0
CIRCLE
  5
335
100
AcDbEntity
100
AcDbCircle
  8
cuts
 62
256
370
-1
  6
ByLayer
 10
150.8481654873921798
 20
36.2125871846805012
 30
0.0
 40
1.5
  0
LINE
  5
336
100
AcDbEntity
100
AcDbLine
  8
text
 62
256
370
-1
  6
ByLayer
 10
149.5905390557149985
 20
42.0838671818376611
 30
0.0
 11
150.2572057223816273
 21
41.1949782929487469
 31
0.0
  0
LINE
  5
337
100
AcDbEntity
100
AcDbLine
  8
text
 62
256
370
-1
  6
ByLayer
 10
150.2572057223816273
 20
41.1949782929487469
 30
0.0
 11
150.2572057223816273
 21
40.0838671818376611
 31
0.0
  0
LINE
  5
338
100
AcDbEntity
100
AcDbLine
  8
text
 62
256
370
-1
  6
ByLayer
 10
150.2572057223816273
 20
41.1949782929487469
 30
0.0
 11
150.9238723890483698
 21
42.0838671818376611
 31
0.0
  0
LINE
  5
339
100
AcDbEntity
100
AcDbLine
  8
text
 62
256
370
-1
  6
ByLayer
 10
153.0905390557149985
 20
40.0838671818377179
 30
0.0
 11
153.0905390557149985
 21
41.4172005151710323
 31
0.0
  0
LINE
  5
33A
100
AcDbEntity
100
AcDbLine
  8
text
 62
256
370
-1
  6
ByLayer
 10
153.0905390557149985
 20
41.4172005151710323
 30
0.0
 11
153.5349835001594556
 21
41.4172005151709755
 31
0.0
  0
ARC
  5
33B
100
AcDbEntity
  8
text
 62
256
370
-1
  6
ByLayer
100
AcDbCircle
 10
153.5349835001594556
 20
41.1949782929488038
 30
0.0
 40
0.2222222222222222
100
AcDbArc
 50
0.0
 51
90.0
  0
LINE
  5
33C
100
AcDbEntity
100
AcDbLine
  8
text
 62
256
370
-1
  6
ByLayer
 10
154.4238723890483698
 20
40.0838671818376611
 30
0.0
 11
154.4238723890483698
 21
41.4172005151710323
 31
0.0
  0
LINE
  5
33D
100
AcDbEntity
100
AcDbLine
  8
text
 62
256
370
-1
  6
ByLayer
 10
154.4238723890483698
 20
41.9727560707265752
 30
0.0
 11
154.4238723890483698
 21
42.0838671818376611
 31
0.0
  0
LINE
  5
33E
100
AcDbEntity
100
AcDbLine
  8
text
 62
256
370
-1
  6
ByLayer
 10
155.0905390557149985
 20
42.0838671818376611
 30
0.0
 11
155.0905390557149985
 21
40.0838671818376611
 31
0.0
  0
LINE
  5
33F
100
AcDbEntity
100
AcDbLine
  8
text
 62
256
370
-1
  6
ByLayer
 10
155.0905390557149985
 20
40.0838671818376611
 30
0.0
 11
155.6460946112705415
 21
40.0838671818376611
 31
0.0
  0
ARC
  5
340
100
AcDbEntity
  8
text
 62
256
370
-1
  6
ByLayer
100
AcDbCircle
 10
155.6460946112705415
 20
40.4172005151709755
 30
0.0
 40
0.3333333333333333
100
AcDbArc
 50
270.0
 51
0.0
  0
LINE
  5
341
100
AcDbEntity
100
AcDbLine
  8
text
 62
256
370
-1
  6
ByLayer
 10
155.9794279446039127
 20
40.4172005151709755
 30
0.0
 11
155.9794279446039127
 21
41.0838671818376042
 31
0.0
  0
ARC
  5
342
100
AcDbEntity
  8
text
 62
256
370
-1
  6
ByLayer
100
AcDbCircle
 10
155.6460946112705415
 20
41.0838671818376611
 30
0.0
 40
0.3333333333333333
100
AcDbArc
 50
0.0
 51
90.0
  0
LINE
  5
343
100
AcDbEntity
100
AcDbLine
  8
text
 62
256
370
-1
  6
ByLayer
 10
155.6460946112705415
 20
41.4172005151709755
 30
0.0
 11
155.0905390557149985
 21
41.4172005151710323
 31
0.0
  0
INSERT
  5
344
100
AcDbEntity
100
AcDbBlockReference
  8
cuts
 62
256
370
-1
  6
ByLayer
  2
m3-t-slot
 10
137.258165487392489
 20
36.2125871846804444
 30
0.0
 50
270.0
 44
1.0
 45
1.0
  0
LINE
  5
345
100
AcDbEntity
100
AcDbLine
  8
cuts
 62
256
370
-1
  6
ByLayer
 10
134.1581654873922389
 20
41.6125871846804216
 30
0.0
 11
137.258165487392489
 21
41.6125871846804216
 31
0.0
  0
LINE
  5
346
100
AcDbEntity
100
AcDbLine
  8
cuts
 62
256
370
-1
  6
ByLayer
 10
137.258165487392489
 20
41.6125871846804216
 30
0.0
 11
137.258165487392489
 21
37.7125871846804444
 31
0.0
  0
LINE
  5
347
100
AcDbEntity
100
AcDbLine
  8
cuts
 62
256
370
-1
  6
ByLayer
 10
137.258165487392489
 20
34.7125871846804444
 30
0.0
 11
137.2581654873923753
 21
30.8125871846805239
 31
0.0
  0
LINE
  5
348
100
AcDbEntity
100
AcDbLine
  8
cuts
 62
256
370
-1
  6
ByLayer
 10
137.2581654873923753
 20
30.8125871846805239
 30
0.0
 11
134.1581654873922389
 21
30.8125871846805239
 31
0.0
  0
LINE
  5
349
100
AcDbEntity
100
AcDbLine
  8
cuts
 62
256
370
-1
  6
ByLayer
 10
134.1581654873922389
 20
49.6125871846804785
 30
0.0
 11
134.1581654873922389
 21
41.6125871846804216
 31
0.0
  0
LINE
  5
34A
100
AcDbEntity
100
AcDbLine
  8
cuts
 62
256
370
-1
  6
ByLayer
 10
145.1581654873922389
 20
49.6125871846804216
 30
0.0
 11
134.1581654873922389
 21
49.6125871846804785
 31
0.0
  0
LINE
  5
34B
100
AcDbEntity
100
AcDbLine
  8
cuts
 62
256
370
-1
  6
ByLayer
 10
134.1581654873922389
 20
30.8125871846805239
 30
0.0
 11
134.1581654873922389
 21
22.8125871846804671
 31
0.0
  0
LINE
  5
34C
100
AcDbEntity
100
AcDbLine
  8
cuts
 62
256
370
-1
  6
ByLayer
 10
134.1581654873922389
 20
22.8125871846804671
 30
0.0
 11
145.1581654873922389
 21
22.8125871846804671
 31
0.0
  0
CIRCLE
  5
34D
100
AcDbEntity
100
AcDbCircle
  8
inner-clamp
 62
256
370
-1
  6
ByLayer
 10
139.9236631427225461
 20
12.7497040508508235
 30
0.0
 40
1.5
  0
LINE
  5
34E
100
AcDbEntity
100
AcDbLine
  8
inner-clamp
 62
256
370
-1
  6
ByLayer
 10
139.9236631427225461
 20
17.8397040508505711
 30
0.0
 11
155.2830912127083707
 21
17.8397040508505711
 31
0.0
  0
LINE
  5
34F
100
AcDbEntity
100
AcDbLine
  8
inner-clamp
 62
256
370
-1
  6
ByLayer
 10
139.9236631427225461
 20
7.6597040508510759
 30
0.0
 11
155.2830912127083707
 21
7.6597040508510759
 31
0.0
  0
LINE
  5
350
100
AcDbEntity
100
AcDbLine
  8
inner-clamp
 62
256
370
-1
  6
ByLayer
 10
155.2830912127083707
 20
17.8397040508505711
 30
0.0
 11
155.2830912127083707
 21
7.6597040508510759
 31
0.0
  0
ARC
  5
351
100
AcDbEntity
  8
inner-clamp
 62
256
370
-1
  6
ByLayer
100
AcDbCircle
 10
139.9236631427225461
 20
12.7497040508508235
 30
0.0
 40
5.0899999999997467
100
AcDbArc
 50
90.0
 51
270.0
  0
LINE
  5
352
100
AcDbEntity
100
AcDbLine
  8
text
 62
256
370
-1
  6
ByLayer
 10
143.9280241726369809
 20
13.7081567294926003
 30
0.0
 11
144.5946908393037234
 21
12.8192678406036293
 31
0.0
  0
LINE
  5
353
100
AcDbEntity
100
AcDbLine
  8
text
 62
256
370
-1
  6
ByLayer
 10
144.5946908393037234
 20
12.8192678406036293
 30
0.0
 11
144.5946908393037234
 21
11.7081567294926003
 31
0.0
  0
LINE
  5
354
100
AcDbEntity
100
AcDbLine
  8
text
 62
256
370
-1
  6
ByLayer
 10
144.5946908393037234
 20
12.8192678406036293
 30
0.0
 11
145.2613575059702384
 21
13.7081567294926003
 31
0.0
  0
LINE
  5
355
100
AcDbEntity
100
AcDbLine
  8
text
 62
256
370
-1
  6
ByLayer
 10
148.0946908393037234
 20
13.0414900628259147
 30
0.0
 11
147.7613575059702384
 21
13.0414900628259716
 31
0.0
  0
ARC
  5
356
100
AcDbEntity
  8
text
 62
256
370
-1
  6
ByLayer
100
AcDbCircle
 10
147.7613575059702384
 20
12.7081567294926003
 30
0.0
 40
0.3333333333333333
100
AcDbArc
 50
90.0
 51
180.0
  0
LINE
  5
357
100
AcDbEntity
100
AcDbLine
  8
text
 62
256
370
-1
  6
ByLayer
 10
147.4280241726369809
 20
12.7081567294926572
 30
0.0
 11
147.4280241726369809
 21
12.0414900628258579
 31
0.0
  0
ARC
  5
358
100
AcDbEntity
  8
text
 62
256
370
-1
  6
ByLayer
100
AcDbCircle
 10
147.7613575059702384
 20
12.0414900628259147
 30
0.0
 40
0.3333333333333333
100
AcDbArc
 50
180.0
 51
270.0
  0
LINE
  5
359
100
AcDbEntity
100
AcDbLine
  8
text
 62
256
370
-1
  6
ByLayer
 10
147.7613575059702384
 20
11.7081567294926003
 30
0.0
 11
148.0946908393037234
 21
11.7081567294924866
 31
0.0
  0
LINE
  5
35A
100
AcDbEntity
100
AcDbLine
  8
text
 62
256
370
-1
  6
ByLayer
 10
148.7613575059702384
 20
13.7081567294925435
 30
0.0
 11
148.7613575059702384
 21
11.9303789517148289
 31
0.0
  0
ARC
  5
35B
100
AcDbEntity
  8
text
 62
256
370
-1
  6
ByLayer
100
AcDbCircle
 10
148.9835797281925238
 20
11.930378951714772
 30
0.0
 40
0.2222222222222222
100
AcDbArc
 50
180.0
 51
270.0
  0
LINE
  5
35C
100
AcDbEntity
100
AcDbLine
  8
text
 62
256
370
-1
  6
ByLayer
 10
149.7613575059702384
 20
13.0414900628259716
 30
0.0
 11
150.2058019504148092
 21
13.0414900628259147
 31
0.0
  0
ARC
  5
35D
100
AcDbEntity
  8
text
 62
256
370
-1
  6
ByLayer
100
AcDbCircle
 10
150.2058019504148092
 20
12.7081567294925435
 30
0.0
 40
0.3333333333333333
100
AcDbArc
 50
0.0
 51
90.0
  0
LINE
  5
35E
100
AcDbEntity
100
AcDbLine
  8
text
 62
256
370
-1
  6
ByLayer
 10
150.5391352837480667
 20
12.7081567294926003
 30
0.0
 11
150.5391352837480667
 21
11.7081567294925435
 31
0.0
  0
LINE
  5
35F
100
AcDbEntity
100
AcDbLine
  8
text
 62
256
370
-1
  6
ByLayer
 10
150.5391352837480667
 20
11.7081567294925435
 30
0.0
 11
149.9835797281925238
 21
11.7081567294926003
 31
0.0
  0
ARC
  5
360
100
AcDbEntity
  8
text
 62
256
370
-1
  6
ByLayer
100
AcDbCircle
 10
149.9835797281925238
 20
12.0414900628259716
 30
0.0
 40
0.3333333333333333
100
AcDbArc
 50
90.0
 51
270.0
  0
LINE
  5
361
100
AcDbEntity
100
AcDbLine
  8
text
 62
256
370
-1
  6
ByLayer
 10
149.9835797281925238
 20
12.3748233961591723
 30
0.0
 11
150.5391352837480667
 21
12.3748233961592291
 31
0.0
  0
LINE
  5
362
100
AcDbEntity
100
AcDbLine
  8
text
 62
256
370
-1
  6
ByLayer
 10
151.2058019504148092
 20
11.7081567294925435
 30
0.0
 11
151.2058019504148092
 21
13.0414900628259147
 31
0.0
  0
LINE
  5
363
100
AcDbEntity
100
AcDbLine
  8
text
 62
256
370
-1
  6
ByLayer
 10
151.2058019504148092
 20
13.0414900628259147
 30
0.0
 11
152.2058019504148092
 21
13.0414900628258579
 31
0.0
  0
ARC
  5
364
100
AcDbEntity
  8
text
 62
256
370
-1
  6
ByLayer
100
AcDbCircle
 10
152.2058019504148092
 20
12.7081567294925435
 30
0.0
 40
0.3333333333333333
100
AcDbArc
 50
0.0
 51
90.0
  0
LINE
  5
365
100
AcDbEntity
100
AcDbLine
  8
text
 62
256
370
-1
  6
ByLayer
 10
152.5391352837480667
 20
12.7081567294925435
 30
0.0
 11
152.5391352837480667
 21
11.7081567294925435
 31
0.0
  0
LINE
  5
366
100
AcDbEntity
100
AcDbLine
  8
text
 62
256
370
-1
  6
ByLayer
 10
151.872468617081438
 20
13.0414900628259716
 30
0.0
 11
151.872468617081438
 21
11.7081567294926003
 31
0.0
  0
LINE
  5
367
100
AcDbEntity
100
AcDbLine
  8
text
 62
256
370
-1
  6
ByLayer
 10
153.2058019504148092
 20
11.7081567294925435
 30
0.0
 11
153.7613575059702384
 21
11.7081567294926003
 31
0.0
  0
ARC
  5
368
100
AcDbEntity
  8
text
 62
256
370
-1
  6
ByLayer
100
AcDbCircle
 10
153.7613575059702384
 20
12.0414900628259147
 30
0.0
 40
0.3333333333333333
100
AcDbArc
 50
270.0
 51
0.0
  0
LINE
  5
369
100
AcDbEntity
100
AcDbLine
  8
text
 62
256
370
-1
  6
ByLayer
 10
154.0946908393037234
 20
12.0414900628259716
 30
0.0
 11
154.0946908393037234
 21
12.7081567294926003
 31
0.0
  0
ARC
  5
36A
100
AcDbEntity
  8
text
 62
256
370
-1
  6
ByLayer
100
AcDbCircle
 10
153.7613575059702384
 20
12.7081567294925435
 30
0.0
 40
0.3333333333333333
100
AcDbArc
 50
0.0
 51
90.0
  0
LINE
  5
36B
100
AcDbEntity
100
AcDbLine
  8
text
 62
256
370
-1
  6
ByLayer
 10
153.7613575059702384
 20
13.0414900628259716
 30
0.0
 11
153.2058019504148092
 21
13.0414900628259147
 31
0.0
  0
LINE
  5
36C
100
AcDbEntity
100
AcDbLine
  8
text
 62
256
370
-1
  6
ByLayer
 10
153.2058019504148092
 20
13.0414900628259147
 30
0.0
 11
153.2058019504148092
 21
11.0414900628259147
 31
0.0
  0
ARC
  5
36D
100
AcDbEntity
  8
cuts
 62
256
370
-1
  6
ByLayer
100
AcDbCircle
 10
249.4141928953391982
 20
113.112989255841768
 30
0.0
 40
8.0
100
AcDbArc
 50
270.0
 51
0.0
  0
LINE
  5
36E
100
AcDbEntity
100
AcDbLine
  8
cuts
 62
256
370
-1
  6
ByLayer
 10
215.4141928953391982
 20
105.112989255841768
 30
0.0
 11
215.4141928953391982
 21
114.9129892558417794
 31
0.0
  0
LINE
  5
36F
100
AcDbEntity
100
AcDbLine
  8
cuts
 62
256
370
-1
  6
ByLayer
 10
215.4141928953391982
 20
114.9129892558417794
 30
0.0
 11
228.4141928953391982
 21
114.9129892558417794
 31
0.0
  0
LINE
  5
370
100
AcDbEntity
100
AcDbLine
  8
cuts
 62
256
370
-1
  6
ByLayer
 10
228.4141928953391982
 20
114.9129892558417794
 30
0.0
 11
228.4141928953391982
 21
105.112989255841768
 31
0.0
  0
LINE
  5
371
100
AcDbEntity
100
AcDbLine
  8
cuts
 62
256
370
-1
  6
ByLayer
 10
243.2141928953392096
 20
105.112989255841768
 30
0.0
 11
249.4141928953391982
 21
105.112989255841768
 31
0.0
  0
LINE
  5
372
100
AcDbEntity
100
AcDbLine
  8
cuts
 62
256
370
-1
  6
ByLayer
 10
243.2141928953392096
 20
113.1129892558417112
 30
0.0
 11
243.2141928953392096
 21
105.112989255841768
 31
0.0
  0
LINE
  5
373
100
AcDbEntity
100
AcDbLine
  8
cuts
 62
256
370
-1
  6
ByLayer
 10
228.4141928953391982
 20
105.112989255841768
 30
0.0
 11
241.1141928953392437
 21
105.112989255841768
 31
0.0
  0
LINE
  5
374
100
AcDbEntity
100
AcDbLine
  8
cuts
 62
256
370
-1
  6
ByLayer
 10
241.1141928953392437
 20
105.112989255841768
 30
0.0
 11
241.1141928953392437
 21
113.1129892558417112
 31
0.0
  0
LINE
  5
375
100
AcDbEntity
100
AcDbLine
  8
cuts
 62
256
370
-1
  6
ByLayer
 10
241.1141928953392437
 20
113.1129892558417112
 30
0.0
 11
243.2141928953392096
 21
113.1129892558417112
 31
0.0
  0
LINE
  5
376
100
AcDbEntity
100
AcDbLine
  8
cuts
 62
256
370
-1
  6
ByLayer
 10
201.4141928953391982
 20
129.9929892558417635
 30
0.0
 11
190.4141928953391982
 21
129.9929892558417635
 31
0.0
  0
LINE
  5
377
100
AcDbEntity
100
AcDbLine
  8
cuts
 62
256
370
-1
  6
ByLayer
 10
190.4141928953391982
 20
105.112989255841768
 30
0.0
 11
215.4141928953391982
 21
105.112989255841768
 31
0.0
  0
LINE
  5
378
100
AcDbEntity
100
AcDbLine
  8
cuts
 62
256
370
-1
  6
ByLayer
 10
190.4141928953391982
 20
123.1929892558417521
 30
0.0
 11
197.4141928953391982
 21
123.1929892558417521
 31
0.0
  0
LINE
  5
379
100
AcDbEntity
100
AcDbLine
  8
cuts
 62
256
370
-1
  6
ByLayer
 10
197.4141928953391982
 20
123.1929892558417521
 30
0.0
 11
197.4141928953391982
 21
121.1929892558417521
 31
0.0
  0
LINE
  5
37A
100
AcDbEntity
100
AcDbLine
  8
cuts
 62
256
370
-1
  6
ByLayer
 10
197.4141928953391982
 20
121.1929892558417521
 30
0.0
 11
190.4141928953391982
 21
121.1929892558417521
 31
0.0
  0
LINE
  5
37B
100
AcDbEntity
100
AcDbLine
  8
cuts
 62
256
370
-1
  6
ByLayer
 10
197.4141928953391982
 20
108.4129892558417794
 30
0.0
 11
190.4141928953391982
 21
108.4129892558417794
 31
0.0
  0
LINE
  5
37C
100
AcDbEntity
100
AcDbLine
  8
cuts
 62
256
370
-1
  6
ByLayer
 10
197.4141928953391982
 20
110.4129892558417794
 30
0.0
 11
197.4141928953391982
 21
108.4129892558417794
 31
0.0
  0
LINE
  5
37D
100
AcDbEntity
100
AcDbLine
  8
cuts
 62
256
370
-1
  6
ByLayer
 10
197.4141928953391982
 20
110.4129892558417794
 30
0.0
 11
190.4141928953391982
 21
110.4129892558417794
 31
0.0
  0
ARC
  5
37E
100
AcDbEntity
  8
cuts
 62
256
370
-1
  6
ByLayer
100
AcDbCircle
 10
249.4141928953391982
 20
119.9929892558417635
 30
0.0
 40
10.0
100
AcDbArc
 50
323.1301023541560085
 51
36.8698976458440129
  0
LINE
  5
37F
100
AcDbEntity
100
AcDbLine
  8
cuts
 62
256
370
-1
  6
ByLayer
 10
257.4141928953391698
 20
113.1129892558416543
 30
0.0
 11
257.4141928953391698
 21
113.9929892558417635
 31
0.0
  0
LINE
  5
380
100
AcDbEntity
100
AcDbLine
  8
cuts
 62
256
370
-1
  6
ByLayer
 10
190.4141928953391982
 20
129.9929892558417635
 30
0.0
 11
190.4141928953391982
 21
123.1929892558417521
 31
0.0
  0
LINE
  5
381
100
AcDbEntity
100
AcDbLine
  8
cuts
 62
256
370
-1
  6
ByLayer
 10
190.4141928953391982
 20
121.1929892558417521
 30
0.0
 11
190.4141928953391982
 21
110.4129892558417794
 31
0.0
  0
LINE
  5
382
100
AcDbEntity
100
AcDbLine
  8
cuts
 62
256
370
-1
  6
ByLayer
 10
190.4141928953391982
 20
108.4129892558417794
 30
0.0
 11
190.4141928953391982
 21
105.112989255841768
 31
0.0
  0
LINE
  5
383
100
AcDbEntity
100
AcDbLine
  8
text
 62
256
370
-1
  6
ByLayer
 10
228.0391928953391982
 20
121.4929892558417635
 30
0.0
 11
228.2058595620058838
 21
121.4929892558417635
 31
0.0
  0
INSERT
  5
384
100
AcDbEntity
100
AcDbBlockReference
  8
cuts
 62
256
370
-1
  6
ByLayer
  2
m3-t-slot
 10
220.4141928953391982
 20
134.3929892558417407
 30
0.0
 50
180.0
 44
1.0
 45
1.0
  0
LINE
  5
385
100
AcDbEntity
100
AcDbLine
  8
cuts
 62
256
370
-1
  6
ByLayer
 10
244.4141928953391982
 20
134.3929892558417976
 30
0.0
 11
244.4141928953391982
 21
137.4929892558417635
 31
0.0
  0
LINE
  5
386
100
AcDbEntity
100
AcDbLine
  8
cuts
 62
256
370
-1
  6
ByLayer
 10
244.4141928953391982
 20
137.4929892558417635
 30
0.0
 11
252.4141928953391982
 21
137.4929892558417635
 31
0.0
  0
LINE
  5
387
100
AcDbEntity
100
AcDbLine
  8
cuts
 62
256
370
-1
  6
ByLayer
 10
252.4141928953391982
 20
137.4929892558417635
 30
0.0
 11
252.4141928953391982
 21
134.3929892558417976
 31
0.0
  0
LINE
  5
388
100
AcDbEntity
100
AcDbLine
  8
cuts
 62
256
370
-1
  6
ByLayer
 10
206.4141928953391982
 20
134.3929892558417407
 30
0.0
 11
206.4141928953391982
 21
137.4929892558417635
 31
0.0
  0
LINE
  5
389
100
AcDbEntity
100
AcDbLine
  8
cuts
 62
256
370
-1
  6
ByLayer
 10
206.4141928953391982
 20
137.4929892558417635
 30
0.0
 11
214.4141928953391982
 21
137.4929892558417635
 31
0.0
  0
LINE
  5
38A
100
AcDbEntity
100
AcDbLine
  8
cuts
 62
256
370
-1
  6
ByLayer
 10
214.4141928953391982
 20
137.4929892558417635
 30
0.0
 11
214.4141928953391982
 21
134.3929892558417407
 31
0.0
  0
LINE
  5
38B
100
AcDbEntity
100
AcDbLine
  8
cuts
 62
256
370
-1
  6
ByLayer
 10
214.4141928953391982
 20
134.3929892558417407
 30
0.0
 11
218.9141928953391982
 21
134.3929892558417407
 31
0.0
  0
LINE
  5
38C
100
AcDbEntity
100
AcDbLine
  8
cuts
 62
256
370
-1
  6
ByLayer
 10
221.9141928953391982
 20
134.3929892558417976
 30
0.0
 11
244.4141928953391982
 21
134.3929892558417976
 31
0.0
  0
LINE
  5
38D
100
AcDbEntity
100
AcDbLine
  8
cuts
 62
256
370
-1
  6
ByLayer
 10
201.4141928953391982
 20
134.3929892558417407
 30
0.0
 11
201.4141928953391982
 21
129.9929892558417635
 31
0.0
  0
LINE
  5
38E
100
AcDbEntity
100
AcDbLine
  8
cuts
 62
256
370
-1
  6
ByLayer
 10
201.4141928953391982
 20
134.3929892558417407
 30
0.0
 11
206.4141928953391982
 21
134.3929892558417407
 31
0.0
  0
LINE
  5
38F
100
AcDbEntity
100
AcDbLine
  8
cuts
 62
256
370
-1
  6
ByLayer
 10
257.4141928953391698
 20
125.9929892558417635
 30
0.0
 11
257.4141928953391698
 21
134.3929892558417407
 31
0.0
  0
LINE
  5
390
100
AcDbEntity
100
AcDbLine
  8
cuts
 62
256
370
-1
  6
ByLayer
 10
252.4141928953391982
 20
134.3929892558417976
 30
0.0
 11
257.4141928953391698
 21
134.3929892558417407
 31
0.0
  0
CIRCLE
  5
391
100
AcDbEntity
100
AcDbCircle
  8
cuts
 62
256
370
-1
  6
ByLayer
 10
249.4141928953391982
 20
119.9929892558417635
 30
0.0
 40
5.96
  0
CIRCLE
  5
392
100
AcDbEntity
100
AcDbCircle
  8
cuts
 62
256
370
-1
  6
ByLayer
 10
209.4141928953391982
 20
119.9929892558417635
 30
0.0
 40
5.96
  0
LINE
  5
393
100
AcDbEntity
100
AcDbLine
  8
text
 62
256
370
-1
  6
ByLayer
 10
220.8211472999430782
 20
121.9950947664870853
 30
0.0
 11
221.8211472999430782
 21
120.6617614331537709
 31
0.0
  0
LINE
  5
394
100
AcDbEntity
100
AcDbLine
  8
text
 62
256
370
-1
  6
ByLayer
 10
221.8211472999430782
 20
120.6617614331537709
 30
0.0
 11
221.8211472999430782
 21
118.9950947664870853
 31
0.0
  0
LINE
  5
395
100
AcDbEntity
100
AcDbLine
  8
text
 62
256
370
-1
  6
ByLayer
 10
221.8211472999430782
 20
120.6617614331537709
 30
0.0
 11
222.8211472999430782
 21
121.9950947664870853
 31
0.0
  0
LINE
  5
396
100
AcDbEntity
100
AcDbLine
  8
text
 62
256
370
-1
  6
ByLayer
 10
226.0711472999430782
 20
121.9950947664870853
 30
0.0
 11
226.0711472999430782
 21
118.9950947664870853
 31
0.0
  0
LINE
  5
397
100
AcDbEntity
100
AcDbLine
  8
text
 62
256
370
-1
  6
ByLayer
 10
226.0711472999430782
 20
118.9950947664870853
 30
0.0
 11
226.9044806332763926
 21
118.9950947664870853
 31
0.0
  0
ARC
  5
398
100
AcDbEntity
  8
text
 62
256
370
-1
  6
ByLayer
100
AcDbCircle
 10
226.9044806332763926
 20
119.4950947664870853
 30
0.0
 40
0.5
100
AcDbArc
 50
270.0
 51
0.0
  0
LINE
  5
399
100
AcDbEntity
100
AcDbLine
  8
text
 62
256
370
-1
  6
ByLayer
 10
227.4044806332763926
 20
119.4950947664870853
 30
0.0
 11
227.4044806332763926
 21
120.4950947664870853
 31
0.0
  0
ARC
  5
39A
100
AcDbEntity
  8
text
 62
256
370
-1
  6
ByLayer
100
AcDbCircle
 10
226.9044806332763926
 20
120.4950947664870853
 30
0.0
 40
0.5
100
AcDbArc
 50
0.0
 51
90.0
  0
LINE
  5
39B
100
AcDbEntity
100
AcDbLine
  8
text
 62
256
370
-1
  6
ByLayer
 10
226.9044806332763926
 20
120.9950947664870853
 30
0.0
 11
226.0711472999430782
 21
120.9950947664870853
 31
0.0
  0
LINE
  5
39C
100
AcDbEntity
100
AcDbLine
  8
text
 62
256
370
-1
  6
ByLayer
 10
228.5711472999430782
 20
120.9950947664870853
 30
0.0
 11
229.237813966609707
 21
120.9950947664870853
 31
0.0
  0
ARC
  5
39D
100
AcDbEntity
  8
text
 62
256
370
-1
  6
ByLayer
100
AcDbCircle
 10
229.237813966609707
 20
120.4950947664870853
 30
0.0
 40
0.5
100
AcDbArc
 50
0.0
 51
90.0
  0
LINE
  5
39E
100
AcDbEntity
100
AcDbLine
  8
text
 62
256
370
-1
  6
ByLayer
 10
229.737813966609707
 20
120.4950947664870853
 30
0.0
 11
229.737813966609707
 21
118.9950947664870853
 31
0.0
  0
LINE
  5
39F
100
AcDbEntity
100
AcDbLine
  8
text
 62
256
370
-1
  6
ByLayer
 10
229.737813966609707
 20
118.9950947664870853
 30
0.0
 11
228.9044806332763926
 21
118.9950947664870853
 31
0.0
  0
ARC
  5
3A0
100
AcDbEntity
  8
text
 62
256
370
-1
  6
ByLayer
100
AcDbCircle
 10
228.9044806332763926
 20
119.4950947664870853
 30
0.0
 40
0.5
100
AcDbArc
 50
90.0
 51
270.0
  0
LINE
  5
3A1
100
AcDbEntity
100
AcDbLine
  8
text
 62
256
370
-1
  6
ByLayer
 10
228.9044806332763926
 20
119.9950947664870853
 30
0.0
 11
229.737813966609707
 21
119.9950947664870853
 31
0.0
  0
LINE
  5
3A2
100
AcDbEntity
100
AcDbLine
  8
text
 62
256
370
-1
  6
ByLayer
 10
231.737813966609707
 20
120.9950947664870853
 30
0.0
 11
231.237813966609707
 21
120.9950947664870853
 31
0.0
  0
ARC
  5
3A3
100
AcDbEntity
  8
text
 62
256
370
-1
  6
ByLayer
100
AcDbCircle
 10
231.237813966609707
 20
120.4950947664870853
 30
0.0
 40
0.5
100
AcDbArc
 50
90.0
 51
180.0
  0
LINE
  5
3A4
100
AcDbEntity
100
AcDbLine
  8
text
 62
256
370
-1
  6
ByLayer
 10
230.737813966609707
 20
120.4950947664870853
 30
0.0
 11
230.737813966609707
 21
119.4950947664870853
 31
0.0
  0
ARC
  5
3A5
100
AcDbEntity
  8
text
 62
256
370
-1
  6
ByLayer
100
AcDbCircle
 10
231.237813966609707
 20
119.4950947664870853
 30
0.0
 40
0.5
100
AcDbArc
 50
180.0
 51
270.0
  0
LINE
  5
3A6
100
AcDbEntity
100
AcDbLine
  8
text
 62
256
370
-1
  6
ByLayer
 10
231.237813966609707
 20
118.9950947664870853
 30
0.0
 11
231.737813966609707
 21
118.9950947664870853
 31
0.0
  0
LINE
  5
3A7
100
AcDbEntity
100
AcDbLine
  8
text
 62
256
370
-1
  6
ByLayer
 10
232.737813966609707
 20
121.9950947664870853
 30
0.0
 11
232.737813966609707
 21
118.9950947664870853
 31
0.0
  0
LINE
  5
3A8
100
AcDbEntity
100
AcDbLine
  8
text
 62
256
370
-1
  6
ByLayer
 10
232.737813966609707
 20
120.1617614331537709
 30
0.0
 11
234.0711472999430782
 21
120.9950947664870853
 31
0.0
  0
LINE
  5
3A9
100
AcDbEntity
100
AcDbLine
  8
text
 62
256
370
-1
  6
ByLayer
 10
233.1781472999430491
 20
120.4370947664870926
 30
0.0
 11
234.0711472999430782
 21
118.9950947664870853
 31
0.0
  0
CIRCLE
  5
3AA
100
AcDbEntity
100
AcDbCircle
  8
cuts
 62
256
370
-1
  6
ByLayer
 10
234.4141928953391982
 20
124.9929892558417635
 30
0.0
 40
1.5
  0
CIRCLE
  5
3AB
100
AcDbEntity
100
AcDbCircle
  8
cuts
 62
256
370
-1
  6
ByLayer
 10
234.4141928953391982
 20
112.1129892558418248
 30
0.0
 40
1.5
  0
ARC
  5
3AC
100
AcDbEntity
  8
cuts
 62
256
370
-1
  6
ByLayer
100
AcDbCircle
 10
202.126274460832434
 20
76.8730812912581314
 30
0.0
 40
8.0
100
AcDbArc
 50
180.0
 51
270.0
  0
CIRCLE
  5
3AD
100
AcDbEntity
100
AcDbCircle
  8
cuts
 62
256
370
-1
  6
ByLayer
 10
216.1262744608324624
 20
88.7530812912574447
 30
0.0
 40
1.5
  0
CIRCLE
  5
3AE
100
AcDbEntity
100
AcDbCircle
  8
cuts
 62
256
370
-1
  6
ByLayer
 10
216.1262744608324624
 20
75.8730812912581882
 30
0.0
 40
1.5
  0
LINE
  5
3AF
100
AcDbEntity
100
AcDbLine
  8
cuts
 62
256
370
-1
  6
ByLayer
 10
236.1262744608324624
 20
68.8730812912574493
 30
0.0
 11
236.1262744608324624
 21
78.6730812912578585
 31
0.0
  0
LINE
  5
3B0
100
AcDbEntity
100
AcDbLine
  8
cuts
 62
256
370
-1
  6
ByLayer
 10
236.1262744608324624
 20
78.6730812912578585
 30
0.0
 11
223.1262744608324624
 21
78.6730812912572333
 31
0.0
  0
LINE
  5
3B1
100
AcDbEntity
100
AcDbLine
  8
cuts
 62
256
370
-1
  6
ByLayer
 10
223.1262744608324624
 20
78.6730812912572333
 30
0.0
 11
223.1262744608324624
 21
68.8730812912571082
 31
0.0
  0
LINE
  5
3B2
100
AcDbEntity
100
AcDbLine
  8
cuts
 62
256
370
-1
  6
ByLayer
 10
208.326274460832451
 20
68.8730812912579609
 30
0.0
 11
202.1262744608324624
 21
68.8730812912577903
 31
0.0
  0
LINE
  5
3B3
100
AcDbEntity
100
AcDbLine
  8
cuts
 62
256
370
-1
  6
ByLayer
 10
208.326274460832451
 20
76.8730812912558008
 30
0.0
 11
208.326274460832451
 21
68.8730812912579609
 31
0.0
  0
LINE
  5
3B4
100
AcDbEntity
100
AcDbLine
  8
cuts
 62
256
370
-1
  6
ByLayer
 10
223.1262744608324624
 20
68.8730812912571082
 30
0.0
 11
210.4262744608324169
 21
68.8730812912578472
 31
0.0
  0
LINE
  5
3B5
100
AcDbEntity
100
AcDbLine
  8
cuts
 62
256
370
-1
  6
ByLayer
 10
210.4262744608324169
 20
68.8730812912578472
 30
0.0
 11
210.4262744608324169
 21
76.8730812912574493
 31
0.0
  0
LINE
  5
3B6
100
AcDbEntity
100
AcDbLine
  8
cuts
 62
256
370
-1
  6
ByLayer
 10
210.4262744608324169
 20
76.8730812912574493
 30
0.0
 11
208.326274460832451
 21
76.8730812912558008
 31
0.0
  0
LINE
  5
3B7
100
AcDbEntity
100
AcDbLine
  8
cuts
 62
256
370
-1
  6
ByLayer
 10
250.1262744608324624
 20
93.7530812912572173
 30
0.0
 11
261.1262744608324624
 21
93.7530812912572742
 31
0.0
  0
LINE
  5
3B8
100
AcDbEntity
100
AcDbLine
  8
cuts
 62
256
370
-1
  6
ByLayer
 10
261.1262744608324624
 20
68.8730812912573356
 30
0.0
 11
236.1262744608324624
 21
68.8730812912574493
 31
0.0
  0
LINE
  5
3B9
100
AcDbEntity
100
AcDbLine
  8
cuts
 62
256
370
-1
  6
ByLayer
 10
261.1262744608324624
 20
86.9530812912574902
 30
0.0
 11
254.1262744608324624
 21
86.9530812912571491
 31
0.0
  0
LINE
  5
3BA
100
AcDbEntity
100
AcDbLine
  8
cuts
 62
256
370
-1
  6
ByLayer
 10
254.1262744608324624
 20
86.9530812912571491
 30
0.0
 11
254.1262744608324624
 21
84.9530812912573197
 31
0.0
  0
LINE
  5
3BB
100
AcDbEntity
100
AcDbLine
  8
cuts
 62
256
370
-1
  6
ByLayer
 10
254.1262744608324624
 20
84.9530812912573197
 30
0.0
 11
261.1262744608324624
 21
84.9530812912574902
 31
0.0
  0
LINE
  5
3BC
100
AcDbEntity
100
AcDbLine
  8
cuts
 62
256
370
-1
  6
ByLayer
 10
254.1262744608324624
 20
72.1730812912563238
 30
0.0
 11
261.1262744608324624
 21
72.1730812912563806
 31
0.0
  0
LINE
  5
3BD
100
AcDbEntity
100
AcDbLine
  8
cuts
 62
256
370
-1
  6
ByLayer
 10
254.1262744608324624
 20
74.1730812912567217
 30
0.0
 11
254.1262744608324624
 21
72.1730812912563238
 31
0.0
  0
LINE
  5
3BE
100
AcDbEntity
100
AcDbLine
  8
cuts
 62
256
370
-1
  6
ByLayer
 10
254.1262744608324624
 20
74.1730812912567217
 30
0.0
 11
261.1262744608324624
 21
74.1730812912576312
 31
0.0
  0
ARC
  5
3BF
100
AcDbEntity
  8
cuts
 62
256
370
-1
  6
ByLayer
100
AcDbCircle
 10
202.1262744608324624
 20
83.7530812912572742
 30
0.0
 40
10.0
100
AcDbArc
 50
143.1301023541559516
 51
216.8698976458439915
  0
LINE
  5
3C0
100
AcDbEntity
100
AcDbLine
  8
cuts
 62
256
370
-1
  6
ByLayer
 10
194.1262744608324624
 20
76.8730812912567671
 30
0.0
 11
194.126274460832434
 21
77.7530812912576152
 31
0.0
  0
LINE
  5
3C1
100
AcDbEntity
100
AcDbLine
  8
cuts
 62
256
370
-1
  6
ByLayer
 10
261.1262744608324624
 20
93.7530812912572742
 30
0.0
 11
261.1262744608324624
 21
86.9530812912574902
 31
0.0
  0
LINE
  5
3C2
100
AcDbEntity
100
AcDbLine
  8
cuts
 62
256
370
-1
  6
ByLayer
 10
261.1262744608324624
 20
84.9530812912574902
 30
0.0
 11
261.1262744608324624
 21
74.1730812912576312
 31
0.0
  0
LINE
  5
3C3
100
AcDbEntity
100
AcDbLine
  8
cuts
 62
256
370
-1
  6
ByLayer
 10
261.1262744608324624
 20
72.1730812912563806
 30
0.0
 11
261.1262744608324624
 21
68.8730812912573356
 31
0.0
  0
INSERT
  5
3C4
100
AcDbEntity
100
AcDbBlockReference
  8
cuts
 62
256
370
-1
  6
ByLayer
  2
m3-t-slot
 10
231.1262744608324624
 20
98.1530812912573651
 30
0.0
 41
1.0
 42
-1.0
 43
1.0
 50
360.0
 44
1.0
 45
1.0
  0
LINE
  5
3C5
100
AcDbEntity
100
AcDbLine
  8
cuts
 62
256
370
-1
  6
ByLayer
 10
207.1262744608324624
 20
98.1530812912571946
 30
0.0
 11
207.1262744608324624
 21
101.2530812912572173
 31
0.0
  0
LINE
  5
3C6
100
AcDbEntity
100
AcDbLine
  8
cuts
 62
256
370
-1
  6
ByLayer
 10
207.1262744608324624
 20
101.2530812912572173
 30
0.0
 11
199.1262744608324624
 21
101.2530812912573879
 31
0.0
  0
LINE
  5
3C7
100
AcDbEntity
100
AcDbLine
  8
cuts
 62
256
370
-1
  6
ByLayer
 10
199.1262744608324624
 20
101.2530812912573879
 30
0.0
 11
199.1262744608324624
 21
98.1530812912573651
 31
0.0
  0
LINE
  5
3C8
100
AcDbEntity
100
AcDbLine
  8
cuts
 62
256
370
-1
  6
ByLayer
 10
245.1262744608324624
 20
98.1530812912571946
 30
0.0
 11
245.1262744608324624
 21
101.253081291257331
 31
0.0
  0
LINE
  5
3C9
100
AcDbEntity
100
AcDbLine
  8
cuts
 62
256
370
-1
  6
ByLayer
 10
245.1262744608324624
 20
101.253081291257331
 30
0.0
 11
237.1262744608324624
 21
101.2530812912572173
 31
0.0
  0
LINE
  5
3CA
100
AcDbEntity
100
AcDbLine
  8
cuts
 62
256
370
-1
  6
ByLayer
 10
237.1262744608324624
 20
101.2530812912572173
 30
0.0
 11
237.1262744608324624
 21
98.1530812912573651
 31
0.0
  0
LINE
  5
3CB
100
AcDbEntity
100
AcDbLine
  8
cuts
 62
256
370
-1
  6
ByLayer
 10
237.1262744608324624
 20
98.1530812912573651
 30
0.0
 11
232.6262744608324624
 21
98.1530812912572515
 31
0.0
  0
LINE
  5
3CC
100
AcDbEntity
100
AcDbLine
  8
cuts
 62
256
370
-1
  6
ByLayer
 10
229.6262744608324624
 20
98.1530812912573083
 30
0.0
 11
207.1262744608324624
 21
98.1530812912571946
 31
0.0
  0
LINE
  5
3CD
100
AcDbEntity
100
AcDbLine
  8
cuts
 62
256
370
-1
  6
ByLayer
 10
194.1262744608324624
 20
89.753081291257331
 30
0.0
 11
194.1262744608324624
 21
98.153081291257422
 31
0.0
  0
LINE
  5
3CE
100
AcDbEntity
100
AcDbLine
  8
cuts
 62
256
370
-1
  6
ByLayer
 10
199.1262744608324624
 20
98.1530812912573651
 30
0.0
 11
194.1262744608324624
 21
98.153081291257422
 31
0.0
  0
LINE
  5
3CF
100
AcDbEntity
100
AcDbLine
  8
cuts
 62
256
370
-1
  6
ByLayer
 10
250.1262744608324624
 20
98.1530812912572515
 30
0.0
 11
250.1262744608324624
 21
93.7530812912572173
 31
0.0
  0
LINE
  5
3D0
100
AcDbEntity
100
AcDbLine
  8
cuts
 62
256
370
-1
  6
ByLayer
 10
250.1262744608324624
 20
98.1530812912572515
 30
0.0
 11
245.1262744608324624
 21
98.1530812912571946
 31
0.0
  0
CIRCLE
  5
3D1
100
AcDbEntity
100
AcDbCircle
  8
cuts
 62
256
370
-1
  6
ByLayer
 10
242.1262744608324624
 20
83.7530812912575016
 30
0.0
 40
5.96
  0
CIRCLE
  5
3D2
100
AcDbEntity
100
AcDbCircle
  8
cuts
 62
256
370
-1
  6
ByLayer
 10
202.1262744608324624
 20
83.7530812912572742
 30
0.0
 40
5.96
  0
LINE
  5
3D3
100
AcDbEntity
100
AcDbLine
  8
text
 62
256
370
-1
  6
ByLayer
 10
217.4827169619207439
 20
85.4537459631370098
 30
0.0
 11
218.4827169619207439
 21
84.1204126298034112
 31
0.0
  0
LINE
  5
3D4
100
AcDbEntity
100
AcDbLine
  8
text
 62
256
370
-1
  6
ByLayer
 10
218.4827169619207439
 20
84.1204126298034112
 30
0.0
 11
218.4827169619207439
 21
82.4537459631370666
 31
0.0
  0
LINE
  5
3D5
100
AcDbEntity
100
AcDbLine
  8
text
 62
256
370
-1
  6
ByLayer
 10
218.4827169619207439
 20
84.1204126298034112
 30
0.0
 11
219.4827169619207439
 21
85.4537459631367824
 31
0.0
  0
LINE
  5
3D6
100
AcDbEntity
100
AcDbLine
  8
text
 62
256
370
-1
  6
ByLayer
 10
223.0660502952541151
 20
82.4537459631370666
 30
0.0
 11
223.0660502952541151
 21
84.9537459631372371
 31
0.0
  0
ARC
  5
3D7
100
AcDbEntity
  8
text
 62
256
370
-1
  6
ByLayer
100
AcDbCircle
 10
223.5660502952541151
 20
84.9537459631369529
 30
0.0
 40
0.5
100
AcDbArc
 50
90.0
 51
180.0
  0
LINE
  5
3D8
100
AcDbEntity
100
AcDbLine
  8
text
 62
256
370
-1
  6
ByLayer
 10
222.7327169619207439
 20
84.4537459631367824
 30
0.0
 11
223.7327169619207439
 21
84.4537459631368392
 31
0.0
  0
LINE
  5
3D9
100
AcDbEntity
100
AcDbLine
  8
text
 62
256
370
-1
  6
ByLayer
 10
224.7327169619207439
 20
82.4537459631372371
 30
0.0
 11
224.7327169619207439
 21
84.4537459631368392
 31
0.0
  0
LINE
  5
3DA
100
AcDbEntity
100
AcDbLine
  8
text
 62
256
370
-1
  6
ByLayer
 10
224.7327169619207439
 20
84.4537459631368392
 30
0.0
 11
225.3993836285874295
 21
84.4537459631367824
 31
0.0
  0
ARC
  5
3DB
100
AcDbEntity
  8
text
 62
256
370
-1
  6
ByLayer
100
AcDbCircle
 10
225.3993836285874295
 20
84.1204126298038091
 30
0.0
 40
0.3333333333333333
100
AcDbArc
 50
0.0
 51
90.0
  0
LINE
  5
3DC
100
AcDbEntity
100
AcDbLine
  8
text
 62
256
370
-1
  6
ByLayer
 10
226.7327169619207439
 20
83.7870792964705515
 30
0.0
 11
226.7327169619207439
 21
83.120412629803468
 31
0.0
  0
ARC
  5
3DD
100
AcDbEntity
  8
text
 62
256
370
-1
  6
ByLayer
100
AcDbCircle
 10
227.3993836285874295
 20
83.1204126298037522
 30
0.0
 40
0.6666666666666666
100
AcDbArc
 50
180.0
 51
0.0
  0
LINE
  5
3DE
100
AcDbEntity
100
AcDbLine
  8
text
 62
256
370
-1
  6
ByLayer
 10
228.0660502952541151
 20
83.1204126298034112
 30
0.0
 11
228.0660502952541151
 21
83.7870792964700968
 31
0.0
  0
ARC
  5
3DF
100
AcDbEntity
  8
text
 62
256
370
-1
  6
ByLayer
100
AcDbCircle
 10
227.3993836285874295
 20
83.7870792964700968
 30
0.0
 40
0.6666666666666666
100
AcDbArc
 50
0.0
 51
180.0
  0
LINE
  5
3E0
100
AcDbEntity
100
AcDbLine
  8
text
 62
256
370
-1
  6
ByLayer
 10
229.0660502952541151
 20
82.4537459631372371
 30
0.0
 11
229.0660502952541151
 21
84.4537459631367824
 31
0.0
  0
LINE
  5
3E1
100
AcDbEntity
100
AcDbLine
  8
text
 62
256
370
-1
  6
ByLayer
 10
229.0660502952541151
 20
84.4537459631367824
 30
0.0
 11
229.8993836285874295
 21
84.4537459631370098
 31
0.0
  0
ARC
  5
3E2
100
AcDbEntity
  8
text
 62
256
370
-1
  6
ByLayer
100
AcDbCircle
 10
229.8993836285874295
 20
83.9537459631370098
 30
0.0
 40
0.5
100
AcDbArc
 50
0.0
 51
90.0
  0
LINE
  5
3E3
100
AcDbEntity
100
AcDbLine
  8
text
 62
256
370
-1
  6
ByLayer
 10
230.3993836285874295
 20
83.9537459631366687
 30
0.0
 11
230.3993836285874295
 21
82.4537459631367824
 31
0.0
  0
LINE
  5
3E4
100
AcDbEntity
100
AcDbLine
  8
text
 62
256
370
-1
  6
ByLayer
 10
231.3993836285874295
 20
84.453745963136555
 30
0.0
 11
232.3993836285874295
 21
84.4537459631366119
 31
0.0
  0
LINE
  5
3E5
100
AcDbEntity
100
AcDbLine
  8
text
 62
256
370
-1
  6
ByLayer
 10
231.7327169619207439
 20
85.4537459631368961
 30
0.0
 11
231.7327169619207439
 21
82.4537459631367255
 31
0.0
  0
ENDSEC
  0
SECTION
  2
OBJECTS
  0
DICTIONARY
  5
C
100
AcDbDictionary
280
0
281
1
  3
ACAD_GROUP
350
D
  3
ACAD_LAYOUT
350
1A
  3
ACAD_MLINESTYLE
350
17
  3
ACAD_PLOTSETTINGS
350
19
  3
ACAD_PLOTSTYLENAME
350
E
  3
AcDbVariableDictionary
350
3E6
  0
DICTIONARY
  5
D
100
AcDbDictionary
280
0
281
1
  0
ACDBDICTIONARYWDFLT
  5
E
100
AcDbDictionary
281
1
  3
Normal
350
F
100
AcDbDictionaryWithDefault
340
F
  0
ACDBPLACEHOLDER
  5
F
  0
DICTIONARY
  5
17
100
AcDbDictionary
280
0
281
1
  3
Standard
350
18
  0
MLINESTYLE
  5
18
100
AcDbMlineStyle
  2
STANDARD
 70
0
  3

 62
256
 51
90.0
 52
90.0
 71
2
 49
0.5
 62
256
  6
BYLAYER
 49
-0.5
 62
256
  6
BYLAYER
  0
DICTIONARY
  5
19
100
AcDbDictionary
280
0
281
1
  0
DICTIONARY
  5
1A
100
AcDbDictionary
281
1
  3
Layout1
350
1E
  3
Layout2
350
26
  3
Model
350
22
  0
LAYOUT
  5
1E
100
AcDbPlotSettings
  1

  2
C:\Program Files\AutoCAD 2002\plotters\DWF ePlot (optimized for plotting).pc3
  4

  6

 40
0.0
 41
0.0
 42
0.0
 43
0.0
 44
0.0
 45
0.0
 46
0.0
 47
0.0
 48
0.0
 49
0.0
140
0.0
141
0.0
142
1.0
143
1.0
 70
688
 72
0
 73
0
 74
5
  7

 75
16
147
1.0
148
0.0
149
0.0
100
AcDbLayout
  1
Layout1
 70
1
 71
1
 10
0.0
 20
0.0
 11
420.0
 21
297.0
 12
0.0
 22
0.0
 32
0.0
 14
100000000000000000000.0
 24
100000000000000000000.0
 34
100000000000000000000.0
 15
-100000000000000000000.0
 25
-100000000000000000000.0
 35
-100000000000000000000.0
146
0.0
 13
0.0
 23
0.0
 33
0.0
 16
1.0
 26
0.0
 36
0.0
 17
0.0
 27
1.0
 37
0.0
 76
0
330
1B
  0
LAYOUT
  5
22
100
AcDbPlotSettings
  1

  2
C:\Program Files\AutoCAD 2002\plotters\DWF ePlot (optimized for plotting).pc3
  4

  6

 40
0.0
 41
0.0
 42
0.0
 43
0.0
 44
0.0
 45
0.0
 46
0.0
 47
0.0
 48
0.0
 49
0.0
140
0.0
141
0.0
142
1.0
143
1.0
 70
1712
 72
0
 73
0
 74
0
  7

 75
0
147
1.0
148
0.0
149
0.0
100
AcDbLayout
  1
Model
 70
1
 71
0
 10
0.0
 20
0.0
 11
12.0
 21
9.0
 12
0.0
 22
0.0
 32
0.0
 14
0.0
 24
0.0
 34
0.0
 15
0.0
 25
0.0
 35
0.0
146
0.0
 13
0.0
 23
0.0
 33
0.0
 16
1.0
 26
0.0
 36
0.0
 17
0.0
 27
1.0
 37
0.0
 76
0
330
1F
  0
LAYOUT
  5
26
100
AcDbPlotSettings
  1

  2
C:\Program Files\AutoCAD 2002\plotters\DWF ePlot (optimized for plotting).pc3
  4

  6

 40
0.0
 41
0.0
 42
0.0
 43
0.0
 44
0.0
 45
0.0
 46
0.0
 47
0.0
 48
0.0
 49
0.0
140
0.0
141
0.0
142
1.0
143
1.0
 70
688
 72
0
 73
0
 74
5
  7

 75
16
147
1.0
148
0.0
149
0.0
100
AcDbLayout
  1
Layout2
 70
1
 71
2
 10
0.0
 20
0.0
 11
12.0
 21
9.0
 12
0.0
 22
0.0
 32
0.0
 14
0.0
 24
0.0
 34
0.0
 15
0.0
 25
0.0
 35
0.0
146
0.0
 13
0.0
 23
0.0
 33
0.0
 16
1.0
 26
0.0
 36
0.0
 17
0.0
 27
1.0
 37
0.0
 76
0
330
23
  0
DICTIONARY
  5
3E6
100
AcDbDictionary
281
1
  3
DIMASSOC
350
3E8
  3
HIDETEXT
350
3E7
  0
DICTIONARYVAR
  5
3E7
100
DictionaryVariables
280
0
  1
2
  0
DICTIONARYVAR
  5
3E8
100
DictionaryVariables
280
0
  1
1
  0
ENDSEC
  0
EOF
