999
dxflib 2.2.0.0
  0
SECTION
  2
HEADER
  9
$ACADVER
  1
AC1015
  9
$HANDSEED
  5
FFFF
  9
$DIMASZ
 40
2.5
  9
$PLIMMIN
 10
0.0
 20
0.0
  9
$DIMEXE
 40
1.25
  9
$DIMGAP
 40
0.625
  9
$PLIMMAX
 10
210.0
 20
297.0
  9
$INSUNITS
 70
4
  9
$DIMSTYLE
  2
Standard
  9
$CLAYER
  8
0
  9
$DIMEXO
 40
0.625
  9
$DIMTXT
 40
2.5
  9
$CLAYER
  8
0
  0
ENDSEC
  0
SECTION
  2
TABLES
  0
TABLE
  2
VPORT
  5
8
100
AcDbSymbolTable
 70
1
  0
VPORT
  5
30
100
AcDbSymbolTableRecord
100
AcDbViewportTableRecord
  2
*Active
 70
0
 10
0.0
 20
0.0
 11
1.0
 21
1.0
 12
286.3055555555554861
 22
148.5
 13
0.0
 23
0.0
 14
10.0
 24
10.0
 15
10.0
 25
10.0
 16
0.0
 26
0.0
 36
1.0
 17
0.0
 27
0.0
 37
0.0
 40
297.0
 41
1.92798353909465
 42
50.0
 43
0.0
 44
0.0
 50
0.0
 51
0.0
 71
0
 72
100
 73
1
 74
3
 75
1
 76
1
 77
0
 78
0
281
0
 65
1
110
0.0
120
0.0
130
0.0
111
1.0
121
0.0
131
0.0
112
0.0
122
1.0
132
0.0
 79
0
146
0.0
  0
ENDTAB
  0
TABLE
  2
LTYPE
  5
5
100
AcDbSymbolTable
 70
21
  0
LTYPE
  5
14
100
AcDbSymbolTableRecord
100
AcDbLinetypeTableRecord
  2
ByBlock
 70
0
  3

 72
65
 73
0
 40
0.0
  0
LTYPE
  5
15
100
AcDbSymbolTableRecord
100
AcDbLinetypeTableRecord
  2
ByLayer
 70
0
  3

 72
65
 73
0
 40
0.0
  0
LTYPE
  5
16
100
AcDbSymbolTableRecord
100
AcDbLinetypeTableRecord
  2
CONTINUOUS
 70
0
  3
Solid line
 72
65
 73
0
 40
0.0
  0
LTYPE
  5
31
100
AcDbSymbolTableRecord
100
AcDbLinetypeTableRecord
  2
DOT
 70
0
  3
Dot . . . . . . . . . . . . . . . . . . . . . .
 72
65
 73
2
 40
6.3499999999999996
 49
0.0
 74
0
 49
-6.3499999999999996
 74
0
  0
LTYPE
  5
32
100
AcDbSymbolTableRecord
100
AcDbLinetypeTableRecord
  2
DOT2
 70
0
  3
Dot (.5x) .....................................
 72
65
 73
2
 40
3.1749999999999998
 49
0.0
 74
0
 49
-3.1749999999999998
 74
0
  0
LTYPE
  5
33
100
AcDbSymbolTableRecord
100
AcDbLinetypeTableRecord
  2
DOTX2
 70
0
  3
Dot (2x) .  .  .  .  .  .  .  .  .  .  .  .  .
 72
65
 73
2
 40
12.6999999999999993
 49
0.0
 74
0
 49
-12.6999999999999993
 74
0
  0
LTYPE
  5
34
100
AcDbSymbolTableRecord
100
AcDbLinetypeTableRecord
  2
DASHED
 70
0
  3
Dashed __ __ __ __ __ __ __ __ __ __ __ __ __ _
 72
65
 73
2
 40
19.0500000000000007
 49
12.6999999999999993
 74
0
 49
-6.3499999999999996
 74
0
  0
LTYPE
  5
35
100
AcDbSymbolTableRecord
100
AcDbLinetypeTableRecord
  2
DASHED2
 70
0
  3
Dashed (.5x) _ _ _ _ _ _ _ _ _ _ _ _ _ _ _ _ _
 72
65
 73
2
 40
9.5250000000000004
 49
6.3499999999999996
 74
0
 49
-3.1749999999999998
 74
0
  0
LTYPE
  5
36
100
AcDbSymbolTableRecord
100
AcDbLinetypeTableRecord
  2
DASHEDX2
 70
0
  3
Dashed (2x) ____  ____  ____  ____  ____  ___
 72
65
 73
2
 40
38.1000000000000014
 49
25.3999999999999986
 74
0
 49
-12.6999999999999993
 74
0
  0
LTYPE
  5
37
100
AcDbSymbolTableRecord
100
AcDbLinetypeTableRecord
  2
DASHDOT
 70
0
  3
Dash dot __ . __ . __ . __ . __ . __ . __ . __
 72
65
 73
4
 40
25.3999999999999986
 49
12.6999999999999993
 74
0
 49
-6.3499999999999996
 74
0
 49
0.0
 74
0
 49
-6.3499999999999996
 74
0
  0
LTYPE
  5
38
100
AcDbSymbolTableRecord
100
AcDbLinetypeTableRecord
  2
DASHDOT2
 70
0
  3
Dash dot (.5x) _._._._._._._._._._._._._._._.
 72
65
 73
4
 40
12.6999999999999993
 49
6.3499999999999996
 74
0
 49
-3.1749999999999998
 74
0
 49
0.0
 74
0
 49
-3.1749999999999998
 74
0
  0
LTYPE
  5
39
100
AcDbSymbolTableRecord
100
AcDbLinetypeTableRecord
  2
DASHDOTX2
 70
0
  3
Dash dot (2x) ____  .  ____  .  ____  .  ___
 72
65
 73
4
 40
50.7999999999999972
 49
25.3999999999999986
 74
0
 49
-12.6999999999999993
 74
0
 49
0.0
 74
0
 49
-12.6999999999999993
 74
0
  0
LTYPE
  5
3A
100
AcDbSymbolTableRecord
100
AcDbLinetypeTableRecord
  2
DIVIDE
 70
0
  3
Divide ____ . . ____ . . ____ . . ____ . . ____
 72
65
 73
6
 40
31.75
 49
12.6999999999999993
 74
0
 49
-6.3499999999999996
 74
0
 49
0.0
 74
0
 49
-6.3499999999999996
 74
0
 49
0.0
 74
0
 49
-6.3499999999999996
 74
0
  0
LTYPE
  5
3B
100
AcDbSymbolTableRecord
100
AcDbLinetypeTableRecord
  2
DIVIDE2
 70
0
  3
Divide (.5x) __..__..__..__..__..__..__..__.._
 72
65
 73
6
 40
15.875
 49
6.3499999999999996
 74
0
 49
-3.1749999999999998
 74
0
 49
0.0
 74
0
 49
-3.1749999999999998
 74
0
 49
0.0
 74
0
 49
-3.1749999999999998
 74
0
  0
LTYPE
  5
3C
100
AcDbSymbolTableRecord
100
AcDbLinetypeTableRecord
  2
DIVIDEX2
 70
0
  3
Divide (2x) ________  .  .  ________  .  .  _
 72
65
 73
6
 40
63.5
 49
25.3999999999999986
 74
0
 49
-12.6999999999999993
 74
0
 49
0.0
 74
0
 49
-12.6999999999999993
 74
0
 49
0.0
 74
0
 49
-12.6999999999999993
 74
0
  0
LTYPE
  5
3D
100
AcDbSymbolTableRecord
100
AcDbLinetypeTableRecord
  2
CENTER
 70
0
  3
Center ____ _ ____ _ ____ _ ____ _ ____ _ ____
 72
65
 73
4
 40
50.7999999999999972
 49
31.75
 74
0
 49
-6.3499999999999996
 74
0
 49
6.3499999999999996
 74
0
 49
-6.3499999999999996
 74
0
  0
LTYPE
  5
3E
100
AcDbSymbolTableRecord
100
AcDbLinetypeTableRecord
  2
CENTER2
 70
0
  3
Center (.5x) ___ _ ___ _ ___ _ ___ _ ___ _ ___
 72
65
 73
4
 40
28.5749999999999993
 49
19.0500000000000007
 74
0
 49
-3.1749999999999998
 74
0
 49
3.1749999999999998
 74
0
 49
-3.1749999999999998
 74
0
  0
LTYPE
  5
3F
100
AcDbSymbolTableRecord
100
AcDbLinetypeTableRecord
  2
CENTERX2
 70
0
  3
Center (2x) ________  __  ________  __  _____
 72
65
 73
4
 40
101.5999999999999943
 49
63.5
 74
0
 49
-12.6999999999999993
 74
0
 49
12.6999999999999993
 74
0
 49
-12.6999999999999993
 74
0
  0
LTYPE
  5
40
100
AcDbSymbolTableRecord
100
AcDbLinetypeTableRecord
  2
BORDER
 70
0
  3
Border __ __ . __ __ . __ __ . __ __ . __ __ .
 72
65
 73
6
 40
44.4500000000000028
 49
12.6999999999999993
 74
0
 49
-6.3499999999999996
 74
0
 49
12.6999999999999993
 74
0
 49
-6.3499999999999996
 74
0
 49
0.0
 74
0
 49
-6.3499999999999996
 74
0
  0
LTYPE
  5
41
100
AcDbSymbolTableRecord
100
AcDbLinetypeTableRecord
  2
BORDER2
 70
0
  3
Border (.5x) __.__.__.__.__.__.__.__.__.__.__.
 72
65
 73
6
 40
22.2250000000000014
 49
6.3499999999999996
 74
0
 49
-3.1749999999999998
 74
0
 49
6.3499999999999996
 74
0
 49
-3.1749999999999998
 74
0
 49
0.0
 74
0
 49
-3.1749999999999998
 74
0
  0
LTYPE
  5
42
100
AcDbSymbolTableRecord
100
AcDbLinetypeTableRecord
  2
BORDERX2
 70
0
  3
Border (2x) ____  ____  .  ____  ____  .  ___
 72
65
 73
6
 40
88.9000000000000057
 49
25.3999999999999986
 74
0
 49
-12.6999999999999993
 74
0
 49
25.3999999999999986
 74
0
 49
-12.6999999999999993
 74
0
 49
0.0
 74
0
 49
-12.6999999999999993
 74
0
  0
ENDTAB
  0
TABLE
  2
LAYER
  5
2
100
AcDbSymbolTable
 70
25
  0
LAYER
  5
10
100
AcDbSymbolTableRecord
100
AcDbLayerTableRecord
  2
0
 70
0
 62
7
420
0
  6
CONTINUOUS
370
0
390
F
  0
LAYER
  5
43
100
AcDbSymbolTableRecord
100
AcDbLayerTableRecord
  2
Drawings
 70
1
 62
-5
420
255
  6
CONTINUOUS
370
0
390
F
  0
LAYER
  5
44
100
AcDbSymbolTableRecord
100
AcDbLayerTableRecord
  2
Drawings - Pulleys
 70
0
 62
1
420
16711680
  6
CONTINUOUS
370
0
390
F
  0
LAYER
  5
45
100
AcDbSymbolTableRecord
100
AcDbLayerTableRecord
  2
Drawings - Belt
 70
0
 62
4
420
65535
  6
CONTINUOUS
370
0
390
F
  0
LAYER
  5
46
100
AcDbSymbolTableRecord
100
AcDbLayerTableRecord
  2
Notes
 70
0
 62
7
420
0
  6
CONTINUOUS
370
0
390
F
  0
LAYER
  5
47
100
AcDbSymbolTableRecord
100
AcDbLayerTableRecord
  2
Drawings - Y Travel
 70
0
 62
3
420
65280
  6
CONTINUOUS
370
0
390
F
  0
LAYER
  5
48
100
AcDbSymbolTableRecord
100
AcDbLayerTableRecord
  2
Drawings - 624 Bearing Stackup
 70
0
 62
3
420
65280
  6
CONTINUOUS
370
0
390
F
  0
LAYER
  5
49
100
AcDbSymbolTableRecord
100
AcDbLayerTableRecord
  2
01 - Front
 70
0
 62
7
420
0
  6
CONTINUOUS
370
0
390
F
  0
LAYER
  5
4A
100
AcDbSymbolTableRecord
100
AcDbLayerTableRecord
  2
11 - Belt Clamps
 70
0
 62
7
420
0
  6
CONTINUOUS
370
0
390
F
  0
LAYER
  5
4B
100
AcDbSymbolTableRecord
100
AcDbLayerTableRecord
  2
Drawings - Secondary
 70
0
 62
6
420
16711935
  6
CONTINUOUS
370
0
390
F
  0
LAYER
  5
4C
100
AcDbSymbolTableRecord
100
AcDbLayerTableRecord
  2
12 - Caps
 70
0
 62
7
420
0
  6
CONTINUOUS
370
0
390
F
  0
LAYER
  5
4D
100
AcDbSymbolTableRecord
100
AcDbLayerTableRecord
  2
02 - Back
 70
0
 62
7
420
0
  6
CONTINUOUS
370
0
390
F
  0
LAYER
  5
4E
100
AcDbSymbolTableRecord
100
AcDbLayerTableRecord
  2
03 - Top
 70
0
 62
7
420
0
  6
CONTINUOUS
370
0
390
F
  0
LAYER
  5
4F
100
AcDbSymbolTableRecord
100
AcDbLayerTableRecord
  2
04 - Bottom
 70
0
 62
7
420
0
  6
CONTINUOUS
370
0
390
F
  0
LAYER
  5
50
100
AcDbSymbolTableRecord
100
AcDbLayerTableRecord
  2
05 - Idler Rib
 70
0
 62
7
420
0
  6
CONTINUOUS
370
0
390
F
  0
LAYER
  5
51
100
AcDbSymbolTableRecord
100
AcDbLayerTableRecord
  2
06 - Drive Rib
 70
0
 62
7
420
0
  6
CONTINUOUS
370
0
390
F
  0
LAYER
  5
52
100
AcDbSymbolTableRecord
100
AcDbLayerTableRecord
  2
07 - Left End Cap
 70
0
 62
7
420
0
  6
CONTINUOUS
370
0
390
F
  0
LAYER
  5
53
100
AcDbSymbolTableRecord
100
AcDbLayerTableRecord
  2
09 - Right End Cap
 70
0
 62
7
420
0
  6
CONTINUOUS
370
0
390
F
  0
LAYER
  5
54
100
AcDbSymbolTableRecord
100
AcDbLayerTableRecord
  2
08 - Left End Top Cap
 70
0
 62
7
420
0
  6
CONTINUOUS
370
0
390
F
  0
LAYER
  5
55
100
AcDbSymbolTableRecord
100
AcDbLayerTableRecord
  2
10 - Right End Top Cap
 70
0
 62
7
420
0
  6
CONTINUOUS
370
0
390
F
  0
LAYER
  5
56
100
AcDbSymbolTableRecord
100
AcDbLayerTableRecord
  2
Text
 70
0
 62
1
420
16711680
  6
CONTINUOUS
370
0
390
F
  0
LAYER
  5
57
100
AcDbSymbolTableRecord
100
AcDbLayerTableRecord
  2
06 - Top
 70
0
 62
7
420
0
  6
CONTINUOUS
370
0
390
F
  0
LAYER
  5
58
100
AcDbSymbolTableRecord
100
AcDbLayerTableRecord
  2
01 Front/Back
 70
0
 62
7
420
0
  6
CONTINUOUS
370
0
390
F
  0
LAYER
  5
59
100
AcDbSymbolTableRecord
100
AcDbLayerTableRecord
  2
Drawings - NEMA 17
 70
0
 62
1
420
16711680
  6
CONTINUOUS
370
0
390
F
  0
LAYER
  5
5A
100
AcDbSymbolTableRecord
100
AcDbLayerTableRecord
  2
Pulley
 70
0
 62
2
420
16776960
  6
CONTINUOUS
370
0
390
F
  0
ENDTAB
  0
TABLE
  2
STYLE
  5
3
100
AcDbSymbolTable
 70
1
  0
STYLE
  5
11
100
AcDbSymbolTableRecord
100
AcDbTextStyleTableRecord
  2
Standard
 70
0
 40
0.0
 41
0.75
 50
0.0
 71
0
 42
2.5
  3
txt
  4

  0
ENDTAB
  0
TABLE
  2
VIEW
  5
6
100
AcDbSymbolTable
 70
0
  0
ENDTAB
  0
TABLE
  2
UCS
  5
7
100
AcDbSymbolTable
 70
0
  0
ENDTAB
  0
TABLE
  2
APPID
  5
9
100
AcDbSymbolTable
 70
1
  0
APPID
  5
12
100
AcDbSymbolTableRecord
100
AcDbRegAppTableRecord
  2
ACAD
 70
0
  0
ENDTAB
  0
TABLE
  2
DIMSTYLE
  5
A
100
AcDbSymbolTable
 70
1
100
AcDbDimStyleTable
 71
0
  0
DIMSTYLE
105
27
100
AcDbSymbolTableRecord
100
AcDbDimStyleTableRecord
  2
Standard
 41
2.5
 42
0.625
 43
3.75
 44
1.25
 70
0
 73
0
 74
0
 77
1
 78
8
140
2.5
141
2.5
143
0.03937007874016
147
0.625
171
3
172
1
271
2
272
2
274
3
278
44
283
0
284
8
340
11
  0
ENDTAB
  0
TABLE
  2
BLOCK_RECORD
  5
1
100
AcDbSymbolTable
 70
1
  0
BLOCK_RECORD
  5
1F
100
AcDbSymbolTableRecord
100
AcDbBlockTableRecord
  2
*Model_Space
340
22
  0
BLOCK_RECORD
  5
1B
100
AcDbSymbolTableRecord
100
AcDbBlockTableRecord
  2
*Paper_Space
340
1E
  0
BLOCK_RECORD
  5
23
100
AcDbSymbolTableRecord
100
AcDbBlockTableRecord
  2
*Paper_Space0
340
26
  0
BLOCK_RECORD
  5
5B
100
AcDbSymbolTableRecord
100
AcDbBlockTableRecord
  2
NEMA 17
340
0
  0
BLOCK_RECORD
  5
5C
100
AcDbSymbolTableRecord
100
AcDbBlockTableRecord
  2
tcutout
340
0
  0
BLOCK_RECORD
  5
5D
100
AcDbSymbolTableRecord
100
AcDbBlockTableRecord
  2
tgrips
340
0
  0
BLOCK_RECORD
  5
5E
100
AcDbSymbolTableRecord
100
AcDbBlockTableRecord
  2
tcutout-5
340
0
  0
BLOCK_RECORD
  5
5F
100
AcDbSymbolTableRecord
100
AcDbBlockTableRecord
  2
tgrips-5
340
0
  0
BLOCK_RECORD
  5
60
100
AcDbSymbolTableRecord
100
AcDbBlockTableRecord
  2
Mechanical Endstop
340
0
  0
ENDTAB
  0
ENDSEC
  0
SECTION
  2
BLOCKS
  0
BLOCK
  5
20
100
AcDbEntity
  8
0
100
AcDbBlockBegin
  2
*Model_Space
 70
0
 10
0.0
 20
0.0
 30
0.0
  3
*Model_Space
  1

  0
ENDBLK
  5
21
100
AcDbEntity
  8
0
100
AcDbBlockEnd
  0
BLOCK
  5
1C
100
AcDbEntity
 67
1
  8
0
100
AcDbBlockBegin
  2
*Paper_Space
 70
0
 10
0.0
 20
0.0
 30
0.0
  3
*Paper_Space
  1

  0
ENDBLK
  5
1D
100
AcDbEntity
 67
1
  8
0
100
AcDbBlockEnd
  0
BLOCK
  5
24
100
AcDbEntity
  8
0
100
AcDbBlockBegin
  2
*Paper_Space0
 70
0
 10
0.0
 20
0.0
 30
0.0
  3
*Paper_Space0
  1

  0
ENDBLK
  5
25
100
AcDbEntity
  8
0
100
AcDbBlockEnd
  0
BLOCK
  5
61
100
AcDbEntity
  8
0
100
AcDbBlockBegin
  2
NEMA 17
 70
0
 10
0.0
 20
0.0
 30
0.0
  3
NEMA 17
  1

  0
CIRCLE
  5
62
100
AcDbEntity
100
AcDbCircle
  8
0
 62
256
370
-1
  6
ByLayer
 10
15.495000000000001
 20
15.4949999999999939
 30
0.0
 40
1.5
  0
CIRCLE
  5
63
100
AcDbEntity
100
AcDbCircle
  8
0
 62
256
370
-1
  6
ByLayer
 10
15.4949999999999992
 20
-15.4950000000000045
 30
0.0
 40
1.5
  0
CIRCLE
  5
64
100
AcDbEntity
100
AcDbCircle
  8
0
 62
256
370
-1
  6
ByLayer
 10
-15.495000000000001
 20
-15.4949999999999957
 30
0.0
 40
1.5
  0
CIRCLE
  5
65
100
AcDbEntity
100
AcDbCircle
  8
0
 62
256
370
-1
  6
ByLayer
 10
-15.4949999999999957
 20
15.4949999999999992
 30
0.0
 40
1.5
  0
LINE
  5
66
100
AcDbEntity
100
AcDbLine
  8
Drawings
 62
256
370
-1
  6
ByLayer
 10
0.0000000000000023
 20
-21.1499999999999986
 30
0.0
 11
0.0000000000000049
 21
21.1499999999999986
 31
0.0
  0
LINE
  5
67
100
AcDbEntity
100
AcDbLine
  8
Drawings
 62
256
370
-1
  6
ByLayer
 10
-21.149999999999995
 20
0.0
 30
0.0
 11
21.1500000000000021
 21
0.0
 31
0.0
  0
LINE
  5
68
100
AcDbEntity
100
AcDbLine
  8
Drawings
 62
256
370
-1
  6
ByLayer
 10
-21.149999999999995
 20
21.1499999999999986
 30
0.0
 11
21.1500000000000021
 21
21.1499999999999986
 31
0.0
  0
LINE
  5
69
100
AcDbEntity
100
AcDbLine
  8
Drawings
 62
256
370
-1
  6
ByLayer
 10
-21.149999999999995
 20
-21.1499999999999986
 30
0.0
 11
21.1500000000000021
 21
-21.1499999999999986
 31
0.0
  0
LINE
  5
6A
100
AcDbEntity
100
AcDbLine
  8
Drawings
 62
256
370
-1
  6
ByLayer
 10
-21.149999999999995
 20
-21.1499999999999986
 30
0.0
 11
-21.1499999999999915
 21
21.1499999999999986
 31
0.0
  0
LINE
  5
6B
100
AcDbEntity
100
AcDbLine
  8
Drawings
 62
256
370
-1
  6
ByLayer
 10
21.1500000000000021
 20
-21.1499999999999986
 30
0.0
 11
21.1500000000000057
 21
21.1499999999999986
 31
0.0
  0
CIRCLE
  5
6C
100
AcDbEntity
100
AcDbCircle
  8
Drawings
 62
256
370
-1
  6
ByLayer
 10
0.0000000000000036
 20
0.0
 30
0.0
 40
11.0
  0
CIRCLE
  5
6D
100
AcDbEntity
100
AcDbCircle
  8
Drawings
 62
256
370
-1
  6
ByLayer
 10
0.0000000000000036
 20
0.0
 30
0.0
 40
3.0
  0
ENDBLK
  5
6E
100
AcDbEntity
  8
0
100
AcDbBlockEnd
  0
BLOCK
  5
6F
100
AcDbEntity
  8
0
100
AcDbBlockBegin
  2
tcutout
 70
0
 10
0.0
 20
0.0
 30
0.0
  3
tcutout
  1

  0
LINE
  5
70
100
AcDbEntity
100
AcDbLine
  8
0
 62
256
370
-1
  6
ByLayer
 10
-15.0
 20
0.0000000000000031
 30
0.0
 11
-5.0
 21
-0.0000000000000009
 31
0.0
  0
LINE
  5
71
100
AcDbEntity
100
AcDbLine
  8
0
 62
256
370
-1
  6
ByLayer
 10
5.0
 20
0.0000000000000004
 30
0.0
 11
15.0
 21
0.0000000000000027
 31
0.0
  0
LINE
  5
72
100
AcDbEntity
100
AcDbLine
  8
0
 62
256
370
-1
  6
ByLayer
 10
-15.0
 20
0.0000000000000031
 30
0.0
 11
-14.9999999999999982
 21
5.5000000000000027
 31
0.0
  0
LINE
  5
73
100
AcDbEntity
100
AcDbLine
  8
0
 62
256
370
-1
  6
ByLayer
 10
-4.9999999999999982
 20
5.4999999999999991
 30
0.0
 11
-5.0
 21
-0.0000000000000004
 31
0.0
  0
LINE
  5
74
100
AcDbEntity
100
AcDbLine
  8
05 - Idler Rib
 62
256
370
-1
  6
ByLayer
 10
-14.9999999999999982
 20
5.5000000000000027
 30
0.0
 11
-4.9999999999999982
 21
5.4999999999999991
 31
0.0
  0
LINE
  5
75
100
AcDbEntity
100
AcDbLine
  8
0
 62
256
370
-1
  6
ByLayer
 10
5.0
 20
0.0000000000000004
 30
0.0
 11
5.0
 21
5.5
 31
0.0
  0
LINE
  5
76
100
AcDbEntity
100
AcDbLine
  8
0
 62
256
370
-1
  6
ByLayer
 10
15.0
 20
5.5000000000000027
 30
0.0
 11
15.0
 21
0.0000000000000027
 31
0.0
  0
LINE
  5
77
100
AcDbEntity
100
AcDbLine
  8
05 - Idler Rib
 62
256
370
-1
  6
ByLayer
 10
5.0
 20
5.5
 30
0.0
 11
15.0
 21
5.5000000000000027
 31
0.0
  0
LINE
  5
78
100
AcDbEntity
100
AcDbLine
  8
Drawings
 62
256
370
-1
  6
ByLayer
 10
-4.9999999999999991
 20
2.7499999999999996
 30
0.0
 11
5.0
 21
2.7499999999999978
 31
0.0
  0
CIRCLE
  5
79
100
AcDbEntity
100
AcDbCircle
  8
0
 62
256
370
-1
  6
ByLayer
 10
0.0000000000000004
 20
2.7499999999999987
 30
0.0
 40
1.5
  0
ENDBLK
  5
7A
100
AcDbEntity
  8
0
100
AcDbBlockEnd
  0
BLOCK
  5
7B
100
AcDbEntity
  8
0
100
AcDbBlockBegin
  2
tgrips
 70
0
 10
0.0
 20
0.0
 30
0.0
  3
tgrips
  1

  0
LINE
  5
7C
100
AcDbEntity
100
AcDbLine
  8
0
 62
256
370
-1
  6
ByLayer
 10
-5.0
 20
0.0
 30
0.0
 11
-1.4172019846484645
 21
0.0
 31
0.0
  0
LINE
  5
7D
100
AcDbEntity
100
AcDbLine
  8
0
 62
256
370
-1
  6
ByLayer
 10
1.4008093934435664
 20
0.0044872792644778
 30
0.0
 11
5.0
 21
0.0
 31
0.0
  0
LINE
  5
7E
100
AcDbEntity
100
AcDbLine
  8
0
 62
256
370
-1
  6
ByLayer
 10
-5.0
 20
4.5
 30
0.0
 11
-5.0
 21
0.0
 31
0.0
  0
ARC
  5
7F
100
AcDbEntity
  8
0
 62
256
370
-1
  6
ByLayer
100
AcDbCircle
 10
-5.5
 20
4.5
 30
0.0
 40
0.5
100
AcDbArc
 50
0.0
 51
90.0
  0
LINE
  5
80
100
AcDbEntity
100
AcDbLine
  8
0
 62
256
370
-1
  6
ByLayer
 10
-14.5
 20
5.0
 30
0.0
 11
-5.5
 21
5.0
 31
0.0
  0
LINE
  5
81
100
AcDbEntity
100
AcDbLine
  8
0
 62
256
370
-1
  6
ByLayer
 10
-15.0
 20
0.0
 30
0.0
 11
-15.0
 21
4.5
 31
0.0
  0
ARC
  5
82
100
AcDbEntity
  8
0
 62
256
370
-1
  6
ByLayer
100
AcDbCircle
 10
-14.5
 20
4.5
 30
0.0
 40
0.5
100
AcDbArc
 50
90.0
 51
180.0
  0
LINE
  5
83
100
AcDbEntity
100
AcDbLine
  8
0
 62
256
370
-1
  6
ByLayer
 10
5.0
 20
0.0
 30
0.0
 11
5.0
 21
4.5
 31
0.0
  0
ARC
  5
84
100
AcDbEntity
  8
0
 62
256
370
-1
  6
ByLayer
100
AcDbCircle
 10
5.5
 20
4.5
 30
0.0
 40
0.5
100
AcDbArc
 50
90.0
 51
180.0
  0
LINE
  5
85
100
AcDbEntity
100
AcDbLine
  8
0
 62
256
370
-1
  6
ByLayer
 10
5.5
 20
5.0
 30
0.0
 11
14.5
 21
5.0
 31
0.0
  0
LINE
  5
86
100
AcDbEntity
100
AcDbLine
  8
0
 62
256
370
-1
  6
ByLayer
 10
15.0
 20
4.5
 30
0.0
 11
15.0
 21
0.0
 31
0.0
  0
ARC
  5
87
100
AcDbEntity
  8
0
 62
256
370
-1
  6
ByLayer
100
AcDbCircle
 10
14.5
 20
4.5
 30
0.0
 40
0.5
100
AcDbArc
 50
0.0
 51
90.0
  0
LINE
  5
88
100
AcDbEntity
100
AcDbLine
  8
0
 62
256
370
-1
  6
ByLayer
 10
-1.4172019846484645
 20
0.0
 30
0.0
 11
-1.4164840199662549
 21
-7.9987197232206464
 31
0.0
  0
LINE
  5
89
100
AcDbEntity
100
AcDbLine
  8
0
 62
256
370
-1
  6
ByLayer
 10
-1.4164840199662549
 20
-7.9987197232206464
 30
0.0
 11
-2.75
 21
-7.9999999999999991
 31
0.0
  0
LINE
  5
8A
100
AcDbEntity
100
AcDbLine
  8
0
 62
256
370
-1
  6
ByLayer
 10
-2.75
 20
-7.9999999999999991
 30
0.0
 11
-2.7546916604171798
 21
-11.0
 31
0.0
  0
LINE
  5
8B
100
AcDbEntity
100
AcDbLine
  8
0
 62
256
370
-1
  6
ByLayer
 10
-2.7546916604171798
 20
-11.0
 30
0.0
 11
-1.5
 21
-11.0
 31
0.0
  0
LINE
  5
8C
100
AcDbEntity
100
AcDbLine
  8
0
 62
256
370
-1
  6
ByLayer
 10
-1.5
 20
-11.0
 30
0.0
 11
-1.5
 21
-12.0
 31
0.0
  0
LINE
  5
8D
100
AcDbEntity
100
AcDbLine
  8
0
 62
256
370
-1
  6
ByLayer
 10
-1.5
 20
-12.0
 30
0.0
 11
1.5
 21
-12.0
 31
0.0
  0
LINE
  5
8E
100
AcDbEntity
100
AcDbLine
  8
0
 62
256
370
-1
  6
ByLayer
 10
1.5
 20
-11.0
 30
0.0
 11
1.5
 21
-12.0
 31
0.0
  0
LINE
  5
8F
100
AcDbEntity
100
AcDbLine
  8
0
 62
256
370
-1
  6
ByLayer
 10
1.5
 20
-11.0
 30
0.0
 11
2.7474839689560469
 21
-11.0
 31
0.0
  0
LINE
  5
90
100
AcDbEntity
100
AcDbLine
  8
0
 62
256
370
-1
  6
ByLayer
 10
2.75
 20
-8.0
 30
0.0
 11
2.7474839689560469
 21
-11.0
 31
0.0
  0
LINE
  5
91
100
AcDbEntity
100
AcDbLine
  8
0
 62
256
370
-1
  6
ByLayer
 10
1.4008093934434527
 20
-7.9987197232206473
 30
0.0
 11
1.4008093934435664
 21
0.0044872792644778
 31
0.0
  0
LINE
  5
92
100
AcDbEntity
100
AcDbLine
  8
0
 62
256
370
-1
  6
ByLayer
 10
2.75
 20
-8.0
 30
0.0
 11
1.4008093934434527
 21
-7.9987197232206473
 31
0.0
  0
ENDBLK
  5
93
100
AcDbEntity
  8
0
100
AcDbBlockEnd
  0
BLOCK
  5
94
100
AcDbEntity
  8
0
100
AcDbBlockBegin
  2
tcutout-5
 70
0
 10
0.0
 20
0.0
 30
0.0
  3
tcutout-5
  1

  0
LINE
  5
95
100
AcDbEntity
100
AcDbLine
  8
0
 62
256
370
-1
  6
ByLayer
 10
-10.0
 20
0.0000000000000148
 30
0.0
 11
-5.0
 21
0.000000000000001
 31
0.0
  0
LINE
  5
96
100
AcDbEntity
100
AcDbLine
  8
0
 62
256
370
-1
  6
ByLayer
 10
5.0
 20
-0.0000000000000003
 30
0.0
 11
10.0000000000000036
 21
0.0000000000000072
 31
0.0
  0
CIRCLE
  5
97
100
AcDbEntity
100
AcDbCircle
  8
0
 62
256
370
-1
  6
ByLayer
 10
0.0000000000000031
 20
3.050000000000002
 30
0.0
 40
1.5
  0
LINE
  5
98
100
AcDbEntity
100
AcDbLine
  8
Drawings
 62
256
370
-1
  6
ByLayer
 10
-4.9999999999999982
 20
3.0500000000000007
 30
0.0
 11
5.0
 21
3.0499999999999989
 31
0.0
  0
LINE
  5
99
100
AcDbEntity
100
AcDbLine
  8
0
 62
256
370
-1
  6
ByLayer
 10
-10.0
 20
0.0000000000000148
 30
0.0
 11
-9.9999999999999964
 21
5.5000000000000142
 31
0.0
  0
LINE
  5
9A
100
AcDbEntity
100
AcDbLine
  8
0
 62
256
370
-1
  6
ByLayer
 10
-4.9999999999999964
 20
5.5000000000000009
 30
0.0
 11
-5.0
 21
0.000000000000001
 31
0.0
  0
LINE
  5
9B
100
AcDbEntity
100
AcDbLine
  8
05 - Idler Rib
 62
256
370
-1
  6
ByLayer
 10
-9.9999999999999964
 20
5.5000000000000142
 30
0.0
 11
-4.9999999999999964
 21
5.5000000000000009
 31
0.0
  0
LINE
  5
9C
100
AcDbEntity
100
AcDbLine
  8
0
 62
256
370
-1
  6
ByLayer
 10
5.0
 20
-0.0000000000000003
 30
0.0
 11
5.0000000000000009
 21
5.5
 31
0.0
  0
LINE
  5
9D
100
AcDbEntity
100
AcDbLine
  8
0
 62
256
370
-1
  6
ByLayer
 10
10.0
 20
5.5000000000000071
 30
0.0
 11
10.0000000000000036
 21
0.0000000000000072
 31
0.0
  0
LINE
  5
9E
100
AcDbEntity
100
AcDbLine
  8
05 - Idler Rib
 62
256
370
-1
  6
ByLayer
 10
5.0000000000000009
 20
5.5
 30
0.0
 11
10.0
 21
5.5000000000000071
 31
0.0
  0
ENDBLK
  5
9F
100
AcDbEntity
  8
0
100
AcDbBlockEnd
  0
BLOCK
  5
A0
100
AcDbEntity
  8
0
100
AcDbBlockBegin
  2
tgrips-5
 70
0
 10
0.0
 20
0.0
 30
0.0
  3
tgrips-5
  1

  0
LINE
  5
A1
100
AcDbEntity
100
AcDbLine
  8
0
 62
256
370
-1
  6
ByLayer
 10
-9.9918037043975509
 20
-0.0022436396322414
 30
0.0
 11
-9.9918037043975492
 21
4.4977563603677631
 31
0.0
  0
ARC
  5
A2
100
AcDbEntity
  8
0
 62
256
370
-1
  6
ByLayer
100
AcDbCircle
 10
-9.4918037043975492
 20
4.4977563603677631
 30
0.0
 40
0.5
100
AcDbArc
 50
90.0
 51
180.0
  0
LINE
  5
A3
100
AcDbEntity
100
AcDbLine
  8
0
 62
256
370
-1
  6
ByLayer
 10
-9.4918037043975492
 20
4.9977563603677631
 30
0.0
 11
-5.4918037043975509
 21
4.9977563603677613
 31
0.0
  0
LINE
  5
A4
100
AcDbEntity
100
AcDbLine
  8
0
 62
256
370
-1
  6
ByLayer
 10
-4.9918037043975501
 20
4.4977563603677613
 30
0.0
 11
-4.9918037043975509
 21
-0.0022436396322396
 31
0.0
  0
ARC
  5
A5
100
AcDbEntity
  8
0
 62
256
370
-1
  6
ByLayer
100
AcDbCircle
 10
-5.4918037043975509
 20
4.4977563603677613
 30
0.0
 40
0.5
100
AcDbArc
 50
0.0
 51
90.0
  0
LINE
  5
A6
100
AcDbEntity
100
AcDbLine
  8
0
 62
256
370
-1
  6
ByLayer
 10
10.0081962956024491
 20
4.4977563603677613
 30
0.0
 11
10.0081962956024491
 21
-0.0022436396322383
 31
0.0
  0
ARC
  5
A7
100
AcDbEntity
  8
0
 62
256
370
-1
  6
ByLayer
100
AcDbCircle
 10
9.5081962956024491
 20
4.4977563603677613
 30
0.0
 40
0.5
100
AcDbArc
 50
0.0
 51
90.0
  0
LINE
  5
A8
100
AcDbEntity
100
AcDbLine
  8
0
 62
256
370
-1
  6
ByLayer
 10
5.5081962956024491
 20
4.9977563603677604
 30
0.0
 11
9.5081962956024491
 21
4.9977563603677613
 31
0.0
  0
LINE
  5
A9
100
AcDbEntity
100
AcDbLine
  8
0
 62
256
370
-1
  6
ByLayer
 10
5.0081962956024499
 20
-0.0022436396322396
 30
0.0
 11
5.0081962956024491
 21
4.4977563603677604
 31
0.0
  0
ARC
  5
AA
100
AcDbEntity
  8
0
 62
256
370
-1
  6
ByLayer
100
AcDbCircle
 10
5.5081962956024491
 20
4.4977563603677604
 30
0.0
 40
0.5
100
AcDbArc
 50
90.0
 51
180.0
  0
LINE
  5
AB
100
AcDbEntity
100
AcDbLine
  8
0
 62
256
370
-1
  6
ByLayer
 10
-1.4918037043975541
 20
-11.5022436396322352
 30
0.0
 11
-1.4918037043975541
 21
-11.5022436396322405
 31
0.0
  0
LINE
  5
AC
100
AcDbEntity
100
AcDbLine
  8
0
 62
256
370
-1
  6
ByLayer
 10
1.5081962956024464
 20
-11.5022436396322387
 30
0.0
 11
1.5081962956024464
 21
-11.5022436396322405
 31
0.0
  0
LINE
  5
AD
100
AcDbEntity
100
AcDbLine
  8
0
 62
256
370
-1
  6
ByLayer
 10
-1.4082877243638052
 20
-8.0009633628528842
 30
0.0
 11
-2.7418037043975541
 21
-8.0022436396322387
 31
0.0
  0
LINE
  5
AE
100
AcDbEntity
100
AcDbLine
  8
0
 62
256
370
-1
  6
ByLayer
 10
-2.7418037043975541
 20
-8.0022436396322387
 30
0.0
 11
-2.7464953648147348
 21
-11.0022436396322369
 31
0.0
  0
LINE
  5
AF
100
AcDbEntity
100
AcDbLine
  8
0
 62
256
370
-1
  6
ByLayer
 10
2.7581962956024468
 20
-8.0022436396322405
 30
0.0
 11
2.7556802645584919
 21
-11.0022436396322405
 31
0.0
  0
LINE
  5
B0
100
AcDbEntity
100
AcDbLine
  8
0
 62
256
370
-1
  6
ByLayer
 10
2.7581962956024468
 20
-8.0022436396322405
 30
0.0
 11
1.4090056890459026
 21
-8.0009633628528878
 31
0.0
  0
LINE
  5
B1
100
AcDbEntity
100
AcDbLine
  8
0
 62
256
370
-1
  6
ByLayer
 10
-2.7464953648147348
 20
-11.0022436396322369
 30
0.0
 11
-1.4918037043975541
 21
-11.0022436396322369
 31
0.0
  0
LINE
  5
B2
100
AcDbEntity
100
AcDbLine
  8
0
 62
256
370
-1
  6
ByLayer
 10
-1.4918037043975541
 20
-12.0022436396322387
 30
0.0
 11
-1.4918037043975541
 21
-11.0022436396322369
 31
0.0
  0
LINE
  5
B3
100
AcDbEntity
100
AcDbLine
  8
0
 62
256
370
-1
  6
ByLayer
 10
-1.4918037043975541
 20
-12.0022436396322387
 30
0.0
 11
1.5081962956024464
 21
-12.0022436396322369
 31
0.0
  0
LINE
  5
B4
100
AcDbEntity
100
AcDbLine
  8
0
 62
256
370
-1
  6
ByLayer
 10
1.5081962956024464
 20
-11.0022436396322405
 30
0.0
 11
2.7556802645584919
 21
-11.0022436396322405
 31
0.0
  0
LINE
  5
B5
100
AcDbEntity
100
AcDbLine
  8
0
 62
256
370
-1
  6
ByLayer
 10
1.5081962956024464
 20
-12.0022436396322369
 30
0.0
 11
1.5081962956024464
 21
-11.0022436396322405
 31
0.0
  0
LINE
  5
B6
100
AcDbEntity
100
AcDbLine
  8
0
 62
256
370
-1
  6
ByLayer
 10
-1.4090056890460152
 20
-0.0022436396322386
 30
0.0
 11
-1.4082877243638052
 21
-8.0009633628528842
 31
0.0
  0
LINE
  5
B7
100
AcDbEntity
100
AcDbLine
  8
0
 62
256
370
-1
  6
ByLayer
 10
-4.9918037043975509
 20
-0.0022436396322396
 30
0.0
 11
-1.4090056890460152
 21
-0.0022436396322386
 31
0.0
  0
LINE
  5
B8
100
AcDbEntity
100
AcDbLine
  8
0
 62
256
370
-1
  6
ByLayer
 10
1.4090056890460154
 20
0.0022436396322378
 30
0.0
 11
5.0081962956024499
 21
-0.0022436396322396
 31
0.0
  0
LINE
  5
B9
100
AcDbEntity
100
AcDbLine
  8
0
 62
256
370
-1
  6
ByLayer
 10
1.4090056890459026
 20
-8.0009633628528878
 30
0.0
 11
1.4090056890460154
 21
0.0022436396322378
 31
0.0
  0
ENDBLK
  5
BA
100
AcDbEntity
  8
0
100
AcDbBlockEnd
  0
BLOCK
  5
BB
100
AcDbEntity
  8
0
100
AcDbBlockBegin
  2
Mechanical Endstop
 70
0
 10
0.0
 20
0.0
 30
0.0
  3
Mechanical Endstop
  1

  0
LINE
  5
BC
100
AcDbEntity
100
AcDbLine
  8
Drawings
 62
256
370
-1
  6
ByLayer
 10
0.0
 20
0.0
 30
0.0
 11
39.5
 21
0.0
 31
0.0
  0
LINE
  5
BD
100
AcDbEntity
100
AcDbLine
  8
Drawings
 62
256
370
-1
  6
ByLayer
 10
0.0
 20
0.0
 30
0.0
 11
0.000000000000001
 21
16.0
 31
0.0
  0
LINE
  5
BE
100
AcDbEntity
100
AcDbLine
  8
Drawings
 62
256
370
-1
  6
ByLayer
 10
39.5
 20
0.0
 30
0.0
 11
39.5
 21
16.0
 31
0.0
  0
LINE
  5
BF
100
AcDbEntity
100
AcDbLine
  8
Drawings
 62
256
370
-1
  6
ByLayer
 10
0.000000000000001
 20
16.0
 30
0.0
 11
39.5
 21
16.0
 31
0.0
  0
CIRCLE
  5
C0
100
AcDbEntity
100
AcDbCircle
  8
0
 62
256
370
-1
  6
ByLayer
 10
17.0
 20
13.0
 30
0.0
 40
1.5
  0
CIRCLE
  5
C1
100
AcDbEntity
100
AcDbCircle
  8
0
 62
256
370
-1
  6
ByLayer
 10
36.0
 20
13.0
 30
0.0
 40
1.5
  0
LINE
  5
C2
100
AcDbEntity
100
AcDbLine
  8
Drawings
 62
256
370
-1
  6
ByLayer
 10
0.0000000000000025
 20
14.5
 30
0.0
 11
-12.0
 21
14.5
 31
0.0
  0
LINE
  5
C3
100
AcDbEntity
100
AcDbLine
  8
Drawings
 62
256
370
-1
  6
ByLayer
 10
-0.0000000000000007
 20
1.5
 30
0.0
 11
-12.0
 21
1.5
 31
0.0
  0
LINE
  5
C4
100
AcDbEntity
100
AcDbLine
  8
Drawings
 62
256
370
-1
  6
ByLayer
 10
-12.0
 20
1.5
 30
0.0
 11
-12.0
 21
14.5
 31
0.0
  0
LINE
  5
C5
100
AcDbEntity
100
AcDbLine
  8
Drawings
 62
256
370
-1
  6
ByLayer
 10
0.0000000000000005
 20
8.0
 30
0.0
 11
-12.0
 21
8.0
 31
0.0
  0
LINE
  5
C6
100
AcDbEntity
100
AcDbLine
  8
Drawings
 62
256
370
-1
  6
ByLayer
 10
20.0
 20
16.0
 30
0.0
 11
33.0
 21
16.0
 31
0.0
  0
LINE
  5
C7
100
AcDbEntity
100
AcDbLine
  8
Drawings
 62
256
370
-1
  6
ByLayer
 10
33.0
 20
16.0
 30
0.0
 11
33.0
 21
10.0
 31
0.0
  0
LINE
  5
C8
100
AcDbEntity
100
AcDbLine
  8
Drawings
 62
256
370
-1
  6
ByLayer
 10
33.0
 20
10.0
 30
0.0
 11
20.0
 21
10.0
 31
0.0
  0
LINE
  5
C9
100
AcDbEntity
100
AcDbLine
  8
Drawings
 62
256
370
-1
  6
ByLayer
 10
20.0
 20
10.0
 30
0.0
 11
20.0
 21
16.0
 31
0.0
  0
LINE
  5
CA
100
AcDbEntity
100
AcDbLine
  8
Drawings
 62
256
370
-1
  6
ByLayer
 10
21.0
 20
16.0
 30
0.0
 11
33.0
 21
18.0
 31
0.0
  0
LINE
  5
CB
100
AcDbEntity
100
AcDbLine
  8
Drawings
 62
256
370
-1
  6
ByLayer
 10
34.0
 20
5.0
 30
0.0
 11
36.0
 21
5.0
 31
0.0
  0
LINE
  5
CC
100
AcDbEntity
100
AcDbLine
  8
Drawings
 62
256
370
-1
  6
ByLayer
 10
36.0
 20
5.0
 30
0.0
 11
36.0
 21
6.0
 31
0.0
  0
LINE
  5
CD
100
AcDbEntity
100
AcDbLine
  8
Drawings
 62
256
370
-1
  6
ByLayer
 10
36.0
 20
6.0
 30
0.0
 11
34.0
 21
6.0
 31
0.0
  0
LINE
  5
CE
100
AcDbEntity
100
AcDbLine
  8
Drawings
 62
256
370
-1
  6
ByLayer
 10
34.0
 20
6.0
 30
0.0
 11
34.0
 21
5.0
 31
0.0
  0
CIRCLE
  5
CF
100
AcDbEntity
100
AcDbCircle
  8
Drawings
 62
256
370
-1
  6
ByLayer
 10
17.0
 20
13.0
 30
0.0
 40
2.75
  0
CIRCLE
  5
D0
100
AcDbEntity
100
AcDbCircle
  8
Drawings
 62
256
370
-1
  6
ByLayer
 10
36.0
 20
13.0
 30
0.0
 40
2.75
  0
ENDBLK
  5
D1
100
AcDbEntity
  8
0
100
AcDbBlockEnd
  0
ENDSEC
  0
SECTION
  2
ENTITIES
  0
LINE
  5
D2
100
AcDbEntity
100
AcDbLine
  8
Drawings
 62
256
370
-1
  6
ByLayer
 10
99.9999999999999858
 20
-247.5000000000000853
 30
0.0
 11
99.9999999999999858
 21
146.25
 31
0.0
  0
LINE
  5
D3
100
AcDbEntity
100
AcDbLine
  8
Drawings - Belt
 62
256
370
-1
  6
ByLayer
 10
47.6000000000000085
 20
-139.7499999999998863
 30
0.0
 11
374.0
 21
-139.7499999999988063
 31
0.0
  0
LINE
  5
D4
100
AcDbEntity
100
AcDbLine
  8
Drawings - Belt
 62
256
370
-1
  6
ByLayer
 10
47.6000000000000085
 20
-145.7499999999999147
 30
0.0
 11
374.0
 21
-145.7499999999995737
 31
0.0
  0
LINE
  5
D5
100
AcDbEntity
100
AcDbLine
  8
Drawings
 62
256
370
-1
  6
ByLayer
 10
192.299999999999784
 20
-156.2499999999996874
 30
0.0
 11
192.299999999999784
 21
-2.5000000000001377
 31
0.0
  0
LINE
  5
D6
100
AcDbEntity
100
AcDbLine
  8
Drawings
 62
256
370
-1
  6
ByLayer
 10
252.3000000000000114
 20
-156.2499999999996021
 30
0.0
 11
252.3000000000000114
 21
-2.5000000000002172
 31
0.0
  0
LINE
  5
D7
100
AcDbEntity
100
AcDbLine
  8
Drawings
 62
256
370
-1
  6
ByLayer
 10
114.9999999999999858
 20
37.5000000000000071
 30
0.0
 11
114.9999999999999858
 21
-37.4999999999999787
 31
0.0
  0
CIRCLE
  5
D8
100
AcDbEntity
100
AcDbCircle
  8
Drawings - Pulleys
 62
256
370
-1
  6
ByLayer
 10
114.9999999999999858
 20
-8.8500000000000014
 30
0.0
 40
4.7999999999999936
  0
CIRCLE
  5
D9
100
AcDbEntity
100
AcDbCircle
  8
Drawings - Pulleys
 62
256
370
-1
  6
ByLayer
 10
114.9999999999999858
 20
-8.8500000000000014
 30
0.0
 40
7.0
  0
CIRCLE
  5
DA
100
AcDbEntity
100
AcDbCircle
  8
Drawings
 62
256
370
-1
  6
ByLayer
 10
114.9999999999999858
 20
-8.8500000000000014
 30
0.0
 40
4.25
  0
LINE
  5
DB
100
AcDbEntity
100
AcDbLine
  8
Drawings
 62
256
370
-1
  6
ByLayer
 10
-240.1999999999997613
 20
-32.5000000000001563
 30
0.0
 11
-315.1999999999995339
 21
-32.500000000000199
 31
0.0
  0
LINE
  5
DC
100
AcDbEntity
100
AcDbLine
  8
Drawings
 62
256
370
-1
  6
ByLayer
 10
-70.0000000000000142
 20
146.25
 30
0.0
 11
-70.0000000000000142
 21
-247.5000000000000284
 31
0.0
  0
LINE
  5
DD
100
AcDbEntity
100
AcDbLine
  8
Drawings
 62
256
370
-1
  6
ByLayer
 10
130.0
 20
-217.4999999999999432
 30
0.0
 11
-130.0
 21
-217.5
 31
0.0
  0
LINE
  5
DE
100
AcDbEntity
100
AcDbLine
  8
Drawings - Y Travel
 62
256
370
-1
  6
ByLayer
 10
99.9999999999999858
 20
30.0
 30
0.0
 11
-100.0000000000000711
 21
30.0
 31
0.0
  0
LINE
  5
DF
100
AcDbEntity
100
AcDbLine
  8
Drawings - Y Travel
 62
256
370
-1
  6
ByLayer
 10
-100.0000000000000711
 20
-30.0
 30
0.0
 11
99.9999999999999858
 21
-30.0
 31
0.0
  0
LINE
  5
E0
100
AcDbEntity
100
AcDbLine
  8
Drawings - Y Travel
 62
256
370
-1
  6
ByLayer
 10
99.9999999999999858
 20
0.0
 30
0.0
 11
-100.0000000000000711
 21
0.0
 31
0.0
  0
LINE
  5
E1
100
AcDbEntity
100
AcDbLine
  8
Drawings - Y Travel
 62
256
370
-1
  6
ByLayer
 10
99.9999999999999858
 20
-4.0500000000000069
 30
0.0
 11
-100.0000000000000711
 21
-4.0500000000000007
 31
0.0
  0
LINE
  5
E2
100
AcDbEntity
100
AcDbLine
  8
Drawings - Y Travel
 62
256
370
-1
  6
ByLayer
 10
-100.0000000000000711
 20
-13.6500000000000021
 30
0.0
 11
100.0000000000000142
 21
-13.649999999999995
 31
0.0
  0
LINE
  5
E3
100
AcDbEntity
100
AcDbLine
  8
Drawings
 62
256
370
-1
  6
ByLayer
 10
-72.2250000000000512
 20
-118.749999999999801
 30
0.0
 11
-72.2250000000000512
 21
-148.7499999999999147
 31
0.0
  0
LINE
  5
E4
100
AcDbEntity
100
AcDbLine
  8
Drawings
 62
256
370
-1
  6
ByLayer
 10
-187.6999999999999886
 20
-124.6999999999997328
 30
0.0
 11
-187.700000000000216
 21
-146.9999999999996589
 31
0.0
  0
LINE
  5
E5
100
AcDbEntity
100
AcDbLine
  8
Drawings
 62
256
370
-1
  6
ByLayer
 10
-79.5250000000000483
 20
-254.9999999999999432
 30
0.0
 11
-79.5249999999999773
 21
148.1499999999999488
 31
0.0
  0
ARC
  5
E6
100
AcDbEntity
  8
Drawings - Belt
 62
256
370
-1
  6
ByLayer
100
AcDbCircle
 10
114.9999999999999858
 20
-8.8500000000000014
 30
0.0
 40
4.7999999999999972
100
AcDbArc
 50
270.0
 51
90.0000000000003411
  0
LINE
  5
E7
100
AcDbEntity
100
AcDbLine
  8
Drawings
 62
256
370
-1
  6
ByLayer
 10
-72.2250000000000512
 20
140.6499999999999204
 30
0.0
 11
-72.2250000000000512
 21
-247.5000000000000853
 31
0.0
  0
LINE
  5
E8
100
AcDbEntity
100
AcDbLine
  8
Drawings
 62
256
370
-1
  6
ByLayer
 10
-307.7000000000001023
 20
-156.2499999999996021
 30
0.0
 11
-307.7000000000001592
 21
-0.0000000000002389
 31
0.0
  0
LINE
  5
E9
100
AcDbEntity
100
AcDbLine
  8
Drawings
 62
256
370
-1
  6
ByLayer
 10
-247.6999999999998749
 20
-156.2499999999996305
 30
0.0
 11
-247.6999999999998181
 21
-0.0000000000001421
 31
0.0
  0
LINE
  5
EA
100
AcDbEntity
100
AcDbLine
  8
Drawings
 62
256
370
-1
  6
ByLayer
 10
-205.7000000000000455
 20
-135.8749999999997158
 30
0.0
 11
-79.5250000000000341
 21
-135.8749999999997158
 31
0.0
  0
ARC
  5
EB
100
AcDbEntity
  8
11 - Belt Clamps
 62
256
370
-1
  6
ByLayer
100
AcDbCircle
 10
408.9552790633300674
 20
-124.2499999999994884
 30
0.0
 40
5.0
100
AcDbArc
 50
0.0
 51
180.0
  0
CIRCLE
  5
EC
100
AcDbEntity
100
AcDbCircle
  8
11 - Belt Clamps
 62
256
370
-1
  6
ByLayer
 10
408.9552790633300674
 20
-124.2499999999994884
 30
0.0
 40
1.5
  0
CIRCLE
  5
ED
100
AcDbEntity
100
AcDbCircle
  8
11 - Belt Clamps
 62
256
370
-1
  6
ByLayer
 10
408.9552790633300674
 20
-134.2499999999991473
 30
0.0
 40
1.5
  0
ARC
  5
EE
100
AcDbEntity
  8
11 - Belt Clamps
 62
256
370
-1
  6
ByLayer
100
AcDbCircle
 10
388.9552790633300674
 20
-124.249999999999261
 30
0.0
 40
5.0
100
AcDbArc
 50
0.0
 51
180.0
  0
CIRCLE
  5
EF
100
AcDbEntity
100
AcDbCircle
  8
11 - Belt Clamps
 62
256
370
-1
  6
ByLayer
 10
388.9552790633300674
 20
-124.249999999999261
 30
0.0
 40
1.5
  0
CIRCLE
  5
F0
100
AcDbEntity
100
AcDbCircle
  8
11 - Belt Clamps
 62
256
370
-1
  6
ByLayer
 10
388.9552790633300674
 20
-134.2499999999995168
 30
0.0
 40
1.5
  0
INSERT
  5
F1
100
AcDbEntity
100
AcDbBlockReference
  8
01 - Front
 62
256
370
-1
  6
ByLayer
  2
tcutout
 10
99.9999999999999289
 20
-118.7499999999998863
 30
0.0
 41
1.0
 42
-1.0
 43
1.0
 50
180.0
 44
1.0
 45
1.0
  0
INSERT
  5
F2
100
AcDbEntity
100
AcDbBlockReference
  8
01 - Front
 62
256
370
-1
  6
ByLayer
  2
tcutout
 10
-70.0000000000000711
 20
-118.7499999999997726
 30
0.0
 41
1.0
 42
-1.0
 43
1.0
 50
180.0
 44
1.0
 45
1.0
  0
INSERT
  5
F3
100
AcDbEntity
100
AcDbBlockReference
  8
03 - Top
 62
256
370
-1
  6
ByLayer
  2
tgrips
 10
99.9999999999999858
 20
30.0
 30
0.0
 44
1.0
 45
1.0
  0
INSERT
  5
F4
100
AcDbEntity
100
AcDbBlockReference
  8
03 - Top
 62
256
370
-1
  6
ByLayer
  2
tgrips
 10
99.9999999999999858
 20
-30.0
 30
0.0
 50
-180.0
 44
1.0
 45
1.0
  0
CIRCLE
  5
F5
100
AcDbEntity
100
AcDbCircle
  8
03 - Top
 62
256
370
-1
  6
ByLayer
 10
114.9999999999999858
 20
-8.8500000000000014
 30
0.0
 40
2.0
  0
LINE
  5
F6
100
AcDbEntity
100
AcDbLine
  8
03 - Top
 62
256
370
-1
  6
ByLayer
 10
-55.0000000000000142
 20
-30.0
 30
0.0
 11
84.9999999999999858
 21
-30.0000000000000036
 31
0.0
  0
INSERT
  5
F7
100
AcDbEntity
100
AcDbBlockReference
  8
03 - Top
 62
256
370
-1
  6
ByLayer
  2
tgrips
 10
-70.0000000000000142
 20
-30.0
 30
0.0
 50
-180.0
 44
1.0
 45
1.0
  0
INSERT
  5
F8
100
AcDbEntity
100
AcDbBlockReference
  8
03 - Top
 62
256
370
-1
  6
ByLayer
  2
tgrips
 10
-70.0000000000000142
 20
30.0000000000000142
 30
0.0
 44
1.0
 45
1.0
  0
LINE
  5
F9
100
AcDbEntity
100
AcDbLine
  8
03 - Top
 62
256
370
-1
  6
ByLayer
 10
-55.0000000000000142
 20
29.9999999999999858
 30
0.0
 11
84.9999999999999858
 21
30.0
 31
0.0
  0
INSERT
  5
FA
100
AcDbEntity
100
AcDbBlockReference
  8
04 - Bottom
 62
256
370
-1
  6
ByLayer
  2
tgrips
 10
99.9999999999997584
 20
-247.500000000000199
 30
0.0
 41
1.0
 42
-1.0
 43
1.0
 50
360.0
 44
1.0
 45
1.0
  0
INSERT
  5
FB
100
AcDbEntity
100
AcDbBlockReference
  8
04 - Bottom
 62
256
370
-1
  6
ByLayer
  2
tgrips
 10
99.9999999999998721
 20
-187.5000000000002274
 30
0.0
 41
1.0
 42
-1.0
 43
1.0
 50
180.0
 44
1.0
 45
1.0
  0
LINE
  5
FC
100
AcDbEntity
100
AcDbLine
  8
06 - Drive Rib
 62
256
370
-1
  6
ByLayer
 10
355.0
 20
-118.7499999999995737
 30
0.0
 11
370.0
 21
-118.7499999999998295
 31
0.0
  0
LINE
  5
FD
100
AcDbEntity
100
AcDbLine
  8
06 - Drive Rib
 62
256
370
-1
  6
ByLayer
 10
310.0
 20
-118.7499999999997442
 30
0.0
 11
325.0
 21
-118.7499999999996021
 31
0.0
  0
CIRCLE
  5
FE
100
AcDbEntity
100
AcDbCircle
  8
06 - Drive Rib
 62
256
370
-1
  6
ByLayer
 10
348.0
 20
-124.2499999999994884
 30
0.0
 40
1.5
  0
CIRCLE
  5
FF
100
AcDbEntity
100
AcDbCircle
  8
06 - Drive Rib
 62
256
370
-1
  6
ByLayer
 10
332.0
 20
-124.2499999999996874
 30
0.0
 40
1.5
  0
CIRCLE
  5
100
100
AcDbEntity
100
AcDbCircle
  8
06 - Drive Rib
 62
256
370
-1
  6
ByLayer
 10
348.0
 20
-134.2499999999996589
 30
0.0
 40
1.5
  0
CIRCLE
  5
101
100
AcDbEntity
100
AcDbCircle
  8
06 - Drive Rib
 62
256
370
-1
  6
ByLayer
 10
332.0
 20
-134.2499999999995453
 30
0.0
 40
1.5
  0
LINE
  5
102
100
AcDbEntity
100
AcDbLine
  8
06 - Drive Rib
 62
256
370
-1
  6
ByLayer
 10
339.5999999999999659
 20
-145.7499999999997442
 30
0.0
 11
339.6000000000000227
 21
-139.7499999999996021
 31
0.0
  0
LINE
  5
103
100
AcDbEntity
100
AcDbLine
  8
06 - Drive Rib
 62
256
370
-1
  6
ByLayer
 10
339.6000000000000227
 20
-139.7499999999996021
 30
0.0
 11
340.3999999999999773
 21
-139.7499999999994884
 31
0.0
  0
LINE
  5
104
100
AcDbEntity
100
AcDbLine
  8
06 - Drive Rib
 62
256
370
-1
  6
ByLayer
 10
340.3999999999999773
 20
-139.7499999999994884
 30
0.0
 11
340.3999999999999204
 21
-145.7499999999999432
 31
0.0
  0
LINE
  5
105
100
AcDbEntity
100
AcDbLine
  8
06 - Drive Rib
 62
256
370
-1
  6
ByLayer
 10
340.3999999999999204
 20
-145.7499999999999432
 30
0.0
 11
339.5999999999999659
 21
-145.7499999999997442
 31
0.0
  0
LINE
  5
106
100
AcDbEntity
100
AcDbLine
  8
06 - Drive Rib
 62
256
370
-1
  6
ByLayer
 10
337.6000000000000227
 20
-145.7499999999997726
 30
0.0
 11
337.6000000000000227
 21
-139.7499999999996874
 31
0.0
  0
LINE
  5
107
100
AcDbEntity
100
AcDbLine
  8
06 - Drive Rib
 62
256
370
-1
  6
ByLayer
 10
337.6000000000000227
 20
-139.7499999999996874
 30
0.0
 11
338.3999999999999773
 21
-139.7499999999995737
 31
0.0
  0
LINE
  5
108
100
AcDbEntity
100
AcDbLine
  8
06 - Drive Rib
 62
256
370
-1
  6
ByLayer
 10
338.3999999999999773
 20
-139.7499999999995737
 30
0.0
 11
338.3999999999999773
 21
-145.7499999999997726
 31
0.0
  0
LINE
  5
109
100
AcDbEntity
100
AcDbLine
  8
06 - Drive Rib
 62
256
370
-1
  6
ByLayer
 10
338.3999999999999773
 20
-145.7499999999997726
 30
0.0
 11
337.6000000000000227
 21
-145.7499999999997726
 31
0.0
  0
LINE
  5
10A
100
AcDbEntity
100
AcDbLine
  8
06 - Drive Rib
 62
256
370
-1
  6
ByLayer
 10
335.6000000000000227
 20
-145.7499999999998863
 30
0.0
 11
335.6000000000000227
 21
-139.7499999999996305
 31
0.0
  0
LINE
  5
10B
100
AcDbEntity
100
AcDbLine
  8
06 - Drive Rib
 62
256
370
-1
  6
ByLayer
 10
335.6000000000000227
 20
-139.7499999999996305
 30
0.0
 11
336.3999999999999773
 21
-139.7499999999996874
 31
0.0
  0
LINE
  5
10C
100
AcDbEntity
100
AcDbLine
  8
06 - Drive Rib
 62
256
370
-1
  6
ByLayer
 10
336.3999999999999773
 20
-139.7499999999996874
 30
0.0
 11
336.3999999999999773
 21
-145.7499999999997158
 31
0.0
  0
LINE
  5
10D
100
AcDbEntity
100
AcDbLine
  8
06 - Drive Rib
 62
256
370
-1
  6
ByLayer
 10
336.3999999999999773
 20
-145.7499999999997158
 30
0.0
 11
335.6000000000000227
 21
-145.7499999999998863
 31
0.0
  0
LINE
  5
10E
100
AcDbEntity
100
AcDbLine
  8
06 - Drive Rib
 62
256
370
-1
  6
ByLayer
 10
333.6000000000000227
 20
-145.749999999999801
 30
0.0
 11
333.6000000000000227
 21
-139.7499999999997726
 31
0.0
  0
LINE
  5
10F
100
AcDbEntity
100
AcDbLine
  8
06 - Drive Rib
 62
256
370
-1
  6
ByLayer
 10
333.6000000000000227
 20
-139.7499999999997726
 30
0.0
 11
334.3999999999999773
 21
-139.7499999999996021
 31
0.0
  0
LINE
  5
110
100
AcDbEntity
100
AcDbLine
  8
06 - Drive Rib
 62
256
370
-1
  6
ByLayer
 10
334.3999999999999773
 20
-139.7499999999996021
 30
0.0
 11
334.3999999999999773
 21
-145.7499999999998295
 31
0.0
  0
LINE
  5
111
100
AcDbEntity
100
AcDbLine
  8
06 - Drive Rib
 62
256
370
-1
  6
ByLayer
 10
334.3999999999999773
 20
-145.7499999999998295
 30
0.0
 11
333.6000000000000227
 21
-145.749999999999801
 31
0.0
  0
LINE
  5
112
100
AcDbEntity
100
AcDbLine
  8
06 - Drive Rib
 62
256
370
-1
  6
ByLayer
 10
331.6000000000000227
 20
-145.7499999999998295
 30
0.0
 11
331.6000000000000227
 21
-139.7499999999997158
 31
0.0
  0
LINE
  5
113
100
AcDbEntity
100
AcDbLine
  8
06 - Drive Rib
 62
256
370
-1
  6
ByLayer
 10
331.6000000000000227
 20
-139.7499999999997158
 30
0.0
 11
332.3999999999999773
 21
-139.7499999999997442
 31
0.0
  0
LINE
  5
114
100
AcDbEntity
100
AcDbLine
  8
06 - Drive Rib
 62
256
370
-1
  6
ByLayer
 10
332.3999999999999773
 20
-139.7499999999997442
 30
0.0
 11
332.3999999999999773
 21
-145.7499999999996589
 31
0.0
  0
LINE
  5
115
100
AcDbEntity
100
AcDbLine
  8
06 - Drive Rib
 62
256
370
-1
  6
ByLayer
 10
332.3999999999999773
 20
-145.7499999999996589
 30
0.0
 11
331.6000000000000227
 21
-145.7499999999998295
 31
0.0
  0
LINE
  5
116
100
AcDbEntity
100
AcDbLine
  8
06 - Drive Rib
 62
256
370
-1
  6
ByLayer
 10
329.6000000000000227
 20
-145.7499999999998579
 30
0.0
 11
329.6000000000000227
 21
-139.7499999999997442
 31
0.0
  0
LINE
  5
117
100
AcDbEntity
100
AcDbLine
  8
06 - Drive Rib
 62
256
370
-1
  6
ByLayer
 10
329.6000000000000227
 20
-139.7499999999997442
 30
0.0
 11
330.3999999999999773
 21
-139.7499999999995168
 31
0.0
  0
LINE
  5
118
100
AcDbEntity
100
AcDbLine
  8
06 - Drive Rib
 62
256
370
-1
  6
ByLayer
 10
330.3999999999999773
 20
-139.7499999999995168
 30
0.0
 11
330.3999999999999773
 21
-145.7499999999997726
 31
0.0
  0
LINE
  5
119
100
AcDbEntity
100
AcDbLine
  8
06 - Drive Rib
 62
256
370
-1
  6
ByLayer
 10
330.3999999999999773
 20
-145.7499999999997726
 30
0.0
 11
329.6000000000000227
 21
-145.7499999999998579
 31
0.0
  0
LINE
  5
11A
100
AcDbEntity
100
AcDbLine
  8
06 - Drive Rib
 62
256
370
-1
  6
ByLayer
 10
327.5999999999999659
 20
-145.7499999999998579
 30
0.0
 11
327.6000000000000227
 21
-139.7499999999996874
 31
0.0
  0
LINE
  5
11B
100
AcDbEntity
100
AcDbLine
  8
06 - Drive Rib
 62
256
370
-1
  6
ByLayer
 10
327.6000000000000227
 20
-139.7499999999996874
 30
0.0
 11
328.3999999999999773
 21
-139.7499999999996021
 31
0.0
  0
LINE
  5
11C
100
AcDbEntity
100
AcDbLine
  8
06 - Drive Rib
 62
256
370
-1
  6
ByLayer
 10
328.3999999999999773
 20
-139.7499999999996021
 30
0.0
 11
328.3999999999999773
 21
-145.7499999999998295
 31
0.0
  0
LINE
  5
11D
100
AcDbEntity
100
AcDbLine
  8
06 - Drive Rib
 62
256
370
-1
  6
ByLayer
 10
328.3999999999999773
 20
-145.7499999999998295
 30
0.0
 11
327.5999999999999659
 21
-145.7499999999998579
 31
0.0
  0
LINE
  5
11E
100
AcDbEntity
100
AcDbLine
  8
06 - Drive Rib
 62
256
370
-1
  6
ByLayer
 10
341.6000000000000227
 20
-145.7499999999997442
 30
0.0
 11
341.6000000000000227
 21
-139.7499999999996305
 31
0.0
  0
LINE
  5
11F
100
AcDbEntity
100
AcDbLine
  8
06 - Drive Rib
 62
256
370
-1
  6
ByLayer
 10
341.6000000000000227
 20
-139.7499999999996305
 30
0.0
 11
342.3999999999999773
 21
-139.7499999999996021
 31
0.0
  0
LINE
  5
120
100
AcDbEntity
100
AcDbLine
  8
06 - Drive Rib
 62
256
370
-1
  6
ByLayer
 10
342.3999999999999773
 20
-139.7499999999996021
 30
0.0
 11
342.3999999999999773
 21
-145.749999999999801
 31
0.0
  0
LINE
  5
121
100
AcDbEntity
100
AcDbLine
  8
06 - Drive Rib
 62
256
370
-1
  6
ByLayer
 10
342.3999999999999773
 20
-145.749999999999801
 30
0.0
 11
341.6000000000000227
 21
-145.7499999999997442
 31
0.0
  0
LINE
  5
122
100
AcDbEntity
100
AcDbLine
  8
06 - Drive Rib
 62
256
370
-1
  6
ByLayer
 10
343.6000000000000227
 20
-145.7499999999998295
 30
0.0
 11
343.6000000000000227
 21
-139.7499999999997442
 31
0.0
  0
LINE
  5
123
100
AcDbEntity
100
AcDbLine
  8
06 - Drive Rib
 62
256
370
-1
  6
ByLayer
 10
343.6000000000000227
 20
-139.7499999999997442
 30
0.0
 11
344.3999999999999773
 21
-139.749999999999801
 31
0.0
  0
LINE
  5
124
100
AcDbEntity
100
AcDbLine
  8
06 - Drive Rib
 62
256
370
-1
  6
ByLayer
 10
344.3999999999999773
 20
-139.749999999999801
 30
0.0
 11
344.3999999999999773
 21
-145.7499999999997442
 31
0.0
  0
LINE
  5
125
100
AcDbEntity
100
AcDbLine
  8
06 - Drive Rib
 62
256
370
-1
  6
ByLayer
 10
344.3999999999999773
 20
-145.7499999999997442
 30
0.0
 11
343.6000000000000227
 21
-145.7499999999998295
 31
0.0
  0
LINE
  5
126
100
AcDbEntity
100
AcDbLine
  8
06 - Drive Rib
 62
256
370
-1
  6
ByLayer
 10
345.6000000000000227
 20
-145.7499999999998295
 30
0.0
 11
345.6000000000000227
 21
-139.7499999999996874
 31
0.0
  0
LINE
  5
127
100
AcDbEntity
100
AcDbLine
  8
06 - Drive Rib
 62
256
370
-1
  6
ByLayer
 10
345.6000000000000227
 20
-139.7499999999996874
 30
0.0
 11
346.3999999999999773
 21
-139.7499999999996589
 31
0.0
  0
LINE
  5
128
100
AcDbEntity
100
AcDbLine
  8
06 - Drive Rib
 62
256
370
-1
  6
ByLayer
 10
346.3999999999999773
 20
-139.7499999999996589
 30
0.0
 11
346.3999999999999773
 21
-145.7499999999997726
 31
0.0
  0
LINE
  5
129
100
AcDbEntity
100
AcDbLine
  8
06 - Drive Rib
 62
256
370
-1
  6
ByLayer
 10
346.3999999999999773
 20
-145.7499999999997726
 30
0.0
 11
345.6000000000000227
 21
-145.7499999999998295
 31
0.0
  0
LINE
  5
12A
100
AcDbEntity
100
AcDbLine
  8
06 - Drive Rib
 62
256
370
-1
  6
ByLayer
 10
347.6000000000000227
 20
-145.7499999999998863
 30
0.0
 11
347.6000000000000227
 21
-139.7499999999996589
 31
0.0
  0
LINE
  5
12B
100
AcDbEntity
100
AcDbLine
  8
06 - Drive Rib
 62
256
370
-1
  6
ByLayer
 10
347.6000000000000227
 20
-139.7499999999996589
 30
0.0
 11
348.3999999999999773
 21
-139.7499999999997158
 31
0.0
  0
LINE
  5
12C
100
AcDbEntity
100
AcDbLine
  8
06 - Drive Rib
 62
256
370
-1
  6
ByLayer
 10
348.3999999999999773
 20
-139.7499999999997158
 30
0.0
 11
348.3999999999999773
 21
-145.7499999999999716
 31
0.0
  0
LINE
  5
12D
100
AcDbEntity
100
AcDbLine
  8
06 - Drive Rib
 62
256
370
-1
  6
ByLayer
 10
348.3999999999999773
 20
-145.7499999999999716
 30
0.0
 11
347.6000000000000227
 21
-145.7499999999998863
 31
0.0
  0
LINE
  5
12E
100
AcDbEntity
100
AcDbLine
  8
06 - Drive Rib
 62
256
370
-1
  6
ByLayer
 10
349.6000000000000227
 20
-145.749999999999801
 30
0.0
 11
349.6000000000000227
 21
-139.7499999999996021
 31
0.0
  0
LINE
  5
12F
100
AcDbEntity
100
AcDbLine
  8
06 - Drive Rib
 62
256
370
-1
  6
ByLayer
 10
349.6000000000000227
 20
-139.7499999999996021
 30
0.0
 11
350.3999999999999773
 21
-139.7499999999995453
 31
0.0
  0
LINE
  5
130
100
AcDbEntity
100
AcDbLine
  8
06 - Drive Rib
 62
256
370
-1
  6
ByLayer
 10
350.3999999999999773
 20
-139.7499999999995453
 30
0.0
 11
350.3999999999999773
 21
-145.7499999999996021
 31
0.0
  0
LINE
  5
131
100
AcDbEntity
100
AcDbLine
  8
06 - Drive Rib
 62
256
370
-1
  6
ByLayer
 10
350.3999999999999773
 20
-145.7499999999996021
 30
0.0
 11
349.6000000000000227
 21
-145.749999999999801
 31
0.0
  0
LINE
  5
132
100
AcDbEntity
100
AcDbLine
  8
06 - Drive Rib
 62
256
370
-1
  6
ByLayer
 10
351.6000000000000227
 20
-145.7499999999998579
 30
0.0
 11
351.6000000000000227
 21
-139.7499999999997726
 31
0.0
  0
LINE
  5
133
100
AcDbEntity
100
AcDbLine
  8
06 - Drive Rib
 62
256
370
-1
  6
ByLayer
 10
351.6000000000000227
 20
-139.7499999999997726
 30
0.0
 11
352.3999999999999773
 21
-139.7499999999996021
 31
0.0
  0
LINE
  5
134
100
AcDbEntity
100
AcDbLine
  8
06 - Drive Rib
 62
256
370
-1
  6
ByLayer
 10
352.3999999999999773
 20
-139.7499999999996021
 30
0.0
 11
352.3999999999999773
 21
-145.7499999999996305
 31
0.0
  0
LINE
  5
135
100
AcDbEntity
100
AcDbLine
  8
06 - Drive Rib
 62
256
370
-1
  6
ByLayer
 10
352.3999999999999773
 20
-145.7499999999996305
 30
0.0
 11
351.6000000000000227
 21
-145.7499999999998579
 31
0.0
  0
INSERT
  5
136
100
AcDbEntity
100
AcDbBlockReference
  8
06 - Drive Rib
 62
256
370
-1
  6
ByLayer
  2
tgrips
 10
340.0
 20
-118.7499999999996874
 30
0.0
 44
1.0
 45
1.0
  0
INSERT
  5
137
100
AcDbEntity
100
AcDbBlockReference
  8
07 - Left End Cap
 62
256
370
-1
  6
ByLayer
  2
tcutout
 10
-277.7000000000000455
 20
-118.7499999999996874
 30
0.0
 41
1.0
 42
-1.0
 43
1.0
 50
180.0
 44
1.0
 45
1.0
  0
INSERT
  5
138
100
AcDbEntity
100
AcDbBlockReference
  8
07 - Left End Cap
 62
256
370
-1
  6
ByLayer
  2
tcutout
 10
-247.6999999999998749
 20
-138.2499999999997726
 30
0.0
 41
1.0
 42
-1.0
 43
1.0
 50
90.0
 44
1.0
 45
1.0
  0
INSERT
  5
139
100
AcDbEntity
100
AcDbBlockReference
  8
07 - Left End Cap
 62
256
370
-1
  6
ByLayer
  2
tcutout
 10
-307.7000000000001592
 20
-138.2499999999998295
 30
0.0
 41
1.0
 42
-1.0
 43
1.0
 50
270.0
 44
1.0
 45
1.0
  0
INSERT
  5
13A
100
AcDbEntity
100
AcDbBlockReference
  8
09 - Right End Cap
 62
256
370
-1
  6
ByLayer
  2
tcutout
 10
222.2999999999999545
 20
-118.7499999999997158
 30
0.0
 44
1.0
 45
1.0
  0
INSERT
  5
13B
100
AcDbEntity
100
AcDbBlockReference
  8
09 - Right End Cap
 62
256
370
-1
  6
ByLayer
  2
tcutout
 10
192.299999999999784
 20
-138.2499999999997158
 30
0.0
 50
90.0
 44
1.0
 45
1.0
  0
INSERT
  5
13C
100
AcDbEntity
100
AcDbBlockReference
  8
09 - Right End Cap
 62
256
370
-1
  6
ByLayer
  2
tcutout
 10
252.3000000000000114
 20
-138.249999999999801
 30
0.0
 50
270.0
 44
1.0
 45
1.0
  0
ARC
  5
13D
100
AcDbEntity
  8
09 - Right End Cap
 62
256
370
-1
  6
ByLayer
100
AcDbCircle
 10
197.799999999999784
 20
-124.2500000000000284
 30
0.0
 40
3.0
100
AcDbArc
 50
90.0000000000010942
 51
180.0
  0
LINE
  5
13E
100
AcDbEntity
100
AcDbLine
  8
09 - Right End Cap
 62
256
370
-1
  6
ByLayer
 10
197.7999999999997272
 20
-121.2500000000000284
 30
0.0
 11
246.8000000000000114
 21
-121.2500000000000568
 31
0.0
  0
ARC
  5
13F
100
AcDbEntity
  8
09 - Right End Cap
 62
256
370
-1
  6
ByLayer
100
AcDbCircle
 10
246.8000000000000114
 20
-124.2500000000000568
 30
0.0
 40
3.0
100
AcDbArc
 50
0.0
 51
90.0
  0
INSERT
  5
140
100
AcDbEntity
100
AcDbBlockReference
  8
08 - Left End Top Cap
 62
256
370
-1
  6
ByLayer
  2
tcutout
 10
-277.6999999999996476
 20
-32.5000000000002558
 30
0.0
 41
1.0
 42
-1.0
 43
1.0
 44
1.0
 45
1.0
  0
INSERT
  5
141
100
AcDbEntity
100
AcDbBlockReference
  8
08 - Left End Top Cap
 62
256
370
-1
  6
ByLayer
  2
tcutout
 10
-307.7000000000001592
 20
-17.5000000000002558
 30
0.0
 50
90.0
 44
1.0
 45
1.0
  0
INSERT
  5
142
100
AcDbEntity
100
AcDbBlockReference
  8
08 - Left End Top Cap
 62
256
370
-1
  6
ByLayer
  2
tcutout
 10
-247.6999999999998181
 20
-17.5000000000001208
 30
0.0
 50
-90.0
 44
1.0
 45
1.0
  0
MTEXT
  5
143
100
AcDbEntity
100
AcDbMText
  8
Text
 62
256
370
-1
  6
ByLayer
 10
0.0000000000000284
 20
0.0
 30
0.0
 40
5.0
 41
100.0
 71
5
 72
2
  1
Top
  7
standard
 50
0.0
 73
0
 44
1.0
  0
MTEXT
  5
144
100
AcDbEntity
100
AcDbMText
  8
Text
 62
256
370
-1
  6
ByLayer
 10
0.0
 20
-217.4999999999999716
 30
0.0
 40
5.0
 41
100.0
 71
5
 72
2
  1
Bottom
  7
standard
 50
0.0
 73
0
 44
1.0
  0
MTEXT
  5
145
100
AcDbEntity
100
AcDbMText
  8
Text
 62
256
370
-1
  6
ByLayer
 10
222.2999999999998124
 20
-107.2163522939270308
 30
0.0
 40
5.0
 41
100.0
 71
5
 72
2
  1
Right
  7
standard
 50
0.0
 73
0
 44
1.0
  0
LINE
  5
146
100
AcDbEntity
100
AcDbLine
  8
Drawings
 62
256
370
-1
  6
ByLayer
 10
259.7999999999996703
 20
-32.4999999999999716
 30
0.0
 11
184.799999999999784
 21
-32.500000000000469
 31
0.0
  0
LINE
  5
147
100
AcDbEntity
100
AcDbLine
  8
Drawings
 62
256
370
-1
  6
ByLayer
 10
259.7999999999995566
 20
-17.4999999999999716
 30
0.0
 11
184.799999999999784
 21
-17.5000000000004547
 31
0.0
  0
LINE
  5
148
100
AcDbEntity
100
AcDbLine
  8
Drawings
 62
256
370
-1
  6
ByLayer
 10
213.4499999999999318
 20
-156.2499999999996589
 30
0.0
 11
213.449999999998937
 21
-2.50000000000027
 31
0.0
  0
INSERT
  5
149
100
AcDbEntity
100
AcDbBlockReference
  8
10 - Right End Top Cap
 62
256
370
-1
  6
ByLayer
  2
tcutout
 10
222.2999999999996703
 20
-32.5000000000002132
 30
0.0
 41
1.0
 42
-1.0
 43
1.0
 44
1.0
 45
1.0
  0
INSERT
  5
14A
100
AcDbEntity
100
AcDbBlockReference
  8
10 - Right End Top Cap
 62
256
370
-1
  6
ByLayer
  2
tcutout
 10
252.2999999999992724
 20
-17.4999999999999716
 30
0.0
 41
1.0
 42
-1.0
 43
1.0
 50
90.0000000000003411
 44
1.0
 45
1.0
  0
INSERT
  5
14B
100
AcDbEntity
100
AcDbBlockReference
  8
10 - Right End Top Cap
 62
256
370
-1
  6
ByLayer
  2
tcutout
 10
192.299999999999045
 20
-17.5000000000004405
 30
0.0
 41
1.0
 42
-1.0
 43
1.0
 50
270.0000000000003411
 44
1.0
 45
1.0
  0
MTEXT
  5
14C
100
AcDbEntity
100
AcDbMText
  8
Text
 62
256
370
-1
  6
ByLayer
 10
234.5755291784830945
 20
-17.5000000000001279
 30
0.0
 40
5.0
 41
100.0
 71
5
 72
2
  1
Right
  7
standard
 50
360.0
 73
0
 44
1.0
  0
MTEXT
  5
14D
100
AcDbEntity
100
AcDbMText
  8
Text
 62
256
370
-1
  6
ByLayer
 10
-277.5280451248666509
 20
-17.4799898240798548
 30
0.0
 40
5.0
 41
100.0
 71
5
 72
2
  1
Left
  7
standard
 50
0.0
 73
0
 44
1.0
  0
LINE
  5
14E
100
AcDbEntity
100
AcDbLine
  8
Drawings - Y Travel
 62
256
370
-1
  6
ByLayer
 10
-205.7000000000000455
 20
-137.462499999999693
 30
0.0
 11
129.9999999999999432
 21
-137.462499999999693
 31
0.0
  0
LINE
  5
14F
100
AcDbEntity
100
AcDbLine
  8
Drawings
 62
256
370
-1
  6
ByLayer
 10
-0.0000000000000016
 20
-156.25
 30
0.0
 11
0.0000000000000011
 21
-111.2499999999999289
 31
0.0
  0
ARC
  5
150
100
AcDbEntity
  8
08 - Left End Top Cap
 62
256
370
-1
  6
ByLayer
100
AcDbCircle
 10
-312.7000000000001592
 20
-37.500000000000199
 30
0.0
 40
2.5
100
AcDbArc
 50
180.0
 51
270.0
  0
LINE
  5
151
100
AcDbEntity
100
AcDbLine
  8
08 - Left End Top Cap
 62
256
370
-1
  6
ByLayer
 10
-315.2000000000001592
 20
-37.5000000000001847
 30
0.0
 11
-315.2000000000001592
 21
-2.5000000000002487
 31
0.0
  0
ARC
  5
152
100
AcDbEntity
  8
08 - Left End Top Cap
 62
256
370
-1
  6
ByLayer
100
AcDbCircle
 10
-312.7000000000001592
 20
-2.5000000000002496
 30
0.0
 40
2.5
100
AcDbArc
 50
90.0
 51
180.0
  0
LINE
  5
153
100
AcDbEntity
100
AcDbLine
  8
08 - Left End Top Cap
 62
256
370
-1
  6
ByLayer
 10
-242.6999999999998181
 20
-0.0000000000001662
 30
0.0
 11
-312.7000000000001592
 21
-0.000000000000245
 31
0.0
  0
ARC
  5
154
100
AcDbEntity
  8
08 - Left End Top Cap
 62
256
370
-1
  6
ByLayer
100
AcDbCircle
 10
-242.6999999999998181
 20
-2.5000000000001661
 30
0.0
 40
2.5
100
AcDbArc
 50
360.0
 51
90.0
  0
LINE
  5
155
100
AcDbEntity
100
AcDbLine
  8
08 - Left End Top Cap
 62
256
370
-1
  6
ByLayer
 10
-240.1999999999998181
 20
-37.5000000000001421
 30
0.0
 11
-240.1999999999998181
 21
-2.5000000000001705
 31
0.0
  0
LINE
  5
156
100
AcDbEntity
100
AcDbLine
  8
08 - Left End Top Cap
 62
256
370
-1
  6
ByLayer
 10
-242.6999999999998181
 20
-40.0000000000001563
 30
0.0
 11
-312.7000000000001592
 21
-40.000000000000199
 31
0.0
  0
ARC
  5
157
100
AcDbEntity
  8
08 - Left End Top Cap
 62
256
370
-1
  6
ByLayer
100
AcDbCircle
 10
-242.6999999999998181
 20
-37.5000000000001563
 30
0.0
 40
2.5
100
AcDbArc
 50
270.0
 51
0.0
  0
ARC
  5
158
100
AcDbEntity
  8
10 - Right End Top Cap
 62
256
370
-1
  6
ByLayer
100
AcDbCircle
 10
257.3000000000000114
 20
-2.4999999999999347
 30
0.0
 40
2.5
100
AcDbArc
 50
360.0
 51
90.0
  0
LINE
  5
159
100
AcDbEntity
100
AcDbLine
  8
10 - Right End Top Cap
 62
256
370
-1
  6
ByLayer
 10
259.8000000000000114
 20
-37.5
 30
0.0
 11
259.8000000000000114
 21
-2.4999999999999432
 31
0.0
  0
ARC
  5
15A
100
AcDbEntity
  8
10 - Right End Top Cap
 62
256
370
-1
  6
ByLayer
100
AcDbCircle
 10
257.3000000000000114
 20
-37.5
 30
0.0
 40
2.5
100
AcDbArc
 50
270.0
 51
0.0
  0
LINE
  5
15B
100
AcDbEntity
100
AcDbLine
  8
10 - Right End Top Cap
 62
256
370
-1
  6
ByLayer
 10
257.3000000000000114
 20
-39.9999999999999858
 30
0.0
 11
187.299999999999784
 21
-40.0000000000004547
 31
0.0
  0
ARC
  5
15C
100
AcDbEntity
  8
10 - Right End Top Cap
 62
256
370
-1
  6
ByLayer
100
AcDbCircle
 10
187.299999999999784
 20
-37.5000000000004547
 30
0.0
 40
2.5
100
AcDbArc
 50
180.0
 51
270.0
  0
LINE
  5
15D
100
AcDbEntity
100
AcDbLine
  8
10 - Right End Top Cap
 62
256
370
-1
  6
ByLayer
 10
184.799999999999784
 20
-37.5000000000004547
 30
0.0
 11
184.799999999999784
 21
-2.5000000000004619
 31
0.0
  0
LINE
  5
15E
100
AcDbEntity
100
AcDbLine
  8
10 - Right End Top Cap
 62
256
370
-1
  6
ByLayer
 10
257.3000000000000114
 20
0.0000000000000652
 30
0.0
 11
187.299999999999784
 21
-0.0000000000004631
 31
0.0
  0
ARC
  5
15F
100
AcDbEntity
  8
10 - Right End Top Cap
 62
256
370
-1
  6
ByLayer
100
AcDbCircle
 10
187.299999999999784
 20
-2.500000000000461
 30
0.0
 40
2.5
100
AcDbArc
 50
90.0
 51
180.0
  0
LINE
  5
160
100
AcDbEntity
100
AcDbLine
  8
Drawings
 62
256
370
-1
  6
ByLayer
 10
-69.0250000000000625
 20
-261.5
 30
0.0
 11
-69.0250000000000625
 21
-161.5
 31
0.0
  0
INSERT
  5
161
100
AcDbEntity
100
AcDbBlockReference
  8
02 - Back
 62
256
370
-1
  6
ByLayer
  2
tcutout
 10
99.9999999999999574
 20
118.7499999999999147
 30
0.0
 50
180.0
 44
1.0
 45
1.0
  0
INSERT
  5
162
100
AcDbEntity
100
AcDbBlockReference
  8
02 - Back
 62
256
370
-1
  6
ByLayer
  2
tcutout
 10
-69.9999999999999858
 20
118.7499999999998295
 30
0.0
 50
180.0
 44
1.0
 45
1.0
  0
INSERT
  5
163
100
AcDbEntity
100
AcDbBlockReference
  8
03 - Top
 62
256
370
-1
  6
ByLayer
  2
tgrips-5
 10
-187.7000000000000455
 20
-119.0499999999999829
 30
0.0
 44
1.0
 45
1.0
  0
LINE
  5
164
100
AcDbEntity
100
AcDbLine
  8
Drawings
 62
256
370
-1
  6
ByLayer
 10
222.2999999999997272
 20
-86.750000000000199
 30
0.0
 11
222.3000000000000114
 21
-156.2499999999996589
 31
0.0
  0
ARC
  5
165
100
AcDbEntity
  8
09 - Right End Cap
 62
256
370
-1
  6
ByLayer
100
AcDbCircle
 10
-302.1999999999997613
 20
-124.2499999999999147
 30
0.0
 40
3.0
100
AcDbArc
 50
90.0000000000010942
 51
180.0
  0
LINE
  5
166
100
AcDbEntity
100
AcDbLine
  8
09 - Right End Cap
 62
256
370
-1
  6
ByLayer
 10
-302.1999999999998181
 20
-121.2499999999999147
 30
0.0
 11
-253.1999999999995339
 21
-121.2499999999999432
 31
0.0
  0
ARC
  5
167
100
AcDbEntity
  8
09 - Right End Cap
 62
256
370
-1
  6
ByLayer
100
AcDbCircle
 10
-253.1999999999995339
 20
-124.2499999999999432
 30
0.0
 40
3.0
100
AcDbArc
 50
0.0
 51
90.0
  0
LINE
  5
168
100
AcDbEntity
100
AcDbLine
  8
09 - Right End Cap
 62
256
370
-1
  6
ByLayer
 10
-250.1999999999995339
 20
-143.2499999999997442
 30
0.0
 11
-250.1999999999995339
 21
-124.2499999999999432
 31
0.0
  0
ARC
  5
169
100
AcDbEntity
  8
09 - Right End Cap
 62
256
370
-1
  6
ByLayer
100
AcDbCircle
 10
-253.1999999999995339
 20
-143.2499999999997442
 30
0.0
 40
3.0
100
AcDbArc
 50
270.0000000000005116
 51
0.0
  0
LINE
  5
16A
100
AcDbEntity
100
AcDbLine
  8
09 - Right End Cap
 62
256
370
-1
  6
ByLayer
 10
-302.1999999999997044
 20
-146.2499999999997442
 30
0.0
 11
-253.199999999999477
 21
-146.2499999999997442
 31
0.0
  0
LINE
  5
16B
100
AcDbEntity
100
AcDbLine
  8
09 - Right End Cap
 62
256
370
-1
  6
ByLayer
 10
-305.1999999999997613
 20
-143.2499999999997442
 30
0.0
 11
-305.1999999999997613
 21
-124.2499999999999147
 31
0.0
  0
ARC
  5
16C
100
AcDbEntity
  8
09 - Right End Cap
 62
256
370
-1
  6
ByLayer
100
AcDbCircle
 10
-302.1999999999997613
 20
-143.2499999999997442
 30
0.0
 40
3.0
100
AcDbArc
 50
180.0
 51
270.00000000000108
  0
MTEXT
  5
16D
100
AcDbEntity
100
AcDbMText
  8
Text
 62
256
370
-1
  6
ByLayer
 10
-278.1747514620311676
 20
-151.75
 30
0.0
 40
5.0
 41
100.0
 71
5
 72
2
  1
Left
  7
standard
 50
0.0
 73
0
 44
1.0
  0
LINE
  5
16E
100
AcDbEntity
100
AcDbLine
  8
Drawings
 62
256
370
-1
  6
ByLayer
 10
125.0
 20
34.5
 30
0.0
 11
125.0
 21
30.0
 31
0.0
  0
LINE
  5
16F
100
AcDbEntity
100
AcDbLine
  8
Drawings
 62
256
370
-1
  6
ByLayer
 10
125.0
 20
37.5
 30
0.0
 11
125.0
 21
-37.4999999999999858
 31
0.0
  0
LINE
  5
170
100
AcDbEntity
100
AcDbLine
  8
Drawings
 62
256
370
-1
  6
ByLayer
 10
-130.0
 20
34.5
 30
0.0
 11
125.0
 21
34.5
 31
0.0
  0
LINE
  5
171
100
AcDbEntity
100
AcDbLine
  8
03 - Top
 62
256
370
-1
  6
ByLayer
 10
125.0
 20
30.0
 30
0.0
 11
125.0
 21
15.0
 31
0.0
  0
LINE
  5
172
100
AcDbEntity
100
AcDbLine
  8
03 - Top
 62
256
370
-1
  6
ByLayer
 10
125.0
 20
-15.0
 30
0.0
 11
125.0
 21
-30.0
 31
0.0
  0
LINE
  5
173
100
AcDbEntity
100
AcDbLine
  8
03 - Top
 62
256
370
-1
  6
ByLayer
 10
114.9999999999999858
 20
30.0
 30
0.0
 11
125.0
 21
30.0
 31
0.0
  0
LINE
  5
174
100
AcDbEntity
100
AcDbLine
  8
03 - Top
 62
256
370
-1
  6
ByLayer
 10
114.9999999999999858
 20
-30.0
 30
0.0
 11
125.0
 21
-30.0
 31
0.0
  0
LINE
  5
175
100
AcDbEntity
100
AcDbLine
  8
Drawings
 62
256
370
-1
  6
ByLayer
 10
131.0
 20
37.5
 30
0.0
 11
131.0
 21
-37.4999999999999929
 31
0.0
  0
LINE
  5
176
100
AcDbEntity
100
AcDbLine
  8
Drawings
 62
256
370
-1
  6
ByLayer
 10
125.0
 20
37.5
 30
0.0
 11
131.0
 21
37.5
 31
0.0
  0
LINE
  5
177
100
AcDbEntity
100
AcDbLine
  8
Drawings
 62
256
370
-1
  6
ByLayer
 10
125.0
 20
-37.4999999999999858
 30
0.0
 11
131.0
 21
-37.4999999999999929
 31
0.0
  0
LINE
  5
178
100
AcDbEntity
100
AcDbLine
  8
Drawings
 62
256
370
-1
  6
ByLayer
 10
104.9999999999999858
 20
-8.8500000000000014
 30
0.0
 11
131.5
 21
-8.8500000000000014
 31
0.0
  0
LINE
  5
179
100
AcDbEntity
100
AcDbLine
  8
Drawings
 62
256
370
-1
  6
ByLayer
 10
131.0
 20
-29.5000000000000142
 30
0.0
 11
134.0
 21
-29.5000000000000142
 31
0.0
  0
LINE
  5
17A
100
AcDbEntity
100
AcDbLine
  8
Drawings
 62
256
370
-1
  6
ByLayer
 10
131.0
 20
-35.0000000000000142
 30
0.0
 11
134.0
 21
-35.0000000000000142
 31
0.0
  0
LINE
  5
17B
100
AcDbEntity
100
AcDbLine
  8
Drawings
 62
256
370
-1
  6
ByLayer
 10
131.0
 20
-29.5000000000000142
 30
0.0
 11
131.0
 21
-35.0000000000000142
 31
0.0
  0
LINE
  5
17C
100
AcDbEntity
100
AcDbLine
  8
Drawings
 62
256
370
-1
  6
ByLayer
 10
131.0
 20
35.0000000000002132
 30
0.0
 11
134.0
 21
35.0000000000002132
 31
0.0
  0
LINE
  5
17D
100
AcDbEntity
100
AcDbLine
  8
Drawings
 62
256
370
-1
  6
ByLayer
 10
131.0
 20
29.5000000000002132
 30
0.0
 11
134.0
 21
29.5000000000002132
 31
0.0
  0
LINE
  5
17E
100
AcDbEntity
100
AcDbLine
  8
Drawings
 62
256
370
-1
  6
ByLayer
 10
131.0
 20
35.0000000000002132
 30
0.0
 11
131.0
 21
29.5000000000002132
 31
0.0
  0
LINE
  5
17F
100
AcDbEntity
100
AcDbLine
  8
Drawings
 62
256
370
-1
  6
ByLayer
 10
134.0
 20
35.0000000000002132
 30
0.0
 11
134.0
 21
29.5000000000002132
 31
0.0
  0
LINE
  5
180
100
AcDbEntity
100
AcDbLine
  8
Drawings
 62
256
370
-1
  6
ByLayer
 10
134.0
 20
-29.5000000000000142
 30
0.0
 11
134.0
 21
-35.0000000000000142
 31
0.0
  0
LINE
  5
181
100
AcDbEntity
100
AcDbLine
  8
Drawings
 62
256
370
-1
  6
ByLayer
 10
131.0
 20
2.7499999999999858
 30
0.0
 11
134.0
 21
2.7499999999999858
 31
0.0
  0
LINE
  5
182
100
AcDbEntity
100
AcDbLine
  8
Drawings
 62
256
370
-1
  6
ByLayer
 10
131.0
 20
-2.7500000000000142
 30
0.0
 11
134.0
 21
-2.7500000000000142
 31
0.0
  0
LINE
  5
183
100
AcDbEntity
100
AcDbLine
  8
Drawings
 62
256
370
-1
  6
ByLayer
 10
131.0
 20
2.7499999999999858
 30
0.0
 11
131.0
 21
-2.7500000000000142
 31
0.0
  0
LINE
  5
184
100
AcDbEntity
100
AcDbLine
  8
Drawings
 62
256
370
-1
  6
ByLayer
 10
134.0
 20
2.7499999999999858
 30
0.0
 11
134.0
 21
-2.7500000000000142
 31
0.0
  0
LINE
  5
185
100
AcDbEntity
100
AcDbLine
  8
Drawings
 62
256
370
-1
  6
ByLayer
 10
-130.0
 20
-32.2500000000000142
 30
0.0
 11
131.0
 21
-32.2500000000000142
 31
0.0
  0
LINE
  5
186
100
AcDbEntity
100
AcDbLine
  8
Drawings
 62
256
370
-1
  6
ByLayer
 10
-130.0
 20
32.2500000000002132
 30
0.0
 11
131.0
 21
32.2500000000002132
 31
0.0
  0
LINE
  5
187
100
AcDbEntity
100
AcDbLine
  8
Drawings
 62
256
370
-1
  6
ByLayer
 10
136.9999999999999432
 20
-29.9999999999999538
 30
0.0
 11
130.9999999999999432
 21
-30.0000000000000036
 31
0.0
  0
LINE
  5
188
100
AcDbEntity
100
AcDbLine
  8
Drawings
 62
256
370
-1
  6
ByLayer
 10
136.9999999999999432
 20
-9.9999999999999574
 30
0.0
 11
130.9999999999999716
 21
-9.9999999999999574
 31
0.0
  0
LINE
  5
189
100
AcDbEntity
100
AcDbLine
  8
Drawings
 62
256
370
-1
  6
ByLayer
 10
136.9999999999999432
 20
-9.9999999999999574
 30
0.0
 11
136.9999999999999432
 21
-29.9999999999999538
 31
0.0
  0
LINE
  5
18A
100
AcDbEntity
100
AcDbLine
  8
Drawings
 62
256
370
-1
  6
ByLayer
 10
140.0
 20
-17.2499999999999396
 30
0.0
 11
136.9999999999999432
 21
-17.2500000000000533
 31
0.0
  0
LINE
  5
18B
100
AcDbEntity
100
AcDbLine
  8
Drawings
 62
256
370
-1
  6
ByLayer
 10
140.0
 20
-22.7500000000000036
 30
0.0
 11
136.9999999999999716
 21
-22.7499999999999254
 31
0.0
  0
LINE
  5
18C
100
AcDbEntity
100
AcDbLine
  8
Drawings
 62
256
370
-1
  6
ByLayer
 10
140.0
 20
-17.2499999999999396
 30
0.0
 11
140.0
 21
-22.7500000000000036
 31
0.0
  0
LINE
  5
18D
100
AcDbEntity
100
AcDbLine
  8
Drawings
 62
256
370
-1
  6
ByLayer
 10
136.9999999999999432
 20
-17.2500000000000533
 30
0.0
 11
136.9999999999999716
 21
-22.7499999999999254
 31
0.0
  0
LINE
  5
18E
100
AcDbEntity
100
AcDbLine
  8
Drawings
 62
256
370
-1
  6
ByLayer
 10
131.0
 20
0.0
 30
0.0
 11
-135.9999999999999432
 21
-0.0000000000000071
 31
0.0
  0
INSERT
  5
18F
100
AcDbEntity
100
AcDbBlockReference
  8
03 - Top
 62
256
370
-1
  6
ByLayer
  2
tgrips
 10
125.0
 20
0.0
 30
0.0
 50
-90.0
 44
1.0
 45
1.0
  0
ARC
  5
190
100
AcDbEntity
  8
02 - Back
 62
256
370
-1
  6
ByLayer
100
AcDbCircle
 10
92.4999999999999858
 20
108.7499999999998295
 30
0.0
 40
2.5
100
AcDbArc
 50
0.0
 51
90.0
  0
INSERT
  5
191
100
AcDbEntity
100
AcDbBlockReference
  8
02 - Back
 62
256
370
-1
  6
ByLayer
  2
tgrips
 10
124.9999999999999716
 20
138.2500000000002842
 30
0.0
 50
270.0
 44
1.0
 45
1.0
  0
INSERT
  5
192
100
AcDbEntity
100
AcDbBlockReference
  8
01 - Front
 62
256
370
-1
  6
ByLayer
  2
tgrips
 10
124.9999999999999432
 20
-138.2500000000001705
 30
0.0
 41
1.0
 42
-1.0
 43
1.0
 50
90.0000000000000142
 44
1.0
 45
1.0
  0
ARC
  5
193
100
AcDbEntity
  8
01 - Front
 62
256
370
-1
  6
ByLayer
100
AcDbCircle
 10
92.4999999999999858
 20
-108.7499999999999432
 30
0.0
 40
2.5
100
AcDbArc
 50
270.0
 51
0.0
  0
INSERT
  5
194
100
AcDbEntity
100
AcDbBlockReference
  8
04 - Bottom
 62
256
370
-1
  6
ByLayer
  2
tgrips
 10
125.0
 20
-217.4999999999999432
 30
0.0
 50
-90.0
 44
1.0
 45
1.0
  0
LINE
  5
195
100
AcDbEntity
100
AcDbLine
  8
04 - Bottom
 62
256
370
-1
  6
ByLayer
 10
125.0
 20
-187.4999999999998579
 30
0.0
 11
125.0
 21
-202.4999999999999432
 31
0.0
  0
LINE
  5
196
100
AcDbEntity
100
AcDbLine
  8
04 - Bottom
 62
256
370
-1
  6
ByLayer
 10
125.0
 20
-232.4999999999999432
 30
0.0
 11
125.0000000000001137
 21
-247.4999999999998863
 31
0.0
  0
LINE
  5
197
100
AcDbEntity
100
AcDbLine
  8
04 - Bottom
 62
256
370
-1
  6
ByLayer
 10
114.9999999999999858
 20
-187.5000000000001705
 30
0.0
 11
125.0
 21
-187.4999999999999716
 31
0.0
  0
LINE
  5
198
100
AcDbEntity
100
AcDbLine
  8
04 - Bottom
 62
256
370
-1
  6
ByLayer
 10
114.9999999999999858
 20
-247.5000000000000568
 30
0.0
 11
125.0000000000001137
 21
-247.4999999999999432
 31
0.0
  0
CIRCLE
  5
199
100
AcDbEntity
100
AcDbCircle
  8
Drawings - Pulleys
 62
256
370
-1
  6
ByLayer
 10
-103.8500000000000369
 20
-8.8500000000000014
 30
0.0
 40
4.7999999999999998
  0
CIRCLE
  5
19A
100
AcDbEntity
100
AcDbCircle
  8
Drawings - Pulleys
 62
256
370
-1
  6
ByLayer
 10
-103.8500000000000369
 20
-8.8500000000000085
 30
0.0
 40
7.0
  0
LINE
  5
19B
100
AcDbEntity
100
AcDbLine
  8
Drawings
 62
256
370
-1
  6
ByLayer
 10
-125.0
 20
37.4999999999997442
 30
0.0
 11
-125.0
 21
-37.5000000000000071
 31
0.0
  0
ARC
  5
19C
100
AcDbEntity
  8
Drawings - Belt
 62
256
370
-1
  6
ByLayer
100
AcDbCircle
 10
-103.8500000000000369
 20
-8.8499999999999996
 30
0.0
 40
4.7999999999999918
100
AcDbArc
 50
90.0
 51
270.0000000000002842
  0
LINE
  5
19D
100
AcDbEntity
100
AcDbLine
  8
Drawings
 62
256
370
-1
  6
ByLayer
 10
-101.1500000000000057
 20
-29.9999999999999964
 30
0.0
 11
-101.1500000000000057
 21
12.3000000000000007
 31
0.0
  0
LINE
  5
19E
100
AcDbEntity
100
AcDbLine
  8
Drawings
 62
256
370
-1
  6
ByLayer
 10
-122.2999999999999972
 20
-8.8499999999999943
 30
0.0
 11
-80.0
 21
-8.8499999999999979
 31
0.0
  0
LINE
  5
19F
100
AcDbEntity
100
AcDbLine
  8
Drawings
 62
256
370
-1
  6
ByLayer
 10
-122.2999999999999972
 20
12.3000000000000007
 30
0.0
 11
-80.0
 21
12.2999999999999972
 31
0.0
  0
LINE
  5
1A0
100
AcDbEntity
100
AcDbLine
  8
Drawings
 62
256
370
-1
  6
ByLayer
 10
-122.2999999999999972
 20
-29.9999999999999893
 30
0.0
 11
-80.0000000000000142
 21
-30.0000000000000036
 31
0.0
  0
LINE
  5
1A1
100
AcDbEntity
100
AcDbLine
  8
Drawings
 62
256
370
-1
  6
ByLayer
 10
-122.2999999999999972
 20
-29.9999999999999893
 30
0.0
 11
-122.2999999999999972
 21
12.3000000000000007
 31
0.0
  0
LINE
  5
1A2
100
AcDbEntity
100
AcDbLine
  8
Drawings
 62
256
370
-1
  6
ByLayer
 10
-80.0000000000000142
 20
-30.0000000000000036
 30
0.0
 11
-80.0
 21
12.2999999999999972
 31
0.0
  0
CIRCLE
  5
1A3
100
AcDbEntity
100
AcDbCircle
  8
Drawings
 62
256
370
-1
  6
ByLayer
 10
-101.1500000000000057
 20
-8.8499999999999979
 30
0.0
 40
11.0
  0
LINE
  5
1A4
100
AcDbEntity
100
AcDbLine
  8
Drawings
 62
256
370
-1
  6
ByLayer
 10
-103.8500000000000369
 20
-30.0000000000000036
 30
0.0
 11
-103.8500000000000369
 21
12.2999999999999936
 31
0.0
  0
LINE
  5
1A5
100
AcDbEntity
100
AcDbLine
  8
Drawings
 62
256
370
-1
  6
ByLayer
 10
-125.0000000000000568
 20
-8.8500000000000014
 30
0.0
 11
-82.7000000000000313
 21
-8.850000000000005
 31
0.0
  0
LINE
  5
1A6
100
AcDbEntity
100
AcDbLine
  8
Drawings
 62
256
370
-1
  6
ByLayer
 10
-125.0000000000000568
 20
12.2999999999999901
 30
0.0
 11
-82.7000000000000313
 21
12.2999999999999901
 31
0.0
  0
LINE
  5
1A7
100
AcDbEntity
100
AcDbLine
  8
Drawings
 62
256
370
-1
  6
ByLayer
 10
-125.0000000000000568
 20
-29.9999999999999929
 30
0.0
 11
-82.7000000000000455
 21
-30.0000000000000107
 31
0.0
  0
LINE
  5
1A8
100
AcDbEntity
100
AcDbLine
  8
Drawings
 62
256
370
-1
  6
ByLayer
 10
-125.0000000000000568
 20
-29.9999999999999929
 30
0.0
 11
-125.0
 21
12.2999999999999936
 31
0.0
  0
LINE
  5
1A9
100
AcDbEntity
100
AcDbLine
  8
Drawings
 62
256
370
-1
  6
ByLayer
 10
-82.7000000000000455
 20
-30.0000000000000107
 30
0.0
 11
-82.7000000000000313
 21
12.2999999999999901
 31
0.0
  0
CIRCLE
  5
1AA
100
AcDbEntity
100
AcDbCircle
  8
Drawings
 62
256
370
-1
  6
ByLayer
 10
-103.8500000000000369
 20
-8.850000000000005
 30
0.0
 40
11.0
  0
INSERT
  5
1AB
100
AcDbEntity
100
AcDbBlockReference
  8
03 - Top
 62
256
370
-1
  6
ByLayer
  2
tgrips
 10
-125.0
 20
0.0
 30
0.0
 50
90.0
 44
1.0
 45
1.0
  0
LINE
  5
1AC
100
AcDbEntity
100
AcDbLine
  8
03 - Top
 62
256
370
-1
  6
ByLayer
 10
-125.0
 20
-30.0
 30
0.0
 11
-125.0
 21
-15.0
 31
0.0
  0
LINE
  5
1AD
100
AcDbEntity
100
AcDbLine
  8
03 - Top
 62
256
370
-1
  6
ByLayer
 10
-125.0
 20
30.0
 30
0.0
 11
-125.0
 21
15.0
 31
0.0
  0
ARC
  5
1AE
100
AcDbEntity
  8
03 - Top
 62
256
370
-1
  6
ByLayer
100
AcDbCircle
 10
-88.3550000000000324
 20
-24.3450000000000131
 30
0.0
 40
1.5
100
AcDbArc
 50
90.0
 51
270.0
  0
ARC
  5
1AF
100
AcDbEntity
  8
03 - Top
 62
256
370
-1
  6
ByLayer
100
AcDbCircle
 10
-119.3450000000000415
 20
-24.3449999999999953
 30
0.0
 40
1.5
100
AcDbArc
 50
90.0
 51
270.0
  0
ARC
  5
1B0
100
AcDbEntity
  8
03 - Top
 62
256
370
-1
  6
ByLayer
100
AcDbCircle
 10
-119.3450000000000415
 20
6.6449999999999996
 30
0.0
 40
1.5
100
AcDbArc
 50
90.0
 51
270.0
  0
ARC
  5
1B1
100
AcDbEntity
  8
03 - Top
 62
256
370
-1
  6
ByLayer
100
AcDbCircle
 10
-88.3550000000000324
 20
6.6449999999999907
 30
0.0
 40
1.5
100
AcDbArc
 50
90.0
 51
270.0
  0
ARC
  5
1B2
100
AcDbEntity
  8
03 - Top
 62
256
370
-1
  6
ByLayer
100
AcDbCircle
 10
-78.3550000000000466
 20
-24.3450000000000095
 30
0.0
 40
1.5
100
AcDbArc
 50
270.0
 51
90.0
  0
ARC
  5
1B3
100
AcDbEntity
  8
03 - Top
 62
256
370
-1
  6
ByLayer
100
AcDbCircle
 10
-109.3450000000000415
 20
-24.3449999999999918
 30
0.0
 40
1.5
100
AcDbArc
 50
270.0
 51
90.0
  0
ARC
  5
1B4
100
AcDbEntity
  8
03 - Top
 62
256
370
-1
  6
ByLayer
100
AcDbCircle
 10
-109.3450000000000415
 20
6.644999999999996
 30
0.0
 40
1.5
100
AcDbArc
 50
270.0
 51
90.0
  0
ARC
  5
1B5
100
AcDbEntity
  8
03 - Top
 62
256
370
-1
  6
ByLayer
100
AcDbCircle
 10
-78.3550000000000466
 20
6.6449999999999942
 30
0.0
 40
1.5
100
AcDbArc
 50
270.0
 51
90.0
  0
LINE
  5
1B6
100
AcDbEntity
100
AcDbLine
  8
03 - Top
 62
256
370
-1
  6
ByLayer
 10
-119.3450000000000415
 20
8.1449999999999996
 30
0.0
 11
-109.3450000000000415
 21
8.144999999999996
 31
0.0
  0
LINE
  5
1B7
100
AcDbEntity
100
AcDbLine
  8
03 - Top
 62
256
370
-1
  6
ByLayer
 10
-109.3450000000000415
 20
5.144999999999996
 30
0.0
 11
-119.3450000000000415
 21
5.1449999999999996
 31
0.0
  0
LINE
  5
1B8
100
AcDbEntity
100
AcDbLine
  8
03 - Top
 62
256
370
-1
  6
ByLayer
 10
-88.3550000000000324
 20
8.1449999999999907
 30
0.0
 11
-78.3550000000000466
 21
8.1449999999999942
 31
0.0
  0
LINE
  5
1B9
100
AcDbEntity
100
AcDbLine
  8
03 - Top
 62
256
370
-1
  6
ByLayer
 10
-78.3550000000000466
 20
5.1449999999999942
 30
0.0
 11
-88.3550000000000324
 21
5.1449999999999907
 31
0.0
  0
LINE
  5
1BA
100
AcDbEntity
100
AcDbLine
  8
03 - Top
 62
256
370
-1
  6
ByLayer
 10
-88.3550000000000324
 20
-22.8450000000000131
 30
0.0
 11
-78.3550000000000466
 21
-22.8450000000000095
 31
0.0
  0
LINE
  5
1BB
100
AcDbEntity
100
AcDbLine
  8
03 - Top
 62
256
370
-1
  6
ByLayer
 10
-78.3550000000000466
 20
-25.8450000000000095
 30
0.0
 11
-88.3550000000000324
 21
-25.8450000000000131
 31
0.0
  0
LINE
  5
1BC
100
AcDbEntity
100
AcDbLine
  8
03 - Top
 62
256
370
-1
  6
ByLayer
 10
-109.3450000000000415
 20
-22.8449999999999918
 30
0.0
 11
-119.3450000000000415
 21
-22.8449999999999953
 31
0.0
  0
LINE
  5
1BD
100
AcDbEntity
100
AcDbLine
  8
03 - Top
 62
256
370
-1
  6
ByLayer
 10
-119.3450000000000415
 20
-25.8449999999999953
 30
0.0
 11
-109.3450000000000415
 21
-25.8449999999999918
 31
0.0
  0
LINE
  5
1BE
100
AcDbEntity
100
AcDbLine
  8
Drawings
 62
256
370
-1
  6
ByLayer
 10
-131.0
 20
37.4999999999997797
 30
0.0
 11
-131.0
 21
-37.5000000000000213
 31
0.0
  0
LINE
  5
1BF
100
AcDbEntity
100
AcDbLine
  8
Drawings
 62
256
370
-1
  6
ByLayer
 10
-131.0
 20
37.4999999999997797
 30
0.0
 11
-125.0
 21
37.4999999999997442
 31
0.0
  0
LINE
  5
1C0
100
AcDbEntity
100
AcDbLine
  8
Drawings
 62
256
370
-1
  6
ByLayer
 10
-131.0
 20
-37.5000000000000213
 30
0.0
 11
-125.0
 21
-37.5000000000000071
 31
0.0
  0
LINE
  5
1C1
100
AcDbEntity
100
AcDbLine
  8
Drawings
 62
256
370
-1
  6
ByLayer
 10
-134.0
 20
2.7499999999998792
 30
0.0
 11
-131.0
 21
2.7499999999998792
 31
0.0
  0
LINE
  5
1C2
100
AcDbEntity
100
AcDbLine
  8
Drawings
 62
256
370
-1
  6
ByLayer
 10
-134.0
 20
-2.7500000000001208
 30
0.0
 11
-131.0
 21
-2.7500000000001208
 31
0.0
  0
LINE
  5
1C3
100
AcDbEntity
100
AcDbLine
  8
Drawings
 62
256
370
-1
  6
ByLayer
 10
-134.0
 20
2.7499999999998792
 30
0.0
 11
-134.0
 21
-2.7500000000001208
 31
0.0
  0
LINE
  5
1C4
100
AcDbEntity
100
AcDbLine
  8
Drawings
 62
256
370
-1
  6
ByLayer
 10
-131.0
 20
2.7499999999998792
 30
0.0
 11
-131.0
 21
-2.7500000000001208
 31
0.0
  0
LINE
  5
1C5
100
AcDbEntity
100
AcDbLine
  8
Drawings
 62
256
370
-1
  6
ByLayer
 10
-134.0
 20
35.0000000000001066
 30
0.0
 11
-131.0
 21
35.0000000000001066
 31
0.0
  0
LINE
  5
1C6
100
AcDbEntity
100
AcDbLine
  8
Drawings
 62
256
370
-1
  6
ByLayer
 10
-134.0
 20
29.5000000000001066
 30
0.0
 11
-131.0
 21
29.5000000000001066
 31
0.0
  0
LINE
  5
1C7
100
AcDbEntity
100
AcDbLine
  8
Drawings
 62
256
370
-1
  6
ByLayer
 10
-134.0
 20
35.0000000000001066
 30
0.0
 11
-134.0
 21
29.5000000000001066
 31
0.0
  0
LINE
  5
1C8
100
AcDbEntity
100
AcDbLine
  8
Drawings
 62
256
370
-1
  6
ByLayer
 10
-131.0
 20
35.0000000000001066
 30
0.0
 11
-131.0
 21
29.5000000000001066
 31
0.0
  0
LINE
  5
1C9
100
AcDbEntity
100
AcDbLine
  8
Drawings
 62
256
370
-1
  6
ByLayer
 10
-137.0
 20
-30.0000000000000142
 30
0.0
 11
-131.0
 21
-30.0000000000000142
 31
0.0
  0
LINE
  5
1CA
100
AcDbEntity
100
AcDbLine
  8
Drawings
 62
256
370
-1
  6
ByLayer
 10
-137.0
 20
-10.0000000000000142
 30
0.0
 11
-131.0
 21
-10.0000000000000142
 31
0.0
  0
LINE
  5
1CB
100
AcDbEntity
100
AcDbLine
  8
Drawings
 62
256
370
-1
  6
ByLayer
 10
-137.0
 20
-10.0000000000000142
 30
0.0
 11
-137.0
 21
-30.0000000000000142
 31
0.0
  0
LINE
  5
1CC
100
AcDbEntity
100
AcDbLine
  8
Drawings
 62
256
370
-1
  6
ByLayer
 10
-140.0
 20
-17.2500000000000142
 30
0.0
 11
-137.0
 21
-17.2500000000000142
 31
0.0
  0
LINE
  5
1CD
100
AcDbEntity
100
AcDbLine
  8
Drawings
 62
256
370
-1
  6
ByLayer
 10
-140.0
 20
-22.7500000000000142
 30
0.0
 11
-137.0
 21
-22.7500000000000142
 31
0.0
  0
LINE
  5
1CE
100
AcDbEntity
100
AcDbLine
  8
Drawings
 62
256
370
-1
  6
ByLayer
 10
-140.0
 20
-17.2500000000000142
 30
0.0
 11
-140.0
 21
-22.7500000000000142
 31
0.0
  0
LINE
  5
1CF
100
AcDbEntity
100
AcDbLine
  8
Drawings
 62
256
370
-1
  6
ByLayer
 10
-137.0
 20
-17.2500000000000142
 30
0.0
 11
-137.0
 21
-22.7500000000000142
 31
0.0
  0
LINE
  5
1D0
100
AcDbEntity
100
AcDbLine
  8
03 - Top
 62
256
370
-1
  6
ByLayer
 10
-125.0
 20
30.0
 30
0.0
 11
-85.0000000000000142
 21
29.9999999999999858
 31
0.0
  0
LINE
  5
1D1
100
AcDbEntity
100
AcDbLine
  8
03 - Top
 62
256
370
-1
  6
ByLayer
 10
-125.0
 20
-30.0
 30
0.0
 11
-85.0000000000000142
 21
-30.0000000000000036
 31
0.0
  0
LINE
  5
1D2
100
AcDbEntity
100
AcDbLine
  8
Drawings - Belt
 62
256
370
-1
  6
ByLayer
 10
114.9999999999999858
 20
-13.6499999999999986
 30
0.0
 11
-103.8500000000000369
 21
-13.6499999999999915
 31
0.0
  0
LINE
  5
1D3
100
AcDbEntity
100
AcDbLine
  8
Drawings - Belt
 62
256
370
-1
  6
ByLayer
 10
-103.8500000000000369
 20
-4.0500000000000078
 30
0.0
 11
114.9999999999999858
 21
-4.0500000000000043
 31
0.0
  0
INSERT
  5
1D4
100
AcDbEntity
100
AcDbBlockReference
  8
02 - Back
 62
256
370
-1
  6
ByLayer
  2
tgrips
 10
-124.9999999999999716
 20
138.2499999999999432
 30
0.0
 50
90.0000000000000142
 44
1.0
 45
1.0
  0
LINE
  5
1D5
100
AcDbEntity
100
AcDbLine
  8
Drawings
 62
256
370
-1
  6
ByLayer
 10
-175.0
 20
113.2499999999998295
 30
0.0
 11
30.0
 21
113.2499999999998295
 31
0.0
  0
LINE
  5
1D6
100
AcDbEntity
100
AcDbLine
  8
Drawings
 62
256
370
-1
  6
ByLayer
 10
-102.9999999999999858
 20
148.1499999999999204
 30
0.0
 11
-103.0000000000000426
 21
78.6500000000000909
 31
0.0
  0
ARC
  5
1D7
100
AcDbEntity
  8
02 - Back
 62
256
370
-1
  6
ByLayer
100
AcDbCircle
 10
-92.5000000000000426
 20
108.7499999999999716
 30
0.0
 40
2.5
100
AcDbArc
 50
90.0
 51
180.0
  0
LINE
  5
1D8
100
AcDbEntity
100
AcDbLine
  8
Drawings
 62
256
370
-1
  6
ByLayer
 10
-125.0
 20
140.6499999999999488
 30
0.0
 11
124.9999999999998863
 21
140.6499999999998067
 31
0.0
  0
LINE
  5
1D9
100
AcDbEntity
100
AcDbLine
  8
Drawings
 62
256
370
-1
  6
ByLayer
 10
-130.5458712951617599
 20
126.1499999999996646
 30
0.0
 11
124.9999999999995453
 21
126.1499999999994373
 31
0.0
  0
LINE
  5
1DA
100
AcDbEntity
100
AcDbLine
  8
Drawings
 62
256
370
-1
  6
ByLayer
 10
-132.9881291074452747
 20
116.1499999999997215
 30
0.0
 11
124.9999999999993747
 21
116.1499999999994941
 31
0.0
  0
LINE
  5
1DB
100
AcDbEntity
100
AcDbLine
  8
Drawings
 62
256
370
-1
  6
ByLayer
 10
-125.0000000000001137
 20
110.6499999999997499
 30
0.0
 11
124.999999999999261
 21
110.6499999999998352
 31
0.0
  0
LINE
  5
1DC
100
AcDbEntity
100
AcDbLine
  8
Drawings
 62
256
370
-1
  6
ByLayer
 10
-125.0000000000000568
 20
137.1499999999998636
 30
0.0
 11
125.0
 21
137.1499999999999204
 31
0.0
  0
LINE
  5
1DD
100
AcDbEntity
100
AcDbLine
  8
02 - Back
 62
256
370
-1
  6
ByLayer
 10
-92.5000000000000426
 20
111.2499999999999716
 30
0.0
 11
92.4999999999999574
 21
111.2499999999998295
 31
0.0
  0
LINE
  5
1DE
100
AcDbEntity
100
AcDbLine
  8
Drawings
 62
256
370
-1
  6
ByLayer
 10
74.5250000000000057
 20
-156.2500000000000284
 30
0.0
 11
74.5250000000000057
 21
-111.2499999999999432
 31
0.0
  0
LINE
  5
1DF
100
AcDbEntity
100
AcDbLine
  8
Drawings
 62
256
370
-1
  6
ByLayer
 10
60.3000000000000469
 20
129.249999999999801
 30
0.0
 11
63.2999999999999332
 21
129.2500000000000284
 31
0.0
  0
LINE
  5
1E0
100
AcDbEntity
100
AcDbLine
  8
Drawings
 62
256
370
-1
  6
ByLayer
 10
60.2999999999999901
 20
123.2499999999998295
 30
0.0
 11
63.2999999999999901
 21
123.2499999999999147
 31
0.0
  0
LINE
  5
1E1
100
AcDbEntity
100
AcDbLine
  8
Drawings
 62
256
370
-1
  6
ByLayer
 10
60.2999999999999901
 20
113.2499999999996589
 30
0.0
 11
63.2999999999999901
 21
113.2499999999996305
 31
0.0
  0
LINE
  5
1E2
100
AcDbEntity
100
AcDbLine
  8
Drawings
 62
256
370
-1
  6
ByLayer
 10
60.2999999999999332
 20
119.249999999999801
 30
0.0
 11
63.2999999999999901
 21
119.2499999999998295
 31
0.0
  0
LINE
  5
1E3
100
AcDbEntity
100
AcDbLine
  8
Drawings
 62
256
370
-1
  6
ByLayer
 10
63.2999999999999332
 20
119.249999999999801
 30
0.0
 11
63.2999999999999901
 21
113.2499999999996305
 31
0.0
  0
LINE
  5
1E4
100
AcDbEntity
100
AcDbLine
  8
Drawings
 62
256
370
-1
  6
ByLayer
 10
60.2999999999999332
 20
119.249999999999801
 30
0.0
 11
60.2999999999999901
 21
113.2499999999996589
 31
0.0
  0
LINE
  5
1E5
100
AcDbEntity
100
AcDbLine
  8
Drawings
 62
256
370
-1
  6
ByLayer
 10
60.3000000000000469
 20
129.249999999999801
 30
0.0
 11
60.2999999999999901
 21
123.2499999999998295
 31
0.0
  0
LINE
  5
1E6
100
AcDbEntity
100
AcDbLine
  8
Drawings
 62
256
370
-1
  6
ByLayer
 10
63.2999999999999332
 20
129.2500000000000284
 30
0.0
 11
63.2999999999999901
 21
123.2499999999999147
 31
0.0
  0
LINE
  5
1E7
100
AcDbEntity
100
AcDbLine
  8
Drawings
 62
256
370
-1
  6
ByLayer
 10
60.2999999999999901
 20
140.6500000000001194
 30
0.0
 11
60.2999999999999332
 21
110.6500000000002899
 31
0.0
  0
LINE
  5
1E8
100
AcDbEntity
100
AcDbLine
  8
Drawings
 62
256
370
-1
  6
ByLayer
 10
55.7999999999998764
 20
140.6500000000003752
 30
0.0
 11
55.7999999999999332
 21
110.6500000000002899
 31
0.0
  0
LINE
  5
1E9
100
AcDbEntity
100
AcDbLine
  8
Drawings
 62
256
370
-1
  6
ByLayer
 10
60.3000000000000469
 20
-137.3499999999997669
 30
0.0
 11
63.2999999999999332
 21
-137.350000000000108
 31
0.0
  0
LINE
  5
1EA
100
AcDbEntity
100
AcDbLine
  8
Drawings
 62
256
370
-1
  6
ByLayer
 10
60.2999999999999901
 20
-131.3499999999997669
 30
0.0
 11
63.2999999999999901
 21
-131.3499999999999375
 31
0.0
  0
LINE
  5
1EB
100
AcDbEntity
100
AcDbLine
  8
Drawings
 62
256
370
-1
  6
ByLayer
 10
60.2999999999999901
 20
-121.349999999999568
 30
0.0
 11
63.2999999999999901
 21
-121.349999999999568
 31
0.0
  0
LINE
  5
1EC
100
AcDbEntity
100
AcDbLine
  8
Drawings
 62
256
370
-1
  6
ByLayer
 10
60.2999999999999332
 20
-127.3499999999997101
 30
0.0
 11
63.2999999999999901
 21
-127.3499999999996817
 31
0.0
  0
LINE
  5
1ED
100
AcDbEntity
100
AcDbLine
  8
Drawings
 62
256
370
-1
  6
ByLayer
 10
63.2999999999999332
 20
-127.3499999999999091
 30
0.0
 11
63.2999999999999901
 21
-121.349999999999568
 31
0.0
  0
LINE
  5
1EE
100
AcDbEntity
100
AcDbLine
  8
Drawings
 62
256
370
-1
  6
ByLayer
 10
60.2999999999999332
 20
-127.3499999999997101
 30
0.0
 11
60.2999999999999901
 21
-121.349999999999568
 31
0.0
  0
LINE
  5
1EF
100
AcDbEntity
100
AcDbLine
  8
Drawings
 62
256
370
-1
  6
ByLayer
 10
60.3000000000000469
 20
-137.3499999999997669
 30
0.0
 11
60.2999999999999901
 21
-131.3499999999997669
 31
0.0
  0
LINE
  5
1F0
100
AcDbEntity
100
AcDbLine
  8
Drawings
 62
256
370
-1
  6
ByLayer
 10
63.2999999999999332
 20
-137.350000000000108
 30
0.0
 11
63.2999999999999901
 21
-131.3499999999999375
 31
0.0
  0
LINE
  5
1F1
100
AcDbEntity
100
AcDbLine
  8
Drawings
 62
256
370
-1
  6
ByLayer
 10
60.2999999999999901
 20
-148.7500000000000284
 30
0.0
 11
60.2999999999999332
 21
-118.7500000000001705
 31
0.0
  0
LINE
  5
1F2
100
AcDbEntity
100
AcDbLine
  8
Drawings
 62
256
370
-1
  6
ByLayer
 10
55.7999999999998764
 20
-148.7500000000003979
 30
0.0
 11
55.7999999999999332
 21
-118.7500000000002558
 31
0.0
  0
LINE
  5
1F3
100
AcDbEntity
100
AcDbLine
  8
Drawings
 62
256
370
-1
  6
ByLayer
 10
55.7999999999999901
 20
-247.5000000000000568
 30
0.0
 11
55.7999999999999901
 21
146.2500000000000284
 31
0.0
  0
LINE
  5
1F4
100
AcDbEntity
100
AcDbLine
  8
Drawings
 62
256
370
-1
  6
ByLayer
 10
51.2999999999999332
 20
-124.2499999999995168
 30
0.0
 11
63.2999999999999616
 21
-124.2499999999995168
 31
0.0
  0
LINE
  5
1F5
100
AcDbEntity
100
AcDbLine
  8
Drawings
 62
256
370
-1
  6
ByLayer
 10
52.1357864376223361
 20
-134.2499999999996305
 30
0.0
 11
63.2999999999998693
 21
-134.2499999999996305
 31
0.0
  0
LINE
  5
1F6
100
AcDbEntity
100
AcDbLine
  8
04 - Bottom
 62
256
370
-1
  6
ByLayer
 10
55.7999999999999901
 20
-212.4999999999999432
 30
0.0
 11
55.7999999999999901
 21
-222.4999999999999432
 31
0.0
  0
ARC
  5
1F7
100
AcDbEntity
  8
04 - Bottom
 62
256
370
-1
  6
ByLayer
100
AcDbCircle
 10
57.7999999999999901
 20
-146.2500000000000853
 30
0.0
 40
0.5
100
AcDbArc
 50
270.0
 51
0.0
  0
ARC
  5
1F8
100
AcDbEntity
  8
04 - Bottom
 62
256
370
-1
  6
ByLayer
100
AcDbCircle
 10
57.7999999999999545
 20
146.2500000000001421
 30
0.0
 40
0.5
100
AcDbArc
 50
0.0
 51
90.0000000000000142
  0
INSERT
  5
1F9
100
AcDbEntity
100
AcDbBlockReference
  8
01 - Front
 62
256
370
-1
  6
ByLayer
  2
tcutout-5
 10
-61.6250000000000426
 20
-133.7499999999998579
 30
0.0
 50
-90.0
 44
1.0
 45
1.0
  0
INSERT
  5
1FA
100
AcDbEntity
100
AcDbBlockReference
  8
02 - Back
 62
256
370
-1
  6
ByLayer
  2
tcutout-5
 10
-61.6250000000000142
 20
134.2499999999996589
 30
0.0
 50
-90.0
 44
1.0
 45
1.0
  0
LINE
  5
1FB
100
AcDbEntity
100
AcDbLine
  8
Drawings
 62
256
370
-1
  6
ByLayer
 10
-61.6250000000000426
 20
-252.4999999999999716
 30
0.0
 11
-61.6250000000000426
 21
156.25
 31
0.0
  0
INSERT
  5
1FC
100
AcDbEntity
100
AcDbBlockReference
  8
03 - Top
 62
256
370
-1
  6
ByLayer
  2
tcutout-5
 10
-61.6250000000000568
 20
0.0
 30
0.0
 50
-90.0
 44
1.0
 45
1.0
  0
LINE
  5
1FD
100
AcDbEntity
100
AcDbLine
  8
Drawings
 62
256
370
-1
  6
ByLayer
 10
-55.5250000000000341
 20
156.2499999999999716
 30
0.0
 11
-55.5250000000000341
 21
-252.4999999999999716
 31
0.0
  0
INSERT
  5
1FE
100
AcDbEntity
100
AcDbBlockReference
  8
01 - Front
 62
256
370
-1
  6
ByLayer
  2
tgrips
 10
-125.0
 20
-138.2499999999999147
 30
0.0
 41
1.0
 42
-1.0
 43
1.0
 50
270.0
 44
1.0
 45
1.0
  0
ARC
  5
1FF
100
AcDbEntity
  8
01 - Front
 62
256
370
-1
  6
ByLayer
100
AcDbCircle
 10
-92.5000000000000711
 20
-108.7499999999999147
 30
0.0
 40
2.5
100
AcDbArc
 50
180.0
 51
270.0
  0
LINE
  5
200
100
AcDbEntity
100
AcDbLine
  8
01 - Front
 62
256
370
-1
  6
ByLayer
 10
-92.5000000000000711
 20
-111.2499999999999147
 30
0.0
 11
92.4999999999999858
 21
-111.2499999999999432
 31
0.0
  0
INSERT
  5
201
100
AcDbEntity
100
AcDbBlockReference
  8
03 - Top
 62
256
370
-1
  6
ByLayer
  2
tcutout
 10
55.7999999999999829
 20
-0.000000000000002
 30
0.0
 50
90.0
 44
1.0
 45
1.0
  0
CIRCLE
  5
202
100
AcDbEntity
100
AcDbCircle
  8
10 - Right End Top Cap
 62
256
370
-1
  6
ByLayer
 10
213.4499999999991076
 20
-22.5000000000002842
 30
0.0
 40
2.0
  0
LINE
  5
203
100
AcDbEntity
100
AcDbLine
  8
Drawings
 62
256
370
-1
  6
ByLayer
 10
-110.0000000000000284
 20
-163.2499999999998579
 30
0.0
 11
-110.0000000000000142
 21
156.25
 31
0.0
  0
LINE
  5
204
100
AcDbEntity
100
AcDbLine
  8
Drawings
 62
256
370
-1
  6
ByLayer
 10
109.9999999999999432
 20
-163.2500000000002274
 30
0.0
 11
109.9999999999999574
 21
156.2500000000000568
 31
0.0
  0
LINE
  5
205
100
AcDbEntity
100
AcDbLine
  8
Drawings
 62
256
370
-1
  6
ByLayer
 10
-125.0
 20
-156.2499999999999716
 30
0.0
 11
-124.9999999999999858
 21
156.25
 31
0.0
  0
LINE
  5
206
100
AcDbEntity
100
AcDbLine
  8
Drawings
 62
256
370
-1
  6
ByLayer
 10
125.0
 20
-156.25
 30
0.0
 11
125.0000000000000142
 21
156.2499999999999716
 31
0.0
  0
LINE
  5
207
100
AcDbEntity
100
AcDbLine
  8
Drawings - NEMA 17
 62
256
370
-1
  6
ByLayer
 10
-122.0
 20
-152.7499999999997726
 30
0.0
 11
-79.6999999999999886
 21
-152.7499999999997726
 31
0.0
  0
LINE
  5
208
100
AcDbEntity
100
AcDbLine
  8
Drawings - NEMA 17
 62
256
370
-1
  6
ByLayer
 10
-122.0
 20
-118.7499999999997726
 30
0.0
 11
-79.6999999999999886
 21
-118.7499999999997726
 31
0.0
  0
LINE
  5
209
100
AcDbEntity
100
AcDbLine
  8
Drawings - NEMA 17
 62
256
370
-1
  6
ByLayer
 10
-122.0
 20
-118.7499999999997726
 30
0.0
 11
-122.0
 21
-152.7499999999997726
 31
0.0
  0
LINE
  5
20A
100
AcDbEntity
100
AcDbLine
  8
Drawings - NEMA 17
 62
256
370
-1
  6
ByLayer
 10
-79.6999999999999886
 20
-118.7499999999997726
 30
0.0
 11
-79.6999999999999886
 21
-152.7499999999997726
 31
0.0
  0
LINE
  5
20B
100
AcDbEntity
100
AcDbLine
  8
Drawings - NEMA 17
 62
256
370
-1
  6
ByLayer
 10
-111.8499999999999943
 20
-116.7499999999997726
 30
0.0
 11
-111.8499999999999943
 21
-118.7499999999997726
 31
0.0
  0
LINE
  5
20C
100
AcDbEntity
100
AcDbLine
  8
Drawings - NEMA 17
 62
256
370
-1
  6
ByLayer
 10
-89.8499999999999943
 20
-116.7499999999997726
 30
0.0
 11
-89.8499999999999943
 21
-118.7499999999997726
 31
0.0
  0
LINE
  5
20D
100
AcDbEntity
100
AcDbLine
  8
Drawings - NEMA 17
 62
256
370
-1
  6
ByLayer
 10
-111.8499999999999943
 20
-116.7499999999997726
 30
0.0
 11
-89.8499999999999943
 21
-116.7499999999997726
 31
0.0
  0
LINE
  5
20E
100
AcDbEntity
100
AcDbLine
  8
Drawings - NEMA 17
 62
256
370
-1
  6
ByLayer
 10
-100.8499999999999943
 20
-94.2499999999997726
 30
0.0
 11
-100.8499999999999943
 21
-118.7499999999997726
 31
0.0
  0
LINE
  5
20F
100
AcDbEntity
100
AcDbLine
  8
Drawings - NEMA 17
 62
256
370
-1
  6
ByLayer
 10
-114.8499999999999943
 20
-118.7499999999997726
 30
0.0
 11
-114.8499999999999943
 21
-123.2499999999998295
 31
0.0
  0
LINE
  5
210
100
AcDbEntity
100
AcDbLine
  8
Drawings - NEMA 17
 62
256
370
-1
  6
ByLayer
 10
-116.3499999999999943
 20
-118.7499999999997726
 30
0.0
 11
-116.3499999999999943
 21
-123.2499999999997726
 31
0.0
  0
LINE
  5
211
100
AcDbEntity
100
AcDbLine
  8
Drawings - NEMA 17
 62
256
370
-1
  6
ByLayer
 10
-117.8499999999999943
 20
-118.7499999999997726
 30
0.0
 11
-117.8499999999999943
 21
-123.2499999999998863
 31
0.0
  0
LINE
  5
212
100
AcDbEntity
100
AcDbLine
  8
Drawings - NEMA 17
 62
256
370
-1
  6
ByLayer
 10
-86.8499999999999943
 20
-118.7499999999997726
 30
0.0
 11
-86.8499999999999943
 21
-123.2499999999997726
 31
0.0
  0
LINE
  5
213
100
AcDbEntity
100
AcDbLine
  8
Drawings - NEMA 17
 62
256
370
-1
  6
ByLayer
 10
-85.3499999999999943
 20
-118.7499999999997726
 30
0.0
 11
-85.3499999999999943
 21
-123.2499999999997726
 31
0.0
  0
LINE
  5
214
100
AcDbEntity
100
AcDbLine
  8
Drawings - NEMA 17
 62
256
370
-1
  6
ByLayer
 10
-83.8499999999999943
 20
-118.7499999999997726
 30
0.0
 11
-83.8499999999999943
 21
-123.2499999999998863
 31
0.0
  0
LINE
  5
215
100
AcDbEntity
100
AcDbLine
  8
Drawings - NEMA 17
 62
256
370
-1
  6
ByLayer
 10
-86.8499999999999943
 20
-123.2499999999997726
 30
0.0
 11
-83.8499999999999943
 21
-123.2499999999998863
 31
0.0
  0
LINE
  5
216
100
AcDbEntity
100
AcDbLine
  8
Drawings - NEMA 17
 62
256
370
-1
  6
ByLayer
 10
-117.8499999999999943
 20
-123.2499999999998863
 30
0.0
 11
-114.8499999999999943
 21
-123.2499999999998295
 31
0.0
  0
LINE
  5
217
100
AcDbEntity
100
AcDbLine
  8
Drawings - NEMA 17
 62
256
370
-1
  6
ByLayer
 10
-103.289999999999992
 20
-94.7499999999997726
 30
0.0
 11
-103.289999999999992
 21
-118.7499999999997726
 31
0.0
  0
LINE
  5
218
100
AcDbEntity
100
AcDbLine
  8
Drawings - NEMA 17
 62
256
370
-1
  6
ByLayer
 10
-103.289999999999992
 20
-94.7499999999997726
 30
0.0
 11
-102.789999999999992
 21
-94.2499999999997726
 31
0.0
  0
LINE
  5
219
100
AcDbEntity
100
AcDbLine
  8
Drawings - NEMA 17
 62
256
370
-1
  6
ByLayer
 10
-102.789999999999992
 20
-94.2499999999997726
 30
0.0
 11
-98.9099999999999966
 21
-94.2499999999997726
 31
0.0
  0
LINE
  5
21A
100
AcDbEntity
100
AcDbLine
  8
Drawings - NEMA 17
 62
256
370
-1
  6
ByLayer
 10
-98.4099999999999966
 20
-94.7499999999997726
 30
0.0
 11
-98.4099999999999966
 21
-118.7499999999997726
 31
0.0
  0
LINE
  5
21B
100
AcDbEntity
100
AcDbLine
  8
Drawings - NEMA 17
 62
256
370
-1
  6
ByLayer
 10
-98.9099999999999966
 20
-94.2499999999997726
 30
0.0
 11
-98.4099999999999966
 21
-94.7499999999997726
 31
0.0
  0
LINE
  5
21C
100
AcDbEntity
100
AcDbLine
  8
Drawings - Pulleys
 62
256
370
-1
  6
ByLayer
 10
-107.9000000000000057
 20
-108.5374999999997669
 30
0.0
 11
-93.8000000000000114
 21
-108.5374999999997669
 31
0.0
  0
LINE
  5
21D
100
AcDbEntity
100
AcDbLine
  8
Drawings - Pulleys
 62
256
370
-1
  6
ByLayer
 10
-107.9000000000000057
 20
-94.2499999999997726
 30
0.0
 11
-93.8000000000000114
 21
-94.2499999999997726
 31
0.0
  0
LINE
  5
21E
100
AcDbEntity
100
AcDbLine
  8
Drawings - Pulleys
 62
256
370
-1
  6
ByLayer
 10
-100.8499999999999943
 20
-94.2499999999997726
 30
0.0
 11
-100.8499999999999943
 21
-108.5374999999997669
 31
0.0
  0
LINE
  5
21F
100
AcDbEntity
100
AcDbLine
  8
Drawings - Pulleys
 62
256
370
-1
  6
ByLayer
 10
-103.2399999999999807
 20
-94.2499999999997726
 30
0.0
 11
-103.2399999999999807
 21
-108.5374999999997669
 31
0.0
  0
LINE
  5
220
100
AcDbEntity
100
AcDbLine
  8
Drawings - Pulleys
 62
256
370
-1
  6
ByLayer
 10
-98.460000000000008
 20
-94.2499999999997726
 30
0.0
 11
-98.460000000000008
 21
-108.5374999999997669
 31
0.0
  0
LINE
  5
221
100
AcDbEntity
100
AcDbLine
  8
Drawings - Pulleys
 62
256
370
-1
  6
ByLayer
 10
-107.9000000000000057
 20
-102.5874999999997499
 30
0.0
 11
-93.8000000000000114
 21
-102.5874999999997499
 31
0.0
  0
LINE
  5
222
100
AcDbEntity
100
AcDbLine
  8
Drawings - Pulleys
 62
256
370
-1
  6
ByLayer
 10
-107.9000000000000057
 20
-95.2214999999997644
 30
0.0
 11
-93.8000000000000114
 21
-95.2214999999997644
 31
0.0
  0
LINE
  5
223
100
AcDbEntity
100
AcDbLine
  8
Drawings - Pulleys
 62
256
370
-1
  6
ByLayer
 10
-107.9000000000000057
 20
-94.2499999999997726
 30
0.0
 11
-107.9000000000000057
 21
-95.2214999999997644
 31
0.0
  0
LINE
  5
224
100
AcDbEntity
100
AcDbLine
  8
Drawings - Pulleys
 62
256
370
-1
  6
ByLayer
 10
-107.9000000000000057
 20
-102.5874999999997499
 30
0.0
 11
-107.9000000000000057
 21
-108.5374999999997669
 31
0.0
  0
LINE
  5
225
100
AcDbEntity
100
AcDbLine
  8
Drawings - Pulleys
 62
256
370
-1
  6
ByLayer
 10
-93.8000000000000114
 20
-94.2499999999997726
 30
0.0
 11
-93.8000000000000114
 21
-95.2214999999997644
 31
0.0
  0
LINE
  5
226
100
AcDbEntity
100
AcDbLine
  8
Drawings - Pulleys
 62
256
370
-1
  6
ByLayer
 10
-93.8000000000000114
 20
-102.5874999999997499
 30
0.0
 11
-93.8000000000000114
 21
-108.5374999999997669
 31
0.0
  0
LINE
  5
227
100
AcDbEntity
100
AcDbLine
  8
Drawings - Pulleys
 62
256
370
-1
  6
ByLayer
 10
-96.0749999999999886
 20
-95.2214999999997644
 30
0.0
 11
-96.0749999999999886
 21
-102.5874999999997499
 31
0.0
  0
LINE
  5
228
100
AcDbEntity
100
AcDbLine
  8
Drawings - Pulleys
 62
256
370
-1
  6
ByLayer
 10
-105.625
 20
-95.2214999999997644
 30
0.0
 11
-105.625
 21
-102.5874999999997783
 31
0.0
  0
CIRCLE
  5
229
100
AcDbEntity
100
AcDbCircle
  8
12 - Caps
 62
256
370
-1
  6
ByLayer
 10
-292.7000000000001592
 20
34.1624999999999943
 30
0.0
 40
1.5
  0
CIRCLE
  5
22A
100
AcDbEntity
100
AcDbCircle
  8
12 - Caps
 62
256
370
-1
  6
ByLayer
 10
-262.6999999999999318
 20
34.1624999999999943
 30
0.0
 40
1.5
  0
CIRCLE
  5
22B
100
AcDbEntity
100
AcDbCircle
  8
12 - Caps
 62
256
370
-1
  6
ByLayer
 10
-301.3500000000001364
 20
25.5124999999999886
 30
0.0
 40
1.5
  0
CIRCLE
  5
22C
100
AcDbEntity
100
AcDbCircle
  8
12 - Caps
 62
256
370
-1
  6
ByLayer
 10
-254.0499999999998977
 20
25.5124999999999886
 30
0.0
 40
1.5
  0
ARC
  5
22D
100
AcDbEntity
  8
12 - Caps
 62
256
370
-1
  6
ByLayer
100
AcDbCircle
 10
-304.7000000000001592
 20
37.7374999999999829
 30
0.0
 40
2.5
100
AcDbArc
 50
90.0
 51
180.0
  0
ARC
  5
22E
100
AcDbEntity
  8
12 - Caps
 62
256
370
-1
  6
ByLayer
100
AcDbCircle
 10
-250.6999999999999318
 20
37.7374999999999972
 30
0.0
 40
2.5
100
AcDbArc
 50
0.0
 51
90.0
  0
LINE
  5
22F
100
AcDbEntity
100
AcDbLine
  8
12 - Caps
 62
256
370
-1
  6
ByLayer
 10
-307.2000000000001592
 20
24.6625000000000512
 30
0.0
 11
-307.2000000000001592
 21
37.7374999999999829
 31
0.0
  0
ARC
  5
230
100
AcDbEntity
  8
12 - Caps
 62
256
370
-1
  6
ByLayer
100
AcDbCircle
 10
-302.2000000000001592
 20
24.6625000000000512
 30
0.0
 40
5.0
100
AcDbArc
 50
180.0
 51
314.9999999999999432
  0
LINE
  5
231
100
AcDbEntity
100
AcDbLine
  8
12 - Caps
 62
256
370
-1
  6
ByLayer
 10
-304.7000000000001592
 20
40.2374999999999901
 30
0.0
 11
-291.6250000000002274
 21
40.2374999999999901
 31
0.0
  0
LINE
  5
232
100
AcDbEntity
100
AcDbLine
  8
12 - Caps
 62
256
370
-1
  6
ByLayer
 10
-288.0894660940674612
 20
31.7019660940672452
 30
0.0
 11
-298.664466094067393
 21
21.1269660940673134
 31
0.0
  0
LINE
  5
233
100
AcDbEntity
100
AcDbLine
  8
12 - Caps
 62
256
370
-1
  6
ByLayer
 10
-263.7749999999999204
 20
40.2374999999999901
 30
0.0
 11
-250.6999999999999318
 21
40.2374999999999972
 31
0.0
  0
ARC
  5
234
100
AcDbEntity
  8
12 - Caps
 62
256
370
-1
  6
ByLayer
100
AcDbCircle
 10
-263.7749999999999204
 20
35.2374999999999829
 30
0.0
 40
5.0
100
AcDbArc
 50
90.0
 51
225.0
  0
LINE
  5
235
100
AcDbEntity
100
AcDbLine
  8
12 - Caps
 62
256
370
-1
  6
ByLayer
 10
-267.3105339059326298
 20
31.7019660940672452
 30
0.0
 11
-256.7355339059326411
 21
21.1269660940672566
 31
0.0
  0
LINE
  5
236
100
AcDbEntity
100
AcDbLine
  8
12 - Caps
 62
256
370
-1
  6
ByLayer
 10
-248.1999999999999318
 20
37.7374999999999829
 30
0.0
 11
-248.1999999999999318
 21
24.6624999999999659
 31
0.0
  0
ARC
  5
237
100
AcDbEntity
  8
12 - Caps
 62
256
370
-1
  6
ByLayer
100
AcDbCircle
 10
-253.1999999999999318
 20
24.6624999999999943
 30
0.0
 40
5.0
100
AcDbArc
 50
225.0000000000000568
 51
0.0
  0
ARC
  5
238
100
AcDbEntity
  8
12 - Caps
 62
256
370
-1
  6
ByLayer
100
AcDbCircle
 10
-291.6250000000002274
 20
35.2374999999999829
 30
0.0
 40
5.0
100
AcDbArc
 50
315.0
 51
90.0
  0
CIRCLE
  5
239
100
AcDbEntity
100
AcDbCircle
  8
12 - Caps
 62
256
370
-1
  6
ByLayer
 10
207.2999999999998408
 20
34.1624999999999943
 30
0.0
 40
1.5
  0
CIRCLE
  5
23A
100
AcDbEntity
100
AcDbCircle
  8
12 - Caps
 62
256
370
-1
  6
ByLayer
 10
237.3000000000000682
 20
34.1624999999999943
 30
0.0
 40
1.5
  0
CIRCLE
  5
23B
100
AcDbEntity
100
AcDbCircle
  8
12 - Caps
 62
256
370
-1
  6
ByLayer
 10
198.6499999999998067
 20
25.5124999999999886
 30
0.0
 40
1.5
  0
CIRCLE
  5
23C
100
AcDbEntity
100
AcDbCircle
  8
12 - Caps
 62
256
370
-1
  6
ByLayer
 10
245.9500000000001023
 20
25.5124999999999886
 30
0.0
 40
1.5
  0
ARC
  5
23D
100
AcDbEntity
  8
12 - Caps
 62
256
370
-1
  6
ByLayer
100
AcDbCircle
 10
195.2999999999998408
 20
37.7374999999999829
 30
0.0
 40
2.5
100
AcDbArc
 50
90.0
 51
180.0
  0
ARC
  5
23E
100
AcDbEntity
  8
12 - Caps
 62
256
370
-1
  6
ByLayer
100
AcDbCircle
 10
249.3000000000000682
 20
37.7374999999999972
 30
0.0
 40
2.5
100
AcDbArc
 50
0.0
 51
90.0
  0
LINE
  5
23F
100
AcDbEntity
100
AcDbLine
  8
12 - Caps
 62
256
370
-1
  6
ByLayer
 10
192.7999999999998408
 20
24.6625000000000512
 30
0.0
 11
192.7999999999998408
 21
37.7374999999999829
 31
0.0
  0
ARC
  5
240
100
AcDbEntity
  8
12 - Caps
 62
256
370
-1
  6
ByLayer
100
AcDbCircle
 10
197.7999999999998408
 20
24.6625000000000512
 30
0.0
 40
5.0
100
AcDbArc
 50
180.0
 51
314.9999999999999432
  0
LINE
  5
241
100
AcDbEntity
100
AcDbLine
  8
12 - Caps
 62
256
370
-1
  6
ByLayer
 10
195.2999999999998408
 20
40.2374999999999901
 30
0.0
 11
208.3749999999997726
 21
40.2374999999999901
 31
0.0
  0
LINE
  5
242
100
AcDbEntity
100
AcDbLine
  8
12 - Caps
 62
256
370
-1
  6
ByLayer
 10
211.9105339059325388
 20
31.7019660940672452
 30
0.0
 11
201.3355339059325502
 21
21.1269660940673134
 31
0.0
  0
LINE
  5
243
100
AcDbEntity
100
AcDbLine
  8
12 - Caps
 62
256
370
-1
  6
ByLayer
 10
236.2250000000000796
 20
40.2374999999999901
 30
0.0
 11
249.3000000000000682
 21
40.2374999999999972
 31
0.0
  0
ARC
  5
244
100
AcDbEntity
  8
12 - Caps
 62
256
370
-1
  6
ByLayer
100
AcDbCircle
 10
236.2250000000000796
 20
35.2374999999999829
 30
0.0
 40
5.0
100
AcDbArc
 50
90.0
 51
225.0
  0
LINE
  5
245
100
AcDbEntity
100
AcDbLine
  8
12 - Caps
 62
256
370
-1
  6
ByLayer
 10
232.6894660940673134
 20
31.7019660940672452
 30
0.0
 11
243.2644660940673589
 21
21.1269660940672566
 31
0.0
  0
LINE
  5
246
100
AcDbEntity
100
AcDbLine
  8
12 - Caps
 62
256
370
-1
  6
ByLayer
 10
251.8000000000000682
 20
37.7374999999999829
 30
0.0
 11
251.8000000000000682
 21
24.6624999999999659
 31
0.0
  0
ARC
  5
247
100
AcDbEntity
  8
12 - Caps
 62
256
370
-1
  6
ByLayer
100
AcDbCircle
 10
246.8000000000000682
 20
24.6624999999999943
 30
0.0
 40
5.0
100
AcDbArc
 50
225.0000000000000568
 51
0.0
  0
ARC
  5
248
100
AcDbEntity
  8
12 - Caps
 62
256
370
-1
  6
ByLayer
100
AcDbCircle
 10
208.3749999999997726
 20
35.2374999999999829
 30
0.0
 40
5.0
100
AcDbArc
 50
315.0
 51
90.0
  0
LINE
  5
249
100
AcDbEntity
100
AcDbLine
  8
07 - Left End Cap
 62
256
370
-1
  6
ByLayer
 10
-262.6999999999998181
 20
-91.7500000000000853
 30
0.0
 11
-242.6999999999998749
 21
-91.7500000000000853
 31
0.0
  0
ARC
  5
24A
100
AcDbEntity
  8
07 - Left End Cap
 62
256
370
-1
  6
ByLayer
100
AcDbCircle
 10
-242.6999999999998749
 20
-94.2500000000000853
 30
0.0
 40
2.5
100
AcDbArc
 50
0.0
 51
90.0
  0
LINE
  5
24B
100
AcDbEntity
100
AcDbLine
  8
07 - Left End Cap
 62
256
370
-1
  6
ByLayer
 10
-312.6999999999998181
 20
-91.7500000000000853
 30
0.0
 11
-292.6999999999998181
 21
-91.7500000000000853
 31
0.0
  0
ARC
  5
24C
100
AcDbEntity
  8
07 - Left End Cap
 62
256
370
-1
  6
ByLayer
100
AcDbCircle
 10
-312.6999999999998181
 20
-94.2500000000000853
 30
0.0
 40
2.5
100
AcDbArc
 50
90.0
 51
180.0
  0
INSERT
  5
24D
100
AcDbEntity
100
AcDbBlockReference
  8
07 - Left End Cap
 62
256
370
-1
  6
ByLayer
  2
tgrips
 10
-277.6999999999998181
 20
-91.7500000000000853
 30
0.0
 44
1.0
 45
1.0
  0
INSERT
  5
24E
100
AcDbEntity
100
AcDbBlockReference
  8
09 - Right End Cap
 62
256
370
-1
  6
ByLayer
  2
tgrips
 10
222.2999999999997272
 20
-91.750000000000199
 30
0.0
 44
1.0
 45
1.0
  0
LINE
  5
24F
100
AcDbEntity
100
AcDbLine
  8
09 - Right End Cap
 62
256
370
-1
  6
ByLayer
 10
187.2999999999997272
 20
-91.7500000000001705
 30
0.0
 11
207.2999999999997272
 21
-91.750000000000199
 31
0.0
  0
ARC
  5
250
100
AcDbEntity
  8
09 - Right End Cap
 62
256
370
-1
  6
ByLayer
100
AcDbCircle
 10
187.2999999999997272
 20
-94.2500000000001705
 30
0.0
 40
2.5
100
AcDbArc
 50
90.0
 51
180.0
  0
LINE
  5
251
100
AcDbEntity
100
AcDbLine
  8
09 - Right End Cap
 62
256
370
-1
  6
ByLayer
 10
237.2999999999997272
 20
-91.750000000000199
 30
0.0
 11
257.299999999999784
 21
-91.7500000000002274
 31
0.0
  0
ARC
  5
252
100
AcDbEntity
  8
09 - Right End Cap
 62
256
370
-1
  6
ByLayer
100
AcDbCircle
 10
257.299999999999784
 20
-94.2500000000002274
 30
0.0
 40
2.5
100
AcDbArc
 50
0.0
 51
90.0
  0
LINE
  5
253
100
AcDbEntity
100
AcDbLine
  8
Drawings - Secondary
 62
256
370
-1
  6
ByLayer
 10
99.2999999999999403
 20
-99.0500000000000114
 30
0.0
 11
-335.2000000000000455
 21
-99.0500000000000114
 31
0.0
  0
CIRCLE
  5
254
100
AcDbEntity
100
AcDbCircle
  8
07 - Left End Cap
 62
256
370
-1
  6
ByLayer
 10
-261.6999999999998749
 20
-98.3250000000001023
 30
0.0
 40
1.5
  0
CIRCLE
  5
255
100
AcDbEntity
100
AcDbCircle
  8
07 - Left End Cap
 62
256
370
-1
  6
ByLayer
 10
-253.0499999999998408
 20
-106.975000000000108
 30
0.0
 40
1.5
  0
CIRCLE
  5
256
100
AcDbEntity
100
AcDbCircle
  8
07 - Left End Cap
 62
256
370
-1
  6
ByLayer
 10
-293.7000000000001592
 20
-98.3250000000001023
 30
0.0
 40
1.5
  0
CIRCLE
  5
257
100
AcDbEntity
100
AcDbCircle
  8
07 - Left End Cap
 62
256
370
-1
  6
ByLayer
 10
-302.3500000000001364
 20
-106.975000000000108
 30
0.0
 40
1.5
  0
CIRCLE
  5
258
100
AcDbEntity
100
AcDbCircle
  8
09 - Right End Cap
 62
256
370
-1
  6
ByLayer
 10
206.299999999999784
 20
-98.3249999999998465
 30
0.0
 40
1.5
  0
CIRCLE
  5
259
100
AcDbEntity
100
AcDbCircle
  8
09 - Right End Cap
 62
256
370
-1
  6
ByLayer
 10
197.6499999999997499
 20
-106.9750000000002501
 30
0.0
 40
1.5
  0
CIRCLE
  5
25A
100
AcDbEntity
100
AcDbCircle
  8
09 - Right End Cap
 62
256
370
-1
  6
ByLayer
 10
238.3000000000000114
 20
-98.3249999999999886
 30
0.0
 40
1.5
  0
CIRCLE
  5
25B
100
AcDbEntity
100
AcDbCircle
  8
09 - Right End Cap
 62
256
370
-1
  6
ByLayer
 10
246.9500000000000455
 20
-106.9749999999999091
 30
0.0
 40
1.5
  0
INSERT
  5
25C
100
AcDbEntity
100
AcDbBlockReference
  8
01 - Front
 62
256
370
-1
  6
ByLayer
  2
tgrips
 10
109.9999999999999858
 20
-91.7499999999996589
 30
0.0
 44
1.0
 45
1.0
  0
INSERT
  5
25D
100
AcDbEntity
100
AcDbBlockReference
  8
01 - Front
 62
256
370
-1
  6
ByLayer
  2
tgrips
 10
-110.0000000000000142
 20
-91.7500000000000853
 30
0.0
 44
1.0
 45
1.0
  0
INSERT
  5
25E
100
AcDbEntity
100
AcDbBlockReference
  8
02 - Back
 62
256
370
-1
  6
ByLayer
  2
tgrips
 10
109.9999999999999574
 20
91.7499999999997726
 30
0.0
 50
180.0
 44
1.0
 45
1.0
  0
INSERT
  5
25F
100
AcDbEntity
100
AcDbBlockReference
  8
02 - Back
 62
256
370
-1
  6
ByLayer
  2
tgrips
 10
-110.0000000000000142
 20
91.7500000000001421
 30
0.0
 50
180.0
 44
1.0
 45
1.0
  0
LINE
  5
260
100
AcDbEntity
100
AcDbLine
  8
02 - Back
 62
256
370
-1
  6
ByLayer
 10
-95.0000000000000426
 20
108.7499999999999716
 30
0.0
 11
-95.0000000000000142
 21
91.7500000000001421
 31
0.0
  0
LINE
  5
261
100
AcDbEntity
100
AcDbLine
  8
02 - Back
 62
256
370
-1
  6
ByLayer
 10
-124.9999999999999716
 20
123.2499999999999432
 30
0.0
 11
-125.0000000000000142
 21
91.7500000000001421
 31
0.0
  0
LINE
  5
262
100
AcDbEntity
100
AcDbLine
  8
02 - Back
 62
256
370
-1
  6
ByLayer
 10
94.9999999999999858
 20
108.7499999999998295
 30
0.0
 11
94.9999999999999574
 21
91.7499999999997726
 31
0.0
  0
LINE
  5
263
100
AcDbEntity
100
AcDbLine
  8
02 - Back
 62
256
370
-1
  6
ByLayer
 10
124.9999999999999716
 20
123.2500000000002842
 30
0.0
 11
124.9999999999999574
 21
91.7499999999997726
 31
0.0
  0
LINE
  5
264
100
AcDbEntity
100
AcDbLine
  8
01 - Front
 62
256
370
-1
  6
ByLayer
 10
124.9999999999999858
 20
-91.7499999999996589
 30
0.0
 11
124.9999999999999432
 21
-123.2500000000001705
 31
0.0
  0
LINE
  5
265
100
AcDbEntity
100
AcDbLine
  8
01 - Front
 62
256
370
-1
  6
ByLayer
 10
94.9999999999999858
 20
-108.7499999999999432
 30
0.0
 11
94.9999999999999858
 21
-91.7499999999996589
 31
0.0
  0
LINE
  5
266
100
AcDbEntity
100
AcDbLine
  8
01 - Front
 62
256
370
-1
  6
ByLayer
 10
-95.0000000000000711
 20
-108.7499999999999147
 30
0.0
 11
-95.0000000000000142
 21
-91.7500000000000853
 31
0.0
  0
LINE
  5
267
100
AcDbEntity
100
AcDbLine
  8
01 - Front
 62
256
370
-1
  6
ByLayer
 10
-125.0000000000000142
 20
-91.7500000000000853
 30
0.0
 11
-125.0
 21
-123.2499999999999147
 31
0.0
  0
LINE
  5
268
100
AcDbEntity
100
AcDbLine
  8
Drawings - Secondary
 62
256
370
-1
  6
ByLayer
 10
-327.1999999999998749
 20
-100.0034129519944486
 30
0.0
 11
124.4369656443352028
 21
-100.0034129519944486
 31
0.0
  0
LINE
  5
269
100
AcDbEntity
100
AcDbLine
  8
Drawings - Secondary
 62
256
370
-1
  6
ByLayer
 10
-327.1999999999999318
 20
-105.4999415306562156
 30
0.0
 11
124.3179325952434056
 21
-105.4999415306562156
 31
0.0
  0
LINE
  5
26A
100
AcDbEntity
100
AcDbLine
  8
Drawings
 62
256
370
-1
  6
ByLayer
 10
-327.2000000000000455
 20
-118.7499999999996163
 30
0.0
 11
373.9999999999999432
 21
-118.7500000000001705
 31
0.0
  0
LINE
  5
26B
100
AcDbEntity
100
AcDbLine
  8
Drawings
 62
256
370
-1
  6
ByLayer
 10
-342.5000000000000568
 20
-111.2499999999999147
 30
0.0
 11
157.4999999999999432
 21
-111.2499999999999147
 31
0.0
  0
LINE
  5
26C
100
AcDbEntity
100
AcDbLine
  8
01 - Front
 62
256
370
-1
  6
ByLayer
 10
-125.0000000000000568
 20
-153.2499999999999147
 30
0.0
 11
124.9999999999999432
 21
-153.2500000000001705
 31
0.0
  0
INSERT
  5
26D
100
AcDbEntity
100
AcDbBlockReference
  8
02 - Back
 62
256
370
-1
  6
ByLayer
  2
tcutout
 10
99.9999999999999574
 20
147.1500000000002046
 30
0.0
 44
1.0
 45
1.0
  0
INSERT
  5
26E
100
AcDbEntity
100
AcDbBlockReference
  8
01 - Front
 62
256
370
-1
  6
ByLayer
  2
tcutout
 10
99.9999999999999289
 20
-147.1500000000001762
 30
0.0
 41
1.0
 42
-1.0
 43
1.0
 44
1.0
 45
1.0
  0
LINE
  5
26F
100
AcDbEntity
100
AcDbLine
  8
09 - Right End Cap
 62
256
370
-1
  6
ByLayer
 10
249.8000000000000114
 20
-140.2499999999998579
 30
0.0
 11
249.8000000000000114
 21
-124.2500000000000568
 31
0.0
  0
ARC
  5
270
100
AcDbEntity
  8
09 - Right End Cap
 62
256
370
-1
  6
ByLayer
100
AcDbCircle
 10
246.8000000000000114
 20
-140.2499999999998579
 30
0.0
 40
3.0
100
AcDbArc
 50
270.0000000000005116
 51
0.0
  0
LINE
  5
271
100
AcDbEntity
100
AcDbLine
  8
09 - Right End Cap
 62
256
370
-1
  6
ByLayer
 10
197.7999999999998408
 20
-143.2499999999998579
 30
0.0
 11
246.8000000000000682
 21
-143.2499999999998579
 31
0.0
  0
LINE
  5
272
100
AcDbEntity
100
AcDbLine
  8
09 - Right End Cap
 62
256
370
-1
  6
ByLayer
 10
194.799999999999784
 20
-140.2499999999998579
 30
0.0
 11
194.799999999999784
 21
-124.2500000000000284
 31
0.0
  0
ARC
  5
273
100
AcDbEntity
  8
09 - Right End Cap
 62
256
370
-1
  6
ByLayer
100
AcDbCircle
 10
197.799999999999784
 20
-140.2499999999998579
 30
0.0
 40
3.0
100
AcDbArc
 50
180.0
 51
270.00000000000108
  0
INSERT
  5
274
100
AcDbEntity
100
AcDbBlockReference
  8
09 - Right End Cap
 62
256
370
-1
  6
ByLayer
  2
tcutout
 10
222.3000000000000114
 20
-147.1499999999997499
 30
0.0
 50
180.0
 44
1.0
 45
1.0
  0
LINE
  5
275
100
AcDbEntity
100
AcDbLine
  8
09 - Right End Cap
 62
256
370
-1
  6
ByLayer
 10
184.7999999999997272
 20
-94.2500000000001705
 30
0.0
 11
184.7999999999998977
 21
-153.2499999999997158
 31
0.0
  0
LINE
  5
276
100
AcDbEntity
100
AcDbLine
  8
09 - Right End Cap
 62
256
370
-1
  6
ByLayer
 10
259.799999999999784
 20
-94.2500000000002132
 30
0.0
 11
259.8000000000001251
 21
-153.249999999999801
 31
0.0
  0
LINE
  5
277
100
AcDbEntity
100
AcDbLine
  8
01 - Front
 62
256
370
-1
  6
ByLayer
 10
184.7999999999998977
 20
-153.2499999999997158
 30
0.0
 11
259.8000000000001251
 21
-153.249999999999801
 31
0.0
  0
LINE
  5
278
100
AcDbEntity
100
AcDbLine
  8
07 - Left End Cap
 62
256
370
-1
  6
ByLayer
 10
-315.1999999999998749
 20
-94.2500000000000711
 30
0.0
 11
-315.2000000000002728
 21
-153.2499999999998295
 31
0.0
  0
LINE
  5
279
100
AcDbEntity
100
AcDbLine
  8
07 - Left End Cap
 62
256
370
-1
  6
ByLayer
 10
-240.1999999999998749
 20
-94.2500000000000853
 30
0.0
 11
-240.1999999999999886
 21
-153.2499999999997726
 31
0.0
  0
LINE
  5
27A
100
AcDbEntity
100
AcDbLine
  8
01 - Front
 62
256
370
-1
  6
ByLayer
 10
-315.2000000000002728
 20
-153.2499999999998295
 30
0.0
 11
-240.1999999999999886
 21
-153.2499999999997726
 31
0.0
  0
LINE
  5
27B
100
AcDbEntity
100
AcDbLine
  8
Drawings
 62
256
370
-1
  6
ByLayer
 10
-315.200000000000216
 20
-147.1500000000000625
 30
0.0
 11
415.0
 21
-147.149999999999892
 31
0.0
  0
LINE
  5
27C
100
AcDbEntity
100
AcDbLine
  8
Drawings
 62
256
370
-1
  6
ByLayer
 10
340.0
 20
-118.7499999999997442
 30
0.0
 11
340.0000000000000568
 21
-147.1499999999999204
 31
0.0
  0
LINE
  5
27D
100
AcDbEntity
100
AcDbLine
  8
06 - Drive Rib
 62
256
370
-1
  6
ByLayer
 10
325.0000000000000568
 20
-147.149999999999892
 30
0.0
 11
310.0000000000000568
 21
-147.1500000000000341
 31
0.0
  0
LINE
  5
27E
100
AcDbEntity
100
AcDbLine
  8
06 - Drive Rib
 62
256
370
-1
  6
ByLayer
 10
345.0000000000000568
 20
-147.1500000000001478
 30
0.0
 11
355.0000000000000568
 21
-147.1500000000002615
 31
0.0
  0
LINE
  5
27F
100
AcDbEntity
100
AcDbLine
  8
06 - Drive Rib
 62
256
370
-1
  6
ByLayer
 10
335.0000000000000568
 20
-147.1500000000000057
 30
0.0
 11
335.0000000000000568
 21
-150.6500000000001194
 31
0.0
  0
ARC
  5
280
100
AcDbEntity
  8
06 - Drive Rib
 62
256
370
-1
  6
ByLayer
100
AcDbCircle
 10
335.5000000000000568
 20
-150.6500000000001194
 30
0.0
 40
0.5
100
AcDbArc
 50
180.0
 51
270.0
  0
LINE
  5
281
100
AcDbEntity
100
AcDbLine
  8
06 - Drive Rib
 62
256
370
-1
  6
ByLayer
 10
335.5000000000000568
 20
-151.1500000000001194
 30
0.0
 11
344.5000000000000568
 21
-151.1500000000000341
 31
0.0
  0
LINE
  5
282
100
AcDbEntity
100
AcDbLine
  8
06 - Drive Rib
 62
256
370
-1
  6
ByLayer
 10
345.0000000000000568
 20
-150.6500000000000341
 30
0.0
 11
345.0000000000000568
 21
-147.1500000000001478
 31
0.0
  0
ARC
  5
283
100
AcDbEntity
  8
06 - Drive Rib
 62
256
370
-1
  6
ByLayer
100
AcDbCircle
 10
344.5000000000000568
 20
-150.6500000000000341
 30
0.0
 40
0.5
100
AcDbArc
 50
270.0
 51
0.0
  0
LINE
  5
284
100
AcDbEntity
100
AcDbLine
  8
11 - Belt Clamps
 62
256
370
-1
  6
ByLayer
 10
403.9552790633300674
 20
-124.2499999999995168
 30
0.0
 11
403.9552790633300674
 21
-146.0000000000009663
 31
0.0
  0
LINE
  5
285
100
AcDbEntity
100
AcDbLine
  8
11 - Belt Clamps
 62
256
370
-1
  6
ByLayer
 10
413.9552790633300674
 20
-146.0000000000006253
 30
0.0
 11
403.9552790633300674
 21
-146.0000000000009663
 31
0.0
  0
LINE
  5
286
100
AcDbEntity
100
AcDbLine
  8
11 - Belt Clamps
 62
256
370
-1
  6
ByLayer
 10
413.9552790633300674
 20
-124.2499999999993463
 30
0.0
 11
413.9552790633300674
 21
-146.0000000000006253
 31
0.0
  0
LINE
  5
287
100
AcDbEntity
100
AcDbLine
  8
11 - Belt Clamps
 62
256
370
-1
  6
ByLayer
 10
383.9552790633300674
 20
-124.2499999999995737
 30
0.0
 11
383.9552790633300674
 21
-146.0000000000009663
 31
0.0
  0
LINE
  5
288
100
AcDbEntity
100
AcDbLine
  8
11 - Belt Clamps
 62
256
370
-1
  6
ByLayer
 10
393.9552790633300674
 20
-146.0000000000005116
 30
0.0
 11
383.9552790633300674
 21
-146.0000000000009663
 31
0.0
  0
LINE
  5
289
100
AcDbEntity
100
AcDbLine
  8
11 - Belt Clamps
 62
256
370
-1
  6
ByLayer
 10
393.9552790633300674
 20
-124.2499999999994316
 30
0.0
 11
393.9552790633300674
 21
-146.0000000000005116
 31
0.0
  0
LINE
  5
28A
100
AcDbEntity
100
AcDbLine
  8
Drawings
 62
256
370
-1
  6
ByLayer
 10
-187.7000000000000455
 20
-119.0499999999999829
 30
0.0
 11
-187.6991488122580449
 21
-147.1499999999999204
 31
0.0
  0
INSERT
  5
28B
100
AcDbEntity
100
AcDbBlockReference
  8
01 - Front
 62
256
370
-1
  6
ByLayer
  2
tgrips-5
 10
370.0
 20
-133.7499999999998295
 30
0.0
 50
270.0
 44
1.0
 45
1.0
  0
INSERT
  5
28C
100
AcDbEntity
100
AcDbBlockReference
  8
01 - Front
 62
256
370
-1
  6
ByLayer
  2
tgrips-5
 10
310.0
 20
-133.7499999999997158
 30
0.0
 50
90.0
 44
1.0
 45
1.0
  0
LINE
  5
28D
100
AcDbEntity
100
AcDbLine
  8
01 - Front
 62
256
370
-1
  6
ByLayer
 10
310.0
 20
-118.7499999999997442
 30
0.0
 11
310.0022436396334911
 21
-123.7418037043972845
 31
0.0
  0
LINE
  5
28E
100
AcDbEntity
100
AcDbLine
  8
01 - Front
 62
256
370
-1
  6
ByLayer
 10
370.0
 20
-118.7499999999998295
 30
0.0
 11
369.9977563603703175
 21
-123.7581962956022608
 31
0.0
  0
LINE
  5
28F
100
AcDbEntity
100
AcDbLine
  8
06 - Drive Rib
 62
256
370
-1
  6
ByLayer
 10
310.0022436396296825
 20
-147.1499999999997215
 30
0.0
 11
335.0000000000000568
 21
-147.1500000000000057
 31
0.0
  0
LINE
  5
290
100
AcDbEntity
100
AcDbLine
  8
06 - Drive Rib
 62
256
370
-1
  6
ByLayer
 10
369.9977563603665089
 20
-147.1500000000001478
 30
0.0
 11
355.0000000000000568
 21
-147.1500000000002615
 31
0.0
  0
LINE
  5
291
100
AcDbEntity
100
AcDbLine
  8
01 - Front
 62
256
370
-1
  6
ByLayer
 10
369.9977563603665089
 20
-147.1500000000001478
 30
0.0
 11
369.9977563603665089
 21
-143.7581962956022608
 31
0.0
  0
LINE
  5
292
100
AcDbEntity
100
AcDbLine
  8
01 - Front
 62
256
370
-1
  6
ByLayer
 10
310.0022436396296825
 20
-147.1499999999997215
 30
0.0
 11
310.0022436396296825
 21
-143.7418037043972845
 31
0.0
  0
MTEXT
  5
293
100
AcDbEntity
100
AcDbMText
  8
Text
 62
256
370
-1
  6
ByLayer
 10
320.7777777777777715
 20
-125.6666666666666572
 30
0.0
 40
5.0
 41
100.0
 71
5
 72
2
  1
Drive
  7
standard
 50
0.0
 73
0
 44
1.0
  0
INSERT
  5
294
100
AcDbEntity
100
AcDbBlockReference
  8
04 - Bottom
 62
256
370
-1
  6
ByLayer
  2
tgrips
 10
-46.6250000000000568
 20
-247.4999999999999716
 30
0.0
 41
1.0
 42
-1.0
 43
1.0
 50
360.0
 44
1.0
 45
1.0
  0
INSERT
  5
295
100
AcDbEntity
100
AcDbBlockReference
  8
04 - Bottom
 62
256
370
-1
  6
ByLayer
  2
tgrips
 10
-46.6250000000001705
 20
-187.5000000000000853
 30
0.0
 41
1.0
 42
-1.0
 43
1.0
 50
180.0
 44
1.0
 45
1.0
  0
INSERT
  5
296
100
AcDbEntity
100
AcDbBlockReference
  8
02 - Back
 62
256
370
-1
  6
ByLayer
  2
tcutout
 10
-46.6250000000000284
 20
147.1500000000000341
 30
0.0
 44
1.0
 45
1.0
  0
INSERT
  5
297
100
AcDbEntity
100
AcDbBlockReference
  8
01 - Front
 62
256
370
-1
  6
ByLayer
  2
tcutout
 10
-46.6250000000000568
 20
-147.1500000000000057
 30
0.0
 41
1.0
 42
-1.0
 43
1.0
 44
1.0
 45
1.0
  0
LINE
  5
298
100
AcDbEntity
100
AcDbLine
  8
04 - Bottom
 62
256
370
-1
  6
ByLayer
 10
-31.6250000000001705
 20
-187.5000000000001421
 30
0.0
 11
84.9999999999999858
 21
-187.5000000000000853
 31
0.0
  0
LINE
  5
299
100
AcDbEntity
100
AcDbLine
  8
04 - Bottom
 62
256
370
-1
  6
ByLayer
 10
-31.6250000000000568
 20
-247.5000000000000568
 30
0.0
 11
84.9999999999999858
 21
-247.5000000000000853
 31
0.0
  0
LINE
  5
29A
100
AcDbEntity
100
AcDbLine
  8
Drawings - Y Travel
 62
256
370
-1
  6
ByLayer
 10
246.9500000000000455
 20
-93.6250000000000142
 30
0.0
 11
-302.3500000000001364
 21
-93.6250000000000995
 31
0.0
  0
LINE
  5
29B
100
AcDbEntity
100
AcDbLine
  8
Drawings - Y Travel
 62
256
370
-1
  6
ByLayer
 10
-302.3500000000001364
 20
-103.0250000000001052
 30
0.0
 11
246.9500000000000455
 21
-103.0250000000000199
 31
0.0
  0
ARC
  5
29C
100
AcDbEntity
  8
0
 62
256
370
-1
  6
ByLayer
100
AcDbCircle
 10
-96.1933796515994857
 20
148.25
 30
0.0
 40
5.0
100
AcDbArc
 50
180.0
 51
360.0
  0
CIRCLE
  5
29D
100
AcDbEntity
100
AcDbCircle
  8
0
 62
256
370
-1
  6
ByLayer
 10
-89.6054386222166954
 20
139.0701371070793755
 30
0.0
 40
2.0
  0
CIRCLE
  5
29E
100
AcDbEntity
100
AcDbCircle
  8
0
 62
256
370
-1
  6
ByLayer
 10
-103.1699238795624041
 20
139.0701371070794323
 30
0.0
 40
2.0
  0
LINE
  5
29F
100
AcDbEntity
100
AcDbLine
  8
01 - Front
 62
256
370
-1
  6
ByLayer
 10
-125.0000000000000284
 20
153.2499999999999432
 30
0.0
 11
-104.1933796515995141
 21
153.2499999999999716
 31
0.0
  0
LINE
  5
2A0
100
AcDbEntity
100
AcDbLine
  8
0
 62
256
370
-1
  6
ByLayer
 10
-101.1933796515994999
 20
148.25
 30
0.0
 11
-101.1933796515995141
 21
150.25
 31
0.0
  0
ARC
  5
2A1
100
AcDbEntity
  8
10 - Right End Top Cap
 62
256
370
-1
  6
ByLayer
100
AcDbCircle
 10
-104.1933796515995141
 20
150.2499999999999716
 30
0.0
 40
3.0
100
AcDbArc
 50
0.0
 51
90.0
  0
LINE
  5
2A2
100
AcDbEntity
100
AcDbLine
  8
0
 62
256
370
-1
  6
ByLayer
 10
-91.1933796515995141
 20
150.25
 30
0.0
 11
-91.1933796515995141
 21
148.2499999999999432
 31
0.0
  0
LINE
  5
2A3
100
AcDbEntity
100
AcDbLine
  8
01 - Front
 62
256
370
-1
  6
ByLayer
 10
-88.1933796515995141
 20
153.25
 30
0.0
 11
124.9999999999999716
 21
153.2500000000002842
 31
0.0
  0
ARC
  5
2A4
100
AcDbEntity
  8
10 - Right End Top Cap
 62
256
370
-1
  6
ByLayer
100
AcDbCircle
 10
-88.1933796515995141
 20
150.25
 30
0.0
 40
3.0
100
AcDbArc
 50
90.0
 51
180.0
  0
INSERT
  5
2A5
100
AcDbEntity
100
AcDbBlockReference
  8
10 - Right End Top Cap
 62
256
370
-1
  6
ByLayer
  2
Mechanical Endstop
 10
202.7500000000000568
 20
-42.5538355244723689
 30
0.0
 44
1.0
 45
1.0
  0
INSERT
  5
2A6
100
AcDbEntity
100
AcDbBlockReference
  8
08 - Left End Top Cap
 62
256
370
-1
  6
ByLayer
  2
Mechanical Endstop
 10
-297.2499999999997726
 20
-41.9999999999999645
 30
0.0
 44
1.0
 45
1.0
  0
LINE
  5
2A7
100
AcDbEntity
100
AcDbLine
  8
04 - Bottom
 62
256
370
-1
  6
ByLayer
 10
-56.1250000000000782
 20
-202.5
 30
0.0
 11
-56.1250000000000782
 21
-202.5000000000000284
 31
0.0
  0
LINE
  5
2A8
100
AcDbEntity
100
AcDbLine
  8
04 - Bottom
 62
256
370
-1
  6
ByLayer
 10
-56.1250000000000782
 20
-232.5
 30
0.0
 11
-56.1250000000000782
 21
-232.4999999999999432
 31
0.0
  0
ARC
  5
2A9
100
AcDbEntity
  8
0
 62
256
370
-1
  6
ByLayer
100
AcDbCircle
 10
-46.425000000000118
 20
-213.5
 30
0.0
 40
1.0
100
AcDbArc
 50
0.0
 51
89.9999999999995879
  0
ARC
  5
2AA
100
AcDbEntity
  8
0
 62
256
370
-1
  6
ByLayer
100
AcDbCircle
 10
-46.425000000000118
 20
-221.5
 30
0.0
 40
1.0
100
AcDbArc
 50
269.9999999999996021
 51
0.0
  0
LINE
  5
2AB
100
AcDbEntity
100
AcDbLine
  8
04 - Bottom
 62
256
370
-1
  6
ByLayer
 10
-45.425000000000118
 20
-213.5
 30
0.0
 11
-45.425000000000118
 21
-221.5
 31
0.0
  0
LINE
  5
2AC
100
AcDbEntity
100
AcDbLine
  8
02 - Back
 62
256
370
-1
  6
ByLayer
 10
-55.6250000000000782
 20
-211.5
 30
0.0
 11
-55.6250000000000782
 21
-202.5
 31
0.0
  0
LINE
  5
2AD
100
AcDbEntity
100
AcDbLine
  8
0
 62
256
370
-1
  6
ByLayer
 10
-46.425000000000118
 20
-212.5
 30
0.0
 11
-54.6250000000000782
 21
-212.5
 31
0.0
  0
ARC
  5
2AE
100
AcDbEntity
  8
02 - Back
 62
256
370
-1
  6
ByLayer
100
AcDbCircle
 10
-54.6250000000000782
 20
-211.5
 30
0.0
 40
1.0
100
AcDbArc
 50
180.0
 51
270.0
  0
LINE
  5
2AF
100
AcDbEntity
100
AcDbLine
  8
0
 62
256
370
-1
  6
ByLayer
 10
-46.425000000000118
 20
-222.5
 30
0.0
 11
-54.6250000000000782
 21
-222.5
 31
0.0
  0
LINE
  5
2B0
100
AcDbEntity
100
AcDbLine
  8
02 - Back
 62
256
370
-1
  6
ByLayer
 10
-55.6250000000000782
 20
-223.5
 30
0.0
 11
-55.6250000000000782
 21
-232.5
 31
0.0
  0
ARC
  5
2B1
100
AcDbEntity
  8
02 - Back
 62
256
370
-1
  6
ByLayer
100
AcDbCircle
 10
-54.6250000000000782
 20
-223.5
 30
0.0
 40
1.0
100
AcDbArc
 50
90.0
 51
180.0
  0
LINE
  5
2B2
100
AcDbEntity
100
AcDbLine
  8
04 - Bottom
 62
256
370
-1
  6
ByLayer
 10
-61.6250000000000568
 20
-232.5000000000000568
 30
0.0
 11
-55.6250000000000782
 21
-232.5
 31
0.0
  0
LINE
  5
2B3
100
AcDbEntity
100
AcDbLine
  8
04 - Bottom
 62
256
370
-1
  6
ByLayer
 10
-61.6250000000000568
 20
-232.5000000000000568
 30
0.0
 11
-61.6250000000000568
 21
-247.4999999999999716
 31
0.0
  0
LINE
  5
2B4
100
AcDbEntity
100
AcDbLine
  8
04 - Bottom
 62
256
370
-1
  6
ByLayer
 10
-61.6250000000000782
 20
-202.5000000000000284
 30
0.0
 11
-61.6250000000001705
 21
-187.5000000000000853
 31
0.0
  0
LINE
  5
2B5
100
AcDbEntity
100
AcDbLine
  8
04 - Bottom
 62
256
370
-1
  6
ByLayer
 10
-61.6250000000000782
 20
-202.5000000000000284
 30
0.0
 11
-55.6250000000000782
 21
-202.5
 31
0.0
  0
LINE
  5
2B6
100
AcDbEntity
100
AcDbLine
  8
Drawings - Y Travel
 62
256
370
-1
  6
ByLayer
 10
-205.7000000000000455
 20
-132.3999999999997215
 30
0.0
 11
-169.7000000000000455
 21
-132.3999999999997215
 31
0.0
  0
INSERT
  5
2B7
100
AcDbEntity
100
AcDbBlockReference
  8
05 - Idler Rib
 62
256
370
-1
  6
ByLayer
  2
tgrips-5
 10
-157.7000000000000455
 20
-133.7500000000000284
 30
0.0
 50
-90.0
 44
1.0
 45
1.0
  0
INSERT
  5
2B8
100
AcDbEntity
100
AcDbBlockReference
  8
05 - Idler Rib
 62
256
370
-1
  6
ByLayer
  2
tgrips-5
 10
-217.7000000000000455
 20
-133.7500000000000284
 30
0.0
 50
90.0
 44
1.0
 45
1.0
  0
LINE
  5
2B9
100
AcDbEntity
100
AcDbLine
  8
05 - Idler Rib
 62
256
370
-1
  6
ByLayer
 10
-217.7000000000000455
 20
-118.7500000000000284
 30
0.0
 11
-217.6977563603665544
 21
-123.7418037043975687
 31
0.0
  0
LINE
  5
2BA
100
AcDbEntity
100
AcDbLine
  8
05 - Idler Rib
 62
256
370
-1
  6
ByLayer
 10
-157.7000000000000455
 20
-118.7500000000000853
 30
0.0
 11
-157.702243639629728
 21
-123.7581962956024881
 31
0.0
  0
MTEXT
  5
2BB
100
AcDbEntity
100
AcDbMText
  8
Text
 62
256
370
-1
  6
ByLayer
 10
-187.7000000000001023
 20
-135.5749999999997328
 30
0.0
 40
5.0
 41
100.0
 71
5
 72
2
  1
Idler
  7
standard
 50
0.0
 73
0
 44
1.0
  0
LINE
  5
2BC
100
AcDbEntity
100
AcDbLine
  8
Drawings - Y Travel
 62
256
370
-1
  6
ByLayer
 10
-205.7000000000000455
 20
-141.9249999999997272
 30
0.0
 11
-169.7000000000000455
 21
-141.9249999999997272
 31
0.0
  0
LINE
  5
2BD
100
AcDbEntity
100
AcDbLine
  8
05 - Idler Rib
 62
256
370
-1
  6
ByLayer
 10
-217.7000000000000455
 20
-118.7500000000000284
 30
0.0
 11
-197.6918037043975858
 21
-118.7522436396296683
 31
0.0
  0
LINE
  5
2BE
100
AcDbEntity
100
AcDbLine
  8
05 - Idler Rib
 62
256
370
-1
  6
ByLayer
 10
-177.6918037043975858
 20
-118.7522436396335053
 30
0.0
 11
-157.7000000000000455
 21
-118.7500000000000853
 31
0.0
  0
LINE
  5
2BF
100
AcDbEntity
100
AcDbLine
  8
05 - Idler Rib
 62
256
370
-1
  6
ByLayer
 10
-217.6977563603703629
 20
-143.7418037043975687
 30
0.0
 11
-217.6991488122580449
 21
-146.8500000000000512
 31
0.0
  0
LINE
  5
2C0
100
AcDbEntity
100
AcDbLine
  8
05 - Idler Rib
 62
256
370
-1
  6
ByLayer
 10
-157.7022436396335934
 20
-143.7581962956024881
 30
0.0
 11
-157.6991488122580449
 21
-146.8500000000001933
 31
0.0
  0
CIRCLE
  5
2C1
100
AcDbEntity
100
AcDbCircle
  8
05 - Idler Rib
 62
256
370
-1
  6
ByLayer
 10
-174.6999999999999886
 20
-125.8999999999997499
 30
0.0
 40
2.0
  0
CIRCLE
  5
2C2
100
AcDbEntity
100
AcDbCircle
  8
05 - Idler Rib
 62
256
370
-1
  6
ByLayer
 10
-200.6999999999999886
 20
-125.8999999999997499
 30
0.0
 40
2.0
  0
ARC
  5
2C3
100
AcDbEntity
  8
05 - Idler Rib
 62
256
370
-1
  6
ByLayer
100
AcDbCircle
 10
-202.2000000000000455
 20
-152.2499999999998863
 30
0.0
 40
0.5
100
AcDbArc
 50
180.0
 51
269.9999999999967599
  0
ARC
  5
2C4
100
AcDbEntity
  8
05 - Idler Rib
 62
256
370
-1
  6
ByLayer
100
AcDbCircle
 10
-173.2000000000000455
 20
-152.2500000000001705
 30
0.0
 40
0.5
100
AcDbArc
 50
269.9999999999967599
 51
0.0
  0
LINE
  5
2C5
100
AcDbEntity
100
AcDbLine
  8
05 - Idler Rib
 62
256
370
-1
  6
ByLayer
 10
-173.2000000000000739
 20
-152.7500000000001705
 30
0.0
 11
-202.2000000000000739
 21
-152.7499999999998863
 31
0.0
  0
CIRCLE
  5
2C6
100
AcDbEntity
100
AcDbCircle
  8
Drawings - Y Travel
 62
256
370
-1
  6
ByLayer
 10
-174.6999999999999886
 20
-125.8999999999997499
 30
0.0
 40
6.5
  0
CIRCLE
  5
2C7
100
AcDbEntity
100
AcDbCircle
  8
Drawings - Y Travel
 62
256
370
-1
  6
ByLayer
 10
-200.6999999999999886
 20
-125.8999999999997499
 30
0.0
 40
6.5
  0
CIRCLE
  5
2C8
100
AcDbEntity
100
AcDbCircle
  8
06 - Top
 62
256
370
-1
  6
ByLayer
 10
74.5250000000000199
 20
-137.462499999999693
 30
0.0
 40
7.7999999999999998
  0
CIRCLE
  5
2C9
100
AcDbEntity
100
AcDbCircle
  8
01 - Front
 62
256
370
-1
  6
ByLayer
 10
-70.5250000000000625
 20
-137.462499999999693
 30
0.0
 40
7.7999999999999998
  0
CIRCLE
  5
2CA
100
AcDbEntity
100
AcDbCircle
  8
02 - Back
 62
256
370
-1
  6
ByLayer
 10
74.5250000000000483
 20
137.4625000000000341
 30
0.0
 40
7.7999999999999998
  0
CIRCLE
  5
2CB
100
AcDbEntity
100
AcDbCircle
  8
02 - Back
 62
256
370
-1
  6
ByLayer
 10
-70.5250000000000057
 20
137.4624999999999773
 30
0.0
 40
7.7999999999999998
  0
LINE
  5
2CC
100
AcDbEntity
100
AcDbLine
  8
05 - Idler Rib
 62
256
370
-1
  6
ByLayer
 10
-202.7000000000000455
 20
-152.2499999999998863
 30
0.0
 11
-202.7000000000000455
 21
-146.8500000000000796
 31
0.0
  0
LINE
  5
2CD
100
AcDbEntity
100
AcDbLine
  8
05 - Idler Rib
 62
256
370
-1
  6
ByLayer
 10
-172.7000000000000455
 20
-146.8500000000001648
 30
0.0
 11
-172.7000000000000455
 21
-152.2500000000001705
 31
0.0
  0
LINE
  5
2CE
100
AcDbEntity
100
AcDbLine
  8
05 - Idler Rib
 62
256
370
-1
  6
ByLayer
 10
-217.6991488122580449
 20
-146.8500000000000512
 30
0.0
 11
-202.7000000000000455
 21
-146.8500000000000796
 31
0.0
  0
LINE
  5
2CF
100
AcDbEntity
100
AcDbLine
  8
05 - Idler Rib
 62
256
370
-1
  6
ByLayer
 10
-172.7000000000000455
 20
-146.8500000000001648
 30
0.0
 11
-157.6991488122580449
 21
-146.8500000000001933
 31
0.0
  0
LINE
  5
2D0
100
AcDbEntity
100
AcDbLine
  8
Drawings - 624 Bearing Stackup
 62
256
370
-1
  6
ByLayer
 10
-68.0250000000000199
 20
-213.4999999999999432
 30
0.0
 11
-64.8250000000000313
 21
-213.4999999999999432
 31
0.0
  0
LINE
  5
2D1
100
AcDbEntity
100
AcDbLine
  8
Drawings - 624 Bearing Stackup
 62
256
370
-1
  6
ByLayer
 10
-68.0250000000000199
 20
-221.4999999999999147
 30
0.0
 11
-64.8250000000000028
 21
-221.4999999999999716
 31
0.0
  0
LINE
  5
2D2
100
AcDbEntity
100
AcDbLine
  8
Drawings - 624 Bearing Stackup
 62
256
370
-1
  6
ByLayer
 10
-64.8250000000000313
 20
-213.4999999999999432
 30
0.0
 11
-64.8250000000000028
 21
-221.4999999999999716
 31
0.0
  0
LINE
  5
2D3
100
AcDbEntity
100
AcDbLine
  8
Drawings - 624 Bearing Stackup
 62
256
370
-1
  6
ByLayer
 10
-68.0250000000000199
 20
-213.4999999999999432
 30
0.0
 11
-68.0250000000000199
 21
-221.4999999999999147
 31
0.0
  0
LINE
  5
2D4
100
AcDbEntity
100
AcDbLine
  8
Drawings - 624 Bearing Stackup
 62
256
370
-1
  6
ByLayer
 10
-73.0250000000000767
 20
-210.9999999999999432
 30
0.0
 11
-68.0249999999999915
 21
-210.9999999999999432
 31
0.0
  0
LINE
  5
2D5
100
AcDbEntity
100
AcDbLine
  8
Drawings - 624 Bearing Stackup
 62
256
370
-1
  6
ByLayer
 10
-68.0249999999999915
 20
-210.9999999999999432
 30
0.0
 11
-68.0250000000000199
 21
-223.9999999999999147
 31
0.0
  0
LINE
  5
2D6
100
AcDbEntity
100
AcDbLine
  8
Drawings - 624 Bearing Stackup
 62
256
370
-1
  6
ByLayer
 10
-73.0250000000000767
 20
-210.9999999999999432
 30
0.0
 11
-73.0250000000000199
 21
-223.9999999999999147
 31
0.0
  0
LINE
  5
2D7
100
AcDbEntity
100
AcDbLine
  8
Drawings - 624 Bearing Stackup
 62
256
370
-1
  6
ByLayer
 10
-73.0250000000000199
 20
-223.9999999999999147
 30
0.0
 11
-68.0250000000000199
 21
-223.9999999999999147
 31
0.0
  0
LINE
  5
2D8
100
AcDbEntity
100
AcDbLine
  8
Drawings - 624 Bearing Stackup
 62
256
370
-1
  6
ByLayer
 10
-77.0250000000000199
 20
-213.9999999999999147
 30
0.0
 11
-73.0250000000000767
 21
-213.9999999999999716
 31
0.0
  0
LINE
  5
2D9
100
AcDbEntity
100
AcDbLine
  8
Drawings - 624 Bearing Stackup
 62
256
370
-1
  6
ByLayer
 10
-77.0250000000000199
 20
-220.9999999999999147
 30
0.0
 11
-73.0250000000000767
 21
-220.9999999999999147
 31
0.0
  0
LINE
  5
2DA
100
AcDbEntity
100
AcDbLine
  8
Drawings - 624 Bearing Stackup
 62
256
370
-1
  6
ByLayer
 10
-77.0250000000000199
 20
-213.9999999999999147
 30
0.0
 11
-77.0250000000000199
 21
-220.9999999999999147
 31
0.0
  0
LINE
  5
2DB
100
AcDbEntity
100
AcDbLine
  8
Drawings - 624 Bearing Stackup
 62
256
370
-1
  6
ByLayer
 10
-64.8250000000000313
 20
-213.4999999999999432
 30
0.0
 11
-61.6250000000000142
 21
-213.4999999999999432
 31
0.0
  0
LINE
  5
2DC
100
AcDbEntity
100
AcDbLine
  8
Drawings - 624 Bearing Stackup
 62
256
370
-1
  6
ByLayer
 10
-64.8250000000000028
 20
-221.4999999999999716
 30
0.0
 11
-61.6250000000000426
 21
-221.4999999999999716
 31
0.0
  0
LINE
  5
2DD
100
AcDbEntity
100
AcDbLine
  8
Drawings - 624 Bearing Stackup
 62
256
370
-1
  6
ByLayer
 10
-61.6250000000000142
 20
-213.4999999999999432
 30
0.0
 11
-61.6250000000000426
 21
-221.4999999999999716
 31
0.0
  0
LINE
  5
2DE
100
AcDbEntity
100
AcDbLine
  8
Drawings - 624 Bearing Stackup
 62
256
370
-1
  6
ByLayer
 10
-64.8250000000000313
 20
-213.4999999999999432
 30
0.0
 11
-64.8250000000000028
 21
-221.4999999999999716
 31
0.0
  0
LINE
  5
2DF
100
AcDbEntity
100
AcDbLine
  8
Drawings - 624 Bearing Stackup
 62
256
370
-1
  6
ByLayer
 10
-55.5250000000000199
 20
-213.4999999999999147
 30
0.0
 11
-55.5250000000000199
 21
-221.4999999999999147
 31
0.0
  0
LINE
  5
2E0
100
AcDbEntity
100
AcDbLine
  8
Drawings - 624 Bearing Stackup
 62
256
370
-1
  6
ByLayer
 10
-55.5250000000000199
 20
-213.4999999999999147
 30
0.0
 11
-52.3250000000000313
 21
-213.4999999999999147
 31
0.0
  0
LINE
  5
2E1
100
AcDbEntity
100
AcDbLine
  8
Drawings - 624 Bearing Stackup
 62
256
370
-1
  6
ByLayer
 10
-55.5250000000000199
 20
-221.4999999999999147
 30
0.0
 11
-52.3250000000000313
 21
-221.4999999999999147
 31
0.0
  0
LINE
  5
2E2
100
AcDbEntity
100
AcDbLine
  8
Drawings - 624 Bearing Stackup
 62
256
370
-1
  6
ByLayer
 10
-52.3250000000000313
 20
-213.4999999999999147
 30
0.0
 11
-52.3250000000000313
 21
-221.4999999999999147
 31
0.0
  0
LINE
  5
2E3
100
AcDbEntity
100
AcDbLine
  8
Drawings - 624 Bearing Stackup
 62
256
370
-1
  6
ByLayer
 10
-52.3250000000000313
 20
-213.4999999999998863
 30
0.0
 11
-49.1250000000000426
 21
-213.4999999999998863
 31
0.0
  0
LINE
  5
2E4
100
AcDbEntity
100
AcDbLine
  8
Drawings - 624 Bearing Stackup
 62
256
370
-1
  6
ByLayer
 10
-52.3250000000000313
 20
-221.4999999999999147
 30
0.0
 11
-49.1250000000000426
 21
-221.4999999999999147
 31
0.0
  0
LINE
  5
2E5
100
AcDbEntity
100
AcDbLine
  8
Drawings - 624 Bearing Stackup
 62
256
370
-1
  6
ByLayer
 10
-49.1250000000000426
 20
-213.4999999999998863
 30
0.0
 11
-49.1250000000000426
 21
-221.4999999999999147
 31
0.0
  0
LINE
  5
2E6
100
AcDbEntity
100
AcDbLine
  8
Drawings - 624 Bearing Stackup
 62
256
370
-1
  6
ByLayer
 10
-48.0250000000000483
 20
-214.9999999999999147
 30
0.0
 11
-73.0250000000000483
 21
-214.9999999999999147
 31
0.0
  0
LINE
  5
2E7
100
AcDbEntity
100
AcDbLine
  8
Drawings - 624 Bearing Stackup
 62
256
370
-1
  6
ByLayer
 10
-48.0250000000000199
 20
-219.9999999999999147
 30
0.0
 11
-73.0250000000000199
 21
-219.9999999999999147
 31
0.0
  0
LINE
  5
2E8
100
AcDbEntity
100
AcDbLine
  8
Drawings - 624 Bearing Stackup
 62
256
370
-1
  6
ByLayer
 10
-48.0250000000000483
 20
-214.9999999999999147
 30
0.0
 11
-48.0250000000000199
 21
-219.9999999999999147
 31
0.0
  0
LINE
  5
2E9
100
AcDbEntity
100
AcDbLine
  8
Drawings - Y Travel
 62
256
370
-1
  6
ByLayer
 10
-75.2875000000000512
 20
-247.5000000000000568
 30
0.0
 11
-75.2875000000000512
 21
153.25
 31
0.0
  0
LINE
  5
2EA
100
AcDbEntity
100
AcDbLine
  8
Drawings - Y Travel
 62
256
370
-1
  6
ByLayer
 10
-70.5250000000000483
 20
-247.5000000000000568
 30
0.0
 11
-70.5250000000000483
 21
153.25
 31
0.0
  0
LINE
  5
2EB
100
AcDbEntity
100
AcDbLine
  8
Drawings - Y Travel
 62
256
370
-1
  6
ByLayer
 10
-65.7625000000000455
 20
-247.5000000000000568
 30
0.0
 11
-65.7625000000000455
 21
153.25
 31
0.0
  0
LINE
  5
2EC
100
AcDbEntity
100
AcDbLine
  8
Drawings - Y Travel
 62
256
370
-1
  6
ByLayer
 10
69.7625000000000171
 20
-247.5000000000000853
 30
0.0
 11
69.7625000000000171
 21
153.2500000000002274
 31
0.0
  0
LINE
  5
2ED
100
AcDbEntity
100
AcDbLine
  8
Drawings - Y Travel
 62
256
370
-1
  6
ByLayer
 10
74.5250000000000199
 20
-247.5000000000000853
 30
0.0
 11
74.5250000000000199
 21
153.2500000000002274
 31
0.0
  0
LINE
  5
2EE
100
AcDbEntity
100
AcDbLine
  8
Drawings - Y Travel
 62
256
370
-1
  6
ByLayer
 10
79.2875000000000227
 20
-247.5000000000000853
 30
0.0
 11
79.2875000000000227
 21
153.2500000000002274
 31
0.0
  0
LINE
  5
2EF
100
AcDbEntity
100
AcDbLine
  8
Drawings - Secondary
 62
256
370
-1
  6
ByLayer
 10
-266.3499999999997954
 20
-87.3250000000001023
 30
0.0
 11
-266.3499999999997954
 21
-92.3250000000001307
 31
0.0
  0
LINE
  5
2F0
100
AcDbEntity
100
AcDbLine
  8
Drawings - Secondary
 62
256
370
-1
  6
ByLayer
 10
-266.3499999999997954
 20
-102.3250000000001023
 30
0.0
 11
-266.3499999999997954
 21
-107.3250000000001023
 31
0.0
  0
LINE
  5
2F1
100
AcDbEntity
100
AcDbLine
  8
Drawings - Secondary
 62
256
370
-1
  6
ByLayer
 10
-272.4999999999997726
 20
-87.3250000000001023
 30
0.0
 11
-272.4999999999997726
 21
-92.3250000000001023
 31
0.0
  0
LINE
  5
2F2
100
AcDbEntity
100
AcDbLine
  8
Drawings - Secondary
 62
256
370
-1
  6
ByLayer
 10
-272.4999999999998295
 20
-102.3250000000001023
 30
0.0
 11
-272.4999999999998295
 21
-107.3250000000001023
 31
0.0
  0
LINE
  5
2F3
100
AcDbEntity
100
AcDbLine
  8
Drawings - Secondary
 62
256
370
-1
  6
ByLayer
 10
-266.3499999999997954
 20
-87.3250000000001023
 30
0.0
 11
-272.4999999999997726
 21
-87.3250000000001023
 31
0.0
  0
LINE
  5
2F4
100
AcDbEntity
100
AcDbLine
  8
Drawings - Secondary
 62
256
370
-1
  6
ByLayer
 10
-272.4999999999997726
 20
-92.3250000000001023
 30
0.0
 11
-266.3499999999997954
 21
-92.3250000000001307
 31
0.0
  0
LINE
  5
2F5
100
AcDbEntity
100
AcDbLine
  8
Drawings - Secondary
 62
256
370
-1
  6
ByLayer
 10
-266.3499999999997954
 20
-102.3250000000001023
 30
0.0
 11
-272.4999999999997726
 21
-102.3250000000001023
 31
0.0
  0
LINE
  5
2F6
100
AcDbEntity
100
AcDbLine
  8
Drawings - Secondary
 62
256
370
-1
  6
ByLayer
 10
-272.4999999999998295
 20
-107.3250000000001023
 30
0.0
 11
-266.3499999999997954
 21
-107.3250000000001023
 31
0.0
  0
CIRCLE
  5
2F7
100
AcDbEntity
100
AcDbCircle
  8
Drawings - Secondary
 62
256
370
-1
  6
ByLayer
 10
-269.424999999999784
 20
-97.3250000000001023
 30
0.0
 40
1.5
  0
LINE
  5
2F8
100
AcDbEntity
100
AcDbLine
  8
Drawings - Secondary
 62
256
370
-1
  6
ByLayer
 10
-264.3499999999997385
 20
-102.3249999999995339
 30
0.0
 11
-276.3499999999997385
 21
-102.3250000000003865
 31
0.0
  0
LINE
  5
2F9
100
AcDbEntity
100
AcDbLine
  8
Drawings - Secondary
 62
256
370
-1
  6
ByLayer
 10
-319.8111111111111313
 20
-103.8053119919034941
 30
0.0
 11
-322.0333333333333599
 21
-103.8053119919035225
 31
0.0
  0
LINE
  5
2FA
100
AcDbEntity
100
AcDbLine
  8
Drawings - Secondary
 62
256
370
-1
  6
ByLayer
 10
-322.0333333333333599
 20
-103.8053119919035225
 30
0.0
 11
-322.0333333333333599
 21
-108.8053119919034941
 31
0.0
  0
LINE
  5
2FB
100
AcDbEntity
100
AcDbLine
  8
Drawings - Secondary
 62
256
370
-1
  6
ByLayer
 10
-322.0333333333333599
 20
-106.0275342141256942
 30
0.0
 11
-319.8111111111111313
 21
-106.0275342141257227
 31
0.0
  0
LINE
  5
2FC
100
AcDbEntity
100
AcDbLine
  8
Drawings - Secondary
 62
256
370
-1
  6
ByLayer
 10
-318.1444444444445026
 20
-108.8053119919034941
 30
0.0
 11
-318.1444444444445026
 21
-105.4719786585701513
 31
0.0
  0
LINE
  5
2FD
100
AcDbEntity
100
AcDbLine
  8
Drawings - Secondary
 62
256
370
-1
  6
ByLayer
 10
-318.1444444444445026
 20
-105.4719786585701513
 30
0.0
 11
-317.0333333333333599
 21
-105.4719786585701513
 31
0.0
  0
ARC
  5
2FE
100
AcDbEntity
  8
Drawings - Secondary
 62
256
370
-1
  6
ByLayer
100
AcDbCircle
 10
-317.0333333333333599
 20
-106.0275342141257227
 30
0.0
 40
0.5555555555555556
100
AcDbArc
 50
0.0
 51
90.0
  0
LINE
  5
2FF
100
AcDbEntity
100
AcDbLine
  8
Drawings - Secondary
 62
256
370
-1
  6
ByLayer
 10
-314.8111111111111313
 20
-106.583089769681294
 30
0.0
 11
-314.8111111111111882
 21
-107.6942008807923798
 31
0.0
  0
ARC
  5
300
100
AcDbEntity
  8
Drawings - Secondary
 62
256
370
-1
  6
ByLayer
100
AcDbCircle
 10
-313.7000000000000455
 20
-107.6942008807923798
 30
0.0
 40
1.1111111111111112
100
AcDbArc
 50
180.0
 51
0.0
  0
LINE
  5
301
100
AcDbEntity
100
AcDbLine
  8
Drawings - Secondary
 62
256
370
-1
  6
ByLayer
 10
-312.5888888888889596
 20
-107.6942008807924083
 30
0.0
 11
-312.5888888888889596
 21
-106.583089769681294
 31
0.0
  0
ARC
  5
302
100
AcDbEntity
  8
Drawings - Secondary
 62
256
370
-1
  6
ByLayer
100
AcDbCircle
 10
-313.7000000000000455
 20
-106.583089769681294
 30
0.0
 40
1.1111111111111112
100
AcDbArc
 50
0.0
 51
180.0
  0
LINE
  5
303
100
AcDbEntity
100
AcDbLine
  8
Drawings - Secondary
 62
256
370
-1
  6
ByLayer
 10
-310.922222222222274
 20
-108.8053119919034941
 30
0.0
 11
-310.922222222222274
 21
-105.4719786585701797
 31
0.0
  0
LINE
  5
304
100
AcDbEntity
100
AcDbLine
  8
Drawings - Secondary
 62
256
370
-1
  6
ByLayer
 10
-310.922222222222274
 20
-105.4719786585701797
 30
0.0
 11
-309.5333333333334167
 21
-105.4719786585701797
 31
0.0
  0
ARC
  5
305
100
AcDbEntity
  8
Drawings - Secondary
 62
256
370
-1
  6
ByLayer
100
AcDbCircle
 10
-309.5333333333334167
 20
-106.3053119919035225
 30
0.0
 40
0.8333333333333334
100
AcDbArc
 50
0.0
 51
90.0
  0
LINE
  5
306
100
AcDbEntity
100
AcDbLine
  8
Drawings - Secondary
 62
256
370
-1
  6
ByLayer
 10
-308.7000000000000455
 20
-106.3053119919034941
 30
0.0
 11
-308.7000000000000455
 21
-108.8053119919034941
 31
0.0
  0
LINE
  5
307
100
AcDbEntity
100
AcDbLine
  8
Drawings - Secondary
 62
256
370
-1
  6
ByLayer
 10
-307.0333333333333599
 20
-105.4719786585701797
 30
0.0
 11
-305.3666666666667311
 21
-105.4719786585701797
 31
0.0
  0
LINE
  5
308
100
AcDbEntity
100
AcDbLine
  8
Drawings - Secondary
 62
256
370
-1
  6
ByLayer
 10
-306.4777777777778169
 20
-103.8053119919034941
 30
0.0
 11
-306.4777777777778169
 21
-108.8053119919034941
 31
0.0
  0
LINE
  5
309
100
AcDbEntity
100
AcDbLine
  8
Drawings - Secondary
 62
256
370
-1
  6
ByLayer
 10
-293.8500000000001364
 20
-87.3250000000001023
 30
0.0
 11
-293.8500000000001364
 21
-92.3250000000001023
 31
0.0
  0
LINE
  5
30A
100
AcDbEntity
100
AcDbLine
  8
Drawings - Secondary
 62
256
370
-1
  6
ByLayer
 10
-293.8500000000001364
 20
-102.3250000000001023
 30
0.0
 11
-293.8500000000001364
 21
-107.3250000000001023
 31
0.0
  0
LINE
  5
30B
100
AcDbEntity
100
AcDbLine
  8
Drawings - Secondary
 62
256
370
-1
  6
ByLayer
 10
-287.7000000000001023
 20
-87.3250000000001023
 30
0.0
 11
-287.7000000000001023
 21
-92.3250000000001023
 31
0.0
  0
LINE
  5
30C
100
AcDbEntity
100
AcDbLine
  8
Drawings - Secondary
 62
256
370
-1
  6
ByLayer
 10
-287.7000000000001023
 20
-102.3250000000001023
 30
0.0
 11
-287.7000000000001023
 21
-107.3250000000001023
 31
0.0
  0
LINE
  5
30D
100
AcDbEntity
100
AcDbLine
  8
Drawings - Secondary
 62
256
370
-1
  6
ByLayer
 10
-293.8500000000001364
 20
-87.3250000000001023
 30
0.0
 11
-287.7000000000001023
 21
-87.3250000000001023
 31
0.0
  0
LINE
  5
30E
100
AcDbEntity
100
AcDbLine
  8
Drawings - Secondary
 62
256
370
-1
  6
ByLayer
 10
-287.7000000000001023
 20
-92.3250000000001023
 30
0.0
 11
-293.8500000000001364
 21
-92.3250000000001023
 31
0.0
  0
LINE
  5
30F
100
AcDbEntity
100
AcDbLine
  8
Drawings - Secondary
 62
256
370
-1
  6
ByLayer
 10
-293.8500000000001364
 20
-102.3250000000001023
 30
0.0
 11
-287.7000000000001023
 21
-102.3250000000001023
 31
0.0
  0
LINE
  5
310
100
AcDbEntity
100
AcDbLine
  8
Drawings - Secondary
 62
256
370
-1
  6
ByLayer
 10
-287.7000000000001023
 20
-107.3250000000001023
 30
0.0
 11
-293.8500000000001364
 21
-107.3250000000001023
 31
0.0
  0
CIRCLE
  5
311
100
AcDbEntity
100
AcDbCircle
  8
Drawings - Secondary
 62
256
370
-1
  6
ByLayer
 10
-290.7750000000001478
 20
-97.3250000000001023
 30
0.0
 40
1.5
  0
ARC
  5
312
100
AcDbEntity
  8
Drawings - Secondary
 62
256
370
-1
  6
ByLayer
100
AcDbCircle
 10
-262.3499999999997385
 20
-107.8250000000001307
 30
0.0
 40
2.0
100
AcDbArc
 50
180.0
 51
270.0
  0
LINE
  5
313
100
AcDbEntity
100
AcDbLine
  8
Drawings - Secondary
 62
256
370
-1
  6
ByLayer
 10
-262.3499999999997385
 20
-109.8250000000001592
 30
0.0
 11
-235.2000000000000455
 21
-109.8250000000001307
 31
0.0
  0
LINE
  5
314
100
AcDbEntity
100
AcDbLine
  8
Drawings - Secondary
 62
256
370
-1
  6
ByLayer
 10
-264.3499999999997385
 20
-107.8250000000001307
 30
0.0
 11
-264.3499999999997385
 21
-102.3249999999995339
 31
0.0
  0
CIRCLE
  5
315
100
AcDbEntity
100
AcDbCircle
  8
Drawings - Secondary
 62
256
370
-1
  6
ByLayer
 10
-253.0499999999998408
 20
-98.3250000000001307
 30
0.0
 40
7.7999999999999998
  0
CIRCLE
  5
316
100
AcDbEntity
100
AcDbCircle
  8
Drawings - Secondary
 62
256
370
-1
  6
ByLayer
 10
-302.3500000000001364
 20
-98.3250000000001023
 30
0.0
 40
7.7999999999999998
  0
LINE
  5
317
100
AcDbEntity
100
AcDbLine
  8
Drawings - Secondary
 62
256
370
-1
  6
ByLayer
 10
-300.2000000000000455
 20
-76.6500000000001478
 30
0.0
 11
-300.2000000000000455
 21
-81.1500000000001194
 31
0.0
  0
ARC
  5
318
100
AcDbEntity
  8
Drawings - Secondary
 62
256
370
-1
  6
ByLayer
100
AcDbCircle
 10
-300.7000000000000455
 20
-76.6500000000001478
 30
0.0
 40
0.5
100
AcDbArc
 50
0.0
 51
90.0
  0
LINE
  5
319
100
AcDbEntity
100
AcDbLine
  8
Drawings - Secondary
 62
256
370
-1
  6
ByLayer
 10
-309.7000000000000455
 20
-76.1500000000001478
 30
0.0
 11
-300.7000000000000455
 21
-76.1500000000001194
 31
0.0
  0
LINE
  5
31A
100
AcDbEntity
100
AcDbLine
  8
Drawings - Secondary
 62
256
370
-1
  6
ByLayer
 10
-310.2000000000000455
 20
-81.1500000000001194
 30
0.0
 11
-310.2000000000000455
 21
-76.6500000000001478
 31
0.0
  0
ARC
  5
31B
100
AcDbEntity
  8
Drawings - Secondary
 62
256
370
-1
  6
ByLayer
100
AcDbCircle
 10
-309.7000000000000455
 20
-76.6500000000001478
 30
0.0
 40
0.5
100
AcDbArc
 50
90.0
 51
180.0
  0
LINE
  5
31C
100
AcDbEntity
100
AcDbLine
  8
Drawings - Secondary
 62
256
370
-1
  6
ByLayer
 10
-320.2000000000000455
 20
-76.6500000000001194
 30
0.0
 11
-320.2000000000000455
 21
-81.1500000000001478
 31
0.0
  0
ARC
  5
31D
100
AcDbEntity
  8
Drawings - Secondary
 62
256
370
-1
  6
ByLayer
100
AcDbCircle
 10
-320.7000000000000455
 20
-76.6500000000001194
 30
0.0
 40
0.5
100
AcDbArc
 50
0.0
 51
90.0
  0
LINE
  5
31E
100
AcDbEntity
100
AcDbLine
  8
Drawings - Secondary
 62
256
370
-1
  6
ByLayer
 10
-329.7000000000000455
 20
-76.1500000000001478
 30
0.0
 11
-320.7000000000000455
 21
-76.1500000000001194
 31
0.0
  0
LINE
  5
31F
100
AcDbEntity
100
AcDbLine
  8
Drawings - Secondary
 62
256
370
-1
  6
ByLayer
 10
-330.2000000000000455
 20
-81.1500000000001478
 30
0.0
 11
-330.2000000000000455
 21
-76.6500000000001194
 31
0.0
  0
ARC
  5
320
100
AcDbEntity
  8
Drawings - Secondary
 62
256
370
-1
  6
ByLayer
100
AcDbCircle
 10
-329.7000000000000455
 20
-76.6500000000001478
 30
0.0
 40
0.5
100
AcDbArc
 50
90.0
 51
180.0
  0
LINE
  5
321
100
AcDbEntity
100
AcDbLine
  8
Drawings - Secondary
 62
256
370
-1
  6
ByLayer
 10
-320.2000000000000455
 20
-81.1500000000001478
 30
0.0
 11
-317.1171571066877277
 21
-81.1500000000001194
 31
0.0
  0
ARC
  5
322
100
AcDbEntity
  8
Drawings - Secondary
 62
256
370
-1
  6
ByLayer
100
AcDbCircle
 10
-317.1171571066877277
 20
-81.6500000000001478
 30
0.0
 40
0.5
100
AcDbArc
 50
0.0051428662733793
 51
90.0
  0
LINE
  5
323
100
AcDbEntity
100
AcDbLine
  8
Drawings - Secondary
 62
256
370
-1
  6
ByLayer
 10
-313.2985672336558309
 20
-81.1461368713089541
 30
0.0
 11
-310.2000000000000455
 21
-81.1500000000001194
 31
0.0
  0
ARC
  5
324
100
AcDbEntity
  8
Drawings - Secondary
 62
256
370
-1
  6
ByLayer
100
AcDbCircle
 10
-313.2991906065565217
 20
-81.6461364827150646
 30
0.0
 40
0.5
100
AcDbArc
 50
89.9285667089507115
 51
180.0
  0
LINE
  5
325
100
AcDbEntity
100
AcDbLine
  8
Drawings - Secondary
 62
256
370
-1
  6
ByLayer
 10
-313.7991906065565786
 20
-87.6491939591559515
 30
0.0
 11
-313.7991906065565217
 21
-81.6461364827150362
 31
0.0
  0
ARC
  5
326
100
AcDbEntity
  8
Drawings - Secondary
 62
256
370
-1
  6
ByLayer
100
AcDbCircle
 10
-313.2991906065565786
 20
-87.649193959155923
 30
0.0
 40
0.5
100
AcDbArc
 50
180.0
 51
269.9456307850857684
  0
LINE
  5
327
100
AcDbEntity
100
AcDbLine
  8
Drawings - Secondary
 62
256
370
-1
  6
ByLayer
 10
-312.9499446554530095
 20
-88.1495255914694269
 30
0.0
 11
-313.2996650673914019
 21
-88.1491937340428251
 31
0.0
  0
ARC
  5
328
100
AcDbEntity
  8
Drawings - Secondary
 62
256
370
-1
  6
ByLayer
100
AcDbCircle
 10
-312.950419116287776
 20
-88.6495253663562721
 30
0.0
 40
0.5
100
AcDbArc
 50
359.9519473579580904
 51
89.9456307850857968
  0
LINE
  5
329
100
AcDbEntity
100
AcDbLine
  8
Drawings - Secondary
 62
256
370
-1
  6
ByLayer
 10
-312.4504192921324943
 20
-88.6499447047161482
 30
0.0
 11
-312.4520970442260932
 21
-90.650419338359967
 31
0.0
  0
ARC
  5
32A
100
AcDbEntity
  8
Drawings - Secondary
 62
256
370
-1
  6
ByLayer
100
AcDbCircle
 10
-312.9520968683814317
 20
-90.6500000000001194
 30
0.0
 40
0.5
100
AcDbArc
 50
270.0
 51
359.9519473579580904
  0
LINE
  5
32B
100
AcDbEntity
100
AcDbLine
  8
Drawings - Secondary
 62
256
370
-1
  6
ByLayer
 10
-313.2000000000000455
 20
-91.1500000000001478
 30
0.0
 11
-312.9520968683814317
 21
-91.1500000000002046
 31
0.0
  0
ARC
  5
32C
100
AcDbEntity
  8
Drawings - Secondary
 62
256
370
-1
  6
ByLayer
100
AcDbCircle
 10
-313.2000000000000455
 20
-91.6500000000001478
 30
0.0
 40
0.5
100
AcDbArc
 50
90.0
 51
180.0
  0
ARC
  5
32D
100
AcDbEntity
  8
Drawings - Secondary
 62
256
370
-1
  6
ByLayer
100
AcDbCircle
 10
-317.2000000000000455
 20
-91.6500000000002046
 30
0.0
 40
0.5
100
AcDbArc
 50
0.0
 51
90.0
  0
LINE
  5
32E
100
AcDbEntity
100
AcDbLine
  8
Drawings - Secondary
 62
256
370
-1
  6
ByLayer
 10
-317.453909105579271
 20
-91.1500000000001762
 30
0.0
 11
-317.2000000000000455
 21
-91.1500000000000341
 31
0.0
  0
ARC
  5
32F
100
AcDbEntity
  8
Drawings - Secondary
 62
256
370
-1
  6
ByLayer
100
AcDbCircle
 10
-317.453909105579271
 20
-90.6500000000000909
 30
0.0
 40
0.5
100
AcDbArc
 50
179.9103959594471576
 51
270.0
  0
LINE
  5
330
100
AcDbEntity
100
AcDbLine
  8
Drawings - Secondary
 62
256
370
-1
  6
ByLayer
 10
-317.9507799713406939
 20
-88.648738999374558
 30
0.0
 11
-317.9539084941449119
 21
-90.6492180575535542
 31
0.0
  0
ARC
  5
331
100
AcDbEntity
  8
Drawings - Secondary
 62
256
370
-1
  6
ByLayer
100
AcDbCircle
 10
-317.4507805827750531
 20
-88.6495209418212369
 30
0.0
 40
0.5
100
AcDbArc
 50
90.0550082898336228
 51
179.9103959594471576
  0
LINE
  5
332
100
AcDbEntity
100
AcDbLine
  8
Drawings - Secondary
 62
256
370
-1
  6
ByLayer
 10
-317.1160488210711037
 20
-88.1491993434309791
 30
0.0
 11
-317.4512606205880161
 21
-88.1495211722575789
 31
0.0
  0
LINE
  5
333
100
AcDbEntity
100
AcDbLine
  8
Drawings - Secondary
 62
256
370
-1
  6
ByLayer
 10
-316.6171571087019174
 20
-81.6499551200253109
 30
0.0
 11
-316.6165288608983701
 21
-87.649154693892541
 31
0.0
  0
ARC
  5
334
100
AcDbEntity
  8
Drawings - Secondary
 62
256
370
-1
  6
ByLayer
100
AcDbCircle
 10
-317.1165288588841236
 20
-87.6491995738673495
 30
0.0
 40
0.5
100
AcDbArc
 50
270.0550082898336086
 51
0.0051428662733793
  0
LINE
  5
335
100
AcDbEntity
100
AcDbLine
  8
Drawings - Secondary
 62
256
370
-1
  6
ByLayer
 10
-313.7000000000000455
 20
-91.6500000000000909
 30
0.0
 11
-313.7000000000000455
 21
-91.6500000000000909
 31
0.0
  0
ARC
  5
336
100
AcDbEntity
  8
Drawings - Secondary
 62
256
370
-1
  6
ByLayer
100
AcDbCircle
 10
-314.2000000000000455
 20
-91.6500000000001478
 30
0.0
 40
0.5
100
AcDbArc
 50
270.0
 51
0.0
  0
LINE
  5
337
100
AcDbEntity
100
AcDbLine
  8
Drawings - Secondary
 62
256
370
-1
  6
ByLayer
 10
-316.2000000000000455
 20
-92.1500000000000057
 30
0.0
 11
-314.2000000000000455
 21
-92.1500000000000625
 31
0.0
  0
LINE
  5
338
100
AcDbEntity
100
AcDbLine
  8
Drawings - Secondary
 62
256
370
-1
  6
ByLayer
 10
-316.7000000000000455
 20
-91.6500000000001478
 30
0.0
 11
-316.7000000000000455
 21
-91.6500000000001478
 31
0.0
  0
ARC
  5
339
100
AcDbEntity
  8
Drawings - Secondary
 62
256
370
-1
  6
ByLayer
100
AcDbCircle
 10
-316.2000000000000455
 20
-91.6500000000002615
 30
0.0
 40
0.5
100
AcDbArc
 50
180.0
 51
270.0
  0
LINE
  5
33A
100
AcDbEntity
100
AcDbLine
  8
Drawings - Secondary
 62
256
370
-1
  6
ByLayer
 10
-225.2000000000000455
 20
-76.6500000000001194
 30
0.0
 11
-225.2000000000000455
 21
-81.1500000000001478
 31
0.0
  0
ARC
  5
33B
100
AcDbEntity
  8
Drawings - Secondary
 62
256
370
-1
  6
ByLayer
100
AcDbCircle
 10
-225.7000000000000455
 20
-76.6500000000001478
 30
0.0
 40
0.5
100
AcDbArc
 50
0.0
 51
90.0
  0
LINE
  5
33C
100
AcDbEntity
100
AcDbLine
  8
Drawings - Secondary
 62
256
370
-1
  6
ByLayer
 10
-234.7000000000000455
 20
-76.1500000000001194
 30
0.0
 11
-225.7000000000000455
 21
-76.1500000000001478
 31
0.0
  0
LINE
  5
33D
100
AcDbEntity
100
AcDbLine
  8
Drawings - Secondary
 62
256
370
-1
  6
ByLayer
 10
-235.2000000000000455
 20
-81.1500000000001478
 30
0.0
 11
-235.2000000000000455
 21
-76.6500000000001478
 31
0.0
  0
ARC
  5
33E
100
AcDbEntity
  8
Drawings - Secondary
 62
256
370
-1
  6
ByLayer
100
AcDbCircle
 10
-234.7000000000000455
 20
-76.6500000000001194
 30
0.0
 40
0.5
100
AcDbArc
 50
90.0
 51
180.0
  0
LINE
  5
33F
100
AcDbEntity
100
AcDbLine
  8
Drawings - Secondary
 62
256
370
-1
  6
ByLayer
 10
-245.2000000000000455
 20
-76.6500000000001478
 30
0.0
 11
-245.2000000000000455
 21
-81.1500000000001478
 31
0.0
  0
ARC
  5
340
100
AcDbEntity
  8
Drawings - Secondary
 62
256
370
-1
  6
ByLayer
100
AcDbCircle
 10
-245.7000000000000455
 20
-76.6500000000001478
 30
0.0
 40
0.5
100
AcDbArc
 50
0.0
 51
90.0
  0
LINE
  5
341
100
AcDbEntity
100
AcDbLine
  8
Drawings - Secondary
 62
256
370
-1
  6
ByLayer
 10
-254.7000000000000455
 20
-76.1500000000001194
 30
0.0
 11
-245.7000000000000455
 21
-76.1500000000001478
 31
0.0
  0
LINE
  5
342
100
AcDbEntity
100
AcDbLine
  8
Drawings - Secondary
 62
256
370
-1
  6
ByLayer
 10
-255.2000000000000455
 20
-81.1500000000001194
 30
0.0
 11
-255.2000000000000455
 21
-76.6500000000001478
 31
0.0
  0
ARC
  5
343
100
AcDbEntity
  8
Drawings - Secondary
 62
256
370
-1
  6
ByLayer
100
AcDbCircle
 10
-254.7000000000000455
 20
-76.6500000000001478
 30
0.0
 40
0.5
100
AcDbArc
 50
90.0
 51
180.0
  0
LINE
  5
344
100
AcDbEntity
100
AcDbLine
  8
Drawings - Secondary
 62
256
370
-1
  6
ByLayer
 10
-245.2000000000000455
 20
-81.1500000000001478
 30
0.0
 11
-242.1171571066877277
 21
-81.1500000000001194
 31
0.0
  0
ARC
  5
345
100
AcDbEntity
  8
Drawings - Secondary
 62
256
370
-1
  6
ByLayer
100
AcDbCircle
 10
-242.1171571066877277
 20
-81.6500000000001194
 30
0.0
 40
0.5
100
AcDbArc
 50
0.0051428662733793
 51
90.0
  0
LINE
  5
346
100
AcDbEntity
100
AcDbLine
  8
Drawings - Secondary
 62
256
370
-1
  6
ByLayer
 10
-238.2985672336558025
 20
-81.1461368713089541
 30
0.0
 11
-235.2000000000000455
 21
-81.1500000000001478
 31
0.0
  0
ARC
  5
347
100
AcDbEntity
  8
Drawings - Secondary
 62
256
370
-1
  6
ByLayer
100
AcDbCircle
 10
-238.2991906065564933
 20
-81.6461364827150646
 30
0.0
 40
0.5
100
AcDbArc
 50
89.9285667089507115
 51
180.0
  0
LINE
  5
348
100
AcDbEntity
100
AcDbLine
  8
Drawings - Secondary
 62
256
370
-1
  6
ByLayer
 10
-238.7991906065565786
 20
-87.649193959155923
 30
0.0
 11
-238.7991906065564933
 21
-81.6461364827150362
 31
0.0
  0
ARC
  5
349
100
AcDbEntity
  8
Drawings - Secondary
 62
256
370
-1
  6
ByLayer
100
AcDbCircle
 10
-238.2991906065565786
 20
-87.6491939591559515
 30
0.0
 40
0.5
100
AcDbArc
 50
180.0
 51
269.9456307850857684
  0
LINE
  5
34A
100
AcDbEntity
100
AcDbLine
  8
Drawings - Secondary
 62
256
370
-1
  6
ByLayer
 10
-237.9499446554530095
 20
-88.1495255914693985
 30
0.0
 11
-238.2996650673913734
 21
-88.1491937340427967
 31
0.0
  0
ARC
  5
34B
100
AcDbEntity
  8
Drawings - Secondary
 62
256
370
-1
  6
ByLayer
100
AcDbCircle
 10
-237.9504191162878044
 20
-88.6495253663562437
 30
0.0
 40
0.5
100
AcDbArc
 50
359.9519473579580904
 51
89.9456307850857968
  0
LINE
  5
34C
100
AcDbEntity
100
AcDbLine
  8
Drawings - Secondary
 62
256
370
-1
  6
ByLayer
 10
-237.4504192921324943
 20
-88.6499447047161482
 30
0.0
 11
-237.4520970442261216
 21
-90.6504193383599102
 31
0.0
  0
ARC
  5
34D
100
AcDbEntity
  8
Drawings - Secondary
 62
256
370
-1
  6
ByLayer
100
AcDbCircle
 10
-237.9520968683814317
 20
-90.6500000000001194
 30
0.0
 40
0.5
100
AcDbArc
 50
270.0
 51
359.9519473579580904
  0
LINE
  5
34E
100
AcDbEntity
100
AcDbLine
  8
Drawings - Secondary
 62
256
370
-1
  6
ByLayer
 10
-238.2000000000000455
 20
-91.1500000000000341
 30
0.0
 11
-237.9520968683814317
 21
-91.1500000000001194
 31
0.0
  0
ARC
  5
34F
100
AcDbEntity
  8
Drawings - Secondary
 62
256
370
-1
  6
ByLayer
100
AcDbCircle
 10
-238.2000000000000455
 20
-91.6500000000002046
 30
0.0
 40
0.5
100
AcDbArc
 50
90.0
 51
180.0
  0
ARC
  5
350
100
AcDbEntity
  8
Drawings - Secondary
 62
256
370
-1
  6
ByLayer
100
AcDbCircle
 10
-242.2000000000000455
 20
-91.6500000000001762
 30
0.0
 40
0.5
100
AcDbArc
 50
0.0
 51
90.0
  0
LINE
  5
351
100
AcDbEntity
100
AcDbLine
  8
Drawings - Secondary
 62
256
370
-1
  6
ByLayer
 10
-242.4539091055792426
 20
-91.1500000000000625
 30
0.0
 11
-242.2000000000000455
 21
-91.1500000000001478
 31
0.0
  0
ARC
  5
352
100
AcDbEntity
  8
Drawings - Secondary
 62
256
370
-1
  6
ByLayer
100
AcDbCircle
 10
-242.4539091055792426
 20
-90.6500000000001762
 30
0.0
 40
0.5
100
AcDbArc
 50
179.9103959594471576
 51
270.0
  0
LINE
  5
353
100
AcDbEntity
100
AcDbLine
  8
Drawings - Secondary
 62
256
370
-1
  6
ByLayer
 10
-242.9507799713406655
 20
-88.648738999374558
 30
0.0
 11
-242.9539084941448834
 21
-90.6492180575534121
 31
0.0
  0
ARC
  5
354
100
AcDbEntity
  8
Drawings - Secondary
 62
256
370
-1
  6
ByLayer
100
AcDbCircle
 10
-242.4507805827750246
 20
-88.6495209418212085
 30
0.0
 40
0.5
100
AcDbArc
 50
90.0550082898336228
 51
179.9103959594471576
  0
LINE
  5
355
100
AcDbEntity
100
AcDbLine
  8
Drawings - Secondary
 62
256
370
-1
  6
ByLayer
 10
-242.1160488210711321
 20
-88.1491993434309791
 30
0.0
 11
-242.4512606205880445
 21
-88.149521172257522
 31
0.0
  0
LINE
  5
356
100
AcDbEntity
100
AcDbLine
  8
Drawings - Secondary
 62
256
370
-1
  6
ByLayer
 10
-241.6171571087019458
 20
-81.6499551200253109
 30
0.0
 11
-241.6165288608983417
 21
-87.6491546938925126
 31
0.0
  0
ARC
  5
357
100
AcDbEntity
  8
Drawings - Secondary
 62
256
370
-1
  6
ByLayer
100
AcDbCircle
 10
-242.1165288588841236
 20
-87.6491995738672927
 30
0.0
 40
0.5
100
AcDbArc
 50
270.0550082898336086
 51
0.0051428662733793
  0
LINE
  5
358
100
AcDbEntity
100
AcDbLine
  8
Drawings - Secondary
 62
256
370
-1
  6
ByLayer
 10
-238.7000000000000455
 20
-91.6500000000001478
 30
0.0
 11
-238.7000000000000455
 21
-91.6500000000001478
 31
0.0
  0
ARC
  5
359
100
AcDbEntity
  8
Drawings - Secondary
 62
256
370
-1
  6
ByLayer
100
AcDbCircle
 10
-239.2000000000000455
 20
-91.6500000000002899
 30
0.0
 40
0.5
100
AcDbArc
 50
270.0
 51
0.0
  0
LINE
  5
35A
100
AcDbEntity
100
AcDbLine
  8
Drawings - Secondary
 62
256
370
-1
  6
ByLayer
 10
-241.2000000000000455
 20
-92.1500000000000625
 30
0.0
 11
-239.2000000000000455
 21
-92.1500000000000057
 31
0.0
  0
LINE
  5
35B
100
AcDbEntity
100
AcDbLine
  8
Drawings - Secondary
 62
256
370
-1
  6
ByLayer
 10
-241.7000000000000455
 20
-91.6500000000000909
 30
0.0
 11
-241.7000000000000455
 21
-91.6500000000000909
 31
0.0
  0
ARC
  5
35C
100
AcDbEntity
  8
Drawings - Secondary
 62
256
370
-1
  6
ByLayer
100
AcDbCircle
 10
-241.2000000000000455
 20
-91.6500000000001478
 30
0.0
 40
0.5
100
AcDbArc
 50
180.0
 51
270.0
  0
LINE
  5
35D
100
AcDbEntity
100
AcDbLine
  8
Drawings - Secondary
 62
256
370
-1
  6
ByLayer
 10
-335.2000000000000455
 20
-81.1500000000001478
 30
0.0
 11
-330.2000000000000455
 21
-81.1500000000000909
 31
0.0
  0
LINE
  5
35E
100
AcDbEntity
100
AcDbLine
  8
Drawings - Secondary
 62
256
370
-1
  6
ByLayer
 10
-225.2000000000000455
 20
-81.1500000000001194
 30
0.0
 11
-220.2000000000000455
 21
-81.1500000000001478
 31
0.0
  0
LINE
  5
35F
100
AcDbEntity
100
AcDbLine
  8
Drawings - Secondary
 62
256
370
-1
  6
ByLayer
 10
-262.7000000000000455
 20
-76.6500000000001194
 30
0.0
 11
-262.7000000000000455
 21
-81.1500000000001194
 31
0.0
  0
ARC
  5
360
100
AcDbEntity
  8
Drawings - Secondary
 62
256
370
-1
  6
ByLayer
100
AcDbCircle
 10
-263.2000000000000455
 20
-76.6500000000001194
 30
0.0
 40
0.5
100
AcDbArc
 50
0.0
 51
90.0
  0
LINE
  5
361
100
AcDbEntity
100
AcDbLine
  8
Drawings - Secondary
 62
256
370
-1
  6
ByLayer
 10
-272.2000000000000455
 20
-76.1500000000001194
 30
0.0
 11
-263.2000000000000455
 21
-76.1500000000001194
 31
0.0
  0
LINE
  5
362
100
AcDbEntity
100
AcDbLine
  8
Drawings - Secondary
 62
256
370
-1
  6
ByLayer
 10
-272.7000000000000455
 20
-81.1500000000001194
 30
0.0
 11
-272.7000000000000455
 21
-76.6500000000001194
 31
0.0
  0
ARC
  5
363
100
AcDbEntity
  8
Drawings - Secondary
 62
256
370
-1
  6
ByLayer
100
AcDbCircle
 10
-272.2000000000000455
 20
-76.6500000000001194
 30
0.0
 40
0.5
100
AcDbArc
 50
90.0
 51
180.0
  0
LINE
  5
364
100
AcDbEntity
100
AcDbLine
  8
Drawings - Secondary
 62
256
370
-1
  6
ByLayer
 10
-282.7000000000000455
 20
-76.6500000000001194
 30
0.0
 11
-282.7000000000000455
 21
-81.1500000000001194
 31
0.0
  0
ARC
  5
365
100
AcDbEntity
  8
Drawings - Secondary
 62
256
370
-1
  6
ByLayer
100
AcDbCircle
 10
-283.2000000000000455
 20
-76.6500000000001194
 30
0.0
 40
0.5
100
AcDbArc
 50
0.0
 51
90.0
  0
LINE
  5
366
100
AcDbEntity
100
AcDbLine
  8
Drawings - Secondary
 62
256
370
-1
  6
ByLayer
 10
-292.2000000000000455
 20
-76.1500000000001194
 30
0.0
 11
-283.2000000000000455
 21
-76.1500000000001194
 31
0.0
  0
LINE
  5
367
100
AcDbEntity
100
AcDbLine
  8
Drawings - Secondary
 62
256
370
-1
  6
ByLayer
 10
-292.7000000000000455
 20
-81.1500000000001194
 30
0.0
 11
-292.7000000000000455
 21
-76.6500000000001194
 31
0.0
  0
ARC
  5
368
100
AcDbEntity
  8
Drawings - Secondary
 62
256
370
-1
  6
ByLayer
100
AcDbCircle
 10
-292.2000000000000455
 20
-76.6500000000001194
 30
0.0
 40
0.5
100
AcDbArc
 50
90.0
 51
180.0
  0
LINE
  5
369
100
AcDbEntity
100
AcDbLine
  8
Drawings - Secondary
 62
256
370
-1
  6
ByLayer
 10
-282.7000000000000455
 20
-81.1500000000001194
 30
0.0
 11
-279.6171571066877277
 21
-81.1500000000001194
 31
0.0
  0
ARC
  5
36A
100
AcDbEntity
  8
Drawings - Secondary
 62
256
370
-1
  6
ByLayer
100
AcDbCircle
 10
-279.6171571066877277
 20
-81.6500000000001194
 30
0.0
 40
0.5
100
AcDbArc
 50
0.0051428662733793
 51
90.0
  0
LINE
  5
36B
100
AcDbEntity
100
AcDbLine
  8
Drawings - Secondary
 62
256
370
-1
  6
ByLayer
 10
-275.7985672336558309
 20
-81.1461368713089541
 30
0.0
 11
-272.7000000000000455
 21
-81.1500000000001194
 31
0.0
  0
ARC
  5
36C
100
AcDbEntity
  8
Drawings - Secondary
 62
256
370
-1
  6
ByLayer
100
AcDbCircle
 10
-275.7991906065564649
 20
-81.6461364827150078
 30
0.0
 40
0.5
100
AcDbArc
 50
89.9285667089507115
 51
180.0
  0
LINE
  5
36D
100
AcDbEntity
100
AcDbLine
  8
Drawings - Secondary
 62
256
370
-1
  6
ByLayer
 10
-276.2991906065565786
 20
-87.649193959155923
 30
0.0
 11
-276.2991906065565217
 21
-81.6461364827150078
 31
0.0
  0
ARC
  5
36E
100
AcDbEntity
  8
Drawings - Secondary
 62
256
370
-1
  6
ByLayer
100
AcDbCircle
 10
-275.7991906065565786
 20
-87.649193959155923
 30
0.0
 40
0.5
100
AcDbArc
 50
180.0
 51
269.9456307850857684
  0
LINE
  5
36F
100
AcDbEntity
100
AcDbLine
  8
Drawings - Secondary
 62
256
370
-1
  6
ByLayer
 10
-275.4499446554530095
 20
-88.1495255914693985
 30
0.0
 11
-275.7996650673914019
 21
-88.1491937340427967
 31
0.0
  0
ARC
  5
370
100
AcDbEntity
  8
Drawings - Secondary
 62
256
370
-1
  6
ByLayer
100
AcDbCircle
 10
-275.450419116287776
 20
-88.6495253663562437
 30
0.0
 40
0.5
100
AcDbArc
 50
359.9519473579580904
 51
89.9456307850857968
  0
LINE
  5
371
100
AcDbEntity
100
AcDbLine
  8
Drawings - Secondary
 62
256
370
-1
  6
ByLayer
 10
-274.9504192921324943
 20
-88.6499447047160913
 30
0.0
 11
-274.9520970442260932
 21
-90.650419338359967
 31
0.0
  0
ARC
  5
372
100
AcDbEntity
  8
Drawings - Secondary
 62
256
370
-1
  6
ByLayer
100
AcDbCircle
 10
-275.4520968683814317
 20
-90.6500000000001194
 30
0.0
 40
0.5
100
AcDbArc
 50
270.0
 51
359.9519473579580904
  0
LINE
  5
373
100
AcDbEntity
100
AcDbLine
  8
Drawings - Secondary
 62
256
370
-1
  6
ByLayer
 10
-275.7000000000000455
 20
-91.1500000000001194
 30
0.0
 11
-275.4520968683814317
 21
-91.1500000000001194
 31
0.0
  0
ARC
  5
374
100
AcDbEntity
  8
Drawings - Secondary
 62
256
370
-1
  6
ByLayer
100
AcDbCircle
 10
-275.7000000000000455
 20
-91.6500000000001194
 30
0.0
 40
0.5
100
AcDbArc
 50
90.0
 51
180.0
  0
ARC
  5
375
100
AcDbEntity
  8
Drawings - Secondary
 62
256
370
-1
  6
ByLayer
100
AcDbCircle
 10
-279.7000000000000455
 20
-91.6500000000001194
 30
0.0
 40
0.5
100
AcDbArc
 50
0.0
 51
90.0
  0
LINE
  5
376
100
AcDbEntity
100
AcDbLine
  8
Drawings - Secondary
 62
256
370
-1
  6
ByLayer
 10
-279.9539091055792142
 20
-91.1500000000001194
 30
0.0
 11
-279.7000000000000455
 21
-91.1500000000001194
 31
0.0
  0
ARC
  5
377
100
AcDbEntity
  8
Drawings - Secondary
 62
256
370
-1
  6
ByLayer
100
AcDbCircle
 10
-279.9539091055792142
 20
-90.6500000000001194
 30
0.0
 40
0.5
100
AcDbArc
 50
179.9103959594471576
 51
270.0
  0
LINE
  5
378
100
AcDbEntity
100
AcDbLine
  8
Drawings - Secondary
 62
256
370
-1
  6
ByLayer
 10
-280.4507799713406371
 20
-88.6487389993745296
 30
0.0
 11
-280.453908494144855
 21
-90.649218057553469
 31
0.0
  0
ARC
  5
379
100
AcDbEntity
  8
Drawings - Secondary
 62
256
370
-1
  6
ByLayer
100
AcDbCircle
 10
-279.9507805827749962
 20
-88.64952094182118
 30
0.0
 40
0.5
100
AcDbArc
 50
90.0550082898336228
 51
179.9103959594471576
  0
LINE
  5
37A
100
AcDbEntity
100
AcDbLine
  8
Drawings - Secondary
 62
256
370
-1
  6
ByLayer
 10
-279.6160488210711037
 20
-88.1491993434309506
 30
0.0
 11
-279.9512606205880729
 21
-88.1495211722575505
 31
0.0
  0
LINE
  5
37B
100
AcDbEntity
100
AcDbLine
  8
Drawings - Secondary
 62
256
370
-1
  6
ByLayer
 10
-279.1171571087019174
 20
-81.6499551200253109
 30
0.0
 11
-279.1165288608983133
 21
-87.6491546938925126
 31
0.0
  0
ARC
  5
37C
100
AcDbEntity
  8
Drawings - Secondary
 62
256
370
-1
  6
ByLayer
100
AcDbCircle
 10
-279.6165288588841236
 20
-87.6491995738672927
 30
0.0
 40
0.5
100
AcDbArc
 50
270.0550082898336086
 51
0.0051428662733793
  0
LINE
  5
37D
100
AcDbEntity
100
AcDbLine
  8
Drawings - Secondary
 62
256
370
-1
  6
ByLayer
 10
-276.2000000000000455
 20
-91.6500000000001194
 30
0.0
 11
-276.2000000000000455
 21
-91.6500000000001194
 31
0.0
  0
ARC
  5
37E
100
AcDbEntity
  8
Drawings - Secondary
 62
256
370
-1
  6
ByLayer
100
AcDbCircle
 10
-276.7000000000000455
 20
-91.6500000000001194
 30
0.0
 40
0.5
100
AcDbArc
 50
270.0
 51
0.0
  0
LINE
  5
37F
100
AcDbEntity
100
AcDbLine
  8
Drawings - Secondary
 62
256
370
-1
  6
ByLayer
 10
-278.7000000000000455
 20
-92.1500000000001194
 30
0.0
 11
-276.7000000000000455
 21
-92.1500000000001194
 31
0.0
  0
LINE
  5
380
100
AcDbEntity
100
AcDbLine
  8
Drawings - Secondary
 62
256
370
-1
  6
ByLayer
 10
-279.2000000000000455
 20
-91.6500000000001194
 30
0.0
 11
-279.2000000000000455
 21
-91.6500000000001194
 31
0.0
  0
ARC
  5
381
100
AcDbEntity
  8
Drawings - Secondary
 62
256
370
-1
  6
ByLayer
100
AcDbCircle
 10
-278.7000000000000455
 20
-91.6500000000001194
 30
0.0
 40
0.5
100
AcDbArc
 50
180.0
 51
270.0
  0
LINE
  5
382
100
AcDbEntity
100
AcDbLine
  8
Drawings - Secondary
 62
256
370
-1
  6
ByLayer
 10
-262.7000000000000455
 20
-81.1500000000001194
 30
0.0
 11
-255.2000000000000455
 21
-81.1500000000001194
 31
0.0
  0
LINE
  5
383
100
AcDbEntity
100
AcDbLine
  8
Drawings - Secondary
 62
256
370
-1
  6
ByLayer
 10
-300.2000000000000455
 20
-81.1500000000001194
 30
0.0
 11
-292.7000000000000455
 21
-81.1500000000001194
 31
0.0
  0
LINE
  5
384
100
AcDbEntity
100
AcDbLine
  8
Drawings - Secondary
 62
256
370
-1
  6
ByLayer
 10
-335.2000000000000455
 20
-81.1500000000001478
 30
0.0
 11
-335.2000000000000455
 21
-94.8250000000001592
 31
0.0
  0
ARC
  5
385
100
AcDbEntity
  8
Drawings - Secondary
 62
256
370
-1
  6
ByLayer
100
AcDbCircle
 10
-320.2000000000000455
 20
-94.8250000000001023
 30
0.0
 40
15.0
100
AcDbArc
 50
180.0
 51
270.0
  0
LINE
  5
386
100
AcDbEntity
100
AcDbLine
  8
Drawings - Secondary
 62
256
370
-1
  6
ByLayer
 10
-220.2000000000000455
 20
-94.8250000000001876
 30
0.0
 11
-220.2000000000000455
 21
-81.1500000000001478
 31
0.0
  0
ARC
  5
387
100
AcDbEntity
  8
Drawings - Secondary
 62
256
370
-1
  6
ByLayer
100
AcDbCircle
 10
-235.2000000000000455
 20
-94.8250000000001307
 30
0.0
 40
15.0
100
AcDbArc
 50
270.0
 51
0.0
  0
LINE
  5
388
100
AcDbEntity
100
AcDbLine
  8
Drawings - Secondary
 62
256
370
-1
  6
ByLayer
 10
-320.2000000000000455
 20
-109.8250000000000739
 30
0.0
 11
-277.3499999999997954
 21
-109.8250000000001023
 31
0.0
  0
LINE
  5
389
100
AcDbEntity
100
AcDbLine
  8
Drawings - Secondary
 62
256
370
-1
  6
ByLayer
 10
-276.3499999999997385
 20
-108.8250000000001307
 30
0.0
 11
-276.3499999999997385
 21
-102.3250000000003865
 31
0.0
  0
ARC
  5
38A
100
AcDbEntity
  8
Drawings - Secondary
 62
256
370
-1
  6
ByLayer
100
AcDbCircle
 10
-277.3499999999997385
 20
-108.8250000000001023
 30
0.0
 40
1.0
100
AcDbArc
 50
269.9999999999996021
 51
0.0
  0
CIRCLE
  5
38B
100
AcDbEntity
100
AcDbCircle
  8
05 - Idler Rib
 62
256
370
-1
  6
ByLayer
 10
-187.7000000000002728
 20
-148.2249999999997101
 30
0.0
 40
2.0
  0
CIRCLE
  5
38C
100
AcDbEntity
100
AcDbCircle
  8
Drawings - Y Travel
 62
256
370
-1
  6
ByLayer
 10
-187.7000000000002728
 20
-148.2249999999997101
 30
0.0
 40
6.5
  0
ARC
  5
38D
100
AcDbEntity
  8
04 - Bottom
 62
256
370
-1
  6
ByLayer
100
AcDbCircle
 10
42.2999999999999901
 20
-146.2500000000001137
 30
0.0
 40
0.5
100
AcDbArc
 50
180.0
 51
270.0
  0
LINE
  5
38E
100
AcDbEntity
100
AcDbLine
  8
04 - Bottom
 62
256
370
-1
  6
ByLayer
 10
42.2999999999999901
 20
-146.7500000000001137
 30
0.0
 11
57.7999999999999901
 21
-146.7500000000000853
 31
0.0
  0
ARC
  5
38F
100
AcDbEntity
  8
04 - Bottom
 62
256
370
-1
  6
ByLayer
100
AcDbCircle
 10
57.7999999999999901
 20
-138.2499999999998295
 30
0.0
 40
0.5
100
AcDbArc
 50
0.0
 51
90.0000000000040643
  0
LINE
  5
390
100
AcDbEntity
100
AcDbLine
  8
04 - Bottom
 62
256
370
-1
  6
ByLayer
 10
58.2999999999999901
 20
-146.2500000000000853
 30
0.0
 11
58.2999999999999901
 21
-138.2499999999998295
 31
0.0
  0
INSERT
  5
391
100
AcDbEntity
100
AcDbBlockReference
  8
01 - Front
 62
256
370
-1
  6
ByLayer
  2
tcutout-5
 10
55.7999999999999332
 20
-133.75
 30
0.0
 50
90.0
 44
1.0
 45
1.0
  0
ARC
  5
392
100
AcDbEntity
  8
04 - Bottom
 62
256
370
-1
  6
ByLayer
100
AcDbCircle
 10
42.2999999999999901
 20
-138.2500000000008242
 30
0.0
 40
0.5
100
AcDbArc
 50
90.0000000000040643
 51
180.0
  0
LINE
  5
393
100
AcDbEntity
100
AcDbLine
  8
04 - Bottom
 62
256
370
-1
  6
ByLayer
 10
41.7999999999999901
 20
-146.2500000000001137
 30
0.0
 11
41.7999999999999901
 21
-138.2500000000008242
 31
0.0
  0
LINE
  5
394
100
AcDbEntity
100
AcDbLine
  8
04 - Bottom
 62
256
370
-1
  6
ByLayer
 10
57.7999999999999545
 20
-137.7499999999998295
 30
0.0
 11
42.2999999999999545
 21
-137.7500000000008242
 31
0.0
  0
ARC
  5
395
100
AcDbEntity
  8
04 - Bottom
 62
256
370
-1
  6
ByLayer
100
AcDbCircle
 10
42.2999999999999545
 20
146.2500000000001137
 30
0.0
 40
0.5
100
AcDbArc
 50
90.0000000000000142
 51
180.0
  0
LINE
  5
396
100
AcDbEntity
100
AcDbLine
  8
04 - Bottom
 62
256
370
-1
  6
ByLayer
 10
42.2999999999999261
 20
146.750000000000199
 30
0.0
 11
57.7999999999998977
 21
146.750000000000199
 31
0.0
  0
ARC
  5
397
100
AcDbEntity
  8
04 - Bottom
 62
256
370
-1
  6
ByLayer
100
AcDbCircle
 10
57.7999999999999829
 20
138.249999999999801
 30
0.0
 40
0.5
100
AcDbArc
 50
269.9999999999959073
 51
0.0
  0
LINE
  5
398
100
AcDbEntity
100
AcDbLine
  8
04 - Bottom
 62
256
370
-1
  6
ByLayer
 10
58.2999999999999545
 20
146.2500000000000853
 30
0.0
 11
58.2999999999999261
 21
138.2499999999998863
 31
0.0
  0
INSERT
  5
399
100
AcDbEntity
100
AcDbBlockReference
  8
01 - Front
 62
256
370
-1
  6
ByLayer
  2
tcutout-5
 10
55.7999999999999616
 20
133.7500000000001421
 30
0.0
 50
90.0
 44
1.0
 45
1.0
  0
ARC
  5
39A
100
AcDbEntity
  8
04 - Bottom
 62
256
370
-1
  6
ByLayer
100
AcDbCircle
 10
42.2999999999999545
 20
138.2500000000008811
 30
0.0
 40
0.5
100
AcDbArc
 50
180.0
 51
269.9999999999959073
  0
LINE
  5
39B
100
AcDbEntity
100
AcDbLine
  8
04 - Bottom
 62
256
370
-1
  6
ByLayer
 10
41.7999999999998977
 20
146.2500000000002274
 30
0.0
 11
41.7999999999999545
 21
138.2500000000008242
 31
0.0
  0
LINE
  5
39C
100
AcDbEntity
100
AcDbLine
  8
04 - Bottom
 62
256
370
-1
  6
ByLayer
 10
57.7999999999999545
 20
137.7499999999998295
 30
0.0
 11
42.2999999999999261
 21
137.7500000000009095
 31
0.0
  0
LINE
  5
39D
100
AcDbEntity
100
AcDbLine
  8
04 - Bottom
 62
256
370
-1
  6
ByLayer
 10
55.7999999999999901
 20
-212.4999999999999432
 30
0.0
 11
50.2999999999999901
 21
-212.4999999999999432
 31
0.0
  0
LINE
  5
39E
100
AcDbEntity
100
AcDbLine
  8
04 - Bottom
 62
256
370
-1
  6
ByLayer
 10
50.2999999999999901
 20
-222.4999999999999432
 30
0.0
 11
55.7999999999999901
 21
-222.4999999999999432
 31
0.0
  0
LINE
  5
39F
100
AcDbEntity
100
AcDbLine
  8
05 - Idler Rib
 62
256
370
-1
  6
ByLayer
 10
50.2999999999999901
 20
-212.4999999999999432
 30
0.0
 11
50.2999999999999901
 21
-222.4999999999999432
 31
0.0
  0
MTEXT
  5
3A0
100
AcDbEntity
100
AcDbMText
  8
Text
 62
256
370
-1
  6
ByLayer
 10
0.0
 20
-150.0
 30
0.0
 40
5.0
 41
100.0
 71
5
 72
2
  1
Front
  7
standard
 50
0.0
 73
0
 44
1.0
  0
CIRCLE
  5
3A1
100
AcDbEntity
100
AcDbCircle
  8
Text
 62
256
370
-1
  6
ByLayer
 10
0.0
 20
-130.0
 30
0.0
 40
13.0384048104052983
  0
SPLINE
  5
3A2
  8
Text
 62
256
370
5
  6
ByLayer
100
AcDbEntity
100
AcDbSpline
 70
8
 71
3
 72
8
 73
4
 74
0
 40
0.0
 40
0.0
 40
0.0
 40
0.0
 40
1.0
 40
1.0
 40
1.0
 40
1.0
 10
-6.3292079662613769
 20
-137.4756451953918486
 30
0.0
 10
-7.0389225537738884
 20
-137.0630958519514593
 30
0.0
 10
-7.1068647212949836
 20
-136.467967652381958
 30
0.0
 10
-7.1068647212941869
 20
-130.6638805682295583
 30
0.0
  0
SPLINE
  5
3A3
  8
Text
 62
256
370
5
  6
ByLayer
100
AcDbEntity
100
AcDbSpline
 70
8
 71
3
 72
8
 73
4
 74
0
 40
0.0
 40
0.0
 40
0.0
 40
0.0
 40
1.0
 40
1.0
 40
1.0
 40
1.0
 10
-7.1068647212941869
 20
-130.6638805682295583
 30
0.0
 10
-7.1068647212938467
 20
-124.2762397926087488
 30
0.0
 10
-7.0379123955133309
 20
-123.7488951650784657
 30
0.0
 10
-6.0646394107351407
 20
-122.6930182195510213
 30
0.0
  0
SPLINE
  5
3A4
  8
Text
 62
256
370
5
  6
ByLayer
100
AcDbEntity
100
AcDbSpline
 70
8
 71
3
 72
8
 73
4
 74
0
 40
0.0
 40
0.0
 40
0.0
 40
0.0
 40
1.0
 40
1.0
 40
1.0
 40
1.0
 10
-6.0646394107351407
 20
-122.6930182195510213
 30
0.0
 10
-5.0471271752122666
 20
-121.5891489924143514
 30
0.0
 10
-4.432969298295462
 20
-121.4646480225083565
 30
0.0
 10
-0.0050947239396927
 20
-121.464648022508328
 30
0.0
  0
SPLINE
  5
3A5
  8
Text
 62
256
370
5
  6
ByLayer
100
AcDbEntity
100
AcDbSpline
 70
8
 71
3
 72
8
 73
4
 74
0
 40
0.0
 40
0.0
 40
0.0
 40
0.0
 40
1.0
 40
1.0
 40
1.0
 40
1.0
 10
-0.0050947239396927
 20
-121.464648022508328
 30
0.0
 10
4.265527147129319
 20
-121.4646480225082144
 30
0.0
 10
4.937190073096076
 20
-121.5904834428391439
 30
0.0
 10
5.9510989965847338
 20
-122.5805373636294746
 30
0.0
  0
SPLINE
  5
3A6
  8
Text
 62
256
370
5
  6
ByLayer
100
AcDbEntity
100
AcDbSpline
 70
8
 71
3
 72
8
 73
4
 74
0
 40
0.0
 40
0.0
 40
0.0
 40
0.0
 40
1.0
 40
1.0
 40
1.0
 40
1.0
 10
5.9510989965847338
 20
-122.5805373636294746
 30
0.0
 10
7.0271157874876735
 20
-123.6312404288611617
 30
0.0
 10
7.0891372558935473
 20
-124.0638739908762318
 30
0.0
 10
7.0891372558916146
 20
-130.5189616191572668
 30
0.0
  0
SPLINE
  5
3A7
  8
Text
 62
256
370
5
  6
ByLayer
100
AcDbEntity
100
AcDbSpline
 70
8
 71
3
 72
8
 73
4
 74
0
 40
0.0
 40
0.0
 40
0.0
 40
0.0
 40
1.0
 40
1.0
 40
1.0
 40
1.0
 10
7.0891372558916146
 20
-130.5189616191572668
 30
0.0
 10
7.0891372558911572
 20
-136.5276646324194871
 30
0.0
 10
7.0242610695930781
 20
-137.0855891826731749
 30
0.0
 10
6.2791968607299395
 20
-137.484335988715543
 30
0.0
  0
SPLINE
  5
3A8
  8
Text
 62
256
370
5
  6
ByLayer
100
AcDbEntity
100
AcDbSpline
 70
8
 71
3
 72
8
 73
4
 74
0
 40
0.0
 40
0.0
 40
0.0
 40
0.0
 40
1.0
 40
1.0
 40
1.0
 40
1.0
 10
6.2791968607299395
 20
-137.484335988715543
 30
0.0
 10
5.5789796545351455
 20
-137.8590804403366974
 30
0.0
 10
4.2554314822719972
 20
-137.5201720483154872
 30
0.0
 10
4.0196574672283969
 20
-136.9057555661471497
 30
0.0
  0
SPLINE
  5
3A9
  8
Text
 62
256
370
5
  6
ByLayer
100
AcDbEntity
100
AcDbSpline
 70
8
 71
3
 72
8
 73
4
 74
0
 40
0.0
 40
0.0
 40
0.0
 40
0.0
 40
1.0
 40
1.0
 40
1.0
 40
1.0
 10
4.0196574672283969
 20
-136.9057555661471497
 30
0.0
 10
3.9625980240188001
 20
-136.757059915253933
 30
0.0
 10
3.9159129712285221
 20
-133.9735348035837319
 30
0.0
 10
3.9159129712298864
 20
-130.7201423000551586
 30
0.0
  0
LINE
  5
3AA
100
AcDbEntity
100
AcDbLine
  8
Text
 62
256
370
5
  6
ByLayer
 10
3.9159129712298864
 20
-130.7201423000551586
 30
0.0
 11
3.915912971229659
 21
-124.8048839558978784
 31
0.0
  0
LINE
  5
3AB
100
AcDbEntity
100
AcDbLine
  8
Text
 62
256
370
5
  6
ByLayer
 10
3.915912971229659
 20
-124.8048839558978784
 30
0.0
 11
2.7528479966539412
 21
-124.8048839558977647
 31
0.0
  0
LINE
  5
3AC
100
AcDbEntity
100
AcDbLine
  8
Text
 62
256
370
5
  6
ByLayer
 10
2.7528479966539412
 20
-124.8048839558977647
 30
0.0
 11
1.5897842056283478
 21
-124.8048839558977079
 31
0.0
  0
LINE
  5
3AD
100
AcDbEntity
100
AcDbLine
  8
Text
 62
256
370
5
  6
ByLayer
 10
1.5897842056283478
 20
-124.8048839558977079
 30
0.0
 11
1.5420120639556669
 21
-130.831924862627659
 31
0.0
  0
LINE
  5
3AE
100
AcDbEntity
100
AcDbLine
  8
Text
 62
256
370
5
  6
ByLayer
 10
1.5420120639556669
 20
-130.831924862627659
 30
0.0
 11
1.4942416976073221
 21
-136.8589657693576669
 31
0.0
  0
LINE
  5
3AF
100
AcDbEntity
100
AcDbLine
  8
Text
 62
256
370
5
  6
ByLayer
 10
1.4942416976073221
 20
-136.8589657693576669
 30
0.0
 11
1.0256466198997036
 21
-137.2618780727716512
 31
0.0
  0
SPLINE
  5
3B0
  8
Text
 62
256
370
5
  6
ByLayer
100
AcDbEntity
100
AcDbSpline
 70
8
 71
3
 72
8
 73
4
 74
0
 40
0.0
 40
0.0
 40
0.0
 40
0.0
 40
1.0
 40
1.0
 40
1.0
 40
1.0
 10
1.0256466198997036
 20
-137.2618780727716512
 30
0.0
 10
0.4060751942089343
 20
-137.7946042932772457
 30
0.0
 10
-0.4238032513852664
 20
-137.7946042932773594
 30
0.0
 10
-1.0433752688503535
 20
-137.2618780727725039
 30
0.0
  0
LINE
  5
3B1
100
AcDbEntity
100
AcDbLine
  8
Text
 62
256
370
5
  6
ByLayer
 10
-1.0433752688503535
 20
-137.2618780727725039
 30
0.0
 11
-1.5119703465572911
 21
-136.85896576935653
 31
0.0
  0
LINE
  5
3B2
100
AcDbEntity
100
AcDbLine
  8
Text
 62
256
370
5
  6
ByLayer
 10
-1.5119703465572911
 20
-136.85896576935653
 30
0.0
 11
-1.5597407129052958
 21
-130.8319248626275453
 31
0.0
  0
LINE
  5
3B3
100
AcDbEntity
100
AcDbLine
  8
Text
 62
256
370
5
  6
ByLayer
 10
-1.5597407129052958
 20
-130.8319248626275453
 30
0.0
 11
-1.6075128545774082
 21
-124.8048839558979637
 31
0.0
  0
LINE
  5
3B4
100
AcDbEntity
100
AcDbLine
  8
Text
 62
256
370
5
  6
ByLayer
 10
-1.6075128545774082
 20
-124.8048839558979637
 30
0.0
 11
-2.7705760538301547
 21
-124.8048839558979637
 31
0.0
  0
LINE
  5
3B5
100
AcDbEntity
100
AcDbLine
  8
Text
 62
256
370
5
  6
ByLayer
 10
-2.7705760538301547
 20
-124.8048839558979637
 30
0.0
 11
-3.9336410284048506
 21
-124.8048839558979637
 31
0.0
  0
LINE
  5
3B6
100
AcDbEntity
100
AcDbLine
  8
Text
 62
256
370
5
  6
ByLayer
 10
-3.9336410284048506
 20
-124.8048839558979637
 30
0.0
 11
-3.9336410284049639
 21
-130.7201423000551017
 31
0.0
  0
SPLINE
  5
3B7
  8
Text
 62
256
370
5
  6
ByLayer
100
AcDbEntity
100
AcDbSpline
 70
8
 71
3
 72
8
 73
4
 74
0
 40
0.0
 40
0.0
 40
0.0
 40
0.0
 40
1.0
 40
1.0
 40
1.0
 40
1.0
 10
-3.9336410284049639
 20
-130.7201423000551017
 30
0.0
 10
-3.9336410284050785
 20
-133.9735348035837319
 30
0.0
 10
-3.9803254894185351
 20
-136.7570599152548425
 30
0.0
 10
-4.0373855244035921
 20
-136.9057555661447054
 30
0.0
  0
SPLINE
  5
3B8
  8
Text
 62
256
370
5
  6
ByLayer
100
AcDbEntity
100
AcDbSpline
 70
8
 71
3
 72
8
 73
4
 74
0
 40
0.0
 40
0.0
 40
0.0
 40
0.0
 40
1.0
 40
1.0
 40
1.0
 40
1.0
 10
-4.0373855244035921
 20
-136.9057555661447054
 30
0.0
 10
-4.2738637505370898
 20
-137.5220089148815532
 30
0.0
 10
-5.6575397143271848
 20
-137.8660769846291601
 30
0.0
 10
-6.3292079662613769
 20
-137.4756451953918486
 30
0.0
  0
LINE
  5
3B9
100
AcDbEntity
100
AcDbLine
  8
Text
 62
256
370
5
  6
ByLayer
 10
-6.3292079662613769
 20
-137.4756451953918486
 30
0.0
 11
-6.3292079662613769
 21
-137.4756451953918486
 31
0.0
  0
CIRCLE
  5
3BA
100
AcDbEntity
100
AcDbCircle
  8
Text
 62
256
370
-1
  6
ByLayer
 10
-0.0000000000000284
 20
130.0000000000000568
 30
0.0
 40
13.0384048104052983
  0
SPLINE
  5
3BB
  8
Text
 62
256
370
5
  6
ByLayer
100
AcDbEntity
100
AcDbSpline
 70
8
 71
3
 72
8
 73
4
 74
0
 40
0.0
 40
0.0
 40
0.0
 40
0.0
 40
1.0
 40
1.0
 40
1.0
 40
1.0
 10
-6.3292079662614356
 20
137.4756451953919338
 30
0.0
 10
-7.0389225537739719
 20
137.0630958519515445
 30
0.0
 10
-7.1068647212950111
 20
136.4679676523819865
 30
0.0
 10
-7.1068647212942437
 20
130.6638805682296436
 30
0.0
  0
SPLINE
  5
3BC
  8
Text
 62
256
370
5
  6
ByLayer
100
AcDbEntity
100
AcDbSpline
 70
8
 71
3
 72
8
 73
4
 74
0
 40
0.0
 40
0.0
 40
0.0
 40
0.0
 40
1.0
 40
1.0
 40
1.0
 40
1.0
 10
-7.1068647212942437
 20
130.6638805682296436
 30
0.0
 10
-7.1068647212938174
 20
124.2762397926087061
 30
0.0
 10
-7.0379123955134446
 20
123.7488951650786504
 30
0.0
 10
-6.0646394107351966
 20
122.6930182195511065
 30
0.0
  0
SPLINE
  5
3BD
  8
Text
 62
256
370
5
  6
ByLayer
100
AcDbEntity
100
AcDbSpline
 70
8
 71
3
 72
8
 73
4
 74
0
 40
0.0
 40
0.0
 40
0.0
 40
0.0
 40
1.0
 40
1.0
 40
1.0
 40
1.0
 10
-6.0646394107351966
 20
122.6930182195511065
 30
0.0
 10
-5.0471271752122959
 20
121.5891489924143798
 30
0.0
 10
-4.4329692982955464
 20
121.4646480225084986
 30
0.0
 10
-0.0050947239397203
 20
121.4646480225083849
 30
0.0
  0
SPLINE
  5
3BE
  8
Text
 62
256
370
5
  6
ByLayer
100
AcDbEntity
100
AcDbSpline
 70
8
 71
3
 72
8
 73
4
 74
0
 40
0.0
 40
0.0
 40
0.0
 40
0.0
 40
1.0
 40
1.0
 40
1.0
 40
1.0
 10
-0.0050947239397203
 20
121.4646480225083849
 30
0.0
 10
4.2655271471293474
 20
121.4646480225081575
 30
0.0
 10
4.9371900730960476
 20
121.5904834428391723
 30
0.0
 10
5.9510989965847045
 20
122.5805373636295315
 30
0.0
  0
SPLINE
  5
3BF
  8
Text
 62
256
370
5
  6
ByLayer
100
AcDbEntity
100
AcDbSpline
 70
8
 71
3
 72
8
 73
4
 74
0
 40
0.0
 40
0.0
 40
0.0
 40
0.0
 40
1.0
 40
1.0
 40
1.0
 40
1.0
 10
5.9510989965847045
 20
122.5805373636295315
 30
0.0
 10
7.0271157874875882
 20
123.6312404288613038
 30
0.0
 10
7.0891372558935757
 20
124.0638739908762034
 30
0.0
 10
7.0891372558915577
 20
130.5189616191573521
 30
0.0
  0
SPLINE
  5
3C0
  8
Text
 62
256
370
5
  6
ByLayer
100
AcDbEntity
100
AcDbSpline
 70
8
 71
3
 72
8
 73
4
 74
0
 40
0.0
 40
0.0
 40
0.0
 40
0.0
 40
1.0
 40
1.0
 40
1.0
 40
1.0
 10
7.0891372558915577
 20
130.5189616191573521
 30
0.0
 10
7.089137255891103
 20
136.5276646324195724
 30
0.0
 10
7.0242610695929955
 20
137.0855891826732886
 30
0.0
 10
6.2791968607299111
 20
137.4843359887155998
 30
0.0
  0
SPLINE
  5
3C1
  8
Text
 62
256
370
5
  6
ByLayer
100
AcDbEntity
100
AcDbSpline
 70
8
 71
3
 72
8
 73
4
 74
0
 40
0.0
 40
0.0
 40
0.0
 40
0.0
 40
1.0
 40
1.0
 40
1.0
 40
1.0
 10
6.2791968607299111
 20
137.4843359887155998
 30
0.0
 10
5.578979654535118
 20
137.8590804403367542
 30
0.0
 10
4.2554314822719732
 20
137.5201720483155441
 30
0.0
 10
4.0196574672283134
 20
136.9057555661472634
 30
0.0
  0
SPLINE
  5
3C2
  8
Text
 62
256
370
5
  6
ByLayer
100
AcDbEntity
100
AcDbSpline
 70
8
 71
3
 72
8
 73
4
 74
0
 40
0.0
 40
0.0
 40
0.0
 40
0.0
 40
1.0
 40
1.0
 40
1.0
 40
1.0
 10
4.0196574672283134
 20
136.9057555661472634
 30
0.0
 10
3.9625980240188312
 20
136.7570599152539046
 30
0.0
 10
3.9159129712285221
 20
133.9735348035837035
 30
0.0
 10
3.9159129712299148
 20
130.7201423000551301
 30
0.0
  0
LINE
  5
3C3
100
AcDbEntity
100
AcDbLine
  8
Text
 62
256
370
5
  6
ByLayer
 10
3.9159129712299148
 20
130.7201423000551301
 30
0.0
 11
3.9159129712296306
 21
124.8048839558979211
 31
0.0
  0
LINE
  5
3C4
100
AcDbEntity
100
AcDbLine
  8
Text
 62
256
370
5
  6
ByLayer
 10
3.9159129712296306
 20
124.8048839558979211
 30
0.0
 11
2.7528479966538839
 21
124.8048839558978216
 31
0.0
  0
LINE
  5
3C5
100
AcDbEntity
100
AcDbLine
  8
Text
 62
256
370
5
  6
ByLayer
 10
2.7528479966538839
 20
124.8048839558978216
 30
0.0
 11
1.589784205628348
 21
124.8048839558977079
 31
0.0
  0
LINE
  5
3C6
100
AcDbEntity
100
AcDbLine
  8
Text
 62
256
370
5
  6
ByLayer
 10
1.589784205628348
 20
124.8048839558977079
 30
0.0
 11
1.5420120639556956
 21
130.8319248626276021
 31
0.0
  0
LINE
  5
3C7
100
AcDbEntity
100
AcDbLine
  8
Text
 62
256
370
5
  6
ByLayer
 10
1.5420120639556956
 20
130.8319248626276021
 30
0.0
 11
1.494241697607265
 21
136.8589657693577237
 31
0.0
  0
LINE
  5
3C8
100
AcDbEntity
100
AcDbLine
  8
Text
 62
256
370
5
  6
ByLayer
 10
1.494241697607265
 20
136.8589657693577237
 30
0.0
 11
1.0256466198996463
 21
137.2618780727717365
 31
0.0
  0
SPLINE
  5
3C9
  8
Text
 62
256
370
5
  6
ByLayer
100
AcDbEntity
100
AcDbSpline
 70
8
 71
3
 72
8
 73
4
 74
0
 40
0.0
 40
0.0
 40
0.0
 40
0.0
 40
1.0
 40
1.0
 40
1.0
 40
1.0
 10
1.0256466198996463
 20
137.2618780727717365
 30
0.0
 10
0.4060751942088814
 20
137.794604293277331
 30
0.0
 10
-0.4238032513853227
 20
137.7946042932774446
 30
0.0
 10
-1.043375268850383
 20
137.2618780727725323
 30
0.0
  0
LINE
  5
3CA
100
AcDbEntity
100
AcDbLine
  8
Text
 62
256
370
5
  6
ByLayer
 10
-1.043375268850383
 20
137.2618780727725323
 30
0.0
 11
-1.5119703465572911
 21
136.8589657693565584
 31
0.0
  0
LINE
  5
3CB
100
AcDbEntity
100
AcDbLine
  8
Text
 62
256
370
5
  6
ByLayer
 10
-1.5119703465572911
 20
136.8589657693565584
 30
0.0
 11
-1.5597407129052954
 21
130.8319248626275169
 31
0.0
  0
LINE
  5
3CC
100
AcDbEntity
100
AcDbLine
  8
Text
 62
256
370
5
  6
ByLayer
 10
-1.5597407129052954
 20
130.8319248626275169
 30
0.0
 11
-1.6075128545774078
 21
124.8048839558979637
 31
0.0
  0
LINE
  5
3CD
100
AcDbEntity
100
AcDbLine
  8
Text
 62
256
370
5
  6
ByLayer
 10
-1.6075128545774078
 20
124.8048839558979637
 30
0.0
 11
-2.7705760538301831
 21
124.8048839558980063
 31
0.0
  0
LINE
  5
3CE
100
AcDbEntity
100
AcDbLine
  8
Text
 62
256
370
5
  6
ByLayer
 10
-2.7705760538301831
 20
124.8048839558980063
 30
0.0
 11
-3.9336410284048782
 21
124.8048839558979779
 31
0.0
  0
LINE
  5
3CF
100
AcDbEntity
100
AcDbLine
  8
Text
 62
256
370
5
  6
ByLayer
 10
-3.9336410284048782
 20
124.8048839558979779
 30
0.0
 11
-3.9336410284049634
 21
130.7201423000551017
 31
0.0
  0
SPLINE
  5
3D0
  8
Text
 62
256
370
5
  6
ByLayer
100
AcDbEntity
100
AcDbSpline
 70
8
 71
3
 72
8
 73
4
 74
0
 40
0.0
 40
0.0
 40
0.0
 40
0.0
 40
1.0
 40
1.0
 40
1.0
 40
1.0
 10
-3.9336410284049634
 20
130.7201423000551017
 30
0.0
 10
-3.933641028405134
 20
133.9735348035838172
 30
0.0
 10
-3.9803254894185898
 20
136.7570599152549278
 30
0.0
 10
-4.0373855244036747
 20
136.9057555661447907
 30
0.0
  0
SPLINE
  5
3D1
  8
Text
 62
256
370
5
  6
ByLayer
100
AcDbEntity
100
AcDbSpline
 70
8
 71
3
 72
8
 73
4
 74
0
 40
0.0
 40
0.0
 40
0.0
 40
0.0
 40
1.0
 40
1.0
 40
1.0
 40
1.0
 10
-4.0373855244036747
 20
136.9057555661447907
 30
0.0
 10
-4.2738637505371742
 20
137.5220089148816953
 30
0.0
 10
-5.6575397143271573
 20
137.8660769846291601
 30
0.0
 10
-6.3292079662614356
 20
137.4756451953919338
 30
0.0
  0
LINE
  5
3D2
100
AcDbEntity
100
AcDbLine
  8
Text
 62
256
370
5
  6
ByLayer
 10
-6.3292079662614356
 20
137.4756451953919338
 30
0.0
 11
-6.3292079662614356
 21
137.4756451953919338
 31
0.0
  0
MTEXT
  5
3D3
100
AcDbEntity
100
AcDbMText
  8
Text
 62
256
370
-1
  6
ByLayer
 10
0.0
 20
150.0
 30
0.0
 40
5.0
 41
100.0
 71
5
 72
2
  1
Back
  7
standard
 50
180.0
 73
0
 44
1.0
  0
ARC
  5
3D4
100
AcDbEntity
  8
03 - Top
 62
256
370
-1
  6
ByLayer
100
AcDbCircle
 10
-93.8500000000000512
 20
-8.8500000000000103
 30
0.0
 40
8.5
100
AcDbArc
 50
270.0
 51
90.0
  0
ARC
  5
3D5
100
AcDbEntity
  8
03 - Top
 62
256
370
-1
  6
ByLayer
100
AcDbCircle
 10
-103.8500000000000369
 20
-8.8500000000000085
 30
0.0
 40
8.5
100
AcDbArc
 50
90.0
 51
270.0
  0
LINE
  5
3D6
100
AcDbEntity
100
AcDbLine
  8
06 - Top
 62
256
370
-1
  6
ByLayer
 10
-93.8500000000000512
 20
-0.3500000000000103
 30
0.0
 11
-103.8500000000000369
 21
-0.3500000000000085
 31
0.0
  0
LINE
  5
3D7
100
AcDbEntity
100
AcDbLine
  8
06 - Top
 62
256
370
-1
  6
ByLayer
 10
-93.8500000000000512
 20
-17.3500000000000085
 30
0.0
 11
-103.8500000000000369
 21
-17.3500000000000085
 31
0.0
  0
CIRCLE
  5
3D8
100
AcDbEntity
100
AcDbCircle
  8
07 - Left End Cap
 62
256
370
-1
  6
ByLayer
 10
-253.0499999999998408
 20
-98.3250000000001023
 30
0.0
 40
4.75
  0
CIRCLE
  5
3D9
100
AcDbEntity
100
AcDbCircle
  8
07 - Left End Cap
 62
256
370
-1
  6
ByLayer
 10
-302.3500000000001364
 20
-98.3250000000001023
 30
0.0
 40
4.75
  0
CIRCLE
  5
3DA
100
AcDbEntity
100
AcDbCircle
  8
09 - Right End Cap
 62
256
370
-1
  6
ByLayer
 10
197.6499999999997499
 20
-98.3249999999999602
 30
0.0
 40
4.75
  0
CIRCLE
  5
3DB
100
AcDbEntity
100
AcDbCircle
  8
09 - Right End Cap
 62
256
370
-1
  6
ByLayer
 10
246.9500000000000455
 20
-98.3250000000000171
 30
0.0
 40
4.75
  0
ENDSEC
  0
SECTION
  2
OBJECTS
  0
DICTIONARY
  5
C
100
AcDbDictionary
280
0
281
1
  3
ACAD_GROUP
350
D
  3
ACAD_LAYOUT
350
1A
  3
ACAD_MLINESTYLE
350
17
  3
ACAD_PLOTSETTINGS
350
19
  3
ACAD_PLOTSTYLENAME
350
E
  3
AcDbVariableDictionary
350
3DC
  0
DICTIONARY
  5
D
100
AcDbDictionary
280
0
281
1
  0
ACDBDICTIONARYWDFLT
  5
E
100
AcDbDictionary
281
1
  3
Normal
350
F
100
AcDbDictionaryWithDefault
340
F
  0
ACDBPLACEHOLDER
  5
F
  0
DICTIONARY
  5
17
100
AcDbDictionary
280
0
281
1
  3
Standard
350
18
  0
MLINESTYLE
  5
18
100
AcDbMlineStyle
  2
STANDARD
 70
0
  3

 62
256
 51
90.0
 52
90.0
 71
2
 49
0.5
 62
256
  6
BYLAYER
 49
-0.5
 62
256
  6
BYLAYER
  0
DICTIONARY
  5
19
100
AcDbDictionary
280
0
281
1
  0
DICTIONARY
  5
1A
100
AcDbDictionary
281
1
  3
Layout1
350
1E
  3
Layout2
350
26
  3
Model
350
22
  0
LAYOUT
  5
1E
100
AcDbPlotSettings
  1

  2
C:\Program Files\AutoCAD 2002\plotters\DWF ePlot (optimized for plotting).pc3
  4

  6

 40
0.0
 41
0.0
 42
0.0
 43
0.0
 44
0.0
 45
0.0
 46
0.0
 47
0.0
 48
0.0
 49
0.0
140
0.0
141
0.0
142
1.0
143
1.0
 70
688
 72
0
 73
0
 74
5
  7

 75
16
147
1.0
148
0.0
149
0.0
100
AcDbLayout
  1
Layout1
 70
1
 71
1
 10
0.0
 20
0.0
 11
420.0
 21
297.0
 12
0.0
 22
0.0
 32
0.0
 14
100000000000000000000.0
 24
100000000000000000000.0
 34
100000000000000000000.0
 15
-100000000000000000000.0
 25
-100000000000000000000.0
 35
-100000000000000000000.0
146
0.0
 13
0.0
 23
0.0
 33
0.0
 16
1.0
 26
0.0
 36
0.0
 17
0.0
 27
1.0
 37
0.0
 76
0
330
1B
  0
LAYOUT
  5
22
100
AcDbPlotSettings
  1

  2
C:\Program Files\AutoCAD 2002\plotters\DWF ePlot (optimized for plotting).pc3
  4

  6

 40
0.0
 41
0.0
 42
0.0
 43
0.0
 44
0.0
 45
0.0
 46
0.0
 47
0.0
 48
0.0
 49
0.0
140
0.0
141
0.0
142
1.0
143
1.0
 70
1712
 72
0
 73
0
 74
0
  7

 75
0
147
1.0
148
0.0
149
0.0
100
AcDbLayout
  1
Model
 70
1
 71
0
 10
0.0
 20
0.0
 11
12.0
 21
9.0
 12
0.0
 22
0.0
 32
0.0
 14
0.0
 24
0.0
 34
0.0
 15
0.0
 25
0.0
 35
0.0
146
0.0
 13
0.0
 23
0.0
 33
0.0
 16
1.0
 26
0.0
 36
0.0
 17
0.0
 27
1.0
 37
0.0
 76
0
330
1F
  0
LAYOUT
  5
26
100
AcDbPlotSettings
  1

  2
C:\Program Files\AutoCAD 2002\plotters\DWF ePlot (optimized for plotting).pc3
  4

  6

 40
0.0
 41
0.0
 42
0.0
 43
0.0
 44
0.0
 45
0.0
 46
0.0
 47
0.0
 48
0.0
 49
0.0
140
0.0
141
0.0
142
1.0
143
1.0
 70
688
 72
0
 73
0
 74
5
  7

 75
16
147
1.0
148
0.0
149
0.0
100
AcDbLayout
  1
Layout2
 70
1
 71
2
 10
0.0
 20
0.0
 11
12.0
 21
9.0
 12
0.0
 22
0.0
 32
0.0
 14
0.0
 24
0.0
 34
0.0
 15
0.0
 25
0.0
 35
0.0
146
0.0
 13
0.0
 23
0.0
 33
0.0
 16
1.0
 26
0.0
 36
0.0
 17
0.0
 27
1.0
 37
0.0
 76
0
330
23
  0
DICTIONARY
  5
3DC
100
AcDbDictionary
281
1
  3
DIMASSOC
350
3DE
  3
HIDETEXT
350
3DD
  0
DICTIONARYVAR
  5
3DD
100
DictionaryVariables
280
0
  1
2
  0
DICTIONARYVAR
  5
3DE
100
DictionaryVariables
280
0
  1
1
  0
ENDSEC
  0
EOF
