999
dxflib 2.2.0.0
  0
SECTION
  2
HEADER
  9
$ACADVER
  1
AC1015
  9
$HANDSEED
  5
FFFF
  9
$DIMASZ
 40
2.5
  9
$PLIMMIN
 10
0.0
 20
0.0
  9
$DIMEXE
 40
1.25
  9
$DIMGAP
 40
0.625
  9
$PLIMMAX
 10
210.0
 20
297.0
  9
$INSUNITS
 70
4
  9
$DIMSTYLE
  2
Standard
  9
$CLAYER
  8
Y Stage
  9
$DIMEXO
 40
0.625
  9
$DIMTXT
 40
2.5
  9
$CLAYER
  8
Y Stage
  0
ENDSEC
  0
SECTION
  2
TABLES
  0
TABLE
  2
VPORT
  5
8
100
AcDbSymbolTable
 70
1
  0
VPORT
  5
30
100
AcDbSymbolTableRecord
100
AcDbViewportTableRecord
  2
*Active
 70
0
 10
0.0
 20
0.0
 11
1.0
 21
1.0
 12
286.30555555555549
 22
148.5
 13
0.0
 23
0.0
 14
10.0
 24
10.0
 15
10.0
 25
10.0
 16
0.0
 26
0.0
 36
1.0
 17
0.0
 27
0.0
 37
0.0
 40
297.0
 41
1.92798353909465
 42
50.0
 43
0.0
 44
0.0
 50
0.0
 51
0.0
 71
0
 72
100
 73
1
 74
3
 75
1
 76
1
 77
0
 78
0
281
0
 65
1
110
0.0
120
0.0
130
0.0
111
1.0
121
0.0
131
0.0
112
0.0
122
1.0
132
0.0
 79
0
146
0.0
  0
ENDTAB
  0
TABLE
  2
LTYPE
  5
5
100
AcDbSymbolTable
 70
21
  0
LTYPE
  5
14
100
AcDbSymbolTableRecord
100
AcDbLinetypeTableRecord
  2
ByBlock
 70
0
  3

 72
65
 73
0
 40
0.0
  0
LTYPE
  5
15
100
AcDbSymbolTableRecord
100
AcDbLinetypeTableRecord
  2
ByLayer
 70
0
  3

 72
65
 73
0
 40
0.0
  0
LTYPE
  5
16
100
AcDbSymbolTableRecord
100
AcDbLinetypeTableRecord
  2
CONTINUOUS
 70
0
  3
Solid line
 72
65
 73
0
 40
0.0
  0
LTYPE
  5
31
100
AcDbSymbolTableRecord
100
AcDbLinetypeTableRecord
  2
DOT
 70
0
  3
Dot . . . . . . . . . . . . . . . . . . . . . .
 72
65
 73
2
 40
6.3499999999999996
 49
0.0
 74
0
 49
-6.3499999999999996
 74
0
  0
LTYPE
  5
32
100
AcDbSymbolTableRecord
100
AcDbLinetypeTableRecord
  2
DOT2
 70
0
  3
Dot (.5x) .....................................
 72
65
 73
2
 40
3.1749999999999998
 49
0.0
 74
0
 49
-3.1749999999999998
 74
0
  0
LTYPE
  5
33
100
AcDbSymbolTableRecord
100
AcDbLinetypeTableRecord
  2
DOTX2
 70
0
  3
Dot (2x) .  .  .  .  .  .  .  .  .  .  .  .  .
 72
65
 73
2
 40
12.699999999999999
 49
0.0
 74
0
 49
-12.699999999999999
 74
0
  0
LTYPE
  5
34
100
AcDbSymbolTableRecord
100
AcDbLinetypeTableRecord
  2
DASHED
 70
0
  3
Dashed __ __ __ __ __ __ __ __ __ __ __ __ __ _
 72
65
 73
2
 40
19.050000000000001
 49
12.699999999999999
 74
0
 49
-6.3499999999999996
 74
0
  0
LTYPE
  5
35
100
AcDbSymbolTableRecord
100
AcDbLinetypeTableRecord
  2
DASHED2
 70
0
  3
Dashed (.5x) _ _ _ _ _ _ _ _ _ _ _ _ _ _ _ _ _
 72
65
 73
2
 40
9.5250000000000004
 49
6.3499999999999996
 74
0
 49
-3.1749999999999998
 74
0
  0
LTYPE
  5
36
100
AcDbSymbolTableRecord
100
AcDbLinetypeTableRecord
  2
DASHEDX2
 70
0
  3
Dashed (2x) ____  ____  ____  ____  ____  ___
 72
65
 73
2
 40
38.100000000000001
 49
25.399999999999999
 74
0
 49
-12.699999999999999
 74
0
  0
LTYPE
  5
37
100
AcDbSymbolTableRecord
100
AcDbLinetypeTableRecord
  2
DASHDOT
 70
0
  3
Dash dot __ . __ . __ . __ . __ . __ . __ . __
 72
65
 73
4
 40
25.399999999999999
 49
12.699999999999999
 74
0
 49
-6.3499999999999996
 74
0
 49
0.0
 74
0
 49
-6.3499999999999996
 74
0
  0
LTYPE
  5
38
100
AcDbSymbolTableRecord
100
AcDbLinetypeTableRecord
  2
DASHDOT2
 70
0
  3
Dash dot (.5x) _._._._._._._._._._._._._._._.
 72
65
 73
4
 40
12.699999999999999
 49
6.3499999999999996
 74
0
 49
-3.1749999999999998
 74
0
 49
0.0
 74
0
 49
-3.1749999999999998
 74
0
  0
LTYPE
  5
39
100
AcDbSymbolTableRecord
100
AcDbLinetypeTableRecord
  2
DASHDOTX2
 70
0
  3
Dash dot (2x) ____  .  ____  .  ____  .  ___
 72
65
 73
4
 40
50.799999999999997
 49
25.399999999999999
 74
0
 49
-12.699999999999999
 74
0
 49
0.0
 74
0
 49
-12.699999999999999
 74
0
  0
LTYPE
  5
3A
100
AcDbSymbolTableRecord
100
AcDbLinetypeTableRecord
  2
DIVIDE
 70
0
  3
Divide ____ . . ____ . . ____ . . ____ . . ____
 72
65
 73
6
 40
31.75
 49
12.699999999999999
 74
0
 49
-6.3499999999999996
 74
0
 49
0.0
 74
0
 49
-6.3499999999999996
 74
0
 49
0.0
 74
0
 49
-6.3499999999999996
 74
0
  0
LTYPE
  5
3B
100
AcDbSymbolTableRecord
100
AcDbLinetypeTableRecord
  2
DIVIDE2
 70
0
  3
Divide (.5x) __..__..__..__..__..__..__..__.._
 72
65
 73
6
 40
15.875
 49
6.3499999999999996
 74
0
 49
-3.1749999999999998
 74
0
 49
0.0
 74
0
 49
-3.1749999999999998
 74
0
 49
0.0
 74
0
 49
-3.1749999999999998
 74
0
  0
LTYPE
  5
3C
100
AcDbSymbolTableRecord
100
AcDbLinetypeTableRecord
  2
DIVIDEX2
 70
0
  3
Divide (2x) ________  .  .  ________  .  .  _
 72
65
 73
6
 40
63.5
 49
25.399999999999999
 74
0
 49
-12.699999999999999
 74
0
 49
0.0
 74
0
 49
-12.699999999999999
 74
0
 49
0.0
 74
0
 49
-12.699999999999999
 74
0
  0
LTYPE
  5
3D
100
AcDbSymbolTableRecord
100
AcDbLinetypeTableRecord
  2
CENTER
 70
0
  3
Center ____ _ ____ _ ____ _ ____ _ ____ _ ____
 72
65
 73
4
 40
50.799999999999997
 49
31.75
 74
0
 49
-6.3499999999999996
 74
0
 49
6.3499999999999996
 74
0
 49
-6.3499999999999996
 74
0
  0
LTYPE
  5
3E
100
AcDbSymbolTableRecord
100
AcDbLinetypeTableRecord
  2
CENTER2
 70
0
  3
Center (.5x) ___ _ ___ _ ___ _ ___ _ ___ _ ___
 72
65
 73
4
 40
28.574999999999999
 49
19.050000000000001
 74
0
 49
-3.1749999999999998
 74
0
 49
3.1749999999999998
 74
0
 49
-3.1749999999999998
 74
0
  0
LTYPE
  5
3F
100
AcDbSymbolTableRecord
100
AcDbLinetypeTableRecord
  2
CENTERX2
 70
0
  3
Center (2x) ________  __  ________  __  _____
 72
65
 73
4
 40
101.59999999999999
 49
63.5
 74
0
 49
-12.699999999999999
 74
0
 49
12.699999999999999
 74
0
 49
-12.699999999999999
 74
0
  0
LTYPE
  5
40
100
AcDbSymbolTableRecord
100
AcDbLinetypeTableRecord
  2
BORDER
 70
0
  3
Border __ __ . __ __ . __ __ . __ __ . __ __ .
 72
65
 73
6
 40
44.450000000000003
 49
12.699999999999999
 74
0
 49
-6.3499999999999996
 74
0
 49
12.699999999999999
 74
0
 49
-6.3499999999999996
 74
0
 49
0.0
 74
0
 49
-6.3499999999999996
 74
0
  0
LTYPE
  5
41
100
AcDbSymbolTableRecord
100
AcDbLinetypeTableRecord
  2
BORDER2
 70
0
  3
Border (.5x) __.__.__.__.__.__.__.__.__.__.__.
 72
65
 73
6
 40
22.225000000000001
 49
6.3499999999999996
 74
0
 49
-3.1749999999999998
 74
0
 49
6.3499999999999996
 74
0
 49
-3.1749999999999998
 74
0
 49
0.0
 74
0
 49
-3.1749999999999998
 74
0
  0
LTYPE
  5
42
100
AcDbSymbolTableRecord
100
AcDbLinetypeTableRecord
  2
BORDERX2
 70
0
  3
Border (2x) ____  ____  .  ____  ____  .  ___
 72
65
 73
6
 40
88.900000000000006
 49
25.399999999999999
 74
0
 49
-12.699999999999999
 74
0
 49
25.399999999999999
 74
0
 49
-12.699999999999999
 74
0
 49
0.0
 74
0
 49
-12.699999999999999
 74
0
  0
ENDTAB
  0
TABLE
  2
LAYER
  5
2
100
AcDbSymbolTable
 70
12
  0
LAYER
  5
10
100
AcDbSymbolTableRecord
100
AcDbLayerTableRecord
  2
0
 70
0
 62
7
420
0
  6
CONTINUOUS
370
0
390
F
  0
LAYER
  5
43
100
AcDbSymbolTableRecord
100
AcDbLayerTableRecord
  2
Drawings
 70
0
 62
5
420
255
  6
CONTINUOUS
370
0
390
F
  0
LAYER
  5
44
100
AcDbSymbolTableRecord
100
AcDbLayerTableRecord
  2
Drawings - Pulleys
 70
0
 62
1
420
16711680
  6
CONTINUOUS
370
0
390
F
  0
LAYER
  5
45
100
AcDbSymbolTableRecord
100
AcDbLayerTableRecord
  2
Drawings - Belt
 70
0
 62
4
420
65535
  6
CONTINUOUS
370
0
390
F
  0
LAYER
  5
46
100
AcDbSymbolTableRecord
100
AcDbLayerTableRecord
  2
Notes
 70
0
 62
7
420
0
  6
CONTINUOUS
370
0
390
F
  0
LAYER
  5
47
100
AcDbSymbolTableRecord
100
AcDbLayerTableRecord
  2
Motor Mount
 70
0
 62
7
420
0
  6
CONTINUOUS
370
0
390
F
  0
LAYER
  5
48
100
AcDbSymbolTableRecord
100
AcDbLayerTableRecord
  2
Etch
 70
0
 62
1
420
16711680
  6
CONTINUOUS
370
0
390
F
  0
LAYER
  5
49
100
AcDbSymbolTableRecord
100
AcDbLayerTableRecord
  2
Y Stage
 70
0
 62
7
420
0
  6
CONTINUOUS
370
0
390
F
  0
LAYER
  5
4A
100
AcDbSymbolTableRecord
100
AcDbLayerTableRecord
  2
Drawings - Y Travel
 70
0
 62
3
420
65280
  6
CONTINUOUS
370
0
390
F
  0
LAYER
  5
4B
100
AcDbSymbolTableRecord
100
AcDbLayerTableRecord
  2
Drawings - M5 Nut
 70
0
 62
7
420
0
  6
CONTINUOUS
370
0
390
F
  0
LAYER
  5
4C
100
AcDbSymbolTableRecord
100
AcDbLayerTableRecord
  2
Cap
 70
0
 62
7
420
0
  6
CONTINUOUS
370
0
390
F
  0
LAYER
  5
4D
100
AcDbSymbolTableRecord
100
AcDbLayerTableRecord
  2
Drawings - 624 Bearing Stackup
 70
0
 62
3
420
65280
  6
CONTINUOUS
370
0
390
F
  0
ENDTAB
  0
TABLE
  2
STYLE
  5
3
100
AcDbSymbolTable
 70
1
  0
STYLE
  5
11
100
AcDbSymbolTableRecord
100
AcDbTextStyleTableRecord
  2
Standard
 70
0
 40
0.0
 41
0.75
 50
0.0
 71
0
 42
2.5
  3
txt
  4

  0
ENDTAB
  0
TABLE
  2
VIEW
  5
6
100
AcDbSymbolTable
 70
0
  0
ENDTAB
  0
TABLE
  2
UCS
  5
7
100
AcDbSymbolTable
 70
0
  0
ENDTAB
  0
TABLE
  2
APPID
  5
9
100
AcDbSymbolTable
 70
1
  0
APPID
  5
12
100
AcDbSymbolTableRecord
100
AcDbRegAppTableRecord
  2
ACAD
 70
0
  0
ENDTAB
  0
TABLE
  2
DIMSTYLE
  5
A
100
AcDbSymbolTable
 70
1
100
AcDbDimStyleTable
 71
0
  0
DIMSTYLE
105
27
100
AcDbSymbolTableRecord
100
AcDbDimStyleTableRecord
  2
Standard
 41
2.5
 42
0.625
 43
3.75
 44
1.25
 70
0
 73
0
 74
0
 77
1
 78
8
140
2.5
141
2.5
143
0.03937007874016
147
0.625
171
3
172
1
271
2
272
2
274
3
278
44
283
0
284
8
340
11
  0
ENDTAB
  0
TABLE
  2
BLOCK_RECORD
  5
1
100
AcDbSymbolTable
 70
1
  0
BLOCK_RECORD
  5
1F
100
AcDbSymbolTableRecord
100
AcDbBlockTableRecord
  2
*Model_Space
340
22
  0
BLOCK_RECORD
  5
1B
100
AcDbSymbolTableRecord
100
AcDbBlockTableRecord
  2
*Paper_Space
340
1E
  0
BLOCK_RECORD
  5
23
100
AcDbSymbolTableRecord
100
AcDbBlockTableRecord
  2
*Paper_Space0
340
26
  0
BLOCK_RECORD
  5
4E
100
AcDbSymbolTableRecord
100
AcDbBlockTableRecord
  2
NEMA 17
340
0
  0
BLOCK_RECORD
  5
4F
100
AcDbSymbolTableRecord
100
AcDbBlockTableRecord
  2
tcutout
340
0
  0
BLOCK_RECORD
  5
50
100
AcDbSymbolTableRecord
100
AcDbBlockTableRecord
  2
tgrips
340
0
  0
BLOCK_RECORD
  5
51
100
AcDbSymbolTableRecord
100
AcDbBlockTableRecord
  2
tcutout-5
340
0
  0
BLOCK_RECORD
  5
52
100
AcDbSymbolTableRecord
100
AcDbBlockTableRecord
  2
tgrips-5
340
0
  0
ENDTAB
  0
ENDSEC
  0
SECTION
  2
BLOCKS
  0
BLOCK
  5
20
100
AcDbEntity
  8
0
100
AcDbBlockBegin
  2
*Model_Space
 70
0
 10
0.0
 20
0.0
 30
0.0
  3
*Model_Space
  1

  0
ENDBLK
  5
21
100
AcDbEntity
  8
0
100
AcDbBlockEnd
  0
BLOCK
  5
1C
100
AcDbEntity
 67
1
  8
0
100
AcDbBlockBegin
  2
*Paper_Space
 70
0
 10
0.0
 20
0.0
 30
0.0
  3
*Paper_Space
  1

  0
ENDBLK
  5
1D
100
AcDbEntity
 67
1
  8
0
100
AcDbBlockEnd
  0
BLOCK
  5
24
100
AcDbEntity
  8
0
100
AcDbBlockBegin
  2
*Paper_Space0
 70
0
 10
0.0
 20
0.0
 30
0.0
  3
*Paper_Space0
  1

  0
ENDBLK
  5
25
100
AcDbEntity
  8
0
100
AcDbBlockEnd
  0
BLOCK
  5
53
100
AcDbEntity
  8
0
100
AcDbBlockBegin
  2
NEMA 17
 70
0
 10
0.0
 20
0.0
 30
0.0
  3
NEMA 17
  1

  0
CIRCLE
  5
54
100
AcDbEntity
100
AcDbCircle
  8
0
 62
256
370
-1
  6
ByLayer
 10
15.495000000000001
 20
15.494999999999994
 30
0.0
 40
1.5
  0
CIRCLE
  5
55
100
AcDbEntity
100
AcDbCircle
  8
0
 62
256
370
-1
  6
ByLayer
 10
15.494999999999999
 20
-15.495000000000005
 30
0.0
 40
1.5
  0
CIRCLE
  5
56
100
AcDbEntity
100
AcDbCircle
  8
0
 62
256
370
-1
  6
ByLayer
 10
-15.495000000000001
 20
-15.494999999999996
 30
0.0
 40
1.5
  0
CIRCLE
  5
57
100
AcDbEntity
100
AcDbCircle
  8
0
 62
256
370
-1
  6
ByLayer
 10
-15.494999999999996
 20
15.494999999999999
 30
0.0
 40
1.5
  0
LINE
  5
58
100
AcDbEntity
100
AcDbLine
  8
Drawings
 62
256
370
-1
  6
ByLayer
 10
0.0000000000000023
 20
-21.149999999999999
 30
0.0
 11
0.0000000000000049
 21
21.149999999999999
 31
0.0
  0
LINE
  5
59
100
AcDbEntity
100
AcDbLine
  8
Drawings
 62
256
370
-1
  6
ByLayer
 10
-21.149999999999995
 20
0.0
 30
0.0
 11
21.150000000000002
 21
0.0
 31
0.0
  0
LINE
  5
5A
100
AcDbEntity
100
AcDbLine
  8
Drawings
 62
256
370
-1
  6
ByLayer
 10
-21.149999999999995
 20
21.149999999999999
 30
0.0
 11
21.150000000000002
 21
21.149999999999999
 31
0.0
  0
LINE
  5
5B
100
AcDbEntity
100
AcDbLine
  8
Drawings
 62
256
370
-1
  6
ByLayer
 10
-21.149999999999995
 20
-21.149999999999999
 30
0.0
 11
21.150000000000002
 21
-21.149999999999999
 31
0.0
  0
LINE
  5
5C
100
AcDbEntity
100
AcDbLine
  8
Drawings
 62
256
370
-1
  6
ByLayer
 10
-21.149999999999995
 20
-21.149999999999999
 30
0.0
 11
-21.149999999999991
 21
21.149999999999999
 31
0.0
  0
LINE
  5
5D
100
AcDbEntity
100
AcDbLine
  8
Drawings
 62
256
370
-1
  6
ByLayer
 10
21.150000000000002
 20
-21.149999999999999
 30
0.0
 11
21.150000000000006
 21
21.149999999999999
 31
0.0
  0
CIRCLE
  5
5E
100
AcDbEntity
100
AcDbCircle
  8
Drawings
 62
256
370
-1
  6
ByLayer
 10
0.0000000000000036
 20
0.0
 30
0.0
 40
11.0
  0
CIRCLE
  5
5F
100
AcDbEntity
100
AcDbCircle
  8
Drawings
 62
256
370
-1
  6
ByLayer
 10
0.0000000000000036
 20
0.0
 30
0.0
 40
3.0
  0
ENDBLK
  5
60
100
AcDbEntity
  8
0
100
AcDbBlockEnd
  0
BLOCK
  5
61
100
AcDbEntity
  8
0
100
AcDbBlockBegin
  2
tcutout
 70
0
 10
0.0
 20
0.0
 30
0.0
  3
tcutout
  1

  0
LINE
  5
62
100
AcDbEntity
100
AcDbLine
  8
0
 62
256
370
-1
  6
ByLayer
 10
-15.0
 20
0.0000000000000031
 30
0.0
 11
-5.0
 21
-0.0000000000000009
 31
0.0
  0
LINE
  5
63
100
AcDbEntity
100
AcDbLine
  8
0
 62
256
370
-1
  6
ByLayer
 10
5.0
 20
0.0000000000000004
 30
0.0
 11
15.0
 21
0.0000000000000027
 31
0.0
  0
LINE
  5
64
100
AcDbEntity
100
AcDbLine
  8
0
 62
256
370
-1
  6
ByLayer
 10
5.0
 20
4.5
 30
0.0
 11
15.0
 21
4.5000000000000027
 31
0.0
  0
LINE
  5
65
100
AcDbEntity
100
AcDbLine
  8
0
 62
256
370
-1
  6
ByLayer
 10
-14.999999999999998
 20
4.5000000000000027
 30
0.0
 11
-4.9999999999999982
 21
4.4999999999999991
 31
0.0
  0
LINE
  5
66
100
AcDbEntity
100
AcDbLine
  8
0
 62
256
370
-1
  6
ByLayer
 10
-4.9999999999999982
 20
4.4999999999999991
 30
0.0
 11
-5.0
 21
-0.0000000000000004
 31
0.0
  0
LINE
  5
67
100
AcDbEntity
100
AcDbLine
  8
0
 62
256
370
-1
  6
ByLayer
 10
-15.0
 20
0.0000000000000031
 30
0.0
 11
-14.999999999999998
 21
4.5000000000000027
 31
0.0
  0
LINE
  5
68
100
AcDbEntity
100
AcDbLine
  8
0
 62
256
370
-1
  6
ByLayer
 10
5.0
 20
0.0000000000000004
 30
0.0
 11
5.0
 21
4.4999999999999956
 31
0.0
  0
LINE
  5
69
100
AcDbEntity
100
AcDbLine
  8
0
 62
256
370
-1
  6
ByLayer
 10
15.0
 20
4.499999999999992
 30
0.0
 11
15.0
 21
0.0000000000000027
 31
0.0
  0
CIRCLE
  5
6A
100
AcDbEntity
100
AcDbCircle
  8
0
 62
256
370
-1
  6
ByLayer
 10
0.0000000000000004
 20
2.2499999999999987
 30
0.0
 40
1.5
  0
ENDBLK
  5
6B
100
AcDbEntity
  8
0
100
AcDbBlockEnd
  0
BLOCK
  5
6C
100
AcDbEntity
  8
0
100
AcDbBlockBegin
  2
tgrips
 70
0
 10
0.0
 20
0.0
 30
0.0
  3
tgrips
  1

  0
LINE
  5
6D
100
AcDbEntity
100
AcDbLine
  8
0
 62
256
370
-1
  6
ByLayer
 10
-5.0
 20
0.0
 30
0.0
 11
-1.4172019846484645
 21
0.0
 31
0.0
  0
LINE
  5
6E
100
AcDbEntity
100
AcDbLine
  8
0
 62
256
370
-1
  6
ByLayer
 10
1.4008093934435664
 20
0.0044872792644778
 30
0.0
 11
5.0
 21
0.0
 31
0.0
  0
LINE
  5
6F
100
AcDbEntity
100
AcDbLine
  8
0
 62
256
370
-1
  6
ByLayer
 10
5.0
 20
0.0
 30
0.0
 11
5.0
 21
4.0
 31
0.0
  0
LINE
  5
70
100
AcDbEntity
100
AcDbLine
  8
0
 62
256
370
-1
  6
ByLayer
 10
15.0
 20
4.0
 30
0.0
 11
15.0
 21
0.0
 31
0.0
  0
LINE
  5
71
100
AcDbEntity
100
AcDbLine
  8
0
 62
256
370
-1
  6
ByLayer
 10
5.0
 20
4.0
 30
0.0
 11
15.0
 21
4.0
 31
0.0
  0
LINE
  5
72
100
AcDbEntity
100
AcDbLine
  8
0
 62
256
370
-1
  6
ByLayer
 10
-5.0
 20
4.0
 30
0.0
 11
-5.0
 21
0.0
 31
0.0
  0
LINE
  5
73
100
AcDbEntity
100
AcDbLine
  8
0
 62
256
370
-1
  6
ByLayer
 10
-15.0
 20
0.0
 30
0.0
 11
-15.0
 21
4.0
 31
0.0
  0
LINE
  5
74
100
AcDbEntity
100
AcDbLine
  8
0
 62
256
370
-1
  6
ByLayer
 10
-15.0
 20
4.0
 30
0.0
 11
-5.0
 21
4.0
 31
0.0
  0
LINE
  5
75
100
AcDbEntity
100
AcDbLine
  8
0
 62
256
370
-1
  6
ByLayer
 10
2.75
 20
-8.0
 30
0.0
 11
2.7474839689560469
 21
-11.0
 31
0.0
  0
LINE
  5
76
100
AcDbEntity
100
AcDbLine
  8
0
 62
256
370
-1
  6
ByLayer
 10
1.5
 20
-11.0
 30
0.0
 11
2.7474839689560469
 21
-11.0
 31
0.0
  0
LINE
  5
77
100
AcDbEntity
100
AcDbLine
  8
0
 62
256
370
-1
  6
ByLayer
 10
-2.75
 20
-8.0
 30
0.0
 11
-2.7546916604171798
 21
-11.0
 31
0.0
  0
LINE
  5
78
100
AcDbEntity
100
AcDbLine
  8
0
 62
256
370
-1
  6
ByLayer
 10
-2.7546916604171798
 20
-11.0
 30
0.0
 11
-1.5
 21
-11.0
 31
0.0
  0
LINE
  5
79
100
AcDbEntity
100
AcDbLine
  8
0
 62
256
370
-1
  6
ByLayer
 10
-1.4172019846484645
 20
0.0
 30
0.0
 11
-1.4164840199662549
 21
-7.9987197232206464
 31
0.0
  0
LINE
  5
7A
100
AcDbEntity
100
AcDbLine
  8
0
 62
256
370
-1
  6
ByLayer
 10
1.4008093934434527
 20
-7.9987197232206464
 30
0.0
 11
1.4008093934435664
 21
0.0044872792644778
 31
0.0
  0
LINE
  5
7B
100
AcDbEntity
100
AcDbLine
  8
0
 62
256
370
-1
  6
ByLayer
 10
2.75
 20
-8.0
 30
0.0
 11
1.4008093934434527
 21
-7.9987197232206464
 31
0.0
  0
LINE
  5
7C
100
AcDbEntity
100
AcDbLine
  8
0
 62
256
370
-1
  6
ByLayer
 10
-1.4164840199662549
 20
-7.9987197232206464
 30
0.0
 11
-2.75
 21
-8.0
 31
0.0
  0
LINE
  5
7D
100
AcDbEntity
100
AcDbLine
  8
0
 62
256
370
-1
  6
ByLayer
 10
-1.5
 20
-12.0
 30
0.0
 11
1.5
 21
-12.0
 31
0.0
  0
LINE
  5
7E
100
AcDbEntity
100
AcDbLine
  8
0
 62
256
370
-1
  6
ByLayer
 10
-1.5
 20
-11.0
 30
0.0
 11
-1.5
 21
-12.0
 31
0.0
  0
LINE
  5
7F
100
AcDbEntity
100
AcDbLine
  8
0
 62
256
370
-1
  6
ByLayer
 10
1.5
 20
-12.0
 30
0.0
 11
1.5
 21
-11.0
 31
0.0
  0
ENDBLK
  5
80
100
AcDbEntity
  8
0
100
AcDbBlockEnd
  0
BLOCK
  5
81
100
AcDbEntity
  8
0
100
AcDbBlockBegin
  2
tcutout-5
 70
0
 10
0.0
 20
0.0
 30
0.0
  3
tcutout-5
  1

  0
LINE
  5
82
100
AcDbEntity
100
AcDbLine
  8
0
 62
256
370
-1
  6
ByLayer
 10
-4.9999999999999973
 20
4.5
 30
0.0
 11
-5.0
 21
0.000000000000001
 31
0.0
  0
LINE
  5
83
100
AcDbEntity
100
AcDbLine
  8
0
 62
256
370
-1
  6
ByLayer
 10
5.0
 20
-0.0000000000000003
 30
0.0
 11
5.0000000000000009
 21
4.4999999999999973
 31
0.0
  0
CIRCLE
  5
84
100
AcDbEntity
100
AcDbCircle
  8
0
 62
256
370
-1
  6
ByLayer
 10
0.0000000000000031
 20
2.2500000000000018
 30
0.0
 40
1.5
  0
LINE
  5
85
100
AcDbEntity
100
AcDbLine
  8
0
 62
256
370
-1
  6
ByLayer
 10
-10.0
 20
0.0000000000000148
 30
0.0
 11
-5.0
 21
0.000000000000001
 31
0.0
  0
LINE
  5
86
100
AcDbEntity
100
AcDbLine
  8
0
 62
256
370
-1
  6
ByLayer
 10
-9.9999999999999964
 20
4.4999999999999973
 30
0.0
 11
-4.9999999999999973
 21
4.5
 31
0.0
  0
LINE
  5
87
100
AcDbEntity
100
AcDbLine
  8
0
 62
256
370
-1
  6
ByLayer
 10
-10.0
 20
0.0000000000000148
 30
0.0
 11
-9.9999999999999964
 21
4.4999999999999973
 31
0.0
  0
LINE
  5
88
100
AcDbEntity
100
AcDbLine
  8
0
 62
256
370
-1
  6
ByLayer
 10
5.0
 20
-0.0000000000000003
 30
0.0
 11
10.000000000000004
 21
0.0000000000000072
 31
0.0
  0
LINE
  5
89
100
AcDbEntity
100
AcDbLine
  8
0
 62
256
370
-1
  6
ByLayer
 10
5.0000000000000009
 20
4.5000000000000018
 30
0.0
 11
10.0
 21
4.5000000000000089
 31
0.0
  0
LINE
  5
8A
100
AcDbEntity
100
AcDbLine
  8
0
 62
256
370
-1
  6
ByLayer
 10
10.0
 20
4.4999999999999858
 30
0.0
 11
10.000000000000004
 21
0.0000000000000072
 31
0.0
  0
ENDBLK
  5
8B
100
AcDbEntity
  8
0
100
AcDbBlockEnd
  0
BLOCK
  5
8C
100
AcDbEntity
  8
0
100
AcDbBlockBegin
  2
tgrips-5
 70
0
 10
0.0
 20
0.0
 30
0.0
  3
tgrips-5
  1

  0
LINE
  5
8D
100
AcDbEntity
100
AcDbLine
  8
0
 62
256
370
-1
  6
ByLayer
 10
-4.9918037043975509
 20
-0.0022436396322396
 30
0.0
 11
-1.4090056890460152
 21
-0.0022436396322387
 31
0.0
  0
LINE
  5
8E
100
AcDbEntity
100
AcDbLine
  8
0
 62
256
370
-1
  6
ByLayer
 10
1.4090056890460154
 20
0.0022436396322378
 30
0.0
 11
5.0081962956024499
 21
-0.0022436396322396
 31
0.0
  0
LINE
  5
8F
100
AcDbEntity
100
AcDbLine
  8
0
 62
256
370
-1
  6
ByLayer
 10
5.0081962956024499
 20
-0.0022436396322396
 30
0.0
 11
5.0081962956024491
 21
3.9977563603677604
 31
0.0
  0
LINE
  5
90
100
AcDbEntity
100
AcDbLine
  8
0
 62
256
370
-1
  6
ByLayer
 10
-4.9918037043975501
 20
3.9977563603677613
 30
0.0
 11
-4.9918037043975509
 21
-0.0022436396322396
 31
0.0
  0
LINE
  5
91
100
AcDbEntity
100
AcDbLine
  8
0
 62
256
370
-1
  6
ByLayer
 10
2.7581962956024468
 20
-8.0022436396322405
 30
0.0
 11
2.7556802645584915
 21
-11.002243639632241
 31
0.0
  0
LINE
  5
92
100
AcDbEntity
100
AcDbLine
  8
0
 62
256
370
-1
  6
ByLayer
 10
1.5081962956024457
 20
-11.002243639632241
 30
0.0
 11
2.7556802645584915
 21
-11.002243639632241
 31
0.0
  0
LINE
  5
93
100
AcDbEntity
100
AcDbLine
  8
0
 62
256
370
-1
  6
ByLayer
 10
-2.7418037043975541
 20
-8.0022436396322369
 30
0.0
 11
-2.7464953648147343
 21
-11.002243639632237
 31
0.0
  0
LINE
  5
94
100
AcDbEntity
100
AcDbLine
  8
0
 62
256
370
-1
  6
ByLayer
 10
-2.7464953648147343
 20
-11.002243639632237
 30
0.0
 11
-1.4918037043975565
 21
-11.002243639632237
 31
0.0
  0
LINE
  5
95
100
AcDbEntity
100
AcDbLine
  8
0
 62
256
370
-1
  6
ByLayer
 10
-1.4090056890460152
 20
-0.0022436396322387
 30
0.0
 11
-1.4082877243638052
 21
-8.000963362852886
 31
0.0
  0
LINE
  5
96
100
AcDbEntity
100
AcDbLine
  8
0
 62
256
370
-1
  6
ByLayer
 10
1.4090056890459026
 20
-8.000963362852886
 30
0.0
 11
1.4090056890460154
 21
0.0022436396322378
 31
0.0
  0
LINE
  5
97
100
AcDbEntity
100
AcDbLine
  8
0
 62
256
370
-1
  6
ByLayer
 10
2.7581962956024468
 20
-8.0022436396322405
 30
0.0
 11
1.4090056890459026
 21
-8.000963362852886
 31
0.0
  0
LINE
  5
98
100
AcDbEntity
100
AcDbLine
  8
0
 62
256
370
-1
  6
ByLayer
 10
-1.4082877243638052
 20
-8.000963362852886
 30
0.0
 11
-2.7418037043975541
 21
-8.0022436396322369
 31
0.0
  0
LINE
  5
99
100
AcDbEntity
100
AcDbLine
  8
0
 62
256
370
-1
  6
ByLayer
 10
-1.4918037043975518
 20
-12.002243639632239
 30
0.0
 11
1.5081962956024471
 21
-12.002243639632239
 31
0.0
  0
LINE
  5
9A
100
AcDbEntity
100
AcDbLine
  8
0
 62
256
370
-1
  6
ByLayer
 10
-1.4918037043975565
 20
-11.002243639632237
 30
0.0
 11
-1.4918037043975518
 21
-12.002243639632239
 31
0.0
  0
LINE
  5
9B
100
AcDbEntity
100
AcDbLine
  8
0
 62
256
370
-1
  6
ByLayer
 10
1.5081962956024471
 20
-12.002243639632239
 30
0.0
 11
1.5081962956024457
 21
-11.002243639632241
 31
0.0
  0
LINE
  5
9C
100
AcDbEntity
100
AcDbLine
  8
0
 62
256
370
-1
  6
ByLayer
 10
-9.9918037043975509
 20
-0.0022436396322414
 30
0.0
 11
-9.9918037043975492
 21
3.9977563603677631
 31
0.0
  0
LINE
  5
9D
100
AcDbEntity
100
AcDbLine
  8
0
 62
256
370
-1
  6
ByLayer
 10
-9.9918037043975492
 20
3.9977563603677631
 30
0.0
 11
-4.9918037043975501
 21
3.9977563603677613
 31
0.0
  0
LINE
  5
9E
100
AcDbEntity
100
AcDbLine
  8
0
 62
256
370
-1
  6
ByLayer
 10
10.008196295602449
 20
3.9977563603677608
 30
0.0
 11
10.008196295602449
 21
-0.0022436396322383
 31
0.0
  0
LINE
  5
9F
100
AcDbEntity
100
AcDbLine
  8
0
 62
256
370
-1
  6
ByLayer
 10
5.0081962956024491
 20
3.9977563603677604
 30
0.0
 11
10.008196295602449
 21
3.9977563603677608
 31
0.0
  0
ENDBLK
  5
A0
100
AcDbEntity
  8
0
100
AcDbBlockEnd
  0
ENDSEC
  0
SECTION
  2
ENTITIES
  0
LINE
  5
A1
100
AcDbEntity
100
AcDbLine
  8
Drawings - Y Travel
 62
256
370
-1
  6
ByLayer
 10
0.0
 20
-243.45000000000007
 30
0.0
 11
0.0
 21
150.30000000000001
 31
0.0
  0
INSERT
  5
A2
100
AcDbEntity
100
AcDbBlockReference
  8
Y Stage
 62
256
370
-1
  6
ByLayer
  2
tgrips
 10
117.70000000000005
 20
4.0500000000000043
 30
0.0
 50
-90.0
 44
1.0
 45
1.0
  0
LINE
  5
A3
100
AcDbEntity
100
AcDbLine
  8
Y Stage
 62
256
370
-1
  6
ByLayer
 10
117.70000000000005
 20
34.050000000000004
 30
0.0
 11
117.70000000000005
 21
19.050000000000004
 31
0.0
  0
LINE
  5
A4
100
AcDbEntity
100
AcDbLine
  8
Y Stage
 62
256
370
-1
  6
ByLayer
 10
117.70000000000005
 20
-10.949999999999996
 30
0.0
 11
117.70000000000005
 21
-25.949999999999996
 31
0.0
  0
INSERT
  5
A5
100
AcDbEntity
100
AcDbBlockReference
  8
Y Stage
 62
256
370
-1
  6
ByLayer
  2
tgrips
 10
87.700000000000045
 20
34.050000000000004
 30
0.0
 44
1.0
 45
1.0
  0
INSERT
  5
A6
100
AcDbEntity
100
AcDbBlockReference
  8
Y Stage
 62
256
370
-1
  6
ByLayer
  2
tgrips
 10
87.700000000000045
 20
-25.949999999999996
 30
0.0
 50
-180.0
 44
1.0
 45
1.0
  0
LINE
  5
A7
100
AcDbEntity
100
AcDbLine
  8
Y Stage
 62
256
370
-1
  6
ByLayer
 10
102.70000000000005
 20
34.050000000000004
 30
0.0
 11
117.70000000000005
 21
34.050000000000004
 31
0.0
  0
LINE
  5
A8
100
AcDbEntity
100
AcDbLine
  8
Y Stage
 62
256
370
-1
  6
ByLayer
 10
102.70000000000005
 20
-25.949999999999996
 30
0.0
 11
117.70000000000005
 21
-25.949999999999996
 31
0.0
  0
LINE
  5
A9
100
AcDbEntity
100
AcDbLine
  8
Drawings
 62
256
370
-1
  6
ByLayer
 10
117.70000000000005
 20
38.550000000000004
 30
0.0
 11
117.70000000000005
 21
34.050000000000004
 31
0.0
  0
LINE
  5
AA
100
AcDbEntity
100
AcDbLine
  8
Drawings
 62
256
370
-1
  6
ByLayer
 10
122.20000000000005
 20
41.550000000000004
 30
0.0
 11
122.20000000000005
 21
-33.449999999999989
 31
0.0
  0
LINE
  5
AB
100
AcDbEntity
100
AcDbLine
  8
Drawings
 62
256
370
-1
  6
ByLayer
 10
117.70000000000005
 20
41.550000000000004
 30
0.0
 11
117.70000000000005
 21
-33.449999999999982
 31
0.0
  0
LINE
  5
AC
100
AcDbEntity
100
AcDbLine
  8
Drawings
 62
256
370
-1
  6
ByLayer
 10
117.70000000000005
 20
41.550000000000004
 30
0.0
 11
122.20000000000005
 21
41.550000000000004
 31
0.0
  0
LINE
  5
AD
100
AcDbEntity
100
AcDbLine
  8
Drawings
 62
256
370
-1
  6
ByLayer
 10
117.70000000000005
 20
-33.449999999999982
 30
0.0
 11
122.20000000000005
 21
-33.449999999999989
 31
0.0
  0
INSERT
  5
AE
100
AcDbEntity
100
AcDbBlockReference
  8
Y Stage
 62
256
370
-1
  6
ByLayer
  2
tgrips
 10
87.699999999999818
 20
-243.45000000000019
 30
0.0
 41
1.0
 42
-1.0
 43
1.0
 50
360.0
 44
1.0
 45
1.0
  0
INSERT
  5
AF
100
AcDbEntity
100
AcDbBlockReference
  8
Y Stage
 62
256
370
-1
  6
ByLayer
  2
tgrips
 10
87.699999999999932
 20
-183.45000000000022
 30
0.0
 41
1.0
 42
-1.0
 43
1.0
 50
180.0
 44
1.0
 45
1.0
  0
LINE
  5
B0
100
AcDbEntity
100
AcDbLine
  8
Y Stage
 62
256
370
-1
  6
ByLayer
 10
102.70000000000005
 20
-243.45000000000005
 30
0.0
 11
117.70000000000016
 21
-243.44999999999987
 31
0.0
  0
LINE
  5
B1
100
AcDbEntity
100
AcDbLine
  8
Y Stage
 62
256
370
-1
  6
ByLayer
 10
102.70000000000005
 20
-183.45000000000016
 30
0.0
 11
117.70000000000005
 21
-183.44999999999985
 31
0.0
  0
INSERT
  5
B2
100
AcDbEntity
100
AcDbBlockReference
  8
Y Stage
 62
256
370
-1
  6
ByLayer
  2
tgrips
 10
117.70000000000005
 20
-213.44999999999993
 30
0.0
 50
-90.0
 44
1.0
 45
1.0
  0
LINE
  5
B3
100
AcDbEntity
100
AcDbLine
  8
Y Stage
 62
256
370
-1
  6
ByLayer
 10
117.70000000000005
 20
-183.44999999999985
 30
0.0
 11
117.70000000000005
 21
-198.44999999999993
 31
0.0
  0
LINE
  5
B4
100
AcDbEntity
100
AcDbLine
  8
Y Stage
 62
256
370
-1
  6
ByLayer
 10
117.70000000000005
 20
-228.44999999999993
 30
0.0
 11
117.70000000000016
 21
-243.44999999999987
 31
0.0
  0
CIRCLE
  5
B5
100
AcDbEntity
100
AcDbCircle
  8
Drawings - Y Travel
 62
256
370
-1
  6
ByLayer
 10
63.999999999999943
 20
129.79999999999987
 30
0.0
 40
7.2800000000000002
  0
INSERT
  5
B6
100
AcDbEntity
100
AcDbBlockReference
  8
Y Stage
 62
256
370
-1
  6
ByLayer
  2
tcutout
 10
87.699999999999989
 20
144.70000000000002
 30
0.0
 44
1.0
 45
1.0
  0
INSERT
  5
B7
100
AcDbEntity
100
AcDbBlockReference
  8
Y Stage
 62
256
370
-1
  6
ByLayer
  2
tcutout
 10
87.699999999999989
 20
114.69999999999987
 30
0.0
 50
180.0
 44
1.0
 45
1.0
  0
INSERT
  5
B8
100
AcDbEntity
100
AcDbBlockReference
  8
Y Stage
 62
256
370
-1
  6
ByLayer
  2
tgrips
 10
117.69999999999999
 20
134.20000000000024
 30
0.0
 50
270.0
 44
1.0
 45
1.0
  0
LINE
  5
B9
100
AcDbEntity
100
AcDbLine
  8
Y Stage
 62
256
370
-1
  6
ByLayer
 10
117.70000000000005
 20
152.19999999999999
 30
0.0
 11
117.69999999999999
 21
149.19999999999999
 31
0.0
  0
CIRCLE
  5
BA
100
AcDbEntity
100
AcDbCircle
  8
Drawings - Y Travel
 62
256
370
-1
  6
ByLayer
 10
63.999999999999943
 20
-129.7999999999999
 30
0.0
 40
7.2800000000000002
  0
INSERT
  5
BB
100
AcDbEntity
100
AcDbBlockReference
  8
Y Stage
 62
256
370
-1
  6
ByLayer
  2
tcutout
 10
87.699999999999989
 20
-144.6999999999999
 30
0.0
 41
1.0
 42
-1.0
 43
1.0
 44
1.0
 45
1.0
  0
INSERT
  5
BC
100
AcDbEntity
100
AcDbBlockReference
  8
Y Stage
 62
256
370
-1
  6
ByLayer
  2
tcutout
 10
87.699999999999989
 20
-114.69999999999989
 30
0.0
 41
1.0
 42
-1.0
 43
1.0
 50
180.0
 44
1.0
 45
1.0
  0
INSERT
  5
BD
100
AcDbEntity
100
AcDbBlockReference
  8
Y Stage
 62
256
370
-1
  6
ByLayer
  2
tgrips
 10
117.69999999999999
 20
-134.20000000000016
 30
0.0
 41
1.0
 42
-1.0
 43
1.0
 50
90.000000000000014
 44
1.0
 45
1.0
  0
LINE
  5
BE
100
AcDbEntity
100
AcDbLine
  8
Y Stage
 62
256
370
-1
  6
ByLayer
 10
117.70000000000005
 20
-152.20000000000002
 30
0.0
 11
117.69999999999999
 21
-149.19999999999993
 31
0.0
  0
LINE
  5
BF
100
AcDbEntity
100
AcDbLine
  8
Drawings - Belt
 62
256
370
-1
  6
ByLayer
 10
35.300000000000068
 20
141.69999999999999
 30
0.0
 11
117.69999999999985
 21
141.69999999999987
 31
0.0
  0
LINE
  5
C0
100
AcDbEntity
100
AcDbLine
  8
Drawings - Belt
 62
256
370
-1
  6
ByLayer
 10
35.300000000000068
 20
135.69999999999982
 30
0.0
 11
117.69999999999973
 21
135.69999999999936
 31
0.0
  0
LINE
  5
C1
100
AcDbEntity
100
AcDbLine
  8
Drawings
 62
256
370
-1
  6
ByLayer
 10
87.700000000000045
 20
-243.45000000000007
 30
0.0
 11
87.700000000000045
 21
150.30000000000001
 31
0.0
  0
INSERT
  5
C2
100
AcDbEntity
100
AcDbBlockReference
  8
0
 62
256
370
-1
  6
ByLayer
  2
tcutout
 10
210.00000000000003
 20
-114.6999999999997
 30
0.0
 44
1.0
 45
1.0
  0
INSERT
  5
C3
100
AcDbEntity
100
AcDbBlockReference
  8
0
 62
256
370
-1
  6
ByLayer
  2
tcutout
 10
179.99999999999983
 20
-134.1999999999997
 30
0.0
 50
90.0
 44
1.0
 45
1.0
  0
INSERT
  5
C4
100
AcDbEntity
100
AcDbBlockReference
  8
0
 62
256
370
-1
  6
ByLayer
  2
tcutout
 10
240.00000000000009
 20
-134.19999999999979
 30
0.0
 50
270.0
 44
1.0
 45
1.0
  0
INSERT
  5
C5
100
AcDbEntity
100
AcDbBlockReference
  8
Y Stage
 62
256
370
-1
  6
ByLayer
  2
tcutout
 10
210.00000000000009
 20
-144.69999999999987
 30
0.0
 50
180.0
 44
1.0
 45
1.0
  0
INSERT
  5
C6
100
AcDbEntity
100
AcDbBlockReference
  8
Y Stage
 62
256
370
-1
  6
ByLayer
  2
tgrips
 10
297.70000000000005
 20
-129.6999999999997
 30
0.0
 50
90.000000000000014
 44
1.0
 45
1.0
  0
INSERT
  5
C7
100
AcDbEntity
100
AcDbBlockReference
  8
Y Stage
 62
256
370
-1
  6
ByLayer
  2
tgrips
 10
357.70000000000005
 20
-129.69999999999982
 30
0.0
 50
270.0
 44
1.0
 45
1.0
  0
LINE
  5
C8
100
AcDbEntity
100
AcDbLine
  8
Y Stage
 62
256
370
-1
  6
ByLayer
 10
322.70000000000005
 20
-144.6999999999997
 30
0.0
 11
322.70000000000005
 21
-148.69999999999982
 31
0.0
  0
LINE
  5
C9
100
AcDbEntity
100
AcDbLine
  8
Y Stage
 62
256
370
-1
  6
ByLayer
 10
332.70000000000005
 20
-148.69999999999973
 30
0.0
 11
332.70000000000005
 21
-144.69999999999985
 31
0.0
  0
LINE
  5
CA
100
AcDbEntity
100
AcDbLine
  8
Y Stage
 62
256
370
-1
  6
ByLayer
 10
312.70000000000005
 20
-144.69999999999959
 30
0.0
 11
297.70000000000005
 21
-144.69999999999973
 31
0.0
  0
LINE
  5
CB
100
AcDbEntity
100
AcDbLine
  8
Y Stage
 62
256
370
-1
  6
ByLayer
 10
357.70000000000005
 20
-144.69999999999985
 30
0.0
 11
342.70000000000005
 21
-144.69999999999996
 31
0.0
  0
LINE
  5
CC
100
AcDbEntity
100
AcDbLine
  8
Y Stage
 62
256
370
-1
  6
ByLayer
 10
342.70000000000005
 20
-114.69999999999958
 30
0.0
 11
357.70000000000005
 21
-114.69999999999982
 31
0.0
  0
LINE
  5
CD
100
AcDbEntity
100
AcDbLine
  8
Y Stage
 62
256
370
-1
  6
ByLayer
 10
297.70000000000005
 20
-114.69999999999975
 30
0.0
 11
312.70000000000005
 21
-114.6999999999996
 31
0.0
  0
LINE
  5
CE
100
AcDbEntity
100
AcDbLine
  8
Drawings
 62
256
370
-1
  6
ByLayer
 10
327.70000000000005
 20
-114.69999999999975
 30
0.0
 11
327.70000000000005
 21
-144.69999999999962
 31
0.0
  0
CIRCLE
  5
CF
100
AcDbEntity
100
AcDbCircle
  8
0
 62
256
370
-1
  6
ByLayer
 10
335.70000000000005
 20
-120.19999999999948
 30
0.0
 40
1.5
  0
CIRCLE
  5
D0
100
AcDbEntity
100
AcDbCircle
  8
0
 62
256
370
-1
  6
ByLayer
 10
319.70000000000005
 20
-120.19999999999968
 30
0.0
 40
1.5
  0
CIRCLE
  5
D1
100
AcDbEntity
100
AcDbCircle
  8
0
 62
256
370
-1
  6
ByLayer
 10
335.70000000000005
 20
-130.19999999999965
 30
0.0
 40
1.5
  0
CIRCLE
  5
D2
100
AcDbEntity
100
AcDbCircle
  8
0
 62
256
370
-1
  6
ByLayer
 10
319.70000000000005
 20
-130.19999999999953
 30
0.0
 40
1.5
  0
LINE
  5
D3
100
AcDbEntity
100
AcDbLine
  8
0
 62
256
370
-1
  6
ByLayer
 10
327.30000000000001
 20
-141.69999999999973
 30
0.0
 11
327.30000000000007
 21
-135.69999999999959
 31
0.0
  0
LINE
  5
D4
100
AcDbEntity
100
AcDbLine
  8
0
 62
256
370
-1
  6
ByLayer
 10
327.30000000000007
 20
-135.69999999999959
 30
0.0
 11
328.10000000000002
 21
-135.69999999999948
 31
0.0
  0
LINE
  5
D5
100
AcDbEntity
100
AcDbLine
  8
0
 62
256
370
-1
  6
ByLayer
 10
328.10000000000002
 20
-135.69999999999948
 30
0.0
 11
328.09999999999997
 21
-141.69999999999993
 31
0.0
  0
LINE
  5
D6
100
AcDbEntity
100
AcDbLine
  8
0
 62
256
370
-1
  6
ByLayer
 10
328.09999999999997
 20
-141.69999999999993
 30
0.0
 11
327.30000000000001
 21
-141.69999999999973
 31
0.0
  0
LINE
  5
D7
100
AcDbEntity
100
AcDbLine
  8
0
 62
256
370
-1
  6
ByLayer
 10
325.30000000000007
 20
-141.69999999999976
 30
0.0
 11
325.30000000000007
 21
-135.69999999999968
 31
0.0
  0
LINE
  5
D8
100
AcDbEntity
100
AcDbLine
  8
0
 62
256
370
-1
  6
ByLayer
 10
325.30000000000007
 20
-135.69999999999968
 30
0.0
 11
326.10000000000002
 21
-135.69999999999956
 31
0.0
  0
LINE
  5
D9
100
AcDbEntity
100
AcDbLine
  8
0
 62
256
370
-1
  6
ByLayer
 10
326.10000000000002
 20
-135.69999999999956
 30
0.0
 11
326.10000000000002
 21
-141.69999999999976
 31
0.0
  0
LINE
  5
DA
100
AcDbEntity
100
AcDbLine
  8
0
 62
256
370
-1
  6
ByLayer
 10
326.10000000000002
 20
-141.69999999999976
 30
0.0
 11
325.30000000000007
 21
-141.69999999999976
 31
0.0
  0
LINE
  5
DB
100
AcDbEntity
100
AcDbLine
  8
0
 62
256
370
-1
  6
ByLayer
 10
323.30000000000007
 20
-141.69999999999987
 30
0.0
 11
323.30000000000007
 21
-135.69999999999962
 31
0.0
  0
LINE
  5
DC
100
AcDbEntity
100
AcDbLine
  8
0
 62
256
370
-1
  6
ByLayer
 10
323.30000000000007
 20
-135.69999999999962
 30
0.0
 11
324.10000000000002
 21
-135.69999999999968
 31
0.0
  0
LINE
  5
DD
100
AcDbEntity
100
AcDbLine
  8
0
 62
256
370
-1
  6
ByLayer
 10
324.10000000000002
 20
-135.69999999999968
 30
0.0
 11
324.10000000000002
 21
-141.6999999999997
 31
0.0
  0
LINE
  5
DE
100
AcDbEntity
100
AcDbLine
  8
0
 62
256
370
-1
  6
ByLayer
 10
324.10000000000002
 20
-141.6999999999997
 30
0.0
 11
323.30000000000007
 21
-141.69999999999987
 31
0.0
  0
LINE
  5
DF
100
AcDbEntity
100
AcDbLine
  8
0
 62
256
370
-1
  6
ByLayer
 10
321.30000000000007
 20
-141.69999999999979
 30
0.0
 11
321.30000000000007
 21
-135.69999999999976
 31
0.0
  0
LINE
  5
E0
100
AcDbEntity
100
AcDbLine
  8
0
 62
256
370
-1
  6
ByLayer
 10
321.30000000000007
 20
-135.69999999999976
 30
0.0
 11
322.10000000000002
 21
-135.69999999999959
 31
0.0
  0
LINE
  5
E1
100
AcDbEntity
100
AcDbLine
  8
0
 62
256
370
-1
  6
ByLayer
 10
322.10000000000002
 20
-135.69999999999959
 30
0.0
 11
322.10000000000002
 21
-141.69999999999982
 31
0.0
  0
LINE
  5
E2
100
AcDbEntity
100
AcDbLine
  8
0
 62
256
370
-1
  6
ByLayer
 10
322.10000000000002
 20
-141.69999999999982
 30
0.0
 11
321.30000000000007
 21
-141.69999999999979
 31
0.0
  0
LINE
  5
E3
100
AcDbEntity
100
AcDbLine
  8
0
 62
256
370
-1
  6
ByLayer
 10
319.30000000000007
 20
-141.69999999999982
 30
0.0
 11
319.30000000000007
 21
-135.6999999999997
 31
0.0
  0
LINE
  5
E4
100
AcDbEntity
100
AcDbLine
  8
0
 62
256
370
-1
  6
ByLayer
 10
319.30000000000007
 20
-135.6999999999997
 30
0.0
 11
320.10000000000002
 21
-135.69999999999973
 31
0.0
  0
LINE
  5
E5
100
AcDbEntity
100
AcDbLine
  8
0
 62
256
370
-1
  6
ByLayer
 10
320.10000000000002
 20
-135.69999999999973
 30
0.0
 11
320.10000000000002
 21
-141.69999999999965
 31
0.0
  0
LINE
  5
E6
100
AcDbEntity
100
AcDbLine
  8
0
 62
256
370
-1
  6
ByLayer
 10
320.10000000000002
 20
-141.69999999999965
 30
0.0
 11
319.30000000000007
 21
-141.69999999999982
 31
0.0
  0
LINE
  5
E7
100
AcDbEntity
100
AcDbLine
  8
0
 62
256
370
-1
  6
ByLayer
 10
317.30000000000007
 20
-141.69999999999985
 30
0.0
 11
317.30000000000007
 21
-135.69999999999973
 31
0.0
  0
LINE
  5
E8
100
AcDbEntity
100
AcDbLine
  8
0
 62
256
370
-1
  6
ByLayer
 10
317.30000000000007
 20
-135.69999999999973
 30
0.0
 11
318.10000000000002
 21
-135.69999999999951
 31
0.0
  0
LINE
  5
E9
100
AcDbEntity
100
AcDbLine
  8
0
 62
256
370
-1
  6
ByLayer
 10
318.10000000000002
 20
-135.69999999999951
 30
0.0
 11
318.10000000000002
 21
-141.69999999999976
 31
0.0
  0
LINE
  5
EA
100
AcDbEntity
100
AcDbLine
  8
0
 62
256
370
-1
  6
ByLayer
 10
318.10000000000002
 20
-141.69999999999976
 30
0.0
 11
317.30000000000007
 21
-141.69999999999985
 31
0.0
  0
LINE
  5
EB
100
AcDbEntity
100
AcDbLine
  8
0
 62
256
370
-1
  6
ByLayer
 10
315.30000000000001
 20
-141.69999999999985
 30
0.0
 11
315.30000000000007
 21
-135.69999999999968
 31
0.0
  0
LINE
  5
EC
100
AcDbEntity
100
AcDbLine
  8
0
 62
256
370
-1
  6
ByLayer
 10
315.30000000000007
 20
-135.69999999999968
 30
0.0
 11
316.10000000000002
 21
-135.69999999999959
 31
0.0
  0
LINE
  5
ED
100
AcDbEntity
100
AcDbLine
  8
0
 62
256
370
-1
  6
ByLayer
 10
316.10000000000002
 20
-135.69999999999959
 30
0.0
 11
316.10000000000002
 21
-141.69999999999982
 31
0.0
  0
LINE
  5
EE
100
AcDbEntity
100
AcDbLine
  8
0
 62
256
370
-1
  6
ByLayer
 10
316.10000000000002
 20
-141.69999999999982
 30
0.0
 11
315.30000000000001
 21
-141.69999999999985
 31
0.0
  0
LINE
  5
EF
100
AcDbEntity
100
AcDbLine
  8
0
 62
256
370
-1
  6
ByLayer
 10
329.30000000000007
 20
-141.69999999999973
 30
0.0
 11
329.30000000000007
 21
-135.69999999999962
 31
0.0
  0
LINE
  5
F0
100
AcDbEntity
100
AcDbLine
  8
0
 62
256
370
-1
  6
ByLayer
 10
329.30000000000007
 20
-135.69999999999962
 30
0.0
 11
330.10000000000002
 21
-135.69999999999959
 31
0.0
  0
LINE
  5
F1
100
AcDbEntity
100
AcDbLine
  8
0
 62
256
370
-1
  6
ByLayer
 10
330.10000000000002
 20
-135.69999999999959
 30
0.0
 11
330.10000000000002
 21
-141.69999999999979
 31
0.0
  0
LINE
  5
F2
100
AcDbEntity
100
AcDbLine
  8
0
 62
256
370
-1
  6
ByLayer
 10
330.10000000000002
 20
-141.69999999999979
 30
0.0
 11
329.30000000000007
 21
-141.69999999999973
 31
0.0
  0
LINE
  5
F3
100
AcDbEntity
100
AcDbLine
  8
0
 62
256
370
-1
  6
ByLayer
 10
331.30000000000007
 20
-141.69999999999982
 30
0.0
 11
331.30000000000007
 21
-135.69999999999973
 31
0.0
  0
LINE
  5
F4
100
AcDbEntity
100
AcDbLine
  8
0
 62
256
370
-1
  6
ByLayer
 10
331.30000000000007
 20
-135.69999999999973
 30
0.0
 11
332.10000000000002
 21
-135.69999999999979
 31
0.0
  0
LINE
  5
F5
100
AcDbEntity
100
AcDbLine
  8
0
 62
256
370
-1
  6
ByLayer
 10
332.10000000000002
 20
-135.69999999999979
 30
0.0
 11
332.10000000000002
 21
-141.69999999999973
 31
0.0
  0
LINE
  5
F6
100
AcDbEntity
100
AcDbLine
  8
0
 62
256
370
-1
  6
ByLayer
 10
332.10000000000002
 20
-141.69999999999973
 30
0.0
 11
331.30000000000007
 21
-141.69999999999982
 31
0.0
  0
LINE
  5
F7
100
AcDbEntity
100
AcDbLine
  8
0
 62
256
370
-1
  6
ByLayer
 10
333.30000000000007
 20
-141.69999999999982
 30
0.0
 11
333.30000000000007
 21
-135.69999999999968
 31
0.0
  0
LINE
  5
F8
100
AcDbEntity
100
AcDbLine
  8
0
 62
256
370
-1
  6
ByLayer
 10
333.30000000000007
 20
-135.69999999999968
 30
0.0
 11
334.10000000000002
 21
-135.69999999999965
 31
0.0
  0
LINE
  5
F9
100
AcDbEntity
100
AcDbLine
  8
0
 62
256
370
-1
  6
ByLayer
 10
334.10000000000002
 20
-135.69999999999965
 30
0.0
 11
334.10000000000002
 21
-141.69999999999976
 31
0.0
  0
LINE
  5
FA
100
AcDbEntity
100
AcDbLine
  8
0
 62
256
370
-1
  6
ByLayer
 10
334.10000000000002
 20
-141.69999999999976
 30
0.0
 11
333.30000000000007
 21
-141.69999999999982
 31
0.0
  0
LINE
  5
FB
100
AcDbEntity
100
AcDbLine
  8
0
 62
256
370
-1
  6
ByLayer
 10
335.30000000000007
 20
-141.69999999999987
 30
0.0
 11
335.30000000000007
 21
-135.69999999999965
 31
0.0
  0
LINE
  5
FC
100
AcDbEntity
100
AcDbLine
  8
0
 62
256
370
-1
  6
ByLayer
 10
335.30000000000007
 20
-135.69999999999965
 30
0.0
 11
336.10000000000002
 21
-135.6999999999997
 31
0.0
  0
LINE
  5
FD
100
AcDbEntity
100
AcDbLine
  8
0
 62
256
370
-1
  6
ByLayer
 10
336.10000000000002
 20
-135.6999999999997
 30
0.0
 11
336.10000000000002
 21
-141.69999999999996
 31
0.0
  0
LINE
  5
FE
100
AcDbEntity
100
AcDbLine
  8
0
 62
256
370
-1
  6
ByLayer
 10
336.10000000000002
 20
-141.69999999999996
 30
0.0
 11
335.30000000000007
 21
-141.69999999999987
 31
0.0
  0
LINE
  5
FF
100
AcDbEntity
100
AcDbLine
  8
0
 62
256
370
-1
  6
ByLayer
 10
337.30000000000007
 20
-141.69999999999979
 30
0.0
 11
337.30000000000007
 21
-135.69999999999959
 31
0.0
  0
LINE
  5
100
100
AcDbEntity
100
AcDbLine
  8
0
 62
256
370
-1
  6
ByLayer
 10
337.30000000000007
 20
-135.69999999999959
 30
0.0
 11
338.10000000000002
 21
-135.69999999999953
 31
0.0
  0
LINE
  5
101
100
AcDbEntity
100
AcDbLine
  8
0
 62
256
370
-1
  6
ByLayer
 10
338.10000000000002
 20
-135.69999999999953
 30
0.0
 11
338.10000000000002
 21
-141.69999999999959
 31
0.0
  0
LINE
  5
102
100
AcDbEntity
100
AcDbLine
  8
0
 62
256
370
-1
  6
ByLayer
 10
338.10000000000002
 20
-141.69999999999959
 30
0.0
 11
337.30000000000007
 21
-141.69999999999979
 31
0.0
  0
LINE
  5
103
100
AcDbEntity
100
AcDbLine
  8
0
 62
256
370
-1
  6
ByLayer
 10
339.30000000000007
 20
-141.69999999999985
 30
0.0
 11
339.30000000000007
 21
-135.69999999999976
 31
0.0
  0
LINE
  5
104
100
AcDbEntity
100
AcDbLine
  8
0
 62
256
370
-1
  6
ByLayer
 10
339.30000000000007
 20
-135.69999999999976
 30
0.0
 11
340.10000000000002
 21
-135.69999999999959
 31
0.0
  0
LINE
  5
105
100
AcDbEntity
100
AcDbLine
  8
0
 62
256
370
-1
  6
ByLayer
 10
340.10000000000002
 20
-135.69999999999959
 30
0.0
 11
340.10000000000002
 21
-141.69999999999962
 31
0.0
  0
LINE
  5
106
100
AcDbEntity
100
AcDbLine
  8
0
 62
256
370
-1
  6
ByLayer
 10
340.10000000000002
 20
-141.69999999999962
 30
0.0
 11
339.30000000000007
 21
-141.69999999999985
 31
0.0
  0
LINE
  5
107
100
AcDbEntity
100
AcDbLine
  8
Drawings - Belt
 62
256
370
-1
  6
ByLayer
 10
35.300000000000068
 20
-135.69999999999987
 30
0.0
 11
361.70000000000005
 21
-135.69999999999879
 31
0.0
  0
LINE
  5
108
100
AcDbEntity
100
AcDbLine
  8
Drawings - Belt
 62
256
370
-1
  6
ByLayer
 10
35.300000000000068
 20
-141.6999999999999
 30
0.0
 11
361.70000000000005
 21
-141.69999999999956
 31
0.0
  0
ARC
  5
109
100
AcDbEntity
  8
0
 62
256
370
-1
  6
ByLayer
100
AcDbCircle
 10
396.65527906333011
 20
-120.19999999999949
 30
0.0
 40
5.0
100
AcDbArc
 50
0.0
 51
180.0
  0
CIRCLE
  5
10A
100
AcDbEntity
100
AcDbCircle
  8
0
 62
256
370
-1
  6
ByLayer
 10
396.65527906333011
 20
-120.19999999999949
 30
0.0
 40
1.5
  0
CIRCLE
  5
10B
100
AcDbEntity
100
AcDbCircle
  8
0
 62
256
370
-1
  6
ByLayer
 10
396.65527906333011
 20
-130.19999999999914
 30
0.0
 40
1.5
  0
ARC
  5
10C
100
AcDbEntity
  8
0
 62
256
370
-1
  6
ByLayer
100
AcDbCircle
 10
376.65527906333011
 20
-120.19999999999925
 30
0.0
 40
5.0
100
AcDbArc
 50
0.0
 51
180.0
  0
CIRCLE
  5
10D
100
AcDbEntity
100
AcDbCircle
  8
0
 62
256
370
-1
  6
ByLayer
 10
376.65527906333011
 20
-120.19999999999925
 30
0.0
 40
1.5
  0
CIRCLE
  5
10E
100
AcDbEntity
100
AcDbCircle
  8
0
 62
256
370
-1
  6
ByLayer
 10
376.65527906333011
 20
-130.19999999999951
 30
0.0
 40
1.5
  0
LINE
  5
10F
100
AcDbEntity
100
AcDbLine
  8
0
 62
256
370
-1
  6
ByLayer
 10
391.65527906333011
 20
-120.19999999999952
 30
0.0
 11
391.65527906333011
 21
-143.95000000000095
 31
0.0
  0
LINE
  5
110
100
AcDbEntity
100
AcDbLine
  8
0
 62
256
370
-1
  6
ByLayer
 10
401.65527906333011
 20
-143.95000000000061
 30
0.0
 11
391.65527906333011
 21
-143.95000000000095
 31
0.0
  0
LINE
  5
111
100
AcDbEntity
100
AcDbLine
  8
0
 62
256
370
-1
  6
ByLayer
 10
401.65527906333011
 20
-120.19999999999933
 30
0.0
 11
401.65527906333011
 21
-143.95000000000061
 31
0.0
  0
LINE
  5
112
100
AcDbEntity
100
AcDbLine
  8
0
 62
256
370
-1
  6
ByLayer
 10
371.65527906333011
 20
-120.19999999999958
 30
0.0
 11
371.65527906333011
 21
-143.95000000000095
 31
0.0
  0
LINE
  5
113
100
AcDbEntity
100
AcDbLine
  8
0
 62
256
370
-1
  6
ByLayer
 10
381.65527906333011
 20
-143.9500000000005
 30
0.0
 11
371.65527906333011
 21
-143.95000000000095
 31
0.0
  0
LINE
  5
114
100
AcDbEntity
100
AcDbLine
  8
0
 62
256
370
-1
  6
ByLayer
 10
381.65527906333011
 20
-120.19999999999943
 30
0.0
 11
381.65527906333011
 21
-143.9500000000005
 31
0.0
  0
INSERT
  5
115
100
AcDbEntity
100
AcDbBlockReference
  8
Y Stage
 62
256
370
-1
  6
ByLayer
  2
tcutout
 10
209.9999999999996
 20
-28.450000000000212
 30
0.0
 50
180.0
 44
1.0
 45
1.0
  0
LINE
  5
116
100
AcDbEntity
100
AcDbLine
  8
Drawings
 62
256
370
-1
  6
ByLayer
 10
172.49999999999969
 20
-28.450000000000166
 30
0.0
 11
247.49999999999949
 21
-28.450000000000259
 31
0.0
  0
LINE
  5
117
100
AcDbEntity
100
AcDbLine
  8
Drawings
 62
256
370
-1
  6
ByLayer
 10
179.99999999999983
 20
-152.19999999999968
 30
0.0
 11
179.99999999999983
 21
1.5499999999998668
 31
0.0
  0
LINE
  5
118
100
AcDbEntity
100
AcDbLine
  8
Drawings
 62
256
370
-1
  6
ByLayer
 10
240.00000000000009
 20
-152.19999999999959
 30
0.0
 11
240.00000000000009
 21
1.5499999999997871
 31
0.0
  0
LINE
  5
119
100
AcDbEntity
100
AcDbLine
  8
Drawings - Y Travel
 62
256
370
-1
  6
ByLayer
 10
87.700000000000045
 20
-107.19999999999993
 30
0.0
 11
87.700000000000045
 21
34.050000000000004
 31
0.0
  0
LINE
  5
11A
100
AcDbEntity
100
AcDbLine
  8
Drawings
 62
256
370
-1
  6
ByLayer
 10
102.70000000000005
 20
41.550000000000011
 30
0.0
 11
102.70000000000005
 21
-33.449999999999974
 31
0.0
  0
LINE
  5
11B
100
AcDbEntity
100
AcDbLine
  8
Drawings
 62
256
370
-1
  6
ByLayer
 10
92.700000000000045
 20
-4.7999999999999972
 30
0.0
 11
122.70000000000005
 21
-4.7999999999999972
 31
0.0
  0
CIRCLE
  5
11C
100
AcDbEntity
100
AcDbCircle
  8
Y Stage
 62
256
370
-1
  6
ByLayer
 10
102.70000000000005
 20
-4.7999999999999972
 30
0.0
 40
2.0
  0
CIRCLE
  5
11D
100
AcDbEntity
100
AcDbCircle
  8
Drawings - Pulleys
 62
256
370
-1
  6
ByLayer
 10
102.70000000000005
 20
-4.7999999999999972
 30
0.0
 40
4.7999999999999936
  0
CIRCLE
  5
11E
100
AcDbEntity
100
AcDbCircle
  8
Drawings - Pulleys
 62
256
370
-1
  6
ByLayer
 10
102.70000000000005
 20
-4.7999999999999972
 30
0.0
 40
7.0
  0
CIRCLE
  5
11F
100
AcDbEntity
100
AcDbCircle
  8
Drawings
 62
256
370
-1
  6
ByLayer
 10
102.70000000000005
 20
-4.7999999999999972
 30
0.0
 40
4.25
  0
LINE
  5
120
100
AcDbEntity
100
AcDbLine
  8
Drawings
 62
256
370
-1
  6
ByLayer
 10
172.49999999999969
 20
-13.450000000000166
 30
0.0
 11
247.49999999999949
 21
-13.450000000000259
 31
0.0
  0
LINE
  5
121
100
AcDbEntity
100
AcDbLine
  8
Drawings
 62
256
370
-1
  6
ByLayer
 10
218.85000000000008
 20
-152.19999999999959
 30
0.0
 11
218.85000000000008
 21
1.5499999999997898
 31
0.0
  0
CIRCLE
  5
122
100
AcDbEntity
100
AcDbCircle
  8
Y Stage
 62
256
370
-1
  6
ByLayer
 10
218.85000000000008
 20
-13.45000000000023
 30
0.0
 40
2.0
  0
LINE
  5
123
100
AcDbEntity
100
AcDbLine
  8
Drawings - Y Travel
 62
256
370
-1
  6
ByLayer
 10
67.174999999999955
 20
107.19999999999975
 30
0.0
 11
67.174999999999955
 21
152.19999999999999
 31
0.0
  0
LINE
  5
124
100
AcDbEntity
100
AcDbLine
  8
Drawings - Y Travel
 62
256
370
-1
  6
ByLayer
 10
64.0
 20
107.19999999999975
 30
0.0
 11
64.0
 21
152.19999999999999
 31
0.0
  0
LINE
  5
125
100
AcDbEntity
100
AcDbLine
  8
Drawings - Y Travel
 62
256
370
-1
  6
ByLayer
 10
60.825000000000045
 20
107.19999999999975
 30
0.0
 11
60.825000000000045
 21
152.19999999999999
 31
0.0
  0
LINE
  5
126
100
AcDbEntity
100
AcDbLine
  8
Drawings - Y Travel
 62
256
370
-1
  6
ByLayer
 10
60.825000000000045
 20
-152.20000000000002
 30
0.0
 11
60.825000000000045
 21
-107.19999999999993
 31
0.0
  0
LINE
  5
127
100
AcDbEntity
100
AcDbLine
  8
Drawings - Y Travel
 62
256
370
-1
  6
ByLayer
 10
60.825000000000045
 20
-28.200000000000014
 30
0.0
 11
60.825000000000045
 21
38.549999999999997
 31
0.0
  0
LINE
  5
128
100
AcDbEntity
100
AcDbLine
  8
Drawings - Y Travel
 62
256
370
-1
  6
ByLayer
 10
67.174999999999955
 20
-152.20000000000002
 30
0.0
 11
67.174999999999955
 21
-107.19999999999993
 31
0.0
  0
LINE
  5
129
100
AcDbEntity
100
AcDbLine
  8
Drawings - Y Travel
 62
256
370
-1
  6
ByLayer
 10
67.174999999999955
 20
-28.200000000000014
 30
0.0
 11
67.174999999999955
 21
38.549999999999997
 31
0.0
  0
LINE
  5
12A
100
AcDbEntity
100
AcDbLine
  8
Drawings - Y Travel
 62
256
370
-1
  6
ByLayer
 10
64.0
 20
-152.20000000000002
 30
0.0
 11
64.0
 21
-107.19999999999993
 31
0.0
  0
LINE
  5
12B
100
AcDbEntity
100
AcDbLine
  8
Drawings - Y Travel
 62
256
370
-1
  6
ByLayer
 10
64.0
 20
-28.200000000000014
 30
0.0
 11
64.0
 21
38.549999999999997
 31
0.0
  0
INSERT
  5
12C
100
AcDbEntity
100
AcDbBlockReference
  8
0
 62
256
370
-1
  6
ByLayer
  2
tcutout
 10
-290.0
 20
-114.69999999999968
 30
0.0
 41
1.0
 42
-1.0
 43
1.0
 50
180.0
 44
1.0
 45
1.0
  0
INSERT
  5
12D
100
AcDbEntity
100
AcDbBlockReference
  8
0
 62
256
370
-1
  6
ByLayer
  2
tcutout
 10
-259.99999999999983
 20
-134.19999999999976
 30
0.0
 41
1.0
 42
-1.0
 43
1.0
 50
90.0
 44
1.0
 45
1.0
  0
INSERT
  5
12E
100
AcDbEntity
100
AcDbBlockReference
  8
0
 62
256
370
-1
  6
ByLayer
  2
tcutout
 10
-320.00000000000011
 20
-134.19999999999982
 30
0.0
 41
1.0
 42
-1.0
 43
1.0
 50
270.0
 44
1.0
 45
1.0
  0
INSERT
  5
12F
100
AcDbEntity
100
AcDbBlockReference
  8
Y Stage
 62
256
370
-1
  6
ByLayer
  2
tcutout
 10
-289.9999999999996
 20
-28.450000000000252
 30
0.0
 41
1.0
 42
-1.0
 43
1.0
 44
1.0
 45
1.0
  0
LINE
  5
130
100
AcDbEntity
100
AcDbLine
  8
Drawings
 62
256
370
-1
  6
ByLayer
 10
-252.49999999999969
 20
-28.450000000000152
 30
0.0
 11
-327.49999999999949
 21
-28.450000000000195
 31
0.0
  0
LINE
  5
131
100
AcDbEntity
100
AcDbLine
  8
Drawings
 62
256
370
-1
  6
ByLayer
 10
-327.5
 20
-114.69999999999962
 30
0.0
 11
361.69999999999999
 21
-114.70000000000016
 31
0.0
  0
LINE
  5
132
100
AcDbEntity
100
AcDbLine
  8
Drawings
 62
256
370
-1
  6
ByLayer
 10
-327.50000000000011
 20
-144.69999999999999
 30
0.0
 11
402.70000000000005
 21
-144.69999999999982
 31
0.0
  0
CIRCLE
  5
133
100
AcDbEntity
100
AcDbCircle
  8
Drawings - Pulleys
 62
256
370
-1
  6
ByLayer
 10
-121.14999999999998
 20
-4.7999999999999972
 30
0.0
 40
4.7999999999999998
  0
CIRCLE
  5
134
100
AcDbEntity
100
AcDbCircle
  8
Drawings - Pulleys
 62
256
370
-1
  6
ByLayer
 10
-121.14999999999998
 20
-4.8000000000000043
 30
0.0
 40
7.0
  0
LINE
  5
135
100
AcDbEntity
100
AcDbLine
  8
Y Stage
 62
256
370
-1
  6
ByLayer
 10
-142.29999999999995
 20
-25.949999999999996
 30
0.0
 11
-97.299999999999955
 21
-25.949999999999999
 31
0.0
  0
INSERT
  5
136
100
AcDbEntity
100
AcDbBlockReference
  8
Y Stage
 62
256
370
-1
  6
ByLayer
  2
tgrips
 10
-142.29999999999995
 20
4.0500000000000043
 30
0.0
 50
90.0
 44
1.0
 45
1.0
  0
LINE
  5
137
100
AcDbEntity
100
AcDbLine
  8
Y Stage
 62
256
370
-1
  6
ByLayer
 10
-142.29999999999995
 20
-25.949999999999996
 30
0.0
 11
-142.29999999999995
 21
-10.949999999999996
 31
0.0
  0
LINE
  5
138
100
AcDbEntity
100
AcDbLine
  8
Y Stage
 62
256
370
-1
  6
ByLayer
 10
-142.29999999999995
 20
34.050000000000004
 30
0.0
 11
-142.29999999999995
 21
19.050000000000004
 31
0.0
  0
LINE
  5
139
100
AcDbEntity
100
AcDbLine
  8
Drawings
 62
256
370
-1
  6
ByLayer
 10
-146.79999999999995
 20
41.549999999999791
 30
0.0
 11
-146.79999999999995
 21
-33.45000000000001
 31
0.0
  0
LINE
  5
13A
100
AcDbEntity
100
AcDbLine
  8
Drawings
 62
256
370
-1
  6
ByLayer
 10
-142.29999999999995
 20
41.549999999999748
 30
0.0
 11
-142.29999999999995
 21
-33.450000000000003
 31
0.0
  0
LINE
  5
13B
100
AcDbEntity
100
AcDbLine
  8
Drawings
 62
256
370
-1
  6
ByLayer
 10
-146.79999999999995
 20
41.549999999999791
 30
0.0
 11
-142.29999999999995
 21
41.549999999999748
 31
0.0
  0
LINE
  5
13C
100
AcDbEntity
100
AcDbLine
  8
Drawings
 62
256
370
-1
  6
ByLayer
 10
-146.79999999999995
 20
-33.45000000000001
 30
0.0
 11
-142.29999999999995
 21
-33.450000000000003
 31
0.0
  0
INSERT
  5
13D
100
AcDbEntity
100
AcDbBlockReference
  8
Y Stage
 62
256
370
-1
  6
ByLayer
  2
tgrips
 10
-82.299999999999955
 20
-243.44999999999999
 30
0.0
 41
1.0
 42
-1.0
 43
1.0
 50
360.0
 44
1.0
 45
1.0
  0
INSERT
  5
13E
100
AcDbEntity
100
AcDbBlockReference
  8
Y Stage
 62
256
370
-1
  6
ByLayer
  2
tgrips
 10
-82.300000000000068
 20
-183.4500000000001
 30
0.0
 41
1.0
 42
-1.0
 43
1.0
 50
180.0
 44
1.0
 45
1.0
  0
INSERT
  5
13F
100
AcDbEntity
100
AcDbBlockReference
  8
Y Stage
 62
256
370
-1
  6
ByLayer
  2
tgrips
 10
-142.29999999999995
 20
134.1999999999999
 30
0.0
 50
90.000000000000014
 44
1.0
 45
1.0
  0
LINE
  5
140
100
AcDbEntity
100
AcDbLine
  8
Y Stage
 62
256
370
-1
  6
ByLayer
 10
-142.30000000000001
 20
152.19999999999993
 30
0.0
 11
-142.30000000000001
 21
149.20000000000005
 31
0.0
  0
INSERT
  5
141
100
AcDbEntity
100
AcDbBlockReference
  8
Y Stage
 62
256
370
-1
  6
ByLayer
  2
tcutout
 10
-82.299999999999955
 20
144.69999999999982
 30
0.0
 44
1.0
 45
1.0
  0
INSERT
  5
142
100
AcDbEntity
100
AcDbBlockReference
  8
Y Stage
 62
256
370
-1
  6
ByLayer
  2
tcutout
 10
-82.300000000000011
 20
-114.69999999999978
 30
0.0
 41
1.0
 42
-1.0
 43
1.0
 50
180.0
 44
1.0
 45
1.0
  0
INSERT
  5
143
100
AcDbEntity
100
AcDbBlockReference
  8
Y Stage
 62
256
370
-1
  6
ByLayer
  2
tgrips
 10
-142.29999999999995
 20
-134.1999999999999
 30
0.0
 41
1.0
 42
-1.0
 43
1.0
 50
270.0
 44
1.0
 45
1.0
  0
LINE
  5
144
100
AcDbEntity
100
AcDbLine
  8
Y Stage
 62
256
370
-1
  6
ByLayer
 10
-142.30000000000004
 20
-152.19999999999996
 30
0.0
 11
-142.29999999999998
 21
-149.20000000000002
 31
0.0
  0
INSERT
  5
145
100
AcDbEntity
100
AcDbBlockReference
  8
Y Stage
 62
256
370
-1
  6
ByLayer
  2
tcutout
 10
-82.299999999999955
 20
-144.69999999999976
 30
0.0
 41
1.0
 42
-1.0
 43
1.0
 44
1.0
 45
1.0
  0
LINE
  5
146
100
AcDbEntity
100
AcDbLine
  8
Drawings
 62
256
370
-1
  6
ByLayer
 10
-82.299999999999955
 20
150.30000000000001
 30
0.0
 11
-82.299999999999955
 21
-243.45000000000002
 31
0.0
  0
LINE
  5
147
100
AcDbEntity
100
AcDbLine
  8
Drawings - Y Travel
 62
256
370
-1
  6
ByLayer
 10
-112.30000000000001
 20
-107.19999999999992
 30
0.0
 11
-112.30000000000001
 21
34.050000000000004
 31
0.0
  0
LINE
  5
148
100
AcDbEntity
100
AcDbLine
  8
Y Stage
 62
256
370
-1
  6
ByLayer
 10
-67.299999999999955
 20
-25.949999999999996
 30
0.0
 11
72.700000000000045
 21
-25.949999999999999
 31
0.0
  0
LINE
  5
149
100
AcDbEntity
100
AcDbLine
  8
Drawings
 62
256
370
-1
  6
ByLayer
 10
-142.29999999999995
 20
38.550000000000004
 30
0.0
 11
117.70000000000005
 21
38.550000000000004
 31
0.0
  0
LINE
  5
14A
100
AcDbEntity
100
AcDbLine
  8
Drawings
 62
256
370
-1
  6
ByLayer
 10
117.70000000000005
 20
-213.44999999999993
 30
0.0
 11
-142.29999999999995
 21
-213.44999999999999
 31
0.0
  0
LINE
  5
14B
100
AcDbEntity
100
AcDbLine
  8
Y Stage
 62
256
370
-1
  6
ByLayer
 10
-67.300000000000068
 20
-243.45000000000005
 30
0.0
 11
72.700000000000045
 21
-243.45000000000007
 31
0.0
  0
LINE
  5
14C
100
AcDbEntity
100
AcDbLine
  8
Y Stage
 62
256
370
-1
  6
ByLayer
 10
-67.300000000000068
 20
-183.45000000000013
 30
0.0
 11
72.700000000000045
 21
-183.45000000000007
 31
0.0
  0
LINE
  5
14D
100
AcDbEntity
100
AcDbLine
  8
Drawings - Y Travel
 62
256
370
-1
  6
ByLayer
 10
-142.29999999999995
 20
129.79999999999995
 30
0.0
 11
117.69999999999999
 21
129.80000000000001
 31
0.0
  0
LINE
  5
14E
100
AcDbEntity
100
AcDbLine
  8
Y Stage
 62
256
370
-1
  6
ByLayer
 10
-142.30000000000001
 20
152.19999999999993
 30
0.0
 11
117.70000000000005
 21
152.19999999999999
 31
0.0
  0
LINE
  5
14F
100
AcDbEntity
100
AcDbLine
  8
Y Stage
 62
256
370
-1
  6
ByLayer
 10
-112.30000000000001
 20
107.19999999999992
 30
0.0
 11
87.700000000000045
 21
107.19999999999978
 31
0.0
  0
LINE
  5
150
100
AcDbEntity
100
AcDbLine
  8
Y Stage
 62
256
370
-1
  6
ByLayer
 10
-142.30000000000004
 20
-152.19999999999996
 30
0.0
 11
117.70000000000005
 21
-152.20000000000002
 31
0.0
  0
LINE
  5
151
100
AcDbEntity
100
AcDbLine
  8
Drawings
 62
256
370
-1
  6
ByLayer
 10
-142.29999999999993
 20
144.69999999999996
 30
0.0
 11
117.69999999999993
 21
144.69999999999982
 31
0.0
  0
LINE
  5
152
100
AcDbEntity
100
AcDbLine
  8
Drawings
 62
256
370
-1
  6
ByLayer
 10
-147.84587129516169
 20
130.19999999999968
 30
0.0
 11
117.69999999999962
 21
130.19999999999945
 31
0.0
  0
LINE
  5
153
100
AcDbEntity
100
AcDbLine
  8
Drawings
 62
256
370
-1
  6
ByLayer
 10
-150.2881291074452
 20
120.19999999999972
 30
0.0
 11
117.69999999999942
 21
120.19999999999951
 31
0.0
  0
LINE
  5
154
100
AcDbEntity
100
AcDbLine
  8
Drawings
 62
256
370
-1
  6
ByLayer
 10
-142.30000000000007
 20
114.69999999999975
 30
0.0
 11
117.69999999999931
 21
114.69999999999985
 31
0.0
  0
LINE
  5
155
100
AcDbEntity
100
AcDbLine
  8
Drawings
 62
256
370
-1
  6
ByLayer
 10
122.20000000000005
 20
4.0500000000000043
 30
0.0
 11
-142.29999999999995
 21
4.0500000000000043
 31
0.0
  0
LINE
  5
156
100
AcDbEntity
100
AcDbLine
  8
Drawings - Y Travel
 62
256
370
-1
  6
ByLayer
 10
87.700000000000045
 20
34.050000000000004
 30
0.0
 11
-112.30000000000001
 21
34.050000000000004
 31
0.0
  0
LINE
  5
157
100
AcDbEntity
100
AcDbLine
  8
Drawings - Y Travel
 62
256
370
-1
  6
ByLayer
 10
-112.30000000000001
 20
-25.949999999999996
 30
0.0
 11
87.700000000000045
 21
-25.949999999999996
 31
0.0
  0
LINE
  5
158
100
AcDbEntity
100
AcDbLine
  8
Drawings - Y Travel
 62
256
370
-1
  6
ByLayer
 10
87.700000000000045
 20
4.0500000000000043
 30
0.0
 11
-112.30000000000001
 21
4.0500000000000043
 31
0.0
  0
LINE
  5
159
100
AcDbEntity
100
AcDbLine
  8
Drawings - Y Travel
 62
256
370
-1
  6
ByLayer
 10
87.700000000000045
 20
-0.0000000000000029
 30
0.0
 11
-112.30000000000001
 21
0.0000000000000033
 31
0.0
  0
LINE
  5
15A
100
AcDbEntity
100
AcDbLine
  8
Drawings - Y Travel
 62
256
370
-1
  6
ByLayer
 10
-112.30000000000001
 20
-9.5999999999999979
 30
0.0
 11
87.700000000000074
 21
-9.5999999999999908
 31
0.0
  0
LINE
  5
15B
100
AcDbEntity
100
AcDbLine
  8
Drawings - Belt
 62
256
370
-1
  6
ByLayer
 10
-121.14999999999998
 20
-0.0000000000000036
 30
0.0
 11
102.70000000000005
 21
0.0
 31
0.0
  0
LINE
  5
15C
100
AcDbEntity
100
AcDbLine
  8
Drawings - Belt
 62
256
370
-1
  6
ByLayer
 10
102.70000000000005
 20
-9.5999999999999943
 30
0.0
 11
-121.14999999999998
 21
-9.5999999999999872
 31
0.0
  0
LINE
  5
15D
100
AcDbEntity
100
AcDbLine
  8
Drawings
 62
256
370
-1
  6
ByLayer
 10
-84.524999999999991
 20
-114.6999999999998
 30
0.0
 11
-84.524999999999991
 21
-144.6999999999999
 31
0.0
  0
INSERT
  5
15E
100
AcDbEntity
100
AcDbBlockReference
  8
Y Stage
 62
256
370
-1
  6
ByLayer
  2
tcutout-5
 10
-84.524999999999991
 20
-129.69999999999985
 30
0.0
 50
-90.0
 44
1.0
 45
1.0
  0
INSERT
  5
15F
100
AcDbEntity
100
AcDbBlockReference
  8
Y Stage
 62
256
370
-1
  6
ByLayer
  2
tgrips
 10
-82.299999999999955
 20
-25.949999999999996
 30
0.0
 50
-180.0
 44
1.0
 45
1.0
  0
INSERT
  5
160
100
AcDbEntity
100
AcDbBlockReference
  8
Y Stage
 62
256
370
-1
  6
ByLayer
  2
tgrips
 10
-82.299999999999955
 20
34.050000000000018
 30
0.0
 44
1.0
 45
1.0
  0
LINE
  5
161
100
AcDbEntity
100
AcDbLine
  8
Y Stage
 62
256
370
-1
  6
ByLayer
 10
-142.29999999999995
 20
34.050000000000004
 30
0.0
 11
-97.299999999999955
 21
34.04999999999999
 31
0.0
  0
LINE
  5
162
100
AcDbEntity
100
AcDbLine
  8
Y Stage
 62
256
370
-1
  6
ByLayer
 10
-67.299999999999955
 20
34.04999999999999
 30
0.0
 11
72.700000000000045
 21
34.050000000000004
 31
0.0
  0
LINE
  5
163
100
AcDbEntity
100
AcDbLine
  8
Y Stage
 62
256
370
-1
  6
ByLayer
 10
-195.0
 20
-114.99999999999993
 30
0.0
 11
-195.0
 21
-110.9999999999998
 31
0.0
  0
LINE
  5
164
100
AcDbEntity
100
AcDbLine
  8
Y Stage
 62
256
370
-1
  6
ByLayer
 10
-205.0
 20
-111.00000000000013
 30
0.0
 11
-205.0
 21
-114.99999999999993
 31
0.0
  0
LINE
  5
165
100
AcDbEntity
100
AcDbLine
  8
Y Stage
 62
256
370
-1
  6
ByLayer
 10
-205.0
 20
-114.99999999999993
 30
0.0
 11
-195.0
 21
-114.99999999999993
 31
0.0
  0
LINE
  5
166
100
AcDbEntity
100
AcDbLine
  8
Drawings
 62
256
370
-1
  6
ByLayer
 10
-200.0
 20
-114.99999999999999
 30
0.0
 11
-200.0
 21
-144.99999999999986
 31
0.0
  0
LINE
  5
167
100
AcDbEntity
100
AcDbLine
  8
Drawings
 62
256
370
-1
  6
ByLayer
 10
-199.99999999999994
 20
-120.64999999999972
 30
0.0
 11
-200.00000000000017
 21
-142.94999999999965
 31
0.0
  0
CIRCLE
  5
168
100
AcDbEntity
100
AcDbCircle
  8
Drawings
 62
256
370
-1
  6
ByLayer
 10
-199.99999999999994
 20
-122.14999999999969
 30
0.0
 40
4.25
  0
CIRCLE
  5
169
100
AcDbEntity
100
AcDbCircle
  8
Y Stage
 62
256
370
-1
  6
ByLayer
 10
-199.99999999999994
 20
-122.14999999999972
 30
0.0
 40
2.0
  0
CIRCLE
  5
16A
100
AcDbEntity
100
AcDbCircle
  8
Drawings
 62
256
370
-1
  6
ByLayer
 10
-199.99999999999994
 20
-122.14999999999969
 30
0.0
 40
6.5
  0
CIRCLE
  5
16B
100
AcDbEntity
100
AcDbCircle
  8
Drawings
 62
256
370
-1
  6
ByLayer
 10
-200.00000000000011
 20
-141.44999999999965
 30
0.0
 40
4.25
  0
CIRCLE
  5
16C
100
AcDbEntity
100
AcDbCircle
  8
Y Stage
 62
256
370
-1
  6
ByLayer
 10
-200.00000000000011
 20
-141.44999999999965
 30
0.0
 40
2.0
  0
CIRCLE
  5
16D
100
AcDbEntity
100
AcDbCircle
  8
Drawings
 62
256
370
-1
  6
ByLayer
 10
-200.00000000000011
 20
-141.44999999999965
 30
0.0
 40
6.5
  0
LINE
  5
16E
100
AcDbEntity
100
AcDbLine
  8
Drawings - Y Travel
 62
256
370
-1
  6
ByLayer
 10
-218.0
 20
-128.64999999999969
 30
0.0
 11
-182.0
 21
-128.64999999999969
 31
0.0
  0
LINE
  5
16F
100
AcDbEntity
100
AcDbLine
  8
Drawings - Y Travel
 62
256
370
-1
  6
ByLayer
 10
-230.0
 20
-134.94999999999965
 30
0.0
 11
-169.99993766266149
 21
-134.94999999999965
 31
0.0
  0
LINE
  5
170
100
AcDbEntity
100
AcDbLine
  8
Drawings - Y Travel
 62
256
370
-1
  6
ByLayer
 10
-95.0
 20
-250.95000000000061
 30
0.0
 11
-88.649999999999977
 21
-250.95000000000059
 31
0.0
  0
LINE
  5
171
100
AcDbEntity
100
AcDbLine
  8
Drawings - 624 Bearing Stackup
 62
256
370
-1
  6
ByLayer
 10
-87.72499999999998
 20
-209.45000000000002
 30
0.0
 11
-84.524999999999991
 21
-209.45000000000002
 31
0.0
  0
LINE
  5
172
100
AcDbEntity
100
AcDbLine
  8
Drawings - 624 Bearing Stackup
 62
256
370
-1
  6
ByLayer
 10
-87.72499999999998
 20
-217.45000000000002
 30
0.0
 11
-84.524999999999991
 21
-217.45000000000002
 31
0.0
  0
LINE
  5
173
100
AcDbEntity
100
AcDbLine
  8
Drawings - 624 Bearing Stackup
 62
256
370
-1
  6
ByLayer
 10
-84.524999999999991
 20
-209.45000000000002
 30
0.0
 11
-84.524999999999991
 21
-217.45000000000002
 31
0.0
  0
LINE
  5
174
100
AcDbEntity
100
AcDbLine
  8
Drawings - 624 Bearing Stackup
 62
256
370
-1
  6
ByLayer
 10
-89.325000000000003
 20
-209.20000000000005
 30
0.0
 11
-89.325000000000003
 21
-217.70000000000005
 31
0.0
  0
LINE
  5
175
100
AcDbEntity
100
AcDbLine
  8
Drawings - 624 Bearing Stackup
 62
256
370
-1
  6
ByLayer
 10
-94.32500000000006
 20
-206.95000000000002
 30
0.0
 11
-89.325000000000003
 21
-206.95000000000002
 31
0.0
  0
LINE
  5
176
100
AcDbEntity
100
AcDbLine
  8
Drawings - 624 Bearing Stackup
 62
256
370
-1
  6
ByLayer
 10
-89.325000000000003
 20
-206.95000000000002
 30
0.0
 11
-89.325000000000003
 21
-219.95000000000002
 31
0.0
  0
LINE
  5
177
100
AcDbEntity
100
AcDbLine
  8
Drawings - 624 Bearing Stackup
 62
256
370
-1
  6
ByLayer
 10
-94.32500000000006
 20
-206.95000000000002
 30
0.0
 11
-94.325000000000003
 21
-219.95000000000002
 31
0.0
  0
LINE
  5
178
100
AcDbEntity
100
AcDbLine
  8
Drawings - 624 Bearing Stackup
 62
256
370
-1
  6
ByLayer
 10
-94.325000000000003
 20
-219.95000000000002
 30
0.0
 11
-89.325000000000003
 21
-219.95000000000002
 31
0.0
  0
LINE
  5
179
100
AcDbEntity
100
AcDbLine
  8
Drawings - 624 Bearing Stackup
 62
256
370
-1
  6
ByLayer
 10
-88.524999999999991
 20
-209.20000000000005
 30
0.0
 11
-88.524999999999991
 21
-217.70000000000005
 31
0.0
  0
LINE
  5
17A
100
AcDbEntity
100
AcDbLine
  8
Drawings - 624 Bearing Stackup
 62
256
370
-1
  6
ByLayer
 10
-89.325000000000003
 20
-209.20000000000005
 30
0.0
 11
-88.524999999999991
 21
-209.20000000000005
 31
0.0
  0
LINE
  5
17B
100
AcDbEntity
100
AcDbLine
  8
Drawings - 624 Bearing Stackup
 62
256
370
-1
  6
ByLayer
 10
-88.524999999999991
 20
-217.70000000000005
 30
0.0
 11
-89.325000000000003
 21
-217.70000000000005
 31
0.0
  0
LINE
  5
17C
100
AcDbEntity
100
AcDbLine
  8
Drawings - 624 Bearing Stackup
 62
256
370
-1
  6
ByLayer
 10
-98.325000000000003
 20
-209.95000000000002
 30
0.0
 11
-94.32500000000006
 21
-209.95000000000002
 31
0.0
  0
LINE
  5
17D
100
AcDbEntity
100
AcDbLine
  8
Drawings - 624 Bearing Stackup
 62
256
370
-1
  6
ByLayer
 10
-98.325000000000003
 20
-216.94999999999999
 30
0.0
 11
-94.32500000000006
 21
-216.95000000000002
 31
0.0
  0
LINE
  5
17E
100
AcDbEntity
100
AcDbLine
  8
Drawings - 624 Bearing Stackup
 62
256
370
-1
  6
ByLayer
 10
-98.325000000000003
 20
-209.95000000000002
 30
0.0
 11
-98.325000000000003
 21
-216.94999999999999
 31
0.0
  0
LINE
  5
17F
100
AcDbEntity
100
AcDbLine
  8
Drawings - 624 Bearing Stackup
 62
256
370
-1
  6
ByLayer
 10
-88.524999999999991
 20
-209.20000000000005
 30
0.0
 11
-88.524999999999991
 21
-217.70000000000005
 31
0.0
  0
LINE
  5
180
100
AcDbEntity
100
AcDbLine
  8
Drawings - 624 Bearing Stackup
 62
256
370
-1
  6
ByLayer
 10
-87.72499999999998
 20
-209.20000000000005
 30
0.0
 11
-87.72499999999998
 21
-217.70000000000005
 31
0.0
  0
LINE
  5
181
100
AcDbEntity
100
AcDbLine
  8
Drawings - 624 Bearing Stackup
 62
256
370
-1
  6
ByLayer
 10
-88.524999999999991
 20
-209.20000000000005
 30
0.0
 11
-87.72499999999998
 21
-209.20000000000005
 31
0.0
  0
LINE
  5
182
100
AcDbEntity
100
AcDbLine
  8
Drawings - 624 Bearing Stackup
 62
256
370
-1
  6
ByLayer
 10
-87.72499999999998
 20
-217.70000000000005
 30
0.0
 11
-88.524999999999991
 21
-217.70000000000005
 31
0.0
  0
LINE
  5
183
100
AcDbEntity
100
AcDbLine
  8
Drawings
 62
256
370
-1
  6
ByLayer
 10
-98.325000000000003
 20
-213.44999999999999
 30
0.0
 11
-84.524999999999991
 21
-213.45000000000002
 31
0.0
  0
LINE
  5
184
100
AcDbEntity
100
AcDbLine
  8
Drawings - Y Travel
 62
256
370
-1
  6
ByLayer
 10
-95.0
 20
-175.95000000000067
 30
0.0
 11
-88.649999999999977
 21
-175.95000000000076
 31
0.0
  0
ARC
  5
185
100
AcDbEntity
  8
Y Stage
 62
256
370
-1
  6
ByLayer
100
AcDbCircle
 10
-88.825000000000003
 20
-206.45000000000002
 30
0.0
 40
0.5
100
AcDbArc
 50
0.0
 51
90.0
  0
LINE
  5
186
100
AcDbEntity
100
AcDbLine
  8
Y Stage
 62
256
370
-1
  6
ByLayer
 10
-88.325000000000003
 20
-206.45000000000002
 30
0.0
 11
-88.325000000000003
 21
-220.45000000000002
 31
0.0
  0
ARC
  5
187
100
AcDbEntity
  8
Y Stage
 62
256
370
-1
  6
ByLayer
100
AcDbCircle
 10
-88.825000000000003
 20
-220.45000000000002
 30
0.0
 40
0.5
100
AcDbArc
 50
270.0
 51
0.0
  0
INSERT
  5
188
100
AcDbEntity
100
AcDbBlockReference
  8
Y Stage
 62
256
370
-1
  6
ByLayer
  2
tcutout
 10
-82.299999999999955
 20
114.69999999999978
 30
0.0
 50
180.0
 44
1.0
 45
1.0
  0
LINE
  5
189
100
AcDbEntity
100
AcDbLine
  8
Y Stage
 62
256
370
-1
  6
ByLayer
 10
-84.524999999999935
 20
-0.9500000000000615
 30
0.0
 11
-80.024999999999935
 21
-0.9500000000000615
 31
0.0
  0
LINE
  5
18A
100
AcDbEntity
100
AcDbLine
  8
Y Stage
 62
256
370
-1
  6
ByLayer
 10
-80.024999999999935
 20
9.0499999999999385
 30
0.0
 11
-84.524999999999935
 21
9.0499999999999385
 31
0.0
  0
LINE
  5
18B
100
AcDbEntity
100
AcDbLine
  8
Y Stage
 62
256
370
-1
  6
ByLayer
 10
-80.024999999999935
 20
-5.9500000000000615
 30
0.0
 11
-80.024999999999935
 21
-0.9500000000000615
 31
0.0
  0
LINE
  5
18C
100
AcDbEntity
100
AcDbLine
  8
Y Stage
 62
256
370
-1
  6
ByLayer
 10
-84.524999999999935
 20
-5.9500000000000615
 30
0.0
 11
-84.524999999999935
 21
-0.9500000000000615
 31
0.0
  0
LINE
  5
18D
100
AcDbEntity
100
AcDbLine
  8
Y Stage
 62
256
370
-1
  6
ByLayer
 10
-80.024999999999935
 20
-5.9500000000000615
 30
0.0
 11
-84.524999999999935
 21
-5.9500000000000615
 31
0.0
  0
LINE
  5
18E
100
AcDbEntity
100
AcDbLine
  8
Y Stage
 62
256
370
-1
  6
ByLayer
 10
-80.024999999999935
 20
9.0499999999999385
 30
0.0
 11
-80.024999999999935
 21
14.049999999999939
 31
0.0
  0
LINE
  5
18F
100
AcDbEntity
100
AcDbLine
  8
Y Stage
 62
256
370
-1
  6
ByLayer
 10
-84.524999999999935
 20
9.0499999999999385
 30
0.0
 11
-84.524999999999935
 21
14.049999999999939
 31
0.0
  0
LINE
  5
190
100
AcDbEntity
100
AcDbLine
  8
Y Stage
 62
256
370
-1
  6
ByLayer
 10
-84.524999999999935
 20
14.049999999999939
 30
0.0
 11
-80.024999999999935
 21
14.049999999999939
 31
0.0
  0
INSERT
  5
191
100
AcDbEntity
100
AcDbBlockReference
  8
Y Stage
 62
256
370
-1
  6
ByLayer
  2
tcutout-5
 10
-84.524999999999991
 20
130.19999999999962
 30
0.0
 50
-90.0
 44
1.0
 45
1.0
  0
LINE
  5
192
100
AcDbEntity
100
AcDbLine
  8
Drawings
 62
256
370
-1
  6
ByLayer
 10
122.20000000000005
 20
-25.45000000000001
 30
0.0
 11
125.20000000000005
 21
-25.45000000000001
 31
0.0
  0
LINE
  5
193
100
AcDbEntity
100
AcDbLine
  8
Drawings
 62
256
370
-1
  6
ByLayer
 10
122.20000000000005
 20
-30.95000000000001
 30
0.0
 11
125.20000000000005
 21
-30.95000000000001
 31
0.0
  0
LINE
  5
194
100
AcDbEntity
100
AcDbLine
  8
Drawings
 62
256
370
-1
  6
ByLayer
 10
122.20000000000005
 20
-25.45000000000001
 30
0.0
 11
122.20000000000005
 21
-30.95000000000001
 31
0.0
  0
LINE
  5
195
100
AcDbEntity
100
AcDbLine
  8
Drawings
 62
256
370
-1
  6
ByLayer
 10
122.20000000000005
 20
39.050000000000217
 30
0.0
 11
125.20000000000005
 21
39.050000000000217
 31
0.0
  0
LINE
  5
196
100
AcDbEntity
100
AcDbLine
  8
Drawings
 62
256
370
-1
  6
ByLayer
 10
122.20000000000005
 20
33.550000000000217
 30
0.0
 11
125.20000000000005
 21
33.550000000000217
 31
0.0
  0
LINE
  5
197
100
AcDbEntity
100
AcDbLine
  8
Drawings
 62
256
370
-1
  6
ByLayer
 10
122.20000000000005
 20
39.050000000000217
 30
0.0
 11
122.20000000000005
 21
33.550000000000217
 31
0.0
  0
LINE
  5
198
100
AcDbEntity
100
AcDbLine
  8
Drawings
 62
256
370
-1
  6
ByLayer
 10
125.20000000000005
 20
39.050000000000217
 30
0.0
 11
125.20000000000005
 21
33.550000000000217
 31
0.0
  0
LINE
  5
199
100
AcDbEntity
100
AcDbLine
  8
Drawings
 62
256
370
-1
  6
ByLayer
 10
125.20000000000005
 20
-25.45000000000001
 30
0.0
 11
125.20000000000005
 21
-30.95000000000001
 31
0.0
  0
LINE
  5
19A
100
AcDbEntity
100
AcDbLine
  8
Drawings
 62
256
370
-1
  6
ByLayer
 10
122.20000000000005
 20
6.7999999999999901
 30
0.0
 11
125.20000000000005
 21
6.7999999999999901
 31
0.0
  0
LINE
  5
19B
100
AcDbEntity
100
AcDbLine
  8
Drawings
 62
256
370
-1
  6
ByLayer
 10
122.20000000000005
 20
1.2999999999999901
 30
0.0
 11
125.20000000000005
 21
1.2999999999999901
 31
0.0
  0
LINE
  5
19C
100
AcDbEntity
100
AcDbLine
  8
Drawings
 62
256
370
-1
  6
ByLayer
 10
122.20000000000005
 20
6.7999999999999901
 30
0.0
 11
122.20000000000005
 21
1.2999999999999901
 31
0.0
  0
LINE
  5
19D
100
AcDbEntity
100
AcDbLine
  8
Drawings
 62
256
370
-1
  6
ByLayer
 10
125.20000000000005
 20
6.7999999999999901
 30
0.0
 11
125.20000000000005
 21
1.2999999999999901
 31
0.0
  0
LINE
  5
19E
100
AcDbEntity
100
AcDbLine
  8
Drawings
 62
256
370
-1
  6
ByLayer
 10
-149.79999999999995
 20
6.7999999999998906
 30
0.0
 11
-146.79999999999995
 21
6.7999999999998906
 31
0.0
  0
LINE
  5
19F
100
AcDbEntity
100
AcDbLine
  8
Drawings
 62
256
370
-1
  6
ByLayer
 10
-149.79999999999995
 20
1.2999999999998906
 30
0.0
 11
-146.79999999999995
 21
1.2999999999998906
 31
0.0
  0
LINE
  5
1A0
100
AcDbEntity
100
AcDbLine
  8
Drawings
 62
256
370
-1
  6
ByLayer
 10
-149.79999999999995
 20
6.7999999999998906
 30
0.0
 11
-149.79999999999995
 21
1.2999999999998906
 31
0.0
  0
LINE
  5
1A1
100
AcDbEntity
100
AcDbLine
  8
Drawings
 62
256
370
-1
  6
ByLayer
 10
-146.79999999999995
 20
6.7999999999998906
 30
0.0
 11
-146.79999999999995
 21
1.2999999999998906
 31
0.0
  0
LINE
  5
1A2
100
AcDbEntity
100
AcDbLine
  8
Drawings
 62
256
370
-1
  6
ByLayer
 10
-142.29999999999995
 20
-28.200000000000006
 30
0.0
 11
122.20000000000005
 21
-28.200000000000006
 31
0.0
  0
LINE
  5
1A3
100
AcDbEntity
100
AcDbLine
  8
Drawings
 62
256
370
-1
  6
ByLayer
 10
-142.29999999999995
 20
36.300000000000217
 30
0.0
 11
122.20000000000005
 21
36.300000000000217
 31
0.0
  0
LINE
  5
1A4
100
AcDbEntity
100
AcDbLine
  8
Drawings
 62
256
370
-1
  6
ByLayer
 10
-149.79999999999995
 20
39.050000000000118
 30
0.0
 11
-146.79999999999995
 21
39.050000000000118
 31
0.0
  0
LINE
  5
1A5
100
AcDbEntity
100
AcDbLine
  8
Drawings
 62
256
370
-1
  6
ByLayer
 10
-149.79999999999995
 20
33.550000000000118
 30
0.0
 11
-146.79999999999995
 21
33.550000000000118
 31
0.0
  0
LINE
  5
1A6
100
AcDbEntity
100
AcDbLine
  8
Drawings
 62
256
370
-1
  6
ByLayer
 10
-149.79999999999995
 20
39.050000000000118
 30
0.0
 11
-149.79999999999995
 21
33.550000000000118
 31
0.0
  0
LINE
  5
1A7
100
AcDbEntity
100
AcDbLine
  8
Drawings
 62
256
370
-1
  6
ByLayer
 10
-146.79999999999995
 20
39.050000000000118
 30
0.0
 11
-146.79999999999995
 21
33.550000000000118
 31
0.0
  0
LINE
  5
1A8
100
AcDbEntity
100
AcDbLine
  8
Drawings
 62
256
370
-1
  6
ByLayer
 10
-91.824999999999989
 20
-250.94999999999993
 30
0.0
 11
-91.824999999999918
 21
152.19999999999996
 31
0.0
  0
LINE
  5
1A9
100
AcDbEntity
100
AcDbLine
  8
Drawings - Y Travel
 62
256
370
-1
  6
ByLayer
 10
-95.0
 20
-250.95000000000061
 30
0.0
 11
-95.0
 21
-175.95000000000067
 31
0.0
  0
LINE
  5
1AA
100
AcDbEntity
100
AcDbLine
  8
Drawings - Y Travel
 62
256
370
-1
  6
ByLayer
 10
-91.824999999999989
 20
-250.95000000000061
 30
0.0
 11
-91.824999999999989
 21
-175.9500000000007
 31
0.0
  0
LINE
  5
1AB
100
AcDbEntity
100
AcDbLine
  8
Drawings - Y Travel
 62
256
370
-1
  6
ByLayer
 10
-88.649999999999977
 20
-250.95000000000059
 30
0.0
 11
-88.649999999999977
 21
-175.95000000000076
 31
0.0
  0
LINE
  5
1AC
100
AcDbEntity
100
AcDbLine
  8
Drawings - Y Travel
 62
256
370
-1
  6
ByLayer
 10
-95.0
 20
-152.19999999999996
 30
0.0
 11
-95.0
 21
-107.19999999999992
 31
0.0
  0
LINE
  5
1AD
100
AcDbEntity
100
AcDbLine
  8
Drawings - Y Travel
 62
256
370
-1
  6
ByLayer
 10
-91.824999999999989
 20
-152.19999999999996
 30
0.0
 11
-91.824999999999989
 21
-107.19999999999992
 31
0.0
  0
LINE
  5
1AE
100
AcDbEntity
100
AcDbLine
  8
Drawings - Y Travel
 62
256
370
-1
  6
ByLayer
 10
-88.649999999999977
 20
-152.19999999999996
 30
0.0
 11
-88.649999999999977
 21
-107.19999999999992
 31
0.0
  0
LINE
  5
1AF
100
AcDbEntity
100
AcDbLine
  8
Drawings - Y Travel
 62
256
370
-1
  6
ByLayer
 10
-88.649999999999977
 20
-29.950000000000024
 30
0.0
 11
-88.649999999999977
 21
38.050000000000018
 31
0.0
  0
LINE
  5
1B0
100
AcDbEntity
100
AcDbLine
  8
Drawings - Y Travel
 62
256
370
-1
  6
ByLayer
 10
-88.649999999999977
 20
107.1999999999999
 30
0.0
 11
-88.649999999999977
 21
152.19999999999993
 31
0.0
  0
LINE
  5
1B1
100
AcDbEntity
100
AcDbLine
  8
Drawings - Y Travel
 62
256
370
-1
  6
ByLayer
 10
-91.824999999999989
 20
-29.950000000000006
 30
0.0
 11
-91.824999999999989
 21
38.050000000000018
 31
0.0
  0
LINE
  5
1B2
100
AcDbEntity
100
AcDbLine
  8
Drawings - Y Travel
 62
256
370
-1
  6
ByLayer
 10
-91.824999999999989
 20
107.1999999999999
 30
0.0
 11
-91.824999999999989
 21
152.1999999999999
 31
0.0
  0
LINE
  5
1B3
100
AcDbEntity
100
AcDbLine
  8
Drawings - Y Travel
 62
256
370
-1
  6
ByLayer
 10
-95.0
 20
-29.950000000000024
 30
0.0
 11
-95.0
 21
38.050000000000018
 31
0.0
  0
LINE
  5
1B4
100
AcDbEntity
100
AcDbLine
  8
Drawings - Y Travel
 62
256
370
-1
  6
ByLayer
 10
-95.0
 20
107.1999999999999
 30
0.0
 11
-95.0
 21
152.19999999999993
 31
0.0
  0
LINE
  5
1B5
100
AcDbEntity
100
AcDbLine
  8
Drawings
 62
256
370
-1
  6
ByLayer
 10
-80.024999999999991
 20
-208.44999999999999
 30
0.0
 11
-80.024999999999991
 21
-218.44999999999999
 31
0.0
  0
LINE
  5
1B6
100
AcDbEntity
100
AcDbLine
  8
Drawings - 624 Bearing Stackup
 62
256
370
-1
  6
ByLayer
 10
-80.025000000000006
 20
-209.45000000000002
 30
0.0
 11
-76.825000000000017
 21
-209.45000000000002
 31
0.0
  0
LINE
  5
1B7
100
AcDbEntity
100
AcDbLine
  8
Drawings - 624 Bearing Stackup
 62
256
370
-1
  6
ByLayer
 10
-80.025000000000006
 20
-217.45000000000002
 30
0.0
 11
-76.825000000000017
 21
-217.45000000000002
 31
0.0
  0
LINE
  5
1B8
100
AcDbEntity
100
AcDbLine
  8
Drawings - 624 Bearing Stackup
 62
256
370
-1
  6
ByLayer
 10
-76.825000000000017
 20
-209.45000000000002
 30
0.0
 11
-76.825000000000017
 21
-217.45000000000002
 31
0.0
  0
LINE
  5
1B9
100
AcDbEntity
100
AcDbLine
  8
Drawings - 624 Bearing Stackup
 62
256
370
-1
  6
ByLayer
 10
-76.825000000000017
 20
-209.44999999999999
 30
0.0
 11
-73.625000000000028
 21
-209.44999999999999
 31
0.0
  0
LINE
  5
1BA
100
AcDbEntity
100
AcDbLine
  8
Drawings - 624 Bearing Stackup
 62
256
370
-1
  6
ByLayer
 10
-76.825000000000017
 20
-217.44999999999999
 30
0.0
 11
-73.625000000000028
 21
-217.44999999999999
 31
0.0
  0
LINE
  5
1BB
100
AcDbEntity
100
AcDbLine
  8
Drawings - 624 Bearing Stackup
 62
256
370
-1
  6
ByLayer
 10
-73.625000000000028
 20
-209.44999999999999
 30
0.0
 11
-73.625000000000028
 21
-217.44999999999999
 31
0.0
  0
LINE
  5
1BC
100
AcDbEntity
100
AcDbLine
  8
Y Stage
 62
256
370
-1
  6
ByLayer
 10
40.00000000000005
 20
-218.44999999999993
 30
0.0
 11
44.50000000000005
 21
-218.44999999999993
 31
0.0
  0
LINE
  5
1BD
100
AcDbEntity
100
AcDbLine
  8
Y Stage
 62
256
370
-1
  6
ByLayer
 10
44.50000000000005
 20
-208.44999999999993
 30
0.0
 11
40.00000000000005
 21
-208.44999999999993
 31
0.0
  0
INSERT
  5
1BE
100
AcDbEntity
100
AcDbBlockReference
  8
Y Stage
 62
256
370
-1
  6
ByLayer
  2
tcutout
 10
44.499999999999993
 20
129.7000000000001
 30
0.0
 50
90.000000000000014
 44
1.0
 45
1.0
  0
LINE
  5
1BF
100
AcDbEntity
100
AcDbLine
  8
Drawings
 62
256
370
-1
  6
ByLayer
 10
49.000000000000107
 20
133.29999999999981
 30
0.0
 11
51.999999999999993
 21
133.30000000000004
 31
0.0
  0
LINE
  5
1C0
100
AcDbEntity
100
AcDbLine
  8
Drawings
 62
256
370
-1
  6
ByLayer
 10
49.00000000000005
 20
127.29999999999984
 30
0.0
 11
52.00000000000005
 21
127.29999999999993
 31
0.0
  0
LINE
  5
1C1
100
AcDbEntity
100
AcDbLine
  8
Drawings
 62
256
370
-1
  6
ByLayer
 10
49.00000000000005
 20
117.29999999999966
 30
0.0
 11
52.00000000000005
 21
117.29999999999963
 31
0.0
  0
LINE
  5
1C2
100
AcDbEntity
100
AcDbLine
  8
Drawings
 62
256
370
-1
  6
ByLayer
 10
48.999999999999993
 20
123.2999999999998
 30
0.0
 11
52.00000000000005
 21
123.29999999999983
 31
0.0
  0
LINE
  5
1C3
100
AcDbEntity
100
AcDbLine
  8
Drawings
 62
256
370
-1
  6
ByLayer
 10
51.999999999999993
 20
123.29999999999981
 30
0.0
 11
52.00000000000005
 21
117.29999999999963
 31
0.0
  0
LINE
  5
1C4
100
AcDbEntity
100
AcDbLine
  8
Drawings
 62
256
370
-1
  6
ByLayer
 10
48.999999999999993
 20
123.2999999999998
 30
0.0
 11
49.00000000000005
 21
117.29999999999966
 31
0.0
  0
LINE
  5
1C5
100
AcDbEntity
100
AcDbLine
  8
Drawings
 62
256
370
-1
  6
ByLayer
 10
49.000000000000107
 20
133.29999999999981
 30
0.0
 11
49.00000000000005
 21
127.29999999999984
 31
0.0
  0
LINE
  5
1C6
100
AcDbEntity
100
AcDbLine
  8
Drawings
 62
256
370
-1
  6
ByLayer
 10
51.999999999999993
 20
133.30000000000004
 30
0.0
 11
52.00000000000005
 21
127.29999999999993
 31
0.0
  0
LINE
  5
1C7
100
AcDbEntity
100
AcDbLine
  8
Drawings
 62
256
370
-1
  6
ByLayer
 10
49.00000000000005
 20
144.70000000000013
 30
0.0
 11
48.999999999999993
 21
114.70000000000029
 31
0.0
  0
LINE
  5
1C8
100
AcDbEntity
100
AcDbLine
  8
Drawings
 62
256
370
-1
  6
ByLayer
 10
44.499999999999936
 20
144.70000000000039
 30
0.0
 11
44.499999999999993
 21
114.70000000000029
 31
0.0
  0
LINE
  5
1C9
100
AcDbEntity
100
AcDbLine
  8
Y Stage
 62
256
370
-1
  6
ByLayer
 10
44.50000000000005
 20
141.70000000000005
 30
0.0
 11
44.499999999999993
 21
135.70000000000002
 31
0.0
  0
LINE
  5
1CA
100
AcDbEntity
100
AcDbLine
  8
Y Stage
 62
256
370
-1
  6
ByLayer
 10
34.50000000000005
 20
141.70000000000019
 30
0.0
 11
46.50000000000005
 21
141.70000000000013
 31
0.0
  0
LINE
  5
1CB
100
AcDbEntity
100
AcDbLine
  8
Y Stage
 62
256
370
-1
  6
ByLayer
 10
46.50000000000005
 20
141.70000000000013
 30
0.0
 11
46.50000000000005
 21
135.69999999999987
 31
0.0
  0
LINE
  5
1CC
100
AcDbEntity
100
AcDbLine
  8
Y Stage
 62
256
370
-1
  6
ByLayer
 10
34.50000000000005
 20
141.70000000000019
 30
0.0
 11
34.50000000000005
 21
135.70000000000073
 31
0.0
  0
LINE
  5
1CD
100
AcDbEntity
100
AcDbLine
  8
Y Stage
 62
256
370
-1
  6
ByLayer
 10
46.50000000000005
 20
135.69999999999987
 30
0.0
 11
34.50000000000005
 21
135.70000000000073
 31
0.0
  0
INSERT
  5
1CE
100
AcDbEntity
100
AcDbBlockReference
  8
Y Stage
 62
256
370
-1
  6
ByLayer
  2
tcutout
 10
44.499999999999993
 20
-129.69999999999999
 30
0.0
 41
1.0
 42
-1.0
 43
1.0
 50
270.0
 44
1.0
 45
1.0
  0
LINE
  5
1CF
100
AcDbEntity
100
AcDbLine
  8
Drawings
 62
256
370
-1
  6
ByLayer
 10
49.000000000000107
 20
-133.29999999999976
 30
0.0
 11
51.999999999999993
 21
-133.3000000000001
 31
0.0
  0
LINE
  5
1D0
100
AcDbEntity
100
AcDbLine
  8
Drawings
 62
256
370
-1
  6
ByLayer
 10
49.00000000000005
 20
-127.29999999999976
 30
0.0
 11
52.00000000000005
 21
-127.29999999999993
 31
0.0
  0
LINE
  5
1D1
100
AcDbEntity
100
AcDbLine
  8
Drawings
 62
256
370
-1
  6
ByLayer
 10
49.00000000000005
 20
-117.29999999999956
 30
0.0
 11
52.00000000000005
 21
-117.29999999999956
 31
0.0
  0
LINE
  5
1D2
100
AcDbEntity
100
AcDbLine
  8
Drawings
 62
256
370
-1
  6
ByLayer
 10
48.999999999999993
 20
-123.2999999999997
 30
0.0
 11
52.00000000000005
 21
-123.29999999999968
 31
0.0
  0
LINE
  5
1D3
100
AcDbEntity
100
AcDbLine
  8
Drawings
 62
256
370
-1
  6
ByLayer
 10
51.999999999999993
 20
-123.29999999999991
 30
0.0
 11
52.00000000000005
 21
-117.29999999999956
 31
0.0
  0
LINE
  5
1D4
100
AcDbEntity
100
AcDbLine
  8
Drawings
 62
256
370
-1
  6
ByLayer
 10
48.999999999999993
 20
-123.2999999999997
 30
0.0
 11
49.00000000000005
 21
-117.29999999999956
 31
0.0
  0
LINE
  5
1D5
100
AcDbEntity
100
AcDbLine
  8
Drawings
 62
256
370
-1
  6
ByLayer
 10
49.000000000000107
 20
-133.29999999999976
 30
0.0
 11
49.00000000000005
 21
-127.29999999999976
 31
0.0
  0
LINE
  5
1D6
100
AcDbEntity
100
AcDbLine
  8
Drawings
 62
256
370
-1
  6
ByLayer
 10
51.999999999999993
 20
-133.3000000000001
 30
0.0
 11
52.00000000000005
 21
-127.29999999999993
 31
0.0
  0
LINE
  5
1D7
100
AcDbEntity
100
AcDbLine
  8
Drawings
 62
256
370
-1
  6
ByLayer
 10
49.00000000000005
 20
-144.70000000000002
 30
0.0
 11
48.999999999999993
 21
-114.70000000000017
 31
0.0
  0
LINE
  5
1D8
100
AcDbEntity
100
AcDbLine
  8
Drawings
 62
256
370
-1
  6
ByLayer
 10
44.499999999999936
 20
-144.70000000000039
 30
0.0
 11
44.499999999999993
 21
-114.70000000000024
 31
0.0
  0
LINE
  5
1D9
100
AcDbEntity
100
AcDbLine
  8
Y Stage
 62
256
370
-1
  6
ByLayer
 10
44.50000000000005
 20
-141.6999999999999
 30
0.0
 11
44.499999999999993
 21
-135.69999999999996
 31
0.0
  0
LINE
  5
1DA
100
AcDbEntity
100
AcDbLine
  8
Y Stage
 62
256
370
-1
  6
ByLayer
 10
34.50000000000005
 20
-141.7000000000001
 30
0.0
 11
46.50000000000005
 21
-141.70000000000007
 31
0.0
  0
LINE
  5
1DB
100
AcDbEntity
100
AcDbLine
  8
Y Stage
 62
256
370
-1
  6
ByLayer
 10
46.50000000000005
 20
-141.70000000000007
 30
0.0
 11
46.50000000000005
 21
-135.69999999999982
 31
0.0
  0
LINE
  5
1DC
100
AcDbEntity
100
AcDbLine
  8
Y Stage
 62
256
370
-1
  6
ByLayer
 10
34.50000000000005
 20
-141.7000000000001
 30
0.0
 11
34.50000000000005
 21
-135.7000000000007
 31
0.0
  0
LINE
  5
1DD
100
AcDbEntity
100
AcDbLine
  8
Y Stage
 62
256
370
-1
  6
ByLayer
 10
46.50000000000005
 20
-135.69999999999982
 30
0.0
 11
34.50000000000005
 21
-135.7000000000007
 31
0.0
  0
LINE
  5
1DE
100
AcDbEntity
100
AcDbLine
  8
Drawings
 62
256
370
-1
  6
ByLayer
 10
44.50000000000005
 20
-243.45000000000005
 30
0.0
 11
44.50000000000005
 21
150.30000000000004
 31
0.0
  0
LINE
  5
1DF
100
AcDbEntity
100
AcDbLine
  8
Drawings
 62
256
370
-1
  6
ByLayer
 10
39.999999999999993
 20
-120.19999999999952
 30
0.0
 11
52.000000000000021
 21
-120.19999999999951
 31
0.0
  0
LINE
  5
1E0
100
AcDbEntity
100
AcDbLine
  8
Drawings
 62
256
370
-1
  6
ByLayer
 10
40.835786437622396
 20
-130.19999999999962
 30
0.0
 11
51.999999999999929
 21
-130.19999999999962
 31
0.0
  0
LINE
  5
1E1
100
AcDbEntity
100
AcDbLine
  8
Drawings
 62
256
370
-1
  6
ByLayer
 10
-151.29999999999995
 20
-25.950000000000003
 30
0.0
 11
-146.79999999999995
 21
-25.950000000000003
 31
0.0
  0
LINE
  5
1E2
100
AcDbEntity
100
AcDbLine
  8
Drawings
 62
256
370
-1
  6
ByLayer
 10
-151.29999999999995
 20
-5.9500000000000028
 30
0.0
 11
-146.79999999999995
 21
-5.9500000000000028
 31
0.0
  0
LINE
  5
1E3
100
AcDbEntity
100
AcDbLine
  8
Drawings
 62
256
370
-1
  6
ByLayer
 10
-151.29999999999995
 20
-5.9500000000000028
 30
0.0
 11
-151.29999999999995
 21
-25.950000000000003
 31
0.0
  0
LINE
  5
1E4
100
AcDbEntity
100
AcDbLine
  8
Drawings
 62
256
370
-1
  6
ByLayer
 10
-154.29999999999995
 20
-13.200000000000003
 30
0.0
 11
-151.29999999999995
 21
-13.200000000000003
 31
0.0
  0
LINE
  5
1E5
100
AcDbEntity
100
AcDbLine
  8
Drawings
 62
256
370
-1
  6
ByLayer
 10
-154.29999999999995
 20
-18.700000000000003
 30
0.0
 11
-151.29999999999995
 21
-18.700000000000003
 31
0.0
  0
LINE
  5
1E6
100
AcDbEntity
100
AcDbLine
  8
Drawings
 62
256
370
-1
  6
ByLayer
 10
-154.29999999999995
 20
-13.200000000000003
 30
0.0
 11
-154.29999999999995
 21
-18.700000000000003
 31
0.0
  0
LINE
  5
1E7
100
AcDbEntity
100
AcDbLine
  8
Drawings
 62
256
370
-1
  6
ByLayer
 10
-151.29999999999995
 20
-13.200000000000003
 30
0.0
 11
-151.29999999999995
 21
-18.700000000000003
 31
0.0
  0
LINE
  5
1E8
100
AcDbEntity
100
AcDbLine
  8
Drawings
 62
256
370
-1
  6
ByLayer
 10
126.7
 20
-25.949999999999942
 30
0.0
 11
122.2
 21
-25.949999999999999
 31
0.0
  0
LINE
  5
1E9
100
AcDbEntity
100
AcDbLine
  8
Drawings
 62
256
370
-1
  6
ByLayer
 10
126.7
 20
-5.949999999999946
 30
0.0
 11
122.20000000000003
 21
-5.9499999999999531
 31
0.0
  0
LINE
  5
1EA
100
AcDbEntity
100
AcDbLine
  8
Drawings
 62
256
370
-1
  6
ByLayer
 10
126.7
 20
-5.949999999999946
 30
0.0
 11
126.7
 21
-25.949999999999942
 31
0.0
  0
LINE
  5
1EB
100
AcDbEntity
100
AcDbLine
  8
Drawings
 62
256
370
-1
  6
ByLayer
 10
129.70000000000005
 20
-13.199999999999928
 30
0.0
 11
126.7
 21
-13.200000000000042
 31
0.0
  0
LINE
  5
1EC
100
AcDbEntity
100
AcDbLine
  8
Drawings
 62
256
370
-1
  6
ByLayer
 10
129.70000000000005
 20
-18.699999999999992
 30
0.0
 11
126.70000000000003
 21
-18.699999999999914
 31
0.0
  0
LINE
  5
1ED
100
AcDbEntity
100
AcDbLine
  8
Drawings
 62
256
370
-1
  6
ByLayer
 10
129.70000000000005
 20
-13.199999999999928
 30
0.0
 11
129.70000000000005
 21
-18.699999999999992
 31
0.0
  0
LINE
  5
1EE
100
AcDbEntity
100
AcDbLine
  8
Drawings
 62
256
370
-1
  6
ByLayer
 10
126.7
 20
-13.200000000000042
 30
0.0
 11
126.70000000000003
 21
-18.699999999999914
 31
0.0
  0
ARC
  5
1EF
100
AcDbEntity
  8
Drawings - Belt
 62
256
370
-1
  6
ByLayer
100
AcDbCircle
 10
102.70000000000005
 20
-4.7999999999999972
 30
0.0
 40
4.7999999999999972
100
AcDbArc
 50
270.0
 51
90.000000000000341
  0
ARC
  5
1F0
100
AcDbEntity
  8
Drawings - Belt
 62
256
370
-1
  6
ByLayer
100
AcDbCircle
 10
-121.14999999999998
 20
-4.7999999999999954
 30
0.0
 40
4.7999999999999918
100
AcDbArc
 50
90.0
 51
270.00000000000028
  0
LINE
  5
1F1
100
AcDbEntity
100
AcDbLine
  8
Y Stage
 62
256
370
-1
  6
ByLayer
 10
-210.0
 20
-114.99999999999984
 30
0.0
 11
-210.0
 21
-110.99999999999986
 31
0.0
  0
LINE
  5
1F2
100
AcDbEntity
100
AcDbLine
  8
Y Stage
 62
256
370
-1
  6
ByLayer
 10
-210.0
 20
-110.99999999999986
 30
0.0
 11
-205.0
 21
-111.00000000000013
 31
0.0
  0
LINE
  5
1F3
100
AcDbEntity
100
AcDbLine
  8
Y Stage
 62
256
370
-1
  6
ByLayer
 10
-230.0
 20
-115.0
 30
0.0
 11
-210.0
 21
-114.99999999999984
 31
0.0
  0
LINE
  5
1F4
100
AcDbEntity
100
AcDbLine
  8
Y Stage
 62
256
370
-1
  6
ByLayer
 10
-190.0
 20
-110.9999999999999
 30
0.0
 11
-190.0
 21
-115.00000000000006
 31
0.0
  0
LINE
  5
1F5
100
AcDbEntity
100
AcDbLine
  8
Y Stage
 62
256
370
-1
  6
ByLayer
 10
-195.0
 20
-110.9999999999998
 30
0.0
 11
-190.0
 21
-110.9999999999999
 31
0.0
  0
LINE
  5
1F6
100
AcDbEntity
100
AcDbLine
  8
Y Stage
 62
256
370
-1
  6
ByLayer
 10
-190.0
 20
-114.99999999999982
 30
0.0
 11
-170.0
 21
-115.00000000000006
 31
0.0
  0
INSERT
  5
1F7
100
AcDbEntity
100
AcDbBlockReference
  8
Y Stage
 62
256
370
-1
  6
ByLayer
  2
tgrips-5
 10
-170.0
 20
-130.0
 30
0.0
 50
-90.0
 44
1.0
 45
1.0
  0
INSERT
  5
1F8
100
AcDbEntity
100
AcDbBlockReference
  8
Y Stage
 62
256
370
-1
  6
ByLayer
  2
tgrips-5
 10
-230.0
 20
-130.0
 30
0.0
 50
90.0
 44
1.0
 45
1.0
  0
LINE
  5
1F9
100
AcDbEntity
100
AcDbLine
  8
Y Stage
 62
256
370
-1
  6
ByLayer
 10
-230.0
 20
-115.0
 30
0.0
 11
-229.99775636036648
 21
-119.99180370439754
 31
0.0
  0
LINE
  5
1FA
100
AcDbEntity
100
AcDbLine
  8
Y Stage
 62
256
370
-1
  6
ByLayer
 10
-229.99775636037032
 20
-139.99180370439754
 30
0.0
 11
-230.0
 21
-144.99999999999997
 31
0.0
  0
LINE
  5
1FB
100
AcDbEntity
100
AcDbLine
  8
Y Stage
 62
256
370
-1
  6
ByLayer
 10
-170.0
 20
-115.00000000000006
 30
0.0
 11
-170.00224363962965
 21
-120.00819629560246
 31
0.0
  0
LINE
  5
1FC
100
AcDbEntity
100
AcDbLine
  8
Y Stage
 62
256
370
-1
  6
ByLayer
 10
-170.00224363963352
 20
-140.00819629560246
 30
0.0
 11
-170.0
 21
-145.00000000000011
 31
0.0
  0
MTEXT
  5
1FD
100
AcDbEntity
100
AcDbMText
  8
Notes
 62
256
370
-1
  6
ByLayer
 10
190.0
 20
150.0
 30
0.0
 40
10.0
 41
100.0
 71
7
 72
2
  1
Specialized\~Parts
  7
standard
 50
0.0
 73
1
 44
1.0
  0
MTEXT
  5
1FE
100
AcDbEntity
100
AcDbMText
  8
Notes
 62
256
370
-1
  6
ByLayer
 10
190.0
 20
140.0
 30
0.0
 40
5.0
 41
100.0
 71
1
 72
2
  3
*\~2\~x\~624\~Bearings\P*\~2\~x\~self-aligning\~bearings\P*\~1\~x\~15\~tooth\~pulley\~(aluminum)\P*\~1\~x\~15\~tooth\~pulley\~(plastic)\P*\~M4\~x\~25mm\~(for\~radial\~bearings)\~-\~MCM\~91290A176\P*\~M4\~x\~50mm\~(for\~idler\~bearing)\P*\~269mm\~(10.
  1
59")\~rods\~(1/4"\~dia)\~-\~SDP/SI:\~A\~7X\~1-08106\P*\~Y\~Belt:\~A\~6R51M239030
  7
standard
 50
0.0
 73
1
 44
1.0
  0
LINE
  5
1FF
100
AcDbEntity
100
AcDbLine
  8
Drawings
 62
256
370
-1
  6
ByLayer
 10
-84.524999999999991
 20
144.69999999999993
 30
0.0
 11
-84.524999999999991
 21
-243.45000000000007
 31
0.0
  0
LINE
  5
200
100
AcDbEntity
100
AcDbLine
  8
Drawings
 62
256
370
-1
  6
ByLayer
 10
-118.44999999999995
 20
-25.949999999999992
 30
0.0
 11
-118.44999999999995
 21
16.350000000000005
 31
0.0
  0
LINE
  5
201
100
AcDbEntity
100
AcDbLine
  8
Drawings
 62
256
370
-1
  6
ByLayer
 10
-139.59999999999994
 20
-4.7999999999999909
 30
0.0
 11
-97.29999999999994
 21
-4.7999999999999936
 31
0.0
  0
LINE
  5
202
100
AcDbEntity
100
AcDbLine
  8
Drawings
 62
256
370
-1
  6
ByLayer
 10
-139.59999999999994
 20
16.350000000000005
 30
0.0
 11
-97.29999999999994
 21
16.350000000000001
 31
0.0
  0
LINE
  5
203
100
AcDbEntity
100
AcDbLine
  8
Drawings
 62
256
370
-1
  6
ByLayer
 10
-139.59999999999994
 20
-25.949999999999985
 30
0.0
 11
-97.299999999999955
 21
-25.949999999999999
 31
0.0
  0
LINE
  5
204
100
AcDbEntity
100
AcDbLine
  8
Drawings
 62
256
370
-1
  6
ByLayer
 10
-139.59999999999994
 20
-25.949999999999985
 30
0.0
 11
-139.59999999999994
 21
16.350000000000005
 31
0.0
  0
LINE
  5
205
100
AcDbEntity
100
AcDbLine
  8
Drawings
 62
256
370
-1
  6
ByLayer
 10
-97.299999999999955
 20
-25.949999999999999
 30
0.0
 11
-97.29999999999994
 21
16.350000000000001
 31
0.0
  0
CIRCLE
  5
206
100
AcDbEntity
100
AcDbCircle
  8
Drawings
 62
256
370
-1
  6
ByLayer
 10
-118.44999999999995
 20
-4.7999999999999936
 30
0.0
 40
11.0
  0
LINE
  5
207
100
AcDbEntity
100
AcDbLine
  8
Drawings
 62
256
370
-1
  6
ByLayer
 10
-121.14999999999998
 20
-25.949999999999999
 30
0.0
 11
-121.14999999999998
 21
16.349999999999998
 31
0.0
  0
LINE
  5
208
100
AcDbEntity
100
AcDbLine
  8
Drawings
 62
256
370
-1
  6
ByLayer
 10
-142.29999999999998
 20
-4.799999999999998
 30
0.0
 11
-99.999999999999972
 21
-4.8000000000000007
 31
0.0
  0
LINE
  5
209
100
AcDbEntity
100
AcDbLine
  8
Drawings
 62
256
370
-1
  6
ByLayer
 10
-142.29999999999998
 20
16.349999999999994
 30
0.0
 11
-99.999999999999972
 21
16.349999999999994
 31
0.0
  0
LINE
  5
20A
100
AcDbEntity
100
AcDbLine
  8
Drawings
 62
256
370
-1
  6
ByLayer
 10
-142.29999999999998
 20
-25.949999999999989
 30
0.0
 11
-99.999999999999986
 21
-25.950000000000006
 31
0.0
  0
LINE
  5
20B
100
AcDbEntity
100
AcDbLine
  8
Drawings
 62
256
370
-1
  6
ByLayer
 10
-142.29999999999998
 20
-25.949999999999989
 30
0.0
 11
-142.29999999999995
 21
16.349999999999998
 31
0.0
  0
LINE
  5
20C
100
AcDbEntity
100
AcDbLine
  8
Drawings
 62
256
370
-1
  6
ByLayer
 10
-99.999999999999986
 20
-25.950000000000006
 30
0.0
 11
-99.999999999999972
 21
16.349999999999994
 31
0.0
  0
CIRCLE
  5
20D
100
AcDbEntity
100
AcDbCircle
  8
Drawings
 62
256
370
-1
  6
ByLayer
 10
-121.14999999999998
 20
-4.8000000000000007
 30
0.0
 40
11.0
  0
LINE
  5
20E
100
AcDbEntity
100
AcDbLine
  8
Y Stage
 62
256
370
-1
  6
ByLayer
 10
-136.64499999999998
 20
12.195000000000004
 30
0.0
 11
-133.94499999999994
 21
12.195000000000004
 31
0.0
  0
LINE
  5
20F
100
AcDbEntity
100
AcDbLine
  8
Y Stage
 62
256
370
-1
  6
ByLayer
 10
-133.94499999999994
 20
9.1950000000000038
 30
0.0
 11
-136.64499999999998
 21
9.1950000000000038
 31
0.0
  0
LINE
  5
210
100
AcDbEntity
100
AcDbLine
  8
Y Stage
 62
256
370
-1
  6
ByLayer
 10
-105.65499999999997
 20
12.194999999999995
 30
0.0
 11
-102.95499999999994
 21
12.195000000000002
 31
0.0
  0
LINE
  5
211
100
AcDbEntity
100
AcDbLine
  8
Y Stage
 62
256
370
-1
  6
ByLayer
 10
-102.95499999999994
 20
9.1950000000000021
 30
0.0
 11
-105.65499999999997
 21
9.194999999999995
 31
0.0
  0
LINE
  5
212
100
AcDbEntity
100
AcDbLine
  8
Y Stage
 62
256
370
-1
  6
ByLayer
 10
-105.65499999999997
 20
-18.795000000000009
 30
0.0
 11
-102.95499999999994
 21
-18.795000000000002
 31
0.0
  0
LINE
  5
213
100
AcDbEntity
100
AcDbLine
  8
Y Stage
 62
256
370
-1
  6
ByLayer
 10
-102.95499999999994
 20
-21.795000000000002
 30
0.0
 11
-105.65499999999997
 21
-21.795000000000009
 31
0.0
  0
LINE
  5
214
100
AcDbEntity
100
AcDbLine
  8
Y Stage
 62
256
370
-1
  6
ByLayer
 10
-133.94499999999994
 20
-18.794999999999984
 30
0.0
 11
-136.64499999999998
 21
-18.794999999999991
 31
0.0
  0
LINE
  5
215
100
AcDbEntity
100
AcDbLine
  8
Y Stage
 62
256
370
-1
  6
ByLayer
 10
-136.64499999999998
 20
-21.794999999999991
 30
0.0
 11
-133.94499999999994
 21
-21.794999999999984
 31
0.0
  0
LINE
  5
216
100
AcDbEntity
100
AcDbLine
  8
Y Stage
 62
256
370
-1
  6
ByLayer
 10
-121.14999999999998
 20
-1.7999999999999972
 30
0.0
 11
-118.44999999999995
 21
-1.7999999999999936
 31
0.0
  0
LINE
  5
217
100
AcDbEntity
100
AcDbLine
  8
Y Stage
 62
256
370
-1
  6
ByLayer
 10
-118.44999999999995
 20
-7.7999999999999936
 30
0.0
 11
-121.14999999999998
 21
-7.7999999999999972
 31
0.0
  0
ARC
  5
218
100
AcDbEntity
  8
Y Stage
 62
256
370
-1
  6
ByLayer
100
AcDbCircle
 10
-118.44999999999995
 20
-4.7999999999999936
 30
0.0
 40
3.0
100
AcDbArc
 50
270.0
 51
90.0
  0
ARC
  5
219
100
AcDbEntity
  8
Y Stage
 62
256
370
-1
  6
ByLayer
100
AcDbCircle
 10
-121.14999999999998
 20
-4.7999999999999972
 30
0.0
 40
3.0
100
AcDbArc
 50
90.0
 51
270.0
  0
ARC
  5
21A
100
AcDbEntity
  8
Y Stage
 62
256
370
-1
  6
ByLayer
100
AcDbCircle
 10
-102.95499999999994
 20
-20.295000000000002
 30
0.0
 40
1.5
100
AcDbArc
 50
270.0
 51
90.0
  0
ARC
  5
21B
100
AcDbEntity
  8
Y Stage
 62
256
370
-1
  6
ByLayer
100
AcDbCircle
 10
-105.65499999999997
 20
-20.295000000000009
 30
0.0
 40
1.5
100
AcDbArc
 50
90.0
 51
270.0
  0
ARC
  5
21C
100
AcDbEntity
  8
Y Stage
 62
256
370
-1
  6
ByLayer
100
AcDbCircle
 10
-133.94499999999994
 20
-20.294999999999984
 30
0.0
 40
1.5
100
AcDbArc
 50
270.0
 51
90.0
  0
ARC
  5
21D
100
AcDbEntity
  8
Y Stage
 62
256
370
-1
  6
ByLayer
100
AcDbCircle
 10
-136.64499999999998
 20
-20.294999999999991
 30
0.0
 40
1.5
100
AcDbArc
 50
90.0
 51
270.0
  0
ARC
  5
21E
100
AcDbEntity
  8
Y Stage
 62
256
370
-1
  6
ByLayer
100
AcDbCircle
 10
-133.94499999999994
 20
10.695000000000004
 30
0.0
 40
1.5
100
AcDbArc
 50
270.0
 51
90.0
  0
ARC
  5
21F
100
AcDbEntity
  8
Y Stage
 62
256
370
-1
  6
ByLayer
100
AcDbCircle
 10
-136.64499999999998
 20
10.695000000000004
 30
0.0
 40
1.5
100
AcDbArc
 50
90.0
 51
270.0
  0
ARC
  5
220
100
AcDbEntity
  8
Y Stage
 62
256
370
-1
  6
ByLayer
100
AcDbCircle
 10
-102.95499999999994
 20
10.695000000000002
 30
0.0
 40
1.5
100
AcDbArc
 50
270.0
 51
90.0
  0
ARC
  5
221
100
AcDbEntity
  8
Y Stage
 62
256
370
-1
  6
ByLayer
100
AcDbCircle
 10
-105.65499999999997
 20
10.694999999999995
 30
0.0
 40
1.5
100
AcDbArc
 50
90.0
 51
270.0
  0
CIRCLE
  5
222
100
AcDbEntity
100
AcDbCircle
  8
Y Stage
 62
256
370
-1
  6
ByLayer
 10
63.999999999999943
 20
129.79999999999987
 30
0.0
 40
6.2999999999999998
  0
CIRCLE
  5
223
100
AcDbEntity
100
AcDbCircle
  8
Y Stage
 62
256
370
-1
  6
ByLayer
 10
63.999999999999943
 20
-129.7999999999999
 30
0.0
 40
6.2999999999999998
  0
CIRCLE
  5
224
100
AcDbEntity
100
AcDbCircle
  8
Y Stage
 62
256
370
-1
  6
ByLayer
 10
-91.824999999999989
 20
129.79999999999995
 30
0.0
 40
4.0
  0
LINE
  5
225
100
AcDbEntity
100
AcDbLine
  8
Drawings - Y Travel
 62
256
370
-1
  6
ByLayer
 10
-95.0
 20
-129.69999999999999
 30
0.0
 11
67.174999999999955
 21
-129.69999999999999
 31
0.0
  0
CIRCLE
  5
226
100
AcDbEntity
100
AcDbCircle
  8
Y Stage
 62
256
370
-1
  6
ByLayer
 10
-91.824999999999989
 20
-129.69999999999999
 30
0.0
 40
4.0
  0
LINE
  5
227
100
AcDbEntity
100
AcDbLine
  8
Y Stage
 62
256
370
-1
  6
ByLayer
 10
-205.0
 20
-148.99999999999983
 30
0.0
 11
-205.0
 21
-145.00000000000003
 31
0.0
  0
LINE
  5
228
100
AcDbEntity
100
AcDbLine
  8
Y Stage
 62
256
370
-1
  6
ByLayer
 10
-205.0
 20
-144.99999999999983
 30
0.0
 11
-230.0
 21
-144.99999999999997
 31
0.0
  0
LINE
  5
229
100
AcDbEntity
100
AcDbLine
  8
Y Stage
 62
256
370
-1
  6
ByLayer
 10
-195.0
 20
-145.0000000000002
 30
0.0
 11
-195.0
 21
-149.00000000000017
 31
0.0
  0
LINE
  5
22A
100
AcDbEntity
100
AcDbLine
  8
Y Stage
 62
256
370
-1
  6
ByLayer
 10
-170.0
 20
-145.00000000000011
 30
0.0
 11
-195.0
 21
-145.0000000000002
 31
0.0
  0
LINE
  5
22B
100
AcDbEntity
100
AcDbLine
  8
Y Stage
 62
256
370
-1
  6
ByLayer
 10
-195.0
 20
-149.00000000000017
 30
0.0
 11
-205.0
 21
-148.99999999999983
 31
0.0
  0
LINE
  5
22C
100
AcDbEntity
100
AcDbLine
  8
Y Stage
 62
256
370
-1
  6
ByLayer
 10
-84.524999999999991
 20
-208.44999999999999
 30
0.0
 11
-80.024999999999991
 21
-208.44999999999999
 31
0.0
  0
LINE
  5
22D
100
AcDbEntity
100
AcDbLine
  8
Y Stage
 62
256
370
-1
  6
ByLayer
 10
-80.024999999999991
 20
-218.44999999999999
 30
0.0
 11
-84.524999999999991
 21
-218.44999999999999
 31
0.0
  0
LINE
  5
22E
100
AcDbEntity
100
AcDbLine
  8
Y Stage
 62
256
370
-1
  6
ByLayer
 10
-80.024999999999991
 20
-218.44999999999999
 30
0.0
 11
-80.024999999999991
 21
-208.44999999999999
 31
0.0
  0
LINE
  5
22F
100
AcDbEntity
100
AcDbLine
  8
Y Stage
 62
256
370
-1
  6
ByLayer
 10
-84.524999999999991
 20
-218.44999999999999
 30
0.0
 11
-84.524999999999991
 21
-208.44999999999999
 31
0.0
  0
LINE
  5
230
100
AcDbEntity
100
AcDbLine
  8
Y Stage
 62
256
370
-1
  6
ByLayer
 10
40.00000000000005
 20
-208.44999999999993
 30
0.0
 11
40.00000000000005
 21
-218.44999999999993
 31
0.0
  0
LINE
  5
231
100
AcDbEntity
100
AcDbLine
  8
Y Stage
 62
256
370
-1
  6
ByLayer
 10
44.50000000000005
 20
-208.44999999999993
 30
0.0
 11
44.50000000000005
 21
-218.44999999999993
 31
0.0
  0
LINE
  5
232
100
AcDbEntity
100
AcDbLine
  8
Y Stage
 62
256
370
-1
  6
ByLayer
 10
322.70000000000005
 20
-148.69999999999982
 30
0.0
 11
332.70000000000005
 21
-148.69999999999973
 31
0.0
  0
LINE
  5
233
100
AcDbEntity
100
AcDbLine
  8
Y Stage
 62
256
370
-1
  6
ByLayer
 10
332.70000000000005
 20
-144.69999999999985
 30
0.0
 11
342.70000000000005
 21
-144.69999999999996
 31
0.0
  0
LINE
  5
234
100
AcDbEntity
100
AcDbLine
  8
Y Stage
 62
256
370
-1
  6
ByLayer
 10
312.70000000000005
 20
-144.69999999999959
 30
0.0
 11
322.70000000000005
 21
-144.6999999999997
 31
0.0
  0
INSERT
  5
235
100
AcDbEntity
100
AcDbBlockReference
  8
Y Stage
 62
256
370
-1
  6
ByLayer
  2
tgrips
 10
327.70000000000005
 20
-114.69999999999969
 30
0.0
 44
1.0
 45
1.0
  0
INSERT
  5
236
100
AcDbEntity
100
AcDbBlockReference
  8
Y Stage
 62
256
370
-1
  6
ByLayer
  2
tcutout
 10
44.50000000000005
 20
4.0500000000000123
 30
0.0
 50
90.0
 44
1.0
 45
1.0
  0
LINE
  5
237
100
AcDbEntity
100
AcDbLine
  8
Y Stage
 62
256
370
-1
  6
ByLayer
 10
-97.300000000000068
 20
-183.4500000000001
 30
0.0
 11
-97.300000000000026
 21
-205.45000000000002
 31
0.0
  0
LINE
  5
238
100
AcDbEntity
100
AcDbLine
  8
Y Stage
 62
256
370
-1
  6
ByLayer
 10
-96.800000000000026
 20
-205.95000000000002
 30
0.0
 11
-88.825000000000003
 21
-205.95000000000002
 31
0.0
  0
ARC
  5
239
100
AcDbEntity
  8
Y Stage
 62
256
370
-1
  6
ByLayer
100
AcDbCircle
 10
-96.800000000000026
 20
-205.45000000000002
 30
0.0
 40
0.5
100
AcDbArc
 50
180.0
 51
270.0
  0
LINE
  5
23A
100
AcDbEntity
100
AcDbLine
  8
Y Stage
 62
256
370
-1
  6
ByLayer
 10
-88.825000000000003
 20
-220.95000000000002
 30
0.0
 11
-96.799999999999997
 21
-220.95000000000002
 31
0.0
  0
LINE
  5
23B
100
AcDbEntity
100
AcDbLine
  8
Y Stage
 62
256
370
-1
  6
ByLayer
 10
-97.299999999999997
 20
-221.45000000000002
 30
0.0
 11
-97.299999999999955
 21
-243.44999999999999
 31
0.0
  0
ARC
  5
23C
100
AcDbEntity
  8
Y Stage
 62
256
370
-1
  6
ByLayer
100
AcDbCircle
 10
-96.799999999999997
 20
-221.45000000000002
 30
0.0
 40
0.5
100
AcDbArc
 50
90.0
 51
180.0
  0
INSERT
  5
23D
100
AcDbEntity
100
AcDbBlockReference
  8
Y Stage
 62
256
370
-1
  6
ByLayer
  2
tcutout
 10
-320.00000000000011
 20
-13.45000000000025
 30
0.0
 50
90.0
 44
1.0
 45
1.0
  0
INSERT
  5
23E
100
AcDbEntity
100
AcDbBlockReference
  8
Y Stage
 62
256
370
-1
  6
ByLayer
  2
tcutout
 10
179.99999999999983
 20
-13.450000000000147
 30
0.0
 50
90.0
 44
1.0
 45
1.0
  0
INSERT
  5
23F
100
AcDbEntity
100
AcDbBlockReference
  8
Y Stage
 62
256
370
-1
  6
ByLayer
  2
tcutout
 10
240.00000000000009
 20
-13.450000000000255
 30
0.0
 50
-90.0
 44
1.0
 45
1.0
  0
INSERT
  5
240
100
AcDbEntity
100
AcDbBlockReference
  8
Y Stage
 62
256
370
-1
  6
ByLayer
  2
tcutout
 10
-259.99999999999977
 20
-13.450000000000115
 30
0.0
 50
-90.0
 44
1.0
 45
1.0
  0
LINE
  5
241
100
AcDbEntity
100
AcDbLine
  8
Drawings
 62
256
370
-1
  6
ByLayer
 10
-320.00000000000006
 20
-152.19999999999959
 30
0.0
 11
-320.00000000000011
 21
4.0499999999997653
 31
0.0
  0
LINE
  5
242
100
AcDbEntity
100
AcDbLine
  8
Drawings
 62
256
370
-1
  6
ByLayer
 10
-259.99999999999983
 20
-152.19999999999962
 30
0.0
 11
-259.99999999999977
 21
4.0499999999998622
 31
0.0
  0
CIRCLE
  5
243
100
AcDbEntity
100
AcDbCircle
  8
Y Stage
 62
256
370
-1
  6
ByLayer
 10
-305.00000000000011
 20
-92.275000000000105
 30
0.0
 40
1.5
  0
CIRCLE
  5
244
100
AcDbEntity
100
AcDbCircle
  8
Y Stage
 62
256
370
-1
  6
ByLayer
 10
-274.99999999999983
 20
-92.275000000000105
 30
0.0
 40
1.5
  0
CIRCLE
  5
245
100
AcDbEntity
100
AcDbCircle
  8
Y Stage
 62
256
370
-1
  6
ByLayer
 10
-266.3499999999998
 20
-100.92500000000011
 30
0.0
 40
1.5
  0
CIRCLE
  5
246
100
AcDbEntity
100
AcDbCircle
  8
Y Stage
 62
256
370
-1
  6
ByLayer
 10
-313.65000000000009
 20
-100.9250000000001
 30
0.0
 40
1.5
  0
CIRCLE
  5
247
100
AcDbEntity
100
AcDbCircle
  8
Cap
 62
256
370
-1
  6
ByLayer
 10
-305.00000000000011
 20
-63.787500000000009
 30
0.0
 40
1.5
  0
CIRCLE
  5
248
100
AcDbEntity
100
AcDbCircle
  8
Cap
 62
256
370
-1
  6
ByLayer
 10
-274.99999999999989
 20
-63.787500000000009
 30
0.0
 40
1.5
  0
CIRCLE
  5
249
100
AcDbEntity
100
AcDbCircle
  8
Cap
 62
256
370
-1
  6
ByLayer
 10
-313.65000000000009
 20
-72.4375
 30
0.0
 40
1.5
  0
CIRCLE
  5
24A
100
AcDbEntity
100
AcDbCircle
  8
Cap
 62
256
370
-1
  6
ByLayer
 10
-266.34999999999985
 20
-72.437500000000014
 30
0.0
 40
1.5
  0
ARC
  5
24B
100
AcDbEntity
  8
Cap
 62
256
370
-1
  6
ByLayer
100
AcDbCircle
 10
-317.00000000000011
 20
-60.212500000000006
 30
0.0
 40
2.5
100
AcDbArc
 50
90.0
 51
180.0
  0
ARC
  5
24C
100
AcDbEntity
  8
Cap
 62
256
370
-1
  6
ByLayer
100
AcDbCircle
 10
-262.99999999999989
 20
-60.212499999999999
 30
0.0
 40
2.5
100
AcDbArc
 50
0.0
 51
90.0
  0
LINE
  5
24D
100
AcDbEntity
100
AcDbLine
  8
Cap
 62
256
370
-1
  6
ByLayer
 10
-319.50000000000011
 20
-73.287499999999937
 30
0.0
 11
-319.50000000000011
 21
-60.21250000000002
 31
0.0
  0
ARC
  5
24E
100
AcDbEntity
  8
Cap
 62
256
370
-1
  6
ByLayer
100
AcDbCircle
 10
-314.50000000000011
 20
-73.287499999999937
 30
0.0
 40
5.0
100
AcDbArc
 50
180.0
 51
314.99999999999994
  0
LINE
  5
24F
100
AcDbEntity
100
AcDbLine
  8
Cap
 62
256
370
-1
  6
ByLayer
 10
-317.00000000000011
 20
-57.712500000000006
 30
0.0
 11
-303.92500000000018
 21
-57.712500000000006
 31
0.0
  0
LINE
  5
250
100
AcDbEntity
100
AcDbLine
  8
Cap
 62
256
370
-1
  6
ByLayer
 10
-300.38946609406742
 20
-66.248033905932743
 30
0.0
 11
-310.96446609406735
 21
-76.823033905932675
 31
0.0
  0
LINE
  5
251
100
AcDbEntity
100
AcDbLine
  8
Cap
 62
256
370
-1
  6
ByLayer
 10
-276.07499999999987
 20
-57.712500000000006
 30
0.0
 11
-262.99999999999989
 21
-57.712499999999999
 31
0.0
  0
ARC
  5
252
100
AcDbEntity
  8
Cap
 62
256
370
-1
  6
ByLayer
100
AcDbCircle
 10
-276.07499999999987
 20
-62.712500000000006
 30
0.0
 40
5.0
100
AcDbArc
 50
90.0
 51
225.0
  0
LINE
  5
253
100
AcDbEntity
100
AcDbLine
  8
Cap
 62
256
370
-1
  6
ByLayer
 10
-279.61053390593258
 20
-66.248033905932743
 30
0.0
 11
-269.0355339059326
 21
-76.823033905932746
 31
0.0
  0
LINE
  5
254
100
AcDbEntity
100
AcDbLine
  8
Cap
 62
256
370
-1
  6
ByLayer
 10
-260.49999999999989
 20
-60.212500000000013
 30
0.0
 11
-260.49999999999989
 21
-73.287500000000023
 31
0.0
  0
ARC
  5
255
100
AcDbEntity
  8
Cap
 62
256
370
-1
  6
ByLayer
100
AcDbCircle
 10
-265.49999999999989
 20
-73.287499999999994
 30
0.0
 40
5.0
100
AcDbArc
 50
225.00000000000006
 51
0.0
  0
ARC
  5
256
100
AcDbEntity
  8
Cap
 62
256
370
-1
  6
ByLayer
100
AcDbCircle
 10
-303.92500000000018
 20
-62.712500000000006
 30
0.0
 40
5.0
100
AcDbArc
 50
315.0
 51
90.0
  0
INSERT
  5
257
100
AcDbEntity
100
AcDbBlockReference
  8
Y Stage
 62
256
370
-1
  6
ByLayer
  2
tgrips
 10
-289.99999999999977
 20
-84.700000000000088
 30
0.0
 44
1.0
 45
1.0
  0
CIRCLE
  5
258
100
AcDbEntity
100
AcDbCircle
  8
Y Stage
 62
256
370
-1
  6
ByLayer
 10
-266.3499999999998
 20
-92.275000000000105
 30
0.0
 40
3.1000000000000001
  0
CIRCLE
  5
259
100
AcDbEntity
100
AcDbCircle
  8
Y Stage
 62
256
370
-1
  6
ByLayer
 10
-313.65000000000009
 20
-92.275000000000105
 30
0.0
 40
3.1000000000000001
  0
INSERT
  5
25A
100
AcDbEntity
100
AcDbBlockReference
  8
Y Stage
 62
256
370
-1
  6
ByLayer
  2
tgrips
 10
-127.29999999999995
 20
-84.700000000000088
 30
0.0
 44
1.0
 45
1.0
  0
LINE
  5
25B
100
AcDbEntity
100
AcDbLine
  8
Y Stage
 62
256
370
-1
  6
ByLayer
 10
-142.29999999999995
 20
-84.700000000000088
 30
0.0
 11
-142.29999999999995
 21
-119.1999999999999
 31
0.0
  0
CIRCLE
  5
25C
100
AcDbEntity
100
AcDbCircle
  8
Y Stage
 62
256
370
-1
  6
ByLayer
 10
225.00000000000009
 20
-92.274999999999977
 30
0.0
 40
1.5
  0
CIRCLE
  5
25D
100
AcDbEntity
100
AcDbCircle
  8
Y Stage
 62
256
370
-1
  6
ByLayer
 10
194.99999999999983
 20
-92.274999999999849
 30
0.0
 40
1.5
  0
CIRCLE
  5
25E
100
AcDbEntity
100
AcDbCircle
  8
Y Stage
 62
256
370
-1
  6
ByLayer
 10
186.34999999999982
 20
-100.92500000000024
 30
0.0
 40
1.5
  0
CIRCLE
  5
25F
100
AcDbEntity
100
AcDbCircle
  8
Y Stage
 62
256
370
-1
  6
ByLayer
 10
233.65000000000009
 20
-100.92499999999991
 30
0.0
 40
1.5
  0
LINE
  5
260
100
AcDbEntity
100
AcDbLine
  8
Drawings
 62
256
370
-1
  6
ByLayer
 10
209.9999999999998
 20
-84.700000000000202
 30
0.0
 11
210.00000000000009
 21
-152.19999999999965
 31
0.0
  0
CIRCLE
  5
261
100
AcDbEntity
100
AcDbCircle
  8
Cap
 62
256
370
-1
  6
ByLayer
 10
194.99999999999989
 20
-63.787500000000009
 30
0.0
 40
1.5
  0
CIRCLE
  5
262
100
AcDbEntity
100
AcDbCircle
  8
Cap
 62
256
370
-1
  6
ByLayer
 10
225.00000000000014
 20
-63.787500000000009
 30
0.0
 40
1.5
  0
CIRCLE
  5
263
100
AcDbEntity
100
AcDbCircle
  8
Cap
 62
256
370
-1
  6
ByLayer
 10
186.34999999999988
 20
-72.4375
 30
0.0
 40
1.5
  0
CIRCLE
  5
264
100
AcDbEntity
100
AcDbCircle
  8
Cap
 62
256
370
-1
  6
ByLayer
 10
233.65000000000015
 20
-72.437500000000014
 30
0.0
 40
1.5
  0
ARC
  5
265
100
AcDbEntity
  8
Cap
 62
256
370
-1
  6
ByLayer
100
AcDbCircle
 10
182.99999999999989
 20
-60.212500000000006
 30
0.0
 40
2.5
100
AcDbArc
 50
90.0
 51
180.0
  0
ARC
  5
266
100
AcDbEntity
  8
Cap
 62
256
370
-1
  6
ByLayer
100
AcDbCircle
 10
237.00000000000014
 20
-60.212499999999999
 30
0.0
 40
2.5
100
AcDbArc
 50
0.0
 51
90.0
  0
LINE
  5
267
100
AcDbEntity
100
AcDbLine
  8
Cap
 62
256
370
-1
  6
ByLayer
 10
180.49999999999989
 20
-73.287499999999937
 30
0.0
 11
180.49999999999989
 21
-60.21250000000002
 31
0.0
  0
ARC
  5
268
100
AcDbEntity
  8
Cap
 62
256
370
-1
  6
ByLayer
100
AcDbCircle
 10
185.49999999999989
 20
-73.287499999999937
 30
0.0
 40
5.0
100
AcDbArc
 50
180.0
 51
314.99999999999994
  0
LINE
  5
269
100
AcDbEntity
100
AcDbLine
  8
Cap
 62
256
370
-1
  6
ByLayer
 10
182.99999999999989
 20
-57.712500000000006
 30
0.0
 11
196.07499999999985
 21
-57.712500000000006
 31
0.0
  0
LINE
  5
26A
100
AcDbEntity
100
AcDbLine
  8
Cap
 62
256
370
-1
  6
ByLayer
 10
199.61053390593258
 20
-66.248033905932743
 30
0.0
 11
189.03553390593262
 21
-76.823033905932675
 31
0.0
  0
LINE
  5
26B
100
AcDbEntity
100
AcDbLine
  8
Cap
 62
256
370
-1
  6
ByLayer
 10
223.92500000000013
 20
-57.712500000000006
 30
0.0
 11
237.00000000000014
 21
-57.712499999999999
 31
0.0
  0
ARC
  5
26C
100
AcDbEntity
  8
Cap
 62
256
370
-1
  6
ByLayer
100
AcDbCircle
 10
223.92500000000013
 20
-62.712500000000006
 30
0.0
 40
5.0
100
AcDbArc
 50
90.0
 51
225.0
  0
LINE
  5
26D
100
AcDbEntity
100
AcDbLine
  8
Cap
 62
256
370
-1
  6
ByLayer
 10
220.38946609406739
 20
-66.248033905932743
 30
0.0
 11
230.9644660940674
 21
-76.823033905932746
 31
0.0
  0
LINE
  5
26E
100
AcDbEntity
100
AcDbLine
  8
Cap
 62
256
370
-1
  6
ByLayer
 10
239.50000000000014
 20
-60.212500000000013
 30
0.0
 11
239.50000000000014
 21
-73.287500000000023
 31
0.0
  0
ARC
  5
26F
100
AcDbEntity
  8
Cap
 62
256
370
-1
  6
ByLayer
100
AcDbCircle
 10
234.50000000000014
 20
-73.287499999999994
 30
0.0
 40
5.0
100
AcDbArc
 50
225.00000000000006
 51
0.0
  0
ARC
  5
270
100
AcDbEntity
  8
Cap
 62
256
370
-1
  6
ByLayer
100
AcDbCircle
 10
196.07499999999985
 20
-62.712500000000006
 30
0.0
 40
5.0
100
AcDbArc
 50
315.0
 51
90.0
  0
INSERT
  5
271
100
AcDbEntity
100
AcDbBlockReference
  8
Y Stage
 62
256
370
-1
  6
ByLayer
  2
tgrips
 10
209.9999999999998
 20
-84.700000000000202
 30
0.0
 44
1.0
 45
1.0
  0
CIRCLE
  5
272
100
AcDbEntity
100
AcDbCircle
  8
Y Stage
 62
256
370
-1
  6
ByLayer
 10
186.34999999999982
 20
-92.274999999999963
 30
0.0
 40
3.1000000000000001
  0
CIRCLE
  5
273
100
AcDbEntity
100
AcDbCircle
  8
Y Stage
 62
256
370
-1
  6
ByLayer
 10
233.65000000000012
 20
-92.275000000000006
 30
0.0
 40
3.1000000000000001
  0
INSERT
  5
274
100
AcDbEntity
100
AcDbBlockReference
  8
Y Stage
 62
256
370
-1
  6
ByLayer
  2
tgrips
 10
102.70000000000005
 20
-84.699999999999648
 30
0.0
 44
1.0
 45
1.0
  0
LINE
  5
275
100
AcDbEntity
100
AcDbLine
  8
Y Stage
 62
256
370
-1
  6
ByLayer
 10
117.70000000000005
 20
-84.699999999999648
 30
0.0
 11
117.69999999999999
 21
-119.20000000000016
 31
0.0
  0
LINE
  5
276
100
AcDbEntity
100
AcDbLine
  8
Y Stage
 62
256
370
-1
  6
ByLayer
 10
87.700000000000045
 20
107.19999999999978
 30
0.0
 11
87.700000000000045
 21
84.699999999999775
 31
0.0
  0
LINE
  5
277
100
AcDbEntity
100
AcDbLine
  8
Y Stage
 62
256
370
-1
  6
ByLayer
 10
-112.30000000000001
 20
107.19999999999992
 30
0.0
 11
-112.29999999999995
 21
84.700000000000102
 31
0.0
  0
INSERT
  5
278
100
AcDbEntity
100
AcDbBlockReference
  8
Y Stage
 62
256
370
-1
  6
ByLayer
  2
tgrips
 10
102.70000000000002
 20
84.699999999999719
 30
0.0
 50
180.0
 44
1.0
 45
1.0
  0
INSERT
  5
279
100
AcDbEntity
100
AcDbBlockReference
  8
Y Stage
 62
256
370
-1
  6
ByLayer
  2
tgrips
 10
-127.29999999999998
 20
84.700000000000102
 30
0.0
 50
180.0
 44
1.0
 45
1.0
  0
LINE
  5
27A
100
AcDbEntity
100
AcDbLine
  8
Y Stage
 62
256
370
-1
  6
ByLayer
 10
117.69999999999999
 20
119.20000000000024
 30
0.0
 11
117.70000000000002
 21
84.699999999999719
 31
0.0
  0
LINE
  5
27B
100
AcDbEntity
100
AcDbLine
  8
Y Stage
 62
256
370
-1
  6
ByLayer
 10
-142.29999999999995
 20
119.1999999999999
 30
0.0
 11
-142.29999999999998
 21
84.700000000000102
 31
0.0
  0
ARC
  5
27C
100
AcDbEntity
  8
Y Stage
 62
256
370
-1
  6
ByLayer
100
AcDbCircle
 10
-322.00000000000011
 20
-30.450000000000255
 30
0.0
 40
2.5
100
AcDbArc
 50
180.0
 51
270.0
  0
LINE
  5
27D
100
AcDbEntity
100
AcDbLine
  8
Y Stage
 62
256
370
-1
  6
ByLayer
 10
-322.00000000000011
 20
-32.950000000000252
 30
0.0
 11
-257.99999999999977
 21
-32.950000000000259
 31
0.0
  0
ARC
  5
27E
100
AcDbEntity
  8
Y Stage
 62
256
370
-1
  6
ByLayer
100
AcDbCircle
 10
-257.99999999999977
 20
-30.450000000000259
 30
0.0
 40
2.5
100
AcDbArc
 50
270.0
 51
360.0
  0
LINE
  5
27F
100
AcDbEntity
100
AcDbLine
  8
Y Stage
 62
256
370
-1
  6
ByLayer
 10
-255.49999999999977
 20
1.5499999999998346
 30
0.0
 11
-255.49999999999977
 21
-30.450000000000262
 31
0.0
  0
ARC
  5
280
100
AcDbEntity
  8
Y Stage
 62
256
370
-1
  6
ByLayer
100
AcDbCircle
 10
-257.99999999999977
 20
1.5499999999998344
 30
0.0
 40
2.5
100
AcDbArc
 50
0.0
 51
90.0
  0
LINE
  5
281
100
AcDbEntity
100
AcDbLine
  8
Y Stage
 62
256
370
-1
  6
ByLayer
 10
-257.99999999999977
 20
4.0499999999998346
 30
0.0
 11
-322.00000000000011
 21
4.0499999999997627
 31
0.0
  0
LINE
  5
282
100
AcDbEntity
100
AcDbLine
  8
Y Stage
 62
256
370
-1
  6
ByLayer
 10
-324.50000000000011
 20
1.5499999999997627
 30
0.0
 11
-324.50000000000011
 21
-30.450000000000248
 31
0.0
  0
ARC
  5
283
100
AcDbEntity
  8
Y Stage
 62
256
370
-1
  6
ByLayer
100
AcDbCircle
 10
-322.00000000000011
 20
1.5499999999997629
 30
0.0
 40
2.5
100
AcDbArc
 50
90.0
 51
180.0
  0
ARC
  5
284
100
AcDbEntity
  8
Y Stage
 62
256
370
-1
  6
ByLayer
100
AcDbCircle
 10
177.99999999999983
 20
-30.450000000000212
 30
0.0
 40
2.5
100
AcDbArc
 50
180.0
 51
270.0
  0
LINE
  5
285
100
AcDbEntity
100
AcDbLine
  8
Y Stage
 62
256
370
-1
  6
ByLayer
 10
175.49999999999983
 20
1.549999999999855
 30
0.0
 11
175.49999999999983
 21
-30.450000000000212
 31
0.0
  0
ARC
  5
286
100
AcDbEntity
  8
Y Stage
 62
256
370
-1
  6
ByLayer
100
AcDbCircle
 10
177.99999999999983
 20
1.5499999999998513
 30
0.0
 40
2.5
100
AcDbArc
 50
90.0
 51
180.0
  0
LINE
  5
287
100
AcDbEntity
100
AcDbLine
  8
Y Stage
 62
256
370
-1
  6
ByLayer
 10
177.99999999999983
 20
4.0499999999998515
 30
0.0
 11
242.00000000000006
 21
4.0499999999997733
 31
0.0
  0
ARC
  5
288
100
AcDbEntity
  8
Y Stage
 62
256
370
-1
  6
ByLayer
100
AcDbCircle
 10
242.00000000000006
 20
1.5499999999997729
 30
0.0
 40
2.5
100
AcDbArc
 50
0.0
 51
90.0
  0
LINE
  5
289
100
AcDbEntity
100
AcDbLine
  8
Y Stage
 62
256
370
-1
  6
ByLayer
 10
244.50000000000009
 20
1.5499999999997733
 30
0.0
 11
244.50000000000009
 21
-30.450000000000223
 31
0.0
  0
LINE
  5
28A
100
AcDbEntity
100
AcDbLine
  8
Y Stage
 62
256
370
-1
  6
ByLayer
 10
177.99999999999983
 20
-32.950000000000216
 30
0.0
 11
242.00000000000011
 21
-32.950000000000223
 31
0.0
  0
ARC
  5
28B
100
AcDbEntity
  8
Y Stage
 62
256
370
-1
  6
ByLayer
100
AcDbCircle
 10
242.00000000000009
 20
-30.450000000000223
 30
0.0
 40
2.5
100
AcDbArc
 50
270.00000000000068
 51
0.0
  0
ARC
  5
28C
100
AcDbEntity
  8
Y Stage
 62
256
370
-1
  6
ByLayer
100
AcDbCircle
 10
-325.00000000000023
 20
-149.69999999999965
 30
0.0
 40
2.5
100
AcDbArc
 50
180.0
 51
270.0
  0
LINE
  5
28D
100
AcDbEntity
100
AcDbLine
  8
Y Stage
 62
256
370
-1
  6
ByLayer
 10
-325.00000000000023
 20
-152.19999999999965
 30
0.0
 11
-254.99999999999994
 21
-152.1999999999997
 31
0.0
  0
ARC
  5
28E
100
AcDbEntity
  8
Y Stage
 62
256
370
-1
  6
ByLayer
100
AcDbCircle
 10
-254.99999999999994
 20
-149.6999999999997
 30
0.0
 40
2.5
100
AcDbArc
 50
270.0
 51
0.0
  0
ARC
  5
28F
100
AcDbEntity
  8
Y Stage
 62
256
370
-1
  6
ByLayer
100
AcDbCircle
 10
245.0000000000002
 20
-149.69999999999959
 30
0.0
 40
2.5
100
AcDbArc
 50
270.0
 51
0.0
  0
LINE
  5
290
100
AcDbEntity
100
AcDbLine
  8
Y Stage
 62
256
370
-1
  6
ByLayer
 10
245.0000000000002
 20
-152.19999999999959
 30
0.0
 11
174.99999999999994
 21
-152.1999999999997
 31
0.0
  0
ARC
  5
291
100
AcDbEntity
  8
Y Stage
 62
256
370
-1
  6
ByLayer
100
AcDbCircle
 10
174.99999999999994
 20
-149.6999999999997
 30
0.0
 40
2.5
100
AcDbArc
 50
180.0
 51
270.0
  0
LINE
  5
292
100
AcDbEntity
100
AcDbLine
  8
Y Stage
 62
256
370
-1
  6
ByLayer
 10
87.700000000000045
 20
-104.69999999999993
 30
0.0
 11
87.700000000000045
 21
-84.699999999999648
 31
0.0
  0
ARC
  5
293
100
AcDbEntity
  8
Y Stage
 62
256
370
-1
  6
ByLayer
100
AcDbCircle
 10
85.200000000000045
 20
-104.69999999999993
 30
0.0
 40
2.5
100
AcDbArc
 50
270.0
 51
0.0
  0
LINE
  5
294
100
AcDbEntity
100
AcDbLine
  8
Y Stage
 62
256
370
-1
  6
ByLayer
 10
-109.80000000000001
 20
-107.19999999999992
 30
0.0
 11
85.200000000000045
 21
-107.19999999999993
 31
0.0
  0
LINE
  5
295
100
AcDbEntity
100
AcDbLine
  8
Y Stage
 62
256
370
-1
  6
ByLayer
 10
-112.30000000000001
 20
-104.69999999999992
 30
0.0
 11
-112.29999999999995
 21
-84.70000000000006
 31
0.0
  0
ARC
  5
296
100
AcDbEntity
  8
Y Stage
 62
256
370
-1
  6
ByLayer
100
AcDbCircle
 10
-109.80000000000001
 20
-104.69999999999992
 30
0.0
 40
2.5
100
AcDbArc
 50
180.0
 51
270.0
  0
ARC
  5
297
100
AcDbEntity
  8
Y Stage
 62
256
370
-1
  6
ByLayer
100
AcDbCircle
 10
185.49999999999983
 20
-120.20000000000002
 30
0.0
 40
3.0
100
AcDbArc
 50
90.000000000001094
 51
180.0
  0
LINE
  5
298
100
AcDbEntity
100
AcDbLine
  8
Y Stage
 62
256
370
-1
  6
ByLayer
 10
185.49999999999977
 20
-117.20000000000002
 30
0.0
 11
234.50000000000009
 21
-117.20000000000006
 31
0.0
  0
ARC
  5
299
100
AcDbEntity
  8
Y Stage
 62
256
370
-1
  6
ByLayer
100
AcDbCircle
 10
234.50000000000009
 20
-120.20000000000006
 30
0.0
 40
3.0
100
AcDbArc
 50
0.0
 51
90.0
  0
LINE
  5
29A
100
AcDbEntity
100
AcDbLine
  8
Y Stage
 62
256
370
-1
  6
ByLayer
 10
237.50000000000009
 20
-139.19999999999985
 30
0.0
 11
237.50000000000009
 21
-120.20000000000006
 31
0.0
  0
ARC
  5
29B
100
AcDbEntity
  8
Y Stage
 62
256
370
-1
  6
ByLayer
100
AcDbCircle
 10
234.50000000000009
 20
-139.19999999999985
 30
0.0
 40
3.0
100
AcDbArc
 50
270.00000000000051
 51
0.0
  0
LINE
  5
29C
100
AcDbEntity
100
AcDbLine
  8
Y Stage
 62
256
370
-1
  6
ByLayer
 10
185.49999999999989
 20
-142.19999999999985
 30
0.0
 11
234.50000000000011
 21
-142.19999999999985
 31
0.0
  0
LINE
  5
29D
100
AcDbEntity
100
AcDbLine
  8
Y Stage
 62
256
370
-1
  6
ByLayer
 10
182.49999999999983
 20
-139.19999999999985
 30
0.0
 11
182.49999999999983
 21
-120.20000000000002
 31
0.0
  0
ARC
  5
29E
100
AcDbEntity
  8
Y Stage
 62
256
370
-1
  6
ByLayer
100
AcDbCircle
 10
185.49999999999983
 20
-139.19999999999985
 30
0.0
 40
3.0
100
AcDbArc
 50
180.0
 51
270.00000000000108
  0
LINE
  5
29F
100
AcDbEntity
100
AcDbLine
  8
Y Stage
 62
256
370
-1
  6
ByLayer
 10
-274.99999999999977
 20
-84.700000000000088
 30
0.0
 11
-254.9999999999998
 21
-84.700000000000088
 31
0.0
  0
LINE
  5
2A0
100
AcDbEntity
100
AcDbLine
  8
Y Stage
 62
256
370
-1
  6
ByLayer
 10
-252.4999999999998
 20
-87.200000000000088
 30
0.0
 11
-252.49999999999994
 21
-149.6999999999997
 31
0.0
  0
ARC
  5
2A1
100
AcDbEntity
  8
Y Stage
 62
256
370
-1
  6
ByLayer
100
AcDbCircle
 10
-254.9999999999998
 20
-87.200000000000088
 30
0.0
 40
2.5
100
AcDbArc
 50
0.0
 51
90.0
  0
LINE
  5
2A2
100
AcDbEntity
100
AcDbLine
  8
Y Stage
 62
256
370
-1
  6
ByLayer
 10
-324.99999999999977
 20
-84.700000000000088
 30
0.0
 11
-304.99999999999977
 21
-84.700000000000088
 31
0.0
  0
LINE
  5
2A3
100
AcDbEntity
100
AcDbLine
  8
Y Stage
 62
256
370
-1
  6
ByLayer
 10
-327.49999999999977
 20
-87.200000000000074
 30
0.0
 11
-327.50000000000023
 21
-149.69999999999965
 31
0.0
  0
ARC
  5
2A4
100
AcDbEntity
  8
Y Stage
 62
256
370
-1
  6
ByLayer
100
AcDbCircle
 10
-324.99999999999977
 20
-87.200000000000088
 30
0.0
 40
2.5
100
AcDbArc
 50
90.0
 51
180.0
  0
LINE
  5
2A5
100
AcDbEntity
100
AcDbLine
  8
Y Stage
 62
256
370
-1
  6
ByLayer
 10
172.4999999999998
 20
-87.200000000000173
 30
0.0
 11
172.49999999999994
 21
-149.6999999999997
 31
0.0
  0
LINE
  5
2A6
100
AcDbEntity
100
AcDbLine
  8
Y Stage
 62
256
370
-1
  6
ByLayer
 10
174.9999999999998
 20
-84.700000000000173
 30
0.0
 11
194.9999999999998
 21
-84.700000000000202
 31
0.0
  0
ARC
  5
2A7
100
AcDbEntity
  8
Y Stage
 62
256
370
-1
  6
ByLayer
100
AcDbCircle
 10
174.9999999999998
 20
-87.200000000000173
 30
0.0
 40
2.5
100
AcDbArc
 50
90.0
 51
180.0
  0
LINE
  5
2A8
100
AcDbEntity
100
AcDbLine
  8
Y Stage
 62
256
370
-1
  6
ByLayer
 10
224.9999999999998
 20
-84.700000000000202
 30
0.0
 11
244.99999999999983
 21
-84.70000000000023
 31
0.0
  0
LINE
  5
2A9
100
AcDbEntity
100
AcDbLine
  8
Y Stage
 62
256
370
-1
  6
ByLayer
 10
247.49999999999983
 20
-87.200000000000216
 30
0.0
 11
247.5000000000002
 21
-149.69999999999959
 31
0.0
  0
ARC
  5
2AA
100
AcDbEntity
  8
Y Stage
 62
256
370
-1
  6
ByLayer
100
AcDbCircle
 10
244.99999999999983
 20
-87.20000000000023
 30
0.0
 40
2.5
100
AcDbArc
 50
0.0
 51
90.0
  0
ENDSEC
  0
SECTION
  2
OBJECTS
  0
DICTIONARY
  5
C
100
AcDbDictionary
280
0
281
1
  3
ACAD_GROUP
350
D
  3
ACAD_LAYOUT
350
1A
  3
ACAD_MLINESTYLE
350
17
  3
ACAD_PLOTSETTINGS
350
19
  3
ACAD_PLOTSTYLENAME
350
E
  3
AcDbVariableDictionary
350
2AB
  0
DICTIONARY
  5
D
100
AcDbDictionary
280
0
281
1
  0
ACDBDICTIONARYWDFLT
  5
E
100
AcDbDictionary
281
1
  3
Normal
350
F
100
AcDbDictionaryWithDefault
340
F
  0
ACDBPLACEHOLDER
  5
F
  0
DICTIONARY
  5
17
100
AcDbDictionary
280
0
281
1
  3
Standard
350
18
  0
MLINESTYLE
  5
18
100
AcDbMlineStyle
  2
STANDARD
 70
0
  3

 62
256
 51
90.0
 52
90.0
 71
2
 49
0.5
 62
256
  6
BYLAYER
 49
-0.5
 62
256
  6
BYLAYER
  0
DICTIONARY
  5
19
100
AcDbDictionary
280
0
281
1
  0
DICTIONARY
  5
1A
100
AcDbDictionary
281
1
  3
Layout1
350
1E
  3
Layout2
350
26
  3
Model
350
22
  0
LAYOUT
  5
1E
100
AcDbPlotSettings
  1

  2
C:\Program Files\AutoCAD 2002\plotters\DWF ePlot (optimized for plotting).pc3
  4

  6

 40
0.0
 41
0.0
 42
0.0
 43
0.0
 44
0.0
 45
0.0
 46
0.0
 47
0.0
 48
0.0
 49
0.0
140
0.0
141
0.0
142
1.0
143
1.0
 70
688
 72
0
 73
0
 74
5
  7

 75
16
147
1.0
148
0.0
149
0.0
100
AcDbLayout
  1
Layout1
 70
1
 71
1
 10
0.0
 20
0.0
 11
420.0
 21
297.0
 12
0.0
 22
0.0
 32
0.0
 14
100000000000000000000.0
 24
100000000000000000000.0
 34
100000000000000000000.0
 15
-100000000000000000000.0
 25
-100000000000000000000.0
 35
-100000000000000000000.0
146
0.0
 13
0.0
 23
0.0
 33
0.0
 16
1.0
 26
0.0
 36
0.0
 17
0.0
 27
1.0
 37
0.0
 76
0
330
1B
  0
LAYOUT
  5
22
100
AcDbPlotSettings
  1

  2
C:\Program Files\AutoCAD 2002\plotters\DWF ePlot (optimized for plotting).pc3
  4

  6

 40
0.0
 41
0.0
 42
0.0
 43
0.0
 44
0.0
 45
0.0
 46
0.0
 47
0.0
 48
0.0
 49
0.0
140
0.0
141
0.0
142
1.0
143
1.0
 70
1712
 72
0
 73
0
 74
0
  7

 75
0
147
1.0
148
0.0
149
0.0
100
AcDbLayout
  1
Model
 70
1
 71
0
 10
0.0
 20
0.0
 11
12.0
 21
9.0
 12
0.0
 22
0.0
 32
0.0
 14
0.0
 24
0.0
 34
0.0
 15
0.0
 25
0.0
 35
0.0
146
0.0
 13
0.0
 23
0.0
 33
0.0
 16
1.0
 26
0.0
 36
0.0
 17
0.0
 27
1.0
 37
0.0
 76
0
330
1F
  0
LAYOUT
  5
26
100
AcDbPlotSettings
  1

  2
C:\Program Files\AutoCAD 2002\plotters\DWF ePlot (optimized for plotting).pc3
  4

  6

 40
0.0
 41
0.0
 42
0.0
 43
0.0
 44
0.0
 45
0.0
 46
0.0
 47
0.0
 48
0.0
 49
0.0
140
0.0
141
0.0
142
1.0
143
1.0
 70
688
 72
0
 73
0
 74
5
  7

 75
16
147
1.0
148
0.0
149
0.0
100
AcDbLayout
  1
Layout2
 70
1
 71
2
 10
0.0
 20
0.0
 11
12.0
 21
9.0
 12
0.0
 22
0.0
 32
0.0
 14
0.0
 24
0.0
 34
0.0
 15
0.0
 25
0.0
 35
0.0
146
0.0
 13
0.0
 23
0.0
 33
0.0
 16
1.0
 26
0.0
 36
0.0
 17
0.0
 27
1.0
 37
0.0
 76
0
330
23
  0
DICTIONARY
  5
2AB
100
AcDbDictionary
281
1
  3
DIMASSOC
350
2AD
  3
HIDETEXT
350
2AC
  0
DICTIONARYVAR
  5
2AC
100
DictionaryVariables
280
0
  1
2
  0
DICTIONARYVAR
  5
2AD
100
DictionaryVariables
280
0
  1
1
  0
ENDSEC
  0
EOF
