999
dxflib 2.2.0.0
  0
SECTION
  2
HEADER
  9
$ACADVER
  1
AC1015
  9
$HANDSEED
  5
FFFF
  9
$DIMASZ
 40
2.5
  9
$PLIMMIN
 10
0.0
 20
0.0
  9
$DIMEXE
 40
1.25
  9
$DIMGAP
 40
0.625
  9
$PLIMMAX
 10
210.0
 20
297.0
  9
$INSUNITS
 70
4
  9
$DIMEXO
 40
0.625
  9
$DIMTXT
 40
2.5
  9
$CLAYER
  8
NEMA17 - Side
  0
ENDSEC
  0
SECTION
  2
TABLES
  0
TABLE
  2
VPORT
  5
8
100
AcDbSymbolTable
 70
1
  0
VPORT
  5
30
100
AcDbSymbolTableRecord
100
AcDbViewportTableRecord
  2
*Active
 70
0
 10
0.0
 20
0.0
 11
1.0
 21
1.0
 12
286.3055555555554861
 22
148.5
 13
0.0
 23
0.0
 14
10.0
 24
10.0
 15
10.0
 25
10.0
 16
0.0
 26
0.0
 36
1.0
 17
0.0
 27
0.0
 37
0.0
 40
297.0
 41
1.92798353909465
 42
50.0
 43
0.0
 44
0.0
 50
0.0
 51
0.0
 71
0
 72
100
 73
1
 74
3
 75
1
 76
1
 77
0
 78
0
281
0
 65
1
110
0.0
120
0.0
130
0.0
111
1.0
121
0.0
131
0.0
112
0.0
122
1.0
132
0.0
 79
0
146
0.0
  0
ENDTAB
  0
TABLE
  2
LTYPE
  5
5
100
AcDbSymbolTable
 70
21
  0
LTYPE
  5
14
100
AcDbSymbolTableRecord
100
AcDbLinetypeTableRecord
  2
ByBlock
 70
0
  3

 72
65
 73
0
 40
0.0
  0
LTYPE
  5
15
100
AcDbSymbolTableRecord
100
AcDbLinetypeTableRecord
  2
ByLayer
 70
0
  3

 72
65
 73
0
 40
0.0
  0
LTYPE
  5
16
100
AcDbSymbolTableRecord
100
AcDbLinetypeTableRecord
  2
CONTINUOUS
 70
0
  3
Solid line
 72
65
 73
0
 40
0.0
  0
LTYPE
  5
31
100
AcDbSymbolTableRecord
100
AcDbLinetypeTableRecord
  2
DOT
 70
0
  3
Dot . . . . . . . . . . . . . . . . . . . . . .
 72
65
 73
2
 40
6.3499999999999996
 49
0.0
 74
0
 49
-6.3499999999999996
 74
0
  0
LTYPE
  5
32
100
AcDbSymbolTableRecord
100
AcDbLinetypeTableRecord
  2
DOT2
 70
0
  3
Dot (.5x) .....................................
 72
65
 73
2
 40
3.1749999999999998
 49
0.0
 74
0
 49
-3.1749999999999998
 74
0
  0
LTYPE
  5
33
100
AcDbSymbolTableRecord
100
AcDbLinetypeTableRecord
  2
DOTX2
 70
0
  3
Dot (2x) .  .  .  .  .  .  .  .  .  .  .  .  .
 72
65
 73
2
 40
12.6999999999999993
 49
0.0
 74
0
 49
-12.6999999999999993
 74
0
  0
LTYPE
  5
34
100
AcDbSymbolTableRecord
100
AcDbLinetypeTableRecord
  2
DASHED
 70
0
  3
Dashed __ __ __ __ __ __ __ __ __ __ __ __ __ _
 72
65
 73
2
 40
19.0500000000000007
 49
12.6999999999999993
 74
0
 49
-6.3499999999999996
 74
0
  0
LTYPE
  5
35
100
AcDbSymbolTableRecord
100
AcDbLinetypeTableRecord
  2
DASHED2
 70
0
  3
Dashed (.5x) _ _ _ _ _ _ _ _ _ _ _ _ _ _ _ _ _
 72
65
 73
2
 40
9.5250000000000004
 49
6.3499999999999996
 74
0
 49
-3.1749999999999998
 74
0
  0
LTYPE
  5
36
100
AcDbSymbolTableRecord
100
AcDbLinetypeTableRecord
  2
DASHEDX2
 70
0
  3
Dashed (2x) ____  ____  ____  ____  ____  ___
 72
65
 73
2
 40
38.1000000000000014
 49
25.3999999999999986
 74
0
 49
-12.6999999999999993
 74
0
  0
LTYPE
  5
37
100
AcDbSymbolTableRecord
100
AcDbLinetypeTableRecord
  2
DASHDOT
 70
0
  3
Dash dot __ . __ . __ . __ . __ . __ . __ . __
 72
65
 73
4
 40
25.3999999999999986
 49
12.6999999999999993
 74
0
 49
-6.3499999999999996
 74
0
 49
0.0
 74
0
 49
-6.3499999999999996
 74
0
  0
LTYPE
  5
38
100
AcDbSymbolTableRecord
100
AcDbLinetypeTableRecord
  2
DASHDOT2
 70
0
  3
Dash dot (.5x) _._._._._._._._._._._._._._._.
 72
65
 73
4
 40
12.6999999999999993
 49
6.3499999999999996
 74
0
 49
-3.1749999999999998
 74
0
 49
0.0
 74
0
 49
-3.1749999999999998
 74
0
  0
LTYPE
  5
39
100
AcDbSymbolTableRecord
100
AcDbLinetypeTableRecord
  2
DASHDOTX2
 70
0
  3
Dash dot (2x) ____  .  ____  .  ____  .  ___
 72
65
 73
4
 40
50.7999999999999972
 49
25.3999999999999986
 74
0
 49
-12.6999999999999993
 74
0
 49
0.0
 74
0
 49
-12.6999999999999993
 74
0
  0
LTYPE
  5
3A
100
AcDbSymbolTableRecord
100
AcDbLinetypeTableRecord
  2
DIVIDE
 70
0
  3
Divide ____ . . ____ . . ____ . . ____ . . ____
 72
65
 73
6
 40
31.75
 49
12.6999999999999993
 74
0
 49
-6.3499999999999996
 74
0
 49
0.0
 74
0
 49
-6.3499999999999996
 74
0
 49
0.0
 74
0
 49
-6.3499999999999996
 74
0
  0
LTYPE
  5
3B
100
AcDbSymbolTableRecord
100
AcDbLinetypeTableRecord
  2
DIVIDE2
 70
0
  3
Divide (.5x) __..__..__..__..__..__..__..__.._
 72
65
 73
6
 40
15.875
 49
6.3499999999999996
 74
0
 49
-3.1749999999999998
 74
0
 49
0.0
 74
0
 49
-3.1749999999999998
 74
0
 49
0.0
 74
0
 49
-3.1749999999999998
 74
0
  0
LTYPE
  5
3C
100
AcDbSymbolTableRecord
100
AcDbLinetypeTableRecord
  2
DIVIDEX2
 70
0
  3
Divide (2x) ________  .  .  ________  .  .  _
 72
65
 73
6
 40
63.5
 49
25.3999999999999986
 74
0
 49
-12.6999999999999993
 74
0
 49
0.0
 74
0
 49
-12.6999999999999993
 74
0
 49
0.0
 74
0
 49
-12.6999999999999993
 74
0
  0
LTYPE
  5
3D
100
AcDbSymbolTableRecord
100
AcDbLinetypeTableRecord
  2
CENTER
 70
0
  3
Center ____ _ ____ _ ____ _ ____ _ ____ _ ____
 72
65
 73
4
 40
50.7999999999999972
 49
31.75
 74
0
 49
-6.3499999999999996
 74
0
 49
6.3499999999999996
 74
0
 49
-6.3499999999999996
 74
0
  0
LTYPE
  5
3E
100
AcDbSymbolTableRecord
100
AcDbLinetypeTableRecord
  2
CENTER2
 70
0
  3
Center (.5x) ___ _ ___ _ ___ _ ___ _ ___ _ ___
 72
65
 73
4
 40
28.5749999999999993
 49
19.0500000000000007
 74
0
 49
-3.1749999999999998
 74
0
 49
3.1749999999999998
 74
0
 49
-3.1749999999999998
 74
0
  0
LTYPE
  5
3F
100
AcDbSymbolTableRecord
100
AcDbLinetypeTableRecord
  2
CENTERX2
 70
0
  3
Center (2x) ________  __  ________  __  _____
 72
65
 73
4
 40
101.5999999999999943
 49
63.5
 74
0
 49
-12.6999999999999993
 74
0
 49
12.6999999999999993
 74
0
 49
-12.6999999999999993
 74
0
  0
LTYPE
  5
40
100
AcDbSymbolTableRecord
100
AcDbLinetypeTableRecord
  2
BORDER
 70
0
  3
Border __ __ . __ __ . __ __ . __ __ . __ __ .
 72
65
 73
6
 40
44.4500000000000028
 49
12.6999999999999993
 74
0
 49
-6.3499999999999996
 74
0
 49
12.6999999999999993
 74
0
 49
-6.3499999999999996
 74
0
 49
0.0
 74
0
 49
-6.3499999999999996
 74
0
  0
LTYPE
  5
41
100
AcDbSymbolTableRecord
100
AcDbLinetypeTableRecord
  2
BORDER2
 70
0
  3
Border (.5x) __.__.__.__.__.__.__.__.__.__.__.
 72
65
 73
6
 40
22.2250000000000014
 49
6.3499999999999996
 74
0
 49
-3.1749999999999998
 74
0
 49
6.3499999999999996
 74
0
 49
-3.1749999999999998
 74
0
 49
0.0
 74
0
 49
-3.1749999999999998
 74
0
  0
LTYPE
  5
42
100
AcDbSymbolTableRecord
100
AcDbLinetypeTableRecord
  2
BORDERX2
 70
0
  3
Border (2x) ____  ____  .  ____  ____  .  ___
 72
65
 73
6
 40
88.9000000000000057
 49
25.3999999999999986
 74
0
 49
-12.6999999999999993
 74
0
 49
25.3999999999999986
 74
0
 49
-12.6999999999999993
 74
0
 49
0.0
 74
0
 49
-12.6999999999999993
 74
0
  0
ENDTAB
  0
TABLE
  2
LAYER
  5
2
100
AcDbSymbolTable
 70
7
  0
LAYER
  5
10
100
AcDbSymbolTableRecord
100
AcDbLayerTableRecord
  2
0
 70
0
 62
7
420
0
  6
CONTINUOUS
370
25
390
F
  0
LAYER
  5
43
100
AcDbSymbolTableRecord
100
AcDbLayerTableRecord
  2
01 Back
 70
0
 62
7
420
0
  6
CONTINUOUS
370
0
390
F
  0
LAYER
  5
44
100
AcDbSymbolTableRecord
100
AcDbLayerTableRecord
  2
02 Front
 70
0
 62
7
420
0
  6
CONTINUOUS
370
0
390
F
  0
LAYER
  5
45
100
AcDbSymbolTableRecord
100
AcDbLayerTableRecord
  2
inner-clamp
 70
0
 62
7
420
0
  6
CONTINUOUS
370
0
390
F
  0
LAYER
  5
46
100
AcDbSymbolTableRecord
100
AcDbLayerTableRecord
  2
03 Rib
 70
0
 62
7
420
0
  6
CONTINUOUS
370
0
390
F
  0
LAYER
  5
47
100
AcDbSymbolTableRecord
100
AcDbLayerTableRecord
  2
Drawings
 70
0
 62
5
420
255
  6
CONTINUOUS
370
0
390
F
  0
LAYER
  5
48
100
AcDbSymbolTableRecord
100
AcDbLayerTableRecord
  2
NEMA17 - Side
 70
0
 62
7
420
0
  6
CONTINUOUS
370
0
390
F
  0
ENDTAB
  0
TABLE
  2
STYLE
  5
3
100
AcDbSymbolTable
 70
1
  0
STYLE
  5
11
100
AcDbSymbolTableRecord
100
AcDbTextStyleTableRecord
  2
Standard
 70
0
 40
0.0
 41
0.75
 50
0.0
 71
0
 42
2.5
  3
txt
  4

  0
ENDTAB
  0
TABLE
  2
VIEW
  5
6
100
AcDbSymbolTable
 70
0
  0
ENDTAB
  0
TABLE
  2
UCS
  5
7
100
AcDbSymbolTable
 70
0
  0
ENDTAB
  0
TABLE
  2
APPID
  5
9
100
AcDbSymbolTable
 70
1
  0
APPID
  5
12
100
AcDbSymbolTableRecord
100
AcDbRegAppTableRecord
  2
ACAD
 70
0
  0
ENDTAB
  0
TABLE
  2
DIMSTYLE
  5
A
100
AcDbSymbolTable
 70
1
100
AcDbDimStyleTable
 71
0
  0
DIMSTYLE
105
27
100
AcDbSymbolTableRecord
100
AcDbDimStyleTableRecord
  2
Standard
 41
2.5
 42
0.625
 43
3.75
 44
1.25
 70
0
 73
0
 74
0
 77
1
 78
8
140
2.5
141
2.5
143
0.03937007874016
147
0.625
171
3
172
1
271
2
272
2
274
3
278
44
283
0
284
8
340
11
  0
ENDTAB
  0
TABLE
  2
BLOCK_RECORD
  5
1
100
AcDbSymbolTable
 70
1
  0
BLOCK_RECORD
  5
1F
100
AcDbSymbolTableRecord
100
AcDbBlockTableRecord
  2
*Model_Space
340
22
  0
BLOCK_RECORD
  5
1B
100
AcDbSymbolTableRecord
100
AcDbBlockTableRecord
  2
*Paper_Space
340
1E
  0
BLOCK_RECORD
  5
23
100
AcDbSymbolTableRecord
100
AcDbBlockTableRecord
  2
*Paper_Space0
340
26
  0
BLOCK_RECORD
  5
49
100
AcDbSymbolTableRecord
100
AcDbBlockTableRecord
  2
m3-t-slot
340
0
  0
BLOCK_RECORD
  5
4A
100
AcDbSymbolTableRecord
100
AcDbBlockTableRecord
  2
magnet_hole
340
0
  0
BLOCK_RECORD
  5
4B
100
AcDbSymbolTableRecord
100
AcDbBlockTableRecord
  2
m3-t-modified
340
0
  0
ENDTAB
  0
ENDSEC
  0
SECTION
  2
BLOCKS
  0
BLOCK
  5
20
100
AcDbEntity
  8
0
100
AcDbBlockBegin
  2
*Model_Space
 70
0
 10
0.0
 20
0.0
 30
0.0
  3
*Model_Space
  1

  0
ENDBLK
  5
21
100
AcDbEntity
  8
0
100
AcDbBlockEnd
  0
BLOCK
  5
1C
100
AcDbEntity
 67
1
  8
0
100
AcDbBlockBegin
  2
*Paper_Space
 70
0
 10
0.0
 20
0.0
 30
0.0
  3
*Paper_Space
  1

  0
ENDBLK
  5
1D
100
AcDbEntity
 67
1
  8
0
100
AcDbBlockEnd
  0
BLOCK
  5
24
100
AcDbEntity
  8
0
100
AcDbBlockBegin
  2
*Paper_Space0
 70
0
 10
0.0
 20
0.0
 30
0.0
  3
*Paper_Space0
  1

  0
ENDBLK
  5
25
100
AcDbEntity
  8
0
100
AcDbBlockEnd
  0
BLOCK
  5
4C
100
AcDbEntity
  8
0
100
AcDbBlockBegin
  2
m3-t-slot
 70
0
 10
0.0
 20
0.0
 30
0.0
  3
m3-t-slot
  1

  0
LINE
  5
4D
100
AcDbEntity
100
AcDbLine
  8
0
 62
256
370
-1
  6
ByLayer
 10
-1.4999999999999947
 20
11.5
 30
0.0
 11
1.5000000000000104
 21
11.5
 31
0.0
  0
LINE
  5
4E
100
AcDbEntity
100
AcDbLine
  8
0
 62
256
370
-1
  6
ByLayer
 10
-2.8599999999999945
 20
6.2799999999999976
 30
0.0
 11
-2.8599999999999945
 21
8.5499999999999989
 31
0.0
  0
LINE
  5
4F
100
AcDbEntity
100
AcDbLine
  8
0
 62
256
370
-1
  6
ByLayer
 10
2.859999999999999
 20
8.5499999999999972
 30
0.0
 11
2.8599999999999963
 21
6.2799999999999976
 31
0.0
  0
LINE
  5
50
100
AcDbEntity
100
AcDbLine
  8
0
 62
256
370
-1
  6
ByLayer
 10
-2.8599999999999945
 20
8.5499999999999989
 30
0.0
 11
-1.4999999999999969
 21
8.5500000000000007
 31
0.0
  0
LINE
  5
51
100
AcDbEntity
100
AcDbLine
  8
0
 62
256
370
-1
  6
ByLayer
 10
-1.4999999999999969
 20
8.5500000000000007
 30
0.0
 11
-1.4999999999999947
 21
11.5
 31
0.0
  0
LINE
  5
52
100
AcDbEntity
100
AcDbLine
  8
0
 62
256
370
-1
  6
ByLayer
 10
1.5000000000000071
 20
8.5499999999999989
 30
0.0
 11
2.859999999999999
 21
8.5499999999999972
 31
0.0
  0
LINE
  5
53
100
AcDbEntity
100
AcDbLine
  8
0
 62
256
370
-1
  6
ByLayer
 10
1.5000000000000104
 20
11.5
 30
0.0
 11
1.5000000000000071
 21
8.5499999999999989
 31
0.0
  0
LINE
  5
54
100
AcDbEntity
100
AcDbLine
  8
0
 62
256
370
-1
  6
ByLayer
 10
1.5000000000000033
 20
6.2799999999999958
 30
0.0
 11
1.4999999999999978
 21
-0.0000000000000009
 31
0.0
  0
LINE
  5
55
100
AcDbEntity
100
AcDbLine
  8
0
 62
256
370
-1
  6
ByLayer
 10
2.8599999999999963
 20
6.2799999999999976
 30
0.0
 11
1.5000000000000033
 21
6.2799999999999958
 31
0.0
  0
LINE
  5
56
100
AcDbEntity
100
AcDbLine
  8
0
 62
256
370
-1
  6
ByLayer
 10
-1.5000000000000029
 20
6.2800000000000011
 30
0.0
 11
-2.8599999999999945
 21
6.2799999999999976
 31
0.0
  0
LINE
  5
57
100
AcDbEntity
100
AcDbLine
  8
0
 62
256
370
-1
  6
ByLayer
 10
-1.4999999999999978
 20
0.0000000000000009
 30
0.0
 11
-1.5000000000000029
 21
6.2800000000000011
 31
0.0
  0
ENDBLK
  5
58
100
AcDbEntity
  8
0
100
AcDbBlockEnd
  0
BLOCK
  5
59
100
AcDbEntity
  8
0
100
AcDbBlockBegin
  2
magnet_hole
 70
0
 10
0.0
 20
0.0
 30
0.0
  3
magnet_hole
  1

  0
LINE
  5
5A
100
AcDbEntity
100
AcDbLine
  8
0
 62
256
370
-1
  6
ByLayer
 10
-1.3699999999999677
 20
1.3699999999999968
 30
0.0
 11
-1.3699999999999681
 21
-1.3699999999999966
 31
0.0
  0
LINE
  5
5B
100
AcDbEntity
100
AcDbLine
  8
0
 62
256
370
-1
  6
ByLayer
 10
1.3699999999999679
 20
1.3699999999999968
 30
0.0
 11
-1.3699999999999677
 21
1.3699999999999968
 31
0.0
  0
LINE
  5
5C
100
AcDbEntity
100
AcDbLine
  8
0
 62
256
370
-1
  6
ByLayer
 10
-1.3699999999999681
 20
-1.3699999999999966
 30
0.0
 11
1.3699999999999686
 21
-1.3699999999999963
 31
0.0
  0
LINE
  5
5D
100
AcDbEntity
100
AcDbLine
  8
0
 62
256
370
-1
  6
ByLayer
 10
1.3699999999999686
 20
-1.3699999999999963
 30
0.0
 11
1.3699999999999679
 21
1.3699999999999968
 31
0.0
  0
ENDBLK
  5
5E
100
AcDbEntity
  8
0
100
AcDbBlockEnd
  0
BLOCK
  5
5F
100
AcDbEntity
  8
0
100
AcDbBlockBegin
  2
m3-t-modified
 70
0
 10
0.0
 20
0.0
 30
0.0
  3
m3-t-modified
  1

  0
LINE
  5
60
100
AcDbEntity
100
AcDbLine
  8
0
 62
256
370
-1
  6
ByLayer
 10
-1.4999999999999911
 20
11.5
 30
0.0
 11
1.5000000000000147
 21
11.5
 31
0.0
  0
LINE
  5
61
100
AcDbEntity
100
AcDbLine
  8
0
 62
256
370
-1
  6
ByLayer
 10
-2.8599999999999905
 20
3.2799999999999994
 30
0.0
 11
-2.8599999999999905
 21
5.5500000000000007
 31
0.0
  0
LINE
  5
62
100
AcDbEntity
100
AcDbLine
  8
0
 62
256
370
-1
  6
ByLayer
 10
2.860000000000003
 20
5.5499999999999972
 30
0.0
 11
2.8600000000000003
 21
3.2799999999999976
 31
0.0
  0
LINE
  5
63
100
AcDbEntity
100
AcDbLine
  8
0
 62
256
370
-1
  6
ByLayer
 10
-1.4999999999999982
 20
3.2800000000000011
 30
0.0
 11
-2.8599999999999905
 21
3.2799999999999994
 31
0.0
  0
LINE
  5
64
100
AcDbEntity
100
AcDbLine
  8
0
 62
256
370
-1
  6
ByLayer
 10
-1.4999999999999971
 20
0.0000000000000022
 30
0.0
 11
-1.4999999999999982
 21
3.2800000000000011
 31
0.0
  0
LINE
  5
65
100
AcDbEntity
100
AcDbLine
  8
0
 62
256
370
-1
  6
ByLayer
 10
2.8600000000000003
 20
3.2799999999999976
 30
0.0
 11
1.5000000000000022
 21
3.2799999999999958
 31
0.0
  0
LINE
  5
66
100
AcDbEntity
100
AcDbLine
  8
0
 62
256
370
-1
  6
ByLayer
 10
1.5000000000000022
 20
3.2799999999999958
 30
0.0
 11
1.4999999999999971
 21
-0.0000000000000022
 31
0.0
  0
LINE
  5
67
100
AcDbEntity
100
AcDbLine
  8
0
 62
256
370
-1
  6
ByLayer
 10
1.5000000000000147
 20
11.5
 30
0.0
 11
1.5000000000000067
 21
5.5499999999999989
 31
0.0
  0
LINE
  5
68
100
AcDbEntity
100
AcDbLine
  8
0
 62
256
370
-1
  6
ByLayer
 10
1.5000000000000067
 20
5.5499999999999989
 30
0.0
 11
2.860000000000003
 21
5.5499999999999972
 31
0.0
  0
LINE
  5
69
100
AcDbEntity
100
AcDbLine
  8
0
 62
256
370
-1
  6
ByLayer
 10
-2.8599999999999905
 20
5.5500000000000007
 30
0.0
 11
-1.4999999999999953
 21
5.5500000000000007
 31
0.0
  0
LINE
  5
6A
100
AcDbEntity
100
AcDbLine
  8
0
 62
256
370
-1
  6
ByLayer
 10
-1.4999999999999953
 20
5.5500000000000007
 30
0.0
 11
-1.4999999999999911
 21
11.5
 31
0.0
  0
ENDBLK
  5
6B
100
AcDbEntity
  8
0
100
AcDbBlockEnd
  0
ENDSEC
  0
SECTION
  2
ENTITIES
  0
ARC
  5
6C
100
AcDbEntity
  8
01 Back
 62
256
370
-1
  6
ByLayer
100
AcDbCircle
 10
224.5
 20
90.8599999999999568
 30
0.0
 40
8.0
100
AcDbArc
 50
270.0
 51
0.0
  0
LINE
  5
6D
100
AcDbEntity
100
AcDbLine
  8
01 Back
 62
256
370
-1
  6
ByLayer
 10
190.5
 20
82.859999999999971
 30
0.0
 11
190.5
 21
92.6599999999999682
 31
0.0
  0
LINE
  5
6E
100
AcDbEntity
100
AcDbLine
  8
01 Back
 62
256
370
-1
  6
ByLayer
 10
190.5
 20
92.6599999999999682
 30
0.0
 11
203.5
 21
92.6599999999999682
 31
0.0
  0
LINE
  5
6F
100
AcDbEntity
100
AcDbLine
  8
01 Back
 62
256
370
-1
  6
ByLayer
 10
203.5
 20
92.6599999999999682
 30
0.0
 11
203.5
 21
82.859999999999971
 31
0.0
  0
LINE
  5
70
100
AcDbEntity
100
AcDbLine
  8
01 Back
 62
256
370
-1
  6
ByLayer
 10
218.3000000000000114
 20
82.859999999999971
 30
0.0
 11
224.5
 21
82.8599999999999568
 31
0.0
  0
LINE
  5
71
100
AcDbEntity
100
AcDbLine
  8
01 Back
 62
256
370
-1
  6
ByLayer
 10
218.3000000000000114
 20
90.8599999999999568
 30
0.0
 11
218.3000000000000114
 21
82.859999999999971
 31
0.0
  0
LINE
  5
72
100
AcDbEntity
100
AcDbLine
  8
01 Back
 62
256
370
-1
  6
ByLayer
 10
203.5
 20
82.859999999999971
 30
0.0
 11
216.1999999999999886
 21
82.8599999999999426
 31
0.0
  0
LINE
  5
73
100
AcDbEntity
100
AcDbLine
  8
01 Back
 62
256
370
-1
  6
ByLayer
 10
216.1999999999999886
 20
82.8599999999999426
 30
0.0
 11
216.2000000000000171
 21
90.8599999999999568
 31
0.0
  0
LINE
  5
74
100
AcDbEntity
100
AcDbLine
  8
01 Back
 62
256
370
-1
  6
ByLayer
 10
216.2000000000000171
 20
90.8599999999999568
 30
0.0
 11
218.3000000000000114
 21
90.8599999999999568
 31
0.0
  0
ARC
  5
75
100
AcDbEntity
  8
01 Back
 62
256
370
-1
  6
ByLayer
100
AcDbCircle
 10
224.5
 20
97.739999999999938
 30
0.0
 40
10.0
100
AcDbArc
 50
323.1301023541560085
 51
36.8698976458440129
  0
LINE
  5
76
100
AcDbEntity
100
AcDbLine
  8
01 Back
 62
256
370
-1
  6
ByLayer
 10
232.5
 20
90.859999999999971
 30
0.0
 11
232.5
 21
91.7399999999999523
 31
0.0
  0
INSERT
  5
77
100
AcDbEntity
100
AcDbBlockReference
  8
01 Back
 62
256
370
-1
  6
ByLayer
  2
m3-t-slot
 10
195.5
 20
112.1399999999999579
 30
0.0
 50
180.0
 44
1.0
 45
1.0
  0
LINE
  5
78
100
AcDbEntity
100
AcDbLine
  8
01 Back
 62
256
370
-1
  6
ByLayer
 10
189.5
 20
112.1399999999999579
 30
0.0
 11
194.0
 21
112.1399999999999579
 31
0.0
  0
LINE
  5
79
100
AcDbEntity
100
AcDbLine
  8
01 Back
 62
256
370
-1
  6
ByLayer
 10
197.0
 20
112.1399999999999579
 30
0.0
 11
219.5
 21
112.1399999999999579
 31
0.0
  0
LINE
  5
7A
100
AcDbEntity
100
AcDbLine
  8
01 Back
 62
256
370
-1
  6
ByLayer
 10
176.5
 20
112.1399999999999579
 30
0.0
 11
181.5
 21
112.1399999999999579
 31
0.0
  0
LINE
  5
7B
100
AcDbEntity
100
AcDbLine
  8
01 Back
 62
256
370
-1
  6
ByLayer
 10
232.5
 20
103.7399999999999523
 30
0.0
 11
232.5
 21
112.1399999999999721
 31
0.0
  0
LINE
  5
7C
100
AcDbEntity
100
AcDbLine
  8
01 Back
 62
256
370
-1
  6
ByLayer
 10
227.5
 20
112.1399999999999579
 30
0.0
 11
232.5
 21
112.1399999999999721
 31
0.0
  0
CIRCLE
  5
7D
100
AcDbEntity
100
AcDbCircle
  8
01 Back
 62
256
370
-1
  6
ByLayer
 10
208.5
 20
99.859999999999971
 30
0.0
 40
1.5
  0
LINE
  5
7E
100
AcDbEntity
100
AcDbLine
  8
01 Back
 62
256
370
-1
  6
ByLayer
 10
189.5
 20
117.1400000000000432
 30
0.0
 11
189.5
 21
112.1399999999999579
 31
0.0
  0
LINE
  5
7F
100
AcDbEntity
100
AcDbLine
  8
01 Back
 62
256
370
-1
  6
ByLayer
 10
181.5
 20
112.1399999999999579
 30
0.0
 11
181.5
 21
117.1400000000000432
 31
0.0
  0
LINE
  5
80
100
AcDbEntity
100
AcDbLine
  8
01 Back
 62
256
370
-1
  6
ByLayer
 10
227.5
 20
117.140000000000029
 30
0.0
 11
227.5
 21
112.1399999999999579
 31
0.0
  0
LINE
  5
81
100
AcDbEntity
100
AcDbLine
  8
01 Back
 62
256
370
-1
  6
ByLayer
 10
219.5
 20
112.1399999999999579
 30
0.0
 11
219.5
 21
117.1400000000000432
 31
0.0
  0
LINE
  5
82
100
AcDbEntity
100
AcDbLine
  8
01 Back
 62
256
370
-1
  6
ByLayer
 10
181.5
 20
117.1400000000000432
 30
0.0
 11
189.5
 21
117.1400000000000432
 31
0.0
  0
LINE
  5
83
100
AcDbEntity
100
AcDbLine
  8
01 Back
 62
256
370
-1
  6
ByLayer
 10
219.5
 20
117.1400000000000432
 30
0.0
 11
227.5
 21
117.140000000000029
 31
0.0
  0
CIRCLE
  5
84
100
AcDbEntity
100
AcDbCircle
  8
01 Back
 62
256
370
-1
  6
ByLayer
 10
184.5
 20
97.7399999999999523
 30
0.0
 40
4.7800000000000002
  0
CIRCLE
  5
85
100
AcDbEntity
100
AcDbCircle
  8
01 Back
 62
256
370
-1
  6
ByLayer
 10
224.5
 20
97.739999999999938
 30
0.0
 40
4.7800000000000002
  0
LINE
  5
86
100
AcDbEntity
100
AcDbLine
  8
01 Back
 62
256
370
-1
  6
ByLayer
 10
176.5
 20
112.1399999999999579
 30
0.0
 11
176.5
 21
82.859999999999971
 31
0.0
  0
LINE
  5
87
100
AcDbEntity
100
AcDbLine
  8
01 Back
 62
256
370
-1
  6
ByLayer
 10
176.5
 20
82.859999999999971
 30
0.0
 11
190.5
 21
82.859999999999971
 31
0.0
  0
LINE
  5
88
100
AcDbEntity
100
AcDbLine
  8
Drawings
 62
256
370
-1
  6
ByLayer
 10
208.5
 20
-52.5400000000000347
 30
0.0
 11
208.5000000000000284
 21
252.2599999999999909
 31
0.0
  0
CIRCLE
  5
89
100
AcDbEntity
100
AcDbCircle
  8
0
 62
256
370
-1
  6
ByLayer
 10
208.5000000000000284
 20
162.0491160780823634
 30
0.0
 40
1.5
  0
LINE
  5
8A
100
AcDbEntity
100
AcDbLine
  8
0
 62
256
370
-1
  6
ByLayer
 10
206.0000000000000284
 20
148.6491160780823861
 30
0.0
 11
206.0000000000000284
 21
156.6491160780823861
 31
0.0
  0
LINE
  5
8B
100
AcDbEntity
100
AcDbLine
  8
0
 62
256
370
-1
  6
ByLayer
 10
211.0000000000000284
 20
148.6491160780823577
 30
0.0
 11
206.0000000000000284
 21
148.6491160780823861
 31
0.0
  0
LINE
  5
8C
100
AcDbEntity
100
AcDbLine
  8
0
 62
256
370
-1
  6
ByLayer
 10
211.0000000000000284
 20
156.6491160780823861
 30
0.0
 11
211.0000000000000284
 21
148.6491160780823577
 31
0.0
  0
LINE
  5
8D
100
AcDbEntity
100
AcDbLine
  8
0
 62
256
370
-1
  6
ByLayer
 10
206.0000000000000284
 20
156.6491160780823861
 30
0.0
 11
211.0000000000000284
 21
156.6491160780823861
 31
0.0
  0
LINE
  5
8E
100
AcDbEntity
100
AcDbLine
  8
0
 62
256
370
-1
  6
ByLayer
 10
211.0000000000000284
 20
167.4491160780823691
 30
0.0
 11
206.0000000000000284
 21
167.4491160780823691
 31
0.0
  0
LINE
  5
8F
100
AcDbEntity
100
AcDbLine
  8
0
 62
256
370
-1
  6
ByLayer
 10
206.0000000000000284
 20
167.4491160780823691
 30
0.0
 11
206.0000000000000568
 21
175.4491160780823691
 31
0.0
  0
LINE
  5
90
100
AcDbEntity
100
AcDbLine
  8
0
 62
256
370
-1
  6
ByLayer
 10
206.0000000000000568
 20
175.4491160780823691
 30
0.0
 11
211.0000000000000284
 21
175.4491160780823691
 31
0.0
  0
LINE
  5
91
100
AcDbEntity
100
AcDbLine
  8
0
 62
256
370
-1
  6
ByLayer
 10
211.0000000000000284
 20
175.4491160780823691
 30
0.0
 11
211.0000000000000284
 21
167.4491160780823691
 31
0.0
  0
INSERT
  5
92
100
AcDbEntity
100
AcDbBlockReference
  8
0
 62
256
370
-1
  6
ByLayer
  2
magnet_hole
 10
227.5000000000000284
 20
167.4491160780823691
 30
0.0
 50
360.0
 44
1.0
 45
1.0
  0
INSERT
  5
93
100
AcDbEntity
100
AcDbBlockReference
  8
0
 62
256
370
-1
  6
ByLayer
  2
magnet_hole
 10
227.5000000000000284
 20
156.6491160780823577
 30
0.0
 50
360.0
 44
1.0
 45
1.0
  0
INSERT
  5
94
100
AcDbEntity
100
AcDbBlockReference
  8
0
 62
256
370
-1
  6
ByLayer
  2
magnet_hole
 10
195.5000000000000284
 20
162.0491160780823634
 30
0.0
 50
360.0
 44
1.0
 45
1.0
  0
INSERT
  5
95
100
AcDbEntity
100
AcDbBlockReference
  8
0
 62
256
370
-1
  6
ByLayer
  2
magnet_hole
 10
181.5000000000000284
 20
167.4491160780823691
 30
0.0
 50
360.0
 44
1.0
 45
1.0
  0
INSERT
  5
96
100
AcDbEntity
100
AcDbBlockReference
  8
0
 62
256
370
-1
  6
ByLayer
  2
magnet_hole
 10
181.5000000000000284
 20
156.6491160780824146
 30
0.0
 50
360.0
 44
1.0
 45
1.0
  0
CIRCLE
  5
97
100
AcDbEntity
100
AcDbCircle
  8
0
 62
256
370
-1
  6
ByLayer
 10
195.5000000000000284
 20
182.1491160780823861
 30
0.0
 40
1.5
  0
LINE
  5
98
100
AcDbEntity
100
AcDbLine
  8
0
 62
256
370
-1
  6
ByLayer
 10
181.5000000000000284
 20
179.6491160780823577
 30
0.0
 11
181.5000000000000284
 21
184.6491160780823861
 31
0.0
  0
LINE
  5
99
100
AcDbEntity
100
AcDbLine
  8
0
 62
256
370
-1
  6
ByLayer
 10
189.5000000000000284
 20
179.6491160780823861
 30
0.0
 11
181.5000000000000284
 21
179.6491160780823577
 31
0.0
  0
LINE
  5
9A
100
AcDbEntity
100
AcDbLine
  8
0
 62
256
370
-1
  6
ByLayer
 10
189.5000000000000284
 20
184.6491160780823861
 30
0.0
 11
189.5000000000000284
 21
179.6491160780823861
 31
0.0
  0
LINE
  5
9B
100
AcDbEntity
100
AcDbLine
  8
0
 62
256
370
-1
  6
ByLayer
 10
181.5000000000000284
 20
184.6491160780823861
 30
0.0
 11
189.5000000000000284
 21
184.6491160780823861
 31
0.0
  0
LINE
  5
9C
100
AcDbEntity
100
AcDbLine
  8
0
 62
256
370
-1
  6
ByLayer
 10
219.5000000000000284
 20
179.6491160780823577
 30
0.0
 11
219.5000000000000284
 21
184.6491160780823861
 31
0.0
  0
LINE
  5
9D
100
AcDbEntity
100
AcDbLine
  8
0
 62
256
370
-1
  6
ByLayer
 10
227.5000000000000284
 20
179.6491160780823577
 30
0.0
 11
219.5000000000000284
 21
179.6491160780823577
 31
0.0
  0
LINE
  5
9E
100
AcDbEntity
100
AcDbLine
  8
0
 62
256
370
-1
  6
ByLayer
 10
227.5000000000000284
 20
184.6491160780823861
 30
0.0
 11
227.5000000000000284
 21
179.6491160780823577
 31
0.0
  0
LINE
  5
9F
100
AcDbEntity
100
AcDbLine
  8
0
 62
256
370
-1
  6
ByLayer
 10
219.5000000000000284
 20
184.6491160780823861
 30
0.0
 11
227.5000000000000284
 21
184.6491160780823861
 31
0.0
  0
LINE
  5
A0
100
AcDbEntity
100
AcDbLine
  8
0
 62
256
370
-1
  6
ByLayer
 10
176.5000000000000284
 20
186.0491160780823634
 30
0.0
 11
232.5000000000000284
 21
186.0491160780823634
 31
0.0
  0
CIRCLE
  5
A1
100
AcDbEntity
100
AcDbCircle
  8
0
 62
256
370
-1
  6
ByLayer
 10
195.5000000000000284
 20
141.9491160780823691
 30
0.0
 40
1.5
  0
LINE
  5
A2
100
AcDbEntity
100
AcDbLine
  8
0
 62
256
370
-1
  6
ByLayer
 10
181.5
 20
139.4491160780823975
 30
0.0
 11
181.5000000000000284
 21
144.4491160780823975
 31
0.0
  0
LINE
  5
A3
100
AcDbEntity
100
AcDbLine
  8
0
 62
256
370
-1
  6
ByLayer
 10
189.5000000000000284
 20
139.4491160780823691
 30
0.0
 11
181.5
 21
139.4491160780823975
 31
0.0
  0
LINE
  5
A4
100
AcDbEntity
100
AcDbLine
  8
0
 62
256
370
-1
  6
ByLayer
 10
181.5000000000000284
 20
144.4491160780823975
 30
0.0
 11
189.5000000000000284
 21
144.4491160780823691
 31
0.0
  0
LINE
  5
A5
100
AcDbEntity
100
AcDbLine
  8
0
 62
256
370
-1
  6
ByLayer
 10
189.5000000000000284
 20
144.4491160780823691
 30
0.0
 11
189.5000000000000284
 21
139.4491160780823691
 31
0.0
  0
LINE
  5
A6
100
AcDbEntity
100
AcDbLine
  8
0
 62
256
370
-1
  6
ByLayer
 10
219.5000000000000284
 20
139.4491160780823691
 30
0.0
 11
219.5000000000000284
 21
144.4491160780823691
 31
0.0
  0
LINE
  5
A7
100
AcDbEntity
100
AcDbLine
  8
0
 62
256
370
-1
  6
ByLayer
 10
227.5
 20
139.4491160780823407
 30
0.0
 11
219.5000000000000284
 21
139.4491160780823691
 31
0.0
  0
LINE
  5
A8
100
AcDbEntity
100
AcDbLine
  8
0
 62
256
370
-1
  6
ByLayer
 10
219.5000000000000284
 20
144.4491160780823691
 30
0.0
 11
227.5000000000000284
 21
144.4491160780823407
 31
0.0
  0
LINE
  5
A9
100
AcDbEntity
100
AcDbLine
  8
0
 62
256
370
-1
  6
ByLayer
 10
227.5000000000000284
 20
144.4491160780823407
 30
0.0
 11
227.5
 21
139.4491160780823407
 31
0.0
  0
LINE
  5
AA
100
AcDbEntity
100
AcDbLine
  8
0
 62
256
370
-1
  6
ByLayer
 10
176.5000000000000284
 20
138.0491160780823634
 30
0.0
 11
176.5000000000000284
 21
186.0491160780823634
 31
0.0
  0
LINE
  5
AB
100
AcDbEntity
100
AcDbLine
  8
0
 62
256
370
-1
  6
ByLayer
 10
232.5000000000000284
 20
138.049116078082335
 30
0.0
 11
176.5000000000000284
 21
138.0491160780823634
 31
0.0
  0
LINE
  5
AC
100
AcDbEntity
100
AcDbLine
  8
0
 62
256
370
-1
  6
ByLayer
 10
232.5000000000000284
 20
186.0491160780823634
 30
0.0
 11
232.5000000000000284
 21
138.049116078082335
 31
0.0
  0
LINE
  5
AD
100
AcDbEntity
100
AcDbLine
  8
Drawings
 62
256
370
-1
  6
ByLayer
 10
195.5
 20
-40.2600000000000477
 30
0.0
 11
195.5000000000000284
 21
264.5399999999999636
 31
0.0
  0
ARC
  5
AE
100
AcDbEntity
  8
0
 62
256
370
-1
  6
ByLayer
100
AcDbCircle
 10
223.5
 20
40.875307724800976
 30
0.0
 40
8.0
100
AcDbArc
 50
270.0
 51
360.0
  0
LINE
  5
AF
100
AcDbEntity
100
AcDbLine
  8
0
 62
256
370
-1
  6
ByLayer
 10
189.5000000000000284
 20
32.8753077248009546
 30
0.0
 11
189.5000000000000284
 21
42.675307724800966
 31
0.0
  0
LINE
  5
B0
100
AcDbEntity
100
AcDbLine
  8
0
 62
256
370
-1
  6
ByLayer
 10
189.5000000000000284
 20
42.675307724800966
 30
0.0
 11
202.4999999999999716
 21
42.6753077248008736
 31
0.0
  0
LINE
  5
B1
100
AcDbEntity
100
AcDbLine
  8
0
 62
256
370
-1
  6
ByLayer
 10
202.4999999999999716
 20
42.6753077248008736
 30
0.0
 11
202.4999999999999716
 21
32.8753077248008907
 31
0.0
  0
LINE
  5
B2
100
AcDbEntity
100
AcDbLine
  8
0
 62
256
370
-1
  6
ByLayer
 10
217.2999999999999829
 20
32.8753077248008836
 30
0.0
 11
223.4999999999999716
 21
32.8753077248008978
 31
0.0
  0
LINE
  5
B3
100
AcDbEntity
100
AcDbLine
  8
0
 62
256
370
-1
  6
ByLayer
 10
217.3000000000000114
 20
40.875307724800912
 30
0.0
 11
217.2999999999999829
 21
32.8753077248008836
 31
0.0
  0
LINE
  5
B4
100
AcDbEntity
100
AcDbLine
  8
0
 62
256
370
-1
  6
ByLayer
 10
202.4999999999999716
 20
32.8753077248008907
 30
0.0
 11
215.2000000000000171
 21
32.8753077248009546
 31
0.0
  0
LINE
  5
B5
100
AcDbEntity
100
AcDbLine
  8
0
 62
256
370
-1
  6
ByLayer
 10
215.2000000000000171
 20
32.8753077248009546
 30
0.0
 11
215.2000000000000171
 21
40.8753077248009689
 31
0.0
  0
LINE
  5
B6
100
AcDbEntity
100
AcDbLine
  8
0
 62
256
370
-1
  6
ByLayer
 10
215.2000000000000171
 20
40.8753077248009689
 30
0.0
 11
217.3000000000000114
 21
40.875307724800912
 31
0.0
  0
ARC
  5
B7
100
AcDbEntity
  8
0
 62
256
370
-1
  6
ByLayer
100
AcDbCircle
 10
223.4999999999999716
 20
47.7553077248008933
 30
0.0
 40
10.0
100
AcDbArc
 50
323.1301023541560085
 51
36.8698976458439986
  0
LINE
  5
B8
100
AcDbEntity
100
AcDbLine
  8
0
 62
256
370
-1
  6
ByLayer
 10
231.4999999999999716
 20
40.875307724800912
 30
0.0
 11
231.5
 21
41.7553077248009714
 31
0.0
  0
INSERT
  5
B9
100
AcDbEntity
100
AcDbBlockReference
  8
0
 62
256
370
-1
  6
ByLayer
  2
m3-t-slot
 10
194.5
 20
62.1553077248008989
 30
0.0
 50
180.0
 44
1.0
 45
1.0
  0
LINE
  5
BA
100
AcDbEntity
100
AcDbLine
  8
0
 62
256
370
-1
  6
ByLayer
 10
188.5
 20
62.1553077248009629
 30
0.0
 11
193.0
 21
62.1553077248009345
 31
0.0
  0
LINE
  5
BB
100
AcDbEntity
100
AcDbLine
  8
0
 62
256
370
-1
  6
ByLayer
 10
195.9999999999999716
 20
62.1553077248008918
 30
0.0
 11
218.4999999999999716
 21
62.1553077248009131
 31
0.0
  0
LINE
  5
BC
100
AcDbEntity
100
AcDbLine
  8
0
 62
256
370
-1
  6
ByLayer
 10
231.4999999999999716
 20
53.7553077248009217
 30
0.0
 11
231.4999999999999716
 21
62.1553077248009131
 31
0.0
  0
LINE
  5
BD
100
AcDbEntity
100
AcDbLine
  8
0
 62
256
370
-1
  6
ByLayer
 10
226.4999999999999716
 20
62.1553077248009629
 30
0.0
 11
231.4999999999999716
 21
62.1553077248009131
 31
0.0
  0
LINE
  5
BE
100
AcDbEntity
100
AcDbLine
  8
0
 62
256
370
-1
  6
ByLayer
 10
175.5
 20
62.1553077248009345
 30
0.0
 11
180.5000000000000284
 21
62.1553077248008776
 31
0.0
  0
CIRCLE
  5
BF
100
AcDbEntity
100
AcDbCircle
  8
0
 62
256
370
-1
  6
ByLayer
 10
208.5
 20
49.8753077248009191
 30
0.0
 40
1.5
  0
LINE
  5
C0
100
AcDbEntity
100
AcDbLine
  8
0
 62
256
370
-1
  6
ByLayer
 10
188.5
 20
67.1553077248009345
 30
0.0
 11
188.5
 21
62.1553077248009629
 31
0.0
  0
LINE
  5
C1
100
AcDbEntity
100
AcDbLine
  8
0
 62
256
370
-1
  6
ByLayer
 10
218.4999999999999716
 20
62.1553077248009131
 30
0.0
 11
218.4999999999999716
 21
67.155307724800906
 31
0.0
  0
LINE
  5
C2
100
AcDbEntity
100
AcDbLine
  8
0
 62
256
370
-1
  6
ByLayer
 10
226.5
 20
67.1553077248009345
 30
0.0
 11
226.4999999999999716
 21
62.1553077248009629
 31
0.0
  0
LINE
  5
C3
100
AcDbEntity
100
AcDbLine
  8
0
 62
256
370
-1
  6
ByLayer
 10
180.5000000000000284
 20
62.1553077248008776
 30
0.0
 11
180.5000000000000284
 21
67.1553077248009629
 31
0.0
  0
LINE
  5
C4
100
AcDbEntity
100
AcDbLine
  8
0
 62
256
370
-1
  6
ByLayer
 10
226.5
 20
67.1553077248009345
 30
0.0
 11
218.4999999999999716
 21
67.155307724800906
 31
0.0
  0
LINE
  5
C5
100
AcDbEntity
100
AcDbLine
  8
0
 62
256
370
-1
  6
ByLayer
 10
188.5
 20
67.1553077248009345
 30
0.0
 11
180.5000000000000284
 21
67.1553077248009629
 31
0.0
  0
CIRCLE
  5
C6
100
AcDbEntity
100
AcDbCircle
  8
0
 62
256
370
-1
  6
ByLayer
 10
183.4999999999999716
 20
47.7553077248008648
 30
0.0
 40
4.7800000000000002
  0
CIRCLE
  5
C7
100
AcDbEntity
100
AcDbCircle
  8
0
 62
256
370
-1
  6
ByLayer
 10
223.4999999999999716
 20
47.7553077248008933
 30
0.0
 40
4.7800000000000002
  0
LINE
  5
C8
100
AcDbEntity
100
AcDbLine
  8
0
 62
256
370
-1
  6
ByLayer
 10
175.5
 20
62.1553077248009345
 30
0.0
 11
175.5
 21
32.8753077248009404
 31
0.0
  0
LINE
  5
C9
100
AcDbEntity
100
AcDbLine
  8
0
 62
256
370
-1
  6
ByLayer
 10
175.5
 20
32.8753077248009404
 30
0.0
 11
189.5000000000000284
 21
32.8753077248009546
 31
0.0
  0
LINE
  5
CA
100
AcDbEntity
100
AcDbLine
  8
Drawings
 62
256
370
-1
  6
ByLayer
 10
56.0999999999999943
 20
99.8599999999999852
 30
0.0
 11
360.8999999999999773
 21
99.8599999999999852
 31
0.0
  0
LINE
  5
CB
100
AcDbEntity
100
AcDbLine
  8
0
 62
256
370
-1
  6
ByLayer
 10
285.1500000000067416
 20
88.5294280699857836
 30
0.0
 11
286.0500000000067757
 21
88.5294280699857836
 31
0.0
  0
LINE
  5
CC
100
AcDbEntity
100
AcDbLine
  8
0
 62
256
370
-1
  6
ByLayer
 10
287.1500000000067985
 20
88.5294280699857836
 30
0.0
 11
288.0500000000067757
 21
88.5294280699857836
 31
0.0
  0
LINE
  5
CD
100
AcDbEntity
100
AcDbLine
  8
0
 62
256
370
-1
  6
ByLayer
 10
283.1500000000067985
 20
88.5294280699857836
 30
0.0
 11
284.0500000000067757
 21
88.5294280699857836
 31
0.0
  0
LINE
  5
CE
100
AcDbEntity
100
AcDbLine
  8
0
 62
256
370
-1
  6
ByLayer
 10
291.0000000000067644
 20
115.8094280699854437
 30
0.0
 11
287.1000000000067871
 21
115.8094280699855005
 31
0.0
  0
LINE
  5
CF
100
AcDbEntity
100
AcDbLine
  8
0
 62
256
370
-1
  6
ByLayer
 10
284.1000000000067871
 20
115.809428069985529
 30
0.0
 11
280.2000000000068098
 21
115.8094280699855858
 31
0.0
  0
LINE
  5
D0
100
AcDbEntity
100
AcDbLine
  8
0
 62
256
370
-1
  6
ByLayer
 10
289.1500000000067985
 20
88.5294280699857836
 30
0.0
 11
290.0500000000067757
 21
88.5294280699857836
 31
0.0
  0
LINE
  5
D1
100
AcDbEntity
100
AcDbLine
  8
0
 62
256
370
-1
  6
ByLayer
 10
281.1500000000067985
 20
88.5294280699857836
 30
0.0
 11
282.0500000000067757
 21
88.5294280699857836
 31
0.0
  0
CIRCLE
  5
D2
100
AcDbEntity
100
AcDbCircle
  8
0
 62
256
370
-1
  6
ByLayer
 10
285.6000000000067871
 20
99.8599999999999852
 30
0.0
 40
1.5
  0
LINE
  5
D3
100
AcDbEntity
100
AcDbLine
  8
0
 62
256
370
-1
  6
ByLayer
 10
291.1500000000067985
 20
88.5294280699857836
 30
0.0
 11
292.0500000000068326
 21
88.5294280699857836
 31
0.0
  0
LINE
  5
D4
100
AcDbEntity
100
AcDbLine
  8
0
 62
256
370
-1
  6
ByLayer
 10
279.1500000000067985
 20
88.5294280699857836
 30
0.0
 11
280.0500000000067757
 21
88.5294280699857836
 31
0.0
  0
LINE
  5
D5
100
AcDbEntity
100
AcDbLine
  8
0
 62
256
370
-1
  6
ByLayer
 10
292.0500000000068326
 20
88.5294280699857836
 30
0.0
 11
292.0500000000067757
 21
95.0294280699857552
 31
0.0
  0
LINE
  5
D6
100
AcDbEntity
100
AcDbLine
  8
0
 62
256
370
-1
  6
ByLayer
 10
291.1500000000067985
 20
95.0294280699857552
 30
0.0
 11
291.1500000000067985
 21
88.5294280699857836
 31
0.0
  0
LINE
  5
D7
100
AcDbEntity
100
AcDbLine
  8
0
 62
256
370
-1
  6
ByLayer
 10
290.0500000000067757
 20
88.5294280699857836
 30
0.0
 11
290.0500000000067757
 21
95.0294280699857552
 31
0.0
  0
LINE
  5
D8
100
AcDbEntity
100
AcDbLine
  8
0
 62
256
370
-1
  6
ByLayer
 10
289.1500000000067985
 20
95.0294280699857552
 30
0.0
 11
289.1500000000067985
 21
88.5294280699857836
 31
0.0
  0
LINE
  5
D9
100
AcDbEntity
100
AcDbLine
  8
0
 62
256
370
-1
  6
ByLayer
 10
288.0500000000067757
 20
88.5294280699857836
 30
0.0
 11
288.0500000000067757
 21
95.0294280699857552
 31
0.0
  0
LINE
  5
DA
100
AcDbEntity
100
AcDbLine
  8
0
 62
256
370
-1
  6
ByLayer
 10
287.1500000000067985
 20
95.0294280699857552
 30
0.0
 11
287.1500000000067985
 21
88.5294280699857836
 31
0.0
  0
LINE
  5
DB
100
AcDbEntity
100
AcDbLine
  8
0
 62
256
370
-1
  6
ByLayer
 10
286.0500000000067757
 20
88.5294280699857836
 30
0.0
 11
286.0500000000067757
 21
95.0294280699857552
 31
0.0
  0
LINE
  5
DC
100
AcDbEntity
100
AcDbLine
  8
0
 62
256
370
-1
  6
ByLayer
 10
285.1500000000067985
 20
95.0294280699857836
 30
0.0
 11
285.1500000000067416
 21
88.5294280699857836
 31
0.0
  0
LINE
  5
DD
100
AcDbEntity
100
AcDbLine
  8
0
 62
256
370
-1
  6
ByLayer
 10
284.0500000000067757
 20
88.5294280699857836
 30
0.0
 11
284.0500000000068326
 21
95.0294280699857836
 31
0.0
  0
LINE
  5
DE
100
AcDbEntity
100
AcDbLine
  8
0
 62
256
370
-1
  6
ByLayer
 10
283.1500000000067985
 20
95.0294280699857836
 30
0.0
 11
283.1500000000067985
 21
88.5294280699857836
 31
0.0
  0
LINE
  5
DF
100
AcDbEntity
100
AcDbLine
  8
0
 62
256
370
-1
  6
ByLayer
 10
282.0500000000067757
 20
88.5294280699857836
 30
0.0
 11
282.0500000000067757
 21
95.0294280699857836
 31
0.0
  0
LINE
  5
E0
100
AcDbEntity
100
AcDbLine
  8
0
 62
256
370
-1
  6
ByLayer
 10
281.1500000000067985
 20
95.0294280699857836
 30
0.0
 11
281.1500000000067985
 21
88.5294280699857836
 31
0.0
  0
LINE
  5
E1
100
AcDbEntity
100
AcDbLine
  8
0
 62
256
370
-1
  6
ByLayer
 10
280.0500000000067757
 20
88.5294280699857836
 30
0.0
 11
280.0500000000067757
 21
95.0294280699857836
 31
0.0
  0
LINE
  5
E2
100
AcDbEntity
100
AcDbLine
  8
0
 62
256
370
-1
  6
ByLayer
 10
279.1500000000067985
 20
95.0294280699857836
 30
0.0
 11
279.1500000000067985
 21
88.5294280699857836
 31
0.0
  0
LINE
  5
E3
100
AcDbEntity
100
AcDbLine
  8
0
 62
256
370
-1
  6
ByLayer
 10
292.0500000000067757
 20
95.0294280699857552
 30
0.0
 11
291.1500000000067985
 21
95.0294280699857552
 31
0.0
  0
LINE
  5
E4
100
AcDbEntity
100
AcDbLine
  8
0
 62
256
370
-1
  6
ByLayer
 10
290.0500000000067757
 20
95.0294280699857552
 30
0.0
 11
289.1500000000067985
 21
95.0294280699857552
 31
0.0
  0
LINE
  5
E5
100
AcDbEntity
100
AcDbLine
  8
0
 62
256
370
-1
  6
ByLayer
 10
288.0500000000067757
 20
95.0294280699857552
 30
0.0
 11
287.1500000000067985
 21
95.0294280699857552
 31
0.0
  0
LINE
  5
E6
100
AcDbEntity
100
AcDbLine
  8
0
 62
256
370
-1
  6
ByLayer
 10
286.0500000000067757
 20
95.0294280699857552
 30
0.0
 11
285.1500000000067985
 21
95.0294280699857836
 31
0.0
  0
LINE
  5
E7
100
AcDbEntity
100
AcDbLine
  8
0
 62
256
370
-1
  6
ByLayer
 10
284.0500000000068326
 20
95.0294280699857836
 30
0.0
 11
283.1500000000067985
 21
95.0294280699857836
 31
0.0
  0
LINE
  5
E8
100
AcDbEntity
100
AcDbLine
  8
0
 62
256
370
-1
  6
ByLayer
 10
282.0500000000067757
 20
95.0294280699857836
 30
0.0
 11
281.1500000000067985
 21
95.0294280699857836
 31
0.0
  0
LINE
  5
E9
100
AcDbEntity
100
AcDbLine
  8
0
 62
256
370
-1
  6
ByLayer
 10
280.0500000000067757
 20
95.0294280699857836
 30
0.0
 11
279.1500000000067985
 21
95.0294280699857836
 31
0.0
  0
INSERT
  5
EA
100
AcDbEntity
100
AcDbBlockReference
  8
0
 62
256
370
-1
  6
ByLayer
  2
m3-t-slot
 10
268.0000000000067644
 20
103.5294280699858405
 30
0.0
 50
270.0
 44
1.0
 45
1.0
  0
INSERT
  5
EB
100
AcDbEntity
100
AcDbBlockReference
  8
0
 62
256
370
-1
  6
ByLayer
  2
m3-t-slot
 10
303.2000000000068098
 20
103.5294280699858405
 30
0.0
 50
90.0
 44
1.0
 45
1.0
  0
LINE
  5
EC
100
AcDbEntity
100
AcDbLine
  8
0
 62
256
370
-1
  6
ByLayer
 10
303.200000000006753
 20
86.529428069985741
 30
0.0
 11
303.2000000000068098
 21
102.0294280699857552
 31
0.0
  0
LINE
  5
ED
100
AcDbEntity
100
AcDbLine
  8
0
 62
256
370
-1
  6
ByLayer
 10
268.0000000000067644
 20
102.0294280699857836
 30
0.0
 11
268.0000000000067644
 21
86.5294280699857836
 31
0.0
  0
LINE
  5
EE
100
AcDbEntity
100
AcDbLine
  8
0
 62
256
370
-1
  6
ByLayer
 10
268.0000000000067644
 20
86.5294280699857836
 30
0.0
 11
303.200000000006753
 21
86.529428069985741
 31
0.0
  0
LINE
  5
EF
100
AcDbEntity
100
AcDbLine
  8
0
 62
256
370
-1
  6
ByLayer
 10
291.0000000000067644
 20
120.8094280699854437
 30
0.0
 11
291.0000000000067644
 21
115.8094280699854437
 31
0.0
  0
LINE
  5
F0
100
AcDbEntity
100
AcDbLine
  8
0
 62
256
370
-1
  6
ByLayer
 10
280.2000000000068098
 20
115.8094280699855858
 30
0.0
 11
280.2000000000068098
 21
120.8094280699855858
 31
0.0
  0
LINE
  5
F1
100
AcDbEntity
100
AcDbLine
  8
0
 62
256
370
-1
  6
ByLayer
 10
277.1500000000067985
 20
88.5294280699857836
 30
0.0
 11
278.0500000000067757
 21
88.5294280699857836
 31
0.0
  0
LINE
  5
F2
100
AcDbEntity
100
AcDbLine
  8
0
 62
256
370
-1
  6
ByLayer
 10
275.1500000000067985
 20
88.5294280699857836
 30
0.0
 11
276.0500000000067757
 21
88.5294280699857836
 31
0.0
  0
LINE
  5
F3
100
AcDbEntity
100
AcDbLine
  8
0
 62
256
370
-1
  6
ByLayer
 10
278.0500000000067757
 20
88.5294280699857836
 30
0.0
 11
278.0500000000067757
 21
95.0294280699857836
 31
0.0
  0
LINE
  5
F4
100
AcDbEntity
100
AcDbLine
  8
0
 62
256
370
-1
  6
ByLayer
 10
277.1500000000067985
 20
95.0294280699857836
 30
0.0
 11
277.1500000000067985
 21
88.5294280699857836
 31
0.0
  0
LINE
  5
F5
100
AcDbEntity
100
AcDbLine
  8
0
 62
256
370
-1
  6
ByLayer
 10
276.0500000000067757
 20
88.5294280699857836
 30
0.0
 11
276.0500000000067757
 21
95.0294280699857836
 31
0.0
  0
LINE
  5
F6
100
AcDbEntity
100
AcDbLine
  8
0
 62
256
370
-1
  6
ByLayer
 10
275.1500000000067985
 20
95.0294280699857836
 30
0.0
 11
275.1500000000067985
 21
88.5294280699857836
 31
0.0
  0
LINE
  5
F7
100
AcDbEntity
100
AcDbLine
  8
0
 62
256
370
-1
  6
ByLayer
 10
278.0500000000067757
 20
95.0294280699857836
 30
0.0
 11
277.1500000000067985
 21
95.0294280699857836
 31
0.0
  0
LINE
  5
F8
100
AcDbEntity
100
AcDbLine
  8
0
 62
256
370
-1
  6
ByLayer
 10
276.0500000000067757
 20
95.0294280699857836
 30
0.0
 11
275.1500000000067985
 21
95.0294280699857836
 31
0.0
  0
LINE
  5
F9
100
AcDbEntity
100
AcDbLine
  8
0
 62
256
370
-1
  6
ByLayer
 10
293.1500000000067985
 20
88.529428069985741
 30
0.0
 11
294.0500000000067757
 21
88.5294280699857552
 31
0.0
  0
LINE
  5
FA
100
AcDbEntity
100
AcDbLine
  8
0
 62
256
370
-1
  6
ByLayer
 10
295.1500000000067985
 20
88.5294280699857552
 30
0.0
 11
296.0500000000067757
 21
88.5294280699857552
 31
0.0
  0
LINE
  5
FB
100
AcDbEntity
100
AcDbLine
  8
0
 62
256
370
-1
  6
ByLayer
 10
296.0500000000067757
 20
88.5294280699857552
 30
0.0
 11
296.0500000000067757
 21
95.0294280699857268
 31
0.0
  0
LINE
  5
FC
100
AcDbEntity
100
AcDbLine
  8
0
 62
256
370
-1
  6
ByLayer
 10
295.1500000000067985
 20
95.0294280699857268
 30
0.0
 11
295.1500000000067985
 21
88.5294280699857552
 31
0.0
  0
LINE
  5
FD
100
AcDbEntity
100
AcDbLine
  8
0
 62
256
370
-1
  6
ByLayer
 10
294.0500000000067757
 20
88.5294280699857552
 30
0.0
 11
294.0500000000067757
 21
95.0294280699857268
 31
0.0
  0
LINE
  5
FE
100
AcDbEntity
100
AcDbLine
  8
0
 62
256
370
-1
  6
ByLayer
 10
293.1500000000067985
 20
95.0294280699857268
 30
0.0
 11
293.1500000000067985
 21
88.529428069985741
 31
0.0
  0
INSERT
  5
FF
100
AcDbEntity
100
AcDbBlockReference
  8
0
 62
256
370
-1
  6
ByLayer
  2
m3-t-modified
 10
285.6000000000067871
 20
115.8094280699855005
 30
0.0
 50
180.0
 44
1.0
 45
1.0
  0
LINE
  5
100
100
AcDbEntity
100
AcDbLine
  8
0
 62
256
370
-1
  6
ByLayer
 10
272.2000000000068098
 20
120.8094280699856711
 30
0.0
 11
272.2000000000068098
 21
115.8094280699855858
 31
0.0
  0
LINE
  5
101
100
AcDbEntity
100
AcDbLine
  8
0
 62
256
370
-1
  6
ByLayer
 10
280.2000000000068098
 20
120.8094280699855858
 30
0.0
 11
272.2000000000068098
 21
120.8094280699856711
 31
0.0
  0
LINE
  5
102
100
AcDbEntity
100
AcDbLine
  8
0
 62
256
370
-1
  6
ByLayer
 10
268.0000000000067644
 20
115.8094280699855858
 30
0.0
 11
268.0000000000067644
 21
105.0294280699857836
 31
0.0
  0
LINE
  5
103
100
AcDbEntity
100
AcDbLine
  8
0
 62
256
370
-1
  6
ByLayer
 10
272.2000000000068098
 20
115.8094280699855858
 30
0.0
 11
268.0000000000067644
 21
115.8094280699855858
 31
0.0
  0
LINE
  5
104
100
AcDbEntity
100
AcDbLine
  8
0
 62
256
370
-1
  6
ByLayer
 10
299.0000000000067644
 20
120.80942806998533
 30
0.0
 11
299.0000000000067644
 21
115.8094280699854437
 31
0.0
  0
LINE
  5
105
100
AcDbEntity
100
AcDbLine
  8
0
 62
256
370
-1
  6
ByLayer
 10
299.0000000000067644
 20
120.80942806998533
 30
0.0
 11
291.0000000000067644
 21
120.8094280699854437
 31
0.0
  0
LINE
  5
106
100
AcDbEntity
100
AcDbLine
  8
0
 62
256
370
-1
  6
ByLayer
 10
303.2000000000068098
 20
115.8094280699854437
 30
0.0
 11
303.2000000000068098
 21
105.0294280699857268
 31
0.0
  0
LINE
  5
107
100
AcDbEntity
100
AcDbLine
  8
0
 62
256
370
-1
  6
ByLayer
 10
299.0000000000067644
 20
115.8094280699854437
 30
0.0
 11
303.2000000000068098
 21
115.8094280699854437
 31
0.0
  0
LINE
  5
108
100
AcDbEntity
100
AcDbLine
  8
0
 62
256
370
-1
  6
ByLayer
 10
296.0500000000067757
 20
95.0294280699857268
 30
0.0
 11
295.1500000000067985
 21
95.0294280699857268
 31
0.0
  0
LINE
  5
109
100
AcDbEntity
100
AcDbLine
  8
0
 62
256
370
-1
  6
ByLayer
 10
294.0500000000067757
 20
95.0294280699857268
 30
0.0
 11
293.1500000000067985
 21
95.0294280699857268
 31
0.0
  0
LINE
  5
10A
100
AcDbEntity
100
AcDbLine
  8
inner-clamp
 62
256
370
-1
  6
ByLayer
 10
331.1316000000082909
 20
86.5294280699857552
 30
0.0
 11
320.9516000000087956
 21
86.5294280699857552
 31
0.0
  0
LINE
  5
10B
100
AcDbEntity
100
AcDbLine
  8
inner-clamp
 62
256
370
-1
  6
ByLayer
 10
331.1316000000082909
 20
106.8740442400214476
 30
0.0
 11
331.1316000000082909
 21
86.5294280699857552
 31
0.0
  0
LINE
  5
10C
100
AcDbEntity
100
AcDbLine
  8
inner-clamp
 62
256
370
-1
  6
ByLayer
 10
320.9516000000087956
 20
106.8740442400214476
 30
0.0
 11
320.9516000000087956
 21
86.5294280699857552
 31
0.0
  0
LINE
  5
10D
100
AcDbEntity
100
AcDbLine
  8
inner-clamp
 62
256
370
-1
  6
ByLayer
 10
320.9516000000087956
 20
106.8740442400214476
 30
0.0
 11
331.1316000000082909
 21
106.8740442400214476
 31
0.0
  0
CIRCLE
  5
10E
100
AcDbEntity
100
AcDbCircle
  8
inner-clamp
 62
256
370
-1
  6
ByLayer
 10
326.0416000000085432
 20
99.8599999999999852
 30
0.0
 40
1.5
  0
ENDSEC
  0
SECTION
  2
OBJECTS
  0
DICTIONARY
  5
C
100
AcDbDictionary
280
0
281
1
  3
ACAD_GROUP
350
D
  3
ACAD_LAYOUT
350
1A
  3
ACAD_MLINESTYLE
350
17
  3
ACAD_PLOTSETTINGS
350
19
  3
ACAD_PLOTSTYLENAME
350
E
  3
AcDbVariableDictionary
350
10F
  0
DICTIONARY
  5
D
100
AcDbDictionary
280
0
281
1
  0
ACDBDICTIONARYWDFLT
  5
E
100
AcDbDictionary
281
1
  3
Normal
350
F
100
AcDbDictionaryWithDefault
340
F
  0
ACDBPLACEHOLDER
  5
F
  0
DICTIONARY
  5
17
100
AcDbDictionary
280
0
281
1
  3
Standard
350
18
  0
MLINESTYLE
  5
18
100
AcDbMlineStyle
  2
STANDARD
 70
0
  3

 62
256
 51
90.0
 52
90.0
 71
2
 49
0.5
 62
256
  6
BYLAYER
 49
-0.5
 62
256
  6
BYLAYER
  0
DICTIONARY
  5
19
100
AcDbDictionary
280
0
281
1
  0
DICTIONARY
  5
1A
100
AcDbDictionary
281
1
  3
Layout1
350
1E
  3
Layout2
350
26
  3
Model
350
22
  0
LAYOUT
  5
1E
100
AcDbPlotSettings
  1

  2
C:\Program Files\AutoCAD 2002\plotters\DWF ePlot (optimized for plotting).pc3
  4

  6

 40
0.0
 41
0.0
 42
0.0
 43
0.0
 44
0.0
 45
0.0
 46
0.0
 47
0.0
 48
0.0
 49
0.0
140
0.0
141
0.0
142
1.0
143
1.0
 70
688
 72
0
 73
0
 74
5
  7

 75
16
147
1.0
148
0.0
149
0.0
100
AcDbLayout
  1
Layout1
 70
1
 71
1
 10
0.0
 20
0.0
 11
420.0
 21
297.0
 12
0.0
 22
0.0
 32
0.0
 14
100000000000000000000.0
 24
100000000000000000000.0
 34
100000000000000000000.0
 15
-100000000000000000000.0
 25
-100000000000000000000.0
 35
-100000000000000000000.0
146
0.0
 13
0.0
 23
0.0
 33
0.0
 16
1.0
 26
0.0
 36
0.0
 17
0.0
 27
1.0
 37
0.0
 76
0
330
1B
  0
LAYOUT
  5
22
100
AcDbPlotSettings
  1

  2
C:\Program Files\AutoCAD 2002\plotters\DWF ePlot (optimized for plotting).pc3
  4

  6

 40
0.0
 41
0.0
 42
0.0
 43
0.0
 44
0.0
 45
0.0
 46
0.0
 47
0.0
 48
0.0
 49
0.0
140
0.0
141
0.0
142
1.0
143
1.0
 70
1712
 72
0
 73
0
 74
0
  7

 75
0
147
1.0
148
0.0
149
0.0
100
AcDbLayout
  1
Model
 70
1
 71
0
 10
0.0
 20
0.0
 11
12.0
 21
9.0
 12
0.0
 22
0.0
 32
0.0
 14
0.0
 24
0.0
 34
0.0
 15
0.0
 25
0.0
 35
0.0
146
0.0
 13
0.0
 23
0.0
 33
0.0
 16
1.0
 26
0.0
 36
0.0
 17
0.0
 27
1.0
 37
0.0
 76
0
330
1F
  0
LAYOUT
  5
26
100
AcDbPlotSettings
  1

  2
C:\Program Files\AutoCAD 2002\plotters\DWF ePlot (optimized for plotting).pc3
  4

  6

 40
0.0
 41
0.0
 42
0.0
 43
0.0
 44
0.0
 45
0.0
 46
0.0
 47
0.0
 48
0.0
 49
0.0
140
0.0
141
0.0
142
1.0
143
1.0
 70
688
 72
0
 73
0
 74
5
  7

 75
16
147
1.0
148
0.0
149
0.0
100
AcDbLayout
  1
Layout2
 70
1
 71
2
 10
0.0
 20
0.0
 11
12.0
 21
9.0
 12
0.0
 22
0.0
 32
0.0
 14
0.0
 24
0.0
 34
0.0
 15
0.0
 25
0.0
 35
0.0
146
0.0
 13
0.0
 23
0.0
 33
0.0
 16
1.0
 26
0.0
 36
0.0
 17
0.0
 27
1.0
 37
0.0
 76
0
330
23
  0
DICTIONARY
  5
10F
100
AcDbDictionary
281
1
  3
DIMASSOC
350
111
  3
HIDETEXT
350
110
  0
DICTIONARYVAR
  5
110
100
DictionaryVariables
280
0
  1
2
  0
DICTIONARYVAR
  5
111
100
DictionaryVariables
280
0
  1
1
  0
ENDSEC
  0
EOF
