999
dxflib 2.2.0.0
  0
SECTION
  2
HEADER
  9
$ACADVER
  1
AC1015
  9
$HANDSEED
  5
FFFF
  9
$DIMASZ
 40
2.5
  9
$PLIMMIN
 10
0.0
 20
0.0
  9
$DIMEXE
 40
1.25
  9
$DIMGAP
 40
0.625
  9
$PLIMMAX
 10
210.0
 20
297.0
  9
$INSUNITS
 70
4
  9
$DIMSTYLE
  2
Standard
  9
$CLAYER
  8
06 - Top
  9
$DIMEXO
 40
0.625
  9
$DIMTXT
 40
2.5
  9
$CLAYER
  8
06 - Top
  0
ENDSEC
  0
SECTION
  2
TABLES
  0
TABLE
  2
VPORT
  5
8
100
AcDbSymbolTable
 70
1
  0
VPORT
  5
30
100
AcDbSymbolTableRecord
100
AcDbViewportTableRecord
  2
*Active
 70
0
 10
0.0
 20
0.0
 11
1.0
 21
1.0
 12
286.3055555555554861
 22
148.5
 13
0.0
 23
0.0
 14
10.0
 24
10.0
 15
10.0
 25
10.0
 16
0.0
 26
0.0
 36
1.0
 17
0.0
 27
0.0
 37
0.0
 40
297.0
 41
1.92798353909465
 42
50.0
 43
0.0
 44
0.0
 50
0.0
 51
0.0
 71
0
 72
100
 73
1
 74
3
 75
1
 76
1
 77
0
 78
0
281
0
 65
1
110
0.0
120
0.0
130
0.0
111
1.0
121
0.0
131
0.0
112
0.0
122
1.0
132
0.0
 79
0
146
0.0
  0
ENDTAB
  0
TABLE
  2
LTYPE
  5
5
100
AcDbSymbolTable
 70
21
  0
LTYPE
  5
14
100
AcDbSymbolTableRecord
100
AcDbLinetypeTableRecord
  2
ByBlock
 70
0
  3

 72
65
 73
0
 40
0.0
  0
LTYPE
  5
15
100
AcDbSymbolTableRecord
100
AcDbLinetypeTableRecord
  2
ByLayer
 70
0
  3

 72
65
 73
0
 40
0.0
  0
LTYPE
  5
16
100
AcDbSymbolTableRecord
100
AcDbLinetypeTableRecord
  2
CONTINUOUS
 70
0
  3
Solid line
 72
65
 73
0
 40
0.0
  0
LTYPE
  5
31
100
AcDbSymbolTableRecord
100
AcDbLinetypeTableRecord
  2
DOT
 70
0
  3
Dot . . . . . . . . . . . . . . . . . . . . . .
 72
65
 73
2
 40
6.3499999999999996
 49
0.0
 74
0
 49
-6.3499999999999996
 74
0
  0
LTYPE
  5
32
100
AcDbSymbolTableRecord
100
AcDbLinetypeTableRecord
  2
DOT2
 70
0
  3
Dot (.5x) .....................................
 72
65
 73
2
 40
3.1749999999999998
 49
0.0
 74
0
 49
-3.1749999999999998
 74
0
  0
LTYPE
  5
33
100
AcDbSymbolTableRecord
100
AcDbLinetypeTableRecord
  2
DOTX2
 70
0
  3
Dot (2x) .  .  .  .  .  .  .  .  .  .  .  .  .
 72
65
 73
2
 40
12.6999999999999993
 49
0.0
 74
0
 49
-12.6999999999999993
 74
0
  0
LTYPE
  5
34
100
AcDbSymbolTableRecord
100
AcDbLinetypeTableRecord
  2
DASHED
 70
0
  3
Dashed __ __ __ __ __ __ __ __ __ __ __ __ __ _
 72
65
 73
2
 40
19.0500000000000007
 49
12.6999999999999993
 74
0
 49
-6.3499999999999996
 74
0
  0
LTYPE
  5
35
100
AcDbSymbolTableRecord
100
AcDbLinetypeTableRecord
  2
DASHED2
 70
0
  3
Dashed (.5x) _ _ _ _ _ _ _ _ _ _ _ _ _ _ _ _ _
 72
65
 73
2
 40
9.5250000000000004
 49
6.3499999999999996
 74
0
 49
-3.1749999999999998
 74
0
  0
LTYPE
  5
36
100
AcDbSymbolTableRecord
100
AcDbLinetypeTableRecord
  2
DASHEDX2
 70
0
  3
Dashed (2x) ____  ____  ____  ____  ____  ___
 72
65
 73
2
 40
38.1000000000000014
 49
25.3999999999999986
 74
0
 49
-12.6999999999999993
 74
0
  0
LTYPE
  5
37
100
AcDbSymbolTableRecord
100
AcDbLinetypeTableRecord
  2
DASHDOT
 70
0
  3
Dash dot __ . __ . __ . __ . __ . __ . __ . __
 72
65
 73
4
 40
25.3999999999999986
 49
12.6999999999999993
 74
0
 49
-6.3499999999999996
 74
0
 49
0.0
 74
0
 49
-6.3499999999999996
 74
0
  0
LTYPE
  5
38
100
AcDbSymbolTableRecord
100
AcDbLinetypeTableRecord
  2
DASHDOT2
 70
0
  3
Dash dot (.5x) _._._._._._._._._._._._._._._.
 72
65
 73
4
 40
12.6999999999999993
 49
6.3499999999999996
 74
0
 49
-3.1749999999999998
 74
0
 49
0.0
 74
0
 49
-3.1749999999999998
 74
0
  0
LTYPE
  5
39
100
AcDbSymbolTableRecord
100
AcDbLinetypeTableRecord
  2
DASHDOTX2
 70
0
  3
Dash dot (2x) ____  .  ____  .  ____  .  ___
 72
65
 73
4
 40
50.7999999999999972
 49
25.3999999999999986
 74
0
 49
-12.6999999999999993
 74
0
 49
0.0
 74
0
 49
-12.6999999999999993
 74
0
  0
LTYPE
  5
3A
100
AcDbSymbolTableRecord
100
AcDbLinetypeTableRecord
  2
DIVIDE
 70
0
  3
Divide ____ . . ____ . . ____ . . ____ . . ____
 72
65
 73
6
 40
31.75
 49
12.6999999999999993
 74
0
 49
-6.3499999999999996
 74
0
 49
0.0
 74
0
 49
-6.3499999999999996
 74
0
 49
0.0
 74
0
 49
-6.3499999999999996
 74
0
  0
LTYPE
  5
3B
100
AcDbSymbolTableRecord
100
AcDbLinetypeTableRecord
  2
DIVIDE2
 70
0
  3
Divide (.5x) __..__..__..__..__..__..__..__.._
 72
65
 73
6
 40
15.875
 49
6.3499999999999996
 74
0
 49
-3.1749999999999998
 74
0
 49
0.0
 74
0
 49
-3.1749999999999998
 74
0
 49
0.0
 74
0
 49
-3.1749999999999998
 74
0
  0
LTYPE
  5
3C
100
AcDbSymbolTableRecord
100
AcDbLinetypeTableRecord
  2
DIVIDEX2
 70
0
  3
Divide (2x) ________  .  .  ________  .  .  _
 72
65
 73
6
 40
63.5
 49
25.3999999999999986
 74
0
 49
-12.6999999999999993
 74
0
 49
0.0
 74
0
 49
-12.6999999999999993
 74
0
 49
0.0
 74
0
 49
-12.6999999999999993
 74
0
  0
LTYPE
  5
3D
100
AcDbSymbolTableRecord
100
AcDbLinetypeTableRecord
  2
CENTER
 70
0
  3
Center ____ _ ____ _ ____ _ ____ _ ____ _ ____
 72
65
 73
4
 40
50.7999999999999972
 49
31.75
 74
0
 49
-6.3499999999999996
 74
0
 49
6.3499999999999996
 74
0
 49
-6.3499999999999996
 74
0
  0
LTYPE
  5
3E
100
AcDbSymbolTableRecord
100
AcDbLinetypeTableRecord
  2
CENTER2
 70
0
  3
Center (.5x) ___ _ ___ _ ___ _ ___ _ ___ _ ___
 72
65
 73
4
 40
28.5749999999999993
 49
19.0500000000000007
 74
0
 49
-3.1749999999999998
 74
0
 49
3.1749999999999998
 74
0
 49
-3.1749999999999998
 74
0
  0
LTYPE
  5
3F
100
AcDbSymbolTableRecord
100
AcDbLinetypeTableRecord
  2
CENTERX2
 70
0
  3
Center (2x) ________  __  ________  __  _____
 72
65
 73
4
 40
101.5999999999999943
 49
63.5
 74
0
 49
-12.6999999999999993
 74
0
 49
12.6999999999999993
 74
0
 49
-12.6999999999999993
 74
0
  0
LTYPE
  5
40
100
AcDbSymbolTableRecord
100
AcDbLinetypeTableRecord
  2
BORDER
 70
0
  3
Border __ __ . __ __ . __ __ . __ __ . __ __ .
 72
65
 73
6
 40
44.4500000000000028
 49
12.6999999999999993
 74
0
 49
-6.3499999999999996
 74
0
 49
12.6999999999999993
 74
0
 49
-6.3499999999999996
 74
0
 49
0.0
 74
0
 49
-6.3499999999999996
 74
0
  0
LTYPE
  5
41
100
AcDbSymbolTableRecord
100
AcDbLinetypeTableRecord
  2
BORDER2
 70
0
  3
Border (.5x) __.__.__.__.__.__.__.__.__.__.__.
 72
65
 73
6
 40
22.2250000000000014
 49
6.3499999999999996
 74
0
 49
-3.1749999999999998
 74
0
 49
6.3499999999999996
 74
0
 49
-3.1749999999999998
 74
0
 49
0.0
 74
0
 49
-3.1749999999999998
 74
0
  0
LTYPE
  5
42
100
AcDbSymbolTableRecord
100
AcDbLinetypeTableRecord
  2
BORDERX2
 70
0
  3
Border (2x) ____  ____  .  ____  ____  .  ___
 72
65
 73
6
 40
88.9000000000000057
 49
25.3999999999999986
 74
0
 49
-12.6999999999999993
 74
0
 49
25.3999999999999986
 74
0
 49
-12.6999999999999993
 74
0
 49
0.0
 74
0
 49
-12.6999999999999993
 74
0
  0
ENDTAB
  0
TABLE
  2
LAYER
  5
2
100
AcDbSymbolTable
 70
14
  0
LAYER
  5
10
100
AcDbSymbolTableRecord
100
AcDbLayerTableRecord
  2
0
 70
0
 62
7
420
0
  6
CONTINUOUS
370
0
390
F
  0
LAYER
  5
43
100
AcDbSymbolTableRecord
100
AcDbLayerTableRecord
  2
Drawings
 70
0
 62
1
420
16711680
  6
CONTINUOUS
370
0
390
F
  0
LAYER
  5
44
100
AcDbSymbolTableRecord
100
AcDbLayerTableRecord
  2
03 - Bottom
 70
0
 62
7
420
0
  6
CONTINUOUS
370
0
390
F
  0
LAYER
  5
45
100
AcDbSymbolTableRecord
100
AcDbLayerTableRecord
  2
Drawings - Rods
 70
0
 62
3
420
65280
  6
CONTINUOUS
370
0
390
F
  0
LAYER
  5
46
100
AcDbSymbolTableRecord
100
AcDbLayerTableRecord
  2
Drawings - TR-8x8 Flange
 70
0
 62
7
420
0
  6
CONTINUOUS
370
0
390
F
  0
LAYER
  5
47
100
AcDbSymbolTableRecord
100
AcDbLayerTableRecord
  2
Drawings - 5/16" Nuts
 70
0
 62
7
420
0
  6
CONTINUOUS
370
0
390
F
  0
LAYER
  5
48
100
AcDbSymbolTableRecord
100
AcDbLayerTableRecord
  2
Drawings - Roton Hi-Lead - 1/4"
 70
0
 62
7
420
0
  6
CONTINUOUS
370
0
390
F
  0
LAYER
  5
49
100
AcDbSymbolTableRecord
100
AcDbLayerTableRecord
  2
Drawings - Roton Acme - 3/8"
 70
0
 62
7
420
0
  6
CONTINUOUS
370
0
390
F
  0
LAYER
  5
4A
100
AcDbSymbolTableRecord
100
AcDbLayerTableRecord
  2
Text
 70
0
 62
1
420
16711680
  6
CONTINUOUS
370
0
390
F
  0
LAYER
  5
4B
100
AcDbSymbolTableRecord
100
AcDbLayerTableRecord
  2
01 - Rib
 70
0
 62
7
420
0
  6
CONTINUOUS
370
0
390
F
  0
LAYER
  5
4C
100
AcDbSymbolTableRecord
100
AcDbLayerTableRecord
  2
02 - Back
 70
0
 62
7
420
0
  6
CONTINUOUS
370
0
390
F
  0
LAYER
  5
4D
100
AcDbSymbolTableRecord
100
AcDbLayerTableRecord
  2
04 - Left
 70
0
 62
7
420
0
  6
CONTINUOUS
370
0
390
F
  0
LAYER
  5
4E
100
AcDbSymbolTableRecord
100
AcDbLayerTableRecord
  2
05 - Right
 70
0
 62
7
420
0
  6
CONTINUOUS
370
0
390
F
  0
LAYER
  5
4F
100
AcDbSymbolTableRecord
100
AcDbLayerTableRecord
  2
06 - Top
 70
0
 62
7
420
0
  6
CONTINUOUS
370
0
390
F
  0
ENDTAB
  0
TABLE
  2
STYLE
  5
3
100
AcDbSymbolTable
 70
1
  0
STYLE
  5
11
100
AcDbSymbolTableRecord
100
AcDbTextStyleTableRecord
  2
Standard
 70
0
 40
0.0
 41
0.75
 50
0.0
 71
0
 42
2.5
  3
txt
  4

  0
ENDTAB
  0
TABLE
  2
VIEW
  5
6
100
AcDbSymbolTable
 70
0
  0
ENDTAB
  0
TABLE
  2
UCS
  5
7
100
AcDbSymbolTable
 70
0
  0
ENDTAB
  0
TABLE
  2
APPID
  5
9
100
AcDbSymbolTable
 70
1
  0
APPID
  5
12
100
AcDbSymbolTableRecord
100
AcDbRegAppTableRecord
  2
ACAD
 70
0
  0
ENDTAB
  0
TABLE
  2
DIMSTYLE
  5
A
100
AcDbSymbolTable
 70
1
100
AcDbDimStyleTable
 71
0
  0
DIMSTYLE
105
27
100
AcDbSymbolTableRecord
100
AcDbDimStyleTableRecord
  2
Standard
 41
2.5
 42
0.625
 43
3.75
 44
1.25
 70
0
 73
0
 74
0
 77
1
 78
8
140
2.5
141
2.5
143
0.03937007874016
147
0.625
171
3
172
1
271
2
272
2
274
3
278
44
283
0
284
8
340
11
  0
ENDTAB
  0
TABLE
  2
BLOCK_RECORD
  5
1
100
AcDbSymbolTable
 70
1
  0
BLOCK_RECORD
  5
1F
100
AcDbSymbolTableRecord
100
AcDbBlockTableRecord
  2
*Model_Space
340
22
  0
BLOCK_RECORD
  5
1B
100
AcDbSymbolTableRecord
100
AcDbBlockTableRecord
  2
*Paper_Space
340
1E
  0
BLOCK_RECORD
  5
23
100
AcDbSymbolTableRecord
100
AcDbBlockTableRecord
  2
*Paper_Space0
340
26
  0
BLOCK_RECORD
  5
50
100
AcDbSymbolTableRecord
100
AcDbBlockTableRecord
  2
nut cut outs
340
0
  0
BLOCK_RECORD
  5
51
100
AcDbSymbolTableRecord
100
AcDbBlockTableRecord
  2
tgrips
340
0
  0
BLOCK_RECORD
  5
52
100
AcDbSymbolTableRecord
100
AcDbBlockTableRecord
  2
tcutout
340
0
  0
BLOCK_RECORD
  5
53
100
AcDbSymbolTableRecord
100
AcDbBlockTableRecord
  2
tgrip-22
340
0
  0
ENDTAB
  0
ENDSEC
  0
SECTION
  2
BLOCKS
  0
BLOCK
  5
20
100
AcDbEntity
  8
0
100
AcDbBlockBegin
  2
*Model_Space
 70
0
 10
0.0
 20
0.0
 30
0.0
  3
*Model_Space
  1

  0
ENDBLK
  5
21
100
AcDbEntity
  8
0
100
AcDbBlockEnd
  0
BLOCK
  5
1C
100
AcDbEntity
 67
1
  8
0
100
AcDbBlockBegin
  2
*Paper_Space
 70
0
 10
0.0
 20
0.0
 30
0.0
  3
*Paper_Space
  1

  0
ENDBLK
  5
1D
100
AcDbEntity
 67
1
  8
0
100
AcDbBlockEnd
  0
BLOCK
  5
24
100
AcDbEntity
  8
0
100
AcDbBlockBegin
  2
*Paper_Space0
 70
0
 10
0.0
 20
0.0
 30
0.0
  3
*Paper_Space0
  1

  0
ENDBLK
  5
25
100
AcDbEntity
  8
0
100
AcDbBlockEnd
  0
BLOCK
  5
54
100
AcDbEntity
  8
0
100
AcDbBlockBegin
  2
nut cut outs
 70
0
 10
0.0
 20
0.0
 30
0.0
  3
nut cut outs
  1

  0
LINE
  5
55
100
AcDbEntity
100
AcDbLine
  8
0
 62
256
370
-1
  6
ByLayer
 10
0.0000000000000007
 20
7.476685487982313
 30
0.0
 11
-6.4749999999999996
 21
3.7383432418284799
 31
0.0
  0
LINE
  5
56
100
AcDbEntity
100
AcDbLine
  8
0
 62
256
370
-1
  6
ByLayer
 10
-6.4749995686991335
 20
3.7383427439911592
 30
0.0
 11
-6.475000215489338
 21
-3.7383428685899975
 31
0.0
  0
LINE
  5
57
100
AcDbEntity
100
AcDbLine
  8
0
 62
256
370
-1
  6
ByLayer
 10
-6.4749995686991362
 20
-3.7383427439911547
 30
0.0
 11
-0.0000002154893356
 21
-7.4766861104184805
 31
0.0
  0
LINE
  5
58
100
AcDbEntity
100
AcDbLine
  8
0
 62
256
370
-1
  6
ByLayer
 10
-0.0000000000000014
 20
-7.476685487982313
 30
0.0
 11
6.4749999999999996
 21
-3.7383432418284812
 31
0.0
  0
LINE
  5
59
100
AcDbEntity
100
AcDbLine
  8
0
 62
256
370
-1
  6
ByLayer
 10
6.4749995686991335
 20
-3.7383427439911601
 30
0.0
 11
6.4750002154893389
 21
3.7383428685899966
 31
0.0
  0
LINE
  5
5A
100
AcDbEntity
100
AcDbLine
  8
0
 62
256
370
-1
  6
ByLayer
 10
6.4749995686991388
 20
3.7383427439911507
 30
0.0
 11
0.0000002154893365
 21
7.4766861104184805
 31
0.0
  0
ENDBLK
  5
5B
100
AcDbEntity
  8
0
100
AcDbBlockEnd
  0
BLOCK
  5
5C
100
AcDbEntity
  8
0
100
AcDbBlockBegin
  2
tgrips
 70
0
 10
0.0
 20
0.0
 30
0.0
  3
tgrips
  1

  0
LINE
  5
5D
100
AcDbEntity
100
AcDbLine
  8
0
 62
256
370
-1
  6
ByLayer
 10
2.75
 20
-7.0
 30
0.0
 11
2.7474839689560469
 21
-10.0
 31
0.0
  0
LINE
  5
5E
100
AcDbEntity
100
AcDbLine
  8
0
 62
256
370
-1
  6
ByLayer
 10
1.5
 20
-10.0
 30
0.0
 11
2.7474839689560469
 21
-10.0
 31
0.0
  0
LINE
  5
5F
100
AcDbEntity
100
AcDbLine
  8
0
 62
256
370
-1
  6
ByLayer
 10
-2.75
 20
-7.0
 30
0.0
 11
-2.7546916604171798
 21
-10.0
 31
0.0
  0
LINE
  5
60
100
AcDbEntity
100
AcDbLine
  8
0
 62
256
370
-1
  6
ByLayer
 10
-2.7546916604171798
 20
-10.0
 30
0.0
 11
-1.5
 21
-10.0
 31
0.0
  0
LINE
  5
61
100
AcDbEntity
100
AcDbLine
  8
0
 62
256
370
-1
  6
ByLayer
 10
-1.4172019846484645
 20
0.0
 30
0.0
 11
-1.4164840199662549
 21
-6.9987197232206464
 31
0.0
  0
LINE
  5
62
100
AcDbEntity
100
AcDbLine
  8
0
 62
256
370
-1
  6
ByLayer
 10
1.4008093934434527
 20
-6.9987197232206464
 30
0.0
 11
1.4008093934435664
 21
0.0044872792644778
 31
0.0
  0
LINE
  5
63
100
AcDbEntity
100
AcDbLine
  8
0
 62
256
370
-1
  6
ByLayer
 10
2.75
 20
-7.0
 30
0.0
 11
1.4008093934434527
 21
-6.9987197232206464
 31
0.0
  0
LINE
  5
64
100
AcDbEntity
100
AcDbLine
  8
0
 62
256
370
-1
  6
ByLayer
 10
-1.4164840199662549
 20
-6.9987197232206464
 30
0.0
 11
-2.75
 21
-7.0
 31
0.0
  0
LINE
  5
65
100
AcDbEntity
100
AcDbLine
  8
0
 62
256
370
-1
  6
ByLayer
 10
-1.5
 20
-11.0
 30
0.0
 11
1.5
 21
-11.0
 31
0.0
  0
LINE
  5
66
100
AcDbEntity
100
AcDbLine
  8
0
 62
256
370
-1
  6
ByLayer
 10
-1.5
 20
-10.0
 30
0.0
 11
-1.5
 21
-11.0
 31
0.0
  0
LINE
  5
67
100
AcDbEntity
100
AcDbLine
  8
0
 62
256
370
-1
  6
ByLayer
 10
1.5
 20
-11.0
 30
0.0
 11
1.5
 21
-10.0
 31
0.0
  0
LINE
  5
68
100
AcDbEntity
100
AcDbLine
  8
0
 62
256
370
-1
  6
ByLayer
 10
-5.0
 20
0.0
 30
0.0
 11
-1.4172019846484645
 21
0.0
 31
0.0
  0
LINE
  5
69
100
AcDbEntity
100
AcDbLine
  8
0
 62
256
370
-1
  6
ByLayer
 10
-5.0
 20
5.0
 30
0.0
 11
-5.0
 21
0.0
 31
0.0
  0
LINE
  5
6A
100
AcDbEntity
100
AcDbLine
  8
0
 62
256
370
-1
  6
ByLayer
 10
-15.0
 20
5.0
 30
0.0
 11
-5.0
 21
5.0
 31
0.0
  0
LINE
  5
6B
100
AcDbEntity
100
AcDbLine
  8
0
 62
256
370
-1
  6
ByLayer
 10
-15.0
 20
0.0
 30
0.0
 11
-15.0
 21
5.0
 31
0.0
  0
LINE
  5
6C
100
AcDbEntity
100
AcDbLine
  8
0
 62
256
370
-1
  6
ByLayer
 10
1.4008093934435664
 20
0.0044872792644778
 30
0.0
 11
5.0
 21
0.0
 31
0.0
  0
LINE
  5
6D
100
AcDbEntity
100
AcDbLine
  8
0
 62
256
370
-1
  6
ByLayer
 10
5.0
 20
5.0
 30
0.0
 11
15.0
 21
5.0
 31
0.0
  0
LINE
  5
6E
100
AcDbEntity
100
AcDbLine
  8
0
 62
256
370
-1
  6
ByLayer
 10
15.0
 20
5.0
 30
0.0
 11
15.0
 21
0.0
 31
0.0
  0
LINE
  5
6F
100
AcDbEntity
100
AcDbLine
  8
0
 62
256
370
-1
  6
ByLayer
 10
5.0
 20
0.0
 30
0.0
 11
5.0
 21
5.0
 31
0.0
  0
ENDBLK
  5
70
100
AcDbEntity
  8
0
100
AcDbBlockEnd
  0
BLOCK
  5
71
100
AcDbEntity
  8
0
100
AcDbBlockBegin
  2
tcutout
 70
0
 10
0.0
 20
0.0
 30
0.0
  3
tcutout
  1

  0
LINE
  5
72
100
AcDbEntity
100
AcDbLine
  8
0
 62
256
370
-1
  6
ByLayer
 10
-15.0
 20
0.0000000000000031
 30
0.0
 11
-5.0
 21
-0.0000000000000009
 31
0.0
  0
LINE
  5
73
100
AcDbEntity
100
AcDbLine
  8
0
 62
256
370
-1
  6
ByLayer
 10
5.0
 20
0.0000000000000004
 30
0.0
 11
15.0
 21
0.0000000000000027
 31
0.0
  0
LINE
  5
74
100
AcDbEntity
100
AcDbLine
  8
0
 62
256
370
-1
  6
ByLayer
 10
5.0
 20
5.5
 30
0.0
 11
15.0
 21
5.5000000000000027
 31
0.0
  0
LINE
  5
75
100
AcDbEntity
100
AcDbLine
  8
0
 62
256
370
-1
  6
ByLayer
 10
-14.9999999999999982
 20
5.5000000000000036
 30
0.0
 11
-4.9999999999999982
 21
5.4999999999999991
 31
0.0
  0
LINE
  5
76
100
AcDbEntity
100
AcDbLine
  8
0
 62
256
370
-1
  6
ByLayer
 10
-15.0
 20
0.0000000000000031
 30
0.0
 11
-14.9999999999999982
 21
5.5000000000000036
 31
0.0
  0
LINE
  5
77
100
AcDbEntity
100
AcDbLine
  8
0
 62
256
370
-1
  6
ByLayer
 10
-4.9999999999999982
 20
5.4999999999999991
 30
0.0
 11
-5.0
 21
-0.0000000000000004
 31
0.0
  0
LINE
  5
78
100
AcDbEntity
100
AcDbLine
  8
0
 62
256
370
-1
  6
ByLayer
 10
5.0
 20
0.0000000000000004
 30
0.0
 11
5.0
 21
5.5
 31
0.0
  0
LINE
  5
79
100
AcDbEntity
100
AcDbLine
  8
0
 62
256
370
-1
  6
ByLayer
 10
15.0
 20
5.5000000000000027
 30
0.0
 11
15.0
 21
0.0000000000000027
 31
0.0
  0
CIRCLE
  5
7A
100
AcDbEntity
100
AcDbCircle
  8
0
 62
256
370
-1
  6
ByLayer
 10
0.0000000000000004
 20
2.7499999999999991
 30
0.0
 40
1.5
  0
LINE
  5
7B
100
AcDbEntity
100
AcDbLine
  8
Drawings
 62
256
370
-1
  6
ByLayer
 10
5.0
 20
2.7499999999999991
 30
0.0
 11
-5.0
 21
2.7499999999999991
 31
0.0
  0
ENDBLK
  5
7C
100
AcDbEntity
  8
0
100
AcDbBlockEnd
  0
BLOCK
  5
7D
100
AcDbEntity
  8
0
100
AcDbBlockBegin
  2
tgrip-22
 70
0
 10
0.0
 20
0.0
 30
0.0
  3
tgrip-22
  1

  0
LINE
  5
7E
100
AcDbEntity
100
AcDbLine
  8
0
 62
256
370
-1
  6
ByLayer
 10
-5.0
 20
0.0000000000000004
 30
0.0
 11
-1.4172019846484647
 21
0.0
 31
0.0
  0
LINE
  5
7F
100
AcDbEntity
100
AcDbLine
  8
0
 62
256
370
-1
  6
ByLayer
 10
1.4008093934435664
 20
0.0044872792644779
 30
0.0
 11
4.9999999999999991
 21
0.0000000000000013
 31
0.0
  0
LINE
  5
80
100
AcDbEntity
100
AcDbLine
  8
0
 62
256
370
-1
  6
ByLayer
 10
-4.9999999999999991
 20
10.0
 30
0.0
 11
-5.0
 21
0.0000000000000004
 31
0.0
  0
LINE
  5
81
100
AcDbEntity
100
AcDbLine
  8
0
 62
256
370
-1
  6
ByLayer
 10
-14.9999999999999982
 20
10.0000000000000036
 30
0.0
 11
-4.9999999999999991
 21
10.0
 31
0.0
  0
LINE
  5
82
100
AcDbEntity
100
AcDbLine
  8
0
 62
256
370
-1
  6
ByLayer
 10
-15.0
 20
0.000000000000004
 30
0.0
 11
-14.9999999999999982
 21
10.0000000000000036
 31
0.0
  0
LINE
  5
83
100
AcDbEntity
100
AcDbLine
  8
0
 62
256
370
-1
  6
ByLayer
 10
5.0
 20
10.0
 30
0.0
 11
15.0
 21
10.0
 31
0.0
  0
LINE
  5
84
100
AcDbEntity
100
AcDbLine
  8
0
 62
256
370
-1
  6
ByLayer
 10
15.0
 20
10.0
 30
0.0
 11
15.0
 21
0.0000000000000036
 31
0.0
  0
LINE
  5
85
100
AcDbEntity
100
AcDbLine
  8
0
 62
256
370
-1
  6
ByLayer
 10
4.9999999999999991
 20
0.0000000000000013
 30
0.0
 11
5.0
 21
10.0
 31
0.0
  0
LINE
  5
86
100
AcDbEntity
100
AcDbLine
  8
0
 62
256
370
-1
  6
ByLayer
 10
2.7499999999999978
 20
-8.0000000000000018
 30
0.0
 11
2.7474839689560424
 21
-11.0000000000000018
 31
0.0
  0
LINE
  5
87
100
AcDbEntity
100
AcDbLine
  8
0
 62
256
370
-1
  6
ByLayer
 10
1.4999999999999967
 20
-11.0
 30
0.0
 11
2.7474839689560424
 21
-11.0000000000000018
 31
0.0
  0
LINE
  5
88
100
AcDbEntity
100
AcDbLine
  8
0
 62
256
370
-1
  6
ByLayer
 10
-2.7500000000000031
 20
-7.9999999999999982
 30
0.0
 11
-2.7546916604171834
 21
-10.9999999999999982
 31
0.0
  0
LINE
  5
89
100
AcDbEntity
100
AcDbLine
  8
0
 62
256
370
-1
  6
ByLayer
 10
-2.7546916604171834
 20
-10.9999999999999982
 30
0.0
 11
-1.5000000000000056
 21
-11.0
 31
0.0
  0
LINE
  5
8A
100
AcDbEntity
100
AcDbLine
  8
0
 62
256
370
-1
  6
ByLayer
 10
-1.4172019846484647
 20
0.0
 30
0.0
 11
-1.4164840199662543
 21
-7.9987197232206473
 31
0.0
  0
LINE
  5
8B
100
AcDbEntity
100
AcDbLine
  8
0
 62
256
370
-1
  6
ByLayer
 10
1.4008093934434536
 20
-7.9987197232206464
 30
0.0
 11
1.4008093934435664
 21
0.0044872792644779
 31
0.0
  0
LINE
  5
8C
100
AcDbEntity
100
AcDbLine
  8
0
 62
256
370
-1
  6
ByLayer
 10
2.7499999999999978
 20
-8.0000000000000018
 30
0.0
 11
1.4008093934434536
 21
-7.9987197232206464
 31
0.0
  0
LINE
  5
8D
100
AcDbEntity
100
AcDbLine
  8
0
 62
256
370
-1
  6
ByLayer
 10
-1.4164840199662543
 20
-7.9987197232206473
 30
0.0
 11
-2.7500000000000031
 21
-7.9999999999999982
 31
0.0
  0
LINE
  5
8E
100
AcDbEntity
100
AcDbLine
  8
0
 62
256
370
-1
  6
ByLayer
 10
-1.5000000000000056
 20
-11.0
 30
0.0
 11
-1.5000000000000004
 21
-12.0999999999999996
 31
0.0
  0
LINE
  5
8F
100
AcDbEntity
100
AcDbLine
  8
0
 62
256
370
-1
  6
ByLayer
 10
1.4999999999999982
 20
-12.0999999999999996
 30
0.0
 11
1.4999999999999967
 21
-11.0
 31
0.0
  0
LINE
  5
90
100
AcDbEntity
100
AcDbLine
  8
0
 62
256
370
-1
  6
ByLayer
 10
-1.5000000000000004
 20
-12.0999999999999996
 30
0.0
 11
1.4999999999999982
 21
-12.0999999999999996
 31
0.0
  0
ENDBLK
  5
91
100
AcDbEntity
  8
0
100
AcDbBlockEnd
  0
ENDSEC
  0
SECTION
  2
ENTITIES
  0
LINE
  5
92
100
AcDbEntity
100
AcDbLine
  8
Drawings
 62
256
370
-1
  6
ByLayer
 10
10.0
 20
97.0
 30
0.0
 11
10.0
 21
73.0
 31
0.0
  0
LINE
  5
93
100
AcDbEntity
100
AcDbLine
  8
Drawings
 62
256
370
-1
  6
ByLayer
 10
-15.0000000000000018
 20
92.0
 30
0.0
 11
14.9999999999999982
 21
92.0
 31
0.0
  0
LINE
  5
94
100
AcDbEntity
100
AcDbLine
  8
Drawings
 62
256
370
-1
  6
ByLayer
 10
-10.0
 20
73.0
 30
0.0
 11
-10.0
 21
97.0
 31
0.0
  0
LINE
  5
95
100
AcDbEntity
100
AcDbLine
  8
Drawings
 62
256
370
-1
  6
ByLayer
 10
15.0000000000000018
 20
78.0
 30
0.0
 11
-14.9999999999999982
 21
78.0
 31
0.0
  0
ARC
  5
96
100
AcDbEntity
  8
03 - Bottom
 62
256
370
-1
  6
ByLayer
100
AcDbCircle
 10
-102.5029922314881929
 20
67.5000000000042348
 30
0.0
 40
2.5
100
AcDbArc
 50
180.0
 51
270.0
  0
ARC
  5
97
100
AcDbEntity
  8
03 - Bottom
 62
256
370
-1
  6
ByLayer
100
AcDbCircle
 10
102.4973628692898302
 20
67.5000000000056843
 30
0.0
 40
2.5
100
AcDbArc
 50
270.0
 51
0.0
  0
LINE
  5
98
100
AcDbEntity
100
AcDbLine
  8
03 - Bottom
 62
256
370
-1
  6
ByLayer
 10
-102.5029922314881929
 20
65.0000000000041211
 30
0.0
 11
102.4973628692898302
 21
65.000000000005798
 31
0.0
  0
LINE
  5
99
100
AcDbEntity
100
AcDbLine
  8
Drawings
 62
256
370
-1
  6
ByLayer
 10
-105.0026371307103119
 20
15.0000000000041815
 30
0.0
 11
104.9973628692896597
 21
15.0000000000008509
 31
0.0
  0
LINE
  5
9A
100
AcDbEntity
100
AcDbLine
  8
Drawings
 62
256
370
-1
  6
ByLayer
 10
-105.0029478438909649
 20
85.000000000004178
 30
0.0
 11
104.9973628692897449
 21
85.0000000000008527
 31
0.0
  0
LINE
  5
9B
100
AcDbEntity
100
AcDbLine
  8
Drawings
 62
256
370
-1
  6
ByLayer
 10
-130.0439449137644772
 20
139.9586781535677176
 30
0.0
 11
130.0439449137644772
 21
139.9586781535676892
 31
0.0
  0
LINE
  5
9C
100
AcDbEntity
100
AcDbLine
  8
Drawings
 62
256
370
-1
  6
ByLayer
 10
-50.0029922314881929
 20
159.9586781535682007
 30
0.0
 11
-50.0029922314881929
 21
67.4999999999993037
 31
0.0
  0
LINE
  5
9D
100
AcDbEntity
100
AcDbLine
  8
Drawings
 62
256
370
-1
  6
ByLayer
 10
49.9973628692898302
 20
159.9586781535692239
 30
0.0
 11
49.9973628692898302
 21
67.5000000000009521
 31
0.0
  0
INSERT
  5
9E
100
AcDbEntity
100
AcDbBlockReference
  8
03 - Bottom
 62
256
370
-1
  6
ByLayer
  2
tcutout
 10
49.9973628692898302
 20
85.0000000000017195
 30
0.0
 50
90.0
 44
1.0
 45
1.0
  0
ARC
  5
9F
100
AcDbEntity
  8
03 - Bottom
 62
256
370
-1
  6
ByLayer
100
AcDbCircle
 10
-102.5029922314881929
 20
104.9999999999994031
 30
0.0
 40
2.5
100
AcDbArc
 50
90.0
 51
180.0
  0
ARC
  5
A0
100
AcDbEntity
  8
03 - Bottom
 62
256
370
-1
  6
ByLayer
100
AcDbCircle
 10
102.4973628692898302
 20
105.0000000000008242
 30
0.0
 40
2.5
100
AcDbArc
 50
0.0
 51
90.0
  0
LINE
  5
A1
100
AcDbEntity
100
AcDbLine
  8
03 - Bottom
 62
256
370
-1
  6
ByLayer
 10
-102.5029922314881929
 20
107.499999999999261
 30
0.0
 11
102.4973628692898302
 21
107.5000000000009095
 31
0.0
  0
LINE
  5
A2
100
AcDbEntity
100
AcDbLine
  8
03 - Bottom
 62
256
370
-1
  6
ByLayer
 10
104.9973628692898018
 20
104.9999999999961489
 30
0.0
 11
104.9973628692898018
 21
67.5000000000055422
 31
0.0
  0
LINE
  5
A3
100
AcDbEntity
100
AcDbLine
  8
03 - Bottom
 62
256
370
-1
  6
ByLayer
 10
-105.0030255221380173
 20
104.9999891666130054
 30
0.0
 11
-105.0029922314881929
 21
67.5000000000042064
 31
0.0
  0
CIRCLE
  5
A4
100
AcDbEntity
100
AcDbCircle
  8
Drawings - TR-8x8 Flange
 62
256
370
-1
  6
ByLayer
 10
-0.0026371307103119
 20
85.0000000000025011
 30
0.0
 40
5.0
  0
CIRCLE
  5
A5
100
AcDbEntity
100
AcDbCircle
  8
Drawings - TR-8x8 Flange
 62
256
370
-1
  6
ByLayer
 10
-0.0026371307103119
 20
93.0000000000025295
 30
0.0
 40
1.5
  0
CIRCLE
  5
A6
100
AcDbEntity
100
AcDbCircle
  8
Drawings - TR-8x8 Flange
 62
256
370
-1
  6
ByLayer
 10
7.997362869289816
 20
85.0000000000023874
 30
0.0
 40
1.5
  0
CIRCLE
  5
A7
100
AcDbEntity
100
AcDbCircle
  8
Drawings - TR-8x8 Flange
 62
256
370
-1
  6
ByLayer
 10
-8.0026371307104256
 20
85.0000000000026432
 30
0.0
 40
1.5
  0
CIRCLE
  5
A8
100
AcDbEntity
100
AcDbCircle
  8
Drawings - TR-8x8 Flange
 62
256
370
-1
  6
ByLayer
 10
-0.0026371307103119
 20
77.0000000000024869
 30
0.0
 40
1.5
  0
CIRCLE
  5
A9
100
AcDbEntity
100
AcDbCircle
  8
Drawings
 62
256
370
-1
  6
ByLayer
 10
-0.0026371307103119
 20
85.0000000000025011
 30
0.0
 40
11.0
  0
INSERT
  5
AA
100
AcDbEntity
100
AcDbBlockReference
  8
Drawings - 5/16" Nuts
 62
256
370
-1
  6
ByLayer
  2
nut cut outs
 10
-0.0026371307103119
 20
85.0000000000001421
 30
0.0
 44
1.0
 45
1.0
  0
CIRCLE
  5
AB
100
AcDbEntity
100
AcDbCircle
  8
Drawings - 5/16" Nuts
 62
256
370
-1
  6
ByLayer
 10
10.0
 20
92.0
 30
0.0
 40
1.5
  0
CIRCLE
  5
AC
100
AcDbEntity
100
AcDbCircle
  8
Drawings - 5/16" Nuts
 62
256
370
-1
  6
ByLayer
 10
10.0
 20
78.0
 30
0.0
 40
1.5
  0
CIRCLE
  5
AD
100
AcDbEntity
100
AcDbCircle
  8
Drawings - 5/16" Nuts
 62
256
370
-1
  6
ByLayer
 10
-9.9999999999999982
 20
78.0
 30
0.0
 40
1.5
  0
CIRCLE
  5
AE
100
AcDbEntity
100
AcDbCircle
  8
Drawings - 5/16" Nuts
 62
256
370
-1
  6
ByLayer
 10
-10.0
 20
92.0
 30
0.0
 40
1.5
  0
CIRCLE
  5
AF
100
AcDbEntity
100
AcDbCircle
  8
Drawings - Roton Hi-Lead - 1/4"
 62
256
370
-1
  6
ByLayer
 10
-0.0026371307103119
 20
85.0000000000025011
 30
0.0
 40
6.3499999999999996
  0
CIRCLE
  5
B0
100
AcDbEntity
100
AcDbCircle
  8
Drawings - Roton Hi-Lead - 1/4"
 62
256
370
-1
  6
ByLayer
 10
-0.0026371307103119
 20
94.5250000000025352
 30
0.0
 40
1.778
  0
CIRCLE
  5
B1
100
AcDbEntity
100
AcDbCircle
  8
Drawings - Roton Hi-Lead - 1/4"
 62
256
370
-1
  6
ByLayer
 10
-8.2515291017571215
 20
80.2375000000024841
 30
0.0
 40
1.778
  0
CIRCLE
  5
B2
100
AcDbEntity
100
AcDbCircle
  8
Drawings - Roton Hi-Lead - 1/4"
 62
256
370
-1
  6
ByLayer
 10
8.2462548403364941
 20
80.2375000000024841
 30
0.0
 40
1.778
  0
CIRCLE
  5
B3
100
AcDbEntity
100
AcDbCircle
  8
Drawings
 62
256
370
-1
  6
ByLayer
 10
-0.0026371307103119
 20
85.0000000000025153
 30
0.0
 40
12.6999999999999993
  0
CIRCLE
  5
B4
100
AcDbEntity
100
AcDbCircle
  8
Drawings - Roton Acme - 3/8"
 62
256
370
-1
  6
ByLayer
 10
-0.0026371307103119
 20
85.0000000000025153
 30
0.0
 40
7.9375
  0
CIRCLE
  5
B5
100
AcDbEntity
100
AcDbCircle
  8
Drawings - Roton Acme - 3/8"
 62
256
370
-1
  6
ByLayer
 10
-0.0026371307103119
 20
96.1125000000025125
 30
0.0
 40
1.778
  0
CIRCLE
  5
B6
100
AcDbEntity
100
AcDbCircle
  8
Drawings - Roton Acme - 3/8"
 62
256
370
-1
  6
ByLayer
 10
-9.6263444302648864
 20
79.4437500000025238
 30
0.0
 40
1.778
  0
CIRCLE
  5
B7
100
AcDbEntity
100
AcDbCircle
  8
Drawings - Roton Acme - 3/8"
 62
256
370
-1
  6
ByLayer
 10
9.6210701688442573
 20
79.4437500000025096
 30
0.0
 40
1.778
  0
CIRCLE
  5
B8
100
AcDbEntity
100
AcDbCircle
  8
Drawings
 62
256
370
-1
  6
ByLayer
 10
-0.0026371307103119
 20
85.0000000000025153
 30
0.0
 40
14.2874999999999996
  0
LINE
  5
B9
100
AcDbEntity
100
AcDbLine
  8
Drawings
 62
256
370
-1
  6
ByLayer
 10
-102.5030255221615363
 20
-52.0000000000006963
 30
0.0
 11
102.4973628692897734
 21
-51.9999999999990621
 31
0.0
  0
LINE
  5
BA
100
AcDbEntity
100
AcDbLine
  8
Drawings
 62
256
370
-1
  6
ByLayer
 10
-105.0026371307103119
 20
159.9586781535676323
 30
0.0
 11
-105.0026371307103119
 21
-73.7568067549317874
 31
0.0
  0
LINE
  5
BB
100
AcDbEntity
100
AcDbLine
  8
Drawings
 62
256
370
-1
  6
ByLayer
 10
-0.0026371307103119
 20
159.9586781535686839
 30
0.0
 11
-0.0026371307103119
 21
-73.7568067549318158
 31
0.0
  0
LINE
  5
BC
100
AcDbEntity
100
AcDbLine
  8
Drawings
 62
256
370
-1
  6
ByLayer
 10
104.9973628692896881
 20
159.9586781535697924
 30
0.0
 11
104.9973628692896881
 21
-73.7568067549318442
 31
0.0
  0
MTEXT
  5
BD
100
AcDbEntity
100
AcDbMText
  8
Text
 62
256
370
-1
  6
ByLayer
 10
0.0
 20
0.0
 30
0.0
 40
5.0
 41
100.0
 71
5
 72
2
  1
Z\~Stage
  7
standard
 50
0.0
 73
1
 44
1.0
  0
MTEXT
  5
BE
100
AcDbEntity
100
AcDbMText
  8
Text
 62
256
370
-1
  6
ByLayer
 10
0.0
 20
70.0
 30
0.0
 40
5.0
 41
100.0
 71
5
 72
2
  1
Bottom
  7
standard
 50
0.0
 73
1
 44
1.0
  0
MTEXT
  5
BF
100
AcDbEntity
100
AcDbMText
  8
Text
 62
256
370
-1
  6
ByLayer
 10
260.0
 20
150.0
 30
0.0
 40
5.0
 41
100.0
 71
5
 72
2
  1
Right
  7
standard
 50
0.0
 73
1
 44
1.0
  0
LINE
  5
C0
100
AcDbEntity
100
AcDbLine
  8
Drawings
 62
256
370
-1
  6
ByLayer
 10
-285.0509678349535534
 20
159.9050552610999034
 30
0.0
 11
-285.0509678349535534
 21
146.9050552610999034
 31
0.0
  0
LINE
  5
C1
100
AcDbEntity
100
AcDbLine
  8
Drawings
 62
256
370
-1
  6
ByLayer
 10
-218.0509678349535534
 20
159.905055261099875
 30
0.0
 11
-218.0509678349535534
 21
146.905055261099875
 31
0.0
  0
MTEXT
  5
C2
100
AcDbEntity
100
AcDbMText
  8
Text
 62
256
370
-1
  6
ByLayer
 10
-260.0052742614206522
 20
149.9999999999998295
 30
0.0
 40
5.0
 41
100.0
 71
5
 72
2
  1
Left
  7
standard
 50
360.0
 73
1
 44
1.0
  0
MTEXT
  5
C3
100
AcDbEntity
100
AcDbMText
  8
Text
 62
256
370
-1
  6
ByLayer
 10
10.0
 20
210.0
 30
0.0
 40
5.0
 41
100.0
 71
5
 72
2
  1
Rib
  7
standard
 50
0.0
 73
1
 44
1.0
  0
INSERT
  5
C4
100
AcDbEntity
100
AcDbBlockReference
  8
01 - Rib
 62
256
370
-1
  6
ByLayer
  2
tgrips
 10
0.0
 20
189.9977604788149108
 30
0.0
 41
1.0
 42
-1.0
 43
1.0
 50
360.0
 44
1.0
 45
1.0
  0
INSERT
  5
C5
100
AcDbEntity
100
AcDbBlockReference
  8
01 - Rib
 62
256
370
-1
  6
ByLayer
  2
tgrips
 10
0.0
 20
230.0022395211850892
 30
0.0
 41
1.0
 42
-1.0
 43
1.0
 50
180.0
 44
1.0
 45
1.0
  0
INSERT
  5
C6
100
AcDbEntity
100
AcDbBlockReference
  8
01 - Rib
 62
256
370
-1
  6
ByLayer
  2
tgrips
 10
-15.0
 20
210.0
 30
0.0
 50
90.0
 44
1.0
 45
1.0
  0
LINE
  5
C7
100
AcDbEntity
100
AcDbLine
  8
01 - Rib
 62
256
370
-1
  6
ByLayer
 10
-15.0
 20
230.0022395211850892
 30
0.0
 11
-14.9999999999999982
 21
225.0
 31
0.0
  0
LINE
  5
C8
100
AcDbEntity
100
AcDbLine
  8
01 - Rib
 62
256
370
-1
  6
ByLayer
 10
-15.0000000000000036
 20
195.0
 30
0.0
 11
-15.0
 21
189.9977604788149108
 31
0.0
  0
LINE
  5
C9
100
AcDbEntity
100
AcDbLine
  8
01 - Rib
 62
256
370
-1
  6
ByLayer
 10
20.0
 20
230.0022395211850892
 30
0.0
 11
20.0
 21
189.9977604788149108
 31
0.0
  0
LINE
  5
CA
100
AcDbEntity
100
AcDbLine
  8
01 - Rib
 62
256
370
-1
  6
ByLayer
 10
15.0
 20
230.0022395211850892
 30
0.0
 11
20.0
 21
230.0022395211850892
 31
0.0
  0
LINE
  5
CB
100
AcDbEntity
100
AcDbLine
  8
01 - Rib
 62
256
370
-1
  6
ByLayer
 10
15.0
 20
189.9977604788149108
 30
0.0
 11
20.0
 21
189.9977604788149108
 31
0.0
  0
INSERT
  5
CC
100
AcDbEntity
100
AcDbBlockReference
  8
02 - Back
 62
256
370
-1
  6
ByLayer
  2
tgrips
 10
-0.0026371307103119
 20
119.9586781535685702
 30
0.0
 50
180.0
 44
1.0
 45
1.0
  0
INSERT
  5
CD
100
AcDbEntity
100
AcDbBlockReference
  8
02 - Back
 62
256
370
-1
  6
ByLayer
  2
tgrips
 10
-0.0026371307103119
 20
159.9586781535685702
 30
0.0
 44
1.0
 45
1.0
  0
INSERT
  5
CE
100
AcDbEntity
100
AcDbBlockReference
  8
02 - Back
 62
256
370
-1
  6
ByLayer
  2
tgrips
 10
-97.5029922314881929
 20
139.9586781535677176
 30
0.0
 50
90.0
 44
1.0
 45
1.0
  0
INSERT
  5
CF
100
AcDbEntity
100
AcDbBlockReference
  8
02 - Back
 62
256
370
-1
  6
ByLayer
  2
tgrips
 10
97.4973628692898302
 20
139.9586781535693945
 30
0.0
 50
-90.0
 44
1.0
 45
1.0
  0
LINE
  5
D0
100
AcDbEntity
100
AcDbLine
  8
02 - Back
 62
256
370
-1
  6
ByLayer
 10
-97.5029922314881929
 20
159.9586781535676892
 30
0.0
 11
-15.0026371307103119
 21
159.9586781535685418
 31
0.0
  0
LINE
  5
D1
100
AcDbEntity
100
AcDbLine
  8
02 - Back
 62
256
370
-1
  6
ByLayer
 10
-97.5029922314881929
 20
154.9586781535677176
 30
0.0
 11
-97.5029922314881929
 21
159.9586781535676892
 31
0.0
  0
LINE
  5
D2
100
AcDbEntity
100
AcDbLine
  8
02 - Back
 62
256
370
-1
  6
ByLayer
 10
97.4973628692898302
 20
154.9586781535693945
 30
0.0
 11
97.4973628692898302
 21
159.9586781535693945
 31
0.0
  0
LINE
  5
D3
100
AcDbEntity
100
AcDbLine
  8
02 - Back
 62
256
370
-1
  6
ByLayer
 10
14.9973628692896881
 20
159.9586781535685418
 30
0.0
 11
97.4973628692898302
 21
159.9586781535693945
 31
0.0
  0
LINE
  5
D4
100
AcDbEntity
100
AcDbLine
  8
02 - Back
 62
256
370
-1
  6
ByLayer
 10
14.9973628692896881
 20
119.9586781535685702
 30
0.0
 11
97.4973628692898302
 21
119.9586781535693945
 31
0.0
  0
LINE
  5
D5
100
AcDbEntity
100
AcDbLine
  8
02 - Back
 62
256
370
-1
  6
ByLayer
 10
97.4973628692898302
 20
124.9586781535693945
 30
0.0
 11
97.4973628692898302
 21
119.9586781535693945
 31
0.0
  0
LINE
  5
D6
100
AcDbEntity
100
AcDbLine
  8
02 - Back
 62
256
370
-1
  6
ByLayer
 10
-97.5029922314881929
 20
124.9586781535677176
 30
0.0
 11
-97.5029922314881929
 21
119.9586781535676892
 31
0.0
  0
LINE
  5
D7
100
AcDbEntity
100
AcDbLine
  8
02 - Back
 62
256
370
-1
  6
ByLayer
 10
-97.5029922314881929
 20
119.9586781535676892
 30
0.0
 11
-15.0026371307103119
 21
119.9586781535685702
 31
0.0
  0
INSERT
  5
D8
100
AcDbEntity
100
AcDbBlockReference
  8
02 - Back
 62
256
370
-1
  6
ByLayer
  2
tcutout
 10
49.9973628692898302
 20
139.9586781535676892
 30
0.0
 50
90.0
 44
1.0
 45
1.0
  0
MTEXT
  5
D9
100
AcDbEntity
100
AcDbMText
  8
Text
 62
256
370
-1
  6
ByLayer
 10
0.0
 20
140.0
 30
0.0
 40
5.0
 41
100.0
 71
5
 72
2
  1
Back
  7
standard
 50
0.0
 73
1
 44
1.0
  0
INSERT
  5
DA
100
AcDbEntity
100
AcDbBlockReference
  8
04 - Left
 62
256
370
-1
  6
ByLayer
  2
tgrips
 10
-285.0509678349535534
 20
159.9050552610999034
 30
0.0
 50
0.0201461944275637
 44
1.0
 45
1.0
  0
LINE
  5
DB
100
AcDbEntity
100
AcDbLine
  8
04 - Left
 62
256
370
-1
  6
ByLayer
 10
-300.0509669076925547
 20
159.8997809998424486
 30
0.0
 11
-304.30776664454811
 21
159.8982842348220856
 31
0.0
  0
ARC
  5
DC
100
AcDbEntity
  8
04 - Left
 62
256
370
-1
  6
ByLayer
100
AcDbCircle
 10
-304.3068876010052577
 20
157.3982843893658128
 30
0.0
 40
2.5
100
AcDbArc
 50
90.0201461944224803
 51
180.0201461944275536
  0
INSERT
  5
DD
100
AcDbEntity
100
AcDbBlockReference
  8
04 - Left
 62
256
370
-1
  6
ByLayer
  2
tgrips
 10
-145.0591735733889323
 20
159.95652245703792
 30
0.0
 44
1.0
 45
1.0
  0
INSERT
  5
DE
100
AcDbEntity
100
AcDbBlockReference
  8
04 - Left
 62
256
370
-1
  6
ByLayer
  2
tgrips
 10
-145.0287147087048538
 20
119.9520434146678127
 30
0.0
 50
180.0
 44
1.0
 45
1.0
  0
LINE
  5
DF
100
AcDbEntity
100
AcDbLine
  8
04 - Left
 62
256
370
-1
  6
ByLayer
 10
-165.5483125143618679
 20
119.9470720060105435
 30
0.0
 11
-160.0287147087048538
 21
119.9470720060105435
 31
0.0
  0
LINE
  5
E0
100
AcDbEntity
100
AcDbLine
  8
04 - Left
 62
256
370
-1
  6
ByLayer
 10
-130.0591735733889323
 20
159.95652245703792
 30
0.0
 11
-122.5547855464731555
 21
159.95652245703792
 31
0.0
  0
LINE
  5
E1
100
AcDbEntity
100
AcDbLine
  8
04 - Left
 62
256
370
-1
  6
ByLayer
 10
-130.0287147087048538
 20
119.9520434146678127
 30
0.0
 11
-122.5407166518564992
 21
119.9445860148344281
 31
0.0
  0
LINE
  5
E2
100
AcDbEntity
100
AcDbLine
  8
04 - Left
 62
256
370
-1
  6
ByLayer
 10
-122.5547855464731555
 20
159.95652245703792
 30
0.0
 11
-122.5407166518564992
 21
119.9445860148344281
 31
0.0
  0
INSERT
  5
E3
100
AcDbEntity
100
AcDbBlockReference
  8
04 - Left
 62
256
370
-1
  6
ByLayer
  2
tgrips
 10
-218.0509678349535534
 20
159.905055261099875
 30
0.0
 44
1.0
 45
1.0
  0
LINE
  5
E4
100
AcDbEntity
100
AcDbLine
  8
04 - Left
 62
256
370
-1
  6
ByLayer
 10
-270.0509687622146657
 20
159.9103295223588361
 30
0.0
 11
-233.0509678349535534
 21
159.905055261099875
 31
0.0
  0
LINE
  5
E5
100
AcDbEntity
100
AcDbLine
  8
04 - Left
 62
256
370
-1
  6
ByLayer
 10
-203.0509678349535534
 20
159.905055261099875
 30
0.0
 11
-160.0591735733889323
 21
159.95652245703792
 31
0.0
  0
LINE
  5
E6
100
AcDbEntity
100
AcDbLine
  8
04 - Left
 62
256
370
-1
  6
ByLayer
 10
-306.8068874464618716
 20
157.3974053458221078
 30
0.0
 11
-306.8053141922313216
 21
152.9230702975533234
 31
0.0
  0
LINE
  5
E7
100
AcDbEntity
100
AcDbLine
  8
04 - Left
 62
256
370
-1
  6
ByLayer
 10
-293.9030781706794073
 20
138.0757558894552801
 30
0.0
 11
-165.5483125143618679
 21
119.9470720060105435
 31
0.0
  0
ARC
  5
E8
100
AcDbEntity
  8
04 - Left
 62
256
370
-1
  6
ByLayer
100
AcDbCircle
 10
-291.805315119492434
 20
152.9283445588110339
 30
0.0
 40
15.0
100
AcDbArc
 50
180.0201461944275536
 51
261.9607831635292996
  0
INSERT
  5
E9
100
AcDbEntity
100
AcDbBlockReference
  8
06 - Top
 62
256
370
-1
  6
ByLayer
  2
tcutout
 10
49.9973628692898302
 20
85.0000000000017195
 30
0.0
 50
90.0
 44
1.0
 45
1.0
  0
ARC
  5
EA
100
AcDbEntity
  8
06 - Top
 62
256
370
-1
  6
ByLayer
100
AcDbCircle
 10
-102.5030255221615079
 20
104.9999999999945288
 30
0.0
 40
2.5
100
AcDbArc
 50
90.0
 51
180.0002543228183072
  0
ARC
  5
EB
100
AcDbEntity
  8
06 - Top
 62
256
370
-1
  6
ByLayer
100
AcDbCircle
 10
102.4973628692898018
 20
104.9999999999961489
 30
0.0
 40
2.5
100
AcDbArc
 50
360.0
 51
90.0
  0
LINE
  5
EC
100
AcDbEntity
100
AcDbLine
  8
06 - Top
 62
256
370
-1
  6
ByLayer
 10
-102.5030255221615079
 20
107.4999999999945288
 30
0.0
 11
102.4973628692898018
 21
107.4999999999961631
 31
0.0
  0
CIRCLE
  5
ED
100
AcDbEntity
100
AcDbCircle
  8
06 - Top
 62
256
370
-1
  6
ByLayer
 10
51.9973628692896952
 20
-51.9999999999999005
 30
0.0
 40
2.5
  0
CIRCLE
  5
EE
100
AcDbEntity
100
AcDbCircle
  8
06 - Top
 62
256
370
-1
  6
ByLayer
 10
-52.0026371307103048
 20
-51.9999999999996589
 30
0.0
 40
2.5
  0
LINE
  5
EF
100
AcDbEntity
100
AcDbLine
  8
06 - Top
 62
256
370
-1
  6
ByLayer
 10
34.997362861301383
 20
-52.000528767376295
 30
0.0
 11
34.997362861301383
 21
-52.000528767376295
 31
0.0
  0
ARC
  5
F0
100
AcDbEntity
  8
06 - Top
 62
256
370
-1
  6
ByLayer
100
AcDbCircle
 10
-0.0026371307103119
 20
-51.9999999999998437
 30
0.0
 40
35.0
100
AcDbArc
 50
0.0
 51
180.0
  0
LINE
  5
F1
100
AcDbEntity
100
AcDbLine
  8
06 - Top
 62
256
370
-1
  6
ByLayer
 10
-35.0026371307103048
 20
-52.0000000000002061
 30
0.0
 11
-35.0026371307103048
 21
-71.2568067549321995
 31
0.0
  0
ARC
  5
F2
100
AcDbEntity
  8
06 - Top
 62
256
370
-1
  6
ByLayer
100
AcDbCircle
 10
-37.5026371307103048
 20
-71.2568067549321995
 30
0.0
 40
2.5
100
AcDbArc
 50
270.0000000000006821
 51
0.0
  0
LINE
  5
F3
100
AcDbEntity
100
AcDbLine
  8
06 - Top
 62
256
370
-1
  6
ByLayer
 10
34.9973628692896881
 20
-51.9999999999995524
 30
0.0
 11
34.9973628692896881
 21
-71.2568067549315174
 31
0.0
  0
ARC
  5
F4
100
AcDbEntity
  8
06 - Top
 62
256
370
-1
  6
ByLayer
100
AcDbCircle
 10
37.4973628692896881
 20
-71.2568067549315174
 30
0.0
 40
2.5
100
AcDbArc
 50
180.0
 51
270.0000000000005116
  0
ARC
  5
F5
100
AcDbEntity
  8
06 - Top
 62
256
370
-1
  6
ByLayer
100
AcDbCircle
 10
-102.5022487392098895
 20
-71.2568067549326258
 30
0.0
 40
2.5
100
AcDbArc
 50
180.0002543228183072
 51
270.0
  0
LINE
  5
F6
100
AcDbEntity
100
AcDbLine
  8
06 - Top
 62
256
370
-1
  6
ByLayer
 10
-102.5022487392098895
 20
-73.7568067549326543
 30
0.0
 11
-37.5026371307102764
 21
-73.7568067549321995
 31
0.0
  0
ARC
  5
F7
100
AcDbEntity
  8
06 - Top
 62
256
370
-1
  6
ByLayer
100
AcDbCircle
 10
102.497362869289546
 20
-71.2568067549310626
 30
0.0
 40
2.5
100
AcDbArc
 50
270.0
 51
0.0
  0
LINE
  5
F8
100
AcDbEntity
100
AcDbLine
  8
06 - Top
 62
256
370
-1
  6
ByLayer
 10
37.4973628692897094
 20
-73.7568067549315174
 30
0.0
 11
102.497362869289546
 21
-73.7568067549310626
 31
0.0
  0
LINE
  5
F9
100
AcDbEntity
100
AcDbLine
  8
06 - Top
 62
256
370
-1
  6
ByLayer
 10
104.9973628692895744
 20
-71.2568067549310626
 30
0.0
 11
104.9973628692898018
 21
105.0000000000008242
 31
0.0
  0
LINE
  5
FA
100
AcDbEntity
100
AcDbLine
  8
06 - Top
 62
256
370
-1
  6
ByLayer
 10
-105.0030255221368805
 20
104.9999889030681715
 30
0.0
 11
-105.0022487391852479
 21
-71.2568178518319542
 31
0.0
  0
INSERT
  5
FB
100
AcDbEntity
100
AcDbBlockReference
  8
03 - Bottom
 62
256
370
-1
  6
ByLayer
  2
tcutout
 10
-50.0029922314882072
 20
85.0000000000032969
 30
0.0
 50
270.0
 44
1.0
 45
1.0
  0
INSERT
  5
FC
100
AcDbEntity
100
AcDbBlockReference
  8
06 - Top
 62
256
370
-1
  6
ByLayer
  2
tcutout
 10
-50.0029922314882072
 20
85.0000000000032969
 30
0.0
 50
270.0
 44
1.0
 45
1.0
  0
INSERT
  5
FD
100
AcDbEntity
100
AcDbBlockReference
  8
02 - Back
 62
256
370
-1
  6
ByLayer
  2
tcutout
 10
-50.0029922314881929
 20
139.9586781535677176
 30
0.0
 50
270.0
 44
1.0
 45
1.0
  0
LINE
  5
FE
100
AcDbEntity
100
AcDbLine
  8
Drawings
 62
256
370
-1
  6
ByLayer
 10
-97.5029922314881929
 20
159.9586781535676607
 30
0.0
 11
-97.5029922314881929
 21
-73.7568067549326258
 31
0.0
  0
INSERT
  5
FF
100
AcDbEntity
100
AcDbBlockReference
  8
06 - Top
 62
256
370
-1
  6
ByLayer
  2
tcutout
 10
-97.5029922314881929
 20
85.0000000000040927
 30
0.0
 50
90.0
 44
1.0
 45
1.0
  0
INSERT
  5
100
100
AcDbEntity
100
AcDbBlockReference
  8
06 - Top
 62
256
370
-1
  6
ByLayer
  2
tcutout
 10
-97.5029922314882498
 20
-51.9999999999959073
 30
0.0
 50
90.0
 44
1.0
 45
1.0
  0
INSERT
  5
101
100
AcDbEntity
100
AcDbBlockReference
  8
06 - Top
 62
256
370
-1
  6
ByLayer
  2
tcutout
 10
-97.5029922314881929
 20
15.0000000000041016
 30
0.0
 50
90.0
 44
1.0
 45
1.0
  0
INSERT
  5
102
100
AcDbEntity
100
AcDbBlockReference
  8
03 - Bottom
 62
256
370
-1
  6
ByLayer
  2
tcutout
 10
-97.5029922314881929
 20
85.0000000000040927
 30
0.0
 50
90.0
 44
1.0
 45
1.0
  0
LINE
  5
103
100
AcDbEntity
100
AcDbLine
  8
Drawings
 62
256
370
-1
  6
ByLayer
 10
-130.0591735733889323
 20
159.95652245703792
 30
0.0
 11
-130.0287147087048538
 21
119.9520434146678127
 31
0.0
  0
INSERT
  5
104
100
AcDbEntity
100
AcDbBlockReference
  8
04 - Left
 62
256
370
-1
  6
ByLayer
  2
tcutout
 10
-130.0439474875057044
 20
139.9586781535677176
 30
0.0
 50
270.0
 44
1.0
 45
1.0
  0
LINE
  5
105
100
AcDbEntity
100
AcDbLine
  8
Drawings
 62
256
370
-1
  6
ByLayer
 10
-97.5029922314881929
 20
100.0000000000040927
 30
0.0
 11
99.9973628692850411
 21
100.0000000000009237
 31
0.0
  0
INSERT
  5
106
100
AcDbEntity
100
AcDbBlockReference
  8
03 - Bottom
 62
256
370
-1
  6
ByLayer
  2
tcutout
 10
-0.0026371307103119
 20
100.0000000000073044
 30
0.0
 44
1.0
 45
1.0
  0
INSERT
  5
107
100
AcDbEntity
100
AcDbBlockReference
  8
06 - Top
 62
256
370
-1
  6
ByLayer
  2
tcutout
 10
-0.0026371307103091
 20
100.0000000000025295
 30
0.0
 44
1.0
 45
1.0
  0
LINE
  5
108
100
AcDbEntity
100
AcDbLine
  8
Drawings
 62
256
370
-1
  6
ByLayer
 10
285.0456935735330148
 20
159.9050552610997613
 30
0.0
 11
285.0456935735330148
 21
146.9050552610997045
 31
0.0
  0
LINE
  5
109
100
AcDbEntity
100
AcDbLine
  8
Drawings
 62
256
370
-1
  6
ByLayer
 10
218.0456935735330148
 20
159.9050552610997897
 30
0.0
 11
218.0456935735330433
 21
146.905055261099676
 31
0.0
  0
INSERT
  5
10A
100
AcDbEntity
100
AcDbBlockReference
  8
04 - Left
 62
256
370
-1
  6
ByLayer
  2
tgrips
 10
285.0456935735330148
 20
159.9050552610997613
 30
0.0
 41
1.0
 42
-1.0
 43
1.0
 50
179.9798538055724464
 44
1.0
 45
1.0
  0
LINE
  5
10B
100
AcDbEntity
100
AcDbLine
  8
04 - Left
 62
256
370
-1
  6
ByLayer
 10
300.0456926462719593
 20
159.8997809998424771
 30
0.0
 11
304.3024923831275146
 21
159.8982842348221425
 31
0.0
  0
ARC
  5
10C
100
AcDbEntity
  8
04 - Left
 62
256
370
-1
  6
ByLayer
100
AcDbCircle
 10
304.3016133395847191
 20
157.3982843893656423
 30
0.0
 40
2.5
100
AcDbArc
 50
359.979853805572418
 51
89.9798538055774912
  0
INSERT
  5
10D
100
AcDbEntity
100
AcDbBlockReference
  8
04 - Left
 62
256
370
-1
  6
ByLayer
  2
tgrips
 10
145.0538993119683084
 20
159.95652245703792
 30
0.0
 41
1.0
 42
-1.0
 43
1.0
 50
180.0
 44
1.0
 45
1.0
  0
INSERT
  5
10E
100
AcDbEntity
100
AcDbBlockReference
  8
04 - Left
 62
256
370
-1
  6
ByLayer
  2
tgrips
 10
145.0234404472842868
 20
119.9520434146677985
 30
0.0
 41
1.0
 42
-1.0
 43
1.0
 50
360.0
 44
1.0
 45
1.0
  0
LINE
  5
10F
100
AcDbEntity
100
AcDbLine
  8
04 - Left
 62
256
370
-1
  6
ByLayer
 10
165.5430382529413293
 20
119.9470720060104725
 30
0.0
 11
160.0234404472843153
 21
119.9470720060103588
 31
0.0
  0
LINE
  5
110
100
AcDbEntity
100
AcDbLine
  8
04 - Left
 62
256
370
-1
  6
ByLayer
 10
130.0538993119684221
 20
159.9565224570378632
 30
0.0
 11
122.5495112850525459
 21
159.95652245703792
 31
0.0
  0
LINE
  5
111
100
AcDbEntity
100
AcDbLine
  8
04 - Left
 62
256
370
-1
  6
ByLayer
 10
130.0234404472842868
 20
119.9520434146677701
 30
0.0
 11
122.5354423904359038
 21
119.9445860148343854
 31
0.0
  0
LINE
  5
112
100
AcDbEntity
100
AcDbLine
  8
04 - Left
 62
256
370
-1
  6
ByLayer
 10
122.5495112850525459
 20
159.95652245703792
 30
0.0
 11
122.5354423904359038
 21
119.9445860148343854
 31
0.0
  0
INSERT
  5
113
100
AcDbEntity
100
AcDbBlockReference
  8
04 - Left
 62
256
370
-1
  6
ByLayer
  2
tgrips
 10
218.0456935735330148
 20
159.9050552610997897
 30
0.0
 41
1.0
 42
-1.0
 43
1.0
 50
180.0
 44
1.0
 45
1.0
  0
LINE
  5
114
100
AcDbEntity
100
AcDbLine
  8
04 - Left
 62
256
370
-1
  6
ByLayer
 10
270.0456945007940703
 20
159.910329522358893
 30
0.0
 11
233.0456935735329864
 21
159.9050552610998182
 31
0.0
  0
LINE
  5
115
100
AcDbEntity
100
AcDbLine
  8
04 - Left
 62
256
370
-1
  6
ByLayer
 10
203.0456935735330433
 20
159.9050552610997045
 30
0.0
 11
160.0538993119683084
 21
159.9565224570379485
 31
0.0
  0
LINE
  5
116
100
AcDbEntity
100
AcDbLine
  8
04 - Left
 62
256
370
-1
  6
ByLayer
 10
306.8016131850412194
 20
157.3974053458221078
 30
0.0
 11
306.8000399308106694
 21
152.9230702975534655
 31
0.0
  0
LINE
  5
117
100
AcDbEntity
100
AcDbLine
  8
04 - Left
 62
256
370
-1
  6
ByLayer
 10
293.8978039092588688
 20
138.0757558894551664
 30
0.0
 11
165.5430382529413293
 21
119.9470720060104725
 31
0.0
  0
ARC
  5
118
100
AcDbEntity
  8
04 - Left
 62
256
370
-1
  6
ByLayer
100
AcDbCircle
 10
291.8000408580718386
 20
152.9283445588111192
 30
0.0
 40
15.0
100
AcDbArc
 50
278.0392168364707004
 51
359.979853805572418
  0
LINE
  5
119
100
AcDbEntity
100
AcDbLine
  8
Drawings
 62
256
370
-1
  6
ByLayer
 10
130.0538993119684221
 20
159.9565224570378632
 30
0.0
 11
130.0234404472842868
 21
119.9520434146677701
 31
0.0
  0
INSERT
  5
11A
100
AcDbEntity
100
AcDbBlockReference
  8
04 - Left
 62
256
370
-1
  6
ByLayer
  2
tcutout
 10
130.0386732260851375
 20
139.9586781535676892
 30
0.0
 41
1.0
 42
-1.0
 43
1.0
 50
270.0
 44
1.0
 45
1.0
  0
CIRCLE
  5
11B
100
AcDbEntity
100
AcDbCircle
  8
06 - Top
 62
256
370
-1
  6
ByLayer
 10
-0.0026371307103119
 20
85.0000000000025011
 30
0.0
 40
8.0
  0
INSERT
  5
11C
100
AcDbEntity
100
AcDbBlockReference
  8
03 - Bottom
 62
256
370
-1
  6
ByLayer
  2
tcutout
 10
97.4973628692898302
 20
85.0000000000057128
 30
0.0
 50
270.0
 44
1.0
 45
1.0
  0
LINE
  5
11D
100
AcDbEntity
100
AcDbLine
  8
Drawings
 62
256
370
-1
  6
ByLayer
 10
97.4973628692898302
 20
159.9586781535697071
 30
0.0
 11
97.4973628692898302
 21
-73.7568067549310769
 31
0.0
  0
INSERT
  5
11E
100
AcDbEntity
100
AcDbBlockReference
  8
06 - Top
 62
256
370
-1
  6
ByLayer
  2
tcutout
 10
97.4973628692850411
 20
85.0000000000009237
 30
0.0
 50
270.0
 44
1.0
 45
1.0
  0
INSERT
  5
11F
100
AcDbEntity
100
AcDbBlockReference
  8
06 - Top
 62
256
370
-1
  6
ByLayer
  2
tcutout
 10
97.4973628692898302
 20
15.0000000000009255
 30
0.0
 50
270.0
 44
1.0
 45
1.0
  0
INSERT
  5
120
100
AcDbEntity
100
AcDbBlockReference
  8
06 - Top
 62
256
370
-1
  6
ByLayer
  2
tcutout
 10
97.4973628692897734
 20
-51.9999999999990763
 30
0.0
 50
270.0
 44
1.0
 45
1.0
  0
LINE
  5
121
100
AcDbEntity
100
AcDbLine
  8
Drawings
 62
256
370
-1
  6
ByLayer
 10
-95.5029922314881929
 20
90.0000000000040927
 30
0.0
 11
-95.5029922314881929
 21
80.0000000000040927
 31
0.0
  0
CIRCLE
  5
122
100
AcDbEntity
100
AcDbCircle
  8
Drawings
 62
256
370
-1
  6
ByLayer
 10
-86.0029922314881929
 20
85.000000000003979
 30
0.0
 40
7.0
  0
CIRCLE
  5
123
100
AcDbEntity
100
AcDbCircle
  8
Drawings - Rods
 62
256
370
-1
  6
ByLayer
 10
-86.0029922314881929
 20
85.000000000003979
 30
0.0
 40
9.5
  0
CIRCLE
  5
124
100
AcDbEntity
100
AcDbCircle
  8
03 - Bottom
 62
256
370
-1
  6
ByLayer
 10
-86.0029922314881929
 20
85.000000000003979
 30
0.0
 40
7.9000000000000004
  0
CIRCLE
  5
125
100
AcDbEntity
100
AcDbCircle
  8
06 - Top
 62
256
370
-1
  6
ByLayer
 10
-86.0029922314881929
 20
85.000000000003979
 30
0.0
 40
7.9000000000000004
  0
LINE
  5
126
100
AcDbEntity
100
AcDbLine
  8
Drawings
 62
256
370
-1
  6
ByLayer
 10
95.4973628692898302
 20
90.0000000000057128
 30
0.0
 11
95.4973628692898302
 21
80.0000000000057128
 31
0.0
  0
CIRCLE
  5
127
100
AcDbEntity
100
AcDbCircle
  8
Drawings
 62
256
370
-1
  6
ByLayer
 10
86.0000000000032969
 20
85.0000000000011227
 30
0.0
 40
7.0
  0
CIRCLE
  5
128
100
AcDbEntity
100
AcDbCircle
  8
Drawings - Rods
 62
256
370
-1
  6
ByLayer
 10
86.0000000000033111
 20
85.0000000000058407
 30
0.0
 40
9.5
  0
CIRCLE
  5
129
100
AcDbEntity
100
AcDbCircle
  8
03 - Bottom
 62
256
370
-1
  6
ByLayer
 10
86.0000000000033111
 20
85.0000000000058407
 30
0.0
 40
7.9000000000000004
  0
CIRCLE
  5
12A
100
AcDbEntity
100
AcDbCircle
  8
06 - Top
 62
256
370
-1
  6
ByLayer
 10
86.0000000000033111
 20
85.0000000000058407
 30
0.0
 40
7.9000000000000004
  0
ENDSEC
  0
SECTION
  2
OBJECTS
  0
DICTIONARY
  5
C
100
AcDbDictionary
280
0
281
1
  3
ACAD_GROUP
350
D
  3
ACAD_LAYOUT
350
1A
  3
ACAD_MLINESTYLE
350
17
  3
ACAD_PLOTSETTINGS
350
19
  3
ACAD_PLOTSTYLENAME
350
E
  3
AcDbVariableDictionary
350
12B
  0
DICTIONARY
  5
D
100
AcDbDictionary
280
0
281
1
  0
ACDBDICTIONARYWDFLT
  5
E
100
AcDbDictionary
281
1
  3
Normal
350
F
100
AcDbDictionaryWithDefault
340
F
  0
ACDBPLACEHOLDER
  5
F
  0
DICTIONARY
  5
17
100
AcDbDictionary
280
0
281
1
  3
Standard
350
18
  0
MLINESTYLE
  5
18
100
AcDbMlineStyle
  2
STANDARD
 70
0
  3

 62
256
 51
90.0
 52
90.0
 71
2
 49
0.5
 62
256
  6
BYLAYER
 49
-0.5
 62
256
  6
BYLAYER
  0
DICTIONARY
  5
19
100
AcDbDictionary
280
0
281
1
  0
DICTIONARY
  5
1A
100
AcDbDictionary
281
1
  3
Layout1
350
1E
  3
Layout2
350
26
  3
Model
350
22
  0
LAYOUT
  5
1E
100
AcDbPlotSettings
  1

  2
C:\Program Files\AutoCAD 2002\plotters\DWF ePlot (optimized for plotting).pc3
  4

  6

 40
0.0
 41
0.0
 42
0.0
 43
0.0
 44
0.0
 45
0.0
 46
0.0
 47
0.0
 48
0.0
 49
0.0
140
0.0
141
0.0
142
1.0
143
1.0
 70
688
 72
0
 73
0
 74
5
  7

 75
16
147
1.0
148
0.0
149
0.0
100
AcDbLayout
  1
Layout1
 70
1
 71
1
 10
0.0
 20
0.0
 11
420.0
 21
297.0
 12
0.0
 22
0.0
 32
0.0
 14
100000000000000000000.0
 24
100000000000000000000.0
 34
100000000000000000000.0
 15
-100000000000000000000.0
 25
-100000000000000000000.0
 35
-100000000000000000000.0
146
0.0
 13
0.0
 23
0.0
 33
0.0
 16
1.0
 26
0.0
 36
0.0
 17
0.0
 27
1.0
 37
0.0
 76
0
330
1B
  0
LAYOUT
  5
22
100
AcDbPlotSettings
  1

  2
C:\Program Files\AutoCAD 2002\plotters\DWF ePlot (optimized for plotting).pc3
  4

  6

 40
0.0
 41
0.0
 42
0.0
 43
0.0
 44
0.0
 45
0.0
 46
0.0
 47
0.0
 48
0.0
 49
0.0
140
0.0
141
0.0
142
1.0
143
1.0
 70
1712
 72
0
 73
0
 74
0
  7

 75
0
147
1.0
148
0.0
149
0.0
100
AcDbLayout
  1
Model
 70
1
 71
0
 10
0.0
 20
0.0
 11
12.0
 21
9.0
 12
0.0
 22
0.0
 32
0.0
 14
0.0
 24
0.0
 34
0.0
 15
0.0
 25
0.0
 35
0.0
146
0.0
 13
0.0
 23
0.0
 33
0.0
 16
1.0
 26
0.0
 36
0.0
 17
0.0
 27
1.0
 37
0.0
 76
0
330
1F
  0
LAYOUT
  5
26
100
AcDbPlotSettings
  1

  2
C:\Program Files\AutoCAD 2002\plotters\DWF ePlot (optimized for plotting).pc3
  4

  6

 40
0.0
 41
0.0
 42
0.0
 43
0.0
 44
0.0
 45
0.0
 46
0.0
 47
0.0
 48
0.0
 49
0.0
140
0.0
141
0.0
142
1.0
143
1.0
 70
688
 72
0
 73
0
 74
5
  7

 75
16
147
1.0
148
0.0
149
0.0
100
AcDbLayout
  1
Layout2
 70
1
 71
2
 10
0.0
 20
0.0
 11
12.0
 21
9.0
 12
0.0
 22
0.0
 32
0.0
 14
0.0
 24
0.0
 34
0.0
 15
0.0
 25
0.0
 35
0.0
146
0.0
 13
0.0
 23
0.0
 33
0.0
 16
1.0
 26
0.0
 36
0.0
 17
0.0
 27
1.0
 37
0.0
 76
0
330
23
  0
DICTIONARY
  5
12B
100
AcDbDictionary
281
1
  3
DIMASSOC
350
12D
  3
HIDETEXT
350
12C
  0
DICTIONARYVAR
  5
12C
100
DictionaryVariables
280
0
  1
2
  0
DICTIONARYVAR
  5
12D
100
DictionaryVariables
280
0
  1
1
  0
ENDSEC
  0
EOF
