999
dxflib 2.2.0.0
  0
SECTION
  2
HEADER
  9
$ACADVER
  1
AC1015
  9
$HANDSEED
  5
FFFF
  9
$DIMASZ
 40
2.5
  9
$PLIMMIN
 10
0.0
 20
0.0
  9
$DIMEXE
 40
1.25
  9
$DIMGAP
 40
0.625
  9
$PLIMMAX
 10
210.0
 20
297.0
  9
$INSUNITS
 70
4
  9
$DIMSTYLE
  2
Standard
  9
$CLAYER
  8
02 - Back
  9
$DIMEXO
 40
0.625
  9
$DIMTXT
 40
2.5
  9
$CLAYER
  8
Drawings - Dual Plastruder
  0
ENDSEC
  0
SECTION
  2
TABLES
  0
TABLE
  2
VPORT
  5
8
100
AcDbSymbolTable
 70
1
  0
VPORT
  5
30
100
AcDbSymbolTableRecord
100
AcDbViewportTableRecord
  2
*Active
 70
0
 10
0.0
 20
0.0
 11
1.0
 21
1.0
 12
286.3055555555554861
 22
148.5
 13
0.0
 23
0.0
 14
10.0
 24
10.0
 15
10.0
 25
10.0
 16
0.0
 26
0.0
 36
1.0
 17
0.0
 27
0.0
 37
0.0
 40
297.0
 41
1.92798353909465
 42
50.0
 43
0.0
 44
0.0
 50
0.0
 51
0.0
 71
0
 72
100
 73
1
 74
3
 75
1
 76
1
 77
0
 78
0
281
0
 65
1
110
0.0
120
0.0
130
0.0
111
1.0
121
0.0
131
0.0
112
0.0
122
1.0
132
0.0
 79
0
146
0.0
  0
ENDTAB
  0
TABLE
  2
LTYPE
  5
5
100
AcDbSymbolTable
 70
21
  0
LTYPE
  5
14
100
AcDbSymbolTableRecord
100
AcDbLinetypeTableRecord
  2
ByBlock
 70
0
  3

 72
65
 73
0
 40
0.0
  0
LTYPE
  5
15
100
AcDbSymbolTableRecord
100
AcDbLinetypeTableRecord
  2
ByLayer
 70
0
  3

 72
65
 73
0
 40
0.0
  0
LTYPE
  5
16
100
AcDbSymbolTableRecord
100
AcDbLinetypeTableRecord
  2
CONTINUOUS
 70
0
  3
Solid line
 72
65
 73
0
 40
0.0
  0
LTYPE
  5
31
100
AcDbSymbolTableRecord
100
AcDbLinetypeTableRecord
  2
DOT
 70
0
  3
Dot . . . . . . . . . . . . . . . . . . . . . .
 72
65
 73
2
 40
6.3499999999999996
 49
0.0
 74
0
 49
-6.3499999999999996
 74
0
  0
LTYPE
  5
32
100
AcDbSymbolTableRecord
100
AcDbLinetypeTableRecord
  2
DOT2
 70
0
  3
Dot (.5x) .....................................
 72
65
 73
2
 40
3.1749999999999998
 49
0.0
 74
0
 49
-3.1749999999999998
 74
0
  0
LTYPE
  5
33
100
AcDbSymbolTableRecord
100
AcDbLinetypeTableRecord
  2
DOTX2
 70
0
  3
Dot (2x) .  .  .  .  .  .  .  .  .  .  .  .  .
 72
65
 73
2
 40
12.6999999999999993
 49
0.0
 74
0
 49
-12.6999999999999993
 74
0
  0
LTYPE
  5
34
100
AcDbSymbolTableRecord
100
AcDbLinetypeTableRecord
  2
DASHED
 70
0
  3
Dashed __ __ __ __ __ __ __ __ __ __ __ __ __ _
 72
65
 73
2
 40
19.0500000000000007
 49
12.6999999999999993
 74
0
 49
-6.3499999999999996
 74
0
  0
LTYPE
  5
35
100
AcDbSymbolTableRecord
100
AcDbLinetypeTableRecord
  2
DASHED2
 70
0
  3
Dashed (.5x) _ _ _ _ _ _ _ _ _ _ _ _ _ _ _ _ _
 72
65
 73
2
 40
9.5250000000000004
 49
6.3499999999999996
 74
0
 49
-3.1749999999999998
 74
0
  0
LTYPE
  5
36
100
AcDbSymbolTableRecord
100
AcDbLinetypeTableRecord
  2
DASHEDX2
 70
0
  3
Dashed (2x) ____  ____  ____  ____  ____  ___
 72
65
 73
2
 40
38.1000000000000014
 49
25.3999999999999986
 74
0
 49
-12.6999999999999993
 74
0
  0
LTYPE
  5
37
100
AcDbSymbolTableRecord
100
AcDbLinetypeTableRecord
  2
DASHDOT
 70
0
  3
Dash dot __ . __ . __ . __ . __ . __ . __ . __
 72
65
 73
4
 40
25.3999999999999986
 49
12.6999999999999993
 74
0
 49
-6.3499999999999996
 74
0
 49
0.0
 74
0
 49
-6.3499999999999996
 74
0
  0
LTYPE
  5
38
100
AcDbSymbolTableRecord
100
AcDbLinetypeTableRecord
  2
DASHDOT2
 70
0
  3
Dash dot (.5x) _._._._._._._._._._._._._._._.
 72
65
 73
4
 40
12.6999999999999993
 49
6.3499999999999996
 74
0
 49
-3.1749999999999998
 74
0
 49
0.0
 74
0
 49
-3.1749999999999998
 74
0
  0
LTYPE
  5
39
100
AcDbSymbolTableRecord
100
AcDbLinetypeTableRecord
  2
DASHDOTX2
 70
0
  3
Dash dot (2x) ____  .  ____  .  ____  .  ___
 72
65
 73
4
 40
50.7999999999999972
 49
25.3999999999999986
 74
0
 49
-12.6999999999999993
 74
0
 49
0.0
 74
0
 49
-12.6999999999999993
 74
0
  0
LTYPE
  5
3A
100
AcDbSymbolTableRecord
100
AcDbLinetypeTableRecord
  2
DIVIDE
 70
0
  3
Divide ____ . . ____ . . ____ . . ____ . . ____
 72
65
 73
6
 40
31.75
 49
12.6999999999999993
 74
0
 49
-6.3499999999999996
 74
0
 49
0.0
 74
0
 49
-6.3499999999999996
 74
0
 49
0.0
 74
0
 49
-6.3499999999999996
 74
0
  0
LTYPE
  5
3B
100
AcDbSymbolTableRecord
100
AcDbLinetypeTableRecord
  2
DIVIDE2
 70
0
  3
Divide (.5x) __..__..__..__..__..__..__..__.._
 72
65
 73
6
 40
15.875
 49
6.3499999999999996
 74
0
 49
-3.1749999999999998
 74
0
 49
0.0
 74
0
 49
-3.1749999999999998
 74
0
 49
0.0
 74
0
 49
-3.1749999999999998
 74
0
  0
LTYPE
  5
3C
100
AcDbSymbolTableRecord
100
AcDbLinetypeTableRecord
  2
DIVIDEX2
 70
0
  3
Divide (2x) ________  .  .  ________  .  .  _
 72
65
 73
6
 40
63.5
 49
25.3999999999999986
 74
0
 49
-12.6999999999999993
 74
0
 49
0.0
 74
0
 49
-12.6999999999999993
 74
0
 49
0.0
 74
0
 49
-12.6999999999999993
 74
0
  0
LTYPE
  5
3D
100
AcDbSymbolTableRecord
100
AcDbLinetypeTableRecord
  2
CENTER
 70
0
  3
Center ____ _ ____ _ ____ _ ____ _ ____ _ ____
 72
65
 73
4
 40
50.7999999999999972
 49
31.75
 74
0
 49
-6.3499999999999996
 74
0
 49
6.3499999999999996
 74
0
 49
-6.3499999999999996
 74
0
  0
LTYPE
  5
3E
100
AcDbSymbolTableRecord
100
AcDbLinetypeTableRecord
  2
CENTER2
 70
0
  3
Center (.5x) ___ _ ___ _ ___ _ ___ _ ___ _ ___
 72
65
 73
4
 40
28.5749999999999993
 49
19.0500000000000007
 74
0
 49
-3.1749999999999998
 74
0
 49
3.1749999999999998
 74
0
 49
-3.1749999999999998
 74
0
  0
LTYPE
  5
3F
100
AcDbSymbolTableRecord
100
AcDbLinetypeTableRecord
  2
CENTERX2
 70
0
  3
Center (2x) ________  __  ________  __  _____
 72
65
 73
4
 40
101.5999999999999943
 49
63.5
 74
0
 49
-12.6999999999999993
 74
0
 49
12.6999999999999993
 74
0
 49
-12.6999999999999993
 74
0
  0
LTYPE
  5
40
100
AcDbSymbolTableRecord
100
AcDbLinetypeTableRecord
  2
BORDER
 70
0
  3
Border __ __ . __ __ . __ __ . __ __ . __ __ .
 72
65
 73
6
 40
44.4500000000000028
 49
12.6999999999999993
 74
0
 49
-6.3499999999999996
 74
0
 49
12.6999999999999993
 74
0
 49
-6.3499999999999996
 74
0
 49
0.0
 74
0
 49
-6.3499999999999996
 74
0
  0
LTYPE
  5
41
100
AcDbSymbolTableRecord
100
AcDbLinetypeTableRecord
  2
BORDER2
 70
0
  3
Border (.5x) __.__.__.__.__.__.__.__.__.__.__.
 72
65
 73
6
 40
22.2250000000000014
 49
6.3499999999999996
 74
0
 49
-3.1749999999999998
 74
0
 49
6.3499999999999996
 74
0
 49
-3.1749999999999998
 74
0
 49
0.0
 74
0
 49
-3.1749999999999998
 74
0
  0
LTYPE
  5
42
100
AcDbSymbolTableRecord
100
AcDbLinetypeTableRecord
  2
BORDERX2
 70
0
  3
Border (2x) ____  ____  .  ____  ____  .  ___
 72
65
 73
6
 40
88.9000000000000057
 49
25.3999999999999986
 74
0
 49
-12.6999999999999993
 74
0
 49
25.3999999999999986
 74
0
 49
-12.6999999999999993
 74
0
 49
0.0
 74
0
 49
-12.6999999999999993
 74
0
  0
ENDTAB
  0
TABLE
  2
LAYER
  5
2
100
AcDbSymbolTable
 70
17
  0
LAYER
  5
10
100
AcDbSymbolTableRecord
100
AcDbLayerTableRecord
  2
0
 70
0
 62
7
420
0
  6
CONTINUOUS
370
0
390
F
  0
LAYER
  5
43
100
AcDbSymbolTableRecord
100
AcDbLayerTableRecord
  2
Drawings
 70
0
 62
1
420
16711680
  6
CONTINUOUS
370
0
390
F
  0
LAYER
  5
44
100
AcDbSymbolTableRecord
100
AcDbLayerTableRecord
  2
03 - Bottom
 70
0
 62
7
420
0
  6
CONTINUOUS
370
0
390
F
  0
LAYER
  5
45
100
AcDbSymbolTableRecord
100
AcDbLayerTableRecord
  2
Drawings - Rods
 70
0
 62
3
420
65280
  6
CONTINUOUS
370
0
390
F
  0
LAYER
  5
46
100
AcDbSymbolTableRecord
100
AcDbLayerTableRecord
  2
Drawings - TR-8x8 Flange
 70
0
 62
7
420
0
  6
CONTINUOUS
370
0
390
F
  0
LAYER
  5
47
100
AcDbSymbolTableRecord
100
AcDbLayerTableRecord
  2
Drawings - 5/16" Nuts
 70
0
 62
7
420
0
  6
CONTINUOUS
370
0
390
F
  0
LAYER
  5
48
100
AcDbSymbolTableRecord
100
AcDbLayerTableRecord
  2
Drawings - Roton Hi-Lead - 1/4"
 70
0
 62
7
420
0
  6
CONTINUOUS
370
0
390
F
  0
LAYER
  5
49
100
AcDbSymbolTableRecord
100
AcDbLayerTableRecord
  2
Drawings - Roton Acme - 3/8"
 70
0
 62
7
420
0
  6
CONTINUOUS
370
0
390
F
  0
LAYER
  5
4A
100
AcDbSymbolTableRecord
100
AcDbLayerTableRecord
  2
Text
 70
0
 62
1
420
16711680
  6
CONTINUOUS
370
0
390
F
  0
LAYER
  5
4B
100
AcDbSymbolTableRecord
100
AcDbLayerTableRecord
  2
01 - Rib
 70
0
 62
7
420
0
  6
CONTINUOUS
370
0
390
F
  0
LAYER
  5
4C
100
AcDbSymbolTableRecord
100
AcDbLayerTableRecord
  2
02 - Back
 70
0
 62
7
420
0
  6
CONTINUOUS
370
0
390
F
  0
LAYER
  5
4D
100
AcDbSymbolTableRecord
100
AcDbLayerTableRecord
  2
04 - Left
 70
0
 62
7
420
0
  6
CONTINUOUS
370
0
390
F
  0
LAYER
  5
4E
100
AcDbSymbolTableRecord
100
AcDbLayerTableRecord
  2
05 - Right
 70
0
 62
7
420
0
  6
CONTINUOUS
370
0
390
F
  0
LAYER
  5
4F
100
AcDbSymbolTableRecord
100
AcDbLayerTableRecord
  2
06 - Top
 70
0
 62
7
420
0
  6
CONTINUOUS
370
0
390
F
  0
LAYER
  5
50
100
AcDbSymbolTableRecord
100
AcDbLayerTableRecord
  2
6 Dino Brackets
 70
0
 62
7
420
0
  6
CONTINUOUS
370
0
390
F
  0
LAYER
  5
51
100
AcDbSymbolTableRecord
100
AcDbLayerTableRecord
  2
Drawings - Single Plastruder
 70
0
 62
4
420
65535
  6
CONTINUOUS
370
0
390
F
  0
LAYER
  5
52
100
AcDbSymbolTableRecord
100
AcDbLayerTableRecord
  2
Drawings - Dual Plastruder
 70
0
 62
6
420
16711935
  6
CONTINUOUS
370
0
390
F
  0
ENDTAB
  0
TABLE
  2
STYLE
  5
3
100
AcDbSymbolTable
 70
1
  0
STYLE
  5
11
100
AcDbSymbolTableRecord
100
AcDbTextStyleTableRecord
  2
Standard
 70
0
 40
0.0
 41
0.75
 50
0.0
 71
0
 42
2.5
  3
txt
  4

  0
ENDTAB
  0
TABLE
  2
VIEW
  5
6
100
AcDbSymbolTable
 70
0
  0
ENDTAB
  0
TABLE
  2
UCS
  5
7
100
AcDbSymbolTable
 70
0
  0
ENDTAB
  0
TABLE
  2
APPID
  5
9
100
AcDbSymbolTable
 70
1
  0
APPID
  5
12
100
AcDbSymbolTableRecord
100
AcDbRegAppTableRecord
  2
ACAD
 70
0
  0
ENDTAB
  0
TABLE
  2
DIMSTYLE
  5
A
100
AcDbSymbolTable
 70
1
100
AcDbDimStyleTable
 71
0
  0
DIMSTYLE
105
27
100
AcDbSymbolTableRecord
100
AcDbDimStyleTableRecord
  2
Standard
 41
2.5
 42
0.625
 43
3.75
 44
1.25
 70
0
 73
0
 74
0
 77
1
 78
8
140
2.5
141
2.5
143
0.03937007874016
147
0.625
171
3
172
1
271
2
272
2
274
3
278
44
283
0
284
8
340
11
  0
ENDTAB
  0
TABLE
  2
BLOCK_RECORD
  5
1
100
AcDbSymbolTable
 70
1
  0
BLOCK_RECORD
  5
1F
100
AcDbSymbolTableRecord
100
AcDbBlockTableRecord
  2
*Model_Space
340
22
  0
BLOCK_RECORD
  5
1B
100
AcDbSymbolTableRecord
100
AcDbBlockTableRecord
  2
*Paper_Space
340
1E
  0
BLOCK_RECORD
  5
23
100
AcDbSymbolTableRecord
100
AcDbBlockTableRecord
  2
*Paper_Space0
340
26
  0
BLOCK_RECORD
  5
53
100
AcDbSymbolTableRecord
100
AcDbBlockTableRecord
  2
nut cut outs
340
0
  0
BLOCK_RECORD
  5
54
100
AcDbSymbolTableRecord
100
AcDbBlockTableRecord
  2
tgrips
340
0
  0
BLOCK_RECORD
  5
55
100
AcDbSymbolTableRecord
100
AcDbBlockTableRecord
  2
tcutout
340
0
  0
ENDTAB
  0
ENDSEC
  0
SECTION
  2
BLOCKS
  0
BLOCK
  5
20
100
AcDbEntity
  8
0
100
AcDbBlockBegin
  2
*Model_Space
 70
0
 10
0.0
 20
0.0
 30
0.0
  3
*Model_Space
  1

  0
ENDBLK
  5
21
100
AcDbEntity
  8
0
100
AcDbBlockEnd
  0
BLOCK
  5
1C
100
AcDbEntity
 67
1
  8
0
100
AcDbBlockBegin
  2
*Paper_Space
 70
0
 10
0.0
 20
0.0
 30
0.0
  3
*Paper_Space
  1

  0
ENDBLK
  5
1D
100
AcDbEntity
 67
1
  8
0
100
AcDbBlockEnd
  0
BLOCK
  5
24
100
AcDbEntity
  8
0
100
AcDbBlockBegin
  2
*Paper_Space0
 70
0
 10
0.0
 20
0.0
 30
0.0
  3
*Paper_Space0
  1

  0
ENDBLK
  5
25
100
AcDbEntity
  8
0
100
AcDbBlockEnd
  0
BLOCK
  5
56
100
AcDbEntity
  8
0
100
AcDbBlockBegin
  2
nut cut outs
 70
0
 10
0.0
 20
0.0
 30
0.0
  3
nut cut outs
  1

  0
LINE
  5
57
100
AcDbEntity
100
AcDbLine
  8
0
 62
256
370
-1
  6
ByLayer
 10
0.0000000000000007
 20
7.476685487982313
 30
0.0
 11
-6.4749999999999996
 21
3.7383432418284799
 31
0.0
  0
LINE
  5
58
100
AcDbEntity
100
AcDbLine
  8
0
 62
256
370
-1
  6
ByLayer
 10
-6.4749995686991335
 20
3.7383427439911592
 30
0.0
 11
-6.475000215489338
 21
-3.7383428685899975
 31
0.0
  0
LINE
  5
59
100
AcDbEntity
100
AcDbLine
  8
0
 62
256
370
-1
  6
ByLayer
 10
-6.4749995686991362
 20
-3.7383427439911547
 30
0.0
 11
-0.0000002154893356
 21
-7.4766861104184805
 31
0.0
  0
LINE
  5
5A
100
AcDbEntity
100
AcDbLine
  8
0
 62
256
370
-1
  6
ByLayer
 10
-0.0000000000000014
 20
-7.476685487982313
 30
0.0
 11
6.4749999999999996
 21
-3.7383432418284812
 31
0.0
  0
LINE
  5
5B
100
AcDbEntity
100
AcDbLine
  8
0
 62
256
370
-1
  6
ByLayer
 10
6.4749995686991335
 20
-3.7383427439911601
 30
0.0
 11
6.4750002154893389
 21
3.7383428685899966
 31
0.0
  0
LINE
  5
5C
100
AcDbEntity
100
AcDbLine
  8
0
 62
256
370
-1
  6
ByLayer
 10
6.4749995686991388
 20
3.7383427439911507
 30
0.0
 11
0.0000002154893365
 21
7.4766861104184805
 31
0.0
  0
ENDBLK
  5
5D
100
AcDbEntity
  8
0
100
AcDbBlockEnd
  0
BLOCK
  5
5E
100
AcDbEntity
  8
0
100
AcDbBlockBegin
  2
tgrips
 70
0
 10
0.0
 20
0.0
 30
0.0
  3
tgrips
  1

  0
ARC
  5
5F
100
AcDbEntity
  8
0
 62
256
370
-1
  6
ByLayer
100
AcDbCircle
 10
-2.0
 20
-11.5
 30
0.0
 40
0.5
100
AcDbArc
 50
0.0
 51
90.0
  0
ARC
  5
60
100
AcDbEntity
  8
0
 62
256
370
-1
  6
ByLayer
100
AcDbCircle
 10
2.0
 20
-11.5
 30
0.0
 40
0.5
100
AcDbArc
 50
90.0
 51
180.0
  0
ARC
  5
61
100
AcDbEntity
  8
0
 62
256
370
-1
  6
ByLayer
100
AcDbCircle
 10
2.2495808837122491
 20
-8.4995253663561314
 30
0.0
 40
0.5
100
AcDbArc
 50
359.9519473579580904
 51
89.9456307850857399
  0
LINE
  5
62
100
AcDbEntity
100
AcDbLine
  8
0
 62
256
370
-1
  6
ByLayer
 10
2.2500553445470333
 20
-7.9995255914692649
 30
0.0
 11
1.9003349326086765
 21
-7.9991937340426755
 31
0.0
  0
ARC
  5
63
100
AcDbEntity
  8
0
 62
256
370
-1
  6
ByLayer
100
AcDbCircle
 10
1.9008093934434607
 20
-7.4991939591558099
 30
0.0
 40
0.5
100
AcDbArc
 50
180.0
 51
269.9456307850857684
  0
ARC
  5
64
100
AcDbEntity
  8
0
 62
256
370
-1
  6
ByLayer
100
AcDbCircle
 10
-1.9165352659438315
 20
-7.4991995800184572
 30
0.0
 40
0.5
100
AcDbArc
 50
270.0550082898336655
 51
0.005877695893504
  0
LINE
  5
65
100
AcDbEntity
100
AcDbLine
  8
0
 62
256
370
-1
  6
ByLayer
 10
-1.9160552281308325
 20
-7.9991993495821019
 30
0.0
 11
-2.2512606205879857
 21
-7.9995211722574222
 31
0.0
  0
ARC
  5
66
100
AcDbEntity
  8
0
 62
256
370
-1
  6
ByLayer
100
AcDbCircle
 10
-2.2507805827749867
 20
-8.4995209418210678
 30
0.0
 40
0.5
100
AcDbArc
 50
90.0550082898336655
 51
179.9103959594471576
  0
LINE
  5
67
100
AcDbEntity
100
AcDbLine
  8
0
 62
256
370
-1
  6
ByLayer
 10
-2.7507799713406231
 20
-8.4987389993744173
 30
0.0
 11
-2.7539084941448415
 21
-10.4992180575533514
 31
0.0
  0
LINE
  5
68
100
AcDbEntity
100
AcDbLine
  8
0
 62
256
370
-1
  6
ByLayer
 10
-2.2539091055792051
 20
-11.0
 30
0.0
 11
-2.0
 21
-11.0
 31
0.0
  0
ARC
  5
69
100
AcDbEntity
  8
0
 62
256
370
-1
  6
ByLayer
100
AcDbCircle
 10
-2.2539091055792051
 20
-10.5
 30
0.0
 40
0.5
100
AcDbArc
 50
179.9103959594471576
 51
270.0
  0
LINE
  5
6A
100
AcDbEntity
100
AcDbLine
  8
0
 62
256
370
-1
  6
ByLayer
 10
2.0
 20
-11.0
 30
0.0
 11
2.2479031316186195
 21
-11.0
 31
0.0
  0
LINE
  5
6B
100
AcDbEntity
100
AcDbLine
  8
0
 62
256
370
-1
  6
ByLayer
 10
2.7495807078675583
 20
-8.4999447047159791
 30
0.0
 11
2.7479029557739287
 21
-10.5004193383598494
 31
0.0
  0
ARC
  5
6C
100
AcDbEntity
  8
0
 62
256
370
-1
  6
ByLayer
100
AcDbCircle
 10
2.2479031316186195
 20
-10.5
 30
0.0
 40
0.5
100
AcDbArc
 50
270.0
 51
359.9519473579580904
  0
LINE
  5
6D
100
AcDbEntity
100
AcDbLine
  8
0
 62
256
370
-1
  6
ByLayer
 10
-1.5
 20
-11.5
 30
0.0
 11
-1.5
 21
-12.5
 31
0.0
  0
ARC
  5
6E
100
AcDbEntity
  8
0
 62
256
370
-1
  6
ByLayer
100
AcDbCircle
 10
-1.0
 20
-12.5
 30
0.0
 40
0.5
100
AcDbArc
 50
180.0
 51
270.0
  0
LINE
  5
6F
100
AcDbEntity
100
AcDbLine
  8
0
 62
256
370
-1
  6
ByLayer
 10
1.5
 20
-12.5
 30
0.0
 11
1.5
 21
-11.5
 31
0.0
  0
LINE
  5
70
100
AcDbEntity
100
AcDbLine
  8
0
 62
256
370
-1
  6
ByLayer
 10
-1.0
 20
-13.0
 30
0.0
 11
1.0
 21
-13.0
 31
0.0
  0
ARC
  5
71
100
AcDbEntity
  8
0
 62
256
370
-1
  6
ByLayer
100
AcDbCircle
 10
1.0
 20
-12.5
 30
0.0
 40
0.5
100
AcDbArc
 50
270.0
 51
0.0
  0
LINE
  5
72
100
AcDbEntity
100
AcDbLine
  8
0
 62
256
370
-1
  6
ByLayer
 10
1.9014327663442394
 20
0.0038631286911689
 30
0.0
 11
5.0
 21
0.0
 31
0.0
  0
LINE
  5
73
100
AcDbEntity
100
AcDbLine
  8
0
 62
256
370
-1
  6
ByLayer
 10
1.4008093934434609
 20
-7.4991939591558019
 30
0.0
 11
1.4008093934435593
 21
-0.4961364827149
 31
0.0
  0
ARC
  5
74
100
AcDbEntity
  8
0
 62
256
370
-1
  6
ByLayer
100
AcDbCircle
 10
1.9008093934435593
 20
-0.4961364827149068
 30
0.0
 40
0.5
100
AcDbArc
 50
89.9285667089507115
 51
180.0
  0
LINE
  5
75
100
AcDbEntity
100
AcDbLine
  8
0
 62
256
370
-1
  6
ByLayer
 10
-1.417157535814185
 20
-0.4999555472137959
 30
0.0
 11
-1.4165352685747592
 21
-7.499148287445899
 31
0.0
  0
LINE
  5
76
100
AcDbEntity
100
AcDbLine
  8
0
 62
256
370
-1
  6
ByLayer
 10
-5.0
 20
0.0
 30
0.0
 11
-1.9171575338381346
 21
0.0
 31
0.0
  0
ARC
  5
77
100
AcDbEntity
  8
0
 62
256
370
-1
  6
ByLayer
100
AcDbCircle
 10
-1.9171575338381348
 20
-0.5
 30
0.0
 40
0.5
100
AcDbArc
 50
0.0050939140900938
 51
89.9999999999999716
  0
LINE
  5
78
100
AcDbEntity
100
AcDbLine
  8
0
 62
256
370
-1
  6
ByLayer
 10
5.0
 20
0.0
 30
0.0
 11
5.0
 21
3.5
 31
0.0
  0
ARC
  5
79
100
AcDbEntity
  8
0
 62
256
370
-1
  6
ByLayer
100
AcDbCircle
 10
5.5
 20
3.5
 30
0.0
 40
0.5
100
AcDbArc
 50
90.0
 51
180.0
  0
LINE
  5
7A
100
AcDbEntity
100
AcDbLine
  8
0
 62
256
370
-1
  6
ByLayer
 10
5.5
 20
4.0
 30
0.0
 11
14.5
 21
4.0
 31
0.0
  0
LINE
  5
7B
100
AcDbEntity
100
AcDbLine
  8
0
 62
256
370
-1
  6
ByLayer
 10
15.0
 20
3.5
 30
0.0
 11
15.0
 21
0.0
 31
0.0
  0
ARC
  5
7C
100
AcDbEntity
  8
0
 62
256
370
-1
  6
ByLayer
100
AcDbCircle
 10
14.5
 20
3.5
 30
0.0
 40
0.5
100
AcDbArc
 50
0.0
 51
90.0
  0
LINE
  5
7D
100
AcDbEntity
100
AcDbLine
  8
0
 62
256
370
-1
  6
ByLayer
 10
-5.0
 20
3.5
 30
0.0
 11
-5.0
 21
0.0
 31
0.0
  0
ARC
  5
7E
100
AcDbEntity
  8
0
 62
256
370
-1
  6
ByLayer
100
AcDbCircle
 10
-5.5
 20
3.5
 30
0.0
 40
0.5
100
AcDbArc
 50
0.0
 51
90.0
  0
LINE
  5
7F
100
AcDbEntity
100
AcDbLine
  8
0
 62
256
370
-1
  6
ByLayer
 10
-15.0
 20
0.0
 30
0.0
 11
-15.0
 21
3.5
 31
0.0
  0
LINE
  5
80
100
AcDbEntity
100
AcDbLine
  8
0
 62
256
370
-1
  6
ByLayer
 10
-14.5
 20
4.0
 30
0.0
 11
-5.5
 21
4.0
 31
0.0
  0
ARC
  5
81
100
AcDbEntity
  8
0
 62
256
370
-1
  6
ByLayer
100
AcDbCircle
 10
-14.5
 20
3.5
 30
0.0
 40
0.5
100
AcDbArc
 50
90.0
 51
180.0
  0
ENDBLK
  5
82
100
AcDbEntity
  8
0
100
AcDbBlockEnd
  0
BLOCK
  5
83
100
AcDbEntity
  8
0
100
AcDbBlockBegin
  2
tcutout
 70
0
 10
0.0
 20
0.0
 30
0.0
  3
tcutout
  1

  0
LINE
  5
84
100
AcDbEntity
100
AcDbLine
  8
0
 62
256
370
-1
  6
ByLayer
 10
-15.0
 20
0.0000000000000031
 30
0.0
 11
-5.0
 21
-0.0000000000000009
 31
0.0
  0
LINE
  5
85
100
AcDbEntity
100
AcDbLine
  8
0
 62
256
370
-1
  6
ByLayer
 10
5.0
 20
0.0000000000000004
 30
0.0
 11
15.0
 21
0.0000000000000027
 31
0.0
  0
LINE
  5
86
100
AcDbEntity
100
AcDbLine
  8
0
 62
256
370
-1
  6
ByLayer
 10
5.0
 20
4.5
 30
0.0
 11
15.0
 21
4.5000000000000027
 31
0.0
  0
LINE
  5
87
100
AcDbEntity
100
AcDbLine
  8
0
 62
256
370
-1
  6
ByLayer
 10
-14.9999999999999982
 20
4.5000000000000036
 30
0.0
 11
-4.9999999999999982
 21
4.4999999999999991
 31
0.0
  0
LINE
  5
88
100
AcDbEntity
100
AcDbLine
  8
0
 62
256
370
-1
  6
ByLayer
 10
-15.0
 20
0.0000000000000031
 30
0.0
 11
-14.9999999999999982
 21
4.5000000000000036
 31
0.0
  0
LINE
  5
89
100
AcDbEntity
100
AcDbLine
  8
0
 62
256
370
-1
  6
ByLayer
 10
-4.9999999999999982
 20
4.4999999999999991
 30
0.0
 11
-5.0
 21
-0.0000000000000004
 31
0.0
  0
LINE
  5
8A
100
AcDbEntity
100
AcDbLine
  8
0
 62
256
370
-1
  6
ByLayer
 10
5.0
 20
0.0000000000000004
 30
0.0
 11
5.0
 21
4.5
 31
0.0
  0
LINE
  5
8B
100
AcDbEntity
100
AcDbLine
  8
0
 62
256
370
-1
  6
ByLayer
 10
15.0
 20
4.5000000000000027
 30
0.0
 11
15.0
 21
0.0000000000000027
 31
0.0
  0
CIRCLE
  5
8C
100
AcDbEntity
100
AcDbCircle
  8
0
 62
256
370
-1
  6
ByLayer
 10
0.0000000000000004
 20
2.2499999999999996
 30
0.0
 40
1.5
  0
LINE
  5
8D
100
AcDbEntity
100
AcDbLine
  8
Drawings
 62
256
370
-1
  6
ByLayer
 10
5.0
 20
2.2499999999999996
 30
0.0
 11
-5.0
 21
2.2499999999999996
 31
0.0
  0
ENDBLK
  5
8E
100
AcDbEntity
  8
0
100
AcDbBlockEnd
  0
ENDSEC
  0
SECTION
  2
ENTITIES
  0
LINE
  5
8F
100
AcDbEntity
100
AcDbLine
  8
Drawings
 62
256
370
-1
  6
ByLayer
 10
10.0
 20
97.0
 30
0.0
 11
10.0
 21
73.0
 31
0.0
  0
LINE
  5
90
100
AcDbEntity
100
AcDbLine
  8
Drawings
 62
256
370
-1
  6
ByLayer
 10
-15.0000000000000018
 20
92.0
 30
0.0
 11
14.9999999999999982
 21
92.0
 31
0.0
  0
LINE
  5
91
100
AcDbEntity
100
AcDbLine
  8
Drawings
 62
256
370
-1
  6
ByLayer
 10
-10.0
 20
73.0
 30
0.0
 11
-10.0
 21
97.0
 31
0.0
  0
LINE
  5
92
100
AcDbEntity
100
AcDbLine
  8
Drawings
 62
256
370
-1
  6
ByLayer
 10
15.0000000000000018
 20
78.0
 30
0.0
 11
-14.9999999999999982
 21
78.0
 31
0.0
  0
ARC
  5
93
100
AcDbEntity
  8
03 - Bottom
 62
256
370
-1
  6
ByLayer
100
AcDbCircle
 10
-102.5029922314881929
 20
67.5000000000042348
 30
0.0
 40
2.5
100
AcDbArc
 50
180.0
 51
270.0
  0
ARC
  5
94
100
AcDbEntity
  8
03 - Bottom
 62
256
370
-1
  6
ByLayer
100
AcDbCircle
 10
102.4973628692898302
 20
67.5000000000056843
 30
0.0
 40
2.5
100
AcDbArc
 50
270.0
 51
0.0
  0
LINE
  5
95
100
AcDbEntity
100
AcDbLine
  8
03 - Bottom
 62
256
370
-1
  6
ByLayer
 10
-102.5029922314881929
 20
65.0000000000041211
 30
0.0
 11
102.4973628692898302
 21
65.000000000005798
 31
0.0
  0
LINE
  5
96
100
AcDbEntity
100
AcDbLine
  8
Drawings
 62
256
370
-1
  6
ByLayer
 10
-105.0026371307103119
 20
15.0000000000041815
 30
0.0
 11
104.9973628692896597
 21
15.0000000000008509
 31
0.0
  0
LINE
  5
97
100
AcDbEntity
100
AcDbLine
  8
Drawings
 62
256
370
-1
  6
ByLayer
 10
-105.0029478438909649
 20
85.000000000004178
 30
0.0
 11
104.9973628692897449
 21
85.0000000000008527
 31
0.0
  0
LINE
  5
98
100
AcDbEntity
100
AcDbLine
  8
Drawings
 62
256
370
-1
  6
ByLayer
 10
-130.0439449137644772
 20
139.9586781535677176
 30
0.0
 11
130.0439449137644772
 21
139.9586781535676892
 31
0.0
  0
LINE
  5
99
100
AcDbEntity
100
AcDbLine
  8
Drawings
 62
256
370
-1
  6
ByLayer
 10
-50.0029922314881929
 20
159.9586781535682007
 30
0.0
 11
-50.0029922314881929
 21
67.4999999999993037
 31
0.0
  0
LINE
  5
9A
100
AcDbEntity
100
AcDbLine
  8
Drawings
 62
256
370
-1
  6
ByLayer
 10
49.9973628692898302
 20
159.9586781535692239
 30
0.0
 11
49.9973628692898302
 21
67.5000000000009521
 31
0.0
  0
INSERT
  5
9B
100
AcDbEntity
100
AcDbBlockReference
  8
03 - Bottom
 62
256
370
-1
  6
ByLayer
  2
tcutout
 10
49.9973628692898302
 20
85.0000000000017195
 30
0.0
 50
90.0
 44
1.0
 45
1.0
  0
ARC
  5
9C
100
AcDbEntity
  8
03 - Bottom
 62
256
370
-1
  6
ByLayer
100
AcDbCircle
 10
-102.5029922314881929
 20
104.9999999999994031
 30
0.0
 40
2.5
100
AcDbArc
 50
90.0
 51
180.0
  0
ARC
  5
9D
100
AcDbEntity
  8
03 - Bottom
 62
256
370
-1
  6
ByLayer
100
AcDbCircle
 10
102.4973628692898302
 20
105.0000000000008242
 30
0.0
 40
2.5
100
AcDbArc
 50
0.0
 51
90.0
  0
LINE
  5
9E
100
AcDbEntity
100
AcDbLine
  8
03 - Bottom
 62
256
370
-1
  6
ByLayer
 10
-102.5029922314881929
 20
107.499999999999261
 30
0.0
 11
102.4973628692898302
 21
107.5000000000009095
 31
0.0
  0
LINE
  5
9F
100
AcDbEntity
100
AcDbLine
  8
03 - Bottom
 62
256
370
-1
  6
ByLayer
 10
104.9973628692898018
 20
104.9999999999961489
 30
0.0
 11
104.9973628692898018
 21
67.5000000000055422
 31
0.0
  0
LINE
  5
A0
100
AcDbEntity
100
AcDbLine
  8
03 - Bottom
 62
256
370
-1
  6
ByLayer
 10
-105.0030255221380173
 20
104.9999891666130054
 30
0.0
 11
-105.0029922314881929
 21
67.5000000000042064
 31
0.0
  0
CIRCLE
  5
A1
100
AcDbEntity
100
AcDbCircle
  8
Drawings - TR-8x8 Flange
 62
256
370
-1
  6
ByLayer
 10
-0.0026371307103119
 20
85.0000000000025011
 30
0.0
 40
5.0
  0
CIRCLE
  5
A2
100
AcDbEntity
100
AcDbCircle
  8
Drawings - TR-8x8 Flange
 62
256
370
-1
  6
ByLayer
 10
-0.0026371307103119
 20
93.0000000000025295
 30
0.0
 40
1.5
  0
CIRCLE
  5
A3
100
AcDbEntity
100
AcDbCircle
  8
Drawings - TR-8x8 Flange
 62
256
370
-1
  6
ByLayer
 10
7.997362869289816
 20
85.0000000000023874
 30
0.0
 40
1.5
  0
CIRCLE
  5
A4
100
AcDbEntity
100
AcDbCircle
  8
Drawings - TR-8x8 Flange
 62
256
370
-1
  6
ByLayer
 10
-8.0026371307104256
 20
85.0000000000026432
 30
0.0
 40
1.5
  0
CIRCLE
  5
A5
100
AcDbEntity
100
AcDbCircle
  8
Drawings - TR-8x8 Flange
 62
256
370
-1
  6
ByLayer
 10
-0.0026371307103119
 20
77.0000000000024869
 30
0.0
 40
1.5
  0
CIRCLE
  5
A6
100
AcDbEntity
100
AcDbCircle
  8
Drawings
 62
256
370
-1
  6
ByLayer
 10
-0.0026371307103119
 20
85.0000000000025011
 30
0.0
 40
11.0
  0
INSERT
  5
A7
100
AcDbEntity
100
AcDbBlockReference
  8
Drawings - 5/16" Nuts
 62
256
370
-1
  6
ByLayer
  2
nut cut outs
 10
-0.0026371307103119
 20
85.0000000000001421
 30
0.0
 44
1.0
 45
1.0
  0
CIRCLE
  5
A8
100
AcDbEntity
100
AcDbCircle
  8
Drawings - 5/16" Nuts
 62
256
370
-1
  6
ByLayer
 10
10.0
 20
92.0
 30
0.0
 40
1.5
  0
CIRCLE
  5
A9
100
AcDbEntity
100
AcDbCircle
  8
Drawings - 5/16" Nuts
 62
256
370
-1
  6
ByLayer
 10
10.0
 20
78.0
 30
0.0
 40
1.5
  0
CIRCLE
  5
AA
100
AcDbEntity
100
AcDbCircle
  8
Drawings - 5/16" Nuts
 62
256
370
-1
  6
ByLayer
 10
-9.9999999999999982
 20
78.0
 30
0.0
 40
1.5
  0
CIRCLE
  5
AB
100
AcDbEntity
100
AcDbCircle
  8
Drawings - 5/16" Nuts
 62
256
370
-1
  6
ByLayer
 10
-10.0
 20
92.0
 30
0.0
 40
1.5
  0
CIRCLE
  5
AC
100
AcDbEntity
100
AcDbCircle
  8
Drawings - Roton Hi-Lead - 1/4"
 62
256
370
-1
  6
ByLayer
 10
-0.0026371307103119
 20
85.0000000000025011
 30
0.0
 40
6.3499999999999996
  0
CIRCLE
  5
AD
100
AcDbEntity
100
AcDbCircle
  8
Drawings - Roton Hi-Lead - 1/4"
 62
256
370
-1
  6
ByLayer
 10
-0.0026371307103119
 20
94.5250000000025352
 30
0.0
 40
1.778
  0
CIRCLE
  5
AE
100
AcDbEntity
100
AcDbCircle
  8
Drawings - Roton Hi-Lead - 1/4"
 62
256
370
-1
  6
ByLayer
 10
-8.2515291017571215
 20
80.2375000000024841
 30
0.0
 40
1.778
  0
CIRCLE
  5
AF
100
AcDbEntity
100
AcDbCircle
  8
Drawings - Roton Hi-Lead - 1/4"
 62
256
370
-1
  6
ByLayer
 10
8.2462548403364941
 20
80.2375000000024841
 30
0.0
 40
1.778
  0
CIRCLE
  5
B0
100
AcDbEntity
100
AcDbCircle
  8
Drawings
 62
256
370
-1
  6
ByLayer
 10
-0.0026371307103119
 20
85.0000000000025153
 30
0.0
 40
12.6999999999999993
  0
CIRCLE
  5
B1
100
AcDbEntity
100
AcDbCircle
  8
Drawings - Roton Acme - 3/8"
 62
256
370
-1
  6
ByLayer
 10
-0.0026371307103119
 20
85.0000000000025153
 30
0.0
 40
7.9375
  0
CIRCLE
  5
B2
100
AcDbEntity
100
AcDbCircle
  8
Drawings - Roton Acme - 3/8"
 62
256
370
-1
  6
ByLayer
 10
-0.0026371307103119
 20
96.1125000000025125
 30
0.0
 40
1.778
  0
CIRCLE
  5
B3
100
AcDbEntity
100
AcDbCircle
  8
Drawings - Roton Acme - 3/8"
 62
256
370
-1
  6
ByLayer
 10
-9.6263444302648864
 20
79.4437500000025238
 30
0.0
 40
1.778
  0
CIRCLE
  5
B4
100
AcDbEntity
100
AcDbCircle
  8
Drawings - Roton Acme - 3/8"
 62
256
370
-1
  6
ByLayer
 10
9.6210701688442573
 20
79.4437500000025096
 30
0.0
 40
1.778
  0
CIRCLE
  5
B5
100
AcDbEntity
100
AcDbCircle
  8
Drawings
 62
256
370
-1
  6
ByLayer
 10
-0.0026371307103119
 20
85.0000000000025153
 30
0.0
 40
14.2874999999999996
  0
LINE
  5
B6
100
AcDbEntity
100
AcDbLine
  8
Drawings
 62
256
370
-1
  6
ByLayer
 10
-102.5030255221615363
 20
-52.0000000000006963
 30
0.0
 11
102.4973628692897734
 21
-51.9999999999990621
 31
0.0
  0
MTEXT
  5
B7
100
AcDbEntity
100
AcDbMText
  8
Text
 62
256
370
-1
  6
ByLayer
 10
0.0
 20
70.0
 30
0.0
 40
5.0
 41
100.0
 71
5
 72
2
  1
Bottom
  7
standard
 50
0.0
 73
0
 44
1.0
  0
MTEXT
  5
B8
100
AcDbEntity
100
AcDbMText
  8
Text
 62
256
370
-1
  6
ByLayer
 10
260.0
 20
150.0
 30
0.0
 40
5.0
 41
100.0
 71
5
 72
2
  1
Right
  7
standard
 50
0.0
 73
0
 44
1.0
  0
LINE
  5
B9
100
AcDbEntity
100
AcDbLine
  8
Drawings
 62
256
370
-1
  6
ByLayer
 10
-285.0509678349535534
 20
159.9050552610999034
 30
0.0
 11
-285.0509678349535534
 21
146.9050552610999034
 31
0.0
  0
LINE
  5
BA
100
AcDbEntity
100
AcDbLine
  8
Drawings
 62
256
370
-1
  6
ByLayer
 10
-218.0509678349535534
 20
159.905055261099875
 30
0.0
 11
-218.0509678349535534
 21
146.905055261099875
 31
0.0
  0
MTEXT
  5
BB
100
AcDbEntity
100
AcDbMText
  8
Text
 62
256
370
-1
  6
ByLayer
 10
-260.0052742614206522
 20
149.9999999999998295
 30
0.0
 40
5.0
 41
100.0
 71
5
 72
2
  1
Left
  7
standard
 50
360.0
 73
0
 44
1.0
  0
MTEXT
  5
BC
100
AcDbEntity
100
AcDbMText
  8
Text
 62
256
370
-1
  6
ByLayer
 10
10.0
 20
210.0
 30
0.0
 40
5.0
 41
100.0
 71
5
 72
2
  1
Rib
  7
standard
 50
0.0
 73
0
 44
1.0
  0
INSERT
  5
BD
100
AcDbEntity
100
AcDbBlockReference
  8
01 - Rib
 62
256
370
-1
  6
ByLayer
  2
tgrips
 10
0.0
 20
189.9977604788149108
 30
0.0
 41
1.0
 42
-1.0
 43
1.0
 50
360.0
 44
1.0
 45
1.0
  0
INSERT
  5
BE
100
AcDbEntity
100
AcDbBlockReference
  8
01 - Rib
 62
256
370
-1
  6
ByLayer
  2
tgrips
 10
0.0
 20
230.0022395211850892
 30
0.0
 41
1.0
 42
-1.0
 43
1.0
 50
180.0
 44
1.0
 45
1.0
  0
INSERT
  5
BF
100
AcDbEntity
100
AcDbBlockReference
  8
01 - Rib
 62
256
370
-1
  6
ByLayer
  2
tgrips
 10
-15.0
 20
210.0
 30
0.0
 50
90.0
 44
1.0
 45
1.0
  0
LINE
  5
C0
100
AcDbEntity
100
AcDbLine
  8
01 - Rib
 62
256
370
-1
  6
ByLayer
 10
-15.0
 20
230.0022395211850892
 30
0.0
 11
-14.9999999999999982
 21
225.0
 31
0.0
  0
LINE
  5
C1
100
AcDbEntity
100
AcDbLine
  8
01 - Rib
 62
256
370
-1
  6
ByLayer
 10
-15.0000000000000036
 20
195.0
 30
0.0
 11
-15.0
 21
189.9977604788149108
 31
0.0
  0
LINE
  5
C2
100
AcDbEntity
100
AcDbLine
  8
01 - Rib
 62
256
370
-1
  6
ByLayer
 10
20.0
 20
230.0022395211850892
 30
0.0
 11
20.0
 21
189.9977604788149108
 31
0.0
  0
LINE
  5
C3
100
AcDbEntity
100
AcDbLine
  8
01 - Rib
 62
256
370
-1
  6
ByLayer
 10
15.0
 20
230.0022395211850892
 30
0.0
 11
20.0
 21
230.0022395211850892
 31
0.0
  0
LINE
  5
C4
100
AcDbEntity
100
AcDbLine
  8
01 - Rib
 62
256
370
-1
  6
ByLayer
 10
15.0
 20
189.9977604788149108
 30
0.0
 11
20.0
 21
189.9977604788149108
 31
0.0
  0
INSERT
  5
C5
100
AcDbEntity
100
AcDbBlockReference
  8
02 - Back
 62
256
370
-1
  6
ByLayer
  2
tgrips
 10
-0.0026371307103119
 20
119.9586781535685702
 30
0.0
 50
180.0
 44
1.0
 45
1.0
  0
INSERT
  5
C6
100
AcDbEntity
100
AcDbBlockReference
  8
02 - Back
 62
256
370
-1
  6
ByLayer
  2
tgrips
 10
-0.0026371307103119
 20
159.9586781535685702
 30
0.0
 44
1.0
 45
1.0
  0
INSERT
  5
C7
100
AcDbEntity
100
AcDbBlockReference
  8
02 - Back
 62
256
370
-1
  6
ByLayer
  2
tgrips
 10
-97.5029922314881929
 20
139.9586781535677176
 30
0.0
 50
90.0
 44
1.0
 45
1.0
  0
INSERT
  5
C8
100
AcDbEntity
100
AcDbBlockReference
  8
02 - Back
 62
256
370
-1
  6
ByLayer
  2
tgrips
 10
97.4973628692898302
 20
139.9586781535693945
 30
0.0
 50
-90.0
 44
1.0
 45
1.0
  0
LINE
  5
C9
100
AcDbEntity
100
AcDbLine
  8
02 - Back
 62
256
370
-1
  6
ByLayer
 10
-97.5029922314881929
 20
159.9586781535676892
 30
0.0
 11
-15.0026371307103119
 21
159.9586781535685418
 31
0.0
  0
LINE
  5
CA
100
AcDbEntity
100
AcDbLine
  8
02 - Back
 62
256
370
-1
  6
ByLayer
 10
-97.5029922314881929
 20
154.9586781535677176
 30
0.0
 11
-97.5029922314881929
 21
159.9586781535676892
 31
0.0
  0
LINE
  5
CB
100
AcDbEntity
100
AcDbLine
  8
02 - Back
 62
256
370
-1
  6
ByLayer
 10
97.4973628692898302
 20
154.9586781535693945
 30
0.0
 11
97.4973628692898302
 21
159.9586781535693945
 31
0.0
  0
LINE
  5
CC
100
AcDbEntity
100
AcDbLine
  8
02 - Back
 62
256
370
-1
  6
ByLayer
 10
14.9973628692896881
 20
159.9586781535685418
 30
0.0
 11
97.4973628692898302
 21
159.9586781535693945
 31
0.0
  0
LINE
  5
CD
100
AcDbEntity
100
AcDbLine
  8
02 - Back
 62
256
370
-1
  6
ByLayer
 10
14.9973628692896881
 20
119.9586781535685702
 30
0.0
 11
97.4973628692898302
 21
119.9586781535693945
 31
0.0
  0
LINE
  5
CE
100
AcDbEntity
100
AcDbLine
  8
02 - Back
 62
256
370
-1
  6
ByLayer
 10
97.4973628692898302
 20
124.9586781535693945
 30
0.0
 11
97.4973628692898302
 21
119.9586781535693945
 31
0.0
  0
LINE
  5
CF
100
AcDbEntity
100
AcDbLine
  8
02 - Back
 62
256
370
-1
  6
ByLayer
 10
-97.5029922314881929
 20
124.9586781535677176
 30
0.0
 11
-97.5029922314881929
 21
119.9586781535676892
 31
0.0
  0
INSERT
  5
D0
100
AcDbEntity
100
AcDbBlockReference
  8
02 - Back
 62
256
370
-1
  6
ByLayer
  2
tcutout
 10
49.9973628692898302
 20
139.9586781535676892
 30
0.0
 50
90.0
 44
1.0
 45
1.0
  0
MTEXT
  5
D1
100
AcDbEntity
100
AcDbMText
  8
Text
 62
256
370
-1
  6
ByLayer
 10
0.0
 20
140.0
 30
0.0
 40
5.0
 41
100.0
 71
5
 72
2
  1
Back
  7
standard
 50
0.0
 73
0
 44
1.0
  0
INSERT
  5
D2
100
AcDbEntity
100
AcDbBlockReference
  8
04 - Left
 62
256
370
-1
  6
ByLayer
  2
tgrips
 10
-285.0509678349535534
 20
159.9050552610999034
 30
0.0
 50
0.0201461944275637
 44
1.0
 45
1.0
  0
LINE
  5
D3
100
AcDbEntity
100
AcDbLine
  8
04 - Left
 62
256
370
-1
  6
ByLayer
 10
-300.0509669076925547
 20
159.8997809998424486
 30
0.0
 11
-304.30776664454811
 21
159.8982842348220856
 31
0.0
  0
INSERT
  5
D4
100
AcDbEntity
100
AcDbBlockReference
  8
04 - Left
 62
256
370
-1
  6
ByLayer
  2
tgrips
 10
-145.0591735733889323
 20
159.95652245703792
 30
0.0
 44
1.0
 45
1.0
  0
INSERT
  5
D5
100
AcDbEntity
100
AcDbBlockReference
  8
04 - Left
 62
256
370
-1
  6
ByLayer
  2
tgrips
 10
-145.0287147087048538
 20
119.9520434146678127
 30
0.0
 50
180.0
 44
1.0
 45
1.0
  0
LINE
  5
D6
100
AcDbEntity
100
AcDbLine
  8
04 - Left
 62
256
370
-1
  6
ByLayer
 10
-165.5483125143618679
 20
119.9470720060105435
 30
0.0
 11
-160.0287147087048538
 21
119.9470720060105435
 31
0.0
  0
LINE
  5
D7
100
AcDbEntity
100
AcDbLine
  8
04 - Left
 62
256
370
-1
  6
ByLayer
 10
-130.0591735733889323
 20
159.95652245703792
 30
0.0
 11
-122.5547855464731555
 21
159.95652245703792
 31
0.0
  0
LINE
  5
D8
100
AcDbEntity
100
AcDbLine
  8
04 - Left
 62
256
370
-1
  6
ByLayer
 10
-130.0287147087048538
 20
119.9520434146678127
 30
0.0
 11
-122.5407166518564992
 21
119.9445860148344281
 31
0.0
  0
LINE
  5
D9
100
AcDbEntity
100
AcDbLine
  8
04 - Left
 62
256
370
-1
  6
ByLayer
 10
-122.5547855464731555
 20
159.95652245703792
 30
0.0
 11
-122.5407166518564992
 21
119.9445860148344281
 31
0.0
  0
INSERT
  5
DA
100
AcDbEntity
100
AcDbBlockReference
  8
04 - Left
 62
256
370
-1
  6
ByLayer
  2
tgrips
 10
-218.0509678349535534
 20
159.905055261099875
 30
0.0
 44
1.0
 45
1.0
  0
LINE
  5
DB
100
AcDbEntity
100
AcDbLine
  8
04 - Left
 62
256
370
-1
  6
ByLayer
 10
-270.0509687622146657
 20
159.9103295223588361
 30
0.0
 11
-233.0509678349535534
 21
159.905055261099875
 31
0.0
  0
LINE
  5
DC
100
AcDbEntity
100
AcDbLine
  8
04 - Left
 62
256
370
-1
  6
ByLayer
 10
-203.0509678349535534
 20
159.905055261099875
 30
0.0
 11
-160.0591735733889323
 21
159.95652245703792
 31
0.0
  0
INSERT
  5
DD
100
AcDbEntity
100
AcDbBlockReference
  8
06 - Top
 62
256
370
-1
  6
ByLayer
  2
tcutout
 10
49.9973628692898302
 20
85.0000000000017195
 30
0.0
 50
90.0
 44
1.0
 45
1.0
  0
ARC
  5
DE
100
AcDbEntity
  8
06 - Top
 62
256
370
-1
  6
ByLayer
100
AcDbCircle
 10
-102.5030255221615079
 20
104.9999999999945288
 30
0.0
 40
2.5
100
AcDbArc
 50
90.0
 51
180.0002543228183072
  0
ARC
  5
DF
100
AcDbEntity
  8
06 - Top
 62
256
370
-1
  6
ByLayer
100
AcDbCircle
 10
102.4973628692898018
 20
104.9999999999961489
 30
0.0
 40
2.5
100
AcDbArc
 50
360.0
 51
90.0
  0
LINE
  5
E0
100
AcDbEntity
100
AcDbLine
  8
06 - Top
 62
256
370
-1
  6
ByLayer
 10
-102.5030255221615079
 20
107.4999999999945288
 30
0.0
 11
102.4973628692898018
 21
107.4999999999961631
 31
0.0
  0
LINE
  5
E1
100
AcDbEntity
100
AcDbLine
  8
06 - Top
 62
256
370
-1
  6
ByLayer
 10
34.997362861301383
 20
-52.000528767376295
 30
0.0
 11
34.997362861301383
 21
-52.000528767376295
 31
0.0
  0
INSERT
  5
E2
100
AcDbEntity
100
AcDbBlockReference
  8
03 - Bottom
 62
256
370
-1
  6
ByLayer
  2
tcutout
 10
-50.0029922314882072
 20
85.0000000000032969
 30
0.0
 50
270.0
 44
1.0
 45
1.0
  0
INSERT
  5
E3
100
AcDbEntity
100
AcDbBlockReference
  8
06 - Top
 62
256
370
-1
  6
ByLayer
  2
tcutout
 10
-50.0029922314882072
 20
85.0000000000032969
 30
0.0
 50
270.0
 44
1.0
 45
1.0
  0
INSERT
  5
E4
100
AcDbEntity
100
AcDbBlockReference
  8
02 - Back
 62
256
370
-1
  6
ByLayer
  2
tcutout
 10
-50.0029922314881929
 20
139.9586781535677176
 30
0.0
 50
270.0
 44
1.0
 45
1.0
  0
INSERT
  5
E5
100
AcDbEntity
100
AcDbBlockReference
  8
06 - Top
 62
256
370
-1
  6
ByLayer
  2
tcutout
 10
-97.5029922314881929
 20
85.0000000000040927
 30
0.0
 50
90.0
 44
1.0
 45
1.0
  0
INSERT
  5
E6
100
AcDbEntity
100
AcDbBlockReference
  8
06 - Top
 62
256
370
-1
  6
ByLayer
  2
tcutout
 10
-97.5029922314882498
 20
-51.9999999999959073
 30
0.0
 50
90.0
 44
1.0
 45
1.0
  0
INSERT
  5
E7
100
AcDbEntity
100
AcDbBlockReference
  8
06 - Top
 62
256
370
-1
  6
ByLayer
  2
tcutout
 10
-97.5029922314881929
 20
15.0000000000041016
 30
0.0
 50
90.0
 44
1.0
 45
1.0
  0
INSERT
  5
E8
100
AcDbEntity
100
AcDbBlockReference
  8
03 - Bottom
 62
256
370
-1
  6
ByLayer
  2
tcutout
 10
-97.5029922314881929
 20
85.0000000000040927
 30
0.0
 50
90.0
 44
1.0
 45
1.0
  0
LINE
  5
E9
100
AcDbEntity
100
AcDbLine
  8
Drawings
 62
256
370
-1
  6
ByLayer
 10
-130.0591735733889323
 20
159.95652245703792
 30
0.0
 11
-130.0287147087048538
 21
119.9520434146678127
 31
0.0
  0
INSERT
  5
EA
100
AcDbEntity
100
AcDbBlockReference
  8
04 - Left
 62
256
370
-1
  6
ByLayer
  2
tcutout
 10
-130.0439474875057044
 20
139.9586781535677176
 30
0.0
 50
270.0
 44
1.0
 45
1.0
  0
LINE
  5
EB
100
AcDbEntity
100
AcDbLine
  8
Drawings
 62
256
370
-1
  6
ByLayer
 10
-97.5029922314881929
 20
100.0000000000040927
 30
0.0
 11
99.9973628692850411
 21
100.0000000000009237
 31
0.0
  0
INSERT
  5
EC
100
AcDbEntity
100
AcDbBlockReference
  8
03 - Bottom
 62
256
370
-1
  6
ByLayer
  2
tcutout
 10
-0.0026371307103119
 20
100.0000000000073044
 30
0.0
 44
1.0
 45
1.0
  0
INSERT
  5
ED
100
AcDbEntity
100
AcDbBlockReference
  8
06 - Top
 62
256
370
-1
  6
ByLayer
  2
tcutout
 10
-0.0026371307103091
 20
100.0000000000025295
 30
0.0
 44
1.0
 45
1.0
  0
LINE
  5
EE
100
AcDbEntity
100
AcDbLine
  8
Drawings
 62
256
370
-1
  6
ByLayer
 10
285.0456935735330148
 20
159.9050552610997613
 30
0.0
 11
285.0456935735330148
 21
146.9050552610997045
 31
0.0
  0
LINE
  5
EF
100
AcDbEntity
100
AcDbLine
  8
Drawings
 62
256
370
-1
  6
ByLayer
 10
218.0456935735330148
 20
159.9050552610997897
 30
0.0
 11
218.0456935735330433
 21
146.905055261099676
 31
0.0
  0
LINE
  5
F0
100
AcDbEntity
100
AcDbLine
  8
Drawings
 62
256
370
-1
  6
ByLayer
 10
130.0538993119684221
 20
159.9565224570378632
 30
0.0
 11
130.0234404472842868
 21
119.9520434146677701
 31
0.0
  0
CIRCLE
  5
F1
100
AcDbEntity
100
AcDbCircle
  8
06 - Top
 62
256
370
-1
  6
ByLayer
 10
-0.0026371307103119
 20
85.0000000000025011
 30
0.0
 40
8.0
  0
INSERT
  5
F2
100
AcDbEntity
100
AcDbBlockReference
  8
03 - Bottom
 62
256
370
-1
  6
ByLayer
  2
tcutout
 10
97.4973628692898302
 20
85.0000000000057128
 30
0.0
 50
270.0
 44
1.0
 45
1.0
  0
INSERT
  5
F3
100
AcDbEntity
100
AcDbBlockReference
  8
06 - Top
 62
256
370
-1
  6
ByLayer
  2
tcutout
 10
97.4973628692850411
 20
85.0000000000009237
 30
0.0
 50
270.0
 44
1.0
 45
1.0
  0
INSERT
  5
F4
100
AcDbEntity
100
AcDbBlockReference
  8
06 - Top
 62
256
370
-1
  6
ByLayer
  2
tcutout
 10
97.4973628692898302
 20
15.0000000000009255
 30
0.0
 50
270.0
 44
1.0
 45
1.0
  0
INSERT
  5
F5
100
AcDbEntity
100
AcDbBlockReference
  8
06 - Top
 62
256
370
-1
  6
ByLayer
  2
tcutout
 10
97.4973628692897734
 20
-51.9999999999990763
 30
0.0
 50
270.0
 44
1.0
 45
1.0
  0
LINE
  5
F6
100
AcDbEntity
100
AcDbLine
  8
Drawings
 62
256
370
-1
  6
ByLayer
 10
-95.5029922314881929
 20
90.0000000000040927
 30
0.0
 11
-95.5029922314881929
 21
80.0000000000040927
 31
0.0
  0
CIRCLE
  5
F7
100
AcDbEntity
100
AcDbCircle
  8
Drawings
 62
256
370
-1
  6
ByLayer
 10
-86.0029922314881929
 20
85.000000000003979
 30
0.0
 40
7.0
  0
CIRCLE
  5
F8
100
AcDbEntity
100
AcDbCircle
  8
Drawings - Rods
 62
256
370
-1
  6
ByLayer
 10
-86.0029922314881929
 20
85.000000000003979
 30
0.0
 40
9.5
  0
CIRCLE
  5
F9
100
AcDbEntity
100
AcDbCircle
  8
03 - Bottom
 62
256
370
-1
  6
ByLayer
 10
-86.0029922314881929
 20
85.000000000003979
 30
0.0
 40
7.9000000000000004
  0
CIRCLE
  5
FA
100
AcDbEntity
100
AcDbCircle
  8
06 - Top
 62
256
370
-1
  6
ByLayer
 10
-86.0029922314881929
 20
85.000000000003979
 30
0.0
 40
7.9000000000000004
  0
LINE
  5
FB
100
AcDbEntity
100
AcDbLine
  8
Drawings
 62
256
370
-1
  6
ByLayer
 10
95.4973628692898302
 20
90.0000000000057128
 30
0.0
 11
95.4973628692898302
 21
80.0000000000057128
 31
0.0
  0
CIRCLE
  5
FC
100
AcDbEntity
100
AcDbCircle
  8
Drawings
 62
256
370
-1
  6
ByLayer
 10
86.0000000000032969
 20
85.0000000000011227
 30
0.0
 40
7.0
  0
CIRCLE
  5
FD
100
AcDbEntity
100
AcDbCircle
  8
Drawings - Rods
 62
256
370
-1
  6
ByLayer
 10
86.0000000000033111
 20
85.0000000000058407
 30
0.0
 40
9.5
  0
CIRCLE
  5
FE
100
AcDbEntity
100
AcDbCircle
  8
03 - Bottom
 62
256
370
-1
  6
ByLayer
 10
86.0000000000033111
 20
85.0000000000058407
 30
0.0
 40
7.9000000000000004
  0
CIRCLE
  5
FF
100
AcDbEntity
100
AcDbCircle
  8
06 - Top
 62
256
370
-1
  6
ByLayer
 10
86.0000000000033111
 20
85.0000000000058407
 30
0.0
 40
7.9000000000000004
  0
LINE
  5
100
100
AcDbEntity
100
AcDbLine
  8
02 - Back
 62
256
370
-1
  6
ByLayer
 10
-97.5029922314881929
 20
119.9586781535676892
 30
0.0
 11
-15.0026371307103119
 21
119.9586781535685702
 31
0.0
  0
LINE
  5
101
100
AcDbEntity
100
AcDbLine
  8
Drawings
 62
256
370
-1
  6
ByLayer
 10
-102.5030255221615363
 20
-49.1439000000006985
 30
0.0
 11
102.4973628692897734
 21
-49.1438999999990642
 31
0.0
  0
CIRCLE
  5
102
100
AcDbEntity
100
AcDbCircle
  8
06 - Top
 62
256
370
-1
  6
ByLayer
 10
51.9973628692896952
 20
-49.1438999999999027
 30
0.0
 40
2.5
  0
CIRCLE
  5
103
100
AcDbEntity
100
AcDbCircle
  8
06 - Top
 62
256
370
-1
  6
ByLayer
 10
-52.0026371307103048
 20
-49.1438999999996611
 30
0.0
 40
2.5
  0
LINE
  5
104
100
AcDbEntity
100
AcDbLine
  8
Drawings
 62
256
370
-1
  6
ByLayer
 10
-105.0026371307103119
 20
159.9586781535676323
 30
0.0
 11
-105.0022613263294886
 21
-68.4007177727604727
 31
0.0
  0
CIRCLE
  5
105
100
AcDbEntity
100
AcDbCircle
  8
0
 62
256
370
-1
  6
ByLayer
 10
-0.0026371307103011
 20
37.8561000000000121
 30
0.0
 40
2.5
  0
MTEXT
  5
106
100
AcDbEntity
100
AcDbMText
  8
Text
 62
256
370
-1
  6
ByLayer
 10
0.0026371307103119
 20
19.6438999999994621
 30
0.0
 40
5.0
 41
100.0
 71
5
 72
2
  1
Z\~Stage
  7
standard
 50
0.0
 73
0
 44
1.0
  0
CIRCLE
  5
107
100
AcDbEntity
100
AcDbCircle
  8
06 - Top
 62
256
370
-1
  6
ByLayer
 10
-52.002637130710319
 20
-49.1438999999998885
 30
0.0
 40
2.5
  0
CIRCLE
  5
108
100
AcDbEntity
100
AcDbCircle
  8
Drawings - Single Plastruder
 62
256
370
-1
  6
ByLayer
 10
-52.0026371307103261
 20
-49.1438999999998885
 30
0.0
 40
2.5
  0
LINE
  5
109
100
AcDbEntity
100
AcDbLine
  8
Drawings - Single Plastruder
 62
256
370
-1
  6
ByLayer
 10
-39.5888546318189043
 20
-24.9007067549313206
 30
0.0
 11
-39.5888546318189185
 21
-67.9007067549313064
 31
0.0
  0
LINE
  5
10A
100
AcDbEntity
100
AcDbLine
  8
Drawings - Single Plastruder
 62
256
370
-1
  6
ByLayer
 10
-42.5888546318189185
 20
-70.9007067549313206
 30
0.0
 11
-67.6242092695115389
 21
-70.9007067549313916
 31
0.0
  0
LINE
  5
10B
100
AcDbEntity
100
AcDbLine
  8
Drawings - Single Plastruder
 62
256
370
-1
  6
ByLayer
 10
-70.6250995846736913
 20
-24.9007688699874841
 30
0.0
 11
-70.6242092688685119
 21
-67.900768869987445
 31
0.0
  0
ARC
  5
10C
100
AcDbEntity
  8
Drawings - Single Plastruder
 62
256
370
-1
  6
ByLayer
100
AcDbCircle
 10
-42.5888546318189256
 20
-67.9007067549313064
 30
0.0
 40
3.0
100
AcDbArc
 50
270.0
 51
360.0
  0
ARC
  5
10D
100
AcDbEntity
  8
Drawings - Single Plastruder
 62
256
370
-1
  6
ByLayer
100
AcDbCircle
 10
-67.6242092695115247
 20
-67.9007067549313916
 30
0.0
 40
3.0
100
AcDbArc
 50
180.0011863101096026
 51
270.0
  0
CIRCLE
  5
10E
100
AcDbEntity
100
AcDbCircle
  8
Drawings - Single Plastruder
 62
256
370
-1
  6
ByLayer
 10
-56.6250235645933842
 20
-26.3128624640571118
 30
0.0
 40
2.75
  0
CIRCLE
  5
10F
100
AcDbEntity
100
AcDbCircle
  8
Drawings - Single Plastruder
 62
256
370
-1
  6
ByLayer
 10
-56.6250235645934197
 20
-66.4928661319160028
 30
0.0
 40
2.75
  0
CIRCLE
  5
110
100
AcDbEntity
100
AcDbCircle
  8
06 - Top
 62
256
370
-1
  6
ByLayer
 10
51.9973628692897236
 20
-75.9007067549331964
 30
0.0
 40
2.5
  0
CIRCLE
  5
111
100
AcDbEntity
100
AcDbCircle
  8
06 - Top
 62
256
370
-1
  6
ByLayer
 10
-52.0026371307102835
 20
-75.9007067549333669
 30
0.0
 40
2.5
  0
CIRCLE
  5
112
100
AcDbEntity
100
AcDbCircle
  8
06 - Top
 62
256
370
-1
  6
ByLayer
 10
-52.0026371307102977
 20
-75.9007067549331396
 30
0.0
 40
2.5
  0
CIRCLE
  5
113
100
AcDbEntity
100
AcDbCircle
  8
06 - Top
 62
256
370
-1
  6
ByLayer
 10
51.9973628692897094
 20
-22.3870932450658415
 30
0.0
 40
2.5
  0
CIRCLE
  5
114
100
AcDbEntity
100
AcDbCircle
  8
06 - Top
 62
256
370
-1
  6
ByLayer
 10
-52.0026371307102977
 20
-22.3870932450657278
 30
0.0
 40
2.5
  0
CIRCLE
  5
115
100
AcDbEntity
100
AcDbCircle
  8
06 - Top
 62
256
370
-1
  6
ByLayer
 10
-52.002637130710319
 20
-22.3870932450659552
 30
0.0
 40
2.5
  0
ARC
  5
116
100
AcDbEntity
  8
06 - Top
 62
256
370
-1
  6
ByLayer
100
AcDbCircle
 10
-0.0026371307103332
 20
-22.3870932450655076
 30
0.0
 40
35.0
100
AcDbArc
 50
0.0
 51
180.0
  0
ARC
  5
117
100
AcDbEntity
  8
06 - Top
 62
256
370
-1
  6
ByLayer
100
AcDbCircle
 10
-37.5026371307102764
 20
-100.6439000000015795
 30
0.0
 40
2.5
100
AcDbArc
 50
270.0000000000006821
 51
0.0
  0
ARC
  5
118
100
AcDbEntity
  8
06 - Top
 62
256
370
-1
  6
ByLayer
100
AcDbCircle
 10
37.4973628692897165
 20
-100.6439000000008974
 30
0.0
 40
2.5
100
AcDbArc
 50
180.0
 51
270.0000000000005116
  0
LINE
  5
119
100
AcDbEntity
100
AcDbLine
  8
06 - Top
 62
256
370
-1
  6
ByLayer
 10
-102.5022487392098611
 20
-103.1439000000020343
 30
0.0
 11
-37.502637130710248
 21
-103.1439000000015795
 31
0.0
  0
LINE
  5
11A
100
AcDbEntity
100
AcDbLine
  8
06 - Top
 62
256
370
-1
  6
ByLayer
 10
37.4973628692897378
 20
-103.1439000000008974
 30
0.0
 11
102.4973628692895744
 21
-103.1439000000004427
 31
0.0
  0
ARC
  5
11B
100
AcDbEntity
  8
06 - Top
 62
256
370
-1
  6
ByLayer
100
AcDbCircle
 10
-102.5022487392098611
 20
-100.6439000000020059
 30
0.0
 40
2.5
100
AcDbArc
 50
180.0002543228183072
 51
270.0
  0
ARC
  5
11C
100
AcDbEntity
  8
06 - Top
 62
256
370
-1
  6
ByLayer
100
AcDbCircle
 10
102.4973628692895744
 20
-100.6439000000004427
 30
0.0
 40
2.5
100
AcDbArc
 50
270.0
 51
0.0
  0
LINE
  5
11D
100
AcDbEntity
100
AcDbLine
  8
Drawings
 62
256
370
-1
  6
ByLayer
 10
-97.5029922314881929
 20
159.9586781535676607
 30
0.0
 11
-97.5029922314881929
 21
-103.1439000000019774
 31
0.0
  0
LINE
  5
11E
100
AcDbEntity
100
AcDbLine
  8
Drawings
 62
256
370
-1
  6
ByLayer
 10
-0.0026371307103119
 20
159.9586781535686839
 30
0.0
 11
-0.0026371307103119
 21
-103.1439000000012953
 31
0.0
  0
LINE
  5
11F
100
AcDbEntity
100
AcDbLine
  8
Drawings
 62
256
370
-1
  6
ByLayer
 10
104.9973628692896881
 20
159.9586781535697924
 30
0.0
 11
104.9973628692896881
 21
-103.1439000000005706
 31
0.0
  0
LINE
  5
120
100
AcDbEntity
100
AcDbLine
  8
Drawings
 62
256
370
-1
  6
ByLayer
 10
97.4973628692898302
 20
159.9586781535697071
 30
0.0
 11
97.4973628692898302
 21
-103.1439000000006843
 31
0.0
  0
LINE
  5
121
100
AcDbEntity
100
AcDbLine
  8
06 - Top
 62
256
370
-1
  6
ByLayer
 10
104.9973628692895744
 20
-100.6439000000004427
 30
0.0
 11
104.9973628692898018
 21
105.0000000000008242
 31
0.0
  0
LINE
  5
122
100
AcDbEntity
100
AcDbLine
  8
06 - Top
 62
256
370
-1
  6
ByLayer
 10
34.9973628692896881
 20
-22.3870932450655076
 30
0.0
 11
34.9973628692896881
 21
-100.6439000000009116
 31
0.0
  0
LINE
  5
123
100
AcDbEntity
100
AcDbLine
  8
06 - Top
 62
256
370
-1
  6
ByLayer
 10
-35.0026371307103048
 20
-19.8870932450655538
 30
0.0
 11
-35.0026371307103048
 21
-100.6439000000015938
 31
0.0
  0
LINE
  5
124
100
AcDbEntity
100
AcDbLine
  8
06 - Top
 62
256
370
-1
  6
ByLayer
 10
-105.0030255221368805
 20
104.9999889030681715
 30
0.0
 11
-105.0021191149165816
 21
-100.6693578999708194
 31
0.0
  0
ARC
  5
125
100
AcDbEntity
  8
04 - Left
 62
256
370
-1
  6
ByLayer
100
AcDbCircle
 10
-318.196221154501302
 20
152.9133957605130263
 30
0.0
 40
15.0
100
AcDbArc
 50
180.0201461944275536
 51
261.9607831635292996
  0
LINE
  5
126
100
AcDbEntity
100
AcDbLine
  8
04 - Left
 62
256
370
-1
  6
ByLayer
 10
-320.2939842056882753
 20
138.0608070911572725
 30
0.0
 11
-165.5483125143618679
 21
119.9470720060105435
 31
0.0
  0
LINE
  5
127
100
AcDbEntity
100
AcDbLine
  8
04 - Left
 62
256
370
-1
  6
ByLayer
 10
-333.198320976588036
 20
158.8826526666397285
 30
0.0
 11
-333.1962202272401896
 21
152.9081214992553157
 31
0.0
  0
LINE
  5
128
100
AcDbEntity
100
AcDbLine
  8
04 - Left
 62
256
370
-1
  6
ByLayer
 10
-332.1988688869059274
 20
159.883004133987896
 30
0.0
 11
-304.30776664454811
 21
159.8982842348220856
 31
0.0
  0
ARC
  5
129
100
AcDbEntity
  8
04 - Left
 62
256
370
-1
  6
ByLayer
100
AcDbCircle
 10
-332.1983210384054246
 20
158.8830042840569092
 30
0.0
 40
1.0
100
AcDbArc
 50
90.0313894084615782
 51
180.020146194409449
  0
INSERT
  5
12A
100
AcDbEntity
100
AcDbBlockReference
  8
04 - Left
 62
256
370
-1
  6
ByLayer
  2
tgrips
 10
285.0509678349535534
 20
159.905055261099875
 30
0.0
 41
1.0
 42
-1.0
 43
1.0
 50
179.9798538055724464
 44
1.0
 45
1.0
  0
LINE
  5
12B
100
AcDbEntity
100
AcDbLine
  8
04 - Left
 62
256
370
-1
  6
ByLayer
 10
300.0509669076925547
 20
159.8997809998424771
 30
0.0
 11
304.30776664454811
 21
159.8982842348220856
 31
0.0
  0
INSERT
  5
12C
100
AcDbEntity
100
AcDbBlockReference
  8
04 - Left
 62
256
370
-1
  6
ByLayer
  2
tgrips
 10
145.0591735733889891
 20
159.9565224570378916
 30
0.0
 41
1.0
 42
-1.0
 43
1.0
 50
180.0
 44
1.0
 45
1.0
  0
INSERT
  5
12D
100
AcDbEntity
100
AcDbBlockReference
  8
04 - Left
 62
256
370
-1
  6
ByLayer
  2
tgrips
 10
145.0287147087048538
 20
119.9520434146678269
 30
0.0
 41
1.0
 42
-1.0
 43
1.0
 44
1.0
 45
1.0
  0
LINE
  5
12E
100
AcDbEntity
100
AcDbLine
  8
04 - Left
 62
256
370
-1
  6
ByLayer
 10
165.5483125143618963
 20
119.9470720060105009
 30
0.0
 11
160.0287147087048822
 21
119.9470720060105009
 31
0.0
  0
LINE
  5
12F
100
AcDbEntity
100
AcDbLine
  8
04 - Left
 62
256
370
-1
  6
ByLayer
 10
130.0591735733889038
 20
159.95652245703792
 30
0.0
 11
122.5547855464732123
 21
159.9565224570378916
 31
0.0
  0
LINE
  5
130
100
AcDbEntity
100
AcDbLine
  8
04 - Left
 62
256
370
-1
  6
ByLayer
 10
130.0287147087048538
 20
119.9520434146677701
 30
0.0
 11
122.5407166518565134
 21
119.9445860148344138
 31
0.0
  0
LINE
  5
131
100
AcDbEntity
100
AcDbLine
  8
04 - Left
 62
256
370
-1
  6
ByLayer
 10
122.5547855464732123
 20
159.9565224570378916
 30
0.0
 11
122.5407166518565134
 21
119.9445860148344138
 31
0.0
  0
INSERT
  5
132
100
AcDbEntity
100
AcDbBlockReference
  8
04 - Left
 62
256
370
-1
  6
ByLayer
  2
tgrips
 10
218.050967834953525
 20
159.9050552610998466
 30
0.0
 41
1.0
 42
-1.0
 43
1.0
 50
180.0
 44
1.0
 45
1.0
  0
LINE
  5
133
100
AcDbEntity
100
AcDbLine
  8
04 - Left
 62
256
370
-1
  6
ByLayer
 10
270.0509687622146657
 20
159.910329522358893
 30
0.0
 11
233.0509678349535534
 21
159.905055261099875
 31
0.0
  0
LINE
  5
134
100
AcDbEntity
100
AcDbLine
  8
04 - Left
 62
256
370
-1
  6
ByLayer
 10
203.0509678349535818
 20
159.9050552610997897
 30
0.0
 11
160.0591735733889323
 21
159.9565224570378916
 31
0.0
  0
INSERT
  5
135
100
AcDbEntity
100
AcDbBlockReference
  8
04 - Left
 62
256
370
-1
  6
ByLayer
  2
tcutout
 10
130.0439474875057329
 20
139.9586781535676892
 30
0.0
 41
1.0
 42
-1.0
 43
1.0
 50
270.0
 44
1.0
 45
1.0
  0
ARC
  5
136
100
AcDbEntity
  8
04 - Left
 62
256
370
-1
  6
ByLayer
100
AcDbCircle
 10
318.1962211545013588
 20
152.9133957605128842
 30
0.0
 40
15.0
100
AcDbArc
 50
278.0392168364707004
 51
359.979853805572418
  0
LINE
  5
137
100
AcDbEntity
100
AcDbLine
  8
04 - Left
 62
256
370
-1
  6
ByLayer
 10
320.2939842056883322
 20
138.0608070911571588
 30
0.0
 11
165.5483125143618963
 21
119.9470720060105009
 31
0.0
  0
LINE
  5
138
100
AcDbEntity
100
AcDbLine
  8
04 - Left
 62
256
370
-1
  6
ByLayer
 10
333.1983209765880929
 20
158.8826526666396148
 30
0.0
 11
333.1962202272401896
 21
152.9081214992553157
 31
0.0
  0
LINE
  5
139
100
AcDbEntity
100
AcDbLine
  8
04 - Left
 62
256
370
-1
  6
ByLayer
 10
332.1988688869059843
 20
159.8830041339878392
 30
0.0
 11
304.30776664454811
 21
159.8982842348220856
 31
0.0
  0
ARC
  5
13A
100
AcDbEntity
  8
04 - Left
 62
256
370
-1
  6
ByLayer
100
AcDbCircle
 10
332.1983210384054246
 20
158.8830042840569092
 30
0.0
 40
1.0
100
AcDbArc
 50
359.979853805590551
 51
89.9686105915384218
  0
CIRCLE
  5
13B
100
AcDbEntity
100
AcDbCircle
  8
Drawings - Dual Plastruder
 62
256
370
-1
  6
ByLayer
 10
-52.002637130710319
 20
-22.3870932450659552
 30
0.0
 40
2.5
  0
LINE
  5
13C
100
AcDbEntity
100
AcDbLine
  8
Drawings - Dual Plastruder
 62
256
370
-1
  6
ByLayer
 10
-39.588854631818883
 20
1.8561000000026127
 30
0.0
 11
-39.5888546318188972
 21
-41.1438999999973589
 31
0.0
  0
LINE
  5
13D
100
AcDbEntity
100
AcDbLine
  8
Drawings - Dual Plastruder
 62
256
370
-1
  6
ByLayer
 10
-42.5888546318188972
 20
-44.1438999999995758
 30
0.0
 11
-67.6242092695115105
 21
-44.143899999999519
 31
0.0
  0
LINE
  5
13E
100
AcDbEntity
100
AcDbLine
  8
Drawings - Dual Plastruder
 62
256
370
-1
  6
ByLayer
 10
-42.5888546318188901
 20
4.8561000000026127
 30
0.0
 11
-67.6250995853167325
 21
4.8561000000025274
 31
0.0
  0
LINE
  5
13F
100
AcDbEntity
100
AcDbLine
  8
Drawings - Dual Plastruder
 62
256
370
-1
  6
ByLayer
 10
-70.6250995846737055
 20
1.8560378849464314
 30
0.0
 11
-70.6242092688684977
 21
-41.1439621150535118
 31
0.0
  0
ARC
  5
140
100
AcDbEntity
  8
Drawings - Dual Plastruder
 62
256
370
-1
  6
ByLayer
100
AcDbCircle
 10
-42.588854631818883
 20
1.8561000000026127
 30
0.0
 40
3.0
100
AcDbArc
 50
0.0
 51
90.0000000000000142
  0
ARC
  5
141
100
AcDbEntity
  8
Drawings - Dual Plastruder
 62
256
370
-1
  6
ByLayer
100
AcDbCircle
 10
-42.5888546318189114
 20
-41.1438999999973873
 30
0.0
 40
3.0
100
AcDbArc
 50
270.0
 51
0.0
  0
ARC
  5
142
100
AcDbEntity
  8
Drawings - Dual Plastruder
 62
256
370
-1
  6
ByLayer
100
AcDbCircle
 10
-67.6242092695115105
 20
-41.1438999999974726
 30
0.0
 40
3.0
100
AcDbArc
 50
180.0011863101096026
 51
270.0
  0
ARC
  5
143
100
AcDbEntity
  8
Drawings - Dual Plastruder
 62
256
370
-1
  6
ByLayer
100
AcDbCircle
 10
-67.6250995853167183
 20
1.8561000000026127
 30
0.0
 40
3.0
100
AcDbArc
 50
90.0000000000000142
 51
180.0011863101096026
  0
CIRCLE
  5
144
100
AcDbEntity
100
AcDbCircle
  8
Drawings - Dual Plastruder
 62
256
370
-1
  6
ByLayer
 10
-56.6250235645933557
 20
0.4439442908768001
 30
0.0
 40
2.75
  0
CIRCLE
  5
145
100
AcDbEntity
100
AcDbCircle
  8
Drawings - Dual Plastruder
 62
256
370
-1
  6
ByLayer
 10
-56.6250235645933984
 20
-39.7360593769820696
 30
0.0
 40
2.75
  0
CIRCLE
  5
146
100
AcDbEntity
100
AcDbCircle
  8
Drawings - Dual Plastruder
 62
256
370
-1
  6
ByLayer
 10
-52.0026371307103048
 20
-75.9007067549331396
 30
0.0
 40
2.5
  0
LINE
  5
147
100
AcDbEntity
100
AcDbLine
  8
Drawings - Dual Plastruder
 62
256
370
-1
  6
ByLayer
 10
-39.588854631818883
 20
-100.1439000000017074
 30
0.0
 11
-39.5888546318188972
 21
-57.1439000000017359
 31
0.0
  0
LINE
  5
148
100
AcDbEntity
100
AcDbLine
  8
Drawings - Dual Plastruder
 62
256
370
-1
  6
ByLayer
 10
-42.5888546318188972
 20
-54.143899999999519
 30
0.0
 11
-67.6242092695115105
 21
-54.1438999999995758
 31
0.0
  0
LINE
  5
149
100
AcDbEntity
100
AcDbLine
  8
Drawings - Dual Plastruder
 62
256
370
-1
  6
ByLayer
 10
-42.5888546318188972
 20
-103.1439000000017074
 30
0.0
 11
-67.6250995853167467
 21
-103.1439000000016222
 31
0.0
  0
LINE
  5
14A
100
AcDbEntity
100
AcDbLine
  8
Drawings - Dual Plastruder
 62
256
370
-1
  6
ByLayer
 10
-70.6250995846736771
 20
-100.1438378849455262
 30
0.0
 11
-70.6242092688684977
 21
-57.143837884945583
 31
0.0
  0
ARC
  5
14B
100
AcDbEntity
  8
Drawings - Dual Plastruder
 62
256
370
-1
  6
ByLayer
100
AcDbCircle
 10
-42.588854631818883
 20
-100.1439000000017074
 30
0.0
 40
3.0
100
AcDbArc
 50
270.0
 51
0.0
  0
ARC
  5
14C
100
AcDbEntity
  8
Drawings - Dual Plastruder
 62
256
370
-1
  6
ByLayer
100
AcDbCircle
 10
-42.5888546318189043
 20
-57.1439000000017074
 30
0.0
 40
3.0
100
AcDbArc
 50
0.0
 51
90.0000000000000142
  0
ARC
  5
14D
100
AcDbEntity
  8
Drawings - Dual Plastruder
 62
256
370
-1
  6
ByLayer
100
AcDbCircle
 10
-67.6242092695115105
 20
-57.1439000000016222
 30
0.0
 40
3.0
100
AcDbArc
 50
90.0000000000000142
 51
179.9988136898903974
  0
ARC
  5
14E
100
AcDbEntity
  8
Drawings - Dual Plastruder
 62
256
370
-1
  6
ByLayer
100
AcDbCircle
 10
-67.6250995853167183
 20
-100.1439000000017074
 30
0.0
 40
3.0
100
AcDbArc
 50
179.9988136898903974
 51
270.0
  0
CIRCLE
  5
14F
100
AcDbEntity
100
AcDbCircle
  8
Drawings - Dual Plastruder
 62
256
370
-1
  6
ByLayer
 10
-56.6250235645933628
 20
-98.7317442908758949
 30
0.0
 40
2.75
  0
CIRCLE
  5
150
100
AcDbEntity
100
AcDbCircle
  8
Drawings - Dual Plastruder
 62
256
370
-1
  6
ByLayer
 10
-56.6250235645933984
 20
-58.5517406230170252
 30
0.0
 40
2.75
  0
LINE
  5
151
100
AcDbEntity
100
AcDbLine
  8
Drawings - Single Plastruder
 62
256
370
-1
  6
ByLayer
 10
-42.5888546318189114
 20
-21.9007067549313277
 30
0.0
 11
-67.6250995853167609
 21
-21.9007067549314129
 31
0.0
  0
ARC
  5
152
100
AcDbEntity
  8
Drawings - Single Plastruder
 62
256
370
-1
  6
ByLayer
100
AcDbCircle
 10
-42.5888546318189043
 20
-24.9007067549313135
 30
0.0
 40
3.0
100
AcDbArc
 50
360.0
 51
89.9999999999999858
  0
ARC
  5
153
100
AcDbEntity
  8
Drawings - Single Plastruder
 62
256
370
-1
  6
ByLayer
100
AcDbCircle
 10
-67.6250995853167325
 20
-24.9007067549313277
 30
0.0
 40
3.0
100
AcDbArc
 50
89.9999999999999858
 51
180.0011863101096026
  0
CIRCLE
  5
154
100
AcDbEntity
100
AcDbCircle
  8
Drawings - Single Plastruder
 62
256
370
-1
  6
ByLayer
 10
52.0026371307103261
 20
-49.1438999999998885
 30
0.0
 40
2.5
  0
LINE
  5
155
100
AcDbEntity
100
AcDbLine
  8
Drawings - Single Plastruder
 62
256
370
-1
  6
ByLayer
 10
39.5888546318188972
 20
-24.9007067549313419
 30
0.0
 11
39.5888546318189185
 21
-67.9007067549313064
 31
0.0
  0
LINE
  5
156
100
AcDbEntity
100
AcDbLine
  8
Drawings - Single Plastruder
 62
256
370
-1
  6
ByLayer
 10
42.5888546318189114
 20
-70.9007067549313206
 30
0.0
 11
67.6242092695115673
 21
-70.9007067549313774
 31
0.0
  0
LINE
  5
157
100
AcDbEntity
100
AcDbLine
  8
Drawings - Single Plastruder
 62
256
370
-1
  6
ByLayer
 10
70.6250995846736913
 20
-24.9007688699874805
 30
0.0
 11
70.6242092688684835
 21
-67.9007688699874876
 31
0.0
  0
ARC
  5
158
100
AcDbEntity
  8
Drawings - Single Plastruder
 62
256
370
-1
  6
ByLayer
100
AcDbCircle
 10
42.5888546318188972
 20
-67.9007067549313206
 30
0.0
 40
3.0
100
AcDbArc
 50
180.0
 51
270.0
  0
ARC
  5
159
100
AcDbEntity
  8
Drawings - Single Plastruder
 62
256
370
-1
  6
ByLayer
100
AcDbCircle
 10
67.6242092695115247
 20
-67.9007067549313916
 30
0.0
 40
3.0
100
AcDbArc
 50
270.0
 51
359.998813689890369
  0
CIRCLE
  5
15A
100
AcDbEntity
100
AcDbCircle
  8
Drawings - Single Plastruder
 62
256
370
-1
  6
ByLayer
 10
56.6250235645933842
 20
-26.3128624640571083
 30
0.0
 40
2.75
  0
CIRCLE
  5
15B
100
AcDbEntity
100
AcDbCircle
  8
Drawings - Single Plastruder
 62
256
370
-1
  6
ByLayer
 10
56.6250235645933984
 20
-66.492866131916017
 30
0.0
 40
2.75
  0
CIRCLE
  5
15C
100
AcDbEntity
100
AcDbCircle
  8
Drawings - Dual Plastruder
 62
256
370
-1
  6
ByLayer
 10
52.0026371307103048
 20
-22.3870932450659836
 30
0.0
 40
2.5
  0
LINE
  5
15D
100
AcDbEntity
100
AcDbLine
  8
Drawings - Dual Plastruder
 62
256
370
-1
  6
ByLayer
 10
39.588854631818883
 20
1.8561000000026857
 30
0.0
 11
39.5888546318189114
 21
-41.1438999999973447
 31
0.0
  0
LINE
  5
15E
100
AcDbEntity
100
AcDbLine
  8
Drawings - Dual Plastruder
 62
256
370
-1
  6
ByLayer
 10
42.588854631818883
 20
-44.14389999999959
 30
0.0
 11
67.6242092695115247
 21
-44.1438999999994977
 31
0.0
  0
LINE
  5
15F
100
AcDbEntity
100
AcDbLine
  8
Drawings - Dual Plastruder
 62
256
370
-1
  6
ByLayer
 10
42.5888546318188901
 20
4.8561000000026064
 30
0.0
 11
67.6250995853167325
 21
4.8561000000024563
 31
0.0
  0
LINE
  5
160
100
AcDbEntity
100
AcDbLine
  8
Drawings - Dual Plastruder
 62
256
370
-1
  6
ByLayer
 10
70.6250995846737055
 20
1.8560378849463521
 30
0.0
 11
70.6242092688684977
 21
-41.1439621150535331
 31
0.0
  0
ARC
  5
161
100
AcDbEntity
  8
Drawings - Dual Plastruder
 62
256
370
-1
  6
ByLayer
100
AcDbCircle
 10
42.588854631818883
 20
1.856100000002644
 30
0.0
 40
3.0
100
AcDbArc
 50
89.9999999999999858
 51
180.0
  0
ARC
  5
162
100
AcDbEntity
  8
Drawings - Dual Plastruder
 62
256
370
-1
  6
ByLayer
100
AcDbCircle
 10
42.5888546318189256
 20
-41.1438999999973731
 30
0.0
 40
3.0
100
AcDbArc
 50
180.0
 51
270.0
  0
ARC
  5
163
100
AcDbEntity
  8
Drawings - Dual Plastruder
 62
256
370
-1
  6
ByLayer
100
AcDbCircle
 10
67.6242092695115247
 20
-41.1438999999974513
 30
0.0
 40
3.0
100
AcDbArc
 50
270.0
 51
359.998813689890369
  0
ARC
  5
164
100
AcDbEntity
  8
Drawings - Dual Plastruder
 62
256
370
-1
  6
ByLayer
100
AcDbCircle
 10
67.6250995853167183
 20
1.8561000000023242
 30
0.0
 40
3.0
100
AcDbArc
 50
359.998813689890369
 51
89.9999999999999858
  0
CIRCLE
  5
165
100
AcDbEntity
100
AcDbCircle
  8
Drawings - Dual Plastruder
 62
256
370
-1
  6
ByLayer
 10
56.6250235645933557
 20
0.4439442908766263
 30
0.0
 40
2.75
  0
CIRCLE
  5
166
100
AcDbEntity
100
AcDbCircle
  8
Drawings - Dual Plastruder
 62
256
370
-1
  6
ByLayer
 10
56.6250235645933913
 20
-39.7360593769820909
 30
0.0
 40
2.75
  0
CIRCLE
  5
167
100
AcDbEntity
100
AcDbCircle
  8
Drawings - Dual Plastruder
 62
256
370
-1
  6
ByLayer
 10
52.0026371307103048
 20
-75.9007067549331396
 30
0.0
 40
2.5
  0
LINE
  5
168
100
AcDbEntity
100
AcDbLine
  8
Drawings - Dual Plastruder
 62
256
370
-1
  6
ByLayer
 10
39.5888546318188617
 20
-100.1439000000017217
 30
0.0
 11
39.5888546318188901
 21
-57.1439000000017359
 31
0.0
  0
LINE
  5
169
100
AcDbEntity
100
AcDbLine
  8
Drawings - Dual Plastruder
 62
256
370
-1
  6
ByLayer
 10
42.5888546318188901
 20
-54.143899999999519
 30
0.0
 11
67.6242092695114962
 21
-54.14389999999959
 31
0.0
  0
LINE
  5
16A
100
AcDbEntity
100
AcDbLine
  8
Drawings - Dual Plastruder
 62
256
370
-1
  6
ByLayer
 10
42.5888546318188972
 20
-103.1439000000017074
 30
0.0
 11
67.6250995853166756
 21
-103.1439000000016648
 31
0.0
  0
LINE
  5
16B
100
AcDbEntity
100
AcDbLine
  8
Drawings - Dual Plastruder
 62
256
370
-1
  6
ByLayer
 10
70.6250995846736629
 20
-100.1438378849455404
 30
0.0
 11
70.6242092688684835
 21
-57.1438378849456043
 31
0.0
  0
ARC
  5
16C
100
AcDbEntity
  8
Drawings - Dual Plastruder
 62
256
370
-1
  6
ByLayer
100
AcDbCircle
 10
42.5888546318188332
 20
-100.1439000000017217
 30
0.0
 40
3.0
100
AcDbArc
 50
180.0
 51
270.0
  0
ARC
  5
16D
100
AcDbEntity
  8
Drawings - Dual Plastruder
 62
256
370
-1
  6
ByLayer
100
AcDbCircle
 10
42.5888546318188688
 20
-57.1439000000017359
 30
0.0
 40
3.0
100
AcDbArc
 50
89.9999999999999858
 51
180.0
  0
ARC
  5
16E
100
AcDbEntity
  8
Drawings - Dual Plastruder
 62
256
370
-1
  6
ByLayer
100
AcDbCircle
 10
67.6242092695114962
 20
-57.1439000000016293
 30
0.0
 40
3.0
100
AcDbArc
 50
0.0011863101096109
 51
89.9999999999999858
  0
ARC
  5
16F
100
AcDbEntity
  8
Drawings - Dual Plastruder
 62
256
370
-1
  6
ByLayer
100
AcDbCircle
 10
67.6250995853167183
 20
-100.1439000000016932
 30
0.0
 40
3.0
100
AcDbArc
 50
270.0
 51
0.0011863101096109
  0
CIRCLE
  5
170
100
AcDbEntity
100
AcDbCircle
  8
Drawings - Dual Plastruder
 62
256
370
-1
  6
ByLayer
 10
56.6250235645933699
 20
-98.7317442908758949
 30
0.0
 40
2.75
  0
CIRCLE
  5
171
100
AcDbEntity
100
AcDbCircle
  8
Drawings - Dual Plastruder
 62
256
370
-1
  6
ByLayer
 10
56.6250235645933628
 20
-58.5517406230170678
 30
0.0
 40
2.75
  0
LINE
  5
172
100
AcDbEntity
100
AcDbLine
  8
Drawings - Single Plastruder
 62
256
370
-1
  6
ByLayer
 10
42.5888546318188972
 20
-21.900706754931349
 30
0.0
 11
67.6250995853167609
 21
-21.9007067549314378
 31
0.0
  0
ARC
  5
173
100
AcDbEntity
  8
Drawings - Single Plastruder
 62
256
370
-1
  6
ByLayer
100
AcDbCircle
 10
42.5888546318189114
 20
-24.9007067549313028
 30
0.0
 40
3.0
100
AcDbArc
 50
89.9999999999999858
 51
180.0
  0
ARC
  5
174
100
AcDbEntity
  8
Drawings - Single Plastruder
 62
256
370
-1
  6
ByLayer
100
AcDbCircle
 10
67.6250995853167325
 20
-24.9007067549313241
 30
0.0
 40
3.0
100
AcDbArc
 50
359.998813689890369
 51
89.9999999999999858
  0
LINE
  5
175
100
AcDbEntity
100
AcDbLine
  8
Drawings - Single Plastruder
 62
256
370
-1
  6
ByLayer
 10
-42.5888546318189185
 20
-70.9007067549313206
 30
0.0
 11
42.5888546318188901
 21
-70.9007067549313206
 31
0.0
  0
LINE
  5
176
100
AcDbEntity
100
AcDbLine
  8
Drawings - Single Plastruder
 62
256
370
-1
  6
ByLayer
 10
-42.5888546318189114
 20
33.0992932450686794
 30
0.0
 11
42.5888546318188972
 21
33.0992932450686794
 31
0.0
  0
LINE
  5
177
100
AcDbEntity
100
AcDbLine
  8
Drawings - Single Plastruder
 62
256
370
-1
  6
ByLayer
 10
-42.5888546318189114
 20
33.0992932450686794
 30
0.0
 11
-67.6250995853167467
 21
-21.9007067549314129
 31
0.0
  0
LINE
  5
178
100
AcDbEntity
100
AcDbLine
  8
Drawings - Single Plastruder
 62
256
370
-1
  6
ByLayer
 10
42.5888546318188972
 20
33.0992932450686794
 30
0.0
 11
67.6250995853167467
 21
-21.9007067549314378
 31
0.0
  0
LINE
  5
179
100
AcDbEntity
100
AcDbLine
  8
Drawings - Dual Plastruder
 62
256
370
-1
  6
ByLayer
 10
-42.5888546318189185
 20
-44.1438999999995758
 30
0.0
 11
42.5888546318189398
 21
-44.14389999999959
 31
0.0
  0
LINE
  5
17A
100
AcDbEntity
100
AcDbLine
  8
Drawings - Dual Plastruder
 62
256
370
-1
  6
ByLayer
 10
-42.5888546318188901
 20
59.8561000000004242
 30
0.0
 11
42.5888546318189682
 21
59.85610000000041
 31
0.0
  0
LINE
  5
17B
100
AcDbEntity
100
AcDbLine
  8
Drawings - Dual Plastruder
 62
256
370
-1
  6
ByLayer
 10
-42.5888546318188901
 20
59.8561000000004242
 30
0.0
 11
-67.6250995853167325
 21
4.8561000000025274
 31
0.0
  0
LINE
  5
17C
100
AcDbEntity
100
AcDbLine
  8
Drawings - Dual Plastruder
 62
256
370
-1
  6
ByLayer
 10
42.5888546318189682
 20
59.85610000000041
 30
0.0
 11
67.6250995853167325
 21
4.8561000000024563
 31
0.0
  0
LINE
  5
17D
100
AcDbEntity
100
AcDbLine
  8
Drawings - Dual Plastruder
 62
256
370
-1
  6
ByLayer
 10
-52.002637130710319
 20
-22.3870932450659552
 30
0.0
 11
-52.0026371307103048
 21
-75.9007067549331396
 31
0.0
  0
LINE
  5
17E
100
AcDbEntity
100
AcDbLine
  8
Drawings - Dual Plastruder
 62
256
370
-1
  6
ByLayer
 10
52.0026371307103048
 20
-22.3870932450659836
 30
0.0
 11
52.0026371307103048
 21
-75.9007067549331396
 31
0.0
  0
LINE
  5
17F
100
AcDbEntity
100
AcDbLine
  8
Drawings - Dual Plastruder
 62
256
370
-1
  6
ByLayer
 10
-42.5888546318189185
 20
-54.1438999999995119
 30
0.0
 11
42.5888546318189327
 21
-54.1438999999996113
 31
0.0
  0
LINE
  5
180
100
AcDbEntity
100
AcDbLine
  8
Drawings - Dual Plastruder
 62
256
370
-1
  6
ByLayer
 10
-42.5888546318189611
 20
-158.143899999999519
 30
0.0
 11
42.5888546318190464
 21
-158.1438999999994621
 31
0.0
  0
LINE
  5
181
100
AcDbEntity
100
AcDbLine
  8
Drawings - Dual Plastruder
 62
256
370
-1
  6
ByLayer
 10
-42.5888546318189611
 20
-158.143899999999519
 30
0.0
 11
-67.6250995853167893
 21
-103.143900000001608
 31
0.0
  0
LINE
  5
182
100
AcDbEntity
100
AcDbLine
  8
Drawings - Dual Plastruder
 62
256
370
-1
  6
ByLayer
 10
42.5888546318190464
 20
-158.1438999999994621
 30
0.0
 11
67.6250995853166899
 21
-103.1439000000016222
 31
0.0
  0
LINE
  5
183
100
AcDbEntity
100
AcDbLine
  8
Drawings - Dual Plastruder
 62
256
370
-1
  6
ByLayer
 10
-52.0026371307103119
 20
-49.1438999999995474
 30
0.0
 11
52.0026371307103048
 21
-49.1438999999995616
 31
0.0
  0
ENDSEC
  0
SECTION
  2
OBJECTS
  0
DICTIONARY
  5
C
100
AcDbDictionary
280
0
281
1
  3
ACAD_GROUP
350
D
  3
ACAD_LAYOUT
350
1A
  3
ACAD_MLINESTYLE
350
17
  3
ACAD_PLOTSETTINGS
350
19
  3
ACAD_PLOTSTYLENAME
350
E
  3
AcDbVariableDictionary
350
184
  0
DICTIONARY
  5
D
100
AcDbDictionary
280
0
281
1
  0
ACDBDICTIONARYWDFLT
  5
E
100
AcDbDictionary
281
1
  3
Normal
350
F
100
AcDbDictionaryWithDefault
340
F
  0
ACDBPLACEHOLDER
  5
F
  0
DICTIONARY
  5
17
100
AcDbDictionary
280
0
281
1
  3
Standard
350
18
  0
MLINESTYLE
  5
18
100
AcDbMlineStyle
  2
STANDARD
 70
0
  3

 62
256
 51
90.0
 52
90.0
 71
2
 49
0.5
 62
256
  6
BYLAYER
 49
-0.5
 62
256
  6
BYLAYER
  0
DICTIONARY
  5
19
100
AcDbDictionary
280
0
281
1
  0
DICTIONARY
  5
1A
100
AcDbDictionary
281
1
  3
Layout1
350
1E
  3
Layout2
350
26
  3
Model
350
22
  0
LAYOUT
  5
1E
100
AcDbPlotSettings
  1

  2
C:\Program Files\AutoCAD 2002\plotters\DWF ePlot (optimized for plotting).pc3
  4

  6

 40
0.0
 41
0.0
 42
0.0
 43
0.0
 44
0.0
 45
0.0
 46
0.0
 47
0.0
 48
0.0
 49
0.0
140
0.0
141
0.0
142
1.0
143
1.0
 70
688
 72
0
 73
0
 74
5
  7

 75
16
147
1.0
148
0.0
149
0.0
100
AcDbLayout
  1
Layout1
 70
1
 71
1
 10
0.0
 20
0.0
 11
420.0
 21
297.0
 12
0.0
 22
0.0
 32
0.0
 14
100000000000000000000.0
 24
100000000000000000000.0
 34
100000000000000000000.0
 15
-100000000000000000000.0
 25
-100000000000000000000.0
 35
-100000000000000000000.0
146
0.0
 13
0.0
 23
0.0
 33
0.0
 16
1.0
 26
0.0
 36
0.0
 17
0.0
 27
1.0
 37
0.0
 76
0
330
1B
  0
LAYOUT
  5
22
100
AcDbPlotSettings
  1

  2
C:\Program Files\AutoCAD 2002\plotters\DWF ePlot (optimized for plotting).pc3
  4

  6

 40
0.0
 41
0.0
 42
0.0
 43
0.0
 44
0.0
 45
0.0
 46
0.0
 47
0.0
 48
0.0
 49
0.0
140
0.0
141
0.0
142
1.0
143
1.0
 70
1712
 72
0
 73
0
 74
0
  7

 75
0
147
1.0
148
0.0
149
0.0
100
AcDbLayout
  1
Model
 70
1
 71
0
 10
0.0
 20
0.0
 11
12.0
 21
9.0
 12
0.0
 22
0.0
 32
0.0
 14
0.0
 24
0.0
 34
0.0
 15
0.0
 25
0.0
 35
0.0
146
0.0
 13
0.0
 23
0.0
 33
0.0
 16
1.0
 26
0.0
 36
0.0
 17
0.0
 27
1.0
 37
0.0
 76
0
330
1F
  0
LAYOUT
  5
26
100
AcDbPlotSettings
  1

  2
C:\Program Files\AutoCAD 2002\plotters\DWF ePlot (optimized for plotting).pc3
  4

  6

 40
0.0
 41
0.0
 42
0.0
 43
0.0
 44
0.0
 45
0.0
 46
0.0
 47
0.0
 48
0.0
 49
0.0
140
0.0
141
0.0
142
1.0
143
1.0
 70
688
 72
0
 73
0
 74
5
  7

 75
16
147
1.0
148
0.0
149
0.0
100
AcDbLayout
  1
Layout2
 70
1
 71
2
 10
0.0
 20
0.0
 11
12.0
 21
9.0
 12
0.0
 22
0.0
 32
0.0
 14
0.0
 24
0.0
 34
0.0
 15
0.0
 25
0.0
 35
0.0
146
0.0
 13
0.0
 23
0.0
 33
0.0
 16
1.0
 26
0.0
 36
0.0
 17
0.0
 27
1.0
 37
0.0
 76
0
330
23
  0
DICTIONARY
  5
184
100
AcDbDictionary
281
1
  3
DIMASSOC
350
186
  3
HIDETEXT
350
185
  0
DICTIONARYVAR
  5
185
100
DictionaryVariables
280
0
  1
2
  0
DICTIONARYVAR
  5
186
100
DictionaryVariables
280
0
  1
1
  0
ENDSEC
  0
EOF
