999
dxflib 2.2.0.0
  0
SECTION
  2
HEADER
  9
$ACADVER
  1
AC1015
  9
$HANDSEED
  5
FFFF
  9
$DIMASZ
 40
2.5
  9
$PLIMMIN
 10
0.0
 20
0.0
  9
$DIMEXE
 40
1.25
  9
$DIMGAP
 40
0.625
  9
$PLIMMAX
 10
210.0
 20
297.0
  9
$INSUNITS
 70
4
  9
$DIMSTYLE
  2
Standard
  9
$CLAYER
  8
06 - Top
  9
$DIMEXO
 40
0.625
  9
$DIMTXT
 40
2.5
  9
$CLAYER
  8
06 - Top
  0
ENDSEC
  0
SECTION
  2
TABLES
  0
TABLE
  2
VPORT
  5
8
100
AcDbSymbolTable
 70
1
  0
VPORT
  5
30
100
AcDbSymbolTableRecord
100
AcDbViewportTableRecord
  2
*Active
 70
0
 10
0.0
 20
0.0
 11
1.0
 21
1.0
 12
286.30555555555549
 22
148.5
 13
0.0
 23
0.0
 14
10.0
 24
10.0
 15
10.0
 25
10.0
 16
0.0
 26
0.0
 36
1.0
 17
0.0
 27
0.0
 37
0.0
 40
297.0
 41
1.92798353909465
 42
50.0
 43
0.0
 44
0.0
 50
0.0
 51
0.0
 71
0
 72
100
 73
1
 74
3
 75
1
 76
1
 77
0
 78
0
281
0
 65
1
110
0.0
120
0.0
130
0.0
111
1.0
121
0.0
131
0.0
112
0.0
122
1.0
132
0.0
 79
0
146
0.0
  0
ENDTAB
  0
TABLE
  2
LTYPE
  5
5
100
AcDbSymbolTable
 70
21
  0
LTYPE
  5
14
100
AcDbSymbolTableRecord
100
AcDbLinetypeTableRecord
  2
ByBlock
 70
0
  3

 72
65
 73
0
 40
0.0
  0
LTYPE
  5
15
100
AcDbSymbolTableRecord
100
AcDbLinetypeTableRecord
  2
ByLayer
 70
0
  3

 72
65
 73
0
 40
0.0
  0
LTYPE
  5
16
100
AcDbSymbolTableRecord
100
AcDbLinetypeTableRecord
  2
CONTINUOUS
 70
0
  3
Solid line
 72
65
 73
0
 40
0.0
  0
LTYPE
  5
31
100
AcDbSymbolTableRecord
100
AcDbLinetypeTableRecord
  2
DOT
 70
0
  3
Dot . . . . . . . . . . . . . . . . . . . . . .
 72
65
 73
2
 40
6.3499999999999996
 49
0.0
 74
0
 49
-6.3499999999999996
 74
0
  0
LTYPE
  5
32
100
AcDbSymbolTableRecord
100
AcDbLinetypeTableRecord
  2
DOT2
 70
0
  3
Dot (.5x) .....................................
 72
65
 73
2
 40
3.1749999999999998
 49
0.0
 74
0
 49
-3.1749999999999998
 74
0
  0
LTYPE
  5
33
100
AcDbSymbolTableRecord
100
AcDbLinetypeTableRecord
  2
DOTX2
 70
0
  3
Dot (2x) .  .  .  .  .  .  .  .  .  .  .  .  .
 72
65
 73
2
 40
12.699999999999999
 49
0.0
 74
0
 49
-12.699999999999999
 74
0
  0
LTYPE
  5
34
100
AcDbSymbolTableRecord
100
AcDbLinetypeTableRecord
  2
DASHED
 70
0
  3
Dashed __ __ __ __ __ __ __ __ __ __ __ __ __ _
 72
65
 73
2
 40
19.050000000000001
 49
12.699999999999999
 74
0
 49
-6.3499999999999996
 74
0
  0
LTYPE
  5
35
100
AcDbSymbolTableRecord
100
AcDbLinetypeTableRecord
  2
DASHED2
 70
0
  3
Dashed (.5x) _ _ _ _ _ _ _ _ _ _ _ _ _ _ _ _ _
 72
65
 73
2
 40
9.5250000000000004
 49
6.3499999999999996
 74
0
 49
-3.1749999999999998
 74
0
  0
LTYPE
  5
36
100
AcDbSymbolTableRecord
100
AcDbLinetypeTableRecord
  2
DASHEDX2
 70
0
  3
Dashed (2x) ____  ____  ____  ____  ____  ___
 72
65
 73
2
 40
38.100000000000001
 49
25.399999999999999
 74
0
 49
-12.699999999999999
 74
0
  0
LTYPE
  5
37
100
AcDbSymbolTableRecord
100
AcDbLinetypeTableRecord
  2
DASHDOT
 70
0
  3
Dash dot __ . __ . __ . __ . __ . __ . __ . __
 72
65
 73
4
 40
25.399999999999999
 49
12.699999999999999
 74
0
 49
-6.3499999999999996
 74
0
 49
0.0
 74
0
 49
-6.3499999999999996
 74
0
  0
LTYPE
  5
38
100
AcDbSymbolTableRecord
100
AcDbLinetypeTableRecord
  2
DASHDOT2
 70
0
  3
Dash dot (.5x) _._._._._._._._._._._._._._._.
 72
65
 73
4
 40
12.699999999999999
 49
6.3499999999999996
 74
0
 49
-3.1749999999999998
 74
0
 49
0.0
 74
0
 49
-3.1749999999999998
 74
0
  0
LTYPE
  5
39
100
AcDbSymbolTableRecord
100
AcDbLinetypeTableRecord
  2
DASHDOTX2
 70
0
  3
Dash dot (2x) ____  .  ____  .  ____  .  ___
 72
65
 73
4
 40
50.799999999999997
 49
25.399999999999999
 74
0
 49
-12.699999999999999
 74
0
 49
0.0
 74
0
 49
-12.699999999999999
 74
0
  0
LTYPE
  5
3A
100
AcDbSymbolTableRecord
100
AcDbLinetypeTableRecord
  2
DIVIDE
 70
0
  3
Divide ____ . . ____ . . ____ . . ____ . . ____
 72
65
 73
6
 40
31.75
 49
12.699999999999999
 74
0
 49
-6.3499999999999996
 74
0
 49
0.0
 74
0
 49
-6.3499999999999996
 74
0
 49
0.0
 74
0
 49
-6.3499999999999996
 74
0
  0
LTYPE
  5
3B
100
AcDbSymbolTableRecord
100
AcDbLinetypeTableRecord
  2
DIVIDE2
 70
0
  3
Divide (.5x) __..__..__..__..__..__..__..__.._
 72
65
 73
6
 40
15.875
 49
6.3499999999999996
 74
0
 49
-3.1749999999999998
 74
0
 49
0.0
 74
0
 49
-3.1749999999999998
 74
0
 49
0.0
 74
0
 49
-3.1749999999999998
 74
0
  0
LTYPE
  5
3C
100
AcDbSymbolTableRecord
100
AcDbLinetypeTableRecord
  2
DIVIDEX2
 70
0
  3
Divide (2x) ________  .  .  ________  .  .  _
 72
65
 73
6
 40
63.5
 49
25.399999999999999
 74
0
 49
-12.699999999999999
 74
0
 49
0.0
 74
0
 49
-12.699999999999999
 74
0
 49
0.0
 74
0
 49
-12.699999999999999
 74
0
  0
LTYPE
  5
3D
100
AcDbSymbolTableRecord
100
AcDbLinetypeTableRecord
  2
CENTER
 70
0
  3
Center ____ _ ____ _ ____ _ ____ _ ____ _ ____
 72
65
 73
4
 40
50.799999999999997
 49
31.75
 74
0
 49
-6.3499999999999996
 74
0
 49
6.3499999999999996
 74
0
 49
-6.3499999999999996
 74
0
  0
LTYPE
  5
3E
100
AcDbSymbolTableRecord
100
AcDbLinetypeTableRecord
  2
CENTER2
 70
0
  3
Center (.5x) ___ _ ___ _ ___ _ ___ _ ___ _ ___
 72
65
 73
4
 40
28.574999999999999
 49
19.050000000000001
 74
0
 49
-3.1749999999999998
 74
0
 49
3.1749999999999998
 74
0
 49
-3.1749999999999998
 74
0
  0
LTYPE
  5
3F
100
AcDbSymbolTableRecord
100
AcDbLinetypeTableRecord
  2
CENTERX2
 70
0
  3
Center (2x) ________  __  ________  __  _____
 72
65
 73
4
 40
101.59999999999999
 49
63.5
 74
0
 49
-12.699999999999999
 74
0
 49
12.699999999999999
 74
0
 49
-12.699999999999999
 74
0
  0
LTYPE
  5
40
100
AcDbSymbolTableRecord
100
AcDbLinetypeTableRecord
  2
BORDER
 70
0
  3
Border __ __ . __ __ . __ __ . __ __ . __ __ .
 72
65
 73
6
 40
44.450000000000003
 49
12.699999999999999
 74
0
 49
-6.3499999999999996
 74
0
 49
12.699999999999999
 74
0
 49
-6.3499999999999996
 74
0
 49
0.0
 74
0
 49
-6.3499999999999996
 74
0
  0
LTYPE
  5
41
100
AcDbSymbolTableRecord
100
AcDbLinetypeTableRecord
  2
BORDER2
 70
0
  3
Border (.5x) __.__.__.__.__.__.__.__.__.__.__.
 72
65
 73
6
 40
22.225000000000001
 49
6.3499999999999996
 74
0
 49
-3.1749999999999998
 74
0
 49
6.3499999999999996
 74
0
 49
-3.1749999999999998
 74
0
 49
0.0
 74
0
 49
-3.1749999999999998
 74
0
  0
LTYPE
  5
42
100
AcDbSymbolTableRecord
100
AcDbLinetypeTableRecord
  2
BORDERX2
 70
0
  3
Border (2x) ____  ____  .  ____  ____  .  ___
 72
65
 73
6
 40
88.900000000000006
 49
25.399999999999999
 74
0
 49
-12.699999999999999
 74
0
 49
25.399999999999999
 74
0
 49
-12.699999999999999
 74
0
 49
0.0
 74
0
 49
-12.699999999999999
 74
0
  0
ENDTAB
  0
TABLE
  2
LAYER
  5
2
100
AcDbSymbolTable
 70
14
  0
LAYER
  5
10
100
AcDbSymbolTableRecord
100
AcDbLayerTableRecord
  2
0
 70
0
 62
7
420
0
  6
CONTINUOUS
370
0
390
F
  0
LAYER
  5
43
100
AcDbSymbolTableRecord
100
AcDbLayerTableRecord
  2
Drawings
 70
0
 62
1
420
16711680
  6
CONTINUOUS
370
0
390
F
  0
LAYER
  5
44
100
AcDbSymbolTableRecord
100
AcDbLayerTableRecord
  2
03 - Bottom
 70
0
 62
7
420
0
  6
CONTINUOUS
370
0
390
F
  0
LAYER
  5
45
100
AcDbSymbolTableRecord
100
AcDbLayerTableRecord
  2
Drawings - Rods
 70
0
 62
3
420
65280
  6
CONTINUOUS
370
0
390
F
  0
LAYER
  5
46
100
AcDbSymbolTableRecord
100
AcDbLayerTableRecord
  2
Drawings - TR-8x8 Flange
 70
0
 62
7
420
0
  6
CONTINUOUS
370
0
390
F
  0
LAYER
  5
47
100
AcDbSymbolTableRecord
100
AcDbLayerTableRecord
  2
Drawings - 5/16" Nuts
 70
0
 62
7
420
0
  6
CONTINUOUS
370
0
390
F
  0
LAYER
  5
48
100
AcDbSymbolTableRecord
100
AcDbLayerTableRecord
  2
Drawings - Roton Hi-Lead - 1/4"
 70
0
 62
7
420
0
  6
CONTINUOUS
370
0
390
F
  0
LAYER
  5
49
100
AcDbSymbolTableRecord
100
AcDbLayerTableRecord
  2
Drawings - Roton Acme - 3/8"
 70
0
 62
7
420
0
  6
CONTINUOUS
370
0
390
F
  0
LAYER
  5
4A
100
AcDbSymbolTableRecord
100
AcDbLayerTableRecord
  2
Text
 70
0
 62
1
420
16711680
  6
CONTINUOUS
370
0
390
F
  0
LAYER
  5
4B
100
AcDbSymbolTableRecord
100
AcDbLayerTableRecord
  2
01 - Rib
 70
0
 62
7
420
0
  6
CONTINUOUS
370
0
390
F
  0
LAYER
  5
4C
100
AcDbSymbolTableRecord
100
AcDbLayerTableRecord
  2
02 - Back
 70
0
 62
7
420
0
  6
CONTINUOUS
370
0
390
F
  0
LAYER
  5
4D
100
AcDbSymbolTableRecord
100
AcDbLayerTableRecord
  2
04 - Left
 70
0
 62
7
420
0
  6
CONTINUOUS
370
0
390
F
  0
LAYER
  5
4E
100
AcDbSymbolTableRecord
100
AcDbLayerTableRecord
  2
05 - Right
 70
0
 62
7
420
0
  6
CONTINUOUS
370
0
390
F
  0
LAYER
  5
4F
100
AcDbSymbolTableRecord
100
AcDbLayerTableRecord
  2
06 - Top
 70
0
 62
7
420
0
  6
CONTINUOUS
370
0
390
F
  0
ENDTAB
  0
TABLE
  2
STYLE
  5
3
100
AcDbSymbolTable
 70
1
  0
STYLE
  5
11
100
AcDbSymbolTableRecord
100
AcDbTextStyleTableRecord
  2
Standard
 70
0
 40
0.0
 41
0.75
 50
0.0
 71
0
 42
2.5
  3
txt
  4

  0
ENDTAB
  0
TABLE
  2
VIEW
  5
6
100
AcDbSymbolTable
 70
0
  0
ENDTAB
  0
TABLE
  2
UCS
  5
7
100
AcDbSymbolTable
 70
0
  0
ENDTAB
  0
TABLE
  2
APPID
  5
9
100
AcDbSymbolTable
 70
1
  0
APPID
  5
12
100
AcDbSymbolTableRecord
100
AcDbRegAppTableRecord
  2
ACAD
 70
0
  0
ENDTAB
  0
TABLE
  2
DIMSTYLE
  5
A
100
AcDbSymbolTable
 70
1
100
AcDbDimStyleTable
 71
0
  0
DIMSTYLE
105
27
100
AcDbSymbolTableRecord
100
AcDbDimStyleTableRecord
  2
Standard
 41
2.5
 42
0.625
 43
3.75
 44
1.25
 70
0
 73
0
 74
0
 77
1
 78
8
140
2.5
141
2.5
143
0.03937007874016
147
0.625
171
3
172
1
271
2
272
2
274
3
278
44
283
0
284
8
340
11
  0
ENDTAB
  0
TABLE
  2
BLOCK_RECORD
  5
1
100
AcDbSymbolTable
 70
1
  0
BLOCK_RECORD
  5
1F
100
AcDbSymbolTableRecord
100
AcDbBlockTableRecord
  2
*Model_Space
340
22
  0
BLOCK_RECORD
  5
1B
100
AcDbSymbolTableRecord
100
AcDbBlockTableRecord
  2
*Paper_Space
340
1E
  0
BLOCK_RECORD
  5
23
100
AcDbSymbolTableRecord
100
AcDbBlockTableRecord
  2
*Paper_Space0
340
26
  0
BLOCK_RECORD
  5
50
100
AcDbSymbolTableRecord
100
AcDbBlockTableRecord
  2
nut cut outs
340
0
  0
BLOCK_RECORD
  5
51
100
AcDbSymbolTableRecord
100
AcDbBlockTableRecord
  2
tgrips
340
0
  0
BLOCK_RECORD
  5
52
100
AcDbSymbolTableRecord
100
AcDbBlockTableRecord
  2
tcutout
340
0
  0
ENDTAB
  0
ENDSEC
  0
SECTION
  2
BLOCKS
  0
BLOCK
  5
20
100
AcDbEntity
  8
0
100
AcDbBlockBegin
  2
*Model_Space
 70
0
 10
0.0
 20
0.0
 30
0.0
  3
*Model_Space
  1

  0
ENDBLK
  5
21
100
AcDbEntity
  8
0
100
AcDbBlockEnd
  0
BLOCK
  5
1C
100
AcDbEntity
 67
1
  8
0
100
AcDbBlockBegin
  2
*Paper_Space
 70
0
 10
0.0
 20
0.0
 30
0.0
  3
*Paper_Space
  1

  0
ENDBLK
  5
1D
100
AcDbEntity
 67
1
  8
0
100
AcDbBlockEnd
  0
BLOCK
  5
24
100
AcDbEntity
  8
0
100
AcDbBlockBegin
  2
*Paper_Space0
 70
0
 10
0.0
 20
0.0
 30
0.0
  3
*Paper_Space0
  1

  0
ENDBLK
  5
25
100
AcDbEntity
  8
0
100
AcDbBlockEnd
  0
BLOCK
  5
53
100
AcDbEntity
  8
0
100
AcDbBlockBegin
  2
nut cut outs
 70
0
 10
0.0
 20
0.0
 30
0.0
  3
nut cut outs
  1

  0
LINE
  5
54
100
AcDbEntity
100
AcDbLine
  8
0
 62
256
370
-1
  6
ByLayer
 10
0.0000000000000007
 20
7.476685487982313
 30
0.0
 11
-6.4749999999999996
 21
3.7383432418284799
 31
0.0
  0
LINE
  5
55
100
AcDbEntity
100
AcDbLine
  8
0
 62
256
370
-1
  6
ByLayer
 10
-6.4749995686991335
 20
3.7383427439911592
 30
0.0
 11
-6.475000215489338
 21
-3.7383428685899975
 31
0.0
  0
LINE
  5
56
100
AcDbEntity
100
AcDbLine
  8
0
 62
256
370
-1
  6
ByLayer
 10
-6.4749995686991362
 20
-3.7383427439911547
 30
0.0
 11
-0.0000002154893356
 21
-7.4766861104184805
 31
0.0
  0
LINE
  5
57
100
AcDbEntity
100
AcDbLine
  8
0
 62
256
370
-1
  6
ByLayer
 10
-0.0000000000000014
 20
-7.476685487982313
 30
0.0
 11
6.4749999999999996
 21
-3.7383432418284812
 31
0.0
  0
LINE
  5
58
100
AcDbEntity
100
AcDbLine
  8
0
 62
256
370
-1
  6
ByLayer
 10
6.4749995686991335
 20
-3.7383427439911601
 30
0.0
 11
6.4750002154893389
 21
3.7383428685899966
 31
0.0
  0
LINE
  5
59
100
AcDbEntity
100
AcDbLine
  8
0
 62
256
370
-1
  6
ByLayer
 10
6.4749995686991388
 20
3.7383427439911507
 30
0.0
 11
0.0000002154893365
 21
7.4766861104184805
 31
0.0
  0
ENDBLK
  5
5A
100
AcDbEntity
  8
0
100
AcDbBlockEnd
  0
BLOCK
  5
5B
100
AcDbEntity
  8
0
100
AcDbBlockBegin
  2
tgrips
 70
0
 10
0.0
 20
0.0
 30
0.0
  3
tgrips
  1

  0
ARC
  5
5C
100
AcDbEntity
  8
0
 62
256
370
-1
  6
ByLayer
100
AcDbCircle
 10
-2.0
 20
-11.5
 30
0.0
 40
0.5
100
AcDbArc
 50
0.0
 51
90.0
  0
ARC
  5
5D
100
AcDbEntity
  8
0
 62
256
370
-1
  6
ByLayer
100
AcDbCircle
 10
2.0
 20
-11.5
 30
0.0
 40
0.5
100
AcDbArc
 50
90.0
 51
180.0
  0
ARC
  5
5E
100
AcDbEntity
  8
0
 62
256
370
-1
  6
ByLayer
100
AcDbCircle
 10
2.2495808837122491
 20
-8.4995253663561314
 30
0.0
 40
0.5
100
AcDbArc
 50
359.95194735795809
 51
89.94563078508574
  0
LINE
  5
5F
100
AcDbEntity
100
AcDbLine
  8
0
 62
256
370
-1
  6
ByLayer
 10
2.2500553445470333
 20
-7.9995255914692649
 30
0.0
 11
1.9003349326086765
 21
-7.9991937340426755
 31
0.0
  0
ARC
  5
60
100
AcDbEntity
  8
0
 62
256
370
-1
  6
ByLayer
100
AcDbCircle
 10
1.9008093934434607
 20
-7.4991939591558099
 30
0.0
 40
0.5
100
AcDbArc
 50
180.0
 51
269.94563078508577
  0
ARC
  5
61
100
AcDbEntity
  8
0
 62
256
370
-1
  6
ByLayer
100
AcDbCircle
 10
-1.9165352659438315
 20
-7.4991995800184572
 30
0.0
 40
0.5
100
AcDbArc
 50
270.05500828983367
 51
0.005877695893504
  0
LINE
  5
62
100
AcDbEntity
100
AcDbLine
  8
0
 62
256
370
-1
  6
ByLayer
 10
-1.9160552281308325
 20
-7.9991993495821019
 30
0.0
 11
-2.2512606205879857
 21
-7.9995211722574222
 31
0.0
  0
ARC
  5
63
100
AcDbEntity
  8
0
 62
256
370
-1
  6
ByLayer
100
AcDbCircle
 10
-2.2507805827749867
 20
-8.4995209418210678
 30
0.0
 40
0.5
100
AcDbArc
 50
90.055008289833665
 51
179.91039595944716
  0
LINE
  5
64
100
AcDbEntity
100
AcDbLine
  8
0
 62
256
370
-1
  6
ByLayer
 10
-2.7507799713406231
 20
-8.4987389993744173
 30
0.0
 11
-2.7539084941448415
 21
-10.499218057553351
 31
0.0
  0
LINE
  5
65
100
AcDbEntity
100
AcDbLine
  8
0
 62
256
370
-1
  6
ByLayer
 10
-2.2539091055792051
 20
-11.0
 30
0.0
 11
-2.0
 21
-11.0
 31
0.0
  0
ARC
  5
66
100
AcDbEntity
  8
0
 62
256
370
-1
  6
ByLayer
100
AcDbCircle
 10
-2.2539091055792051
 20
-10.5
 30
0.0
 40
0.5
100
AcDbArc
 50
179.91039595944716
 51
270.0
  0
LINE
  5
67
100
AcDbEntity
100
AcDbLine
  8
0
 62
256
370
-1
  6
ByLayer
 10
2.0
 20
-11.0
 30
0.0
 11
2.2479031316186195
 21
-11.0
 31
0.0
  0
LINE
  5
68
100
AcDbEntity
100
AcDbLine
  8
0
 62
256
370
-1
  6
ByLayer
 10
2.7495807078675583
 20
-8.4999447047159791
 30
0.0
 11
2.7479029557739287
 21
-10.500419338359849
 31
0.0
  0
ARC
  5
69
100
AcDbEntity
  8
0
 62
256
370
-1
  6
ByLayer
100
AcDbCircle
 10
2.2479031316186195
 20
-10.5
 30
0.0
 40
0.5
100
AcDbArc
 50
270.0
 51
359.95194735795809
  0
LINE
  5
6A
100
AcDbEntity
100
AcDbLine
  8
0
 62
256
370
-1
  6
ByLayer
 10
-1.5
 20
-11.5
 30
0.0
 11
-1.5
 21
-12.5
 31
0.0
  0
ARC
  5
6B
100
AcDbEntity
  8
0
 62
256
370
-1
  6
ByLayer
100
AcDbCircle
 10
-1.0
 20
-12.5
 30
0.0
 40
0.5
100
AcDbArc
 50
180.0
 51
270.0
  0
LINE
  5
6C
100
AcDbEntity
100
AcDbLine
  8
0
 62
256
370
-1
  6
ByLayer
 10
1.5
 20
-12.5
 30
0.0
 11
1.5
 21
-11.5
 31
0.0
  0
LINE
  5
6D
100
AcDbEntity
100
AcDbLine
  8
0
 62
256
370
-1
  6
ByLayer
 10
-1.0
 20
-13.0
 30
0.0
 11
1.0
 21
-13.0
 31
0.0
  0
ARC
  5
6E
100
AcDbEntity
  8
0
 62
256
370
-1
  6
ByLayer
100
AcDbCircle
 10
1.0
 20
-12.5
 30
0.0
 40
0.5
100
AcDbArc
 50
270.0
 51
0.0
  0
LINE
  5
6F
100
AcDbEntity
100
AcDbLine
  8
0
 62
256
370
-1
  6
ByLayer
 10
1.9014327663442394
 20
0.0038631286911689
 30
0.0
 11
5.0
 21
0.0
 31
0.0
  0
LINE
  5
70
100
AcDbEntity
100
AcDbLine
  8
0
 62
256
370
-1
  6
ByLayer
 10
1.4008093934434609
 20
-7.4991939591558019
 30
0.0
 11
1.4008093934435593
 21
-0.4961364827149
 31
0.0
  0
ARC
  5
71
100
AcDbEntity
  8
0
 62
256
370
-1
  6
ByLayer
100
AcDbCircle
 10
1.9008093934435593
 20
-0.4961364827149068
 30
0.0
 40
0.5
100
AcDbArc
 50
89.928566708950711
 51
180.0
  0
LINE
  5
72
100
AcDbEntity
100
AcDbLine
  8
0
 62
256
370
-1
  6
ByLayer
 10
-1.417157535814185
 20
-0.4999555472137959
 30
0.0
 11
-1.4165352685747592
 21
-7.499148287445899
 31
0.0
  0
LINE
  5
73
100
AcDbEntity
100
AcDbLine
  8
0
 62
256
370
-1
  6
ByLayer
 10
-5.0
 20
0.0
 30
0.0
 11
-1.9171575338381346
 21
0.0
 31
0.0
  0
ARC
  5
74
100
AcDbEntity
  8
0
 62
256
370
-1
  6
ByLayer
100
AcDbCircle
 10
-1.9171575338381348
 20
-0.5
 30
0.0
 40
0.5
100
AcDbArc
 50
0.0050939140900938
 51
89.999999999999972
  0
LINE
  5
75
100
AcDbEntity
100
AcDbLine
  8
0
 62
256
370
-1
  6
ByLayer
 10
5.0
 20
0.0
 30
0.0
 11
5.0
 21
3.5
 31
0.0
  0
ARC
  5
76
100
AcDbEntity
  8
0
 62
256
370
-1
  6
ByLayer
100
AcDbCircle
 10
5.5
 20
3.5
 30
0.0
 40
0.5
100
AcDbArc
 50
90.0
 51
180.0
  0
LINE
  5
77
100
AcDbEntity
100
AcDbLine
  8
0
 62
256
370
-1
  6
ByLayer
 10
5.5
 20
4.0
 30
0.0
 11
14.5
 21
4.0
 31
0.0
  0
LINE
  5
78
100
AcDbEntity
100
AcDbLine
  8
0
 62
256
370
-1
  6
ByLayer
 10
15.0
 20
3.5
 30
0.0
 11
15.0
 21
0.0
 31
0.0
  0
ARC
  5
79
100
AcDbEntity
  8
0
 62
256
370
-1
  6
ByLayer
100
AcDbCircle
 10
14.5
 20
3.5
 30
0.0
 40
0.5
100
AcDbArc
 50
0.0
 51
90.0
  0
LINE
  5
7A
100
AcDbEntity
100
AcDbLine
  8
0
 62
256
370
-1
  6
ByLayer
 10
-5.0
 20
3.5
 30
0.0
 11
-5.0
 21
0.0
 31
0.0
  0
ARC
  5
7B
100
AcDbEntity
  8
0
 62
256
370
-1
  6
ByLayer
100
AcDbCircle
 10
-5.5
 20
3.5
 30
0.0
 40
0.5
100
AcDbArc
 50
0.0
 51
90.0
  0
LINE
  5
7C
100
AcDbEntity
100
AcDbLine
  8
0
 62
256
370
-1
  6
ByLayer
 10
-15.0
 20
0.0
 30
0.0
 11
-15.0
 21
3.5
 31
0.0
  0
LINE
  5
7D
100
AcDbEntity
100
AcDbLine
  8
0
 62
256
370
-1
  6
ByLayer
 10
-14.5
 20
4.0
 30
0.0
 11
-5.5
 21
4.0
 31
0.0
  0
ARC
  5
7E
100
AcDbEntity
  8
0
 62
256
370
-1
  6
ByLayer
100
AcDbCircle
 10
-14.5
 20
3.5
 30
0.0
 40
0.5
100
AcDbArc
 50
90.0
 51
180.0
  0
ENDBLK
  5
7F
100
AcDbEntity
  8
0
100
AcDbBlockEnd
  0
BLOCK
  5
80
100
AcDbEntity
  8
0
100
AcDbBlockBegin
  2
tcutout
 70
0
 10
0.0
 20
0.0
 30
0.0
  3
tcutout
  1

  0
LINE
  5
81
100
AcDbEntity
100
AcDbLine
  8
0
 62
256
370
-1
  6
ByLayer
 10
-15.0
 20
0.0000000000000031
 30
0.0
 11
-5.0
 21
-0.0000000000000009
 31
0.0
  0
LINE
  5
82
100
AcDbEntity
100
AcDbLine
  8
0
 62
256
370
-1
  6
ByLayer
 10
5.0
 20
0.0000000000000004
 30
0.0
 11
15.0
 21
0.0000000000000027
 31
0.0
  0
LINE
  5
83
100
AcDbEntity
100
AcDbLine
  8
0
 62
256
370
-1
  6
ByLayer
 10
5.0
 20
4.5
 30
0.0
 11
15.0
 21
4.5000000000000027
 31
0.0
  0
LINE
  5
84
100
AcDbEntity
100
AcDbLine
  8
0
 62
256
370
-1
  6
ByLayer
 10
-14.999999999999998
 20
4.5000000000000036
 30
0.0
 11
-4.9999999999999982
 21
4.4999999999999991
 31
0.0
  0
LINE
  5
85
100
AcDbEntity
100
AcDbLine
  8
0
 62
256
370
-1
  6
ByLayer
 10
-15.0
 20
0.0000000000000031
 30
0.0
 11
-14.999999999999998
 21
4.5000000000000036
 31
0.0
  0
LINE
  5
86
100
AcDbEntity
100
AcDbLine
  8
0
 62
256
370
-1
  6
ByLayer
 10
-4.9999999999999982
 20
4.4999999999999991
 30
0.0
 11
-5.0
 21
-0.0000000000000004
 31
0.0
  0
LINE
  5
87
100
AcDbEntity
100
AcDbLine
  8
0
 62
256
370
-1
  6
ByLayer
 10
5.0
 20
0.0000000000000004
 30
0.0
 11
5.0
 21
4.5
 31
0.0
  0
LINE
  5
88
100
AcDbEntity
100
AcDbLine
  8
0
 62
256
370
-1
  6
ByLayer
 10
15.0
 20
4.5000000000000027
 30
0.0
 11
15.0
 21
0.0000000000000027
 31
0.0
  0
CIRCLE
  5
89
100
AcDbEntity
100
AcDbCircle
  8
0
 62
256
370
-1
  6
ByLayer
 10
0.0000000000000004
 20
2.2499999999999996
 30
0.0
 40
1.5
  0
LINE
  5
8A
100
AcDbEntity
100
AcDbLine
  8
Drawings
 62
256
370
-1
  6
ByLayer
 10
5.0
 20
2.2499999999999996
 30
0.0
 11
-5.0
 21
2.2499999999999996
 31
0.0
  0
ENDBLK
  5
8B
100
AcDbEntity
  8
0
100
AcDbBlockEnd
  0
ENDSEC
  0
SECTION
  2
ENTITIES
  0
LINE
  5
8C
100
AcDbEntity
100
AcDbLine
  8
Drawings
 62
256
370
-1
  6
ByLayer
 10
10.0
 20
97.0
 30
0.0
 11
10.0
 21
73.0
 31
0.0
  0
LINE
  5
8D
100
AcDbEntity
100
AcDbLine
  8
Drawings
 62
256
370
-1
  6
ByLayer
 10
-15.000000000000002
 20
92.0
 30
0.0
 11
14.999999999999998
 21
92.0
 31
0.0
  0
LINE
  5
8E
100
AcDbEntity
100
AcDbLine
  8
Drawings
 62
256
370
-1
  6
ByLayer
 10
-10.0
 20
73.0
 30
0.0
 11
-10.0
 21
97.0
 31
0.0
  0
LINE
  5
8F
100
AcDbEntity
100
AcDbLine
  8
Drawings
 62
256
370
-1
  6
ByLayer
 10
15.000000000000002
 20
78.0
 30
0.0
 11
-14.999999999999998
 21
78.0
 31
0.0
  0
ARC
  5
90
100
AcDbEntity
  8
03 - Bottom
 62
256
370
-1
  6
ByLayer
100
AcDbCircle
 10
-102.50299223148819
 20
67.500000000004235
 30
0.0
 40
2.5
100
AcDbArc
 50
180.0
 51
270.0
  0
ARC
  5
91
100
AcDbEntity
  8
03 - Bottom
 62
256
370
-1
  6
ByLayer
100
AcDbCircle
 10
102.49736286928983
 20
67.500000000005684
 30
0.0
 40
2.5
100
AcDbArc
 50
270.0
 51
0.0
  0
LINE
  5
92
100
AcDbEntity
100
AcDbLine
  8
03 - Bottom
 62
256
370
-1
  6
ByLayer
 10
-102.50299223148819
 20
65.000000000004121
 30
0.0
 11
102.49736286928983
 21
65.000000000005798
 31
0.0
  0
LINE
  5
93
100
AcDbEntity
100
AcDbLine
  8
Drawings
 62
256
370
-1
  6
ByLayer
 10
-105.00263713071031
 20
15.000000000004182
 30
0.0
 11
104.99736286928966
 21
15.000000000000851
 31
0.0
  0
LINE
  5
94
100
AcDbEntity
100
AcDbLine
  8
Drawings
 62
256
370
-1
  6
ByLayer
 10
-105.00294784389096
 20
85.000000000004178
 30
0.0
 11
104.99736286928974
 21
85.000000000000853
 31
0.0
  0
LINE
  5
95
100
AcDbEntity
100
AcDbLine
  8
Drawings
 62
256
370
-1
  6
ByLayer
 10
-130.04394491376448
 20
139.95867815356772
 30
0.0
 11
130.04394491376448
 21
139.95867815356769
 31
0.0
  0
LINE
  5
96
100
AcDbEntity
100
AcDbLine
  8
Drawings
 62
256
370
-1
  6
ByLayer
 10
-50.002992231488193
 20
159.9586781535682
 30
0.0
 11
-50.002992231488193
 21
67.499999999999304
 31
0.0
  0
LINE
  5
97
100
AcDbEntity
100
AcDbLine
  8
Drawings
 62
256
370
-1
  6
ByLayer
 10
49.99736286928983
 20
159.95867815356922
 30
0.0
 11
49.99736286928983
 21
67.500000000000952
 31
0.0
  0
INSERT
  5
98
100
AcDbEntity
100
AcDbBlockReference
  8
03 - Bottom
 62
256
370
-1
  6
ByLayer
  2
tcutout
 10
49.99736286928983
 20
85.00000000000172
 30
0.0
 50
90.0
 44
1.0
 45
1.0
  0
ARC
  5
99
100
AcDbEntity
  8
03 - Bottom
 62
256
370
-1
  6
ByLayer
100
AcDbCircle
 10
-102.50299223148819
 20
104.9999999999994
 30
0.0
 40
2.5
100
AcDbArc
 50
90.0
 51
180.0
  0
ARC
  5
9A
100
AcDbEntity
  8
03 - Bottom
 62
256
370
-1
  6
ByLayer
100
AcDbCircle
 10
102.49736286928983
 20
105.00000000000082
 30
0.0
 40
2.5
100
AcDbArc
 50
0.0
 51
90.0
  0
LINE
  5
9B
100
AcDbEntity
100
AcDbLine
  8
03 - Bottom
 62
256
370
-1
  6
ByLayer
 10
-102.50299223148819
 20
107.49999999999926
 30
0.0
 11
102.49736286928983
 21
107.50000000000091
 31
0.0
  0
LINE
  5
9C
100
AcDbEntity
100
AcDbLine
  8
03 - Bottom
 62
256
370
-1
  6
ByLayer
 10
104.9973628692898
 20
104.99999999999615
 30
0.0
 11
104.9973628692898
 21
67.500000000005542
 31
0.0
  0
LINE
  5
9D
100
AcDbEntity
100
AcDbLine
  8
03 - Bottom
 62
256
370
-1
  6
ByLayer
 10
-105.00302552213802
 20
104.99998916661301
 30
0.0
 11
-105.00299223148819
 21
67.500000000004206
 31
0.0
  0
CIRCLE
  5
9E
100
AcDbEntity
100
AcDbCircle
  8
Drawings - TR-8x8 Flange
 62
256
370
-1
  6
ByLayer
 10
-0.0026371307103119
 20
85.000000000002501
 30
0.0
 40
5.0
  0
CIRCLE
  5
9F
100
AcDbEntity
100
AcDbCircle
  8
Drawings - TR-8x8 Flange
 62
256
370
-1
  6
ByLayer
 10
-0.0026371307103119
 20
93.00000000000253
 30
0.0
 40
1.5
  0
CIRCLE
  5
A0
100
AcDbEntity
100
AcDbCircle
  8
Drawings - TR-8x8 Flange
 62
256
370
-1
  6
ByLayer
 10
7.997362869289816
 20
85.000000000002387
 30
0.0
 40
1.5
  0
CIRCLE
  5
A1
100
AcDbEntity
100
AcDbCircle
  8
Drawings - TR-8x8 Flange
 62
256
370
-1
  6
ByLayer
 10
-8.0026371307104256
 20
85.000000000002643
 30
0.0
 40
1.5
  0
CIRCLE
  5
A2
100
AcDbEntity
100
AcDbCircle
  8
Drawings - TR-8x8 Flange
 62
256
370
-1
  6
ByLayer
 10
-0.0026371307103119
 20
77.000000000002487
 30
0.0
 40
1.5
  0
CIRCLE
  5
A3
100
AcDbEntity
100
AcDbCircle
  8
Drawings
 62
256
370
-1
  6
ByLayer
 10
-0.0026371307103119
 20
85.000000000002501
 30
0.0
 40
11.0
  0
INSERT
  5
A4
100
AcDbEntity
100
AcDbBlockReference
  8
Drawings - 5/16" Nuts
 62
256
370
-1
  6
ByLayer
  2
nut cut outs
 10
-0.0026371307103119
 20
85.000000000000142
 30
0.0
 44
1.0
 45
1.0
  0
CIRCLE
  5
A5
100
AcDbEntity
100
AcDbCircle
  8
Drawings - 5/16" Nuts
 62
256
370
-1
  6
ByLayer
 10
10.0
 20
92.0
 30
0.0
 40
1.5
  0
CIRCLE
  5
A6
100
AcDbEntity
100
AcDbCircle
  8
Drawings - 5/16" Nuts
 62
256
370
-1
  6
ByLayer
 10
10.0
 20
78.0
 30
0.0
 40
1.5
  0
CIRCLE
  5
A7
100
AcDbEntity
100
AcDbCircle
  8
Drawings - 5/16" Nuts
 62
256
370
-1
  6
ByLayer
 10
-9.9999999999999982
 20
78.0
 30
0.0
 40
1.5
  0
CIRCLE
  5
A8
100
AcDbEntity
100
AcDbCircle
  8
Drawings - 5/16" Nuts
 62
256
370
-1
  6
ByLayer
 10
-10.0
 20
92.0
 30
0.0
 40
1.5
  0
CIRCLE
  5
A9
100
AcDbEntity
100
AcDbCircle
  8
Drawings - Roton Hi-Lead - 1/4"
 62
256
370
-1
  6
ByLayer
 10
-0.0026371307103119
 20
85.000000000002501
 30
0.0
 40
6.3499999999999996
  0
CIRCLE
  5
AA
100
AcDbEntity
100
AcDbCircle
  8
Drawings - Roton Hi-Lead - 1/4"
 62
256
370
-1
  6
ByLayer
 10
-0.0026371307103119
 20
94.525000000002535
 30
0.0
 40
1.778
  0
CIRCLE
  5
AB
100
AcDbEntity
100
AcDbCircle
  8
Drawings - Roton Hi-Lead - 1/4"
 62
256
370
-1
  6
ByLayer
 10
-8.2515291017571215
 20
80.237500000002484
 30
0.0
 40
1.778
  0
CIRCLE
  5
AC
100
AcDbEntity
100
AcDbCircle
  8
Drawings - Roton Hi-Lead - 1/4"
 62
256
370
-1
  6
ByLayer
 10
8.2462548403364941
 20
80.237500000002484
 30
0.0
 40
1.778
  0
CIRCLE
  5
AD
100
AcDbEntity
100
AcDbCircle
  8
Drawings
 62
256
370
-1
  6
ByLayer
 10
-0.0026371307103119
 20
85.000000000002515
 30
0.0
 40
12.699999999999999
  0
CIRCLE
  5
AE
100
AcDbEntity
100
AcDbCircle
  8
Drawings - Roton Acme - 3/8"
 62
256
370
-1
  6
ByLayer
 10
-0.0026371307103119
 20
85.000000000002515
 30
0.0
 40
7.9375
  0
CIRCLE
  5
AF
100
AcDbEntity
100
AcDbCircle
  8
Drawings - Roton Acme - 3/8"
 62
256
370
-1
  6
ByLayer
 10
-0.0026371307103119
 20
96.112500000002512
 30
0.0
 40
1.778
  0
CIRCLE
  5
B0
100
AcDbEntity
100
AcDbCircle
  8
Drawings - Roton Acme - 3/8"
 62
256
370
-1
  6
ByLayer
 10
-9.6263444302648864
 20
79.443750000002524
 30
0.0
 40
1.778
  0
CIRCLE
  5
B1
100
AcDbEntity
100
AcDbCircle
  8
Drawings - Roton Acme - 3/8"
 62
256
370
-1
  6
ByLayer
 10
9.6210701688442573
 20
79.44375000000251
 30
0.0
 40
1.778
  0
CIRCLE
  5
B2
100
AcDbEntity
100
AcDbCircle
  8
Drawings
 62
256
370
-1
  6
ByLayer
 10
-0.0026371307103119
 20
85.000000000002515
 30
0.0
 40
14.2875
  0
LINE
  5
B3
100
AcDbEntity
100
AcDbLine
  8
Drawings
 62
256
370
-1
  6
ByLayer
 10
-102.50302552216154
 20
-52.000000000000696
 30
0.0
 11
102.49736286928977
 21
-51.999999999999062
 31
0.0
  0
LINE
  5
B4
100
AcDbEntity
100
AcDbLine
  8
Drawings
 62
256
370
-1
  6
ByLayer
 10
-105.00263713071031
 20
159.95867815356763
 30
0.0
 11
-105.00263713071031
 21
-73.756806754931787
 31
0.0
  0
LINE
  5
B5
100
AcDbEntity
100
AcDbLine
  8
Drawings
 62
256
370
-1
  6
ByLayer
 10
-0.0026371307103119
 20
159.95867815356868
 30
0.0
 11
-0.0026371307103119
 21
-73.756806754931816
 31
0.0
  0
LINE
  5
B6
100
AcDbEntity
100
AcDbLine
  8
Drawings
 62
256
370
-1
  6
ByLayer
 10
104.99736286928969
 20
159.95867815356979
 30
0.0
 11
104.99736286928969
 21
-73.756806754931844
 31
0.0
  0
MTEXT
  5
B7
100
AcDbEntity
100
AcDbMText
  8
Text
 62
256
370
-1
  6
ByLayer
 10
0.0
 20
0.0
 30
0.0
 40
5.0
 41
100.0
 71
5
 72
2
  1
Z\~Stage
  7
standard
 50
0.0
 73
0
 44
1.0
  0
MTEXT
  5
B8
100
AcDbEntity
100
AcDbMText
  8
Text
 62
256
370
-1
  6
ByLayer
 10
0.0
 20
70.0
 30
0.0
 40
5.0
 41
100.0
 71
5
 72
2
  1
Bottom
  7
standard
 50
0.0
 73
0
 44
1.0
  0
MTEXT
  5
B9
100
AcDbEntity
100
AcDbMText
  8
Text
 62
256
370
-1
  6
ByLayer
 10
260.0
 20
150.0
 30
0.0
 40
5.0
 41
100.0
 71
5
 72
2
  1
Right
  7
standard
 50
0.0
 73
0
 44
1.0
  0
LINE
  5
BA
100
AcDbEntity
100
AcDbLine
  8
Drawings
 62
256
370
-1
  6
ByLayer
 10
-285.05096783495355
 20
159.9050552610999
 30
0.0
 11
-285.05096783495355
 21
146.9050552610999
 31
0.0
  0
LINE
  5
BB
100
AcDbEntity
100
AcDbLine
  8
Drawings
 62
256
370
-1
  6
ByLayer
 10
-218.05096783495355
 20
159.90505526109987
 30
0.0
 11
-218.05096783495355
 21
146.90505526109987
 31
0.0
  0
MTEXT
  5
BC
100
AcDbEntity
100
AcDbMText
  8
Text
 62
256
370
-1
  6
ByLayer
 10
-260.00527426142065
 20
149.99999999999983
 30
0.0
 40
5.0
 41
100.0
 71
5
 72
2
  1
Left
  7
standard
 50
360.0
 73
0
 44
1.0
  0
MTEXT
  5
BD
100
AcDbEntity
100
AcDbMText
  8
Text
 62
256
370
-1
  6
ByLayer
 10
10.0
 20
210.0
 30
0.0
 40
5.0
 41
100.0
 71
5
 72
2
  1
Rib
  7
standard
 50
0.0
 73
0
 44
1.0
  0
INSERT
  5
BE
100
AcDbEntity
100
AcDbBlockReference
  8
01 - Rib
 62
256
370
-1
  6
ByLayer
  2
tgrips
 10
0.0
 20
189.99776047881491
 30
0.0
 41
1.0
 42
-1.0
 43
1.0
 50
360.0
 44
1.0
 45
1.0
  0
INSERT
  5
BF
100
AcDbEntity
100
AcDbBlockReference
  8
01 - Rib
 62
256
370
-1
  6
ByLayer
  2
tgrips
 10
0.0
 20
230.00223952118509
 30
0.0
 41
1.0
 42
-1.0
 43
1.0
 50
180.0
 44
1.0
 45
1.0
  0
INSERT
  5
C0
100
AcDbEntity
100
AcDbBlockReference
  8
01 - Rib
 62
256
370
-1
  6
ByLayer
  2
tgrips
 10
-15.0
 20
210.0
 30
0.0
 50
90.0
 44
1.0
 45
1.0
  0
LINE
  5
C1
100
AcDbEntity
100
AcDbLine
  8
01 - Rib
 62
256
370
-1
  6
ByLayer
 10
-15.0
 20
230.00223952118509
 30
0.0
 11
-14.999999999999998
 21
225.0
 31
0.0
  0
LINE
  5
C2
100
AcDbEntity
100
AcDbLine
  8
01 - Rib
 62
256
370
-1
  6
ByLayer
 10
-15.000000000000004
 20
195.0
 30
0.0
 11
-15.0
 21
189.99776047881491
 31
0.0
  0
LINE
  5
C3
100
AcDbEntity
100
AcDbLine
  8
01 - Rib
 62
256
370
-1
  6
ByLayer
 10
20.0
 20
230.00223952118509
 30
0.0
 11
20.0
 21
189.99776047881491
 31
0.0
  0
LINE
  5
C4
100
AcDbEntity
100
AcDbLine
  8
01 - Rib
 62
256
370
-1
  6
ByLayer
 10
15.0
 20
230.00223952118509
 30
0.0
 11
20.0
 21
230.00223952118509
 31
0.0
  0
LINE
  5
C5
100
AcDbEntity
100
AcDbLine
  8
01 - Rib
 62
256
370
-1
  6
ByLayer
 10
15.0
 20
189.99776047881491
 30
0.0
 11
20.0
 21
189.99776047881491
 31
0.0
  0
INSERT
  5
C6
100
AcDbEntity
100
AcDbBlockReference
  8
02 - Back
 62
256
370
-1
  6
ByLayer
  2
tgrips
 10
-0.0026371307103119
 20
119.95867815356857
 30
0.0
 50
180.0
 44
1.0
 45
1.0
  0
INSERT
  5
C7
100
AcDbEntity
100
AcDbBlockReference
  8
02 - Back
 62
256
370
-1
  6
ByLayer
  2
tgrips
 10
-0.0026371307103119
 20
159.95867815356857
 30
0.0
 44
1.0
 45
1.0
  0
INSERT
  5
C8
100
AcDbEntity
100
AcDbBlockReference
  8
02 - Back
 62
256
370
-1
  6
ByLayer
  2
tgrips
 10
-97.502992231488193
 20
139.95867815356772
 30
0.0
 50
90.0
 44
1.0
 45
1.0
  0
INSERT
  5
C9
100
AcDbEntity
100
AcDbBlockReference
  8
02 - Back
 62
256
370
-1
  6
ByLayer
  2
tgrips
 10
97.49736286928983
 20
139.95867815356939
 30
0.0
 50
-90.0
 44
1.0
 45
1.0
  0
LINE
  5
CA
100
AcDbEntity
100
AcDbLine
  8
02 - Back
 62
256
370
-1
  6
ByLayer
 10
-97.502992231488193
 20
159.95867815356769
 30
0.0
 11
-15.002637130710312
 21
159.95867815356854
 31
0.0
  0
LINE
  5
CB
100
AcDbEntity
100
AcDbLine
  8
02 - Back
 62
256
370
-1
  6
ByLayer
 10
-97.502992231488193
 20
154.95867815356772
 30
0.0
 11
-97.502992231488193
 21
159.95867815356769
 31
0.0
  0
LINE
  5
CC
100
AcDbEntity
100
AcDbLine
  8
02 - Back
 62
256
370
-1
  6
ByLayer
 10
97.49736286928983
 20
154.95867815356939
 30
0.0
 11
97.49736286928983
 21
159.95867815356939
 31
0.0
  0
LINE
  5
CD
100
AcDbEntity
100
AcDbLine
  8
02 - Back
 62
256
370
-1
  6
ByLayer
 10
14.997362869289688
 20
159.95867815356854
 30
0.0
 11
97.49736286928983
 21
159.95867815356939
 31
0.0
  0
LINE
  5
CE
100
AcDbEntity
100
AcDbLine
  8
02 - Back
 62
256
370
-1
  6
ByLayer
 10
14.997362869289688
 20
119.95867815356857
 30
0.0
 11
97.49736286928983
 21
119.95867815356939
 31
0.0
  0
LINE
  5
CF
100
AcDbEntity
100
AcDbLine
  8
02 - Back
 62
256
370
-1
  6
ByLayer
 10
97.49736286928983
 20
124.95867815356939
 30
0.0
 11
97.49736286928983
 21
119.95867815356939
 31
0.0
  0
LINE
  5
D0
100
AcDbEntity
100
AcDbLine
  8
02 - Back
 62
256
370
-1
  6
ByLayer
 10
-97.502992231488193
 20
124.95867815356772
 30
0.0
 11
-97.502992231488193
 21
119.95867815356769
 31
0.0
  0
LINE
  5
D1
100
AcDbEntity
100
AcDbLine
  8
02 - Back
 62
256
370
-1
  6
ByLayer
 10
-97.502992231488193
 20
119.95867815356769
 30
0.0
 11
-15.002637130710312
 21
119.95867815356857
 31
0.0
  0
INSERT
  5
D2
100
AcDbEntity
100
AcDbBlockReference
  8
02 - Back
 62
256
370
-1
  6
ByLayer
  2
tcutout
 10
49.99736286928983
 20
139.95867815356769
 30
0.0
 50
90.0
 44
1.0
 45
1.0
  0
MTEXT
  5
D3
100
AcDbEntity
100
AcDbMText
  8
Text
 62
256
370
-1
  6
ByLayer
 10
0.0
 20
140.0
 30
0.0
 40
5.0
 41
100.0
 71
5
 72
2
  1
Back
  7
standard
 50
0.0
 73
0
 44
1.0
  0
INSERT
  5
D4
100
AcDbEntity
100
AcDbBlockReference
  8
04 - Left
 62
256
370
-1
  6
ByLayer
  2
tgrips
 10
-285.05096783495355
 20
159.9050552610999
 30
0.0
 50
0.0201461944275637
 44
1.0
 45
1.0
  0
LINE
  5
D5
100
AcDbEntity
100
AcDbLine
  8
04 - Left
 62
256
370
-1
  6
ByLayer
 10
-300.05096690769255
 20
159.89978099984245
 30
0.0
 11
-304.30776664454811
 21
159.89828423482209
 31
0.0
  0
ARC
  5
D6
100
AcDbEntity
  8
04 - Left
 62
256
370
-1
  6
ByLayer
100
AcDbCircle
 10
-304.30688760100526
 20
157.39828438936581
 30
0.0
 40
2.5
100
AcDbArc
 50
90.02014619442248
 51
180.02014619442755
  0
INSERT
  5
D7
100
AcDbEntity
100
AcDbBlockReference
  8
04 - Left
 62
256
370
-1
  6
ByLayer
  2
tgrips
 10
-145.05917357338893
 20
159.95652245703792
 30
0.0
 44
1.0
 45
1.0
  0
INSERT
  5
D8
100
AcDbEntity
100
AcDbBlockReference
  8
04 - Left
 62
256
370
-1
  6
ByLayer
  2
tgrips
 10
-145.02871470870485
 20
119.95204341466781
 30
0.0
 50
180.0
 44
1.0
 45
1.0
  0
LINE
  5
D9
100
AcDbEntity
100
AcDbLine
  8
04 - Left
 62
256
370
-1
  6
ByLayer
 10
-165.54831251436187
 20
119.94707200601054
 30
0.0
 11
-160.02871470870485
 21
119.94707200601054
 31
0.0
  0
LINE
  5
DA
100
AcDbEntity
100
AcDbLine
  8
04 - Left
 62
256
370
-1
  6
ByLayer
 10
-130.05917357338893
 20
159.95652245703792
 30
0.0
 11
-122.55478554647316
 21
159.95652245703792
 31
0.0
  0
LINE
  5
DB
100
AcDbEntity
100
AcDbLine
  8
04 - Left
 62
256
370
-1
  6
ByLayer
 10
-130.02871470870485
 20
119.95204341466781
 30
0.0
 11
-122.5407166518565
 21
119.94458601483443
 31
0.0
  0
LINE
  5
DC
100
AcDbEntity
100
AcDbLine
  8
04 - Left
 62
256
370
-1
  6
ByLayer
 10
-122.55478554647316
 20
159.95652245703792
 30
0.0
 11
-122.5407166518565
 21
119.94458601483443
 31
0.0
  0
INSERT
  5
DD
100
AcDbEntity
100
AcDbBlockReference
  8
04 - Left
 62
256
370
-1
  6
ByLayer
  2
tgrips
 10
-218.05096783495355
 20
159.90505526109987
 30
0.0
 44
1.0
 45
1.0
  0
LINE
  5
DE
100
AcDbEntity
100
AcDbLine
  8
04 - Left
 62
256
370
-1
  6
ByLayer
 10
-270.05096876221467
 20
159.91032952235884
 30
0.0
 11
-233.05096783495355
 21
159.90505526109987
 31
0.0
  0
LINE
  5
DF
100
AcDbEntity
100
AcDbLine
  8
04 - Left
 62
256
370
-1
  6
ByLayer
 10
-203.05096783495355
 20
159.90505526109987
 30
0.0
 11
-160.05917357338893
 21
159.95652245703792
 31
0.0
  0
LINE
  5
E0
100
AcDbEntity
100
AcDbLine
  8
04 - Left
 62
256
370
-1
  6
ByLayer
 10
-306.80688744646187
 20
157.39740534582211
 30
0.0
 11
-306.80531419223132
 21
152.92307029755332
 31
0.0
  0
LINE
  5
E1
100
AcDbEntity
100
AcDbLine
  8
04 - Left
 62
256
370
-1
  6
ByLayer
 10
-293.90307817067941
 20
138.07575588945528
 30
0.0
 11
-165.54831251436187
 21
119.94707200601054
 31
0.0
  0
ARC
  5
E2
100
AcDbEntity
  8
04 - Left
 62
256
370
-1
  6
ByLayer
100
AcDbCircle
 10
-291.80531511949243
 20
152.92834455881103
 30
0.0
 40
15.0
100
AcDbArc
 50
180.02014619442755
 51
261.9607831635293
  0
INSERT
  5
E3
100
AcDbEntity
100
AcDbBlockReference
  8
06 - Top
 62
256
370
-1
  6
ByLayer
  2
tcutout
 10
49.99736286928983
 20
85.00000000000172
 30
0.0
 50
90.0
 44
1.0
 45
1.0
  0
ARC
  5
E4
100
AcDbEntity
  8
06 - Top
 62
256
370
-1
  6
ByLayer
100
AcDbCircle
 10
-102.50302552216151
 20
104.99999999999453
 30
0.0
 40
2.5
100
AcDbArc
 50
90.0
 51
180.00025432281831
  0
ARC
  5
E5
100
AcDbEntity
  8
06 - Top
 62
256
370
-1
  6
ByLayer
100
AcDbCircle
 10
102.4973628692898
 20
104.99999999999615
 30
0.0
 40
2.5
100
AcDbArc
 50
360.0
 51
90.0
  0
LINE
  5
E6
100
AcDbEntity
100
AcDbLine
  8
06 - Top
 62
256
370
-1
  6
ByLayer
 10
-102.50302552216151
 20
107.49999999999453
 30
0.0
 11
102.4973628692898
 21
107.49999999999616
 31
0.0
  0
CIRCLE
  5
E7
100
AcDbEntity
100
AcDbCircle
  8
06 - Top
 62
256
370
-1
  6
ByLayer
 10
51.997362869289695
 20
-51.999999999999901
 30
0.0
 40
2.5
  0
CIRCLE
  5
E8
100
AcDbEntity
100
AcDbCircle
  8
06 - Top
 62
256
370
-1
  6
ByLayer
 10
-52.002637130710305
 20
-51.999999999999659
 30
0.0
 40
2.5
  0
LINE
  5
E9
100
AcDbEntity
100
AcDbLine
  8
06 - Top
 62
256
370
-1
  6
ByLayer
 10
34.997362861301383
 20
-52.000528767376295
 30
0.0
 11
34.997362861301383
 21
-52.000528767376295
 31
0.0
  0
ARC
  5
EA
100
AcDbEntity
  8
06 - Top
 62
256
370
-1
  6
ByLayer
100
AcDbCircle
 10
-0.0026371307103119
 20
-51.999999999999844
 30
0.0
 40
35.0
100
AcDbArc
 50
0.0
 51
180.0
  0
LINE
  5
EB
100
AcDbEntity
100
AcDbLine
  8
06 - Top
 62
256
370
-1
  6
ByLayer
 10
-35.002637130710305
 20
-52.000000000000206
 30
0.0
 11
-35.002637130710305
 21
-71.2568067549322
 31
0.0
  0
ARC
  5
EC
100
AcDbEntity
  8
06 - Top
 62
256
370
-1
  6
ByLayer
100
AcDbCircle
 10
-37.502637130710305
 20
-71.2568067549322
 30
0.0
 40
2.5
100
AcDbArc
 50
270.00000000000068
 51
0.0
  0
LINE
  5
ED
100
AcDbEntity
100
AcDbLine
  8
06 - Top
 62
256
370
-1
  6
ByLayer
 10
34.997362869289688
 20
-51.999999999999552
 30
0.0
 11
34.997362869289688
 21
-71.256806754931517
 31
0.0
  0
ARC
  5
EE
100
AcDbEntity
  8
06 - Top
 62
256
370
-1
  6
ByLayer
100
AcDbCircle
 10
37.497362869289688
 20
-71.256806754931517
 30
0.0
 40
2.5
100
AcDbArc
 50
180.0
 51
270.00000000000051
  0
ARC
  5
EF
100
AcDbEntity
  8
06 - Top
 62
256
370
-1
  6
ByLayer
100
AcDbCircle
 10
-102.50224873920989
 20
-71.256806754932626
 30
0.0
 40
2.5
100
AcDbArc
 50
180.00025432281831
 51
270.0
  0
LINE
  5
F0
100
AcDbEntity
100
AcDbLine
  8
06 - Top
 62
256
370
-1
  6
ByLayer
 10
-102.50224873920989
 20
-73.756806754932654
 30
0.0
 11
-37.502637130710276
 21
-73.7568067549322
 31
0.0
  0
ARC
  5
F1
100
AcDbEntity
  8
06 - Top
 62
256
370
-1
  6
ByLayer
100
AcDbCircle
 10
102.49736286928955
 20
-71.256806754931063
 30
0.0
 40
2.5
100
AcDbArc
 50
270.0
 51
0.0
  0
LINE
  5
F2
100
AcDbEntity
100
AcDbLine
  8
06 - Top
 62
256
370
-1
  6
ByLayer
 10
37.497362869289709
 20
-73.756806754931517
 30
0.0
 11
102.49736286928955
 21
-73.756806754931063
 31
0.0
  0
LINE
  5
F3
100
AcDbEntity
100
AcDbLine
  8
06 - Top
 62
256
370
-1
  6
ByLayer
 10
104.99736286928957
 20
-71.256806754931063
 30
0.0
 11
104.9973628692898
 21
105.00000000000082
 31
0.0
  0
LINE
  5
F4
100
AcDbEntity
100
AcDbLine
  8
06 - Top
 62
256
370
-1
  6
ByLayer
 10
-105.00302552213688
 20
104.99998890306817
 30
0.0
 11
-105.00224873918525
 21
-71.256817851831954
 31
0.0
  0
INSERT
  5
F5
100
AcDbEntity
100
AcDbBlockReference
  8
03 - Bottom
 62
256
370
-1
  6
ByLayer
  2
tcutout
 10
-50.002992231488207
 20
85.000000000003297
 30
0.0
 50
270.0
 44
1.0
 45
1.0
  0
INSERT
  5
F6
100
AcDbEntity
100
AcDbBlockReference
  8
06 - Top
 62
256
370
-1
  6
ByLayer
  2
tcutout
 10
-50.002992231488207
 20
85.000000000003297
 30
0.0
 50
270.0
 44
1.0
 45
1.0
  0
INSERT
  5
F7
100
AcDbEntity
100
AcDbBlockReference
  8
02 - Back
 62
256
370
-1
  6
ByLayer
  2
tcutout
 10
-50.002992231488193
 20
139.95867815356772
 30
0.0
 50
270.0
 44
1.0
 45
1.0
  0
LINE
  5
F8
100
AcDbEntity
100
AcDbLine
  8
Drawings
 62
256
370
-1
  6
ByLayer
 10
-97.502992231488193
 20
159.95867815356766
 30
0.0
 11
-97.502992231488193
 21
-73.756806754932626
 31
0.0
  0
INSERT
  5
F9
100
AcDbEntity
100
AcDbBlockReference
  8
06 - Top
 62
256
370
-1
  6
ByLayer
  2
tcutout
 10
-97.502992231488193
 20
85.000000000004093
 30
0.0
 50
90.0
 44
1.0
 45
1.0
  0
INSERT
  5
FA
100
AcDbEntity
100
AcDbBlockReference
  8
06 - Top
 62
256
370
-1
  6
ByLayer
  2
tcutout
 10
-97.50299223148825
 20
-51.999999999995907
 30
0.0
 50
90.0
 44
1.0
 45
1.0
  0
INSERT
  5
FB
100
AcDbEntity
100
AcDbBlockReference
  8
06 - Top
 62
256
370
-1
  6
ByLayer
  2
tcutout
 10
-97.502992231488193
 20
15.000000000004102
 30
0.0
 50
90.0
 44
1.0
 45
1.0
  0
INSERT
  5
FC
100
AcDbEntity
100
AcDbBlockReference
  8
03 - Bottom
 62
256
370
-1
  6
ByLayer
  2
tcutout
 10
-97.502992231488193
 20
85.000000000004093
 30
0.0
 50
90.0
 44
1.0
 45
1.0
  0
LINE
  5
FD
100
AcDbEntity
100
AcDbLine
  8
Drawings
 62
256
370
-1
  6
ByLayer
 10
-130.05917357338893
 20
159.95652245703792
 30
0.0
 11
-130.02871470870485
 21
119.95204341466781
 31
0.0
  0
INSERT
  5
FE
100
AcDbEntity
100
AcDbBlockReference
  8
04 - Left
 62
256
370
-1
  6
ByLayer
  2
tcutout
 10
-130.0439474875057
 20
139.95867815356772
 30
0.0
 50
270.0
 44
1.0
 45
1.0
  0
LINE
  5
FF
100
AcDbEntity
100
AcDbLine
  8
Drawings
 62
256
370
-1
  6
ByLayer
 10
-97.502992231488193
 20
100.00000000000409
 30
0.0
 11
99.997362869285041
 21
100.00000000000092
 31
0.0
  0
INSERT
  5
100
100
AcDbEntity
100
AcDbBlockReference
  8
03 - Bottom
 62
256
370
-1
  6
ByLayer
  2
tcutout
 10
-0.0026371307103119
 20
100.0000000000073
 30
0.0
 44
1.0
 45
1.0
  0
INSERT
  5
101
100
AcDbEntity
100
AcDbBlockReference
  8
06 - Top
 62
256
370
-1
  6
ByLayer
  2
tcutout
 10
-0.0026371307103091
 20
100.00000000000253
 30
0.0
 44
1.0
 45
1.0
  0
LINE
  5
102
100
AcDbEntity
100
AcDbLine
  8
Drawings
 62
256
370
-1
  6
ByLayer
 10
285.04569357353301
 20
159.90505526109976
 30
0.0
 11
285.04569357353301
 21
146.9050552610997
 31
0.0
  0
LINE
  5
103
100
AcDbEntity
100
AcDbLine
  8
Drawings
 62
256
370
-1
  6
ByLayer
 10
218.04569357353301
 20
159.90505526109979
 30
0.0
 11
218.04569357353304
 21
146.90505526109968
 31
0.0
  0
INSERT
  5
104
100
AcDbEntity
100
AcDbBlockReference
  8
04 - Left
 62
256
370
-1
  6
ByLayer
  2
tgrips
 10
285.04569357353301
 20
159.90505526109976
 30
0.0
 41
1.0
 42
-1.0
 43
1.0
 50
179.97985380557245
 44
1.0
 45
1.0
  0
LINE
  5
105
100
AcDbEntity
100
AcDbLine
  8
04 - Left
 62
256
370
-1
  6
ByLayer
 10
300.04569264627196
 20
159.89978099984248
 30
0.0
 11
304.30249238312751
 21
159.89828423482214
 31
0.0
  0
ARC
  5
106
100
AcDbEntity
  8
04 - Left
 62
256
370
-1
  6
ByLayer
100
AcDbCircle
 10
304.30161333958472
 20
157.39828438936564
 30
0.0
 40
2.5
100
AcDbArc
 50
359.97985380557242
 51
89.979853805577491
  0
INSERT
  5
107
100
AcDbEntity
100
AcDbBlockReference
  8
04 - Left
 62
256
370
-1
  6
ByLayer
  2
tgrips
 10
145.05389931196831
 20
159.95652245703792
 30
0.0
 41
1.0
 42
-1.0
 43
1.0
 50
180.0
 44
1.0
 45
1.0
  0
INSERT
  5
108
100
AcDbEntity
100
AcDbBlockReference
  8
04 - Left
 62
256
370
-1
  6
ByLayer
  2
tgrips
 10
145.02344044728429
 20
119.9520434146678
 30
0.0
 41
1.0
 42
-1.0
 43
1.0
 50
360.0
 44
1.0
 45
1.0
  0
LINE
  5
109
100
AcDbEntity
100
AcDbLine
  8
04 - Left
 62
256
370
-1
  6
ByLayer
 10
165.54303825294133
 20
119.94707200601047
 30
0.0
 11
160.02344044728432
 21
119.94707200601036
 31
0.0
  0
LINE
  5
10A
100
AcDbEntity
100
AcDbLine
  8
04 - Left
 62
256
370
-1
  6
ByLayer
 10
130.05389931196842
 20
159.95652245703786
 30
0.0
 11
122.54951128505255
 21
159.95652245703792
 31
0.0
  0
LINE
  5
10B
100
AcDbEntity
100
AcDbLine
  8
04 - Left
 62
256
370
-1
  6
ByLayer
 10
130.02344044728429
 20
119.95204341466777
 30
0.0
 11
122.5354423904359
 21
119.94458601483439
 31
0.0
  0
LINE
  5
10C
100
AcDbEntity
100
AcDbLine
  8
04 - Left
 62
256
370
-1
  6
ByLayer
 10
122.54951128505255
 20
159.95652245703792
 30
0.0
 11
122.5354423904359
 21
119.94458601483439
 31
0.0
  0
INSERT
  5
10D
100
AcDbEntity
100
AcDbBlockReference
  8
04 - Left
 62
256
370
-1
  6
ByLayer
  2
tgrips
 10
218.04569357353301
 20
159.90505526109979
 30
0.0
 41
1.0
 42
-1.0
 43
1.0
 50
180.0
 44
1.0
 45
1.0
  0
LINE
  5
10E
100
AcDbEntity
100
AcDbLine
  8
04 - Left
 62
256
370
-1
  6
ByLayer
 10
270.04569450079407
 20
159.91032952235889
 30
0.0
 11
233.04569357353299
 21
159.90505526109982
 31
0.0
  0
LINE
  5
10F
100
AcDbEntity
100
AcDbLine
  8
04 - Left
 62
256
370
-1
  6
ByLayer
 10
203.04569357353304
 20
159.9050552610997
 30
0.0
 11
160.05389931196831
 21
159.95652245703795
 31
0.0
  0
LINE
  5
110
100
AcDbEntity
100
AcDbLine
  8
04 - Left
 62
256
370
-1
  6
ByLayer
 10
306.80161318504122
 20
157.39740534582211
 30
0.0
 11
306.80003993081067
 21
152.92307029755347
 31
0.0
  0
LINE
  5
111
100
AcDbEntity
100
AcDbLine
  8
04 - Left
 62
256
370
-1
  6
ByLayer
 10
293.89780390925887
 20
138.07575588945517
 30
0.0
 11
165.54303825294133
 21
119.94707200601047
 31
0.0
  0
ARC
  5
112
100
AcDbEntity
  8
04 - Left
 62
256
370
-1
  6
ByLayer
100
AcDbCircle
 10
291.80004085807184
 20
152.92834455881112
 30
0.0
 40
15.0
100
AcDbArc
 50
278.0392168364707
 51
359.97985380557242
  0
LINE
  5
113
100
AcDbEntity
100
AcDbLine
  8
Drawings
 62
256
370
-1
  6
ByLayer
 10
130.05389931196842
 20
159.95652245703786
 30
0.0
 11
130.02344044728429
 21
119.95204341466777
 31
0.0
  0
INSERT
  5
114
100
AcDbEntity
100
AcDbBlockReference
  8
04 - Left
 62
256
370
-1
  6
ByLayer
  2
tcutout
 10
130.03867322608514
 20
139.95867815356769
 30
0.0
 41
1.0
 42
-1.0
 43
1.0
 50
270.0
 44
1.0
 45
1.0
  0
CIRCLE
  5
115
100
AcDbEntity
100
AcDbCircle
  8
06 - Top
 62
256
370
-1
  6
ByLayer
 10
-0.0026371307103119
 20
85.000000000002501
 30
0.0
 40
8.0
  0
INSERT
  5
116
100
AcDbEntity
100
AcDbBlockReference
  8
03 - Bottom
 62
256
370
-1
  6
ByLayer
  2
tcutout
 10
97.49736286928983
 20
85.000000000005713
 30
0.0
 50
270.0
 44
1.0
 45
1.0
  0
LINE
  5
117
100
AcDbEntity
100
AcDbLine
  8
Drawings
 62
256
370
-1
  6
ByLayer
 10
97.49736286928983
 20
159.95867815356971
 30
0.0
 11
97.49736286928983
 21
-73.756806754931077
 31
0.0
  0
INSERT
  5
118
100
AcDbEntity
100
AcDbBlockReference
  8
06 - Top
 62
256
370
-1
  6
ByLayer
  2
tcutout
 10
97.497362869285041
 20
85.000000000000924
 30
0.0
 50
270.0
 44
1.0
 45
1.0
  0
INSERT
  5
119
100
AcDbEntity
100
AcDbBlockReference
  8
06 - Top
 62
256
370
-1
  6
ByLayer
  2
tcutout
 10
97.49736286928983
 20
15.000000000000925
 30
0.0
 50
270.0
 44
1.0
 45
1.0
  0
INSERT
  5
11A
100
AcDbEntity
100
AcDbBlockReference
  8
06 - Top
 62
256
370
-1
  6
ByLayer
  2
tcutout
 10
97.497362869289773
 20
-51.999999999999076
 30
0.0
 50
270.0
 44
1.0
 45
1.0
  0
LINE
  5
11B
100
AcDbEntity
100
AcDbLine
  8
Drawings
 62
256
370
-1
  6
ByLayer
 10
-95.502992231488193
 20
90.000000000004093
 30
0.0
 11
-95.502992231488193
 21
80.000000000004093
 31
0.0
  0
CIRCLE
  5
11C
100
AcDbEntity
100
AcDbCircle
  8
Drawings
 62
256
370
-1
  6
ByLayer
 10
-86.002992231488193
 20
85.000000000003979
 30
0.0
 40
7.0
  0
CIRCLE
  5
11D
100
AcDbEntity
100
AcDbCircle
  8
Drawings - Rods
 62
256
370
-1
  6
ByLayer
 10
-86.002992231488193
 20
85.000000000003979
 30
0.0
 40
9.5
  0
CIRCLE
  5
11E
100
AcDbEntity
100
AcDbCircle
  8
03 - Bottom
 62
256
370
-1
  6
ByLayer
 10
-86.002992231488193
 20
85.000000000003979
 30
0.0
 40
7.9000000000000004
  0
CIRCLE
  5
11F
100
AcDbEntity
100
AcDbCircle
  8
06 - Top
 62
256
370
-1
  6
ByLayer
 10
-86.002992231488193
 20
85.000000000003979
 30
0.0
 40
7.9000000000000004
  0
LINE
  5
120
100
AcDbEntity
100
AcDbLine
  8
Drawings
 62
256
370
-1
  6
ByLayer
 10
95.49736286928983
 20
90.000000000005713
 30
0.0
 11
95.49736286928983
 21
80.000000000005713
 31
0.0
  0
CIRCLE
  5
121
100
AcDbEntity
100
AcDbCircle
  8
Drawings
 62
256
370
-1
  6
ByLayer
 10
86.000000000003297
 20
85.000000000001123
 30
0.0
 40
7.0
  0
CIRCLE
  5
122
100
AcDbEntity
100
AcDbCircle
  8
Drawings - Rods
 62
256
370
-1
  6
ByLayer
 10
86.000000000003311
 20
85.000000000005841
 30
0.0
 40
9.5
  0
CIRCLE
  5
123
100
AcDbEntity
100
AcDbCircle
  8
03 - Bottom
 62
256
370
-1
  6
ByLayer
 10
86.000000000003311
 20
85.000000000005841
 30
0.0
 40
7.9000000000000004
  0
CIRCLE
  5
124
100
AcDbEntity
100
AcDbCircle
  8
06 - Top
 62
256
370
-1
  6
ByLayer
 10
86.000000000003311
 20
85.000000000005841
 30
0.0
 40
7.9000000000000004
  0
ENDSEC
  0
SECTION
  2
OBJECTS
  0
DICTIONARY
  5
C
100
AcDbDictionary
280
0
281
1
  3
ACAD_GROUP
350
D
  3
ACAD_LAYOUT
350
1A
  3
ACAD_MLINESTYLE
350
17
  3
ACAD_PLOTSETTINGS
350
19
  3
ACAD_PLOTSTYLENAME
350
E
  3
AcDbVariableDictionary
350
125
  0
DICTIONARY
  5
D
100
AcDbDictionary
280
0
281
1
  0
ACDBDICTIONARYWDFLT
  5
E
100
AcDbDictionary
281
1
  3
Normal
350
F
100
AcDbDictionaryWithDefault
340
F
  0
ACDBPLACEHOLDER
  5
F
  0
DICTIONARY
  5
17
100
AcDbDictionary
280
0
281
1
  3
Standard
350
18
  0
MLINESTYLE
  5
18
100
AcDbMlineStyle
  2
STANDARD
 70
0
  3

 62
256
 51
90.0
 52
90.0
 71
2
 49
0.5
 62
256
  6
BYLAYER
 49
-0.5
 62
256
  6
BYLAYER
  0
DICTIONARY
  5
19
100
AcDbDictionary
280
0
281
1
  0
DICTIONARY
  5
1A
100
AcDbDictionary
281
1
  3
Layout1
350
1E
  3
Layout2
350
26
  3
Model
350
22
  0
LAYOUT
  5
1E
100
AcDbPlotSettings
  1

  2
C:\Program Files\AutoCAD 2002\plotters\DWF ePlot (optimized for plotting).pc3
  4

  6

 40
0.0
 41
0.0
 42
0.0
 43
0.0
 44
0.0
 45
0.0
 46
0.0
 47
0.0
 48
0.0
 49
0.0
140
0.0
141
0.0
142
1.0
143
1.0
 70
688
 72
0
 73
0
 74
5
  7

 75
16
147
1.0
148
0.0
149
0.0
100
AcDbLayout
  1
Layout1
 70
1
 71
1
 10
0.0
 20
0.0
 11
420.0
 21
297.0
 12
0.0
 22
0.0
 32
0.0
 14
100000000000000000000.0
 24
100000000000000000000.0
 34
100000000000000000000.0
 15
-100000000000000000000.0
 25
-100000000000000000000.0
 35
-100000000000000000000.0
146
0.0
 13
0.0
 23
0.0
 33
0.0
 16
1.0
 26
0.0
 36
0.0
 17
0.0
 27
1.0
 37
0.0
 76
0
330
1B
  0
LAYOUT
  5
22
100
AcDbPlotSettings
  1

  2
C:\Program Files\AutoCAD 2002\plotters\DWF ePlot (optimized for plotting).pc3
  4

  6

 40
0.0
 41
0.0
 42
0.0
 43
0.0
 44
0.0
 45
0.0
 46
0.0
 47
0.0
 48
0.0
 49
0.0
140
0.0
141
0.0
142
1.0
143
1.0
 70
1712
 72
0
 73
0
 74
0
  7

 75
0
147
1.0
148
0.0
149
0.0
100
AcDbLayout
  1
Model
 70
1
 71
0
 10
0.0
 20
0.0
 11
12.0
 21
9.0
 12
0.0
 22
0.0
 32
0.0
 14
0.0
 24
0.0
 34
0.0
 15
0.0
 25
0.0
 35
0.0
146
0.0
 13
0.0
 23
0.0
 33
0.0
 16
1.0
 26
0.0
 36
0.0
 17
0.0
 27
1.0
 37
0.0
 76
0
330
1F
  0
LAYOUT
  5
26
100
AcDbPlotSettings
  1

  2
C:\Program Files\AutoCAD 2002\plotters\DWF ePlot (optimized for plotting).pc3
  4

  6

 40
0.0
 41
0.0
 42
0.0
 43
0.0
 44
0.0
 45
0.0
 46
0.0
 47
0.0
 48
0.0
 49
0.0
140
0.0
141
0.0
142
1.0
143
1.0
 70
688
 72
0
 73
0
 74
5
  7

 75
16
147
1.0
148
0.0
149
0.0
100
AcDbLayout
  1
Layout2
 70
1
 71
2
 10
0.0
 20
0.0
 11
12.0
 21
9.0
 12
0.0
 22
0.0
 32
0.0
 14
0.0
 24
0.0
 34
0.0
 15
0.0
 25
0.0
 35
0.0
146
0.0
 13
0.0
 23
0.0
 33
0.0
 16
1.0
 26
0.0
 36
0.0
 17
0.0
 27
1.0
 37
0.0
 76
0
330
23
  0
DICTIONARY
  5
125
100
AcDbDictionary
281
1
  3
DIMASSOC
350
127
  3
HIDETEXT
350
126
  0
DICTIONARYVAR
  5
126
100
DictionaryVariables
280
0
  1
2
  0
DICTIONARYVAR
  5
127
100
DictionaryVariables
280
0
  1
1
  0
ENDSEC
  0
EOF
