999
dxflib 2.2.0.0
  0
SECTION
  2
HEADER
  9
$ACADVER
  1
AC1015
  9
$HANDSEED
  5
FFFF
  9
$DIMASZ
 40
2.5
  9
$PLIMMIN
 10
0.0
 20
0.0
  9
$DIMEXE
 40
1.25
  9
$DIMGAP
 40
0.625
  9
$PLIMMAX
 10
210.0
 20
297.0
  9
$INSUNITS
 70
4
  9
$DIMSTYLE
  2
Standard
  9
$CLAYER
  8
0
  9
$DIMEXO
 40
0.625
  9
$DIMTXT
 40
2.5
  9
$CLAYER
  8
0
  0
ENDSEC
  0
SECTION
  2
TABLES
  0
TABLE
  2
VPORT
  5
8
100
AcDbSymbolTable
 70
1
  0
VPORT
  5
30
100
AcDbSymbolTableRecord
100
AcDbViewportTableRecord
  2
*Active
 70
0
 10
0.0
 20
0.0
 11
1.0
 21
1.0
 12
286.3055555555554861
 22
148.5
 13
0.0
 23
0.0
 14
10.0
 24
10.0
 15
10.0
 25
10.0
 16
0.0
 26
0.0
 36
1.0
 17
0.0
 27
0.0
 37
0.0
 40
297.0
 41
1.92798353909465
 42
50.0
 43
0.0
 44
0.0
 50
0.0
 51
0.0
 71
0
 72
100
 73
1
 74
3
 75
1
 76
1
 77
0
 78
0
281
0
 65
1
110
0.0
120
0.0
130
0.0
111
1.0
121
0.0
131
0.0
112
0.0
122
1.0
132
0.0
 79
0
146
0.0
  0
ENDTAB
  0
TABLE
  2
LTYPE
  5
5
100
AcDbSymbolTable
 70
21
  0
LTYPE
  5
14
100
AcDbSymbolTableRecord
100
AcDbLinetypeTableRecord
  2
ByBlock
 70
0
  3

 72
65
 73
0
 40
0.0
  0
LTYPE
  5
15
100
AcDbSymbolTableRecord
100
AcDbLinetypeTableRecord
  2
ByLayer
 70
0
  3

 72
65
 73
0
 40
0.0
  0
LTYPE
  5
16
100
AcDbSymbolTableRecord
100
AcDbLinetypeTableRecord
  2
CONTINUOUS
 70
0
  3
Solid line
 72
65
 73
0
 40
0.0
  0
LTYPE
  5
31
100
AcDbSymbolTableRecord
100
AcDbLinetypeTableRecord
  2
DOT
 70
0
  3
Dot . . . . . . . . . . . . . . . . . . . . . .
 72
65
 73
2
 40
6.3499999999999996
 49
0.0
 74
0
 49
-6.3499999999999996
 74
0
  0
LTYPE
  5
32
100
AcDbSymbolTableRecord
100
AcDbLinetypeTableRecord
  2
DOT2
 70
0
  3
Dot (.5x) .....................................
 72
65
 73
2
 40
3.1749999999999998
 49
0.0
 74
0
 49
-3.1749999999999998
 74
0
  0
LTYPE
  5
33
100
AcDbSymbolTableRecord
100
AcDbLinetypeTableRecord
  2
DOTX2
 70
0
  3
Dot (2x) .  .  .  .  .  .  .  .  .  .  .  .  .
 72
65
 73
2
 40
12.6999999999999993
 49
0.0
 74
0
 49
-12.6999999999999993
 74
0
  0
LTYPE
  5
34
100
AcDbSymbolTableRecord
100
AcDbLinetypeTableRecord
  2
DASHED
 70
0
  3
Dashed __ __ __ __ __ __ __ __ __ __ __ __ __ _
 72
65
 73
2
 40
19.0500000000000007
 49
12.6999999999999993
 74
0
 49
-6.3499999999999996
 74
0
  0
LTYPE
  5
35
100
AcDbSymbolTableRecord
100
AcDbLinetypeTableRecord
  2
DASHED2
 70
0
  3
Dashed (.5x) _ _ _ _ _ _ _ _ _ _ _ _ _ _ _ _ _
 72
65
 73
2
 40
9.5250000000000004
 49
6.3499999999999996
 74
0
 49
-3.1749999999999998
 74
0
  0
LTYPE
  5
36
100
AcDbSymbolTableRecord
100
AcDbLinetypeTableRecord
  2
DASHEDX2
 70
0
  3
Dashed (2x) ____  ____  ____  ____  ____  ___
 72
65
 73
2
 40
38.1000000000000014
 49
25.3999999999999986
 74
0
 49
-12.6999999999999993
 74
0
  0
LTYPE
  5
37
100
AcDbSymbolTableRecord
100
AcDbLinetypeTableRecord
  2
DASHDOT
 70
0
  3
Dash dot __ . __ . __ . __ . __ . __ . __ . __
 72
65
 73
4
 40
25.3999999999999986
 49
12.6999999999999993
 74
0
 49
-6.3499999999999996
 74
0
 49
0.0
 74
0
 49
-6.3499999999999996
 74
0
  0
LTYPE
  5
38
100
AcDbSymbolTableRecord
100
AcDbLinetypeTableRecord
  2
DASHDOT2
 70
0
  3
Dash dot (.5x) _._._._._._._._._._._._._._._.
 72
65
 73
4
 40
12.6999999999999993
 49
6.3499999999999996
 74
0
 49
-3.1749999999999998
 74
0
 49
0.0
 74
0
 49
-3.1749999999999998
 74
0
  0
LTYPE
  5
39
100
AcDbSymbolTableRecord
100
AcDbLinetypeTableRecord
  2
DASHDOTX2
 70
0
  3
Dash dot (2x) ____  .  ____  .  ____  .  ___
 72
65
 73
4
 40
50.7999999999999972
 49
25.3999999999999986
 74
0
 49
-12.6999999999999993
 74
0
 49
0.0
 74
0
 49
-12.6999999999999993
 74
0
  0
LTYPE
  5
3A
100
AcDbSymbolTableRecord
100
AcDbLinetypeTableRecord
  2
DIVIDE
 70
0
  3
Divide ____ . . ____ . . ____ . . ____ . . ____
 72
65
 73
6
 40
31.75
 49
12.6999999999999993
 74
0
 49
-6.3499999999999996
 74
0
 49
0.0
 74
0
 49
-6.3499999999999996
 74
0
 49
0.0
 74
0
 49
-6.3499999999999996
 74
0
  0
LTYPE
  5
3B
100
AcDbSymbolTableRecord
100
AcDbLinetypeTableRecord
  2
DIVIDE2
 70
0
  3
Divide (.5x) __..__..__..__..__..__..__..__.._
 72
65
 73
6
 40
15.875
 49
6.3499999999999996
 74
0
 49
-3.1749999999999998
 74
0
 49
0.0
 74
0
 49
-3.1749999999999998
 74
0
 49
0.0
 74
0
 49
-3.1749999999999998
 74
0
  0
LTYPE
  5
3C
100
AcDbSymbolTableRecord
100
AcDbLinetypeTableRecord
  2
DIVIDEX2
 70
0
  3
Divide (2x) ________  .  .  ________  .  .  _
 72
65
 73
6
 40
63.5
 49
25.3999999999999986
 74
0
 49
-12.6999999999999993
 74
0
 49
0.0
 74
0
 49
-12.6999999999999993
 74
0
 49
0.0
 74
0
 49
-12.6999999999999993
 74
0
  0
LTYPE
  5
3D
100
AcDbSymbolTableRecord
100
AcDbLinetypeTableRecord
  2
CENTER
 70
0
  3
Center ____ _ ____ _ ____ _ ____ _ ____ _ ____
 72
65
 73
4
 40
50.7999999999999972
 49
31.75
 74
0
 49
-6.3499999999999996
 74
0
 49
6.3499999999999996
 74
0
 49
-6.3499999999999996
 74
0
  0
LTYPE
  5
3E
100
AcDbSymbolTableRecord
100
AcDbLinetypeTableRecord
  2
CENTER2
 70
0
  3
Center (.5x) ___ _ ___ _ ___ _ ___ _ ___ _ ___
 72
65
 73
4
 40
28.5749999999999993
 49
19.0500000000000007
 74
0
 49
-3.1749999999999998
 74
0
 49
3.1749999999999998
 74
0
 49
-3.1749999999999998
 74
0
  0
LTYPE
  5
3F
100
AcDbSymbolTableRecord
100
AcDbLinetypeTableRecord
  2
CENTERX2
 70
0
  3
Center (2x) ________  __  ________  __  _____
 72
65
 73
4
 40
101.5999999999999943
 49
63.5
 74
0
 49
-12.6999999999999993
 74
0
 49
12.6999999999999993
 74
0
 49
-12.6999999999999993
 74
0
  0
LTYPE
  5
40
100
AcDbSymbolTableRecord
100
AcDbLinetypeTableRecord
  2
BORDER
 70
0
  3
Border __ __ . __ __ . __ __ . __ __ . __ __ .
 72
65
 73
6
 40
44.4500000000000028
 49
12.6999999999999993
 74
0
 49
-6.3499999999999996
 74
0
 49
12.6999999999999993
 74
0
 49
-6.3499999999999996
 74
0
 49
0.0
 74
0
 49
-6.3499999999999996
 74
0
  0
LTYPE
  5
41
100
AcDbSymbolTableRecord
100
AcDbLinetypeTableRecord
  2
BORDER2
 70
0
  3
Border (.5x) __.__.__.__.__.__.__.__.__.__.__.
 72
65
 73
6
 40
22.2250000000000014
 49
6.3499999999999996
 74
0
 49
-3.1749999999999998
 74
0
 49
6.3499999999999996
 74
0
 49
-3.1749999999999998
 74
0
 49
0.0
 74
0
 49
-3.1749999999999998
 74
0
  0
LTYPE
  5
42
100
AcDbSymbolTableRecord
100
AcDbLinetypeTableRecord
  2
BORDERX2
 70
0
  3
Border (2x) ____  ____  .  ____  ____  .  ___
 72
65
 73
6
 40
88.9000000000000057
 49
25.3999999999999986
 74
0
 49
-12.6999999999999993
 74
0
 49
25.3999999999999986
 74
0
 49
-12.6999999999999993
 74
0
 49
0.0
 74
0
 49
-12.6999999999999993
 74
0
  0
ENDTAB
  0
TABLE
  2
LAYER
  5
2
100
AcDbSymbolTable
 70
2
  0
LAYER
  5
10
100
AcDbSymbolTableRecord
100
AcDbLayerTableRecord
  2
0
 70
0
 62
7
420
0
  6
CONTINUOUS
370
25
390
F
  0
LAYER
  5
43
100
AcDbSymbolTableRecord
100
AcDbLayerTableRecord
  2
Drawings
 70
1
 62
-1
420
16711680
  6
CONTINUOUS
370
0
390
F
  0
ENDTAB
  0
TABLE
  2
STYLE
  5
3
100
AcDbSymbolTable
 70
1
  0
STYLE
  5
11
100
AcDbSymbolTableRecord
100
AcDbTextStyleTableRecord
  2
Standard
 70
0
 40
0.0
 41
0.75
 50
0.0
 71
0
 42
2.5
  3
txt
  4

  0
ENDTAB
  0
TABLE
  2
VIEW
  5
6
100
AcDbSymbolTable
 70
0
  0
ENDTAB
  0
TABLE
  2
UCS
  5
7
100
AcDbSymbolTable
 70
0
  0
ENDTAB
  0
TABLE
  2
APPID
  5
9
100
AcDbSymbolTable
 70
1
  0
APPID
  5
12
100
AcDbSymbolTableRecord
100
AcDbRegAppTableRecord
  2
ACAD
 70
0
  0
ENDTAB
  0
TABLE
  2
DIMSTYLE
  5
A
100
AcDbSymbolTable
 70
1
100
AcDbDimStyleTable
 71
0
  0
DIMSTYLE
105
27
100
AcDbSymbolTableRecord
100
AcDbDimStyleTableRecord
  2
Standard
 41
2.5
 42
0.625
 43
3.75
 44
1.25
 70
0
 73
0
 74
0
 77
1
 78
8
140
2.5
141
2.5
143
0.03937007874016
147
0.625
171
3
172
1
271
2
272
2
274
3
278
44
283
0
284
8
340
11
  0
ENDTAB
  0
TABLE
  2
BLOCK_RECORD
  5
1
100
AcDbSymbolTable
 70
1
  0
BLOCK_RECORD
  5
1F
100
AcDbSymbolTableRecord
100
AcDbBlockTableRecord
  2
*Model_Space
340
22
  0
BLOCK_RECORD
  5
1B
100
AcDbSymbolTableRecord
100
AcDbBlockTableRecord
  2
*Paper_Space
340
1E
  0
BLOCK_RECORD
  5
23
100
AcDbSymbolTableRecord
100
AcDbBlockTableRecord
  2
*Paper_Space0
340
26
  0
BLOCK_RECORD
  5
44
100
AcDbSymbolTableRecord
100
AcDbBlockTableRecord
  2
tgrips
340
0
  0
ENDTAB
  0
ENDSEC
  0
SECTION
  2
BLOCKS
  0
BLOCK
  5
20
100
AcDbEntity
  8
0
100
AcDbBlockBegin
  2
*Model_Space
 70
0
 10
0.0
 20
0.0
 30
0.0
  3
*Model_Space
  1

  0
ENDBLK
  5
21
100
AcDbEntity
  8
0
100
AcDbBlockEnd
  0
BLOCK
  5
1C
100
AcDbEntity
 67
1
  8
0
100
AcDbBlockBegin
  2
*Paper_Space
 70
0
 10
0.0
 20
0.0
 30
0.0
  3
*Paper_Space
  1

  0
ENDBLK
  5
1D
100
AcDbEntity
 67
1
  8
0
100
AcDbBlockEnd
  0
BLOCK
  5
24
100
AcDbEntity
  8
0
100
AcDbBlockBegin
  2
*Paper_Space0
 70
0
 10
0.0
 20
0.0
 30
0.0
  3
*Paper_Space0
  1

  0
ENDBLK
  5
25
100
AcDbEntity
  8
0
100
AcDbBlockEnd
  0
BLOCK
  5
45
100
AcDbEntity
  8
0
100
AcDbBlockBegin
  2
tgrips
 70
0
 10
0.0
 20
0.0
 30
0.0
  3
tgrips
  1

  0
LINE
  5
46
100
AcDbEntity
100
AcDbLine
  8
0
 62
256
370
-1
  6
ByLayer
 10
0.0
 20
0.0
 30
0.0
 11
10.0
 21
0.0
 31
0.0
  0
LINE
  5
47
100
AcDbEntity
100
AcDbLine
  8
0
 62
256
370
-1
  6
ByLayer
 10
60.0
 20
0.0
 30
0.0
 11
70.0
 21
0.0
 31
0.0
  0
LINE
  5
48
100
AcDbEntity
100
AcDbLine
  8
0
 62
256
370
-1
  6
ByLayer
 10
70.0
 20
0.0
 30
0.0
 11
70.0
 21
0.0
 31
0.0
  0
LINE
  5
49
100
AcDbEntity
100
AcDbLine
  8
0
 62
256
370
-1
  6
ByLayer
 10
37.75
 20
-7.0
 30
0.0
 11
37.7474839689560469
 21
-10.0
 31
0.0
  0
LINE
  5
4A
100
AcDbEntity
100
AcDbLine
  8
0
 62
256
370
-1
  6
ByLayer
 10
36.5
 20
-10.0
 30
0.0
 11
37.7474839689560469
 21
-10.0
 31
0.0
  0
LINE
  5
4B
100
AcDbEntity
100
AcDbLine
  8
0
 62
256
370
-1
  6
ByLayer
 10
32.25
 20
-7.0
 30
0.0
 11
32.2453083395828202
 21
-10.0
 31
0.0
  0
LINE
  5
4C
100
AcDbEntity
100
AcDbLine
  8
0
 62
256
370
-1
  6
ByLayer
 10
32.2453083395828202
 20
-10.0
 30
0.0
 11
33.5
 21
-10.0
 31
0.0
  0
LINE
  5
4D
100
AcDbEntity
100
AcDbLine
  8
0
 62
256
370
-1
  6
ByLayer
 10
33.5827980153515355
 20
0.0
 30
0.0
 11
33.5835159800337451
 21
-6.9987197232206464
 31
0.0
  0
LINE
  5
4E
100
AcDbEntity
100
AcDbLine
  8
0
 62
256
370
-1
  6
ByLayer
 10
36.4008093934434527
 20
-6.9987197232206464
 30
0.0
 11
36.4008093934435664
 21
0.0044872792644778
 31
0.0
  0
LINE
  5
4F
100
AcDbEntity
100
AcDbLine
  8
0
 62
256
370
-1
  6
ByLayer
 10
36.4008093934435664
 20
0.0044872792644778
 30
0.0
 11
50.0
 21
0.0
 31
0.0
  0
LINE
  5
50
100
AcDbEntity
100
AcDbLine
  8
0
 62
256
370
-1
  6
ByLayer
 10
20.0
 20
0.0
 30
0.0
 11
33.5827980153515355
 21
0.0
 31
0.0
  0
LINE
  5
51
100
AcDbEntity
100
AcDbLine
  8
0
 62
256
370
-1
  6
ByLayer
 10
37.75
 20
-7.0
 30
0.0
 11
36.4008093934434527
 21
-6.9987197232206464
 31
0.0
  0
LINE
  5
52
100
AcDbEntity
100
AcDbLine
  8
0
 62
256
370
-1
  6
ByLayer
 10
33.5835159800337451
 20
-6.9987197232206464
 30
0.0
 11
32.25
 21
-7.0
 31
0.0
  0
LINE
  5
53
100
AcDbEntity
100
AcDbLine
  8
0
 62
256
370
-1
  6
ByLayer
 10
33.5
 20
-11.0
 30
0.0
 11
36.5
 21
-11.0
 31
0.0
  0
LINE
  5
54
100
AcDbEntity
100
AcDbLine
  8
0
 62
256
370
-1
  6
ByLayer
 10
33.5
 20
-10.0
 30
0.0
 11
33.5
 21
-11.0
 31
0.0
  0
LINE
  5
55
100
AcDbEntity
100
AcDbLine
  8
0
 62
256
370
-1
  6
ByLayer
 10
36.5
 20
-11.0
 30
0.0
 11
36.5
 21
-10.0
 31
0.0
  0
LINE
  5
56
100
AcDbEntity
100
AcDbLine
  8
0
 62
256
370
-1
  6
ByLayer
 10
20.0
 20
5.0
 30
0.0
 11
20.0
 21
0.0
 31
0.0
  0
LINE
  5
57
100
AcDbEntity
100
AcDbLine
  8
0
 62
256
370
-1
  6
ByLayer
 10
10.0
 20
5.0
 30
0.0
 11
20.0
 21
5.0
 31
0.0
  0
LINE
  5
58
100
AcDbEntity
100
AcDbLine
  8
0
 62
256
370
-1
  6
ByLayer
 10
10.0
 20
0.0
 30
0.0
 11
10.0
 21
5.0
 31
0.0
  0
LINE
  5
59
100
AcDbEntity
100
AcDbLine
  8
0
 62
256
370
-1
  6
ByLayer
 10
50.0
 20
5.0
 30
0.0
 11
60.0
 21
5.0
 31
0.0
  0
LINE
  5
5A
100
AcDbEntity
100
AcDbLine
  8
0
 62
256
370
-1
  6
ByLayer
 10
60.0
 20
5.0
 30
0.0
 11
60.0
 21
0.0
 31
0.0
  0
LINE
  5
5B
100
AcDbEntity
100
AcDbLine
  8
0
 62
256
370
-1
  6
ByLayer
 10
50.0
 20
0.0
 30
0.0
 11
50.0
 21
5.0
 31
0.0
  0
ENDBLK
  5
5C
100
AcDbEntity
  8
0
100
AcDbBlockEnd
  0
ENDSEC
  0
SECTION
  2
ENTITIES
  0
LINE
  5
5D
100
AcDbEntity
100
AcDbLine
  8
0
 62
256
370
-1
  6
ByLayer
 10
4.999096186107522
 20
-7.0000000000001776
 30
0.0
 11
4.999096186107522
 21
-7.0000000000001776
 31
0.0
  0
CIRCLE
  5
5E
100
AcDbEntity
100
AcDbCircle
  8
0
 62
256
370
-1
  6
ByLayer
 10
214.0000000000004547
 20
-82.000000000000199
 30
0.0
 40
1.75
  0
CIRCLE
  5
5F
100
AcDbEntity
100
AcDbCircle
  8
0
 62
256
370
-1
  6
ByLayer
 10
76.0000000000001705
 20
-82.0000000000001705
 30
0.0
 40
1.75
  0
CIRCLE
  5
60
100
AcDbEntity
100
AcDbCircle
  8
0
 62
256
370
-1
  6
ByLayer
 10
214.0000000000003126
 20
-17.0000000000002132
 30
0.0
 40
1.75
  0
ARC
  5
61
100
AcDbEntity
  8
0
 62
256
370
-1
  6
ByLayer
100
AcDbCircle
 10
80.0000000000002842
 20
-73.0000000000001421
 30
0.0
 40
5.0
100
AcDbArc
 50
180.0
 51
270.0
  0
LINE
  5
62
100
AcDbEntity
100
AcDbLine
  8
Drawings
 62
256
370
-1
  6
ByLayer
 10
271.7856323510399079
 20
-83.7628730951625755
 30
0.0
 11
272.6189656843723128
 21
-83.7628730951626608
 31
0.0
  0
ARC
  5
63
100
AcDbEntity
  8
Drawings
 62
256
370
-1
  6
ByLayer
100
AcDbCircle
 10
272.6189656843723697
 20
-83.2628730951625755
 30
0.0
 40
0.5
100
AcDbArc
 50
270.0
 51
360.0
  0
LINE
  5
64
100
AcDbEntity
100
AcDbLine
  8
Drawings
 62
256
370
-1
  6
ByLayer
 10
273.1189656843727107
 20
-83.262873095162675
 30
0.0
 11
273.1189656843723697
 21
-82.2628730951625755
 31
0.0
  0
ARC
  5
65
100
AcDbEntity
  8
Drawings
 62
256
370
-1
  6
ByLayer
100
AcDbCircle
 10
272.6189656843727676
 20
-82.2628730951625471
 30
0.0
 40
0.5
100
AcDbArc
 50
360.0
 51
90.0
  0
LINE
  5
66
100
AcDbEntity
100
AcDbLine
  8
Drawings
 62
256
370
-1
  6
ByLayer
 10
272.6189656843723697
 20
-81.7628730951624476
 30
0.0
 11
271.7856323510393963
 21
-81.7628730951630729
 31
0.0
  0
LINE
  5
67
100
AcDbEntity
100
AcDbLine
  8
Drawings
 62
256
370
-1
  6
ByLayer
 10
271.7856323510393963
 20
-81.7628730951630729
 30
0.0
 11
271.7856323510397942
 21
-84.7628730951625471
 31
0.0
  0
LINE
  5
68
100
AcDbEntity
100
AcDbLine
  8
Drawings
 62
256
370
-1
  6
ByLayer
 10
274.1189656843729381
 20
-82.4295397618295738
 30
0.0
 11
274.1189656843729381
 21
-83.0962064284961031
 31
0.0
  0
ARC
  5
69
100
AcDbEntity
  8
Drawings
 62
256
370
-1
  6
ByLayer
100
AcDbCircle
 10
274.7856323510397942
 20
-83.0962064284956625
 30
0.0
 40
0.6666666666666666
100
AcDbArc
 50
180.0
 51
360.0
  0
LINE
  5
6A
100
AcDbEntity
100
AcDbLine
  8
Drawings
 62
256
370
-1
  6
ByLayer
 10
275.4522990177057409
 20
-83.0962064284956909
 30
0.0
 11
275.4522990177058546
 21
-82.4295397618291474
 31
0.0
  0
ARC
  5
6B
100
AcDbEntity
  8
Drawings
 62
256
370
-1
  6
ByLayer
100
AcDbCircle
 10
274.7856323510397942
 20
-82.4295397618291474
 30
0.0
 40
0.6666666666666666
100
AcDbArc
 50
360.0
 51
180.0
  0
LINE
  5
6C
100
AcDbEntity
100
AcDbLine
  8
Drawings
 62
256
370
-1
  6
ByLayer
 10
276.4522990177068209
 20
-81.7628730951625045
 30
0.0
 11
276.9522990177058546
 21
-83.7628730951626892
 31
0.0
  0
LINE
  5
6D
100
AcDbEntity
100
AcDbLine
  8
Drawings
 62
256
370
-1
  6
ByLayer
 10
276.9522990177058546
 20
-83.7628730951626892
 30
0.0
 11
277.4522990177059683
 21
-82.4295397618290906
 31
0.0
  0
LINE
  5
6E
100
AcDbEntity
100
AcDbLine
  8
Drawings
 62
256
370
-1
  6
ByLayer
 10
277.4522990177059683
 20
-82.4295397618290906
 30
0.0
 11
277.9522990177060819
 21
-83.7628730951625187
 31
0.0
  0
LINE
  5
6F
100
AcDbEntity
100
AcDbLine
  8
Drawings
 62
256
370
-1
  6
ByLayer
 10
277.9522990177060819
 20
-83.7628730951625187
 30
0.0
 11
278.4522990177057977
 21
-81.7628730951627745
 31
0.0
  0
LINE
  5
70
100
AcDbEntity
100
AcDbLine
  8
Drawings
 62
256
370
-1
  6
ByLayer
 10
279.4522990177058546
 20
-82.7628730951624618
 30
0.0
 11
280.7856323510397942
 21
-82.7628730951625755
 31
0.0
  0
LINE
  5
71
100
AcDbEntity
100
AcDbLine
  8
Drawings
 62
256
370
-1
  6
ByLayer
 10
280.7856323510397942
 20
-82.7628730951625755
 30
0.0
 11
280.7856323510397942
 21
-82.4295397618295738
 31
0.0
  0
ARC
  5
72
100
AcDbEntity
  8
Drawings
 62
256
370
-1
  6
ByLayer
100
AcDbCircle
 10
280.1189656843723697
 20
-82.4295397618296306
 30
0.0
 40
0.6666666666666666
100
AcDbArc
 50
360.0
 51
180.0
  0
LINE
  5
73
100
AcDbEntity
100
AcDbLine
  8
Drawings
 62
256
370
-1
  6
ByLayer
 10
279.4522990177063662
 20
-82.429539761829119
 30
0.0
 11
279.4522990177066504
 21
-83.2628730951631724
 31
0.0
  0
ARC
  5
74
100
AcDbEntity
  8
Drawings
 62
256
370
-1
  6
ByLayer
100
AcDbCircle
 10
279.9522990177058546
 20
-83.2628730951631155
 30
0.0
 40
0.5
100
AcDbArc
 50
180.0
 51
270.0
  0
LINE
  5
75
100
AcDbEntity
100
AcDbLine
  8
Drawings
 62
256
370
-1
  6
ByLayer
 10
279.9522990177058546
 20
-83.7628730951626324
 30
0.0
 11
280.7856323510397942
 21
-83.7628730951626608
 31
0.0
  0
LINE
  5
76
100
AcDbEntity
100
AcDbLine
  8
Drawings
 62
256
370
-1
  6
ByLayer
 10
281.7856323510392258
 20
-83.7628730951630445
 30
0.0
 11
281.7856323510399079
 21
-81.7628730951625755
 31
0.0
  0
LINE
  5
77
100
AcDbEntity
100
AcDbLine
  8
Drawings
 62
256
370
-1
  6
ByLayer
 10
281.7856323510399079
 20
-81.7628730951625755
 30
0.0
 11
282.4522990177068777
 21
-81.7628730951625471
 31
0.0
  0
ARC
  5
78
100
AcDbEntity
  8
Drawings
 62
256
370
-1
  6
ByLayer
100
AcDbCircle
 10
282.4522990177059683
 20
-82.0962064284960746
 30
0.0
 40
0.3333333333333333
100
AcDbArc
 50
360.0
 51
90.0
  0
CIRCLE
  5
79
100
AcDbEntity
100
AcDbCircle
  8
0
 62
256
370
-1
  6
ByLayer
 10
99.9990961861061294
 20
-8.3750000000001705
 30
0.0
 40
1.75
  0
INSERT
  5
7A
100
AcDbEntity
100
AcDbBlockReference
  8
0
 62
256
370
-1
  6
ByLayer
  2
tgrips
 10
5.0000000000002842
 20
-87.0000000000000142
 30
0.0
 41
1.0
 42
-1.0
 43
1.0
 50
360.0
 44
1.0
 45
1.0
  0
INSERT
  5
7B
100
AcDbEntity
100
AcDbBlockReference
  8
0
 62
256
370
-1
  6
ByLayer
  2
tgrips
 10
214.99999999999892
 20
-87.0000000000007248
 30
0.0
 41
1.0
 42
-1.0
 43
1.0
 50
360.0
 44
1.0
 45
1.0
  0
LINE
  5
7C
100
AcDbEntity
100
AcDbLine
  8
0
 62
256
370
-1
  6
ByLayer
 10
214.99999999999892
 20
-87.0000000000007248
 30
0.0
 11
75.00000000000027
 21
-87.0000000000000568
 31
0.0
  0
CIRCLE
  5
7D
100
AcDbEntity
100
AcDbCircle
  8
Drawings
 62
256
370
-1
  6
ByLayer
 10
264.9990961861056462
 20
-75.8750000000002274
 30
0.0
 40
6.5192024052026492
  0
SPLINE
  5
7E
  8
Drawings
 62
256
370
5
  6
ByLayer
100
AcDbEntity
100
AcDbSpline
 70
8
 71
3
 72
8
 73
4
 74
0
 40
0.0
 40
0.0
 40
0.0
 40
0.0
 40
1.0
 40
1.0
 40
1.0
 40
1.0
 10
261.8344922029749569
 20
-79.6128225976961374
 30
0.0
 10
261.4796349092187029
 20
-79.406547925975957
 30
0.0
 10
261.4456638254581549
 20
-79.1089838261912064
 30
0.0
 10
261.4456638254585528
 20
-76.2069402841150065
 30
0.0
  0
SPLINE
  5
7F
  8
Drawings
 62
256
370
5
  6
ByLayer
100
AcDbEntity
100
AcDbSpline
 70
8
 71
3
 72
8
 73
4
 74
0
 40
0.0
 40
0.0
 40
0.0
 40
0.0
 40
1.0
 40
1.0
 40
1.0
 40
1.0
 10
261.4456638254585528
 20
-76.2069402841150065
 30
0.0
 10
261.4456638254587233
 20
-73.0131198963046018
 30
0.0
 10
261.4801399883489808
 20
-72.7494475825394602
 30
0.0
 10
261.9667764807380763
 20
-72.221509109775738
 30
0.0
  0
SPLINE
  5
80
  8
Drawings
 62
256
370
5
  6
ByLayer
100
AcDbEntity
100
AcDbSpline
 70
8
 71
3
 72
8
 73
4
 74
0
 40
0.0
 40
0.0
 40
0.0
 40
0.0
 40
1.0
 40
1.0
 40
1.0
 40
1.0
 10
261.9667764807380763
 20
-72.221509109775738
 30
0.0
 10
262.4755325984995125
 20
-71.6695744962074031
 30
0.0
 10
262.7826115369579156
 20
-71.6073240112544056
 30
0.0
 10
264.9965488241358003
 20
-71.6073240112543914
 30
0.0
  0
SPLINE
  5
81
  8
Drawings
 62
256
370
5
  6
ByLayer
100
AcDbEntity
100
AcDbSpline
 70
8
 71
3
 72
8
 73
4
 74
0
 40
0.0
 40
0.0
 40
0.0
 40
0.0
 40
1.0
 40
1.0
 40
1.0
 40
1.0
 10
264.9965488241358003
 20
-71.6073240112543914
 30
0.0
 10
267.1318597596703057
 20
-71.6073240112543346
 30
0.0
 10
267.4676912226536842
 20
-71.6702417214197993
 30
0.0
 10
267.9746456843980127
 20
-72.1652686818149647
 30
0.0
  0
SPLINE
  5
82
  8
Drawings
 62
256
370
5
  6
ByLayer
100
AcDbEntity
100
AcDbSpline
 70
8
 71
3
 72
8
 73
4
 74
0
 40
0.0
 40
0.0
 40
0.0
 40
0.0
 40
1.0
 40
1.0
 40
1.0
 40
1.0
 10
267.9746456843980127
 20
-72.1652686818149647
 30
0.0
 10
268.512654079849483
 20
-72.6906202144308082
 30
0.0
 10
268.5436648140524198
 20
-72.9069369954383433
 30
0.0
 10
268.5436648140514535
 20
-76.1344808095788608
 30
0.0
  0
SPLINE
  5
83
  8
Drawings
 62
256
370
5
  6
ByLayer
100
AcDbEntity
100
AcDbSpline
 70
8
 71
3
 72
8
 73
4
 74
0
 40
0.0
 40
0.0
 40
0.0
 40
0.0
 40
1.0
 40
1.0
 40
1.0
 40
1.0
 10
268.5436648140514535
 20
-76.1344808095788608
 30
0.0
 10
268.5436648140512261
 20
-79.1388323162099709
 30
0.0
 10
268.5112267209021866
 20
-79.4177945913368148
 30
0.0
 10
268.138694616470616
 20
-79.6171679943579989
 30
0.0
  0
SPLINE
  5
84
  8
Drawings
 62
256
370
5
  6
ByLayer
100
AcDbEntity
100
AcDbSpline
 70
8
 71
3
 72
8
 73
4
 74
0
 40
0.0
 40
0.0
 40
0.0
 40
0.0
 40
1.0
 40
1.0
 40
1.0
 40
1.0
 10
268.138694616470616
 20
-79.6171679943579989
 30
0.0
 10
267.7885860133732194
 20
-79.8045402201685761
 30
0.0
 10
267.126811927241647
 20
-79.635086024157971
 30
0.0
 10
267.0089249197198455
 20
-79.3278777830738022
 30
0.0
  0
SPLINE
  5
85
  8
Drawings
 62
256
370
5
  6
ByLayer
100
AcDbEntity
100
AcDbSpline
 70
8
 71
3
 72
8
 73
4
 74
0
 40
0.0
 40
0.0
 40
0.0
 40
0.0
 40
1.0
 40
1.0
 40
1.0
 40
1.0
 10
267.0089249197198455
 20
-79.3278777830738022
 30
0.0
 10
266.9803951981150476
 20
-79.2535299576271939
 30
0.0
 10
266.9570526717199073
 20
-77.8617674017920933
 30
0.0
 10
266.9570526717205894
 20
-76.2350711500278067
 30
0.0
  0
LINE
  5
86
100
AcDbEntity
100
AcDbLine
  8
Drawings
 62
256
370
5
  6
ByLayer
 10
266.9570526717205894
 20
-76.2350711500278067
 30
0.0
 11
266.9570526717204757
 21
-73.2774419779491666
 31
0.0
  0
LINE
  5
87
100
AcDbEntity
100
AcDbLine
  8
Drawings
 62
256
370
5
  6
ByLayer
 10
266.9570526717204757
 20
-73.2774419779491666
 30
0.0
 11
266.3755201844326166
 21
-73.2774419779491097
 31
0.0
  0
LINE
  5
88
100
AcDbEntity
100
AcDbLine
  8
Drawings
 62
256
370
5
  6
ByLayer
 10
266.3755201844326166
 20
-73.2774419779491097
 30
0.0
 11
265.7939882889198202
 21
-73.2774419779490813
 31
0.0
  0
LINE
  5
89
100
AcDbEntity
100
AcDbLine
  8
Drawings
 62
256
370
5
  6
ByLayer
 10
265.7939882889198202
 20
-73.2774419779490813
 30
0.0
 11
265.7701022180834798
 21
-76.2909624313140426
 31
0.0
  0
LINE
  5
8A
100
AcDbEntity
100
AcDbLine
  8
Drawings
 62
256
370
5
  6
ByLayer
 10
265.7701022180834798
 20
-76.2909624313140426
 30
0.0
 11
265.7462170349093071
 21
-79.3044828846790608
 31
0.0
  0
LINE
  5
8B
100
AcDbEntity
100
AcDbLine
  8
Drawings
 62
256
370
5
  6
ByLayer
 10
265.7462170349093071
 20
-79.3044828846790608
 30
0.0
 11
265.5119194960554978
 21
-79.505939036386053
 31
0.0
  0
SPLINE
  5
8C
  8
Drawings
 62
256
370
5
  6
ByLayer
100
AcDbEntity
100
AcDbSpline
 70
8
 71
3
 72
8
 73
4
 74
0
 40
0.0
 40
0.0
 40
0.0
 40
0.0
 40
1.0
 40
1.0
 40
1.0
 40
1.0
 10
265.5119194960554978
 20
-79.505939036386053
 30
0.0
 10
265.2021337832101153
 20
-79.7723021466388502
 30
0.0
 10
264.7871945604130133
 20
-79.7723021466389071
 30
0.0
 10
264.4774085516804689
 20
-79.5059390363864793
 30
0.0
  0
LINE
  5
8D
100
AcDbEntity
100
AcDbLine
  8
Drawings
 62
256
370
5
  6
ByLayer
 10
264.4774085516804689
 20
-79.5059390363864793
 30
0.0
 11
264.2431110128270006
 21
-79.3044828846784924
 31
0.0
  0
LINE
  5
8E
100
AcDbEntity
100
AcDbLine
  8
Drawings
 62
256
370
5
  6
ByLayer
 10
264.2431110128270006
 20
-79.3044828846784924
 30
0.0
 11
264.2192258296529985
 21
-76.2909624313140142
 31
0.0
  0
LINE
  5
8F
100
AcDbEntity
100
AcDbLine
  8
Drawings
 62
256
370
5
  6
ByLayer
 10
264.2192258296529985
 20
-76.2909624313140142
 30
0.0
 11
264.1953397588169423
 21
-73.2774419779492092
 31
0.0
  0
LINE
  5
90
100
AcDbEntity
100
AcDbLine
  8
Drawings
 62
256
370
5
  6
ByLayer
 10
264.1953397588169423
 20
-73.2774419779492092
 30
0.0
 11
263.6138081591905689
 21
-73.2774419779492092
 31
0.0
  0
LINE
  5
91
100
AcDbEntity
100
AcDbLine
  8
Drawings
 62
256
370
5
  6
ByLayer
 10
263.6138081591905689
 20
-73.2774419779492092
 30
0.0
 11
263.0322756719032213
 21
-73.2774419779492092
 31
0.0
  0
LINE
  5
92
100
AcDbEntity
100
AcDbLine
  8
Drawings
 62
256
370
5
  6
ByLayer
 10
263.0322756719032213
 20
-73.2774419779492092
 30
0.0
 11
263.0322756719031645
 21
-76.2350711500277782
 31
0.0
  0
SPLINE
  5
93
  8
Drawings
 62
256
370
5
  6
ByLayer
100
AcDbEntity
100
AcDbSpline
 70
8
 71
3
 72
8
 73
4
 74
0
 40
0.0
 40
0.0
 40
0.0
 40
0.0
 40
1.0
 40
1.0
 40
1.0
 40
1.0
 10
263.0322756719031645
 20
-76.2350711500277782
 30
0.0
 10
263.0322756719031076
 20
-77.8617674017920933
 30
0.0
 10
263.0089334413963797
 20
-79.2535299576276628
 30
0.0
 10
262.9804034239038515
 20
-79.3278777830725943
 30
0.0
  0
SPLINE
  5
94
  8
Drawings
 62
256
370
5
  6
ByLayer
100
AcDbEntity
100
AcDbSpline
 70
8
 71
3
 72
8
 73
4
 74
0
 40
0.0
 40
0.0
 40
0.0
 40
0.0
 40
1.0
 40
1.0
 40
1.0
 40
1.0
 10
262.9804034239038515
 20
-79.3278777830725943
 30
0.0
 10
262.8621643108371018
 20
-79.636004457441004
 30
0.0
 10
262.1703263289420534
 20
-79.8080384923148074
 30
0.0
 10
261.8344922029749569
 20
-79.6128225976961374
 30
0.0
  0
LINE
  5
95
100
AcDbEntity
100
AcDbLine
  8
Drawings
 62
256
370
5
  6
ByLayer
 10
261.8344922029749569
 20
-79.6128225976961374
 30
0.0
 11
261.8344922029749569
 21
-79.6128225976961374
 31
0.0
  0
LINE
  5
96
100
AcDbEntity
100
AcDbLine
  8
0
 62
256
370
-1
  6
ByLayer
 10
4.9999999999984368
 20
-59.74999999999973
 30
0.0
 11
5.0000000000002842
 21
-87.0000000000000142
 31
0.0
  0
ARC
  5
97
100
AcDbEntity
  8
0
 62
256
370
-1
  6
ByLayer
100
AcDbCircle
 10
135.999999999999801
 20
-14.0000000000006324
 30
0.0
 40
5.0
100
AcDbArc
 50
90.0
 51
180.0
  0
ARC
  5
98
100
AcDbEntity
  8
0
 62
256
370
-1
  6
ByLayer
100
AcDbCircle
 10
197.9999999999993179
 20
-14.000000000000643
 30
0.0
 40
5.0
100
AcDbArc
 50
360.0
 51
90.0
  0
LINE
  5
99
100
AcDbEntity
100
AcDbLine
  8
0
 62
256
370
-1
  6
ByLayer
 10
197.9999999999996589
 20
-9.0000000000006537
 30
0.0
 11
135.9999999999993463
 21
-9.0000000000006324
 31
0.0
  0
ARC
  5
9A
100
AcDbEntity
  8
0
 62
256
370
-1
  6
ByLayer
100
AcDbCircle
 10
135.99999999999946
 20
-73.0000000000006253
 30
0.0
 40
5.0
100
AcDbArc
 50
180.0
 51
270.0
  0
ARC
  5
9B
100
AcDbEntity
  8
0
 62
256
370
-1
  6
ByLayer
100
AcDbCircle
 10
197.9999999999987494
 20
-73.0000000000006253
 30
0.0
 40
5.0
100
AcDbArc
 50
270.0
 51
360.0
  0
LINE
  5
9C
100
AcDbEntity
100
AcDbLine
  8
0
 62
256
370
-1
  6
ByLayer
 10
135.9999999999988916
 20
-78.0000000000006253
 30
0.0
 11
197.9999999999991189
 21
-78.0000000000006963
 31
0.0
  0
LINE
  5
9D
100
AcDbEntity
100
AcDbLine
  8
0
 62
256
370
-1
  6
ByLayer
 10
130.9999999999991473
 20
-14.0000000000006324
 30
0.0
 11
130.9999999999990337
 21
-73.0000000000006253
 31
0.0
  0
LINE
  5
9E
100
AcDbEntity
100
AcDbLine
  8
0
 62
256
370
-1
  6
ByLayer
 10
202.9999999999993747
 20
-14.0000000000006501
 30
0.0
 11
202.9999999999991473
 21
-73.0000000000006821
 31
0.0
  0
ARC
  5
9F
100
AcDbEntity
  8
0
 62
256
370
-1
  6
ByLayer
100
AcDbCircle
 10
230.9999999999994884
 20
-2.0000000000007248
 30
0.0
 40
2.0
100
AcDbArc
 50
90.0
 51
180.0
  0
ARC
  5
A0
100
AcDbEntity
  8
0
 62
256
370
-1
  6
ByLayer
100
AcDbCircle
 10
218.9999999999994316
 20
-2.0000000000006963
 30
0.0
 40
2.0
100
AcDbArc
 50
360.0
 51
90.0
  0
ARC
  5
A1
100
AcDbEntity
  8
0
 62
256
370
-1
  6
ByLayer
100
AcDbCircle
 10
70.9999999999994458
 20
-2.0000000000006253
 30
0.0
 40
2.0
100
AcDbArc
 50
90.0
 51
180.0
  0
ARC
  5
A2
100
AcDbEntity
  8
0
 62
256
370
-1
  6
ByLayer
100
AcDbCircle
 10
58.99999999999973
 20
-2.0000000000005187
 30
0.0
 40
2.0
100
AcDbArc
 50
360.0
 51
90.0
  0
ARC
  5
A3
100
AcDbEntity
  8
0
 62
256
370
-1
  6
ByLayer
100
AcDbCircle
 10
62.9999999999993889
 20
-7.2500000000006111
 30
0.0
 40
2.0
100
AcDbArc
 50
180.0
 51
270.0
  0
LINE
  5
A4
100
AcDbEntity
100
AcDbLine
  8
0
 62
256
370
-1
  6
ByLayer
 10
66.9999999999993889
 20
-9.2500000000005684
 30
0.0
 11
62.9999999999993463
 21
-9.2500000000005684
 31
0.0
  0
ARC
  5
A5
100
AcDbEntity
  8
0
 62
256
370
-1
  6
ByLayer
100
AcDbCircle
 10
66.9999999999994031
 20
-7.2500000000005755
 30
0.0
 40
2.0
100
AcDbArc
 50
270.0
 51
360.0
  0
LINE
  5
A6
100
AcDbEntity
100
AcDbLine
  8
0
 62
256
370
-1
  6
ByLayer
 10
68.9999999999994458
 20
-2.0000000000005471
 30
0.0
 11
68.9999999999994031
 21
-7.2500000000005684
 31
0.0
  0
LINE
  5
A7
100
AcDbEntity
100
AcDbLine
  8
0
 62
256
370
-1
  6
ByLayer
 10
60.9999999999993321
 20
-7.2500000000005898
 30
0.0
 11
60.9999999999998295
 21
-2.00000000000054
 31
0.0
  0
ARC
  5
A8
100
AcDbEntity
  8
0
 62
256
370
-1
  6
ByLayer
100
AcDbCircle
 10
222.9999999999994884
 20
-7.2500000000006608
 30
0.0
 40
2.0
100
AcDbArc
 50
180.0
 51
270.0
  0
LINE
  5
A9
100
AcDbEntity
100
AcDbLine
  8
0
 62
256
370
-1
  6
ByLayer
 10
226.9999999999993179
 20
-9.2500000000006111
 30
0.0
 11
222.9999999999993179
 21
-9.2500000000006324
 31
0.0
  0
ARC
  5
AA
100
AcDbEntity
  8
0
 62
256
370
-1
  6
ByLayer
100
AcDbCircle
 10
226.9999999999993747
 20
-7.2500000000006537
 30
0.0
 40
2.0
100
AcDbArc
 50
270.0
 51
360.0
  0
LINE
  5
AB
100
AcDbEntity
100
AcDbLine
  8
0
 62
256
370
-1
  6
ByLayer
 10
228.9999999999994031
 20
-2.0000000000006253
 30
0.0
 11
228.9999999999993179
 21
-7.2500000000006679
 31
0.0
  0
LINE
  5
AC
100
AcDbEntity
100
AcDbLine
  8
0
 62
256
370
-1
  6
ByLayer
 10
220.9999999999993747
 20
-7.2500000000005755
 30
0.0
 11
220.9999999999994884
 21
-2.0000000000006111
 31
0.0
  0
LINE
  5
AD
100
AcDbEntity
100
AcDbLine
  8
0
 62
256
370
-1
  6
ByLayer
 10
4.9999999999988347
 20
-50.0000000000001137
 30
0.0
 11
4.9999999999986358
 21
-60.0000000000000924
 31
0.0
  0
LINE
  5
AE
100
AcDbEntity
100
AcDbLine
  8
0
 62
256
370
-1
  6
ByLayer
 10
4.9999999999986358
 20
-60.0000000000000924
 30
0.0
 11
4.9999999999986358
 21
-60.0000000000000924
 31
0.0
  0
LINE
  5
AF
100
AcDbEntity
100
AcDbLine
  8
0
 62
256
370
-1
  6
ByLayer
 10
14.9999999999993747
 20
-30.5000000000003055
 30
0.0
 11
14.9999999999993747
 21
-30.5000000000003055
 31
0.0
  0
LINE
  5
B0
100
AcDbEntity
100
AcDbLine
  8
0
 62
256
370
-1
  6
ByLayer
 10
11.99999999999946
 20
-27.7500000000002842
 30
0.0
 11
14.9999999999993747
 21
-27.747483968956395
 31
0.0
  0
LINE
  5
B1
100
AcDbEntity
100
AcDbLine
  8
0
 62
256
370
-1
  6
ByLayer
 10
14.9999999999994316
 20
-26.5000000000003268
 30
0.0
 11
14.9999999999993747
 21
-27.747483968956395
 31
0.0
  0
LINE
  5
B2
100
AcDbEntity
100
AcDbLine
  8
0
 62
256
370
-1
  6
ByLayer
 10
11.9999999999994884
 20
-22.2500000000002451
 30
0.0
 11
14.9999999999994884
 21
-22.2453083395831683
 31
0.0
  0
LINE
  5
B3
100
AcDbEntity
100
AcDbLine
  8
0
 62
256
370
-1
  6
ByLayer
 10
14.9999999999994884
 20
-22.2453083395831683
 30
0.0
 11
14.9999999999994884
 21
-23.5000000000003766
 31
0.0
  0
LINE
  5
B4
100
AcDbEntity
100
AcDbLine
  8
0
 62
256
370
-1
  6
ByLayer
 10
4.9999999999994884
 20
-23.5827980153517096
 30
0.0
 11
11.9987197232201481
 21
-23.5835159800340506
 31
0.0
  0
LINE
  5
B5
100
AcDbEntity
100
AcDbLine
  8
0
 62
256
370
-1
  6
ByLayer
 10
11.9987197232200629
 20
-26.4008093934437653
 30
0.0
 11
4.9955127207122416
 21
-26.4008093934436552
 31
0.0
  0
LINE
  5
B6
100
AcDbEntity
100
AcDbLine
  8
0
 62
256
370
-1
  6
ByLayer
 10
4.9955127207122416
 20
-26.4008093934436552
 30
0.0
 11
4.9999999999990905
 21
-40.0000000000001066
 31
0.0
  0
LINE
  5
B7
100
AcDbEntity
100
AcDbLine
  8
0
 62
256
370
-1
  6
ByLayer
 10
4.9999999999998295
 20
-10.0000000000000924
 30
0.0
 11
4.9999999999994884
 21
-23.5827980153517096
 31
0.0
  0
LINE
  5
B8
100
AcDbEntity
100
AcDbLine
  8
0
 62
256
370
-1
  6
ByLayer
 10
11.99999999999946
 20
-27.7500000000002842
 30
0.0
 11
11.9987197232200629
 21
-26.4008093934437653
 31
0.0
  0
LINE
  5
B9
100
AcDbEntity
100
AcDbLine
  8
0
 62
256
370
-1
  6
ByLayer
 10
11.9987197232201481
 20
-23.5835159800340506
 30
0.0
 11
11.9999999999994884
 21
-22.2500000000002451
 31
0.0
  0
LINE
  5
BA
100
AcDbEntity
100
AcDbLine
  8
0
 62
256
370
-1
  6
ByLayer
 10
15.9999999999994884
 20
-23.5000000000003979
 30
0.0
 11
15.9999999999994031
 21
-26.5000000000004121
 31
0.0
  0
LINE
  5
BB
100
AcDbEntity
100
AcDbLine
  8
0
 62
256
370
-1
  6
ByLayer
 10
14.9999999999994884
 20
-23.5000000000003766
 30
0.0
 11
15.9999999999994884
 21
-23.5000000000003979
 31
0.0
  0
LINE
  5
BC
100
AcDbEntity
100
AcDbLine
  8
0
 62
256
370
-1
  6
ByLayer
 10
15.9999999999994031
 20
-26.5000000000004121
 30
0.0
 11
14.9999999999994316
 21
-26.5000000000003268
 31
0.0
  0
LINE
  5
BD
100
AcDbEntity
100
AcDbLine
  8
0
 62
256
370
-1
  6
ByLayer
 10
-0.000000000000199
 20
-10.0
 30
0.0
 11
4.9999999999998295
 21
-10.0000000000000924
 31
0.0
  0
LINE
  5
BE
100
AcDbEntity
100
AcDbLine
  8
0
 62
256
370
-1
  6
ByLayer
 10
0.0
 20
0.0
 30
0.0
 11
-0.000000000000199
 21
-10.0
 31
0.0
  0
LINE
  5
BF
100
AcDbEntity
100
AcDbLine
  8
0
 62
256
370
-1
  6
ByLayer
 10
5.0000000000000284
 20
-0.0000000000001137
 30
0.0
 11
0.0
 21
0.0
 31
0.0
  0
LINE
  5
C0
100
AcDbEntity
100
AcDbLine
  8
0
 62
256
370
-1
  6
ByLayer
 10
-0.0000000000009663
 20
-39.9999999999999929
 30
0.0
 11
-0.0000000000011084
 21
-50.0000000000000213
 31
0.0
  0
LINE
  5
C1
100
AcDbEntity
100
AcDbLine
  8
0
 62
256
370
-1
  6
ByLayer
 10
-0.0000000000011084
 20
-50.0000000000000213
 30
0.0
 11
4.9999999999988347
 21
-50.0000000000001137
 31
0.0
  0
LINE
  5
C2
100
AcDbEntity
100
AcDbLine
  8
0
 62
256
370
-1
  6
ByLayer
 10
4.9999999999990905
 20
-40.0000000000001066
 30
0.0
 11
-0.0000000000009663
 21
-39.9999999999999929
 31
0.0
  0
LINE
  5
C3
100
AcDbEntity
100
AcDbLine
  8
0
 62
256
370
-1
  6
ByLayer
 10
278.0000000000002274
 20
-27.750000000000199
 30
0.0
 11
275.0000000000002274
 21
-27.74748396895626
 31
0.0
  0
LINE
  5
C4
100
AcDbEntity
100
AcDbLine
  8
0
 62
256
370
-1
  6
ByLayer
 10
275.0000000000002274
 20
-26.5000000000002416
 30
0.0
 11
275.0000000000002274
 21
-27.74748396895626
 31
0.0
  0
LINE
  5
C5
100
AcDbEntity
100
AcDbLine
  8
0
 62
256
370
-1
  6
ByLayer
 10
278.0000000000002274
 20
-22.2500000000001847
 30
0.0
 11
275.0000000000002842
 21
-22.2453083395831044
 31
0.0
  0
LINE
  5
C6
100
AcDbEntity
100
AcDbLine
  8
0
 62
256
370
-1
  6
ByLayer
 10
275.0000000000002842
 20
-22.2453083395831044
 30
0.0
 11
275.0000000000002274
 21
-23.500000000000199
 31
0.0
  0
LINE
  5
C7
100
AcDbEntity
100
AcDbLine
  8
0
 62
256
370
-1
  6
ByLayer
 10
285.0000000000002274
 20
-23.5827980153517984
 30
0.0
 11
278.0012802767796529
 21
-23.5835159800339937
 31
0.0
  0
LINE
  5
C8
100
AcDbEntity
100
AcDbLine
  8
0
 62
256
370
-1
  6
ByLayer
 10
278.0012802767795961
 20
-26.4008093934436801
 30
0.0
 11
285.0044872792874457
 21
-26.4008093934437653
 31
0.0
  0
LINE
  5
C9
100
AcDbEntity
100
AcDbLine
  8
0
 62
256
370
-1
  6
ByLayer
 10
285.0044872792874457
 20
-26.4008093934437653
 30
0.0
 11
285.0000000000002274
 21
-40.0000000000001492
 31
0.0
  0
LINE
  5
CA
100
AcDbEntity
100
AcDbLine
  8
0
 62
256
370
-1
  6
ByLayer
 10
285.0000000000002842
 20
-10.0000000000002984
 30
0.0
 11
285.0000000000002274
 21
-23.5827980153517984
 31
0.0
  0
LINE
  5
CB
100
AcDbEntity
100
AcDbLine
  8
0
 62
256
370
-1
  6
ByLayer
 10
278.0000000000002274
 20
-27.750000000000199
 30
0.0
 11
278.0012802767795961
 21
-26.4008093934436801
 31
0.0
  0
LINE
  5
CC
100
AcDbEntity
100
AcDbLine
  8
0
 62
256
370
-1
  6
ByLayer
 10
278.0012802767796529
 20
-23.5835159800339937
 30
0.0
 11
278.0000000000002274
 21
-22.2500000000001847
 31
0.0
  0
LINE
  5
CD
100
AcDbEntity
100
AcDbLine
  8
0
 62
256
370
-1
  6
ByLayer
 10
274.0000000000002274
 20
-23.500000000000167
 30
0.0
 11
274.0000000000002274
 21
-26.5000000000001492
 31
0.0
  0
LINE
  5
CE
100
AcDbEntity
100
AcDbLine
  8
0
 62
256
370
-1
  6
ByLayer
 10
275.0000000000002274
 20
-23.500000000000199
 30
0.0
 11
274.0000000000002274
 21
-23.500000000000167
 31
0.0
  0
LINE
  5
CF
100
AcDbEntity
100
AcDbLine
  8
0
 62
256
370
-1
  6
ByLayer
 10
274.0000000000002274
 20
-26.5000000000001492
 30
0.0
 11
275.0000000000002274
 21
-26.5000000000002416
 31
0.0
  0
LINE
  5
D0
100
AcDbEntity
100
AcDbLine
  8
0
 62
256
370
-1
  6
ByLayer
 10
290.0000000000003411
 20
-10.0000000000002274
 30
0.0
 11
285.0000000000002842
 21
-10.0000000000002984
 31
0.0
  0
LINE
  5
D1
100
AcDbEntity
100
AcDbLine
  8
0
 62
256
370
-1
  6
ByLayer
 10
290.0000000000003411
 20
-0.0000000000002558
 30
0.0
 11
290.0000000000003411
 21
-10.0000000000002274
 31
0.0
  0
LINE
  5
D2
100
AcDbEntity
100
AcDbLine
  8
0
 62
256
370
-1
  6
ByLayer
 10
285.0000000000002274
 20
-0.0000000000001492
 30
0.0
 11
290.0000000000003411
 21
-0.0000000000002558
 31
0.0
  0
LINE
  5
D3
100
AcDbEntity
100
AcDbLine
  8
0
 62
256
370
-1
  6
ByLayer
 10
290.0000000000002274
 20
-40.0000000000001705
 30
0.0
 11
290.0000000000002274
 21
-50.0000000000002061
 31
0.0
  0
LINE
  5
D4
100
AcDbEntity
100
AcDbLine
  8
0
 62
256
370
-1
  6
ByLayer
 10
290.0000000000002274
 20
-50.0000000000002061
 30
0.0
 11
285.0000000000002274
 21
-50.0000000000002842
 31
0.0
  0
LINE
  5
D5
100
AcDbEntity
100
AcDbLine
  8
0
 62
256
370
-1
  6
ByLayer
 10
285.0000000000002274
 20
-40.0000000000001492
 30
0.0
 11
290.0000000000002274
 21
-40.0000000000001705
 31
0.0
  0
LINE
  5
D6
100
AcDbEntity
100
AcDbLine
  8
0
 62
256
370
-1
  6
ByLayer
 10
284.9999999999996589
 20
-0.0000000000002132
 30
0.0
 11
230.9999999999994884
 21
-0.0000000000002416
 31
0.0
  0
LINE
  5
D7
100
AcDbEntity
100
AcDbLine
  8
0
 62
256
370
-1
  6
ByLayer
 10
218.9999999999993747
 20
-0.000000000000199
 30
0.0
 11
70.9999999999994316
 21
-0.0000000000001776
 31
0.0
  0
LINE
  5
D8
100
AcDbEntity
100
AcDbLine
  8
0
 62
256
370
-1
  6
ByLayer
 10
58.9999999999997584
 20
-0.0000000000001492
 30
0.0
 11
5.0000000000000853
 21
-0.000000000000199
 31
0.0
  0
MTEXT
  5
D9
100
AcDbEntity
100
AcDbMText
  8
Drawings
 62
256
370
-1
  6
ByLayer
 10
21.9999999999995737
 20
-80.0000000000002842
 30
0.0
 40
3.0
 41
100.0
 71
5
 72
2
  1
Batch\~V
  7
normal
 50
0.0
 73
0
 44
1.0
  0
LINE
  5
DA
100
AcDbEntity
100
AcDbLine
  8
0
 62
256
370
-1
  6
ByLayer
 10
285.0000000000002274
 20
-50.0000000000002842
 30
0.0
 11
284.99999999999892
 21
-87.000000000000739
 31
0.0
  0
ARC
  5
DB
100
AcDbEntity
  8
0
 62
256
370
-1
  6
ByLayer
100
AcDbCircle
 10
123.0000000000004121
 20
-73.0000000000001705
 30
0.0
 40
5.0
100
AcDbArc
 50
270.0
 51
360.0
  0
LINE
  5
DC
100
AcDbEntity
100
AcDbLine
  8
0
 62
256
370
-1
  6
ByLayer
 10
80.0000000000003411
 20
-78.0000000000001705
 30
0.0
 11
123.0000000000004121
 21
-78.0000000000001705
 31
0.0
  0
ARC
  5
DD
100
AcDbEntity
  8
0
 62
256
370
-1
  6
ByLayer
100
AcDbCircle
 10
90.0000000000002558
 20
-19.0000000000001101
 30
0.0
 40
5.0
100
AcDbArc
 50
90.0
 51
180.0
  0
LINE
  5
DE
100
AcDbEntity
100
AcDbLine
  8
0
 62
256
370
-1
  6
ByLayer
 10
85.0000000000003126
 20
-19.0000000000001137
 30
0.0
 11
85.0000000000002842
 21
-29.0000000000001208
 31
0.0
  0
ARC
  5
DF
100
AcDbEntity
  8
0
 62
256
370
-1
  6
ByLayer
100
AcDbCircle
 10
80.000000000000199
 20
-29.0000000000000995
 30
0.0
 40
5.0
100
AcDbArc
 50
270.0
 51
360.0
  0
LINE
  5
E0
100
AcDbEntity
100
AcDbLine
  8
0
 62
256
370
-1
  6
ByLayer
 10
80.0000000000002984
 20
-34.0000000000001847
 30
0.0
 11
80.0000000000002984
 21
-34.0000000000001847
 31
0.0
  0
ARC
  5
E1
100
AcDbEntity
  8
0
 62
256
370
-1
  6
ByLayer
100
AcDbCircle
 10
80.0000000000002416
 20
-38.9999999999987494
 30
0.0
 40
5.0
100
AcDbArc
 50
90.0
 51
180.0
  0
ARC
  5
E2
100
AcDbEntity
  8
0
 62
256
370
-1
  6
ByLayer
100
AcDbCircle
 10
123.0000000000002274
 20
-39.0000000000001208
 30
0.0
 40
5.0
100
AcDbArc
 50
360.0
 51
90.0
  0
LINE
  5
E3
100
AcDbEntity
100
AcDbLine
  8
0
 62
256
370
-1
  6
ByLayer
 10
113.0000000000002842
 20
-14.0000000000001812
 30
0.0
 11
111.0000000000003553
 21
-14.0000000000001705
 31
0.0
  0
ARC
  5
E4
100
AcDbEntity
  8
0
 62
256
370
-1
  6
ByLayer
100
AcDbCircle
 10
113.0000000000006963
 20
-19.0000000000001741
 30
0.0
 40
5.0
100
AcDbArc
 50
360.0
 51
90.0
  0
LINE
  5
E5
100
AcDbEntity
100
AcDbLine
  8
0
 62
256
370
-1
  6
ByLayer
 10
118.0000000000002842
 20
-29.0000000000001208
 30
0.0
 11
118.0000000000007105
 21
-19.0000000000001172
 31
0.0
  0
LINE
  5
E6
100
AcDbEntity
100
AcDbLine
  8
0
 62
256
370
-1
  6
ByLayer
 10
123.0000000000002842
 20
-34.0000000000001208
 30
0.0
 11
123.0000000000002842
 21
-34.0000000000001208
 31
0.0
  0
ARC
  5
E7
100
AcDbEntity
  8
0
 62
256
370
-1
  6
ByLayer
100
AcDbCircle
 10
123.000000000000199
 20
-29.0000000000001208
 30
0.0
 40
5.0
100
AcDbArc
 50
180.0
 51
270.0
  0
LINE
  5
E8
100
AcDbEntity
100
AcDbLine
  8
0
 62
256
370
-1
  6
ByLayer
 10
111.0000000000003553
 20
-14.0000000000001705
 30
0.0
 11
90.0000000000007105
 21
-14.0000000000001066
 31
0.0
  0
LINE
  5
E9
100
AcDbEntity
100
AcDbLine
  8
0
 62
256
370
-1
  6
ByLayer
 10
75.0000000000003126
 20
-73.0000000000001705
 30
0.0
 11
75.0000000000002416
 21
-38.9999999999987494
 31
0.0
  0
LINE
  5
EA
100
AcDbEntity
100
AcDbLine
  8
0
 62
256
370
-1
  6
ByLayer
 10
128.0000000000003695
 20
-73.0000000000001705
 30
0.0
 11
128.0000000000002274
 21
-39.0000000000001208
 31
0.0
  0
ENDSEC
  0
SECTION
  2
OBJECTS
  0
DICTIONARY
  5
C
100
AcDbDictionary
280
0
281
1
  3
ACAD_GROUP
350
D
  3
ACAD_LAYOUT
350
1A
  3
ACAD_MLINESTYLE
350
17
  3
ACAD_PLOTSETTINGS
350
19
  3
ACAD_PLOTSTYLENAME
350
E
  3
AcDbVariableDictionary
350
EB
  0
DICTIONARY
  5
D
100
AcDbDictionary
280
0
281
1
  0
ACDBDICTIONARYWDFLT
  5
E
100
AcDbDictionary
281
1
  3
Normal
350
F
100
AcDbDictionaryWithDefault
340
F
  0
ACDBPLACEHOLDER
  5
F
  0
DICTIONARY
  5
17
100
AcDbDictionary
280
0
281
1
  3
Standard
350
18
  0
MLINESTYLE
  5
18
100
AcDbMlineStyle
  2
STANDARD
 70
0
  3

 62
256
 51
90.0
 52
90.0
 71
2
 49
0.5
 62
256
  6
BYLAYER
 49
-0.5
 62
256
  6
BYLAYER
  0
DICTIONARY
  5
19
100
AcDbDictionary
280
0
281
1
  0
DICTIONARY
  5
1A
100
AcDbDictionary
281
1
  3
Layout1
350
1E
  3
Layout2
350
26
  3
Model
350
22
  0
LAYOUT
  5
1E
100
AcDbPlotSettings
  1

  2
C:\Program Files\AutoCAD 2002\plotters\DWF ePlot (optimized for plotting).pc3
  4

  6

 40
0.0
 41
0.0
 42
0.0
 43
0.0
 44
0.0
 45
0.0
 46
0.0
 47
0.0
 48
0.0
 49
0.0
140
0.0
141
0.0
142
1.0
143
1.0
 70
688
 72
0
 73
0
 74
5
  7

 75
16
147
1.0
148
0.0
149
0.0
100
AcDbLayout
  1
Layout1
 70
1
 71
1
 10
0.0
 20
0.0
 11
420.0
 21
297.0
 12
0.0
 22
0.0
 32
0.0
 14
100000000000000000000.0
 24
100000000000000000000.0
 34
100000000000000000000.0
 15
-100000000000000000000.0
 25
-100000000000000000000.0
 35
-100000000000000000000.0
146
0.0
 13
0.0
 23
0.0
 33
0.0
 16
1.0
 26
0.0
 36
0.0
 17
0.0
 27
1.0
 37
0.0
 76
0
330
1B
  0
LAYOUT
  5
22
100
AcDbPlotSettings
  1

  2
C:\Program Files\AutoCAD 2002\plotters\DWF ePlot (optimized for plotting).pc3
  4

  6

 40
0.0
 41
0.0
 42
0.0
 43
0.0
 44
0.0
 45
0.0
 46
0.0
 47
0.0
 48
0.0
 49
0.0
140
0.0
141
0.0
142
1.0
143
1.0
 70
1712
 72
0
 73
0
 74
0
  7

 75
0
147
1.0
148
0.0
149
0.0
100
AcDbLayout
  1
Model
 70
1
 71
0
 10
0.0
 20
0.0
 11
12.0
 21
9.0
 12
0.0
 22
0.0
 32
0.0
 14
0.0
 24
0.0
 34
0.0
 15
0.0
 25
0.0
 35
0.0
146
0.0
 13
0.0
 23
0.0
 33
0.0
 16
1.0
 26
0.0
 36
0.0
 17
0.0
 27
1.0
 37
0.0
 76
0
330
1F
  0
LAYOUT
  5
26
100
AcDbPlotSettings
  1

  2
C:\Program Files\AutoCAD 2002\plotters\DWF ePlot (optimized for plotting).pc3
  4

  6

 40
0.0
 41
0.0
 42
0.0
 43
0.0
 44
0.0
 45
0.0
 46
0.0
 47
0.0
 48
0.0
 49
0.0
140
0.0
141
0.0
142
1.0
143
1.0
 70
688
 72
0
 73
0
 74
5
  7

 75
16
147
1.0
148
0.0
149
0.0
100
AcDbLayout
  1
Layout2
 70
1
 71
2
 10
0.0
 20
0.0
 11
12.0
 21
9.0
 12
0.0
 22
0.0
 32
0.0
 14
0.0
 24
0.0
 34
0.0
 15
0.0
 25
0.0
 35
0.0
146
0.0
 13
0.0
 23
0.0
 33
0.0
 16
1.0
 26
0.0
 36
0.0
 17
0.0
 27
1.0
 37
0.0
 76
0
330
23
  0
DICTIONARY
  5
EB
100
AcDbDictionary
281
1
  3
DIMASSOC
350
ED
  3
HIDETEXT
350
EC
  0
DICTIONARYVAR
  5
EC
100
DictionaryVariables
280
0
  1
2
  0
DICTIONARYVAR
  5
ED
100
DictionaryVariables
280
0
  1
1
  0
ENDSEC
  0
EOF
