<?xml version="1.0" standalone="yes"?>

<svg width="156mm" height="140mm" viewBox="0 0 156 140" version="1.1"
xmlns="http://www.w3.org/2000/svg" style="stroke-linecap:round">
  <ellipse cx="22.6348" cy="88.698" rx="1.45353" ry="1.45353" style="stroke:rgb(0,0,0);stroke-width:0.1;fill:none;"/>
  <ellipse cx="22.6348" cy="119.773" rx="1.45353" ry="1.45353" style="stroke:rgb(0,0,0);stroke-width:0.1;fill:none;"/>
  <ellipse cx="9.17874" cy="112.005" rx="1.45353" ry="1.45353" style="stroke:rgb(0,0,0);stroke-width:0.1;fill:none;"/>
  <ellipse cx="9.17874" cy="96.4669" rx="1.45353" ry="1.45353" style="stroke:rgb(0,0,0);stroke-width:0.1;fill:none;"/>
  <ellipse cx="70.7516" cy="88.1968" rx="1.45353" ry="1.45353" style="stroke:rgb(0,0,0);stroke-width:0.1;fill:none;"/>
  <ellipse cx="70.7516" cy="120.275" rx="1.45353" ry="1.45353" style="stroke:rgb(0,0,0);stroke-width:0.1;fill:none;"/>
  <ellipse cx="7.09709" cy="88.698" rx="1.45353" ry="1.45353" style="stroke:rgb(0,0,0);stroke-width:0.1;fill:none;"/>
  <ellipse cx="38.1725" cy="88.698" rx="1.45353" ry="1.45353" style="stroke:rgb(0,0,0);stroke-width:0.1;fill:none;"/>
  <ellipse cx="38.1725" cy="119.773" rx="1.45353" ry="1.45353" style="stroke:rgb(0,0,0);stroke-width:0.1;fill:none;"/>
  <ellipse cx="7.09709" cy="119.773" rx="1.45353" ry="1.45353" style="stroke:rgb(0,0,0);stroke-width:0.1;fill:none;"/>
  <path d="M74.7613,85.0392 A2.00487,2.00487 0 0,0 72.7565,83.0343 " style="stroke:rgb(0,0,0);stroke-width:0.1;fill:none" />
  <path d="M3.4382,83.0343 L72.7565,83.0343" style="stroke:rgb(0,0,0);stroke-width:0.1;fill:none" />
  <path d="M9.60317,134.309 L13.1117,134.309" style="stroke:rgb(0,0,0);stroke-width:0.1;fill:none" />
  <path d="M13.1117,134.309 L13.1117,126.49" style="stroke:rgb(0,0,0);stroke-width:0.1;fill:none" />
  <path d="M13.1117,126.49 L11.8085,126.49" style="stroke:rgb(0,0,0);stroke-width:0.1;fill:none" />
  <path d="M11.8085,126.49 L11.8085,123.883" style="stroke:rgb(0,0,0);stroke-width:0.1;fill:none" />
  <path d="M11.8085,123.883 L13.1117,123.883" style="stroke:rgb(0,0,0);stroke-width:0.1;fill:none" />
  <path d="M13.1117,123.883 L13.1117,122.28" style="stroke:rgb(0,0,0);stroke-width:0.1;fill:none" />
  <path d="M13.1117,122.28 L16.119,122.28" style="stroke:rgb(0,0,0);stroke-width:0.1;fill:none" />
  <path d="M16.119,122.28 L16.119,123.883" style="stroke:rgb(0,0,0);stroke-width:0.1;fill:none" />
  <path d="M16.119,123.883 L17.4221,123.883" style="stroke:rgb(0,0,0);stroke-width:0.1;fill:none" />
  <path d="M17.4221,123.883 L17.4221,126.49" style="stroke:rgb(0,0,0);stroke-width:0.1;fill:none" />
  <path d="M17.4221,126.49 L16.119,126.49" style="stroke:rgb(0,0,0);stroke-width:0.1;fill:none" />
  <path d="M16.119,126.49 L16.119,134.309" style="stroke:rgb(0,0,0);stroke-width:0.1;fill:none" />
  <path d="M9.60317,138.82 L9.60317,134.309" style="stroke:rgb(0,0,0);stroke-width:0.1;fill:none" />
  <path d="M1.43333,138.82 L9.60317,138.82" style="stroke:rgb(0,0,0);stroke-width:0.1;fill:none" />
  <path d="M74.7613,85.0392 L74.7613,138.82" style="stroke:rgb(0,0,0);stroke-width:0.1;fill:none" />
  <path d="M3.4382,83.0343 A2.00487,2.00487 0 0,0 1.43333,85.0392 " style="stroke:rgb(0,0,0);stroke-width:0.1;fill:none" />
  <path d="M1.43333,85.0392 L1.43333,138.82" style="stroke:rgb(0,0,0);stroke-width:0.1;fill:none" />
  <ellipse cx="22.6348" cy="104.236" rx="11.2774" ry="11.2774" style="stroke:rgb(0,0,0);stroke-width:0.1;fill:none;"/>
  <path d="M23.5268,128.795 L23.5268,134.309" style="stroke:rgb(0,0,0);stroke-width:0.1;fill:none" />
  <path d="M35.5764,128.795 L35.5764,134.309" style="stroke:rgb(0,0,0);stroke-width:0.1;fill:none" />
  <path d="M23.5268,128.795 L35.5764,128.795" style="stroke:rgb(0,0,0);stroke-width:0.1;fill:none" />
  <path d="M16.119,134.309 L23.5268,134.309" style="stroke:rgb(0,0,0);stroke-width:0.1;fill:none" />
  <path d="M45.1896,134.309 L45.1896,126.49" style="stroke:rgb(0,0,0);stroke-width:0.1;fill:none" />
  <path d="M45.1896,126.49 L43.8864,126.49" style="stroke:rgb(0,0,0);stroke-width:0.1;fill:none" />
  <path d="M43.8864,126.49 L43.8864,123.883" style="stroke:rgb(0,0,0);stroke-width:0.1;fill:none" />
  <path d="M43.8864,123.883 L45.1896,123.883" style="stroke:rgb(0,0,0);stroke-width:0.1;fill:none" />
  <path d="M45.1896,123.883 L45.1896,122.28" style="stroke:rgb(0,0,0);stroke-width:0.1;fill:none" />
  <path d="M45.1896,122.28 L48.1969,122.28" style="stroke:rgb(0,0,0);stroke-width:0.1;fill:none" />
  <path d="M48.1969,122.28 L48.1969,123.883" style="stroke:rgb(0,0,0);stroke-width:0.1;fill:none" />
  <path d="M48.1969,123.883 L49.5,123.883" style="stroke:rgb(0,0,0);stroke-width:0.1;fill:none" />
  <path d="M49.5,123.883 L49.5,126.49" style="stroke:rgb(0,0,0);stroke-width:0.1;fill:none" />
  <path d="M49.5,126.49 L48.1969,126.49" style="stroke:rgb(0,0,0);stroke-width:0.1;fill:none" />
  <path d="M48.1969,126.49 L48.1969,134.309" style="stroke:rgb(0,0,0);stroke-width:0.1;fill:none" />
  <path d="M35.5764,134.309 L45.1896,134.309" style="stroke:rgb(0,0,0);stroke-width:0.1;fill:none" />
  <path d="M66.7419,134.309 L66.7419,138.82" style="stroke:rgb(0,0,0);stroke-width:0.1;fill:none" />
  <path d="M66.7419,138.82 L74.7613,138.82" style="stroke:rgb(0,0,0);stroke-width:0.1;fill:none" />
  <path d="M48.1969,134.309 L66.7419,134.309" style="stroke:rgb(0,0,0);stroke-width:0.1;fill:none" />
  <ellipse cx="65.7394" cy="101.279" rx="1.45353" ry="1.45353" style="stroke:rgb(0,0,0);stroke-width:0.1;fill:none;"/>
  <ellipse cx="65.7394" cy="107.193" rx="1.45353" ry="1.45353" style="stroke:rgb(0,0,0);stroke-width:0.1;fill:none;"/>
  <ellipse cx="22.6348" cy="30.8075" rx="1.45353" ry="1.45353" style="stroke:rgb(0,0,0);stroke-width:0.1;fill:none;"/>
  <ellipse cx="22.6348" cy="61.8829" rx="1.45353" ry="1.45353" style="stroke:rgb(0,0,0);stroke-width:0.1;fill:none;"/>
  <ellipse cx="9.17874" cy="54.1141" rx="1.45353" ry="1.45353" style="stroke:rgb(0,0,0);stroke-width:0.1;fill:none;"/>
  <ellipse cx="9.17874" cy="38.5764" rx="1.45353" ry="1.45353" style="stroke:rgb(0,0,0);stroke-width:0.1;fill:none;"/>
  <ellipse cx="70.7516" cy="30.3063" rx="1.45353" ry="1.45353" style="stroke:rgb(0,0,0);stroke-width:0.1;fill:none;"/>
  <ellipse cx="7.09709" cy="30.8075" rx="1.45353" ry="1.45353" style="stroke:rgb(0,0,0);stroke-width:0.1;fill:none;"/>
  <ellipse cx="38.1725" cy="30.8075" rx="1.45353" ry="1.45353" style="stroke:rgb(0,0,0);stroke-width:0.1;fill:none;"/>
  <ellipse cx="38.1725" cy="61.8829" rx="1.45353" ry="1.45353" style="stroke:rgb(0,0,0);stroke-width:0.1;fill:none;"/>
  <ellipse cx="7.09709" cy="61.8829" rx="1.45353" ry="1.45353" style="stroke:rgb(0,0,0);stroke-width:0.1;fill:none;"/>
  <path d="M74.7613,27.1486 A2.00487,2.00487 0 0,0 72.7565,25.1438 " style="stroke:rgb(0,0,0);stroke-width:0.1;fill:none" />
  <path d="M3.4382,25.1438 L72.7565,25.1438" style="stroke:rgb(0,0,0);stroke-width:0.1;fill:none" />
  <ellipse cx="15.6178" cy="36.3209" rx="1.45353" ry="1.45353" style="stroke:rgb(0,0,0);stroke-width:0.1;fill:none;"/>
  <ellipse cx="15.6178" cy="56.3696" rx="1.45353" ry="1.45353" style="stroke:rgb(0,0,0);stroke-width:0.1;fill:none;"/>
  <ellipse cx="44.6883" cy="36.3209" rx="1.45353" ry="1.45353" style="stroke:rgb(0,0,0);stroke-width:0.1;fill:none;"/>
  <ellipse cx="44.6883" cy="56.3696" rx="1.45353" ry="1.45353" style="stroke:rgb(0,0,0);stroke-width:0.1;fill:none;"/>
  <path d="M3.4382,25.1438 A2.00487,2.00487 0 0,0 1.43333,27.1486 " style="stroke:rgb(0,0,0);stroke-width:0.1;fill:none" />
  <ellipse cx="70.7516" cy="62.3842" rx="1.45353" ry="1.45353" style="stroke:rgb(0,0,0);stroke-width:0.1;fill:none;"/>
  <path d="M1.43333,27.1486 L1.43333,76.4182" style="stroke:rgb(0,0,0);stroke-width:0.1;fill:none" />
  <ellipse cx="22.6348" cy="46.3452" rx="8.47056" ry="8.47056" style="stroke:rgb(0,0,0);stroke-width:0.1;fill:none;"/>
  <path d="M20.3436,70.9048 L20.3436,76.4182" style="stroke:rgb(0,0,0);stroke-width:0.1;fill:none" />
  <path d="M38.7596,70.9048 L38.7596,76.4182" style="stroke:rgb(0,0,0);stroke-width:0.1;fill:none" />
  <path d="M38.7596,76.4182 L74.7613,76.4182" style="stroke:rgb(0,0,0);stroke-width:0.1;fill:none" />
  <path d="M20.3436,70.9048 L38.7596,70.9048" style="stroke:rgb(0,0,0);stroke-width:0.1;fill:none" />
  <path d="M1.43333,76.4182 L20.3436,76.4182" style="stroke:rgb(0,0,0);stroke-width:0.1;fill:none" />
  <path d="M59.8251,44.4406 L74.7613,44.4406" style="stroke:rgb(0,0,0);stroke-width:0.1;fill:none" />
  <path d="M74.7613,27.1486 L74.7613,44.4406" style="stroke:rgb(0,0,0);stroke-width:0.1;fill:none" />
  <path d="M74.7613,48.2498 L59.8251,48.2498" style="stroke:rgb(0,0,0);stroke-width:0.1;fill:none" />
  <path d="M74.7613,48.2498 L74.7613,76.4182" style="stroke:rgb(0,0,0);stroke-width:0.1;fill:none" />
  <path d="M59.8251,48.2498 L59.8251,44.4406" style="stroke:rgb(0,0,0);stroke-width:0.1;fill:none" />
  <ellipse cx="65.7394" cy="43.388" rx="1.45353" ry="1.45353" style="stroke:rgb(0,0,0);stroke-width:0.1;fill:none;"/>
  <ellipse cx="65.7394" cy="49.3024" rx="1.45353" ry="1.45353" style="stroke:rgb(0,0,0);stroke-width:0.1;fill:none;"/>
  <ellipse cx="102.829" cy="90.9535" rx="1.45353" ry="1.45353" style="stroke:rgb(0,0,0);stroke-width:0.1;fill:none;"/>
  <ellipse cx="102.829" cy="122.029" rx="1.45353" ry="1.45353" style="stroke:rgb(0,0,0);stroke-width:0.1;fill:none;"/>
  <ellipse cx="89.3734" cy="114.26" rx="1.45353" ry="1.45353" style="stroke:rgb(0,0,0);stroke-width:0.1;fill:none;"/>
  <ellipse cx="89.3734" cy="98.7224" rx="1.45353" ry="1.45353" style="stroke:rgb(0,0,0);stroke-width:0.1;fill:none;"/>
  <ellipse cx="150.946" cy="90.4523" rx="1.45353" ry="1.45353" style="stroke:rgb(0,0,0);stroke-width:0.1;fill:none;"/>
  <ellipse cx="87.2918" cy="90.9535" rx="1.45353" ry="1.45353" style="stroke:rgb(0,0,0);stroke-width:0.1;fill:none;"/>
  <ellipse cx="118.367" cy="90.9535" rx="1.45353" ry="1.45353" style="stroke:rgb(0,0,0);stroke-width:0.1;fill:none;"/>
  <ellipse cx="118.367" cy="122.029" rx="1.45353" ry="1.45353" style="stroke:rgb(0,0,0);stroke-width:0.1;fill:none;"/>
  <ellipse cx="87.2918" cy="122.029" rx="1.45353" ry="1.45353" style="stroke:rgb(0,0,0);stroke-width:0.1;fill:none;"/>
  <path d="M154.956,87.2946 A2.00487,2.00487 0 0,0 152.951,85.2898 " style="stroke:rgb(0,0,0);stroke-width:0.1;fill:none" />
  <path d="M154.956,87.2946 L154.956,101.354" style="stroke:rgb(0,0,0);stroke-width:0.1;fill:none" />
  <path d="M83.6329,85.2898 A2.00487,2.00487 0 0,0 81.628,87.2946 " style="stroke:rgb(0,0,0);stroke-width:0.1;fill:none" />
  <ellipse cx="150.946" cy="122.53" rx="1.45353" ry="1.45353" style="stroke:rgb(0,0,0);stroke-width:0.1;fill:none;"/>
  <path d="M81.628,136.564 L81.628,87.2946" style="stroke:rgb(0,0,0);stroke-width:0.1;fill:none" />
  <path d="M154.956,111.629 L154.956,136.564" style="stroke:rgb(0,0,0);stroke-width:0.1;fill:none" />
  <path d="M111.45,90.3019 L111.45,101.354" style="stroke:rgb(0,0,0);stroke-width:0.1;fill:none" />
  <path d="M116.463,85.2898 A5.01217,5.01217 0 0,0 111.45,90.3019 " style="stroke:rgb(0,0,0);stroke-width:0.1;fill:none" />
  <path d="M108.042,89.2995 A4.00973,4.00973 0 0,0 104.032,85.2898 " style="stroke:rgb(0,0,0);stroke-width:0.1;fill:none" />
  <path d="M116.463,85.2898 L152.951,85.2898" style="stroke:rgb(0,0,0);stroke-width:0.1;fill:none" />
  <path d="M83.6329,85.2898 L104.032,85.2898" style="stroke:rgb(0,0,0);stroke-width:0.1;fill:none" />
  <path d="M108.042,89.2995 L108.042,99.8145" style="stroke:rgb(0,0,0);stroke-width:0.1;fill:none" />
  <path d="M108.044,99.8163 A8.47056,8.47056 0 1,0 106.675,114.039 " style="stroke:rgb(0,0,0);stroke-width:0.1;fill:none" />
  <path d="M108.042,116.516 L108.042,131.051" style="stroke:rgb(0,0,0);stroke-width:0.1;fill:none" />
  <path d="M111.45,111.629 L111.45,131.051" style="stroke:rgb(0,0,0);stroke-width:0.1;fill:none" />
  <path d="M108.042,116.516 A3.06363,3.06363 0 0,0 106.675,114.039 " style="stroke:rgb(0,0,0);stroke-width:0.1;fill:none" />
  <path d="M123.329,93.7757 L126.437,93.7757" style="stroke:rgb(0,0,0);stroke-width:0.1;fill:none" />
  <path d="M121.775,96.4669 L123.329,93.7757" style="stroke:rgb(0,0,0);stroke-width:0.1;fill:none" />
  <path d="M126.437,93.7757 L127.991,96.4669" style="stroke:rgb(0,0,0);stroke-width:0.1;fill:none" />
  <path d="M127.991,96.4669 L126.437,99.1581" style="stroke:rgb(0,0,0);stroke-width:0.1;fill:none" />
  <path d="M126.437,99.1581 L123.329,99.1581" style="stroke:rgb(0,0,0);stroke-width:0.1;fill:none" />
  <path d="M123.329,99.1581 L121.775,96.4669" style="stroke:rgb(0,0,0);stroke-width:0.1;fill:none" />
  <path d="M94.2587,93.7757 L97.3662,93.7757" style="stroke:rgb(0,0,0);stroke-width:0.1;fill:none" />
  <path d="M92.7049,96.4669 L94.2587,93.7757" style="stroke:rgb(0,0,0);stroke-width:0.1;fill:none" />
  <path d="M97.3662,93.7757 L98.92,96.4669" style="stroke:rgb(0,0,0);stroke-width:0.1;fill:none" />
  <path d="M98.92,96.4669 L97.3662,99.1581" style="stroke:rgb(0,0,0);stroke-width:0.1;fill:none" />
  <path d="M97.3662,99.1581 L94.2587,99.1581" style="stroke:rgb(0,0,0);stroke-width:0.1;fill:none" />
  <path d="M94.2587,99.1581 L92.7049,96.4669" style="stroke:rgb(0,0,0);stroke-width:0.1;fill:none" />
  <path d="M94.2587,113.824 L97.3662,113.824" style="stroke:rgb(0,0,0);stroke-width:0.1;fill:none" />
  <path d="M92.7049,116.516 L94.2587,113.824" style="stroke:rgb(0,0,0);stroke-width:0.1;fill:none" />
  <path d="M97.3662,113.824 L98.92,116.516" style="stroke:rgb(0,0,0);stroke-width:0.1;fill:none" />
  <path d="M98.92,116.516 L97.3662,119.207" style="stroke:rgb(0,0,0);stroke-width:0.1;fill:none" />
  <path d="M97.3662,119.207 L94.2587,119.207" style="stroke:rgb(0,0,0);stroke-width:0.1;fill:none" />
  <path d="M94.2587,119.207 L92.7049,116.516" style="stroke:rgb(0,0,0);stroke-width:0.1;fill:none" />
  <path d="M123.329,113.824 L126.437,113.824" style="stroke:rgb(0,0,0);stroke-width:0.1;fill:none" />
  <path d="M121.775,116.516 L123.329,113.824" style="stroke:rgb(0,0,0);stroke-width:0.1;fill:none" />
  <path d="M126.437,113.824 L127.991,116.516" style="stroke:rgb(0,0,0);stroke-width:0.1;fill:none" />
  <path d="M127.991,116.516 L126.437,119.207" style="stroke:rgb(0,0,0);stroke-width:0.1;fill:none" />
  <path d="M126.437,119.207 L123.329,119.207" style="stroke:rgb(0,0,0);stroke-width:0.1;fill:none" />
  <path d="M123.329,119.207 L121.775,116.516" style="stroke:rgb(0,0,0);stroke-width:0.1;fill:none" />
  <path d="M99.6181,136.564 L99.6181,131.051" style="stroke:rgb(0,0,0);stroke-width:0.1;fill:none" />
  <path d="M99.6181,131.051 L108.042,131.051" style="stroke:rgb(0,0,0);stroke-width:0.1;fill:none" />
  <path d="M81.628,136.564 L99.6181,136.564" style="stroke:rgb(0,0,0);stroke-width:0.1;fill:none" />
  <path d="M119.874,131.051 L119.874,136.564" style="stroke:rgb(0,0,0);stroke-width:0.1;fill:none" />
  <path d="M119.874,136.564 L154.956,136.564" style="stroke:rgb(0,0,0);stroke-width:0.1;fill:none" />
  <path d="M111.45,131.051 L119.874,131.051" style="stroke:rgb(0,0,0);stroke-width:0.1;fill:none" />
  <path d="M111.45,101.354 L154.956,101.354" style="stroke:rgb(0,0,0);stroke-width:0.1;fill:none" />
  <path d="M111.45,111.629 L154.956,111.629" style="stroke:rgb(0,0,0);stroke-width:0.1;fill:none" />
  <path d="M116.864,101.479 A1.00243,1.00243 0 0,0 115.861,102.481 " style="stroke:rgb(0,0,0);stroke-width:0.1;fill:none" />
  <path d="M115.861,110.501 A1.00243,1.00243 0 0,0 116.864,111.503 " style="stroke:rgb(0,0,0);stroke-width:0.1;fill:none" />
  <path d="M115.861,102.481 L115.861,110.501" style="stroke:rgb(0,0,0);stroke-width:0.1;fill:none" />
  <path d="M137.915,102.481 A1.00243,1.00243 0 0,0 136.912,101.479 " style="stroke:rgb(0,0,0);stroke-width:0.1;fill:none" />
  <path d="M136.912,111.503 A1.00243,1.00243 0 0,0 137.915,110.501 " style="stroke:rgb(0,0,0);stroke-width:0.1;fill:none" />
  <path d="M116.864,111.503 L136.912,111.503" style="stroke:rgb(0,0,0);stroke-width:0.1;fill:none" />
  <path d="M137.915,110.501 L137.915,102.481" style="stroke:rgb(0,0,0);stroke-width:0.1;fill:none" />
  <path d="M136.912,101.479 L116.864,101.479" style="stroke:rgb(0,0,0);stroke-width:0.1;fill:none" />
  <ellipse cx="102.829" cy="44.0897" rx="8.47056" ry="8.47056" style="stroke:rgb(0,0,0);stroke-width:0.1;fill:none;"/>
  <ellipse cx="150.946" cy="28.0508" rx="1.45353" ry="1.45353" style="stroke:rgb(0,0,0);stroke-width:0.1;fill:none;"/>
  <ellipse cx="150.946" cy="60.1287" rx="1.45353" ry="1.45353" style="stroke:rgb(0,0,0);stroke-width:0.1;fill:none;"/>
  <ellipse cx="87.2918" cy="28.552" rx="1.45353" ry="1.45353" style="stroke:rgb(0,0,0);stroke-width:0.1;fill:none;"/>
  <ellipse cx="118.367" cy="28.552" rx="1.45353" ry="1.45353" style="stroke:rgb(0,0,0);stroke-width:0.1;fill:none;"/>
  <ellipse cx="118.367" cy="59.6275" rx="1.45353" ry="1.45353" style="stroke:rgb(0,0,0);stroke-width:0.1;fill:none;"/>
  <ellipse cx="87.2918" cy="59.6275" rx="1.45353" ry="1.45353" style="stroke:rgb(0,0,0);stroke-width:0.1;fill:none;"/>
  <path d="M154.956,24.8931 A2.00487,2.00487 0 0,0 152.951,22.8883 " style="stroke:rgb(0,0,0);stroke-width:0.1;fill:none" />
  <path d="M83.6329,22.8883 L152.951,22.8883" style="stroke:rgb(0,0,0);stroke-width:0.1;fill:none" />
  <ellipse cx="102.829" cy="28.552" rx="1.45353" ry="1.45353" style="stroke:rgb(0,0,0);stroke-width:0.1;fill:none;"/>
  <ellipse cx="89.3734" cy="36.3209" rx="1.45353" ry="1.45353" style="stroke:rgb(0,0,0);stroke-width:0.1;fill:none;"/>
  <ellipse cx="89.3734" cy="51.8586" rx="1.45353" ry="1.45353" style="stroke:rgb(0,0,0);stroke-width:0.1;fill:none;"/>
  <ellipse cx="102.829" cy="59.6275" rx="1.45353" ry="1.45353" style="stroke:rgb(0,0,0);stroke-width:0.1;fill:none;"/>
  <ellipse cx="95.8124" cy="34.0654" rx="1.45353" ry="1.45353" style="stroke:rgb(0,0,0);stroke-width:0.1;fill:none;"/>
  <ellipse cx="95.8124" cy="54.1141" rx="1.45353" ry="1.45353" style="stroke:rgb(0,0,0);stroke-width:0.1;fill:none;"/>
  <ellipse cx="124.883" cy="34.0654" rx="1.45353" ry="1.45353" style="stroke:rgb(0,0,0);stroke-width:0.1;fill:none;"/>
  <ellipse cx="124.883" cy="54.1141" rx="1.45353" ry="1.45353" style="stroke:rgb(0,0,0);stroke-width:0.1;fill:none;"/>
  <path d="M89.7978,74.1628 L93.3064,74.1628" style="stroke:rgb(0,0,0);stroke-width:0.1;fill:none" />
  <path d="M93.3064,74.1628 L93.3064,66.3438" style="stroke:rgb(0,0,0);stroke-width:0.1;fill:none" />
  <path d="M93.3064,66.3438 L92.0032,66.3438" style="stroke:rgb(0,0,0);stroke-width:0.1;fill:none" />
  <path d="M92.0032,66.3438 L92.0032,63.7374" style="stroke:rgb(0,0,0);stroke-width:0.1;fill:none" />
  <path d="M92.0032,63.7374 L93.3064,63.7374" style="stroke:rgb(0,0,0);stroke-width:0.1;fill:none" />
  <path d="M93.3064,63.7374 L93.3064,62.1335" style="stroke:rgb(0,0,0);stroke-width:0.1;fill:none" />
  <path d="M93.3064,62.1335 L96.3137,62.1335" style="stroke:rgb(0,0,0);stroke-width:0.1;fill:none" />
  <path d="M96.3137,62.1335 L96.3137,63.7374" style="stroke:rgb(0,0,0);stroke-width:0.1;fill:none" />
  <path d="M96.3137,63.7374 L97.6168,63.7374" style="stroke:rgb(0,0,0);stroke-width:0.1;fill:none" />
  <path d="M97.6168,63.7374 L97.6168,66.3438" style="stroke:rgb(0,0,0);stroke-width:0.1;fill:none" />
  <path d="M97.6168,66.3438 L96.3137,66.3438" style="stroke:rgb(0,0,0);stroke-width:0.1;fill:none" />
  <path d="M96.3137,66.3438 L96.3137,74.1628" style="stroke:rgb(0,0,0);stroke-width:0.1;fill:none" />
  <path d="M89.7978,78.6737 L89.7978,74.1628" style="stroke:rgb(0,0,0);stroke-width:0.1;fill:none" />
  <path d="M81.628,78.6737 L89.7978,78.6737" style="stroke:rgb(0,0,0);stroke-width:0.1;fill:none" />
  <path d="M83.6329,22.8883 A2.00487,2.00487 0 0,0 81.628,24.8931 " style="stroke:rgb(0,0,0);stroke-width:0.1;fill:none" />
  <path d="M81.628,78.6737 L81.628,24.8932" style="stroke:rgb(0,0,0);stroke-width:0.1;fill:none" />
  <path d="M100.538,68.6494 L100.538,74.1628" style="stroke:rgb(0,0,0);stroke-width:0.1;fill:none" />
  <path d="M118.954,68.6494 L118.954,74.1628" style="stroke:rgb(0,0,0);stroke-width:0.1;fill:none" />
  <path d="M100.538,68.6494 L118.954,68.6494" style="stroke:rgb(0,0,0);stroke-width:0.1;fill:none" />
  <path d="M96.3137,74.1628 L100.538,74.1628" style="stroke:rgb(0,0,0);stroke-width:0.1;fill:none" />
  <path d="M125.384,74.1628 L125.384,66.3438" style="stroke:rgb(0,0,0);stroke-width:0.1;fill:none" />
  <path d="M125.384,66.3438 L124.081,66.3438" style="stroke:rgb(0,0,0);stroke-width:0.1;fill:none" />
  <path d="M124.081,66.3438 L124.081,63.7374" style="stroke:rgb(0,0,0);stroke-width:0.1;fill:none" />
  <path d="M124.081,63.7374 L125.384,63.7374" style="stroke:rgb(0,0,0);stroke-width:0.1;fill:none" />
  <path d="M125.384,63.7374 L125.384,62.1335" style="stroke:rgb(0,0,0);stroke-width:0.1;fill:none" />
  <path d="M125.384,62.1335 L128.392,62.1335" style="stroke:rgb(0,0,0);stroke-width:0.1;fill:none" />
  <path d="M128.392,62.1335 L128.392,63.7374" style="stroke:rgb(0,0,0);stroke-width:0.1;fill:none" />
  <path d="M128.392,63.7374 L129.695,63.7374" style="stroke:rgb(0,0,0);stroke-width:0.1;fill:none" />
  <path d="M129.695,63.7374 L129.695,66.3438" style="stroke:rgb(0,0,0);stroke-width:0.1;fill:none" />
  <path d="M129.695,66.3438 L128.392,66.3438" style="stroke:rgb(0,0,0);stroke-width:0.1;fill:none" />
  <path d="M128.392,66.3438 L128.392,74.1628" style="stroke:rgb(0,0,0);stroke-width:0.1;fill:none" />
  <path d="M118.954,74.1628 L125.384,74.1628" style="stroke:rgb(0,0,0);stroke-width:0.1;fill:none" />
  <path d="M146.937,74.1628 L146.937,78.6737" style="stroke:rgb(0,0,0);stroke-width:0.1;fill:none" />
  <path d="M146.937,78.6737 L154.956,78.6737" style="stroke:rgb(0,0,0);stroke-width:0.1;fill:none" />
  <path d="M128.392,74.1628 L146.937,74.1628" style="stroke:rgb(0,0,0);stroke-width:0.1;fill:none" />
  <path d="M140.02,42.1851 L154.956,42.1851" style="stroke:rgb(0,0,0);stroke-width:0.1;fill:none" />
  <path d="M154.956,24.8931 L154.956,42.1851" style="stroke:rgb(0,0,0);stroke-width:0.1;fill:none" />
  <path d="M154.956,45.9944 L140.02,45.9944" style="stroke:rgb(0,0,0);stroke-width:0.1;fill:none" />
  <path d="M154.956,45.9944 L154.956,78.6737" style="stroke:rgb(0,0,0);stroke-width:0.1;fill:none" />
  <path d="M140.02,45.9944 L140.02,42.1851" style="stroke:rgb(0,0,0);stroke-width:0.1;fill:none" />
  <ellipse cx="145.934" cy="47.0469" rx="1.45353" ry="1.45353" style="stroke:rgb(0,0,0);stroke-width:0.1;fill:none;"/>
  <ellipse cx="145.934" cy="41.1326" rx="1.45353" ry="1.45353" style="stroke:rgb(0,0,0);stroke-width:0.1;fill:none;"/>
  <path d="M1.43333,15.0342 L9.60317,15.0342" style="stroke:rgb(0,0,0);stroke-width:0.1;fill:none" />
  <path d="M9.60317,15.0342 L1.43333,15.0342" style="stroke:rgb(0,0,0);stroke-width:0.1;fill:none" />
  <path d="M9.60317,20.5476 L9.60317,15.0342" style="stroke:rgb(0,0,0);stroke-width:0.1;fill:none" />
  <ellipse cx="14.6153" cy="17.7909" rx="1.45353" ry="1.45353" style="stroke:rgb(0,0,0);stroke-width:0.1;fill:none;"/>
  <ellipse cx="29.5516" cy="7.92696" rx="5.51338" ry="5.51338" style="stroke:rgb(0,0,0);stroke-width:0.1;fill:none;"/>
  <ellipse cx="46.6932" cy="17.7909" rx="1.45353" ry="1.45353" style="stroke:rgb(0,0,0);stroke-width:0.1;fill:none;"/>
  <path d="M66.7419,15.0342 L66.7419,20.5476" style="stroke:rgb(0,0,0);stroke-width:0.1;fill:none" />
  <path d="M74.7613,15.0342 L66.7419,15.0342" style="stroke:rgb(0,0,0);stroke-width:0.1;fill:none" />
  <path d="M9.60317,20.5476 L66.7419,20.5476" style="stroke:rgb(0,0,0);stroke-width:0.1;fill:none" />
  <path d="M74.7613,6.33309 L66.7419,6.33309" style="stroke:rgb(0,0,0);stroke-width:0.1;fill:none" />
  <path d="M1.43333,6.33309 L9.60317,6.33309" style="stroke:rgb(0,0,0);stroke-width:0.1;fill:none" />
  <path d="M1.43333,15.0342 L1.43333,6.33309" style="stroke:rgb(0,0,0);stroke-width:0.1;fill:none" />
  <path d="M74.7613,15.0342 L74.7613,6.33309" style="stroke:rgb(0,0,0);stroke-width:0.1;fill:none" />
  <ellipse cx="14.6153" cy="3.5764" rx="1.45353" ry="1.45353" style="stroke:rgb(0,0,0);stroke-width:0.1;fill:none;"/>
  <ellipse cx="46.6932" cy="3.5764" rx="1.45353" ry="1.45353" style="stroke:rgb(0,0,0);stroke-width:0.1;fill:none;"/>
  <path d="M9.60317,0.819707 L66.7419,0.819707" style="stroke:rgb(0,0,0);stroke-width:0.1;fill:none" />
  <path d="M66.7419,6.33309 L66.7419,0.819707" style="stroke:rgb(0,0,0);stroke-width:0.1;fill:none" />
  <path d="M9.60317,0.819707 L9.60317,6.33309" style="stroke:rgb(0,0,0);stroke-width:0.1;fill:none" />
</svg>
