<?xml version="1.0" standalone="yes"?>

<svg width="156mm" height="140mm" viewBox="0 0 156 140" version="1.1"
xmlns="http://www.w3.org/2000/svg" style="stroke-linecap:round">
  <ellipse cx="22.6348" cy="88.698" rx="1.45353" ry="1.45353" style="stroke:rgb(0,0,0);stroke-width:0.1;fill:none;"/>
  <ellipse cx="22.6348" cy="119.773" rx="1.45353" ry="1.45353" style="stroke:rgb(0,0,0);stroke-width:0.1;fill:none;"/>
  <ellipse cx="9.17874" cy="112.005" rx="1.45353" ry="1.45353" style="stroke:rgb(0,0,0);stroke-width:0.1;fill:none;"/>
  <ellipse cx="9.17874" cy="96.4669" rx="1.45353" ry="1.45353" style="stroke:rgb(0,0,0);stroke-width:0.1;fill:none;"/>
  <ellipse cx="70.7516" cy="88.1968" rx="1.45353" ry="1.45353" style="stroke:rgb(0,0,0);stroke-width:0.1;fill:none;"/>
  <ellipse cx="70.7516" cy="120.275" rx="1.45353" ry="1.45353" style="stroke:rgb(0,0,0);stroke-width:0.1;fill:none;"/>
  <ellipse cx="7.09709" cy="88.698" rx="1.45353" ry="1.45353" style="stroke:rgb(0,0,0);stroke-width:0.1;fill:none;"/>
  <ellipse cx="38.1725" cy="88.698" rx="1.45353" ry="1.45353" style="stroke:rgb(0,0,0);stroke-width:0.1;fill:none;"/>
  <ellipse cx="38.1725" cy="119.773" rx="1.45353" ry="1.45353" style="stroke:rgb(0,0,0);stroke-width:0.1;fill:none;"/>
  <ellipse cx="7.09709" cy="119.773" rx="1.45353" ry="1.45353" style="stroke:rgb(0,0,0);stroke-width:0.1;fill:none;"/>
  <path d="M74.7613,85.0392 A2.00487,2.00487 0 0,0 72.7565,83.0343 " style="stroke:rgb(0,0,0);stroke-width:0.1;fill:none" />
  <path d="M3.4382,83.0343 L72.7565,83.0343" style="stroke:rgb(0,0,0);stroke-width:0.1;fill:none" />
  <path d="M9.60317,134.309 L13.1117,134.309" style="stroke:rgb(0,0,0);stroke-width:0.1;fill:none" />
  <path d="M13.1117,134.309 L13.1117,126.49" style="stroke:rgb(0,0,0);stroke-width:0.1;fill:none" />
  <path d="M13.1117,126.49 L11.8085,126.49" style="stroke:rgb(0,0,0);stroke-width:0.1;fill:none" />
  <path d="M11.8085,126.49 L11.8085,123.883" style="stroke:rgb(0,0,0);stroke-width:0.1;fill:none" />
  <path d="M11.8085,123.883 L13.1117,123.883" style="stroke:rgb(0,0,0);stroke-width:0.1;fill:none" />
  <path d="M13.1117,123.883 L13.1117,122.28" style="stroke:rgb(0,0,0);stroke-width:0.1;fill:none" />
  <path d="M13.1117,122.28 L16.119,122.28" style="stroke:rgb(0,0,0);stroke-width:0.1;fill:none" />
  <path d="M16.119,122.28 L16.119,123.883" style="stroke:rgb(0,0,0);stroke-width:0.1;fill:none" />
  <path d="M16.119,123.883 L17.4221,123.883" style="stroke:rgb(0,0,0);stroke-width:0.1;fill:none" />
  <path d="M17.4221,123.883 L17.4221,126.49" style="stroke:rgb(0,0,0);stroke-width:0.1;fill:none" />
  <path d="M17.4221,126.49 L16.119,126.49" style="stroke:rgb(0,0,0);stroke-width:0.1;fill:none" />
  <path d="M16.119,126.49 L16.119,134.309" style="stroke:rgb(0,0,0);stroke-width:0.1;fill:none" />
  <path d="M9.60317,138.82 L9.60317,134.309" style="stroke:rgb(0,0,0);stroke-width:0.1;fill:none" />
  <path d="M1.43333,138.82 L9.60317,138.82" style="stroke:rgb(0,0,0);stroke-width:0.1;fill:none" />
  <path d="M74.7613,85.0392 L74.7613,138.82" style="stroke:rgb(0,0,0);stroke-width:0.1;fill:none" />
  <path d="M3.4382,83.0343 A2.00487,2.00487 0 0,0 1.43333,85.0392 " style="stroke:rgb(0,0,0);stroke-width:0.1;fill:none" />
  <path d="M1.43333,85.0392 L1.43333,138.82" style="stroke:rgb(0,0,0);stroke-width:0.1;fill:none" />
  <ellipse cx="22.6348" cy="104.236" rx="11.2774" ry="11.2774" style="stroke:rgb(0,0,0);stroke-width:0.1;fill:none;"/>
  <path d="M23.5268,128.795 L23.5268,134.309" style="stroke:rgb(0,0,0);stroke-width:0.1;fill:none" />
  <path d="M35.5764,128.795 L35.5764,134.309" style="stroke:rgb(0,0,0);stroke-width:0.1;fill:none" />
  <path d="M23.5268,128.795 L35.5764,128.795" style="stroke:rgb(0,0,0);stroke-width:0.1;fill:none" />
  <path d="M16.119,134.309 L23.5268,134.309" style="stroke:rgb(0,0,0);stroke-width:0.1;fill:none" />
  <path d="M45.1896,134.309 L45.1896,126.49" style="stroke:rgb(0,0,0);stroke-width:0.1;fill:none" />
  <path d="M45.1896,126.49 L43.8864,126.49" style="stroke:rgb(0,0,0);stroke-width:0.1;fill:none" />
  <path d="M43.8864,126.49 L43.8864,123.883" style="stroke:rgb(0,0,0);stroke-width:0.1;fill:none" />
  <path d="M43.8864,123.883 L45.1896,123.883" style="stroke:rgb(0,0,0);stroke-width:0.1;fill:none" />
  <path d="M45.1896,123.883 L45.1896,122.28" style="stroke:rgb(0,0,0);stroke-width:0.1;fill:none" />
  <path d="M45.1896,122.28 L48.1969,122.28" style="stroke:rgb(0,0,0);stroke-width:0.1;fill:none" />
  <path d="M48.1969,122.28 L48.1969,123.883" style="stroke:rgb(0,0,0);stroke-width:0.1;fill:none" />
  <path d="M48.1969,123.883 L49.5,123.883" style="stroke:rgb(0,0,0);stroke-width:0.1;fill:none" />
  <path d="M49.5,123.883 L49.5,126.49" style="stroke:rgb(0,0,0);stroke-width:0.1;fill:none" />
  <path d="M49.5,126.49 L48.1969,126.49" style="stroke:rgb(0,0,0);stroke-width:0.1;fill:none" />
  <path d="M48.1969,126.49 L48.1969,134.309" style="stroke:rgb(0,0,0);stroke-width:0.1;fill:none" />
  <path d="M35.5764,134.309 L45.1896,134.309" style="stroke:rgb(0,0,0);stroke-width:0.1;fill:none" />
  <path d="M66.7419,134.309 L66.7419,138.82" style="stroke:rgb(0,0,0);stroke-width:0.1;fill:none" />
  <path d="M66.7419,138.82 L74.7613,138.82" style="stroke:rgb(0,0,0);stroke-width:0.1;fill:none" />
  <path d="M48.1969,134.309 L66.7419,134.309" style="stroke:rgb(0,0,0);stroke-width:0.1;fill:none" />
  <ellipse cx="68.7467" cy="101.279" rx="1.45353" ry="1.45353" style="stroke:rgb(0,0,0);stroke-width:0.1;fill:none;"/>
  <ellipse cx="68.7467" cy="107.193" rx="1.45353" ry="1.45353" style="stroke:rgb(0,0,0);stroke-width:0.1;fill:none;"/>
  <ellipse cx="102.829" cy="90.9535" rx="1.45353" ry="1.45353" style="stroke:rgb(0,0,0);stroke-width:0.1;fill:none;"/>
  <ellipse cx="102.829" cy="122.029" rx="1.45353" ry="1.45353" style="stroke:rgb(0,0,0);stroke-width:0.1;fill:none;"/>
  <ellipse cx="89.3734" cy="114.26" rx="1.45353" ry="1.45353" style="stroke:rgb(0,0,0);stroke-width:0.1;fill:none;"/>
  <ellipse cx="89.3734" cy="98.7224" rx="1.45353" ry="1.45353" style="stroke:rgb(0,0,0);stroke-width:0.1;fill:none;"/>
  <ellipse cx="150.946" cy="90.4523" rx="1.45353" ry="1.45353" style="stroke:rgb(0,0,0);stroke-width:0.1;fill:none;"/>
  <ellipse cx="87.2918" cy="90.9535" rx="1.45353" ry="1.45353" style="stroke:rgb(0,0,0);stroke-width:0.1;fill:none;"/>
  <ellipse cx="118.367" cy="90.9535" rx="1.45353" ry="1.45353" style="stroke:rgb(0,0,0);stroke-width:0.1;fill:none;"/>
  <ellipse cx="118.367" cy="122.029" rx="1.45353" ry="1.45353" style="stroke:rgb(0,0,0);stroke-width:0.1;fill:none;"/>
  <ellipse cx="87.2918" cy="122.029" rx="1.45353" ry="1.45353" style="stroke:rgb(0,0,0);stroke-width:0.1;fill:none;"/>
  <path d="M154.956,87.2946 A2.00487,2.00487 0 0,0 152.951,85.2898 " style="stroke:rgb(0,0,0);stroke-width:0.1;fill:none" />
  <path d="M83.6329,85.2898 L152.951,85.2898" style="stroke:rgb(0,0,0);stroke-width:0.1;fill:none" />
  <ellipse cx="95.8124" cy="96.4669" rx="1.45353" ry="1.45353" style="stroke:rgb(0,0,0);stroke-width:0.1;fill:none;"/>
  <ellipse cx="95.8124" cy="116.516" rx="1.45353" ry="1.45353" style="stroke:rgb(0,0,0);stroke-width:0.1;fill:none;"/>
  <ellipse cx="124.883" cy="96.4669" rx="1.45353" ry="1.45353" style="stroke:rgb(0,0,0);stroke-width:0.1;fill:none;"/>
  <ellipse cx="124.883" cy="116.516" rx="1.45353" ry="1.45353" style="stroke:rgb(0,0,0);stroke-width:0.1;fill:none;"/>
  <path d="M83.6329,85.2898 A2.00487,2.00487 0 0,0 81.628,87.2946 " style="stroke:rgb(0,0,0);stroke-width:0.1;fill:none" />
  <ellipse cx="150.946" cy="122.53" rx="1.45353" ry="1.45353" style="stroke:rgb(0,0,0);stroke-width:0.1;fill:none;"/>
  <path d="M81.628,87.2946 L81.628,136.564" style="stroke:rgb(0,0,0);stroke-width:0.1;fill:none" />
  <ellipse cx="102.829" cy="106.491" rx="8.47056" ry="8.47056" style="stroke:rgb(0,0,0);stroke-width:0.1;fill:none;"/>
  <path d="M100.538,131.051 L100.538,136.564" style="stroke:rgb(0,0,0);stroke-width:0.1;fill:none" />
  <path d="M118.954,131.051 L118.954,136.564" style="stroke:rgb(0,0,0);stroke-width:0.1;fill:none" />
  <path d="M118.954,136.564 L154.956,136.564" style="stroke:rgb(0,0,0);stroke-width:0.1;fill:none" />
  <path d="M100.538,131.051 L118.954,131.051" style="stroke:rgb(0,0,0);stroke-width:0.1;fill:none" />
  <path d="M81.628,136.564 L100.538,136.564" style="stroke:rgb(0,0,0);stroke-width:0.1;fill:none" />
  <ellipse cx="148.941" cy="103.534" rx="1.45353" ry="1.45353" style="stroke:rgb(0,0,0);stroke-width:0.1;fill:none;"/>
  <ellipse cx="148.941" cy="109.448" rx="1.45353" ry="1.45353" style="stroke:rgb(0,0,0);stroke-width:0.1;fill:none;"/>
  <path d="M130.898,103.534 L154.956,103.534" style="stroke:rgb(0,0,0);stroke-width:0.1;fill:none" />
  <path d="M154.956,109.448 L130.898,109.448" style="stroke:rgb(0,0,0);stroke-width:0.1;fill:none" />
  <path d="M130.898,109.448 L130.898,103.534" style="stroke:rgb(0,0,0);stroke-width:0.1;fill:none" />
  <path d="M154.956,87.2946 L154.956,103.534" style="stroke:rgb(0,0,0);stroke-width:0.1;fill:none" />
  <path d="M154.956,109.448 L154.956,136.564" style="stroke:rgb(0,0,0);stroke-width:0.1;fill:none" />
  <ellipse cx="22.6348" cy="30.8075" rx="1.45353" ry="1.45353" style="stroke:rgb(0,0,0);stroke-width:0.1;fill:none;"/>
  <ellipse cx="22.6348" cy="61.8829" rx="1.45353" ry="1.45353" style="stroke:rgb(0,0,0);stroke-width:0.1;fill:none;"/>
  <ellipse cx="9.17874" cy="54.1141" rx="1.45353" ry="1.45353" style="stroke:rgb(0,0,0);stroke-width:0.1;fill:none;"/>
  <ellipse cx="9.17874" cy="38.5764" rx="1.45353" ry="1.45353" style="stroke:rgb(0,0,0);stroke-width:0.1;fill:none;"/>
  <ellipse cx="70.7516" cy="30.3063" rx="1.45353" ry="1.45353" style="stroke:rgb(0,0,0);stroke-width:0.1;fill:none;"/>
  <ellipse cx="7.09709" cy="30.8075" rx="1.45353" ry="1.45353" style="stroke:rgb(0,0,0);stroke-width:0.1;fill:none;"/>
  <ellipse cx="38.1725" cy="30.8075" rx="1.45353" ry="1.45353" style="stroke:rgb(0,0,0);stroke-width:0.1;fill:none;"/>
  <ellipse cx="38.1725" cy="61.8829" rx="1.45353" ry="1.45353" style="stroke:rgb(0,0,0);stroke-width:0.1;fill:none;"/>
  <ellipse cx="7.09709" cy="61.8829" rx="1.45353" ry="1.45353" style="stroke:rgb(0,0,0);stroke-width:0.1;fill:none;"/>
  <path d="M74.7613,27.1486 A2.00487,2.00487 0 0,0 72.7565,25.1438 " style="stroke:rgb(0,0,0);stroke-width:0.1;fill:none" />
  <path d="M74.7613,27.1486 L74.7613,41.2077" style="stroke:rgb(0,0,0);stroke-width:0.1;fill:none" />
  <path d="M3.4382,25.1438 A2.00487,2.00487 0 0,0 1.43333,27.1486 " style="stroke:rgb(0,0,0);stroke-width:0.1;fill:none" />
  <ellipse cx="70.7516" cy="62.3842" rx="1.45353" ry="1.45353" style="stroke:rgb(0,0,0);stroke-width:0.1;fill:none;"/>
  <path d="M1.43333,76.4182 L1.43333,27.1486" style="stroke:rgb(0,0,0);stroke-width:0.1;fill:none" />
  <path d="M74.7613,51.4827 L74.7613,76.4182" style="stroke:rgb(0,0,0);stroke-width:0.1;fill:none" />
  <path d="M36.2679,25.1438 A5.01217,5.01217 0 0,0 31.2557,30.1559 " style="stroke:rgb(0,0,0);stroke-width:0.1;fill:none" />
  <path d="M27.8475,29.1535 A4.00973,4.00973 0 0,0 23.8377,25.1438 " style="stroke:rgb(0,0,0);stroke-width:0.1;fill:none" />
  <path d="M36.2679,25.1438 L72.7565,25.1438" style="stroke:rgb(0,0,0);stroke-width:0.1;fill:none" />
  <path d="M3.4382,25.1438 L23.8377,25.1438" style="stroke:rgb(0,0,0);stroke-width:0.1;fill:none" />
  <path d="M27.8475,29.1535 L27.8475,39.6685" style="stroke:rgb(0,0,0);stroke-width:0.1;fill:none" />
  <path d="M27.8498,39.6703 A8.47056,8.47056 0 1,0 26.4803,53.8925 " style="stroke:rgb(0,0,0);stroke-width:0.1;fill:none" />
  <path d="M27.8475,56.3696 L27.8475,70.9048" style="stroke:rgb(0,0,0);stroke-width:0.1;fill:none" />
  <path d="M27.8475,56.3696 A3.06363,3.06363 0 0,0 26.4803,53.8925 " style="stroke:rgb(0,0,0);stroke-width:0.1;fill:none" />
  <path d="M43.1346,33.6297 L46.2421,33.6297" style="stroke:rgb(0,0,0);stroke-width:0.1;fill:none" />
  <path d="M41.5808,36.3209 L43.1346,33.6297" style="stroke:rgb(0,0,0);stroke-width:0.1;fill:none" />
  <path d="M46.2421,33.6297 L47.7959,36.3209" style="stroke:rgb(0,0,0);stroke-width:0.1;fill:none" />
  <path d="M47.7959,36.3209 L46.2421,39.0121" style="stroke:rgb(0,0,0);stroke-width:0.1;fill:none" />
  <path d="M46.2421,39.0121 L43.1346,39.0121" style="stroke:rgb(0,0,0);stroke-width:0.1;fill:none" />
  <path d="M43.1346,39.0121 L41.5808,36.3209" style="stroke:rgb(0,0,0);stroke-width:0.1;fill:none" />
  <path d="M14.064,33.6297 L17.1715,33.6297" style="stroke:rgb(0,0,0);stroke-width:0.1;fill:none" />
  <path d="M12.5102,36.3209 L14.064,33.6297" style="stroke:rgb(0,0,0);stroke-width:0.1;fill:none" />
  <path d="M17.1715,33.6297 L18.7253,36.3209" style="stroke:rgb(0,0,0);stroke-width:0.1;fill:none" />
  <path d="M18.7253,36.3209 L17.1715,39.0121" style="stroke:rgb(0,0,0);stroke-width:0.1;fill:none" />
  <path d="M17.1715,39.0121 L14.064,39.0121" style="stroke:rgb(0,0,0);stroke-width:0.1;fill:none" />
  <path d="M14.064,39.0121 L12.5102,36.3209" style="stroke:rgb(0,0,0);stroke-width:0.1;fill:none" />
  <path d="M14.064,53.6783 L17.1715,53.6783" style="stroke:rgb(0,0,0);stroke-width:0.1;fill:none" />
  <path d="M12.5102,56.3696 L14.064,53.6783" style="stroke:rgb(0,0,0);stroke-width:0.1;fill:none" />
  <path d="M17.1715,53.6783 L18.7253,56.3696" style="stroke:rgb(0,0,0);stroke-width:0.1;fill:none" />
  <path d="M18.7253,56.3696 L17.1715,59.0608" style="stroke:rgb(0,0,0);stroke-width:0.1;fill:none" />
  <path d="M17.1715,59.0608 L14.064,59.0608" style="stroke:rgb(0,0,0);stroke-width:0.1;fill:none" />
  <path d="M14.064,59.0608 L12.5102,56.3696" style="stroke:rgb(0,0,0);stroke-width:0.1;fill:none" />
  <path d="M43.1346,53.6783 L46.2421,53.6783" style="stroke:rgb(0,0,0);stroke-width:0.1;fill:none" />
  <path d="M41.5808,56.3696 L43.1346,53.6783" style="stroke:rgb(0,0,0);stroke-width:0.1;fill:none" />
  <path d="M46.2421,53.6783 L47.7959,56.3696" style="stroke:rgb(0,0,0);stroke-width:0.1;fill:none" />
  <path d="M47.7959,56.3696 L46.2421,59.0608" style="stroke:rgb(0,0,0);stroke-width:0.1;fill:none" />
  <path d="M46.2421,59.0608 L43.1346,59.0608" style="stroke:rgb(0,0,0);stroke-width:0.1;fill:none" />
  <path d="M43.1346,59.0608 L41.5808,56.3696" style="stroke:rgb(0,0,0);stroke-width:0.1;fill:none" />
  <path d="M19.4234,76.4182 L19.4234,70.9048" style="stroke:rgb(0,0,0);stroke-width:0.1;fill:none" />
  <path d="M19.4234,70.9048 L27.8475,70.9048" style="stroke:rgb(0,0,0);stroke-width:0.1;fill:none" />
  <path d="M1.43333,76.4182 L19.4234,76.4182" style="stroke:rgb(0,0,0);stroke-width:0.1;fill:none" />
  <path d="M39.6798,70.9048 L39.6798,76.4182" style="stroke:rgb(0,0,0);stroke-width:0.1;fill:none" />
  <path d="M39.6798,76.4182 L74.7613,76.4182" style="stroke:rgb(0,0,0);stroke-width:0.1;fill:none" />
  <path d="M31.2557,70.9048 L39.6798,70.9048" style="stroke:rgb(0,0,0);stroke-width:0.1;fill:none" />
  <path d="M36.6689,41.4333 A1.00243,1.00243 0 0,0 35.6664,42.4357 " style="stroke:rgb(0,0,0);stroke-width:0.1;fill:none" />
  <path d="M57.72,42.4357 A1.00243,1.00243 0 0,0 56.7175,41.4333 " style="stroke:rgb(0,0,0);stroke-width:0.1;fill:none" />
  <path d="M56.7175,41.4333 L36.6689,41.4333" style="stroke:rgb(0,0,0);stroke-width:0.1;fill:none" />
  <path d="M56.7175,51.2571 A1.00243,1.00243 0 0,0 57.72,50.2547 " style="stroke:rgb(0,0,0);stroke-width:0.1;fill:none" />
  <path d="M57.72,50.2547 L57.72,42.4357" style="stroke:rgb(0,0,0);stroke-width:0.1;fill:none" />
  <path d="M35.6664,50.2547 A1.00243,1.00243 0 0,0 36.6689,51.2571 " style="stroke:rgb(0,0,0);stroke-width:0.1;fill:none" />
  <path d="M35.6664,42.4357 L35.6664,50.2547" style="stroke:rgb(0,0,0);stroke-width:0.1;fill:none" />
  <path d="M36.6689,51.2571 L56.7175,51.2571" style="stroke:rgb(0,0,0);stroke-width:0.1;fill:none" />
  <path d="M32.6591,51.4827 A1.95492,1.95492 0 0,0 31.2557,53.3623 " style="stroke:rgb(0,0,0);stroke-width:0.1;fill:none" />
  <path d="M32.6591,51.4827 L74.7613,51.4827" style="stroke:rgb(0,0,0);stroke-width:0.1;fill:none" />
  <path d="M31.2557,53.3582 L31.2557,70.9048" style="stroke:rgb(0,0,0);stroke-width:0.1;fill:none" />
  <path d="M31.2557,40.2053 A1.00243,1.00243 0 0,0 32.2582,41.2077 " style="stroke:rgb(0,0,0);stroke-width:0.1;fill:none" />
  <path d="M32.2582,41.2077 L74.7613,41.2077" style="stroke:rgb(0,0,0);stroke-width:0.1;fill:none" />
  <path d="M31.2557,30.1559 L31.2557,40.2053" style="stroke:rgb(0,0,0);stroke-width:0.1;fill:none" />
  <ellipse cx="102.829" cy="44.0897" rx="8.47056" ry="8.47056" style="stroke:rgb(0,0,0);stroke-width:0.1;fill:none;"/>
  <ellipse cx="150.946" cy="28.0508" rx="1.45353" ry="1.45353" style="stroke:rgb(0,0,0);stroke-width:0.1;fill:none;"/>
  <ellipse cx="150.946" cy="60.1287" rx="1.45353" ry="1.45353" style="stroke:rgb(0,0,0);stroke-width:0.1;fill:none;"/>
  <ellipse cx="87.2918" cy="28.552" rx="1.45353" ry="1.45353" style="stroke:rgb(0,0,0);stroke-width:0.1;fill:none;"/>
  <ellipse cx="118.367" cy="28.552" rx="1.45353" ry="1.45353" style="stroke:rgb(0,0,0);stroke-width:0.1;fill:none;"/>
  <ellipse cx="118.367" cy="59.6275" rx="1.45353" ry="1.45353" style="stroke:rgb(0,0,0);stroke-width:0.1;fill:none;"/>
  <ellipse cx="87.2918" cy="59.6275" rx="1.45353" ry="1.45353" style="stroke:rgb(0,0,0);stroke-width:0.1;fill:none;"/>
  <path d="M154.956,24.8931 A2.00487,2.00487 0 0,0 152.951,22.8883 " style="stroke:rgb(0,0,0);stroke-width:0.1;fill:none" />
  <path d="M83.6329,22.8883 L152.951,22.8883" style="stroke:rgb(0,0,0);stroke-width:0.1;fill:none" />
  <ellipse cx="102.829" cy="28.552" rx="1.45353" ry="1.45353" style="stroke:rgb(0,0,0);stroke-width:0.1;fill:none;"/>
  <ellipse cx="89.3734" cy="36.3209" rx="1.45353" ry="1.45353" style="stroke:rgb(0,0,0);stroke-width:0.1;fill:none;"/>
  <ellipse cx="89.3734" cy="51.8586" rx="1.45353" ry="1.45353" style="stroke:rgb(0,0,0);stroke-width:0.1;fill:none;"/>
  <ellipse cx="102.829" cy="59.6275" rx="1.45353" ry="1.45353" style="stroke:rgb(0,0,0);stroke-width:0.1;fill:none;"/>
  <ellipse cx="95.8124" cy="34.0654" rx="1.45353" ry="1.45353" style="stroke:rgb(0,0,0);stroke-width:0.1;fill:none;"/>
  <ellipse cx="95.8124" cy="54.1141" rx="1.45353" ry="1.45353" style="stroke:rgb(0,0,0);stroke-width:0.1;fill:none;"/>
  <ellipse cx="124.883" cy="34.0654" rx="1.45353" ry="1.45353" style="stroke:rgb(0,0,0);stroke-width:0.1;fill:none;"/>
  <ellipse cx="124.883" cy="54.1141" rx="1.45353" ry="1.45353" style="stroke:rgb(0,0,0);stroke-width:0.1;fill:none;"/>
  <path d="M89.7978,74.1628 L93.3064,74.1628" style="stroke:rgb(0,0,0);stroke-width:0.1;fill:none" />
  <path d="M93.3064,74.1628 L93.3064,66.3438" style="stroke:rgb(0,0,0);stroke-width:0.1;fill:none" />
  <path d="M93.3064,66.3438 L92.0032,66.3438" style="stroke:rgb(0,0,0);stroke-width:0.1;fill:none" />
  <path d="M92.0032,66.3438 L92.0032,63.7374" style="stroke:rgb(0,0,0);stroke-width:0.1;fill:none" />
  <path d="M92.0032,63.7374 L93.3064,63.7374" style="stroke:rgb(0,0,0);stroke-width:0.1;fill:none" />
  <path d="M93.3064,63.7374 L93.3064,62.1335" style="stroke:rgb(0,0,0);stroke-width:0.1;fill:none" />
  <path d="M93.3064,62.1335 L96.3137,62.1335" style="stroke:rgb(0,0,0);stroke-width:0.1;fill:none" />
  <path d="M96.3137,62.1335 L96.3137,63.7374" style="stroke:rgb(0,0,0);stroke-width:0.1;fill:none" />
  <path d="M96.3137,63.7374 L97.6168,63.7374" style="stroke:rgb(0,0,0);stroke-width:0.1;fill:none" />
  <path d="M97.6168,63.7374 L97.6168,66.3438" style="stroke:rgb(0,0,0);stroke-width:0.1;fill:none" />
  <path d="M97.6168,66.3438 L96.3137,66.3438" style="stroke:rgb(0,0,0);stroke-width:0.1;fill:none" />
  <path d="M96.3137,66.3438 L96.3137,74.1628" style="stroke:rgb(0,0,0);stroke-width:0.1;fill:none" />
  <path d="M89.7978,78.6737 L89.7978,74.1628" style="stroke:rgb(0,0,0);stroke-width:0.1;fill:none" />
  <path d="M81.628,78.6737 L89.7978,78.6737" style="stroke:rgb(0,0,0);stroke-width:0.1;fill:none" />
  <path d="M83.6329,22.8883 A2.00487,2.00487 0 0,0 81.628,24.8931 " style="stroke:rgb(0,0,0);stroke-width:0.1;fill:none" />
  <path d="M81.628,78.6737 L81.628,24.8932" style="stroke:rgb(0,0,0);stroke-width:0.1;fill:none" />
  <path d="M100.538,68.6494 L100.538,74.1628" style="stroke:rgb(0,0,0);stroke-width:0.1;fill:none" />
  <path d="M118.954,68.6494 L118.954,74.1628" style="stroke:rgb(0,0,0);stroke-width:0.1;fill:none" />
  <path d="M100.538,68.6494 L118.954,68.6494" style="stroke:rgb(0,0,0);stroke-width:0.1;fill:none" />
  <path d="M96.3137,74.1628 L100.538,74.1628" style="stroke:rgb(0,0,0);stroke-width:0.1;fill:none" />
  <path d="M125.384,74.1628 L125.384,66.3438" style="stroke:rgb(0,0,0);stroke-width:0.1;fill:none" />
  <path d="M125.384,66.3438 L124.081,66.3438" style="stroke:rgb(0,0,0);stroke-width:0.1;fill:none" />
  <path d="M124.081,66.3438 L124.081,63.7374" style="stroke:rgb(0,0,0);stroke-width:0.1;fill:none" />
  <path d="M124.081,63.7374 L125.384,63.7374" style="stroke:rgb(0,0,0);stroke-width:0.1;fill:none" />
  <path d="M125.384,63.7374 L125.384,62.1335" style="stroke:rgb(0,0,0);stroke-width:0.1;fill:none" />
  <path d="M125.384,62.1335 L128.392,62.1335" style="stroke:rgb(0,0,0);stroke-width:0.1;fill:none" />
  <path d="M128.392,62.1335 L128.392,63.7374" style="stroke:rgb(0,0,0);stroke-width:0.1;fill:none" />
  <path d="M128.392,63.7374 L129.695,63.7374" style="stroke:rgb(0,0,0);stroke-width:0.1;fill:none" />
  <path d="M129.695,63.7374 L129.695,66.3438" style="stroke:rgb(0,0,0);stroke-width:0.1;fill:none" />
  <path d="M129.695,66.3438 L128.392,66.3438" style="stroke:rgb(0,0,0);stroke-width:0.1;fill:none" />
  <path d="M128.392,66.3438 L128.392,74.1628" style="stroke:rgb(0,0,0);stroke-width:0.1;fill:none" />
  <path d="M118.954,74.1628 L125.384,74.1628" style="stroke:rgb(0,0,0);stroke-width:0.1;fill:none" />
  <path d="M146.937,74.1628 L146.937,78.6737" style="stroke:rgb(0,0,0);stroke-width:0.1;fill:none" />
  <path d="M146.937,78.6737 L154.956,78.6737" style="stroke:rgb(0,0,0);stroke-width:0.1;fill:none" />
  <path d="M128.392,74.1628 L146.937,74.1628" style="stroke:rgb(0,0,0);stroke-width:0.1;fill:none" />
  <ellipse cx="148.941" cy="47.0469" rx="1.45353" ry="1.45353" style="stroke:rgb(0,0,0);stroke-width:0.1;fill:none;"/>
  <ellipse cx="148.941" cy="41.1326" rx="1.45353" ry="1.45353" style="stroke:rgb(0,0,0);stroke-width:0.1;fill:none;"/>
  <path d="M154.956,47.0469 L130.898,47.0469" style="stroke:rgb(0,0,0);stroke-width:0.1;fill:none" />
  <path d="M130.898,41.1326 L154.956,41.1326" style="stroke:rgb(0,0,0);stroke-width:0.1;fill:none" />
  <path d="M130.898,47.0469 L130.898,41.1326" style="stroke:rgb(0,0,0);stroke-width:0.1;fill:none" />
  <path d="M154.956,24.8931 L154.956,41.1326" style="stroke:rgb(0,0,0);stroke-width:0.1;fill:none" />
  <path d="M154.956,47.0469 L154.956,78.6737" style="stroke:rgb(0,0,0);stroke-width:0.1;fill:none" />
  <path d="M1.43333,15.0342 L9.60317,15.0342" style="stroke:rgb(0,0,0);stroke-width:0.1;fill:none" />
  <path d="M9.60317,15.0342 L1.43333,15.0342" style="stroke:rgb(0,0,0);stroke-width:0.1;fill:none" />
  <path d="M9.60317,20.5476 L9.60317,15.0342" style="stroke:rgb(0,0,0);stroke-width:0.1;fill:none" />
  <ellipse cx="14.6153" cy="17.7909" rx="1.45353" ry="1.45353" style="stroke:rgb(0,0,0);stroke-width:0.1;fill:none;"/>
  <ellipse cx="29.5516" cy="7.92696" rx="5.51338" ry="5.51338" style="stroke:rgb(0,0,0);stroke-width:0.1;fill:none;"/>
  <ellipse cx="46.6932" cy="17.7909" rx="1.45353" ry="1.45353" style="stroke:rgb(0,0,0);stroke-width:0.1;fill:none;"/>
  <path d="M66.7419,15.0342 L66.7419,20.5476" style="stroke:rgb(0,0,0);stroke-width:0.1;fill:none" />
  <path d="M74.7613,15.0342 L66.7419,15.0342" style="stroke:rgb(0,0,0);stroke-width:0.1;fill:none" />
  <path d="M9.60317,20.5476 L66.7419,20.5476" style="stroke:rgb(0,0,0);stroke-width:0.1;fill:none" />
  <path d="M74.7613,6.33309 L66.7419,6.33309" style="stroke:rgb(0,0,0);stroke-width:0.1;fill:none" />
  <path d="M1.43333,6.33309 L9.60317,6.33309" style="stroke:rgb(0,0,0);stroke-width:0.1;fill:none" />
  <path d="M1.43333,15.0342 L1.43333,6.33309" style="stroke:rgb(0,0,0);stroke-width:0.1;fill:none" />
  <path d="M74.7613,15.0342 L74.7613,6.33309" style="stroke:rgb(0,0,0);stroke-width:0.1;fill:none" />
  <ellipse cx="14.6153" cy="3.5764" rx="1.45353" ry="1.45353" style="stroke:rgb(0,0,0);stroke-width:0.1;fill:none;"/>
  <ellipse cx="46.6932" cy="3.5764" rx="1.45353" ry="1.45353" style="stroke:rgb(0,0,0);stroke-width:0.1;fill:none;"/>
  <path d="M9.60317,0.819707 L66.7419,0.819707" style="stroke:rgb(0,0,0);stroke-width:0.1;fill:none" />
  <path d="M66.7419,6.33309 L66.7419,0.819707" style="stroke:rgb(0,0,0);stroke-width:0.1;fill:none" />
  <path d="M9.60317,0.819707 L9.60317,6.33309" style="stroke:rgb(0,0,0);stroke-width:0.1;fill:none" />
</svg>
