<?xml version="1.0" standalone="yes"?>

<svg width="156mm" height="151mm" viewBox="0 0 156 151" version="1.1"
xmlns="http://www.w3.org/2000/svg" style="stroke-linecap:round">
  <ellipse cx="22.6039" cy="99.7636" rx="1.45171" ry="1.45171" style="stroke:rgb(0,0,0);stroke-width:0.1;fill:none;"/>
  <ellipse cx="22.6039" cy="130.8" rx="1.45171" ry="1.45171" style="stroke:rgb(0,0,0);stroke-width:0.1;fill:none;"/>
  <ellipse cx="9.16471" cy="123.041" rx="1.45171" ry="1.45171" style="stroke:rgb(0,0,0);stroke-width:0.1;fill:none;"/>
  <ellipse cx="9.16471" cy="107.523" rx="1.45171" ry="1.45171" style="stroke:rgb(0,0,0);stroke-width:0.1;fill:none;"/>
  <ellipse cx="70.6603" cy="99.2631" rx="1.45171" ry="1.45171" style="stroke:rgb(0,0,0);stroke-width:0.1;fill:none;"/>
  <ellipse cx="70.6603" cy="131.301" rx="1.45171" ry="1.45171" style="stroke:rgb(0,0,0);stroke-width:0.1;fill:none;"/>
  <ellipse cx="65.6545" cy="119.287" rx="1.45171" ry="1.45171" style="stroke:rgb(0,0,0);stroke-width:0.1;fill:none;"/>
  <ellipse cx="65.6545" cy="111.277" rx="1.45171" ry="1.45171" style="stroke:rgb(0,0,0);stroke-width:0.1;fill:none;"/>
  <ellipse cx="7.08567" cy="99.7636" rx="1.45171" ry="1.45171" style="stroke:rgb(0,0,0);stroke-width:0.1;fill:none;"/>
  <ellipse cx="38.1221" cy="99.7636" rx="1.45171" ry="1.45171" style="stroke:rgb(0,0,0);stroke-width:0.1;fill:none;"/>
  <ellipse cx="38.1221" cy="130.8" rx="1.45171" ry="1.45171" style="stroke:rgb(0,0,0);stroke-width:0.1;fill:none;"/>
  <ellipse cx="7.08567" cy="130.8" rx="1.45171" ry="1.45171" style="stroke:rgb(0,0,0);stroke-width:0.1;fill:none;"/>
  <path d="M74.665,96.1094 A2.00235,2.00235 0 0,0 72.6627,94.107 " style="stroke:rgb(0,0,0);stroke-width:0.1;fill:none" />
  <path d="M3.43138,94.107 L72.6627,94.107" style="stroke:rgb(0,0,0);stroke-width:0.1;fill:none" />
  <path d="M9.58861,145.317 L13.0927,145.317" style="stroke:rgb(0,0,0);stroke-width:0.1;fill:none" />
  <path d="M13.0927,145.317 L13.0927,137.508" style="stroke:rgb(0,0,0);stroke-width:0.1;fill:none" />
  <path d="M13.0927,137.508 L11.7912,137.508" style="stroke:rgb(0,0,0);stroke-width:0.1;fill:none" />
  <path d="M11.7912,137.508 L11.7912,134.905" style="stroke:rgb(0,0,0);stroke-width:0.1;fill:none" />
  <path d="M11.7912,134.905 L13.0927,134.905" style="stroke:rgb(0,0,0);stroke-width:0.1;fill:none" />
  <path d="M13.0927,134.905 L13.0927,133.303" style="stroke:rgb(0,0,0);stroke-width:0.1;fill:none" />
  <path d="M13.0927,133.303 L16.0963,133.303" style="stroke:rgb(0,0,0);stroke-width:0.1;fill:none" />
  <path d="M16.0963,133.303 L16.0963,134.905" style="stroke:rgb(0,0,0);stroke-width:0.1;fill:none" />
  <path d="M16.0963,134.905 L17.3978,134.905" style="stroke:rgb(0,0,0);stroke-width:0.1;fill:none" />
  <path d="M17.3978,134.905 L17.3978,137.508" style="stroke:rgb(0,0,0);stroke-width:0.1;fill:none" />
  <path d="M17.3978,137.508 L16.0963,137.508" style="stroke:rgb(0,0,0);stroke-width:0.1;fill:none" />
  <path d="M16.0963,137.508 L16.0963,145.317" style="stroke:rgb(0,0,0);stroke-width:0.1;fill:none" />
  <path d="M9.58861,149.822 L9.58861,145.317" style="stroke:rgb(0,0,0);stroke-width:0.1;fill:none" />
  <path d="M1.42903,149.822 L9.58861,149.822" style="stroke:rgb(0,0,0);stroke-width:0.1;fill:none" />
  <path d="M74.665,96.1094 L74.665,149.822" style="stroke:rgb(0,0,0);stroke-width:0.1;fill:none" />
  <path d="M3.43138,94.107 A2.00236,2.00236 0 0,0 1.42903,96.1094 " style="stroke:rgb(0,0,0);stroke-width:0.1;fill:none" />
  <path d="M1.42903,96.1094 L1.42903,149.822" style="stroke:rgb(0,0,0);stroke-width:0.1;fill:none" />
  <ellipse cx="22.6039" cy="115.282" rx="11.2632" ry="11.2632" style="stroke:rgb(0,0,0);stroke-width:0.1;fill:none;"/>
  <path d="M23.4947,139.811 L23.4947,145.317" style="stroke:rgb(0,0,0);stroke-width:0.1;fill:none" />
  <path d="M35.5293,139.811 L35.5293,145.317" style="stroke:rgb(0,0,0);stroke-width:0.1;fill:none" />
  <path d="M23.4947,139.811 L35.5293,139.811" style="stroke:rgb(0,0,0);stroke-width:0.1;fill:none" />
  <path d="M16.0963,145.317 L23.4947,145.317" style="stroke:rgb(0,0,0);stroke-width:0.1;fill:none" />
  <path d="M45.1304,145.317 L45.1304,137.508" style="stroke:rgb(0,0,0);stroke-width:0.1;fill:none" />
  <path d="M45.1304,137.508 L43.8288,137.508" style="stroke:rgb(0,0,0);stroke-width:0.1;fill:none" />
  <path d="M43.8288,137.508 L43.8288,134.905" style="stroke:rgb(0,0,0);stroke-width:0.1;fill:none" />
  <path d="M43.8288,134.905 L45.1304,134.905" style="stroke:rgb(0,0,0);stroke-width:0.1;fill:none" />
  <path d="M45.1304,134.905 L45.1304,133.303" style="stroke:rgb(0,0,0);stroke-width:0.1;fill:none" />
  <path d="M45.1304,133.303 L48.1339,133.303" style="stroke:rgb(0,0,0);stroke-width:0.1;fill:none" />
  <path d="M48.1339,133.303 L48.1339,134.905" style="stroke:rgb(0,0,0);stroke-width:0.1;fill:none" />
  <path d="M48.1339,134.905 L49.4354,134.905" style="stroke:rgb(0,0,0);stroke-width:0.1;fill:none" />
  <path d="M49.4354,134.905 L49.4354,137.508" style="stroke:rgb(0,0,0);stroke-width:0.1;fill:none" />
  <path d="M49.4354,137.508 L48.1339,137.508" style="stroke:rgb(0,0,0);stroke-width:0.1;fill:none" />
  <path d="M48.1339,137.508 L48.1339,145.317" style="stroke:rgb(0,0,0);stroke-width:0.1;fill:none" />
  <path d="M35.5293,145.317 L45.1304,145.317" style="stroke:rgb(0,0,0);stroke-width:0.1;fill:none" />
  <path d="M66.6556,145.317 L66.6556,149.822" style="stroke:rgb(0,0,0);stroke-width:0.1;fill:none" />
  <path d="M66.6556,149.822 L74.665,149.822" style="stroke:rgb(0,0,0);stroke-width:0.1;fill:none" />
  <path d="M48.1339,145.317 L66.6556,145.317" style="stroke:rgb(0,0,0);stroke-width:0.1;fill:none" />
  <ellipse cx="22.6039" cy="41.9457" rx="1.45171" ry="1.45171" style="stroke:rgb(0,0,0);stroke-width:0.1;fill:none;"/>
  <ellipse cx="22.6039" cy="72.9822" rx="1.45171" ry="1.45171" style="stroke:rgb(0,0,0);stroke-width:0.1;fill:none;"/>
  <ellipse cx="9.16471" cy="65.2231" rx="1.45171" ry="1.45171" style="stroke:rgb(0,0,0);stroke-width:0.1;fill:none;"/>
  <ellipse cx="9.16471" cy="49.7049" rx="1.45171" ry="1.45171" style="stroke:rgb(0,0,0);stroke-width:0.1;fill:none;"/>
  <ellipse cx="70.6603" cy="41.4452" rx="1.45171" ry="1.45171" style="stroke:rgb(0,0,0);stroke-width:0.1;fill:none;"/>
  <ellipse cx="65.6545" cy="61.4687" rx="1.45171" ry="1.45171" style="stroke:rgb(0,0,0);stroke-width:0.1;fill:none;"/>
  <ellipse cx="65.6545" cy="53.4593" rx="1.45171" ry="1.45171" style="stroke:rgb(0,0,0);stroke-width:0.1;fill:none;"/>
  <ellipse cx="7.08567" cy="41.9457" rx="1.45171" ry="1.45171" style="stroke:rgb(0,0,0);stroke-width:0.1;fill:none;"/>
  <ellipse cx="38.1221" cy="41.9457" rx="1.45171" ry="1.45171" style="stroke:rgb(0,0,0);stroke-width:0.1;fill:none;"/>
  <ellipse cx="38.1221" cy="72.9822" rx="1.45171" ry="1.45171" style="stroke:rgb(0,0,0);stroke-width:0.1;fill:none;"/>
  <ellipse cx="7.08567" cy="72.9822" rx="1.45171" ry="1.45171" style="stroke:rgb(0,0,0);stroke-width:0.1;fill:none;"/>
  <path d="M74.665,38.2914 A2.00235,2.00235 0 0,0 72.6627,36.2891 " style="stroke:rgb(0,0,0);stroke-width:0.1;fill:none" />
  <path d="M3.43138,36.2891 L72.6627,36.2891" style="stroke:rgb(0,0,0);stroke-width:0.1;fill:none" />
  <ellipse cx="15.5957" cy="47.4522" rx="1.45171" ry="1.45171" style="stroke:rgb(0,0,0);stroke-width:0.1;fill:none;"/>
  <ellipse cx="15.5957" cy="67.4757" rx="1.45171" ry="1.45171" style="stroke:rgb(0,0,0);stroke-width:0.1;fill:none;"/>
  <ellipse cx="44.6298" cy="47.4522" rx="1.45171" ry="1.45171" style="stroke:rgb(0,0,0);stroke-width:0.1;fill:none;"/>
  <ellipse cx="44.6298" cy="67.4757" rx="1.45171" ry="1.45171" style="stroke:rgb(0,0,0);stroke-width:0.1;fill:none;"/>
  <path d="M59.7475,54.8609 L74.665,54.8609" style="stroke:rgb(0,0,0);stroke-width:0.1;fill:none" />
  <path d="M59.7475,60.067 L59.7475,54.8609" style="stroke:rgb(0,0,0);stroke-width:0.1;fill:none" />
  <path d="M74.665,60.067 L59.7475,60.067" style="stroke:rgb(0,0,0);stroke-width:0.1;fill:none" />
  <path d="M74.665,38.2914 L74.665,54.941" style="stroke:rgb(0,0,0);stroke-width:0.1;fill:none" />
  <path d="M3.43138,36.2891 A2.00236,2.00236 0 0,0 1.42903,38.2915 " style="stroke:rgb(0,0,0);stroke-width:0.1;fill:none" />
  <ellipse cx="70.6603" cy="73.4828" rx="1.45171" ry="1.45171" style="stroke:rgb(0,0,0);stroke-width:0.1;fill:none;"/>
  <path d="M1.42903,38.2915 L1.42903,87.4992" style="stroke:rgb(0,0,0);stroke-width:0.1;fill:none" />
  <path d="M74.665,59.9869 L74.665,87.4992" style="stroke:rgb(0,0,0);stroke-width:0.1;fill:none" />
  <ellipse cx="22.6039" cy="57.464" rx="8.45994" ry="8.45994" style="stroke:rgb(0,0,0);stroke-width:0.1;fill:none;"/>
  <path d="M20.3156,81.9928 L20.3156,87.4992" style="stroke:rgb(0,0,0);stroke-width:0.1;fill:none" />
  <path d="M38.7085,81.9928 L38.7085,87.4992" style="stroke:rgb(0,0,0);stroke-width:0.1;fill:none" />
  <path d="M38.7085,87.4992 L74.665,87.4992" style="stroke:rgb(0,0,0);stroke-width:0.1;fill:none" />
  <path d="M20.3156,81.9928 L38.7085,81.9928" style="stroke:rgb(0,0,0);stroke-width:0.1;fill:none" />
  <path d="M1.42903,87.4992 L20.3156,87.4992" style="stroke:rgb(0,0,0);stroke-width:0.1;fill:none" />
  <ellipse cx="102.698" cy="102.016" rx="1.45171" ry="1.45171" style="stroke:rgb(0,0,0);stroke-width:0.1;fill:none;"/>
  <ellipse cx="102.698" cy="133.053" rx="1.45171" ry="1.45171" style="stroke:rgb(0,0,0);stroke-width:0.1;fill:none;"/>
  <ellipse cx="89.2588" cy="125.294" rx="1.45171" ry="1.45171" style="stroke:rgb(0,0,0);stroke-width:0.1;fill:none;"/>
  <ellipse cx="89.2588" cy="109.775" rx="1.45171" ry="1.45171" style="stroke:rgb(0,0,0);stroke-width:0.1;fill:none;"/>
  <ellipse cx="150.754" cy="101.516" rx="1.45171" ry="1.45171" style="stroke:rgb(0,0,0);stroke-width:0.1;fill:none;"/>
  <ellipse cx="87.1797" cy="102.016" rx="1.45171" ry="1.45171" style="stroke:rgb(0,0,0);stroke-width:0.1;fill:none;"/>
  <ellipse cx="118.216" cy="102.016" rx="1.45171" ry="1.45171" style="stroke:rgb(0,0,0);stroke-width:0.1;fill:none;"/>
  <ellipse cx="118.216" cy="133.053" rx="1.45171" ry="1.45171" style="stroke:rgb(0,0,0);stroke-width:0.1;fill:none;"/>
  <ellipse cx="87.1797" cy="133.053" rx="1.45171" ry="1.45171" style="stroke:rgb(0,0,0);stroke-width:0.1;fill:none;"/>
  <path d="M154.759,98.362 A2.00235,2.00235 0 0,0 152.757,96.3597 " style="stroke:rgb(0,0,0);stroke-width:0.1;fill:none" />
  <path d="M146.664,112.403 A1.45171,1.45171 0 0,0 144.833,112.403 " style="stroke:rgb(0,0,0);stroke-width:0.1;fill:none" />
  <path d="M144.833,122.666 A1.45171,1.45171 0 0,0 146.664,122.666 " style="stroke:rgb(0,0,0);stroke-width:0.1;fill:none" />
  <path d="M146.664,112.403 L154.759,112.403" style="stroke:rgb(0,0,0);stroke-width:0.1;fill:none" />
  <path d="M154.759,98.362 L154.759,112.403" style="stroke:rgb(0,0,0);stroke-width:0.1;fill:none" />
  <path d="M83.5254,96.3597 A2.00236,2.00236 0 0,0 81.5231,98.362 " style="stroke:rgb(0,0,0);stroke-width:0.1;fill:none" />
  <ellipse cx="150.754" cy="133.553" rx="1.45171" ry="1.45171" style="stroke:rgb(0,0,0);stroke-width:0.1;fill:none;"/>
  <path d="M154.759,122.666 L146.664,122.666" style="stroke:rgb(0,0,0);stroke-width:0.1;fill:none" />
  <path d="M81.5231,147.57 L81.5231,98.362" style="stroke:rgb(0,0,0);stroke-width:0.1;fill:none" />
  <path d="M154.759,122.666 L154.759,147.57" style="stroke:rgb(0,0,0);stroke-width:0.1;fill:none" />
  <path d="M111.308,101.366 L111.308,112.403" style="stroke:rgb(0,0,0);stroke-width:0.1;fill:none" />
  <path d="M111.308,112.403 L144.833,112.403" style="stroke:rgb(0,0,0);stroke-width:0.1;fill:none" />
  <path d="M116.314,96.3597 A5.00588,5.00588 0 0,0 111.308,101.366 " style="stroke:rgb(0,0,0);stroke-width:0.1;fill:none" />
  <path d="M107.904,100.364 A4.0047,4.0047 0 0,0 103.899,96.3597 " style="stroke:rgb(0,0,0);stroke-width:0.1;fill:none" />
  <path d="M116.314,96.3597 L152.757,96.3597" style="stroke:rgb(0,0,0);stroke-width:0.1;fill:none" />
  <path d="M83.5254,96.3597 L103.899,96.3597" style="stroke:rgb(0,0,0);stroke-width:0.1;fill:none" />
  <path d="M107.904,100.364 L107.904,110.866" style="stroke:rgb(0,0,0);stroke-width:0.1;fill:none" />
  <path d="M107.906,110.868 A8.45994,8.45994 0 1,0 106.539,125.072 " style="stroke:rgb(0,0,0);stroke-width:0.1;fill:none" />
  <path d="M107.904,127.546 L107.904,142.063" style="stroke:rgb(0,0,0);stroke-width:0.1;fill:none" />
  <path d="M111.308,122.666 L111.308,142.063" style="stroke:rgb(0,0,0);stroke-width:0.1;fill:none" />
  <path d="M111.308,122.666 L144.833,122.666" style="stroke:rgb(0,0,0);stroke-width:0.1;fill:none" />
  <path d="M107.904,127.546 A3.05979,3.05979 0 0,0 106.539,125.072 " style="stroke:rgb(0,0,0);stroke-width:0.1;fill:none" />
  <path d="M123.172,104.835 L126.276,104.835" style="stroke:rgb(0,0,0);stroke-width:0.1;fill:none" />
  <path d="M121.62,107.523 L123.172,104.835" style="stroke:rgb(0,0,0);stroke-width:0.1;fill:none" />
  <path d="M126.276,104.835 L127.827,107.523" style="stroke:rgb(0,0,0);stroke-width:0.1;fill:none" />
  <path d="M127.827,107.523 L126.276,110.211" style="stroke:rgb(0,0,0);stroke-width:0.1;fill:none" />
  <path d="M126.276,110.211 L123.172,110.211" style="stroke:rgb(0,0,0);stroke-width:0.1;fill:none" />
  <path d="M123.172,110.211 L121.62,107.523" style="stroke:rgb(0,0,0);stroke-width:0.1;fill:none" />
  <path d="M94.1379,104.835 L97.2416,104.835" style="stroke:rgb(0,0,0);stroke-width:0.1;fill:none" />
  <path d="M92.5861,107.523 L94.1379,104.835" style="stroke:rgb(0,0,0);stroke-width:0.1;fill:none" />
  <path d="M97.2416,104.835 L98.7934,107.523" style="stroke:rgb(0,0,0);stroke-width:0.1;fill:none" />
  <path d="M98.7934,107.523 L97.2416,110.211" style="stroke:rgb(0,0,0);stroke-width:0.1;fill:none" />
  <path d="M97.2416,110.211 L94.1379,110.211" style="stroke:rgb(0,0,0);stroke-width:0.1;fill:none" />
  <path d="M94.1379,110.211 L92.5861,107.523" style="stroke:rgb(0,0,0);stroke-width:0.1;fill:none" />
  <path d="M94.1379,124.858 L97.2416,124.858" style="stroke:rgb(0,0,0);stroke-width:0.1;fill:none" />
  <path d="M92.5861,127.546 L94.1379,124.858" style="stroke:rgb(0,0,0);stroke-width:0.1;fill:none" />
  <path d="M97.2416,124.858 L98.7934,127.546" style="stroke:rgb(0,0,0);stroke-width:0.1;fill:none" />
  <path d="M98.7934,127.546 L97.2416,130.234" style="stroke:rgb(0,0,0);stroke-width:0.1;fill:none" />
  <path d="M97.2416,130.234 L94.1379,130.234" style="stroke:rgb(0,0,0);stroke-width:0.1;fill:none" />
  <path d="M94.1379,130.234 L92.5861,127.546" style="stroke:rgb(0,0,0);stroke-width:0.1;fill:none" />
  <path d="M123.172,124.858 L126.276,124.858" style="stroke:rgb(0,0,0);stroke-width:0.1;fill:none" />
  <path d="M121.62,127.546 L123.172,124.858" style="stroke:rgb(0,0,0);stroke-width:0.1;fill:none" />
  <path d="M126.276,124.858 L127.827,127.546" style="stroke:rgb(0,0,0);stroke-width:0.1;fill:none" />
  <path d="M127.827,127.546 L126.276,130.234" style="stroke:rgb(0,0,0);stroke-width:0.1;fill:none" />
  <path d="M126.276,130.234 L123.172,130.234" style="stroke:rgb(0,0,0);stroke-width:0.1;fill:none" />
  <path d="M123.172,130.234 L121.62,127.546" style="stroke:rgb(0,0,0);stroke-width:0.1;fill:none" />
  <path d="M99.4906,147.57 L99.4906,142.063" style="stroke:rgb(0,0,0);stroke-width:0.1;fill:none" />
  <path d="M99.4906,142.063 L107.904,142.063" style="stroke:rgb(0,0,0);stroke-width:0.1;fill:none" />
  <path d="M81.5231,147.57 L99.4906,147.57" style="stroke:rgb(0,0,0);stroke-width:0.1;fill:none" />
  <path d="M119.722,142.063 L119.722,147.57" style="stroke:rgb(0,0,0);stroke-width:0.1;fill:none" />
  <path d="M119.722,147.57 L154.759,147.57" style="stroke:rgb(0,0,0);stroke-width:0.1;fill:none" />
  <path d="M111.308,142.063 L119.722,142.063" style="stroke:rgb(0,0,0);stroke-width:0.1;fill:none" />
  <ellipse cx="102.698" cy="55.2113" rx="8.45994" ry="8.45994" style="stroke:rgb(0,0,0);stroke-width:0.1;fill:none;"/>
  <ellipse cx="150.754" cy="39.1925" rx="1.45171" ry="1.45171" style="stroke:rgb(0,0,0);stroke-width:0.1;fill:none;"/>
  <ellipse cx="150.754" cy="71.2301" rx="1.45171" ry="1.45171" style="stroke:rgb(0,0,0);stroke-width:0.1;fill:none;"/>
  <ellipse cx="145.749" cy="59.216" rx="1.45171" ry="1.45171" style="stroke:rgb(0,0,0);stroke-width:0.1;fill:none;"/>
  <ellipse cx="145.749" cy="51.2066" rx="1.45171" ry="1.45171" style="stroke:rgb(0,0,0);stroke-width:0.1;fill:none;"/>
  <ellipse cx="87.1797" cy="39.6931" rx="1.45171" ry="1.45171" style="stroke:rgb(0,0,0);stroke-width:0.1;fill:none;"/>
  <ellipse cx="118.216" cy="39.6931" rx="1.45171" ry="1.45171" style="stroke:rgb(0,0,0);stroke-width:0.1;fill:none;"/>
  <ellipse cx="118.216" cy="70.7295" rx="1.45171" ry="1.45171" style="stroke:rgb(0,0,0);stroke-width:0.1;fill:none;"/>
  <ellipse cx="87.1797" cy="70.7295" rx="1.45171" ry="1.45171" style="stroke:rgb(0,0,0);stroke-width:0.1;fill:none;"/>
  <path d="M154.759,36.0388 A2.00235,2.00235 0 0,0 152.757,34.0365 " style="stroke:rgb(0,0,0);stroke-width:0.1;fill:none" />
  <path d="M83.5254,34.0365 L152.757,34.0365" style="stroke:rgb(0,0,0);stroke-width:0.1;fill:none" />
  <ellipse cx="102.698" cy="39.6931" rx="1.45171" ry="1.45171" style="stroke:rgb(0,0,0);stroke-width:0.1;fill:none;"/>
  <ellipse cx="89.2588" cy="47.4522" rx="1.45171" ry="1.45171" style="stroke:rgb(0,0,0);stroke-width:0.1;fill:none;"/>
  <ellipse cx="89.2588" cy="62.9704" rx="1.45171" ry="1.45171" style="stroke:rgb(0,0,0);stroke-width:0.1;fill:none;"/>
  <ellipse cx="102.698" cy="70.7295" rx="1.45171" ry="1.45171" style="stroke:rgb(0,0,0);stroke-width:0.1;fill:none;"/>
  <ellipse cx="95.6897" cy="45.1996" rx="1.45171" ry="1.45171" style="stroke:rgb(0,0,0);stroke-width:0.1;fill:none;"/>
  <ellipse cx="95.6897" cy="65.2231" rx="1.45171" ry="1.45171" style="stroke:rgb(0,0,0);stroke-width:0.1;fill:none;"/>
  <ellipse cx="124.724" cy="45.1996" rx="1.45171" ry="1.45171" style="stroke:rgb(0,0,0);stroke-width:0.1;fill:none;"/>
  <ellipse cx="124.724" cy="65.2231" rx="1.45171" ry="1.45171" style="stroke:rgb(0,0,0);stroke-width:0.1;fill:none;"/>
  <path d="M139.842,52.6083 L154.759,52.6083" style="stroke:rgb(0,0,0);stroke-width:0.1;fill:none" />
  <path d="M154.759,57.8144 L139.842,57.8144" style="stroke:rgb(0,0,0);stroke-width:0.1;fill:none" />
  <path d="M139.842,57.8144 L139.842,52.6083" style="stroke:rgb(0,0,0);stroke-width:0.1;fill:none" />
  <path d="M89.6827,85.2466 L93.1868,85.2466" style="stroke:rgb(0,0,0);stroke-width:0.1;fill:none" />
  <path d="M93.1868,85.2466 L93.1868,77.4374" style="stroke:rgb(0,0,0);stroke-width:0.1;fill:none" />
  <path d="M93.1868,77.4374 L91.8853,77.4374" style="stroke:rgb(0,0,0);stroke-width:0.1;fill:none" />
  <path d="M91.8853,77.4374 L91.8853,74.8344" style="stroke:rgb(0,0,0);stroke-width:0.1;fill:none" />
  <path d="M91.8853,74.8344 L93.1868,74.8344" style="stroke:rgb(0,0,0);stroke-width:0.1;fill:none" />
  <path d="M93.1868,74.8344 L93.1868,73.2325" style="stroke:rgb(0,0,0);stroke-width:0.1;fill:none" />
  <path d="M93.1868,73.2325 L96.1903,73.2325" style="stroke:rgb(0,0,0);stroke-width:0.1;fill:none" />
  <path d="M96.1903,73.2325 L96.1903,74.8344" style="stroke:rgb(0,0,0);stroke-width:0.1;fill:none" />
  <path d="M96.1903,74.8344 L97.4919,74.8344" style="stroke:rgb(0,0,0);stroke-width:0.1;fill:none" />
  <path d="M97.4919,74.8344 L97.4919,77.4374" style="stroke:rgb(0,0,0);stroke-width:0.1;fill:none" />
  <path d="M97.4919,77.4374 L96.1903,77.4374" style="stroke:rgb(0,0,0);stroke-width:0.1;fill:none" />
  <path d="M96.1903,77.4374 L96.1903,85.2466" style="stroke:rgb(0,0,0);stroke-width:0.1;fill:none" />
  <path d="M89.6827,89.7519 L89.6827,85.2466" style="stroke:rgb(0,0,0);stroke-width:0.1;fill:none" />
  <path d="M81.5231,89.7519 L89.6827,89.7519" style="stroke:rgb(0,0,0);stroke-width:0.1;fill:none" />
  <path d="M154.759,36.0388 L154.759,52.6083" style="stroke:rgb(0,0,0);stroke-width:0.1;fill:none" />
  <path d="M154.759,57.8144 L154.759,89.7519" style="stroke:rgb(0,0,0);stroke-width:0.1;fill:none" />
  <path d="M83.5254,34.0365 A2.00235,2.00235 0 0,0 81.5231,36.0388 " style="stroke:rgb(0,0,0);stroke-width:0.1;fill:none" />
  <path d="M81.5231,89.7519 L81.5231,36.0388" style="stroke:rgb(0,0,0);stroke-width:0.1;fill:none" />
  <path d="M100.41,79.7401 L100.41,85.2466" style="stroke:rgb(0,0,0);stroke-width:0.1;fill:none" />
  <path d="M118.803,79.7401 L118.803,85.2466" style="stroke:rgb(0,0,0);stroke-width:0.1;fill:none" />
  <path d="M100.41,79.7401 L118.803,79.7401" style="stroke:rgb(0,0,0);stroke-width:0.1;fill:none" />
  <path d="M96.1903,85.2466 L100.41,85.2466" style="stroke:rgb(0,0,0);stroke-width:0.1;fill:none" />
  <path d="M125.224,85.2466 L125.224,77.4374" style="stroke:rgb(0,0,0);stroke-width:0.1;fill:none" />
  <path d="M125.224,77.4374 L123.923,77.4374" style="stroke:rgb(0,0,0);stroke-width:0.1;fill:none" />
  <path d="M123.923,77.4374 L123.923,74.8344" style="stroke:rgb(0,0,0);stroke-width:0.1;fill:none" />
  <path d="M123.923,74.8344 L125.224,74.8344" style="stroke:rgb(0,0,0);stroke-width:0.1;fill:none" />
  <path d="M125.224,74.8344 L125.224,73.2325" style="stroke:rgb(0,0,0);stroke-width:0.1;fill:none" />
  <path d="M125.224,73.2325 L128.228,73.2325" style="stroke:rgb(0,0,0);stroke-width:0.1;fill:none" />
  <path d="M128.228,73.2325 L128.228,74.8344" style="stroke:rgb(0,0,0);stroke-width:0.1;fill:none" />
  <path d="M128.228,74.8344 L129.529,74.8344" style="stroke:rgb(0,0,0);stroke-width:0.1;fill:none" />
  <path d="M129.529,74.8344 L129.529,77.4374" style="stroke:rgb(0,0,0);stroke-width:0.1;fill:none" />
  <path d="M129.529,77.4374 L128.228,77.4374" style="stroke:rgb(0,0,0);stroke-width:0.1;fill:none" />
  <path d="M128.228,77.4374 L128.228,85.2466" style="stroke:rgb(0,0,0);stroke-width:0.1;fill:none" />
  <path d="M118.803,85.2466 L125.224,85.2466" style="stroke:rgb(0,0,0);stroke-width:0.1;fill:none" />
  <path d="M146.75,85.2466 L146.75,89.7519" style="stroke:rgb(0,0,0);stroke-width:0.1;fill:none" />
  <path d="M146.75,89.7519 L154.759,89.7519" style="stroke:rgb(0,0,0);stroke-width:0.1;fill:none" />
  <path d="M128.228,85.2466 L146.75,85.2466" style="stroke:rgb(0,0,0);stroke-width:0.1;fill:none" />
  <path d="M81.5231,17.3418 L89.6827,17.3418" style="stroke:rgb(0,0,0);stroke-width:0.1;fill:none" />
  <path d="M89.6827,17.3418 L81.5231,17.3418" style="stroke:rgb(0,0,0);stroke-width:0.1;fill:none" />
  <path d="M89.6827,22.8483 L89.6827,17.3418" style="stroke:rgb(0,0,0);stroke-width:0.1;fill:none" />
  <ellipse cx="94.6886" cy="3.57568" rx="1.45171" ry="1.45171" style="stroke:rgb(0,0,0);stroke-width:0.1;fill:none;"/>
  <ellipse cx="94.6886" cy="20.0951" rx="1.45171" ry="1.45171" style="stroke:rgb(0,0,0);stroke-width:0.1;fill:none;"/>
  <ellipse cx="109.606" cy="10.2435" rx="5.50647" ry="5.50647" style="stroke:rgb(0,0,0);stroke-width:0.1;fill:none;"/>
  <ellipse cx="126.726" cy="20.0951" rx="1.45171" ry="1.45171" style="stroke:rgb(0,0,0);stroke-width:0.1;fill:none;"/>
  <ellipse cx="126.726" cy="3.57568" rx="1.45171" ry="1.45171" style="stroke:rgb(0,0,0);stroke-width:0.1;fill:none;"/>
  <path d="M146.75,17.3418 L146.75,22.8483" style="stroke:rgb(0,0,0);stroke-width:0.1;fill:none" />
  <path d="M154.759,17.3418 L146.75,17.3418" style="stroke:rgb(0,0,0);stroke-width:0.1;fill:none" />
  <path d="M89.6827,22.8483 L146.75,22.8483" style="stroke:rgb(0,0,0);stroke-width:0.1;fill:none" />
  <path d="M89.6827,0.822442 L146.75,0.822442" style="stroke:rgb(0,0,0);stroke-width:0.1;fill:none" />
  <path d="M154.759,8.65164 L146.75,8.65164" style="stroke:rgb(0,0,0);stroke-width:0.1;fill:none" />
  <path d="M81.5231,8.65164 L89.6827,8.65164" style="stroke:rgb(0,0,0);stroke-width:0.1;fill:none" />
  <path d="M81.5231,17.3418 L81.5231,8.65164" style="stroke:rgb(0,0,0);stroke-width:0.1;fill:none" />
  <path d="M89.6827,0.822442 L89.6827,8.65164" style="stroke:rgb(0,0,0);stroke-width:0.1;fill:none" />
  <path d="M146.75,8.65164 L146.75,0.822442" style="stroke:rgb(0,0,0);stroke-width:0.1;fill:none" />
  <path d="M154.759,17.3418 L154.759,8.65164" style="stroke:rgb(0,0,0);stroke-width:0.1;fill:none" />
</svg>
