<?xml version="1.0" standalone="yes"?>

<svg width="179mm" height="118mm" viewBox="0 0 179 118" version="1.1"
xmlns="http://www.w3.org/2000/svg" style="stroke-linecap:round">
  <ellipse cx="22.6121" cy="66.7462" rx="1.45219" ry="1.45219" style="stroke:rgb(0,0,0);stroke-width:0.1;fill:none;"/>
  <ellipse cx="22.6121" cy="97.793" rx="1.45219" ry="1.45219" style="stroke:rgb(0,0,0);stroke-width:0.1;fill:none;"/>
  <ellipse cx="9.16845" cy="90.0313" rx="1.45219" ry="1.45219" style="stroke:rgb(0,0,0);stroke-width:0.1;fill:none;"/>
  <ellipse cx="9.16845" cy="74.5079" rx="1.45219" ry="1.45219" style="stroke:rgb(0,0,0);stroke-width:0.1;fill:none;"/>
  <ellipse cx="70.6847" cy="66.2454" rx="1.45219" ry="1.45219" style="stroke:rgb(0,0,0);stroke-width:0.1;fill:none;"/>
  <ellipse cx="70.6847" cy="98.2938" rx="1.45219" ry="1.45219" style="stroke:rgb(0,0,0);stroke-width:0.1;fill:none;"/>
  <ellipse cx="65.6771" cy="86.2756" rx="1.45219" ry="1.45219" style="stroke:rgb(0,0,0);stroke-width:0.1;fill:none;"/>
  <ellipse cx="65.6771" cy="78.2635" rx="1.45219" ry="1.45219" style="stroke:rgb(0,0,0);stroke-width:0.1;fill:none;"/>
  <ellipse cx="7.08871" cy="66.7462" rx="1.45219" ry="1.45219" style="stroke:rgb(0,0,0);stroke-width:0.1;fill:none;"/>
  <ellipse cx="38.1356" cy="66.7462" rx="1.45219" ry="1.45219" style="stroke:rgb(0,0,0);stroke-width:0.1;fill:none;"/>
  <ellipse cx="38.1356" cy="97.793" rx="1.45219" ry="1.45219" style="stroke:rgb(0,0,0);stroke-width:0.1;fill:none;"/>
  <ellipse cx="7.08871" cy="97.793" rx="1.45219" ry="1.45219" style="stroke:rgb(0,0,0);stroke-width:0.1;fill:none;"/>
  <path d="M74.6907,63.0907 A2.00302,2.00302 0 0,0 72.6877,61.0876 " style="stroke:rgb(0,0,0);stroke-width:0.1;fill:none" />
  <path d="M3.4332,61.0876 L72.6877,61.0876" style="stroke:rgb(0,0,0);stroke-width:0.1;fill:none" />
  <path d="M9.59249,112.315 L13.0978,112.315" style="stroke:rgb(0,0,0);stroke-width:0.1;fill:none" />
  <path d="M13.0978,112.315 L13.0978,104.503" style="stroke:rgb(0,0,0);stroke-width:0.1;fill:none" />
  <path d="M13.0978,104.503 L11.7958,104.503" style="stroke:rgb(0,0,0);stroke-width:0.1;fill:none" />
  <path d="M11.7958,104.503 L11.7958,101.899" style="stroke:rgb(0,0,0);stroke-width:0.1;fill:none" />
  <path d="M11.7958,101.899 L13.0978,101.899" style="stroke:rgb(0,0,0);stroke-width:0.1;fill:none" />
  <path d="M13.0978,101.899 L13.0978,100.297" style="stroke:rgb(0,0,0);stroke-width:0.1;fill:none" />
  <path d="M13.0978,100.297 L16.1023,100.297" style="stroke:rgb(0,0,0);stroke-width:0.1;fill:none" />
  <path d="M16.1023,100.297 L16.1023,101.899" style="stroke:rgb(0,0,0);stroke-width:0.1;fill:none" />
  <path d="M16.1023,101.899 L17.4043,101.899" style="stroke:rgb(0,0,0);stroke-width:0.1;fill:none" />
  <path d="M17.4043,101.899 L17.4043,104.503" style="stroke:rgb(0,0,0);stroke-width:0.1;fill:none" />
  <path d="M17.4043,104.503 L16.1023,104.503" style="stroke:rgb(0,0,0);stroke-width:0.1;fill:none" />
  <path d="M16.1023,104.503 L16.1023,112.315" style="stroke:rgb(0,0,0);stroke-width:0.1;fill:none" />
  <path d="M9.59249,116.822 L9.59249,112.315" style="stroke:rgb(0,0,0);stroke-width:0.1;fill:none" />
  <path d="M1.43017,116.822 L9.59249,116.822" style="stroke:rgb(0,0,0);stroke-width:0.1;fill:none" />
  <path d="M74.6907,63.0907 L74.6907,116.822" style="stroke:rgb(0,0,0);stroke-width:0.1;fill:none" />
  <path d="M3.4332,61.0876 A2.00303,2.00303 0 0,0 1.43017,63.0907 " style="stroke:rgb(0,0,0);stroke-width:0.1;fill:none" />
  <path d="M1.43017,63.0907 L1.43017,116.822" style="stroke:rgb(0,0,0);stroke-width:0.1;fill:none" />
  <ellipse cx="22.6121" cy="82.2696" rx="11.267" ry="11.267" style="stroke:rgb(0,0,0);stroke-width:0.1;fill:none;"/>
  <path d="M23.5033,106.807 L23.5033,112.315" style="stroke:rgb(0,0,0);stroke-width:0.1;fill:none" />
  <path d="M35.5418,106.807 L35.5418,112.315" style="stroke:rgb(0,0,0);stroke-width:0.1;fill:none" />
  <path d="M23.5033,106.807 L35.5418,106.807" style="stroke:rgb(0,0,0);stroke-width:0.1;fill:none" />
  <path d="M16.1023,112.315 L23.5033,112.315" style="stroke:rgb(0,0,0);stroke-width:0.1;fill:none" />
  <path d="M45.1461,112.315 L45.1461,104.503" style="stroke:rgb(0,0,0);stroke-width:0.1;fill:none" />
  <path d="M45.1461,104.503 L43.8442,104.503" style="stroke:rgb(0,0,0);stroke-width:0.1;fill:none" />
  <path d="M43.8442,104.503 L43.8442,101.899" style="stroke:rgb(0,0,0);stroke-width:0.1;fill:none" />
  <path d="M43.8442,101.899 L45.1461,101.899" style="stroke:rgb(0,0,0);stroke-width:0.1;fill:none" />
  <path d="M45.1461,101.899 L45.1461,100.297" style="stroke:rgb(0,0,0);stroke-width:0.1;fill:none" />
  <path d="M45.1461,100.297 L48.1507,100.297" style="stroke:rgb(0,0,0);stroke-width:0.1;fill:none" />
  <path d="M48.1507,100.297 L48.1507,101.899" style="stroke:rgb(0,0,0);stroke-width:0.1;fill:none" />
  <path d="M48.1507,101.899 L49.4526,101.899" style="stroke:rgb(0,0,0);stroke-width:0.1;fill:none" />
  <path d="M49.4526,101.899 L49.4526,104.503" style="stroke:rgb(0,0,0);stroke-width:0.1;fill:none" />
  <path d="M49.4526,104.503 L48.1507,104.503" style="stroke:rgb(0,0,0);stroke-width:0.1;fill:none" />
  <path d="M48.1507,104.503 L48.1507,112.315" style="stroke:rgb(0,0,0);stroke-width:0.1;fill:none" />
  <path d="M35.5418,112.315 L45.1461,112.315" style="stroke:rgb(0,0,0);stroke-width:0.1;fill:none" />
  <path d="M66.6786,112.315 L66.6786,116.822" style="stroke:rgb(0,0,0);stroke-width:0.1;fill:none" />
  <path d="M66.6786,116.822 L74.6907,116.822" style="stroke:rgb(0,0,0);stroke-width:0.1;fill:none" />
  <path d="M48.1507,112.315 L66.6786,112.315" style="stroke:rgb(0,0,0);stroke-width:0.1;fill:none" />
  <ellipse cx="22.6121" cy="8.90891" rx="1.45219" ry="1.45219" style="stroke:rgb(0,0,0);stroke-width:0.1;fill:none;"/>
  <ellipse cx="22.6121" cy="39.9558" rx="1.45219" ry="1.45219" style="stroke:rgb(0,0,0);stroke-width:0.1;fill:none;"/>
  <ellipse cx="9.16845" cy="32.194" rx="1.45219" ry="1.45219" style="stroke:rgb(0,0,0);stroke-width:0.1;fill:none;"/>
  <ellipse cx="9.16845" cy="16.6706" rx="1.45219" ry="1.45219" style="stroke:rgb(0,0,0);stroke-width:0.1;fill:none;"/>
  <ellipse cx="70.6847" cy="8.40816" rx="1.45219" ry="1.45219" style="stroke:rgb(0,0,0);stroke-width:0.1;fill:none;"/>
  <ellipse cx="65.6771" cy="28.4384" rx="1.45219" ry="1.45219" style="stroke:rgb(0,0,0);stroke-width:0.1;fill:none;"/>
  <ellipse cx="65.6771" cy="20.4263" rx="1.45219" ry="1.45219" style="stroke:rgb(0,0,0);stroke-width:0.1;fill:none;"/>
  <ellipse cx="7.08871" cy="8.90891" rx="1.45219" ry="1.45219" style="stroke:rgb(0,0,0);stroke-width:0.1;fill:none;"/>
  <ellipse cx="38.1356" cy="8.90891" rx="1.45219" ry="1.45219" style="stroke:rgb(0,0,0);stroke-width:0.1;fill:none;"/>
  <ellipse cx="38.1356" cy="39.9558" rx="1.45219" ry="1.45219" style="stroke:rgb(0,0,0);stroke-width:0.1;fill:none;"/>
  <ellipse cx="7.08871" cy="39.9558" rx="1.45219" ry="1.45219" style="stroke:rgb(0,0,0);stroke-width:0.1;fill:none;"/>
  <path d="M74.6907,5.2534 A2.00302,2.00302 0 0,0 72.6877,3.25038 " style="stroke:rgb(0,0,0);stroke-width:0.1;fill:none" />
  <path d="M3.4332,3.25038 L72.6877,3.25038" style="stroke:rgb(0,0,0);stroke-width:0.1;fill:none" />
  <ellipse cx="15.6016" cy="14.4172" rx="1.45219" ry="1.45219" style="stroke:rgb(0,0,0);stroke-width:0.1;fill:none;"/>
  <ellipse cx="15.6016" cy="34.4474" rx="1.45219" ry="1.45219" style="stroke:rgb(0,0,0);stroke-width:0.1;fill:none;"/>
  <ellipse cx="44.6454" cy="14.4172" rx="1.45219" ry="1.45219" style="stroke:rgb(0,0,0);stroke-width:0.1;fill:none;"/>
  <ellipse cx="44.6454" cy="34.4474" rx="1.45219" ry="1.45219" style="stroke:rgb(0,0,0);stroke-width:0.1;fill:none;"/>
  <path d="M59.7682,21.8284 L74.6907,21.8284" style="stroke:rgb(0,0,0);stroke-width:0.1;fill:none" />
  <path d="M59.7682,27.0363 L59.7682,21.8284" style="stroke:rgb(0,0,0);stroke-width:0.1;fill:none" />
  <path d="M74.6907,27.0363 L59.7682,27.0363" style="stroke:rgb(0,0,0);stroke-width:0.1;fill:none" />
  <path d="M74.6907,5.2534 L74.6907,21.9085" style="stroke:rgb(0,0,0);stroke-width:0.1;fill:none" />
  <path d="M3.4332,3.25038 A2.00303,2.00303 0 0,0 1.43017,5.25341 " style="stroke:rgb(0,0,0);stroke-width:0.1;fill:none" />
  <ellipse cx="70.6847" cy="40.4565" rx="1.45219" ry="1.45219" style="stroke:rgb(0,0,0);stroke-width:0.1;fill:none;"/>
  <path d="M1.43017,5.25341 L1.43017,54.4777" style="stroke:rgb(0,0,0);stroke-width:0.1;fill:none" />
  <path d="M74.6907,26.9561 L74.6907,54.4777" style="stroke:rgb(0,0,0);stroke-width:0.1;fill:none" />
  <ellipse cx="22.6121" cy="24.4323" rx="8.46277" ry="8.46277" style="stroke:rgb(0,0,0);stroke-width:0.1;fill:none;"/>
  <path d="M35.5418,48.9694 L35.5418,54.4777" style="stroke:rgb(0,0,0);stroke-width:0.1;fill:none" />
  <path d="M23.5033,48.9694 L23.5033,54.4777" style="stroke:rgb(0,0,0);stroke-width:0.1;fill:none" />
  <path d="M23.5033,48.9694 L35.5418,48.9694" style="stroke:rgb(0,0,0);stroke-width:0.1;fill:none" />
  <path d="M1.43017,54.4777 L23.5033,54.4777" style="stroke:rgb(0,0,0);stroke-width:0.1;fill:none" />
  <path d="M35.5418,54.4777 L74.6907,54.4777" style="stroke:rgb(0,0,0);stroke-width:0.1;fill:none" />
  <ellipse cx="102.733" cy="68.9996" rx="1.45219" ry="1.45219" style="stroke:rgb(0,0,0);stroke-width:0.1;fill:none;"/>
  <ellipse cx="102.733" cy="100.046" rx="1.45219" ry="1.45219" style="stroke:rgb(0,0,0);stroke-width:0.1;fill:none;"/>
  <ellipse cx="89.2893" cy="92.2847" rx="1.45219" ry="1.45219" style="stroke:rgb(0,0,0);stroke-width:0.1;fill:none;"/>
  <ellipse cx="89.2893" cy="76.7613" rx="1.45219" ry="1.45219" style="stroke:rgb(0,0,0);stroke-width:0.1;fill:none;"/>
  <ellipse cx="150.806" cy="68.4988" rx="1.45219" ry="1.45219" style="stroke:rgb(0,0,0);stroke-width:0.1;fill:none;"/>
  <ellipse cx="87.2096" cy="68.9996" rx="1.45219" ry="1.45219" style="stroke:rgb(0,0,0);stroke-width:0.1;fill:none;"/>
  <ellipse cx="118.256" cy="68.9996" rx="1.45219" ry="1.45219" style="stroke:rgb(0,0,0);stroke-width:0.1;fill:none;"/>
  <ellipse cx="118.256" cy="100.046" rx="1.45219" ry="1.45219" style="stroke:rgb(0,0,0);stroke-width:0.1;fill:none;"/>
  <ellipse cx="87.2096" cy="100.046" rx="1.45219" ry="1.45219" style="stroke:rgb(0,0,0);stroke-width:0.1;fill:none;"/>
  <path d="M154.812,65.3441 A2.00302,2.00302 0 0,0 152.809,63.341 " style="stroke:rgb(0,0,0);stroke-width:0.1;fill:none" />
  <path d="M146.714,79.3902 A1.45219,1.45219 0 0,0 144.882,79.3902 " style="stroke:rgb(0,0,0);stroke-width:0.1;fill:none" />
  <path d="M144.882,89.6557 A1.45219,1.45219 0 0,0 146.714,89.6557 " style="stroke:rgb(0,0,0);stroke-width:0.1;fill:none" />
  <path d="M146.714,79.3902 L154.812,79.3902" style="stroke:rgb(0,0,0);stroke-width:0.1;fill:none" />
  <path d="M154.812,65.3441 L154.812,79.3902" style="stroke:rgb(0,0,0);stroke-width:0.1;fill:none" />
  <path d="M83.5541,63.341 A2.00303,2.00303 0 0,0 81.551,65.3441 " style="stroke:rgb(0,0,0);stroke-width:0.1;fill:none" />
  <ellipse cx="150.806" cy="100.547" rx="1.45219" ry="1.45219" style="stroke:rgb(0,0,0);stroke-width:0.1;fill:none;"/>
  <path d="M154.812,89.6557 L146.714,89.6557" style="stroke:rgb(0,0,0);stroke-width:0.1;fill:none" />
  <path d="M81.551,114.568 L81.551,65.3441" style="stroke:rgb(0,0,0);stroke-width:0.1;fill:none" />
  <path d="M154.812,89.6557 L154.812,114.568" style="stroke:rgb(0,0,0);stroke-width:0.1;fill:none" />
  <path d="M111.346,68.3486 L111.346,79.3902" style="stroke:rgb(0,0,0);stroke-width:0.1;fill:none" />
  <path d="M111.346,79.3902 L144.882,79.3902" style="stroke:rgb(0,0,0);stroke-width:0.1;fill:none" />
  <path d="M116.354,63.341 A5.00755,5.00755 0 0,0 111.346,68.3486 " style="stroke:rgb(0,0,0);stroke-width:0.1;fill:none" />
  <path d="M107.941,67.3471 A4.00604,4.00604 0 0,0 103.935,63.341 " style="stroke:rgb(0,0,0);stroke-width:0.1;fill:none" />
  <path d="M116.354,63.341 L152.809,63.341" style="stroke:rgb(0,0,0);stroke-width:0.1;fill:none" />
  <path d="M83.5541,63.341 L103.935,63.341" style="stroke:rgb(0,0,0);stroke-width:0.1;fill:none" />
  <path d="M107.941,67.3471 L107.941,77.8524" style="stroke:rgb(0,0,0);stroke-width:0.1;fill:none" />
  <path d="M107.943,77.8542 A8.46277,8.46277 0 1,0 106.575,92.0633 " style="stroke:rgb(0,0,0);stroke-width:0.1;fill:none" />
  <path d="M107.941,94.5381 L107.941,109.06" style="stroke:rgb(0,0,0);stroke-width:0.1;fill:none" />
  <path d="M111.346,89.6557 L111.346,109.06" style="stroke:rgb(0,0,0);stroke-width:0.1;fill:none" />
  <path d="M111.346,89.6557 L144.882,89.6557" style="stroke:rgb(0,0,0);stroke-width:0.1;fill:none" />
  <path d="M107.941,94.5381 A3.06081,3.06081 0 0,0 106.575,92.0633 " style="stroke:rgb(0,0,0);stroke-width:0.1;fill:none" />
  <path d="M123.214,71.8191 L126.319,71.8191" style="stroke:rgb(0,0,0);stroke-width:0.1;fill:none" />
  <path d="M121.662,74.5079 L123.214,71.8191" style="stroke:rgb(0,0,0);stroke-width:0.1;fill:none" />
  <path d="M126.319,71.8191 L127.871,74.5079" style="stroke:rgb(0,0,0);stroke-width:0.1;fill:none" />
  <path d="M127.871,74.5079 L126.319,77.1966" style="stroke:rgb(0,0,0);stroke-width:0.1;fill:none" />
  <path d="M126.319,77.1966 L123.214,77.1966" style="stroke:rgb(0,0,0);stroke-width:0.1;fill:none" />
  <path d="M123.214,77.1966 L121.662,74.5079" style="stroke:rgb(0,0,0);stroke-width:0.1;fill:none" />
  <path d="M94.1701,71.8191 L97.2748,71.8191" style="stroke:rgb(0,0,0);stroke-width:0.1;fill:none" />
  <path d="M92.6177,74.5079 L94.1701,71.8191" style="stroke:rgb(0,0,0);stroke-width:0.1;fill:none" />
  <path d="M97.2748,71.8191 L98.8271,74.5079" style="stroke:rgb(0,0,0);stroke-width:0.1;fill:none" />
  <path d="M98.8271,74.5079 L97.2748,77.1966" style="stroke:rgb(0,0,0);stroke-width:0.1;fill:none" />
  <path d="M97.2748,77.1966 L94.1701,77.1966" style="stroke:rgb(0,0,0);stroke-width:0.1;fill:none" />
  <path d="M94.1701,77.1966 L92.6177,74.5079" style="stroke:rgb(0,0,0);stroke-width:0.1;fill:none" />
  <path d="M94.1701,91.8494 L97.2748,91.8494" style="stroke:rgb(0,0,0);stroke-width:0.1;fill:none" />
  <path d="M92.6177,94.5381 L94.1701,91.8494" style="stroke:rgb(0,0,0);stroke-width:0.1;fill:none" />
  <path d="M97.2748,91.8494 L98.8271,94.5381" style="stroke:rgb(0,0,0);stroke-width:0.1;fill:none" />
  <path d="M98.8271,94.5381 L97.2748,97.2268" style="stroke:rgb(0,0,0);stroke-width:0.1;fill:none" />
  <path d="M97.2748,97.2268 L94.1701,97.2268" style="stroke:rgb(0,0,0);stroke-width:0.1;fill:none" />
  <path d="M94.1701,97.2268 L92.6177,94.5381" style="stroke:rgb(0,0,0);stroke-width:0.1;fill:none" />
  <path d="M123.214,91.8494 L126.319,91.8494" style="stroke:rgb(0,0,0);stroke-width:0.1;fill:none" />
  <path d="M121.662,94.5381 L123.214,91.8494" style="stroke:rgb(0,0,0);stroke-width:0.1;fill:none" />
  <path d="M126.319,91.8494 L127.871,94.5381" style="stroke:rgb(0,0,0);stroke-width:0.1;fill:none" />
  <path d="M127.871,94.5381 L126.319,97.2268" style="stroke:rgb(0,0,0);stroke-width:0.1;fill:none" />
  <path d="M126.319,97.2268 L123.214,97.2268" style="stroke:rgb(0,0,0);stroke-width:0.1;fill:none" />
  <path d="M123.214,97.2268 L121.662,94.5381" style="stroke:rgb(0,0,0);stroke-width:0.1;fill:none" />
  <path d="M99.5245,114.568 L99.5245,109.06" style="stroke:rgb(0,0,0);stroke-width:0.1;fill:none" />
  <path d="M99.5245,109.06 L107.941,109.06" style="stroke:rgb(0,0,0);stroke-width:0.1;fill:none" />
  <path d="M81.551,114.568 L99.5245,114.568" style="stroke:rgb(0,0,0);stroke-width:0.1;fill:none" />
  <path d="M119.762,109.06 L119.762,114.568" style="stroke:rgb(0,0,0);stroke-width:0.1;fill:none" />
  <path d="M119.762,114.568 L154.812,114.568" style="stroke:rgb(0,0,0);stroke-width:0.1;fill:none" />
  <path d="M111.346,109.06 L119.762,109.06" style="stroke:rgb(0,0,0);stroke-width:0.1;fill:none" />
  <ellipse cx="102.733" cy="22.1789" rx="8.46277" ry="8.46277" style="stroke:rgb(0,0,0);stroke-width:0.1;fill:none;"/>
  <ellipse cx="150.806" cy="6.15476" rx="1.45219" ry="1.45219" style="stroke:rgb(0,0,0);stroke-width:0.1;fill:none;"/>
  <ellipse cx="150.806" cy="38.2031" rx="1.45219" ry="1.45219" style="stroke:rgb(0,0,0);stroke-width:0.1;fill:none;"/>
  <ellipse cx="145.798" cy="26.185" rx="1.45219" ry="1.45219" style="stroke:rgb(0,0,0);stroke-width:0.1;fill:none;"/>
  <ellipse cx="145.798" cy="18.1729" rx="1.45219" ry="1.45219" style="stroke:rgb(0,0,0);stroke-width:0.1;fill:none;"/>
  <ellipse cx="87.2096" cy="6.65551" rx="1.45219" ry="1.45219" style="stroke:rgb(0,0,0);stroke-width:0.1;fill:none;"/>
  <ellipse cx="118.256" cy="6.65551" rx="1.45219" ry="1.45219" style="stroke:rgb(0,0,0);stroke-width:0.1;fill:none;"/>
  <ellipse cx="118.256" cy="37.7024" rx="1.45219" ry="1.45219" style="stroke:rgb(0,0,0);stroke-width:0.1;fill:none;"/>
  <ellipse cx="87.2096" cy="37.7024" rx="1.45219" ry="1.45219" style="stroke:rgb(0,0,0);stroke-width:0.1;fill:none;"/>
  <path d="M154.812,3 A2.00302,2.00302 0 0,0 152.809,0.996978 " style="stroke:rgb(0,0,0);stroke-width:0.1;fill:none" />
  <path d="M83.5541,0.996978 L152.809,0.996978" style="stroke:rgb(0,0,0);stroke-width:0.1;fill:none" />
  <ellipse cx="102.733" cy="6.65551" rx="1.45219" ry="1.45219" style="stroke:rgb(0,0,0);stroke-width:0.1;fill:none;"/>
  <ellipse cx="89.2893" cy="14.4172" rx="1.45219" ry="1.45219" style="stroke:rgb(0,0,0);stroke-width:0.1;fill:none;"/>
  <ellipse cx="89.2893" cy="29.9406" rx="1.45219" ry="1.45219" style="stroke:rgb(0,0,0);stroke-width:0.1;fill:none;"/>
  <ellipse cx="102.733" cy="37.7024" rx="1.45219" ry="1.45219" style="stroke:rgb(0,0,0);stroke-width:0.1;fill:none;"/>
  <ellipse cx="95.7224" cy="12.1638" rx="1.45219" ry="1.45219" style="stroke:rgb(0,0,0);stroke-width:0.1;fill:none;"/>
  <ellipse cx="95.7224" cy="32.194" rx="1.45219" ry="1.45219" style="stroke:rgb(0,0,0);stroke-width:0.1;fill:none;"/>
  <ellipse cx="124.766" cy="12.1638" rx="1.45219" ry="1.45219" style="stroke:rgb(0,0,0);stroke-width:0.1;fill:none;"/>
  <ellipse cx="124.766" cy="32.194" rx="1.45219" ry="1.45219" style="stroke:rgb(0,0,0);stroke-width:0.1;fill:none;"/>
  <path d="M139.889,19.575 L154.812,19.575" style="stroke:rgb(0,0,0);stroke-width:0.1;fill:none" />
  <path d="M154.812,24.7829 L139.889,24.7829" style="stroke:rgb(0,0,0);stroke-width:0.1;fill:none" />
  <path d="M139.889,24.7829 L139.889,19.575" style="stroke:rgb(0,0,0);stroke-width:0.1;fill:none" />
  <path d="M89.7134,52.2243 L93.2187,52.2243" style="stroke:rgb(0,0,0);stroke-width:0.1;fill:none" />
  <path d="M93.2187,52.2243 L93.2187,44.4125" style="stroke:rgb(0,0,0);stroke-width:0.1;fill:none" />
  <path d="M93.2187,44.4125 L91.9167,44.4125" style="stroke:rgb(0,0,0);stroke-width:0.1;fill:none" />
  <path d="M91.9167,44.4125 L91.9167,41.8085" style="stroke:rgb(0,0,0);stroke-width:0.1;fill:none" />
  <path d="M91.9167,41.8085 L93.2187,41.8085" style="stroke:rgb(0,0,0);stroke-width:0.1;fill:none" />
  <path d="M93.2187,41.8085 L93.2187,40.2061" style="stroke:rgb(0,0,0);stroke-width:0.1;fill:none" />
  <path d="M93.2187,40.2061 L96.2232,40.2061" style="stroke:rgb(0,0,0);stroke-width:0.1;fill:none" />
  <path d="M96.2232,40.2061 L96.2232,41.8085" style="stroke:rgb(0,0,0);stroke-width:0.1;fill:none" />
  <path d="M96.2232,41.8085 L97.5251,41.8085" style="stroke:rgb(0,0,0);stroke-width:0.1;fill:none" />
  <path d="M97.5251,41.8085 L97.5251,44.4125" style="stroke:rgb(0,0,0);stroke-width:0.1;fill:none" />
  <path d="M97.5251,44.4125 L96.2232,44.4125" style="stroke:rgb(0,0,0);stroke-width:0.1;fill:none" />
  <path d="M96.2232,44.4125 L96.2232,52.2243" style="stroke:rgb(0,0,0);stroke-width:0.1;fill:none" />
  <path d="M89.7134,56.7311 L89.7134,52.2243" style="stroke:rgb(0,0,0);stroke-width:0.1;fill:none" />
  <path d="M81.551,56.7311 L89.7134,56.7311" style="stroke:rgb(0,0,0);stroke-width:0.1;fill:none" />
  <path d="M154.812,3 L154.812,19.575" style="stroke:rgb(0,0,0);stroke-width:0.1;fill:none" />
  <path d="M154.812,24.7829 L154.812,56.7311" style="stroke:rgb(0,0,0);stroke-width:0.1;fill:none" />
  <path d="M83.5541,0.996978 A2.00302,2.00302 0 0,0 81.551,3 " style="stroke:rgb(0,0,0);stroke-width:0.1;fill:none" />
  <path d="M81.551,56.7311 L81.551,3.00001" style="stroke:rgb(0,0,0);stroke-width:0.1;fill:none" />
  <path d="M100.444,46.716 L100.444,52.2243" style="stroke:rgb(0,0,0);stroke-width:0.1;fill:none" />
  <path d="M118.843,46.716 L118.843,52.2243" style="stroke:rgb(0,0,0);stroke-width:0.1;fill:none" />
  <path d="M100.444,46.716 L118.843,46.716" style="stroke:rgb(0,0,0);stroke-width:0.1;fill:none" />
  <path d="M96.2232,52.2243 L100.444,52.2243" style="stroke:rgb(0,0,0);stroke-width:0.1;fill:none" />
  <path d="M125.267,52.2243 L125.267,44.4125" style="stroke:rgb(0,0,0);stroke-width:0.1;fill:none" />
  <path d="M125.267,44.4125 L123.965,44.4125" style="stroke:rgb(0,0,0);stroke-width:0.1;fill:none" />
  <path d="M123.965,44.4125 L123.965,41.8085" style="stroke:rgb(0,0,0);stroke-width:0.1;fill:none" />
  <path d="M123.965,41.8085 L125.267,41.8085" style="stroke:rgb(0,0,0);stroke-width:0.1;fill:none" />
  <path d="M125.267,41.8085 L125.267,40.2061" style="stroke:rgb(0,0,0);stroke-width:0.1;fill:none" />
  <path d="M125.267,40.2061 L128.272,40.2061" style="stroke:rgb(0,0,0);stroke-width:0.1;fill:none" />
  <path d="M128.272,40.2061 L128.272,41.8085" style="stroke:rgb(0,0,0);stroke-width:0.1;fill:none" />
  <path d="M128.272,41.8085 L129.573,41.8085" style="stroke:rgb(0,0,0);stroke-width:0.1;fill:none" />
  <path d="M129.573,41.8085 L129.573,44.4125" style="stroke:rgb(0,0,0);stroke-width:0.1;fill:none" />
  <path d="M129.573,44.4125 L128.272,44.4125" style="stroke:rgb(0,0,0);stroke-width:0.1;fill:none" />
  <path d="M128.272,44.4125 L128.272,52.2243" style="stroke:rgb(0,0,0);stroke-width:0.1;fill:none" />
  <path d="M118.843,52.2243 L125.267,52.2243" style="stroke:rgb(0,0,0);stroke-width:0.1;fill:none" />
  <path d="M146.799,52.2243 L146.799,56.7311" style="stroke:rgb(0,0,0);stroke-width:0.1;fill:none" />
  <path d="M146.799,56.7311 L154.812,56.7311" style="stroke:rgb(0,0,0);stroke-width:0.1;fill:none" />
  <path d="M128.272,52.2243 L146.799,52.2243" style="stroke:rgb(0,0,0);stroke-width:0.1;fill:none" />
  <path d="M172.764,74.0822 L161.747,74.0822" style="stroke:rgb(0,0,0);stroke-width:0.1;fill:none" />
  <path d="M172.764,0.821714 L161.747,0.821714" style="stroke:rgb(0,0,0);stroke-width:0.1;fill:none" />
  <path d="M172.764,74.0822 L172.764,65.9199" style="stroke:rgb(0,0,0);stroke-width:0.1;fill:none" />
  <path d="M172.764,65.9199 L172.764,74.0822" style="stroke:rgb(0,0,0);stroke-width:0.1;fill:none" />
  <path d="M161.747,74.0822 L161.747,65.9199" style="stroke:rgb(0,0,0);stroke-width:0.1;fill:none" />
  <path d="M178.272,65.9199 L172.764,65.9199" style="stroke:rgb(0,0,0);stroke-width:0.1;fill:none" />
  <path d="M156.239,65.9199 L161.747,65.9199" style="stroke:rgb(0,0,0);stroke-width:0.1;fill:none" />
  <ellipse cx="158.993" cy="60.9124" rx="1.45219" ry="1.45219" style="stroke:rgb(0,0,0);stroke-width:0.1;fill:none;"/>
  <ellipse cx="175.518" cy="60.9124" rx="1.45219" ry="1.45219" style="stroke:rgb(0,0,0);stroke-width:0.1;fill:none;"/>
  <ellipse cx="165.663" cy="45.9899" rx="5.50831" ry="5.50831" style="stroke:rgb(0,0,0);stroke-width:0.1;fill:none;"/>
  <ellipse cx="175.518" cy="28.864" rx="1.45219" ry="1.45219" style="stroke:rgb(0,0,0);stroke-width:0.1;fill:none;"/>
  <ellipse cx="158.993" cy="28.864" rx="1.45219" ry="1.45219" style="stroke:rgb(0,0,0);stroke-width:0.1;fill:none;"/>
  <path d="M161.747,8.8338 L156.239,8.8338" style="stroke:rgb(0,0,0);stroke-width:0.1;fill:none" />
  <path d="M172.764,8.8338 L178.272,8.8338" style="stroke:rgb(0,0,0);stroke-width:0.1;fill:none" />
  <path d="M161.747,0.821714 L161.747,8.8338" style="stroke:rgb(0,0,0);stroke-width:0.1;fill:none" />
  <path d="M172.764,0.821714 L172.764,8.8338" style="stroke:rgb(0,0,0);stroke-width:0.1;fill:none" />
  <path d="M178.272,65.9199 L178.272,8.8338" style="stroke:rgb(0,0,0);stroke-width:0.1;fill:none" />
  <path d="M156.239,65.9199 L156.239,8.8338" style="stroke:rgb(0,0,0);stroke-width:0.1;fill:none" />
</svg>
