999
dxflib 2.2.0.0
  0
SECTION
  2
HEADER
  9
$ACADVER
  1
AC1015
  9
$HANDSEED
  5
FFFF
  9
$DIMASZ
 40
2.5
  9
$GRIDMODE
 70
1
  9
$PLIMMIN
 10
0.0
 20
0.0
  9
$DIMEXE
 40
1.25
  9
$DIMGAP
 40
0.625
  9
$PLIMMAX
 10
210.0
 20
297.0
  9
$PINSBASE
 10
97.3113926542550018
 20
170.7130121411295534
 30
0.0
  9
$INSUNITS
 70
4
  9
$DIMSTYLE
  2
Standard
  9
$CLAYER
  8
3 Filament Guide
  9
$DIMEXO
 40
0.625
  9
$DIMTXT
 40
2.5
  9
$CLAYER
  8
0
  0
ENDSEC
  0
SECTION
  2
TABLES
  0
TABLE
  2
VPORT
  5
8
100
AcDbSymbolTable
 70
1
  0
VPORT
  5
30
100
AcDbSymbolTableRecord
100
AcDbViewportTableRecord
  2
*Active
 70
0
 10
0.0
 20
0.0
 11
1.0
 21
1.0
 12
286.3055555555554861
 22
148.5
 13
0.0
 23
0.0
 14
10.0
 24
10.0
 15
10.0
 25
10.0
 16
0.0
 26
0.0
 36
1.0
 17
0.0
 27
0.0
 37
0.0
 40
297.0
 41
1.92798353909465
 42
50.0
 43
0.0
 44
0.0
 50
0.0
 51
0.0
 71
0
 72
100
 73
1
 74
3
 75
1
 76
1
 77
0
 78
0
281
0
 65
1
110
0.0
120
0.0
130
0.0
111
1.0
121
0.0
131
0.0
112
0.0
122
1.0
132
0.0
 79
0
146
0.0
  0
ENDTAB
  0
TABLE
  2
LTYPE
  5
5
100
AcDbSymbolTable
 70
21
  0
LTYPE
  5
14
100
AcDbSymbolTableRecord
100
AcDbLinetypeTableRecord
  2
ByBlock
 70
0
  3

 72
65
 73
0
 40
0.0
  0
LTYPE
  5
15
100
AcDbSymbolTableRecord
100
AcDbLinetypeTableRecord
  2
ByLayer
 70
0
  3

 72
65
 73
0
 40
0.0
  0
LTYPE
  5
16
100
AcDbSymbolTableRecord
100
AcDbLinetypeTableRecord
  2
CONTINUOUS
 70
0
  3
Solid line
 72
65
 73
0
 40
0.0
  0
LTYPE
  5
31
100
AcDbSymbolTableRecord
100
AcDbLinetypeTableRecord
  2
DOT
 70
0
  3
Dot . . . . . . . . . . . . . . . . . . . . . .
 72
65
 73
2
 40
6.3499999999999996
 49
0.0
 74
0
 49
-6.3499999999999996
 74
0
  0
LTYPE
  5
32
100
AcDbSymbolTableRecord
100
AcDbLinetypeTableRecord
  2
DOT2
 70
0
  3
Dot (.5x) .....................................
 72
65
 73
2
 40
3.1749999999999998
 49
0.0
 74
0
 49
-3.1749999999999998
 74
0
  0
LTYPE
  5
33
100
AcDbSymbolTableRecord
100
AcDbLinetypeTableRecord
  2
DOTX2
 70
0
  3
Dot (2x) .  .  .  .  .  .  .  .  .  .  .  .  .
 72
65
 73
2
 40
12.6999999999999993
 49
0.0
 74
0
 49
-12.6999999999999993
 74
0
  0
LTYPE
  5
34
100
AcDbSymbolTableRecord
100
AcDbLinetypeTableRecord
  2
DASHED
 70
0
  3
Dashed __ __ __ __ __ __ __ __ __ __ __ __ __ _
 72
65
 73
2
 40
19.0500000000000007
 49
12.6999999999999993
 74
0
 49
-6.3499999999999996
 74
0
  0
LTYPE
  5
35
100
AcDbSymbolTableRecord
100
AcDbLinetypeTableRecord
  2
DASHED2
 70
0
  3
Dashed (.5x) _ _ _ _ _ _ _ _ _ _ _ _ _ _ _ _ _
 72
65
 73
2
 40
9.5250000000000004
 49
6.3499999999999996
 74
0
 49
-3.1749999999999998
 74
0
  0
LTYPE
  5
36
100
AcDbSymbolTableRecord
100
AcDbLinetypeTableRecord
  2
DASHEDX2
 70
0
  3
Dashed (2x) ____  ____  ____  ____  ____  ___
 72
65
 73
2
 40
38.1000000000000014
 49
25.3999999999999986
 74
0
 49
-12.6999999999999993
 74
0
  0
LTYPE
  5
37
100
AcDbSymbolTableRecord
100
AcDbLinetypeTableRecord
  2
DASHDOT
 70
0
  3
Dash dot __ . __ . __ . __ . __ . __ . __ . __
 72
65
 73
4
 40
25.3999999999999986
 49
12.6999999999999993
 74
0
 49
-6.3499999999999996
 74
0
 49
0.0
 74
0
 49
-6.3499999999999996
 74
0
  0
LTYPE
  5
38
100
AcDbSymbolTableRecord
100
AcDbLinetypeTableRecord
  2
DASHDOT2
 70
0
  3
Dash dot (.5x) _._._._._._._._._._._._._._._.
 72
65
 73
4
 40
12.6999999999999993
 49
6.3499999999999996
 74
0
 49
-3.1749999999999998
 74
0
 49
0.0
 74
0
 49
-3.1749999999999998
 74
0
  0
LTYPE
  5
39
100
AcDbSymbolTableRecord
100
AcDbLinetypeTableRecord
  2
DASHDOTX2
 70
0
  3
Dash dot (2x) ____  .  ____  .  ____  .  ___
 72
65
 73
4
 40
50.7999999999999972
 49
25.3999999999999986
 74
0
 49
-12.6999999999999993
 74
0
 49
0.0
 74
0
 49
-12.6999999999999993
 74
0
  0
LTYPE
  5
3A
100
AcDbSymbolTableRecord
100
AcDbLinetypeTableRecord
  2
DIVIDE
 70
0
  3
Divide ____ . . ____ . . ____ . . ____ . . ____
 72
65
 73
6
 40
31.75
 49
12.6999999999999993
 74
0
 49
-6.3499999999999996
 74
0
 49
0.0
 74
0
 49
-6.3499999999999996
 74
0
 49
0.0
 74
0
 49
-6.3499999999999996
 74
0
  0
LTYPE
  5
3B
100
AcDbSymbolTableRecord
100
AcDbLinetypeTableRecord
  2
DIVIDE2
 70
0
  3
Divide (.5x) __..__..__..__..__..__..__..__.._
 72
65
 73
6
 40
15.875
 49
6.3499999999999996
 74
0
 49
-3.1749999999999998
 74
0
 49
0.0
 74
0
 49
-3.1749999999999998
 74
0
 49
0.0
 74
0
 49
-3.1749999999999998
 74
0
  0
LTYPE
  5
3C
100
AcDbSymbolTableRecord
100
AcDbLinetypeTableRecord
  2
DIVIDEX2
 70
0
  3
Divide (2x) ________  .  .  ________  .  .  _
 72
65
 73
6
 40
63.5
 49
25.3999999999999986
 74
0
 49
-12.6999999999999993
 74
0
 49
0.0
 74
0
 49
-12.6999999999999993
 74
0
 49
0.0
 74
0
 49
-12.6999999999999993
 74
0
  0
LTYPE
  5
3D
100
AcDbSymbolTableRecord
100
AcDbLinetypeTableRecord
  2
CENTER
 70
0
  3
Center ____ _ ____ _ ____ _ ____ _ ____ _ ____
 72
65
 73
4
 40
50.7999999999999972
 49
31.75
 74
0
 49
-6.3499999999999996
 74
0
 49
6.3499999999999996
 74
0
 49
-6.3499999999999996
 74
0
  0
LTYPE
  5
3E
100
AcDbSymbolTableRecord
100
AcDbLinetypeTableRecord
  2
CENTER2
 70
0
  3
Center (.5x) ___ _ ___ _ ___ _ ___ _ ___ _ ___
 72
65
 73
4
 40
28.5749999999999993
 49
19.0500000000000007
 74
0
 49
-3.1749999999999998
 74
0
 49
3.1749999999999998
 74
0
 49
-3.1749999999999998
 74
0
  0
LTYPE
  5
3F
100
AcDbSymbolTableRecord
100
AcDbLinetypeTableRecord
  2
CENTERX2
 70
0
  3
Center (2x) ________  __  ________  __  _____
 72
65
 73
4
 40
101.5999999999999943
 49
63.5
 74
0
 49
-12.6999999999999993
 74
0
 49
12.6999999999999993
 74
0
 49
-12.6999999999999993
 74
0
  0
LTYPE
  5
40
100
AcDbSymbolTableRecord
100
AcDbLinetypeTableRecord
  2
BORDER
 70
0
  3
Border __ __ . __ __ . __ __ . __ __ . __ __ .
 72
65
 73
6
 40
44.4500000000000028
 49
12.6999999999999993
 74
0
 49
-6.3499999999999996
 74
0
 49
12.6999999999999993
 74
0
 49
-6.3499999999999996
 74
0
 49
0.0
 74
0
 49
-6.3499999999999996
 74
0
  0
LTYPE
  5
41
100
AcDbSymbolTableRecord
100
AcDbLinetypeTableRecord
  2
BORDER2
 70
0
  3
Border (.5x) __.__.__.__.__.__.__.__.__.__.__.
 72
65
 73
6
 40
22.2250000000000014
 49
6.3499999999999996
 74
0
 49
-3.1749999999999998
 74
0
 49
6.3499999999999996
 74
0
 49
-3.1749999999999998
 74
0
 49
0.0
 74
0
 49
-3.1749999999999998
 74
0
  0
LTYPE
  5
42
100
AcDbSymbolTableRecord
100
AcDbLinetypeTableRecord
  2
BORDERX2
 70
0
  3
Border (2x) ____  ____  .  ____  ____  .  ___
 72
65
 73
6
 40
88.9000000000000057
 49
25.3999999999999986
 74
0
 49
-12.6999999999999993
 74
0
 49
25.3999999999999986
 74
0
 49
-12.6999999999999993
 74
0
 49
0.0
 74
0
 49
-12.6999999999999993
 74
0
  0
ENDTAB
  0
TABLE
  2
LAYER
  5
2
100
AcDbSymbolTable
 70
13
  0
LAYER
  5
10
100
AcDbSymbolTableRecord
100
AcDbLayerTableRecord
  2
0
 70
0
 62
7
420
16777215
  6
CONTINUOUS
370
0
390
F
  0
LAYER
  5
43
100
AcDbSymbolTableRecord
100
AcDbLayerTableRecord
  2
2 Spacer Plate
 70
1
 62
-7
420
0
  6
CONTINUOUS
370
0
390
F
  0
LAYER
  5
44
100
AcDbSymbolTableRecord
100
AcDbLayerTableRecord
  2
3 Filament Guide
 70
1
 62
-7
420
16777215
  6
CONTINUOUS
370
0
390
F
  0
LAYER
  5
45
100
AcDbSymbolTableRecord
100
AcDbLayerTableRecord
  2
4 Retainer Plate
 70
1
 62
-7
420
16777215
  6
CONTINUOUS
370
0
390
F
  0
LAYER
  5
46
100
AcDbSymbolTableRecord
100
AcDbLayerTableRecord
  2
Drawings, Timing Pulley
 70
1
 62
-2
420
16776960
  6
CONTINUOUS
370
0
390
F
  0
LAYER
  5
47
100
AcDbSymbolTableRecord
100
AcDbLayerTableRecord
  2
Drawings, Motor (Kysan)
 70
1
 62
-2
420
16776960
  6
CONTINUOUS
370
0
390
F
  0
LAYER
  5
48
100
AcDbSymbolTableRecord
100
AcDbLayerTableRecord
  2
1 Motor Plate
 70
0
 62
7
420
0
  6
CONTINUOUS
370
0
390
F
  0
LAYER
  5
49
100
AcDbSymbolTableRecord
100
AcDbLayerTableRecord
  2
Drawings, Thumb Screw Nut
 70
1
 62
-3
420
65280
  6
CONTINUOUS
370
0
390
F
  0
LAYER
  5
4A
100
AcDbSymbolTableRecord
100
AcDbLayerTableRecord
  2
Drawings, Thumb Screw
 70
1
 62
-2
420
16776960
  6
CONTINUOUS
370
0
390
F
  0
LAYER
  5
4B
100
AcDbSymbolTableRecord
100
AcDbLayerTableRecord
  2
Drawings, Encoder Board
 70
1
 62
-4
420
65535
  6
CONTINUOUS
370
0
390
F
  0
LAYER
  5
4C
100
AcDbSymbolTableRecord
100
AcDbLayerTableRecord
  2
Drawings, Motor (NEMA 17)
 70
1
 62
-2
420
16776960
  6
CONTINUOUS
370
0
390
F
  0
LAYER
  5
4D
100
AcDbSymbolTableRecord
100
AcDbLayerTableRecord
  2
Drawings, Motor (NEMA 17), Dimensions
 70
1
 62
-7
420
0
  6
CONTINUOUS
370
0
390
F
  0
LAYER
  5
4E
100
AcDbSymbolTableRecord
100
AcDbLayerTableRecord
  2
Drawings, Nut M3
 70
1
 62
-4
420
65535
  6
CONTINUOUS
370
0
390
F
  0
ENDTAB
  0
TABLE
  2
STYLE
  5
3
100
AcDbSymbolTable
 70
1
  0
STYLE
  5
11
100
AcDbSymbolTableRecord
100
AcDbTextStyleTableRecord
  2
Standard
 70
0
 40
0.0
 41
0.75
 50
0.0
 71
0
 42
2.5
  3
txt
  4

  0
ENDTAB
  0
TABLE
  2
VIEW
  5
6
100
AcDbSymbolTable
 70
0
  0
ENDTAB
  0
TABLE
  2
UCS
  5
7
100
AcDbSymbolTable
 70
0
  0
ENDTAB
  0
TABLE
  2
APPID
  5
9
100
AcDbSymbolTable
 70
1
  0
APPID
  5
12
100
AcDbSymbolTableRecord
100
AcDbRegAppTableRecord
  2
ACAD
 70
0
  0
ENDTAB
  0
TABLE
  2
DIMSTYLE
  5
A
100
AcDbSymbolTable
 70
1
100
AcDbDimStyleTable
 71
0
  0
DIMSTYLE
105
27
100
AcDbSymbolTableRecord
100
AcDbDimStyleTableRecord
  2
Standard
 41
2.5
 42
0.625
 43
3.75
 44
1.25
 70
0
 73
0
 74
0
 77
1
 78
8
140
2.5
141
2.5
143
0.03937007874016
147
0.625
171
3
172
1
271
2
272
2
274
3
278
44
283
0
284
8
340
11
  0
ENDTAB
  0
TABLE
  2
BLOCK_RECORD
  5
1
100
AcDbSymbolTable
 70
1
  0
BLOCK_RECORD
  5
1F
100
AcDbSymbolTableRecord
100
AcDbBlockTableRecord
  2
*Model_Space
340
22
  0
BLOCK_RECORD
  5
1B
100
AcDbSymbolTableRecord
100
AcDbBlockTableRecord
  2
*Paper_Space
340
1E
  0
BLOCK_RECORD
  5
23
100
AcDbSymbolTableRecord
100
AcDbBlockTableRecord
  2
*Paper_Space0
340
26
  0
BLOCK_RECORD
  5
4F
100
AcDbSymbolTableRecord
100
AcDbBlockTableRecord
  2
tbits
340
0
  0
BLOCK_RECORD
  5
50
100
AcDbSymbolTableRecord
100
AcDbBlockTableRecord
  2
M5_c-1
340
0
  0
BLOCK_RECORD
  5
51
100
AcDbSymbolTableRecord
100
AcDbBlockTableRecord
  2
Group-6
340
0
  0
BLOCK_RECORD
  5
52
100
AcDbSymbolTableRecord
100
AcDbBlockTableRecord
  2
slot m4
340
0
  0
BLOCK_RECORD
  5
53
100
AcDbSymbolTableRecord
100
AcDbBlockTableRecord
  2
Nut, M3
340
0
  0
BLOCK_RECORD
  5
54
100
AcDbSymbolTableRecord
100
AcDbBlockTableRecord
  2
Nut, M3, Hole
340
0
  0
ENDTAB
  0
ENDSEC
  0
SECTION
  2
BLOCKS
  0
BLOCK
  5
20
100
AcDbEntity
  8
0
100
AcDbBlockBegin
  2
*Model_Space
 70
0
 10
0.0
 20
0.0
 30
0.0
  3
*Model_Space
  1

  0
ENDBLK
  5
21
100
AcDbEntity
  8
0
100
AcDbBlockEnd
  0
BLOCK
  5
1C
100
AcDbEntity
 67
1
  8
0
100
AcDbBlockBegin
  2
*Paper_Space
 70
0
 10
0.0
 20
0.0
 30
0.0
  3
*Paper_Space
  1

  0
ENDBLK
  5
1D
100
AcDbEntity
 67
1
  8
0
100
AcDbBlockEnd
  0
BLOCK
  5
24
100
AcDbEntity
  8
0
100
AcDbBlockBegin
  2
*Paper_Space0
 70
0
 10
0.0
 20
0.0
 30
0.0
  3
*Paper_Space0
  1

  0
ENDBLK
  5
25
100
AcDbEntity
  8
0
100
AcDbBlockEnd
  0
BLOCK
  5
55
100
AcDbEntity
  8
0
100
AcDbBlockBegin
  2
tbits
 70
0
 10
0.0
 20
0.0
 30
0.0
  3
tbits
  1

  0
LINE
  5
56
100
AcDbEntity
100
AcDbLine
  8
0
 62
256
370
0
  6
ByLayer
 10
1.5
 20
0.0
 30
0.0
 11
5.0
 21
0.0
 31
0.0
  0
LINE
  5
57
100
AcDbEntity
100
AcDbLine
  8
0
 62
256
370
0
  6
ByLayer
 10
5.0
 20
0.0
 30
0.0
 11
5.0
 21
-4.5
 31
0.0
  0
LINE
  5
58
100
AcDbEntity
100
AcDbLine
  8
0
 62
256
370
0
  6
ByLayer
 10
5.0
 20
-4.5
 30
0.0
 11
10.0
 21
-4.5
 31
0.0
  0
LINE
  5
59
100
AcDbEntity
100
AcDbLine
  8
0
 62
256
370
0
  6
ByLayer
 10
10.0
 20
0.0
 30
0.0
 11
10.0004751072897431
 21
-4.5
 31
0.0
  0
LINE
  5
5A
100
AcDbEntity
100
AcDbLine
  8
0
 62
256
370
0
  6
ByLayer
 10
-10.0
 20
-4.5
 30
0.0
 11
-5.0
 21
-4.5
 31
0.0
  0
LINE
  5
5B
100
AcDbEntity
100
AcDbLine
  8
0
 62
256
370
0
  6
ByLayer
 10
-5.0
 20
0.0
 30
0.0
 11
-5.0
 21
-4.5
 31
0.0
  0
LINE
  5
5C
100
AcDbEntity
100
AcDbLine
  8
0
 62
256
370
0
  6
ByLayer
 10
-10.0
 20
-4.5
 30
0.0
 11
-10.0
 21
0.0
 31
0.0
  0
LINE
  5
5D
100
AcDbEntity
100
AcDbLine
  8
0
 62
256
370
0
  6
ByLayer
 10
-1.5
 20
0.0
 30
0.0
 11
-5.0
 21
0.0
 31
0.0
  0
LINE
  5
5E
100
AcDbEntity
100
AcDbLine
  8
0
 62
256
370
0
  6
ByLayer
 10
1.5
 20
12.0
 30
0.0
 11
1.5
 21
10.4000000000000004
 31
0.0
  0
LINE
  5
5F
100
AcDbEntity
100
AcDbLine
  8
0
 62
256
370
0
  6
ByLayer
 10
-1.5
 20
10.4000000000000004
 30
0.0
 11
-1.5
 21
12.0
 31
0.0
  0
LINE
  5
60
100
AcDbEntity
100
AcDbLine
  8
0
 62
256
370
0
  6
ByLayer
 10
-2.8000000000000003
 20
10.4000000000000004
 30
0.0
 11
-2.8000000000000003
 21
7.7999999999999998
 31
0.0
  0
LINE
  5
61
100
AcDbEntity
100
AcDbLine
  8
0
 62
256
370
0
  6
ByLayer
 10
-1.5
 20
0.0
 30
0.0
 11
-1.5
 21
7.7999999999999998
 31
0.0
  0
LINE
  5
62
100
AcDbEntity
100
AcDbLine
  8
0
 62
256
370
0
  6
ByLayer
 10
1.5
 20
7.7999999999999998
 30
0.0
 11
1.5
 21
0.0
 31
0.0
  0
LINE
  5
63
100
AcDbEntity
100
AcDbLine
  8
0
 62
256
370
0
  6
ByLayer
 10
2.8000000000000003
 20
7.7999999999999998
 30
0.0
 11
2.8000000000000003
 21
10.4000000000000004
 31
0.0
  0
LINE
  5
64
100
AcDbEntity
100
AcDbLine
  8
0
 62
256
370
-1
  6
ByLayer
 10
-1.5
 20
12.0
 30
0.0
 11
1.5
 21
12.0
 31
0.0
  0
LINE
  5
65
100
AcDbEntity
100
AcDbLine
  8
0
 62
256
370
-1
  6
ByLayer
 10
1.5
 20
10.4000000000000004
 30
0.0
 11
2.8000000000000003
 21
10.4000000000000004
 31
0.0
  0
LINE
  5
66
100
AcDbEntity
100
AcDbLine
  8
0
 62
256
370
-1
  6
ByLayer
 10
1.5
 20
7.7999999999999998
 30
0.0
 11
2.8000000000000003
 21
7.7999999999999998
 31
0.0
  0
LINE
  5
67
100
AcDbEntity
100
AcDbLine
  8
0
 62
256
370
-1
  6
ByLayer
 10
-2.8000000000000003
 20
10.4000000000000004
 30
0.0
 11
-1.5
 21
10.4000000000000004
 31
0.0
  0
LINE
  5
68
100
AcDbEntity
100
AcDbLine
  8
0
 62
256
370
-1
  6
ByLayer
 10
-2.8000000000000003
 20
7.7999999999999998
 30
0.0
 11
-1.5
 21
7.7999999999999998
 31
0.0
  0
ENDBLK
  5
69
100
AcDbEntity
  8
0
100
AcDbBlockEnd
  0
BLOCK
  5
6A
100
AcDbEntity
  8
0
100
AcDbBlockBegin
  2
M5_c-1
 70
0
 10
0.0
 20
0.0
 30
0.0
  3
M5_c-1
  1

  0
ENDBLK
  5
6B
100
AcDbEntity
  8
0
100
AcDbBlockEnd
  0
BLOCK
  5
6C
100
AcDbEntity
  8
0
100
AcDbBlockBegin
  2
Group-6
 70
0
 10
0.0
 20
0.0
 30
0.0
  3
Group-6
  1

  0
ENDBLK
  5
6D
100
AcDbEntity
  8
0
100
AcDbBlockEnd
  0
BLOCK
  5
6E
100
AcDbEntity
  8
0
100
AcDbBlockBegin
  2
slot m4
 70
0
 10
0.0
 20
0.0
 30
0.0
  3
slot m4
  1

  0
ENDBLK
  5
6F
100
AcDbEntity
  8
0
100
AcDbBlockEnd
  0
BLOCK
  5
70
100
AcDbEntity
  8
0
100
AcDbBlockBegin
  2
Nut, M3
 70
0
 10
0.0
 20
0.0
 30
0.0
  3
Nut, M3
  1

  0
LINE
  5
71
100
AcDbEntity
100
AcDbLine
  8
Drawings, Nut M3
 62
256
370
-1
  6
ByLayer
 10
-3.004999999999999
 20
0.0000000000000004
 30
0.0
 11
-1.5024999999999977
 21
2.6024063383722407
 31
0.0
  0
LINE
  5
72
100
AcDbEntity
100
AcDbLine
  8
Drawings, Nut M3
 62
256
370
-1
  6
ByLayer
 10
-1.5024999999999977
 20
2.6024063383722407
 30
0.0
 11
1.5024999999999997
 21
2.6024063383722407
 31
0.0
  0
LINE
  5
73
100
AcDbEntity
100
AcDbLine
  8
Drawings, Nut M3
 62
256
370
-1
  6
ByLayer
 10
1.5024999999999997
 20
2.6024063383722407
 30
0.0
 11
3.004999999999999
 21
0.0
 31
0.0
  0
LINE
  5
74
100
AcDbEntity
100
AcDbLine
  8
Drawings, Nut M3
 62
256
370
-1
  6
ByLayer
 10
3.004999999999999
 20
0.0
 30
0.0
 11
1.5025000000000013
 21
-2.6024063383722345
 31
0.0
  0
LINE
  5
75
100
AcDbEntity
100
AcDbLine
  8
Drawings, Nut M3
 62
256
370
-1
  6
ByLayer
 10
1.5025000000000013
 20
-2.6024063383722345
 30
0.0
 11
-1.5025000000000024
 21
-2.602406338372234
 31
0.0
  0
LINE
  5
76
100
AcDbEntity
100
AcDbLine
  8
Drawings, Nut M3
 62
256
370
-1
  6
ByLayer
 10
-1.5025000000000024
 20
-2.602406338372234
 30
0.0
 11
-3.004999999999999
 21
0.0000000000000004
 31
0.0
  0
CIRCLE
  5
77
100
AcDbEntity
100
AcDbCircle
  8
Drawings, Nut M3
 62
256
370
-1
  6
ByLayer
 10
0.000000000000002
 20
0.0
 30
0.0
 40
1.45
  0
ENDBLK
  5
78
100
AcDbEntity
  8
0
100
AcDbBlockEnd
  0
BLOCK
  5
79
100
AcDbEntity
  8
0
100
AcDbBlockBegin
  2
Nut, M3, Hole
 70
0
 10
0.0
 20
0.0
 30
0.0
  3
Nut, M3, Hole
  1

  0
LINE
  5
7A
100
AcDbEntity
100
AcDbLine
  8
Drawings, Nut M3
 62
256
370
-1
  6
ByLayer
 10
-3.0049999999999955
 20
0.0000000000000004
 30
0.0
 11
-1.5024999999999942
 21
2.6024063383722407
 31
0.0
  0
LINE
  5
7B
100
AcDbEntity
100
AcDbLine
  8
Drawings, Nut M3
 62
256
370
-1
  6
ByLayer
 10
-1.5024999999999942
 20
2.6024063383722407
 30
0.0
 11
1.5025000000000033
 21
2.6024063383722407
 31
0.0
  0
LINE
  5
7C
100
AcDbEntity
100
AcDbLine
  8
Drawings, Nut M3
 62
256
370
-1
  6
ByLayer
 10
1.5025000000000033
 20
2.6024063383722407
 30
0.0
 11
3.0050000000000026
 21
0.0
 31
0.0
  0
LINE
  5
7D
100
AcDbEntity
100
AcDbLine
  8
Drawings, Nut M3
 62
256
370
-1
  6
ByLayer
 10
3.0050000000000026
 20
0.0
 30
0.0
 11
1.5025000000000048
 21
-2.6024063383722345
 31
0.0
  0
LINE
  5
7E
100
AcDbEntity
100
AcDbLine
  8
Drawings, Nut M3
 62
256
370
-1
  6
ByLayer
 10
1.5025000000000048
 20
-2.6024063383722345
 30
0.0
 11
-1.5024999999999988
 21
-2.602406338372234
 31
0.0
  0
LINE
  5
7F
100
AcDbEntity
100
AcDbLine
  8
Drawings, Nut M3
 62
256
370
-1
  6
ByLayer
 10
-1.5024999999999988
 20
-2.602406338372234
 30
0.0
 11
-3.0049999999999955
 21
0.0000000000000004
 31
0.0
  0
ENDBLK
  5
80
100
AcDbEntity
  8
0
100
AcDbBlockEnd
  0
ENDSEC
  0
SECTION
  2
ENTITIES
  0
CIRCLE
  5
81
100
AcDbEntity
100
AcDbCircle
  8
1 Motor Plate
 62
256
370
-1
  6
ByLayer
 10
0.0000000000000071
 20
15.5
 30
0.0
 40
1.45
  0
CIRCLE
  5
82
100
AcDbEntity
100
AcDbCircle
  8
2 Spacer Plate
 62
256
370
-1
  6
ByLayer
 10
0.0000000000000036
 20
15.5
 30
0.0
 40
1.45
  0
CIRCLE
  5
83
100
AcDbEntity
100
AcDbCircle
  8
3 Filament Guide
 62
256
370
-1
  6
ByLayer
 10
0.0000000000000071
 20
15.5
 30
0.0
 40
1.45
  0
CIRCLE
  5
84
100
AcDbEntity
100
AcDbCircle
  8
2 Spacer Plate
 62
256
370
-1
  6
ByLayer
 10
-0.0000000000000142
 20
-15.5
 30
0.0
 40
1.45
  0
CIRCLE
  5
85
100
AcDbEntity
100
AcDbCircle
  8
1 Motor Plate
 62
256
370
-1
  6
ByLayer
 10
-0.0000000000000142
 20
-15.5
 30
0.0
 40
1.45
  0
CIRCLE
  5
86
100
AcDbEntity
100
AcDbCircle
  8
3 Filament Guide
 62
256
370
-1
  6
ByLayer
 10
-0.0000000000000142
 20
-15.5
 30
0.0
 40
1.45
  0
CIRCLE
  5
87
100
AcDbEntity
100
AcDbCircle
  8
3 Filament Guide
 62
256
370
-1
  6
ByLayer
 10
-13.4234000000000009
 20
-7.75
 30
0.0
 40
1.45
  0
CIRCLE
  5
88
100
AcDbEntity
100
AcDbCircle
  8
2 Spacer Plate
 62
256
370
-1
  6
ByLayer
 10
-13.4234000000000009
 20
-7.75
 30
0.0
 40
1.45
  0
CIRCLE
  5
89
100
AcDbEntity
100
AcDbCircle
  8
1 Motor Plate
 62
256
370
-1
  6
ByLayer
 10
-13.4234000000000009
 20
-7.75
 30
0.0
 40
1.45
  0
CIRCLE
  5
8A
100
AcDbEntity
100
AcDbCircle
  8
3 Filament Guide
 62
256
370
-1
  6
ByLayer
 10
-13.4234000000000009
 20
7.75
 30
0.0
 40
1.45
  0
CIRCLE
  5
8B
100
AcDbEntity
100
AcDbCircle
  8
2 Spacer Plate
 62
256
370
-1
  6
ByLayer
 10
-13.4234000000000009
 20
7.75
 30
0.0
 40
1.45
  0
CIRCLE
  5
8C
100
AcDbEntity
100
AcDbCircle
  8
1 Motor Plate
 62
256
370
-1
  6
ByLayer
 10
-13.4234000000000009
 20
7.75
 30
0.0
 40
1.45
  0
CIRCLE
  5
8D
100
AcDbEntity
100
AcDbCircle
  8
2 Spacer Plate
 62
256
370
-1
  6
ByLayer
 10
-0.0000127019
 20
0.0000220003
 30
0.0
 40
8.4499999999999993
  0
ARC
  5
8E
100
AcDbEntity
  8
3 Filament Guide
 62
0
370
-1
  6
ByLayer
100
AcDbCircle
 10
2.0
 20
-10.0
 30
0.0
 40
3.0
100
AcDbArc
 50
0.0
 51
55.0
  0
ARC
  5
8F
100
AcDbEntity
  8
4 Retainer Plate
 62
256
370
-1
  6
ByLayer
100
AcDbCircle
 10
-0.0000127019
 20
0.0000220003
 30
0.0
 40
8.4499999999999993
100
AcDbArc
 50
0.0
 51
360.0
  0
CIRCLE
  5
90
100
AcDbEntity
100
AcDbCircle
  8
3 Filament Guide
 62
256
370
-1
  6
ByLayer
 10
48.0
 20
16.0
 30
0.0
 40
1.45
  0
CIRCLE
  5
91
100
AcDbEntity
100
AcDbCircle
  8
1 Motor Plate
 62
256
370
-1
  6
ByLayer
 10
48.0
 20
16.0
 30
0.0
 40
1.45
  0
CIRCLE
  5
92
100
AcDbEntity
100
AcDbCircle
  8
2 Spacer Plate
 62
256
370
-1
  6
ByLayer
 10
48.0
 20
16.0
 30
0.0
 40
1.45
  0
CIRCLE
  5
93
100
AcDbEntity
100
AcDbCircle
  8
4 Retainer Plate
 62
256
370
-1
  6
ByLayer
 10
48.0
 20
16.0
 30
0.0
 40
1.45
  0
CIRCLE
  5
94
100
AcDbEntity
100
AcDbCircle
  8
3 Filament Guide
 62
256
370
-1
  6
ByLayer
 10
48.0
 20
-16.0
 30
0.0
 40
1.45
  0
CIRCLE
  5
95
100
AcDbEntity
100
AcDbCircle
  8
1 Motor Plate
 62
256
370
-1
  6
ByLayer
 10
48.0
 20
-16.0
 30
0.0
 40
1.45
  0
CIRCLE
  5
96
100
AcDbEntity
100
AcDbCircle
  8
2 Spacer Plate
 62
256
370
-1
  6
ByLayer
 10
48.0
 20
-16.0
 30
0.0
 40
1.45
  0
CIRCLE
  5
97
100
AcDbEntity
100
AcDbCircle
  8
4 Retainer Plate
 62
256
370
-1
  6
ByLayer
 10
48.0
 20
-16.0
 30
0.0
 40
1.45
  0
LINE
  5
98
100
AcDbEntity
100
AcDbLine
  8
2 Spacer Plate
 62
256
370
-1
  6
ByLayer
 10
37.1000000000000014
 20
-2.5200000000000071
 30
0.0
 11
37.1000000000000014
 21
2.5199999999999929
 31
0.0
  0
CIRCLE
  5
99
100
AcDbEntity
100
AcDbCircle
  8
1 Motor Plate
 62
256
370
-1
  6
ByLayer
 10
43.0
 20
-4.0000000000000071
 30
0.0
 40
1.45
  0
CIRCLE
  5
9A
100
AcDbEntity
100
AcDbCircle
  8
2 Spacer Plate
 62
256
370
-1
  6
ByLayer
 10
43.0
 20
-4.0000000000000071
 30
0.0
 40
1.45
  0
CIRCLE
  5
9B
100
AcDbEntity
100
AcDbCircle
  8
1 Motor Plate
 62
256
370
-1
  6
ByLayer
 10
43.0
 20
3.9999999999999929
 30
0.0
 40
1.45
  0
CIRCLE
  5
9C
100
AcDbEntity
100
AcDbCircle
  8
2 Spacer Plate
 62
256
370
-1
  6
ByLayer
 10
43.0
 20
3.9999999999999929
 30
0.0
 40
1.45
  0
LINE
  5
9D
100
AcDbEntity
100
AcDbLine
  8
4 Retainer Plate
 62
256
370
-1
  6
ByLayer
 10
37.0999999999999801
 20
-2.4999999999999996
 30
0.0
 11
37.0999999999999801
 21
2.5
 31
0.0
  0
CIRCLE
  5
9E
100
AcDbEntity
100
AcDbCircle
  8
4 Retainer Plate
 62
256
370
-1
  6
ByLayer
 10
42.9999999999999787
 20
-4.0
 30
0.0
 40
1.45
  0
CIRCLE
  5
9F
100
AcDbEntity
100
AcDbCircle
  8
4 Retainer Plate
 62
256
370
-1
  6
ByLayer
 10
42.9999999999999787
 20
4.0
 30
0.0
 40
1.45
  0
LINE
  5
A0
100
AcDbEntity
100
AcDbLine
  8
Drawings, Thumb Screw Nut
 62
256
370
-1
  6
ByLayer
 10
37.286082474226788
 20
-3.9149999999999991
 30
0.0
 11
37.286082474226788
 21
3.9149999999999991
 31
0.0
  0
LINE
  5
A1
100
AcDbEntity
100
AcDbLine
  8
Drawings, Thumb Screw Nut
 62
256
370
-1
  6
ByLayer
 10
41.1060824742267883
 20
-3.9149999999999991
 30
0.0
 11
41.1060824742267883
 21
3.9149999999999991
 31
0.0
  0
LINE
  5
A2
100
AcDbEntity
100
AcDbLine
  8
Drawings, Thumb Screw Nut
 62
256
370
-1
  6
ByLayer
 10
37.286082474226788
 20
3.9149999999999991
 30
0.0
 11
41.1060824742267883
 21
3.9149999999999991
 31
0.0
  0
LINE
  5
A3
100
AcDbEntity
100
AcDbLine
  8
Drawings, Thumb Screw Nut
 62
256
370
-1
  6
ByLayer
 10
37.286082474226788
 20
-3.9149999999999991
 30
0.0
 11
41.1060824742267883
 21
-3.9149999999999991
 31
0.0
  0
LINE
  5
A4
100
AcDbEntity
100
AcDbLine
  8
Drawings, Thumb Screw Nut
 62
256
370
-1
  6
DASHED
 10
37.286082474226788
 20
0.0
 30
0.0
 11
41.1060824742267883
 21
0.0
 31
0.0
  0
LINE
  5
A5
100
AcDbEntity
100
AcDbLine
  8
Drawings, Thumb Screw
 62
256
370
-1
  6
ByLayer
 10
34.5699999999999932
 20
2.23
 30
0.0
 11
34.5699999999999932
 21
-2.23
 31
0.0
  0
LINE
  5
A6
100
AcDbEntity
100
AcDbLine
  8
Drawings, Thumb Screw
 62
256
370
-1
  6
ByLayer
 10
34.5699999999999932
 20
2.0000000000000004
 30
0.0
 11
35.5699999999999932
 21
-2.0
 31
0.0
  0
LINE
  5
A7
100
AcDbEntity
100
AcDbLine
  8
Drawings, Thumb Screw
 62
256
370
-1
  6
ByLayer
 10
35.5699999999999932
 20
2.0000000000000004
 30
0.0
 11
36.5699999999999932
 21
-2.0
 31
0.0
  0
LINE
  5
A8
100
AcDbEntity
100
AcDbLine
  8
Drawings, Thumb Screw
 62
256
370
-1
  6
ByLayer
 10
36.5699999999999932
 20
2.0000000000000004
 30
0.0
 11
37.5699999999999932
 21
-2.0
 31
0.0
  0
LINE
  5
A9
100
AcDbEntity
100
AcDbLine
  8
Drawings, Thumb Screw
 62
256
370
-1
  6
ByLayer
 10
37.5699999999999932
 20
2.0000000000000004
 30
0.0
 11
38.5699999999999932
 21
-2.0
 31
0.0
  0
LINE
  5
AA
100
AcDbEntity
100
AcDbLine
  8
Drawings, Thumb Screw
 62
256
370
-1
  6
ByLayer
 10
38.5699999999999932
 20
2.0000000000000004
 30
0.0
 11
39.5699999999999932
 21
-2.0
 31
0.0
  0
LINE
  5
AB
100
AcDbEntity
100
AcDbLine
  8
Drawings, Thumb Screw
 62
256
370
-1
  6
ByLayer
 10
39.5699999999999932
 20
2.0000000000000004
 30
0.0
 11
40.5699999999999932
 21
-2.0
 31
0.0
  0
LINE
  5
AC
100
AcDbEntity
100
AcDbLine
  8
Drawings, Thumb Screw
 62
256
370
-1
  6
ByLayer
 10
40.5699999999999932
 20
2.0000000000000004
 30
0.0
 11
41.5699999999999932
 21
-2.0
 31
0.0
  0
LINE
  5
AD
100
AcDbEntity
100
AcDbLine
  8
Drawings, Thumb Screw
 62
256
370
-1
  6
ByLayer
 10
41.5699999999999932
 20
-2.0
 30
0.0
 11
41.5699999999999932
 21
-2.0
 31
0.0
  0
LINE
  5
AE
100
AcDbEntity
100
AcDbLine
  8
Drawings, Thumb Screw
 62
256
370
-1
  6
ByLayer
 10
41.5699999999999932
 20
2.0000000000000004
 30
0.0
 11
42.5699999999999932
 21
-2.0
 31
0.0
  0
LINE
  5
AF
100
AcDbEntity
100
AcDbLine
  8
Drawings, Thumb Screw
 62
256
370
-1
  6
ByLayer
 10
42.5699999999999932
 20
2.0000000000000004
 30
0.0
 11
43.5699999999999932
 21
-2.0
 31
0.0
  0
LINE
  5
B0
100
AcDbEntity
100
AcDbLine
  8
Drawings, Thumb Screw
 62
256
370
-1
  6
ByLayer
 10
43.5699999999999932
 20
2.0000000000000004
 30
0.0
 11
44.5699999999999932
 21
-2.0
 31
0.0
  0
LINE
  5
B1
100
AcDbEntity
100
AcDbLine
  8
Drawings, Thumb Screw
 62
256
370
-1
  6
ByLayer
 10
44.5699999999999932
 20
2.0000000000000004
 30
0.0
 11
45.5699999999999932
 21
-2.0
 31
0.0
  0
LINE
  5
B2
100
AcDbEntity
100
AcDbLine
  8
Drawings, Thumb Screw
 62
256
370
-1
  6
ByLayer
 10
45.5699999999999932
 20
2.0000000000000004
 30
0.0
 11
46.5699999999999932
 21
-2.0
 31
0.0
  0
LINE
  5
B3
100
AcDbEntity
100
AcDbLine
  8
Drawings, Thumb Screw
 62
256
370
-1
  6
ByLayer
 10
46.5699999999999932
 20
2.0000000000000004
 30
0.0
 11
47.5699999999999932
 21
-2.0
 31
0.0
  0
LINE
  5
B4
100
AcDbEntity
100
AcDbLine
  8
Drawings, Thumb Screw
 62
256
370
-1
  6
ByLayer
 10
47.5699999999999932
 20
2.0000000000000004
 30
0.0
 11
48.5699999999999932
 21
-2.0
 31
0.0
  0
LINE
  5
B5
100
AcDbEntity
100
AcDbLine
  8
Drawings, Thumb Screw
 62
256
370
-1
  6
ByLayer
 10
55.5699999999999932
 20
2.0000000000000004
 30
0.0
 11
56.5699999999999932
 21
-1.9999999999999996
 31
0.0
  0
LINE
  5
B6
100
AcDbEntity
100
AcDbLine
  8
Drawings, Thumb Screw
 62
256
370
-1
  6
ByLayer
 10
56.5699999999999932
 20
2.0000000000000004
 30
0.0
 11
57.5699999999999932
 21
-1.9999999999999996
 31
0.0
  0
LINE
  5
B7
100
AcDbEntity
100
AcDbLine
  8
Drawings, Thumb Screw
 62
256
370
-1
  6
ByLayer
 10
57.5699999999999932
 20
2.0000000000000004
 30
0.0
 11
58.5699999999999932
 21
-1.9999999999999996
 31
0.0
  0
LINE
  5
B8
100
AcDbEntity
100
AcDbLine
  8
Drawings, Thumb Screw
 62
256
370
-1
  6
ByLayer
 10
59.3099999999999881
 20
2.23
 30
0.0
 11
59.3099999999999881
 21
-2.23
 31
0.0
  0
LINE
  5
B9
100
AcDbEntity
100
AcDbLine
  8
Drawings, Thumb Screw
 62
256
370
-1
  6
ByLayer
 10
58.5699999999999932
 20
2.0000000000000004
 30
0.0
 11
59.3099999999999881
 21
-0.9599999999999791
 31
0.0
  0
LINE
  5
BA
100
AcDbEntity
100
AcDbLine
  8
Drawings, Thumb Screw
 62
256
370
-1
  6
ByLayer
 10
59.3099999999999881
 20
6.0
 30
0.0
 11
61.6499999999999915
 21
6.0
 31
0.0
  0
LINE
  5
BB
100
AcDbEntity
100
AcDbLine
  8
Drawings, Thumb Screw
 62
256
370
-1
  6
ByLayer
 10
59.3099999999999881
 20
-6.0
 30
0.0
 11
59.3099999999999881
 21
6.0
 31
0.0
  0
LINE
  5
BC
100
AcDbEntity
100
AcDbLine
  8
Drawings, Thumb Screw
 62
256
370
-1
  6
ByLayer
 10
59.3099999999999881
 20
-6.0
 30
0.0
 11
61.6499999999999915
 21
-6.0
 31
0.0
  0
LINE
  5
BD
100
AcDbEntity
100
AcDbLine
  8
Drawings, Thumb Screw
 62
256
370
-1
  6
ByLayer
 10
61.6499999999999915
 20
8.1199999999999992
 30
0.0
 11
66.0
 21
8.1199999999999992
 31
0.0
  0
LINE
  5
BE
100
AcDbEntity
100
AcDbLine
  8
Drawings, Thumb Screw
 62
256
370
-1
  6
ByLayer
 10
66.0
 20
8.1199999999999992
 30
0.0
 11
66.0
 21
-8.1199999999999992
 31
0.0
  0
LINE
  5
BF
100
AcDbEntity
100
AcDbLine
  8
Drawings, Thumb Screw
 62
256
370
-1
  6
ByLayer
 10
66.0
 20
-8.1199999999999992
 30
0.0
 11
61.6499999999999915
 21
-8.1199999999999992
 31
0.0
  0
LINE
  5
C0
100
AcDbEntity
100
AcDbLine
  8
Drawings, Thumb Screw
 62
256
370
-1
  6
ByLayer
 10
48.5699999999999932
 20
2.0000000000000004
 30
0.0
 11
49.5699999999999932
 21
-2.0
 31
0.0
  0
LINE
  5
C1
100
AcDbEntity
100
AcDbLine
  8
Drawings, Thumb Screw
 62
256
370
-1
  6
ByLayer
 10
54.5699999999999932
 20
2.0000000000000004
 30
0.0
 11
55.5699999999999932
 21
-1.9999999999999996
 31
0.0
  0
LINE
  5
C2
100
AcDbEntity
100
AcDbLine
  8
Drawings, Thumb Screw
 62
256
370
-1
  6
ByLayer
 10
49.5699999999999932
 20
2.0000000000000004
 30
0.0
 11
50.5699999999999932
 21
-2.0
 31
0.0
  0
LINE
  5
C3
100
AcDbEntity
100
AcDbLine
  8
Drawings, Thumb Screw
 62
256
370
-1
  6
ByLayer
 10
50.5699999999999932
 20
2.0000000000000004
 30
0.0
 11
51.5699999999999932
 21
-2.0
 31
0.0
  0
LINE
  5
C4
100
AcDbEntity
100
AcDbLine
  8
Drawings, Thumb Screw
 62
256
370
-1
  6
ByLayer
 10
53.5699999999999932
 20
2.0000000000000004
 30
0.0
 11
54.5699999999999932
 21
-1.9999999999999996
 31
0.0
  0
LINE
  5
C5
100
AcDbEntity
100
AcDbLine
  8
Drawings, Thumb Screw
 62
256
370
-1
  6
ByLayer
 10
51.5699999999999932
 20
2.0000000000000004
 30
0.0
 11
52.5699999999999932
 21
-2.0
 31
0.0
  0
LINE
  5
C6
100
AcDbEntity
100
AcDbLine
  8
Drawings, Thumb Screw
 62
256
370
-1
  6
ByLayer
 10
52.5699999999999932
 20
2.0000000000000004
 30
0.0
 11
53.5699999999999932
 21
-2.0
 31
0.0
  0
LINE
  5
C7
100
AcDbEntity
100
AcDbLine
  8
Drawings, Thumb Screw
 62
256
370
-1
  6
ByLayer
 10
34.5699999999999932
 20
-2.23
 30
0.0
 11
59.3099999999999881
 21
-2.23
 31
0.0
  0
LINE
  5
C8
100
AcDbEntity
100
AcDbLine
  8
Drawings, Thumb Screw
 62
256
370
-1
  6
ByLayer
 10
59.3099999999999881
 20
2.23
 30
0.0
 11
34.5699999999999932
 21
2.23
 31
0.0
  0
CIRCLE
  5
C9
100
AcDbEntity
100
AcDbCircle
  8
3 Filament Guide
 62
256
370
-1
  6
ByLayer
 10
-15.5000000000000036
 20
15.5
 30
0.0
 40
1.45
  0
CIRCLE
  5
CA
100
AcDbEntity
100
AcDbCircle
  8
1 Motor Plate
 62
256
370
-1
  6
ByLayer
 10
-15.5000000000000036
 20
15.5
 30
0.0
 40
1.45
  0
CIRCLE
  5
CB
100
AcDbEntity
100
AcDbCircle
  8
2 Spacer Plate
 62
256
370
-1
  6
ByLayer
 10
-15.5000000000000036
 20
15.5
 30
0.0
 40
1.45
  0
CIRCLE
  5
CC
100
AcDbEntity
100
AcDbCircle
  8
4 Retainer Plate
 62
256
370
-1
  6
ByLayer
 10
-15.5000000000000036
 20
15.5
 30
0.0
 40
1.45
  0
CIRCLE
  5
CD
100
AcDbEntity
100
AcDbCircle
  8
3 Filament Guide
 62
256
370
-1
  6
ByLayer
 10
15.5000000000000018
 20
15.5000000000000018
 30
0.0
 40
1.45
  0
CIRCLE
  5
CE
100
AcDbEntity
100
AcDbCircle
  8
1 Motor Plate
 62
256
370
-1
  6
ByLayer
 10
15.5000000000000018
 20
15.5000000000000018
 30
0.0
 40
1.45
  0
CIRCLE
  5
CF
100
AcDbEntity
100
AcDbCircle
  8
2 Spacer Plate
 62
256
370
-1
  6
ByLayer
 10
15.5000000000000018
 20
15.5000000000000018
 30
0.0
 40
1.45
  0
CIRCLE
  5
D0
100
AcDbEntity
100
AcDbCircle
  8
4 Retainer Plate
 62
256
370
-1
  6
ByLayer
 10
15.5000000000000018
 20
15.5000000000000018
 30
0.0
 40
1.45
  0
CIRCLE
  5
D1
100
AcDbEntity
100
AcDbCircle
  8
3 Filament Guide
 62
256
370
-1
  6
ByLayer
 10
15.5000000000000018
 20
-15.5
 30
0.0
 40
1.45
  0
CIRCLE
  5
D2
100
AcDbEntity
100
AcDbCircle
  8
1 Motor Plate
 62
256
370
-1
  6
ByLayer
 10
15.5000000000000018
 20
-15.5
 30
0.0
 40
1.45
  0
CIRCLE
  5
D3
100
AcDbEntity
100
AcDbCircle
  8
2 Spacer Plate
 62
256
370
-1
  6
ByLayer
 10
15.5000000000000018
 20
-15.5
 30
0.0
 40
1.45
  0
CIRCLE
  5
D4
100
AcDbEntity
100
AcDbCircle
  8
4 Retainer Plate
 62
256
370
-1
  6
ByLayer
 10
15.5000000000000018
 20
-15.5
 30
0.0
 40
1.45
  0
CIRCLE
  5
D5
100
AcDbEntity
100
AcDbCircle
  8
3 Filament Guide
 62
256
370
-1
  6
ByLayer
 10
-15.5000000000000036
 20
-15.5000000000000018
 30
0.0
 40
1.45
  0
CIRCLE
  5
D6
100
AcDbEntity
100
AcDbCircle
  8
1 Motor Plate
 62
256
370
-1
  6
ByLayer
 10
-15.5000000000000036
 20
-15.5000000000000018
 30
0.0
 40
1.45
  0
CIRCLE
  5
D7
100
AcDbEntity
100
AcDbCircle
  8
2 Spacer Plate
 62
256
370
-1
  6
ByLayer
 10
-15.5000000000000036
 20
-15.5000000000000018
 30
0.0
 40
1.45
  0
CIRCLE
  5
D8
100
AcDbEntity
100
AcDbCircle
  8
4 Retainer Plate
 62
256
370
-1
  6
ByLayer
 10
-15.5000000000000036
 20
-15.5000000000000018
 30
0.0
 40
1.45
  0
CIRCLE
  5
D9
100
AcDbEntity
100
AcDbCircle
  8
1 Motor Plate
 62
256
370
-1
  6
ByLayer
 10
-0.0000127019
 20
0.0000220003
 30
0.0
 40
11.25
  0
ARC
  5
DA
100
AcDbEntity
  8
3 Filament Guide
 62
256
370
-1
  6
ByLayer
100
AcDbCircle
 10
-0.0000127019
 20
0.0000220003
 30
0.0
 40
8.4499999999999993
100
AcDbArc
 50
53.0
 51
297.0
  0
ARC
  5
DB
100
AcDbEntity
  8
3 Filament Guide
 62
256
370
-1
  6
ByLayer
100
AcDbCircle
 10
1.0
 20
17.149999999999995
 30
0.0
 40
4.0
100
AcDbArc
 50
0.0
 51
90.0
  0
ARC
  5
DC
100
AcDbEntity
  8
3 Filament Guide
 62
256
370
-1
  6
ByLayer
100
AcDbCircle
 10
13.0
 20
16.149999999999995
 30
0.0
 40
5.0
100
AcDbArc
 50
90.0
 51
180.0
  0
LINE
  5
DD
100
AcDbEntity
100
AcDbLine
  8
3 Filament Guide
 62
256
370
-1
  6
ByLayer
 10
5.0
 20
17.149999999999995
 30
0.0
 11
5.0
 21
6.8119507272347271
 31
0.0
  0
LINE
  5
DE
100
AcDbEntity
100
AcDbLine
  8
3 Filament Guide
 62
256
370
-1
  6
ByLayer
 10
8.0
 20
16.149999999999995
 30
0.0
 11
7.9999999999999991
 21
5.1250220003000004
 31
0.0
  0
ARC
  5
DF
100
AcDbEntity
  8
4 Retainer Plate
 62
256
370
-1
  6
ByLayer
100
AcDbCircle
 10
-19.1500031159080457
 20
19.1500000000456616
 30
0.0
 40
1.9999999999543354
100
AcDbArc
 50
89.9999999986919477
 51
180.0
  0
ARC
  5
E0
100
AcDbEntity
  8
3 Filament Guide
 62
256
370
-1
  6
ByLayer
100
AcDbCircle
 10
-19.149998882012234
 20
19.1499957661498499
 30
0.0
 40
2.0000042338546278
100
AcDbArc
 50
90.0001212906156525
 51
180.0001212899581162
  0
ARC
  5
E1
100
AcDbEntity
  8
2 Spacer Plate
 62
256
370
-1
  6
ByLayer
100
AcDbCircle
 10
-19.1499988818412064
 20
19.1499957659788151
 30
0.0
 40
2.0000042340256603
100
AcDbArc
 50
90.0001212857154513
 51
180.0001212839481468
  0
ARC
  5
E2
100
AcDbEntity
  8
1 Motor Plate
 62
256
370
-1
  6
ByLayer
100
AcDbCircle
 10
-19.1499988818411957
 20
19.1499957659788187
 30
0.0
 40
2.0000042340256585
100
AcDbArc
 50
90.000121285715764
 51
180.0001212839481468
  0
ARC
  5
E3
100
AcDbEntity
  8
1 Motor Plate
 62
256
370
-1
  6
ByLayer
100
AcDbCircle
 10
50.0000000000000071
 20
-19.1500000000000092
 30
0.0
 40
1.9999999999999916
100
AcDbArc
 50
269.9999999999997726
 51
360.0
  0
ARC
  5
E4
100
AcDbEntity
  8
2 Spacer Plate
 62
256
370
-1
  6
ByLayer
100
AcDbCircle
 10
50.0000000000000071
 20
-19.1500000000000092
 30
0.0
 40
1.999979566661636
100
AcDbArc
 50
270.0005853809952896
 51
0.0005853812323269
  0
ARC
  5
E5
100
AcDbEntity
  8
4 Retainer Plate
 62
256
370
-1
  6
ByLayer
100
AcDbCircle
 10
50.0000000000000071
 20
-19.1500000000000092
 30
0.0
 40
1.9999795666580209
100
AcDbArc
 50
270.0005853810986878
 51
0.0005853812323269
  0
ARC
  5
E6
100
AcDbEntity
  8
3 Filament Guide
 62
256
370
-1
  6
ByLayer
100
AcDbCircle
 10
50.0000000000000071
 20
-19.1500000000000092
 30
0.0
 40
2.0178258206389272
100
AcDbArc
 50
270.5045431159591658
 51
0.5045431159592878
  0
ARC
  5
E7
100
AcDbEntity
  8
3 Filament Guide
 62
256
370
-1
  6
ByLayer
100
AcDbCircle
 10
-19.0893444410149939
 20
-19.0893413251526169
 30
0.0
 40
2.0608118478649362
100
AcDbArc
 50
180.6985737834096994
 51
270.6985737834093015
  0
ARC
  5
E8
100
AcDbEntity
  8
4 Retainer Plate
 62
256
370
-1
  6
ByLayer
100
AcDbCircle
 10
-19.0893444410150011
 20
-19.0893413251526098
 30
0.0
 40
2.0608118478649371
100
AcDbArc
 50
180.6985737834096994
 51
270.6985737834093015
  0
ARC
  5
E9
100
AcDbEntity
  8
2 Spacer Plate
 62
256
370
-1
  6
ByLayer
100
AcDbCircle
 10
-19.0893444410150011
 20
-19.0893413251526098
 30
0.0
 40
2.0608118478649362
100
AcDbArc
 50
180.6985737834096994
 51
270.6985737834093015
  0
ARC
  5
EA
100
AcDbEntity
  8
1 Motor Plate
 62
256
370
-1
  6
ByLayer
100
AcDbCircle
 10
-19.0893444410150011
 20
-19.0893413251526098
 30
0.0
 40
2.0608118478649362
100
AcDbArc
 50
180.6985737834096994
 51
270.6985737834093015
  0
LINE
  5
EB
100
AcDbEntity
100
AcDbLine
  8
4 Retainer Plate
 62
256
370
-1
  6
ByLayer
 10
-21.1500031158623827
 20
-19.1144669709499873
 30
0.0
 11
-21.150003115862372
 21
19.1499915323226411
 31
0.0
  0
LINE
  5
EC
100
AcDbEntity
100
AcDbLine
  8
1 Motor Plate
 62
256
370
-1
  6
ByLayer
 10
-21.150003115862372
 20
19.1499915323226411
 30
0.0
 11
-21.1500031158623827
 21
-19.1144669709499873
 31
0.0
  0
LINE
  5
ED
100
AcDbEntity
100
AcDbLine
  8
3 Filament Guide
 62
256
370
-1
  6
ByLayer
 10
-21.1500031158623827
 20
-19.1144669709499873
 30
0.0
 11
-21.150003115862372
 21
19.1499915323226517
 31
0.0
  0
LINE
  5
EE
100
AcDbEntity
100
AcDbLine
  8
2 Spacer Plate
 62
256
370
-1
  6
ByLayer
 10
-21.150003115862372
 20
19.1499915323226517
 30
0.0
 11
-21.1500031158623827
 21
-19.1144669709499873
 31
0.0
  0
ARC
  5
EF
100
AcDbEntity
  8
1 Motor Plate
 62
256
370
-1
  6
ByLayer
100
AcDbCircle
 10
50.0
 20
19.149999999999995
 30
0.0
 40
1.999999999999984
100
AcDbArc
 50
360.0
 51
90.000000000000199
  0
ARC
  5
F0
100
AcDbEntity
  8
4 Retainer Plate
 62
256
370
-1
  6
ByLayer
100
AcDbCircle
 10
50.0
 20
19.149999999999995
 30
0.0
 40
2.0000000000000231
100
AcDbArc
 50
360.0
 51
90.000000000000199
  0
ARC
  5
F1
100
AcDbEntity
  8
2 Spacer Plate
 62
256
370
-1
  6
ByLayer
100
AcDbCircle
 10
50.0
 20
19.149999999999995
 30
0.0
 40
1.9999999999999984
100
AcDbArc
 50
360.0
 51
89.999999999999801
  0
ARC
  5
F2
100
AcDbEntity
  8
3 Filament Guide
 62
256
370
-1
  6
ByLayer
100
AcDbCircle
 10
50.0
 20
19.149999999999995
 30
0.0
 40
2.0000000000000231
100
AcDbArc
 50
360.0
 51
90.000000000000199
  0
LINE
  5
F3
100
AcDbEntity
100
AcDbLine
  8
2 Spacer Plate
 62
256
370
-1
  6
ByLayer
 10
52.0
 20
19.149999999999995
 30
0.0
 11
52.0
 21
2.52
 31
0.0
  0
LINE
  5
F4
100
AcDbEntity
100
AcDbLine
  8
3 Filament Guide
 62
256
370
-1
  6
ByLayer
 10
52.0
 20
19.149999999999995
 30
0.0
 11
51.9999999999999716
 21
5.1250220003000431
 31
0.0
  0
LINE
  5
F5
100
AcDbEntity
100
AcDbLine
  8
2 Spacer Plate
 62
256
370
-1
  6
ByLayer
 10
37.1000000000000014
 20
2.5199999999999929
 30
0.0
 11
52.0
 21
2.5199999999999929
 31
0.0
  0
LINE
  5
F6
100
AcDbEntity
100
AcDbLine
  8
2 Spacer Plate
 62
256
370
-1
  6
ByLayer
 10
52.0
 20
-2.5200000000000071
 30
0.0
 11
37.1000000000000014
 21
-2.5200000000000071
 31
0.0
  0
LINE
  5
F7
100
AcDbEntity
100
AcDbLine
  8
4 Retainer Plate
 62
256
370
-1
  6
ByLayer
 10
37.0999999999999801
 20
2.5
 30
0.0
 11
52.0000000000000071
 21
2.4999999999999996
 31
0.0
  0
LINE
  5
F8
100
AcDbEntity
100
AcDbLine
  8
4 Retainer Plate
 62
256
370
-1
  6
ByLayer
 10
52.0000000000000071
 20
-2.5
 30
0.0
 11
37.0999999999999801
 21
-2.4999999999999996
 31
0.0
  0
LINE
  5
F9
100
AcDbEntity
100
AcDbLine
  8
3 Filament Guide
 62
256
370
-1
  6
ByLayer
 10
5.0
 20
-10.0
 30
0.0
 11
5.0
 21
-21.1500003599076827
 31
0.0
  0
LINE
  5
FA
100
AcDbEntity
100
AcDbLine
  8
3 Filament Guide
 62
256
370
-1
  6
ByLayer
 10
7.9999999999999991
 20
-5.1249779996999996
 30
0.0
 11
8.0
 21
-21.1500004070279033
 31
0.0
  0
LINE
  5
FB
100
AcDbEntity
100
AcDbLine
  8
1 Motor Plate
 62
256
370
-1
  6
ByLayer
 10
-19.0642187952176378
 20
-21.1499999999999986
 30
0.0
 11
50.0
 21
-21.1500000000000021
 31
0.0
  0
LINE
  5
FC
100
AcDbEntity
100
AcDbLine
  8
2 Spacer Plate
 62
256
370
-1
  6
ByLayer
 10
-19.0642187952176343
 20
-21.1499999999999986
 30
0.0
 11
50.0000204334427352
 21
-21.1499795665572634
 31
0.0
  0
LINE
  5
FD
100
AcDbEntity
100
AcDbLine
  8
3 Filament Guide
 62
256
370
-1
  6
ByLayer
 10
8.0
 20
-21.1500004070279033
 30
0.0
 11
50.0177686206200462
 21
-21.1500008768827392
 31
0.0
  0
LINE
  5
FE
100
AcDbEntity
100
AcDbLine
  8
4 Retainer Plate
 62
0
370
-1
  6
ByLayer
 10
-19.0642187952176378
 20
-21.1500000000000021
 30
0.0
 11
50.0000204334463447
 21
-21.1500008768827428
 31
0.0
  0
LINE
  5
FF
100
AcDbEntity
100
AcDbLine
  8
3 Filament Guide
 62
256
370
-1
  6
ByLayer
 10
5.0
 20
-21.1500003599076827
 30
0.0
 11
-19.0642187952176272
 21
-21.1500000000000021
 31
0.0
  0
LINE
  5
100
100
AcDbEntity
100
AcDbLine
  8
3 Filament Guide
 62
256
370
-1
  6
ByLayer
 10
-19.1500031155203096
 20
21.1499999999999986
 30
0.0
 11
1.0
 21
21.149999999999995
 31
0.0
  0
LINE
  5
101
100
AcDbEntity
100
AcDbLine
  8
2 Spacer Plate
 62
256
370
-1
  6
ByLayer
 10
-19.1500031171279304
 20
21.1499999999999986
 30
0.0
 11
49.9999999999999929
 21
21.1500000000000163
 31
0.0
  0
LINE
  5
102
100
AcDbEntity
100
AcDbLine
  8
3 Filament Guide
 62
256
370
-1
  6
ByLayer
 10
13.0
 20
21.149999999999995
 30
0.0
 11
50.0
 21
21.1500000000000163
 31
0.0
  0
LINE
  5
103
100
AcDbEntity
100
AcDbLine
  8
4 Retainer Plate
 62
256
370
-1
  6
ByLayer
 10
-19.1500031155203096
 20
21.1499999999999986
 30
0.0
 11
50.0
 21
21.1500000000000163
 31
0.0
  0
LINE
  5
104
100
AcDbEntity
100
AcDbLine
  8
1 Motor Plate
 62
256
370
-1
  6
ByLayer
 10
-19.1500031171279304
 20
21.1499999999999986
 30
0.0
 11
50.0
 21
21.1500000000000163
 31
0.0
  0
LINE
  5
105
100
AcDbEntity
100
AcDbLine
  8
1 Motor Plate
 62
256
370
-1
  6
ByLayer
 10
52.0
 20
19.149999999999995
 30
0.0
 11
52.0
 21
-19.1500000000000092
 31
0.0
  0
LINE
  5
106
100
AcDbEntity
100
AcDbLine
  8
2 Spacer Plate
 62
256
370
-1
  6
ByLayer
 10
52.0
 20
-2.5200000000000071
 30
0.0
 11
51.9999795665572577
 21
-19.1499795665490069
 31
0.0
  0
LINE
  5
107
100
AcDbEntity
100
AcDbLine
  8
3 Filament Guide
 62
256
370
-1
  6
ByLayer
 10
51.9999999999999929
 20
-5.1249779997000067
 30
0.0
 11
52.0177475854423506
 21
-19.1322313793799665
 31
0.0
  0
DIMENSION
  5
108
100
AcDbEntity
  8
Drawings, Motor (NEMA 17), Dimensions
 62
256
370
-1
  6
ByLayer
100
AcDbDimension
 10
-15.5000000000000036
 20
-28.0
 30
0.0
 11
-0.0000000000000008
 21
-26.125
 31
0.0
 70
1
 71
5
 72
0
 41
1.0
 42
0.0
  1

  3
Standard
100
AcDbAlignedDimension
 13
-15.5000000000000036
 23
-15.5000000000000018
 33
0.0
 14
15.5000000000000018
 24
-15.5
 34
0.0
  0
DIMENSION
  5
109
100
AcDbEntity
  8
Drawings, Motor (NEMA 17), Dimensions
 62
256
370
-1
  6
ByLayer
100
AcDbDimension
 10
-28.0
 20
15.5000000000000018
 30
0.0
 11
-29.875
 21
0.0000000000000011
 31
0.0
 70
1
 71
5
 72
0
 41
1.0
 42
0.0
  1

  3
Standard
100
AcDbAlignedDimension
 13
-15.5000000000000036
 23
15.5
 33
0.0
 14
-15.5000000000000036
 24
-15.5000000000000018
 34
0.0
  0
DIMENSION
  5
10A
100
AcDbEntity
  8
Drawings, Motor (NEMA 17), Dimensions
 62
256
370
-1
  6
ByLayer
100
AcDbDimension
 10
-15.0000000000000018
 20
10.9999965965400026
 30
0.0
 11
-16.875
 21
-0.0000034034599972
 31
0.0
 70
1
 71
5
 72
0
 41
1.0
 42
0.0
  1

  3
Standard
100
AcDbAlignedDimension
 13
-0.0000127019
 23
10.9999965965400008
 33
0.0
 14
-0.0000127019
 24
-11.0000034034599992
 34
0.0
  0
DIMENSION
  5
10B
100
AcDbEntity
  8
Drawings, Motor (NEMA 17), Dimensions
 62
256
370
-1
  6
ByLayer
100
AcDbDimension
 10
-5.0
 20
3.0000092984419306
 30
0.0
 11
-6.875
 21
-0.0000034034599989
 31
0.0
 70
1
 71
5
 72
0
 41
1.0
 42
0.0
  1

  3
Standard
100
AcDbAlignedDimension
 13
-0.0000127019
 23
3.0000092984419302
 33
0.0
 14
-0.0000127019
 24
-3.0000161053619303
 34
0.0
  0
DIMENSION
  5
10C
100
AcDbEntity
  8
Drawings, Motor (NEMA 17), Dimensions
 62
256
370
-1
  6
ByLayer
100
AcDbDimension
 10
28.0
 20
14.9999999999999982
 30
0.0
 11
26.125
 21
-0.0000000000000015
 31
0.0
 70
1
 71
5
 72
0
 41
1.0
 42
0.0
  1

  3
Standard
100
AcDbAlignedDimension
 13
21.1499999999999986
 23
15.0
 33
0.0
 14
21.1499999999999986
 24
-15.0
 34
0.0
  0
DIMENSION
  5
10D
100
AcDbEntity
  8
Drawings, Motor (NEMA 17), Dimensions
 62
256
370
-1
  6
ByLayer
100
AcDbDimension
 10
34.0000012411615131
 20
21.1500012258682339
 30
0.0
 11
32.125000603237666
 21
0.0000003829497596
 31
0.0
 70
1
 71
5
 72
0
 41
1.0
 42
0.0
  1

  3
Standard
100
AcDbAlignedDimension
 13
15.0000012758476924
 23
21.150001798944011
 33
0.0
 14
15.0
 24
-21.1499999999999986
 34
0.0
  0
CIRCLE
  5
10E
100
AcDbEntity
100
AcDbCircle
  8
Drawings, Motor (Kysan)
 62
256
370
-1
  6
ByLayer
 10
0.0
 20
0.0
 30
0.0
 40
3.0
  0
CIRCLE
  5
10F
100
AcDbEntity
100
AcDbCircle
  8
Drawings, Motor (Kysan)
 62
256
370
-1
  6
ByLayer
 10
0.0
 20
0.0
 30
0.0
 40
11.0454000000000008
  0
INSERT
  5
110
100
AcDbEntity
100
AcDbBlockReference
  8
Drawings, Nut M3
 62
256
370
-1
  6
ByLayer
  2
Nut, M3
 10
-7.5000000000000009
 20
-9.5
 30
0.0
 44
1.0
 45
1.0
  0
INSERT
  5
111
100
AcDbEntity
100
AcDbBlockReference
  8
Drawings, Nut M3
 62
256
370
-1
  6
ByLayer
  2
Nut, M3
 10
-7.5000000000000009
 20
9.5
 30
0.0
 44
1.0
 45
1.0
  0
INSERT
  5
112
100
AcDbEntity
100
AcDbBlockReference
  8
Drawings, Nut M3
 62
256
370
-1
  6
ByLayer
  2
Nut, M3
 10
22.4999999999999929
 20
9.5000000000000018
 30
0.0
 44
1.0
 45
1.0
  0
INSERT
  5
113
100
AcDbEntity
100
AcDbBlockReference
  8
Drawings, Nut M3
 62
256
370
-1
  6
ByLayer
  2
Nut, M3
 10
22.4999999999999929
 20
-9.5
 30
0.0
 44
1.0
 45
1.0
  0
LINE
  5
114
100
AcDbEntity
100
AcDbLine
  8
Drawings, Encoder Board
 62
256
370
-1
  6
ByLayer
 10
-10.0
 20
-12.0
 30
0.0
 11
-10.0
 21
12.0
 31
0.0
  0
INSERT
  5
115
100
AcDbEntity
100
AcDbBlockReference
  8
3 Filament Guide
 62
256
370
-1
  6
ByLayer
  2
Nut, M3, Hole
 10
22.4999999999999929
 20
9.5000000000000018
 30
0.0
 44
1.0
 45
1.0
  0
INSERT
  5
116
100
AcDbEntity
100
AcDbBlockReference
  8
3 Filament Guide
 62
256
370
-1
  6
ByLayer
  2
Nut, M3, Hole
 10
-7.5000000000000009
 20
9.5
 30
0.0
 44
1.0
 45
1.0
  0
INSERT
  5
117
100
AcDbEntity
100
AcDbBlockReference
  8
3 Filament Guide
 62
256
370
-1
  6
ByLayer
  2
Nut, M3, Hole
 10
-7.5000000000000009
 20
-9.5
 30
0.0
 44
1.0
 45
1.0
  0
INSERT
  5
118
100
AcDbEntity
100
AcDbBlockReference
  8
3 Filament Guide
 62
256
370
-1
  6
ByLayer
  2
Nut, M3, Hole
 10
22.4999999999999929
 20
-9.5
 30
0.0
 44
1.0
 45
1.0
  0
CIRCLE
  5
119
100
AcDbEntity
100
AcDbCircle
  8
2 Spacer Plate
 62
256
370
-1
  6
ByLayer
 10
-7.5
 20
9.5
 30
0.0
 40
1.45
  0
CIRCLE
  5
11A
100
AcDbEntity
100
AcDbCircle
  8
2 Spacer Plate
 62
256
370
-1
  6
ByLayer
 10
-7.5
 20
-9.5
 30
0.0
 40
1.45
  0
CIRCLE
  5
11B
100
AcDbEntity
100
AcDbCircle
  8
2 Spacer Plate
 62
256
370
-1
  6
ByLayer
 10
22.5
 20
9.5
 30
0.0
 40
1.45
  0
CIRCLE
  5
11C
100
AcDbEntity
100
AcDbCircle
  8
2 Spacer Plate
 62
256
370
-1
  6
ByLayer
 10
22.5
 20
-9.5
 30
0.0
 40
1.45
  0
CIRCLE
  5
11D
100
AcDbEntity
100
AcDbCircle
  8
4 Retainer Plate
 62
256
370
-1
  6
ByLayer
 10
-7.5
 20
9.5
 30
0.0
 40
1.4499999999999993
  0
CIRCLE
  5
11E
100
AcDbEntity
100
AcDbCircle
  8
4 Retainer Plate
 62
256
370
-1
  6
ByLayer
 10
22.5
 20
9.5
 30
0.0
 40
1.4499999999999993
  0
CIRCLE
  5
11F
100
AcDbEntity
100
AcDbCircle
  8
4 Retainer Plate
 62
256
370
-1
  6
ByLayer
 10
22.5
 20
-9.5
 30
0.0
 40
1.4499999999999993
  0
CIRCLE
  5
120
100
AcDbEntity
100
AcDbCircle
  8
4 Retainer Plate
 62
256
370
-1
  6
ByLayer
 10
-7.5
 20
-9.5
 30
0.0
 40
1.4499999999999993
  0
CIRCLE
  5
121
100
AcDbEntity
100
AcDbCircle
  8
Drawings, Encoder Board
 62
256
370
-1
  6
ByLayer
 10
22.5
 20
9.5
 30
0.0
 40
1.4499999999999993
  0
CIRCLE
  5
122
100
AcDbEntity
100
AcDbCircle
  8
Drawings, Encoder Board
 62
256
370
-1
  6
ByLayer
 10
22.5
 20
-9.5
 30
0.0
 40
1.4499999999999993
  0
CIRCLE
  5
123
100
AcDbEntity
100
AcDbCircle
  8
Drawings, Timing Pulley
 62
256
370
-1
  6
ByLayer
 10
0.0
 20
0.0
 30
0.0
 40
5.125
  0
CIRCLE
  5
124
100
AcDbEntity
100
AcDbCircle
  8
Drawings, Timing Pulley
 62
256
370
-1
  6
ByLayer
 10
0.0
 20
0.0
 30
0.0
 40
8.0700000000000003
  0
CIRCLE
  5
125
100
AcDbEntity
100
AcDbCircle
  8
Drawings, Encoder Board
 62
256
370
-1
  6
ByLayer
 10
0.0
 20
0.0
 30
0.0
 40
3.0
  0
LINE
  5
126
100
AcDbEntity
100
AcDbLine
  8
Drawings, Encoder Board
 62
256
370
-1
  6
ByLayer
 10
25.0
 20
12.0
 30
0.0
 11
25.0
 21
-12.0000000000000036
 31
0.0
  0
LINE
  5
127
100
AcDbEntity
100
AcDbLine
  8
Drawings, Encoder Board
 62
256
370
-1
  6
ByLayer
 10
-10.0
 20
12.0
 30
0.0
 11
25.0
 21
12.0
 31
0.0
  0
LINE
  5
128
100
AcDbEntity
100
AcDbLine
  8
Drawings, Encoder Board
 62
256
370
-1
  6
ByLayer
 10
-10.0
 20
-12.0
 30
0.0
 11
25.0
 21
-12.0
 31
0.0
  0
CIRCLE
  5
129
100
AcDbEntity
100
AcDbCircle
  8
Drawings, Encoder Board
 62
256
370
-1
  6
ByLayer
 10
-7.5000000000000009
 20
9.5
 30
0.0
 40
1.45
  0
CIRCLE
  5
12A
100
AcDbEntity
100
AcDbCircle
  8
Drawings, Encoder Board
 62
256
370
-1
  6
ByLayer
 10
-7.5000000000000009
 20
-9.5
 30
0.0
 40
1.45
  0
CIRCLE
  5
12B
100
AcDbEntity
100
AcDbCircle
  8
4 Retainer Plate
 62
256
370
-1
  6
ByLayer
 10
0.0
 20
15.5
 30
0.0
 40
1.45
  0
CIRCLE
  5
12C
100
AcDbEntity
100
AcDbCircle
  8
4 Retainer Plate
 62
256
370
-1
  6
ByLayer
 10
-13.4234000000000009
 20
7.75
 30
0.0
 40
1.45
  0
CIRCLE
  5
12D
100
AcDbEntity
100
AcDbCircle
  8
4 Retainer Plate
 62
256
370
-1
  6
ByLayer
 10
-13.4234000000000009
 20
-7.75
 30
0.0
 40
1.45
  0
CIRCLE
  5
12E
100
AcDbEntity
100
AcDbCircle
  8
4 Retainer Plate
 62
256
370
-1
  6
ByLayer
 10
-0.0000000000000142
 20
-15.5
 30
0.0
 40
1.45
  0
ARC
  5
12F
100
AcDbEntity
  8
3 Filament Guide
 62
256
370
-1
  6
ByLayer
100
AcDbCircle
 10
43.0
 20
4.0
 30
0.0
 40
1.4499999999999764
100
AcDbArc
 50
50.8846341510725395
 51
129.1153658489274676
  0
ARC
  5
130
100
AcDbEntity
  8
3 Filament Guide
 62
256
370
-1
  6
ByLayer
100
AcDbCircle
 10
43.0
 20
-4.0
 30
0.0
 40
1.4499999999999797
100
AcDbArc
 50
230.8818783305236764
 51
309.1181216694761247
  0
LINE
  5
131
100
AcDbEntity
100
AcDbLine
  8
3 Filament Guide
 62
256
370
-1
  6
ByLayer
 10
7.9999999999999991
 20
5.1250220003000004
 30
0.0
 11
42.0852183326930671
 21
5.1250220003000004
 31
0.0
  0
LINE
  5
132
100
AcDbEntity
100
AcDbLine
  8
3 Filament Guide
 62
256
370
-1
  6
ByLayer
 10
7.9999999999999991
 20
-5.1249779996999996
 30
0.0
 11
42.0851642222831117
 21
-5.1249779996999996
 31
0.0
  0
LINE
  5
133
100
AcDbEntity
100
AcDbLine
  8
3 Filament Guide
 62
256
370
-1
  6
ByLayer
 10
43.9147816673069684
 20
5.1250220003000004
 30
0.0
 11
51.9999999999999716
 21
5.1250220003000431
 31
0.0
  0
LINE
  5
134
100
AcDbEntity
100
AcDbLine
  8
3 Filament Guide
 62
256
370
-1
  6
ByLayer
 10
51.9999999999999929
 20
-5.1249779997000067
 30
0.0
 11
43.9148357777169167
 21
-5.1249779997000031
 31
0.0
  0
LINE
  5
135
100
AcDbEntity
100
AcDbLine
  8
Drawings, Thumb Screw
 62
256
370
-1
  6
ByLayer
 10
61.6499999999999915
 20
8.1199999999999992
 30
0.0
 11
61.6499999999999915
 21
6.0
 31
0.0
  0
LINE
  5
136
100
AcDbEntity
100
AcDbLine
  8
Drawings, Thumb Screw
 62
256
370
-1
  6
ByLayer
 10
61.6499999999999915
 20
-6.0
 30
0.0
 11
61.6499999999999915
 21
-8.1199999999999992
 31
0.0
  0
LINE
  5
137
100
AcDbEntity
100
AcDbLine
  8
Drawings, Thumb Screw
 62
256
370
-1
  6
DASHED
 10
61.6499999999999986
 20
6.0
 30
0.0
 11
61.6499999999999986
 21
-6.0
 31
0.0
  0
MTEXT
  5
138
100
AcDbEntity
100
AcDbMText
  8
Drawings, Thumb Screw
 62
256
370
-1
  6
ByLayer
 10
61.8999999999999986
 20
-0.0000000000000002
 30
0.0
 40
1.0
 41
100.0
 71
1
 72
2
  1
M5x25
  7
standard
 50
0.0
 73
1
 44
1.0
  0
LINE
  5
139
100
AcDbEntity
100
AcDbLine
  8
4 Retainer Plate
 62
256
370
-1
  6
ByLayer
 10
52.0
 20
19.149999999999995
 30
0.0
 11
52.0
 21
2.5
 31
0.0
  0
LINE
  5
13A
100
AcDbEntity
100
AcDbLine
  8
4 Retainer Plate
 62
256
370
-1
  6
ByLayer
 10
52.0000000000000071
 20
-2.5
 30
0.0
 11
51.9999795665536482
 21
-19.1499795665490069
 31
0.0
  0
CIRCLE
  5
13B
100
AcDbEntity
100
AcDbCircle
  8
Drawings, Motor (Kysan)
 62
256
370
-1
  6
ByLayer
 10
-0.0000000495529
 20
0.0000000285878
 30
0.0
 40
18.75
  0
CIRCLE
  5
13C
100
AcDbEntity
100
AcDbCircle
  8
Drawings, Motor (Kysan)
 62
256
370
-1
  6
DASHDOT
 10
0.0
 20
0.0
 30
0.0
 40
15.5
  0
INSERT
  5
13D
100
AcDbEntity
100
AcDbBlockReference
  8
3 Filament Guide
 62
256
370
-1
  6
ByLayer
  2
Nut, M3, Hole
 10
22.4999999999999929
 20
9.5000000000000018
 30
0.0
 44
1.0
 45
1.0
  0
INSERT
  5
13E
100
AcDbEntity
100
AcDbBlockReference
  8
3 Filament Guide
 62
256
370
-1
  6
ByLayer
  2
Nut, M3, Hole
 10
22.4999999999999929
 20
-9.5
 30
0.0
 44
1.0
 45
1.0
  0
INSERT
  5
13F
100
AcDbEntity
100
AcDbBlockReference
  8
3 Filament Guide
 62
256
370
-1
  6
ByLayer
  2
Nut, M3, Hole
 10
-7.5000000000000009
 20
-9.5
 30
0.0
 44
1.0
 45
1.0
  0
INSERT
  5
140
100
AcDbEntity
100
AcDbBlockReference
  8
3 Filament Guide
 62
256
370
-1
  6
ByLayer
  2
Nut, M3, Hole
 10
-7.5
 20
9.5
 30
0.0
 44
1.0
 45
1.0
  0
LINE
  5
141
100
AcDbEntity
100
AcDbLine
  8
Drawings, Motor (Kysan)
 62
256
370
-1
  6
DASHED
 10
-0.216506
 20
-0.125
 30
0.0
 11
13.4234000000000009
 21
7.7499900000000004
 31
0.0
  0
LINE
  5
142
100
AcDbEntity
100
AcDbLine
  8
Drawings, Motor (Kysan)
 62
256
370
-1
  6
DASHED
 10
-0.00000350007
 20
15.5
 30
0.0
 11
0.0000000000186753
 21
-0.0000000000107718
 31
0.0
  0
LINE
  5
143
100
AcDbEntity
100
AcDbLine
  8
Drawings, Motor (Kysan)
 62
256
370
-1
  6
DASHED
 10
-0.0000000000000071
 20
0.0000000000000142
 30
0.0
 11
-13.4234000000000009
 21
7.75
 31
0.0
  0
LINE
  5
144
100
AcDbEntity
100
AcDbLine
  8
Drawings, Motor (Kysan)
 62
256
370
-1
  6
DASHED
 10
0.216506
 20
0.125
 30
0.0
 11
-13.4234000000000009
 21
-7.75
 31
0.0
  0
LINE
  5
145
100
AcDbEntity
100
AcDbLine
  8
Drawings, Motor (Kysan)
 62
256
370
-1
  6
DASHED
 10
0.0
 20
0.0
 30
0.0
 11
-0.0000105002
 21
-15.5
 31
0.0
  0
LINE
  5
146
100
AcDbEntity
100
AcDbLine
  8
Drawings, Motor (Kysan)
 62
256
370
-1
  6
DASHED
 10
13.4234000000000009
 20
-7.75
 30
0.0
 11
0.0
 21
-0.0000000000215543
 31
0.0
  0
CIRCLE
  5
147
100
AcDbEntity
100
AcDbCircle
  8
Drawings, Motor (NEMA 17)
 62
256
370
-1
  6
ByLayer
 10
-15.5000000000000036
 20
15.5
 30
0.0
 40
1.4499999999999993
  0
CIRCLE
  5
148
100
AcDbEntity
100
AcDbCircle
  8
Drawings, Motor (NEMA 17)
 62
256
370
-1
  6
ByLayer
 10
15.5000000000000018
 20
15.5000000000000018
 30
0.0
 40
1.4500000000000011
  0
CIRCLE
  5
149
100
AcDbEntity
100
AcDbCircle
  8
Drawings, Motor (NEMA 17)
 62
256
370
-1
  6
ByLayer
 10
15.5000000000000018
 20
-15.5
 30
0.0
 40
1.4500000000000011
  0
CIRCLE
  5
14A
100
AcDbEntity
100
AcDbCircle
  8
Drawings, Motor (NEMA 17)
 62
256
370
-1
  6
ByLayer
 10
-15.5000000000000036
 20
-15.5000000000000018
 30
0.0
 40
1.4499999999999993
  0
LINE
  5
14B
100
AcDbEntity
100
AcDbLine
  8
Drawings, Motor (NEMA 17)
 62
256
370
-1
  6
ByLayer
 10
-21.1499999999999986
 20
-15.0
 30
0.0
 11
-21.1499999999999986
 21
15.0
 31
0.0
  0
LINE
  5
14C
100
AcDbEntity
100
AcDbLine
  8
Drawings, Motor (NEMA 17)
 62
256
370
-1
  6
ByLayer
 10
21.1499999999999986
 20
15.0
 30
0.0
 11
21.1499999999999986
 21
-15.0
 31
0.0
  0
LINE
  5
14D
100
AcDbEntity
100
AcDbLine
  8
Drawings, Motor (NEMA 17)
 62
256
370
-1
  6
ByLayer
 10
-15.0
 20
21.1499999999999986
 30
0.0
 11
15.0
 21
21.1499999999999986
 31
0.0
  0
LINE
  5
14E
100
AcDbEntity
100
AcDbLine
  8
Drawings, Motor (NEMA 17)
 62
256
370
-1
  6
ByLayer
 10
15.0
 20
-21.1499999999999986
 30
0.0
 11
-15.0
 21
-21.1499999999999986
 31
0.0
  0
ARC
  5
14F
100
AcDbEntity
  8
Drawings, Motor (NEMA 17)
 62
256
370
-1
  6
ByLayer
100
AcDbCircle
 10
-0.0000127019
 20
-0.00000340346
 30
0.0
 40
25.9291778294170143
100
AcDbArc
 50
125.3449956595365506
 51
144.6549547242255755
  0
ARC
  5
150
100
AcDbEntity
  8
Drawings, Motor (NEMA 17)
 62
256
370
-1
  6
ByLayer
100
AcDbCircle
 10
-0.0000127019
 20
-0.00000340346
 30
0.0
 40
25.9291947309272004
100
AcDbArc
 50
35.3450128018359422
 51
54.6549585522160868
  0
ARC
  5
151
100
AcDbEntity
  8
Drawings, Motor (NEMA 17)
 62
256
370
-1
  6
ByLayer
100
AcDbCircle
 10
-0.0000127019
 20
-0.00000340346
 30
0.0
 40
25.9291869731932572
100
AcDbArc
 50
305.345050149141457
 51
324.6549994670722867
  0
ARC
  5
152
100
AcDbEntity
  8
Drawings, Motor (NEMA 17)
 62
256
370
-1
  6
ByLayer
100
AcDbCircle
 10
-0.0000127019
 20
-0.00000340346
 30
0.0
 40
25.9291700716780156
100
AcDbArc
 50
215.3450330068612857
 51
234.6549956391107798
  0
CIRCLE
  5
153
100
AcDbEntity
100
AcDbCircle
  8
Drawings, Motor (NEMA 17)
 62
256
370
-1
  6
ByLayer
 10
0.0
 20
0.0
 30
0.0
 40
11.0
  0
CIRCLE
  5
154
100
AcDbEntity
100
AcDbCircle
  8
Drawings, Motor (NEMA 17)
 62
256
370
-1
  6
ByLayer
 10
0.0
 20
0.0
 30
0.0
 40
3.0
  0
ENDSEC
  0
SECTION
  2
OBJECTS
  0
DICTIONARY
  5
C
100
AcDbDictionary
280
0
281
1
  3
ACAD_GROUP
350
D
  3
ACAD_LAYOUT
350
1A
  3
ACAD_MLINESTYLE
350
17
  3
ACAD_PLOTSETTINGS
350
19
  3
ACAD_PLOTSTYLENAME
350
E
  3
AcDbVariableDictionary
350
155
  0
DICTIONARY
  5
D
100
AcDbDictionary
280
0
281
1
  0
ACDBDICTIONARYWDFLT
  5
E
100
AcDbDictionary
281
1
  3
Normal
350
F
100
AcDbDictionaryWithDefault
340
F
  0
ACDBPLACEHOLDER
  5
F
  0
DICTIONARY
  5
17
100
AcDbDictionary
280
0
281
1
  3
Standard
350
18
  0
MLINESTYLE
  5
18
100
AcDbMlineStyle
  2
STANDARD
 70
0
  3

 62
256
 51
90.0
 52
90.0
 71
2
 49
0.5
 62
256
  6
BYLAYER
 49
-0.5
 62
256
  6
BYLAYER
  0
DICTIONARY
  5
19
100
AcDbDictionary
280
0
281
1
  0
DICTIONARY
  5
1A
100
AcDbDictionary
281
1
  3
Layout1
350
1E
  3
Layout2
350
26
  3
Model
350
22
  0
LAYOUT
  5
1E
100
AcDbPlotSettings
  1

  2
C:\Program Files\AutoCAD 2002\plotters\DWF ePlot (optimized for plotting).pc3
  4

  6

 40
0.0
 41
0.0
 42
0.0
 43
0.0
 44
0.0
 45
0.0
 46
0.0
 47
0.0
 48
0.0
 49
0.0
140
0.0
141
0.0
142
1.0
143
1.0
 70
688
 72
0
 73
0
 74
5
  7

 75
16
147
1.0
148
0.0
149
0.0
100
AcDbLayout
  1
Layout1
 70
1
 71
1
 10
0.0
 20
0.0
 11
420.0
 21
297.0
 12
0.0
 22
0.0
 32
0.0
 14
100000000000000000000.0
 24
100000000000000000000.0
 34
100000000000000000000.0
 15
-100000000000000000000.0
 25
-100000000000000000000.0
 35
-100000000000000000000.0
146
0.0
 13
0.0
 23
0.0
 33
0.0
 16
1.0
 26
0.0
 36
0.0
 17
0.0
 27
1.0
 37
0.0
 76
0
330
1B
  0
LAYOUT
  5
22
100
AcDbPlotSettings
  1

  2
C:\Program Files\AutoCAD 2002\plotters\DWF ePlot (optimized for plotting).pc3
  4

  6

 40
0.0
 41
0.0
 42
0.0
 43
0.0
 44
0.0
 45
0.0
 46
0.0
 47
0.0
 48
0.0
 49
0.0
140
0.0
141
0.0
142
1.0
143
1.0
 70
1712
 72
0
 73
0
 74
0
  7

 75
0
147
1.0
148
0.0
149
0.0
100
AcDbLayout
  1
Model
 70
1
 71
0
 10
0.0
 20
0.0
 11
12.0
 21
9.0
 12
0.0
 22
0.0
 32
0.0
 14
0.0
 24
0.0
 34
0.0
 15
0.0
 25
0.0
 35
0.0
146
0.0
 13
0.0
 23
0.0
 33
0.0
 16
1.0
 26
0.0
 36
0.0
 17
0.0
 27
1.0
 37
0.0
 76
0
330
1F
  0
LAYOUT
  5
26
100
AcDbPlotSettings
  1

  2
C:\Program Files\AutoCAD 2002\plotters\DWF ePlot (optimized for plotting).pc3
  4

  6

 40
0.0
 41
0.0
 42
0.0
 43
0.0
 44
0.0
 45
0.0
 46
0.0
 47
0.0
 48
0.0
 49
0.0
140
0.0
141
0.0
142
1.0
143
1.0
 70
688
 72
0
 73
0
 74
5
  7

 75
16
147
1.0
148
0.0
149
0.0
100
AcDbLayout
  1
Layout2
 70
1
 71
2
 10
0.0
 20
0.0
 11
12.0
 21
9.0
 12
0.0
 22
0.0
 32
0.0
 14
0.0
 24
0.0
 34
0.0
 15
0.0
 25
0.0
 35
0.0
146
0.0
 13
0.0
 23
0.0
 33
0.0
 16
1.0
 26
0.0
 36
0.0
 17
0.0
 27
1.0
 37
0.0
 76
0
330
23
  0
DICTIONARY
  5
155
100
AcDbDictionary
281
1
  3
DIMASSOC
350
157
  3
HIDETEXT
350
156
  0
DICTIONARYVAR
  5
156
100
DictionaryVariables
280
0
  1
2
  0
DICTIONARYVAR
  5
157
100
DictionaryVariables
280
0
  1
1
  0
ENDSEC
  0
EOF
