999
dxflib 2.2.0.0
  0
SECTION
  2
HEADER
  9
$ACADVER
  1
AC1015
  9
$HANDSEED
  5
FFFF
  9
$DIMASZ
 40
2.5
  9
$PLIMMIN
 10
0.0
 20
0.0
  9
$DIMEXE
 40
1.25
  9
$DIMGAP
 40
0.625
  9
$PLIMMAX
 10
210.0
 20
297.0
  9
$INSUNITS
 70
4
  9
$DIMSTYLE
  2
Standard
  9
$CLAYER
  8
0
  9
$DIMEXO
 40
0.625
  9
$DIMTXT
 40
2.5
  9
$CLAYER
  8
0
  0
ENDSEC
  0
SECTION
  2
TABLES
  0
TABLE
  2
VPORT
  5
8
100
AcDbSymbolTable
 70
1
  0
VPORT
  5
30
100
AcDbSymbolTableRecord
100
AcDbViewportTableRecord
  2
*Active
 70
0
 10
0.0
 20
0.0
 11
1.0
 21
1.0
 12
286.3055555555554861
 22
148.5
 13
0.0
 23
0.0
 14
10.0
 24
10.0
 15
10.0
 25
10.0
 16
0.0
 26
0.0
 36
1.0
 17
0.0
 27
0.0
 37
0.0
 40
297.0
 41
1.92798353909465
 42
50.0
 43
0.0
 44
0.0
 50
0.0
 51
0.0
 71
0
 72
100
 73
1
 74
3
 75
1
 76
1
 77
0
 78
0
281
0
 65
1
110
0.0
120
0.0
130
0.0
111
1.0
121
0.0
131
0.0
112
0.0
122
1.0
132
0.0
 79
0
146
0.0
  0
ENDTAB
  0
TABLE
  2
LTYPE
  5
5
100
AcDbSymbolTable
 70
21
  0
LTYPE
  5
14
100
AcDbSymbolTableRecord
100
AcDbLinetypeTableRecord
  2
ByBlock
 70
0
  3

 72
65
 73
0
 40
0.0
  0
LTYPE
  5
15
100
AcDbSymbolTableRecord
100
AcDbLinetypeTableRecord
  2
ByLayer
 70
0
  3

 72
65
 73
0
 40
0.0
  0
LTYPE
  5
16
100
AcDbSymbolTableRecord
100
AcDbLinetypeTableRecord
  2
CONTINUOUS
 70
0
  3
Solid line
 72
65
 73
0
 40
0.0
  0
LTYPE
  5
31
100
AcDbSymbolTableRecord
100
AcDbLinetypeTableRecord
  2
DOT
 70
0
  3
Dot . . . . . . . . . . . . . . . . . . . . . .
 72
65
 73
2
 40
6.3499999999999996
 49
0.0
 74
0
 49
-6.3499999999999996
 74
0
  0
LTYPE
  5
32
100
AcDbSymbolTableRecord
100
AcDbLinetypeTableRecord
  2
DOT2
 70
0
  3
Dot (.5x) .....................................
 72
65
 73
2
 40
3.1749999999999998
 49
0.0
 74
0
 49
-3.1749999999999998
 74
0
  0
LTYPE
  5
33
100
AcDbSymbolTableRecord
100
AcDbLinetypeTableRecord
  2
DOTX2
 70
0
  3
Dot (2x) .  .  .  .  .  .  .  .  .  .  .  .  .
 72
65
 73
2
 40
12.6999999999999993
 49
0.0
 74
0
 49
-12.6999999999999993
 74
0
  0
LTYPE
  5
34
100
AcDbSymbolTableRecord
100
AcDbLinetypeTableRecord
  2
DASHED
 70
0
  3
Dashed __ __ __ __ __ __ __ __ __ __ __ __ __ _
 72
65
 73
2
 40
19.0500000000000007
 49
12.6999999999999993
 74
0
 49
-6.3499999999999996
 74
0
  0
LTYPE
  5
35
100
AcDbSymbolTableRecord
100
AcDbLinetypeTableRecord
  2
DASHED2
 70
0
  3
Dashed (.5x) _ _ _ _ _ _ _ _ _ _ _ _ _ _ _ _ _
 72
65
 73
2
 40
9.5250000000000004
 49
6.3499999999999996
 74
0
 49
-3.1749999999999998
 74
0
  0
LTYPE
  5
36
100
AcDbSymbolTableRecord
100
AcDbLinetypeTableRecord
  2
DASHEDX2
 70
0
  3
Dashed (2x) ____  ____  ____  ____  ____  ___
 72
65
 73
2
 40
38.1000000000000014
 49
25.3999999999999986
 74
0
 49
-12.6999999999999993
 74
0
  0
LTYPE
  5
37
100
AcDbSymbolTableRecord
100
AcDbLinetypeTableRecord
  2
DASHDOT
 70
0
  3
Dash dot __ . __ . __ . __ . __ . __ . __ . __
 72
65
 73
4
 40
25.3999999999999986
 49
12.6999999999999993
 74
0
 49
-6.3499999999999996
 74
0
 49
0.0
 74
0
 49
-6.3499999999999996
 74
0
  0
LTYPE
  5
38
100
AcDbSymbolTableRecord
100
AcDbLinetypeTableRecord
  2
DASHDOT2
 70
0
  3
Dash dot (.5x) _._._._._._._._._._._._._._._.
 72
65
 73
4
 40
12.6999999999999993
 49
6.3499999999999996
 74
0
 49
-3.1749999999999998
 74
0
 49
0.0
 74
0
 49
-3.1749999999999998
 74
0
  0
LTYPE
  5
39
100
AcDbSymbolTableRecord
100
AcDbLinetypeTableRecord
  2
DASHDOTX2
 70
0
  3
Dash dot (2x) ____  .  ____  .  ____  .  ___
 72
65
 73
4
 40
50.7999999999999972
 49
25.3999999999999986
 74
0
 49
-12.6999999999999993
 74
0
 49
0.0
 74
0
 49
-12.6999999999999993
 74
0
  0
LTYPE
  5
3A
100
AcDbSymbolTableRecord
100
AcDbLinetypeTableRecord
  2
DIVIDE
 70
0
  3
Divide ____ . . ____ . . ____ . . ____ . . ____
 72
65
 73
6
 40
31.75
 49
12.6999999999999993
 74
0
 49
-6.3499999999999996
 74
0
 49
0.0
 74
0
 49
-6.3499999999999996
 74
0
 49
0.0
 74
0
 49
-6.3499999999999996
 74
0
  0
LTYPE
  5
3B
100
AcDbSymbolTableRecord
100
AcDbLinetypeTableRecord
  2
DIVIDE2
 70
0
  3
Divide (.5x) __..__..__..__..__..__..__..__.._
 72
65
 73
6
 40
15.875
 49
6.3499999999999996
 74
0
 49
-3.1749999999999998
 74
0
 49
0.0
 74
0
 49
-3.1749999999999998
 74
0
 49
0.0
 74
0
 49
-3.1749999999999998
 74
0
  0
LTYPE
  5
3C
100
AcDbSymbolTableRecord
100
AcDbLinetypeTableRecord
  2
DIVIDEX2
 70
0
  3
Divide (2x) ________  .  .  ________  .  .  _
 72
65
 73
6
 40
63.5
 49
25.3999999999999986
 74
0
 49
-12.6999999999999993
 74
0
 49
0.0
 74
0
 49
-12.6999999999999993
 74
0
 49
0.0
 74
0
 49
-12.6999999999999993
 74
0
  0
LTYPE
  5
3D
100
AcDbSymbolTableRecord
100
AcDbLinetypeTableRecord
  2
CENTER
 70
0
  3
Center ____ _ ____ _ ____ _ ____ _ ____ _ ____
 72
65
 73
4
 40
50.7999999999999972
 49
31.75
 74
0
 49
-6.3499999999999996
 74
0
 49
6.3499999999999996
 74
0
 49
-6.3499999999999996
 74
0
  0
LTYPE
  5
3E
100
AcDbSymbolTableRecord
100
AcDbLinetypeTableRecord
  2
CENTER2
 70
0
  3
Center (.5x) ___ _ ___ _ ___ _ ___ _ ___ _ ___
 72
65
 73
4
 40
28.5749999999999993
 49
19.0500000000000007
 74
0
 49
-3.1749999999999998
 74
0
 49
3.1749999999999998
 74
0
 49
-3.1749999999999998
 74
0
  0
LTYPE
  5
3F
100
AcDbSymbolTableRecord
100
AcDbLinetypeTableRecord
  2
CENTERX2
 70
0
  3
Center (2x) ________  __  ________  __  _____
 72
65
 73
4
 40
101.5999999999999943
 49
63.5
 74
0
 49
-12.6999999999999993
 74
0
 49
12.6999999999999993
 74
0
 49
-12.6999999999999993
 74
0
  0
LTYPE
  5
40
100
AcDbSymbolTableRecord
100
AcDbLinetypeTableRecord
  2
BORDER
 70
0
  3
Border __ __ . __ __ . __ __ . __ __ . __ __ .
 72
65
 73
6
 40
44.4500000000000028
 49
12.6999999999999993
 74
0
 49
-6.3499999999999996
 74
0
 49
12.6999999999999993
 74
0
 49
-6.3499999999999996
 74
0
 49
0.0
 74
0
 49
-6.3499999999999996
 74
0
  0
LTYPE
  5
41
100
AcDbSymbolTableRecord
100
AcDbLinetypeTableRecord
  2
BORDER2
 70
0
  3
Border (.5x) __.__.__.__.__.__.__.__.__.__.__.
 72
65
 73
6
 40
22.2250000000000014
 49
6.3499999999999996
 74
0
 49
-3.1749999999999998
 74
0
 49
6.3499999999999996
 74
0
 49
-3.1749999999999998
 74
0
 49
0.0
 74
0
 49
-3.1749999999999998
 74
0
  0
LTYPE
  5
42
100
AcDbSymbolTableRecord
100
AcDbLinetypeTableRecord
  2
BORDERX2
 70
0
  3
Border (2x) ____  ____  .  ____  ____  .  ___
 72
65
 73
6
 40
88.9000000000000057
 49
25.3999999999999986
 74
0
 49
-12.6999999999999993
 74
0
 49
25.3999999999999986
 74
0
 49
-12.6999999999999993
 74
0
 49
0.0
 74
0
 49
-12.6999999999999993
 74
0
  0
ENDTAB
  0
TABLE
  2
LAYER
  5
2
100
AcDbSymbolTable
 70
3
  0
LAYER
  5
10
100
AcDbSymbolTableRecord
100
AcDbLayerTableRecord
  2
0
 70
0
 62
7
420
0
  6
CONTINUOUS
370
25
390
F
  0
LAYER
  5
43
100
AcDbSymbolTableRecord
100
AcDbLayerTableRecord
  2
Body
 70
0
 62
7
420
0
  6
CONTINUOUS
370
0
390
F
  0
LAYER
  5
44
100
AcDbSymbolTableRecord
100
AcDbLayerTableRecord
  2
Shaft Bracket
 70
0
 62
7
420
0
  6
CONTINUOUS
370
0
390
F
  0
ENDTAB
  0
TABLE
  2
STYLE
  5
3
100
AcDbSymbolTable
 70
1
  0
STYLE
  5
11
100
AcDbSymbolTableRecord
100
AcDbTextStyleTableRecord
  2
Standard
 70
0
 40
0.0
 41
0.75
 50
0.0
 71
0
 42
2.5
  3
txt
  4

  0
ENDTAB
  0
TABLE
  2
VIEW
  5
6
100
AcDbSymbolTable
 70
0
  0
ENDTAB
  0
TABLE
  2
UCS
  5
7
100
AcDbSymbolTable
 70
0
  0
ENDTAB
  0
TABLE
  2
APPID
  5
9
100
AcDbSymbolTable
 70
1
  0
APPID
  5
12
100
AcDbSymbolTableRecord
100
AcDbRegAppTableRecord
  2
ACAD
 70
0
  0
ENDTAB
  0
TABLE
  2
DIMSTYLE
  5
A
100
AcDbSymbolTable
 70
1
100
AcDbDimStyleTable
 71
0
  0
DIMSTYLE
105
27
100
AcDbSymbolTableRecord
100
AcDbDimStyleTableRecord
  2
Standard
 41
2.5
 42
0.625
 43
3.75
 44
1.25
 70
0
 73
0
 74
0
 77
1
 78
8
140
2.5
141
2.5
143
0.03937007874016
147
0.625
171
3
172
1
271
2
272
2
274
3
278
44
283
0
284
8
340
11
  0
ENDTAB
  0
TABLE
  2
BLOCK_RECORD
  5
1
100
AcDbSymbolTable
 70
1
  0
BLOCK_RECORD
  5
1F
100
AcDbSymbolTableRecord
100
AcDbBlockTableRecord
  2
*Model_Space
340
22
  0
BLOCK_RECORD
  5
1B
100
AcDbSymbolTableRecord
100
AcDbBlockTableRecord
  2
*Paper_Space
340
1E
  0
BLOCK_RECORD
  5
23
100
AcDbSymbolTableRecord
100
AcDbBlockTableRecord
  2
*Paper_Space0
340
26
  0
BLOCK_RECORD
  5
45
100
AcDbSymbolTableRecord
100
AcDbBlockTableRecord
  2
tabs-with-bolt-20
340
0
  0
BLOCK_RECORD
  5
46
100
AcDbSymbolTableRecord
100
AcDbBlockTableRecord
  2
holes-20
340
0
  0
ENDTAB
  0
ENDSEC
  0
SECTION
  2
BLOCKS
  0
BLOCK
  5
20
100
AcDbEntity
  8
0
100
AcDbBlockBegin
  2
*Model_Space
 70
0
 10
0.0
 20
0.0
 30
0.0
  3
*Model_Space
  1

  0
ENDBLK
  5
21
100
AcDbEntity
  8
0
100
AcDbBlockEnd
  0
BLOCK
  5
1C
100
AcDbEntity
 67
1
  8
0
100
AcDbBlockBegin
  2
*Paper_Space
 70
0
 10
0.0
 20
0.0
 30
0.0
  3
*Paper_Space
  1

  0
ENDBLK
  5
1D
100
AcDbEntity
 67
1
  8
0
100
AcDbBlockEnd
  0
BLOCK
  5
24
100
AcDbEntity
  8
0
100
AcDbBlockBegin
  2
*Paper_Space0
 70
0
 10
0.0
 20
0.0
 30
0.0
  3
*Paper_Space0
  1

  0
ENDBLK
  5
25
100
AcDbEntity
  8
0
100
AcDbBlockEnd
  0
BLOCK
  5
47
100
AcDbEntity
  8
0
100
AcDbBlockBegin
  2
tabs-with-bolt-20
 70
0
 10
0.0
 20
0.0
 30
0.0
  3
tabs-with-bolt-20
  1

  0
LINE
  5
48
100
AcDbEntity
100
AcDbLine
  8
0
 62
256
370
-1
  6
ByLayer
 10
-1.499999999999996
 20
11.5000000000000036
 30
0.0
 11
1.5000000000000056
 21
11.5000000000000036
 31
0.0
  0
LINE
  5
49
100
AcDbEntity
100
AcDbLine
  8
0
 62
256
370
-1
  6
ByLayer
 10
-2.8599999999999914
 20
8.3300000000000018
 30
0.0
 11
-2.8599999999999892
 21
10.5000000000000053
 31
0.0
  0
LINE
  5
4A
100
AcDbEntity
100
AcDbLine
  8
0
 62
256
370
-1
  6
ByLayer
 10
2.8600000000000017
 20
10.4999999999999982
 30
0.0
 11
2.8599999999999972
 21
8.3300000000000018
 31
0.0
  0
LINE
  5
4B
100
AcDbEntity
100
AcDbLine
  8
0
 62
256
370
-1
  6
ByLayer
 10
-1.4999999999999982
 20
8.3300000000000054
 30
0.0
 11
-2.8599999999999914
 21
8.3300000000000018
 31
0.0
  0
LINE
  5
4C
100
AcDbEntity
100
AcDbLine
  8
0
 62
256
370
-1
  6
ByLayer
 10
2.8599999999999972
 20
8.3300000000000018
 30
0.0
 11
1.5000000000000049
 21
8.3299999999999983
 31
0.0
  0
LINE
  5
4D
100
AcDbEntity
100
AcDbLine
  8
0
 62
256
370
-1
  6
ByLayer
 10
1.5000000000000056
 20
11.5000000000000036
 30
0.0
 11
1.5000000000000024
 21
10.5000000000000036
 31
0.0
  0
LINE
  5
4E
100
AcDbEntity
100
AcDbLine
  8
0
 62
256
370
-1
  6
ByLayer
 10
1.5000000000000024
 20
10.5000000000000036
 30
0.0
 11
2.8600000000000017
 21
10.4999999999999982
 31
0.0
  0
LINE
  5
4F
100
AcDbEntity
100
AcDbLine
  8
0
 62
256
370
-1
  6
ByLayer
 10
-2.8599999999999892
 20
10.5000000000000053
 30
0.0
 11
-1.4999999999999976
 21
10.5000000000000053
 31
0.0
  0
LINE
  5
50
100
AcDbEntity
100
AcDbLine
  8
0
 62
256
370
-1
  6
ByLayer
 10
-1.4999999999999976
 20
10.5000000000000053
 30
0.0
 11
-1.499999999999996
 21
11.5000000000000036
 31
0.0
  0
LINE
  5
51
100
AcDbEntity
100
AcDbLine
  8
0
 62
256
370
-1
  6
ByLayer
 10
-10.0000000000000018
 20
-4.4999999999999947
 30
0.0
 11
-10.0
 21
0.0000000000000018
 31
0.0
  0
ARC
  5
52
100
AcDbEntity
  8
0
 62
256
370
-1
  6
ByLayer
100
AcDbCircle
 10
-9.5000000000000036
 20
-4.4999999999999929
 30
0.0
 40
0.5
100
AcDbArc
 50
180.0
 51
270.0
  0
LINE
  5
53
100
AcDbEntity
100
AcDbLine
  8
0
 62
256
370
-1
  6
ByLayer
 10
-5.4999999999999964
 20
-5.0
 30
0.0
 11
-9.5000000000000036
 21
-4.9999999999999929
 31
0.0
  0
LINE
  5
54
100
AcDbEntity
100
AcDbLine
  8
0
 62
256
370
-1
  6
ByLayer
 10
-4.9999999999999982
 20
0.0000000000000009
 30
0.0
 11
-5.0000000000000018
 21
-4.4999999999999947
 31
0.0
  0
ARC
  5
55
100
AcDbEntity
  8
0
 62
256
370
-1
  6
ByLayer
100
AcDbCircle
 10
-5.4999999999999982
 20
-4.4999999999999982
 30
0.0
 40
0.5
100
AcDbArc
 50
270.0
 51
0.0
  0
LINE
  5
56
100
AcDbEntity
100
AcDbLine
  8
0
 62
256
370
-1
  6
ByLayer
 10
-1.9999999999999973
 20
0.0000000000000049
 30
0.0
 11
-4.9999999999999982
 21
0.0000000000000009
 31
0.0
  0
LINE
  5
57
100
AcDbEntity
100
AcDbLine
  8
0
 62
256
370
-1
  6
ByLayer
 10
-1.4999999999999978
 20
0.5000000000000058
 30
0.0
 11
-1.4999999999999982
 21
8.3300000000000054
 31
0.0
  0
ARC
  5
58
100
AcDbEntity
  8
0
 62
256
370
-1
  6
ByLayer
100
AcDbCircle
 10
-1.9999999999999982
 20
0.5000000000000058
 30
0.0
 40
0.5
100
AcDbArc
 50
270.0000000000000568
 51
0.0
  0
LINE
  5
59
100
AcDbEntity
100
AcDbLine
  8
0
 62
256
370
-1
  6
ByLayer
 10
1.5000000000000049
 20
8.3299999999999983
 30
0.0
 11
1.4999999999999967
 21
0.5000000000000013
 31
0.0
  0
LINE
  5
5A
100
AcDbEntity
100
AcDbLine
  8
0
 62
256
370
-1
  6
ByLayer
 10
1.9999999999999978
 20
0.0000000000000027
 30
0.0
 11
4.9999999999999982
 21
-0.0000000000000009
 31
0.0
  0
ARC
  5
5B
100
AcDbEntity
  8
0
 62
256
370
-1
  6
ByLayer
100
AcDbCircle
 10
1.9999999999999991
 20
0.500000000000004
 30
0.0
 40
0.5
100
AcDbArc
 50
180.0
 51
269.9999999999999432
  0
LINE
  5
5C
100
AcDbEntity
100
AcDbLine
  8
0
 62
256
370
-1
  6
ByLayer
 10
4.9999999999999982
 20
-0.0000000000000009
 30
0.0
 11
5.0
 21
-4.4999999999999982
 31
0.0
  0
ARC
  5
5D
100
AcDbEntity
  8
0
 62
256
370
-1
  6
ByLayer
100
AcDbCircle
 10
5.4999999999999964
 20
-4.5
 30
0.0
 40
0.5
100
AcDbArc
 50
180.0
 51
270.0
  0
LINE
  5
5E
100
AcDbEntity
100
AcDbLine
  8
0
 62
256
370
-1
  6
ByLayer
 10
5.4999999999999929
 20
-5.0000000000000018
 30
0.0
 11
9.4999999999999947
 21
-5.0000000000000053
 31
0.0
  0
LINE
  5
5F
100
AcDbEntity
100
AcDbLine
  8
0
 62
256
370
-1
  6
ByLayer
 10
9.9999999999999947
 20
-4.5000000000000018
 30
0.0
 11
9.9999999999999982
 21
-0.0000000000000071
 31
0.0
  0
ARC
  5
60
100
AcDbEntity
  8
0
 62
256
370
-1
  6
ByLayer
100
AcDbCircle
 10
9.5000000000000018
 20
-4.4999999999999982
 30
0.0
 40
0.5
100
AcDbArc
 50
270.0
 51
0.0
  0
ENDBLK
  5
61
100
AcDbEntity
  8
0
100
AcDbBlockEnd
  0
BLOCK
  5
62
100
AcDbEntity
  8
0
100
AcDbBlockBegin
  2
holes-20
 70
0
 10
0.0
 20
0.0
 30
0.0
  3
holes-20
  1

  0
CIRCLE
  5
63
100
AcDbEntity
100
AcDbCircle
  8
0
 62
256
370
-1
  6
ByLayer
 10
0.0
 20
0.0
 30
0.0
 40
1.5
  0
LINE
  5
64
100
AcDbEntity
100
AcDbLine
  8
0
 62
256
370
-1
  6
ByLayer
 10
5.0
 20
2.5000000000000004
 30
0.0
 11
10.0
 21
2.5000000000000009
 31
0.0
  0
LINE
  5
65
100
AcDbEntity
100
AcDbLine
  8
0
 62
256
370
-1
  6
ByLayer
 10
4.9999999999999991
 20
-2.5000000000000013
 30
0.0
 11
10.0
 21
-2.5000000000000031
 31
0.0
  0
LINE
  5
66
100
AcDbEntity
100
AcDbLine
  8
0
 62
256
370
-1
  6
ByLayer
 10
-4.9999999999999991
 20
2.5000000000000004
 30
0.0
 11
-10.0
 21
2.5000000000000022
 31
0.0
  0
LINE
  5
67
100
AcDbEntity
100
AcDbLine
  8
0
 62
256
370
-1
  6
ByLayer
 10
-5.0000000000000018
 20
-2.5
 30
0.0
 11
-10.0
 21
-2.4999999999999996
 31
0.0
  0
LINE
  5
68
100
AcDbEntity
100
AcDbLine
  8
0
 62
256
370
-1
  6
ByLayer
 10
-10.0
 20
2.5000000000000022
 30
0.0
 11
-10.0
 21
-2.4999999999999996
 31
0.0
  0
LINE
  5
69
100
AcDbEntity
100
AcDbLine
  8
0
 62
256
370
-1
  6
ByLayer
 10
-4.9999999999999991
 20
2.5000000000000004
 30
0.0
 11
-5.0000000000000018
 21
-2.5
 31
0.0
  0
LINE
  5
6A
100
AcDbEntity
100
AcDbLine
  8
0
 62
256
370
-1
  6
ByLayer
 10
5.0
 20
2.5000000000000004
 30
0.0
 11
4.9999999999999991
 21
-2.5000000000000013
 31
0.0
  0
LINE
  5
6B
100
AcDbEntity
100
AcDbLine
  8
0
 62
256
370
-1
  6
ByLayer
 10
10.0
 20
2.5000000000000009
 30
0.0
 11
10.0
 21
-2.5000000000000031
 31
0.0
  0
ENDBLK
  5
6C
100
AcDbEntity
  8
0
100
AcDbBlockEnd
  0
ENDSEC
  0
SECTION
  2
ENTITIES
  0
ARC
  5
6D
100
AcDbEntity
  8
Body
 62
256
370
-1
  6
ByLayer
100
AcDbCircle
 10
-79.6951647623534143
 20
-290.0000000000005684
 30
0.0
 40
5.0
100
AcDbArc
 50
180.0
 51
270.0
  0
LINE
  5
6E
100
AcDbEntity
100
AcDbLine
  8
Body
 62
256
370
-1
  6
ByLayer
 10
5.3048352376463974
 20
-295.0000000000004547
 30
0.0
 11
-79.6951647623535848
 21
-295.0000000000002842
 31
0.0
  0
ARC
  5
6F
100
AcDbEntity
  8
Body
 62
256
370
-1
  6
ByLayer
100
AcDbCircle
 10
310.3048352376465004
 20
-160.0000000000006253
 30
0.0
 40
5.0
100
AcDbArc
 50
360.0
 51
90.0
  0
LINE
  5
70
100
AcDbEntity
100
AcDbLine
  8
Body
 62
256
370
-1
  6
ByLayer
 10
225.3048352376466141
 20
-155.0000000000004547
 30
0.0
 11
310.3048352376466141
 21
-155.0000000000011369
 31
0.0
  0
ARC
  5
71
100
AcDbEntity
  8
Body
 62
256
370
-1
  6
ByLayer
100
AcDbCircle
 10
310.3048352376465004
 20
-290.0000000000005116
 30
0.0
 40
5.0
100
AcDbArc
 50
270.0
 51
360.0
  0
ARC
  5
72
100
AcDbEntity
  8
Body
 62
256
370
-1
  6
ByLayer
100
AcDbCircle
 10
-79.6951647623533859
 20
-160.0000000000004547
 30
0.0
 40
5.0
100
AcDbArc
 50
90.0
 51
180.0
  0
LINE
  5
73
100
AcDbEntity
100
AcDbLine
  8
Body
 62
256
370
-1
  6
ByLayer
 10
-84.6951647623533717
 20
-237.0000000000004547
 30
0.0
 11
-84.6951647623534143
 21
-290.0000000000005684
 31
0.0
  0
LINE
  5
74
100
AcDbEntity
100
AcDbLine
  8
Body
 62
256
370
-1
  6
ByLayer
 10
-84.6951647623534143
 20
-160.0000000000004263
 30
0.0
 11
-84.6951647623534001
 21
-217.0000000000004547
 31
0.0
  0
LINE
  5
75
100
AcDbEntity
100
AcDbLine
  8
Body
 62
256
370
-1
  6
ByLayer
 10
315.3048352376463299
 20
-290.0000000000006253
 30
0.0
 11
315.3048352376465004
 21
-235.0000000000005684
 31
0.0
  0
LINE
  5
76
100
AcDbEntity
100
AcDbLine
  8
Body
 62
256
370
-1
  6
ByLayer
 10
315.304835237646671
 20
-215.0000000000003979
 30
0.0
 11
315.3048352376465573
 21
-160.0000000000005684
 31
0.0
  0
ARC
  5
77
100
AcDbEntity
  8
Body
 62
256
370
-1
  6
ByLayer
100
AcDbCircle
 10
-92.195164762353258
 20
199.9999999999993747
 30
0.0
 40
5.0
100
AcDbArc
 50
180.0
 51
270.0
  0
ARC
  5
78
100
AcDbEntity
  8
Body
 62
256
370
-1
  6
ByLayer
100
AcDbCircle
 10
-92.1951647623532153
 20
354.9999999999994316
 30
0.0
 40
5.0
100
AcDbArc
 50
90.0
 51
180.0
  0
LINE
  5
79
100
AcDbEntity
100
AcDbLine
  8
Body
 62
256
370
-1
  6
ByLayer
 10
-97.1951647623531727
 20
354.9999999999994316
 30
0.0
 11
-97.1951647623532438
 21
199.9999999999994031
 31
0.0
  0
ARC
  5
7A
100
AcDbEntity
  8
Body
 62
256
370
-1
  6
ByLayer
100
AcDbCircle
 10
322.8048352376465004
 20
199.9999999999996305
 30
0.0
 40
5.0
100
AcDbArc
 50
270.0
 51
360.0
  0
ARC
  5
7B
100
AcDbEntity
  8
Body
 62
256
370
-1
  6
ByLayer
100
AcDbCircle
 10
322.8048352376465573
 20
354.9999999999997726
 30
0.0
 40
5.0
100
AcDbArc
 50
360.0
 51
90.0
  0
LINE
  5
7C
100
AcDbEntity
100
AcDbLine
  8
Body
 62
256
370
-1
  6
ByLayer
 10
327.8048352376465004
 20
199.9999999999996021
 30
0.0
 11
327.8048352376465573
 21
354.9999999999996589
 31
0.0
  0
LINE
  5
7D
100
AcDbEntity
100
AcDbLine
  8
Body
 62
256
370
-1
  6
ByLayer
 10
-92.1951647623531443
 20
359.9999999999994316
 30
0.0
 11
322.8048352376465573
 21
360.0000000000003979
 31
0.0
  0
INSERT
  5
7E
100
AcDbEntity
100
AcDbBlockReference
  8
Body
 62
256
370
-1
  6
ByLayer
  2
tabs-with-bolt-20
 10
115.3048352376465431
 20
-155.0000000000004832
 30
0.0
 50
180.0
 44
1.0
 45
1.0
  0
INSERT
  5
7F
100
AcDbEntity
100
AcDbBlockReference
  8
Body
 62
256
370
-1
  6
ByLayer
  2
tabs-with-bolt-20
 10
115.3048352376465715
 20
-295.0000000000004547
 30
0.0
 50
360.0
 44
1.0
 45
1.0
  0
INSERT
  5
80
100
AcDbEntity
100
AcDbBlockReference
  8
Body
 62
256
370
-1
  6
ByLayer
  2
tabs-with-bolt-20
 10
215.3048352376467278
 20
-295.0000000000003979
 30
0.0
 50
360.0
 44
1.0
 45
1.0
  0
LINE
  5
81
100
AcDbEntity
100
AcDbLine
  8
Body
 62
256
370
-1
  6
ByLayer
 10
125.3048352376465573
 20
-295.0000000000004547
 30
0.0
 11
205.3048352376464436
 21
-295.0000000000006253
 31
0.0
  0
INSERT
  5
82
100
AcDbEntity
100
AcDbBlockReference
  8
Body
 62
256
370
-1
  6
ByLayer
  2
tabs-with-bolt-20
 10
15.3048352376465306
 20
-295.0000000000004547
 30
0.0
 50
360.0
 44
1.0
 45
1.0
  0
LINE
  5
83
100
AcDbEntity
100
AcDbLine
  8
Body
 62
256
370
-1
  6
ByLayer
 10
25.3048352376464472
 20
-295.0000000000002842
 30
0.0
 11
105.3048352376464862
 21
-295.0000000000005116
 31
0.0
  0
LINE
  5
84
100
AcDbEntity
100
AcDbLine
  8
Body
 62
256
370
-1
  6
ByLayer
 10
225.3048352376465857
 20
-295.0000000000005116
 30
0.0
 11
310.3048352376463299
 21
-295.0000000000006821
 31
0.0
  0
INSERT
  5
85
100
AcDbEntity
100
AcDbBlockReference
  8
Body
 62
256
370
-1
  6
ByLayer
  2
tabs-with-bolt-20
 10
15.3048352376466514
 20
-155.0000000000004547
 30
0.0
 50
180.0
 44
1.0
 45
1.0
  0
LINE
  5
86
100
AcDbEntity
100
AcDbLine
  8
Body
 62
256
370
-1
  6
ByLayer
 10
105.3048352376465999
 20
-155.0000000000004547
 30
0.0
 11
25.3048352376465253
 21
-155.0000000000004547
 31
0.0
  0
INSERT
  5
87
100
AcDbEntity
100
AcDbBlockReference
  8
Body
 62
256
370
-1
  6
ByLayer
  2
tabs-with-bolt-20
 10
215.3048352376465004
 20
-155.0000000000006253
 30
0.0
 50
180.0
 44
1.0
 45
1.0
  0
LINE
  5
88
100
AcDbEntity
100
AcDbLine
  8
Body
 62
256
370
-1
  6
ByLayer
 10
205.3048352376465857
 20
-155.0000000000006821
 30
0.0
 11
125.3048352376465573
 21
-155.0000000000004832
 31
0.0
  0
LINE
  5
89
100
AcDbEntity
100
AcDbLine
  8
Body
 62
256
370
-1
  6
ByLayer
 10
5.3048352376466532
 20
-155.0000000000004547
 30
0.0
 11
-79.6951647623533859
 21
-155.0000000000004547
 31
0.0
  0
INSERT
  5
8A
100
AcDbEntity
100
AcDbBlockReference
  8
Body
 62
256
370
-1
  6
ByLayer
  2
tabs-with-bolt-20
 10
-84.6951647623533006
 20
-227.0000000000004547
 30
0.0
 50
270.0
 44
1.0
 45
1.0
  0
INSERT
  5
8B
100
AcDbEntity
100
AcDbBlockReference
  8
Body
 62
256
370
-1
  6
ByLayer
  2
tabs-with-bolt-20
 10
315.3048352376465573
 20
-225.0000000000005684
 30
0.0
 50
90.0
 44
1.0
 45
1.0
  0
INSERT
  5
8C
100
AcDbEntity
100
AcDbBlockReference
  8
Body
 62
256
370
-1
  6
ByLayer
  2
holes-20
 10
215.3048352376466141
 20
204.9999999999995168
 30
0.0
 50
180.0
 44
1.0
 45
1.0
  0
INSERT
  5
8D
100
AcDbEntity
100
AcDbBlockReference
  8
Body
 62
256
370
-1
  6
ByLayer
  2
holes-20
 10
115.3048352376466426
 20
204.9999999999995168
 30
0.0
 50
360.0
 44
1.0
 45
1.0
  0
INSERT
  5
8E
100
AcDbEntity
100
AcDbBlockReference
  8
Body
 62
256
370
-1
  6
ByLayer
  2
holes-20
 10
15.3048352376466212
 20
204.9999999999995453
 30
0.0
 50
360.0
 44
1.0
 45
1.0
  0
INSERT
  5
8F
100
AcDbEntity
100
AcDbBlockReference
  8
Body
 62
256
370
-1
  6
ByLayer
  2
holes-20
 10
215.3048352376466426
 20
349.9999999999995453
 30
0.0
 50
180.0
 44
1.0
 45
1.0
  0
INSERT
  5
90
100
AcDbEntity
100
AcDbBlockReference
  8
Body
 62
256
370
-1
  6
ByLayer
  2
holes-20
 10
115.3048352376466283
 20
349.9999999999995453
 30
0.0
 50
360.0
 44
1.0
 45
1.0
  0
INSERT
  5
91
100
AcDbEntity
100
AcDbBlockReference
  8
Body
 62
256
370
-1
  6
ByLayer
  2
holes-20
 10
15.3048352376466124
 20
349.9999999999995453
 30
0.0
 50
360.0
 44
1.0
 45
1.0
  0
LINE
  5
92
100
AcDbEntity
100
AcDbLine
  8
Body
 62
256
370
-1
  6
ByLayer
 10
-92.1951647623532438
 20
194.9999999999993747
 30
0.0
 11
322.8048352376465004
 21
194.9999999999995168
 31
0.0
  0
INSERT
  5
93
100
AcDbEntity
100
AcDbBlockReference
  8
Body
 62
256
370
-1
  6
ByLayer
  2
holes-20
 10
-87.1951647623532295
 20
277.4999999999994316
 30
0.0
 50
270.0
 44
1.0
 45
1.0
  0
INSERT
  5
94
100
AcDbEntity
100
AcDbBlockReference
  8
Body
 62
256
370
-1
  6
ByLayer
  2
holes-20
 10
317.804835237646671
 20
277.4999999999993747
 30
0.0
 50
270.0
 44
1.0
 45
1.0
  0
LINE
  5
95
100
AcDbEntity
100
AcDbLine
  8
Body
 62
256
370
-1
  6
ByLayer
 10
165.3048352376465857
 20
360.0000000000001705
 30
0.0
 11
165.3048352376466141
 21
194.9999999999995453
 31
0.0
  0
LINE
  5
96
100
AcDbEntity
100
AcDbLine
  8
Body
 62
256
370
-1
  6
ByLayer
 10
339.6951647623532722
 20
277.4999999999993179
 30
0.0
 11
339.6951647623532722
 21
277.4999999999993179
 31
0.0
  0
CIRCLE
  5
97
100
AcDbEntity
100
AcDbCircle
  8
Body
 62
256
370
-1
  6
ByLayer
 10
253.3048352376466426
 20
287.6599999999995703
 30
0.0
 40
1.45
  0
CIRCLE
  5
98
100
AcDbEntity
100
AcDbCircle
  8
Body
 62
256
370
-1
  6
ByLayer
 10
285.3048352376466141
 20
287.6599999999995134
 30
0.0
 40
1.45
  0
CIRCLE
  5
99
100
AcDbEntity
100
AcDbCircle
  8
Body
 62
256
370
-1
  6
ByLayer
 10
253.3048352376466426
 20
301.8399999999994634
 30
0.0
 40
1.45
  0
CIRCLE
  5
9A
100
AcDbEntity
100
AcDbCircle
  8
Body
 62
256
370
-1
  6
ByLayer
 10
285.3048352376466141
 20
301.8399999999995202
 30
0.0
 40
1.45
  0
CIRCLE
  5
9B
100
AcDbEntity
100
AcDbCircle
  8
Body
 62
256
370
-1
  6
ByLayer
 10
268.2048352376466482
 20
297.4999999999995453
 30
0.0
 40
5.4999999999999982
  0
LINE
  5
9C
100
AcDbEntity
100
AcDbLine
  8
Body
 62
256
370
-1
  6
ByLayer
 10
65.3048352376466426
 20
360.0000000000000568
 30
0.0
 11
65.3048352376466141
 21
194.9999999999995453
 31
0.0
  0
LINE
  5
9D
100
AcDbEntity
100
AcDbLine
  8
Shaft Bracket
 62
256
370
-1
  6
ByLayer
 10
-120.0
 20
-235.0
 30
0.0
 11
-160.0
 21
-235.0
 31
0.0
  0
ARC
  5
9E
100
AcDbEntity
  8
Shaft Bracket
 62
256
370
-1
  6
ByLayer
100
AcDbCircle
 10
-140.0
 20
-210.0
 30
0.0
 40
5.0000000000000142
100
AcDbArc
 50
180.0
 51
0.0
  0
ARC
  5
9F
100
AcDbEntity
  8
Shaft Bracket
 62
256
370
-1
  6
ByLayer
100
AcDbCircle
 10
-160.0
 20
-185.0
 30
0.0
 40
14.9999999999999716
100
AcDbArc
 50
0.0
 51
90.0
  0
ARC
  5
A0
100
AcDbEntity
  8
Shaft Bracket
 62
256
370
-1
  6
ByLayer
100
AcDbCircle
 10
-120.0
 20
-185.0000000000000284
 30
0.0
 40
15.0
100
AcDbArc
 50
90.0
 51
180.0
  0
LINE
  5
A1
100
AcDbEntity
100
AcDbLine
  8
Shaft Bracket
 62
256
370
-1
  6
ByLayer
 10
-145.0000000000000284
 20
-210.0
 30
0.0
 11
-145.0
 21
-185.0
 31
0.0
  0
LINE
  5
A2
100
AcDbEntity
100
AcDbLine
  8
Shaft Bracket
 62
256
370
-1
  6
ByLayer
 10
-135.0
 20
-210.0000000000000284
 30
0.0
 11
-134.9999999999999716
 21
-185.0
 31
0.0
  0
LINE
  5
A3
100
AcDbEntity
100
AcDbLine
  8
Shaft Bracket
 62
256
370
-1
  6
ByLayer
 10
-119.9999999999999716
 20
-170.0
 30
0.0
 11
-120.0
 21
-235.0
 31
0.0
  0
LINE
  5
A4
100
AcDbEntity
100
AcDbLine
  8
Shaft Bracket
 62
256
370
-1
  6
ByLayer
 10
-160.0
 20
-235.0
 30
0.0
 11
-160.0
 21
-170.0000000000000568
 31
0.0
  0
CIRCLE
  5
A5
100
AcDbEntity
100
AcDbCircle
  8
Shaft Bracket
 62
256
370
-1
  6
ByLayer
 10
-130.0
 20
-225.0000000000000284
 30
0.0
 40
1.45
  0
CIRCLE
  5
A6
100
AcDbEntity
100
AcDbCircle
  8
Shaft Bracket
 62
256
370
-1
  6
ByLayer
 10
-150.0
 20
-225.0
 30
0.0
 40
1.45
  0
CIRCLE
  5
A7
100
AcDbEntity
100
AcDbCircle
  8
Shaft Bracket
 62
256
370
-1
  6
ByLayer
 10
-150.0000000000000284
 20
-205.0
 30
0.0
 40
1.45
  0
CIRCLE
  5
A8
100
AcDbEntity
100
AcDbCircle
  8
Shaft Bracket
 62
256
370
-1
  6
ByLayer
 10
-130.0
 20
-205.0000000000000284
 30
0.0
 40
1.45
  0
LINE
  5
A9
100
AcDbEntity
100
AcDbLine
  8
Shaft Bracket
 62
256
370
-1
  6
ByLayer
 10
-170.0
 20
-235.0
 30
0.0
 11
-210.0
 21
-235.0
 31
0.0
  0
ARC
  5
AA
100
AcDbEntity
  8
Shaft Bracket
 62
256
370
-1
  6
ByLayer
100
AcDbCircle
 10
-190.0
 20
-210.0
 30
0.0
 40
5.0000000000000142
100
AcDbArc
 50
180.0
 51
0.0
  0
ARC
  5
AB
100
AcDbEntity
  8
Shaft Bracket
 62
256
370
-1
  6
ByLayer
100
AcDbCircle
 10
-209.9999999999999716
 20
-185.0
 30
0.0
 40
14.9999999999999716
100
AcDbArc
 50
0.0
 51
90.0
  0
ARC
  5
AC
100
AcDbEntity
  8
Shaft Bracket
 62
256
370
-1
  6
ByLayer
100
AcDbCircle
 10
-170.0
 20
-185.0000000000000284
 30
0.0
 40
15.0
100
AcDbArc
 50
90.0
 51
180.0
  0
LINE
  5
AD
100
AcDbEntity
100
AcDbLine
  8
Shaft Bracket
 62
256
370
-1
  6
ByLayer
 10
-195.0000000000000284
 20
-210.0
 30
0.0
 11
-195.0
 21
-185.0
 31
0.0
  0
LINE
  5
AE
100
AcDbEntity
100
AcDbLine
  8
Shaft Bracket
 62
256
370
-1
  6
ByLayer
 10
-185.0
 20
-210.0000000000000284
 30
0.0
 11
-184.9999999999999716
 21
-185.0
 31
0.0
  0
LINE
  5
AF
100
AcDbEntity
100
AcDbLine
  8
Shaft Bracket
 62
256
370
-1
  6
ByLayer
 10
-169.9999999999999716
 20
-170.0
 30
0.0
 11
-170.0
 21
-235.0
 31
0.0
  0
LINE
  5
B0
100
AcDbEntity
100
AcDbLine
  8
Shaft Bracket
 62
256
370
-1
  6
ByLayer
 10
-210.0
 20
-235.0
 30
0.0
 11
-209.9999999999999716
 21
-170.0000000000000568
 31
0.0
  0
CIRCLE
  5
B1
100
AcDbEntity
100
AcDbCircle
  8
Shaft Bracket
 62
256
370
-1
  6
ByLayer
 10
-180.0
 20
-225.0000000000000284
 30
0.0
 40
1.45
  0
CIRCLE
  5
B2
100
AcDbEntity
100
AcDbCircle
  8
Shaft Bracket
 62
256
370
-1
  6
ByLayer
 10
-200.0
 20
-225.0
 30
0.0
 40
1.45
  0
CIRCLE
  5
B3
100
AcDbEntity
100
AcDbCircle
  8
Shaft Bracket
 62
256
370
-1
  6
ByLayer
 10
-200.0000000000000284
 20
-205.0
 30
0.0
 40
1.45
  0
CIRCLE
  5
B4
100
AcDbEntity
100
AcDbCircle
  8
Shaft Bracket
 62
256
370
-1
  6
ByLayer
 10
-180.0
 20
-205.0000000000000284
 30
0.0
 40
1.45
  0
INSERT
  5
B5
100
AcDbEntity
100
AcDbBlockReference
  8
0
 62
256
370
-1
  6
ByLayer
  2
holes-20
 10
-45.0000000000001137
 20
97.5000000000003553
 30
0.0
 50
270.0
 44
1.0
 45
1.0
  0
INSERT
  5
B6
100
AcDbEntity
100
AcDbBlockReference
  8
0
 62
256
370
-1
  6
ByLayer
  2
holes-20
 10
-45.0000000000001137
 20
-2.4999999999999258
 30
0.0
 50
270.0
 44
1.0
 45
1.0
  0
INSERT
  5
B7
100
AcDbEntity
100
AcDbBlockReference
  8
0
 62
256
370
-1
  6
ByLayer
  2
holes-20
 10
-45.0000000000001421
 20
-102.4999999999995453
 30
0.0
 50
270.0
 44
1.0
 45
1.0
  0
INSERT
  5
B8
100
AcDbEntity
100
AcDbBlockReference
  8
0
 62
256
370
-1
  6
ByLayer
  2
holes-20
 10
-190.0
 20
97.499999999999531
 30
0.0
 50
270.0
 44
1.0
 45
1.0
  0
INSERT
  5
B9
100
AcDbEntity
100
AcDbBlockReference
  8
0
 62
256
370
-1
  6
ByLayer
  2
holes-20
 10
-190.0
 20
-2.4999999999963971
 30
0.0
 50
270.0
 44
1.0
 45
1.0
  0
INSERT
  5
BA
100
AcDbEntity
100
AcDbBlockReference
  8
0
 62
256
370
-1
  6
ByLayer
  2
holes-20
 10
-190.0
 20
-102.5000000000003837
 30
0.0
 50
270.0
 44
1.0
 45
1.0
  0
LINE
  5
BB
100
AcDbEntity
100
AcDbLine
  8
Body
 62
256
370
-1
  6
ByLayer
 10
395.0
 20
87.49999999999973
 30
0.0
 11
395.0
 21
7.4999999999999076
 31
0.0
  0
LINE
  5
BC
100
AcDbEntity
100
AcDbLine
  8
Body
 62
256
370
-1
  6
ByLayer
 10
395.0
 20
-12.5000000000001315
 30
0.0
 11
395.0
 21
-92.5000000000003695
 31
0.0
  0
LINE
  5
BD
100
AcDbEntity
100
AcDbLine
  8
Body
 62
256
370
-1
  6
ByLayer
 10
-4.9999999999999147
 20
-92.500000000000199
 30
0.0
 11
-4.9999999999998863
 21
-12.4999999999998188
 31
0.0
  0
LINE
  5
BE
100
AcDbEntity
100
AcDbLine
  8
Body
 62
256
370
-1
  6
ByLayer
 10
-4.9999999999998721
 20
7.4999999999996687
 30
0.0
 11
-4.9999999999999574
 21
87.4999999999997726
 31
0.0
  0
INSERT
  5
BF
100
AcDbEntity
100
AcDbBlockReference
  8
Body
 62
256
370
-1
  6
ByLayer
  2
tabs-with-bolt-20
 10
395.0
 20
-102.5000000000004121
 30
0.0
 41
1.0
 42
-1.0
 43
1.0
 50
270.0
 44
1.0
 45
1.0
  0
INSERT
  5
C0
100
AcDbEntity
100
AcDbBlockReference
  8
Body
 62
256
370
-1
  6
ByLayer
  2
tabs-with-bolt-20
 10
395.0
 20
-2.4999999999963443
 30
0.0
 41
1.0
 42
-1.0
 43
1.0
 50
270.0
 44
1.0
 45
1.0
  0
INSERT
  5
C1
100
AcDbEntity
100
AcDbBlockReference
  8
Body
 62
256
370
-1
  6
ByLayer
  2
tabs-with-bolt-20
 10
394.9999999999998863
 20
97.4999999999997868
 30
0.0
 41
1.0
 42
-1.0
 43
1.0
 50
270.0
 44
1.0
 45
1.0
  0
INSERT
  5
C2
100
AcDbEntity
100
AcDbBlockReference
  8
Body
 62
256
370
-1
  6
ByLayer
  2
tabs-with-bolt-20
 10
-4.9999999999999858
 20
-102.4999999999999147
 30
0.0
 41
1.0
 42
-1.0
 43
1.0
 50
90.0
 44
1.0
 45
1.0
  0
INSERT
  5
C3
100
AcDbEntity
100
AcDbBlockReference
  8
Body
 62
256
370
-1
  6
ByLayer
  2
tabs-with-bolt-20
 10
-4.9999999999998437
 20
-2.5000000000004525
 30
0.0
 41
1.0
 42
-1.0
 43
1.0
 50
90.0
 44
1.0
 45
1.0
  0
INSERT
  5
C4
100
AcDbEntity
100
AcDbBlockReference
  8
Body
 62
256
370
-1
  6
ByLayer
  2
tabs-with-bolt-20
 10
-5.0000000000000284
 20
97.4999999999996163
 30
0.0
 41
1.0
 42
-1.0
 43
1.0
 50
90.0
 44
1.0
 45
1.0
  0
ARC
  5
C5
100
AcDbEntity
  8
Body
 62
256
370
-1
  6
ByLayer
100
AcDbCircle
 10
-40.0000000000002274
 20
-142.4999999999994316
 30
0.0
 40
5.0
100
AcDbArc
 50
270.0
 51
360.0
  0
ARC
  5
C6
100
AcDbEntity
  8
Body
 62
256
370
-1
  6
ByLayer
100
AcDbCircle
 10
-194.9999999999999432
 20
-142.5000000000002274
 30
0.0
 40
5.0
100
AcDbArc
 50
180.0
 51
270.0
  0
LINE
  5
C7
100
AcDbEntity
100
AcDbLine
  8
Body
 62
256
370
-1
  6
ByLayer
 10
-194.9999999999999432
 20
-147.5000000000002558
 30
0.0
 11
-40.0000000000001421
 21
-147.4999999999995453
 31
0.0
  0
INSERT
  5
C8
100
AcDbEntity
100
AcDbBlockReference
  8
Body
 62
256
370
-1
  6
ByLayer
  2
holes-20
 10
-117.5000000000001421
 20
-137.4999999999992042
 30
0.0
 50
360.0
 44
1.0
 45
1.0
  0
ARC
  5
C9
100
AcDbEntity
  8
Body
 62
256
370
-1
  6
ByLayer
100
AcDbCircle
 10
390.0
 20
-142.4999999999989484
 30
0.0
 40
5.0
100
AcDbArc
 50
270.0
 51
0.0
  0
ARC
  5
CA
100
AcDbEntity
  8
Body
 62
256
370
-1
  6
ByLayer
100
AcDbCircle
 10
0.0000000000002132
 20
-142.4999999999991189
 30
0.0
 40
5.0
100
AcDbArc
 50
180.0
 51
270.0
  0
INSERT
  5
CB
100
AcDbEntity
100
AcDbBlockReference
  8
Body
 62
256
370
-1
  6
ByLayer
  2
holes-20
 10
94.9999999999999147
 20
-137.4999999999994316
 30
0.0
 41
1.0
 42
-1.0
 43
1.0
 44
1.0
 45
1.0
  0
INSERT
  5
CC
100
AcDbEntity
100
AcDbBlockReference
  8
Body
 62
256
370
-1
  6
ByLayer
  2
holes-20
 10
195.0000000000000284
 20
-137.4999999999994031
 30
0.0
 41
1.0
 42
-1.0
 43
1.0
 50
180.0
 44
1.0
 45
1.0
  0
INSERT
  5
CD
100
AcDbEntity
100
AcDbBlockReference
  8
Body
 62
256
370
-1
  6
ByLayer
  2
holes-20
 10
294.9999999999999432
 20
-137.4999999999994884
 30
0.0
 41
1.0
 42
-1.0
 43
1.0
 50
180.0
 44
1.0
 45
1.0
  0
LINE
  5
CE
100
AcDbEntity
100
AcDbLine
  8
Body
 62
256
370
-1
  6
ByLayer
 10
389.9999999999999432
 20
-147.4999999999997726
 30
0.0
 11
0.0000000000000711
 21
-147.4999999999995168
 31
0.0
  0
LINE
  5
CF
100
AcDbEntity
100
AcDbLine
  8
Body
 62
256
370
-1
  6
ByLayer
 10
-4.999999999999801
 20
-142.4999999999991189
 30
0.0
 11
-4.9999999999999005
 21
-112.5000000000001563
 31
0.0
  0
LINE
  5
D0
100
AcDbEntity
100
AcDbLine
  8
Body
 62
256
370
-1
  6
ByLayer
 10
395.0000000000000568
 20
-112.5000000000002842
 30
0.0
 11
394.9999999999998863
 21
-142.4999999999992042
 31
0.0
  0
ARC
  5
D1
100
AcDbEntity
  8
Body
 62
256
370
-1
  6
ByLayer
100
AcDbCircle
 10
-40.0000000000002274
 20
137.500000000000739
 30
0.0
 40
5.0
100
AcDbArc
 50
360.0
 51
90.0
  0
ARC
  5
D2
100
AcDbEntity
  8
Body
 62
256
370
-1
  6
ByLayer
100
AcDbCircle
 10
-195.0
 20
137.4999999999997442
 30
0.0
 40
5.0
100
AcDbArc
 50
90.0
 51
180.0
  0
INSERT
  5
D3
100
AcDbEntity
100
AcDbBlockReference
  8
Body
 62
256
370
-1
  6
ByLayer
  2
tabs-with-bolt-20
 10
-117.5000000000001421
 20
142.5000000000001421
 30
0.0
 50
180.0
 44
1.0
 45
1.0
  0
LINE
  5
D4
100
AcDbEntity
100
AcDbLine
  8
Body
 62
256
370
-1
  6
ByLayer
 10
-127.5000000000001137
 20
142.5000000000001137
 30
0.0
 11
-195.0
 21
142.4999999999996874
 31
0.0
  0
ARC
  5
D5
100
AcDbEntity
  8
Body
 62
256
370
-1
  6
ByLayer
100
AcDbCircle
 10
389.9999999999997726
 20
137.50000000000054
 30
0.0
 40
5.0
100
AcDbArc
 50
0.0
 51
90.0
  0
ARC
  5
D6
100
AcDbEntity
  8
Body
 62
256
370
-1
  6
ByLayer
100
AcDbCircle
 10
0.0
 20
137.5000000000007674
 30
0.0
 40
5.0
100
AcDbArc
 50
90.0
 51
180.0
  0
LINE
  5
D7
100
AcDbEntity
100
AcDbLine
  8
Body
 62
256
370
-1
  6
ByLayer
 10
84.9999999999999005
 20
142.5000000000003411
 30
0.0
 11
0.0000000000001563
 21
142.5000000000014211
 31
0.0
  0
INSERT
  5
D8
100
AcDbEntity
100
AcDbBlockReference
  8
Body
 62
256
370
-1
  6
ByLayer
  2
tabs-with-bolt-20
 10
294.9999999999999432
 20
142.5000000000003695
 30
0.0
 41
1.0
 42
-1.0
 43
1.0
 44
1.0
 45
1.0
  0
INSERT
  5
D9
100
AcDbEntity
100
AcDbBlockReference
  8
Body
 62
256
370
-1
  6
ByLayer
  2
tabs-with-bolt-20
 10
94.9999999999999005
 20
142.5000000000003411
 30
0.0
 41
1.0
 42
-1.0
 43
1.0
 44
1.0
 45
1.0
  0
LINE
  5
DA
100
AcDbEntity
100
AcDbLine
  8
Body
 62
256
370
-1
  6
ByLayer
 10
304.9999999999998863
 20
142.5000000000003695
 30
0.0
 11
389.9999999999997726
 21
142.50000000000162
 31
0.0
  0
INSERT
  5
DB
100
AcDbEntity
100
AcDbBlockReference
  8
Body
 62
256
370
-1
  6
ByLayer
  2
tabs-with-bolt-20
 10
194.9999999999998863
 20
142.5000000000003411
 30
0.0
 41
1.0
 42
-1.0
 43
1.0
 44
1.0
 45
1.0
  0
LINE
  5
DC
100
AcDbEntity
100
AcDbLine
  8
Body
 62
256
370
-1
  6
ByLayer
 10
104.9999999999999147
 20
142.500000000001819
 30
0.0
 11
184.9999999999998863
 21
142.5000000000019611
 31
0.0
  0
LINE
  5
DD
100
AcDbEntity
100
AcDbLine
  8
Body
 62
256
370
-1
  6
ByLayer
 10
204.9999999999999432
 20
142.5000000000003411
 30
0.0
 11
284.4999999999999432
 21
142.5000000000007958
 31
0.0
  0
ARC
  5
DE
100
AcDbEntity
  8
Body
 62
256
370
-1
  6
ByLayer
100
AcDbCircle
 10
-97.5000000000001137
 20
107.9999998574063795
 30
0.0
 40
2.5495097847613755
100
AcDbArc
 50
180.0
 51
0.0
  0
ARC
  5
DF
100
AcDbEntity
  8
Body
 62
256
370
-1
  6
ByLayer
100
AcDbCircle
 10
-101.0495097847615114
 20
141.5000000000003411
 30
0.0
 40
1.0
100
AcDbArc
 50
0.0
 51
90.0000000000032543
  0
ARC
  5
E0
100
AcDbEntity
  8
Body
 62
256
370
-1
  6
ByLayer
100
AcDbCircle
 10
-93.9504902152387444
 20
141.5000000000003695
 30
0.0
 40
1.0
100
AcDbArc
 50
90.0000000000032543
 51
180.0
  0
LINE
  5
E1
100
AcDbEntity
100
AcDbLine
  8
Body
 62
256
370
-1
  6
ByLayer
 10
-94.950490215238716
 20
107.9999998574064506
 30
0.0
 11
-94.950490215238716
 21
141.5000000000003979
 31
0.0
  0
LINE
  5
E2
100
AcDbEntity
100
AcDbLine
  8
Body
 62
256
370
-1
  6
ByLayer
 10
-100.0495097847614829
 20
107.9999998574064364
 30
0.0
 11
-100.0495097847615114
 21
141.5000000000003126
 31
0.0
  0
LINE
  5
E3
100
AcDbEntity
100
AcDbLine
  8
Body
 62
256
370
-1
  6
ByLayer
 10
-93.9504902152387444
 20
142.5000000000002558
 30
0.0
 11
-40.0000000000002274
 21
142.500000000000739
 31
0.0
  0
LINE
  5
E4
100
AcDbEntity
100
AcDbLine
  8
Body
 62
256
370
-1
  6
ByLayer
 10
-101.0495097847615114
 20
142.5000000000003979
 30
0.0
 11
-107.5000000000001421
 21
142.5000000000001137
 31
0.0
  0
LINE
  5
E5
100
AcDbEntity
100
AcDbLine
  8
Body
 62
256
370
-1
  6
ByLayer
 10
-199.9999999999998295
 20
137.4999999999996874
 30
0.0
 11
-199.9999999999998863
 21
-142.5000000000002842
 31
0.0
  0
LINE
  5
E6
100
AcDbEntity
100
AcDbLine
  8
Body
 62
256
370
-1
  6
ByLayer
 10
-35.0000000000002558
 20
-142.4999999999994031
 30
0.0
 11
-35.0000000000001137
 21
137.500000000000739
 31
0.0
  0
LINE
  5
E7
100
AcDbEntity
100
AcDbLine
  8
Body
 62
256
370
-1
  6
ByLayer
 10
-4.9999999999999716
 20
107.4999999999997442
 30
0.0
 11
-4.9999999999998153
 21
137.5000000000007958
 31
0.0
  0
LINE
  5
E8
100
AcDbEntity
100
AcDbLine
  8
Body
 62
256
370
-1
  6
ByLayer
 10
395.0
 20
137.5000000000004832
 30
0.0
 11
394.9999999999998863
 21
107.4999999999998153
 31
0.0
  0
INSERT
  5
E9
100
AcDbEntity
100
AcDbBlockReference
  8
0
 62
256
370
-1
  6
ByLayer
  2
holes-20
 10
572.5
 20
97.5000000000004547
 30
0.0
 50
270.0
 44
1.0
 45
1.0
  0
INSERT
  5
EA
100
AcDbEntity
100
AcDbBlockReference
  8
0
 62
256
370
-1
  6
ByLayer
  2
holes-20
 10
572.5
 20
-2.4999999999994955
 30
0.0
 50
270.0
 44
1.0
 45
1.0
  0
INSERT
  5
EB
100
AcDbEntity
100
AcDbBlockReference
  8
0
 62
256
370
-1
  6
ByLayer
  2
holes-20
 10
572.4999999999998863
 20
-102.4999999999995595
 30
0.0
 50
270.0
 44
1.0
 45
1.0
  0
INSERT
  5
EC
100
AcDbEntity
100
AcDbBlockReference
  8
0
 62
256
370
-1
  6
ByLayer
  2
holes-20
 10
427.5000000000000568
 20
97.49999999999973
 30
0.0
 50
270.0
 44
1.0
 45
1.0
  0
INSERT
  5
ED
100
AcDbEntity
100
AcDbBlockReference
  8
0
 62
256
370
-1
  6
ByLayer
  2
holes-20
 10
427.5000000000000568
 20
-2.5000000000004357
 30
0.0
 50
270.0
 44
1.0
 45
1.0
  0
INSERT
  5
EE
100
AcDbEntity
100
AcDbBlockReference
  8
0
 62
256
370
-1
  6
ByLayer
  2
holes-20
 10
427.5
 20
-102.5000000000002132
 30
0.0
 50
270.0
 44
1.0
 45
1.0
  0
ARC
  5
EF
100
AcDbEntity
  8
Body
 62
256
370
-1
  6
ByLayer
100
AcDbCircle
 10
577.4999999999997726
 20
-142.4999999999993463
 30
0.0
 40
5.0
100
AcDbArc
 50
270.0
 51
360.0
  0
ARC
  5
F0
100
AcDbEntity
  8
Body
 62
256
370
-1
  6
ByLayer
100
AcDbCircle
 10
422.5000000000001137
 20
-142.5000000000002842
 30
0.0
 40
5.0
100
AcDbArc
 50
180.0
 51
270.0
  0
LINE
  5
F1
100
AcDbEntity
100
AcDbLine
  8
Body
 62
256
370
-1
  6
ByLayer
 10
422.5000000000001137
 20
-147.5000000000002558
 30
0.0
 11
577.4999999999998863
 21
-147.49999999999946
 31
0.0
  0
INSERT
  5
F2
100
AcDbEntity
100
AcDbBlockReference
  8
Body
 62
256
370
-1
  6
ByLayer
  2
holes-20
 10
500.0
 20
-137.4999999999991473
 30
0.0
 50
360.0
 44
1.0
 45
1.0
  0
ARC
  5
F3
100
AcDbEntity
  8
Body
 62
256
370
-1
  6
ByLayer
100
AcDbCircle
 10
577.4999999999998863
 20
137.5000000000008527
 30
0.0
 40
5.0
100
AcDbArc
 50
360.0
 51
90.0
  0
ARC
  5
F4
100
AcDbEntity
  8
Body
 62
256
370
-1
  6
ByLayer
100
AcDbCircle
 10
422.5000000000000568
 20
137.4999999999997158
 30
0.0
 40
5.0
100
AcDbArc
 50
90.0
 51
180.0
  0
INSERT
  5
F5
100
AcDbEntity
100
AcDbBlockReference
  8
Body
 62
256
370
-1
  6
ByLayer
  2
tabs-with-bolt-20
 10
499.9999999999999432
 20
142.5000000000002842
 30
0.0
 50
180.0
 44
1.0
 45
1.0
  0
LINE
  5
F6
100
AcDbEntity
100
AcDbLine
  8
Body
 62
256
370
-1
  6
ByLayer
 10
489.9999999999999432
 20
142.5000000000002274
 30
0.0
 11
422.5000000000001137
 21
142.4999999999997158
 31
0.0
  0
ARC
  5
F7
100
AcDbEntity
  8
Body
 62
256
370
-1
  6
ByLayer
100
AcDbCircle
 10
520.0
 20
107.9999998574064648
 30
0.0
 40
2.5495097847613755
100
AcDbArc
 50
180.0
 51
0.0
  0
ARC
  5
F8
100
AcDbEntity
  8
Body
 62
256
370
-1
  6
ByLayer
100
AcDbCircle
 10
516.4504902152385739
 20
141.5000000000004547
 30
0.0
 40
1.0
100
AcDbArc
 50
0.0
 51
90.0000000000032543
  0
ARC
  5
F9
100
AcDbEntity
  8
Body
 62
256
370
-1
  6
ByLayer
100
AcDbCircle
 10
523.5495097847613124
 20
141.5000000000004547
 30
0.0
 40
1.0
100
AcDbArc
 50
90.0000000000032543
 51
180.0
  0
LINE
  5
FA
100
AcDbEntity
100
AcDbLine
  8
Body
 62
256
370
-1
  6
ByLayer
 10
522.5495097847613124
 20
107.9999998574064648
 30
0.0
 11
522.5495097847613124
 21
141.5000000000004547
 31
0.0
  0
LINE
  5
FB
100
AcDbEntity
100
AcDbLine
  8
Body
 62
256
370
-1
  6
ByLayer
 10
517.4504902152385739
 20
107.9999998574064648
 30
0.0
 11
517.4504902152385739
 21
141.5000000000004547
 31
0.0
  0
LINE
  5
FC
100
AcDbEntity
100
AcDbLine
  8
Body
 62
256
370
-1
  6
ByLayer
 10
523.5495097847613124
 20
142.5000000000003979
 30
0.0
 11
577.4999999999997726
 21
142.5000000000008527
 31
0.0
  0
LINE
  5
FD
100
AcDbEntity
100
AcDbLine
  8
Body
 62
256
370
-1
  6
ByLayer
 10
516.4504902152384602
 20
142.5000000000004547
 30
0.0
 11
509.9999999999999432
 21
142.5000000000002558
 31
0.0
  0
LINE
  5
FE
100
AcDbEntity
100
AcDbLine
  8
Body
 62
256
370
-1
  6
ByLayer
 10
417.5000000000001137
 20
137.4999999999996874
 30
0.0
 11
417.5000000000001137
 21
-142.5000000000002558
 31
0.0
  0
LINE
  5
FF
100
AcDbEntity
100
AcDbLine
  8
Body
 62
256
370
-1
  6
ByLayer
 10
582.4999999999997726
 20
-142.4999999999993463
 30
0.0
 11
582.4999999999998863
 21
137.5000000000008811
 31
0.0
  0
ENDSEC
  0
SECTION
  2
OBJECTS
  0
DICTIONARY
  5
C
100
AcDbDictionary
280
0
281
1
  3
ACAD_GROUP
350
D
  3
ACAD_LAYOUT
350
1A
  3
ACAD_MLINESTYLE
350
17
  3
ACAD_PLOTSETTINGS
350
19
  3
ACAD_PLOTSTYLENAME
350
E
  3
AcDbVariableDictionary
350
100
  0
DICTIONARY
  5
D
100
AcDbDictionary
280
0
281
1
  0
ACDBDICTIONARYWDFLT
  5
E
100
AcDbDictionary
281
1
  3
Normal
350
F
100
AcDbDictionaryWithDefault
340
F
  0
ACDBPLACEHOLDER
  5
F
  0
DICTIONARY
  5
17
100
AcDbDictionary
280
0
281
1
  3
Standard
350
18
  0
MLINESTYLE
  5
18
100
AcDbMlineStyle
  2
STANDARD
 70
0
  3

 62
256
 51
90.0
 52
90.0
 71
2
 49
0.5
 62
256
  6
BYLAYER
 49
-0.5
 62
256
  6
BYLAYER
  0
DICTIONARY
  5
19
100
AcDbDictionary
280
0
281
1
  0
DICTIONARY
  5
1A
100
AcDbDictionary
281
1
  3
Layout1
350
1E
  3
Layout2
350
26
  3
Model
350
22
  0
LAYOUT
  5
1E
100
AcDbPlotSettings
  1

  2
C:\Program Files\AutoCAD 2002\plotters\DWF ePlot (optimized for plotting).pc3
  4

  6

 40
0.0
 41
0.0
 42
0.0
 43
0.0
 44
0.0
 45
0.0
 46
0.0
 47
0.0
 48
0.0
 49
0.0
140
0.0
141
0.0
142
1.0
143
1.0
 70
688
 72
0
 73
0
 74
5
  7

 75
16
147
1.0
148
0.0
149
0.0
100
AcDbLayout
  1
Layout1
 70
1
 71
1
 10
0.0
 20
0.0
 11
420.0
 21
297.0
 12
0.0
 22
0.0
 32
0.0
 14
100000000000000000000.0
 24
100000000000000000000.0
 34
100000000000000000000.0
 15
-100000000000000000000.0
 25
-100000000000000000000.0
 35
-100000000000000000000.0
146
0.0
 13
0.0
 23
0.0
 33
0.0
 16
1.0
 26
0.0
 36
0.0
 17
0.0
 27
1.0
 37
0.0
 76
0
330
1B
  0
LAYOUT
  5
22
100
AcDbPlotSettings
  1

  2
C:\Program Files\AutoCAD 2002\plotters\DWF ePlot (optimized for plotting).pc3
  4

  6

 40
0.0
 41
0.0
 42
0.0
 43
0.0
 44
0.0
 45
0.0
 46
0.0
 47
0.0
 48
0.0
 49
0.0
140
0.0
141
0.0
142
1.0
143
1.0
 70
1712
 72
0
 73
0
 74
0
  7

 75
0
147
1.0
148
0.0
149
0.0
100
AcDbLayout
  1
Model
 70
1
 71
0
 10
0.0
 20
0.0
 11
12.0
 21
9.0
 12
0.0
 22
0.0
 32
0.0
 14
0.0
 24
0.0
 34
0.0
 15
0.0
 25
0.0
 35
0.0
146
0.0
 13
0.0
 23
0.0
 33
0.0
 16
1.0
 26
0.0
 36
0.0
 17
0.0
 27
1.0
 37
0.0
 76
0
330
1F
  0
LAYOUT
  5
26
100
AcDbPlotSettings
  1

  2
C:\Program Files\AutoCAD 2002\plotters\DWF ePlot (optimized for plotting).pc3
  4

  6

 40
0.0
 41
0.0
 42
0.0
 43
0.0
 44
0.0
 45
0.0
 46
0.0
 47
0.0
 48
0.0
 49
0.0
140
0.0
141
0.0
142
1.0
143
1.0
 70
688
 72
0
 73
0
 74
5
  7

 75
16
147
1.0
148
0.0
149
0.0
100
AcDbLayout
  1
Layout2
 70
1
 71
2
 10
0.0
 20
0.0
 11
12.0
 21
9.0
 12
0.0
 22
0.0
 32
0.0
 14
0.0
 24
0.0
 34
0.0
 15
0.0
 25
0.0
 35
0.0
146
0.0
 13
0.0
 23
0.0
 33
0.0
 16
1.0
 26
0.0
 36
0.0
 17
0.0
 27
1.0
 37
0.0
 76
0
330
23
  0
DICTIONARY
  5
100
100
AcDbDictionary
281
1
  3
DIMASSOC
350
102
  3
HIDETEXT
350
101
  0
DICTIONARYVAR
  5
101
100
DictionaryVariables
280
0
  1
2
  0
DICTIONARYVAR
  5
102
100
DictionaryVariables
280
0
  1
1
  0
ENDSEC
  0
EOF
