999
dxflib 2.2.0.0
  0
SECTION
  2
HEADER
  9
$ACADVER
  1
AC1015
  9
$HANDSEED
  5
FFFF
  9
$DIMASZ
 40
2.5
  9
$PLIMMIN
 10
0.0
 20
0.0
  9
$DIMEXE
 40
1.25
  9
$DIMGAP
 40
0.625
  9
$PLIMMAX
 10
210.0
 20
297.0
  9
$INSUNITS
 70
4
  9
$DIMSTYLE
  2
Standard
  9
$CLAYER
  8
2 Shaft Bracket
  9
$DIMEXO
 40
0.625
  9
$DIMTXT
 40
2.5
  9
$CLAYER
  8
2 Shaft Bracket
  0
ENDSEC
  0
SECTION
  2
TABLES
  0
TABLE
  2
VPORT
  5
8
100
AcDbSymbolTable
 70
1
  0
VPORT
  5
30
100
AcDbSymbolTableRecord
100
AcDbViewportTableRecord
  2
*Active
 70
0
 10
0.0
 20
0.0
 11
1.0
 21
1.0
 12
286.3055555555554861
 22
148.5
 13
0.0
 23
0.0
 14
10.0
 24
10.0
 15
10.0
 25
10.0
 16
0.0
 26
0.0
 36
1.0
 17
0.0
 27
0.0
 37
0.0
 40
297.0
 41
1.92798353909465
 42
50.0
 43
0.0
 44
0.0
 50
0.0
 51
0.0
 71
0
 72
100
 73
1
 74
3
 75
1
 76
1
 77
0
 78
0
281
0
 65
1
110
0.0
120
0.0
130
0.0
111
1.0
121
0.0
131
0.0
112
0.0
122
1.0
132
0.0
 79
0
146
0.0
  0
ENDTAB
  0
TABLE
  2
LTYPE
  5
5
100
AcDbSymbolTable
 70
21
  0
LTYPE
  5
14
100
AcDbSymbolTableRecord
100
AcDbLinetypeTableRecord
  2
ByBlock
 70
0
  3

 72
65
 73
0
 40
0.0
  0
LTYPE
  5
15
100
AcDbSymbolTableRecord
100
AcDbLinetypeTableRecord
  2
ByLayer
 70
0
  3

 72
65
 73
0
 40
0.0
  0
LTYPE
  5
16
100
AcDbSymbolTableRecord
100
AcDbLinetypeTableRecord
  2
CONTINUOUS
 70
0
  3
Solid line
 72
65
 73
0
 40
0.0
  0
LTYPE
  5
31
100
AcDbSymbolTableRecord
100
AcDbLinetypeTableRecord
  2
DOT
 70
0
  3
Dot . . . . . . . . . . . . . . . . . . . . . .
 72
65
 73
2
 40
6.3499999999999996
 49
0.0
 74
0
 49
-6.3499999999999996
 74
0
  0
LTYPE
  5
32
100
AcDbSymbolTableRecord
100
AcDbLinetypeTableRecord
  2
DOT2
 70
0
  3
Dot (.5x) .....................................
 72
65
 73
2
 40
3.1749999999999998
 49
0.0
 74
0
 49
-3.1749999999999998
 74
0
  0
LTYPE
  5
33
100
AcDbSymbolTableRecord
100
AcDbLinetypeTableRecord
  2
DOTX2
 70
0
  3
Dot (2x) .  .  .  .  .  .  .  .  .  .  .  .  .
 72
65
 73
2
 40
12.6999999999999993
 49
0.0
 74
0
 49
-12.6999999999999993
 74
0
  0
LTYPE
  5
34
100
AcDbSymbolTableRecord
100
AcDbLinetypeTableRecord
  2
DASHED
 70
0
  3
Dashed __ __ __ __ __ __ __ __ __ __ __ __ __ _
 72
65
 73
2
 40
19.0500000000000007
 49
12.6999999999999993
 74
0
 49
-6.3499999999999996
 74
0
  0
LTYPE
  5
35
100
AcDbSymbolTableRecord
100
AcDbLinetypeTableRecord
  2
DASHED2
 70
0
  3
Dashed (.5x) _ _ _ _ _ _ _ _ _ _ _ _ _ _ _ _ _
 72
65
 73
2
 40
9.5250000000000004
 49
6.3499999999999996
 74
0
 49
-3.1749999999999998
 74
0
  0
LTYPE
  5
36
100
AcDbSymbolTableRecord
100
AcDbLinetypeTableRecord
  2
DASHEDX2
 70
0
  3
Dashed (2x) ____  ____  ____  ____  ____  ___
 72
65
 73
2
 40
38.1000000000000014
 49
25.3999999999999986
 74
0
 49
-12.6999999999999993
 74
0
  0
LTYPE
  5
37
100
AcDbSymbolTableRecord
100
AcDbLinetypeTableRecord
  2
DASHDOT
 70
0
  3
Dash dot __ . __ . __ . __ . __ . __ . __ . __
 72
65
 73
4
 40
25.3999999999999986
 49
12.6999999999999993
 74
0
 49
-6.3499999999999996
 74
0
 49
0.0
 74
0
 49
-6.3499999999999996
 74
0
  0
LTYPE
  5
38
100
AcDbSymbolTableRecord
100
AcDbLinetypeTableRecord
  2
DASHDOT2
 70
0
  3
Dash dot (.5x) _._._._._._._._._._._._._._._.
 72
65
 73
4
 40
12.6999999999999993
 49
6.3499999999999996
 74
0
 49
-3.1749999999999998
 74
0
 49
0.0
 74
0
 49
-3.1749999999999998
 74
0
  0
LTYPE
  5
39
100
AcDbSymbolTableRecord
100
AcDbLinetypeTableRecord
  2
DASHDOTX2
 70
0
  3
Dash dot (2x) ____  .  ____  .  ____  .  ___
 72
65
 73
4
 40
50.7999999999999972
 49
25.3999999999999986
 74
0
 49
-12.6999999999999993
 74
0
 49
0.0
 74
0
 49
-12.6999999999999993
 74
0
  0
LTYPE
  5
3A
100
AcDbSymbolTableRecord
100
AcDbLinetypeTableRecord
  2
DIVIDE
 70
0
  3
Divide ____ . . ____ . . ____ . . ____ . . ____
 72
65
 73
6
 40
31.75
 49
12.6999999999999993
 74
0
 49
-6.3499999999999996
 74
0
 49
0.0
 74
0
 49
-6.3499999999999996
 74
0
 49
0.0
 74
0
 49
-6.3499999999999996
 74
0
  0
LTYPE
  5
3B
100
AcDbSymbolTableRecord
100
AcDbLinetypeTableRecord
  2
DIVIDE2
 70
0
  3
Divide (.5x) __..__..__..__..__..__..__..__.._
 72
65
 73
6
 40
15.875
 49
6.3499999999999996
 74
0
 49
-3.1749999999999998
 74
0
 49
0.0
 74
0
 49
-3.1749999999999998
 74
0
 49
0.0
 74
0
 49
-3.1749999999999998
 74
0
  0
LTYPE
  5
3C
100
AcDbSymbolTableRecord
100
AcDbLinetypeTableRecord
  2
DIVIDEX2
 70
0
  3
Divide (2x) ________  .  .  ________  .  .  _
 72
65
 73
6
 40
63.5
 49
25.3999999999999986
 74
0
 49
-12.6999999999999993
 74
0
 49
0.0
 74
0
 49
-12.6999999999999993
 74
0
 49
0.0
 74
0
 49
-12.6999999999999993
 74
0
  0
LTYPE
  5
3D
100
AcDbSymbolTableRecord
100
AcDbLinetypeTableRecord
  2
CENTER
 70
0
  3
Center ____ _ ____ _ ____ _ ____ _ ____ _ ____
 72
65
 73
4
 40
50.7999999999999972
 49
31.75
 74
0
 49
-6.3499999999999996
 74
0
 49
6.3499999999999996
 74
0
 49
-6.3499999999999996
 74
0
  0
LTYPE
  5
3E
100
AcDbSymbolTableRecord
100
AcDbLinetypeTableRecord
  2
CENTER2
 70
0
  3
Center (.5x) ___ _ ___ _ ___ _ ___ _ ___ _ ___
 72
65
 73
4
 40
28.5749999999999993
 49
19.0500000000000007
 74
0
 49
-3.1749999999999998
 74
0
 49
3.1749999999999998
 74
0
 49
-3.1749999999999998
 74
0
  0
LTYPE
  5
3F
100
AcDbSymbolTableRecord
100
AcDbLinetypeTableRecord
  2
CENTERX2
 70
0
  3
Center (2x) ________  __  ________  __  _____
 72
65
 73
4
 40
101.5999999999999943
 49
63.5
 74
0
 49
-12.6999999999999993
 74
0
 49
12.6999999999999993
 74
0
 49
-12.6999999999999993
 74
0
  0
LTYPE
  5
40
100
AcDbSymbolTableRecord
100
AcDbLinetypeTableRecord
  2
BORDER
 70
0
  3
Border __ __ . __ __ . __ __ . __ __ . __ __ .
 72
65
 73
6
 40
44.4500000000000028
 49
12.6999999999999993
 74
0
 49
-6.3499999999999996
 74
0
 49
12.6999999999999993
 74
0
 49
-6.3499999999999996
 74
0
 49
0.0
 74
0
 49
-6.3499999999999996
 74
0
  0
LTYPE
  5
41
100
AcDbSymbolTableRecord
100
AcDbLinetypeTableRecord
  2
BORDER2
 70
0
  3
Border (.5x) __.__.__.__.__.__.__.__.__.__.__.
 72
65
 73
6
 40
22.2250000000000014
 49
6.3499999999999996
 74
0
 49
-3.1749999999999998
 74
0
 49
6.3499999999999996
 74
0
 49
-3.1749999999999998
 74
0
 49
0.0
 74
0
 49
-3.1749999999999998
 74
0
  0
LTYPE
  5
42
100
AcDbSymbolTableRecord
100
AcDbLinetypeTableRecord
  2
BORDERX2
 70
0
  3
Border (2x) ____  ____  .  ____  ____  .  ___
 72
65
 73
6
 40
88.9000000000000057
 49
25.3999999999999986
 74
0
 49
-12.6999999999999993
 74
0
 49
25.3999999999999986
 74
0
 49
-12.6999999999999993
 74
0
 49
0.0
 74
0
 49
-12.6999999999999993
 74
0
  0
ENDTAB
  0
TABLE
  2
LAYER
  5
2
100
AcDbSymbolTable
 70
6
  0
LAYER
  5
10
100
AcDbSymbolTableRecord
100
AcDbLayerTableRecord
  2
0
 70
0
 62
7
420
0
  6
CONTINUOUS
370
25
390
F
  0
LAYER
  5
43
100
AcDbSymbolTableRecord
100
AcDbLayerTableRecord
  2
1 Body
 70
0
 62
7
420
0
  6
CONTINUOUS
370
0
390
F
  0
LAYER
  5
44
100
AcDbSymbolTableRecord
100
AcDbLayerTableRecord
  2
Drawings, Spool
 70
0
 62
2
420
16776960
  6
CONTINUOUS
370
0
390
F
  0
LAYER
  5
45
100
AcDbSymbolTableRecord
100
AcDbLayerTableRecord
  2
2 Shaft Bracket
 70
0
 62
7
420
0
  6
CONTINUOUS
370
0
390
F
  0
LAYER
  5
46
100
AcDbSymbolTableRecord
100
AcDbLayerTableRecord
  2
Drawings, Driver Mechanism
 70
0
 62
2
420
16776960
  6
CONTINUOUS
370
0
390
F
  0
LAYER
  5
47
100
AcDbSymbolTableRecord
100
AcDbLayerTableRecord
  2
Drawings. Extruder Controller
 70
0
 62
4
420
65535
  6
CONTINUOUS
370
0
390
F
  0
ENDTAB
  0
TABLE
  2
STYLE
  5
3
100
AcDbSymbolTable
 70
1
  0
STYLE
  5
11
100
AcDbSymbolTableRecord
100
AcDbTextStyleTableRecord
  2
Standard
 70
0
 40
0.0
 41
0.75
 50
0.0
 71
0
 42
2.5
  3
txt
  4

  0
ENDTAB
  0
TABLE
  2
VIEW
  5
6
100
AcDbSymbolTable
 70
0
  0
ENDTAB
  0
TABLE
  2
UCS
  5
7
100
AcDbSymbolTable
 70
0
  0
ENDTAB
  0
TABLE
  2
APPID
  5
9
100
AcDbSymbolTable
 70
1
  0
APPID
  5
12
100
AcDbSymbolTableRecord
100
AcDbRegAppTableRecord
  2
ACAD
 70
0
  0
ENDTAB
  0
TABLE
  2
DIMSTYLE
  5
A
100
AcDbSymbolTable
 70
1
100
AcDbDimStyleTable
 71
0
  0
DIMSTYLE
105
27
100
AcDbSymbolTableRecord
100
AcDbDimStyleTableRecord
  2
Standard
 41
2.5
 42
0.625
 43
3.75
 44
1.25
 70
0
 73
0
 74
0
 77
1
 78
8
140
2.5
141
2.5
143
0.03937007874016
147
0.625
171
3
172
1
271
2
272
2
274
3
278
44
283
0
284
8
340
11
  0
ENDTAB
  0
TABLE
  2
BLOCK_RECORD
  5
1
100
AcDbSymbolTable
 70
1
  0
BLOCK_RECORD
  5
1F
100
AcDbSymbolTableRecord
100
AcDbBlockTableRecord
  2
*Model_Space
340
22
  0
BLOCK_RECORD
  5
1B
100
AcDbSymbolTableRecord
100
AcDbBlockTableRecord
  2
*Paper_Space
340
1E
  0
BLOCK_RECORD
  5
23
100
AcDbSymbolTableRecord
100
AcDbBlockTableRecord
  2
*Paper_Space0
340
26
  0
BLOCK_RECORD
  5
48
100
AcDbSymbolTableRecord
100
AcDbBlockTableRecord
  2
tabs-with-bolt-20
340
0
  0
BLOCK_RECORD
  5
49
100
AcDbSymbolTableRecord
100
AcDbBlockTableRecord
  2
holes-20
340
0
  0
BLOCK_RECORD
  5
4A
100
AcDbSymbolTableRecord
100
AcDbBlockTableRecord
  2
tabs-20
340
0
  0
ENDTAB
  0
ENDSEC
  0
SECTION
  2
BLOCKS
  0
BLOCK
  5
20
100
AcDbEntity
  8
0
100
AcDbBlockBegin
  2
*Model_Space
 70
0
 10
0.0
 20
0.0
 30
0.0
  3
*Model_Space
  1

  0
ENDBLK
  5
21
100
AcDbEntity
  8
0
100
AcDbBlockEnd
  0
BLOCK
  5
1C
100
AcDbEntity
 67
1
  8
0
100
AcDbBlockBegin
  2
*Paper_Space
 70
0
 10
0.0
 20
0.0
 30
0.0
  3
*Paper_Space
  1

  0
ENDBLK
  5
1D
100
AcDbEntity
 67
1
  8
0
100
AcDbBlockEnd
  0
BLOCK
  5
24
100
AcDbEntity
  8
0
100
AcDbBlockBegin
  2
*Paper_Space0
 70
0
 10
0.0
 20
0.0
 30
0.0
  3
*Paper_Space0
  1

  0
ENDBLK
  5
25
100
AcDbEntity
  8
0
100
AcDbBlockEnd
  0
BLOCK
  5
4B
100
AcDbEntity
  8
0
100
AcDbBlockBegin
  2
tabs-with-bolt-20
 70
0
 10
0.0
 20
0.0
 30
0.0
  3
tabs-with-bolt-20
  1

  0
LINE
  5
4C
100
AcDbEntity
100
AcDbLine
  8
0
 62
256
370
-1
  6
ByLayer
 10
-1.499999999999996
 20
11.5000000000000036
 30
0.0
 11
1.5000000000000056
 21
11.5000000000000036
 31
0.0
  0
LINE
  5
4D
100
AcDbEntity
100
AcDbLine
  8
0
 62
256
370
-1
  6
ByLayer
 10
-2.8599999999999914
 20
8.3300000000000018
 30
0.0
 11
-2.8599999999999892
 21
10.5000000000000053
 31
0.0
  0
LINE
  5
4E
100
AcDbEntity
100
AcDbLine
  8
0
 62
256
370
-1
  6
ByLayer
 10
2.8600000000000017
 20
10.4999999999999982
 30
0.0
 11
2.8599999999999972
 21
8.3300000000000018
 31
0.0
  0
LINE
  5
4F
100
AcDbEntity
100
AcDbLine
  8
0
 62
256
370
-1
  6
ByLayer
 10
-1.4999999999999982
 20
8.3300000000000054
 30
0.0
 11
-2.8599999999999914
 21
8.3300000000000018
 31
0.0
  0
LINE
  5
50
100
AcDbEntity
100
AcDbLine
  8
0
 62
256
370
-1
  6
ByLayer
 10
2.8599999999999972
 20
8.3300000000000018
 30
0.0
 11
1.5000000000000049
 21
8.3299999999999983
 31
0.0
  0
LINE
  5
51
100
AcDbEntity
100
AcDbLine
  8
0
 62
256
370
-1
  6
ByLayer
 10
1.5000000000000056
 20
11.5000000000000036
 30
0.0
 11
1.5000000000000024
 21
10.5000000000000036
 31
0.0
  0
LINE
  5
52
100
AcDbEntity
100
AcDbLine
  8
0
 62
256
370
-1
  6
ByLayer
 10
1.5000000000000024
 20
10.5000000000000036
 30
0.0
 11
2.8600000000000017
 21
10.4999999999999982
 31
0.0
  0
LINE
  5
53
100
AcDbEntity
100
AcDbLine
  8
0
 62
256
370
-1
  6
ByLayer
 10
-2.8599999999999892
 20
10.5000000000000053
 30
0.0
 11
-1.4999999999999976
 21
10.5000000000000053
 31
0.0
  0
LINE
  5
54
100
AcDbEntity
100
AcDbLine
  8
0
 62
256
370
-1
  6
ByLayer
 10
-1.4999999999999976
 20
10.5000000000000053
 30
0.0
 11
-1.499999999999996
 21
11.5000000000000036
 31
0.0
  0
LINE
  5
55
100
AcDbEntity
100
AcDbLine
  8
0
 62
256
370
-1
  6
ByLayer
 10
-10.0000000000000018
 20
-4.4999999999999947
 30
0.0
 11
-10.0
 21
0.0000000000000018
 31
0.0
  0
ARC
  5
56
100
AcDbEntity
  8
0
 62
256
370
-1
  6
ByLayer
100
AcDbCircle
 10
-9.5000000000000036
 20
-4.4999999999999929
 30
0.0
 40
0.5
100
AcDbArc
 50
180.0
 51
270.0
  0
LINE
  5
57
100
AcDbEntity
100
AcDbLine
  8
0
 62
256
370
-1
  6
ByLayer
 10
-5.4999999999999964
 20
-5.0
 30
0.0
 11
-9.5000000000000036
 21
-4.9999999999999929
 31
0.0
  0
LINE
  5
58
100
AcDbEntity
100
AcDbLine
  8
0
 62
256
370
-1
  6
ByLayer
 10
-4.9999999999999982
 20
0.0000000000000009
 30
0.0
 11
-5.0000000000000018
 21
-4.4999999999999947
 31
0.0
  0
ARC
  5
59
100
AcDbEntity
  8
0
 62
256
370
-1
  6
ByLayer
100
AcDbCircle
 10
-5.4999999999999982
 20
-4.4999999999999982
 30
0.0
 40
0.5
100
AcDbArc
 50
270.0
 51
0.0
  0
LINE
  5
5A
100
AcDbEntity
100
AcDbLine
  8
0
 62
256
370
-1
  6
ByLayer
 10
-1.9999999999999973
 20
0.0000000000000049
 30
0.0
 11
-4.9999999999999982
 21
0.0000000000000009
 31
0.0
  0
LINE
  5
5B
100
AcDbEntity
100
AcDbLine
  8
0
 62
256
370
-1
  6
ByLayer
 10
-1.4999999999999978
 20
0.5000000000000058
 30
0.0
 11
-1.4999999999999982
 21
8.3300000000000054
 31
0.0
  0
ARC
  5
5C
100
AcDbEntity
  8
0
 62
256
370
-1
  6
ByLayer
100
AcDbCircle
 10
-1.9999999999999982
 20
0.5000000000000058
 30
0.0
 40
0.5
100
AcDbArc
 50
270.0000000000000568
 51
0.0
  0
LINE
  5
5D
100
AcDbEntity
100
AcDbLine
  8
0
 62
256
370
-1
  6
ByLayer
 10
1.5000000000000049
 20
8.3299999999999983
 30
0.0
 11
1.4999999999999967
 21
0.5000000000000013
 31
0.0
  0
LINE
  5
5E
100
AcDbEntity
100
AcDbLine
  8
0
 62
256
370
-1
  6
ByLayer
 10
1.9999999999999978
 20
0.0000000000000027
 30
0.0
 11
4.9999999999999982
 21
-0.0000000000000009
 31
0.0
  0
ARC
  5
5F
100
AcDbEntity
  8
0
 62
256
370
-1
  6
ByLayer
100
AcDbCircle
 10
1.9999999999999991
 20
0.500000000000004
 30
0.0
 40
0.5
100
AcDbArc
 50
180.0
 51
269.9999999999999432
  0
LINE
  5
60
100
AcDbEntity
100
AcDbLine
  8
0
 62
256
370
-1
  6
ByLayer
 10
4.9999999999999982
 20
-0.0000000000000009
 30
0.0
 11
5.0
 21
-4.4999999999999982
 31
0.0
  0
ARC
  5
61
100
AcDbEntity
  8
0
 62
256
370
-1
  6
ByLayer
100
AcDbCircle
 10
5.4999999999999964
 20
-4.5
 30
0.0
 40
0.5
100
AcDbArc
 50
180.0
 51
270.0
  0
LINE
  5
62
100
AcDbEntity
100
AcDbLine
  8
0
 62
256
370
-1
  6
ByLayer
 10
5.4999999999999929
 20
-5.0000000000000018
 30
0.0
 11
9.4999999999999947
 21
-5.0000000000000053
 31
0.0
  0
LINE
  5
63
100
AcDbEntity
100
AcDbLine
  8
0
 62
256
370
-1
  6
ByLayer
 10
9.9999999999999947
 20
-4.5000000000000018
 30
0.0
 11
9.9999999999999982
 21
-0.0000000000000071
 31
0.0
  0
ARC
  5
64
100
AcDbEntity
  8
0
 62
256
370
-1
  6
ByLayer
100
AcDbCircle
 10
9.5000000000000018
 20
-4.4999999999999982
 30
0.0
 40
0.5
100
AcDbArc
 50
270.0
 51
0.0
  0
ENDBLK
  5
65
100
AcDbEntity
  8
0
100
AcDbBlockEnd
  0
BLOCK
  5
66
100
AcDbEntity
  8
0
100
AcDbBlockBegin
  2
holes-20
 70
0
 10
0.0
 20
0.0
 30
0.0
  3
holes-20
  1

  0
CIRCLE
  5
67
100
AcDbEntity
100
AcDbCircle
  8
0
 62
256
370
-1
  6
ByLayer
 10
0.0
 20
0.0
 30
0.0
 40
1.5
  0
LINE
  5
68
100
AcDbEntity
100
AcDbLine
  8
0
 62
256
370
-1
  6
ByLayer
 10
5.0
 20
2.5000000000000004
 30
0.0
 11
10.0
 21
2.5000000000000009
 31
0.0
  0
LINE
  5
69
100
AcDbEntity
100
AcDbLine
  8
0
 62
256
370
-1
  6
ByLayer
 10
4.9999999999999991
 20
-2.5000000000000013
 30
0.0
 11
10.0
 21
-2.5000000000000031
 31
0.0
  0
LINE
  5
6A
100
AcDbEntity
100
AcDbLine
  8
0
 62
256
370
-1
  6
ByLayer
 10
-4.9999999999999991
 20
2.5000000000000004
 30
0.0
 11
-10.0
 21
2.5000000000000022
 31
0.0
  0
LINE
  5
6B
100
AcDbEntity
100
AcDbLine
  8
0
 62
256
370
-1
  6
ByLayer
 10
-5.0000000000000018
 20
-2.5
 30
0.0
 11
-10.0
 21
-2.4999999999999996
 31
0.0
  0
LINE
  5
6C
100
AcDbEntity
100
AcDbLine
  8
0
 62
256
370
-1
  6
ByLayer
 10
-10.0
 20
2.5000000000000022
 30
0.0
 11
-10.0
 21
-2.4999999999999996
 31
0.0
  0
LINE
  5
6D
100
AcDbEntity
100
AcDbLine
  8
0
 62
256
370
-1
  6
ByLayer
 10
-4.9999999999999991
 20
2.5000000000000004
 30
0.0
 11
-5.0000000000000018
 21
-2.5
 31
0.0
  0
LINE
  5
6E
100
AcDbEntity
100
AcDbLine
  8
0
 62
256
370
-1
  6
ByLayer
 10
5.0
 20
2.5000000000000004
 30
0.0
 11
4.9999999999999991
 21
-2.5000000000000013
 31
0.0
  0
LINE
  5
6F
100
AcDbEntity
100
AcDbLine
  8
0
 62
256
370
-1
  6
ByLayer
 10
10.0
 20
2.5000000000000009
 30
0.0
 11
10.0
 21
-2.5000000000000031
 31
0.0
  0
ENDBLK
  5
70
100
AcDbEntity
  8
0
100
AcDbBlockEnd
  0
BLOCK
  5
71
100
AcDbEntity
  8
0
100
AcDbBlockBegin
  2
tabs-20
 70
0
 10
0.0
 20
0.0
 30
0.0
  3
tabs-20
  1

  0
LINE
  5
72
100
AcDbEntity
100
AcDbLine
  8
0
 62
256
370
-1
  6
ByLayer
 10
-10.0
 20
-4.4999999999999893
 30
0.0
 11
-10.0
 21
0.0
 31
0.0
  0
ARC
  5
73
100
AcDbEntity
  8
0
 62
256
370
-1
  6
ByLayer
100
AcDbCircle
 10
-9.5
 20
-4.4999999999999893
 30
0.0
 40
0.5
100
AcDbArc
 50
180.0
 51
270.0
  0
LINE
  5
74
100
AcDbEntity
100
AcDbLine
  8
0
 62
256
370
-1
  6
ByLayer
 10
-5.4999999999999929
 20
-5.0
 30
0.0
 11
-9.5
 21
-4.9999999999999929
 31
0.0
  0
LINE
  5
75
100
AcDbEntity
100
AcDbLine
  8
0
 62
256
370
-1
  6
ByLayer
 10
-5.0
 20
0.0000000000000036
 30
0.0
 11
-5.0
 21
-4.4999999999999929
 31
0.0
  0
ARC
  5
76
100
AcDbEntity
  8
0
 62
256
370
-1
  6
ByLayer
100
AcDbCircle
 10
-5.5
 20
-4.4999999999999964
 30
0.0
 40
0.5
100
AcDbArc
 50
270.0
 51
0.0
  0
LINE
  5
77
100
AcDbEntity
100
AcDbLine
  8
0
 62
256
370
-1
  6
ByLayer
 10
5.0
 20
-0.0000000000000036
 30
0.0
 11
5.0
 21
-4.5
 31
0.0
  0
ARC
  5
78
100
AcDbEntity
  8
0
 62
256
370
-1
  6
ByLayer
100
AcDbCircle
 10
5.4999999999999929
 20
-4.5
 30
0.0
 40
0.5
100
AcDbArc
 50
180.0
 51
270.0
  0
LINE
  5
79
100
AcDbEntity
100
AcDbLine
  8
0
 62
256
370
-1
  6
ByLayer
 10
5.4999999999999929
 20
-5.0
 30
0.0
 11
9.4999999999999929
 21
-5.0000000000000071
 31
0.0
  0
LINE
  5
7A
100
AcDbEntity
100
AcDbLine
  8
0
 62
256
370
-1
  6
ByLayer
 10
9.9999999999999929
 20
-4.5000000000000036
 30
0.0
 11
10.0
 21
-0.0000000000000107
 31
0.0
  0
ARC
  5
7B
100
AcDbEntity
  8
0
 62
256
370
-1
  6
ByLayer
100
AcDbCircle
 10
9.5
 20
-4.5
 30
0.0
 40
0.5
100
AcDbArc
 50
270.0
 51
0.0
  0
LINE
  5
7C
100
AcDbEntity
100
AcDbLine
  8
0
 62
256
370
-1
  6
ByLayer
 10
5.0
 20
-0.0000000000000036
 30
0.0
 11
-5.0
 21
0.0000000000000036
 31
0.0
  0
ENDBLK
  5
7D
100
AcDbEntity
  8
0
100
AcDbBlockEnd
  0
ENDSEC
  0
SECTION
  2
ENTITIES
  0
IMAGE
  5
7E
  8
Drawings. Extruder Controller
 62
256
370
-1
  6
ByLayer
100
AcDbEntity
100
AcDbRasterImage
 90
0
 10
125.6887002987362507
 20
246.6185758649787658
 30
0.0
 11
0.07891228556064
 21
0.0
 31
0.0
 12
0.0
 22
0.07891228556064
 32
0.0
 13
962.0
 23
925.0
340
7F
 70
15
280
0
281
50
282
50
283
0
  0
LINE
  5
80
100
AcDbEntity
100
AcDbLine
  8
Drawings. Extruder Controller
 62
256
370
-1
  6
ByLayer
 10
127.4869029991584171
 20
320.0
 30
0.0
 11
201.4009029991584612
 21
320.0
 31
0.0
  0
LINE
  5
81
100
AcDbEntity
100
AcDbLine
  8
Drawings. Extruder Controller
 62
256
370
-1
  6
ByLayer
 10
127.4869029991584171
 20
246.9750000000000227
 30
0.0
 11
127.4869029991584171
 21
320.0
 31
0.0
  0
LINE
  5
82
100
AcDbEntity
100
AcDbLine
  8
Drawings. Extruder Controller
 62
256
370
-1
  6
ByLayer
 10
201.4009029991584043
 20
246.9750000000000227
 30
0.0
 11
127.4869029991584171
 21
246.9750000000000227
 31
0.0
  0
LINE
  5
83
100
AcDbEntity
100
AcDbLine
  8
Drawings. Extruder Controller
 62
256
370
-1
  6
ByLayer
 10
201.4009029991584043
 20
246.9750000000000227
 30
0.0
 11
201.4009029991584612
 21
320.0
 31
0.0
  0
ARC
  5
84
100
AcDbEntity
  8
Drawings, Driver Mechanism
 62
256
370
-1
  6
ByLayer
100
AcDbCircle
 10
196.5300000495529957
 20
96.3499999999999659
 30
0.0
 40
1.999999999999984
100
AcDbArc
 50
269.9999999999997726
 51
0.0
  0
LINE
  5
85
100
AcDbEntity
100
AcDbLine
  8
Drawings, Driver Mechanism
 62
256
370
-1
  6
ByLayer
 10
127.3799969324250583
 20
94.3499999999999659
 30
0.0
 11
196.5300000495529957
 21
94.3499999999999659
 31
0.0
  0
CIRCLE
  5
86
100
AcDbEntity
100
AcDbCircle
  8
Drawings, Driver Mechanism
 62
256
370
-1
  6
ByLayer
 10
146.5300000495529957
 20
115.4999999714121373
 30
0.0
 40
3.0
  0
CIRCLE
  5
87
100
AcDbEntity
100
AcDbCircle
  8
Drawings, Driver Mechanism
 62
256
370
-1
  6
ByLayer
 10
146.5300000495529957
 20
115.4999999714121373
 30
0.0
 40
11.0454000000000008
  0
CIRCLE
  5
88
100
AcDbEntity
100
AcDbCircle
  8
Drawings, Driver Mechanism
 62
256
370
-1
  6
ByLayer
 10
146.5300000000000864
 20
115.4999999714121373
 30
0.0
 40
18.75
  0
CIRCLE
  5
89
100
AcDbEntity
100
AcDbCircle
  8
Drawings, Driver Mechanism
 62
256
370
-1
  6
DASHDOT
 10
146.5300000495529957
 20
115.4999999714121373
 30
0.0
 40
15.5
  0
LINE
  5
8A
100
AcDbEntity
100
AcDbLine
  8
Drawings, Driver Mechanism
 62
256
370
-1
  6
DASHED
 10
146.3134940495530145
 20
115.6249999999997158
 30
0.0
 11
159.9534000495530108
 21
107.7500099999999748
 31
0.0
  0
LINE
  5
8B
100
AcDbEntity
100
AcDbLine
  8
Drawings, Driver Mechanism
 62
256
370
-1
  6
DASHED
 10
146.5299965494829735
 20
99.9999999999999432
 30
0.0
 11
146.5300000495716404
 21
115.4999999714121373
 31
0.0
  0
LINE
  5
8C
100
AcDbEntity
100
AcDbLine
  8
Drawings, Driver Mechanism
 62
256
370
-1
  6
DASHED
 10
146.5300000495529957
 20
115.4999999714121373
 30
0.0
 11
133.1066000495529806
 21
107.7499999999999432
 31
0.0
  0
LINE
  5
8D
100
AcDbEntity
100
AcDbLine
  8
Drawings, Driver Mechanism
 62
256
370
-1
  6
DASHED
 10
146.7465060495529769
 20
115.3749999999998863
 30
0.0
 11
133.1066000495529806
 21
123.2499999999998863
 31
0.0
  0
LINE
  5
8E
100
AcDbEntity
100
AcDbLine
  8
Drawings, Driver Mechanism
 62
256
370
-1
  6
DASHED
 10
146.5300000495529957
 20
115.4999999714121373
 30
0.0
 11
146.5299895493529903
 21
130.9999999999999432
 31
0.0
  0
LINE
  5
8F
100
AcDbEntity
100
AcDbLine
  8
Drawings, Driver Mechanism
 62
256
370
-1
  6
DASHED
 10
159.9534000495530108
 20
123.2499999999999432
 30
0.0
 11
146.5300000495529957
 21
115.4999999714121373
 31
0.0
  0
LINE
  5
90
100
AcDbEntity
100
AcDbLine
  8
Drawings, Driver Mechanism
 62
256
370
-1
  6
ByLayer
 10
198.5300000495529957
 20
96.3500000000000227
 30
0.0
 11
198.5300000495529957
 21
150.0
 31
0.0
  0
ARC
  5
91
100
AcDbEntity
  8
Drawings, Driver Mechanism
 62
256
370
-1
  6
ByLayer
100
AcDbCircle
 10
127.3800011677117823
 20
96.350004234021128
 30
0.0
 40
2.0000042340256585
100
AcDbArc
 50
179.9998787160518532
 51
269.9998787142842502
  0
LINE
  5
92
100
AcDbEntity
100
AcDbLine
  8
Drawings, Driver Mechanism
 62
256
370
-1
  6
ByLayer
 10
125.3799969336906202
 20
96.3500084676772985
 30
0.0
 11
125.3799969336898243
 21
149.9999999999999432
 31
0.0
  0
CIRCLE
  5
93
100
AcDbEntity
100
AcDbCircle
  8
Drawings, Driver Mechanism
 62
256
370
-1
  6
ByLayer
 10
146.5300000495529957
 20
115.4999999714121373
 30
0.0
 40
11.25
  0
LINE
  5
94
100
AcDbEntity
100
AcDbLine
  8
Drawings, Driver Mechanism
 62
256
370
-1
  6
ByLayer
 10
125.3799969336898243
 20
149.9999999999999432
 30
0.0
 11
198.5300000495529957
 21
150.0
 31
0.0
  0
LINE
  5
95
100
AcDbEntity
100
AcDbLine
  8
Drawings, Driver Mechanism
 62
256
370
-1
  6
DASHED
 10
198.0
 20
117.0899998574059566
 30
0.0
 11
190.0
 21
117.0899998574059566
 31
0.0
  0
LINE
  5
96
100
AcDbEntity
100
AcDbLine
  8
Drawings, Driver Mechanism
 62
256
370
-1
  6
ByLayer
 10
183.286082474226788
 20
111.5849998574059612
 30
0.0
 11
183.286082474226788
 21
119.4149998574060021
 31
0.0
  0
LINE
  5
97
100
AcDbEntity
100
AcDbLine
  8
Drawings, Driver Mechanism
 62
256
370
-1
  6
ByLayer
 10
187.1060824742267812
 20
111.5849998574059612
 30
0.0
 11
187.1060824742267812
 21
119.4149998574060021
 31
0.0
  0
LINE
  5
98
100
AcDbEntity
100
AcDbLine
  8
Drawings, Driver Mechanism
 62
256
370
-1
  6
ByLayer
 10
183.286082474226788
 20
119.4149998574060021
 30
0.0
 11
187.1060824742267812
 21
119.4149998574060021
 31
0.0
  0
LINE
  5
99
100
AcDbEntity
100
AcDbLine
  8
Drawings, Driver Mechanism
 62
256
370
-1
  6
ByLayer
 10
183.286082474226788
 20
111.5849998574059612
 30
0.0
 11
187.1060824742267812
 21
111.5849998574059612
 31
0.0
  0
LINE
  5
9A
100
AcDbEntity
100
AcDbLine
  8
Drawings, Driver Mechanism
 62
256
370
-1
  6
DASHED
 10
183.286082474226788
 20
115.4999998574059816
 30
0.0
 11
187.1060824742267812
 21
115.4999998574059816
 31
0.0
  0
LINE
  5
9B
100
AcDbEntity
100
AcDbLine
  8
Drawings, Driver Mechanism
 62
256
370
-1
  6
ByLayer
 10
180.5700000000000216
 20
117.7299998574059998
 30
0.0
 11
180.5700000000000216
 21
113.2699998574060487
 31
0.0
  0
LINE
  5
9C
100
AcDbEntity
100
AcDbLine
  8
Drawings, Driver Mechanism
 62
256
370
-1
  6
ByLayer
 10
180.5700000000000216
 20
117.4999998574059816
 30
0.0
 11
181.5700000000000216
 21
113.4999998574059816
 31
0.0
  0
LINE
  5
9D
100
AcDbEntity
100
AcDbLine
  8
Drawings, Driver Mechanism
 62
256
370
-1
  6
ByLayer
 10
181.5700000000000216
 20
117.4999998574059816
 30
0.0
 11
182.5700000000000216
 21
113.4999998574059816
 31
0.0
  0
LINE
  5
9E
100
AcDbEntity
100
AcDbLine
  8
Drawings, Driver Mechanism
 62
256
370
-1
  6
ByLayer
 10
182.5700000000000216
 20
117.4999998574059816
 30
0.0
 11
183.5700000000000216
 21
113.4999998574059816
 31
0.0
  0
LINE
  5
9F
100
AcDbEntity
100
AcDbLine
  8
Drawings, Driver Mechanism
 62
256
370
-1
  6
ByLayer
 10
183.5700000000000216
 20
117.4999998574059816
 30
0.0
 11
184.5700000000000216
 21
113.4999998574059816
 31
0.0
  0
LINE
  5
A0
100
AcDbEntity
100
AcDbLine
  8
Drawings, Driver Mechanism
 62
256
370
-1
  6
ByLayer
 10
184.5700000000000216
 20
117.4999998574059816
 30
0.0
 11
185.5700000000000216
 21
113.4999998574059816
 31
0.0
  0
LINE
  5
A1
100
AcDbEntity
100
AcDbLine
  8
Drawings, Driver Mechanism
 62
256
370
-1
  6
ByLayer
 10
185.5700000000000216
 20
117.4999998574059816
 30
0.0
 11
186.5700000000000216
 21
113.4999998574059816
 31
0.0
  0
LINE
  5
A2
100
AcDbEntity
100
AcDbLine
  8
Drawings, Driver Mechanism
 62
256
370
-1
  6
ByLayer
 10
186.5700000000000216
 20
117.4999998574059816
 30
0.0
 11
187.5699999999999648
 21
113.4999998574059816
 31
0.0
  0
LINE
  5
A3
100
AcDbEntity
100
AcDbLine
  8
Drawings, Driver Mechanism
 62
256
370
-1
  6
ByLayer
 10
187.5699999999999648
 20
113.4999998574059816
 30
0.0
 11
187.5699999999999648
 21
113.4999998574059816
 31
0.0
  0
LINE
  5
A4
100
AcDbEntity
100
AcDbLine
  8
Drawings, Driver Mechanism
 62
256
370
-1
  6
ByLayer
 10
187.5700000000000216
 20
117.4999998574059816
 30
0.0
 11
188.5700000000000216
 21
113.4999998574059816
 31
0.0
  0
LINE
  5
A5
100
AcDbEntity
100
AcDbLine
  8
Drawings, Driver Mechanism
 62
256
370
-1
  6
ByLayer
 10
188.5700000000000216
 20
117.4999998574059816
 30
0.0
 11
189.5700000000000216
 21
113.4999998574059816
 31
0.0
  0
LINE
  5
A6
100
AcDbEntity
100
AcDbLine
  8
Drawings, Driver Mechanism
 62
256
370
-1
  6
ByLayer
 10
189.5700000000000216
 20
117.4999998574059816
 30
0.0
 11
190.5699999999999648
 21
113.4999998574059816
 31
0.0
  0
LINE
  5
A7
100
AcDbEntity
100
AcDbLine
  8
Drawings, Driver Mechanism
 62
256
370
-1
  6
ByLayer
 10
190.5700000000000216
 20
117.4999998574059816
 30
0.0
 11
191.5700000000000216
 21
113.4999998574059816
 31
0.0
  0
LINE
  5
A8
100
AcDbEntity
100
AcDbLine
  8
Drawings, Driver Mechanism
 62
256
370
-1
  6
ByLayer
 10
191.5700000000000216
 20
117.4999998574059816
 30
0.0
 11
192.5700000000000216
 21
113.4999998574059816
 31
0.0
  0
LINE
  5
A9
100
AcDbEntity
100
AcDbLine
  8
Drawings, Driver Mechanism
 62
256
370
-1
  6
ByLayer
 10
192.5700000000000216
 20
117.4999998574059816
 30
0.0
 11
193.5700000000000216
 21
113.4999998574059816
 31
0.0
  0
LINE
  5
AA
100
AcDbEntity
100
AcDbLine
  8
Drawings, Driver Mechanism
 62
256
370
-1
  6
ByLayer
 10
193.5700000000000216
 20
117.4999998574059816
 30
0.0
 11
194.5700000000000216
 21
113.4999998574059816
 31
0.0
  0
LINE
  5
AB
100
AcDbEntity
100
AcDbLine
  8
Drawings, Driver Mechanism
 62
256
370
-1
  6
ByLayer
 10
201.5700000000000216
 20
117.4999998574059816
 30
0.0
 11
202.5700000000000216
 21
113.4999998574059816
 31
0.0
  0
LINE
  5
AC
100
AcDbEntity
100
AcDbLine
  8
Drawings, Driver Mechanism
 62
256
370
-1
  6
ByLayer
 10
202.5700000000000216
 20
117.4999998574059816
 30
0.0
 11
203.5700000000000216
 21
113.4999998574059816
 31
0.0
  0
LINE
  5
AD
100
AcDbEntity
100
AcDbLine
  8
Drawings, Driver Mechanism
 62
256
370
-1
  6
ByLayer
 10
203.5700000000000216
 20
117.4999998574059816
 30
0.0
 11
204.5700000000000216
 21
113.4999998574059816
 31
0.0
  0
LINE
  5
AE
100
AcDbEntity
100
AcDbLine
  8
Drawings, Driver Mechanism
 62
256
370
-1
  6
ByLayer
 10
205.3100000000000307
 20
117.7299998574059998
 30
0.0
 11
205.3100000000000307
 21
113.2699998574060203
 31
0.0
  0
LINE
  5
AF
100
AcDbEntity
100
AcDbLine
  8
Drawings, Driver Mechanism
 62
256
370
-1
  6
ByLayer
 10
204.5700000000000216
 20
117.4999998574060385
 30
0.0
 11
205.3100000000000307
 21
114.5399998574060021
 31
0.0
  0
LINE
  5
B0
100
AcDbEntity
100
AcDbLine
  8
Drawings, Driver Mechanism
 62
256
370
-1
  6
ByLayer
 10
205.3100000000000307
 20
121.4999998574059816
 30
0.0
 11
207.6500000000000057
 21
121.4999998574059816
 31
0.0
  0
LINE
  5
B1
100
AcDbEntity
100
AcDbLine
  8
Drawings, Driver Mechanism
 62
256
370
-1
  6
ByLayer
 10
205.3099999999999739
 20
109.4999998574059816
 30
0.0
 11
205.3100000000000307
 21
121.4999998574059816
 31
0.0
  0
LINE
  5
B2
100
AcDbEntity
100
AcDbLine
  8
Drawings, Driver Mechanism
 62
256
370
-1
  6
ByLayer
 10
205.3099999999999739
 20
109.4999998574059816
 30
0.0
 11
207.6500000000000057
 21
109.4999998574059816
 31
0.0
  0
LINE
  5
B3
100
AcDbEntity
100
AcDbLine
  8
Drawings, Driver Mechanism
 62
256
370
-1
  6
ByLayer
 10
207.6500000000000057
 20
123.6199998574059862
 30
0.0
 11
212.0000000000000284
 21
123.6199998574059862
 31
0.0
  0
LINE
  5
B4
100
AcDbEntity
100
AcDbLine
  8
Drawings, Driver Mechanism
 62
256
370
-1
  6
ByLayer
 10
212.0000000000000284
 20
123.6199998574059862
 30
0.0
 11
212.0000000000000284
 21
107.3799998574060339
 31
0.0
  0
LINE
  5
B5
100
AcDbEntity
100
AcDbLine
  8
Drawings, Driver Mechanism
 62
256
370
-1
  6
ByLayer
 10
212.0000000000000284
 20
107.3799998574060339
 30
0.0
 11
207.6500000000000057
 21
107.3799998574059771
 31
0.0
  0
LINE
  5
B6
100
AcDbEntity
100
AcDbLine
  8
Drawings, Driver Mechanism
 62
256
370
-1
  6
ByLayer
 10
194.5700000000000216
 20
117.4999998574059816
 30
0.0
 11
195.5700000000000216
 21
113.4999998574059816
 31
0.0
  0
LINE
  5
B7
100
AcDbEntity
100
AcDbLine
  8
Drawings, Driver Mechanism
 62
256
370
-1
  6
ByLayer
 10
200.5700000000000216
 20
117.4999998574059816
 30
0.0
 11
201.5700000000000216
 21
113.4999998574059816
 31
0.0
  0
LINE
  5
B8
100
AcDbEntity
100
AcDbLine
  8
Drawings, Driver Mechanism
 62
256
370
-1
  6
ByLayer
 10
195.5700000000000216
 20
117.4999998574059816
 30
0.0
 11
196.5700000000000216
 21
113.4999998574059816
 31
0.0
  0
LINE
  5
B9
100
AcDbEntity
100
AcDbLine
  8
Drawings, Driver Mechanism
 62
256
370
-1
  6
ByLayer
 10
196.5700000000000216
 20
117.4999998574059816
 30
0.0
 11
197.5700000000000216
 21
113.4999998574059816
 31
0.0
  0
LINE
  5
BA
100
AcDbEntity
100
AcDbLine
  8
Drawings, Driver Mechanism
 62
256
370
-1
  6
ByLayer
 10
199.5700000000000216
 20
117.4999998574059816
 30
0.0
 11
200.5699999999999648
 21
113.4999998574059816
 31
0.0
  0
LINE
  5
BB
100
AcDbEntity
100
AcDbLine
  8
Drawings, Driver Mechanism
 62
256
370
-1
  6
ByLayer
 10
197.5700000000000216
 20
117.4999998574059816
 30
0.0
 11
198.5700000000000216
 21
113.4999998574059816
 31
0.0
  0
LINE
  5
BC
100
AcDbEntity
100
AcDbLine
  8
Drawings, Driver Mechanism
 62
256
370
-1
  6
ByLayer
 10
198.5700000000000216
 20
117.4999998574059816
 30
0.0
 11
199.5700000000000216
 21
113.4999998574059816
 31
0.0
  0
LINE
  5
BD
100
AcDbEntity
100
AcDbLine
  8
Drawings, Driver Mechanism
 62
256
370
-1
  6
ByLayer
 10
180.5700000000000216
 20
113.2699998574060487
 30
0.0
 11
205.3100000000000307
 21
113.2699998574060203
 31
0.0
  0
LINE
  5
BE
100
AcDbEntity
100
AcDbLine
  8
Drawings, Driver Mechanism
 62
256
370
-1
  6
ByLayer
 10
205.3100000000000307
 20
117.7299998574059998
 30
0.0
 11
180.5700000000000216
 21
117.7299998574059998
 31
0.0
  0
LINE
  5
BF
100
AcDbEntity
100
AcDbLine
  8
Drawings, Driver Mechanism
 62
256
370
-1
  6
ByLayer
 10
207.6500000000000057
 20
123.6199998574059862
 30
0.0
 11
207.6500000000000057
 21
121.4999998574059816
 31
0.0
  0
LINE
  5
C0
100
AcDbEntity
100
AcDbLine
  8
Drawings, Driver Mechanism
 62
256
370
-1
  6
ByLayer
 10
207.6500000000000057
 20
109.4999998574059816
 30
0.0
 11
207.6500000000000057
 21
107.3799998574059771
 31
0.0
  0
LINE
  5
C1
100
AcDbEntity
100
AcDbLine
  8
Drawings, Driver Mechanism
 62
256
370
-1
  6
DASHED
 10
207.6500000000000057
 20
121.4999998574059816
 30
0.0
 11
207.6500000000000057
 21
109.4999998574059816
 31
0.0
  0
MTEXT
  5
C2
100
AcDbEntity
100
AcDbMText
  8
Drawings, Driver Mechanism
 62
256
370
-1
  6
ByLayer
 10
207.9000000000000057
 20
115.4999998574059816
 30
0.0
 40
1.0
 41
100.0
 71
1
 72
2
  1
M5x25
  7
standard
 50
0.0
 73
1
 44
1.0
  0
CIRCLE
  5
C3
100
AcDbEntity
100
AcDbCircle
  8
Drawings, Spool
 62
256
370
-1
  6
ByLayer
 10
0.0000000000000071
 20
4.9999999999999716
 30
0.0
 40
5.0
  0
LINE
  5
C4
100
AcDbEntity
100
AcDbLine
  8
2 Shaft Bracket
 62
256
370
-1
  6
ByLayer
 10
19.9999999999999893
 20
-20.0000000000000284
 30
0.0
 11
-20.0000000000000142
 21
-20.0000000000000284
 31
0.0
  0
ARC
  5
C5
100
AcDbEntity
  8
2 Shaft Bracket
 62
256
370
-1
  6
ByLayer
100
AcDbCircle
 10
0.0
 20
5.0
 30
0.0
 40
5.0000000000000142
100
AcDbArc
 50
180.0
 51
0.0
  0
ARC
  5
C6
100
AcDbEntity
  8
2 Shaft Bracket
 62
256
370
-1
  6
ByLayer
100
AcDbCircle
 10
-19.9999999999999787
 20
29.9999999999999716
 30
0.0
 40
14.9999999999999716
100
AcDbArc
 50
0.0
 51
90.0
  0
ARC
  5
C7
100
AcDbEntity
  8
2 Shaft Bracket
 62
256
370
-1
  6
ByLayer
100
AcDbCircle
 10
20.0000000000000178
 20
29.9999999999999716
 30
0.0
 40
15.0
100
AcDbArc
 50
90.0
 51
180.0
  0
LINE
  5
C8
100
AcDbEntity
100
AcDbLine
  8
2 Shaft Bracket
 62
256
370
-1
  6
ByLayer
 10
-5.0000000000000213
 20
4.9999999999999716
 30
0.0
 11
-5.0000000000000071
 21
29.9999999999999716
 31
0.0
  0
LINE
  5
C9
100
AcDbEntity
100
AcDbLine
  8
2 Shaft Bracket
 62
256
370
-1
  6
ByLayer
 10
5.0000000000000107
 20
4.9999999999999716
 30
0.0
 11
5.0000000000000213
 21
30.0
 31
0.0
  0
LINE
  5
CA
100
AcDbEntity
100
AcDbLine
  8
2 Shaft Bracket
 62
256
370
-1
  6
ByLayer
 10
20.0000000000000178
 20
45.0
 30
0.0
 11
19.9999999999999893
 21
-20.0000000000000284
 31
0.0
  0
LINE
  5
CB
100
AcDbEntity
100
AcDbLine
  8
2 Shaft Bracket
 62
256
370
-1
  6
ByLayer
 10
-20.0000000000000142
 20
-20.0000000000000284
 30
0.0
 11
-19.9999999999999716
 21
44.9999999999999432
 31
0.0
  0
CIRCLE
  5
CC
100
AcDbEntity
100
AcDbCircle
  8
2 Shaft Bracket
 62
256
370
-1
  6
ByLayer
 10
10.0000000000000107
 20
-10.0000000000000284
 30
0.0
 40
1.45
  0
CIRCLE
  5
CD
100
AcDbEntity
100
AcDbCircle
  8
2 Shaft Bracket
 62
256
370
-1
  6
ByLayer
 10
-10.0000000000000142
 20
9.9999999999999716
 30
0.0
 40
1.45
  0
CIRCLE
  5
CE
100
AcDbEntity
100
AcDbCircle
  8
Drawings, Spool
 62
256
370
-1
  6
ByLayer
 10
0.0
 20
4.9999999999999716
 30
0.0
 40
139.6999999999999886
  0
LINE
  5
CF
100
AcDbEntity
100
AcDbLine
  8
Drawings, Driver Mechanism
 62
256
370
-1
  6
ByLayer
 10
165.2800000000000864
 20
235.0399999999988268
 30
0.0
 11
165.2800000000000296
 21
309.7400000000000659
 31
0.0
  0
LINE
  5
D0
100
AcDbEntity
100
AcDbLine
  8
Drawings, Driver Mechanism
 62
256
370
-1
  6
ByLayer
 10
165.2800000000000296
 20
309.7400000000000659
 30
0.0
 11
127.2799999999999727
 21
309.7400000000001228
 31
0.0
  0
LINE
  5
D1
100
AcDbEntity
100
AcDbLine
  8
Drawings, Driver Mechanism
 62
256
370
-1
  6
ByLayer
 10
127.2799999999999727
 20
309.7400000000001228
 30
0.0
 11
127.2800000000000296
 21
235.0399999999991962
 31
0.0
  0
LINE
  5
D2
100
AcDbEntity
100
AcDbLine
  8
Drawings, Driver Mechanism
 62
256
370
-1
  6
ByLayer
 10
127.2800000000000296
 20
235.0399999999991962
 30
0.0
 11
165.2800000000000864
 21
235.0399999999988268
 31
0.0
  0
LINE
  5
D3
100
AcDbEntity
100
AcDbLine
  8
Drawings, Driver Mechanism
 62
256
370
-1
  6
DASHED
 10
133.0
 20
229.590000000000515
 30
0.0
 11
124.8499968841376244
 21
229.5899999999996624
 31
0.0
  0
LINE
  5
D4
100
AcDbEntity
100
AcDbLine
  8
Drawings, Driver Mechanism
 62
256
370
-1
  6
DASHED
 10
133.0
 20
235.0899999999990655
 30
0.0
 11
133.0
 21
229.590000000000515
 31
0.0
  0
LINE
  5
D5
100
AcDbEntity
100
AcDbLine
  8
Drawings, Driver Mechanism
 62
256
370
-1
  6
DASHED
 10
190.0
 20
229.5899999999986392
 30
0.0
 11
190.0
 21
235.0899999999986107
 31
0.0
  0
LINE
  5
D6
100
AcDbEntity
100
AcDbLine
  8
Drawings, Driver Mechanism
 62
256
370
-1
  6
DASHED
 10
198.0
 20
229.5900000000006003
 30
0.0
 11
190.0
 21
229.5899999999986392
 31
0.0
  0
LINE
  5
D7
100
AcDbEntity
100
AcDbLine
  8
Drawings, Driver Mechanism
 62
256
370
-1
  6
DASHED
 10
198.0
 20
220.9099999999995987
 30
0.0
 11
190.0
 21
220.9100000000002524
 31
0.0
  0
LINE
  5
D8
100
AcDbEntity
100
AcDbLine
  8
Drawings, Driver Mechanism
 62
256
370
-1
  6
DASHED
 10
124.8499968841376244
 20
220.9099999999999966
 30
0.0
 11
133.0
 21
220.9099999999993713
 31
0.0
  0
LINE
  5
D9
100
AcDbEntity
100
AcDbLine
  8
Drawings, Driver Mechanism
 62
256
370
-1
  6
DASHED
 10
190.0
 20
220.9100000000002524
 30
0.0
 11
190.0
 21
215.4099999999999397
 31
0.0
  0
LINE
  5
DA
100
AcDbEntity
100
AcDbLine
  8
Drawings, Driver Mechanism
 62
256
370
-1
  6
DASHED
 10
133.0
 20
215.4100000000000819
 30
0.0
 11
133.0
 21
220.9099999999993713
 31
0.0
  0
LINE
  5
DB
100
AcDbEntity
100
AcDbLine
  8
Drawings, Driver Mechanism
 62
256
370
-1
  6
ByLayer
 10
124.8499968841376244
 20
215.410000000000025
 30
0.0
 11
198.0
 21
215.4099999999999397
 31
0.0
  0
LINE
  5
DC
100
AcDbEntity
100
AcDbLine
  8
Drawings, Driver Mechanism
 62
256
370
-1
  6
ByLayer
 10
124.8499968841376244
 20
235.0899999999992644
 30
0.0
 11
198.0
 21
235.0900000000007708
 31
0.0
  0
LINE
  5
DD
100
AcDbEntity
100
AcDbLine
  8
Drawings, Driver Mechanism
 62
256
370
-1
  6
ByLayer
 10
198.0
 20
235.0900000000007708
 30
0.0
 11
198.0
 21
215.4099999999999397
 31
0.0
  0
LINE
  5
DE
100
AcDbEntity
100
AcDbLine
  8
Drawings, Driver Mechanism
 62
256
370
-1
  6
ByLayer
 10
124.8499968841376244
 20
235.0899999999992644
 30
0.0
 11
124.8499968841376244
 21
215.410000000000025
 31
0.0
  0
LINE
  5
DF
100
AcDbEntity
100
AcDbLine
  8
Drawings, Driver Mechanism
 62
256
370
-1
  6
ByLayer
 10
183.2860824742267596
 20
226.4149999999998499
 30
0.0
 11
183.2860824742267596
 21
218.5849999999995248
 31
0.0
  0
LINE
  5
E0
100
AcDbEntity
100
AcDbLine
  8
Drawings, Driver Mechanism
 62
256
370
-1
  6
ByLayer
 10
187.1060824742268096
 20
226.4149999999997362
 30
0.0
 11
187.1060824742268096
 21
218.5849999999991837
 31
0.0
  0
LINE
  5
E1
100
AcDbEntity
100
AcDbLine
  8
Drawings, Driver Mechanism
 62
256
370
-1
  6
ByLayer
 10
183.2860824742267596
 20
218.5849999999995248
 30
0.0
 11
187.1060824742268096
 21
218.5849999999991837
 31
0.0
  0
LINE
  5
E2
100
AcDbEntity
100
AcDbLine
  8
Drawings, Driver Mechanism
 62
256
370
-1
  6
ByLayer
 10
183.2860824742267596
 20
226.4149999999998499
 30
0.0
 11
187.1060824742268096
 21
226.4149999999997362
 31
0.0
  0
LINE
  5
E3
100
AcDbEntity
100
AcDbLine
  8
Drawings, Driver Mechanism
 62
256
370
-1
  6
DASHED
 10
183.2860824742267596
 20
222.49999999999946
 30
0.0
 11
187.1060824742268096
 21
222.5000000000001137
 31
0.0
  0
LINE
  5
E4
100
AcDbEntity
100
AcDbLine
  8
Drawings, Driver Mechanism
 62
256
370
-1
  6
ByLayer
 10
180.57000000000005
 20
220.2700000000001239
 30
0.0
 11
180.57000000000005
 21
224.7299999999998477
 31
0.0
  0
LINE
  5
E5
100
AcDbEntity
100
AcDbLine
  8
Drawings, Driver Mechanism
 62
256
370
-1
  6
ByLayer
 10
180.57000000000005
 20
220.5000000000004263
 30
0.0
 11
181.57000000000005
 21
224.500000000000199
 31
0.0
  0
LINE
  5
E6
100
AcDbEntity
100
AcDbLine
  8
Drawings, Driver Mechanism
 62
256
370
-1
  6
ByLayer
 10
181.57000000000005
 20
220.4999999999995737
 30
0.0
 11
182.57000000000005
 21
224.4999999999990337
 31
0.0
  0
LINE
  5
E7
100
AcDbEntity
100
AcDbLine
  8
Drawings, Driver Mechanism
 62
256
370
-1
  6
ByLayer
 10
182.57000000000005
 20
220.4999999999997158
 30
0.0
 11
183.57000000000005
 21
224.5
 31
0.0
  0
LINE
  5
E8
100
AcDbEntity
100
AcDbLine
  8
Drawings, Driver Mechanism
 62
256
370
-1
  6
ByLayer
 10
183.57000000000005
 20
220.5000000000000568
 30
0.0
 11
184.57000000000005
 21
224.4999999999993463
 31
0.0
  0
LINE
  5
E9
100
AcDbEntity
100
AcDbLine
  8
Drawings, Driver Mechanism
 62
256
370
-1
  6
ByLayer
 10
184.57000000000005
 20
220.4999999999992895
 30
0.0
 11
185.57000000000005
 21
224.5000000000002842
 31
0.0
  0
LINE
  5
EA
100
AcDbEntity
100
AcDbLine
  8
Drawings, Driver Mechanism
 62
256
370
-1
  6
ByLayer
 10
185.57000000000005
 20
220.4999999999999716
 30
0.0
 11
186.57000000000005
 21
224.5000000000000568
 31
0.0
  0
LINE
  5
EB
100
AcDbEntity
100
AcDbLine
  8
Drawings, Driver Mechanism
 62
256
370
-1
  6
ByLayer
 10
186.57000000000005
 20
220.5000000000000284
 30
0.0
 11
187.5699999999999363
 21
224.4999999999991473
 31
0.0
  0
LINE
  5
EC
100
AcDbEntity
100
AcDbLine
  8
Drawings, Driver Mechanism
 62
256
370
-1
  6
ByLayer
 10
187.5699999999999363
 20
224.4999999999991473
 30
0.0
 11
187.5699999999999363
 21
224.4999999999991473
 31
0.0
  0
LINE
  5
ED
100
AcDbEntity
100
AcDbLine
  8
Drawings, Driver Mechanism
 62
256
370
-1
  6
ByLayer
 10
187.57000000000005
 20
220.5000000000000284
 30
0.0
 11
188.57000000000005
 21
224.4999999999996589
 31
0.0
  0
LINE
  5
EE
100
AcDbEntity
100
AcDbLine
  8
Drawings, Driver Mechanism
 62
256
370
-1
  6
ByLayer
 10
188.57000000000005
 20
220.4999999999990337
 30
0.0
 11
189.57000000000005
 21
224.5000000000005116
 31
0.0
  0
LINE
  5
EF
100
AcDbEntity
100
AcDbLine
  8
Drawings, Driver Mechanism
 62
256
370
-1
  6
ByLayer
 10
189.57000000000005
 20
220.5
 30
0.0
 11
190.5699999999999363
 21
224.4999999999985789
 31
0.0
  0
LINE
  5
F0
100
AcDbEntity
100
AcDbLine
  8
Drawings, Driver Mechanism
 62
256
370
-1
  6
ByLayer
 10
190.57000000000005
 20
220.4999999999993463
 30
0.0
 11
191.57000000000005
 21
224.4999999999997158
 31
0.0
  0
LINE
  5
F1
100
AcDbEntity
100
AcDbLine
  8
Drawings, Driver Mechanism
 62
256
370
-1
  6
ByLayer
 10
191.57000000000005
 20
220.4999999999996589
 30
0.0
 11
192.57000000000005
 21
224.4999999999992326
 31
0.0
  0
LINE
  5
F2
100
AcDbEntity
100
AcDbLine
  8
Drawings, Driver Mechanism
 62
256
370
-1
  6
ByLayer
 10
192.57000000000005
 20
220.4999999999999716
 30
0.0
 11
193.57000000000005
 21
224.5000000000000853
 31
0.0
  0
LINE
  5
F3
100
AcDbEntity
100
AcDbLine
  8
Drawings, Driver Mechanism
 62
256
370
-1
  6
ByLayer
 10
193.57000000000005
 20
220.4999999999996874
 30
0.0
 11
194.57000000000005
 21
224.4999999999999432
 31
0.0
  0
LINE
  5
F4
100
AcDbEntity
100
AcDbLine
  8
Drawings, Driver Mechanism
 62
256
370
-1
  6
ByLayer
 10
201.57000000000005
 20
220.5000000000006537
 30
0.0
 11
202.57000000000005
 21
224.4999999999996021
 31
0.0
  0
LINE
  5
F5
100
AcDbEntity
100
AcDbLine
  8
Drawings, Driver Mechanism
 62
256
370
-1
  6
ByLayer
 10
202.57000000000005
 20
220.4999999999991473
 30
0.0
 11
203.57000000000005
 21
224.5000000000001705
 31
0.0
  0
LINE
  5
F6
100
AcDbEntity
100
AcDbLine
  8
Drawings, Driver Mechanism
 62
256
370
-1
  6
ByLayer
 10
203.57000000000005
 20
220.4999999999996021
 30
0.0
 11
204.57000000000005
 21
224.4999999999988347
 31
0.0
  0
LINE
  5
F7
100
AcDbEntity
100
AcDbLine
  8
Drawings, Driver Mechanism
 62
256
370
-1
  6
ByLayer
 10
205.3100000000000591
 20
220.2699999999995555
 30
0.0
 11
205.3100000000000591
 21
224.7300000000001319
 31
0.0
  0
LINE
  5
F8
100
AcDbEntity
100
AcDbLine
  8
Drawings, Driver Mechanism
 62
256
370
-1
  6
ByLayer
 10
204.57000000000005
 20
220.5000000000000853
 30
0.0
 11
205.3100000000000591
 21
223.4599999999994679
 31
0.0
  0
LINE
  5
F9
100
AcDbEntity
100
AcDbLine
  8
Drawings, Driver Mechanism
 62
256
370
-1
  6
ByLayer
 10
205.3100000000000591
 20
216.4999999999997442
 30
0.0
 11
207.6499999999999773
 21
216.5000000000000568
 31
0.0
  0
LINE
  5
FA
100
AcDbEntity
100
AcDbLine
  8
Drawings, Driver Mechanism
 62
256
370
-1
  6
ByLayer
 10
205.3099999999999454
 20
228.4999999999994031
 30
0.0
 11
205.3100000000000591
 21
216.4999999999997442
 31
0.0
  0
LINE
  5
FB
100
AcDbEntity
100
AcDbLine
  8
Drawings, Driver Mechanism
 62
256
370
-1
  6
ByLayer
 10
205.3099999999999454
 20
228.4999999999994031
 30
0.0
 11
207.6499999999999773
 21
228.500000000000199
 31
0.0
  0
LINE
  5
FC
100
AcDbEntity
100
AcDbLine
  8
Drawings, Driver Mechanism
 62
256
370
-1
  6
ByLayer
 10
207.6499999999999773
 20
214.3799999999996544
 30
0.0
 11
212.0
 21
214.3799999999992565
 31
0.0
  0
LINE
  5
FD
100
AcDbEntity
100
AcDbLine
  8
Drawings, Driver Mechanism
 62
256
370
-1
  6
ByLayer
 10
212.0
 20
214.3799999999992565
 30
0.0
 11
212.0
 21
230.6200000000003172
 31
0.0
  0
LINE
  5
FE
100
AcDbEntity
100
AcDbLine
  8
Drawings, Driver Mechanism
 62
256
370
-1
  6
ByLayer
 10
212.0
 20
230.6200000000003172
 30
0.0
 11
207.6499999999999773
 21
230.6199999999993508
 31
0.0
  0
LINE
  5
FF
100
AcDbEntity
100
AcDbLine
  8
Drawings, Driver Mechanism
 62
256
370
-1
  6
ByLayer
 10
194.57000000000005
 20
220.4999999999998295
 30
0.0
 11
195.57000000000005
 21
224.4999999999996021
 31
0.0
  0
LINE
  5
100
100
AcDbEntity
100
AcDbLine
  8
Drawings, Driver Mechanism
 62
256
370
-1
  6
ByLayer
 10
200.57000000000005
 20
220.5000000000002558
 30
0.0
 11
201.57000000000005
 21
224.4999999999996021
 31
0.0
  0
LINE
  5
101
100
AcDbEntity
100
AcDbLine
  8
Drawings, Driver Mechanism
 62
256
370
-1
  6
ByLayer
 10
195.57000000000005
 20
220.5000000000003126
 30
0.0
 11
196.57000000000005
 21
224.4999999999997726
 31
0.0
  0
LINE
  5
102
100
AcDbEntity
100
AcDbLine
  8
Drawings, Driver Mechanism
 62
256
370
-1
  6
ByLayer
 10
196.57000000000005
 20
220.5000000000000284
 30
0.0
 11
197.57000000000005
 21
224.4999999999993463
 31
0.0
  0
LINE
  5
103
100
AcDbEntity
100
AcDbLine
  8
Drawings, Driver Mechanism
 62
256
370
-1
  6
ByLayer
 10
199.57000000000005
 20
220.4999999999995737
 30
0.0
 11
200.5699999999999363
 21
224.4999999999993179
 31
0.0
  0
LINE
  5
104
100
AcDbEntity
100
AcDbLine
  8
Drawings, Driver Mechanism
 62
256
370
-1
  6
ByLayer
 10
197.57000000000005
 20
220.5000000000005116
 30
0.0
 11
198.57000000000005
 21
224.5000000000000284
 31
0.0
  0
LINE
  5
105
100
AcDbEntity
100
AcDbLine
  8
Drawings, Driver Mechanism
 62
256
370
-1
  6
ByLayer
 10
198.57000000000005
 20
220.4999999999997726
 30
0.0
 11
199.57000000000005
 21
224.5000000000005116
 31
0.0
  0
LINE
  5
106
100
AcDbEntity
100
AcDbLine
  8
Drawings, Driver Mechanism
 62
256
370
-1
  6
ByLayer
 10
180.57000000000005
 20
224.7299999999998477
 30
0.0
 11
205.3100000000000591
 21
224.7300000000001319
 31
0.0
  0
LINE
  5
107
100
AcDbEntity
100
AcDbLine
  8
Drawings, Driver Mechanism
 62
256
370
-1
  6
ByLayer
 10
205.3100000000000591
 20
220.2699999999995555
 30
0.0
 11
180.57000000000005
 21
220.2700000000001239
 31
0.0
  0
LINE
  5
108
100
AcDbEntity
100
AcDbLine
  8
Drawings, Driver Mechanism
 62
256
370
-1
  6
ByLayer
 10
207.6499999999999773
 20
214.3799999999996544
 30
0.0
 11
207.6499999999999773
 21
216.5000000000000568
 31
0.0
  0
LINE
  5
109
100
AcDbEntity
100
AcDbLine
  8
Drawings, Driver Mechanism
 62
256
370
-1
  6
ByLayer
 10
207.6499999999999773
 20
228.500000000000199
 30
0.0
 11
207.6499999999999773
 21
230.6199999999993508
 31
0.0
  0
LINE
  5
10A
100
AcDbEntity
100
AcDbLine
  8
Drawings, Driver Mechanism
 62
256
370
-1
  6
DASHED
 10
207.6499999999999773
 20
216.5000000000000568
 30
0.0
 11
207.6499999999999773
 21
228.500000000000199
 31
0.0
  0
MTEXT
  5
10B
100
AcDbEntity
100
AcDbMText
  8
Drawings, Driver Mechanism
 62
256
370
-1
  6
ByLayer
 10
207.8999999999999773
 20
222.4999999999994884
 30
0.0
 40
1.0
 41
100.0
 71
7
 72
2
  1
M5x25
  7
standard
 50
0.0
 73
1
 44
1.0
  0
CIRCLE
  5
10C
100
AcDbEntity
100
AcDbCircle
  8
Drawings, Driver Mechanism
 62
256
370
-1
  6
ByLayer
 10
-342.5000000000002274
 20
115.4999998574059958
 30
0.0
 40
2.2299999999999756
  0
CIRCLE
  5
10D
100
AcDbEntity
100
AcDbCircle
  8
Drawings, Driver Mechanism
 62
256
370
-1
  6
ByLayer
 10
-342.5000000000002274
 20
115.4999998574059958
 30
0.0
 40
8.1199999999999619
  0
LINE
  5
10E
100
AcDbEntity
100
AcDbLine
  8
1 Body
 62
256
370
-1
  6
ByLayer
 10
200.0000000000000284
 20
89.9999999999999716
 30
0.0
 11
200.0000000000000284
 21
9.9999999999999716
 31
0.0
  0
LINE
  5
10F
100
AcDbEntity
100
AcDbLine
  8
1 Body
 62
256
370
-1
  6
ByLayer
 10
200.0000000000000284
 20
-9.9999999999998579
 30
0.0
 11
200.0000000000000284
 21
-89.9999999999999716
 31
0.0
  0
LINE
  5
110
100
AcDbEntity
100
AcDbLine
  8
1 Body
 62
256
370
-1
  6
ByLayer
 10
-199.9999999999998579
 20
-89.9999999999999005
 30
0.0
 11
-199.9999999999998579
 21
-9.9999999999995737
 31
0.0
  0
LINE
  5
111
100
AcDbEntity
100
AcDbLine
  8
1 Body
 62
256
370
-1
  6
ByLayer
 10
-199.9999999999998579
 20
10.0000000000000284
 30
0.0
 11
-199.9999999999999432
 21
90.0000000000001137
 31
0.0
  0
INSERT
  5
112
100
AcDbEntity
100
AcDbBlockReference
  8
1 Body
 62
256
370
-1
  6
ByLayer
  2
tabs-with-bolt-20
 10
200.0000000000000284
 20
-99.9999999999999716
 30
0.0
 41
1.0
 42
-1.0
 43
1.0
 50
270.0
 44
1.0
 45
1.0
  0
INSERT
  5
113
100
AcDbEntity
100
AcDbBlockReference
  8
1 Body
 62
256
370
-1
  6
ByLayer
  2
tabs-with-bolt-20
 10
200.0000000000000284
 20
-0.0000000000000284
 30
0.0
 41
1.0
 42
-1.0
 43
1.0
 50
270.0
 44
1.0
 45
1.0
  0
INSERT
  5
114
100
AcDbEntity
100
AcDbBlockReference
  8
1 Body
 62
256
370
-1
  6
ByLayer
  2
tabs-with-bolt-20
 10
199.9999999999999147
 20
100.000000000000199
 30
0.0
 41
1.0
 42
-1.0
 43
1.0
 50
270.0
 44
1.0
 45
1.0
  0
INSERT
  5
115
100
AcDbEntity
100
AcDbBlockReference
  8
1 Body
 62
256
370
-1
  6
ByLayer
  2
tabs-with-bolt-20
 10
-199.9999999999999432
 20
-99.9999999999995879
 30
0.0
 41
1.0
 42
-1.0
 43
1.0
 50
90.0
 44
1.0
 45
1.0
  0
INSERT
  5
116
100
AcDbEntity
100
AcDbBlockReference
  8
1 Body
 62
256
370
-1
  6
ByLayer
  2
tabs-with-bolt-20
 10
-199.9999999999998295
 20
0.0000000000002842
 30
0.0
 41
1.0
 42
-1.0
 43
1.0
 50
90.0
 44
1.0
 45
1.0
  0
INSERT
  5
117
100
AcDbEntity
100
AcDbBlockReference
  8
1 Body
 62
256
370
-1
  6
ByLayer
  2
tabs-with-bolt-20
 10
-200.0000000000000284
 20
99.9999999999999716
 30
0.0
 41
1.0
 42
-1.0
 43
1.0
 50
90.0
 44
1.0
 45
1.0
  0
ARC
  5
118
100
AcDbEntity
  8
1 Body
 62
256
370
-1
  6
ByLayer
100
AcDbCircle
 10
194.999999999999801
 20
144.9999999999988631
 30
0.0
 40
5.0
100
AcDbArc
 50
0.0
 51
90.0
  0
ARC
  5
119
100
AcDbEntity
  8
1 Body
 62
256
370
-1
  6
ByLayer
100
AcDbCircle
 10
-195.0
 20
144.9999999999991473
 30
0.0
 40
5.0
100
AcDbArc
 50
90.0
 51
180.0
  0
LINE
  5
11A
100
AcDbEntity
100
AcDbLine
  8
1 Body
 62
256
370
-1
  6
ByLayer
 10
-110.0000000000000853
 20
149.9999999999987494
 30
0.0
 11
-194.9999999999998295
 21
149.9999999999998295
 31
0.0
  0
INSERT
  5
11B
100
AcDbEntity
100
AcDbBlockReference
  8
1 Body
 62
256
370
-1
  6
ByLayer
  2
tabs-with-bolt-20
 10
-100.0000000000000711
 20
149.9999999999987494
 30
0.0
 41
1.0
 42
-1.0
 43
1.0
 44
1.0
 45
1.0
  0
INSERT
  5
11C
100
AcDbEntity
100
AcDbBlockReference
  8
1 Body
 62
256
370
-1
  6
ByLayer
  2
tabs-with-bolt-20
 10
-0.0000000000001137
 20
149.9999999999987494
 30
0.0
 41
1.0
 42
-1.0
 43
1.0
 44
1.0
 45
1.0
  0
LINE
  5
11D
100
AcDbEntity
100
AcDbLine
  8
1 Body
 62
256
370
-1
  6
ByLayer
 10
-90.0000000000000711
 20
150.0000000000002274
 30
0.0
 11
-10.0000000000000675
 21
150.0000000000003411
 31
0.0
  0
LINE
  5
11E
100
AcDbEntity
100
AcDbLine
  8
1 Body
 62
256
370
-1
  6
ByLayer
 10
200.0
 20
144.9999999999988631
 30
0.0
 11
199.9999999999999147
 21
110.000000000000199
 31
0.0
  0
LINE
  5
11F
100
AcDbEntity
100
AcDbLine
  8
1 Body
 62
256
370
-1
  6
ByLayer
 10
-199.9999999999999432
 20
110.0000000000001137
 30
0.0
 11
-199.999999999999801
 21
144.9999999999991473
 31
0.0
  0
ARC
  5
120
100
AcDbEntity
  8
1 Body
 62
256
370
-1
  6
ByLayer
100
AcDbCircle
 10
195.0
 20
-134.9999999999998579
 30
0.0
 40
5.0
100
AcDbArc
 50
270.0
 51
0.0
  0
ARC
  5
121
100
AcDbEntity
  8
1 Body
 62
256
370
-1
  6
ByLayer
100
AcDbCircle
 10
-194.999999999999801
 20
-134.9999999999999716
 30
0.0
 40
5.0
100
AcDbArc
 50
180.0
 51
270.0
  0
LINE
  5
122
100
AcDbEntity
100
AcDbLine
  8
1 Body
 62
256
370
-1
  6
ByLayer
 10
-110.0000000000000568
 20
-140.0
 30
0.0
 11
-194.999999999999801
 21
-140.0
 31
0.0
  0
INSERT
  5
123
100
AcDbEntity
100
AcDbBlockReference
  8
1 Body
 62
256
370
-1
  6
ByLayer
  2
tabs-with-bolt-20
 10
100.0
 20
-140.0000000000000568
 30
0.0
 50
360.0
 44
1.0
 45
1.0
  0
INSERT
  5
124
100
AcDbEntity
100
AcDbBlockReference
  8
1 Body
 62
256
370
-1
  6
ByLayer
  2
tabs-with-bolt-20
 10
-100.0000000000000568
 20
-140.0
 30
0.0
 50
360.0
 44
1.0
 45
1.0
  0
LINE
  5
125
100
AcDbEntity
100
AcDbLine
  8
1 Body
 62
256
370
-1
  6
ByLayer
 10
109.9999999999998863
 20
-140.0000000000000568
 30
0.0
 11
194.9999999999997726
 21
-140.0
 31
0.0
  0
INSERT
  5
126
100
AcDbEntity
100
AcDbBlockReference
  8
1 Body
 62
256
370
-1
  6
ByLayer
  2
tabs-with-bolt-20
 10
-0.0000000000000568
 20
-140.0000000000000284
 30
0.0
 50
360.0
 44
1.0
 45
1.0
  0
LINE
  5
127
100
AcDbEntity
100
AcDbLine
  8
1 Body
 62
256
370
-1
  6
ByLayer
 10
-90.0000000000000568
 20
-140.0
 30
0.0
 11
-10.0000000000000568
 21
-140.0000000000000284
 31
0.0
  0
LINE
  5
128
100
AcDbEntity
100
AcDbLine
  8
1 Body
 62
256
370
-1
  6
ByLayer
 10
10.0
 20
-140.0000000000000284
 30
0.0
 11
89.5
 21
-140.0000000000000568
 31
0.0
  0
LINE
  5
129
100
AcDbEntity
100
AcDbLine
  8
1 Body
 62
256
370
-1
  6
ByLayer
 10
-199.999999999999801
 20
-134.9999999999999716
 30
0.0
 11
-199.9999999999998579
 21
-109.9999999999998295
 31
0.0
  0
LINE
  5
12A
100
AcDbEntity
100
AcDbLine
  8
1 Body
 62
256
370
-1
  6
ByLayer
 10
200.0000000000000568
 20
-110.0000000000000142
 30
0.0
 11
200.0
 21
-134.9999999999998579
 31
0.0
  0
ARC
  5
12B
100
AcDbEntity
  8
1 Body
 62
256
370
-1
  6
ByLayer
100
AcDbCircle
 10
-207.4999999999999716
 20
-347.5000000000004547
 30
0.0
 40
5.0
100
AcDbArc
 50
180.0
 51
270.0
  0
ARC
  5
12C
100
AcDbEntity
  8
1 Body
 62
256
370
-1
  6
ByLayer
100
AcDbCircle
 10
-207.4999999999998295
 20
-192.5000000000005116
 30
0.0
 40
5.0
100
AcDbArc
 50
90.0
 51
180.0
  0
LINE
  5
12D
100
AcDbEntity
100
AcDbLine
  8
1 Body
 62
256
370
-1
  6
ByLayer
 10
-212.4999999999998863
 20
-192.50000000000054
 30
0.0
 11
-212.4999999999999716
 21
-347.5000000000005116
 31
0.0
  0
ARC
  5
12E
100
AcDbEntity
  8
1 Body
 62
256
370
-1
  6
ByLayer
100
AcDbCircle
 10
207.4999999999998579
 20
-347.5000000000002842
 30
0.0
 40
5.0
100
AcDbArc
 50
270.0
 51
360.0
  0
ARC
  5
12F
100
AcDbEntity
  8
1 Body
 62
256
370
-1
  6
ByLayer
100
AcDbCircle
 10
207.4999999999998863
 20
-192.5000000000001137
 30
0.0
 40
5.0
100
AcDbArc
 50
360.0
 51
90.0
  0
LINE
  5
130
100
AcDbEntity
100
AcDbLine
  8
1 Body
 62
256
370
-1
  6
ByLayer
 10
212.499999999999801
 20
-347.5000000000004547
 30
0.0
 11
212.4999999999998863
 21
-192.5000000000002842
 31
0.0
  0
LINE
  5
131
100
AcDbEntity
100
AcDbLine
  8
1 Body
 62
256
370
-1
  6
ByLayer
 10
-207.499999999999801
 20
-187.5000000000003979
 30
0.0
 11
207.4999999999998863
 21
-187.4999999999994884
 31
0.0
  0
INSERT
  5
132
100
AcDbEntity
100
AcDbBlockReference
  8
1 Body
 62
256
370
-1
  6
ByLayer
  2
holes-20
 10
99.9999999999999574
 20
-342.5000000000003411
 30
0.0
 50
180.0
 44
1.0
 45
1.0
  0
INSERT
  5
133
100
AcDbEntity
100
AcDbBlockReference
  8
1 Body
 62
256
370
-1
  6
ByLayer
  2
holes-20
 10
-0.0000000000000284
 20
-342.5000000000003411
 30
0.0
 50
360.0
 44
1.0
 45
1.0
  0
INSERT
  5
134
100
AcDbEntity
100
AcDbBlockReference
  8
1 Body
 62
256
370
-1
  6
ByLayer
  2
holes-20
 10
-100.0000000000000426
 20
-342.5000000000003411
 30
0.0
 50
360.0
 44
1.0
 45
1.0
  0
INSERT
  5
135
100
AcDbEntity
100
AcDbBlockReference
  8
1 Body
 62
256
370
-1
  6
ByLayer
  2
holes-20
 10
99.9999999999999574
 20
-197.5000000000003979
 30
0.0
 50
180.0
 44
1.0
 45
1.0
  0
INSERT
  5
136
100
AcDbEntity
100
AcDbBlockReference
  8
1 Body
 62
256
370
-1
  6
ByLayer
  2
holes-20
 10
-0.000000000000048
 20
-197.5000000000003695
 30
0.0
 50
360.0
 44
1.0
 45
1.0
  0
INSERT
  5
137
100
AcDbEntity
100
AcDbBlockReference
  8
1 Body
 62
256
370
-1
  6
ByLayer
  2
holes-20
 10
-100.0000000000000284
 20
-197.5000000000003411
 30
0.0
 50
360.0
 44
1.0
 45
1.0
  0
LINE
  5
138
100
AcDbEntity
100
AcDbLine
  8
1 Body
 62
256
370
-1
  6
ByLayer
 10
-207.4999999999999716
 20
-352.5000000000004547
 30
0.0
 11
207.499999999999801
 21
-352.5000000000005684
 31
0.0
  0
INSERT
  5
139
100
AcDbEntity
100
AcDbBlockReference
  8
1 Body
 62
256
370
-1
  6
ByLayer
  2
holes-20
 10
-202.4999999999999432
 20
-270.0
 30
0.0
 50
270.0
 44
1.0
 45
1.0
  0
INSERT
  5
13A
100
AcDbEntity
100
AcDbBlockReference
  8
1 Body
 62
256
370
-1
  6
ByLayer
  2
holes-20
 10
202.5
 20
-270.0000000000000568
 30
0.0
 50
270.0
 44
1.0
 45
1.0
  0
INSERT
  5
13B
100
AcDbEntity
100
AcDbBlockReference
  8
1 Body
 62
256
370
-1
  6
ByLayer
  2
holes-20
 10
-385.0000000000000568
 20
100.0000000000006253
 30
0.0
 41
1.0
 42
-1.0
 43
1.0
 50
270.0000000000001137
 44
1.0
 45
1.0
  0
INSERT
  5
13C
100
AcDbEntity
100
AcDbBlockReference
  8
1 Body
 62
256
370
-1
  6
ByLayer
  2
holes-20
 10
-385.0
 20
0.0000000000007105
 30
0.0
 41
1.0
 42
-1.0
 43
1.0
 50
270.0000000000001137
 44
1.0
 45
1.0
  0
INSERT
  5
13D
100
AcDbEntity
100
AcDbBlockReference
  8
1 Body
 62
256
370
-1
  6
ByLayer
  2
holes-20
 10
-384.9999999999999432
 20
-99.9999999999992895
 30
0.0
 41
1.0
 42
-1.0
 43
1.0
 50
270.0000000000001137
 44
1.0
 45
1.0
  0
INSERT
  5
13E
100
AcDbEntity
100
AcDbBlockReference
  8
1 Body
 62
256
370
-1
  6
ByLayer
  2
holes-20
 10
-240.0000000000001705
 20
100.0000000000001137
 30
0.0
 41
1.0
 42
-1.0
 43
1.0
 50
270.0000000000001137
 44
1.0
 45
1.0
  0
INSERT
  5
13F
100
AcDbEntity
100
AcDbBlockReference
  8
1 Body
 62
256
370
-1
  6
ByLayer
  2
holes-20
 10
-239.9999999999999716
 20
0.0000000000001137
 30
0.0
 41
1.0
 42
-1.0
 43
1.0
 50
270.0000000000001137
 44
1.0
 45
1.0
  0
INSERT
  5
140
100
AcDbEntity
100
AcDbBlockReference
  8
1 Body
 62
256
370
-1
  6
ByLayer
  2
holes-20
 10
-239.9999999999997442
 20
-99.9999999999998579
 30
0.0
 41
1.0
 42
-1.0
 43
1.0
 50
270.0000000000001137
 44
1.0
 45
1.0
  0
ARC
  5
141
100
AcDbEntity
  8
1 Body
 62
256
370
-1
  6
ByLayer
100
AcDbCircle
 10
-390.0
 20
144.9999999999997442
 30
0.0
 40
5.0
100
AcDbArc
 50
90.0000000000000853
 51
180.0
  0
ARC
  5
142
100
AcDbEntity
  8
1 Body
 62
256
370
-1
  6
ByLayer
100
AcDbCircle
 10
-235.0000000000002274
 20
144.9999999999988631
 30
0.0
 40
5.0
100
AcDbArc
 50
0.0
 51
90.0000000000000853
  0
INSERT
  5
143
100
AcDbEntity
100
AcDbBlockReference
  8
1 Body
 62
256
370
-1
  6
ByLayer
  2
tabs-with-bolt-20
 10
-312.5000000000001137
 20
149.999999999999261
 30
0.0
 41
1.0
 42
-1.0
 43
1.0
 44
1.0
 45
1.0
  0
LINE
  5
144
100
AcDbEntity
100
AcDbLine
  8
1 Body
 62
256
370
-1
  6
ByLayer
 10
-302.5000000000001137
 20
149.9999999999992326
 30
0.0
 11
-235.0000000000002274
 21
149.9999999999988063
 31
0.0
  0
ARC
  5
145
100
AcDbEntity
  8
1 Body
 62
256
370
-1
  6
ByLayer
100
AcDbCircle
 10
-389.9999999999996021
 20
-135.0000000000000568
 30
0.0
 40
5.0
100
AcDbArc
 50
180.0
 51
270.0000000000001137
  0
ARC
  5
146
100
AcDbEntity
  8
1 Body
 62
256
370
-1
  6
ByLayer
100
AcDbCircle
 10
-235.0
 20
-135.0000000000008527
 30
0.0
 40
5.0
100
AcDbArc
 50
270.0000000000001137
 51
0.0
  0
LINE
  5
147
100
AcDbEntity
100
AcDbLine
  8
1 Body
 62
256
370
-1
  6
ByLayer
 10
-302.4999999999998863
 20
-140.0000000000003979
 30
0.0
 11
-234.9999999999998863
 21
-140.0000000000007958
 31
0.0
  0
LINE
  5
148
100
AcDbEntity
100
AcDbLine
  8
1 Body
 62
256
370
-1
  6
ByLayer
 10
-322.4999999999999432
 20
-140.0000000000009095
 30
0.0
 11
-389.9999999999997158
 21
-140.0
 31
0.0
  0
LINE
  5
149
100
AcDbEntity
100
AcDbLine
  8
1 Body
 62
256
370
-1
  6
ByLayer
 10
-230.0000000000003411
 20
144.9999999999988063
 30
0.0
 11
-230.0000000000000853
 21
-135.0000000000009095
 31
0.0
  0
LINE
  5
14A
100
AcDbEntity
100
AcDbLine
  8
1 Body
 62
256
370
-1
  6
ByLayer
 10
-394.9999999999994884
 20
-135.0000000000001137
 30
0.0
 11
-395.0000000000001137
 21
144.9999999999999147
 31
0.0
  0
ARC
  5
14B
100
AcDbEntity
  8
1 Body
 62
256
370
-1
  6
ByLayer
100
AcDbCircle
 10
-207.4999999999999432
 20
329.9999999999998863
 30
0.0
 40
5.0
100
AcDbArc
 50
90.0000000000000142
 51
180.0
  0
ARC
  5
14C
100
AcDbEntity
  8
1 Body
 62
256
370
-1
  6
ByLayer
100
AcDbCircle
 10
-207.499999999999801
 20
174.9999999999998295
 30
0.0
 40
5.0
100
AcDbArc
 50
180.0
 51
270.0
  0
LINE
  5
14D
100
AcDbEntity
100
AcDbLine
  8
1 Body
 62
256
370
-1
  6
ByLayer
 10
-212.4999999999998295
 20
174.9999999999998295
 30
0.0
 11
-212.4999999999998863
 21
329.9999999999998863
 31
0.0
  0
INSERT
  5
14E
100
AcDbEntity
100
AcDbBlockReference
  8
1 Body
 62
256
370
-1
  6
ByLayer
  2
holes-20
 10
0.0
 20
324.9999999999997726
 30
0.0
 41
1.0
 42
-1.0
 43
1.0
 44
1.0
 45
1.0
  0
INSERT
  5
14F
100
AcDbEntity
100
AcDbBlockReference
  8
1 Body
 62
256
370
-1
  6
ByLayer
  2
holes-20
 10
-100.0000000000000284
 20
324.9999999999997726
 30
0.0
 41
1.0
 42
-1.0
 43
1.0
 44
1.0
 45
1.0
  0
INSERT
  5
150
100
AcDbEntity
100
AcDbBlockReference
  8
1 Body
 62
256
370
-1
  6
ByLayer
  2
holes-20
 10
0.0
 20
179.9999999999996874
 30
0.0
 41
1.0
 42
-1.0
 43
1.0
 44
1.0
 45
1.0
  0
INSERT
  5
151
100
AcDbEntity
100
AcDbBlockReference
  8
1 Body
 62
256
370
-1
  6
ByLayer
  2
holes-20
 10
-100.0
 20
179.9999999999997158
 30
0.0
 41
1.0
 42
-1.0
 43
1.0
 44
1.0
 45
1.0
  0
INSERT
  5
152
100
AcDbEntity
100
AcDbBlockReference
  8
1 Body
 62
256
370
-1
  6
ByLayer
  2
holes-20
 10
-202.4999999999998863
 20
252.4999999999998579
 30
0.0
 41
1.0
 42
-1.0
 43
1.0
 50
90.0000000000000142
 44
1.0
 45
1.0
  0
ARC
  5
153
100
AcDbEntity
  8
1 Body
 62
256
370
-1
  6
ByLayer
100
AcDbCircle
 10
-338.9504902152387444
 20
148.9999999999994316
 30
0.0
 40
1.0
100
AcDbArc
 50
89.999999999996831
 51
180.0
  0
ARC
  5
154
100
AcDbEntity
  8
1 Body
 62
256
370
-1
  6
ByLayer
100
AcDbCircle
 10
-346.0495097847614829
 20
148.9999999999993747
 30
0.0
 40
1.0
100
AcDbArc
 50
0.0
 51
89.999999999996831
  0
LINE
  5
155
100
AcDbEntity
100
AcDbLine
  8
1 Body
 62
256
370
-1
  6
ByLayer
 10
-346.0495097847614829
 20
149.9999999999994031
 30
0.0
 11
-390.0
 21
149.9999999999997158
 31
0.0
  0
LINE
  5
156
100
AcDbEntity
100
AcDbLine
  8
1 Body
 62
256
370
-1
  6
ByLayer
 10
-338.9504902152386876
 20
149.9999999999994316
 30
0.0
 11
-322.5000000000001137
 21
149.999999999999261
 31
0.0
  0
INSERT
  5
157
100
AcDbEntity
100
AcDbBlockReference
  8
1 Body
 62
256
370
-1
  6
ByLayer
  2
tabs-with-bolt-20
 10
159.9999999999998863
 20
149.9999999999987494
 30
0.0
 41
1.0
 42
-1.0
 43
1.0
 44
1.0
 45
1.0
  0
LINE
  5
158
100
AcDbEntity
100
AcDbLine
  8
1 Body
 62
256
370
-1
  6
ByLayer
 10
169.9999999999998863
 20
149.9999999999987494
 30
0.0
 11
194.9999999999997726
 21
150.0
 31
0.0
  0
LINE
  5
159
100
AcDbEntity
100
AcDbLine
  8
1 Body
 62
256
370
-1
  6
ByLayer
 10
9.9999999999999503
 20
149.9999999999987494
 30
0.0
 11
149.9999999999998863
 21
149.9999999999992042
 31
0.0
  0
ARC
  5
15A
100
AcDbEntity
  8
1 Body
 62
256
370
-1
  6
ByLayer
100
AcDbCircle
 10
232.5000000000000568
 20
144.9999999999990621
 30
0.0
 40
5.0
100
AcDbArc
 50
90.0000000000000853
 51
180.0
  0
ARC
  5
15B
100
AcDbEntity
  8
1 Body
 62
256
370
-1
  6
ByLayer
100
AcDbCircle
 10
387.4999999999998295
 20
144.999999999998181
 30
0.0
 40
5.0
100
AcDbArc
 50
0.0
 51
90.0000000000000853
  0
INSERT
  5
15C
100
AcDbEntity
100
AcDbBlockReference
  8
1 Body
 62
256
370
-1
  6
ByLayer
  2
tabs-with-bolt-20
 10
309.9999999999999432
 20
149.9999999999985789
 30
0.0
 41
1.0
 42
-1.0
 43
1.0
 44
1.0
 45
1.0
  0
LINE
  5
15D
100
AcDbEntity
100
AcDbLine
  8
1 Body
 62
256
370
-1
  6
ByLayer
 10
319.9999999999999432
 20
149.9999999999985505
 30
0.0
 11
387.4999999999998295
 21
149.9999999999981242
 31
0.0
  0
ARC
  5
15E
100
AcDbEntity
  8
1 Body
 62
256
370
-1
  6
ByLayer
100
AcDbCircle
 10
232.5000000000004263
 20
-135.000000000000739
 30
0.0
 40
5.0
100
AcDbArc
 50
180.0
 51
270.0000000000001137
  0
ARC
  5
15F
100
AcDbEntity
  8
1 Body
 62
256
370
-1
  6
ByLayer
100
AcDbCircle
 10
387.5
 20
-135.0000000000015632
 30
0.0
 40
5.0
100
AcDbArc
 50
270.0000000000001137
 51
0.0
  0
LINE
  5
160
100
AcDbEntity
100
AcDbLine
  8
1 Body
 62
256
370
-1
  6
ByLayer
 10
320.0000000000001705
 20
-140.00000000000108
 30
0.0
 11
387.5000000000001137
 21
-140.0000000000015064
 31
0.0
  0
LINE
  5
161
100
AcDbEntity
100
AcDbLine
  8
1 Body
 62
256
370
-1
  6
ByLayer
 10
300.0
 20
-140.0000000000015916
 30
0.0
 11
232.5000000000003979
 21
-140.0000000000007105
 31
0.0
  0
LINE
  5
162
100
AcDbEntity
100
AcDbLine
  8
1 Body
 62
256
370
-1
  6
ByLayer
 10
392.4999999999997158
 20
144.9999999999981242
 30
0.0
 11
392.5
 21
-135.0000000000015916
 31
0.0
  0
LINE
  5
163
100
AcDbEntity
100
AcDbLine
  8
1 Body
 62
256
370
-1
  6
ByLayer
 10
227.5000000000005684
 20
-135.0000000000007958
 30
0.0
 11
227.4999999999999432
 21
144.9999999999992326
 31
0.0
  0
LINE
  5
164
100
AcDbEntity
100
AcDbLine
  8
1 Body
 62
256
370
-1
  6
ByLayer
 10
299.9999999999999432
 20
149.9999999999985789
 30
0.0
 11
232.5000000000000568
 21
149.9999999999990337
 31
0.0
  0
CIRCLE
  5
165
100
AcDbEntity
100
AcDbCircle
  8
1 Body
 62
256
370
-1
  6
ByLayer
 10
-10.0000000000000018
 20
-10.0000000000000124
 30
0.0
 40
1.45
  0
CIRCLE
  5
166
100
AcDbEntity
100
AcDbCircle
  8
1 Body
 62
256
370
-1
  6
ByLayer
 10
10.0000000000000089
 20
9.999999999999984
 30
0.0
 40
1.45
  0
INSERT
  5
167
100
AcDbEntity
100
AcDbBlockReference
  8
1 Body
 62
256
370
-1
  6
ByLayer
  2
tabs-with-bolt-20
 10
-312.4999999999996589
 20
-140.0000000000009095
 30
0.0
 44
1.0
 45
1.0
  0
INSERT
  5
168
100
AcDbEntity
100
AcDbBlockReference
  8
1 Body
 62
256
370
-1
  6
ByLayer
  2
holes-20
 10
237.5
 20
99.9999999999999432
 30
0.0
 41
1.0
 42
-1.0
 43
1.0
 50
270.0000000000001137
 44
1.0
 45
1.0
  0
INSERT
  5
169
100
AcDbEntity
100
AcDbBlockReference
  8
1 Body
 62
256
370
-1
  6
ByLayer
  2
holes-20
 10
237.5000000000000568
 20
-0.000000000000024
 30
0.0
 41
1.0
 42
-1.0
 43
1.0
 50
270.0000000000001137
 44
1.0
 45
1.0
  0
INSERT
  5
16A
100
AcDbEntity
100
AcDbBlockReference
  8
1 Body
 62
256
370
-1
  6
ByLayer
  2
holes-20
 10
237.5000000000000568
 20
-99.9999999999999289
 30
0.0
 41
1.0
 42
-1.0
 43
1.0
 50
270.0000000000001137
 44
1.0
 45
1.0
  0
INSERT
  5
16B
100
AcDbEntity
100
AcDbBlockReference
  8
1 Body
 62
256
370
-1
  6
ByLayer
  2
holes-20
 10
382.4999999999998863
 20
99.9999999999994316
 30
0.0
 41
1.0
 42
-1.0
 43
1.0
 50
270.0000000000001137
 44
1.0
 45
1.0
  0
INSERT
  5
16C
100
AcDbEntity
100
AcDbBlockReference
  8
1 Body
 62
256
370
-1
  6
ByLayer
  2
holes-20
 10
382.5000000000001137
 20
-0.0000000000006111
 30
0.0
 41
1.0
 42
-1.0
 43
1.0
 50
270.0000000000001137
 44
1.0
 45
1.0
  0
INSERT
  5
16D
100
AcDbEntity
100
AcDbBlockReference
  8
1 Body
 62
256
370
-1
  6
ByLayer
  2
holes-20
 10
382.5000000000003411
 20
-100.00000000000054
 30
0.0
 41
1.0
 42
-1.0
 43
1.0
 50
270.0000000000001137
 44
1.0
 45
1.0
  0
INSERT
  5
16E
100
AcDbEntity
100
AcDbBlockReference
  8
1 Body
 62
256
370
-1
  6
ByLayer
  2
tabs-with-bolt-20
 10
310.0000000000003411
 20
-140.0000000000015916
 30
0.0
 44
1.0
 45
1.0
  0
ARC
  5
16F
100
AcDbEntity
  8
1 Body
 62
256
370
-1
  6
ByLayer
100
AcDbCircle
 10
337.4999999999998863
 20
330.0000000000009095
 30
0.0
 40
5.0
100
AcDbArc
 50
0.0
 51
90.0000000000000142
  0
ARC
  5
170
100
AcDbEntity
  8
1 Body
 62
256
370
-1
  6
ByLayer
100
AcDbCircle
 10
337.4999999999998863
 20
175.0000000000005116
 30
0.0
 40
5.0
100
AcDbArc
 50
270.0
 51
0.0
  0
LINE
  5
171
100
AcDbEntity
100
AcDbLine
  8
1 Body
 62
256
370
-1
  6
ByLayer
 10
342.4999999999997726
 20
330.0000000000009663
 30
0.0
 11
342.4999999999997726
 21
175.0000000000003979
 31
0.0
  0
INSERT
  5
172
100
AcDbEntity
100
AcDbBlockReference
  8
1 Body
 62
256
370
-1
  6
ByLayer
  2
holes-20
 10
332.5
 20
252.5000000000003411
 30
0.0
 41
1.0
 42
-1.0
 43
1.0
 50
90.0000000000000142
 44
1.0
 45
1.0
  0
CIRCLE
  5
173
100
AcDbEntity
100
AcDbCircle
  8
1 Body
 62
256
370
-1
  6
ByLayer
 10
282.8999999999999773
 20
222.5000000000001137
 30
0.0
 40
7.5
  0
LINE
  5
174
100
AcDbEntity
100
AcDbLine
  8
1 Body
 62
256
370
-1
  6
ByLayer
 10
230.0
 20
335.0000000000008527
 30
0.0
 11
230.0
 21
170.0000000000000284
 31
0.0
  0
INSERT
  5
175
100
AcDbEntity
100
AcDbBlockReference
  8
1 Body
 62
256
370
-1
  6
ByLayer
  2
holes-20
 10
289.9999999999998863
 20
325.0000000000005684
 30
0.0
 41
1.0
 42
-1.0
 43
1.0
 50
180.0
 44
1.0
 45
1.0
  0
INSERT
  5
176
100
AcDbEntity
100
AcDbBlockReference
  8
1 Body
 62
256
370
-1
  6
ByLayer
  2
holes-20
 10
289.9999999999998863
 20
180.0000000000005969
 30
0.0
 41
1.0
 42
-1.0
 43
1.0
 50
180.0
 44
1.0
 45
1.0
  0
LINE
  5
177
100
AcDbEntity
100
AcDbLine
  8
1 Body
 62
256
370
-1
  6
ByLayer
 10
230.0
 20
335.0000000000008527
 30
0.0
 11
337.4999999999998863
 21
335.0000000000009095
 31
0.0
  0
LINE
  5
178
100
AcDbEntity
100
AcDbLine
  8
1 Body
 62
256
370
-1
  6
ByLayer
 10
230.0
 20
170.0
 30
0.0
 11
337.4999999999998863
 21
169.9999999999997158
 31
0.0
  0
LINE
  5
179
100
AcDbEntity
100
AcDbLine
  8
1 Body
 62
256
370
-1
  6
ByLayer
 10
254.849996884137596
 20
235.0900000000000887
 30
0.0
 11
263.0
 21
235.0900000000000887
 31
0.0
  0
LINE
  5
17A
100
AcDbEntity
100
AcDbLine
  8
1 Body
 62
256
370
-1
  6
ByLayer
 10
254.849996884137596
 20
215.4100000000001387
 30
0.0
 11
254.849996884137596
 21
220.9100000000001955
 31
0.0
  0
LINE
  5
17B
100
AcDbEntity
100
AcDbLine
  8
1 Body
 62
256
370
-1
  6
ByLayer
 10
327.9999999999999432
 20
235.0900000000000887
 30
0.0
 11
327.9999999999999432
 21
229.5900000000000887
 31
0.0
  0
LINE
  5
17C
100
AcDbEntity
100
AcDbLine
  8
1 Body
 62
256
370
-1
  6
ByLayer
 10
320.0
 20
215.4100000000001387
 30
0.0
 11
327.9999999999999432
 21
215.4100000000001387
 31
0.0
  0
LINE
  5
17D
100
AcDbEntity
100
AcDbLine
  8
1 Body
 62
256
370
-1
  6
ByLayer
 10
100.0000000000000568
 20
334.9999999999999432
 30
0.0
 11
99.9999999999999716
 21
169.9999999999991189
 31
0.0
  0
ARC
  5
17E
100
AcDbEntity
  8
1 Body
 62
256
370
-1
  6
ByLayer
100
AcDbCircle
 10
217.4999999999998295
 20
330.0000000000000568
 30
0.0
 40
5.0
100
AcDbArc
 50
0.0
 51
90.0000000000000142
  0
ARC
  5
17F
100
AcDbEntity
  8
1 Body
 62
256
370
-1
  6
ByLayer
100
AcDbCircle
 10
217.4999999999998863
 20
174.9999999999996589
 30
0.0
 40
5.0
100
AcDbArc
 50
270.0
 51
0.0
  0
LINE
  5
180
100
AcDbEntity
100
AcDbLine
  8
1 Body
 62
256
370
-1
  6
ByLayer
 10
222.4999999999997726
 20
330.0000000000001137
 30
0.0
 11
222.4999999999998295
 21
174.9999999999996305
 31
0.0
  0
INSERT
  5
181
100
AcDbEntity
100
AcDbBlockReference
  8
1 Body
 62
256
370
-1
  6
ByLayer
  2
holes-20
 10
212.4999999999999432
 20
252.4999999999999147
 30
0.0
 41
1.0
 42
-1.0
 43
1.0
 50
90.0000000000000142
 44
1.0
 45
1.0
  0
CIRCLE
  5
182
100
AcDbEntity
100
AcDbCircle
  8
1 Body
 62
256
370
-1
  6
ByLayer
 10
162.8999999999999204
 20
222.4999999999992895
 30
0.0
 40
7.5
  0
LINE
  5
183
100
AcDbEntity
100
AcDbLine
  8
1 Body
 62
256
370
-1
  6
ByLayer
 10
110.0
 20
335.0
 30
0.0
 11
109.9999999999999432
 21
169.9999999999991758
 31
0.0
  0
INSERT
  5
184
100
AcDbEntity
100
AcDbBlockReference
  8
1 Body
 62
256
370
-1
  6
ByLayer
  2
holes-20
 10
169.9999999999998863
 20
324.9999999999996589
 30
0.0
 41
1.0
 42
-1.0
 43
1.0
 50
180.0
 44
1.0
 45
1.0
  0
INSERT
  5
185
100
AcDbEntity
100
AcDbBlockReference
  8
1 Body
 62
256
370
-1
  6
ByLayer
  2
holes-20
 10
169.9999999999998863
 20
179.9999999999997442
 30
0.0
 41
1.0
 42
-1.0
 43
1.0
 50
180.0
 44
1.0
 45
1.0
  0
LINE
  5
186
100
AcDbEntity
100
AcDbLine
  8
1 Body
 62
256
370
-1
  6
ByLayer
 10
217.4999999999998295
 20
335.0000000000000568
 30
0.0
 11
217.4999999999998295
 21
335.0000000000000568
 31
0.0
  0
LINE
  5
187
100
AcDbEntity
100
AcDbLine
  8
1 Body
 62
256
370
-1
  6
ByLayer
 10
110.0
 20
335.0
 30
0.0
 11
217.4999999999998295
 21
335.0000000000000568
 31
0.0
  0
LINE
  5
188
100
AcDbEntity
100
AcDbLine
  8
1 Body
 62
256
370
-1
  6
ByLayer
 10
109.9999999999999432
 20
169.9999999999991758
 30
0.0
 11
217.4999999999998863
 21
169.9999999999996589
 31
0.0
  0
LINE
  5
189
100
AcDbEntity
100
AcDbLine
  8
1 Body
 62
256
370
-1
  6
ByLayer
 10
-207.4999999999999432
 20
334.9999999999999432
 30
0.0
 11
100.0000000000000568
 21
335.0
 31
0.0
  0
LINE
  5
18A
100
AcDbEntity
100
AcDbLine
  8
1 Body
 62
256
370
-1
  6
ByLayer
 10
-207.499999999999801
 20
169.9999999999998863
 30
0.0
 11
99.9999999999999716
 21
169.9999999999992042
 31
0.0
  0
ARC
  5
18B
100
AcDbEntity
  8
1 Body
 62
256
370
-1
  6
ByLayer
100
AcDbCircle
 10
-342.5000000000000568
 20
111.0
 30
0.0
 40
2.5495097847613755
100
AcDbArc
 50
180.0
 51
0.0
  0
LINE
  5
18C
100
AcDbEntity
100
AcDbLine
  8
1 Body
 62
256
370
-1
  6
ByLayer
 10
-345.0495097847614261
 20
111.0
 30
0.0
 11
-345.0495097847614829
 21
148.9999999999994031
 31
0.0
  0
LINE
  5
18D
100
AcDbEntity
100
AcDbLine
  8
1 Body
 62
256
370
-1
  6
ByLayer
 10
-339.9504902152386876
 20
111.0
 30
0.0
 11
-339.9504902152387444
 21
148.9999999999994031
 31
0.0
  0
LINE
  5
18E
100
AcDbEntity
100
AcDbLine
  8
1 Body
 62
256
370
-1
  6
ByLayer
 10
254.849996884137596
 20
229.5900000000000887
 30
0.0
 11
263.0
 21
229.5900000000000887
 31
0.0
  0
LINE
  5
18F
100
AcDbEntity
100
AcDbLine
  8
1 Body
 62
256
370
-1
  6
ByLayer
 10
263.0
 20
229.5900000000000887
 30
0.0
 11
254.849996884137596
 21
229.5900000000000887
 31
0.0
  0
LINE
  5
190
100
AcDbEntity
100
AcDbLine
  8
1 Body
 62
256
370
-1
  6
ByLayer
 10
263.0
 20
235.0900000000000887
 30
0.0
 11
263.0
 21
229.5900000000000887
 31
0.0
  0
LINE
  5
191
100
AcDbEntity
100
AcDbLine
  8
1 Body
 62
256
370
-1
  6
ByLayer
 10
320.0
 20
229.5900000000000887
 30
0.0
 11
320.0
 21
235.0900000000001455
 31
0.0
  0
LINE
  5
192
100
AcDbEntity
100
AcDbLine
  8
1 Body
 62
256
370
-1
  6
ByLayer
 10
327.9999999999999432
 20
229.5900000000000887
 30
0.0
 11
320.0
 21
229.5900000000000887
 31
0.0
  0
LINE
  5
193
100
AcDbEntity
100
AcDbLine
  8
1 Body
 62
256
370
-1
  6
ByLayer
 10
327.9999999999999432
 20
220.9100000000001387
 30
0.0
 11
320.0
 21
220.9100000000001387
 31
0.0
  0
LINE
  5
194
100
AcDbEntity
100
AcDbLine
  8
1 Body
 62
256
370
-1
  6
ByLayer
 10
254.849996884137596
 20
220.9100000000001955
 30
0.0
 11
263.0
 21
220.9100000000001387
 31
0.0
  0
LINE
  5
195
100
AcDbEntity
100
AcDbLine
  8
1 Body
 62
256
370
-1
  6
ByLayer
 10
320.0
 20
220.9100000000001387
 30
0.0
 11
320.0
 21
215.4100000000001387
 31
0.0
  0
LINE
  5
196
100
AcDbEntity
100
AcDbLine
  8
1 Body
 62
256
370
-1
  6
ByLayer
 10
263.0
 20
215.4100000000001387
 30
0.0
 11
263.0
 21
220.9100000000001387
 31
0.0
  0
LINE
  5
197
100
AcDbEntity
100
AcDbLine
  8
1 Body
 62
256
370
-1
  6
ByLayer
 10
327.9999999999999432
 20
235.0900000000000887
 30
0.0
 11
320.0
 21
235.0900000000001455
 31
0.0
  0
LINE
  5
198
100
AcDbEntity
100
AcDbLine
  8
1 Body
 62
256
370
-1
  6
ByLayer
 10
327.9999999999999432
 20
215.4100000000001387
 30
0.0
 11
327.9999999999999432
 21
220.9100000000001387
 31
0.0
  0
LINE
  5
199
100
AcDbEntity
100
AcDbLine
  8
1 Body
 62
256
370
-1
  6
ByLayer
 10
263.0
 20
215.4100000000001387
 30
0.0
 11
254.849996884137596
 21
215.4100000000001387
 31
0.0
  0
LINE
  5
19A
100
AcDbEntity
100
AcDbLine
  8
1 Body
 62
256
370
-1
  6
ByLayer
 10
254.849996884137596
 20
229.5900000000000887
 30
0.0
 11
254.849996884137596
 21
235.0900000000000887
 31
0.0
  0
CIRCLE
  5
19B
100
AcDbEntity
100
AcDbCircle
  8
2 Shaft Bracket
 62
256
370
-1
  6
ByLayer
 10
10.0
 20
10.0
 30
0.0
 40
1.5
  0
CIRCLE
  5
19C
100
AcDbEntity
100
AcDbCircle
  8
1 Body
 62
256
370
-1
  6
ByLayer
 10
-10.0
 20
10.0
 30
0.0
 40
1.5
  0
CIRCLE
  5
19D
100
AcDbEntity
100
AcDbCircle
  8
2 Shaft Bracket
 62
256
370
-1
  6
ByLayer
 10
-10.0
 20
-10.0
 30
0.0
 40
1.5
  0
CIRCLE
  5
19E
100
AcDbEntity
100
AcDbCircle
  8
1 Body
 62
256
370
-1
  6
ByLayer
 10
10.0
 20
-10.0
 30
0.0
 40
1.5
  0
CIRCLE
  5
19F
100
AcDbEntity
100
AcDbCircle
  8
1 Body
 62
256
370
-1
  6
ByLayer
 10
300.0
 20
218.1599999999999966
 30
0.0
 40
1.5
  0
CIRCLE
  5
1A0
100
AcDbEntity
100
AcDbCircle
  8
1 Body
 62
256
370
-1
  6
ByLayer
 10
300.0
 20
232.3400000000000034
 30
0.0
 40
1.5
  0
CIRCLE
  5
1A1
100
AcDbEntity
100
AcDbCircle
  8
1 Body
 62
256
370
-1
  6
ByLayer
 10
268.0
 20
232.3400000000000034
 30
0.0
 40
1.5
  0
CIRCLE
  5
1A2
100
AcDbEntity
100
AcDbCircle
  8
1 Body
 62
256
370
-1
  6
ByLayer
 10
268.0
 20
218.1599999999999966
 30
0.0
 40
1.5
  0
CIRCLE
  5
1A3
100
AcDbEntity
100
AcDbCircle
  8
1 Body
 62
256
370
-1
  6
ByLayer
 10
261.9320000000000164
 20
251.1659999999999968
 30
0.0
 40
1.5
  0
CIRCLE
  5
1A4
100
AcDbEntity
100
AcDbCircle
  8
1 Body
 62
256
370
-1
  6
ByLayer
 10
324.4540000000000077
 20
251.1659999999999968
 30
0.0
 40
1.5
  0
CIRCLE
  5
1A5
100
AcDbEntity
100
AcDbCircle
  8
1 Body
 62
256
370
-1
  6
ByLayer
 10
324.4540000000000077
 20
313.2690000000000055
 30
0.0
 40
1.5
  0
CIRCLE
  5
1A6
100
AcDbEntity
100
AcDbCircle
  8
1 Body
 62
256
370
-1
  6
ByLayer
 10
261.9320000000000164
 20
313.2690000000000055
 30
0.0
 40
1.5
  0
CIRCLE
  5
1A7
100
AcDbEntity
100
AcDbCircle
  8
1 Body
 62
256
370
-1
  6
ByLayer
 10
204.4540000000000077
 20
313.2690000000000055
 30
0.0
 40
1.5
  0
CIRCLE
  5
1A8
100
AcDbEntity
100
AcDbCircle
  8
Drawings. Extruder Controller
 62
256
370
-1
  6
ByLayer
 10
194.4540000000000077
 20
313.2690000000000055
 30
0.0
 40
1.5
  0
CIRCLE
  5
1A9
100
AcDbEntity
100
AcDbCircle
  8
1 Body
 62
256
370
-1
  6
ByLayer
 10
141.9319999999999879
 20
313.2690000000000055
 30
0.0
 40
1.5
  0
CIRCLE
  5
1AA
100
AcDbEntity
100
AcDbCircle
  8
Drawings. Extruder Controller
 62
256
370
-1
  6
ByLayer
 10
131.9319999999999879
 20
313.2690000000000055
 30
0.0
 40
1.5
  0
CIRCLE
  5
1AB
100
AcDbEntity
100
AcDbCircle
  8
1 Body
 62
256
370
-1
  6
ByLayer
 10
204.4540000000000077
 20
251.1659999999999968
 30
0.0
 40
1.5
  0
CIRCLE
  5
1AC
100
AcDbEntity
100
AcDbCircle
  8
Drawings. Extruder Controller
 62
256
370
-1
  6
ByLayer
 10
194.4540000000000077
 20
251.1659999999999968
 30
0.0
 40
1.5
  0
CIRCLE
  5
1AD
100
AcDbEntity
100
AcDbCircle
  8
1 Body
 62
256
370
-1
  6
ByLayer
 10
141.9319999999999879
 20
251.1659999999999968
 30
0.0
 40
1.5
  0
CIRCLE
  5
1AE
100
AcDbEntity
100
AcDbCircle
  8
Drawings. Extruder Controller
 62
256
370
-1
  6
ByLayer
 10
131.9319999999999879
 20
251.1659999999999968
 30
0.0
 40
1.5
  0
CIRCLE
  5
1AF
100
AcDbEntity
100
AcDbCircle
  8
1 Body
 62
256
370
-1
  6
ByLayer
 10
148.0
 20
218.1599999999999966
 30
0.0
 40
1.5
  0
CIRCLE
  5
1B0
100
AcDbEntity
100
AcDbCircle
  8
1 Body
 62
256
370
-1
  6
ByLayer
 10
180.0
 20
218.1599999999999966
 30
0.0
 40
1.5
  0
CIRCLE
  5
1B1
100
AcDbEntity
100
AcDbCircle
  8
1 Body
 62
256
370
-1
  6
ByLayer
 10
180.0
 20
232.3400000000000034
 30
0.0
 40
1.5
  0
CIRCLE
  5
1B2
100
AcDbEntity
100
AcDbCircle
  8
1 Body
 62
256
370
-1
  6
ByLayer
 10
148.0
 20
232.3400000000000034
 30
0.0
 40
1.5
  0
CIRCLE
  5
1B3
100
AcDbEntity
100
AcDbCircle
  8
Drawings, Driver Mechanism
 62
256
370
-1
  6
ByLayer
 10
194.5300000000000011
 20
99.5
 30
0.0
 40
1.5
  0
CIRCLE
  5
1B4
100
AcDbEntity
100
AcDbCircle
  8
Drawings, Driver Mechanism
 62
256
370
-1
  6
ByLayer
 10
162.0300000000000011
 20
100.0
 30
0.0
 40
1.5
  0
CIRCLE
  5
1B5
100
AcDbEntity
100
AcDbCircle
  8
Drawings, Driver Mechanism
 62
256
370
-1
  6
ByLayer
 10
131.0300000000000011
 20
100.0
 30
0.0
 40
1.5
  0
CIRCLE
  5
1B6
100
AcDbEntity
100
AcDbCircle
  8
Drawings, Driver Mechanism
 62
256
370
-1
  6
ByLayer
 10
194.5300000000000011
 20
131.5
 30
0.0
 40
1.5
  0
CIRCLE
  5
1B7
100
AcDbEntity
100
AcDbCircle
  8
Drawings, Driver Mechanism
 62
256
370
-1
  6
ByLayer
 10
162.0300000000000011
 20
131.0
 30
0.0
 40
1.5
  0
CIRCLE
  5
1B8
100
AcDbEntity
100
AcDbCircle
  8
Drawings, Driver Mechanism
 62
256
370
-1
  6
ByLayer
 10
131.0300000000000011
 20
131.0
 30
0.0
 40
1.5
  0
CIRCLE
  5
1B9
100
AcDbEntity
100
AcDbCircle
  8
Drawings, Driver Mechanism
 62
256
370
-1
  6
ByLayer
 10
146.5300000000000011
 20
100.0
 30
0.0
 40
1.5
  0
CIRCLE
  5
1BA
100
AcDbEntity
100
AcDbCircle
  8
Drawings, Driver Mechanism
 62
256
370
-1
  6
ByLayer
 10
133.1069999999999993
 20
107.75
 30
0.0
 40
1.5
  0
CIRCLE
  5
1BB
100
AcDbEntity
100
AcDbCircle
  8
Drawings, Driver Mechanism
 62
256
370
-1
  6
ByLayer
 10
133.1069999999999993
 20
123.25
 30
0.0
 40
1.5
  0
CIRCLE
  5
1BC
100
AcDbEntity
100
AcDbCircle
  8
Drawings, Driver Mechanism
 62
256
370
-1
  6
ByLayer
 10
146.5300000000000011
 20
131.0
 30
0.0
 40
1.5
  0
CIRCLE
  5
1BD
100
AcDbEntity
100
AcDbCircle
  8
2 Shaft Bracket
 62
256
370
-1
  6
ByLayer
 10
189.5300000000000011
 20
111.7731213365383951
 30
0.0
 40
1.5
  0
CIRCLE
  5
1BE
100
AcDbEntity
100
AcDbCircle
  8
2 Shaft Bracket
 62
256
370
-1
  6
ByLayer
 10
189.5300000000000011
 20
119.2299998574059998
 30
0.0
 40
1.5
  0
ENDSEC
  0
SECTION
  2
OBJECTS
  0
DICTIONARY
  5
C
100
AcDbDictionary
280
0
281
1
  3
ACAD_GROUP
350
D
  3
ACAD_LAYOUT
350
1A
  3
ACAD_MLINESTYLE
350
17
  3
ACAD_PLOTSETTINGS
350
19
  3
ACAD_PLOTSTYLENAME
350
E
  3
AcDbVariableDictionary
350
1BF
  0
DICTIONARY
  5
D
100
AcDbDictionary
280
0
281
1
  0
ACDBDICTIONARYWDFLT
  5
E
100
AcDbDictionary
281
1
  3
Normal
350
F
100
AcDbDictionaryWithDefault
340
F
  0
ACDBPLACEHOLDER
  5
F
  0
DICTIONARY
  5
17
100
AcDbDictionary
280
0
281
1
  3
Standard
350
18
  0
MLINESTYLE
  5
18
100
AcDbMlineStyle
  2
STANDARD
 70
0
  3

 62
256
 51
90.0
 52
90.0
 71
2
 49
0.5
 62
256
  6
BYLAYER
 49
-0.5
 62
256
  6
BYLAYER
  0
DICTIONARY
  5
19
100
AcDbDictionary
280
0
281
1
  0
DICTIONARY
  5
1A
100
AcDbDictionary
281
1
  3
Layout1
350
1E
  3
Layout2
350
26
  3
Model
350
22
  0
LAYOUT
  5
1E
100
AcDbPlotSettings
  1

  2
C:\Program Files\AutoCAD 2002\plotters\DWF ePlot (optimized for plotting).pc3
  4

  6

 40
0.0
 41
0.0
 42
0.0
 43
0.0
 44
0.0
 45
0.0
 46
0.0
 47
0.0
 48
0.0
 49
0.0
140
0.0
141
0.0
142
1.0
143
1.0
 70
688
 72
0
 73
0
 74
5
  7

 75
16
147
1.0
148
0.0
149
0.0
100
AcDbLayout
  1
Layout1
 70
1
 71
1
 10
0.0
 20
0.0
 11
420.0
 21
297.0
 12
0.0
 22
0.0
 32
0.0
 14
100000000000000000000.0
 24
100000000000000000000.0
 34
100000000000000000000.0
 15
-100000000000000000000.0
 25
-100000000000000000000.0
 35
-100000000000000000000.0
146
0.0
 13
0.0
 23
0.0
 33
0.0
 16
1.0
 26
0.0
 36
0.0
 17
0.0
 27
1.0
 37
0.0
 76
0
330
1B
  0
LAYOUT
  5
22
100
AcDbPlotSettings
  1

  2
C:\Program Files\AutoCAD 2002\plotters\DWF ePlot (optimized for plotting).pc3
  4

  6

 40
0.0
 41
0.0
 42
0.0
 43
0.0
 44
0.0
 45
0.0
 46
0.0
 47
0.0
 48
0.0
 49
0.0
140
0.0
141
0.0
142
1.0
143
1.0
 70
1712
 72
0
 73
0
 74
0
  7

 75
0
147
1.0
148
0.0
149
0.0
100
AcDbLayout
  1
Model
 70
1
 71
0
 10
0.0
 20
0.0
 11
12.0
 21
9.0
 12
0.0
 22
0.0
 32
0.0
 14
0.0
 24
0.0
 34
0.0
 15
0.0
 25
0.0
 35
0.0
146
0.0
 13
0.0
 23
0.0
 33
0.0
 16
1.0
 26
0.0
 36
0.0
 17
0.0
 27
1.0
 37
0.0
 76
0
330
1F
  0
LAYOUT
  5
26
100
AcDbPlotSettings
  1

  2
C:\Program Files\AutoCAD 2002\plotters\DWF ePlot (optimized for plotting).pc3
  4

  6

 40
0.0
 41
0.0
 42
0.0
 43
0.0
 44
0.0
 45
0.0
 46
0.0
 47
0.0
 48
0.0
 49
0.0
140
0.0
141
0.0
142
1.0
143
1.0
 70
688
 72
0
 73
0
 74
5
  7

 75
16
147
1.0
148
0.0
149
0.0
100
AcDbLayout
  1
Layout2
 70
1
 71
2
 10
0.0
 20
0.0
 11
12.0
 21
9.0
 12
0.0
 22
0.0
 32
0.0
 14
0.0
 24
0.0
 34
0.0
 15
0.0
 25
0.0
 35
0.0
146
0.0
 13
0.0
 23
0.0
 33
0.0
 16
1.0
 26
0.0
 36
0.0
 17
0.0
 27
1.0
 37
0.0
 76
0
330
23
  0
DICTIONARY
  5
1BF
100
AcDbDictionary
281
1
  3
DIMASSOC
350
1C1
  3
HIDETEXT
350
1C0
  0
DICTIONARYVAR
  5
1C0
100
DictionaryVariables
280
0
  1
2
  0
DICTIONARYVAR
  5
1C1
100
DictionaryVariables
280
0
  1
1
  0
IMAGEDEF
  5
7F
100
AcDbRasterImageDef
 90
0
  1
/home/charles/Desktop/Screenshot.png
 10
962.0
 20
925.0
 11
1.0
 21
1.0
280
1
281
0
  0
ENDSEC
  0
EOF
