<?xml version="1.0" standalone="yes"?>

<svg width="742mm" height="282mm" viewBox="0 0 742 282" version="1.1"
xmlns="http://www.w3.org/2000/svg" style="stroke-linecap:round">
  <path d="M362.932,108.72 L350.997,108.72" style="stroke:rgb(0,0,0);stroke-width:0.1;fill:none" />
  <path d="M350.997,108.72 L344.576,141" style="stroke:rgb(0,0,0);stroke-width:0.1;fill:none" />
  <path d="M362.932,108.72 L369.353,141" style="stroke:rgb(0,0,0);stroke-width:0.1;fill:none" />
  <path d="M369.353,141 L394.129,141" style="stroke:rgb(0,0,0);stroke-width:0.1;fill:none" />
  <path d="M412.485,108.72 L400.55,108.72" style="stroke:rgb(0,0,0);stroke-width:0.1;fill:none" />
  <path d="M400.55,108.72 L394.129,141" style="stroke:rgb(0,0,0);stroke-width:0.1;fill:none" />
  <path d="M412.485,108.72 L418.906,141" style="stroke:rgb(0,0,0);stroke-width:0.1;fill:none" />
  <path d="M418.906,141 L443.682,141" style="stroke:rgb(0,0,0);stroke-width:0.1;fill:none" />
  <path d="M462.038,108.72 L450.103,108.72" style="stroke:rgb(0,0,0);stroke-width:0.1;fill:none" />
  <path d="M450.103,108.72 L443.682,141" style="stroke:rgb(0,0,0);stroke-width:0.1;fill:none" />
  <path d="M462.038,108.72 L468.459,141" style="stroke:rgb(0,0,0);stroke-width:0.1;fill:none" />
  <path d="M468.459,141 L493.235,141" style="stroke:rgb(0,0,0);stroke-width:0.1;fill:none" />
  <path d="M511.591,108.72 L499.656,108.72" style="stroke:rgb(0,0,0);stroke-width:0.1;fill:none" />
  <path d="M499.656,108.72 L493.235,141" style="stroke:rgb(0,0,0);stroke-width:0.1;fill:none" />
  <path d="M511.591,108.72 L518.012,141" style="stroke:rgb(0,0,0);stroke-width:0.1;fill:none" />
  <path d="M518.012,141 L542.788,141" style="stroke:rgb(0,0,0);stroke-width:0.1;fill:none" />
  <path d="M561.144,108.72 L549.209,108.72" style="stroke:rgb(0,0,0);stroke-width:0.1;fill:none" />
  <path d="M549.209,108.72 L542.788,141" style="stroke:rgb(0,0,0);stroke-width:0.1;fill:none" />
  <path d="M561.144,108.72 L567.565,141" style="stroke:rgb(0,0,0);stroke-width:0.1;fill:none" />
  <path d="M567.565,141 L592.341,141" style="stroke:rgb(0,0,0);stroke-width:0.1;fill:none" />
  <path d="M610.697,108.72 L598.762,108.72" style="stroke:rgb(0,0,0);stroke-width:0.1;fill:none" />
  <path d="M598.762,108.72 L592.341,141" style="stroke:rgb(0,0,0);stroke-width:0.1;fill:none" />
  <path d="M610.697,108.72 L617.118,141" style="stroke:rgb(0,0,0);stroke-width:0.1;fill:none" />
  <path d="M617.118,141 L641.894,141" style="stroke:rgb(0,0,0);stroke-width:0.1;fill:none" />
  <path d="M660.25,108.72 L648.315,108.72" style="stroke:rgb(0,0,0);stroke-width:0.1;fill:none" />
  <path d="M648.315,108.72 L641.894,141" style="stroke:rgb(0,0,0);stroke-width:0.1;fill:none" />
  <path d="M660.25,108.72 L666.671,141" style="stroke:rgb(0,0,0);stroke-width:0.1;fill:none" />
  <path d="M666.671,141 L691.447,141" style="stroke:rgb(0,0,0);stroke-width:0.1;fill:none" />
  <path d="M709.803,108.72 L697.868,108.72" style="stroke:rgb(0,0,0);stroke-width:0.1;fill:none" />
  <path d="M697.868,108.72 L691.447,141" style="stroke:rgb(0,0,0);stroke-width:0.1;fill:none" />
  <path d="M709.803,108.72 L716.224,141" style="stroke:rgb(0,0,0);stroke-width:0.1;fill:none" />
  <path d="M716.224,141 L741,141" style="stroke:rgb(0,0,0);stroke-width:0.1;fill:none" />
  <path d="M329.8,141 L344.576,141" style="stroke:rgb(0,0,0);stroke-width:0.1;fill:none" />
  <path d="M741,141 L741,241" style="stroke:rgb(0,0,0);stroke-width:0.1;fill:none" />
  <path d="M362.932,273.28 L350.997,273.28" style="stroke:rgb(0,0,0);stroke-width:0.1;fill:none" />
  <path d="M350.997,273.28 L344.576,241" style="stroke:rgb(0,0,0);stroke-width:0.1;fill:none" />
  <path d="M362.932,273.28 L369.353,241" style="stroke:rgb(0,0,0);stroke-width:0.1;fill:none" />
  <path d="M369.353,241 L394.129,241" style="stroke:rgb(0,0,0);stroke-width:0.1;fill:none" />
  <path d="M412.485,273.28 L400.55,273.28" style="stroke:rgb(0,0,0);stroke-width:0.1;fill:none" />
  <path d="M400.55,273.28 L394.129,241" style="stroke:rgb(0,0,0);stroke-width:0.1;fill:none" />
  <path d="M412.485,273.28 L418.906,241" style="stroke:rgb(0,0,0);stroke-width:0.1;fill:none" />
  <path d="M418.906,241 L443.682,241" style="stroke:rgb(0,0,0);stroke-width:0.1;fill:none" />
  <path d="M462.038,273.28 L450.103,273.28" style="stroke:rgb(0,0,0);stroke-width:0.1;fill:none" />
  <path d="M450.103,273.28 L443.682,241" style="stroke:rgb(0,0,0);stroke-width:0.1;fill:none" />
  <path d="M462.038,273.28 L468.459,241" style="stroke:rgb(0,0,0);stroke-width:0.1;fill:none" />
  <path d="M468.459,241 L493.235,241" style="stroke:rgb(0,0,0);stroke-width:0.1;fill:none" />
  <path d="M511.591,273.28 L499.656,273.28" style="stroke:rgb(0,0,0);stroke-width:0.1;fill:none" />
  <path d="M499.656,273.28 L493.235,241" style="stroke:rgb(0,0,0);stroke-width:0.1;fill:none" />
  <path d="M511.591,273.28 L518.012,241" style="stroke:rgb(0,0,0);stroke-width:0.1;fill:none" />
  <path d="M518.012,241 L542.788,241" style="stroke:rgb(0,0,0);stroke-width:0.1;fill:none" />
  <path d="M561.144,273.28 L549.209,273.28" style="stroke:rgb(0,0,0);stroke-width:0.1;fill:none" />
  <path d="M549.209,273.28 L542.788,241" style="stroke:rgb(0,0,0);stroke-width:0.1;fill:none" />
  <path d="M561.144,273.28 L567.565,241" style="stroke:rgb(0,0,0);stroke-width:0.1;fill:none" />
  <path d="M567.565,241 L592.341,241" style="stroke:rgb(0,0,0);stroke-width:0.1;fill:none" />
  <path d="M610.697,273.28 L598.762,273.28" style="stroke:rgb(0,0,0);stroke-width:0.1;fill:none" />
  <path d="M598.762,273.28 L592.341,241" style="stroke:rgb(0,0,0);stroke-width:0.1;fill:none" />
  <path d="M610.697,273.28 L617.118,241" style="stroke:rgb(0,0,0);stroke-width:0.1;fill:none" />
  <path d="M617.118,241 L641.894,241" style="stroke:rgb(0,0,0);stroke-width:0.1;fill:none" />
  <path d="M660.25,273.28 L648.315,273.28" style="stroke:rgb(0,0,0);stroke-width:0.1;fill:none" />
  <path d="M648.315,273.28 L641.894,241" style="stroke:rgb(0,0,0);stroke-width:0.1;fill:none" />
  <path d="M660.25,273.28 L666.671,241" style="stroke:rgb(0,0,0);stroke-width:0.1;fill:none" />
  <path d="M666.671,241 L691.447,241" style="stroke:rgb(0,0,0);stroke-width:0.1;fill:none" />
  <path d="M709.803,273.28 L697.868,273.28" style="stroke:rgb(0,0,0);stroke-width:0.1;fill:none" />
  <path d="M697.868,273.28 L691.447,241" style="stroke:rgb(0,0,0);stroke-width:0.1;fill:none" />
  <path d="M709.803,273.28 L716.224,241" style="stroke:rgb(0,0,0);stroke-width:0.1;fill:none" />
  <path d="M716.224,241 L741,241" style="stroke:rgb(0,0,0);stroke-width:0.1;fill:none" />
  <path d="M329.8,241 L344.576,241" style="stroke:rgb(0,0,0);stroke-width:0.1;fill:none" />
  <path d="M329.8,141 L329.8,241" style="stroke:rgb(0,0,0);stroke-width:0.1;fill:none" />
  <ellipse cx="351" cy="171" rx="1.4" ry="1.4" style="stroke:rgb(0,0,0);stroke-width:0.1;fill:none;"/>
  <path d="M344.576,141 L344.576,241" style="stroke:rgb(255,0,255);stroke-width:0.1;fill:none" />
  <path d="M369.353,141 L369.353,241" style="stroke:rgb(255,0,255);stroke-width:0.1;fill:none" />
  <path d="M394.129,141 L394.129,241" style="stroke:rgb(255,0,255);stroke-width:0.1;fill:none" />
  <path d="M418.906,141 L418.906,241" style="stroke:rgb(255,0,255);stroke-width:0.1;fill:none" />
  <path d="M443.682,141 L443.682,241" style="stroke:rgb(255,0,255);stroke-width:0.1;fill:none" />
  <path d="M468.459,141 L468.459,241" style="stroke:rgb(255,0,255);stroke-width:0.1;fill:none" />
  <path d="M493.235,141 L493.235,241" style="stroke:rgb(255,0,255);stroke-width:0.1;fill:none" />
  <path d="M518.012,141 L518.012,241" style="stroke:rgb(255,0,255);stroke-width:0.1;fill:none" />
  <path d="M542.788,141 L542.788,241" style="stroke:rgb(255,0,255);stroke-width:0.1;fill:none" />
  <path d="M567.565,141 L567.565,241" style="stroke:rgb(255,0,255);stroke-width:0.1;fill:none" />
  <path d="M592.341,141 L592.341,241" style="stroke:rgb(255,0,255);stroke-width:0.1;fill:none" />
  <path d="M617.118,141 L617.118,241" style="stroke:rgb(255,0,255);stroke-width:0.1;fill:none" />
  <path d="M641.894,141 L641.894,241" style="stroke:rgb(255,0,255);stroke-width:0.1;fill:none" />
  <path d="M666.671,141 L666.671,241" style="stroke:rgb(255,0,255);stroke-width:0.1;fill:none" />
  <path d="M691.447,141 L691.447,241" style="stroke:rgb(255,0,255);stroke-width:0.1;fill:none" />
  <path d="M716.224,141 L716.224,241" style="stroke:rgb(255,0,255);stroke-width:0.1;fill:none" />
  <path d="M141,82.5 L141,77.5" style="stroke:rgb(0,0,0);stroke-width:0.1;fill:none" />
  <path d="M163.387,86.953 L165.3,82.3336" style="stroke:rgb(0,0,0);stroke-width:0.1;fill:none" />
  <path d="M182.366,99.6343 L185.901,96.0987" style="stroke:rgb(0,0,0);stroke-width:0.1;fill:none" />
  <path d="M195.047,118.613 L199.666,116.7" style="stroke:rgb(0,0,0);stroke-width:0.1;fill:none" />
  <path d="M199.5,141 L204.5,141" style="stroke:rgb(0,0,0);stroke-width:0.1;fill:none" />
  <path d="M195.047,163.387 L199.666,165.3" style="stroke:rgb(0,0,0);stroke-width:0.1;fill:none" />
  <path d="M182.366,182.366 L185.901,185.901" style="stroke:rgb(0,0,0);stroke-width:0.1;fill:none" />
  <path d="M163.387,195.047 L165.3,199.666" style="stroke:rgb(0,0,0);stroke-width:0.1;fill:none" />
  <path d="M141,199.5 L141,204.5" style="stroke:rgb(0,0,0);stroke-width:0.1;fill:none" />
  <path d="M118.613,195.047 L116.7,199.666" style="stroke:rgb(0,0,0);stroke-width:0.1;fill:none" />
  <path d="M86.953,118.613 L82.3336,116.7" style="stroke:rgb(0,0,0);stroke-width:0.1;fill:none" />
  <path d="M99.6343,99.6343 L96.0987,96.0987" style="stroke:rgb(0,0,0);stroke-width:0.1;fill:none" />
  <path d="M118.613,86.953 L116.7,82.3336" style="stroke:rgb(0,0,0);stroke-width:0.1;fill:none" />
  <path d="M82.5,141 L77.5,141" style="stroke:rgb(0,0,0);stroke-width:0.1;fill:none" />
  <path d="M86.953,163.387 L82.3336,165.3" style="stroke:rgb(0,0,0);stroke-width:0.1;fill:none" />
  <path d="M99.6343,182.366 L96.0987,185.901" style="stroke:rgb(0,0,0);stroke-width:0.1;fill:none" />
  <path d="M199.5,141 A58.5,58.5 0 0,0 195.047,118.613 " style="stroke:rgb(0,0,0);stroke-width:0.1;fill:none" />
  <path d="M182.366,99.6343 A58.5,58.5 0 0,0 163.387,86.953 " style="stroke:rgb(0,0,0);stroke-width:0.1;fill:none" />
  <path d="M141,82.5 A58.5,58.5 0 0,0 118.613,86.953 " style="stroke:rgb(0,0,0);stroke-width:0.1;fill:none" />
  <path d="M99.6343,99.6343 A58.5,58.5 0 0,0 86.953,118.613 " style="stroke:rgb(0,0,0);stroke-width:0.1;fill:none" />
  <path d="M82.5,141 A58.5,58.5 0 0,0 86.953,163.387 " style="stroke:rgb(0,0,0);stroke-width:0.1;fill:none" />
  <path d="M99.6343,182.366 A58.5,58.5 0 0,0 118.613,195.047 " style="stroke:rgb(0,0,0);stroke-width:0.1;fill:none" />
  <path d="M141,199.5 A58.5,58.5 0 0,0 163.387,195.047 " style="stroke:rgb(0,0,0);stroke-width:0.1;fill:none" />
  <path d="M182.366,182.366 A58.5,58.5 0 0,0 195.047,163.387 " style="stroke:rgb(0,0,0);stroke-width:0.1;fill:none" />
  <path d="M185.901,96.0987 A63.5,63.5 0 0,0 165.3,82.3336 " style="stroke:rgb(0,0,0);stroke-width:0.1;fill:none" />
  <path d="M141,77.5 A63.5,63.5 0 0,0 116.7,82.3336 " style="stroke:rgb(0,0,0);stroke-width:0.1;fill:none" />
  <path d="M96.0987,96.0987 A63.5,63.5 0 0,0 82.3336,116.7 " style="stroke:rgb(0,0,0);stroke-width:0.1;fill:none" />
  <path d="M77.5,141 A63.5,63.5 0 0,0 82.3336,165.3 " style="stroke:rgb(0,0,0);stroke-width:0.1;fill:none" />
  <path d="M96.0987,185.901 A63.5,63.5 0 0,0 116.7,199.666 " style="stroke:rgb(0,0,0);stroke-width:0.1;fill:none" />
  <path d="M141,204.5 A63.5,63.5 0 0,0 165.3,199.666 " style="stroke:rgb(0,0,0);stroke-width:0.1;fill:none" />
  <path d="M185.901,185.901 A63.5,63.5 0 0,0 199.666,165.3 " style="stroke:rgb(0,0,0);stroke-width:0.1;fill:none" />
  <path d="M204.5,141 A63.5,63.5 0 0,0 199.666,116.7 " style="stroke:rgb(0,0,0);stroke-width:0.1;fill:none" />
  <ellipse cx="141" cy="141" rx="140" ry="140" style="stroke:rgb(0,0,0);stroke-width:0.1;fill:none;"/>
  <path d="M141,96 L141,91" style="stroke:rgb(0,0,0);stroke-width:0.1;fill:none" />
  <path d="M158.221,99.4254 L160.134,94.806" style="stroke:rgb(0,0,0);stroke-width:0.1;fill:none" />
  <path d="M123.779,99.4254 L121.866,94.806" style="stroke:rgb(0,0,0);stroke-width:0.1;fill:none" />
  <path d="M109.18,109.18 L105.645,105.645" style="stroke:rgb(0,0,0);stroke-width:0.1;fill:none" />
  <path d="M99.4254,123.779 L94.806,121.866" style="stroke:rgb(0,0,0);stroke-width:0.1;fill:none" />
  <path d="M96,141 L91,141" style="stroke:rgb(0,0,0);stroke-width:0.1;fill:none" />
  <path d="M99.4254,158.221 L94.806,160.134" style="stroke:rgb(0,0,0);stroke-width:0.1;fill:none" />
  <path d="M109.18,172.82 L105.645,176.355" style="stroke:rgb(0,0,0);stroke-width:0.1;fill:none" />
  <path d="M123.779,182.575 L121.866,187.194" style="stroke:rgb(0,0,0);stroke-width:0.1;fill:none" />
  <path d="M141,186 L141,191" style="stroke:rgb(0,0,0);stroke-width:0.1;fill:none" />
  <path d="M158.221,182.575 L160.134,187.194" style="stroke:rgb(0,0,0);stroke-width:0.1;fill:none" />
  <path d="M172.82,172.82 L176.355,176.355" style="stroke:rgb(0,0,0);stroke-width:0.1;fill:none" />
  <path d="M182.575,158.221 L187.194,160.134" style="stroke:rgb(0,0,0);stroke-width:0.1;fill:none" />
  <path d="M186,141 L191,141" style="stroke:rgb(0,0,0);stroke-width:0.1;fill:none" />
  <path d="M182.575,123.779 L187.194,121.866" style="stroke:rgb(0,0,0);stroke-width:0.1;fill:none" />
  <path d="M172.82,109.18 L176.355,105.645" style="stroke:rgb(0,0,0);stroke-width:0.1;fill:none" />
  <path d="M191,141 A50,50 0 0,0 187.194,121.866 " style="stroke:rgb(0,0,0);stroke-width:0.1;fill:none" />
  <path d="M186,141 A45,45 0 0,0 182.575,123.779 " style="stroke:rgb(0,0,0);stroke-width:0.1;fill:none" />
  <path d="M176.355,105.645 A50,50 0 0,0 160.134,94.806 " style="stroke:rgb(0,0,0);stroke-width:0.1;fill:none" />
  <path d="M172.82,109.18 A45,45 0 0,0 158.221,99.4254 " style="stroke:rgb(0,0,0);stroke-width:0.1;fill:none" />
  <path d="M141,91 A50,50 0 0,0 121.866,94.806 " style="stroke:rgb(0,0,0);stroke-width:0.1;fill:none" />
  <path d="M141,96 A45,45 0 0,0 123.779,99.4254 " style="stroke:rgb(0,0,0);stroke-width:0.1;fill:none" />
  <path d="M105.645,105.645 A50,50 0 0,0 94.806,121.866 " style="stroke:rgb(0,0,0);stroke-width:0.1;fill:none" />
  <path d="M109.18,109.18 A45,45 0 0,0 99.4254,123.779 " style="stroke:rgb(0,0,0);stroke-width:0.1;fill:none" />
  <path d="M91,141 A50,50 0 0,0 94.806,160.134 " style="stroke:rgb(0,0,0);stroke-width:0.1;fill:none" />
  <path d="M96,141 A45,45 0 0,0 99.4254,158.221 " style="stroke:rgb(0,0,0);stroke-width:0.1;fill:none" />
  <path d="M105.645,176.355 A50,50 0 0,0 121.866,187.194 " style="stroke:rgb(0,0,0);stroke-width:0.1;fill:none" />
  <path d="M109.18,172.82 A45,45 0 0,0 123.779,182.575 " style="stroke:rgb(0,0,0);stroke-width:0.1;fill:none" />
  <path d="M141,186 A45,45 0 0,0 158.221,182.575 " style="stroke:rgb(0,0,0);stroke-width:0.1;fill:none" />
  <path d="M172.82,172.82 A45,45 0 0,0 182.575,158.221 " style="stroke:rgb(0,0,0);stroke-width:0.1;fill:none" />
  <path d="M141,191 A50,50 0 0,0 160.134,187.194 " style="stroke:rgb(0,0,0);stroke-width:0.1;fill:none" />
  <path d="M176.355,176.355 A50,50 0 0,0 187.194,160.134 " style="stroke:rgb(0,0,0);stroke-width:0.1;fill:none" />
  <ellipse cx="141" cy="141" rx="4" ry="4" style="stroke:rgb(0,0,0);stroke-width:0.1;fill:none;"/>
</svg>
