<?xml version="1.0" standalone="yes"?>

<svg width="732mm" height="265mm" viewBox="0 0 732 265" version="1.1"
xmlns="http://www.w3.org/2000/svg" style="stroke-linecap:round">
  <path d="M352.932,99.7201 L340.997,99.7201" style="stroke:rgb(0,0,0);stroke-width:0.1;fill:none" />
  <path d="M340.997,99.7201 L334.576,132" style="stroke:rgb(0,0,0);stroke-width:0.1;fill:none" />
  <path d="M352.932,99.7201 L359.353,132" style="stroke:rgb(0,0,0);stroke-width:0.1;fill:none" />
  <path d="M359.353,132 L384.129,132" style="stroke:rgb(0,0,0);stroke-width:0.1;fill:none" />
  <path d="M402.485,99.7201 L390.55,99.7201" style="stroke:rgb(0,0,0);stroke-width:0.1;fill:none" />
  <path d="M390.55,99.7201 L384.129,132" style="stroke:rgb(0,0,0);stroke-width:0.1;fill:none" />
  <path d="M402.485,99.7201 L408.906,132" style="stroke:rgb(0,0,0);stroke-width:0.1;fill:none" />
  <path d="M408.906,132 L433.682,132" style="stroke:rgb(0,0,0);stroke-width:0.1;fill:none" />
  <path d="M452.038,99.7201 L440.103,99.7201" style="stroke:rgb(0,0,0);stroke-width:0.1;fill:none" />
  <path d="M440.103,99.7201 L433.682,132" style="stroke:rgb(0,0,0);stroke-width:0.1;fill:none" />
  <path d="M452.038,99.7201 L458.459,132" style="stroke:rgb(0,0,0);stroke-width:0.1;fill:none" />
  <path d="M458.459,132 L483.235,132" style="stroke:rgb(0,0,0);stroke-width:0.1;fill:none" />
  <path d="M501.591,99.7201 L489.656,99.7201" style="stroke:rgb(0,0,0);stroke-width:0.1;fill:none" />
  <path d="M489.656,99.7201 L483.235,132" style="stroke:rgb(0,0,0);stroke-width:0.1;fill:none" />
  <path d="M501.591,99.7201 L508.012,132" style="stroke:rgb(0,0,0);stroke-width:0.1;fill:none" />
  <path d="M508.012,132 L532.788,132" style="stroke:rgb(0,0,0);stroke-width:0.1;fill:none" />
  <path d="M551.144,99.7201 L539.209,99.7201" style="stroke:rgb(0,0,0);stroke-width:0.1;fill:none" />
  <path d="M539.209,99.7201 L532.788,132" style="stroke:rgb(0,0,0);stroke-width:0.1;fill:none" />
  <path d="M551.144,99.7201 L557.565,132" style="stroke:rgb(0,0,0);stroke-width:0.1;fill:none" />
  <path d="M557.565,132 L582.341,132" style="stroke:rgb(0,0,0);stroke-width:0.1;fill:none" />
  <path d="M600.697,99.7201 L588.762,99.7201" style="stroke:rgb(0,0,0);stroke-width:0.1;fill:none" />
  <path d="M588.762,99.7201 L582.341,132" style="stroke:rgb(0,0,0);stroke-width:0.1;fill:none" />
  <path d="M600.697,99.7201 L607.118,132" style="stroke:rgb(0,0,0);stroke-width:0.1;fill:none" />
  <path d="M607.118,132 L631.894,132" style="stroke:rgb(0,0,0);stroke-width:0.1;fill:none" />
  <path d="M650.25,99.7201 L638.315,99.7201" style="stroke:rgb(0,0,0);stroke-width:0.1;fill:none" />
  <path d="M638.315,99.7201 L631.894,132" style="stroke:rgb(0,0,0);stroke-width:0.1;fill:none" />
  <path d="M650.25,99.7201 L656.671,132" style="stroke:rgb(0,0,0);stroke-width:0.1;fill:none" />
  <path d="M656.671,132 L681.447,132" style="stroke:rgb(0,0,0);stroke-width:0.1;fill:none" />
  <path d="M699.803,99.7201 L687.868,99.7201" style="stroke:rgb(0,0,0);stroke-width:0.1;fill:none" />
  <path d="M687.868,99.7201 L681.447,132" style="stroke:rgb(0,0,0);stroke-width:0.1;fill:none" />
  <path d="M699.803,99.7201 L706.224,132" style="stroke:rgb(0,0,0);stroke-width:0.1;fill:none" />
  <path d="M706.224,132 L731,132" style="stroke:rgb(0,0,0);stroke-width:0.1;fill:none" />
  <path d="M319.8,132 L334.576,132" style="stroke:rgb(0,0,0);stroke-width:0.1;fill:none" />
  <path d="M731,132 L731,232" style="stroke:rgb(0,0,0);stroke-width:0.1;fill:none" />
  <path d="M352.932,264.28 L340.997,264.28" style="stroke:rgb(0,0,0);stroke-width:0.1;fill:none" />
  <path d="M340.997,264.28 L334.576,232" style="stroke:rgb(0,0,0);stroke-width:0.1;fill:none" />
  <path d="M352.932,264.28 L359.353,232" style="stroke:rgb(0,0,0);stroke-width:0.1;fill:none" />
  <path d="M359.353,232 L384.129,232" style="stroke:rgb(0,0,0);stroke-width:0.1;fill:none" />
  <path d="M402.485,264.28 L390.55,264.28" style="stroke:rgb(0,0,0);stroke-width:0.1;fill:none" />
  <path d="M390.55,264.28 L384.129,232" style="stroke:rgb(0,0,0);stroke-width:0.1;fill:none" />
  <path d="M402.485,264.28 L408.906,232" style="stroke:rgb(0,0,0);stroke-width:0.1;fill:none" />
  <path d="M408.906,232 L433.682,232" style="stroke:rgb(0,0,0);stroke-width:0.1;fill:none" />
  <path d="M452.038,264.28 L440.103,264.28" style="stroke:rgb(0,0,0);stroke-width:0.1;fill:none" />
  <path d="M440.103,264.28 L433.682,232" style="stroke:rgb(0,0,0);stroke-width:0.1;fill:none" />
  <path d="M452.038,264.28 L458.459,232" style="stroke:rgb(0,0,0);stroke-width:0.1;fill:none" />
  <path d="M458.459,232 L483.235,232" style="stroke:rgb(0,0,0);stroke-width:0.1;fill:none" />
  <path d="M501.591,264.28 L489.656,264.28" style="stroke:rgb(0,0,0);stroke-width:0.1;fill:none" />
  <path d="M489.656,264.28 L483.235,232" style="stroke:rgb(0,0,0);stroke-width:0.1;fill:none" />
  <path d="M501.591,264.28 L508.012,232" style="stroke:rgb(0,0,0);stroke-width:0.1;fill:none" />
  <path d="M508.012,232 L532.788,232" style="stroke:rgb(0,0,0);stroke-width:0.1;fill:none" />
  <path d="M551.144,264.28 L539.209,264.28" style="stroke:rgb(0,0,0);stroke-width:0.1;fill:none" />
  <path d="M539.209,264.28 L532.788,232" style="stroke:rgb(0,0,0);stroke-width:0.1;fill:none" />
  <path d="M551.144,264.28 L557.565,232" style="stroke:rgb(0,0,0);stroke-width:0.1;fill:none" />
  <path d="M557.565,232 L582.341,232" style="stroke:rgb(0,0,0);stroke-width:0.1;fill:none" />
  <path d="M600.697,264.28 L588.762,264.28" style="stroke:rgb(0,0,0);stroke-width:0.1;fill:none" />
  <path d="M588.762,264.28 L582.341,232" style="stroke:rgb(0,0,0);stroke-width:0.1;fill:none" />
  <path d="M600.697,264.28 L607.118,232" style="stroke:rgb(0,0,0);stroke-width:0.1;fill:none" />
  <path d="M607.118,232 L631.894,232" style="stroke:rgb(0,0,0);stroke-width:0.1;fill:none" />
  <path d="M650.25,264.28 L638.315,264.28" style="stroke:rgb(0,0,0);stroke-width:0.1;fill:none" />
  <path d="M638.315,264.28 L631.894,232" style="stroke:rgb(0,0,0);stroke-width:0.1;fill:none" />
  <path d="M650.25,264.28 L656.671,232" style="stroke:rgb(0,0,0);stroke-width:0.1;fill:none" />
  <path d="M656.671,232 L681.447,232" style="stroke:rgb(0,0,0);stroke-width:0.1;fill:none" />
  <path d="M699.803,264.28 L687.868,264.28" style="stroke:rgb(0,0,0);stroke-width:0.1;fill:none" />
  <path d="M687.868,264.28 L681.447,232" style="stroke:rgb(0,0,0);stroke-width:0.1;fill:none" />
  <path d="M699.803,264.28 L706.224,232" style="stroke:rgb(0,0,0);stroke-width:0.1;fill:none" />
  <path d="M706.224,232 L731,232" style="stroke:rgb(0,0,0);stroke-width:0.1;fill:none" />
  <path d="M319.8,232 L334.576,232" style="stroke:rgb(0,0,0);stroke-width:0.1;fill:none" />
  <path d="M319.8,132 L319.8,232" style="stroke:rgb(0,0,0);stroke-width:0.1;fill:none" />
  <ellipse cx="341" cy="162" rx="1.4" ry="1.4" style="stroke:rgb(0,0,0);stroke-width:0.1;fill:none;"/>
  <path d="M334.576,132 L334.576,232" style="stroke:rgb(255,0,255);stroke-width:0.1;fill:none" />
  <path d="M359.353,132 L359.353,232" style="stroke:rgb(255,0,255);stroke-width:0.1;fill:none" />
  <path d="M384.129,132 L384.129,232" style="stroke:rgb(255,0,255);stroke-width:0.1;fill:none" />
  <path d="M408.906,132 L408.906,232" style="stroke:rgb(255,0,255);stroke-width:0.1;fill:none" />
  <path d="M433.682,132 L433.682,232" style="stroke:rgb(255,0,255);stroke-width:0.1;fill:none" />
  <path d="M458.459,132 L458.459,232" style="stroke:rgb(255,0,255);stroke-width:0.1;fill:none" />
  <path d="M483.235,132 L483.235,232" style="stroke:rgb(255,0,255);stroke-width:0.1;fill:none" />
  <path d="M508.012,132 L508.012,232" style="stroke:rgb(255,0,255);stroke-width:0.1;fill:none" />
  <path d="M532.788,132 L532.788,232" style="stroke:rgb(255,0,255);stroke-width:0.1;fill:none" />
  <path d="M557.565,132 L557.565,232" style="stroke:rgb(255,0,255);stroke-width:0.1;fill:none" />
  <path d="M582.341,132 L582.341,232" style="stroke:rgb(255,0,255);stroke-width:0.1;fill:none" />
  <path d="M607.118,132 L607.118,232" style="stroke:rgb(255,0,255);stroke-width:0.1;fill:none" />
  <path d="M631.894,132 L631.894,232" style="stroke:rgb(255,0,255);stroke-width:0.1;fill:none" />
  <path d="M656.671,132 L656.671,232" style="stroke:rgb(255,0,255);stroke-width:0.1;fill:none" />
  <path d="M681.447,132 L681.447,232" style="stroke:rgb(255,0,255);stroke-width:0.1;fill:none" />
  <path d="M706.224,132 L706.224,232" style="stroke:rgb(255,0,255);stroke-width:0.1;fill:none" />
  <path d="M131,73.5 L131,68.5" style="stroke:rgb(0,0,0);stroke-width:0.1;fill:none" />
  <path d="M153.387,77.953 L155.3,73.3336" style="stroke:rgb(0,0,0);stroke-width:0.1;fill:none" />
  <path d="M172.366,90.6343 L175.901,87.0987" style="stroke:rgb(0,0,0);stroke-width:0.1;fill:none" />
  <path d="M185.047,109.613 L189.666,107.7" style="stroke:rgb(0,0,0);stroke-width:0.1;fill:none" />
  <path d="M189.5,132 L194.5,132" style="stroke:rgb(0,0,0);stroke-width:0.1;fill:none" />
  <path d="M185.047,154.387 L189.666,156.3" style="stroke:rgb(0,0,0);stroke-width:0.1;fill:none" />
  <path d="M172.366,173.366 L175.901,176.901" style="stroke:rgb(0,0,0);stroke-width:0.1;fill:none" />
  <path d="M153.387,186.047 L155.3,190.666" style="stroke:rgb(0,0,0);stroke-width:0.1;fill:none" />
  <path d="M131,190.5 L131,195.5" style="stroke:rgb(0,0,0);stroke-width:0.1;fill:none" />
  <path d="M108.613,186.047 L106.7,190.666" style="stroke:rgb(0,0,0);stroke-width:0.1;fill:none" />
  <path d="M76.953,109.613 L72.3336,107.7" style="stroke:rgb(0,0,0);stroke-width:0.1;fill:none" />
  <path d="M89.6343,90.6343 L86.0987,87.0987" style="stroke:rgb(0,0,0);stroke-width:0.1;fill:none" />
  <path d="M108.613,77.953 L106.7,73.3336" style="stroke:rgb(0,0,0);stroke-width:0.1;fill:none" />
  <path d="M72.5,132 L67.5,132" style="stroke:rgb(0,0,0);stroke-width:0.1;fill:none" />
  <path d="M76.953,154.387 L72.3336,156.3" style="stroke:rgb(0,0,0);stroke-width:0.1;fill:none" />
  <path d="M89.6343,173.366 L86.0987,176.901" style="stroke:rgb(0,0,0);stroke-width:0.1;fill:none" />
  <path d="M189.5,132 A58.5,58.5 0 0,0 185.047,109.613 " style="stroke:rgb(0,0,0);stroke-width:0.1;fill:none" />
  <path d="M172.366,90.6343 A58.5,58.5 0 0,0 153.387,77.953 " style="stroke:rgb(0,0,0);stroke-width:0.1;fill:none" />
  <path d="M131,73.5 A58.5,58.5 0 0,0 108.613,77.953 " style="stroke:rgb(0,0,0);stroke-width:0.1;fill:none" />
  <path d="M89.6343,90.6343 A58.5,58.5 0 0,0 76.953,109.613 " style="stroke:rgb(0,0,0);stroke-width:0.1;fill:none" />
  <path d="M72.5,132 A58.5,58.5 0 0,0 76.953,154.387 " style="stroke:rgb(0,0,0);stroke-width:0.1;fill:none" />
  <path d="M89.6343,173.366 A58.5,58.5 0 0,0 108.613,186.047 " style="stroke:rgb(0,0,0);stroke-width:0.1;fill:none" />
  <path d="M131,190.5 A58.5,58.5 0 0,0 153.387,186.047 " style="stroke:rgb(0,0,0);stroke-width:0.1;fill:none" />
  <path d="M172.366,173.366 A58.5,58.5 0 0,0 185.047,154.387 " style="stroke:rgb(0,0,0);stroke-width:0.1;fill:none" />
  <path d="M175.901,87.0987 A63.5,63.5 0 0,0 155.3,73.3336 " style="stroke:rgb(0,0,0);stroke-width:0.1;fill:none" />
  <path d="M131,68.5 A63.5,63.5 0 0,0 106.7,73.3336 " style="stroke:rgb(0,0,0);stroke-width:0.1;fill:none" />
  <path d="M86.0987,87.0987 A63.5,63.5 0 0,0 72.3336,107.7 " style="stroke:rgb(0,0,0);stroke-width:0.1;fill:none" />
  <path d="M67.5,132 A63.5,63.5 0 0,0 72.3336,156.3 " style="stroke:rgb(0,0,0);stroke-width:0.1;fill:none" />
  <path d="M86.0987,176.901 A63.5,63.5 0 0,0 106.7,190.666 " style="stroke:rgb(0,0,0);stroke-width:0.1;fill:none" />
  <path d="M131,195.5 A63.5,63.5 0 0,0 155.3,190.666 " style="stroke:rgb(0,0,0);stroke-width:0.1;fill:none" />
  <path d="M175.901,176.901 A63.5,63.5 0 0,0 189.666,156.3 " style="stroke:rgb(0,0,0);stroke-width:0.1;fill:none" />
  <path d="M194.5,132 A63.5,63.5 0 0,0 189.666,107.7 " style="stroke:rgb(0,0,0);stroke-width:0.1;fill:none" />
  <path d="M131,87 L131,82" style="stroke:rgb(0,0,0);stroke-width:0.1;fill:none" />
  <path d="M148.221,90.4254 L150.134,85.806" style="stroke:rgb(0,0,0);stroke-width:0.1;fill:none" />
  <path d="M113.779,90.4254 L111.866,85.806" style="stroke:rgb(0,0,0);stroke-width:0.1;fill:none" />
  <path d="M99.1802,100.18 L95.6447,96.6447" style="stroke:rgb(0,0,0);stroke-width:0.1;fill:none" />
  <path d="M89.4254,114.779 L84.806,112.866" style="stroke:rgb(0,0,0);stroke-width:0.1;fill:none" />
  <path d="M86,132 L81,132" style="stroke:rgb(0,0,0);stroke-width:0.1;fill:none" />
  <path d="M89.4254,149.221 L84.806,151.134" style="stroke:rgb(0,0,0);stroke-width:0.1;fill:none" />
  <path d="M99.1802,163.82 L95.6447,167.355" style="stroke:rgb(0,0,0);stroke-width:0.1;fill:none" />
  <path d="M113.779,173.575 L111.866,178.194" style="stroke:rgb(0,0,0);stroke-width:0.1;fill:none" />
  <path d="M131,177 L131,182" style="stroke:rgb(0,0,0);stroke-width:0.1;fill:none" />
  <path d="M148.221,173.575 L150.134,178.194" style="stroke:rgb(0,0,0);stroke-width:0.1;fill:none" />
  <path d="M162.82,163.82 L166.355,167.355" style="stroke:rgb(0,0,0);stroke-width:0.1;fill:none" />
  <path d="M172.575,149.221 L177.194,151.134" style="stroke:rgb(0,0,0);stroke-width:0.1;fill:none" />
  <path d="M176,132 L181,132" style="stroke:rgb(0,0,0);stroke-width:0.1;fill:none" />
  <path d="M172.575,114.779 L177.194,112.866" style="stroke:rgb(0,0,0);stroke-width:0.1;fill:none" />
  <path d="M162.82,100.18 L166.355,96.6447" style="stroke:rgb(0,0,0);stroke-width:0.1;fill:none" />
  <path d="M181,132 A50,50 0 0,0 177.194,112.866 " style="stroke:rgb(0,0,0);stroke-width:0.1;fill:none" />
  <path d="M176,132 A45,45 0 0,0 172.575,114.779 " style="stroke:rgb(0,0,0);stroke-width:0.1;fill:none" />
  <path d="M166.355,96.6447 A50,50 0 0,0 150.134,85.806 " style="stroke:rgb(0,0,0);stroke-width:0.1;fill:none" />
  <path d="M162.82,100.18 A45,45 0 0,0 148.221,90.4254 " style="stroke:rgb(0,0,0);stroke-width:0.1;fill:none" />
  <path d="M131,82 A50,50 0 0,0 111.866,85.806 " style="stroke:rgb(0,0,0);stroke-width:0.1;fill:none" />
  <path d="M131,87 A45,45 0 0,0 113.779,90.4254 " style="stroke:rgb(0,0,0);stroke-width:0.1;fill:none" />
  <path d="M95.6447,96.6447 A50,50 0 0,0 84.806,112.866 " style="stroke:rgb(0,0,0);stroke-width:0.1;fill:none" />
  <path d="M99.1802,100.18 A45,45 0 0,0 89.4254,114.779 " style="stroke:rgb(0,0,0);stroke-width:0.1;fill:none" />
  <path d="M81,132 A50,50 0 0,0 84.806,151.134 " style="stroke:rgb(0,0,0);stroke-width:0.1;fill:none" />
  <path d="M86,132 A45,45 0 0,0 89.4254,149.221 " style="stroke:rgb(0,0,0);stroke-width:0.1;fill:none" />
  <path d="M95.6447,167.355 A50,50 0 0,0 111.866,178.194 " style="stroke:rgb(0,0,0);stroke-width:0.1;fill:none" />
  <path d="M99.1802,163.82 A45,45 0 0,0 113.779,173.575 " style="stroke:rgb(0,0,0);stroke-width:0.1;fill:none" />
  <path d="M131,177 A45,45 0 0,0 148.221,173.575 " style="stroke:rgb(0,0,0);stroke-width:0.1;fill:none" />
  <path d="M162.82,163.82 A45,45 0 0,0 172.575,149.221 " style="stroke:rgb(0,0,0);stroke-width:0.1;fill:none" />
  <path d="M131,182 A50,50 0 0,0 150.134,178.194 " style="stroke:rgb(0,0,0);stroke-width:0.1;fill:none" />
  <path d="M166.355,167.355 A50,50 0 0,0 177.194,151.134 " style="stroke:rgb(0,0,0);stroke-width:0.1;fill:none" />
  <ellipse cx="131" cy="132" rx="4" ry="4" style="stroke:rgb(0,0,0);stroke-width:0.1;fill:none;"/>
  <ellipse cx="131" cy="132" rx="130" ry="130" style="stroke:rgb(0,0,0);stroke-width:0.1;fill:none;"/>
</svg>
