999
dxflib 2.2.0.0
  0
SECTION
  2
HEADER
  9
$ACADVER
  1
AC1015
  9
$HANDSEED
  5
FFFF
  9
$SPLINESEGS
 70
8
  9
$DIMEXE
 40
1.25
  9
$DIMAZIN
 70
8
  9
$DIMZIN
 70
8
  9
$DIMLUNIT
 70
2
  9
$GRIDMODE
 70
1
  9
$INSUNITS
 70
4
  9
$DIMADEC
 70
2
  9
$DIMASZ
 40
2.5
  9
$DIMGAP
 40
0.625
  9
$DIMTXT
 40
2.5
  9
$GRIDUNIT
 10
0.0
 20
0.0
  9
$DIMEXO
 40
0.625
  9
$LUPREC
 70
4
  9
$PINSBASE
 10
34.971487401843234
 20
187.7775061558880623
 30
0.0
  9
$CLAYER
  8
Measurements
  9
$DIMAUNIT
 70
0
  9
$AUPREC
 70
2
  9
$PLIMMIN
 10
0.0
 20
0.0
  9
$LUNITS
 70
2
  9
$PLIMMAX
 10
215.9000000000000057
 20
279.3999999999999773
  9
$DIMSTYLE
  2
Standard
  9
$AUNITS
 70
0
  9
$CLAYER
  8
Front
  0
ENDSEC
  0
SECTION
  2
TABLES
  0
TABLE
  2
VPORT
  5
8
100
AcDbSymbolTable
 70
1
  0
VPORT
  5
30
100
AcDbSymbolTableRecord
100
AcDbViewportTableRecord
  2
*Active
 70
0
 10
0.0
 20
0.0
 11
1.0
 21
1.0
 12
286.3055555555554861
 22
148.5
 13
0.0
 23
0.0
 14
10.0
 24
10.0
 15
10.0
 25
10.0
 16
0.0
 26
0.0
 36
1.0
 17
0.0
 27
0.0
 37
0.0
 40
297.0
 41
1.92798353909465
 42
50.0
 43
0.0
 44
0.0
 50
0.0
 51
0.0
 71
0
 72
100
 73
1
 74
3
 75
1
 76
1
 77
0
 78
0
281
0
 65
1
110
0.0
120
0.0
130
0.0
111
1.0
121
0.0
131
0.0
112
0.0
122
1.0
132
0.0
 79
0
146
0.0
  0
ENDTAB
  0
TABLE
  2
LTYPE
  5
5
100
AcDbSymbolTable
 70
21
  0
LTYPE
  5
14
100
AcDbSymbolTableRecord
100
AcDbLinetypeTableRecord
  2
ByBlock
 70
0
  3

 72
65
 73
0
 40
0.0
  0
LTYPE
  5
15
100
AcDbSymbolTableRecord
100
AcDbLinetypeTableRecord
  2
ByLayer
 70
0
  3

 72
65
 73
0
 40
0.0
  0
LTYPE
  5
16
100
AcDbSymbolTableRecord
100
AcDbLinetypeTableRecord
  2
CONTINUOUS
 70
0
  3
Solid line
 72
65
 73
0
 40
0.0
  0
LTYPE
  5
31
100
AcDbSymbolTableRecord
100
AcDbLinetypeTableRecord
  2
DOT
 70
0
  3
Dot . . . . . . . . . . . . . . . . . . . . . .
 72
65
 73
2
 40
6.3499999999999996
 49
0.0
 74
0
 49
-6.3499999999999996
 74
0
  0
LTYPE
  5
32
100
AcDbSymbolTableRecord
100
AcDbLinetypeTableRecord
  2
DOT2
 70
0
  3
Dot (.5x) .....................................
 72
65
 73
2
 40
3.1749999999999998
 49
0.0
 74
0
 49
-3.1749999999999998
 74
0
  0
LTYPE
  5
33
100
AcDbSymbolTableRecord
100
AcDbLinetypeTableRecord
  2
DOTX2
 70
0
  3
Dot (2x) .  .  .  .  .  .  .  .  .  .  .  .  .
 72
65
 73
2
 40
12.6999999999999993
 49
0.0
 74
0
 49
-12.6999999999999993
 74
0
  0
LTYPE
  5
34
100
AcDbSymbolTableRecord
100
AcDbLinetypeTableRecord
  2
DASHED
 70
0
  3
Dashed __ __ __ __ __ __ __ __ __ __ __ __ __ _
 72
65
 73
2
 40
19.0500000000000007
 49
12.6999999999999993
 74
0
 49
-6.3499999999999996
 74
0
  0
LTYPE
  5
35
100
AcDbSymbolTableRecord
100
AcDbLinetypeTableRecord
  2
DASHED2
 70
0
  3
Dashed (.5x) _ _ _ _ _ _ _ _ _ _ _ _ _ _ _ _ _
 72
65
 73
2
 40
9.5250000000000004
 49
6.3499999999999996
 74
0
 49
-3.1749999999999998
 74
0
  0
LTYPE
  5
36
100
AcDbSymbolTableRecord
100
AcDbLinetypeTableRecord
  2
DASHEDX2
 70
0
  3
Dashed (2x) ____  ____  ____  ____  ____  ___
 72
65
 73
2
 40
38.1000000000000014
 49
25.3999999999999986
 74
0
 49
-12.6999999999999993
 74
0
  0
LTYPE
  5
37
100
AcDbSymbolTableRecord
100
AcDbLinetypeTableRecord
  2
DASHDOT
 70
0
  3
Dash dot __ . __ . __ . __ . __ . __ . __ . __
 72
65
 73
4
 40
25.3999999999999986
 49
12.6999999999999993
 74
0
 49
-6.3499999999999996
 74
0
 49
0.0
 74
0
 49
-6.3499999999999996
 74
0
  0
LTYPE
  5
38
100
AcDbSymbolTableRecord
100
AcDbLinetypeTableRecord
  2
DASHDOT2
 70
0
  3
Dash dot (.5x) _._._._._._._._._._._._._._._.
 72
65
 73
4
 40
12.6999999999999993
 49
6.3499999999999996
 74
0
 49
-3.1749999999999998
 74
0
 49
0.0
 74
0
 49
-3.1749999999999998
 74
0
  0
LTYPE
  5
39
100
AcDbSymbolTableRecord
100
AcDbLinetypeTableRecord
  2
DASHDOTX2
 70
0
  3
Dash dot (2x) ____  .  ____  .  ____  .  ___
 72
65
 73
4
 40
50.7999999999999972
 49
25.3999999999999986
 74
0
 49
-12.6999999999999993
 74
0
 49
0.0
 74
0
 49
-12.6999999999999993
 74
0
  0
LTYPE
  5
3A
100
AcDbSymbolTableRecord
100
AcDbLinetypeTableRecord
  2
DIVIDE
 70
0
  3
Divide ____ . . ____ . . ____ . . ____ . . ____
 72
65
 73
6
 40
31.75
 49
12.6999999999999993
 74
0
 49
-6.3499999999999996
 74
0
 49
0.0
 74
0
 49
-6.3499999999999996
 74
0
 49
0.0
 74
0
 49
-6.3499999999999996
 74
0
  0
LTYPE
  5
3B
100
AcDbSymbolTableRecord
100
AcDbLinetypeTableRecord
  2
DIVIDE2
 70
0
  3
Divide (.5x) __..__..__..__..__..__..__..__.._
 72
65
 73
6
 40
15.875
 49
6.3499999999999996
 74
0
 49
-3.1749999999999998
 74
0
 49
0.0
 74
0
 49
-3.1749999999999998
 74
0
 49
0.0
 74
0
 49
-3.1749999999999998
 74
0
  0
LTYPE
  5
3C
100
AcDbSymbolTableRecord
100
AcDbLinetypeTableRecord
  2
DIVIDEX2
 70
0
  3
Divide (2x) ________  .  .  ________  .  .  _
 72
65
 73
6
 40
63.5
 49
25.3999999999999986
 74
0
 49
-12.6999999999999993
 74
0
 49
0.0
 74
0
 49
-12.6999999999999993
 74
0
 49
0.0
 74
0
 49
-12.6999999999999993
 74
0
  0
LTYPE
  5
3D
100
AcDbSymbolTableRecord
100
AcDbLinetypeTableRecord
  2
CENTER
 70
0
  3
Center ____ _ ____ _ ____ _ ____ _ ____ _ ____
 72
65
 73
4
 40
50.7999999999999972
 49
31.75
 74
0
 49
-6.3499999999999996
 74
0
 49
6.3499999999999996
 74
0
 49
-6.3499999999999996
 74
0
  0
LTYPE
  5
3E
100
AcDbSymbolTableRecord
100
AcDbLinetypeTableRecord
  2
CENTER2
 70
0
  3
Center (.5x) ___ _ ___ _ ___ _ ___ _ ___ _ ___
 72
65
 73
4
 40
28.5749999999999993
 49
19.0500000000000007
 74
0
 49
-3.1749999999999998
 74
0
 49
3.1749999999999998
 74
0
 49
-3.1749999999999998
 74
0
  0
LTYPE
  5
3F
100
AcDbSymbolTableRecord
100
AcDbLinetypeTableRecord
  2
CENTERX2
 70
0
  3
Center (2x) ________  __  ________  __  _____
 72
65
 73
4
 40
101.5999999999999943
 49
63.5
 74
0
 49
-12.6999999999999993
 74
0
 49
12.6999999999999993
 74
0
 49
-12.6999999999999993
 74
0
  0
LTYPE
  5
40
100
AcDbSymbolTableRecord
100
AcDbLinetypeTableRecord
  2
BORDER
 70
0
  3
Border __ __ . __ __ . __ __ . __ __ . __ __ .
 72
65
 73
6
 40
44.4500000000000028
 49
12.6999999999999993
 74
0
 49
-6.3499999999999996
 74
0
 49
12.6999999999999993
 74
0
 49
-6.3499999999999996
 74
0
 49
0.0
 74
0
 49
-6.3499999999999996
 74
0
  0
LTYPE
  5
41
100
AcDbSymbolTableRecord
100
AcDbLinetypeTableRecord
  2
BORDER2
 70
0
  3
Border (.5x) __.__.__.__.__.__.__.__.__.__.__.
 72
65
 73
6
 40
22.2250000000000014
 49
6.3499999999999996
 74
0
 49
-3.1749999999999998
 74
0
 49
6.3499999999999996
 74
0
 49
-3.1749999999999998
 74
0
 49
0.0
 74
0
 49
-3.1749999999999998
 74
0
  0
LTYPE
  5
42
100
AcDbSymbolTableRecord
100
AcDbLinetypeTableRecord
  2
BORDERX2
 70
0
  3
Border (2x) ____  ____  .  ____  ____  .  ___
 72
65
 73
6
 40
88.9000000000000057
 49
25.3999999999999986
 74
0
 49
-12.6999999999999993
 74
0
 49
25.3999999999999986
 74
0
 49
-12.6999999999999993
 74
0
 49
0.0
 74
0
 49
-12.6999999999999993
 74
0
  0
ENDTAB
  0
TABLE
  2
LAYER
  5
2
100
AcDbSymbolTable
 70
8
  0
LAYER
  5
10
100
AcDbSymbolTableRecord
100
AcDbLayerTableRecord
  2
0
 70
0
 62
7
420
0
  6
CONTINUOUS
370
0
390
F
  0
LAYER
  5
43
100
AcDbSymbolTableRecord
100
AcDbLayerTableRecord
  2
Drawing
 70
1
 62
-5
420
255
  6
CONTINUOUS
370
0
390
F
  0
LAYER
  5
44
100
AcDbSymbolTableRecord
100
AcDbLayerTableRecord
  2
12.5W Resistor
 70
1
 62
-1
420
16711680
  6
CONTINUOUS
370
0
390
F
  0
LAYER
  5
45
100
AcDbSymbolTableRecord
100
AcDbLayerTableRecord
  2
Front
 70
0
 62
7
420
0
  6
CONTINUOUS
370
0
390
F
  0
LAYER
  5
46
100
AcDbSymbolTableRecord
100
AcDbLayerTableRecord
  2
Top
 70
0
 62
7
420
0
  6
CONTINUOUS
370
0
390
F
  0
LAYER
  5
47
100
AcDbSymbolTableRecord
100
AcDbLayerTableRecord
  2
Measurements
 70
0
 62
7
420
0
  6
CONTINUOUS
370
0
390
F
  0
LAYER
  5
48
100
AcDbSymbolTableRecord
100
AcDbLayerTableRecord
  2
PTFE Cover
 70
1
 62
-7
420
0
  6
CONTINUOUS
370
0
390
F
  0
LAYER
  5
49
100
AcDbSymbolTableRecord
100
AcDbLayerTableRecord
  2
Side
 70
0
 62
7
420
0
  6
CONTINUOUS
370
0
390
F
  0
ENDTAB
  0
TABLE
  2
STYLE
  5
3
100
AcDbSymbolTable
 70
1
  0
STYLE
  5
11
100
AcDbSymbolTableRecord
100
AcDbTextStyleTableRecord
  2
Standard
 70
0
 40
0.0
 41
0.75
 50
0.0
 71
0
 42
2.5
  3
txt
  4

  0
ENDTAB
  0
TABLE
  2
VIEW
  5
6
100
AcDbSymbolTable
 70
0
  0
ENDTAB
  0
TABLE
  2
UCS
  5
7
100
AcDbSymbolTable
 70
0
  0
ENDTAB
  0
TABLE
  2
APPID
  5
9
100
AcDbSymbolTable
 70
1
  0
APPID
  5
12
100
AcDbSymbolTableRecord
100
AcDbRegAppTableRecord
  2
ACAD
 70
0
  0
ENDTAB
  0
TABLE
  2
DIMSTYLE
  5
A
100
AcDbSymbolTable
 70
1
100
AcDbDimStyleTable
 71
0
  0
DIMSTYLE
105
27
100
AcDbSymbolTableRecord
100
AcDbDimStyleTableRecord
  2
Standard
 41
2.5
 42
0.625
 43
3.75
 44
1.25
 70
0
 73
0
 74
0
 77
1
 78
8
140
2.5
141
2.5
143
0.03937007874016
147
0.625
171
3
172
1
271
2
272
2
274
3
278
44
283
0
284
8
340
11
  0
ENDTAB
  0
TABLE
  2
BLOCK_RECORD
  5
1
100
AcDbSymbolTable
 70
1
  0
BLOCK_RECORD
  5
1F
100
AcDbSymbolTableRecord
100
AcDbBlockTableRecord
  2
*Model_Space
340
22
  0
BLOCK_RECORD
  5
1B
100
AcDbSymbolTableRecord
100
AcDbBlockTableRecord
  2
*Paper_Space
340
1E
  0
BLOCK_RECORD
  5
23
100
AcDbSymbolTableRecord
100
AcDbBlockTableRecord
  2
*Paper_Space0
340
26
  0
ENDTAB
  0
ENDSEC
  0
SECTION
  2
BLOCKS
  0
BLOCK
  5
20
100
AcDbEntity
  8
0
100
AcDbBlockBegin
  2
*Model_Space
 70
0
 10
0.0
 20
0.0
 30
0.0
  3
*Model_Space
  1

  0
ENDBLK
  5
21
100
AcDbEntity
  8
0
100
AcDbBlockEnd
  0
BLOCK
  5
1C
100
AcDbEntity
 67
1
  8
0
100
AcDbBlockBegin
  2
*Paper_Space
 70
0
 10
0.0
 20
0.0
 30
0.0
  3
*Paper_Space
  1

  0
ENDBLK
  5
1D
100
AcDbEntity
 67
1
  8
0
100
AcDbBlockEnd
  0
BLOCK
  5
24
100
AcDbEntity
  8
0
100
AcDbBlockBegin
  2
*Paper_Space0
 70
0
 10
0.0
 20
0.0
 30
0.0
  3
*Paper_Space0
  1

  0
ENDBLK
  5
25
100
AcDbEntity
  8
0
100
AcDbBlockEnd
  0
ENDSEC
  0
SECTION
  2
ENTITIES
  0
MTEXT
  5
4A
100
AcDbEntity
100
AcDbMText
  8
0
 62
256
370
-1
  6
ByLayer
 10
0.000000000000001
 20
45.9749999999999943
 30
0.0
 40
5.0
 41
100.0
 71
5
 72
2
  1
FRONT\~VIEW
  7
standard
 50
0.0
 73
0
 44
1.0
  0
MTEXT
  5
4B
100
AcDbEntity
100
AcDbMText
  8
0
 62
256
370
-1
  6
ByLayer
 10
0.0
 20
-20.0
 30
0.0
 40
5.0
 41
100.0
 71
5
 72
2
  1
TOP\~VIEW
  7
standard
 50
0.0
 73
0
 44
1.0
  0
LINE
  5
4C
100
AcDbEntity
100
AcDbLine
  8
Drawing
 62
256
370
-1
  6
ByLayer
 10
-0.0000000000000089
 20
31.8249999999999922
 30
0.0
 11
-0.0000000000000107
 21
11.524999999999995
 31
0.0
  0
LINE
  5
4D
100
AcDbEntity
100
AcDbLine
  8
12.5W Resistor
 62
256
370
-1
  6
ByLayer
 10
-9.5000000000000107
 20
23.6749999999999865
 30
0.0
 11
-9.5000000000000089
 21
19.6749999999999829
 31
0.0
  0
LINE
  5
4E
100
AcDbEntity
100
AcDbLine
  8
12.5W Resistor
 62
256
370
-1
  6
ByLayer
 10
9.4999999999999929
 20
23.6749999999999829
 30
0.0
 11
9.4999999999999947
 21
19.6749999999999829
 31
0.0
  0
LINE
  5
4F
100
AcDbEntity
100
AcDbLine
  8
12.5W Resistor
 62
256
370
-1
  6
ByLayer
 10
-9.5000000000000107
 20
21.6750000000000007
 30
0.0
 11
9.4999999999999911
 21
21.6749999999999794
 31
0.0
  0
CIRCLE
  5
50
100
AcDbEntity
100
AcDbCircle
  8
12.5W Resistor
 62
256
370
-1
  6
ByLayer
 10
-7.1500000000000146
 20
13.7250000000000085
 30
0.0
 40
1.2
  0
CIRCLE
  5
51
100
AcDbEntity
100
AcDbCircle
  8
12.5W Resistor
 62
256
370
-1
  6
ByLayer
 10
7.1500000000000048
 20
29.6249999999999716
 30
0.0
 40
1.2
  0
LINE
  5
52
100
AcDbEntity
100
AcDbLine
  8
12.5W Resistor
 62
256
370
-1
  6
ByLayer
 10
-9.5000000000000107
 20
21.6750000000000007
 30
0.0
 11
-17.4500000000000135
 21
21.6749999999999581
 31
0.0
  0
LINE
  5
53
100
AcDbEntity
100
AcDbLine
  8
12.5W Resistor
 62
256
370
-1
  6
ByLayer
 10
17.4499999999999851
 20
21.6749999999999723
 30
0.0
 11
9.4999999999999911
 21
21.6749999999999794
 31
0.0
  0
LINE
  5
54
100
AcDbEntity
100
AcDbLine
  8
12.5W Resistor
 62
256
370
-1
  6
ByLayer
 10
9.4999999999999929
 20
31.8249999999999922
 30
0.0
 11
9.4999999999999858
 21
16.3249999999999815
 31
0.0
  0
LINE
  5
55
100
AcDbEntity
100
AcDbLine
  8
12.5W Resistor
 62
256
370
-1
  6
ByLayer
 10
-9.5000000000000178
 20
11.524999999999995
 30
0.0
 11
-9.5000000000000089
 21
27.024999999999995
 31
0.0
  0
LINE
  5
56
100
AcDbEntity
100
AcDbLine
  8
12.5W Resistor
 62
256
370
-1
  6
ByLayer
 10
-9.5000000000000178
 20
11.524999999999995
 30
0.0
 11
-4.750000000000016
 21
11.5249999999999915
 31
0.0
  0
LINE
  5
57
100
AcDbEntity
100
AcDbLine
  8
12.5W Resistor
 62
256
370
-1
  6
ByLayer
 10
-4.7500000000000115
 20
16.3250000000000028
 30
0.0
 11
9.4999999999999858
 21
16.3249999999999815
 31
0.0
  0
LINE
  5
58
100
AcDbEntity
100
AcDbLine
  8
12.5W Resistor
 62
256
370
-1
  6
ByLayer
 10
-4.750000000000016
 20
11.5249999999999915
 30
0.0
 11
-4.7500000000000115
 21
16.3250000000000028
 31
0.0
  0
LINE
  5
59
100
AcDbEntity
100
AcDbLine
  8
12.5W Resistor
 62
256
370
-1
  6
ByLayer
 10
-9.5000000000000089
 20
27.024999999999995
 30
0.0
 11
4.7500000000000053
 21
27.0249999999999737
 31
0.0
  0
LINE
  5
5A
100
AcDbEntity
100
AcDbLine
  8
12.5W Resistor
 62
256
370
-1
  6
ByLayer
 10
4.7500000000000071
 20
31.8249999999999886
 30
0.0
 11
9.4999999999999929
 21
31.8249999999999922
 31
0.0
  0
LINE
  5
5B
100
AcDbEntity
100
AcDbLine
  8
12.5W Resistor
 62
256
370
-1
  6
ByLayer
 10
4.7500000000000053
 20
27.0249999999999737
 30
0.0
 11
4.7500000000000071
 21
31.8249999999999886
 31
0.0
  0
DIMENSION
  5
5C
100
AcDbEntity
  8
Measurements
 62
256
370
-1
  6
ByLayer
100
AcDbDimension
 10
-23.3272113943096002
 20
11.524999999999995
 30
0.0
 11
-25.2022113943096002
 21
21.6749999999999936
 31
0.0
 70
0
 71
5
 72
0
 41
1.0
 42
0.0
  1

  3
Standard
100
AcDbAlignedDimension
 13
-18.3308517426843842
 23
31.8249999999999922
 33
0.0
 14
-18.3308517426843842
 24
11.524999999999995
 34
0.0
 50
90.0
100
AcDbRotatedDimension
  0
DIMENSION
  5
5D
100
AcDbEntity
  8
Measurements
 62
256
370
-1
  6
ByLayer
100
AcDbDimension
 10
-0.0000000000000087
 20
34.0
 30
0.0
 11
3.5749999999999975
 21
35.875
 31
0.0
 70
0
 71
5
 72
0
 41
1.0
 42
0.0
  1

  3
Standard
100
AcDbAlignedDimension
 13
7.1500000000000048
 23
29.6249999999999716
 33
0.0
 14
-0.0000000000000089
 24
31.8249999999999922
 34
0.0
 50
0.0
100
AcDbRotatedDimension
  0
DIMENSION
  5
5E
100
AcDbEntity
  8
Measurements
 62
256
370
-1
  6
ByLayer
100
AcDbDimension
 10
-7.1500000000000137
 20
34.0
 30
0.0
 11
-3.5750000000000126
 21
35.875
 31
0.0
 70
0
 71
5
 72
0
 41
1.0
 42
0.0
  1

  3
Standard
100
AcDbAlignedDimension
 13
-0.0000000000000107
 23
31.8249999999999922
 33
0.0
 14
-7.1500000000000146
 24
13.7250000000000085
 34
0.0
 50
0.0
100
AcDbRotatedDimension
  0
DIMENSION
  5
5F
100
AcDbEntity
  8
Measurements
 62
256
370
-1
  6
ByLayer
100
AcDbDimension
 10
24.0
 20
29.624999999999968
 30
0.0
 11
22.125
 21
25.6499999999999808
 31
0.0
 70
0
 71
5
 72
0
 41
1.0
 42
0.0
  1

  3
Standard
100
AcDbAlignedDimension
 13
-0.0000000000000098
 23
21.6749999999999901
 33
0.0
 14
7.1500000000000048
 24
29.6249999999999716
 34
0.0
 50
90.0
100
AcDbRotatedDimension
  0
DIMENSION
  5
60
100
AcDbEntity
  8
Measurements
 62
256
370
-1
  6
ByLayer
100
AcDbDimension
 10
24.0
 20
13.725000000000005
 30
0.0
 11
22.125
 21
17.6999999999999957
 31
0.0
 70
0
 71
5
 72
0
 41
1.0
 42
0.0
  1

  3
Standard
100
AcDbAlignedDimension
 13
-0.0000000000000089
 23
21.6749999999999901
 33
0.0
 14
-7.1500000000000146
 24
13.7250000000000085
 34
0.0
 50
90.0
100
AcDbRotatedDimension
  0
DIMENSION
  5
61
100
AcDbEntity
  8
Measurements
 62
256
370
-1
  6
ByLayer
100
AcDbDimension
 10
30.0
 20
13.7250000000000032
 30
0.0
 11
28.125
 21
21.6749999999999865
 31
0.0
 70
0
 71
5
 72
0
 41
1.0
 42
0.0
  1

  3
Standard
100
AcDbAlignedDimension
 13
7.1500000000000048
 23
29.6249999999999716
 33
0.0
 14
-6.5250000000000146
 24
13.7250000000000085
 34
0.0
 50
90.0
100
AcDbRotatedDimension
  0
DIMENSION
  5
62
100
AcDbEntity
  8
Measurements
 62
256
370
-1
  6
ByLayer
100
AcDbDimension
 10
7.1500000000000057
 20
39.0
 30
0.0
 11
-0.0000000000000048
 21
40.875
 31
0.0
 70
0
 71
5
 72
0
 41
1.0
 42
0.0
  1

  3
Standard
100
AcDbAlignedDimension
 13
-7.1500000000000146
 23
13.7250000000000085
 33
0.0
 14
7.1500000000000048
 24
29.6249999999999716
 34
0.0
 50
0.0
100
AcDbRotatedDimension
  0
LINE
  5
63
100
AcDbEntity
100
AcDbLine
  8
12.5W Resistor
 62
256
370
-1
  6
ByLayer
 10
-9.5000000000000089
 20
-40.3812883907213518
 30
0.0
 11
9.4999999999999893
 21
-40.381288390721366
 31
0.0
  0
LINE
  5
64
100
AcDbEntity
100
AcDbLine
  8
12.5W Resistor
 62
256
370
-1
  6
ByLayer
 10
-9.5000000000000107
 20
-38.4812883907213461
 30
0.0
 11
9.4999999999999911
 21
-38.4812883907213745
 31
0.0
  0
LINE
  5
65
100
AcDbEntity
100
AcDbLine
  8
12.5W Resistor
 62
256
370
-1
  6
ByLayer
 10
-9.499999999999984
 20
-30.4812883907213461
 30
0.0
 11
9.5000000000000284
 21
-30.4812883907213745
 31
0.0
  0
LINE
  5
66
100
AcDbEntity
100
AcDbLine
  8
12.5W Resistor
 62
256
370
-1
  6
ByLayer
 10
-9.5000000000000089
 20
-40.3812883907213518
 30
0.0
 11
-9.499999999999984
 21
-30.4812883907213461
 31
0.0
  0
LINE
  5
67
100
AcDbEntity
100
AcDbLine
  8
12.5W Resistor
 62
256
370
-1
  6
ByLayer
 10
9.5000000000000284
 20
-30.4812883907213745
 30
0.0
 11
9.4999999999999893
 21
-40.381288390721366
 31
0.0
  0
LINE
  5
68
100
AcDbEntity
100
AcDbLine
  8
12.5W Resistor
 62
256
370
-1
  6
ByLayer
 10
8.1499999999999861
 20
-43.4812883907213887
 30
0.0
 11
8.1500000000000057
 21
-38.4812883907213816
 31
0.0
  0
LINE
  5
69
100
AcDbEntity
100
AcDbLine
  8
12.5W Resistor
 62
256
370
-1
  6
ByLayer
 10
7.1500000000000155
 20
-43.4812883907213603
 30
0.0
 11
7.1499999999999888
 21
-38.4812883907213745
 31
0.0
  0
LINE
  5
6A
100
AcDbEntity
100
AcDbLine
  8
12.5W Resistor
 62
256
370
-1
  6
ByLayer
 10
6.1499999999999808
 20
-43.4812883907213603
 30
0.0
 11
6.1499999999999995
 21
-38.4812883907213603
 31
0.0
  0
LINE
  5
6B
100
AcDbEntity
100
AcDbLine
  8
12.5W Resistor
 62
256
370
-1
  6
ByLayer
 10
6.1499999999999808
 20
-43.4812883907213603
 30
0.0
 11
8.1499999999999861
 21
-43.4812883907213887
 31
0.0
  0
LINE
  5
6C
100
AcDbEntity
100
AcDbLine
  8
12.5W Resistor
 62
256
370
-1
  6
ByLayer
 10
-8.150000000000011
 20
-43.4812883907213603
 30
0.0
 11
-8.1499999999999968
 21
-38.4812883907213603
 31
0.0
  0
LINE
  5
6D
100
AcDbEntity
100
AcDbLine
  8
12.5W Resistor
 62
256
370
-1
  6
ByLayer
 10
-6.1500000000000163
 20
-43.4812883907213603
 30
0.0
 11
-6.1499999999999968
 21
-38.4812883907213603
 31
0.0
  0
LINE
  5
6E
100
AcDbEntity
100
AcDbLine
  8
12.5W Resistor
 62
256
370
-1
  6
ByLayer
 10
-7.1500000000000155
 20
-43.4812883907213603
 30
0.0
 11
-7.1499999999999915
 21
-38.4812883907213603
 31
0.0
  0
LINE
  5
6F
100
AcDbEntity
100
AcDbLine
  8
12.5W Resistor
 62
256
370
-1
  6
ByLayer
 10
-8.150000000000011
 20
-43.4812883907213603
 30
0.0
 11
-6.1500000000000163
 21
-43.4812883907213603
 31
0.0
  0
LINE
  5
70
100
AcDbEntity
100
AcDbLine
  8
12.5W Resistor
 62
256
370
-1
  6
ByLayer
 10
17.4500000000000171
 20
-35.4312883907213632
 30
0.0
 11
-17.4499999999999957
 21
-35.4312883907213276
 31
0.0
  0
LINE
  5
71
100
AcDbEntity
100
AcDbLine
  8
12.5W Resistor
 62
256
370
-1
  6
ByLayer
 10
-9.5000000000000142
 20
-59.6187116092787548
 30
0.0
 11
9.4999999999999858
 21
-59.6187116092787477
 31
0.0
  0
LINE
  5
72
100
AcDbEntity
100
AcDbLine
  8
12.5W Resistor
 62
256
370
-1
  6
ByLayer
 10
-9.5000000000000089
 20
-61.5187116092787605
 30
0.0
 11
9.4999999999999751
 21
-61.5187116092787463
 31
0.0
  0
LINE
  5
73
100
AcDbEntity
100
AcDbLine
  8
12.5W Resistor
 62
256
370
-1
  6
ByLayer
 10
-9.5000000000000071
 20
-69.5187116092787676
 30
0.0
 11
9.5000000000000231
 21
-69.5187116092787392
 31
0.0
  0
LINE
  5
74
100
AcDbEntity
100
AcDbLine
  8
12.5W Resistor
 62
256
370
-1
  6
ByLayer
 10
-9.5000000000000142
 20
-59.6187116092787548
 30
0.0
 11
-9.5000000000000071
 21
-69.5187116092787676
 31
0.0
  0
LINE
  5
75
100
AcDbEntity
100
AcDbLine
  8
12.5W Resistor
 62
256
370
-1
  6
ByLayer
 10
9.5000000000000231
 20
-69.5187116092787392
 30
0.0
 11
9.4999999999999858
 21
-59.6187116092787477
 31
0.0
  0
LINE
  5
76
100
AcDbEntity
100
AcDbLine
  8
12.5W Resistor
 62
256
370
-1
  6
ByLayer
 10
8.1499999999999826
 20
-56.5187116092787321
 30
0.0
 11
8.149999999999995
 21
-61.5187116092787463
 31
0.0
  0
LINE
  5
77
100
AcDbEntity
100
AcDbLine
  8
12.5W Resistor
 62
256
370
-1
  6
ByLayer
 10
7.1500000000000128
 20
-56.5187116092787463
 30
0.0
 11
7.1499999999999977
 21
-61.5187116092787321
 31
0.0
  0
LINE
  5
78
100
AcDbEntity
100
AcDbLine
  8
12.5W Resistor
 62
256
370
-1
  6
ByLayer
 10
6.1499999999999773
 20
-56.5187116092787463
 30
0.0
 11
6.1499999999999941
 21
-61.5187116092787463
 31
0.0
  0
LINE
  5
79
100
AcDbEntity
100
AcDbLine
  8
12.5W Resistor
 62
256
370
-1
  6
ByLayer
 10
6.1499999999999773
 20
-56.5187116092787463
 30
0.0
 11
8.1499999999999826
 21
-56.5187116092787321
 31
0.0
  0
LINE
  5
7A
100
AcDbEntity
100
AcDbLine
  8
12.5W Resistor
 62
256
370
-1
  6
ByLayer
 10
-8.1500000000000128
 20
-56.5187116092787463
 30
0.0
 11
-8.1500000000000004
 21
-61.5187116092787463
 31
0.0
  0
LINE
  5
7B
100
AcDbEntity
100
AcDbLine
  8
12.5W Resistor
 62
256
370
-1
  6
ByLayer
 10
-6.1500000000000083
 20
-56.5187116092787463
 30
0.0
 11
-6.1499999999999986
 21
-61.5187116092787463
 31
0.0
  0
LINE
  5
7C
100
AcDbEntity
100
AcDbLine
  8
12.5W Resistor
 62
256
370
-1
  6
ByLayer
 10
-7.1500000000000181
 20
-56.5187116092787463
 30
0.0
 11
-7.1499999999999941
 21
-61.5187116092787463
 31
0.0
  0
LINE
  5
7D
100
AcDbEntity
100
AcDbLine
  8
12.5W Resistor
 62
256
370
-1
  6
ByLayer
 10
-8.1500000000000128
 20
-56.5187116092787463
 30
0.0
 11
-6.1500000000000083
 21
-56.5187116092787463
 31
0.0
  0
LINE
  5
7E
100
AcDbEntity
100
AcDbLine
  8
12.5W Resistor
 62
256
370
-1
  6
ByLayer
 10
17.4499999999999993
 20
-64.568711609278779
 30
0.0
 11
-17.4500000000000277
 21
-64.5687116092787505
 31
0.0
  0
LINE
  5
7F
100
AcDbEntity
100
AcDbLine
  8
Drawing
 62
256
370
-1
  6
ByLayer
 10
14.0434723539836082
 20
26.8249999999999922
 30
0.0
 11
-14.0434723539836011
 21
26.8249999999999922
 31
0.0
  0
LINE
  5
80
100
AcDbEntity
100
AcDbLine
  8
Drawing
 62
256
370
-1
  6
ByLayer
 10
-3.9687500000000089
 20
31.8249999999999922
 30
0.0
 11
-3.9687500000000107
 21
11.5249999999999968
 31
0.0
  0
LINE
  5
81
100
AcDbEntity
100
AcDbLine
  8
PTFE Cover
 62
256
370
-1
  6
ByLayer
 10
-5.0
 20
11.524999999999995
 30
0.0
 11
-5.0
 21
7.5772341471901132
 31
0.0
  0
LINE
  5
82
100
AcDbEntity
100
AcDbLine
  8
PTFE Cover
 62
256
370
-1
  6
ByLayer
 10
5.0
 20
7.5772341471901195
 30
0.0
 11
5.0
 21
11.524999999999995
 31
0.0
  0
LINE
  5
83
100
AcDbEntity
100
AcDbLine
  8
PTFE Cover
 62
256
370
-1
  6
ByLayer
 10
-5.0
 20
7.5772341471901132
 30
0.0
 11
-3.551068311645476
 21
6.7066281559967678
 31
0.0
  0
LINE
  5
84
100
AcDbEntity
100
AcDbLine
  8
PTFE Cover
 62
256
370
-1
  6
ByLayer
 10
5.0
 20
7.5772341471901195
 30
0.0
 11
3.5510683116454693
 21
6.7066281559967678
 31
0.0
  0
LINE
  5
85
100
AcDbEntity
100
AcDbLine
  8
PTFE Cover
 62
256
370
-1
  6
ByLayer
 10
-3.551068311645476
 20
6.7066281559967678
 30
0.0
 11
3.5510683116454693
 21
6.7066281559967678
 31
0.0
  0
LINE
  5
86
100
AcDbEntity
100
AcDbLine
  8
PTFE Cover
 62
256
370
-1
  6
ByLayer
 10
4.0000000000000036
 20
11.5249999999999932
 30
0.0
 11
4.0000000000000036
 21
11.1202994616207373
 31
0.0
  0
LINE
  5
87
100
AcDbEntity
100
AcDbLine
  8
PTFE Cover
 62
256
370
-1
  6
ByLayer
 10
3.5000000000000018
 20
10.6202994616207373
 30
0.0
 11
4.0000000000000036
 21
11.1202994616207373
 31
0.0
  0
LINE
  5
88
100
AcDbEntity
100
AcDbLine
  8
PTFE Cover
 62
256
370
-1
  6
ByLayer
 10
3.5
 20
10.1202994616207391
 30
0.0
 11
4.0
 21
9.6202994616207356
 31
0.0
  0
LINE
  5
89
100
AcDbEntity
100
AcDbLine
  8
PTFE Cover
 62
256
370
-1
  6
ByLayer
 10
3.5000000000000018
 20
10.6202994616207373
 30
0.0
 11
3.5
 21
10.1202994616207391
 31
0.0
  0
LINE
  5
8A
100
AcDbEntity
100
AcDbLine
  8
PTFE Cover
 62
256
370
-1
  6
ByLayer
 10
-3.5000000000000018
 20
10.6202994616207373
 30
0.0
 11
-4.0000000000000036
 21
11.120299461620732
 31
0.0
  0
LINE
  5
8B
100
AcDbEntity
100
AcDbLine
  8
PTFE Cover
 62
256
370
-1
  6
ByLayer
 10
-3.5000000000000018
 20
10.1202994616207285
 30
0.0
 11
-4.0
 21
9.6202994616207391
 31
0.0
  0
LINE
  5
8C
100
AcDbEntity
100
AcDbLine
  8
PTFE Cover
 62
256
370
-1
  6
ByLayer
 10
-3.5000000000000018
 20
10.6202994616207373
 30
0.0
 11
-3.5
 21
10.1202994616207285
 31
0.0
  0
LINE
  5
8D
100
AcDbEntity
100
AcDbLine
  8
PTFE Cover
 62
256
370
-1
  6
ByLayer
 10
-3.9999999999999929
 20
11.5250000000000039
 30
0.0
 11
-3.9999999999999929
 21
11.120299461620748
 31
0.0
  0
LINE
  5
8E
100
AcDbEntity
100
AcDbLine
  8
PTFE Cover
 62
256
370
-1
  6
ByLayer
 10
-4.0
 20
9.6202994616207391
 30
0.0
 11
-3.9999999999999982
 21
9.3096403225932214
 31
0.0
  0
LINE
  5
8F
100
AcDbEntity
100
AcDbLine
  8
PTFE Cover
 62
256
370
-1
  6
ByLayer
 10
4.0
 20
9.6202994616207356
 30
0.0
 11
3.9999999999999982
 21
9.3096403225932303
 31
0.0
  0
LINE
  5
90
100
AcDbEntity
100
AcDbLine
  8
PTFE Cover
 62
256
370
-1
  6
ByLayer
 10
-3.9999999999999982
 20
9.3096403225932214
 30
0.0
 11
-0.5000000000000178
 21
7.2066281559967678
 31
0.0
  0
LINE
  5
91
100
AcDbEntity
100
AcDbLine
  8
PTFE Cover
 62
256
370
-1
  6
ByLayer
 10
3.9999999999999982
 20
9.3096403225932303
 30
0.0
 11
0.5
 21
7.206628155996758
 31
0.0
  0
LINE
  5
92
100
AcDbEntity
100
AcDbLine
  8
PTFE Cover
 62
256
370
-1
  6
ByLayer
 10
-0.5000000000000178
 20
7.2066281559967678
 30
0.0
 11
-0.5
 21
6.7066281559967678
 31
0.0
  0
LINE
  5
93
100
AcDbEntity
100
AcDbLine
  8
PTFE Cover
 62
256
370
-1
  6
ByLayer
 10
0.5
 20
7.206628155996758
 30
0.0
 11
0.5
 21
6.7066281559967571
 31
0.0
  0
LINE
  5
94
100
AcDbEntity
100
AcDbLine
  8
PTFE Cover
 62
256
370
-1
  6
ByLayer
 10
-5.0
 20
11.5249999999999915
 30
0.0
 11
5.0
 21
11.524999999999995
 31
0.0
  0
DIMENSION
  5
95
100
AcDbEntity
  8
Measurements
 62
256
370
-1
  6
ByLayer
100
AcDbDimension
 10
14.0
 20
-7.0000000000000009
 30
0.0
 11
0.0000000000000037
 21
-5.1250000000000009
 31
0.0
 70
0
 71
5
 72
1
 41
1.0
 42
0.0
  1

  3
Standard
100
AcDbAlignedDimension
 13
-14.0434723539836011
 23
11.524999999999995
 33
0.0
 14
14.0434723539836064
 24
11.524999999999995
 34
0.0
 50
0.0
100
AcDbRotatedDimension
  0
CIRCLE
  5
96
100
AcDbEntity
100
AcDbCircle
  8
Front
 62
256
370
-1
  6
ByLayer
 10
-7.1500000000000128
 20
13.7250000000000085
 30
0.0
 40
1.0
  0
CIRCLE
  5
97
100
AcDbEntity
100
AcDbCircle
  8
Front
 62
256
370
-1
  6
ByLayer
 10
7.1500000000000057
 20
29.6249999999999716
 30
0.0
 40
1.0
  0
LINE
  5
98
100
AcDbEntity
100
AcDbLine
  8
Front
 62
256
370
-1
  6
ByLayer
 10
-14.0434723539836099
 20
11.5250000000000021
 30
0.0
 11
14.0434723539836099
 21
11.5249999999999826
 31
0.0
  0
LINE
  5
99
100
AcDbEntity
100
AcDbLine
  8
Front
 62
256
370
-1
  6
ByLayer
 10
14.043472353983617
 20
31.8249999999999886
 30
0.0
 11
-14.0434723539835957
 21
31.8249999999999886
 31
0.0
  0
LINE
  5
9A
100
AcDbEntity
100
AcDbLine
  8
Front
 62
256
370
-1
  6
ByLayer
 10
14.043472353983617
 20
31.8249999999999886
 30
0.0
 11
14.0434723539836099
 21
11.5249999999999826
 31
0.0
  0
LINE
  5
9B
100
AcDbEntity
100
AcDbLine
  8
Front
 62
256
370
-1
  6
ByLayer
 10
-14.0434723539835957
 20
31.8250000000000028
 30
0.0
 11
-14.0434723539835957
 21
11.5249999999999879
 31
0.0
  0
LINE
  5
9C
100
AcDbEntity
100
AcDbLine
  8
Front
 62
256
370
-1
  6
ByLayer
 10
-12.6291730520065428
 20
11.5249999999999968
 30
0.0
 11
-12.6291730520065286
 21
31.8249999999999815
 31
0.0
  0
LINE
  5
9D
100
AcDbEntity
100
AcDbLine
  8
Front
 62
256
370
-1
  6
ByLayer
 10
12.6291730520065926
 20
11.5249999999999737
 30
0.0
 11
12.629173052006557
 21
31.8249999999999815
 31
0.0
  0
LINE
  5
9E
100
AcDbEntity
100
AcDbLine
  8
Front
 62
256
370
-1
  6
ByLayer
 10
4.7625000000000313
 20
31.8249999999999815
 30
0.0
 11
4.7625000000000028
 21
11.5249999999999808
 31
0.0
  0
LINE
  5
9F
100
AcDbEntity
100
AcDbLine
  8
Front
 62
256
370
-1
  6
ByLayer
 10
-4.7624999999999673
 20
31.8250000000000028
 30
0.0
 11
-4.7624999999999957
 21
11.5250000000000039
 31
0.0
  0
LINE
  5
A0
100
AcDbEntity
100
AcDbLine
  8
Front
 62
256
370
-1
  6
ByLayer
 10
0.0000000000000355
 20
31.8249999999999886
 30
0.0
 11
0.0000000000000071
 21
11.5249999999999897
 31
0.0
  0
DIMENSION
  5
A1
100
AcDbEntity
  8
Measurements
 62
256
370
-1
  6
ByLayer
100
AcDbDimension
 10
4.7625000000000064
 20
5.6786896168628571
 30
0.0
 11
0.0000000000000054
 21
7.5536896168628571
 31
0.0
 70
0
 71
5
 72
0
 41
1.0
 42
0.0
  1

  3
Standard
100
AcDbAlignedDimension
 13
-4.7624999999999957
 23
11.524999999999995
 33
0.0
 14
4.7625000000000064
 24
11.5249999999999897
 34
0.0
 50
0.0
100
AcDbRotatedDimension
  0
CIRCLE
  5
A2
100
AcDbEntity
100
AcDbCircle
  8
Top
 62
256
370
-1
  6
ByLayer
 10
-11.0434723539835247
 20
-46.6187116092787761
 30
0.0
 40
1.5
  0
CIRCLE
  5
A3
100
AcDbEntity
100
AcDbCircle
  8
Top
 62
256
370
-1
  6
ByLayer
 10
-11.0434723539835957
 20
-33.3812883907213518
 30
0.0
 40
1.5
  0
CIRCLE
  5
A4
100
AcDbEntity
100
AcDbCircle
  8
Top
 62
256
370
-1
  6
ByLayer
 10
11.0434723539836064
 20
-33.3812883907213589
 30
0.0
 40
1.5
  0
CIRCLE
  5
A5
100
AcDbEntity
100
AcDbCircle
  8
Top
 62
256
370
-1
  6
ByLayer
 10
11.0434723539836277
 20
-46.6187116092786127
 30
0.0
 40
1.5
  0
LINE
  5
A6
100
AcDbEntity
100
AcDbLine
  8
Drawing
 62
256
370
-1
  6
ByLayer
 10
-11.0434723539835957
 20
-33.3812883907213518
 30
0.0
 11
11.0434723539836011
 21
-33.3812883907213589
 31
0.0
  0
LINE
  5
A7
100
AcDbEntity
100
AcDbLine
  8
Drawing
 62
256
370
-1
  6
ByLayer
 10
-11.0434723539835247
 20
-46.6187116092787761
 30
0.0
 11
11.0434723539836188
 21
-46.6187116092786056
 31
0.0
  0
LINE
  5
A8
100
AcDbEntity
100
AcDbLine
  8
Drawing
 62
256
370
-1
  6
ByLayer
 10
-11.0434723539835247
 20
-46.6187116092787761
 30
0.0
 11
-11.0434723539835957
 21
-33.3812883907213518
 31
0.0
  0
LINE
  5
A9
100
AcDbEntity
100
AcDbLine
  8
Drawing
 62
256
370
-1
  6
ByLayer
 10
11.0434723539836277
 20
-46.6187116092786127
 30
0.0
 11
11.0434723539836064
 21
-33.3812883907213589
 31
0.0
  0
LINE
  5
AA
100
AcDbEntity
100
AcDbLine
  8
Top
 62
256
370
-1
  6
ByLayer
 10
14.0434723539836277
 20
-47.402466429704198
 30
0.0
 11
14.0434723539836064
 21
-32.5975335702957594
 31
0.0
  0
LINE
  5
AB
100
AcDbEntity
100
AcDbLine
  8
Top
 62
256
370
-1
  6
ByLayer
 10
-14.0434723539835193
 20
-47.4024664297043898
 30
0.0
 11
-14.0434723539836046
 21
-32.5975335702957523
 31
0.0
  0
CIRCLE
  5
AC
100
AcDbEntity
100
AcDbCircle
  8
Drawing
 62
256
370
-1
  6
ByLayer
 10
0.0
 20
-40.0
 30
0.0
 40
12.8800000000000008
  0
DIMENSION
  5
AD
100
AcDbEntity
  8
Measurements
 62
256
370
-1
  6
ByLayer
100
AcDbDimension
 10
20.0
 20
-46.6187116092786056
 30
0.0
 11
18.125
 21
-39.9999999999999858
 31
0.0
 70
0
 71
5
 72
1
 41
1.0
 42
0.0
  1

  3
Standard
100
AcDbAlignedDimension
 13
11.0434723539836064
 23
-33.3812883907213589
 33
0.0
 14
11.0434723539836313
 24
-46.6187116092786056
 34
0.0
 50
90.0
100
AcDbRotatedDimension
  0
ARC
  5
AE
100
AcDbEntity
  8
Top
 62
256
370
-1
  6
ByLayer
100
AcDbCircle
 10
0.0
 20
-40.0
 30
0.0
 40
15.875
100
AcDbArc
 50
27.7942003443527703
 51
37.2938558377454541
  0
ARC
  5
AF
100
AcDbEntity
  8
Top
 62
256
370
-1
  6
ByLayer
100
AcDbCircle
 10
0.0
 20
-40.0
 30
0.0
 40
15.875
100
AcDbArc
 50
142.7061441622545317
 51
152.2057996556472403
  0
LINE
  5
B0
100
AcDbEntity
100
AcDbLine
  8
Top
 62
256
370
-1
  6
ByLayer
 10
-12.6291730520065393
 20
-30.3812883907213518
 30
0.0
 11
12.6291730520065393
 21
-30.3812883907213589
 31
0.0
  0
ARC
  5
B1
100
AcDbEntity
  8
Top
 62
256
370
-1
  6
ByLayer
100
AcDbCircle
 10
0.0
 20
-40.0
 30
0.0
 40
15.875
100
AcDbArc
 50
207.7942003443534418
 51
217.293855837746122
  0
ARC
  5
B2
100
AcDbEntity
  8
Top
 62
256
370
-1
  6
ByLayer
100
AcDbCircle
 10
0.0
 20
-40.0
 30
0.0
 40
15.875
100
AcDbArc
 50
322.7061441622547591
 51
332.2057996556474109
  0
LINE
  5
B3
100
AcDbEntity
100
AcDbLine
  8
Top
 62
256
370
-1
  6
ByLayer
 10
-12.6291730520064327
 20
-49.6187116092787903
 30
0.0
 11
12.6291730520065748
 21
-49.6187116092785985
 31
0.0
  0
DIMENSION
  5
B4
100
AcDbEntity
  8
Measurements
 62
256
370
-1
  6
ByLayer
100
AcDbDimension
 10
26.9625799801628219
 20
-49.6187116092785985
 30
0.0
 11
25.0875799801628219
 21
-39.9999999999999787
 31
0.0
 70
0
 71
5
 72
0
 41
1.0
 42
0.0
  1

  3
Standard
100
AcDbAlignedDimension
 13
12.6291730520065499
 23
-30.3812883907213589
 33
0.0
 14
12.6291730520065748
 24
-49.6187116092785985
 34
0.0
 50
90.0
100
AcDbRotatedDimension
  0
CIRCLE
  5
B5
100
AcDbEntity
100
AcDbCircle
  8
Front
 62
256
370
-1
  6
ByLayer
 10
0.0
 20
-40.0
 30
0.0
 40
4.7625000000000002
  0
DIMENSION
  5
B6
100
AcDbEntity
  8
Measurements
 62
256
370
-1
  6
ByLayer
100
AcDbDimension
 10
10.0
 20
-60.0
 30
0.0
 11
0.0000000000000534
 21
-58.125
 31
0.0
 70
0
 71
5
 72
1
 41
1.0
 42
0.0
  1

  3
Standard
100
AcDbAlignedDimension
 13
-11.0434723539835247
 23
-46.6187116092787761
 33
0.0
 14
11.0434723539836313
 24
-46.6187116092786056
 34
0.0
 50
0.0
100
AcDbRotatedDimension
  0
DIMENSION
  5
B7
100
AcDbEntity
  8
Measurements
 62
256
370
-1
  6
ByLayer
100
AcDbDimension
 10
-20.0
 20
-70.0
 30
0.0
 11
0.0000000000000561
 21
-68.125
 31
0.0
 70
0
 71
5
 72
1
 41
1.0
 42
0.0
  1

  3
Standard
100
AcDbAlignedDimension
 13
14.0434723539836277
 23
-47.4024664297041909
 33
0.0
 14
-14.0434723539835193
 24
-47.4024664297043969
 34
0.0
 50
0.0
100
AcDbRotatedDimension
  0
LINE
  5
B8
100
AcDbEntity
100
AcDbLine
  8
Side
 62
256
370
-1
  6
ByLayer
 10
79.0
 20
-54.4749999999999943
 30
0.0
 11
79.0
 21
-34.1750000000000185
 31
0.0
  0
LINE
  5
B9
100
AcDbEntity
100
AcDbLine
  8
Side
 62
256
370
-1
  6
ByLayer
 10
59.7626000000000062
 20
-54.4749999999999943
 30
0.0
 11
59.7626000000000062
 21
-34.1750000000000185
 31
0.0
  0
LINE
  5
BA
100
AcDbEntity
100
AcDbLine
  8
Side
 62
256
370
-1
  6
ByLayer
 10
59.7626000000000062
 20
-34.1750000000000185
 30
0.0
 11
79.0
 21
-34.1750000000000185
 31
0.0
  0
LINE
  5
BB
100
AcDbEntity
100
AcDbLine
  8
Side
 62
256
370
-1
  6
ByLayer
 10
59.7626000000000062
 20
-54.4749999999999943
 30
0.0
 11
79.0
 21
-54.4749999999999943
 31
0.0
  0
CIRCLE
  5
BC
100
AcDbEntity
100
AcDbCircle
  8
Side
 62
256
370
-1
  6
ByLayer
 10
69.3813000000000102
 20
-49.4749999999999943
 30
0.0
 40
1.5
  0
LINE
  5
BD
100
AcDbEntity
100
AcDbLine
  8
Side
 62
256
370
-1
  6
ByLayer
 10
64.6188000000000073
 20
-34.1750000000000185
 30
0.0
 11
64.6188000000000073
 21
-54.4749999999999943
 31
0.0
  0
LINE
  5
BE
100
AcDbEntity
100
AcDbLine
  8
Side
 62
256
370
-1
  6
ByLayer
 10
74.1437999999999988
 20
-34.1750000000000185
 30
0.0
 11
74.1437999999999988
 21
-54.4749999999999943
 31
0.0
  0
DIMENSION
  5
BF
100
AcDbEntity
  8
Measurements
 62
256
370
-1
  6
ByLayer
100
AcDbDimension
 10
54.0
 20
-54.4749999999999943
 30
0.0
 11
52.125
 21
-51.9749999999999943
 31
0.0
 70
0
 71
5
 72
0
 41
1.0
 42
0.0
  1

  3
Standard
100
AcDbAlignedDimension
 13
69.3813000000000102
 23
-49.4749999999999943
 33
0.0
 14
69.3813000000000102
 24
-54.4749999999999943
 34
0.0
 50
90.0
100
AcDbRotatedDimension
  0
DIMENSION
  5
C0
100
AcDbEntity
  8
Measurements
 62
256
370
-1
  6
ByLayer
100
AcDbDimension
 10
79.0
 20
-60.0
 30
0.0
 11
74.1906500000000051
 21
-58.125
 31
0.0
 70
0
 71
5
 72
0
 41
1.0
 42
0.0
  1

  3
Standard
100
AcDbAlignedDimension
 13
69.3813000000000102
 23
-49.4749999999999943
 33
0.0
 14
79.0
 24
-54.4749999999999943
 34
0.0
 50
0.0
100
AcDbRotatedDimension
  0
MTEXT
  5
C1
100
AcDbEntity
100
AcDbMText
  8
Side
 62
256
370
-1
  6
ByLayer
 10
70.0
 20
-20.0
 30
0.0
 40
5.0
 41
100.0
 71
5
 72
2
  1
SIDE\~VIEW
  7
standard
 50
0.0
 73
0
 44
1.0
  0
DIMENSION
  5
C2
100
AcDbEntity
  8
Measurements
 62
256
370
-1
  6
ByLayer
100
AcDbDimension
 10
79.0
 20
-29.4881032093360602
 30
0.0
 11
69.3813000000000102
 21
-27.6131032093360602
 31
0.0
 70
0
 71
5
 72
0
 41
1.0
 42
0.0
  1

  3
Standard
100
AcDbAlignedDimension
 13
59.7626000000000062
 23
-34.1750000000000185
 33
0.0
 14
79.0
 24
-34.1750000000000185
 34
0.0
 50
0.0
100
AcDbRotatedDimension
  0
MTEXT
  5
C3
100
AcDbEntity
100
AcDbMText
  8
0
 62
256
370
-1
  6
ByLayer
 10
50.7777777777777857
 20
70.3999999999999915
 30
0.0
 40
8.0
 41
100.0
 71
1
 72
2
  1
MK5\~Heater\~Block
  7
standard
 50
0.0
 73
0
 44
1.0
  0
MTEXT
  5
C4
100
AcDbEntity
100
AcDbMText
  8
0
 62
256
370
-1
  6
ByLayer
 10
50.0
 20
50.0
 30
0.0
 40
3.0
 41
100.0
 71
1
 72
2
  3
Notes\P*\~Make\~from\~1.25"\~304\~SS\~Round\~Rod\P*\~Retaining\~holes\~tapped\~M3\~/\~4mm\~deep\P*\~Retaining\~holes\~located\~on\~Top\~(4x)\P*\~Thermocouple\~hole\~tapped\~M3\~/\~4mm\~deep\~\P*\~Thermocouple\~hole\~located\~on\~Left\~Side\~(1x)\P*\~
  3
Resistor\~mount\~holes\~tapped\~M2\~/\~3mm\~deep\P*\~Resistor\~mount\~holes\~located\~on\~Front/Back\~(4x\~total)\P*\~Resistor\~mount\~repeated\~both\~sides,\~not\~mirrored.\P*\~Center\~hole\~tapped\~3/8"-24\~all\~the\~way\~through\P*\~All\~sharp\~ed
  1
ges\~should\~be\~beveled\~for\~safe\~handling.\P*\~Bottom\~of\~the\~center\~hole\~counterbored\~2mm\~deep\~/\~9.65mm\~wide
  7
standard
 50
0.0
 73
0
 44
1.0
  0
ENDSEC
  0
SECTION
  2
OBJECTS
  0
DICTIONARY
  5
C
100
AcDbDictionary
280
0
281
1
  3
ACAD_GROUP
350
D
  3
ACAD_LAYOUT
350
1A
  3
ACAD_MLINESTYLE
350
17
  3
ACAD_PLOTSETTINGS
350
19
  3
ACAD_PLOTSTYLENAME
350
E
  3
AcDbVariableDictionary
350
C5
  0
DICTIONARY
  5
D
100
AcDbDictionary
280
0
281
1
  0
ACDBDICTIONARYWDFLT
  5
E
100
AcDbDictionary
281
1
  3
Normal
350
F
100
AcDbDictionaryWithDefault
340
F
  0
ACDBPLACEHOLDER
  5
F
  0
DICTIONARY
  5
17
100
AcDbDictionary
280
0
281
1
  3
Standard
350
18
  0
MLINESTYLE
  5
18
100
AcDbMlineStyle
  2
STANDARD
 70
0
  3

 62
256
 51
90.0
 52
90.0
 71
2
 49
0.5
 62
256
  6
BYLAYER
 49
-0.5
 62
256
  6
BYLAYER
  0
DICTIONARY
  5
19
100
AcDbDictionary
280
0
281
1
  0
DICTIONARY
  5
1A
100
AcDbDictionary
281
1
  3
Layout1
350
1E
  3
Layout2
350
26
  3
Model
350
22
  0
LAYOUT
  5
1E
100
AcDbPlotSettings
  1

  2
C:\Program Files\AutoCAD 2002\plotters\DWF ePlot (optimized for plotting).pc3
  4

  6

 40
0.0
 41
0.0
 42
0.0
 43
0.0
 44
0.0
 45
0.0
 46
0.0
 47
0.0
 48
0.0
 49
0.0
140
0.0
141
0.0
142
1.0
143
1.0
 70
688
 72
0
 73
0
 74
5
  7

 75
16
147
1.0
148
0.0
149
0.0
100
AcDbLayout
  1
Layout1
 70
1
 71
1
 10
0.0
 20
0.0
 11
420.0
 21
297.0
 12
0.0
 22
0.0
 32
0.0
 14
100000000000000000000.0
 24
100000000000000000000.0
 34
100000000000000000000.0
 15
-100000000000000000000.0
 25
-100000000000000000000.0
 35
-100000000000000000000.0
146
0.0
 13
0.0
 23
0.0
 33
0.0
 16
1.0
 26
0.0
 36
0.0
 17
0.0
 27
1.0
 37
0.0
 76
0
330
1B
  0
LAYOUT
  5
22
100
AcDbPlotSettings
  1

  2
C:\Program Files\AutoCAD 2002\plotters\DWF ePlot (optimized for plotting).pc3
  4

  6

 40
0.0
 41
0.0
 42
0.0
 43
0.0
 44
0.0
 45
0.0
 46
0.0
 47
0.0
 48
0.0
 49
0.0
140
0.0
141
0.0
142
1.0
143
1.0
 70
1712
 72
0
 73
0
 74
0
  7

 75
0
147
1.0
148
0.0
149
0.0
100
AcDbLayout
  1
Model
 70
1
 71
0
 10
0.0
 20
0.0
 11
12.0
 21
9.0
 12
0.0
 22
0.0
 32
0.0
 14
0.0
 24
0.0
 34
0.0
 15
0.0
 25
0.0
 35
0.0
146
0.0
 13
0.0
 23
0.0
 33
0.0
 16
1.0
 26
0.0
 36
0.0
 17
0.0
 27
1.0
 37
0.0
 76
0
330
1F
  0
LAYOUT
  5
26
100
AcDbPlotSettings
  1

  2
C:\Program Files\AutoCAD 2002\plotters\DWF ePlot (optimized for plotting).pc3
  4

  6

 40
0.0
 41
0.0
 42
0.0
 43
0.0
 44
0.0
 45
0.0
 46
0.0
 47
0.0
 48
0.0
 49
0.0
140
0.0
141
0.0
142
1.0
143
1.0
 70
688
 72
0
 73
0
 74
5
  7

 75
16
147
1.0
148
0.0
149
0.0
100
AcDbLayout
  1
Layout2
 70
1
 71
2
 10
0.0
 20
0.0
 11
12.0
 21
9.0
 12
0.0
 22
0.0
 32
0.0
 14
0.0
 24
0.0
 34
0.0
 15
0.0
 25
0.0
 35
0.0
146
0.0
 13
0.0
 23
0.0
 33
0.0
 16
1.0
 26
0.0
 36
0.0
 17
0.0
 27
1.0
 37
0.0
 76
0
330
23
  0
DICTIONARY
  5
C5
100
AcDbDictionary
281
1
  3
DIMASSOC
350
C7
  3
HIDETEXT
350
C6
  0
DICTIONARYVAR
  5
C6
100
DictionaryVariables
280
0
  1
2
  0
DICTIONARYVAR
  5
C7
100
DictionaryVariables
280
0
  1
1
  0
ENDSEC
  0
EOF
