999
dxflib 2.2.0.0
  0
SECTION
  2
HEADER
  9
$ACADVER
  1
AC1015
  9
$HANDSEED
  5
FFFF
  9
$DIMASZ
 40
2.5
  9
$PLIMMIN
 10
0.0
 20
0.0
  9
$DIMEXE
 40
1.25
  9
$DIMGAP
 40
0.625
  9
$PLIMMAX
 10
210.0
 20
297.0
  9
$INSUNITS
 70
4
  9
$DIMSTYLE
  2
Standard
  9
$CLAYER
  8
0
  9
$DIMEXO
 40
0.625
  9
$DIMTXT
 40
2.5
  9
$CLAYER
  8
0
  0
ENDSEC
  0
SECTION
  2
TABLES
  0
TABLE
  2
VPORT
  5
8
100
AcDbSymbolTable
 70
1
  0
VPORT
  5
30
100
AcDbSymbolTableRecord
100
AcDbViewportTableRecord
  2
*Active
 70
0
 10
0.0
 20
0.0
 11
1.0
 21
1.0
 12
286.3055555555554861
 22
148.5
 13
0.0
 23
0.0
 14
10.0
 24
10.0
 15
10.0
 25
10.0
 16
0.0
 26
0.0
 36
1.0
 17
0.0
 27
0.0
 37
0.0
 40
297.0
 41
1.92798353909465
 42
50.0
 43
0.0
 44
0.0
 50
0.0
 51
0.0
 71
0
 72
100
 73
1
 74
3
 75
1
 76
1
 77
0
 78
0
281
0
 65
1
110
0.0
120
0.0
130
0.0
111
1.0
121
0.0
131
0.0
112
0.0
122
1.0
132
0.0
 79
0
146
0.0
  0
ENDTAB
  0
TABLE
  2
LTYPE
  5
5
100
AcDbSymbolTable
 70
21
  0
LTYPE
  5
14
100
AcDbSymbolTableRecord
100
AcDbLinetypeTableRecord
  2
ByBlock
 70
0
  3

 72
65
 73
0
 40
0.0
  0
LTYPE
  5
15
100
AcDbSymbolTableRecord
100
AcDbLinetypeTableRecord
  2
ByLayer
 70
0
  3

 72
65
 73
0
 40
0.0
  0
LTYPE
  5
16
100
AcDbSymbolTableRecord
100
AcDbLinetypeTableRecord
  2
CONTINUOUS
 70
0
  3
Solid line
 72
65
 73
0
 40
0.0
  0
LTYPE
  5
31
100
AcDbSymbolTableRecord
100
AcDbLinetypeTableRecord
  2
DOT
 70
0
  3
Dot . . . . . . . . . . . . . . . . . . . . . .
 72
65
 73
2
 40
6.3499999999999996
 49
0.0
 74
0
 49
-6.3499999999999996
 74
0
  0
LTYPE
  5
32
100
AcDbSymbolTableRecord
100
AcDbLinetypeTableRecord
  2
DOT2
 70
0
  3
Dot (.5x) .....................................
 72
65
 73
2
 40
3.1749999999999998
 49
0.0
 74
0
 49
-3.1749999999999998
 74
0
  0
LTYPE
  5
33
100
AcDbSymbolTableRecord
100
AcDbLinetypeTableRecord
  2
DOTX2
 70
0
  3
Dot (2x) .  .  .  .  .  .  .  .  .  .  .  .  .
 72
65
 73
2
 40
12.6999999999999993
 49
0.0
 74
0
 49
-12.6999999999999993
 74
0
  0
LTYPE
  5
34
100
AcDbSymbolTableRecord
100
AcDbLinetypeTableRecord
  2
DASHED
 70
0
  3
Dashed __ __ __ __ __ __ __ __ __ __ __ __ __ _
 72
65
 73
2
 40
19.0500000000000007
 49
12.6999999999999993
 74
0
 49
-6.3499999999999996
 74
0
  0
LTYPE
  5
35
100
AcDbSymbolTableRecord
100
AcDbLinetypeTableRecord
  2
DASHED2
 70
0
  3
Dashed (.5x) _ _ _ _ _ _ _ _ _ _ _ _ _ _ _ _ _
 72
65
 73
2
 40
9.5250000000000004
 49
6.3499999999999996
 74
0
 49
-3.1749999999999998
 74
0
  0
LTYPE
  5
36
100
AcDbSymbolTableRecord
100
AcDbLinetypeTableRecord
  2
DASHEDX2
 70
0
  3
Dashed (2x) ____  ____  ____  ____  ____  ___
 72
65
 73
2
 40
38.1000000000000014
 49
25.3999999999999986
 74
0
 49
-12.6999999999999993
 74
0
  0
LTYPE
  5
37
100
AcDbSymbolTableRecord
100
AcDbLinetypeTableRecord
  2
DASHDOT
 70
0
  3
Dash dot __ . __ . __ . __ . __ . __ . __ . __
 72
65
 73
4
 40
25.3999999999999986
 49
12.6999999999999993
 74
0
 49
-6.3499999999999996
 74
0
 49
0.0
 74
0
 49
-6.3499999999999996
 74
0
  0
LTYPE
  5
38
100
AcDbSymbolTableRecord
100
AcDbLinetypeTableRecord
  2
DASHDOT2
 70
0
  3
Dash dot (.5x) _._._._._._._._._._._._._._._.
 72
65
 73
4
 40
12.6999999999999993
 49
6.3499999999999996
 74
0
 49
-3.1749999999999998
 74
0
 49
0.0
 74
0
 49
-3.1749999999999998
 74
0
  0
LTYPE
  5
39
100
AcDbSymbolTableRecord
100
AcDbLinetypeTableRecord
  2
DASHDOTX2
 70
0
  3
Dash dot (2x) ____  .  ____  .  ____  .  ___
 72
65
 73
4
 40
50.7999999999999972
 49
25.3999999999999986
 74
0
 49
-12.6999999999999993
 74
0
 49
0.0
 74
0
 49
-12.6999999999999993
 74
0
  0
LTYPE
  5
3A
100
AcDbSymbolTableRecord
100
AcDbLinetypeTableRecord
  2
DIVIDE
 70
0
  3
Divide ____ . . ____ . . ____ . . ____ . . ____
 72
65
 73
6
 40
31.75
 49
12.6999999999999993
 74
0
 49
-6.3499999999999996
 74
0
 49
0.0
 74
0
 49
-6.3499999999999996
 74
0
 49
0.0
 74
0
 49
-6.3499999999999996
 74
0
  0
LTYPE
  5
3B
100
AcDbSymbolTableRecord
100
AcDbLinetypeTableRecord
  2
DIVIDE2
 70
0
  3
Divide (.5x) __..__..__..__..__..__..__..__.._
 72
65
 73
6
 40
15.875
 49
6.3499999999999996
 74
0
 49
-3.1749999999999998
 74
0
 49
0.0
 74
0
 49
-3.1749999999999998
 74
0
 49
0.0
 74
0
 49
-3.1749999999999998
 74
0
  0
LTYPE
  5
3C
100
AcDbSymbolTableRecord
100
AcDbLinetypeTableRecord
  2
DIVIDEX2
 70
0
  3
Divide (2x) ________  .  .  ________  .  .  _
 72
65
 73
6
 40
63.5
 49
25.3999999999999986
 74
0
 49
-12.6999999999999993
 74
0
 49
0.0
 74
0
 49
-12.6999999999999993
 74
0
 49
0.0
 74
0
 49
-12.6999999999999993
 74
0
  0
LTYPE
  5
3D
100
AcDbSymbolTableRecord
100
AcDbLinetypeTableRecord
  2
CENTER
 70
0
  3
Center ____ _ ____ _ ____ _ ____ _ ____ _ ____
 72
65
 73
4
 40
50.7999999999999972
 49
31.75
 74
0
 49
-6.3499999999999996
 74
0
 49
6.3499999999999996
 74
0
 49
-6.3499999999999996
 74
0
  0
LTYPE
  5
3E
100
AcDbSymbolTableRecord
100
AcDbLinetypeTableRecord
  2
CENTER2
 70
0
  3
Center (.5x) ___ _ ___ _ ___ _ ___ _ ___ _ ___
 72
65
 73
4
 40
28.5749999999999993
 49
19.0500000000000007
 74
0
 49
-3.1749999999999998
 74
0
 49
3.1749999999999998
 74
0
 49
-3.1749999999999998
 74
0
  0
LTYPE
  5
3F
100
AcDbSymbolTableRecord
100
AcDbLinetypeTableRecord
  2
CENTERX2
 70
0
  3
Center (2x) ________  __  ________  __  _____
 72
65
 73
4
 40
101.5999999999999943
 49
63.5
 74
0
 49
-12.6999999999999993
 74
0
 49
12.6999999999999993
 74
0
 49
-12.6999999999999993
 74
0
  0
LTYPE
  5
40
100
AcDbSymbolTableRecord
100
AcDbLinetypeTableRecord
  2
BORDER
 70
0
  3
Border __ __ . __ __ . __ __ . __ __ . __ __ .
 72
65
 73
6
 40
44.4500000000000028
 49
12.6999999999999993
 74
0
 49
-6.3499999999999996
 74
0
 49
12.6999999999999993
 74
0
 49
-6.3499999999999996
 74
0
 49
0.0
 74
0
 49
-6.3499999999999996
 74
0
  0
LTYPE
  5
41
100
AcDbSymbolTableRecord
100
AcDbLinetypeTableRecord
  2
BORDER2
 70
0
  3
Border (.5x) __.__.__.__.__.__.__.__.__.__.__.
 72
65
 73
6
 40
22.2250000000000014
 49
6.3499999999999996
 74
0
 49
-3.1749999999999998
 74
0
 49
6.3499999999999996
 74
0
 49
-3.1749999999999998
 74
0
 49
0.0
 74
0
 49
-3.1749999999999998
 74
0
  0
LTYPE
  5
42
100
AcDbSymbolTableRecord
100
AcDbLinetypeTableRecord
  2
BORDERX2
 70
0
  3
Border (2x) ____  ____  .  ____  ____  .  ___
 72
65
 73
6
 40
88.9000000000000057
 49
25.3999999999999986
 74
0
 49
-12.6999999999999993
 74
0
 49
25.3999999999999986
 74
0
 49
-12.6999999999999993
 74
0
 49
0.0
 74
0
 49
-12.6999999999999993
 74
0
  0
ENDTAB
  0
TABLE
  2
LAYER
  5
2
100
AcDbSymbolTable
 70
4
  0
LAYER
  5
10
100
AcDbSymbolTableRecord
100
AcDbLayerTableRecord
  2
0
 70
0
 62
7
420
0
  6
CONTINUOUS
370
25
390
F
  0
LAYER
  5
43
100
AcDbSymbolTableRecord
100
AcDbLayerTableRecord
  2
Side - Angle
 70
0
 62
7
420
0
  6
CONTINUOUS
370
0
390
F
  0
LAYER
  5
44
100
AcDbSymbolTableRecord
100
AcDbLayerTableRecord
  2
Side - Rotation
 70
0
 62
7
420
0
  6
CONTINUOUS
370
0
390
F
  0
LAYER
  5
45
100
AcDbSymbolTableRecord
100
AcDbLayerTableRecord
  2
Rib
 70
0
 62
7
420
0
  6
CONTINUOUS
370
0
390
F
  0
ENDTAB
  0
TABLE
  2
STYLE
  5
3
100
AcDbSymbolTable
 70
1
  0
STYLE
  5
11
100
AcDbSymbolTableRecord
100
AcDbTextStyleTableRecord
  2
Standard
 70
0
 40
0.0
 41
0.75
 50
0.0
 71
0
 42
2.5
  3
txt
  4

  0
ENDTAB
  0
TABLE
  2
VIEW
  5
6
100
AcDbSymbolTable
 70
0
  0
ENDTAB
  0
TABLE
  2
UCS
  5
7
100
AcDbSymbolTable
 70
0
  0
ENDTAB
  0
TABLE
  2
APPID
  5
9
100
AcDbSymbolTable
 70
1
  0
APPID
  5
12
100
AcDbSymbolTableRecord
100
AcDbRegAppTableRecord
  2
ACAD
 70
0
  0
ENDTAB
  0
TABLE
  2
DIMSTYLE
  5
A
100
AcDbSymbolTable
 70
1
100
AcDbDimStyleTable
 71
0
  0
DIMSTYLE
105
27
100
AcDbSymbolTableRecord
100
AcDbDimStyleTableRecord
  2
Standard
 41
2.5
 42
0.625
 43
3.75
 44
1.25
 70
0
 73
0
 74
0
 77
1
 78
8
140
2.5
141
2.5
143
0.03937007874016
147
0.625
171
3
172
1
271
2
272
2
274
3
278
44
283
0
284
8
340
11
  0
ENDTAB
  0
TABLE
  2
BLOCK_RECORD
  5
1
100
AcDbSymbolTable
 70
1
  0
BLOCK_RECORD
  5
1F
100
AcDbSymbolTableRecord
100
AcDbBlockTableRecord
  2
*Model_Space
340
22
  0
BLOCK_RECORD
  5
1B
100
AcDbSymbolTableRecord
100
AcDbBlockTableRecord
  2
*Paper_Space
340
1E
  0
BLOCK_RECORD
  5
23
100
AcDbSymbolTableRecord
100
AcDbBlockTableRecord
  2
*Paper_Space0
340
26
  0
ENDTAB
  0
ENDSEC
  0
SECTION
  2
BLOCKS
  0
BLOCK
  5
20
100
AcDbEntity
  8
0
100
AcDbBlockBegin
  2
*Model_Space
 70
0
 10
0.0
 20
0.0
 30
0.0
  3
*Model_Space
  1

  0
ENDBLK
  5
21
100
AcDbEntity
  8
0
100
AcDbBlockEnd
  0
BLOCK
  5
1C
100
AcDbEntity
 67
1
  8
0
100
AcDbBlockBegin
  2
*Paper_Space
 70
0
 10
0.0
 20
0.0
 30
0.0
  3
*Paper_Space
  1

  0
ENDBLK
  5
1D
100
AcDbEntity
 67
1
  8
0
100
AcDbBlockEnd
  0
BLOCK
  5
24
100
AcDbEntity
  8
0
100
AcDbBlockBegin
  2
*Paper_Space0
 70
0
 10
0.0
 20
0.0
 30
0.0
  3
*Paper_Space0
  1

  0
ENDBLK
  5
25
100
AcDbEntity
  8
0
100
AcDbBlockEnd
  0
ENDSEC
  0
SECTION
  2
ENTITIES
  0
ARC
  5
46
100
AcDbEntity
  8
Side - Angle
 62
256
370
-1
  6
ByLayer
100
AcDbCircle
 10
18.7500000000001705
 20
85.8831980628075371
 30
0.0
 40
9.9999999999996909
100
AcDbArc
 50
221.5021648931277412
 51
223.404833604288001
  0
ARC
  5
47
100
AcDbEntity
  8
Side - Angle
 62
256
370
-1
  6
ByLayer
100
AcDbCircle
 10
27.4999999999998437
 20
76.6318959795076182
 30
0.0
 40
9.9999999999994778
100
AcDbArc
 50
223.4048336042898768
 51
225.4511385467853302
  0
LINE
  5
48
100
AcDbEntity
100
AcDbLine
  8
Side - Angle
 62
256
370
-1
  6
ByLayer
 10
20.4848273548567477
 20
69.5053713876168189
 30
0.0
 11
29.2348273548567477
 21
60.8920901376167691
 31
0.0
  0
ARC
  5
49
100
AcDbEntity
  8
Side - Angle
 62
256
370
-1
  6
ByLayer
100
AcDbCircle
 10
36.2500000000019611
 20
68.018614729508414
 30
0.0
 40
10.0000000000015259
100
AcDbArc
 50
225.4511385467797595
 51
227.652132138910531
  0
LINE
  5
4A
100
AcDbEntity
100
AcDbLine
  8
Side - Angle
 62
256
370
-1
  6
ByLayer
 10
29.5136979532047121
 20
60.6279290553408146
 30
0.0
 11
38.2636979532046979
 21
52.6526686386410461
 31
0.0
  0
ARC
  5
4B
100
AcDbEntity
  8
Side - Angle
 62
256
370
-1
  6
ByLayer
100
AcDbCircle
 10
44.9999999999980673
 20
60.0433543128083329
 30
0.0
 40
9.9999999999988756
100
AcDbArc
 50
227.6521321389267314
 51
230.0187653412179714
  0
LINE
  5
4C
100
AcDbEntity
100
AcDbLine
  8
Side - Angle
 62
256
370
-1
  6
ByLayer
 10
38.5746331735376913
 20
52.3808050538868386
 30
0.0
 11
47.3246331735376913
 21
45.0435654705865858
 31
0.0
  0
ARC
  5
4D
100
AcDbEntity
  8
Side - Angle
 62
256
370
-1
  6
ByLayer
100
AcDbCircle
 10
53.74999999999892
 20
52.7061147295082932
 30
0.0
 40
9.9999999999993943
100
AcDbArc
 50
230.018765341214106
 51
232.5614284276717285
  0
ARC
  5
4E
100
AcDbEntity
  8
Side - Angle
 62
256
370
-1
  6
ByLayer
100
AcDbCircle
 10
62.5000000000016911
 20
46.006895979507874
 30
0.0
 40
10.0000000000008367
100
AcDbArc
 50
232.5614284276580292
 51
235.2893317710432939
  0
LINE
  5
4F
100
AcDbEntity
100
AcDbLine
  8
Side - Angle
 62
256
370
-1
  6
ByLayer
 10
56.8056740673609539
 20
37.7865156858189337
 30
0.0
 11
65.5556740673609681
 21
31.7253177691189094
 31
0.0
  0
ARC
  5
50
100
AcDbEntity
  8
Side - Angle
 62
256
370
-1
  6
ByLayer
100
AcDbCircle
 10
71.2499999999997158
 20
39.9456980628081624
 30
0.0
 40
9.9999999999998046
100
AcDbArc
 50
235.289331771053071
 51
238.2097102143291067
  0
LINE
  5
51
100
AcDbEntity
100
AcDbLine
  8
Side - Angle
 62
256
370
-1
  6
ByLayer
 10
65.9818824781375781
 20
31.4458781955494757
 30
0.0
 11
74.7318824781375781
 21
26.0227011122494041
 31
0.0
  0
ARC
  5
52
100
AcDbEntity
  8
Side - Angle
 62
256
370
-1
  6
ByLayer
100
AcDbCircle
 10
79.9999999999993605
 20
34.5225209795078811
 30
0.0
 40
9.9999999999994316
100
AcDbArc
 50
238.2097102143301584
 51
241.3268535105670196
  0
LINE
  5
53
100
AcDbEntity
100
AcDbLine
  8
Side - Angle
 62
256
370
-1
  6
ByLayer
 10
75.2018765805728293
 20
25.748809583984368
 30
0.0
 11
83.9518765805728435
 21
20.9636533339843396
 31
0.0
  0
ARC
  5
54
100
AcDbEntity
  8
Side - Angle
 62
256
370
-1
  6
ByLayer
100
AcDbCircle
 10
88.7500000000004263
 20
29.7373647295080552
 30
0.0
 40
10.0000000000000888
100
AcDbArc
 50
241.3268535105622163
 51
244.6409976019608905
  0
ARC
  5
55
100
AcDbEntity
  8
Side - Angle
 62
256
370
-1
  6
ByLayer
100
AcDbCircle
 10
106.2500000000001421
 20
22.0811147294782018
 30
0.0
 40
10.0000000000000888
100
AcDbArc
 50
248.1471580503595646
 51
251.8340434707735369
  0
LINE
  5
56
100
AcDbEntity
100
AcDbLine
  8
Side - Angle
 62
256
370
-1
  6
ByLayer
 10
103.1322958210268155
 20
12.5795400887981685
 30
0.0
 11
111.8822958210268013
 21
9.7084463387981685
 31
0.0
  0
ARC
  5
57
100
AcDbEntity
  8
Side - Angle
 62
256
370
-1
  6
ByLayer
100
AcDbCircle
 10
114.9999999999996021
 20
19.210020979478216
 30
0.0
 40
9.9999999999999201
100
AcDbArc
 50
251.8340434707763791
 51
255.6832408810481638
  0
LINE
  5
58
100
AcDbEntity
100
AcDbLine
  8
Side - Angle
 62
256
370
-1
  6
ByLayer
 10
112.5271755899660491
 20
9.5205865565027992
 30
0.0
 11
121.2771755899660775
 21
7.2875136398327882
 31
0.0
  0
ARC
  5
59
100
AcDbEntity
  8
Side - Angle
 62
256
370
-1
  6
ByLayer
100
AcDbCircle
 10
123.7500000000003837
 20
16.9769480628081908
 30
0.0
 40
10.0000000000001279
100
AcDbArc
 50
255.6832408810438722
 51
259.6688951556790812
  0
LINE
  5
5A
100
AcDbEntity
100
AcDbLine
  8
Side - Angle
 62
256
370
-1
  6
ByLayer
 10
121.9566367783354508
 20
7.1390698182281227
 30
0.0
 11
130.7066367783354508
 21
5.5440177348981408
 31
0.0
  0
ARC
  5
5B
100
AcDbEntity
  8
Side - Angle
 62
256
370
-1
  6
ByLayer
100
AcDbCircle
 10
132.4999999999996589
 20
15.3818959794778607
 30
0.0
 40
9.9999999999996696
100
AcDbArc
 50
259.6688951556828897
 51
263.7580856525669901
  0
LINE
  5
5C
100
AcDbEntity
100
AcDbLine
  8
Side - Angle
 62
256
370
-1
  6
ByLayer
 10
131.4127340871402225
 20
5.4411790619347826
 30
0.0
 11
140.1627340871402225
 21
4.4841478119317699
 31
0.0
  0
ARC
  5
5D
100
AcDbEntity
  8
Side - Angle
 62
256
370
-1
  6
ByLayer
100
AcDbCircle
 10
141.2499999999999147
 20
14.4248647294749617
 30
0.0
 40
9.9999999999997957
100
AcDbArc
 50
263.7580856525657396
 51
267.9120161672747145
  0
ARC
  5
5E
100
AcDbEntity
  8
Side - Angle
 62
256
370
-1
  6
ByLayer
100
AcDbCircle
 10
158.7500000000000284
 20
14.4248647294752175
 30
0.0
 40
10.0000000000000497
100
AcDbArc
 50
272.0879838327252287
 51
276.2419143474341467
  0
LINE
  5
5F
100
AcDbEntity
100
AcDbLine
  8
Side - Angle
 62
256
370
-1
  6
ByLayer
 10
159.8372659128596638
 20
4.4841478119317912
 30
0.0
 11
168.5872659128596354
 21
5.4411790619347684
 31
0.0
  0
ARC
  5
60
100
AcDbEntity
  8
Side - Angle
 62
256
370
-1
  6
ByLayer
100
AcDbCircle
 10
167.5000000000000568
 20
15.3818959794782444
 30
0.0
 40
10.000000000000087
100
AcDbArc
 50
276.2419143474336352
 51
280.3311048443177356
  0
LINE
  5
61
100
AcDbEntity
100
AcDbLine
  8
Side - Angle
 62
256
370
-1
  6
ByLayer
 10
169.2933632216644639
 20
5.5440177348981194
 30
0.0
 11
178.0433632216644355
 21
7.1390698182281227
 31
0.0
  0
ARC
  5
62
100
AcDbEntity
  8
Side - Angle
 62
256
370
-1
  6
ByLayer
100
AcDbCircle
 10
176.2500000000001137
 20
16.9769480628078426
 30
0.0
 40
9.9999999999996501
100
AcDbArc
 50
280.3311048443179629
 51
284.3167591189531436
  0
LINE
  5
63
100
AcDbEntity
100
AcDbLine
  8
Side - Angle
 62
256
370
-1
  6
ByLayer
 10
178.7228244100338088
 20
7.2875136398327456
 30
0.0
 11
187.4728244100338088
 21
9.5205865565027636
 31
0.0
  0
ARC
  5
64
100
AcDbEntity
  8
Side - Angle
 62
256
370
-1
  6
ByLayer
100
AcDbCircle
 10
184.9999999999999716
 20
19.2100209794782906
 30
0.0
 40
10.0000000000001101
100
AcDbArc
 50
284.3167591189534278
 51
288.1659565292251841
  0
LINE
  5
65
100
AcDbEntity
100
AcDbLine
  8
Side - Angle
 62
256
370
-1
  6
ByLayer
 10
188.1177041789730993
 20
9.7084463387981543
 30
0.0
 11
196.8677041789730993
 21
12.5795400887981543
 31
0.0
  0
ARC
  5
66
100
AcDbEntity
  8
Side - Angle
 62
256
370
-1
  6
ByLayer
100
AcDbCircle
 10
193.7500000000003695
 20
22.0811147294778323
 30
0.0
 40
9.9999999999995666
100
AcDbArc
 50
288.165956529223763
 51
291.8528419496377069
  0
ARC
  5
67
100
AcDbEntity
  8
Side - Angle
 62
256
370
-1
  6
ByLayer
100
AcDbCircle
 10
211.2499999999997726
 20
29.7373647295082719
 30
0.0
 40
10.0000000000001723
100
AcDbArc
 50
295.3590023980369779
 51
298.6731464894356236
  0
LINE
  5
68
100
AcDbEntity
100
AcDbLine
  8
Side - Angle
 62
256
370
-1
  6
ByLayer
 10
216.0481234194270428
 20
20.9636533339843503
 30
0.0
 11
224.7981234194270712
 21
25.7488095839843361
 31
0.0
  0
ARC
  5
69
100
AcDbEntity
  8
Side - Angle
 62
256
370
-1
  6
ByLayer
100
AcDbCircle
 10
220.0000000000009663
 20
34.522520979508073
 30
0.0
 40
9.9999999999994706
100
AcDbArc
 50
298.6731464894299393
 51
301.7902897856665732
  0
LINE
  5
6A
100
AcDbEntity
100
AcDbLine
  8
Side - Angle
 62
256
370
-1
  6
ByLayer
 10
225.2681175218623082
 20
26.0227011122493366
 30
0.0
 11
234.0181175218623082
 21
31.4458781955493905
 31
0.0
  0
ARC
  5
6B
100
AcDbEntity
  8
Side - Angle
 62
256
370
-1
  6
ByLayer
100
AcDbCircle
 10
228.74999999999946
 20
39.9456980628083826
 30
0.0
 40
10.000000000000453
100
AcDbArc
 50
301.7902897856733944
 51
304.710668228949487
  0
LINE
  5
6C
100
AcDbEntity
100
AcDbLine
  8
Side - Angle
 62
256
370
-1
  6
ByLayer
 10
234.4443259326389466
 20
31.7253177691188597
 30
0.0
 11
243.1943259326389182
 21
37.7865156858187063
 31
0.0
  0
ARC
  5
6D
100
AcDbEntity
  8
Side - Angle
 62
256
370
-1
  6
ByLayer
100
AcDbCircle
 10
237.4999999999982947
 20
46.0068959795084638
 30
0.0
 40
10.0000000000012399
100
AcDbArc
 50
304.7106682289544324
 51
307.4385715723395265
  0
ARC
  5
6E
100
AcDbEntity
  8
Side - Angle
 62
256
370
-1
  6
ByLayer
100
AcDbCircle
 10
246.2500000000014495
 20
52.7061147295083003
 30
0.0
 40
9.9999999999991331
100
AcDbArc
 50
307.4385715723260546
 51
309.9812346587837624
  0
LINE
  5
6F
100
AcDbEntity
100
AcDbLine
  8
Side - Angle
 62
256
370
-1
  6
ByLayer
 10
252.6753668264622092
 20
45.0435654705867776
 30
0.0
 11
261.4253668264622092
 21
52.3808050538868528
 31
0.0
  0
ARC
  5
70
100
AcDbEntity
  8
Side - Angle
 62
256
370
-1
  6
ByLayer
100
AcDbCircle
 10
255.0000000000064233
 20
60.0433543128081268
 30
0.0
 40
9.999999999995655
100
AcDbArc
 50
309.9812346587632987
 51
312.3478678610545103
  0
LINE
  5
71
100
AcDbEntity
100
AcDbLine
  8
Side - Angle
 62
256
370
-1
  6
ByLayer
 10
261.736302046795231
 20
52.6526686386410248
 30
0.0
 11
270.486302046795231
 21
60.6279290553409353
 31
0.0
  0
ARC
  5
72
100
AcDbEntity
  8
Side - Angle
 62
256
370
-1
  6
ByLayer
100
AcDbCircle
 10
263.7500000000017053
 20
68.0186147295083146
 30
0.0
 40
9.9999999999988791
100
AcDbArc
 50
312.3478678610740076
 51
314.5488614532047791
  0
LINE
  5
73
100
AcDbEntity
100
AcDbLine
  8
Side - Angle
 62
256
370
-1
  6
ByLayer
 10
270.7651726451431387
 20
60.8920901376166341
 30
0.0
 11
279.5151726451431387
 21
69.5053713876165915
 31
0.0
  0
ARC
  5
74
100
AcDbEntity
  8
Side - Angle
 62
256
370
-1
  6
ByLayer
100
AcDbCircle
 10
272.5000000000022169
 20
76.631895979508414
 30
0.0
 40
9.9999999999985807
100
AcDbArc
 50
314.5488614532025622
 51
316.5951663956979587
  0
ARC
  5
75
100
AcDbEntity
  8
Side - Angle
 62
256
370
-1
  6
ByLayer
100
AcDbCircle
 10
281.2499999999996021
 20
85.8831980628078782
 30
0.0
 40
10.0000000000000977
100
AcDbArc
 50
316.5951663957105779
 51
318.4978351068706957
  0
LINE
  5
76
100
AcDbEntity
100
AcDbLine
  8
Side - Angle
 62
256
370
-1
  6
ByLayer
 10
18.0395656351479374
 20
79.3578900924323705
 30
0.0
 11
21.4753096545314861
 21
75.725306571951208
 31
0.0
  0
LINE
  5
77
100
AcDbEntity
100
AcDbLine
  8
Side - Angle
 62
256
370
-1
  6
ByLayer
 10
92.5776199879514934
 20
22.3900675538712015
 30
0.0
 11
97.0958299038238408
 21
20.2486243124769487
 31
0.0
  0
LINE
  5
78
100
AcDbEntity
100
AcDbLine
  8
Side - Angle
 62
256
370
-1
  6
ByLayer
 10
147.4999999999999432
 20
9.1058543128081624
 30
0.0
 11
152.4999999999999432
 21
9.1058543128081624
 31
0.0
  0
LINE
  5
79
100
AcDbEntity
100
AcDbLine
  8
Side - Angle
 62
256
370
-1
  6
ByLayer
 10
202.9041700961760739
 20
20.2486243124769132
 30
0.0
 11
207.4223800120483929
 21
22.3900675538710772
 31
0.0
  0
LINE
  5
7A
100
AcDbEntity
100
AcDbLine
  8
Side - Angle
 62
256
370
-1
  6
ByLayer
 10
278.5246903454684571
 20
75.7253065719510516
 30
0.0
 11
281.9604343648520057
 21
79.3578900924322284
 31
0.0
  0
LINE
  5
7B
100
AcDbEntity
100
AcDbLine
  8
Side - Angle
 62
256
370
-1
  6
ByLayer
 10
56.6527081713044254
 20
44.1865436197949251
 30
0.0
 11
52.6826803984592829
 21
47.2260961333792437
 31
0.0
  0
LINE
  5
7C
100
AcDbEntity
100
AcDbLine
  8
Side - Angle
 62
256
370
-1
  6
ByLayer
 10
243.3472918286955178
 20
44.1865436197940156
 30
0.0
 11
247.3173196015406461
 21
47.2260961333791656
 31
0.0
  0
LINE
  5
7D
100
AcDbEntity
100
AcDbLine
  8
Side - Angle
 62
256
370
-1
  6
ByLayer
 10
11.4848329590379876
 20
79.0117100240411219
 30
0.0
 11
13.7198333107902499
 21
76.6486627771448639
 31
0.0
  0
LINE
  5
7E
100
AcDbEntity
100
AcDbLine
  8
Side - Angle
 62
256
370
-1
  6
ByLayer
 10
15.1334988187631438
 20
76.6092948769254747
 30
0.0
 11
18.0395656351479374
 21
79.3578900924323705
 31
0.0
  0
ARC
  5
7F
100
AcDbEntity
  8
Side - Angle
 62
256
370
-1
  6
ByLayer
100
AcDbCircle
 10
14.4463500148864341
 20
77.3358115810215736
 30
0.0
 40
1.0
100
AcDbArc
 50
223.4048336042925769
 51
313.4048336042923211
  0
LINE
  5
80
100
AcDbEntity
100
AcDbLine
  8
Side - Angle
 62
256
370
-1
  6
ByLayer
 10
21.4753096545314861
 20
75.725306571951208
 30
0.0
 11
18.5692428381466925
 21
72.9767113564443264
 31
0.0
  0
LINE
  5
81
100
AcDbEntity
100
AcDbLine
  8
Side - Angle
 62
256
370
-1
  6
ByLayer
 10
18.5298749379272181
 20
71.5630458484715177
 30
0.0
 11
20.2348329590379876
 21
69.7604079407411461
 31
0.0
  0
ARC
  5
82
100
AcDbEntity
  8
Side - Angle
 62
256
370
-1
  6
ByLayer
100
AcDbCircle
 10
19.2563916420234023
 20
72.2501946523482985
 30
0.0
 40
1.0
100
AcDbArc
 50
133.4048336042920369
 51
223.4048336042923211
  0
LINE
  5
83
100
AcDbEntity
100
AcDbLine
  8
Side - Angle
 62
256
370
-1
  6
ByLayer
 10
47.6708949728308227
 20
44.7660591838178732
 30
0.0
 11
48.8491223303056046
 21
43.8639788632513046
 31
0.0
  0
LINE
  5
84
100
AcDbEntity
100
AcDbLine
  8
Side - Angle
 62
256
370
-1
  6
ByLayer
 10
52.6826803984592829
 20
47.2260961333792437
 30
0.0
 11
50.251038387591521
 21
44.0500739151033187
 31
0.0
  0
ARC
  5
85
100
AcDbEntity
  8
Side - Angle
 62
256
370
-1
  6
ByLayer
100
AcDbCircle
 10
49.4570328330225095
 20
44.6579844178202734
 30
0.0
 40
1.0
100
AcDbArc
 50
232.5614284276672947
 51
322.5614284276657031
  0
LINE
  5
86
100
AcDbEntity
100
AcDbLine
  8
Side - Angle
 62
256
370
-1
  6
ByLayer
 10
54.2210661604367772
 20
41.0105214015186945
 30
0.0
 11
56.6527081713044254
 21
44.1865436197949251
 31
0.0
  0
LINE
  5
87
100
AcDbEntity
100
AcDbLine
  8
Side - Angle
 62
256
370
-1
  6
ByLayer
 10
54.4071612122889121
 20
39.6086053442328065
 30
0.0
 11
56.4208949728308227
 21
38.0668404338178874
 31
0.0
  0
ARC
  5
88
100
AcDbEntity
  8
Side - Angle
 62
256
370
-1
  6
ByLayer
100
AcDbCircle
 10
55.0150717150058028
 20
40.4026108988019388
 30
0.0
 40
1.0
100
AcDbArc
 50
142.5614284276678632
 51
232.5614284276672947
  0
LINE
  5
89
100
AcDbEntity
100
AcDbLine
  8
Side - Angle
 62
256
370
-1
  6
ByLayer
 10
84.4671135172115157
 20
20.7009448977635095
 30
0.0
 11
89.532534763382813
 21
18.3001462862776592
 31
0.0
  0
LINE
  5
8A
100
AcDbEntity
100
AcDbLine
  8
Side - Angle
 62
256
370
-1
  6
ByLayer
 10
90.8644653948361167
 20
18.7754996211732674
 30
0.0
 11
92.5776199879514934
 21
22.3900675538712015
 31
0.0
  0
ARC
  5
8B
100
AcDbEntity
  8
Side - Angle
 62
256
370
-1
  6
ByLayer
100
AcDbCircle
 10
89.9608234116616359
 20
19.2037882694521187
 30
0.0
 40
1.0
100
AcDbArc
 50
244.6409976019639316
 51
334.6409976019638748
  0
LINE
  5
8C
100
AcDbEntity
100
AcDbLine
  8
Side - Angle
 62
256
370
-1
  6
ByLayer
 10
97.0958299038238408
 20
20.2486243124769487
 30
0.0
 11
95.4521381973224123
 21
16.7806154372490326
 31
0.0
  0
LINE
  5
8D
100
AcDbEntity
100
AcDbLine
  8
Side - Angle
 62
256
370
-1
  6
ByLayer
 10
95.9835561920923652
 20
15.4241838568437615
 30
0.0
 11
102.5277601159548055
 21
12.7996854082139535
 31
0.0
  0
ARC
  5
8E
100
AcDbEntity
  8
Side - Angle
 62
256
370
-1
  6
ByLayer
100
AcDbCircle
 10
96.355780180496879
 20
16.352326788970224
 30
0.0
 40
1.0
100
AcDbArc
 50
154.6409976019641022
 51
248.1471580503605878
  0
LINE
  5
8F
100
AcDbEntity
100
AcDbLine
  8
Side - Angle
 62
256
370
-1
  6
ByLayer
 10
140.885658729297802
 20
4.4315041616549635
 30
0.0
 11
146.4635658729297063
 21
4.2281429637098427
 31
0.0
  0
LINE
  5
90
100
AcDbEntity
100
AcDbLine
  8
Side - Angle
 62
256
370
-1
  6
ByLayer
 10
147.4999999999999147
 20
5.2274790204918702
 30
0.0
 11
147.4999999999999432
 21
9.1058543128081624
 31
0.0
  0
ARC
  5
91
100
AcDbEntity
  8
Side - Angle
 62
256
370
-1
  6
ByLayer
100
AcDbCircle
 10
146.4999999999999147
 20
5.2274790204918702
 30
0.0
 40
1.0
100
AcDbArc
 50
267.9120161672743166
 51
0.0
  0
LINE
  5
92
100
AcDbEntity
100
AcDbLine
  8
Side - Angle
 62
256
370
-1
  6
ByLayer
 10
152.4999999999999432
 20
9.1058543128081624
 30
0.0
 11
152.4999999999999147
 21
5.2274790204918702
 31
0.0
  0
LINE
  5
93
100
AcDbEntity
100
AcDbLine
  8
Side - Angle
 62
256
370
-1
  6
ByLayer
 10
153.5364341270701516
 20
4.2281429637098427
 30
0.0
 11
159.1143412707020843
 21
4.4315041616549919
 31
0.0
  0
ARC
  5
94
100
AcDbEntity
  8
Side - Angle
 62
256
370
-1
  6
ByLayer
100
AcDbCircle
 10
153.4999999999999147
 20
5.2274790204918702
 30
0.0
 40
1.0
100
AcDbArc
 50
180.0
 51
272.0879838327256834
  0
LINE
  5
95
100
AcDbEntity
100
AcDbLine
  8
Side - Angle
 62
256
370
-1
  6
ByLayer
 10
197.4722398840450808
 20
12.7996854082138825
 30
0.0
 11
204.0164438079075353
 21
15.4241838568437402
 31
0.0
  0
LINE
  5
96
100
AcDbEntity
100
AcDbLine
  8
Side - Angle
 62
256
370
-1
  6
ByLayer
 10
204.5478618026774598
 20
16.7806154372489758
 30
0.0
 11
202.9041700961760739
 21
20.2486243124769132
 31
0.0
  0
ARC
  5
97
100
AcDbEntity
  8
Side - Angle
 62
256
370
-1
  6
ByLayer
100
AcDbCircle
 10
203.6442198195030073
 20
16.3523267889701742
 30
0.0
 40
1.0
100
AcDbArc
 50
291.852841949639469
 51
25.3590023980359476
  0
LINE
  5
98
100
AcDbEntity
100
AcDbLine
  8
Side - Angle
 62
256
370
-1
  6
ByLayer
 10
207.4223800120483929
 20
22.3900675538710772
 30
0.0
 11
209.1355346051637412
 21
18.775499621173239
 31
0.0
  0
LINE
  5
99
100
AcDbEntity
100
AcDbLine
  8
Side - Angle
 62
256
370
-1
  6
ByLayer
 10
210.4674652366170733
 20
18.3001462862776272
 30
0.0
 11
215.5328864827883422
 21
20.7009448977634669
 31
0.0
  0
ARC
  5
9A
100
AcDbEntity
  8
Side - Angle
 62
256
370
-1
  6
ByLayer
100
AcDbCircle
 10
210.039176588338222
 20
19.2037882694520619
 30
0.0
 40
1.0
100
AcDbArc
 50
205.3590023980360968
 51
295.3590023980364094
  0
LINE
  5
9B
100
AcDbEntity
100
AcDbLine
  8
Side - Angle
 62
256
370
-1
  6
ByLayer
 10
243.5791050271690779
 20
38.0668404338178306
 30
0.0
 11
245.5928387877109174
 21
39.6086053442326644
 31
0.0
  0
LINE
  5
9C
100
AcDbEntity
100
AcDbLine
  8
Side - Angle
 62
256
370
-1
  6
ByLayer
 10
245.778933839562967
 20
41.0105214015186874
 30
0.0
 11
243.3472918286955178
 21
44.1865436197940156
 31
0.0
  0
ARC
  5
9D
100
AcDbEntity
  8
Side - Angle
 62
256
370
-1
  6
ByLayer
100
AcDbCircle
 10
244.9849282849939982
 20
40.4026108988017114
 30
0.0
 40
1.0
100
AcDbArc
 50
307.4385715723333306
 51
37.4385715723386596
  0
LINE
  5
9E
100
AcDbEntity
100
AcDbLine
  8
Side - Angle
 62
256
370
-1
  6
ByLayer
 10
247.3173196015406461
 20
47.2260961333791656
 30
0.0
 11
249.7489616124083796
 21
44.0500739151032477
 31
0.0
  0
LINE
  5
9F
100
AcDbEntity
100
AcDbLine
  8
Side - Angle
 62
256
370
-1
  6
ByLayer
 10
251.1508776696942959
 20
43.8639788632512264
 30
0.0
 11
252.3291050271690779
 21
44.7660591838178448
 31
0.0
  0
ARC
  5
A0
100
AcDbEntity
  8
Side - Angle
 62
256
370
-1
  6
ByLayer
100
AcDbCircle
 10
250.5429671669774052
 20
44.657984417820245
 30
0.0
 40
1.0
100
AcDbArc
 50
217.4385715723340979
 51
307.4385715723332169
  0
LINE
  5
A1
100
AcDbEntity
100
AcDbLine
  8
Side - Angle
 62
256
370
-1
  6
ByLayer
 10
281.4307571618532506
 20
72.9767113564443832
 30
0.0
 11
278.5246903454684571
 21
75.7253065719510516
 31
0.0
  0
LINE
  5
A2
100
AcDbEntity
100
AcDbLine
  8
Side - Angle
 62
256
370
-1
  6
ByLayer
 10
279.7651670409619555
 20
69.7604079407411177
 30
0.0
 11
281.4701250620727251
 21
71.563045848471404
 31
0.0
  0
ARC
  5
A3
100
AcDbEntity
  8
Side - Angle
 62
256
370
-1
  6
ByLayer
100
AcDbCircle
 10
280.7436083579765409
 20
72.2501946523481422
 30
0.0
 40
1.0
100
AcDbArc
 50
316.5951663957073947
 51
46.5951663957085245
  0
LINE
  5
A4
100
AcDbEntity
100
AcDbLine
  8
Side - Angle
 62
256
370
-1
  6
ByLayer
 10
281.9604343648520057
 20
79.3578900924322284
 30
0.0
 11
284.8665011812368562
 21
76.6092948769253042
 31
0.0
  0
LINE
  5
A5
100
AcDbEntity
100
AcDbLine
  8
Side - Angle
 62
256
370
-1
  6
ByLayer
 10
286.2801666892097501
 20
76.6486627771448354
 30
0.0
 11
288.5151670409619555
 21
79.0117100240409655
 31
0.0
  0
ARC
  5
A6
100
AcDbEntity
  8
Side - Angle
 62
256
370
-1
  6
ByLayer
100
AcDbCircle
 10
285.5536499851135659
 20
77.335811581021602
 30
0.0
 40
1.0
100
AcDbArc
 50
226.5951663957085316
 51
316.5951663957076789
  0
CIRCLE
  5
A7
100
AcDbEntity
100
AcDbCircle
  8
Side - Angle
 62
256
370
-1
  6
ByLayer
 10
149.9999999999999716
 20
74.1058543128081624
 30
0.0
 40
4.0
  0
LINE
  5
A8
100
AcDbEntity
100
AcDbLine
  8
Side - Angle
 62
256
370
-1
  6
ByLayer
 10
288.7393068347848271
 20
79.2567145961083952
 30
0.0
 11
288.641380567533588
 21
79.1460375128083342
 31
0.0
  0
ARC
  5
A9
100
AcDbEntity
  8
Side - Angle
 62
256
370
-1
  6
ByLayer
100
AcDbCircle
 10
281.1520737327487041
 20
85.7725209795081298
 30
0.0
 40
10.0
100
AcDbArc
 50
318.4978351068685356
 51
90.0
  0
LINE
  5
AA
100
AcDbEntity
100
AcDbLine
  8
Side - Angle
 62
256
370
-1
  6
ByLayer
 10
11.3586194324664689
 20
79.1460375128084195
 30
0.0
 11
11.2606931652151161
 21
79.2567145961084094
 31
0.0
  0
LINE
  5
AB
100
AcDbEntity
100
AcDbLine
  8
Side - Angle
 62
256
370
-1
  6
ByLayer
 10
18.8479262672512959
 20
95.7725209795081867
 30
0.0
 11
281.1520737327487041
 21
95.7725209795081724
 31
0.0
  0
ARC
  5
AC
100
AcDbEntity
  8
Side - Angle
 62
256
370
-1
  6
ByLayer
100
AcDbCircle
 10
18.8479262672512959
 20
85.7725209795081014
 30
0.0
 40
10.0
100
AcDbArc
 50
90.0
 51
221.5021648931318339
  0
ARC
  5
AD
100
AcDbEntity
  8
Side - Rotation
 62
256
370
-1
  6
ByLayer
100
AcDbCircle
 10
281.2499999999997158
 20
105.6618438962085662
 30
0.0
 40
9.9999999999996909
100
AcDbArc
 50
41.5021648931277127
 51
43.4048336042879868
  0
ARC
  5
AE
100
AcDbEntity
  8
Side - Rotation
 62
256
370
-1
  6
ByLayer
100
AcDbCircle
 10
272.5000000000000568
 20
114.9131459795086414
 30
0.0
 40
9.9999999999994778
100
AcDbArc
 50
43.4048336042898697
 51
45.4511385467853302
  0
LINE
  5
AF
100
AcDbEntity
100
AcDbLine
  8
Side - Rotation
 62
256
370
-1
  6
ByLayer
 10
279.5151726451431387
 20
122.0396705713994976
 30
0.0
 11
270.7651726451431955
 21
130.6529518213994265
 31
0.0
  0
ARC
  5
B0
100
AcDbEntity
  8
Side - Rotation
 62
256
370
-1
  6
ByLayer
100
AcDbCircle
 10
263.7499999999979536
 20
123.5264272295080019
 30
0.0
 40
10.0000000000015259
100
AcDbArc
 50
45.4511385467797311
 51
47.6521321389105665
  0
LINE
  5
B1
100
AcDbEntity
100
AcDbLine
  8
Side - Rotation
 62
256
370
-1
  6
ByLayer
 10
270.4863020467951742
 20
130.9171129036752745
 30
0.0
 11
261.736302046795231
 21
138.8923733203752136
 31
0.0
  0
ARC
  5
B2
100
AcDbEntity
  8
Side - Rotation
 62
256
370
-1
  6
ByLayer
100
AcDbCircle
 10
255.0000000000018474
 20
131.5016876462078699
 30
0.0
 40
9.9999999999988756
100
AcDbArc
 50
47.6521321389267527
 51
50.0187653412179642
  0
LINE
  5
B3
100
AcDbEntity
100
AcDbLine
  8
Side - Rotation
 62
256
370
-1
  6
ByLayer
 10
261.4253668264622092
 20
139.1642369051294281
 30
0.0
 11
252.6753668264622092
 21
146.5014764884294323
 31
0.0
  0
ARC
  5
B4
100
AcDbEntity
  8
Side - Rotation
 62
256
370
-1
  6
ByLayer
100
AcDbCircle
 10
246.2500000000009948
 20
138.8389272295079877
 30
0.0
 40
9.9999999999993943
100
AcDbArc
 50
50.0187653412140989
 51
52.5614284276717214
  0
ARC
  5
B5
100
AcDbEntity
  8
Side - Rotation
 62
256
370
-1
  6
ByLayer
100
AcDbCircle
 10
237.4999999999982379
 20
145.5381459795082151
 30
0.0
 40
10.0000000000008367
100
AcDbArc
 50
52.5614284276580292
 51
55.2893317710432939
  0
LINE
  5
B6
100
AcDbEntity
100
AcDbLine
  8
Side - Rotation
 62
256
370
-1
  6
ByLayer
 10
243.194325932638975
 20
153.7585262731972762
 30
0.0
 11
234.4443259326389466
 21
159.8197241898973289
 31
0.0
  0
ARC
  5
B7
100
AcDbEntity
  8
Side - Rotation
 62
256
370
-1
  6
ByLayer
100
AcDbCircle
 10
228.750000000000199
 20
151.5993438962080972
 30
0.0
 40
9.9999999999998046
100
AcDbArc
 50
55.2893317710530638
 51
58.2097102143290996
  0
LINE
  5
B8
100
AcDbEntity
100
AcDbLine
  8
Side - Rotation
 62
256
370
-1
  6
ByLayer
 10
234.0181175218623366
 20
160.0991637634667768
 30
0.0
 11
225.2681175218623366
 21
165.5223408467668378
 31
0.0
  0
ARC
  5
B9
100
AcDbEntity
  8
Side - Rotation
 62
256
370
-1
  6
ByLayer
100
AcDbCircle
 10
220.0000000000005684
 20
157.0225209795083288
 30
0.0
 40
9.9999999999994316
100
AcDbArc
 50
58.2097102143301655
 51
61.3268535105670125
  0
LINE
  5
BA
100
AcDbEntity
100
AcDbLine
  8
Side - Rotation
 62
256
370
-1
  6
ByLayer
 10
224.7981234194270996
 20
165.7962323750319342
 30
0.0
 11
216.0481234194270712
 21
170.5813886250319342
 31
0.0
  0
ARC
  5
BB
100
AcDbEntity
  8
Side - Rotation
 62
256
370
-1
  6
ByLayer
100
AcDbCircle
 10
211.2499999999995168
 20
161.8076772295082151
 30
0.0
 40
10.0000000000000888
100
AcDbArc
 50
61.3268535105622306
 51
64.6409976019608905
  0
ARC
  5
BC
100
AcDbEntity
  8
Side - Rotation
 62
256
370
-1
  6
ByLayer
100
AcDbCircle
 10
193.7499999999997726
 20
169.4639272295380579
 30
0.0
 40
10.0000000000000888
100
AcDbArc
 50
68.1471580503595789
 51
71.8340434707735369
  0
LINE
  5
BD
100
AcDbEntity
100
AcDbLine
  8
Side - Rotation
 62
256
370
-1
  6
ByLayer
 10
196.8677041789730993
 20
178.9655018702180769
 30
0.0
 11
188.1177041789730993
 21
181.8365956202181337
 31
0.0
  0
ARC
  5
BE
100
AcDbEntity
  8
Side - Rotation
 62
256
370
-1
  6
ByLayer
100
AcDbCircle
 10
185.0000000000003126
 20
172.3350209795380579
 30
0.0
 40
9.9999999999999201
100
AcDbArc
 50
71.8340434707763791
 51
75.6832408810481638
  0
LINE
  5
BF
100
AcDbEntity
100
AcDbLine
  8
Side - Rotation
 62
256
370
-1
  6
ByLayer
 10
187.4728244100338657
 20
182.0244554025134676
 30
0.0
 11
178.7228244100338657
 21
184.2575283191834501
 31
0.0
  0
ARC
  5
C0
100
AcDbEntity
  8
Side - Rotation
 62
256
370
-1
  6
ByLayer
100
AcDbCircle
 10
176.2499999999995453
 20
174.5680938962080404
 30
0.0
 40
10.0000000000001279
100
AcDbArc
 50
75.6832408810438864
 51
79.6688951556791096
  0
LINE
  5
C1
100
AcDbEntity
100
AcDbLine
  8
Side - Rotation
 62
256
370
-1
  6
ByLayer
 10
178.0433632216644924
 20
184.4059721407881511
 30
0.0
 11
169.2933632216644639
 21
186.0010242241181118
 31
0.0
  0
ARC
  5
C2
100
AcDbEntity
  8
Side - Rotation
 62
256
370
-1
  6
ByLayer
100
AcDbCircle
 10
167.5000000000002842
 20
176.1631459795383989
 30
0.0
 40
9.9999999999996696
100
AcDbArc
 50
79.6688951556828755
 51
83.7580856525669901
  0
LINE
  5
C3
100
AcDbEntity
100
AcDbLine
  8
Side - Rotation
 62
256
370
-1
  6
ByLayer
 10
168.5872659128597206
 20
186.1038628970814557
 30
0.0
 11
159.8372659128596638
 21
187.0608941470845252
 31
0.0
  0
ARC
  5
C4
100
AcDbEntity
  8
Side - Rotation
 62
256
370
-1
  6
ByLayer
100
AcDbCircle
 10
158.7500000000000284
 20
177.1201772295412979
 30
0.0
 40
9.9999999999997957
100
AcDbArc
 50
83.7580856525657111
 51
87.912016167274686
  0
ARC
  5
C5
100
AcDbEntity
  8
Side - Rotation
 62
256
370
-1
  6
ByLayer
100
AcDbCircle
 10
141.2499999999999147
 20
177.1201772295410706
 30
0.0
 40
10.0000000000000497
100
AcDbArc
 50
92.0879838327252003
 51
96.2419143474341325
  0
LINE
  5
C6
100
AcDbEntity
100
AcDbLine
  8
Side - Rotation
 62
256
370
-1
  6
ByLayer
 10
140.1627340871402794
 20
187.0608941470844684
 30
0.0
 11
131.4127340871402225
 21
186.1038628970814557
 31
0.0
  0
ARC
  5
C7
100
AcDbEntity
  8
Side - Rotation
 62
256
370
-1
  6
ByLayer
100
AcDbCircle
 10
132.4999999999998295
 20
176.163145979538001
 30
0.0
 40
10.000000000000087
100
AcDbArc
 50
96.2419143474336209
 51
100.3311048443176929
  0
LINE
  5
C8
100
AcDbEntity
100
AcDbLine
  8
Side - Rotation
 62
256
370
-1
  6
ByLayer
 10
130.7066367783354792
 20
186.0010242241181686
 30
0.0
 11
121.9566367783355076
 21
184.4059721407881511
 31
0.0
  0
ARC
  5
C9
100
AcDbEntity
  8
Side - Rotation
 62
256
370
-1
  6
ByLayer
100
AcDbCircle
 10
123.7499999999998153
 20
174.5680938962084383
 30
0.0
 40
9.9999999999996501
100
AcDbArc
 50
100.3311048443178919
 51
104.3167591189532146
  0
LINE
  5
CA
100
AcDbEntity
100
AcDbLine
  8
Side - Rotation
 62
256
370
-1
  6
ByLayer
 10
121.2771755899661343
 20
184.2575283191835638
 30
0.0
 11
112.5271755899661201
 21
182.0244554025135244
 31
0.0
  0
ARC
  5
CB
100
AcDbEntity
  8
Side - Rotation
 62
256
370
-1
  6
ByLayer
100
AcDbCircle
 10
114.9999999999999432
 20
172.335020979538001
 30
0.0
 40
10.0000000000001101
100
AcDbArc
 50
104.3167591189534136
 51
108.1659565292251983
  0
LINE
  5
CC
100
AcDbEntity
100
AcDbLine
  8
Side - Rotation
 62
256
370
-1
  6
ByLayer
 10
111.8822958210268439
 20
181.8365956202181337
 30
0.0
 11
103.1322958210268723
 21
178.9655018702181906
 31
0.0
  0
ARC
  5
CD
100
AcDbEntity
  8
Side - Rotation
 62
256
370
-1
  6
ByLayer
100
AcDbCircle
 10
106.2499999999995737
 20
169.4639272295384558
 30
0.0
 40
9.9999999999995666
100
AcDbArc
 50
108.165956529223763
 51
111.8528419496377353
  0
ARC
  5
CE
100
AcDbEntity
  8
Side - Rotation
 62
256
370
-1
  6
ByLayer
100
AcDbCircle
 10
88.7500000000001421
 20
161.8076772295079877
 30
0.0
 40
10.0000000000001723
100
AcDbArc
 50
115.359002398036921
 51
118.6731464894356378
  0
LINE
  5
CF
100
AcDbEntity
100
AcDbLine
  8
Side - Rotation
 62
256
370
-1
  6
ByLayer
 10
83.9518765805728577
 20
170.5813886250319342
 30
0.0
 11
75.2018765805728577
 21
165.7962323750319342
 31
0.0
  0
ARC
  5
D0
100
AcDbEntity
  8
Side - Rotation
 62
256
370
-1
  6
ByLayer
100
AcDbCircle
 10
79.9999999999989342
 20
157.0225209795082151
 30
0.0
 40
9.9999999999994706
100
AcDbArc
 50
118.6731464894299251
 51
121.79028978566663
  0
LINE
  5
D1
100
AcDbEntity
100
AcDbLine
  8
Side - Rotation
 62
256
370
-1
  6
ByLayer
 10
74.7318824781376208
 20
165.5223408467670083
 30
0.0
 11
65.9818824781375923
 21
160.0991637634668905
 31
0.0
  0
ARC
  5
D2
100
AcDbEntity
  8
Side - Rotation
 62
256
370
-1
  6
ByLayer
100
AcDbCircle
 10
71.250000000000469
 20
151.599343896207813
 30
0.0
 40
10.000000000000453
100
AcDbArc
 50
121.7902897856733375
 51
124.7106682289494728
  0
LINE
  5
D3
100
AcDbEntity
100
AcDbLine
  8
Side - Rotation
 62
256
370
-1
  6
ByLayer
 10
65.5556740673609681
 20
159.8197241898973289
 30
0.0
 11
56.8056740673610108
 21
153.7585262731976741
 31
0.0
  0
ARC
  5
D4
100
AcDbEntity
  8
Side - Rotation
 62
256
370
-1
  6
ByLayer
100
AcDbCircle
 10
62.50000000000162
 20
145.5381459795078172
 30
0.0
 40
10.0000000000012399
100
AcDbArc
 50
124.7106682289543613
 51
127.4385715723395265
  0
ARC
  5
D5
100
AcDbEntity
  8
Side - Rotation
 62
256
370
-1
  6
ByLayer
100
AcDbCircle
 10
53.7499999999984652
 20
138.8389272295079877
 30
0.0
 40
9.9999999999991331
100
AcDbArc
 50
127.4385715723259977
 51
129.9812346587837624
  0
LINE
  5
D6
100
AcDbEntity
100
AcDbLine
  8
Side - Rotation
 62
256
370
-1
  6
ByLayer
 10
47.3246331735376913
 20
146.5014764884297733
 30
0.0
 11
38.5746331735376913
 21
139.1642369051294281
 31
0.0
  0
ARC
  5
D7
100
AcDbEntity
  8
Side - Rotation
 62
256
370
-1
  6
ByLayer
100
AcDbCircle
 10
44.9999999999935056
 20
131.5016876462081541
 30
0.0
 40
9.999999999995655
100
AcDbArc
 50
129.9812346587632987
 51
132.3478678610545103
  0
LINE
  5
D8
100
AcDbEntity
100
AcDbLine
  8
Side - Rotation
 62
256
370
-1
  6
ByLayer
 10
38.2636979532047121
 20
138.8923733203752704
 30
0.0
 11
29.5136979532047121
 21
130.9171129036753314
 31
0.0
  0
ARC
  5
D9
100
AcDbEntity
  8
Side - Rotation
 62
256
370
-1
  6
ByLayer
100
AcDbCircle
 10
36.2499999999981668
 20
123.5264272295080588
 30
0.0
 40
9.9999999999988791
100
AcDbArc
 50
132.3478678610740644
 51
134.5488614532048075
  0
LINE
  5
DA
100
AcDbEntity
100
AcDbLine
  8
Side - Rotation
 62
256
370
-1
  6
ByLayer
 10
29.2348273548567477
 20
130.6529518213996539
 30
0.0
 11
20.4848273548567477
 21
122.0396705713994976
 31
0.0
  0
ARC
  5
DB
100
AcDbEntity
  8
Side - Rotation
 62
256
370
-1
  6
ByLayer
100
AcDbCircle
 10
27.4999999999976836
 20
114.9131459795078882
 30
0.0
 40
9.9999999999985807
100
AcDbArc
 50
134.5488614532025622
 51
136.5951663956979587
  0
ARC
  5
DC
100
AcDbEntity
  8
Side - Rotation
 62
256
370
-1
  6
ByLayer
100
AcDbCircle
 10
18.7500000000002842
 20
105.6618438962083957
 30
0.0
 40
10.0000000000000977
100
AcDbArc
 50
136.5951663957105779
 51
138.4978351068706672
  0
LINE
  5
DD
100
AcDbEntity
100
AcDbLine
  8
Side - Rotation
 62
256
370
-1
  6
ByLayer
 10
281.9604343648519489
 20
112.1871518665839602
 30
0.0
 11
278.5246903454684002
 21
115.8197353870650659
 31
0.0
  0
LINE
  5
DE
100
AcDbEntity
100
AcDbLine
  8
Side - Rotation
 62
256
370
-1
  6
ByLayer
 10
207.4223800120484213
 20
169.154974405145083
 30
0.0
 11
202.9041700961761023
 21
171.2964176465392256
 31
0.0
  0
LINE
  5
DF
100
AcDbEntity
100
AcDbLine
  8
Side - Rotation
 62
256
370
-1
  6
ByLayer
 10
152.5000000000000284
 20
182.4391876462080972
 30
0.0
 11
147.5
 21
182.4391876462080972
 31
0.0
  0
LINE
  5
E0
100
AcDbEntity
100
AcDbLine
  8
Side - Rotation
 62
256
370
-1
  6
ByLayer
 10
97.0958299038238266
 20
171.2964176465393962
 30
0.0
 11
92.577619987951536
 21
169.1549744051451967
 31
0.0
  0
LINE
  5
E1
100
AcDbEntity
100
AcDbLine
  8
Side - Rotation
 62
256
370
-1
  6
ByLayer
 10
21.4753096545314293
 20
115.8197353870652222
 30
0.0
 11
18.0395656351478806
 21
112.1871518665840597
 31
0.0
  0
LINE
  5
E2
100
AcDbEntity
100
AcDbLine
  8
Side - Rotation
 62
256
370
-1
  6
ByLayer
 10
243.3472918286954894
 20
147.3584983392213985
 30
0.0
 11
247.3173196015406461
 21
144.3189458256366038
 31
0.0
  0
LINE
  5
E3
100
AcDbEntity
100
AcDbLine
  8
Side - Rotation
 62
256
370
-1
  6
ByLayer
 10
56.652708171304397
 20
147.3584983392224217
 30
0.0
 11
52.6826803984592686
 21
144.3189458256367743
 31
0.0
  0
LINE
  5
E4
100
AcDbEntity
100
AcDbLine
  8
Side - Rotation
 62
256
370
-1
  6
ByLayer
 10
288.5151670409619555
 20
112.5333319349751378
 30
0.0
 11
286.2801666892096932
 21
114.8963791818713958
 31
0.0
  0
LINE
  5
E5
100
AcDbEntity
100
AcDbLine
  8
Side - Rotation
 62
256
370
-1
  6
ByLayer
 10
284.8665011812367993
 20
114.9357470820908418
 30
0.0
 11
281.9604343648519489
 21
112.1871518665839602
 31
0.0
  0
ARC
  5
E6
100
AcDbEntity
  8
Side - Rotation
 62
256
370
-1
  6
ByLayer
100
AcDbCircle
 10
285.553649985113509
 20
114.2092303779947429
 30
0.0
 40
1.0
100
AcDbArc
 50
43.4048336042925627
 51
133.4048336042923495
  0
LINE
  5
E7
100
AcDbEntity
100
AcDbLine
  8
Side - Rotation
 62
256
370
-1
  6
ByLayer
 10
278.5246903454684002
 20
115.8197353870650659
 30
0.0
 11
281.4307571618531938
 21
118.5683306025719475
 31
0.0
  0
LINE
  5
E8
100
AcDbEntity
100
AcDbLine
  8
Side - Rotation
 62
256
370
-1
  6
ByLayer
 10
281.4701250620726682
 20
119.981996110544813
 30
0.0
 11
279.7651670409618987
 21
121.7846340182748719
 31
0.0
  0
ARC
  5
E9
100
AcDbEntity
  8
Side - Rotation
 62
256
370
-1
  6
ByLayer
100
AcDbCircle
 10
280.7436083579764841
 20
119.2948473066679753
 30
0.0
 40
1.0
100
AcDbArc
 50
313.4048336042920369
 51
43.4048336042923069
  0
LINE
  5
EA
100
AcDbEntity
100
AcDbLine
  8
Side - Rotation
 62
256
370
-1
  6
ByLayer
 10
252.3291050271690779
 20
146.7789827751985854
 30
0.0
 11
251.1508776696942959
 21
147.6810630957648982
 31
0.0
  0
LINE
  5
EB
100
AcDbEntity
100
AcDbLine
  8
Side - Rotation
 62
256
370
-1
  6
ByLayer
 10
247.3173196015406461
 20
144.3189458256366038
 30
0.0
 11
249.7489616124083796
 21
147.494968043912877
 31
0.0
  0
ARC
  5
EC
100
AcDbEntity
  8
Side - Rotation
 62
256
370
-1
  6
ByLayer
100
AcDbCircle
 10
250.5429671669774052
 20
146.8870575411959862
 30
0.0
 40
1.0
100
AcDbArc
 50
52.5614284276672876
 51
142.56142842766576
  0
LINE
  5
ED
100
AcDbEntity
100
AcDbLine
  8
Side - Rotation
 62
256
370
-1
  6
ByLayer
 10
245.7789338395631376
 20
150.5345205574975012
 30
0.0
 11
243.3472918286954894
 21
147.3584983392213985
 31
0.0
  0
LINE
  5
EE
100
AcDbEntity
100
AcDbLine
  8
Side - Rotation
 62
256
370
-1
  6
ByLayer
 10
245.5928387877110026
 20
151.9364366147833039
 30
0.0
 11
243.5791050271690779
 21
153.4782015251983012
 31
0.0
  0
ARC
  5
EF
100
AcDbEntity
  8
Side - Rotation
 62
256
370
-1
  6
ByLayer
100
AcDbCircle
 10
244.9849282849941119
 20
151.1424310602141645
 30
0.0
 40
1.0
100
AcDbArc
 50
322.56142842766792
 51
52.5614284276672876
  0
LINE
  5
F0
100
AcDbEntity
100
AcDbLine
  8
Side - Rotation
 62
256
370
-1
  6
ByLayer
 10
215.5328864827884274
 20
170.8440970612526826
 30
0.0
 11
210.4674652366171301
 21
173.2448956727386076
 31
0.0
  0
LINE
  5
F1
100
AcDbEntity
100
AcDbLine
  8
Side - Rotation
 62
256
370
-1
  6
ByLayer
 10
209.135534605163798
 20
172.7695423378430064
 30
0.0
 11
207.4223800120484213
 21
169.154974405145083
 31
0.0
  0
ARC
  5
F2
100
AcDbEntity
  8
Side - Rotation
 62
256
370
-1
  6
ByLayer
100
AcDbCircle
 10
210.0391765883383073
 20
172.3412536895640983
 30
0.0
 40
1.0
100
AcDbArc
 50
64.6409976019639458
 51
154.6409976019638748
  0
LINE
  5
F3
100
AcDbEntity
100
AcDbLine
  8
Side - Rotation
 62
256
370
-1
  6
ByLayer
 10
202.9041700961761023
 20
171.2964176465392256
 30
0.0
 11
204.547861802677545
 21
174.7644265217671773
 31
0.0
  0
LINE
  5
F4
100
AcDbEntity
100
AcDbLine
  8
Side - Rotation
 62
256
370
-1
  6
ByLayer
 10
204.0164438079075921
 20
176.1208581021724058
 30
0.0
 11
197.472239884045166
 21
178.7453565508022848
 31
0.0
  0
ARC
  5
F5
100
AcDbEntity
  8
Side - Rotation
 62
256
370
-1
  6
ByLayer
100
AcDbCircle
 10
203.6442198195030642
 20
175.1927151700460286
 30
0.0
 40
1.0
100
AcDbArc
 50
334.6409976019641022
 51
68.1471580503605878
  0
LINE
  5
F6
100
AcDbEntity
100
AcDbLine
  8
Side - Rotation
 62
256
370
-1
  6
ByLayer
 10
159.1143412707021412
 20
187.113537797361289
 30
0.0
 11
153.5364341270702369
 21
187.316898995306417
 31
0.0
  0
LINE
  5
F7
100
AcDbEntity
100
AcDbLine
  8
Side - Rotation
 62
256
370
-1
  6
ByLayer
 10
152.5000000000000284
 20
186.3175629385244179
 30
0.0
 11
152.5000000000000284
 21
182.4391876462080972
 31
0.0
  0
ARC
  5
F8
100
AcDbEntity
  8
Side - Rotation
 62
256
370
-1
  6
ByLayer
100
AcDbCircle
 10
153.4999999999999716
 20
186.3175629385244179
 30
0.0
 40
1.0
100
AcDbArc
 50
87.9120161672743308
 51
180.0
  0
LINE
  5
F9
100
AcDbEntity
100
AcDbLine
  8
Side - Rotation
 62
256
370
-1
  6
ByLayer
 10
147.5
 20
182.4391876462080972
 30
0.0
 11
147.5
 21
186.3175629385244179
 31
0.0
  0
LINE
  5
FA
100
AcDbEntity
100
AcDbLine
  8
Side - Rotation
 62
256
370
-1
  6
ByLayer
 10
146.4635658729297916
 20
187.316898995306417
 30
0.0
 11
140.8856587292978588
 21
187.113537797361289
 31
0.0
  0
ARC
  5
FB
100
AcDbEntity
  8
Side - Rotation
 62
256
370
-1
  6
ByLayer
100
AcDbCircle
 10
146.5000000000000284
 20
186.3175629385244179
 30
0.0
 40
1.0
100
AcDbArc
 50
360.0
 51
92.0879838327256692
  0
LINE
  5
FC
100
AcDbEntity
100
AcDbLine
  8
Side - Rotation
 62
256
370
-1
  6
ByLayer
 10
102.5277601159548198
 20
178.7453565508023416
 30
0.0
 11
95.9835561920924079
 21
176.1208581021725195
 31
0.0
  0
LINE
  5
FD
100
AcDbEntity
100
AcDbLine
  8
Side - Rotation
 62
256
370
-1
  6
ByLayer
 10
95.452138197322455
 20
174.764426521767291
 30
0.0
 11
97.0958299038238266
 21
171.2964176465393962
 31
0.0
  0
ARC
  5
FE
100
AcDbEntity
  8
Side - Rotation
 62
256
370
-1
  6
ByLayer
100
AcDbCircle
 10
96.3557801804969358
 20
175.1927151700461991
 30
0.0
 40
1.0
100
AcDbArc
 50
111.8528419496394548
 51
205.3590023980359547
  0
LINE
  5
FF
100
AcDbEntity
100
AcDbLine
  8
Side - Rotation
 62
256
370
-1
  6
ByLayer
 10
92.577619987951536
 20
169.1549744051451967
 30
0.0
 11
90.8644653948361736
 21
172.7695423378430064
 31
0.0
  0
LINE
  5
100
100
AcDbEntity
100
AcDbLine
  8
Side - Rotation
 62
256
370
-1
  6
ByLayer
 10
89.5325347633828414
 20
173.2448956727386644
 30
0.0
 11
84.4671135172115868
 21
170.8440970612527963
 31
0.0
  0
ARC
  5
101
100
AcDbEntity
  8
Side - Rotation
 62
256
370
-1
  6
ByLayer
100
AcDbCircle
 10
89.9608234116617069
 20
172.341253689564212
 30
0.0
 40
1.0
100
AcDbArc
 50
25.359002398036111
 51
115.3590023980364094
  0
LINE
  5
102
100
AcDbEntity
100
AcDbLine
  8
Side - Rotation
 62
256
370
-1
  6
ByLayer
 10
56.4208949728308369
 20
153.478201525198358
 30
0.0
 11
54.4071612122889974
 21
151.9364366147837018
 31
0.0
  0
LINE
  5
103
100
AcDbEntity
100
AcDbLine
  8
Side - Rotation
 62
256
370
-1
  6
ByLayer
 10
54.2210661604369335
 20
150.5345205574975012
 30
0.0
 11
56.652708171304397
 21
147.3584983392224217
 31
0.0
  0
ARC
  5
104
100
AcDbEntity
  8
Side - Rotation
 62
256
370
-1
  6
ByLayer
100
AcDbCircle
 10
55.0150717150059023
 20
151.1424310602143919
 30
0.0
 40
1.0
100
AcDbArc
 50
127.4385715723333163
 51
217.4385715723386738
  0
LINE
  5
105
100
AcDbEntity
100
AcDbLine
  8
Side - Rotation
 62
256
370
-1
  6
ByLayer
 10
52.6826803984592686
 20
144.3189458256367743
 30
0.0
 11
50.2510383875915352
 21
147.4949680439127633
 31
0.0
  0
LINE
  5
106
100
AcDbEntity
100
AcDbLine
  8
Side - Rotation
 62
256
370
-1
  6
ByLayer
 10
48.8491223303056046
 20
147.6810630957649551
 30
0.0
 11
47.6708949728308369
 21
146.7789827751984717
 31
0.0
  0
ARC
  5
107
100
AcDbEntity
  8
Side - Rotation
 62
256
370
-1
  6
ByLayer
100
AcDbCircle
 10
49.4570328330225237
 20
146.8870575411963273
 30
0.0
 40
1.0
100
AcDbArc
 50
37.4385715723341335
 51
127.4385715723332169
  0
LINE
  5
108
100
AcDbEntity
100
AcDbLine
  8
Side - Rotation
 62
256
370
-1
  6
ByLayer
 10
18.5692428381466925
 20
118.5683306025718764
 30
0.0
 11
21.4753096545314293
 21
115.8197353870652222
 31
0.0
  0
LINE
  5
109
100
AcDbEntity
100
AcDbLine
  8
Side - Rotation
 62
256
370
-1
  6
ByLayer
 10
20.2348329590379876
 20
121.7846340182751561
 30
0.0
 11
18.5298749379272181
 21
119.9819961105448698
 31
0.0
  0
ARC
  5
10A
100
AcDbEntity
  8
Side - Rotation
 62
256
370
-1
  6
ByLayer
100
AcDbCircle
 10
19.2563916420234023
 20
119.2948473066681316
 30
0.0
 40
1.0
100
AcDbArc
 50
136.5951663957073379
 51
226.5951663957085316
  0
LINE
  5
10B
100
AcDbEntity
100
AcDbLine
  8
Side - Rotation
 62
256
370
-1
  6
ByLayer
 10
18.0395656351478806
 20
112.1871518665840597
 30
0.0
 11
15.1334988187630302
 21
114.9357470820909413
 31
0.0
  0
LINE
  5
10C
100
AcDbEntity
100
AcDbLine
  8
Side - Rotation
 62
256
370
-1
  6
ByLayer
 10
13.7198333107901362
 20
114.8963791818714384
 30
0.0
 11
11.4848329590379308
 21
112.5333319349753225
 31
0.0
  0
ARC
  5
10D
100
AcDbEntity
  8
Side - Rotation
 62
256
370
-1
  6
ByLayer
100
AcDbCircle
 10
14.4463500148863204
 20
114.2092303779946576
 30
0.0
 40
1.0
100
AcDbArc
 50
46.5951663957085529
 51
136.5951663957077358
  0
CIRCLE
  5
10E
100
AcDbEntity
100
AcDbCircle
  8
Side - Rotation
 62
256
370
-1
  6
ByLayer
 10
149.9999999999999716
 20
117.4391876462081115
 30
0.0
 40
11.0
  0
LINE
  5
10F
100
AcDbEntity
100
AcDbLine
  8
Side - Rotation
 62
256
370
-1
  6
ByLayer
 10
11.2606931652151161
 20
112.2883273629079071
 30
0.0
 11
11.3586194324663552
 21
112.3990044462079396
 31
0.0
  0
ARC
  5
110
100
AcDbEntity
  8
Side - Rotation
 62
256
370
-1
  6
ByLayer
100
AcDbCircle
 10
18.8479262672511823
 20
105.7725209795081298
 30
0.0
 40
10.0
100
AcDbArc
 50
138.4978351068685072
 51
270.0
  0
LINE
  5
111
100
AcDbEntity
100
AcDbLine
  8
Side - Rotation
 62
256
370
-1
  6
ByLayer
 10
288.6413805675335311
 20
112.3990044462078828
 30
0.0
 11
288.7393068347847702
 21
112.2883273629079213
 31
0.0
  0
ARC
  5
112
100
AcDbEntity
  8
Side - Rotation
 62
256
370
-1
  6
ByLayer
100
AcDbCircle
 10
281.1520737327487041
 20
105.7725209795080872
 30
0.0
 40
10.0
100
AcDbArc
 50
270.0
 51
41.5021648931314786
  0
LINE
  5
113
100
AcDbEntity
100
AcDbLine
  8
Rib
 62
256
370
-1
  6
ByLayer
 10
281.25
 20
123.4994333919692338
 30
0.0
 11
272.5
 21
132.7507354752692379
 31
0.0
  0
LINE
  5
114
100
AcDbEntity
100
AcDbLine
  8
Rib
 62
256
370
-1
  6
ByLayer
 10
272.5
 20
132.7507354752692379
 30
0.0
 11
263.75
 21
141.3640167252691526
 31
0.0
  0
LINE
  5
115
100
AcDbEntity
100
AcDbLine
  8
Rib
 62
256
370
-1
  6
ByLayer
 10
263.75
 20
141.3640167252691526
 30
0.0
 11
255.0
 21
149.3392771419692338
 31
0.0
  0
LINE
  5
116
100
AcDbEntity
100
AcDbLine
  8
Rib
 62
256
370
-1
  6
ByLayer
 10
255.0
 20
149.3392771419692338
 30
0.0
 11
246.25
 21
156.6765167252689253
 31
0.0
  0
LINE
  5
117
100
AcDbEntity
100
AcDbLine
  8
Rib
 62
256
370
-1
  6
ByLayer
 10
246.25
 20
156.6765167252689253
 30
0.0
 11
237.5
 21
163.3757354752689253
 31
0.0
  0
LINE
  5
118
100
AcDbEntity
100
AcDbLine
  8
Rib
 62
256
370
-1
  6
ByLayer
 10
237.5
 20
163.3757354752689253
 30
0.0
 11
228.75
 21
169.4369333919692338
 31
0.0
  0
LINE
  5
119
100
AcDbEntity
100
AcDbLine
  8
Rib
 62
256
370
-1
  6
ByLayer
 10
228.75
 20
169.4369333919692338
 30
0.0
 11
220.0
 21
174.8601104752691526
 31
0.0
  0
LINE
  5
11A
100
AcDbEntity
100
AcDbLine
  8
Rib
 62
256
370
-1
  6
ByLayer
 10
220.0
 20
174.8601104752691526
 30
0.0
 11
211.25
 21
179.6452667252691526
 31
0.0
  0
LINE
  5
11B
100
AcDbEntity
100
AcDbLine
  8
Rib
 62
256
370
-1
  6
ByLayer
 10
211.25
 20
179.6452667252691526
 30
0.0
 11
202.5
 21
183.7924021419691485
 31
0.0
  0
LINE
  5
11C
100
AcDbEntity
100
AcDbLine
  8
Rib
 62
256
370
-1
  6
ByLayer
 10
202.5
 20
183.7924021419691485
 30
0.0
 11
193.75
 21
187.3015167252991091
 31
0.0
  0
LINE
  5
11D
100
AcDbEntity
100
AcDbLine
  8
Rib
 62
256
370
-1
  6
ByLayer
 10
193.75
 20
187.3015167252991091
 30
0.0
 11
185.0
 21
190.1726104752991091
 31
0.0
  0
LINE
  5
11E
100
AcDbEntity
100
AcDbLine
  8
Rib
 62
256
370
-1
  6
ByLayer
 10
185.0
 20
190.1726104752991091
 30
0.0
 11
176.2499999999999716
 21
192.4056833919691485
 31
0.0
  0
LINE
  5
11F
100
AcDbEntity
100
AcDbLine
  8
Rib
 62
256
370
-1
  6
ByLayer
 10
176.2499999999999716
 20
192.4056833919691485
 30
0.0
 11
167.4999999999999716
 21
194.0007354752991375
 31
0.0
  0
LINE
  5
120
100
AcDbEntity
100
AcDbLine
  8
Rib
 62
256
370
-1
  6
ByLayer
 10
167.4999999999999716
 20
194.0007354752991375
 30
0.0
 11
158.75
 21
194.9577667253021502
 31
0.0
  0
LINE
  5
121
100
AcDbEntity
100
AcDbLine
  8
Rib
 62
256
370
-1
  6
ByLayer
 10
158.75
 20
194.9577667253021502
 30
0.0
 11
150.0
 21
195.2767771419691485
 31
0.0
  0
LINE
  5
122
100
AcDbEntity
100
AcDbLine
  8
Rib
 62
256
370
-1
  6
ByLayer
 10
150.0
 20
195.2767771419691485
 30
0.0
 11
141.2499999999999716
 21
194.9577667253021502
 31
0.0
  0
LINE
  5
123
100
AcDbEntity
100
AcDbLine
  8
Rib
 62
256
370
-1
  6
ByLayer
 10
141.2499999999999716
 20
194.9577667253021502
 30
0.0
 11
132.4999999999999716
 21
194.0007354752991375
 31
0.0
  0
LINE
  5
124
100
AcDbEntity
100
AcDbLine
  8
Rib
 62
256
370
-1
  6
ByLayer
 10
132.4999999999999716
 20
194.0007354752991375
 30
0.0
 11
123.7499999999999716
 21
192.4056833919691485
 31
0.0
  0
LINE
  5
125
100
AcDbEntity
100
AcDbLine
  8
Rib
 62
256
370
-1
  6
ByLayer
 10
123.7499999999999716
 20
192.4056833919691485
 30
0.0
 11
115.0
 21
190.1726104752991375
 31
0.0
  0
LINE
  5
126
100
AcDbEntity
100
AcDbLine
  8
Rib
 62
256
370
-1
  6
ByLayer
 10
115.0
 20
190.1726104752991375
 30
0.0
 11
106.25
 21
187.301516725299166
 31
0.0
  0
LINE
  5
127
100
AcDbEntity
100
AcDbLine
  8
Rib
 62
256
370
-1
  6
ByLayer
 10
106.25
 20
187.301516725299166
 30
0.0
 11
97.5
 21
183.7924021419691769
 31
0.0
  0
LINE
  5
128
100
AcDbEntity
100
AcDbLine
  8
Rib
 62
256
370
-1
  6
ByLayer
 10
97.5
 20
183.7924021419691769
 30
0.0
 11
88.75
 21
179.6452667252692095
 31
0.0
  0
LINE
  5
129
100
AcDbEntity
100
AcDbLine
  8
Rib
 62
256
370
-1
  6
ByLayer
 10
88.75
 20
179.6452667252692095
 30
0.0
 11
80.0
 21
174.8601104752692095
 31
0.0
  0
LINE
  5
12A
100
AcDbEntity
100
AcDbLine
  8
Rib
 62
256
370
-1
  6
ByLayer
 10
80.0
 20
174.8601104752692095
 30
0.0
 11
71.25
 21
169.4369333919691485
 31
0.0
  0
LINE
  5
12B
100
AcDbEntity
100
AcDbLine
  8
Rib
 62
256
370
-1
  6
ByLayer
 10
71.25
 20
169.4369333919691485
 30
0.0
 11
62.4999999999999858
 21
163.3757354752689821
 31
0.0
  0
LINE
  5
12C
100
AcDbEntity
100
AcDbLine
  8
Rib
 62
256
370
-1
  6
ByLayer
 10
62.4999999999999858
 20
163.3757354752689821
 30
0.0
 11
53.7499999999999858
 21
156.6765167252689537
 31
0.0
  0
LINE
  5
12D
100
AcDbEntity
100
AcDbLine
  8
Rib
 62
256
370
-1
  6
ByLayer
 10
53.7499999999999858
 20
156.6765167252689537
 30
0.0
 11
44.9999999999999858
 21
149.3392771419690632
 31
0.0
  0
LINE
  5
12E
100
AcDbEntity
100
AcDbLine
  8
Rib
 62
256
370
-1
  6
ByLayer
 10
44.9999999999999858
 20
149.3392771419690632
 30
0.0
 11
36.2499999999999716
 21
141.3640167252691811
 31
0.0
  0
LINE
  5
12F
100
AcDbEntity
100
AcDbLine
  8
Rib
 62
256
370
-1
  6
ByLayer
 10
36.2499999999999716
 20
141.3640167252691811
 30
0.0
 11
27.4999999999999716
 21
132.7507354752691811
 31
0.0
  0
LINE
  5
130
100
AcDbEntity
100
AcDbLine
  8
Rib
 62
256
370
-1
  6
ByLayer
 10
27.4999999999999716
 20
132.7507354752691811
 30
0.0
 11
18.75
 21
123.4994333919691769
 31
0.0
  0
ARC
  5
131
100
AcDbEntity
  8
Rib
 62
256
370
-1
  6
ByLayer
100
AcDbCircle
 10
281.2500000000001705
 20
123.4994333919690632
 30
0.0
 40
9.9999999999999503
100
AcDbArc
 50
41.5021648931329565
 51
43.4048336042931737
  0
ARC
  5
132
100
AcDbEntity
  8
Rib
 62
256
370
-1
  6
ByLayer
100
AcDbCircle
 10
272.5000000000001137
 20
132.7507354752689821
 30
0.0
 40
10.0000000000000338
100
AcDbArc
 50
43.4048336042931737
 51
45.4511385467886413
  0
LINE
  5
133
100
AcDbEntity
100
AcDbLine
  8
Rib
 62
256
370
-1
  6
ByLayer
 10
279.5151726451431955
 20
139.8772600671605915
 30
0.0
 11
270.7651726451431955
 21
148.4905413171605915
 31
0.0
  0
ARC
  5
134
100
AcDbEntity
  8
Rib
 62
256
370
-1
  6
ByLayer
100
AcDbCircle
 10
263.75
 20
141.36401672526884
 30
0.0
 40
10.0000000000001279
100
AcDbArc
 50
45.4511385467881794
 51
47.6521321389189154
  0
LINE
  5
135
100
AcDbEntity
100
AcDbLine
  8
Rib
 62
256
370
-1
  6
ByLayer
 10
270.486302046795231
 20
148.7547023994363826
 30
0.0
 11
261.736302046795231
 21
156.7299628161362364
 31
0.0
  0
ARC
  5
136
100
AcDbEntity
  8
Rib
 62
256
370
-1
  6
ByLayer
100
AcDbCircle
 10
255.0000000000001705
 20
149.3392771419689211
 30
0.0
 40
10.0000000000000089
100
AcDbArc
 50
47.6521321389193204
 51
50.0187653412105391
  0
LINE
  5
137
100
AcDbEntity
100
AcDbLine
  8
Rib
 62
256
370
-1
  6
ByLayer
 10
261.4253668264622092
 20
157.0018264008903088
 30
0.0
 11
252.6753668264622661
 21
164.3390659841905119
 31
0.0
  0
ARC
  5
138
100
AcDbEntity
  8
Rib
 62
256
370
-1
  6
ByLayer
100
AcDbCircle
 10
246.2499999999998295
 20
156.6765167252689253
 30
0.0
 40
10.0000000000001474
100
AcDbArc
 50
50.0187653412087059
 51
52.5614284276662715
  0
ARC
  5
139
100
AcDbEntity
  8
Rib
 62
256
370
-1
  6
ByLayer
100
AcDbCircle
 10
237.5000000000003411
 20
163.3757354752694084
 30
0.0
 40
9.9999999999996074
100
AcDbArc
 50
52.5614284276676997
 51
55.2893317710529644
  0
LINE
  5
13A
100
AcDbEntity
100
AcDbLine
  8
Rib
 62
256
370
-1
  6
ByLayer
 10
243.1943259326390034
 20
171.5961157689584127
 30
0.0
 11
234.444325932638975
 21
177.657313685658437
 31
0.0
  0
ARC
  5
13B
100
AcDbEntity
  8
Rib
 62
256
370
-1
  6
ByLayer
100
AcDbCircle
 10
228.7499999999998863
 20
169.4369333919692053
 30
0.0
 40
9.9999999999999964
100
AcDbArc
 50
55.289331771051387
 51
58.2097102143274157
  0
LINE
  5
13C
100
AcDbEntity
100
AcDbLine
  8
Rib
 62
256
370
-1
  6
ByLayer
 10
234.018117521862365
 20
177.9367532592279417
 30
0.0
 11
225.2681175218623366
 21
183.359930342527889
 31
0.0
  0
ARC
  5
13D
100
AcDbEntity
  8
Rib
 62
256
370
-1
  6
ByLayer
100
AcDbCircle
 10
220.0000000000001705
 20
174.8601104752692095
 30
0.0
 40
9.9999999999998561
100
AcDbArc
 50
58.2097102143288936
 51
61.3268535105656909
  0
LINE
  5
13E
100
AcDbEntity
100
AcDbLine
  8
Rib
 62
256
370
-1
  6
ByLayer
 10
224.7981234194270996
 20
183.6338218707929855
 30
0.0
 11
216.0481234194270996
 21
188.418978120792957
 31
0.0
  0
ARC
  5
13F
100
AcDbEntity
  8
Rib
 62
256
370
-1
  6
ByLayer
100
AcDbCircle
 10
211.2499999999998295
 20
179.6452667252689821
 30
0.0
 40
10.0000000000001599
100
AcDbArc
 50
61.3268535105644688
 51
64.640997601963079
  0
ARC
  5
140
100
AcDbEntity
  8
Rib
 62
256
370
-1
  6
ByLayer
100
AcDbCircle
 10
193.75
 20
187.3015167252992228
 30
0.0
 40
9.9999999999999059
100
AcDbArc
 50
68.1471580503605452
 51
71.8340434707745032
  0
LINE
  5
141
100
AcDbEntity
100
AcDbLine
  8
Rib
 62
256
370
-1
  6
ByLayer
 10
196.8677041789731277
 20
196.8030913659791281
 30
0.0
 11
188.1177041789731277
 21
199.6741851159791281
 31
0.0
  0
ARC
  5
142
100
AcDbEntity
  8
Rib
 62
256
370
-1
  6
ByLayer
100
AcDbCircle
 10
185.0
 20
190.1726104752991091
 30
0.0
 40
10.0000000000000124
100
AcDbArc
 50
71.8340434707745459
 51
75.6832408810463306
  0
LINE
  5
143
100
AcDbEntity
100
AcDbLine
  8
Rib
 62
256
370
-1
  6
ByLayer
 10
187.4728244100338657
 20
199.8620448982745472
 30
0.0
 11
178.7228244100338372
 21
202.0951178149445582
 31
0.0
  0
ARC
  5
144
100
AcDbEntity
  8
Rib
 62
256
370
-1
  6
ByLayer
100
AcDbCircle
 10
176.25
 20
192.4056833919690916
 30
0.0
 40
10.0000000000000391
100
AcDbArc
 50
75.6832408810462312
 51
79.6688951556813976
  0
LINE
  5
145
100
AcDbEntity
100
AcDbLine
  8
Rib
 62
256
370
-1
  6
ByLayer
 10
178.0433632216644924
 20
202.243561636549174
 30
0.0
 11
169.2933632216644639
 21
203.8386137198791914
 31
0.0
  0
ARC
  5
146
100
AcDbEntity
  8
Rib
 62
256
370
-1
  6
ByLayer
100
AcDbCircle
 10
167.5000000000000284
 20
194.0007354752992512
 30
0.0
 40
9.9999999999999023
100
AcDbArc
 50
79.6688951556815965
 51
83.7580856525657111
  0
LINE
  5
147
100
AcDbEntity
100
AcDbLine
  8
Rib
 62
256
370
-1
  6
ByLayer
 10
168.5872659128597206
 20
203.9414523928425069
 30
0.0
 11
159.8372659128597206
 21
204.898483642845548
 31
0.0
  0
ARC
  5
148
100
AcDbEntity
  8
Rib
 62
256
370
-1
  6
ByLayer
100
AcDbCircle
 10
158.75
 20
194.9577667253022355
 30
0.0
 40
9.9999999999999201
100
AcDbArc
 50
83.758085652565569
 51
87.9120161672745439
  0
ARC
  5
149
100
AcDbEntity
  8
Rib
 62
256
370
-1
  6
ByLayer
100
AcDbCircle
 10
141.2500000000000284
 20
194.9577667253021787
 30
0.0
 40
9.9999999999999574
100
AcDbArc
 50
92.0879838327255129
 51
96.241914347434431
  0
LINE
  5
14A
100
AcDbEntity
100
AcDbLine
  8
Rib
 62
256
370
-1
  6
ByLayer
 10
140.1627340871403078
 20
204.898483642845548
 30
0.0
 11
131.4127340871403362
 21
203.9414523928425638
 31
0.0
  0
ARC
  5
14B
100
AcDbEntity
  8
Rib
 62
256
370
-1
  6
ByLayer
100
AcDbCircle
 10
132.5000000000000568
 20
194.0007354752991375
 30
0.0
 40
10.0000000000000142
100
AcDbArc
 50
96.2419143474347436
 51
100.3311048443188014
  0
LINE
  5
14C
100
AcDbEntity
100
AcDbLine
  8
Rib
 62
256
370
-1
  6
ByLayer
 10
130.7066367783355645
 20
203.8386137198792198
 30
0.0
 11
121.9566367783355076
 21
202.243561636549174
 31
0.0
  0
ARC
  5
14D
100
AcDbEntity
  8
Rib
 62
256
370
-1
  6
ByLayer
100
AcDbCircle
 10
123.75
 20
192.4056833919692053
 30
0.0
 40
9.9999999999999361
100
AcDbArc
 50
100.3311048443186024
 51
104.3167591189538257
  0
LINE
  5
14E
100
AcDbEntity
100
AcDbLine
  8
Rib
 62
256
370
-1
  6
ByLayer
 10
121.2771755899661628
 20
202.0951178149445866
 30
0.0
 11
112.5271755899661201
 21
199.8620448982745472
 31
0.0
  0
ARC
  5
14F
100
AcDbEntity
  8
Rib
 62
256
370
-1
  6
ByLayer
100
AcDbCircle
 10
115.0000000000000711
 20
190.172610475299166
 30
0.0
 40
10.000000000000032
100
AcDbArc
 50
104.3167591189540246
 51
108.1659565292258094
  0
LINE
  5
150
100
AcDbEntity
100
AcDbLine
  8
Rib
 62
256
370
-1
  6
ByLayer
 10
111.8822958210268439
 20
199.6741851159791281
 30
0.0
 11
103.1322958210268439
 21
196.8030913659791281
 31
0.0
  0
ARC
  5
151
100
AcDbEntity
  8
Rib
 62
256
370
-1
  6
ByLayer
100
AcDbCircle
 10
106.2499999999999716
 20
187.3015167252993933
 30
0.0
 40
9.9999999999997975
100
AcDbArc
 50
108.1659565292255962
 51
111.8528419496395543
  0
ARC
  5
152
100
AcDbEntity
  8
Rib
 62
256
370
-1
  6
ByLayer
100
AcDbCircle
 10
88.7500000000001137
 20
179.6452667252690389
 30
0.0
 40
10.0000000000001457
100
AcDbArc
 50
115.3590023980367221
 51
118.6731464894353252
  0
LINE
  5
153
100
AcDbEntity
100
AcDbLine
  8
Rib
 62
256
370
-1
  6
ByLayer
 10
83.9518765805728862
 20
188.4189781207930139
 30
0.0
 11
75.2018765805729004
 21
183.6338218707930423
 31
0.0
  0
ARC
  5
154
100
AcDbEntity
  8
Rib
 62
256
370
-1
  6
ByLayer
100
AcDbCircle
 10
79.9999999999999858
 20
174.8601104752692095
 30
0.0
 40
9.9999999999999982
100
AcDbArc
 50
118.6731464894349131
 51
121.7902897856717175
  0
LINE
  5
155
100
AcDbEntity
100
AcDbLine
  8
Rib
 62
256
370
-1
  6
ByLayer
 10
74.7318824781376065
 20
183.359930342527889
 30
0.0
 11
65.981882478137635
 21
177.9367532592279986
 31
0.0
  0
ARC
  5
156
100
AcDbEntity
  8
Rib
 62
256
370
-1
  6
ByLayer
100
AcDbCircle
 10
71.2499999999999432
 20
169.4369333919692906
 30
0.0
 40
9.9999999999999165
100
AcDbArc
 50
121.790289785671618
 51
124.7106682289477533
  0
LINE
  5
157
100
AcDbEntity
100
AcDbLine
  8
Rib
 62
256
370
-1
  6
ByLayer
 10
65.5556740673610108
 20
177.6573136856584938
 30
0.0
 11
56.8056740673609966
 21
171.5961157689584695
 31
0.0
  0
ARC
  5
158
100
AcDbEntity
  8
Rib
 62
256
370
-1
  6
ByLayer
100
AcDbCircle
 10
62.5
 20
163.3757354752689821
 30
0.0
 40
10.000000000000032
100
AcDbArc
 50
124.7106682289478528
 51
127.4385715723330179
  0
ARC
  5
159
100
AcDbEntity
  8
Rib
 62
256
370
-1
  6
ByLayer
100
AcDbCircle
 10
53.7499999999996874
 20
156.6765167252689537
 30
0.0
 40
9.9999999999998863
100
AcDbArc
 50
127.4385715723312842
 51
129.9812346587890488
  0
LINE
  5
15A
100
AcDbEntity
100
AcDbLine
  8
Rib
 62
256
370
-1
  6
ByLayer
 10
47.3246331735377197
 20
164.339065984190654
 30
0.0
 11
38.5746331735377197
 21
157.0018264008903941
 31
0.0
  0
ARC
  5
15B
100
AcDbEntity
  8
Rib
 62
256
370
-1
  6
ByLayer
100
AcDbCircle
 10
45.0000000000000711
 20
149.3392771419692338
 30
0.0
 40
9.9999999999999574
100
AcDbArc
 50
129.9812346587916068
 51
132.3478678610828183
  0
LINE
  5
15C
100
AcDbEntity
100
AcDbLine
  8
Rib
 62
256
370
-1
  6
ByLayer
 10
38.2636979532047405
 20
156.7299628161362932
 30
0.0
 11
29.5136979532047405
 21
148.7547023994363826
 31
0.0
  0
ARC
  5
15D
100
AcDbEntity
  8
Rib
 62
256
370
-1
  6
ByLayer
100
AcDbCircle
 10
36.2499999999997016
 20
141.3640167252690389
 30
0.0
 40
9.999999999999897
100
AcDbArc
 50
132.3478678610801751
 51
134.5488614532110034
  0
LINE
  5
15E
100
AcDbEntity
100
AcDbLine
  8
Rib
 62
256
370
-1
  6
ByLayer
 10
29.2348273548567761
 20
148.4905413171606199
 30
0.0
 11
20.4848273548568045
 21
139.8772600671605915
 31
0.0
  0
ARC
  5
15F
100
AcDbEntity
  8
Rib
 62
256
370
-1
  6
ByLayer
100
AcDbCircle
 10
27.4999999999995168
 20
132.7507354752688968
 30
0.0
 40
9.9999999999998597
100
AcDbArc
 50
134.5488614532097813
 51
136.5951663957050926
  0
ARC
  5
160
100
AcDbEntity
  8
Rib
 62
256
370
-1
  6
ByLayer
100
AcDbCircle
 10
18.7499999999998863
 20
123.4994333919693901
 30
0.0
 40
9.9999999999997815
100
AcDbArc
 50
136.595166395708759
 51
138.4978351068689335
  0
LINE
  5
161
100
AcDbEntity
100
AcDbLine
  8
Rib
 62
256
370
-1
  6
ByLayer
 10
288.0120549599901096
 20
115.8569025257046405
 30
0.0
 11
281.25
 21
123.4994333919692338
 31
0.0
  0
ARC
  5
162
100
AcDbEntity
  8
Rib
 62
256
370
-1
  6
ByLayer
100
AcDbCircle
 10
290.2588470104255407
 20
117.8448475657145025
 30
0.0
 40
3.0
100
AcDbArc
 50
221.5021648931317202
 51
311.5021648931315781
  0
LINE
  5
163
100
AcDbEntity
100
AcDbLine
  8
Rib
 62
256
370
-1
  6
ByLayer
 10
295.242514784349396
 20
118.2486489019588589
 30
0.0
 11
292.2467920504354311
 21
115.598055515279043
 31
0.0
  0
LINE
  5
164
100
AcDbEntity
100
AcDbLine
  8
Rib
 62
256
370
-1
  6
ByLayer
 10
295.5013617947749367
 20
122.483385992404294
 30
0.0
 11
288.7393068347848271
 21
130.1259168586688872
 31
0.0
  0
ARC
  5
165
100
AcDbEntity
  8
Rib
 62
256
370
-1
  6
ByLayer
100
AcDbCircle
 10
293.2545697443393919
 20
120.4954409523943184
 30
0.0
 40
3.0
100
AcDbArc
 50
311.5021648931316918
 51
41.5021648931316847
  0
LINE
  5
166
100
AcDbEntity
100
AcDbLine
  8
Rib
 62
256
370
-1
  6
ByLayer
 10
18.75
 20
123.4994333919691769
 30
0.0
 11
11.9879450400098904
 21
115.8569025257046121
 31
0.0
  0
ARC
  5
167
100
AcDbEntity
  8
Rib
 62
256
370
-1
  6
ByLayer
100
AcDbCircle
 10
9.7411529895744593
 20
117.8448475657145451
 30
0.0
 40
3.0
100
AcDbArc
 50
228.4978351068682798
 51
318.4978351068681945
  0
LINE
  5
168
100
AcDbEntity
100
AcDbLine
  8
Rib
 62
256
370
-1
  6
ByLayer
 10
7.7532079495645121
 20
115.5980555152790714
 30
0.0
 11
4.757485215650604
 21
118.2486489019589868
 31
0.0
  0
LINE
  5
169
100
AcDbEntity
100
AcDbLine
  8
Rib
 62
256
370
-1
  6
ByLayer
 10
11.2606931652151729
 20
130.1259168586689441
 30
0.0
 11
4.4986382052250633
 21
122.4833859924043509
 31
0.0
  0
ARC
  5
16A
100
AcDbEntity
  8
Rib
 62
256
370
-1
  6
ByLayer
100
AcDbCircle
 10
6.7454302556605512
 20
120.495440952394361
 30
0.0
 40
3.0
100
AcDbArc
 50
138.497835106868223
 51
228.4978351068684788
  0
LINE
  5
16B
100
AcDbEntity
100
AcDbLine
  8
Rib
 62
256
370
-1
  6
ByLayer
 10
281.9604343648520057
 20
130.0247413623450825
 30
0.0
 11
278.5246903454684571
 21
133.657324882825975
 31
0.0
  0
LINE
  5
16C
100
AcDbEntity
100
AcDbLine
  8
Rib
 62
256
370
-1
  6
ByLayer
 10
207.4223800120484498
 20
186.9925639009061911
 30
0.0
 11
202.9041700961761308
 21
189.1340071423003906
 31
0.0
  0
LINE
  5
16D
100
AcDbEntity
100
AcDbLine
  8
Rib
 62
256
370
-1
  6
ByLayer
 10
152.5000000000000284
 20
200.2767771419691769
 30
0.0
 11
147.5
 21
200.2767771419691769
 31
0.0
  0
LINE
  5
16E
100
AcDbEntity
100
AcDbLine
  8
Rib
 62
256
370
-1
  6
ByLayer
 10
97.0958299038238977
 20
189.1340071423004474
 30
0.0
 11
92.5776199879515644
 21
186.9925639009062479
 31
0.0
  0
LINE
  5
16F
100
AcDbEntity
100
AcDbLine
  8
Rib
 62
256
370
-1
  6
ByLayer
 10
21.4753096545314861
 20
133.6573248828262308
 30
0.0
 11
18.0395656351479374
 21
130.0247413623452246
 31
0.0
  0
LINE
  5
170
100
AcDbEntity
100
AcDbLine
  8
Rib
 62
256
370
-1
  6
ByLayer
 10
288.5151670409619555
 20
130.3709214307363027
 30
0.0
 11
286.2801666892097501
 21
132.7339686776325038
 31
0.0
  0
LINE
  5
171
100
AcDbEntity
100
AcDbLine
  8
Rib
 62
256
370
-1
  6
ByLayer
 10
284.8665011812367993
 20
132.7733365778518078
 30
0.0
 11
281.9604343648520057
 21
130.0247413623450825
 31
0.0
  0
ARC
  5
172
100
AcDbEntity
  8
Rib
 62
256
370
-1
  6
ByLayer
100
AcDbCircle
 10
285.5536499851135659
 20
132.0468198737556804
 30
0.0
 40
1.0
100
AcDbArc
 50
43.4048336042920013
 51
133.4048336042919516
  0
LINE
  5
173
100
AcDbEntity
100
AcDbLine
  8
Rib
 62
256
370
-1
  6
ByLayer
 10
281.4701250620727251
 20
137.8195856063056794
 30
0.0
 11
279.7651670409619555
 21
139.6222235140361931
 31
0.0
  0
LINE
  5
174
100
AcDbEntity
100
AcDbLine
  8
Rib
 62
256
370
-1
  6
ByLayer
 10
278.5246903454684571
 20
133.657324882825975
 30
0.0
 11
281.4307571618532506
 21
136.4059200983329561
 31
0.0
  0
ARC
  5
175
100
AcDbEntity
  8
Rib
 62
256
370
-1
  6
ByLayer
100
AcDbCircle
 10
280.7436083579765409
 20
137.1324368024290266
 30
0.0
 40
1.0
100
AcDbArc
 50
313.4048336042920369
 51
43.4048336042923069
  0
LINE
  5
176
100
AcDbEntity
100
AcDbLine
  8
Rib
 62
256
370
-1
  6
ByLayer
 10
215.532886482788399
 20
188.6816865570138191
 30
0.0
 11
210.4674652366171301
 21
191.0824851684996588
 31
0.0
  0
LINE
  5
177
100
AcDbEntity
100
AcDbLine
  8
Rib
 62
256
370
-1
  6
ByLayer
 10
209.1355346051638548
 20
190.6071318336040292
 30
0.0
 11
207.4223800120484498
 21
186.9925639009061911
 31
0.0
  0
ARC
  5
178
100
AcDbEntity
  8
Rib
 62
256
370
-1
  6
ByLayer
100
AcDbCircle
 10
210.0391765883382789
 20
190.1788431853252632
 30
0.0
 40
1.0
100
AcDbArc
 50
64.640997601963889
 51
154.6409976019637895
  0
LINE
  5
179
100
AcDbEntity
100
AcDbLine
  8
Rib
 62
256
370
-1
  6
ByLayer
 10
202.9041700961761308
 20
189.1340071423003906
 30
0.0
 11
204.5478618026775735
 21
192.6020160175282285
 31
0.0
  0
LINE
  5
17A
100
AcDbEntity
100
AcDbLine
  8
Rib
 62
256
370
-1
  6
ByLayer
 10
204.0164438079075921
 20
193.9584475979335139
 30
0.0
 11
197.4722398840451376
 21
196.5829460465633929
 31
0.0
  0
ARC
  5
17B
100
AcDbEntity
  8
Rib
 62
256
370
-1
  6
ByLayer
100
AcDbCircle
 10
203.6442198195030926
 20
193.0303046658070798
 30
0.0
 40
1.0
100
AcDbArc
 50
334.6409976019638179
 51
68.1471580503605878
  0
LINE
  5
17C
100
AcDbEntity
100
AcDbLine
  8
Rib
 62
256
370
-1
  6
ByLayer
 10
159.1143412707021696
 20
204.9511272931223118
 30
0.0
 11
153.5364341270702369
 21
205.1544884910674398
 31
0.0
  0
LINE
  5
17D
100
AcDbEntity
100
AcDbLine
  8
Rib
 62
256
370
-1
  6
ByLayer
 10
152.5000000000000284
 20
204.1551524342854407
 30
0.0
 11
152.5000000000000284
 21
200.2767771419691769
 31
0.0
  0
ARC
  5
17E
100
AcDbEntity
  8
Rib
 62
256
370
-1
  6
ByLayer
100
AcDbCircle
 10
153.5
 20
204.1551524342854407
 30
0.0
 40
1.0
100
AcDbArc
 50
87.9120161672744445
 51
180.0
  0
LINE
  5
17F
100
AcDbEntity
100
AcDbLine
  8
Rib
 62
256
370
-1
  6
ByLayer
 10
147.5
 20
200.2767771419691769
 30
0.0
 11
147.5
 21
204.1551524342854407
 31
0.0
  0
LINE
  5
180
100
AcDbEntity
100
AcDbLine
  8
Rib
 62
256
370
-1
  6
ByLayer
 10
146.46356587292982
 20
205.1544884910674398
 30
0.0
 11
140.8856587292978588
 21
204.9511272931223118
 31
0.0
  0
ARC
  5
181
100
AcDbEntity
  8
Rib
 62
256
370
-1
  6
ByLayer
100
AcDbCircle
 10
146.5000000000000284
 20
204.1551524342854407
 30
0.0
 40
1.0
100
AcDbArc
 50
360.0
 51
92.0879838327255129
  0
LINE
  5
182
100
AcDbEntity
100
AcDbLine
  8
Rib
 62
256
370
-1
  6
ByLayer
 10
102.5277601159548766
 20
196.5829460465634213
 30
0.0
 11
95.9835561920924221
 21
193.9584475979335423
 31
0.0
  0
LINE
  5
183
100
AcDbEntity
100
AcDbLine
  8
Rib
 62
256
370
-1
  6
ByLayer
 10
95.452138197322455
 20
192.602016017528257
 30
0.0
 11
97.0958299038238977
 21
189.1340071423004474
 31
0.0
  0
ARC
  5
184
100
AcDbEntity
  8
Rib
 62
256
370
-1
  6
ByLayer
100
AcDbCircle
 10
96.35578018049695
 20
193.0303046658071651
 30
0.0
 40
1.0
100
AcDbArc
 50
111.8528419496393553
 51
205.3590023980362105
  0
LINE
  5
185
100
AcDbEntity
100
AcDbLine
  8
Rib
 62
256
370
-1
  6
ByLayer
 10
92.5776199879515644
 20
186.9925639009062479
 30
0.0
 11
90.8644653948361736
 21
190.6071318336040576
 31
0.0
  0
LINE
  5
186
100
AcDbEntity
100
AcDbLine
  8
Rib
 62
256
370
-1
  6
ByLayer
 10
89.5325347633828699
 20
191.0824851684997157
 30
0.0
 11
84.467113517211601
 21
188.6816865570138759
 31
0.0
  0
ARC
  5
187
100
AcDbEntity
  8
Rib
 62
256
370
-1
  6
ByLayer
100
AcDbCircle
 10
89.9608234116617353
 20
190.1788431853252916
 30
0.0
 40
1.0
100
AcDbArc
 50
25.3590023980362638
 51
115.35900239803631
  0
LINE
  5
188
100
AcDbEntity
100
AcDbLine
  8
Rib
 62
256
370
-1
  6
ByLayer
 10
20.2348329590379876
 20
139.6222235140361363
 30
0.0
 11
18.5298749379272181
 21
137.8195856063057931
 31
0.0
  0
LINE
  5
189
100
AcDbEntity
100
AcDbLine
  8
Rib
 62
256
370
-1
  6
ByLayer
 10
18.5692428381466925
 20
136.4059200983330697
 30
0.0
 11
21.4753096545314861
 21
133.6573248828262308
 31
0.0
  0
ARC
  5
18A
100
AcDbEntity
  8
Rib
 62
256
370
-1
  6
ByLayer
100
AcDbCircle
 10
19.2563916420234023
 20
137.1324368024292539
 30
0.0
 40
1.0
100
AcDbArc
 50
136.5951663957083611
 51
226.5951663957079631
  0
LINE
  5
18B
100
AcDbEntity
100
AcDbLine
  8
Rib
 62
256
370
-1
  6
ByLayer
 10
18.0395656351479374
 20
130.0247413623452246
 30
0.0
 11
15.1334988187631438
 21
132.7733365778519214
 31
0.0
  0
LINE
  5
18C
100
AcDbEntity
100
AcDbLine
  8
Rib
 62
256
370
-1
  6
ByLayer
 10
13.7198333107902499
 20
132.7339686776325038
 30
0.0
 11
11.4848329590379876
 21
130.3709214307363027
 31
0.0
  0
ARC
  5
18D
100
AcDbEntity
  8
Rib
 62
256
370
-1
  6
ByLayer
100
AcDbCircle
 10
14.4463500148864341
 20
132.0468198737558509
 30
0.0
 40
1.0
100
AcDbArc
 50
46.5951663957082474
 51
136.5951663957080484
  0
LINE
  5
18E
100
AcDbEntity
100
AcDbLine
  8
Rib
 62
256
370
-1
  6
ByLayer
 10
56.4208949728308653
 20
171.3157910209594661
 30
0.0
 11
53.6131556577198722
 21
169.1661156078275781
 31
0.0
  0
LINE
  5
18F
100
AcDbEntity
100
AcDbLine
  8
Rib
 62
256
370
-1
  6
ByLayer
 10
49.6431278848747439
 20
166.1265630942432097
 30
0.0
 11
47.6708949728308653
 21
164.6165722709596082
 31
0.0
  0
LINE
  5
190
100
AcDbEntity
100
AcDbLine
  8
Rib
 62
256
370
-1
  6
ByLayer
 10
243.3472918286955178
 20
165.1960878349823929
 30
0.0
 11
247.3173196015406745
 21
162.1565353213973992
 31
0.0
  0
LINE
  5
191
100
AcDbEntity
100
AcDbLine
  8
Rib
 62
256
370
-1
  6
ByLayer
 10
247.3173196015406745
 20
162.1565353213973992
 30
0.0
 11
250.3568721151252134
 21
166.1265630942430676
 31
0.0
  0
LINE
  5
192
100
AcDbEntity
100
AcDbLine
  8
Rib
 62
256
370
-1
  6
ByLayer
 10
246.3868443422801136
 20
169.1661156078275212
 30
0.0
 11
243.3472918286955178
 21
165.1960878349823929
 31
0.0
  0
LINE
  5
193
100
AcDbEntity
100
AcDbLine
  8
Rib
 62
256
370
-1
  6
ByLayer
 10
252.3291050271691347
 20
164.6165722709594661
 30
0.0
 11
250.3568721151252134
 21
166.1265630942430676
 31
0.0
  0
LINE
  5
194
100
AcDbEntity
100
AcDbLine
  8
Rib
 62
256
370
-1
  6
ByLayer
 10
246.3868443422800851
 20
169.1661156078275212
 30
0.0
 11
243.5791050271691347
 21
171.3157910209594093
 31
0.0
  0
LINE
  5
195
100
AcDbEntity
100
AcDbLine
  8
Rib
 62
256
370
-1
  6
ByLayer
 10
56.6527081713044396
 20
165.1960878349831319
 30
0.0
 11
52.6826803984592971
 21
162.1565353213974561
 31
0.0
  0
LINE
  5
196
100
AcDbEntity
100
AcDbLine
  8
Rib
 62
256
370
-1
  6
ByLayer
 10
52.6826803984592971
 20
162.1565353213974561
 30
0.0
 11
49.6431278848747439
 21
166.1265630942432097
 31
0.0
  0
LINE
  5
197
100
AcDbEntity
100
AcDbLine
  8
Rib
 62
256
370
-1
  6
ByLayer
 10
53.6131556577198722
 20
169.1661156078275781
 30
0.0
 11
56.6527081713044396
 21
165.1960878349831319
 31
0.0
  0
LINE
  5
198
100
AcDbEntity
100
AcDbLine
  8
Rib
 62
256
370
-1
  6
ByLayer
 10
281.25
 20
143.4994333919692338
 30
0.0
 11
272.5
 21
152.7507354752692379
 31
0.0
  0
LINE
  5
199
100
AcDbEntity
100
AcDbLine
  8
Rib
 62
256
370
-1
  6
ByLayer
 10
272.5
 20
152.7507354752692379
 30
0.0
 11
263.75
 21
161.3640167252691526
 31
0.0
  0
LINE
  5
19A
100
AcDbEntity
100
AcDbLine
  8
Rib
 62
256
370
-1
  6
ByLayer
 10
263.75
 20
161.3640167252691526
 30
0.0
 11
255.0
 21
169.3392771419692338
 31
0.0
  0
LINE
  5
19B
100
AcDbEntity
100
AcDbLine
  8
Rib
 62
256
370
-1
  6
ByLayer
 10
255.0
 20
169.3392771419692338
 30
0.0
 11
246.25
 21
176.6765167252689253
 31
0.0
  0
LINE
  5
19C
100
AcDbEntity
100
AcDbLine
  8
Rib
 62
256
370
-1
  6
ByLayer
 10
246.25
 20
176.6765167252689253
 30
0.0
 11
237.5
 21
183.3757354752689253
 31
0.0
  0
LINE
  5
19D
100
AcDbEntity
100
AcDbLine
  8
Rib
 62
256
370
-1
  6
ByLayer
 10
237.5
 20
183.3757354752689253
 30
0.0
 11
228.75
 21
189.4369333919692338
 31
0.0
  0
LINE
  5
19E
100
AcDbEntity
100
AcDbLine
  8
Rib
 62
256
370
-1
  6
ByLayer
 10
228.75
 20
189.4369333919692338
 30
0.0
 11
220.0
 21
194.8601104752691526
 31
0.0
  0
LINE
  5
19F
100
AcDbEntity
100
AcDbLine
  8
Rib
 62
256
370
-1
  6
ByLayer
 10
220.0
 20
194.8601104752691526
 30
0.0
 11
211.25
 21
199.6452667252691526
 31
0.0
  0
LINE
  5
1A0
100
AcDbEntity
100
AcDbLine
  8
Rib
 62
256
370
-1
  6
ByLayer
 10
211.25
 20
199.6452667252691526
 30
0.0
 11
202.5
 21
203.7924021419691485
 31
0.0
  0
LINE
  5
1A1
100
AcDbEntity
100
AcDbLine
  8
Rib
 62
256
370
-1
  6
ByLayer
 10
202.5
 20
203.7924021419691485
 30
0.0
 11
193.75
 21
207.3015167252991091
 31
0.0
  0
LINE
  5
1A2
100
AcDbEntity
100
AcDbLine
  8
Rib
 62
256
370
-1
  6
ByLayer
 10
193.75
 20
207.3015167252991091
 30
0.0
 11
185.0
 21
210.1726104752991091
 31
0.0
  0
LINE
  5
1A3
100
AcDbEntity
100
AcDbLine
  8
Rib
 62
256
370
-1
  6
ByLayer
 10
185.0
 20
210.1726104752991091
 30
0.0
 11
176.2499999999999716
 21
212.4056833919691485
 31
0.0
  0
LINE
  5
1A4
100
AcDbEntity
100
AcDbLine
  8
Rib
 62
256
370
-1
  6
ByLayer
 10
176.2499999999999716
 20
212.4056833919691485
 30
0.0
 11
167.4999999999999716
 21
214.0007354752991375
 31
0.0
  0
LINE
  5
1A5
100
AcDbEntity
100
AcDbLine
  8
Rib
 62
256
370
-1
  6
ByLayer
 10
167.4999999999999716
 20
214.0007354752991375
 30
0.0
 11
158.75
 21
214.9577667253021502
 31
0.0
  0
LINE
  5
1A6
100
AcDbEntity
100
AcDbLine
  8
Rib
 62
256
370
-1
  6
ByLayer
 10
158.75
 20
214.9577667253021502
 30
0.0
 11
150.0
 21
215.2767771419691485
 31
0.0
  0
LINE
  5
1A7
100
AcDbEntity
100
AcDbLine
  8
Rib
 62
256
370
-1
  6
ByLayer
 10
150.0
 20
215.2767771419691485
 30
0.0
 11
141.2499999999999716
 21
214.9577667253021502
 31
0.0
  0
LINE
  5
1A8
100
AcDbEntity
100
AcDbLine
  8
Rib
 62
256
370
-1
  6
ByLayer
 10
141.2499999999999716
 20
214.9577667253021502
 30
0.0
 11
132.4999999999999716
 21
214.0007354752991375
 31
0.0
  0
LINE
  5
1A9
100
AcDbEntity
100
AcDbLine
  8
Rib
 62
256
370
-1
  6
ByLayer
 10
132.4999999999999716
 20
214.0007354752991375
 30
0.0
 11
123.7499999999999716
 21
212.4056833919691485
 31
0.0
  0
LINE
  5
1AA
100
AcDbEntity
100
AcDbLine
  8
Rib
 62
256
370
-1
  6
ByLayer
 10
123.7499999999999716
 20
212.4056833919691485
 30
0.0
 11
115.0
 21
210.1726104752991375
 31
0.0
  0
LINE
  5
1AB
100
AcDbEntity
100
AcDbLine
  8
Rib
 62
256
370
-1
  6
ByLayer
 10
115.0
 20
210.1726104752991375
 30
0.0
 11
106.25
 21
207.301516725299166
 31
0.0
  0
LINE
  5
1AC
100
AcDbEntity
100
AcDbLine
  8
Rib
 62
256
370
-1
  6
ByLayer
 10
106.25
 20
207.301516725299166
 30
0.0
 11
97.5
 21
203.7924021419691769
 31
0.0
  0
LINE
  5
1AD
100
AcDbEntity
100
AcDbLine
  8
Rib
 62
256
370
-1
  6
ByLayer
 10
97.5
 20
203.7924021419691769
 30
0.0
 11
88.75
 21
199.6452667252692095
 31
0.0
  0
LINE
  5
1AE
100
AcDbEntity
100
AcDbLine
  8
Rib
 62
256
370
-1
  6
ByLayer
 10
88.75
 20
199.6452667252692095
 30
0.0
 11
80.0
 21
194.8601104752692095
 31
0.0
  0
LINE
  5
1AF
100
AcDbEntity
100
AcDbLine
  8
Rib
 62
256
370
-1
  6
ByLayer
 10
80.0
 20
194.8601104752692095
 30
0.0
 11
71.25
 21
189.4369333919691485
 31
0.0
  0
LINE
  5
1B0
100
AcDbEntity
100
AcDbLine
  8
Rib
 62
256
370
-1
  6
ByLayer
 10
71.25
 20
189.4369333919691485
 30
0.0
 11
62.4999999999999858
 21
183.3757354752689821
 31
0.0
  0
LINE
  5
1B1
100
AcDbEntity
100
AcDbLine
  8
Rib
 62
256
370
-1
  6
ByLayer
 10
62.4999999999999858
 20
183.3757354752689821
 30
0.0
 11
53.7499999999999858
 21
176.6765167252689537
 31
0.0
  0
LINE
  5
1B2
100
AcDbEntity
100
AcDbLine
  8
Rib
 62
256
370
-1
  6
ByLayer
 10
53.7499999999999858
 20
176.6765167252689537
 30
0.0
 11
44.9999999999999858
 21
169.3392771419690632
 31
0.0
  0
LINE
  5
1B3
100
AcDbEntity
100
AcDbLine
  8
Rib
 62
256
370
-1
  6
ByLayer
 10
44.9999999999999858
 20
169.3392771419690632
 30
0.0
 11
36.2499999999999716
 21
161.3640167252691811
 31
0.0
  0
LINE
  5
1B4
100
AcDbEntity
100
AcDbLine
  8
Rib
 62
256
370
-1
  6
ByLayer
 10
36.2499999999999716
 20
161.3640167252691811
 30
0.0
 11
27.4999999999999716
 21
152.7507354752691811
 31
0.0
  0
LINE
  5
1B5
100
AcDbEntity
100
AcDbLine
  8
Rib
 62
256
370
-1
  6
ByLayer
 10
27.4999999999999716
 20
152.7507354752691811
 30
0.0
 11
18.75
 21
143.4994333919691769
 31
0.0
  0
ARC
  5
1B6
100
AcDbEntity
  8
Rib
 62
256
370
-1
  6
ByLayer
100
AcDbCircle
 10
281.2500000000001705
 20
143.4994333919690632
 30
0.0
 40
9.9999999999999503
100
AcDbArc
 50
41.5021648931329565
 51
43.4048336042931737
  0
ARC
  5
1B7
100
AcDbEntity
  8
Rib
 62
256
370
-1
  6
ByLayer
100
AcDbCircle
 10
272.5000000000001137
 20
152.7507354752689821
 30
0.0
 40
10.0000000000000338
100
AcDbArc
 50
43.4048336042931737
 51
45.4511385467886413
  0
LINE
  5
1B8
100
AcDbEntity
100
AcDbLine
  8
Rib
 62
256
370
-1
  6
ByLayer
 10
279.5151726451431955
 20
159.8772600671605915
 30
0.0
 11
270.7651726451431955
 21
168.4905413171605915
 31
0.0
  0
ARC
  5
1B9
100
AcDbEntity
  8
Rib
 62
256
370
-1
  6
ByLayer
100
AcDbCircle
 10
263.75
 20
161.36401672526884
 30
0.0
 40
10.0000000000001279
100
AcDbArc
 50
45.4511385467881794
 51
47.6521321389189154
  0
LINE
  5
1BA
100
AcDbEntity
100
AcDbLine
  8
Rib
 62
256
370
-1
  6
ByLayer
 10
270.486302046795231
 20
168.7547023994363826
 30
0.0
 11
261.736302046795231
 21
176.7299628161362364
 31
0.0
  0
ARC
  5
1BB
100
AcDbEntity
  8
Rib
 62
256
370
-1
  6
ByLayer
100
AcDbCircle
 10
255.0000000000001705
 20
169.3392771419689211
 30
0.0
 40
10.0000000000000089
100
AcDbArc
 50
47.6521321389193204
 51
50.0187653412105391
  0
LINE
  5
1BC
100
AcDbEntity
100
AcDbLine
  8
Rib
 62
256
370
-1
  6
ByLayer
 10
261.4253668264622092
 20
177.0018264008903088
 30
0.0
 11
252.6753668264622661
 21
184.3390659841905119
 31
0.0
  0
ARC
  5
1BD
100
AcDbEntity
  8
Rib
 62
256
370
-1
  6
ByLayer
100
AcDbCircle
 10
246.2499999999998295
 20
176.6765167252689253
 30
0.0
 40
10.0000000000001474
100
AcDbArc
 50
50.0187653412087059
 51
52.5614284276662715
  0
ARC
  5
1BE
100
AcDbEntity
  8
Rib
 62
256
370
-1
  6
ByLayer
100
AcDbCircle
 10
237.5000000000003411
 20
183.3757354752694084
 30
0.0
 40
9.9999999999996074
100
AcDbArc
 50
52.5614284276676997
 51
55.2893317710529644
  0
LINE
  5
1BF
100
AcDbEntity
100
AcDbLine
  8
Rib
 62
256
370
-1
  6
ByLayer
 10
243.1943259326390034
 20
191.5961157689584127
 30
0.0
 11
234.444325932638975
 21
197.657313685658437
 31
0.0
  0
ARC
  5
1C0
100
AcDbEntity
  8
Rib
 62
256
370
-1
  6
ByLayer
100
AcDbCircle
 10
228.7499999999998863
 20
189.4369333919692053
 30
0.0
 40
9.9999999999999964
100
AcDbArc
 50
55.289331771051387
 51
58.2097102143274157
  0
LINE
  5
1C1
100
AcDbEntity
100
AcDbLine
  8
Rib
 62
256
370
-1
  6
ByLayer
 10
234.018117521862365
 20
197.9367532592279417
 30
0.0
 11
225.2681175218623366
 21
203.359930342527889
 31
0.0
  0
ARC
  5
1C2
100
AcDbEntity
  8
Rib
 62
256
370
-1
  6
ByLayer
100
AcDbCircle
 10
220.0000000000001705
 20
194.8601104752692095
 30
0.0
 40
9.9999999999998561
100
AcDbArc
 50
58.2097102143288936
 51
61.3268535105656909
  0
LINE
  5
1C3
100
AcDbEntity
100
AcDbLine
  8
Rib
 62
256
370
-1
  6
ByLayer
 10
224.7981234194270996
 20
203.6338218707929855
 30
0.0
 11
216.0481234194270996
 21
208.418978120792957
 31
0.0
  0
ARC
  5
1C4
100
AcDbEntity
  8
Rib
 62
256
370
-1
  6
ByLayer
100
AcDbCircle
 10
211.2499999999998295
 20
199.6452667252689821
 30
0.0
 40
10.0000000000001599
100
AcDbArc
 50
61.3268535105644688
 51
64.640997601963079
  0
ARC
  5
1C5
100
AcDbEntity
  8
Rib
 62
256
370
-1
  6
ByLayer
100
AcDbCircle
 10
193.75
 20
207.3015167252992228
 30
0.0
 40
9.9999999999999059
100
AcDbArc
 50
68.1471580503605452
 51
71.8340434707745032
  0
LINE
  5
1C6
100
AcDbEntity
100
AcDbLine
  8
Rib
 62
256
370
-1
  6
ByLayer
 10
196.8677041789731277
 20
216.8030913659791281
 30
0.0
 11
188.1177041789731277
 21
219.6741851159791281
 31
0.0
  0
ARC
  5
1C7
100
AcDbEntity
  8
Rib
 62
256
370
-1
  6
ByLayer
100
AcDbCircle
 10
185.0
 20
210.1726104752991091
 30
0.0
 40
10.0000000000000124
100
AcDbArc
 50
71.8340434707745459
 51
75.6832408810463306
  0
LINE
  5
1C8
100
AcDbEntity
100
AcDbLine
  8
Rib
 62
256
370
-1
  6
ByLayer
 10
187.4728244100338657
 20
219.8620448982745472
 30
0.0
 11
178.7228244100338372
 21
222.0951178149445582
 31
0.0
  0
ARC
  5
1C9
100
AcDbEntity
  8
Rib
 62
256
370
-1
  6
ByLayer
100
AcDbCircle
 10
176.25
 20
212.4056833919690916
 30
0.0
 40
10.0000000000000391
100
AcDbArc
 50
75.6832408810462312
 51
79.6688951556813976
  0
LINE
  5
1CA
100
AcDbEntity
100
AcDbLine
  8
Rib
 62
256
370
-1
  6
ByLayer
 10
178.0433632216644924
 20
222.243561636549174
 30
0.0
 11
169.2933632216644639
 21
223.8386137198791914
 31
0.0
  0
ARC
  5
1CB
100
AcDbEntity
  8
Rib
 62
256
370
-1
  6
ByLayer
100
AcDbCircle
 10
167.5000000000000284
 20
214.0007354752992512
 30
0.0
 40
9.9999999999999023
100
AcDbArc
 50
79.6688951556815965
 51
83.7580856525657111
  0
LINE
  5
1CC
100
AcDbEntity
100
AcDbLine
  8
Rib
 62
256
370
-1
  6
ByLayer
 10
168.5872659128597206
 20
223.9414523928425069
 30
0.0
 11
159.8372659128597206
 21
224.898483642845548
 31
0.0
  0
ARC
  5
1CD
100
AcDbEntity
  8
Rib
 62
256
370
-1
  6
ByLayer
100
AcDbCircle
 10
158.75
 20
214.9577667253022355
 30
0.0
 40
9.9999999999999201
100
AcDbArc
 50
83.758085652565569
 51
87.9120161672745439
  0
ARC
  5
1CE
100
AcDbEntity
  8
Rib
 62
256
370
-1
  6
ByLayer
100
AcDbCircle
 10
141.2500000000000284
 20
214.9577667253021787
 30
0.0
 40
9.9999999999999574
100
AcDbArc
 50
92.0879838327255129
 51
96.241914347434431
  0
LINE
  5
1CF
100
AcDbEntity
100
AcDbLine
  8
Rib
 62
256
370
-1
  6
ByLayer
 10
140.1627340871403078
 20
224.898483642845548
 30
0.0
 11
131.4127340871403362
 21
223.9414523928425638
 31
0.0
  0
ARC
  5
1D0
100
AcDbEntity
  8
Rib
 62
256
370
-1
  6
ByLayer
100
AcDbCircle
 10
132.5000000000000568
 20
214.0007354752991375
 30
0.0
 40
10.0000000000000142
100
AcDbArc
 50
96.2419143474347436
 51
100.3311048443188014
  0
LINE
  5
1D1
100
AcDbEntity
100
AcDbLine
  8
Rib
 62
256
370
-1
  6
ByLayer
 10
130.7066367783355645
 20
223.8386137198792198
 30
0.0
 11
121.9566367783355076
 21
222.243561636549174
 31
0.0
  0
ARC
  5
1D2
100
AcDbEntity
  8
Rib
 62
256
370
-1
  6
ByLayer
100
AcDbCircle
 10
123.75
 20
212.4056833919692053
 30
0.0
 40
9.9999999999999361
100
AcDbArc
 50
100.3311048443186024
 51
104.3167591189538257
  0
LINE
  5
1D3
100
AcDbEntity
100
AcDbLine
  8
Rib
 62
256
370
-1
  6
ByLayer
 10
121.2771755899661628
 20
222.0951178149445866
 30
0.0
 11
112.5271755899661201
 21
219.8620448982745472
 31
0.0
  0
ARC
  5
1D4
100
AcDbEntity
  8
Rib
 62
256
370
-1
  6
ByLayer
100
AcDbCircle
 10
115.0000000000000711
 20
210.172610475299166
 30
0.0
 40
10.000000000000032
100
AcDbArc
 50
104.3167591189540246
 51
108.1659565292258094
  0
LINE
  5
1D5
100
AcDbEntity
100
AcDbLine
  8
Rib
 62
256
370
-1
  6
ByLayer
 10
111.8822958210268439
 20
219.6741851159791281
 30
0.0
 11
103.1322958210268439
 21
216.8030913659791281
 31
0.0
  0
ARC
  5
1D6
100
AcDbEntity
  8
Rib
 62
256
370
-1
  6
ByLayer
100
AcDbCircle
 10
106.2499999999999716
 20
207.3015167252993933
 30
0.0
 40
9.9999999999997975
100
AcDbArc
 50
108.1659565292255962
 51
111.8528419496395543
  0
ARC
  5
1D7
100
AcDbEntity
  8
Rib
 62
256
370
-1
  6
ByLayer
100
AcDbCircle
 10
88.7500000000001137
 20
199.6452667252690389
 30
0.0
 40
10.0000000000001457
100
AcDbArc
 50
115.3590023980367221
 51
118.6731464894353252
  0
LINE
  5
1D8
100
AcDbEntity
100
AcDbLine
  8
Rib
 62
256
370
-1
  6
ByLayer
 10
83.9518765805728862
 20
208.4189781207930139
 30
0.0
 11
75.2018765805729004
 21
203.6338218707930423
 31
0.0
  0
ARC
  5
1D9
100
AcDbEntity
  8
Rib
 62
256
370
-1
  6
ByLayer
100
AcDbCircle
 10
79.9999999999999858
 20
194.8601104752692095
 30
0.0
 40
9.9999999999999982
100
AcDbArc
 50
118.6731464894349131
 51
121.7902897856717175
  0
LINE
  5
1DA
100
AcDbEntity
100
AcDbLine
  8
Rib
 62
256
370
-1
  6
ByLayer
 10
74.7318824781376065
 20
203.359930342527889
 30
0.0
 11
65.981882478137635
 21
197.9367532592279986
 31
0.0
  0
ARC
  5
1DB
100
AcDbEntity
  8
Rib
 62
256
370
-1
  6
ByLayer
100
AcDbCircle
 10
71.2499999999999432
 20
189.4369333919692906
 30
0.0
 40
9.9999999999999165
100
AcDbArc
 50
121.790289785671618
 51
124.7106682289477533
  0
LINE
  5
1DC
100
AcDbEntity
100
AcDbLine
  8
Rib
 62
256
370
-1
  6
ByLayer
 10
65.5556740673610108
 20
197.6573136856584938
 30
0.0
 11
56.8056740673609966
 21
191.5961157689584695
 31
0.0
  0
ARC
  5
1DD
100
AcDbEntity
  8
Rib
 62
256
370
-1
  6
ByLayer
100
AcDbCircle
 10
62.5
 20
183.3757354752689821
 30
0.0
 40
10.000000000000032
100
AcDbArc
 50
124.7106682289478528
 51
127.4385715723330179
  0
ARC
  5
1DE
100
AcDbEntity
  8
Rib
 62
256
370
-1
  6
ByLayer
100
AcDbCircle
 10
53.7499999999996874
 20
176.6765167252689537
 30
0.0
 40
9.9999999999998863
100
AcDbArc
 50
127.4385715723312842
 51
129.9812346587890488
  0
LINE
  5
1DF
100
AcDbEntity
100
AcDbLine
  8
Rib
 62
256
370
-1
  6
ByLayer
 10
47.3246331735377197
 20
184.339065984190654
 30
0.0
 11
38.5746331735377197
 21
177.0018264008903941
 31
0.0
  0
ARC
  5
1E0
100
AcDbEntity
  8
Rib
 62
256
370
-1
  6
ByLayer
100
AcDbCircle
 10
45.0000000000000711
 20
169.3392771419692338
 30
0.0
 40
9.9999999999999574
100
AcDbArc
 50
129.9812346587916068
 51
132.3478678610828183
  0
LINE
  5
1E1
100
AcDbEntity
100
AcDbLine
  8
Rib
 62
256
370
-1
  6
ByLayer
 10
38.2636979532047405
 20
176.7299628161362932
 30
0.0
 11
29.5136979532047405
 21
168.7547023994363826
 31
0.0
  0
ARC
  5
1E2
100
AcDbEntity
  8
Rib
 62
256
370
-1
  6
ByLayer
100
AcDbCircle
 10
36.2499999999997016
 20
161.3640167252690389
 30
0.0
 40
9.999999999999897
100
AcDbArc
 50
132.3478678610801751
 51
134.5488614532110034
  0
LINE
  5
1E3
100
AcDbEntity
100
AcDbLine
  8
Rib
 62
256
370
-1
  6
ByLayer
 10
29.2348273548567761
 20
168.4905413171606199
 30
0.0
 11
20.4848273548568045
 21
159.8772600671605915
 31
0.0
  0
ARC
  5
1E4
100
AcDbEntity
  8
Rib
 62
256
370
-1
  6
ByLayer
100
AcDbCircle
 10
27.4999999999995168
 20
152.7507354752688968
 30
0.0
 40
9.9999999999998597
100
AcDbArc
 50
134.5488614532097813
 51
136.5951663957050926
  0
ARC
  5
1E5
100
AcDbEntity
  8
Rib
 62
256
370
-1
  6
ByLayer
100
AcDbCircle
 10
18.7499999999998863
 20
143.4994333919693759
 30
0.0
 40
9.9999999999997815
100
AcDbArc
 50
136.595166395708759
 51
138.4978351068689335
  0
LINE
  5
1E6
100
AcDbEntity
100
AcDbLine
  8
Rib
 62
256
370
-1
  6
ByLayer
 10
288.0120549599901096
 20
135.8569025257046405
 30
0.0
 11
281.25
 21
143.4994333919692338
 31
0.0
  0
ARC
  5
1E7
100
AcDbEntity
  8
Rib
 62
256
370
-1
  6
ByLayer
100
AcDbCircle
 10
290.2588470104255407
 20
137.8448475657145025
 30
0.0
 40
3.0
100
AcDbArc
 50
221.5021648931317202
 51
311.5021648931315781
  0
LINE
  5
1E8
100
AcDbEntity
100
AcDbLine
  8
Rib
 62
256
370
-1
  6
ByLayer
 10
295.242514784349396
 20
138.2486489019588589
 30
0.0
 11
292.2467920504354311
 21
135.598055515279043
 31
0.0
  0
LINE
  5
1E9
100
AcDbEntity
100
AcDbLine
  8
Rib
 62
256
370
-1
  6
ByLayer
 10
295.5013617947749367
 20
142.483385992404294
 30
0.0
 11
288.7393068347848271
 21
150.1259168586688872
 31
0.0
  0
ARC
  5
1EA
100
AcDbEntity
  8
Rib
 62
256
370
-1
  6
ByLayer
100
AcDbCircle
 10
293.2545697443393919
 20
140.4954409523943184
 30
0.0
 40
3.0
100
AcDbArc
 50
311.5021648931316918
 51
41.5021648931316847
  0
LINE
  5
1EB
100
AcDbEntity
100
AcDbLine
  8
Rib
 62
256
370
-1
  6
ByLayer
 10
18.75
 20
143.4994333919691769
 30
0.0
 11
11.9879450400098904
 21
135.8569025257046121
 31
0.0
  0
ARC
  5
1EC
100
AcDbEntity
  8
Rib
 62
256
370
-1
  6
ByLayer
100
AcDbCircle
 10
9.7411529895744593
 20
137.8448475657145309
 30
0.0
 40
3.0
100
AcDbArc
 50
228.4978351068682798
 51
318.4978351068681945
  0
LINE
  5
1ED
100
AcDbEntity
100
AcDbLine
  8
Rib
 62
256
370
-1
  6
ByLayer
 10
7.7532079495645121
 20
135.5980555152790714
 30
0.0
 11
4.757485215650604
 21
138.2486489019589726
 31
0.0
  0
LINE
  5
1EE
100
AcDbEntity
100
AcDbLine
  8
Rib
 62
256
370
-1
  6
ByLayer
 10
11.2606931652151729
 20
150.1259168586689441
 30
0.0
 11
4.4986382052250633
 21
142.4833859924043509
 31
0.0
  0
ARC
  5
1EF
100
AcDbEntity
  8
Rib
 62
256
370
-1
  6
ByLayer
100
AcDbCircle
 10
6.7454302556605512
 20
140.4954409523943468
 30
0.0
 40
3.0
100
AcDbArc
 50
138.497835106868223
 51
228.4978351068684788
  0
LINE
  5
1F0
100
AcDbEntity
100
AcDbLine
  8
Rib
 62
256
370
-1
  6
ByLayer
 10
281.9604343648520057
 20
150.0247413623450825
 30
0.0
 11
278.5246903454684571
 21
153.657324882825975
 31
0.0
  0
LINE
  5
1F1
100
AcDbEntity
100
AcDbLine
  8
Rib
 62
256
370
-1
  6
ByLayer
 10
207.4223800120484498
 20
206.9925639009061911
 30
0.0
 11
202.9041700961761308
 21
209.1340071423003906
 31
0.0
  0
LINE
  5
1F2
100
AcDbEntity
100
AcDbLine
  8
Rib
 62
256
370
-1
  6
ByLayer
 10
152.5000000000000284
 20
220.2767771419691769
 30
0.0
 11
147.5
 21
220.2767771419691769
 31
0.0
  0
LINE
  5
1F3
100
AcDbEntity
100
AcDbLine
  8
Rib
 62
256
370
-1
  6
ByLayer
 10
97.0958299038238977
 20
209.1340071423004474
 30
0.0
 11
92.5776199879515644
 21
206.9925639009062479
 31
0.0
  0
LINE
  5
1F4
100
AcDbEntity
100
AcDbLine
  8
Rib
 62
256
370
-1
  6
ByLayer
 10
21.4753096545314861
 20
153.6573248828262308
 30
0.0
 11
18.0395656351479374
 21
150.0247413623452246
 31
0.0
  0
LINE
  5
1F5
100
AcDbEntity
100
AcDbLine
  8
Rib
 62
256
370
-1
  6
ByLayer
 10
288.5151670409619555
 20
150.3709214307363027
 30
0.0
 11
286.2801666892097501
 21
152.7339686776325038
 31
0.0
  0
LINE
  5
1F6
100
AcDbEntity
100
AcDbLine
  8
Rib
 62
256
370
-1
  6
ByLayer
 10
284.8665011812367993
 20
152.7733365778518078
 30
0.0
 11
281.9604343648520057
 21
150.0247413623450825
 31
0.0
  0
ARC
  5
1F7
100
AcDbEntity
  8
Rib
 62
256
370
-1
  6
ByLayer
100
AcDbCircle
 10
285.5536499851135659
 20
152.0468198737556804
 30
0.0
 40
1.0
100
AcDbArc
 50
43.4048336042920013
 51
133.4048336042919516
  0
LINE
  5
1F8
100
AcDbEntity
100
AcDbLine
  8
Rib
 62
256
370
-1
  6
ByLayer
 10
281.4701250620727251
 20
157.8195856063056794
 30
0.0
 11
279.7651670409619555
 21
159.6222235140361931
 31
0.0
  0
LINE
  5
1F9
100
AcDbEntity
100
AcDbLine
  8
Rib
 62
256
370
-1
  6
ByLayer
 10
278.5246903454684571
 20
153.657324882825975
 30
0.0
 11
281.4307571618532506
 21
156.4059200983329561
 31
0.0
  0
ARC
  5
1FA
100
AcDbEntity
  8
Rib
 62
256
370
-1
  6
ByLayer
100
AcDbCircle
 10
280.7436083579765409
 20
157.1324368024290266
 30
0.0
 40
1.0
100
AcDbArc
 50
313.4048336042920369
 51
43.4048336042923069
  0
LINE
  5
1FB
100
AcDbEntity
100
AcDbLine
  8
Rib
 62
256
370
-1
  6
ByLayer
 10
215.532886482788399
 20
208.6816865570138191
 30
0.0
 11
210.4674652366171301
 21
211.0824851684996588
 31
0.0
  0
LINE
  5
1FC
100
AcDbEntity
100
AcDbLine
  8
Rib
 62
256
370
-1
  6
ByLayer
 10
209.1355346051638548
 20
210.6071318336040292
 30
0.0
 11
207.4223800120484498
 21
206.9925639009061911
 31
0.0
  0
ARC
  5
1FD
100
AcDbEntity
  8
Rib
 62
256
370
-1
  6
ByLayer
100
AcDbCircle
 10
210.0391765883382789
 20
210.1788431853252632
 30
0.0
 40
1.0
100
AcDbArc
 50
64.640997601963889
 51
154.6409976019637895
  0
LINE
  5
1FE
100
AcDbEntity
100
AcDbLine
  8
Rib
 62
256
370
-1
  6
ByLayer
 10
202.9041700961761308
 20
209.1340071423003906
 30
0.0
 11
204.5478618026775735
 21
212.6020160175282285
 31
0.0
  0
LINE
  5
1FF
100
AcDbEntity
100
AcDbLine
  8
Rib
 62
256
370
-1
  6
ByLayer
 10
204.0164438079075921
 20
213.9584475979335139
 30
0.0
 11
197.4722398840451376
 21
216.5829460465633929
 31
0.0
  0
ARC
  5
200
100
AcDbEntity
  8
Rib
 62
256
370
-1
  6
ByLayer
100
AcDbCircle
 10
203.6442198195030926
 20
213.0303046658070798
 30
0.0
 40
1.0
100
AcDbArc
 50
334.6409976019638179
 51
68.1471580503605878
  0
LINE
  5
201
100
AcDbEntity
100
AcDbLine
  8
Rib
 62
256
370
-1
  6
ByLayer
 10
159.1143412707021696
 20
224.9511272931223118
 30
0.0
 11
153.5364341270702369
 21
225.1544884910674398
 31
0.0
  0
LINE
  5
202
100
AcDbEntity
100
AcDbLine
  8
Rib
 62
256
370
-1
  6
ByLayer
 10
152.5000000000000284
 20
224.1551524342854407
 30
0.0
 11
152.5000000000000284
 21
220.2767771419691769
 31
0.0
  0
ARC
  5
203
100
AcDbEntity
  8
Rib
 62
256
370
-1
  6
ByLayer
100
AcDbCircle
 10
153.5
 20
224.1551524342854407
 30
0.0
 40
1.0
100
AcDbArc
 50
87.9120161672744445
 51
180.0
  0
LINE
  5
204
100
AcDbEntity
100
AcDbLine
  8
Rib
 62
256
370
-1
  6
ByLayer
 10
147.5
 20
220.2767771419691769
 30
0.0
 11
147.5
 21
224.1551524342854407
 31
0.0
  0
LINE
  5
205
100
AcDbEntity
100
AcDbLine
  8
Rib
 62
256
370
-1
  6
ByLayer
 10
146.46356587292982
 20
225.1544884910674398
 30
0.0
 11
140.8856587292978588
 21
224.9511272931223118
 31
0.0
  0
ARC
  5
206
100
AcDbEntity
  8
Rib
 62
256
370
-1
  6
ByLayer
100
AcDbCircle
 10
146.5000000000000284
 20
224.1551524342854407
 30
0.0
 40
1.0
100
AcDbArc
 50
360.0
 51
92.0879838327255129
  0
LINE
  5
207
100
AcDbEntity
100
AcDbLine
  8
Rib
 62
256
370
-1
  6
ByLayer
 10
102.5277601159548766
 20
216.5829460465634213
 30
0.0
 11
95.9835561920924221
 21
213.9584475979335423
 31
0.0
  0
LINE
  5
208
100
AcDbEntity
100
AcDbLine
  8
Rib
 62
256
370
-1
  6
ByLayer
 10
95.452138197322455
 20
212.602016017528257
 30
0.0
 11
97.0958299038238977
 21
209.1340071423004474
 31
0.0
  0
ARC
  5
209
100
AcDbEntity
  8
Rib
 62
256
370
-1
  6
ByLayer
100
AcDbCircle
 10
96.35578018049695
 20
213.0303046658071651
 30
0.0
 40
1.0
100
AcDbArc
 50
111.8528419496393553
 51
205.3590023980362105
  0
LINE
  5
20A
100
AcDbEntity
100
AcDbLine
  8
Rib
 62
256
370
-1
  6
ByLayer
 10
92.5776199879515644
 20
206.9925639009062479
 30
0.0
 11
90.8644653948361736
 21
210.6071318336040576
 31
0.0
  0
LINE
  5
20B
100
AcDbEntity
100
AcDbLine
  8
Rib
 62
256
370
-1
  6
ByLayer
 10
89.5325347633828699
 20
211.0824851684997157
 30
0.0
 11
84.467113517211601
 21
208.6816865570138759
 31
0.0
  0
ARC
  5
20C
100
AcDbEntity
  8
Rib
 62
256
370
-1
  6
ByLayer
100
AcDbCircle
 10
89.9608234116617353
 20
210.1788431853252916
 30
0.0
 40
1.0
100
AcDbArc
 50
25.3590023980362638
 51
115.35900239803631
  0
LINE
  5
20D
100
AcDbEntity
100
AcDbLine
  8
Rib
 62
256
370
-1
  6
ByLayer
 10
20.2348329590379876
 20
159.6222235140361363
 30
0.0
 11
18.5298749379272181
 21
157.8195856063057931
 31
0.0
  0
LINE
  5
20E
100
AcDbEntity
100
AcDbLine
  8
Rib
 62
256
370
-1
  6
ByLayer
 10
18.5692428381466925
 20
156.4059200983330697
 30
0.0
 11
21.4753096545314861
 21
153.6573248828262308
 31
0.0
  0
ARC
  5
20F
100
AcDbEntity
  8
Rib
 62
256
370
-1
  6
ByLayer
100
AcDbCircle
 10
19.2563916420234023
 20
157.1324368024292539
 30
0.0
 40
1.0
100
AcDbArc
 50
136.5951663957083611
 51
226.5951663957079631
  0
LINE
  5
210
100
AcDbEntity
100
AcDbLine
  8
Rib
 62
256
370
-1
  6
ByLayer
 10
18.0395656351479374
 20
150.0247413623452246
 30
0.0
 11
15.1334988187631438
 21
152.7733365778519214
 31
0.0
  0
LINE
  5
211
100
AcDbEntity
100
AcDbLine
  8
Rib
 62
256
370
-1
  6
ByLayer
 10
13.7198333107902499
 20
152.7339686776325038
 30
0.0
 11
11.4848329590379876
 21
150.3709214307363027
 31
0.0
  0
ARC
  5
212
100
AcDbEntity
  8
Rib
 62
256
370
-1
  6
ByLayer
100
AcDbCircle
 10
14.4463500148864341
 20
152.0468198737558509
 30
0.0
 40
1.0
100
AcDbArc
 50
46.5951663957082474
 51
136.5951663957080484
  0
LINE
  5
213
100
AcDbEntity
100
AcDbLine
  8
Rib
 62
256
370
-1
  6
ByLayer
 10
56.4208949728308653
 20
191.3157910209594661
 30
0.0
 11
53.6131556577198722
 21
189.1661156078275781
 31
0.0
  0
LINE
  5
214
100
AcDbEntity
100
AcDbLine
  8
Rib
 62
256
370
-1
  6
ByLayer
 10
49.6431278848747439
 20
186.1265630942432097
 30
0.0
 11
47.6708949728308653
 21
184.6165722709596082
 31
0.0
  0
LINE
  5
215
100
AcDbEntity
100
AcDbLine
  8
Rib
 62
256
370
-1
  6
ByLayer
 10
243.3472918286955178
 20
185.1960878349823929
 30
0.0
 11
247.3173196015406745
 21
182.1565353213973992
 31
0.0
  0
LINE
  5
216
100
AcDbEntity
100
AcDbLine
  8
Rib
 62
256
370
-1
  6
ByLayer
 10
247.3173196015406745
 20
182.1565353213973992
 30
0.0
 11
250.3568721151252134
 21
186.1265630942430676
 31
0.0
  0
LINE
  5
217
100
AcDbEntity
100
AcDbLine
  8
Rib
 62
256
370
-1
  6
ByLayer
 10
246.3868443422801136
 20
189.1661156078275212
 30
0.0
 11
243.3472918286955178
 21
185.1960878349823929
 31
0.0
  0
LINE
  5
218
100
AcDbEntity
100
AcDbLine
  8
Rib
 62
256
370
-1
  6
ByLayer
 10
252.3291050271691347
 20
184.6165722709594661
 30
0.0
 11
250.3568721151252134
 21
186.1265630942430676
 31
0.0
  0
LINE
  5
219
100
AcDbEntity
100
AcDbLine
  8
Rib
 62
256
370
-1
  6
ByLayer
 10
246.3868443422800851
 20
189.1661156078275212
 30
0.0
 11
243.5791050271691347
 21
191.3157910209594093
 31
0.0
  0
LINE
  5
21A
100
AcDbEntity
100
AcDbLine
  8
Rib
 62
256
370
-1
  6
ByLayer
 10
56.6527081713044396
 20
185.1960878349831319
 30
0.0
 11
52.6826803984592971
 21
182.1565353213974561
 31
0.0
  0
LINE
  5
21B
100
AcDbEntity
100
AcDbLine
  8
Rib
 62
256
370
-1
  6
ByLayer
 10
52.6826803984592971
 20
182.1565353213974561
 30
0.0
 11
49.6431278848747439
 21
186.1265630942432097
 31
0.0
  0
LINE
  5
21C
100
AcDbEntity
100
AcDbLine
  8
Rib
 62
256
370
-1
  6
ByLayer
 10
53.6131556577198722
 20
189.1661156078275781
 30
0.0
 11
56.6527081713044396
 21
185.1960878349831319
 31
0.0
  0
LINE
  5
21D
100
AcDbEntity
100
AcDbLine
  8
Rib
 62
256
370
-1
  6
ByLayer
 10
281.25
 20
163.4994333919692338
 30
0.0
 11
272.5
 21
172.7507354752692379
 31
0.0
  0
LINE
  5
21E
100
AcDbEntity
100
AcDbLine
  8
Rib
 62
256
370
-1
  6
ByLayer
 10
272.5
 20
172.7507354752692379
 30
0.0
 11
263.75
 21
181.3640167252691526
 31
0.0
  0
LINE
  5
21F
100
AcDbEntity
100
AcDbLine
  8
Rib
 62
256
370
-1
  6
ByLayer
 10
263.75
 20
181.3640167252691526
 30
0.0
 11
255.0
 21
189.3392771419692338
 31
0.0
  0
LINE
  5
220
100
AcDbEntity
100
AcDbLine
  8
Rib
 62
256
370
-1
  6
ByLayer
 10
255.0
 20
189.3392771419692338
 30
0.0
 11
246.25
 21
196.6765167252689253
 31
0.0
  0
LINE
  5
221
100
AcDbEntity
100
AcDbLine
  8
Rib
 62
256
370
-1
  6
ByLayer
 10
246.25
 20
196.6765167252689253
 30
0.0
 11
237.5
 21
203.3757354752689253
 31
0.0
  0
LINE
  5
222
100
AcDbEntity
100
AcDbLine
  8
Rib
 62
256
370
-1
  6
ByLayer
 10
237.5
 20
203.3757354752689253
 30
0.0
 11
228.75
 21
209.4369333919692338
 31
0.0
  0
LINE
  5
223
100
AcDbEntity
100
AcDbLine
  8
Rib
 62
256
370
-1
  6
ByLayer
 10
228.75
 20
209.4369333919692338
 30
0.0
 11
220.0
 21
214.8601104752691526
 31
0.0
  0
LINE
  5
224
100
AcDbEntity
100
AcDbLine
  8
Rib
 62
256
370
-1
  6
ByLayer
 10
220.0
 20
214.8601104752691526
 30
0.0
 11
211.25
 21
219.6452667252691526
 31
0.0
  0
LINE
  5
225
100
AcDbEntity
100
AcDbLine
  8
Rib
 62
256
370
-1
  6
ByLayer
 10
211.25
 20
219.6452667252691526
 30
0.0
 11
202.5
 21
223.7924021419691485
 31
0.0
  0
LINE
  5
226
100
AcDbEntity
100
AcDbLine
  8
Rib
 62
256
370
-1
  6
ByLayer
 10
202.5
 20
223.7924021419691485
 30
0.0
 11
193.75
 21
227.3015167252991091
 31
0.0
  0
LINE
  5
227
100
AcDbEntity
100
AcDbLine
  8
Rib
 62
256
370
-1
  6
ByLayer
 10
193.75
 20
227.3015167252991091
 30
0.0
 11
185.0
 21
230.1726104752991091
 31
0.0
  0
LINE
  5
228
100
AcDbEntity
100
AcDbLine
  8
Rib
 62
256
370
-1
  6
ByLayer
 10
185.0
 20
230.1726104752991091
 30
0.0
 11
176.2499999999999716
 21
232.4056833919691485
 31
0.0
  0
LINE
  5
229
100
AcDbEntity
100
AcDbLine
  8
Rib
 62
256
370
-1
  6
ByLayer
 10
176.2499999999999716
 20
232.4056833919691485
 30
0.0
 11
167.4999999999999716
 21
234.0007354752991375
 31
0.0
  0
LINE
  5
22A
100
AcDbEntity
100
AcDbLine
  8
Rib
 62
256
370
-1
  6
ByLayer
 10
167.4999999999999716
 20
234.0007354752991375
 30
0.0
 11
158.75
 21
234.9577667253021502
 31
0.0
  0
LINE
  5
22B
100
AcDbEntity
100
AcDbLine
  8
Rib
 62
256
370
-1
  6
ByLayer
 10
158.75
 20
234.9577667253021502
 30
0.0
 11
150.0
 21
235.2767771419691485
 31
0.0
  0
LINE
  5
22C
100
AcDbEntity
100
AcDbLine
  8
Rib
 62
256
370
-1
  6
ByLayer
 10
150.0
 20
235.2767771419691485
 30
0.0
 11
141.2499999999999716
 21
234.9577667253021502
 31
0.0
  0
LINE
  5
22D
100
AcDbEntity
100
AcDbLine
  8
Rib
 62
256
370
-1
  6
ByLayer
 10
141.2499999999999716
 20
234.9577667253021502
 30
0.0
 11
132.4999999999999716
 21
234.0007354752991375
 31
0.0
  0
LINE
  5
22E
100
AcDbEntity
100
AcDbLine
  8
Rib
 62
256
370
-1
  6
ByLayer
 10
132.4999999999999716
 20
234.0007354752991375
 30
0.0
 11
123.7499999999999716
 21
232.4056833919691485
 31
0.0
  0
LINE
  5
22F
100
AcDbEntity
100
AcDbLine
  8
Rib
 62
256
370
-1
  6
ByLayer
 10
123.7499999999999716
 20
232.4056833919691485
 30
0.0
 11
115.0
 21
230.1726104752991375
 31
0.0
  0
LINE
  5
230
100
AcDbEntity
100
AcDbLine
  8
Rib
 62
256
370
-1
  6
ByLayer
 10
115.0
 20
230.1726104752991375
 30
0.0
 11
106.25
 21
227.301516725299166
 31
0.0
  0
LINE
  5
231
100
AcDbEntity
100
AcDbLine
  8
Rib
 62
256
370
-1
  6
ByLayer
 10
106.25
 20
227.301516725299166
 30
0.0
 11
97.5
 21
223.7924021419691769
 31
0.0
  0
LINE
  5
232
100
AcDbEntity
100
AcDbLine
  8
Rib
 62
256
370
-1
  6
ByLayer
 10
97.5
 20
223.7924021419691769
 30
0.0
 11
88.75
 21
219.6452667252692095
 31
0.0
  0
LINE
  5
233
100
AcDbEntity
100
AcDbLine
  8
Rib
 62
256
370
-1
  6
ByLayer
 10
88.75
 20
219.6452667252692095
 30
0.0
 11
80.0
 21
214.8601104752692095
 31
0.0
  0
LINE
  5
234
100
AcDbEntity
100
AcDbLine
  8
Rib
 62
256
370
-1
  6
ByLayer
 10
80.0
 20
214.8601104752692095
 30
0.0
 11
71.25
 21
209.4369333919691485
 31
0.0
  0
LINE
  5
235
100
AcDbEntity
100
AcDbLine
  8
Rib
 62
256
370
-1
  6
ByLayer
 10
71.25
 20
209.4369333919691485
 30
0.0
 11
62.4999999999999858
 21
203.3757354752689821
 31
0.0
  0
LINE
  5
236
100
AcDbEntity
100
AcDbLine
  8
Rib
 62
256
370
-1
  6
ByLayer
 10
62.4999999999999858
 20
203.3757354752689821
 30
0.0
 11
53.7499999999999858
 21
196.6765167252689537
 31
0.0
  0
LINE
  5
237
100
AcDbEntity
100
AcDbLine
  8
Rib
 62
256
370
-1
  6
ByLayer
 10
53.7499999999999858
 20
196.6765167252689537
 30
0.0
 11
44.9999999999999858
 21
189.3392771419690632
 31
0.0
  0
LINE
  5
238
100
AcDbEntity
100
AcDbLine
  8
Rib
 62
256
370
-1
  6
ByLayer
 10
44.9999999999999858
 20
189.3392771419690632
 30
0.0
 11
36.2499999999999716
 21
181.3640167252691811
 31
0.0
  0
LINE
  5
239
100
AcDbEntity
100
AcDbLine
  8
Rib
 62
256
370
-1
  6
ByLayer
 10
36.2499999999999716
 20
181.3640167252691811
 30
0.0
 11
27.4999999999999716
 21
172.7507354752691811
 31
0.0
  0
LINE
  5
23A
100
AcDbEntity
100
AcDbLine
  8
Rib
 62
256
370
-1
  6
ByLayer
 10
27.4999999999999716
 20
172.7507354752691811
 30
0.0
 11
18.75
 21
163.4994333919691769
 31
0.0
  0
ARC
  5
23B
100
AcDbEntity
  8
Rib
 62
256
370
-1
  6
ByLayer
100
AcDbCircle
 10
281.2500000000001705
 20
163.4994333919690632
 30
0.0
 40
9.9999999999999503
100
AcDbArc
 50
41.5021648931329565
 51
43.4048336042931737
  0
ARC
  5
23C
100
AcDbEntity
  8
Rib
 62
256
370
-1
  6
ByLayer
100
AcDbCircle
 10
272.5000000000001137
 20
172.7507354752689821
 30
0.0
 40
10.0000000000000338
100
AcDbArc
 50
43.4048336042931737
 51
45.4511385467886413
  0
LINE
  5
23D
100
AcDbEntity
100
AcDbLine
  8
Rib
 62
256
370
-1
  6
ByLayer
 10
279.5151726451431955
 20
179.8772600671605915
 30
0.0
 11
270.7651726451431955
 21
188.4905413171605915
 31
0.0
  0
ARC
  5
23E
100
AcDbEntity
  8
Rib
 62
256
370
-1
  6
ByLayer
100
AcDbCircle
 10
263.75
 20
181.36401672526884
 30
0.0
 40
10.0000000000001279
100
AcDbArc
 50
45.4511385467881794
 51
47.6521321389189154
  0
LINE
  5
23F
100
AcDbEntity
100
AcDbLine
  8
Rib
 62
256
370
-1
  6
ByLayer
 10
270.486302046795231
 20
188.7547023994363826
 30
0.0
 11
261.736302046795231
 21
196.7299628161362364
 31
0.0
  0
ARC
  5
240
100
AcDbEntity
  8
Rib
 62
256
370
-1
  6
ByLayer
100
AcDbCircle
 10
255.0000000000001705
 20
189.3392771419689211
 30
0.0
 40
10.0000000000000089
100
AcDbArc
 50
47.6521321389193204
 51
50.0187653412105391
  0
LINE
  5
241
100
AcDbEntity
100
AcDbLine
  8
Rib
 62
256
370
-1
  6
ByLayer
 10
261.4253668264622092
 20
197.0018264008903088
 30
0.0
 11
252.6753668264622661
 21
204.3390659841905119
 31
0.0
  0
ARC
  5
242
100
AcDbEntity
  8
Rib
 62
256
370
-1
  6
ByLayer
100
AcDbCircle
 10
246.2499999999998295
 20
196.6765167252689253
 30
0.0
 40
10.0000000000001474
100
AcDbArc
 50
50.0187653412087059
 51
52.5614284276662715
  0
ARC
  5
243
100
AcDbEntity
  8
Rib
 62
256
370
-1
  6
ByLayer
100
AcDbCircle
 10
237.5000000000003411
 20
203.3757354752694084
 30
0.0
 40
9.9999999999996074
100
AcDbArc
 50
52.5614284276676997
 51
55.2893317710529644
  0
LINE
  5
244
100
AcDbEntity
100
AcDbLine
  8
Rib
 62
256
370
-1
  6
ByLayer
 10
243.1943259326390034
 20
211.5961157689584127
 30
0.0
 11
234.444325932638975
 21
217.657313685658437
 31
0.0
  0
ARC
  5
245
100
AcDbEntity
  8
Rib
 62
256
370
-1
  6
ByLayer
100
AcDbCircle
 10
228.7499999999998863
 20
209.4369333919692053
 30
0.0
 40
9.9999999999999964
100
AcDbArc
 50
55.289331771051387
 51
58.2097102143274157
  0
LINE
  5
246
100
AcDbEntity
100
AcDbLine
  8
Rib
 62
256
370
-1
  6
ByLayer
 10
234.018117521862365
 20
217.9367532592279417
 30
0.0
 11
225.2681175218623366
 21
223.359930342527889
 31
0.0
  0
ARC
  5
247
100
AcDbEntity
  8
Rib
 62
256
370
-1
  6
ByLayer
100
AcDbCircle
 10
220.0000000000001705
 20
214.8601104752692095
 30
0.0
 40
9.9999999999998561
100
AcDbArc
 50
58.2097102143288936
 51
61.3268535105656909
  0
LINE
  5
248
100
AcDbEntity
100
AcDbLine
  8
Rib
 62
256
370
-1
  6
ByLayer
 10
224.7981234194270996
 20
223.6338218707929855
 30
0.0
 11
216.0481234194270996
 21
228.418978120792957
 31
0.0
  0
ARC
  5
249
100
AcDbEntity
  8
Rib
 62
256
370
-1
  6
ByLayer
100
AcDbCircle
 10
211.2499999999998295
 20
219.6452667252689821
 30
0.0
 40
10.0000000000001599
100
AcDbArc
 50
61.3268535105644688
 51
64.640997601963079
  0
ARC
  5
24A
100
AcDbEntity
  8
Rib
 62
256
370
-1
  6
ByLayer
100
AcDbCircle
 10
193.75
 20
227.3015167252992228
 30
0.0
 40
9.9999999999999059
100
AcDbArc
 50
68.1471580503605452
 51
71.8340434707745032
  0
LINE
  5
24B
100
AcDbEntity
100
AcDbLine
  8
Rib
 62
256
370
-1
  6
ByLayer
 10
196.8677041789731277
 20
236.8030913659791281
 30
0.0
 11
188.1177041789731277
 21
239.6741851159791281
 31
0.0
  0
ARC
  5
24C
100
AcDbEntity
  8
Rib
 62
256
370
-1
  6
ByLayer
100
AcDbCircle
 10
185.0
 20
230.1726104752991091
 30
0.0
 40
10.0000000000000124
100
AcDbArc
 50
71.8340434707745459
 51
75.6832408810463306
  0
LINE
  5
24D
100
AcDbEntity
100
AcDbLine
  8
Rib
 62
256
370
-1
  6
ByLayer
 10
187.4728244100338657
 20
239.8620448982745472
 30
0.0
 11
178.7228244100338372
 21
242.0951178149445582
 31
0.0
  0
ARC
  5
24E
100
AcDbEntity
  8
Rib
 62
256
370
-1
  6
ByLayer
100
AcDbCircle
 10
176.25
 20
232.4056833919690916
 30
0.0
 40
10.0000000000000391
100
AcDbArc
 50
75.6832408810462312
 51
79.6688951556813976
  0
LINE
  5
24F
100
AcDbEntity
100
AcDbLine
  8
Rib
 62
256
370
-1
  6
ByLayer
 10
178.0433632216644924
 20
242.243561636549174
 30
0.0
 11
169.2933632216644639
 21
243.8386137198791914
 31
0.0
  0
ARC
  5
250
100
AcDbEntity
  8
Rib
 62
256
370
-1
  6
ByLayer
100
AcDbCircle
 10
167.5000000000000284
 20
234.0007354752992512
 30
0.0
 40
9.9999999999999023
100
AcDbArc
 50
79.6688951556815965
 51
83.7580856525657111
  0
LINE
  5
251
100
AcDbEntity
100
AcDbLine
  8
Rib
 62
256
370
-1
  6
ByLayer
 10
168.5872659128597206
 20
243.9414523928425069
 30
0.0
 11
159.8372659128597206
 21
244.898483642845548
 31
0.0
  0
ARC
  5
252
100
AcDbEntity
  8
Rib
 62
256
370
-1
  6
ByLayer
100
AcDbCircle
 10
158.75
 20
234.9577667253022355
 30
0.0
 40
9.9999999999999201
100
AcDbArc
 50
83.758085652565569
 51
87.9120161672745439
  0
ARC
  5
253
100
AcDbEntity
  8
Rib
 62
256
370
-1
  6
ByLayer
100
AcDbCircle
 10
141.2500000000000284
 20
234.9577667253021787
 30
0.0
 40
9.9999999999999574
100
AcDbArc
 50
92.0879838327255129
 51
96.241914347434431
  0
LINE
  5
254
100
AcDbEntity
100
AcDbLine
  8
Rib
 62
256
370
-1
  6
ByLayer
 10
140.1627340871403078
 20
244.898483642845548
 30
0.0
 11
131.4127340871403362
 21
243.9414523928425638
 31
0.0
  0
ARC
  5
255
100
AcDbEntity
  8
Rib
 62
256
370
-1
  6
ByLayer
100
AcDbCircle
 10
132.5000000000000568
 20
234.0007354752991375
 30
0.0
 40
10.0000000000000142
100
AcDbArc
 50
96.2419143474347436
 51
100.3311048443188014
  0
LINE
  5
256
100
AcDbEntity
100
AcDbLine
  8
Rib
 62
256
370
-1
  6
ByLayer
 10
130.7066367783355645
 20
243.8386137198792198
 30
0.0
 11
121.9566367783355076
 21
242.243561636549174
 31
0.0
  0
ARC
  5
257
100
AcDbEntity
  8
Rib
 62
256
370
-1
  6
ByLayer
100
AcDbCircle
 10
123.75
 20
232.4056833919692053
 30
0.0
 40
9.9999999999999361
100
AcDbArc
 50
100.3311048443186024
 51
104.3167591189538257
  0
LINE
  5
258
100
AcDbEntity
100
AcDbLine
  8
Rib
 62
256
370
-1
  6
ByLayer
 10
121.2771755899661628
 20
242.0951178149445866
 30
0.0
 11
112.5271755899661201
 21
239.8620448982745472
 31
0.0
  0
ARC
  5
259
100
AcDbEntity
  8
Rib
 62
256
370
-1
  6
ByLayer
100
AcDbCircle
 10
115.0000000000000711
 20
230.172610475299166
 30
0.0
 40
10.000000000000032
100
AcDbArc
 50
104.3167591189540246
 51
108.1659565292258094
  0
LINE
  5
25A
100
AcDbEntity
100
AcDbLine
  8
Rib
 62
256
370
-1
  6
ByLayer
 10
111.8822958210268439
 20
239.6741851159791281
 30
0.0
 11
103.1322958210268439
 21
236.8030913659791281
 31
0.0
  0
ARC
  5
25B
100
AcDbEntity
  8
Rib
 62
256
370
-1
  6
ByLayer
100
AcDbCircle
 10
106.2499999999999716
 20
227.3015167252993933
 30
0.0
 40
9.9999999999997975
100
AcDbArc
 50
108.1659565292255962
 51
111.8528419496395543
  0
ARC
  5
25C
100
AcDbEntity
  8
Rib
 62
256
370
-1
  6
ByLayer
100
AcDbCircle
 10
88.7500000000001137
 20
219.6452667252690389
 30
0.0
 40
10.0000000000001457
100
AcDbArc
 50
115.3590023980367221
 51
118.6731464894353252
  0
LINE
  5
25D
100
AcDbEntity
100
AcDbLine
  8
Rib
 62
256
370
-1
  6
ByLayer
 10
83.9518765805728862
 20
228.4189781207930139
 30
0.0
 11
75.2018765805729004
 21
223.6338218707930423
 31
0.0
  0
ARC
  5
25E
100
AcDbEntity
  8
Rib
 62
256
370
-1
  6
ByLayer
100
AcDbCircle
 10
79.9999999999999858
 20
214.8601104752692095
 30
0.0
 40
9.9999999999999982
100
AcDbArc
 50
118.6731464894349131
 51
121.7902897856717175
  0
LINE
  5
25F
100
AcDbEntity
100
AcDbLine
  8
Rib
 62
256
370
-1
  6
ByLayer
 10
74.7318824781376065
 20
223.359930342527889
 30
0.0
 11
65.981882478137635
 21
217.9367532592279986
 31
0.0
  0
ARC
  5
260
100
AcDbEntity
  8
Rib
 62
256
370
-1
  6
ByLayer
100
AcDbCircle
 10
71.2499999999999432
 20
209.4369333919692906
 30
0.0
 40
9.9999999999999165
100
AcDbArc
 50
121.790289785671618
 51
124.7106682289477533
  0
LINE
  5
261
100
AcDbEntity
100
AcDbLine
  8
Rib
 62
256
370
-1
  6
ByLayer
 10
65.5556740673610108
 20
217.6573136856584938
 30
0.0
 11
56.8056740673609966
 21
211.5961157689584695
 31
0.0
  0
ARC
  5
262
100
AcDbEntity
  8
Rib
 62
256
370
-1
  6
ByLayer
100
AcDbCircle
 10
62.5
 20
203.3757354752689821
 30
0.0
 40
10.000000000000032
100
AcDbArc
 50
124.7106682289478528
 51
127.4385715723330179
  0
ARC
  5
263
100
AcDbEntity
  8
Rib
 62
256
370
-1
  6
ByLayer
100
AcDbCircle
 10
53.7499999999996874
 20
196.6765167252689537
 30
0.0
 40
9.9999999999998863
100
AcDbArc
 50
127.4385715723312842
 51
129.9812346587890488
  0
LINE
  5
264
100
AcDbEntity
100
AcDbLine
  8
Rib
 62
256
370
-1
  6
ByLayer
 10
47.3246331735377197
 20
204.339065984190654
 30
0.0
 11
38.5746331735377197
 21
197.0018264008903941
 31
0.0
  0
ARC
  5
265
100
AcDbEntity
  8
Rib
 62
256
370
-1
  6
ByLayer
100
AcDbCircle
 10
45.0000000000000711
 20
189.3392771419692338
 30
0.0
 40
9.9999999999999574
100
AcDbArc
 50
129.9812346587916068
 51
132.3478678610828183
  0
LINE
  5
266
100
AcDbEntity
100
AcDbLine
  8
Rib
 62
256
370
-1
  6
ByLayer
 10
38.2636979532047405
 20
196.7299628161362932
 30
0.0
 11
29.5136979532047405
 21
188.7547023994363826
 31
0.0
  0
ARC
  5
267
100
AcDbEntity
  8
Rib
 62
256
370
-1
  6
ByLayer
100
AcDbCircle
 10
36.2499999999997016
 20
181.3640167252690389
 30
0.0
 40
9.999999999999897
100
AcDbArc
 50
132.3478678610801751
 51
134.5488614532110034
  0
LINE
  5
268
100
AcDbEntity
100
AcDbLine
  8
Rib
 62
256
370
-1
  6
ByLayer
 10
29.2348273548567761
 20
188.4905413171606199
 30
0.0
 11
20.4848273548568045
 21
179.8772600671605915
 31
0.0
  0
ARC
  5
269
100
AcDbEntity
  8
Rib
 62
256
370
-1
  6
ByLayer
100
AcDbCircle
 10
27.4999999999995168
 20
172.7507354752688968
 30
0.0
 40
9.9999999999998597
100
AcDbArc
 50
134.5488614532097813
 51
136.5951663957050926
  0
ARC
  5
26A
100
AcDbEntity
  8
Rib
 62
256
370
-1
  6
ByLayer
100
AcDbCircle
 10
18.7499999999998863
 20
163.4994333919693759
 30
0.0
 40
9.9999999999997815
100
AcDbArc
 50
136.595166395708759
 51
138.4978351068689335
  0
LINE
  5
26B
100
AcDbEntity
100
AcDbLine
  8
Rib
 62
256
370
-1
  6
ByLayer
 10
288.0120549599901096
 20
155.8569025257046405
 30
0.0
 11
281.25
 21
163.4994333919692338
 31
0.0
  0
ARC
  5
26C
100
AcDbEntity
  8
Rib
 62
256
370
-1
  6
ByLayer
100
AcDbCircle
 10
290.2588470104255407
 20
157.8448475657145025
 30
0.0
 40
3.0
100
AcDbArc
 50
221.5021648931317202
 51
311.5021648931315781
  0
LINE
  5
26D
100
AcDbEntity
100
AcDbLine
  8
Rib
 62
256
370
-1
  6
ByLayer
 10
295.242514784349396
 20
158.2486489019588589
 30
0.0
 11
292.2467920504354311
 21
155.598055515279043
 31
0.0
  0
LINE
  5
26E
100
AcDbEntity
100
AcDbLine
  8
Rib
 62
256
370
-1
  6
ByLayer
 10
295.5013617947749367
 20
162.483385992404294
 30
0.0
 11
288.7393068347848271
 21
170.1259168586688872
 31
0.0
  0
ARC
  5
26F
100
AcDbEntity
  8
Rib
 62
256
370
-1
  6
ByLayer
100
AcDbCircle
 10
293.2545697443393919
 20
160.4954409523943184
 30
0.0
 40
3.0
100
AcDbArc
 50
311.5021648931316918
 51
41.5021648931316847
  0
LINE
  5
270
100
AcDbEntity
100
AcDbLine
  8
Rib
 62
256
370
-1
  6
ByLayer
 10
18.75
 20
163.4994333919691769
 30
0.0
 11
11.9879450400098904
 21
155.8569025257046121
 31
0.0
  0
ARC
  5
271
100
AcDbEntity
  8
Rib
 62
256
370
-1
  6
ByLayer
100
AcDbCircle
 10
9.7411529895744593
 20
157.8448475657145309
 30
0.0
 40
3.0
100
AcDbArc
 50
228.4978351068682798
 51
318.4978351068681945
  0
LINE
  5
272
100
AcDbEntity
100
AcDbLine
  8
Rib
 62
256
370
-1
  6
ByLayer
 10
7.7532079495645121
 20
155.5980555152790714
 30
0.0
 11
4.757485215650604
 21
158.2486489019589726
 31
0.0
  0
LINE
  5
273
100
AcDbEntity
100
AcDbLine
  8
Rib
 62
256
370
-1
  6
ByLayer
 10
11.2606931652151729
 20
170.1259168586689441
 30
0.0
 11
4.4986382052250633
 21
162.4833859924043509
 31
0.0
  0
ARC
  5
274
100
AcDbEntity
  8
Rib
 62
256
370
-1
  6
ByLayer
100
AcDbCircle
 10
6.7454302556605512
 20
160.4954409523943468
 30
0.0
 40
3.0
100
AcDbArc
 50
138.497835106868223
 51
228.4978351068684788
  0
LINE
  5
275
100
AcDbEntity
100
AcDbLine
  8
Rib
 62
256
370
-1
  6
ByLayer
 10
281.9604343648520057
 20
170.0247413623450825
 30
0.0
 11
278.5246903454684571
 21
173.657324882825975
 31
0.0
  0
LINE
  5
276
100
AcDbEntity
100
AcDbLine
  8
Rib
 62
256
370
-1
  6
ByLayer
 10
207.4223800120484498
 20
226.9925639009061911
 30
0.0
 11
202.9041700961761308
 21
229.1340071423003906
 31
0.0
  0
LINE
  5
277
100
AcDbEntity
100
AcDbLine
  8
Rib
 62
256
370
-1
  6
ByLayer
 10
152.5000000000000284
 20
240.2767771419691769
 30
0.0
 11
147.5
 21
240.2767771419691769
 31
0.0
  0
LINE
  5
278
100
AcDbEntity
100
AcDbLine
  8
Rib
 62
256
370
-1
  6
ByLayer
 10
97.0958299038238977
 20
229.1340071423004474
 30
0.0
 11
92.5776199879515644
 21
226.9925639009062479
 31
0.0
  0
LINE
  5
279
100
AcDbEntity
100
AcDbLine
  8
Rib
 62
256
370
-1
  6
ByLayer
 10
21.4753096545314861
 20
173.6573248828262308
 30
0.0
 11
18.0395656351479374
 21
170.0247413623452246
 31
0.0
  0
LINE
  5
27A
100
AcDbEntity
100
AcDbLine
  8
Rib
 62
256
370
-1
  6
ByLayer
 10
288.5151670409619555
 20
170.3709214307363027
 30
0.0
 11
286.2801666892097501
 21
172.7339686776325038
 31
0.0
  0
LINE
  5
27B
100
AcDbEntity
100
AcDbLine
  8
Rib
 62
256
370
-1
  6
ByLayer
 10
284.8665011812367993
 20
172.7733365778518078
 30
0.0
 11
281.9604343648520057
 21
170.0247413623450825
 31
0.0
  0
ARC
  5
27C
100
AcDbEntity
  8
Rib
 62
256
370
-1
  6
ByLayer
100
AcDbCircle
 10
285.5536499851135659
 20
172.0468198737556804
 30
0.0
 40
1.0
100
AcDbArc
 50
43.4048336042920013
 51
133.4048336042919516
  0
LINE
  5
27D
100
AcDbEntity
100
AcDbLine
  8
Rib
 62
256
370
-1
  6
ByLayer
 10
281.4701250620727251
 20
177.8195856063056794
 30
0.0
 11
279.7651670409619555
 21
179.6222235140361931
 31
0.0
  0
LINE
  5
27E
100
AcDbEntity
100
AcDbLine
  8
Rib
 62
256
370
-1
  6
ByLayer
 10
278.5246903454684571
 20
173.657324882825975
 30
0.0
 11
281.4307571618532506
 21
176.4059200983329561
 31
0.0
  0
ARC
  5
27F
100
AcDbEntity
  8
Rib
 62
256
370
-1
  6
ByLayer
100
AcDbCircle
 10
280.7436083579765409
 20
177.1324368024290266
 30
0.0
 40
1.0
100
AcDbArc
 50
313.4048336042920369
 51
43.4048336042923069
  0
LINE
  5
280
100
AcDbEntity
100
AcDbLine
  8
Rib
 62
256
370
-1
  6
ByLayer
 10
215.532886482788399
 20
228.6816865570138191
 30
0.0
 11
210.4674652366171301
 21
231.0824851684996588
 31
0.0
  0
LINE
  5
281
100
AcDbEntity
100
AcDbLine
  8
Rib
 62
256
370
-1
  6
ByLayer
 10
209.1355346051638548
 20
230.6071318336040292
 30
0.0
 11
207.4223800120484498
 21
226.9925639009061911
 31
0.0
  0
ARC
  5
282
100
AcDbEntity
  8
Rib
 62
256
370
-1
  6
ByLayer
100
AcDbCircle
 10
210.0391765883382789
 20
230.1788431853252632
 30
0.0
 40
1.0
100
AcDbArc
 50
64.640997601963889
 51
154.6409976019637895
  0
LINE
  5
283
100
AcDbEntity
100
AcDbLine
  8
Rib
 62
256
370
-1
  6
ByLayer
 10
202.9041700961761308
 20
229.1340071423003906
 30
0.0
 11
204.5478618026775735
 21
232.6020160175282285
 31
0.0
  0
LINE
  5
284
100
AcDbEntity
100
AcDbLine
  8
Rib
 62
256
370
-1
  6
ByLayer
 10
204.0164438079075921
 20
233.9584475979335139
 30
0.0
 11
197.4722398840451376
 21
236.5829460465633929
 31
0.0
  0
ARC
  5
285
100
AcDbEntity
  8
Rib
 62
256
370
-1
  6
ByLayer
100
AcDbCircle
 10
203.6442198195030926
 20
233.0303046658070798
 30
0.0
 40
1.0
100
AcDbArc
 50
334.6409976019638179
 51
68.1471580503605878
  0
LINE
  5
286
100
AcDbEntity
100
AcDbLine
  8
Rib
 62
256
370
-1
  6
ByLayer
 10
159.1143412707021696
 20
244.9511272931223118
 30
0.0
 11
153.5364341270702369
 21
245.1544884910674398
 31
0.0
  0
LINE
  5
287
100
AcDbEntity
100
AcDbLine
  8
Rib
 62
256
370
-1
  6
ByLayer
 10
152.5000000000000284
 20
244.1551524342854407
 30
0.0
 11
152.5000000000000284
 21
240.2767771419691769
 31
0.0
  0
ARC
  5
288
100
AcDbEntity
  8
Rib
 62
256
370
-1
  6
ByLayer
100
AcDbCircle
 10
153.5
 20
244.1551524342854407
 30
0.0
 40
1.0
100
AcDbArc
 50
87.9120161672744445
 51
180.0
  0
LINE
  5
289
100
AcDbEntity
100
AcDbLine
  8
Rib
 62
256
370
-1
  6
ByLayer
 10
147.5
 20
240.2767771419691769
 30
0.0
 11
147.5
 21
244.1551524342854407
 31
0.0
  0
LINE
  5
28A
100
AcDbEntity
100
AcDbLine
  8
Rib
 62
256
370
-1
  6
ByLayer
 10
146.46356587292982
 20
245.1544884910674398
 30
0.0
 11
140.8856587292978588
 21
244.9511272931223118
 31
0.0
  0
ARC
  5
28B
100
AcDbEntity
  8
Rib
 62
256
370
-1
  6
ByLayer
100
AcDbCircle
 10
146.5000000000000284
 20
244.1551524342854407
 30
0.0
 40
1.0
100
AcDbArc
 50
360.0
 51
92.0879838327255129
  0
LINE
  5
28C
100
AcDbEntity
100
AcDbLine
  8
Rib
 62
256
370
-1
  6
ByLayer
 10
102.5277601159548766
 20
236.5829460465634213
 30
0.0
 11
95.9835561920924221
 21
233.9584475979335423
 31
0.0
  0
LINE
  5
28D
100
AcDbEntity
100
AcDbLine
  8
Rib
 62
256
370
-1
  6
ByLayer
 10
95.452138197322455
 20
232.602016017528257
 30
0.0
 11
97.0958299038238977
 21
229.1340071423004474
 31
0.0
  0
ARC
  5
28E
100
AcDbEntity
  8
Rib
 62
256
370
-1
  6
ByLayer
100
AcDbCircle
 10
96.35578018049695
 20
233.0303046658071651
 30
0.0
 40
1.0
100
AcDbArc
 50
111.8528419496393553
 51
205.3590023980362105
  0
LINE
  5
28F
100
AcDbEntity
100
AcDbLine
  8
Rib
 62
256
370
-1
  6
ByLayer
 10
92.5776199879515644
 20
226.9925639009062479
 30
0.0
 11
90.8644653948361736
 21
230.6071318336040576
 31
0.0
  0
LINE
  5
290
100
AcDbEntity
100
AcDbLine
  8
Rib
 62
256
370
-1
  6
ByLayer
 10
89.5325347633828699
 20
231.0824851684997157
 30
0.0
 11
84.467113517211601
 21
228.6816865570138759
 31
0.0
  0
ARC
  5
291
100
AcDbEntity
  8
Rib
 62
256
370
-1
  6
ByLayer
100
AcDbCircle
 10
89.9608234116617353
 20
230.1788431853252916
 30
0.0
 40
1.0
100
AcDbArc
 50
25.3590023980362638
 51
115.35900239803631
  0
LINE
  5
292
100
AcDbEntity
100
AcDbLine
  8
Rib
 62
256
370
-1
  6
ByLayer
 10
20.2348329590379876
 20
179.6222235140361363
 30
0.0
 11
18.5298749379272181
 21
177.8195856063057931
 31
0.0
  0
LINE
  5
293
100
AcDbEntity
100
AcDbLine
  8
Rib
 62
256
370
-1
  6
ByLayer
 10
18.5692428381466925
 20
176.4059200983330697
 30
0.0
 11
21.4753096545314861
 21
173.6573248828262308
 31
0.0
  0
ARC
  5
294
100
AcDbEntity
  8
Rib
 62
256
370
-1
  6
ByLayer
100
AcDbCircle
 10
19.2563916420234023
 20
177.1324368024292539
 30
0.0
 40
1.0
100
AcDbArc
 50
136.5951663957083611
 51
226.5951663957079631
  0
LINE
  5
295
100
AcDbEntity
100
AcDbLine
  8
Rib
 62
256
370
-1
  6
ByLayer
 10
18.0395656351479374
 20
170.0247413623452246
 30
0.0
 11
15.1334988187631438
 21
172.7733365778519214
 31
0.0
  0
LINE
  5
296
100
AcDbEntity
100
AcDbLine
  8
Rib
 62
256
370
-1
  6
ByLayer
 10
13.7198333107902499
 20
172.7339686776325038
 30
0.0
 11
11.4848329590379876
 21
170.3709214307363027
 31
0.0
  0
ARC
  5
297
100
AcDbEntity
  8
Rib
 62
256
370
-1
  6
ByLayer
100
AcDbCircle
 10
14.4463500148864341
 20
172.0468198737558509
 30
0.0
 40
1.0
100
AcDbArc
 50
46.5951663957082474
 51
136.5951663957080484
  0
LINE
  5
298
100
AcDbEntity
100
AcDbLine
  8
Rib
 62
256
370
-1
  6
ByLayer
 10
56.4208949728308653
 20
211.3157910209594661
 30
0.0
 11
53.6131556577198722
 21
209.1661156078275781
 31
0.0
  0
LINE
  5
299
100
AcDbEntity
100
AcDbLine
  8
Rib
 62
256
370
-1
  6
ByLayer
 10
49.6431278848747439
 20
206.1265630942432097
 30
0.0
 11
47.6708949728308653
 21
204.6165722709596082
 31
0.0
  0
LINE
  5
29A
100
AcDbEntity
100
AcDbLine
  8
Rib
 62
256
370
-1
  6
ByLayer
 10
243.3472918286955178
 20
205.1960878349823929
 30
0.0
 11
247.3173196015406745
 21
202.1565353213973992
 31
0.0
  0
LINE
  5
29B
100
AcDbEntity
100
AcDbLine
  8
Rib
 62
256
370
-1
  6
ByLayer
 10
247.3173196015406745
 20
202.1565353213973992
 30
0.0
 11
250.3568721151252134
 21
206.1265630942430676
 31
0.0
  0
LINE
  5
29C
100
AcDbEntity
100
AcDbLine
  8
Rib
 62
256
370
-1
  6
ByLayer
 10
246.3868443422801136
 20
209.1661156078275212
 30
0.0
 11
243.3472918286955178
 21
205.1960878349823929
 31
0.0
  0
LINE
  5
29D
100
AcDbEntity
100
AcDbLine
  8
Rib
 62
256
370
-1
  6
ByLayer
 10
252.3291050271691347
 20
204.6165722709594661
 30
0.0
 11
250.3568721151252134
 21
206.1265630942430676
 31
0.0
  0
LINE
  5
29E
100
AcDbEntity
100
AcDbLine
  8
Rib
 62
256
370
-1
  6
ByLayer
 10
246.3868443422800851
 20
209.1661156078275212
 30
0.0
 11
243.5791050271691347
 21
211.3157910209594093
 31
0.0
  0
LINE
  5
29F
100
AcDbEntity
100
AcDbLine
  8
Rib
 62
256
370
-1
  6
ByLayer
 10
56.6527081713044396
 20
205.1960878349831319
 30
0.0
 11
52.6826803984592971
 21
202.1565353213974561
 31
0.0
  0
LINE
  5
2A0
100
AcDbEntity
100
AcDbLine
  8
Rib
 62
256
370
-1
  6
ByLayer
 10
52.6826803984592971
 20
202.1565353213974561
 30
0.0
 11
49.6431278848747439
 21
206.1265630942432097
 31
0.0
  0
LINE
  5
2A1
100
AcDbEntity
100
AcDbLine
  8
Rib
 62
256
370
-1
  6
ByLayer
 10
53.6131556577198722
 20
209.1661156078275781
 30
0.0
 11
56.6527081713044396
 21
205.1960878349831319
 31
0.0
  0
LINE
  5
2A2
100
AcDbEntity
100
AcDbLine
  8
Rib
 62
256
370
-1
  6
ByLayer
 10
281.25
 20
183.4994333919692338
 30
0.0
 11
272.5
 21
192.7507354752692379
 31
0.0
  0
LINE
  5
2A3
100
AcDbEntity
100
AcDbLine
  8
Rib
 62
256
370
-1
  6
ByLayer
 10
272.5
 20
192.7507354752692379
 30
0.0
 11
263.75
 21
201.3640167252691526
 31
0.0
  0
LINE
  5
2A4
100
AcDbEntity
100
AcDbLine
  8
Rib
 62
256
370
-1
  6
ByLayer
 10
263.75
 20
201.3640167252691526
 30
0.0
 11
255.0
 21
209.3392771419692338
 31
0.0
  0
LINE
  5
2A5
100
AcDbEntity
100
AcDbLine
  8
Rib
 62
256
370
-1
  6
ByLayer
 10
255.0
 20
209.3392771419692338
 30
0.0
 11
246.25
 21
216.6765167252689253
 31
0.0
  0
LINE
  5
2A6
100
AcDbEntity
100
AcDbLine
  8
Rib
 62
256
370
-1
  6
ByLayer
 10
246.25
 20
216.6765167252689253
 30
0.0
 11
237.5
 21
223.3757354752689253
 31
0.0
  0
LINE
  5
2A7
100
AcDbEntity
100
AcDbLine
  8
Rib
 62
256
370
-1
  6
ByLayer
 10
237.5
 20
223.3757354752689253
 30
0.0
 11
228.75
 21
229.4369333919692338
 31
0.0
  0
LINE
  5
2A8
100
AcDbEntity
100
AcDbLine
  8
Rib
 62
256
370
-1
  6
ByLayer
 10
228.75
 20
229.4369333919692338
 30
0.0
 11
220.0
 21
234.8601104752691526
 31
0.0
  0
LINE
  5
2A9
100
AcDbEntity
100
AcDbLine
  8
Rib
 62
256
370
-1
  6
ByLayer
 10
220.0
 20
234.8601104752691526
 30
0.0
 11
211.25
 21
239.6452667252691526
 31
0.0
  0
LINE
  5
2AA
100
AcDbEntity
100
AcDbLine
  8
Rib
 62
256
370
-1
  6
ByLayer
 10
211.25
 20
239.6452667252691526
 30
0.0
 11
202.5
 21
243.7924021419691485
 31
0.0
  0
LINE
  5
2AB
100
AcDbEntity
100
AcDbLine
  8
Rib
 62
256
370
-1
  6
ByLayer
 10
202.5
 20
243.7924021419691485
 30
0.0
 11
193.75
 21
247.3015167252991091
 31
0.0
  0
LINE
  5
2AC
100
AcDbEntity
100
AcDbLine
  8
Rib
 62
256
370
-1
  6
ByLayer
 10
193.75
 20
247.3015167252991091
 30
0.0
 11
185.0
 21
250.1726104752991091
 31
0.0
  0
LINE
  5
2AD
100
AcDbEntity
100
AcDbLine
  8
Rib
 62
256
370
-1
  6
ByLayer
 10
185.0
 20
250.1726104752991091
 30
0.0
 11
176.2499999999999716
 21
252.4056833919691485
 31
0.0
  0
LINE
  5
2AE
100
AcDbEntity
100
AcDbLine
  8
Rib
 62
256
370
-1
  6
ByLayer
 10
176.2499999999999716
 20
252.4056833919691485
 30
0.0
 11
167.4999999999999716
 21
254.0007354752991375
 31
0.0
  0
LINE
  5
2AF
100
AcDbEntity
100
AcDbLine
  8
Rib
 62
256
370
-1
  6
ByLayer
 10
167.4999999999999716
 20
254.0007354752991375
 30
0.0
 11
158.75
 21
254.9577667253021502
 31
0.0
  0
LINE
  5
2B0
100
AcDbEntity
100
AcDbLine
  8
Rib
 62
256
370
-1
  6
ByLayer
 10
158.75
 20
254.9577667253021502
 30
0.0
 11
150.0
 21
255.2767771419691485
 31
0.0
  0
LINE
  5
2B1
100
AcDbEntity
100
AcDbLine
  8
Rib
 62
256
370
-1
  6
ByLayer
 10
150.0
 20
255.2767771419691485
 30
0.0
 11
141.2499999999999716
 21
254.9577667253021502
 31
0.0
  0
LINE
  5
2B2
100
AcDbEntity
100
AcDbLine
  8
Rib
 62
256
370
-1
  6
ByLayer
 10
141.2499999999999716
 20
254.9577667253021502
 30
0.0
 11
132.4999999999999716
 21
254.0007354752991375
 31
0.0
  0
LINE
  5
2B3
100
AcDbEntity
100
AcDbLine
  8
Rib
 62
256
370
-1
  6
ByLayer
 10
132.4999999999999716
 20
254.0007354752991375
 30
0.0
 11
123.7499999999999716
 21
252.4056833919691485
 31
0.0
  0
LINE
  5
2B4
100
AcDbEntity
100
AcDbLine
  8
Rib
 62
256
370
-1
  6
ByLayer
 10
123.7499999999999716
 20
252.4056833919691485
 30
0.0
 11
115.0
 21
250.1726104752991375
 31
0.0
  0
LINE
  5
2B5
100
AcDbEntity
100
AcDbLine
  8
Rib
 62
256
370
-1
  6
ByLayer
 10
115.0
 20
250.1726104752991375
 30
0.0
 11
106.25
 21
247.301516725299166
 31
0.0
  0
LINE
  5
2B6
100
AcDbEntity
100
AcDbLine
  8
Rib
 62
256
370
-1
  6
ByLayer
 10
106.25
 20
247.301516725299166
 30
0.0
 11
97.5
 21
243.7924021419691769
 31
0.0
  0
LINE
  5
2B7
100
AcDbEntity
100
AcDbLine
  8
Rib
 62
256
370
-1
  6
ByLayer
 10
97.5
 20
243.7924021419691769
 30
0.0
 11
88.75
 21
239.6452667252692095
 31
0.0
  0
LINE
  5
2B8
100
AcDbEntity
100
AcDbLine
  8
Rib
 62
256
370
-1
  6
ByLayer
 10
88.75
 20
239.6452667252692095
 30
0.0
 11
80.0
 21
234.8601104752692095
 31
0.0
  0
LINE
  5
2B9
100
AcDbEntity
100
AcDbLine
  8
Rib
 62
256
370
-1
  6
ByLayer
 10
80.0
 20
234.8601104752692095
 30
0.0
 11
71.25
 21
229.4369333919691485
 31
0.0
  0
LINE
  5
2BA
100
AcDbEntity
100
AcDbLine
  8
Rib
 62
256
370
-1
  6
ByLayer
 10
71.25
 20
229.4369333919691485
 30
0.0
 11
62.4999999999999858
 21
223.3757354752689821
 31
0.0
  0
LINE
  5
2BB
100
AcDbEntity
100
AcDbLine
  8
Rib
 62
256
370
-1
  6
ByLayer
 10
62.4999999999999858
 20
223.3757354752689821
 30
0.0
 11
53.7499999999999858
 21
216.6765167252689537
 31
0.0
  0
LINE
  5
2BC
100
AcDbEntity
100
AcDbLine
  8
Rib
 62
256
370
-1
  6
ByLayer
 10
53.7499999999999858
 20
216.6765167252689537
 30
0.0
 11
44.9999999999999858
 21
209.3392771419690632
 31
0.0
  0
LINE
  5
2BD
100
AcDbEntity
100
AcDbLine
  8
Rib
 62
256
370
-1
  6
ByLayer
 10
44.9999999999999858
 20
209.3392771419690632
 30
0.0
 11
36.2499999999999716
 21
201.3640167252691811
 31
0.0
  0
LINE
  5
2BE
100
AcDbEntity
100
AcDbLine
  8
Rib
 62
256
370
-1
  6
ByLayer
 10
36.2499999999999716
 20
201.3640167252691811
 30
0.0
 11
27.4999999999999716
 21
192.7507354752691811
 31
0.0
  0
LINE
  5
2BF
100
AcDbEntity
100
AcDbLine
  8
Rib
 62
256
370
-1
  6
ByLayer
 10
27.4999999999999716
 20
192.7507354752691811
 30
0.0
 11
18.75
 21
183.4994333919691769
 31
0.0
  0
ARC
  5
2C0
100
AcDbEntity
  8
Rib
 62
256
370
-1
  6
ByLayer
100
AcDbCircle
 10
281.2500000000001705
 20
183.4994333919690632
 30
0.0
 40
9.9999999999999503
100
AcDbArc
 50
41.5021648931329565
 51
43.4048336042931737
  0
ARC
  5
2C1
100
AcDbEntity
  8
Rib
 62
256
370
-1
  6
ByLayer
100
AcDbCircle
 10
272.5000000000001137
 20
192.7507354752689821
 30
0.0
 40
10.0000000000000338
100
AcDbArc
 50
43.4048336042931737
 51
45.4511385467886413
  0
LINE
  5
2C2
100
AcDbEntity
100
AcDbLine
  8
Rib
 62
256
370
-1
  6
ByLayer
 10
279.5151726451431955
 20
199.8772600671605915
 30
0.0
 11
270.7651726451431955
 21
208.4905413171605915
 31
0.0
  0
ARC
  5
2C3
100
AcDbEntity
  8
Rib
 62
256
370
-1
  6
ByLayer
100
AcDbCircle
 10
263.75
 20
201.36401672526884
 30
0.0
 40
10.0000000000001279
100
AcDbArc
 50
45.4511385467881794
 51
47.6521321389189154
  0
LINE
  5
2C4
100
AcDbEntity
100
AcDbLine
  8
Rib
 62
256
370
-1
  6
ByLayer
 10
270.486302046795231
 20
208.7547023994363826
 30
0.0
 11
261.736302046795231
 21
216.7299628161362364
 31
0.0
  0
ARC
  5
2C5
100
AcDbEntity
  8
Rib
 62
256
370
-1
  6
ByLayer
100
AcDbCircle
 10
255.0000000000001705
 20
209.3392771419689211
 30
0.0
 40
10.0000000000000089
100
AcDbArc
 50
47.6521321389193204
 51
50.0187653412105391
  0
LINE
  5
2C6
100
AcDbEntity
100
AcDbLine
  8
Rib
 62
256
370
-1
  6
ByLayer
 10
261.4253668264622092
 20
217.0018264008903088
 30
0.0
 11
252.6753668264622661
 21
224.3390659841905119
 31
0.0
  0
ARC
  5
2C7
100
AcDbEntity
  8
Rib
 62
256
370
-1
  6
ByLayer
100
AcDbCircle
 10
246.2499999999998295
 20
216.6765167252689253
 30
0.0
 40
10.0000000000001474
100
AcDbArc
 50
50.0187653412087059
 51
52.5614284276662715
  0
ARC
  5
2C8
100
AcDbEntity
  8
Rib
 62
256
370
-1
  6
ByLayer
100
AcDbCircle
 10
237.5000000000003411
 20
223.3757354752694084
 30
0.0
 40
9.9999999999996074
100
AcDbArc
 50
52.5614284276676997
 51
55.2893317710529644
  0
LINE
  5
2C9
100
AcDbEntity
100
AcDbLine
  8
Rib
 62
256
370
-1
  6
ByLayer
 10
243.1943259326390034
 20
231.5961157689584127
 30
0.0
 11
234.444325932638975
 21
237.657313685658437
 31
0.0
  0
ARC
  5
2CA
100
AcDbEntity
  8
Rib
 62
256
370
-1
  6
ByLayer
100
AcDbCircle
 10
228.7499999999998863
 20
229.4369333919692053
 30
0.0
 40
9.9999999999999964
100
AcDbArc
 50
55.289331771051387
 51
58.2097102143274157
  0
LINE
  5
2CB
100
AcDbEntity
100
AcDbLine
  8
Rib
 62
256
370
-1
  6
ByLayer
 10
234.018117521862365
 20
237.9367532592279417
 30
0.0
 11
225.2681175218623366
 21
243.359930342527889
 31
0.0
  0
ARC
  5
2CC
100
AcDbEntity
  8
Rib
 62
256
370
-1
  6
ByLayer
100
AcDbCircle
 10
220.0000000000001705
 20
234.8601104752692095
 30
0.0
 40
9.9999999999998561
100
AcDbArc
 50
58.2097102143288936
 51
61.3268535105656909
  0
LINE
  5
2CD
100
AcDbEntity
100
AcDbLine
  8
Rib
 62
256
370
-1
  6
ByLayer
 10
224.7981234194270996
 20
243.6338218707929855
 30
0.0
 11
216.0481234194270996
 21
248.418978120792957
 31
0.0
  0
ARC
  5
2CE
100
AcDbEntity
  8
Rib
 62
256
370
-1
  6
ByLayer
100
AcDbCircle
 10
211.2499999999998295
 20
239.6452667252689821
 30
0.0
 40
10.0000000000001599
100
AcDbArc
 50
61.3268535105644688
 51
64.640997601963079
  0
ARC
  5
2CF
100
AcDbEntity
  8
Rib
 62
256
370
-1
  6
ByLayer
100
AcDbCircle
 10
193.75
 20
247.3015167252992228
 30
0.0
 40
9.9999999999999059
100
AcDbArc
 50
68.1471580503605452
 51
71.8340434707745032
  0
LINE
  5
2D0
100
AcDbEntity
100
AcDbLine
  8
Rib
 62
256
370
-1
  6
ByLayer
 10
196.8677041789731277
 20
256.8030913659791281
 30
0.0
 11
188.1177041789731277
 21
259.6741851159791281
 31
0.0
  0
ARC
  5
2D1
100
AcDbEntity
  8
Rib
 62
256
370
-1
  6
ByLayer
100
AcDbCircle
 10
185.0
 20
250.1726104752991091
 30
0.0
 40
10.0000000000000124
100
AcDbArc
 50
71.8340434707745459
 51
75.6832408810463306
  0
LINE
  5
2D2
100
AcDbEntity
100
AcDbLine
  8
Rib
 62
256
370
-1
  6
ByLayer
 10
187.4728244100338657
 20
259.8620448982745756
 30
0.0
 11
178.7228244100338372
 21
262.0951178149445582
 31
0.0
  0
ARC
  5
2D3
100
AcDbEntity
  8
Rib
 62
256
370
-1
  6
ByLayer
100
AcDbCircle
 10
176.25
 20
252.4056833919690916
 30
0.0
 40
10.0000000000000391
100
AcDbArc
 50
75.6832408810462312
 51
79.6688951556813976
  0
LINE
  5
2D4
100
AcDbEntity
100
AcDbLine
  8
Rib
 62
256
370
-1
  6
ByLayer
 10
178.0433632216644924
 20
262.2435616365492024
 30
0.0
 11
169.2933632216644639
 21
263.838613719879163
 31
0.0
  0
ARC
  5
2D5
100
AcDbEntity
  8
Rib
 62
256
370
-1
  6
ByLayer
100
AcDbCircle
 10
167.5000000000000284
 20
254.0007354752992512
 30
0.0
 40
9.9999999999999023
100
AcDbArc
 50
79.6688951556815965
 51
83.7580856525657111
  0
LINE
  5
2D6
100
AcDbEntity
100
AcDbLine
  8
Rib
 62
256
370
-1
  6
ByLayer
 10
168.5872659128597206
 20
263.9414523928425069
 30
0.0
 11
159.8372659128597206
 21
264.8984836428455765
 31
0.0
  0
ARC
  5
2D7
100
AcDbEntity
  8
Rib
 62
256
370
-1
  6
ByLayer
100
AcDbCircle
 10
158.75
 20
254.9577667253022355
 30
0.0
 40
9.9999999999999201
100
AcDbArc
 50
83.758085652565569
 51
87.9120161672745439
  0
ARC
  5
2D8
100
AcDbEntity
  8
Rib
 62
256
370
-1
  6
ByLayer
100
AcDbCircle
 10
141.2500000000000284
 20
254.9577667253021787
 30
0.0
 40
9.9999999999999574
100
AcDbArc
 50
92.0879838327255129
 51
96.241914347434431
  0
LINE
  5
2D9
100
AcDbEntity
100
AcDbLine
  8
Rib
 62
256
370
-1
  6
ByLayer
 10
140.1627340871403078
 20
264.8984836428455765
 30
0.0
 11
131.4127340871403362
 21
263.9414523928425638
 31
0.0
  0
ARC
  5
2DA
100
AcDbEntity
  8
Rib
 62
256
370
-1
  6
ByLayer
100
AcDbCircle
 10
132.5000000000000568
 20
254.0007354752991375
 30
0.0
 40
10.0000000000000142
100
AcDbArc
 50
96.2419143474347436
 51
100.3311048443188014
  0
LINE
  5
2DB
100
AcDbEntity
100
AcDbLine
  8
Rib
 62
256
370
-1
  6
ByLayer
 10
130.7066367783355645
 20
263.8386137198792198
 30
0.0
 11
121.9566367783355076
 21
262.2435616365492024
 31
0.0
  0
ARC
  5
2DC
100
AcDbEntity
  8
Rib
 62
256
370
-1
  6
ByLayer
100
AcDbCircle
 10
123.75
 20
252.4056833919692053
 30
0.0
 40
9.9999999999999361
100
AcDbArc
 50
100.3311048443186024
 51
104.3167591189538257
  0
LINE
  5
2DD
100
AcDbEntity
100
AcDbLine
  8
Rib
 62
256
370
-1
  6
ByLayer
 10
121.2771755899661628
 20
262.095117814944615
 30
0.0
 11
112.5271755899661201
 21
259.8620448982745756
 31
0.0
  0
ARC
  5
2DE
100
AcDbEntity
  8
Rib
 62
256
370
-1
  6
ByLayer
100
AcDbCircle
 10
115.0000000000000711
 20
250.172610475299166
 30
0.0
 40
10.000000000000032
100
AcDbArc
 50
104.3167591189540246
 51
108.1659565292258094
  0
LINE
  5
2DF
100
AcDbEntity
100
AcDbLine
  8
Rib
 62
256
370
-1
  6
ByLayer
 10
111.8822958210268439
 20
259.6741851159791281
 30
0.0
 11
103.1322958210268439
 21
256.8030913659791281
 31
0.0
  0
ARC
  5
2E0
100
AcDbEntity
  8
Rib
 62
256
370
-1
  6
ByLayer
100
AcDbCircle
 10
106.2499999999999716
 20
247.3015167252993933
 30
0.0
 40
9.9999999999997975
100
AcDbArc
 50
108.1659565292255962
 51
111.8528419496395543
  0
ARC
  5
2E1
100
AcDbEntity
  8
Rib
 62
256
370
-1
  6
ByLayer
100
AcDbCircle
 10
88.7500000000001137
 20
239.6452667252690389
 30
0.0
 40
10.0000000000001457
100
AcDbArc
 50
115.3590023980367221
 51
118.6731464894353252
  0
LINE
  5
2E2
100
AcDbEntity
100
AcDbLine
  8
Rib
 62
256
370
-1
  6
ByLayer
 10
83.9518765805728862
 20
248.4189781207930139
 30
0.0
 11
75.2018765805729004
 21
243.6338218707930423
 31
0.0
  0
ARC
  5
2E3
100
AcDbEntity
  8
Rib
 62
256
370
-1
  6
ByLayer
100
AcDbCircle
 10
79.9999999999999858
 20
234.8601104752692095
 30
0.0
 40
9.9999999999999982
100
AcDbArc
 50
118.6731464894349131
 51
121.7902897856717175
  0
LINE
  5
2E4
100
AcDbEntity
100
AcDbLine
  8
Rib
 62
256
370
-1
  6
ByLayer
 10
74.7318824781376065
 20
243.359930342527889
 30
0.0
 11
65.981882478137635
 21
237.9367532592279986
 31
0.0
  0
ARC
  5
2E5
100
AcDbEntity
  8
Rib
 62
256
370
-1
  6
ByLayer
100
AcDbCircle
 10
71.2499999999999432
 20
229.4369333919692906
 30
0.0
 40
9.9999999999999165
100
AcDbArc
 50
121.790289785671618
 51
124.7106682289477533
  0
LINE
  5
2E6
100
AcDbEntity
100
AcDbLine
  8
Rib
 62
256
370
-1
  6
ByLayer
 10
65.5556740673610108
 20
237.6573136856584938
 30
0.0
 11
56.8056740673609966
 21
231.5961157689584695
 31
0.0
  0
ARC
  5
2E7
100
AcDbEntity
  8
Rib
 62
256
370
-1
  6
ByLayer
100
AcDbCircle
 10
62.5
 20
223.3757354752689821
 30
0.0
 40
10.000000000000032
100
AcDbArc
 50
124.7106682289478528
 51
127.4385715723330179
  0
ARC
  5
2E8
100
AcDbEntity
  8
Rib
 62
256
370
-1
  6
ByLayer
100
AcDbCircle
 10
53.7499999999996874
 20
216.6765167252689537
 30
0.0
 40
9.9999999999998863
100
AcDbArc
 50
127.4385715723312842
 51
129.9812346587890488
  0
LINE
  5
2E9
100
AcDbEntity
100
AcDbLine
  8
Rib
 62
256
370
-1
  6
ByLayer
 10
47.3246331735377197
 20
224.339065984190654
 30
0.0
 11
38.5746331735377197
 21
217.0018264008903941
 31
0.0
  0
ARC
  5
2EA
100
AcDbEntity
  8
Rib
 62
256
370
-1
  6
ByLayer
100
AcDbCircle
 10
45.0000000000000711
 20
209.3392771419692338
 30
0.0
 40
9.9999999999999574
100
AcDbArc
 50
129.9812346587916068
 51
132.3478678610828183
  0
LINE
  5
2EB
100
AcDbEntity
100
AcDbLine
  8
Rib
 62
256
370
-1
  6
ByLayer
 10
38.2636979532047405
 20
216.7299628161362932
 30
0.0
 11
29.5136979532047405
 21
208.7547023994363826
 31
0.0
  0
ARC
  5
2EC
100
AcDbEntity
  8
Rib
 62
256
370
-1
  6
ByLayer
100
AcDbCircle
 10
36.2499999999997016
 20
201.3640167252690389
 30
0.0
 40
9.999999999999897
100
AcDbArc
 50
132.3478678610801751
 51
134.5488614532110034
  0
LINE
  5
2ED
100
AcDbEntity
100
AcDbLine
  8
Rib
 62
256
370
-1
  6
ByLayer
 10
29.2348273548567761
 20
208.4905413171606199
 30
0.0
 11
20.4848273548568045
 21
199.8772600671605915
 31
0.0
  0
ARC
  5
2EE
100
AcDbEntity
  8
Rib
 62
256
370
-1
  6
ByLayer
100
AcDbCircle
 10
27.4999999999995168
 20
192.7507354752688968
 30
0.0
 40
9.9999999999998597
100
AcDbArc
 50
134.5488614532097813
 51
136.5951663957050926
  0
ARC
  5
2EF
100
AcDbEntity
  8
Rib
 62
256
370
-1
  6
ByLayer
100
AcDbCircle
 10
18.7499999999998863
 20
183.4994333919693759
 30
0.0
 40
9.9999999999997815
100
AcDbArc
 50
136.595166395708759
 51
138.4978351068689335
  0
LINE
  5
2F0
100
AcDbEntity
100
AcDbLine
  8
Rib
 62
256
370
-1
  6
ByLayer
 10
288.0120549599901096
 20
175.8569025257046405
 30
0.0
 11
281.25
 21
183.4994333919692338
 31
0.0
  0
ARC
  5
2F1
100
AcDbEntity
  8
Rib
 62
256
370
-1
  6
ByLayer
100
AcDbCircle
 10
290.2588470104255407
 20
177.8448475657145025
 30
0.0
 40
3.0
100
AcDbArc
 50
221.5021648931317202
 51
311.5021648931315781
  0
LINE
  5
2F2
100
AcDbEntity
100
AcDbLine
  8
Rib
 62
256
370
-1
  6
ByLayer
 10
295.242514784349396
 20
178.2486489019588589
 30
0.0
 11
292.2467920504354311
 21
175.598055515279043
 31
0.0
  0
LINE
  5
2F3
100
AcDbEntity
100
AcDbLine
  8
Rib
 62
256
370
-1
  6
ByLayer
 10
295.5013617947749367
 20
182.483385992404294
 30
0.0
 11
288.7393068347848271
 21
190.1259168586688872
 31
0.0
  0
ARC
  5
2F4
100
AcDbEntity
  8
Rib
 62
256
370
-1
  6
ByLayer
100
AcDbCircle
 10
293.2545697443393919
 20
180.4954409523943184
 30
0.0
 40
3.0
100
AcDbArc
 50
311.5021648931316918
 51
41.5021648931316847
  0
LINE
  5
2F5
100
AcDbEntity
100
AcDbLine
  8
Rib
 62
256
370
-1
  6
ByLayer
 10
18.75
 20
183.4994333919691769
 30
0.0
 11
11.9879450400098904
 21
175.8569025257046121
 31
0.0
  0
ARC
  5
2F6
100
AcDbEntity
  8
Rib
 62
256
370
-1
  6
ByLayer
100
AcDbCircle
 10
9.7411529895744593
 20
177.8448475657145309
 30
0.0
 40
3.0
100
AcDbArc
 50
228.4978351068682798
 51
318.4978351068681945
  0
LINE
  5
2F7
100
AcDbEntity
100
AcDbLine
  8
Rib
 62
256
370
-1
  6
ByLayer
 10
7.7532079495645121
 20
175.5980555152790714
 30
0.0
 11
4.757485215650604
 21
178.2486489019589726
 31
0.0
  0
LINE
  5
2F8
100
AcDbEntity
100
AcDbLine
  8
Rib
 62
256
370
-1
  6
ByLayer
 10
11.2606931652151729
 20
190.1259168586689441
 30
0.0
 11
4.4986382052250633
 21
182.4833859924043509
 31
0.0
  0
ARC
  5
2F9
100
AcDbEntity
  8
Rib
 62
256
370
-1
  6
ByLayer
100
AcDbCircle
 10
6.7454302556605512
 20
180.4954409523943468
 30
0.0
 40
3.0
100
AcDbArc
 50
138.497835106868223
 51
228.4978351068684788
  0
LINE
  5
2FA
100
AcDbEntity
100
AcDbLine
  8
Rib
 62
256
370
-1
  6
ByLayer
 10
281.9604343648520057
 20
190.0247413623450825
 30
0.0
 11
278.5246903454684571
 21
193.657324882825975
 31
0.0
  0
LINE
  5
2FB
100
AcDbEntity
100
AcDbLine
  8
Rib
 62
256
370
-1
  6
ByLayer
 10
207.4223800120484498
 20
246.9925639009061911
 30
0.0
 11
202.9041700961761308
 21
249.1340071423003906
 31
0.0
  0
LINE
  5
2FC
100
AcDbEntity
100
AcDbLine
  8
Rib
 62
256
370
-1
  6
ByLayer
 10
152.5000000000000284
 20
260.2767771419692053
 30
0.0
 11
147.5
 21
260.2767771419692053
 31
0.0
  0
LINE
  5
2FD
100
AcDbEntity
100
AcDbLine
  8
Rib
 62
256
370
-1
  6
ByLayer
 10
97.0958299038238977
 20
249.1340071423004474
 30
0.0
 11
92.5776199879515644
 21
246.9925639009062479
 31
0.0
  0
LINE
  5
2FE
100
AcDbEntity
100
AcDbLine
  8
Rib
 62
256
370
-1
  6
ByLayer
 10
21.4753096545314861
 20
193.6573248828262308
 30
0.0
 11
18.0395656351479374
 21
190.0247413623452246
 31
0.0
  0
LINE
  5
2FF
100
AcDbEntity
100
AcDbLine
  8
Rib
 62
256
370
-1
  6
ByLayer
 10
288.5151670409619555
 20
190.3709214307363027
 30
0.0
 11
286.2801666892097501
 21
192.7339686776325038
 31
0.0
  0
LINE
  5
300
100
AcDbEntity
100
AcDbLine
  8
Rib
 62
256
370
-1
  6
ByLayer
 10
284.8665011812367993
 20
192.7733365778518078
 30
0.0
 11
281.9604343648520057
 21
190.0247413623450825
 31
0.0
  0
ARC
  5
301
100
AcDbEntity
  8
Rib
 62
256
370
-1
  6
ByLayer
100
AcDbCircle
 10
285.5536499851135659
 20
192.0468198737556804
 30
0.0
 40
1.0
100
AcDbArc
 50
43.4048336042920013
 51
133.4048336042919516
  0
LINE
  5
302
100
AcDbEntity
100
AcDbLine
  8
Rib
 62
256
370
-1
  6
ByLayer
 10
281.4701250620727251
 20
197.8195856063056794
 30
0.0
 11
279.7651670409619555
 21
199.6222235140361931
 31
0.0
  0
LINE
  5
303
100
AcDbEntity
100
AcDbLine
  8
Rib
 62
256
370
-1
  6
ByLayer
 10
278.5246903454684571
 20
193.657324882825975
 30
0.0
 11
281.4307571618532506
 21
196.4059200983329561
 31
0.0
  0
ARC
  5
304
100
AcDbEntity
  8
Rib
 62
256
370
-1
  6
ByLayer
100
AcDbCircle
 10
280.7436083579765409
 20
197.1324368024290266
 30
0.0
 40
1.0
100
AcDbArc
 50
313.4048336042920369
 51
43.4048336042923069
  0
LINE
  5
305
100
AcDbEntity
100
AcDbLine
  8
Rib
 62
256
370
-1
  6
ByLayer
 10
215.532886482788399
 20
248.6816865570138191
 30
0.0
 11
210.4674652366171301
 21
251.0824851684996588
 31
0.0
  0
LINE
  5
306
100
AcDbEntity
100
AcDbLine
  8
Rib
 62
256
370
-1
  6
ByLayer
 10
209.1355346051638548
 20
250.6071318336040292
 30
0.0
 11
207.4223800120484498
 21
246.9925639009061911
 31
0.0
  0
ARC
  5
307
100
AcDbEntity
  8
Rib
 62
256
370
-1
  6
ByLayer
100
AcDbCircle
 10
210.0391765883382789
 20
250.1788431853252632
 30
0.0
 40
1.0
100
AcDbArc
 50
64.640997601963889
 51
154.6409976019637895
  0
LINE
  5
308
100
AcDbEntity
100
AcDbLine
  8
Rib
 62
256
370
-1
  6
ByLayer
 10
202.9041700961761308
 20
249.1340071423003906
 30
0.0
 11
204.5478618026775735
 21
252.6020160175282285
 31
0.0
  0
LINE
  5
309
100
AcDbEntity
100
AcDbLine
  8
Rib
 62
256
370
-1
  6
ByLayer
 10
204.0164438079075921
 20
253.9584475979335139
 30
0.0
 11
197.4722398840451376
 21
256.5829460465633929
 31
0.0
  0
ARC
  5
30A
100
AcDbEntity
  8
Rib
 62
256
370
-1
  6
ByLayer
100
AcDbCircle
 10
203.6442198195030926
 20
253.0303046658070798
 30
0.0
 40
1.0
100
AcDbArc
 50
334.6409976019638179
 51
68.1471580503605878
  0
LINE
  5
30B
100
AcDbEntity
100
AcDbLine
  8
Rib
 62
256
370
-1
  6
ByLayer
 10
159.1143412707021696
 20
264.9511272931223402
 30
0.0
 11
153.5364341270702369
 21
265.1544884910674682
 31
0.0
  0
LINE
  5
30C
100
AcDbEntity
100
AcDbLine
  8
Rib
 62
256
370
-1
  6
ByLayer
 10
152.5000000000000284
 20
264.1551524342854691
 30
0.0
 11
152.5000000000000284
 21
260.2767771419692053
 31
0.0
  0
ARC
  5
30D
100
AcDbEntity
  8
Rib
 62
256
370
-1
  6
ByLayer
100
AcDbCircle
 10
153.5
 20
264.1551524342854691
 30
0.0
 40
1.0
100
AcDbArc
 50
87.9120161672744445
 51
180.0
  0
LINE
  5
30E
100
AcDbEntity
100
AcDbLine
  8
Rib
 62
256
370
-1
  6
ByLayer
 10
147.5
 20
260.2767771419692053
 30
0.0
 11
147.5
 21
264.1551524342854691
 31
0.0
  0
LINE
  5
30F
100
AcDbEntity
100
AcDbLine
  8
Rib
 62
256
370
-1
  6
ByLayer
 10
146.46356587292982
 20
265.1544884910674682
 30
0.0
 11
140.8856587292978588
 21
264.9511272931223402
 31
0.0
  0
ARC
  5
310
100
AcDbEntity
  8
Rib
 62
256
370
-1
  6
ByLayer
100
AcDbCircle
 10
146.5000000000000284
 20
264.1551524342854691
 30
0.0
 40
1.0
100
AcDbArc
 50
360.0
 51
92.0879838327255129
  0
LINE
  5
311
100
AcDbEntity
100
AcDbLine
  8
Rib
 62
256
370
-1
  6
ByLayer
 10
102.5277601159548766
 20
256.5829460465633929
 30
0.0
 11
95.9835561920924221
 21
253.9584475979335423
 31
0.0
  0
LINE
  5
312
100
AcDbEntity
100
AcDbLine
  8
Rib
 62
256
370
-1
  6
ByLayer
 10
95.452138197322455
 20
252.602016017528257
 30
0.0
 11
97.0958299038238977
 21
249.1340071423004474
 31
0.0
  0
ARC
  5
313
100
AcDbEntity
  8
Rib
 62
256
370
-1
  6
ByLayer
100
AcDbCircle
 10
96.35578018049695
 20
253.0303046658071651
 30
0.0
 40
1.0
100
AcDbArc
 50
111.8528419496393553
 51
205.3590023980362105
  0
LINE
  5
314
100
AcDbEntity
100
AcDbLine
  8
Rib
 62
256
370
-1
  6
ByLayer
 10
92.5776199879515644
 20
246.9925639009062479
 30
0.0
 11
90.8644653948361736
 21
250.6071318336040576
 31
0.0
  0
LINE
  5
315
100
AcDbEntity
100
AcDbLine
  8
Rib
 62
256
370
-1
  6
ByLayer
 10
89.5325347633828699
 20
251.0824851684997157
 30
0.0
 11
84.467113517211601
 21
248.6816865570138759
 31
0.0
  0
ARC
  5
316
100
AcDbEntity
  8
Rib
 62
256
370
-1
  6
ByLayer
100
AcDbCircle
 10
89.9608234116617353
 20
250.1788431853252916
 30
0.0
 40
1.0
100
AcDbArc
 50
25.3590023980362638
 51
115.35900239803631
  0
LINE
  5
317
100
AcDbEntity
100
AcDbLine
  8
Rib
 62
256
370
-1
  6
ByLayer
 10
20.2348329590379876
 20
199.6222235140361363
 30
0.0
 11
18.5298749379272181
 21
197.8195856063057931
 31
0.0
  0
LINE
  5
318
100
AcDbEntity
100
AcDbLine
  8
Rib
 62
256
370
-1
  6
ByLayer
 10
18.5692428381466925
 20
196.4059200983330697
 30
0.0
 11
21.4753096545314861
 21
193.6573248828262308
 31
0.0
  0
ARC
  5
319
100
AcDbEntity
  8
Rib
 62
256
370
-1
  6
ByLayer
100
AcDbCircle
 10
19.2563916420234023
 20
197.1324368024292539
 30
0.0
 40
1.0
100
AcDbArc
 50
136.5951663957083611
 51
226.5951663957079631
  0
LINE
  5
31A
100
AcDbEntity
100
AcDbLine
  8
Rib
 62
256
370
-1
  6
ByLayer
 10
18.0395656351479374
 20
190.0247413623452246
 30
0.0
 11
15.1334988187631438
 21
192.7733365778519214
 31
0.0
  0
LINE
  5
31B
100
AcDbEntity
100
AcDbLine
  8
Rib
 62
256
370
-1
  6
ByLayer
 10
13.7198333107902499
 20
192.7339686776325038
 30
0.0
 11
11.4848329590379876
 21
190.3709214307363027
 31
0.0
  0
ARC
  5
31C
100
AcDbEntity
  8
Rib
 62
256
370
-1
  6
ByLayer
100
AcDbCircle
 10
14.4463500148864341
 20
192.0468198737558509
 30
0.0
 40
1.0
100
AcDbArc
 50
46.5951663957082474
 51
136.5951663957080484
  0
LINE
  5
31D
100
AcDbEntity
100
AcDbLine
  8
Rib
 62
256
370
-1
  6
ByLayer
 10
56.4208949728308653
 20
231.3157910209594661
 30
0.0
 11
53.6131556577198722
 21
229.1661156078275781
 31
0.0
  0
LINE
  5
31E
100
AcDbEntity
100
AcDbLine
  8
Rib
 62
256
370
-1
  6
ByLayer
 10
49.6431278848747439
 20
226.1265630942432097
 30
0.0
 11
47.6708949728308653
 21
224.6165722709596082
 31
0.0
  0
LINE
  5
31F
100
AcDbEntity
100
AcDbLine
  8
Rib
 62
256
370
-1
  6
ByLayer
 10
243.3472918286955178
 20
225.1960878349823929
 30
0.0
 11
247.3173196015406745
 21
222.1565353213973992
 31
0.0
  0
LINE
  5
320
100
AcDbEntity
100
AcDbLine
  8
Rib
 62
256
370
-1
  6
ByLayer
 10
247.3173196015406745
 20
222.1565353213973992
 30
0.0
 11
250.3568721151252134
 21
226.1265630942430676
 31
0.0
  0
LINE
  5
321
100
AcDbEntity
100
AcDbLine
  8
Rib
 62
256
370
-1
  6
ByLayer
 10
246.3868443422801136
 20
229.1661156078275212
 30
0.0
 11
243.3472918286955178
 21
225.1960878349823929
 31
0.0
  0
LINE
  5
322
100
AcDbEntity
100
AcDbLine
  8
Rib
 62
256
370
-1
  6
ByLayer
 10
252.3291050271691347
 20
224.6165722709594661
 30
0.0
 11
250.3568721151252134
 21
226.1265630942430676
 31
0.0
  0
LINE
  5
323
100
AcDbEntity
100
AcDbLine
  8
Rib
 62
256
370
-1
  6
ByLayer
 10
246.3868443422800851
 20
229.1661156078275212
 30
0.0
 11
243.5791050271691347
 21
231.3157910209594093
 31
0.0
  0
LINE
  5
324
100
AcDbEntity
100
AcDbLine
  8
Rib
 62
256
370
-1
  6
ByLayer
 10
56.6527081713044396
 20
225.1960878349831319
 30
0.0
 11
52.6826803984592971
 21
222.1565353213974561
 31
0.0
  0
LINE
  5
325
100
AcDbEntity
100
AcDbLine
  8
Rib
 62
256
370
-1
  6
ByLayer
 10
52.6826803984592971
 20
222.1565353213974561
 30
0.0
 11
49.6431278848747439
 21
226.1265630942432097
 31
0.0
  0
LINE
  5
326
100
AcDbEntity
100
AcDbLine
  8
Rib
 62
256
370
-1
  6
ByLayer
 10
53.6131556577198722
 20
229.1661156078275781
 30
0.0
 11
56.6527081713044396
 21
225.1960878349831319
 31
0.0
  0
LINE
  5
327
100
AcDbEntity
100
AcDbLine
  8
Rib
 62
256
370
-1
  6
ByLayer
 10
281.25
 20
203.4994333919692338
 30
0.0
 11
272.5
 21
212.7507354752692379
 31
0.0
  0
LINE
  5
328
100
AcDbEntity
100
AcDbLine
  8
Rib
 62
256
370
-1
  6
ByLayer
 10
272.5
 20
212.7507354752692379
 30
0.0
 11
263.75
 21
221.3640167252691526
 31
0.0
  0
LINE
  5
329
100
AcDbEntity
100
AcDbLine
  8
Rib
 62
256
370
-1
  6
ByLayer
 10
263.75
 20
221.3640167252691526
 30
0.0
 11
255.0
 21
229.3392771419692338
 31
0.0
  0
LINE
  5
32A
100
AcDbEntity
100
AcDbLine
  8
Rib
 62
256
370
-1
  6
ByLayer
 10
255.0
 20
229.3392771419692338
 30
0.0
 11
246.25
 21
236.6765167252689253
 31
0.0
  0
LINE
  5
32B
100
AcDbEntity
100
AcDbLine
  8
Rib
 62
256
370
-1
  6
ByLayer
 10
246.25
 20
236.6765167252689253
 30
0.0
 11
237.5
 21
243.3757354752689253
 31
0.0
  0
LINE
  5
32C
100
AcDbEntity
100
AcDbLine
  8
Rib
 62
256
370
-1
  6
ByLayer
 10
237.5
 20
243.3757354752689253
 30
0.0
 11
228.75
 21
249.4369333919692338
 31
0.0
  0
LINE
  5
32D
100
AcDbEntity
100
AcDbLine
  8
Rib
 62
256
370
-1
  6
ByLayer
 10
228.75
 20
249.4369333919692338
 30
0.0
 11
220.0
 21
254.8601104752691526
 31
0.0
  0
LINE
  5
32E
100
AcDbEntity
100
AcDbLine
  8
Rib
 62
256
370
-1
  6
ByLayer
 10
220.0
 20
254.8601104752691526
 30
0.0
 11
211.25
 21
259.6452667252691526
 31
0.0
  0
LINE
  5
32F
100
AcDbEntity
100
AcDbLine
  8
Rib
 62
256
370
-1
  6
ByLayer
 10
211.25
 20
259.6452667252691526
 30
0.0
 11
202.5
 21
263.7924021419691485
 31
0.0
  0
LINE
  5
330
100
AcDbEntity
100
AcDbLine
  8
Rib
 62
256
370
-1
  6
ByLayer
 10
202.5
 20
263.7924021419691485
 30
0.0
 11
193.75
 21
267.3015167252991091
 31
0.0
  0
LINE
  5
331
100
AcDbEntity
100
AcDbLine
  8
Rib
 62
256
370
-1
  6
ByLayer
 10
193.75
 20
267.3015167252991091
 30
0.0
 11
185.0
 21
270.1726104752991091
 31
0.0
  0
LINE
  5
332
100
AcDbEntity
100
AcDbLine
  8
Rib
 62
256
370
-1
  6
ByLayer
 10
185.0
 20
270.1726104752991091
 30
0.0
 11
176.2499999999999716
 21
272.4056833919691485
 31
0.0
  0
LINE
  5
333
100
AcDbEntity
100
AcDbLine
  8
Rib
 62
256
370
-1
  6
ByLayer
 10
176.2499999999999716
 20
272.4056833919691485
 30
0.0
 11
167.4999999999999716
 21
274.000735475299166
 31
0.0
  0
LINE
  5
334
100
AcDbEntity
100
AcDbLine
  8
Rib
 62
256
370
-1
  6
ByLayer
 10
167.4999999999999716
 20
274.000735475299166
 30
0.0
 11
158.75
 21
274.9577667253021218
 31
0.0
  0
LINE
  5
335
100
AcDbEntity
100
AcDbLine
  8
Rib
 62
256
370
-1
  6
ByLayer
 10
158.75
 20
274.9577667253021218
 30
0.0
 11
150.0
 21
275.2767771419691485
 31
0.0
  0
LINE
  5
336
100
AcDbEntity
100
AcDbLine
  8
Rib
 62
256
370
-1
  6
ByLayer
 10
150.0
 20
275.2767771419691485
 30
0.0
 11
141.2499999999999716
 21
274.9577667253021218
 31
0.0
  0
LINE
  5
337
100
AcDbEntity
100
AcDbLine
  8
Rib
 62
256
370
-1
  6
ByLayer
 10
141.2499999999999716
 20
274.9577667253021218
 30
0.0
 11
132.4999999999999716
 21
274.000735475299166
 31
0.0
  0
LINE
  5
338
100
AcDbEntity
100
AcDbLine
  8
Rib
 62
256
370
-1
  6
ByLayer
 10
132.4999999999999716
 20
274.000735475299166
 30
0.0
 11
123.7499999999999716
 21
272.4056833919691485
 31
0.0
  0
LINE
  5
339
100
AcDbEntity
100
AcDbLine
  8
Rib
 62
256
370
-1
  6
ByLayer
 10
123.7499999999999716
 20
272.4056833919691485
 30
0.0
 11
115.0
 21
270.172610475299166
 31
0.0
  0
LINE
  5
33A
100
AcDbEntity
100
AcDbLine
  8
Rib
 62
256
370
-1
  6
ByLayer
 10
115.0
 20
270.172610475299166
 30
0.0
 11
106.25
 21
267.301516725299166
 31
0.0
  0
LINE
  5
33B
100
AcDbEntity
100
AcDbLine
  8
Rib
 62
256
370
-1
  6
ByLayer
 10
106.25
 20
267.301516725299166
 30
0.0
 11
97.5
 21
263.7924021419692053
 31
0.0
  0
LINE
  5
33C
100
AcDbEntity
100
AcDbLine
  8
Rib
 62
256
370
-1
  6
ByLayer
 10
97.5
 20
263.7924021419692053
 30
0.0
 11
88.75
 21
259.6452667252692095
 31
0.0
  0
LINE
  5
33D
100
AcDbEntity
100
AcDbLine
  8
Rib
 62
256
370
-1
  6
ByLayer
 10
88.75
 20
259.6452667252692095
 30
0.0
 11
80.0
 21
254.8601104752692095
 31
0.0
  0
LINE
  5
33E
100
AcDbEntity
100
AcDbLine
  8
Rib
 62
256
370
-1
  6
ByLayer
 10
80.0
 20
254.8601104752692095
 30
0.0
 11
71.25
 21
249.4369333919691485
 31
0.0
  0
LINE
  5
33F
100
AcDbEntity
100
AcDbLine
  8
Rib
 62
256
370
-1
  6
ByLayer
 10
71.25
 20
249.4369333919691485
 30
0.0
 11
62.4999999999999858
 21
243.3757354752689821
 31
0.0
  0
LINE
  5
340
100
AcDbEntity
100
AcDbLine
  8
Rib
 62
256
370
-1
  6
ByLayer
 10
62.4999999999999858
 20
243.3757354752689821
 30
0.0
 11
53.7499999999999858
 21
236.6765167252689537
 31
0.0
  0
LINE
  5
341
100
AcDbEntity
100
AcDbLine
  8
Rib
 62
256
370
-1
  6
ByLayer
 10
53.7499999999999858
 20
236.6765167252689537
 30
0.0
 11
44.9999999999999858
 21
229.3392771419690632
 31
0.0
  0
LINE
  5
342
100
AcDbEntity
100
AcDbLine
  8
Rib
 62
256
370
-1
  6
ByLayer
 10
44.9999999999999858
 20
229.3392771419690632
 30
0.0
 11
36.2499999999999716
 21
221.3640167252691811
 31
0.0
  0
LINE
  5
343
100
AcDbEntity
100
AcDbLine
  8
Rib
 62
256
370
-1
  6
ByLayer
 10
36.2499999999999716
 20
221.3640167252691811
 30
0.0
 11
27.4999999999999716
 21
212.7507354752691811
 31
0.0
  0
LINE
  5
344
100
AcDbEntity
100
AcDbLine
  8
Rib
 62
256
370
-1
  6
ByLayer
 10
27.4999999999999716
 20
212.7507354752691811
 30
0.0
 11
18.75
 21
203.4994333919691769
 31
0.0
  0
ARC
  5
345
100
AcDbEntity
  8
Rib
 62
256
370
-1
  6
ByLayer
100
AcDbCircle
 10
281.2500000000001705
 20
203.4994333919690632
 30
0.0
 40
9.9999999999999503
100
AcDbArc
 50
41.5021648931329565
 51
43.4048336042931737
  0
ARC
  5
346
100
AcDbEntity
  8
Rib
 62
256
370
-1
  6
ByLayer
100
AcDbCircle
 10
272.5000000000001137
 20
212.7507354752689821
 30
0.0
 40
10.0000000000000338
100
AcDbArc
 50
43.4048336042931737
 51
45.4511385467886413
  0
LINE
  5
347
100
AcDbEntity
100
AcDbLine
  8
Rib
 62
256
370
-1
  6
ByLayer
 10
279.5151726451431955
 20
219.8772600671605915
 30
0.0
 11
270.7651726451431955
 21
228.4905413171605915
 31
0.0
  0
ARC
  5
348
100
AcDbEntity
  8
Rib
 62
256
370
-1
  6
ByLayer
100
AcDbCircle
 10
263.75
 20
221.36401672526884
 30
0.0
 40
10.0000000000001279
100
AcDbArc
 50
45.4511385467881794
 51
47.6521321389189154
  0
LINE
  5
349
100
AcDbEntity
100
AcDbLine
  8
Rib
 62
256
370
-1
  6
ByLayer
 10
270.486302046795231
 20
228.7547023994363826
 30
0.0
 11
261.736302046795231
 21
236.7299628161362364
 31
0.0
  0
ARC
  5
34A
100
AcDbEntity
  8
Rib
 62
256
370
-1
  6
ByLayer
100
AcDbCircle
 10
255.0000000000001705
 20
229.3392771419689211
 30
0.0
 40
10.0000000000000089
100
AcDbArc
 50
47.6521321389193204
 51
50.0187653412105391
  0
LINE
  5
34B
100
AcDbEntity
100
AcDbLine
  8
Rib
 62
256
370
-1
  6
ByLayer
 10
261.4253668264622092
 20
237.0018264008903088
 30
0.0
 11
252.6753668264622661
 21
244.3390659841905119
 31
0.0
  0
ARC
  5
34C
100
AcDbEntity
  8
Rib
 62
256
370
-1
  6
ByLayer
100
AcDbCircle
 10
246.2499999999998295
 20
236.6765167252689253
 30
0.0
 40
10.0000000000001474
100
AcDbArc
 50
50.0187653412087059
 51
52.5614284276662715
  0
ARC
  5
34D
100
AcDbEntity
  8
Rib
 62
256
370
-1
  6
ByLayer
100
AcDbCircle
 10
237.5000000000003411
 20
243.3757354752694084
 30
0.0
 40
9.9999999999996074
100
AcDbArc
 50
52.5614284276676997
 51
55.2893317710529644
  0
LINE
  5
34E
100
AcDbEntity
100
AcDbLine
  8
Rib
 62
256
370
-1
  6
ByLayer
 10
243.1943259326390034
 20
251.5961157689584127
 30
0.0
 11
234.444325932638975
 21
257.657313685658437
 31
0.0
  0
ARC
  5
34F
100
AcDbEntity
  8
Rib
 62
256
370
-1
  6
ByLayer
100
AcDbCircle
 10
228.7499999999998863
 20
249.4369333919692053
 30
0.0
 40
9.9999999999999964
100
AcDbArc
 50
55.289331771051387
 51
58.2097102143274157
  0
LINE
  5
350
100
AcDbEntity
100
AcDbLine
  8
Rib
 62
256
370
-1
  6
ByLayer
 10
234.018117521862365
 20
257.9367532592279417
 30
0.0
 11
225.2681175218623366
 21
263.359930342527889
 31
0.0
  0
ARC
  5
351
100
AcDbEntity
  8
Rib
 62
256
370
-1
  6
ByLayer
100
AcDbCircle
 10
220.0000000000001705
 20
254.8601104752692095
 30
0.0
 40
9.9999999999998561
100
AcDbArc
 50
58.2097102143288936
 51
61.3268535105656909
  0
LINE
  5
352
100
AcDbEntity
100
AcDbLine
  8
Rib
 62
256
370
-1
  6
ByLayer
 10
224.7981234194270996
 20
263.6338218707929855
 30
0.0
 11
216.0481234194270996
 21
268.4189781207929855
 31
0.0
  0
ARC
  5
353
100
AcDbEntity
  8
Rib
 62
256
370
-1
  6
ByLayer
100
AcDbCircle
 10
211.2499999999998295
 20
259.6452667252689821
 30
0.0
 40
10.0000000000001599
100
AcDbArc
 50
61.3268535105644688
 51
64.640997601963079
  0
ARC
  5
354
100
AcDbEntity
  8
Rib
 62
256
370
-1
  6
ByLayer
100
AcDbCircle
 10
193.75
 20
267.3015167252992228
 30
0.0
 40
9.9999999999999059
100
AcDbArc
 50
68.1471580503605452
 51
71.8340434707745032
  0
LINE
  5
355
100
AcDbEntity
100
AcDbLine
  8
Rib
 62
256
370
-1
  6
ByLayer
 10
196.8677041789731277
 20
276.8030913659791281
 30
0.0
 11
188.1177041789731277
 21
279.6741851159791281
 31
0.0
  0
ARC
  5
356
100
AcDbEntity
  8
Rib
 62
256
370
-1
  6
ByLayer
100
AcDbCircle
 10
185.0
 20
270.1726104752991091
 30
0.0
 40
10.0000000000000124
100
AcDbArc
 50
71.8340434707745459
 51
75.6832408810463306
  0
LINE
  5
357
100
AcDbEntity
100
AcDbLine
  8
Rib
 62
256
370
-1
  6
ByLayer
 10
187.4728244100338657
 20
279.8620448982745756
 30
0.0
 11
178.7228244100338372
 21
282.0951178149445582
 31
0.0
  0
ARC
  5
358
100
AcDbEntity
  8
Rib
 62
256
370
-1
  6
ByLayer
100
AcDbCircle
 10
176.25
 20
272.4056833919690916
 30
0.0
 40
10.0000000000000391
100
AcDbArc
 50
75.6832408810462312
 51
79.6688951556813976
  0
LINE
  5
359
100
AcDbEntity
100
AcDbLine
  8
Rib
 62
256
370
-1
  6
ByLayer
 10
178.0433632216644924
 20
282.2435616365492024
 30
0.0
 11
169.2933632216644639
 21
283.838613719879163
 31
0.0
  0
ARC
  5
35A
100
AcDbEntity
  8
Rib
 62
256
370
-1
  6
ByLayer
100
AcDbCircle
 10
167.5000000000000284
 20
274.0007354752992796
 30
0.0
 40
9.9999999999999023
100
AcDbArc
 50
79.6688951556815965
 51
83.7580856525657111
  0
LINE
  5
35B
100
AcDbEntity
100
AcDbLine
  8
Rib
 62
256
370
-1
  6
ByLayer
 10
168.5872659128597206
 20
283.9414523928425069
 30
0.0
 11
159.8372659128597206
 21
284.8984836428455765
 31
0.0
  0
ARC
  5
35C
100
AcDbEntity
  8
Rib
 62
256
370
-1
  6
ByLayer
100
AcDbCircle
 10
158.75
 20
274.9577667253022355
 30
0.0
 40
9.9999999999999201
100
AcDbArc
 50
83.758085652565569
 51
87.9120161672745439
  0
ARC
  5
35D
100
AcDbEntity
  8
Rib
 62
256
370
-1
  6
ByLayer
100
AcDbCircle
 10
141.2500000000000284
 20
274.9577667253021787
 30
0.0
 40
9.9999999999999574
100
AcDbArc
 50
92.0879838327255129
 51
96.241914347434431
  0
LINE
  5
35E
100
AcDbEntity
100
AcDbLine
  8
Rib
 62
256
370
-1
  6
ByLayer
 10
140.1627340871403078
 20
284.8984836428455765
 30
0.0
 11
131.4127340871403362
 21
283.9414523928425638
 31
0.0
  0
ARC
  5
35F
100
AcDbEntity
  8
Rib
 62
256
370
-1
  6
ByLayer
100
AcDbCircle
 10
132.5000000000000568
 20
274.000735475299166
 30
0.0
 40
10.0000000000000142
100
AcDbArc
 50
96.2419143474347436
 51
100.3311048443188014
  0
LINE
  5
360
100
AcDbEntity
100
AcDbLine
  8
Rib
 62
256
370
-1
  6
ByLayer
 10
130.7066367783355645
 20
283.8386137198792198
 30
0.0
 11
121.9566367783355076
 21
282.2435616365492024
 31
0.0
  0
ARC
  5
361
100
AcDbEntity
  8
Rib
 62
256
370
-1
  6
ByLayer
100
AcDbCircle
 10
123.75
 20
272.4056833919692053
 30
0.0
 40
9.9999999999999361
100
AcDbArc
 50
100.3311048443186024
 51
104.3167591189538257
  0
LINE
  5
362
100
AcDbEntity
100
AcDbLine
  8
Rib
 62
256
370
-1
  6
ByLayer
 10
121.2771755899661628
 20
282.095117814944615
 30
0.0
 11
112.5271755899661201
 21
279.8620448982745756
 31
0.0
  0
ARC
  5
363
100
AcDbEntity
  8
Rib
 62
256
370
-1
  6
ByLayer
100
AcDbCircle
 10
115.0000000000000711
 20
270.172610475299166
 30
0.0
 40
10.000000000000032
100
AcDbArc
 50
104.3167591189540246
 51
108.1659565292258094
  0
LINE
  5
364
100
AcDbEntity
100
AcDbLine
  8
Rib
 62
256
370
-1
  6
ByLayer
 10
111.8822958210268439
 20
279.6741851159791281
 30
0.0
 11
103.1322958210268439
 21
276.8030913659791281
 31
0.0
  0
ARC
  5
365
100
AcDbEntity
  8
Rib
 62
256
370
-1
  6
ByLayer
100
AcDbCircle
 10
106.2499999999999716
 20
267.3015167252993933
 30
0.0
 40
9.9999999999997975
100
AcDbArc
 50
108.1659565292255962
 51
111.8528419496395543
  0
ARC
  5
366
100
AcDbEntity
  8
Rib
 62
256
370
-1
  6
ByLayer
100
AcDbCircle
 10
88.7500000000001137
 20
259.6452667252690389
 30
0.0
 40
10.0000000000001457
100
AcDbArc
 50
115.3590023980367221
 51
118.6731464894353252
  0
LINE
  5
367
100
AcDbEntity
100
AcDbLine
  8
Rib
 62
256
370
-1
  6
ByLayer
 10
83.9518765805728862
 20
268.4189781207929855
 30
0.0
 11
75.2018765805729004
 21
263.6338218707930423
 31
0.0
  0
ARC
  5
368
100
AcDbEntity
  8
Rib
 62
256
370
-1
  6
ByLayer
100
AcDbCircle
 10
79.9999999999999858
 20
254.8601104752692095
 30
0.0
 40
9.9999999999999982
100
AcDbArc
 50
118.6731464894349131
 51
121.7902897856717175
  0
LINE
  5
369
100
AcDbEntity
100
AcDbLine
  8
Rib
 62
256
370
-1
  6
ByLayer
 10
74.7318824781376065
 20
263.359930342527889
 30
0.0
 11
65.981882478137635
 21
257.9367532592279986
 31
0.0
  0
ARC
  5
36A
100
AcDbEntity
  8
Rib
 62
256
370
-1
  6
ByLayer
100
AcDbCircle
 10
71.2499999999999432
 20
249.4369333919692906
 30
0.0
 40
9.9999999999999165
100
AcDbArc
 50
121.790289785671618
 51
124.7106682289477533
  0
LINE
  5
36B
100
AcDbEntity
100
AcDbLine
  8
Rib
 62
256
370
-1
  6
ByLayer
 10
65.5556740673610108
 20
257.6573136856584938
 30
0.0
 11
56.8056740673609966
 21
251.5961157689584695
 31
0.0
  0
ARC
  5
36C
100
AcDbEntity
  8
Rib
 62
256
370
-1
  6
ByLayer
100
AcDbCircle
 10
62.5
 20
243.3757354752689821
 30
0.0
 40
10.000000000000032
100
AcDbArc
 50
124.7106682289478528
 51
127.4385715723330179
  0
ARC
  5
36D
100
AcDbEntity
  8
Rib
 62
256
370
-1
  6
ByLayer
100
AcDbCircle
 10
53.7499999999996874
 20
236.6765167252689537
 30
0.0
 40
9.9999999999998863
100
AcDbArc
 50
127.4385715723312842
 51
129.9812346587890488
  0
LINE
  5
36E
100
AcDbEntity
100
AcDbLine
  8
Rib
 62
256
370
-1
  6
ByLayer
 10
47.3246331735377197
 20
244.339065984190654
 30
0.0
 11
38.5746331735377197
 21
237.0018264008903941
 31
0.0
  0
ARC
  5
36F
100
AcDbEntity
  8
Rib
 62
256
370
-1
  6
ByLayer
100
AcDbCircle
 10
45.0000000000000711
 20
229.3392771419692338
 30
0.0
 40
9.9999999999999574
100
AcDbArc
 50
129.9812346587916068
 51
132.3478678610828183
  0
LINE
  5
370
100
AcDbEntity
100
AcDbLine
  8
Rib
 62
256
370
-1
  6
ByLayer
 10
38.2636979532047405
 20
236.7299628161362932
 30
0.0
 11
29.5136979532047405
 21
228.7547023994363826
 31
0.0
  0
ARC
  5
371
100
AcDbEntity
  8
Rib
 62
256
370
-1
  6
ByLayer
100
AcDbCircle
 10
36.2499999999997016
 20
221.3640167252690389
 30
0.0
 40
9.999999999999897
100
AcDbArc
 50
132.3478678610801751
 51
134.5488614532110034
  0
LINE
  5
372
100
AcDbEntity
100
AcDbLine
  8
Rib
 62
256
370
-1
  6
ByLayer
 10
29.2348273548567761
 20
228.4905413171606199
 30
0.0
 11
20.4848273548568045
 21
219.8772600671605915
 31
0.0
  0
ARC
  5
373
100
AcDbEntity
  8
Rib
 62
256
370
-1
  6
ByLayer
100
AcDbCircle
 10
27.4999999999995168
 20
212.7507354752688968
 30
0.0
 40
9.9999999999998597
100
AcDbArc
 50
134.5488614532097813
 51
136.5951663957050926
  0
ARC
  5
374
100
AcDbEntity
  8
Rib
 62
256
370
-1
  6
ByLayer
100
AcDbCircle
 10
18.7499999999998863
 20
203.4994333919693759
 30
0.0
 40
9.9999999999997815
100
AcDbArc
 50
136.595166395708759
 51
138.4978351068689335
  0
LINE
  5
375
100
AcDbEntity
100
AcDbLine
  8
Rib
 62
256
370
-1
  6
ByLayer
 10
288.0120549599901096
 20
195.8569025257046405
 30
0.0
 11
281.25
 21
203.4994333919692338
 31
0.0
  0
ARC
  5
376
100
AcDbEntity
  8
Rib
 62
256
370
-1
  6
ByLayer
100
AcDbCircle
 10
290.2588470104255407
 20
197.8448475657145025
 30
0.0
 40
3.0
100
AcDbArc
 50
221.5021648931317202
 51
311.5021648931315781
  0
LINE
  5
377
100
AcDbEntity
100
AcDbLine
  8
Rib
 62
256
370
-1
  6
ByLayer
 10
295.242514784349396
 20
198.2486489019588589
 30
0.0
 11
292.2467920504354311
 21
195.598055515279043
 31
0.0
  0
LINE
  5
378
100
AcDbEntity
100
AcDbLine
  8
Rib
 62
256
370
-1
  6
ByLayer
 10
295.5013617947749367
 20
202.483385992404294
 30
0.0
 11
288.7393068347848271
 21
210.1259168586688872
 31
0.0
  0
ARC
  5
379
100
AcDbEntity
  8
Rib
 62
256
370
-1
  6
ByLayer
100
AcDbCircle
 10
293.2545697443393919
 20
200.4954409523943184
 30
0.0
 40
3.0
100
AcDbArc
 50
311.5021648931316918
 51
41.5021648931316847
  0
LINE
  5
37A
100
AcDbEntity
100
AcDbLine
  8
Rib
 62
256
370
-1
  6
ByLayer
 10
18.75
 20
203.4994333919691769
 30
0.0
 11
11.9879450400098904
 21
195.8569025257046121
 31
0.0
  0
ARC
  5
37B
100
AcDbEntity
  8
Rib
 62
256
370
-1
  6
ByLayer
100
AcDbCircle
 10
9.7411529895744593
 20
197.8448475657145309
 30
0.0
 40
3.0
100
AcDbArc
 50
228.4978351068682798
 51
318.4978351068681945
  0
LINE
  5
37C
100
AcDbEntity
100
AcDbLine
  8
Rib
 62
256
370
-1
  6
ByLayer
 10
7.7532079495645121
 20
195.5980555152790714
 30
0.0
 11
4.757485215650604
 21
198.2486489019589726
 31
0.0
  0
LINE
  5
37D
100
AcDbEntity
100
AcDbLine
  8
Rib
 62
256
370
-1
  6
ByLayer
 10
11.2606931652151729
 20
210.1259168586689441
 30
0.0
 11
4.4986382052250633
 21
202.4833859924043509
 31
0.0
  0
ARC
  5
37E
100
AcDbEntity
  8
Rib
 62
256
370
-1
  6
ByLayer
100
AcDbCircle
 10
6.7454302556605512
 20
200.4954409523943468
 30
0.0
 40
3.0
100
AcDbArc
 50
138.497835106868223
 51
228.4978351068684788
  0
LINE
  5
37F
100
AcDbEntity
100
AcDbLine
  8
Rib
 62
256
370
-1
  6
ByLayer
 10
281.9604343648520057
 20
210.0247413623450825
 30
0.0
 11
278.5246903454684571
 21
213.657324882825975
 31
0.0
  0
LINE
  5
380
100
AcDbEntity
100
AcDbLine
  8
Rib
 62
256
370
-1
  6
ByLayer
 10
207.4223800120484498
 20
266.9925639009061911
 30
0.0
 11
202.9041700961761308
 21
269.1340071423003906
 31
0.0
  0
LINE
  5
381
100
AcDbEntity
100
AcDbLine
  8
Rib
 62
256
370
-1
  6
ByLayer
 10
152.5000000000000284
 20
280.2767771419692053
 30
0.0
 11
147.5
 21
280.2767771419692053
 31
0.0
  0
LINE
  5
382
100
AcDbEntity
100
AcDbLine
  8
Rib
 62
256
370
-1
  6
ByLayer
 10
97.0958299038238977
 20
269.1340071423004474
 30
0.0
 11
92.5776199879515644
 21
266.9925639009062479
 31
0.0
  0
LINE
  5
383
100
AcDbEntity
100
AcDbLine
  8
Rib
 62
256
370
-1
  6
ByLayer
 10
21.4753096545314861
 20
213.6573248828262308
 30
0.0
 11
18.0395656351479374
 21
210.0247413623452246
 31
0.0
  0
LINE
  5
384
100
AcDbEntity
100
AcDbLine
  8
Rib
 62
256
370
-1
  6
ByLayer
 10
288.5151670409619555
 20
210.3709214307363027
 30
0.0
 11
286.2801666892097501
 21
212.7339686776325038
 31
0.0
  0
LINE
  5
385
100
AcDbEntity
100
AcDbLine
  8
Rib
 62
256
370
-1
  6
ByLayer
 10
284.8665011812367993
 20
212.7733365778518078
 30
0.0
 11
281.9604343648520057
 21
210.0247413623450825
 31
0.0
  0
ARC
  5
386
100
AcDbEntity
  8
Rib
 62
256
370
-1
  6
ByLayer
100
AcDbCircle
 10
285.5536499851135659
 20
212.0468198737556804
 30
0.0
 40
1.0
100
AcDbArc
 50
43.4048336042920013
 51
133.4048336042919516
  0
LINE
  5
387
100
AcDbEntity
100
AcDbLine
  8
Rib
 62
256
370
-1
  6
ByLayer
 10
281.4701250620727251
 20
217.8195856063056794
 30
0.0
 11
279.7651670409619555
 21
219.6222235140361931
 31
0.0
  0
LINE
  5
388
100
AcDbEntity
100
AcDbLine
  8
Rib
 62
256
370
-1
  6
ByLayer
 10
278.5246903454684571
 20
213.657324882825975
 30
0.0
 11
281.4307571618532506
 21
216.4059200983329561
 31
0.0
  0
ARC
  5
389
100
AcDbEntity
  8
Rib
 62
256
370
-1
  6
ByLayer
100
AcDbCircle
 10
280.7436083579765409
 20
217.1324368024290266
 30
0.0
 40
1.0
100
AcDbArc
 50
313.4048336042920369
 51
43.4048336042923069
  0
LINE
  5
38A
100
AcDbEntity
100
AcDbLine
  8
Rib
 62
256
370
-1
  6
ByLayer
 10
215.532886482788399
 20
268.6816865570137907
 30
0.0
 11
210.4674652366171301
 21
271.0824851684996588
 31
0.0
  0
LINE
  5
38B
100
AcDbEntity
100
AcDbLine
  8
Rib
 62
256
370
-1
  6
ByLayer
 10
209.1355346051638548
 20
270.6071318336040576
 30
0.0
 11
207.4223800120484498
 21
266.9925639009061911
 31
0.0
  0
ARC
  5
38C
100
AcDbEntity
  8
Rib
 62
256
370
-1
  6
ByLayer
100
AcDbCircle
 10
210.0391765883382789
 20
270.1788431853252632
 30
0.0
 40
1.0
100
AcDbArc
 50
64.640997601963889
 51
154.6409976019637895
  0
LINE
  5
38D
100
AcDbEntity
100
AcDbLine
  8
Rib
 62
256
370
-1
  6
ByLayer
 10
202.9041700961761308
 20
269.1340071423003906
 30
0.0
 11
204.5478618026775735
 21
272.6020160175282285
 31
0.0
  0
LINE
  5
38E
100
AcDbEntity
100
AcDbLine
  8
Rib
 62
256
370
-1
  6
ByLayer
 10
204.0164438079075921
 20
273.9584475979335139
 30
0.0
 11
197.4722398840451376
 21
276.5829460465633929
 31
0.0
  0
ARC
  5
38F
100
AcDbEntity
  8
Rib
 62
256
370
-1
  6
ByLayer
100
AcDbCircle
 10
203.6442198195030926
 20
273.0303046658070798
 30
0.0
 40
1.0
100
AcDbArc
 50
334.6409976019638179
 51
68.1471580503605878
  0
LINE
  5
390
100
AcDbEntity
100
AcDbLine
  8
Rib
 62
256
370
-1
  6
ByLayer
 10
159.1143412707021696
 20
284.9511272931223402
 30
0.0
 11
153.5364341270702369
 21
285.1544884910674682
 31
0.0
  0
LINE
  5
391
100
AcDbEntity
100
AcDbLine
  8
Rib
 62
256
370
-1
  6
ByLayer
 10
152.5000000000000284
 20
284.1551524342854691
 30
0.0
 11
152.5000000000000284
 21
280.2767771419692053
 31
0.0
  0
ARC
  5
392
100
AcDbEntity
  8
Rib
 62
256
370
-1
  6
ByLayer
100
AcDbCircle
 10
153.5
 20
284.1551524342854691
 30
0.0
 40
1.0
100
AcDbArc
 50
87.9120161672744445
 51
180.0
  0
LINE
  5
393
100
AcDbEntity
100
AcDbLine
  8
Rib
 62
256
370
-1
  6
ByLayer
 10
147.5
 20
280.2767771419692053
 30
0.0
 11
147.5
 21
284.1551524342854691
 31
0.0
  0
LINE
  5
394
100
AcDbEntity
100
AcDbLine
  8
Rib
 62
256
370
-1
  6
ByLayer
 10
146.46356587292982
 20
285.1544884910674682
 30
0.0
 11
140.8856587292978588
 21
284.9511272931223402
 31
0.0
  0
ARC
  5
395
100
AcDbEntity
  8
Rib
 62
256
370
-1
  6
ByLayer
100
AcDbCircle
 10
146.5000000000000284
 20
284.1551524342854691
 30
0.0
 40
1.0
100
AcDbArc
 50
360.0
 51
92.0879838327255129
  0
LINE
  5
396
100
AcDbEntity
100
AcDbLine
  8
Rib
 62
256
370
-1
  6
ByLayer
 10
102.5277601159548766
 20
276.5829460465633929
 30
0.0
 11
95.9835561920924221
 21
273.9584475979335139
 31
0.0
  0
LINE
  5
397
100
AcDbEntity
100
AcDbLine
  8
Rib
 62
256
370
-1
  6
ByLayer
 10
95.452138197322455
 20
272.6020160175282854
 30
0.0
 11
97.0958299038238977
 21
269.1340071423004474
 31
0.0
  0
ARC
  5
398
100
AcDbEntity
  8
Rib
 62
256
370
-1
  6
ByLayer
100
AcDbCircle
 10
96.35578018049695
 20
273.0303046658071935
 30
0.0
 40
1.0
100
AcDbArc
 50
111.8528419496393553
 51
205.3590023980362105
  0
LINE
  5
399
100
AcDbEntity
100
AcDbLine
  8
Rib
 62
256
370
-1
  6
ByLayer
 10
92.5776199879515644
 20
266.9925639009062479
 30
0.0
 11
90.8644653948361736
 21
270.6071318336040576
 31
0.0
  0
LINE
  5
39A
100
AcDbEntity
100
AcDbLine
  8
Rib
 62
256
370
-1
  6
ByLayer
 10
89.5325347633828699
 20
271.0824851684997157
 30
0.0
 11
84.467113517211601
 21
268.6816865570139043
 31
0.0
  0
ARC
  5
39B
100
AcDbEntity
  8
Rib
 62
256
370
-1
  6
ByLayer
100
AcDbCircle
 10
89.9608234116617353
 20
270.1788431853252632
 30
0.0
 40
1.0
100
AcDbArc
 50
25.3590023980362638
 51
115.35900239803631
  0
LINE
  5
39C
100
AcDbEntity
100
AcDbLine
  8
Rib
 62
256
370
-1
  6
ByLayer
 10
20.2348329590379876
 20
219.6222235140361363
 30
0.0
 11
18.5298749379272181
 21
217.8195856063057931
 31
0.0
  0
LINE
  5
39D
100
AcDbEntity
100
AcDbLine
  8
Rib
 62
256
370
-1
  6
ByLayer
 10
18.5692428381466925
 20
216.4059200983330697
 30
0.0
 11
21.4753096545314861
 21
213.6573248828262308
 31
0.0
  0
ARC
  5
39E
100
AcDbEntity
  8
Rib
 62
256
370
-1
  6
ByLayer
100
AcDbCircle
 10
19.2563916420234023
 20
217.1324368024292539
 30
0.0
 40
1.0
100
AcDbArc
 50
136.5951663957083611
 51
226.5951663957079631
  0
LINE
  5
39F
100
AcDbEntity
100
AcDbLine
  8
Rib
 62
256
370
-1
  6
ByLayer
 10
18.0395656351479374
 20
210.0247413623452246
 30
0.0
 11
15.1334988187631438
 21
212.7733365778519214
 31
0.0
  0
LINE
  5
3A0
100
AcDbEntity
100
AcDbLine
  8
Rib
 62
256
370
-1
  6
ByLayer
 10
13.7198333107902499
 20
212.7339686776325038
 30
0.0
 11
11.4848329590379876
 21
210.3709214307363027
 31
0.0
  0
ARC
  5
3A1
100
AcDbEntity
  8
Rib
 62
256
370
-1
  6
ByLayer
100
AcDbCircle
 10
14.4463500148864341
 20
212.0468198737558509
 30
0.0
 40
1.0
100
AcDbArc
 50
46.5951663957082474
 51
136.5951663957080484
  0
LINE
  5
3A2
100
AcDbEntity
100
AcDbLine
  8
Rib
 62
256
370
-1
  6
ByLayer
 10
56.4208949728308653
 20
251.3157910209594661
 30
0.0
 11
53.6131556577198722
 21
249.1661156078275781
 31
0.0
  0
LINE
  5
3A3
100
AcDbEntity
100
AcDbLine
  8
Rib
 62
256
370
-1
  6
ByLayer
 10
49.6431278848747439
 20
246.1265630942432097
 30
0.0
 11
47.6708949728308653
 21
244.6165722709596082
 31
0.0
  0
LINE
  5
3A4
100
AcDbEntity
100
AcDbLine
  8
Rib
 62
256
370
-1
  6
ByLayer
 10
243.3472918286955178
 20
245.1960878349823929
 30
0.0
 11
247.3173196015406745
 21
242.1565353213973992
 31
0.0
  0
LINE
  5
3A5
100
AcDbEntity
100
AcDbLine
  8
Rib
 62
256
370
-1
  6
ByLayer
 10
247.3173196015406745
 20
242.1565353213973992
 30
0.0
 11
250.3568721151252134
 21
246.1265630942430676
 31
0.0
  0
LINE
  5
3A6
100
AcDbEntity
100
AcDbLine
  8
Rib
 62
256
370
-1
  6
ByLayer
 10
246.3868443422801136
 20
249.1661156078275212
 30
0.0
 11
243.3472918286955178
 21
245.1960878349823929
 31
0.0
  0
LINE
  5
3A7
100
AcDbEntity
100
AcDbLine
  8
Rib
 62
256
370
-1
  6
ByLayer
 10
252.3291050271691347
 20
244.6165722709594661
 30
0.0
 11
250.3568721151252134
 21
246.1265630942430676
 31
0.0
  0
LINE
  5
3A8
100
AcDbEntity
100
AcDbLine
  8
Rib
 62
256
370
-1
  6
ByLayer
 10
246.3868443422800851
 20
249.1661156078275212
 30
0.0
 11
243.5791050271691347
 21
251.3157910209594093
 31
0.0
  0
LINE
  5
3A9
100
AcDbEntity
100
AcDbLine
  8
Rib
 62
256
370
-1
  6
ByLayer
 10
56.6527081713044396
 20
245.1960878349831319
 30
0.0
 11
52.6826803984592971
 21
242.1565353213974561
 31
0.0
  0
LINE
  5
3AA
100
AcDbEntity
100
AcDbLine
  8
Rib
 62
256
370
-1
  6
ByLayer
 10
52.6826803984592971
 20
242.1565353213974561
 30
0.0
 11
49.6431278848747439
 21
246.1265630942432097
 31
0.0
  0
LINE
  5
3AB
100
AcDbEntity
100
AcDbLine
  8
Rib
 62
256
370
-1
  6
ByLayer
 10
53.6131556577198722
 20
249.1661156078275781
 30
0.0
 11
56.6527081713044396
 21
245.1960878349831319
 31
0.0
  0
ENDSEC
  0
SECTION
  2
OBJECTS
  0
DICTIONARY
  5
C
100
AcDbDictionary
280
0
281
1
  3
ACAD_GROUP
350
D
  3
ACAD_LAYOUT
350
1A
  3
ACAD_MLINESTYLE
350
17
  3
ACAD_PLOTSETTINGS
350
19
  3
ACAD_PLOTSTYLENAME
350
E
  3
AcDbVariableDictionary
350
3AC
  0
DICTIONARY
  5
D
100
AcDbDictionary
280
0
281
1
  0
ACDBDICTIONARYWDFLT
  5
E
100
AcDbDictionary
281
1
  3
Normal
350
F
100
AcDbDictionaryWithDefault
340
F
  0
ACDBPLACEHOLDER
  5
F
  0
DICTIONARY
  5
17
100
AcDbDictionary
280
0
281
1
  3
Standard
350
18
  0
MLINESTYLE
  5
18
100
AcDbMlineStyle
  2
STANDARD
 70
0
  3

 62
256
 51
90.0
 52
90.0
 71
2
 49
0.5
 62
256
  6
BYLAYER
 49
-0.5
 62
256
  6
BYLAYER
  0
DICTIONARY
  5
19
100
AcDbDictionary
280
0
281
1
  0
DICTIONARY
  5
1A
100
AcDbDictionary
281
1
  3
Layout1
350
1E
  3
Layout2
350
26
  3
Model
350
22
  0
LAYOUT
  5
1E
100
AcDbPlotSettings
  1

  2
C:\Program Files\AutoCAD 2002\plotters\DWF ePlot (optimized for plotting).pc3
  4

  6

 40
0.0
 41
0.0
 42
0.0
 43
0.0
 44
0.0
 45
0.0
 46
0.0
 47
0.0
 48
0.0
 49
0.0
140
0.0
141
0.0
142
1.0
143
1.0
 70
688
 72
0
 73
0
 74
5
  7

 75
16
147
1.0
148
0.0
149
0.0
100
AcDbLayout
  1
Layout1
 70
1
 71
1
 10
0.0
 20
0.0
 11
420.0
 21
297.0
 12
0.0
 22
0.0
 32
0.0
 14
100000000000000000000.0
 24
100000000000000000000.0
 34
100000000000000000000.0
 15
-100000000000000000000.0
 25
-100000000000000000000.0
 35
-100000000000000000000.0
146
0.0
 13
0.0
 23
0.0
 33
0.0
 16
1.0
 26
0.0
 36
0.0
 17
0.0
 27
1.0
 37
0.0
 76
0
330
1B
  0
LAYOUT
  5
22
100
AcDbPlotSettings
  1

  2
C:\Program Files\AutoCAD 2002\plotters\DWF ePlot (optimized for plotting).pc3
  4

  6

 40
0.0
 41
0.0
 42
0.0
 43
0.0
 44
0.0
 45
0.0
 46
0.0
 47
0.0
 48
0.0
 49
0.0
140
0.0
141
0.0
142
1.0
143
1.0
 70
1712
 72
0
 73
0
 74
0
  7

 75
0
147
1.0
148
0.0
149
0.0
100
AcDbLayout
  1
Model
 70
1
 71
0
 10
0.0
 20
0.0
 11
12.0
 21
9.0
 12
0.0
 22
0.0
 32
0.0
 14
0.0
 24
0.0
 34
0.0
 15
0.0
 25
0.0
 35
0.0
146
0.0
 13
0.0
 23
0.0
 33
0.0
 16
1.0
 26
0.0
 36
0.0
 17
0.0
 27
1.0
 37
0.0
 76
0
330
1F
  0
LAYOUT
  5
26
100
AcDbPlotSettings
  1

  2
C:\Program Files\AutoCAD 2002\plotters\DWF ePlot (optimized for plotting).pc3
  4

  6

 40
0.0
 41
0.0
 42
0.0
 43
0.0
 44
0.0
 45
0.0
 46
0.0
 47
0.0
 48
0.0
 49
0.0
140
0.0
141
0.0
142
1.0
143
1.0
 70
688
 72
0
 73
0
 74
5
  7

 75
16
147
1.0
148
0.0
149
0.0
100
AcDbLayout
  1
Layout2
 70
1
 71
2
 10
0.0
 20
0.0
 11
12.0
 21
9.0
 12
0.0
 22
0.0
 32
0.0
 14
0.0
 24
0.0
 34
0.0
 15
0.0
 25
0.0
 35
0.0
146
0.0
 13
0.0
 23
0.0
 33
0.0
 16
1.0
 26
0.0
 36
0.0
 17
0.0
 27
1.0
 37
0.0
 76
0
330
23
  0
DICTIONARY
  5
3AC
100
AcDbDictionary
281
1
  3
DIMASSOC
350
3AE
  3
HIDETEXT
350
3AD
  0
DICTIONARYVAR
  5
3AD
100
DictionaryVariables
280
0
  1
2
  0
DICTIONARYVAR
  5
3AE
100
DictionaryVariables
280
0
  1
1
  0
ENDSEC
  0
EOF
