<?xml version="1.0" standalone="yes"?>

<svg width="315mm" height="416mm" viewBox="0 0 315 416" version="1.1"
xmlns="http://www.w3.org/2000/svg" style="stroke-linecap:round">
  <ellipse cx="34.2517" cy="59.6645" rx="2.75011" ry="2.75011" style="stroke:rgb(0,0,0);stroke-width:0.1;fill:none;"/>
  <ellipse cx="14.1509" cy="46.664" rx="2.75011" ry="2.75011" style="stroke:rgb(0,0,0);stroke-width:0.1;fill:none;"/>
  <ellipse cx="54.3526" cy="46.664" rx="2.75011" ry="2.75011" style="stroke:rgb(0,0,0);stroke-width:0.1;fill:none;"/>
  <path d="M41.022,77.2953 L38.2819,77.2953" style="stroke:rgb(0,0,0);stroke-width:0.1;fill:none" />
  <path d="M41.022,80.0354 L41.022,77.2953" style="stroke:rgb(0,0,0);stroke-width:0.1;fill:none" />
  <path d="M38.2819,77.2953 L38.2819,80.0354" style="stroke:rgb(0,0,0);stroke-width:0.1;fill:none" />
  <path d="M38.2819,80.0354 L41.022,80.0354" style="stroke:rgb(0,0,0);stroke-width:0.1;fill:none" />
  <path d="M30.2216,77.2953 L27.4815,77.2953" style="stroke:rgb(0,0,0);stroke-width:0.1;fill:none" />
  <path d="M30.2216,80.0354 L30.2216,77.2953" style="stroke:rgb(0,0,0);stroke-width:0.1;fill:none" />
  <path d="M27.4815,77.2953 L27.4815,80.0354" style="stroke:rgb(0,0,0);stroke-width:0.1;fill:none" />
  <path d="M27.4815,80.0354 L30.2216,80.0354" style="stroke:rgb(0,0,0);stroke-width:0.1;fill:none" />
  <path d="M35.6218,45.2939 L32.8817,45.2939" style="stroke:rgb(0,0,0);stroke-width:0.1;fill:none" />
  <path d="M35.6218,48.0341 L35.6218,45.2939" style="stroke:rgb(0,0,0);stroke-width:0.1;fill:none" />
  <path d="M32.8817,45.2939 L32.8817,48.0341" style="stroke:rgb(0,0,0);stroke-width:0.1;fill:none" />
  <path d="M32.8817,48.0341 L35.6218,48.0341" style="stroke:rgb(0,0,0);stroke-width:0.1;fill:none" />
  <path d="M41.022,31.2934 L38.2819,31.2934" style="stroke:rgb(0,0,0);stroke-width:0.1;fill:none" />
  <path d="M41.022,34.0335 L41.022,31.2934" style="stroke:rgb(0,0,0);stroke-width:0.1;fill:none" />
  <path d="M38.2819,31.2934 L38.2819,34.0335" style="stroke:rgb(0,0,0);stroke-width:0.1;fill:none" />
  <path d="M38.2819,34.0335 L41.022,34.0335" style="stroke:rgb(0,0,0);stroke-width:0.1;fill:none" />
  <path d="M30.2216,31.2934 L27.4815,31.2934" style="stroke:rgb(0,0,0);stroke-width:0.1;fill:none" />
  <path d="M30.2216,34.0335 L30.2216,31.2934" style="stroke:rgb(0,0,0);stroke-width:0.1;fill:none" />
  <path d="M27.4815,31.2934 L27.4815,34.0335" style="stroke:rgb(0,0,0);stroke-width:0.1;fill:none" />
  <path d="M27.4815,34.0335 L30.2216,34.0335" style="stroke:rgb(0,0,0);stroke-width:0.1;fill:none" />
  <ellipse cx="17.251" cy="9.6625" rx="1.50006" ry="1.50006" style="stroke:rgb(0,0,0);stroke-width:0.25;fill:none;"/>
  <path d="M22.2512,7.1624 L27.2515,7.1624" style="stroke:rgb(0,0,0);stroke-width:0.25;fill:none" />
  <path d="M22.2512,12.1626 L27.2515,12.1626" style="stroke:rgb(0,0,0);stroke-width:0.25;fill:none" />
  <path d="M12.2508,7.1624 L7.25064,7.1624" style="stroke:rgb(0,0,0);stroke-width:0.25;fill:none" />
  <path d="M12.2508,12.1626 L7.25064,12.1626" style="stroke:rgb(0,0,0);stroke-width:0.25;fill:none" />
  <path d="M7.25064,7.1624 L7.25064,12.1626" style="stroke:rgb(0,0,0);stroke-width:0.25;fill:none" />
  <path d="M12.2508,7.1624 L12.2508,12.1626" style="stroke:rgb(0,0,0);stroke-width:0.25;fill:none" />
  <path d="M22.2512,7.1624 L22.2512,12.1626" style="stroke:rgb(0,0,0);stroke-width:0.25;fill:none" />
  <path d="M27.2515,7.1624 L27.2515,12.1626" style="stroke:rgb(0,0,0);stroke-width:0.25;fill:none" />
  <ellipse cx="49.2923" cy="46.624" rx="2.70011" ry="2.70011" style="stroke:rgb(0,0,0);stroke-width:0.1;fill:none;"/>
  <ellipse cx="34.2917" cy="61.6246" rx="2.70011" ry="2.70011" style="stroke:rgb(0,0,0);stroke-width:0.1;fill:none;"/>
  <ellipse cx="19.2911" cy="46.624" rx="2.70011" ry="2.70011" style="stroke:rgb(0,0,0);stroke-width:0.1;fill:none;"/>
  <ellipse cx="17.251" cy="101.59" rx="1.50006" ry="1.50006" style="stroke:rgb(0,0,0);stroke-width:0.25;fill:none;"/>
  <path d="M22.2512,99.0899 L27.2515,99.0899" style="stroke:rgb(0,0,0);stroke-width:0.25;fill:none" />
  <path d="M22.2512,104.09 L27.2515,104.09" style="stroke:rgb(0,0,0);stroke-width:0.25;fill:none" />
  <path d="M12.2508,99.0899 L7.25064,99.0899" style="stroke:rgb(0,0,0);stroke-width:0.25;fill:none" />
  <path d="M12.2508,104.09 L7.25064,104.09" style="stroke:rgb(0,0,0);stroke-width:0.25;fill:none" />
  <path d="M7.25064,99.0899 L7.25064,104.09" style="stroke:rgb(0,0,0);stroke-width:0.25;fill:none" />
  <path d="M12.2508,99.0899 L12.2508,104.09" style="stroke:rgb(0,0,0);stroke-width:0.25;fill:none" />
  <path d="M22.2512,99.0899 L22.2512,104.09" style="stroke:rgb(0,0,0);stroke-width:0.25;fill:none" />
  <path d="M27.2515,99.0899 L27.2515,104.09" style="stroke:rgb(0,0,0);stroke-width:0.25;fill:none" />
  <path d="M2.25043,109.091 L2.25043,2.16219" style="stroke:rgb(0,0,0);stroke-width:0.1;fill:none" />
  <ellipse cx="51.2524" cy="9.6625" rx="1.50006" ry="1.50006" style="stroke:rgb(0,0,0);stroke-width:0.25;fill:none;"/>
  <path d="M56.2526,7.1624 L61.2528,7.1624" style="stroke:rgb(0,0,0);stroke-width:0.25;fill:none" />
  <path d="M56.2526,12.1626 L61.2528,12.1626" style="stroke:rgb(0,0,0);stroke-width:0.25;fill:none" />
  <path d="M46.2522,7.1624 L41.252,7.1624" style="stroke:rgb(0,0,0);stroke-width:0.25;fill:none" />
  <path d="M46.2522,12.1626 L41.252,12.1626" style="stroke:rgb(0,0,0);stroke-width:0.25;fill:none" />
  <path d="M41.252,7.1624 L41.252,12.1626" style="stroke:rgb(0,0,0);stroke-width:0.25;fill:none" />
  <path d="M46.2522,7.1624 L46.2522,12.1626" style="stroke:rgb(0,0,0);stroke-width:0.25;fill:none" />
  <path d="M56.2526,7.1624 L56.2526,12.1626" style="stroke:rgb(0,0,0);stroke-width:0.25;fill:none" />
  <path d="M61.2528,7.1624 L61.2528,12.1626" style="stroke:rgb(0,0,0);stroke-width:0.25;fill:none" />
  <ellipse cx="51.2524" cy="101.59" rx="1.50006" ry="1.50006" style="stroke:rgb(0,0,0);stroke-width:0.25;fill:none;"/>
  <path d="M56.2526,99.0899 L61.2528,99.0899" style="stroke:rgb(0,0,0);stroke-width:0.25;fill:none" />
  <path d="M56.2526,104.09 L61.2528,104.09" style="stroke:rgb(0,0,0);stroke-width:0.25;fill:none" />
  <path d="M46.2522,99.0899 L41.252,99.0899" style="stroke:rgb(0,0,0);stroke-width:0.25;fill:none" />
  <path d="M46.2522,104.09 L41.252,104.09" style="stroke:rgb(0,0,0);stroke-width:0.25;fill:none" />
  <path d="M41.252,99.0899 L41.252,104.09" style="stroke:rgb(0,0,0);stroke-width:0.25;fill:none" />
  <path d="M46.2522,99.0899 L46.2522,104.09" style="stroke:rgb(0,0,0);stroke-width:0.25;fill:none" />
  <path d="M56.2526,99.0899 L56.2526,104.09" style="stroke:rgb(0,0,0);stroke-width:0.25;fill:none" />
  <path d="M61.2528,99.0899 L61.2528,104.09" style="stroke:rgb(0,0,0);stroke-width:0.25;fill:none" />
  <path d="M66.253,2.16219 L66.253,109.091" style="stroke:rgb(0,0,0);stroke-width:0.1;fill:none" />
  <path d="M2.25043,2.16219 L66.253,2.16219" style="stroke:rgb(0,0,0);stroke-width:0.1;fill:none" />
  <path d="M66.253,109.091 L2.25043,109.091" style="stroke:rgb(0,0,0);stroke-width:0.1;fill:none" />
  <ellipse cx="84.7002" cy="9.91261" rx="1.50006" ry="1.50006" style="stroke:rgb(0,0,0);stroke-width:0.1;fill:none;"/>
  <path d="M89.7005,7.41251 L89.7005,12.4127" style="stroke:rgb(0,0,0);stroke-width:0.1;fill:none" />
  <ellipse cx="176.628" cy="9.91261" rx="1.50006" ry="1.50006" style="stroke:rgb(0,0,0);stroke-width:0.1;fill:none;"/>
  <path d="M171.628,7.41251 L171.628,12.4127" style="stroke:rgb(0,0,0);stroke-width:0.1;fill:none" />
  <ellipse cx="84.7002" cy="101.84" rx="1.50006" ry="1.50006" style="stroke:rgb(0,0,0);stroke-width:0.1;fill:none;"/>
  <ellipse cx="176.628" cy="101.84" rx="1.50006" ry="1.50006" style="stroke:rgb(0,0,0);stroke-width:0.1;fill:none;"/>
  <path d="M80.662,1.91228 L180.666,1.91228" style="stroke:rgb(0,0,0);stroke-width:0.1;fill:none" />
  <path d="M180.666,109.34 L80.662,109.34" style="stroke:rgb(0,0,0);stroke-width:0.1;fill:none" />
  <path d="M180.666,1.91228 L180.666,109.34" style="stroke:rgb(0,0,0);stroke-width:0.1;fill:none" />
  <path d="M80.662,109.34 L80.662,1.91228" style="stroke:rgb(0,0,0);stroke-width:0.1;fill:none" />
  <path d="M109.701,7.41251 L89.7005,7.41251" style="stroke:rgb(0,0,0);stroke-width:0.1;fill:none" />
  <path d="M151.627,12.4127 L171.628,12.4127" style="stroke:rgb(0,0,0);stroke-width:0.1;fill:none" />
  <path d="M109.701,7.41251 L109.701,12.4127" style="stroke:rgb(0,0,0);stroke-width:0.1;fill:none" />
  <path d="M151.627,7.41251 L151.627,12.4127" style="stroke:rgb(0,0,0);stroke-width:0.1;fill:none" />
  <path d="M89.7005,12.4127 L109.701,12.4127" style="stroke:rgb(0,0,0);stroke-width:0.1;fill:none" />
  <path d="M171.628,7.41251 L151.627,7.41251" style="stroke:rgb(0,0,0);stroke-width:0.1;fill:none" />
  <path d="M151.627,99.3401 L151.627,104.34" style="stroke:rgb(0,0,0);stroke-width:0.1;fill:none" />
  <path d="M171.628,99.3401 L151.627,99.3401" style="stroke:rgb(0,0,0);stroke-width:0.1;fill:none" />
  <path d="M171.628,99.3401 L171.628,104.34" style="stroke:rgb(0,0,0);stroke-width:0.1;fill:none" />
  <path d="M151.627,104.34 L171.628,104.34" style="stroke:rgb(0,0,0);stroke-width:0.1;fill:none" />
  <path d="M89.7005,99.3401 L89.7005,104.34" style="stroke:rgb(0,0,0);stroke-width:0.1;fill:none" />
  <path d="M109.701,99.3401 L89.7005,99.3401" style="stroke:rgb(0,0,0);stroke-width:0.1;fill:none" />
  <path d="M109.701,99.3401 L109.701,104.34" style="stroke:rgb(0,0,0);stroke-width:0.1;fill:none" />
  <path d="M89.7005,104.34 L109.701,104.34" style="stroke:rgb(0,0,0);stroke-width:0.1;fill:none" />
  <path d="M43.9559,199.388 L43.9559,194.888" style="stroke:rgb(0,0,0);stroke-width:0.1;fill:none" />
  <path d="M44.4559,194.388 A0.50002,0.50002 0 0,0 43.9559,194.888 " style="stroke:rgb(0,0,0);stroke-width:0.1;fill:none" />
  <path d="M125.883,199.388 L125.883,194.888" style="stroke:rgb(0,0,0);stroke-width:0.1;fill:none" />
  <path d="M125.883,194.888 A0.50002,0.50002 0 0,0 125.383,194.388 " style="stroke:rgb(0,0,0);stroke-width:0.1;fill:none" />
  <path d="M34.9174,190.468 L34.9174,199.388" style="stroke:rgb(0,0,0);stroke-width:0.1;fill:none" />
  <path d="M66.4187,213.819 L69.4188,213.819" style="stroke:rgb(0,0,0);stroke-width:0.25;fill:none" />
  <path d="M65.0586,216.989 L65.0586,214.819" style="stroke:rgb(0,0,0);stroke-width:0.25;fill:none" />
  <path d="M70.7789,214.819 L70.7789,216.989" style="stroke:rgb(0,0,0);stroke-width:0.25;fill:none" />
  <path d="M66.4187,216.989 L65.0586,216.989" style="stroke:rgb(0,0,0);stroke-width:0.25;fill:none" />
  <path d="M70.7789,216.989 L69.4188,216.989" style="stroke:rgb(0,0,0);stroke-width:0.25;fill:none" />
  <path d="M69.4188,213.819 L69.4188,214.819" style="stroke:rgb(0,0,0);stroke-width:0.25;fill:none" />
  <path d="M69.4188,214.819 L70.7789,214.819" style="stroke:rgb(0,0,0);stroke-width:0.25;fill:none" />
  <path d="M65.0586,214.819 L66.4187,214.819" style="stroke:rgb(0,0,0);stroke-width:0.25;fill:none" />
  <path d="M66.4187,214.819 L66.4187,213.819" style="stroke:rgb(0,0,0);stroke-width:0.25;fill:none" />
  <path d="M57.9183,229.819 L57.9183,225.319" style="stroke:rgb(0,0,0);stroke-width:0.25;fill:none" />
  <path d="M57.9183,229.819 A0.50002,0.50002 0 0,0 58.4184,230.319 " style="stroke:rgb(0,0,0);stroke-width:0.25;fill:none" />
  <path d="M62.4185,230.319 L58.4184,230.319" style="stroke:rgb(0,0,0);stroke-width:0.25;fill:none" />
  <path d="M62.9185,225.319 L62.9185,229.819" style="stroke:rgb(0,0,0);stroke-width:0.25;fill:none" />
  <path d="M62.4185,230.319 A0.50002,0.50002 0 0,0 62.9185,229.819 " style="stroke:rgb(0,0,0);stroke-width:0.25;fill:none" />
  <path d="M65.9187,225.319 L62.9185,225.319" style="stroke:rgb(0,0,0);stroke-width:0.25;fill:none" />
  <path d="M66.4187,224.819 L66.4187,216.989" style="stroke:rgb(0,0,0);stroke-width:0.25;fill:none" />
  <path d="M65.9187,225.319 A0.50002,0.50002 0 0,0 66.4187,224.819 " style="stroke:rgb(0,0,0);stroke-width:0.25;fill:none" />
  <path d="M69.4188,216.989 L69.4188,224.819" style="stroke:rgb(0,0,0);stroke-width:0.25;fill:none" />
  <path d="M69.9188,225.319 L72.9189,225.319" style="stroke:rgb(0,0,0);stroke-width:0.25;fill:none" />
  <path d="M69.4188,224.819 A0.50002,0.50002 0 0,0 69.9188,225.319 " style="stroke:rgb(0,0,0);stroke-width:0.25;fill:none" />
  <path d="M72.9189,225.319 L72.9189,229.819" style="stroke:rgb(0,0,0);stroke-width:0.25;fill:none" />
  <path d="M72.9189,229.819 A0.50002,0.50002 0 0,0 73.419,230.319 " style="stroke:rgb(0,0,0);stroke-width:0.25;fill:none" />
  <path d="M73.419,230.319 L77.4191,230.319" style="stroke:rgb(0,0,0);stroke-width:0.25;fill:none" />
  <path d="M77.9191,229.819 L77.9191,225.319" style="stroke:rgb(0,0,0);stroke-width:0.25;fill:none" />
  <path d="M77.4191,230.319 A0.50002,0.50002 0 0,0 77.9191,229.819 " style="stroke:rgb(0,0,0);stroke-width:0.25;fill:none" />
  <path d="M21.7799,198.456 A3.16513,3.16513 0 0,0 26.2561,193.98 " style="stroke:rgb(0,0,0);stroke-width:0.1;fill:none" />
  <path d="M26.2561,190.468 A3.51215,3.51215 0 0,0 23.7726,191.496 " style="stroke:rgb(0,0,0);stroke-width:0.1;fill:none" />
  <path d="M26.2561,193.98 L23.7726,191.496" style="stroke:rgb(0,0,0);stroke-width:0.1;fill:none" />
  <ellipse cx="44.1688" cy="206.218" rx="1.50006" ry="1.50006" style="stroke:rgb(0,0,0);stroke-width:0.1;fill:none;"/>
  <ellipse cx="35.3185" cy="214.219" rx="2.00008" ry="2.00008" style="stroke:rgb(0,0,0);stroke-width:0.1;fill:none;"/>
  <ellipse cx="44.1688" cy="223.319" rx="1.50006" ry="1.50006" style="stroke:rgb(0,0,0);stroke-width:0.1;fill:none;"/>
  <path d="M34.9174,190.468 L26.2561,190.468" style="stroke:rgb(0,0,0);stroke-width:0.1;fill:none" />
  <path d="M53.3192,217.219 L53.3192,211.218" style="stroke:rgb(0,0,0);stroke-width:0.1;fill:none" />
  <path d="M53.3192,211.218 L58.0194,211.218" style="stroke:rgb(0,0,0);stroke-width:0.1;fill:none" />
  <path d="M58.0194,211.218 L58.0194,217.219" style="stroke:rgb(0,0,0);stroke-width:0.1;fill:none" />
  <path d="M58.0194,217.219 L53.3192,217.219" style="stroke:rgb(0,0,0);stroke-width:0.1;fill:none" />
  <ellipse cx="24.018" cy="214.219" rx="4.75019" ry="4.75019" style="stroke:rgb(0,0,0);stroke-width:0.1;fill:none;"/>
  <path d="M52.9181,225.319 L52.9181,230.319" style="stroke:rgb(0,0,0);stroke-width:0.1;fill:none" />
  <path d="M24.018,230.319 L52.9181,230.319" style="stroke:rgb(0,0,0);stroke-width:0.1;fill:none" />
  <path d="M52.9181,225.319 L57.9183,225.319" style="stroke:rgb(0,0,0);stroke-width:0.1;fill:none" />
  <path d="M138.422,199.388 A0.50002,0.50002 0 0,0 137.922,199.888 " style="stroke:rgb(0,0,0);stroke-width:0.1;fill:none" />
  <path d="M138.422,199.388 L140.46,199.388" style="stroke:rgb(0,0,0);stroke-width:0.1;fill:none" />
  <path d="M140.46,196.218 L140.46,199.388" style="stroke:rgb(0,0,0);stroke-width:0.1;fill:none" />
  <ellipse cx="148.46" cy="206.218" rx="1.50006" ry="1.50006" style="stroke:rgb(0,0,0);stroke-width:0.1;fill:none;"/>
  <path d="M145.295,196.218 A2.4176,2.4176 0 0,0 140.46,196.218 " style="stroke:rgb(0,0,0);stroke-width:0.1;fill:none" />
  <path d="M156.46,196.218 A2.4176,2.4176 0 0,0 151.625,196.218 " style="stroke:rgb(0,0,0);stroke-width:0.1;fill:none" />
  <path d="M145.295,196.218 A3.16513,3.16513 0 1,0 151.625,196.218 " style="stroke:rgb(0,0,0);stroke-width:0.1;fill:none" />
  <path d="M148.46,230.319 A8.00033,8.00033 0 0,0 156.46,222.319 " style="stroke:rgb(0,0,0);stroke-width:0.1;fill:none" />
  <path d="M156.46,196.218 L156.46,222.319" style="stroke:rgb(0,0,0);stroke-width:0.1;fill:none" />
  <path d="M100.42,213.819 L103.42,213.819" style="stroke:rgb(0,0,0);stroke-width:0.25;fill:none" />
  <path d="M99.06,216.989 L99.06,214.819" style="stroke:rgb(0,0,0);stroke-width:0.25;fill:none" />
  <path d="M104.78,214.819 L104.78,216.989" style="stroke:rgb(0,0,0);stroke-width:0.25;fill:none" />
  <path d="M100.42,216.989 L99.06,216.989" style="stroke:rgb(0,0,0);stroke-width:0.25;fill:none" />
  <path d="M104.78,216.989 L103.42,216.989" style="stroke:rgb(0,0,0);stroke-width:0.25;fill:none" />
  <path d="M103.42,213.819 L103.42,214.819" style="stroke:rgb(0,0,0);stroke-width:0.25;fill:none" />
  <path d="M103.42,214.819 L104.78,214.819" style="stroke:rgb(0,0,0);stroke-width:0.25;fill:none" />
  <path d="M99.06,214.819 L100.42,214.819" style="stroke:rgb(0,0,0);stroke-width:0.25;fill:none" />
  <path d="M100.42,214.819 L100.42,213.819" style="stroke:rgb(0,0,0);stroke-width:0.25;fill:none" />
  <path d="M91.9197,229.819 L91.9197,225.319" style="stroke:rgb(0,0,0);stroke-width:0.25;fill:none" />
  <path d="M91.9197,229.819 A0.50002,0.50002 0 0,0 92.4197,230.319 " style="stroke:rgb(0,0,0);stroke-width:0.25;fill:none" />
  <path d="M96.4199,230.319 L92.4197,230.319" style="stroke:rgb(0,0,0);stroke-width:0.25;fill:none" />
  <path d="M96.9199,225.319 L96.9199,229.819" style="stroke:rgb(0,0,0);stroke-width:0.25;fill:none" />
  <path d="M96.4199,230.319 A0.50002,0.50002 0 0,0 96.9199,229.819 " style="stroke:rgb(0,0,0);stroke-width:0.25;fill:none" />
  <path d="M99.92,225.319 L96.9199,225.319" style="stroke:rgb(0,0,0);stroke-width:0.25;fill:none" />
  <path d="M100.42,224.819 L100.42,216.989" style="stroke:rgb(0,0,0);stroke-width:0.25;fill:none" />
  <path d="M99.92,225.319 A0.50002,0.50002 0 0,0 100.42,224.819 " style="stroke:rgb(0,0,0);stroke-width:0.25;fill:none" />
  <path d="M103.42,216.989 L103.42,224.819" style="stroke:rgb(0,0,0);stroke-width:0.25;fill:none" />
  <path d="M103.92,225.319 L106.92,225.319" style="stroke:rgb(0,0,0);stroke-width:0.25;fill:none" />
  <path d="M103.42,224.819 A0.50002,0.50002 0 0,0 103.92,225.319 " style="stroke:rgb(0,0,0);stroke-width:0.25;fill:none" />
  <path d="M106.92,225.319 L106.92,229.819" style="stroke:rgb(0,0,0);stroke-width:0.25;fill:none" />
  <path d="M106.92,229.819 A0.50002,0.50002 0 0,0 107.42,230.319 " style="stroke:rgb(0,0,0);stroke-width:0.25;fill:none" />
  <path d="M107.42,230.319 L111.421,230.319" style="stroke:rgb(0,0,0);stroke-width:0.25;fill:none" />
  <path d="M111.921,229.819 L111.921,225.319" style="stroke:rgb(0,0,0);stroke-width:0.25;fill:none" />
  <path d="M111.421,230.319 A0.50002,0.50002 0 0,0 111.921,229.819 " style="stroke:rgb(0,0,0);stroke-width:0.25;fill:none" />
  <path d="M77.9191,225.319 L91.9197,225.319" style="stroke:rgb(0,0,0);stroke-width:0.1;fill:none" />
  <path d="M116.921,225.319 L116.921,230.319" style="stroke:rgb(0,0,0);stroke-width:0.1;fill:none" />
  <path d="M111.921,225.319 L116.921,225.319" style="stroke:rgb(0,0,0);stroke-width:0.1;fill:none" />
  <path d="M116.921,230.319 L148.46,230.319" style="stroke:rgb(0,0,0);stroke-width:0.1;fill:none" />
  <path d="M137.922,201.218 L137.922,199.888" style="stroke:rgb(0,0,0);stroke-width:0.1;fill:none" />
  <path d="M135.922,199.888 A0.50002,0.50002 0 0,0 135.421,199.388 " style="stroke:rgb(0,0,0);stroke-width:0.1;fill:none" />
  <path d="M135.922,199.888 L135.922,201.218" style="stroke:rgb(0,0,0);stroke-width:0.1;fill:none" />
  <path d="M135.421,199.388 L125.883,199.388" style="stroke:rgb(0,0,0);stroke-width:0.1;fill:none" />
  <path d="M135.922,201.218 A10.0503,10.0503 0 1,0 137.922,201.218 " style="stroke:rgb(0,0,0);stroke-width:0.1;fill:none" />
  <ellipse cx="11.3878" cy="204.866" rx="1.50006" ry="1.50006" style="stroke:rgb(0,0,0);stroke-width:0.1;fill:none;"/>
  <path d="M16.9761,205.019 L21.5079,202.906" style="stroke:rgb(0,0,0);stroke-width:0.1;fill:none" />
  <path d="M7.9127,209.245 L3.38098,211.358" style="stroke:rgb(0,0,0);stroke-width:0.1;fill:none" />
  <path d="M5.79952,204.713 L7.9127,209.245" style="stroke:rgb(0,0,0);stroke-width:0.1;fill:none" />
  <path d="M14.863,200.487 L16.9761,205.019" style="stroke:rgb(0,0,0);stroke-width:0.1;fill:none" />
  <path d="M5.79952,204.713 L14.863,200.487" style="stroke:rgb(0,0,0);stroke-width:0.1;fill:none" />
  <path d="M19.3947,198.374 L21.5079,202.906" style="stroke:rgb(0,0,0);stroke-width:0.1;fill:none" />
  <path d="M19.3947,198.374 L21.7799,198.456" style="stroke:rgb(0,0,0);stroke-width:0.1;fill:none" />
  <path d="M18.361,227.976 A8.00033,8.00033 0 0,0 24.0181,230.319 " style="stroke:rgb(0,0,0);stroke-width:0.1;fill:none" />
  <path d="M3.38098,211.358 L18.361,227.976" style="stroke:rgb(0,0,0);stroke-width:0.1;fill:none" />
  <path d="M34.9174,199.388 L43.9559,199.388" style="stroke:rgb(0,0,0);stroke-width:0.1;fill:none" />
  <path d="M63.9567,194.888 L63.9567,199.388" style="stroke:rgb(0,0,0);stroke-width:0.1;fill:none" />
  <path d="M63.9567,194.888 A0.50002,0.50002 0 0,0 63.4567,194.388 " style="stroke:rgb(0,0,0);stroke-width:0.1;fill:none" />
  <path d="M43.9559,194.388 L63.4567,194.388" style="stroke:rgb(0,0,0);stroke-width:0.1;fill:none" />
  <path d="M105.882,194.888 L105.882,199.388" style="stroke:rgb(0,0,0);stroke-width:0.1;fill:none" />
  <path d="M106.382,194.388 A0.50002,0.50002 0 0,0 105.882,194.888 " style="stroke:rgb(0,0,0);stroke-width:0.1;fill:none" />
  <path d="M125.383,194.388 L106.382,194.388" style="stroke:rgb(0,0,0);stroke-width:0.1;fill:none" />
  <path d="M63.9567,199.388 L105.882,199.388" style="stroke:rgb(0,0,0);stroke-width:0.1;fill:none" />
  <ellipse cx="148.46" cy="222.319" rx="1.50006" ry="1.50006" style="stroke:rgb(0,0,0);stroke-width:0.1;fill:none;"/>
  <path d="M47.7616,250.131 L47.7616,245.631" style="stroke:rgb(0,0,0);stroke-width:0.1;fill:none" />
  <path d="M48.2616,245.131 A0.50002,0.50002 0 0,0 47.7616,245.631 " style="stroke:rgb(0,0,0);stroke-width:0.1;fill:none" />
  <path d="M129.689,250.131 L129.689,245.631" style="stroke:rgb(0,0,0);stroke-width:0.1;fill:none" />
  <path d="M129.689,245.631 A0.50002,0.50002 0 0,0 129.189,245.131 " style="stroke:rgb(0,0,0);stroke-width:0.1;fill:none" />
  <path d="M38.7231,241.211 L38.7231,250.131" style="stroke:rgb(0,0,0);stroke-width:0.1;fill:none" />
  <path d="M70.2244,264.562 L73.2246,264.562" style="stroke:rgb(0,0,0);stroke-width:0.25;fill:none" />
  <path d="M68.8644,267.732 L68.8644,265.562" style="stroke:rgb(0,0,0);stroke-width:0.25;fill:none" />
  <path d="M74.5846,265.562 L74.5846,267.732" style="stroke:rgb(0,0,0);stroke-width:0.25;fill:none" />
  <path d="M70.2244,267.732 L68.8644,267.732" style="stroke:rgb(0,0,0);stroke-width:0.25;fill:none" />
  <path d="M74.5846,267.732 L73.2246,267.732" style="stroke:rgb(0,0,0);stroke-width:0.25;fill:none" />
  <path d="M73.2246,264.562 L73.2246,265.562" style="stroke:rgb(0,0,0);stroke-width:0.25;fill:none" />
  <path d="M73.2246,265.562 L74.5846,265.562" style="stroke:rgb(0,0,0);stroke-width:0.25;fill:none" />
  <path d="M68.8644,265.562 L70.2244,265.562" style="stroke:rgb(0,0,0);stroke-width:0.25;fill:none" />
  <path d="M70.2244,265.562 L70.2244,264.562" style="stroke:rgb(0,0,0);stroke-width:0.25;fill:none" />
  <path d="M61.7241,280.563 L61.7241,276.062" style="stroke:rgb(0,0,0);stroke-width:0.25;fill:none" />
  <path d="M61.7241,280.563 A0.50002,0.50002 0 0,0 62.2241,281.063 " style="stroke:rgb(0,0,0);stroke-width:0.25;fill:none" />
  <path d="M66.2243,281.063 L62.2241,281.063" style="stroke:rgb(0,0,0);stroke-width:0.25;fill:none" />
  <path d="M66.7243,276.062 L66.7243,280.563" style="stroke:rgb(0,0,0);stroke-width:0.25;fill:none" />
  <path d="M66.2243,281.063 A0.50002,0.50002 0 0,0 66.7243,280.563 " style="stroke:rgb(0,0,0);stroke-width:0.25;fill:none" />
  <path d="M69.7244,276.062 L66.7243,276.062" style="stroke:rgb(0,0,0);stroke-width:0.25;fill:none" />
  <path d="M70.2244,275.562 L70.2244,267.732" style="stroke:rgb(0,0,0);stroke-width:0.25;fill:none" />
  <path d="M69.7244,276.062 A0.50002,0.50002 0 0,0 70.2244,275.562 " style="stroke:rgb(0,0,0);stroke-width:0.25;fill:none" />
  <path d="M73.2246,267.732 L73.2246,275.562" style="stroke:rgb(0,0,0);stroke-width:0.25;fill:none" />
  <path d="M73.7246,276.062 L76.7247,276.062" style="stroke:rgb(0,0,0);stroke-width:0.25;fill:none" />
  <path d="M73.2246,275.562 A0.50002,0.50002 0 0,0 73.7246,276.062 " style="stroke:rgb(0,0,0);stroke-width:0.25;fill:none" />
  <path d="M76.7247,276.062 L76.7247,280.563" style="stroke:rgb(0,0,0);stroke-width:0.25;fill:none" />
  <path d="M76.7247,280.563 A0.50002,0.50002 0 0,0 77.2247,281.063 " style="stroke:rgb(0,0,0);stroke-width:0.25;fill:none" />
  <path d="M77.2247,281.063 L81.2249,281.063" style="stroke:rgb(0,0,0);stroke-width:0.25;fill:none" />
  <path d="M81.7249,280.563 L81.7249,276.062" style="stroke:rgb(0,0,0);stroke-width:0.25;fill:none" />
  <path d="M81.2249,281.063 A0.50002,0.50002 0 0,0 81.7249,280.563 " style="stroke:rgb(0,0,0);stroke-width:0.25;fill:none" />
  <path d="M25.5857,249.199 A3.16513,3.16513 0 0,0 30.0619,244.723 " style="stroke:rgb(0,0,0);stroke-width:0.1;fill:none" />
  <path d="M30.0619,241.211 A3.51215,3.51215 0 0,0 27.5784,242.24 " style="stroke:rgb(0,0,0);stroke-width:0.1;fill:none" />
  <path d="M30.0619,244.723 L27.5784,242.24" style="stroke:rgb(0,0,0);stroke-width:0.1;fill:none" />
  <ellipse cx="47.9746" cy="256.962" rx="1.50006" ry="1.50006" style="stroke:rgb(0,0,0);stroke-width:0.1;fill:none;"/>
  <ellipse cx="39.1242" cy="264.962" rx="2.00008" ry="2.00008" style="stroke:rgb(0,0,0);stroke-width:0.1;fill:none;"/>
  <ellipse cx="47.9746" cy="274.062" rx="1.50006" ry="1.50006" style="stroke:rgb(0,0,0);stroke-width:0.1;fill:none;"/>
  <path d="M38.7231,241.211 L30.0619,241.211" style="stroke:rgb(0,0,0);stroke-width:0.1;fill:none" />
  <path d="M57.125,267.962 L57.125,261.962" style="stroke:rgb(0,0,0);stroke-width:0.1;fill:none" />
  <path d="M57.125,261.962 L61.8252,261.962" style="stroke:rgb(0,0,0);stroke-width:0.1;fill:none" />
  <path d="M61.8252,261.962 L61.8252,267.962" style="stroke:rgb(0,0,0);stroke-width:0.1;fill:none" />
  <path d="M61.8252,267.962 L57.125,267.962" style="stroke:rgb(0,0,0);stroke-width:0.1;fill:none" />
  <ellipse cx="27.8238" cy="264.962" rx="4.75019" ry="4.75019" style="stroke:rgb(0,0,0);stroke-width:0.1;fill:none;"/>
  <path d="M56.7239,276.062 L56.7239,281.063" style="stroke:rgb(0,0,0);stroke-width:0.1;fill:none" />
  <path d="M27.8238,281.063 L56.7239,281.063" style="stroke:rgb(0,0,0);stroke-width:0.1;fill:none" />
  <path d="M56.7239,276.062 L61.7241,276.062" style="stroke:rgb(0,0,0);stroke-width:0.1;fill:none" />
  <path d="M142.227,250.131 A0.50002,0.50002 0 0,0 141.727,250.631 " style="stroke:rgb(0,0,0);stroke-width:0.1;fill:none" />
  <path d="M142.227,250.131 L144.266,250.131" style="stroke:rgb(0,0,0);stroke-width:0.1;fill:none" />
  <path d="M144.266,246.961 L144.266,250.131" style="stroke:rgb(0,0,0);stroke-width:0.1;fill:none" />
  <ellipse cx="152.266" cy="256.962" rx="1.50006" ry="1.50006" style="stroke:rgb(0,0,0);stroke-width:0.1;fill:none;"/>
  <path d="M149.101,246.961 A2.4176,2.4176 0 0,0 144.266,246.961 " style="stroke:rgb(0,0,0);stroke-width:0.1;fill:none" />
  <path d="M160.266,246.961 A2.4176,2.4176 0 0,0 155.431,246.961 " style="stroke:rgb(0,0,0);stroke-width:0.1;fill:none" />
  <path d="M149.101,246.961 A3.16513,3.16513 0 1,0 155.431,246.961 " style="stroke:rgb(0,0,0);stroke-width:0.1;fill:none" />
  <path d="M152.266,281.063 A8.00033,8.00033 0 0,0 160.266,273.062 " style="stroke:rgb(0,0,0);stroke-width:0.1;fill:none" />
  <path d="M160.266,246.961 L160.266,273.062" style="stroke:rgb(0,0,0);stroke-width:0.1;fill:none" />
  <path d="M104.226,264.562 L107.226,264.562" style="stroke:rgb(0,0,0);stroke-width:0.25;fill:none" />
  <path d="M102.866,267.732 L102.866,265.562" style="stroke:rgb(0,0,0);stroke-width:0.25;fill:none" />
  <path d="M108.586,265.562 L108.586,267.732" style="stroke:rgb(0,0,0);stroke-width:0.25;fill:none" />
  <path d="M104.226,267.732 L102.866,267.732" style="stroke:rgb(0,0,0);stroke-width:0.25;fill:none" />
  <path d="M108.586,267.732 L107.226,267.732" style="stroke:rgb(0,0,0);stroke-width:0.25;fill:none" />
  <path d="M107.226,264.562 L107.226,265.562" style="stroke:rgb(0,0,0);stroke-width:0.25;fill:none" />
  <path d="M107.226,265.562 L108.586,265.562" style="stroke:rgb(0,0,0);stroke-width:0.25;fill:none" />
  <path d="M102.866,265.562 L104.226,265.562" style="stroke:rgb(0,0,0);stroke-width:0.25;fill:none" />
  <path d="M104.226,265.562 L104.226,264.562" style="stroke:rgb(0,0,0);stroke-width:0.25;fill:none" />
  <path d="M95.7255,280.563 L95.7255,276.062" style="stroke:rgb(0,0,0);stroke-width:0.25;fill:none" />
  <path d="M95.7255,280.563 A0.50002,0.50002 0 0,0 96.2255,281.063 " style="stroke:rgb(0,0,0);stroke-width:0.25;fill:none" />
  <path d="M100.226,281.063 L96.2255,281.063" style="stroke:rgb(0,0,0);stroke-width:0.25;fill:none" />
  <path d="M100.726,276.062 L100.726,280.563" style="stroke:rgb(0,0,0);stroke-width:0.25;fill:none" />
  <path d="M100.226,281.063 A0.50002,0.50002 0 0,0 100.726,280.563 " style="stroke:rgb(0,0,0);stroke-width:0.25;fill:none" />
  <path d="M103.726,276.062 L100.726,276.062" style="stroke:rgb(0,0,0);stroke-width:0.25;fill:none" />
  <path d="M104.226,275.562 L104.226,267.732" style="stroke:rgb(0,0,0);stroke-width:0.25;fill:none" />
  <path d="M103.726,276.062 A0.50002,0.50002 0 0,0 104.226,275.562 " style="stroke:rgb(0,0,0);stroke-width:0.25;fill:none" />
  <path d="M107.226,267.732 L107.226,275.562" style="stroke:rgb(0,0,0);stroke-width:0.25;fill:none" />
  <path d="M107.726,276.062 L110.726,276.062" style="stroke:rgb(0,0,0);stroke-width:0.25;fill:none" />
  <path d="M107.226,275.562 A0.50002,0.50002 0 0,0 107.726,276.062 " style="stroke:rgb(0,0,0);stroke-width:0.25;fill:none" />
  <path d="M110.726,276.062 L110.726,280.563" style="stroke:rgb(0,0,0);stroke-width:0.25;fill:none" />
  <path d="M110.726,280.563 A0.50002,0.50002 0 0,0 111.226,281.063 " style="stroke:rgb(0,0,0);stroke-width:0.25;fill:none" />
  <path d="M111.226,281.063 L115.226,281.063" style="stroke:rgb(0,0,0);stroke-width:0.25;fill:none" />
  <path d="M115.726,280.563 L115.726,276.062" style="stroke:rgb(0,0,0);stroke-width:0.25;fill:none" />
  <path d="M115.226,281.063 A0.50002,0.50002 0 0,0 115.726,280.563 " style="stroke:rgb(0,0,0);stroke-width:0.25;fill:none" />
  <path d="M81.7249,276.062 L95.7255,276.062" style="stroke:rgb(0,0,0);stroke-width:0.1;fill:none" />
  <path d="M120.726,276.062 L120.726,281.063" style="stroke:rgb(0,0,0);stroke-width:0.1;fill:none" />
  <path d="M115.726,276.062 L120.726,276.062" style="stroke:rgb(0,0,0);stroke-width:0.1;fill:none" />
  <path d="M120.726,281.063 L152.266,281.063" style="stroke:rgb(0,0,0);stroke-width:0.1;fill:none" />
  <path d="M141.727,251.961 L141.727,250.631" style="stroke:rgb(0,0,0);stroke-width:0.1;fill:none" />
  <path d="M139.727,250.631 A0.50002,0.50002 0 0,0 139.227,250.131 " style="stroke:rgb(0,0,0);stroke-width:0.1;fill:none" />
  <path d="M139.727,250.631 L139.727,251.961" style="stroke:rgb(0,0,0);stroke-width:0.1;fill:none" />
  <path d="M139.227,250.131 L129.689,250.131" style="stroke:rgb(0,0,0);stroke-width:0.1;fill:none" />
  <path d="M139.727,251.961 A10.0503,10.0503 0 1,0 141.727,251.961 " style="stroke:rgb(0,0,0);stroke-width:0.1;fill:none" />
  <ellipse cx="15.1936" cy="255.609" rx="1.50006" ry="1.50006" style="stroke:rgb(0,0,0);stroke-width:0.1;fill:none;"/>
  <path d="M20.7819,255.762 L25.3136,253.649" style="stroke:rgb(0,0,0);stroke-width:0.1;fill:none" />
  <path d="M11.7184,259.988 L7.18672,262.102" style="stroke:rgb(0,0,0);stroke-width:0.1;fill:none" />
  <path d="M9.60527,255.457 L11.7184,259.988" style="stroke:rgb(0,0,0);stroke-width:0.1;fill:none" />
  <path d="M18.6687,251.23 L20.7819,255.762" style="stroke:rgb(0,0,0);stroke-width:0.1;fill:none" />
  <path d="M9.60527,255.457 L18.6687,251.23" style="stroke:rgb(0,0,0);stroke-width:0.1;fill:none" />
  <path d="M23.2004,249.117 L25.3136,253.649" style="stroke:rgb(0,0,0);stroke-width:0.1;fill:none" />
  <path d="M23.2004,249.117 L25.5857,249.199" style="stroke:rgb(0,0,0);stroke-width:0.1;fill:none" />
  <path d="M22.1667,278.719 A8.00033,8.00033 0 0,0 27.8238,281.063 " style="stroke:rgb(0,0,0);stroke-width:0.1;fill:none" />
  <path d="M7.18672,262.102 L22.1667,278.719" style="stroke:rgb(0,0,0);stroke-width:0.1;fill:none" />
  <path d="M38.7231,250.131 L47.7616,250.131" style="stroke:rgb(0,0,0);stroke-width:0.1;fill:none" />
  <path d="M67.7624,245.631 L67.7624,250.131" style="stroke:rgb(0,0,0);stroke-width:0.1;fill:none" />
  <path d="M67.7624,245.631 A0.50002,0.50002 0 0,0 67.2624,245.131 " style="stroke:rgb(0,0,0);stroke-width:0.1;fill:none" />
  <path d="M47.7616,245.131 L67.2624,245.131" style="stroke:rgb(0,0,0);stroke-width:0.1;fill:none" />
  <path d="M109.688,245.631 L109.688,250.131" style="stroke:rgb(0,0,0);stroke-width:0.1;fill:none" />
  <path d="M110.188,245.131 A0.50002,0.50002 0 0,0 109.688,245.631 " style="stroke:rgb(0,0,0);stroke-width:0.1;fill:none" />
  <path d="M129.189,245.131 L110.188,245.131" style="stroke:rgb(0,0,0);stroke-width:0.1;fill:none" />
  <path d="M67.7624,250.131 L109.688,250.131" style="stroke:rgb(0,0,0);stroke-width:0.1;fill:none" />
  <ellipse cx="152.266" cy="273.062" rx="1.50006" ry="1.50006" style="stroke:rgb(0,0,0);stroke-width:0.1;fill:none;"/>
  <path d="M189.408,202.417 A8.00033,8.00033 0 0,0 173.407,202.417 " style="stroke:rgb(0,0,0);stroke-width:0.1;fill:none" />
  <ellipse cx="181.407" cy="212.418" rx="1.50006" ry="1.50006" style="stroke:rgb(0,0,0);stroke-width:0.1;fill:none;"/>
  <ellipse cx="181.407" cy="202.417" rx="3.16513" ry="3.16513" style="stroke:rgb(0,0,0);stroke-width:0.1;fill:none;"/>
  <path d="M189.408,201.517 L189.408,228.518" style="stroke:rgb(0,0,0);stroke-width:0.1;fill:none" />
  <path d="M173.407,202.417 L173.407,228.518" style="stroke:rgb(0,0,0);stroke-width:0.1;fill:none" />
  <path d="M173.407,228.518 A8.00033,8.00033 0 0,0 189.408,228.518 " style="stroke:rgb(0,0,0);stroke-width:0.1;fill:none" />
  <ellipse cx="181.407" cy="228.518" rx="1.50006" ry="1.50006" style="stroke:rgb(0,0,0);stroke-width:0.1;fill:none;"/>
  <path d="M190.676,255.698 A8.00033,8.00033 0 0,0 174.676,255.698 " style="stroke:rgb(0,0,0);stroke-width:0.1;fill:none" />
  <ellipse cx="182.676" cy="265.698" rx="1.50006" ry="1.50006" style="stroke:rgb(0,0,0);stroke-width:0.1;fill:none;"/>
  <ellipse cx="182.676" cy="255.698" rx="3.16513" ry="3.16513" style="stroke:rgb(0,0,0);stroke-width:0.1;fill:none;"/>
  <path d="M190.676,254.798 L190.676,281.799" style="stroke:rgb(0,0,0);stroke-width:0.1;fill:none" />
  <path d="M174.676,255.698 L174.676,281.799" style="stroke:rgb(0,0,0);stroke-width:0.1;fill:none" />
  <path d="M174.676,281.799 A8.00033,8.00033 0 0,0 190.676,281.799 " style="stroke:rgb(0,0,0);stroke-width:0.1;fill:none" />
  <ellipse cx="182.676" cy="281.799" rx="1.50006" ry="1.50006" style="stroke:rgb(0,0,0);stroke-width:0.1;fill:none;"/>
  <path d="M225.701,211.9 L226.339,211.823 L226.881,211.89 L228.096,212.425 L228.096,213.195 L226.881,213.73 L226.339,213.797 L225.701,213.721 L225.417,215.059 L226.031,215.249 L226.499,215.53 L227.39,216.513 L227.077,217.216 L225.75,217.211 L225.228,217.052 L224.676,216.723 L223.872,217.83 L224.356,218.253 L224.669,218.7 L225.084,219.961 L224.511,220.476 L223.301,219.931 L222.889,219.574 L222.519,219.048 L221.334,219.732 L221.604,220.316 L221.707,220.852 L221.574,222.172 L220.842,222.41 L219.957,221.42 L219.726,220.926 L219.602,220.295 L218.241,220.438 L218.251,221.081 L218.127,221.612 L217.468,222.764 L216.703,222.684 L216.297,221.42 L216.287,220.874 L216.43,220.248 L215.129,219.825 L214.876,220.416 L214.547,220.852 L213.477,221.636 L212.81,221.251 L212.954,219.931 L213.167,219.429 L213.552,218.914 L212.535,217.999 L212.064,218.436 L211.586,218.7 L210.289,218.981 L209.837,218.358 L210.504,217.211 L210.903,216.839 L211.465,216.526 L210.908,215.275 L210.3,215.483 L209.756,215.53 L208.457,215.259 L208.297,214.506 L209.374,213.73 L209.89,213.552 L210.53,213.495 L210.53,212.126 L209.89,212.069 L209.374,211.89 L208.297,211.115 L208.457,210.361 L209.756,210.09 L210.3,210.137 L210.908,210.345 L211.465,209.095 L210.903,208.782 L210.504,208.409 L209.837,207.263 L210.289,206.64 L211.586,206.921 L212.064,207.185 L212.535,207.622 L213.552,206.706 L213.167,206.192 L212.954,205.689 L212.81,204.37 L213.477,203.985 L214.547,204.769 L214.876,205.205 L215.129,205.796 L216.43,205.373 L216.287,204.746 L216.297,204.201 L216.703,202.937 L217.468,202.857 L218.127,204.008 L218.251,204.54 L218.241,205.183 L219.602,205.326 L219.726,204.695 L219.957,204.201 L220.842,203.211 L221.574,203.449 L221.707,204.769 L221.604,205.305 L221.334,205.888 L222.519,206.573 L222.889,206.047 L223.301,205.689 L224.511,205.145 L225.084,205.66 L224.669,206.921 L224.356,207.368 L223.872,207.791 L224.676,208.898 L225.228,208.568 L225.75,208.409 L227.077,208.404 L227.39,209.108 L226.499,210.09 L226.031,210.372 L225.417,210.561 L225.701,211.9 " style="stroke:rgb(0,0,0);stroke-width:0.1;fill:none" />
  <path d="M210.691,229.901 L210.053,229.824 L209.511,229.891 L208.297,230.426 L208.297,231.196 L209.511,231.731 L210.053,231.798 L210.691,231.721 L210.976,233.06 L210.361,233.249 L209.894,233.531 L209.002,234.514 L209.315,235.217 L210.642,235.212 L211.164,235.053 L211.716,234.723 L212.521,235.83 L212.037,236.253 L211.724,236.701 L211.309,237.961 L211.881,238.477 L213.091,237.932 L213.504,237.574 L213.874,237.049 L215.059,237.733 L214.789,238.316 L214.685,238.852 L214.818,240.172 L215.551,240.41 L216.435,239.421 L216.666,238.926 L216.79,238.296 L218.151,238.439 L218.142,239.081 L218.265,239.613 L218.924,240.765 L219.69,240.684 L220.095,239.421 L220.105,238.875 L219.962,238.248 L221.264,237.825 L221.516,238.416 L221.845,238.852 L222.916,239.636 L223.583,239.251 L223.439,237.932 L223.226,237.429 L222.84,236.915 L223.857,235.999 L224.329,236.437 L224.806,236.701 L226.103,236.982 L226.556,236.359 L225.888,235.212 L225.489,234.839 L224.928,234.526 L225.484,233.276 L226.093,233.484 L226.636,233.531 L227.935,233.26 L228.096,232.507 L227.019,231.731 L226.503,231.553 L225.863,231.495 L225.863,230.127 L226.503,230.069 L227.019,229.891 L228.096,229.115 L227.935,228.362 L226.636,228.091 L226.093,228.138 L225.484,228.346 L224.928,227.096 L225.489,226.783 L225.888,226.41 L226.556,225.263 L226.103,224.64 L224.806,224.921 L224.329,225.186 L223.857,225.623 L222.84,224.707 L223.226,224.193 L223.439,223.69 L223.583,222.371 L222.916,221.986 L221.845,222.77 L221.516,223.206 L221.264,223.797 L219.962,223.374 L220.105,222.747 L220.095,222.201 L219.69,220.938 L218.924,220.857 L218.265,222.009 L218.142,222.541 L218.151,223.183 L216.79,223.326 L216.666,222.696 L216.435,222.201 L215.551,221.212 L214.818,221.45 L214.685,222.77 L214.789,223.306 L215.059,223.889 L213.874,224.573 L213.504,224.048 L213.091,223.69 L211.881,223.146 L211.309,223.661 L211.724,224.921 L212.037,225.369 L212.521,225.792 L211.716,226.899 L211.164,226.569 L210.642,226.41 L209.315,226.405 L209.002,227.108 L209.894,228.091 L210.361,228.373 L210.976,228.562 L210.691,229.901 " style="stroke:rgb(0,0,0);stroke-width:0.1;fill:none" />
  <path d="M215.567,228.501 L220.826,228.501" style="stroke:rgb(0,0,0);stroke-width:0.1;fill:none" />
  <path d="M215.567,233.121 L220.826,233.121" style="stroke:rgb(0,0,0);stroke-width:0.1;fill:none" />
  <path d="M215.567,228.501 A3.50014,3.50014 0 0,0 215.567,233.121 " style="stroke:rgb(0,0,0);stroke-width:0.1;fill:none" />
  <path d="M220.826,233.121 A3.50014,3.50014 0 0,0 220.826,228.501 " style="stroke:rgb(0,0,0);stroke-width:0.1;fill:none" />
  <path d="M216.033,210.5 L220.36,210.5" style="stroke:rgb(0,0,0);stroke-width:0.1;fill:none" />
  <path d="M216.033,210.5 A3.16513,3.16513 0 1,0 220.36,210.5 " style="stroke:rgb(0,0,0);stroke-width:0.1;fill:none" />
  <path d="M257.596,199.913 L257.596,194.913" style="stroke:rgb(0,0,0);stroke-width:0.1;fill:none" />
  <path d="M267.597,194.913 L267.597,199.913" style="stroke:rgb(0,0,0);stroke-width:0.1;fill:none" />
  <path d="M267.597,286.84 L267.597,291.84" style="stroke:rgb(0,0,0);stroke-width:0.1;fill:none" />
  <path d="M257.596,291.84 L257.596,286.84" style="stroke:rgb(0,0,0);stroke-width:0.1;fill:none" />
  <path d="M261.097,280.34 L264.097,280.34" style="stroke:rgb(0,0,0);stroke-width:0.1;fill:none" />
  <path d="M259.737,283.51 L259.737,281.34" style="stroke:rgb(0,0,0);stroke-width:0.1;fill:none" />
  <path d="M265.457,281.34 L265.457,283.51" style="stroke:rgb(0,0,0);stroke-width:0.1;fill:none" />
  <path d="M261.097,283.51 L259.737,283.51" style="stroke:rgb(0,0,0);stroke-width:0.1;fill:none" />
  <path d="M265.457,283.51 L264.097,283.51" style="stroke:rgb(0,0,0);stroke-width:0.1;fill:none" />
  <path d="M264.097,280.34 L264.097,281.34" style="stroke:rgb(0,0,0);stroke-width:0.1;fill:none" />
  <path d="M264.097,281.34 L265.457,281.34" style="stroke:rgb(0,0,0);stroke-width:0.1;fill:none" />
  <path d="M259.737,281.34 L261.097,281.34" style="stroke:rgb(0,0,0);stroke-width:0.1;fill:none" />
  <path d="M261.097,281.34 L261.097,280.34" style="stroke:rgb(0,0,0);stroke-width:0.1;fill:none" />
  <path d="M261.097,206.413 L264.097,206.413" style="stroke:rgb(0,0,0);stroke-width:0.1;fill:none" />
  <path d="M259.737,203.243 L259.737,205.413" style="stroke:rgb(0,0,0);stroke-width:0.1;fill:none" />
  <path d="M265.457,205.413 L265.457,203.243" style="stroke:rgb(0,0,0);stroke-width:0.1;fill:none" />
  <path d="M261.097,203.243 L259.737,203.243" style="stroke:rgb(0,0,0);stroke-width:0.1;fill:none" />
  <path d="M265.457,203.243 L264.097,203.243" style="stroke:rgb(0,0,0);stroke-width:0.1;fill:none" />
  <path d="M264.097,206.413 L264.097,205.413" style="stroke:rgb(0,0,0);stroke-width:0.1;fill:none" />
  <path d="M264.097,205.413 L265.457,205.413" style="stroke:rgb(0,0,0);stroke-width:0.1;fill:none" />
  <path d="M259.737,205.413 L261.097,205.413" style="stroke:rgb(0,0,0);stroke-width:0.1;fill:none" />
  <path d="M261.097,205.413 L261.097,206.413" style="stroke:rgb(0,0,0);stroke-width:0.1;fill:none" />
  <path d="M272.597,194.913 L272.597,291.84" style="stroke:rgb(0,0,0);stroke-width:0.1;fill:none" />
  <path d="M252.596,291.84 L252.596,194.913" style="stroke:rgb(0,0,0);stroke-width:0.1;fill:none" />
  <path d="M260.597,199.913 A0.50002,0.50002 0 0,1 261.097,200.413 " style="stroke:rgb(0,0,0);stroke-width:0.1;fill:none" />
  <path d="M260.597,199.913 L257.596,199.913" style="stroke:rgb(0,0,0);stroke-width:0.1;fill:none" />
  <path d="M264.097,200.413 A0.50002,0.50002 0 0,1 264.597,199.913 " style="stroke:rgb(0,0,0);stroke-width:0.1;fill:none" />
  <path d="M264.597,199.913 L267.597,199.913" style="stroke:rgb(0,0,0);stroke-width:0.1;fill:none" />
  <path d="M252.596,194.913 L257.596,194.913" style="stroke:rgb(0,0,0);stroke-width:0.1;fill:none" />
  <path d="M267.597,194.913 L272.597,194.913" style="stroke:rgb(0,0,0);stroke-width:0.1;fill:none" />
  <path d="M261.097,200.413 L261.097,203.243" style="stroke:rgb(0,0,0);stroke-width:0.1;fill:none" />
  <path d="M264.097,203.243 L264.097,200.413" style="stroke:rgb(0,0,0);stroke-width:0.1;fill:none" />
  <path d="M272.597,291.84 L267.597,291.84" style="stroke:rgb(0,0,0);stroke-width:0.1;fill:none" />
  <path d="M257.596,291.84 L252.596,291.84" style="stroke:rgb(0,0,0);stroke-width:0.1;fill:none" />
  <path d="M260.597,286.84 A0.50002,0.50002 0 0,0 261.097,286.34 " style="stroke:rgb(0,0,0);stroke-width:0.1;fill:none" />
  <path d="M260.597,286.84 L257.596,286.84" style="stroke:rgb(0,0,0);stroke-width:0.1;fill:none" />
  <path d="M264.097,286.34 A0.50002,0.50002 0 0,0 264.597,286.84 " style="stroke:rgb(0,0,0);stroke-width:0.1;fill:none" />
  <path d="M264.597,286.84 L267.597,286.84" style="stroke:rgb(0,0,0);stroke-width:0.1;fill:none" />
  <path d="M264.097,283.51 L264.097,286.34" style="stroke:rgb(0,0,0);stroke-width:0.1;fill:none" />
  <path d="M261.097,286.34 L261.097,283.51" style="stroke:rgb(0,0,0);stroke-width:0.1;fill:none" />
  <path d="M16.4916,330.909 L36.4924,415.912" style="stroke:rgb(0,0,0);stroke-width:0.1;fill:none" />
  <path d="M314.504,415.912 L36.4924,415.912" style="stroke:rgb(0,0,0);stroke-width:0.1;fill:none" />
  <path d="M16.4916,330.909 L294.503,330.909" style="stroke:rgb(0,0,0);stroke-width:0.1;fill:none" />
  <path d="M314.504,415.912 L294.503,330.909" style="stroke:rgb(0,0,0);stroke-width:0.1;fill:none" />
</svg>
