<?xml version="1.0" standalone="yes"?>

<svg width="283mm" height="389mm" viewBox="0 0 283 389" version="1.1"
xmlns="http://www.w3.org/2000/svg" style="stroke-linecap:round">
  <ellipse cx="33" cy="63.5698" rx="2.75" ry="2.75" style="stroke:rgb(0,0,0);stroke-width:0.1;fill:none;"/>
  <ellipse cx="12.9" cy="50.5698" rx="2.75" ry="2.75" style="stroke:rgb(0,0,0);stroke-width:0.1;fill:none;"/>
  <ellipse cx="53.1" cy="50.5698" rx="2.75" ry="2.75" style="stroke:rgb(0,0,0);stroke-width:0.1;fill:none;"/>
  <path d="M39.77,81.1998 L37.03,81.1998" style="stroke:rgb(0,0,0);stroke-width:0.1;fill:none" />
  <path d="M39.77,83.9398 L39.77,81.1998" style="stroke:rgb(0,0,0);stroke-width:0.1;fill:none" />
  <path d="M37.03,81.1998 L37.03,83.9398" style="stroke:rgb(0,0,0);stroke-width:0.1;fill:none" />
  <path d="M37.03,83.9398 L39.77,83.9398" style="stroke:rgb(0,0,0);stroke-width:0.1;fill:none" />
  <path d="M28.97,81.1998 L26.23,81.1998" style="stroke:rgb(0,0,0);stroke-width:0.1;fill:none" />
  <path d="M28.97,83.9398 L28.97,81.1998" style="stroke:rgb(0,0,0);stroke-width:0.1;fill:none" />
  <path d="M26.23,81.1998 L26.23,83.9398" style="stroke:rgb(0,0,0);stroke-width:0.1;fill:none" />
  <path d="M26.23,83.9398 L28.97,83.9398" style="stroke:rgb(0,0,0);stroke-width:0.1;fill:none" />
  <path d="M34.37,49.1998 L31.63,49.1998" style="stroke:rgb(0,0,0);stroke-width:0.1;fill:none" />
  <path d="M34.37,51.9398 L34.37,49.1998" style="stroke:rgb(0,0,0);stroke-width:0.1;fill:none" />
  <path d="M31.63,49.1998 L31.63,51.9398" style="stroke:rgb(0,0,0);stroke-width:0.1;fill:none" />
  <path d="M31.63,51.9398 L34.37,51.9398" style="stroke:rgb(0,0,0);stroke-width:0.1;fill:none" />
  <path d="M39.77,35.1998 L37.03,35.1998" style="stroke:rgb(0,0,0);stroke-width:0.1;fill:none" />
  <path d="M39.77,37.9398 L39.77,35.1998" style="stroke:rgb(0,0,0);stroke-width:0.1;fill:none" />
  <path d="M37.03,35.1998 L37.03,37.9398" style="stroke:rgb(0,0,0);stroke-width:0.1;fill:none" />
  <path d="M37.03,37.9398 L39.77,37.9398" style="stroke:rgb(0,0,0);stroke-width:0.1;fill:none" />
  <path d="M28.97,35.1998 L26.23,35.1998" style="stroke:rgb(0,0,0);stroke-width:0.1;fill:none" />
  <path d="M28.97,37.9398 L28.97,35.1998" style="stroke:rgb(0,0,0);stroke-width:0.1;fill:none" />
  <path d="M26.23,35.1998 L26.23,37.9398" style="stroke:rgb(0,0,0);stroke-width:0.1;fill:none" />
  <path d="M26.23,37.9398 L28.97,37.9398" style="stroke:rgb(0,0,0);stroke-width:0.1;fill:none" />
  <ellipse cx="16" cy="13.5698" rx="1.5" ry="1.5" style="stroke:rgb(0,0,0);stroke-width:0.25;fill:none;"/>
  <path d="M21,11.0698 L26,11.0698" style="stroke:rgb(0,0,0);stroke-width:0.25;fill:none" />
  <path d="M21,16.0698 L26,16.0698" style="stroke:rgb(0,0,0);stroke-width:0.25;fill:none" />
  <path d="M11,11.0698 L6,11.0698" style="stroke:rgb(0,0,0);stroke-width:0.25;fill:none" />
  <path d="M11,16.0698 L6,16.0698" style="stroke:rgb(0,0,0);stroke-width:0.25;fill:none" />
  <path d="M6,11.0698 L6,16.0698" style="stroke:rgb(0,0,0);stroke-width:0.25;fill:none" />
  <path d="M11,11.0698 L11,16.0698" style="stroke:rgb(0,0,0);stroke-width:0.25;fill:none" />
  <path d="M21,11.0698 L21,16.0698" style="stroke:rgb(0,0,0);stroke-width:0.25;fill:none" />
  <path d="M26,11.0698 L26,16.0698" style="stroke:rgb(0,0,0);stroke-width:0.25;fill:none" />
  <ellipse cx="48.04" cy="50.5298" rx="2.7" ry="2.7" style="stroke:rgb(0,0,0);stroke-width:0.1;fill:none;"/>
  <ellipse cx="33.04" cy="65.5298" rx="2.7" ry="2.7" style="stroke:rgb(0,0,0);stroke-width:0.1;fill:none;"/>
  <ellipse cx="18.04" cy="50.5298" rx="2.7" ry="2.7" style="stroke:rgb(0,0,0);stroke-width:0.1;fill:none;"/>
  <ellipse cx="16" cy="105.494" rx="1.5" ry="1.5" style="stroke:rgb(0,0,0);stroke-width:0.25;fill:none;"/>
  <path d="M21,102.994 L26,102.994" style="stroke:rgb(0,0,0);stroke-width:0.25;fill:none" />
  <path d="M21,107.994 L26,107.994" style="stroke:rgb(0,0,0);stroke-width:0.25;fill:none" />
  <path d="M11,102.994 L6,102.994" style="stroke:rgb(0,0,0);stroke-width:0.25;fill:none" />
  <path d="M11,107.994 L6,107.994" style="stroke:rgb(0,0,0);stroke-width:0.25;fill:none" />
  <path d="M6,102.994 L6,107.994" style="stroke:rgb(0,0,0);stroke-width:0.25;fill:none" />
  <path d="M11,102.994 L11,107.994" style="stroke:rgb(0,0,0);stroke-width:0.25;fill:none" />
  <path d="M21,102.994 L21,107.994" style="stroke:rgb(0,0,0);stroke-width:0.25;fill:none" />
  <path d="M26,102.994 L26,107.994" style="stroke:rgb(0,0,0);stroke-width:0.25;fill:none" />
  <ellipse cx="50" cy="13.5698" rx="1.5" ry="1.5" style="stroke:rgb(0,0,0);stroke-width:0.25;fill:none;"/>
  <path d="M55,11.0698 L60,11.0698" style="stroke:rgb(0,0,0);stroke-width:0.25;fill:none" />
  <path d="M55,16.0698 L60,16.0698" style="stroke:rgb(0,0,0);stroke-width:0.25;fill:none" />
  <path d="M45,11.0698 L40,11.0698" style="stroke:rgb(0,0,0);stroke-width:0.25;fill:none" />
  <path d="M45,16.0698 L40,16.0698" style="stroke:rgb(0,0,0);stroke-width:0.25;fill:none" />
  <path d="M40,11.0698 L40,16.0698" style="stroke:rgb(0,0,0);stroke-width:0.25;fill:none" />
  <path d="M45,11.0698 L45,16.0698" style="stroke:rgb(0,0,0);stroke-width:0.25;fill:none" />
  <path d="M55,11.0698 L55,16.0698" style="stroke:rgb(0,0,0);stroke-width:0.25;fill:none" />
  <path d="M60,11.0698 L60,16.0698" style="stroke:rgb(0,0,0);stroke-width:0.25;fill:none" />
  <ellipse cx="50" cy="105.494" rx="1.5" ry="1.5" style="stroke:rgb(0,0,0);stroke-width:0.25;fill:none;"/>
  <path d="M55,102.994 L60,102.994" style="stroke:rgb(0,0,0);stroke-width:0.25;fill:none" />
  <path d="M55,107.994 L60,107.994" style="stroke:rgb(0,0,0);stroke-width:0.25;fill:none" />
  <path d="M45,102.994 L40,102.994" style="stroke:rgb(0,0,0);stroke-width:0.25;fill:none" />
  <path d="M45,107.994 L40,107.994" style="stroke:rgb(0,0,0);stroke-width:0.25;fill:none" />
  <path d="M40,102.994 L40,107.994" style="stroke:rgb(0,0,0);stroke-width:0.25;fill:none" />
  <path d="M45,102.994 L45,107.994" style="stroke:rgb(0,0,0);stroke-width:0.25;fill:none" />
  <path d="M55,102.994 L55,107.994" style="stroke:rgb(0,0,0);stroke-width:0.25;fill:none" />
  <path d="M60,102.994 L60,107.994" style="stroke:rgb(0,0,0);stroke-width:0.25;fill:none" />
  <path d="M65,109.532 L1,109.532" style="stroke:rgb(0,0,0);stroke-width:0.1;fill:none" />
  <path d="M1,109.532 L1,9.5319" style="stroke:rgb(0,0,0);stroke-width:0.1;fill:none" />
  <path d="M65,9.5319 L65,109.532" style="stroke:rgb(0,0,0);stroke-width:0.1;fill:none" />
  <path d="M25,9.5319 L65,9.5319" style="stroke:rgb(0,0,0);stroke-width:0.1;fill:none" />
  <path d="M25,4.4681 A2,2 0 0,0 23,2.4681 " style="stroke:rgb(0,0,0);stroke-width:0.1;fill:none" />
  <path d="M25,4.4681 L25,9.5319" style="stroke:rgb(0,0,0);stroke-width:0.1;fill:none" />
  <path d="M14.0381,2.4681 A2,2 0 0,0 12.0381,4.4681 " style="stroke:rgb(0,0,0);stroke-width:0.1;fill:none" />
  <path d="M12.0381,9.5319 L12.0381,4.4681" style="stroke:rgb(0,0,0);stroke-width:0.1;fill:none" />
  <path d="M1,9.5319 L12.0381,9.5319" style="stroke:rgb(0,0,0);stroke-width:0.1;fill:none" />
  <path d="M14.0381,2.4681 L23,2.4681" style="stroke:rgb(0,0,0);stroke-width:0.1;fill:none" />
  <ellipse cx="18.5191" cy="5.93" rx="1.56" ry="1.56" style="stroke:rgb(0,0,0);stroke-width:0.1;fill:none;"/>
  <ellipse cx="18.5191" cy="5.93" rx="1.56" ry="1.56" style="stroke:rgb(0,0,0);stroke-width:0.1;fill:none;"/>
  <ellipse cx="77.0381" cy="13.57" rx="1.5" ry="1.5" style="stroke:rgb(0,0,0);stroke-width:0.1;fill:none;"/>
  <path d="M82.0381,11.07 L82.0381,16.07" style="stroke:rgb(0,0,0);stroke-width:0.1;fill:none" />
  <ellipse cx="168.962" cy="13.57" rx="1.5" ry="1.5" style="stroke:rgb(0,0,0);stroke-width:0.1;fill:none;"/>
  <ellipse cx="77.0381" cy="105.494" rx="1.5" ry="1.5" style="stroke:rgb(0,0,0);stroke-width:0.1;fill:none;"/>
  <ellipse cx="168.962" cy="105.494" rx="1.5" ry="1.5" style="stroke:rgb(0,0,0);stroke-width:0.1;fill:none;"/>
  <path d="M102.038,11.07 L82.0381,11.07" style="stroke:rgb(0,0,0);stroke-width:0.1;fill:none" />
  <path d="M102.038,11.07 L102.038,16.07" style="stroke:rgb(0,0,0);stroke-width:0.1;fill:none" />
  <path d="M82.0381,16.07 L102.038,16.07" style="stroke:rgb(0,0,0);stroke-width:0.1;fill:none" />
  <path d="M82.0381,102.994 L82.0381,107.994" style="stroke:rgb(0,0,0);stroke-width:0.1;fill:none" />
  <path d="M102.038,102.994 L82.0381,102.994" style="stroke:rgb(0,0,0);stroke-width:0.1;fill:none" />
  <path d="M102.038,102.994 L102.038,107.994" style="stroke:rgb(0,0,0);stroke-width:0.1;fill:none" />
  <path d="M82.0381,107.994 L102.038,107.994" style="stroke:rgb(0,0,0);stroke-width:0.1;fill:none" />
  <path d="M173,109.532 L73,109.532" style="stroke:rgb(0,0,0);stroke-width:0.1;fill:none" />
  <path d="M73,109.532 L73,9.5319" style="stroke:rgb(0,0,0);stroke-width:0.1;fill:none" />
  <path d="M173,9.5319 L173,109.532" style="stroke:rgb(0,0,0);stroke-width:0.1;fill:none" />
  <path d="M115,11.07 L115,16.07" style="stroke:rgb(0,0,0);stroke-width:0.1;fill:none" />
  <path d="M115,102.994 L115,107.994" style="stroke:rgb(0,0,0);stroke-width:0.1;fill:none" />
  <ellipse cx="123" cy="63.57" rx="1.5" ry="1.5" style="stroke:rgb(0,0,0);stroke-width:0.1;fill:none;"/>
  <path d="M164,9.5319 L164,18.5319" style="stroke:rgb(0,0,0);stroke-width:0.1;fill:none" />
  <path d="M164,18.5319 L135,18.5319" style="stroke:rgb(0,0,0);stroke-width:0.1;fill:none" />
  <path d="M135,18.5319 L135,9.5319" style="stroke:rgb(0,0,0);stroke-width:0.1;fill:none" />
  <path d="M164,9.5319 L173,9.5319" style="stroke:rgb(0,0,0);stroke-width:0.1;fill:none" />
  <path d="M115,9.5319 L135,9.5319" style="stroke:rgb(0,0,0);stroke-width:0.1;fill:none" />
  <path d="M125,11.07 L125,16.07" style="stroke:rgb(0,0,0);stroke-width:0.1;fill:none" />
  <path d="M125,102.994 L125,107.994" style="stroke:rgb(0,0,0);stroke-width:0.1;fill:none" />
  <path d="M115,16.07 L125,16.07" style="stroke:rgb(0,0,0);stroke-width:0.1;fill:none" />
  <path d="M125,11.07 L115,11.07" style="stroke:rgb(0,0,0);stroke-width:0.1;fill:none" />
  <path d="M125,102.994 L115,102.994" style="stroke:rgb(0,0,0);stroke-width:0.1;fill:none" />
  <path d="M115,107.994 L125,107.994" style="stroke:rgb(0,0,0);stroke-width:0.1;fill:none" />
  <path d="M115,4.4681 A2,2 0 0,0 113,2.4681 " style="stroke:rgb(0,0,0);stroke-width:0.1;fill:none" />
  <path d="M115,4.4681 L115,9.5319" style="stroke:rgb(0,0,0);stroke-width:0.1;fill:none" />
  <path d="M104.038,2.4681 A2,2 0 0,0 102.038,4.4681 " style="stroke:rgb(0,0,0);stroke-width:0.1;fill:none" />
  <path d="M102.038,9.5319 L102.038,4.4681" style="stroke:rgb(0,0,0);stroke-width:0.1;fill:none" />
  <path d="M104.038,2.4681 L113,2.4681" style="stroke:rgb(0,0,0);stroke-width:0.1;fill:none" />
  <path d="M73,9.5319 L102.038,9.5319" style="stroke:rgb(0,0,0);stroke-width:0.1;fill:none" />
  <ellipse cx="108.519" cy="5.93" rx="2.4" ry="2.4" style="stroke:rgb(0,0,0);stroke-width:0.1;fill:none;"/>
  <path d="M4,203.5 L24,288.5" style="stroke:rgb(0,0,0);stroke-width:0.1;fill:none" />
  <path d="M4,203.5 L262,203.5" style="stroke:rgb(0,0,0);stroke-width:0.1;fill:none" />
  <path d="M282,288.5 L262,203.5" style="stroke:rgb(0,0,0);stroke-width:0.1;fill:none" />
  <path d="M282,288.5 L24,288.5" style="stroke:rgb(0,0,0);stroke-width:0.1;fill:none" />
  <path d="M4,303.5 L4,388.5" style="stroke:rgb(0,0,0);stroke-width:0.1;fill:none" />
  <path d="M4,303.5 L281,303.5" style="stroke:rgb(0,0,0);stroke-width:0.1;fill:none" />
  <path d="M281,388.5 L4,388.5" style="stroke:rgb(0,0,0);stroke-width:0.1;fill:none" />
  <path d="M281,388.5 L281,303.5" style="stroke:rgb(0,0,0);stroke-width:0.1;fill:none" />
  <path d="M31.6381,123.5 L31.6381,119" style="stroke:rgb(0,0,0);stroke-width:0.1;fill:none" />
  <path d="M32.1381,118.5 A0.5,0.5 0 0,0 31.6381,119 " style="stroke:rgb(0,0,0);stroke-width:0.1;fill:none" />
  <path d="M51.6381,119 A0.5,0.5 0 0,0 51.1381,118.5 " style="stroke:rgb(0,0,0);stroke-width:0.1;fill:none" />
  <path d="M65.1,118.5 A0.5,0.5 0 0,0 64.6,119 " style="stroke:rgb(0,0,0);stroke-width:0.1;fill:none" />
  <path d="M22.6,123.5 L24.6381,123.5" style="stroke:rgb(0,0,0);stroke-width:0.1;fill:none" />
  <path d="M28.6381,123.5 L31.6381,123.5" style="stroke:rgb(0,0,0);stroke-width:0.1;fill:none" />
  <path d="M25.1381,124 A0.5,0.5 0 0,0 24.6381,123.5 " style="stroke:rgb(0,0,0);stroke-width:0.1;fill:none" />
  <path d="M28.6381,123.5 A0.5,0.5 0 0,0 28.1381,124 " style="stroke:rgb(0,0,0);stroke-width:0.1;fill:none" />
  <path d="M117.062,124 A0.5,0.5 0 0,0 116.562,123.5 " style="stroke:rgb(0,0,0);stroke-width:0.1;fill:none" />
  <path d="M120.562,123.5 A0.5,0.5 0 0,0 120.062,124 " style="stroke:rgb(0,0,0);stroke-width:0.1;fill:none" />
  <path d="M32.1381,118.5 L51.1381,118.5" style="stroke:rgb(0,0,0);stroke-width:0.1;fill:none" />
  <path d="M25.1381,128.103 L28.1381,128.103" style="stroke:rgb(0,0,0);stroke-width:0.1;fill:none" />
  <path d="M23.7781,124.933 L23.7781,127.103" style="stroke:rgb(0,0,0);stroke-width:0.1;fill:none" />
  <path d="M29.4981,127.103 L29.4981,124.933" style="stroke:rgb(0,0,0);stroke-width:0.1;fill:none" />
  <path d="M25.1381,124.933 L23.7781,124.933" style="stroke:rgb(0,0,0);stroke-width:0.1;fill:none" />
  <path d="M29.4981,124.933 L28.1381,124.933" style="stroke:rgb(0,0,0);stroke-width:0.1;fill:none" />
  <path d="M28.1381,128.103 L28.1381,127.103" style="stroke:rgb(0,0,0);stroke-width:0.1;fill:none" />
  <path d="M28.1381,127.103 L29.4981,127.103" style="stroke:rgb(0,0,0);stroke-width:0.1;fill:none" />
  <path d="M23.7781,127.103 L25.1381,127.103" style="stroke:rgb(0,0,0);stroke-width:0.1;fill:none" />
  <path d="M25.1381,127.103 L25.1381,128.103" style="stroke:rgb(0,0,0);stroke-width:0.1;fill:none" />
  <path d="M117.062,128.103 L120.062,128.103" style="stroke:rgb(0,0,0);stroke-width:0.1;fill:none" />
  <path d="M115.702,124.933 L115.702,127.103" style="stroke:rgb(0,0,0);stroke-width:0.1;fill:none" />
  <path d="M121.422,127.103 L121.422,124.933" style="stroke:rgb(0,0,0);stroke-width:0.1;fill:none" />
  <path d="M117.062,124.933 L115.702,124.933" style="stroke:rgb(0,0,0);stroke-width:0.1;fill:none" />
  <path d="M121.422,124.933 L120.062,124.933" style="stroke:rgb(0,0,0);stroke-width:0.1;fill:none" />
  <path d="M120.062,128.103 L120.062,127.103" style="stroke:rgb(0,0,0);stroke-width:0.1;fill:none" />
  <path d="M120.062,127.103 L121.422,127.103" style="stroke:rgb(0,0,0);stroke-width:0.1;fill:none" />
  <path d="M115.702,127.103 L117.062,127.103" style="stroke:rgb(0,0,0);stroke-width:0.1;fill:none" />
  <path d="M117.062,127.103 L117.062,128.103" style="stroke:rgb(0,0,0);stroke-width:0.1;fill:none" />
  <path d="M25.1381,124 L25.1381,124.933" style="stroke:rgb(0,0,0);stroke-width:0.1;fill:none" />
  <path d="M28.1381,124.933 L28.1381,124" style="stroke:rgb(0,0,0);stroke-width:0.1;fill:none" />
  <path d="M117.062,124 L117.062,124.933" style="stroke:rgb(0,0,0);stroke-width:0.1;fill:none" />
  <path d="M120.062,124.933 L120.062,124" style="stroke:rgb(0,0,0);stroke-width:0.1;fill:none" />
  <path d="M74.6,123.5 L74.6,119" style="stroke:rgb(0,0,0);stroke-width:0.1;fill:none" />
  <path d="M74.6,119 A0.5,0.5 0 0,0 74.1,118.5 " style="stroke:rgb(0,0,0);stroke-width:0.1;fill:none" />
  <path d="M74.1,118.5 L65.1,118.5" style="stroke:rgb(0,0,0);stroke-width:0.1;fill:none" />
  <path d="M116.562,123.5 L74.6,123.5" style="stroke:rgb(0,0,0);stroke-width:0.1;fill:none" />
  <path d="M51.6381,119 L51.6381,128.5" style="stroke:rgb(0,0,0);stroke-width:0.1;fill:none" />
  <path d="M51.6381,128.5 L64.6,128.5" style="stroke:rgb(0,0,0);stroke-width:0.1;fill:none" />
  <path d="M64.6,119 L64.6,128.5" style="stroke:rgb(0,0,0);stroke-width:0.1;fill:none" />
  <path d="M120.562,123.5 L122.6,123.5" style="stroke:rgb(0,0,0);stroke-width:0.1;fill:none" />
  <path d="M122.6,117.001 L122.6,123.501" style="stroke:rgb(0,0,0);stroke-width:0.1;fill:none" />
  <path d="M133.2,117.001 A1,1 0 0,0 132.2,116.001 " style="stroke:rgb(0,0,0);stroke-width:0.1;fill:none" />
  <path d="M133.2,117.001 L138.6,133.75" style="stroke:rgb(0,0,0);stroke-width:0.1;fill:none" />
  <path d="M22.6,117 A1,1 0 0,0 21.6,116 " style="stroke:rgb(0,0,0);stroke-width:0.1;fill:none" />
  <path d="M22.6,117 L22.6,123.5" style="stroke:rgb(0,0,0);stroke-width:0.1;fill:none" />
  <path d="M13,116 A1,1 0 0,0 12,117 " style="stroke:rgb(0,0,0);stroke-width:0.1;fill:none" />
  <path d="M130.6,143.875 A8,8 0 0,0 138.6,135.875 " style="stroke:rgb(0,0,0);stroke-width:0.1;fill:none" />
  <path d="M6.6,135.874 A8,8 0 0,0 14.6,143.874 " style="stroke:rgb(0,0,0);stroke-width:0.1;fill:none" />
  <path d="M6.6,133.749 L6.6,135.874" style="stroke:rgb(0,0,0);stroke-width:0.1;fill:none" />
  <path d="M138.6,133.75 L138.6,135.875" style="stroke:rgb(0,0,0);stroke-width:0.1;fill:none" />
  <path d="M17.3,123.005 A2.156,2.156 0 0,0 18.8618,119.362 " style="stroke:rgb(0,0,0);stroke-width:0.1;fill:none" />
  <path d="M15.7382,119.362 A2.156,2.156 0 0,0 17.3,123.005 " style="stroke:rgb(0,0,0);stroke-width:0.1;fill:none" />
  <path d="M15.7382,117 A1,1 0 0,0 14.7382,116 " style="stroke:rgb(0,0,0);stroke-width:0.1;fill:none" />
  <path d="M13,116 L14.7382,116" style="stroke:rgb(0,0,0);stroke-width:0.1;fill:none" />
  <path d="M19.8618,116 A1,1 0 0,0 18.8618,117 " style="stroke:rgb(0,0,0);stroke-width:0.1;fill:none" />
  <path d="M21.6,116 L19.8618,116" style="stroke:rgb(0,0,0);stroke-width:0.1;fill:none" />
  <path d="M18.8618,117 L18.8618,119.362" style="stroke:rgb(0,0,0);stroke-width:0.1;fill:none" />
  <path d="M15.7382,117 L15.7382,119.362" style="stroke:rgb(0,0,0);stroke-width:0.1;fill:none" />
  <ellipse cx="13.6" cy="129.75" rx="1" ry="1" style="stroke:rgb(0,0,0);stroke-width:0.1;fill:none;"/>
  <path d="M16.3563,122.791 L13.9682,128.82" style="stroke:rgb(0,0,0);stroke-width:0.1;fill:none" />
  <path d="M126.338,119.364 A2.156,2.156 0 0,0 127.9,123.006 " style="stroke:rgb(0,0,0);stroke-width:0.1;fill:none" />
  <path d="M127.9,123.006 A2.156,2.156 0 0,0 129.462,119.364 " style="stroke:rgb(0,0,0);stroke-width:0.1;fill:none" />
  <path d="M130.462,116.001 A1,1 0 0,0 129.462,117.001 " style="stroke:rgb(0,0,0);stroke-width:0.1;fill:none" />
  <path d="M132.2,116.001 L130.462,116.001" style="stroke:rgb(0,0,0);stroke-width:0.1;fill:none" />
  <path d="M126.338,117.001 A1,1 0 0,0 125.338,116.001 " style="stroke:rgb(0,0,0);stroke-width:0.1;fill:none" />
  <path d="M123.6,116.001 L125.338,116.001" style="stroke:rgb(0,0,0);stroke-width:0.1;fill:none" />
  <path d="M126.338,117.001 L126.338,119.364" style="stroke:rgb(0,0,0);stroke-width:0.1;fill:none" />
  <path d="M129.462,117.001 L129.462,119.364" style="stroke:rgb(0,0,0);stroke-width:0.1;fill:none" />
  <ellipse cx="131.6" cy="129.751" rx="1" ry="1" style="stroke:rgb(0,0,0);stroke-width:0.1;fill:none;"/>
  <path d="M128.844,122.792 L131.232,128.822" style="stroke:rgb(0,0,0);stroke-width:0.1;fill:none" />
  <path d="M123.6,116.001 A1,1 0 0,0 122.6,117.001 " style="stroke:rgb(0,0,0);stroke-width:0.1;fill:none" />
  <path d="M40.6,138.875 L40.6,143.875" style="stroke:rgb(0,0,0);stroke-width:0.1;fill:none" />
  <path d="M40.6,138.875 L45.6,138.875" style="stroke:rgb(0,0,0);stroke-width:0.1;fill:none" />
  <path d="M65.6,138.875 L79.6,138.875" style="stroke:rgb(0,0,0);stroke-width:0.1;fill:none" />
  <path d="M104.6,138.875 L104.6,143.875" style="stroke:rgb(0,0,0);stroke-width:0.1;fill:none" />
  <path d="M99.6,138.875 L104.6,138.875" style="stroke:rgb(0,0,0);stroke-width:0.1;fill:none" />
  <path d="M104.6,143.875 L130.6,143.875" style="stroke:rgb(0,0,0);stroke-width:0.1;fill:none" />
  <path d="M14.6,143.874 L40.6,143.875" style="stroke:rgb(0,0,0);stroke-width:0.1;fill:none" />
  <path d="M54.1,131.772 L57.1,131.772" style="stroke:rgb(0,0,0);stroke-width:0.1;fill:none" />
  <path d="M52.74,134.942 L52.74,132.772" style="stroke:rgb(0,0,0);stroke-width:0.1;fill:none" />
  <path d="M58.46,132.772 L58.46,134.942" style="stroke:rgb(0,0,0);stroke-width:0.1;fill:none" />
  <path d="M54.1,134.942 L52.74,134.942" style="stroke:rgb(0,0,0);stroke-width:0.1;fill:none" />
  <path d="M58.46,134.942 L57.1,134.942" style="stroke:rgb(0,0,0);stroke-width:0.1;fill:none" />
  <path d="M57.1,131.772 L57.1,132.772" style="stroke:rgb(0,0,0);stroke-width:0.1;fill:none" />
  <path d="M57.1,132.772 L58.46,132.772" style="stroke:rgb(0,0,0);stroke-width:0.1;fill:none" />
  <path d="M52.74,132.772 L54.1,132.772" style="stroke:rgb(0,0,0);stroke-width:0.1;fill:none" />
  <path d="M54.1,132.772 L54.1,131.772" style="stroke:rgb(0,0,0);stroke-width:0.1;fill:none" />
  <path d="M54.1,138.375 L54.1,134.942" style="stroke:rgb(0,0,0);stroke-width:0.1;fill:none" />
  <path d="M57.1,134.942 L57.1,138.375" style="stroke:rgb(0,0,0);stroke-width:0.1;fill:none" />
  <path d="M45.6,143.375 L45.6,138.875" style="stroke:rgb(0,0,0);stroke-width:0.1;fill:none" />
  <path d="M45.6,143.375 A0.5,0.5 0 0,0 46.1,143.875 " style="stroke:rgb(0,0,0);stroke-width:0.1;fill:none" />
  <path d="M50.1,143.875 L46.1,143.875" style="stroke:rgb(0,0,0);stroke-width:0.1;fill:none" />
  <path d="M50.6,138.875 L50.6,143.375" style="stroke:rgb(0,0,0);stroke-width:0.1;fill:none" />
  <path d="M50.1,143.875 A0.5,0.5 0 0,0 50.6,143.375 " style="stroke:rgb(0,0,0);stroke-width:0.1;fill:none" />
  <path d="M53.6,138.875 L50.6,138.875" style="stroke:rgb(0,0,0);stroke-width:0.1;fill:none" />
  <path d="M53.6,138.875 A0.5,0.5 0 0,0 54.1,138.375 " style="stroke:rgb(0,0,0);stroke-width:0.1;fill:none" />
  <path d="M57.6,138.875 L60.6,138.875" style="stroke:rgb(0,0,0);stroke-width:0.1;fill:none" />
  <path d="M57.1,138.375 A0.5,0.5 0 0,0 57.6,138.875 " style="stroke:rgb(0,0,0);stroke-width:0.1;fill:none" />
  <path d="M60.6,138.875 L60.6,143.375" style="stroke:rgb(0,0,0);stroke-width:0.1;fill:none" />
  <path d="M60.6,143.375 A0.5,0.5 0 0,0 61.1,143.875 " style="stroke:rgb(0,0,0);stroke-width:0.1;fill:none" />
  <path d="M61.1,143.875 L65.1,143.875" style="stroke:rgb(0,0,0);stroke-width:0.1;fill:none" />
  <path d="M65.6,143.375 L65.6,138.875" style="stroke:rgb(0,0,0);stroke-width:0.1;fill:none" />
  <path d="M65.1,143.875 A0.5,0.5 0 0,0 65.6,143.375 " style="stroke:rgb(0,0,0);stroke-width:0.1;fill:none" />
  <path d="M88.1,131.772 L91.1,131.772" style="stroke:rgb(0,0,0);stroke-width:0.1;fill:none" />
  <path d="M86.74,134.942 L86.74,132.772" style="stroke:rgb(0,0,0);stroke-width:0.1;fill:none" />
  <path d="M92.46,132.772 L92.46,134.942" style="stroke:rgb(0,0,0);stroke-width:0.1;fill:none" />
  <path d="M88.1,134.942 L86.74,134.942" style="stroke:rgb(0,0,0);stroke-width:0.1;fill:none" />
  <path d="M92.46,134.942 L91.1,134.942" style="stroke:rgb(0,0,0);stroke-width:0.1;fill:none" />
  <path d="M91.1,131.772 L91.1,132.772" style="stroke:rgb(0,0,0);stroke-width:0.1;fill:none" />
  <path d="M91.1,132.772 L92.46,132.772" style="stroke:rgb(0,0,0);stroke-width:0.1;fill:none" />
  <path d="M86.74,132.772 L88.1,132.772" style="stroke:rgb(0,0,0);stroke-width:0.1;fill:none" />
  <path d="M88.1,132.772 L88.1,131.772" style="stroke:rgb(0,0,0);stroke-width:0.1;fill:none" />
  <path d="M88.1,138.375 L88.1,134.942" style="stroke:rgb(0,0,0);stroke-width:0.1;fill:none" />
  <path d="M91.1,134.942 L91.1,138.375" style="stroke:rgb(0,0,0);stroke-width:0.1;fill:none" />
  <path d="M87.6,138.875 L84.6,138.875" style="stroke:rgb(0,0,0);stroke-width:0.1;fill:none" />
  <path d="M87.6,138.875 A0.5,0.5 0 0,0 88.1,138.375 " style="stroke:rgb(0,0,0);stroke-width:0.1;fill:none" />
  <path d="M91.6,138.875 L94.6,138.875" style="stroke:rgb(0,0,0);stroke-width:0.1;fill:none" />
  <path d="M91.1,138.375 A0.5,0.5 0 0,0 91.6,138.875 " style="stroke:rgb(0,0,0);stroke-width:0.1;fill:none" />
  <path d="M79.6,143.375 L79.6,138.875" style="stroke:rgb(0,0,0);stroke-width:0.1;fill:none" />
  <path d="M79.6,143.375 A0.5,0.5 0 0,0 80.1,143.875 " style="stroke:rgb(0,0,0);stroke-width:0.1;fill:none" />
  <path d="M84.1,143.875 L80.1,143.875" style="stroke:rgb(0,0,0);stroke-width:0.1;fill:none" />
  <path d="M84.6,138.875 L84.6,143.375" style="stroke:rgb(0,0,0);stroke-width:0.1;fill:none" />
  <path d="M84.1,143.875 A0.5,0.5 0 0,0 84.6,143.375 " style="stroke:rgb(0,0,0);stroke-width:0.1;fill:none" />
  <path d="M87.6,138.875 L84.6,138.875" style="stroke:rgb(0,0,0);stroke-width:0.1;fill:none" />
  <path d="M87.6,138.875 A0.5,0.5 0 0,0 88.1,138.375 " style="stroke:rgb(0,0,0);stroke-width:0.1;fill:none" />
  <path d="M91.6,138.875 L94.6,138.875" style="stroke:rgb(0,0,0);stroke-width:0.1;fill:none" />
  <path d="M91.1,138.375 A0.5,0.5 0 0,0 91.6,138.875 " style="stroke:rgb(0,0,0);stroke-width:0.1;fill:none" />
  <path d="M94.6,138.875 L94.6,143.375" style="stroke:rgb(0,0,0);stroke-width:0.1;fill:none" />
  <path d="M94.6,143.375 A0.5,0.5 0 0,0 95.1,143.875 " style="stroke:rgb(0,0,0);stroke-width:0.1;fill:none" />
  <path d="M95.1,143.875 L99.1,143.875" style="stroke:rgb(0,0,0);stroke-width:0.1;fill:none" />
  <path d="M99.6,143.375 L99.6,138.875" style="stroke:rgb(0,0,0);stroke-width:0.1;fill:none" />
  <path d="M99.1,143.875 A0.5,0.5 0 0,0 99.6,143.375 " style="stroke:rgb(0,0,0);stroke-width:0.1;fill:none" />
  <path d="M10.1063,122.874 A1.5,1.5 0 1,0 10.9497,120.258 " style="stroke:rgb(0,0,0);stroke-width:0.1;fill:none" />
  <path d="M10.1063,122.874 L6.6,133.749" style="stroke:rgb(0,0,0);stroke-width:0.1;fill:none" />
  <path d="M12,117 L10.9497,120.258" style="stroke:rgb(0,0,0);stroke-width:0.1;fill:none" />
  <path d="M190.499,114.824 L185.999,114.824" style="stroke:rgb(0,0,0);stroke-width:0.1;fill:none" />
  <path d="M185.499,114.324 A0.5,0.5 0 0,0 185.999,114.824 " style="stroke:rgb(0,0,0);stroke-width:0.1;fill:none" />
  <path d="M185.999,94.8237 A0.5,0.5 0 0,0 185.499,95.3237 " style="stroke:rgb(0,0,0);stroke-width:0.1;fill:none" />
  <path d="M185.499,81.3618 A0.5,0.5 0 0,0 185.999,81.8618 " style="stroke:rgb(0,0,0);stroke-width:0.1;fill:none" />
  <path d="M190.499,123.862 L190.499,121.824" style="stroke:rgb(0,0,0);stroke-width:0.1;fill:none" />
  <path d="M190.499,117.824 L190.499,114.824" style="stroke:rgb(0,0,0);stroke-width:0.1;fill:none" />
  <path d="M190.999,121.324 A0.5,0.5 0 0,0 190.499,121.824 " style="stroke:rgb(0,0,0);stroke-width:0.1;fill:none" />
  <path d="M190.499,117.824 A0.5,0.5 0 0,0 190.999,118.324 " style="stroke:rgb(0,0,0);stroke-width:0.1;fill:none" />
  <path d="M190.999,29.3999 A0.5,0.5 0 0,0 190.499,29.8999 " style="stroke:rgb(0,0,0);stroke-width:0.1;fill:none" />
  <path d="M190.499,25.8999 A0.5,0.5 0 0,0 190.999,26.3999 " style="stroke:rgb(0,0,0);stroke-width:0.1;fill:none" />
  <path d="M185.499,114.324 L185.499,95.3237" style="stroke:rgb(0,0,0);stroke-width:0.1;fill:none" />
  <path d="M195.102,121.324 L195.102,118.324" style="stroke:rgb(0,0,0);stroke-width:0.1;fill:none" />
  <path d="M191.932,122.684 L194.102,122.684" style="stroke:rgb(0,0,0);stroke-width:0.1;fill:none" />
  <path d="M194.102,116.964 L191.932,116.964" style="stroke:rgb(0,0,0);stroke-width:0.1;fill:none" />
  <path d="M191.932,121.324 L191.932,122.684" style="stroke:rgb(0,0,0);stroke-width:0.1;fill:none" />
  <path d="M191.932,116.964 L191.932,118.324" style="stroke:rgb(0,0,0);stroke-width:0.1;fill:none" />
  <path d="M195.102,118.324 L194.102,118.324" style="stroke:rgb(0,0,0);stroke-width:0.1;fill:none" />
  <path d="M194.102,118.324 L194.102,116.964" style="stroke:rgb(0,0,0);stroke-width:0.1;fill:none" />
  <path d="M194.102,122.684 L194.102,121.324" style="stroke:rgb(0,0,0);stroke-width:0.1;fill:none" />
  <path d="M194.102,121.324 L195.102,121.324" style="stroke:rgb(0,0,0);stroke-width:0.1;fill:none" />
  <path d="M195.102,29.3999 L195.102,26.3999" style="stroke:rgb(0,0,0);stroke-width:0.1;fill:none" />
  <path d="M191.932,30.7599 L194.102,30.7599" style="stroke:rgb(0,0,0);stroke-width:0.1;fill:none" />
  <path d="M194.102,25.0399 L191.932,25.0399" style="stroke:rgb(0,0,0);stroke-width:0.1;fill:none" />
  <path d="M191.932,29.3999 L191.932,30.7599" style="stroke:rgb(0,0,0);stroke-width:0.1;fill:none" />
  <path d="M191.932,25.0399 L191.932,26.3999" style="stroke:rgb(0,0,0);stroke-width:0.1;fill:none" />
  <path d="M195.102,26.3999 L194.102,26.3999" style="stroke:rgb(0,0,0);stroke-width:0.1;fill:none" />
  <path d="M194.102,26.3999 L194.102,25.0399" style="stroke:rgb(0,0,0);stroke-width:0.1;fill:none" />
  <path d="M194.102,30.7599 L194.102,29.3999" style="stroke:rgb(0,0,0);stroke-width:0.1;fill:none" />
  <path d="M194.102,29.3999 L195.102,29.3999" style="stroke:rgb(0,0,0);stroke-width:0.1;fill:none" />
  <path d="M190.999,121.324 L191.932,121.324" style="stroke:rgb(0,0,0);stroke-width:0.1;fill:none" />
  <path d="M191.932,118.324 L190.999,118.324" style="stroke:rgb(0,0,0);stroke-width:0.1;fill:none" />
  <path d="M190.999,29.3999 L191.932,29.3999" style="stroke:rgb(0,0,0);stroke-width:0.1;fill:none" />
  <path d="M191.932,26.3999 L190.999,26.3999" style="stroke:rgb(0,0,0);stroke-width:0.1;fill:none" />
  <path d="M190.499,71.8618 L185.999,71.8618" style="stroke:rgb(0,0,0);stroke-width:0.1;fill:none" />
  <path d="M185.999,71.8618 A0.5,0.5 0 0,0 185.499,72.3618 " style="stroke:rgb(0,0,0);stroke-width:0.1;fill:none" />
  <path d="M185.499,72.3618 L185.499,81.3618" style="stroke:rgb(0,0,0);stroke-width:0.1;fill:none" />
  <path d="M190.499,29.8999 L190.499,71.8618" style="stroke:rgb(0,0,0);stroke-width:0.1;fill:none" />
  <path d="M185.999,94.8237 L195.499,94.8237" style="stroke:rgb(0,0,0);stroke-width:0.1;fill:none" />
  <path d="M195.499,94.8237 L195.499,81.8618" style="stroke:rgb(0,0,0);stroke-width:0.1;fill:none" />
  <path d="M185.999,81.8618 L195.499,81.8618" style="stroke:rgb(0,0,0);stroke-width:0.1;fill:none" />
  <path d="M190.499,25.8999 L190.499,23.8618" style="stroke:rgb(0,0,0);stroke-width:0.1;fill:none" />
  <path d="M184,23.8618 L190.5,23.8618" style="stroke:rgb(0,0,0);stroke-width:0.1;fill:none" />
  <path d="M184,13.2618 A1,1 0 0,0 183,14.2618 " style="stroke:rgb(0,0,0);stroke-width:0.1;fill:none" />
  <path d="M184,13.2618 L200.749,7.86183" style="stroke:rgb(0,0,0);stroke-width:0.1;fill:none" />
  <path d="M183.999,123.862 A1,1 0 0,0 182.999,124.862 " style="stroke:rgb(0,0,0);stroke-width:0.1;fill:none" />
  <path d="M183.999,123.862 L190.499,123.862" style="stroke:rgb(0,0,0);stroke-width:0.1;fill:none" />
  <path d="M182.999,133.462 A1,1 0 0,0 183.999,134.462 " style="stroke:rgb(0,0,0);stroke-width:0.1;fill:none" />
  <ellipse cx="202.299" cy="125.863" rx="3.5" ry="3.5" style="stroke:rgb(0,0,0);stroke-width:0.1;fill:none;"/>
  <path d="M210.874,15.8618 A8,8 0 0,0 202.874,7.86183 " style="stroke:rgb(0,0,0);stroke-width:0.1;fill:none" />
  <path d="M202.872,139.862 A8,8 0 0,0 210.872,131.862 " style="stroke:rgb(0,0,0);stroke-width:0.1;fill:none" />
  <path d="M200.747,139.862 L202.872,139.862" style="stroke:rgb(0,0,0);stroke-width:0.1;fill:none" />
  <path d="M200.749,7.86183 L202.874,7.86183" style="stroke:rgb(0,0,0);stroke-width:0.1;fill:none" />
  <path d="M190.003,129.162 A2.156,2.156 0 0,0 186.361,127.6 " style="stroke:rgb(0,0,0);stroke-width:0.1;fill:none" />
  <path d="M186.361,130.724 A2.156,2.156 0 0,0 190.003,129.162 " style="stroke:rgb(0,0,0);stroke-width:0.1;fill:none" />
  <path d="M183.999,130.724 A1,1 0 0,0 182.999,131.724 " style="stroke:rgb(0,0,0);stroke-width:0.1;fill:none" />
  <path d="M182.999,133.462 L182.999,131.724" style="stroke:rgb(0,0,0);stroke-width:0.1;fill:none" />
  <path d="M182.999,126.6 A1,1 0 0,0 183.999,127.6 " style="stroke:rgb(0,0,0);stroke-width:0.1;fill:none" />
  <path d="M182.999,124.862 L182.999,126.6" style="stroke:rgb(0,0,0);stroke-width:0.1;fill:none" />
  <path d="M183.999,127.6 L186.361,127.6" style="stroke:rgb(0,0,0);stroke-width:0.1;fill:none" />
  <path d="M183.999,130.724 L186.361,130.724" style="stroke:rgb(0,0,0);stroke-width:0.1;fill:none" />
  <ellipse cx="196.749" cy="132.862" rx="1" ry="1" style="stroke:rgb(0,0,0);stroke-width:0.1;fill:none;"/>
  <path d="M189.789,130.106 L195.819,132.494" style="stroke:rgb(0,0,0);stroke-width:0.1;fill:none" />
  <path d="M207.524,25.6881 L207.524,25.6881" style="stroke:rgb(0,0,0);stroke-width:0.1;fill:none" />
  <path d="M204.024,22.6881 L204.024,22.6881" style="stroke:rgb(0,0,0);stroke-width:0.1;fill:none" />
  <path d="M204.024,22.6881 L204.024,22.6881" style="stroke:rgb(0,0,0);stroke-width:0.1;fill:none" />
  <path d="M207.524,18.8618 L204.024,18.8618" style="stroke:rgb(0,0,0);stroke-width:0.1;fill:none" />
  <path d="M204.024,25.8618 L207.524,25.8618" style="stroke:rgb(0,0,0);stroke-width:0.1;fill:none" />
  <path d="M207.524,25.8618 L207.524,18.8618" style="stroke:rgb(0,0,0);stroke-width:0.1;fill:none" />
  <ellipse cx="202.524" cy="22.3618" rx="1.5" ry="1.5" style="stroke:rgb(0,0,0);stroke-width:0.1;fill:none;"/>
  <path d="M204.024,18.8618 L204.024,22.3618" style="stroke:rgb(0,0,0);stroke-width:0.1;fill:none" />
  <path d="M204.024,22.3618 L204.024,25.8618" style="stroke:rgb(0,0,0);stroke-width:0.1;fill:none" />
  <path d="M186.362,20.1237 A2.156,2.156 0 0,0 190.005,18.5618 " style="stroke:rgb(0,0,0);stroke-width:0.1;fill:none" />
  <path d="M190.005,18.5618 A2.156,2.156 0 0,0 186.362,17 " style="stroke:rgb(0,0,0);stroke-width:0.1;fill:none" />
  <path d="M183,16 A1,1 0 0,0 184,17 " style="stroke:rgb(0,0,0);stroke-width:0.1;fill:none" />
  <path d="M183,14.2618 L183,16" style="stroke:rgb(0,0,0);stroke-width:0.1;fill:none" />
  <path d="M184,20.1237 A1,1 0 0,0 183,21.1237 " style="stroke:rgb(0,0,0);stroke-width:0.1;fill:none" />
  <path d="M183,22.8618 L183,21.1237" style="stroke:rgb(0,0,0);stroke-width:0.1;fill:none" />
  <path d="M184,20.1237 L186.362,20.1237" style="stroke:rgb(0,0,0);stroke-width:0.1;fill:none" />
  <path d="M184,17 L186.362,17" style="stroke:rgb(0,0,0);stroke-width:0.1;fill:none" />
  <ellipse cx="196.75" cy="14.8618" rx="1" ry="1" style="stroke:rgb(0,0,0);stroke-width:0.1;fill:none;"/>
  <path d="M189.791,17.6182 L195.82,15.2301" style="stroke:rgb(0,0,0);stroke-width:0.1;fill:none" />
  <path d="M183,22.8618 A1,1 0 0,0 184,23.8618 " style="stroke:rgb(0,0,0);stroke-width:0.1;fill:none" />
  <path d="M205.874,105.862 L210.874,105.862" style="stroke:rgb(0,0,0);stroke-width:0.1;fill:none" />
  <path d="M205.874,105.862 L205.874,100.862" style="stroke:rgb(0,0,0);stroke-width:0.1;fill:none" />
  <path d="M205.874,80.8618 L205.874,66.8618" style="stroke:rgb(0,0,0);stroke-width:0.1;fill:none" />
  <path d="M205.874,41.8618 L210.874,41.8618" style="stroke:rgb(0,0,0);stroke-width:0.1;fill:none" />
  <path d="M205.874,46.8618 L205.874,41.8618" style="stroke:rgb(0,0,0);stroke-width:0.1;fill:none" />
  <path d="M210.874,41.8618 L210.874,15.8618" style="stroke:rgb(0,0,0);stroke-width:0.1;fill:none" />
  <path d="M210.872,131.862 L210.874,105.862" style="stroke:rgb(0,0,0);stroke-width:0.1;fill:none" />
  <path d="M198.77,92.3618 L198.77,89.3618" style="stroke:rgb(0,0,0);stroke-width:0.1;fill:none" />
  <path d="M201.94,93.7218 L199.77,93.7218" style="stroke:rgb(0,0,0);stroke-width:0.1;fill:none" />
  <path d="M199.77,88.0018 L201.94,88.0018" style="stroke:rgb(0,0,0);stroke-width:0.1;fill:none" />
  <path d="M201.94,92.3618 L201.94,93.7218" style="stroke:rgb(0,0,0);stroke-width:0.1;fill:none" />
  <path d="M201.94,88.0018 L201.94,89.3618" style="stroke:rgb(0,0,0);stroke-width:0.1;fill:none" />
  <path d="M198.77,89.3618 L199.77,89.3618" style="stroke:rgb(0,0,0);stroke-width:0.1;fill:none" />
  <path d="M199.77,89.3618 L199.77,88.0018" style="stroke:rgb(0,0,0);stroke-width:0.1;fill:none" />
  <path d="M199.77,93.7218 L199.77,92.3618" style="stroke:rgb(0,0,0);stroke-width:0.1;fill:none" />
  <path d="M199.77,92.3618 L198.77,92.3618" style="stroke:rgb(0,0,0);stroke-width:0.1;fill:none" />
  <path d="M205.374,92.3618 L201.94,92.3618" style="stroke:rgb(0,0,0);stroke-width:0.1;fill:none" />
  <path d="M201.94,89.3618 L205.374,89.3618" style="stroke:rgb(0,0,0);stroke-width:0.1;fill:none" />
  <path d="M210.374,100.862 L205.874,100.862" style="stroke:rgb(0,0,0);stroke-width:0.1;fill:none" />
  <path d="M210.374,100.862 A0.5,0.5 0 0,0 210.874,100.362 " style="stroke:rgb(0,0,0);stroke-width:0.1;fill:none" />
  <path d="M210.874,96.3618 L210.874,100.362" style="stroke:rgb(0,0,0);stroke-width:0.1;fill:none" />
  <path d="M205.874,95.8618 L210.374,95.8618" style="stroke:rgb(0,0,0);stroke-width:0.1;fill:none" />
  <path d="M210.874,96.3618 A0.5,0.5 0 0,0 210.374,95.8618 " style="stroke:rgb(0,0,0);stroke-width:0.1;fill:none" />
  <path d="M205.874,92.8618 L205.874,95.8618" style="stroke:rgb(0,0,0);stroke-width:0.1;fill:none" />
  <path d="M205.874,92.8618 A0.5,0.5 0 0,0 205.374,92.3618 " style="stroke:rgb(0,0,0);stroke-width:0.1;fill:none" />
  <path d="M205.874,88.8618 L205.874,85.8618" style="stroke:rgb(0,0,0);stroke-width:0.1;fill:none" />
  <path d="M205.374,89.3618 A0.5,0.5 0 0,0 205.874,88.8618 " style="stroke:rgb(0,0,0);stroke-width:0.1;fill:none" />
  <path d="M205.874,85.8618 L210.374,85.8618" style="stroke:rgb(0,0,0);stroke-width:0.1;fill:none" />
  <path d="M210.374,85.8618 A0.5,0.5 0 0,0 210.874,85.3618 " style="stroke:rgb(0,0,0);stroke-width:0.1;fill:none" />
  <path d="M210.874,85.3618 L210.874,81.3618" style="stroke:rgb(0,0,0);stroke-width:0.1;fill:none" />
  <path d="M210.374,80.8618 L205.874,80.8618" style="stroke:rgb(0,0,0);stroke-width:0.1;fill:none" />
  <path d="M210.874,81.3618 A0.5,0.5 0 0,0 210.374,80.8618 " style="stroke:rgb(0,0,0);stroke-width:0.1;fill:none" />
  <path d="M198.77,58.3618 L198.77,55.3618" style="stroke:rgb(0,0,0);stroke-width:0.1;fill:none" />
  <path d="M201.94,59.7218 L199.77,59.7218" style="stroke:rgb(0,0,0);stroke-width:0.1;fill:none" />
  <path d="M199.77,54.0018 L201.94,54.0018" style="stroke:rgb(0,0,0);stroke-width:0.1;fill:none" />
  <path d="M201.94,58.3618 L201.94,59.7218" style="stroke:rgb(0,0,0);stroke-width:0.1;fill:none" />
  <path d="M201.94,54.0018 L201.94,55.3618" style="stroke:rgb(0,0,0);stroke-width:0.1;fill:none" />
  <path d="M198.77,55.3618 L199.77,55.3618" style="stroke:rgb(0,0,0);stroke-width:0.1;fill:none" />
  <path d="M199.77,55.3618 L199.77,54.0018" style="stroke:rgb(0,0,0);stroke-width:0.1;fill:none" />
  <path d="M199.77,59.7218 L199.77,58.3618" style="stroke:rgb(0,0,0);stroke-width:0.1;fill:none" />
  <path d="M199.77,58.3618 L198.77,58.3618" style="stroke:rgb(0,0,0);stroke-width:0.1;fill:none" />
  <path d="M205.374,58.3618 L201.94,58.3618" style="stroke:rgb(0,0,0);stroke-width:0.1;fill:none" />
  <path d="M201.94,55.3618 L205.374,55.3618" style="stroke:rgb(0,0,0);stroke-width:0.1;fill:none" />
  <path d="M205.874,58.8618 L205.874,61.8618" style="stroke:rgb(0,0,0);stroke-width:0.1;fill:none" />
  <path d="M205.874,58.8618 A0.5,0.5 0 0,0 205.374,58.3618 " style="stroke:rgb(0,0,0);stroke-width:0.1;fill:none" />
  <path d="M205.874,54.8618 L205.874,51.8618" style="stroke:rgb(0,0,0);stroke-width:0.1;fill:none" />
  <path d="M205.374,55.3618 A0.5,0.5 0 0,0 205.874,54.8618 " style="stroke:rgb(0,0,0);stroke-width:0.1;fill:none" />
  <path d="M210.374,66.8618 L205.874,66.8618" style="stroke:rgb(0,0,0);stroke-width:0.1;fill:none" />
  <path d="M210.374,66.8618 A0.5,0.5 0 0,0 210.874,66.3618 " style="stroke:rgb(0,0,0);stroke-width:0.1;fill:none" />
  <path d="M210.874,62.3618 L210.874,66.3618" style="stroke:rgb(0,0,0);stroke-width:0.1;fill:none" />
  <path d="M205.874,61.8618 L210.374,61.8618" style="stroke:rgb(0,0,0);stroke-width:0.1;fill:none" />
  <path d="M210.874,62.3618 A0.5,0.5 0 0,0 210.374,61.8618 " style="stroke:rgb(0,0,0);stroke-width:0.1;fill:none" />
  <path d="M205.874,58.8618 L205.874,61.8618" style="stroke:rgb(0,0,0);stroke-width:0.1;fill:none" />
  <path d="M205.874,58.8618 A0.5,0.5 0 0,0 205.374,58.3618 " style="stroke:rgb(0,0,0);stroke-width:0.1;fill:none" />
  <path d="M205.874,54.8618 L205.874,51.8618" style="stroke:rgb(0,0,0);stroke-width:0.1;fill:none" />
  <path d="M205.374,55.3618 A0.5,0.5 0 0,0 205.874,54.8618 " style="stroke:rgb(0,0,0);stroke-width:0.1;fill:none" />
  <path d="M205.874,51.8618 L210.374,51.8618" style="stroke:rgb(0,0,0);stroke-width:0.1;fill:none" />
  <path d="M210.374,51.8618 A0.5,0.5 0 0,0 210.874,51.3618 " style="stroke:rgb(0,0,0);stroke-width:0.1;fill:none" />
  <path d="M210.874,51.3618 L210.874,47.3618" style="stroke:rgb(0,0,0);stroke-width:0.1;fill:none" />
  <path d="M210.374,46.8618 L205.874,46.8618" style="stroke:rgb(0,0,0);stroke-width:0.1;fill:none" />
  <path d="M210.874,47.3618 A0.5,0.5 0 0,0 210.374,46.8618 " style="stroke:rgb(0,0,0);stroke-width:0.1;fill:none" />
  <ellipse cx="202.299" cy="131.363" rx="1.2" ry="1.2" style="stroke:rgb(0,0,0);stroke-width:0.1;fill:none;"/>
  <ellipse cx="202.299" cy="120.363" rx="1.2" ry="1.2" style="stroke:rgb(0,0,0);stroke-width:0.1;fill:none;"/>
  <path d="M189.872,136.356 A1.5,1.5 0 1,0 187.256,135.512 " style="stroke:rgb(0,0,0);stroke-width:0.1;fill:none" />
  <path d="M189.872,136.356 L200.747,139.862" style="stroke:rgb(0,0,0);stroke-width:0.1;fill:none" />
  <path d="M183.999,134.462 L187.256,135.512" style="stroke:rgb(0,0,0);stroke-width:0.1;fill:none" />
  <path d="M163.962,118 A2,2 0 0,0 161.962,116 " style="stroke:rgb(0,0,0);stroke-width:0.1;fill:none" />
  <path d="M163.962,118 L163.962,129.602" style="stroke:rgb(0,0,0);stroke-width:0.1;fill:none" />
  <path d="M153,116 A2,2 0 0,0 151,118 " style="stroke:rgb(0,0,0);stroke-width:0.1;fill:none" />
  <path d="M151,129.602 L151,118" style="stroke:rgb(0,0,0);stroke-width:0.1;fill:none" />
  <path d="M151,129.602 L163.962,129.602" style="stroke:rgb(0,0,0);stroke-width:0.1;fill:none" />
  <path d="M153,116 L161.962,116" style="stroke:rgb(0,0,0);stroke-width:0.1;fill:none" />
  <ellipse cx="157.481" cy="119.462" rx="1.56" ry="1.56" style="stroke:rgb(0,0,0);stroke-width:0.1;fill:none;"/>
</svg>
