<?xml version="1.0" standalone="yes"?>

<svg width="303mm" height="279mm" viewBox="0 0 303 279" version="1.1"
xmlns="http://www.w3.org/2000/svg" style="stroke-linecap:round">
  <ellipse cx="51.0035" cy="63.5638" rx="2.75032" ry="2.75032" style="stroke:rgb(0,0,0);stroke-width:0.1;fill:none;"/>
  <ellipse cx="30.9011" cy="50.5623" rx="2.75032" ry="2.75032" style="stroke:rgb(0,0,0);stroke-width:0.1;fill:none;"/>
  <ellipse cx="71.1058" cy="50.5623" rx="2.75032" ry="2.75032" style="stroke:rgb(0,0,0);stroke-width:0.1;fill:none;"/>
  <path d="M57.7742,81.1958 L55.0339,81.1958" style="stroke:rgb(0,0,0);stroke-width:0.1;fill:none" />
  <path d="M57.7742,83.9361 L57.7742,81.1958" style="stroke:rgb(0,0,0);stroke-width:0.1;fill:none" />
  <path d="M55.0339,81.1958 L55.0339,83.9361" style="stroke:rgb(0,0,0);stroke-width:0.1;fill:none" />
  <path d="M55.0339,83.9361 L57.7742,83.9361" style="stroke:rgb(0,0,0);stroke-width:0.1;fill:none" />
  <path d="M46.973,81.1958 L44.2327,81.1958" style="stroke:rgb(0,0,0);stroke-width:0.1;fill:none" />
  <path d="M46.973,83.9361 L46.973,81.1958" style="stroke:rgb(0,0,0);stroke-width:0.1;fill:none" />
  <path d="M44.2327,81.1958 L44.2327,83.9361" style="stroke:rgb(0,0,0);stroke-width:0.1;fill:none" />
  <path d="M44.2327,83.9361 L46.973,83.9361" style="stroke:rgb(0,0,0);stroke-width:0.1;fill:none" />
  <path d="M52.3736,49.1921 L49.6333,49.1921" style="stroke:rgb(0,0,0);stroke-width:0.1;fill:none" />
  <path d="M52.3736,51.9324 L52.3736,49.1921" style="stroke:rgb(0,0,0);stroke-width:0.1;fill:none" />
  <path d="M49.6333,49.1921 L49.6333,51.9324" style="stroke:rgb(0,0,0);stroke-width:0.1;fill:none" />
  <path d="M49.6333,51.9324 L52.3736,51.9324" style="stroke:rgb(0,0,0);stroke-width:0.1;fill:none" />
  <path d="M57.7742,35.1905 L55.0339,35.1905" style="stroke:rgb(0,0,0);stroke-width:0.1;fill:none" />
  <path d="M57.7742,37.9308 L57.7742,35.1905" style="stroke:rgb(0,0,0);stroke-width:0.1;fill:none" />
  <path d="M55.0339,35.1905 L55.0339,37.9308" style="stroke:rgb(0,0,0);stroke-width:0.1;fill:none" />
  <path d="M55.0339,37.9308 L57.7742,37.9308" style="stroke:rgb(0,0,0);stroke-width:0.1;fill:none" />
  <path d="M46.973,35.1905 L44.2327,35.1905" style="stroke:rgb(0,0,0);stroke-width:0.1;fill:none" />
  <path d="M46.973,37.9308 L46.973,35.1905" style="stroke:rgb(0,0,0);stroke-width:0.1;fill:none" />
  <path d="M44.2327,35.1905 L44.2327,37.9308" style="stroke:rgb(0,0,0);stroke-width:0.1;fill:none" />
  <path d="M44.2327,37.9308 L46.973,37.9308" style="stroke:rgb(0,0,0);stroke-width:0.1;fill:none" />
  <ellipse cx="34.0015" cy="13.558" rx="1.50017" ry="1.50017" style="stroke:rgb(0,0,0);stroke-width:0.25;fill:none;"/>
  <path d="M39.0021,11.0577 L44.0027,11.0577" style="stroke:rgb(0,0,0);stroke-width:0.25;fill:none" />
  <path d="M39.0021,16.0583 L44.0027,16.0583" style="stroke:rgb(0,0,0);stroke-width:0.25;fill:none" />
  <path d="M29.0009,11.0577 L24.0003,11.0577" style="stroke:rgb(0,0,0);stroke-width:0.25;fill:none" />
  <path d="M29.0009,16.0583 L24.0003,16.0583" style="stroke:rgb(0,0,0);stroke-width:0.25;fill:none" />
  <path d="M24.0003,11.0577 L24.0003,16.0583" style="stroke:rgb(0,0,0);stroke-width:0.25;fill:none" />
  <path d="M29.0009,11.0577 L29.0009,16.0583" style="stroke:rgb(0,0,0);stroke-width:0.25;fill:none" />
  <path d="M39.0021,11.0577 L39.0021,16.0583" style="stroke:rgb(0,0,0);stroke-width:0.25;fill:none" />
  <path d="M44.0027,11.0577 L44.0027,16.0583" style="stroke:rgb(0,0,0);stroke-width:0.25;fill:none" />
  <ellipse cx="66.0452" cy="50.5223" rx="2.70031" ry="2.70031" style="stroke:rgb(0,0,0);stroke-width:0.1;fill:none;"/>
  <ellipse cx="51.0435" cy="65.524" rx="2.70031" ry="2.70031" style="stroke:rgb(0,0,0);stroke-width:0.1;fill:none;"/>
  <ellipse cx="36.0417" cy="50.5223" rx="2.70031" ry="2.70031" style="stroke:rgb(0,0,0);stroke-width:0.1;fill:none;"/>
  <ellipse cx="34.0015" cy="105.492" rx="1.50017" ry="1.50017" style="stroke:rgb(0,0,0);stroke-width:0.25;fill:none;"/>
  <path d="M39.0021,102.992 L44.0027,102.992" style="stroke:rgb(0,0,0);stroke-width:0.25;fill:none" />
  <path d="M39.0021,107.993 L44.0027,107.993" style="stroke:rgb(0,0,0);stroke-width:0.25;fill:none" />
  <path d="M29.0009,102.992 L24.0003,102.992" style="stroke:rgb(0,0,0);stroke-width:0.25;fill:none" />
  <path d="M29.0009,107.993 L24.0003,107.993" style="stroke:rgb(0,0,0);stroke-width:0.25;fill:none" />
  <path d="M24.0003,102.992 L24.0003,107.993" style="stroke:rgb(0,0,0);stroke-width:0.25;fill:none" />
  <path d="M29.0009,102.992 L29.0009,107.993" style="stroke:rgb(0,0,0);stroke-width:0.25;fill:none" />
  <path d="M39.0021,102.992 L39.0021,107.993" style="stroke:rgb(0,0,0);stroke-width:0.25;fill:none" />
  <path d="M44.0027,102.992 L44.0027,107.993" style="stroke:rgb(0,0,0);stroke-width:0.25;fill:none" />
  <ellipse cx="68.0054" cy="13.558" rx="1.50017" ry="1.50017" style="stroke:rgb(0,0,0);stroke-width:0.25;fill:none;"/>
  <path d="M73.006,11.0577 L78.0066,11.0577" style="stroke:rgb(0,0,0);stroke-width:0.25;fill:none" />
  <path d="M73.006,16.0583 L78.0066,16.0583" style="stroke:rgb(0,0,0);stroke-width:0.25;fill:none" />
  <path d="M63.0048,11.0577 L58.0043,11.0577" style="stroke:rgb(0,0,0);stroke-width:0.25;fill:none" />
  <path d="M63.0048,16.0583 L58.0043,16.0583" style="stroke:rgb(0,0,0);stroke-width:0.25;fill:none" />
  <path d="M58.0043,11.0577 L58.0043,16.0583" style="stroke:rgb(0,0,0);stroke-width:0.25;fill:none" />
  <path d="M63.0048,11.0577 L63.0048,16.0583" style="stroke:rgb(0,0,0);stroke-width:0.25;fill:none" />
  <path d="M73.006,11.0577 L73.006,16.0583" style="stroke:rgb(0,0,0);stroke-width:0.25;fill:none" />
  <path d="M78.0066,11.0577 L78.0066,16.0583" style="stroke:rgb(0,0,0);stroke-width:0.25;fill:none" />
  <ellipse cx="68.0054" cy="105.492" rx="1.50017" ry="1.50017" style="stroke:rgb(0,0,0);stroke-width:0.25;fill:none;"/>
  <path d="M73.006,102.992 L78.0066,102.992" style="stroke:rgb(0,0,0);stroke-width:0.25;fill:none" />
  <path d="M73.006,107.993 L78.0066,107.993" style="stroke:rgb(0,0,0);stroke-width:0.25;fill:none" />
  <path d="M63.0048,102.992 L58.0043,102.992" style="stroke:rgb(0,0,0);stroke-width:0.25;fill:none" />
  <path d="M63.0048,107.993 L58.0043,107.993" style="stroke:rgb(0,0,0);stroke-width:0.25;fill:none" />
  <path d="M58.0043,102.992 L58.0043,107.993" style="stroke:rgb(0,0,0);stroke-width:0.25;fill:none" />
  <path d="M63.0048,102.992 L63.0048,107.993" style="stroke:rgb(0,0,0);stroke-width:0.25;fill:none" />
  <path d="M73.006,102.992 L73.006,107.993" style="stroke:rgb(0,0,0);stroke-width:0.25;fill:none" />
  <path d="M78.0066,102.992 L78.0066,107.993" style="stroke:rgb(0,0,0);stroke-width:0.25;fill:none" />
  <path d="M83.0071,109.531 L18.9998,109.531" style="stroke:rgb(0,0,0);stroke-width:0.1;fill:none" />
  <path d="M18.9998,109.531 L18.9998,9.51964" style="stroke:rgb(0,0,0);stroke-width:0.1;fill:none" />
  <path d="M83.0071,9.51964 L83.0071,109.531" style="stroke:rgb(0,0,0);stroke-width:0.1;fill:none" />
  <path d="M43.0025,9.51964 L83.0071,9.51964" style="stroke:rgb(0,0,0);stroke-width:0.1;fill:none" />
  <path d="M43.0025,4.45525 A2.00023,2.00023 0 0,0 41.0023,2.45502 " style="stroke:rgb(0,0,0);stroke-width:0.1;fill:none" />
  <path d="M43.0025,4.45525 L43.0025,9.51964" style="stroke:rgb(0,0,0);stroke-width:0.1;fill:none" />
  <path d="M32.0394,2.45502 A2.00023,2.00023 0 0,0 30.0391,4.45525 " style="stroke:rgb(0,0,0);stroke-width:0.1;fill:none" />
  <path d="M30.0391,9.51964 L30.0391,4.45525" style="stroke:rgb(0,0,0);stroke-width:0.1;fill:none" />
  <path d="M18.9998,9.51964 L30.0391,9.51964" style="stroke:rgb(0,0,0);stroke-width:0.1;fill:none" />
  <path d="M32.0394,2.45502 L41.0023,2.45502" style="stroke:rgb(0,0,0);stroke-width:0.1;fill:none" />
  <ellipse cx="36.5208" cy="5.91732" rx="1.56018" ry="1.56018" style="stroke:rgb(0,0,0);stroke-width:0.1;fill:none;"/>
  <ellipse cx="36.5208" cy="5.91732" rx="1.56018" ry="1.56018" style="stroke:rgb(0,0,0);stroke-width:0.1;fill:none;"/>
  <path d="M301.243,278.519 L55.2142,278.519" style="stroke:rgb(0,0,0);stroke-width:0.1;fill:none" />
  <path d="M6.78813,193.509 A6.00069,6.00069 0 0,0 1.88575,202.97 " style="stroke:rgb(0,0,0);stroke-width:0.1;fill:none" />
  <path d="M1.88575,202.97 L55.2142,278.519" style="stroke:rgb(0,0,0);stroke-width:0.1;fill:none" />
  <path d="M252.816,193.509 A6.00069,6.00069 0 0,0 247.914,202.97 " style="stroke:rgb(0,0,0);stroke-width:0.1;fill:none" />
  <path d="M6.78813,193.509 L252.816,193.509" style="stroke:rgb(0,0,0);stroke-width:0.1;fill:none" />
  <path d="M301.243,278.519 L247.914,202.97" style="stroke:rgb(0,0,0);stroke-width:0.1;fill:none" />
  <ellipse cx="87.0457" cy="13.5582" rx="1.50017" ry="1.50017" style="stroke:rgb(0,0,0);stroke-width:0.1;fill:none;"/>
  <path d="M92.0463,11.0579 L92.0463,16.0585" style="stroke:rgb(0,0,0);stroke-width:0.1;fill:none" />
  <ellipse cx="178.98" cy="13.5582" rx="1.50017" ry="1.50017" style="stroke:rgb(0,0,0);stroke-width:0.1;fill:none;"/>
  <ellipse cx="87.0457" cy="105.493" rx="1.50017" ry="1.50017" style="stroke:rgb(0,0,0);stroke-width:0.1;fill:none;"/>
  <ellipse cx="178.98" cy="105.493" rx="1.50017" ry="1.50017" style="stroke:rgb(0,0,0);stroke-width:0.1;fill:none;"/>
  <path d="M112.049,11.0579 L92.0463,11.0579" style="stroke:rgb(0,0,0);stroke-width:0.1;fill:none" />
  <path d="M112.049,11.0579 L112.049,16.0585" style="stroke:rgb(0,0,0);stroke-width:0.1;fill:none" />
  <path d="M92.0463,16.0585 L112.049,16.0585" style="stroke:rgb(0,0,0);stroke-width:0.1;fill:none" />
  <path d="M92.0463,102.992 L92.0463,107.993" style="stroke:rgb(0,0,0);stroke-width:0.1;fill:none" />
  <path d="M112.049,102.992 L92.0463,102.992" style="stroke:rgb(0,0,0);stroke-width:0.1;fill:none" />
  <path d="M112.049,102.992 L112.049,107.993" style="stroke:rgb(0,0,0);stroke-width:0.1;fill:none" />
  <path d="M92.0463,107.993 L112.049,107.993" style="stroke:rgb(0,0,0);stroke-width:0.1;fill:none" />
  <path d="M183.019,109.531 L83.0071,109.531" style="stroke:rgb(0,0,0);stroke-width:0.1;fill:none" />
  <path d="M183.019,9.51964 L183.019,109.531" style="stroke:rgb(0,0,0);stroke-width:0.1;fill:none" />
  <path d="M125.012,11.0579 L125.012,16.0585" style="stroke:rgb(0,0,0);stroke-width:0.1;fill:none" />
  <path d="M125.012,102.992 L125.012,107.993" style="stroke:rgb(0,0,0);stroke-width:0.1;fill:none" />
  <ellipse cx="133.013" cy="63.564" rx="1.50017" ry="1.50017" style="stroke:rgb(0,0,0);stroke-width:0.1;fill:none;"/>
  <path d="M174.018,9.51964 L174.018,18.5207" style="stroke:rgb(0,0,0);stroke-width:0.1;fill:none" />
  <path d="M174.018,18.5207 L145.014,18.5207" style="stroke:rgb(0,0,0);stroke-width:0.1;fill:none" />
  <path d="M145.014,18.5207 L145.014,9.51964" style="stroke:rgb(0,0,0);stroke-width:0.1;fill:none" />
  <path d="M174.018,9.51964 L183.019,9.51964" style="stroke:rgb(0,0,0);stroke-width:0.1;fill:none" />
  <path d="M125.012,9.51964 L145.014,9.51964" style="stroke:rgb(0,0,0);stroke-width:0.1;fill:none" />
  <path d="M135.013,11.0579 L135.013,16.0585" style="stroke:rgb(0,0,0);stroke-width:0.1;fill:none" />
  <path d="M135.013,102.992 L135.013,107.993" style="stroke:rgb(0,0,0);stroke-width:0.1;fill:none" />
  <path d="M125.012,16.0585 L135.013,16.0585" style="stroke:rgb(0,0,0);stroke-width:0.1;fill:none" />
  <path d="M135.013,11.0579 L125.012,11.0579" style="stroke:rgb(0,0,0);stroke-width:0.1;fill:none" />
  <path d="M135.013,102.992 L125.012,102.992" style="stroke:rgb(0,0,0);stroke-width:0.1;fill:none" />
  <path d="M125.012,107.993 L135.013,107.993" style="stroke:rgb(0,0,0);stroke-width:0.1;fill:none" />
  <path d="M125.012,4.45525 A2.00023,2.00023 0 0,0 123.012,2.45502 " style="stroke:rgb(0,0,0);stroke-width:0.1;fill:none" />
  <path d="M125.012,4.45525 L125.012,9.51964" style="stroke:rgb(0,0,0);stroke-width:0.1;fill:none" />
  <path d="M114.049,2.45502 A2.00023,2.00023 0 0,0 112.049,4.45525 " style="stroke:rgb(0,0,0);stroke-width:0.1;fill:none" />
  <path d="M112.049,9.51964 L112.049,4.45525" style="stroke:rgb(0,0,0);stroke-width:0.1;fill:none" />
  <path d="M114.049,2.45502 L123.012,2.45502" style="stroke:rgb(0,0,0);stroke-width:0.1;fill:none" />
  <path d="M83.0071,9.51964 L112.049,9.51964" style="stroke:rgb(0,0,0);stroke-width:0.1;fill:none" />
  <ellipse cx="118.53" cy="5.91732" rx="2.40028" ry="2.40028" style="stroke:rgb(0,0,0);stroke-width:0.1;fill:none;"/>
  <path d="M209.895,17.3824 A1.00012,1.00012 0 0,0 210.896,16.3823 " style="stroke:rgb(0,0,0);stroke-width:0.1;fill:none" />
  <ellipse cx="191.593" cy="15.381" rx="3.5004" ry="3.5004" style="stroke:rgb(0,0,0);stroke-width:0.1;fill:none;"/>
  <path d="M207.533,10.5198 A2.15625,2.15625 0 0,0 203.89,12.0818 " style="stroke:rgb(0,0,0);stroke-width:0.1;fill:none" />
  <path d="M209.895,10.5198 A1.00012,1.00012 0 0,0 210.896,9.51964 " style="stroke:rgb(0,0,0);stroke-width:0.1;fill:none" />
  <path d="M209.895,10.5198 L207.533,10.5198" style="stroke:rgb(0,0,0);stroke-width:0.1;fill:none" />
  <ellipse cx="197.144" cy="8.38134" rx="1.00012" ry="1.00012" style="stroke:rgb(0,0,0);stroke-width:0.1;fill:none;"/>
  <path d="M204.104,11.138 L198.074,8.74961" style="stroke:rgb(0,0,0);stroke-width:0.1;fill:none" />
  <path d="M189.868,118.568 L189.868,118.568" style="stroke:rgb(0,0,0);stroke-width:0.1;fill:none" />
  <path d="M189.868,118.568 L189.868,118.568" style="stroke:rgb(0,0,0);stroke-width:0.1;fill:none" />
  <ellipse cx="191.368" cy="118.894" rx="1.50017" ry="1.50017" style="stroke:rgb(0,0,0);stroke-width:0.1;fill:none;"/>
  <path d="M189.868,122.394 L189.868,118.894" style="stroke:rgb(0,0,0);stroke-width:0.1;fill:none" />
  <path d="M189.868,118.894 L189.868,115.394" style="stroke:rgb(0,0,0);stroke-width:0.1;fill:none" />
  <path d="M203.889,122.695 A2.15625,2.15625 0 0,0 207.531,124.257 " style="stroke:rgb(0,0,0);stroke-width:0.1;fill:none" />
  <path d="M210.894,125.257 A1.00012,1.00012 0 0,0 209.894,124.257 " style="stroke:rgb(0,0,0);stroke-width:0.1;fill:none" />
  <path d="M209.894,124.257 L207.531,124.257" style="stroke:rgb(0,0,0);stroke-width:0.1;fill:none" />
  <ellipse cx="197.143" cy="126.395" rx="1.00012" ry="1.00012" style="stroke:rgb(0,0,0);stroke-width:0.1;fill:none;"/>
  <path d="M204.103,123.638 L198.073,126.027" style="stroke:rgb(0,0,0);stroke-width:0.1;fill:none" />
  <path d="M210.894,118.394 A1.00012,1.00012 0 0,0 209.894,117.394 " style="stroke:rgb(0,0,0);stroke-width:0.1;fill:none" />
  <path d="M188.018,35.3844 L183.017,35.3844" style="stroke:rgb(0,0,0);stroke-width:0.1;fill:none" />
  <path d="M188.018,35.3844 L188.018,40.385" style="stroke:rgb(0,0,0);stroke-width:0.1;fill:none" />
  <path d="M188.018,60.3873 L188.018,74.3889" style="stroke:rgb(0,0,0);stroke-width:0.1;fill:none" />
  <path d="M188.018,99.3918 L183.017,99.3918" style="stroke:rgb(0,0,0);stroke-width:0.1;fill:none" />
  <path d="M188.018,94.3912 L188.018,99.3918" style="stroke:rgb(0,0,0);stroke-width:0.1;fill:none" />
  <path d="M195.122,48.886 L195.122,51.8864" style="stroke:rgb(0,0,0);stroke-width:0.1;fill:none" />
  <path d="M191.952,47.5259 L194.122,47.5259" style="stroke:rgb(0,0,0);stroke-width:0.1;fill:none" />
  <path d="M194.122,53.2465 L191.952,53.2465" style="stroke:rgb(0,0,0);stroke-width:0.1;fill:none" />
  <path d="M191.952,48.886 L191.952,47.5259" style="stroke:rgb(0,0,0);stroke-width:0.1;fill:none" />
  <path d="M191.952,53.2465 L191.952,51.8864" style="stroke:rgb(0,0,0);stroke-width:0.1;fill:none" />
  <path d="M195.122,51.8864 L194.122,51.8864" style="stroke:rgb(0,0,0);stroke-width:0.1;fill:none" />
  <path d="M194.122,51.8864 L194.122,53.2465" style="stroke:rgb(0,0,0);stroke-width:0.1;fill:none" />
  <path d="M194.122,47.5259 L194.122,48.886" style="stroke:rgb(0,0,0);stroke-width:0.1;fill:none" />
  <path d="M194.122,48.886 L195.122,48.886" style="stroke:rgb(0,0,0);stroke-width:0.1;fill:none" />
  <path d="M188.518,48.886 L191.952,48.886" style="stroke:rgb(0,0,0);stroke-width:0.1;fill:none" />
  <path d="M191.952,51.8864 L188.518,51.8864" style="stroke:rgb(0,0,0);stroke-width:0.1;fill:none" />
  <path d="M183.517,40.385 L188.018,40.385" style="stroke:rgb(0,0,0);stroke-width:0.1;fill:none" />
  <path d="M188.018,45.3856 L183.517,45.3856" style="stroke:rgb(0,0,0);stroke-width:0.1;fill:none" />
  <path d="M188.018,48.3859 L188.018,45.3856" style="stroke:rgb(0,0,0);stroke-width:0.1;fill:none" />
  <path d="M188.018,48.3859 A0.500058,0.500058 0 0,0 188.518,48.886 " style="stroke:rgb(0,0,0);stroke-width:0.1;fill:none" />
  <path d="M188.018,52.3864 L188.018,55.3868" style="stroke:rgb(0,0,0);stroke-width:0.1;fill:none" />
  <path d="M188.518,51.8864 A0.500058,0.500058 0 0,0 188.018,52.3864 " style="stroke:rgb(0,0,0);stroke-width:0.1;fill:none" />
  <path d="M188.018,55.3868 L183.517,55.3868" style="stroke:rgb(0,0,0);stroke-width:0.1;fill:none" />
  <path d="M183.517,60.3873 L188.018,60.3873" style="stroke:rgb(0,0,0);stroke-width:0.1;fill:none" />
  <path d="M195.122,82.8899 L195.122,85.8903" style="stroke:rgb(0,0,0);stroke-width:0.1;fill:none" />
  <path d="M191.952,81.5298 L194.122,81.5298" style="stroke:rgb(0,0,0);stroke-width:0.1;fill:none" />
  <path d="M194.122,87.2504 L191.952,87.2504" style="stroke:rgb(0,0,0);stroke-width:0.1;fill:none" />
  <path d="M191.952,82.8899 L191.952,81.5298" style="stroke:rgb(0,0,0);stroke-width:0.1;fill:none" />
  <path d="M191.952,87.2504 L191.952,85.8903" style="stroke:rgb(0,0,0);stroke-width:0.1;fill:none" />
  <path d="M195.122,85.8903 L194.122,85.8903" style="stroke:rgb(0,0,0);stroke-width:0.1;fill:none" />
  <path d="M194.122,85.8903 L194.122,87.2504" style="stroke:rgb(0,0,0);stroke-width:0.1;fill:none" />
  <path d="M194.122,81.5298 L194.122,82.8899" style="stroke:rgb(0,0,0);stroke-width:0.1;fill:none" />
  <path d="M194.122,82.8899 L195.122,82.8899" style="stroke:rgb(0,0,0);stroke-width:0.1;fill:none" />
  <path d="M188.518,82.8899 L191.952,82.8899" style="stroke:rgb(0,0,0);stroke-width:0.1;fill:none" />
  <path d="M191.952,85.8903 L188.518,85.8903" style="stroke:rgb(0,0,0);stroke-width:0.1;fill:none" />
  <path d="M188.018,82.3899 L188.018,79.3895" style="stroke:rgb(0,0,0);stroke-width:0.1;fill:none" />
  <path d="M188.018,82.3899 A0.500058,0.500058 0 0,0 188.518,82.8899 " style="stroke:rgb(0,0,0);stroke-width:0.1;fill:none" />
  <path d="M188.018,86.3903 L188.018,89.3907" style="stroke:rgb(0,0,0);stroke-width:0.1;fill:none" />
  <path d="M188.518,85.8903 A0.500058,0.500058 0 0,0 188.018,86.3903 " style="stroke:rgb(0,0,0);stroke-width:0.1;fill:none" />
  <path d="M183.517,74.3889 L188.018,74.3889" style="stroke:rgb(0,0,0);stroke-width:0.1;fill:none" />
  <path d="M188.018,79.3895 L183.517,79.3895" style="stroke:rgb(0,0,0);stroke-width:0.1;fill:none" />
  <path d="M188.018,82.3899 L188.018,79.3895" style="stroke:rgb(0,0,0);stroke-width:0.1;fill:none" />
  <path d="M188.018,82.3899 A0.500058,0.500058 0 0,0 188.518,82.8899 " style="stroke:rgb(0,0,0);stroke-width:0.1;fill:none" />
  <path d="M188.018,86.3903 L188.018,89.3907" style="stroke:rgb(0,0,0);stroke-width:0.1;fill:none" />
  <path d="M188.518,85.8903 A0.500058,0.500058 0 0,0 188.018,86.3903 " style="stroke:rgb(0,0,0);stroke-width:0.1;fill:none" />
  <path d="M188.018,89.3907 L183.517,89.3907" style="stroke:rgb(0,0,0);stroke-width:0.1;fill:none" />
  <path d="M183.517,94.3912 L188.018,94.3912" style="stroke:rgb(0,0,0);stroke-width:0.1;fill:none" />
  <ellipse cx="191.593" cy="9.88041" rx="1.20014" ry="1.20014" style="stroke:rgb(0,0,0);stroke-width:0.1;fill:none;"/>
  <ellipse cx="191.593" cy="20.8817" rx="1.20014" ry="1.20014" style="stroke:rgb(0,0,0);stroke-width:0.1;fill:none;"/>
  <path d="M210.896,14.8821 A1.00012,1.00012 0 0,0 209.895,13.882 " style="stroke:rgb(0,0,0);stroke-width:0.1;fill:none" />
  <path d="M210.896,16.3823 L210.896,14.8821" style="stroke:rgb(0,0,0);stroke-width:0.1;fill:none" />
  <path d="M209.895,13.882 L207.233,13.882" style="stroke:rgb(0,0,0);stroke-width:0.1;fill:none" />
  <path d="M204.104,11.138 A2.15925,2.15925 0 0,0 207.235,13.8845 " style="stroke:rgb(0,0,0);stroke-width:0.1;fill:none" />
  <path d="M209.894,120.894 A1.00012,1.00012 0 0,0 210.894,119.894 " style="stroke:rgb(0,0,0);stroke-width:0.1;fill:none" />
  <path d="M210.894,118.394 L210.894,119.894" style="stroke:rgb(0,0,0);stroke-width:0.1;fill:none" />
  <path d="M209.894,120.894 L207.232,120.894" style="stroke:rgb(0,0,0);stroke-width:0.1;fill:none" />
  <path d="M207.232,120.894 A2.15625,2.15625 0 0,0 204.106,123.637 " style="stroke:rgb(0,0,0);stroke-width:0.1;fill:none" />
  <ellipse cx="205.145" cy="5.88105" rx="1.50017" ry="1.50017" style="stroke:rgb(0,0,0);stroke-width:0.1;fill:none;"/>
  <ellipse cx="205.144" cy="128.757" rx="1.50017" ry="1.50017" style="stroke:rgb(0,0,0);stroke-width:0.1;fill:none;"/>
  <path d="M183.017,125.257 A8.00092,8.00092 0 0,0 191.018,133.258 " style="stroke:rgb(0,0,0);stroke-width:0.1;fill:none" />
  <path d="M193.144,133.258 L191.018,133.258" style="stroke:rgb(0,0,0);stroke-width:0.1;fill:none" />
  <path d="M202.893,133.258 A8.00092,8.00092 0 0,0 210.894,125.257 " style="stroke:rgb(0,0,0);stroke-width:0.1;fill:none" />
  <path d="M202.893,133.258 L193.144,133.258" style="stroke:rgb(0,0,0);stroke-width:0.1;fill:none" />
  <path d="M183.017,99.3918 L183.017,125.257" style="stroke:rgb(0,0,0);stroke-width:0.1;fill:none" />
  <path d="M191.02,1.51872 A8.00092,8.00092 0 0,0 183.019,9.51964 " style="stroke:rgb(0,0,0);stroke-width:0.1;fill:none" />
  <path d="M193.145,1.51872 L191.02,1.51872" style="stroke:rgb(0,0,0);stroke-width:0.1;fill:none" />
  <path d="M202.895,1.51872 A8.00092,8.00092 0 0,1 210.896,9.51964 " style="stroke:rgb(0,0,0);stroke-width:0.1;fill:none" />
  <path d="M202.895,1.51872 L193.145,1.51872" style="stroke:rgb(0,0,0);stroke-width:0.1;fill:none" />
  <path d="M206.436,5.11631 L208.552,3.86213" style="stroke:rgb(0,0,0);stroke-width:0.1;fill:none" />
  <path d="M206.411,129.559 L208.551,130.914" style="stroke:rgb(0,0,0);stroke-width:0.1;fill:none" />
  <path d="M203.445,17.3824 L203.445,19.4207" style="stroke:rgb(0,0,0);stroke-width:0.1;fill:none" />
  <path d="M203.445,23.4212 L203.445,26.4215" style="stroke:rgb(0,0,0);stroke-width:0.1;fill:none" />
  <path d="M202.945,19.9208 A0.500058,0.500058 0 0,0 203.445,19.4207 " style="stroke:rgb(0,0,0);stroke-width:0.1;fill:none" />
  <path d="M203.445,23.4212 A0.500058,0.500058 0 0,0 202.945,22.9211 " style="stroke:rgb(0,0,0);stroke-width:0.1;fill:none" />
  <path d="M202.945,111.855 A0.500058,0.500058 0 0,0 203.445,111.355 " style="stroke:rgb(0,0,0);stroke-width:0.1;fill:none" />
  <path d="M203.445,115.356 A0.500058,0.500058 0 0,0 202.945,114.856 " style="stroke:rgb(0,0,0);stroke-width:0.1;fill:none" />
  <path d="M203.445,111.355 L203.445,69.3884" style="stroke:rgb(0,0,0);stroke-width:0.1;fill:none" />
  <path d="M198.444,46.4238 L198.444,59.3872" style="stroke:rgb(0,0,0);stroke-width:0.1;fill:none" />
  <path d="M203.445,115.356 L203.445,117.394" style="stroke:rgb(0,0,0);stroke-width:0.1;fill:none" />
  <path d="M209.895,17.3824 L203.445,17.3824" style="stroke:rgb(0,0,0);stroke-width:0.1;fill:none" />
  <path d="M209.894,117.394 L203.443,117.394" style="stroke:rgb(0,0,0);stroke-width:0.1;fill:none" />
  <path d="M186.843,115.394 L186.843,122.394" style="stroke:rgb(0,0,0);stroke-width:0.1;fill:none" />
  <path d="M186.843,122.394 L189.868,122.394" style="stroke:rgb(0,0,0);stroke-width:0.1;fill:none" />
  <path d="M189.868,115.394 L186.843,115.394" style="stroke:rgb(0,0,0);stroke-width:0.1;fill:none" />
  <path d="M196.841,19.9208 L196.841,22.9211" style="stroke:rgb(0,0,0);stroke-width:0.1;fill:none" />
  <path d="M200.011,18.5606 L197.841,18.5606" style="stroke:rgb(0,0,0);stroke-width:0.1;fill:none" />
  <path d="M197.841,24.2813 L200.011,24.2813" style="stroke:rgb(0,0,0);stroke-width:0.1;fill:none" />
  <path d="M200.011,19.9208 L200.011,18.5606" style="stroke:rgb(0,0,0);stroke-width:0.1;fill:none" />
  <path d="M200.011,24.2813 L200.011,22.9211" style="stroke:rgb(0,0,0);stroke-width:0.1;fill:none" />
  <path d="M196.841,22.9211 L197.841,22.9211" style="stroke:rgb(0,0,0);stroke-width:0.1;fill:none" />
  <path d="M197.841,22.9211 L197.841,24.2813" style="stroke:rgb(0,0,0);stroke-width:0.1;fill:none" />
  <path d="M197.841,18.5606 L197.841,19.9208" style="stroke:rgb(0,0,0);stroke-width:0.1;fill:none" />
  <path d="M197.841,19.9208 L196.841,19.9208" style="stroke:rgb(0,0,0);stroke-width:0.1;fill:none" />
  <path d="M196.841,111.855 L196.841,114.856" style="stroke:rgb(0,0,0);stroke-width:0.1;fill:none" />
  <path d="M200.011,110.495 L197.841,110.495" style="stroke:rgb(0,0,0);stroke-width:0.1;fill:none" />
  <path d="M197.841,116.216 L200.011,116.216" style="stroke:rgb(0,0,0);stroke-width:0.1;fill:none" />
  <path d="M200.011,111.855 L200.011,110.495" style="stroke:rgb(0,0,0);stroke-width:0.1;fill:none" />
  <path d="M200.011,116.216 L200.011,114.856" style="stroke:rgb(0,0,0);stroke-width:0.1;fill:none" />
  <path d="M196.841,114.856 L197.841,114.856" style="stroke:rgb(0,0,0);stroke-width:0.1;fill:none" />
  <path d="M197.841,114.856 L197.841,116.216" style="stroke:rgb(0,0,0);stroke-width:0.1;fill:none" />
  <path d="M197.841,110.495 L197.841,111.855" style="stroke:rgb(0,0,0);stroke-width:0.1;fill:none" />
  <path d="M197.841,111.855 L196.841,111.855" style="stroke:rgb(0,0,0);stroke-width:0.1;fill:none" />
  <path d="M202.945,19.9208 L200.011,19.9208" style="stroke:rgb(0,0,0);stroke-width:0.1;fill:none" />
  <path d="M200.011,22.9211 L202.945,22.9211" style="stroke:rgb(0,0,0);stroke-width:0.1;fill:none" />
  <path d="M202.945,111.855 L200.011,111.855" style="stroke:rgb(0,0,0);stroke-width:0.1;fill:none" />
  <path d="M200.011,114.856 L202.945,114.856" style="stroke:rgb(0,0,0);stroke-width:0.1;fill:none" />
  <path d="M207.645,26.9216 A0.500058,0.500058 0 0,0 207.145,26.4215 " style="stroke:rgb(0,0,0);stroke-width:0.1;fill:none" />
  <path d="M207.145,46.4238 A0.500058,0.500058 0 0,0 207.645,45.9238 " style="stroke:rgb(0,0,0);stroke-width:0.1;fill:none" />
  <path d="M207.645,59.8873 A0.500058,0.500058 0 0,0 207.145,59.3872 " style="stroke:rgb(0,0,0);stroke-width:0.1;fill:none" />
  <path d="M207.645,26.9216 L207.645,45.9238" style="stroke:rgb(0,0,0);stroke-width:0.1;fill:none" />
  <path d="M207.145,69.3884 A0.500058,0.500058 0 0,0 207.645,68.8883 " style="stroke:rgb(0,0,0);stroke-width:0.1;fill:none" />
  <path d="M207.645,68.8883 L207.645,59.8873" style="stroke:rgb(0,0,0);stroke-width:0.1;fill:none" />
  <path d="M207.145,59.3872 L198.444,59.3872" style="stroke:rgb(0,0,0);stroke-width:0.1;fill:none" />
  <path d="M203.445,69.3884 L207.145,69.3884" style="stroke:rgb(0,0,0);stroke-width:0.1;fill:none" />
  <path d="M207.145,46.4238 L198.444,46.4238" style="stroke:rgb(0,0,0);stroke-width:0.1;fill:none" />
  <path d="M203.445,26.4215 L207.145,26.4215" style="stroke:rgb(0,0,0);stroke-width:0.1;fill:none" />
  <path d="M137.325,136.409 A1.00012,1.00012 0 0,0 138.325,137.409 " style="stroke:rgb(0,0,0);stroke-width:0.1;fill:none" />
  <ellipse cx="139.326" cy="118.107" rx="3.5004" ry="3.5004" style="stroke:rgb(0,0,0);stroke-width:0.1;fill:none;"/>
  <path d="M144.188,134.047 A2.15625,2.15625 0 0,0 142.626,130.404 " style="stroke:rgb(0,0,0);stroke-width:0.1;fill:none" />
  <path d="M144.188,136.409 A1.00012,1.00012 0 0,0 145.188,137.409 " style="stroke:rgb(0,0,0);stroke-width:0.1;fill:none" />
  <path d="M144.188,136.409 L144.188,134.047" style="stroke:rgb(0,0,0);stroke-width:0.1;fill:none" />
  <ellipse cx="146.326" cy="123.658" rx="1.00012" ry="1.00012" style="stroke:rgb(0,0,0);stroke-width:0.1;fill:none;"/>
  <path d="M143.57,130.618 L145.958,124.588" style="stroke:rgb(0,0,0);stroke-width:0.1;fill:none" />
  <path d="M36.1397,116.381 L36.1397,116.381" style="stroke:rgb(0,0,0);stroke-width:0.1;fill:none" />
  <path d="M36.1397,116.381 L36.1397,116.381" style="stroke:rgb(0,0,0);stroke-width:0.1;fill:none" />
  <ellipse cx="35.8134" cy="117.881" rx="1.50017" ry="1.50017" style="stroke:rgb(0,0,0);stroke-width:0.1;fill:none;"/>
  <path d="M32.313,116.381 L35.8134,116.381" style="stroke:rgb(0,0,0);stroke-width:0.1;fill:none" />
  <path d="M35.8134,116.381 L39.3138,116.381" style="stroke:rgb(0,0,0);stroke-width:0.1;fill:none" />
  <path d="M32.013,130.403 A2.15625,2.15625 0 0,0 30.451,134.045 " style="stroke:rgb(0,0,0);stroke-width:0.1;fill:none" />
  <path d="M29.4509,137.408 A1.00012,1.00012 0 0,0 30.451,136.408 " style="stroke:rgb(0,0,0);stroke-width:0.1;fill:none" />
  <path d="M30.451,136.408 L30.451,134.045" style="stroke:rgb(0,0,0);stroke-width:0.1;fill:none" />
  <ellipse cx="28.3126" cy="123.656" rx="1.00012" ry="1.00012" style="stroke:rgb(0,0,0);stroke-width:0.1;fill:none;"/>
  <path d="M31.0692,130.617 L28.6808,124.586" style="stroke:rgb(0,0,0);stroke-width:0.1;fill:none" />
  <path d="M36.3135,137.408 A1.00012,1.00012 0 0,0 37.3136,136.408 " style="stroke:rgb(0,0,0);stroke-width:0.1;fill:none" />
  <path d="M119.323,114.532 L119.323,109.531" style="stroke:rgb(0,0,0);stroke-width:0.1;fill:none" />
  <path d="M119.323,114.532 L114.322,114.532" style="stroke:rgb(0,0,0);stroke-width:0.1;fill:none" />
  <path d="M94.3202,114.532 L80.3186,114.532" style="stroke:rgb(0,0,0);stroke-width:0.1;fill:none" />
  <path d="M55.3157,114.532 L55.3157,109.531" style="stroke:rgb(0,0,0);stroke-width:0.1;fill:none" />
  <path d="M60.3163,114.532 L55.3157,114.532" style="stroke:rgb(0,0,0);stroke-width:0.1;fill:none" />
  <path d="M105.821,121.636 L102.821,121.636" style="stroke:rgb(0,0,0);stroke-width:0.1;fill:none" />
  <path d="M107.182,118.465 L107.182,120.636" style="stroke:rgb(0,0,0);stroke-width:0.1;fill:none" />
  <path d="M101.461,120.636 L101.461,118.465" style="stroke:rgb(0,0,0);stroke-width:0.1;fill:none" />
  <path d="M105.821,118.465 L107.182,118.465" style="stroke:rgb(0,0,0);stroke-width:0.1;fill:none" />
  <path d="M101.461,118.465 L102.821,118.465" style="stroke:rgb(0,0,0);stroke-width:0.1;fill:none" />
  <path d="M102.821,121.636 L102.821,120.636" style="stroke:rgb(0,0,0);stroke-width:0.1;fill:none" />
  <path d="M102.821,120.636 L101.461,120.636" style="stroke:rgb(0,0,0);stroke-width:0.1;fill:none" />
  <path d="M107.182,120.636 L105.821,120.636" style="stroke:rgb(0,0,0);stroke-width:0.1;fill:none" />
  <path d="M105.821,120.636 L105.821,121.636" style="stroke:rgb(0,0,0);stroke-width:0.1;fill:none" />
  <path d="M105.821,115.032 L105.821,118.465" style="stroke:rgb(0,0,0);stroke-width:0.1;fill:none" />
  <path d="M102.821,118.465 L102.821,115.032" style="stroke:rgb(0,0,0);stroke-width:0.1;fill:none" />
  <path d="M114.322,110.031 L114.322,114.532" style="stroke:rgb(0,0,0);stroke-width:0.1;fill:none" />
  <path d="M109.322,114.532 L109.322,110.031" style="stroke:rgb(0,0,0);stroke-width:0.1;fill:none" />
  <path d="M106.322,114.532 L109.322,114.532" style="stroke:rgb(0,0,0);stroke-width:0.1;fill:none" />
  <path d="M106.322,114.532 A0.500058,0.500058 0 0,0 105.821,115.032 " style="stroke:rgb(0,0,0);stroke-width:0.1;fill:none" />
  <path d="M102.321,114.532 L99.3207,114.532" style="stroke:rgb(0,0,0);stroke-width:0.1;fill:none" />
  <path d="M102.821,115.032 A0.500058,0.500058 0 0,0 102.321,114.532 " style="stroke:rgb(0,0,0);stroke-width:0.1;fill:none" />
  <path d="M99.3207,114.532 L99.3207,110.031" style="stroke:rgb(0,0,0);stroke-width:0.1;fill:none" />
  <path d="M94.3202,110.031 L94.3202,114.532" style="stroke:rgb(0,0,0);stroke-width:0.1;fill:none" />
  <path d="M71.8176,121.636 L68.8172,121.636" style="stroke:rgb(0,0,0);stroke-width:0.1;fill:none" />
  <path d="M73.1777,118.465 L73.1777,120.636" style="stroke:rgb(0,0,0);stroke-width:0.1;fill:none" />
  <path d="M67.4571,120.636 L67.4571,118.465" style="stroke:rgb(0,0,0);stroke-width:0.1;fill:none" />
  <path d="M71.8176,118.465 L73.1777,118.465" style="stroke:rgb(0,0,0);stroke-width:0.1;fill:none" />
  <path d="M67.4571,118.465 L68.8172,118.465" style="stroke:rgb(0,0,0);stroke-width:0.1;fill:none" />
  <path d="M68.8172,121.636 L68.8172,120.636" style="stroke:rgb(0,0,0);stroke-width:0.1;fill:none" />
  <path d="M68.8172,120.636 L67.4571,120.636" style="stroke:rgb(0,0,0);stroke-width:0.1;fill:none" />
  <path d="M73.1777,120.636 L71.8176,120.636" style="stroke:rgb(0,0,0);stroke-width:0.1;fill:none" />
  <path d="M71.8176,120.636 L71.8176,121.636" style="stroke:rgb(0,0,0);stroke-width:0.1;fill:none" />
  <path d="M71.8176,115.032 L71.8176,118.465" style="stroke:rgb(0,0,0);stroke-width:0.1;fill:none" />
  <path d="M68.8172,118.465 L68.8172,115.032" style="stroke:rgb(0,0,0);stroke-width:0.1;fill:none" />
  <path d="M72.3176,114.532 L75.318,114.532" style="stroke:rgb(0,0,0);stroke-width:0.1;fill:none" />
  <path d="M72.3176,114.532 A0.500058,0.500058 0 0,0 71.8176,115.032 " style="stroke:rgb(0,0,0);stroke-width:0.1;fill:none" />
  <path d="M68.3172,114.532 L65.3168,114.532" style="stroke:rgb(0,0,0);stroke-width:0.1;fill:none" />
  <path d="M68.8172,115.032 A0.500058,0.500058 0 0,0 68.3172,114.532 " style="stroke:rgb(0,0,0);stroke-width:0.1;fill:none" />
  <path d="M80.3186,110.031 L80.3186,114.532" style="stroke:rgb(0,0,0);stroke-width:0.1;fill:none" />
  <path d="M75.318,114.532 L75.318,110.031" style="stroke:rgb(0,0,0);stroke-width:0.1;fill:none" />
  <path d="M72.3176,114.532 L75.318,114.532" style="stroke:rgb(0,0,0);stroke-width:0.1;fill:none" />
  <path d="M72.3176,114.532 A0.500058,0.500058 0 0,0 71.8176,115.032 " style="stroke:rgb(0,0,0);stroke-width:0.1;fill:none" />
  <path d="M68.3172,114.532 L65.3168,114.532" style="stroke:rgb(0,0,0);stroke-width:0.1;fill:none" />
  <path d="M68.8172,115.032 A0.500058,0.500058 0 0,0 68.3172,114.532 " style="stroke:rgb(0,0,0);stroke-width:0.1;fill:none" />
  <path d="M65.3168,114.532 L65.3168,110.031" style="stroke:rgb(0,0,0);stroke-width:0.1;fill:none" />
  <path d="M60.3163,110.031 L60.3163,114.532" style="stroke:rgb(0,0,0);stroke-width:0.1;fill:none" />
  <ellipse cx="144.827" cy="118.107" rx="1.20014" ry="1.20014" style="stroke:rgb(0,0,0);stroke-width:0.1;fill:none;"/>
  <ellipse cx="133.826" cy="118.107" rx="1.20014" ry="1.20014" style="stroke:rgb(0,0,0);stroke-width:0.1;fill:none;"/>
  <path d="M139.825,137.409 A1.00012,1.00012 0 0,0 140.826,136.409 " style="stroke:rgb(0,0,0);stroke-width:0.1;fill:none" />
  <path d="M138.325,137.409 L139.825,137.409" style="stroke:rgb(0,0,0);stroke-width:0.1;fill:none" />
  <path d="M140.826,136.409 L140.826,133.747" style="stroke:rgb(0,0,0);stroke-width:0.1;fill:none" />
  <path d="M143.57,130.618 A2.15925,2.15925 0 0,0 140.823,133.749 " style="stroke:rgb(0,0,0);stroke-width:0.1;fill:none" />
  <path d="M33.8132,136.408 A1.00012,1.00012 0 0,0 34.8133,137.408 " style="stroke:rgb(0,0,0);stroke-width:0.1;fill:none" />
  <path d="M36.3135,137.408 L34.8133,137.408" style="stroke:rgb(0,0,0);stroke-width:0.1;fill:none" />
  <path d="M33.8132,136.408 L33.8132,133.746" style="stroke:rgb(0,0,0);stroke-width:0.1;fill:none" />
  <path d="M33.8132,133.746 A2.15625,2.15625 0 0,0 31.0705,130.619 " style="stroke:rgb(0,0,0);stroke-width:0.1;fill:none" />
  <ellipse cx="148.826" cy="131.659" rx="1.50017" ry="1.50017" style="stroke:rgb(0,0,0);stroke-width:0.1;fill:none;"/>
  <ellipse cx="25.9505" cy="131.657" rx="1.50017" ry="1.50017" style="stroke:rgb(0,0,0);stroke-width:0.1;fill:none;"/>
  <path d="M29.4509,109.531 A8.00092,8.00092 0 0,0 21.4499,117.532 " style="stroke:rgb(0,0,0);stroke-width:0.1;fill:none" />
  <path d="M21.4499,119.657 L21.4499,117.532" style="stroke:rgb(0,0,0);stroke-width:0.1;fill:none" />
  <path d="M21.4499,129.407 A8.00092,8.00092 0 0,0 29.4509,137.408 " style="stroke:rgb(0,0,0);stroke-width:0.1;fill:none" />
  <path d="M21.4499,129.407 L21.4499,119.657" style="stroke:rgb(0,0,0);stroke-width:0.1;fill:none" />
  <path d="M153.189,117.533 A8.00092,8.00092 0 0,0 145.188,109.532 " style="stroke:rgb(0,0,0);stroke-width:0.1;fill:none" />
  <path d="M153.189,119.659 L153.189,117.533" style="stroke:rgb(0,0,0);stroke-width:0.1;fill:none" />
  <path d="M153.189,129.408 A8.00092,8.00092 0 0,1 145.188,137.409 " style="stroke:rgb(0,0,0);stroke-width:0.1;fill:none" />
  <path d="M153.189,129.408 L153.189,119.659" style="stroke:rgb(0,0,0);stroke-width:0.1;fill:none" />
  <path d="M149.591,132.949 L150.845,135.066" style="stroke:rgb(0,0,0);stroke-width:0.1;fill:none" />
  <path d="M25.148,132.925 L23.7934,135.065" style="stroke:rgb(0,0,0);stroke-width:0.1;fill:none" />
  <path d="M137.325,129.959 L135.287,129.959" style="stroke:rgb(0,0,0);stroke-width:0.1;fill:none" />
  <path d="M131.286,129.959 L128.286,129.959" style="stroke:rgb(0,0,0);stroke-width:0.1;fill:none" />
  <path d="M134.787,129.458 A0.500058,0.500058 0 0,0 135.287,129.959 " style="stroke:rgb(0,0,0);stroke-width:0.1;fill:none" />
  <path d="M131.286,129.959 A0.500058,0.500058 0 0,0 131.786,129.458 " style="stroke:rgb(0,0,0);stroke-width:0.1;fill:none" />
  <path d="M42.8523,129.458 A0.500058,0.500058 0 0,0 43.3524,129.959 " style="stroke:rgb(0,0,0);stroke-width:0.1;fill:none" />
  <path d="M39.3519,129.959 A0.500058,0.500058 0 0,0 39.852,129.458 " style="stroke:rgb(0,0,0);stroke-width:0.1;fill:none" />
  <path d="M43.3524,129.959 L85.3191,129.959" style="stroke:rgb(0,0,0);stroke-width:0.1;fill:none" />
  <path d="M108.284,124.958 L95.3203,124.958" style="stroke:rgb(0,0,0);stroke-width:0.1;fill:none" />
  <path d="M39.3519,129.959 L37.3136,129.959" style="stroke:rgb(0,0,0);stroke-width:0.1;fill:none" />
  <path d="M137.325,136.409 L137.325,129.959" style="stroke:rgb(0,0,0);stroke-width:0.1;fill:none" />
  <path d="M37.3136,136.408 L37.3136,129.957" style="stroke:rgb(0,0,0);stroke-width:0.1;fill:none" />
  <path d="M39.3138,113.357 L32.313,113.357" style="stroke:rgb(0,0,0);stroke-width:0.1;fill:none" />
  <path d="M32.313,113.357 L32.313,116.381" style="stroke:rgb(0,0,0);stroke-width:0.1;fill:none" />
  <path d="M39.3138,116.381 L39.3138,113.357" style="stroke:rgb(0,0,0);stroke-width:0.1;fill:none" />
  <path d="M134.787,123.354 L131.786,123.354" style="stroke:rgb(0,0,0);stroke-width:0.1;fill:none" />
  <path d="M136.147,126.525 L136.147,124.355" style="stroke:rgb(0,0,0);stroke-width:0.1;fill:none" />
  <path d="M130.426,124.355 L130.426,126.525" style="stroke:rgb(0,0,0);stroke-width:0.1;fill:none" />
  <path d="M134.787,126.525 L136.147,126.525" style="stroke:rgb(0,0,0);stroke-width:0.1;fill:none" />
  <path d="M130.426,126.525 L131.786,126.525" style="stroke:rgb(0,0,0);stroke-width:0.1;fill:none" />
  <path d="M131.786,123.354 L131.786,124.355" style="stroke:rgb(0,0,0);stroke-width:0.1;fill:none" />
  <path d="M131.786,124.355 L130.426,124.355" style="stroke:rgb(0,0,0);stroke-width:0.1;fill:none" />
  <path d="M136.147,124.355 L134.787,124.355" style="stroke:rgb(0,0,0);stroke-width:0.1;fill:none" />
  <path d="M134.787,124.355 L134.787,123.354" style="stroke:rgb(0,0,0);stroke-width:0.1;fill:none" />
  <path d="M42.8523,123.354 L39.852,123.354" style="stroke:rgb(0,0,0);stroke-width:0.1;fill:none" />
  <path d="M44.2125,126.525 L44.2125,124.355" style="stroke:rgb(0,0,0);stroke-width:0.1;fill:none" />
  <path d="M38.4918,124.355 L38.4918,126.525" style="stroke:rgb(0,0,0);stroke-width:0.1;fill:none" />
  <path d="M42.8523,126.525 L44.2125,126.525" style="stroke:rgb(0,0,0);stroke-width:0.1;fill:none" />
  <path d="M38.4918,126.525 L39.852,126.525" style="stroke:rgb(0,0,0);stroke-width:0.1;fill:none" />
  <path d="M39.852,123.354 L39.852,124.355" style="stroke:rgb(0,0,0);stroke-width:0.1;fill:none" />
  <path d="M39.852,124.355 L38.4918,124.355" style="stroke:rgb(0,0,0);stroke-width:0.1;fill:none" />
  <path d="M44.2125,124.355 L42.8523,124.355" style="stroke:rgb(0,0,0);stroke-width:0.1;fill:none" />
  <path d="M42.8523,124.355 L42.8523,123.354" style="stroke:rgb(0,0,0);stroke-width:0.1;fill:none" />
  <path d="M134.787,129.458 L134.787,126.525" style="stroke:rgb(0,0,0);stroke-width:0.1;fill:none" />
  <path d="M131.786,126.525 L131.786,129.458" style="stroke:rgb(0,0,0);stroke-width:0.1;fill:none" />
  <path d="M42.8523,129.458 L42.8523,126.525" style="stroke:rgb(0,0,0);stroke-width:0.1;fill:none" />
  <path d="M39.852,126.525 L39.852,129.458" style="stroke:rgb(0,0,0);stroke-width:0.1;fill:none" />
  <path d="M127.786,134.159 A0.500058,0.500058 0 0,0 128.286,133.659 " style="stroke:rgb(0,0,0);stroke-width:0.1;fill:none" />
  <path d="M108.284,133.659 A0.500058,0.500058 0 0,0 108.784,134.159 " style="stroke:rgb(0,0,0);stroke-width:0.1;fill:none" />
  <path d="M94.8202,134.159 A0.500058,0.500058 0 0,0 95.3203,133.659 " style="stroke:rgb(0,0,0);stroke-width:0.1;fill:none" />
  <path d="M127.786,134.159 L108.784,134.159" style="stroke:rgb(0,0,0);stroke-width:0.1;fill:none" />
  <path d="M85.3191,133.659 A0.500058,0.500058 0 0,0 85.8192,134.159 " style="stroke:rgb(0,0,0);stroke-width:0.1;fill:none" />
  <path d="M85.8192,134.159 L94.8202,134.159" style="stroke:rgb(0,0,0);stroke-width:0.1;fill:none" />
  <path d="M95.3203,133.659 L95.3203,124.958" style="stroke:rgb(0,0,0);stroke-width:0.1;fill:none" />
  <path d="M85.3191,129.959 L85.3191,133.659" style="stroke:rgb(0,0,0);stroke-width:0.1;fill:none" />
  <path d="M108.284,133.659 L108.284,124.958" style="stroke:rgb(0,0,0);stroke-width:0.1;fill:none" />
  <path d="M128.286,129.959 L128.286,133.659" style="stroke:rgb(0,0,0);stroke-width:0.1;fill:none" />
  <path d="M170.054,121.134 A2.00023,2.00023 0 0,0 172.054,123.135 " style="stroke:rgb(0,0,0);stroke-width:0.1;fill:none" />
  <path d="M170.054,121.134 L170.054,109.531" style="stroke:rgb(0,0,0);stroke-width:0.1;fill:none" />
  <path d="M181.017,123.135 A2.00023,2.00023 0 0,0 183.017,121.134 " style="stroke:rgb(0,0,0);stroke-width:0.1;fill:none" />
  <path d="M181.017,123.135 L172.054,123.135" style="stroke:rgb(0,0,0);stroke-width:0.1;fill:none" />
  <ellipse cx="176.536" cy="119.672" rx="1.56018" ry="1.56018" style="stroke:rgb(0,0,0);stroke-width:0.1;fill:none;"/>
</svg>
