<?xml version="1.0" standalone="yes"?>

<svg width="381mm" height="299mm" viewBox="0 0 381 299" version="1.1"
xmlns="http://www.w3.org/2000/svg" style="stroke-linecap:round">
  <ellipse cx="203" cy="11.99" rx="1.5003" ry="1.5003" style="stroke:rgb(0,0,0);stroke-width:0.25;fill:none;"/>
  <path d="M208.001,9.48947 L213.002,9.48947" style="stroke:rgb(0,0,0);stroke-width:0.25;fill:none" />
  <path d="M208.001,14.4905 L213.002,14.4905" style="stroke:rgb(0,0,0);stroke-width:0.25;fill:none" />
  <path d="M197.999,9.48947 L192.998,9.48947" style="stroke:rgb(0,0,0);stroke-width:0.25;fill:none" />
  <path d="M197.999,14.4905 L192.998,14.4905" style="stroke:rgb(0,0,0);stroke-width:0.25;fill:none" />
  <path d="M192.998,9.48947 L192.998,14.4905" style="stroke:rgb(0,0,0);stroke-width:0.25;fill:none" />
  <path d="M197.999,9.48947 L197.999,14.4905" style="stroke:rgb(0,0,0);stroke-width:0.25;fill:none" />
  <path d="M208.001,9.48947 L208.001,14.4905" style="stroke:rgb(0,0,0);stroke-width:0.25;fill:none" />
  <path d="M213.002,9.48947 L213.002,14.4905" style="stroke:rgb(0,0,0);stroke-width:0.25;fill:none" />
  <ellipse cx="157.029" cy="11.99" rx="1.5003" ry="1.5003" style="stroke:rgb(0,0,0);stroke-width:0.1;fill:none;"/>
  <path d="M162.03,9.48947 L167.031,9.48947" style="stroke:rgb(0,0,0);stroke-width:0.1;fill:none" />
  <path d="M162.03,14.4905 L167.031,14.4905" style="stroke:rgb(0,0,0);stroke-width:0.1;fill:none" />
  <path d="M162.03,9.48947 L162.03,14.4905" style="stroke:rgb(0,0,0);stroke-width:0.1;fill:none" />
  <path d="M167.031,9.48947 L167.031,14.4905" style="stroke:rgb(0,0,0);stroke-width:0.1;fill:none" />
  <ellipse cx="248.971" cy="11.99" rx="1.5003" ry="1.5003" style="stroke:rgb(0,0,0);stroke-width:0.1;fill:none;"/>
  <path d="M243.97,9.48947 L238.969,9.48947" style="stroke:rgb(0,0,0);stroke-width:0.1;fill:none" />
  <path d="M243.97,14.4905 L238.969,14.4905" style="stroke:rgb(0,0,0);stroke-width:0.1;fill:none" />
  <path d="M238.969,9.48947 L238.969,14.4905" style="stroke:rgb(0,0,0);stroke-width:0.1;fill:none" />
  <path d="M243.97,9.48947 L243.97,14.4905" style="stroke:rgb(0,0,0);stroke-width:0.1;fill:none" />
  <ellipse cx="203" cy="103.932" rx="1.5003" ry="1.5003" style="stroke:rgb(0,0,0);stroke-width:0.25;fill:none;"/>
  <path d="M208.001,101.432 L213.002,101.432" style="stroke:rgb(0,0,0);stroke-width:0.25;fill:none" />
  <path d="M208.001,106.433 L213.002,106.433" style="stroke:rgb(0,0,0);stroke-width:0.25;fill:none" />
  <path d="M197.999,101.432 L192.998,101.432" style="stroke:rgb(0,0,0);stroke-width:0.25;fill:none" />
  <path d="M197.999,106.433 L192.998,106.433" style="stroke:rgb(0,0,0);stroke-width:0.25;fill:none" />
  <path d="M192.998,101.432 L192.998,106.433" style="stroke:rgb(0,0,0);stroke-width:0.25;fill:none" />
  <path d="M197.999,101.432 L197.999,106.433" style="stroke:rgb(0,0,0);stroke-width:0.25;fill:none" />
  <path d="M208.001,101.432 L208.001,106.433" style="stroke:rgb(0,0,0);stroke-width:0.25;fill:none" />
  <path d="M213.002,101.432 L213.002,106.433" style="stroke:rgb(0,0,0);stroke-width:0.25;fill:none" />
  <ellipse cx="157.029" cy="103.932" rx="1.5003" ry="1.5003" style="stroke:rgb(0,0,0);stroke-width:0.1;fill:none;"/>
  <path d="M162.03,101.432 L167.031,101.432" style="stroke:rgb(0,0,0);stroke-width:0.1;fill:none" />
  <path d="M162.03,106.433 L167.031,106.433" style="stroke:rgb(0,0,0);stroke-width:0.1;fill:none" />
  <path d="M162.03,101.432 L162.03,106.433" style="stroke:rgb(0,0,0);stroke-width:0.1;fill:none" />
  <path d="M167.031,101.432 L167.031,106.433" style="stroke:rgb(0,0,0);stroke-width:0.1;fill:none" />
  <ellipse cx="248.971" cy="103.932" rx="1.5003" ry="1.5003" style="stroke:rgb(0,0,0);stroke-width:0.1;fill:none;"/>
  <path d="M243.97,101.432 L238.969,101.432" style="stroke:rgb(0,0,0);stroke-width:0.1;fill:none" />
  <path d="M243.97,106.433 L238.969,106.433" style="stroke:rgb(0,0,0);stroke-width:0.1;fill:none" />
  <path d="M238.969,101.432 L238.969,106.433" style="stroke:rgb(0,0,0);stroke-width:0.1;fill:none" />
  <path d="M243.97,101.432 L243.97,106.433" style="stroke:rgb(0,0,0);stroke-width:0.1;fill:none" />
  <path d="M152.99,1.98797 L253.01,1.98797" style="stroke:rgb(0,0,0);stroke-width:0.1;fill:none" />
  <path d="M253.01,114.01 L152.99,114.01" style="stroke:rgb(0,0,0);stroke-width:0.1;fill:none" />
  <path d="M152.99,114.01 L152.99,1.98797" style="stroke:rgb(0,0,0);stroke-width:0.1;fill:none" />
  <path d="M253.01,1.98797 L253.01,114.01" style="stroke:rgb(0,0,0);stroke-width:0.1;fill:none" />
  <ellipse cx="177.995" cy="196.027" rx="1.5003" ry="1.5003" style="stroke:rgb(0,0,0);stroke-width:0.25;fill:none;"/>
  <path d="M182.996,193.526 L187.997,193.526" style="stroke:rgb(0,0,0);stroke-width:0.25;fill:none" />
  <path d="M182.996,198.527 L187.997,198.527" style="stroke:rgb(0,0,0);stroke-width:0.25;fill:none" />
  <path d="M172.994,193.526 L167.993,193.526" style="stroke:rgb(0,0,0);stroke-width:0.25;fill:none" />
  <path d="M172.994,198.527 L167.993,198.527" style="stroke:rgb(0,0,0);stroke-width:0.25;fill:none" />
  <path d="M167.993,193.526 L167.993,198.527" style="stroke:rgb(0,0,0);stroke-width:0.25;fill:none" />
  <path d="M172.994,193.526 L172.994,198.527" style="stroke:rgb(0,0,0);stroke-width:0.25;fill:none" />
  <path d="M182.996,193.526 L182.996,198.527" style="stroke:rgb(0,0,0);stroke-width:0.25;fill:none" />
  <path d="M187.997,193.526 L187.997,198.527" style="stroke:rgb(0,0,0);stroke-width:0.25;fill:none" />
  <ellipse cx="228.005" cy="196.027" rx="1.5003" ry="1.5003" style="stroke:rgb(0,0,0);stroke-width:0.25;fill:none;"/>
  <path d="M233.006,193.526 L238.007,193.526" style="stroke:rgb(0,0,0);stroke-width:0.25;fill:none" />
  <path d="M233.006,198.527 L238.007,198.527" style="stroke:rgb(0,0,0);stroke-width:0.25;fill:none" />
  <path d="M223.004,193.526 L218.003,193.526" style="stroke:rgb(0,0,0);stroke-width:0.25;fill:none" />
  <path d="M223.004,198.527 L218.003,198.527" style="stroke:rgb(0,0,0);stroke-width:0.25;fill:none" />
  <path d="M218.003,193.526 L218.003,198.527" style="stroke:rgb(0,0,0);stroke-width:0.25;fill:none" />
  <path d="M223.004,193.526 L223.004,198.527" style="stroke:rgb(0,0,0);stroke-width:0.25;fill:none" />
  <path d="M233.006,193.526 L233.006,198.527" style="stroke:rgb(0,0,0);stroke-width:0.25;fill:none" />
  <path d="M238.007,193.526 L238.007,198.527" style="stroke:rgb(0,0,0);stroke-width:0.25;fill:none" />
  <ellipse cx="177.995" cy="287.969" rx="1.5003" ry="1.5003" style="stroke:rgb(0,0,0);stroke-width:0.25;fill:none;"/>
  <path d="M182.996,285.469 L187.997,285.469" style="stroke:rgb(0,0,0);stroke-width:0.25;fill:none" />
  <path d="M182.996,290.47 L187.997,290.47" style="stroke:rgb(0,0,0);stroke-width:0.25;fill:none" />
  <path d="M172.994,285.469 L167.993,285.469" style="stroke:rgb(0,0,0);stroke-width:0.25;fill:none" />
  <path d="M172.994,290.47 L167.993,290.47" style="stroke:rgb(0,0,0);stroke-width:0.25;fill:none" />
  <path d="M167.993,285.469 L167.993,290.47" style="stroke:rgb(0,0,0);stroke-width:0.25;fill:none" />
  <path d="M172.994,285.469 L172.994,290.47" style="stroke:rgb(0,0,0);stroke-width:0.25;fill:none" />
  <path d="M182.996,285.469 L182.996,290.47" style="stroke:rgb(0,0,0);stroke-width:0.25;fill:none" />
  <path d="M187.997,285.469 L187.997,290.47" style="stroke:rgb(0,0,0);stroke-width:0.25;fill:none" />
  <ellipse cx="228.005" cy="287.969" rx="1.5003" ry="1.5003" style="stroke:rgb(0,0,0);stroke-width:0.25;fill:none;"/>
  <path d="M233.006,285.469 L238.007,285.469" style="stroke:rgb(0,0,0);stroke-width:0.25;fill:none" />
  <path d="M233.006,290.47 L238.007,290.47" style="stroke:rgb(0,0,0);stroke-width:0.25;fill:none" />
  <path d="M223.004,285.469 L218.003,285.469" style="stroke:rgb(0,0,0);stroke-width:0.25;fill:none" />
  <path d="M223.004,290.47 L218.003,290.47" style="stroke:rgb(0,0,0);stroke-width:0.25;fill:none" />
  <path d="M218.003,285.469 L218.003,290.47" style="stroke:rgb(0,0,0);stroke-width:0.25;fill:none" />
  <path d="M223.004,285.469 L223.004,290.47" style="stroke:rgb(0,0,0);stroke-width:0.25;fill:none" />
  <path d="M233.006,285.469 L233.006,290.47" style="stroke:rgb(0,0,0);stroke-width:0.25;fill:none" />
  <path d="M238.007,285.469 L238.007,290.47" style="stroke:rgb(0,0,0);stroke-width:0.25;fill:none" />
  <ellipse cx="203" cy="246.037" rx="2.75055" ry="2.75055" style="stroke:rgb(0,0,0);stroke-width:0.1;fill:none;"/>
  <ellipse cx="182.896" cy="233.034" rx="2.75055" ry="2.75055" style="stroke:rgb(0,0,0);stroke-width:0.1;fill:none;"/>
  <ellipse cx="223.104" cy="233.034" rx="2.75055" ry="2.75055" style="stroke:rgb(0,0,0);stroke-width:0.1;fill:none;"/>
  <path d="M209.771,263.67 L207.031,263.67" style="stroke:rgb(0,0,0);stroke-width:0.1;fill:none" />
  <path d="M209.771,266.411 L209.771,263.67" style="stroke:rgb(0,0,0);stroke-width:0.1;fill:none" />
  <path d="M207.031,263.67 L207.031,266.411" style="stroke:rgb(0,0,0);stroke-width:0.1;fill:none" />
  <path d="M207.031,266.411 L209.771,266.411" style="stroke:rgb(0,0,0);stroke-width:0.1;fill:none" />
  <path d="M198.969,263.67 L196.229,263.67" style="stroke:rgb(0,0,0);stroke-width:0.1;fill:none" />
  <path d="M198.969,266.411 L198.969,263.67" style="stroke:rgb(0,0,0);stroke-width:0.1;fill:none" />
  <path d="M196.229,263.67 L196.229,266.411" style="stroke:rgb(0,0,0);stroke-width:0.1;fill:none" />
  <path d="M196.229,266.411 L198.969,266.411" style="stroke:rgb(0,0,0);stroke-width:0.1;fill:none" />
  <path d="M204.37,231.664 L201.63,231.664" style="stroke:rgb(0,0,0);stroke-width:0.1;fill:none" />
  <path d="M204.37,234.405 L204.37,231.664" style="stroke:rgb(0,0,0);stroke-width:0.1;fill:none" />
  <path d="M201.63,231.664 L201.63,234.405" style="stroke:rgb(0,0,0);stroke-width:0.1;fill:none" />
  <path d="M201.63,234.405 L204.37,234.405" style="stroke:rgb(0,0,0);stroke-width:0.1;fill:none" />
  <path d="M209.771,217.661 L207.031,217.661" style="stroke:rgb(0,0,0);stroke-width:0.1;fill:none" />
  <path d="M209.771,220.402 L209.771,217.661" style="stroke:rgb(0,0,0);stroke-width:0.1;fill:none" />
  <path d="M207.031,217.661 L207.031,220.402" style="stroke:rgb(0,0,0);stroke-width:0.1;fill:none" />
  <path d="M207.031,220.402 L209.771,220.402" style="stroke:rgb(0,0,0);stroke-width:0.1;fill:none" />
  <path d="M198.969,217.661 L196.229,217.661" style="stroke:rgb(0,0,0);stroke-width:0.1;fill:none" />
  <path d="M198.969,220.402 L198.969,217.661" style="stroke:rgb(0,0,0);stroke-width:0.1;fill:none" />
  <path d="M196.229,217.661 L196.229,220.402" style="stroke:rgb(0,0,0);stroke-width:0.1;fill:none" />
  <path d="M196.229,220.402 L198.969,220.402" style="stroke:rgb(0,0,0);stroke-width:0.1;fill:none" />
  <path d="M207.001,138.355 L207.001,138.355" style="stroke:rgb(0,255,255);stroke-width:0.1;fill:none" />
  <path d="M369.957,135.185 L369.957,137.215" style="stroke:rgb(0,0,0);stroke-width:0.1;fill:none" />
  <path d="M379.959,137.215 L379.959,142.016" style="stroke:rgb(0,0,0);stroke-width:0.1;fill:none" />
  <path d="M379.959,137.215 L369.957,137.215" style="stroke:rgb(0,0,0);stroke-width:0.1;fill:none" />
  <path d="M379.959,139.015 L378.959,139.015" style="stroke:rgb(0,0,0);stroke-width:0.1;fill:none" />
  <path d="M69.4732,139.015 L70.9735,139.015" style="stroke:rgb(0,255,255);stroke-width:0.1;fill:none" />
  <path d="M70.9735,141.016 L69.4732,141.016" style="stroke:rgb(0,255,255);stroke-width:0.1;fill:none" />
  <path d="M70.9735,143.016 L69.4732,143.016" style="stroke:rgb(0,255,255);stroke-width:0.1;fill:none" />
  <path d="M70.9735,145.017 L69.4732,145.017" style="stroke:rgb(0,255,255);stroke-width:0.1;fill:none" />
  <path d="M64.4722,141.016 L62.9719,141.016" style="stroke:rgb(0,255,255);stroke-width:0.1;fill:none" />
  <path d="M64.4722,143.016 L62.9719,143.016" style="stroke:rgb(0,255,255);stroke-width:0.1;fill:none" />
  <path d="M64.4722,145.017 L62.9719,145.017" style="stroke:rgb(0,255,255);stroke-width:0.1;fill:none" />
  <path d="M70.2234,140.016 L69.4732,140.016" style="stroke:rgb(0,255,255);stroke-width:0.1;fill:none" />
  <path d="M70.2234,142.016 L69.4732,142.016" style="stroke:rgb(0,255,255);stroke-width:0.1;fill:none" />
  <path d="M70.2234,144.016 L69.4732,144.016" style="stroke:rgb(0,255,255);stroke-width:0.1;fill:none" />
  <path d="M64.4722,140.016 L63.7221,140.016" style="stroke:rgb(0,255,255);stroke-width:0.1;fill:none" />
  <path d="M64.4722,142.016 L63.7221,142.016" style="stroke:rgb(0,255,255);stroke-width:0.1;fill:none" />
  <path d="M64.4722,144.016 L63.7221,144.016" style="stroke:rgb(0,255,255);stroke-width:0.1;fill:none" />
  <path d="M62.9719,139.015 L64.4722,139.015" style="stroke:rgb(0,255,255);stroke-width:0.1;fill:none" />
  <path d="M18.141,143.516 L18.141,145.687" style="stroke:rgb(0,0,0);stroke-width:0.1;fill:none" />
  <path d="M23.8622,145.687 L23.8622,143.516" style="stroke:rgb(0,0,0);stroke-width:0.1;fill:none" />
  <path d="M110.083,143.516 L110.083,145.687" style="stroke:rgb(0,0,0);stroke-width:0.1;fill:none" />
  <path d="M115.804,145.687 L115.804,143.516" style="stroke:rgb(0,0,0);stroke-width:0.1;fill:none" />
  <path d="M16.9627,132.014 L16.9627,135.185" style="stroke:rgb(0,0,0);stroke-width:0.1;fill:none" />
  <path d="M116.983,132.014 L116.983,135.185" style="stroke:rgb(0,0,0);stroke-width:0.1;fill:none" />
  <path d="M16.9627,132.014 A8.0016,8.0016 0 0,0 0.959485,132.014 " style="stroke:rgb(0,0,0);stroke-width:0.1;fill:none" />
  <path d="M132.986,132.014 A8.0016,8.0016 0 0,0 116.983,132.014 " style="stroke:rgb(0,0,0);stroke-width:0.1;fill:none" />
  <path d="M0.959485,149.017 A8.0016,8.0016 0 0,0 8.96109,157.019 " style="stroke:rgb(0,0,0);stroke-width:0.1;fill:none" />
  <path d="M0.959485,132.014 L0.959485,149.017" style="stroke:rgb(0,0,0);stroke-width:0.1;fill:none" />
  <path d="M124.984,157.019 A8.0016,8.0016 0 0,0 132.986,149.017 " style="stroke:rgb(0,0,0);stroke-width:0.1;fill:none" />
  <path d="M132.986,132.014 L132.986,149.017" style="stroke:rgb(0,0,0);stroke-width:0.1;fill:none" />
  <path d="M124.984,152.018 L124.984,157.019" style="stroke:rgb(0,0,0);stroke-width:0.1;fill:none" />
  <path d="M8.96109,152.018 L8.96109,157.019" style="stroke:rgb(0,0,0);stroke-width:0.1;fill:none" />
  <path d="M64.1121,135.185 L64.1121,137.355" style="stroke:rgb(0,0,0);stroke-width:0.1;fill:none" />
  <path d="M69.8333,137.355 L69.8333,135.185" style="stroke:rgb(0,0,0);stroke-width:0.1;fill:none" />
  <path d="M64.4722,146.017 L69.4732,146.017" style="stroke:rgb(0,0,0);stroke-width:0.1;fill:none" />
  <path d="M39.1071,143.686 L39.1071,141.516" style="stroke:rgb(0,0,0);stroke-width:0.1;fill:none" />
  <path d="M44.8283,141.516 L44.8283,143.686" style="stroke:rgb(0,0,0);stroke-width:0.1;fill:none" />
  <path d="M89.1172,143.686 L89.1172,141.516" style="stroke:rgb(0,0,0);stroke-width:0.1;fill:none" />
  <path d="M94.8383,141.516 L94.8383,143.686" style="stroke:rgb(0,0,0);stroke-width:0.1;fill:none" />
  <path d="M94.8383,143.686 L89.1172,143.686" style="stroke:rgb(0,0,0);stroke-width:0.1;fill:none" />
  <path d="M89.1172,141.516 L94.8383,141.516" style="stroke:rgb(0,0,0);stroke-width:0.1;fill:none" />
  <path d="M39.1071,141.516 L44.8283,141.516" style="stroke:rgb(0,0,0);stroke-width:0.1;fill:none" />
  <path d="M44.8283,143.686 L39.1071,143.686" style="stroke:rgb(0,0,0);stroke-width:0.1;fill:none" />
  <path d="M8.96109,152.018 L124.984,152.018" style="stroke:rgb(0,0,0);stroke-width:0.1;fill:none" />
  <path d="M16.9627,135.185 L64.1121,135.185" style="stroke:rgb(0,0,0);stroke-width:0.1;fill:none" />
  <path d="M23.8622,143.516 L18.141,143.516" style="stroke:rgb(0,0,0);stroke-width:0.1;fill:none" />
  <path d="M18.141,145.687 L23.8622,145.687" style="stroke:rgb(0,0,0);stroke-width:0.1;fill:none" />
  <path d="M116.983,135.185 L69.8333,135.185" style="stroke:rgb(0,0,0);stroke-width:0.1;fill:none" />
  <path d="M110.083,145.687 L115.804,145.687" style="stroke:rgb(0,0,0);stroke-width:0.1;fill:none" />
  <path d="M115.804,143.516 L110.083,143.516" style="stroke:rgb(0,0,0);stroke-width:0.1;fill:none" />
  <ellipse cx="8.96109" cy="142.016" rx="1.5003" ry="1.5003" style="stroke:rgb(0,0,0);stroke-width:0.1;fill:none;"/>
  <ellipse cx="124.984" cy="142.016" rx="1.5003" ry="1.5003" style="stroke:rgb(0,0,0);stroke-width:0.1;fill:none;"/>
  <path d="M155.529,146.687 L158.529,146.687" style="stroke:rgb(0,0,0);stroke-width:0.1;fill:none" />
  <path d="M154.168,143.516 L154.168,145.687" style="stroke:rgb(0,0,0);stroke-width:0.1;fill:none" />
  <path d="M159.889,145.687 L159.889,143.516" style="stroke:rgb(0,0,0);stroke-width:0.1;fill:none" />
  <path d="M155.529,143.516 L154.168,143.516" style="stroke:rgb(0,0,0);stroke-width:0.1;fill:none" />
  <path d="M159.889,143.516 L158.529,143.516" style="stroke:rgb(0,0,0);stroke-width:0.1;fill:none" />
  <path d="M158.529,146.687 L158.529,145.687" style="stroke:rgb(0,0,0);stroke-width:0.1;fill:none" />
  <path d="M158.529,145.687 L159.889,145.687" style="stroke:rgb(0,0,0);stroke-width:0.1;fill:none" />
  <path d="M154.168,145.687 L155.529,145.687" style="stroke:rgb(0,0,0);stroke-width:0.1;fill:none" />
  <path d="M155.529,145.687 L155.529,146.687" style="stroke:rgb(0,0,0);stroke-width:0.1;fill:none" />
  <path d="M155.529,135.685 L155.529,143.516" style="stroke:rgb(0,0,0);stroke-width:0.1;fill:none" />
  <path d="M155.529,135.685 A0.5001,0.5001 0 0,0 155.028,135.185 " style="stroke:rgb(0,0,0);stroke-width:0.1;fill:none" />
  <path d="M158.529,143.516 L158.529,135.685" style="stroke:rgb(0,0,0);stroke-width:0.1;fill:none" />
  <path d="M159.029,135.185 L162.03,135.185" style="stroke:rgb(0,0,0);stroke-width:0.1;fill:none" />
  <path d="M159.029,135.185 A0.5001,0.5001 0 0,0 158.529,135.685 " style="stroke:rgb(0,0,0);stroke-width:0.1;fill:none" />
  <path d="M162.03,135.185 L162.03,130.684" style="stroke:rgb(0,0,0);stroke-width:0.1;fill:none" />
  <path d="M162.53,130.184 A0.5001,0.5001 0 0,0 162.03,130.684 " style="stroke:rgb(0,0,0);stroke-width:0.1;fill:none" />
  <path d="M162.53,130.184 L166.531,130.184" style="stroke:rgb(0,0,0);stroke-width:0.1;fill:none" />
  <path d="M167.031,130.684 L167.031,135.185" style="stroke:rgb(0,0,0);stroke-width:0.1;fill:none" />
  <path d="M167.031,130.684 A0.5001,0.5001 0 0,0 166.531,130.184 " style="stroke:rgb(0,0,0);stroke-width:0.1;fill:none" />
  <path d="M155.028,135.185 L152.99,135.185" style="stroke:rgb(0,0,0);stroke-width:0.1;fill:none" />
  <path d="M167.031,135.185 L192.998,135.185" style="stroke:rgb(0,0,0);stroke-width:0.1;fill:none" />
  <path d="M247.471,146.687 L250.471,146.687" style="stroke:rgb(0,0,0);stroke-width:0.1;fill:none" />
  <path d="M246.111,143.516 L246.111,145.687" style="stroke:rgb(0,0,0);stroke-width:0.1;fill:none" />
  <path d="M251.832,145.687 L251.832,143.516" style="stroke:rgb(0,0,0);stroke-width:0.1;fill:none" />
  <path d="M247.471,143.516 L246.111,143.516" style="stroke:rgb(0,0,0);stroke-width:0.1;fill:none" />
  <path d="M251.832,143.516 L250.471,143.516" style="stroke:rgb(0,0,0);stroke-width:0.1;fill:none" />
  <path d="M250.471,146.687 L250.471,145.687" style="stroke:rgb(0,0,0);stroke-width:0.1;fill:none" />
  <path d="M250.471,145.687 L251.832,145.687" style="stroke:rgb(0,0,0);stroke-width:0.1;fill:none" />
  <path d="M246.111,145.687 L247.471,145.687" style="stroke:rgb(0,0,0);stroke-width:0.1;fill:none" />
  <path d="M247.471,145.687 L247.471,146.687" style="stroke:rgb(0,0,0);stroke-width:0.1;fill:none" />
  <path d="M238.969,130.684 L238.969,135.185" style="stroke:rgb(0,0,0);stroke-width:0.1;fill:none" />
  <path d="M239.469,130.184 A0.5001,0.5001 0 0,0 238.969,130.684 " style="stroke:rgb(0,0,0);stroke-width:0.1;fill:none" />
  <path d="M243.47,130.184 L239.469,130.184" style="stroke:rgb(0,0,0);stroke-width:0.1;fill:none" />
  <path d="M243.97,135.185 L243.97,130.684" style="stroke:rgb(0,0,0);stroke-width:0.1;fill:none" />
  <path d="M243.97,130.684 A0.5001,0.5001 0 0,0 243.47,130.184 " style="stroke:rgb(0,0,0);stroke-width:0.1;fill:none" />
  <path d="M246.971,135.185 L243.97,135.185" style="stroke:rgb(0,0,0);stroke-width:0.1;fill:none" />
  <path d="M247.471,135.685 L247.471,143.516" style="stroke:rgb(0,0,0);stroke-width:0.1;fill:none" />
  <path d="M247.471,135.685 A0.5001,0.5001 0 0,0 246.971,135.185 " style="stroke:rgb(0,0,0);stroke-width:0.1;fill:none" />
  <path d="M250.471,143.516 L250.471,135.685" style="stroke:rgb(0,0,0);stroke-width:0.1;fill:none" />
  <path d="M250.972,135.185 A0.5001,0.5001 0 0,0 250.471,135.685 " style="stroke:rgb(0,0,0);stroke-width:0.1;fill:none" />
  <path d="M250.972,135.185 L253.01,135.185" style="stroke:rgb(0,0,0);stroke-width:0.1;fill:none" />
  <path d="M213.002,135.185 L238.969,135.185" style="stroke:rgb(0,0,0);stroke-width:0.1;fill:none" />
  <path d="M152.99,132.014 L152.99,135.185" style="stroke:rgb(0,0,0);stroke-width:0.1;fill:none" />
  <path d="M253.01,132.014 L253.01,135.185" style="stroke:rgb(0,0,0);stroke-width:0.1;fill:none" />
  <path d="M187.997,152.018 L218.003,152.018" style="stroke:rgb(0,0,0);stroke-width:0.1;fill:none" />
  <path d="M176.495,140.516 L179.495,140.516" style="stroke:rgb(0,0,0);stroke-width:0.25;fill:none" />
  <path d="M175.134,143.686 L175.134,141.516" style="stroke:rgb(0,0,0);stroke-width:0.25;fill:none" />
  <path d="M180.856,141.516 L180.856,143.686" style="stroke:rgb(0,0,0);stroke-width:0.25;fill:none" />
  <path d="M176.495,143.686 L175.134,143.686" style="stroke:rgb(0,0,0);stroke-width:0.25;fill:none" />
  <path d="M180.856,143.686 L179.495,143.686" style="stroke:rgb(0,0,0);stroke-width:0.25;fill:none" />
  <path d="M179.495,140.516 L179.495,141.516" style="stroke:rgb(0,0,0);stroke-width:0.25;fill:none" />
  <path d="M179.495,141.516 L180.856,141.516" style="stroke:rgb(0,0,0);stroke-width:0.25;fill:none" />
  <path d="M175.134,141.516 L176.495,141.516" style="stroke:rgb(0,0,0);stroke-width:0.25;fill:none" />
  <path d="M176.495,141.516 L176.495,140.516" style="stroke:rgb(0,0,0);stroke-width:0.25;fill:none" />
  <path d="M167.993,156.519 L167.993,152.018" style="stroke:rgb(0,0,0);stroke-width:0.25;fill:none" />
  <path d="M167.993,156.519 A0.5001,0.5001 0 0,0 168.493,157.019 " style="stroke:rgb(0,0,0);stroke-width:0.25;fill:none" />
  <path d="M172.494,157.019 L168.493,157.019" style="stroke:rgb(0,0,0);stroke-width:0.25;fill:none" />
  <path d="M172.994,152.018 L172.994,156.519" style="stroke:rgb(0,0,0);stroke-width:0.25;fill:none" />
  <path d="M172.494,157.019 A0.5001,0.5001 0 0,0 172.994,156.519 " style="stroke:rgb(0,0,0);stroke-width:0.25;fill:none" />
  <path d="M175.995,152.018 L172.994,152.018" style="stroke:rgb(0,0,0);stroke-width:0.25;fill:none" />
  <path d="M176.495,151.518 L176.495,143.686" style="stroke:rgb(0,0,0);stroke-width:0.25;fill:none" />
  <path d="M175.995,152.018 A0.5001,0.5001 0 0,0 176.495,151.518 " style="stroke:rgb(0,0,0);stroke-width:0.25;fill:none" />
  <path d="M179.495,143.686 L179.495,151.518" style="stroke:rgb(0,0,0);stroke-width:0.25;fill:none" />
  <path d="M179.995,152.018 L182.996,152.018" style="stroke:rgb(0,0,0);stroke-width:0.25;fill:none" />
  <path d="M179.495,151.518 A0.5001,0.5001 0 0,0 179.995,152.018 " style="stroke:rgb(0,0,0);stroke-width:0.25;fill:none" />
  <path d="M182.996,152.018 L182.996,156.519" style="stroke:rgb(0,0,0);stroke-width:0.25;fill:none" />
  <path d="M182.996,156.519 A0.5001,0.5001 0 0,0 183.496,157.019 " style="stroke:rgb(0,0,0);stroke-width:0.25;fill:none" />
  <path d="M183.496,157.019 L187.497,157.019" style="stroke:rgb(0,0,0);stroke-width:0.25;fill:none" />
  <path d="M187.997,156.519 L187.997,152.018" style="stroke:rgb(0,0,0);stroke-width:0.25;fill:none" />
  <path d="M187.497,157.019 A0.5001,0.5001 0 0,0 187.997,156.519 " style="stroke:rgb(0,0,0);stroke-width:0.25;fill:none" />
  <path d="M226.505,140.516 L229.505,140.516" style="stroke:rgb(0,0,0);stroke-width:0.25;fill:none" />
  <path d="M225.144,143.686 L225.144,141.516" style="stroke:rgb(0,0,0);stroke-width:0.25;fill:none" />
  <path d="M230.866,141.516 L230.866,143.686" style="stroke:rgb(0,0,0);stroke-width:0.25;fill:none" />
  <path d="M226.505,143.686 L225.144,143.686" style="stroke:rgb(0,0,0);stroke-width:0.25;fill:none" />
  <path d="M230.866,143.686 L229.505,143.686" style="stroke:rgb(0,0,0);stroke-width:0.25;fill:none" />
  <path d="M229.505,140.516 L229.505,141.516" style="stroke:rgb(0,0,0);stroke-width:0.25;fill:none" />
  <path d="M229.505,141.516 L230.866,141.516" style="stroke:rgb(0,0,0);stroke-width:0.25;fill:none" />
  <path d="M225.144,141.516 L226.505,141.516" style="stroke:rgb(0,0,0);stroke-width:0.25;fill:none" />
  <path d="M226.505,141.516 L226.505,140.516" style="stroke:rgb(0,0,0);stroke-width:0.25;fill:none" />
  <path d="M218.003,156.519 L218.003,152.018" style="stroke:rgb(0,0,0);stroke-width:0.25;fill:none" />
  <path d="M218.003,156.519 A0.5001,0.5001 0 0,0 218.503,157.019 " style="stroke:rgb(0,0,0);stroke-width:0.25;fill:none" />
  <path d="M222.504,157.019 L218.503,157.019" style="stroke:rgb(0,0,0);stroke-width:0.25;fill:none" />
  <path d="M223.004,152.018 L223.004,156.519" style="stroke:rgb(0,0,0);stroke-width:0.25;fill:none" />
  <path d="M222.504,157.019 A0.5001,0.5001 0 0,0 223.004,156.519 " style="stroke:rgb(0,0,0);stroke-width:0.25;fill:none" />
  <path d="M226.005,152.018 L223.004,152.018" style="stroke:rgb(0,0,0);stroke-width:0.25;fill:none" />
  <path d="M226.505,151.518 L226.505,143.686" style="stroke:rgb(0,0,0);stroke-width:0.25;fill:none" />
  <path d="M226.005,152.018 A0.5001,0.5001 0 0,0 226.505,151.518 " style="stroke:rgb(0,0,0);stroke-width:0.25;fill:none" />
  <path d="M229.505,143.686 L229.505,151.518" style="stroke:rgb(0,0,0);stroke-width:0.25;fill:none" />
  <path d="M230.005,152.018 L233.006,152.018" style="stroke:rgb(0,0,0);stroke-width:0.25;fill:none" />
  <path d="M229.505,151.518 A0.5001,0.5001 0 0,0 230.005,152.018 " style="stroke:rgb(0,0,0);stroke-width:0.25;fill:none" />
  <path d="M233.006,152.018 L233.006,156.519" style="stroke:rgb(0,0,0);stroke-width:0.25;fill:none" />
  <path d="M233.006,156.519 A0.5001,0.5001 0 0,0 233.506,157.019 " style="stroke:rgb(0,0,0);stroke-width:0.25;fill:none" />
  <path d="M233.506,157.019 L237.507,157.019" style="stroke:rgb(0,0,0);stroke-width:0.25;fill:none" />
  <path d="M238.007,156.519 L238.007,152.018" style="stroke:rgb(0,0,0);stroke-width:0.25;fill:none" />
  <path d="M237.507,157.019 A0.5001,0.5001 0 0,0 238.007,156.519 " style="stroke:rgb(0,0,0);stroke-width:0.25;fill:none" />
  <ellipse cx="144.988" cy="132.014" rx="5.001" ry="5.001" style="stroke:rgb(0,0,0);stroke-width:0.1;fill:none;"/>
  <ellipse cx="261.012" cy="132.014" rx="5.001" ry="5.001" style="stroke:rgb(0,0,0);stroke-width:0.1;fill:none;"/>
  <path d="M152.99,132.014 A8.0016,8.0016 0 0,0 136.987,132.014 " style="stroke:rgb(0,0,0);stroke-width:0.1;fill:none" />
  <path d="M144.988,152.018 L167.993,152.018" style="stroke:rgb(0,0,0);stroke-width:0.1;fill:none" />
  <path d="M269.013,132.014 A8.0016,8.0016 0 0,0 253.01,132.014 " style="stroke:rgb(0,0,0);stroke-width:0.1;fill:none" />
  <path d="M238.007,152.018 L261.012,152.018" style="stroke:rgb(0,0,0);stroke-width:0.1;fill:none" />
  <path d="M136.987,149.017 A8.0016,8.0016 0 0,0 144.988,157.019 " style="stroke:rgb(0,0,0);stroke-width:0.1;fill:none" />
  <path d="M136.987,132.014 L136.987,149.017" style="stroke:rgb(0,0,0);stroke-width:0.1;fill:none" />
  <path d="M261.012,157.019 A8.0016,8.0016 0 0,0 269.013,149.017 " style="stroke:rgb(0,0,0);stroke-width:0.1;fill:none" />
  <path d="M269.013,132.014 L269.013,149.017" style="stroke:rgb(0,0,0);stroke-width:0.1;fill:none" />
  <path d="M261.012,152.018 L261.012,157.019" style="stroke:rgb(0,0,0);stroke-width:0.1;fill:none" />
  <path d="M144.988,152.018 L144.988,157.019" style="stroke:rgb(0,0,0);stroke-width:0.1;fill:none" />
  <path d="M192.998,130.684 L192.998,135.185" style="stroke:rgb(0,0,0);stroke-width:0.1;fill:none" />
  <path d="M193.498,130.184 A0.5001,0.5001 0 0,0 192.998,130.684 " style="stroke:rgb(0,0,0);stroke-width:0.1;fill:none" />
  <path d="M197.499,130.184 L193.498,130.184" style="stroke:rgb(0,0,0);stroke-width:0.1;fill:none" />
  <path d="M197.999,135.185 L197.999,130.684" style="stroke:rgb(0,0,0);stroke-width:0.1;fill:none" />
  <path d="M197.999,130.684 A0.5001,0.5001 0 0,0 197.499,130.184 " style="stroke:rgb(0,0,0);stroke-width:0.1;fill:none" />
  <path d="M208.001,135.185 L208.001,130.684" style="stroke:rgb(0,0,0);stroke-width:0.1;fill:none" />
  <path d="M208.501,130.184 A0.5001,0.5001 0 0,0 208.001,130.684 " style="stroke:rgb(0,0,0);stroke-width:0.1;fill:none" />
  <path d="M208.501,130.184 L212.502,130.184" style="stroke:rgb(0,0,0);stroke-width:0.1;fill:none" />
  <path d="M213.002,130.684 L213.002,135.185" style="stroke:rgb(0,0,0);stroke-width:0.1;fill:none" />
  <path d="M213.002,130.684 A0.5001,0.5001 0 0,0 212.502,130.184 " style="stroke:rgb(0,0,0);stroke-width:0.1;fill:none" />
  <path d="M200.139,135.185 L200.139,137.355" style="stroke:rgb(0,0,0);stroke-width:0.1;fill:none" />
  <path d="M205.861,137.355 L205.861,135.185" style="stroke:rgb(0,0,0);stroke-width:0.1;fill:none" />
  <path d="M205.861,135.185 L208.001,135.185" style="stroke:rgb(0,0,0);stroke-width:0.1;fill:none" />
  <path d="M200.139,135.185 L197.999,135.185" style="stroke:rgb(0,0,0);stroke-width:0.1;fill:none" />
  <path d="M200.499,146.017 L205.501,146.017" style="stroke:rgb(0,0,0);stroke-width:0.1;fill:none" />
  <path d="M205.501,138.355 L205.501,146.017" style="stroke:rgb(0,0,0);stroke-width:0.1;fill:none" />
  <path d="M200.499,146.017 L200.499,138.355" style="stroke:rgb(0,0,0);stroke-width:0.1;fill:none" />
  <ellipse cx="144.988" cy="142.016" rx="1.5003" ry="1.5003" style="stroke:rgb(0,0,0);stroke-width:0.1;fill:none;"/>
  <ellipse cx="261.012" cy="142.016" rx="1.5003" ry="1.5003" style="stroke:rgb(0,0,0);stroke-width:0.1;fill:none;"/>
  <path d="M205.501,138.355 L205.501,137.355" style="stroke:rgb(0,0,0);stroke-width:0.1;fill:none" />
  <path d="M205.501,137.355 L205.861,137.355" style="stroke:rgb(0,0,0);stroke-width:0.1;fill:none" />
  <path d="M200.499,137.355 L200.499,138.355" style="stroke:rgb(0,0,0);stroke-width:0.1;fill:none" />
  <path d="M200.139,137.355 L200.499,137.355" style="stroke:rgb(0,0,0);stroke-width:0.1;fill:none" />
  <path d="M64.4722,146.017 L64.4722,137.355" style="stroke:rgb(0,0,0);stroke-width:0.1;fill:none" />
  <path d="M64.1121,137.355 L64.4722,137.355" style="stroke:rgb(0,0,0);stroke-width:0.1;fill:none" />
  <path d="M69.4732,137.355 L69.4732,146.017" style="stroke:rgb(0,0,0);stroke-width:0.1;fill:none" />
  <path d="M69.4732,137.355 L69.8333,137.355" style="stroke:rgb(0,0,0);stroke-width:0.1;fill:none" />
  <path d="M144.988,298.047 L144.988,186.025" style="stroke:rgb(0,0,0);stroke-width:0.1;fill:none" />
  <path d="M261.012,186.025 L261.012,298.047" style="stroke:rgb(0,0,0);stroke-width:0.1;fill:none" />
  <path d="M144.988,186.025 L261.012,186.025" style="stroke:rgb(0,0,0);stroke-width:0.1;fill:none" />
  <path d="M261.012,298.047 L144.988,298.047" style="stroke:rgb(0,0,0);stroke-width:0.1;fill:none" />
  <path d="M283.016,135.185 L283.016,137.215" style="stroke:rgb(0,0,0);stroke-width:0.1;fill:none" />
  <path d="M273.014,137.215 L273.014,142.016" style="stroke:rgb(0,0,0);stroke-width:0.1;fill:none" />
  <path d="M273.014,137.215 L283.016,137.215" style="stroke:rgb(0,0,0);stroke-width:0.1;fill:none" />
  <path d="M274.014,139.015 L273.014,139.015" style="stroke:rgb(0,0,0);stroke-width:0.1;fill:none" />
  <path d="M283.016,135.185 L369.957,135.185" style="stroke:rgb(0,0,0);stroke-width:0.1;fill:none" />
  <path d="M273.014,142.016 L379.959,142.016" style="stroke:rgb(0,0,0);stroke-width:0.1;fill:none" />
</svg>
