999
dxflib 2.2.0.0
  0
SECTION
  2
HEADER
  9
$ACADVER
  1
AC1015
  9
$HANDSEED
  5
FFFF
  9
$DIMASZ
 40
2.5
  9
$PLIMMIN
 10
0.0
 20
0.0
  9
$DIMEXE
 40
1.25
  9
$DIMGAP
 40
0.625
  9
$PLIMMAX
 10
210.0
 20
297.0
  9
$INSUNITS
 70
4
  9
$DIMSTYLE
  2
Standard
  9
$CLAYER
  8
0
  9
$DIMEXO
 40
0.625
  9
$DIMTXT
 40
2.5
  9
$CLAYER
  8
0
  0
ENDSEC
  0
SECTION
  2
TABLES
  0
TABLE
  2
VPORT
  5
8
100
AcDbSymbolTable
 70
1
  0
VPORT
  5
30
100
AcDbSymbolTableRecord
100
AcDbViewportTableRecord
  2
*Active
 70
0
 10
0.0
 20
0.0
 11
1.0
 21
1.0
 12
286.3055555555554861
 22
148.5
 13
0.0
 23
0.0
 14
10.0
 24
10.0
 15
10.0
 25
10.0
 16
0.0
 26
0.0
 36
1.0
 17
0.0
 27
0.0
 37
0.0
 40
297.0
 41
1.92798353909465
 42
50.0
 43
0.0
 44
0.0
 50
0.0
 51
0.0
 71
0
 72
100
 73
1
 74
3
 75
1
 76
1
 77
0
 78
0
281
0
 65
1
110
0.0
120
0.0
130
0.0
111
1.0
121
0.0
131
0.0
112
0.0
122
1.0
132
0.0
 79
0
146
0.0
  0
ENDTAB
  0
TABLE
  2
LTYPE
  5
5
100
AcDbSymbolTable
 70
21
  0
LTYPE
  5
14
100
AcDbSymbolTableRecord
100
AcDbLinetypeTableRecord
  2
ByBlock
 70
0
  3

 72
65
 73
0
 40
0.0
  0
LTYPE
  5
15
100
AcDbSymbolTableRecord
100
AcDbLinetypeTableRecord
  2
ByLayer
 70
0
  3

 72
65
 73
0
 40
0.0
  0
LTYPE
  5
16
100
AcDbSymbolTableRecord
100
AcDbLinetypeTableRecord
  2
CONTINUOUS
 70
0
  3
Solid line
 72
65
 73
0
 40
0.0
  0
LTYPE
  5
31
100
AcDbSymbolTableRecord
100
AcDbLinetypeTableRecord
  2
DOT
 70
0
  3
Dot . . . . . . . . . . . . . . . . . . . . . .
 72
65
 73
2
 40
6.3499999999999996
 49
0.0
 74
0
 49
-6.3499999999999996
 74
0
  0
LTYPE
  5
32
100
AcDbSymbolTableRecord
100
AcDbLinetypeTableRecord
  2
DOT2
 70
0
  3
Dot (.5x) .....................................
 72
65
 73
2
 40
3.1749999999999998
 49
0.0
 74
0
 49
-3.1749999999999998
 74
0
  0
LTYPE
  5
33
100
AcDbSymbolTableRecord
100
AcDbLinetypeTableRecord
  2
DOTX2
 70
0
  3
Dot (2x) .  .  .  .  .  .  .  .  .  .  .  .  .
 72
65
 73
2
 40
12.6999999999999993
 49
0.0
 74
0
 49
-12.6999999999999993
 74
0
  0
LTYPE
  5
34
100
AcDbSymbolTableRecord
100
AcDbLinetypeTableRecord
  2
DASHED
 70
0
  3
Dashed __ __ __ __ __ __ __ __ __ __ __ __ __ _
 72
65
 73
2
 40
19.0500000000000007
 49
12.6999999999999993
 74
0
 49
-6.3499999999999996
 74
0
  0
LTYPE
  5
35
100
AcDbSymbolTableRecord
100
AcDbLinetypeTableRecord
  2
DASHED2
 70
0
  3
Dashed (.5x) _ _ _ _ _ _ _ _ _ _ _ _ _ _ _ _ _
 72
65
 73
2
 40
9.5250000000000004
 49
6.3499999999999996
 74
0
 49
-3.1749999999999998
 74
0
  0
LTYPE
  5
36
100
AcDbSymbolTableRecord
100
AcDbLinetypeTableRecord
  2
DASHEDX2
 70
0
  3
Dashed (2x) ____  ____  ____  ____  ____  ___
 72
65
 73
2
 40
38.1000000000000014
 49
25.3999999999999986
 74
0
 49
-12.6999999999999993
 74
0
  0
LTYPE
  5
37
100
AcDbSymbolTableRecord
100
AcDbLinetypeTableRecord
  2
DASHDOT
 70
0
  3
Dash dot __ . __ . __ . __ . __ . __ . __ . __
 72
65
 73
4
 40
25.3999999999999986
 49
12.6999999999999993
 74
0
 49
-6.3499999999999996
 74
0
 49
0.0
 74
0
 49
-6.3499999999999996
 74
0
  0
LTYPE
  5
38
100
AcDbSymbolTableRecord
100
AcDbLinetypeTableRecord
  2
DASHDOT2
 70
0
  3
Dash dot (.5x) _._._._._._._._._._._._._._._.
 72
65
 73
4
 40
12.6999999999999993
 49
6.3499999999999996
 74
0
 49
-3.1749999999999998
 74
0
 49
0.0
 74
0
 49
-3.1749999999999998
 74
0
  0
LTYPE
  5
39
100
AcDbSymbolTableRecord
100
AcDbLinetypeTableRecord
  2
DASHDOTX2
 70
0
  3
Dash dot (2x) ____  .  ____  .  ____  .  ___
 72
65
 73
4
 40
50.7999999999999972
 49
25.3999999999999986
 74
0
 49
-12.6999999999999993
 74
0
 49
0.0
 74
0
 49
-12.6999999999999993
 74
0
  0
LTYPE
  5
3A
100
AcDbSymbolTableRecord
100
AcDbLinetypeTableRecord
  2
DIVIDE
 70
0
  3
Divide ____ . . ____ . . ____ . . ____ . . ____
 72
65
 73
6
 40
31.75
 49
12.6999999999999993
 74
0
 49
-6.3499999999999996
 74
0
 49
0.0
 74
0
 49
-6.3499999999999996
 74
0
 49
0.0
 74
0
 49
-6.3499999999999996
 74
0
  0
LTYPE
  5
3B
100
AcDbSymbolTableRecord
100
AcDbLinetypeTableRecord
  2
DIVIDE2
 70
0
  3
Divide (.5x) __..__..__..__..__..__..__..__.._
 72
65
 73
6
 40
15.875
 49
6.3499999999999996
 74
0
 49
-3.1749999999999998
 74
0
 49
0.0
 74
0
 49
-3.1749999999999998
 74
0
 49
0.0
 74
0
 49
-3.1749999999999998
 74
0
  0
LTYPE
  5
3C
100
AcDbSymbolTableRecord
100
AcDbLinetypeTableRecord
  2
DIVIDEX2
 70
0
  3
Divide (2x) ________  .  .  ________  .  .  _
 72
65
 73
6
 40
63.5
 49
25.3999999999999986
 74
0
 49
-12.6999999999999993
 74
0
 49
0.0
 74
0
 49
-12.6999999999999993
 74
0
 49
0.0
 74
0
 49
-12.6999999999999993
 74
0
  0
LTYPE
  5
3D
100
AcDbSymbolTableRecord
100
AcDbLinetypeTableRecord
  2
CENTER
 70
0
  3
Center ____ _ ____ _ ____ _ ____ _ ____ _ ____
 72
65
 73
4
 40
50.7999999999999972
 49
31.75
 74
0
 49
-6.3499999999999996
 74
0
 49
6.3499999999999996
 74
0
 49
-6.3499999999999996
 74
0
  0
LTYPE
  5
3E
100
AcDbSymbolTableRecord
100
AcDbLinetypeTableRecord
  2
CENTER2
 70
0
  3
Center (.5x) ___ _ ___ _ ___ _ ___ _ ___ _ ___
 72
65
 73
4
 40
28.5749999999999993
 49
19.0500000000000007
 74
0
 49
-3.1749999999999998
 74
0
 49
3.1749999999999998
 74
0
 49
-3.1749999999999998
 74
0
  0
LTYPE
  5
3F
100
AcDbSymbolTableRecord
100
AcDbLinetypeTableRecord
  2
CENTERX2
 70
0
  3
Center (2x) ________  __  ________  __  _____
 72
65
 73
4
 40
101.5999999999999943
 49
63.5
 74
0
 49
-12.6999999999999993
 74
0
 49
12.6999999999999993
 74
0
 49
-12.6999999999999993
 74
0
  0
LTYPE
  5
40
100
AcDbSymbolTableRecord
100
AcDbLinetypeTableRecord
  2
BORDER
 70
0
  3
Border __ __ . __ __ . __ __ . __ __ . __ __ .
 72
65
 73
6
 40
44.4500000000000028
 49
12.6999999999999993
 74
0
 49
-6.3499999999999996
 74
0
 49
12.6999999999999993
 74
0
 49
-6.3499999999999996
 74
0
 49
0.0
 74
0
 49
-6.3499999999999996
 74
0
  0
LTYPE
  5
41
100
AcDbSymbolTableRecord
100
AcDbLinetypeTableRecord
  2
BORDER2
 70
0
  3
Border (.5x) __.__.__.__.__.__.__.__.__.__.__.
 72
65
 73
6
 40
22.2250000000000014
 49
6.3499999999999996
 74
0
 49
-3.1749999999999998
 74
0
 49
6.3499999999999996
 74
0
 49
-3.1749999999999998
 74
0
 49
0.0
 74
0
 49
-3.1749999999999998
 74
0
  0
LTYPE
  5
42
100
AcDbSymbolTableRecord
100
AcDbLinetypeTableRecord
  2
BORDERX2
 70
0
  3
Border (2x) ____  ____  .  ____  ____  .  ___
 72
65
 73
6
 40
88.9000000000000057
 49
25.3999999999999986
 74
0
 49
-12.6999999999999993
 74
0
 49
25.3999999999999986
 74
0
 49
-12.6999999999999993
 74
0
 49
0.0
 74
0
 49
-12.6999999999999993
 74
0
  0
ENDTAB
  0
TABLE
  2
LAYER
  5
2
100
AcDbSymbolTable
 70
14
  0
LAYER
  5
10
100
AcDbSymbolTableRecord
100
AcDbLayerTableRecord
  2
0
 70
0
 62
7
420
0
  6
CONTINUOUS
370
25
390
F
  0
LAYER
  5
43
100
AcDbSymbolTableRecord
100
AcDbLayerTableRecord
  2
1 bottom
 70
0
 62
7
420
0
  6
CONTINUOUS
370
0
390
F
  0
LAYER
  5
44
100
AcDbSymbolTableRecord
100
AcDbLayerTableRecord
  2
4 side cover
 70
0
 62
7
420
0
  6
CONTINUOUS
370
0
390
F
  0
LAYER
  5
45
100
AcDbSymbolTableRecord
100
AcDbLayerTableRecord
  2
2 top
 70
0
 62
7
420
0
  6
CONTINUOUS
370
0
390
F
  0
LAYER
  5
46
100
AcDbSymbolTableRecord
100
AcDbLayerTableRecord
  2
3 side
 70
0
 62
7
420
0
  6
CONTINUOUS
370
0
390
F
  0
LAYER
  5
47
100
AcDbSymbolTableRecord
100
AcDbLayerTableRecord
  2
5 gears
 70
0
 62
7
420
0
  6
CONTINUOUS
370
0
390
F
  0
LAYER
  5
48
100
AcDbSymbolTableRecord
100
AcDbLayerTableRecord
  2
6 scraper
 70
0
 62
7
420
0
  6
CONTINUOUS
370
0
390
F
  0
LAYER
  5
49
100
AcDbSymbolTableRecord
100
AcDbLayerTableRecord
  2
7 belt
 70
0
 62
7
420
0
  6
CONTINUOUS
370
0
390
F
  0
LAYER
  5
4A
100
AcDbSymbolTableRecord
100
AcDbLayerTableRecord
  2
5a gear, shaft
 70
0
 62
7
420
0
  6
CONTINUOUS
370
0
390
F
  0
LAYER
  5
4B
100
AcDbSymbolTableRecord
100
AcDbLayerTableRecord
  2
5b gear, motor
 70
0
 62
7
420
0
  6
CONTINUOUS
370
0
390
F
  0
LAYER
  5
4C
100
AcDbSymbolTableRecord
100
AcDbLayerTableRecord
  2
5a gear, motor, A
 70
0
 62
7
420
0
  6
CONTINUOUS
370
0
390
F
  0
LAYER
  5
4D
100
AcDbSymbolTableRecord
100
AcDbLayerTableRecord
  2
5a gear, shaft, A
 70
0
 62
7
420
0
  6
CONTINUOUS
370
0
390
F
  0
LAYER
  5
4E
100
AcDbSymbolTableRecord
100
AcDbLayerTableRecord
  2
8 brush retainer
 70
0
 62
7
420
0
  6
CONTINUOUS
370
0
390
F
  0
LAYER
  5
4F
100
AcDbSymbolTableRecord
100
AcDbLayerTableRecord
  2
4 side
 70
0
 62
7
420
0
  6
CONTINUOUS
370
0
390
F
  0
ENDTAB
  0
TABLE
  2
STYLE
  5
3
100
AcDbSymbolTable
 70
1
  0
STYLE
  5
11
100
AcDbSymbolTableRecord
100
AcDbTextStyleTableRecord
  2
Standard
 70
0
 40
0.0
 41
0.75
 50
0.0
 71
0
 42
2.5
  3
txt
  4

  0
ENDTAB
  0
TABLE
  2
VIEW
  5
6
100
AcDbSymbolTable
 70
0
  0
ENDTAB
  0
TABLE
  2
UCS
  5
7
100
AcDbSymbolTable
 70
0
  0
ENDTAB
  0
TABLE
  2
APPID
  5
9
100
AcDbSymbolTable
 70
1
  0
APPID
  5
12
100
AcDbSymbolTableRecord
100
AcDbRegAppTableRecord
  2
ACAD
 70
0
  0
ENDTAB
  0
TABLE
  2
DIMSTYLE
  5
A
100
AcDbSymbolTable
 70
1
100
AcDbDimStyleTable
 71
0
  0
DIMSTYLE
105
27
100
AcDbSymbolTableRecord
100
AcDbDimStyleTableRecord
  2
Standard
 41
2.5
 42
0.625
 43
3.75
 44
1.25
 70
0
 73
0
 74
0
 77
1
 78
8
140
2.5
141
2.5
143
0.03937007874016
147
0.625
171
3
172
1
271
2
272
2
274
3
278
44
283
0
284
8
340
11
  0
ENDTAB
  0
TABLE
  2
BLOCK_RECORD
  5
1
100
AcDbSymbolTable
 70
1
  0
BLOCK_RECORD
  5
1F
100
AcDbSymbolTableRecord
100
AcDbBlockTableRecord
  2
*Model_Space
340
22
  0
BLOCK_RECORD
  5
1B
100
AcDbSymbolTableRecord
100
AcDbBlockTableRecord
  2
*Paper_Space
340
1E
  0
BLOCK_RECORD
  5
23
100
AcDbSymbolTableRecord
100
AcDbBlockTableRecord
  2
*Paper_Space0
340
26
  0
BLOCK_RECORD
  5
50
100
AcDbSymbolTableRecord
100
AcDbBlockTableRecord
  2
holes-20
340
0
  0
BLOCK_RECORD
  5
51
100
AcDbSymbolTableRecord
100
AcDbBlockTableRecord
  2
tabs-with-bolt-20
340
0
  0
ENDTAB
  0
ENDSEC
  0
SECTION
  2
BLOCKS
  0
BLOCK
  5
20
100
AcDbEntity
  8
0
100
AcDbBlockBegin
  2
*Model_Space
 70
0
 10
0.0
 20
0.0
 30
0.0
  3
*Model_Space
  1

  0
ENDBLK
  5
21
100
AcDbEntity
  8
0
100
AcDbBlockEnd
  0
BLOCK
  5
1C
100
AcDbEntity
 67
1
  8
0
100
AcDbBlockBegin
  2
*Paper_Space
 70
0
 10
0.0
 20
0.0
 30
0.0
  3
*Paper_Space
  1

  0
ENDBLK
  5
1D
100
AcDbEntity
 67
1
  8
0
100
AcDbBlockEnd
  0
BLOCK
  5
24
100
AcDbEntity
  8
0
100
AcDbBlockBegin
  2
*Paper_Space0
 70
0
 10
0.0
 20
0.0
 30
0.0
  3
*Paper_Space0
  1

  0
ENDBLK
  5
25
100
AcDbEntity
  8
0
100
AcDbBlockEnd
  0
BLOCK
  5
52
100
AcDbEntity
  8
0
100
AcDbBlockBegin
  2
holes-20
 70
0
 10
0.0
 20
0.0
 30
0.0
  3
holes-20
  1

  0
CIRCLE
  5
53
100
AcDbEntity
100
AcDbCircle
  8
0
 62
256
370
-1
  6
ByLayer
 10
0.0
 20
0.0
 30
0.0
 40
1.5
  0
LINE
  5
54
100
AcDbEntity
100
AcDbLine
  8
0
 62
256
370
-1
  6
ByLayer
 10
5.0
 20
2.5000000000000004
 30
0.0
 11
10.0
 21
2.5000000000000009
 31
0.0
  0
LINE
  5
55
100
AcDbEntity
100
AcDbLine
  8
0
 62
256
370
-1
  6
ByLayer
 10
4.9999999999999991
 20
-2.5000000000000013
 30
0.0
 11
10.0
 21
-2.5000000000000031
 31
0.0
  0
LINE
  5
56
100
AcDbEntity
100
AcDbLine
  8
0
 62
256
370
-1
  6
ByLayer
 10
-4.9999999999999991
 20
2.5000000000000004
 30
0.0
 11
-10.0
 21
2.5000000000000022
 31
0.0
  0
LINE
  5
57
100
AcDbEntity
100
AcDbLine
  8
0
 62
256
370
-1
  6
ByLayer
 10
-5.0000000000000018
 20
-2.5
 30
0.0
 11
-10.0
 21
-2.4999999999999996
 31
0.0
  0
LINE
  5
58
100
AcDbEntity
100
AcDbLine
  8
0
 62
256
370
-1
  6
ByLayer
 10
-10.0
 20
2.5000000000000022
 30
0.0
 11
-10.0
 21
-2.4999999999999996
 31
0.0
  0
LINE
  5
59
100
AcDbEntity
100
AcDbLine
  8
0
 62
256
370
-1
  6
ByLayer
 10
-4.9999999999999991
 20
2.5000000000000004
 30
0.0
 11
-5.0000000000000018
 21
-2.5
 31
0.0
  0
LINE
  5
5A
100
AcDbEntity
100
AcDbLine
  8
0
 62
256
370
-1
  6
ByLayer
 10
5.0
 20
2.5000000000000004
 30
0.0
 11
4.9999999999999991
 21
-2.5000000000000013
 31
0.0
  0
LINE
  5
5B
100
AcDbEntity
100
AcDbLine
  8
0
 62
256
370
-1
  6
ByLayer
 10
10.0
 20
2.5000000000000009
 30
0.0
 11
10.0
 21
-2.5000000000000031
 31
0.0
  0
ENDBLK
  5
5C
100
AcDbEntity
  8
0
100
AcDbBlockEnd
  0
BLOCK
  5
5D
100
AcDbEntity
  8
0
100
AcDbBlockBegin
  2
tabs-with-bolt-20
 70
0
 10
0.0
 20
0.0
 30
0.0
  3
tabs-with-bolt-20
  1

  0
LINE
  5
5E
100
AcDbEntity
100
AcDbLine
  8
0
 62
256
370
-1
  6
ByLayer
 10
-1.499999999999996
 20
11.5000000000000036
 30
0.0
 11
1.5000000000000056
 21
11.5000000000000036
 31
0.0
  0
LINE
  5
5F
100
AcDbEntity
100
AcDbLine
  8
0
 62
256
370
-1
  6
ByLayer
 10
-2.8599999999999914
 20
8.3300000000000018
 30
0.0
 11
-2.8599999999999892
 21
10.5000000000000053
 31
0.0
  0
LINE
  5
60
100
AcDbEntity
100
AcDbLine
  8
0
 62
256
370
-1
  6
ByLayer
 10
2.8600000000000017
 20
10.4999999999999982
 30
0.0
 11
2.8599999999999972
 21
8.3300000000000018
 31
0.0
  0
LINE
  5
61
100
AcDbEntity
100
AcDbLine
  8
0
 62
256
370
-1
  6
ByLayer
 10
-1.4999999999999982
 20
8.3300000000000054
 30
0.0
 11
-2.8599999999999914
 21
8.3300000000000018
 31
0.0
  0
LINE
  5
62
100
AcDbEntity
100
AcDbLine
  8
0
 62
256
370
-1
  6
ByLayer
 10
2.8599999999999972
 20
8.3300000000000018
 30
0.0
 11
1.5000000000000049
 21
8.3299999999999983
 31
0.0
  0
LINE
  5
63
100
AcDbEntity
100
AcDbLine
  8
0
 62
256
370
-1
  6
ByLayer
 10
1.5000000000000056
 20
11.5000000000000036
 30
0.0
 11
1.5000000000000024
 21
10.5000000000000036
 31
0.0
  0
LINE
  5
64
100
AcDbEntity
100
AcDbLine
  8
0
 62
256
370
-1
  6
ByLayer
 10
1.5000000000000024
 20
10.5000000000000036
 30
0.0
 11
2.8600000000000017
 21
10.4999999999999982
 31
0.0
  0
LINE
  5
65
100
AcDbEntity
100
AcDbLine
  8
0
 62
256
370
-1
  6
ByLayer
 10
-2.8599999999999892
 20
10.5000000000000053
 30
0.0
 11
-1.4999999999999976
 21
10.5000000000000053
 31
0.0
  0
LINE
  5
66
100
AcDbEntity
100
AcDbLine
  8
0
 62
256
370
-1
  6
ByLayer
 10
-1.4999999999999976
 20
10.5000000000000053
 30
0.0
 11
-1.499999999999996
 21
11.5000000000000036
 31
0.0
  0
LINE
  5
67
100
AcDbEntity
100
AcDbLine
  8
0
 62
256
370
-1
  6
ByLayer
 10
-10.0000000000000018
 20
-4.4999999999999947
 30
0.0
 11
-10.0
 21
0.0000000000000018
 31
0.0
  0
ARC
  5
68
100
AcDbEntity
  8
0
 62
256
370
-1
  6
ByLayer
100
AcDbCircle
 10
-9.5000000000000036
 20
-4.4999999999999929
 30
0.0
 40
0.5
100
AcDbArc
 50
180.0
 51
270.0
  0
LINE
  5
69
100
AcDbEntity
100
AcDbLine
  8
0
 62
256
370
-1
  6
ByLayer
 10
-5.4999999999999964
 20
-5.0
 30
0.0
 11
-9.5000000000000036
 21
-4.9999999999999929
 31
0.0
  0
LINE
  5
6A
100
AcDbEntity
100
AcDbLine
  8
0
 62
256
370
-1
  6
ByLayer
 10
-4.9999999999999982
 20
0.0000000000000009
 30
0.0
 11
-5.0000000000000018
 21
-4.4999999999999947
 31
0.0
  0
ARC
  5
6B
100
AcDbEntity
  8
0
 62
256
370
-1
  6
ByLayer
100
AcDbCircle
 10
-5.4999999999999982
 20
-4.4999999999999982
 30
0.0
 40
0.5
100
AcDbArc
 50
270.0
 51
0.0
  0
LINE
  5
6C
100
AcDbEntity
100
AcDbLine
  8
0
 62
256
370
-1
  6
ByLayer
 10
-1.9999999999999973
 20
0.0000000000000049
 30
0.0
 11
-4.9999999999999982
 21
0.0000000000000009
 31
0.0
  0
LINE
  5
6D
100
AcDbEntity
100
AcDbLine
  8
0
 62
256
370
-1
  6
ByLayer
 10
-1.4999999999999978
 20
0.5000000000000058
 30
0.0
 11
-1.4999999999999982
 21
8.3300000000000054
 31
0.0
  0
ARC
  5
6E
100
AcDbEntity
  8
0
 62
256
370
-1
  6
ByLayer
100
AcDbCircle
 10
-1.9999999999999982
 20
0.5000000000000058
 30
0.0
 40
0.5
100
AcDbArc
 50
270.0000000000000568
 51
0.0
  0
LINE
  5
6F
100
AcDbEntity
100
AcDbLine
  8
0
 62
256
370
-1
  6
ByLayer
 10
1.5000000000000049
 20
8.3299999999999983
 30
0.0
 11
1.4999999999999967
 21
0.5000000000000013
 31
0.0
  0
LINE
  5
70
100
AcDbEntity
100
AcDbLine
  8
0
 62
256
370
-1
  6
ByLayer
 10
1.9999999999999978
 20
0.0000000000000027
 30
0.0
 11
4.9999999999999982
 21
-0.0000000000000009
 31
0.0
  0
ARC
  5
71
100
AcDbEntity
  8
0
 62
256
370
-1
  6
ByLayer
100
AcDbCircle
 10
1.9999999999999991
 20
0.500000000000004
 30
0.0
 40
0.5
100
AcDbArc
 50
180.0
 51
269.9999999999999432
  0
LINE
  5
72
100
AcDbEntity
100
AcDbLine
  8
0
 62
256
370
-1
  6
ByLayer
 10
4.9999999999999982
 20
-0.0000000000000009
 30
0.0
 11
5.0
 21
-4.4999999999999982
 31
0.0
  0
ARC
  5
73
100
AcDbEntity
  8
0
 62
256
370
-1
  6
ByLayer
100
AcDbCircle
 10
5.4999999999999964
 20
-4.5
 30
0.0
 40
0.5
100
AcDbArc
 50
180.0
 51
270.0
  0
LINE
  5
74
100
AcDbEntity
100
AcDbLine
  8
0
 62
256
370
-1
  6
ByLayer
 10
5.4999999999999929
 20
-5.0000000000000018
 30
0.0
 11
9.4999999999999947
 21
-5.0000000000000053
 31
0.0
  0
LINE
  5
75
100
AcDbEntity
100
AcDbLine
  8
0
 62
256
370
-1
  6
ByLayer
 10
9.9999999999999947
 20
-4.5000000000000018
 30
0.0
 11
9.9999999999999982
 21
-0.0000000000000071
 31
0.0
  0
ARC
  5
76
100
AcDbEntity
  8
0
 62
256
370
-1
  6
ByLayer
100
AcDbCircle
 10
9.5000000000000018
 20
-4.4999999999999982
 30
0.0
 40
0.5
100
AcDbArc
 50
270.0
 51
0.0
  0
ENDBLK
  5
77
100
AcDbEntity
  8
0
100
AcDbBlockEnd
  0
ENDSEC
  0
SECTION
  2
ENTITIES
  0
CIRCLE
  5
78
100
AcDbEntity
100
AcDbCircle
  8
1 bottom
 62
256
370
-1
  6
ByLayer
 10
39.9999999999999147
 20
-48.5379000000000929
 30
0.0
 40
2.75
  0
CIRCLE
  5
79
100
AcDbEntity
100
AcDbCircle
  8
1 bottom
 62
256
370
-1
  6
ByLayer
 10
19.8999999999999808
 20
-35.5379000000000573
 30
0.0
 40
2.75
  0
CIRCLE
  5
7A
100
AcDbEntity
100
AcDbCircle
  8
1 bottom
 62
256
370
-1
  6
ByLayer
 10
60.0999999999999659
 20
-35.5379000000000929
 30
0.0
 40
2.75
  0
LINE
  5
7B
100
AcDbEntity
100
AcDbLine
  8
1 bottom
 62
256
370
-1
  6
ByLayer
 10
46.7699999999998823
 20
-66.1679000000001167
 30
0.0
 11
44.0299999999998946
 21
-66.1679000000001167
 31
0.0
  0
LINE
  5
7C
100
AcDbEntity
100
AcDbLine
  8
1 bottom
 62
256
370
-1
  6
ByLayer
 10
46.7699999999999179
 20
-68.9079000000000406
 30
0.0
 11
46.7699999999998823
 21
-66.1679000000001167
 31
0.0
  0
LINE
  5
7D
100
AcDbEntity
100
AcDbLine
  8
1 bottom
 62
256
370
-1
  6
ByLayer
 10
44.0299999999998946
 20
-66.1679000000001167
 30
0.0
 11
44.0299999999999088
 21
-68.907900000000069
 31
0.0
  0
LINE
  5
7E
100
AcDbEntity
100
AcDbLine
  8
1 bottom
 62
256
370
-1
  6
ByLayer
 10
44.0299999999999088
 20
-68.907900000000069
 30
0.0
 11
46.7699999999999179
 21
-68.9079000000000406
 31
0.0
  0
LINE
  5
7F
100
AcDbEntity
100
AcDbLine
  8
1 bottom
 62
256
370
-1
  6
ByLayer
 10
35.9699999999999065
 20
-66.1679000000001167
 30
0.0
 11
33.2299999999999116
 21
-66.1679000000001167
 31
0.0
  0
LINE
  5
80
100
AcDbEntity
100
AcDbLine
  8
1 bottom
 62
256
370
-1
  6
ByLayer
 10
35.9699999999998994
 20
-68.9079000000000406
 30
0.0
 11
35.9699999999999065
 21
-66.1679000000001167
 31
0.0
  0
LINE
  5
81
100
AcDbEntity
100
AcDbLine
  8
1 bottom
 62
256
370
-1
  6
ByLayer
 10
33.2299999999999116
 20
-66.1679000000001167
 30
0.0
 11
33.2299999999998761
 21
-68.9079000000000406
 31
0.0
  0
LINE
  5
82
100
AcDbEntity
100
AcDbLine
  8
1 bottom
 62
256
370
-1
  6
ByLayer
 10
33.2299999999998761
 20
-68.9079000000000406
 30
0.0
 11
35.9699999999998994
 21
-68.9079000000000406
 31
0.0
  0
LINE
  5
83
100
AcDbEntity
100
AcDbLine
  8
1 bottom
 62
256
370
-1
  6
ByLayer
 10
41.3699999999999477
 20
-34.1679000000001167
 30
0.0
 11
38.6299999999999386
 21
-34.1679000000001167
 31
0.0
  0
LINE
  5
84
100
AcDbEntity
100
AcDbLine
  8
1 bottom
 62
256
370
-1
  6
ByLayer
 10
41.3699999999999193
 20
-36.907900000000069
 30
0.0
 11
41.3699999999999477
 21
-34.1679000000001167
 31
0.0
  0
LINE
  5
85
100
AcDbEntity
100
AcDbLine
  8
1 bottom
 62
256
370
-1
  6
ByLayer
 10
38.6299999999999386
 20
-34.1679000000001167
 30
0.0
 11
38.6299999999999386
 21
-36.907900000000069
 31
0.0
  0
LINE
  5
86
100
AcDbEntity
100
AcDbLine
  8
1 bottom
 62
256
370
-1
  6
ByLayer
 10
38.6299999999999386
 20
-36.907900000000069
 30
0.0
 11
41.3699999999999193
 21
-36.907900000000069
 31
0.0
  0
LINE
  5
87
100
AcDbEntity
100
AcDbLine
  8
1 bottom
 62
256
370
-1
  6
ByLayer
 10
46.769999999999925
 20
-20.1679000000001132
 30
0.0
 11
44.0299999999999514
 21
-20.1679000000001167
 31
0.0
  0
LINE
  5
88
100
AcDbEntity
100
AcDbLine
  8
1 bottom
 62
256
370
-1
  6
ByLayer
 10
46.7699999999999321
 20
-22.9079000000000654
 30
0.0
 11
46.769999999999925
 21
-20.1679000000001132
 31
0.0
  0
LINE
  5
89
100
AcDbEntity
100
AcDbLine
  8
1 bottom
 62
256
370
-1
  6
ByLayer
 10
44.0299999999999514
 20
-20.1679000000001167
 30
0.0
 11
44.0299999999999443
 21
-22.9079000000000406
 31
0.0
  0
LINE
  5
8A
100
AcDbEntity
100
AcDbLine
  8
1 bottom
 62
256
370
-1
  6
ByLayer
 10
44.0299999999999443
 20
-22.9079000000000406
 30
0.0
 11
46.7699999999999321
 21
-22.9079000000000654
 31
0.0
  0
LINE
  5
8B
100
AcDbEntity
100
AcDbLine
  8
1 bottom
 62
256
370
-1
  6
ByLayer
 10
35.9699999999999491
 20
-20.1679000000001167
 30
0.0
 11
33.22999999999994
 21
-20.1679000000001167
 31
0.0
  0
LINE
  5
8C
100
AcDbEntity
100
AcDbLine
  8
1 bottom
 62
256
370
-1
  6
ByLayer
 10
35.969999999999942
 20
-22.9079000000000654
 30
0.0
 11
35.9699999999999491
 21
-20.1679000000001167
 31
0.0
  0
LINE
  5
8D
100
AcDbEntity
100
AcDbLine
  8
1 bottom
 62
256
370
-1
  6
ByLayer
 10
33.22999999999994
 20
-20.1679000000001167
 30
0.0
 11
33.22999999999994
 21
-22.907900000000069
 31
0.0
  0
LINE
  5
8E
100
AcDbEntity
100
AcDbLine
  8
1 bottom
 62
256
370
-1
  6
ByLayer
 10
33.22999999999994
 20
-22.907900000000069
 30
0.0
 11
35.969999999999942
 21
-22.9079000000000654
 31
0.0
  0
INSERT
  5
8F
100
AcDbEntity
100
AcDbBlockReference
  8
1 bottom
 62
256
370
-1
  6
ByLayer
  2
holes-20
 10
23.0000025951828064
 20
1.4620999999999427
 30
0.0
 50
360.0
 44
1.0
 45
1.0
  0
CIRCLE
  5
90
100
AcDbEntity
100
AcDbCircle
  8
1 bottom
 62
256
370
-1
  6
ByLayer
 10
55.0399999999999636
 20
-35.4979000000001008
 30
0.0
 40
2.7000000000000002
  0
CIRCLE
  5
91
100
AcDbEntity
100
AcDbCircle
  8
1 bottom
 62
256
370
-1
  6
ByLayer
 10
40.0399999999999565
 20
-50.4979000000001008
 30
0.0
 40
2.7000000000000002
  0
CIRCLE
  5
92
100
AcDbEntity
100
AcDbCircle
  8
1 bottom
 62
256
370
-1
  6
ByLayer
 10
25.0399999999999601
 20
-35.4979000000001008
 30
0.0
 40
2.7000000000000002
  0
INSERT
  5
93
100
AcDbEntity
100
AcDbBlockReference
  8
1 bottom
 62
256
370
-1
  6
ByLayer
  2
holes-20
 10
23.0000025951827674
 20
-90.461700000000036
 30
0.0
 50
360.0
 44
1.0
 45
1.0
  0
INSERT
  5
94
100
AcDbEntity
100
AcDbBlockReference
  8
1 bottom
 62
256
370
-1
  6
ByLayer
  2
holes-20
 10
57.0
 20
1.4620999999999356
 30
0.0
 50
360.0
 44
1.0
 45
1.0
  0
INSERT
  5
95
100
AcDbEntity
100
AcDbBlockReference
  8
1 bottom
 62
256
370
-1
  6
ByLayer
  2
holes-20
 10
56.9999999999999289
 20
-90.461700000000036
 30
0.0
 50
360.0
 44
1.0
 45
1.0
  0
LINE
  5
96
100
AcDbEntity
100
AcDbLine
  8
1 bottom
 62
256
370
-1
  6
ByLayer
 10
71.9999999999999147
 20
-94.5
 30
0.0
 11
7.9999999999999929
 21
-94.4999999999999147
 31
0.0
  0
LINE
  5
97
100
AcDbEntity
100
AcDbLine
  8
1 bottom
 62
256
370
-1
  6
ByLayer
 10
8.0000000000000036
 20
-94.5
 30
0.0
 11
8.0000000000000746
 21
5.5
 31
0.0
  0
LINE
  5
98
100
AcDbEntity
100
AcDbLine
  8
1 bottom
 62
256
370
-1
  6
ByLayer
 10
71.9999999999999858
 20
5.4999999999999716
 30
0.0
 11
71.9999999999999147
 21
-94.5000000000000142
 31
0.0
  0
ARC
  5
99
100
AcDbEntity
  8
1 bottom
 62
256
370
-1
  6
ByLayer
100
AcDbCircle
 10
48.4809512975914103
 20
7.5000000000000142
 30
0.0
 40
2.0
100
AcDbArc
 50
180.0
 51
270.0
  0
ARC
  5
9A
100
AcDbEntity
  8
1 bottom
 62
256
370
-1
  6
ByLayer
100
AcDbCircle
 10
31.5190512975914032
 20
7.5
 30
0.0
 40
2.0
100
AcDbArc
 50
270.0
 51
360.0
  0
LINE
  5
9B
100
AcDbEntity
100
AcDbLine
  8
1 bottom
 62
256
370
-1
  6
ByLayer
 10
8.0000000000000746
 20
5.5
 30
0.0
 11
31.5190512975914068
 21
5.5
 31
0.0
  0
LINE
  5
9C
100
AcDbEntity
100
AcDbLine
  8
1 bottom
 62
256
370
-1
  6
ByLayer
 10
48.4809512975914032
 20
5.5000000000000142
 30
0.0
 11
71.9999999999999858
 21
5.4999999999999716
 31
0.0
  0
CIRCLE
  5
9D
100
AcDbEntity
100
AcDbCircle
  8
1 bottom
 62
256
370
-1
  6
ByLayer
 10
40.0000000000000142
 20
9.9999999999999858
 30
0.0
 40
1.45
  0
ARC
  5
9E
100
AcDbEntity
  8
1 bottom
 62
256
370
-1
  6
ByLayer
100
AcDbCircle
 10
44.4809500000014211
 20
12.5000000000000071
 30
0.0
 40
2.0
100
AcDbArc
 50
0.0
 51
90.0
  0
ARC
  5
9F
100
AcDbEntity
  8
1 bottom
 62
256
370
-1
  6
ByLayer
100
AcDbCircle
 10
35.519050000001414
 20
12.4999999999999929
 30
0.0
 40
2.0
100
AcDbArc
 50
90.0
 51
180.0
  0
LINE
  5
A0
100
AcDbEntity
100
AcDbLine
  8
1 bottom
 62
256
370
-1
  6
ByLayer
 10
35.5190500000014069
 20
14.4999999999999929
 30
0.0
 11
44.4809500000014211
 21
14.4999999999999858
 31
0.0
  0
LINE
  5
A1
100
AcDbEntity
100
AcDbLine
  8
1 bottom
 62
256
370
-1
  6
ByLayer
 10
40.0000000000000142
 20
11.4499999999999886
 30
0.0
 11
40.0000000000000142
 21
14.4999999999999858
 31
0.0
  0
LINE
  5
A2
100
AcDbEntity
100
AcDbLine
  8
1 bottom
 62
256
370
-1
  6
ByLayer
 10
33.5190512975914032
 20
7.5
 30
0.0
 11
33.5190502531525851
 21
12.4999998457037904
 31
0.0
  0
LINE
  5
A3
100
AcDbEntity
100
AcDbLine
  8
1 bottom
 62
256
370
-1
  6
ByLayer
 10
46.4809502531524359
 20
12.5000004177756168
 30
0.0
 11
46.4809512975914103
 21
7.5000000000000142
 31
0.0
  0
ARC
  5
A4
100
AcDbEntity
  8
4 side
 62
256
370
-1
  6
ByLayer
100
AcDbCircle
 10
22.9936419824761344
 20
-107.0625000000000426
 30
0.0
 40
1.0
100
AcDbArc
 50
0.0
 51
90.0
  0
CIRCLE
  5
A5
100
AcDbEntity
100
AcDbCircle
  8
4 side
 62
256
370
-1
  6
ByLayer
 10
21.9925421074045104
 20
-125.3624999999999829
 30
0.0
 40
3.5
  0
ARC
  5
A6
100
AcDbEntity
  8
4 side
 62
256
370
-1
  6
ByLayer
100
AcDbCircle
 10
18.6936419824761515
 20
-110.9111999999999938
 30
0.0
 40
2.1560000000000001
100
AcDbArc
 50
136.4199999999999875
 51
270.0
  0
LINE
  5
A7
100
AcDbEntity
100
AcDbLine
  8
4 side
 62
256
370
-1
  6
ByLayer
 10
17.1318085463525946
 20
-107.0625
 30
0.0
 11
17.1318085463525875
 21
-109.4249253558623707
 31
0.0
  0
ARC
  5
A8
100
AcDbEntity
  8
4 side
 62
256
370
-1
  6
ByLayer
100
AcDbCircle
 10
14.9936419824761487
 20
-119.8125000000007958
 30
0.0
 40
1.0
100
AcDbArc
 50
89.9999999999995879
 51
89.9999999999995879
  0
LINE
  5
A9
100
AcDbEntity
100
AcDbLine
  8
4 side
 62
256
370
-1
  6
ByLayer
 10
17.74996597831732
 20
-112.8530436083203909
 30
0.0
 11
15.3618681963401258
 21
-118.8827637710494258
 31
0.0
  0
LINE
  5
AA
100
AcDbEntity
100
AcDbLine
  8
4 side
 62
256
370
-1
  6
ByLayer
 10
125.1673904258634593
 20
-127.0881267124406691
 30
0.0
 11
125.1673904258634593
 21
-127.0881267124406691
 31
0.0
  0
LINE
  5
AB
100
AcDbEntity
100
AcDbLine
  8
4 side
 62
256
370
-1
  6
ByLayer
 10
125.1673904258634593
 20
-127.0881267124406691
 30
0.0
 11
125.1673904258634593
 21
-127.0881267124406691
 31
0.0
  0
CIRCLE
  5
AC
100
AcDbEntity
100
AcDbCircle
  8
4 side
 62
256
370
-1
  6
ByLayer
 10
125.4936419824761487
 20
-125.5881267124406833
 30
0.0
 40
1.5
  0
LINE
  5
AD
100
AcDbEntity
100
AcDbLine
  8
4 side
 62
256
370
-1
  6
ByLayer
 10
128.9936419824761629
 20
-127.0881267124406548
 30
0.0
 11
125.4936419824761487
 21
-127.0881267124406548
 31
0.0
  0
LINE
  5
AE
100
AcDbEntity
100
AcDbLine
  8
4 side
 62
256
370
-1
  6
ByLayer
 10
125.4936419824761487
 20
-127.0881267124406548
 30
0.0
 11
121.9936419824761629
 21
-127.0881267124406264
 31
0.0
  0
ARC
  5
AF
100
AcDbEntity
  8
4 side
 62
256
370
-1
  6
ByLayer
100
AcDbCircle
 10
129.2936419824761742
 20
-110.9125046240611994
 30
0.0
 40
2.1560000000000001
100
AcDbArc
 50
270.0
 51
43.5800000000000267
  0
ARC
  5
B0
100
AcDbEntity
  8
4 side
 62
256
370
-1
  6
ByLayer
100
AcDbCircle
 10
131.855475418599724
 20
-107.0638046240611914
 30
0.0
 40
1.0
100
AcDbArc
 50
89.9999999999999858
 51
180.0
  0
LINE
  5
B1
100
AcDbEntity
100
AcDbLine
  8
4 side
 62
256
370
-1
  6
ByLayer
 10
130.855475418599724
 20
-107.0638046240611772
 30
0.0
 11
130.855475418599724
 21
-109.4262299799235194
 31
0.0
  0
ARC
  5
B2
100
AcDbEntity
  8
4 side
 62
256
370
-1
  6
ByLayer
100
AcDbCircle
 10
132.9936419824761629
 20
-119.8138046240621861
 30
0.0
 40
1.0
100
AcDbArc
 50
90.0000000000003979
 51
90.0000000000003979
  0
LINE
  5
B3
100
AcDbEntity
100
AcDbLine
  8
4 side
 62
256
370
-1
  6
ByLayer
 10
130.2373179866349915
 20
-112.8543482323815681
 30
0.0
 11
132.6254157686121857
 21
-118.8840683951102761
 31
0.0
  0
ARC
  5
B4
100
AcDbEntity
  8
4 side
 62
256
370
-1
  6
ByLayer
100
AcDbCircle
 10
124.9936419824761913
 20
-107.0638046240611914
 30
0.0
 40
1.0
100
AcDbArc
 50
90.0
 51
180.0
  0
LINE
  5
B5
100
AcDbEntity
100
AcDbLine
  8
4 side
 62
256
370
-1
  6
ByLayer
 10
41.9936419824761487
 20
-128.9375
 30
0.0
 11
41.9936419824761558
 21
-133.9375
 31
0.0
  0
LINE
  5
B6
100
AcDbEntity
100
AcDbLine
  8
4 side
 62
256
370
-1
  6
ByLayer
 10
41.9936419824761487
 20
-128.9375
 30
0.0
 11
46.9936445776589551
 21
-128.9375
 31
0.0
  0
LINE
  5
B7
100
AcDbEntity
100
AcDbLine
  8
4 side
 62
256
370
-1
  6
ByLayer
 10
66.9936445776589551
 20
-128.9375
 30
0.0
 11
80.9936419824761487
 21
-128.9375
 31
0.0
  0
LINE
  5
B8
100
AcDbEntity
100
AcDbLine
  8
4 side
 62
256
370
-1
  6
ByLayer
 10
105.9936419824761487
 20
-128.9375
 30
0.0
 11
105.9936419824761487
 21
-133.9375
 31
0.0
  0
LINE
  5
B9
100
AcDbEntity
100
AcDbLine
  8
4 side
 62
256
370
-1
  6
ByLayer
 10
100.9936419824761487
 20
-128.9375
 30
0.0
 11
105.9936419824761487
 21
-128.9375
 31
0.0
  0
LINE
  5
BA
100
AcDbEntity
100
AcDbLine
  8
4 side
 62
256
370
-1
  6
ByLayer
 10
55.4936445776589551
 20
-121.834201871952871
 30
0.0
 11
58.4936445776589622
 21
-121.834201871952871
 31
0.0
  0
LINE
  5
BB
100
AcDbEntity
100
AcDbLine
  8
4 side
 62
256
370
-1
  6
ByLayer
 10
54.1336445776589628
 20
-125.0042018719528585
 30
0.0
 11
54.1336445776589699
 21
-122.834201871952871
 31
0.0
  0
LINE
  5
BC
100
AcDbEntity
100
AcDbLine
  8
4 side
 62
256
370
-1
  6
ByLayer
 10
59.8536445776589545
 20
-122.834201871952871
 30
0.0
 11
59.8536445776589545
 21
-125.0042018719528727
 31
0.0
  0
LINE
  5
BD
100
AcDbEntity
100
AcDbLine
  8
4 side
 62
256
370
-1
  6
ByLayer
 10
55.4936445776589551
 20
-125.0042018719528585
 30
0.0
 11
54.1336445776589628
 21
-125.0042018719528585
 31
0.0
  0
LINE
  5
BE
100
AcDbEntity
100
AcDbLine
  8
4 side
 62
256
370
-1
  6
ByLayer
 10
59.8536445776589545
 20
-125.0042018719528727
 30
0.0
 11
58.4936445776589551
 21
-125.0042018719528727
 31
0.0
  0
LINE
  5
BF
100
AcDbEntity
100
AcDbLine
  8
4 side
 62
256
370
-1
  6
ByLayer
 10
58.4936445776589622
 20
-121.834201871952871
 30
0.0
 11
58.4936445776589551
 21
-122.834201871952871
 31
0.0
  0
LINE
  5
C0
100
AcDbEntity
100
AcDbLine
  8
4 side
 62
256
370
-1
  6
ByLayer
 10
58.4936445776589551
 20
-122.834201871952871
 30
0.0
 11
59.8536445776589545
 21
-122.834201871952871
 31
0.0
  0
LINE
  5
C1
100
AcDbEntity
100
AcDbLine
  8
4 side
 62
256
370
-1
  6
ByLayer
 10
54.1336445776589699
 20
-122.834201871952871
 30
0.0
 11
55.4936445776589551
 21
-122.834201871952871
 31
0.0
  0
LINE
  5
C2
100
AcDbEntity
100
AcDbLine
  8
4 side
 62
256
370
-1
  6
ByLayer
 10
55.4936445776589551
 20
-122.834201871952871
 30
0.0
 11
55.4936445776589551
 21
-121.834201871952871
 31
0.0
  0
LINE
  5
C3
100
AcDbEntity
100
AcDbLine
  8
4 side
 62
256
370
-1
  6
ByLayer
 10
55.4936445776589551
 20
-128.4375
 30
0.0
 11
55.4936445776589551
 21
-125.0042018719528585
 31
0.0
  0
LINE
  5
C4
100
AcDbEntity
100
AcDbLine
  8
4 side
 62
256
370
-1
  6
ByLayer
 10
58.4936445776589551
 20
-125.0042018719528727
 30
0.0
 11
58.4936445776589551
 21
-128.4375
 31
0.0
  0
LINE
  5
C5
100
AcDbEntity
100
AcDbLine
  8
4 side
 62
256
370
-1
  6
ByLayer
 10
46.9936445776589551
 20
-133.4375
 30
0.0
 11
46.9936445776589551
 21
-128.9375
 31
0.0
  0
ARC
  5
C6
100
AcDbEntity
  8
4 side
 62
256
370
-1
  6
ByLayer
100
AcDbCircle
 10
47.4936445776589409
 20
-133.4375
 30
0.0
 40
0.5
100
AcDbArc
 50
180.0
 51
270.0
  0
LINE
  5
C7
100
AcDbEntity
100
AcDbLine
  8
4 side
 62
256
370
-1
  6
ByLayer
 10
51.4936445776589551
 20
-133.9375
 30
0.0
 11
47.4936445776589409
 21
-133.9375
 31
0.0
  0
LINE
  5
C8
100
AcDbEntity
100
AcDbLine
  8
4 side
 62
256
370
-1
  6
ByLayer
 10
51.9936445776589551
 20
-128.9375
 30
0.0
 11
51.9936445776589551
 21
-133.4375
 31
0.0
  0
ARC
  5
C9
100
AcDbEntity
  8
4 side
 62
256
370
-1
  6
ByLayer
100
AcDbCircle
 10
51.493644577658948
 20
-133.4375
 30
0.0
 40
0.5
100
AcDbArc
 50
270.0
 51
0.0
  0
LINE
  5
CA
100
AcDbEntity
100
AcDbLine
  8
4 side
 62
256
370
-1
  6
ByLayer
 10
54.9936445776589551
 20
-128.9375
 30
0.0
 11
51.9936445776589551
 21
-128.9375
 31
0.0
  0
ARC
  5
CB
100
AcDbEntity
  8
4 side
 62
256
370
-1
  6
ByLayer
100
AcDbCircle
 10
54.9936445776589551
 20
-128.4375
 30
0.0
 40
0.5
100
AcDbArc
 50
270.0000000000000568
 51
0.0
  0
LINE
  5
CC
100
AcDbEntity
100
AcDbLine
  8
4 side
 62
256
370
-1
  6
ByLayer
 10
58.993644577658948
 20
-128.9375
 30
0.0
 11
61.9936445776589551
 21
-128.9375
 31
0.0
  0
ARC
  5
CD
100
AcDbEntity
  8
4 side
 62
256
370
-1
  6
ByLayer
100
AcDbCircle
 10
58.9936445776589551
 20
-128.4375
 30
0.0
 40
0.5
100
AcDbArc
 50
180.0
 51
269.9999999999999432
  0
LINE
  5
CE
100
AcDbEntity
100
AcDbLine
  8
4 side
 62
256
370
-1
  6
ByLayer
 10
61.9936445776589551
 20
-128.9375
 30
0.0
 11
61.993644577658948
 21
-133.4375
 31
0.0
  0
ARC
  5
CF
100
AcDbEntity
  8
4 side
 62
256
370
-1
  6
ByLayer
100
AcDbCircle
 10
62.4936445776589409
 20
-133.4375
 30
0.0
 40
0.5
100
AcDbArc
 50
180.0
 51
270.0
  0
LINE
  5
D0
100
AcDbEntity
100
AcDbLine
  8
4 side
 62
256
370
-1
  6
ByLayer
 10
62.493644577658948
 20
-133.9375
 30
0.0
 11
66.4936445776589551
 21
-133.9375
 31
0.0
  0
LINE
  5
D1
100
AcDbEntity
100
AcDbLine
  8
4 side
 62
256
370
-1
  6
ByLayer
 10
66.9936445776589409
 20
-133.4375
 30
0.0
 11
66.9936445776589551
 21
-128.9375
 31
0.0
  0
ARC
  5
D2
100
AcDbEntity
  8
4 side
 62
256
370
-1
  6
ByLayer
100
AcDbCircle
 10
66.4936445776589551
 20
-133.4375
 30
0.0
 40
0.5
100
AcDbArc
 50
270.0
 51
0.0
  0
LINE
  5
D3
100
AcDbEntity
100
AcDbLine
  8
4 side
 62
256
370
-1
  6
ByLayer
 10
89.4936419824761487
 20
-121.834201871952871
 30
0.0
 11
92.4936419824761629
 21
-121.834201871952871
 31
0.0
  0
LINE
  5
D4
100
AcDbEntity
100
AcDbLine
  8
4 side
 62
256
370
-1
  6
ByLayer
 10
88.1336419824761492
 20
-125.0042018719528727
 30
0.0
 11
88.1336419824761634
 21
-122.834201871952871
 31
0.0
  0
LINE
  5
D5
100
AcDbEntity
100
AcDbLine
  8
4 side
 62
256
370
-1
  6
ByLayer
 10
93.8536419824761481
 20
-122.834201871952871
 30
0.0
 11
93.8536419824761481
 21
-125.0042018719528727
 31
0.0
  0
LINE
  5
D6
100
AcDbEntity
100
AcDbLine
  8
4 side
 62
256
370
-1
  6
ByLayer
 10
89.4936419824761629
 20
-125.0042018719528585
 30
0.0
 11
88.1336419824761492
 21
-125.0042018719528727
 31
0.0
  0
LINE
  5
D7
100
AcDbEntity
100
AcDbLine
  8
4 side
 62
256
370
-1
  6
ByLayer
 10
93.8536419824761481
 20
-125.0042018719528727
 30
0.0
 11
92.4936419824761487
 21
-125.0042018719528869
 31
0.0
  0
LINE
  5
D8
100
AcDbEntity
100
AcDbLine
  8
4 side
 62
256
370
-1
  6
ByLayer
 10
92.4936419824761629
 20
-121.834201871952871
 30
0.0
 11
92.4936419824761629
 21
-122.834201871952871
 31
0.0
  0
LINE
  5
D9
100
AcDbEntity
100
AcDbLine
  8
4 side
 62
256
370
-1
  6
ByLayer
 10
92.4936419824761629
 20
-122.834201871952871
 30
0.0
 11
93.8536419824761481
 21
-122.834201871952871
 31
0.0
  0
LINE
  5
DA
100
AcDbEntity
100
AcDbLine
  8
4 side
 62
256
370
-1
  6
ByLayer
 10
88.1336419824761634
 20
-122.834201871952871
 30
0.0
 11
89.4936419824761487
 21
-122.834201871952871
 31
0.0
  0
LINE
  5
DB
100
AcDbEntity
100
AcDbLine
  8
4 side
 62
256
370
-1
  6
ByLayer
 10
89.4936419824761487
 20
-122.834201871952871
 30
0.0
 11
89.4936419824761487
 21
-121.834201871952871
 31
0.0
  0
LINE
  5
DC
100
AcDbEntity
100
AcDbLine
  8
4 side
 62
256
370
-1
  6
ByLayer
 10
89.4936419824761629
 20
-128.4375
 30
0.0
 11
89.4936419824761629
 21
-125.0042018719528585
 31
0.0
  0
LINE
  5
DD
100
AcDbEntity
100
AcDbLine
  8
4 side
 62
256
370
-1
  6
ByLayer
 10
92.4936419824761487
 20
-125.0042018719528869
 30
0.0
 11
92.4936419824761487
 21
-128.4375
 31
0.0
  0
LINE
  5
DE
100
AcDbEntity
100
AcDbLine
  8
4 side
 62
256
370
-1
  6
ByLayer
 10
88.9936419824761487
 20
-128.9375
 30
0.0
 11
85.9936419824761487
 21
-128.9375
 31
0.0
  0
ARC
  5
DF
100
AcDbEntity
  8
4 side
 62
256
370
-1
  6
ByLayer
100
AcDbCircle
 10
88.9936419824761487
 20
-128.4375
 30
0.0
 40
0.5
100
AcDbArc
 50
270.0000000000000568
 51
0.0
  0
LINE
  5
E0
100
AcDbEntity
100
AcDbLine
  8
4 side
 62
256
370
-1
  6
ByLayer
 10
92.9936419824761487
 20
-128.9375
 30
0.0
 11
95.9936419824761487
 21
-128.9375
 31
0.0
  0
ARC
  5
E1
100
AcDbEntity
  8
4 side
 62
256
370
-1
  6
ByLayer
100
AcDbCircle
 10
92.9936419824761487
 20
-128.4375
 30
0.0
 40
0.5
100
AcDbArc
 50
180.0
 51
269.9999999999999432
  0
LINE
  5
E2
100
AcDbEntity
100
AcDbLine
  8
4 side
 62
256
370
-1
  6
ByLayer
 10
80.9936419824761487
 20
-133.4375
 30
0.0
 11
80.9936419824761487
 21
-128.9375
 31
0.0
  0
ARC
  5
E3
100
AcDbEntity
  8
4 side
 62
256
370
-1
  6
ByLayer
100
AcDbCircle
 10
81.4936419824761344
 20
-133.4375
 30
0.0
 40
0.5
100
AcDbArc
 50
180.0
 51
270.0
  0
LINE
  5
E4
100
AcDbEntity
100
AcDbLine
  8
4 side
 62
256
370
-1
  6
ByLayer
 10
85.4936419824761487
 20
-133.9375
 30
0.0
 11
81.4936419824761344
 21
-133.9375
 31
0.0
  0
LINE
  5
E5
100
AcDbEntity
100
AcDbLine
  8
4 side
 62
256
370
-1
  6
ByLayer
 10
85.9936419824761487
 20
-128.9375
 30
0.0
 11
85.9936419824761344
 21
-133.4375
 31
0.0
  0
ARC
  5
E6
100
AcDbEntity
  8
4 side
 62
256
370
-1
  6
ByLayer
100
AcDbCircle
 10
85.4936419824761487
 20
-133.4375
 30
0.0
 40
0.5
100
AcDbArc
 50
270.0
 51
0.0
  0
LINE
  5
E7
100
AcDbEntity
100
AcDbLine
  8
4 side
 62
256
370
-1
  6
ByLayer
 10
88.9936419824761487
 20
-128.9375
 30
0.0
 11
85.9936419824761487
 21
-128.9375
 31
0.0
  0
ARC
  5
E8
100
AcDbEntity
  8
4 side
 62
256
370
-1
  6
ByLayer
100
AcDbCircle
 10
88.9936419824761487
 20
-128.4375
 30
0.0
 40
0.5
100
AcDbArc
 50
270.0000000000000568
 51
0.0
  0
LINE
  5
E9
100
AcDbEntity
100
AcDbLine
  8
4 side
 62
256
370
-1
  6
ByLayer
 10
92.9936419824761487
 20
-128.9375
 30
0.0
 11
95.9936419824761487
 21
-128.9375
 31
0.0
  0
ARC
  5
EA
100
AcDbEntity
  8
4 side
 62
256
370
-1
  6
ByLayer
100
AcDbCircle
 10
92.9936419824761487
 20
-128.4375
 30
0.0
 40
0.5
100
AcDbArc
 50
180.0
 51
269.9999999999999432
  0
LINE
  5
EB
100
AcDbEntity
100
AcDbLine
  8
4 side
 62
256
370
-1
  6
ByLayer
 10
95.9936419824761487
 20
-128.9375
 30
0.0
 11
95.9936419824761487
 21
-133.4375
 31
0.0
  0
ARC
  5
EC
100
AcDbEntity
  8
4 side
 62
256
370
-1
  6
ByLayer
100
AcDbCircle
 10
96.4936419824761344
 20
-133.4375
 30
0.0
 40
0.5
100
AcDbArc
 50
180.0
 51
270.0
  0
LINE
  5
ED
100
AcDbEntity
100
AcDbLine
  8
4 side
 62
256
370
-1
  6
ByLayer
 10
96.4936419824761344
 20
-133.9375000000000284
 30
0.0
 11
100.4936419824761344
 21
-133.9375
 31
0.0
  0
LINE
  5
EE
100
AcDbEntity
100
AcDbLine
  8
4 side
 62
256
370
-1
  6
ByLayer
 10
100.9936419824761344
 20
-133.4375000000000284
 30
0.0
 11
100.9936419824761487
 21
-128.9375
 31
0.0
  0
ARC
  5
EF
100
AcDbEntity
  8
4 side
 62
256
370
-1
  6
ByLayer
100
AcDbCircle
 10
100.4936419824761487
 20
-133.4375
 30
0.0
 40
0.5
100
AcDbArc
 50
270.0
 51
0.0
  0
CIRCLE
  5
F0
100
AcDbEntity
100
AcDbCircle
  8
4 side
 62
256
370
-1
  6
ByLayer
 10
16.4925419824761477
 20
-125.3624999999999972
 30
0.0
 40
1.2
  0
CIRCLE
  5
F1
100
AcDbEntity
100
AcDbCircle
  8
4 side
 62
256
370
-1
  6
ByLayer
 10
27.4925419824761477
 20
-125.3625000000000114
 30
0.0
 40
1.2
  0
ARC
  5
F2
100
AcDbEntity
  8
4 side
 62
256
370
-1
  6
ByLayer
100
AcDbCircle
 10
21.4936419824761487
 20
-107.0625000000000142
 30
0.0
 40
1.0
100
AcDbArc
 50
90.0000000000000142
 51
180.0
  0
LINE
  5
F3
100
AcDbEntity
100
AcDbLine
  8
4 side
 62
256
370
-1
  6
ByLayer
 10
22.9936419824761202
 20
-106.0624999999999858
 30
0.0
 11
21.4936419824761415
 21
-106.0625000000000284
 31
0.0
  0
LINE
  5
F4
100
AcDbEntity
100
AcDbLine
  8
4 side
 62
256
370
-1
  6
ByLayer
 10
20.4936419824761487
 20
-107.0625000000000284
 30
0.0
 11
20.4936419824761487
 21
-109.7244666685392076
 31
0.0
  0
ARC
  5
F5
100
AcDbEntity
  8
4 side
 62
256
370
-1
  6
ByLayer
100
AcDbCircle
 10
18.6936419824761515
 20
-110.9111999999999938
 30
0.0
 40
2.1590000000000034
100
AcDbArc
 50
244.081679959216558
 51
33.3967167573164119
  0
ARC
  5
F6
100
AcDbEntity
  8
4 side
 62
256
370
-1
  6
ByLayer
100
AcDbCircle
 10
126.4936419824761487
 20
-107.0638046240611914
 30
0.0
 40
1.0
100
AcDbArc
 50
360.0
 51
89.9999999999999858
  0
LINE
  5
F7
100
AcDbEntity
100
AcDbLine
  8
4 side
 62
256
370
-1
  6
ByLayer
 10
124.9936419824761913
 20
-106.0638046240612056
 30
0.0
 11
126.4936419824761487
 21
-106.0638046240612056
 31
0.0
  0
LINE
  5
F8
100
AcDbEntity
100
AcDbLine
  8
4 side
 62
256
370
-1
  6
ByLayer
 10
127.4936419824761487
 20
-107.0638046240612056
 30
0.0
 11
127.4936419824761487
 21
-109.7257712926004558
 31
0.0
  0
ARC
  5
F9
100
AcDbEntity
  8
4 side
 62
256
370
-1
  6
ByLayer
100
AcDbCircle
 10
129.2936419824761742
 20
-110.9125046240611994
 30
0.0
 40
2.1559999999999975
100
AcDbArc
 50
146.6032832426844266
 51
295.9183200407831009
  0
ARC
  5
FA
100
AcDbEntity
  8
4 side
 62
256
370
-1
  6
ByLayer
100
AcDbCircle
 10
131.855475418599724
 20
-125.9375000000000426
 30
0.0
 40
7.9999999999999982
100
AcDbArc
 50
270.0
 51
0.0
  0
LINE
  5
FB
100
AcDbEntity
100
AcDbLine
  8
4 side
 62
256
370
-1
  6
ByLayer
 10
139.855475418599724
 20
-123.8125000000009379
 30
0.0
 11
139.855475418599724
 21
-125.9374999999999289
 31
0.0
  0
ARC
  5
FC
100
AcDbEntity
  8
4 side
 62
256
370
-1
  6
ByLayer
100
AcDbCircle
 10
131.855475418599724
 20
-114.063804624061234
 30
0.0
 40
7.9999999999999982
100
AcDbArc
 50
0.0
 51
90.0000000000000142
  0
LINE
  5
FD
100
AcDbEntity
100
AcDbLine
  8
4 side
 62
256
370
-1
  6
ByLayer
 10
139.855475418599724
 20
-114.0638046240611487
 30
0.0
 11
139.855475418599724
 21
-123.8125000000009379
 31
0.0
  0
LINE
  5
FE
100
AcDbEntity
100
AcDbLine
  8
4 side
 62
256
370
-1
  6
ByLayer
 10
105.9936419824761487
 20
-133.9375
 30
0.0
 11
131.8554754185996956
 21
-133.9375000000000568
 31
0.0
  0
LINE
  5
FF
100
AcDbEntity
100
AcDbLine
  8
4 side
 62
256
370
-1
  6
ByLayer
 10
23.99364198247617
 20
-113.5124999999999886
 30
0.0
 11
26.031741982476106
 21
-113.5125000000000028
 31
0.0
  0
LINE
  5
100
100
AcDbEntity
100
AcDbLine
  8
4 side
 62
256
370
-1
  6
ByLayer
 10
30.031741982476106
 20
-113.5125000000000171
 30
0.0
 11
33.0317419824761345
 21
-113.5125000000000028
 31
0.0
  0
ARC
  5
101
100
AcDbEntity
  8
4 side
 62
256
370
-1
  6
ByLayer
100
AcDbCircle
 10
26.031741982476106
 20
-114.0124999999999602
 30
0.0
 40
0.5
100
AcDbArc
 50
0.0
 51
89.9999999999999574
  0
ARC
  5
102
100
AcDbEntity
  8
4 side
 62
256
370
-1
  6
ByLayer
100
AcDbCircle
 10
30.031741982476106
 20
-114.0125000000000028
 30
0.0
 40
0.5
100
AcDbArc
 50
90.0000000000000568
 51
180.0
  0
ARC
  5
103
100
AcDbEntity
  8
4 side
 62
256
370
-1
  6
ByLayer
100
AcDbCircle
 10
117.9555419824761628
 20
-114.0125000000000028
 30
0.0
 40
0.5
100
AcDbArc
 50
0.0
 51
89.9999999999999574
  0
ARC
  5
104
100
AcDbEntity
  8
4 side
 62
256
370
-1
  6
ByLayer
100
AcDbCircle
 10
121.9555419824761628
 20
-114.0124999999999744
 30
0.0
 40
0.5
100
AcDbArc
 50
90.0000000000000568
 51
180.0
  0
LINE
  5
105
100
AcDbEntity
100
AcDbLine
  8
4 side
 62
256
370
-1
  6
ByLayer
 10
121.9555419824761628
 20
-113.5124999999999886
 30
0.0
 11
123.9936419824761487
 21
-113.5124999999999886
 31
0.0
  0
LINE
  5
106
100
AcDbEntity
100
AcDbLine
  8
4 side
 62
256
370
-1
  6
ByLayer
 10
23.9936419824761344
 20
-107.0625000000000142
 30
0.0
 11
23.9936419824761771
 21
-113.5125000000000313
 31
0.0
  0
LINE
  5
107
100
AcDbEntity
100
AcDbLine
  8
4 side
 62
256
370
-1
  6
ByLayer
 10
123.9936419824761913
 20
-107.0638046240611914
 30
0.0
 11
123.9936419824761487
 21
-113.51380462406118
 31
0.0
  0
LINE
  5
108
100
AcDbEntity
100
AcDbLine
  8
4 side
 62
256
370
-1
  6
ByLayer
 10
121.9936419824761487
 20
-130.1125000000000114
 30
0.0
 11
128.9936419824761344
 21
-130.1125000000000114
 31
0.0
  0
LINE
  5
109
100
AcDbEntity
100
AcDbLine
  8
4 side
 62
256
370
-1
  6
ByLayer
 10
128.9936419824761344
 20
-130.1125000000000114
 30
0.0
 11
128.9936419824761629
 21
-127.0881267124406548
 31
0.0
  0
LINE
  5
10A
100
AcDbEntity
100
AcDbLine
  8
4 side
 62
256
370
-1
  6
ByLayer
 10
121.9936419824761629
 20
-127.0881267124406264
 30
0.0
 11
121.9936419824761487
 21
-130.1125000000000114
 31
0.0
  0
LINE
  5
10B
100
AcDbEntity
100
AcDbLine
  8
4 side
 62
256
370
-1
  6
ByLayer
 10
26.531741982476106
 20
-120.1158181123834936
 30
0.0
 11
29.5317419824761132
 21
-120.1158181123831383
 31
0.0
  0
LINE
  5
10C
100
AcDbEntity
100
AcDbLine
  8
4 side
 62
256
370
-1
  6
ByLayer
 10
25.1717419824761137
 20
-116.9458181123839466
 30
0.0
 11
25.1717419824761137
 21
-119.1158181123840762
 31
0.0
  0
LINE
  5
10D
100
AcDbEntity
100
AcDbLine
  8
4 side
 62
256
370
-1
  6
ByLayer
 10
30.8917419824761055
 20
-119.1158181123838773
 30
0.0
 11
30.8917419824761055
 21
-116.9458181123838898
 31
0.0
  0
LINE
  5
10E
100
AcDbEntity
100
AcDbLine
  8
4 side
 62
256
370
-1
  6
ByLayer
 10
26.531741982476106
 20
-116.9458181123839466
 30
0.0
 11
25.1717419824761137
 21
-116.9458181123839466
 31
0.0
  0
LINE
  5
10F
100
AcDbEntity
100
AcDbLine
  8
4 side
 62
256
370
-1
  6
ByLayer
 10
30.8917419824761055
 20
-116.9458181123838898
 30
0.0
 11
29.531741982476106
 21
-116.9458181123839182
 31
0.0
  0
LINE
  5
110
100
AcDbEntity
100
AcDbLine
  8
4 side
 62
256
370
-1
  6
ByLayer
 10
29.5317419824761132
 20
-120.1158181123831383
 30
0.0
 11
29.531741982476106
 21
-119.115818112383991
 31
0.0
  0
LINE
  5
111
100
AcDbEntity
100
AcDbLine
  8
4 side
 62
256
370
-1
  6
ByLayer
 10
29.531741982476106
 20
-119.115818112383991
 30
0.0
 11
30.8917419824761055
 21
-119.1158181123838773
 31
0.0
  0
LINE
  5
112
100
AcDbEntity
100
AcDbLine
  8
4 side
 62
256
370
-1
  6
ByLayer
 10
25.1717419824761137
 20
-119.1158181123840762
 30
0.0
 11
26.531741982476106
 21
-119.1158181123840052
 31
0.0
  0
LINE
  5
113
100
AcDbEntity
100
AcDbLine
  8
4 side
 62
256
370
-1
  6
ByLayer
 10
26.531741982476106
 20
-119.1158181123840052
 30
0.0
 11
26.531741982476106
 21
-120.1158181123834936
 31
0.0
  0
LINE
  5
114
100
AcDbEntity
100
AcDbLine
  8
4 side
 62
256
370
-1
  6
ByLayer
 10
118.4555419824761628
 20
-120.115818112386961
 30
0.0
 11
121.4555419824761771
 21
-120.1158181123823994
 31
0.0
  0
LINE
  5
115
100
AcDbEntity
100
AcDbLine
  8
4 side
 62
256
370
-1
  6
ByLayer
 10
117.0955419824761634
 20
-116.9458181123839182
 30
0.0
 11
117.0955419824761634
 21
-119.1158181123838489
 31
0.0
  0
LINE
  5
116
100
AcDbEntity
100
AcDbLine
  8
4 side
 62
256
370
-1
  6
ByLayer
 10
122.8155419824761623
 20
-119.1158181123839199
 30
0.0
 11
122.8155419824761623
 21
-116.9458181123839324
 31
0.0
  0
LINE
  5
117
100
AcDbEntity
100
AcDbLine
  8
4 side
 62
256
370
-1
  6
ByLayer
 10
118.4555419824761628
 20
-116.9458181123839324
 30
0.0
 11
117.0955419824761634
 21
-116.9458181123839182
 31
0.0
  0
LINE
  5
118
100
AcDbEntity
100
AcDbLine
  8
4 side
 62
256
370
-1
  6
ByLayer
 10
122.8155419824761623
 20
-116.9458181123839324
 30
0.0
 11
121.4555419824761628
 21
-116.9458181123838756
 31
0.0
  0
LINE
  5
119
100
AcDbEntity
100
AcDbLine
  8
4 side
 62
256
370
-1
  6
ByLayer
 10
121.4555419824761771
 20
-120.1158181123823994
 30
0.0
 11
121.4555419824761628
 21
-119.1158181123838489
 31
0.0
  0
LINE
  5
11A
100
AcDbEntity
100
AcDbLine
  8
4 side
 62
256
370
-1
  6
ByLayer
 10
121.4555419824761628
 20
-119.1158181123838489
 30
0.0
 11
122.8155419824761623
 21
-119.1158181123839199
 31
0.0
  0
LINE
  5
11B
100
AcDbEntity
100
AcDbLine
  8
4 side
 62
256
370
-1
  6
ByLayer
 10
117.0955419824761634
 20
-119.1158181123838489
 30
0.0
 11
118.4555419824761628
 21
-119.1158181123840194
 31
0.0
  0
LINE
  5
11C
100
AcDbEntity
100
AcDbLine
  8
4 side
 62
256
370
-1
  6
ByLayer
 10
118.4555419824761628
 20
-119.1158181123840194
 30
0.0
 11
118.4555419824761628
 21
-120.115818112386961
 31
0.0
  0
LINE
  5
11D
100
AcDbEntity
100
AcDbLine
  8
4 side
 62
256
370
-1
  6
ByLayer
 10
26.531741982476106
 20
-114.0125000000000028
 30
0.0
 11
26.531741982476106
 21
-116.9458181123839466
 31
0.0
  0
LINE
  5
11E
100
AcDbEntity
100
AcDbLine
  8
4 side
 62
256
370
-1
  6
ByLayer
 10
29.531741982476106
 20
-116.9458181123839182
 30
0.0
 11
29.531741982476106
 21
-114.0124999999999744
 31
0.0
  0
LINE
  5
11F
100
AcDbEntity
100
AcDbLine
  8
4 side
 62
256
370
-1
  6
ByLayer
 10
118.4555419824761628
 20
-114.0125000000000313
 30
0.0
 11
118.4555419824761628
 21
-116.9458181123839324
 31
0.0
  0
LINE
  5
120
100
AcDbEntity
100
AcDbLine
  8
4 side
 62
256
370
-1
  6
ByLayer
 10
121.4555419824761628
 20
-116.9458181123838756
 30
0.0
 11
121.4555419824761628
 21
-114.0124999999999886
 31
0.0
  0
ARC
  5
121
100
AcDbEntity
  8
4 side
 62
256
370
-1
  6
ByLayer
100
AcDbCircle
 10
33.5317419824761345
 20
-107.9124999999999943
 30
0.0
 40
0.5
100
AcDbArc
 50
90.0000000000000142
 51
180.0
  0
LINE
  5
122
100
AcDbEntity
100
AcDbLine
  8
4 side
 62
256
370
-1
  6
ByLayer
 10
33.0317419824761345
 20
-113.5125000000000028
 30
0.0
 11
33.0317419824761345
 21
-107.9125000000000085
 31
0.0
  0
ARC
  5
123
100
AcDbEntity
  8
4 side
 62
256
370
-1
  6
ByLayer
100
AcDbCircle
 10
16.0670606407500216
 20
-107.2449196067366302
 30
0.0
 40
1.08029643770303
100
AcDbArc
 50
9.7201200087656741
 51
129.5969300087658098
  0
LINE
  5
124
100
AcDbEntity
100
AcDbLine
  8
4 side
 62
256
370
-1
  6
ByLayer
 10
11.612323582199167
 20
-111.7911550256421975
 30
0.0
 11
15.3784983765833587
 21
-106.4125000000000227
 31
0.0
  0
CIRCLE
  5
125
100
AcDbEntity
100
AcDbCircle
  8
4 side
 62
256
370
-1
  6
ByLayer
 10
9.0621087380843335
 20
-124.3108732327405335
 30
0.0
 40
1.5
  0
LINE
  5
126
100
AcDbEntity
100
AcDbLine
  8
4 side
 62
256
370
-1
  6
ByLayer
 10
0.5611220036428648
 20
-127.5739065321626384
 30
0.0
 11
11.612323582199167
 21
-111.7911550256421975
 31
0.0
  0
LINE
  5
127
100
AcDbEntity
100
AcDbLine
  8
4 side
 62
256
370
-1
  6
ByLayer
 10
1.2784642638513901
 20
-131.0684525847528334
 30
0.0
 11
4.1463464456066248
 21
-126.9726923633078002
 31
0.0
  0
LINE
  5
128
100
AcDbEntity
100
AcDbLine
  8
4 side
 62
256
370
-1
  6
ByLayer
 10
4.1463464456066248
 20
-126.9726923633078002
 30
0.0
 11
8.241991524152219
 21
-129.8404939211368969
 31
0.0
  0
ARC
  5
129
100
AcDbEntity
  8
4 side
 62
256
370
-1
  6
ByLayer
100
AcDbCircle
 10
2.6670661600421823
 20
-128.9625084283535159
 30
0.0
 40
2.5225415786418957
100
AcDbArc
 50
146.6002355807795823
 51
236.6002355807798381
  0
ARC
  5
12A
100
AcDbEntity
  8
4 side
 62
256
370
-1
  6
ByLayer
100
AcDbCircle
 10
6.8217062966766804
 20
-133.1787556764616909
 30
0.0
 40
0.7910861252646317
100
AcDbArc
 50
163.2442330473596712
 51
253.2442330473599839
  0
LINE
  5
12B
100
AcDbEntity
100
AcDbLine
  8
4 side
 62
256
370
-1
  6
ByLayer
 10
6.0642078305564695
 20
-132.9506913622611819
 30
0.0
 11
8.241991524152219
 21
-129.8404939211368969
 31
0.0
  0
LINE
  5
12C
100
AcDbEntity
100
AcDbLine
  8
4 side
 62
256
370
-1
  6
ByLayer
 10
6.5936419824761572
 20
-133.9362541425819018
 30
0.0
 11
41.9936419824761558
 21
-133.9375
 31
0.0
  0
LINE
  5
12D
100
AcDbEntity
100
AcDbLine
  8
4 side
 62
256
370
-1
  6
ByLayer
 10
67.5126932800675377
 20
-118.5125000000000028
 30
0.0
 11
80.4745932800675519
 21
-118.5124999999999886
 31
0.0
  0
ARC
  5
12E
100
AcDbEntity
  8
4 side
 62
256
370
-1
  6
ByLayer
100
AcDbCircle
 10
67.0126932800675377
 20
-107.9124999999999943
 30
0.0
 40
0.5
100
AcDbArc
 50
0.0
 51
90.0000000000000142
  0
LINE
  5
12F
100
AcDbEntity
100
AcDbLine
  8
4 side
 62
256
370
-1
  6
ByLayer
 10
67.5126932800675377
 20
-107.9124999999999943
 30
0.0
 11
67.5126932800675377
 21
-118.5125000000000028
 31
0.0
  0
LINE
  5
130
100
AcDbEntity
100
AcDbLine
  8
4 side
 62
256
370
-1
  6
ByLayer
 10
80.4745932800675519
 20
-113.5125000000000028
 30
0.0
 11
80.4745932800675661
 21
-118.5125000000000028
 31
0.0
  0
LINE
  5
131
100
AcDbEntity
100
AcDbLine
  8
4 side
 62
256
370
-1
  6
ByLayer
 10
33.5317419824761345
 20
-107.4124999999999943
 30
0.0
 11
67.0126932800675377
 21
-107.4124999999999943
 31
0.0
  0
LINE
  5
132
100
AcDbEntity
100
AcDbLine
  8
4 side
 62
256
370
-1
  6
ByLayer
 10
117.9555419824761628
 20
-113.5125000000000455
 30
0.0
 11
80.4745932800675519
 21
-113.5125000000000028
 31
0.0
  0
ARC
  5
133
100
AcDbEntity
  8
4 side
 62
256
370
-1
  6
ByLayer
100
AcDbCircle
 10
22.9936419824761487
 20
-160.8125000000000568
 30
0.0
 40
1.0
100
AcDbArc
 50
270.0
 51
0.0
  0
CIRCLE
  5
134
100
AcDbEntity
100
AcDbCircle
  8
4 side
 62
256
370
-1
  6
ByLayer
 10
21.9925421074045246
 20
-142.5125000000001307
 30
0.0
 40
3.5
  0
ARC
  5
135
100
AcDbEntity
  8
4 side
 62
256
370
-1
  6
ByLayer
100
AcDbCircle
 10
18.6936419824761693
 20
-156.9638000000001341
 30
0.0
 40
2.1560000000000001
100
AcDbArc
 50
90.0000000000000142
 51
223.5800000000000125
  0
LINE
  5
136
100
AcDbEntity
100
AcDbLine
  8
4 side
 62
256
370
-1
  6
ByLayer
 10
17.1318085463526018
 20
-160.8125000000001137
 30
0.0
 11
17.1318085463525946
 21
-158.450074644137743
 31
0.0
  0
ARC
  5
137
100
AcDbEntity
  8
4 side
 62
256
370
-1
  6
ByLayer
100
AcDbCircle
 10
14.9936419824761629
 20
-148.0624999999993179
 30
0.0
 40
1.0
100
AcDbArc
 50
270.0000000000003979
 51
270.0000000000003979
  0
LINE
  5
138
100
AcDbEntity
100
AcDbLine
  8
4 side
 62
256
370
-1
  6
ByLayer
 10
17.7499659783173342
 20
-155.021956391679737
 30
0.0
 11
15.3618681963401329
 21
-148.9922362289506736
 31
0.0
  0
LINE
  5
139
100
AcDbEntity
100
AcDbLine
  8
4 side
 62
256
370
-1
  6
ByLayer
 10
125.1673904258634735
 20
-140.7868732875594446
 30
0.0
 11
125.1673904258634735
 21
-140.7868732875594446
 31
0.0
  0
LINE
  5
13A
100
AcDbEntity
100
AcDbLine
  8
4 side
 62
256
370
-1
  6
ByLayer
 10
125.1673904258634735
 20
-140.7868732875594446
 30
0.0
 11
125.1673904258634735
 21
-140.7868732875594446
 31
0.0
  0
CIRCLE
  5
13B
100
AcDbEntity
100
AcDbCircle
  8
4 side
 62
256
370
-1
  6
ByLayer
 10
125.4936419824761629
 20
-142.2868732875594731
 30
0.0
 40
1.5
  0
LINE
  5
13C
100
AcDbEntity
100
AcDbLine
  8
4 side
 62
256
370
-1
  6
ByLayer
 10
128.9936419824761629
 20
-140.7868732875594446
 30
0.0
 11
125.4936419824761629
 21
-140.7868732875595015
 31
0.0
  0
LINE
  5
13D
100
AcDbEntity
100
AcDbLine
  8
4 side
 62
256
370
-1
  6
ByLayer
 10
125.4936419824761629
 20
-140.7868732875595015
 30
0.0
 11
121.9936419824761771
 21
-140.7868732875594162
 31
0.0
  0
ARC
  5
13E
100
AcDbEntity
  8
4 side
 62
256
370
-1
  6
ByLayer
100
AcDbCircle
 10
129.2936419824761742
 20
-156.9624953759388859
 30
0.0
 40
2.1560000000000001
100
AcDbArc
 50
316.4199999999999591
 51
90.0000000000000142
  0
ARC
  5
13F
100
AcDbEntity
  8
4 side
 62
256
370
-1
  6
ByLayer
100
AcDbCircle
 10
131.855475418599724
 20
-160.8111953759389223
 30
0.0
 40
1.0
100
AcDbArc
 50
180.0
 51
270.0
  0
LINE
  5
140
100
AcDbEntity
100
AcDbLine
  8
4 side
 62
256
370
-1
  6
ByLayer
 10
130.855475418599724
 20
-160.8111953759388939
 30
0.0
 11
130.855475418599724
 21
-158.4487700200765801
 31
0.0
  0
ARC
  5
141
100
AcDbEntity
  8
4 side
 62
256
370
-1
  6
ByLayer
100
AcDbCircle
 10
132.9936419824761629
 20
-148.0611953759379276
 30
0.0
 40
1.0
100
AcDbArc
 50
269.9999999999996021
 51
269.9999999999996021
  0
LINE
  5
142
100
AcDbEntity
100
AcDbLine
  8
4 side
 62
256
370
-1
  6
ByLayer
 10
130.2373179866349915
 20
-155.0206517676185456
 30
0.0
 11
132.6254157686121857
 21
-148.9909316048898233
 31
0.0
  0
ARC
  5
143
100
AcDbEntity
  8
4 side
 62
256
370
-1
  6
ByLayer
100
AcDbCircle
 10
124.9936419824762055
 20
-160.8111953759389507
 30
0.0
 40
1.0
100
AcDbArc
 50
180.0
 51
270.0
  0
LINE
  5
144
100
AcDbEntity
100
AcDbLine
  8
4 side
 62
256
370
-1
  6
ByLayer
 10
41.9936419824761629
 20
-138.9375000000001137
 30
0.0
 11
41.99364198247617
 21
-133.9375000000001137
 31
0.0
  0
LINE
  5
145
100
AcDbEntity
100
AcDbLine
  8
4 side
 62
256
370
-1
  6
ByLayer
 10
41.9936419824761629
 20
-138.9375000000001137
 30
0.0
 11
46.9936445776589693
 21
-138.9375000000001137
 31
0.0
  0
LINE
  5
146
100
AcDbEntity
100
AcDbLine
  8
4 side
 62
256
370
-1
  6
ByLayer
 10
66.9936445776589693
 20
-138.9375000000001137
 30
0.0
 11
80.9936419824761629
 21
-138.9375000000001137
 31
0.0
  0
LINE
  5
147
100
AcDbEntity
100
AcDbLine
  8
4 side
 62
256
370
-1
  6
ByLayer
 10
105.9936419824761629
 20
-138.9375000000000853
 30
0.0
 11
105.9936419824761629
 21
-133.9375000000000853
 31
0.0
  0
LINE
  5
148
100
AcDbEntity
100
AcDbLine
  8
4 side
 62
256
370
-1
  6
ByLayer
 10
100.9936419824761629
 20
-138.9375000000001137
 30
0.0
 11
105.9936419824761629
 21
-138.9375000000000853
 31
0.0
  0
LINE
  5
149
100
AcDbEntity
100
AcDbLine
  8
4 side
 62
256
370
-1
  6
ByLayer
 10
55.4936445776589693
 20
-146.0407981280472427
 30
0.0
 11
58.4936445776589764
 21
-146.0407981280472427
 31
0.0
  0
LINE
  5
14A
100
AcDbEntity
100
AcDbLine
  8
4 side
 62
256
370
-1
  6
ByLayer
 10
54.133644577658977
 20
-142.8707981280472552
 30
0.0
 11
54.1336445776589841
 21
-145.0407981280472427
 31
0.0
  0
LINE
  5
14B
100
AcDbEntity
100
AcDbLine
  8
4 side
 62
256
370
-1
  6
ByLayer
 10
59.8536445776589687
 20
-145.0407981280472427
 30
0.0
 11
59.8536445776589687
 21
-142.8707981280472268
 31
0.0
  0
LINE
  5
14C
100
AcDbEntity
100
AcDbLine
  8
4 side
 62
256
370
-1
  6
ByLayer
 10
55.4936445776589693
 20
-142.8707981280472552
 30
0.0
 11
54.133644577658977
 21
-142.8707981280472552
 31
0.0
  0
LINE
  5
14D
100
AcDbEntity
100
AcDbLine
  8
4 side
 62
256
370
-1
  6
ByLayer
 10
59.8536445776589687
 20
-142.8707981280472268
 30
0.0
 11
58.4936445776589693
 21
-142.8707981280472552
 31
0.0
  0
LINE
  5
14E
100
AcDbEntity
100
AcDbLine
  8
4 side
 62
256
370
-1
  6
ByLayer
 10
58.4936445776589764
 20
-146.0407981280472427
 30
0.0
 11
58.4936445776589693
 21
-145.0407981280472427
 31
0.0
  0
LINE
  5
14F
100
AcDbEntity
100
AcDbLine
  8
4 side
 62
256
370
-1
  6
ByLayer
 10
58.4936445776589693
 20
-145.0407981280472427
 30
0.0
 11
59.8536445776589687
 21
-145.0407981280472427
 31
0.0
  0
LINE
  5
150
100
AcDbEntity
100
AcDbLine
  8
4 side
 62
256
370
-1
  6
ByLayer
 10
54.1336445776589841
 20
-145.0407981280472427
 30
0.0
 11
55.4936445776589693
 21
-145.0407981280472427
 31
0.0
  0
LINE
  5
151
100
AcDbEntity
100
AcDbLine
  8
4 side
 62
256
370
-1
  6
ByLayer
 10
55.4936445776589693
 20
-145.0407981280472427
 30
0.0
 11
55.4936445776589693
 21
-146.0407981280472427
 31
0.0
  0
LINE
  5
152
100
AcDbEntity
100
AcDbLine
  8
4 side
 62
256
370
-1
  6
ByLayer
 10
55.4936445776589693
 20
-139.4375000000001137
 30
0.0
 11
55.4936445776589693
 21
-142.8707981280472552
 31
0.0
  0
LINE
  5
153
100
AcDbEntity
100
AcDbLine
  8
4 side
 62
256
370
-1
  6
ByLayer
 10
58.4936445776589693
 20
-142.8707981280472552
 30
0.0
 11
58.4936445776589693
 21
-139.4375000000001137
 31
0.0
  0
LINE
  5
154
100
AcDbEntity
100
AcDbLine
  8
4 side
 62
256
370
-1
  6
ByLayer
 10
46.9936445776589693
 20
-134.4375000000001137
 30
0.0
 11
46.9936445776589693
 21
-138.9375000000001137
 31
0.0
  0
ARC
  5
155
100
AcDbEntity
  8
4 side
 62
256
370
-1
  6
ByLayer
100
AcDbCircle
 10
47.4936445776589551
 20
-134.4375000000001137
 30
0.0
 40
0.5
100
AcDbArc
 50
90.0000000000000142
 51
180.0
  0
LINE
  5
156
100
AcDbEntity
100
AcDbLine
  8
4 side
 62
256
370
-1
  6
ByLayer
 10
51.9936445776589693
 20
-138.9375000000001137
 30
0.0
 11
51.9936445776589693
 21
-134.4375000000001137
 31
0.0
  0
ARC
  5
157
100
AcDbEntity
  8
4 side
 62
256
370
-1
  6
ByLayer
100
AcDbCircle
 10
51.4936445776589622
 20
-134.4375000000001137
 30
0.0
 40
0.5
100
AcDbArc
 50
0.0
 51
90.0000000000000142
  0
LINE
  5
158
100
AcDbEntity
100
AcDbLine
  8
4 side
 62
256
370
-1
  6
ByLayer
 10
54.9936445776589693
 20
-138.9375000000001137
 30
0.0
 11
51.9936445776589693
 21
-138.9375000000001137
 31
0.0
  0
ARC
  5
159
100
AcDbEntity
  8
4 side
 62
256
370
-1
  6
ByLayer
100
AcDbCircle
 10
54.9936445776589693
 20
-139.4375000000001137
 30
0.0
 40
0.5
100
AcDbArc
 50
0.0
 51
89.9999999999999574
  0
LINE
  5
15A
100
AcDbEntity
100
AcDbLine
  8
4 side
 62
256
370
-1
  6
ByLayer
 10
58.9936445776589622
 20
-138.9375000000001137
 30
0.0
 11
61.9936445776589693
 21
-138.9375000000001137
 31
0.0
  0
ARC
  5
15B
100
AcDbEntity
  8
4 side
 62
256
370
-1
  6
ByLayer
100
AcDbCircle
 10
58.9936445776589693
 20
-139.4375000000001137
 30
0.0
 40
0.5
100
AcDbArc
 50
90.0000000000000568
 51
180.0
  0
LINE
  5
15C
100
AcDbEntity
100
AcDbLine
  8
4 side
 62
256
370
-1
  6
ByLayer
 10
61.9936445776589693
 20
-138.9375000000001137
 30
0.0
 11
61.9936445776589622
 21
-134.4375000000001137
 31
0.0
  0
ARC
  5
15D
100
AcDbEntity
  8
4 side
 62
256
370
-1
  6
ByLayer
100
AcDbCircle
 10
62.4936445776589551
 20
-134.4375000000001137
 30
0.0
 40
0.5
100
AcDbArc
 50
90.0000000000000142
 51
180.0
  0
LINE
  5
15E
100
AcDbEntity
100
AcDbLine
  8
4 side
 62
256
370
-1
  6
ByLayer
 10
66.9936445776589551
 20
-134.4375000000001137
 30
0.0
 11
66.9936445776589693
 21
-138.9375000000001137
 31
0.0
  0
ARC
  5
15F
100
AcDbEntity
  8
4 side
 62
256
370
-1
  6
ByLayer
100
AcDbCircle
 10
66.4936445776589693
 20
-134.4375000000001137
 30
0.0
 40
0.5
100
AcDbArc
 50
0.0
 51
90.0000000000000142
  0
LINE
  5
160
100
AcDbEntity
100
AcDbLine
  8
4 side
 62
256
370
-1
  6
ByLayer
 10
89.4936419824761629
 20
-146.0407981280472427
 30
0.0
 11
92.4936419824761771
 21
-146.0407981280472427
 31
0.0
  0
LINE
  5
161
100
AcDbEntity
100
AcDbLine
  8
4 side
 62
256
370
-1
  6
ByLayer
 10
88.1336419824761634
 20
-142.8707981280472552
 30
0.0
 11
88.1336419824761776
 21
-145.0407981280472427
 31
0.0
  0
LINE
  5
162
100
AcDbEntity
100
AcDbLine
  8
4 side
 62
256
370
-1
  6
ByLayer
 10
93.8536419824761623
 20
-145.0407981280472427
 30
0.0
 11
93.8536419824761623
 21
-142.8707981280472552
 31
0.0
  0
LINE
  5
163
100
AcDbEntity
100
AcDbLine
  8
4 side
 62
256
370
-1
  6
ByLayer
 10
89.4936419824761771
 20
-142.8707981280472552
 30
0.0
 11
88.1336419824761634
 21
-142.8707981280472552
 31
0.0
  0
LINE
  5
164
100
AcDbEntity
100
AcDbLine
  8
4 side
 62
256
370
-1
  6
ByLayer
 10
93.8536419824761623
 20
-142.8707981280472552
 30
0.0
 11
92.4936419824761629
 21
-142.8707981280472268
 31
0.0
  0
LINE
  5
165
100
AcDbEntity
100
AcDbLine
  8
4 side
 62
256
370
-1
  6
ByLayer
 10
92.4936419824761771
 20
-146.0407981280472427
 30
0.0
 11
92.4936419824761771
 21
-145.0407981280472427
 31
0.0
  0
LINE
  5
166
100
AcDbEntity
100
AcDbLine
  8
4 side
 62
256
370
-1
  6
ByLayer
 10
92.4936419824761771
 20
-145.0407981280472427
 30
0.0
 11
93.8536419824761623
 21
-145.0407981280472427
 31
0.0
  0
LINE
  5
167
100
AcDbEntity
100
AcDbLine
  8
4 side
 62
256
370
-1
  6
ByLayer
 10
88.1336419824761776
 20
-145.0407981280472427
 30
0.0
 11
89.4936419824761629
 21
-145.0407981280472427
 31
0.0
  0
LINE
  5
168
100
AcDbEntity
100
AcDbLine
  8
4 side
 62
256
370
-1
  6
ByLayer
 10
89.4936419824761629
 20
-145.0407981280472427
 30
0.0
 11
89.4936419824761629
 21
-146.0407981280472427
 31
0.0
  0
LINE
  5
169
100
AcDbEntity
100
AcDbLine
  8
4 side
 62
256
370
-1
  6
ByLayer
 10
89.4936419824761771
 20
-139.4375000000001137
 30
0.0
 11
89.4936419824761771
 21
-142.8707981280472552
 31
0.0
  0
LINE
  5
16A
100
AcDbEntity
100
AcDbLine
  8
4 side
 62
256
370
-1
  6
ByLayer
 10
92.4936419824761629
 20
-142.8707981280472268
 30
0.0
 11
92.4936419824761629
 21
-139.4375000000001137
 31
0.0
  0
LINE
  5
16B
100
AcDbEntity
100
AcDbLine
  8
4 side
 62
256
370
-1
  6
ByLayer
 10
88.9936419824761629
 20
-138.9375000000001137
 30
0.0
 11
85.9936419824761629
 21
-138.9375000000001137
 31
0.0
  0
ARC
  5
16C
100
AcDbEntity
  8
4 side
 62
256
370
-1
  6
ByLayer
100
AcDbCircle
 10
88.9936419824761629
 20
-139.4375000000001137
 30
0.0
 40
0.5
100
AcDbArc
 50
0.0
 51
89.9999999999999574
  0
LINE
  5
16D
100
AcDbEntity
100
AcDbLine
  8
4 side
 62
256
370
-1
  6
ByLayer
 10
92.9936419824761629
 20
-138.9375000000001137
 30
0.0
 11
95.9936419824761629
 21
-138.9375000000000853
 31
0.0
  0
ARC
  5
16E
100
AcDbEntity
  8
4 side
 62
256
370
-1
  6
ByLayer
100
AcDbCircle
 10
92.9936419824761629
 20
-139.4375000000001137
 30
0.0
 40
0.5
100
AcDbArc
 50
90.0000000000000568
 51
180.0
  0
LINE
  5
16F
100
AcDbEntity
100
AcDbLine
  8
4 side
 62
256
370
-1
  6
ByLayer
 10
80.9936419824761629
 20
-134.4375000000001137
 30
0.0
 11
80.9936419824761629
 21
-138.9375000000001137
 31
0.0
  0
ARC
  5
170
100
AcDbEntity
  8
4 side
 62
256
370
-1
  6
ByLayer
100
AcDbCircle
 10
81.4936419824761487
 20
-134.4375000000001137
 30
0.0
 40
0.5
100
AcDbArc
 50
90.0000000000000142
 51
180.0
  0
LINE
  5
171
100
AcDbEntity
100
AcDbLine
  8
4 side
 62
256
370
-1
  6
ByLayer
 10
85.9936419824761629
 20
-138.9375000000001137
 30
0.0
 11
85.9936419824761487
 21
-134.4375000000000853
 31
0.0
  0
ARC
  5
172
100
AcDbEntity
  8
4 side
 62
256
370
-1
  6
ByLayer
100
AcDbCircle
 10
85.4936419824761629
 20
-134.4375000000000853
 30
0.0
 40
0.5
100
AcDbArc
 50
0.0
 51
90.0000000000000142
  0
LINE
  5
173
100
AcDbEntity
100
AcDbLine
  8
4 side
 62
256
370
-1
  6
ByLayer
 10
88.9936419824761629
 20
-138.9375000000001137
 30
0.0
 11
85.9936419824761629
 21
-138.9375000000001137
 31
0.0
  0
ARC
  5
174
100
AcDbEntity
  8
4 side
 62
256
370
-1
  6
ByLayer
100
AcDbCircle
 10
88.9936419824761629
 20
-139.4375000000001137
 30
0.0
 40
0.5
100
AcDbArc
 50
0.0
 51
89.9999999999999574
  0
LINE
  5
175
100
AcDbEntity
100
AcDbLine
  8
4 side
 62
256
370
-1
  6
ByLayer
 10
92.9936419824761629
 20
-138.9375000000001137
 30
0.0
 11
95.9936419824761629
 21
-138.9375000000000853
 31
0.0
  0
ARC
  5
176
100
AcDbEntity
  8
4 side
 62
256
370
-1
  6
ByLayer
100
AcDbCircle
 10
92.9936419824761629
 20
-139.4375000000001137
 30
0.0
 40
0.5
100
AcDbArc
 50
90.0000000000000568
 51
180.0
  0
LINE
  5
177
100
AcDbEntity
100
AcDbLine
  8
4 side
 62
256
370
-1
  6
ByLayer
 10
95.9936419824761629
 20
-138.9375000000000853
 30
0.0
 11
95.9936419824761629
 21
-134.4375000000001137
 31
0.0
  0
ARC
  5
178
100
AcDbEntity
  8
4 side
 62
256
370
-1
  6
ByLayer
100
AcDbCircle
 10
96.4936419824761487
 20
-134.4375000000000853
 30
0.0
 40
0.5
100
AcDbArc
 50
90.0000000000000142
 51
180.0
  0
LINE
  5
179
100
AcDbEntity
100
AcDbLine
  8
4 side
 62
256
370
-1
  6
ByLayer
 10
100.9936419824761487
 20
-134.4375000000000853
 30
0.0
 11
100.9936419824761629
 21
-138.9375000000001137
 31
0.0
  0
ARC
  5
17A
100
AcDbEntity
  8
4 side
 62
256
370
-1
  6
ByLayer
100
AcDbCircle
 10
100.4936419824761629
 20
-134.4375000000001137
 30
0.0
 40
0.5
100
AcDbArc
 50
0.0
 51
90.0000000000000142
  0
CIRCLE
  5
17B
100
AcDbEntity
100
AcDbCircle
  8
4 side
 62
256
370
-1
  6
ByLayer
 10
16.4925419824761619
 20
-142.5125000000001023
 30
0.0
 40
1.2
  0
CIRCLE
  5
17C
100
AcDbEntity
100
AcDbCircle
  8
4 side
 62
256
370
-1
  6
ByLayer
 10
27.4925419824761583
 20
-142.5125000000001023
 30
0.0
 40
1.2
  0
ARC
  5
17D
100
AcDbEntity
  8
4 side
 62
256
370
-1
  6
ByLayer
100
AcDbCircle
 10
21.4936419824761629
 20
-160.8125000000000853
 30
0.0
 40
1.0
100
AcDbArc
 50
180.0
 51
270.0
  0
LINE
  5
17E
100
AcDbEntity
100
AcDbLine
  8
4 side
 62
256
370
-1
  6
ByLayer
 10
22.9936419824761273
 20
-161.8125000000001137
 30
0.0
 11
21.4936419824761558
 21
-161.8125000000000853
 31
0.0
  0
LINE
  5
17F
100
AcDbEntity
100
AcDbLine
  8
4 side
 62
256
370
-1
  6
ByLayer
 10
20.4936419824761629
 20
-160.8125000000000853
 30
0.0
 11
20.4936419824761664
 21
-158.1505333314609061
 31
0.0
  0
ARC
  5
180
100
AcDbEntity
  8
4 side
 62
256
370
-1
  6
ByLayer
100
AcDbCircle
 10
18.6936419824761693
 20
-156.9638000000001341
 30
0.0
 40
2.1590000000000034
100
AcDbArc
 50
326.6032832426835739
 51
115.9183200407834846
  0
ARC
  5
181
100
AcDbEntity
  8
4 side
 62
256
370
-1
  6
ByLayer
100
AcDbCircle
 10
126.4936419824761629
 20
-160.8111953759388939
 30
0.0
 40
1.0
100
AcDbArc
 50
270.0
 51
0.0
  0
LINE
  5
182
100
AcDbEntity
100
AcDbLine
  8
4 side
 62
256
370
-1
  6
ByLayer
 10
124.9936419824762055
 20
-161.8111953759389223
 30
0.0
 11
126.4936419824761629
 21
-161.8111953759389223
 31
0.0
  0
LINE
  5
183
100
AcDbEntity
100
AcDbLine
  8
4 side
 62
256
370
-1
  6
ByLayer
 10
127.4936419824761629
 20
-160.8111953759389223
 30
0.0
 11
127.4936419824761629
 21
-158.1492287073996579
 31
0.0
  0
ARC
  5
184
100
AcDbEntity
  8
4 side
 62
256
370
-1
  6
ByLayer
100
AcDbCircle
 10
129.2936419824761742
 20
-156.9624953759388859
 30
0.0
 40
2.1559999999999975
100
AcDbArc
 50
64.0816799592169133
 51
213.3967167573155734
  0
ARC
  5
185
100
AcDbEntity
  8
4 side
 62
256
370
-1
  6
ByLayer
100
AcDbCircle
 10
131.855475418599724
 20
-141.9375000000000568
 30
0.0
 40
7.9999999999999982
100
AcDbArc
 50
0.0
 51
90.0000000000000142
  0
LINE
  5
186
100
AcDbEntity
100
AcDbLine
  8
4 side
 62
256
370
-1
  6
ByLayer
 10
139.855475418599724
 20
-144.0624999999991473
 30
0.0
 11
139.855475418599724
 21
-141.937500000000199
 31
0.0
  0
ARC
  5
187
100
AcDbEntity
  8
4 side
 62
256
370
-1
  6
ByLayer
100
AcDbCircle
 10
131.855475418599724
 20
-153.8111953759388939
 30
0.0
 40
7.9999999999999982
100
AcDbArc
 50
270.0
 51
0.0
  0
LINE
  5
188
100
AcDbEntity
100
AcDbLine
  8
4 side
 62
256
370
-1
  6
ByLayer
 10
139.855475418599724
 20
-153.8111953759390076
 30
0.0
 11
139.855475418599724
 21
-144.0624999999991473
 31
0.0
  0
LINE
  5
189
100
AcDbEntity
100
AcDbLine
  8
4 side
 62
256
370
-1
  6
ByLayer
 10
23.9936419824761806
 20
-154.3625000000001251
 30
0.0
 11
26.0317419824761167
 21
-154.3625000000000966
 31
0.0
  0
LINE
  5
18A
100
AcDbEntity
100
AcDbLine
  8
4 side
 62
256
370
-1
  6
ByLayer
 10
30.0317419824761203
 20
-154.3625000000000966
 30
0.0
 11
33.0317419824761416
 21
-154.3625000000000966
 31
0.0
  0
ARC
  5
18B
100
AcDbEntity
  8
4 side
 62
256
370
-1
  6
ByLayer
100
AcDbCircle
 10
26.0317419824761167
 20
-153.8625000000001535
 30
0.0
 40
0.5
100
AcDbArc
 50
270.0000000000000568
 51
0.0
  0
ARC
  5
18C
100
AcDbEntity
  8
4 side
 62
256
370
-1
  6
ByLayer
100
AcDbCircle
 10
30.0317419824761238
 20
-153.8625000000001251
 30
0.0
 40
0.5
100
AcDbArc
 50
180.0
 51
269.9999999999999432
  0
ARC
  5
18D
100
AcDbEntity
  8
4 side
 62
256
370
-1
  6
ByLayer
100
AcDbCircle
 10
117.9555419824761771
 20
-153.8625000000001535
 30
0.0
 40
0.5
100
AcDbArc
 50
270.0000000000000568
 51
0.0
  0
ARC
  5
18E
100
AcDbEntity
  8
4 side
 62
256
370
-1
  6
ByLayer
100
AcDbCircle
 10
121.9555419824761771
 20
-153.8625000000001251
 30
0.0
 40
0.5
100
AcDbArc
 50
180.0
 51
269.9999999999999432
  0
LINE
  5
18F
100
AcDbEntity
100
AcDbLine
  8
4 side
 62
256
370
-1
  6
ByLayer
 10
121.9555419824761771
 20
-154.3625000000000966
 30
0.0
 11
123.9936419824761629
 21
-154.3625000000001251
 31
0.0
  0
LINE
  5
190
100
AcDbEntity
100
AcDbLine
  8
4 side
 62
256
370
-1
  6
ByLayer
 10
23.9936419824761415
 20
-160.8125000000000853
 30
0.0
 11
23.9936419824761877
 21
-154.3625000000000966
 31
0.0
  0
LINE
  5
191
100
AcDbEntity
100
AcDbLine
  8
4 side
 62
256
370
-1
  6
ByLayer
 10
123.9936419824762055
 20
-160.8111953759389223
 30
0.0
 11
123.9936419824761629
 21
-154.3611953759389621
 31
0.0
  0
LINE
  5
192
100
AcDbEntity
100
AcDbLine
  8
4 side
 62
256
370
-1
  6
ByLayer
 10
121.9936419824761629
 20
-137.7625000000001307
 30
0.0
 11
128.9936419824761629
 21
-137.7625000000001307
 31
0.0
  0
LINE
  5
193
100
AcDbEntity
100
AcDbLine
  8
4 side
 62
256
370
-1
  6
ByLayer
 10
128.9936419824761629
 20
-137.7625000000001307
 30
0.0
 11
128.9936419824761629
 21
-140.7868732875594446
 31
0.0
  0
LINE
  5
194
100
AcDbEntity
100
AcDbLine
  8
4 side
 62
256
370
-1
  6
ByLayer
 10
121.9936419824761771
 20
-140.7868732875594162
 30
0.0
 11
121.9936419824761629
 21
-137.7625000000001307
 31
0.0
  0
LINE
  5
195
100
AcDbEntity
100
AcDbLine
  8
4 side
 62
256
370
-1
  6
ByLayer
 10
26.5317419824761167
 20
-147.7591818876166201
 30
0.0
 11
29.5317419824761274
 21
-147.7591818876169896
 31
0.0
  0
LINE
  5
196
100
AcDbEntity
100
AcDbLine
  8
4 side
 62
256
370
-1
  6
ByLayer
 10
25.1717419824761279
 20
-150.9291818876161813
 30
0.0
 11
25.1717419824761279
 21
-148.7591818876160517
 31
0.0
  0
LINE
  5
197
100
AcDbEntity
100
AcDbLine
  8
4 side
 62
256
370
-1
  6
ByLayer
 10
30.8917419824761197
 20
-148.7591818876162506
 30
0.0
 11
30.8917419824761161
 21
-150.9291818876162097
 31
0.0
  0
LINE
  5
198
100
AcDbEntity
100
AcDbLine
  8
4 side
 62
256
370
-1
  6
ByLayer
 10
26.5317419824761203
 20
-150.9291818876161813
 30
0.0
 11
25.1717419824761279
 21
-150.9291818876161813
 31
0.0
  0
LINE
  5
199
100
AcDbEntity
100
AcDbLine
  8
4 side
 62
256
370
-1
  6
ByLayer
 10
30.8917419824761161
 20
-150.9291818876162097
 30
0.0
 11
29.5317419824761238
 21
-150.9291818876161813
 31
0.0
  0
LINE
  5
19A
100
AcDbEntity
100
AcDbLine
  8
4 side
 62
256
370
-1
  6
ByLayer
 10
29.5317419824761274
 20
-147.7591818876169896
 30
0.0
 11
29.5317419824761203
 21
-148.7591818876161085
 31
0.0
  0
LINE
  5
19B
100
AcDbEntity
100
AcDbLine
  8
4 side
 62
256
370
-1
  6
ByLayer
 10
29.5317419824761203
 20
-148.7591818876161085
 30
0.0
 11
30.8917419824761197
 21
-148.7591818876162506
 31
0.0
  0
LINE
  5
19C
100
AcDbEntity
100
AcDbLine
  8
4 side
 62
256
370
-1
  6
ByLayer
 10
25.1717419824761279
 20
-148.7591818876160517
 30
0.0
 11
26.5317419824761167
 21
-148.7591818876161085
 31
0.0
  0
LINE
  5
19D
100
AcDbEntity
100
AcDbLine
  8
4 side
 62
256
370
-1
  6
ByLayer
 10
26.5317419824761167
 20
-148.7591818876161085
 30
0.0
 11
26.5317419824761167
 21
-147.7591818876166201
 31
0.0
  0
LINE
  5
19E
100
AcDbEntity
100
AcDbLine
  8
4 side
 62
256
370
-1
  6
ByLayer
 10
118.4555419824761771
 20
-147.7591818876131526
 30
0.0
 11
121.4555419824761913
 21
-147.7591818876177285
 31
0.0
  0
LINE
  5
19F
100
AcDbEntity
100
AcDbLine
  8
4 side
 62
256
370
-1
  6
ByLayer
 10
117.0955419824761776
 20
-150.9291818876162097
 30
0.0
 11
117.0955419824761776
 21
-148.7591818876162506
 31
0.0
  0
LINE
  5
1A0
100
AcDbEntity
100
AcDbLine
  8
4 side
 62
256
370
-1
  6
ByLayer
 10
122.8155419824761765
 20
-148.7591818876161653
 30
0.0
 11
122.8155419824761765
 21
-150.9291818876161528
 31
0.0
  0
LINE
  5
1A1
100
AcDbEntity
100
AcDbLine
  8
4 side
 62
256
370
-1
  6
ByLayer
 10
118.4555419824761771
 20
-150.9291818876161813
 30
0.0
 11
117.0955419824761776
 21
-150.9291818876162097
 31
0.0
  0
LINE
  5
1A2
100
AcDbEntity
100
AcDbLine
  8
4 side
 62
256
370
-1
  6
ByLayer
 10
122.8155419824761765
 20
-150.9291818876161528
 30
0.0
 11
121.4555419824761771
 21
-150.9291818876162381
 31
0.0
  0
LINE
  5
1A3
100
AcDbEntity
100
AcDbLine
  8
4 side
 62
256
370
-1
  6
ByLayer
 10
121.4555419824761913
 20
-147.7591818876177285
 30
0.0
 11
121.4555419824761771
 21
-148.7591818876162506
 31
0.0
  0
LINE
  5
1A4
100
AcDbEntity
100
AcDbLine
  8
4 side
 62
256
370
-1
  6
ByLayer
 10
121.4555419824761771
 20
-148.7591818876162506
 30
0.0
 11
122.8155419824761765
 21
-148.7591818876161653
 31
0.0
  0
LINE
  5
1A5
100
AcDbEntity
100
AcDbLine
  8
4 side
 62
256
370
-1
  6
ByLayer
 10
117.0955419824761776
 20
-148.7591818876162506
 30
0.0
 11
118.4555419824761771
 21
-148.7591818876160801
 31
0.0
  0
LINE
  5
1A6
100
AcDbEntity
100
AcDbLine
  8
4 side
 62
256
370
-1
  6
ByLayer
 10
118.4555419824761771
 20
-148.7591818876160801
 30
0.0
 11
118.4555419824761771
 21
-147.7591818876131526
 31
0.0
  0
LINE
  5
1A7
100
AcDbEntity
100
AcDbLine
  8
4 side
 62
256
370
-1
  6
ByLayer
 10
26.5317419824761167
 20
-153.8625000000001251
 30
0.0
 11
26.5317419824761203
 21
-150.9291818876161813
 31
0.0
  0
LINE
  5
1A8
100
AcDbEntity
100
AcDbLine
  8
4 side
 62
256
370
-1
  6
ByLayer
 10
29.5317419824761238
 20
-150.9291818876161813
 30
0.0
 11
29.5317419824761203
 21
-153.8625000000001251
 31
0.0
  0
LINE
  5
1A9
100
AcDbEntity
100
AcDbLine
  8
4 side
 62
256
370
-1
  6
ByLayer
 10
118.4555419824761771
 20
-153.8625000000000682
 30
0.0
 11
118.4555419824761771
 21
-150.9291818876161813
 31
0.0
  0
LINE
  5
1AA
100
AcDbEntity
100
AcDbLine
  8
4 side
 62
256
370
-1
  6
ByLayer
 10
121.4555419824761771
 20
-150.9291818876162381
 30
0.0
 11
121.4555419824761771
 21
-153.8625000000001251
 31
0.0
  0
ARC
  5
1AB
100
AcDbEntity
  8
4 side
 62
256
370
-1
  6
ByLayer
100
AcDbCircle
 10
33.5317419824761487
 20
-159.9625000000001194
 30
0.0
 40
0.5
100
AcDbArc
 50
180.0
 51
270.0
  0
LINE
  5
1AC
100
AcDbEntity
100
AcDbLine
  8
4 side
 62
256
370
-1
  6
ByLayer
 10
33.0317419824761416
 20
-154.3625000000000966
 30
0.0
 11
33.0317419824761487
 21
-159.9625000000001194
 31
0.0
  0
ARC
  5
1AD
100
AcDbEntity
  8
4 side
 62
256
370
-1
  6
ByLayer
100
AcDbCircle
 10
16.0670606407500358
 20
-160.6300803932634835
 30
0.0
 40
1.08029643770303
100
AcDbArc
 50
230.4030699912341902
 51
350.2798799912343384
  0
LINE
  5
1AE
100
AcDbEntity
100
AcDbLine
  8
4 side
 62
256
370
-1
  6
ByLayer
 10
11.6123235821991813
 20
-156.0838449743579304
 30
0.0
 11
15.3784983765833729
 21
-161.4625000000000909
 31
0.0
  0
CIRCLE
  5
1AF
100
AcDbEntity
100
AcDbCircle
  8
4 side
 62
256
370
-1
  6
ByLayer
 10
9.0621087380843477
 20
-143.5641267672595802
 30
0.0
 40
1.5
  0
LINE
  5
1B0
100
AcDbEntity
100
AcDbLine
  8
4 side
 62
256
370
-1
  6
ByLayer
 10
0.561122003642879
 20
-140.3010934678374895
 30
0.0
 11
11.6123235821991813
 21
-156.0838449743579304
 31
0.0
  0
LINE
  5
1B1
100
AcDbEntity
100
AcDbLine
  8
4 side
 62
256
370
-1
  6
ByLayer
 10
1.2784642638514043
 20
-136.8065474152472802
 30
0.0
 11
4.146346445606639
 21
-140.9023076366923135
 31
0.0
  0
LINE
  5
1B2
100
AcDbEntity
100
AcDbLine
  8
4 side
 62
256
370
-1
  6
ByLayer
 10
4.146346445606639
 20
-140.9023076366923135
 30
0.0
 11
8.2419915241522332
 21
-138.0345060788632168
 31
0.0
  0
ARC
  5
1B3
100
AcDbEntity
  8
4 side
 62
256
370
-1
  6
ByLayer
100
AcDbCircle
 10
2.6670661600421965
 20
-138.9124915716466262
 30
0.0
 40
2.5225415786418957
100
AcDbArc
 50
123.3997644192201477
 51
213.3997644192204177
  0
ARC
  5
1B4
100
AcDbEntity
  8
4 side
 62
256
370
-1
  6
ByLayer
100
AcDbCircle
 10
6.8217062966766946
 20
-134.6962443235383944
 30
0.0
 40
0.7910861252646317
100
AcDbArc
 50
106.7557669526400304
 51
196.7557669526403288
  0
LINE
  5
1B5
100
AcDbEntity
100
AcDbLine
  8
4 side
 62
256
370
-1
  6
ByLayer
 10
6.0642078305564837
 20
-134.9243086377389602
 30
0.0
 11
8.2419915241522332
 21
-138.0345060788632168
 31
0.0
  0
LINE
  5
1B6
100
AcDbEntity
100
AcDbLine
  8
4 side
 62
256
370
-1
  6
ByLayer
 10
67.5126932800675661
 20
-149.3625000000001251
 30
0.0
 11
80.4745932800675661
 21
-149.3625000000001251
 31
0.0
  0
ARC
  5
1B7
100
AcDbEntity
  8
4 side
 62
256
370
-1
  6
ByLayer
100
AcDbCircle
 10
67.0126932800675519
 20
-159.9625000000001194
 30
0.0
 40
0.5
100
AcDbArc
 50
270.0
 51
0.0
  0
LINE
  5
1B8
100
AcDbEntity
100
AcDbLine
  8
4 side
 62
256
370
-1
  6
ByLayer
 10
67.5126932800675519
 20
-159.9625000000001194
 30
0.0
 11
67.5126932800675519
 21
-149.3625000000001251
 31
0.0
  0
LINE
  5
1B9
100
AcDbEntity
100
AcDbLine
  8
4 side
 62
256
370
-1
  6
ByLayer
 10
80.4745932800675661
 20
-154.3625000000001251
 30
0.0
 11
80.4745932800675803
 21
-149.3625000000000966
 31
0.0
  0
LINE
  5
1BA
100
AcDbEntity
100
AcDbLine
  8
4 side
 62
256
370
-1
  6
ByLayer
 10
33.5317419824761416
 20
-160.4625000000001194
 30
0.0
 11
67.0126932800675519
 21
-160.4625000000001194
 31
0.0
  0
LINE
  5
1BB
100
AcDbEntity
100
AcDbLine
  8
4 side
 62
256
370
-1
  6
ByLayer
 10
117.9555419824761771
 20
-154.3625000000000966
 30
0.0
 11
80.4745932800675661
 21
-154.3625000000001251
 31
0.0
  0
CIRCLE
  5
1BC
100
AcDbEntity
100
AcDbCircle
  8
2 top
 62
256
370
-1
  6
ByLayer
 10
76.0380999999999574
 20
1.4618999999997655
 30
0.0
 40
1.5
  0
LINE
  5
1BD
100
AcDbEntity
100
AcDbLine
  8
2 top
 62
256
370
-1
  6
ByLayer
 10
81.0380999999999574
 20
3.9618999999997584
 30
0.0
 11
81.0380999999999574
 21
-1.0381000000002274
 31
0.0
  0
CIRCLE
  5
1BE
100
AcDbEntity
100
AcDbCircle
  8
2 top
 62
256
370
-1
  6
ByLayer
 10
167.9618999999999573
 20
1.46189999999973
 30
0.0
 40
1.5
  0
CIRCLE
  5
1BF
100
AcDbEntity
100
AcDbCircle
  8
2 top
 62
256
370
-1
  6
ByLayer
 10
76.0380999999998437
 20
-90.4619000000001705
 30
0.0
 40
1.5
  0
CIRCLE
  5
1C0
100
AcDbEntity
100
AcDbCircle
  8
2 top
 62
256
370
-1
  6
ByLayer
 10
167.9618999999998721
 20
-90.4619000000002984
 30
0.0
 40
1.5
  0
LINE
  5
1C1
100
AcDbEntity
100
AcDbLine
  8
2 top
 62
256
370
-1
  6
ByLayer
 10
101.0380999999999574
 20
3.9618999999997513
 30
0.0
 11
81.0380999999999574
 21
3.9618999999997584
 31
0.0
  0
LINE
  5
1C2
100
AcDbEntity
100
AcDbLine
  8
2 top
 62
256
370
-1
  6
ByLayer
 10
101.0380999999999574
 20
3.9618999999997513
 30
0.0
 11
101.0380999999999432
 21
-1.0381000000002629
 31
0.0
  0
LINE
  5
1C3
100
AcDbEntity
100
AcDbLine
  8
2 top
 62
256
370
-1
  6
ByLayer
 10
81.0380999999999574
 20
-1.0381000000002274
 30
0.0
 11
101.0380999999999432
 21
-1.0381000000002629
 31
0.0
  0
LINE
  5
1C4
100
AcDbEntity
100
AcDbLine
  8
2 top
 62
256
370
-1
  6
ByLayer
 10
81.0380999999998579
 20
-87.9619000000001847
 30
0.0
 11
81.0380999999998721
 21
-92.9619000000001989
 31
0.0
  0
LINE
  5
1C5
100
AcDbEntity
100
AcDbLine
  8
2 top
 62
256
370
-1
  6
ByLayer
 10
101.0380999999998295
 20
-87.9619000000001847
 30
0.0
 11
81.0380999999998579
 21
-87.9619000000001847
 31
0.0
  0
LINE
  5
1C6
100
AcDbEntity
100
AcDbLine
  8
2 top
 62
256
370
-1
  6
ByLayer
 10
101.0380999999998295
 20
-87.9619000000001847
 30
0.0
 11
101.0380999999998437
 21
-92.9619000000002131
 31
0.0
  0
LINE
  5
1C7
100
AcDbEntity
100
AcDbLine
  8
2 top
 62
256
370
-1
  6
ByLayer
 10
81.0380999999998721
 20
-92.9619000000001989
 30
0.0
 11
101.0380999999998437
 21
-92.9619000000002131
 31
0.0
  0
LINE
  5
1C8
100
AcDbEntity
100
AcDbLine
  8
2 top
 62
256
370
-1
  6
ByLayer
 10
171.9999999999999147
 20
-94.5000000000001137
 30
0.0
 11
71.9999999999999147
 21
-94.5
 31
0.0
  0
LINE
  5
1C9
100
AcDbEntity
100
AcDbLine
  8
2 top
 62
256
370
-1
  6
ByLayer
 10
171.9999999999999432
 20
5.4999999999998579
 30
0.0
 11
171.9999999999999147
 21
-94.5000000000001137
 31
0.0
  0
LINE
  5
1CA
100
AcDbEntity
100
AcDbLine
  8
2 top
 62
256
370
-1
  6
ByLayer
 10
113.9999999999999147
 20
3.9618999999997513
 30
0.0
 11
113.9999999999999289
 21
-1.03810000000027
 31
0.0
  0
LINE
  5
1CB
100
AcDbEntity
100
AcDbLine
  8
2 top
 62
256
370
-1
  6
ByLayer
 10
113.9999999999998437
 20
-87.9619000000002274
 30
0.0
 11
113.9999999999998721
 21
-92.9619000000002274
 31
0.0
  0
LINE
  5
1CC
100
AcDbEntity
100
AcDbLine
  8
2 top
 62
256
370
-1
  6
ByLayer
 10
162.9999999999999147
 20
5.499999999999865
 30
0.0
 11
162.9999999999999147
 21
-3.5000000000002345
 31
0.0
  0
LINE
  5
1CD
100
AcDbEntity
100
AcDbLine
  8
2 top
 62
256
370
-1
  6
ByLayer
 10
162.9999999999999147
 20
-3.5000000000002345
 30
0.0
 11
133.9999999999999147
 21
-3.5000000000002274
 31
0.0
  0
LINE
  5
1CE
100
AcDbEntity
100
AcDbLine
  8
2 top
 62
256
370
-1
  6
ByLayer
 10
162.9999999999999147
 20
5.499999999999865
 30
0.0
 11
171.9999999999999716
 21
5.4999999999998721
 31
0.0
  0
LINE
  5
1CF
100
AcDbEntity
100
AcDbLine
  8
2 top
 62
256
370
-1
  6
ByLayer
 10
123.9999999999999147
 20
3.96189999999973
 30
0.0
 11
123.9999999999999147
 21
-1.0381000000002629
 31
0.0
  0
LINE
  5
1D0
100
AcDbEntity
100
AcDbLine
  8
2 top
 62
256
370
-1
  6
ByLayer
 10
123.9999999999998579
 20
-87.9619000000002416
 30
0.0
 11
123.9999999999998295
 21
-92.9619000000002558
 31
0.0
  0
LINE
  5
1D1
100
AcDbEntity
100
AcDbLine
  8
2 top
 62
256
370
-1
  6
ByLayer
 10
113.9999999999999289
 20
-1.0381000000002629
 30
0.0
 11
123.9999999999999147
 21
-1.0381000000002629
 31
0.0
  0
LINE
  5
1D2
100
AcDbEntity
100
AcDbLine
  8
2 top
 62
256
370
-1
  6
ByLayer
 10
123.9999999999999147
 20
3.96189999999973
 30
0.0
 11
113.9999999999999147
 21
3.9618999999997513
 31
0.0
  0
LINE
  5
1D3
100
AcDbEntity
100
AcDbLine
  8
2 top
 62
256
370
-1
  6
ByLayer
 10
123.9999999999998579
 20
-87.9619000000002416
 30
0.0
 11
113.9999999999998437
 21
-87.9619000000002274
 31
0.0
  0
LINE
  5
1D4
100
AcDbEntity
100
AcDbLine
  8
2 top
 62
256
370
-1
  6
ByLayer
 10
113.9999999999998721
 20
-92.9619000000002274
 30
0.0
 11
123.9999999999998295
 21
-92.9619000000002558
 31
0.0
  0
ARC
  5
1D5
100
AcDbEntity
  8
2 top
 62
256
370
-1
  6
ByLayer
100
AcDbCircle
 10
130.4809512975913321
 20
7.4999999999999076
 30
0.0
 40
2.0
100
AcDbArc
 50
180.0
 51
270.0
  0
ARC
  5
1D6
100
AcDbEntity
  8
2 top
 62
256
370
-1
  6
ByLayer
100
AcDbCircle
 10
113.519051297591318
 20
7.4999999999998863
 30
0.0
 40
2.0
100
AcDbArc
 50
270.0
 51
360.0
  0
LINE
  5
1D7
100
AcDbEntity
100
AcDbLine
  8
2 top
 62
256
370
-1
  6
ByLayer
 10
130.4809512975913321
 20
5.4999999999998721
 30
0.0
 11
133.9999999999999147
 21
5.499999999999865
 31
0.0
  0
LINE
  5
1D8
100
AcDbEntity
100
AcDbLine
  8
2 top
 62
256
370
-1
  6
ByLayer
 10
71.9999999999999432
 20
5.4999999999998863
 30
0.0
 11
113.519051297591318
 21
5.4999999999998792
 31
0.0
  0
CIRCLE
  5
1D9
100
AcDbEntity
100
AcDbCircle
  8
2 top
 62
256
370
-1
  6
ByLayer
 10
122.0000000000014779
 20
9.9999999999999929
 30
0.0
 40
2.3999999999999999
  0
ARC
  5
1DA
100
AcDbEntity
  8
2 top
 62
256
370
-1
  6
ByLayer
100
AcDbCircle
 10
126.4809500000013429
 20
12.4999999999998934
 30
0.0
 40
2.0
100
AcDbArc
 50
0.0
 51
90.0
  0
ARC
  5
1DB
100
AcDbEntity
  8
2 top
 62
256
370
-1
  6
ByLayer
100
AcDbCircle
 10
117.5190500000013287
 20
12.4999999999998863
 30
0.0
 40
2.0
100
AcDbArc
 50
90.0
 51
180.0
  0
LINE
  5
1DC
100
AcDbEntity
100
AcDbLine
  8
2 top
 62
256
370
-1
  6
ByLayer
 10
117.5190500000013287
 20
14.4999999999998721
 30
0.0
 11
126.4809500000013429
 21
14.4999999999998792
 31
0.0
  0
LINE
  5
1DD
100
AcDbEntity
100
AcDbLine
  8
2 top
 62
256
370
-1
  6
ByLayer
 10
115.519051297591318
 20
7.4999999999998863
 30
0.0
 11
115.5190502531524999
 21
12.4999998457036838
 31
0.0
  0
LINE
  5
1DE
100
AcDbEntity
100
AcDbLine
  8
2 top
 62
256
370
-1
  6
ByLayer
 10
128.4809501066148414
 20
12.500000175944308
 30
0.0
 11
128.4809512975913321
 21
7.4999999999999076
 31
0.0
  0
CIRCLE
  5
1DF
100
AcDbEntity
100
AcDbCircle
  8
2 top
 62
256
370
-1
  6
ByLayer
 10
121.9999999999999147
 20
-48.5381000000002345
 30
0.0
 40
2.5
  0
LINE
  5
1E0
100
AcDbEntity
100
AcDbLine
  8
6 scraper
 62
256
370
-1
  6
ByLayer
 10
171.9999999999999147
 20
2.4237999999998507
 30
0.0
 11
176.9999999999999147
 21
2.4237999999998578
 31
0.0
  0
LINE
  5
1E1
100
AcDbEntity
100
AcDbLine
  8
6 scraper
 62
256
370
-1
  6
ByLayer
 10
176.9999999999999147
 20
2.4237999999998578
 30
0.0
 11
176.9999999999999147
 21
-2.5762000000001422
 31
0.0
  0
LINE
  5
1E2
100
AcDbEntity
100
AcDbLine
  8
6 scraper
 62
256
370
-1
  6
ByLayer
 10
171.9999999999999147
 20
-94.5000000000001137
 30
0.0
 11
176.9999999999998863
 21
-94.5000000000001137
 31
0.0
  0
LINE
  5
1E3
100
AcDbEntity
100
AcDbLine
  8
6 scraper
 62
256
370
-1
  6
ByLayer
 10
176.9999999999998863
 20
-94.5000000000001137
 30
0.0
 11
176.9999999999999147
 21
-89.5000000000001137
 31
0.0
  0
LINE
  5
1E4
100
AcDbEntity
100
AcDbLine
  8
6 scraper
 62
256
370
-1
  6
ByLayer
 10
180.4999999999999147
 20
-82.3967018719529847
 30
0.0
 11
183.4999999999998863
 21
-82.3967018719529847
 31
0.0
  0
LINE
  5
1E5
100
AcDbEntity
100
AcDbLine
  8
6 scraper
 62
256
370
-1
  6
ByLayer
 10
179.1399999999999295
 20
-85.5667018719529722
 30
0.0
 11
179.1399999999999011
 21
-83.3967018719529847
 31
0.0
  0
LINE
  5
1E6
100
AcDbEntity
100
AcDbLine
  8
6 scraper
 62
256
370
-1
  6
ByLayer
 10
184.8599999999999
 20
-83.3967018719529847
 30
0.0
 11
184.8599999999999284
 21
-85.5667018719529864
 31
0.0
  0
LINE
  5
1E7
100
AcDbEntity
100
AcDbLine
  8
6 scraper
 62
256
370
-1
  6
ByLayer
 10
180.4999999999999147
 20
-85.5667018719529722
 30
0.0
 11
179.1399999999999295
 21
-85.5667018719529722
 31
0.0
  0
LINE
  5
1E8
100
AcDbEntity
100
AcDbLine
  8
6 scraper
 62
256
370
-1
  6
ByLayer
 10
184.8599999999999284
 20
-85.5667018719529864
 30
0.0
 11
183.4999999999998863
 21
-85.5667018719529864
 31
0.0
  0
LINE
  5
1E9
100
AcDbEntity
100
AcDbLine
  8
6 scraper
 62
256
370
-1
  6
ByLayer
 10
183.4999999999998863
 20
-82.3967018719529847
 30
0.0
 11
183.4999999999999432
 21
-83.3967018719529847
 31
0.0
  0
LINE
  5
1EA
100
AcDbEntity
100
AcDbLine
  8
6 scraper
 62
256
370
-1
  6
ByLayer
 10
183.4999999999999432
 20
-83.3967018719529847
 30
0.0
 11
184.8599999999999
 21
-83.3967018719529847
 31
0.0
  0
LINE
  5
1EB
100
AcDbEntity
100
AcDbLine
  8
6 scraper
 62
256
370
-1
  6
ByLayer
 10
179.1399999999999011
 20
-83.3967018719529847
 30
0.0
 11
180.4999999999999147
 21
-83.3967018719529847
 31
0.0
  0
LINE
  5
1EC
100
AcDbEntity
100
AcDbLine
  8
6 scraper
 62
256
370
-1
  6
ByLayer
 10
180.4999999999999147
 20
-83.3967018719529847
 30
0.0
 11
180.4999999999999147
 21
-82.3967018719529847
 31
0.0
  0
LINE
  5
1ED
100
AcDbEntity
100
AcDbLine
  8
6 scraper
 62
256
370
-1
  6
ByLayer
 10
180.4999999999999147
 20
-89.0000000000001137
 30
0.0
 11
180.4999999999999147
 21
-85.5667018719529722
 31
0.0
  0
LINE
  5
1EE
100
AcDbEntity
100
AcDbLine
  8
6 scraper
 62
256
370
-1
  6
ByLayer
 10
183.4999999999998863
 20
-85.5667018719529864
 30
0.0
 11
183.4999999999999147
 21
-89.0000000000001137
 31
0.0
  0
LINE
  5
1EF
100
AcDbEntity
100
AcDbLine
  8
6 scraper
 62
256
370
-1
  6
ByLayer
 10
179.9999999999999147
 20
-89.5000000000001137
 30
0.0
 11
176.9999999999999147
 21
-89.5000000000001137
 31
0.0
  0
ARC
  5
1F0
100
AcDbEntity
  8
6 scraper
 62
256
370
-1
  6
ByLayer
100
AcDbCircle
 10
179.9999999999998863
 20
-89.0000000000001137
 30
0.0
 40
0.5
100
AcDbArc
 50
270.0000000000000568
 51
0.0
  0
ARC
  5
1F1
100
AcDbEntity
  8
6 scraper
 62
256
370
-1
  6
ByLayer
100
AcDbCircle
 10
183.9999999999998863
 20
-89.0000000000001137
 30
0.0
 40
0.5
100
AcDbArc
 50
180.0
 51
269.9999999999999432
  0
LINE
  5
1F2
100
AcDbEntity
100
AcDbLine
  8
6 scraper
 62
256
370
-1
  6
ByLayer
 10
179.9999999999999147
 20
-89.5000000000001137
 30
0.0
 11
176.9999999999999147
 21
-89.5000000000001137
 31
0.0
  0
ARC
  5
1F3
100
AcDbEntity
  8
6 scraper
 62
256
370
-1
  6
ByLayer
100
AcDbCircle
 10
179.9999999999998863
 20
-89.0000000000001137
 30
0.0
 40
0.5
100
AcDbArc
 50
270.0000000000000568
 51
0.0
  0
ARC
  5
1F4
100
AcDbEntity
  8
6 scraper
 62
256
370
-1
  6
ByLayer
100
AcDbCircle
 10
183.9999999999998863
 20
-89.0000000000001137
 30
0.0
 40
0.5
100
AcDbArc
 50
180.0
 51
269.9999999999999432
  0
LINE
  5
1F5
100
AcDbEntity
100
AcDbLine
  8
6 scraper
 62
256
370
-1
  6
ByLayer
 10
180.4999999999999147
 20
-9.6794981280472783
 30
0.0
 11
183.4999999999999147
 21
-9.6794981280472783
 31
0.0
  0
LINE
  5
1F6
100
AcDbEntity
100
AcDbLine
  8
6 scraper
 62
256
370
-1
  6
ByLayer
 10
179.1399999999999295
 20
-6.5094981280472908
 30
0.0
 11
179.1399999999999295
 21
-8.6794981280472712
 31
0.0
  0
LINE
  5
1F7
100
AcDbEntity
100
AcDbLine
  8
6 scraper
 62
256
370
-1
  6
ByLayer
 10
184.8599999999999
 20
-8.6794981280472783
 30
0.0
 11
184.8599999999999284
 21
-6.5094981280472837
 31
0.0
  0
LINE
  5
1F8
100
AcDbEntity
100
AcDbLine
  8
6 scraper
 62
256
370
-1
  6
ByLayer
 10
180.4999999999999147
 20
-6.5094981280472695
 30
0.0
 11
179.1399999999999295
 21
-6.5094981280472908
 31
0.0
  0
LINE
  5
1F9
100
AcDbEntity
100
AcDbLine
  8
6 scraper
 62
256
370
-1
  6
ByLayer
 10
184.8599999999999284
 20
-6.5094981280472837
 30
0.0
 11
183.4999999999999147
 21
-6.5094981280472552
 31
0.0
  0
LINE
  5
1FA
100
AcDbEntity
100
AcDbLine
  8
6 scraper
 62
256
370
-1
  6
ByLayer
 10
183.4999999999999147
 20
-9.6794981280472783
 30
0.0
 11
183.4999999999999432
 21
-8.6794981280472783
 31
0.0
  0
LINE
  5
1FB
100
AcDbEntity
100
AcDbLine
  8
6 scraper
 62
256
370
-1
  6
ByLayer
 10
183.4999999999999432
 20
-8.6794981280472783
 30
0.0
 11
184.8599999999999
 21
-8.6794981280472783
 31
0.0
  0
LINE
  5
1FC
100
AcDbEntity
100
AcDbLine
  8
6 scraper
 62
256
370
-1
  6
ByLayer
 10
179.1399999999999295
 20
-8.6794981280472712
 30
0.0
 11
180.4999999999999147
 21
-8.6794981280472712
 31
0.0
  0
LINE
  5
1FD
100
AcDbEntity
100
AcDbLine
  8
6 scraper
 62
256
370
-1
  6
ByLayer
 10
180.4999999999999147
 20
-8.6794981280472712
 30
0.0
 11
180.4999999999999147
 21
-9.6794981280472783
 31
0.0
  0
LINE
  5
1FE
100
AcDbEntity
100
AcDbLine
  8
6 scraper
 62
256
370
-1
  6
ByLayer
 10
180.4999999999999147
 20
-3.0762000000001493
 30
0.0
 11
180.4999999999999147
 21
-6.5094981280472695
 31
0.0
  0
LINE
  5
1FF
100
AcDbEntity
100
AcDbLine
  8
6 scraper
 62
256
370
-1
  6
ByLayer
 10
183.4999999999999147
 20
-6.5094981280472552
 30
0.0
 11
183.4999999999999147
 21
-3.0762000000001493
 31
0.0
  0
ARC
  5
200
100
AcDbEntity
  8
6 scraper
 62
256
370
-1
  6
ByLayer
100
AcDbCircle
 10
179.9999999999999147
 20
-3.0762000000001422
 30
0.0
 40
0.5
100
AcDbArc
 50
0.0
 51
89.9999999999999574
  0
ARC
  5
201
100
AcDbEntity
  8
6 scraper
 62
256
370
-1
  6
ByLayer
100
AcDbCircle
 10
183.9999999999999147
 20
-3.0762000000001493
 30
0.0
 40
0.5
100
AcDbArc
 50
90.0000000000000568
 51
180.0
  0
LINE
  5
202
100
AcDbEntity
100
AcDbLine
  8
6 scraper
 62
256
370
-1
  6
ByLayer
 10
179.9999999999999147
 20
-2.5762000000001493
 30
0.0
 11
176.9999999999999147
 21
-2.5762000000001493
 31
0.0
  0
ARC
  5
203
100
AcDbEntity
  8
6 scraper
 62
256
370
-1
  6
ByLayer
100
AcDbCircle
 10
179.9999999999999147
 20
-3.0762000000001422
 30
0.0
 40
0.5
100
AcDbArc
 50
0.0
 51
89.9999999999999574
  0
ARC
  5
204
100
AcDbEntity
  8
6 scraper
 62
256
370
-1
  6
ByLayer
100
AcDbCircle
 10
183.9999999999999147
 20
-3.0762000000001493
 30
0.0
 40
0.5
100
AcDbArc
 50
90.0000000000000568
 51
180.0
  0
LINE
  5
205
100
AcDbEntity
100
AcDbLine
  8
6 scraper
 62
256
370
-1
  6
ByLayer
 10
183.9999999999999147
 20
-89.5000000000001137
 30
0.0
 11
193.9999999999999147
 21
-89.5000000000001137
 31
0.0
  0
LINE
  5
206
100
AcDbEntity
100
AcDbLine
  8
6 scraper
 62
256
370
-1
  6
ByLayer
 10
183.9999999999999147
 20
-2.5762000000001493
 30
0.0
 11
193.9999999999999147
 21
-2.576200000000135
 31
0.0
  0
LINE
  5
207
100
AcDbEntity
100
AcDbLine
  8
6 scraper
 62
256
370
-1
  6
ByLayer
 10
193.9999999999999147
 20
-2.576200000000135
 30
0.0
 11
193.9999999999999147
 21
-89.5000000000001137
 31
0.0
  0
CIRCLE
  5
208
100
AcDbEntity
100
AcDbCircle
  8
8 brush retainer
 62
256
370
-1
  6
ByLayer
 10
140.4809487024085399
 20
7.5380999999999005
 30
0.0
 40
1.45
  0
ARC
  5
209
100
AcDbEntity
  8
8 brush retainer
 62
256
370
-1
  6
ByLayer
100
AcDbCircle
 10
144.9618987024099397
 20
10.038099999999929
 30
0.0
 40
2.0
100
AcDbArc
 50
0.0
 51
90.0
  0
ARC
  5
20A
100
AcDbEntity
  8
8 brush retainer
 62
256
370
-1
  6
ByLayer
100
AcDbCircle
 10
135.9999987024099255
 20
10.0380999999999005
 30
0.0
 40
2.0
100
AcDbArc
 50
90.0
 51
180.0
  0
LINE
  5
20B
100
AcDbEntity
100
AcDbLine
  8
8 brush retainer
 62
256
370
-1
  6
ByLayer
 10
135.9999987024099255
 20
12.038099999999929
 30
0.0
 11
144.9618987024099681
 21
12.0380999999999005
 31
0.0
  0
LINE
  5
20C
100
AcDbEntity
100
AcDbLine
  8
8 brush retainer
 62
256
370
-1
  6
ByLayer
 10
140.4809487024085399
 20
7.7761999999999034
 30
0.0
 11
140.4809487024085399
 21
12.0380999999999005
 31
0.0
  0
LINE
  5
20D
100
AcDbEntity
100
AcDbLine
  8
8 brush retainer
 62
256
370
-1
  6
ByLayer
 10
133.9999999999999147
 20
-3.5000000000002274
 30
0.0
 11
133.9999989555611251
 21
10.0380995822244188
 31
0.0
  0
LINE
  5
20E
100
AcDbEntity
100
AcDbLine
  8
8 brush retainer
 62
256
370
-1
  6
ByLayer
 10
146.9618988090234382
 20
10.0381001759443507
 30
0.0
 11
146.9618999999999573
 21
-3.5000000000002274
 31
0.0
  0
LINE
  5
20F
100
AcDbEntity
100
AcDbLine
  8
7 belt
 62
256
370
-1
  6
ByLayer
 10
306.0309035930349637
 20
-273.8060563170672594
 30
0.0
 11
60.0309035930349495
 21
-273.8060563170671458
 31
0.0
  0
ARC
  5
210
100
AcDbEntity
  8
7 belt
 62
256
370
-1
  6
ByLayer
100
AcDbCircle
 10
11.6104278448059688
 20
-194.8060563170671458
 30
0.0
 40
6.0
100
AcDbArc
 50
90.0
 51
215.217592968192605
  0
LINE
  5
211
100
AcDbEntity
100
AcDbLine
  8
7 belt
 62
256
370
-1
  6
ByLayer
 10
6.7086206652174667
 20
-198.2661555026589895
 30
0.0
 11
60.0309035930349353
 21
-273.8060563170671458
 31
0.0
  0
ARC
  5
212
100
AcDbEntity
  8
7 belt
 62
256
370
-1
  6
ByLayer
100
AcDbCircle
 10
257.6104278448065088
 20
-194.8060563170670321
 30
0.0
 40
6.0
100
AcDbArc
 50
90.0
 51
215.217592968192605
  0
LINE
  5
213
100
AcDbEntity
100
AcDbLine
  8
7 belt
 62
256
370
-1
  6
ByLayer
 10
11.6104278448059972
 20
-188.8060563170670605
 30
0.0
 11
257.6104278448065088
 21
-188.8060563170670889
 31
0.0
  0
LINE
  5
214
100
AcDbEntity
100
AcDbLine
  8
7 belt
 62
256
370
-1
  6
ByLayer
 10
306.0309035930350205
 20
-273.8060563170672594
 30
0.0
 11
252.7086206652166993
 21
-198.2661555026589326
 31
0.0
  0
LINE
  5
215
100
AcDbEntity
100
AcDbLine
  8
7 belt
 62
256
370
-1
  6
ByLayer
 10
314.3895721551938891
 20
-371.1939436829328542
 30
0.0
 11
68.3895721551939033
 21
-371.1939436829326837
 31
0.0
  0
LINE
  5
216
100
AcDbEntity
100
AcDbLine
  8
7 belt
 62
256
370
-1
  6
ByLayer
 10
314.3895721551940596
 20
-371.1939436829329111
 30
0.0
 11
254.3895721551930933
 21
-286.1939436829328542
 31
0.0
  0
LINE
  5
217
100
AcDbEntity
100
AcDbLine
  8
7 belt
 62
256
370
-1
  6
ByLayer
 10
8.389572155193747
 20
-286.1939436829325132
 30
0.0
 11
254.3895721551930933
 21
-286.1939436829328542
 31
0.0
  0
LINE
  5
218
100
AcDbEntity
100
AcDbLine
  8
7 belt
 62
256
370
-1
  6
ByLayer
 10
8.389572155193747
 20
-286.1939436829325132
 30
0.0
 11
68.3895721551938891
 21
-371.1939436829326837
 31
0.0
  0
ENDSEC
  0
SECTION
  2
OBJECTS
  0
DICTIONARY
  5
C
100
AcDbDictionary
280
0
281
1
  3
ACAD_GROUP
350
D
  3
ACAD_LAYOUT
350
1A
  3
ACAD_MLINESTYLE
350
17
  3
ACAD_PLOTSETTINGS
350
19
  3
ACAD_PLOTSTYLENAME
350
E
  3
AcDbVariableDictionary
350
219
  0
DICTIONARY
  5
D
100
AcDbDictionary
280
0
281
1
  0
ACDBDICTIONARYWDFLT
  5
E
100
AcDbDictionary
281
1
  3
Normal
350
F
100
AcDbDictionaryWithDefault
340
F
  0
ACDBPLACEHOLDER
  5
F
  0
DICTIONARY
  5
17
100
AcDbDictionary
280
0
281
1
  3
Standard
350
18
  0
MLINESTYLE
  5
18
100
AcDbMlineStyle
  2
STANDARD
 70
0
  3

 62
256
 51
90.0
 52
90.0
 71
2
 49
0.5
 62
256
  6
BYLAYER
 49
-0.5
 62
256
  6
BYLAYER
  0
DICTIONARY
  5
19
100
AcDbDictionary
280
0
281
1
  0
DICTIONARY
  5
1A
100
AcDbDictionary
281
1
  3
Layout1
350
1E
  3
Layout2
350
26
  3
Model
350
22
  0
LAYOUT
  5
1E
100
AcDbPlotSettings
  1

  2
C:\Program Files\AutoCAD 2002\plotters\DWF ePlot (optimized for plotting).pc3
  4

  6

 40
0.0
 41
0.0
 42
0.0
 43
0.0
 44
0.0
 45
0.0
 46
0.0
 47
0.0
 48
0.0
 49
0.0
140
0.0
141
0.0
142
1.0
143
1.0
 70
688
 72
0
 73
0
 74
5
  7

 75
16
147
1.0
148
0.0
149
0.0
100
AcDbLayout
  1
Layout1
 70
1
 71
1
 10
0.0
 20
0.0
 11
420.0
 21
297.0
 12
0.0
 22
0.0
 32
0.0
 14
100000000000000000000.0
 24
100000000000000000000.0
 34
100000000000000000000.0
 15
-100000000000000000000.0
 25
-100000000000000000000.0
 35
-100000000000000000000.0
146
0.0
 13
0.0
 23
0.0
 33
0.0
 16
1.0
 26
0.0
 36
0.0
 17
0.0
 27
1.0
 37
0.0
 76
0
330
1B
  0
LAYOUT
  5
22
100
AcDbPlotSettings
  1

  2
C:\Program Files\AutoCAD 2002\plotters\DWF ePlot (optimized for plotting).pc3
  4

  6

 40
0.0
 41
0.0
 42
0.0
 43
0.0
 44
0.0
 45
0.0
 46
0.0
 47
0.0
 48
0.0
 49
0.0
140
0.0
141
0.0
142
1.0
143
1.0
 70
1712
 72
0
 73
0
 74
0
  7

 75
0
147
1.0
148
0.0
149
0.0
100
AcDbLayout
  1
Model
 70
1
 71
0
 10
0.0
 20
0.0
 11
12.0
 21
9.0
 12
0.0
 22
0.0
 32
0.0
 14
0.0
 24
0.0
 34
0.0
 15
0.0
 25
0.0
 35
0.0
146
0.0
 13
0.0
 23
0.0
 33
0.0
 16
1.0
 26
0.0
 36
0.0
 17
0.0
 27
1.0
 37
0.0
 76
0
330
1F
  0
LAYOUT
  5
26
100
AcDbPlotSettings
  1

  2
C:\Program Files\AutoCAD 2002\plotters\DWF ePlot (optimized for plotting).pc3
  4

  6

 40
0.0
 41
0.0
 42
0.0
 43
0.0
 44
0.0
 45
0.0
 46
0.0
 47
0.0
 48
0.0
 49
0.0
140
0.0
141
0.0
142
1.0
143
1.0
 70
688
 72
0
 73
0
 74
5
  7

 75
16
147
1.0
148
0.0
149
0.0
100
AcDbLayout
  1
Layout2
 70
1
 71
2
 10
0.0
 20
0.0
 11
12.0
 21
9.0
 12
0.0
 22
0.0
 32
0.0
 14
0.0
 24
0.0
 34
0.0
 15
0.0
 25
0.0
 35
0.0
146
0.0
 13
0.0
 23
0.0
 33
0.0
 16
1.0
 26
0.0
 36
0.0
 17
0.0
 27
1.0
 37
0.0
 76
0
330
23
  0
DICTIONARY
  5
219
100
AcDbDictionary
281
1
  3
DIMASSOC
350
21B
  3
HIDETEXT
350
21A
  0
DICTIONARYVAR
  5
21A
100
DictionaryVariables
280
0
  1
2
  0
DICTIONARYVAR
  5
21B
100
DictionaryVariables
280
0
  1
1
  0
ENDSEC
  0
EOF
