999
dxflib 2.2.0.0
  0
SECTION
  2
HEADER
  9
$ACADVER
  1
AC1015
  9
$HANDSEED
  5
FFFF
  9
$DIMASZ
 40
2.5
  9
$PLIMMIN
 10
0.0
 20
0.0
  9
$DIMEXE
 40
1.25
  9
$DIMGAP
 40
0.625
  9
$PLIMMAX
 10
210.0
 20
297.0
  9
$INSUNITS
 70
4
  9
$DIMSTYLE
  2
Standard
  9
$CLAYER
  8
0
  9
$DIMEXO
 40
0.625
  9
$DIMTXT
 40
2.5
  9
$CLAYER
  8
0
  0
ENDSEC
  0
SECTION
  2
TABLES
  0
TABLE
  2
VPORT
  5
8
100
AcDbSymbolTable
 70
1
  0
VPORT
  5
30
100
AcDbSymbolTableRecord
100
AcDbViewportTableRecord
  2
*Active
 70
0
 10
0.0
 20
0.0
 11
1.0
 21
1.0
 12
286.3055555555554861
 22
148.5
 13
0.0
 23
0.0
 14
10.0
 24
10.0
 15
10.0
 25
10.0
 16
0.0
 26
0.0
 36
1.0
 17
0.0
 27
0.0
 37
0.0
 40
297.0
 41
1.92798353909465
 42
50.0
 43
0.0
 44
0.0
 50
0.0
 51
0.0
 71
0
 72
100
 73
1
 74
3
 75
1
 76
1
 77
0
 78
0
281
0
 65
1
110
0.0
120
0.0
130
0.0
111
1.0
121
0.0
131
0.0
112
0.0
122
1.0
132
0.0
 79
0
146
0.0
  0
ENDTAB
  0
TABLE
  2
LTYPE
  5
5
100
AcDbSymbolTable
 70
21
  0
LTYPE
  5
14
100
AcDbSymbolTableRecord
100
AcDbLinetypeTableRecord
  2
ByBlock
 70
0
  3

 72
65
 73
0
 40
0.0
  0
LTYPE
  5
15
100
AcDbSymbolTableRecord
100
AcDbLinetypeTableRecord
  2
ByLayer
 70
0
  3

 72
65
 73
0
 40
0.0
  0
LTYPE
  5
16
100
AcDbSymbolTableRecord
100
AcDbLinetypeTableRecord
  2
CONTINUOUS
 70
0
  3
Solid line
 72
65
 73
0
 40
0.0
  0
LTYPE
  5
31
100
AcDbSymbolTableRecord
100
AcDbLinetypeTableRecord
  2
DOT
 70
0
  3
Dot . . . . . . . . . . . . . . . . . . . . . .
 72
65
 73
2
 40
6.3499999999999996
 49
0.0
 74
0
 49
-6.3499999999999996
 74
0
  0
LTYPE
  5
32
100
AcDbSymbolTableRecord
100
AcDbLinetypeTableRecord
  2
DOT2
 70
0
  3
Dot (.5x) .....................................
 72
65
 73
2
 40
3.1749999999999998
 49
0.0
 74
0
 49
-3.1749999999999998
 74
0
  0
LTYPE
  5
33
100
AcDbSymbolTableRecord
100
AcDbLinetypeTableRecord
  2
DOTX2
 70
0
  3
Dot (2x) .  .  .  .  .  .  .  .  .  .  .  .  .
 72
65
 73
2
 40
12.6999999999999993
 49
0.0
 74
0
 49
-12.6999999999999993
 74
0
  0
LTYPE
  5
34
100
AcDbSymbolTableRecord
100
AcDbLinetypeTableRecord
  2
DASHED
 70
0
  3
Dashed __ __ __ __ __ __ __ __ __ __ __ __ __ _
 72
65
 73
2
 40
19.0500000000000007
 49
12.6999999999999993
 74
0
 49
-6.3499999999999996
 74
0
  0
LTYPE
  5
35
100
AcDbSymbolTableRecord
100
AcDbLinetypeTableRecord
  2
DASHED2
 70
0
  3
Dashed (.5x) _ _ _ _ _ _ _ _ _ _ _ _ _ _ _ _ _
 72
65
 73
2
 40
9.5250000000000004
 49
6.3499999999999996
 74
0
 49
-3.1749999999999998
 74
0
  0
LTYPE
  5
36
100
AcDbSymbolTableRecord
100
AcDbLinetypeTableRecord
  2
DASHEDX2
 70
0
  3
Dashed (2x) ____  ____  ____  ____  ____  ___
 72
65
 73
2
 40
38.1000000000000014
 49
25.3999999999999986
 74
0
 49
-12.6999999999999993
 74
0
  0
LTYPE
  5
37
100
AcDbSymbolTableRecord
100
AcDbLinetypeTableRecord
  2
DASHDOT
 70
0
  3
Dash dot __ . __ . __ . __ . __ . __ . __ . __
 72
65
 73
4
 40
25.3999999999999986
 49
12.6999999999999993
 74
0
 49
-6.3499999999999996
 74
0
 49
0.0
 74
0
 49
-6.3499999999999996
 74
0
  0
LTYPE
  5
38
100
AcDbSymbolTableRecord
100
AcDbLinetypeTableRecord
  2
DASHDOT2
 70
0
  3
Dash dot (.5x) _._._._._._._._._._._._._._._.
 72
65
 73
4
 40
12.6999999999999993
 49
6.3499999999999996
 74
0
 49
-3.1749999999999998
 74
0
 49
0.0
 74
0
 49
-3.1749999999999998
 74
0
  0
LTYPE
  5
39
100
AcDbSymbolTableRecord
100
AcDbLinetypeTableRecord
  2
DASHDOTX2
 70
0
  3
Dash dot (2x) ____  .  ____  .  ____  .  ___
 72
65
 73
4
 40
50.7999999999999972
 49
25.3999999999999986
 74
0
 49
-12.6999999999999993
 74
0
 49
0.0
 74
0
 49
-12.6999999999999993
 74
0
  0
LTYPE
  5
3A
100
AcDbSymbolTableRecord
100
AcDbLinetypeTableRecord
  2
DIVIDE
 70
0
  3
Divide ____ . . ____ . . ____ . . ____ . . ____
 72
65
 73
6
 40
31.75
 49
12.6999999999999993
 74
0
 49
-6.3499999999999996
 74
0
 49
0.0
 74
0
 49
-6.3499999999999996
 74
0
 49
0.0
 74
0
 49
-6.3499999999999996
 74
0
  0
LTYPE
  5
3B
100
AcDbSymbolTableRecord
100
AcDbLinetypeTableRecord
  2
DIVIDE2
 70
0
  3
Divide (.5x) __..__..__..__..__..__..__..__.._
 72
65
 73
6
 40
15.875
 49
6.3499999999999996
 74
0
 49
-3.1749999999999998
 74
0
 49
0.0
 74
0
 49
-3.1749999999999998
 74
0
 49
0.0
 74
0
 49
-3.1749999999999998
 74
0
  0
LTYPE
  5
3C
100
AcDbSymbolTableRecord
100
AcDbLinetypeTableRecord
  2
DIVIDEX2
 70
0
  3
Divide (2x) ________  .  .  ________  .  .  _
 72
65
 73
6
 40
63.5
 49
25.3999999999999986
 74
0
 49
-12.6999999999999993
 74
0
 49
0.0
 74
0
 49
-12.6999999999999993
 74
0
 49
0.0
 74
0
 49
-12.6999999999999993
 74
0
  0
LTYPE
  5
3D
100
AcDbSymbolTableRecord
100
AcDbLinetypeTableRecord
  2
CENTER
 70
0
  3
Center ____ _ ____ _ ____ _ ____ _ ____ _ ____
 72
65
 73
4
 40
50.7999999999999972
 49
31.75
 74
0
 49
-6.3499999999999996
 74
0
 49
6.3499999999999996
 74
0
 49
-6.3499999999999996
 74
0
  0
LTYPE
  5
3E
100
AcDbSymbolTableRecord
100
AcDbLinetypeTableRecord
  2
CENTER2
 70
0
  3
Center (.5x) ___ _ ___ _ ___ _ ___ _ ___ _ ___
 72
65
 73
4
 40
28.5749999999999993
 49
19.0500000000000007
 74
0
 49
-3.1749999999999998
 74
0
 49
3.1749999999999998
 74
0
 49
-3.1749999999999998
 74
0
  0
LTYPE
  5
3F
100
AcDbSymbolTableRecord
100
AcDbLinetypeTableRecord
  2
CENTERX2
 70
0
  3
Center (2x) ________  __  ________  __  _____
 72
65
 73
4
 40
101.5999999999999943
 49
63.5
 74
0
 49
-12.6999999999999993
 74
0
 49
12.6999999999999993
 74
0
 49
-12.6999999999999993
 74
0
  0
LTYPE
  5
40
100
AcDbSymbolTableRecord
100
AcDbLinetypeTableRecord
  2
BORDER
 70
0
  3
Border __ __ . __ __ . __ __ . __ __ . __ __ .
 72
65
 73
6
 40
44.4500000000000028
 49
12.6999999999999993
 74
0
 49
-6.3499999999999996
 74
0
 49
12.6999999999999993
 74
0
 49
-6.3499999999999996
 74
0
 49
0.0
 74
0
 49
-6.3499999999999996
 74
0
  0
LTYPE
  5
41
100
AcDbSymbolTableRecord
100
AcDbLinetypeTableRecord
  2
BORDER2
 70
0
  3
Border (.5x) __.__.__.__.__.__.__.__.__.__.__.
 72
65
 73
6
 40
22.2250000000000014
 49
6.3499999999999996
 74
0
 49
-3.1749999999999998
 74
0
 49
6.3499999999999996
 74
0
 49
-3.1749999999999998
 74
0
 49
0.0
 74
0
 49
-3.1749999999999998
 74
0
  0
LTYPE
  5
42
100
AcDbSymbolTableRecord
100
AcDbLinetypeTableRecord
  2
BORDERX2
 70
0
  3
Border (2x) ____  ____  .  ____  ____  .  ___
 72
65
 73
6
 40
88.9000000000000057
 49
25.3999999999999986
 74
0
 49
-12.6999999999999993
 74
0
 49
25.3999999999999986
 74
0
 49
-12.6999999999999993
 74
0
 49
0.0
 74
0
 49
-12.6999999999999993
 74
0
  0
ENDTAB
  0
TABLE
  2
LAYER
  5
2
100
AcDbSymbolTable
 70
10
  0
LAYER
  5
10
100
AcDbSymbolTableRecord
100
AcDbLayerTableRecord
  2
0
 70
0
 62
7
420
0
  6
CONTINUOUS
370
25
390
F
  0
LAYER
  5
43
100
AcDbSymbolTableRecord
100
AcDbLayerTableRecord
  2
1 bottom
 70
0
 62
7
420
0
  6
CONTINUOUS
370
0
390
F
  0
LAYER
  5
44
100
AcDbSymbolTableRecord
100
AcDbLayerTableRecord
  2
4 side cover
 70
0
 62
7
420
0
  6
CONTINUOUS
370
0
390
F
  0
LAYER
  5
45
100
AcDbSymbolTableRecord
100
AcDbLayerTableRecord
  2
2 top
 70
0
 62
7
420
0
  6
CONTINUOUS
370
0
390
F
  0
LAYER
  5
46
100
AcDbSymbolTableRecord
100
AcDbLayerTableRecord
  2
3 side
 70
0
 62
7
420
0
  6
CONTINUOUS
370
0
390
F
  0
LAYER
  5
47
100
AcDbSymbolTableRecord
100
AcDbLayerTableRecord
  2
5 gears
 70
0
 62
7
420
0
  6
CONTINUOUS
370
0
390
F
  0
LAYER
  5
48
100
AcDbSymbolTableRecord
100
AcDbLayerTableRecord
  2
6 scraper
 70
0
 62
7
420
0
  6
CONTINUOUS
370
0
390
F
  0
LAYER
  5
49
100
AcDbSymbolTableRecord
100
AcDbLayerTableRecord
  2
7 belt
 70
0
 62
7
420
0
  6
CONTINUOUS
370
0
390
F
  0
LAYER
  5
4A
100
AcDbSymbolTableRecord
100
AcDbLayerTableRecord
  2
5a gear, shaft
 70
0
 62
7
420
0
  6
CONTINUOUS
370
0
390
F
  0
LAYER
  5
4B
100
AcDbSymbolTableRecord
100
AcDbLayerTableRecord
  2
5b gear, motor
 70
0
 62
7
420
0
  6
CONTINUOUS
370
0
390
F
  0
ENDTAB
  0
TABLE
  2
STYLE
  5
3
100
AcDbSymbolTable
 70
1
  0
STYLE
  5
11
100
AcDbSymbolTableRecord
100
AcDbTextStyleTableRecord
  2
Standard
 70
0
 40
0.0
 41
0.75
 50
0.0
 71
0
 42
2.5
  3
txt
  4

  0
ENDTAB
  0
TABLE
  2
VIEW
  5
6
100
AcDbSymbolTable
 70
0
  0
ENDTAB
  0
TABLE
  2
UCS
  5
7
100
AcDbSymbolTable
 70
0
  0
ENDTAB
  0
TABLE
  2
APPID
  5
9
100
AcDbSymbolTable
 70
1
  0
APPID
  5
12
100
AcDbSymbolTableRecord
100
AcDbRegAppTableRecord
  2
ACAD
 70
0
  0
ENDTAB
  0
TABLE
  2
DIMSTYLE
  5
A
100
AcDbSymbolTable
 70
1
100
AcDbDimStyleTable
 71
0
  0
DIMSTYLE
105
27
100
AcDbSymbolTableRecord
100
AcDbDimStyleTableRecord
  2
Standard
 41
2.5
 42
0.625
 43
3.75
 44
1.25
 70
0
 73
0
 74
0
 77
1
 78
8
140
2.5
141
2.5
143
0.03937007874016
147
0.625
171
3
172
1
271
2
272
2
274
3
278
44
283
0
284
8
340
11
  0
ENDTAB
  0
TABLE
  2
BLOCK_RECORD
  5
1
100
AcDbSymbolTable
 70
1
  0
BLOCK_RECORD
  5
1F
100
AcDbSymbolTableRecord
100
AcDbBlockTableRecord
  2
*Model_Space
340
22
  0
BLOCK_RECORD
  5
1B
100
AcDbSymbolTableRecord
100
AcDbBlockTableRecord
  2
*Paper_Space
340
1E
  0
BLOCK_RECORD
  5
23
100
AcDbSymbolTableRecord
100
AcDbBlockTableRecord
  2
*Paper_Space0
340
26
  0
BLOCK_RECORD
  5
4C
100
AcDbSymbolTableRecord
100
AcDbBlockTableRecord
  2
holes-20
340
0
  0
BLOCK_RECORD
  5
4D
100
AcDbSymbolTableRecord
100
AcDbBlockTableRecord
  2
tabs-with-bolt-20
340
0
  0
ENDTAB
  0
ENDSEC
  0
SECTION
  2
BLOCKS
  0
BLOCK
  5
20
100
AcDbEntity
  8
0
100
AcDbBlockBegin
  2
*Model_Space
 70
0
 10
0.0
 20
0.0
 30
0.0
  3
*Model_Space
  1

  0
ENDBLK
  5
21
100
AcDbEntity
  8
0
100
AcDbBlockEnd
  0
BLOCK
  5
1C
100
AcDbEntity
 67
1
  8
0
100
AcDbBlockBegin
  2
*Paper_Space
 70
0
 10
0.0
 20
0.0
 30
0.0
  3
*Paper_Space
  1

  0
ENDBLK
  5
1D
100
AcDbEntity
 67
1
  8
0
100
AcDbBlockEnd
  0
BLOCK
  5
24
100
AcDbEntity
  8
0
100
AcDbBlockBegin
  2
*Paper_Space0
 70
0
 10
0.0
 20
0.0
 30
0.0
  3
*Paper_Space0
  1

  0
ENDBLK
  5
25
100
AcDbEntity
  8
0
100
AcDbBlockEnd
  0
BLOCK
  5
4E
100
AcDbEntity
  8
0
100
AcDbBlockBegin
  2
holes-20
 70
0
 10
0.0
 20
0.0
 30
0.0
  3
holes-20
  1

  0
CIRCLE
  5
4F
100
AcDbEntity
100
AcDbCircle
  8
0
 62
256
370
-1
  6
ByLayer
 10
0.0
 20
0.0
 30
0.0
 40
1.5
  0
LINE
  5
50
100
AcDbEntity
100
AcDbLine
  8
0
 62
256
370
-1
  6
ByLayer
 10
5.0
 20
2.5000000000000004
 30
0.0
 11
10.0
 21
2.5000000000000009
 31
0.0
  0
LINE
  5
51
100
AcDbEntity
100
AcDbLine
  8
0
 62
256
370
-1
  6
ByLayer
 10
4.9999999999999991
 20
-2.5000000000000013
 30
0.0
 11
10.0
 21
-2.5000000000000031
 31
0.0
  0
LINE
  5
52
100
AcDbEntity
100
AcDbLine
  8
0
 62
256
370
-1
  6
ByLayer
 10
-4.9999999999999991
 20
2.5000000000000004
 30
0.0
 11
-10.0
 21
2.5000000000000022
 31
0.0
  0
LINE
  5
53
100
AcDbEntity
100
AcDbLine
  8
0
 62
256
370
-1
  6
ByLayer
 10
-5.0000000000000018
 20
-2.5
 30
0.0
 11
-10.0
 21
-2.4999999999999996
 31
0.0
  0
LINE
  5
54
100
AcDbEntity
100
AcDbLine
  8
0
 62
256
370
-1
  6
ByLayer
 10
-10.0
 20
2.5000000000000022
 30
0.0
 11
-10.0
 21
-2.4999999999999996
 31
0.0
  0
LINE
  5
55
100
AcDbEntity
100
AcDbLine
  8
0
 62
256
370
-1
  6
ByLayer
 10
-4.9999999999999991
 20
2.5000000000000004
 30
0.0
 11
-5.0000000000000018
 21
-2.5
 31
0.0
  0
LINE
  5
56
100
AcDbEntity
100
AcDbLine
  8
0
 62
256
370
-1
  6
ByLayer
 10
5.0
 20
2.5000000000000004
 30
0.0
 11
4.9999999999999991
 21
-2.5000000000000013
 31
0.0
  0
LINE
  5
57
100
AcDbEntity
100
AcDbLine
  8
0
 62
256
370
-1
  6
ByLayer
 10
10.0
 20
2.5000000000000009
 30
0.0
 11
10.0
 21
-2.5000000000000031
 31
0.0
  0
ENDBLK
  5
58
100
AcDbEntity
  8
0
100
AcDbBlockEnd
  0
BLOCK
  5
59
100
AcDbEntity
  8
0
100
AcDbBlockBegin
  2
tabs-with-bolt-20
 70
0
 10
0.0
 20
0.0
 30
0.0
  3
tabs-with-bolt-20
  1

  0
LINE
  5
5A
100
AcDbEntity
100
AcDbLine
  8
0
 62
256
370
-1
  6
ByLayer
 10
-1.499999999999996
 20
11.5000000000000036
 30
0.0
 11
1.5000000000000056
 21
11.5000000000000036
 31
0.0
  0
LINE
  5
5B
100
AcDbEntity
100
AcDbLine
  8
0
 62
256
370
-1
  6
ByLayer
 10
-2.8599999999999914
 20
8.3300000000000018
 30
0.0
 11
-2.8599999999999892
 21
10.5000000000000053
 31
0.0
  0
LINE
  5
5C
100
AcDbEntity
100
AcDbLine
  8
0
 62
256
370
-1
  6
ByLayer
 10
2.8600000000000017
 20
10.4999999999999982
 30
0.0
 11
2.8599999999999972
 21
8.3300000000000018
 31
0.0
  0
LINE
  5
5D
100
AcDbEntity
100
AcDbLine
  8
0
 62
256
370
-1
  6
ByLayer
 10
-1.4999999999999982
 20
8.3300000000000054
 30
0.0
 11
-2.8599999999999914
 21
8.3300000000000018
 31
0.0
  0
LINE
  5
5E
100
AcDbEntity
100
AcDbLine
  8
0
 62
256
370
-1
  6
ByLayer
 10
2.8599999999999972
 20
8.3300000000000018
 30
0.0
 11
1.5000000000000049
 21
8.3299999999999983
 31
0.0
  0
LINE
  5
5F
100
AcDbEntity
100
AcDbLine
  8
0
 62
256
370
-1
  6
ByLayer
 10
1.5000000000000056
 20
11.5000000000000036
 30
0.0
 11
1.5000000000000024
 21
10.5000000000000036
 31
0.0
  0
LINE
  5
60
100
AcDbEntity
100
AcDbLine
  8
0
 62
256
370
-1
  6
ByLayer
 10
1.5000000000000024
 20
10.5000000000000036
 30
0.0
 11
2.8600000000000017
 21
10.4999999999999982
 31
0.0
  0
LINE
  5
61
100
AcDbEntity
100
AcDbLine
  8
0
 62
256
370
-1
  6
ByLayer
 10
-2.8599999999999892
 20
10.5000000000000053
 30
0.0
 11
-1.4999999999999976
 21
10.5000000000000053
 31
0.0
  0
LINE
  5
62
100
AcDbEntity
100
AcDbLine
  8
0
 62
256
370
-1
  6
ByLayer
 10
-1.4999999999999976
 20
10.5000000000000053
 30
0.0
 11
-1.499999999999996
 21
11.5000000000000036
 31
0.0
  0
LINE
  5
63
100
AcDbEntity
100
AcDbLine
  8
0
 62
256
370
-1
  6
ByLayer
 10
-10.0000000000000018
 20
-4.4999999999999947
 30
0.0
 11
-10.0
 21
0.0000000000000018
 31
0.0
  0
ARC
  5
64
100
AcDbEntity
  8
0
 62
256
370
-1
  6
ByLayer
100
AcDbCircle
 10
-9.5000000000000036
 20
-4.4999999999999929
 30
0.0
 40
0.5
100
AcDbArc
 50
180.0
 51
270.0
  0
LINE
  5
65
100
AcDbEntity
100
AcDbLine
  8
0
 62
256
370
-1
  6
ByLayer
 10
-5.4999999999999964
 20
-5.0
 30
0.0
 11
-9.5000000000000036
 21
-4.9999999999999929
 31
0.0
  0
LINE
  5
66
100
AcDbEntity
100
AcDbLine
  8
0
 62
256
370
-1
  6
ByLayer
 10
-4.9999999999999982
 20
0.0000000000000009
 30
0.0
 11
-5.0000000000000018
 21
-4.4999999999999947
 31
0.0
  0
ARC
  5
67
100
AcDbEntity
  8
0
 62
256
370
-1
  6
ByLayer
100
AcDbCircle
 10
-5.4999999999999982
 20
-4.4999999999999982
 30
0.0
 40
0.5
100
AcDbArc
 50
270.0
 51
0.0
  0
LINE
  5
68
100
AcDbEntity
100
AcDbLine
  8
0
 62
256
370
-1
  6
ByLayer
 10
-1.9999999999999973
 20
0.0000000000000049
 30
0.0
 11
-4.9999999999999982
 21
0.0000000000000009
 31
0.0
  0
LINE
  5
69
100
AcDbEntity
100
AcDbLine
  8
0
 62
256
370
-1
  6
ByLayer
 10
-1.4999999999999978
 20
0.5000000000000058
 30
0.0
 11
-1.4999999999999982
 21
8.3300000000000054
 31
0.0
  0
ARC
  5
6A
100
AcDbEntity
  8
0
 62
256
370
-1
  6
ByLayer
100
AcDbCircle
 10
-1.9999999999999982
 20
0.5000000000000058
 30
0.0
 40
0.5
100
AcDbArc
 50
270.0000000000000568
 51
0.0
  0
LINE
  5
6B
100
AcDbEntity
100
AcDbLine
  8
0
 62
256
370
-1
  6
ByLayer
 10
1.5000000000000049
 20
8.3299999999999983
 30
0.0
 11
1.4999999999999967
 21
0.5000000000000013
 31
0.0
  0
LINE
  5
6C
100
AcDbEntity
100
AcDbLine
  8
0
 62
256
370
-1
  6
ByLayer
 10
1.9999999999999978
 20
0.0000000000000027
 30
0.0
 11
4.9999999999999982
 21
-0.0000000000000009
 31
0.0
  0
ARC
  5
6D
100
AcDbEntity
  8
0
 62
256
370
-1
  6
ByLayer
100
AcDbCircle
 10
1.9999999999999991
 20
0.500000000000004
 30
0.0
 40
0.5
100
AcDbArc
 50
180.0
 51
269.9999999999999432
  0
LINE
  5
6E
100
AcDbEntity
100
AcDbLine
  8
0
 62
256
370
-1
  6
ByLayer
 10
4.9999999999999982
 20
-0.0000000000000009
 30
0.0
 11
5.0
 21
-4.4999999999999982
 31
0.0
  0
ARC
  5
6F
100
AcDbEntity
  8
0
 62
256
370
-1
  6
ByLayer
100
AcDbCircle
 10
5.4999999999999964
 20
-4.5
 30
0.0
 40
0.5
100
AcDbArc
 50
180.0
 51
270.0
  0
LINE
  5
70
100
AcDbEntity
100
AcDbLine
  8
0
 62
256
370
-1
  6
ByLayer
 10
5.4999999999999929
 20
-5.0000000000000018
 30
0.0
 11
9.4999999999999947
 21
-5.0000000000000053
 31
0.0
  0
LINE
  5
71
100
AcDbEntity
100
AcDbLine
  8
0
 62
256
370
-1
  6
ByLayer
 10
9.9999999999999947
 20
-4.5000000000000018
 30
0.0
 11
9.9999999999999982
 21
-0.0000000000000071
 31
0.0
  0
ARC
  5
72
100
AcDbEntity
  8
0
 62
256
370
-1
  6
ByLayer
100
AcDbCircle
 10
9.5000000000000018
 20
-4.4999999999999982
 30
0.0
 40
0.5
100
AcDbArc
 50
270.0
 51
0.0
  0
ENDBLK
  5
73
100
AcDbEntity
  8
0
100
AcDbBlockEnd
  0
ENDSEC
  0
SECTION
  2
ENTITIES
  0
ARC
  5
74
100
AcDbEntity
  8
4 side cover
 62
256
370
-1
  6
ByLayer
100
AcDbCircle
 10
158.5
 20
90.0
 30
0.0
 40
8.0
100
AcDbArc
 50
0.0
 51
180.0
  0
CIRCLE
  5
75
100
AcDbEntity
100
AcDbCircle
  8
4 side cover
 62
256
370
-1
  6
ByLayer
 10
158.5
 20
80.0
 30
0.0
 40
1.5
  0
CIRCLE
  5
76
100
AcDbEntity
100
AcDbCircle
  8
4 side cover
 62
256
370
-1
  6
ByLayer
 10
158.5
 20
90.0
 30
0.0
 40
3.165
  0
LINE
  5
77
100
AcDbEntity
100
AcDbLine
  8
4 side cover
 62
256
370
-1
  6
ByLayer
 10
166.5
 20
90.8999999999999915
 30
0.0
 11
166.5
 21
63.8999999999999631
 31
0.0
  0
LINE
  5
78
100
AcDbEntity
100
AcDbLine
  8
4 side cover
 62
256
370
-1
  6
ByLayer
 10
150.5
 20
89.999996632230534
 30
0.0
 11
150.5
 21
63.8999999999999915
 31
0.0
  0
ARC
  5
79
100
AcDbEntity
  8
4 side cover
 62
256
370
-1
  6
ByLayer
100
AcDbCircle
 10
158.5
 20
63.9000000000000057
 30
0.0
 40
8.0
100
AcDbArc
 50
180.0
 51
0.0
  0
CIRCLE
  5
7A
100
AcDbEntity
100
AcDbCircle
  8
4 side cover
 62
256
370
-1
  6
ByLayer
 10
158.5
 20
63.8999999999999915
 30
0.0
 40
1.5
  0
ARC
  5
7B
100
AcDbEntity
  8
4 side cover
 62
256
370
-1
  6
ByLayer
100
AcDbCircle
 10
159.7685310405646533
 20
36.7216962962838238
 30
0.0
 40
8.0
100
AcDbArc
 50
0.0
 51
180.0
  0
CIRCLE
  5
7C
100
AcDbEntity
100
AcDbCircle
  8
4 side cover
 62
256
370
-1
  6
ByLayer
 10
159.7685310405646533
 20
26.7216962962838238
 30
0.0
 40
1.5
  0
CIRCLE
  5
7D
100
AcDbEntity
100
AcDbCircle
  8
4 side cover
 62
256
370
-1
  6
ByLayer
 10
159.7685310405646533
 20
36.7216962962838238
 30
0.0
 40
3.165
  0
LINE
  5
7E
100
AcDbEntity
100
AcDbLine
  8
4 side cover
 62
256
370
-1
  6
ByLayer
 10
167.7685310405646533
 20
37.6216962962838153
 30
0.0
 11
167.7685310405646533
 21
10.6216962962837869
 31
0.0
  0
LINE
  5
7F
100
AcDbEntity
100
AcDbLine
  8
4 side cover
 62
256
370
-1
  6
ByLayer
 10
151.7685310405646533
 20
36.7216929285143578
 30
0.0
 11
151.7685310405646533
 21
10.6216962962838153
 31
0.0
  0
ARC
  5
80
100
AcDbEntity
  8
4 side cover
 62
256
370
-1
  6
ByLayer
100
AcDbCircle
 10
159.7685310405646533
 20
10.6216962962838295
 30
0.0
 40
8.0
100
AcDbArc
 50
180.0
 51
0.0
  0
CIRCLE
  5
81
100
AcDbEntity
100
AcDbCircle
  8
4 side cover
 62
256
370
-1
  6
ByLayer
 10
159.7685310405646533
 20
10.6216962962838153
 30
0.0
 40
1.5
  0
LINE
  5
82
100
AcDbEntity
100
AcDbLine
  8
3 side
 62
256
370
-1
  6
ByLayer
 10
34.0366165729057286
 20
91.0050000000000239
 30
0.0
 11
34.0366165729057286
 21
95.5050000000000097
 31
0.0
  0
ARC
  5
83
100
AcDbEntity
  8
3 side
 62
256
370
-1
  6
ByLayer
100
AcDbCircle
 10
34.5366165729057215
 20
95.5049999999999955
 30
0.0
 40
0.5
100
AcDbArc
 50
90.0000000000000142
 51
180.0
  0
LINE
  5
84
100
AcDbEntity
100
AcDbLine
  8
3 side
 62
256
370
-1
  6
ByLayer
 10
115.9604165729057854
 20
91.0050000000000097
 30
0.0
 11
115.9604165729057854
 21
95.5050000000000097
 31
0.0
  0
ARC
  5
85
100
AcDbEntity
  8
3 side
 62
256
370
-1
  6
ByLayer
100
AcDbCircle
 10
115.4604165729057854
 20
95.5050000000000097
 30
0.0
 40
0.5
100
AcDbArc
 50
0.0
 51
90.0000000000000142
  0
LINE
  5
86
100
AcDbEntity
100
AcDbLine
  8
3 side
 62
256
370
-1
  6
ByLayer
 10
24.9985165729058139
 20
99.9250000000000114
 30
0.0
 11
24.9985165729057641
 21
91.0050000000000097
 31
0.0
  0
INSERT
  5
87
100
AcDbEntity
100
AcDbBlockReference
  8
3 side
 62
256
370
-1
  6
ByLayer
  2
tabs-with-bolt-20
 10
57.9985191680885919
 20
65.0750000000000028
 30
0.0
 44
1.0
 45
1.0
  0
ARC
  5
88
100
AcDbEntity
  8
3 side
 62
256
370
-1
  6
ByLayer
100
AcDbCircle
 10
14.099594571830778
 20
94.1750000000000114
 30
0.0
 40
3.1649999999999983
100
AcDbArc
 50
225.0000241279181523
 51
44.9999925365361051
  0
ARC
  5
89
100
AcDbEntity
  8
3 side
 62
256
370
-1
  6
ByLayer
100
AcDbCircle
 10
16.337584896974306
 20
96.4129955997641872
 30
0.0
 40
3.5120044002357957
100
AcDbArc
 50
90.0
 51
134.9999999999656382
  0
LINE
  5
8A
100
AcDbEntity
100
AcDbLine
  8
3 side
 62
256
370
-1
  6
ByLayer
 10
16.3375878269197798
 20
96.4129926698218185
 30
0.0
 11
13.8542227700121146
 21
98.8963577267294625
 31
0.0
  0
LINE
  5
8B
100
AcDbEntity
100
AcDbLine
  8
3 side
 62
256
370
-1
  6
ByLayer
 10
24.9985165729058139
 20
99.9250000000000114
 30
0.0
 11
16.3375848969743132
 21
99.9250000000000256
 31
0.0
  0
LINE
  5
8C
100
AcDbEntity
100
AcDbLine
  8
3 side
 62
256
370
-1
  6
ByLayer
 10
42.9985165729057854
 20
65.0750000000000171
 30
0.0
 11
42.9985165729057854
 21
60.0750000000000028
 31
0.0
  0
LINE
  5
8D
100
AcDbEntity
100
AcDbLine
  8
3 side
 62
256
370
-1
  6
ByLayer
 10
42.9985165729057854
 20
65.0750000000000171
 30
0.0
 11
47.9985191680885919
 21
65.0750000000000028
 31
0.0
  0
ARC
  5
8E
100
AcDbEntity
  8
3 side
 62
256
370
-1
  6
ByLayer
100
AcDbCircle
 10
128.4985165729057712
 20
90.5050000000000381
 30
0.0
 40
0.5
100
AcDbArc
 50
90.0000000000000568
 51
180.0
  0
LINE
  5
8F
100
AcDbEntity
100
AcDbLine
  8
3 side
 62
256
370
-1
  6
ByLayer
 10
128.4985165729057712
 20
91.0050000000000239
 30
0.0
 11
130.5366165729057855
 21
91.0050000000000239
 31
0.0
  0
LINE
  5
90
100
AcDbEntity
100
AcDbLine
  8
3 side
 62
256
370
-1
  6
ByLayer
 10
130.5366165729057855
 20
94.1750000000000114
 30
0.0
 11
130.5366165729057855
 21
91.0050000000000239
 31
0.0
  0
CIRCLE
  5
91
100
AcDbEntity
100
AcDbCircle
  8
3 side
 62
256
370
-1
  6
ByLayer
 10
138.5366165729057855
 20
84.1749999999999403
 30
0.0
 40
1.5
  0
ARC
  5
92
100
AcDbEntity
  8
3 side
 62
256
370
-1
  6
ByLayer
100
AcDbCircle
 10
132.9541165729057752
 20
94.1749983161152642
 30
0.0
 40
2.4175000000005831
100
AcDbArc
 50
0.0000398996478036
 51
179.9999600820873127
  0
ARC
  5
93
100
AcDbEntity
  8
3 side
 62
256
370
-1
  6
ByLayer
100
AcDbCircle
 10
144.1191165729057957
 20
94.1749983157301216
 30
0.0
 40
2.4175000000005831
100
AcDbArc
 50
0.0000398996478036
 51
179.9999600820873127
  0
ARC
  5
94
100
AcDbEntity
  8
3 side
 62
256
370
-1
  6
ByLayer
100
AcDbCircle
 10
138.5366165729057855
 20
94.1750000000000398
 30
0.0
 40
3.1649999999999991
100
AcDbArc
 50
180.0
 51
359.9999654037264918
  0
ARC
  5
95
100
AcDbEntity
  8
3 side
 62
256
370
-1
  6
ByLayer
100
AcDbCircle
 10
138.5366165729057855
 20
68.0750000000000171
 30
0.0
 40
7.9999999999999982
100
AcDbArc
 50
270.0
 51
0.0
  0
LINE
  5
96
100
AcDbEntity
100
AcDbLine
  8
3 side
 62
256
370
-1
  6
ByLayer
 10
146.5366165729057855
 20
94.1749983157301642
 30
0.0
 11
146.5366165729057855
 21
68.0749999999999602
 31
0.0
  0
INSERT
  5
97
100
AcDbEntity
100
AcDbBlockReference
  8
3 side
 62
256
370
-1
  6
ByLayer
  2
tabs-with-bolt-20
 10
91.9985165729057712
 20
65.0749999999999886
 30
0.0
 44
1.0
 45
1.0
  0
LINE
  5
98
100
AcDbEntity
100
AcDbLine
  8
3 side
 62
256
370
-1
  6
ByLayer
 10
67.9985191680885777
 20
65.0750000000000028
 30
0.0
 11
81.9985165729057854
 21
65.0750000000000028
 31
0.0
  0
LINE
  5
99
100
AcDbEntity
100
AcDbLine
  8
3 side
 62
256
370
-1
  6
ByLayer
 10
106.9985165729057854
 20
65.0750000000000028
 30
0.0
 11
106.9985165729057712
 21
60.0749999999999744
 31
0.0
  0
LINE
  5
9A
100
AcDbEntity
100
AcDbLine
  8
3 side
 62
256
370
-1
  6
ByLayer
 10
101.9985165729057854
 20
65.0749999999999886
 30
0.0
 11
106.9985165729057854
 21
65.0750000000000028
 31
0.0
  0
LINE
  5
9B
100
AcDbEntity
100
AcDbLine
  8
3 side
 62
256
370
-1
  6
ByLayer
 10
106.9985165729057712
 20
60.0749999999999744
 30
0.0
 11
138.5366165729057855
 21
60.0750000000000242
 31
0.0
  0
LINE
  5
9C
100
AcDbEntity
100
AcDbLine
  8
3 side
 62
256
370
-1
  6
ByLayer
 10
127.9985165729057854
 20
89.1750000000000398
 30
0.0
 11
127.9985165729057854
 21
90.5050000000000239
 31
0.0
  0
ARC
  5
9D
100
AcDbEntity
  8
3 side
 62
256
370
-1
  6
ByLayer
100
AcDbCircle
 10
125.4985165729057854
 20
90.5049999999999955
 30
0.0
 40
0.5
100
AcDbArc
 50
0.0
 51
89.9999999999999574
  0
LINE
  5
9E
100
AcDbEntity
100
AcDbLine
  8
3 side
 62
256
370
-1
  6
ByLayer
 10
125.9985165729057854
 20
90.5050000000000239
 30
0.0
 11
125.9985165729057854
 21
89.1750000000000256
 31
0.0
  0
LINE
  5
9F
100
AcDbEntity
100
AcDbLine
  8
3 side
 62
256
370
-1
  6
ByLayer
 10
125.4985165729057854
 20
91.0049999999999955
 30
0.0
 11
115.9604165729057854
 21
91.0050000000000097
 31
0.0
  0
ARC
  5
A0
100
AcDbEntity
  8
3 side
 62
256
370
-1
  6
ByLayer
100
AcDbCircle
 10
126.9985165729057854
 20
79.1750000000000114
 30
0.0
 40
10.0498756211208899
100
AcDbArc
 50
95.710593137499643
 51
84.2894068625003712
  0
CIRCLE
  5
A1
100
AcDbEntity
100
AcDbCircle
  8
3 side
 62
256
370
-1
  6
ByLayer
 10
1.4699156431089619
 20
85.5272391980919622
 30
0.0
 40
1.5
  0
LINE
  5
A2
100
AcDbEntity
100
AcDbLine
  8
3 side
 62
256
370
-1
  6
ByLayer
 10
7.0580002326439626
 20
85.3745610392039254
 30
0.0
 11
11.5895391678272119
 21
87.4876523479073711
 31
0.0
  0
LINE
  5
A3
100
AcDbEntity
100
AcDbLine
  8
3 side
 62
256
370
-1
  6
ByLayer
 10
-2.0050776377225361
 20
81.1483784217968491
 30
0.0
 11
-6.5366165729057855
 21
79.0352871130942276
 31
0.0
  0
LINE
  5
A4
100
AcDbEntity
100
AcDbLine
  8
3 side
 62
256
370
-1
  6
ByLayer
 10
-4.1181689464260387
 20
85.679917356980198
 30
0.0
 11
-2.0050776377225361
 21
81.1483784217968491
 31
0.0
  0
LINE
  5
A5
100
AcDbEntity
100
AcDbLine
  8
3 side
 62
256
370
-1
  6
ByLayer
 10
4.94490892394046
 20
89.9060999743871179
 30
0.0
 11
7.0580002326439626
 21
85.3745610392039254
 31
0.0
  0
LINE
  5
A6
100
AcDbEntity
100
AcDbLine
  8
3 side
 62
256
370
-1
  6
ByLayer
 10
-4.1181689464260387
 20
85.679917356980198
 30
0.0
 11
4.94490892394046
 21
89.9060999743871179
 31
0.0
  0
LINE
  5
A7
100
AcDbEntity
100
AcDbLine
  8
3 side
 62
256
370
-1
  6
ByLayer
 10
9.4764478591237093
 20
92.019191283090592
 30
0.0
 11
11.5895391678272119
 21
87.4876523479073711
 31
0.0
  0
LINE
  5
A8
100
AcDbEntity
100
AcDbLine
  8
3 side
 62
256
370
-1
  6
ByLayer
 10
9.4764478591237093
 20
92.019191283090592
 30
0.0
 11
11.8616019001025279
 21
91.937006746817417
 31
0.0
  0
ARC
  5
A9
100
AcDbEntity
  8
3 side
 62
256
370
-1
  6
ByLayer
100
AcDbCircle
 10
14.0996165729057878
 20
68.0750000000000171
 30
0.0
 40
8.0
100
AcDbArc
 50
225.0
 51
270.0
  0
LINE
  5
AA
100
AcDbEntity
100
AcDbLine
  8
3 side
 62
256
370
-1
  6
ByLayer
 10
-6.5366165729057855
 20
79.0352871130942276
 30
0.0
 11
8.4427623234133975
 21
62.418145750507648
 31
0.0
  0
LINE
  5
AB
100
AcDbEntity
100
AcDbLine
  8
3 side
 62
256
370
-1
  6
ByLayer
 10
24.9985165729057641
 20
91.0050000000000097
 30
0.0
 11
34.0366165729057286
 21
91.0050000000000239
 31
0.0
  0
LINE
  5
AC
100
AcDbEntity
100
AcDbLine
  8
3 side
 62
256
370
-1
  6
ByLayer
 10
54.0366165729057144
 20
95.5050000000000097
 30
0.0
 11
54.0366165729057215
 21
91.0050000000000097
 31
0.0
  0
ARC
  5
AD
100
AcDbEntity
  8
3 side
 62
256
370
-1
  6
ByLayer
100
AcDbCircle
 10
53.5366165729057215
 20
95.5050000000000097
 30
0.0
 40
0.5
100
AcDbArc
 50
0.0
 51
90.0000000000000142
  0
LINE
  5
AE
100
AcDbEntity
100
AcDbLine
  8
3 side
 62
256
370
-1
  6
ByLayer
 10
34.0366165729057286
 20
96.0050000000000239
 30
0.0
 11
53.5366165729057144
 21
96.0050000000000097
 31
0.0
  0
LINE
  5
AF
100
AcDbEntity
100
AcDbLine
  8
3 side
 62
256
370
-1
  6
ByLayer
 10
95.9604165729057854
 20
95.5050000000000097
 30
0.0
 11
95.9604165729057854
 21
91.0050000000000097
 31
0.0
  0
ARC
  5
B0
100
AcDbEntity
  8
3 side
 62
256
370
-1
  6
ByLayer
100
AcDbCircle
 10
96.4604165729057854
 20
95.5050000000000097
 30
0.0
 40
0.5
100
AcDbArc
 50
90.0000000000000142
 51
180.0
  0
LINE
  5
B1
100
AcDbEntity
100
AcDbLine
  8
3 side
 62
256
370
-1
  6
ByLayer
 10
115.4604165729057854
 20
96.0050000000000239
 30
0.0
 11
96.4604165729057854
 21
96.0050000000000097
 31
0.0
  0
LINE
  5
B2
100
AcDbEntity
100
AcDbLine
  8
3 side
 62
256
370
-1
  6
ByLayer
 10
54.0366165729057215
 20
91.0050000000000097
 30
0.0
 11
95.9604165729057854
 21
91.0050000000000097
 31
0.0
  0
LINE
  5
B3
100
AcDbEntity
100
AcDbLine
  8
3 side
 62
256
370
-1
  6
ByLayer
 10
101.9985165729057854
 20
69.1750000000000114
 30
0.0
 11
101.9985165729057854
 21
69.1750000000000114
 31
0.0
  0
LINE
  5
B4
100
AcDbEntity
100
AcDbLine
  8
3 side
 62
256
370
-1
  6
ByLayer
 10
101.9985165729057854
 20
69.1750000000000114
 30
0.0
 11
107.9985165729057854
 21
69.1749999999999972
 31
0.0
  0
CIRCLE
  5
B5
100
AcDbEntity
100
AcDbCircle
  8
3 side
 62
256
370
-1
  6
ByLayer
 10
104.9985165729057712
 20
74.1750000000000114
 30
0.0
 40
1.5
  0
LINE
  5
B6
100
AcDbEntity
100
AcDbLine
  8
3 side
 62
256
370
-1
  6
ByLayer
 10
101.9985165729057854
 20
72.6750000000000114
 30
0.0
 11
101.9985165729057854
 21
69.1750000000000114
 31
0.0
  0
LINE
  5
B7
100
AcDbEntity
100
AcDbLine
  8
3 side
 62
256
370
-1
  6
ByLayer
 10
107.9985165729057854
 20
69.1749999999999972
 30
0.0
 11
107.9985165729057854
 21
72.6750000000000256
 31
0.0
  0
LINE
  5
B8
100
AcDbEntity
100
AcDbLine
  8
3 side
 62
256
370
-1
  6
ByLayer
 10
107.9985165729057854
 20
72.6750000000000256
 30
0.0
 11
104.9985165729057712
 21
72.6749999999999972
 31
0.0
  0
LINE
  5
B9
100
AcDbEntity
100
AcDbLine
  8
3 side
 62
256
370
-1
  6
ByLayer
 10
104.9985165729057712
 20
72.6749999999999972
 30
0.0
 11
104.9985165729057712
 21
72.6749999999999972
 31
0.0
  0
LINE
  5
BA
100
AcDbEntity
100
AcDbLine
  8
3 side
 62
256
370
-1
  6
ByLayer
 10
104.9985165729057712
 20
72.6749999999999972
 30
0.0
 11
104.9985165729057712
 21
72.6749999999999972
 31
0.0
  0
LINE
  5
BB
100
AcDbEntity
100
AcDbLine
  8
3 side
 62
256
370
-1
  6
ByLayer
 10
104.9985165729057712
 20
72.6749999999999972
 30
0.0
 11
101.9985165729057854
 21
72.6750000000000114
 31
0.0
  0
CIRCLE
  5
BC
100
AcDbEntity
100
AcDbCircle
  8
3 side
 62
256
370
-1
  6
ByLayer
 10
26.4985165729057854
 20
76.1749999999999687
 30
0.0
 40
1.5
  0
CIRCLE
  5
BD
100
AcDbEntity
100
AcDbCircle
  8
3 side
 62
256
370
-1
  6
ByLayer
 10
9.4985165729057854
 20
76.1750000000000256
 30
0.0
 40
1.5
  0
LINE
  5
BE
100
AcDbEntity
100
AcDbLine
  8
3 side
 62
256
370
-1
  6
ByLayer
 10
20.0985165729057798
 20
73.3750000000000426
 30
0.0
 11
20.0985165729057869
 21
60.0750000000000028
 31
0.0
  0
LINE
  5
BF
100
AcDbEntity
100
AcDbLine
  8
3 side
 62
256
370
-1
  6
ByLayer
 10
15.898516572905784
 20
73.3750000000000426
 30
0.0
 11
15.8985165729057769
 21
60.0750000000000242
 31
0.0
  0
ARC
  5
C0
100
AcDbEntity
  8
3 side
 62
256
370
-1
  6
ByLayer
100
AcDbCircle
 10
17.9985165729057854
 20
76.1750000000000966
 30
0.0
 40
3.4999999999999987
100
AcDbArc
 50
306.8698976458440484
 51
233.1301023541559232
  0
LINE
  5
C1
100
AcDbEntity
100
AcDbLine
  8
3 side
 62
256
370
-1
  6
ByLayer
 10
20.0985165729057869
 20
60.0750000000000028
 30
0.0
 11
42.9985165729057854
 21
60.0750000000000028
 31
0.0
  0
LINE
  5
C2
100
AcDbEntity
100
AcDbLine
  8
3 side
 62
256
370
-1
  6
ByLayer
 10
14.0996165729057736
 20
60.0750000000000455
 30
0.0
 11
15.8985165729057769
 21
60.0750000000000242
 31
0.0
  0
CIRCLE
  5
C3
100
AcDbEntity
100
AcDbCircle
  8
3 side
 62
256
370
-1
  6
ByLayer
 10
138.5366165729057855
 20
68.0750000000000171
 30
0.0
 40
1.5
  0
LINE
  5
C4
100
AcDbEntity
100
AcDbLine
  8
3 side
 62
256
370
-1
  6
ByLayer
 10
34.0366165729057286
 20
41.0050000000000239
 30
0.0
 11
34.0366165729057286
 21
45.5050000000000026
 31
0.0
  0
ARC
  5
C5
100
AcDbEntity
  8
3 side
 62
256
370
-1
  6
ByLayer
100
AcDbCircle
 10
34.5366165729057215
 20
45.5049999999999955
 30
0.0
 40
0.5
100
AcDbArc
 50
90.0000000000000142
 51
180.0
  0
LINE
  5
C6
100
AcDbEntity
100
AcDbLine
  8
3 side
 62
256
370
-1
  6
ByLayer
 10
115.9604165729057854
 20
41.0050000000000026
 30
0.0
 11
115.9604165729057854
 21
45.5050000000000097
 31
0.0
  0
ARC
  5
C7
100
AcDbEntity
  8
3 side
 62
256
370
-1
  6
ByLayer
100
AcDbCircle
 10
115.4604165729057854
 20
45.5050000000000097
 30
0.0
 40
0.5
100
AcDbArc
 50
0.0
 51
90.0000000000000142
  0
LINE
  5
C8
100
AcDbEntity
100
AcDbLine
  8
3 side
 62
256
370
-1
  6
ByLayer
 10
24.9985165729058139
 20
49.9250000000000185
 30
0.0
 11
24.9985165729057641
 21
41.0050000000000097
 31
0.0
  0
INSERT
  5
C9
100
AcDbEntity
100
AcDbBlockReference
  8
3 side
 62
256
370
-1
  6
ByLayer
  2
tabs-with-bolt-20
 10
57.9985191680885919
 20
15.0750000000000028
 30
0.0
 44
1.0
 45
1.0
  0
ARC
  5
CA
100
AcDbEntity
  8
3 side
 62
256
370
-1
  6
ByLayer
100
AcDbCircle
 10
14.099594571830778
 20
44.1750000000000114
 30
0.0
 40
3.1649999999999983
100
AcDbArc
 50
225.0000241279181523
 51
44.9999925365361051
  0
ARC
  5
CB
100
AcDbEntity
  8
3 side
 62
256
370
-1
  6
ByLayer
100
AcDbCircle
 10
16.337584896974306
 20
46.4129955997641872
 30
0.0
 40
3.5120044002357957
100
AcDbArc
 50
90.0
 51
134.9999999999656382
  0
LINE
  5
CC
100
AcDbEntity
100
AcDbLine
  8
3 side
 62
256
370
-1
  6
ByLayer
 10
16.3375878269197798
 20
46.4129926698218114
 30
0.0
 11
13.8542227700121146
 21
48.8963577267294625
 31
0.0
  0
LINE
  5
CD
100
AcDbEntity
100
AcDbLine
  8
3 side
 62
256
370
-1
  6
ByLayer
 10
24.9985165729058139
 20
49.9250000000000185
 30
0.0
 11
16.3375848969743132
 21
49.9250000000000256
 31
0.0
  0
LINE
  5
CE
100
AcDbEntity
100
AcDbLine
  8
3 side
 62
256
370
-1
  6
ByLayer
 10
42.9985165729057854
 20
15.0750000000000099
 30
0.0
 11
42.9985165729057854
 21
10.0750000000000028
 31
0.0
  0
LINE
  5
CF
100
AcDbEntity
100
AcDbLine
  8
3 side
 62
256
370
-1
  6
ByLayer
 10
42.9985165729057854
 20
15.0750000000000117
 30
0.0
 11
47.9985191680885919
 21
15.0750000000000046
 31
0.0
  0
ARC
  5
D0
100
AcDbEntity
  8
3 side
 62
256
370
-1
  6
ByLayer
100
AcDbCircle
 10
128.4985165729057712
 20
40.5050000000000381
 30
0.0
 40
0.5
100
AcDbArc
 50
90.0000000000000568
 51
180.0
  0
LINE
  5
D1
100
AcDbEntity
100
AcDbLine
  8
3 side
 62
256
370
-1
  6
ByLayer
 10
128.4985165729057712
 20
41.0050000000000168
 30
0.0
 11
130.5366165729057855
 21
41.0050000000000239
 31
0.0
  0
LINE
  5
D2
100
AcDbEntity
100
AcDbLine
  8
3 side
 62
256
370
-1
  6
ByLayer
 10
130.5366165729057855
 20
44.1750000000000114
 30
0.0
 11
130.5366165729057855
 21
41.0050000000000239
 31
0.0
  0
CIRCLE
  5
D3
100
AcDbEntity
100
AcDbCircle
  8
3 side
 62
256
370
-1
  6
ByLayer
 10
138.5366165729057855
 20
34.1749999999999332
 30
0.0
 40
1.5
  0
ARC
  5
D4
100
AcDbEntity
  8
3 side
 62
256
370
-1
  6
ByLayer
100
AcDbCircle
 10
132.9541165729057752
 20
44.1749983161152642
 30
0.0
 40
2.4175000000005831
100
AcDbArc
 50
0.0000398996478036
 51
179.9999600820873127
  0
ARC
  5
D5
100
AcDbEntity
  8
3 side
 62
256
370
-1
  6
ByLayer
100
AcDbCircle
 10
144.1191165729057957
 20
44.1749983157301216
 30
0.0
 40
2.4175000000005831
100
AcDbArc
 50
0.0000398996478036
 51
179.9999600820873127
  0
ARC
  5
D6
100
AcDbEntity
  8
3 side
 62
256
370
-1
  6
ByLayer
100
AcDbCircle
 10
138.5366165729057855
 20
44.1750000000000327
 30
0.0
 40
3.1649999999999991
100
AcDbArc
 50
180.0
 51
359.9999654037264918
  0
ARC
  5
D7
100
AcDbEntity
  8
3 side
 62
256
370
-1
  6
ByLayer
100
AcDbCircle
 10
138.5366165729057855
 20
18.0750000000000099
 30
0.0
 40
7.9999999999999982
100
AcDbArc
 50
270.0
 51
0.0
  0
LINE
  5
D8
100
AcDbEntity
100
AcDbLine
  8
3 side
 62
256
370
-1
  6
ByLayer
 10
146.5366165729057855
 20
44.1749983157301713
 30
0.0
 11
146.5366165729057855
 21
18.0749999999999567
 31
0.0
  0
INSERT
  5
D9
100
AcDbEntity
100
AcDbBlockReference
  8
3 side
 62
256
370
-1
  6
ByLayer
  2
tabs-with-bolt-20
 10
91.9985165729057712
 20
15.0749999999999904
 30
0.0
 44
1.0
 45
1.0
  0
LINE
  5
DA
100
AcDbEntity
100
AcDbLine
  8
3 side
 62
256
370
-1
  6
ByLayer
 10
67.9985191680885777
 20
15.0750000000000046
 30
0.0
 11
81.9985165729057854
 21
15.0749999999999993
 31
0.0
  0
LINE
  5
DB
100
AcDbEntity
100
AcDbLine
  8
3 side
 62
256
370
-1
  6
ByLayer
 10
106.9985165729057854
 20
15.0750000000000064
 30
0.0
 11
106.9985165729057712
 21
10.0749999999999744
 31
0.0
  0
LINE
  5
DC
100
AcDbEntity
100
AcDbLine
  8
3 side
 62
256
370
-1
  6
ByLayer
 10
101.9985165729057854
 20
15.0749999999999869
 30
0.0
 11
106.9985165729057854
 21
15.0750000000000064
 31
0.0
  0
LINE
  5
DD
100
AcDbEntity
100
AcDbLine
  8
3 side
 62
256
370
-1
  6
ByLayer
 10
106.9985165729057712
 20
10.0749999999999744
 30
0.0
 11
138.5366165729057855
 21
10.0750000000000242
 31
0.0
  0
LINE
  5
DE
100
AcDbEntity
100
AcDbLine
  8
3 side
 62
256
370
-1
  6
ByLayer
 10
127.9985165729057854
 20
39.1750000000000327
 30
0.0
 11
127.9985165729057854
 21
40.505000000000031
 31
0.0
  0
ARC
  5
DF
100
AcDbEntity
  8
3 side
 62
256
370
-1
  6
ByLayer
100
AcDbCircle
 10
125.4985165729057854
 20
40.5050000000000026
 30
0.0
 40
0.5
100
AcDbArc
 50
0.0
 51
89.9999999999999574
  0
LINE
  5
E0
100
AcDbEntity
100
AcDbLine
  8
3 side
 62
256
370
-1
  6
ByLayer
 10
125.9985165729057854
 20
40.505000000000031
 30
0.0
 11
125.9985165729057854
 21
39.1750000000000256
 31
0.0
  0
LINE
  5
E1
100
AcDbEntity
100
AcDbLine
  8
3 side
 62
256
370
-1
  6
ByLayer
 10
125.4985165729057854
 20
41.0049999999999955
 30
0.0
 11
115.9604165729057854
 21
41.0050000000000026
 31
0.0
  0
ARC
  5
E2
100
AcDbEntity
  8
3 side
 62
256
370
-1
  6
ByLayer
100
AcDbCircle
 10
126.9985165729057854
 20
29.1750000000000114
 30
0.0
 40
10.0498756211208899
100
AcDbArc
 50
95.710593137499643
 51
84.2894068625003712
  0
CIRCLE
  5
E3
100
AcDbEntity
100
AcDbCircle
  8
3 side
 62
256
370
-1
  6
ByLayer
 10
1.4699156431089619
 20
35.5272391980919622
 30
0.0
 40
1.5
  0
LINE
  5
E4
100
AcDbEntity
100
AcDbLine
  8
3 side
 62
256
370
-1
  6
ByLayer
 10
7.0580002326439626
 20
35.3745610392039254
 30
0.0
 11
11.5895391678272119
 21
37.4876523479073711
 31
0.0
  0
LINE
  5
E5
100
AcDbEntity
100
AcDbLine
  8
3 side
 62
256
370
-1
  6
ByLayer
 10
-2.0050776377225361
 20
31.1483784217968456
 30
0.0
 11
-6.5366165729057855
 21
29.0352871130942312
 31
0.0
  0
LINE
  5
E6
100
AcDbEntity
100
AcDbLine
  8
3 side
 62
256
370
-1
  6
ByLayer
 10
-4.1181689464260387
 20
35.679917356980198
 30
0.0
 11
-2.0050776377225361
 21
31.1483784217968456
 31
0.0
  0
LINE
  5
E7
100
AcDbEntity
100
AcDbLine
  8
3 side
 62
256
370
-1
  6
ByLayer
 10
4.94490892394046
 20
39.9060999743871179
 30
0.0
 11
7.0580002326439626
 21
35.3745610392039254
 31
0.0
  0
LINE
  5
E8
100
AcDbEntity
100
AcDbLine
  8
3 side
 62
256
370
-1
  6
ByLayer
 10
-4.1181689464260387
 20
35.679917356980198
 30
0.0
 11
4.94490892394046
 21
39.9060999743871179
 31
0.0
  0
LINE
  5
E9
100
AcDbEntity
100
AcDbLine
  8
3 side
 62
256
370
-1
  6
ByLayer
 10
9.4764478591237093
 20
42.0191912830905991
 30
0.0
 11
11.5895391678272119
 21
37.4876523479073711
 31
0.0
  0
LINE
  5
EA
100
AcDbEntity
100
AcDbLine
  8
3 side
 62
256
370
-1
  6
ByLayer
 10
9.4764478591237093
 20
42.0191912830905991
 30
0.0
 11
11.8616019001025279
 21
41.937006746817417
 31
0.0
  0
ARC
  5
EB
100
AcDbEntity
  8
3 side
 62
256
370
-1
  6
ByLayer
100
AcDbCircle
 10
14.0996165729057878
 20
18.0750000000000171
 30
0.0
 40
8.0
100
AcDbArc
 50
225.0
 51
270.0
  0
LINE
  5
EC
100
AcDbEntity
100
AcDbLine
  8
3 side
 62
256
370
-1
  6
ByLayer
 10
-6.5366165729057855
 20
29.0352871130942312
 30
0.0
 11
8.4427623234133975
 21
12.4181457505076516
 31
0.0
  0
LINE
  5
ED
100
AcDbEntity
100
AcDbLine
  8
3 side
 62
256
370
-1
  6
ByLayer
 10
24.9985165729057641
 20
41.0050000000000097
 30
0.0
 11
34.0366165729057286
 21
41.0050000000000239
 31
0.0
  0
LINE
  5
EE
100
AcDbEntity
100
AcDbLine
  8
3 side
 62
256
370
-1
  6
ByLayer
 10
54.0366165729057144
 20
45.5050000000000097
 30
0.0
 11
54.0366165729057215
 21
41.0050000000000097
 31
0.0
  0
ARC
  5
EF
100
AcDbEntity
  8
3 side
 62
256
370
-1
  6
ByLayer
100
AcDbCircle
 10
53.5366165729057215
 20
45.5050000000000097
 30
0.0
 40
0.5
100
AcDbArc
 50
0.0
 51
90.0000000000000142
  0
LINE
  5
F0
100
AcDbEntity
100
AcDbLine
  8
3 side
 62
256
370
-1
  6
ByLayer
 10
34.0366165729057286
 20
46.0050000000000168
 30
0.0
 11
53.5366165729057144
 21
46.0050000000000097
 31
0.0
  0
LINE
  5
F1
100
AcDbEntity
100
AcDbLine
  8
3 side
 62
256
370
-1
  6
ByLayer
 10
95.9604165729057854
 20
45.5050000000000097
 30
0.0
 11
95.9604165729057854
 21
41.0050000000000097
 31
0.0
  0
ARC
  5
F2
100
AcDbEntity
  8
3 side
 62
256
370
-1
  6
ByLayer
100
AcDbCircle
 10
96.4604165729057854
 20
45.5050000000000097
 30
0.0
 40
0.5
100
AcDbArc
 50
90.0000000000000142
 51
180.0
  0
LINE
  5
F3
100
AcDbEntity
100
AcDbLine
  8
3 side
 62
256
370
-1
  6
ByLayer
 10
115.4604165729057854
 20
46.0050000000000168
 30
0.0
 11
96.4604165729057854
 21
46.0050000000000097
 31
0.0
  0
LINE
  5
F4
100
AcDbEntity
100
AcDbLine
  8
3 side
 62
256
370
-1
  6
ByLayer
 10
54.0366165729057215
 20
41.0050000000000097
 30
0.0
 11
95.9604165729057854
 21
41.0050000000000097
 31
0.0
  0
LINE
  5
F5
100
AcDbEntity
100
AcDbLine
  8
3 side
 62
256
370
-1
  6
ByLayer
 10
101.9985165729057854
 20
19.1750000000000078
 30
0.0
 11
101.9985165729057854
 21
19.1750000000000078
 31
0.0
  0
LINE
  5
F6
100
AcDbEntity
100
AcDbLine
  8
3 side
 62
256
370
-1
  6
ByLayer
 10
101.9985165729057854
 20
19.1750000000000078
 30
0.0
 11
107.9985165729057854
 21
19.1749999999999972
 31
0.0
  0
CIRCLE
  5
F7
100
AcDbEntity
100
AcDbCircle
  8
3 side
 62
256
370
-1
  6
ByLayer
 10
104.9985165729057712
 20
24.1750000000000078
 30
0.0
 40
1.5
  0
LINE
  5
F8
100
AcDbEntity
100
AcDbLine
  8
3 side
 62
256
370
-1
  6
ByLayer
 10
101.9985165729057854
 20
22.6750000000000114
 30
0.0
 11
101.9985165729057854
 21
19.1750000000000078
 31
0.0
  0
LINE
  5
F9
100
AcDbEntity
100
AcDbLine
  8
3 side
 62
256
370
-1
  6
ByLayer
 10
107.9985165729057854
 20
19.1749999999999972
 30
0.0
 11
107.9985165729057854
 21
22.6750000000000185
 31
0.0
  0
LINE
  5
FA
100
AcDbEntity
100
AcDbLine
  8
3 side
 62
256
370
-1
  6
ByLayer
 10
107.9985165729057854
 20
22.6750000000000185
 30
0.0
 11
104.9985165729057712
 21
22.6749999999999972
 31
0.0
  0
LINE
  5
FB
100
AcDbEntity
100
AcDbLine
  8
3 side
 62
256
370
-1
  6
ByLayer
 10
104.9985165729057712
 20
22.6749999999999972
 30
0.0
 11
104.9985165729057712
 21
22.6749999999999972
 31
0.0
  0
LINE
  5
FC
100
AcDbEntity
100
AcDbLine
  8
3 side
 62
256
370
-1
  6
ByLayer
 10
104.9985165729057712
 20
22.6749999999999972
 30
0.0
 11
104.9985165729057712
 21
22.6749999999999972
 31
0.0
  0
LINE
  5
FD
100
AcDbEntity
100
AcDbLine
  8
3 side
 62
256
370
-1
  6
ByLayer
 10
104.9985165729057712
 20
22.6749999999999972
 30
0.0
 11
101.9985165729057854
 21
22.6750000000000114
 31
0.0
  0
CIRCLE
  5
FE
100
AcDbEntity
100
AcDbCircle
  8
3 side
 62
256
370
-1
  6
ByLayer
 10
26.4985165729057854
 20
26.1749999999999723
 30
0.0
 40
1.5
  0
CIRCLE
  5
FF
100
AcDbEntity
100
AcDbCircle
  8
3 side
 62
256
370
-1
  6
ByLayer
 10
9.4985165729057854
 20
26.1750000000000256
 30
0.0
 40
1.5
  0
LINE
  5
100
100
AcDbEntity
100
AcDbLine
  8
3 side
 62
256
370
-1
  6
ByLayer
 10
20.0985165729057798
 20
23.3750000000000497
 30
0.0
 11
20.0985165729057869
 21
10.0750000000000028
 31
0.0
  0
LINE
  5
101
100
AcDbEntity
100
AcDbLine
  8
3 side
 62
256
370
-1
  6
ByLayer
 10
15.898516572905784
 20
23.3750000000000391
 30
0.0
 11
15.8985165729057769
 21
10.0750000000000242
 31
0.0
  0
ARC
  5
102
100
AcDbEntity
  8
3 side
 62
256
370
-1
  6
ByLayer
100
AcDbCircle
 10
17.9985165729057854
 20
26.1750000000000966
 30
0.0
 40
3.4999999999999987
100
AcDbArc
 50
306.8698976458440484
 51
233.1301023541559232
  0
LINE
  5
103
100
AcDbEntity
100
AcDbLine
  8
3 side
 62
256
370
-1
  6
ByLayer
 10
20.0985165729057869
 20
10.0750000000000028
 30
0.0
 11
42.9985165729057854
 21
10.0750000000000028
 31
0.0
  0
LINE
  5
104
100
AcDbEntity
100
AcDbLine
  8
3 side
 62
256
370
-1
  6
ByLayer
 10
14.0996165729057736
 20
10.0750000000000455
 30
0.0
 11
15.8985165729057769
 21
10.0750000000000242
 31
0.0
  0
CIRCLE
  5
105
100
AcDbEntity
100
AcDbCircle
  8
3 side
 62
256
370
-1
  6
ByLayer
 10
138.5366165729057855
 20
18.0750000000000099
 30
0.0
 40
1.5
  0
LINE
  5
106
100
AcDbEntity
100
AcDbLine
  8
6 scraper
 62
256
370
-1
  6
ByLayer
 10
5.0
 20
-15.0
 30
0.0
 11
0.0
 21
-15.0
 31
0.0
  0
LINE
  5
107
100
AcDbEntity
100
AcDbLine
  8
6 scraper
 62
256
370
-1
  6
ByLayer
 10
0.0
 20
-5.0
 30
0.0
 11
5.0
 21
-5.0
 31
0.0
  0
LINE
  5
108
100
AcDbEntity
100
AcDbLine
  8
6 scraper
 62
256
370
-1
  6
ByLayer
 10
91.9237999999999715
 20
-5.0000000000000426
 30
0.0
 11
96.9237999999999715
 21
-5.0000000000000568
 31
0.0
  0
LINE
  5
109
100
AcDbEntity
100
AcDbLine
  8
6 scraper
 62
256
370
-1
  6
ByLayer
 10
96.9237999999999715
 20
-15.0000000000000426
 30
0.0
 11
91.9237999999999715
 21
-15.0
 31
0.0
  0
LINE
  5
10A
100
AcDbEntity
100
AcDbLine
  8
6 scraper
 62
256
370
-1
  6
ByLayer
 10
85.4237999999999715
 20
-11.5000000000000568
 30
0.0
 11
85.4237999999999715
 21
-8.5000000000000711
 31
0.0
  0
LINE
  5
10B
100
AcDbEntity
100
AcDbLine
  8
6 scraper
 62
256
370
-1
  6
ByLayer
 10
88.5937999999999874
 20
-12.8600000000000279
 30
0.0
 11
86.4237999999999715
 21
-12.8600000000000136
 31
0.0
  0
LINE
  5
10C
100
AcDbEntity
100
AcDbLine
  8
6 scraper
 62
256
370
-1
  6
ByLayer
 10
86.4237999999999715
 20
-7.1400000000000716
 30
0.0
 11
88.5937999999999874
 21
-7.140000000000029
 31
0.0
  0
LINE
  5
10D
100
AcDbEntity
100
AcDbLine
  8
6 scraper
 62
256
370
-1
  6
ByLayer
 10
88.5937999999999874
 20
-11.4999999999999716
 30
0.0
 11
88.5937999999999874
 21
-12.8600000000000279
 31
0.0
  0
LINE
  5
10E
100
AcDbEntity
100
AcDbLine
  8
6 scraper
 62
256
370
-1
  6
ByLayer
 10
88.5937999999999874
 20
-7.140000000000029
 30
0.0
 11
88.5937999999999874
 21
-8.5000000000000142
 31
0.0
  0
LINE
  5
10F
100
AcDbEntity
100
AcDbLine
  8
6 scraper
 62
256
370
-1
  6
ByLayer
 10
85.4237999999999715
 20
-8.5000000000000711
 30
0.0
 11
86.4237999999999715
 21
-8.5000000000000568
 31
0.0
  0
LINE
  5
110
100
AcDbEntity
100
AcDbLine
  8
6 scraper
 62
256
370
-1
  6
ByLayer
 10
86.4237999999999715
 20
-8.5000000000000568
 30
0.0
 11
86.4237999999999715
 21
-7.1400000000000716
 31
0.0
  0
LINE
  5
111
100
AcDbEntity
100
AcDbLine
  8
6 scraper
 62
256
370
-1
  6
ByLayer
 10
86.4237999999999715
 20
-12.8600000000000136
 30
0.0
 11
86.4237999999999715
 21
-11.5000000000000426
 31
0.0
  0
LINE
  5
112
100
AcDbEntity
100
AcDbLine
  8
6 scraper
 62
256
370
-1
  6
ByLayer
 10
86.4237999999999715
 20
-11.5000000000000426
 30
0.0
 11
85.4237999999999715
 21
-11.5000000000000568
 31
0.0
  0
LINE
  5
113
100
AcDbEntity
100
AcDbLine
  8
6 scraper
 62
256
370
-1
  6
ByLayer
 10
11.5
 20
-11.5
 30
0.0
 11
11.5
 21
-8.5
 31
0.0
  0
LINE
  5
114
100
AcDbEntity
100
AcDbLine
  8
6 scraper
 62
256
370
-1
  6
ByLayer
 10
8.3300000000000125
 20
-12.8599999999999568
 30
0.0
 11
10.5
 21
-12.8599999999999568
 31
0.0
  0
LINE
  5
115
100
AcDbEntity
100
AcDbLine
  8
6 scraper
 62
256
370
-1
  6
ByLayer
 10
10.5
 20
-7.1399999999999864
 30
0.0
 11
8.3300000000000125
 21
-7.1399999999999864
 31
0.0
  0
LINE
  5
116
100
AcDbEntity
100
AcDbLine
  8
6 scraper
 62
256
370
-1
  6
ByLayer
 10
8.3300000000000125
 20
-11.5
 30
0.0
 11
8.3300000000000125
 21
-12.8599999999999568
 31
0.0
  0
LINE
  5
117
100
AcDbEntity
100
AcDbLine
  8
6 scraper
 62
256
370
-1
  6
ByLayer
 10
8.3300000000000125
 20
-7.1399999999999864
 30
0.0
 11
8.3300000000000125
 21
-8.5
 31
0.0
  0
LINE
  5
118
100
AcDbEntity
100
AcDbLine
  8
6 scraper
 62
256
370
-1
  6
ByLayer
 10
11.5
 20
-8.5
 30
0.0
 11
10.5
 21
-8.5
 31
0.0
  0
LINE
  5
119
100
AcDbEntity
100
AcDbLine
  8
6 scraper
 62
256
370
-1
  6
ByLayer
 10
10.5
 20
-8.5
 30
0.0
 11
10.5
 21
-7.1399999999999864
 31
0.0
  0
LINE
  5
11A
100
AcDbEntity
100
AcDbLine
  8
6 scraper
 62
256
370
-1
  6
ByLayer
 10
10.5
 20
-12.8599999999999568
 30
0.0
 11
10.5
 21
-11.5
 31
0.0
  0
LINE
  5
11B
100
AcDbEntity
100
AcDbLine
  8
6 scraper
 62
256
370
-1
  6
ByLayer
 10
10.5
 20
-11.5
 30
0.0
 11
11.5
 21
-11.5
 31
0.0
  0
LINE
  5
11C
100
AcDbEntity
100
AcDbLine
  8
6 scraper
 62
256
370
-1
  6
ByLayer
 10
0.0
 20
0.0
 30
0.0
 11
96.9237999999999715
 21
-0.0000000000000142
 31
0.0
  0
LINE
  5
11D
100
AcDbEntity
100
AcDbLine
  8
6 scraper
 62
256
370
-1
  6
ByLayer
 10
96.9237999999999715
 20
-20.0000000000000284
 30
0.0
 11
0.0
 21
-20.0
 31
0.0
  0
ARC
  5
11E
100
AcDbEntity
  8
6 scraper
 62
256
370
-1
  6
ByLayer
100
AcDbCircle
 10
5.5000000000000284
 20
-12.0
 30
0.0
 40
0.5
100
AcDbArc
 50
90.0
 51
179.9999999999999432
  0
LINE
  5
11F
100
AcDbEntity
100
AcDbLine
  8
6 scraper
 62
256
370
-1
  6
ByLayer
 10
5.0
 20
-12.0
 30
0.0
 11
5.0
 21
-15.0
 31
0.0
  0
ARC
  5
120
100
AcDbEntity
  8
6 scraper
 62
256
370
-1
  6
ByLayer
100
AcDbCircle
 10
5.5
 20
-8.0
 30
0.0
 40
0.5
100
AcDbArc
 50
180.0000000000000568
 51
270.0
  0
LINE
  5
121
100
AcDbEntity
100
AcDbLine
  8
6 scraper
 62
256
370
-1
  6
ByLayer
 10
5.0
 20
-8.0
 30
0.0
 11
5.0
 21
-5.0
 31
0.0
  0
LINE
  5
122
100
AcDbEntity
100
AcDbLine
  8
6 scraper
 62
256
370
-1
  6
ByLayer
 10
0.0
 20
-20.0
 30
0.0
 11
0.0
 21
-15.0
 31
0.0
  0
LINE
  5
123
100
AcDbEntity
100
AcDbLine
  8
6 scraper
 62
256
370
-1
  6
ByLayer
 10
0.0
 20
-5.0
 30
0.0
 11
0.0
 21
0.0
 31
0.0
  0
LINE
  5
124
100
AcDbEntity
100
AcDbLine
  8
6 scraper
 62
256
370
-1
  6
ByLayer
 10
5.5
 20
-11.5
 30
0.0
 11
8.3300000000000125
 21
-11.5
 31
0.0
  0
LINE
  5
125
100
AcDbEntity
100
AcDbLine
  8
6 scraper
 62
256
370
-1
  6
ByLayer
 10
8.3300000000000125
 20
-8.5
 30
0.0
 11
5.5
 21
-8.5
 31
0.0
  0
LINE
  5
126
100
AcDbEntity
100
AcDbLine
  8
6 scraper
 62
256
370
-1
  6
ByLayer
 10
96.9237999999999715
 20
-0.0000000000000142
 30
0.0
 11
96.9237999999999715
 21
-5.0000000000000568
 31
0.0
  0
LINE
  5
127
100
AcDbEntity
100
AcDbLine
  8
6 scraper
 62
256
370
-1
  6
ByLayer
 10
96.9237999999999715
 20
-15.0000000000000426
 30
0.0
 11
96.9237999999999715
 21
-20.0000000000000284
 31
0.0
  0
ARC
  5
128
100
AcDbEntity
  8
6 scraper
 62
256
370
-1
  6
ByLayer
100
AcDbCircle
 10
91.4237999999999715
 20
-12.0000000000000142
 30
0.0
 40
0.5
100
AcDbArc
 50
0.0000000000000509
 51
90.0
  0
LINE
  5
129
100
AcDbEntity
100
AcDbLine
  8
6 scraper
 62
256
370
-1
  6
ByLayer
 10
91.9237999999999715
 20
-12.0
 30
0.0
 11
91.9237999999999715
 21
-15.0
 31
0.0
  0
ARC
  5
12A
100
AcDbEntity
  8
6 scraper
 62
256
370
-1
  6
ByLayer
100
AcDbCircle
 10
91.4237999999999715
 20
-8.0000000000000426
 30
0.0
 40
0.5
100
AcDbArc
 50
270.0
 51
359.9999999999999432
  0
LINE
  5
12B
100
AcDbEntity
100
AcDbLine
  8
6 scraper
 62
256
370
-1
  6
ByLayer
 10
91.9237999999999715
 20
-8.0
 30
0.0
 11
91.9237999999999715
 21
-5.0000000000000426
 31
0.0
  0
LINE
  5
12C
100
AcDbEntity
100
AcDbLine
  8
6 scraper
 62
256
370
-1
  6
ByLayer
 10
88.5937999999999874
 20
-8.5000000000000142
 30
0.0
 11
91.4237999999999715
 21
-8.4999999999999858
 31
0.0
  0
LINE
  5
12D
100
AcDbEntity
100
AcDbLine
  8
6 scraper
 62
256
370
-1
  6
ByLayer
 10
91.4237999999999715
 20
-11.5000000000000568
 30
0.0
 11
88.5937999999999874
 21
-11.4999999999999716
 31
0.0
  0
LINE
  5
12E
100
AcDbEntity
100
AcDbLine
  8
5a gear, shaft
 62
256
370
-1
  6
ByLayer
 10
110.6817703024302091
 20
-11.2959515665970684
 30
0.0
 11
110.6817703024302375
 21
-6.9687700358544475
 31
0.0
  0
ARC
  5
12F
100
AcDbEntity
  8
5a gear, shaft
 62
256
370
-1
  6
ByLayer
100
AcDbCircle
 10
112.9917703024302114
 20
-9.132360801225758
 30
0.0
 40
3.1649999999999987
100
AcDbArc
 50
223.1255240797430588
 51
136.8744759202569412
  0
LWPOLYLINE
  5
130
  8
5a gear, shaft
 62
7
420
16777215
370
-1
  6
ByLayer
100
AcDbEntity
100
AcDbPolyline
 90
121
 70
0
 10
111.9904583167204351
 20
-0.8770099189582652
 10
111.9061027361667016
 20
-0.1751992228800248
 10
111.9797109825019845
 20
0.4207619427082534
 10
112.5681695632587491
 20
1.7564533999567686
 10
113.415371041601702
 20
1.7564533999567686
 10
114.003829622358495
 20
0.4207619427082534
 10
114.0774378686937212
 20
-0.1751992228800248
 10
113.9930822881400161
 20
-0.8770099189582652
 10
115.4654455210519757
 20
-1.1900973392715173
 10
115.6738998326449916
 20
-0.5144450999985395
 10
115.983540604860508
 20
-0.0000000000000284
 10
117.0645436642549271
 20
0.9808318403317458
 10
117.8383402319749393
 20
0.6363136047097271
 10
117.8326626390484648
 20
-0.8232739663665427
 10
117.6576660333799964
 20
-1.3977411820185068
 10
117.2951012144202423
 20
-2.0046522990367635
 10
118.512776049478191
 20
-2.8893674200379849
 10
118.9781489852532275
 20
-2.3570783539132378
 10
119.4702889479687258
 20
-2.0129660712150041
 10
120.8566742256334976
 20
-1.5565154777535213
 10
121.4234355207417195
 20
-2.1861376849785188
 10
120.8246355586902041
 20
-3.5171646353580286
 10
120.43104587734544
 20
-3.9707764323562458
 10
119.8529286778834262
 20
-4.377749627171255
 10
120.6056365300902371
 20
-5.6814024174765052
 10
121.2472224933034681
 20
-5.3841313541730074
 10
121.8366948786184594
 20
-5.2701706687162471
 10
123.2887798648632725
 20
-5.4169812084629996
 10
123.5505648946249835
 20
-6.2226138259148058
 10
122.4620585318982648
 20
-7.1951318940682825
 10
121.918210944208198
 20
-7.4494143389985368
 10
121.2245114030967272
 20
-7.5860853961612804
 10
121.3818666598504876
 20
-9.0829847111849915
 10
122.0887463787199465
 20
-9.0724399941780121
 10
122.6735549756667183
 20
-9.2080979652832582
 10
123.9405053106605124
 20
-9.9330249859912954
 10
123.8520945118737302
 20
-10.7753607772552584
 10
122.4620585318982364
 20
-11.2210640364982623
 10
121.8618395308654669
 20
-11.2320139879282408
 10
121.1723978251984875
 20
-11.0748620668867659
 10
120.7072275066349789
 20
-12.50646690775352
 10
121.3573305777387361
 20
-12.7842709117365558
 10
121.8366948786184878
 20
-13.1460252618502835
 10
122.6991048623367249
 20
-14.3235502749982828
 10
122.2757067403767337
 20
-15.0571970208082462
 10
120.8246355586902325
 20
-14.899031295208502
 10
120.2716630114752263
 20
-14.664823761233265
 10
119.7059155209252026
 20
-14.240817069138032
 10
118.6987226065767231
 20
-15.3593344896915198
 10
119.179506664938458
 20
-15.8778348079230369
 10
119.4702889479687258
 20
-16.4032298593515407
 10
119.7793204315482285
 20
-17.8297649589262761
 10
119.09393466261497
 20
-18.3275825145682774
 10
117.8326626390484648
 20
-17.5929219642000021
 10
117.4228506477702467
 20
-17.1541127196532273
 10
117.0785357478604851
 20
-16.5366568856280338
 10
115.7033030388371913
 20
-17.148840361149766
 10
115.9318322613852388
 20
-17.8180045386502854
 10
115.9835406048604796
 20
-18.4161959305665306
 10
115.6856609714217257
 20
-19.8449619749700048
 10
114.8571146465517074
 20
-20.0211750024082846
 10
114.0038296223584666
 20
-18.8369578732747698
 10
113.80774430117674
 20
-18.2693853908197497
 10
113.7444781546369654
 20
-17.5651411327012568
 10
112.2390624502234573
 20
-17.5651411327012568
 10
112.1757963036837111
 20
-18.2693853908197354
 10
111.9797109825019561
 20
-18.8369578732747698
 10
111.1264259583087153
 20
-20.0211750024082846
 10
110.2978796334386971
 20
-19.8449619749700048
 10
109.9999999999999716
 20
-18.416195930566488
 10
110.0517083434752124
 20
-17.8180045386502286
 10
110.2802375660232599
 20
-17.1488403611497517
 10
108.9050048569999376
 20
-16.5366568856279912
 10
108.5606899570902044
 20
-17.1541127196532273
 10
108.1508779658119863
 20
-17.5929219641999737
 10
106.8896059422454812
 20
-18.3275825145682632
 10
106.2042201733122226
 20
-17.8297649589262619
 10
106.5132516568916969
 20
-16.4032298593515122
 10
106.8040339399219647
 20
-15.8778348079229943
 10
107.284817998283728
 20
-15.3593344896915198
 10
106.2776250839352485
 20
-14.2408170691380178
 10
105.7118775933851964
 20
-14.664823761233265
 10
105.1589050461702186
 20
-14.8990312952084878
 10
103.7078338644837174
 20
-15.0571970208082462
 10
103.2844357425237547
 20
-14.3235502749982686
 10
104.1468457262419918
 20
-13.1460252618502693
 10
104.626210027121715
 20
-12.7842709117365132
 10
105.2763130982254722
 20
-12.5064669077534916
 10
104.8111427796619637
 20
-11.0748620668867659
 10
104.1217010739949842
 20
-11.2320139879282408
 10
103.5214820729621863
 20
-11.2210640364982623
 10
102.1314460929867494
 20
-10.7753607772552584
 10
102.0430352941999104
 20
-9.9330249859912385
 10
103.3099856291937328
 20
-9.2080979652832582
 10
103.8947942261405046
 20
-9.0724399941780121
 10
104.6016739450099919
 20
-9.0829847111849915
 10
104.7590292017636955
 20
-7.586085396161252
 10
104.0653296606522247
 20
-7.4494143389985084
 10
103.5214820729622431
 20
-7.1951318940682825
 10
102.4329757102354961
 20
-6.2226138259147774
 10
102.6947607399972071
 20
-5.4169812084629996
 10
104.1468457262419633
 20
-5.2701706687162471
 10
104.7363181115569546
 20
-5.3841313541730074
 10
105.3779040747701856
 20
-5.6814024174765052
 10
106.1306119269769965
 20
-4.377749627171255
 10
105.5524947275150112
 20
-3.9707764323562458
 10
105.1589050461701902
 20
-3.5171646353580002
 10
104.56010508411876
 20
-2.1861376849784904
 10
105.1268663792270104
 20
-1.5565154777535213
 10
106.5132516568916969
 20
-2.0129660712150041
 10
107.0053916196071953
 20
-2.3570783539132378
 10
107.4707645553822317
 20
-2.8893674200379849
 10
108.6884393904402089
 20
-2.0046522990367635
 10
108.3258745714804263
 20
-1.3977411820185068
 10
108.1508779658119863
 20
-0.8232739663665143
 10
108.1452003728854834
 20
0.6363136047097271
 10
108.9189969406054672
 20
0.9808318403317458
 10
110.0
 20
0.0
 10
110.3096407722154595
 20
-0.5144450999985111
 10
110.5180950838084755
 20
-1.1900973392714889
 10
111.9904583167204351
 20
-0.8770099189582652
  0
LWPOLYLINE
  5
131
  8
5b gear, motor
 62
7
420
16777215
370
-1
  6
ByLayer
100
AcDbEntity
100
AcDbPolyline
 90
121
 70
0
 10
140.5897163766274502
 20
-8.8277400939572885
 10
140.5130294852149575
 20
-9.4657498176648005
 10
140.5799460727924668
 20
-10.0075326954723209
 10
141.1149084189349878
 20
-11.2217976566072934
 10
141.8850915810649838
 20
-11.2217976566073219
 10
142.4200539272074764
 20
-10.0075326954723494
 10
142.4869705147849857
 20
-9.4657498176648289
 10
142.4102836233724929
 20
-8.8277400939572885
 10
143.7487956532925182
 20
-8.5431151663998151
 10
143.9382995729224888
 20
-9.157344474829813
 10
144.2197911840274855
 20
-9.6250218384648463
 10
145.2025212380224843
 20
-10.5166871478573398
 10
145.9059726632224567
 20
-10.2034887518372983
 10
145.900811215107467
 20
-8.8765909599498087
 10
145.7417233917725241
 20
-8.3543480366298297
 10
145.4121190108999997
 20
-7.8026106575223508
 10
146.5190961336799944
 20
-6.9983241838848471
 10
146.9421624389299836
 20
-7.4822233349073173
 10
147.3895624050349795
 20
-7.7950526828148128
 10
148.64991265745752
 20
-8.2100077677798282
 10
149.1651501984649713
 20
-7.6376239430298511
 10
148.6207865965999702
 20
-6.4275994426848229
 10
148.2629777953774521
 20
-6.0152250817773307
 10
147.7374167049574396
 20
-5.6452494501272952
 10
148.4216965706000053
 20
-4.4601105498498299
 10
149.0049565371574829
 20
-4.730356971034837
 10
149.5408405238074749
 20
-4.8339575941773347
 10
150.8609177840300219
 20
-4.7004934671348622
 10
151.0989041747224917
 20
-3.9681001785423291
 10
150.1093529358800254
 20
-3.0839928438573168
 10
149.6149460379799621
 20
-2.8528269848297896
 10
148.9843100915149705
 20
-2.728580569227347
 10
149.12736032492748
 20
-1.3677630101148566
 10
149.7699782511724891
 20
-1.3773491164848224
 10
150.3016224302149624
 20
-1.2540236882072975
 10
151.4533954620274869
 20
-0.5949991239273231
 10
151.3730220085849965
 20
0.170760686312633
 10
150.1093529358800254
 20
0.5759454674426649
 10
149.5636992985774611
 20
0.585899968742666
 10
148.936934111607485
 20
0.4430345859776992
 10
148.5140520038224849
 20
1.7444935322201616
 10
149.1050547957350147
 20
1.9970426267501864
 10
149.5408405238074749
 20
2.3259102177626687
 10
150.3248495999149839
 20
3.3963875024426784
 10
149.9399422163150177
 20
4.0633390895426373
 10
148.6207865965999986
 20
3.9195520662701711
 10
148.1180842809500007
 20
3.7066361262926648
 10
147.6037683804499352
 20
3.3211754971151777
 10
146.6881384583149668
 20
4.338009515800195
 10
147.1252148750074582
 20
4.8093734414651976
 10
147.3895624050349795
 20
5.2870053064001752
 10
147.6705001173799872
 20
6.5838553969226723
 10
147.0474221456224484
 20
7.0364168111426864
 10
145.900811215107467
 20
6.3685435835351427
 10
145.5282548593999934
 20
5.969626088492646
 10
145.2152413140274803
 20
5.4083026030152155
 10
143.9650297603699869
 20
5.9648330353076631
 10
144.1727835990500068
 20
6.5731641057626575
 10
144.219791184027514
 20
7.116974462050166
 10
143.9489915172650001
 20
8.4158526842351762
 10
143.1957675855649654
 20
8.576046345542693
 10
142.4200539272074764
 20
7.4994853190576976
 10
142.2417945443149563
 20
6.9835103350076793
 10
142.1842798656424804
 20
6.3432882821726935
 10
140.8157201343574627
 20
6.343288282172665
 10
140.7582054556849585
 20
6.9835103350076793
 10
140.5799460727924668
 20
7.4994853190576691
 10
139.8042324144350061
 20
8.5760463455426645
 10
139.0510084827349999
 20
8.4158526842351762
 10
138.780208815972486
 20
7.1169744620501945
 10
138.8272164009499647
 20
6.5731641057626291
 10
139.0349702396299847
 20
5.9648330353076915
 10
137.7847586859724629
 20
5.4083026030152155
 10
137.4717451405999498
 20
5.9696260884926744
 10
137.0991887848925046
 20
6.3685435835351711
 10
135.9525778543774663
 20
7.0364168111427148
 10
135.3294998826200128
 20
6.5838553969226723
 10
135.6104375949649352
 20
5.2870053064002036
 10
135.874785124992485
 20
4.8093734414651976
 10
136.3118615416849764
 20
4.338009515800195
 10
135.3962316195499795
 20
3.3211754971152061
 10
134.8819157190499709
 20
3.7066361262926648
 10
134.379213403399973
 20
3.9195520662701995
 10
133.0600577836849823
 20
4.0633390895426942
 10
132.6751504000849593
 20
3.3963875024426784
 10
133.4591594761924682
 20
2.3259102177626687
 10
133.8949452042649853
 20
1.9970426267501864
 10
134.4859479961774866
 20
1.74449353222019
 10
134.0630658883924582
 20
0.4430345859777276
 10
133.4363007014225104
 20
0.585899968742666
 10
132.8906470641199746
 20
0.5759454674426649
 10
131.6269779914149751
 20
0.1707606863126898
 10
131.5466045379724562
 20
-0.5949991239272947
 10
132.6983775697849808
 20
-1.2540236882072975
 10
133.2300217488274825
 20
-1.377349116484794
 10
133.8726396750724632
 20
-1.3677630101147997
 10
134.0156899084850011
 20
-2.7285805692272902
 10
133.3850539620199811
 20
-2.8528269848297896
 10
132.8906470641199462
 20
-3.0839928438572883
 10
131.9010958252775083
 20
-3.9681001785422865
 10
132.1390822159699781
 20
-4.7004934671348195
 10
133.4591594761924966
 20
-4.8339575941773489
 10
133.9950434628424887
 20
-4.7303569710348086
 10
134.5783034293999663
 20
-4.4601105498498015
 10
135.2625832950425036
 20
-5.6452494501273094
 10
134.7370222046224626
 20
-6.0152250817773165
 10
134.379213403399973
 20
-6.4275994426848087
 10
133.8348498015350003
 20
-7.6376239430298369
 10
134.3500873425424516
 20
-8.2100077677797998
 10
135.6104375949649352
 20
-7.7950526828147986
 10
136.0578375610699595
 20
-7.4822233349073031
 10
136.4809038663200056
 20
-6.9983241838848187
 10
137.5878809890999435
 20
-7.8026106575222798
 10
137.2582766082274759
 20
-8.3543480366298013
 10
137.0991887848925046
 20
-8.8765909599497945
 10
137.0940273367774864
 20
-10.2034887518373125
 10
137.7974787619774872
 20
-10.516687147857283
 10
138.780208815972486
 20
-9.6250218384648321
 10
139.0617004270774544
 20
-9.1573444748298414
 10
139.2512043467074534
 20
-8.5431151663997866
 10
140.5897163766274502
 20
-8.8277400939572885
  0
LINE
  5
132
100
AcDbEntity
100
AcDbLine
  8
5b gear, motor
 62
256
370
-1
  6
ByLayer
 10
140.0
 20
0.0
 30
0.0
 11
140.0
 21
-2.6457513110646005
 31
0.0
  0
ARC
  5
133
100
AcDbEntity
  8
5b gear, motor
 62
256
370
-1
  6
ByLayer
100
AcDbCircle
 10
141.4999999999999716
 20
-1.3228756555323287
 30
0.0
 40
1.9999999999999987
100
AcDbArc
 50
221.4096221092707992
 51
138.5903778907292008
  0
LINE
  5
134
100
AcDbEntity
100
AcDbLine
  8
7 belt
 62
256
370
-1
  6
ByLayer
 10
2.5
 20
-57.4999999999998863
 30
0.0
 11
22.4999999999999432
 21
-142.4999999999999432
 31
0.0
  0
LINE
  5
135
100
AcDbEntity
100
AcDbLine
  8
7 belt
 62
256
370
-1
  6
ByLayer
 10
297.5
 20
-142.5
 30
0.0
 11
277.5
 21
-57.4999999999999858
 31
0.0
  0
LINE
  5
136
100
AcDbEntity
100
AcDbLine
  8
7 belt
 62
256
370
-1
  6
ByLayer
 10
2.5
 20
-57.4999999999998863
 30
0.0
 11
277.5
 21
-57.4999999999999858
 31
0.0
  0
LINE
  5
137
100
AcDbEntity
100
AcDbLine
  8
7 belt
 62
256
370
-1
  6
ByLayer
 10
297.5
 20
-142.5000000000001137
 30
0.0
 11
22.4999999999999432
 21
-142.4999999999999432
 31
0.0
  0
LWPOLYLINE
  5
138
  8
5b gear, motor
 62
7
420
16777215
370
-1
  6
ByLayer
100
AcDbEntity
100
AcDbPolyline
 90
121
 70
0
 10
182.4951355615750117
 20
80.9102836233725213
 10
181.8571258378674997
 20
80.9869705147850141
 10
181.3153429600599793
 20
80.9200539272075048
 10
180.1010779989250068
 20
80.3850915810649838
 10
180.1010779989250068
 20
79.6149084189350305
 10
181.3153429600599793
 20
79.0799460727924952
 10
181.8571258378674997
 20
79.0130294852149859
 10
182.4951355615750117
 20
79.0897163766274787
 10
182.7797604891325136
 20
77.7512043467074818
 10
182.1655311807024873
 20
77.561700427077497
 10
181.6978538170674824
 20
77.2802088159725002
 10
180.8061885076749888
 20
76.2974787619775157
 10
181.1193869036949877
 20
75.5940273367775148
 10
182.4462846955825057
 20
75.5991887848925188
 10
182.9685276189024989
 20
75.7582766082274759
 10
183.520264998009992
 20
76.0878809890999861
 10
184.3245514716474815
 20
74.9809038663200056
 10
183.8406523206249972
 20
74.5578375610699879
 10
183.5278229727175017
 20
74.1104375949649921
 10
183.1128678877525147
 20
72.85008734254248
 10
183.6852517125024917
 20
72.3348498015350145
 10
184.8952762128475058
 20
72.8792134034000014
 10
185.3076505737549837
 20
73.2370222046225194
 10
185.6776262054050051
 20
73.7625832950425178
 10
186.8627651056824845
 20
73.0783034293999947
 10
186.5925186844974917
 20
72.4950434628425171
 10
186.4889180613549797
 20
71.9591594761924966
 10
186.6223821883974665
 20
70.6390822159699781
 10
187.3547754769899996
 20
70.4010958252775083
 10
188.2388828116750119
 20
71.3906470641199746
 10
188.4700486707025107
 20
71.8850539620200095
 10
188.5942950863049816
 20
72.5156899084850011
 10
189.9551126454174721
 20
72.3726396750724916
 10
189.9455265390475063
 20
71.7300217488275109
 10
190.0688519673250028
 20
71.198377569784995
 10
190.7278765316050055
 20
70.0466045379724846
 10
191.4936363418449901
 20
70.1269779914150035
 10
191.8988211229749936
 20
71.3906470641199746
 10
191.9087756242749663
 20
71.9363007014225104
 10
191.7659102415099994
 20
72.5630658883924866
 10
193.0673691877524902
 20
72.9859479961775008
 10
193.3199182822825151
 20
72.3949452042649995
 10
193.6487858732949974
 20
71.9591594761924966
 10
194.7192631579749786
 20
71.1751504000850161
 10
195.386214745074966
 20
71.5600577836849823
 10
195.2424277218024997
 20
72.8792134034000014
 10
195.0295117818249935
 20
73.3819157190499851
 10
194.6440511526474779
 20
73.8962316195500222
 10
195.6608851713324952
 20
74.8118615416850048
 10
196.1322490969974979
 20
74.3747851249924992
 10
196.6098809619325039
 20
74.1104375949649921
 10
197.906731052455001
 20
73.8294998826199986
 10
198.3592924666749866
 20
74.452577854377509
 10
197.6914192390674714
 20
75.5991887848925188
 10
197.2925017440249746
 20
75.9717451405999782
 10
196.7311782585475157
 20
76.2847586859724913
 10
197.2877086908399917
 20
77.5349702396300273
 10
197.8960397612949862
 20
77.3272164009499789
 10
198.4398501175824947
 20
77.2802088159725002
 10
199.7387283397674764
 20
77.5510084827349999
 10
199.8989220010749932
 20
78.3042324144350061
 10
198.8223609745899978
 20
79.0799460727925236
 10
198.3063859905399795
 20
79.2582054556850011
 10
197.6661639377049937
 20
79.3157201343575053
 10
197.6661639377049937
 20
80.6842798656425089
 10
198.3063859905399795
 20
80.7417945443149989
 10
198.8223609745899978
 20
80.9200539272075048
 10
199.8989220010749932
 20
81.6957675855649939
 10
199.7387283397674764
 20
82.4489915172650001
 10
198.4398501175824947
 20
82.7197911840274998
 10
197.8960397612949578
 20
82.6727835990500211
 10
197.2877086908399917
 20
82.4650297603699727
 10
196.7311782585475157
 20
83.7152413140275087
 10
197.2925017440250031
 20
84.0282548594000218
 10
197.6914192390674998
 20
84.4008112151074812
 10
198.359292466675015
 20
85.5474221456225052
 10
197.906731052455001
 20
86.1705001173799872
 10
196.6098809619325039
 20
85.8895624050350222
 10
196.1322490969974979
 20
85.6252148750075008
 10
195.6608851713324952
 20
85.1881384583149952
 10
194.6440511526475063
 20
86.1037683804499778
 10
195.0295117818249935
 20
86.6180842809500149
 10
195.2424277218024997
 20
87.1207865965999986
 10
195.3862147450749944
 20
88.4399422163150035
 10
194.7192631579749786
 20
88.8248495999149981
 10
193.6487858732949974
 20
88.0408405238075034
 10
193.3199182822825151
 20
87.6050547957350005
 10
193.0673691877524902
 20
87.0140520038224992
 10
191.7659102415100278
 20
87.4369341116075134
 10
191.9087756242749663
 20
88.0636992985774754
 10
191.8988211229749936
 20
88.6093529358800254
 10
191.4936363418449901
 20
89.8730220085849965
 10
190.7278765316050055
 20
89.9533954620275154
 10
190.0688519673250028
 20
88.801622430215005
 10
189.9455265390475063
 20
88.2699782511724891
 10
189.9551126454175005
 20
87.6273603249275084
 10
188.59429508630501
 20
87.4843100915149847
 10
188.4700486707025107
 20
88.1149460379799905
 10
188.2388828116750403
 20
88.6093529358800254
 10
187.354775476990028
 20
89.5989041747224775
 10
186.6223821883974949
 20
89.3609177840300219
 10
186.4889180613549797
 20
88.0408405238075034
 10
186.5925186844974917
 20
87.5049565371574829
 10
186.862765105682513
 20
86.9216965706000053
 10
185.6776262054050051
 20
86.2374167049574822
 10
185.3076505737549837
 20
86.7629777953774948
 10
184.8952762128475058
 20
87.1207865965999986
 10
183.6852517125024917
 20
87.6651501984649855
 10
183.1128678877525147
 20
87.14991265745752
 10
183.5278229727175017
 20
85.8895624050350364
 10
183.8406523206249972
 20
85.4421624389300121
 10
184.32455147164751
 20
85.0190961336799944
 10
183.5202649980100205
 20
83.9121190109000139
 10
182.9685276189024989
 20
84.2417233917725099
 10
182.4462846955825057
 20
84.4008112151074812
 10
181.1193869036949877
 20
84.4059726632224994
 10
180.8061885076750173
 20
83.7025212380224843
 10
181.6978538170674824
 20
82.7197911840274998
 10
182.1655311807024873
 20
82.438299572922503
 10
182.7797604891325136
 20
82.2487956532925182
 10
182.4951355615750117
 20
80.9102836233725213
  0
LWPOLYLINE
  5
139
  8
5b gear, motor
 62
7
420
16777215
370
-1
  6
ByLayer
100
AcDbEntity
100
AcDbPolyline
 90
121
 70
0
 10
205.4951355615750117
 20
80.9102836233725213
 10
204.8571258378674997
 20
80.9869705147850141
 10
204.3153429600599793
 20
80.9200539272075048
 10
203.1010779989250068
 20
80.3850915810649838
 10
203.1010779989250068
 20
79.6149084189350305
 10
204.3153429600599793
 20
79.0799460727924952
 10
204.8571258378674997
 20
79.0130294852149859
 10
205.4951355615750117
 20
79.0897163766274787
 10
205.7797604891325136
 20
77.7512043467074818
 10
205.1655311807024873
 20
77.561700427077497
 10
204.6978538170674824
 20
77.2802088159725002
 10
203.8061885076749888
 20
76.2974787619775157
 10
204.1193869036949877
 20
75.5940273367775148
 10
205.4462846955825057
 20
75.5991887848925188
 10
205.9685276189024989
 20
75.7582766082274759
 10
206.520264998009992
 20
76.0878809890999861
 10
207.3245514716474815
 20
74.9809038663200056
 10
206.8406523206249972
 20
74.5578375610699879
 10
206.5278229727175017
 20
74.1104375949649921
 10
206.1128678877525147
 20
72.85008734254248
 10
206.6852517125024917
 20
72.3348498015350145
 10
207.8952762128475058
 20
72.8792134034000014
 10
208.3076505737549837
 20
73.2370222046225194
 10
208.6776262054050051
 20
73.7625832950425178
 10
209.8627651056824845
 20
73.0783034293999947
 10
209.5925186844974917
 20
72.4950434628425171
 10
209.4889180613549797
 20
71.9591594761924966
 10
209.6223821883974665
 20
70.6390822159699781
 10
210.3547754769899996
 20
70.4010958252775083
 10
211.2388828116750119
 20
71.3906470641199746
 10
211.4700486707025107
 20
71.8850539620200095
 10
211.5942950863049816
 20
72.5156899084850011
 10
212.9551126454174721
 20
72.3726396750724916
 10
212.9455265390475063
 20
71.7300217488275109
 10
213.0688519673250028
 20
71.198377569784995
 10
213.7278765316050055
 20
70.0466045379724846
 10
214.4936363418449901
 20
70.1269779914150035
 10
214.8988211229749936
 20
71.3906470641199746
 10
214.9087756242749663
 20
71.9363007014225104
 10
214.7659102415099994
 20
72.5630658883924866
 10
216.0673691877524902
 20
72.9859479961775008
 10
216.3199182822825151
 20
72.3949452042649995
 10
216.6487858732949974
 20
71.9591594761924966
 10
217.7192631579749786
 20
71.1751504000850161
 10
218.386214745074966
 20
71.5600577836849823
 10
218.2424277218024997
 20
72.8792134034000014
 10
218.0295117818249935
 20
73.3819157190499851
 10
217.6440511526474779
 20
73.8962316195500222
 10
218.6608851713324952
 20
74.8118615416850048
 10
219.1322490969974979
 20
74.3747851249924992
 10
219.6098809619325039
 20
74.1104375949649921
 10
220.906731052455001
 20
73.8294998826199986
 10
221.3592924666749866
 20
74.452577854377509
 10
220.6914192390674714
 20
75.5991887848925188
 10
220.2925017440249746
 20
75.9717451405999782
 10
219.7311782585475157
 20
76.2847586859724913
 10
220.2877086908399917
 20
77.5349702396300273
 10
220.8960397612949862
 20
77.3272164009499789
 10
221.4398501175824947
 20
77.2802088159725002
 10
222.7387283397674764
 20
77.5510084827349999
 10
222.8989220010749932
 20
78.3042324144350061
 10
221.8223609745899978
 20
79.0799460727925236
 10
221.3063859905399795
 20
79.2582054556850011
 10
220.6661639377049937
 20
79.3157201343575053
 10
220.6661639377049937
 20
80.6842798656425089
 10
221.3063859905399795
 20
80.7417945443149989
 10
221.8223609745899978
 20
80.9200539272075048
 10
222.8989220010749932
 20
81.6957675855649939
 10
222.7387283397674764
 20
82.4489915172650001
 10
221.4398501175824947
 20
82.7197911840274998
 10
220.8960397612949578
 20
82.6727835990500211
 10
220.2877086908399917
 20
82.4650297603699727
 10
219.7311782585475157
 20
83.7152413140275087
 10
220.2925017440250031
 20
84.0282548594000218
 10
220.6914192390674998
 20
84.4008112151074812
 10
221.359292466675015
 20
85.5474221456225052
 10
220.906731052455001
 20
86.1705001173799872
 10
219.6098809619325039
 20
85.8895624050350222
 10
219.1322490969974979
 20
85.6252148750075008
 10
218.6608851713324952
 20
85.1881384583149952
 10
217.6440511526475063
 20
86.1037683804499778
 10
218.0295117818249935
 20
86.6180842809500149
 10
218.2424277218024997
 20
87.1207865965999986
 10
218.3862147450749944
 20
88.4399422163150035
 10
217.7192631579749786
 20
88.8248495999149981
 10
216.6487858732949974
 20
88.0408405238075034
 10
216.3199182822825151
 20
87.6050547957350005
 10
216.0673691877524902
 20
87.0140520038224992
 10
214.7659102415100278
 20
87.4369341116075134
 10
214.9087756242749663
 20
88.0636992985774754
 10
214.8988211229749936
 20
88.6093529358800254
 10
214.4936363418449901
 20
89.8730220085849965
 10
213.7278765316050055
 20
89.9533954620275154
 10
213.0688519673250028
 20
88.801622430215005
 10
212.9455265390475063
 20
88.2699782511724891
 10
212.9551126454175005
 20
87.6273603249275084
 10
211.59429508630501
 20
87.4843100915149847
 10
211.4700486707025107
 20
88.1149460379799905
 10
211.2388828116750403
 20
88.6093529358800254
 10
210.354775476990028
 20
89.5989041747224775
 10
209.6223821883974949
 20
89.3609177840300219
 10
209.4889180613549797
 20
88.0408405238075034
 10
209.5925186844974917
 20
87.5049565371574829
 10
209.862765105682513
 20
86.9216965706000053
 10
208.6776262054050051
 20
86.2374167049574822
 10
208.3076505737549837
 20
86.7629777953774948
 10
207.8952762128475058
 20
87.1207865965999986
 10
206.6852517125024917
 20
87.6651501984649855
 10
206.1128678877525147
 20
87.14991265745752
 10
206.5278229727175017
 20
85.8895624050350364
 10
206.8406523206249972
 20
85.4421624389300121
 10
207.32455147164751
 20
85.0190961336799944
 10
206.5202649980100205
 20
83.9121190109000139
 10
205.9685276189024989
 20
84.2417233917725099
 10
205.4462846955825057
 20
84.4008112151074812
 10
204.1193869036949877
 20
84.4059726632224994
 10
203.8061885076750173
 20
83.7025212380224843
 10
204.6978538170674824
 20
82.7197911840274998
 10
205.1655311807024873
 20
82.438299572922503
 10
205.7797604891325136
 20
82.2487956532925182
 10
205.4951355615750117
 20
80.9102836233725213
  0
ARC
  5
13A
100
AcDbEntity
  8
5b gear, motor
 62
256
370
-1
  6
ByLayer
100
AcDbCircle
 10
190.0
 20
80.0
 30
0.0
 40
1.8
100
AcDbArc
 50
131.4099999999999966
 51
48.5904000000000025
  0
ARC
  5
13B
100
AcDbEntity
  8
5b gear, motor
 62
256
370
-1
  6
ByLayer
100
AcDbCircle
 10
213.0
 20
80.0
 30
0.0
 40
1.7
100
AcDbArc
 50
131.4099999999999966
 51
48.5904000000000025
  0
LINE
  5
13C
100
AcDbEntity
100
AcDbLine
  8
5b gear, motor
 62
256
370
-1
  6
ByLayer
 10
191.1905875690415542
 20
81.3500004594235264
 30
0.0
 11
188.8094030062062814
 21
81.3499921475213768
 31
0.0
  0
LINE
  5
13D
100
AcDbEntity
100
AcDbLine
  8
5b gear, motor
 62
256
370
-1
  6
ByLayer
 10
214.1244438152059217
 20
81.2750004338999901
 30
0.0
 11
211.8755472836392642
 21
81.2749925837701852
 31
0.0
  0
MTEXT
  5
13E
100
AcDbEntity
100
AcDbMText
  8
0
 62
256
370
-1
  6
ByLayer
 10
174.896656062290532
 20
105.513785097661696
 30
0.0
 40
5.0
 41
100.0
 71
1
 72
2
  1
Testing\Pr=1.8\~mm\~\~r=1.7\~m
  7
standard
 50
0.0
 73
0
 44
1.0
  0
CIRCLE
  5
13F
100
AcDbEntity
100
AcDbCircle
  8
1 bottom
 62
256
370
-1
  6
ByLayer
 10
9.9999999999999165
 20
170.7120000000000459
 30
0.0
 40
2.75
  0
CIRCLE
  5
140
100
AcDbEntity
100
AcDbCircle
  8
1 bottom
 62
256
370
-1
  6
ByLayer
 10
-10.1000000000000156
 20
183.7120000000000459
 30
0.0
 40
2.75
  0
CIRCLE
  5
141
100
AcDbEntity
100
AcDbCircle
  8
1 bottom
 62
256
370
-1
  6
ByLayer
 10
30.099999999999973
 20
183.7120000000000459
 30
0.0
 40
2.75
  0
LINE
  5
142
100
AcDbEntity
100
AcDbLine
  8
1 bottom
 62
256
370
-1
  6
ByLayer
 10
16.7699999999998894
 20
153.0820000000000221
 30
0.0
 11
14.0299999999998981
 21
153.0820000000000221
 31
0.0
  0
LINE
  5
143
100
AcDbEntity
100
AcDbLine
  8
1 bottom
 62
256
370
-1
  6
ByLayer
 10
16.7699999999999037
 20
150.3420000000000982
 30
0.0
 11
16.7699999999998894
 21
153.0820000000000221
 31
0.0
  0
LINE
  5
144
100
AcDbEntity
100
AcDbLine
  8
1 bottom
 62
256
370
-1
  6
ByLayer
 10
14.0299999999998981
 20
153.0820000000000221
 30
0.0
 11
14.0299999999999159
 21
150.3420000000000698
 31
0.0
  0
LINE
  5
145
100
AcDbEntity
100
AcDbLine
  8
1 bottom
 62
256
370
-1
  6
ByLayer
 10
14.0299999999999159
 20
150.3420000000000698
 30
0.0
 11
16.7699999999999037
 21
150.3420000000000982
 31
0.0
  0
LINE
  5
146
100
AcDbEntity
100
AcDbLine
  8
1 bottom
 62
256
370
-1
  6
ByLayer
 10
5.9699999999999207
 20
153.0820000000000221
 30
0.0
 11
3.2299999999998956
 21
153.0820000000000221
 31
0.0
  0
LINE
  5
147
100
AcDbEntity
100
AcDbLine
  8
1 bottom
 62
256
370
-1
  6
ByLayer
 10
5.9699999999998887
 20
150.3420000000000982
 30
0.0
 11
5.9699999999999207
 21
153.0820000000000221
 31
0.0
  0
LINE
  5
148
100
AcDbEntity
100
AcDbLine
  8
1 bottom
 62
256
370
-1
  6
ByLayer
 10
3.2299999999998956
 20
153.0820000000000221
 30
0.0
 11
3.229999999999893
 21
150.3420000000000982
 31
0.0
  0
LINE
  5
149
100
AcDbEntity
100
AcDbLine
  8
1 bottom
 62
256
370
-1
  6
ByLayer
 10
3.229999999999893
 20
150.3420000000000982
 30
0.0
 11
5.9699999999998887
 21
150.3420000000000982
 31
0.0
  0
LINE
  5
14A
100
AcDbEntity
100
AcDbLine
  8
1 bottom
 62
256
370
-1
  6
ByLayer
 10
11.3699999999999548
 20
185.0820000000000221
 30
0.0
 11
8.6299999999999457
 21
185.0820000000000221
 31
0.0
  0
LINE
  5
14B
100
AcDbEntity
100
AcDbLine
  8
1 bottom
 62
256
370
-1
  6
ByLayer
 10
11.3699999999999264
 20
182.3420000000000698
 30
0.0
 11
11.3699999999999548
 21
185.0820000000000221
 31
0.0
  0
LINE
  5
14C
100
AcDbEntity
100
AcDbLine
  8
1 bottom
 62
256
370
-1
  6
ByLayer
 10
8.6299999999999457
 20
185.0820000000000221
 30
0.0
 11
8.6299999999999457
 21
182.3420000000000698
 31
0.0
  0
LINE
  5
14D
100
AcDbEntity
100
AcDbLine
  8
1 bottom
 62
256
370
-1
  6
ByLayer
 10
8.6299999999999457
 20
182.3420000000000698
 30
0.0
 11
11.3699999999999264
 21
182.3420000000000698
 31
0.0
  0
LINE
  5
14E
100
AcDbEntity
100
AcDbLine
  8
1 bottom
 62
256
370
-1
  6
ByLayer
 10
16.7699999999999321
 20
199.0820000000000221
 30
0.0
 11
14.029999999999955
 21
199.0820000000000221
 31
0.0
  0
LINE
  5
14F
100
AcDbEntity
100
AcDbLine
  8
1 bottom
 62
256
370
-1
  6
ByLayer
 10
16.7699999999999321
 20
196.3420000000000698
 30
0.0
 11
16.7699999999999321
 21
199.0820000000000221
 31
0.0
  0
LINE
  5
150
100
AcDbEntity
100
AcDbLine
  8
1 bottom
 62
256
370
-1
  6
ByLayer
 10
14.029999999999955
 20
199.0820000000000221
 30
0.0
 11
14.0299999999999514
 21
196.3420000000000982
 31
0.0
  0
LINE
  5
151
100
AcDbEntity
100
AcDbLine
  8
1 bottom
 62
256
370
-1
  6
ByLayer
 10
14.0299999999999514
 20
196.3420000000000982
 30
0.0
 11
16.7699999999999321
 21
196.3420000000000698
 31
0.0
  0
LINE
  5
152
100
AcDbEntity
100
AcDbLine
  8
1 bottom
 62
256
370
-1
  6
ByLayer
 10
5.96999999999995
 20
199.0820000000000221
 30
0.0
 11
3.2299999999999436
 21
199.0820000000000221
 31
0.0
  0
LINE
  5
153
100
AcDbEntity
100
AcDbLine
  8
1 bottom
 62
256
370
-1
  6
ByLayer
 10
5.9699999999999482
 20
196.3420000000000698
 30
0.0
 11
5.96999999999995
 21
199.0820000000000221
 31
0.0
  0
LINE
  5
154
100
AcDbEntity
100
AcDbLine
  8
1 bottom
 62
256
370
-1
  6
ByLayer
 10
3.2299999999999436
 20
199.0820000000000221
 30
0.0
 11
3.2299999999999418
 21
196.3420000000000698
 31
0.0
  0
LINE
  5
155
100
AcDbEntity
100
AcDbLine
  8
1 bottom
 62
256
370
-1
  6
ByLayer
 10
3.2299999999999418
 20
196.3420000000000698
 30
0.0
 11
5.9699999999999482
 21
196.3420000000000698
 31
0.0
  0
INSERT
  5
156
100
AcDbEntity
100
AcDbBlockReference
  8
1 bottom
 62
256
370
-1
  6
ByLayer
  2
holes-20
 10
-6.99999740481719
 20
220.7120000000000744
 30
0.0
 50
360.0
 44
1.0
 45
1.0
  0
CIRCLE
  5
157
100
AcDbEntity
100
AcDbCircle
  8
1 bottom
 62
256
370
-1
  6
ByLayer
 10
25.0399999999999636
 20
183.752000000000038
 30
0.0
 40
2.7000000000000002
  0
CIRCLE
  5
158
100
AcDbEntity
100
AcDbCircle
  8
1 bottom
 62
256
370
-1
  6
ByLayer
 10
10.0399999999999618
 20
168.752000000000038
 30
0.0
 40
2.7000000000000002
  0
CIRCLE
  5
159
100
AcDbEntity
100
AcDbCircle
  8
1 bottom
 62
256
370
-1
  6
ByLayer
 10
-4.9600000000000346
 20
183.752000000000038
 30
0.0
 40
2.7000000000000002
  0
INSERT
  5
15A
100
AcDbEntity
100
AcDbBlockReference
  8
1 bottom
 62
256
370
-1
  6
ByLayer
  2
holes-20
 10
-6.9999974048172078
 20
128.7882000000001028
 30
0.0
 50
360.0
 44
1.0
 45
1.0
  0
INSERT
  5
15B
100
AcDbEntity
100
AcDbBlockReference
  8
1 bottom
 62
256
370
-1
  6
ByLayer
  2
holes-20
 10
26.9999999999999964
 20
220.7120000000000744
 30
0.0
 50
360.0
 44
1.0
 45
1.0
  0
INSERT
  5
15C
100
AcDbEntity
100
AcDbBlockReference
  8
1 bottom
 62
256
370
-1
  6
ByLayer
  2
holes-20
 10
26.9999999999999538
 20
128.7882000000001028
 30
0.0
 50
360.0
 44
1.0
 45
1.0
  0
LINE
  5
15D
100
AcDbEntity
100
AcDbLine
  8
1 bottom
 62
256
370
-1
  6
ByLayer
 10
41.9999999999999289
 20
121.2879999999999256
 30
0.0
 11
-22.0000000000000426
 21
121.2880000000000251
 31
0.0
  0
LINE
  5
15E
100
AcDbEntity
100
AcDbLine
  8
1 bottom
 62
256
370
-1
  6
ByLayer
 10
-21.9999999999999112
 20
238.7120000000000744
 30
0.0
 11
42.0
 21
238.7120000000000459
 31
0.0
  0
LINE
  5
15F
100
AcDbEntity
100
AcDbLine
  8
1 bottom
 62
256
370
-1
  6
ByLayer
 10
42.0
 20
238.7120000000000459
 30
0.0
 11
41.9999999999999289
 21
121.2879999999999256
 31
0.0
  0
LINE
  5
160
100
AcDbEntity
100
AcDbLine
  8
1 bottom
 62
256
370
-1
  6
ByLayer
 10
-22.0000000000000284
 20
121.2880000000000393
 30
0.0
 11
-21.9999999999999112
 21
238.7120000000000744
 31
0.0
  0
CIRCLE
  5
161
100
AcDbEntity
100
AcDbCircle
  8
1 bottom
 62
256
370
-1
  6
ByLayer
 10
-5.0000000000000018
 20
234.7118000000000109
 30
0.0
 40
1.5600000000000307
  0
CIRCLE
  5
162
100
AcDbEntity
100
AcDbCircle
  8
1 bottom
 62
256
370
-1
  6
ByLayer
 10
24.9999999999999964
 20
234.7118000000000109
 30
0.0
 40
1.5600000000000307
  0
CIRCLE
  5
163
100
AcDbEntity
100
AcDbCircle
  8
2 top
 62
256
370
-1
  6
ByLayer
 10
54.0381000000000213
 20
220.711900000000071
 30
0.0
 40
1.5
  0
LINE
  5
164
100
AcDbEntity
100
AcDbLine
  8
2 top
 62
256
370
-1
  6
ByLayer
 10
59.0381000000000071
 20
223.2119000000000426
 30
0.0
 11
59.0381000000000071
 21
218.2119000000000426
 31
0.0
  0
CIRCLE
  5
165
100
AcDbEntity
100
AcDbCircle
  8
2 top
 62
256
370
-1
  6
ByLayer
 10
145.9619000000000426
 20
220.7119000000000142
 30
0.0
 40
1.5
  0
LINE
  5
166
100
AcDbEntity
100
AcDbLine
  8
2 top
 62
256
370
-1
  6
ByLayer
 10
140.9619000000000426
 20
223.2119000000000142
 30
0.0
 11
140.9619000000000426
 21
218.2119000000000142
 31
0.0
  0
CIRCLE
  5
167
100
AcDbEntity
100
AcDbCircle
  8
2 top
 62
256
370
-1
  6
ByLayer
 10
54.0380999999999148
 20
128.7881000000001279
 30
0.0
 40
1.5
  0
CIRCLE
  5
168
100
AcDbEntity
100
AcDbCircle
  8
2 top
 62
256
370
-1
  6
ByLayer
 10
145.9618999999999858
 20
128.7881000000000427
 30
0.0
 40
1.5
  0
LINE
  5
169
100
AcDbEntity
100
AcDbLine
  8
2 top
 62
256
370
-1
  6
ByLayer
 10
150.0
 20
121.2880999999999574
 30
0.0
 11
49.9999999999999645
 21
121.2881000000000569
 31
0.0
  0
LINE
  5
16A
100
AcDbEntity
100
AcDbLine
  8
2 top
 62
256
370
-1
  6
ByLayer
 10
79.0381000000000142
 20
223.2119000000000426
 30
0.0
 11
59.0381000000000071
 21
223.2119000000000426
 31
0.0
  0
LINE
  5
16B
100
AcDbEntity
100
AcDbLine
  8
2 top
 62
256
370
-1
  6
ByLayer
 10
120.9619000000000426
 20
218.2119000000000426
 30
0.0
 11
140.9619000000000426
 21
218.2119000000000142
 31
0.0
  0
LINE
  5
16C
100
AcDbEntity
100
AcDbLine
  8
2 top
 62
256
370
-1
  6
ByLayer
 10
79.0381000000000142
 20
223.2119000000000426
 30
0.0
 11
79.0381
 21
218.2119000000000142
 31
0.0
  0
LINE
  5
16D
100
AcDbEntity
100
AcDbLine
  8
2 top
 62
256
370
-1
  6
ByLayer
 10
120.9619000000000426
 20
223.2119000000000426
 30
0.0
 11
120.9619000000000426
 21
218.2119000000000142
 31
0.0
  0
LINE
  5
16E
100
AcDbEntity
100
AcDbLine
  8
2 top
 62
256
370
-1
  6
ByLayer
 10
59.0381000000000071
 20
218.2119000000000426
 30
0.0
 11
79.0381
 21
218.2119000000000142
 31
0.0
  0
LINE
  5
16F
100
AcDbEntity
100
AcDbLine
  8
2 top
 62
256
370
-1
  6
ByLayer
 10
140.9619000000000426
 20
223.2119000000000142
 30
0.0
 11
120.9619000000000426
 21
223.2119000000000426
 31
0.0
  0
LINE
  5
170
100
AcDbEntity
100
AcDbLine
  8
2 top
 62
256
370
-1
  6
ByLayer
 10
120.9618999999999858
 20
131.2881000000000711
 30
0.0
 11
120.9618999999999716
 21
126.2881000000000711
 31
0.0
  0
LINE
  5
171
100
AcDbEntity
100
AcDbLine
  8
2 top
 62
256
370
-1
  6
ByLayer
 10
140.9618999999999573
 20
131.2881000000000427
 30
0.0
 11
120.9618999999999858
 21
131.2881000000000711
 31
0.0
  0
LINE
  5
172
100
AcDbEntity
100
AcDbLine
  8
2 top
 62
256
370
-1
  6
ByLayer
 10
140.9618999999999573
 20
131.2881000000000427
 30
0.0
 11
140.9618999999999573
 21
126.2881000000000427
 31
0.0
  0
LINE
  5
173
100
AcDbEntity
100
AcDbLine
  8
2 top
 62
256
370
-1
  6
ByLayer
 10
120.9618999999999716
 20
126.2881000000000711
 30
0.0
 11
140.9618999999999573
 21
126.2881000000000427
 31
0.0
  0
LINE
  5
174
100
AcDbEntity
100
AcDbLine
  8
2 top
 62
256
370
-1
  6
ByLayer
 10
59.0380999999998792
 20
131.2881000000001563
 30
0.0
 11
59.0380999999999148
 21
126.2881000000001279
 31
0.0
  0
LINE
  5
175
100
AcDbEntity
100
AcDbLine
  8
2 top
 62
256
370
-1
  6
ByLayer
 10
79.0380999999999005
 20
131.2881000000000995
 30
0.0
 11
59.0380999999998792
 21
131.2881000000001563
 31
0.0
  0
LINE
  5
176
100
AcDbEntity
100
AcDbLine
  8
2 top
 62
256
370
-1
  6
ByLayer
 10
79.0380999999999005
 20
131.2881000000000995
 30
0.0
 11
79.0380999999999005
 21
126.2881000000000711
 31
0.0
  0
LINE
  5
177
100
AcDbEntity
100
AcDbLine
  8
2 top
 62
256
370
-1
  6
ByLayer
 10
59.0380999999999148
 20
126.2881000000001279
 30
0.0
 11
79.0380999999999005
 21
126.2881000000000711
 31
0.0
  0
LINE
  5
178
100
AcDbEntity
100
AcDbLine
  8
2 top
 62
256
370
-1
  6
ByLayer
 10
49.9999999999999787
 20
238.711900000000071
 30
0.0
 11
149.9999999999999716
 21
238.7118999999999858
 31
0.0
  0
LINE
  5
179
100
AcDbEntity
100
AcDbLine
  8
2 top
 62
256
370
-1
  6
ByLayer
 10
49.9999999999999645
 20
121.2881000000000569
 30
0.0
 11
50.0000000000000213
 21
238.711900000000071
 31
0.0
  0
LINE
  5
17A
100
AcDbEntity
100
AcDbLine
  8
2 top
 62
256
370
-1
  6
ByLayer
 10
150.0000000000000284
 20
238.7118999999999858
 30
0.0
 11
150.0
 21
121.2880999999999574
 31
0.0
  0
CIRCLE
  5
17B
100
AcDbEntity
100
AcDbCircle
  8
2 top
 62
256
370
-1
  6
ByLayer
 10
84.9999999999999716
 20
234.7119000000000426
 30
0.0
 40
1.5600000000000307
  0
CIRCLE
  5
17C
100
AcDbEntity
100
AcDbCircle
  8
2 top
 62
256
370
-1
  6
ByLayer
 10
114.9999999999999858
 20
234.711900000000071
 30
0.0
 40
1.5600000000000307
  0
ENDSEC
  0
SECTION
  2
OBJECTS
  0
DICTIONARY
  5
C
100
AcDbDictionary
280
0
281
1
  3
ACAD_GROUP
350
D
  3
ACAD_LAYOUT
350
1A
  3
ACAD_MLINESTYLE
350
17
  3
ACAD_PLOTSETTINGS
350
19
  3
ACAD_PLOTSTYLENAME
350
E
  3
AcDbVariableDictionary
350
17D
  0
DICTIONARY
  5
D
100
AcDbDictionary
280
0
281
1
  0
ACDBDICTIONARYWDFLT
  5
E
100
AcDbDictionary
281
1
  3
Normal
350
F
100
AcDbDictionaryWithDefault
340
F
  0
ACDBPLACEHOLDER
  5
F
  0
DICTIONARY
  5
17
100
AcDbDictionary
280
0
281
1
  3
Standard
350
18
  0
MLINESTYLE
  5
18
100
AcDbMlineStyle
  2
STANDARD
 70
0
  3

 62
256
 51
90.0
 52
90.0
 71
2
 49
0.5
 62
256
  6
BYLAYER
 49
-0.5
 62
256
  6
BYLAYER
  0
DICTIONARY
  5
19
100
AcDbDictionary
280
0
281
1
  0
DICTIONARY
  5
1A
100
AcDbDictionary
281
1
  3
Layout1
350
1E
  3
Layout2
350
26
  3
Model
350
22
  0
LAYOUT
  5
1E
100
AcDbPlotSettings
  1

  2
C:\Program Files\AutoCAD 2002\plotters\DWF ePlot (optimized for plotting).pc3
  4

  6

 40
0.0
 41
0.0
 42
0.0
 43
0.0
 44
0.0
 45
0.0
 46
0.0
 47
0.0
 48
0.0
 49
0.0
140
0.0
141
0.0
142
1.0
143
1.0
 70
688
 72
0
 73
0
 74
5
  7

 75
16
147
1.0
148
0.0
149
0.0
100
AcDbLayout
  1
Layout1
 70
1
 71
1
 10
0.0
 20
0.0
 11
420.0
 21
297.0
 12
0.0
 22
0.0
 32
0.0
 14
100000000000000000000.0
 24
100000000000000000000.0
 34
100000000000000000000.0
 15
-100000000000000000000.0
 25
-100000000000000000000.0
 35
-100000000000000000000.0
146
0.0
 13
0.0
 23
0.0
 33
0.0
 16
1.0
 26
0.0
 36
0.0
 17
0.0
 27
1.0
 37
0.0
 76
0
330
1B
  0
LAYOUT
  5
22
100
AcDbPlotSettings
  1

  2
C:\Program Files\AutoCAD 2002\plotters\DWF ePlot (optimized for plotting).pc3
  4

  6

 40
0.0
 41
0.0
 42
0.0
 43
0.0
 44
0.0
 45
0.0
 46
0.0
 47
0.0
 48
0.0
 49
0.0
140
0.0
141
0.0
142
1.0
143
1.0
 70
1712
 72
0
 73
0
 74
0
  7

 75
0
147
1.0
148
0.0
149
0.0
100
AcDbLayout
  1
Model
 70
1
 71
0
 10
0.0
 20
0.0
 11
12.0
 21
9.0
 12
0.0
 22
0.0
 32
0.0
 14
0.0
 24
0.0
 34
0.0
 15
0.0
 25
0.0
 35
0.0
146
0.0
 13
0.0
 23
0.0
 33
0.0
 16
1.0
 26
0.0
 36
0.0
 17
0.0
 27
1.0
 37
0.0
 76
0
330
1F
  0
LAYOUT
  5
26
100
AcDbPlotSettings
  1

  2
C:\Program Files\AutoCAD 2002\plotters\DWF ePlot (optimized for plotting).pc3
  4

  6

 40
0.0
 41
0.0
 42
0.0
 43
0.0
 44
0.0
 45
0.0
 46
0.0
 47
0.0
 48
0.0
 49
0.0
140
0.0
141
0.0
142
1.0
143
1.0
 70
688
 72
0
 73
0
 74
5
  7

 75
16
147
1.0
148
0.0
149
0.0
100
AcDbLayout
  1
Layout2
 70
1
 71
2
 10
0.0
 20
0.0
 11
12.0
 21
9.0
 12
0.0
 22
0.0
 32
0.0
 14
0.0
 24
0.0
 34
0.0
 15
0.0
 25
0.0
 35
0.0
146
0.0
 13
0.0
 23
0.0
 33
0.0
 16
1.0
 26
0.0
 36
0.0
 17
0.0
 27
1.0
 37
0.0
 76
0
330
23
  0
DICTIONARY
  5
17D
100
AcDbDictionary
281
1
  3
DIMASSOC
350
17F
  3
HIDETEXT
350
17E
  0
DICTIONARYVAR
  5
17E
100
DictionaryVariables
280
0
  1
2
  0
DICTIONARYVAR
  5
17F
100
DictionaryVariables
280
0
  1
1
  0
ENDSEC
  0
EOF
