<?xml version="1.0" standalone="yes"?>

<svg width="307mm" height="289mm" viewBox="0 0 307 289" version="1.1"
xmlns="http://www.w3.org/2000/svg" style="stroke-linecap:round">
  <ellipse cx="73" cy="63.5698" rx="2.75" ry="2.75" style="stroke:rgb(0,0,0);stroke-width:0.1;fill:none;"/>
  <ellipse cx="52.9" cy="50.5698" rx="2.75" ry="2.75" style="stroke:rgb(0,0,0);stroke-width:0.1;fill:none;"/>
  <ellipse cx="93.1" cy="50.5698" rx="2.75" ry="2.75" style="stroke:rgb(0,0,0);stroke-width:0.1;fill:none;"/>
  <path d="M79.77,81.1998 L77.03,81.1998" style="stroke:rgb(0,0,0);stroke-width:0.1;fill:none" />
  <path d="M79.77,83.9398 L79.77,81.1998" style="stroke:rgb(0,0,0);stroke-width:0.1;fill:none" />
  <path d="M77.03,81.1998 L77.03,83.9398" style="stroke:rgb(0,0,0);stroke-width:0.1;fill:none" />
  <path d="M77.03,83.9398 L79.77,83.9398" style="stroke:rgb(0,0,0);stroke-width:0.1;fill:none" />
  <path d="M68.97,81.1998 L66.23,81.1998" style="stroke:rgb(0,0,0);stroke-width:0.1;fill:none" />
  <path d="M68.97,83.9398 L68.97,81.1998" style="stroke:rgb(0,0,0);stroke-width:0.1;fill:none" />
  <path d="M66.23,81.1998 L66.23,83.9398" style="stroke:rgb(0,0,0);stroke-width:0.1;fill:none" />
  <path d="M66.23,83.9398 L68.97,83.9398" style="stroke:rgb(0,0,0);stroke-width:0.1;fill:none" />
  <path d="M74.37,49.1998 L71.63,49.1998" style="stroke:rgb(0,0,0);stroke-width:0.1;fill:none" />
  <path d="M74.37,51.9398 L74.37,49.1998" style="stroke:rgb(0,0,0);stroke-width:0.1;fill:none" />
  <path d="M71.63,49.1998 L71.63,51.9398" style="stroke:rgb(0,0,0);stroke-width:0.1;fill:none" />
  <path d="M71.63,51.9398 L74.37,51.9398" style="stroke:rgb(0,0,0);stroke-width:0.1;fill:none" />
  <path d="M79.77,35.1998 L77.03,35.1998" style="stroke:rgb(0,0,0);stroke-width:0.1;fill:none" />
  <path d="M79.77,37.9398 L79.77,35.1998" style="stroke:rgb(0,0,0);stroke-width:0.1;fill:none" />
  <path d="M77.03,35.1998 L77.03,37.9398" style="stroke:rgb(0,0,0);stroke-width:0.1;fill:none" />
  <path d="M77.03,37.9398 L79.77,37.9398" style="stroke:rgb(0,0,0);stroke-width:0.1;fill:none" />
  <path d="M68.97,35.1998 L66.23,35.1998" style="stroke:rgb(0,0,0);stroke-width:0.1;fill:none" />
  <path d="M68.97,37.9398 L68.97,35.1998" style="stroke:rgb(0,0,0);stroke-width:0.1;fill:none" />
  <path d="M66.23,35.1998 L66.23,37.9398" style="stroke:rgb(0,0,0);stroke-width:0.1;fill:none" />
  <path d="M66.23,37.9398 L68.97,37.9398" style="stroke:rgb(0,0,0);stroke-width:0.1;fill:none" />
  <ellipse cx="56" cy="13.5698" rx="1.5" ry="1.5" style="stroke:rgb(0,0,0);stroke-width:0.25;fill:none;"/>
  <path d="M61,11.0698 L66,11.0698" style="stroke:rgb(0,0,0);stroke-width:0.25;fill:none" />
  <path d="M61,16.0698 L66,16.0698" style="stroke:rgb(0,0,0);stroke-width:0.25;fill:none" />
  <path d="M51,11.0698 L46,11.0698" style="stroke:rgb(0,0,0);stroke-width:0.25;fill:none" />
  <path d="M51,16.0698 L46,16.0698" style="stroke:rgb(0,0,0);stroke-width:0.25;fill:none" />
  <path d="M46,11.0698 L46,16.0698" style="stroke:rgb(0,0,0);stroke-width:0.25;fill:none" />
  <path d="M51,11.0698 L51,16.0698" style="stroke:rgb(0,0,0);stroke-width:0.25;fill:none" />
  <path d="M61,11.0698 L61,16.0698" style="stroke:rgb(0,0,0);stroke-width:0.25;fill:none" />
  <path d="M66,11.0698 L66,16.0698" style="stroke:rgb(0,0,0);stroke-width:0.25;fill:none" />
  <ellipse cx="88.04" cy="50.5298" rx="2.7" ry="2.7" style="stroke:rgb(0,0,0);stroke-width:0.1;fill:none;"/>
  <ellipse cx="73.04" cy="65.5298" rx="2.7" ry="2.7" style="stroke:rgb(0,0,0);stroke-width:0.1;fill:none;"/>
  <ellipse cx="58.04" cy="50.5298" rx="2.7" ry="2.7" style="stroke:rgb(0,0,0);stroke-width:0.1;fill:none;"/>
  <ellipse cx="56" cy="105.494" rx="1.5" ry="1.5" style="stroke:rgb(0,0,0);stroke-width:0.25;fill:none;"/>
  <path d="M61,102.994 L66,102.994" style="stroke:rgb(0,0,0);stroke-width:0.25;fill:none" />
  <path d="M61,107.994 L66,107.994" style="stroke:rgb(0,0,0);stroke-width:0.25;fill:none" />
  <path d="M51,102.994 L46,102.994" style="stroke:rgb(0,0,0);stroke-width:0.25;fill:none" />
  <path d="M51,107.994 L46,107.994" style="stroke:rgb(0,0,0);stroke-width:0.25;fill:none" />
  <path d="M46,102.994 L46,107.994" style="stroke:rgb(0,0,0);stroke-width:0.25;fill:none" />
  <path d="M51,102.994 L51,107.994" style="stroke:rgb(0,0,0);stroke-width:0.25;fill:none" />
  <path d="M61,102.994 L61,107.994" style="stroke:rgb(0,0,0);stroke-width:0.25;fill:none" />
  <path d="M66,102.994 L66,107.994" style="stroke:rgb(0,0,0);stroke-width:0.25;fill:none" />
  <ellipse cx="90" cy="13.5698" rx="1.5" ry="1.5" style="stroke:rgb(0,0,0);stroke-width:0.25;fill:none;"/>
  <path d="M95,11.0698 L100,11.0698" style="stroke:rgb(0,0,0);stroke-width:0.25;fill:none" />
  <path d="M95,16.0698 L100,16.0698" style="stroke:rgb(0,0,0);stroke-width:0.25;fill:none" />
  <path d="M85,11.0698 L80,11.0698" style="stroke:rgb(0,0,0);stroke-width:0.25;fill:none" />
  <path d="M85,16.0698 L80,16.0698" style="stroke:rgb(0,0,0);stroke-width:0.25;fill:none" />
  <path d="M80,11.0698 L80,16.0698" style="stroke:rgb(0,0,0);stroke-width:0.25;fill:none" />
  <path d="M85,11.0698 L85,16.0698" style="stroke:rgb(0,0,0);stroke-width:0.25;fill:none" />
  <path d="M95,11.0698 L95,16.0698" style="stroke:rgb(0,0,0);stroke-width:0.25;fill:none" />
  <path d="M100,11.0698 L100,16.0698" style="stroke:rgb(0,0,0);stroke-width:0.25;fill:none" />
  <ellipse cx="90" cy="105.494" rx="1.5" ry="1.5" style="stroke:rgb(0,0,0);stroke-width:0.25;fill:none;"/>
  <path d="M95,102.994 L100,102.994" style="stroke:rgb(0,0,0);stroke-width:0.25;fill:none" />
  <path d="M95,107.994 L100,107.994" style="stroke:rgb(0,0,0);stroke-width:0.25;fill:none" />
  <path d="M85,102.994 L80,102.994" style="stroke:rgb(0,0,0);stroke-width:0.25;fill:none" />
  <path d="M85,107.994 L80,107.994" style="stroke:rgb(0,0,0);stroke-width:0.25;fill:none" />
  <path d="M80,102.994 L80,107.994" style="stroke:rgb(0,0,0);stroke-width:0.25;fill:none" />
  <path d="M85,102.994 L85,107.994" style="stroke:rgb(0,0,0);stroke-width:0.25;fill:none" />
  <path d="M95,102.994 L95,107.994" style="stroke:rgb(0,0,0);stroke-width:0.25;fill:none" />
  <path d="M100,102.994 L100,107.994" style="stroke:rgb(0,0,0);stroke-width:0.25;fill:none" />
  <path d="M105,109.532 L41,109.532" style="stroke:rgb(0,0,0);stroke-width:0.1;fill:none" />
  <path d="M41,109.532 L41,9.5319" style="stroke:rgb(0,0,0);stroke-width:0.1;fill:none" />
  <path d="M105,9.5319 L105,109.532" style="stroke:rgb(0,0,0);stroke-width:0.1;fill:none" />
  <path d="M65,9.5319 L105,9.5319" style="stroke:rgb(0,0,0);stroke-width:0.1;fill:none" />
  <path d="M65,4.4681 A2,2 0 0,0 63,2.4681 " style="stroke:rgb(0,0,0);stroke-width:0.1;fill:none" />
  <path d="M65,4.4681 L65,9.5319" style="stroke:rgb(0,0,0);stroke-width:0.1;fill:none" />
  <path d="M54.0381,2.4681 A2,2 0 0,0 52.0381,4.4681 " style="stroke:rgb(0,0,0);stroke-width:0.1;fill:none" />
  <path d="M52.0381,9.5319 L52.0381,4.4681" style="stroke:rgb(0,0,0);stroke-width:0.1;fill:none" />
  <path d="M41,9.5319 L52.0381,9.5319" style="stroke:rgb(0,0,0);stroke-width:0.1;fill:none" />
  <path d="M54.0381,2.4681 L63,2.4681" style="stroke:rgb(0,0,0);stroke-width:0.1;fill:none" />
  <ellipse cx="58.5191" cy="5.93" rx="1.56" ry="1.56" style="stroke:rgb(0,0,0);stroke-width:0.1;fill:none;"/>
  <ellipse cx="58.5191" cy="5.93" rx="1.56" ry="1.56" style="stroke:rgb(0,0,0);stroke-width:0.1;fill:none;"/>
  <ellipse cx="117.038" cy="13.57" rx="1.5" ry="1.5" style="stroke:rgb(0,0,0);stroke-width:0.1;fill:none;"/>
  <path d="M122.038,11.07 L122.038,16.07" style="stroke:rgb(0,0,0);stroke-width:0.1;fill:none" />
  <ellipse cx="208.962" cy="13.57" rx="1.5" ry="1.5" style="stroke:rgb(0,0,0);stroke-width:0.1;fill:none;"/>
  <ellipse cx="117.038" cy="105.494" rx="1.5" ry="1.5" style="stroke:rgb(0,0,0);stroke-width:0.1;fill:none;"/>
  <ellipse cx="208.962" cy="105.494" rx="1.5" ry="1.5" style="stroke:rgb(0,0,0);stroke-width:0.1;fill:none;"/>
  <path d="M142.038,11.07 L122.038,11.07" style="stroke:rgb(0,0,0);stroke-width:0.1;fill:none" />
  <path d="M142.038,11.07 L142.038,16.07" style="stroke:rgb(0,0,0);stroke-width:0.1;fill:none" />
  <path d="M122.038,16.07 L142.038,16.07" style="stroke:rgb(0,0,0);stroke-width:0.1;fill:none" />
  <path d="M122.038,102.994 L122.038,107.994" style="stroke:rgb(0,0,0);stroke-width:0.1;fill:none" />
  <path d="M142.038,102.994 L122.038,102.994" style="stroke:rgb(0,0,0);stroke-width:0.1;fill:none" />
  <path d="M142.038,102.994 L142.038,107.994" style="stroke:rgb(0,0,0);stroke-width:0.1;fill:none" />
  <path d="M122.038,107.994 L142.038,107.994" style="stroke:rgb(0,0,0);stroke-width:0.1;fill:none" />
  <path d="M213,109.532 L113,109.532" style="stroke:rgb(0,0,0);stroke-width:0.1;fill:none" />
  <path d="M113,109.532 L113,9.5319" style="stroke:rgb(0,0,0);stroke-width:0.1;fill:none" />
  <path d="M213,9.5319 L213,109.532" style="stroke:rgb(0,0,0);stroke-width:0.1;fill:none" />
  <path d="M155,11.07 L155,16.07" style="stroke:rgb(0,0,0);stroke-width:0.1;fill:none" />
  <path d="M155,102.994 L155,107.994" style="stroke:rgb(0,0,0);stroke-width:0.1;fill:none" />
  <ellipse cx="163" cy="63.57" rx="1.5" ry="1.5" style="stroke:rgb(0,0,0);stroke-width:0.1;fill:none;"/>
  <path d="M204,9.5319 L204,18.5319" style="stroke:rgb(0,0,0);stroke-width:0.1;fill:none" />
  <path d="M204,18.5319 L175,18.5319" style="stroke:rgb(0,0,0);stroke-width:0.1;fill:none" />
  <path d="M175,18.5319 L175,9.5319" style="stroke:rgb(0,0,0);stroke-width:0.1;fill:none" />
  <path d="M204,9.5319 L213,9.5319" style="stroke:rgb(0,0,0);stroke-width:0.1;fill:none" />
  <path d="M155,9.5319 L175,9.5319" style="stroke:rgb(0,0,0);stroke-width:0.1;fill:none" />
  <path d="M165,11.07 L165,16.07" style="stroke:rgb(0,0,0);stroke-width:0.1;fill:none" />
  <path d="M165,102.994 L165,107.994" style="stroke:rgb(0,0,0);stroke-width:0.1;fill:none" />
  <path d="M155,16.07 L165,16.07" style="stroke:rgb(0,0,0);stroke-width:0.1;fill:none" />
  <path d="M165,11.07 L155,11.07" style="stroke:rgb(0,0,0);stroke-width:0.1;fill:none" />
  <path d="M165,102.994 L155,102.994" style="stroke:rgb(0,0,0);stroke-width:0.1;fill:none" />
  <path d="M155,107.994 L165,107.994" style="stroke:rgb(0,0,0);stroke-width:0.1;fill:none" />
  <path d="M155,4.4681 A2,2 0 0,0 153,2.4681 " style="stroke:rgb(0,0,0);stroke-width:0.1;fill:none" />
  <path d="M155,4.4681 L155,9.5319" style="stroke:rgb(0,0,0);stroke-width:0.1;fill:none" />
  <path d="M144.038,2.4681 A2,2 0 0,0 142.038,4.4681 " style="stroke:rgb(0,0,0);stroke-width:0.1;fill:none" />
  <path d="M142.038,9.5319 L142.038,4.4681" style="stroke:rgb(0,0,0);stroke-width:0.1;fill:none" />
  <path d="M144.038,2.4681 L153,2.4681" style="stroke:rgb(0,0,0);stroke-width:0.1;fill:none" />
  <path d="M113,9.5319 L142.038,9.5319" style="stroke:rgb(0,0,0);stroke-width:0.1;fill:none" />
  <ellipse cx="148.519" cy="5.93" rx="2.4" ry="2.4" style="stroke:rgb(0,0,0);stroke-width:0.1;fill:none;"/>
  <path d="M71.6381,123.5 L71.6381,119" style="stroke:rgb(0,0,0);stroke-width:0.1;fill:none" />
  <path d="M72.1381,118.5 A0.5,0.5 0 0,0 71.6381,119 " style="stroke:rgb(0,0,0);stroke-width:0.1;fill:none" />
  <path d="M91.6381,119 A0.5,0.5 0 0,0 91.1381,118.5 " style="stroke:rgb(0,0,0);stroke-width:0.1;fill:none" />
  <path d="M105.1,118.5 A0.5,0.5 0 0,0 104.6,119 " style="stroke:rgb(0,0,0);stroke-width:0.1;fill:none" />
  <path d="M62.6,123.5 L64.6381,123.5" style="stroke:rgb(0,0,0);stroke-width:0.1;fill:none" />
  <path d="M68.6381,123.5 L71.6381,123.5" style="stroke:rgb(0,0,0);stroke-width:0.1;fill:none" />
  <path d="M65.1381,124 A0.5,0.5 0 0,0 64.6381,123.5 " style="stroke:rgb(0,0,0);stroke-width:0.1;fill:none" />
  <path d="M68.6381,123.5 A0.5,0.5 0 0,0 68.1381,124 " style="stroke:rgb(0,0,0);stroke-width:0.1;fill:none" />
  <path d="M157.062,124 A0.5,0.5 0 0,0 156.562,123.5 " style="stroke:rgb(0,0,0);stroke-width:0.1;fill:none" />
  <path d="M160.562,123.5 A0.5,0.5 0 0,0 160.062,124 " style="stroke:rgb(0,0,0);stroke-width:0.1;fill:none" />
  <path d="M72.1381,118.5 L91.1381,118.5" style="stroke:rgb(0,0,0);stroke-width:0.1;fill:none" />
  <path d="M65.1381,128.103 L68.1381,128.103" style="stroke:rgb(0,0,0);stroke-width:0.1;fill:none" />
  <path d="M63.7781,124.933 L63.7781,127.103" style="stroke:rgb(0,0,0);stroke-width:0.1;fill:none" />
  <path d="M69.4981,127.103 L69.4981,124.933" style="stroke:rgb(0,0,0);stroke-width:0.1;fill:none" />
  <path d="M65.1381,124.933 L63.7781,124.933" style="stroke:rgb(0,0,0);stroke-width:0.1;fill:none" />
  <path d="M69.4981,124.933 L68.1381,124.933" style="stroke:rgb(0,0,0);stroke-width:0.1;fill:none" />
  <path d="M68.1381,128.103 L68.1381,127.103" style="stroke:rgb(0,0,0);stroke-width:0.1;fill:none" />
  <path d="M68.1381,127.103 L69.4981,127.103" style="stroke:rgb(0,0,0);stroke-width:0.1;fill:none" />
  <path d="M63.7781,127.103 L65.1381,127.103" style="stroke:rgb(0,0,0);stroke-width:0.1;fill:none" />
  <path d="M65.1381,127.103 L65.1381,128.103" style="stroke:rgb(0,0,0);stroke-width:0.1;fill:none" />
  <path d="M157.062,128.103 L160.062,128.103" style="stroke:rgb(0,0,0);stroke-width:0.1;fill:none" />
  <path d="M155.702,124.933 L155.702,127.103" style="stroke:rgb(0,0,0);stroke-width:0.1;fill:none" />
  <path d="M161.422,127.103 L161.422,124.933" style="stroke:rgb(0,0,0);stroke-width:0.1;fill:none" />
  <path d="M157.062,124.933 L155.702,124.933" style="stroke:rgb(0,0,0);stroke-width:0.1;fill:none" />
  <path d="M161.422,124.933 L160.062,124.933" style="stroke:rgb(0,0,0);stroke-width:0.1;fill:none" />
  <path d="M160.062,128.103 L160.062,127.103" style="stroke:rgb(0,0,0);stroke-width:0.1;fill:none" />
  <path d="M160.062,127.103 L161.422,127.103" style="stroke:rgb(0,0,0);stroke-width:0.1;fill:none" />
  <path d="M155.702,127.103 L157.062,127.103" style="stroke:rgb(0,0,0);stroke-width:0.1;fill:none" />
  <path d="M157.062,127.103 L157.062,128.103" style="stroke:rgb(0,0,0);stroke-width:0.1;fill:none" />
  <path d="M65.1381,124 L65.1381,124.933" style="stroke:rgb(0,0,0);stroke-width:0.1;fill:none" />
  <path d="M68.1381,124.933 L68.1381,124" style="stroke:rgb(0,0,0);stroke-width:0.1;fill:none" />
  <path d="M157.062,124 L157.062,124.933" style="stroke:rgb(0,0,0);stroke-width:0.1;fill:none" />
  <path d="M160.062,124.933 L160.062,124" style="stroke:rgb(0,0,0);stroke-width:0.1;fill:none" />
  <path d="M114.6,123.5 L114.6,119" style="stroke:rgb(0,0,0);stroke-width:0.1;fill:none" />
  <path d="M114.6,119 A0.5,0.5 0 0,0 114.1,118.5 " style="stroke:rgb(0,0,0);stroke-width:0.1;fill:none" />
  <path d="M114.1,118.5 L105.1,118.5" style="stroke:rgb(0,0,0);stroke-width:0.1;fill:none" />
  <path d="M156.562,123.5 L114.6,123.5" style="stroke:rgb(0,0,0);stroke-width:0.1;fill:none" />
  <path d="M91.6381,119 L91.6381,128.5" style="stroke:rgb(0,0,0);stroke-width:0.1;fill:none" />
  <path d="M91.6381,128.5 L104.6,128.5" style="stroke:rgb(0,0,0);stroke-width:0.1;fill:none" />
  <path d="M104.6,119 L104.6,128.5" style="stroke:rgb(0,0,0);stroke-width:0.1;fill:none" />
  <path d="M160.562,123.5 L162.6,123.5" style="stroke:rgb(0,0,0);stroke-width:0.1;fill:none" />
  <path d="M162.6,117.001 L162.6,123.501" style="stroke:rgb(0,0,0);stroke-width:0.1;fill:none" />
  <path d="M173.2,117.001 A1,1 0 0,0 172.2,116.001 " style="stroke:rgb(0,0,0);stroke-width:0.1;fill:none" />
  <path d="M173.2,117.001 L178.6,133.75" style="stroke:rgb(0,0,0);stroke-width:0.1;fill:none" />
  <path d="M62.6,117 A1,1 0 0,0 61.6,116 " style="stroke:rgb(0,0,0);stroke-width:0.1;fill:none" />
  <path d="M62.6,117 L62.6,123.5" style="stroke:rgb(0,0,0);stroke-width:0.1;fill:none" />
  <path d="M53,116 A1,1 0 0,0 52,117 " style="stroke:rgb(0,0,0);stroke-width:0.1;fill:none" />
  <path d="M170.6,143.875 A8,8 0 0,0 178.6,135.875 " style="stroke:rgb(0,0,0);stroke-width:0.1;fill:none" />
  <path d="M46.6,135.874 A8,8 0 0,0 54.6,143.874 " style="stroke:rgb(0,0,0);stroke-width:0.1;fill:none" />
  <path d="M46.6,133.749 L46.6,135.874" style="stroke:rgb(0,0,0);stroke-width:0.1;fill:none" />
  <path d="M178.6,133.75 L178.6,135.875" style="stroke:rgb(0,0,0);stroke-width:0.1;fill:none" />
  <path d="M57.3,123.005 A2.156,2.156 0 0,0 58.8618,119.362 " style="stroke:rgb(0,0,0);stroke-width:0.1;fill:none" />
  <path d="M55.7382,119.362 A2.156,2.156 0 0,0 57.3,123.005 " style="stroke:rgb(0,0,0);stroke-width:0.1;fill:none" />
  <path d="M55.7382,117 A1,1 0 0,0 54.7382,116 " style="stroke:rgb(0,0,0);stroke-width:0.1;fill:none" />
  <path d="M53,116 L54.7382,116" style="stroke:rgb(0,0,0);stroke-width:0.1;fill:none" />
  <path d="M59.8618,116 A1,1 0 0,0 58.8618,117 " style="stroke:rgb(0,0,0);stroke-width:0.1;fill:none" />
  <path d="M61.6,116 L59.8618,116" style="stroke:rgb(0,0,0);stroke-width:0.1;fill:none" />
  <path d="M58.8618,117 L58.8618,119.362" style="stroke:rgb(0,0,0);stroke-width:0.1;fill:none" />
  <path d="M55.7382,117 L55.7382,119.362" style="stroke:rgb(0,0,0);stroke-width:0.1;fill:none" />
  <ellipse cx="53.6" cy="129.75" rx="1" ry="1" style="stroke:rgb(0,0,0);stroke-width:0.1;fill:none;"/>
  <path d="M56.3563,122.791 L53.9682,128.82" style="stroke:rgb(0,0,0);stroke-width:0.1;fill:none" />
  <path d="M166.338,119.364 A2.156,2.156 0 0,0 167.9,123.006 " style="stroke:rgb(0,0,0);stroke-width:0.1;fill:none" />
  <path d="M167.9,123.006 A2.156,2.156 0 0,0 169.462,119.364 " style="stroke:rgb(0,0,0);stroke-width:0.1;fill:none" />
  <path d="M170.462,116.001 A1,1 0 0,0 169.462,117.001 " style="stroke:rgb(0,0,0);stroke-width:0.1;fill:none" />
  <path d="M172.2,116.001 L170.462,116.001" style="stroke:rgb(0,0,0);stroke-width:0.1;fill:none" />
  <path d="M166.338,117.001 A1,1 0 0,0 165.338,116.001 " style="stroke:rgb(0,0,0);stroke-width:0.1;fill:none" />
  <path d="M163.6,116.001 L165.338,116.001" style="stroke:rgb(0,0,0);stroke-width:0.1;fill:none" />
  <path d="M166.338,117.001 L166.338,119.364" style="stroke:rgb(0,0,0);stroke-width:0.1;fill:none" />
  <path d="M169.462,117.001 L169.462,119.364" style="stroke:rgb(0,0,0);stroke-width:0.1;fill:none" />
  <ellipse cx="171.6" cy="129.751" rx="1" ry="1" style="stroke:rgb(0,0,0);stroke-width:0.1;fill:none;"/>
  <path d="M168.844,122.792 L171.232,128.822" style="stroke:rgb(0,0,0);stroke-width:0.1;fill:none" />
  <path d="M163.6,116.001 A1,1 0 0,0 162.6,117.001 " style="stroke:rgb(0,0,0);stroke-width:0.1;fill:none" />
  <path d="M80.6,138.875 L80.6,143.875" style="stroke:rgb(0,0,0);stroke-width:0.1;fill:none" />
  <path d="M80.6,138.875 L85.6,138.875" style="stroke:rgb(0,0,0);stroke-width:0.1;fill:none" />
  <path d="M105.6,138.875 L119.6,138.875" style="stroke:rgb(0,0,0);stroke-width:0.1;fill:none" />
  <path d="M144.6,138.875 L144.6,143.875" style="stroke:rgb(0,0,0);stroke-width:0.1;fill:none" />
  <path d="M139.6,138.875 L144.6,138.875" style="stroke:rgb(0,0,0);stroke-width:0.1;fill:none" />
  <path d="M144.6,143.875 L170.6,143.875" style="stroke:rgb(0,0,0);stroke-width:0.1;fill:none" />
  <path d="M54.6,143.874 L80.6,143.875" style="stroke:rgb(0,0,0);stroke-width:0.1;fill:none" />
  <path d="M94.1,131.772 L97.1,131.772" style="stroke:rgb(0,0,0);stroke-width:0.1;fill:none" />
  <path d="M92.74,134.942 L92.74,132.772" style="stroke:rgb(0,0,0);stroke-width:0.1;fill:none" />
  <path d="M98.46,132.772 L98.46,134.942" style="stroke:rgb(0,0,0);stroke-width:0.1;fill:none" />
  <path d="M94.1,134.942 L92.74,134.942" style="stroke:rgb(0,0,0);stroke-width:0.1;fill:none" />
  <path d="M98.46,134.942 L97.1,134.942" style="stroke:rgb(0,0,0);stroke-width:0.1;fill:none" />
  <path d="M97.1,131.772 L97.1,132.772" style="stroke:rgb(0,0,0);stroke-width:0.1;fill:none" />
  <path d="M97.1,132.772 L98.46,132.772" style="stroke:rgb(0,0,0);stroke-width:0.1;fill:none" />
  <path d="M92.74,132.772 L94.1,132.772" style="stroke:rgb(0,0,0);stroke-width:0.1;fill:none" />
  <path d="M94.1,132.772 L94.1,131.772" style="stroke:rgb(0,0,0);stroke-width:0.1;fill:none" />
  <path d="M94.1,138.375 L94.1,134.942" style="stroke:rgb(0,0,0);stroke-width:0.1;fill:none" />
  <path d="M97.1,134.942 L97.1,138.375" style="stroke:rgb(0,0,0);stroke-width:0.1;fill:none" />
  <path d="M85.6,143.375 L85.6,138.875" style="stroke:rgb(0,0,0);stroke-width:0.1;fill:none" />
  <path d="M85.6,143.375 A0.5,0.5 0 0,0 86.1,143.875 " style="stroke:rgb(0,0,0);stroke-width:0.1;fill:none" />
  <path d="M90.1,143.875 L86.1,143.875" style="stroke:rgb(0,0,0);stroke-width:0.1;fill:none" />
  <path d="M90.6,138.875 L90.6,143.375" style="stroke:rgb(0,0,0);stroke-width:0.1;fill:none" />
  <path d="M90.1,143.875 A0.5,0.5 0 0,0 90.6,143.375 " style="stroke:rgb(0,0,0);stroke-width:0.1;fill:none" />
  <path d="M93.6,138.875 L90.6,138.875" style="stroke:rgb(0,0,0);stroke-width:0.1;fill:none" />
  <path d="M93.6,138.875 A0.5,0.5 0 0,0 94.1,138.375 " style="stroke:rgb(0,0,0);stroke-width:0.1;fill:none" />
  <path d="M97.6,138.875 L100.6,138.875" style="stroke:rgb(0,0,0);stroke-width:0.1;fill:none" />
  <path d="M97.1,138.375 A0.5,0.5 0 0,0 97.6,138.875 " style="stroke:rgb(0,0,0);stroke-width:0.1;fill:none" />
  <path d="M100.6,138.875 L100.6,143.375" style="stroke:rgb(0,0,0);stroke-width:0.1;fill:none" />
  <path d="M100.6,143.375 A0.5,0.5 0 0,0 101.1,143.875 " style="stroke:rgb(0,0,0);stroke-width:0.1;fill:none" />
  <path d="M101.1,143.875 L105.1,143.875" style="stroke:rgb(0,0,0);stroke-width:0.1;fill:none" />
  <path d="M105.6,143.375 L105.6,138.875" style="stroke:rgb(0,0,0);stroke-width:0.1;fill:none" />
  <path d="M105.1,143.875 A0.5,0.5 0 0,0 105.6,143.375 " style="stroke:rgb(0,0,0);stroke-width:0.1;fill:none" />
  <path d="M128.1,131.772 L131.1,131.772" style="stroke:rgb(0,0,0);stroke-width:0.1;fill:none" />
  <path d="M126.74,134.942 L126.74,132.772" style="stroke:rgb(0,0,0);stroke-width:0.1;fill:none" />
  <path d="M132.46,132.772 L132.46,134.942" style="stroke:rgb(0,0,0);stroke-width:0.1;fill:none" />
  <path d="M128.1,134.942 L126.74,134.942" style="stroke:rgb(0,0,0);stroke-width:0.1;fill:none" />
  <path d="M132.46,134.942 L131.1,134.942" style="stroke:rgb(0,0,0);stroke-width:0.1;fill:none" />
  <path d="M131.1,131.772 L131.1,132.772" style="stroke:rgb(0,0,0);stroke-width:0.1;fill:none" />
  <path d="M131.1,132.772 L132.46,132.772" style="stroke:rgb(0,0,0);stroke-width:0.1;fill:none" />
  <path d="M126.74,132.772 L128.1,132.772" style="stroke:rgb(0,0,0);stroke-width:0.1;fill:none" />
  <path d="M128.1,132.772 L128.1,131.772" style="stroke:rgb(0,0,0);stroke-width:0.1;fill:none" />
  <path d="M128.1,138.375 L128.1,134.942" style="stroke:rgb(0,0,0);stroke-width:0.1;fill:none" />
  <path d="M131.1,134.942 L131.1,138.375" style="stroke:rgb(0,0,0);stroke-width:0.1;fill:none" />
  <path d="M127.6,138.875 L124.6,138.875" style="stroke:rgb(0,0,0);stroke-width:0.1;fill:none" />
  <path d="M127.6,138.875 A0.5,0.5 0 0,0 128.1,138.375 " style="stroke:rgb(0,0,0);stroke-width:0.1;fill:none" />
  <path d="M131.6,138.875 L134.6,138.875" style="stroke:rgb(0,0,0);stroke-width:0.1;fill:none" />
  <path d="M131.1,138.375 A0.5,0.5 0 0,0 131.6,138.875 " style="stroke:rgb(0,0,0);stroke-width:0.1;fill:none" />
  <path d="M119.6,143.375 L119.6,138.875" style="stroke:rgb(0,0,0);stroke-width:0.1;fill:none" />
  <path d="M119.6,143.375 A0.5,0.5 0 0,0 120.1,143.875 " style="stroke:rgb(0,0,0);stroke-width:0.1;fill:none" />
  <path d="M124.1,143.875 L120.1,143.875" style="stroke:rgb(0,0,0);stroke-width:0.1;fill:none" />
  <path d="M124.6,138.875 L124.6,143.375" style="stroke:rgb(0,0,0);stroke-width:0.1;fill:none" />
  <path d="M124.1,143.875 A0.5,0.5 0 0,0 124.6,143.375 " style="stroke:rgb(0,0,0);stroke-width:0.1;fill:none" />
  <path d="M127.6,138.875 L124.6,138.875" style="stroke:rgb(0,0,0);stroke-width:0.1;fill:none" />
  <path d="M127.6,138.875 A0.5,0.5 0 0,0 128.1,138.375 " style="stroke:rgb(0,0,0);stroke-width:0.1;fill:none" />
  <path d="M131.6,138.875 L134.6,138.875" style="stroke:rgb(0,0,0);stroke-width:0.1;fill:none" />
  <path d="M131.1,138.375 A0.5,0.5 0 0,0 131.6,138.875 " style="stroke:rgb(0,0,0);stroke-width:0.1;fill:none" />
  <path d="M134.6,138.875 L134.6,143.375" style="stroke:rgb(0,0,0);stroke-width:0.1;fill:none" />
  <path d="M134.6,143.375 A0.5,0.5 0 0,0 135.1,143.875 " style="stroke:rgb(0,0,0);stroke-width:0.1;fill:none" />
  <path d="M135.1,143.875 L139.1,143.875" style="stroke:rgb(0,0,0);stroke-width:0.1;fill:none" />
  <path d="M139.6,143.375 L139.6,138.875" style="stroke:rgb(0,0,0);stroke-width:0.1;fill:none" />
  <path d="M139.1,143.875 A0.5,0.5 0 0,0 139.6,143.375 " style="stroke:rgb(0,0,0);stroke-width:0.1;fill:none" />
  <path d="M50.1063,122.874 A1.5,1.5 0 1,0 50.9497,120.258 " style="stroke:rgb(0,0,0);stroke-width:0.1;fill:none" />
  <path d="M50.1063,122.874 L46.6,133.749" style="stroke:rgb(0,0,0);stroke-width:0.1;fill:none" />
  <path d="M52,117 L50.9497,120.258" style="stroke:rgb(0,0,0);stroke-width:0.1;fill:none" />
  <path d="M230.499,114.824 L225.999,114.824" style="stroke:rgb(0,0,0);stroke-width:0.1;fill:none" />
  <path d="M225.499,114.324 A0.5,0.5 0 0,0 225.999,114.824 " style="stroke:rgb(0,0,0);stroke-width:0.1;fill:none" />
  <path d="M225.999,94.8237 A0.5,0.5 0 0,0 225.499,95.3237 " style="stroke:rgb(0,0,0);stroke-width:0.1;fill:none" />
  <path d="M225.499,81.3618 A0.5,0.5 0 0,0 225.999,81.8618 " style="stroke:rgb(0,0,0);stroke-width:0.1;fill:none" />
  <path d="M230.499,123.862 L230.499,121.824" style="stroke:rgb(0,0,0);stroke-width:0.1;fill:none" />
  <path d="M230.499,117.824 L230.499,114.824" style="stroke:rgb(0,0,0);stroke-width:0.1;fill:none" />
  <path d="M230.999,121.324 A0.5,0.5 0 0,0 230.499,121.824 " style="stroke:rgb(0,0,0);stroke-width:0.1;fill:none" />
  <path d="M230.499,117.824 A0.5,0.5 0 0,0 230.999,118.324 " style="stroke:rgb(0,0,0);stroke-width:0.1;fill:none" />
  <path d="M230.999,29.3999 A0.5,0.5 0 0,0 230.499,29.8999 " style="stroke:rgb(0,0,0);stroke-width:0.1;fill:none" />
  <path d="M230.499,25.8999 A0.5,0.5 0 0,0 230.999,26.3999 " style="stroke:rgb(0,0,0);stroke-width:0.1;fill:none" />
  <path d="M225.499,114.324 L225.499,95.3237" style="stroke:rgb(0,0,0);stroke-width:0.1;fill:none" />
  <path d="M235.102,121.324 L235.102,118.324" style="stroke:rgb(0,0,0);stroke-width:0.1;fill:none" />
  <path d="M231.932,122.684 L234.102,122.684" style="stroke:rgb(0,0,0);stroke-width:0.1;fill:none" />
  <path d="M234.102,116.964 L231.932,116.964" style="stroke:rgb(0,0,0);stroke-width:0.1;fill:none" />
  <path d="M231.932,121.324 L231.932,122.684" style="stroke:rgb(0,0,0);stroke-width:0.1;fill:none" />
  <path d="M231.932,116.964 L231.932,118.324" style="stroke:rgb(0,0,0);stroke-width:0.1;fill:none" />
  <path d="M235.102,118.324 L234.102,118.324" style="stroke:rgb(0,0,0);stroke-width:0.1;fill:none" />
  <path d="M234.102,118.324 L234.102,116.964" style="stroke:rgb(0,0,0);stroke-width:0.1;fill:none" />
  <path d="M234.102,122.684 L234.102,121.324" style="stroke:rgb(0,0,0);stroke-width:0.1;fill:none" />
  <path d="M234.102,121.324 L235.102,121.324" style="stroke:rgb(0,0,0);stroke-width:0.1;fill:none" />
  <path d="M235.102,29.3999 L235.102,26.3999" style="stroke:rgb(0,0,0);stroke-width:0.1;fill:none" />
  <path d="M231.932,30.7599 L234.102,30.7599" style="stroke:rgb(0,0,0);stroke-width:0.1;fill:none" />
  <path d="M234.102,25.0399 L231.932,25.0399" style="stroke:rgb(0,0,0);stroke-width:0.1;fill:none" />
  <path d="M231.932,29.3999 L231.932,30.7599" style="stroke:rgb(0,0,0);stroke-width:0.1;fill:none" />
  <path d="M231.932,25.0399 L231.932,26.3999" style="stroke:rgb(0,0,0);stroke-width:0.1;fill:none" />
  <path d="M235.102,26.3999 L234.102,26.3999" style="stroke:rgb(0,0,0);stroke-width:0.1;fill:none" />
  <path d="M234.102,26.3999 L234.102,25.0399" style="stroke:rgb(0,0,0);stroke-width:0.1;fill:none" />
  <path d="M234.102,30.7599 L234.102,29.3999" style="stroke:rgb(0,0,0);stroke-width:0.1;fill:none" />
  <path d="M234.102,29.3999 L235.102,29.3999" style="stroke:rgb(0,0,0);stroke-width:0.1;fill:none" />
  <path d="M230.999,121.324 L231.932,121.324" style="stroke:rgb(0,0,0);stroke-width:0.1;fill:none" />
  <path d="M231.932,118.324 L230.999,118.324" style="stroke:rgb(0,0,0);stroke-width:0.1;fill:none" />
  <path d="M230.999,29.3999 L231.932,29.3999" style="stroke:rgb(0,0,0);stroke-width:0.1;fill:none" />
  <path d="M231.932,26.3999 L230.999,26.3999" style="stroke:rgb(0,0,0);stroke-width:0.1;fill:none" />
  <path d="M230.499,71.8618 L225.999,71.8618" style="stroke:rgb(0,0,0);stroke-width:0.1;fill:none" />
  <path d="M225.999,71.8618 A0.5,0.5 0 0,0 225.499,72.3618 " style="stroke:rgb(0,0,0);stroke-width:0.1;fill:none" />
  <path d="M225.499,72.3618 L225.499,81.3618" style="stroke:rgb(0,0,0);stroke-width:0.1;fill:none" />
  <path d="M230.499,29.8999 L230.499,71.8618" style="stroke:rgb(0,0,0);stroke-width:0.1;fill:none" />
  <path d="M225.999,94.8237 L235.499,94.8237" style="stroke:rgb(0,0,0);stroke-width:0.1;fill:none" />
  <path d="M235.499,94.8237 L235.499,81.8618" style="stroke:rgb(0,0,0);stroke-width:0.1;fill:none" />
  <path d="M225.999,81.8618 L235.499,81.8618" style="stroke:rgb(0,0,0);stroke-width:0.1;fill:none" />
  <path d="M230.499,25.8999 L230.499,23.8618" style="stroke:rgb(0,0,0);stroke-width:0.1;fill:none" />
  <path d="M224,23.8618 L230.5,23.8618" style="stroke:rgb(0,0,0);stroke-width:0.1;fill:none" />
  <path d="M224,13.2618 A1,1 0 0,0 223,14.2618 " style="stroke:rgb(0,0,0);stroke-width:0.1;fill:none" />
  <path d="M224,13.2618 L240.749,7.86183" style="stroke:rgb(0,0,0);stroke-width:0.1;fill:none" />
  <path d="M223.999,123.862 A1,1 0 0,0 222.999,124.862 " style="stroke:rgb(0,0,0);stroke-width:0.1;fill:none" />
  <path d="M223.999,123.862 L230.499,123.862" style="stroke:rgb(0,0,0);stroke-width:0.1;fill:none" />
  <path d="M222.999,133.462 A1,1 0 0,0 223.999,134.462 " style="stroke:rgb(0,0,0);stroke-width:0.1;fill:none" />
  <ellipse cx="242.299" cy="125.863" rx="3.5" ry="3.5" style="stroke:rgb(0,0,0);stroke-width:0.1;fill:none;"/>
  <path d="M250.874,15.8618 A8,8 0 0,0 242.874,7.86183 " style="stroke:rgb(0,0,0);stroke-width:0.1;fill:none" />
  <path d="M242.872,139.862 A8,8 0 0,0 250.872,131.862 " style="stroke:rgb(0,0,0);stroke-width:0.1;fill:none" />
  <path d="M240.747,139.862 L242.872,139.862" style="stroke:rgb(0,0,0);stroke-width:0.1;fill:none" />
  <path d="M240.749,7.86183 L242.874,7.86183" style="stroke:rgb(0,0,0);stroke-width:0.1;fill:none" />
  <path d="M230.003,129.162 A2.156,2.156 0 0,0 226.361,127.6 " style="stroke:rgb(0,0,0);stroke-width:0.1;fill:none" />
  <path d="M226.361,130.724 A2.156,2.156 0 0,0 230.003,129.162 " style="stroke:rgb(0,0,0);stroke-width:0.1;fill:none" />
  <path d="M223.999,130.724 A1,1 0 0,0 222.999,131.724 " style="stroke:rgb(0,0,0);stroke-width:0.1;fill:none" />
  <path d="M222.999,133.462 L222.999,131.724" style="stroke:rgb(0,0,0);stroke-width:0.1;fill:none" />
  <path d="M222.999,126.6 A1,1 0 0,0 223.999,127.6 " style="stroke:rgb(0,0,0);stroke-width:0.1;fill:none" />
  <path d="M222.999,124.862 L222.999,126.6" style="stroke:rgb(0,0,0);stroke-width:0.1;fill:none" />
  <path d="M223.999,127.6 L226.361,127.6" style="stroke:rgb(0,0,0);stroke-width:0.1;fill:none" />
  <path d="M223.999,130.724 L226.361,130.724" style="stroke:rgb(0,0,0);stroke-width:0.1;fill:none" />
  <ellipse cx="236.749" cy="132.862" rx="1" ry="1" style="stroke:rgb(0,0,0);stroke-width:0.1;fill:none;"/>
  <path d="M229.789,130.106 L235.819,132.494" style="stroke:rgb(0,0,0);stroke-width:0.1;fill:none" />
  <path d="M247.524,25.6881 L247.524,25.6881" style="stroke:rgb(0,0,0);stroke-width:0.1;fill:none" />
  <path d="M244.024,22.6881 L244.024,22.6881" style="stroke:rgb(0,0,0);stroke-width:0.1;fill:none" />
  <path d="M244.024,22.6881 L244.024,22.6881" style="stroke:rgb(0,0,0);stroke-width:0.1;fill:none" />
  <path d="M247.524,18.8618 L244.024,18.8618" style="stroke:rgb(0,0,0);stroke-width:0.1;fill:none" />
  <path d="M244.024,25.8618 L247.524,25.8618" style="stroke:rgb(0,0,0);stroke-width:0.1;fill:none" />
  <path d="M247.524,25.8618 L247.524,18.8618" style="stroke:rgb(0,0,0);stroke-width:0.1;fill:none" />
  <ellipse cx="242.524" cy="22.3618" rx="1.5" ry="1.5" style="stroke:rgb(0,0,0);stroke-width:0.1;fill:none;"/>
  <path d="M244.024,18.8618 L244.024,22.3618" style="stroke:rgb(0,0,0);stroke-width:0.1;fill:none" />
  <path d="M244.024,22.3618 L244.024,25.8618" style="stroke:rgb(0,0,0);stroke-width:0.1;fill:none" />
  <path d="M226.362,20.1237 A2.156,2.156 0 0,0 230.005,18.5618 " style="stroke:rgb(0,0,0);stroke-width:0.1;fill:none" />
  <path d="M230.005,18.5618 A2.156,2.156 0 0,0 226.362,17 " style="stroke:rgb(0,0,0);stroke-width:0.1;fill:none" />
  <path d="M223,16 A1,1 0 0,0 224,17 " style="stroke:rgb(0,0,0);stroke-width:0.1;fill:none" />
  <path d="M223,14.2618 L223,16" style="stroke:rgb(0,0,0);stroke-width:0.1;fill:none" />
  <path d="M224,20.1237 A1,1 0 0,0 223,21.1237 " style="stroke:rgb(0,0,0);stroke-width:0.1;fill:none" />
  <path d="M223,22.8618 L223,21.1237" style="stroke:rgb(0,0,0);stroke-width:0.1;fill:none" />
  <path d="M224,20.1237 L226.362,20.1237" style="stroke:rgb(0,0,0);stroke-width:0.1;fill:none" />
  <path d="M224,17 L226.362,17" style="stroke:rgb(0,0,0);stroke-width:0.1;fill:none" />
  <ellipse cx="236.75" cy="14.8618" rx="1" ry="1" style="stroke:rgb(0,0,0);stroke-width:0.1;fill:none;"/>
  <path d="M229.791,17.6182 L235.82,15.2301" style="stroke:rgb(0,0,0);stroke-width:0.1;fill:none" />
  <path d="M223,22.8618 A1,1 0 0,0 224,23.8618 " style="stroke:rgb(0,0,0);stroke-width:0.1;fill:none" />
  <path d="M245.874,105.862 L250.874,105.862" style="stroke:rgb(0,0,0);stroke-width:0.1;fill:none" />
  <path d="M245.874,105.862 L245.874,100.862" style="stroke:rgb(0,0,0);stroke-width:0.1;fill:none" />
  <path d="M245.874,80.8618 L245.874,66.8618" style="stroke:rgb(0,0,0);stroke-width:0.1;fill:none" />
  <path d="M245.874,41.8618 L250.874,41.8618" style="stroke:rgb(0,0,0);stroke-width:0.1;fill:none" />
  <path d="M245.874,46.8618 L245.874,41.8618" style="stroke:rgb(0,0,0);stroke-width:0.1;fill:none" />
  <path d="M250.874,41.8618 L250.874,15.8618" style="stroke:rgb(0,0,0);stroke-width:0.1;fill:none" />
  <path d="M250.872,131.862 L250.874,105.862" style="stroke:rgb(0,0,0);stroke-width:0.1;fill:none" />
  <path d="M238.77,92.3618 L238.77,89.3618" style="stroke:rgb(0,0,0);stroke-width:0.1;fill:none" />
  <path d="M241.94,93.7218 L239.77,93.7218" style="stroke:rgb(0,0,0);stroke-width:0.1;fill:none" />
  <path d="M239.77,88.0018 L241.94,88.0018" style="stroke:rgb(0,0,0);stroke-width:0.1;fill:none" />
  <path d="M241.94,92.3618 L241.94,93.7218" style="stroke:rgb(0,0,0);stroke-width:0.1;fill:none" />
  <path d="M241.94,88.0018 L241.94,89.3618" style="stroke:rgb(0,0,0);stroke-width:0.1;fill:none" />
  <path d="M238.77,89.3618 L239.77,89.3618" style="stroke:rgb(0,0,0);stroke-width:0.1;fill:none" />
  <path d="M239.77,89.3618 L239.77,88.0018" style="stroke:rgb(0,0,0);stroke-width:0.1;fill:none" />
  <path d="M239.77,93.7218 L239.77,92.3618" style="stroke:rgb(0,0,0);stroke-width:0.1;fill:none" />
  <path d="M239.77,92.3618 L238.77,92.3618" style="stroke:rgb(0,0,0);stroke-width:0.1;fill:none" />
  <path d="M245.374,92.3618 L241.94,92.3618" style="stroke:rgb(0,0,0);stroke-width:0.1;fill:none" />
  <path d="M241.94,89.3618 L245.374,89.3618" style="stroke:rgb(0,0,0);stroke-width:0.1;fill:none" />
  <path d="M250.374,100.862 L245.874,100.862" style="stroke:rgb(0,0,0);stroke-width:0.1;fill:none" />
  <path d="M250.374,100.862 A0.5,0.5 0 0,0 250.874,100.362 " style="stroke:rgb(0,0,0);stroke-width:0.1;fill:none" />
  <path d="M250.874,96.3618 L250.874,100.362" style="stroke:rgb(0,0,0);stroke-width:0.1;fill:none" />
  <path d="M245.874,95.8618 L250.374,95.8618" style="stroke:rgb(0,0,0);stroke-width:0.1;fill:none" />
  <path d="M250.874,96.3618 A0.5,0.5 0 0,0 250.374,95.8618 " style="stroke:rgb(0,0,0);stroke-width:0.1;fill:none" />
  <path d="M245.874,92.8618 L245.874,95.8618" style="stroke:rgb(0,0,0);stroke-width:0.1;fill:none" />
  <path d="M245.874,92.8618 A0.5,0.5 0 0,0 245.374,92.3618 " style="stroke:rgb(0,0,0);stroke-width:0.1;fill:none" />
  <path d="M245.874,88.8618 L245.874,85.8618" style="stroke:rgb(0,0,0);stroke-width:0.1;fill:none" />
  <path d="M245.374,89.3618 A0.5,0.5 0 0,0 245.874,88.8618 " style="stroke:rgb(0,0,0);stroke-width:0.1;fill:none" />
  <path d="M245.874,85.8618 L250.374,85.8618" style="stroke:rgb(0,0,0);stroke-width:0.1;fill:none" />
  <path d="M250.374,85.8618 A0.5,0.5 0 0,0 250.874,85.3618 " style="stroke:rgb(0,0,0);stroke-width:0.1;fill:none" />
  <path d="M250.874,85.3618 L250.874,81.3618" style="stroke:rgb(0,0,0);stroke-width:0.1;fill:none" />
  <path d="M250.374,80.8618 L245.874,80.8618" style="stroke:rgb(0,0,0);stroke-width:0.1;fill:none" />
  <path d="M250.874,81.3618 A0.5,0.5 0 0,0 250.374,80.8618 " style="stroke:rgb(0,0,0);stroke-width:0.1;fill:none" />
  <path d="M238.77,58.3618 L238.77,55.3618" style="stroke:rgb(0,0,0);stroke-width:0.1;fill:none" />
  <path d="M241.94,59.7218 L239.77,59.7218" style="stroke:rgb(0,0,0);stroke-width:0.1;fill:none" />
  <path d="M239.77,54.0018 L241.94,54.0018" style="stroke:rgb(0,0,0);stroke-width:0.1;fill:none" />
  <path d="M241.94,58.3618 L241.94,59.7218" style="stroke:rgb(0,0,0);stroke-width:0.1;fill:none" />
  <path d="M241.94,54.0018 L241.94,55.3618" style="stroke:rgb(0,0,0);stroke-width:0.1;fill:none" />
  <path d="M238.77,55.3618 L239.77,55.3618" style="stroke:rgb(0,0,0);stroke-width:0.1;fill:none" />
  <path d="M239.77,55.3618 L239.77,54.0018" style="stroke:rgb(0,0,0);stroke-width:0.1;fill:none" />
  <path d="M239.77,59.7218 L239.77,58.3618" style="stroke:rgb(0,0,0);stroke-width:0.1;fill:none" />
  <path d="M239.77,58.3618 L238.77,58.3618" style="stroke:rgb(0,0,0);stroke-width:0.1;fill:none" />
  <path d="M245.374,58.3618 L241.94,58.3618" style="stroke:rgb(0,0,0);stroke-width:0.1;fill:none" />
  <path d="M241.94,55.3618 L245.374,55.3618" style="stroke:rgb(0,0,0);stroke-width:0.1;fill:none" />
  <path d="M245.874,58.8618 L245.874,61.8618" style="stroke:rgb(0,0,0);stroke-width:0.1;fill:none" />
  <path d="M245.874,58.8618 A0.5,0.5 0 0,0 245.374,58.3618 " style="stroke:rgb(0,0,0);stroke-width:0.1;fill:none" />
  <path d="M245.874,54.8618 L245.874,51.8618" style="stroke:rgb(0,0,0);stroke-width:0.1;fill:none" />
  <path d="M245.374,55.3618 A0.5,0.5 0 0,0 245.874,54.8618 " style="stroke:rgb(0,0,0);stroke-width:0.1;fill:none" />
  <path d="M250.374,66.8618 L245.874,66.8618" style="stroke:rgb(0,0,0);stroke-width:0.1;fill:none" />
  <path d="M250.374,66.8618 A0.5,0.5 0 0,0 250.874,66.3618 " style="stroke:rgb(0,0,0);stroke-width:0.1;fill:none" />
  <path d="M250.874,62.3618 L250.874,66.3618" style="stroke:rgb(0,0,0);stroke-width:0.1;fill:none" />
  <path d="M245.874,61.8618 L250.374,61.8618" style="stroke:rgb(0,0,0);stroke-width:0.1;fill:none" />
  <path d="M250.874,62.3618 A0.5,0.5 0 0,0 250.374,61.8618 " style="stroke:rgb(0,0,0);stroke-width:0.1;fill:none" />
  <path d="M245.874,58.8618 L245.874,61.8618" style="stroke:rgb(0,0,0);stroke-width:0.1;fill:none" />
  <path d="M245.874,58.8618 A0.5,0.5 0 0,0 245.374,58.3618 " style="stroke:rgb(0,0,0);stroke-width:0.1;fill:none" />
  <path d="M245.874,54.8618 L245.874,51.8618" style="stroke:rgb(0,0,0);stroke-width:0.1;fill:none" />
  <path d="M245.374,55.3618 A0.5,0.5 0 0,0 245.874,54.8618 " style="stroke:rgb(0,0,0);stroke-width:0.1;fill:none" />
  <path d="M245.874,51.8618 L250.374,51.8618" style="stroke:rgb(0,0,0);stroke-width:0.1;fill:none" />
  <path d="M250.374,51.8618 A0.5,0.5 0 0,0 250.874,51.3618 " style="stroke:rgb(0,0,0);stroke-width:0.1;fill:none" />
  <path d="M250.874,51.3618 L250.874,47.3618" style="stroke:rgb(0,0,0);stroke-width:0.1;fill:none" />
  <path d="M250.374,46.8618 L245.874,46.8618" style="stroke:rgb(0,0,0);stroke-width:0.1;fill:none" />
  <path d="M250.874,47.3618 A0.5,0.5 0 0,0 250.374,46.8618 " style="stroke:rgb(0,0,0);stroke-width:0.1;fill:none" />
  <ellipse cx="242.299" cy="131.363" rx="1.2" ry="1.2" style="stroke:rgb(0,0,0);stroke-width:0.1;fill:none;"/>
  <ellipse cx="242.299" cy="120.363" rx="1.2" ry="1.2" style="stroke:rgb(0,0,0);stroke-width:0.1;fill:none;"/>
  <path d="M229.872,136.356 A1.5,1.5 0 1,0 227.256,135.512 " style="stroke:rgb(0,0,0);stroke-width:0.1;fill:none" />
  <path d="M229.872,136.356 L240.747,139.862" style="stroke:rgb(0,0,0);stroke-width:0.1;fill:none" />
  <path d="M223.999,134.462 L227.256,135.512" style="stroke:rgb(0,0,0);stroke-width:0.1;fill:none" />
  <path d="M203.962,118 A2,2 0 0,0 201.962,116 " style="stroke:rgb(0,0,0);stroke-width:0.1;fill:none" />
  <path d="M203.962,118 L203.962,129.602" style="stroke:rgb(0,0,0);stroke-width:0.1;fill:none" />
  <path d="M193,116 A2,2 0 0,0 191,118 " style="stroke:rgb(0,0,0);stroke-width:0.1;fill:none" />
  <path d="M191,129.602 L191,118" style="stroke:rgb(0,0,0);stroke-width:0.1;fill:none" />
  <path d="M191,129.602 L203.962,129.602" style="stroke:rgb(0,0,0);stroke-width:0.1;fill:none" />
  <path d="M193,116 L201.962,116" style="stroke:rgb(0,0,0);stroke-width:0.1;fill:none" />
  <ellipse cx="197.481" cy="119.462" rx="1.56" ry="1.56" style="stroke:rgb(0,0,0);stroke-width:0.1;fill:none;"/>
  <path d="M0.5,203.5 L245.5,203.5" style="stroke:rgb(0,0,0);stroke-width:0.1;fill:none" />
  <path d="M305.5,288.5 L60.5,288.5" style="stroke:rgb(0,0,0);stroke-width:0.1;fill:none" />
  <path d="M0.5,203.5 L60.5,288.5" style="stroke:rgb(0,0,0);stroke-width:0.1;fill:none" />
  <path d="M305.5,288.5 L245.5,203.5" style="stroke:rgb(0,0,0);stroke-width:0.1;fill:none" />
</svg>
