999
dxflib 2.2.0.0
  0
SECTION
  2
HEADER
  9
$ACADVER
  1
AC1015
  9
$HANDSEED
  5
FFFF
  9
$DIMASZ
 40
2.5
  9
$PLIMMIN
 10
0.0
 20
0.0
  9
$DIMEXE
 40
1.25
  9
$DIMGAP
 40
0.625
  9
$PLIMMAX
 10
210.0
 20
297.0
  9
$INSUNITS
 70
4
  9
$DIMSTYLE
  2
Standard
  9
$CLAYER
  8
0
  9
$DIMEXO
 40
0.625
  9
$DIMTXT
 40
2.5
  9
$CLAYER
  8
0
  0
ENDSEC
  0
SECTION
  2
TABLES
  0
TABLE
  2
VPORT
  5
8
100
AcDbSymbolTable
 70
1
  0
VPORT
  5
30
100
AcDbSymbolTableRecord
100
AcDbViewportTableRecord
  2
*Active
 70
0
 10
0.0
 20
0.0
 11
1.0
 21
1.0
 12
286.3055555555554861
 22
148.5
 13
0.0
 23
0.0
 14
10.0
 24
10.0
 15
10.0
 25
10.0
 16
0.0
 26
0.0
 36
1.0
 17
0.0
 27
0.0
 37
0.0
 40
297.0
 41
1.92798353909465
 42
50.0
 43
0.0
 44
0.0
 50
0.0
 51
0.0
 71
0
 72
100
 73
1
 74
3
 75
1
 76
1
 77
0
 78
0
281
0
 65
1
110
0.0
120
0.0
130
0.0
111
1.0
121
0.0
131
0.0
112
0.0
122
1.0
132
0.0
 79
0
146
0.0
  0
ENDTAB
  0
TABLE
  2
LTYPE
  5
5
100
AcDbSymbolTable
 70
21
  0
LTYPE
  5
14
100
AcDbSymbolTableRecord
100
AcDbLinetypeTableRecord
  2
ByBlock
 70
0
  3

 72
65
 73
0
 40
0.0
  0
LTYPE
  5
15
100
AcDbSymbolTableRecord
100
AcDbLinetypeTableRecord
  2
ByLayer
 70
0
  3

 72
65
 73
0
 40
0.0
  0
LTYPE
  5
16
100
AcDbSymbolTableRecord
100
AcDbLinetypeTableRecord
  2
CONTINUOUS
 70
0
  3
Solid line
 72
65
 73
0
 40
0.0
  0
LTYPE
  5
31
100
AcDbSymbolTableRecord
100
AcDbLinetypeTableRecord
  2
DOT
 70
0
  3
Dot . . . . . . . . . . . . . . . . . . . . . .
 72
65
 73
2
 40
6.3499999999999996
 49
0.0
 74
0
 49
-6.3499999999999996
 74
0
  0
LTYPE
  5
32
100
AcDbSymbolTableRecord
100
AcDbLinetypeTableRecord
  2
DOT2
 70
0
  3
Dot (.5x) .....................................
 72
65
 73
2
 40
3.1749999999999998
 49
0.0
 74
0
 49
-3.1749999999999998
 74
0
  0
LTYPE
  5
33
100
AcDbSymbolTableRecord
100
AcDbLinetypeTableRecord
  2
DOTX2
 70
0
  3
Dot (2x) .  .  .  .  .  .  .  .  .  .  .  .  .
 72
65
 73
2
 40
12.6999999999999993
 49
0.0
 74
0
 49
-12.6999999999999993
 74
0
  0
LTYPE
  5
34
100
AcDbSymbolTableRecord
100
AcDbLinetypeTableRecord
  2
DASHED
 70
0
  3
Dashed __ __ __ __ __ __ __ __ __ __ __ __ __ _
 72
65
 73
2
 40
19.0500000000000007
 49
12.6999999999999993
 74
0
 49
-6.3499999999999996
 74
0
  0
LTYPE
  5
35
100
AcDbSymbolTableRecord
100
AcDbLinetypeTableRecord
  2
DASHED2
 70
0
  3
Dashed (.5x) _ _ _ _ _ _ _ _ _ _ _ _ _ _ _ _ _
 72
65
 73
2
 40
9.5250000000000004
 49
6.3499999999999996
 74
0
 49
-3.1749999999999998
 74
0
  0
LTYPE
  5
36
100
AcDbSymbolTableRecord
100
AcDbLinetypeTableRecord
  2
DASHEDX2
 70
0
  3
Dashed (2x) ____  ____  ____  ____  ____  ___
 72
65
 73
2
 40
38.1000000000000014
 49
25.3999999999999986
 74
0
 49
-12.6999999999999993
 74
0
  0
LTYPE
  5
37
100
AcDbSymbolTableRecord
100
AcDbLinetypeTableRecord
  2
DASHDOT
 70
0
  3
Dash dot __ . __ . __ . __ . __ . __ . __ . __
 72
65
 73
4
 40
25.3999999999999986
 49
12.6999999999999993
 74
0
 49
-6.3499999999999996
 74
0
 49
0.0
 74
0
 49
-6.3499999999999996
 74
0
  0
LTYPE
  5
38
100
AcDbSymbolTableRecord
100
AcDbLinetypeTableRecord
  2
DASHDOT2
 70
0
  3
Dash dot (.5x) _._._._._._._._._._._._._._._.
 72
65
 73
4
 40
12.6999999999999993
 49
6.3499999999999996
 74
0
 49
-3.1749999999999998
 74
0
 49
0.0
 74
0
 49
-3.1749999999999998
 74
0
  0
LTYPE
  5
39
100
AcDbSymbolTableRecord
100
AcDbLinetypeTableRecord
  2
DASHDOTX2
 70
0
  3
Dash dot (2x) ____  .  ____  .  ____  .  ___
 72
65
 73
4
 40
50.7999999999999972
 49
25.3999999999999986
 74
0
 49
-12.6999999999999993
 74
0
 49
0.0
 74
0
 49
-12.6999999999999993
 74
0
  0
LTYPE
  5
3A
100
AcDbSymbolTableRecord
100
AcDbLinetypeTableRecord
  2
DIVIDE
 70
0
  3
Divide ____ . . ____ . . ____ . . ____ . . ____
 72
65
 73
6
 40
31.75
 49
12.6999999999999993
 74
0
 49
-6.3499999999999996
 74
0
 49
0.0
 74
0
 49
-6.3499999999999996
 74
0
 49
0.0
 74
0
 49
-6.3499999999999996
 74
0
  0
LTYPE
  5
3B
100
AcDbSymbolTableRecord
100
AcDbLinetypeTableRecord
  2
DIVIDE2
 70
0
  3
Divide (.5x) __..__..__..__..__..__..__..__.._
 72
65
 73
6
 40
15.875
 49
6.3499999999999996
 74
0
 49
-3.1749999999999998
 74
0
 49
0.0
 74
0
 49
-3.1749999999999998
 74
0
 49
0.0
 74
0
 49
-3.1749999999999998
 74
0
  0
LTYPE
  5
3C
100
AcDbSymbolTableRecord
100
AcDbLinetypeTableRecord
  2
DIVIDEX2
 70
0
  3
Divide (2x) ________  .  .  ________  .  .  _
 72
65
 73
6
 40
63.5
 49
25.3999999999999986
 74
0
 49
-12.6999999999999993
 74
0
 49
0.0
 74
0
 49
-12.6999999999999993
 74
0
 49
0.0
 74
0
 49
-12.6999999999999993
 74
0
  0
LTYPE
  5
3D
100
AcDbSymbolTableRecord
100
AcDbLinetypeTableRecord
  2
CENTER
 70
0
  3
Center ____ _ ____ _ ____ _ ____ _ ____ _ ____
 72
65
 73
4
 40
50.7999999999999972
 49
31.75
 74
0
 49
-6.3499999999999996
 74
0
 49
6.3499999999999996
 74
0
 49
-6.3499999999999996
 74
0
  0
LTYPE
  5
3E
100
AcDbSymbolTableRecord
100
AcDbLinetypeTableRecord
  2
CENTER2
 70
0
  3
Center (.5x) ___ _ ___ _ ___ _ ___ _ ___ _ ___
 72
65
 73
4
 40
28.5749999999999993
 49
19.0500000000000007
 74
0
 49
-3.1749999999999998
 74
0
 49
3.1749999999999998
 74
0
 49
-3.1749999999999998
 74
0
  0
LTYPE
  5
3F
100
AcDbSymbolTableRecord
100
AcDbLinetypeTableRecord
  2
CENTERX2
 70
0
  3
Center (2x) ________  __  ________  __  _____
 72
65
 73
4
 40
101.5999999999999943
 49
63.5
 74
0
 49
-12.6999999999999993
 74
0
 49
12.6999999999999993
 74
0
 49
-12.6999999999999993
 74
0
  0
LTYPE
  5
40
100
AcDbSymbolTableRecord
100
AcDbLinetypeTableRecord
  2
BORDER
 70
0
  3
Border __ __ . __ __ . __ __ . __ __ . __ __ .
 72
65
 73
6
 40
44.4500000000000028
 49
12.6999999999999993
 74
0
 49
-6.3499999999999996
 74
0
 49
12.6999999999999993
 74
0
 49
-6.3499999999999996
 74
0
 49
0.0
 74
0
 49
-6.3499999999999996
 74
0
  0
LTYPE
  5
41
100
AcDbSymbolTableRecord
100
AcDbLinetypeTableRecord
  2
BORDER2
 70
0
  3
Border (.5x) __.__.__.__.__.__.__.__.__.__.__.
 72
65
 73
6
 40
22.2250000000000014
 49
6.3499999999999996
 74
0
 49
-3.1749999999999998
 74
0
 49
6.3499999999999996
 74
0
 49
-3.1749999999999998
 74
0
 49
0.0
 74
0
 49
-3.1749999999999998
 74
0
  0
LTYPE
  5
42
100
AcDbSymbolTableRecord
100
AcDbLinetypeTableRecord
  2
BORDERX2
 70
0
  3
Border (2x) ____  ____  .  ____  ____  .  ___
 72
65
 73
6
 40
88.9000000000000057
 49
25.3999999999999986
 74
0
 49
-12.6999999999999993
 74
0
 49
25.3999999999999986
 74
0
 49
-12.6999999999999993
 74
0
 49
0.0
 74
0
 49
-12.6999999999999993
 74
0
  0
ENDTAB
  0
TABLE
  2
LAYER
  5
2
100
AcDbSymbolTable
 70
14
  0
LAYER
  5
10
100
AcDbSymbolTableRecord
100
AcDbLayerTableRecord
  2
0
 70
0
 62
7
420
0
  6
CONTINUOUS
370
25
390
F
  0
LAYER
  5
43
100
AcDbSymbolTableRecord
100
AcDbLayerTableRecord
  2
1 bottom
 70
0
 62
7
420
0
  6
CONTINUOUS
370
0
390
F
  0
LAYER
  5
44
100
AcDbSymbolTableRecord
100
AcDbLayerTableRecord
  2
4 side cover
 70
0
 62
7
420
0
  6
CONTINUOUS
370
0
390
F
  0
LAYER
  5
45
100
AcDbSymbolTableRecord
100
AcDbLayerTableRecord
  2
2 top
 70
0
 62
7
420
0
  6
CONTINUOUS
370
0
390
F
  0
LAYER
  5
46
100
AcDbSymbolTableRecord
100
AcDbLayerTableRecord
  2
3 side
 70
0
 62
7
420
0
  6
CONTINUOUS
370
0
390
F
  0
LAYER
  5
47
100
AcDbSymbolTableRecord
100
AcDbLayerTableRecord
  2
5 gears
 70
0
 62
7
420
0
  6
CONTINUOUS
370
0
390
F
  0
LAYER
  5
48
100
AcDbSymbolTableRecord
100
AcDbLayerTableRecord
  2
6 scraper
 70
0
 62
7
420
0
  6
CONTINUOUS
370
0
390
F
  0
LAYER
  5
49
100
AcDbSymbolTableRecord
100
AcDbLayerTableRecord
  2
7 belt
 70
0
 62
7
420
0
  6
CONTINUOUS
370
0
390
F
  0
LAYER
  5
4A
100
AcDbSymbolTableRecord
100
AcDbLayerTableRecord
  2
5a gear, shaft
 70
0
 62
7
420
0
  6
CONTINUOUS
370
0
390
F
  0
LAYER
  5
4B
100
AcDbSymbolTableRecord
100
AcDbLayerTableRecord
  2
5b gear, motor
 70
0
 62
7
420
0
  6
CONTINUOUS
370
0
390
F
  0
LAYER
  5
4C
100
AcDbSymbolTableRecord
100
AcDbLayerTableRecord
  2
5a gear, motor, A
 70
0
 62
7
420
0
  6
CONTINUOUS
370
0
390
F
  0
LAYER
  5
4D
100
AcDbSymbolTableRecord
100
AcDbLayerTableRecord
  2
5a gear, shaft, A
 70
0
 62
7
420
0
  6
CONTINUOUS
370
0
390
F
  0
LAYER
  5
4E
100
AcDbSymbolTableRecord
100
AcDbLayerTableRecord
  2
8 brush retainer
 70
0
 62
7
420
0
  6
CONTINUOUS
370
0
390
F
  0
LAYER
  5
4F
100
AcDbSymbolTableRecord
100
AcDbLayerTableRecord
  2
4 side
 70
0
 62
7
420
0
  6
CONTINUOUS
370
0
390
F
  0
ENDTAB
  0
TABLE
  2
STYLE
  5
3
100
AcDbSymbolTable
 70
1
  0
STYLE
  5
11
100
AcDbSymbolTableRecord
100
AcDbTextStyleTableRecord
  2
Standard
 70
0
 40
0.0
 41
0.75
 50
0.0
 71
0
 42
2.5
  3
txt
  4

  0
ENDTAB
  0
TABLE
  2
VIEW
  5
6
100
AcDbSymbolTable
 70
0
  0
ENDTAB
  0
TABLE
  2
UCS
  5
7
100
AcDbSymbolTable
 70
0
  0
ENDTAB
  0
TABLE
  2
APPID
  5
9
100
AcDbSymbolTable
 70
1
  0
APPID
  5
12
100
AcDbSymbolTableRecord
100
AcDbRegAppTableRecord
  2
ACAD
 70
0
  0
ENDTAB
  0
TABLE
  2
DIMSTYLE
  5
A
100
AcDbSymbolTable
 70
1
100
AcDbDimStyleTable
 71
0
  0
DIMSTYLE
105
27
100
AcDbSymbolTableRecord
100
AcDbDimStyleTableRecord
  2
Standard
 41
2.5
 42
0.625
 43
3.75
 44
1.25
 70
0
 73
0
 74
0
 77
1
 78
8
140
2.5
141
2.5
143
0.03937007874016
147
0.625
171
3
172
1
271
2
272
2
274
3
278
44
283
0
284
8
340
11
  0
ENDTAB
  0
TABLE
  2
BLOCK_RECORD
  5
1
100
AcDbSymbolTable
 70
1
  0
BLOCK_RECORD
  5
1F
100
AcDbSymbolTableRecord
100
AcDbBlockTableRecord
  2
*Model_Space
340
22
  0
BLOCK_RECORD
  5
1B
100
AcDbSymbolTableRecord
100
AcDbBlockTableRecord
  2
*Paper_Space
340
1E
  0
BLOCK_RECORD
  5
23
100
AcDbSymbolTableRecord
100
AcDbBlockTableRecord
  2
*Paper_Space0
340
26
  0
BLOCK_RECORD
  5
50
100
AcDbSymbolTableRecord
100
AcDbBlockTableRecord
  2
holes-20
340
0
  0
BLOCK_RECORD
  5
51
100
AcDbSymbolTableRecord
100
AcDbBlockTableRecord
  2
tabs-with-bolt-20
340
0
  0
ENDTAB
  0
ENDSEC
  0
SECTION
  2
BLOCKS
  0
BLOCK
  5
20
100
AcDbEntity
  8
0
100
AcDbBlockBegin
  2
*Model_Space
 70
0
 10
0.0
 20
0.0
 30
0.0
  3
*Model_Space
  1

  0
ENDBLK
  5
21
100
AcDbEntity
  8
0
100
AcDbBlockEnd
  0
BLOCK
  5
1C
100
AcDbEntity
 67
1
  8
0
100
AcDbBlockBegin
  2
*Paper_Space
 70
0
 10
0.0
 20
0.0
 30
0.0
  3
*Paper_Space
  1

  0
ENDBLK
  5
1D
100
AcDbEntity
 67
1
  8
0
100
AcDbBlockEnd
  0
BLOCK
  5
24
100
AcDbEntity
  8
0
100
AcDbBlockBegin
  2
*Paper_Space0
 70
0
 10
0.0
 20
0.0
 30
0.0
  3
*Paper_Space0
  1

  0
ENDBLK
  5
25
100
AcDbEntity
  8
0
100
AcDbBlockEnd
  0
BLOCK
  5
52
100
AcDbEntity
  8
0
100
AcDbBlockBegin
  2
holes-20
 70
0
 10
0.0
 20
0.0
 30
0.0
  3
holes-20
  1

  0
CIRCLE
  5
53
100
AcDbEntity
100
AcDbCircle
  8
0
 62
256
370
-1
  6
ByLayer
 10
0.0
 20
0.0
 30
0.0
 40
1.5
  0
LINE
  5
54
100
AcDbEntity
100
AcDbLine
  8
0
 62
256
370
-1
  6
ByLayer
 10
5.0
 20
2.5000000000000004
 30
0.0
 11
10.0
 21
2.5000000000000009
 31
0.0
  0
LINE
  5
55
100
AcDbEntity
100
AcDbLine
  8
0
 62
256
370
-1
  6
ByLayer
 10
4.9999999999999991
 20
-2.5000000000000013
 30
0.0
 11
10.0
 21
-2.5000000000000031
 31
0.0
  0
LINE
  5
56
100
AcDbEntity
100
AcDbLine
  8
0
 62
256
370
-1
  6
ByLayer
 10
-4.9999999999999991
 20
2.5000000000000004
 30
0.0
 11
-10.0
 21
2.5000000000000022
 31
0.0
  0
LINE
  5
57
100
AcDbEntity
100
AcDbLine
  8
0
 62
256
370
-1
  6
ByLayer
 10
-5.0000000000000018
 20
-2.5
 30
0.0
 11
-10.0
 21
-2.4999999999999996
 31
0.0
  0
LINE
  5
58
100
AcDbEntity
100
AcDbLine
  8
0
 62
256
370
-1
  6
ByLayer
 10
-10.0
 20
2.5000000000000022
 30
0.0
 11
-10.0
 21
-2.4999999999999996
 31
0.0
  0
LINE
  5
59
100
AcDbEntity
100
AcDbLine
  8
0
 62
256
370
-1
  6
ByLayer
 10
-4.9999999999999991
 20
2.5000000000000004
 30
0.0
 11
-5.0000000000000018
 21
-2.5
 31
0.0
  0
LINE
  5
5A
100
AcDbEntity
100
AcDbLine
  8
0
 62
256
370
-1
  6
ByLayer
 10
5.0
 20
2.5000000000000004
 30
0.0
 11
4.9999999999999991
 21
-2.5000000000000013
 31
0.0
  0
LINE
  5
5B
100
AcDbEntity
100
AcDbLine
  8
0
 62
256
370
-1
  6
ByLayer
 10
10.0
 20
2.5000000000000009
 30
0.0
 11
10.0
 21
-2.5000000000000031
 31
0.0
  0
ENDBLK
  5
5C
100
AcDbEntity
  8
0
100
AcDbBlockEnd
  0
BLOCK
  5
5D
100
AcDbEntity
  8
0
100
AcDbBlockBegin
  2
tabs-with-bolt-20
 70
0
 10
0.0
 20
0.0
 30
0.0
  3
tabs-with-bolt-20
  1

  0
LINE
  5
5E
100
AcDbEntity
100
AcDbLine
  8
0
 62
256
370
-1
  6
ByLayer
 10
-1.499999999999996
 20
11.5000000000000036
 30
0.0
 11
1.5000000000000056
 21
11.5000000000000036
 31
0.0
  0
LINE
  5
5F
100
AcDbEntity
100
AcDbLine
  8
0
 62
256
370
-1
  6
ByLayer
 10
-2.8599999999999914
 20
8.3300000000000018
 30
0.0
 11
-2.8599999999999892
 21
10.5000000000000053
 31
0.0
  0
LINE
  5
60
100
AcDbEntity
100
AcDbLine
  8
0
 62
256
370
-1
  6
ByLayer
 10
2.8600000000000017
 20
10.4999999999999982
 30
0.0
 11
2.8599999999999972
 21
8.3300000000000018
 31
0.0
  0
LINE
  5
61
100
AcDbEntity
100
AcDbLine
  8
0
 62
256
370
-1
  6
ByLayer
 10
-1.4999999999999982
 20
8.3300000000000054
 30
0.0
 11
-2.8599999999999914
 21
8.3300000000000018
 31
0.0
  0
LINE
  5
62
100
AcDbEntity
100
AcDbLine
  8
0
 62
256
370
-1
  6
ByLayer
 10
2.8599999999999972
 20
8.3300000000000018
 30
0.0
 11
1.5000000000000049
 21
8.3299999999999983
 31
0.0
  0
LINE
  5
63
100
AcDbEntity
100
AcDbLine
  8
0
 62
256
370
-1
  6
ByLayer
 10
1.5000000000000056
 20
11.5000000000000036
 30
0.0
 11
1.5000000000000024
 21
10.5000000000000036
 31
0.0
  0
LINE
  5
64
100
AcDbEntity
100
AcDbLine
  8
0
 62
256
370
-1
  6
ByLayer
 10
1.5000000000000024
 20
10.5000000000000036
 30
0.0
 11
2.8600000000000017
 21
10.4999999999999982
 31
0.0
  0
LINE
  5
65
100
AcDbEntity
100
AcDbLine
  8
0
 62
256
370
-1
  6
ByLayer
 10
-2.8599999999999892
 20
10.5000000000000053
 30
0.0
 11
-1.4999999999999976
 21
10.5000000000000053
 31
0.0
  0
LINE
  5
66
100
AcDbEntity
100
AcDbLine
  8
0
 62
256
370
-1
  6
ByLayer
 10
-1.4999999999999976
 20
10.5000000000000053
 30
0.0
 11
-1.499999999999996
 21
11.5000000000000036
 31
0.0
  0
LINE
  5
67
100
AcDbEntity
100
AcDbLine
  8
0
 62
256
370
-1
  6
ByLayer
 10
-10.0000000000000018
 20
-4.4999999999999947
 30
0.0
 11
-10.0
 21
0.0000000000000018
 31
0.0
  0
ARC
  5
68
100
AcDbEntity
  8
0
 62
256
370
-1
  6
ByLayer
100
AcDbCircle
 10
-9.5000000000000036
 20
-4.4999999999999929
 30
0.0
 40
0.5
100
AcDbArc
 50
180.0
 51
270.0
  0
LINE
  5
69
100
AcDbEntity
100
AcDbLine
  8
0
 62
256
370
-1
  6
ByLayer
 10
-5.4999999999999964
 20
-5.0
 30
0.0
 11
-9.5000000000000036
 21
-4.9999999999999929
 31
0.0
  0
LINE
  5
6A
100
AcDbEntity
100
AcDbLine
  8
0
 62
256
370
-1
  6
ByLayer
 10
-4.9999999999999982
 20
0.0000000000000009
 30
0.0
 11
-5.0000000000000018
 21
-4.4999999999999947
 31
0.0
  0
ARC
  5
6B
100
AcDbEntity
  8
0
 62
256
370
-1
  6
ByLayer
100
AcDbCircle
 10
-5.4999999999999982
 20
-4.4999999999999982
 30
0.0
 40
0.5
100
AcDbArc
 50
270.0
 51
0.0
  0
LINE
  5
6C
100
AcDbEntity
100
AcDbLine
  8
0
 62
256
370
-1
  6
ByLayer
 10
-1.9999999999999973
 20
0.0000000000000049
 30
0.0
 11
-4.9999999999999982
 21
0.0000000000000009
 31
0.0
  0
LINE
  5
6D
100
AcDbEntity
100
AcDbLine
  8
0
 62
256
370
-1
  6
ByLayer
 10
-1.4999999999999978
 20
0.5000000000000058
 30
0.0
 11
-1.4999999999999982
 21
8.3300000000000054
 31
0.0
  0
ARC
  5
6E
100
AcDbEntity
  8
0
 62
256
370
-1
  6
ByLayer
100
AcDbCircle
 10
-1.9999999999999982
 20
0.5000000000000058
 30
0.0
 40
0.5
100
AcDbArc
 50
270.0000000000000568
 51
0.0
  0
LINE
  5
6F
100
AcDbEntity
100
AcDbLine
  8
0
 62
256
370
-1
  6
ByLayer
 10
1.5000000000000049
 20
8.3299999999999983
 30
0.0
 11
1.4999999999999967
 21
0.5000000000000013
 31
0.0
  0
LINE
  5
70
100
AcDbEntity
100
AcDbLine
  8
0
 62
256
370
-1
  6
ByLayer
 10
1.9999999999999978
 20
0.0000000000000027
 30
0.0
 11
4.9999999999999982
 21
-0.0000000000000009
 31
0.0
  0
ARC
  5
71
100
AcDbEntity
  8
0
 62
256
370
-1
  6
ByLayer
100
AcDbCircle
 10
1.9999999999999991
 20
0.500000000000004
 30
0.0
 40
0.5
100
AcDbArc
 50
180.0
 51
269.9999999999999432
  0
LINE
  5
72
100
AcDbEntity
100
AcDbLine
  8
0
 62
256
370
-1
  6
ByLayer
 10
4.9999999999999982
 20
-0.0000000000000009
 30
0.0
 11
5.0
 21
-4.4999999999999982
 31
0.0
  0
ARC
  5
73
100
AcDbEntity
  8
0
 62
256
370
-1
  6
ByLayer
100
AcDbCircle
 10
5.4999999999999964
 20
-4.5
 30
0.0
 40
0.5
100
AcDbArc
 50
180.0
 51
270.0
  0
LINE
  5
74
100
AcDbEntity
100
AcDbLine
  8
0
 62
256
370
-1
  6
ByLayer
 10
5.4999999999999929
 20
-5.0000000000000018
 30
0.0
 11
9.4999999999999947
 21
-5.0000000000000053
 31
0.0
  0
LINE
  5
75
100
AcDbEntity
100
AcDbLine
  8
0
 62
256
370
-1
  6
ByLayer
 10
9.9999999999999947
 20
-4.5000000000000018
 30
0.0
 11
9.9999999999999982
 21
-0.0000000000000071
 31
0.0
  0
ARC
  5
76
100
AcDbEntity
  8
0
 62
256
370
-1
  6
ByLayer
100
AcDbCircle
 10
9.5000000000000018
 20
-4.4999999999999982
 30
0.0
 40
0.5
100
AcDbArc
 50
270.0
 51
0.0
  0
ENDBLK
  5
77
100
AcDbEntity
  8
0
100
AcDbBlockEnd
  0
ENDSEC
  0
SECTION
  2
ENTITIES
  0
CIRCLE
  5
78
100
AcDbEntity
100
AcDbCircle
  8
1 bottom
 62
256
370
-1
  6
ByLayer
 10
29.9999999999999183
 20
52.4301999999999424
 30
0.0
 40
2.75
  0
CIRCLE
  5
79
100
AcDbEntity
100
AcDbCircle
  8
1 bottom
 62
256
370
-1
  6
ByLayer
 10
9.8999999999999808
 20
65.4301999999999708
 30
0.0
 40
2.75
  0
CIRCLE
  5
7A
100
AcDbEntity
100
AcDbCircle
  8
1 bottom
 62
256
370
-1
  6
ByLayer
 10
50.0999999999999659
 20
65.4301999999999566
 30
0.0
 40
2.75
  0
LINE
  5
7B
100
AcDbEntity
100
AcDbLine
  8
1 bottom
 62
256
370
-1
  6
ByLayer
 10
36.7699999999998894
 20
34.8001999999999185
 30
0.0
 11
34.0299999999999088
 21
34.8001999999999185
 31
0.0
  0
LINE
  5
7C
100
AcDbEntity
100
AcDbLine
  8
1 bottom
 62
256
370
-1
  6
ByLayer
 10
36.7699999999999108
 20
32.0601999999999947
 30
0.0
 11
36.7699999999998894
 21
34.8001999999999185
 31
0.0
  0
LINE
  5
7D
100
AcDbEntity
100
AcDbLine
  8
1 bottom
 62
256
370
-1
  6
ByLayer
 10
34.0299999999999088
 20
34.8001999999999185
 30
0.0
 11
34.0299999999999088
 21
32.0601999999999663
 31
0.0
  0
LINE
  5
7E
100
AcDbEntity
100
AcDbLine
  8
1 bottom
 62
256
370
-1
  6
ByLayer
 10
34.0299999999999088
 20
32.0601999999999663
 30
0.0
 11
36.7699999999999108
 21
32.0601999999999947
 31
0.0
  0
LINE
  5
7F
100
AcDbEntity
100
AcDbLine
  8
1 bottom
 62
256
370
-1
  6
ByLayer
 10
25.9699999999999207
 20
34.8001999999999185
 30
0.0
 11
23.2299999999999081
 21
34.8001999999999185
 31
0.0
  0
LINE
  5
80
100
AcDbEntity
100
AcDbLine
  8
1 bottom
 62
256
370
-1
  6
ByLayer
 10
25.9699999999998816
 20
32.0602000000000018
 30
0.0
 11
25.9699999999999207
 21
34.8001999999999185
 31
0.0
  0
LINE
  5
81
100
AcDbEntity
100
AcDbLine
  8
1 bottom
 62
256
370
-1
  6
ByLayer
 10
23.2299999999999081
 20
34.8001999999999185
 30
0.0
 11
23.2299999999998938
 21
32.0601999999999947
 31
0.0
  0
LINE
  5
82
100
AcDbEntity
100
AcDbLine
  8
1 bottom
 62
256
370
-1
  6
ByLayer
 10
23.2299999999998938
 20
32.0601999999999947
 30
0.0
 11
25.9699999999998816
 21
32.0602000000000018
 31
0.0
  0
LINE
  5
83
100
AcDbEntity
100
AcDbLine
  8
1 bottom
 62
256
370
-1
  6
ByLayer
 10
31.3699999999999513
 20
66.8001999999999185
 30
0.0
 11
28.6299999999999422
 21
66.8001999999999185
 31
0.0
  0
LINE
  5
84
100
AcDbEntity
100
AcDbLine
  8
1 bottom
 62
256
370
-1
  6
ByLayer
 10
31.3699999999999228
 20
64.0601999999999663
 30
0.0
 11
31.3699999999999513
 21
66.8001999999999185
 31
0.0
  0
LINE
  5
85
100
AcDbEntity
100
AcDbLine
  8
1 bottom
 62
256
370
-1
  6
ByLayer
 10
28.6299999999999422
 20
66.8001999999999185
 30
0.0
 11
28.6299999999999422
 21
64.0601999999999663
 31
0.0
  0
LINE
  5
86
100
AcDbEntity
100
AcDbLine
  8
1 bottom
 62
256
370
-1
  6
ByLayer
 10
28.6299999999999422
 20
64.0601999999999663
 30
0.0
 11
31.3699999999999228
 21
64.0601999999999663
 31
0.0
  0
LINE
  5
87
100
AcDbEntity
100
AcDbLine
  8
1 bottom
 62
256
370
-1
  6
ByLayer
 10
36.769999999999925
 20
80.8001999999999185
 30
0.0
 11
34.0299999999999514
 21
80.8001999999999185
 31
0.0
  0
LINE
  5
88
100
AcDbEntity
100
AcDbLine
  8
1 bottom
 62
256
370
-1
  6
ByLayer
 10
36.7699999999999321
 20
78.0601999999999663
 30
0.0
 11
36.769999999999925
 21
80.8001999999999185
 31
0.0
  0
LINE
  5
89
100
AcDbEntity
100
AcDbLine
  8
1 bottom
 62
256
370
-1
  6
ByLayer
 10
34.0299999999999514
 20
80.8001999999999185
 30
0.0
 11
34.0299999999999514
 21
78.0602000000000089
 31
0.0
  0
LINE
  5
8A
100
AcDbEntity
100
AcDbLine
  8
1 bottom
 62
256
370
-1
  6
ByLayer
 10
34.0299999999999514
 20
78.0602000000000089
 30
0.0
 11
36.7699999999999321
 21
78.0601999999999663
 31
0.0
  0
LINE
  5
8B
100
AcDbEntity
100
AcDbLine
  8
1 bottom
 62
256
370
-1
  6
ByLayer
 10
25.9699999999999491
 20
80.8001999999999185
 30
0.0
 11
23.22999999999994
 21
80.8001999999999185
 31
0.0
  0
LINE
  5
8C
100
AcDbEntity
100
AcDbLine
  8
1 bottom
 62
256
370
-1
  6
ByLayer
 10
25.9699999999999491
 20
78.0601999999999663
 30
0.0
 11
25.9699999999999491
 21
80.8001999999999185
 31
0.0
  0
LINE
  5
8D
100
AcDbEntity
100
AcDbLine
  8
1 bottom
 62
256
370
-1
  6
ByLayer
 10
23.22999999999994
 20
80.8001999999999185
 30
0.0
 11
23.2299999999999365
 21
78.0601999999999663
 31
0.0
  0
LINE
  5
8E
100
AcDbEntity
100
AcDbLine
  8
1 bottom
 62
256
370
-1
  6
ByLayer
 10
23.2299999999999365
 20
78.0601999999999663
 30
0.0
 11
25.9699999999999491
 21
78.0601999999999663
 31
0.0
  0
INSERT
  5
8F
100
AcDbEntity
100
AcDbBlockReference
  8
1 bottom
 62
256
370
-1
  6
ByLayer
  2
holes-20
 10
13.0000025951828064
 20
102.4301999999999708
 30
0.0
 50
360.0
 44
1.0
 45
1.0
  0
CIRCLE
  5
90
100
AcDbEntity
100
AcDbCircle
  8
1 bottom
 62
256
370
-1
  6
ByLayer
 10
45.0399999999999636
 20
65.4701999999999487
 30
0.0
 40
2.7000000000000002
  0
CIRCLE
  5
91
100
AcDbEntity
100
AcDbCircle
  8
1 bottom
 62
256
370
-1
  6
ByLayer
 10
30.0399999999999565
 20
50.4701999999999344
 30
0.0
 40
2.7000000000000002
  0
CIRCLE
  5
92
100
AcDbEntity
100
AcDbCircle
  8
1 bottom
 62
256
370
-1
  6
ByLayer
 10
15.0399999999999601
 20
65.4701999999999487
 30
0.0
 40
2.7000000000000002
  0
INSERT
  5
93
100
AcDbEntity
100
AcDbBlockReference
  8
1 bottom
 62
256
370
-1
  6
ByLayer
  2
holes-20
 10
13.0000025951827602
 20
10.5064000000000135
 30
0.0
 50
360.0
 44
1.0
 45
1.0
  0
INSERT
  5
94
100
AcDbEntity
100
AcDbBlockReference
  8
1 bottom
 62
256
370
-1
  6
ByLayer
  2
holes-20
 10
47.0
 20
102.4301999999999566
 30
0.0
 50
360.0
 44
1.0
 45
1.0
  0
INSERT
  5
95
100
AcDbEntity
100
AcDbBlockReference
  8
1 bottom
 62
256
370
-1
  6
ByLayer
  2
holes-20
 10
46.9999999999999147
 20
10.5063999999999851
 30
0.0
 50
360.0
 44
1.0
 45
1.0
  0
LINE
  5
96
100
AcDbEntity
100
AcDbLine
  8
1 bottom
 62
256
370
-1
  6
ByLayer
 10
61.9999999999999218
 20
6.4681000000000353
 30
0.0
 11
-2.0000000000000213
 21
6.4681000000001347
 31
0.0
  0
LINE
  5
97
100
AcDbEntity
100
AcDbLine
  8
1 bottom
 62
256
370
-1
  6
ByLayer
 10
-2.0000000000000071
 20
6.4681000000000495
 30
0.0
 11
-1.9999999999999361
 21
106.4681000000000211
 31
0.0
  0
LINE
  5
98
100
AcDbEntity
100
AcDbLine
  8
1 bottom
 62
256
370
-1
  6
ByLayer
 10
61.9999999999999858
 20
106.4681000000000068
 30
0.0
 11
61.9999999999999218
 21
6.4681000000000353
 31
0.0
  0
LINE
  5
99
100
AcDbEntity
100
AcDbLine
  8
1 bottom
 62
256
370
-1
  6
ByLayer
 10
21.9999999999999787
 20
106.4681000000000495
 30
0.0
 11
61.9999999999999858
 21
106.4681000000000068
 31
0.0
  0
ARC
  5
9A
100
AcDbEntity
  8
1 bottom
 62
256
370
-1
  6
ByLayer
100
AcDbCircle
 10
19.9999999999999964
 20
111.5318999999999647
 30
0.0
 40
2.0
100
AcDbArc
 50
0.0
 51
90.0
  0
LINE
  5
9B
100
AcDbEntity
100
AcDbLine
  8
1 bottom
 62
256
370
-1
  6
ByLayer
 10
21.9999999999999929
 20
111.5318999999999505
 30
0.0
 11
22.0000000000000036
 21
106.4681000000000068
 31
0.0
  0
ARC
  5
9C
100
AcDbEntity
  8
1 bottom
 62
256
370
-1
  6
ByLayer
100
AcDbCircle
 10
11.0380999999999823
 20
111.5318999999999505
 30
0.0
 40
2.0
100
AcDbArc
 50
90.0
 51
180.0
  0
LINE
  5
9D
100
AcDbEntity
100
AcDbLine
  8
1 bottom
 62
256
370
-1
  6
ByLayer
 10
9.0380999999999929
 20
106.4681000000000495
 30
0.0
 11
9.0380999999999894
 21
111.5318999999999505
 31
0.0
  0
LINE
  5
9E
100
AcDbEntity
100
AcDbLine
  8
1 bottom
 62
256
370
-1
  6
ByLayer
 10
-1.9999999999999361
 20
106.4681000000000211
 30
0.0
 11
9.0380999999999823
 21
106.4681000000000353
 31
0.0
  0
LINE
  5
9F
100
AcDbEntity
100
AcDbLine
  8
1 bottom
 62
256
370
-1
  6
ByLayer
 10
11.0380999999999787
 20
113.5318999999999505
 30
0.0
 11
19.9999999999999929
 21
113.5318999999999363
 31
0.0
  0
CIRCLE
  5
A0
100
AcDbEntity
100
AcDbCircle
  8
1 bottom
 62
256
370
-1
  6
ByLayer
 10
15.5190500000001421
 20
110.0699999999998937
 30
0.0
 40
1.5600000000000307
  0
CIRCLE
  5
A1
100
AcDbEntity
100
AcDbCircle
  8
1 bottom
 62
256
370
-1
  6
ByLayer
 10
15.5190500000000693
 20
110.0700000000000216
 30
0.0
 40
1.5600000000000307
  0
LINE
  5
A2
100
AcDbEntity
100
AcDbLine
  8
7 belt
 62
256
370
-1
  6
ByLayer
 10
280.2102378741144548
 20
-162.5
 30
0.0
 11
34.2102378741144406
 21
-162.4999999999999432
 31
0.0
  0
ARC
  5
A3
100
AcDbEntity
  8
7 belt
 62
256
370
-1
  6
ByLayer
100
AcDbCircle
 10
-14.2102378741145117
 20
-83.5000000000000284
 30
0.0
 40
6.0
100
AcDbArc
 50
90.0
 51
215.217592968192605
  0
LINE
  5
A4
100
AcDbEntity
100
AcDbLine
  8
7 belt
 62
256
370
-1
  6
ByLayer
 10
-19.1120450537030422
 20
-86.9600991855918721
 30
0.0
 11
34.2102378741144264
 21
-162.4999999999999716
 31
0.0
  0
ARC
  5
A5
100
AcDbEntity
  8
7 belt
 62
256
370
-1
  6
ByLayer
100
AcDbCircle
 10
231.7897621258859999
 20
-83.4999999999999716
 30
0.0
 40
6.0
100
AcDbArc
 50
90.0
 51
215.217592968192605
  0
LINE
  5
A6
100
AcDbEntity
100
AcDbLine
  8
7 belt
 62
256
370
-1
  6
ByLayer
 10
-14.2102378741144832
 20
-77.4999999999999147
 30
0.0
 11
231.7897621258859999
 21
-77.4999999999999432
 31
0.0
  0
LINE
  5
A7
100
AcDbEntity
100
AcDbLine
  8
7 belt
 62
256
370
-1
  6
ByLayer
 10
280.2102378741144548
 20
-162.5000000000001705
 30
0.0
 11
226.8879549462961904
 21
-86.9600991855918721
 31
0.0
  0
CIRCLE
  5
A8
100
AcDbEntity
100
AcDbCircle
  8
2 top
 62
256
370
-1
  6
ByLayer
 10
66.0380999999999574
 20
102.4299999999998079
 30
0.0
 40
1.5
  0
LINE
  5
A9
100
AcDbEntity
100
AcDbLine
  8
2 top
 62
256
370
-1
  6
ByLayer
 10
71.0380999999999574
 20
104.9299999999998079
 30
0.0
 11
71.0380999999999574
 21
99.9299999999998079
 31
0.0
  0
CIRCLE
  5
AA
100
AcDbEntity
100
AcDbCircle
  8
2 top
 62
256
370
-1
  6
ByLayer
 10
157.9618999999999573
 20
102.4299999999997652
 30
0.0
 40
1.5
  0
CIRCLE
  5
AB
100
AcDbEntity
100
AcDbCircle
  8
2 top
 62
256
370
-1
  6
ByLayer
 10
66.0380999999998437
 20
10.506199999999879
 30
0.0
 40
1.5
  0
CIRCLE
  5
AC
100
AcDbEntity
100
AcDbCircle
  8
2 top
 62
256
370
-1
  6
ByLayer
 10
157.9618999999999005
 20
10.5061999999997511
 30
0.0
 40
1.5
  0
LINE
  5
AD
100
AcDbEntity
100
AcDbLine
  8
2 top
 62
256
370
-1
  6
ByLayer
 10
91.0380999999999574
 20
104.9299999999997937
 30
0.0
 11
71.0380999999999574
 21
104.9299999999998079
 31
0.0
  0
LINE
  5
AE
100
AcDbEntity
100
AcDbLine
  8
2 top
 62
256
370
-1
  6
ByLayer
 10
91.0380999999999574
 20
104.9299999999997937
 30
0.0
 11
91.038099999999929
 21
99.9299999999997794
 31
0.0
  0
LINE
  5
AF
100
AcDbEntity
100
AcDbLine
  8
2 top
 62
256
370
-1
  6
ByLayer
 10
71.0380999999999574
 20
99.9299999999998079
 30
0.0
 11
91.038099999999929
 21
99.9299999999997794
 31
0.0
  0
LINE
  5
B0
100
AcDbEntity
100
AcDbLine
  8
2 top
 62
256
370
-1
  6
ByLayer
 10
71.0380999999998437
 20
13.0061999999998505
 30
0.0
 11
71.0380999999998437
 21
8.0061999999998505
 31
0.0
  0
LINE
  5
B1
100
AcDbEntity
100
AcDbLine
  8
2 top
 62
256
370
-1
  6
ByLayer
 10
91.0380999999998721
 20
13.0061999999998292
 30
0.0
 11
71.0380999999998437
 21
13.0061999999998505
 31
0.0
  0
LINE
  5
B2
100
AcDbEntity
100
AcDbLine
  8
2 top
 62
256
370
-1
  6
ByLayer
 10
91.0380999999998721
 20
13.0061999999998292
 30
0.0
 11
91.0380999999998153
 21
8.0061999999998292
 31
0.0
  0
LINE
  5
B3
100
AcDbEntity
100
AcDbLine
  8
2 top
 62
256
370
-1
  6
ByLayer
 10
71.0380999999998437
 20
8.0061999999998505
 30
0.0
 11
91.0380999999998153
 21
8.0061999999998292
 31
0.0
  0
LINE
  5
B4
100
AcDbEntity
100
AcDbLine
  8
2 top
 62
256
370
-1
  6
ByLayer
 10
161.9999999999999147
 20
6.4680999999999216
 30
0.0
 11
61.9999999999999218
 21
6.4681000000000353
 31
0.0
  0
LINE
  5
B5
100
AcDbEntity
100
AcDbLine
  8
2 top
 62
256
370
-1
  6
ByLayer
 10
161.9999999999999432
 20
106.4680999999999074
 30
0.0
 11
161.9999999999999147
 21
6.4680999999999216
 31
0.0
  0
LINE
  5
B6
100
AcDbEntity
100
AcDbLine
  8
2 top
 62
256
370
-1
  6
ByLayer
 10
103.9999999999999432
 20
104.9299999999997937
 30
0.0
 11
103.9999999999999432
 21
99.929999999999751
 31
0.0
  0
LINE
  5
B7
100
AcDbEntity
100
AcDbLine
  8
2 top
 62
256
370
-1
  6
ByLayer
 10
103.9999999999998579
 20
13.0061999999998079
 30
0.0
 11
103.9999999999998579
 21
8.0061999999998079
 31
0.0
  0
CIRCLE
  5
B8
100
AcDbEntity
100
AcDbCircle
  8
2 top
 62
256
370
-1
  6
ByLayer
 10
111.9999999999999147
 20
52.4299999999998079
 30
0.0
 40
1.5
  0
LINE
  5
B9
100
AcDbEntity
100
AcDbLine
  8
2 top
 62
256
370
-1
  6
ByLayer
 10
152.9999999999999147
 20
106.4680999999999074
 30
0.0
 11
152.9999999999999147
 21
97.4680999999998221
 31
0.0
  0
LINE
  5
BA
100
AcDbEntity
100
AcDbLine
  8
2 top
 62
256
370
-1
  6
ByLayer
 10
152.9999999999999147
 20
97.4680999999998221
 30
0.0
 11
123.9999999999999147
 21
97.4680999999998079
 31
0.0
  0
LINE
  5
BB
100
AcDbEntity
100
AcDbLine
  8
2 top
 62
256
370
-1
  6
ByLayer
 10
123.9999999999999147
 20
97.4680999999998079
 30
0.0
 11
123.9999999999999147
 21
106.4680999999999074
 31
0.0
  0
LINE
  5
BC
100
AcDbEntity
100
AcDbLine
  8
2 top
 62
256
370
-1
  6
ByLayer
 10
152.9999999999999147
 20
106.4680999999999074
 30
0.0
 11
161.9999999999999716
 21
106.4680999999999074
 31
0.0
  0
LINE
  5
BD
100
AcDbEntity
100
AcDbLine
  8
2 top
 62
256
370
-1
  6
ByLayer
 10
103.9999999999999432
 20
106.4680999999999074
 30
0.0
 11
123.9999999999999147
 21
106.4680999999999074
 31
0.0
  0
LINE
  5
BE
100
AcDbEntity
100
AcDbLine
  8
2 top
 62
256
370
-1
  6
ByLayer
 10
113.9999999999999432
 20
104.929999999999751
 30
0.0
 11
113.9999999999999432
 21
99.9299999999997794
 31
0.0
  0
LINE
  5
BF
100
AcDbEntity
100
AcDbLine
  8
2 top
 62
256
370
-1
  6
ByLayer
 10
113.9999999999998579
 20
13.0061999999997937
 30
0.0
 11
113.9999999999998863
 21
8.0061999999997795
 31
0.0
  0
LINE
  5
C0
100
AcDbEntity
100
AcDbLine
  8
2 top
 62
256
370
-1
  6
ByLayer
 10
103.9999999999999432
 20
99.9299999999997794
 30
0.0
 11
113.9999999999999432
 21
99.9299999999997794
 31
0.0
  0
LINE
  5
C1
100
AcDbEntity
100
AcDbLine
  8
2 top
 62
256
370
-1
  6
ByLayer
 10
113.9999999999999432
 20
104.929999999999751
 30
0.0
 11
103.9999999999999432
 21
104.9299999999997937
 31
0.0
  0
LINE
  5
C2
100
AcDbEntity
100
AcDbLine
  8
2 top
 62
256
370
-1
  6
ByLayer
 10
113.9999999999998579
 20
13.0061999999997937
 30
0.0
 11
103.9999999999998579
 21
13.0061999999998079
 31
0.0
  0
LINE
  5
C3
100
AcDbEntity
100
AcDbLine
  8
2 top
 62
256
370
-1
  6
ByLayer
 10
103.9999999999998579
 20
8.0061999999998079
 30
0.0
 11
113.9999999999998863
 21
8.0061999999997795
 31
0.0
  0
ARC
  5
C4
100
AcDbEntity
  8
2 top
 62
256
370
-1
  6
ByLayer
100
AcDbCircle
 10
101.9999999999999147
 20
111.531899999999851
 30
0.0
 40
2.0
100
AcDbArc
 50
0.0
 51
90.0
  0
LINE
  5
C5
100
AcDbEntity
100
AcDbLine
  8
2 top
 62
256
370
-1
  6
ByLayer
 10
103.9999999999999147
 20
111.531899999999851
 30
0.0
 11
103.9999999999999432
 21
106.4680999999999074
 31
0.0
  0
ARC
  5
C6
100
AcDbEntity
  8
2 top
 62
256
370
-1
  6
ByLayer
100
AcDbCircle
 10
93.0380999999999005
 20
111.5318999999998368
 30
0.0
 40
2.0
100
AcDbArc
 50
90.0
 51
180.0
  0
LINE
  5
C7
100
AcDbEntity
100
AcDbLine
  8
2 top
 62
256
370
-1
  6
ByLayer
 10
91.0380999999999005
 20
106.4680999999999216
 30
0.0
 11
91.0380999999999005
 21
111.5318999999998368
 31
0.0
  0
LINE
  5
C8
100
AcDbEntity
100
AcDbLine
  8
2 top
 62
256
370
-1
  6
ByLayer
 10
93.0380999999999005
 20
113.531899999999851
 30
0.0
 11
101.9999999999999147
 21
113.5318999999998368
 31
0.0
  0
LINE
  5
C9
100
AcDbEntity
100
AcDbLine
  8
2 top
 62
256
370
-1
  6
ByLayer
 10
61.9999999999999787
 20
106.46809999999995
 30
0.0
 11
91.0380999999999005
 21
106.4680999999999358
 31
0.0
  0
CIRCLE
  5
CA
100
AcDbEntity
100
AcDbCircle
  8
2 top
 62
256
370
-1
  6
ByLayer
 10
97.5190500000000497
 20
110.0699999999997942
 30
0.0
 40
2.3999999999999999
  0
ARC
  5
CB
100
AcDbEntity
  8
4 side
 62
256
370
-1
  6
ByLayer
100
AcDbCircle
 10
188.8736953759387802
 20
99.6062665638763463
 30
0.0
 40
1.0
100
AcDbArc
 50
270.0
 51
0.0
  0
CIRCLE
  5
CC
100
AcDbEntity
100
AcDbCircle
  8
4 side
 62
256
370
-1
  6
ByLayer
 10
170.5736953759387973
 20
100.6073664389479916
 30
0.0
 40
3.5
  0
ARC
  5
CD
100
AcDbEntity
  8
4 side
 62
256
370
-1
  6
ByLayer
100
AcDbCircle
 10
185.0249953759388291
 20
103.9062665638763576
 30
0.0
 40
2.1560000000000001
100
AcDbArc
 50
46.4199999999999875
 51
180.0
  0
ARC
  5
CE
100
AcDbEntity
  8
4 side
 62
256
370
-1
  6
ByLayer
100
AcDbCircle
 10
188.8736953759387802
 20
106.4680999999999074
 30
0.0
 40
1.0
100
AcDbArc
 50
270.0
 51
0.0000000000000127
  0
LINE
  5
CF
100
AcDbEntity
100
AcDbLine
  8
4 side
 62
256
370
-1
  6
ByLayer
 10
188.8736953759387802
 20
105.4680999999999074
 30
0.0
 11
186.5112700200764664
 21
105.4680999999999074
 31
0.0
  0
ARC
  5
D0
100
AcDbEntity
  8
4 side
 62
256
370
-1
  6
ByLayer
100
AcDbCircle
 10
176.1236953759382686
 20
107.6062665638763463
 30
0.0
 40
1.0
100
AcDbArc
 50
359.9999999999996021
 51
359.9999999999996021
  0
LINE
  5
D1
100
AcDbEntity
100
AcDbLine
  8
4 side
 62
256
370
-1
  6
ByLayer
 10
183.0831517676183751
 20
104.8499425680351749
 30
0.0
 11
177.053431604889596
 21
107.2380403500123691
 31
0.0
  0
LINE
  5
D2
100
AcDbEntity
100
AcDbLine
  8
4 side
 62
256
370
-1
  6
ByLayer
 10
168.848068663498168
 20
-2.5674818795109502
 30
0.0
 11
168.848068663498168
 21
-2.5674818795109502
 31
0.0
  0
LINE
  5
D3
100
AcDbEntity
100
AcDbLine
  8
4 side
 62
256
370
-1
  6
ByLayer
 10
168.848068663498168
 20
-2.5674818795109502
 30
0.0
 11
168.848068663498168
 21
-2.5674818795109502
 31
0.0
  0
CIRCLE
  5
D4
100
AcDbEntity
100
AcDbCircle
  8
4 side
 62
256
370
-1
  6
ByLayer
 10
170.3480686634980827
 20
-2.8937334361236537
 30
0.0
 40
1.5
  0
LINE
  5
D5
100
AcDbEntity
100
AcDbLine
  8
4 side
 62
256
370
-1
  6
ByLayer
 10
168.8480686634980543
 20
-6.3937334361236537
 30
0.0
 11
168.8480686634979975
 21
-2.8937334361236537
 31
0.0
  0
LINE
  5
D6
100
AcDbEntity
100
AcDbLine
  8
4 side
 62
256
370
-1
  6
ByLayer
 10
168.8480686634979975
 20
-2.8937334361236537
 30
0.0
 11
168.848068663498168
 21
0.6062665638763463
 31
0.0
  0
ARC
  5
D7
100
AcDbEntity
  8
4 side
 62
256
370
-1
  6
ByLayer
100
AcDbCircle
 10
185.0236907518776093
 20
-6.6937334361236651
 30
0.0
 40
2.1560000000000001
100
AcDbArc
 50
180.0
 51
313.5800000000000409
  0
ARC
  5
D8
100
AcDbEntity
  8
4 side
 62
256
370
-1
  6
ByLayer
100
AcDbCircle
 10
188.8723907518776173
 20
-9.2555668722472149
 30
0.0
 40
1.0
100
AcDbArc
 50
360.0
 51
90.0
  0
LINE
  5
D9
100
AcDbEntity
100
AcDbLine
  8
4 side
 62
256
370
-1
  6
ByLayer
 10
188.8723907518777025
 20
-8.2555668722472149
 30
0.0
 11
186.509965396015275
 21
-8.2555668722472149
 31
0.0
  0
ARC
  5
DA
100
AcDbEntity
  8
4 side
 62
256
370
-1
  6
ByLayer
100
AcDbCircle
 10
176.1223907518786973
 20
-10.3937334361236537
 30
0.0
 40
1.0
100
AcDbArc
 50
0.0000000000003944
 51
0.0000000000003944
  0
LINE
  5
DB
100
AcDbEntity
100
AcDbLine
  8
4 side
 62
256
370
-1
  6
ByLayer
 10
183.0818471435572121
 20
-7.6374094402824824
 30
0.0
 11
177.0521269808281772
 21
-10.0255072222596766
 31
0.0
  0
ARC
  5
DC
100
AcDbEntity
  8
4 side
 62
256
370
-1
  6
ByLayer
100
AcDbCircle
 10
188.8723907518776457
 20
-2.3937334361237106
 30
0.0
 40
1.0
100
AcDbArc
 50
0.0
 51
90.0
  0
LINE
  5
DD
100
AcDbEntity
100
AcDbLine
  8
4 side
 62
256
370
-1
  6
ByLayer
 10
166.9986953759388086
 20
80.6062665638763463
 30
0.0
 11
161.9986953759100174
 21
80.6062665638763463
 31
0.0
  0
LINE
  5
DE
100
AcDbEntity
100
AcDbLine
  8
4 side
 62
256
370
-1
  6
ByLayer
 10
166.9986953759388086
 20
80.6062665638763463
 30
0.0
 11
166.9986953759387802
 21
75.606263968693554
 31
0.0
  0
LINE
  5
DF
100
AcDbEntity
100
AcDbLine
  8
4 side
 62
256
370
-1
  6
ByLayer
 10
166.9986953759388371
 20
55.606263968693554
 30
0.0
 11
166.9986953759388939
 21
41.6062665638763463
 31
0.0
  0
LINE
  5
E0
100
AcDbEntity
100
AcDbLine
  8
4 side
 62
256
370
-1
  6
ByLayer
 10
166.9986953759387234
 20
16.6062665638763463
 30
0.0
 11
161.9986953757039601
 21
16.6062665638763463
 31
0.0
  0
LINE
  5
E1
100
AcDbEntity
100
AcDbLine
  8
4 side
 62
256
370
-1
  6
ByLayer
 10
166.9986953759386381
 20
21.6062665638763463
 30
0.0
 11
166.9986953759387234
 21
16.6062665638763463
 31
0.0
  0
LINE
  5
E2
100
AcDbEntity
100
AcDbLine
  8
4 side
 62
256
370
-1
  6
ByLayer
 10
174.1019935039859661
 20
67.1062639686935256
 30
0.0
 11
174.1019935039859661
 21
64.1062639686935256
 31
0.0
  0
LINE
  5
E3
100
AcDbEntity
100
AcDbLine
  8
4 side
 62
256
370
-1
  6
ByLayer
 10
170.9319935039859502
 20
68.4662639686935393
 30
0.0
 11
173.1019935039859377
 21
68.4662639686935393
 31
0.0
  0
LINE
  5
E4
100
AcDbEntity
100
AcDbLine
  8
4 side
 62
256
370
-1
  6
ByLayer
 10
173.1019935039859377
 20
62.7462639686935404
 30
0.0
 11
170.9319935039859502
 21
62.7462639686935404
 31
0.0
  0
LINE
  5
E5
100
AcDbEntity
100
AcDbLine
  8
4 side
 62
256
370
-1
  6
ByLayer
 10
170.9319935039859502
 20
67.1062639686935256
 30
0.0
 11
170.9319935039859502
 21
68.4662639686935393
 31
0.0
  0
LINE
  5
E6
100
AcDbEntity
100
AcDbLine
  8
4 side
 62
256
370
-1
  6
ByLayer
 10
170.9319935039859502
 20
62.7462639686935404
 30
0.0
 11
170.9319935039859502
 21
64.1062639686935256
 31
0.0
  0
LINE
  5
E7
100
AcDbEntity
100
AcDbLine
  8
4 side
 62
256
370
-1
  6
ByLayer
 10
174.1019935039859661
 20
64.1062639686935256
 30
0.0
 11
173.1019935039859377
 21
64.1062639686935256
 31
0.0
  0
LINE
  5
E8
100
AcDbEntity
100
AcDbLine
  8
4 side
 62
256
370
-1
  6
ByLayer
 10
173.1019935039859377
 20
64.1062639686935256
 30
0.0
 11
173.1019935039859377
 21
62.7462639686935404
 31
0.0
  0
LINE
  5
E9
100
AcDbEntity
100
AcDbLine
  8
4 side
 62
256
370
-1
  6
ByLayer
 10
173.1019935039859377
 20
68.4662639686935393
 30
0.0
 11
173.1019935039859377
 21
67.1062639686935256
 31
0.0
  0
LINE
  5
EA
100
AcDbEntity
100
AcDbLine
  8
4 side
 62
256
370
-1
  6
ByLayer
 10
173.1019935039859377
 20
67.1062639686935256
 30
0.0
 11
174.1019935039859661
 21
67.1062639686935256
 31
0.0
  0
LINE
  5
EB
100
AcDbEntity
100
AcDbLine
  8
4 side
 62
256
370
-1
  6
ByLayer
 10
167.4986953759388086
 20
67.1062639686935256
 30
0.0
 11
170.9319935039859502
 21
67.1062639686935256
 31
0.0
  0
LINE
  5
EC
100
AcDbEntity
100
AcDbLine
  8
4 side
 62
256
370
-1
  6
ByLayer
 10
170.9319935039859502
 20
64.1062639686935256
 30
0.0
 11
167.4986953759388371
 21
64.1062639686935256
 31
0.0
  0
LINE
  5
ED
100
AcDbEntity
100
AcDbLine
  8
4 side
 62
256
370
-1
  6
ByLayer
 10
162.4986953759388939
 20
75.606263968693554
 30
0.0
 11
166.9986953759387802
 21
75.606263968693554
 31
0.0
  0
LINE
  5
EE
100
AcDbEntity
100
AcDbLine
  8
4 side
 62
256
370
-1
  6
ByLayer
 10
166.9986953759388086
 20
70.6062639686935256
 30
0.0
 11
162.4986953759387802
 21
70.6062639686935256
 31
0.0
  0
LINE
  5
EF
100
AcDbEntity
100
AcDbLine
  8
4 side
 62
256
370
-1
  6
ByLayer
 10
166.9986953759387802
 20
67.6062639686935256
 30
0.0
 11
166.9986953759388086
 21
70.6062639686935256
 31
0.0
  0
ARC
  5
F0
100
AcDbEntity
  8
4 side
 62
256
370
-1
  6
ByLayer
100
AcDbCircle
 10
167.4986953759388371
 20
67.606263968693554
 30
0.0
 40
0.5
100
AcDbArc
 50
180.0000000000000568
 51
270.0
  0
LINE
  5
F1
100
AcDbEntity
100
AcDbLine
  8
4 side
 62
256
370
-1
  6
ByLayer
 10
166.9986953759388086
 20
63.606263968693554
 30
0.0
 11
166.9986953759388371
 21
60.606263968693554
 31
0.0
  0
ARC
  5
F2
100
AcDbEntity
  8
4 side
 62
256
370
-1
  6
ByLayer
100
AcDbCircle
 10
167.4986953759388086
 20
63.606263968693554
 30
0.0
 40
0.5
100
AcDbArc
 50
90.0
 51
179.9999999999999432
  0
LINE
  5
F3
100
AcDbEntity
100
AcDbLine
  8
4 side
 62
256
370
-1
  6
ByLayer
 10
166.9986953759388371
 20
60.606263968693554
 30
0.0
 11
162.4986953759386665
 21
60.606263968693554
 31
0.0
  0
LINE
  5
F4
100
AcDbEntity
100
AcDbLine
  8
4 side
 62
256
370
-1
  6
ByLayer
 10
162.4986953759385244
 20
55.606263968693554
 30
0.0
 11
166.9986953759388371
 21
55.606263968693554
 31
0.0
  0
LINE
  5
F5
100
AcDbEntity
100
AcDbLine
  8
4 side
 62
256
370
-1
  6
ByLayer
 10
174.1019935039859661
 20
33.1062665638763463
 30
0.0
 11
174.1019935039859661
 21
30.1062665638763463
 31
0.0
  0
LINE
  5
F6
100
AcDbEntity
100
AcDbLine
  8
4 side
 62
256
370
-1
  6
ByLayer
 10
170.931993503986007
 20
34.4662665638763315
 30
0.0
 11
173.1019935039860229
 21
34.4662665638763315
 31
0.0
  0
LINE
  5
F7
100
AcDbEntity
100
AcDbLine
  8
4 side
 62
256
370
-1
  6
ByLayer
 10
173.1019935039859945
 20
28.7462665638763326
 30
0.0
 11
170.9319935039859786
 21
28.7462665638763326
 31
0.0
  0
LINE
  5
F8
100
AcDbEntity
100
AcDbLine
  8
4 side
 62
256
370
-1
  6
ByLayer
 10
170.9319935039859217
 20
33.1062665638763463
 30
0.0
 11
170.931993503986007
 21
34.4662665638763315
 31
0.0
  0
LINE
  5
F9
100
AcDbEntity
100
AcDbLine
  8
4 side
 62
256
370
-1
  6
ByLayer
 10
170.9319935039859786
 20
28.7462665638763326
 30
0.0
 11
170.9319935039858933
 21
30.1062665638763463
 31
0.0
  0
LINE
  5
FA
100
AcDbEntity
100
AcDbLine
  8
4 side
 62
256
370
-1
  6
ByLayer
 10
174.1019935039859661
 20
30.1062665638763463
 30
0.0
 11
173.1019935039859092
 21
30.1062665638763463
 31
0.0
  0
LINE
  5
FB
100
AcDbEntity
100
AcDbLine
  8
4 side
 62
256
370
-1
  6
ByLayer
 10
173.1019935039859092
 20
30.1062665638763463
 30
0.0
 11
173.1019935039859945
 21
28.7462665638763326
 31
0.0
  0
LINE
  5
FC
100
AcDbEntity
100
AcDbLine
  8
4 side
 62
256
370
-1
  6
ByLayer
 10
173.1019935039860229
 20
34.4662665638763315
 30
0.0
 11
173.1019935039858524
 21
33.1062665638763463
 31
0.0
  0
LINE
  5
FD
100
AcDbEntity
100
AcDbLine
  8
4 side
 62
256
370
-1
  6
ByLayer
 10
173.1019935039858524
 20
33.1062665638763463
 30
0.0
 11
174.1019935039859661
 21
33.1062665638763463
 31
0.0
  0
LINE
  5
FE
100
AcDbEntity
100
AcDbLine
  8
4 side
 62
256
370
-1
  6
ByLayer
 10
167.498695375938695
 20
33.1062665638763463
 30
0.0
 11
170.9319935039859217
 21
33.1062665638763463
 31
0.0
  0
LINE
  5
FF
100
AcDbEntity
100
AcDbLine
  8
4 side
 62
256
370
-1
  6
ByLayer
 10
170.9319935039858933
 20
30.1062665638763463
 30
0.0
 11
167.4986953759387802
 21
30.1062665638763463
 31
0.0
  0
LINE
  5
100
100
AcDbEntity
100
AcDbLine
  8
4 side
 62
256
370
-1
  6
ByLayer
 10
166.9986953759388655
 20
33.6062665638763463
 30
0.0
 11
166.9986953759388939
 21
36.6062665638763463
 31
0.0
  0
ARC
  5
101
100
AcDbEntity
  8
4 side
 62
256
370
-1
  6
ByLayer
100
AcDbCircle
 10
167.4986953759387234
 20
33.6062665638763463
 30
0.0
 40
0.5
100
AcDbArc
 50
180.0000000000000568
 51
270.0
  0
LINE
  5
102
100
AcDbEntity
100
AcDbLine
  8
4 side
 62
256
370
-1
  6
ByLayer
 10
166.9986953759388655
 20
29.6062665638763463
 30
0.0
 11
166.9986953759387802
 21
26.6062665638763463
 31
0.0
  0
ARC
  5
103
100
AcDbEntity
  8
4 side
 62
256
370
-1
  6
ByLayer
100
AcDbCircle
 10
167.4986953759388939
 20
29.6062665638763463
 30
0.0
 40
0.5
100
AcDbArc
 50
90.0
 51
179.9999999999999432
  0
LINE
  5
104
100
AcDbEntity
100
AcDbLine
  8
4 side
 62
256
370
-1
  6
ByLayer
 10
162.4986953759394623
 20
41.6062665638763463
 30
0.0
 11
166.9986953759388939
 21
41.6062665638763463
 31
0.0
  0
LINE
  5
105
100
AcDbEntity
100
AcDbLine
  8
4 side
 62
256
370
-1
  6
ByLayer
 10
166.9986953759388939
 20
36.6062665638763463
 30
0.0
 11
162.4986953759380981
 21
36.6062665638763463
 31
0.0
  0
LINE
  5
106
100
AcDbEntity
100
AcDbLine
  8
4 side
 62
256
370
-1
  6
ByLayer
 10
166.9986953759388655
 20
33.6062665638763463
 30
0.0
 11
166.9986953759388939
 21
36.6062665638763463
 31
0.0
  0
ARC
  5
107
100
AcDbEntity
  8
4 side
 62
256
370
-1
  6
ByLayer
100
AcDbCircle
 10
167.4986953759387234
 20
33.6062665638763463
 30
0.0
 40
0.5
100
AcDbArc
 50
180.0000000000000568
 51
270.0
  0
LINE
  5
108
100
AcDbEntity
100
AcDbLine
  8
4 side
 62
256
370
-1
  6
ByLayer
 10
166.9986953759388655
 20
29.6062665638763463
 30
0.0
 11
166.9986953759387802
 21
26.6062665638763463
 31
0.0
  0
ARC
  5
109
100
AcDbEntity
  8
4 side
 62
256
370
-1
  6
ByLayer
100
AcDbCircle
 10
167.4986953759388939
 20
29.6062665638763463
 30
0.0
 40
0.5
100
AcDbArc
 50
90.0
 51
179.9999999999999432
  0
LINE
  5
10A
100
AcDbEntity
100
AcDbLine
  8
4 side
 62
256
370
-1
  6
ByLayer
 10
166.9986953759387802
 20
26.6062665638763463
 30
0.0
 11
162.498695375937757
 21
26.6062665638763463
 31
0.0
  0
LINE
  5
10B
100
AcDbEntity
100
AcDbLine
  8
4 side
 62
256
370
-1
  6
ByLayer
 10
162.498695375936677
 20
21.6062665638763463
 30
0.0
 11
166.9986953759386381
 21
21.6062665638763463
 31
0.0
  0
CIRCLE
  5
10C
100
AcDbEntity
100
AcDbCircle
  8
4 side
 62
256
370
-1
  6
ByLayer
 10
170.5736953759388257
 20
106.1073665638763543
 30
0.0
 40
1.2
  0
CIRCLE
  5
10D
100
AcDbEntity
100
AcDbCircle
  8
4 side
 62
256
370
-1
  6
ByLayer
 10
170.5736953759388257
 20
95.1073665638763543
 30
0.0
 40
1.2
  0
ARC
  5
10E
100
AcDbEntity
  8
4 side
 62
256
370
-1
  6
ByLayer
100
AcDbCircle
 10
188.8736953759388086
 20
101.1062665638763463
 30
0.0
 40
1.0
100
AcDbArc
 50
0.0000000000000127
 51
90.0
  0
LINE
  5
10F
100
AcDbEntity
100
AcDbLine
  8
4 side
 62
256
370
-1
  6
ByLayer
 10
189.8736953759388086
 20
99.6062665638763747
 30
0.0
 11
189.8736953759388086
 21
101.1062665638763463
 31
0.0
  0
LINE
  5
110
100
AcDbEntity
100
AcDbLine
  8
4 side
 62
256
370
-1
  6
ByLayer
 10
188.8736953759388086
 20
102.1062665638763463
 30
0.0
 11
186.211728707399601
 21
102.1062665638763463
 31
0.0
  0
ARC
  5
111
100
AcDbEntity
  8
4 side
 62
256
370
-1
  6
ByLayer
100
AcDbCircle
 10
185.0249953759388291
 20
103.9062665638763576
 30
0.0
 40
2.1590000000000034
100
AcDbArc
 50
154.081679959216558
 51
303.3967167573164261
  0
ARC
  5
112
100
AcDbEntity
  8
4 side
 62
256
370
-1
  6
ByLayer
100
AcDbCircle
 10
188.8723907518776173
 20
-3.8937334361236537
 30
0.0
 40
1.0
100
AcDbArc
 50
270.0
 51
360.0
  0
LINE
  5
113
100
AcDbEntity
100
AcDbLine
  8
4 side
 62
256
370
-1
  6
ByLayer
 10
189.8723907518776173
 20
-2.3937334361237106
 30
0.0
 11
189.8723907518776457
 21
-3.8937334361236537
 31
0.0
  0
LINE
  5
114
100
AcDbEntity
100
AcDbLine
  8
4 side
 62
256
370
-1
  6
ByLayer
 10
188.8723907518776173
 20
-4.8937334361236537
 30
0.0
 11
186.2104240833384381
 21
-4.8937334361236537
 31
0.0
  0
ARC
  5
115
100
AcDbEntity
  8
4 side
 62
256
370
-1
  6
ByLayer
100
AcDbCircle
 10
185.0236907518776093
 20
-6.6937334361236651
 30
0.0
 40
2.1559999999999975
100
AcDbArc
 50
56.6032832426844337
 51
205.9183200407831009
  0
CIRCLE
  5
116
100
AcDbEntity
100
AcDbCircle
  8
4 side
 62
256
370
-1
  6
ByLayer
 10
184.1236953759388086
 20
110.1062665638763463
 30
0.0
 40
1.5000000000000018
  0
CIRCLE
  5
117
100
AcDbEntity
100
AcDbCircle
  8
4 side
 62
256
370
-1
  6
ByLayer
 10
184.1223907518776457
 20
-12.7555668722472006
 30
0.0
 40
1.5000000000000018
  0
ARC
  5
118
100
AcDbEntity
  8
4 side
 62
256
370
-1
  6
ByLayer
100
AcDbCircle
 10
169.9986953759387234
 20
-9.2555668722472149
 30
0.0
 40
7.9999999999999982
100
AcDbArc
 50
180.0
 51
270.0
  0
LINE
  5
119
100
AcDbEntity
100
AcDbLine
  8
4 side
 62
256
370
-1
  6
ByLayer
 10
172.1236953759381265
 20
-17.2555668722472149
 30
0.0
 11
169.9986953759387234
 21
-17.2555668722472149
 31
0.0
  0
ARC
  5
11A
100
AcDbEntity
  8
4 side
 62
256
370
-1
  6
ByLayer
100
AcDbCircle
 10
181.8723907518776457
 20
-9.2555668722472149
 30
0.0
 40
7.9999999999999982
100
AcDbArc
 50
270.0
 51
0.0000000000000127
  0
LINE
  5
11B
100
AcDbEntity
100
AcDbLine
  8
4 side
 62
256
370
-1
  6
ByLayer
 10
181.8723907518774752
 20
-17.2555668722472149
 30
0.0
 11
172.1236953759381265
 21
-17.2555668722472149
 31
0.0
  0
LINE
  5
11C
100
AcDbEntity
100
AcDbLine
  8
4 side
 62
256
370
-1
  6
ByLayer
 10
161.9986953757039601
 20
16.6062665638763463
 30
0.0
 11
161.9986953751020451
 21
-9.2555668722472149
 31
0.0
  0
ARC
  5
11D
100
AcDbEntity
  8
4 side
 62
256
370
-1
  6
ByLayer
100
AcDbCircle
 10
169.9999999999999432
 20
106.4680999999999074
 30
0.0
 40
7.9999999999999982
100
AcDbArc
 50
90.0
 51
180.0
  0
LINE
  5
11E
100
AcDbEntity
100
AcDbLine
  8
4 side
 62
256
370
-1
  6
ByLayer
 10
172.1249999999994031
 20
114.4680999999999074
 30
0.0
 11
169.9999999999999716
 21
114.4680999999999074
 31
0.0
  0
ARC
  5
11F
100
AcDbEntity
  8
4 side
 62
256
370
-1
  6
ByLayer
100
AcDbCircle
 10
181.8736953759387802
 20
106.4680999999999074
 30
0.0
 40
7.9999999999999982
100
AcDbArc
 50
0.0000000000000127
 51
90.0
  0
LINE
  5
120
100
AcDbEntity
100
AcDbLine
  8
4 side
 62
256
370
-1
  6
ByLayer
 10
181.8736953759388086
 20
114.4680999999999074
 30
0.0
 11
172.1249999999994031
 21
114.4680999999999074
 31
0.0
  0
LINE
  5
121
100
AcDbEntity
100
AcDbLine
  8
4 side
 62
256
370
-1
  6
ByLayer
 10
185.4141640578901047
 20
110.8709171905699407
 30
0.0
 11
187.5305496254311493
 21
112.1249542494922764
 31
0.0
  0
LINE
  5
122
100
AcDbEntity
100
AcDbLine
  8
4 side
 62
256
370
-1
  6
ByLayer
 10
185.3897572514219689
 20
-13.5579272375648259
 30
0.0
 11
187.5292450013699863
 21
-14.9124211217395839
 31
0.0
  0
LINE
  5
123
100
AcDbEntity
100
AcDbLine
  8
4 side
 62
256
370
-1
  6
ByLayer
 10
182.42369537593882
 20
98.6062665638763178
 30
0.0
 11
182.4236953759387916
 21
96.5681665638763889
 31
0.0
  0
LINE
  5
124
100
AcDbEntity
100
AcDbLine
  8
4 side
 62
256
370
-1
  6
ByLayer
 10
182.4236953759388484
 20
92.5681665638763889
 30
0.0
 11
182.4236953759387916
 21
89.5681665638763604
 31
0.0
  0
ARC
  5
125
100
AcDbEntity
  8
4 side
 62
256
370
-1
  6
ByLayer
100
AcDbCircle
 10
181.92369537593882
 20
96.5681665638763889
 30
0.0
 40
0.5
100
AcDbArc
 50
270.0
 51
359.9999999999999432
  0
ARC
  5
126
100
AcDbEntity
  8
4 side
 62
256
370
-1
  6
ByLayer
100
AcDbCircle
 10
181.9236953759388484
 20
92.5681665638763889
 30
0.0
 40
0.5
100
AcDbArc
 50
0.0000000000000509
 51
90.0
  0
ARC
  5
127
100
AcDbEntity
  8
4 side
 62
256
370
-1
  6
ByLayer
100
AcDbCircle
 10
181.92369537593882
 20
4.6443665638763321
 30
0.0
 40
0.5
100
AcDbArc
 50
270.0
 51
359.9999999999999432
  0
ARC
  5
128
100
AcDbEntity
  8
4 side
 62
256
370
-1
  6
ByLayer
100
AcDbCircle
 10
181.9236953759387347
 20
0.6443665638763321
 30
0.0
 40
0.5
100
AcDbArc
 50
0.0000000000000509
 51
90.0
  0
LINE
  5
129
100
AcDbEntity
100
AcDbLine
  8
4 side
 62
256
370
-1
  6
ByLayer
 10
182.4236953759388484
 20
4.6443665638763321
 30
0.0
 11
182.42369537593882
 21
46.6062665638763463
 31
0.0
  0
LINE
  5
12A
100
AcDbEntity
100
AcDbLine
  8
4 side
 62
256
370
-1
  6
ByLayer
 10
177.4236953759387916
 20
69.5681665638763604
 30
0.0
 11
177.42369537593882
 21
56.6062665638763463
 31
0.0
  0
LINE
  5
12B
100
AcDbEntity
100
AcDbLine
  8
4 side
 62
256
370
-1
  6
ByLayer
 10
182.4236953759387347
 20
0.6443665638763321
 30
0.0
 11
182.4236953759388484
 21
-1.3937334361236537
 31
0.0
  0
LINE
  5
12C
100
AcDbEntity
100
AcDbLine
  8
4 side
 62
256
370
-1
  6
ByLayer
 10
188.8736953759388086
 20
98.6062665638763463
 30
0.0
 11
182.42369537593882
 21
98.6062665638763178
 31
0.0
  0
LINE
  5
12D
100
AcDbEntity
100
AcDbLine
  8
4 side
 62
256
370
-1
  6
ByLayer
 10
188.8723907518775889
 20
-1.3937334361237106
 30
0.0
 11
182.4223907518776002
 21
-1.3937334361236537
 31
0.0
  0
LINE
  5
12E
100
AcDbEntity
100
AcDbLine
  8
4 side
 62
256
370
-1
  6
ByLayer
 10
165.8236953759389394
 20
0.6062665638763463
 30
0.0
 11
165.823695375938712
 21
-6.3937334361236537
 31
0.0
  0
LINE
  5
12F
100
AcDbEntity
100
AcDbLine
  8
4 side
 62
256
370
-1
  6
ByLayer
 10
165.823695375938712
 20
-6.3937334361236537
 30
0.0
 11
168.8480686634980543
 21
-6.3937334361236537
 31
0.0
  0
LINE
  5
130
100
AcDbEntity
100
AcDbLine
  8
4 side
 62
256
370
-1
  6
ByLayer
 10
168.848068663498168
 20
0.6062665638763463
 30
0.0
 11
165.8236953759389394
 21
0.6062665638763463
 31
0.0
  0
LINE
  5
131
100
AcDbEntity
100
AcDbLine
  8
4 side
 62
256
370
-1
  6
ByLayer
 10
175.820377263555315
 20
96.0681665638763889
 30
0.0
 11
175.8203772635558551
 21
93.0681665638763889
 31
0.0
  0
LINE
  5
132
100
AcDbEntity
100
AcDbLine
  8
4 side
 62
256
370
-1
  6
ByLayer
 10
178.9903772635548478
 20
97.4281665638763741
 30
0.0
 11
176.8203772635547182
 21
97.4281665638763741
 31
0.0
  0
LINE
  5
133
100
AcDbEntity
100
AcDbLine
  8
4 side
 62
256
370
-1
  6
ByLayer
 10
176.8203772635550024
 20
91.7081665638764036
 30
0.0
 11
178.9903772635548478
 21
91.7081665638764036
 31
0.0
  0
LINE
  5
134
100
AcDbEntity
100
AcDbLine
  8
4 side
 62
256
370
-1
  6
ByLayer
 10
178.9903772635548478
 20
96.0681665638763889
 30
0.0
 11
178.9903772635548478
 21
97.4281665638763741
 31
0.0
  0
LINE
  5
135
100
AcDbEntity
100
AcDbLine
  8
4 side
 62
256
370
-1
  6
ByLayer
 10
178.9903772635548478
 20
91.7081665638764036
 30
0.0
 11
178.9903772635548478
 21
93.0681665638763889
 31
0.0
  0
LINE
  5
136
100
AcDbEntity
100
AcDbLine
  8
4 side
 62
256
370
-1
  6
ByLayer
 10
175.8203772635558551
 20
93.0681665638763889
 30
0.0
 11
176.8203772635548034
 21
93.0681665638763889
 31
0.0
  0
LINE
  5
137
100
AcDbEntity
100
AcDbLine
  8
4 side
 62
256
370
-1
  6
ByLayer
 10
176.8203772635548034
 20
93.0681665638763889
 30
0.0
 11
176.8203772635550024
 21
91.7081665638764036
 31
0.0
  0
LINE
  5
138
100
AcDbEntity
100
AcDbLine
  8
4 side
 62
256
370
-1
  6
ByLayer
 10
176.8203772635547182
 20
97.4281665638763741
 30
0.0
 11
176.8203772635548603
 21
96.0681665638763889
 31
0.0
  0
LINE
  5
139
100
AcDbEntity
100
AcDbLine
  8
4 side
 62
256
370
-1
  6
ByLayer
 10
176.8203772635548603
 20
96.0681665638763889
 30
0.0
 11
175.820377263555315
 21
96.0681665638763889
 31
0.0
  0
LINE
  5
13A
100
AcDbEntity
100
AcDbLine
  8
4 side
 62
256
370
-1
  6
ByLayer
 10
175.8203772635557129
 20
4.1443665638763321
 30
0.0
 11
175.8203772635552866
 21
1.1443665638763321
 31
0.0
  0
LINE
  5
13B
100
AcDbEntity
100
AcDbLine
  8
4 side
 62
256
370
-1
  6
ByLayer
 10
178.9903772635548194
 20
5.5043665638763457
 30
0.0
 11
176.8203772635549171
 21
5.5043665638763457
 31
0.0
  0
LINE
  5
13C
100
AcDbEntity
100
AcDbLine
  8
4 side
 62
256
370
-1
  6
ByLayer
 10
176.820377263554775
 20
-0.2156334361236816
 30
0.0
 11
178.9903772635548478
 21
-0.2156334361236816
 31
0.0
  0
LINE
  5
13D
100
AcDbEntity
100
AcDbLine
  8
4 side
 62
256
370
-1
  6
ByLayer
 10
178.9903772635548478
 20
4.1443665638763321
 30
0.0
 11
178.9903772635548194
 21
5.5043665638763457
 31
0.0
  0
LINE
  5
13E
100
AcDbEntity
100
AcDbLine
  8
4 side
 62
256
370
-1
  6
ByLayer
 10
178.9903772635548478
 20
-0.2156334361236816
 30
0.0
 11
178.9903772635548762
 21
1.1443665638763321
 31
0.0
  0
LINE
  5
13F
100
AcDbEntity
100
AcDbLine
  8
4 side
 62
256
370
-1
  6
ByLayer
 10
175.8203772635552866
 20
1.1443665638763321
 30
0.0
 11
176.8203772635549171
 21
1.1443665638763321
 31
0.0
  0
LINE
  5
140
100
AcDbEntity
100
AcDbLine
  8
4 side
 62
256
370
-1
  6
ByLayer
 10
176.8203772635549171
 20
1.1443665638763321
 30
0.0
 11
176.820377263554775
 21
-0.2156334361236816
 31
0.0
  0
LINE
  5
141
100
AcDbEntity
100
AcDbLine
  8
4 side
 62
256
370
-1
  6
ByLayer
 10
176.8203772635549171
 20
5.5043665638763457
 30
0.0
 11
176.8203772635547466
 21
4.1443665638763321
 31
0.0
  0
LINE
  5
142
100
AcDbEntity
100
AcDbLine
  8
4 side
 62
256
370
-1
  6
ByLayer
 10
176.8203772635547466
 20
4.1443665638763321
 30
0.0
 11
175.8203772635557129
 21
4.1443665638763321
 31
0.0
  0
LINE
  5
143
100
AcDbEntity
100
AcDbLine
  8
4 side
 62
256
370
-1
  6
ByLayer
 10
181.92369537593882
 20
96.0681665638763889
 30
0.0
 11
178.9903772635548478
 21
96.0681665638763889
 31
0.0
  0
LINE
  5
144
100
AcDbEntity
100
AcDbLine
  8
4 side
 62
256
370
-1
  6
ByLayer
 10
178.9903772635548478
 20
93.0681665638763889
 30
0.0
 11
181.9236953759387916
 21
93.0681665638763889
 31
0.0
  0
LINE
  5
145
100
AcDbEntity
100
AcDbLine
  8
4 side
 62
256
370
-1
  6
ByLayer
 10
181.9236953759387632
 20
4.1443665638763321
 30
0.0
 11
178.9903772635548478
 21
4.1443665638763321
 31
0.0
  0
LINE
  5
146
100
AcDbEntity
100
AcDbLine
  8
4 side
 62
256
370
-1
  6
ByLayer
 10
178.9903772635548762
 20
1.1443665638763321
 30
0.0
 11
181.9236953759388484
 21
1.1443665638763321
 31
0.0
  0
ARC
  5
147
100
AcDbEntity
  8
4 side
 62
256
370
-1
  6
ByLayer
100
AcDbCircle
 10
186.1236953759387802
 20
89.0681665638763604
 30
0.0
 40
0.5
100
AcDbArc
 50
0.0000000000000127
 51
90.0
  0
ARC
  5
148
100
AcDbEntity
  8
4 side
 62
256
370
-1
  6
ByLayer
100
AcDbCircle
 10
186.1236953759388086
 20
70.0681665638763604
 30
0.0
 40
0.5
100
AcDbArc
 50
270.0
 51
0.0000000000000127
  0
ARC
  5
149
100
AcDbEntity
  8
4 side
 62
256
370
-1
  6
ByLayer
100
AcDbCircle
 10
186.1236953759388371
 20
56.1062665638763463
 30
0.0
 40
0.5
100
AcDbArc
 50
0.0000000000000127
 51
90.0
  0
LINE
  5
14A
100
AcDbEntity
100
AcDbLine
  8
4 side
 62
256
370
-1
  6
ByLayer
 10
186.6236953759388086
 20
89.0681665638763604
 30
0.0
 11
186.6236953759388086
 21
70.0681665638763604
 31
0.0
  0
ARC
  5
14B
100
AcDbEntity
  8
4 side
 62
256
370
-1
  6
ByLayer
100
AcDbCircle
 10
186.1236953759388086
 20
47.1062665638763463
 30
0.0
 40
0.5
100
AcDbArc
 50
270.0
 51
0.0000000000000127
  0
LINE
  5
14C
100
AcDbEntity
100
AcDbLine
  8
4 side
 62
256
370
-1
  6
ByLayer
 10
186.6236953759388086
 20
47.1062665638763463
 30
0.0
 11
186.6236953759388086
 21
56.1062665638763463
 31
0.0
  0
LINE
  5
14D
100
AcDbEntity
100
AcDbLine
  8
4 side
 62
256
370
-1
  6
ByLayer
 10
186.1236953759388086
 20
56.6062665638763463
 30
0.0
 11
177.42369537593882
 21
56.6062665638763463
 31
0.0
  0
LINE
  5
14E
100
AcDbEntity
100
AcDbLine
  8
4 side
 62
256
370
-1
  6
ByLayer
 10
182.42369537593882
 20
46.6062665638763463
 30
0.0
 11
186.1236953759388086
 21
46.6062665638763463
 31
0.0
  0
LINE
  5
14F
100
AcDbEntity
100
AcDbLine
  8
4 side
 62
256
370
-1
  6
ByLayer
 10
186.1236953759388086
 20
69.5681665638763889
 30
0.0
 11
177.4236953759387916
 21
69.5681665638763604
 31
0.0
  0
LINE
  5
150
100
AcDbEntity
100
AcDbLine
  8
4 side
 62
256
370
-1
  6
ByLayer
 10
182.4236953759387916
 20
89.5681665638763604
 30
0.0
 11
186.1236953759388086
 21
89.5681665638763604
 31
0.0
  0
ARC
  5
151
100
AcDbEntity
  8
4 side
 62
256
370
-1
  6
ByLayer
100
AcDbCircle
 10
117.3117305135690032
 20
-20.4069000000000216
 30
0.0
 40
1.0
100
AcDbArc
 50
180.0
 51
270.0
  0
CIRCLE
  5
152
100
AcDbEntity
100
AcDbCircle
  8
4 side
 62
256
370
-1
  6
ByLayer
 10
118.3128303886406201
 20
-2.1069000000000013
 30
0.0
 40
3.5
  0
ARC
  5
153
100
AcDbEntity
  8
4 side
 62
256
370
-1
  6
ByLayer
100
AcDbCircle
 10
121.6117305135689861
 20
-16.558200000000042
 30
0.0
 40
2.1560000000000001
100
AcDbArc
 50
316.4199999999999591
 51
90.0
  0
ARC
  5
154
100
AcDbEntity
  8
4 side
 62
256
370
-1
  6
ByLayer
100
AcDbCircle
 10
124.1735639496925359
 20
-20.4069000000000358
 30
0.0
 40
1.0
100
AcDbArc
 50
180.0
 51
270.0
  0
LINE
  5
155
100
AcDbEntity
100
AcDbLine
  8
4 side
 62
256
370
-1
  6
ByLayer
 10
123.1735639496925359
 20
-20.4068999999999932
 30
0.0
 11
123.1735639496925359
 21
-18.0444746441376793
 31
0.0
  0
ARC
  5
156
100
AcDbEntity
  8
4 side
 62
256
370
-1
  6
ByLayer
100
AcDbCircle
 10
125.311730513568989
 20
-7.6568999999993732
 30
0.0
 40
1.0
100
AcDbArc
 50
269.9999999999996021
 51
269.9999999999996021
  0
LINE
  5
157
100
AcDbEntity
100
AcDbLine
  8
4 side
 62
256
370
-1
  6
ByLayer
 10
122.5554065177278176
 20
-14.6163563916795756
 30
0.0
 11
124.9435042997050118
 21
-8.5866362289511127
 31
0.0
  0
LINE
  5
158
100
AcDbEntity
100
AcDbLine
  8
4 side
 62
256
370
-1
  6
ByLayer
 10
15.1379820701816712
 20
-0.3812732875593277
 30
0.0
 11
15.1379820701816712
 21
-0.3812732875593277
 31
0.0
  0
LINE
  5
159
100
AcDbEntity
100
AcDbLine
  8
4 side
 62
256
370
-1
  6
ByLayer
 10
15.1379820701816712
 20
-0.3812732875593277
 30
0.0
 11
15.1379820701816712
 21
-0.3812732875593277
 31
0.0
  0
CIRCLE
  5
15A
100
AcDbEntity
100
AcDbCircle
  8
4 side
 62
256
370
-1
  6
ByLayer
 10
14.8117305135690103
 20
-1.8812732875592015
 30
0.0
 40
1.5
  0
LINE
  5
15B
100
AcDbEntity
100
AcDbLine
  8
4 side
 62
256
370
-1
  6
ByLayer
 10
11.3117305135689961
 20
-0.3812732875594005
 30
0.0
 11
14.8117305135689961
 21
-0.3812732875593596
 31
0.0
  0
LINE
  5
15C
100
AcDbEntity
100
AcDbLine
  8
4 side
 62
256
370
-1
  6
ByLayer
 10
14.8117305135689961
 20
-0.3812732875593596
 30
0.0
 11
18.3117305135690103
 21
-0.3812732875592619
 31
0.0
  0
ARC
  5
15D
100
AcDbEntity
  8
4 side
 62
256
370
-1
  6
ByLayer
100
AcDbCircle
 10
11.0117305135689847
 20
-16.5568953759387725
 30
0.0
 40
2.1560000000000001
100
AcDbArc
 50
90.0
 51
223.5800000000000409
  0
ARC
  5
15E
100
AcDbEntity
  8
4 side
 62
256
370
-1
  6
ByLayer
100
AcDbCircle
 10
8.4498970774454349
 20
-20.4055953759388586
 30
0.0
 40
1.0
100
AcDbArc
 50
270.0
 51
360.0
  0
LINE
  5
15F
100
AcDbEntity
100
AcDbLine
  8
4 side
 62
256
370
-1
  6
ByLayer
 10
9.4498970774454349
 20
-20.4055953759388657
 30
0.0
 11
9.4498970774454349
 21
-18.0431700200764453
 31
0.0
  0
ARC
  5
160
100
AcDbEntity
  8
4 side
 62
256
370
-1
  6
ByLayer
100
AcDbCircle
 10
7.3117305135689961
 20
-7.6555953759396029
 30
0.0
 40
1.0
100
AcDbArc
 50
270.0000000000003979
 51
270.0000000000003979
  0
LINE
  5
161
100
AcDbEntity
100
AcDbLine
  8
4 side
 62
256
370
-1
  6
ByLayer
 10
10.0680545094101674
 20
-14.6150517676183878
 30
0.0
 11
7.6799567274329732
 21
-8.585331604889225
 31
0.0
  0
ARC
  5
162
100
AcDbEntity
  8
4 side
 62
256
370
-1
  6
ByLayer
100
AcDbCircle
 10
15.3117305135689392
 20
-20.405595375938816
 30
0.0
 40
1.0
100
AcDbArc
 50
270.0
 51
360.0
  0
LINE
  5
163
100
AcDbEntity
100
AcDbLine
  8
4 side
 62
256
370
-1
  6
ByLayer
 10
98.311730513568989
 20
1.4680999999999624
 30
0.0
 11
98.311730513568989
 21
6.4680999999999571
 31
0.0
  0
LINE
  5
164
100
AcDbEntity
100
AcDbLine
  8
4 side
 62
256
370
-1
  6
ByLayer
 10
98.311730513568989
 20
1.4680999999999784
 30
0.0
 11
93.3117279183861825
 21
1.4680999999999678
 31
0.0
  0
LINE
  5
165
100
AcDbEntity
100
AcDbLine
  8
4 side
 62
256
370
-1
  6
ByLayer
 10
73.3117279183861967
 20
1.4680999999999802
 30
0.0
 11
59.311730513568989
 21
1.4680999999999766
 31
0.0
  0
LINE
  5
166
100
AcDbEntity
100
AcDbLine
  8
4 side
 62
256
370
-1
  6
ByLayer
 10
34.3117305135689961
 20
1.4681000000000353
 30
0.0
 11
34.3117305135689961
 21
6.4681000000000211
 31
0.0
  0
LINE
  5
167
100
AcDbEntity
100
AcDbLine
  8
4 side
 62
256
370
-1
  6
ByLayer
 10
39.3117305135689961
 20
1.4681000000000068
 30
0.0
 11
34.3117305135689961
 21
1.4681000000000353
 31
0.0
  0
LINE
  5
168
100
AcDbEntity
100
AcDbLine
  8
4 side
 62
256
370
-1
  6
ByLayer
 10
84.8117279183861825
 20
-5.6351981280471701
 30
0.0
 11
81.8117279183861683
 21
-5.6351981280471524
 31
0.0
  0
LINE
  5
169
100
AcDbEntity
100
AcDbLine
  8
4 side
 62
256
370
-1
  6
ByLayer
 10
86.171727918386182
 20
-2.4651981280471578
 30
0.0
 11
86.171727918386182
 21
-4.6351981280471648
 31
0.0
  0
LINE
  5
16A
100
AcDbEntity
100
AcDbLine
  8
4 side
 62
256
370
-1
  6
ByLayer
 10
80.4517279183861831
 20
-4.6351981280471524
 30
0.0
 11
80.4517279183861831
 21
-2.4651981280471471
 31
0.0
  0
LINE
  5
16B
100
AcDbEntity
100
AcDbLine
  8
4 side
 62
256
370
-1
  6
ByLayer
 10
84.8117279183861825
 20
-2.4651981280471649
 30
0.0
 11
86.171727918386182
 21
-2.4651981280471578
 31
0.0
  0
LINE
  5
16C
100
AcDbEntity
100
AcDbLine
  8
4 side
 62
256
370
-1
  6
ByLayer
 10
80.4517279183861831
 20
-2.4651981280471471
 30
0.0
 11
81.8117279183861825
 21
-2.4651981280471471
 31
0.0
  0
LINE
  5
16D
100
AcDbEntity
100
AcDbLine
  8
4 side
 62
256
370
-1
  6
ByLayer
 10
81.8117279183861683
 20
-5.6351981280471524
 30
0.0
 11
81.8117279183861825
 21
-4.6351981280471506
 31
0.0
  0
LINE
  5
16E
100
AcDbEntity
100
AcDbLine
  8
4 side
 62
256
370
-1
  6
ByLayer
 10
81.8117279183861825
 20
-4.6351981280471506
 30
0.0
 11
80.4517279183861831
 21
-4.6351981280471524
 31
0.0
  0
LINE
  5
16F
100
AcDbEntity
100
AcDbLine
  8
4 side
 62
256
370
-1
  6
ByLayer
 10
86.171727918386182
 20
-4.6351981280471648
 30
0.0
 11
84.8117279183861825
 21
-4.6351981280471417
 31
0.0
  0
LINE
  5
170
100
AcDbEntity
100
AcDbLine
  8
4 side
 62
256
370
-1
  6
ByLayer
 10
84.8117279183861825
 20
-4.6351981280471417
 30
0.0
 11
84.8117279183861825
 21
-5.6351981280471701
 31
0.0
  0
LINE
  5
171
100
AcDbEntity
100
AcDbLine
  8
4 side
 62
256
370
-1
  6
ByLayer
 10
84.8117279183861967
 20
0.9680999999999731
 30
0.0
 11
84.8117279183861825
 21
-2.4651981280471649
 31
0.0
  0
LINE
  5
172
100
AcDbEntity
100
AcDbLine
  8
4 side
 62
256
370
-1
  6
ByLayer
 10
81.8117279183861825
 20
-2.4651981280471471
 30
0.0
 11
81.8117279183861967
 21
0.9680999999999784
 31
0.0
  0
LINE
  5
173
100
AcDbEntity
100
AcDbLine
  8
4 side
 62
256
370
-1
  6
ByLayer
 10
93.3117279183861967
 20
5.9680999999999713
 30
0.0
 11
93.3117279183861825
 21
1.4680999999999678
 31
0.0
  0
LINE
  5
174
100
AcDbEntity
100
AcDbLine
  8
4 side
 62
256
370
-1
  6
ByLayer
 10
88.3117279183861825
 20
1.4680999999999695
 30
0.0
 11
88.3117279183861825
 21
5.9680999999999784
 31
0.0
  0
LINE
  5
175
100
AcDbEntity
100
AcDbLine
  8
4 side
 62
256
370
-1
  6
ByLayer
 10
85.3117279183861967
 20
1.4680999999999678
 30
0.0
 11
88.3117279183861825
 21
1.4680999999999695
 31
0.0
  0
ARC
  5
176
100
AcDbEntity
  8
4 side
 62
256
370
-1
  6
ByLayer
100
AcDbCircle
 10
85.3117279183861683
 20
0.9680999999999713
 30
0.0
 40
0.5
100
AcDbArc
 50
90.0000000000000568
 51
180.0
  0
LINE
  5
177
100
AcDbEntity
100
AcDbLine
  8
4 side
 62
256
370
-1
  6
ByLayer
 10
81.3117279183861967
 20
1.4680999999999749
 30
0.0
 11
78.3117279183861825
 21
1.4680999999999695
 31
0.0
  0
ARC
  5
178
100
AcDbEntity
  8
4 side
 62
256
370
-1
  6
ByLayer
100
AcDbCircle
 10
81.3117279183861967
 20
0.9680999999999802
 30
0.0
 40
0.5
100
AcDbArc
 50
360.0
 51
89.9999999999999432
  0
LINE
  5
179
100
AcDbEntity
100
AcDbLine
  8
4 side
 62
256
370
-1
  6
ByLayer
 10
78.3117279183861825
 20
1.4680999999999695
 30
0.0
 11
78.3117279183861825
 21
5.968099999999966
 31
0.0
  0
LINE
  5
17A
100
AcDbEntity
100
AcDbLine
  8
4 side
 62
256
370
-1
  6
ByLayer
 10
73.3117279183861967
 20
5.9680999999999731
 30
0.0
 11
73.3117279183861967
 21
1.4680999999999802
 31
0.0
  0
LINE
  5
17B
100
AcDbEntity
100
AcDbLine
  8
4 side
 62
256
370
-1
  6
ByLayer
 10
50.811730513568989
 20
-5.6351981280471417
 30
0.0
 11
47.811730513568989
 21
-5.635198128047163
 31
0.0
  0
LINE
  5
17C
100
AcDbEntity
100
AcDbLine
  8
4 side
 62
256
370
-1
  6
ByLayer
 10
52.1717305135689742
 20
-2.4651981280471649
 30
0.0
 11
52.1717305135689742
 21
-4.6351981280471399
 31
0.0
  0
LINE
  5
17D
100
AcDbEntity
100
AcDbLine
  8
4 side
 62
256
370
-1
  6
ByLayer
 10
46.4517305135689895
 20
-4.6351981280471986
 30
0.0
 11
46.4517305135689895
 21
-2.465198128047204
 31
0.0
  0
LINE
  5
17E
100
AcDbEntity
100
AcDbLine
  8
4 side
 62
256
370
-1
  6
ByLayer
 10
50.811730513568989
 20
-2.4651981280471666
 30
0.0
 11
52.1717305135689742
 21
-2.4651981280471649
 31
0.0
  0
LINE
  5
17F
100
AcDbEntity
100
AcDbLine
  8
4 side
 62
256
370
-1
  6
ByLayer
 10
46.4517305135689895
 20
-2.465198128047204
 30
0.0
 11
47.811730513568989
 21
-2.46519812804714
 31
0.0
  0
LINE
  5
180
100
AcDbEntity
100
AcDbLine
  8
4 side
 62
256
370
-1
  6
ByLayer
 10
47.811730513568989
 20
-5.635198128047163
 30
0.0
 11
47.8117305135689961
 21
-4.6351981280471168
 31
0.0
  0
LINE
  5
181
100
AcDbEntity
100
AcDbLine
  8
4 side
 62
256
370
-1
  6
ByLayer
 10
47.8117305135689961
 20
-4.6351981280471168
 30
0.0
 11
46.4517305135689895
 21
-4.6351981280471986
 31
0.0
  0
LINE
  5
182
100
AcDbEntity
100
AcDbLine
  8
4 side
 62
256
370
-1
  6
ByLayer
 10
52.1717305135689742
 20
-4.6351981280471399
 30
0.0
 11
50.811730513568989
 21
-4.6351981280471186
 31
0.0
  0
LINE
  5
183
100
AcDbEntity
100
AcDbLine
  8
4 side
 62
256
370
-1
  6
ByLayer
 10
50.811730513568989
 20
-4.6351981280471186
 30
0.0
 11
50.811730513568989
 21
-5.6351981280471417
 31
0.0
  0
LINE
  5
184
100
AcDbEntity
100
AcDbLine
  8
4 side
 62
256
370
-1
  6
ByLayer
 10
50.8117305135689961
 20
0.9681000000000104
 30
0.0
 11
50.811730513568989
 21
-2.4651981280471666
 31
0.0
  0
LINE
  5
185
100
AcDbEntity
100
AcDbLine
  8
4 side
 62
256
370
-1
  6
ByLayer
 10
47.811730513568989
 20
-2.46519812804714
 30
0.0
 11
47.811730513568989
 21
0.9680999999999536
 31
0.0
  0
LINE
  5
186
100
AcDbEntity
100
AcDbLine
  8
4 side
 62
256
370
-1
  6
ByLayer
 10
51.311730513568989
 20
1.4680999999999678
 30
0.0
 11
54.311730513568989
 21
1.4680999999999944
 31
0.0
  0
ARC
  5
187
100
AcDbEntity
  8
4 side
 62
256
370
-1
  6
ByLayer
100
AcDbCircle
 10
51.3117305135689961
 20
0.9681000000000068
 30
0.0
 40
0.5
100
AcDbArc
 50
90.0000000000000568
 51
180.0
  0
LINE
  5
188
100
AcDbEntity
100
AcDbLine
  8
4 side
 62
256
370
-1
  6
ByLayer
 10
47.311730513568989
 20
1.4680999999999589
 30
0.0
 11
44.311730513568989
 21
1.4681000000000104
 31
0.0
  0
ARC
  5
189
100
AcDbEntity
  8
4 side
 62
256
370
-1
  6
ByLayer
100
AcDbCircle
 10
47.3117305135689961
 20
0.9680999999999891
 30
0.0
 40
0.5
100
AcDbArc
 50
360.0
 51
89.9999999999999432
  0
LINE
  5
18A
100
AcDbEntity
100
AcDbLine
  8
4 side
 62
256
370
-1
  6
ByLayer
 10
59.311730513568989
 20
5.9680999999999838
 30
0.0
 11
59.311730513568989
 21
1.4680999999999766
 31
0.0
  0
LINE
  5
18B
100
AcDbEntity
100
AcDbLine
  8
4 side
 62
256
370
-1
  6
ByLayer
 10
54.311730513568989
 20
1.4680999999999944
 30
0.0
 11
54.3117305135689961
 21
5.9680999999999926
 31
0.0
  0
LINE
  5
18C
100
AcDbEntity
100
AcDbLine
  8
4 side
 62
256
370
-1
  6
ByLayer
 10
51.311730513568989
 20
1.4680999999999678
 30
0.0
 11
54.311730513568989
 21
1.4680999999999944
 31
0.0
  0
ARC
  5
18D
100
AcDbEntity
  8
4 side
 62
256
370
-1
  6
ByLayer
100
AcDbCircle
 10
51.3117305135689961
 20
0.9681000000000068
 30
0.0
 40
0.5
100
AcDbArc
 50
90.0000000000000568
 51
180.0
  0
LINE
  5
18E
100
AcDbEntity
100
AcDbLine
  8
4 side
 62
256
370
-1
  6
ByLayer
 10
47.311730513568989
 20
1.4680999999999589
 30
0.0
 11
44.311730513568989
 21
1.4681000000000104
 31
0.0
  0
ARC
  5
18F
100
AcDbEntity
  8
4 side
 62
256
370
-1
  6
ByLayer
100
AcDbCircle
 10
47.3117305135689961
 20
0.9680999999999891
 30
0.0
 40
0.5
100
AcDbArc
 50
360.0
 51
89.9999999999999432
  0
LINE
  5
190
100
AcDbEntity
100
AcDbLine
  8
4 side
 62
256
370
-1
  6
ByLayer
 10
44.311730513568989
 20
1.4681000000000104
 30
0.0
 11
44.3117305135689961
 21
5.9681000000000157
 31
0.0
  0
LINE
  5
191
100
AcDbEntity
100
AcDbLine
  8
4 side
 62
256
370
-1
  6
ByLayer
 10
39.3117305135690103
 20
5.9681000000000157
 30
0.0
 11
39.3117305135689961
 21
1.4681000000000068
 31
0.0
  0
CIRCLE
  5
192
100
AcDbEntity
100
AcDbCircle
  8
4 side
 62
256
370
-1
  6
ByLayer
 10
123.8128305135689828
 20
-2.1069000000000084
 30
0.0
 40
1.2
  0
CIRCLE
  5
193
100
AcDbEntity
100
AcDbCircle
  8
4 side
 62
256
370
-1
  6
ByLayer
 10
112.812830513568997
 20
-2.1069000000000475
 30
0.0
 40
1.2
  0
ARC
  5
194
100
AcDbEntity
  8
4 side
 62
256
370
-1
  6
ByLayer
100
AcDbCircle
 10
118.811730513568989
 20
-20.4069000000000287
 30
0.0
 40
1.0
100
AcDbArc
 50
270.0
 51
360.0
  0
LINE
  5
195
100
AcDbEntity
100
AcDbLine
  8
4 side
 62
256
370
-1
  6
ByLayer
 10
117.3117305135690174
 20
-21.4069000000000216
 30
0.0
 11
118.811730513568989
 21
-21.40690000000005
 31
0.0
  0
LINE
  5
196
100
AcDbEntity
100
AcDbLine
  8
4 side
 62
256
370
-1
  6
ByLayer
 10
119.811730513568989
 20
-20.4069000000000216
 30
0.0
 11
119.811730513568989
 21
-17.7449333314608282
 31
0.0
  0
ARC
  5
197
100
AcDbEntity
  8
4 side
 62
256
370
-1
  6
ByLayer
100
AcDbCircle
 10
121.6117305135689861
 20
-16.558200000000042
 30
0.0
 40
2.1590000000000034
100
AcDbArc
 50
64.0816799592165438
 51
213.3967167573163977
  0
ARC
  5
198
100
AcDbEntity
  8
4 side
 62
256
370
-1
  6
ByLayer
100
AcDbCircle
 10
13.8117305135689818
 20
-20.4055953759387307
 30
0.0
 40
1.0
100
AcDbArc
 50
180.0
 51
270.0
  0
LINE
  5
199
100
AcDbEntity
100
AcDbLine
  8
4 side
 62
256
370
-1
  6
ByLayer
 10
15.3117305135689392
 20
-21.4055953759387876
 30
0.0
 11
13.8117305135689961
 21
-21.4055953759388089
 31
0.0
  0
LINE
  5
19A
100
AcDbEntity
100
AcDbLine
  8
4 side
 62
256
370
-1
  6
ByLayer
 10
12.8117305135689818
 20
-20.4055953759387165
 30
0.0
 11
12.8117305135689961
 21
-17.74362870739958
 31
0.0
  0
ARC
  5
19B
100
AcDbEntity
  8
4 side
 62
256
370
-1
  6
ByLayer
100
AcDbCircle
 10
11.0117305135689847
 20
-16.5568953759387725
 30
0.0
 40
2.1559999999999975
100
AcDbArc
 50
326.6032832426844266
 51
115.9183200407831436
  0
CIRCLE
  5
19C
100
AcDbEntity
100
AcDbCircle
  8
4 side
 62
256
370
-1
  6
ByLayer
 10
127.811730513568989
 20
-15.6569000000000376
 30
0.0
 40
1.5000000000000018
  0
CIRCLE
  5
19D
100
AcDbEntity
100
AcDbCircle
  8
4 side
 62
256
370
-1
  6
ByLayer
 10
4.9498970774454349
 20
-15.6555953759388533
 30
0.0
 40
1.5000000000000018
  0
ARC
  5
19E
100
AcDbEntity
  8
4 side
 62
256
370
-1
  6
ByLayer
100
AcDbCircle
 10
8.4498970774454349
 20
-1.5318999999999967
 30
0.0
 40
7.9999999999999982
100
AcDbArc
 50
90.0
 51
180.0
  0
LINE
  5
19F
100
AcDbEntity
100
AcDbLine
  8
4 side
 62
256
370
-1
  6
ByLayer
 10
0.4498970774454349
 20
-3.6568999999993732
 30
0.0
 11
0.4498970774454349
 21
-1.5319000000000482
 31
0.0
  0
ARC
  5
1A0
100
AcDbEntity
  8
4 side
 62
256
370
-1
  6
ByLayer
100
AcDbCircle
 10
8.4498970774454349
 20
-13.4055953759387823
 30
0.0
 40
7.9999999999999982
100
AcDbArc
 50
180.0
 51
270.0
  0
LINE
  5
1A1
100
AcDbEntity
100
AcDbLine
  8
4 side
 62
256
370
-1
  6
ByLayer
 10
0.4498970774454349
 20
-13.4055953759387076
 30
0.0
 11
0.4498970774454349
 21
-3.6568999999993732
 31
0.0
  0
ARC
  5
1A2
100
AcDbEntity
  8
4 side
 62
256
370
-1
  6
ByLayer
100
AcDbCircle
 10
124.1735639496925643
 20
-1.5332046240611881
 30
0.0
 40
7.9999999999999982
100
AcDbArc
 50
360.0
 51
90.0
  0
LINE
  5
1A3
100
AcDbEntity
100
AcDbLine
  8
4 side
 62
256
370
-1
  6
ByLayer
 10
132.1735639496925501
 20
-3.6582046240605717
 30
0.0
 11
132.1735639496925501
 21
-1.5332046240612254
 31
0.0
  0
ARC
  5
1A4
100
AcDbEntity
  8
4 side
 62
256
370
-1
  6
ByLayer
100
AcDbCircle
 10
124.1735639496925359
 20
-13.4068999999999665
 30
0.0
 40
7.9999999999999982
100
AcDbArc
 50
270.0
 51
360.0
  0
LINE
  5
1A5
100
AcDbEntity
100
AcDbLine
  8
4 side
 62
256
370
-1
  6
ByLayer
 10
132.1735639496925501
 20
-13.4069000000000376
 30
0.0
 11
132.1735639496925501
 21
-3.6582046240605717
 31
0.0
  0
LINE
  5
1A6
100
AcDbEntity
100
AcDbLine
  8
4 side
 62
256
370
-1
  6
ByLayer
 10
128.5763811402625834
 20
-16.9473686819513318
 30
0.0
 11
129.8304181991849191
 21
-19.0637542494923835
 31
0.0
  0
LINE
  5
1A7
100
AcDbEntity
100
AcDbLine
  8
4 side
 62
256
370
-1
  6
ByLayer
 10
4.1475367121278239
 20
-16.9229618754831606
 30
0.0
 11
2.7930428279530659
 21
-19.0624496254312703
 31
0.0
  0
LINE
  5
1A8
100
AcDbEntity
100
AcDbLine
  8
4 side
 62
256
370
-1
  6
ByLayer
 10
116.3117305135689747
 20
-13.9569000000000027
 30
0.0
 11
114.2736305135690316
 21
-13.9568999999999885
 31
0.0
  0
LINE
  5
1A9
100
AcDbEntity
100
AcDbLine
  8
4 side
 62
256
370
-1
  6
ByLayer
 10
110.2736305135690316
 20
-13.9569000000000702
 30
0.0
 11
107.2736305135690031
 21
-13.9569000000000027
 31
0.0
  0
ARC
  5
1AA
100
AcDbEntity
  8
4 side
 62
256
370
-1
  6
ByLayer
100
AcDbCircle
 10
114.2736305135690316
 20
-13.4569000000000525
 30
0.0
 40
0.5
100
AcDbArc
 50
180.0
 51
269.9999999999999432
  0
ARC
  5
1AB
100
AcDbEntity
  8
4 side
 62
256
370
-1
  6
ByLayer
100
AcDbCircle
 10
110.2736305135690316
 20
-13.4569000000000702
 30
0.0
 40
0.5
100
AcDbArc
 50
270.0000000000000568
 51
360.0
  0
ARC
  5
1AC
100
AcDbEntity
  8
4 side
 62
256
370
-1
  6
ByLayer
100
AcDbCircle
 10
22.3498305135689819
 20
-13.4569000000000241
 30
0.0
 40
0.5
100
AcDbArc
 50
180.0
 51
269.9999999999999432
  0
ARC
  5
1AD
100
AcDbEntity
  8
4 side
 62
256
370
-1
  6
ByLayer
100
AcDbCircle
 10
18.3498305135689819
 20
-13.4569000000000738
 30
0.0
 40
0.5
100
AcDbArc
 50
270.0000000000000568
 51
360.0
  0
LINE
  5
1AE
100
AcDbEntity
100
AcDbLine
  8
4 side
 62
256
370
-1
  6
ByLayer
 10
22.3498305135689819
 20
-13.9569000000000418
 30
0.0
 11
64.3117305135690032
 21
-13.9569000000000063
 31
0.0
  0
LINE
  5
1AF
100
AcDbEntity
100
AcDbLine
  8
4 side
 62
256
370
-1
  6
ByLayer
 10
87.2736305135690031
 20
-8.956900000000017
 30
0.0
 11
74.311730513568989
 21
-8.956900000000017
 31
0.0
  0
LINE
  5
1B0
100
AcDbEntity
100
AcDbLine
  8
4 side
 62
256
370
-1
  6
ByLayer
 10
18.3498305135689819
 20
-13.9568999999999352
 30
0.0
 11
16.3117305135689961
 21
-13.956899999999985
 31
0.0
  0
LINE
  5
1B1
100
AcDbEntity
100
AcDbLine
  8
4 side
 62
256
370
-1
  6
ByLayer
 10
116.3117305135690032
 20
-20.4069000000000358
 30
0.0
 11
116.3117305135689605
 21
-13.9569000000000276
 31
0.0
  0
LINE
  5
1B2
100
AcDbEntity
100
AcDbLine
  8
4 side
 62
256
370
-1
  6
ByLayer
 10
16.3117305135689392
 20
-20.4055953759387663
 30
0.0
 11
16.3117305135689961
 21
-13.9555953759386373
 31
0.0
  0
LINE
  5
1B3
100
AcDbEntity
100
AcDbLine
  8
4 side
 62
256
370
-1
  6
ByLayer
 10
18.3117305135689961
 20
2.6430999999999401
 30
0.0
 11
11.3117305135689961
 21
2.6430999999999774
 31
0.0
  0
LINE
  5
1B4
100
AcDbEntity
100
AcDbLine
  8
4 side
 62
256
370
-1
  6
ByLayer
 10
11.3117305135689961
 20
2.6430999999999774
 30
0.0
 11
11.3117305135689961
 21
-0.3812732875594005
 31
0.0
  0
LINE
  5
1B5
100
AcDbEntity
100
AcDbLine
  8
4 side
 62
256
370
-1
  6
ByLayer
 10
18.3117305135690103
 20
-0.3812732875592619
 30
0.0
 11
18.3117305135689961
 21
2.6430999999999401
 31
0.0
  0
LINE
  5
1B6
100
AcDbEntity
100
AcDbLine
  8
4 side
 62
256
370
-1
  6
ByLayer
 10
113.7736305135690316
 20
-7.3535818876165404
 30
0.0
 11
110.7736305135690174
 21
-7.3535818876170698
 31
0.0
  0
LINE
  5
1B7
100
AcDbEntity
100
AcDbLine
  8
4 side
 62
256
370
-1
  6
ByLayer
 10
115.133630513569031
 20
-10.523581887616098
 30
0.0
 11
115.133630513569031
 21
-8.3535818876160608
 31
0.0
  0
LINE
  5
1B8
100
AcDbEntity
100
AcDbLine
  8
4 side
 62
256
370
-1
  6
ByLayer
 10
109.4136305135690321
 20
-8.3535818876162882
 30
0.0
 11
109.4136305135690321
 21
-10.5235818876160803
 31
0.0
  0
LINE
  5
1B9
100
AcDbEntity
100
AcDbLine
  8
4 side
 62
256
370
-1
  6
ByLayer
 10
113.7736305135690316
 20
-10.5235818876160696
 30
0.0
 11
115.133630513569031
 21
-10.523581887616098
 31
0.0
  0
LINE
  5
1BA
100
AcDbEntity
100
AcDbLine
  8
4 side
 62
256
370
-1
  6
ByLayer
 10
109.4136305135690321
 20
-10.5235818876160803
 30
0.0
 11
110.7736305135690316
 21
-10.5235818876161122
 31
0.0
  0
LINE
  5
1BB
100
AcDbEntity
100
AcDbLine
  8
4 side
 62
256
370
-1
  6
ByLayer
 10
110.7736305135690174
 20
-7.3535818876170698
 30
0.0
 11
110.7736305135690316
 21
-8.3535818876160359
 31
0.0
  0
LINE
  5
1BC
100
AcDbEntity
100
AcDbLine
  8
4 side
 62
256
370
-1
  6
ByLayer
 10
110.7736305135690316
 20
-8.3535818876160359
 30
0.0
 11
109.4136305135690321
 21
-8.3535818876162882
 31
0.0
  0
LINE
  5
1BD
100
AcDbEntity
100
AcDbLine
  8
4 side
 62
256
370
-1
  6
ByLayer
 10
115.133630513569031
 20
-8.3535818876160608
 30
0.0
 11
113.7736305135690316
 21
-8.3535818876161638
 31
0.0
  0
LINE
  5
1BE
100
AcDbEntity
100
AcDbLine
  8
4 side
 62
256
370
-1
  6
ByLayer
 10
113.7736305135690316
 20
-8.3535818876161638
 30
0.0
 11
113.7736305135690316
 21
-7.3535818876165404
 31
0.0
  0
LINE
  5
1BF
100
AcDbEntity
100
AcDbLine
  8
4 side
 62
256
370
-1
  6
ByLayer
 10
21.8498305135689819
 20
-7.3535818876173611
 30
0.0
 11
18.8498305135689819
 21
-7.3535818876167749
 31
0.0
  0
LINE
  5
1C0
100
AcDbEntity
100
AcDbLine
  8
4 side
 62
256
370
-1
  6
ByLayer
 10
23.2098305135689671
 20
-10.5235818876162828
 30
0.0
 11
23.2098305135689671
 21
-8.3535818876158903
 31
0.0
  0
LINE
  5
1C1
100
AcDbEntity
100
AcDbLine
  8
4 side
 62
256
370
-1
  6
ByLayer
 10
17.4898305135689682
 20
-8.3535818876170165
 30
0.0
 11
17.4898305135689682
 21
-10.5235818876161584
 31
0.0
  0
LINE
  5
1C2
100
AcDbEntity
100
AcDbLine
  8
4 side
 62
256
370
-1
  6
ByLayer
 10
21.8498305135689819
 20
-10.5235818876155403
 30
0.0
 11
23.2098305135689671
 21
-10.5235818876162828
 31
0.0
  0
LINE
  5
1C3
100
AcDbEntity
100
AcDbLine
  8
4 side
 62
256
370
-1
  6
ByLayer
 10
17.4898305135689682
 20
-10.5235818876161584
 30
0.0
 11
18.8498305135689819
 21
-10.5235818876160625
 31
0.0
  0
LINE
  5
1C4
100
AcDbEntity
100
AcDbLine
  8
4 side
 62
256
370
-1
  6
ByLayer
 10
18.8498305135689819
 20
-7.3535818876167749
 30
0.0
 11
18.8498305135689819
 21
-8.3535818876166221
 31
0.0
  0
LINE
  5
1C5
100
AcDbEntity
100
AcDbLine
  8
4 side
 62
256
370
-1
  6
ByLayer
 10
18.8498305135689819
 20
-8.3535818876166221
 30
0.0
 11
17.4898305135689682
 21
-8.3535818876170165
 31
0.0
  0
LINE
  5
1C6
100
AcDbEntity
100
AcDbLine
  8
4 side
 62
256
370
-1
  6
ByLayer
 10
23.2098305135689671
 20
-8.3535818876158903
 30
0.0
 11
21.8498305135689819
 21
-8.3535818876154
 31
0.0
  0
LINE
  5
1C7
100
AcDbEntity
100
AcDbLine
  8
4 side
 62
256
370
-1
  6
ByLayer
 10
21.8498305135689819
 20
-8.3535818876154
 30
0.0
 11
21.8498305135689819
 21
-7.3535818876173611
 31
0.0
  0
LINE
  5
1C8
100
AcDbEntity
100
AcDbLine
  8
4 side
 62
256
370
-1
  6
ByLayer
 10
113.7736305135690316
 20
-13.4569000000000347
 30
0.0
 11
113.7736305135690316
 21
-10.5235818876160696
 31
0.0
  0
LINE
  5
1C9
100
AcDbEntity
100
AcDbLine
  8
4 side
 62
256
370
-1
  6
ByLayer
 10
110.7736305135690316
 20
-10.5235818876161122
 30
0.0
 11
110.7736305135690316
 21
-13.4569000000000312
 31
0.0
  0
LINE
  5
1CA
100
AcDbEntity
100
AcDbLine
  8
4 side
 62
256
370
-1
  6
ByLayer
 10
21.8498305135689819
 20
-13.4569000000000063
 30
0.0
 11
21.8498305135689819
 21
-10.5235818876155403
 31
0.0
  0
LINE
  5
1CB
100
AcDbEntity
100
AcDbLine
  8
4 side
 62
256
370
-1
  6
ByLayer
 10
18.8498305135689819
 20
-10.5235818876160625
 30
0.0
 11
18.8498305135689819
 21
-13.4569000000001093
 31
0.0
  0
ARC
  5
1CC
100
AcDbEntity
  8
4 side
 62
256
370
-1
  6
ByLayer
100
AcDbCircle
 10
106.7736305135690031
 20
-17.6569000000000145
 30
0.0
 40
0.5
100
AcDbArc
 50
270.0
 51
360.0
  0
ARC
  5
1CD
100
AcDbEntity
  8
4 side
 62
256
370
-1
  6
ByLayer
100
AcDbCircle
 10
87.7736305135690031
 20
-17.6569000000000287
 30
0.0
 40
0.5
100
AcDbArc
 50
180.0
 51
270.0
  0
ARC
  5
1CE
100
AcDbEntity
  8
4 side
 62
256
370
-1
  6
ByLayer
100
AcDbCircle
 10
73.811730513568989
 20
-17.6569000000000216
 30
0.0
 40
0.5
100
AcDbArc
 50
270.0
 51
360.0
  0
LINE
  5
1CF
100
AcDbEntity
100
AcDbLine
  8
4 side
 62
256
370
-1
  6
ByLayer
 10
106.7736305135690031
 20
-18.1569000000000287
 30
0.0
 11
87.7736305135690174
 21
-18.1569000000000216
 31
0.0
  0
ARC
  5
1D0
100
AcDbEntity
  8
4 side
 62
256
370
-1
  6
ByLayer
100
AcDbCircle
 10
64.8117305135690032
 20
-17.6569000000000216
 30
0.0
 40
0.5
100
AcDbArc
 50
180.0
 51
270.0
  0
LINE
  5
1D1
100
AcDbEntity
100
AcDbLine
  8
4 side
 62
256
370
-1
  6
ByLayer
 10
64.8117305135690032
 20
-18.1569000000000145
 30
0.0
 11
73.811730513568989
 21
-18.1569000000000216
 31
0.0
  0
LINE
  5
1D2
100
AcDbEntity
100
AcDbLine
  8
4 side
 62
256
370
-1
  6
ByLayer
 10
74.3117305135690032
 20
-17.6569000000000216
 30
0.0
 11
74.311730513568989
 21
-8.956900000000017
 31
0.0
  0
LINE
  5
1D3
100
AcDbEntity
100
AcDbLine
  8
4 side
 62
256
370
-1
  6
ByLayer
 10
64.3117305135690032
 20
-13.9569000000000063
 30
0.0
 11
64.3117305135690032
 21
-17.6569000000000145
 31
0.0
  0
LINE
  5
1D4
100
AcDbEntity
100
AcDbLine
  8
4 side
 62
256
370
-1
  6
ByLayer
 10
87.2736305135690174
 20
-17.6569000000000145
 30
0.0
 11
87.2736305135690031
 21
-8.956900000000017
 31
0.0
  0
LINE
  5
1D5
100
AcDbEntity
100
AcDbLine
  8
4 side
 62
256
370
-1
  6
ByLayer
 10
107.2736305135690031
 20
-13.9569000000000027
 30
0.0
 11
107.2736305135690031
 21
-17.6569000000000145
 31
0.0
  0
ARC
  5
1D6
100
AcDbEntity
  8
8 brush retainer
 62
256
370
-1
  6
ByLayer
100
AcDbCircle
 10
151.0367953754679888
 20
-5.1338000000001589
 30
0.0
 40
2.0
100
AcDbArc
 50
180.0
 51
270.0
  0
LINE
  5
1D7
100
AcDbEntity
100
AcDbLine
  8
8 brush retainer
 62
256
370
-1
  6
ByLayer
 10
149.0367953754679888
 20
-5.1338000000001411
 30
0.0
 11
149.0367953754679888
 21
6.468099999999926
 31
0.0
  0
ARC
  5
1D8
100
AcDbEntity
  8
8 brush retainer
 62
256
370
-1
  6
ByLayer
100
AcDbCircle
 10
159.998695375468003
 20
-5.1338000000001465
 30
0.0
 40
2.0
100
AcDbArc
 50
270.0
 51
360.0
  0
LINE
  5
1D9
100
AcDbEntity
100
AcDbLine
  8
8 brush retainer
 62
256
370
-1
  6
ByLayer
 10
159.998695375468003
 20
-7.1338000000001589
 30
0.0
 11
151.0367953754679888
 21
-7.1338000000001305
 31
0.0
  0
CIRCLE
  5
1DA
100
AcDbEntity
100
AcDbCircle
  8
8 brush retainer
 62
256
370
-1
  6
ByLayer
 10
155.5177453754679107
 20
-3.6719000000002158
 30
0.0
 40
1.5600000000000307
  0
ENDSEC
  0
SECTION
  2
OBJECTS
  0
DICTIONARY
  5
C
100
AcDbDictionary
280
0
281
1
  3
ACAD_GROUP
350
D
  3
ACAD_LAYOUT
350
1A
  3
ACAD_MLINESTYLE
350
17
  3
ACAD_PLOTSETTINGS
350
19
  3
ACAD_PLOTSTYLENAME
350
E
  3
AcDbVariableDictionary
350
1DB
  0
DICTIONARY
  5
D
100
AcDbDictionary
280
0
281
1
  0
ACDBDICTIONARYWDFLT
  5
E
100
AcDbDictionary
281
1
  3
Normal
350
F
100
AcDbDictionaryWithDefault
340
F
  0
ACDBPLACEHOLDER
  5
F
  0
DICTIONARY
  5
17
100
AcDbDictionary
280
0
281
1
  3
Standard
350
18
  0
MLINESTYLE
  5
18
100
AcDbMlineStyle
  2
STANDARD
 70
0
  3

 62
256
 51
90.0
 52
90.0
 71
2
 49
0.5
 62
256
  6
BYLAYER
 49
-0.5
 62
256
  6
BYLAYER
  0
DICTIONARY
  5
19
100
AcDbDictionary
280
0
281
1
  0
DICTIONARY
  5
1A
100
AcDbDictionary
281
1
  3
Layout1
350
1E
  3
Layout2
350
26
  3
Model
350
22
  0
LAYOUT
  5
1E
100
AcDbPlotSettings
  1

  2
C:\Program Files\AutoCAD 2002\plotters\DWF ePlot (optimized for plotting).pc3
  4

  6

 40
0.0
 41
0.0
 42
0.0
 43
0.0
 44
0.0
 45
0.0
 46
0.0
 47
0.0
 48
0.0
 49
0.0
140
0.0
141
0.0
142
1.0
143
1.0
 70
688
 72
0
 73
0
 74
5
  7

 75
16
147
1.0
148
0.0
149
0.0
100
AcDbLayout
  1
Layout1
 70
1
 71
1
 10
0.0
 20
0.0
 11
420.0
 21
297.0
 12
0.0
 22
0.0
 32
0.0
 14
100000000000000000000.0
 24
100000000000000000000.0
 34
100000000000000000000.0
 15
-100000000000000000000.0
 25
-100000000000000000000.0
 35
-100000000000000000000.0
146
0.0
 13
0.0
 23
0.0
 33
0.0
 16
1.0
 26
0.0
 36
0.0
 17
0.0
 27
1.0
 37
0.0
 76
0
330
1B
  0
LAYOUT
  5
22
100
AcDbPlotSettings
  1

  2
C:\Program Files\AutoCAD 2002\plotters\DWF ePlot (optimized for plotting).pc3
  4

  6

 40
0.0
 41
0.0
 42
0.0
 43
0.0
 44
0.0
 45
0.0
 46
0.0
 47
0.0
 48
0.0
 49
0.0
140
0.0
141
0.0
142
1.0
143
1.0
 70
1712
 72
0
 73
0
 74
0
  7

 75
0
147
1.0
148
0.0
149
0.0
100
AcDbLayout
  1
Model
 70
1
 71
0
 10
0.0
 20
0.0
 11
12.0
 21
9.0
 12
0.0
 22
0.0
 32
0.0
 14
0.0
 24
0.0
 34
0.0
 15
0.0
 25
0.0
 35
0.0
146
0.0
 13
0.0
 23
0.0
 33
0.0
 16
1.0
 26
0.0
 36
0.0
 17
0.0
 27
1.0
 37
0.0
 76
0
330
1F
  0
LAYOUT
  5
26
100
AcDbPlotSettings
  1

  2
C:\Program Files\AutoCAD 2002\plotters\DWF ePlot (optimized for plotting).pc3
  4

  6

 40
0.0
 41
0.0
 42
0.0
 43
0.0
 44
0.0
 45
0.0
 46
0.0
 47
0.0
 48
0.0
 49
0.0
140
0.0
141
0.0
142
1.0
143
1.0
 70
688
 72
0
 73
0
 74
5
  7

 75
16
147
1.0
148
0.0
149
0.0
100
AcDbLayout
  1
Layout2
 70
1
 71
2
 10
0.0
 20
0.0
 11
12.0
 21
9.0
 12
0.0
 22
0.0
 32
0.0
 14
0.0
 24
0.0
 34
0.0
 15
0.0
 25
0.0
 35
0.0
146
0.0
 13
0.0
 23
0.0
 33
0.0
 16
1.0
 26
0.0
 36
0.0
 17
0.0
 27
1.0
 37
0.0
 76
0
330
23
  0
DICTIONARY
  5
1DB
100
AcDbDictionary
281
1
  3
DIMASSOC
350
1DD
  3
HIDETEXT
350
1DC
  0
DICTIONARYVAR
  5
1DC
100
DictionaryVariables
280
0
  1
2
  0
DICTIONARYVAR
  5
1DD
100
DictionaryVariables
280
0
  1
1
  0
ENDSEC
  0
EOF
