<?xml version="1.0" standalone="yes"?>

<svg width="324mm" height="416mm" viewBox="0 0 324 416" version="1.1"
xmlns="http://www.w3.org/2000/svg" style="stroke-linecap:round">
  <ellipse cx="42.2517" cy="59.6645" rx="2.75011" ry="2.75011" style="stroke:rgb(0,0,0);stroke-width:0.1;fill:none;"/>
  <ellipse cx="22.1509" cy="46.664" rx="2.75011" ry="2.75011" style="stroke:rgb(0,0,0);stroke-width:0.1;fill:none;"/>
  <ellipse cx="62.3526" cy="46.664" rx="2.75011" ry="2.75011" style="stroke:rgb(0,0,0);stroke-width:0.1;fill:none;"/>
  <path d="M49.022,77.2953 L46.2819,77.2953" style="stroke:rgb(0,0,0);stroke-width:0.1;fill:none" />
  <path d="M49.022,80.0354 L49.022,77.2953" style="stroke:rgb(0,0,0);stroke-width:0.1;fill:none" />
  <path d="M46.2819,77.2953 L46.2819,80.0354" style="stroke:rgb(0,0,0);stroke-width:0.1;fill:none" />
  <path d="M46.2819,80.0354 L49.022,80.0354" style="stroke:rgb(0,0,0);stroke-width:0.1;fill:none" />
  <path d="M38.2216,77.2953 L35.4815,77.2953" style="stroke:rgb(0,0,0);stroke-width:0.1;fill:none" />
  <path d="M38.2216,80.0354 L38.2216,77.2953" style="stroke:rgb(0,0,0);stroke-width:0.1;fill:none" />
  <path d="M35.4815,77.2953 L35.4815,80.0354" style="stroke:rgb(0,0,0);stroke-width:0.1;fill:none" />
  <path d="M35.4815,80.0354 L38.2216,80.0354" style="stroke:rgb(0,0,0);stroke-width:0.1;fill:none" />
  <path d="M43.6218,45.2939 L40.8817,45.2939" style="stroke:rgb(0,0,0);stroke-width:0.1;fill:none" />
  <path d="M43.6218,48.0341 L43.6218,45.2939" style="stroke:rgb(0,0,0);stroke-width:0.1;fill:none" />
  <path d="M40.8817,45.2939 L40.8817,48.0341" style="stroke:rgb(0,0,0);stroke-width:0.1;fill:none" />
  <path d="M40.8817,48.0341 L43.6218,48.0341" style="stroke:rgb(0,0,0);stroke-width:0.1;fill:none" />
  <path d="M49.022,31.2934 L46.2819,31.2934" style="stroke:rgb(0,0,0);stroke-width:0.1;fill:none" />
  <path d="M49.022,34.0335 L49.022,31.2934" style="stroke:rgb(0,0,0);stroke-width:0.1;fill:none" />
  <path d="M46.2819,31.2934 L46.2819,34.0335" style="stroke:rgb(0,0,0);stroke-width:0.1;fill:none" />
  <path d="M46.2819,34.0335 L49.022,34.0335" style="stroke:rgb(0,0,0);stroke-width:0.1;fill:none" />
  <path d="M38.2216,31.2934 L35.4815,31.2934" style="stroke:rgb(0,0,0);stroke-width:0.1;fill:none" />
  <path d="M38.2216,34.0335 L38.2216,31.2934" style="stroke:rgb(0,0,0);stroke-width:0.1;fill:none" />
  <path d="M35.4815,31.2934 L35.4815,34.0335" style="stroke:rgb(0,0,0);stroke-width:0.1;fill:none" />
  <path d="M35.4815,34.0335 L38.2216,34.0335" style="stroke:rgb(0,0,0);stroke-width:0.1;fill:none" />
  <ellipse cx="25.251" cy="9.6625" rx="1.50006" ry="1.50006" style="stroke:rgb(0,0,0);stroke-width:0.25;fill:none;"/>
  <path d="M30.2512,7.1624 L35.2515,7.1624" style="stroke:rgb(0,0,0);stroke-width:0.25;fill:none" />
  <path d="M30.2512,12.1626 L35.2515,12.1626" style="stroke:rgb(0,0,0);stroke-width:0.25;fill:none" />
  <path d="M20.2508,7.1624 L15.2506,7.1624" style="stroke:rgb(0,0,0);stroke-width:0.25;fill:none" />
  <path d="M20.2508,12.1626 L15.2506,12.1626" style="stroke:rgb(0,0,0);stroke-width:0.25;fill:none" />
  <path d="M15.2506,7.1624 L15.2506,12.1626" style="stroke:rgb(0,0,0);stroke-width:0.25;fill:none" />
  <path d="M20.2508,7.1624 L20.2508,12.1626" style="stroke:rgb(0,0,0);stroke-width:0.25;fill:none" />
  <path d="M30.2512,7.1624 L30.2512,12.1626" style="stroke:rgb(0,0,0);stroke-width:0.25;fill:none" />
  <path d="M35.2515,7.1624 L35.2515,12.1626" style="stroke:rgb(0,0,0);stroke-width:0.25;fill:none" />
  <ellipse cx="57.2923" cy="46.624" rx="2.70011" ry="2.70011" style="stroke:rgb(0,0,0);stroke-width:0.1;fill:none;"/>
  <ellipse cx="42.2917" cy="61.6246" rx="2.70011" ry="2.70011" style="stroke:rgb(0,0,0);stroke-width:0.1;fill:none;"/>
  <ellipse cx="27.2911" cy="46.624" rx="2.70011" ry="2.70011" style="stroke:rgb(0,0,0);stroke-width:0.1;fill:none;"/>
  <ellipse cx="25.251" cy="101.59" rx="1.50006" ry="1.50006" style="stroke:rgb(0,0,0);stroke-width:0.25;fill:none;"/>
  <path d="M30.2512,99.0899 L35.2515,99.0899" style="stroke:rgb(0,0,0);stroke-width:0.25;fill:none" />
  <path d="M30.2512,104.09 L35.2515,104.09" style="stroke:rgb(0,0,0);stroke-width:0.25;fill:none" />
  <path d="M20.2508,99.0899 L15.2506,99.0899" style="stroke:rgb(0,0,0);stroke-width:0.25;fill:none" />
  <path d="M20.2508,104.09 L15.2506,104.09" style="stroke:rgb(0,0,0);stroke-width:0.25;fill:none" />
  <path d="M15.2506,99.0899 L15.2506,104.09" style="stroke:rgb(0,0,0);stroke-width:0.25;fill:none" />
  <path d="M20.2508,99.0899 L20.2508,104.09" style="stroke:rgb(0,0,0);stroke-width:0.25;fill:none" />
  <path d="M30.2512,99.0899 L30.2512,104.09" style="stroke:rgb(0,0,0);stroke-width:0.25;fill:none" />
  <path d="M35.2515,99.0899 L35.2515,104.09" style="stroke:rgb(0,0,0);stroke-width:0.25;fill:none" />
  <path d="M10.2504,109.091 L10.2504,2.16219" style="stroke:rgb(0,0,0);stroke-width:0.1;fill:none" />
  <ellipse cx="59.2524" cy="9.6625" rx="1.50006" ry="1.50006" style="stroke:rgb(0,0,0);stroke-width:0.25;fill:none;"/>
  <path d="M64.2526,7.1624 L69.2528,7.1624" style="stroke:rgb(0,0,0);stroke-width:0.25;fill:none" />
  <path d="M64.2526,12.1626 L69.2528,12.1626" style="stroke:rgb(0,0,0);stroke-width:0.25;fill:none" />
  <path d="M54.2522,7.1624 L49.252,7.1624" style="stroke:rgb(0,0,0);stroke-width:0.25;fill:none" />
  <path d="M54.2522,12.1626 L49.252,12.1626" style="stroke:rgb(0,0,0);stroke-width:0.25;fill:none" />
  <path d="M49.252,7.1624 L49.252,12.1626" style="stroke:rgb(0,0,0);stroke-width:0.25;fill:none" />
  <path d="M54.2522,7.1624 L54.2522,12.1626" style="stroke:rgb(0,0,0);stroke-width:0.25;fill:none" />
  <path d="M64.2526,7.1624 L64.2526,12.1626" style="stroke:rgb(0,0,0);stroke-width:0.25;fill:none" />
  <path d="M69.2528,7.1624 L69.2528,12.1626" style="stroke:rgb(0,0,0);stroke-width:0.25;fill:none" />
  <ellipse cx="59.2524" cy="101.59" rx="1.50006" ry="1.50006" style="stroke:rgb(0,0,0);stroke-width:0.25;fill:none;"/>
  <path d="M64.2526,99.0899 L69.2528,99.0899" style="stroke:rgb(0,0,0);stroke-width:0.25;fill:none" />
  <path d="M64.2526,104.09 L69.2528,104.09" style="stroke:rgb(0,0,0);stroke-width:0.25;fill:none" />
  <path d="M54.2522,99.0899 L49.252,99.0899" style="stroke:rgb(0,0,0);stroke-width:0.25;fill:none" />
  <path d="M54.2522,104.09 L49.252,104.09" style="stroke:rgb(0,0,0);stroke-width:0.25;fill:none" />
  <path d="M49.252,99.0899 L49.252,104.09" style="stroke:rgb(0,0,0);stroke-width:0.25;fill:none" />
  <path d="M54.2522,99.0899 L54.2522,104.09" style="stroke:rgb(0,0,0);stroke-width:0.25;fill:none" />
  <path d="M64.2526,99.0899 L64.2526,104.09" style="stroke:rgb(0,0,0);stroke-width:0.25;fill:none" />
  <path d="M69.2528,99.0899 L69.2528,104.09" style="stroke:rgb(0,0,0);stroke-width:0.25;fill:none" />
  <path d="M74.253,2.16219 L74.253,109.091" style="stroke:rgb(0,0,0);stroke-width:0.1;fill:none" />
  <path d="M10.2504,2.16219 L74.253,2.16219" style="stroke:rgb(0,0,0);stroke-width:0.1;fill:none" />
  <path d="M74.253,109.091 L10.2504,109.091" style="stroke:rgb(0,0,0);stroke-width:0.1;fill:none" />
  <ellipse cx="92.7002" cy="9.91261" rx="1.50006" ry="1.50006" style="stroke:rgb(0,0,0);stroke-width:0.1;fill:none;"/>
  <path d="M97.7005,7.41251 L97.7005,12.4127" style="stroke:rgb(0,0,0);stroke-width:0.1;fill:none" />
  <ellipse cx="184.628" cy="9.91261" rx="1.50006" ry="1.50006" style="stroke:rgb(0,0,0);stroke-width:0.1;fill:none;"/>
  <path d="M179.628,7.41251 L179.628,12.4127" style="stroke:rgb(0,0,0);stroke-width:0.1;fill:none" />
  <ellipse cx="92.7002" cy="101.84" rx="1.50006" ry="1.50006" style="stroke:rgb(0,0,0);stroke-width:0.1;fill:none;"/>
  <ellipse cx="184.628" cy="101.84" rx="1.50006" ry="1.50006" style="stroke:rgb(0,0,0);stroke-width:0.1;fill:none;"/>
  <path d="M88.662,1.91228 L188.666,1.91228" style="stroke:rgb(0,0,0);stroke-width:0.1;fill:none" />
  <path d="M188.666,109.34 L88.662,109.34" style="stroke:rgb(0,0,0);stroke-width:0.1;fill:none" />
  <path d="M188.666,1.91228 L188.666,109.34" style="stroke:rgb(0,0,0);stroke-width:0.1;fill:none" />
  <path d="M88.662,109.34 L88.662,1.91228" style="stroke:rgb(0,0,0);stroke-width:0.1;fill:none" />
  <path d="M117.701,7.41251 L97.7005,7.41251" style="stroke:rgb(0,0,0);stroke-width:0.1;fill:none" />
  <path d="M159.627,12.4127 L179.628,12.4127" style="stroke:rgb(0,0,0);stroke-width:0.1;fill:none" />
  <path d="M117.701,7.41251 L117.701,12.4127" style="stroke:rgb(0,0,0);stroke-width:0.1;fill:none" />
  <path d="M159.627,7.41251 L159.627,12.4127" style="stroke:rgb(0,0,0);stroke-width:0.1;fill:none" />
  <path d="M97.7005,12.4127 L117.701,12.4127" style="stroke:rgb(0,0,0);stroke-width:0.1;fill:none" />
  <path d="M179.628,7.41251 L159.627,7.41251" style="stroke:rgb(0,0,0);stroke-width:0.1;fill:none" />
  <path d="M159.627,99.3401 L159.627,104.34" style="stroke:rgb(0,0,0);stroke-width:0.1;fill:none" />
  <path d="M179.628,99.3401 L159.627,99.3401" style="stroke:rgb(0,0,0);stroke-width:0.1;fill:none" />
  <path d="M179.628,99.3401 L179.628,104.34" style="stroke:rgb(0,0,0);stroke-width:0.1;fill:none" />
  <path d="M159.627,104.34 L179.628,104.34" style="stroke:rgb(0,0,0);stroke-width:0.1;fill:none" />
  <path d="M97.7005,99.3401 L97.7005,104.34" style="stroke:rgb(0,0,0);stroke-width:0.1;fill:none" />
  <path d="M117.701,99.3401 L97.7005,99.3401" style="stroke:rgb(0,0,0);stroke-width:0.1;fill:none" />
  <path d="M117.701,99.3401 L117.701,104.34" style="stroke:rgb(0,0,0);stroke-width:0.1;fill:none" />
  <path d="M97.7005,104.34 L117.701,104.34" style="stroke:rgb(0,0,0);stroke-width:0.1;fill:none" />
  <path d="M24.4916,330.909 L44.4924,415.912" style="stroke:rgb(0,0,0);stroke-width:0.1;fill:none" />
  <path d="M322.504,415.912 L44.4924,415.912" style="stroke:rgb(0,0,0);stroke-width:0.1;fill:none" />
  <path d="M24.4916,330.909 L302.503,330.909" style="stroke:rgb(0,0,0);stroke-width:0.1;fill:none" />
  <path d="M322.504,415.912 L302.503,330.909" style="stroke:rgb(0,0,0);stroke-width:0.1;fill:none" />
  <path d="M42.038,211.991 L42.038,207.491" style="stroke:rgb(0,0,0);stroke-width:0.1;fill:none" />
  <path d="M42.538,206.991 A0.50002,0.50002 0 0,0 42.038,207.491 " style="stroke:rgb(0,0,0);stroke-width:0.1;fill:none" />
  <path d="M123.965,211.991 L123.965,207.491" style="stroke:rgb(0,0,0);stroke-width:0.1;fill:none" />
  <path d="M123.965,207.491 A0.50002,0.50002 0 0,0 123.465,206.991 " style="stroke:rgb(0,0,0);stroke-width:0.1;fill:none" />
  <path d="M32.9995,203.071 L32.9995,211.991" style="stroke:rgb(0,0,0);stroke-width:0.1;fill:none" />
  <path d="M64.5008,226.422 L67.5009,226.422" style="stroke:rgb(0,0,0);stroke-width:0.25;fill:none" />
  <path d="M63.1408,229.592 L63.1408,227.422" style="stroke:rgb(0,0,0);stroke-width:0.25;fill:none" />
  <path d="M68.861,227.422 L68.861,229.592" style="stroke:rgb(0,0,0);stroke-width:0.25;fill:none" />
  <path d="M64.5008,229.592 L63.1408,229.592" style="stroke:rgb(0,0,0);stroke-width:0.25;fill:none" />
  <path d="M68.861,229.592 L67.5009,229.592" style="stroke:rgb(0,0,0);stroke-width:0.25;fill:none" />
  <path d="M67.5009,226.422 L67.5009,227.422" style="stroke:rgb(0,0,0);stroke-width:0.25;fill:none" />
  <path d="M67.5009,227.422 L68.861,227.422" style="stroke:rgb(0,0,0);stroke-width:0.25;fill:none" />
  <path d="M63.1408,227.422 L64.5008,227.422" style="stroke:rgb(0,0,0);stroke-width:0.25;fill:none" />
  <path d="M64.5008,227.422 L64.5008,226.422" style="stroke:rgb(0,0,0);stroke-width:0.25;fill:none" />
  <path d="M56.0005,242.423 L56.0005,237.922" style="stroke:rgb(0,0,0);stroke-width:0.25;fill:none" />
  <path d="M56.0005,242.423 A0.50002,0.50002 0 0,0 56.5005,242.923 " style="stroke:rgb(0,0,0);stroke-width:0.25;fill:none" />
  <path d="M60.5007,242.923 L56.5005,242.923" style="stroke:rgb(0,0,0);stroke-width:0.25;fill:none" />
  <path d="M61.0007,237.922 L61.0007,242.423" style="stroke:rgb(0,0,0);stroke-width:0.25;fill:none" />
  <path d="M60.5007,242.923 A0.50002,0.50002 0 0,0 61.0007,242.423 " style="stroke:rgb(0,0,0);stroke-width:0.25;fill:none" />
  <path d="M64.0008,237.922 L61.0007,237.922" style="stroke:rgb(0,0,0);stroke-width:0.25;fill:none" />
  <path d="M64.5008,237.422 L64.5008,229.592" style="stroke:rgb(0,0,0);stroke-width:0.25;fill:none" />
  <path d="M64.0008,237.922 A0.50002,0.50002 0 0,0 64.5008,237.422 " style="stroke:rgb(0,0,0);stroke-width:0.25;fill:none" />
  <path d="M67.5009,229.592 L67.5009,237.422" style="stroke:rgb(0,0,0);stroke-width:0.25;fill:none" />
  <path d="M68.001,237.922 L71.0011,237.922" style="stroke:rgb(0,0,0);stroke-width:0.25;fill:none" />
  <path d="M67.5009,237.422 A0.50002,0.50002 0 0,0 68.001,237.922 " style="stroke:rgb(0,0,0);stroke-width:0.25;fill:none" />
  <path d="M71.0011,237.922 L71.0011,242.423" style="stroke:rgb(0,0,0);stroke-width:0.25;fill:none" />
  <path d="M71.0011,242.423 A0.50002,0.50002 0 0,0 71.5011,242.923 " style="stroke:rgb(0,0,0);stroke-width:0.25;fill:none" />
  <path d="M71.5011,242.923 L75.5013,242.923" style="stroke:rgb(0,0,0);stroke-width:0.25;fill:none" />
  <path d="M76.0013,242.423 L76.0013,237.922" style="stroke:rgb(0,0,0);stroke-width:0.25;fill:none" />
  <path d="M75.5013,242.923 A0.50002,0.50002 0 0,0 76.0013,242.423 " style="stroke:rgb(0,0,0);stroke-width:0.25;fill:none" />
  <path d="M19.8621,211.059 A3.16513,3.16513 0 0,0 24.3383,206.583 " style="stroke:rgb(0,0,0);stroke-width:0.1;fill:none" />
  <path d="M24.3383,203.071 A3.51215,3.51215 0 0,0 21.8548,204.1 " style="stroke:rgb(0,0,0);stroke-width:0.1;fill:none" />
  <path d="M24.3383,206.583 L21.8548,204.1" style="stroke:rgb(0,0,0);stroke-width:0.1;fill:none" />
  <ellipse cx="42.251" cy="218.822" rx="1.50006" ry="1.50006" style="stroke:rgb(0,0,0);stroke-width:0.1;fill:none;"/>
  <ellipse cx="33.4006" cy="226.822" rx="2.00008" ry="2.00008" style="stroke:rgb(0,0,0);stroke-width:0.1;fill:none;"/>
  <ellipse cx="42.251" cy="235.922" rx="1.50006" ry="1.50006" style="stroke:rgb(0,0,0);stroke-width:0.1;fill:none;"/>
  <path d="M32.9995,203.071 L24.3383,203.071" style="stroke:rgb(0,0,0);stroke-width:0.1;fill:none" />
  <path d="M51.4014,229.822 L51.4014,223.822" style="stroke:rgb(0,0,0);stroke-width:0.1;fill:none" />
  <path d="M51.4014,223.822 L56.1016,223.822" style="stroke:rgb(0,0,0);stroke-width:0.1;fill:none" />
  <path d="M56.1016,223.822 L56.1016,229.822" style="stroke:rgb(0,0,0);stroke-width:0.1;fill:none" />
  <path d="M56.1016,229.822 L51.4014,229.822" style="stroke:rgb(0,0,0);stroke-width:0.1;fill:none" />
  <ellipse cx="22.1002" cy="226.822" rx="4.75019" ry="4.75019" style="stroke:rgb(0,0,0);stroke-width:0.1;fill:none;"/>
  <path d="M51.0003,237.922 L51.0003,242.923" style="stroke:rgb(0,0,0);stroke-width:0.1;fill:none" />
  <path d="M22.1002,242.923 L51.0003,242.923" style="stroke:rgb(0,0,0);stroke-width:0.1;fill:none" />
  <path d="M51.0003,237.922 L56.0005,237.922" style="stroke:rgb(0,0,0);stroke-width:0.1;fill:none" />
  <path d="M136.504,211.991 A0.50002,0.50002 0 0,0 136.004,212.491 " style="stroke:rgb(0,0,0);stroke-width:0.1;fill:none" />
  <path d="M136.504,211.991 L138.542,211.991" style="stroke:rgb(0,0,0);stroke-width:0.1;fill:none" />
  <path d="M138.542,208.821 L138.542,211.991" style="stroke:rgb(0,0,0);stroke-width:0.1;fill:none" />
  <ellipse cx="146.542" cy="218.822" rx="1.50006" ry="1.50006" style="stroke:rgb(0,0,0);stroke-width:0.1;fill:none;"/>
  <path d="M143.377,208.821 A2.4176,2.4176 0 0,0 138.542,208.821 " style="stroke:rgb(0,0,0);stroke-width:0.1;fill:none" />
  <path d="M154.543,208.821 A2.4176,2.4176 0 0,0 149.707,208.821 " style="stroke:rgb(0,0,0);stroke-width:0.1;fill:none" />
  <path d="M143.377,208.821 A3.16513,3.16513 0 1,0 149.707,208.821 " style="stroke:rgb(0,0,0);stroke-width:0.1;fill:none" />
  <path d="M146.542,242.923 A8.00033,8.00033 0 0,0 154.543,234.922 " style="stroke:rgb(0,0,0);stroke-width:0.1;fill:none" />
  <path d="M154.543,208.821 L154.543,234.922" style="stroke:rgb(0,0,0);stroke-width:0.1;fill:none" />
  <path d="M98.5022,226.422 L101.502,226.422" style="stroke:rgb(0,0,0);stroke-width:0.25;fill:none" />
  <path d="M97.1421,229.592 L97.1421,227.422" style="stroke:rgb(0,0,0);stroke-width:0.25;fill:none" />
  <path d="M102.862,227.422 L102.862,229.592" style="stroke:rgb(0,0,0);stroke-width:0.25;fill:none" />
  <path d="M98.5022,229.592 L97.1421,229.592" style="stroke:rgb(0,0,0);stroke-width:0.25;fill:none" />
  <path d="M102.862,229.592 L101.502,229.592" style="stroke:rgb(0,0,0);stroke-width:0.25;fill:none" />
  <path d="M101.502,226.422 L101.502,227.422" style="stroke:rgb(0,0,0);stroke-width:0.25;fill:none" />
  <path d="M101.502,227.422 L102.862,227.422" style="stroke:rgb(0,0,0);stroke-width:0.25;fill:none" />
  <path d="M97.1421,227.422 L98.5022,227.422" style="stroke:rgb(0,0,0);stroke-width:0.25;fill:none" />
  <path d="M98.5022,227.422 L98.5022,226.422" style="stroke:rgb(0,0,0);stroke-width:0.25;fill:none" />
  <path d="M90.0019,242.423 L90.0019,237.922" style="stroke:rgb(0,0,0);stroke-width:0.25;fill:none" />
  <path d="M90.0019,242.423 A0.50002,0.50002 0 0,0 90.5019,242.923 " style="stroke:rgb(0,0,0);stroke-width:0.25;fill:none" />
  <path d="M94.502,242.923 L90.5019,242.923" style="stroke:rgb(0,0,0);stroke-width:0.25;fill:none" />
  <path d="M95.0021,237.922 L95.0021,242.423" style="stroke:rgb(0,0,0);stroke-width:0.25;fill:none" />
  <path d="M94.502,242.923 A0.50002,0.50002 0 0,0 95.0021,242.423 " style="stroke:rgb(0,0,0);stroke-width:0.25;fill:none" />
  <path d="M98.0022,237.922 L95.0021,237.922" style="stroke:rgb(0,0,0);stroke-width:0.25;fill:none" />
  <path d="M98.5022,237.422 L98.5022,229.592" style="stroke:rgb(0,0,0);stroke-width:0.25;fill:none" />
  <path d="M98.0022,237.922 A0.50002,0.50002 0 0,0 98.5022,237.422 " style="stroke:rgb(0,0,0);stroke-width:0.25;fill:none" />
  <path d="M101.502,229.592 L101.502,237.422" style="stroke:rgb(0,0,0);stroke-width:0.25;fill:none" />
  <path d="M102.002,237.922 L105.002,237.922" style="stroke:rgb(0,0,0);stroke-width:0.25;fill:none" />
  <path d="M101.502,237.422 A0.50002,0.50002 0 0,0 102.002,237.922 " style="stroke:rgb(0,0,0);stroke-width:0.25;fill:none" />
  <path d="M105.002,237.922 L105.002,242.423" style="stroke:rgb(0,0,0);stroke-width:0.25;fill:none" />
  <path d="M105.002,242.423 A0.50002,0.50002 0 0,0 105.502,242.923 " style="stroke:rgb(0,0,0);stroke-width:0.25;fill:none" />
  <path d="M105.502,242.923 L109.503,242.923" style="stroke:rgb(0,0,0);stroke-width:0.25;fill:none" />
  <path d="M110.003,242.423 L110.003,237.922" style="stroke:rgb(0,0,0);stroke-width:0.25;fill:none" />
  <path d="M109.503,242.923 A0.50002,0.50002 0 0,0 110.003,242.423 " style="stroke:rgb(0,0,0);stroke-width:0.25;fill:none" />
  <path d="M76.0013,237.922 L90.0019,237.922" style="stroke:rgb(0,0,0);stroke-width:0.1;fill:none" />
  <path d="M115.003,237.922 L115.003,242.923" style="stroke:rgb(0,0,0);stroke-width:0.1;fill:none" />
  <path d="M110.003,237.922 L115.003,237.922" style="stroke:rgb(0,0,0);stroke-width:0.1;fill:none" />
  <path d="M115.003,242.923 L146.542,242.923" style="stroke:rgb(0,0,0);stroke-width:0.1;fill:none" />
  <path d="M136.004,213.821 L136.004,212.491" style="stroke:rgb(0,0,0);stroke-width:0.1;fill:none" />
  <path d="M134.004,212.491 A0.50002,0.50002 0 0,0 133.504,211.991 " style="stroke:rgb(0,0,0);stroke-width:0.1;fill:none" />
  <path d="M134.004,212.491 L134.004,213.821" style="stroke:rgb(0,0,0);stroke-width:0.1;fill:none" />
  <path d="M133.504,211.991 L123.965,211.991" style="stroke:rgb(0,0,0);stroke-width:0.1;fill:none" />
  <path d="M134.004,213.821 A10.0503,10.0503 0 1,0 136.004,213.821 " style="stroke:rgb(0,0,0);stroke-width:0.1;fill:none" />
  <ellipse cx="9.46998" cy="217.469" rx="1.50006" ry="1.50006" style="stroke:rgb(0,0,0);stroke-width:0.1;fill:none;"/>
  <path d="M15.0583,217.622 L19.59,215.509" style="stroke:rgb(0,0,0);stroke-width:0.1;fill:none" />
  <path d="M5.99484,221.848 L1.46312,223.961" style="stroke:rgb(0,0,0);stroke-width:0.1;fill:none" />
  <path d="M3.88166,217.317 L5.99484,221.848" style="stroke:rgb(0,0,0);stroke-width:0.1;fill:none" />
  <path d="M12.9451,213.09 L15.0583,217.622" style="stroke:rgb(0,0,0);stroke-width:0.1;fill:none" />
  <path d="M3.88166,217.317 L12.9451,213.09" style="stroke:rgb(0,0,0);stroke-width:0.1;fill:none" />
  <path d="M17.4768,210.977 L19.59,215.509" style="stroke:rgb(0,0,0);stroke-width:0.1;fill:none" />
  <path d="M17.4768,210.977 L19.8621,211.059" style="stroke:rgb(0,0,0);stroke-width:0.1;fill:none" />
  <path d="M16.4431,240.579 A8.00033,8.00033 0 0,0 22.1002,242.923 " style="stroke:rgb(0,0,0);stroke-width:0.1;fill:none" />
  <path d="M1.46312,223.961 L16.4431,240.579" style="stroke:rgb(0,0,0);stroke-width:0.1;fill:none" />
  <path d="M32.9995,211.991 L42.038,211.991" style="stroke:rgb(0,0,0);stroke-width:0.1;fill:none" />
  <path d="M62.0388,207.491 L62.0388,211.991" style="stroke:rgb(0,0,0);stroke-width:0.1;fill:none" />
  <path d="M62.0388,207.491 A0.50002,0.50002 0 0,0 61.5388,206.991 " style="stroke:rgb(0,0,0);stroke-width:0.1;fill:none" />
  <path d="M42.038,206.991 L61.5388,206.991" style="stroke:rgb(0,0,0);stroke-width:0.1;fill:none" />
  <path d="M103.964,207.491 L103.964,211.991" style="stroke:rgb(0,0,0);stroke-width:0.1;fill:none" />
  <path d="M104.464,206.991 A0.50002,0.50002 0 0,0 103.964,207.491 " style="stroke:rgb(0,0,0);stroke-width:0.1;fill:none" />
  <path d="M123.465,206.991 L104.464,206.991" style="stroke:rgb(0,0,0);stroke-width:0.1;fill:none" />
  <path d="M62.0388,211.991 L103.964,211.991" style="stroke:rgb(0,0,0);stroke-width:0.1;fill:none" />
  <ellipse cx="146.542" cy="234.922" rx="1.50006" ry="1.50006" style="stroke:rgb(0,0,0);stroke-width:0.1;fill:none;"/>
  <path d="M110.003,233.822 L110.003,233.822" style="stroke:rgb(0,0,0);stroke-width:0.1;fill:none" />
  <path d="M110.003,233.822 L116.003,233.822" style="stroke:rgb(0,0,0);stroke-width:0.1;fill:none" />
  <ellipse cx="113.003" cy="228.822" rx="1.50006" ry="1.50006" style="stroke:rgb(0,0,0);stroke-width:0.1;fill:none;"/>
  <path d="M110.003,230.322 L110.003,233.822" style="stroke:rgb(0,0,0);stroke-width:0.1;fill:none" />
  <path d="M116.003,233.822 L116.003,230.322" style="stroke:rgb(0,0,0);stroke-width:0.1;fill:none" />
  <path d="M116.003,230.322 L113.003,230.322" style="stroke:rgb(0,0,0);stroke-width:0.1;fill:none" />
  <path d="M113.003,230.322 L113.003,230.322" style="stroke:rgb(0,0,0);stroke-width:0.1;fill:none" />
  <path d="M113.003,230.322 L113.003,230.322" style="stroke:rgb(0,0,0);stroke-width:0.1;fill:none" />
  <path d="M113.003,230.322 L110.003,230.322" style="stroke:rgb(0,0,0);stroke-width:0.1;fill:none" />
  <path d="M42.038,261.993 L42.038,257.493" style="stroke:rgb(0,0,0);stroke-width:0.1;fill:none" />
  <path d="M42.538,256.993 A0.50002,0.50002 0 0,0 42.038,257.493 " style="stroke:rgb(0,0,0);stroke-width:0.1;fill:none" />
  <path d="M123.965,261.993 L123.965,257.493" style="stroke:rgb(0,0,0);stroke-width:0.1;fill:none" />
  <path d="M123.965,257.493 A0.50002,0.50002 0 0,0 123.465,256.993 " style="stroke:rgb(0,0,0);stroke-width:0.1;fill:none" />
  <path d="M32.9995,253.073 L32.9995,261.993" style="stroke:rgb(0,0,0);stroke-width:0.1;fill:none" />
  <path d="M64.5008,276.424 L67.5009,276.424" style="stroke:rgb(0,0,0);stroke-width:0.25;fill:none" />
  <path d="M63.1408,279.594 L63.1408,277.424" style="stroke:rgb(0,0,0);stroke-width:0.25;fill:none" />
  <path d="M68.861,277.424 L68.861,279.594" style="stroke:rgb(0,0,0);stroke-width:0.25;fill:none" />
  <path d="M64.5008,279.594 L63.1408,279.594" style="stroke:rgb(0,0,0);stroke-width:0.25;fill:none" />
  <path d="M68.861,279.594 L67.5009,279.594" style="stroke:rgb(0,0,0);stroke-width:0.25;fill:none" />
  <path d="M67.5009,276.424 L67.5009,277.424" style="stroke:rgb(0,0,0);stroke-width:0.25;fill:none" />
  <path d="M67.5009,277.424 L68.861,277.424" style="stroke:rgb(0,0,0);stroke-width:0.25;fill:none" />
  <path d="M63.1408,277.424 L64.5008,277.424" style="stroke:rgb(0,0,0);stroke-width:0.25;fill:none" />
  <path d="M64.5008,277.424 L64.5008,276.424" style="stroke:rgb(0,0,0);stroke-width:0.25;fill:none" />
  <path d="M56.0005,292.425 L56.0005,287.924" style="stroke:rgb(0,0,0);stroke-width:0.25;fill:none" />
  <path d="M56.0005,292.425 A0.50002,0.50002 0 0,0 56.5005,292.925 " style="stroke:rgb(0,0,0);stroke-width:0.25;fill:none" />
  <path d="M60.5007,292.925 L56.5005,292.925" style="stroke:rgb(0,0,0);stroke-width:0.25;fill:none" />
  <path d="M61.0007,287.924 L61.0007,292.425" style="stroke:rgb(0,0,0);stroke-width:0.25;fill:none" />
  <path d="M60.5007,292.925 A0.50002,0.50002 0 0,0 61.0007,292.425 " style="stroke:rgb(0,0,0);stroke-width:0.25;fill:none" />
  <path d="M64.0008,287.924 L61.0007,287.924" style="stroke:rgb(0,0,0);stroke-width:0.25;fill:none" />
  <path d="M64.5008,287.424 L64.5008,279.594" style="stroke:rgb(0,0,0);stroke-width:0.25;fill:none" />
  <path d="M64.0008,287.924 A0.50002,0.50002 0 0,0 64.5008,287.424 " style="stroke:rgb(0,0,0);stroke-width:0.25;fill:none" />
  <path d="M67.5009,279.594 L67.5009,287.424" style="stroke:rgb(0,0,0);stroke-width:0.25;fill:none" />
  <path d="M68.001,287.924 L71.0011,287.924" style="stroke:rgb(0,0,0);stroke-width:0.25;fill:none" />
  <path d="M67.5009,287.424 A0.50002,0.50002 0 0,0 68.001,287.924 " style="stroke:rgb(0,0,0);stroke-width:0.25;fill:none" />
  <path d="M71.0011,287.924 L71.0011,292.425" style="stroke:rgb(0,0,0);stroke-width:0.25;fill:none" />
  <path d="M71.0011,292.425 A0.50002,0.50002 0 0,0 71.5011,292.925 " style="stroke:rgb(0,0,0);stroke-width:0.25;fill:none" />
  <path d="M71.5011,292.925 L75.5013,292.925" style="stroke:rgb(0,0,0);stroke-width:0.25;fill:none" />
  <path d="M76.0013,292.425 L76.0013,287.924" style="stroke:rgb(0,0,0);stroke-width:0.25;fill:none" />
  <path d="M75.5013,292.925 A0.50002,0.50002 0 0,0 76.0013,292.425 " style="stroke:rgb(0,0,0);stroke-width:0.25;fill:none" />
  <path d="M19.8621,261.061 A3.16513,3.16513 0 0,0 24.3383,256.585 " style="stroke:rgb(0,0,0);stroke-width:0.1;fill:none" />
  <path d="M24.3383,253.073 A3.51215,3.51215 0 0,0 21.8548,254.102 " style="stroke:rgb(0,0,0);stroke-width:0.1;fill:none" />
  <path d="M24.3383,256.585 L21.8548,254.102" style="stroke:rgb(0,0,0);stroke-width:0.1;fill:none" />
  <ellipse cx="42.251" cy="268.824" rx="1.50006" ry="1.50006" style="stroke:rgb(0,0,0);stroke-width:0.1;fill:none;"/>
  <ellipse cx="33.4006" cy="276.824" rx="2.00008" ry="2.00008" style="stroke:rgb(0,0,0);stroke-width:0.1;fill:none;"/>
  <ellipse cx="42.251" cy="285.924" rx="1.50006" ry="1.50006" style="stroke:rgb(0,0,0);stroke-width:0.1;fill:none;"/>
  <path d="M32.9995,253.073 L24.3383,253.073" style="stroke:rgb(0,0,0);stroke-width:0.1;fill:none" />
  <path d="M51.4014,279.824 L51.4014,273.824" style="stroke:rgb(0,0,0);stroke-width:0.1;fill:none" />
  <path d="M51.4014,273.824 L56.1016,273.824" style="stroke:rgb(0,0,0);stroke-width:0.1;fill:none" />
  <path d="M56.1016,273.824 L56.1016,279.824" style="stroke:rgb(0,0,0);stroke-width:0.1;fill:none" />
  <path d="M56.1016,279.824 L51.4014,279.824" style="stroke:rgb(0,0,0);stroke-width:0.1;fill:none" />
  <ellipse cx="22.1002" cy="276.824" rx="4.75019" ry="4.75019" style="stroke:rgb(0,0,0);stroke-width:0.1;fill:none;"/>
  <path d="M51.0003,287.924 L51.0003,292.925" style="stroke:rgb(0,0,0);stroke-width:0.1;fill:none" />
  <path d="M22.1002,292.925 L51.0003,292.925" style="stroke:rgb(0,0,0);stroke-width:0.1;fill:none" />
  <path d="M51.0003,287.924 L56.0005,287.924" style="stroke:rgb(0,0,0);stroke-width:0.1;fill:none" />
  <path d="M136.504,261.993 A0.50002,0.50002 0 0,0 136.004,262.493 " style="stroke:rgb(0,0,0);stroke-width:0.1;fill:none" />
  <path d="M136.504,261.993 L138.542,261.993" style="stroke:rgb(0,0,0);stroke-width:0.1;fill:none" />
  <path d="M138.542,258.823 L138.542,261.993" style="stroke:rgb(0,0,0);stroke-width:0.1;fill:none" />
  <ellipse cx="146.542" cy="268.824" rx="1.50006" ry="1.50006" style="stroke:rgb(0,0,0);stroke-width:0.1;fill:none;"/>
  <path d="M143.377,258.823 A2.4176,2.4176 0 0,0 138.542,258.823 " style="stroke:rgb(0,0,0);stroke-width:0.1;fill:none" />
  <path d="M154.543,258.823 A2.4176,2.4176 0 0,0 149.707,258.823 " style="stroke:rgb(0,0,0);stroke-width:0.1;fill:none" />
  <path d="M143.377,258.823 A3.16513,3.16513 0 1,0 149.707,258.823 " style="stroke:rgb(0,0,0);stroke-width:0.1;fill:none" />
  <path d="M146.542,292.925 A8.00033,8.00033 0 0,0 154.543,284.924 " style="stroke:rgb(0,0,0);stroke-width:0.1;fill:none" />
  <path d="M154.543,258.823 L154.543,284.924" style="stroke:rgb(0,0,0);stroke-width:0.1;fill:none" />
  <path d="M98.5022,276.424 L101.502,276.424" style="stroke:rgb(0,0,0);stroke-width:0.25;fill:none" />
  <path d="M97.1421,279.594 L97.1421,277.424" style="stroke:rgb(0,0,0);stroke-width:0.25;fill:none" />
  <path d="M102.862,277.424 L102.862,279.594" style="stroke:rgb(0,0,0);stroke-width:0.25;fill:none" />
  <path d="M98.5022,279.594 L97.1421,279.594" style="stroke:rgb(0,0,0);stroke-width:0.25;fill:none" />
  <path d="M102.862,279.594 L101.502,279.594" style="stroke:rgb(0,0,0);stroke-width:0.25;fill:none" />
  <path d="M101.502,276.424 L101.502,277.424" style="stroke:rgb(0,0,0);stroke-width:0.25;fill:none" />
  <path d="M101.502,277.424 L102.862,277.424" style="stroke:rgb(0,0,0);stroke-width:0.25;fill:none" />
  <path d="M97.1421,277.424 L98.5022,277.424" style="stroke:rgb(0,0,0);stroke-width:0.25;fill:none" />
  <path d="M98.5022,277.424 L98.5022,276.424" style="stroke:rgb(0,0,0);stroke-width:0.25;fill:none" />
  <path d="M90.0019,292.425 L90.0019,287.924" style="stroke:rgb(0,0,0);stroke-width:0.25;fill:none" />
  <path d="M90.0019,292.425 A0.50002,0.50002 0 0,0 90.5019,292.925 " style="stroke:rgb(0,0,0);stroke-width:0.25;fill:none" />
  <path d="M94.502,292.925 L90.5019,292.925" style="stroke:rgb(0,0,0);stroke-width:0.25;fill:none" />
  <path d="M95.0021,287.924 L95.0021,292.425" style="stroke:rgb(0,0,0);stroke-width:0.25;fill:none" />
  <path d="M94.502,292.925 A0.50002,0.50002 0 0,0 95.0021,292.425 " style="stroke:rgb(0,0,0);stroke-width:0.25;fill:none" />
  <path d="M98.0022,287.924 L95.0021,287.924" style="stroke:rgb(0,0,0);stroke-width:0.25;fill:none" />
  <path d="M98.5022,287.424 L98.5022,279.594" style="stroke:rgb(0,0,0);stroke-width:0.25;fill:none" />
  <path d="M98.0022,287.924 A0.50002,0.50002 0 0,0 98.5022,287.424 " style="stroke:rgb(0,0,0);stroke-width:0.25;fill:none" />
  <path d="M101.502,279.594 L101.502,287.424" style="stroke:rgb(0,0,0);stroke-width:0.25;fill:none" />
  <path d="M102.002,287.924 L105.002,287.924" style="stroke:rgb(0,0,0);stroke-width:0.25;fill:none" />
  <path d="M101.502,287.424 A0.50002,0.50002 0 0,0 102.002,287.924 " style="stroke:rgb(0,0,0);stroke-width:0.25;fill:none" />
  <path d="M105.002,287.924 L105.002,292.425" style="stroke:rgb(0,0,0);stroke-width:0.25;fill:none" />
  <path d="M105.002,292.425 A0.50002,0.50002 0 0,0 105.502,292.925 " style="stroke:rgb(0,0,0);stroke-width:0.25;fill:none" />
  <path d="M105.502,292.925 L109.503,292.925" style="stroke:rgb(0,0,0);stroke-width:0.25;fill:none" />
  <path d="M110.003,292.425 L110.003,287.924" style="stroke:rgb(0,0,0);stroke-width:0.25;fill:none" />
  <path d="M109.503,292.925 A0.50002,0.50002 0 0,0 110.003,292.425 " style="stroke:rgb(0,0,0);stroke-width:0.25;fill:none" />
  <path d="M76.0013,287.924 L90.0019,287.924" style="stroke:rgb(0,0,0);stroke-width:0.1;fill:none" />
  <path d="M115.003,287.924 L115.003,292.925" style="stroke:rgb(0,0,0);stroke-width:0.1;fill:none" />
  <path d="M110.003,287.924 L115.003,287.924" style="stroke:rgb(0,0,0);stroke-width:0.1;fill:none" />
  <path d="M115.003,292.925 L146.542,292.925" style="stroke:rgb(0,0,0);stroke-width:0.1;fill:none" />
  <path d="M136.004,263.823 L136.004,262.493" style="stroke:rgb(0,0,0);stroke-width:0.1;fill:none" />
  <path d="M134.004,262.493 A0.50002,0.50002 0 0,0 133.504,261.993 " style="stroke:rgb(0,0,0);stroke-width:0.1;fill:none" />
  <path d="M134.004,262.493 L134.004,263.823" style="stroke:rgb(0,0,0);stroke-width:0.1;fill:none" />
  <path d="M133.504,261.993 L123.965,261.993" style="stroke:rgb(0,0,0);stroke-width:0.1;fill:none" />
  <path d="M134.004,263.823 A10.0503,10.0503 0 1,0 136.004,263.823 " style="stroke:rgb(0,0,0);stroke-width:0.1;fill:none" />
  <ellipse cx="9.46998" cy="267.471" rx="1.50006" ry="1.50006" style="stroke:rgb(0,0,0);stroke-width:0.1;fill:none;"/>
  <path d="M15.0583,267.624 L19.59,265.511" style="stroke:rgb(0,0,0);stroke-width:0.1;fill:none" />
  <path d="M5.99484,271.85 L1.46312,273.964" style="stroke:rgb(0,0,0);stroke-width:0.1;fill:none" />
  <path d="M3.88166,267.319 L5.99484,271.85" style="stroke:rgb(0,0,0);stroke-width:0.1;fill:none" />
  <path d="M12.9451,263.092 L15.0583,267.624" style="stroke:rgb(0,0,0);stroke-width:0.1;fill:none" />
  <path d="M3.88166,267.319 L12.9451,263.092" style="stroke:rgb(0,0,0);stroke-width:0.1;fill:none" />
  <path d="M17.4768,260.979 L19.59,265.511" style="stroke:rgb(0,0,0);stroke-width:0.1;fill:none" />
  <path d="M17.4768,260.979 L19.8621,261.061" style="stroke:rgb(0,0,0);stroke-width:0.1;fill:none" />
  <path d="M16.4431,290.581 A8.00033,8.00033 0 0,0 22.1002,292.925 " style="stroke:rgb(0,0,0);stroke-width:0.1;fill:none" />
  <path d="M1.46312,273.964 L16.4431,290.581" style="stroke:rgb(0,0,0);stroke-width:0.1;fill:none" />
  <path d="M32.9995,261.993 L42.038,261.993" style="stroke:rgb(0,0,0);stroke-width:0.1;fill:none" />
  <path d="M62.0388,257.493 L62.0388,261.993" style="stroke:rgb(0,0,0);stroke-width:0.1;fill:none" />
  <path d="M62.0388,257.493 A0.50002,0.50002 0 0,0 61.5388,256.993 " style="stroke:rgb(0,0,0);stroke-width:0.1;fill:none" />
  <path d="M42.038,256.993 L61.5388,256.993" style="stroke:rgb(0,0,0);stroke-width:0.1;fill:none" />
  <path d="M103.964,257.493 L103.964,261.993" style="stroke:rgb(0,0,0);stroke-width:0.1;fill:none" />
  <path d="M104.464,256.993 A0.50002,0.50002 0 0,0 103.964,257.493 " style="stroke:rgb(0,0,0);stroke-width:0.1;fill:none" />
  <path d="M123.465,256.993 L104.464,256.993" style="stroke:rgb(0,0,0);stroke-width:0.1;fill:none" />
  <path d="M62.0388,261.993 L103.964,261.993" style="stroke:rgb(0,0,0);stroke-width:0.1;fill:none" />
  <ellipse cx="146.542" cy="284.924" rx="1.50006" ry="1.50006" style="stroke:rgb(0,0,0);stroke-width:0.1;fill:none;"/>
  <path d="M110.003,283.824 L110.003,283.824" style="stroke:rgb(0,0,0);stroke-width:0.1;fill:none" />
  <path d="M110.003,283.824 L116.003,283.824" style="stroke:rgb(0,0,0);stroke-width:0.1;fill:none" />
  <ellipse cx="113.003" cy="278.824" rx="1.50006" ry="1.50006" style="stroke:rgb(0,0,0);stroke-width:0.1;fill:none;"/>
  <path d="M110.003,280.324 L110.003,283.824" style="stroke:rgb(0,0,0);stroke-width:0.1;fill:none" />
  <path d="M116.003,283.824 L116.003,280.324" style="stroke:rgb(0,0,0);stroke-width:0.1;fill:none" />
  <path d="M116.003,280.324 L113.003,280.324" style="stroke:rgb(0,0,0);stroke-width:0.1;fill:none" />
  <path d="M113.003,280.324 L113.003,280.324" style="stroke:rgb(0,0,0);stroke-width:0.1;fill:none" />
  <path d="M113.003,280.324 L113.003,280.324" style="stroke:rgb(0,0,0);stroke-width:0.1;fill:none" />
  <path d="M113.003,280.324 L110.003,280.324" style="stroke:rgb(0,0,0);stroke-width:0.1;fill:none" />
  <path d="M174.507,212.996 A8.00033,8.00033 0 0,0 158.506,212.996 " style="stroke:rgb(0,0,0);stroke-width:0.1;fill:none" />
  <ellipse cx="166.506" cy="222.997" rx="1.50006" ry="1.50006" style="stroke:rgb(0,0,0);stroke-width:0.1;fill:none;"/>
  <ellipse cx="166.506" cy="212.996" rx="3.16513" ry="3.16513" style="stroke:rgb(0,0,0);stroke-width:0.1;fill:none;"/>
  <path d="M174.507,212.096 L174.507,239.097" style="stroke:rgb(0,0,0);stroke-width:0.1;fill:none" />
  <path d="M158.506,212.996 L158.506,239.097" style="stroke:rgb(0,0,0);stroke-width:0.1;fill:none" />
  <path d="M158.506,239.097 A8.00033,8.00033 0 0,0 174.507,239.097 " style="stroke:rgb(0,0,0);stroke-width:0.1;fill:none" />
  <ellipse cx="166.506" cy="239.097" rx="1.50006" ry="1.50006" style="stroke:rgb(0,0,0);stroke-width:0.1;fill:none;"/>
  <path d="M175.775,266.277 A8.00033,8.00033 0 0,0 159.775,266.277 " style="stroke:rgb(0,0,0);stroke-width:0.1;fill:none" />
  <ellipse cx="167.775" cy="276.277" rx="1.50006" ry="1.50006" style="stroke:rgb(0,0,0);stroke-width:0.1;fill:none;"/>
  <ellipse cx="167.775" cy="266.277" rx="3.16513" ry="3.16513" style="stroke:rgb(0,0,0);stroke-width:0.1;fill:none;"/>
  <path d="M175.775,265.377 L175.775,292.378" style="stroke:rgb(0,0,0);stroke-width:0.1;fill:none" />
  <path d="M159.775,266.277 L159.775,292.378" style="stroke:rgb(0,0,0);stroke-width:0.1;fill:none" />
  <path d="M159.775,292.378 A8.00033,8.00033 0 0,0 175.775,292.378 " style="stroke:rgb(0,0,0);stroke-width:0.1;fill:none" />
  <ellipse cx="167.775" cy="292.378" rx="1.50006" ry="1.50006" style="stroke:rgb(0,0,0);stroke-width:0.1;fill:none;"/>
  <path d="M188.007,212.996 L188.007,207.996" style="stroke:rgb(0,0,0);stroke-width:0.1;fill:none" />
  <path d="M198.008,207.996 L198.008,212.996" style="stroke:rgb(0,0,0);stroke-width:0.1;fill:none" />
  <path d="M198.008,299.924 L198.008,304.924" style="stroke:rgb(0,0,0);stroke-width:0.1;fill:none" />
  <path d="M188.007,304.924 L188.007,299.924" style="stroke:rgb(0,0,0);stroke-width:0.1;fill:none" />
  <path d="M191.507,293.423 L194.508,293.423" style="stroke:rgb(0,0,0);stroke-width:0.1;fill:none" />
  <path d="M190.147,296.594 L190.147,294.423" style="stroke:rgb(0,0,0);stroke-width:0.1;fill:none" />
  <path d="M195.868,294.423 L195.868,296.594" style="stroke:rgb(0,0,0);stroke-width:0.1;fill:none" />
  <path d="M191.507,296.594 L190.147,296.594" style="stroke:rgb(0,0,0);stroke-width:0.1;fill:none" />
  <path d="M195.868,296.594 L194.508,296.594" style="stroke:rgb(0,0,0);stroke-width:0.1;fill:none" />
  <path d="M194.508,293.423 L194.508,294.423" style="stroke:rgb(0,0,0);stroke-width:0.1;fill:none" />
  <path d="M194.508,294.423 L195.868,294.423" style="stroke:rgb(0,0,0);stroke-width:0.1;fill:none" />
  <path d="M190.147,294.423 L191.507,294.423" style="stroke:rgb(0,0,0);stroke-width:0.1;fill:none" />
  <path d="M191.507,294.423 L191.507,293.423" style="stroke:rgb(0,0,0);stroke-width:0.1;fill:none" />
  <path d="M191.507,219.497 L194.508,219.497" style="stroke:rgb(0,0,0);stroke-width:0.1;fill:none" />
  <path d="M190.147,216.326 L190.147,218.497" style="stroke:rgb(0,0,0);stroke-width:0.1;fill:none" />
  <path d="M195.868,218.497 L195.868,216.326" style="stroke:rgb(0,0,0);stroke-width:0.1;fill:none" />
  <path d="M191.507,216.326 L190.147,216.326" style="stroke:rgb(0,0,0);stroke-width:0.1;fill:none" />
  <path d="M195.868,216.326 L194.508,216.326" style="stroke:rgb(0,0,0);stroke-width:0.1;fill:none" />
  <path d="M194.508,219.497 L194.508,218.497" style="stroke:rgb(0,0,0);stroke-width:0.1;fill:none" />
  <path d="M194.508,218.497 L195.868,218.497" style="stroke:rgb(0,0,0);stroke-width:0.1;fill:none" />
  <path d="M190.147,218.497 L191.507,218.497" style="stroke:rgb(0,0,0);stroke-width:0.1;fill:none" />
  <path d="M191.507,218.497 L191.507,219.497" style="stroke:rgb(0,0,0);stroke-width:0.1;fill:none" />
  <path d="M203.008,207.996 L203.008,304.924" style="stroke:rgb(0,0,0);stroke-width:0.1;fill:none" />
  <path d="M183.007,304.924 L183.007,207.996" style="stroke:rgb(0,0,0);stroke-width:0.1;fill:none" />
  <path d="M191.507,213.496 A0.50002,0.50002 0 0,0 191.007,212.996 " style="stroke:rgb(0,0,0);stroke-width:0.1;fill:none" />
  <path d="M191.007,212.996 L188.007,212.996" style="stroke:rgb(0,0,0);stroke-width:0.1;fill:none" />
  <path d="M195.008,212.996 A0.50002,0.50002 0 0,0 194.508,213.496 " style="stroke:rgb(0,0,0);stroke-width:0.1;fill:none" />
  <path d="M195.008,212.996 L198.008,212.996" style="stroke:rgb(0,0,0);stroke-width:0.1;fill:none" />
  <path d="M183.007,207.996 L188.007,207.996" style="stroke:rgb(0,0,0);stroke-width:0.1;fill:none" />
  <path d="M198.008,207.996 L203.008,207.996" style="stroke:rgb(0,0,0);stroke-width:0.1;fill:none" />
  <path d="M191.507,213.496 L191.507,216.326" style="stroke:rgb(0,0,0);stroke-width:0.1;fill:none" />
  <path d="M194.508,216.326 L194.508,213.496" style="stroke:rgb(0,0,0);stroke-width:0.1;fill:none" />
  <path d="M203.008,304.924 L198.008,304.924" style="stroke:rgb(0,0,0);stroke-width:0.1;fill:none" />
  <path d="M188.007,304.924 L183.007,304.924" style="stroke:rgb(0,0,0);stroke-width:0.1;fill:none" />
  <path d="M191.007,299.924 A0.50002,0.50002 0 0,0 191.507,299.424 " style="stroke:rgb(0,0,0);stroke-width:0.1;fill:none" />
  <path d="M191.007,299.924 L188.007,299.924" style="stroke:rgb(0,0,0);stroke-width:0.1;fill:none" />
  <path d="M194.508,299.424 A0.50002,0.50002 0 0,0 195.008,299.924 " style="stroke:rgb(0,0,0);stroke-width:0.1;fill:none" />
  <path d="M195.008,299.924 L198.008,299.924" style="stroke:rgb(0,0,0);stroke-width:0.1;fill:none" />
  <path d="M194.508,296.594 L194.508,299.424" style="stroke:rgb(0,0,0);stroke-width:0.1;fill:none" />
  <path d="M191.507,299.424 L191.507,296.594" style="stroke:rgb(0,0,0);stroke-width:0.1;fill:none" />
  <path d="M215.845,220.687 L220.172,220.687" style="stroke:rgb(0,0,0);stroke-width:0.1;fill:none" />
  <path d="M215.845,220.687 A3.16513,3.16513 0 1,0 220.172,220.687 " style="stroke:rgb(0,0,0);stroke-width:0.1;fill:none" />
  <path d="M226.264,221.995 L226.966,221.911 L227.562,221.985 L228.898,222.573 L228.898,223.42 L227.562,224.009 L226.966,224.082 L226.264,223.998 L225.951,225.471 L226.627,225.679 L227.141,225.989 L228.122,227.07 L227.778,227.844 L226.318,227.838 L225.743,227.663 L225.137,227.3 L224.252,228.518 L224.784,228.983 L225.128,229.476 L225.585,230.862 L224.955,231.429 L223.624,230.83 L223.17,230.436 L222.763,229.858 L221.46,230.611 L221.757,231.253 L221.871,231.842 L221.724,233.294 L220.918,233.556 L219.946,232.467 L219.692,231.924 L219.555,231.23 L218.058,231.387 L218.068,232.094 L217.933,232.679 L217.208,233.946 L216.365,233.858 L215.92,232.467 L215.909,231.867 L216.066,231.178 L214.634,230.713 L214.356,231.363 L213.995,231.842 L212.817,232.704 L212.083,232.281 L212.242,230.83 L212.476,230.277 L212.9,229.711 L211.781,228.704 L211.263,229.185 L210.737,229.476 L209.311,229.785 L208.813,229.099 L209.548,227.838 L209.986,227.428 L210.604,227.084 L209.992,225.708 L209.323,225.937 L208.724,225.989 L207.296,225.691 L207.119,224.862 L208.304,224.009 L208.871,223.813 L209.575,223.749 L209.575,222.244 L208.871,222.181 L208.304,221.985 L207.119,221.131 L207.296,220.303 L208.724,220.005 L209.323,220.057 L209.992,220.285 L210.604,218.91 L209.986,218.565 L209.548,218.156 L208.813,216.894 L209.311,216.209 L210.737,216.518 L211.263,216.809 L211.781,217.29 L212.9,216.282 L212.476,215.717 L212.242,215.164 L212.083,213.712 L212.817,213.289 L213.995,214.151 L214.356,214.631 L214.634,215.281 L216.066,214.816 L215.909,214.126 L215.92,213.526 L216.365,212.136 L217.208,212.048 L217.933,213.315 L218.068,213.899 L218.058,214.606 L219.555,214.764 L219.692,214.07 L219.946,213.526 L220.918,212.438 L221.724,212.699 L221.871,214.151 L221.757,214.741 L221.46,215.383 L222.763,216.135 L223.17,215.557 L223.624,215.164 L224.955,214.565 L225.585,215.132 L225.128,216.518 L224.784,217.01 L224.252,217.476 L225.137,218.693 L225.743,218.331 L226.318,218.156 L227.778,218.15 L228.122,218.924 L227.141,220.005 L226.627,220.315 L225.951,220.523 L226.264,221.995 " style="stroke:rgb(0,0,0);stroke-width:0.1;fill:none" />
  <path d="M211.414,244.886 L210.776,244.809 L210.234,244.876 L209.02,245.411 L209.02,246.181 L210.234,246.716 L210.776,246.783 L211.414,246.706 L211.699,248.045 L211.085,248.235 L210.617,248.516 L209.725,249.499 L210.038,250.202 L211.365,250.197 L211.888,250.038 L212.439,249.708 L213.244,250.815 L212.76,251.238 L212.447,251.686 L212.032,252.946 L212.604,253.462 L213.814,252.917 L214.227,252.559 L214.597,252.034 L215.782,252.718 L215.512,253.301 L215.408,253.837 L215.542,255.157 L216.274,255.395 L217.158,254.406 L217.389,253.911 L217.514,253.281 L218.875,253.424 L218.865,254.066 L218.988,254.598 L219.647,255.75 L220.413,255.67 L220.818,254.406 L220.828,253.86 L220.685,253.233 L221.987,252.81 L222.239,253.401 L222.568,253.837 L223.639,254.621 L224.306,254.236 L224.162,252.917 L223.949,252.414 L223.564,251.9 L224.581,250.984 L225.052,251.422 L225.53,251.686 L226.826,251.967 L227.279,251.344 L226.611,250.197 L226.212,249.825 L225.651,249.511 L226.207,248.261 L226.816,248.469 L227.36,248.516 L228.659,248.245 L228.819,247.492 L227.742,246.716 L227.226,246.538 L226.586,246.48 L226.586,245.112 L227.226,245.054 L227.742,244.876 L228.819,244.1 L228.659,243.347 L227.36,243.076 L226.816,243.123 L226.207,243.331 L225.651,242.081 L226.212,241.768 L226.611,241.395 L227.279,240.248 L226.826,239.625 L225.53,239.906 L225.052,240.171 L224.581,240.608 L223.564,239.692 L223.949,239.178 L224.162,238.675 L224.306,237.356 L223.639,236.971 L222.568,237.755 L222.239,238.191 L221.987,238.782 L220.685,238.359 L220.828,237.732 L220.818,237.186 L220.413,235.923 L219.647,235.842 L218.988,236.994 L218.865,237.526 L218.875,238.168 L217.514,238.311 L217.389,237.681 L217.158,237.186 L216.274,236.197 L215.542,236.435 L215.408,237.755 L215.512,238.291 L215.782,238.874 L214.597,239.558 L214.227,239.033 L213.814,238.675 L212.604,238.131 L212.032,238.646 L212.447,239.906 L212.76,240.354 L213.244,240.777 L212.439,241.884 L211.888,241.554 L211.365,241.395 L210.038,241.39 L209.725,242.093 L210.617,243.076 L211.085,243.358 L211.699,243.547 L211.414,244.886 " style="stroke:rgb(0,0,0);stroke-width:0.1;fill:none" />
  <path d="M216.29,243.486 L221.549,243.486" style="stroke:rgb(0,0,0);stroke-width:0.1;fill:none" />
  <path d="M216.29,248.106 L221.549,248.106" style="stroke:rgb(0,0,0);stroke-width:0.1;fill:none" />
  <path d="M216.29,243.486 A3.50014,3.50014 0 0,0 216.29,248.106 " style="stroke:rgb(0,0,0);stroke-width:0.1;fill:none" />
  <path d="M221.549,248.106 A3.50014,3.50014 0 0,0 221.549,243.486 " style="stroke:rgb(0,0,0);stroke-width:0.1;fill:none" />
  <path d="M271.446,220.687 L275.773,220.687" style="stroke:rgb(0,0,0);stroke-width:0.1;fill:none" />
  <path d="M271.446,220.687 A3.16513,3.16513 0 1,0 275.773,220.687 " style="stroke:rgb(0,0,0);stroke-width:0.1;fill:none" />
  <path d="M241.445,220.687 L245.772,220.687" style="stroke:rgb(0,0,0);stroke-width:0.1;fill:none" />
  <path d="M241.445,220.687 A3.16513,3.16513 0 1,0 245.772,220.687 " style="stroke:rgb(0,0,0);stroke-width:0.1;fill:none" />
  <path d="M282.691,221.895 L283.463,221.802 L284.119,221.883 L285.588,222.531 L285.588,223.463 L284.119,224.11 L283.463,224.191 L282.691,224.098 L282.347,225.718 L283.09,225.947 L283.656,226.288 L284.735,227.477 L284.356,228.328 L282.75,228.322 L282.118,228.129 L281.451,227.731 L280.477,229.07 L281.063,229.582 L281.441,230.123 L281.943,231.648 L281.251,232.272 L279.787,231.613 L279.288,231.18 L278.84,230.544 L277.406,231.372 L277.733,232.078 L277.858,232.727 L277.697,234.324 L276.811,234.612 L275.741,233.414 L275.461,232.816 L275.311,232.053 L273.664,232.226 L273.676,233.004 L273.526,233.647 L272.729,235.041 L271.802,234.944 L271.312,233.414 L271.3,232.754 L271.473,231.996 L269.898,231.484 L269.592,232.199 L269.194,232.727 L267.899,233.675 L267.092,233.209 L267.266,231.613 L267.524,231.005 L267.99,230.383 L266.76,229.275 L266.189,229.804 L265.611,230.123 L264.042,230.463 L263.495,229.709 L264.303,228.322 L264.785,227.871 L265.465,227.492 L264.791,225.98 L264.055,226.231 L263.397,226.288 L261.825,225.96 L261.632,225.049 L262.934,224.11 L263.559,223.894 L264.333,223.825 L264.333,222.169 L263.559,222.099 L262.934,221.883 L261.632,220.945 L261.825,220.033 L263.397,219.706 L264.055,219.763 L264.791,220.014 L265.465,218.501 L264.785,218.122 L264.303,217.672 L263.495,216.284 L264.042,215.53 L265.611,215.87 L266.189,216.19 L266.76,216.719 L267.99,215.611 L267.524,214.989 L267.266,214.38 L267.092,212.784 L267.899,212.318 L269.194,213.267 L269.592,213.794 L269.898,214.509 L271.473,213.998 L271.3,213.239 L271.312,212.579 L271.802,211.05 L272.729,210.953 L273.526,212.346 L273.676,212.99 L273.664,213.767 L275.311,213.94 L275.461,213.177 L275.741,212.579 L276.811,211.382 L277.697,211.67 L277.858,213.267 L277.733,213.915 L277.406,214.621 L278.84,215.449 L279.288,214.813 L279.787,214.38 L281.251,213.722 L281.943,214.345 L281.441,215.87 L281.063,216.411 L280.477,216.923 L281.451,218.263 L282.118,217.864 L282.75,217.672 L284.356,217.665 L284.735,218.517 L283.656,219.706 L283.09,220.046 L282.347,220.276 L282.691,221.895 " style="stroke:rgb(0,0,0);stroke-width:0.1;fill:none" />
  <path d="M253.598,221.785 L254.447,221.683 L255.168,221.772 L256.784,222.484 L256.784,223.509 L255.168,224.221 L254.447,224.31 L253.598,224.208 L253.219,225.99 L254.037,226.242 L254.659,226.617 L255.846,227.925 L255.429,228.861 L253.663,228.854 L252.968,228.643 L252.233,228.204 L251.163,229.677 L251.807,230.241 L252.223,230.836 L252.776,232.514 L252.014,233.199 L250.403,232.475 L249.854,231.999 L249.362,231.299 L247.784,232.21 L248.144,232.986 L248.282,233.7 L248.104,235.457 L247.129,235.773 L245.953,234.456 L245.645,233.798 L245.48,232.959 L243.668,233.149 L243.681,234.005 L243.517,234.712 L242.64,236.245 L241.62,236.138 L241.081,234.456 L241.068,233.73 L241.258,232.896 L239.526,232.333 L239.189,233.119 L238.752,233.7 L237.327,234.743 L236.439,234.231 L236.631,232.475 L236.914,231.806 L237.427,231.121 L236.074,229.902 L235.446,230.484 L234.81,230.836 L233.084,231.21 L232.482,230.381 L233.371,228.854 L233.902,228.359 L234.649,227.942 L233.908,226.278 L233.098,226.554 L232.375,226.617 L230.646,226.256 L230.432,225.254 L231.865,224.221 L232.552,223.984 L233.404,223.908 L233.404,222.086 L232.552,222.009 L231.865,221.772 L230.432,220.74 L230.646,219.737 L232.375,219.377 L233.098,219.439 L233.908,219.716 L234.649,218.052 L233.902,217.635 L233.371,217.139 L232.482,215.613 L233.084,214.783 L234.81,215.157 L235.446,215.509 L236.074,216.091 L237.427,214.872 L236.914,214.188 L236.631,213.519 L236.439,211.763 L237.327,211.25 L238.752,212.294 L239.189,212.874 L239.526,213.661 L241.258,213.098 L241.068,212.264 L241.081,211.537 L241.62,209.855 L242.64,209.748 L243.517,211.281 L243.681,211.989 L243.668,212.844 L245.48,213.035 L245.645,212.195 L245.953,211.537 L247.129,210.22 L248.104,210.537 L248.282,212.294 L248.144,213.007 L247.784,213.784 L249.362,214.694 L249.854,213.995 L250.403,213.519 L252.014,212.794 L252.776,213.48 L252.223,215.157 L251.807,215.753 L251.163,216.316 L252.233,217.789 L252.968,217.351 L253.663,217.139 L255.429,217.132 L255.846,218.068 L254.659,219.377 L254.037,219.751 L253.219,220.003 L253.598,221.785 " style="stroke:rgb(0,0,0);stroke-width:0.1;fill:none" />
</svg>
