999
dxflib 2.2.0.0
  0
SECTION
  2
HEADER
  9
$ACADVER
  1
AC1015
  9
$HANDSEED
  5
FFFF
  9
$DIMASZ
 40
2.5
  9
$PLIMMIN
 10
0.0
 20
0.0
  9
$DIMEXE
 40
1.25
  9
$DIMGAP
 40
0.625
  9
$PLIMMAX
 10
210.0
 20
297.0
  9
$INSUNITS
 70
4
  9
$DIMSTYLE
  2
Standard
  9
$CLAYER
  8
4 side cover
  9
$DIMEXO
 40
0.625
  9
$DIMTXT
 40
2.5
  9
$CLAYER
  8
04 side
  0
ENDSEC
  0
SECTION
  2
TABLES
  0
TABLE
  2
VPORT
  5
8
100
AcDbSymbolTable
 70
1
  0
VPORT
  5
30
100
AcDbSymbolTableRecord
100
AcDbViewportTableRecord
  2
*Active
 70
0
 10
0.0
 20
0.0
 11
1.0
 21
1.0
 12
286.3055555555554861
 22
148.5
 13
0.0
 23
0.0
 14
10.0
 24
10.0
 15
10.0
 25
10.0
 16
0.0
 26
0.0
 36
1.0
 17
0.0
 27
0.0
 37
0.0
 40
297.0
 41
1.92798353909465
 42
50.0
 43
0.0
 44
0.0
 50
0.0
 51
0.0
 71
0
 72
100
 73
1
 74
3
 75
1
 76
1
 77
0
 78
0
281
0
 65
1
110
0.0
120
0.0
130
0.0
111
1.0
121
0.0
131
0.0
112
0.0
122
1.0
132
0.0
 79
0
146
0.0
  0
ENDTAB
  0
TABLE
  2
LTYPE
  5
5
100
AcDbSymbolTable
 70
21
  0
LTYPE
  5
14
100
AcDbSymbolTableRecord
100
AcDbLinetypeTableRecord
  2
ByBlock
 70
0
  3

 72
65
 73
0
 40
0.0
  0
LTYPE
  5
15
100
AcDbSymbolTableRecord
100
AcDbLinetypeTableRecord
  2
ByLayer
 70
0
  3

 72
65
 73
0
 40
0.0
  0
LTYPE
  5
16
100
AcDbSymbolTableRecord
100
AcDbLinetypeTableRecord
  2
CONTINUOUS
 70
0
  3
Solid line
 72
65
 73
0
 40
0.0
  0
LTYPE
  5
31
100
AcDbSymbolTableRecord
100
AcDbLinetypeTableRecord
  2
DOT
 70
0
  3
Dot . . . . . . . . . . . . . . . . . . . . . .
 72
65
 73
2
 40
6.3499999999999996
 49
0.0
 74
0
 49
-6.3499999999999996
 74
0
  0
LTYPE
  5
32
100
AcDbSymbolTableRecord
100
AcDbLinetypeTableRecord
  2
DOT2
 70
0
  3
Dot (.5x) .....................................
 72
65
 73
2
 40
3.1749999999999998
 49
0.0
 74
0
 49
-3.1749999999999998
 74
0
  0
LTYPE
  5
33
100
AcDbSymbolTableRecord
100
AcDbLinetypeTableRecord
  2
DOTX2
 70
0
  3
Dot (2x) .  .  .  .  .  .  .  .  .  .  .  .  .
 72
65
 73
2
 40
12.6999999999999993
 49
0.0
 74
0
 49
-12.6999999999999993
 74
0
  0
LTYPE
  5
34
100
AcDbSymbolTableRecord
100
AcDbLinetypeTableRecord
  2
DASHED
 70
0
  3
Dashed __ __ __ __ __ __ __ __ __ __ __ __ __ _
 72
65
 73
2
 40
19.0500000000000007
 49
12.6999999999999993
 74
0
 49
-6.3499999999999996
 74
0
  0
LTYPE
  5
35
100
AcDbSymbolTableRecord
100
AcDbLinetypeTableRecord
  2
DASHED2
 70
0
  3
Dashed (.5x) _ _ _ _ _ _ _ _ _ _ _ _ _ _ _ _ _
 72
65
 73
2
 40
9.5250000000000004
 49
6.3499999999999996
 74
0
 49
-3.1749999999999998
 74
0
  0
LTYPE
  5
36
100
AcDbSymbolTableRecord
100
AcDbLinetypeTableRecord
  2
DASHEDX2
 70
0
  3
Dashed (2x) ____  ____  ____  ____  ____  ___
 72
65
 73
2
 40
38.1000000000000014
 49
25.3999999999999986
 74
0
 49
-12.6999999999999993
 74
0
  0
LTYPE
  5
37
100
AcDbSymbolTableRecord
100
AcDbLinetypeTableRecord
  2
DASHDOT
 70
0
  3
Dash dot __ . __ . __ . __ . __ . __ . __ . __
 72
65
 73
4
 40
25.3999999999999986
 49
12.6999999999999993
 74
0
 49
-6.3499999999999996
 74
0
 49
0.0
 74
0
 49
-6.3499999999999996
 74
0
  0
LTYPE
  5
38
100
AcDbSymbolTableRecord
100
AcDbLinetypeTableRecord
  2
DASHDOT2
 70
0
  3
Dash dot (.5x) _._._._._._._._._._._._._._._.
 72
65
 73
4
 40
12.6999999999999993
 49
6.3499999999999996
 74
0
 49
-3.1749999999999998
 74
0
 49
0.0
 74
0
 49
-3.1749999999999998
 74
0
  0
LTYPE
  5
39
100
AcDbSymbolTableRecord
100
AcDbLinetypeTableRecord
  2
DASHDOTX2
 70
0
  3
Dash dot (2x) ____  .  ____  .  ____  .  ___
 72
65
 73
4
 40
50.7999999999999972
 49
25.3999999999999986
 74
0
 49
-12.6999999999999993
 74
0
 49
0.0
 74
0
 49
-12.6999999999999993
 74
0
  0
LTYPE
  5
3A
100
AcDbSymbolTableRecord
100
AcDbLinetypeTableRecord
  2
DIVIDE
 70
0
  3
Divide ____ . . ____ . . ____ . . ____ . . ____
 72
65
 73
6
 40
31.75
 49
12.6999999999999993
 74
0
 49
-6.3499999999999996
 74
0
 49
0.0
 74
0
 49
-6.3499999999999996
 74
0
 49
0.0
 74
0
 49
-6.3499999999999996
 74
0
  0
LTYPE
  5
3B
100
AcDbSymbolTableRecord
100
AcDbLinetypeTableRecord
  2
DIVIDE2
 70
0
  3
Divide (.5x) __..__..__..__..__..__..__..__.._
 72
65
 73
6
 40
15.875
 49
6.3499999999999996
 74
0
 49
-3.1749999999999998
 74
0
 49
0.0
 74
0
 49
-3.1749999999999998
 74
0
 49
0.0
 74
0
 49
-3.1749999999999998
 74
0
  0
LTYPE
  5
3C
100
AcDbSymbolTableRecord
100
AcDbLinetypeTableRecord
  2
DIVIDEX2
 70
0
  3
Divide (2x) ________  .  .  ________  .  .  _
 72
65
 73
6
 40
63.5
 49
25.3999999999999986
 74
0
 49
-12.6999999999999993
 74
0
 49
0.0
 74
0
 49
-12.6999999999999993
 74
0
 49
0.0
 74
0
 49
-12.6999999999999993
 74
0
  0
LTYPE
  5
3D
100
AcDbSymbolTableRecord
100
AcDbLinetypeTableRecord
  2
CENTER
 70
0
  3
Center ____ _ ____ _ ____ _ ____ _ ____ _ ____
 72
65
 73
4
 40
50.7999999999999972
 49
31.75
 74
0
 49
-6.3499999999999996
 74
0
 49
6.3499999999999996
 74
0
 49
-6.3499999999999996
 74
0
  0
LTYPE
  5
3E
100
AcDbSymbolTableRecord
100
AcDbLinetypeTableRecord
  2
CENTER2
 70
0
  3
Center (.5x) ___ _ ___ _ ___ _ ___ _ ___ _ ___
 72
65
 73
4
 40
28.5749999999999993
 49
19.0500000000000007
 74
0
 49
-3.1749999999999998
 74
0
 49
3.1749999999999998
 74
0
 49
-3.1749999999999998
 74
0
  0
LTYPE
  5
3F
100
AcDbSymbolTableRecord
100
AcDbLinetypeTableRecord
  2
CENTERX2
 70
0
  3
Center (2x) ________  __  ________  __  _____
 72
65
 73
4
 40
101.5999999999999943
 49
63.5
 74
0
 49
-12.6999999999999993
 74
0
 49
12.6999999999999993
 74
0
 49
-12.6999999999999993
 74
0
  0
LTYPE
  5
40
100
AcDbSymbolTableRecord
100
AcDbLinetypeTableRecord
  2
BORDER
 70
0
  3
Border __ __ . __ __ . __ __ . __ __ . __ __ .
 72
65
 73
6
 40
44.4500000000000028
 49
12.6999999999999993
 74
0
 49
-6.3499999999999996
 74
0
 49
12.6999999999999993
 74
0
 49
-6.3499999999999996
 74
0
 49
0.0
 74
0
 49
-6.3499999999999996
 74
0
  0
LTYPE
  5
41
100
AcDbSymbolTableRecord
100
AcDbLinetypeTableRecord
  2
BORDER2
 70
0
  3
Border (.5x) __.__.__.__.__.__.__.__.__.__.__.
 72
65
 73
6
 40
22.2250000000000014
 49
6.3499999999999996
 74
0
 49
-3.1749999999999998
 74
0
 49
6.3499999999999996
 74
0
 49
-3.1749999999999998
 74
0
 49
0.0
 74
0
 49
-3.1749999999999998
 74
0
  0
LTYPE
  5
42
100
AcDbSymbolTableRecord
100
AcDbLinetypeTableRecord
  2
BORDERX2
 70
0
  3
Border (2x) ____  ____  .  ____  ____  .  ___
 72
65
 73
6
 40
88.9000000000000057
 49
25.3999999999999986
 74
0
 49
-12.6999999999999993
 74
0
 49
25.3999999999999986
 74
0
 49
-12.6999999999999993
 74
0
 49
0.0
 74
0
 49
-12.6999999999999993
 74
0
  0
ENDTAB
  0
TABLE
  2
LAYER
  5
2
100
AcDbSymbolTable
 70
9
  0
LAYER
  5
10
100
AcDbSymbolTableRecord
100
AcDbLayerTableRecord
  2
0
 70
0
 62
7
420
0
  6
CONTINUOUS
370
25
390
F
  0
LAYER
  5
43
100
AcDbSymbolTableRecord
100
AcDbLayerTableRecord
  2
01 bottom
 70
0
 62
7
420
0
  6
CONTINUOUS
370
0
390
F
  0
LAYER
  5
44
100
AcDbSymbolTableRecord
100
AcDbLayerTableRecord
  2
02 top
 70
0
 62
7
420
0
  6
CONTINUOUS
370
0
390
F
  0
LAYER
  5
45
100
AcDbSymbolTableRecord
100
AcDbLayerTableRecord
  2
04 side
 70
0
 62
7
420
0
  6
CONTINUOUS
370
0
390
F
  0
LAYER
  5
46
100
AcDbSymbolTableRecord
100
AcDbLayerTableRecord
  2
08 brush retainer
 70
0
 62
7
420
0
  6
CONTINUOUS
370
0
390
F
  0
LAYER
  5
47
100
AcDbSymbolTableRecord
100
AcDbLayerTableRecord
  2
06 scraper
 70
0
 62
7
420
0
  6
CONTINUOUS
370
0
390
F
  0
LAYER
  5
48
100
AcDbSymbolTableRecord
100
AcDbLayerTableRecord
  2
10 artwork
 70
0
 62
1
420
16711680
  6
CONTINUOUS
370
0
390
F
  0
LAYER
  5
49
100
AcDbSymbolTableRecord
100
AcDbLayerTableRecord
  2
07 belt
 70
0
 62
7
420
0
  6
CONTINUOUS
370
0
390
F
  0
LAYER
  5
4A
100
AcDbSymbolTableRecord
100
AcDbLayerTableRecord
  2
drw, specs
 70
0
 62
6
420
16711935
  6
CONTINUOUS
370
0
390
F
  0
ENDTAB
  0
TABLE
  2
STYLE
  5
3
100
AcDbSymbolTable
 70
1
  0
STYLE
  5
11
100
AcDbSymbolTableRecord
100
AcDbTextStyleTableRecord
  2
Standard
 70
0
 40
0.0
 41
0.75
 50
0.0
 71
0
 42
2.5
  3
txt
  4

  0
ENDTAB
  0
TABLE
  2
VIEW
  5
6
100
AcDbSymbolTable
 70
0
  0
ENDTAB
  0
TABLE
  2
UCS
  5
7
100
AcDbSymbolTable
 70
0
  0
ENDTAB
  0
TABLE
  2
APPID
  5
9
100
AcDbSymbolTable
 70
1
  0
APPID
  5
12
100
AcDbSymbolTableRecord
100
AcDbRegAppTableRecord
  2
ACAD
 70
0
  0
ENDTAB
  0
TABLE
  2
DIMSTYLE
  5
A
100
AcDbSymbolTable
 70
1
100
AcDbDimStyleTable
 71
0
  0
DIMSTYLE
105
27
100
AcDbSymbolTableRecord
100
AcDbDimStyleTableRecord
  2
Standard
 41
2.5
 42
0.625
 43
3.75
 44
1.25
 70
0
 73
0
 74
0
 77
1
 78
8
140
2.5
141
2.5
143
0.03937007874016
147
0.625
171
3
172
1
271
2
272
2
274
3
278
44
283
0
284
8
340
11
  0
ENDTAB
  0
TABLE
  2
BLOCK_RECORD
  5
1
100
AcDbSymbolTable
 70
1
  0
BLOCK_RECORD
  5
1F
100
AcDbSymbolTableRecord
100
AcDbBlockTableRecord
  2
*Model_Space
340
22
  0
BLOCK_RECORD
  5
1B
100
AcDbSymbolTableRecord
100
AcDbBlockTableRecord
  2
*Paper_Space
340
1E
  0
BLOCK_RECORD
  5
23
100
AcDbSymbolTableRecord
100
AcDbBlockTableRecord
  2
*Paper_Space0
340
26
  0
BLOCK_RECORD
  5
4B
100
AcDbSymbolTableRecord
100
AcDbBlockTableRecord
  2
holes-20
340
0
  0
BLOCK_RECORD
  5
4C
100
AcDbSymbolTableRecord
100
AcDbBlockTableRecord
  2
tabs-with-bolt-20
340
0
  0
BLOCK_RECORD
  5
4D
100
AcDbSymbolTableRecord
100
AcDbBlockTableRecord
  2
MakerBot
340
0
  0
ENDTAB
  0
ENDSEC
  0
SECTION
  2
BLOCKS
  0
BLOCK
  5
20
100
AcDbEntity
  8
0
100
AcDbBlockBegin
  2
*Model_Space
 70
0
 10
0.0
 20
0.0
 30
0.0
  3
*Model_Space
  1

  0
ENDBLK
  5
21
100
AcDbEntity
  8
0
100
AcDbBlockEnd
  0
BLOCK
  5
1C
100
AcDbEntity
 67
1
  8
0
100
AcDbBlockBegin
  2
*Paper_Space
 70
0
 10
0.0
 20
0.0
 30
0.0
  3
*Paper_Space
  1

  0
ENDBLK
  5
1D
100
AcDbEntity
 67
1
  8
0
100
AcDbBlockEnd
  0
BLOCK
  5
24
100
AcDbEntity
  8
0
100
AcDbBlockBegin
  2
*Paper_Space0
 70
0
 10
0.0
 20
0.0
 30
0.0
  3
*Paper_Space0
  1

  0
ENDBLK
  5
25
100
AcDbEntity
  8
0
100
AcDbBlockEnd
  0
BLOCK
  5
4E
100
AcDbEntity
  8
0
100
AcDbBlockBegin
  2
holes-20
 70
0
 10
0.0
 20
0.0
 30
0.0
  3
holes-20
  1

  0
CIRCLE
  5
4F
100
AcDbEntity
100
AcDbCircle
  8
0
 62
256
370
-1
  6
ByLayer
 10
0.0
 20
0.0
 30
0.0
 40
1.5
  0
LINE
  5
50
100
AcDbEntity
100
AcDbLine
  8
0
 62
256
370
-1
  6
ByLayer
 10
5.0
 20
2.5000000000000004
 30
0.0
 11
10.0
 21
2.5000000000000009
 31
0.0
  0
LINE
  5
51
100
AcDbEntity
100
AcDbLine
  8
0
 62
256
370
-1
  6
ByLayer
 10
4.9999999999999991
 20
-2.5000000000000013
 30
0.0
 11
10.0
 21
-2.5000000000000031
 31
0.0
  0
LINE
  5
52
100
AcDbEntity
100
AcDbLine
  8
0
 62
256
370
-1
  6
ByLayer
 10
-4.9999999999999991
 20
2.5000000000000004
 30
0.0
 11
-10.0
 21
2.5000000000000022
 31
0.0
  0
LINE
  5
53
100
AcDbEntity
100
AcDbLine
  8
0
 62
256
370
-1
  6
ByLayer
 10
-5.0000000000000018
 20
-2.5
 30
0.0
 11
-10.0
 21
-2.4999999999999996
 31
0.0
  0
LINE
  5
54
100
AcDbEntity
100
AcDbLine
  8
0
 62
256
370
-1
  6
ByLayer
 10
-10.0
 20
2.5000000000000022
 30
0.0
 11
-10.0
 21
-2.4999999999999996
 31
0.0
  0
LINE
  5
55
100
AcDbEntity
100
AcDbLine
  8
0
 62
256
370
-1
  6
ByLayer
 10
-4.9999999999999991
 20
2.5000000000000004
 30
0.0
 11
-5.0000000000000018
 21
-2.5
 31
0.0
  0
LINE
  5
56
100
AcDbEntity
100
AcDbLine
  8
0
 62
256
370
-1
  6
ByLayer
 10
5.0
 20
2.5000000000000004
 30
0.0
 11
4.9999999999999991
 21
-2.5000000000000013
 31
0.0
  0
LINE
  5
57
100
AcDbEntity
100
AcDbLine
  8
0
 62
256
370
-1
  6
ByLayer
 10
10.0
 20
2.5000000000000009
 30
0.0
 11
10.0
 21
-2.5000000000000031
 31
0.0
  0
ENDBLK
  5
58
100
AcDbEntity
  8
0
100
AcDbBlockEnd
  0
BLOCK
  5
59
100
AcDbEntity
  8
0
100
AcDbBlockBegin
  2
tabs-with-bolt-20
 70
0
 10
0.0
 20
0.0
 30
0.0
  3
tabs-with-bolt-20
  1

  0
LINE
  5
5A
100
AcDbEntity
100
AcDbLine
  8
0
 62
256
370
-1
  6
ByLayer
 10
-1.499999999999996
 20
11.5000000000000036
 30
0.0
 11
1.5000000000000056
 21
11.5000000000000036
 31
0.0
  0
LINE
  5
5B
100
AcDbEntity
100
AcDbLine
  8
0
 62
256
370
-1
  6
ByLayer
 10
-2.8599999999999914
 20
8.3300000000000018
 30
0.0
 11
-2.8599999999999892
 21
10.5000000000000053
 31
0.0
  0
LINE
  5
5C
100
AcDbEntity
100
AcDbLine
  8
0
 62
256
370
-1
  6
ByLayer
 10
2.8600000000000017
 20
10.4999999999999982
 30
0.0
 11
2.8599999999999972
 21
8.3300000000000018
 31
0.0
  0
LINE
  5
5D
100
AcDbEntity
100
AcDbLine
  8
0
 62
256
370
-1
  6
ByLayer
 10
-1.4999999999999982
 20
8.3300000000000054
 30
0.0
 11
-2.8599999999999914
 21
8.3300000000000018
 31
0.0
  0
LINE
  5
5E
100
AcDbEntity
100
AcDbLine
  8
0
 62
256
370
-1
  6
ByLayer
 10
2.8599999999999972
 20
8.3300000000000018
 30
0.0
 11
1.5000000000000049
 21
8.3299999999999983
 31
0.0
  0
LINE
  5
5F
100
AcDbEntity
100
AcDbLine
  8
0
 62
256
370
-1
  6
ByLayer
 10
1.5000000000000056
 20
11.5000000000000036
 30
0.0
 11
1.5000000000000024
 21
10.5000000000000036
 31
0.0
  0
LINE
  5
60
100
AcDbEntity
100
AcDbLine
  8
0
 62
256
370
-1
  6
ByLayer
 10
1.5000000000000024
 20
10.5000000000000036
 30
0.0
 11
2.8600000000000017
 21
10.4999999999999982
 31
0.0
  0
LINE
  5
61
100
AcDbEntity
100
AcDbLine
  8
0
 62
256
370
-1
  6
ByLayer
 10
-2.8599999999999892
 20
10.5000000000000053
 30
0.0
 11
-1.4999999999999976
 21
10.5000000000000053
 31
0.0
  0
LINE
  5
62
100
AcDbEntity
100
AcDbLine
  8
0
 62
256
370
-1
  6
ByLayer
 10
-1.4999999999999976
 20
10.5000000000000053
 30
0.0
 11
-1.499999999999996
 21
11.5000000000000036
 31
0.0
  0
LINE
  5
63
100
AcDbEntity
100
AcDbLine
  8
0
 62
256
370
-1
  6
ByLayer
 10
-10.0000000000000018
 20
-4.4999999999999947
 30
0.0
 11
-10.0
 21
0.0000000000000018
 31
0.0
  0
ARC
  5
64
100
AcDbEntity
  8
0
 62
256
370
-1
  6
ByLayer
100
AcDbCircle
 10
-9.5000000000000036
 20
-4.4999999999999929
 30
0.0
 40
0.5
100
AcDbArc
 50
180.0
 51
270.0
  0
LINE
  5
65
100
AcDbEntity
100
AcDbLine
  8
0
 62
256
370
-1
  6
ByLayer
 10
-5.4999999999999964
 20
-5.0
 30
0.0
 11
-9.5000000000000036
 21
-4.9999999999999929
 31
0.0
  0
LINE
  5
66
100
AcDbEntity
100
AcDbLine
  8
0
 62
256
370
-1
  6
ByLayer
 10
-4.9999999999999982
 20
0.0000000000000009
 30
0.0
 11
-5.0000000000000018
 21
-4.4999999999999947
 31
0.0
  0
ARC
  5
67
100
AcDbEntity
  8
0
 62
256
370
-1
  6
ByLayer
100
AcDbCircle
 10
-5.4999999999999982
 20
-4.4999999999999982
 30
0.0
 40
0.5
100
AcDbArc
 50
270.0
 51
0.0
  0
LINE
  5
68
100
AcDbEntity
100
AcDbLine
  8
0
 62
256
370
-1
  6
ByLayer
 10
-1.9999999999999973
 20
0.0000000000000049
 30
0.0
 11
-4.9999999999999982
 21
0.0000000000000009
 31
0.0
  0
LINE
  5
69
100
AcDbEntity
100
AcDbLine
  8
0
 62
256
370
-1
  6
ByLayer
 10
-1.4999999999999978
 20
0.5000000000000058
 30
0.0
 11
-1.4999999999999982
 21
8.3300000000000054
 31
0.0
  0
ARC
  5
6A
100
AcDbEntity
  8
0
 62
256
370
-1
  6
ByLayer
100
AcDbCircle
 10
-1.9999999999999982
 20
0.5000000000000058
 30
0.0
 40
0.5
100
AcDbArc
 50
270.0000000000000568
 51
0.0
  0
LINE
  5
6B
100
AcDbEntity
100
AcDbLine
  8
0
 62
256
370
-1
  6
ByLayer
 10
1.5000000000000049
 20
8.3299999999999983
 30
0.0
 11
1.4999999999999967
 21
0.5000000000000013
 31
0.0
  0
LINE
  5
6C
100
AcDbEntity
100
AcDbLine
  8
0
 62
256
370
-1
  6
ByLayer
 10
1.9999999999999978
 20
0.0000000000000027
 30
0.0
 11
4.9999999999999982
 21
-0.0000000000000009
 31
0.0
  0
ARC
  5
6D
100
AcDbEntity
  8
0
 62
256
370
-1
  6
ByLayer
100
AcDbCircle
 10
1.9999999999999991
 20
0.500000000000004
 30
0.0
 40
0.5
100
AcDbArc
 50
180.0
 51
269.9999999999999432
  0
LINE
  5
6E
100
AcDbEntity
100
AcDbLine
  8
0
 62
256
370
-1
  6
ByLayer
 10
4.9999999999999982
 20
-0.0000000000000009
 30
0.0
 11
5.0
 21
-4.4999999999999982
 31
0.0
  0
ARC
  5
6F
100
AcDbEntity
  8
0
 62
256
370
-1
  6
ByLayer
100
AcDbCircle
 10
5.4999999999999964
 20
-4.5
 30
0.0
 40
0.5
100
AcDbArc
 50
180.0
 51
270.0
  0
LINE
  5
70
100
AcDbEntity
100
AcDbLine
  8
0
 62
256
370
-1
  6
ByLayer
 10
5.4999999999999929
 20
-5.0000000000000018
 30
0.0
 11
9.4999999999999947
 21
-5.0000000000000053
 31
0.0
  0
LINE
  5
71
100
AcDbEntity
100
AcDbLine
  8
0
 62
256
370
-1
  6
ByLayer
 10
9.9999999999999947
 20
-4.5000000000000018
 30
0.0
 11
9.9999999999999982
 21
-0.0000000000000071
 31
0.0
  0
ARC
  5
72
100
AcDbEntity
  8
0
 62
256
370
-1
  6
ByLayer
100
AcDbCircle
 10
9.5000000000000018
 20
-4.4999999999999982
 30
0.0
 40
0.5
100
AcDbArc
 50
270.0
 51
0.0
  0
ENDBLK
  5
73
100
AcDbEntity
  8
0
100
AcDbBlockEnd
  0
BLOCK
  5
74
100
AcDbEntity
  8
0
100
AcDbBlockBegin
  2
MakerBot
 70
0
 10
0.0
 20
0.0
 30
0.0
  3
MakerBot
  1

  0
ENDBLK
  5
75
100
AcDbEntity
  8
0
100
AcDbBlockEnd
  0
ENDSEC
  0
SECTION
  2
ENTITIES
  0
CIRCLE
  5
76
100
AcDbEntity
100
AcDbCircle
  8
01 bottom
 62
256
370
-1
  6
ByLayer
 10
-100.0000000000000995
 20
-404.037900000000036
 30
0.0
 40
2.75
  0
CIRCLE
  5
77
100
AcDbEntity
100
AcDbCircle
  8
01 bottom
 62
256
370
-1
  6
ByLayer
 10
-120.1000000000000369
 20
-391.0378999999999792
 30
0.0
 40
2.75
  0
CIRCLE
  5
78
100
AcDbEntity
100
AcDbCircle
  8
01 bottom
 62
256
370
-1
  6
ByLayer
 10
-79.9000000000000483
 20
-391.037900000000036
 30
0.0
 40
2.75
  0
LINE
  5
79
100
AcDbEntity
100
AcDbLine
  8
01 bottom
 62
256
370
-1
  6
ByLayer
 10
-93.2300000000001319
 20
-421.6679000000000315
 30
0.0
 11
-95.9700000000001125
 21
-421.6679000000000315
 31
0.0
  0
LINE
  5
7A
100
AcDbEntity
100
AcDbLine
  8
01 bottom
 62
256
370
-1
  6
ByLayer
 10
-93.2300000000001177
 20
-424.4078999999999837
 30
0.0
 11
-93.2300000000001319
 21
-421.6679000000000315
 31
0.0
  0
LINE
  5
7B
100
AcDbEntity
100
AcDbLine
  8
01 bottom
 62
256
370
-1
  6
ByLayer
 10
-95.9700000000001125
 20
-421.6679000000000315
 30
0.0
 11
-95.9700000000001125
 21
-424.4078999999999837
 31
0.0
  0
LINE
  5
7C
100
AcDbEntity
100
AcDbLine
  8
01 bottom
 62
256
370
-1
  6
ByLayer
 10
-95.9700000000001125
 20
-424.4078999999999837
 30
0.0
 11
-93.2300000000001177
 21
-424.4078999999999837
 31
0.0
  0
LINE
  5
7D
100
AcDbEntity
100
AcDbLine
  8
01 bottom
 62
256
370
-1
  6
ByLayer
 10
-104.0300000000001148
 20
-421.6679000000000315
 30
0.0
 11
-106.7700000000001239
 21
-421.6679000000000315
 31
0.0
  0
LINE
  5
7E
100
AcDbEntity
100
AcDbLine
  8
01 bottom
 62
256
370
-1
  6
ByLayer
 10
-104.0300000000001148
 20
-424.4078999999999269
 30
0.0
 11
-104.0300000000001148
 21
-421.6679000000000315
 31
0.0
  0
LINE
  5
7F
100
AcDbEntity
100
AcDbLine
  8
01 bottom
 62
256
370
-1
  6
ByLayer
 10
-106.7700000000001239
 20
-421.6679000000000315
 30
0.0
 11
-106.7700000000001239
 21
-424.4078999999999837
 31
0.0
  0
LINE
  5
80
100
AcDbEntity
100
AcDbLine
  8
01 bottom
 62
256
370
-1
  6
ByLayer
 10
-106.7700000000001239
 20
-424.4078999999999837
 30
0.0
 11
-104.0300000000001148
 21
-424.4078999999999269
 31
0.0
  0
LINE
  5
81
100
AcDbEntity
100
AcDbLine
  8
01 bottom
 62
256
370
-1
  6
ByLayer
 10
-98.6300000000000665
 20
-389.6679000000000315
 30
0.0
 11
-101.3700000000000756
 21
-389.6679000000000315
 31
0.0
  0
LINE
  5
82
100
AcDbEntity
100
AcDbLine
  8
01 bottom
 62
256
370
-1
  6
ByLayer
 10
-98.6300000000000949
 20
-392.4078999999999837
 30
0.0
 11
-98.6300000000000665
 21
-389.6679000000000315
 31
0.0
  0
LINE
  5
83
100
AcDbEntity
100
AcDbLine
  8
01 bottom
 62
256
370
-1
  6
ByLayer
 10
-101.3700000000000756
 20
-389.6679000000000315
 30
0.0
 11
-101.3700000000000756
 21
-392.4078999999999837
 31
0.0
  0
LINE
  5
84
100
AcDbEntity
100
AcDbLine
  8
01 bottom
 62
256
370
-1
  6
ByLayer
 10
-101.3700000000000756
 20
-392.4078999999999837
 30
0.0
 11
-98.6300000000000949
 21
-392.4078999999999837
 31
0.0
  0
LINE
  5
85
100
AcDbEntity
100
AcDbLine
  8
01 bottom
 62
256
370
-1
  6
ByLayer
 10
-93.2300000000000892
 20
-375.6679000000000315
 30
0.0
 11
-95.9700000000000699
 21
-375.6679000000000315
 31
0.0
  0
LINE
  5
86
100
AcDbEntity
100
AcDbLine
  8
01 bottom
 62
256
370
-1
  6
ByLayer
 10
-93.2300000000000892
 20
-378.4078999999999837
 30
0.0
 11
-93.2300000000000892
 21
-375.6679000000000315
 31
0.0
  0
LINE
  5
87
100
AcDbEntity
100
AcDbLine
  8
01 bottom
 62
256
370
-1
  6
ByLayer
 10
-95.9700000000000699
 20
-375.6679000000000315
 30
0.0
 11
-95.9700000000000699
 21
-378.4078999999999837
 31
0.0
  0
LINE
  5
88
100
AcDbEntity
100
AcDbLine
  8
01 bottom
 62
256
370
-1
  6
ByLayer
 10
-95.9700000000000699
 20
-378.4078999999999837
 30
0.0
 11
-93.2300000000000892
 21
-378.4078999999999837
 31
0.0
  0
LINE
  5
89
100
AcDbEntity
100
AcDbLine
  8
01 bottom
 62
256
370
-1
  6
ByLayer
 10
-104.0300000000000722
 20
-375.6679000000000315
 30
0.0
 11
-106.7700000000000813
 21
-375.6679000000000315
 31
0.0
  0
LINE
  5
8A
100
AcDbEntity
100
AcDbLine
  8
01 bottom
 62
256
370
-1
  6
ByLayer
 10
-104.0300000000000722
 20
-378.4078999999999837
 30
0.0
 11
-104.0300000000000722
 21
-375.6679000000000315
 31
0.0
  0
LINE
  5
8B
100
AcDbEntity
100
AcDbLine
  8
01 bottom
 62
256
370
-1
  6
ByLayer
 10
-106.7700000000000813
 20
-375.6679000000000315
 30
0.0
 11
-106.7700000000000813
 21
-378.4078999999999837
 31
0.0
  0
LINE
  5
8C
100
AcDbEntity
100
AcDbLine
  8
01 bottom
 62
256
370
-1
  6
ByLayer
 10
-106.7700000000000813
 20
-378.4078999999999837
 30
0.0
 11
-104.0300000000000722
 21
-378.4078999999999837
 31
0.0
  0
INSERT
  5
8D
100
AcDbEntity
100
AcDbBlockReference
  8
01 bottom
 62
256
370
-1
  6
ByLayer
  2
holes-20
 10
-116.999997404817222
 20
-354.5000000000001137
 30
0.0
 50
360.0
 44
1.0
 45
1.0
  0
INSERT
  5
8E
100
AcDbEntity
100
AcDbBlockReference
  8
01 bottom
 62
256
370
-1
  6
ByLayer
  2
holes-20
 10
-83.0000000000000284
 20
-354.5000000000001137
 30
0.0
 50
360.0
 44
1.0
 45
1.0
  0
INSERT
  5
8F
100
AcDbEntity
100
AcDbBlockReference
  8
01 bottom
 62
256
370
-1
  6
ByLayer
  2
holes-20
 10
-116.9999974048172362
 20
-445.4997999999998797
 30
0.0
 50
360.0
 44
1.0
 45
1.0
  0
INSERT
  5
90
100
AcDbEntity
100
AcDbBlockReference
  8
01 bottom
 62
256
370
-1
  6
ByLayer
  2
holes-20
 10
-83.0000000000000568
 20
-445.4997999999998797
 30
0.0
 50
360.0
 44
1.0
 45
1.0
  0
LINE
  5
91
100
AcDbEntity
100
AcDbLine
  8
01 bottom
 62
256
370
-1
  6
ByLayer
 10
-135.9999999999999716
 20
-349.9999999999999432
 30
0.0
 11
-63.9999999999999858
 21
-349.9999999999999432
 31
0.0
  0
LINE
  5
92
100
AcDbEntity
100
AcDbLine
  8
01 bottom
 62
256
370
-1
  6
ByLayer
 10
-64.0000000000000568
 20
-450.0000000000000568
 30
0.0
 11
-136.0000000000000284
 21
-450.0000000000000568
 31
0.0
  0
LINE
  5
93
100
AcDbEntity
100
AcDbLine
  8
01 bottom
 62
256
370
-1
  6
ByLayer
 10
-63.9999999999999787
 20
-349.9999999999999432
 30
0.0
 11
-64.0000000000000568
 21
-450.0000000000000568
 31
0.0
  0
LINE
  5
94
100
AcDbEntity
100
AcDbLine
  8
01 bottom
 62
256
370
-1
  6
ByLayer
 10
-136.0000000000000284
 20
-450.0000000000000568
 30
0.0
 11
-135.9999999999999716
 21
-349.9999999999999432
 31
0.0
  0
LINE
  5
95
100
AcDbEntity
100
AcDbLine
  8
02 top
 62
256
370
-1
  6
ByLayer
 10
30.9999999999999716
 20
-344.4999999999999432
 30
0.0
 11
30.9999999999999716
 21
-353.5000000000000568
 31
0.0
  0
ARC
  5
96
100
AcDbEntity
  8
02 top
 62
256
370
-1
  6
ByLayer
100
AcDbCircle
 10
16.4999999999999751
 20
-353.5000000000000568
 30
0.0
 40
14.5
100
AcDbArc
 50
180.0
 51
0.0
  0
LINE
  5
97
100
AcDbEntity
100
AcDbLine
  8
02 top
 62
256
370
-1
  6
ByLayer
 10
-59.9999999999999858
 20
-351.5381000000000427
 30
0.0
 11
-57.461899995272141
 21
-351.5381000000000427
 31
0.0
  0
CIRCLE
  5
98
100
AcDbEntity
100
AcDbCircle
  8
02 top
 62
256
370
-1
  6
ByLayer
 10
-10.0000000000000249
 20
-394.5000000000000568
 30
0.0
 40
3.0
  0
LINE
  5
99
100
AcDbEntity
100
AcDbLine
  8
02 top
 62
256
370
-1
  6
ByLayer
 10
-16.9809487024085328
 20
-346.5000000000001137
 30
0.0
 11
-16.980948702408547
 21
-351.5000000000001137
 31
0.0
  0
LINE
  5
9A
100
AcDbEntity
100
AcDbLine
  8
02 top
 62
256
370
-1
  6
ByLayer
 10
-47.0000000000000142
 20
-346.5000000000000568
 30
0.0
 11
-47.0000000000000355
 21
-351.5000000000001137
 31
0.0
  0
LINE
  5
9B
100
AcDbEntity
100
AcDbLine
  8
02 top
 62
256
370
-1
  6
ByLayer
 10
-47.0000000000000355
 20
-351.5000000000001137
 30
0.0
 11
-16.980948702408547
 21
-351.5000000000001137
 31
0.0
  0
LINE
  5
9C
100
AcDbEntity
100
AcDbLine
  8
02 top
 62
256
370
-1
  6
ByLayer
 10
-16.9809487024085328
 20
-346.5000000000001137
 30
0.0
 11
-47.0000000000000142
 21
-346.5000000000000568
 31
0.0
  0
LINE
  5
9D
100
AcDbEntity
100
AcDbLine
  8
02 top
 62
256
370
-1
  6
ByLayer
 10
30.9999999999999716
 20
-344.5000000000001137
 30
0.0
 11
40.0000000000000284
 21
-344.5000000000001137
 31
0.0
  0
CIRCLE
  5
9E
100
AcDbEntity
100
AcDbCircle
  8
02 top
 62
256
370
-1
  6
ByLayer
 10
-9.9999999999984652
 20
-339.9999999999998295
 30
0.0
 40
2.3999999999999999
  0
ARC
  5
9F
100
AcDbEntity
  8
02 top
 62
256
370
-1
  6
ByLayer
100
AcDbCircle
 10
-5.5190499999985949
 20
-337.4999999999998863
 30
0.0
 40
2.0
100
AcDbArc
 50
0.0
 51
90.0
  0
ARC
  5
A0
100
AcDbEntity
  8
02 top
 62
256
370
-1
  6
ByLayer
100
AcDbCircle
 10
-14.4809499999986144
 20
-337.4999999999999432
 30
0.0
 40
2.0
100
AcDbArc
 50
90.0
 51
180.0
  0
LINE
  5
A1
100
AcDbEntity
100
AcDbLine
  8
02 top
 62
256
370
-1
  6
ByLayer
 10
-14.4809499999986091
 20
-335.4999999999999432
 30
0.0
 11
-5.519049999998594
 21
-335.4999999999999432
 31
0.0
  0
LINE
  5
A2
100
AcDbEntity
100
AcDbLine
  8
02 top
 62
256
370
-1
  6
ByLayer
 10
-57.461899995272141
 20
-351.5381000000000427
 30
0.0
 11
-57.4618999976360172
 21
-350.5000000000001137
 31
0.0
  0
LINE
  5
A3
100
AcDbEntity
100
AcDbLine
  8
02 top
 62
256
370
-1
  6
ByLayer
 10
-16.9809487024086607
 20
-437.4999999999999432
 30
0.0
 11
-16.9809487024086643
 21
-442.5
 31
0.0
  0
LINE
  5
A4
100
AcDbEntity
100
AcDbLine
  8
02 top
 62
256
370
-1
  6
ByLayer
 10
-47.0000000000000355
 20
-437.4999999999999432
 30
0.0
 11
-47.0000000000000142
 21
-442.4999999999999432
 31
0.0
  0
LINE
  5
A5
100
AcDbEntity
100
AcDbLine
  8
02 top
 62
256
370
-1
  6
ByLayer
 10
-16.9809487024086607
 20
-437.4999999999999432
 30
0.0
 11
-47.0000000000000355
 21
-437.4999999999999432
 31
0.0
  0
LINE
  5
A6
100
AcDbEntity
100
AcDbLine
  8
02 top
 62
256
370
-1
  6
ByLayer
 10
-47.0000000000000142
 20
-442.4999999999999432
 30
0.0
 11
-16.9809487024086643
 21
-442.5
 31
0.0
  0
CIRCLE
  5
A7
100
AcDbEntity
100
AcDbCircle
  8
02 top
 62
256
370
-1
  6
ByLayer
 10
35.5000000000001563
 20
-349.0000000000001137
 30
0.0
 40
1.5
  0
CIRCLE
  5
A8
100
AcDbEntity
100
AcDbCircle
  8
02 top
 62
256
370
-1
  6
ByLayer
 10
35.5000000000000071
 20
-440.0
 30
0.0
 40
1.5
  0
ARC
  5
A9
100
AcDbEntity
  8
02 top
 62
256
370
-1
  6
ByLayer
100
AcDbCircle
 10
-55.4999999999999218
 20
-440.0
 30
0.0
 40
1.5
100
AcDbArc
 50
270.0
 51
90.0
  0
LINE
  5
AA
100
AcDbEntity
100
AcDbLine
  8
02 top
 62
256
370
-1
  6
ByLayer
 10
-55.4999999999999147
 20
-438.5
 30
0.0
 11
-57.4618999952721481
 21
-438.4999999999998863
 31
0.0
  0
LINE
  5
AB
100
AcDbEntity
100
AcDbLine
  8
02 top
 62
256
370
-1
  6
ByLayer
 10
-55.4999999999999218
 20
-441.5
 30
0.0
 11
-57.4618999952721481
 21
-441.4999999999999432
 31
0.0
  0
ARC
  5
AC
100
AcDbEntity
  8
02 top
 62
256
370
-1
  6
ByLayer
100
AcDbCircle
 10
-55.4999999999999289
 20
-349.0
 30
0.0
 40
1.5
100
AcDbArc
 50
270.0
 51
90.0
  0
LINE
  5
AD
100
AcDbEntity
100
AcDbLine
  8
02 top
 62
256
370
-1
  6
ByLayer
 10
-55.4999999999999289
 20
-347.5
 30
0.0
 11
-57.461899997636003
 21
-347.5000000000000568
 31
0.0
  0
LINE
  5
AE
100
AcDbEntity
100
AcDbLine
  8
02 top
 62
256
370
-1
  6
ByLayer
 10
-55.4999999999999218
 20
-350.5
 30
0.0
 11
-57.4618999976360172
 21
-350.5000000000001137
 31
0.0
  0
LINE
  5
AF
100
AcDbEntity
100
AcDbLine
  8
02 top
 62
256
370
-1
  6
ByLayer
 10
-57.4618999952721623
 20
-344.4999999999999432
 30
0.0
 11
-18.4809487024086287
 21
-344.4999999999999432
 31
0.0
  0
LINE
  5
B0
100
AcDbEntity
100
AcDbLine
  8
02 top
 62
256
370
-1
  6
ByLayer
 10
-57.4618999952721552
 20
-347.5000000000001137
 30
0.0
 11
-57.4618999952721623
 21
-344.4999999999999432
 31
0.0
  0
LINE
  5
B1
100
AcDbEntity
100
AcDbLine
  8
02 top
 62
256
370
-1
  6
ByLayer
 10
1.9999999999999787
 20
-353.5000000000000568
 30
0.0
 11
1.999999999999968
 21
-344.4999999999999432
 31
0.0
  0
LINE
  5
B2
100
AcDbEntity
100
AcDbLine
  8
02 top
 62
256
370
-1
  6
ByLayer
 10
-1.5190487024086075
 20
-344.4999999999999432
 30
0.0
 11
1.9999999999999787
 21
-344.4999999999999432
 31
0.0
  0
ARC
  5
B3
100
AcDbEntity
  8
02 top
 62
256
370
-1
  6
ByLayer
100
AcDbCircle
 10
-1.519048702408611
 20
-342.4999999999999432
 30
0.0
 40
2.0
100
AcDbArc
 50
180.0
 51
270.0
  0
ARC
  5
B4
100
AcDbEntity
  8
02 top
 62
256
370
-1
  6
ByLayer
100
AcDbCircle
 10
-18.4809487024086323
 20
-342.4999999999999432
 30
0.0
 40
2.0
100
AcDbArc
 50
270.0
 51
360.0
  0
LINE
  5
B5
100
AcDbEntity
100
AcDbLine
  8
02 top
 62
256
370
-1
  6
ByLayer
 10
-3.5190498933851027
 20
-337.4999998240555215
 30
0.0
 11
-3.5190487024086119
 21
-342.4999999999999432
 31
0.0
  0
LINE
  5
B6
100
AcDbEntity
100
AcDbLine
  8
02 top
 62
256
370
-1
  6
ByLayer
 10
-16.4809487024086323
 20
-342.4999999999999432
 30
0.0
 11
-16.4809497468474362
 21
-337.5000001542961172
 31
0.0
  0
LINE
  5
B7
100
AcDbEntity
100
AcDbLine
  8
02 top
 62
256
370
-1
  6
ByLayer
 10
39.9999999999999574
 20
-444.5000000000001137
 30
0.0
 11
-57.4618999952721765
 21
-444.4999999999999432
 31
0.0
  0
LINE
  5
B8
100
AcDbEntity
100
AcDbLine
  8
02 top
 62
256
370
-1
  6
ByLayer
 10
40.0
 20
-344.4999999999999432
 30
0.0
 11
39.9999999999999574
 21
-444.5000000000001137
 31
0.0
  0
LINE
  5
B9
100
AcDbEntity
100
AcDbLine
  8
02 top
 62
256
370
-1
  6
ByLayer
 10
-57.4618999952721765
 20
-444.4999999999999432
 30
0.0
 11
-57.4618999952721481
 21
-441.4999999999999432
 31
0.0
  0
LINE
  5
BA
100
AcDbEntity
100
AcDbLine
  8
02 top
 62
256
370
-1
  6
ByLayer
 10
-60.0000000000000426
 20
-437.4999999999999432
 30
0.0
 11
-57.4618999952721552
 21
-437.4999999999999432
 31
0.0
  0
LINE
  5
BB
100
AcDbEntity
100
AcDbLine
  8
02 top
 62
256
370
-1
  6
ByLayer
 10
-57.4618999952721481
 20
-438.4999999999998863
 30
0.0
 11
-57.4618999952721552
 21
-437.4999999999999432
 31
0.0
  0
LINE
  5
BC
100
AcDbEntity
100
AcDbLine
  8
02 top
 62
256
370
-1
  6
ByLayer
 10
-60.0000000000000426
 20
-437.4999999999999432
 30
0.0
 11
-59.9999999999999858
 21
-351.5381000000000427
 31
0.0
  0
LINE
  5
BD
100
AcDbEntity
100
AcDbLine
  8
04 side
 62
256
370
-1
  6
ByLayer
 10
-71.8856758342707565
 20
-486.976059457792303
 30
0.0
 11
-57.8856784294535629
 21
-486.976059457792303
 31
0.0
  0
LINE
  5
BE
100
AcDbEntity
100
AcDbLine
  8
04 side
 62
256
370
-1
  6
ByLayer
 10
-83.3856758342707565
 20
-479.8727613297452308
 30
0.0
 11
-80.3856758342707565
 21
-479.872761329745174
 31
0.0
  0
LINE
  5
BF
100
AcDbEntity
100
AcDbLine
  8
04 side
 62
256
370
-1
  6
ByLayer
 10
-84.7456758342707417
 20
-483.042761329745133
 30
0.0
 11
-84.7456758342707417
 21
-480.872761329745174
 31
0.0
  0
LINE
  5
C0
100
AcDbEntity
100
AcDbLine
  8
04 side
 62
256
370
-1
  6
ByLayer
 10
-79.025675834270757
 20
-480.872761329745174
 30
0.0
 11
-79.025675834270757
 21
-483.042761329745133
 31
0.0
  0
LINE
  5
C1
100
AcDbEntity
100
AcDbLine
  8
04 side
 62
256
370
-1
  6
ByLayer
 10
-83.3856758342707565
 20
-483.042761329745133
 30
0.0
 11
-84.7456758342707417
 21
-483.042761329745133
 31
0.0
  0
LINE
  5
C2
100
AcDbEntity
100
AcDbLine
  8
04 side
 62
256
370
-1
  6
ByLayer
 10
-79.025675834270757
 20
-483.042761329745133
 30
0.0
 11
-80.3856758342707565
 21
-483.0427613297451899
 31
0.0
  0
LINE
  5
C3
100
AcDbEntity
100
AcDbLine
  8
04 side
 62
256
370
-1
  6
ByLayer
 10
-80.3856758342707565
 20
-479.872761329745174
 30
0.0
 11
-80.3856758342707565
 21
-480.8727613297451171
 31
0.0
  0
LINE
  5
C4
100
AcDbEntity
100
AcDbLine
  8
04 side
 62
256
370
-1
  6
ByLayer
 10
-80.3856758342707565
 20
-480.8727613297451171
 30
0.0
 11
-79.025675834270757
 21
-480.872761329745174
 31
0.0
  0
LINE
  5
C5
100
AcDbEntity
100
AcDbLine
  8
04 side
 62
256
370
-1
  6
ByLayer
 10
-84.7456758342707417
 20
-480.872761329745174
 30
0.0
 11
-83.3856758342707565
 21
-480.872761329745174
 31
0.0
  0
LINE
  5
C6
100
AcDbEntity
100
AcDbLine
  8
04 side
 62
256
370
-1
  6
ByLayer
 10
-83.3856758342707565
 20
-480.872761329745174
 30
0.0
 11
-83.3856758342707565
 21
-479.8727613297452308
 31
0.0
  0
LINE
  5
C7
100
AcDbEntity
100
AcDbLine
  8
04 side
 62
256
370
-1
  6
ByLayer
 10
-83.3856758342707565
 20
-486.476059457792303
 30
0.0
 11
-83.3856758342707565
 21
-483.042761329745133
 31
0.0
  0
LINE
  5
C8
100
AcDbEntity
100
AcDbLine
  8
04 side
 62
256
370
-1
  6
ByLayer
 10
-80.3856758342707565
 20
-483.0427613297451899
 30
0.0
 11
-80.3856758342707565
 21
-486.476059457792303
 31
0.0
  0
LINE
  5
C9
100
AcDbEntity
100
AcDbLine
  8
04 side
 62
256
370
-1
  6
ByLayer
 10
-91.8856758342707565
 20
-491.476059457792303
 30
0.0
 11
-91.8856758342707565
 21
-486.976059457792303
 31
0.0
  0
ARC
  5
CA
100
AcDbEntity
  8
04 side
 62
256
370
-1
  6
ByLayer
100
AcDbCircle
 10
-91.3856758342707565
 20
-491.476059457792303
 30
0.0
 40
0.5
100
AcDbArc
 50
180.0
 51
270.0
  0
LINE
  5
CB
100
AcDbEntity
100
AcDbLine
  8
04 side
 62
256
370
-1
  6
ByLayer
 10
-87.3856758342707565
 20
-491.976059457792303
 30
0.0
 11
-91.3856758342707707
 21
-491.976059457792303
 31
0.0
  0
LINE
  5
CC
100
AcDbEntity
100
AcDbLine
  8
04 side
 62
256
370
-1
  6
ByLayer
 10
-86.8856758342707565
 20
-486.976059457792303
 30
0.0
 11
-86.8856758342707565
 21
-491.476059457792303
 31
0.0
  0
ARC
  5
CD
100
AcDbEntity
  8
04 side
 62
256
370
-1
  6
ByLayer
100
AcDbCircle
 10
-87.3856758342707565
 20
-491.476059457792303
 30
0.0
 40
0.5
100
AcDbArc
 50
270.0
 51
0.0
  0
LINE
  5
CE
100
AcDbEntity
100
AcDbLine
  8
04 side
 62
256
370
-1
  6
ByLayer
 10
-83.8856758342707565
 20
-486.976059457792303
 30
0.0
 11
-86.8856758342707565
 21
-486.976059457792303
 31
0.0
  0
ARC
  5
CF
100
AcDbEntity
  8
04 side
 62
256
370
-1
  6
ByLayer
100
AcDbCircle
 10
-83.8856758342707565
 20
-486.476059457792303
 30
0.0
 40
0.5
100
AcDbArc
 50
270.0000000000000568
 51
0.0
  0
LINE
  5
D0
100
AcDbEntity
100
AcDbLine
  8
04 side
 62
256
370
-1
  6
ByLayer
 10
-79.8856758342707565
 20
-486.976059457792303
 30
0.0
 11
-76.8856758342707565
 21
-486.976059457792303
 31
0.0
  0
ARC
  5
D1
100
AcDbEntity
  8
04 side
 62
256
370
-1
  6
ByLayer
100
AcDbCircle
 10
-79.8856758342707565
 20
-486.476059457792303
 30
0.0
 40
0.5
100
AcDbArc
 50
180.0
 51
269.9999999999999432
  0
LINE
  5
D2
100
AcDbEntity
100
AcDbLine
  8
04 side
 62
256
370
-1
  6
ByLayer
 10
-76.8856758342707565
 20
-486.976059457792303
 30
0.0
 11
-76.8856758342707565
 21
-491.476059457792303
 31
0.0
  0
ARC
  5
D3
100
AcDbEntity
  8
04 side
 62
256
370
-1
  6
ByLayer
100
AcDbCircle
 10
-76.3856758342707707
 20
-491.476059457792303
 30
0.0
 40
0.5
100
AcDbArc
 50
180.0
 51
270.0
  0
LINE
  5
D4
100
AcDbEntity
100
AcDbLine
  8
04 side
 62
256
370
-1
  6
ByLayer
 10
-76.3856758342707707
 20
-491.976059457792303
 30
0.0
 11
-72.3856758342707707
 21
-491.976059457792303
 31
0.0
  0
LINE
  5
D5
100
AcDbEntity
100
AcDbLine
  8
04 side
 62
256
370
-1
  6
ByLayer
 10
-71.8856758342707707
 20
-491.476059457792303
 30
0.0
 11
-71.8856758342707565
 21
-486.976059457792303
 31
0.0
  0
ARC
  5
D6
100
AcDbEntity
  8
04 side
 62
256
370
-1
  6
ByLayer
100
AcDbCircle
 10
-72.3856758342707565
 20
-491.476059457792303
 30
0.0
 40
0.5
100
AcDbArc
 50
270.0
 51
0.0
  0
LINE
  5
D7
100
AcDbEntity
100
AcDbLine
  8
04 side
 62
256
370
-1
  6
ByLayer
 10
-49.3856784294535629
 20
-479.8727613297453445
 30
0.0
 11
-46.3856784294535558
 21
-479.8727613297454013
 31
0.0
  0
LINE
  5
D8
100
AcDbEntity
100
AcDbLine
  8
04 side
 62
256
370
-1
  6
ByLayer
 10
-50.7456784294535552
 20
-483.042761329745133
 30
0.0
 11
-50.7456784294535481
 21
-480.872761329745174
 31
0.0
  0
LINE
  5
D9
100
AcDbEntity
100
AcDbLine
  8
04 side
 62
256
370
-1
  6
ByLayer
 10
-45.0256784294535635
 20
-480.8727613297451171
 30
0.0
 11
-45.0256784294535635
 21
-483.0427613297451899
 31
0.0
  0
LINE
  5
DA
100
AcDbEntity
100
AcDbLine
  8
04 side
 62
256
370
-1
  6
ByLayer
 10
-49.3856784294535558
 20
-483.042761329745133
 30
0.0
 11
-50.7456784294535552
 21
-483.042761329745133
 31
0.0
  0
LINE
  5
DB
100
AcDbEntity
100
AcDbLine
  8
04 side
 62
256
370
-1
  6
ByLayer
 10
-45.0256784294535635
 20
-483.0427613297451899
 30
0.0
 11
-46.3856784294535629
 21
-483.042761329745133
 31
0.0
  0
LINE
  5
DC
100
AcDbEntity
100
AcDbLine
  8
04 side
 62
256
370
-1
  6
ByLayer
 10
-46.3856784294535558
 20
-479.8727613297454013
 30
0.0
 11
-46.3856784294535558
 21
-480.8727613297451171
 31
0.0
  0
LINE
  5
DD
100
AcDbEntity
100
AcDbLine
  8
04 side
 62
256
370
-1
  6
ByLayer
 10
-46.3856784294535558
 20
-480.8727613297451171
 30
0.0
 11
-45.0256784294535635
 21
-480.8727613297451171
 31
0.0
  0
LINE
  5
DE
100
AcDbEntity
100
AcDbLine
  8
04 side
 62
256
370
-1
  6
ByLayer
 10
-50.7456784294535481
 20
-480.872761329745174
 30
0.0
 11
-49.3856784294535629
 21
-480.8727613297451171
 31
0.0
  0
LINE
  5
DF
100
AcDbEntity
100
AcDbLine
  8
04 side
 62
256
370
-1
  6
ByLayer
 10
-49.3856784294535629
 20
-480.8727613297451171
 30
0.0
 11
-49.3856784294535629
 21
-479.8727613297453445
 31
0.0
  0
LINE
  5
E0
100
AcDbEntity
100
AcDbLine
  8
04 side
 62
256
370
-1
  6
ByLayer
 10
-49.3856784294535629
 20
-486.476059457792303
 30
0.0
 11
-49.3856784294535558
 21
-483.042761329745133
 31
0.0
  0
LINE
  5
E1
100
AcDbEntity
100
AcDbLine
  8
04 side
 62
256
370
-1
  6
ByLayer
 10
-46.3856784294535629
 20
-483.042761329745133
 30
0.0
 11
-46.3856784294535629
 21
-486.476059457792303
 31
0.0
  0
LINE
  5
E2
100
AcDbEntity
100
AcDbLine
  8
04 side
 62
256
370
-1
  6
ByLayer
 10
-49.8856784294535629
 20
-486.976059457792303
 30
0.0
 11
-52.8856784294535629
 21
-486.976059457792303
 31
0.0
  0
ARC
  5
E3
100
AcDbEntity
  8
04 side
 62
256
370
-1
  6
ByLayer
100
AcDbCircle
 10
-49.8856784294535629
 20
-486.476059457792303
 30
0.0
 40
0.5
100
AcDbArc
 50
270.0000000000000568
 51
0.0
  0
LINE
  5
E4
100
AcDbEntity
100
AcDbLine
  8
04 side
 62
256
370
-1
  6
ByLayer
 10
-45.8856784294535629
 20
-486.976059457792303
 30
0.0
 11
-42.8856784294535629
 21
-486.976059457792303
 31
0.0
  0
ARC
  5
E5
100
AcDbEntity
  8
04 side
 62
256
370
-1
  6
ByLayer
100
AcDbCircle
 10
-45.8856784294535629
 20
-486.476059457792303
 30
0.0
 40
0.5
100
AcDbArc
 50
180.0
 51
269.9999999999999432
  0
LINE
  5
E6
100
AcDbEntity
100
AcDbLine
  8
04 side
 62
256
370
-1
  6
ByLayer
 10
-57.88567842945357
 20
-491.476059457792303
 30
0.0
 11
-57.8856784294535629
 21
-486.976059457792303
 31
0.0
  0
ARC
  5
E7
100
AcDbEntity
  8
04 side
 62
256
370
-1
  6
ByLayer
100
AcDbCircle
 10
-57.38567842945357
 20
-491.476059457792303
 30
0.0
 40
0.5
100
AcDbArc
 50
180.0
 51
270.0
  0
LINE
  5
E8
100
AcDbEntity
100
AcDbLine
  8
04 side
 62
256
370
-1
  6
ByLayer
 10
-53.38567842945357
 20
-491.976059457792303
 30
0.0
 11
-57.3856784294535771
 21
-491.976059457792303
 31
0.0
  0
LINE
  5
E9
100
AcDbEntity
100
AcDbLine
  8
04 side
 62
256
370
-1
  6
ByLayer
 10
-52.8856784294535629
 20
-486.976059457792303
 30
0.0
 11
-52.8856784294535771
 21
-491.476059457792303
 31
0.0
  0
ARC
  5
EA
100
AcDbEntity
  8
04 side
 62
256
370
-1
  6
ByLayer
100
AcDbCircle
 10
-53.3856784294535629
 20
-491.476059457792303
 30
0.0
 40
0.5
100
AcDbArc
 50
270.0
 51
0.0
  0
LINE
  5
EB
100
AcDbEntity
100
AcDbLine
  8
04 side
 62
256
370
-1
  6
ByLayer
 10
-49.8856784294535629
 20
-486.976059457792303
 30
0.0
 11
-52.8856784294535629
 21
-486.976059457792303
 31
0.0
  0
ARC
  5
EC
100
AcDbEntity
  8
04 side
 62
256
370
-1
  6
ByLayer
100
AcDbCircle
 10
-49.8856784294535629
 20
-486.476059457792303
 30
0.0
 40
0.5
100
AcDbArc
 50
270.0000000000000568
 51
0.0
  0
LINE
  5
ED
100
AcDbEntity
100
AcDbLine
  8
04 side
 62
256
370
-1
  6
ByLayer
 10
-45.88567842945357
 20
-486.976059457792303
 30
0.0
 11
-42.8856784294535629
 21
-486.976059457792303
 31
0.0
  0
ARC
  5
EE
100
AcDbEntity
  8
04 side
 62
256
370
-1
  6
ByLayer
100
AcDbCircle
 10
-45.8856784294535629
 20
-486.476059457792303
 30
0.0
 40
0.5
100
AcDbArc
 50
180.0
 51
269.9999999999999432
  0
LINE
  5
EF
100
AcDbEntity
100
AcDbLine
  8
04 side
 62
256
370
-1
  6
ByLayer
 10
-42.8856784294535629
 20
-486.976059457792303
 30
0.0
 11
-42.88567842945357
 21
-491.476059457792303
 31
0.0
  0
ARC
  5
F0
100
AcDbEntity
  8
04 side
 62
256
370
-1
  6
ByLayer
100
AcDbCircle
 10
-42.3856784294535771
 20
-491.476059457792303
 30
0.0
 40
0.5
100
AcDbArc
 50
180.0
 51
270.0
  0
LINE
  5
F1
100
AcDbEntity
100
AcDbLine
  8
04 side
 62
256
370
-1
  6
ByLayer
 10
-42.3856784294535771
 20
-491.976059457792303
 30
0.0
 11
-38.3856784294535771
 21
-491.976059457792303
 31
0.0
  0
LINE
  5
F2
100
AcDbEntity
100
AcDbLine
  8
04 side
 62
256
370
-1
  6
ByLayer
 10
-37.88567842945357
 20
-491.476059457792303
 30
0.0
 11
-37.8856784294535629
 21
-486.976059457792303
 31
0.0
  0
ARC
  5
F3
100
AcDbEntity
  8
04 side
 62
256
370
-1
  6
ByLayer
100
AcDbCircle
 10
-38.3856784294535629
 20
-491.476059457792303
 30
0.0
 40
0.5
100
AcDbArc
 50
270.0
 51
0.0
  0
LINE
  5
F4
100
AcDbEntity
100
AcDbLine
  8
04 side
 62
256
370
-1
  6
ByLayer
 10
-100.8856784294535771
 20
-486.976059457792303
 30
0.0
 11
-100.8856784294535771
 21
-491.976059457792303
 31
0.0
  0
LINE
  5
F5
100
AcDbEntity
100
AcDbLine
  8
04 side
 62
256
370
-1
  6
ByLayer
 10
-100.8856784294535771
 20
-486.976059457792303
 30
0.0
 11
-91.8856758342707565
 21
-486.976059457792303
 31
0.0
  0
LINE
  5
F6
100
AcDbEntity
100
AcDbLine
  8
04 side
 62
256
370
-1
  6
ByLayer
 10
-37.8856784294535629
 20
-486.976059457792303
 30
0.0
 11
-28.8856784294535913
 21
-486.976059457792303
 31
0.0
  0
ARC
  5
F7
100
AcDbEntity
  8
04 side
 62
256
370
-1
  6
ByLayer
100
AcDbCircle
 10
-4.485744993330016
 20
-489.4260594577921211
 30
0.0
 40
7.9999999999999982
100
AcDbArc
 50
270.0
 51
0.0
  0
LINE
  5
F8
100
AcDbEntity
100
AcDbLine
  8
04 side
 62
256
370
-1
  6
ByLayer
 10
3.514255006669984
 20
-473.1260594577922234
 30
0.0
 11
3.514255006669984
 21
-489.4260594577921211
 31
0.0
  0
ARC
  5
F9
100
AcDbEntity
  8
04 side
 62
256
370
-1
  6
ByLayer
100
AcDbCircle
 10
-101.8856784294535771
 20
-496.4260594577922916
 30
0.0
 40
1.0
100
AcDbArc
 50
270.0000000000028422
 51
0.0
  0
LINE
  5
FA
100
AcDbEntity
100
AcDbLine
  8
04 side
 62
256
370
-1
  6
ByLayer
 10
-100.8856784294535771
 20
-496.4260594577922916
 30
0.0
 11
-100.8856784294535771
 21
-486.976059457792303
 31
0.0
  0
ARC
  5
FB
100
AcDbEntity
  8
04 side
 62
256
370
-1
  6
ByLayer
100
AcDbCircle
 10
-27.8856784294535629
 20
-496.4260594577922916
 30
0.0
 40
1.0
100
AcDbArc
 50
180.0
 51
270.0
  0
LINE
  5
FC
100
AcDbEntity
100
AcDbLine
  8
04 side
 62
256
370
-1
  6
ByLayer
 10
-28.8856784294535913
 20
-486.976059457792303
 30
0.0
 11
-28.8856784294535629
 21
-496.4260594577922916
 31
0.0
  0
LINE
  5
FD
100
AcDbEntity
100
AcDbLine
  8
04 side
 62
256
370
-1
  6
ByLayer
 10
-7.7119299860662522
 20
-485.4016861702331198
 30
0.0
 11
-7.7119299860662522
 21
-485.4016861702331198
 31
0.0
  0
LINE
  5
FE
100
AcDbEntity
100
AcDbLine
  8
04 side
 62
256
370
-1
  6
ByLayer
 10
-7.7119299860662522
 20
-485.4016861702331198
 30
0.0
 11
-7.7119299860662522
 21
-485.4016861702331198
 31
0.0
  0
CIRCLE
  5
FF
100
AcDbEntity
100
AcDbCircle
  8
04 side
 62
256
370
-1
  6
ByLayer
 10
-7.3856784294535629
 20
-483.9016861702329493
 30
0.0
 40
1.5
  0
LINE
  5
100
100
AcDbEntity
100
AcDbLine
  8
04 side
 62
256
370
-1
  6
ByLayer
 10
-3.8856784294535629
 20
-485.401686170233063
 30
0.0
 11
-7.3856784294535629
 21
-485.4016861702329493
 31
0.0
  0
LINE
  5
101
100
AcDbEntity
100
AcDbLine
  8
04 side
 62
256
370
-1
  6
ByLayer
 10
-7.3856784294535629
 20
-485.4016861702329493
 30
0.0
 11
-10.8856784294535629
 21
-485.4016861702330061
 31
0.0
  0
LINE
  5
102
100
AcDbEntity
100
AcDbLine
  8
04 side
 62
256
370
-1
  6
ByLayer
 10
-10.8856784294535629
 20
-488.4260594577922916
 30
0.0
 11
-3.8856784294535629
 21
-488.4260594577923484
 31
0.0
  0
LINE
  5
103
100
AcDbEntity
100
AcDbLine
  8
04 side
 62
256
370
-1
  6
ByLayer
 10
-3.8856784294535629
 20
-488.4260594577923484
 30
0.0
 11
-3.8856784294535629
 21
-485.401686170233063
 31
0.0
  0
LINE
  5
104
100
AcDbEntity
100
AcDbLine
  8
04 side
 62
256
370
-1
  6
ByLayer
 10
-10.8856784294535629
 20
-485.4016861702330061
 30
0.0
 11
-10.8856784294535629
 21
-488.4260594577922916
 31
0.0
  0
ARC
  5
105
100
AcDbEntity
  8
04 side
 62
256
370
-1
  6
ByLayer
100
AcDbCircle
 10
-120.1856784294535601
 20
-467.5247594577922996
 30
0.0
 40
2.1000000000000001
100
AcDbArc
 50
136.4199999999999875
 51
43.5799999999999983
  0
ARC
  5
106
100
AcDbEntity
  8
04 side
 62
256
370
-1
  6
ByLayer
100
AcDbCircle
 10
-123.0598975264644963
 20
-465.6584249208981987
 30
0.0
 40
1.4162489482180753
100
AcDbArc
 50
342.805581044011376
 51
22.0795102960116658
  0
ARC
  5
107
100
AcDbEntity
  8
04 side
 62
256
370
-1
  6
ByLayer
100
AcDbCircle
 10
-7.0475784294535657
 20
-467.5260594577923143
 30
0.0
 40
2.1000000000000001
100
AcDbArc
 50
136.4199999999999875
 51
43.5799999999999983
  0
ARC
  5
108
100
AcDbEntity
  8
04 side
 62
256
370
-1
  6
ByLayer
100
AcDbCircle
 10
-125.8856784294535629
 20
-478.4260594577922348
 30
0.0
 40
1.0
100
AcDbArc
 50
89.9999999999995879
 51
89.9999999999995879
  0
ARC
  5
109
100
AcDbEntity
  8
04 side
 62
256
370
-1
  6
ByLayer
100
AcDbCircle
 10
-3.8856784294535629
 20
-479.4260594577922916
 30
0.0
 40
1.0
100
AcDbArc
 50
90.0000000000003979
 51
90.0000000000003979
  0
LINE
  5
10A
100
AcDbEntity
100
AcDbLine
  8
04 side
 62
256
370
-1
  6
ByLayer
 10
-6.5024475888079252
 20
-469.5540713824556747
 30
0.0
 11
-4.1107546764609992
 21
-478.4517183044826538
 31
0.0
  0
LINE
  5
10B
100
AcDbEntity
100
AcDbLine
  8
04 side
 62
256
370
-1
  6
ByLayer
 10
-121.1558196761927491
 20
-469.387237903674361
 30
0.0
 11
-125.4220377690840564
 21
-477.5400361296275946
 31
0.0
  0
CIRCLE
  5
10C
100
AcDbEntity
100
AcDbCircle
  8
04 side
 62
256
370
-1
  6
ByLayer
 10
-119.9076783045252057
 20
-481.826059457792212
 30
0.0
 40
3.5
  0
CIRCLE
  5
10D
100
AcDbEntity
100
AcDbCircle
  8
04 side
 62
256
370
-1
  6
ByLayer
 10
-125.4076784294535685
 20
-481.8260594577923825
 30
0.0
 40
1.2
  0
CIRCLE
  5
10E
100
AcDbEntity
100
AcDbCircle
  8
04 side
 62
256
370
-1
  6
ByLayer
 10
-114.4076784294535685
 20
-481.8260594577922689
 30
0.0
 40
1.2
  0
ARC
  5
10F
100
AcDbEntity
  8
04 side
 62
256
370
-1
  6
ByLayer
100
AcDbCircle
 10
-116.7672645007363599
 20
-465.6324897585493545
 30
0.0
 40
1.9485476112146971
100
AcDbArc
 50
15.0642131331363078
 51
193.1893402850320172
  0
ARC
  5
110
100
AcDbEntity
  8
04 side
 62
256
370
-1
  6
ByLayer
100
AcDbCircle
 10
-4.986188769929413
 20
-472.2446137879476851
 30
0.0
 40
8.546021932338757
100
AcDbArc
 50
354.079924998340573
 51
84.0799249983405304
  0
ARC
  5
111
100
AcDbEntity
  8
04 side
 62
256
370
-1
  6
ByLayer
100
AcDbCircle
 10
-3.6291645007363655
 20
-465.6337897585493693
 30
0.0
 40
1.9485476112146896
100
AcDbArc
 50
104.1267767090851919
 51
193.1893402850319887
  0
ARC
  5
112
100
AcDbEntity
  8
04 side
 62
256
370
-1
  6
ByLayer
100
AcDbCircle
 10
-11.6935279160706642
 20
-466.0026730699394761
 30
0.0
 40
3.2142903902642264
100
AcDbArc
 50
23.7755314004862406
 51
173.271282817041282
  0
CIRCLE
  5
113
100
AcDbEntity
100
AcDbCircle
  8
04 side
 62
256
370
-1
  6
ByLayer
 10
-134.6422490057253185
 20
-480.9244326905330809
 30
0.0
 40
1.5
  0
LINE
  5
114
100
AcDbEntity
100
AcDbLine
  8
04 side
 62
256
370
-1
  6
ByLayer
 10
-143.143235740166773
 20
-484.1874659899548305
 30
0.0
 11
-132.0920341616104565
 21
-468.4047144834344749
 31
0.0
  0
LINE
  5
115
100
AcDbEntity
100
AcDbLine
  8
04 side
 62
256
370
-1
  6
ByLayer
 10
-142.4258934799582335
 20
-487.6820120425450114
 30
0.0
 11
-139.558011298203013
 21
-483.5862518210998928
 31
0.0
  0
LINE
  5
116
100
AcDbEntity
100
AcDbLine
  8
04 side
 62
256
370
-1
  6
ByLayer
 10
-139.558011298203013
 20
-483.5862518210998928
 30
0.0
 11
-135.4623662196574116
 21
-486.4540533789292454
 31
0.0
  0
ARC
  5
117
100
AcDbEntity
  8
04 side
 62
256
370
-1
  6
ByLayer
100
AcDbCircle
 10
-141.0372915837674554
 20
-485.5760678861457791
 30
0.0
 40
2.5225415786418957
100
AcDbArc
 50
146.6002355807795823
 51
236.6002355807798381
  0
LINE
  5
118
100
AcDbEntity
100
AcDbLine
  8
04 side
 62
256
370
-1
  6
ByLayer
 10
-132.0920341616104565
 20
-468.4047144834344749
 30
0.0
 11
-129.2978571545599493
 21
-464.4142161603306249
 31
0.0
  0
LINE
  5
119
100
AcDbEntity
100
AcDbLine
  8
04 side
 62
256
370
-1
  6
ByLayer
 10
-138.3301332585133139
 20
-490.5498942243002602
 30
0.0
 11
-135.4623662196574116
 21
-486.4540533789292454
 31
0.0
  0
ARC
  5
11A
100
AcDbEntity
  8
04 side
 62
256
370
-1
  6
ByLayer
100
AcDbCircle
 10
-125.8899470232312012
 20
-482.7964872862655739
 30
0.0
 40
14.6585658478334313
100
AcDbArc
 50
211.9334258434626577
 51
266.3957480514882263
  0
ARC
  5
11B
100
AcDbEntity
  8
04 side
 62
256
370
-1
  6
ByLayer
100
AcDbCircle
 10
-125.7286983268579093
 20
-466.9552160775725156
 30
0.0
 40
4.3812755353648738
100
AcDbArc
 50
24.6748931016713868
 51
144.5517031016722456
  0
LINE
  5
11C
100
AcDbEntity
100
AcDbLine
  8
04 side
 62
256
370
-1
  6
ByLayer
 10
-71.3666271318621739
 20
-474.4260594577924053
 30
0.0
 11
-58.4047271318621526
 21
-474.4260594577924053
 31
0.0
  0
LINE
  5
11D
100
AcDbEntity
100
AcDbLine
  8
04 side
 62
256
370
-1
  6
ByLayer
 10
-58.4047271318621526
 20
-469.4260594577924053
 30
0.0
 11
-58.4047271318621455
 21
-474.4260594577924053
 31
0.0
  0
LINE
  5
11E
100
AcDbEntity
100
AcDbLine
  8
04 side
 62
256
370
-1
  6
ByLayer
 10
-14.8856784294535629
 20
-469.4260594577924053
 30
0.0
 11
-14.8856784294535629
 21
-465.626059457792735
 31
0.0
  0
ARC
  5
11F
100
AcDbEntity
  8
04 side
 62
256
370
-1
  6
ByLayer
100
AcDbCircle
 10
-71.8666271318621739
 20
-465.4260594577922916
 30
0.0
 40
0.5
100
AcDbArc
 50
0.0
 51
90.0000000000000142
  0
ARC
  5
120
100
AcDbEntity
  8
04 side
 62
256
370
-1
  6
ByLayer
100
AcDbCircle
 10
-101.3856784294535203
 20
-465.4260594577922916
 30
0.0
 40
0.5
100
AcDbArc
 50
90.0000000000000142
 51
180.0
  0
LINE
  5
121
100
AcDbEntity
100
AcDbLine
  8
04 side
 62
256
370
-1
  6
ByLayer
 10
-101.3856784294535203
 20
-464.9260594577922916
 30
0.0
 11
-71.8666271318621739
 21
-464.9260594577922916
 31
0.0
  0
LINE
  5
122
100
AcDbEntity
100
AcDbLine
  8
04 side
 62
256
370
-1
  6
ByLayer
 10
-101.8856784294535203
 20
-469.4260594577924053
 30
0.0
 11
-101.8856784294535203
 21
-465.4260594577922916
 31
0.0
  0
LINE
  5
123
100
AcDbEntity
100
AcDbLine
  8
04 side
 62
256
370
-1
  6
ByLayer
 10
-71.3666271318621739
 20
-465.4260594577922916
 30
0.0
 11
-71.3666271318621739
 21
-474.4260594577924053
 31
0.0
  0
ARC
  5
124
100
AcDbEntity
  8
04 side
 62
256
370
-1
  6
ByLayer
100
AcDbCircle
 10
-108.385678429453435
 20
-469.9260594577924053
 30
0.0
 40
0.5
100
AcDbArc
 50
90.0000000000000568
 51
180.0
  0
LINE
  5
125
100
AcDbEntity
100
AcDbLine
  8
04 side
 62
256
370
-1
  6
ByLayer
 10
-111.885678429453435
 20
-476.0293775701763934
 30
0.0
 11
-108.885678429453435
 21
-476.0293775701762797
 31
0.0
  0
LINE
  5
126
100
AcDbEntity
100
AcDbLine
  8
04 side
 62
256
370
-1
  6
ByLayer
 10
-113.2456784294534202
 20
-472.8593775701763207
 30
0.0
 11
-113.2456784294534202
 21
-475.0293775701763366
 31
0.0
  0
LINE
  5
127
100
AcDbEntity
100
AcDbLine
  8
04 side
 62
256
370
-1
  6
ByLayer
 10
-107.5256784294534356
 20
-475.0293775701763366
 30
0.0
 11
-107.5256784294534356
 21
-472.8593775701763207
 31
0.0
  0
LINE
  5
128
100
AcDbEntity
100
AcDbLine
  8
04 side
 62
256
370
-1
  6
ByLayer
 10
-111.885678429453435
 20
-472.8593775701763775
 30
0.0
 11
-113.2456784294534202
 21
-472.8593775701763207
 31
0.0
  0
LINE
  5
129
100
AcDbEntity
100
AcDbLine
  8
04 side
 62
256
370
-1
  6
ByLayer
 10
-107.5256784294534356
 20
-472.8593775701763207
 30
0.0
 11
-108.885678429453435
 21
-472.8593775701763207
 31
0.0
  0
LINE
  5
12A
100
AcDbEntity
100
AcDbLine
  8
04 side
 62
256
370
-1
  6
ByLayer
 10
-108.885678429453435
 20
-476.0293775701762797
 30
0.0
 11
-108.885678429453435
 21
-475.0293775701763366
 31
0.0
  0
LINE
  5
12B
100
AcDbEntity
100
AcDbLine
  8
04 side
 62
256
370
-1
  6
ByLayer
 10
-108.885678429453435
 20
-475.0293775701763366
 30
0.0
 11
-107.5256784294534356
 21
-475.0293775701763366
 31
0.0
  0
LINE
  5
12C
100
AcDbEntity
100
AcDbLine
  8
04 side
 62
256
370
-1
  6
ByLayer
 10
-113.2456784294534202
 20
-475.0293775701763366
 30
0.0
 11
-111.885678429453435
 21
-475.0293775701763934
 31
0.0
  0
LINE
  5
12D
100
AcDbEntity
100
AcDbLine
  8
04 side
 62
256
370
-1
  6
ByLayer
 10
-111.885678429453435
 20
-475.0293775701763934
 30
0.0
 11
-111.885678429453435
 21
-476.0293775701763934
 31
0.0
  0
LINE
  5
12E
100
AcDbEntity
100
AcDbLine
  8
04 side
 62
256
370
-1
  6
ByLayer
 10
-108.885678429453435
 20
-472.8593775701763207
 30
0.0
 11
-108.885678429453435
 21
-469.9260594577924053
 31
0.0
  0
ARC
  5
12F
100
AcDbEntity
  8
04 side
 62
256
370
-1
  6
ByLayer
100
AcDbCircle
 10
-21.3856784294535203
 20
-469.9260594577924053
 30
0.0
 40
0.5
100
AcDbArc
 50
0.0
 51
89.9999999999999574
  0
LINE
  5
130
100
AcDbEntity
100
AcDbLine
  8
04 side
 62
256
370
-1
  6
ByLayer
 10
-20.8856784294535203
 20
-476.0293775701763366
 30
0.0
 11
-17.8856784294535132
 21
-476.0293775701763366
 31
0.0
  0
LINE
  5
131
100
AcDbEntity
100
AcDbLine
  8
04 side
 62
256
370
-1
  6
ByLayer
 10
-22.2456784294535126
 20
-472.8593775701763207
 30
0.0
 11
-22.2456784294535126
 21
-475.0293775701763934
 31
0.0
  0
LINE
  5
132
100
AcDbEntity
100
AcDbLine
  8
04 side
 62
256
370
-1
  6
ByLayer
 10
-16.5256784294535208
 20
-475.0293775701763366
 30
0.0
 11
-16.5256784294535208
 21
-472.8593775701763207
 31
0.0
  0
LINE
  5
133
100
AcDbEntity
100
AcDbLine
  8
04 side
 62
256
370
-1
  6
ByLayer
 10
-20.8856784294535203
 20
-472.8593775701763207
 30
0.0
 11
-22.2456784294535126
 21
-472.8593775701763207
 31
0.0
  0
LINE
  5
134
100
AcDbEntity
100
AcDbLine
  8
04 side
 62
256
370
-1
  6
ByLayer
 10
-16.5256784294535208
 20
-472.8593775701763207
 30
0.0
 11
-17.8856784294535203
 21
-472.8593775701763775
 31
0.0
  0
LINE
  5
135
100
AcDbEntity
100
AcDbLine
  8
04 side
 62
256
370
-1
  6
ByLayer
 10
-17.8856784294535132
 20
-476.0293775701763366
 30
0.0
 11
-17.8856784294535203
 21
-475.0293775701763934
 31
0.0
  0
LINE
  5
136
100
AcDbEntity
100
AcDbLine
  8
04 side
 62
256
370
-1
  6
ByLayer
 10
-17.8856784294535203
 20
-475.0293775701763934
 30
0.0
 11
-16.5256784294535208
 21
-475.0293775701763366
 31
0.0
  0
LINE
  5
137
100
AcDbEntity
100
AcDbLine
  8
04 side
 62
256
370
-1
  6
ByLayer
 10
-22.2456784294535126
 20
-475.0293775701763934
 30
0.0
 11
-20.8856784294535203
 21
-475.0293775701762797
 31
0.0
  0
LINE
  5
138
100
AcDbEntity
100
AcDbLine
  8
04 side
 62
256
370
-1
  6
ByLayer
 10
-20.8856784294535203
 20
-475.0293775701762797
 30
0.0
 11
-20.8856784294535203
 21
-476.0293775701763366
 31
0.0
  0
LINE
  5
139
100
AcDbEntity
100
AcDbLine
  8
04 side
 62
256
370
-1
  6
ByLayer
 10
-20.8856784294535203
 20
-469.9260594577924053
 30
0.0
 11
-20.8856784294535203
 21
-472.8593775701763207
 31
0.0
  0
LINE
  5
13A
100
AcDbEntity
100
AcDbLine
  8
04 side
 62
256
370
-1
  6
ByLayer
 10
-17.8856784294535203
 20
-469.9260594577924053
 30
0.0
 11
-17.8856784294535203
 21
-472.8593775701763775
 31
0.0
  0
ARC
  5
13B
100
AcDbEntity
  8
04 side
 62
256
370
-1
  6
ByLayer
100
AcDbCircle
 10
-17.3856784294535203
 20
-469.9260594577924621
 30
0.0
 40
0.5
100
AcDbArc
 50
90.0000000000000426
 51
180.0
  0
LINE
  5
13C
100
AcDbEntity
100
AcDbLine
  8
04 side
 62
256
370
-1
  6
ByLayer
 10
-17.3856784294535203
 20
-469.4260594577922916
 30
0.0
 11
-14.8856784294535629
 21
-469.4260594577922348
 31
0.0
  0
LINE
  5
13D
100
AcDbEntity
100
AcDbLine
  8
04 side
 62
256
370
-1
  6
ByLayer
 10
-21.3856784294535203
 20
-469.4260594577924053
 30
0.0
 11
-58.4047271318621526
 21
-469.4260594577924053
 31
0.0
  0
LINE
  5
13E
100
AcDbEntity
100
AcDbLine
  8
04 side
 62
256
370
-1
  6
ByLayer
 10
-108.385678429453435
 20
-469.4260594577924053
 30
0.0
 11
-101.8856784294535203
 21
-469.4260594577924053
 31
0.0
  0
ARC
  5
13F
100
AcDbEntity
  8
04 side
 62
256
370
-1
  6
ByLayer
100
AcDbCircle
 10
-10.6282788648299373
 20
-465.655423023929302
 30
0.0
 40
2.1024198751094905
100
AcDbArc
 50
348.3939876944201615
 51
26.8205115561966387
  0
ARC
  5
140
100
AcDbEntity
  8
04 side
 62
256
370
-1
  6
ByLayer
100
AcDbCircle
 10
-108.385678429453435
 20
-496.9260594577918368
 30
0.0
 40
0.5
100
AcDbArc
 50
180.0
 51
269.9999999999999432
  0
LINE
  5
141
100
AcDbEntity
100
AcDbLine
  8
04 side
 62
256
370
-1
  6
ByLayer
 10
-111.8856784294534492
 20
-490.8227413454081898
 30
0.0
 11
-108.885678429453435
 21
-490.8227413454081329
 31
0.0
  0
LINE
  5
142
100
AcDbEntity
100
AcDbLine
  8
04 side
 62
256
370
-1
  6
ByLayer
 10
-113.2456784294534202
 20
-493.9927413454082057
 30
0.0
 11
-113.2456784294534344
 21
-491.8227413454081329
 31
0.0
  0
LINE
  5
143
100
AcDbEntity
100
AcDbLine
  8
04 side
 62
256
370
-1
  6
ByLayer
 10
-107.5256784294534498
 20
-491.8227413454081329
 30
0.0
 11
-107.5256784294534498
 21
-493.992741345408092
 31
0.0
  0
LINE
  5
144
100
AcDbEntity
100
AcDbLine
  8
04 side
 62
256
370
-1
  6
ByLayer
 10
-111.885678429453435
 20
-493.9927413454080352
 30
0.0
 11
-113.2456784294534202
 21
-493.9927413454082057
 31
0.0
  0
LINE
  5
145
100
AcDbEntity
100
AcDbLine
  8
04 side
 62
256
370
-1
  6
ByLayer
 10
-107.5256784294534498
 20
-493.992741345408092
 30
0.0
 11
-108.885678429453435
 21
-493.9927413454081488
 31
0.0
  0
LINE
  5
146
100
AcDbEntity
100
AcDbLine
  8
04 side
 62
256
370
-1
  6
ByLayer
 10
-108.885678429453435
 20
-490.8227413454081329
 30
0.0
 11
-108.885678429453435
 21
-491.8227413454081329
 31
0.0
  0
LINE
  5
147
100
AcDbEntity
100
AcDbLine
  8
04 side
 62
256
370
-1
  6
ByLayer
 10
-108.885678429453435
 20
-491.8227413454081329
 30
0.0
 11
-107.5256784294534498
 21
-491.8227413454081329
 31
0.0
  0
LINE
  5
148
100
AcDbEntity
100
AcDbLine
  8
04 side
 62
256
370
-1
  6
ByLayer
 10
-113.2456784294534344
 20
-491.8227413454081329
 30
0.0
 11
-111.885678429453435
 21
-491.8227413454081898
 31
0.0
  0
LINE
  5
149
100
AcDbEntity
100
AcDbLine
  8
04 side
 62
256
370
-1
  6
ByLayer
 10
-111.885678429453435
 20
-491.8227413454081898
 30
0.0
 11
-111.8856784294534492
 21
-490.8227413454081898
 31
0.0
  0
LINE
  5
14A
100
AcDbEntity
100
AcDbLine
  8
04 side
 62
256
370
-1
  6
ByLayer
 10
-108.885678429453435
 20
-493.9927413454081488
 30
0.0
 11
-108.8856784294534492
 21
-496.9260594577921779
 31
0.0
  0
LINE
  5
14B
100
AcDbEntity
100
AcDbLine
  8
04 side
 62
256
370
-1
  6
ByLayer
 10
-108.3856784294534776
 20
-497.4260594577918937
 30
0.0
 11
-101.8856784294535203
 21
-497.4260594577922916
 31
0.0
  0
ARC
  5
14C
100
AcDbEntity
  8
04 side
 62
256
370
-1
  6
ByLayer
100
AcDbCircle
 10
-21.3856784294535416
 20
-496.9260594577918937
 30
0.0
 40
0.5
100
AcDbArc
 50
270.0000000000000568
 51
0.0
  0
LINE
  5
14D
100
AcDbEntity
100
AcDbLine
  8
04 side
 62
256
370
-1
  6
ByLayer
 10
-20.8856784294535345
 20
-490.8227413454080761
 30
0.0
 11
-17.8856784294535132
 21
-490.8227413454081329
 31
0.0
  0
LINE
  5
14E
100
AcDbEntity
100
AcDbLine
  8
04 side
 62
256
370
-1
  6
ByLayer
 10
-22.2456784294535197
 20
-493.9927413454082625
 30
0.0
 11
-22.2456784294535126
 21
-491.8227413454081898
 31
0.0
  0
LINE
  5
14F
100
AcDbEntity
100
AcDbLine
  8
04 side
 62
256
370
-1
  6
ByLayer
 10
-16.525678429453535
 20
-491.8227413454081329
 30
0.0
 11
-16.5256784294535279
 21
-493.9927413454080352
 31
0.0
  0
LINE
  5
150
100
AcDbEntity
100
AcDbLine
  8
04 side
 62
256
370
-1
  6
ByLayer
 10
-20.8856784294535345
 20
-493.992741345408092
 30
0.0
 11
-22.2456784294535197
 21
-493.9927413454082625
 31
0.0
  0
LINE
  5
151
100
AcDbEntity
100
AcDbLine
  8
04 side
 62
256
370
-1
  6
ByLayer
 10
-16.5256784294535279
 20
-493.9927413454080352
 30
0.0
 11
-17.8856784294535203
 21
-493.9927413454080352
 31
0.0
  0
LINE
  5
152
100
AcDbEntity
100
AcDbLine
  8
04 side
 62
256
370
-1
  6
ByLayer
 10
-17.8856784294535132
 20
-490.8227413454081329
 30
0.0
 11
-17.8856784294535345
 21
-491.8227413454080761
 31
0.0
  0
LINE
  5
153
100
AcDbEntity
100
AcDbLine
  8
04 side
 62
256
370
-1
  6
ByLayer
 10
-17.8856784294535345
 20
-491.8227413454080761
 30
0.0
 11
-16.525678429453535
 21
-491.8227413454081329
 31
0.0
  0
LINE
  5
154
100
AcDbEntity
100
AcDbLine
  8
04 side
 62
256
370
-1
  6
ByLayer
 10
-22.2456784294535126
 20
-491.8227413454081898
 30
0.0
 11
-20.8856784294535274
 21
-491.8227413454081329
 31
0.0
  0
LINE
  5
155
100
AcDbEntity
100
AcDbLine
  8
04 side
 62
256
370
-1
  6
ByLayer
 10
-20.8856784294535274
 20
-491.8227413454081329
 30
0.0
 11
-20.8856784294535345
 21
-490.8227413454080761
 31
0.0
  0
LINE
  5
156
100
AcDbEntity
100
AcDbLine
  8
04 side
 62
256
370
-1
  6
ByLayer
 10
-20.8856784294535274
 20
-496.9260594577916663
 30
0.0
 11
-20.8856784294535345
 21
-493.992741345408092
 31
0.0
  0
LINE
  5
157
100
AcDbEntity
100
AcDbLine
  8
04 side
 62
256
370
-1
  6
ByLayer
 10
-17.8856784294535345
 20
-496.9260594577919505
 30
0.0
 11
-17.8856784294535203
 21
-493.9927413454080352
 31
0.0
  0
ARC
  5
158
100
AcDbEntity
  8
04 side
 62
256
370
-1
  6
ByLayer
100
AcDbCircle
 10
-17.3856784294535345
 20
-496.9260594577923484
 30
0.0
 40
0.5
100
AcDbArc
 50
180.0
 51
269.9999999999999432
  0
LINE
  5
159
100
AcDbEntity
100
AcDbLine
  8
04 side
 62
256
370
-1
  6
ByLayer
 10
-17.3856784294535345
 20
-497.4260594577922348
 30
0.0
 11
-15.3475784294535487
 21
-497.4260594577920642
 31
0.0
  0
LINE
  5
15A
100
AcDbEntity
100
AcDbLine
  8
04 side
 62
256
370
-1
  6
ByLayer
 10
-21.3856784294535203
 20
-497.4260594577920074
 30
0.0
 11
-27.8856784294535629
 21
-497.4260594577922916
 31
0.0
  0
LINE
  5
15B
100
AcDbEntity
100
AcDbLine
  8
04 side
 62
256
370
-1
  6
ByLayer
 10
-15.3475784294535487
 20
-497.4260594577920642
 30
0.0
 11
-4.485744993330016
 21
-497.4260594577920642
 31
0.0
  0
ARC
  5
15C
100
AcDbEntity
  8
04 side
 62
256
370
-1
  6
ByLayer
100
AcDbCircle
 10
-112.8475784339828749
 20
-465.6260594577922802
 30
0.0
 40
0.5
100
AcDbArc
 50
0.0
 51
89.9999999999999574
  0
LINE
  5
15D
100
AcDbEntity
100
AcDbLine
  8
04 side
 62
256
370
-1
  6
ByLayer
 10
-111.8856784208319084
 20
-469.4260594577924053
 30
0.0
 11
-111.885678429453435
 21
-472.8593775701763775
 31
0.0
  0
LINE
  5
15E
100
AcDbEntity
100
AcDbLine
  8
04 side
 62
256
370
-1
  6
ByLayer
 10
-112.3475784247256826
 20
-469.4260594577924053
 30
0.0
 11
-112.3475784247256968
 21
-465.6260594577922802
 31
0.0
  0
LINE
  5
15F
100
AcDbEntity
100
AcDbLine
  8
04 side
 62
256
370
-1
  6
ByLayer
 10
-111.8856784208319084
 20
-469.4260594577924053
 30
0.0
 11
-112.3475784247256826
 21
-469.4260594577924053
 31
0.0
  0
LINE
  5
160
100
AcDbEntity
100
AcDbLine
  8
04 side
 62
256
370
-1
  6
ByLayer
 10
-114.8856784294535203
 20
-465.1260594577922802
 30
0.0
 11
-112.8475784339828749
 21
-465.1260594577922802
 31
0.0
  0
ARC
  5
161
100
AcDbEntity
  8
04 side
 62
256
370
-1
  6
ByLayer
100
AcDbCircle
 10
-112.385678429453435
 20
-496.9260594577918937
 30
0.0
 40
0.5
100
AcDbArc
 50
269.9999999999999432
 51
360.0
  0
LINE
  5
162
100
AcDbEntity
100
AcDbLine
  8
04 side
 62
256
370
-1
  6
ByLayer
 10
-111.8856784213746494
 20
-496.926059456414805
 30
0.0
 11
-111.885678429453435
 21
-493.9927413454080352
 31
0.0
  0
LINE
  5
163
100
AcDbEntity
100
AcDbLine
  8
04 side
 62
256
370
-1
  6
ByLayer
 10
-126.811451658790304
 20
-497.4260594577922916
 30
0.0
 11
-112.385678429453435
 21
-497.4260594577922916
 31
0.0
  0
LINE
  5
164
100
AcDbEntity
100
AcDbLine
  8
04 side
 62
256
370
-1
  6
ByLayer
 10
-71.8856758342707565
 20
-526.976059457792303
 30
0.0
 11
-57.8856784294535629
 21
-526.976059457792303
 31
0.0
  0
LINE
  5
165
100
AcDbEntity
100
AcDbLine
  8
04 side
 62
256
370
-1
  6
ByLayer
 10
-83.3856758342707565
 20
-519.8727613297452308
 30
0.0
 11
-80.3856758342707565
 21
-519.8727613297452308
 31
0.0
  0
LINE
  5
166
100
AcDbEntity
100
AcDbLine
  8
04 side
 62
256
370
-1
  6
ByLayer
 10
-84.7456758342707417
 20
-523.0427613297451899
 30
0.0
 11
-84.7456758342707417
 21
-520.8727613297451171
 31
0.0
  0
LINE
  5
167
100
AcDbEntity
100
AcDbLine
  8
04 side
 62
256
370
-1
  6
ByLayer
 10
-79.025675834270757
 20
-520.8727613297451171
 30
0.0
 11
-79.025675834270757
 21
-523.0427613297451899
 31
0.0
  0
LINE
  5
168
100
AcDbEntity
100
AcDbLine
  8
04 side
 62
256
370
-1
  6
ByLayer
 10
-83.3856758342707565
 20
-523.0427613297451899
 30
0.0
 11
-84.7456758342707417
 21
-523.0427613297451899
 31
0.0
  0
LINE
  5
169
100
AcDbEntity
100
AcDbLine
  8
04 side
 62
256
370
-1
  6
ByLayer
 10
-79.025675834270757
 20
-523.0427613297451899
 30
0.0
 11
-80.3856758342707565
 21
-523.0427613297451899
 31
0.0
  0
LINE
  5
16A
100
AcDbEntity
100
AcDbLine
  8
04 side
 62
256
370
-1
  6
ByLayer
 10
-80.3856758342707565
 20
-519.8727613297452308
 30
0.0
 11
-80.3856758342707565
 21
-520.8727613297451171
 31
0.0
  0
LINE
  5
16B
100
AcDbEntity
100
AcDbLine
  8
04 side
 62
256
370
-1
  6
ByLayer
 10
-80.3856758342707565
 20
-520.8727613297451171
 30
0.0
 11
-79.025675834270757
 21
-520.8727613297451171
 31
0.0
  0
LINE
  5
16C
100
AcDbEntity
100
AcDbLine
  8
04 side
 62
256
370
-1
  6
ByLayer
 10
-84.7456758342707417
 20
-520.8727613297451171
 30
0.0
 11
-83.3856758342707565
 21
-520.8727613297451171
 31
0.0
  0
LINE
  5
16D
100
AcDbEntity
100
AcDbLine
  8
04 side
 62
256
370
-1
  6
ByLayer
 10
-83.3856758342707565
 20
-520.8727613297451171
 30
0.0
 11
-83.3856758342707565
 21
-519.8727613297452308
 31
0.0
  0
LINE
  5
16E
100
AcDbEntity
100
AcDbLine
  8
04 side
 62
256
370
-1
  6
ByLayer
 10
-83.3856758342707565
 20
-526.476059457792303
 30
0.0
 11
-83.3856758342707565
 21
-523.0427613297451899
 31
0.0
  0
LINE
  5
16F
100
AcDbEntity
100
AcDbLine
  8
04 side
 62
256
370
-1
  6
ByLayer
 10
-80.3856758342707565
 20
-523.0427613297451899
 30
0.0
 11
-80.3856758342707565
 21
-526.476059457792303
 31
0.0
  0
LINE
  5
170
100
AcDbEntity
100
AcDbLine
  8
04 side
 62
256
370
-1
  6
ByLayer
 10
-91.8856758342707565
 20
-531.476059457792303
 30
0.0
 11
-91.8856758342707565
 21
-526.976059457792303
 31
0.0
  0
ARC
  5
171
100
AcDbEntity
  8
04 side
 62
256
370
-1
  6
ByLayer
100
AcDbCircle
 10
-91.3856758342707565
 20
-531.476059457792303
 30
0.0
 40
0.5
100
AcDbArc
 50
180.0
 51
270.0
  0
LINE
  5
172
100
AcDbEntity
100
AcDbLine
  8
04 side
 62
256
370
-1
  6
ByLayer
 10
-87.3856758342707565
 20
-531.976059457792303
 30
0.0
 11
-91.3856758342707707
 21
-531.976059457792303
 31
0.0
  0
LINE
  5
173
100
AcDbEntity
100
AcDbLine
  8
04 side
 62
256
370
-1
  6
ByLayer
 10
-86.8856758342707565
 20
-526.976059457792303
 30
0.0
 11
-86.8856758342707565
 21
-531.476059457792303
 31
0.0
  0
ARC
  5
174
100
AcDbEntity
  8
04 side
 62
256
370
-1
  6
ByLayer
100
AcDbCircle
 10
-87.3856758342707565
 20
-531.476059457792303
 30
0.0
 40
0.5
100
AcDbArc
 50
270.0
 51
0.0
  0
LINE
  5
175
100
AcDbEntity
100
AcDbLine
  8
04 side
 62
256
370
-1
  6
ByLayer
 10
-83.8856758342707565
 20
-526.976059457792303
 30
0.0
 11
-86.8856758342707565
 21
-526.976059457792303
 31
0.0
  0
ARC
  5
176
100
AcDbEntity
  8
04 side
 62
256
370
-1
  6
ByLayer
100
AcDbCircle
 10
-83.8856758342707565
 20
-526.476059457792303
 30
0.0
 40
0.5
100
AcDbArc
 50
270.0000000000000568
 51
0.0
  0
LINE
  5
177
100
AcDbEntity
100
AcDbLine
  8
04 side
 62
256
370
-1
  6
ByLayer
 10
-79.8856758342707565
 20
-526.976059457792303
 30
0.0
 11
-76.8856758342707565
 21
-526.976059457792303
 31
0.0
  0
ARC
  5
178
100
AcDbEntity
  8
04 side
 62
256
370
-1
  6
ByLayer
100
AcDbCircle
 10
-79.8856758342707565
 20
-526.476059457792303
 30
0.0
 40
0.5
100
AcDbArc
 50
180.0
 51
269.9999999999999432
  0
LINE
  5
179
100
AcDbEntity
100
AcDbLine
  8
04 side
 62
256
370
-1
  6
ByLayer
 10
-76.8856758342707565
 20
-526.976059457792303
 30
0.0
 11
-76.8856758342707565
 21
-531.476059457792303
 31
0.0
  0
ARC
  5
17A
100
AcDbEntity
  8
04 side
 62
256
370
-1
  6
ByLayer
100
AcDbCircle
 10
-76.3856758342707707
 20
-531.476059457792303
 30
0.0
 40
0.5
100
AcDbArc
 50
180.0
 51
270.0
  0
LINE
  5
17B
100
AcDbEntity
100
AcDbLine
  8
04 side
 62
256
370
-1
  6
ByLayer
 10
-76.3856758342707707
 20
-531.976059457792303
 30
0.0
 11
-72.3856758342707707
 21
-531.976059457792303
 31
0.0
  0
LINE
  5
17C
100
AcDbEntity
100
AcDbLine
  8
04 side
 62
256
370
-1
  6
ByLayer
 10
-71.8856758342707707
 20
-531.476059457792303
 30
0.0
 11
-71.8856758342707565
 21
-526.976059457792303
 31
0.0
  0
ARC
  5
17D
100
AcDbEntity
  8
04 side
 62
256
370
-1
  6
ByLayer
100
AcDbCircle
 10
-72.3856758342707565
 20
-531.476059457792303
 30
0.0
 40
0.5
100
AcDbArc
 50
270.0
 51
0.0
  0
LINE
  5
17E
100
AcDbEntity
100
AcDbLine
  8
04 side
 62
256
370
-1
  6
ByLayer
 10
-49.3856784294535629
 20
-519.8727613297453445
 30
0.0
 11
-46.3856784294535558
 21
-519.8727613297454582
 31
0.0
  0
LINE
  5
17F
100
AcDbEntity
100
AcDbLine
  8
04 side
 62
256
370
-1
  6
ByLayer
 10
-50.7456784294535552
 20
-523.0427613297451899
 30
0.0
 11
-50.7456784294535481
 21
-520.8727613297452308
 31
0.0
  0
LINE
  5
180
100
AcDbEntity
100
AcDbLine
  8
04 side
 62
256
370
-1
  6
ByLayer
 10
-45.0256784294535635
 20
-520.8727613297451171
 30
0.0
 11
-45.0256784294535635
 21
-523.0427613297451899
 31
0.0
  0
LINE
  5
181
100
AcDbEntity
100
AcDbLine
  8
04 side
 62
256
370
-1
  6
ByLayer
 10
-49.3856784294535558
 20
-523.0427613297451899
 30
0.0
 11
-50.7456784294535552
 21
-523.0427613297451899
 31
0.0
  0
LINE
  5
182
100
AcDbEntity
100
AcDbLine
  8
04 side
 62
256
370
-1
  6
ByLayer
 10
-45.0256784294535635
 20
-523.0427613297451899
 30
0.0
 11
-46.3856784294535629
 21
-523.0427613297451899
 31
0.0
  0
LINE
  5
183
100
AcDbEntity
100
AcDbLine
  8
04 side
 62
256
370
-1
  6
ByLayer
 10
-46.3856784294535558
 20
-519.8727613297454582
 30
0.0
 11
-46.3856784294535558
 21
-520.8727613297451171
 31
0.0
  0
LINE
  5
184
100
AcDbEntity
100
AcDbLine
  8
04 side
 62
256
370
-1
  6
ByLayer
 10
-46.3856784294535558
 20
-520.8727613297451171
 30
0.0
 11
-45.0256784294535635
 21
-520.8727613297451171
 31
0.0
  0
LINE
  5
185
100
AcDbEntity
100
AcDbLine
  8
04 side
 62
256
370
-1
  6
ByLayer
 10
-50.7456784294535481
 20
-520.8727613297452308
 30
0.0
 11
-49.3856784294535629
 21
-520.8727613297451171
 31
0.0
  0
LINE
  5
186
100
AcDbEntity
100
AcDbLine
  8
04 side
 62
256
370
-1
  6
ByLayer
 10
-49.3856784294535629
 20
-520.8727613297451171
 30
0.0
 11
-49.3856784294535629
 21
-519.8727613297453445
 31
0.0
  0
LINE
  5
187
100
AcDbEntity
100
AcDbLine
  8
04 side
 62
256
370
-1
  6
ByLayer
 10
-49.3856784294535629
 20
-526.476059457792303
 30
0.0
 11
-49.3856784294535558
 21
-523.0427613297451899
 31
0.0
  0
LINE
  5
188
100
AcDbEntity
100
AcDbLine
  8
04 side
 62
256
370
-1
  6
ByLayer
 10
-46.3856784294535629
 20
-523.0427613297451899
 30
0.0
 11
-46.3856784294535629
 21
-526.476059457792303
 31
0.0
  0
LINE
  5
189
100
AcDbEntity
100
AcDbLine
  8
04 side
 62
256
370
-1
  6
ByLayer
 10
-49.8856784294535629
 20
-526.976059457792303
 30
0.0
 11
-52.8856784294535629
 21
-526.976059457792303
 31
0.0
  0
ARC
  5
18A
100
AcDbEntity
  8
04 side
 62
256
370
-1
  6
ByLayer
100
AcDbCircle
 10
-49.8856784294535629
 20
-526.476059457792303
 30
0.0
 40
0.5
100
AcDbArc
 50
270.0000000000000568
 51
0.0
  0
LINE
  5
18B
100
AcDbEntity
100
AcDbLine
  8
04 side
 62
256
370
-1
  6
ByLayer
 10
-45.8856784294535629
 20
-526.976059457792303
 30
0.0
 11
-42.8856784294535629
 21
-526.976059457792303
 31
0.0
  0
ARC
  5
18C
100
AcDbEntity
  8
04 side
 62
256
370
-1
  6
ByLayer
100
AcDbCircle
 10
-45.8856784294535629
 20
-526.476059457792303
 30
0.0
 40
0.5
100
AcDbArc
 50
180.0
 51
269.9999999999999432
  0
LINE
  5
18D
100
AcDbEntity
100
AcDbLine
  8
04 side
 62
256
370
-1
  6
ByLayer
 10
-57.88567842945357
 20
-531.476059457792303
 30
0.0
 11
-57.8856784294535629
 21
-526.976059457792303
 31
0.0
  0
ARC
  5
18E
100
AcDbEntity
  8
04 side
 62
256
370
-1
  6
ByLayer
100
AcDbCircle
 10
-57.38567842945357
 20
-531.476059457792303
 30
0.0
 40
0.5
100
AcDbArc
 50
180.0
 51
270.0
  0
LINE
  5
18F
100
AcDbEntity
100
AcDbLine
  8
04 side
 62
256
370
-1
  6
ByLayer
 10
-53.38567842945357
 20
-531.976059457792303
 30
0.0
 11
-57.3856784294535771
 21
-531.976059457792303
 31
0.0
  0
LINE
  5
190
100
AcDbEntity
100
AcDbLine
  8
04 side
 62
256
370
-1
  6
ByLayer
 10
-52.8856784294535629
 20
-526.976059457792303
 30
0.0
 11
-52.8856784294535771
 21
-531.476059457792303
 31
0.0
  0
ARC
  5
191
100
AcDbEntity
  8
04 side
 62
256
370
-1
  6
ByLayer
100
AcDbCircle
 10
-53.3856784294535629
 20
-531.476059457792303
 30
0.0
 40
0.5
100
AcDbArc
 50
270.0
 51
0.0
  0
LINE
  5
192
100
AcDbEntity
100
AcDbLine
  8
04 side
 62
256
370
-1
  6
ByLayer
 10
-49.8856784294535629
 20
-526.976059457792303
 30
0.0
 11
-52.8856784294535629
 21
-526.976059457792303
 31
0.0
  0
ARC
  5
193
100
AcDbEntity
  8
04 side
 62
256
370
-1
  6
ByLayer
100
AcDbCircle
 10
-49.8856784294535629
 20
-526.476059457792303
 30
0.0
 40
0.5
100
AcDbArc
 50
270.0000000000000568
 51
0.0
  0
LINE
  5
194
100
AcDbEntity
100
AcDbLine
  8
04 side
 62
256
370
-1
  6
ByLayer
 10
-45.88567842945357
 20
-526.976059457792303
 30
0.0
 11
-42.8856784294535629
 21
-526.976059457792303
 31
0.0
  0
ARC
  5
195
100
AcDbEntity
  8
04 side
 62
256
370
-1
  6
ByLayer
100
AcDbCircle
 10
-45.8856784294535629
 20
-526.476059457792303
 30
0.0
 40
0.5
100
AcDbArc
 50
180.0
 51
269.9999999999999432
  0
LINE
  5
196
100
AcDbEntity
100
AcDbLine
  8
04 side
 62
256
370
-1
  6
ByLayer
 10
-42.8856784294535629
 20
-526.976059457792303
 30
0.0
 11
-42.88567842945357
 21
-531.476059457792303
 31
0.0
  0
ARC
  5
197
100
AcDbEntity
  8
04 side
 62
256
370
-1
  6
ByLayer
100
AcDbCircle
 10
-42.3856784294535771
 20
-531.476059457792303
 30
0.0
 40
0.5
100
AcDbArc
 50
180.0
 51
270.0
  0
LINE
  5
198
100
AcDbEntity
100
AcDbLine
  8
04 side
 62
256
370
-1
  6
ByLayer
 10
-42.3856784294535771
 20
-531.976059457792303
 30
0.0
 11
-38.3856784294535771
 21
-531.976059457792303
 31
0.0
  0
LINE
  5
199
100
AcDbEntity
100
AcDbLine
  8
04 side
 62
256
370
-1
  6
ByLayer
 10
-37.88567842945357
 20
-531.476059457792303
 30
0.0
 11
-37.8856784294535629
 21
-526.976059457792303
 31
0.0
  0
ARC
  5
19A
100
AcDbEntity
  8
04 side
 62
256
370
-1
  6
ByLayer
100
AcDbCircle
 10
-38.3856784294535629
 20
-531.476059457792303
 30
0.0
 40
0.5
100
AcDbArc
 50
270.0
 51
0.0
  0
LINE
  5
19B
100
AcDbEntity
100
AcDbLine
  8
04 side
 62
256
370
-1
  6
ByLayer
 10
-100.8856784294535771
 20
-526.976059457792303
 30
0.0
 11
-100.8856784294535771
 21
-531.976059457792303
 31
0.0
  0
LINE
  5
19C
100
AcDbEntity
100
AcDbLine
  8
04 side
 62
256
370
-1
  6
ByLayer
 10
-100.8856784294535771
 20
-526.976059457792303
 30
0.0
 11
-91.8856758342707565
 21
-526.976059457792303
 31
0.0
  0
LINE
  5
19D
100
AcDbEntity
100
AcDbLine
  8
04 side
 62
256
370
-1
  6
ByLayer
 10
-37.8856784294535629
 20
-526.976059457792303
 30
0.0
 11
-28.8856784294535913
 21
-526.976059457792303
 31
0.0
  0
ARC
  5
19E
100
AcDbEntity
  8
04 side
 62
256
370
-1
  6
ByLayer
100
AcDbCircle
 10
-4.485744993330016
 20
-529.4260594577921211
 30
0.0
 40
7.9999999999999982
100
AcDbArc
 50
270.0
 51
0.0
  0
LINE
  5
19F
100
AcDbEntity
100
AcDbLine
  8
04 side
 62
256
370
-1
  6
ByLayer
 10
3.514255006669984
 20
-513.1260594577921665
 30
0.0
 11
3.514255006669984
 21
-529.4260594577921211
 31
0.0
  0
ARC
  5
1A0
100
AcDbEntity
  8
04 side
 62
256
370
-1
  6
ByLayer
100
AcDbCircle
 10
-101.8856784294535771
 20
-536.4260594577922348
 30
0.0
 40
1.0
100
AcDbArc
 50
270.0000000000028422
 51
0.0
  0
LINE
  5
1A1
100
AcDbEntity
100
AcDbLine
  8
04 side
 62
256
370
-1
  6
ByLayer
 10
-100.8856784294535771
 20
-536.4260594577922348
 30
0.0
 11
-100.8856784294535771
 21
-526.976059457792303
 31
0.0
  0
ARC
  5
1A2
100
AcDbEntity
  8
04 side
 62
256
370
-1
  6
ByLayer
100
AcDbCircle
 10
-27.8856784294535629
 20
-536.4260594577922348
 30
0.0
 40
1.0
100
AcDbArc
 50
180.0
 51
270.0
  0
LINE
  5
1A3
100
AcDbEntity
100
AcDbLine
  8
04 side
 62
256
370
-1
  6
ByLayer
 10
-28.8856784294535913
 20
-526.976059457792303
 30
0.0
 11
-28.8856784294535629
 21
-536.4260594577922348
 31
0.0
  0
LINE
  5
1A4
100
AcDbEntity
100
AcDbLine
  8
04 side
 62
256
370
-1
  6
ByLayer
 10
-7.7119299860662522
 20
-525.4016861702331198
 30
0.0
 11
-7.7119299860662522
 21
-525.4016861702331198
 31
0.0
  0
LINE
  5
1A5
100
AcDbEntity
100
AcDbLine
  8
04 side
 62
256
370
-1
  6
ByLayer
 10
-7.7119299860662522
 20
-525.4016861702331198
 30
0.0
 11
-7.7119299860662522
 21
-525.4016861702331198
 31
0.0
  0
CIRCLE
  5
1A6
100
AcDbEntity
100
AcDbCircle
  8
04 side
 62
256
370
-1
  6
ByLayer
 10
-7.3856784294535629
 20
-523.9016861702328924
 30
0.0
 40
1.5
  0
LINE
  5
1A7
100
AcDbEntity
100
AcDbLine
  8
04 side
 62
256
370
-1
  6
ByLayer
 10
-3.8856784294535629
 20
-525.4016861702330061
 30
0.0
 11
-7.3856784294535629
 21
-525.4016861702330061
 31
0.0
  0
LINE
  5
1A8
100
AcDbEntity
100
AcDbLine
  8
04 side
 62
256
370
-1
  6
ByLayer
 10
-7.3856784294535629
 20
-525.4016861702330061
 30
0.0
 11
-10.8856784294535629
 21
-525.4016861702330061
 31
0.0
  0
LINE
  5
1A9
100
AcDbEntity
100
AcDbLine
  8
04 side
 62
256
370
-1
  6
ByLayer
 10
-10.8856784294535629
 20
-528.4260594577922348
 30
0.0
 11
-3.8856784294535629
 21
-528.4260594577923484
 31
0.0
  0
LINE
  5
1AA
100
AcDbEntity
100
AcDbLine
  8
04 side
 62
256
370
-1
  6
ByLayer
 10
-3.8856784294535629
 20
-528.4260594577923484
 30
0.0
 11
-3.8856784294535629
 21
-525.4016861702330061
 31
0.0
  0
LINE
  5
1AB
100
AcDbEntity
100
AcDbLine
  8
04 side
 62
256
370
-1
  6
ByLayer
 10
-10.8856784294535629
 20
-525.4016861702330061
 30
0.0
 11
-10.8856784294535629
 21
-528.4260594577922348
 31
0.0
  0
ARC
  5
1AC
100
AcDbEntity
  8
04 side
 62
256
370
-1
  6
ByLayer
100
AcDbCircle
 10
-120.1856784294535601
 20
-507.5247594577922996
 30
0.0
 40
2.1000000000000001
100
AcDbArc
 50
136.4199999999999875
 51
43.5799999999999983
  0
ARC
  5
1AD
100
AcDbEntity
  8
04 side
 62
256
370
-1
  6
ByLayer
100
AcDbCircle
 10
-123.0598975264644963
 20
-505.6584249208981987
 30
0.0
 40
1.4162489482180753
100
AcDbArc
 50
342.805581044011376
 51
22.0795102960116658
  0
ARC
  5
1AE
100
AcDbEntity
  8
04 side
 62
256
370
-1
  6
ByLayer
100
AcDbCircle
 10
-7.0475784294535657
 20
-507.5260594577923143
 30
0.0
 40
2.1000000000000001
100
AcDbArc
 50
136.4199999999999875
 51
43.5799999999999983
  0
ARC
  5
1AF
100
AcDbEntity
  8
04 side
 62
256
370
-1
  6
ByLayer
100
AcDbCircle
 10
-125.8856784294535629
 20
-518.4260594577922348
 30
0.0
 40
1.0
100
AcDbArc
 50
89.9999999999995879
 51
89.9999999999995879
  0
ARC
  5
1B0
100
AcDbEntity
  8
04 side
 62
256
370
-1
  6
ByLayer
100
AcDbCircle
 10
-3.8856784294535629
 20
-519.4260594577923484
 30
0.0
 40
1.0
100
AcDbArc
 50
90.0000000000003979
 51
90.0000000000003979
  0
LINE
  5
1B1
100
AcDbEntity
100
AcDbLine
  8
04 side
 62
256
370
-1
  6
ByLayer
 10
-6.5024475888079252
 20
-509.5540713824556747
 30
0.0
 11
-4.1107546764609992
 21
-518.4517183044827107
 31
0.0
  0
LINE
  5
1B2
100
AcDbEntity
100
AcDbLine
  8
04 side
 62
256
370
-1
  6
ByLayer
 10
-121.1558196761927491
 20
-509.387237903674361
 30
0.0
 11
-125.4220377690840564
 21
-517.5400361296275378
 31
0.0
  0
CIRCLE
  5
1B3
100
AcDbEntity
100
AcDbCircle
  8
04 side
 62
256
370
-1
  6
ByLayer
 10
-119.9076783045252057
 20
-521.826059457792212
 30
0.0
 40
3.5
  0
CIRCLE
  5
1B4
100
AcDbEntity
100
AcDbCircle
  8
04 side
 62
256
370
-1
  6
ByLayer
 10
-125.4076784294535685
 20
-521.8260594577924394
 30
0.0
 40
1.2
  0
CIRCLE
  5
1B5
100
AcDbEntity
100
AcDbCircle
  8
04 side
 62
256
370
-1
  6
ByLayer
 10
-114.4076784294535685
 20
-521.8260594577923257
 30
0.0
 40
1.2
  0
ARC
  5
1B6
100
AcDbEntity
  8
04 side
 62
256
370
-1
  6
ByLayer
100
AcDbCircle
 10
-116.7672645007363599
 20
-505.6324897585493545
 30
0.0
 40
1.9485476112146971
100
AcDbArc
 50
15.0642131331363078
 51
193.1893402850320172
  0
ARC
  5
1B7
100
AcDbEntity
  8
04 side
 62
256
370
-1
  6
ByLayer
100
AcDbCircle
 10
-4.986188769929413
 20
-512.2446137879476282
 30
0.0
 40
8.546021932338757
100
AcDbArc
 50
354.079924998340573
 51
84.0799249983405304
  0
ARC
  5
1B8
100
AcDbEntity
  8
04 side
 62
256
370
-1
  6
ByLayer
100
AcDbCircle
 10
-3.6291645007363655
 20
-505.6337897585493693
 30
0.0
 40
1.9485476112146896
100
AcDbArc
 50
104.1267767090851919
 51
193.1893402850319887
  0
ARC
  5
1B9
100
AcDbEntity
  8
04 side
 62
256
370
-1
  6
ByLayer
100
AcDbCircle
 10
-11.6935279160706642
 20
-506.0026730699394761
 30
0.0
 40
3.2142903902642264
100
AcDbArc
 50
23.7755314004862406
 51
173.271282817041282
  0
CIRCLE
  5
1BA
100
AcDbEntity
100
AcDbCircle
  8
04 side
 62
256
370
-1
  6
ByLayer
 10
-134.6422490057253185
 20
-520.9244326905330809
 30
0.0
 40
1.5
  0
LINE
  5
1BB
100
AcDbEntity
100
AcDbLine
  8
04 side
 62
256
370
-1
  6
ByLayer
 10
-143.143235740166773
 20
-524.1874659899548305
 30
0.0
 11
-132.0920341616104565
 21
-508.4047144834344749
 31
0.0
  0
LINE
  5
1BC
100
AcDbEntity
100
AcDbLine
  8
04 side
 62
256
370
-1
  6
ByLayer
 10
-142.4258934799582335
 20
-527.6820120425450114
 30
0.0
 11
-139.558011298203013
 21
-523.5862518210999497
 31
0.0
  0
LINE
  5
1BD
100
AcDbEntity
100
AcDbLine
  8
04 side
 62
256
370
-1
  6
ByLayer
 10
-139.558011298203013
 20
-523.5862518210999497
 30
0.0
 11
-135.4623662196574116
 21
-526.4540533789293022
 31
0.0
  0
ARC
  5
1BE
100
AcDbEntity
  8
04 side
 62
256
370
-1
  6
ByLayer
100
AcDbCircle
 10
-141.0372915837674554
 20
-525.5760678861457791
 30
0.0
 40
2.5225415786418957
100
AcDbArc
 50
146.6002355807795823
 51
236.6002355807798381
  0
LINE
  5
1BF
100
AcDbEntity
100
AcDbLine
  8
04 side
 62
256
370
-1
  6
ByLayer
 10
-132.0920341616104565
 20
-508.4047144834344749
 30
0.0
 11
-129.2978571545599493
 21
-504.4142161603306249
 31
0.0
  0
LINE
  5
1C0
100
AcDbEntity
100
AcDbLine
  8
04 side
 62
256
370
-1
  6
ByLayer
 10
-138.3301332585133139
 20
-530.5498942243002602
 30
0.0
 11
-135.4623662196574116
 21
-526.4540533789293022
 31
0.0
  0
ARC
  5
1C1
100
AcDbEntity
  8
04 side
 62
256
370
-1
  6
ByLayer
100
AcDbCircle
 10
-125.8899470232312012
 20
-522.7964872862655739
 30
0.0
 40
14.6585658478334313
100
AcDbArc
 50
211.9334258434626577
 51
266.3957480514882263
  0
ARC
  5
1C2
100
AcDbEntity
  8
04 side
 62
256
370
-1
  6
ByLayer
100
AcDbCircle
 10
-125.7286983268579093
 20
-506.9552160775725156
 30
0.0
 40
4.3812755353648738
100
AcDbArc
 50
24.6748931016713868
 51
144.5517031016722456
  0
LINE
  5
1C3
100
AcDbEntity
100
AcDbLine
  8
04 side
 62
256
370
-1
  6
ByLayer
 10
-71.3666271318621739
 20
-514.4260594577924621
 30
0.0
 11
-58.4047271318621526
 21
-514.4260594577924621
 31
0.0
  0
LINE
  5
1C4
100
AcDbEntity
100
AcDbLine
  8
04 side
 62
256
370
-1
  6
ByLayer
 10
-58.4047271318621526
 20
-509.4260594577924053
 30
0.0
 11
-58.4047271318621455
 21
-514.4260594577924621
 31
0.0
  0
LINE
  5
1C5
100
AcDbEntity
100
AcDbLine
  8
04 side
 62
256
370
-1
  6
ByLayer
 10
-14.8856784294535629
 20
-509.4260594577924053
 30
0.0
 11
-14.8856784294535629
 21
-505.626059457792735
 31
0.0
  0
ARC
  5
1C6
100
AcDbEntity
  8
04 side
 62
256
370
-1
  6
ByLayer
100
AcDbCircle
 10
-71.8666271318621739
 20
-505.4260594577922916
 30
0.0
 40
0.5
100
AcDbArc
 50
0.0
 51
90.0000000000000142
  0
ARC
  5
1C7
100
AcDbEntity
  8
04 side
 62
256
370
-1
  6
ByLayer
100
AcDbCircle
 10
-101.3856784294535203
 20
-505.4260594577922916
 30
0.0
 40
0.5
100
AcDbArc
 50
90.0000000000000142
 51
180.0
  0
LINE
  5
1C8
100
AcDbEntity
100
AcDbLine
  8
04 side
 62
256
370
-1
  6
ByLayer
 10
-101.3856784294535203
 20
-504.9260594577922916
 30
0.0
 11
-71.8666271318621739
 21
-504.9260594577922916
 31
0.0
  0
LINE
  5
1C9
100
AcDbEntity
100
AcDbLine
  8
04 side
 62
256
370
-1
  6
ByLayer
 10
-101.8856784294535203
 20
-509.4260594577924053
 30
0.0
 11
-101.8856784294535203
 21
-505.4260594577922916
 31
0.0
  0
LINE
  5
1CA
100
AcDbEntity
100
AcDbLine
  8
04 side
 62
256
370
-1
  6
ByLayer
 10
-71.3666271318621739
 20
-505.4260594577922916
 30
0.0
 11
-71.3666271318621739
 21
-514.4260594577924621
 31
0.0
  0
ARC
  5
1CB
100
AcDbEntity
  8
04 side
 62
256
370
-1
  6
ByLayer
100
AcDbCircle
 10
-108.385678429453435
 20
-509.9260594577924053
 30
0.0
 40
0.5
100
AcDbArc
 50
90.0000000000000568
 51
180.0
  0
LINE
  5
1CC
100
AcDbEntity
100
AcDbLine
  8
04 side
 62
256
370
-1
  6
ByLayer
 10
-111.885678429453435
 20
-516.0293775701763934
 30
0.0
 11
-108.885678429453435
 21
-516.0293775701762797
 31
0.0
  0
LINE
  5
1CD
100
AcDbEntity
100
AcDbLine
  8
04 side
 62
256
370
-1
  6
ByLayer
 10
-113.2456784294534202
 20
-512.8593775701763207
 30
0.0
 11
-113.2456784294534202
 21
-515.0293775701763934
 31
0.0
  0
LINE
  5
1CE
100
AcDbEntity
100
AcDbLine
  8
04 side
 62
256
370
-1
  6
ByLayer
 10
-107.5256784294534356
 20
-515.0293775701763934
 30
0.0
 11
-107.5256784294534356
 21
-512.8593775701763207
 31
0.0
  0
LINE
  5
1CF
100
AcDbEntity
100
AcDbLine
  8
04 side
 62
256
370
-1
  6
ByLayer
 10
-111.885678429453435
 20
-512.8593775701763207
 30
0.0
 11
-113.2456784294534202
 21
-512.8593775701763207
 31
0.0
  0
LINE
  5
1D0
100
AcDbEntity
100
AcDbLine
  8
04 side
 62
256
370
-1
  6
ByLayer
 10
-107.5256784294534356
 20
-512.8593775701763207
 30
0.0
 11
-108.885678429453435
 21
-512.8593775701763207
 31
0.0
  0
LINE
  5
1D1
100
AcDbEntity
100
AcDbLine
  8
04 side
 62
256
370
-1
  6
ByLayer
 10
-108.885678429453435
 20
-516.0293775701762797
 30
0.0
 11
-108.885678429453435
 21
-515.0293775701762797
 31
0.0
  0
LINE
  5
1D2
100
AcDbEntity
100
AcDbLine
  8
04 side
 62
256
370
-1
  6
ByLayer
 10
-108.885678429453435
 20
-515.0293775701762797
 30
0.0
 11
-107.5256784294534356
 21
-515.0293775701763934
 31
0.0
  0
LINE
  5
1D3
100
AcDbEntity
100
AcDbLine
  8
04 side
 62
256
370
-1
  6
ByLayer
 10
-113.2456784294534202
 20
-515.0293775701763934
 30
0.0
 11
-111.885678429453435
 21
-515.0293775701763934
 31
0.0
  0
LINE
  5
1D4
100
AcDbEntity
100
AcDbLine
  8
04 side
 62
256
370
-1
  6
ByLayer
 10
-111.885678429453435
 20
-515.0293775701763934
 30
0.0
 11
-111.885678429453435
 21
-516.0293775701763934
 31
0.0
  0
LINE
  5
1D5
100
AcDbEntity
100
AcDbLine
  8
04 side
 62
256
370
-1
  6
ByLayer
 10
-108.885678429453435
 20
-512.8593775701763207
 30
0.0
 11
-108.885678429453435
 21
-509.9260594577924053
 31
0.0
  0
ARC
  5
1D6
100
AcDbEntity
  8
04 side
 62
256
370
-1
  6
ByLayer
100
AcDbCircle
 10
-21.3856784294535203
 20
-509.9260594577924053
 30
0.0
 40
0.5
100
AcDbArc
 50
0.0
 51
89.9999999999999574
  0
LINE
  5
1D7
100
AcDbEntity
100
AcDbLine
  8
04 side
 62
256
370
-1
  6
ByLayer
 10
-20.8856784294535203
 20
-516.0293775701762797
 30
0.0
 11
-17.8856784294535132
 21
-516.0293775701763934
 31
0.0
  0
LINE
  5
1D8
100
AcDbEntity
100
AcDbLine
  8
04 side
 62
256
370
-1
  6
ByLayer
 10
-22.2456784294535126
 20
-512.8593775701763207
 30
0.0
 11
-22.2456784294535126
 21
-515.0293775701763934
 31
0.0
  0
LINE
  5
1D9
100
AcDbEntity
100
AcDbLine
  8
04 side
 62
256
370
-1
  6
ByLayer
 10
-16.5256784294535208
 20
-515.0293775701762797
 30
0.0
 11
-16.5256784294535208
 21
-512.8593775701763207
 31
0.0
  0
LINE
  5
1DA
100
AcDbEntity
100
AcDbLine
  8
04 side
 62
256
370
-1
  6
ByLayer
 10
-20.8856784294535203
 20
-512.8593775701763207
 30
0.0
 11
-22.2456784294535126
 21
-512.8593775701763207
 31
0.0
  0
LINE
  5
1DB
100
AcDbEntity
100
AcDbLine
  8
04 side
 62
256
370
-1
  6
ByLayer
 10
-16.5256784294535208
 20
-512.8593775701763207
 30
0.0
 11
-17.8856784294535203
 21
-512.8593775701763207
 31
0.0
  0
LINE
  5
1DC
100
AcDbEntity
100
AcDbLine
  8
04 side
 62
256
370
-1
  6
ByLayer
 10
-17.8856784294535132
 20
-516.0293775701763934
 30
0.0
 11
-17.8856784294535203
 21
-515.0293775701763934
 31
0.0
  0
LINE
  5
1DD
100
AcDbEntity
100
AcDbLine
  8
04 side
 62
256
370
-1
  6
ByLayer
 10
-17.8856784294535203
 20
-515.0293775701763934
 30
0.0
 11
-16.5256784294535208
 21
-515.0293775701762797
 31
0.0
  0
LINE
  5
1DE
100
AcDbEntity
100
AcDbLine
  8
04 side
 62
256
370
-1
  6
ByLayer
 10
-22.2456784294535126
 20
-515.0293775701763934
 30
0.0
 11
-20.8856784294535203
 21
-515.0293775701762797
 31
0.0
  0
LINE
  5
1DF
100
AcDbEntity
100
AcDbLine
  8
04 side
 62
256
370
-1
  6
ByLayer
 10
-20.8856784294535203
 20
-515.0293775701762797
 30
0.0
 11
-20.8856784294535203
 21
-516.0293775701762797
 31
0.0
  0
LINE
  5
1E0
100
AcDbEntity
100
AcDbLine
  8
04 side
 62
256
370
-1
  6
ByLayer
 10
-20.8856784294535203
 20
-509.9260594577924053
 30
0.0
 11
-20.8856784294535203
 21
-512.8593775701763207
 31
0.0
  0
LINE
  5
1E1
100
AcDbEntity
100
AcDbLine
  8
04 side
 62
256
370
-1
  6
ByLayer
 10
-17.8856784294535203
 20
-509.9260594577924053
 30
0.0
 11
-17.8856784294535203
 21
-512.8593775701763207
 31
0.0
  0
ARC
  5
1E2
100
AcDbEntity
  8
04 side
 62
256
370
-1
  6
ByLayer
100
AcDbCircle
 10
-17.3856784294535203
 20
-509.9260594577924621
 30
0.0
 40
0.5
100
AcDbArc
 50
90.0000000000000426
 51
180.0
  0
LINE
  5
1E3
100
AcDbEntity
100
AcDbLine
  8
04 side
 62
256
370
-1
  6
ByLayer
 10
-17.3856784294535203
 20
-509.4260594577922916
 30
0.0
 11
-14.8856784294535629
 21
-509.4260594577922348
 31
0.0
  0
LINE
  5
1E4
100
AcDbEntity
100
AcDbLine
  8
04 side
 62
256
370
-1
  6
ByLayer
 10
-21.3856784294535203
 20
-509.4260594577924053
 30
0.0
 11
-58.4047271318621526
 21
-509.4260594577924053
 31
0.0
  0
LINE
  5
1E5
100
AcDbEntity
100
AcDbLine
  8
04 side
 62
256
370
-1
  6
ByLayer
 10
-108.385678429453435
 20
-509.4260594577924053
 30
0.0
 11
-101.8856784294535203
 21
-509.4260594577924053
 31
0.0
  0
ARC
  5
1E6
100
AcDbEntity
  8
04 side
 62
256
370
-1
  6
ByLayer
100
AcDbCircle
 10
-10.6282788648299373
 20
-505.655423023929302
 30
0.0
 40
2.1024198751094905
100
AcDbArc
 50
348.3939876944201615
 51
26.8205115561966387
  0
ARC
  5
1E7
100
AcDbEntity
  8
04 side
 62
256
370
-1
  6
ByLayer
100
AcDbCircle
 10
-108.385678429453435
 20
-536.92605945779178
 30
0.0
 40
0.5
100
AcDbArc
 50
180.0
 51
269.9999999999999432
  0
LINE
  5
1E8
100
AcDbEntity
100
AcDbLine
  8
04 side
 62
256
370
-1
  6
ByLayer
 10
-111.8856784294534492
 20
-530.8227413454081898
 30
0.0
 11
-108.885678429453435
 21
-530.8227413454081898
 31
0.0
  0
LINE
  5
1E9
100
AcDbEntity
100
AcDbLine
  8
04 side
 62
256
370
-1
  6
ByLayer
 10
-113.2456784294534202
 20
-533.9927413454081488
 30
0.0
 11
-113.2456784294534344
 21
-531.8227413454081898
 31
0.0
  0
LINE
  5
1EA
100
AcDbEntity
100
AcDbLine
  8
04 side
 62
256
370
-1
  6
ByLayer
 10
-107.5256784294534498
 20
-531.8227413454081898
 30
0.0
 11
-107.5256784294534498
 21
-533.9927413454080352
 31
0.0
  0
LINE
  5
1EB
100
AcDbEntity
100
AcDbLine
  8
04 side
 62
256
370
-1
  6
ByLayer
 10
-111.885678429453435
 20
-533.9927413454080352
 30
0.0
 11
-113.2456784294534202
 21
-533.9927413454081488
 31
0.0
  0
LINE
  5
1EC
100
AcDbEntity
100
AcDbLine
  8
04 side
 62
256
370
-1
  6
ByLayer
 10
-107.5256784294534498
 20
-533.9927413454080352
 30
0.0
 11
-108.885678429453435
 21
-533.9927413454081488
 31
0.0
  0
LINE
  5
1ED
100
AcDbEntity
100
AcDbLine
  8
04 side
 62
256
370
-1
  6
ByLayer
 10
-108.885678429453435
 20
-530.8227413454081898
 30
0.0
 11
-108.885678429453435
 21
-531.8227413454081898
 31
0.0
  0
LINE
  5
1EE
100
AcDbEntity
100
AcDbLine
  8
04 side
 62
256
370
-1
  6
ByLayer
 10
-108.885678429453435
 20
-531.8227413454081898
 30
0.0
 11
-107.5256784294534498
 21
-531.8227413454081898
 31
0.0
  0
LINE
  5
1EF
100
AcDbEntity
100
AcDbLine
  8
04 side
 62
256
370
-1
  6
ByLayer
 10
-113.2456784294534344
 20
-531.8227413454081898
 30
0.0
 11
-111.885678429453435
 21
-531.8227413454081898
 31
0.0
  0
LINE
  5
1F0
100
AcDbEntity
100
AcDbLine
  8
04 side
 62
256
370
-1
  6
ByLayer
 10
-111.885678429453435
 20
-531.8227413454081898
 30
0.0
 11
-111.8856784294534492
 21
-530.8227413454081898
 31
0.0
  0
LINE
  5
1F1
100
AcDbEntity
100
AcDbLine
  8
04 side
 62
256
370
-1
  6
ByLayer
 10
-108.885678429453435
 20
-533.9927413454081488
 30
0.0
 11
-108.8856784294534492
 21
-536.9260594577921211
 31
0.0
  0
LINE
  5
1F2
100
AcDbEntity
100
AcDbLine
  8
04 side
 62
256
370
-1
  6
ByLayer
 10
-108.3856784294534776
 20
-537.4260594577918937
 30
0.0
 11
-101.8856784294535203
 21
-537.4260594577922348
 31
0.0
  0
ARC
  5
1F3
100
AcDbEntity
  8
04 side
 62
256
370
-1
  6
ByLayer
100
AcDbCircle
 10
-21.3856784294535416
 20
-536.9260594577918937
 30
0.0
 40
0.5
100
AcDbArc
 50
270.0000000000000568
 51
0.0
  0
LINE
  5
1F4
100
AcDbEntity
100
AcDbLine
  8
04 side
 62
256
370
-1
  6
ByLayer
 10
-20.8856784294535345
 20
-530.8227413454080761
 30
0.0
 11
-17.8856784294535132
 21
-530.8227413454080761
 31
0.0
  0
LINE
  5
1F5
100
AcDbEntity
100
AcDbLine
  8
04 side
 62
256
370
-1
  6
ByLayer
 10
-22.2456784294535197
 20
-533.9927413454082625
 30
0.0
 11
-22.2456784294535126
 21
-531.8227413454081898
 31
0.0
  0
LINE
  5
1F6
100
AcDbEntity
100
AcDbLine
  8
04 side
 62
256
370
-1
  6
ByLayer
 10
-16.525678429453535
 20
-531.8227413454080761
 30
0.0
 11
-16.5256784294535279
 21
-533.9927413454080352
 31
0.0
  0
LINE
  5
1F7
100
AcDbEntity
100
AcDbLine
  8
04 side
 62
256
370
-1
  6
ByLayer
 10
-20.8856784294535345
 20
-533.9927413454080352
 30
0.0
 11
-22.2456784294535197
 21
-533.9927413454082625
 31
0.0
  0
LINE
  5
1F8
100
AcDbEntity
100
AcDbLine
  8
04 side
 62
256
370
-1
  6
ByLayer
 10
-16.5256784294535279
 20
-533.9927413454080352
 30
0.0
 11
-17.8856784294535203
 21
-533.9927413454080352
 31
0.0
  0
LINE
  5
1F9
100
AcDbEntity
100
AcDbLine
  8
04 side
 62
256
370
-1
  6
ByLayer
 10
-17.8856784294535132
 20
-530.8227413454080761
 30
0.0
 11
-17.8856784294535345
 21
-531.8227413454080761
 31
0.0
  0
LINE
  5
1FA
100
AcDbEntity
100
AcDbLine
  8
04 side
 62
256
370
-1
  6
ByLayer
 10
-17.8856784294535345
 20
-531.8227413454080761
 30
0.0
 11
-16.525678429453535
 21
-531.8227413454080761
 31
0.0
  0
LINE
  5
1FB
100
AcDbEntity
100
AcDbLine
  8
04 side
 62
256
370
-1
  6
ByLayer
 10
-22.2456784294535126
 20
-531.8227413454081898
 30
0.0
 11
-20.8856784294535274
 21
-531.8227413454081898
 31
0.0
  0
LINE
  5
1FC
100
AcDbEntity
100
AcDbLine
  8
04 side
 62
256
370
-1
  6
ByLayer
 10
-20.8856784294535274
 20
-531.8227413454081898
 30
0.0
 11
-20.8856784294535345
 21
-530.8227413454080761
 31
0.0
  0
LINE
  5
1FD
100
AcDbEntity
100
AcDbLine
  8
04 side
 62
256
370
-1
  6
ByLayer
 10
-20.8856784294535274
 20
-536.9260594577916663
 30
0.0
 11
-20.8856784294535345
 21
-533.9927413454080352
 31
0.0
  0
LINE
  5
1FE
100
AcDbEntity
100
AcDbLine
  8
04 side
 62
256
370
-1
  6
ByLayer
 10
-17.8856784294535345
 20
-536.9260594577920074
 30
0.0
 11
-17.8856784294535203
 21
-533.9927413454080352
 31
0.0
  0
ARC
  5
1FF
100
AcDbEntity
  8
04 side
 62
256
370
-1
  6
ByLayer
100
AcDbCircle
 10
-17.3856784294535345
 20
-536.9260594577923484
 30
0.0
 40
0.5
100
AcDbArc
 50
180.0
 51
269.9999999999999432
  0
LINE
  5
200
100
AcDbEntity
100
AcDbLine
  8
04 side
 62
256
370
-1
  6
ByLayer
 10
-17.3856784294535345
 20
-537.4260594577922348
 30
0.0
 11
-15.3475784294535487
 21
-537.4260594577921211
 31
0.0
  0
LINE
  5
201
100
AcDbEntity
100
AcDbLine
  8
04 side
 62
256
370
-1
  6
ByLayer
 10
-21.3856784294535203
 20
-537.4260594577920074
 30
0.0
 11
-27.8856784294535629
 21
-537.4260594577923484
 31
0.0
  0
LINE
  5
202
100
AcDbEntity
100
AcDbLine
  8
04 side
 62
256
370
-1
  6
ByLayer
 10
-15.3475784294535487
 20
-537.4260594577921211
 30
0.0
 11
-4.485744993330016
 21
-537.4260594577921211
 31
0.0
  0
ARC
  5
203
100
AcDbEntity
  8
04 side
 62
256
370
-1
  6
ByLayer
100
AcDbCircle
 10
-112.8475784339828749
 20
-505.6260594577922802
 30
0.0
 40
0.5
100
AcDbArc
 50
0.0
 51
89.9999999999999574
  0
LINE
  5
204
100
AcDbEntity
100
AcDbLine
  8
04 side
 62
256
370
-1
  6
ByLayer
 10
-111.8856784208319084
 20
-509.4260594577924053
 30
0.0
 11
-111.885678429453435
 21
-512.8593775701763207
 31
0.0
  0
LINE
  5
205
100
AcDbEntity
100
AcDbLine
  8
04 side
 62
256
370
-1
  6
ByLayer
 10
-112.3475784247256826
 20
-509.4260594577924053
 30
0.0
 11
-112.3475784247256968
 21
-505.6260594577922802
 31
0.0
  0
LINE
  5
206
100
AcDbEntity
100
AcDbLine
  8
04 side
 62
256
370
-1
  6
ByLayer
 10
-111.8856784208319084
 20
-509.4260594577924053
 30
0.0
 11
-112.3475784247256826
 21
-509.4260594577924053
 31
0.0
  0
LINE
  5
207
100
AcDbEntity
100
AcDbLine
  8
04 side
 62
256
370
-1
  6
ByLayer
 10
-114.8856784294535203
 20
-505.1260594577922802
 30
0.0
 11
-112.8475784339828749
 21
-505.1260594577922802
 31
0.0
  0
ARC
  5
208
100
AcDbEntity
  8
04 side
 62
256
370
-1
  6
ByLayer
100
AcDbCircle
 10
-112.385678429453435
 20
-536.9260594577918937
 30
0.0
 40
0.5
100
AcDbArc
 50
269.9999999999999432
 51
360.0
  0
LINE
  5
209
100
AcDbEntity
100
AcDbLine
  8
04 side
 62
256
370
-1
  6
ByLayer
 10
-111.8856784213746494
 20
-536.926059456414805
 30
0.0
 11
-111.885678429453435
 21
-533.9927413454080352
 31
0.0
  0
LINE
  5
20A
100
AcDbEntity
100
AcDbLine
  8
04 side
 62
256
370
-1
  6
ByLayer
 10
-126.811451658790304
 20
-537.4260594577922348
 30
0.0
 11
-112.385678429453435
 21
-537.4260594577922348
 31
0.0
  0
ARC
  5
20B
100
AcDbEntity
  8
08 brush retainer
 62
256
370
-1
  6
ByLayer
100
AcDbCircle
 10
34.4809493512050125
 20
-462.9809499999999503
 30
0.0
 40
2.0
100
AcDbArc
 50
0.0
 51
90.0
  0
ARC
  5
20C
100
AcDbEntity
  8
08 brush retainer
 62
256
370
-1
  6
ByLayer
100
AcDbCircle
 10
25.5190493512049947
 20
-462.9809499999999503
 30
0.0
 40
2.0
100
AcDbArc
 50
90.0
 51
180.0
  0
LINE
  5
20D
100
AcDbEntity
100
AcDbLine
  8
08 brush retainer
 62
256
370
-1
  6
ByLayer
 10
25.5190493512049947
 20
-460.9809499999999503
 30
0.0
 11
34.4809493512050125
 21
-460.9809499999999503
 31
0.0
  0
LINE
  5
20E
100
AcDbEntity
100
AcDbLine
  8
08 brush retainer
 62
256
370
-1
  6
ByLayer
 10
29.9999993512035985
 20
-463.9609500000000821
 30
0.0
 11
29.999999351203595
 21
-460.9809499999999503
 31
0.0
  0
CIRCLE
  5
20F
100
AcDbEntity
100
AcDbCircle
  8
08 brush retainer
 62
256
370
-1
  6
ByLayer
 10
29.999999351203595
 20
-465.4809500000000639
 30
0.0
 40
1.5600000000000001
  0
LINE
  5
210
100
AcDbEntity
100
AcDbLine
  8
08 brush retainer
 62
256
370
-1
  6
ByLayer
 10
23.5190506487949804
 20
-479.0190500000000497
 30
0.0
 11
36.4809506487950017
 21
-479.0190500000000497
 31
0.0
  0
LINE
  5
211
100
AcDbEntity
100
AcDbLine
  8
08 brush retainer
 62
256
370
-1
  6
ByLayer
 10
36.480949457818511
 20
-462.9809498240555286
 30
0.0
 11
36.4809506487950017
 21
-479.0190500000000497
 31
0.0
  0
LINE
  5
212
100
AcDbEntity
100
AcDbLine
  8
08 brush retainer
 62
256
370
-1
  6
ByLayer
 10
23.5190506487949804
 20
-479.0190500000000497
 30
0.0
 11
23.5190496043561907
 21
-462.980950417775432
 31
0.0
  0
INSERT
  5
213
100
AcDbEntity
100
AcDbBlockReference
  8
10 artwork
 62
256
370
-1
  6
ByLayer
  2
MakerBot
 10
82.65625
 20
-389.538099999999929
 30
0.0
 50
270.0
 44
1.0
 45
1.0
  0
LINE
  5
214
100
AcDbEntity
100
AcDbLine
  8
06 scraper
 62
256
370
-1
  6
ByLayer
 10
68.5000000000000568
 20
-436.3586018719527146
 30
0.0
 11
71.5000000000000142
 21
-436.3586018719527146
 31
0.0
  0
LINE
  5
215
100
AcDbEntity
100
AcDbLine
  8
06 scraper
 62
256
370
-1
  6
ByLayer
 10
67.140000000000029
 20
-439.5286018719526737
 30
0.0
 11
67.1399999999999295
 21
-437.3586018719527146
 31
0.0
  0
LINE
  5
216
100
AcDbEntity
100
AcDbLine
  8
06 scraper
 62
256
370
-1
  6
ByLayer
 10
72.8599999999999142
 20
-437.3586018719527146
 30
0.0
 11
72.8599999999999852
 21
-439.5286018719527874
 31
0.0
  0
LINE
  5
217
100
AcDbEntity
100
AcDbLine
  8
06 scraper
 62
256
370
-1
  6
ByLayer
 10
68.4999999999999858
 20
-439.5286018719527306
 30
0.0
 11
67.140000000000029
 21
-439.5286018719526737
 31
0.0
  0
LINE
  5
218
100
AcDbEntity
100
AcDbLine
  8
06 scraper
 62
256
370
-1
  6
ByLayer
 10
72.8599999999999852
 20
-439.5286018719527874
 30
0.0
 11
71.4999999999999858
 21
-439.5286018719527306
 31
0.0
  0
LINE
  5
219
100
AcDbEntity
100
AcDbLine
  8
06 scraper
 62
256
370
-1
  6
ByLayer
 10
71.5000000000000142
 20
-436.3586018719527146
 30
0.0
 11
71.4999999999999574
 21
-437.3586018719527146
 31
0.0
  0
LINE
  5
21A
100
AcDbEntity
100
AcDbLine
  8
06 scraper
 62
256
370
-1
  6
ByLayer
 10
71.4999999999999574
 20
-437.3586018719527146
 30
0.0
 11
72.8599999999999142
 21
-437.3586018719527146
 31
0.0
  0
LINE
  5
21B
100
AcDbEntity
100
AcDbLine
  8
06 scraper
 62
256
370
-1
  6
ByLayer
 10
67.1399999999999295
 20
-437.3586018719527146
 30
0.0
 11
68.4999999999999432
 21
-437.3586018719527146
 31
0.0
  0
LINE
  5
21C
100
AcDbEntity
100
AcDbLine
  8
06 scraper
 62
256
370
-1
  6
ByLayer
 10
68.4999999999999432
 20
-437.3586018719527146
 30
0.0
 11
68.5000000000000568
 21
-436.3586018719527146
 31
0.0
  0
LINE
  5
21D
100
AcDbEntity
100
AcDbLine
  8
06 scraper
 62
256
370
-1
  6
ByLayer
 10
68.5000000000000142
 20
-363.641398128047058
 30
0.0
 11
71.5000000000000142
 21
-363.641398128047058
 31
0.0
  0
LINE
  5
21E
100
AcDbEntity
100
AcDbLine
  8
06 scraper
 62
256
370
-1
  6
ByLayer
 10
67.140000000000029
 20
-360.4713981280470421
 30
0.0
 11
67.1400000000000574
 21
-362.641398128047058
 31
0.0
  0
LINE
  5
21F
100
AcDbEntity
100
AcDbLine
  8
06 scraper
 62
256
370
-1
  6
ByLayer
 10
72.8600000000000136
 20
-362.641398128047058
 30
0.0
 11
72.8599999999999994
 21
-360.4713981280470421
 31
0.0
  0
LINE
  5
220
100
AcDbEntity
100
AcDbLine
  8
06 scraper
 62
256
370
-1
  6
ByLayer
 10
68.5000000000000142
 20
-360.4713981280470421
 30
0.0
 11
67.140000000000029
 21
-360.4713981280470421
 31
0.0
  0
LINE
  5
221
100
AcDbEntity
100
AcDbLine
  8
06 scraper
 62
256
370
-1
  6
ByLayer
 10
72.8599999999999994
 20
-360.4713981280470421
 30
0.0
 11
71.4999999999999858
 21
-360.4713981280470421
 31
0.0
  0
LINE
  5
222
100
AcDbEntity
100
AcDbLine
  8
06 scraper
 62
256
370
-1
  6
ByLayer
 10
71.5000000000000142
 20
-363.641398128047058
 30
0.0
 11
71.5000000000000426
 21
-362.641398128047058
 31
0.0
  0
LINE
  5
223
100
AcDbEntity
100
AcDbLine
  8
06 scraper
 62
256
370
-1
  6
ByLayer
 10
71.5000000000000426
 20
-362.641398128047058
 30
0.0
 11
72.8600000000000136
 21
-362.641398128047058
 31
0.0
  0
LINE
  5
224
100
AcDbEntity
100
AcDbLine
  8
06 scraper
 62
256
370
-1
  6
ByLayer
 10
67.1400000000000574
 20
-362.641398128047058
 30
0.0
 11
68.5000000000000142
 21
-362.641398128047058
 31
0.0
  0
LINE
  5
225
100
AcDbEntity
100
AcDbLine
  8
06 scraper
 62
256
370
-1
  6
ByLayer
 10
68.5000000000000142
 20
-362.641398128047058
 30
0.0
 11
68.5000000000000142
 21
-363.641398128047058
 31
0.0
  0
MTEXT
  5
226
100
AcDbEntity
100
AcDbMText
  8
10 artwork
 62
256
370
-1
  6
ByLayer
 10
65.0000000000000142
 20
-400.0
 30
0.0
 40
3.0
 41
100.0
 71
5
 72
0
  1
Automated\~Build\~Platform\~v1.0
  7
standard
 50
270.0
 73
1
 44
1.0
  0
ARC
  5
227
100
AcDbEntity
  8
06 scraper
 62
256
370
-1
  6
ByLayer
100
AcDbCircle
 10
68.0000000000000142
 20
-357.5380999999999858
 30
0.0
 40
0.5
100
AcDbArc
 50
0.0
 51
89.9999999999999432
  0
ARC
  5
228
100
AcDbEntity
  8
06 scraper
 62
256
370
-1
  6
ByLayer
100
AcDbCircle
 10
72.0000000000000142
 20
-357.5380999999999858
 30
0.0
 40
0.5
100
AcDbArc
 50
90.0000000000000568
 51
180.0
  0
LINE
  5
229
100
AcDbEntity
100
AcDbLine
  8
06 scraper
 62
256
370
-1
  6
ByLayer
 10
68.0000000000000142
 20
-357.0380999999999858
 30
0.0
 11
65.0000000000000142
 21
-357.0380999999999858
 31
0.0
  0
ARC
  5
22A
100
AcDbEntity
  8
06 scraper
 62
256
370
-1
  6
ByLayer
100
AcDbCircle
 10
68.0000000000000142
 20
-357.5380999999999858
 30
0.0
 40
0.5
100
AcDbArc
 50
0.0
 51
89.9999999999999432
  0
ARC
  5
22B
100
AcDbEntity
  8
06 scraper
 62
256
370
-1
  6
ByLayer
100
AcDbCircle
 10
72.0000000000000142
 20
-357.5380999999999858
 30
0.0
 40
0.5
100
AcDbArc
 50
90.0000000000000568
 51
180.0
  0
LINE
  5
22C
100
AcDbEntity
100
AcDbLine
  8
06 scraper
 62
256
370
-1
  6
ByLayer
 10
72.0000000000000142
 20
-357.0380999999999858
 30
0.0
 11
82.6875000000000568
 21
-357.0380999999999858
 31
0.0
  0
LINE
  5
22D
100
AcDbEntity
100
AcDbLine
  8
06 scraper
 62
256
370
-1
  6
ByLayer
 10
68.5000000000000142
 20
-357.5380999999999858
 30
0.0
 11
68.5000000000000142
 21
-360.4713981280470421
 31
0.0
  0
LINE
  5
22E
100
AcDbEntity
100
AcDbLine
  8
06 scraper
 62
256
370
-1
  6
ByLayer
 10
71.4999999999999858
 20
-360.4713981280470421
 30
0.0
 11
71.5000000000000711
 21
-357.5380999999999858
 31
0.0
  0
LINE
  5
22F
100
AcDbEntity
100
AcDbLine
  8
06 scraper
 62
256
370
-1
  6
ByLayer
 10
67.9999999999998153
 20
-442.9999999999998863
 30
0.0
 11
65.0000000000000142
 21
-442.9999999999998863
 31
0.0
  0
ARC
  5
230
100
AcDbEntity
  8
06 scraper
 62
256
370
-1
  6
ByLayer
100
AcDbCircle
 10
67.9999999999999716
 20
-442.4999999999998863
 30
0.0
 40
0.5
100
AcDbArc
 50
270.0000000000000568
 51
0.0
  0
ARC
  5
231
100
AcDbEntity
  8
06 scraper
 62
256
370
-1
  6
ByLayer
100
AcDbCircle
 10
72.0000000000000142
 20
-442.4999999999999432
 30
0.0
 40
0.5
100
AcDbArc
 50
180.0
 51
269.9999999999999432
  0
LINE
  5
232
100
AcDbEntity
100
AcDbLine
  8
06 scraper
 62
256
370
-1
  6
ByLayer
 10
67.9999999999998153
 20
-442.9999999999998863
 30
0.0
 11
65.0000000000000142
 21
-442.9999999999998863
 31
0.0
  0
ARC
  5
233
100
AcDbEntity
  8
06 scraper
 62
256
370
-1
  6
ByLayer
100
AcDbCircle
 10
67.9999999999999716
 20
-442.4999999999998863
 30
0.0
 40
0.5
100
AcDbArc
 50
270.0000000000000568
 51
0.0
  0
ARC
  5
234
100
AcDbEntity
  8
06 scraper
 62
256
370
-1
  6
ByLayer
100
AcDbCircle
 10
72.0000000000000142
 20
-442.4999999999999432
 30
0.0
 40
0.5
100
AcDbArc
 50
180.0
 51
269.9999999999999432
  0
LINE
  5
235
100
AcDbEntity
100
AcDbLine
  8
06 scraper
 62
256
370
-1
  6
ByLayer
 10
71.9999999999999716
 20
-442.9999999999998863
 30
0.0
 11
82.6875
 21
-442.9999999999999432
 31
0.0
  0
LINE
  5
236
100
AcDbEntity
100
AcDbLine
  8
06 scraper
 62
256
370
-1
  6
ByLayer
 10
82.6875000000000568
 20
-357.0380999999999858
 30
0.0
 11
82.6875
 21
-442.9999999999999432
 31
0.0
  0
LINE
  5
237
100
AcDbEntity
100
AcDbLine
  8
06 scraper
 62
256
370
-1
  6
ByLayer
 10
71.4999999999999858
 20
-439.5286018719527306
 30
0.0
 11
71.4999999999999858
 21
-442.4999999999999432
 31
0.0
  0
LINE
  5
238
100
AcDbEntity
100
AcDbLine
  8
06 scraper
 62
256
370
-1
  6
ByLayer
 10
68.4999999999999858
 20
-442.4999999999998863
 30
0.0
 11
68.4999999999999858
 21
-439.5286018719527306
 31
0.0
  0
LINE
  5
239
100
AcDbEntity
100
AcDbLine
  8
06 scraper
 62
256
370
-1
  6
ByLayer
 10
59.9999999999999858
 20
-447.9999999999999432
 30
0.0
 11
64.9999999999998863
 21
-447.9999999999999432
 31
0.0
  0
LINE
  5
23A
100
AcDbEntity
100
AcDbLine
  8
06 scraper
 62
256
370
-1
  6
ByLayer
 10
64.9999999999998863
 20
-447.9999999999999432
 30
0.0
 11
65.0000000000000142
 21
-442.9999999999998863
 31
0.0
  0
LINE
  5
23B
100
AcDbEntity
100
AcDbLine
  8
06 scraper
 62
256
370
-1
  6
ByLayer
 10
60.0000000000000142
 20
-352.0000000000000568
 30
0.0
 11
65.0000000000000142
 21
-352.0000000000000568
 31
0.0
  0
LINE
  5
23C
100
AcDbEntity
100
AcDbLine
  8
06 scraper
 62
256
370
-1
  6
ByLayer
 10
59.9999999999999858
 20
-447.9999999999999432
 30
0.0
 11
60.0000000000000142
 21
-352.0000000000000568
 31
0.0
  0
LINE
  5
23D
100
AcDbEntity
100
AcDbLine
  8
10 artwork
 62
256
370
-1
  6
ByLayer
 10
62.5000000000000426
 20
-352.0000000000000568
 30
0.0
 11
62.4999999999997016
 21
-447.9999999999999432
 31
0.0
  0
LINE
  5
23E
100
AcDbEntity
100
AcDbLine
  8
06 scraper
 62
256
370
-1
  6
ByLayer
 10
65.0000000000000142
 20
-352.0000000000000568
 30
0.0
 11
65.0000000000000142
 21
-357.0380999999999858
 31
0.0
  0
SPLINE
  5
23F
  8
10 artwork
 62
256
370
-1
  6
ByLayer
100
AcDbEntity
100
AcDbSpline
 70
8
 71
3
 72
8
 73
4
 74
0
 40
0.0
 40
0.0
 40
0.0
 40
0.0
 40
1.0
 40
1.0
 40
1.0
 40
1.0
 10
69.0569488897042447
 20
-367.4527249846446466
 30
0.0
 10
69.3147922293540972
 20
-367.0091533674490734
 30
0.0
 10
69.6867473540855542
 20
-366.9666895127489852
 30
0.0
 10
73.3143017816806122
 20
-366.9666895127492126
 30
0.0
  0
SPLINE
  5
240
  8
10 artwork
 62
256
370
-1
  6
ByLayer
100
AcDbEntity
100
AcDbSpline
 70
8
 71
3
 72
8
 73
4
 74
0
 40
0.0
 40
0.0
 40
0.0
 40
0.0
 40
1.0
 40
1.0
 40
1.0
 40
1.0
 10
73.3143017816806122
 20
-366.9666895127492126
 30
0.0
 10
77.3065772664431705
 20
-366.9666895127492126
 30
0.0
 10
77.6361676586497538
 20
-367.009784716361537
 30
0.0
 10
78.2960907496046872
 20
-367.6180803318479207
 30
0.0
  0
SPLINE
  5
241
  8
10 artwork
 62
256
370
-1
  6
ByLayer
100
AcDbEntity
100
AcDbSpline
 70
8
 71
3
 72
8
 73
4
 74
0
 40
0.0
 40
0.0
 40
0.0
 40
0.0
 40
1.0
 40
1.0
 40
1.0
 40
1.0
 10
78.2960907496046872
 20
-367.6180803318479207
 30
0.0
 10
78.9860090165650206
 20
-368.2540254790502559
 30
0.0
 10
79.0638221227563918
 20
-368.6378741521228335
 30
0.0
 10
79.0638221227562354
 20
-371.4052957610959993
 30
0.0
  0
SPLINE
  5
242
  8
10 artwork
 62
256
370
-1
  6
ByLayer
100
AcDbEntity
100
AcDbSpline
 70
8
 71
3
 72
8
 73
4
 74
0
 40
0.0
 40
0.0
 40
0.0
 40
0.0
 40
1.0
 40
1.0
 40
1.0
 40
1.0
 10
79.0638221227562354
 20
-371.4052957610959993
 30
0.0
 10
79.0638221227563776
 20
-374.0744344305137474
 30
0.0
 10
78.9851749850491558
 20
-374.4942237592431411
 30
0.0
 10
78.3663912845559025
 20
-375.1279168364236511
 30
0.0
  0
SPLINE
  5
243
  8
10 artwork
 62
256
370
-1
  6
ByLayer
100
AcDbEntity
100
AcDbSpline
 70
8
 71
3
 72
8
 73
4
 74
0
 40
0.0
 40
0.0
 40
0.0
 40
0.0
 40
1.0
 40
1.0
 40
1.0
 40
1.0
 10
78.3663912845559025
 20
-375.1279168364236511
 30
0.0
 10
77.7097018687857002
 20
-375.8004273307373637
 30
0.0
 10
77.4393058925264341
 20
-375.8391907484909211
 30
0.0
 10
73.4048761248503041
 20
-375.8391907484907506
 30
0.0
  0
SPLINE
  5
244
  8
10 artwork
 62
256
370
-1
  6
ByLayer
100
AcDbEntity
100
AcDbSpline
 70
8
 71
3
 72
8
 73
4
 74
0
 40
0.0
 40
0.0
 40
0.0
 40
0.0
 40
1.0
 40
1.0
 40
1.0
 40
1.0
 10
73.4048761248503041
 20
-375.8391907484907506
 30
0.0
 10
69.6494367415622406
 20
-375.8391907484909211
 30
0.0
 10
69.3007338976534299
 20
-375.7986431320535416
 30
0.0
 10
69.0515171438764384
 20
-375.3329780015142205
 30
0.0
  0
SPLINE
  5
245
  8
10 artwork
 62
256
370
-1
  6
ByLayer
100
AcDbEntity
100
AcDbSpline
 70
8
 71
3
 72
8
 73
4
 74
0
 40
0.0
 40
0.0
 40
0.0
 40
0.0
 40
1.0
 40
1.0
 40
1.0
 40
1.0
 10
69.0515171438764384
 20
-375.3329780015142205
 30
0.0
 10
68.81730186161343
 20
-374.8953422476427022
 30
0.0
 10
69.0291196066269919
 20
-374.0681246399780093
 30
0.0
 10
69.4131299079816273
 20
-373.9207658805757433
 30
0.0
  0
SPLINE
  5
246
  8
10 artwork
 62
256
370
-1
  6
ByLayer
100
AcDbEntity
100
AcDbSpline
 70
8
 71
3
 72
8
 73
4
 74
0
 40
0.0
 40
0.0
 40
0.0
 40
0.0
 40
1.0
 40
1.0
 40
1.0
 40
1.0
 10
69.4131299079816273
 20
-373.9207658805757433
 30
0.0
 10
69.5060646897900654
 20
-373.885103728568879
 30
0.0
 10
71.2457678845842537
 20
-373.8559255705762325
 30
0.0
 10
73.2791381992895197
 20
-373.8559255705764031
 30
0.0
  0
LINE
  5
247
100
AcDbEntity
100
AcDbLine
  8
10 artwork
 62
256
370
-1
  6
ByLayer
 10
73.2791381992895197
 20
-373.8559255705764031
 30
0.0
 11
76.9761746643879974
 21
-373.8559255705765167
 31
0.0
  0
LINE
  5
248
100
AcDbEntity
100
AcDbLine
  8
10 artwork
 62
256
370
-1
  6
ByLayer
 10
76.9761746643879974
 20
-373.8559255705765167
 30
0.0
 11
76.9761746643880542
 21
-373.1290099614668634
 31
0.0
  0
LINE
  5
249
100
AcDbEntity
100
AcDbLine
  8
10 artwork
 62
256
370
-1
  6
ByLayer
 10
76.9761746643880542
 20
-373.1290099614668634
 30
0.0
 11
76.9761746643881963
 21
-372.4020950920748874
 31
0.0
  0
LINE
  5
24A
100
AcDbEntity
100
AcDbLine
  8
10 artwork
 62
256
370
-1
  6
ByLayer
 10
76.9761746643881963
 20
-372.4020950920748874
 30
0.0
 11
73.2092740976816287
 21
-372.3722375035304708
 31
0.0
  0
LINE
  5
24B
100
AcDbEntity
100
AcDbLine
  8
10 artwork
 62
256
370
-1
  6
ByLayer
 10
73.2092740976816287
 20
-372.3722375035304708
 30
0.0
 11
69.4423735309758001
 21
-372.3423810245622008
 31
0.0
  0
LINE
  5
24C
100
AcDbEntity
100
AcDbLine
  8
10 artwork
 62
256
370
-1
  6
ByLayer
 10
69.4423735309758001
 20
-372.3423810245622008
 30
0.0
 11
69.190553341342067
 21
-372.0495091009958628
 31
0.0
  0
SPLINE
  5
24D
  8
10 artwork
 62
256
370
-1
  6
ByLayer
100
AcDbEntity
100
AcDbSpline
 70
8
 71
3
 72
8
 73
4
 74
0
 40
0.0
 40
0.0
 40
0.0
 40
0.0
 40
1.0
 40
1.0
 40
1.0
 40
1.0
 10
69.190553341342067
 20
-372.0495091009958628
 30
0.0
 10
68.8575994535258218
 20
-371.6622769599385379
 30
0.0
 10
68.8575994535256228
 20
-371.1436029314425014
 30
0.0
 10
69.1905533413411149
 20
-370.7563704205263662
 30
0.0
  0
LINE
  5
24E
100
AcDbEntity
100
AcDbLine
  8
10 artwork
 62
256
370
-1
  6
ByLayer
 10
69.1905533413411149
 20
-370.7563704205263662
 30
0.0
 11
69.4423735309763259
 21
-370.4634984969601987
 31
0.0
  0
LINE
  5
24F
100
AcDbEntity
100
AcDbLine
  8
10 artwork
 62
256
370
-1
  6
ByLayer
 10
69.4423735309763259
 20
-370.4634984969601987
 30
0.0
 11
73.2092740976814014
 21
-370.4336420179921561
 31
0.0
  0
LINE
  5
250
100
AcDbEntity
100
AcDbLine
  8
10 artwork
 62
256
370
-1
  6
ByLayer
 10
73.2092740976814014
 20
-370.4336420179921561
 30
0.0
 11
76.9761746643881821
 21
-370.403784429447569
 31
0.0
  0
LINE
  5
251
100
AcDbEntity
100
AcDbLine
  8
10 artwork
 62
256
370
-1
  6
ByLayer
 10
76.9761746643881821
 20
-370.403784429447569
 30
0.0
 11
76.9761746643881253
 21
-369.6768699299142327
 31
0.0
  0
LINE
  5
252
100
AcDbEntity
100
AcDbLine
  8
10 artwork
 62
256
370
-1
  6
ByLayer
 10
76.9761746643881253
 20
-369.6768699299142327
 30
0.0
 11
76.9761746643880116
 21
-368.9499543208049772
 31
0.0
  0
LINE
  5
253
100
AcDbEntity
100
AcDbLine
  8
10 artwork
 62
256
370
-1
  6
ByLayer
 10
76.9761746643880116
 20
-368.9499543208049772
 30
0.0
 11
73.279138199289747
 21
-368.9499543208049772
 31
0.0
  0
SPLINE
  5
254
  8
10 artwork
 62
256
370
-1
  6
ByLayer
100
AcDbEntity
100
AcDbSpline
 70
8
 71
3
 72
8
 73
4
 74
0
 40
0.0
 40
0.0
 40
0.0
 40
0.0
 40
1.0
 40
1.0
 40
1.0
 40
1.0
 10
73.279138199289747
 20
-368.9499543208049772
 30
0.0
 10
71.2457678845845237
 20
-368.9499543208048635
 30
0.0
 10
69.5060646897891701
 20
-368.9207765326707431
 30
0.0
 10
69.4131299079831052
 20
-368.8851140108054665
 30
0.0
  0
SPLINE
  5
255
  8
10 artwork
 62
256
370
-1
  6
ByLayer
100
AcDbEntity
100
AcDbSpline
 70
8
 71
3
 72
8
 73
4
 74
0
 40
0.0
 40
0.0
 40
0.0
 40
0.0
 40
1.0
 40
1.0
 40
1.0
 40
1.0
 10
69.4131299079831052
 20
-368.8851140108054665
 30
0.0
 10
69.0279715650229946
 20
-368.7373151194723278
 30
0.0
 10
68.8129290214305342
 20
-367.872517642103162
 30
0.0
 10
69.0569488897042447
 20
-367.4527249846446466
 30
0.0
  0
LINE
  5
256
100
AcDbEntity
100
AcDbLine
  8
10 artwork
 62
256
370
-1
  6
ByLayer
 10
69.0569488897042447
 20
-367.4527249846446466
 30
0.0
 11
69.0569488897042447
 21
-367.4527249846446466
 31
0.0
  0
LINE
  5
257
100
AcDbEntity
100
AcDbLine
  8
10 artwork
 62
256
370
-1
  6
ByLayer
 10
69.2438507291348202
 20
-376.8749850288102721
 30
0.0
 11
69.5489679367037326
 21
-376.569867081525615
 31
0.0
  0
LINE
  5
258
100
AcDbEntity
100
AcDbLine
  8
10 artwork
 62
256
370
-1
  6
ByLayer
 10
69.5489679367037326
 20
-376.569867081525615
 30
0.0
 11
71.2996907035502687
 21
-376.5698670815256719
 31
0.0
  0
LINE
  5
259
100
AcDbEntity
100
AcDbLine
  8
10 artwork
 62
256
370
-1
  6
ByLayer
 10
71.2996907035502687
 20
-376.5698670815256719
 30
0.0
 11
73.0504127306789997
 21
-376.5698670815257856
 31
0.0
  0
LINE
  5
25A
100
AcDbEntity
100
AcDbLine
  8
10 artwork
 62
256
370
-1
  6
ByLayer
 10
73.0504127306789997
 20
-376.5698670815257856
 30
0.0
 11
73.3431759157682137
 21
-376.8503520651841541
 31
0.0
  0
LINE
  5
25B
100
AcDbEntity
100
AcDbLine
  8
10 artwork
 62
256
370
-1
  6
ByLayer
 10
73.3431759157682137
 20
-376.8503520651841541
 30
0.0
 11
73.635939100857172
 21
-377.1308366789837123
 31
0.0
  0
LINE
  5
25C
100
AcDbEntity
100
AcDbLine
  8
10 artwork
 62
256
370
-1
  6
ByLayer
 10
73.635939100857172
 20
-377.1308366789837123
 30
0.0
 11
73.6359391008575983
 21
-378.9427444416521098
 31
0.0
  0
SPLINE
  5
25D
  8
10 artwork
 62
256
370
-1
  6
ByLayer
100
AcDbEntity
100
AcDbSpline
 70
8
 71
3
 72
8
 73
4
 74
0
 40
0.0
 40
0.0
 40
0.0
 40
0.0
 40
1.0
 40
1.0
 40
1.0
 40
1.0
 10
73.6359391008575983
 20
-378.9427444416521098
 30
0.0
 10
73.6359391008574988
 20
-380.7273207511428836
 30
0.0
 10
73.6320748164779957
 20
-380.7585153791236507
 30
0.0
 10
73.3797275781054026
 20
-381.010861877778666
 30
0.0
  0
SPLINE
  5
25E
  8
10 artwork
 62
256
370
-1
  6
ByLayer
100
AcDbEntity
100
AcDbSpline
 70
8
 71
3
 72
8
 73
4
 74
0
 40
0.0
 40
0.0
 40
0.0
 40
0.0
 40
1.0
 40
1.0
 40
1.0
 40
1.0
 10
73.3797275781054026
 20
-381.010861877778666
 30
0.0
 10
73.0297742417176323
 20
-381.3608159538840141
 30
0.0
 10
72.4020447672684924
 20
-381.3628527661041971
 30
0.0
 10
71.9977373565949108
 20
-381.0153460454490073
 30
0.0
  0
SPLINE
  5
25F
  8
10 artwork
 62
256
370
-1
  6
ByLayer
100
AcDbEntity
100
AcDbSpline
 70
8
 71
3
 72
8
 73
4
 74
0
 40
0.0
 40
0.0
 40
0.0
 40
0.0
 40
1.0
 40
1.0
 40
1.0
 40
1.0
 10
71.9977373565949108
 20
-381.0153460454490073
 30
0.0
 10
71.7163809856853902
 20
-380.7735172205023559
 30
0.0
 10
71.703465887460581
 20
-380.7201610251647139
 30
0.0
 10
71.6692691158820026
 20
-379.6583752899744013
 30
0.0
  0
LINE
  5
260
100
AcDbEntity
100
AcDbLine
  8
10 artwork
 62
256
370
-1
  6
ByLayer
 10
71.6692691158820026
 20
-379.6583752899744013
 30
0.0
 11
71.6336713193005465
 21
-378.5531318895816639
 31
0.0
  0
LINE
  5
261
100
AcDbEntity
100
AcDbLine
  8
10 artwork
 62
256
370
-1
  6
ByLayer
 10
71.6336713193005465
 20
-378.5531318895816639
 30
0.0
 11
71.2778350093925894
 21
-378.5531318895815502
 31
0.0
  0
LINE
  5
262
100
AcDbEntity
100
AcDbLine
  8
10 artwork
 62
256
370
-1
  6
ByLayer
 10
71.2778350093925894
 20
-378.5531318895815502
 30
0.0
 11
70.9219975899081447
 21
-378.5531318895815502
 31
0.0
  0
LINE
  5
263
100
AcDbEntity
100
AcDbLine
  8
10 artwork
 62
256
370
-1
  6
ByLayer
 10
70.9219975899081447
 20
-378.5531318895815502
 30
0.0
 11
70.9219975899081021
 21
-380.2754409965031073
 31
0.0
  0
LINE
  5
264
100
AcDbEntity
100
AcDbLine
  8
10 artwork
 62
256
370
-1
  6
ByLayer
 10
70.9219975899081021
 20
-380.2754409965031073
 30
0.0
 11
70.9219975899080879
 21
-381.9977501034244938
 31
0.0
  0
LINE
  5
265
100
AcDbEntity
100
AcDbLine
  8
10 artwork
 62
256
370
-1
  6
ByLayer
 10
70.9219975899080879
 20
-381.9977501034244938
 30
0.0
 11
72.6390332505541068
 21
-381.9977501034243232
 31
0.0
  0
LINE
  5
266
100
AcDbEntity
100
AcDbLine
  8
10 artwork
 62
256
370
-1
  6
ByLayer
 10
72.6390332505541068
 20
-381.9977501034243232
 30
0.0
 11
74.3560700207766558
 21
-381.9977501034243232
 31
0.0
  0
LINE
  5
267
100
AcDbEntity
100
AcDbLine
  8
10 artwork
 62
256
370
-1
  6
ByLayer
 10
74.3560700207766558
 20
-381.9977501034243232
 30
0.0
 11
74.3874377426595572
 21
-379.4831894666488665
 31
0.0
  0
SPLINE
  5
268
  8
10 artwork
 62
256
370
-1
  6
ByLayer
100
AcDbEntity
100
AcDbSpline
 70
8
 71
3
 72
8
 73
4
 74
0
 40
0.0
 40
0.0
 40
0.0
 40
0.0
 40
1.0
 40
1.0
 40
1.0
 40
1.0
 10
74.3874377426595572
 20
-379.4831894666488665
 30
0.0
 10
74.4186168365725109
 20
-376.983897709279745
 30
0.0
 10
74.4203037624010193
 20
-376.9674179122755504
 30
0.0
 10
74.6652305243656258
 20
-376.7692479556993703
 30
0.0
  0
SPLINE
  5
269
  8
10 artwork
 62
256
370
-1
  6
ByLayer
100
AcDbEntity
100
AcDbSpline
 70
8
 71
3
 72
8
 73
4
 74
0
 40
0.0
 40
0.0
 40
0.0
 40
0.0
 40
1.0
 40
1.0
 40
1.0
 40
1.0
 10
74.6652305243656258
 20
-376.7692479556993703
 30
0.0
 10
74.9411436838267804
 20
-376.5460086021540747
 30
0.0
 10
75.4773305248586013
 20
-376.5097010466020038
 30
0.0
 10
75.8681935694147853
 20
-376.6877898913760419
 30
0.0
  0
SPLINE
  5
26A
  8
10 artwork
 62
256
370
-1
  6
ByLayer
100
AcDbEntity
100
AcDbSpline
 70
8
 71
3
 72
8
 73
4
 74
0
 40
0.0
 40
0.0
 40
0.0
 40
0.0
 40
1.0
 40
1.0
 40
1.0
 40
1.0
 10
75.8681935694147853
 20
-376.6877898913760419
 30
0.0
 10
76.3237223506326643
 20
-376.8953427949686557
 30
0.0
 10
76.3659628106386492
 20
-377.1907826479420578
 30
0.0
 10
76.3306220658988366
 20
-379.9221326712553832
 30
0.0
  0
LINE
  5
26B
100
AcDbEntity
100
AcDbLine
  8
10 artwork
 62
256
370
-1
  6
ByLayer
 10
76.3306220658988366
 20
-379.9221326712553832
 30
0.0
 11
76.2976894715799148
 21
-382.4674707353248095
 31
0.0
  0
LINE
  5
26C
100
AcDbEntity
100
AcDbLine
  8
10 artwork
 62
256
370
-1
  6
ByLayer
 10
76.2976894715799148
 20
-382.4674707353248095
 30
0.0
 11
76.0078633349458812
 21
-382.9605124418110904
 31
0.0
  0
SPLINE
  5
26D
  8
10 artwork
 62
256
370
-1
  6
ByLayer
100
AcDbEntity
100
AcDbSpline
 70
8
 71
3
 72
8
 73
4
 74
0
 40
0.0
 40
0.0
 40
0.0
 40
0.0
 40
1.0
 40
1.0
 40
1.0
 40
1.0
 10
76.0078633349458812
 20
-382.9605124418110904
 30
0.0
 10
75.8199218225234404
 20
-383.2802324131488376
 30
0.0
 10
75.5447158330217121
 20
-383.5554387725093193
 30
0.0
 10
75.2249958616841354
 20
-383.7433799150731488
 30
0.0
  0
LINE
  5
26E
100
AcDbEntity
100
AcDbLine
  8
10 artwork
 62
256
370
-1
  6
ByLayer
 10
75.2249958616841354
 20
-383.7433799150731488
 30
0.0
 11
74.7319541551977977
 21
-384.0332060517071682
 31
0.0
  0
LINE
  5
26F
100
AcDbEntity
100
AcDbLine
  8
10 artwork
 62
256
370
-1
  6
ByLayer
 10
74.7319541551977977
 20
-384.0332060517071682
 30
0.0
 11
72.6443066968295739
 21
-384.0332060517069408
 31
0.0
  0
LINE
  5
270
100
AcDbEntity
100
AcDbLine
  8
10 artwork
 62
256
370
-1
  6
ByLayer
 10
72.6443066968295739
 20
-384.0332060517069408
 30
0.0
 11
70.5566596083200608
 21
-384.0332060517071113
 31
0.0
  0
LINE
  5
271
100
AcDbEntity
100
AcDbLine
  8
10 artwork
 62
256
370
-1
  6
ByLayer
 10
70.5566596083200608
 20
-384.0332060517071113
 30
0.0
 11
70.0676645265847924
 21
-383.7457518193346004
 31
0.0
  0
SPLINE
  5
272
  8
10 artwork
 62
256
370
-1
  6
ByLayer
100
AcDbEntity
100
AcDbSpline
 70
8
 71
3
 72
8
 73
4
 74
0
 40
0.0
 40
0.0
 40
0.0
 40
0.0
 40
1.0
 40
1.0
 40
1.0
 40
1.0
 10
70.0676645265847924
 20
-383.7457518193346004
 30
0.0
 10
69.036044472290385
 20
-383.1393173331551338
 30
0.0
 10
68.9387327818522095
 20
-382.7886612651134328
 30
0.0
 10
68.9387327818518543
 20
-379.677731848455096
 30
0.0
  0
LINE
  5
273
100
AcDbEntity
100
AcDbLine
  8
10 artwork
 62
256
370
-1
  6
ByLayer
 10
68.9387327818518543
 20
-379.677731848455096
 30
0.0
 11
68.9387327818521243
 21
-377.1801022363771381
 31
0.0
  0
LINE
  5
274
100
AcDbEntity
100
AcDbLine
  8
10 artwork
 62
256
370
-1
  6
ByLayer
 10
68.9387327818521243
 20
-377.1801022363771381
 30
0.0
 11
69.2438507291348202
 21
-376.8749850288102721
 31
0.0
  0
LINE
  5
275
100
AcDbEntity
100
AcDbLine
  8
10 artwork
 62
256
370
-1
  6
ByLayer
 10
69.2438507291348202
 20
-376.8749850288102721
 30
0.0
 11
69.2438507291348202
 21
-376.8749850288102721
 31
0.0
  0
LINE
  5
276
100
AcDbEntity
100
AcDbLine
  8
10 artwork
 62
256
370
-1
  6
ByLayer
 10
69.190651353915527
 20
-385.1611369586207729
 30
0.0
 11
69.4425688164026695
 21
-384.8682650350543213
 31
0.0
  0
LINE
  5
277
100
AcDbEntity
100
AcDbLine
  8
10 artwork
 62
256
370
-1
  6
ByLayer
 10
69.4425688164026695
 20
-384.8682650350543213
 30
0.0
 11
73.9812810381607306
 21
-384.868265035054435
 31
0.0
  0
SPLINE
  5
278
  8
10 artwork
 62
256
370
-1
  6
ByLayer
100
AcDbEntity
100
AcDbSpline
 70
8
 71
3
 72
8
 73
4
 74
0
 40
0.0
 40
0.0
 40
0.0
 40
0.0
 40
1.0
 40
1.0
 40
1.0
 40
1.0
 10
73.9812810381607306
 20
-384.868265035054435
 30
0.0
 10
78.2831567885831134
 20
-384.8682650350545487
 30
0.0
 10
78.5313519924565924
 20
-384.8785445197179342
 30
0.0
 10
78.7376740060779952
 20
-385.0652647584973352
 30
0.0
  0
SPLINE
  5
279
  8
10 artwork
 62
256
370
-1
  6
ByLayer
100
AcDbEntity
100
AcDbSpline
 70
8
 71
3
 72
8
 73
4
 74
0
 40
0.0
 40
0.0
 40
0.0
 40
0.0
 40
1.0
 40
1.0
 40
1.0
 40
1.0
 10
78.7376740060779952
 20
-385.0652647584973352
 30
0.0
 10
79.0461217918264509
 20
-385.3444049356850769
 30
0.0
 10
79.1295119983392539
 20
-385.9076095896616607
 30
0.0
 10
78.9256835725131936
 20
-386.3350427894932295
 30
0.0
  0
SPLINE
  5
27A
  8
10 artwork
 62
256
370
-1
  6
ByLayer
100
AcDbEntity
100
AcDbSpline
 70
8
 71
3
 72
8
 73
4
 74
0
 40
0.0
 40
0.0
 40
0.0
 40
0.0
 40
1.0
 40
1.0
 40
1.0
 40
1.0
 10
78.9256835725131936
 20
-386.3350427894932295
 30
0.0
 10
78.6878181540951402
 20
-386.8338505941302401
 30
0.0
 10
78.3105289262247481
 20
-386.9024642032527481
 30
0.0
 10
75.8018730846365969
 20
-386.9031384557818001
 30
0.0
  0
LINE
  5
27B
100
AcDbEntity
100
AcDbLine
  8
10 artwork
 62
256
370
-1
  6
ByLayer
 10
75.8018730846365969
 20
-386.9031384557818001
 30
0.0
 11
73.6359391008575841
 21
-386.9037209833371662
 31
0.0
  0
LINE
  5
27C
100
AcDbEntity
100
AcDbLine
  8
10 artwork
 62
256
370
-1
  6
ByLayer
 10
73.6359391008575841
 20
-386.9037209833371662
 30
0.0
 11
73.6359391008575841
 21
-387.6343976862306704
 31
0.0
  0
LINE
  5
27D
100
AcDbEntity
100
AcDbLine
  8
10 artwork
 62
256
370
-1
  6
ByLayer
 10
73.6359391008575841
 20
-387.6343976862306704
 30
0.0
 11
73.6359391008572999
 21
-388.3650740192655917
 31
0.0
  0
LINE
  5
27E
100
AcDbEntity
100
AcDbLine
  8
10 artwork
 62
256
370
-1
  6
ByLayer
 10
73.6359391008572999
 20
-388.3650740192655917
 30
0.0
 11
74.686625004643119
 21
-388.3650740192654212
 31
0.0
  0
SPLINE
  5
27F
  8
10 artwork
 62
256
370
-1
  6
ByLayer
100
AcDbEntity
100
AcDbSpline
 70
8
 71
3
 72
8
 73
4
 74
0
 40
0.0
 40
0.0
 40
0.0
 40
0.0
 40
1.0
 40
1.0
 40
1.0
 40
1.0
 10
74.686625004643119
 20
-388.3650740192654212
 30
0.0
 10
75.2645023256971228
 20
-388.3650740192655348
 30
0.0
 10
75.821724514145302
 20
-388.4102507880090229
 30
0.0
 10
75.9248973564366452
 20
-388.4654670030771513
 30
0.0
  0
SPLINE
  5
280
  8
10 artwork
 62
256
370
-1
  6
ByLayer
100
AcDbEntity
100
AcDbSpline
 70
8
 71
3
 72
8
 73
4
 74
0
 40
0.0
 40
0.0
 40
0.0
 40
0.0
 40
1.0
 40
1.0
 40
1.0
 40
1.0
 10
75.9248973564366452
 20
-388.4654670030771513
 30
0.0
 10
76.3959028776876323
 20
-388.7175420253982452
 30
0.0
 10
76.4559768177788897
 20
-389.7077223639137742
 30
0.0
 10
76.0240135877901793
 20
-390.0991479636518307
 30
0.0
  0
SPLINE
  5
281
  8
10 artwork
 62
256
370
-1
  6
ByLayer
100
AcDbEntity
100
AcDbSpline
 70
8
 71
3
 72
8
 73
4
 74
0
 40
0.0
 40
0.0
 40
0.0
 40
0.0
 40
1.0
 40
1.0
 40
1.0
 40
1.0
 10
76.0240135877901793
 20
-390.0991479636518307
 30
0.0
 10
75.8468597459747258
 20
-390.2596766539681994
 30
0.0
 10
75.605681502595985
 20
-390.3027374607153206
 30
0.0
 10
74.7212755929267871
 20
-390.3317443740998556
 30
0.0
  0
SPLINE
  5
282
  8
10 artwork
 62
256
370
-1
  6
ByLayer
100
AcDbEntity
100
AcDbSpline
 70
8
 71
3
 72
8
 73
4
 74
0
 40
0.0
 40
0.0
 40
0.0
 40
0.0
 40
1.0
 40
1.0
 40
1.0
 40
1.0
 10
74.7212755929267871
 20
-390.3317443740998556
 30
0.0
 10
73.6907262797577971
 20
-390.3655453967996323
 30
0.0
 10
73.6358233350639608
 20
-390.3787175468660848
 30
0.0
 10
73.6336470860890557
 20
-390.5927000752340064
 30
0.0
  0
SPLINE
  5
283
  8
10 artwork
 62
256
370
-1
  6
ByLayer
100
AcDbEntity
100
AcDbSpline
 70
8
 71
3
 72
8
 73
4
 74
0
 40
0.0
 40
0.0
 40
0.0
 40
0.0
 40
1.0
 40
1.0
 40
1.0
 40
1.0
 10
73.6336470860890557
 20
-390.5927000752340064
 30
0.0
 10
73.6290386458736208
 20
-391.0457323097865583
 30
0.0
 10
73.2405619300711521
 20
-391.6876858126306615
 30
0.0
 10
72.7908240275409923
 20
-391.9854572552604282
 30
0.0
  0
SPLINE
  5
284
  8
10 artwork
 62
256
370
-1
  6
ByLayer
100
AcDbEntity
100
AcDbSpline
 70
8
 71
3
 72
8
 73
4
 74
0
 40
0.0
 40
0.0
 40
0.0
 40
0.0
 40
1.0
 40
1.0
 40
1.0
 40
1.0
 10
72.7908240275409923
 20
-391.9854572552604282
 30
0.0
 10
72.3692789792527265
 20
-392.2645622958658578
 30
0.0
 10
72.2766896455298422
 20
-392.2812455151909603
 30
0.0
 10
70.9580983944103281
 20
-392.315698229035263
 30
0.0
  0
LINE
  5
285
100
AcDbEntity
100
AcDbLine
  8
10 artwork
 62
256
370
-1
  6
ByLayer
 10
70.9580983944103281
 20
-392.315698229035263
 30
0.0
 11
69.5693464149529746
 21
-392.3519824834851306
 31
0.0
  0
LINE
  5
286
100
AcDbEntity
100
AcDbLine
  8
10 artwork
 62
256
370
-1
  6
ByLayer
 10
69.5693464149529746
 20
-392.3519824834851306
 30
0.0
 11
69.2540395984025423
 21
-392.036675666934741
 31
0.0
  0
SPLINE
  5
287
  8
10 artwork
 62
256
370
-1
  6
ByLayer
100
AcDbEntity
100
AcDbSpline
 70
8
 71
3
 72
8
 73
4
 74
0
 40
0.0
 40
0.0
 40
0.0
 40
0.0
 40
1.0
 40
1.0
 40
1.0
 40
1.0
 10
69.2540395984025423
 20
-392.036675666934741
 30
0.0
 10
68.9146017165704734
 20
-391.6972377851028
 30
0.0
 10
68.8470581088558475
 20
-391.2900421473307802
 30
0.0
 10
69.0546254369402135
 20
-390.8344811884001615
 30
0.0
  0
SPLINE
  5
288
  8
10 artwork
 62
256
370
-1
  6
ByLayer
100
AcDbEntity
100
AcDbSpline
 70
8
 71
3
 72
8
 73
4
 74
0
 40
0.0
 40
0.0
 40
0.0
 40
0.0
 40
1.0
 40
1.0
 40
1.0
 40
1.0
 10
69.0546254369402135
 20
-390.8344811884001615
 30
0.0
 10
69.2281986760484926
 20
-390.4535314683298566
 30
0.0
 10
69.5768586163346043
 20
-390.3483388273212427
 30
0.0
 10
70.6659528734590339
 20
-390.3483388273211858
 30
0.0
  0
LINE
  5
289
100
AcDbEntity
100
AcDbLine
  8
10 artwork
 62
256
370
-1
  6
ByLayer
 10
70.6659528734590339
 20
-390.3483388273211858
 30
0.0
 11
71.6526742928016063
 21
-390.3483388273211858
 31
0.0
  0
LINE
  5
28A
100
AcDbEntity
100
AcDbLine
  8
10 artwork
 62
256
370
-1
  6
ByLayer
 10
71.6526742928016063
 20
-390.3483388273211858
 30
0.0
 11
71.6526742928016205
 21
-388.6260300902587232
 31
0.0
  0
LINE
  5
28B
100
AcDbEntity
100
AcDbLine
  8
10 artwork
 62
256
370
-1
  6
ByLayer
 10
71.6526742928016205
 20
-388.6260300902587232
 30
0.0
 11
71.6526742928016063
 21
-386.9037209833372231
 31
0.0
  0
LINE
  5
28C
100
AcDbEntity
100
AcDbLine
  8
10 artwork
 62
256
370
-1
  6
ByLayer
 10
71.6526742928016063
 20
-386.9037209833372231
 30
0.0
 11
70.7620713995202379
 21
-386.9037209833372231
 31
0.0
  0
SPLINE
  5
28D
  8
10 artwork
 62
256
370
-1
  6
ByLayer
100
AcDbEntity
100
AcDbSpline
 70
8
 71
3
 72
8
 73
4
 74
0
 40
0.0
 40
0.0
 40
0.0
 40
0.0
 40
1.0
 40
1.0
 40
1.0
 40
1.0
 10
70.7620713995202379
 20
-386.9037209833372231
 30
0.0
 10
70.2197497111485518
 20
-386.9037209833369957
 30
0.0
 10
69.7296506009987809
 20
-386.8444651708348374
 30
0.0
 10
69.508819397873836
 20
-386.7521965046612991
 30
0.0
  0
SPLINE
  5
28E
  8
10 artwork
 62
256
370
-1
  6
ByLayer
100
AcDbEntity
100
AcDbSpline
 70
8
 71
3
 72
8
 73
4
 74
0
 40
0.0
 40
0.0
 40
0.0
 40
0.0
 40
1.0
 40
1.0
 40
1.0
 40
1.0
 10
69.508819397873836
 20
-386.7521965046612991
 30
0.0
 10
68.9077334392991929
 20
-386.5010461292530977
 30
0.0
 10
68.7436966385942299
 20
-385.6807522776745145
 30
0.0
 10
69.190651353915527
 20
-385.1611369586207729
 30
0.0
  0
LINE
  5
28F
100
AcDbEntity
100
AcDbLine
  8
10 artwork
 62
256
370
-1
  6
ByLayer
 10
69.190651353915527
 20
-385.1611369586207729
 30
0.0
 11
69.190651353915527
 21
-385.1611369586207729
 31
0.0
  0
SPLINE
  5
290
  8
10 artwork
 62
256
370
-1
  6
ByLayer
100
AcDbEntity
100
AcDbSpline
 70
8
 71
3
 72
8
 73
4
 74
0
 40
0.0
 40
0.0
 40
0.0
 40
0.0
 40
1.0
 40
1.0
 40
1.0
 40
1.0
 10
69.1366271936480956
 20
-394.4714422339721978
 30
0.0
 10
69.2429479038908511
 20
-394.2418009950588385
 30
0.0
 10
69.4650340378058928
 20
-393.9272313070275686
 30
0.0
 10
69.6301511959643875
 20
-393.7723988115552061
 30
0.0
  0
SPLINE
  5
291
  8
10 artwork
 62
256
370
-1
  6
ByLayer
100
AcDbEntity
100
AcDbSpline
 70
8
 71
3
 72
8
 73
4
 74
0
 40
0.0
 40
0.0
 40
0.0
 40
0.0
 40
1.0
 40
1.0
 40
1.0
 40
1.0
 10
69.6301511959643875
 20
-393.7723988115552061
 30
0.0
 10
70.2075599059627251
 20
-393.2309551678924322
 30
0.0
 10
70.5321453693575222
 20
-393.1664591964035935
 30
0.0
 10
72.6670496821650573
 20
-393.1689550033517548
 30
0.0
  0
SPLINE
  5
292
  8
10 artwork
 62
256
370
-1
  6
ByLayer
100
AcDbEntity
100
AcDbSpline
 70
8
 71
3
 72
8
 73
4
 74
0
 40
0.0
 40
0.0
 40
0.0
 40
0.0
 40
1.0
 40
1.0
 40
1.0
 40
1.0
 10
72.6670496821650573
 20
-393.1689550033517548
 30
0.0
 10
74.8297999216927394
 20
-393.1714840975888023
 30
0.0
 10
75.1722525223205906
 20
-393.2483056124303857
 30
0.0
 10
75.7456268129072328
 20
-393.859560098038969
 30
0.0
  0
SPLINE
  5
293
  8
10 artwork
 62
256
370
-1
  6
ByLayer
100
AcDbEntity
100
AcDbSpline
 70
8
 71
3
 72
8
 73
4
 74
0
 40
0.0
 40
0.0
 40
0.0
 40
0.0
 40
1.0
 40
1.0
 40
1.0
 40
1.0
 10
75.7456268129072328
 20
-393.859560098038969
 30
0.0
 10
76.2494166151124517
 20
-394.3966334905313147
 30
0.0
 10
76.3498806118067677
 20
-394.8920219508832474
 30
0.0
 10
76.3498806118069666
 20
-396.8391382426560767
 30
0.0
  0
SPLINE
  5
294
  8
10 artwork
 62
256
370
-1
  6
ByLayer
100
AcDbEntity
100
AcDbSpline
 70
8
 71
3
 72
8
 73
4
 74
0
 40
0.0
 40
0.0
 40
0.0
 40
0.0
 40
1.0
 40
1.0
 40
1.0
 40
1.0
 10
76.3498806118069666
 20
-396.8391382426560767
 30
0.0
 10
76.3498806118067961
 20
-398.9947453998498759
 30
0.0
 10
76.257811299507793
 20
-399.422785168057942
 30
0.0
 10
75.6670917424060576
 20
-400.0135047251584979
 30
0.0
  0
SPLINE
  5
295
  8
10 artwork
 62
256
370
-1
  6
ByLayer
100
AcDbEntity
100
AcDbSpline
 70
8
 71
3
 72
8
 73
4
 74
0
 40
0.0
 40
0.0
 40
0.0
 40
0.0
 40
1.0
 40
1.0
 40
1.0
 40
1.0
 10
75.6670917424060576
 20
-400.0135047251584979
 30
0.0
 10
75.1208806192588412
 20
-400.5597158483054727
 30
0.0
 10
74.5003974177389949
 20
-400.7202696890179823
 30
0.0
 10
73.1401260426429332
 20
-400.6673728582668446
 30
0.0
  0
SPLINE
  5
296
  8
10 artwork
 62
256
370
-1
  6
ByLayer
100
AcDbEntity
100
AcDbSpline
 70
8
 71
3
 72
8
 73
4
 74
0
 40
0.0
 40
0.0
 40
0.0
 40
0.0
 40
1.0
 40
1.0
 40
1.0
 40
1.0
 10
73.1401260426429332
 20
-400.6673728582668446
 30
0.0
 10
72.2533038456601417
 20
-400.6328868571338262
 30
0.0
 10
72.156769968205694
 20
-400.6076565716016944
 30
0.0
 10
71.8897955553839836
 20
-400.3405774887496023
 30
0.0
  0
LINE
  5
297
100
AcDbEntity
100
AcDbLine
  8
10 artwork
 62
256
370
-1
  6
ByLayer
 10
71.8897955553839836
 20
-400.3405774887496023
 30
0.0
 11
71.600483152574725
 21
-400.0511544981692964
 31
0.0
  0
LINE
  5
298
100
AcDbEntity
100
AcDbLine
  8
10 artwork
 62
256
370
-1
  6
ByLayer
 10
71.600483152574725
 20
-400.0511544981692964
 30
0.0
 11
71.6004831525746965
 21
-398.2813984294032821
 31
0.0
  0
LINE
  5
299
100
AcDbEntity
100
AcDbLine
  8
10 artwork
 62
256
370
-1
  6
ByLayer
 10
71.6004831525746965
 20
-398.2813984294032821
 30
0.0
 11
71.6004831525746965
 21
-396.5116427304958506
 31
0.0
  0
LINE
  5
29A
100
AcDbEntity
100
AcDbLine
  8
10 artwork
 62
256
370
-1
  6
ByLayer
 10
71.6004831525746965
 20
-396.5116427304958506
 30
0.0
 11
71.8769126348719283
 21
-396.2352128783400076
 31
0.0
  0
SPLINE
  5
29B
  8
10 artwork
 62
256
370
-1
  6
ByLayer
100
AcDbEntity
100
AcDbSpline
 70
8
 71
3
 72
8
 73
4
 74
0
 40
0.0
 40
0.0
 40
0.0
 40
0.0
 40
1.0
 40
1.0
 40
1.0
 40
1.0
 10
71.8769126348719283
 20
-396.2352128783400076
 30
0.0
 10
72.2746868603158958
 20
-395.8374390227547792
 30
0.0
 10
72.9043773259385119
 20
-395.8323586427549685
 30
0.0
 10
73.2961065797228315
 20
-396.2237631605433421
 30
0.0
  0
SPLINE
  5
29C
  8
10 artwork
 62
256
370
-1
  6
ByLayer
100
AcDbEntity
100
AcDbSpline
 70
8
 71
3
 72
8
 73
4
 74
0
 40
0.0
 40
0.0
 40
0.0
 40
0.0
 40
1.0
 40
1.0
 40
1.0
 40
1.0
 10
73.2961065797228315
 20
-396.2237631605433421
 30
0.0
 10
73.567548886429023
 20
-396.4949809629791275
 30
0.0
 10
73.5857522252795206
 20
-396.5727689187742726
 30
0.0
 10
73.6193446476358133
 20
-397.6050469518122554
 30
0.0
  0
LINE
  5
29D
100
AcDbEntity
100
AcDbLine
  8
10 artwork
 62
256
370
-1
  6
ByLayer
 10
73.6193446476358133
 20
-397.6050469518122554
 30
0.0
 11
73.6549420743584733
 21
-398.6989279210769723
 31
0.0
  0
LINE
  5
29E
100
AcDbEntity
100
AcDbLine
  8
10 artwork
 62
256
370
-1
  6
ByLayer
 10
73.6549420743584733
 20
-398.6989279210769723
 30
0.0
 11
74.0107783842665583
 21
-398.6989279210770292
 31
0.0
  0
LINE
  5
29F
100
AcDbEntity
100
AcDbLine
  8
10 artwork
 62
256
370
-1
  6
ByLayer
 10
74.0107783842665583
 20
-398.6989279210770292
 30
0.0
 11
74.3666158037510172
 21
-398.6989279210769155
 31
0.0
  0
LINE
  5
2A0
100
AcDbEntity
100
AcDbLine
  8
10 artwork
 62
256
370
-1
  6
ByLayer
 10
74.3666158037510172
 20
-398.6989279210769155
 30
0.0
 11
74.3666158037510314
 21
-396.9244276739285624
 31
0.0
  0
LINE
  5
2A1
100
AcDbEntity
100
AcDbLine
  8
10 artwork
 62
256
370
-1
  6
ByLayer
 10
74.3666158037510314
 20
-396.9244276739285624
 30
0.0
 11
74.366615803751003
 21
-395.1499277966389059
 31
0.0
  0
LINE
  5
2A2
100
AcDbEntity
100
AcDbLine
  8
10 artwork
 62
256
370
-1
  6
ByLayer
 10
74.366615803751003
 20
-395.1499277966389059
 30
0.0
 11
72.6443066968295597
 21
-395.1499277966390196
 31
0.0
  0
LINE
  5
2A3
100
AcDbEntity
100
AcDbLine
  8
10 artwork
 62
256
370
-1
  6
ByLayer
 10
72.6443066968295597
 20
-395.1499277966390196
 30
0.0
 11
70.92199758990796
 21
-395.1499277966390196
 31
0.0
  0
LINE
  5
2A4
100
AcDbEntity
100
AcDbLine
  8
10 artwork
 62
256
370
-1
  6
ByLayer
 10
70.92199758990796
 20
-395.1499277966390196
 30
0.0
 11
70.9219975899079316
 21
-397.5970927692064265
 31
0.0
  0
SPLINE
  5
2A5
  8
10 artwork
 62
256
370
-1
  6
ByLayer
100
AcDbEntity
100
AcDbSpline
 70
8
 71
3
 72
8
 73
4
 74
0
 40
0.0
 40
0.0
 40
0.0
 40
0.0
 40
1.0
 40
1.0
 40
1.0
 40
1.0
 10
70.9219975899079316
 20
-397.5970927692064265
 30
0.0
 10
70.9219975899081021
 20
-400.0335003995850229
 30
0.0
 10
70.9208902327647905
 20
-400.0455452201352387
 30
0.0
 10
70.6700793877031543
 20
-400.3371300351984132
 30
0.0
  0
SPLINE
  5
2A6
  8
10 artwork
 62
256
370
-1
  6
ByLayer
100
AcDbEntity
100
AcDbSpline
 70
8
 71
3
 72
8
 73
4
 74
0
 40
0.0
 40
0.0
 40
0.0
 40
0.0
 40
1.0
 40
1.0
 40
1.0
 40
1.0
 10
70.6700793877031543
 20
-400.3371300351984132
 30
0.0
 10
70.4608968863909695
 20
-400.5803188308252629
 30
0.0
 10
70.3354115743668586
 20
-400.6300015889059409
 30
0.0
 10
69.9303651858801487
 20
-400.6300015889059409
 30
0.0
  0
SPLINE
  5
2A7
  8
10 artwork
 62
256
370
-1
  6
ByLayer
100
AcDbEntity
100
AcDbSpline
 70
8
 71
3
 72
8
 73
4
 74
0
 40
0.0
 40
0.0
 40
0.0
 40
0.0
 40
1.0
 40
1.0
 40
1.0
 40
1.0
 10
69.9303651858801487
 20
-400.6300015889059409
 30
0.0
 10
69.5253187973933251
 20
-400.630001588906282
 30
0.0
 10
69.3998334853692143
 20
-400.5803188308251492
 30
0.0
 10
69.1906513539157544
 20
-400.3371300351985269
 30
0.0
  0
SPLINE
  5
2A8
  8
10 artwork
 62
256
370
-1
  6
ByLayer
100
AcDbEntity
100
AcDbSpline
 70
8
 71
3
 72
8
 73
4
 74
0
 40
0.0
 40
0.0
 40
0.0
 40
0.0
 40
1.0
 40
1.0
 40
1.0
 40
1.0
 10
69.1906513539157544
 20
-400.3371300351985269
 30
0.0
 10
68.9389073551894427
 20
-400.0444593148005197
 30
0.0
 10
68.9387350010047442
 20
-400.0424742828074045
 30
0.0
 10
68.9410251664793492
 20
-397.4666147337097186
 30
0.0
  0
SPLINE
  5
2A9
  8
10 artwork
 62
256
370
-1
  6
ByLayer
100
AcDbEntity
100
AcDbSpline
 70
8
 71
3
 72
8
 73
4
 74
0
 40
0.0
 40
0.0
 40
0.0
 40
0.0
 40
1.0
 40
1.0
 40
1.0
 40
1.0
 10
68.9410251664793492
 20
-397.4666147337097186
 30
0.0
 10
68.9430586499708511
 20
-395.1805931567267862
 30
0.0
 10
68.9651876697561335
 20
-394.8417344737213739
 30
0.0
 10
69.1366271936480956
 20
-394.4714422339721978
 30
0.0
  0
LINE
  5
2AA
100
AcDbEntity
100
AcDbLine
  8
10 artwork
 62
256
370
-1
  6
ByLayer
 10
69.1366271936480956
 20
-394.4714422339721978
 30
0.0
 11
69.1366271936480956
 21
-394.4714422339721978
 31
0.0
  0
SPLINE
  5
2AB
  8
10 artwork
 62
256
370
-1
  6
ByLayer
100
AcDbEntity
100
AcDbSpline
 70
8
 71
3
 72
8
 73
4
 74
0
 40
0.0
 40
0.0
 40
0.0
 40
0.0
 40
1.0
 40
1.0
 40
1.0
 40
1.0
 10
69.0736491225320179
 20
-401.9347812041536372
 30
0.0
 10
69.3096452747503236
 20
-401.4676628985257025
 30
0.0
 10
69.7959133878093638
 20
-401.393129699864744
 30
0.0
 10
72.331159485609561
 20
-401.4354807476415203
 30
0.0
  0
SPLINE
  5
2AC
  8
10 artwork
 62
256
370
-1
  6
ByLayer
100
AcDbEntity
100
AcDbSpline
 70
8
 71
3
 72
8
 73
4
 74
0
 40
0.0
 40
0.0
 40
0.0
 40
0.0
 40
1.0
 40
1.0
 40
1.0
 40
1.0
 10
72.331159485609561
 20
-401.4354807476415203
 30
0.0
 10
74.1179601257147453
 20
-401.4653287198581779
 30
0.0
 10
74.7086463955277083
 20
-401.5098637836437092
 30
0.0
 10
74.9929098563320764
 20
-401.6361631548101627
 30
0.0
  0
SPLINE
  5
2AD
  8
10 artwork
 62
256
370
-1
  6
ByLayer
100
AcDbEntity
100
AcDbSpline
 70
8
 71
3
 72
8
 73
4
 74
0
 40
0.0
 40
0.0
 40
0.0
 40
0.0
 40
1.0
 40
1.0
 40
1.0
 40
1.0
 10
74.9929098563320764
 20
-401.6361631548101627
 30
0.0
 10
75.4810831118910386
 20
-401.8530612798248285
 30
0.0
 10
76.1012105092786442
 20
-402.5570034815879694
 30
0.0
 10
76.2379702260445811
 20
-403.0495033449831226
 30
0.0
  0
SPLINE
  5
2AE
  8
10 artwork
 62
256
370
-1
  6
ByLayer
100
AcDbEntity
100
AcDbSpline
 70
8
 71
3
 72
8
 73
4
 74
0
 40
0.0
 40
0.0
 40
0.0
 40
0.0
 40
1.0
 40
1.0
 40
1.0
 40
1.0
 10
76.2379702260445811
 20
-403.0495033449831226
 30
0.0
 10
76.3913432588293233
 20
-403.6018323019667946
 30
0.0
 10
76.3838676734655735
 20
-406.6862820501839337
 30
0.0
 10
76.2284485819913868
 20
-406.9780924790937888
 30
0.0
  0
SPLINE
  5
2AF
  8
10 artwork
 62
256
370
-1
  6
ByLayer
100
AcDbEntity
100
AcDbSpline
 70
8
 71
3
 72
8
 73
4
 74
0
 40
0.0
 40
0.0
 40
0.0
 40
0.0
 40
1.0
 40
1.0
 40
1.0
 40
1.0
 10
76.2284485819913868
 20
-406.9780924790937888
 30
0.0
 10
76.0368388103351407
 20
-407.3378515110664466
 30
0.0
 10
75.8099212113690015
 20
-407.4601541884153448
 30
0.0
 10
75.3274082743538997
 20
-407.4637270240879161
 30
0.0
  0
SPLINE
  5
2B0
  8
10 artwork
 62
256
370
-1
  6
ByLayer
100
AcDbEntity
100
AcDbSpline
 70
8
 71
3
 72
8
 73
4
 74
0
 40
0.0
 40
0.0
 40
0.0
 40
0.0
 40
1.0
 40
1.0
 40
1.0
 40
1.0
 10
75.3274082743538997
 20
-407.4637270240879161
 30
0.0
 10
74.987724066584164
 20
-407.466241693833183
 30
0.0
 10
74.8169317955312607
 20
-407.4049401925000211
 30
0.0
 10
74.6228273265030424
 20
-407.2108346138954857
 30
0.0
  0
SPLINE
  5
2B1
  8
10 artwork
 62
256
370
-1
  6
ByLayer
100
AcDbEntity
100
AcDbSpline
 70
8
 71
3
 72
8
 73
4
 74
0
 40
0.0
 40
0.0
 40
0.0
 40
0.0
 40
1.0
 40
1.0
 40
1.0
 40
1.0
 10
74.6228273265030424
 20
-407.2108346138954857
 30
0.0
 10
74.3715112543681016
 20
-406.9595196513366773
 30
0.0
 10
74.3666158037510172
 20
-406.9217248936896567
 30
0.0
 10
74.3666158037510456
 20
-405.2329331277948654
 30
0.0
  0
LINE
  5
2B2
100
AcDbEntity
100
AcDbLine
  8
10 artwork
 62
256
370
-1
  6
ByLayer
 10
74.3666158037510456
 20
-405.2329331277948654
 30
0.0
 11
74.3666158037510172
 21
-403.5112420548703085
 31
0.0
  0
LINE
  5
2B3
100
AcDbEntity
100
AcDbLine
  8
10 artwork
 62
256
370
-1
  6
ByLayer
 10
74.3666158037510172
 20
-403.5112420548703085
 30
0.0
 11
71.904418291527918
 21
-403.4797833477308018
 31
0.0
  0
LINE
  5
2B4
100
AcDbEntity
100
AcDbLine
  8
10 artwork
 62
256
370
-1
  6
ByLayer
 10
71.904418291527918
 20
-403.4797833477308018
 30
0.0
 11
69.442221149163629
 21
-403.4483253803090292
 31
0.0
  0
LINE
  5
2B5
100
AcDbEntity
100
AcDbLine
  8
10 artwork
 62
256
370
-1
  6
ByLayer
 10
69.442221149163629
 20
-403.4483253803090292
 30
0.0
 11
69.1904771504373457
 21
-403.1554538266014447
 31
0.0
  0
SPLINE
  5
2B6
  8
10 artwork
 62
256
370
-1
  6
ByLayer
100
AcDbEntity
100
AcDbSpline
 70
8
 71
3
 72
8
 73
4
 74
0
 40
0.0
 40
0.0
 40
0.0
 40
0.0
 40
1.0
 40
1.0
 40
1.0
 40
1.0
 10
69.1904771504373457
 20
-403.1554538266014447
 30
0.0
 10
68.910277327886746
 20
-402.8294758449554251
 30
0.0
 10
68.8643061025155561
 20
-402.3491458143728323
 30
0.0
 10
69.0736491225320179
 20
-401.9347812041536372
 30
0.0
  0
LINE
  5
2B7
100
AcDbEntity
100
AcDbLine
  8
10 artwork
 62
256
370
-1
  6
ByLayer
 10
69.0736491225320179
 20
-401.9347812041536372
 30
0.0
 11
69.0736491225320179
 21
-401.9347812041536372
 31
0.0
  0
LINE
  5
2B8
100
AcDbEntity
100
AcDbLine
  8
10 artwork
 62
256
370
-1
  6
ByLayer
 10
69.2433173927971097
 20
-408.5908039271126313
 30
0.0
 11
69.5479020037421094
 21
-408.249914349626863
 31
0.0
  0
LINE
  5
2B9
100
AcDbEntity
100
AcDbLine
  8
10 artwork
 62
256
370
-1
  6
ByLayer
 10
69.5479020037421094
 20
-408.249914349626863
 30
0.0
 11
73.9903422080501372
 21
-408.2499143496266925
 31
0.0
  0
LINE
  5
2BA
100
AcDbEntity
100
AcDbLine
  8
10 artwork
 62
256
370
-1
  6
ByLayer
 10
73.9903422080501372
 20
-408.2499143496266925
 30
0.0
 11
78.4327835219341694
 21
-408.249914349626863
 31
0.0
  0
LINE
  5
2BB
100
AcDbEntity
100
AcDbLine
  8
10 artwork
 62
256
370
-1
  6
ByLayer
 10
78.4327835219341694
 20
-408.249914349626863
 30
0.0
 11
78.7222068823729444
 21
-408.5391368767561175
 31
0.0
  0
LINE
  5
2BC
100
AcDbEntity
100
AcDbLine
  8
10 artwork
 62
256
370
-1
  6
ByLayer
 10
78.7222068823729444
 20
-408.5391368767561175
 30
0.0
 11
79.0116309825292689
 21
-408.8283594038853153
 31
0.0
  0
LINE
  5
2BD
100
AcDbEntity
100
AcDbLine
  8
10 artwork
 62
256
370
-1
  6
ByLayer
 10
79.0116309825292689
 20
-408.8283594038853153
 30
0.0
 11
79.0430552928035439
 21
-411.2743241847591662
 31
0.0
  0
SPLINE
  5
2BE
  8
10 artwork
 62
256
370
-1
  6
ByLayer
100
AcDbEntity
100
AcDbSpline
 70
8
 71
3
 72
8
 73
4
 74
0
 40
0.0
 40
0.0
 40
0.0
 40
0.0
 40
1.0
 40
1.0
 40
1.0
 40
1.0
 10
79.0430552928035439
 20
-411.2743241847591662
 30
0.0
 10
79.0783793938987003
 20
-414.0237795343503535
 30
0.0
 10
79.0249218572595851
 20
-414.3764261822666981
 30
0.0
 10
78.4816503715786808
 20
-414.9777625352258497
 30
0.0
  0
SPLINE
  5
2BF
  8
10 artwork
 62
256
370
-1
  6
ByLayer
100
AcDbEntity
100
AcDbSpline
 70
8
 71
3
 72
8
 73
4
 74
0
 40
0.0
 40
0.0
 40
0.0
 40
0.0
 40
1.0
 40
1.0
 40
1.0
 40
1.0
 10
78.4816503715786808
 20
-414.9777625352258497
 30
0.0
 10
77.898027664464891
 20
-415.6237630326796193
 30
0.0
 10
77.6035723755245357
 20
-415.7132529499494353
 30
0.0
 10
76.0616204571846453
 20
-415.7132529499493216
 30
0.0
  0
SPLINE
  5
2C0
  8
10 artwork
 62
256
370
-1
  6
ByLayer
100
AcDbEntity
100
AcDbSpline
 70
8
 71
3
 72
8
 73
4
 74
0
 40
0.0
 40
0.0
 40
0.0
 40
0.0
 40
1.0
 40
1.0
 40
1.0
 40
1.0
 10
76.0616204571846453
 20
-415.7132529499493216
 30
0.0
 10
74.8232978045991786
 20
-415.7132529499493785
 30
0.0
 10
74.6789726267894451
 20
-415.692993566222583
 30
0.0
 10
74.3550865663198408
 20
-415.473694687962734
 30
0.0
  0
LINE
  5
2C1
100
AcDbEntity
100
AcDbLine
  8
10 artwork
 62
256
370
-1
  6
ByLayer
 10
74.3550865663198408
 20
-415.473694687962734
 30
0.0
 11
74.0012774522976997
 21
-415.2341360561171655
 31
0.0
  0
LINE
  5
2C2
100
AcDbEntity
100
AcDbLine
  8
10 artwork
 62
256
370
-1
  6
ByLayer
 10
74.0012774522976997
 20
-415.2341360561171655
 30
0.0
 11
73.6359391008573994
 21
-415.4809313445639987
 31
0.0
  0
SPLINE
  5
2C3
  8
10 artwork
 62
256
370
-1
  6
ByLayer
100
AcDbEntity
100
AcDbSpline
 70
8
 71
3
 72
8
 73
4
 74
0
 40
0.0
 40
0.0
 40
0.0
 40
0.0
 40
1.0
 40
1.0
 40
1.0
 40
1.0
 10
73.6359391008573994
 20
-415.4809313445639987
 30
0.0
 10
73.2877155939149105
 20
-415.7161644781497216
 30
0.0
 10
73.2017023490386265
 20
-415.7261643495865542
 30
0.0
 10
71.7998555199967399
 20
-415.6943942213666787
 30
0.0
  0
SPLINE
  5
2C4
  8
10 artwork
 62
256
370
-1
  6
ByLayer
100
AcDbEntity
100
AcDbSpline
 70
8
 71
3
 72
8
 73
4
 74
0
 40
0.0
 40
0.0
 40
0.0
 40
0.0
 40
1.0
 40
1.0
 40
1.0
 40
1.0
 10
71.7998555199967399
 20
-415.6943942213666787
 30
0.0
 10
70.3765487456758478
 20
-415.6621369891532822
 30
0.0
 10
70.3152158063478083
 20
-415.6514221807233866
 30
0.0
 10
69.8983335675134754
 20
-415.3622089000630808
 30
0.0
  0
SPLINE
  5
2C5
  8
10 artwork
 62
256
370
-1
  6
ByLayer
100
AcDbEntity
100
AcDbSpline
 70
8
 71
3
 72
8
 73
4
 74
0
 40
0.0
 40
0.0
 40
0.0
 40
0.0
 40
1.0
 40
1.0
 40
1.0
 40
1.0
 10
69.8983335675134754
 20
-415.3622089000630808
 30
0.0
 10
69.6295719971378446
 20
-415.175754959594542
 30
0.0
 10
69.3681118086466881
 20
-414.8637957347287397
 30
0.0
 10
69.2031448131480573
 20
-414.5327510578570696
 30
0.0
  0
SPLINE
  5
2C6
  8
10 artwork
 62
256
370
-1
  6
ByLayer
100
AcDbEntity
100
AcDbSpline
 70
8
 71
3
 72
8
 73
4
 74
0
 40
0.0
 40
0.0
 40
0.0
 40
0.0
 40
1.0
 40
1.0
 40
1.0
 40
1.0
 10
69.2031448131480573
 20
-414.5327510578570696
 30
0.0
 10
68.9420064017835585
 20
-414.0087133375467943
 30
0.0
 10
68.9387327818519822
 20
-413.970763978935679
 30
0.0
 10
68.9387327818521811
 20
-411.4669192601663212
 30
0.0
  0
LINE
  5
2C7
100
AcDbEntity
100
AcDbLine
  8
10 artwork
 62
256
370
-1
  6
ByLayer
 10
68.9387327818521811
 20
-411.4669192601663212
 30
0.0
 11
68.9387327818521669
 21
-408.9316927648807791
 31
0.0
  0
LINE
  5
2C8
100
AcDbEntity
100
AcDbLine
  8
10 artwork
 62
256
370
-1
  6
ByLayer
 10
68.9387327818521669
 20
-408.9316927648807791
 30
0.0
 11
69.2433173927971097
 21
-408.5908039271126313
 31
0.0
  0
LINE
  5
2C9
100
AcDbEntity
100
AcDbLine
  8
10 artwork
 62
256
370
-1
  6
ByLayer
 10
69.2433173927971097
 20
-408.5908039271126313
 30
0.0
 11
69.2433173927971097
 21
-408.5908039271126313
 31
0.0
  0
LINE
  5
2CA
100
AcDbEntity
100
AcDbLine
  8
10 artwork
 62
256
370
-1
  6
ByLayer
 10
71.9658215040214628
 20
-413.7299881418937275
 30
0.0
 11
73.0096450482763117
 21
-413.7299881418937844
 31
0.0
  0
LINE
  5
2CB
100
AcDbEntity
100
AcDbLine
  8
10 artwork
 62
256
370
-1
  6
ByLayer
 10
73.0096450482763117
 20
-413.7299881418937844
 30
0.0
 11
73.0096450482762833
 21
-412.0076794048309807
 31
0.0
  0
LINE
  5
2CC
100
AcDbEntity
100
AcDbLine
  8
10 artwork
 62
256
370
-1
  6
ByLayer
 10
73.0096450482762833
 20
-412.0076794048309807
 30
0.0
 11
73.0096450482762833
 21
-410.2853702979094237
 31
0.0
  0
LINE
  5
2CD
100
AcDbEntity
100
AcDbLine
  8
10 artwork
 62
256
370
-1
  6
ByLayer
 10
73.0096450482762833
 20
-410.2853702979094237
 30
0.0
 11
71.9658215040215481
 21
-410.2853702979093669
 31
0.0
  0
LINE
  5
2CE
100
AcDbEntity
100
AcDbLine
  8
10 artwork
 62
256
370
-1
  6
ByLayer
 10
71.9658215040215481
 20
-410.2853702979093669
 30
0.0
 11
70.9219975899079458
 21
-410.28537029790931
 31
0.0
  0
LINE
  5
2CF
100
AcDbEntity
100
AcDbLine
  8
10 artwork
 62
256
370
-1
  6
ByLayer
 10
70.9219975899079458
 20
-410.28537029790931
 30
0.0
 11
70.9219975899078463
 21
-412.0076794048309239
 31
0.0
  0
LINE
  5
2D0
100
AcDbEntity
100
AcDbLine
  8
10 artwork
 62
256
370
-1
  6
ByLayer
 10
70.9219975899078463
 20
-412.0076794048309239
 30
0.0
 11
70.9219975899081021
 21
-413.7299881418936138
 31
0.0
  0
LINE
  5
2D1
100
AcDbEntity
100
AcDbLine
  8
10 artwork
 62
256
370
-1
  6
ByLayer
 10
70.9219975899081021
 20
-413.7299881418936138
 30
0.0
 11
71.9658215040214628
 21
-413.7299881418937275
 31
0.0
  0
LINE
  5
2D2
100
AcDbEntity
100
AcDbLine
  8
10 artwork
 62
256
370
-1
  6
ByLayer
 10
71.9658215040214628
 20
-413.7299881418937275
 30
0.0
 11
71.9658215040214628
 21
-413.7299881418937275
 31
0.0
  0
LINE
  5
2D3
100
AcDbEntity
100
AcDbLine
  8
10 artwork
 62
256
370
-1
  6
ByLayer
 10
76.0367334005867548
 20
-413.7299881418937275
 30
0.0
 11
77.0805573147004708
 21
-413.7299881418936138
 31
0.0
  0
LINE
  5
2D4
100
AcDbEntity
100
AcDbLine
  8
10 artwork
 62
256
370
-1
  6
ByLayer
 10
77.0805573147004708
 20
-413.7299881418936138
 30
0.0
 11
77.0805573147004424
 21
-412.0076794048309807
 31
0.0
  0
LINE
  5
2D5
100
AcDbEntity
100
AcDbLine
  8
10 artwork
 62
256
370
-1
  6
ByLayer
 10
77.0805573147004424
 20
-412.0076794048309807
 30
0.0
 11
77.0805573147003997
 21
-410.2853702979092532
 31
0.0
  0
LINE
  5
2D6
100
AcDbEntity
100
AcDbLine
  8
10 artwork
 62
256
370
-1
  6
ByLayer
 10
77.0805573147003997
 20
-410.2853702979092532
 30
0.0
 11
76.0367334005869253
 21
-410.2853702979093669
 31
0.0
  0
LINE
  5
2D7
100
AcDbEntity
100
AcDbLine
  8
10 artwork
 62
256
370
-1
  6
ByLayer
 10
76.0367334005869253
 20
-410.2853702979093669
 30
0.0
 11
74.9929098563320764
 21
-410.2853702979094805
 31
0.0
  0
LINE
  5
2D8
100
AcDbEntity
100
AcDbLine
  8
10 artwork
 62
256
370
-1
  6
ByLayer
 10
74.9929098563320764
 20
-410.2853702979094805
 30
0.0
 11
74.9929098563320196
 21
-412.0076794048309239
 31
0.0
  0
LINE
  5
2D9
100
AcDbEntity
100
AcDbLine
  8
10 artwork
 62
256
370
-1
  6
ByLayer
 10
74.9929098563320196
 20
-412.0076794048309239
 30
0.0
 11
74.9929098563319201
 21
-413.7299881418936138
 31
0.0
  0
LINE
  5
2DA
100
AcDbEntity
100
AcDbLine
  8
10 artwork
 62
256
370
-1
  6
ByLayer
 10
74.9929098563319201
 20
-413.7299881418936138
 30
0.0
 11
76.0367334005867548
 21
-413.7299881418937275
 31
0.0
  0
LINE
  5
2DB
100
AcDbEntity
100
AcDbLine
  8
10 artwork
 62
256
370
-1
  6
ByLayer
 10
76.0367334005867548
 20
-413.7299881418937275
 30
0.0
 11
76.0367334005867548
 21
-413.7299881418937275
 31
0.0
  0
SPLINE
  5
2DC
  8
10 artwork
 62
256
370
-1
  6
ByLayer
100
AcDbEntity
100
AcDbSpline
 70
8
 71
3
 72
8
 73
4
 74
0
 40
0.0
 40
0.0
 40
0.0
 40
0.0
 40
1.0
 40
1.0
 40
1.0
 40
1.0
 10
69.1294382488276682
 20
-417.8521961204738204
 30
0.0
 10
69.3744186403143317
 20
-417.3239575443076887
 30
0.0
 10
69.9645024101975395
 20
-416.8008807170695604
 30
0.0
 10
70.4755199923937994
 20
-416.6589710868558996
 30
0.0
  0
SPLINE
  5
2DD
  8
10 artwork
 62
256
370
-1
  6
ByLayer
100
AcDbEntity
100
AcDbSpline
 70
8
 71
3
 72
8
 73
4
 74
0
 40
0.0
 40
0.0
 40
0.0
 40
0.0
 40
1.0
 40
1.0
 40
1.0
 40
1.0
 10
70.4755199923937994
 20
-416.6589710868558996
 30
0.0
 10
70.991351656278681
 20
-416.5157229377708177
 30
0.0
 10
74.3030992182723935
 20
-416.5173469876091872
 30
0.0
 10
74.8208138331314956
 20
-416.6611022130613833
 30
0.0
  0
SPLINE
  5
2DE
  8
10 artwork
 62
256
370
-1
  6
ByLayer
100
AcDbEntity
100
AcDbSpline
 70
8
 71
3
 72
8
 73
4
 74
0
 40
0.0
 40
0.0
 40
0.0
 40
0.0
 40
1.0
 40
1.0
 40
1.0
 40
1.0
 10
74.8208138331314956
 20
-416.6611022130613833
 30
0.0
 10
75.3481336801249739
 20
-416.8075237503526296
 30
0.0
 10
76.0566391993340574
 20
-417.5221859385687253
 30
0.0
 10
76.2215070726846875
 20
-418.0739667648624049
 30
0.0
  0
SPLINE
  5
2DF
  8
10 artwork
 62
256
370
-1
  6
ByLayer
100
AcDbEntity
100
AcDbSpline
 70
8
 71
3
 72
8
 73
4
 74
0
 40
0.0
 40
0.0
 40
0.0
 40
0.0
 40
1.0
 40
1.0
 40
1.0
 40
1.0
 10
76.2215070726846875
 20
-418.0739667648624049
 30
0.0
 10
76.3942222394582444
 20
-418.652007933349239
 30
0.0
 10
76.3942222394581734
 20
-421.9601460436528555
 30
0.0
 10
76.2215070726845028
 20
-422.5381875819983861
 30
0.0
  0
SPLINE
  5
2E0
  8
10 artwork
 62
256
370
-1
  6
ByLayer
100
AcDbEntity
100
AcDbSpline
 70
8
 71
3
 72
8
 73
4
 74
0
 40
0.0
 40
0.0
 40
0.0
 40
0.0
 40
1.0
 40
1.0
 40
1.0
 40
1.0
 10
76.2215070726845028
 20
-422.5381875819983861
 30
0.0
 10
76.0464233303783033
 20
-423.1241588922716232
 30
0.0
 10
75.3722196226370897
 20
-423.7801966168973422
 30
0.0
 10
74.7725650174839132
 20
-423.9480895650892762
 30
0.0
  0
SPLINE
  5
2E1
  8
10 artwork
 62
256
370
-1
  6
ByLayer
100
AcDbEntity
100
AcDbSpline
 70
8
 71
3
 72
8
 73
4
 74
0
 40
0.0
 40
0.0
 40
0.0
 40
0.0
 40
1.0
 40
1.0
 40
1.0
 40
1.0
 10
74.7725650174839132
 20
-423.9480895650892762
 30
0.0
 10
74.4428533116021924
 20
-424.0404029841732267
 30
0.0
 10
73.7091696569474806
 20
-424.0703545168441906
 30
0.0
 10
72.3672281123992889
 20
-424.0462848481175797
 30
0.0
  0
SPLINE
  5
2E2
  8
10 artwork
 62
256
370
-1
  6
ByLayer
100
AcDbEntity
100
AcDbSpline
 70
8
 71
3
 72
8
 73
4
 74
0
 40
0.0
 40
0.0
 40
0.0
 40
0.0
 40
1.0
 40
1.0
 40
1.0
 40
1.0
 10
72.3672281123992889
 20
-424.0462848481175797
 30
0.0
 10
70.4604356725105703
 20
-424.0120840080923017
 30
0.0
 10
70.430879888718664
 20
-424.0080540269859171
 30
0.0
 10
70.0015604091844068
 20
-423.723708087676755
 30
0.0
  0
SPLINE
  5
2E3
  8
10 artwork
 62
256
370
-1
  6
ByLayer
100
AcDbEntity
100
AcDbSpline
 70
8
 71
3
 72
8
 73
4
 74
0
 40
0.0
 40
0.0
 40
0.0
 40
0.0
 40
1.0
 40
1.0
 40
1.0
 40
1.0
 10
70.0015604091844068
 20
-423.723708087676755
 30
0.0
 10
69.7624474571515663
 20
-423.5653401122671653
 30
0.0
 10
69.4372347132893282
 20
-423.2401232999598619
 30
0.0
 10
69.2788671077355644
 20
-423.001006279480066
 30
0.0
  0
LINE
  5
2E4
100
AcDbEntity
100
AcDbLine
  8
10 artwork
 62
256
370
-1
  6
ByLayer
 10
69.2788671077355644
 20
-423.001006279480066
 30
0.0
 11
68.9909239220796309
 21
-422.5662465473673137
 31
0.0
  0
LINE
  5
2E5
100
AcDbEntity
100
AcDbLine
  8
10 artwork
 62
256
370
-1
  6
ByLayer
 10
68.9909239220796309
 20
-422.5662465473673137
 30
0.0
 11
68.9631552958405933
 21
-420.4184330540753649
 31
0.0
  0
SPLINE
  5
2E6
  8
10 artwork
 62
256
370
-1
  6
ByLayer
100
AcDbEntity
100
AcDbSpline
 70
8
 71
3
 72
8
 73
4
 74
0
 40
0.0
 40
0.0
 40
0.0
 40
0.0
 40
1.0
 40
1.0
 40
1.0
 40
1.0
 10
68.9631552958405933
 20
-420.4184330540753649
 30
0.0
 10
68.9384553877773243
 20
-418.5080041628064578
 30
0.0
 10
68.9568329301077512
 20
-418.2243753796432202
 30
0.0
 10
69.1294382488276682
 20
-417.8521961204738204
 30
0.0
  0
LINE
  5
2E7
100
AcDbEntity
100
AcDbLine
  8
10 artwork
 62
256
370
-1
  6
ByLayer
 10
69.1294382488276682
 20
-417.8521961204738204
 30
0.0
 11
69.1294382488276682
 21
-417.8521961204738204
 31
0.0
  0
LINE
  5
2E8
100
AcDbEntity
100
AcDbLine
  8
10 artwork
 62
256
370
-1
  6
ByLayer
 10
72.6468306130436901
 20
-422.0805772356492866
 30
0.0
 11
74.3716636361792638
 21
-422.0805772356494003
 31
0.0
  0
LINE
  5
2E9
100
AcDbEntity
100
AcDbLine
  8
10 artwork
 62
256
370
-1
  6
ByLayer
 10
74.3716636361792638
 20
-422.0805772356494003
 30
0.0
 11
74.3430439649224297
 21
-420.3321727435437083
 31
0.0
  0
LINE
  5
2EA
100
AcDbEntity
100
AcDbLine
  8
10 artwork
 62
256
370
-1
  6
ByLayer
 10
74.3430439649224297
 20
-420.3321727435437083
 30
0.0
 11
74.3144246635242069
 21
-418.5837682514381868
 31
0.0
  0
LINE
  5
2EB
100
AcDbEntity
100
AcDbLine
  8
10 artwork
 62
256
370
-1
  6
ByLayer
 10
74.3144246635242069
 20
-418.5837682514381868
 30
0.0
 11
72.6182113116453536
 21
-418.5550868137673888
 31
0.0
  0
LINE
  5
2EC
100
AcDbEntity
100
AcDbLine
  8
10 artwork
 62
256
370
-1
  6
ByLayer
 10
72.6182113116453536
 20
-418.5550868137673888
 30
0.0
 11
70.9219975899079458
 21
-418.5264057459551168
 31
0.0
  0
LINE
  5
2ED
100
AcDbEntity
100
AcDbLine
  8
10 artwork
 62
256
370
-1
  6
ByLayer
 10
70.9219975899079458
 20
-418.5264057459551168
 30
0.0
 11
70.921997589908031
 21
-420.3034916757317205
 31
0.0
  0
LINE
  5
2EE
100
AcDbEntity
100
AcDbLine
  8
10 artwork
 62
256
370
-1
  6
ByLayer
 10
70.921997589908031
 20
-420.3034916757317205
 30
0.0
 11
70.9219975899081163
 21
-422.0805772356492298
 31
0.0
  0
LINE
  5
2EF
100
AcDbEntity
100
AcDbLine
  8
10 artwork
 62
256
370
-1
  6
ByLayer
 10
70.9219975899081163
 20
-422.0805772356492298
 30
0.0
 11
72.6468306130436901
 21
-422.0805772356492866
 31
0.0
  0
LINE
  5
2F0
100
AcDbEntity
100
AcDbLine
  8
10 artwork
 62
256
370
-1
  6
ByLayer
 10
72.6468306130436901
 20
-422.0805772356492866
 30
0.0
 11
72.6468306130436901
 21
-422.0805772356492866
 31
0.0
  0
SPLINE
  5
2F1
  8
10 artwork
 62
256
370
-1
  6
ByLayer
100
AcDbEntity
100
AcDbSpline
 70
8
 71
3
 72
8
 73
4
 74
0
 40
0.0
 40
0.0
 40
0.0
 40
0.0
 40
1.0
 40
1.0
 40
1.0
 40
1.0
 10
69.0621139673610145
 20
-426.0992983618464791
 30
0.0
 10
69.2538317377799899
 20
-425.5633741205378442
 30
0.0
 10
69.6791471263178863
 20
-425.0920168636010317
 30
0.0
 10
70.1799987704915793
 20
-424.8604005788809559
 30
0.0
  0
SPLINE
  5
2F2
  8
10 artwork
 62
256
370
-1
  6
ByLayer
100
AcDbEntity
100
AcDbSpline
 70
8
 71
3
 72
8
 73
4
 74
0
 40
0.0
 40
0.0
 40
0.0
 40
0.0
 40
1.0
 40
1.0
 40
1.0
 40
1.0
 10
70.1799987704915793
 20
-424.8604005788809559
 30
0.0
 10
70.6365317182574444
 20
-424.6492800176387163
 30
0.0
 10
70.8179367167212916
 20
-424.6379449560594139
 30
0.0
 10
73.7403213813112188
 20
-424.6379449560593571
 30
0.0
  0
SPLINE
  5
2F3
  8
10 artwork
 62
256
370
-1
  6
ByLayer
100
AcDbEntity
100
AcDbSpline
 70
8
 71
3
 72
8
 73
4
 74
0
 40
0.0
 40
0.0
 40
0.0
 40
0.0
 40
1.0
 40
1.0
 40
1.0
 40
1.0
 10
73.7403213813112188
 20
-424.6379449560593571
 30
0.0
 10
75.433925379600808
 20
-424.6379449560593571
 30
0.0
 10
76.9501221828206923
 20
-424.674407112575409
 30
0.0
 10
77.1096485558832256
 20
-424.7189717650622924
 30
0.0
  0
SPLINE
  5
2F4
  8
10 artwork
 62
256
370
-1
  6
ByLayer
100
AcDbEntity
100
AcDbSpline
 70
8
 71
3
 72
8
 73
4
 74
0
 40
0.0
 40
0.0
 40
0.0
 40
0.0
 40
1.0
 40
1.0
 40
1.0
 40
1.0
 10
77.1096485558832256
 20
-424.7189717650622924
 30
0.0
 10
77.700746108643088
 20
-424.8841007587010949
 30
0.0
 10
77.8867366160785366
 20
-425.9662564653890513
 30
0.0
 10
77.3997646617892912
 20
-426.4069609374362244
 30
0.0
  0
SPLINE
  5
2F5
  8
10 artwork
 62
256
370
-1
  6
ByLayer
100
AcDbEntity
100
AcDbSpline
 70
8
 71
3
 72
8
 73
4
 74
0
 40
0.0
 40
0.0
 40
0.0
 40
0.0
 40
1.0
 40
1.0
 40
1.0
 40
1.0
 10
77.3997646617892912
 20
-426.4069609374362244
 30
0.0
 10
77.2905224371598649
 20
-426.5058238155357913
 30
0.0
 10
77.0137223563798585
 20
-426.6118490086247448
 30
0.0
 10
76.7846529191174483
 20
-426.6425739159736281
 30
0.0
  0
LINE
  5
2F6
100
AcDbEntity
100
AcDbLine
  8
10 artwork
 62
256
370
-1
  6
ByLayer
 10
76.7846529191174483
 20
-426.6425739159736281
 30
0.0
 11
76.3681631004330654
 21
-426.6984373838812417
 31
0.0
  0
LINE
  5
2F7
100
AcDbEntity
100
AcDbLine
  8
10 artwork
 62
256
370
-1
  6
ByLayer
 10
76.3681631004330654
 20
-426.6984373838812417
 30
0.0
 11
76.332926655865208
 21
-427.7911629143631558
 31
0.0
  0
SPLINE
  5
2F8
  8
10 artwork
 62
256
370
-1
  6
ByLayer
100
AcDbEntity
100
AcDbSpline
 70
8
 71
3
 72
8
 73
4
 74
0
 40
0.0
 40
0.0
 40
0.0
 40
0.0
 40
1.0
 40
1.0
 40
1.0
 40
1.0
 10
76.332926655865208
 20
-427.7911629143631558
 30
0.0
 10
76.2991245235891569
 20
-428.8393907367947122
 30
0.0
 10
76.2857626359759422
 20
-428.8941390805247806
 30
0.0
 10
76.0048175480135342
 20
-429.1356150602093749
 30
0.0
  0
SPLINE
  5
2F9
  8
10 artwork
 62
256
370
-1
  6
ByLayer
100
AcDbEntity
100
AcDbSpline
 70
8
 71
3
 72
8
 73
4
 74
0
 40
0.0
 40
0.0
 40
0.0
 40
0.0
 40
1.0
 40
1.0
 40
1.0
 40
1.0
 10
76.0048175480135342
 20
-429.1356150602093749
 30
0.0
 10
75.8199440140490708
 20
-429.294516371958764
 30
0.0
 10
75.5815156705902496
 20
-429.3873427851499969
 30
0.0
 10
75.3582482077788143
 20
-429.3873427851502242
 30
0.0
  0
SPLINE
  5
2FA
  8
10 artwork
 62
256
370
-1
  6
ByLayer
100
AcDbEntity
100
AcDbSpline
 70
8
 71
3
 72
8
 73
4
 74
0
 40
0.0
 40
0.0
 40
0.0
 40
0.0
 40
1.0
 40
1.0
 40
1.0
 40
1.0
 10
75.3582482077788143
 20
-429.3873427851502242
 30
0.0
 10
75.1349807449671658
 20
-429.3873427851501674
 30
0.0
 10
74.8965524015083446
 20
-429.2945163719588209
 30
0.0
 10
74.7116788675439381
 20
-429.1356150602093749
 30
0.0
  0
SPLINE
  5
2FB
  8
10 artwork
 62
256
370
-1
  6
ByLayer
100
AcDbEntity
100
AcDbSpline
 70
8
 71
3
 72
8
 73
4
 74
0
 40
0.0
 40
0.0
 40
0.0
 40
0.0
 40
1.0
 40
1.0
 40
1.0
 40
1.0
 10
74.7116788675439381
 20
-429.1356150602093749
 30
0.0
 10
74.4303224966346164
 20
-428.8937862352626667
 30
0.0
 10
74.4174070285513807
 20
-428.840430039925252
 30
0.0
 10
74.3832102569724753
 20
-427.7786443047348257
 30
0.0
  0
LINE
  5
2FC
100
AcDbEntity
100
AcDbLine
  8
10 artwork
 62
256
370
-1
  6
ByLayer
 10
74.3832102569724753
 20
-427.7786443047348257
 30
0.0
 11
74.3476128302498438
 21
-426.673401274200728
 31
0.0
  0
LINE
  5
2FD
100
AcDbEntity
100
AcDbLine
  8
10 artwork
 62
256
370
-1
  6
ByLayer
 10
74.3476128302498438
 20
-426.673401274200728
 30
0.0
 11
72.6401679772459374
 21
-426.6734012742006712
 31
0.0
  0
LINE
  5
2FE
100
AcDbEntity
100
AcDbLine
  8
10 artwork
 62
256
370
-1
  6
ByLayer
 10
72.6401679772459374
 20
-426.6734012742006712
 30
0.0
 11
70.9327231242422727
 21
-426.6734012742006712
 31
0.0
  0
LINE
  5
2FF
100
AcDbEntity
100
AcDbLine
  8
10 artwork
 62
256
370
-1
  6
ByLayer
 10
70.9327231242422727
 20
-426.6734012742006712
 30
0.0
 11
70.9012644171031212
 21
-429.1181928630711582
 31
0.0
  0
SPLINE
  5
300
  8
10 artwork
 62
256
370
-1
  6
ByLayer
100
AcDbEntity
100
AcDbSpline
 70
8
 71
3
 72
8
 73
4
 74
0
 40
0.0
 40
0.0
 40
0.0
 40
0.0
 40
1.0
 40
1.0
 40
1.0
 40
1.0
 10
70.9012644171031212
 20
-429.1181928630711582
 30
0.0
 10
70.87007792601473
 20
-431.5419221048354075
 30
0.0
 10
70.8676261322600851
 20
-431.5653016171061154
 30
0.0
 10
70.6167513016316946
 20
-431.8321340041617304
 30
0.0
  0
SPLINE
  5
301
  8
10 artwork
 62
256
370
-1
  6
ByLayer
100
AcDbEntity
100
AcDbSpline
 70
8
 71
3
 72
8
 73
4
 74
0
 40
0.0
 40
0.0
 40
0.0
 40
0.0
 40
1.0
 40
1.0
 40
1.0
 40
1.0
 10
70.6167513016316946
 20
-431.8321340041617304
 30
0.0
 10
70.2981741938788076
 20
-432.1709727147941749
 30
0.0
 10
69.6127382452953896
 20
-432.205636248134681
 30
0.0
 10
69.2373478723282432
 20
-431.9018919563042687
 30
0.0
  0
SPLINE
  5
302
  8
10 artwork
 62
256
370
-1
  6
ByLayer
100
AcDbEntity
100
AcDbSpline
 70
8
 71
3
 72
8
 73
4
 74
0
 40
0.0
 40
0.0
 40
0.0
 40
0.0
 40
1.0
 40
1.0
 40
1.0
 40
1.0
 10
69.2373478723282432
 20
-431.9018919563042687
 30
0.0
 10
68.9911517550776523
 20
-431.7026834363151124
 30
0.0
 10
68.9909054291406818
 20
-431.7000581787991678
 30
0.0
 10
68.9705080880941921
 20
-429.0574724098582351
 30
0.0
  0
SPLINE
  5
303
  8
10 artwork
 62
256
370
-1
  6
ByLayer
100
AcDbEntity
100
AcDbSpline
 70
8
 71
3
 72
8
 73
4
 74
0
 40
0.0
 40
0.0
 40
0.0
 40
0.0
 40
1.0
 40
1.0
 40
1.0
 40
1.0
 10
68.9705080880941921
 20
-429.0574724098582351
 30
0.0
 10
68.9576000171858965
 20
-427.3852669602923697
 30
0.0
 10
68.9912926712689654
 20
-426.2972719234181795
 30
0.0
 10
69.0621139673610145
 20
-426.0992983618464791
 30
0.0
  0
LINE
  5
304
100
AcDbEntity
100
AcDbLine
  8
10 artwork
 62
256
370
-1
  6
ByLayer
 10
69.0621139673610145
 20
-426.0992983618464791
 30
0.0
 11
69.0621139673610145
 21
-426.0992983618464791
 31
0.0
  0
LINE
  5
305
100
AcDbEntity
100
AcDbLine
  8
07 belt
 62
256
370
-1
  6
ByLayer
 10
-260.4879581815858387
 20
-646.0003353361016707
 30
0.0
 11
-175.4879581815858103
 21
-731.0003353361016707
 31
0.0
  0
DIMENSION
  5
306
100
AcDbEntity
  8
drw, specs
 62
256
370
-1
  6
ByLayer
100
AcDbDimension
 10
-267.487958181585725
 20
-646.0003353361016707
 30
0.0
 11
-269.362958181585725
 21
-688.500335336101557
 31
0.0
 70
1
 71
5
 72
1
 41
1.0
 42
0.0
  1

  3
Standard
100
AcDbAlignedDimension
 13
-260.4879581815858387
 23
-646.0003353361016707
 33
0.0
 14
-260.4879581815858387
 24
-731.0003353361016707
 34
0.0
  0
DIMENSION
  5
307
100
AcDbEntity
  8
drw, specs
 62
256
370
-1
  6
ByLayer
100
AcDbDimension
 10
-260.4879581815858387
 20
-646.0003353361016707
 30
0.0
 11
-98.4835164433440013
 21
-687.5628141662814414
 31
0.0
 70
2
 71
5
 72
1
 41
1.0
 42
0.0
  1

  3
Standard
100
AcDb2LineAngularDimension
 13
-175.4879581815858103
 23
-731.0003353361016707
 33
0.0
 14
70.5120418184141755
 24
-731.0003353361020118
 34
0.0
 15
-175.4879581815858103
 25
-731.0003353361016707
 35
0.0
 16
-207.487958181585725
 26
-708.5003353361016707
 36
0.0
  0
MTEXT
  5
308
100
AcDbEntity
100
AcDbMText
  8
drw, specs
 62
256
370
-1
  6
ByLayer
 10
-258.4835164433440013
 20
-607.5628141662814414
 30
0.0
 40
5.0
 41
100.0
 71
1
 72
2
  1
Units:\~mm\P\PCut\~from\~5\~mil\~(0.005")\~PET\~film
  7
standard
 50
0.0
 73
1
 44
1.0
  0
LINE
  5
309
100
AcDbEntity
100
AcDbLine
  8
07 belt
 62
256
370
-1
  6
ByLayer
 10
75.5164835566566097
 20
-731.0003353361020118
 30
0.0
 11
-9.4835164433440582
 21
-646.0003353361017844
 31
0.0
  0
LINE
  5
30A
100
AcDbEntity
100
AcDbLine
  8
07 belt
 62
256
370
-1
  6
ByLayer
 10
-260.4835164433440013
 20
-646.0008141662814296
 30
0.0
 11
-9.4835164433440013
 21
-646.0008141662814296
 31
0.0
  0
LINE
  5
30B
100
AcDbEntity
100
AcDbLine
  8
07 belt
 62
256
370
-1
  6
ByLayer
 10
75.5164835566559844
 20
-731.0008141662815433
 30
0.0
 11
-175.4835164433440298
 21
-731.0008141662813159
 31
0.0
  0
DIMENSION
  5
30C
100
AcDbEntity
  8
drw, specs
 62
256
370
-1
  6
ByLayer
100
AcDbDimension
 10
-260.4835307485928979
 20
-638.5021167509736415
 30
0.0
 11
-134.9835343255263638
 21
-636.6268773358872295
 31
0.0
 70
1
 71
5
 72
1
 41
1.0
 42
0.0
  1

  3
Standard
100
AcDbAlignedDimension
 13
-260.4835164433440013
 23
-646.0008141662814296
 33
0.0
 14
-9.4835164433440013
 24
-646.0003353361017844
 34
0.0
  0
DIMENSION
  5
30D
100
AcDbEntity
  8
drw, specs
 62
256
370
-1
  6
ByLayer
100
AcDbDimension
 10
75.5164835566566097
 20
-738.5004870670524042
 30
0.0
 11
-92.4835235959681796
 21
-736.6254870670522905
 31
0.0
 70
1
 71
5
 72
1
 41
1.0
 42
0.0
  1

  3
Standard
100
AcDbAlignedDimension
 13
75.5164835566566097
 23
-731.0003353361020118
 33
0.0
 14
-260.4835307485929548
 24
-731.0003353361017844
 34
0.0
  0
DIMENSION
  5
30E
100
AcDbEntity
  8
drw, specs
 62
256
370
-1
  6
ByLayer
100
AcDbDimension
 10
-9.4835164433440013
 20
-638.5003353361017844
 30
0.0
 11
33.0164835566562971
 21
-636.6253353361017844
 31
0.0
 70
1
 71
5
 72
1
 41
1.0
 42
0.0
  1

  3
Standard
100
AcDbAlignedDimension
 13
-9.4835164433440013
 23
-646.0003353361017844
 33
0.0
 14
75.5164835566566381
 24
-646.0003353361016707
 34
0.0
  0
ENDSEC
  0
SECTION
  2
OBJECTS
  0
DICTIONARY
  5
C
100
AcDbDictionary
280
0
281
1
  3
ACAD_GROUP
350
D
  3
ACAD_LAYOUT
350
1A
  3
ACAD_MLINESTYLE
350
17
  3
ACAD_PLOTSETTINGS
350
19
  3
ACAD_PLOTSTYLENAME
350
E
  3
AcDbVariableDictionary
350
30F
  0
DICTIONARY
  5
D
100
AcDbDictionary
280
0
281
1
  0
ACDBDICTIONARYWDFLT
  5
E
100
AcDbDictionary
281
1
  3
Normal
350
F
100
AcDbDictionaryWithDefault
340
F
  0
ACDBPLACEHOLDER
  5
F
  0
DICTIONARY
  5
17
100
AcDbDictionary
280
0
281
1
  3
Standard
350
18
  0
MLINESTYLE
  5
18
100
AcDbMlineStyle
  2
STANDARD
 70
0
  3

 62
256
 51
90.0
 52
90.0
 71
2
 49
0.5
 62
256
  6
BYLAYER
 49
-0.5
 62
256
  6
BYLAYER
  0
DICTIONARY
  5
19
100
AcDbDictionary
280
0
281
1
  0
DICTIONARY
  5
1A
100
AcDbDictionary
281
1
  3
Layout1
350
1E
  3
Layout2
350
26
  3
Model
350
22
  0
LAYOUT
  5
1E
100
AcDbPlotSettings
  1

  2
C:\Program Files\AutoCAD 2002\plotters\DWF ePlot (optimized for plotting).pc3
  4

  6

 40
0.0
 41
0.0
 42
0.0
 43
0.0
 44
0.0
 45
0.0
 46
0.0
 47
0.0
 48
0.0
 49
0.0
140
0.0
141
0.0
142
1.0
143
1.0
 70
688
 72
0
 73
0
 74
5
  7

 75
16
147
1.0
148
0.0
149
0.0
100
AcDbLayout
  1
Layout1
 70
1
 71
1
 10
0.0
 20
0.0
 11
420.0
 21
297.0
 12
0.0
 22
0.0
 32
0.0
 14
100000000000000000000.0
 24
100000000000000000000.0
 34
100000000000000000000.0
 15
-100000000000000000000.0
 25
-100000000000000000000.0
 35
-100000000000000000000.0
146
0.0
 13
0.0
 23
0.0
 33
0.0
 16
1.0
 26
0.0
 36
0.0
 17
0.0
 27
1.0
 37
0.0
 76
0
330
1B
  0
LAYOUT
  5
22
100
AcDbPlotSettings
  1

  2
C:\Program Files\AutoCAD 2002\plotters\DWF ePlot (optimized for plotting).pc3
  4

  6

 40
0.0
 41
0.0
 42
0.0
 43
0.0
 44
0.0
 45
0.0
 46
0.0
 47
0.0
 48
0.0
 49
0.0
140
0.0
141
0.0
142
1.0
143
1.0
 70
1712
 72
0
 73
0
 74
0
  7

 75
0
147
1.0
148
0.0
149
0.0
100
AcDbLayout
  1
Model
 70
1
 71
0
 10
0.0
 20
0.0
 11
12.0
 21
9.0
 12
0.0
 22
0.0
 32
0.0
 14
0.0
 24
0.0
 34
0.0
 15
0.0
 25
0.0
 35
0.0
146
0.0
 13
0.0
 23
0.0
 33
0.0
 16
1.0
 26
0.0
 36
0.0
 17
0.0
 27
1.0
 37
0.0
 76
0
330
1F
  0
LAYOUT
  5
26
100
AcDbPlotSettings
  1

  2
C:\Program Files\AutoCAD 2002\plotters\DWF ePlot (optimized for plotting).pc3
  4

  6

 40
0.0
 41
0.0
 42
0.0
 43
0.0
 44
0.0
 45
0.0
 46
0.0
 47
0.0
 48
0.0
 49
0.0
140
0.0
141
0.0
142
1.0
143
1.0
 70
688
 72
0
 73
0
 74
5
  7

 75
16
147
1.0
148
0.0
149
0.0
100
AcDbLayout
  1
Layout2
 70
1
 71
2
 10
0.0
 20
0.0
 11
12.0
 21
9.0
 12
0.0
 22
0.0
 32
0.0
 14
0.0
 24
0.0
 34
0.0
 15
0.0
 25
0.0
 35
0.0
146
0.0
 13
0.0
 23
0.0
 33
0.0
 16
1.0
 26
0.0
 36
0.0
 17
0.0
 27
1.0
 37
0.0
 76
0
330
23
  0
DICTIONARY
  5
30F
100
AcDbDictionary
281
1
  3
DIMASSOC
350
311
  3
HIDETEXT
350
310
  0
DICTIONARYVAR
  5
310
100
DictionaryVariables
280
0
  1
2
  0
DICTIONARYVAR
  5
311
100
DictionaryVariables
280
0
  1
1
  0
ENDSEC
  0
EOF
