999
dxflib 2.2.0.0
  0
SECTION
  2
HEADER
  9
$ACADVER
  1
AC1015
  9
$HANDSEED
  5
FFFF
  9
$DIMASZ
 40
2.5
  9
$PLIMMIN
 10
0.0
 20
0.0
  9
$DIMEXE
 40
1.25
  9
$DIMGAP
 40
0.625
  9
$PLIMMAX
 10
210.0
 20
297.0
  9
$INSUNITS
 70
4
  9
$DIMSTYLE
  2
Standard
  9
$CLAYER
  8
1 bottom
  9
$DIMEXO
 40
0.625
  9
$DIMTXT
 40
2.5
  9
$CLAYER
  8
2 top
  0
ENDSEC
  0
SECTION
  2
TABLES
  0
TABLE
  2
VPORT
  5
8
100
AcDbSymbolTable
 70
1
  0
VPORT
  5
30
100
AcDbSymbolTableRecord
100
AcDbViewportTableRecord
  2
*Active
 70
0
 10
0.0
 20
0.0
 11
1.0
 21
1.0
 12
286.3055555555554861
 22
148.5
 13
0.0
 23
0.0
 14
10.0
 24
10.0
 15
10.0
 25
10.0
 16
0.0
 26
0.0
 36
1.0
 17
0.0
 27
0.0
 37
0.0
 40
297.0
 41
1.92798353909465
 42
50.0
 43
0.0
 44
0.0
 50
0.0
 51
0.0
 71
0
 72
100
 73
1
 74
3
 75
1
 76
1
 77
0
 78
0
281
0
 65
1
110
0.0
120
0.0
130
0.0
111
1.0
121
0.0
131
0.0
112
0.0
122
1.0
132
0.0
 79
0
146
0.0
  0
ENDTAB
  0
TABLE
  2
LTYPE
  5
5
100
AcDbSymbolTable
 70
21
  0
LTYPE
  5
14
100
AcDbSymbolTableRecord
100
AcDbLinetypeTableRecord
  2
ByBlock
 70
0
  3

 72
65
 73
0
 40
0.0
  0
LTYPE
  5
15
100
AcDbSymbolTableRecord
100
AcDbLinetypeTableRecord
  2
ByLayer
 70
0
  3

 72
65
 73
0
 40
0.0
  0
LTYPE
  5
16
100
AcDbSymbolTableRecord
100
AcDbLinetypeTableRecord
  2
CONTINUOUS
 70
0
  3
Solid line
 72
65
 73
0
 40
0.0
  0
LTYPE
  5
31
100
AcDbSymbolTableRecord
100
AcDbLinetypeTableRecord
  2
DOT
 70
0
  3
Dot . . . . . . . . . . . . . . . . . . . . . .
 72
65
 73
2
 40
6.3499999999999996
 49
0.0
 74
0
 49
-6.3499999999999996
 74
0
  0
LTYPE
  5
32
100
AcDbSymbolTableRecord
100
AcDbLinetypeTableRecord
  2
DOT2
 70
0
  3
Dot (.5x) .....................................
 72
65
 73
2
 40
3.1749999999999998
 49
0.0
 74
0
 49
-3.1749999999999998
 74
0
  0
LTYPE
  5
33
100
AcDbSymbolTableRecord
100
AcDbLinetypeTableRecord
  2
DOTX2
 70
0
  3
Dot (2x) .  .  .  .  .  .  .  .  .  .  .  .  .
 72
65
 73
2
 40
12.6999999999999993
 49
0.0
 74
0
 49
-12.6999999999999993
 74
0
  0
LTYPE
  5
34
100
AcDbSymbolTableRecord
100
AcDbLinetypeTableRecord
  2
DASHED
 70
0
  3
Dashed __ __ __ __ __ __ __ __ __ __ __ __ __ _
 72
65
 73
2
 40
19.0500000000000007
 49
12.6999999999999993
 74
0
 49
-6.3499999999999996
 74
0
  0
LTYPE
  5
35
100
AcDbSymbolTableRecord
100
AcDbLinetypeTableRecord
  2
DASHED2
 70
0
  3
Dashed (.5x) _ _ _ _ _ _ _ _ _ _ _ _ _ _ _ _ _
 72
65
 73
2
 40
9.5250000000000004
 49
6.3499999999999996
 74
0
 49
-3.1749999999999998
 74
0
  0
LTYPE
  5
36
100
AcDbSymbolTableRecord
100
AcDbLinetypeTableRecord
  2
DASHEDX2
 70
0
  3
Dashed (2x) ____  ____  ____  ____  ____  ___
 72
65
 73
2
 40
38.1000000000000014
 49
25.3999999999999986
 74
0
 49
-12.6999999999999993
 74
0
  0
LTYPE
  5
37
100
AcDbSymbolTableRecord
100
AcDbLinetypeTableRecord
  2
DASHDOT
 70
0
  3
Dash dot __ . __ . __ . __ . __ . __ . __ . __
 72
65
 73
4
 40
25.3999999999999986
 49
12.6999999999999993
 74
0
 49
-6.3499999999999996
 74
0
 49
0.0
 74
0
 49
-6.3499999999999996
 74
0
  0
LTYPE
  5
38
100
AcDbSymbolTableRecord
100
AcDbLinetypeTableRecord
  2
DASHDOT2
 70
0
  3
Dash dot (.5x) _._._._._._._._._._._._._._._.
 72
65
 73
4
 40
12.6999999999999993
 49
6.3499999999999996
 74
0
 49
-3.1749999999999998
 74
0
 49
0.0
 74
0
 49
-3.1749999999999998
 74
0
  0
LTYPE
  5
39
100
AcDbSymbolTableRecord
100
AcDbLinetypeTableRecord
  2
DASHDOTX2
 70
0
  3
Dash dot (2x) ____  .  ____  .  ____  .  ___
 72
65
 73
4
 40
50.7999999999999972
 49
25.3999999999999986
 74
0
 49
-12.6999999999999993
 74
0
 49
0.0
 74
0
 49
-12.6999999999999993
 74
0
  0
LTYPE
  5
3A
100
AcDbSymbolTableRecord
100
AcDbLinetypeTableRecord
  2
DIVIDE
 70
0
  3
Divide ____ . . ____ . . ____ . . ____ . . ____
 72
65
 73
6
 40
31.75
 49
12.6999999999999993
 74
0
 49
-6.3499999999999996
 74
0
 49
0.0
 74
0
 49
-6.3499999999999996
 74
0
 49
0.0
 74
0
 49
-6.3499999999999996
 74
0
  0
LTYPE
  5
3B
100
AcDbSymbolTableRecord
100
AcDbLinetypeTableRecord
  2
DIVIDE2
 70
0
  3
Divide (.5x) __..__..__..__..__..__..__..__.._
 72
65
 73
6
 40
15.875
 49
6.3499999999999996
 74
0
 49
-3.1749999999999998
 74
0
 49
0.0
 74
0
 49
-3.1749999999999998
 74
0
 49
0.0
 74
0
 49
-3.1749999999999998
 74
0
  0
LTYPE
  5
3C
100
AcDbSymbolTableRecord
100
AcDbLinetypeTableRecord
  2
DIVIDEX2
 70
0
  3
Divide (2x) ________  .  .  ________  .  .  _
 72
65
 73
6
 40
63.5
 49
25.3999999999999986
 74
0
 49
-12.6999999999999993
 74
0
 49
0.0
 74
0
 49
-12.6999999999999993
 74
0
 49
0.0
 74
0
 49
-12.6999999999999993
 74
0
  0
LTYPE
  5
3D
100
AcDbSymbolTableRecord
100
AcDbLinetypeTableRecord
  2
CENTER
 70
0
  3
Center ____ _ ____ _ ____ _ ____ _ ____ _ ____
 72
65
 73
4
 40
50.7999999999999972
 49
31.75
 74
0
 49
-6.3499999999999996
 74
0
 49
6.3499999999999996
 74
0
 49
-6.3499999999999996
 74
0
  0
LTYPE
  5
3E
100
AcDbSymbolTableRecord
100
AcDbLinetypeTableRecord
  2
CENTER2
 70
0
  3
Center (.5x) ___ _ ___ _ ___ _ ___ _ ___ _ ___
 72
65
 73
4
 40
28.5749999999999993
 49
19.0500000000000007
 74
0
 49
-3.1749999999999998
 74
0
 49
3.1749999999999998
 74
0
 49
-3.1749999999999998
 74
0
  0
LTYPE
  5
3F
100
AcDbSymbolTableRecord
100
AcDbLinetypeTableRecord
  2
CENTERX2
 70
0
  3
Center (2x) ________  __  ________  __  _____
 72
65
 73
4
 40
101.5999999999999943
 49
63.5
 74
0
 49
-12.6999999999999993
 74
0
 49
12.6999999999999993
 74
0
 49
-12.6999999999999993
 74
0
  0
LTYPE
  5
40
100
AcDbSymbolTableRecord
100
AcDbLinetypeTableRecord
  2
BORDER
 70
0
  3
Border __ __ . __ __ . __ __ . __ __ . __ __ .
 72
65
 73
6
 40
44.4500000000000028
 49
12.6999999999999993
 74
0
 49
-6.3499999999999996
 74
0
 49
12.6999999999999993
 74
0
 49
-6.3499999999999996
 74
0
 49
0.0
 74
0
 49
-6.3499999999999996
 74
0
  0
LTYPE
  5
41
100
AcDbSymbolTableRecord
100
AcDbLinetypeTableRecord
  2
BORDER2
 70
0
  3
Border (.5x) __.__.__.__.__.__.__.__.__.__.__.
 72
65
 73
6
 40
22.2250000000000014
 49
6.3499999999999996
 74
0
 49
-3.1749999999999998
 74
0
 49
6.3499999999999996
 74
0
 49
-3.1749999999999998
 74
0
 49
0.0
 74
0
 49
-3.1749999999999998
 74
0
  0
LTYPE
  5
42
100
AcDbSymbolTableRecord
100
AcDbLinetypeTableRecord
  2
BORDERX2
 70
0
  3
Border (2x) ____  ____  .  ____  ____  .  ___
 72
65
 73
6
 40
88.9000000000000057
 49
25.3999999999999986
 74
0
 49
-12.6999999999999993
 74
0
 49
25.3999999999999986
 74
0
 49
-12.6999999999999993
 74
0
 49
0.0
 74
0
 49
-12.6999999999999993
 74
0
  0
ENDTAB
  0
TABLE
  2
LAYER
  5
2
100
AcDbSymbolTable
 70
26
  0
LAYER
  5
10
100
AcDbSymbolTableRecord
100
AcDbLayerTableRecord
  2
0
 70
0
 62
7
420
0
  6
CONTINUOUS
370
25
390
F
  0
LAYER
  5
43
100
AcDbSymbolTableRecord
100
AcDbLayerTableRecord
  2
3 side
 70
0
 62
7
420
0
  6
CONTINUOUS
370
0
390
F
  0
LAYER
  5
44
100
AcDbSymbolTableRecord
100
AcDbLayerTableRecord
  2
drw, plywood
 70
0
 62
4
420
65535
  6
CONTINUOUS
370
0
390
F
  0
LAYER
  5
45
100
AcDbSymbolTableRecord
100
AcDbLayerTableRecord
  2
1 bottom
 70
0
 62
7
420
0
  6
CONTINUOUS
370
0
390
F
  0
LAYER
  5
46
100
AcDbSymbolTableRecord
100
AcDbLayerTableRecord
  2
drw, build platform
 70
0
 62
2
420
16776960
  6
CONTINUOUS
370
0
390
F
  0
LAYER
  5
47
100
AcDbSymbolTableRecord
100
AcDbLayerTableRecord
  2
2 top
 70
0
 62
7
420
0
  6
CONTINUOUS
370
0
390
F
  0
LAYER
  5
48
100
AcDbSymbolTableRecord
100
AcDbLayerTableRecord
  2
4 side cover
 70
0
 62
7
420
0
  6
CONTINUOUS
370
0
390
F
  0
LAYER
  5
49
100
AcDbSymbolTableRecord
100
AcDbLayerTableRecord
  2
drw, PCB
 70
0
 62
3
420
65280
  6
CONTINUOUS
370
0
390
F
  0
LAYER
  5
4A
100
AcDbSymbolTableRecord
100
AcDbLayerTableRecord
  2
drw, tube
 70
0
 62
5
420
255
  6
CONTINUOUS
370
0
390
F
  0
LAYER
  5
4B
100
AcDbSymbolTableRecord
100
AcDbLayerTableRecord
  2
text
 70
0
 62
4
420
65535
  6
CONTINUOUS
370
0
390
F
  0
LAYER
  5
4C
100
AcDbSymbolTableRecord
100
AcDbLayerTableRecord
  2
archive, drawings, motor, Solarbotics GM3
 70
0
 62
2
420
16776960
  6
CONTINUOUS
370
0
390
F
  0
LAYER
  5
4D
100
AcDbSymbolTableRecord
100
AcDbLayerTableRecord
  2
drw, conveyor belt
 70
0
 62
6
420
16711935
  6
CONTINUOUS
370
0
390
F
  0
LAYER
  5
4E
100
AcDbSymbolTableRecord
100
AcDbLayerTableRecord
  2
5b gear, motor
 70
0
 62
7
420
0
  6
CONTINUOUS
370
0
390
F
  0
LAYER
  5
4F
100
AcDbSymbolTableRecord
100
AcDbLayerTableRecord
  2
drw, 6 scraper
 70
0
 62
4
420
65535
  6
CONTINUOUS
370
0
390
F
  0
LAYER
  5
50
100
AcDbSymbolTableRecord
100
AcDbLayerTableRecord
  2
drw, misc.
 70
0
 62
27
420
3289650
  6
CONTINUOUS
370
0
390
F
  0
LAYER
  5
51
100
AcDbSymbolTableRecord
100
AcDbLayerTableRecord
  2
6 scraper
 70
0
 62
7
420
0
  6
CONTINUOUS
370
0
390
F
  0
LAYER
  5
52
100
AcDbSymbolTableRecord
100
AcDbLayerTableRecord
  2
7 belt
 70
0
 62
7
420
0
  6
CONTINUOUS
370
0
390
F
  0
LAYER
  5
53
100
AcDbSymbolTableRecord
100
AcDbLayerTableRecord
  2
5a gear, shaft
 70
0
 62
7
420
0
  6
CONTINUOUS
370
0
390
F
  0
LAYER
  5
54
100
AcDbSymbolTableRecord
100
AcDbLayerTableRecord
  2
archive, 3 side w/ solarbotics GM3
 70
0
 62
1
420
16711680
  6
CONTINUOUS
370
0
390
F
  0
LAYER
  5
55
100
AcDbSymbolTableRecord
100
AcDbLayerTableRecord
  2
drw, motor, Kysan 25 mm
 70
0
 62
2
420
16776960
  6
CONTINUOUS
370
0
390
F
  0
LAYER
  5
56
100
AcDbSymbolTableRecord
100
AcDbLayerTableRecord
  2
drw, motor, Kysan 20 mm
 70
0
 62
2
420
16776960
  6
CONTINUOUS
370
0
390
F
  0
LAYER
  5
57
100
AcDbSymbolTableRecord
100
AcDbLayerTableRecord
  2
drw, motor, Kysan 17 mm
 70
0
 62
2
420
16776960
  6
CONTINUOUS
370
0
390
F
  0
LAYER
  5
58
100
AcDbSymbolTableRecord
100
AcDbLayerTableRecord
  2
archive, drw, brush, large
 70
0
 62
6
420
16711935
  6
CONTINUOUS
370
0
390
F
  0
LAYER
  5
59
100
AcDbSymbolTableRecord
100
AcDbLayerTableRecord
  2
drw, HBP
 70
0
 62
1
420
16711680
  6
CONTINUOUS
370
0
390
F
  0
LAYER
  5
5A
100
AcDbSymbolTableRecord
100
AcDbLayerTableRecord
  2
drw, random
 70
0
 62
5
420
255
  6
CONTINUOUS
370
0
390
F
  0
LAYER
  5
5B
100
AcDbSymbolTableRecord
100
AcDbLayerTableRecord
  2
drw, brush, small
 70
0
 62
43
420
13539889
  6
CONTINUOUS
370
0
390
F
  0
ENDTAB
  0
TABLE
  2
STYLE
  5
3
100
AcDbSymbolTable
 70
1
  0
STYLE
  5
11
100
AcDbSymbolTableRecord
100
AcDbTextStyleTableRecord
  2
Standard
 70
0
 40
0.0
 41
0.75
 50
0.0
 71
0
 42
2.5
  3
txt
  4

  0
ENDTAB
  0
TABLE
  2
VIEW
  5
6
100
AcDbSymbolTable
 70
0
  0
ENDTAB
  0
TABLE
  2
UCS
  5
7
100
AcDbSymbolTable
 70
0
  0
ENDTAB
  0
TABLE
  2
APPID
  5
9
100
AcDbSymbolTable
 70
1
  0
APPID
  5
12
100
AcDbSymbolTableRecord
100
AcDbRegAppTableRecord
  2
ACAD
 70
0
  0
ENDTAB
  0
TABLE
  2
DIMSTYLE
  5
A
100
AcDbSymbolTable
 70
1
100
AcDbDimStyleTable
 71
0
  0
DIMSTYLE
105
27
100
AcDbSymbolTableRecord
100
AcDbDimStyleTableRecord
  2
Standard
 41
2.5
 42
0.625
 43
3.75
 44
1.25
 70
0
 73
0
 74
0
 77
1
 78
8
140
2.5
141
2.5
143
0.03937007874016
147
0.625
171
3
172
1
271
2
272
2
274
3
278
44
283
0
284
8
340
11
  0
ENDTAB
  0
TABLE
  2
BLOCK_RECORD
  5
1
100
AcDbSymbolTable
 70
1
  0
BLOCK_RECORD
  5
1F
100
AcDbSymbolTableRecord
100
AcDbBlockTableRecord
  2
*Model_Space
340
22
  0
BLOCK_RECORD
  5
1B
100
AcDbSymbolTableRecord
100
AcDbBlockTableRecord
  2
*Paper_Space
340
1E
  0
BLOCK_RECORD
  5
23
100
AcDbSymbolTableRecord
100
AcDbBlockTableRecord
  2
*Paper_Space0
340
26
  0
BLOCK_RECORD
  5
5C
100
AcDbSymbolTableRecord
100
AcDbBlockTableRecord
  2
magnet_hole
340
0
  0
BLOCK_RECORD
  5
5D
100
AcDbSymbolTableRecord
100
AcDbBlockTableRecord
  2
tabs-with-bolt-20
340
0
  0
BLOCK_RECORD
  5
5E
100
AcDbSymbolTableRecord
100
AcDbBlockTableRecord
  2
holes-20
340
0
  0
ENDTAB
  0
ENDSEC
  0
SECTION
  2
BLOCKS
  0
BLOCK
  5
20
100
AcDbEntity
  8
0
100
AcDbBlockBegin
  2
*Model_Space
 70
0
 10
0.0
 20
0.0
 30
0.0
  3
*Model_Space
  1

  0
ENDBLK
  5
21
100
AcDbEntity
  8
0
100
AcDbBlockEnd
  0
BLOCK
  5
1C
100
AcDbEntity
 67
1
  8
0
100
AcDbBlockBegin
  2
*Paper_Space
 70
0
 10
0.0
 20
0.0
 30
0.0
  3
*Paper_Space
  1

  0
ENDBLK
  5
1D
100
AcDbEntity
 67
1
  8
0
100
AcDbBlockEnd
  0
BLOCK
  5
24
100
AcDbEntity
  8
0
100
AcDbBlockBegin
  2
*Paper_Space0
 70
0
 10
0.0
 20
0.0
 30
0.0
  3
*Paper_Space0
  1

  0
ENDBLK
  5
25
100
AcDbEntity
  8
0
100
AcDbBlockEnd
  0
BLOCK
  5
5F
100
AcDbEntity
  8
0
100
AcDbBlockBegin
  2
magnet_hole
 70
0
 10
0.0
 20
0.0
 30
0.0
  3
magnet_hole
  1

  0
ENDBLK
  5
60
100
AcDbEntity
  8
0
100
AcDbBlockEnd
  0
BLOCK
  5
61
100
AcDbEntity
  8
0
100
AcDbBlockBegin
  2
tabs-with-bolt-20
 70
0
 10
0.0
 20
0.0
 30
0.0
  3
tabs-with-bolt-20
  1

  0
LINE
  5
62
100
AcDbEntity
100
AcDbLine
  8
0
 62
256
370
-1
  6
ByLayer
 10
-1.499999999999996
 20
11.5000000000000036
 30
0.0
 11
1.5000000000000056
 21
11.5000000000000036
 31
0.0
  0
LINE
  5
63
100
AcDbEntity
100
AcDbLine
  8
0
 62
256
370
-1
  6
ByLayer
 10
-2.8599999999999914
 20
8.3300000000000018
 30
0.0
 11
-2.8599999999999892
 21
10.5000000000000053
 31
0.0
  0
LINE
  5
64
100
AcDbEntity
100
AcDbLine
  8
0
 62
256
370
-1
  6
ByLayer
 10
2.8600000000000017
 20
10.4999999999999982
 30
0.0
 11
2.8599999999999972
 21
8.3300000000000018
 31
0.0
  0
LINE
  5
65
100
AcDbEntity
100
AcDbLine
  8
0
 62
256
370
-1
  6
ByLayer
 10
-1.4999999999999982
 20
8.3300000000000054
 30
0.0
 11
-2.8599999999999914
 21
8.3300000000000018
 31
0.0
  0
LINE
  5
66
100
AcDbEntity
100
AcDbLine
  8
0
 62
256
370
-1
  6
ByLayer
 10
2.8599999999999972
 20
8.3300000000000018
 30
0.0
 11
1.5000000000000049
 21
8.3299999999999983
 31
0.0
  0
LINE
  5
67
100
AcDbEntity
100
AcDbLine
  8
0
 62
256
370
-1
  6
ByLayer
 10
1.5000000000000056
 20
11.5000000000000036
 30
0.0
 11
1.5000000000000024
 21
10.5000000000000036
 31
0.0
  0
LINE
  5
68
100
AcDbEntity
100
AcDbLine
  8
0
 62
256
370
-1
  6
ByLayer
 10
1.5000000000000024
 20
10.5000000000000036
 30
0.0
 11
2.8600000000000017
 21
10.4999999999999982
 31
0.0
  0
LINE
  5
69
100
AcDbEntity
100
AcDbLine
  8
0
 62
256
370
-1
  6
ByLayer
 10
-2.8599999999999892
 20
10.5000000000000053
 30
0.0
 11
-1.4999999999999976
 21
10.5000000000000053
 31
0.0
  0
LINE
  5
6A
100
AcDbEntity
100
AcDbLine
  8
0
 62
256
370
-1
  6
ByLayer
 10
-1.4999999999999976
 20
10.5000000000000053
 30
0.0
 11
-1.499999999999996
 21
11.5000000000000036
 31
0.0
  0
LINE
  5
6B
100
AcDbEntity
100
AcDbLine
  8
0
 62
256
370
-1
  6
ByLayer
 10
-10.0000000000000018
 20
-4.4999999999999947
 30
0.0
 11
-10.0
 21
0.0000000000000018
 31
0.0
  0
ARC
  5
6C
100
AcDbEntity
  8
0
 62
256
370
-1
  6
ByLayer
100
AcDbCircle
 10
-9.5000000000000036
 20
-4.4999999999999929
 30
0.0
 40
0.5
100
AcDbArc
 50
180.0
 51
270.0
  0
LINE
  5
6D
100
AcDbEntity
100
AcDbLine
  8
0
 62
256
370
-1
  6
ByLayer
 10
-5.4999999999999964
 20
-5.0
 30
0.0
 11
-9.5000000000000036
 21
-4.9999999999999929
 31
0.0
  0
LINE
  5
6E
100
AcDbEntity
100
AcDbLine
  8
0
 62
256
370
-1
  6
ByLayer
 10
-4.9999999999999982
 20
0.0000000000000009
 30
0.0
 11
-5.0000000000000018
 21
-4.4999999999999947
 31
0.0
  0
ARC
  5
6F
100
AcDbEntity
  8
0
 62
256
370
-1
  6
ByLayer
100
AcDbCircle
 10
-5.4999999999999982
 20
-4.4999999999999982
 30
0.0
 40
0.5
100
AcDbArc
 50
270.0
 51
0.0
  0
LINE
  5
70
100
AcDbEntity
100
AcDbLine
  8
0
 62
256
370
-1
  6
ByLayer
 10
-1.9999999999999973
 20
0.0000000000000049
 30
0.0
 11
-4.9999999999999982
 21
0.0000000000000009
 31
0.0
  0
LINE
  5
71
100
AcDbEntity
100
AcDbLine
  8
0
 62
256
370
-1
  6
ByLayer
 10
-1.4999999999999978
 20
0.5000000000000058
 30
0.0
 11
-1.4999999999999982
 21
8.3300000000000054
 31
0.0
  0
ARC
  5
72
100
AcDbEntity
  8
0
 62
256
370
-1
  6
ByLayer
100
AcDbCircle
 10
-1.9999999999999982
 20
0.5000000000000058
 30
0.0
 40
0.5
100
AcDbArc
 50
270.0000000000000568
 51
0.0
  0
LINE
  5
73
100
AcDbEntity
100
AcDbLine
  8
0
 62
256
370
-1
  6
ByLayer
 10
1.5000000000000049
 20
8.3299999999999983
 30
0.0
 11
1.4999999999999967
 21
0.5000000000000013
 31
0.0
  0
LINE
  5
74
100
AcDbEntity
100
AcDbLine
  8
0
 62
256
370
-1
  6
ByLayer
 10
1.9999999999999978
 20
0.0000000000000027
 30
0.0
 11
4.9999999999999982
 21
-0.0000000000000009
 31
0.0
  0
ARC
  5
75
100
AcDbEntity
  8
0
 62
256
370
-1
  6
ByLayer
100
AcDbCircle
 10
1.9999999999999991
 20
0.500000000000004
 30
0.0
 40
0.5
100
AcDbArc
 50
180.0
 51
269.9999999999999432
  0
LINE
  5
76
100
AcDbEntity
100
AcDbLine
  8
0
 62
256
370
-1
  6
ByLayer
 10
4.9999999999999982
 20
-0.0000000000000009
 30
0.0
 11
5.0
 21
-4.4999999999999982
 31
0.0
  0
ARC
  5
77
100
AcDbEntity
  8
0
 62
256
370
-1
  6
ByLayer
100
AcDbCircle
 10
5.4999999999999964
 20
-4.5
 30
0.0
 40
0.5
100
AcDbArc
 50
180.0
 51
270.0
  0
LINE
  5
78
100
AcDbEntity
100
AcDbLine
  8
0
 62
256
370
-1
  6
ByLayer
 10
5.4999999999999929
 20
-5.0000000000000018
 30
0.0
 11
9.4999999999999947
 21
-5.0000000000000053
 31
0.0
  0
LINE
  5
79
100
AcDbEntity
100
AcDbLine
  8
0
 62
256
370
-1
  6
ByLayer
 10
9.9999999999999947
 20
-4.5000000000000018
 30
0.0
 11
9.9999999999999982
 21
-0.0000000000000071
 31
0.0
  0
ARC
  5
7A
100
AcDbEntity
  8
0
 62
256
370
-1
  6
ByLayer
100
AcDbCircle
 10
9.5000000000000018
 20
-4.4999999999999982
 30
0.0
 40
0.5
100
AcDbArc
 50
270.0
 51
0.0
  0
ENDBLK
  5
7B
100
AcDbEntity
  8
0
100
AcDbBlockEnd
  0
BLOCK
  5
7C
100
AcDbEntity
  8
0
100
AcDbBlockBegin
  2
holes-20
 70
0
 10
0.0
 20
0.0
 30
0.0
  3
holes-20
  1

  0
CIRCLE
  5
7D
100
AcDbEntity
100
AcDbCircle
  8
0
 62
256
370
-1
  6
ByLayer
 10
0.0
 20
0.0
 30
0.0
 40
1.5
  0
LINE
  5
7E
100
AcDbEntity
100
AcDbLine
  8
0
 62
256
370
-1
  6
ByLayer
 10
5.0
 20
2.5000000000000004
 30
0.0
 11
10.0
 21
2.5000000000000009
 31
0.0
  0
LINE
  5
7F
100
AcDbEntity
100
AcDbLine
  8
0
 62
256
370
-1
  6
ByLayer
 10
4.9999999999999991
 20
-2.5000000000000013
 30
0.0
 11
10.0
 21
-2.5000000000000031
 31
0.0
  0
LINE
  5
80
100
AcDbEntity
100
AcDbLine
  8
0
 62
256
370
-1
  6
ByLayer
 10
-4.9999999999999991
 20
2.5000000000000004
 30
0.0
 11
-10.0
 21
2.5000000000000022
 31
0.0
  0
LINE
  5
81
100
AcDbEntity
100
AcDbLine
  8
0
 62
256
370
-1
  6
ByLayer
 10
-5.0000000000000018
 20
-2.5
 30
0.0
 11
-10.0
 21
-2.4999999999999996
 31
0.0
  0
LINE
  5
82
100
AcDbEntity
100
AcDbLine
  8
0
 62
256
370
-1
  6
ByLayer
 10
-10.0
 20
2.5000000000000022
 30
0.0
 11
-10.0
 21
-2.4999999999999996
 31
0.0
  0
LINE
  5
83
100
AcDbEntity
100
AcDbLine
  8
0
 62
256
370
-1
  6
ByLayer
 10
-4.9999999999999991
 20
2.5000000000000004
 30
0.0
 11
-5.0000000000000018
 21
-2.5
 31
0.0
  0
LINE
  5
84
100
AcDbEntity
100
AcDbLine
  8
0
 62
256
370
-1
  6
ByLayer
 10
5.0
 20
2.5000000000000004
 30
0.0
 11
4.9999999999999991
 21
-2.5000000000000013
 31
0.0
  0
LINE
  5
85
100
AcDbEntity
100
AcDbLine
  8
0
 62
256
370
-1
  6
ByLayer
 10
10.0
 20
2.5000000000000009
 30
0.0
 11
10.0
 21
-2.5000000000000031
 31
0.0
  0
ENDBLK
  5
86
100
AcDbEntity
  8
0
100
AcDbBlockEnd
  0
ENDSEC
  0
SECTION
  2
ENTITIES
  0
LINE
  5
87
100
AcDbEntity
100
AcDbLine
  8
drw, build platform
 62
256
370
-1
  6
ByLayer
 10
94.9999999999999858
 20
-194.4444444444444287
 30
0.0
 11
85.0
 21
-194.4444444444444002
 31
0.0
  0
LINE
  5
88
100
AcDbEntity
100
AcDbLine
  8
drw, build platform
 62
256
370
-1
  6
ByLayer
 10
85.0
 20
-194.4444444444444002
 30
0.0
 11
85.0000000000000142
 21
-191.6666666666666572
 31
0.0
  0
ARC
  5
89
100
AcDbEntity
  8
drw, build platform
 62
256
370
-1
  6
ByLayer
100
AcDbCircle
 10
87.2222222222222285
 20
-191.6666666666666572
 30
0.0
 40
2.2222222222222223
100
AcDbArc
 50
360.0
 51
180.0
  0
LINE
  5
8A
100
AcDbEntity
100
AcDbLine
  8
drw, build platform
 62
256
370
-1
  6
ByLayer
 10
89.4444444444444713
 20
-194.4444444444444287
 30
0.0
 11
89.4444444444444713
 21
-191.5555555555555145
 31
0.0
  0
ARC
  5
8B
100
AcDbEntity
  8
drw, build platform
 62
256
370
-1
  6
ByLayer
100
AcDbCircle
 10
92.1111111111111285
 20
-191.5555555555554861
 30
0.0
 40
2.6666666666666665
100
AcDbArc
 50
90.0
 51
180.0
  0
LINE
  5
8C
100
AcDbEntity
100
AcDbLine
  8
drw, build platform
 62
256
370
-1
  6
ByLayer
 10
92.1111111111111285
 20
-188.8888888888888573
 30
0.0
 11
92.3333333333333144
 21
-188.8888888888888857
 31
0.0
  0
ARC
  5
8D
100
AcDbEntity
  8
drw, build platform
 62
256
370
-1
  6
ByLayer
100
AcDbCircle
 10
92.3333333333333286
 20
-191.5555555555555429
 30
0.0
 40
2.6666666666666665
100
AcDbArc
 50
360.0
 51
90.0
  0
LINE
  5
8E
100
AcDbEntity
100
AcDbLine
  8
drw, build platform
 62
256
370
-1
  6
ByLayer
 10
95.0000000000000142
 20
-191.5555555555555145
 30
0.0
 11
94.9999999999999858
 21
-194.4444444444444287
 31
0.0
  0
LINE
  5
8F
100
AcDbEntity
100
AcDbLine
  8
drw, build platform
 62
256
370
-1
  6
ByLayer
 10
88.3333333333333286
 20
-185.5555555555555429
 30
0.0
 11
93.3333333333333286
 21
-185.5555555555555145
 31
0.0
  0
ARC
  5
90
100
AcDbEntity
  8
drw, build platform
 62
256
370
-1
  6
ByLayer
100
AcDbCircle
 10
93.3333333333333286
 20
-183.8888888888888573
 30
0.0
 40
1.6666666666666667
100
AcDbArc
 50
270.0
 51
360.0
  0
LINE
  5
91
100
AcDbEntity
100
AcDbLine
  8
drw, build platform
 62
256
370
-1
  6
ByLayer
 10
95.0000000000000284
 20
-183.8888888888888005
 30
0.0
 11
95.0000000000000142
 21
-181.1111111111111143
 31
0.0
  0
LINE
  5
92
100
AcDbEntity
100
AcDbLine
  8
drw, build platform
 62
256
370
-1
  6
ByLayer
 10
95.0000000000000142
 20
-181.1111111111111143
 30
0.0
 11
88.3333333333333286
 21
-181.1111111111109437
 31
0.0
  0
LINE
  5
93
100
AcDbEntity
100
AcDbLine
  8
drw, build platform
 62
256
370
-1
  6
ByLayer
 10
95.0000000000000142
 20
-177.7777777777778283
 30
0.0
 11
88.3333333333333144
 21
-177.7777777777778567
 31
0.0
  0
LINE
  5
94
100
AcDbEntity
100
AcDbLine
  8
drw, build platform
 62
256
370
-1
  6
ByLayer
 10
85.5555555555555571
 20
-177.7777777777776578
 30
0.0
 11
85.0000000000000142
 21
-177.7777777777777715
 31
0.0
  0
LINE
  5
95
100
AcDbEntity
100
AcDbLine
  8
drw, build platform
 62
256
370
-1
  6
ByLayer
 10
85.0000000000000142
 20
-174.4444444444444855
 30
0.0
 11
93.8888888888888999
 21
-174.4444444444444571
 31
0.0
  0
ARC
  5
96
100
AcDbEntity
  8
drw, build platform
 62
256
370
-1
  6
ByLayer
100
AcDbCircle
 10
93.8888888888888999
 20
-173.3333333333333712
 30
0.0
 40
1.1111111111111112
100
AcDbArc
 50
270.0
 51
360.0
  0
LINE
  5
97
100
AcDbEntity
100
AcDbLine
  8
drw, build platform
 62
256
370
-1
  6
ByLayer
 10
85.0
 20
-165.5555555555555429
 30
0.0
 11
95.0000000000000284
 21
-165.5555555555555145
 31
0.0
  0
LINE
  5
98
100
AcDbEntity
100
AcDbLine
  8
drw, build platform
 62
256
370
-1
  6
ByLayer
 10
95.0000000000000284
 20
-165.5555555555555145
 30
0.0
 11
95.0
 21
-168.3333333333333144
 31
0.0
  0
ARC
  5
99
100
AcDbEntity
  8
drw, build platform
 62
256
370
-1
  6
ByLayer
100
AcDbCircle
 10
93.3333333333333428
 20
-168.333333333333286
 30
0.0
 40
1.6666666666666667
100
AcDbArc
 50
270.0
 51
360.0
  0
LINE
  5
9A
100
AcDbEntity
100
AcDbLine
  8
drw, build platform
 62
256
370
-1
  6
ByLayer
 10
93.3333333333333428
 20
-169.9999999999999716
 30
0.0
 11
90.0000000000000142
 21
-170.0
 31
0.0
  0
ARC
  5
9B
100
AcDbEntity
  8
drw, build platform
 62
256
370
-1
  6
ByLayer
100
AcDbCircle
 10
90.0000000000000142
 20
-168.3333333333333144
 30
0.0
 40
1.6666666666666667
100
AcDbArc
 50
180.0
 51
270.0
  0
LINE
  5
9C
100
AcDbEntity
100
AcDbLine
  8
drw, build platform
 62
256
370
-1
  6
ByLayer
 10
88.3333333333333286
 20
-168.3333333333333144
 30
0.0
 11
88.3333333333333144
 21
-165.5555555555555145
 31
0.0
  0
LINE
  5
9D
100
AcDbEntity
100
AcDbLine
  8
drw, build platform
 62
256
370
-1
  6
ByLayer
 10
175.0
 20
-207.7777777777777715
 30
0.0
 11
165.0
 21
-207.7777777777777715
 31
0.0
  0
LINE
  5
9E
100
AcDbEntity
100
AcDbLine
  8
drw, build platform
 62
256
370
-1
  6
ByLayer
 10
165.0
 20
-207.7777777777777715
 30
0.0
 11
164.9999999999999716
 21
-204.4444444444444855
 31
0.0
  0
ARC
  5
9F
100
AcDbEntity
  8
drw, build platform
 62
256
370
-1
  6
ByLayer
100
AcDbCircle
 10
167.2222222222221717
 20
-204.4444444444445139
 30
0.0
 40
2.2222222222222223
100
AcDbArc
 50
90.0
 51
180.0
  0
LINE
  5
A0
100
AcDbEntity
100
AcDbLine
  8
drw, build platform
 62
256
370
-1
  6
ByLayer
 10
167.2222222222222001
 20
-202.2222222222222285
 30
0.0
 11
168.3333333333333144
 21
-202.222222222222257
 31
0.0
  0
ARC
  5
A1
100
AcDbEntity
  8
drw, build platform
 62
256
370
-1
  6
ByLayer
100
AcDbCircle
 10
168.333333333333286
 20
-204.4444444444444855
 30
0.0
 40
2.2222222222222223
100
AcDbArc
 50
360.0
 51
90.0
  0
LINE
  5
A2
100
AcDbEntity
100
AcDbLine
  8
drw, build platform
 62
256
370
-1
  6
ByLayer
 10
170.5555555555555145
 20
-204.4444444444444855
 30
0.0
 11
170.5555555555555713
 21
-207.7777777777777715
 31
0.0
  0
LINE
  5
A3
100
AcDbEntity
100
AcDbLine
  8
drw, build platform
 62
256
370
-1
  6
ByLayer
 10
165.0
 20
-198.8888888888889142
 30
0.0
 11
173.8888888888888857
 21
-198.8888888888889426
 31
0.0
  0
ARC
  5
A4
100
AcDbEntity
  8
drw, build platform
 62
256
370
-1
  6
ByLayer
100
AcDbCircle
 10
173.8888888888889142
 20
-197.7777777777778283
 30
0.0
 40
1.1111111111111112
100
AcDbArc
 50
270.0
 51
360.0
  0
LINE
  5
A5
100
AcDbEntity
100
AcDbLine
  8
drw, build platform
 62
256
370
-1
  6
ByLayer
 10
168.3333333333333428
 20
-193.8888888888889426
 30
0.0
 11
168.3333333333333428
 21
-191.666666666666714
 31
0.0
  0
ARC
  5
A6
100
AcDbEntity
  8
drw, build platform
 62
256
370
-1
  6
ByLayer
100
AcDbCircle
 10
170.0
 20
-191.6666666666666856
 30
0.0
 40
1.6666666666666667
100
AcDbArc
 50
90.0
 51
180.0
  0
LINE
  5
A7
100
AcDbEntity
100
AcDbLine
  8
drw, build platform
 62
256
370
-1
  6
ByLayer
 10
170.0
 20
-190.0000000000000284
 30
0.0
 11
175.0
 21
-190.0
 31
0.0
  0
LINE
  5
A8
100
AcDbEntity
100
AcDbLine
  8
drw, build platform
 62
256
370
-1
  6
ByLayer
 10
175.0
 20
-190.0
 30
0.0
 11
175.0
 21
-192.7777777777777715
 31
0.0
  0
ARC
  5
A9
100
AcDbEntity
  8
drw, build platform
 62
256
370
-1
  6
ByLayer
100
AcDbCircle
 10
173.3333333333333712
 20
-192.7777777777777715
 30
0.0
 40
1.6666666666666667
100
AcDbArc
 50
180.0
 51
360.0
  0
LINE
  5
AA
100
AcDbEntity
100
AcDbLine
  8
drw, build platform
 62
256
370
-1
  6
ByLayer
 10
171.6666666666666856
 20
-192.7777777777777715
 30
0.0
 11
171.6666666666666856
 21
-190.0000000000000284
 31
0.0
  0
LINE
  5
AB
100
AcDbEntity
100
AcDbLine
  8
drw, build platform
 62
256
370
-1
  6
ByLayer
 10
168.3333333333333428
 20
-186.6666666666666856
 30
0.0
 11
168.3333333333333428
 21
-183.3333333333333997
 31
0.0
  0
LINE
  5
AC
100
AcDbEntity
100
AcDbLine
  8
drw, build platform
 62
256
370
-1
  6
ByLayer
 10
165.0
 20
-185.5555555555555998
 30
0.0
 11
175.0
 21
-185.5555555555556282
 31
0.0
  0
LINE
  5
AD
100
AcDbEntity
100
AcDbLine
  8
drw, build platform
 62
256
370
-1
  6
ByLayer
 10
175.0
 20
-178.888888888888971
 30
0.0
 11
166.6666666666666856
 21
-178.888888888888772
 31
0.0
  0
ARC
  5
AE
100
AcDbEntity
  8
drw, build platform
 62
256
370
-1
  6
ByLayer
100
AcDbCircle
 10
166.6666666666666856
 20
-177.222222222222257
 30
0.0
 40
1.6666666666666667
100
AcDbArc
 50
180.0
 51
270.0
  0
LINE
  5
AF
100
AcDbEntity
100
AcDbLine
  8
drw, build platform
 62
256
370
-1
  6
ByLayer
 10
165.0
 20
-177.2222222222222001
 30
0.0
 11
165.0000000000000284
 21
-176.6666666666666856
 31
0.0
  0
LINE
  5
B0
100
AcDbEntity
100
AcDbLine
  8
drw, build platform
 62
256
370
-1
  6
ByLayer
 10
168.3333333333333428
 20
-180.0
 30
0.0
 11
168.3333333333333428
 21
-176.6666666666666856
 31
0.0
  0
LINE
  5
B1
100
AcDbEntity
100
AcDbLine
  8
drw, build platform
 62
256
370
-1
  6
ByLayer
 10
170.5555555555555713
 20
-173.3333333333333144
 30
0.0
 11
172.7777777777777715
 21
-173.3333333333333144
 31
0.0
  0
ARC
  5
B2
100
AcDbEntity
  8
drw, build platform
 62
256
370
-1
  6
ByLayer
100
AcDbCircle
 10
172.7777777777777715
 20
-171.1111111111110574
 30
0.0
 40
2.2222222222222223
100
AcDbArc
 50
270.0
 51
90.0
  0
LINE
  5
B3
100
AcDbEntity
100
AcDbLine
  8
drw, build platform
 62
256
370
-1
  6
ByLayer
 10
172.7777777777777715
 20
-168.8888888888888857
 30
0.0
 11
170.5555555555555713
 21
-168.8888888888888857
 31
0.0
  0
ARC
  5
B4
100
AcDbEntity
  8
drw, build platform
 62
256
370
-1
  6
ByLayer
100
AcDbCircle
 10
170.5555555555555713
 20
-171.1111111111110858
 30
0.0
 40
2.2222222222222223
100
AcDbArc
 50
90.0
 51
270.0
  0
LINE
  5
B5
100
AcDbEntity
100
AcDbLine
  8
drw, build platform
 62
256
370
-1
  6
ByLayer
 10
175.0000000000000284
 20
-165.5555555555555429
 30
0.0
 11
168.3333333333333712
 21
-165.5555555555555429
 31
0.0
  0
LINE
  5
B6
100
AcDbEntity
100
AcDbLine
  8
drw, build platform
 62
256
370
-1
  6
ByLayer
 10
168.3333333333333712
 20
-165.5555555555555429
 30
0.0
 11
168.3333333333333712
 21
-163.3333333333333144
 31
0.0
  0
ARC
  5
B7
100
AcDbEntity
  8
drw, build platform
 62
256
370
-1
  6
ByLayer
100
AcDbCircle
 10
169.4444444444444855
 20
-163.3333333333333428
 30
0.0
 40
1.1111111111111112
100
AcDbArc
 50
90.0
 51
180.0
  0
LINE
  5
B8
100
AcDbEntity
100
AcDbLine
  8
drw, build platform
 62
256
370
-1
  6
ByLayer
 10
175.0000000000000284
 20
-158.8888888888889142
 30
0.0
 11
168.3333333333333428
 21
-158.8888888888889142
 31
0.0
  0
LINE
  5
B9
100
AcDbEntity
100
AcDbLine
  8
drw, build platform
 62
256
370
-1
  6
ByLayer
 10
168.3333333333333428
 20
-158.8888888888889142
 30
0.0
 11
168.3333333333333712
 21
-153.8888888888889142
 31
0.0
  0
ARC
  5
BA
100
AcDbEntity
  8
drw, build platform
 62
256
370
-1
  6
ByLayer
100
AcDbCircle
 10
170.0000000000000284
 20
-153.8888888888889142
 30
0.0
 40
1.6666666666666667
100
AcDbArc
 50
90.0
 51
180.0
  0
LINE
  5
BB
100
AcDbEntity
100
AcDbLine
  8
drw, build platform
 62
256
370
-1
  6
ByLayer
 10
170.0000000000000568
 20
-152.222222222222257
 30
0.0
 11
175.0
 21
-152.2222222222222001
 31
0.0
  0
LINE
  5
BC
100
AcDbEntity
100
AcDbLine
  8
drw, build platform
 62
256
370
-1
  6
ByLayer
 10
168.3333333333333712
 20
-155.5555555555556282
 30
0.0
 11
175.0000000000000568
 21
-155.5555555555556282
 31
0.0
  0
LINE
  5
BD
100
AcDbEntity
100
AcDbLine
  8
drw, build platform
 62
256
370
-1
  6
ByLayer
 10
179.9999999999999432
 20
-230.0000000000000568
 30
0.0
 11
79.9999999999999432
 21
-229.9999999999999147
 31
0.0
  0
LINE
  5
BE
100
AcDbEntity
100
AcDbLine
  8
drw, build platform
 62
256
370
-1
  6
ByLayer
 10
79.9999999999999432
 20
-229.9999999999999147
 30
0.0
 11
80.0000000000000568
 21
-129.9999999999999432
 31
0.0
  0
LINE
  5
BF
100
AcDbEntity
100
AcDbLine
  8
drw, build platform
 62
256
370
-1
  6
ByLayer
 10
80.0000000000000568
 20
-129.9999999999999432
 30
0.0
 11
180.0000000000000568
 21
-130.0000000000000284
 31
0.0
  0
LINE
  5
C0
100
AcDbEntity
100
AcDbLine
  8
drw, build platform
 62
256
370
-1
  6
ByLayer
 10
180.0000000000000568
 20
-130.0000000000000284
 30
0.0
 11
179.9999999999999432
 21
-230.0000000000000568
 31
0.0
  0
CIRCLE
  5
C1
100
AcDbEntity
100
AcDbCircle
  8
drw, build platform
 62
256
370
-1
  6
ByLayer
 10
109.9000000000000199
 20
-170.9999999999999716
 30
0.0
 40
2.75
  0
CIRCLE
  5
C2
100
AcDbEntity
100
AcDbCircle
  8
drw, build platform
 62
256
370
-1
  6
ByLayer
 10
84.038099999999929
 20
-225.9618999999999289
 30
0.0
 40
1.5
  0
CIRCLE
  5
C3
100
AcDbEntity
100
AcDbCircle
  8
drw, build platform
 62
256
370
-1
  6
ByLayer
 10
130.0
 20
-225.9618999999999573
 30
0.0
 40
1.5
  0
CIRCLE
  5
C4
100
AcDbEntity
100
AcDbCircle
  8
drw, build platform
 62
256
370
-1
  6
ByLayer
 10
175.9618999999999858
 20
-225.9619000000000142
 30
0.0
 40
1.5
  0
CIRCLE
  5
C5
100
AcDbEntity
100
AcDbCircle
  8
drw, build platform
 62
256
370
-1
  6
ByLayer
 10
84.0381000000000427
 20
-134.0380999999999858
 30
0.0
 40
1.5
  0
CIRCLE
  5
C6
100
AcDbEntity
100
AcDbCircle
  8
drw, build platform
 62
256
370
-1
  6
ByLayer
 10
130.0
 20
-134.0380999999999858
 30
0.0
 40
1.5
  0
CIRCLE
  5
C7
100
AcDbEntity
100
AcDbCircle
  8
drw, build platform
 62
256
370
-1
  6
ByLayer
 10
175.961900000000071
 20
-134.0381000000000142
 30
0.0
 40
1.5
  0
LINE
  5
C8
100
AcDbEntity
100
AcDbLine
  8
drw, build platform
 62
256
370
-1
  6
ByLayer
 10
74.9999999999999858
 20
-14.4444444444444215
 30
0.0
 11
65.0
 21
-14.4444444444443896
 31
0.0
  0
LINE
  5
C9
100
AcDbEntity
100
AcDbLine
  8
drw, build platform
 62
256
370
-1
  6
ByLayer
 10
65.0
 20
-14.4444444444443896
 30
0.0
 11
65.0000000000000142
 21
-11.6666666666666501
 31
0.0
  0
ARC
  5
CA
100
AcDbEntity
  8
drw, build platform
 62
256
370
-1
  6
ByLayer
100
AcDbCircle
 10
67.2222222222222285
 20
-11.6666666666666359
 30
0.0
 40
2.2222222222222223
100
AcDbArc
 50
360.0
 51
180.0
  0
LINE
  5
CB
100
AcDbEntity
100
AcDbLine
  8
drw, build platform
 62
256
370
-1
  6
ByLayer
 10
69.4444444444444571
 20
-14.444444444444402
 30
0.0
 11
69.4444444444444713
 21
-11.5555555555555038
 31
0.0
  0
ARC
  5
CC
100
AcDbEntity
  8
drw, build platform
 62
256
370
-1
  6
ByLayer
100
AcDbCircle
 10
72.1111111111111143
 20
-11.5555555555554648
 30
0.0
 40
2.6666666666666665
100
AcDbArc
 50
90.0
 51
180.0
  0
LINE
  5
CD
100
AcDbEntity
100
AcDbLine
  8
drw, build platform
 62
256
370
-1
  6
ByLayer
 10
72.1111111111111285
 20
-8.8888888888888431
 30
0.0
 11
72.3333333333333144
 21
-8.8888888888888609
 31
0.0
  0
ARC
  5
CE
100
AcDbEntity
  8
drw, build platform
 62
256
370
-1
  6
ByLayer
100
AcDbCircle
 10
72.3333333333333286
 20
-11.5555555555555323
 30
0.0
 40
2.6666666666666665
100
AcDbArc
 50
360.0
 51
90.0
  0
LINE
  5
CF
100
AcDbEntity
100
AcDbLine
  8
drw, build platform
 62
256
370
-1
  6
ByLayer
 10
75.0
 20
-11.5555555555555056
 30
0.0
 11
74.9999999999999858
 21
-14.4444444444444215
 31
0.0
  0
LINE
  5
D0
100
AcDbEntity
100
AcDbLine
  8
drw, build platform
 62
256
370
-1
  6
ByLayer
 10
68.3333333333333286
 20
-5.5555555555555385
 30
0.0
 11
73.3333333333333286
 21
-5.5555555555555145
 31
0.0
  0
ARC
  5
D1
100
AcDbEntity
  8
drw, build platform
 62
256
370
-1
  6
ByLayer
100
AcDbCircle
 10
73.3333333333333286
 20
-3.88888888888886
 30
0.0
 40
1.6666666666666667
100
AcDbArc
 50
270.0
 51
360.0
  0
LINE
  5
D2
100
AcDbEntity
100
AcDbLine
  8
drw, build platform
 62
256
370
-1
  6
ByLayer
 10
75.0000000000000284
 20
-3.8888888888888107
 30
0.0
 11
75.0000000000000142
 21
-1.1111111111111023
 31
0.0
  0
LINE
  5
D3
100
AcDbEntity
100
AcDbLine
  8
drw, build platform
 62
256
370
-1
  6
ByLayer
 10
75.0000000000000142
 20
-1.1111111111111023
 30
0.0
 11
68.3333333333333286
 21
-1.1111111111109306
 31
0.0
  0
LINE
  5
D4
100
AcDbEntity
100
AcDbLine
  8
drw, build platform
 62
256
370
-1
  6
ByLayer
 10
75.0000000000000142
 20
2.2222222222221832
 30
0.0
 11
68.3333333333333144
 21
2.2222222222221544
 31
0.0
  0
LINE
  5
D5
100
AcDbEntity
100
AcDbLine
  8
drw, build platform
 62
256
370
-1
  6
ByLayer
 10
65.5555555555555571
 20
2.2222222222223542
 30
0.0
 11
65.0000000000000142
 21
2.2222222222222361
 31
0.0
  0
LINE
  5
D6
100
AcDbEntity
100
AcDbLine
  8
drw, build platform
 62
256
370
-1
  6
ByLayer
 10
65.0000000000000142
 20
5.5555555555554808
 30
0.0
 11
73.8888888888888999
 21
5.5555555555555527
 31
0.0
  0
ARC
  5
D7
100
AcDbEntity
  8
drw, build platform
 62
256
370
-1
  6
ByLayer
100
AcDbCircle
 10
73.8888888888888999
 20
6.6666666666666332
 30
0.0
 40
1.1111111111111112
100
AcDbArc
 50
270.0
 51
360.0
  0
LINE
  5
D8
100
AcDbEntity
100
AcDbLine
  8
drw, build platform
 62
256
370
-1
  6
ByLayer
 10
65.0
 20
14.4444444444444677
 30
0.0
 11
75.0000000000000284
 21
14.4444444444444837
 31
0.0
  0
LINE
  5
D9
100
AcDbEntity
100
AcDbLine
  8
drw, build platform
 62
256
370
-1
  6
ByLayer
 10
75.0000000000000284
 20
14.4444444444444837
 30
0.0
 11
75.0
 21
11.6666666666667016
 31
0.0
  0
ARC
  5
DA
100
AcDbEntity
  8
drw, build platform
 62
256
370
-1
  6
ByLayer
100
AcDbCircle
 10
73.3333333333333428
 20
11.6666666666667194
 30
0.0
 40
1.6666666666666667
100
AcDbArc
 50
270.0
 51
360.0
  0
LINE
  5
DB
100
AcDbEntity
100
AcDbLine
  8
drw, build platform
 62
256
370
-1
  6
ByLayer
 10
73.3333333333333428
 20
10.0
 30
0.0
 11
70.0000000000000142
 21
10.0000000000000053
 31
0.0
  0
ARC
  5
DC
100
AcDbEntity
  8
drw, build platform
 62
256
370
-1
  6
ByLayer
100
AcDbCircle
 10
70.0000000000000142
 20
11.6666666666666767
 30
0.0
 40
1.6666666666666667
100
AcDbArc
 50
180.0
 51
270.0
  0
LINE
  5
DD
100
AcDbEntity
100
AcDbLine
  8
drw, build platform
 62
256
370
-1
  6
ByLayer
 10
68.3333333333333286
 20
11.6666666666666714
 30
0.0
 11
68.3333333333333144
 21
14.4444444444444873
 31
0.0
  0
LINE
  5
DE
100
AcDbEntity
100
AcDbLine
  8
drw, build platform
 62
256
370
-1
  6
ByLayer
 10
155.0
 20
-27.7777777777777857
 30
0.0
 11
145.0
 21
-27.777777777777775
 31
0.0
  0
LINE
  5
DF
100
AcDbEntity
100
AcDbLine
  8
drw, build platform
 62
256
370
-1
  6
ByLayer
 10
145.0
 20
-27.777777777777775
 30
0.0
 11
144.9999999999999716
 21
-24.4444444444444784
 31
0.0
  0
ARC
  5
E0
100
AcDbEntity
  8
drw, build platform
 62
256
370
-1
  6
ByLayer
100
AcDbCircle
 10
147.2222222222221717
 20
-24.4444444444445068
 30
0.0
 40
2.2222222222222223
100
AcDbArc
 50
90.0
 51
180.0
  0
LINE
  5
E1
100
AcDbEntity
100
AcDbLine
  8
drw, build platform
 62
256
370
-1
  6
ByLayer
 10
147.2222222222222001
 20
-22.2222222222222214
 30
0.0
 11
148.3333333333333144
 21
-22.2222222222222641
 31
0.0
  0
ARC
  5
E2
100
AcDbEntity
  8
drw, build platform
 62
256
370
-1
  6
ByLayer
100
AcDbCircle
 10
148.333333333333286
 20
-24.4444444444444819
 30
0.0
 40
2.2222222222222223
100
AcDbArc
 50
360.0
 51
90.0
  0
LINE
  5
E3
100
AcDbEntity
100
AcDbLine
  8
drw, build platform
 62
256
370
-1
  6
ByLayer
 10
150.5555555555555145
 20
-24.4444444444444891
 30
0.0
 11
150.5555555555555713
 21
-27.7777777777777679
 31
0.0
  0
LINE
  5
E4
100
AcDbEntity
100
AcDbLine
  8
drw, build platform
 62
256
370
-1
  6
ByLayer
 10
145.0
 20
-18.8888888888889284
 30
0.0
 11
153.8888888888888857
 21
-18.8888888888889532
 31
0.0
  0
ARC
  5
E5
100
AcDbEntity
  8
drw, build platform
 62
256
370
-1
  6
ByLayer
100
AcDbCircle
 10
153.8888888888889142
 20
-17.777777777777839
 30
0.0
 40
1.1111111111111112
100
AcDbArc
 50
270.0
 51
360.0
  0
LINE
  5
E6
100
AcDbEntity
100
AcDbLine
  8
drw, build platform
 62
256
370
-1
  6
ByLayer
 10
148.3333333333333428
 20
-13.888888888888939
 30
0.0
 11
148.3333333333333428
 21
-11.6666666666667105
 31
0.0
  0
ARC
  5
E7
100
AcDbEntity
  8
drw, build platform
 62
256
370
-1
  6
ByLayer
100
AcDbCircle
 10
150.0
 20
-11.6666666666666856
 30
0.0
 40
1.6666666666666667
100
AcDbArc
 50
90.0
 51
180.0
  0
LINE
  5
E8
100
AcDbEntity
100
AcDbLine
  8
drw, build platform
 62
256
370
-1
  6
ByLayer
 10
150.0
 20
-10.0000000000000497
 30
0.0
 11
155.0
 21
-10.0000000000000089
 31
0.0
  0
LINE
  5
E9
100
AcDbEntity
100
AcDbLine
  8
drw, build platform
 62
256
370
-1
  6
ByLayer
 10
155.0
 20
-10.0000000000000089
 30
0.0
 11
155.0
 21
-12.7777777777777839
 31
0.0
  0
ARC
  5
EA
100
AcDbEntity
  8
drw, build platform
 62
256
370
-1
  6
ByLayer
100
AcDbCircle
 10
153.3333333333333712
 20
-12.7777777777777821
 30
0.0
 40
1.6666666666666667
100
AcDbArc
 50
180.0
 51
360.0
  0
LINE
  5
EB
100
AcDbEntity
100
AcDbLine
  8
drw, build platform
 62
256
370
-1
  6
ByLayer
 10
151.6666666666666856
 20
-12.7777777777777874
 30
0.0
 11
151.6666666666666856
 21
-10.0000000000000266
 31
0.0
  0
LINE
  5
EC
100
AcDbEntity
100
AcDbLine
  8
drw, build platform
 62
256
370
-1
  6
ByLayer
 10
148.3333333333333428
 20
-6.6666666666666918
 30
0.0
 11
148.3333333333333428
 21
-3.3333333333333912
 31
0.0
  0
LINE
  5
ED
100
AcDbEntity
100
AcDbLine
  8
drw, build platform
 62
256
370
-1
  6
ByLayer
 10
145.0
 20
-5.555555555555606
 30
0.0
 11
155.0
 21
-5.55555555555563
 31
0.0
  0
LINE
  5
EE
100
AcDbEntity
100
AcDbLine
  8
drw, build platform
 62
256
370
-1
  6
ByLayer
 10
155.0
 20
1.1111111111110323
 30
0.0
 11
146.6666666666666856
 21
1.1111111111112189
 31
0.0
  0
ARC
  5
EF
100
AcDbEntity
  8
drw, build platform
 62
256
370
-1
  6
ByLayer
100
AcDbCircle
 10
146.6666666666666856
 20
2.7777777777777519
 30
0.0
 40
1.6666666666666667
100
AcDbArc
 50
180.0
 51
270.0
  0
LINE
  5
F0
100
AcDbEntity
100
AcDbLine
  8
drw, build platform
 62
256
370
-1
  6
ByLayer
 10
145.0
 20
2.7777777777777977
 30
0.0
 11
145.0000000000000284
 21
3.333333333333321
 31
0.0
  0
LINE
  5
F1
100
AcDbEntity
100
AcDbLine
  8
drw, build platform
 62
256
370
-1
  6
ByLayer
 10
148.3333333333333428
 20
0.0
 30
0.0
 11
148.3333333333333428
 21
3.3333333333333246
 31
0.0
  0
LINE
  5
F2
100
AcDbEntity
100
AcDbLine
  8
drw, build platform
 62
256
370
-1
  6
ByLayer
 10
150.5555555555555713
 20
6.6666666666666829
 30
0.0
 11
152.7777777777777715
 21
6.6666666666666776
 31
0.0
  0
ARC
  5
F3
100
AcDbEntity
  8
drw, build platform
 62
256
370
-1
  6
ByLayer
100
AcDbCircle
 10
152.7777777777777715
 20
8.8888888888889408
 30
0.0
 40
2.2222222222222223
100
AcDbArc
 50
270.0
 51
90.0
  0
LINE
  5
F4
100
AcDbEntity
100
AcDbLine
  8
drw, build platform
 62
256
370
-1
  6
ByLayer
 10
152.7777777777777715
 20
11.1111111111111036
 30
0.0
 11
150.5555555555555713
 21
11.1111111111111072
 31
0.0
  0
ARC
  5
F5
100
AcDbEntity
  8
drw, build platform
 62
256
370
-1
  6
ByLayer
100
AcDbCircle
 10
150.5555555555555713
 20
8.8888888888888982
 30
0.0
 40
2.2222222222222223
100
AcDbArc
 50
90.0
 51
270.0
  0
LINE
  5
F6
100
AcDbEntity
100
AcDbLine
  8
drw, build platform
 62
256
370
-1
  6
ByLayer
 10
155.0000000000000284
 20
14.4444444444444482
 30
0.0
 11
148.3333333333333712
 21
14.4444444444444606
 31
0.0
  0
LINE
  5
F7
100
AcDbEntity
100
AcDbLine
  8
drw, build platform
 62
256
370
-1
  6
ByLayer
 10
148.3333333333333712
 20
14.4444444444444606
 30
0.0
 11
148.3333333333333712
 21
16.6666666666666821
 31
0.0
  0
ARC
  5
F8
100
AcDbEntity
  8
drw, build platform
 62
256
370
-1
  6
ByLayer
100
AcDbCircle
 10
149.4444444444444855
 20
16.6666666666666643
 30
0.0
 40
1.1111111111111112
100
AcDbArc
 50
90.0
 51
180.0
  0
LINE
  5
F9
100
AcDbEntity
100
AcDbLine
  8
drw, build platform
 62
256
370
-1
  6
ByLayer
 10
155.0000000000000284
 20
21.1111111111110858
 30
0.0
 11
148.3333333333333428
 21
21.1111111111110858
 31
0.0
  0
LINE
  5
FA
100
AcDbEntity
100
AcDbLine
  8
drw, build platform
 62
256
370
-1
  6
ByLayer
 10
148.3333333333333428
 20
21.1111111111110858
 30
0.0
 11
148.3333333333333712
 21
26.1111111111110858
 31
0.0
  0
ARC
  5
FB
100
AcDbEntity
  8
drw, build platform
 62
256
370
-1
  6
ByLayer
100
AcDbCircle
 10
150.0000000000000284
 20
26.1111111111110894
 30
0.0
 40
1.6666666666666667
100
AcDbArc
 50
90.0
 51
180.0
  0
LINE
  5
FC
100
AcDbEntity
100
AcDbLine
  8
drw, build platform
 62
256
370
-1
  6
ByLayer
 10
150.0000000000000568
 20
27.7777777777777501
 30
0.0
 11
155.0
 21
27.7777777777778034
 31
0.0
  0
LINE
  5
FD
100
AcDbEntity
100
AcDbLine
  8
drw, build platform
 62
256
370
-1
  6
ByLayer
 10
148.3333333333333712
 20
24.4444444444443647
 30
0.0
 11
155.0000000000000568
 21
24.4444444444443683
 31
0.0
  0
LINE
  5
FE
100
AcDbEntity
100
AcDbLine
  8
drw, build platform
 62
256
370
-1
  6
ByLayer
 10
159.9999999999999432
 20
-50.0000000000000568
 30
0.0
 11
59.9999999999999218
 21
-49.9999999999998863
 31
0.0
  0
LINE
  5
FF
100
AcDbEntity
100
AcDbLine
  8
drw, build platform
 62
256
370
-1
  6
ByLayer
 10
59.9999999999999218
 20
-49.9999999999998863
 30
0.0
 11
60.0000000000000497
 21
50.0000000000000497
 31
0.0
  0
LINE
  5
100
100
AcDbEntity
100
AcDbLine
  8
drw, build platform
 62
256
370
-1
  6
ByLayer
 10
60.0000000000000497
 20
50.0000000000000497
 30
0.0
 11
160.0000000000000568
 21
49.9999999999999716
 31
0.0
  0
LINE
  5
101
100
AcDbEntity
100
AcDbLine
  8
drw, build platform
 62
256
370
-1
  6
ByLayer
 10
160.0000000000000568
 20
49.9999999999999716
 30
0.0
 11
159.9999999999999432
 21
-50.0000000000000568
 31
0.0
  0
CIRCLE
  5
102
100
AcDbEntity
100
AcDbCircle
  8
drw, build platform
 62
256
370
-1
  6
ByLayer
 10
109.9999999999999716
 20
-4.0
 30
0.0
 40
2.75
  0
CIRCLE
  5
103
100
AcDbEntity
100
AcDbCircle
  8
drw, build platform
 62
256
370
-1
  6
ByLayer
 10
89.9000000000000199
 20
9.0000000000000213
 30
0.0
 40
2.75
  0
CIRCLE
  5
104
100
AcDbEntity
100
AcDbCircle
  8
drw, build platform
 62
256
370
-1
  6
ByLayer
 10
64.0380999999999148
 20
-45.9618999999999076
 30
0.0
 40
1.5
  0
CIRCLE
  5
105
100
AcDbEntity
100
AcDbCircle
  8
drw, build platform
 62
256
370
-1
  6
ByLayer
 10
109.9999999999999858
 20
-45.9618999999999573
 30
0.0
 40
1.5
  0
CIRCLE
  5
106
100
AcDbEntity
100
AcDbCircle
  8
drw, build platform
 62
256
370
-1
  6
ByLayer
 10
155.9618999999999858
 20
-45.9619000000000071
 30
0.0
 40
1.5
  0
CIRCLE
  5
107
100
AcDbEntity
100
AcDbCircle
  8
drw, build platform
 62
256
370
-1
  6
ByLayer
 10
64.0381000000000427
 20
45.9619000000000071
 30
0.0
 40
1.5
  0
CIRCLE
  5
108
100
AcDbEntity
100
AcDbCircle
  8
drw, build platform
 62
256
370
-1
  6
ByLayer
 10
110.0
 20
45.9619000000000142
 30
0.0
 40
1.5
  0
CIRCLE
  5
109
100
AcDbEntity
100
AcDbCircle
  8
drw, build platform
 62
256
370
-1
  6
ByLayer
 10
155.961900000000071
 20
45.9618999999999787
 30
0.0
 40
1.5
  0
LINE
  5
10A
100
AcDbEntity
100
AcDbLine
  8
drw, build platform
 62
256
370
-1
  6
ByLayer
 10
116.7699999999999534
 20
-21.6300000000000381
 30
0.0
 11
114.0299999999999727
 21
-21.6300000000000381
 31
0.0
  0
LINE
  5
10B
100
AcDbEntity
100
AcDbLine
  8
drw, build platform
 62
256
370
-1
  6
ByLayer
 10
116.7699999999999676
 20
-24.3699999999999761
 30
0.0
 11
116.7699999999999534
 21
-21.6300000000000381
 31
0.0
  0
LINE
  5
10C
100
AcDbEntity
100
AcDbLine
  8
drw, build platform
 62
256
370
-1
  6
ByLayer
 10
114.0299999999999727
 20
-21.6300000000000381
 30
0.0
 11
114.0299999999999727
 21
-24.3699999999999903
 31
0.0
  0
LINE
  5
10D
100
AcDbEntity
100
AcDbLine
  8
drw, build platform
 62
256
370
-1
  6
ByLayer
 10
114.0299999999999727
 20
-24.3699999999999903
 30
0.0
 11
116.7699999999999676
 21
-24.3699999999999761
 31
0.0
  0
LINE
  5
10E
100
AcDbEntity
100
AcDbLine
  8
drw, build platform
 62
256
370
-1
  6
ByLayer
 10
105.9699999999999562
 20
-21.6300000000000239
 30
0.0
 11
103.2299999999999613
 21
-21.6300000000000239
 31
0.0
  0
LINE
  5
10F
100
AcDbEntity
100
AcDbLine
  8
drw, build platform
 62
256
370
-1
  6
ByLayer
 10
105.9699999999999704
 20
-24.3699999999999619
 30
0.0
 11
105.9699999999999562
 21
-21.6300000000000239
 31
0.0
  0
LINE
  5
110
100
AcDbEntity
100
AcDbLine
  8
drw, build platform
 62
256
370
-1
  6
ByLayer
 10
103.2299999999999613
 20
-21.6300000000000239
 30
0.0
 11
103.2299999999999613
 21
-24.3699999999999619
 31
0.0
  0
LINE
  5
111
100
AcDbEntity
100
AcDbLine
  8
drw, build platform
 62
256
370
-1
  6
ByLayer
 10
103.2299999999999613
 20
-24.3699999999999619
 30
0.0
 11
105.9699999999999704
 21
-24.3699999999999619
 31
0.0
  0
LINE
  5
112
100
AcDbEntity
100
AcDbLine
  8
drw, build platform
 62
256
370
-1
  6
ByLayer
 10
111.3699999999999903
 20
10.3699999999999761
 30
0.0
 11
108.6299999999999812
 21
10.3699999999999761
 31
0.0
  0
LINE
  5
113
100
AcDbEntity
100
AcDbLine
  8
drw, build platform
 62
256
370
-1
  6
ByLayer
 10
111.3699999999999761
 20
7.6300000000000239
 30
0.0
 11
111.3699999999999903
 21
10.3699999999999761
 31
0.0
  0
LINE
  5
114
100
AcDbEntity
100
AcDbLine
  8
drw, build platform
 62
256
370
-1
  6
ByLayer
 10
108.6299999999999812
 20
10.3699999999999761
 30
0.0
 11
108.6299999999999955
 21
7.6300000000000239
 31
0.0
  0
LINE
  5
115
100
AcDbEntity
100
AcDbLine
  8
drw, build platform
 62
256
370
-1
  6
ByLayer
 10
108.6299999999999955
 20
7.6300000000000239
 30
0.0
 11
111.3699999999999761
 21
7.6300000000000239
 31
0.0
  0
LINE
  5
116
100
AcDbEntity
100
AcDbLine
  8
drw, build platform
 62
256
370
-1
  6
ByLayer
 10
116.7699999999999676
 20
24.3699999999999761
 30
0.0
 11
114.0299999999999869
 21
24.3699999999999761
 31
0.0
  0
LINE
  5
117
100
AcDbEntity
100
AcDbLine
  8
drw, build platform
 62
256
370
-1
  6
ByLayer
 10
116.7699999999999818
 20
21.6300000000000239
 30
0.0
 11
116.7699999999999676
 21
24.3699999999999761
 31
0.0
  0
LINE
  5
118
100
AcDbEntity
100
AcDbLine
  8
drw, build platform
 62
256
370
-1
  6
ByLayer
 10
114.0299999999999869
 20
24.3699999999999761
 30
0.0
 11
114.0300000000000011
 21
21.6300000000000239
 31
0.0
  0
LINE
  5
119
100
AcDbEntity
100
AcDbLine
  8
drw, build platform
 62
256
370
-1
  6
ByLayer
 10
114.0300000000000011
 20
21.6300000000000239
 30
0.0
 11
116.7699999999999818
 21
21.6300000000000239
 31
0.0
  0
LINE
  5
11A
100
AcDbEntity
100
AcDbLine
  8
drw, build platform
 62
256
370
-1
  6
ByLayer
 10
105.9699999999999847
 20
24.3699999999999761
 30
0.0
 11
103.2299999999999756
 21
24.3699999999999761
 31
0.0
  0
LINE
  5
11B
100
AcDbEntity
100
AcDbLine
  8
drw, build platform
 62
256
370
-1
  6
ByLayer
 10
105.9699999999999989
 20
21.6300000000000239
 30
0.0
 11
105.9699999999999847
 21
24.3699999999999761
 31
0.0
  0
LINE
  5
11C
100
AcDbEntity
100
AcDbLine
  8
drw, build platform
 62
256
370
-1
  6
ByLayer
 10
103.2299999999999756
 20
24.3699999999999761
 30
0.0
 11
103.2299999999999756
 21
21.6300000000000239
 31
0.0
  0
LINE
  5
11D
100
AcDbEntity
100
AcDbLine
  8
drw, build platform
 62
256
370
-1
  6
ByLayer
 10
103.2299999999999756
 20
21.6300000000000239
 30
0.0
 11
105.9699999999999989
 21
21.6300000000000239
 31
0.0
  0
CIRCLE
  5
11E
100
AcDbEntity
100
AcDbCircle
  8
drw, build platform
 62
256
370
-1
  6
ByLayer
 10
130.1000000000000227
 20
9.0
 30
0.0
 40
2.75
  0
CIRCLE
  5
11F
100
AcDbEntity
100
AcDbCircle
  8
drw, build platform
 62
256
370
-1
  6
ByLayer
 10
129.9999999999999716
 20
-184.0
 30
0.0
 40
2.75
  0
LINE
  5
120
100
AcDbEntity
100
AcDbLine
  8
drw, build platform
 62
256
370
-1
  6
ByLayer
 10
136.7699999999999534
 20
-201.6300000000000239
 30
0.0
 11
134.0299999999999443
 21
-201.6300000000000239
 31
0.0
  0
LINE
  5
121
100
AcDbEntity
100
AcDbLine
  8
drw, build platform
 62
256
370
-1
  6
ByLayer
 10
136.7699999999999534
 20
-204.3699999999999761
 30
0.0
 11
136.7699999999999534
 21
-201.6300000000000239
 31
0.0
  0
LINE
  5
122
100
AcDbEntity
100
AcDbLine
  8
drw, build platform
 62
256
370
-1
  6
ByLayer
 10
134.0299999999999443
 20
-201.6300000000000239
 30
0.0
 11
134.0299999999999443
 21
-204.3699999999999761
 31
0.0
  0
LINE
  5
123
100
AcDbEntity
100
AcDbLine
  8
drw, build platform
 62
256
370
-1
  6
ByLayer
 10
134.0299999999999443
 20
-204.3699999999999761
 30
0.0
 11
136.7699999999999534
 21
-204.3699999999999761
 31
0.0
  0
LINE
  5
124
100
AcDbEntity
100
AcDbLine
  8
drw, build platform
 62
256
370
-1
  6
ByLayer
 10
125.969999999999942
 20
-201.6300000000000239
 30
0.0
 11
123.2299999999999613
 21
-201.6300000000000239
 31
0.0
  0
LINE
  5
125
100
AcDbEntity
100
AcDbLine
  8
drw, build platform
 62
256
370
-1
  6
ByLayer
 10
125.969999999999942
 20
-204.3699999999999477
 30
0.0
 11
125.969999999999942
 21
-201.6300000000000239
 31
0.0
  0
LINE
  5
126
100
AcDbEntity
100
AcDbLine
  8
drw, build platform
 62
256
370
-1
  6
ByLayer
 10
123.2299999999999613
 20
-201.6300000000000239
 30
0.0
 11
123.2299999999999613
 21
-204.3699999999999477
 31
0.0
  0
LINE
  5
127
100
AcDbEntity
100
AcDbLine
  8
drw, build platform
 62
256
370
-1
  6
ByLayer
 10
123.2299999999999613
 20
-204.3699999999999477
 30
0.0
 11
125.969999999999942
 21
-204.3699999999999477
 31
0.0
  0
LINE
  5
128
100
AcDbEntity
100
AcDbLine
  8
drw, build platform
 62
256
370
-1
  6
ByLayer
 10
131.3699999999999761
 20
-169.6300000000000239
 30
0.0
 11
128.6299999999999955
 21
-169.6300000000000239
 31
0.0
  0
LINE
  5
129
100
AcDbEntity
100
AcDbLine
  8
drw, build platform
 62
256
370
-1
  6
ByLayer
 10
131.3699999999999761
 20
-172.3699999999999761
 30
0.0
 11
131.3699999999999761
 21
-169.6300000000000239
 31
0.0
  0
LINE
  5
12A
100
AcDbEntity
100
AcDbLine
  8
drw, build platform
 62
256
370
-1
  6
ByLayer
 10
128.6299999999999955
 20
-169.6300000000000239
 30
0.0
 11
128.6299999999999955
 21
-172.3699999999999761
 31
0.0
  0
LINE
  5
12B
100
AcDbEntity
100
AcDbLine
  8
drw, build platform
 62
256
370
-1
  6
ByLayer
 10
128.6299999999999955
 20
-172.3699999999999761
 30
0.0
 11
131.3699999999999761
 21
-172.3699999999999761
 31
0.0
  0
LINE
  5
12C
100
AcDbEntity
100
AcDbLine
  8
drw, build platform
 62
256
370
-1
  6
ByLayer
 10
136.7699999999999534
 20
-155.6300000000000239
 30
0.0
 11
134.0300000000000011
 21
-155.6300000000000239
 31
0.0
  0
LINE
  5
12D
100
AcDbEntity
100
AcDbLine
  8
drw, build platform
 62
256
370
-1
  6
ByLayer
 10
136.7699999999999534
 20
-158.3699999999999761
 30
0.0
 11
136.7699999999999534
 21
-155.6300000000000239
 31
0.0
  0
LINE
  5
12E
100
AcDbEntity
100
AcDbLine
  8
drw, build platform
 62
256
370
-1
  6
ByLayer
 10
134.0300000000000011
 20
-155.6300000000000239
 30
0.0
 11
134.0300000000000011
 21
-158.3699999999999761
 31
0.0
  0
LINE
  5
12F
100
AcDbEntity
100
AcDbLine
  8
drw, build platform
 62
256
370
-1
  6
ByLayer
 10
134.0300000000000011
 20
-158.3699999999999761
 30
0.0
 11
136.7699999999999534
 21
-158.3699999999999761
 31
0.0
  0
LINE
  5
130
100
AcDbEntity
100
AcDbLine
  8
drw, build platform
 62
256
370
-1
  6
ByLayer
 10
125.9699999999999704
 20
-155.6300000000000239
 30
0.0
 11
123.2299999999999898
 21
-155.6300000000000239
 31
0.0
  0
LINE
  5
131
100
AcDbEntity
100
AcDbLine
  8
drw, build platform
 62
256
370
-1
  6
ByLayer
 10
125.9699999999999989
 20
-158.3699999999999761
 30
0.0
 11
125.9699999999999704
 21
-155.6300000000000239
 31
0.0
  0
LINE
  5
132
100
AcDbEntity
100
AcDbLine
  8
drw, build platform
 62
256
370
-1
  6
ByLayer
 10
123.2299999999999898
 20
-155.6300000000000239
 30
0.0
 11
123.2299999999999613
 21
-158.3699999999999761
 31
0.0
  0
LINE
  5
133
100
AcDbEntity
100
AcDbLine
  8
drw, build platform
 62
256
370
-1
  6
ByLayer
 10
123.2299999999999613
 20
-158.3699999999999761
 30
0.0
 11
125.9699999999999989
 21
-158.3699999999999761
 31
0.0
  0
CIRCLE
  5
134
100
AcDbEntity
100
AcDbCircle
  8
drw, build platform
 62
256
370
-1
  6
ByLayer
 10
150.0999999999999943
 20
-171.0
 30
0.0
 40
2.75
  0
CIRCLE
  5
135
100
AcDbEntity
100
AcDbCircle
  8
2 top
 62
256
370
-1
  6
ByLayer
 10
-45.9618999999999645
 20
50.0
 30
0.0
 40
1.5
  0
LINE
  5
136
100
AcDbEntity
100
AcDbLine
  8
2 top
 62
256
370
-1
  6
ByLayer
 10
-40.9618999999999645
 20
52.5
 30
0.0
 11
-40.9618999999999645
 21
47.5
 31
0.0
  0
CIRCLE
  5
137
100
AcDbEntity
100
AcDbCircle
  8
2 top
 62
256
370
-1
  6
ByLayer
 10
45.9619000000000568
 20
49.9999999999999645
 30
0.0
 40
1.5
  0
LINE
  5
138
100
AcDbEntity
100
AcDbLine
  8
2 top
 62
256
370
-1
  6
ByLayer
 10
40.9619000000000568
 20
52.4999999999999645
 30
0.0
 11
40.9619000000000568
 21
47.4999999999999716
 31
0.0
  0
CIRCLE
  5
139
100
AcDbEntity
100
AcDbCircle
  8
2 top
 62
256
370
-1
  6
ByLayer
 10
-45.9619000000000568
 20
-41.9237999999999502
 30
0.0
 40
1.5
  0
CIRCLE
  5
13A
100
AcDbEntity
100
AcDbCircle
  8
2 top
 62
256
370
-1
  6
ByLayer
 10
45.9619
 20
-41.9238000000000355
 30
0.0
 40
1.5
  0
LINE
  5
13B
100
AcDbEntity
100
AcDbLine
  8
drw, plywood
 62
256
370
-1
  6
ByLayer
 10
-50.0000000000000284
 20
-73.1700000000000017
 30
0.0
 11
-50.0000000000000284
 21
-68.1700000000000017
 31
0.0
  0
LINE
  5
13C
100
AcDbEntity
100
AcDbLine
  8
drw, plywood
 62
256
370
-1
  6
ByLayer
 10
-50.0000000000000284
 20
-68.1700000000000017
 30
0.0
 11
49.9999999999999574
 21
-68.1700000000000017
 31
0.0
  0
LINE
  5
13D
100
AcDbEntity
100
AcDbLine
  8
drw, plywood
 62
256
370
-1
  6
ByLayer
 10
50.0
 20
-68.1700000000000017
 30
0.0
 11
50.0
 21
-73.1700000000000017
 31
0.0
  0
LINE
  5
13E
100
AcDbEntity
100
AcDbLine
  8
drw, plywood
 62
256
370
-1
  6
ByLayer
 10
50.0
 20
-73.1700000000000017
 30
0.0
 11
-50.0000000000000284
 21
-73.1700000000000017
 31
0.0
  0
LINE
  5
13F
100
AcDbEntity
100
AcDbLine
  8
3 side
 62
256
370
-1
  6
ByLayer
 10
-40.9619000000000568
 20
-73.1700000000000017
 30
0.0
 11
-40.9619000000000568
 21
-68.6700000000000017
 31
0.0
  0
ARC
  5
140
100
AcDbEntity
  8
3 side
 62
256
370
-1
  6
ByLayer
100
AcDbCircle
 10
-40.4619000000000568
 20
-68.6700000000000017
 30
0.0
 40
0.5
100
AcDbArc
 50
90.0000000000000142
 51
180.0
  0
LINE
  5
141
100
AcDbEntity
100
AcDbLine
  8
3 side
 62
256
370
-1
  6
ByLayer
 10
40.9619
 20
-73.1700000000000017
 30
0.0
 11
40.9619
 21
-68.6700000000000017
 31
0.0
  0
ARC
  5
142
100
AcDbEntity
  8
3 side
 62
256
370
-1
  6
ByLayer
100
AcDbCircle
 10
40.4619
 20
-68.6700000000000017
 30
0.0
 40
0.5
100
AcDbArc
 50
0.0
 51
90.0000000000000142
  0
LINE
  5
143
100
AcDbEntity
100
AcDbLine
  8
drw, PCB
 62
256
370
-1
  6
ByLayer
 10
-49.9999999999999716
 20
-65.9000000000000057
 30
0.0
 11
-49.9999999999999716
 21
-64.25
 31
0.0
  0
LINE
  5
144
100
AcDbEntity
100
AcDbLine
  8
drw, PCB
 62
256
370
-1
  6
ByLayer
 10
-49.9999999999999716
 20
-65.9000000000000057
 30
0.0
 11
50.0000000000000284
 21
-65.9000000000000057
 31
0.0
  0
LINE
  5
145
100
AcDbEntity
100
AcDbLine
  8
drw, PCB
 62
256
370
-1
  6
ByLayer
 10
50.0000000000000284
 20
-65.9000000000000057
 30
0.0
 11
50.0000000000000284
 21
-64.25
 31
0.0
  0
LINE
  5
146
100
AcDbEntity
100
AcDbLine
  8
drw, PCB
 62
256
370
-1
  6
ByLayer
 10
50.0000000000000284
 20
-64.25
 30
0.0
 11
-49.9999999999999716
 21
-64.25
 31
0.0
  0
HATCH
  5
147
  8
drw, PCB
 62
256
370
-1
  6
ByLayer
100
AcDbEntity
100
AcDbHatch
 10
0.0
 20
0.0
 30
0.0
210
0.0
220
0.0
230
1.0
  2
ansi31
 70
0
 71
0
 91
1
 92
1
 93
4
 72
1
 10
-49.9999999999999716
 20
-65.9000000000000057
 11
-49.9999999999999716
 21
-64.25
 72
1
 10
-49.9999999999999716
 20
-64.25
 11
50.0000000000000284
 21
-64.25
 72
1
 10
50.0000000000000284
 20
-64.25
 11
50.0000000000000284
 21
-65.9000000000000057
 72
1
 10
50.0000000000000284
 20
-65.9000000000000057
 11
-49.9999999999999716
 21
-65.9000000000000057
 97
0
 75
0
 76
1
 52
0.0
 41
1.0
 77
0
 78
1
 53
45.0
 43
0.0
 44
0.0
 45
-0.0883883476483184
 46
0.0883883476483185
 79
0
 98
0
  0
LINE
  5
148
100
AcDbEntity
100
AcDbLine
  8
3 side
 62
256
370
-1
  6
ByLayer
 10
-49.9999999999999716
 20
-64.25
 30
0.0
 11
-50.0000000000000213
 21
-73.1700000000000017
 31
0.0
  0
HATCH
  5
149
  8
drw, plywood
 62
256
370
-1
  6
ByLayer
100
AcDbEntity
100
AcDbHatch
 10
0.0
 20
0.0
 30
0.0
210
0.0
220
0.0
230
1.0
  2
ansi31
 70
0
 71
0
 91
1
 92
1
 93
4
 72
1
 10
-50.0000000000000284
 20
-73.1700000000000017
 11
-50.0000000000000284
 21
-68.1700000000000017
 72
1
 10
-50.0000000000000284
 20
-68.1700000000000017
 11
49.9999999999999574
 21
-68.1700000000000017
 72
1
 10
50.0
 20
-68.1700000000000017
 11
50.0
 21
-73.1700000000000017
 72
1
 10
50.0
 20
-73.1700000000000017
 11
-50.0000000000000284
 21
-73.1700000000000017
 97
0
 75
0
 76
1
 52
0.0
 41
1.0
 77
0
 78
1
 53
45.0
 43
0.0
 44
0.0
 45
-0.0883883476483184
 46
0.0883883476483185
 79
0
 98
0
  0
INSERT
  5
14A
100
AcDbEntity
100
AcDbBlockReference
  8
3 side
 62
256
370
-1
  6
ByLayer
  2
tabs-with-bolt-20
 10
-16.9999974048171936
 20
-99.1000000000000085
 30
0.0
 44
1.0
 45
1.0
  0
CIRCLE
  5
14B
100
AcDbEntity
100
AcDbCircle
  8
drw, tube
 62
256
370
-1
  6
ByLayer
 10
-60.8989220010750074
 20
-70.0
 30
0.0
 40
4.7999999999999998
  0
CIRCLE
  5
14C
100
AcDbEntity
100
AcDbCircle
  8
drw, tube
 62
256
370
-1
  6
ByLayer
 10
-60.8989220010750074
 20
-70.0
 30
0.0
 40
3.165
  0
HATCH
  5
14D
  8
drw, tube
 62
256
370
-1
  6
ByLayer
100
AcDbEntity
100
AcDbHatch
 10
0.0
 20
0.0
 30
0.0
210
0.0
220
0.0
230
1.0
  2
ansi31
 70
0
 71
0
 91
1
 92
1
 93
2
 72
2
 10
-60.8989220010750074
 20
-70.0
 40
4.7999999999999998
 50
0.0
 51
360.0
 73
1
 72
2
 10
-60.8989220010750074
 20
-70.0
 40
3.165
 50
0.0
 51
360.0
 73
1
 97
0
 75
0
 76
1
 52
0.0
 41
1.0
 77
0
 78
1
 53
45.0
 43
0.0
 44
0.0
 45
-0.0883883476483184
 46
0.0883883476483185
 79
0
 98
0
  0
ARC
  5
14E
100
AcDbEntity
  8
3 side
 62
256
370
-1
  6
ByLayer
100
AcDbCircle
 10
-60.8989220010750074
 20
-70.0
 30
0.0
 40
3.1649999999999983
100
AcDbArc
 50
225.0000241279181523
 51
44.9999925365361051
  0
ARC
  5
14F
100
AcDbEntity
  8
3 side
 62
256
370
-1
  6
ByLayer
100
AcDbCircle
 10
-58.6609316759314723
 20
-67.7620044002357957
 30
0.0
 40
3.5120044002357957
100
AcDbArc
 50
90.0
 51
134.9999999999656382
  0
LINE
  5
150
100
AcDbEntity
100
AcDbLine
  8
3 side
 62
256
370
-1
  6
ByLayer
 10
-58.6609287459860056
 20
-67.7620073301781929
 30
0.0
 11
-61.1442938028936638
 21
-65.2786422732705347
 31
0.0
  0
LINE
  5
151
100
AcDbEntity
100
AcDbLine
  8
3 side
 62
256
370
-1
  6
ByLayer
 10
-49.9999999999999716
 20
-64.25
 30
0.0
 11
-58.6609316759314723
 21
-64.25
 31
0.0
  0
LINE
  5
152
100
AcDbEntity
100
AcDbLine
  8
3 side
 62
256
370
-1
  6
ByLayer
 10
-32.0
 20
-99.1000000000000085
 30
0.0
 11
-31.9999999999999929
 21
-104.1000000000000085
 31
0.0
  0
LINE
  5
153
100
AcDbEntity
100
AcDbLine
  8
3 side
 62
256
370
-1
  6
ByLayer
 10
-31.9999999999999964
 20
-99.1000000000000085
 30
0.0
 11
-26.9999974048171936
 21
-99.1000000000000085
 31
0.0
  0
ARC
  5
154
100
AcDbEntity
  8
3 side
 62
256
370
-1
  6
ByLayer
100
AcDbCircle
 10
53.5
 20
-73.6700000000000017
 30
0.0
 40
0.5
100
AcDbArc
 50
90.0000000000000568
 51
180.0
  0
LINE
  5
155
100
AcDbEntity
100
AcDbLine
  8
3 side
 62
256
370
-1
  6
ByLayer
 10
53.5
 20
-73.1700000000000017
 30
0.0
 11
55.5381
 21
-73.1700000000000017
 31
0.0
  0
LINE
  5
156
100
AcDbEntity
100
AcDbLine
  8
3 side
 62
256
370
-1
  6
ByLayer
 10
55.5381
 20
-70.0
 30
0.0
 11
55.5381
 21
-73.1700000000000017
 31
0.0
  0
CIRCLE
  5
157
100
AcDbEntity
100
AcDbCircle
  8
3 side
 62
256
370
-1
  6
ByLayer
 10
63.5381
 20
-80.0
 30
0.0
 40
1.5
  0
ARC
  5
158
100
AcDbEntity
  8
3 side
 62
256
370
-1
  6
ByLayer
100
AcDbCircle
 10
57.955600000000004
 20
-70.000001683884733
 30
0.0
 40
2.4175000000005831
100
AcDbArc
 50
0.0000398996478036
 51
179.9999600820873127
  0
ARC
  5
159
100
AcDbEntity
  8
3 side
 62
256
370
-1
  6
ByLayer
100
AcDbCircle
 10
69.120599999999996
 20
-70.0000016842698471
 30
0.0
 40
2.4175000000005831
100
AcDbArc
 50
0.0000398996478036
 51
179.9999600820873127
  0
ARC
  5
15A
100
AcDbEntity
  8
3 side
 62
256
370
-1
  6
ByLayer
100
AcDbCircle
 10
63.5381
 20
-70.0
 30
0.0
 40
3.1649999999999991
100
AcDbArc
 50
180.0
 51
359.9999654037264918
  0
ARC
  5
15B
100
AcDbEntity
  8
3 side
 62
256
370
-1
  6
ByLayer
100
AcDbCircle
 10
63.5381
 20
-96.1000000000000085
 30
0.0
 40
7.9999999999999982
100
AcDbArc
 50
270.0
 51
0.0
  0
LINE
  5
15C
100
AcDbEntity
100
AcDbLine
  8
3 side
 62
256
370
-1
  6
ByLayer
 10
71.5381
 20
-70.0000016842698471
 30
0.0
 11
71.5381
 21
-96.1000000000000085
 31
0.0
  0
INSERT
  5
15D
100
AcDbEntity
100
AcDbBlockReference
  8
3 side
 62
256
370
-1
  6
ByLayer
  2
tabs-with-bolt-20
 10
17.0
 20
-99.1000000000000085
 30
0.0
 44
1.0
 45
1.0
  0
LINE
  5
15E
100
AcDbEntity
100
AcDbLine
  8
3 side
 62
256
370
-1
  6
ByLayer
 10
-6.9999974048171953
 20
-99.1000000000000085
 30
0.0
 11
7.0
 21
-99.1000000000000085
 31
0.0
  0
LINE
  5
15F
100
AcDbEntity
100
AcDbLine
  8
3 side
 62
256
370
-1
  6
ByLayer
 10
32.0
 20
-99.1000000000000085
 30
0.0
 11
32.0
 21
-104.1000000000000085
 31
0.0
  0
LINE
  5
160
100
AcDbEntity
100
AcDbLine
  8
3 side
 62
256
370
-1
  6
ByLayer
 10
27.0
 20
-99.1000000000000085
 30
0.0
 11
32.0
 21
-99.1000000000000085
 31
0.0
  0
LINE
  5
161
100
AcDbEntity
100
AcDbLine
  8
3 side
 62
256
370
-1
  6
ByLayer
 10
32.0
 20
-104.1000000000000085
 30
0.0
 11
63.5381
 21
-104.1000000000000085
 31
0.0
  0
LINE
  5
162
100
AcDbEntity
100
AcDbLine
  8
3 side
 62
256
370
-1
  6
ByLayer
 10
53.0
 20
-75.0
 30
0.0
 11
53.0
 21
-73.6700000000000017
 31
0.0
  0
ARC
  5
163
100
AcDbEntity
  8
3 side
 62
256
370
-1
  6
ByLayer
100
AcDbCircle
 10
50.5
 20
-73.6700000000000017
 30
0.0
 40
0.5
100
AcDbArc
 50
0.0
 51
89.9999999999999574
  0
LINE
  5
164
100
AcDbEntity
100
AcDbLine
  8
3 side
 62
256
370
-1
  6
ByLayer
 10
51.0
 20
-73.6700000000000017
 30
0.0
 11
51.0
 21
-75.0
 31
0.0
  0
LINE
  5
165
100
AcDbEntity
100
AcDbLine
  8
3 side
 62
256
370
-1
  6
ByLayer
 10
50.5
 20
-73.1700000000000017
 30
0.0
 11
40.9619
 21
-73.1700000000000017
 31
0.0
  0
ARC
  5
166
100
AcDbEntity
  8
3 side
 62
256
370
-1
  6
ByLayer
100
AcDbCircle
 10
52.0
 20
-85.0
 30
0.0
 40
10.0498756211208899
100
AcDbArc
 50
95.710593137499643
 51
84.2894068625003712
  0
CIRCLE
  5
167
100
AcDbEntity
100
AcDbCircle
  8
3 side
 62
256
370
-1
  6
ByLayer
 10
-73.5286009297968235
 20
-78.6477608019080208
 30
0.0
 40
1.5
  0
LINE
  5
168
100
AcDbEntity
100
AcDbLine
  8
3 side
 62
256
370
-1
  6
ByLayer
 10
-67.9405163402618228
 20
-78.8004389607961429
 30
0.0
 11
-63.4089774050785735
 21
-76.6873476520926545
 31
0.0
  0
LINE
  5
169
100
AcDbEntity
100
AcDbLine
  8
3 side
 62
256
370
-1
  6
ByLayer
 10
-77.0035942106283215
 20
-83.026621578203148
 30
0.0
 11
-81.5351331458115709
 21
-85.1397128869066364
 31
0.0
  0
LINE
  5
16A
100
AcDbEntity
100
AcDbLine
  8
3 side
 62
256
370
-1
  6
ByLayer
 10
-79.1166855193318241
 20
-78.4950826430198987
 30
0.0
 11
-77.0035942106283215
 21
-83.026621578203148
 31
0.0
  0
LINE
  5
16B
100
AcDbEntity
100
AcDbLine
  8
3 side
 62
256
370
-1
  6
ByLayer
 10
-70.0536076489653254
 20
-74.2689000256128935
 30
0.0
 11
-67.9405163402618228
 21
-78.8004389607961429
 31
0.0
  0
LINE
  5
16C
100
AcDbEntity
100
AcDbLine
  8
3 side
 62
256
370
-1
  6
ByLayer
 10
-79.1166855193318241
 20
-78.4950826430198987
 30
0.0
 11
-70.0536076489653254
 21
-74.2689000256128935
 31
0.0
  0
LINE
  5
16D
100
AcDbEntity
100
AcDbLine
  8
3 side
 62
256
370
-1
  6
ByLayer
 10
-65.5220687137820761
 20
-72.1558087169094051
 30
0.0
 11
-63.4089774050785735
 21
-76.6873476520926545
 31
0.0
  0
LINE
  5
16E
100
AcDbEntity
100
AcDbLine
  8
3 side
 62
256
370
-1
  6
ByLayer
 10
-65.5220687137820761
 20
-72.1558087169094051
 30
0.0
 11
-63.1369146728032575
 21
-72.2379932531825943
 31
0.0
  0
ARC
  5
16F
100
AcDbEntity
  8
3 side
 62
256
370
-1
  6
ByLayer
100
AcDbCircle
 10
-60.8988999999999976
 20
-96.0999999999999943
 30
0.0
 40
8.0
100
AcDbArc
 50
225.0
 51
270.0
  0
LINE
  5
170
100
AcDbEntity
100
AcDbLine
  8
3 side
 62
256
370
-1
  6
ByLayer
 10
-81.5351331458115709
 20
-85.1397128869066364
 30
0.0
 11
-66.5557542494923808
 21
-101.7568542494923776
 31
0.0
  0
ARC
  5
171
100
AcDbEntity
  8
4 side cover
 62
256
370
-1
  6
ByLayer
100
AcDbCircle
 10
63.5381
 20
-70.0
 30
0.0
 40
8.0
100
AcDbArc
 50
0.0
 51
180.0
  0
CIRCLE
  5
172
100
AcDbEntity
100
AcDbCircle
  8
4 side cover
 62
256
370
-1
  6
ByLayer
 10
63.5381
 20
-80.0
 30
0.0
 40
1.5
  0
CIRCLE
  5
173
100
AcDbEntity
100
AcDbCircle
  8
4 side cover
 62
256
370
-1
  6
ByLayer
 10
63.5381
 20
-70.0
 30
0.0
 40
3.165
  0
LINE
  5
174
100
AcDbEntity
100
AcDbLine
  8
4 side cover
 62
256
370
-1
  6
ByLayer
 10
71.5381
 20
-69.1000000000000085
 30
0.0
 11
71.5381
 21
-96.1000000000000369
 31
0.0
  0
CIRCLE
  5
175
100
AcDbEntity
100
AcDbCircle
  8
drw, tube
 62
256
370
-1
  6
ByLayer
 10
63.5381
 20
-70.0
 30
0.0
 40
4.7999999999999998
  0
CIRCLE
  5
176
100
AcDbEntity
100
AcDbCircle
  8
drw, tube
 62
256
370
-1
  6
ByLayer
 10
63.5381
 20
-70.0
 30
0.0
 40
3.165
  0
HATCH
  5
177
  8
drw, tube
 62
256
370
-1
  6
ByLayer
100
AcDbEntity
100
AcDbHatch
 10
0.0
 20
0.0
 30
0.0
210
0.0
220
0.0
230
1.0
  2
ansi31
 70
0
 71
0
 91
1
 92
1
 93
2
 72
2
 10
63.5381
 20
-70.0
 40
4.7999999999999998
 50
0.0
 51
360.0
 73
1
 72
2
 10
63.5381
 20
-70.0
 40
3.165
 50
0.0
 51
360.0
 73
1
 97
0
 75
0
 76
1
 52
0.0
 41
1.0
 77
0
 78
1
 53
45.0
 43
0.0
 44
0.0
 45
-0.0883883476483184
 46
0.0883883476483185
 79
0
 98
0
  0
LINE
  5
178
100
AcDbEntity
100
AcDbLine
  8
drw, conveyor belt
 62
256
370
-1
  6
ByLayer
 10
-60.8989220010750074
 20
-74.7999999999999972
 30
0.0
 11
63.5381
 21
-74.7999999999999972
 31
0.0
  0
LINE
  5
179
100
AcDbEntity
100
AcDbLine
  8
drw, conveyor belt
 62
256
370
-1
  6
ByLayer
 10
-60.8989220010750074
 20
-74.8999999999999773
 30
0.0
 11
63.5381
 21
-74.8999999999999915
 31
0.0
  0
LINE
  5
17A
100
AcDbEntity
100
AcDbLine
  8
4 side cover
 62
256
370
-1
  6
ByLayer
 10
55.5381
 20
-70.000003367769466
 30
0.0
 11
55.5381
 21
-96.1000000000000085
 31
0.0
  0
ARC
  5
17B
100
AcDbEntity
  8
4 side cover
 62
256
370
-1
  6
ByLayer
100
AcDbCircle
 10
63.5381
 20
-96.0999999999999943
 30
0.0
 40
8.0
100
AcDbArc
 50
180.0
 51
0.0
  0
LINE
  5
17C
100
AcDbEntity
100
AcDbLine
  8
drw, plywood
 62
256
370
-1
  6
ByLayer
 10
32.0
 20
-99.1000000000000085
 30
0.0
 11
32.0
 21
-104.1000000000000085
 31
0.0
  0
LINE
  5
17D
100
AcDbEntity
100
AcDbLine
  8
3 side
 62
256
370
-1
  6
ByLayer
 10
-50.0000000000000213
 20
-73.1700000000000017
 30
0.0
 11
-40.9619000000000568
 21
-73.1700000000000017
 31
0.0
  0
LINE
  5
17E
100
AcDbEntity
100
AcDbLine
  8
2 top
 62
256
370
-1
  6
ByLayer
 10
-20.9618999999999645
 20
52.4999999999999858
 30
0.0
 11
-40.9618999999999645
 21
52.5
 31
0.0
  0
LINE
  5
17F
100
AcDbEntity
100
AcDbLine
  8
2 top
 62
256
370
-1
  6
ByLayer
 10
20.9619000000000639
 20
47.4999999999999787
 30
0.0
 11
40.9619000000000568
 21
47.4999999999999716
 31
0.0
  0
LINE
  5
180
100
AcDbEntity
100
AcDbLine
  8
2 top
 62
256
370
-1
  6
ByLayer
 10
-20.9618999999999645
 20
52.4999999999999858
 30
0.0
 11
-20.9618999999999716
 21
47.4999999999999716
 31
0.0
  0
LINE
  5
181
100
AcDbEntity
100
AcDbLine
  8
2 top
 62
256
370
-1
  6
ByLayer
 10
20.9619000000000639
 20
52.4999999999999858
 30
0.0
 11
20.9619000000000639
 21
47.4999999999999645
 31
0.0
  0
LINE
  5
182
100
AcDbEntity
100
AcDbLine
  8
2 top
 62
256
370
-1
  6
ByLayer
 10
-40.9618999999999645
 20
47.5
 30
0.0
 11
-20.9618999999999716
 21
47.4999999999999716
 31
0.0
  0
LINE
  5
183
100
AcDbEntity
100
AcDbLine
  8
2 top
 62
256
370
-1
  6
ByLayer
 10
40.9619000000000568
 20
52.4999999999999645
 30
0.0
 11
20.9619000000000639
 21
52.4999999999999858
 31
0.0
  0
LINE
  5
184
100
AcDbEntity
100
AcDbLine
  8
2 top
 62
256
370
-1
  6
ByLayer
 10
20.9619000000000071
 20
-39.4237999999999928
 30
0.0
 11
20.9619000000000071
 21
-44.4237999999999928
 31
0.0
  0
LINE
  5
185
100
AcDbEntity
100
AcDbLine
  8
2 top
 62
256
370
-1
  6
ByLayer
 10
40.9619000000000071
 20
-39.4238000000000071
 30
0.0
 11
20.9619000000000071
 21
-39.4237999999999928
 31
0.0
  0
LINE
  5
186
100
AcDbEntity
100
AcDbLine
  8
2 top
 62
256
370
-1
  6
ByLayer
 10
40.9619000000000071
 20
-39.4238000000000071
 30
0.0
 11
40.9619
 21
-44.4238000000000284
 31
0.0
  0
LINE
  5
187
100
AcDbEntity
100
AcDbLine
  8
2 top
 62
256
370
-1
  6
ByLayer
 10
20.9619000000000071
 20
-44.4237999999999928
 30
0.0
 11
40.9619
 21
-44.4238000000000284
 31
0.0
  0
LINE
  5
188
100
AcDbEntity
100
AcDbLine
  8
2 top
 62
256
370
-1
  6
ByLayer
 10
-40.9619000000000568
 20
-39.4237999999999502
 30
0.0
 11
-40.9619000000000568
 21
-44.4237999999999502
 31
0.0
  0
LINE
  5
189
100
AcDbEntity
100
AcDbLine
  8
2 top
 62
256
370
-1
  6
ByLayer
 10
-20.9619000000000568
 20
-39.4237999999999644
 30
0.0
 11
-40.9619000000000568
 21
-39.4237999999999502
 31
0.0
  0
LINE
  5
18A
100
AcDbEntity
100
AcDbLine
  8
2 top
 62
256
370
-1
  6
ByLayer
 10
-20.9619000000000568
 20
-39.4237999999999644
 30
0.0
 11
-20.9619000000000639
 21
-44.4237999999999857
 31
0.0
  0
LINE
  5
18B
100
AcDbEntity
100
AcDbLine
  8
2 top
 62
256
370
-1
  6
ByLayer
 10
-40.9619000000000568
 20
-44.4237999999999502
 30
0.0
 11
-20.9619000000000639
 21
-44.4237999999999857
 31
0.0
  0
LINE
  5
18C
100
AcDbEntity
100
AcDbLine
  8
3 side
 62
256
370
-1
  6
ByLayer
 10
-20.961900000000071
 20
-68.6700000000000017
 30
0.0
 11
-20.9619000000000639
 21
-73.1700000000000017
 31
0.0
  0
ARC
  5
18D
100
AcDbEntity
  8
3 side
 62
256
370
-1
  6
ByLayer
100
AcDbCircle
 10
-21.4619000000000639
 20
-68.6700000000000017
 30
0.0
 40
0.5
100
AcDbArc
 50
0.0
 51
90.0000000000000142
  0
LINE
  5
18E
100
AcDbEntity
100
AcDbLine
  8
3 side
 62
256
370
-1
  6
ByLayer
 10
-40.9619000000000568
 20
-68.1700000000000017
 30
0.0
 11
-21.461900000000071
 21
-68.1700000000000017
 31
0.0
  0
LINE
  5
18F
100
AcDbEntity
100
AcDbLine
  8
3 side
 62
256
370
-1
  6
ByLayer
 10
20.9619000000000071
 20
-68.6700000000000017
 30
0.0
 11
20.9619000000000071
 21
-73.1700000000000017
 31
0.0
  0
ARC
  5
190
100
AcDbEntity
  8
3 side
 62
256
370
-1
  6
ByLayer
100
AcDbCircle
 10
21.4619000000000071
 20
-68.6700000000000017
 30
0.0
 40
0.5
100
AcDbArc
 50
90.0000000000000142
 51
180.0
  0
LINE
  5
191
100
AcDbEntity
100
AcDbLine
  8
3 side
 62
256
370
-1
  6
ByLayer
 10
40.4619
 20
-68.1700000000000017
 30
0.0
 11
21.4619000000000071
 21
-68.1700000000000017
 31
0.0
  0
LINE
  5
192
100
AcDbEntity
100
AcDbLine
  8
3 side
 62
256
370
-1
  6
ByLayer
 10
-20.9619000000000639
 20
-73.1700000000000017
 30
0.0
 11
20.9619000000000071
 21
-73.1700000000000017
 31
0.0
  0
CIRCLE
  5
193
100
AcDbEntity
100
AcDbCircle
  8
4 side cover
 62
256
370
-1
  6
ByLayer
 10
63.5381
 20
-96.1000000000000085
 30
0.0
 40
1.5
  0
LINE
  5
194
100
AcDbEntity
100
AcDbLine
  8
7 belt
 62
256
370
-1
  6
ByLayer
 10
-100.0
 20
-300.0
 30
0.0
 11
-80.0000000000000426
 21
-385.0
 31
0.0
  0
LINE
  5
195
100
AcDbEntity
100
AcDbLine
  8
drw, plywood
 62
256
370
-1
  6
ByLayer
 10
-31.9999999999999964
 20
-99.1000000000000085
 30
0.0
 11
32.0
 21
-99.1000000000000085
 31
0.0
  0
HATCH
  5
196
  8
drw, plywood
 62
256
370
-1
  6
ByLayer
100
AcDbEntity
100
AcDbHatch
 10
0.0
 20
0.0
 30
0.0
210
0.0
220
0.0
230
1.0
  2
ansi31
 70
0
 71
0
 91
1
 92
1
 93
4
 72
1
 10
-31.9999999999999929
 20
-104.0000002222217717
 11
-32.0
 21
-99.1000000000000085
 72
1
 10
-32.0
 20
-99.1000000000000227
 11
32.0
 21
-99.1000000000000085
 72
1
 10
32.0
 20
-99.1000000000000085
 11
32.0
 21
-104.1000000000000796
 72
1
 10
32.0
 20
-104.1000000000000085
 11
-31.9999999999999929
 21
-104.0000002222217717
 97
0
 75
0
 76
1
 52
0.0
 41
1.0
 77
0
 78
1
 53
45.0
 43
0.0
 44
0.0
 45
-0.0883883476483184
 46
0.0883883476483185
 79
0
 98
0
  0
LINE
  5
197
100
AcDbEntity
100
AcDbLine
  8
drw, plywood
 62
256
370
-1
  6
ByLayer
 10
-31.9999999999999645
 20
-104.0000002222217717
 30
0.0
 11
-32.0
 21
-99.1000000000000085
 31
0.0
  0
LINE
  5
198
100
AcDbEntity
100
AcDbLine
  8
drw, plywood
 62
256
370
-1
  6
ByLayer
 10
32.0
 20
-104.1000000000000085
 30
0.0
 11
-31.9999999999999929
 21
-104.1000000000000085
 31
0.0
  0
LINE
  5
199
100
AcDbEntity
100
AcDbLine
  8
3 side
 62
256
370
-1
  6
ByLayer
 10
27.0
 20
-95.0
 30
0.0
 11
27.0
 21
-95.0
 31
0.0
  0
LINE
  5
19A
100
AcDbEntity
100
AcDbLine
  8
3 side
 62
256
370
-1
  6
ByLayer
 10
27.0
 20
-95.0
 30
0.0
 11
33.0
 21
-95.0
 31
0.0
  0
CIRCLE
  5
19B
100
AcDbEntity
100
AcDbCircle
  8
3 side
 62
256
370
-1
  6
ByLayer
 10
30.0
 20
-90.0
 30
0.0
 40
1.5
  0
LINE
  5
19C
100
AcDbEntity
100
AcDbLine
  8
3 side
 62
256
370
-1
  6
ByLayer
 10
27.0
 20
-91.5
 30
0.0
 11
27.0
 21
-95.0
 31
0.0
  0
LINE
  5
19D
100
AcDbEntity
100
AcDbLine
  8
3 side
 62
256
370
-1
  6
ByLayer
 10
33.0
 20
-95.0
 30
0.0
 11
33.0
 21
-91.5
 31
0.0
  0
LINE
  5
19E
100
AcDbEntity
100
AcDbLine
  8
3 side
 62
256
370
-1
  6
ByLayer
 10
33.0
 20
-91.5
 30
0.0
 11
30.0
 21
-91.5
 31
0.0
  0
LINE
  5
19F
100
AcDbEntity
100
AcDbLine
  8
3 side
 62
256
370
-1
  6
ByLayer
 10
30.0
 20
-91.5
 30
0.0
 11
30.0
 21
-91.5
 31
0.0
  0
LINE
  5
1A0
100
AcDbEntity
100
AcDbLine
  8
3 side
 62
256
370
-1
  6
ByLayer
 10
30.0
 20
-91.5
 30
0.0
 11
30.0
 21
-91.5
 31
0.0
  0
LINE
  5
1A1
100
AcDbEntity
100
AcDbLine
  8
3 side
 62
256
370
-1
  6
ByLayer
 10
30.0
 20
-91.5
 30
0.0
 11
27.0
 21
-91.5
 31
0.0
  0
LINE
  5
1A2
100
AcDbEntity
100
AcDbLine
  8
5a gear, shaft
 62
256
370
-1
  6
ByLayer
 10
-63.0625127664463108
 20
-67.6899999999999977
 30
0.0
 11
-58.7353312357037041
 21
-67.6899999999999977
 31
0.0
  0
ARC
  5
1A3
100
AcDbEntity
  8
5a gear, shaft
 62
256
370
-1
  6
ByLayer
100
AcDbCircle
 10
-60.8989220010750074
 20
-70.0
 30
0.0
 40
3.1649999999999987
100
AcDbArc
 50
133.1255240797430588
 51
46.8744759202569412
  0
LWPOLYLINE
  5
1A4
  8
5a gear, shaft
 62
7
420
16777215
370
-1
  6
ByLayer
100
AcDbEntity
100
AcDbPolyline
 90
121
 70
0
 10
-52.6435711188075217
 20
-68.9986880142902237
 10
-51.94176042272926
 20
-68.9143324337364902
 10
-51.345799257140996
 20
-68.9879406800717447
 10
-50.010107799892495
 20
-69.5763992608285236
 10
-50.010107799892495
 20
-70.4236007391714764
 10
-51.345799257140996
 20
-71.0120593199282553
 10
-51.94176042272926
 20
-71.0856675662635098
 10
-52.6435711188075217
 20
-71.0013119857097763
 10
-52.9566585391207525
 20
-72.4736752186217643
 10
-52.2810062998477605
 20
-72.6821295302147519
 10
-51.7665611998492494
 20
-72.991770302430254
 10
-50.7857293595175108
 20
-74.0727733618247299
 10
-51.1302475951395081
 20
-74.846569929544728
 10
-52.5898351662157779
 20
-74.840892336618225
 10
-53.1643023818677705
 20
-74.6658957309497708
 10
-53.7712134988860129
 20
-74.3033309119900167
 10
-54.6559286198872485
 20
-75.5210057470479939
 10
-54.1236395537625015
 20
-75.9863786828230161
 10
-53.7795272710642607
 20
-76.4785186455385144
 10
-53.3230766776027707
 20
-77.864903923203272
 10
-53.9526988848277469
 20
-78.4316652183114797
 10
-55.2837258352072638
 20
-77.8328652562599927
 10
-55.7373376322055023
 20
-77.4392755749152286
 10
-56.1443108270205116
 20
-76.861158375453229
 10
-57.4479636173257546
 20
-77.6138662276600115
 10
-57.1506925540222497
 20
-78.2554521908732283
 10
-57.0367318685655036
 20
-78.844924576188248
 10
-57.183542408312249
 20
-80.2970095624330327
 10
-57.9891750257640197
 20
-80.5587945921947437
 10
-58.9616930939175177
 20
-79.4702882294680251
 10
-59.215975538847772
 20
-78.9264406417779867
 10
-59.3526465960105014
 20
-78.2327411006665017
 10
-60.8495459110342409
 20
-78.3900963574202621
 10
-60.8390011940272615
 20
-79.0969760762897351
 10
-60.9746591651325076
 20
-79.6817846732365069
 10
-61.6995861858405164
 20
-80.9487350082302726
 10
-62.541921977104515
 20
-80.8603242094434904
 10
-62.9876252363475189
 20
-79.4702882294680251
 10
-62.9985751877774831
 20
-78.8700692284352414
 10
-62.8414232667360082
 20
-78.1806275227682619
 10
-64.2730281076027694
 20
-77.7154572042047533
 10
-64.5508321115857768
 20
-78.3655602753084963
 10
-64.9125864616995045
 20
-78.844924576188248
 10
-66.0901114748475038
 20
-79.7073345599064851
 10
-66.8237582206574956
 20
-79.2839364379465223
 10
-66.6655924950577514
 20
-77.8328652562599927
 10
-66.4313849610825002
 20
-77.279892709045015
 10
-66.0073782689872672
 20
-76.714145218494977
 10
-67.1258956895407692
 20
-75.7069523041464976
 10
-67.6443960077722579
 20
-76.1877363625082467
 10
-68.1697910592007759
 20
-76.4785186455385144
 10
-69.5963261587755113
 20
-76.7875501291180029
 10
-70.0941437144175126
 20
-76.1021643601847444
 10
-69.3594831640492373
 20
-74.840892336618225
 10
-68.9206739195024909
 20
-74.4310803453400212
 10
-68.3032180854772548
 20
-74.0867654454302595
 10
-68.9154015609990012
 20
-72.7115327364069657
 10
-69.5845657384995206
 20
-72.9400619589550274
 10
-70.1827571304157516
 20
-72.991770302430254
 10
-71.61152317481924
 20
-72.6938906689915001
 10
-71.7877362022575198
 20
-71.8653443441214961
 10
-70.603519073124005
 20
-71.0120593199282553
 10
-70.0359465906689991
 20
-70.8159739987465144
 10
-69.3317023325505204
 20
-70.7527078522067399
 10
-69.3317023325505204
 20
-69.2472921477932459
 10
-70.0359465906689991
 20
-69.1840260012534856
 10
-70.603519073124005
 20
-68.9879406800717447
 10
-71.7877362022575198
 20
-68.1346556558785039
 10
-71.61152317481924
 20
-67.3061093310084999
 10
-70.1827571304157516
 20
-67.008229697569746
 10
-69.584565738499478
 20
-67.0599380410449726
 10
-68.9154015609990012
 20
-67.2884672635930343
 10
-68.3032180854772548
 20
-65.9132345545697405
 10
-68.9206739195024909
 20
-65.5689196546599788
 10
-69.3594831640492373
 20
-65.159107663381775
 10
-70.0941437144175126
 20
-63.8978356398152556
 10
-69.5963261587755113
 20
-63.2124498708820042
 10
-68.1697910592007759
 20
-63.5214813544614714
 10
-67.6443960077722579
 20
-63.8122636374917462
 10
-67.1258956895407692
 20
-64.2930476958535024
 10
-66.0073782689872672
 20
-63.285854781505023
 10
-66.4313849610825002
 20
-62.720107290954985
 10
-66.6655924950577514
 20
-62.1671347437400001
 10
-66.8237582206574814
 20
-60.7160635620534919
 10
-66.0901114748475038
 20
-60.2926654400935078
 10
-64.9125864616995045
 20
-61.1550754238117449
 10
-64.5508321115857768
 20
-61.6344397246914966
 10
-64.273028107602741
 20
-62.2845427957952467
 10
-62.8414232667360224
 20
-61.8193724772317381
 10
-62.9985751877774831
 20
-61.1299307715647728
 10
-62.9876252363475189
 20
-60.5297117705319749
 10
-62.541921977104515
 20
-59.1396757905565096
 10
-61.699586185840495
 20
-59.0512649917697345
 10
-60.9746591651325076
 20
-60.3182153267634931
 10
-60.8390011940272615
 20
-60.9030239237102649
 10
-60.8495459110342409
 20
-61.6099036425797379
 10
-59.3526465960105014
 20
-61.7672588993335125
 10
-59.215975538847772
 20
-61.0735593582220133
 10
-58.9616930939175177
 20
-60.5297117705319749
 10
-57.9891750257640197
 20
-59.4412054078052705
 10
-57.183542408312249
 20
-59.7029904375669744
 10
-57.0367318685655036
 20
-61.1550754238117449
 10
-57.1506925540222497
 20
-61.7445478091267574
 10
-57.4479636173257546
 20
-62.3861337723399956
 10
-56.1443108270205116
 20
-63.138841624546771
 10
-55.7373376322055023
 20
-62.5607244250847643
 10
-55.2837258352072638
 20
-62.1671347437400001
 10
-53.9526988848277469
 20
-61.5683347816885131
 10
-53.3230766776027707
 20
-62.1350960767967351
 10
-53.7795272710642607
 20
-63.5214813544614714
 10
-54.1236395537625015
 20
-64.0136213171769839
 10
-54.6559286198872485
 20
-64.4789942529520061
 10
-53.7712134988860129
 20
-65.6966690880099833
 10
-53.1643023818677563
 20
-65.3341042690502292
 10
-52.5898351662157637
 20
-65.159107663381775
 10
-51.1302475951395081
 20
-65.153430070455272
 10
-50.7857293595175108
 20
-65.9272266381752701
 10
-51.7665611998492494
 20
-67.008229697569746
 10
-52.2810062998477605
 20
-67.3178704697852481
 10
-52.9566585391207525
 20
-67.5263247813782357
 10
-52.6435711188075217
 20
-68.9986880142902237
  0
LINE
  5
1A5
100
AcDbEntity
100
AcDbLine
  8
archive, 3 side w/ solarbotics GM3
 62
256
370
-1
  6
ByLayer
 10
-445.9633834270942998
 20
-78.9949999999999761
 30
0.0
 11
-445.9633834270942998
 21
-74.4949999999999903
 31
0.0
  0
ARC
  5
1A6
100
AcDbEntity
  8
archive, 3 side w/ solarbotics GM3
 62
256
370
-1
  6
ByLayer
100
AcDbCircle
 10
-445.4633834270942998
 20
-74.4950000000000045
 30
0.0
 40
0.5
100
AcDbArc
 50
90.0000000000000142
 51
180.0
  0
LINE
  5
1A7
100
AcDbEntity
100
AcDbLine
  8
archive, 3 side w/ solarbotics GM3
 62
256
370
-1
  6
ByLayer
 10
-364.0395834270942146
 20
-78.9949999999999903
 30
0.0
 11
-364.0395834270942146
 21
-74.4949999999999903
 31
0.0
  0
ARC
  5
1A8
100
AcDbEntity
  8
archive, 3 side w/ solarbotics GM3
 62
256
370
-1
  6
ByLayer
100
AcDbCircle
 10
-364.5395834270942146
 20
-74.4949999999999903
 30
0.0
 40
0.5
100
AcDbArc
 50
0.0
 51
90.0000000000000142
  0
LINE
  5
1A9
100
AcDbEntity
100
AcDbLine
  8
archive, 3 side w/ solarbotics GM3
 62
256
370
-1
  6
ByLayer
 10
-455.0014834270941719
 20
-70.0749999999999886
 30
0.0
 11
-455.0014834270942288
 21
-78.9949999999999903
 31
0.0
  0
ARC
  5
1AA
100
AcDbEntity
  8
archive, 3 side w/ solarbotics GM3
 62
256
370
-1
  6
ByLayer
100
AcDbCircle
 10
-465.900405428169222
 20
-75.8249999999999886
 30
0.0
 40
3.1649999999999983
100
AcDbArc
 50
225.0000241279181523
 51
44.9999925365361051
  0
ARC
  5
1AB
100
AcDbEntity
  8
archive, 3 side w/ solarbotics GM3
 62
256
370
-1
  6
ByLayer
100
AcDbCircle
 10
-463.662415103025694
 20
-73.5870044002358128
 30
0.0
 40
3.5120044002357957
100
AcDbArc
 50
90.0
 51
134.9999999999656382
  0
LINE
  5
1AC
100
AcDbEntity
100
AcDbLine
  8
archive, 3 side w/ solarbotics GM3
 62
256
370
-1
  6
ByLayer
 10
-463.6624121730802131
 20
-73.5870073301781815
 30
0.0
 11
-466.145777229987857
 21
-71.1036422732705375
 31
0.0
  0
CIRCLE
  5
1AD
100
AcDbEntity
100
AcDbCircle
  8
archive, 3 side w/ solarbotics GM3
 62
256
370
-1
  6
ByLayer
 10
-445.7504054281692447
 20
-85.8249999999999744
 30
0.0
 40
1.5
  0
CIRCLE
  5
1AE
100
AcDbEntity
100
AcDbCircle
  8
archive, 3 side w/ solarbotics GM3
 62
256
370
-1
  6
ByLayer
 10
-445.7504054281692447
 20
-102.9249999999999829
 30
0.0
 40
1.5
  0
LINE
  5
1AF
100
AcDbEntity
100
AcDbLine
  8
archive, 3 side w/ solarbotics GM3
 62
256
370
-1
  6
ByLayer
 10
-455.0014834270941719
 20
-70.0749999999999886
 30
0.0
 11
-463.662415103025694
 21
-70.0749999999999744
 31
0.0
  0
LINE
  5
1B0
100
AcDbEntity
100
AcDbLine
  8
archive, 3 side w/ solarbotics GM3
 62
256
370
-1
  6
ByLayer
 10
-436.6004054281692106
 20
-96.8249999999999886
 30
0.0
 11
-436.6004054281692106
 21
-90.8250000000000739
 31
0.0
  0
LINE
  5
1B1
100
AcDbEntity
100
AcDbLine
  8
archive, 3 side w/ solarbotics GM3
 62
256
370
-1
  6
ByLayer
 10
-436.6004054281692106
 20
-90.8250000000000739
 30
0.0
 11
-431.900405428169222
 21
-90.8249999999999602
 31
0.0
  0
LINE
  5
1B2
100
AcDbEntity
100
AcDbLine
  8
archive, 3 side w/ solarbotics GM3
 62
256
370
-1
  6
ByLayer
 10
-431.900405428169222
 20
-90.8249999999999602
 30
0.0
 11
-431.900405428169222
 21
-96.8249999999999886
 31
0.0
  0
LINE
  5
1B3
100
AcDbEntity
100
AcDbLine
  8
archive, 3 side w/ solarbotics GM3
 62
256
370
-1
  6
ByLayer
 10
-431.900405428169222
 20
-96.8249999999999886
 30
0.0
 11
-436.6004054281692106
 21
-96.8249999999999886
 31
0.0
  0
CIRCLE
  5
1B4
100
AcDbEntity
100
AcDbCircle
  8
archive, 3 side w/ solarbotics GM3
 62
256
370
-1
  6
ByLayer
 10
-465.900405428169222
 20
-93.8250000000000028
 30
0.0
 40
4.75
  0
LINE
  5
1B5
100
AcDbEntity
100
AcDbLine
  8
archive, 3 side w/ solarbotics GM3
 62
256
370
-1
  6
ByLayer
 10
-437.0014834270942288
 20
-104.9249999999999829
 30
0.0
 11
-437.0014834270942288
 21
-109.9249999999999972
 31
0.0
  0
LINE
  5
1B6
100
AcDbEntity
100
AcDbLine
  8
archive, 3 side w/ solarbotics GM3
 62
256
370
-1
  6
ByLayer
 10
-465.900405428169222
 20
-109.9249999999999829
 30
0.0
 11
-437.0014834270942288
 21
-109.9249999999999972
 31
0.0
  0
LINE
  5
1B7
100
AcDbEntity
100
AcDbLine
  8
archive, 3 side w/ solarbotics GM3
 62
256
370
-1
  6
ByLayer
 10
-437.0014834270942288
 20
-104.9249999999999829
 30
0.0
 11
-432.0014808319114081
 21
-104.9249999999999972
 31
0.0
  0
ARC
  5
1B8
100
AcDbEntity
  8
archive, 3 side w/ solarbotics GM3
 62
256
370
-1
  6
ByLayer
100
AcDbCircle
 10
-351.5014834270942288
 20
-79.4949999999999619
 30
0.0
 40
0.5
100
AcDbArc
 50
90.0000000000000568
 51
180.0
  0
LINE
  5
1B9
100
AcDbEntity
100
AcDbLine
  8
archive, 3 side w/ solarbotics GM3
 62
256
370
-1
  6
ByLayer
 10
-351.5014834270942288
 20
-78.9949999999999761
 30
0.0
 11
-349.4633834270941861
 21
-78.9949999999999761
 31
0.0
  0
LINE
  5
1BA
100
AcDbEntity
100
AcDbLine
  8
archive, 3 side w/ solarbotics GM3
 62
256
370
-1
  6
ByLayer
 10
-349.4633834270941861
 20
-75.8249999999999886
 30
0.0
 11
-349.4633834270941861
 21
-78.9949999999999761
 31
0.0
  0
CIRCLE
  5
1BB
100
AcDbEntity
100
AcDbCircle
  8
archive, 3 side w/ solarbotics GM3
 62
256
370
-1
  6
ByLayer
 10
-341.4633834270941861
 20
-85.8250000000000597
 30
0.0
 40
1.5
  0
ARC
  5
1BC
100
AcDbEntity
  8
archive, 3 side w/ solarbotics GM3
 62
256
370
-1
  6
ByLayer
100
AcDbCircle
 10
-347.0458834270942248
 20
-75.8250016838847358
 30
0.0
 40
2.4175000000005831
100
AcDbArc
 50
0.0000398996478036
 51
179.9999600820873127
  0
ARC
  5
1BD
100
AcDbEntity
  8
archive, 3 side w/ solarbotics GM3
 62
256
370
-1
  6
ByLayer
100
AcDbCircle
 10
-335.8808834270942043
 20
-75.8250016842698784
 30
0.0
 40
2.4175000000005831
100
AcDbArc
 50
0.0000398996478036
 51
179.9999600820873127
  0
ARC
  5
1BE
100
AcDbEntity
  8
archive, 3 side w/ solarbotics GM3
 62
256
370
-1
  6
ByLayer
100
AcDbCircle
 10
-341.4633834270941861
 20
-75.8249999999999602
 30
0.0
 40
3.1649999999999991
100
AcDbArc
 50
180.0
 51
359.9999654037264918
  0
ARC
  5
1BF
100
AcDbEntity
  8
archive, 3 side w/ solarbotics GM3
 62
256
370
-1
  6
ByLayer
100
AcDbCircle
 10
-341.4633834270941861
 20
-101.9249999999999829
 30
0.0
 40
7.9999999999999982
100
AcDbArc
 50
270.0
 51
0.0
  0
LINE
  5
1C0
100
AcDbEntity
100
AcDbLine
  8
archive, 3 side w/ solarbotics GM3
 62
256
370
-1
  6
ByLayer
 10
-333.4633834270941861
 20
-75.8250016842698358
 30
0.0
 11
-333.4633834270941861
 21
-101.9250000000000398
 31
0.0
  0
LINE
  5
1C1
100
AcDbEntity
100
AcDbLine
  8
archive, 3 side w/ solarbotics GM3
 62
256
370
-1
  6
ByLayer
 10
-412.0014808319114081
 20
-104.9249999999999972
 30
0.0
 11
-398.0014834270942288
 21
-104.9249999999999972
 31
0.0
  0
LINE
  5
1C2
100
AcDbEntity
100
AcDbLine
  8
archive, 3 side w/ solarbotics GM3
 62
256
370
-1
  6
ByLayer
 10
-373.0014834270942288
 20
-104.9249999999999972
 30
0.0
 11
-373.0014834270942288
 21
-109.9250000000000256
 31
0.0
  0
LINE
  5
1C3
100
AcDbEntity
100
AcDbLine
  8
archive, 3 side w/ solarbotics GM3
 62
256
370
-1
  6
ByLayer
 10
-378.0014834270942288
 20
-104.9250000000000114
 30
0.0
 11
-373.0014834270942288
 21
-104.9249999999999972
 31
0.0
  0
LINE
  5
1C4
100
AcDbEntity
100
AcDbLine
  8
archive, 3 side w/ solarbotics GM3
 62
256
370
-1
  6
ByLayer
 10
-373.0014834270942288
 20
-109.9250000000000256
 30
0.0
 11
-341.4633834270941861
 21
-109.9249999999999829
 31
0.0
  0
LINE
  5
1C5
100
AcDbEntity
100
AcDbLine
  8
archive, 3 side w/ solarbotics GM3
 62
256
370
-1
  6
ByLayer
 10
-352.0014834270942288
 20
-80.8249999999999602
 30
0.0
 11
-352.0014834270942288
 21
-79.4949999999999761
 31
0.0
  0
ARC
  5
1C6
100
AcDbEntity
  8
archive, 3 side w/ solarbotics GM3
 62
256
370
-1
  6
ByLayer
100
AcDbCircle
 10
-354.5014834270942288
 20
-79.4950000000000045
 30
0.0
 40
0.5
100
AcDbArc
 50
0.0
 51
89.9999999999999574
  0
LINE
  5
1C7
100
AcDbEntity
100
AcDbLine
  8
archive, 3 side w/ solarbotics GM3
 62
256
370
-1
  6
ByLayer
 10
-354.0014834270942288
 20
-79.4949999999999761
 30
0.0
 11
-354.0014834270942288
 21
-80.8249999999999744
 31
0.0
  0
LINE
  5
1C8
100
AcDbEntity
100
AcDbLine
  8
archive, 3 side w/ solarbotics GM3
 62
256
370
-1
  6
ByLayer
 10
-354.5014834270942288
 20
-78.9950000000000045
 30
0.0
 11
-364.0395834270942146
 21
-78.9949999999999903
 31
0.0
  0
ARC
  5
1C9
100
AcDbEntity
  8
archive, 3 side w/ solarbotics GM3
 62
256
370
-1
  6
ByLayer
100
AcDbCircle
 10
-353.0014834270942288
 20
-90.8249999999999886
 30
0.0
 40
10.0498756211208899
100
AcDbArc
 50
95.710593137499643
 51
84.2894068625003712
  0
CIRCLE
  5
1CA
100
AcDbEntity
100
AcDbCircle
  8
archive, 3 side w/ solarbotics GM3
 62
256
370
-1
  6
ByLayer
 10
-478.5300843568910523
 20
-84.4727608019080378
 30
0.0
 40
1.5
  0
LINE
  5
1CB
100
AcDbEntity
100
AcDbLine
  8
archive, 3 side w/ solarbotics GM3
 62
256
370
-1
  6
ByLayer
 10
-472.9419997673560374
 20
-84.6254389607960746
 30
0.0
 11
-468.4104608321728165
 21
-82.5123476520926289
 31
0.0
  0
LINE
  5
1CC
100
AcDbEntity
100
AcDbLine
  8
archive, 3 side w/ solarbotics GM3
 62
256
370
-1
  6
ByLayer
 10
-482.0050776377225361
 20
-88.8516215782031509
 30
0.0
 11
-486.5366165729058139
 21
-90.9647128869057724
 31
0.0
  0
LINE
  5
1CD
100
AcDbEntity
100
AcDbLine
  8
archive, 3 side w/ solarbotics GM3
 62
256
370
-1
  6
ByLayer
 10
-484.1181689464260671
 20
-84.320082643019802
 30
0.0
 11
-482.0050776377225361
 21
-88.8516215782031509
 31
0.0
  0
LINE
  5
1CE
100
AcDbEntity
100
AcDbLine
  8
archive, 3 side w/ solarbotics GM3
 62
256
370
-1
  6
ByLayer
 10
-475.0550910760595116
 20
-80.0939000256128821
 30
0.0
 11
-472.9419997673560374
 21
-84.6254389607960746
 31
0.0
  0
LINE
  5
1CF
100
AcDbEntity
100
AcDbLine
  8
archive, 3 side w/ solarbotics GM3
 62
256
370
-1
  6
ByLayer
 10
-484.1181689464260671
 20
-84.320082643019802
 30
0.0
 11
-475.0550910760595116
 21
-80.0939000256128821
 31
0.0
  0
LINE
  5
1D0
100
AcDbEntity
100
AcDbLine
  8
archive, 3 side w/ solarbotics GM3
 62
256
370
-1
  6
ByLayer
 10
-470.5235521408762907
 20
-77.980808716909408
 30
0.0
 11
-468.4104608321728165
 21
-82.5123476520926289
 31
0.0
  0
LINE
  5
1D1
100
AcDbEntity
100
AcDbLine
  8
archive, 3 side w/ solarbotics GM3
 62
256
370
-1
  6
ByLayer
 10
-470.5235521408762907
 20
-77.980808716909408
 30
0.0
 11
-468.1383980998974721
 21
-78.062993253182583
 31
0.0
  0
ARC
  5
1D2
100
AcDbEntity
  8
archive, 3 side w/ solarbotics GM3
 62
256
370
-1
  6
ByLayer
100
AcDbCircle
 10
-465.9003834270941979
 20
-101.9249999999999829
 30
0.0
 40
8.0
100
AcDbArc
 50
225.0
 51
270.0
  0
LINE
  5
1D3
100
AcDbEntity
100
AcDbLine
  8
archive, 3 side w/ solarbotics GM3
 62
256
370
-1
  6
ByLayer
 10
-486.5366165729058139
 20
-90.9647128869057724
 30
0.0
 11
-471.5572376765866238
 21
-107.581854249492352
 31
0.0
  0
LINE
  5
1D4
100
AcDbEntity
100
AcDbLine
  8
archive, 3 side w/ solarbotics GM3
 62
256
370
-1
  6
ByLayer
 10
-455.0014834270942288
 20
-78.9949999999999903
 30
0.0
 11
-445.9633834270942998
 21
-78.9949999999999761
 31
0.0
  0
LINE
  5
1D5
100
AcDbEntity
100
AcDbLine
  8
archive, 3 side w/ solarbotics GM3
 62
256
370
-1
  6
ByLayer
 10
-425.9633834270942998
 20
-74.4949999999999903
 30
0.0
 11
-425.9633834270942998
 21
-78.9949999999999903
 31
0.0
  0
ARC
  5
1D6
100
AcDbEntity
  8
archive, 3 side w/ solarbotics GM3
 62
256
370
-1
  6
ByLayer
100
AcDbCircle
 10
-426.4633834270942998
 20
-74.4949999999999903
 30
0.0
 40
0.5
100
AcDbArc
 50
0.0
 51
90.0000000000000142
  0
LINE
  5
1D7
100
AcDbEntity
100
AcDbLine
  8
archive, 3 side w/ solarbotics GM3
 62
256
370
-1
  6
ByLayer
 10
-445.9633834270942998
 20
-73.9949999999999761
 30
0.0
 11
-426.4633834270942998
 21
-73.9949999999999903
 31
0.0
  0
LINE
  5
1D8
100
AcDbEntity
100
AcDbLine
  8
archive, 3 side w/ solarbotics GM3
 62
256
370
-1
  6
ByLayer
 10
-384.0395834270942146
 20
-74.4949999999999903
 30
0.0
 11
-384.0395834270942146
 21
-78.9949999999999903
 31
0.0
  0
ARC
  5
1D9
100
AcDbEntity
  8
archive, 3 side w/ solarbotics GM3
 62
256
370
-1
  6
ByLayer
100
AcDbCircle
 10
-383.5395834270942146
 20
-74.4949999999999903
 30
0.0
 40
0.5
100
AcDbArc
 50
90.0000000000000142
 51
180.0
  0
LINE
  5
1DA
100
AcDbEntity
100
AcDbLine
  8
archive, 3 side w/ solarbotics GM3
 62
256
370
-1
  6
ByLayer
 10
-364.5395834270942146
 20
-73.9949999999999761
 30
0.0
 11
-383.5395834270942146
 21
-73.9949999999999903
 31
0.0
  0
LINE
  5
1DB
100
AcDbEntity
100
AcDbLine
  8
archive, 3 side w/ solarbotics GM3
 62
256
370
-1
  6
ByLayer
 10
-425.9633834270942998
 20
-78.9949999999999903
 30
0.0
 11
-384.0395834270942146
 21
-78.9949999999999903
 31
0.0
  0
CIRCLE
  5
1DC
100
AcDbEntity
100
AcDbCircle
  8
archive, 3 side w/ solarbotics GM3
 62
256
370
-1
  6
ByLayer
 10
-341.4633834270941861
 20
-101.9249999999999829
 30
0.0
 40
1.5
  0
LINE
  5
1DD
100
AcDbEntity
100
AcDbLine
  8
archive, 3 side w/ solarbotics GM3
 62
256
370
-1
  6
ByLayer
 10
-378.0014834270942288
 20
-100.8249999999999886
 30
0.0
 11
-378.0014834270942288
 21
-100.8249999999999886
 31
0.0
  0
LINE
  5
1DE
100
AcDbEntity
100
AcDbLine
  8
archive, 3 side w/ solarbotics GM3
 62
256
370
-1
  6
ByLayer
 10
-378.0014834270942288
 20
-100.8249999999999886
 30
0.0
 11
-372.0014834270942288
 21
-100.8250000000000028
 31
0.0
  0
CIRCLE
  5
1DF
100
AcDbEntity
100
AcDbCircle
  8
archive, 3 side w/ solarbotics GM3
 62
256
370
-1
  6
ByLayer
 10
-375.0014834270942288
 20
-95.8249999999999886
 30
0.0
 40
1.5
  0
LINE
  5
1E0
100
AcDbEntity
100
AcDbLine
  8
archive, 3 side w/ solarbotics GM3
 62
256
370
-1
  6
ByLayer
 10
-378.0014834270942288
 20
-97.3249999999999886
 30
0.0
 11
-378.0014834270942288
 21
-100.8249999999999886
 31
0.0
  0
LINE
  5
1E1
100
AcDbEntity
100
AcDbLine
  8
archive, 3 side w/ solarbotics GM3
 62
256
370
-1
  6
ByLayer
 10
-372.0014834270942288
 20
-100.8250000000000028
 30
0.0
 11
-372.0014834270942288
 21
-97.3249999999999744
 31
0.0
  0
LINE
  5
1E2
100
AcDbEntity
100
AcDbLine
  8
archive, 3 side w/ solarbotics GM3
 62
256
370
-1
  6
ByLayer
 10
-372.0014834270942288
 20
-97.3249999999999744
 30
0.0
 11
-375.0014834270942288
 21
-97.3250000000000028
 31
0.0
  0
LINE
  5
1E3
100
AcDbEntity
100
AcDbLine
  8
archive, 3 side w/ solarbotics GM3
 62
256
370
-1
  6
ByLayer
 10
-375.0014834270942288
 20
-97.3250000000000028
 30
0.0
 11
-375.0014834270942288
 21
-97.3250000000000028
 31
0.0
  0
LINE
  5
1E4
100
AcDbEntity
100
AcDbLine
  8
archive, 3 side w/ solarbotics GM3
 62
256
370
-1
  6
ByLayer
 10
-375.0014834270942288
 20
-97.3250000000000028
 30
0.0
 11
-375.0014834270942288
 21
-97.3250000000000028
 31
0.0
  0
LINE
  5
1E5
100
AcDbEntity
100
AcDbLine
  8
archive, 3 side w/ solarbotics GM3
 62
256
370
-1
  6
ByLayer
 10
-375.0014834270942288
 20
-97.3250000000000028
 30
0.0
 11
-378.0014834270942288
 21
-97.3249999999999886
 31
0.0
  0
CIRCLE
  5
1E6
100
AcDbEntity
100
AcDbCircle
  8
archive, 3 side w/ solarbotics GM3
 62
256
370
-1
  6
ByLayer
 10
-454.6003834270942434
 20
-93.8250000000000028
 30
0.0
 40
2.2000000000000002
  0
INSERT
  5
1E7
100
AcDbEntity
100
AcDbBlockReference
  8
archive, 3 side w/ solarbotics GM3
 62
256
370
-1
  6
ByLayer
  2
tabs-with-bolt-20
 10
-422.0014808319114081
 20
-104.9249999999999972
 30
0.0
 44
1.0
 45
1.0
  0
INSERT
  5
1E8
100
AcDbEntity
100
AcDbBlockReference
  8
archive, 3 side w/ solarbotics GM3
 62
256
370
-1
  6
ByLayer
  2
tabs-with-bolt-20
 10
-388.0014834270942288
 20
-104.9250000000000114
 30
0.0
 44
1.0
 45
1.0
  0
CIRCLE
  5
1E9
100
AcDbEntity
100
AcDbCircle
  8
archive, drawings, motor, Solarbotics GM3
 62
256
370
-1
  6
ByLayer
 10
-445.7503834270942207
 20
-85.8250000000000028
 30
0.0
 40
1.5
  0
LINE
  5
1EA
100
AcDbEntity
100
AcDbLine
  8
archive, drawings, motor, Solarbotics GM3
 62
256
370
-1
  6
ByLayer
 10
-444.2503834270942207
 20
-85.8250000000000028
 30
0.0
 11
-447.2503834270942207
 21
-85.8250000000000028
 31
0.0
  0
LINE
  5
1EB
100
AcDbEntity
100
AcDbLine
  8
archive, drawings, motor, Solarbotics GM3
 62
256
370
-1
  6
ByLayer
 10
-445.7503834270942207
 20
-84.3250000000000028
 30
0.0
 11
-445.7503834270942207
 21
-87.3250000000000028
 31
0.0
  0
LINE
  5
1EC
100
AcDbEntity
100
AcDbLine
  8
archive, drawings, motor, Solarbotics GM3
 62
256
370
-1
  6
ByLayer
 10
-476.6003834270942434
 20
-104.9250000000000114
 30
0.0
 11
-476.6003834270942434
 21
-82.7250000000000085
 31
0.0
  0
LINE
  5
1ED
100
AcDbEntity
100
AcDbLine
  8
archive, drawings, motor, Solarbotics GM3
 62
256
370
-1
  6
ByLayer
 10
-440.3503834270942434
 20
-82.7250000000000085
 30
0.0
 11
-476.6003834270942434
 21
-82.7250000000000085
 31
0.0
  0
LINE
  5
1EE
100
AcDbEntity
100
AcDbLine
  8
archive, drawings, motor, Solarbotics GM3
 62
256
370
-1
  6
ByLayer
 10
-440.3503834270942434
 20
-104.9250000000000114
 30
0.0
 11
-476.6003834270942434
 21
-104.9250000000000114
 31
0.0
  0
LINE
  5
1EF
100
AcDbEntity
100
AcDbLine
  8
archive, drawings, motor, Solarbotics GM3
 62
256
370
-1
  6
ByLayer
 10
-440.3503834270942434
 20
-104.9250000000000114
 30
0.0
 11
-440.3503834270942434
 21
-82.7250000000000085
 31
0.0
  0
CIRCLE
  5
1F0
100
AcDbEntity
100
AcDbCircle
  8
archive, drawings, motor, Solarbotics GM3
 62
256
370
-1
  6
ByLayer
 10
-445.7503834270942207
 20
-102.9250000000000114
 30
0.0
 40
1.5
  0
CIRCLE
  5
1F1
100
AcDbEntity
100
AcDbCircle
  8
archive, drawings, motor, Solarbotics GM3
 62
256
370
-1
  6
ByLayer
 10
-465.9003834270941979
 20
-93.8250000000000171
 30
0.0
 40
4.75
  0
CIRCLE
  5
1F2
100
AcDbEntity
100
AcDbCircle
  8
archive, drawings, motor, Solarbotics GM3
 62
256
370
-1
  6
ByLayer
 10
-454.6003834270942434
 20
-93.8250000000000171
 30
0.0
 40
2.0
  0
LINE
  5
1F3
100
AcDbEntity
100
AcDbLine
  8
archive, drawings, motor, Solarbotics GM3
 62
256
370
-1
  6
ByLayer
 10
-444.2503834270942207
 20
-102.9250000000000114
 30
0.0
 11
-447.2503834270942207
 21
-102.9250000000000114
 31
0.0
  0
LINE
  5
1F4
100
AcDbEntity
100
AcDbLine
  8
archive, drawings, motor, Solarbotics GM3
 62
256
370
-1
  6
ByLayer
 10
-445.7503834270942207
 20
-101.4250000000000114
 30
0.0
 11
-445.7503834270942207
 21
-104.4250000000000114
 31
0.0
  0
LINE
  5
1F5
100
AcDbEntity
100
AcDbLine
  8
archive, drawings, motor, Solarbotics GM3
 62
256
370
-1
  6
ByLayer
 10
-454.6003834270942434
 20
-91.8250000000000171
 30
0.0
 11
-454.6003834270942434
 21
-95.8250000000000171
 31
0.0
  0
LINE
  5
1F6
100
AcDbEntity
100
AcDbLine
  8
archive, drawings, motor, Solarbotics GM3
 62
256
370
-1
  6
ByLayer
 10
-452.6003834270942434
 20
-93.8250000000000171
 30
0.0
 11
-456.6003834270942434
 21
-93.8250000000000171
 31
0.0
  0
LINE
  5
1F7
100
AcDbEntity
100
AcDbLine
  8
archive, drawings, motor, Solarbotics GM3
 62
256
370
-1
  6
ByLayer
 10
-470.6503834270941979
 20
-93.8250000000000313
 30
0.0
 11
-461.1503834270941979
 21
-93.8250000000000171
 31
0.0
  0
LINE
  5
1F8
100
AcDbEntity
100
AcDbLine
  8
archive, drawings, motor, Solarbotics GM3
 62
256
370
-1
  6
ByLayer
 10
-465.9003834270941979
 20
-89.0750000000000028
 30
0.0
 11
-465.9003834270941979
 21
-98.5750000000000028
 31
0.0
  0
LINE
  5
1F9
100
AcDbEntity
100
AcDbLine
  8
archive, drawings, motor, Solarbotics GM3
 62
256
370
-1
  6
ByLayer
 10
-476.6003834270942434
 20
-93.8250000000000028
 30
0.0
 11
-466.6003834270942434
 21
-93.8250000000000028
 31
0.0
  0
LINE
  5
1FA
100
AcDbEntity
100
AcDbLine
  8
archive, drawings, motor, Solarbotics GM3
 62
256
370
-1
  6
ByLayer
 10
-476.6003834270942434
 20
-93.8250000000000028
 30
0.0
 11
-436.6003834270941866
 21
-93.8250000000000028
 31
0.0
  0
CIRCLE
  5
1FB
100
AcDbEntity
100
AcDbCircle
  8
drw, motor, Kysan 25 mm
 62
256
370
-1
  6
ByLayer
 10
-57.0
 20
-88.0
 30
0.0
 40
12.5
  0
CIRCLE
  5
1FC
100
AcDbEntity
100
AcDbCircle
  8
drw, motor, Kysan 25 mm
 62
256
370
-1
  6
ByLayer
 10
-48.5
 20
-88.0
 30
0.0
 40
1.5
  0
CIRCLE
  5
1FD
100
AcDbEntity
100
AcDbCircle
  8
drw, motor, Kysan 25 mm
 62
256
370
-1
  6
ByLayer
 10
-65.5
 20
-88.0
 30
0.0
 40
1.5
  0
CIRCLE
  5
1FE
100
AcDbEntity
100
AcDbCircle
  8
drw, motor, Kysan 25 mm
 62
256
370
-1
  6
ByLayer
 10
-57.0
 20
-88.0
 30
0.0
 40
3.5
  0
CIRCLE
  5
1FF
100
AcDbEntity
100
AcDbCircle
  8
drw, motor, Kysan 25 mm
 62
256
370
-1
  6
ByLayer
 10
-57.0
 20
-88.0
 30
0.0
 40
2.0
  0
LINE
  5
200
100
AcDbEntity
100
AcDbLine
  8
drw, motor, Kysan 25 mm
 62
256
370
-1
  6
ByLayer
 10
-58.3228756555323002
 20
-86.5
 30
0.0
 11
-55.6771243444676998
 21
-86.5
 31
0.0
  0
LWPOLYLINE
  5
201
  8
5b gear, motor
 62
7
420
16777215
370
-1
  6
ByLayer
100
AcDbEntity
100
AcDbPolyline
 90
121
 70
0
 10
-64.5048644384249883
 20
-87.0897163766274645
 10
-65.1428741621325003
 20
-87.0130294852149717
 10
-65.6846570399400065
 20
-87.079946072792481
 10
-66.8989220010750074
 20
-87.614908418935002
 10
-66.8989220010750074
 20
-88.3850915810649553
 10
-65.6846570399400065
 20
-88.9200539272074906
 10
-65.1428741621325003
 20
-88.9869705147849999
 10
-64.5048644384249883
 20
-88.9102836233725071
 10
-64.2202395108675006
 20
-90.248795653292504
 10
-64.8344688192974985
 20
-90.4382995729224888
 10
-65.3021461829325034
 20
-90.7197911840274855
 10
-66.1938114923249969
 20
-91.7025212380224701
 10
-65.8806130963049981
 20
-92.4059726632224709
 10
-64.5537153044174801
 20
-92.400811215107467
 10
-64.0314723810974868
 20
-92.2417233917725099
 10
-63.4797350019899937
 20
-91.9121190108999997
 10
-62.6754485283525042
 20
-93.0190961336799802
 10
-63.1593476793750028
 20
-93.4421624389299978
 10
-63.4721770272824983
 20
-93.8895624050349937
 10
-63.8871321122474853
 20
-95.1499126574575058
 10
-63.3147482874975083
 20
-95.6651501984649713
 10
-62.1047237871524942
 20
-95.1207865965999844
 10
-61.6923494262450021
 20
-94.7629777953774664
 10
-61.3223737945949949
 20
-94.237416704957468
 10
-60.1372348943175012
 20
-94.9216965705999911
 10
-60.4074813155025083
 20
-95.5049565371574687
 10
-60.5110819386450061
 20
-96.0408405238074891
 10
-60.3776178116025193
 20
-97.3609177840300077
 10
-59.6452245230099862
 20
-97.5989041747224775
 10
-58.7611171883249881
 20
-96.6093529358800112
 10
-58.5299513292974893
 20
-96.1149460379799763
 10
-58.4057049136950042
 20
-95.4843100915149847
 10
-57.0448873545825137
 20
-95.6273603249274942
 10
-57.0544734609524937
 20
-96.2699782511724749
 10
-56.9311480326749972
 20
-96.8016224302149908
 10
-56.2721234683949945
 20
-97.9533954620275011
 10
-55.5063636581549957
 20
-97.8730220085849822
 10
-55.1011788770249922
 20
-96.6093529358800112
 10
-55.0912243757250195
 20
-96.0636992985774754
 10
-55.2340897584900006
 20
-95.4369341116074992
 10
-53.9326308122474956
 20
-95.0140520038224849
 10
-53.6800817177174849
 20
-95.6050547957349863
 10
-53.3512141267050026
 20
-96.0408405238074891
 10
-52.2807368420250071
 20
-96.8248495999149696
 10
-51.6137852549250198
 20
-96.4399422163150035
 10
-51.7575722781975003
 20
-95.1207865965999844
 10
-51.9704882181750065
 20
-94.6180842809500007
 10
-52.3559488473525079
 20
-94.1037683804499636
 10
-51.3391148286674905
 20
-93.188138458314981
 10
-50.8677509030025021
 20
-93.6252148750074866
 10
-50.3901190380674819
 20
-93.8895624050349937
 10
-49.0932689475450132
 20
-94.1705001173799872
 10
-48.6407075333249992
 20
-93.5474221456224768
 10
-49.3085807609325144
 20
-92.400811215107467
 10
-49.7074982559750111
 20
-92.0282548594000076
 10
-50.2688217414524985
 20
-91.7152413140274945
 10
-49.7122913091600083
 20
-90.4650297603699585
 10
-49.1039602387049996
 20
-90.6727835990500068
 10
-48.5601498824175053
 20
-90.7197911840274855
 10
-47.2612716602325094
 20
-90.4489915172649859
 10
-47.1010779989249926
 20
-89.6957675855649796
 10
-48.1776390254100022
 20
-88.9200539272074764
 10
-48.6936140094600063
 20
-88.7417945443149847
 10
-49.3338360622949921
 20
-88.6842798656424804
 10
-49.3338360622949921
 20
-87.3157201343574769
 10
-48.6936140094600063
 20
-87.2582054556849869
 10
-48.1776390254100022
 20
-87.079946072792481
 10
-47.1010779989249926
 20
-86.3042324144349919
 10
-47.2612716602325094
 20
-85.5510084827349857
 10
-48.5601498824175053
 20
-85.280208815972486
 10
-49.103960238705028
 20
-85.3272164009499647
 10
-49.7122913091600083
 20
-85.5349702396300131
 10
-50.2688217414524985
 20
-84.2847586859724771
 10
-49.7074982559750111
 20
-83.971745140599964
 10
-49.3085807609325144
 20
-83.5991887848925046
 10
-48.6407075333249992
 20
-82.4525778543774805
 10
-49.093268947544999
 20
-81.8294998826199986
 10
-50.3901190380674819
 20
-82.1104375949649636
 10
-50.8677509030025021
 20
-82.374785124992485
 10
-51.3391148286674905
 20
-82.8118615416849906
 10
-52.3559488473524937
 20
-81.896231619550008
 10
-51.9704882181750065
 20
-81.3819157190499709
 10
-51.7575722781975003
 20
-80.8792134033999872
 10
-51.6137852549250198
 20
-79.5600577836849823
 10
-52.2807368420250071
 20
-79.1751504000849877
 10
-53.3512141267050026
 20
-79.9591594761924824
 10
-53.6800817177174849
 20
-80.3949452042649853
 10
-53.9326308122475098
 20
-80.9859479961774866
 10
-55.2340897584899864
 20
-80.5630658883924724
 10
-55.0912243757250195
 20
-79.9363007014225104
 10
-55.1011788770249922
 20
-79.3906470641199604
 10
-55.5063636581549957
 20
-78.1269779914149893
 10
-56.2721234683950087
 20
-78.0466045379724704
 10
-56.9311480326749972
 20
-79.1983775697849808
 10
-57.0544734609524937
 20
-79.7300217488274967
 10
-57.0448873545825137
 20
-80.3726396750724774
 10
-58.4057049136950042
 20
-80.5156899084850011
 10
-58.5299513292974893
 20
-79.8850539620199953
 10
-58.7611171883249739
 20
-79.3906470641199604
 10
-59.6452245230099862
 20
-78.4010958252775083
 10
-60.3776178116025051
 20
-78.6390822159699638
 10
-60.5110819386450061
 20
-79.9591594761924824
 10
-60.4074813155025083
 20
-80.4950434628425029
 10
-60.1372348943175012
 20
-81.0783034293999805
 10
-61.3223737945949949
 20
-81.7625832950425036
 10
-61.6923494262450021
 20
-81.237022204622491
 10
-62.1047237871524942
 20
-80.8792134033999872
 10
-63.3147482874975083
 20
-80.3348498015350003
 10
-63.8871321122474853
 20
-80.8500873425424658
 10
-63.4721770272824983
 20
-82.1104375949649494
 10
-63.1593476793750028
 20
-82.5578375610699737
 10
-62.6754485283525042
 20
-82.9809038663199914
 10
-63.4797350019899937
 20
-84.0878809890999719
 10
-64.0314723810975011
 20
-83.7582766082274759
 10
-64.5537153044174943
 20
-83.5991887848925046
 10
-65.8806130963049981
 20
-83.5940273367774864
 10
-66.1938114923249969
 20
-84.2974787619775014
 10
-65.3021461829325034
 20
-85.280208815972486
 10
-64.8344688192974985
 20
-85.5617004270774828
 10
-64.2202395108675006
 20
-85.7512043467074676
 10
-64.5048644384249883
 20
-87.0897163766274645
  0
CIRCLE
  5
202
100
AcDbEntity
100
AcDbCircle
  8
3 side
 62
256
370
-1
  6
ByLayer
 10
-48.5
 20
-88.0
 30
0.0
 40
1.5
  0
CIRCLE
  5
203
100
AcDbEntity
100
AcDbCircle
  8
3 side
 62
256
370
-1
  6
ByLayer
 10
-65.5
 20
-88.0
 30
0.0
 40
1.5
  0
LINE
  5
204
100
AcDbEntity
100
AcDbLine
  8
5b gear, motor
 62
256
370
-1
  6
ByLayer
 10
-55.6771243444677069
 20
-86.5
 30
0.0
 11
-58.3228756555322931
 21
-86.5
 31
0.0
  0
ARC
  5
205
100
AcDbEntity
  8
5b gear, motor
 62
256
370
-1
  6
ByLayer
100
AcDbCircle
 10
-57.0
 20
-88.0
 30
0.0
 40
1.9999999999999987
100
AcDbArc
 50
131.4096221092707992
 51
48.5903778907291937
  0
LINE
  5
206
100
AcDbEntity
100
AcDbLine
  8
3 side
 62
256
370
-1
  6
ByLayer
 10
-54.8999999999999986
 20
-90.7999999999999972
 30
0.0
 11
-54.8999999999999986
 21
-104.1000000000000085
 31
0.0
  0
LINE
  5
207
100
AcDbEntity
100
AcDbLine
  8
3 side
 62
256
370
-1
  6
ByLayer
 10
-59.1000000000000014
 20
-90.7999999999999972
 30
0.0
 11
-59.1000000000000014
 21
-104.1000000000000085
 31
0.0
  0
ARC
  5
208
100
AcDbEntity
  8
3 side
 62
256
370
-1
  6
ByLayer
100
AcDbCircle
 10
-57.0
 20
-88.0
 30
0.0
 40
3.4999999999999987
100
AcDbArc
 50
306.8698976458440484
 51
233.1301023541559232
  0
LINE
  5
209
100
AcDbEntity
100
AcDbLine
  8
3 side
 62
256
370
-1
  6
ByLayer
 10
-54.8999999999999986
 20
-104.1000000000000085
 30
0.0
 11
-31.9999999999999929
 21
-104.1000000000000085
 31
0.0
  0
LINE
  5
20A
100
AcDbEntity
100
AcDbLine
  8
3 side
 62
256
370
-1
  6
ByLayer
 10
-60.8988999999999976
 20
-104.0999999999999943
 30
0.0
 11
-59.1000000000000014
 21
-104.1000000000000085
 31
0.0
  0
CIRCLE
  5
20B
100
AcDbEntity
100
AcDbCircle
  8
3 side
 62
256
370
-1
  6
ByLayer
 10
63.5381
 20
-96.1000000000000085
 30
0.0
 40
1.5
  0
LINE
  5
20C
100
AcDbEntity
100
AcDbLine
  8
7 belt
 62
256
370
-1
  6
ByLayer
 10
195.0
 20
-385.0000000000000568
 30
0.0
 11
175.0
 21
-300.0
 31
0.0
  0
LINE
  5
20D
100
AcDbEntity
100
AcDbLine
  8
7 belt
 62
256
370
-1
  6
ByLayer
 10
-100.0
 20
-300.0
 30
0.0
 11
175.0
 21
-300.0000000000000568
 31
0.0
  0
LINE
  5
20E
100
AcDbEntity
100
AcDbLine
  8
7 belt
 62
256
370
-1
  6
ByLayer
 10
195.0
 20
-385.0000000000001137
 30
0.0
 11
-80.0000000000000426
 21
-385.0
 31
0.0
  0
CIRCLE
  5
20F
100
AcDbEntity
100
AcDbCircle
  8
drw, motor, Kysan 20 mm
 62
256
370
-1
  6
ByLayer
 10
-57.0
 20
-88.0
 30
0.0
 40
10.1999999999999993
  0
CIRCLE
  5
210
100
AcDbEntity
100
AcDbCircle
  8
drw, motor, Kysan 20 mm
 62
256
370
-1
  6
ByLayer
 10
-62.5
 20
-88.0
 30
0.0
 40
1.5
  0
CIRCLE
  5
211
100
AcDbEntity
100
AcDbCircle
  8
drw, motor, Kysan 20 mm
 62
256
370
-1
  6
ByLayer
 10
-51.5
 20
-88.0
 30
0.0
 40
1.5
  0
LINE
  5
212
100
AcDbEntity
100
AcDbLine
  8
drw, motor, Kysan 20 mm
 62
256
370
-1
  6
ByLayer
 10
-57.8291561975888513
 20
-86.75
 30
0.0
 11
-56.1708438024111487
 21
-86.75
 31
0.0
  0
ARC
  5
213
100
AcDbEntity
  8
drw, motor, Kysan 20 mm
 62
256
370
-1
  6
ByLayer
100
AcDbCircle
 10
-57.0
 20
-88.0
 30
0.0
 40
1.5000000000000007
100
AcDbArc
 50
123.5573097619207772
 51
56.4426902380792441
  0
CIRCLE
  5
214
100
AcDbEntity
100
AcDbCircle
  8
drw, motor, Kysan 20 mm
 62
256
370
-1
  6
ByLayer
 10
-57.0
 20
-88.0
 30
0.0
 40
3.0
  0
CIRCLE
  5
215
100
AcDbEntity
100
AcDbCircle
  8
drw, motor, Kysan 17 mm
 62
256
370
-1
  6
ByLayer
 10
-57.0
 20
-88.0
 30
0.0
 40
10.1999999999999993
  0
CIRCLE
  5
216
100
AcDbEntity
100
AcDbCircle
  8
drw, motor, Kysan 17 mm
 62
256
370
-1
  6
ByLayer
 10
-62.5
 20
-88.0
 30
0.0
 40
1.5
  0
CIRCLE
  5
217
100
AcDbEntity
100
AcDbCircle
  8
drw, motor, Kysan 17 mm
 62
256
370
-1
  6
ByLayer
 10
-51.5
 20
-88.0
 30
0.0
 40
1.5
  0
LINE
  5
218
100
AcDbEntity
100
AcDbLine
  8
drw, motor, Kysan 17 mm
 62
256
370
-1
  6
ByLayer
 10
-57.8291561975888513
 20
-86.75
 30
0.0
 11
-56.1708438024111487
 21
-86.75
 31
0.0
  0
ARC
  5
219
100
AcDbEntity
  8
drw, motor, Kysan 17 mm
 62
256
370
-1
  6
ByLayer
100
AcDbCircle
 10
-57.0
 20
-88.0
 30
0.0
 40
1.5000000000000007
100
AcDbArc
 50
123.5573097619207772
 51
56.4426902380792441
  0
CIRCLE
  5
21A
100
AcDbEntity
100
AcDbCircle
  8
drw, motor, Kysan 17 mm
 62
256
370
-1
  6
ByLayer
 10
-57.0
 20
-88.0
 30
0.0
 40
3.0
  0
CIRCLE
  5
21B
100
AcDbEntity
100
AcDbCircle
  8
3 side
 62
256
370
-1
  6
ByLayer
 10
-62.5
 20
-88.0
 30
0.0
 40
1.5
  0
CIRCLE
  5
21C
100
AcDbEntity
100
AcDbCircle
  8
3 side
 62
256
370
-1
  6
ByLayer
 10
-51.5
 20
-88.0
 30
0.0
 40
1.5
  0
LINE
  5
21D
100
AcDbEntity
100
AcDbLine
  8
drw, random
 62
256
370
-1
  6
ByLayer
 10
-45.9618999999999645
 20
48.5
 30
0.0
 11
45.9619000000000568
 21
48.4999999999999645
 31
0.0
  0
LINE
  5
21E
100
AcDbEntity
100
AcDbLine
  8
drw, random
 62
256
370
-1
  6
ByLayer
 10
-45.9619000000000568
 20
-40.4237999999999502
 30
0.0
 11
45.9619
 21
-40.4238000000000355
 31
0.0
  0
LINE
  5
21F
100
AcDbEntity
100
AcDbLine
  8
drw, build platform
 62
256
370
-1
  6
ByLayer
 10
-35.0000000000000142
 20
235.5555555555556566
 30
0.0
 11
-44.9999999999999929
 21
235.5555555555556566
 31
0.0
  0
LINE
  5
220
100
AcDbEntity
100
AcDbLine
  8
drw, build platform
 62
256
370
-1
  6
ByLayer
 10
-44.9999999999999929
 20
235.5555555555556566
 30
0.0
 11
-44.9999999999999858
 21
238.3333333333333997
 31
0.0
  0
ARC
  5
221
100
AcDbEntity
  8
drw, build platform
 62
256
370
-1
  6
ByLayer
100
AcDbCircle
 10
-42.7777777777777715
 20
238.3333333333333997
 30
0.0
 40
2.2222222222222223
100
AcDbArc
 50
360.0
 51
180.0
  0
LINE
  5
222
100
AcDbEntity
100
AcDbLine
  8
drw, build platform
 62
256
370
-1
  6
ByLayer
 10
-40.5555555555555287
 20
235.5555555555555998
 30
0.0
 11
-40.5555555555555287
 21
238.4444444444445423
 31
0.0
  0
ARC
  5
223
100
AcDbEntity
  8
drw, build platform
 62
256
370
-1
  6
ByLayer
100
AcDbCircle
 10
-37.8888888888888715
 20
238.4444444444445708
 30
0.0
 40
2.6666666666666665
100
AcDbArc
 50
90.0
 51
180.0
  0
LINE
  5
224
100
AcDbEntity
100
AcDbLine
  8
drw, build platform
 62
256
370
-1
  6
ByLayer
 10
-37.8888888888888715
 20
241.1111111111111995
 30
0.0
 11
-37.6666666666666785
 21
241.1111111111111711
 31
0.0
  0
ARC
  5
225
100
AcDbEntity
  8
drw, build platform
 62
256
370
-1
  6
ByLayer
100
AcDbCircle
 10
-37.6666666666666714
 20
238.4444444444445139
 30
0.0
 40
2.6666666666666665
100
AcDbArc
 50
360.0
 51
90.0
  0
LINE
  5
226
100
AcDbEntity
100
AcDbLine
  8
drw, build platform
 62
256
370
-1
  6
ByLayer
 10
-34.9999999999999858
 20
238.4444444444445423
 30
0.0
 11
-35.0000000000000142
 21
235.5555555555556566
 31
0.0
  0
LINE
  5
227
100
AcDbEntity
100
AcDbLine
  8
drw, build platform
 62
256
370
-1
  6
ByLayer
 10
-41.6666666666666714
 20
244.4444444444445139
 30
0.0
 11
-36.6666666666666714
 21
244.4444444444445423
 31
0.0
  0
ARC
  5
228
100
AcDbEntity
  8
drw, build platform
 62
256
370
-1
  6
ByLayer
100
AcDbCircle
 10
-36.6666666666666714
 20
246.1111111111111995
 30
0.0
 40
1.6666666666666667
100
AcDbArc
 50
270.0
 51
360.0
  0
LINE
  5
229
100
AcDbEntity
100
AcDbLine
  8
drw, build platform
 62
256
370
-1
  6
ByLayer
 10
-34.9999999999999787
 20
246.1111111111112564
 30
0.0
 11
-34.9999999999999858
 21
248.8888888888889426
 31
0.0
  0
LINE
  5
22A
100
AcDbEntity
100
AcDbLine
  8
drw, build platform
 62
256
370
-1
  6
ByLayer
 10
-34.9999999999999858
 20
248.8888888888889426
 30
0.0
 11
-41.6666666666666714
 21
248.8888888888891131
 31
0.0
  0
LINE
  5
22B
100
AcDbEntity
100
AcDbLine
  8
drw, build platform
 62
256
370
-1
  6
ByLayer
 10
-34.9999999999999858
 20
252.2222222222222285
 30
0.0
 11
-41.6666666666666785
 21
252.2222222222222001
 31
0.0
  0
LINE
  5
22C
100
AcDbEntity
100
AcDbLine
  8
drw, build platform
 62
256
370
-1
  6
ByLayer
 10
-44.4444444444444429
 20
252.2222222222223991
 30
0.0
 11
-44.9999999999999858
 21
252.2222222222222854
 31
0.0
  0
LINE
  5
22D
100
AcDbEntity
100
AcDbLine
  8
drw, build platform
 62
256
370
-1
  6
ByLayer
 10
-44.9999999999999858
 20
255.5555555555555713
 30
0.0
 11
-36.1111111111111001
 21
255.5555555555555998
 31
0.0
  0
ARC
  5
22E
100
AcDbEntity
  8
drw, build platform
 62
256
370
-1
  6
ByLayer
100
AcDbCircle
 10
-36.1111111111111001
 20
256.6666666666666856
 30
0.0
 40
1.1111111111111112
100
AcDbArc
 50
270.0
 51
360.0
  0
LINE
  5
22F
100
AcDbEntity
100
AcDbLine
  8
drw, build platform
 62
256
370
-1
  6
ByLayer
 10
-44.9999999999999929
 20
264.4444444444445139
 30
0.0
 11
-34.9999999999999787
 21
264.4444444444445708
 31
0.0
  0
LINE
  5
230
100
AcDbEntity
100
AcDbLine
  8
drw, build platform
 62
256
370
-1
  6
ByLayer
 10
-34.9999999999999787
 20
264.4444444444445708
 30
0.0
 11
-34.9999999999999929
 21
261.6666666666667425
 31
0.0
  0
ARC
  5
231
100
AcDbEntity
  8
drw, build platform
 62
256
370
-1
  6
ByLayer
100
AcDbCircle
 10
-36.6666666666666643
 20
261.6666666666667425
 30
0.0
 40
1.6666666666666667
100
AcDbArc
 50
270.0
 51
360.0
  0
LINE
  5
232
100
AcDbEntity
100
AcDbLine
  8
drw, build platform
 62
256
370
-1
  6
ByLayer
 10
-36.6666666666666643
 20
260.0000000000001137
 30
0.0
 11
-39.9999999999999858
 21
260.0000000000000568
 31
0.0
  0
ARC
  5
233
100
AcDbEntity
  8
drw, build platform
 62
256
370
-1
  6
ByLayer
100
AcDbCircle
 10
-39.9999999999999858
 20
261.6666666666667425
 30
0.0
 40
1.6666666666666667
100
AcDbArc
 50
180.0
 51
270.0
  0
LINE
  5
234
100
AcDbEntity
100
AcDbLine
  8
drw, build platform
 62
256
370
-1
  6
ByLayer
 10
-41.6666666666666714
 20
261.6666666666667425
 30
0.0
 11
-41.6666666666666856
 21
264.4444444444445708
 31
0.0
  0
LINE
  5
235
100
AcDbEntity
100
AcDbLine
  8
drw, build platform
 62
256
370
-1
  6
ByLayer
 10
44.9999999999999858
 20
222.2222222222222854
 30
0.0
 11
34.9999999999999858
 21
222.2222222222222854
 31
0.0
  0
LINE
  5
236
100
AcDbEntity
100
AcDbLine
  8
drw, build platform
 62
256
370
-1
  6
ByLayer
 10
34.9999999999999858
 20
222.2222222222222854
 30
0.0
 11
34.9999999999999787
 21
225.5555555555555713
 31
0.0
  0
ARC
  5
237
100
AcDbEntity
  8
drw, build platform
 62
256
370
-1
  6
ByLayer
100
AcDbCircle
 10
37.2222222222221646
 20
225.5555555555555429
 30
0.0
 40
2.2222222222222223
100
AcDbArc
 50
90.0
 51
180.0
  0
LINE
  5
238
100
AcDbEntity
100
AcDbLine
  8
drw, build platform
 62
256
370
-1
  6
ByLayer
 10
37.2222222222222001
 20
227.7777777777778283
 30
0.0
 11
38.3333333333333002
 21
227.7777777777777999
 31
0.0
  0
ARC
  5
239
100
AcDbEntity
  8
drw, build platform
 62
256
370
-1
  6
ByLayer
100
AcDbCircle
 10
38.333333333333286
 20
225.5555555555555713
 30
0.0
 40
2.2222222222222223
100
AcDbArc
 50
360.0
 51
90.0
  0
LINE
  5
23A
100
AcDbEntity
100
AcDbLine
  8
drw, build platform
 62
256
370
-1
  6
ByLayer
 10
40.5555555555555216
 20
225.5555555555555713
 30
0.0
 11
40.5555555555555642
 21
222.2222222222222854
 31
0.0
  0
LINE
  5
23B
100
AcDbEntity
100
AcDbLine
  8
drw, build platform
 62
256
370
-1
  6
ByLayer
 10
34.9999999999999858
 20
231.1111111111111427
 30
0.0
 11
43.8888888888888786
 21
231.1111111111110858
 31
0.0
  0
ARC
  5
23C
100
AcDbEntity
  8
drw, build platform
 62
256
370
-1
  6
ByLayer
100
AcDbCircle
 10
43.8888888888888999
 20
232.2222222222222285
 30
0.0
 40
1.1111111111111112
100
AcDbArc
 50
270.0
 51
360.0
  0
LINE
  5
23D
100
AcDbEntity
100
AcDbLine
  8
drw, build platform
 62
256
370
-1
  6
ByLayer
 10
38.3333333333333428
 20
236.1111111111111143
 30
0.0
 11
38.3333333333333357
 21
238.3333333333333428
 31
0.0
  0
ARC
  5
23E
100
AcDbEntity
  8
drw, build platform
 62
256
370
-1
  6
ByLayer
100
AcDbCircle
 10
40.0000000000000142
 20
238.3333333333333712
 30
0.0
 40
1.6666666666666667
100
AcDbArc
 50
90.0
 51
180.0
  0
LINE
  5
23F
100
AcDbEntity
100
AcDbLine
  8
drw, build platform
 62
256
370
-1
  6
ByLayer
 10
40.0000000000000142
 20
240.0000000000000284
 30
0.0
 11
45.0000000000000142
 21
240.0000000000000568
 31
0.0
  0
LINE
  5
240
100
AcDbEntity
100
AcDbLine
  8
drw, build platform
 62
256
370
-1
  6
ByLayer
 10
45.0000000000000142
 20
240.0000000000000568
 30
0.0
 11
44.9999999999999929
 21
237.2222222222222854
 31
0.0
  0
ARC
  5
241
100
AcDbEntity
  8
drw, build platform
 62
256
370
-1
  6
ByLayer
100
AcDbCircle
 10
43.333333333333357
 20
237.2222222222222854
 30
0.0
 40
1.6666666666666667
100
AcDbArc
 50
180.0
 51
360.0
  0
LINE
  5
242
100
AcDbEntity
100
AcDbLine
  8
drw, build platform
 62
256
370
-1
  6
ByLayer
 10
41.6666666666666714
 20
237.2222222222222854
 30
0.0
 11
41.6666666666666856
 21
240.0000000000000284
 31
0.0
  0
LINE
  5
243
100
AcDbEntity
100
AcDbLine
  8
drw, build platform
 62
256
370
-1
  6
ByLayer
 10
38.3333333333333428
 20
243.3333333333333712
 30
0.0
 11
38.3333333333333428
 21
246.6666666666666572
 31
0.0
  0
LINE
  5
244
100
AcDbEntity
100
AcDbLine
  8
drw, build platform
 62
256
370
-1
  6
ByLayer
 10
35.0000000000000142
 20
244.4444444444444571
 30
0.0
 11
45.0000000000000142
 21
244.4444444444444287
 31
0.0
  0
LINE
  5
245
100
AcDbEntity
100
AcDbLine
  8
drw, build platform
 62
256
370
-1
  6
ByLayer
 10
45.0000000000000142
 20
251.1111111111110858
 30
0.0
 11
36.6666666666666856
 21
251.1111111111112848
 31
0.0
  0
ARC
  5
246
100
AcDbEntity
  8
drw, build platform
 62
256
370
-1
  6
ByLayer
100
AcDbCircle
 10
36.6666666666666856
 20
252.7777777777777999
 30
0.0
 40
1.6666666666666667
100
AcDbArc
 50
180.0
 51
270.0
  0
LINE
  5
247
100
AcDbEntity
100
AcDbLine
  8
drw, build platform
 62
256
370
-1
  6
ByLayer
 10
35.0000000000000142
 20
252.7777777777778567
 30
0.0
 11
35.0000000000000213
 21
253.3333333333333712
 31
0.0
  0
LINE
  5
248
100
AcDbEntity
100
AcDbLine
  8
drw, build platform
 62
256
370
-1
  6
ByLayer
 10
38.3333333333333428
 20
250.0000000000000568
 30
0.0
 11
38.3333333333333357
 21
253.3333333333333712
 31
0.0
  0
LINE
  5
249
100
AcDbEntity
100
AcDbLine
  8
drw, build platform
 62
256
370
-1
  6
ByLayer
 10
40.5555555555555713
 20
256.6666666666667425
 30
0.0
 11
42.7777777777777857
 21
256.6666666666667425
 31
0.0
  0
ARC
  5
24A
100
AcDbEntity
  8
drw, build platform
 62
256
370
-1
  6
ByLayer
100
AcDbCircle
 10
42.7777777777777857
 20
258.8888888888890278
 30
0.0
 40
2.2222222222222223
100
AcDbArc
 50
270.0
 51
90.0
  0
LINE
  5
24B
100
AcDbEntity
100
AcDbLine
  8
drw, build platform
 62
256
370
-1
  6
ByLayer
 10
42.7777777777777786
 20
261.1111111111111995
 30
0.0
 11
40.5555555555555785
 21
261.1111111111111995
 31
0.0
  0
ARC
  5
24C
100
AcDbEntity
  8
drw, build platform
 62
256
370
-1
  6
ByLayer
100
AcDbCircle
 10
40.5555555555555785
 20
258.888888888888971
 30
0.0
 40
2.2222222222222223
100
AcDbArc
 50
90.0
 51
270.0
  0
LINE
  5
24D
100
AcDbEntity
100
AcDbLine
  8
drw, build platform
 62
256
370
-1
  6
ByLayer
 10
45.0000000000000284
 20
264.4444444444445139
 30
0.0
 11
38.3333333333333641
 21
264.4444444444445139
 31
0.0
  0
LINE
  5
24E
100
AcDbEntity
100
AcDbLine
  8
drw, build platform
 62
256
370
-1
  6
ByLayer
 10
38.3333333333333641
 20
264.4444444444445139
 30
0.0
 11
38.333333333333357
 21
266.6666666666667425
 31
0.0
  0
ARC
  5
24F
100
AcDbEntity
  8
drw, build platform
 62
256
370
-1
  6
ByLayer
100
AcDbCircle
 10
39.4444444444444784
 20
266.6666666666667425
 30
0.0
 40
1.1111111111111112
100
AcDbArc
 50
90.0
 51
180.0
  0
LINE
  5
250
100
AcDbEntity
100
AcDbLine
  8
drw, build platform
 62
256
370
-1
  6
ByLayer
 10
45.0000000000000213
 20
271.1111111111111427
 30
0.0
 11
38.3333333333333428
 21
271.1111111111111427
 31
0.0
  0
LINE
  5
251
100
AcDbEntity
100
AcDbLine
  8
drw, build platform
 62
256
370
-1
  6
ByLayer
 10
38.3333333333333428
 20
271.1111111111111427
 30
0.0
 11
38.333333333333357
 21
276.1111111111111427
 31
0.0
  0
ARC
  5
252
100
AcDbEntity
  8
drw, build platform
 62
256
370
-1
  6
ByLayer
100
AcDbCircle
 10
40.0000000000000284
 20
276.1111111111111427
 30
0.0
 40
1.6666666666666667
100
AcDbArc
 50
90.0
 51
180.0
  0
LINE
  5
253
100
AcDbEntity
100
AcDbLine
  8
drw, build platform
 62
256
370
-1
  6
ByLayer
 10
40.0000000000000497
 20
277.7777777777778283
 30
0.0
 11
45.0000000000000071
 21
277.7777777777778283
 31
0.0
  0
LINE
  5
254
100
AcDbEntity
100
AcDbLine
  8
drw, build platform
 62
256
370
-1
  6
ByLayer
 10
38.333333333333357
 20
274.4444444444444571
 30
0.0
 11
45.0000000000000426
 21
274.4444444444444571
 31
0.0
  0
LINE
  5
255
100
AcDbEntity
100
AcDbLine
  8
drw, build platform
 62
256
370
-1
  6
ByLayer
 10
49.9999999999999361
 20
200.0
 30
0.0
 11
-50.0000000000000639
 21
200.0000000000001421
 31
0.0
  0
LINE
  5
256
100
AcDbEntity
100
AcDbLine
  8
drw, build platform
 62
256
370
-1
  6
ByLayer
 10
-50.0000000000000639
 20
200.0000000000001421
 30
0.0
 11
-49.9999999999999432
 21
300.0000000000001137
 31
0.0
  0
LINE
  5
257
100
AcDbEntity
100
AcDbLine
  8
drw, build platform
 62
256
370
-1
  6
ByLayer
 10
-49.9999999999999432
 20
300.0000000000001137
 30
0.0
 11
50.0000000000000497
 21
300.0
 31
0.0
  0
LINE
  5
258
100
AcDbEntity
100
AcDbLine
  8
drw, build platform
 62
256
370
-1
  6
ByLayer
 10
50.0000000000000497
 20
300.0
 30
0.0
 11
49.9999999999999361
 21
200.0
 31
0.0
  0
CIRCLE
  5
259
100
AcDbEntity
100
AcDbCircle
  8
drw, build platform
 62
256
370
-1
  6
ByLayer
 10
-0.0000000000000149
 20
246.0000000000000568
 30
0.0
 40
2.75
  0
CIRCLE
  5
25A
100
AcDbEntity
100
AcDbCircle
  8
drw, build platform
 62
256
370
-1
  6
ByLayer
 10
-45.9619000000000639
 20
204.0381000000001279
 30
0.0
 40
1.5
  0
CIRCLE
  5
25B
100
AcDbEntity
100
AcDbCircle
  8
drw, build platform
 62
256
370
-1
  6
ByLayer
 10
-0.0000000000000084
 20
204.0381000000000995
 30
0.0
 40
1.5
  0
CIRCLE
  5
25C
100
AcDbEntity
100
AcDbCircle
  8
drw, build platform
 62
256
370
-1
  6
ByLayer
 10
45.9618999999999929
 20
204.0381000000000427
 30
0.0
 40
1.5
  0
CIRCLE
  5
25D
100
AcDbEntity
100
AcDbCircle
  8
drw, build platform
 62
256
370
-1
  6
ByLayer
 10
-45.9618999999999573
 20
295.961900000000071
 30
0.0
 40
1.5
  0
CIRCLE
  5
25E
100
AcDbEntity
100
AcDbCircle
  8
drw, build platform
 62
256
370
-1
  6
ByLayer
 10
0.0000000000000028
 20
295.961900000000071
 30
0.0
 40
1.5
  0
CIRCLE
  5
25F
100
AcDbEntity
100
AcDbCircle
  8
drw, build platform
 62
256
370
-1
  6
ByLayer
 10
45.9619000000000568
 20
295.9619000000000142
 30
0.0
 40
1.5
  0
CIRCLE
  5
260
100
AcDbEntity
100
AcDbCircle
  8
drw, build platform
 62
256
370
-1
  6
ByLayer
 10
-20.0999999999999659
 20
259.0000000000001137
 30
0.0
 40
2.75
  0
LINE
  5
261
100
AcDbEntity
100
AcDbLine
  8
drw, build platform
 62
256
370
-1
  6
ByLayer
 10
6.7699999999999534
 20
228.3700000000000045
 30
0.0
 11
4.0299999999999727
 21
228.3700000000000045
 31
0.0
  0
LINE
  5
262
100
AcDbEntity
100
AcDbLine
  8
drw, build platform
 62
256
370
-1
  6
ByLayer
 10
6.7699999999999818
 20
225.6300000000001091
 30
0.0
 11
6.7699999999999534
 21
228.3700000000000045
 31
0.0
  0
LINE
  5
263
100
AcDbEntity
100
AcDbLine
  8
drw, build platform
 62
256
370
-1
  6
ByLayer
 10
4.0299999999999727
 20
228.3700000000000045
 30
0.0
 11
4.0299999999999727
 21
225.6300000000000807
 31
0.0
  0
LINE
  5
264
100
AcDbEntity
100
AcDbLine
  8
drw, build platform
 62
256
370
-1
  6
ByLayer
 10
4.0299999999999727
 20
225.6300000000000807
 30
0.0
 11
6.7699999999999818
 21
225.6300000000001091
 31
0.0
  0
LINE
  5
265
100
AcDbEntity
100
AcDbLine
  8
drw, build platform
 62
256
370
-1
  6
ByLayer
 10
-4.0300000000000296
 20
228.370000000000033
 30
0.0
 11
-6.7700000000000244
 21
228.370000000000033
 31
0.0
  0
LINE
  5
266
100
AcDbEntity
100
AcDbLine
  8
drw, build platform
 62
256
370
-1
  6
ByLayer
 10
-4.0300000000000296
 20
225.6300000000001091
 30
0.0
 11
-4.0300000000000296
 21
228.370000000000033
 31
0.0
  0
LINE
  5
267
100
AcDbEntity
100
AcDbLine
  8
drw, build platform
 62
256
370
-1
  6
ByLayer
 10
-6.7700000000000244
 20
228.370000000000033
 30
0.0
 11
-6.7700000000000244
 21
225.6300000000001091
 31
0.0
  0
LINE
  5
268
100
AcDbEntity
100
AcDbLine
  8
drw, build platform
 62
256
370
-1
  6
ByLayer
 10
-6.7700000000000244
 20
225.6300000000001091
 30
0.0
 11
-4.0300000000000296
 21
225.6300000000001091
 31
0.0
  0
LINE
  5
269
100
AcDbEntity
100
AcDbLine
  8
drw, build platform
 62
256
370
-1
  6
ByLayer
 10
1.3700000000000045
 20
260.3700000000000045
 30
0.0
 11
-1.3700000000000045
 21
260.3700000000000045
 31
0.0
  0
LINE
  5
26A
100
AcDbEntity
100
AcDbLine
  8
drw, build platform
 62
256
370
-1
  6
ByLayer
 10
1.3699999999999903
 20
257.6300000000001091
 30
0.0
 11
1.3700000000000045
 21
260.3700000000000045
 31
0.0
  0
LINE
  5
26B
100
AcDbEntity
100
AcDbLine
  8
drw, build platform
 62
256
370
-1
  6
ByLayer
 10
-1.3700000000000045
 20
260.3700000000000045
 30
0.0
 11
-1.3699999999999903
 21
257.6300000000001091
 31
0.0
  0
LINE
  5
26C
100
AcDbEntity
100
AcDbLine
  8
drw, build platform
 62
256
370
-1
  6
ByLayer
 10
-1.3699999999999903
 20
257.6300000000001091
 30
0.0
 11
1.3699999999999903
 21
257.6300000000001091
 31
0.0
  0
LINE
  5
26D
100
AcDbEntity
100
AcDbLine
  8
drw, build platform
 62
256
370
-1
  6
ByLayer
 10
6.7699999999999818
 20
274.3700000000000045
 30
0.0
 11
4.0300000000000011
 21
274.3700000000000045
 31
0.0
  0
LINE
  5
26E
100
AcDbEntity
100
AcDbLine
  8
drw, build platform
 62
256
370
-1
  6
ByLayer
 10
6.769999999999996
 20
271.6300000000001091
 30
0.0
 11
6.7699999999999818
 21
274.3700000000000045
 31
0.0
  0
LINE
  5
26F
100
AcDbEntity
100
AcDbLine
  8
drw, build platform
 62
256
370
-1
  6
ByLayer
 10
4.0300000000000011
 20
274.3700000000000045
 30
0.0
 11
4.0300000000000153
 21
271.6300000000001091
 31
0.0
  0
LINE
  5
270
100
AcDbEntity
100
AcDbLine
  8
drw, build platform
 62
256
370
-1
  6
ByLayer
 10
4.0300000000000153
 20
271.6300000000001091
 30
0.0
 11
6.769999999999996
 21
271.6300000000001091
 31
0.0
  0
LINE
  5
271
100
AcDbEntity
100
AcDbLine
  8
drw, build platform
 62
256
370
-1
  6
ByLayer
 10
-4.0300000000000011
 20
274.3700000000000045
 30
0.0
 11
-6.7700000000000102
 21
274.3700000000000045
 31
0.0
  0
LINE
  5
272
100
AcDbEntity
100
AcDbLine
  8
drw, build platform
 62
256
370
-1
  6
ByLayer
 10
-4.0299999999999869
 20
271.6300000000001091
 30
0.0
 11
-4.0300000000000011
 21
274.3700000000000045
 31
0.0
  0
LINE
  5
273
100
AcDbEntity
100
AcDbLine
  8
drw, build platform
 62
256
370
-1
  6
ByLayer
 10
-6.7700000000000102
 20
274.3700000000000045
 30
0.0
 11
-6.7700000000000102
 21
271.6300000000001091
 31
0.0
  0
LINE
  5
274
100
AcDbEntity
100
AcDbLine
  8
drw, build platform
 62
256
370
-1
  6
ByLayer
 10
-6.7700000000000102
 20
271.6300000000001091
 30
0.0
 11
-4.0299999999999869
 21
271.6300000000001091
 31
0.0
  0
CIRCLE
  5
275
100
AcDbEntity
100
AcDbCircle
  8
drw, build platform
 62
256
370
-1
  6
ByLayer
 10
20.1000000000000369
 20
259.0000000000000568
 30
0.0
 40
2.75
  0
CIRCLE
  5
276
100
AcDbEntity
100
AcDbCircle
  8
1 bottom
 62
256
370
-1
  6
ByLayer
 10
-0.0000000000000789
 20
0.0002000000000351
 30
0.0
 40
2.75
  0
CIRCLE
  5
277
100
AcDbEntity
100
AcDbCircle
  8
1 bottom
 62
256
370
-1
  6
ByLayer
 10
-20.1000000000000156
 20
13.0002000000000635
 30
0.0
 40
2.75
  0
CIRCLE
  5
278
100
AcDbEntity
100
AcDbCircle
  8
1 bottom
 62
256
370
-1
  6
ByLayer
 10
20.099999999999973
 20
13.0002000000000351
 30
0.0
 40
2.75
  0
LINE
  5
279
100
AcDbEntity
100
AcDbLine
  8
1 bottom
 62
256
370
-1
  6
ByLayer
 10
6.769999999999893
 20
-17.6297999999999888
 30
0.0
 11
4.0299999999999114
 21
-17.6297999999999888
 31
0.0
  0
LINE
  5
27A
100
AcDbEntity
100
AcDbLine
  8
1 bottom
 62
256
370
-1
  6
ByLayer
 10
6.7699999999999179
 20
-20.3697999999999126
 30
0.0
 11
6.769999999999893
 21
-17.6297999999999888
 31
0.0
  0
LINE
  5
27B
100
AcDbEntity
100
AcDbLine
  8
1 bottom
 62
256
370
-1
  6
ByLayer
 10
4.0299999999999114
 20
-17.6297999999999888
 30
0.0
 11
4.0299999999999141
 21
-20.3697999999999411
 31
0.0
  0
LINE
  5
27C
100
AcDbEntity
100
AcDbLine
  8
1 bottom
 62
256
370
-1
  6
ByLayer
 10
4.0299999999999141
 20
-20.3697999999999411
 30
0.0
 11
6.7699999999999179
 21
-20.3697999999999126
 31
0.0
  0
LINE
  5
27D
100
AcDbEntity
100
AcDbLine
  8
1 bottom
 62
256
370
-1
  6
ByLayer
 10
-4.0300000000000811
 20
-17.6297999999999888
 30
0.0
 11
-6.7700000000000911
 21
-17.6297999999999888
 31
0.0
  0
LINE
  5
27E
100
AcDbEntity
100
AcDbLine
  8
1 bottom
 62
256
370
-1
  6
ByLayer
 10
-4.0300000000000944
 20
-20.3697999999999126
 30
0.0
 11
-4.0300000000000811
 21
-17.6297999999999888
 31
0.0
  0
LINE
  5
27F
100
AcDbEntity
100
AcDbLine
  8
1 bottom
 62
256
370
-1
  6
ByLayer
 10
-6.7700000000000911
 20
-17.6297999999999888
 30
0.0
 11
-6.770000000000107
 21
-20.3697999999999126
 31
0.0
  0
LINE
  5
280
100
AcDbEntity
100
AcDbLine
  8
1 bottom
 62
256
370
-1
  6
ByLayer
 10
-6.770000000000107
 20
-20.3697999999999126
 30
0.0
 11
-4.0300000000000944
 21
-20.3697999999999126
 31
0.0
  0
LINE
  5
281
100
AcDbEntity
100
AcDbLine
  8
1 bottom
 62
256
370
-1
  6
ByLayer
 10
1.3699999999999553
 20
14.3702000000000112
 30
0.0
 11
-1.3700000000000552
 21
14.3702000000000112
 31
0.0
  0
LINE
  5
282
100
AcDbEntity
100
AcDbLine
  8
1 bottom
 62
256
370
-1
  6
ByLayer
 10
1.3699999999999259
 20
11.6302000000000589
 30
0.0
 11
1.3699999999999553
 21
14.3702000000000112
 31
0.0
  0
LINE
  5
283
100
AcDbEntity
100
AcDbLine
  8
1 bottom
 62
256
370
-1
  6
ByLayer
 10
-1.3700000000000552
 20
14.3702000000000112
 30
0.0
 11
-1.370000000000055
 21
11.6302000000000589
 31
0.0
  0
LINE
  5
284
100
AcDbEntity
100
AcDbLine
  8
1 bottom
 62
256
370
-1
  6
ByLayer
 10
-1.370000000000055
 20
11.6302000000000589
 30
0.0
 11
1.3699999999999259
 21
11.6302000000000589
 31
0.0
  0
LINE
  5
285
100
AcDbEntity
100
AcDbLine
  8
1 bottom
 62
256
370
-1
  6
ByLayer
 10
6.7699999999999312
 20
28.3702000000000112
 30
0.0
 11
4.0299999999999541
 21
28.3702000000000112
 31
0.0
  0
LINE
  5
286
100
AcDbEntity
100
AcDbLine
  8
1 bottom
 62
256
370
-1
  6
ByLayer
 10
6.7699999999999338
 20
25.6302000000000589
 30
0.0
 11
6.7699999999999312
 21
28.3702000000000112
 31
0.0
  0
LINE
  5
287
100
AcDbEntity
100
AcDbLine
  8
1 bottom
 62
256
370
-1
  6
ByLayer
 10
4.0299999999999541
 20
28.3702000000000112
 30
0.0
 11
4.0299999999999514
 21
25.6302000000000874
 31
0.0
  0
LINE
  5
288
100
AcDbEntity
100
AcDbLine
  8
1 bottom
 62
256
370
-1
  6
ByLayer
 10
4.0299999999999514
 20
25.6302000000000874
 30
0.0
 11
6.7699999999999338
 21
25.6302000000000589
 31
0.0
  0
LINE
  5
289
100
AcDbEntity
100
AcDbLine
  8
1 bottom
 62
256
370
-1
  6
ByLayer
 10
-4.0300000000000482
 20
28.3702000000000112
 30
0.0
 11
-6.7700000000000582
 21
28.3702000000000112
 31
0.0
  0
LINE
  5
28A
100
AcDbEntity
100
AcDbLine
  8
1 bottom
 62
256
370
-1
  6
ByLayer
 10
-4.0300000000000509
 20
25.6302000000000589
 30
0.0
 11
-4.0300000000000482
 21
28.3702000000000112
 31
0.0
  0
LINE
  5
28B
100
AcDbEntity
100
AcDbLine
  8
1 bottom
 62
256
370
-1
  6
ByLayer
 10
-6.7700000000000582
 20
28.3702000000000112
 30
0.0
 11
-6.7700000000000582
 21
25.6302000000000589
 31
0.0
  0
LINE
  5
28C
100
AcDbEntity
100
AcDbLine
  8
1 bottom
 62
256
370
-1
  6
ByLayer
 10
-6.7700000000000582
 20
25.6302000000000589
 30
0.0
 11
-4.0300000000000509
 21
25.6302000000000589
 31
0.0
  0
INSERT
  5
28D
100
AcDbEntity
100
AcDbBlockReference
  8
1 bottom
 62
256
370
-1
  6
ByLayer
  2
holes-20
 10
-16.9999974048171936
 20
50.0002000000000635
 30
0.0
 50
360.0
 44
1.0
 45
1.0
  0
CIRCLE
  5
28E
100
AcDbEntity
100
AcDbCircle
  8
1 bottom
 62
256
370
-1
  6
ByLayer
 10
15.0399999999999636
 20
13.0402000000000271
 30
0.0
 40
2.7000000000000002
  0
CIRCLE
  5
28F
100
AcDbEntity
100
AcDbCircle
  8
1 bottom
 62
256
370
-1
  6
ByLayer
 10
0.0399999999999636
 20
-1.9597999999999729
 30
0.0
 40
2.7000000000000002
  0
CIRCLE
  5
290
100
AcDbEntity
100
AcDbCircle
  8
1 bottom
 62
256
370
-1
  6
ByLayer
 10
-14.9600000000000364
 20
13.0402000000000271
 30
0.0
 40
2.7000000000000002
  0
INSERT
  5
291
100
AcDbEntity
100
AcDbBlockReference
  8
1 bottom
 62
256
370
-1
  6
ByLayer
  2
holes-20
 10
-16.9999974048172007
 20
-41.9235999999999081
 30
0.0
 50
360.0
 44
1.0
 45
1.0
  0
INSERT
  5
292
100
AcDbEntity
100
AcDbBlockReference
  8
1 bottom
 62
256
370
-1
  6
ByLayer
  2
holes-20
 10
17.0
 20
50.0002000000000635
 30
0.0
 50
360.0
 44
1.0
 45
1.0
  0
INSERT
  5
293
100
AcDbEntity
100
AcDbBlockReference
  8
1 bottom
 62
256
370
-1
  6
ByLayer
  2
holes-20
 10
16.9999999999999503
 20
-41.9235999999999081
 30
0.0
 50
360.0
 44
1.0
 45
1.0
  0
LINE
  5
294
100
AcDbEntity
100
AcDbLine
  8
6 scraper
 62
256
370
-1
  6
ByLayer
 10
-80.0
 20
47.5002000000000635
 30
0.0
 11
-80.0
 21
52.5002000000000635
 31
0.0
  0
LINE
  5
295
100
AcDbEntity
100
AcDbLine
  8
6 scraper
 62
256
370
-1
  6
ByLayer
 10
-70.0
 20
52.5002000000000635
 30
0.0
 11
-70.0
 21
47.5002000000000635
 31
0.0
  0
LINE
  5
296
100
AcDbEntity
100
AcDbLine
  8
6 scraper
 62
256
370
-1
  6
ByLayer
 10
-70.0
 20
-39.4235999999999081
 30
0.0
 11
-70.0
 21
-44.4235999999999081
 31
0.0
  0
LINE
  5
297
100
AcDbEntity
100
AcDbLine
  8
6 scraper
 62
256
370
-1
  6
ByLayer
 10
-80.0000000000000142
 20
-44.4235999999999081
 30
0.0
 11
-80.0
 21
-39.4235999999999081
 31
0.0
  0
LINE
  5
298
100
AcDbEntity
100
AcDbLine
  8
6 scraper
 62
256
370
-1
  6
ByLayer
 10
-76.5000000000000142
 20
-32.9235999999999081
 30
0.0
 11
-73.5000000000000142
 21
-32.9235999999999081
 31
0.0
  0
LINE
  5
299
100
AcDbEntity
100
AcDbLine
  8
6 scraper
 62
256
370
-1
  6
ByLayer
 10
-77.8599999999999994
 20
-36.0935999999998955
 30
0.0
 11
-77.8599999999999994
 21
-33.9235999999999081
 31
0.0
  0
LINE
  5
29A
100
AcDbEntity
100
AcDbLine
  8
6 scraper
 62
256
370
-1
  6
ByLayer
 10
-72.1400000000000148
 20
-33.9235999999999081
 30
0.0
 11
-72.1400000000000148
 21
-36.0935999999998955
 31
0.0
  0
LINE
  5
29B
100
AcDbEntity
100
AcDbLine
  8
6 scraper
 62
256
370
-1
  6
ByLayer
 10
-76.5000000000000142
 20
-36.0935999999998955
 30
0.0
 11
-77.8599999999999994
 21
-36.0935999999998955
 31
0.0
  0
LINE
  5
29C
100
AcDbEntity
100
AcDbLine
  8
6 scraper
 62
256
370
-1
  6
ByLayer
 10
-72.1400000000000148
 20
-36.0935999999998955
 30
0.0
 11
-73.5000000000000142
 21
-36.0935999999998955
 31
0.0
  0
LINE
  5
29D
100
AcDbEntity
100
AcDbLine
  8
6 scraper
 62
256
370
-1
  6
ByLayer
 10
-73.5000000000000142
 20
-32.9235999999999081
 30
0.0
 11
-73.5000000000000142
 21
-33.9235999999999081
 31
0.0
  0
LINE
  5
29E
100
AcDbEntity
100
AcDbLine
  8
6 scraper
 62
256
370
-1
  6
ByLayer
 10
-73.5000000000000142
 20
-33.9235999999999081
 30
0.0
 11
-72.1400000000000148
 21
-33.9235999999999081
 31
0.0
  0
LINE
  5
29F
100
AcDbEntity
100
AcDbLine
  8
6 scraper
 62
256
370
-1
  6
ByLayer
 10
-77.8599999999999994
 20
-33.9235999999999081
 30
0.0
 11
-76.5000000000000142
 21
-33.9235999999999081
 31
0.0
  0
LINE
  5
2A0
100
AcDbEntity
100
AcDbLine
  8
6 scraper
 62
256
370
-1
  6
ByLayer
 10
-76.5000000000000142
 20
-33.9235999999999081
 30
0.0
 11
-76.5000000000000142
 21
-32.9235999999999081
 31
0.0
  0
LINE
  5
2A1
100
AcDbEntity
100
AcDbLine
  8
6 scraper
 62
256
370
-1
  6
ByLayer
 10
-76.5
 20
41.0002000000000635
 30
0.0
 11
-73.5
 21
41.0002000000000635
 31
0.0
  0
LINE
  5
2A2
100
AcDbEntity
100
AcDbLine
  8
6 scraper
 62
256
370
-1
  6
ByLayer
 10
-77.8599999999999852
 20
44.170200000000051
 30
0.0
 11
-77.8599999999999852
 21
42.0002000000000635
 31
0.0
  0
LINE
  5
2A3
100
AcDbEntity
100
AcDbLine
  8
6 scraper
 62
256
370
-1
  6
ByLayer
 10
-72.1400000000000006
 20
42.0002000000000635
 30
0.0
 11
-72.1400000000000006
 21
44.170200000000051
 31
0.0
  0
LINE
  5
2A4
100
AcDbEntity
100
AcDbLine
  8
6 scraper
 62
256
370
-1
  6
ByLayer
 10
-76.5
 20
44.170200000000051
 30
0.0
 11
-77.8599999999999852
 21
44.170200000000051
 31
0.0
  0
LINE
  5
2A5
100
AcDbEntity
100
AcDbLine
  8
6 scraper
 62
256
370
-1
  6
ByLayer
 10
-72.1400000000000006
 20
44.170200000000051
 30
0.0
 11
-73.5
 21
44.170200000000051
 31
0.0
  0
LINE
  5
2A6
100
AcDbEntity
100
AcDbLine
  8
6 scraper
 62
256
370
-1
  6
ByLayer
 10
-73.5
 20
41.0002000000000635
 30
0.0
 11
-73.5
 21
42.0002000000000635
 31
0.0
  0
LINE
  5
2A7
100
AcDbEntity
100
AcDbLine
  8
6 scraper
 62
256
370
-1
  6
ByLayer
 10
-73.5
 20
42.0002000000000635
 30
0.0
 11
-72.1400000000000006
 21
42.0002000000000635
 31
0.0
  0
LINE
  5
2A8
100
AcDbEntity
100
AcDbLine
  8
6 scraper
 62
256
370
-1
  6
ByLayer
 10
-77.8599999999999852
 20
42.0002000000000635
 30
0.0
 11
-76.5
 21
42.0002000000000635
 31
0.0
  0
LINE
  5
2A9
100
AcDbEntity
100
AcDbLine
  8
6 scraper
 62
256
370
-1
  6
ByLayer
 10
-76.5
 20
42.0002000000000635
 30
0.0
 11
-76.5
 21
41.0002000000000635
 31
0.0
  0
LINE
  5
2AA
100
AcDbEntity
100
AcDbLine
  8
6 scraper
 62
256
370
-1
  6
ByLayer
 10
-65.0
 20
52.5002000000000635
 30
0.0
 11
-65.0
 21
-44.4235999999999081
 31
0.0
  0
LINE
  5
2AB
100
AcDbEntity
100
AcDbLine
  8
6 scraper
 62
256
370
-1
  6
ByLayer
 10
-85.0
 20
-44.4235999999999081
 30
0.0
 11
-85.0
 21
52.5002000000000635
 31
0.0
  0
ARC
  5
2AC
100
AcDbEntity
  8
6 scraper
 62
256
370
-1
  6
ByLayer
100
AcDbCircle
 10
-77.0
 20
47.0002000000000635
 30
0.0
 40
0.5
100
AcDbArc
 50
0.0
 51
89.9999999999999574
  0
LINE
  5
2AD
100
AcDbEntity
100
AcDbLine
  8
6 scraper
 62
256
370
-1
  6
ByLayer
 10
-77.0
 20
47.5002000000000635
 30
0.0
 11
-80.0
 21
47.5002000000000635
 31
0.0
  0
ARC
  5
2AE
100
AcDbEntity
  8
6 scraper
 62
256
370
-1
  6
ByLayer
100
AcDbCircle
 10
-73.0
 20
47.0002000000000635
 30
0.0
 40
0.5
100
AcDbArc
 50
90.0000000000000568
 51
180.0
  0
LINE
  5
2AF
100
AcDbEntity
100
AcDbLine
  8
6 scraper
 62
256
370
-1
  6
ByLayer
 10
-73.0
 20
47.5002000000000635
 30
0.0
 11
-70.0
 21
47.5002000000000635
 31
0.0
  0
LINE
  5
2B0
100
AcDbEntity
100
AcDbLine
  8
6 scraper
 62
256
370
-1
  6
ByLayer
 10
-85.0
 20
52.5002000000000635
 30
0.0
 11
-80.0
 21
52.5002000000000635
 31
0.0
  0
LINE
  5
2B1
100
AcDbEntity
100
AcDbLine
  8
6 scraper
 62
256
370
-1
  6
ByLayer
 10
-70.0
 20
52.5002000000000919
 30
0.0
 11
-65.0
 21
52.5002000000000635
 31
0.0
  0
LINE
  5
2B2
100
AcDbEntity
100
AcDbLine
  8
6 scraper
 62
256
370
-1
  6
ByLayer
 10
-76.5
 20
47.0002000000000635
 30
0.0
 11
-76.5
 21
44.170200000000051
 31
0.0
  0
LINE
  5
2B3
100
AcDbEntity
100
AcDbLine
  8
6 scraper
 62
256
370
-1
  6
ByLayer
 10
-73.5
 20
44.170200000000051
 30
0.0
 11
-73.5
 21
47.0002000000000635
 31
0.0
  0
LINE
  5
2B4
100
AcDbEntity
100
AcDbLine
  8
6 scraper
 62
256
370
-1
  6
ByLayer
 10
-65.0
 20
-44.4235999999999081
 30
0.0
 11
-70.0
 21
-44.4235999999999081
 31
0.0
  0
LINE
  5
2B5
100
AcDbEntity
100
AcDbLine
  8
6 scraper
 62
256
370
-1
  6
ByLayer
 10
-80.0000000000000142
 20
-44.4235999999999081
 30
0.0
 11
-85.0000000000000142
 21
-44.4235999999999081
 31
0.0
  0
ARC
  5
2B6
100
AcDbEntity
  8
6 scraper
 62
256
370
-1
  6
ByLayer
100
AcDbCircle
 10
-77.0
 20
-38.9235999999999081
 30
0.0
 40
0.5
100
AcDbArc
 50
270.0000000000000568
 51
0.0
  0
LINE
  5
2B7
100
AcDbEntity
100
AcDbLine
  8
6 scraper
 62
256
370
-1
  6
ByLayer
 10
-77.0
 20
-39.4235999999999081
 30
0.0
 11
-80.0
 21
-39.4235999999999081
 31
0.0
  0
ARC
  5
2B8
100
AcDbEntity
  8
6 scraper
 62
256
370
-1
  6
ByLayer
100
AcDbCircle
 10
-73.0000000000000142
 20
-38.9235999999999081
 30
0.0
 40
0.5
100
AcDbArc
 50
180.0
 51
269.9999999999999432
  0
LINE
  5
2B9
100
AcDbEntity
100
AcDbLine
  8
6 scraper
 62
256
370
-1
  6
ByLayer
 10
-73.0000000000000142
 20
-39.4235999999999081
 30
0.0
 11
-70.0
 21
-39.4235999999999081
 31
0.0
  0
LINE
  5
2BA
100
AcDbEntity
100
AcDbLine
  8
6 scraper
 62
256
370
-1
  6
ByLayer
 10
-73.5000000000000142
 20
-36.0935999999998955
 30
0.0
 11
-73.5000000000000142
 21
-38.9235999999999081
 31
0.0
  0
LINE
  5
2BB
100
AcDbEntity
100
AcDbLine
  8
6 scraper
 62
256
370
-1
  6
ByLayer
 10
-76.5000000000000142
 20
-38.9235999999999081
 30
0.0
 11
-76.5000000000000142
 21
-36.0935999999998955
 31
0.0
  0
CIRCLE
  5
2BC
100
AcDbEntity
100
AcDbCircle
  8
archive, drw, brush, large
 62
256
370
-1
  6
ByLayer
 10
-466.1283555449518303
 20
-195.1423008774922891
 30
0.0
 40
8.0
  0
LINE
  5
2BD
100
AcDbEntity
100
AcDbLine
  8
archive, drw, brush, large
 62
256
370
-1
  6
ByLayer
 10
-467.6824192739749151
 20
-195.2782638361786098
 30
0.0
 11
-474.0979131296858213
 21
-195.8395468194735543
 31
0.0
  0
LINE
  5
2BE
100
AcDbEntity
100
AcDbLine
  8
archive, drw, brush, large
 62
256
370
-1
  6
ByLayer
 10
-467.6883555449518326
 20
-195.1423008774922891
 30
0.0
 11
-474.1283555449517735
 21
-195.1423008774922607
 31
0.0
  0
LINE
  5
2BF
100
AcDbEntity
100
AcDbLine
  8
archive, drw, brush, large
 62
256
370
-1
  6
ByLayer
 10
-467.6824192739749151
 20
-195.00633791880594
 30
0.0
 11
-474.0979131296858213
 21
-194.4450549355109672
 31
0.0
  0
LINE
  5
2C0
100
AcDbEntity
100
AcDbLine
  8
archive, drw, brush, large
 62
256
370
-1
  6
ByLayer
 10
-467.6646556396508458
 20
-194.8714097203318545
 30
0.0
 11
-474.0068175690494741
 21
-193.7531154561568485
 31
0.0
  0
LINE
  5
2C1
100
AcDbEntity
100
AcDbLine
  8
archive, drw, brush, large
 62
256
370
-1
  6
ByLayer
 10
-467.5942760333778665
 20
-194.6087494539042666
 30
0.0
 11
-473.645896511239016
 21
-192.4061397308869061
 31
0.0
  0
LINE
  5
2C2
100
AcDbEntity
100
AcDbLine
  8
archive, drw, brush, large
 62
256
370
-1
  6
ByLayer
 10
-467.6351998339628153
 20
-194.7385431671323488
 30
0.0
 11
-473.855762155264415
 21
-193.0717485166721019
 31
0.0
  0
LINE
  5
2C3
100
AcDbEntity
100
AcDbLine
  8
archive, drw, brush, large
 62
256
370
-1
  6
ByLayer
 10
-467.5421956927290239
 20
-194.4830163891768109
 30
0.0
 11
-473.3788178412449952
 21
-191.7613547835667021
 31
0.0
  0
LINE
  5
2C4
100
AcDbEntity
100
AcDbLine
  8
archive, drw, brush, large
 62
256
370
-1
  6
ByLayer
 10
-467.4793551748555842
 20
-194.362300877492288
 30
0.0
 11
-473.0565587752273018
 21
-191.1423008774922607
 31
0.0
  0
LINE
  5
2C5
100
AcDbEntity
100
AcDbLine
  8
archive, drw, brush, large
 62
256
370
-1
  6
ByLayer
 10
-465.3483555449518008
 20
-193.7913012475885637
 30
0.0
 11
-462.1283555449518872
 21
-188.2140976472167608
 31
0.0
  0
LINE
  5
2C6
100
AcDbEntity
100
AcDbLine
  8
archive, drw, brush, large
 62
256
370
-1
  6
ByLayer
 10
-465.7245978345918047
 20
-193.6354565884813326
 30
0.0
 11
-464.0578031841316715
 21
-187.4148942671797329
 31
0.0
  0
LINE
  5
2C7
100
AcDbEntity
100
AcDbLine
  8
archive, drw, brush, large
 62
256
370
-1
  6
ByLayer
 10
-465.5948041213637794
 20
-193.6763803890662814
 30
0.0
 11
-463.3921943983464189
 21
-187.6247599112049897
 31
0.0
  0
LINE
  5
2C8
100
AcDbEntity
100
AcDbLine
  8
archive, drw, brush, large
 62
256
370
-1
  6
ByLayer
 10
-465.4690710566362668
 20
-193.7284607297150956
 30
0.0
 11
-462.7474094510262148
 21
-187.8918385811990959
 31
0.0
  0
LINE
  5
2C9
100
AcDbEntity
100
AcDbLine
  8
archive, drw, brush, large
 62
256
370
-1
  6
ByLayer
 10
-465.9923925862654528
 20
-193.588237148469176
 30
0.0
 11
-465.4311096029705368
 21
-187.1727432927582981
 31
0.0
  0
LINE
  5
2CA
100
AcDbEntity
100
AcDbLine
  8
archive, drw, brush, large
 62
256
370
-1
  6
ByLayer
 10
-466.1283555449517735
 20
-193.5823008774922585
 30
0.0
 11
-466.1283555449517735
 21
-187.1423008774922607
 31
0.0
  0
LINE
  5
2CB
100
AcDbEntity
100
AcDbLine
  8
archive, drw, brush, large
 62
256
370
-1
  6
ByLayer
 10
-466.3992467021122366
 20
-193.6060007827932452
 30
0.0
 11
-467.5175409662872426
 21
-187.2638388533945886
 31
0.0
  0
LINE
  5
2CC
100
AcDbEntity
100
AcDbLine
  8
archive, drw, brush, large
 62
256
370
-1
  6
ByLayer
 10
-466.5321132553117423
 20
-193.6354565884813042
 30
0.0
 11
-468.1989079057719323
 21
-187.4148942671797045
 31
0.0
  0
LINE
  5
2CD
100
AcDbEntity
100
AcDbLine
  8
archive, drw, brush, large
 62
256
370
-1
  6
ByLayer
 10
-466.264318503638151
 20
-193.588237148469176
 30
0.0
 11
-466.8256014869331239
 21
-187.1727432927583266
 31
0.0
  0
LINE
  5
2CE
100
AcDbEntity
100
AcDbLine
  8
archive, drw, brush, large
 62
256
370
-1
  6
ByLayer
 10
-465.8574643877914241
 20
-193.6060007827932452
 30
0.0
 11
-464.7391701236163613
 21
-187.263838853394617
 31
0.0
  0
LINE
  5
2CF
100
AcDbEntity
100
AcDbLine
  8
archive, drw, brush, large
 62
256
370
-1
  6
ByLayer
 10
-466.9083555449518599
 20
-193.7913012475885637
 30
0.0
 11
-470.1283555449517735
 21
-188.2140976472167608
 31
0.0
  0
LINE
  5
2D0
100
AcDbEntity
100
AcDbLine
  8
archive, drw, brush, large
 62
256
370
-1
  6
ByLayer
 10
-466.6619069685398244
 20
-193.6763803890662814
 30
0.0
 11
-468.8645166915572418
 21
-187.6247599112050182
 31
0.0
  0
LINE
  5
2D1
100
AcDbEntity
100
AcDbLine
  8
archive, drw, brush, large
 62
256
370
-1
  6
ByLayer
 10
-467.3233848762174034
 20
-194.1395522063812962
 30
0.0
 11
-472.2567110899036606
 21
-189.9999999999999432
 31
0.0
  0
LINE
  5
2D2
100
AcDbEntity
100
AcDbLine
  8
archive, drw, brush, large
 62
256
370
-1
  6
ByLayer
 10
-467.4062327340426464
 20
-194.2475216367846258
 30
0.0
 11
-472.6815718992637585
 21
-190.5536893866838852
 31
0.0
  0
LINE
  5
2D3
100
AcDbEntity
100
AcDbLine
  8
archive, drw, brush, large
 62
256
370
-1
  6
ByLayer
 10
-467.2314421236027897
 20
-194.0392142988412445
 30
0.0
 11
-471.7852097944441425
 21
-189.4854466279998917
 31
0.0
  0
LINE
  5
2D4
100
AcDbEntity
100
AcDbLine
  8
archive, drw, brush, large
 62
256
370
-1
  6
ByLayer
 10
-467.0231347856594084
 20
-193.8644236884014447
 30
0.0
 11
-470.7169670357602058
 21
-188.5890845231803326
 31
0.0
  0
LINE
  5
2D5
100
AcDbEntity
100
AcDbLine
  8
archive, drw, brush, large
 62
256
370
-1
  6
ByLayer
 10
-467.1311042160627949
 20
-193.9472715462266592
 30
0.0
 11
-471.2706564224441763
 21
-189.0139453325404588
 31
0.0
  0
LINE
  5
2D6
100
AcDbEntity
100
AcDbLine
  8
archive, drw, brush, large
 62
256
370
-1
  6
ByLayer
 10
-466.7876400332672802
 20
-193.7284607297150956
 30
0.0
 11
-469.5093016388774458
 21
-187.8918385811990959
 31
0.0
  0
LINE
  5
2D7
100
AcDbEntity
100
AcDbLine
  8
archive, drw, brush, large
 62
256
370
-1
  6
ByLayer
 10
-465.0252689663007573
 20
-194.0392142988412445
 30
0.0
 11
-460.4715012954594613
 21
-189.4854466279999201
 31
0.0
  0
LINE
  5
2D8
100
AcDbEntity
100
AcDbLine
  8
archive, drw, brush, large
 62
256
370
-1
  6
ByLayer
 10
-465.2335763042441386
 20
-193.8644236884014447
 30
0.0
 11
-461.539744054143398
 21
-188.5890845231803326
 31
0.0
  0
LINE
  5
2D9
100
AcDbEntity
100
AcDbLine
  8
archive, drw, brush, large
 62
256
370
-1
  6
ByLayer
 10
-465.1256068738408658
 20
-193.9472715462266876
 30
0.0
 11
-460.9860546674594843
 21
-189.0139453325404588
 31
0.0
  0
LINE
  5
2DA
100
AcDbEntity
100
AcDbLine
  8
archive, drw, brush, large
 62
256
370
-1
  6
ByLayer
 10
-464.8504783558609574
 20
-194.2475216367846258
 30
0.0
 11
-459.5751391906398453
 21
-190.5536893866839137
 31
0.0
  0
LINE
  5
2DB
100
AcDbEntity
100
AcDbLine
  8
archive, drw, brush, large
 62
256
370
-1
  6
ByLayer
 10
-464.9333262136862004
 20
-194.1395522063812962
 30
0.0
 11
-459.9999999999999432
 21
-189.9999999999999432
 31
0.0
  0
LINE
  5
2DC
100
AcDbEntity
100
AcDbLine
  8
archive, drw, brush, large
 62
256
370
-1
  6
ByLayer
 10
-464.7773559150480196
 20
-194.3623008774922596
 30
0.0
 11
-459.200152314676302
 21
-191.1423008774922891
 31
0.0
  0
LINE
  5
2DD
100
AcDbEntity
100
AcDbLine
  8
archive, drw, brush, large
 62
256
370
-1
  6
ByLayer
 10
-464.7145153971746367
 20
-194.4830163891768109
 30
0.0
 11
-458.8778932486585518
 21
-191.7613547835667021
 31
0.0
  0
LINE
  5
2DE
100
AcDbEntity
100
AcDbLine
  8
archive, drw, brush, large
 62
256
370
-1
  6
ByLayer
 10
-464.662435056525851
 20
-194.6087494539042382
 30
0.0
 11
-458.6108145786645309
 21
-192.4061397308869346
 31
0.0
  0
LINE
  5
2DF
100
AcDbEntity
100
AcDbLine
  8
archive, drw, brush, large
 62
256
370
-1
  6
ByLayer
 10
-464.6215112559408453
 20
-194.7385431671323488
 30
0.0
 11
-458.4009489346392456
 21
-193.0717485166721019
 31
0.0
  0
LINE
  5
2E0
100
AcDbEntity
100
AcDbLine
  8
archive, drw, brush, large
 62
256
370
-1
  6
ByLayer
 10
-464.5920554502527011
 20
-194.8714097203318545
 30
0.0
 11
-458.2498935208541297
 21
-193.7531154561568485
 31
0.0
  0
LINE
  5
2E1
100
AcDbEntity
100
AcDbLine
  8
archive, drw, brush, large
 62
256
370
-1
  6
ByLayer
 10
-464.5742918159287456
 20
-195.00633791880594
 30
0.0
 11
-458.1587979602178393
 21
-194.445054935511024
 31
0.0
  0
LINE
  5
2E2
100
AcDbEntity
100
AcDbLine
  8
archive, drw, brush, large
 62
256
370
-1
  6
ByLayer
 10
-464.5683555449518281
 20
-195.1423008774922891
 30
0.0
 11
-458.1283555449518872
 21
-195.1423008774922891
 31
0.0
  0
LINE
  5
2E3
100
AcDbEntity
100
AcDbLine
  8
archive, drw, brush, large
 62
256
370
-1
  6
ByLayer
 10
-464.5742918159286319
 20
-195.2782638361786098
 30
0.0
 11
-458.1587979602178393
 21
-195.8395468194735827
 31
0.0
  0
LINE
  5
2E4
100
AcDbEntity
100
AcDbLine
  8
archive, drw, brush, large
 62
256
370
-1
  6
ByLayer
 10
-467.4793551748555274
 20
-195.9223008774922903
 30
0.0
 11
-473.0565587752273586
 21
-199.1423008774922891
 31
0.0
  0
LINE
  5
2E5
100
AcDbEntity
100
AcDbLine
  8
archive, drw, brush, large
 62
256
370
-1
  6
ByLayer
 10
-467.5421956927290239
 20
-195.8015853658077674
 30
0.0
 11
-473.3788178412449952
 21
-198.5232469714178762
 31
0.0
  0
LINE
  5
2E6
100
AcDbEntity
100
AcDbLine
  8
archive, drw, brush, large
 62
256
370
-1
  6
ByLayer
 10
-467.5942760333778097
 20
-195.6758523010803117
 30
0.0
 11
-473.6458965112391297
 21
-197.8784620240976722
 31
0.0
  0
LINE
  5
2E7
100
AcDbEntity
100
AcDbLine
  8
archive, drw, brush, large
 62
256
370
-1
  6
ByLayer
 10
-467.6351998339627016
 20
-195.5460585878522011
 30
0.0
 11
-473.8557621552643582
 21
-197.2128532383124195
 31
0.0
  0
LINE
  5
2E8
100
AcDbEntity
100
AcDbLine
  8
archive, drw, brush, large
 62
256
370
-1
  6
ByLayer
 10
-467.6646556396509027
 20
-195.4131920346527238
 30
0.0
 11
-474.0068175690495309
 21
-196.5314862988277298
 31
0.0
  0
LINE
  5
2E9
100
AcDbEntity
100
AcDbLine
  8
archive, drw, brush, large
 62
256
370
-1
  6
ByLayer
 10
-467.4062327340426464
 20
-196.0370801181998957
 30
0.0
 11
-472.6815718992637585
 21
-199.7309123683006646
 31
0.0
  0
LINE
  5
2EA
100
AcDbEntity
100
AcDbLine
  8
archive, drw, brush, large
 62
256
370
-1
  6
ByLayer
 10
-467.3233848762174603
 20
-196.1450495486032821
 30
0.0
 11
-472.2567110899036606
 21
-200.2846017549846067
 31
0.0
  0
LINE
  5
2EB
100
AcDbEntity
100
AcDbLine
  8
archive, drw, brush, large
 62
256
370
-1
  6
ByLayer
 10
-467.1311042160627949
 20
-196.3373302087578907
 30
0.0
 11
-471.2706564224441763
 21
-201.2706564224441195
 31
0.0
  0
LINE
  5
2EC
100
AcDbEntity
100
AcDbLine
  8
archive, drw, brush, large
 62
256
370
-1
  6
ByLayer
 10
-467.2314421236028466
 20
-196.2453874561433054
 30
0.0
 11
-471.7852097944441994
 21
-200.7991551269846582
 31
0.0
  0
LINE
  5
2ED
100
AcDbEntity
100
AcDbLine
  8
archive, drw, brush, large
 62
256
370
-1
  6
ByLayer
 10
-467.0231347856595221
 20
-196.4201780665831336
 30
0.0
 11
-470.716967035760149
 21
-201.6955172318041889
 31
0.0
  0
LINE
  5
2EE
100
AcDbEntity
100
AcDbLine
  8
archive, drw, brush, large
 62
256
370
-1
  6
ByLayer
 10
-466.9083555449518599
 20
-196.4933005073960146
 30
0.0
 11
-470.1283555449517735
 21
-202.070504107767789
 31
0.0
  0
LINE
  5
2EF
100
AcDbEntity
100
AcDbLine
  8
archive, drw, brush, large
 62
256
370
-1
  6
ByLayer
 10
-466.7876400332672802
 20
-196.5561410252694543
 30
0.0
 11
-469.5093016388773322
 21
-202.392763173785454
 31
0.0
  0
LINE
  5
2F0
100
AcDbEntity
100
AcDbLine
  8
archive, drw, brush, large
 62
256
370
-1
  6
ByLayer
 10
-466.6619069685398244
 20
-196.6082213659182969
 30
0.0
 11
-468.8645166915572418
 21
-202.6598418437795601
 31
0.0
  0
LINE
  5
2F1
100
AcDbEntity
100
AcDbLine
  8
archive, drw, brush, large
 62
256
370
-1
  6
ByLayer
 10
-466.5321132553117423
 20
-196.6491451665032457
 30
0.0
 11
-468.1989079057719891
 21
-202.8697074878048454
 31
0.0
  0
LINE
  5
2F2
100
AcDbEntity
100
AcDbLine
  8
archive, drw, brush, large
 62
256
370
-1
  6
ByLayer
 10
-466.3992467021121797
 20
-196.6786009721913047
 30
0.0
 11
-467.5175409662872426
 21
-203.0207629015899613
 31
0.0
  0
LINE
  5
2F3
100
AcDbEntity
100
AcDbLine
  8
archive, drw, brush, large
 62
256
370
-1
  6
ByLayer
 10
-466.264318503638151
 20
-196.6963646065154023
 30
0.0
 11
-466.8256014869331239
 21
-203.1118584622262802
 31
0.0
  0
LINE
  5
2F4
100
AcDbEntity
100
AcDbLine
  8
archive, drw, brush, large
 62
256
370
-1
  6
ByLayer
 10
-466.1283555449517735
 20
-196.702300877492263
 30
0.0
 11
-466.1283555449517735
 21
-203.1423008774922607
 31
0.0
  0
LINE
  5
2F5
100
AcDbEntity
100
AcDbLine
  8
archive, drw, brush, large
 62
256
370
-1
  6
ByLayer
 10
-465.9923925862654528
 20
-196.6963646065154023
 30
0.0
 11
-465.4311096029705368
 21
-203.1118584622262517
 31
0.0
  0
LINE
  5
2F6
100
AcDbEntity
100
AcDbLine
  8
archive, drw, brush, large
 62
256
370
-1
  6
ByLayer
 10
-465.7245978345919184
 20
-196.6491451665032457
 30
0.0
 11
-464.0578031841316715
 21
-202.8697074878048454
 31
0.0
  0
LINE
  5
2F7
100
AcDbEntity
100
AcDbLine
  8
archive, drw, brush, large
 62
256
370
-1
  6
ByLayer
 10
-465.8574643877914241
 20
-196.6786009721913331
 30
0.0
 11
-464.7391701236164181
 21
-203.0207629015899613
 31
0.0
  0
LINE
  5
2F8
100
AcDbEntity
100
AcDbLine
  8
archive, drw, brush, large
 62
256
370
-1
  6
ByLayer
 10
-465.5948041213638362
 20
-196.6082213659182969
 30
0.0
 11
-463.3921943983464189
 21
-202.6598418437795317
 31
0.0
  0
LINE
  5
2F9
100
AcDbEntity
100
AcDbLine
  8
archive, drw, brush, large
 62
256
370
-1
  6
ByLayer
 10
-465.3483555449518008
 20
-196.4933005073960146
 30
0.0
 11
-462.1283555449518303
 21
-202.0705041077678175
 31
0.0
  0
LINE
  5
2FA
100
AcDbEntity
100
AcDbLine
  8
archive, drw, brush, large
 62
256
370
-1
  6
ByLayer
 10
-465.4690710566363805
 20
-196.5561410252694543
 30
0.0
 11
-462.7474094510262148
 21
-202.392763173785454
 31
0.0
  0
LINE
  5
2FB
100
AcDbEntity
100
AcDbLine
  8
archive, drw, brush, large
 62
256
370
-1
  6
ByLayer
 10
-465.1256068738408089
 20
-196.3373302087578907
 30
0.0
 11
-460.9860546674594843
 21
-201.2706564224441195
 31
0.0
  0
LINE
  5
2FC
100
AcDbEntity
100
AcDbLine
  8
archive, drw, brush, large
 62
256
370
-1
  6
ByLayer
 10
-465.2335763042441386
 20
-196.4201780665830768
 30
0.0
 11
-461.5397440541435117
 21
-201.6955172318042457
 31
0.0
  0
LINE
  5
2FD
100
AcDbEntity
100
AcDbLine
  8
archive, drw, brush, large
 62
256
370
-1
  6
ByLayer
 10
-465.0252689663008141
 20
-196.2453874561433054
 30
0.0
 11
-460.4715012954594613
 21
-200.7991551269846582
 31
0.0
  0
LINE
  5
2FE
100
AcDbEntity
100
AcDbLine
  8
archive, drw, brush, large
 62
256
370
-1
  6
ByLayer
 10
-464.9333262136862004
 20
-196.1450495486032821
 30
0.0
 11
-460.0
 21
-200.2846017549846067
 31
0.0
  0
LINE
  5
2FF
100
AcDbEntity
100
AcDbLine
  8
archive, drw, brush, large
 62
256
370
-1
  6
ByLayer
 10
-464.8504783558610143
 20
-196.0370801181999241
 30
0.0
 11
-459.5751391906399022
 21
-199.7309123683006362
 31
0.0
  0
LINE
  5
300
100
AcDbEntity
100
AcDbLine
  8
archive, drw, brush, large
 62
256
370
-1
  6
ByLayer
 10
-464.7773559150480764
 20
-195.9223008774922619
 30
0.0
 11
-459.200152314676302
 21
-199.1423008774922607
 31
0.0
  0
LINE
  5
301
100
AcDbEntity
100
AcDbLine
  8
archive, drw, brush, large
 62
256
370
-1
  6
ByLayer
 10
-464.7145153971746367
 20
-195.8015853658077674
 30
0.0
 11
-458.8778932486586086
 21
-198.5232469714178762
 31
0.0
  0
LINE
  5
302
100
AcDbEntity
100
AcDbLine
  8
archive, drw, brush, large
 62
256
370
-1
  6
ByLayer
 10
-464.6624350565257942
 20
-195.6758523010803401
 30
0.0
 11
-458.6108145786645309
 21
-197.8784620240976153
 31
0.0
  0
LINE
  5
303
100
AcDbEntity
100
AcDbLine
  8
archive, drw, brush, large
 62
256
370
-1
  6
ByLayer
 10
-464.6215112559408453
 20
-195.5460585878522011
 30
0.0
 11
-458.4009489346392456
 21
-197.2128532383124764
 31
0.0
  0
LINE
  5
304
100
AcDbEntity
100
AcDbLine
  8
archive, drw, brush, large
 62
256
370
-1
  6
ByLayer
 10
-464.592055450252758
 20
-195.4131920346526954
 30
0.0
 11
-458.2498935208541866
 21
-196.5314862988277298
 31
0.0
  0
LINE
  5
305
100
AcDbEntity
100
AcDbLine
  8
archive, drw, brush, large
 62
256
370
-1
  6
ByLayer
 10
-474.1283555449517735
 20
-173.6723008774922619
 30
0.0
 11
-458.1283555449517735
 21
-173.6723008774922903
 31
0.0
  0
LINE
  5
306
100
AcDbEntity
100
AcDbLine
  8
archive, drw, brush, large
 62
256
370
-1
  6
ByLayer
 10
-474.1283555449517735
 20
-173.6723008774922619
 30
0.0
 11
-473.1283555449517735
 21
-175.1423008774922607
 31
0.0
  0
LINE
  5
307
100
AcDbEntity
100
AcDbLine
  8
archive, drw, brush, large
 62
256
370
-1
  6
ByLayer
 10
-458.1283555449517735
 20
-173.6723008774922903
 30
0.0
 11
-459.1283555449518872
 21
-175.1423008774922891
 31
0.0
  0
LINE
  5
308
100
AcDbEntity
100
AcDbLine
  8
archive, drw, brush, large
 62
256
370
-1
  6
ByLayer
 10
-473.1283555449517735
 20
-175.1423008774922607
 30
0.0
 11
-459.1283555449518872
 21
-175.1423008774922891
 31
0.0
  0
LINE
  5
309
100
AcDbEntity
100
AcDbLine
  8
archive, drw, brush, large
 62
256
370
-1
  6
ByLayer
 10
-466.1283555449517735
 20
-162.6423008774922607
 30
0.0
 11
-466.1283555449518303
 21
-175.1423008774922891
 31
0.0
  0
LINE
  5
30A
100
AcDbEntity
100
AcDbLine
  8
archive, drw, brush, large
 62
256
370
-1
  6
ByLayer
 10
-458.1283555449517735
 20
-173.6723008774922903
 30
0.0
 11
-466.1283555449517735
 21
-162.6423008774922607
 31
0.0
  0
LINE
  5
30B
100
AcDbEntity
100
AcDbLine
  8
archive, drw, brush, large
 62
256
370
-1
  6
ByLayer
 10
-466.1283555449517735
 20
-162.6423008774922607
 30
0.0
 11
-474.1283555449517735
 21
-173.6723008774922619
 31
0.0
  0
LINE
  5
30C
100
AcDbEntity
100
AcDbLine
  8
archive, drw, brush, large
 62
256
370
-1
  6
ByLayer
 10
-461.7765876392401196
 20
-168.6423008774922891
 30
0.0
 11
-470.480123450663541
 21
-168.6423008774923176
 31
0.0
  0
CIRCLE
  5
30D
100
AcDbEntity
100
AcDbCircle
  8
archive, drw, brush, large
 62
256
370
-1
  6
ByLayer
 10
-466.1283555449518303
 20
-195.1423008774922891
 30
0.0
 40
1.55
  0
LINE
  5
30E
100
AcDbEntity
100
AcDbLine
  8
archive, drw, brush, large
 62
256
370
-1
  6
ByLayer
 10
-464.5783555449518758
 20
-175.1423008774923176
 30
0.0
 11
-464.578355544951819
 21
-125.1423008774922891
 31
0.0
  0
LINE
  5
30F
100
AcDbEntity
100
AcDbLine
  8
archive, drw, brush, large
 62
256
370
-1
  6
ByLayer
 10
-467.6783555449518417
 20
-175.1423008774922891
 30
0.0
 11
-467.6783555449518417
 21
-125.1423008774922891
 31
0.0
  0
LINE
  5
310
100
AcDbEntity
100
AcDbLine
  8
archive, drw, brush, large
 62
256
370
-1
  6
ByLayer
 10
-464.578355544951819
 20
-125.1423008774922891
 30
0.0
 11
-467.6783555449518417
 21
-125.1423008774922891
 31
0.0
  0
CIRCLE
  5
311
100
AcDbEntity
100
AcDbCircle
  8
archive, drw, brush, large
 62
256
370
-1
  6
ByLayer
 10
-436.1283555449518303
 20
-195.1423008774922891
 30
0.0
 40
8.0
  0
LINE
  5
312
100
AcDbEntity
100
AcDbLine
  8
archive, drw, brush, large
 62
256
370
-1
  6
ByLayer
 10
-437.6824192739749151
 20
-195.2782638361786098
 30
0.0
 11
-444.0979131296858213
 21
-195.8395468194735543
 31
0.0
  0
LINE
  5
313
100
AcDbEntity
100
AcDbLine
  8
archive, drw, brush, large
 62
256
370
-1
  6
ByLayer
 10
-437.6883555449518326
 20
-195.1423008774922891
 30
0.0
 11
-444.1283555449518303
 21
-195.1423008774922607
 31
0.0
  0
LINE
  5
314
100
AcDbEntity
100
AcDbLine
  8
archive, drw, brush, large
 62
256
370
-1
  6
ByLayer
 10
-437.6824192739749151
 20
-195.00633791880594
 30
0.0
 11
-444.0979131296858213
 21
-194.4450549355109672
 31
0.0
  0
LINE
  5
315
100
AcDbEntity
100
AcDbLine
  8
archive, drw, brush, large
 62
256
370
-1
  6
ByLayer
 10
-437.6646556396508458
 20
-194.8714097203318545
 30
0.0
 11
-444.0068175690494741
 21
-193.7531154561568485
 31
0.0
  0
LINE
  5
316
100
AcDbEntity
100
AcDbLine
  8
archive, drw, brush, large
 62
256
370
-1
  6
ByLayer
 10
-437.5942760333778665
 20
-194.6087494539042666
 30
0.0
 11
-443.6458965112390729
 21
-192.4061397308869061
 31
0.0
  0
LINE
  5
317
100
AcDbEntity
100
AcDbLine
  8
archive, drw, brush, large
 62
256
370
-1
  6
ByLayer
 10
-437.6351998339628153
 20
-194.7385431671323488
 30
0.0
 11
-443.855762155264415
 21
-193.0717485166721019
 31
0.0
  0
LINE
  5
318
100
AcDbEntity
100
AcDbLine
  8
archive, drw, brush, large
 62
256
370
-1
  6
ByLayer
 10
-437.5421956927290239
 20
-194.4830163891768109
 30
0.0
 11
-443.378817841245052
 21
-191.7613547835667021
 31
0.0
  0
LINE
  5
319
100
AcDbEntity
100
AcDbLine
  8
archive, drw, brush, large
 62
256
370
-1
  6
ByLayer
 10
-437.4793551748555842
 20
-194.362300877492288
 30
0.0
 11
-443.0565587752273018
 21
-191.1423008774922607
 31
0.0
  0
LINE
  5
31A
100
AcDbEntity
100
AcDbLine
  8
archive, drw, brush, large
 62
256
370
-1
  6
ByLayer
 10
-435.3483555449518008
 20
-193.7913012475885637
 30
0.0
 11
-432.1283555449518872
 21
-188.2140976472167608
 31
0.0
  0
LINE
  5
31B
100
AcDbEntity
100
AcDbLine
  8
archive, drw, brush, large
 62
256
370
-1
  6
ByLayer
 10
-435.7245978345918047
 20
-193.6354565884813326
 30
0.0
 11
-434.0578031841316715
 21
-187.4148942671797329
 31
0.0
  0
LINE
  5
31C
100
AcDbEntity
100
AcDbLine
  8
archive, drw, brush, large
 62
256
370
-1
  6
ByLayer
 10
-435.5948041213637794
 20
-193.6763803890662814
 30
0.0
 11
-433.3921943983464189
 21
-187.6247599112049897
 31
0.0
  0
LINE
  5
31D
100
AcDbEntity
100
AcDbLine
  8
archive, drw, brush, large
 62
256
370
-1
  6
ByLayer
 10
-435.4690710566362668
 20
-193.7284607297150956
 30
0.0
 11
-432.7474094510262148
 21
-187.8918385811990959
 31
0.0
  0
LINE
  5
31E
100
AcDbEntity
100
AcDbLine
  8
archive, drw, brush, large
 62
256
370
-1
  6
ByLayer
 10
-435.9923925862654528
 20
-193.588237148469176
 30
0.0
 11
-435.4311096029705368
 21
-187.1727432927582981
 31
0.0
  0
LINE
  5
31F
100
AcDbEntity
100
AcDbLine
  8
archive, drw, brush, large
 62
256
370
-1
  6
ByLayer
 10
-436.1283555449518303
 20
-193.5823008774922585
 30
0.0
 11
-436.1283555449517735
 21
-187.1423008774922607
 31
0.0
  0
LINE
  5
320
100
AcDbEntity
100
AcDbLine
  8
archive, drw, brush, large
 62
256
370
-1
  6
ByLayer
 10
-436.3992467021122366
 20
-193.6060007827932452
 30
0.0
 11
-437.5175409662872426
 21
-187.2638388533945886
 31
0.0
  0
LINE
  5
321
100
AcDbEntity
100
AcDbLine
  8
archive, drw, brush, large
 62
256
370
-1
  6
ByLayer
 10
-436.5321132553117423
 20
-193.6354565884813042
 30
0.0
 11
-438.1989079057719323
 21
-187.4148942671797045
 31
0.0
  0
LINE
  5
322
100
AcDbEntity
100
AcDbLine
  8
archive, drw, brush, large
 62
256
370
-1
  6
ByLayer
 10
-436.264318503638151
 20
-193.588237148469176
 30
0.0
 11
-436.8256014869331239
 21
-187.1727432927583266
 31
0.0
  0
LINE
  5
323
100
AcDbEntity
100
AcDbLine
  8
archive, drw, brush, large
 62
256
370
-1
  6
ByLayer
 10
-435.8574643877914241
 20
-193.6060007827932452
 30
0.0
 11
-434.7391701236163613
 21
-187.263838853394617
 31
0.0
  0
LINE
  5
324
100
AcDbEntity
100
AcDbLine
  8
archive, drw, brush, large
 62
256
370
-1
  6
ByLayer
 10
-436.9083555449518599
 20
-193.7913012475885637
 30
0.0
 11
-440.1283555449517735
 21
-188.2140976472167608
 31
0.0
  0
LINE
  5
325
100
AcDbEntity
100
AcDbLine
  8
archive, drw, brush, large
 62
256
370
-1
  6
ByLayer
 10
-436.6619069685398244
 20
-193.6763803890662814
 30
0.0
 11
-438.8645166915572418
 21
-187.6247599112050182
 31
0.0
  0
LINE
  5
326
100
AcDbEntity
100
AcDbLine
  8
archive, drw, brush, large
 62
256
370
-1
  6
ByLayer
 10
-437.3233848762174034
 20
-194.1395522063812962
 30
0.0
 11
-442.2567110899036606
 21
-189.9999999999999432
 31
0.0
  0
LINE
  5
327
100
AcDbEntity
100
AcDbLine
  8
archive, drw, brush, large
 62
256
370
-1
  6
ByLayer
 10
-437.4062327340426464
 20
-194.2475216367846258
 30
0.0
 11
-442.6815718992637585
 21
-190.5536893866838852
 31
0.0
  0
LINE
  5
328
100
AcDbEntity
100
AcDbLine
  8
archive, drw, brush, large
 62
256
370
-1
  6
ByLayer
 10
-437.2314421236027897
 20
-194.0392142988412445
 30
0.0
 11
-441.7852097944441425
 21
-189.4854466279998917
 31
0.0
  0
LINE
  5
329
100
AcDbEntity
100
AcDbLine
  8
archive, drw, brush, large
 62
256
370
-1
  6
ByLayer
 10
-437.0231347856594084
 20
-193.8644236884014447
 30
0.0
 11
-440.7169670357602058
 21
-188.5890845231803326
 31
0.0
  0
LINE
  5
32A
100
AcDbEntity
100
AcDbLine
  8
archive, drw, brush, large
 62
256
370
-1
  6
ByLayer
 10
-437.1311042160627949
 20
-193.9472715462266592
 30
0.0
 11
-441.2706564224441763
 21
-189.0139453325404588
 31
0.0
  0
LINE
  5
32B
100
AcDbEntity
100
AcDbLine
  8
archive, drw, brush, large
 62
256
370
-1
  6
ByLayer
 10
-436.7876400332672802
 20
-193.7284607297150956
 30
0.0
 11
-439.5093016388774458
 21
-187.8918385811990959
 31
0.0
  0
LINE
  5
32C
100
AcDbEntity
100
AcDbLine
  8
archive, drw, brush, large
 62
256
370
-1
  6
ByLayer
 10
-435.0252689663007573
 20
-194.0392142988412445
 30
0.0
 11
-430.4715012954594613
 21
-189.4854466279999201
 31
0.0
  0
LINE
  5
32D
100
AcDbEntity
100
AcDbLine
  8
archive, drw, brush, large
 62
256
370
-1
  6
ByLayer
 10
-435.2335763042441386
 20
-193.8644236884014447
 30
0.0
 11
-431.539744054143398
 21
-188.5890845231803326
 31
0.0
  0
LINE
  5
32E
100
AcDbEntity
100
AcDbLine
  8
archive, drw, brush, large
 62
256
370
-1
  6
ByLayer
 10
-435.1256068738408658
 20
-193.9472715462266876
 30
0.0
 11
-430.9860546674594843
 21
-189.0139453325404588
 31
0.0
  0
LINE
  5
32F
100
AcDbEntity
100
AcDbLine
  8
archive, drw, brush, large
 62
256
370
-1
  6
ByLayer
 10
-434.8504783558609574
 20
-194.2475216367846258
 30
0.0
 11
-429.5751391906398453
 21
-190.5536893866839137
 31
0.0
  0
LINE
  5
330
100
AcDbEntity
100
AcDbLine
  8
archive, drw, brush, large
 62
256
370
-1
  6
ByLayer
 10
-434.9333262136862004
 20
-194.1395522063812962
 30
0.0
 11
-429.9999999999999432
 21
-189.9999999999999432
 31
0.0
  0
LINE
  5
331
100
AcDbEntity
100
AcDbLine
  8
archive, drw, brush, large
 62
256
370
-1
  6
ByLayer
 10
-434.7773559150480764
 20
-194.3623008774922596
 30
0.0
 11
-429.200152314676302
 21
-191.1423008774922891
 31
0.0
  0
LINE
  5
332
100
AcDbEntity
100
AcDbLine
  8
archive, drw, brush, large
 62
256
370
-1
  6
ByLayer
 10
-434.7145153971746367
 20
-194.4830163891768109
 30
0.0
 11
-428.8778932486585518
 21
-191.7613547835667021
 31
0.0
  0
LINE
  5
333
100
AcDbEntity
100
AcDbLine
  8
archive, drw, brush, large
 62
256
370
-1
  6
ByLayer
 10
-434.662435056525851
 20
-194.6087494539042382
 30
0.0
 11
-428.6108145786645309
 21
-192.4061397308869346
 31
0.0
  0
LINE
  5
334
100
AcDbEntity
100
AcDbLine
  8
archive, drw, brush, large
 62
256
370
-1
  6
ByLayer
 10
-434.6215112559408453
 20
-194.7385431671323488
 30
0.0
 11
-428.4009489346392456
 21
-193.0717485166721019
 31
0.0
  0
LINE
  5
335
100
AcDbEntity
100
AcDbLine
  8
archive, drw, brush, large
 62
256
370
-1
  6
ByLayer
 10
-434.5920554502527011
 20
-194.8714097203318545
 30
0.0
 11
-428.2498935208541297
 21
-193.7531154561568485
 31
0.0
  0
LINE
  5
336
100
AcDbEntity
100
AcDbLine
  8
archive, drw, brush, large
 62
256
370
-1
  6
ByLayer
 10
-434.5742918159287456
 20
-195.00633791880594
 30
0.0
 11
-428.1587979602178393
 21
-194.445054935511024
 31
0.0
  0
LINE
  5
337
100
AcDbEntity
100
AcDbLine
  8
archive, drw, brush, large
 62
256
370
-1
  6
ByLayer
 10
-434.5683555449518281
 20
-195.1423008774922891
 30
0.0
 11
-428.1283555449518872
 21
-195.1423008774922891
 31
0.0
  0
LINE
  5
338
100
AcDbEntity
100
AcDbLine
  8
archive, drw, brush, large
 62
256
370
-1
  6
ByLayer
 10
-434.5742918159286887
 20
-195.2782638361786098
 30
0.0
 11
-428.1587979602178393
 21
-195.8395468194735827
 31
0.0
  0
LINE
  5
339
100
AcDbEntity
100
AcDbLine
  8
archive, drw, brush, large
 62
256
370
-1
  6
ByLayer
 10
-437.4793551748555842
 20
-195.9223008774922903
 30
0.0
 11
-443.0565587752273586
 21
-199.1423008774922891
 31
0.0
  0
LINE
  5
33A
100
AcDbEntity
100
AcDbLine
  8
archive, drw, brush, large
 62
256
370
-1
  6
ByLayer
 10
-437.5421956927290239
 20
-195.8015853658077674
 30
0.0
 11
-443.3788178412449952
 21
-198.5232469714178762
 31
0.0
  0
LINE
  5
33B
100
AcDbEntity
100
AcDbLine
  8
archive, drw, brush, large
 62
256
370
-1
  6
ByLayer
 10
-437.5942760333778097
 20
-195.6758523010803117
 30
0.0
 11
-443.6458965112391297
 21
-197.8784620240976722
 31
0.0
  0
LINE
  5
33C
100
AcDbEntity
100
AcDbLine
  8
archive, drw, brush, large
 62
256
370
-1
  6
ByLayer
 10
-437.6351998339627016
 20
-195.5460585878522011
 30
0.0
 11
-443.8557621552643582
 21
-197.2128532383124195
 31
0.0
  0
LINE
  5
33D
100
AcDbEntity
100
AcDbLine
  8
archive, drw, brush, large
 62
256
370
-1
  6
ByLayer
 10
-437.6646556396509027
 20
-195.4131920346527238
 30
0.0
 11
-444.0068175690495309
 21
-196.5314862988277298
 31
0.0
  0
LINE
  5
33E
100
AcDbEntity
100
AcDbLine
  8
archive, drw, brush, large
 62
256
370
-1
  6
ByLayer
 10
-437.4062327340426464
 20
-196.0370801181998957
 30
0.0
 11
-442.6815718992638153
 21
-199.7309123683006646
 31
0.0
  0
LINE
  5
33F
100
AcDbEntity
100
AcDbLine
  8
archive, drw, brush, large
 62
256
370
-1
  6
ByLayer
 10
-437.3233848762174603
 20
-196.1450495486032821
 30
0.0
 11
-442.2567110899036606
 21
-200.2846017549846067
 31
0.0
  0
LINE
  5
340
100
AcDbEntity
100
AcDbLine
  8
archive, drw, brush, large
 62
256
370
-1
  6
ByLayer
 10
-437.1311042160628517
 20
-196.3373302087578907
 30
0.0
 11
-441.2706564224441763
 21
-201.2706564224441195
 31
0.0
  0
LINE
  5
341
100
AcDbEntity
100
AcDbLine
  8
archive, drw, brush, large
 62
256
370
-1
  6
ByLayer
 10
-437.2314421236028466
 20
-196.2453874561433054
 30
0.0
 11
-441.7852097944441994
 21
-200.7991551269846582
 31
0.0
  0
LINE
  5
342
100
AcDbEntity
100
AcDbLine
  8
archive, drw, brush, large
 62
256
370
-1
  6
ByLayer
 10
-437.0231347856595221
 20
-196.4201780665831336
 30
0.0
 11
-440.7169670357602058
 21
-201.6955172318041889
 31
0.0
  0
LINE
  5
343
100
AcDbEntity
100
AcDbLine
  8
archive, drw, brush, large
 62
256
370
-1
  6
ByLayer
 10
-436.9083555449518599
 20
-196.4933005073960146
 30
0.0
 11
-440.1283555449517735
 21
-202.070504107767789
 31
0.0
  0
LINE
  5
344
100
AcDbEntity
100
AcDbLine
  8
archive, drw, brush, large
 62
256
370
-1
  6
ByLayer
 10
-436.787640033267337
 20
-196.5561410252694543
 30
0.0
 11
-439.509301638877389
 21
-202.392763173785454
 31
0.0
  0
LINE
  5
345
100
AcDbEntity
100
AcDbLine
  8
archive, drw, brush, large
 62
256
370
-1
  6
ByLayer
 10
-436.6619069685398244
 20
-196.6082213659182969
 30
0.0
 11
-438.8645166915572418
 21
-202.6598418437795601
 31
0.0
  0
LINE
  5
346
100
AcDbEntity
100
AcDbLine
  8
archive, drw, brush, large
 62
256
370
-1
  6
ByLayer
 10
-436.5321132553117423
 20
-196.6491451665032457
 30
0.0
 11
-438.1989079057719891
 21
-202.8697074878048454
 31
0.0
  0
LINE
  5
347
100
AcDbEntity
100
AcDbLine
  8
archive, drw, brush, large
 62
256
370
-1
  6
ByLayer
 10
-436.3992467021121797
 20
-196.6786009721913047
 30
0.0
 11
-437.5175409662872426
 21
-203.0207629015899613
 31
0.0
  0
LINE
  5
348
100
AcDbEntity
100
AcDbLine
  8
archive, drw, brush, large
 62
256
370
-1
  6
ByLayer
 10
-436.264318503638151
 20
-196.6963646065154023
 30
0.0
 11
-436.8256014869331239
 21
-203.1118584622262802
 31
0.0
  0
LINE
  5
349
100
AcDbEntity
100
AcDbLine
  8
archive, drw, brush, large
 62
256
370
-1
  6
ByLayer
 10
-436.1283555449518303
 20
-196.702300877492263
 30
0.0
 11
-436.1283555449517735
 21
-203.1423008774922607
 31
0.0
  0
LINE
  5
34A
100
AcDbEntity
100
AcDbLine
  8
archive, drw, brush, large
 62
256
370
-1
  6
ByLayer
 10
-435.9923925862654528
 20
-196.6963646065154023
 30
0.0
 11
-435.4311096029705936
 21
-203.1118584622262517
 31
0.0
  0
LINE
  5
34B
100
AcDbEntity
100
AcDbLine
  8
archive, drw, brush, large
 62
256
370
-1
  6
ByLayer
 10
-435.7245978345919184
 20
-196.6491451665032457
 30
0.0
 11
-434.0578031841316715
 21
-202.8697074878048454
 31
0.0
  0
LINE
  5
34C
100
AcDbEntity
100
AcDbLine
  8
archive, drw, brush, large
 62
256
370
-1
  6
ByLayer
 10
-435.8574643877914241
 20
-196.6786009721913331
 30
0.0
 11
-434.7391701236164181
 21
-203.0207629015899613
 31
0.0
  0
LINE
  5
34D
100
AcDbEntity
100
AcDbLine
  8
archive, drw, brush, large
 62
256
370
-1
  6
ByLayer
 10
-435.5948041213638362
 20
-196.6082213659182969
 30
0.0
 11
-433.3921943983464189
 21
-202.6598418437795317
 31
0.0
  0
LINE
  5
34E
100
AcDbEntity
100
AcDbLine
  8
archive, drw, brush, large
 62
256
370
-1
  6
ByLayer
 10
-435.3483555449518576
 20
-196.4933005073960146
 30
0.0
 11
-432.1283555449518303
 21
-202.0705041077678175
 31
0.0
  0
LINE
  5
34F
100
AcDbEntity
100
AcDbLine
  8
archive, drw, brush, large
 62
256
370
-1
  6
ByLayer
 10
-435.4690710566363805
 20
-196.5561410252694543
 30
0.0
 11
-432.7474094510262148
 21
-202.392763173785454
 31
0.0
  0
LINE
  5
350
100
AcDbEntity
100
AcDbLine
  8
archive, drw, brush, large
 62
256
370
-1
  6
ByLayer
 10
-435.1256068738408089
 20
-196.3373302087578907
 30
0.0
 11
-430.9860546674595412
 21
-201.2706564224441195
 31
0.0
  0
LINE
  5
351
100
AcDbEntity
100
AcDbLine
  8
archive, drw, brush, large
 62
256
370
-1
  6
ByLayer
 10
-435.2335763042441386
 20
-196.4201780665830768
 30
0.0
 11
-431.5397440541435117
 21
-201.6955172318042457
 31
0.0
  0
LINE
  5
352
100
AcDbEntity
100
AcDbLine
  8
archive, drw, brush, large
 62
256
370
-1
  6
ByLayer
 10
-435.0252689663008141
 20
-196.2453874561433054
 30
0.0
 11
-430.4715012954594613
 21
-200.7991551269846582
 31
0.0
  0
LINE
  5
353
100
AcDbEntity
100
AcDbLine
  8
archive, drw, brush, large
 62
256
370
-1
  6
ByLayer
 10
-434.9333262136862004
 20
-196.1450495486032821
 30
0.0
 11
-430.0
 21
-200.2846017549846067
 31
0.0
  0
LINE
  5
354
100
AcDbEntity
100
AcDbLine
  8
archive, drw, brush, large
 62
256
370
-1
  6
ByLayer
 10
-434.8504783558610143
 20
-196.0370801181999241
 30
0.0
 11
-429.5751391906399022
 21
-199.7309123683006362
 31
0.0
  0
LINE
  5
355
100
AcDbEntity
100
AcDbLine
  8
archive, drw, brush, large
 62
256
370
-1
  6
ByLayer
 10
-434.7773559150480764
 20
-195.9223008774922619
 30
0.0
 11
-429.200152314676302
 21
-199.1423008774922607
 31
0.0
  0
LINE
  5
356
100
AcDbEntity
100
AcDbLine
  8
archive, drw, brush, large
 62
256
370
-1
  6
ByLayer
 10
-434.7145153971746367
 20
-195.8015853658077674
 30
0.0
 11
-428.8778932486586086
 21
-198.5232469714178762
 31
0.0
  0
LINE
  5
357
100
AcDbEntity
100
AcDbLine
  8
archive, drw, brush, large
 62
256
370
-1
  6
ByLayer
 10
-434.6624350565257942
 20
-195.6758523010803401
 30
0.0
 11
-428.6108145786645309
 21
-197.8784620240976153
 31
0.0
  0
LINE
  5
358
100
AcDbEntity
100
AcDbLine
  8
archive, drw, brush, large
 62
256
370
-1
  6
ByLayer
 10
-434.6215112559408453
 20
-195.5460585878522011
 30
0.0
 11
-428.4009489346392456
 21
-197.2128532383124764
 31
0.0
  0
LINE
  5
359
100
AcDbEntity
100
AcDbLine
  8
archive, drw, brush, large
 62
256
370
-1
  6
ByLayer
 10
-434.592055450252758
 20
-195.4131920346526954
 30
0.0
 11
-428.2498935208541866
 21
-196.5314862988277298
 31
0.0
  0
LINE
  5
35A
100
AcDbEntity
100
AcDbLine
  8
archive, drw, brush, large
 62
256
370
-1
  6
ByLayer
 10
-444.1283555449517735
 20
-173.6723008774922619
 30
0.0
 11
-428.1283555449517735
 21
-173.6723008774922903
 31
0.0
  0
LINE
  5
35B
100
AcDbEntity
100
AcDbLine
  8
archive, drw, brush, large
 62
256
370
-1
  6
ByLayer
 10
-444.1283555449517735
 20
-173.6723008774922619
 30
0.0
 11
-443.1283555449517735
 21
-175.1423008774922607
 31
0.0
  0
LINE
  5
35C
100
AcDbEntity
100
AcDbLine
  8
archive, drw, brush, large
 62
256
370
-1
  6
ByLayer
 10
-428.1283555449517735
 20
-173.6723008774922903
 30
0.0
 11
-429.1283555449518872
 21
-175.1423008774922891
 31
0.0
  0
LINE
  5
35D
100
AcDbEntity
100
AcDbLine
  8
archive, drw, brush, large
 62
256
370
-1
  6
ByLayer
 10
-443.1283555449517735
 20
-175.1423008774922607
 30
0.0
 11
-429.1283555449518872
 21
-175.1423008774922891
 31
0.0
  0
LINE
  5
35E
100
AcDbEntity
100
AcDbLine
  8
archive, drw, brush, large
 62
256
370
-1
  6
ByLayer
 10
-436.1283555449517735
 20
-162.6423008774922607
 30
0.0
 11
-436.1283555449518303
 21
-175.1423008774922891
 31
0.0
  0
LINE
  5
35F
100
AcDbEntity
100
AcDbLine
  8
archive, drw, brush, large
 62
256
370
-1
  6
ByLayer
 10
-428.1283555449517735
 20
-173.6723008774922903
 30
0.0
 11
-436.1283555449517735
 21
-162.6423008774922607
 31
0.0
  0
LINE
  5
360
100
AcDbEntity
100
AcDbLine
  8
archive, drw, brush, large
 62
256
370
-1
  6
ByLayer
 10
-436.1283555449517735
 20
-162.6423008774922607
 30
0.0
 11
-444.1283555449517735
 21
-173.6723008774922619
 31
0.0
  0
LINE
  5
361
100
AcDbEntity
100
AcDbLine
  8
archive, drw, brush, large
 62
256
370
-1
  6
ByLayer
 10
-431.7765876392401196
 20
-168.6423008774922891
 30
0.0
 11
-440.480123450663541
 21
-168.6423008774923176
 31
0.0
  0
CIRCLE
  5
362
100
AcDbEntity
100
AcDbCircle
  8
archive, drw, brush, large
 62
256
370
-1
  6
ByLayer
 10
-436.1283555449518303
 20
-195.1423008774922891
 30
0.0
 40
1.55
  0
LINE
  5
363
100
AcDbEntity
100
AcDbLine
  8
archive, drw, brush, large
 62
256
370
-1
  6
ByLayer
 10
-434.5783555449518758
 20
-175.1423008774923176
 30
0.0
 11
-434.578355544951819
 21
-125.1423008774922891
 31
0.0
  0
LINE
  5
364
100
AcDbEntity
100
AcDbLine
  8
archive, drw, brush, large
 62
256
370
-1
  6
ByLayer
 10
-437.6783555449518417
 20
-175.1423008774922891
 30
0.0
 11
-437.6783555449518417
 21
-125.1423008774922891
 31
0.0
  0
LINE
  5
365
100
AcDbEntity
100
AcDbLine
  8
archive, drw, brush, large
 62
256
370
-1
  6
ByLayer
 10
-434.578355544951819
 20
-125.1423008774922891
 30
0.0
 11
-437.6783555449518417
 21
-125.1423008774922891
 31
0.0
  0
LINE
  5
366
100
AcDbEntity
100
AcDbLine
  8
drw, HBP
 62
256
370
-1
  6
ByLayer
 10
-50.0
 20
-45.961899999999865
 30
0.0
 11
-50.0
 21
54.0381000000001279
 31
0.0
  0
LINE
  5
367
100
AcDbEntity
100
AcDbLine
  8
drw, HBP
 62
256
370
-1
  6
ByLayer
 10
50.0000000000000284
 20
54.0381000000000995
 30
0.0
 11
50.0
 21
-45.9618999999998863
 31
0.0
  0
LINE
  5
368
100
AcDbEntity
100
AcDbLine
  8
drw, HBP
 62
256
370
-1
  6
ByLayer
 10
50.0
 20
-45.9618999999998863
 30
0.0
 11
-50.0
 21
-45.961899999999865
 31
0.0
  0
CIRCLE
  5
369
100
AcDbEntity
100
AcDbCircle
  8
drw, HBP
 62
256
370
-1
  6
ByLayer
 10
45.9618999999998437
 20
-41.9238000000000994
 30
0.0
 40
1.5
  0
CIRCLE
  5
36A
100
AcDbEntity
100
AcDbCircle
  8
drw, HBP
 62
256
370
-1
  6
ByLayer
 10
45.9618999999999573
 20
4.0380999999999858
 30
0.0
 40
1.5
  0
CIRCLE
  5
36B
100
AcDbEntity
100
AcDbCircle
  8
drw, HBP
 62
256
370
-1
  6
ByLayer
 10
45.9619000000000426
 20
49.9999999999999716
 30
0.0
 40
1.5
  0
CIRCLE
  5
36C
100
AcDbEntity
100
AcDbCircle
  8
drw, HBP
 62
256
370
-1
  6
ByLayer
 10
-45.9619000000000426
 20
-41.9237999999998792
 30
0.0
 40
1.5
  0
CIRCLE
  5
36D
100
AcDbEntity
100
AcDbCircle
  8
drw, HBP
 62
256
370
-1
  6
ByLayer
 10
-45.9619000000000142
 20
4.0381000000000711
 30
0.0
 40
1.5
  0
CIRCLE
  5
36E
100
AcDbEntity
100
AcDbCircle
  8
drw, HBP
 62
256
370
-1
  6
ByLayer
 10
-45.9619000000000142
 20
50.0000000000001421
 30
0.0
 40
1.5
  0
LINE
  5
36F
100
AcDbEntity
100
AcDbLine
  8
drw, HBP
 62
256
370
-1
  6
ByLayer
 10
-50.0
 20
54.0381000000001279
 30
0.0
 11
50.0000000000000284
 21
54.0381000000000995
 31
0.0
  0
MTEXT
  5
370
100
AcDbEntity
100
AcDbMText
  8
drw, HBP
 62
256
370
-1
  6
ByLayer
 10
-12.9779087719102506
 20
-10.4308815203432914
 30
0.0
 40
15.0
 41
100.0
 71
1
 72
2
  1
HBP
  7
standard
 50
90.0
 73
0
 44
1.0
  0
LINE
  5
371
100
AcDbEntity
100
AcDbLine
  8
1 bottom
 62
256
370
-1
  6
ByLayer
 10
-31.9999999999999147
 20
60.0000000000000568
 30
0.0
 11
31.9999999999999929
 21
60.0000000000000142
 31
0.0
  0
LINE
  5
372
100
AcDbEntity
100
AcDbLine
  8
2 top
 62
256
370
-1
  6
ByLayer
 10
50.0
 20
-45.9618999999998863
 30
0.0
 11
-50.0
 21
-45.9618999999997655
 31
0.0
  0
LINE
  5
373
100
AcDbEntity
100
AcDbLine
  8
2 top
 62
256
370
-1
  6
ByLayer
 10
50.0000000000000497
 20
60.0
 30
0.0
 11
50.0
 21
-45.9618999999998863
 31
0.0
  0
LINE
  5
374
100
AcDbEntity
100
AcDbLine
  8
1 bottom
 62
256
370
-1
  6
ByLayer
 10
31.9999999999999929
 20
60.0
 30
0.0
 11
31.9999999999999254
 21
-45.9618999999998792
 31
0.0
  0
LINE
  5
375
100
AcDbEntity
100
AcDbLine
  8
1 bottom
 62
256
370
-1
  6
ByLayer
 10
-31.9999999999999858
 20
-45.9618999999998721
 30
0.0
 11
-31.9999999999999183
 21
60.0000000000000568
 31
0.0
  0
LINE
  5
376
100
AcDbEntity
100
AcDbLine
  8
1 bottom
 62
256
370
-1
  6
ByLayer
 10
31.9999999999999289
 20
-45.9618999999998721
 30
0.0
 11
-31.9999999999999858
 21
-45.9618999999997868
 31
0.0
  0
LINE
  5
377
100
AcDbEntity
100
AcDbLine
  8
drw, random
 62
256
370
-1
  6
ByLayer
 10
-29.9999974048172646
 20
70.0000000000000142
 30
0.0
 11
-29.9999974048172646
 21
70.0000000000000142
 31
0.0
  0
LINE
  5
378
100
AcDbEntity
100
AcDbLine
  8
drw, random
 62
256
370
-1
  6
ByLayer
 10
0.0000025951827354
 20
70.0000000000000142
 30
0.0
 11
0.0000025951827354
 21
70.0000000000000142
 31
0.0
  0
CIRCLE
  5
379
100
AcDbEntity
100
AcDbCircle
  8
2 top
 62
256
370
-1
  6
ByLayer
 10
-28.5000000000000711
 20
56.5381000000001279
 30
0.0
 40
1.5600000000000307
  0
CIRCLE
  5
37A
100
AcDbEntity
100
AcDbCircle
  8
1 bottom
 62
256
370
-1
  6
ByLayer
 10
-28.5000000000000711
 20
56.5381000000001279
 30
0.0
 40
1.5600000000000307
  0
CIRCLE
  5
37B
100
AcDbEntity
100
AcDbCircle
  8
2 top
 62
256
370
-1
  6
ByLayer
 10
1.4999999999999289
 20
56.5381000000001279
 30
0.0
 40
1.5600000000000307
  0
CIRCLE
  5
37C
100
AcDbEntity
100
AcDbCircle
  8
1 bottom
 62
256
370
-1
  6
ByLayer
 10
1.4999999999999289
 20
56.5381000000001279
 30
0.0
 40
1.5600000000000307
  0
LINE
  5
37D
100
AcDbEntity
100
AcDbLine
  8
drw, brush, small
 62
256
370
-1
  6
ByLayer
 10
-26.9500000000000739
 20
118.9010375000003137
 30
0.0
 11
-30.0500000000000398
 21
118.9010375000003137
 31
0.0
  0
LINE
  5
37E
100
AcDbEntity
100
AcDbLine
  8
drw, brush, small
 62
256
370
-1
  6
ByLayer
 10
-28.5000000000000355
 20
89.0381000000002842
 30
0.0
 11
-30.8899999999999935
 21
85.7428875000003217
 31
0.0
  0
LINE
  5
37F
100
AcDbEntity
100
AcDbLine
  8
drw, brush, small
 62
256
370
-1
  6
ByLayer
 10
-26.1099999999999994
 20
85.7428875000002364
 30
0.0
 11
-28.5000000000000355
 21
89.0381000000002842
 31
0.0
  0
LINE
  5
380
100
AcDbEntity
100
AcDbLine
  8
drw, brush, small
 62
256
370
-1
  6
ByLayer
 10
-26.1099999999999994
 20
85.7428875000002364
 30
0.0
 11
-26.1099999999999994
 21
76.7428875000002364
 31
0.0
  0
LINE
  5
381
100
AcDbEntity
100
AcDbLine
  8
drw, brush, small
 62
256
370
-1
  6
ByLayer
 10
-26.1099999999999994
 20
76.7428875000002364
 30
0.0
 11
-30.8899999999999935
 21
76.7428875000002364
 31
0.0
  0
LINE
  5
382
100
AcDbEntity
100
AcDbLine
  8
drw, brush, small
 62
256
370
-1
  6
ByLayer
 10
-30.8899999999999935
 20
76.7428875000002364
 30
0.0
 11
-30.8899999999999935
 21
85.7428875000003359
 31
0.0
  0
LINE
  5
383
100
AcDbEntity
100
AcDbLine
  8
drw, brush, small
 62
256
370
-1
  6
ByLayer
 10
-31.0
 20
70.7428875000002364
 30
0.0
 11
-26.0
 21
70.7428875000002364
 31
0.0
  0
LINE
  5
384
100
AcDbEntity
100
AcDbLine
  8
drw, brush, small
 62
256
370
-1
  6
ByLayer
 10
-30.8000000000000043
 20
76.7428875000002364
 30
0.0
 11
-31.0
 21
70.7428875000002364
 31
0.0
  0
LINE
  5
385
100
AcDbEntity
100
AcDbLine
  8
drw, brush, small
 62
256
370
-1
  6
ByLayer
 10
-26.1999999999999957
 20
76.7428875000002364
 30
0.0
 11
-26.0
 21
70.7428875000002364
 31
0.0
  0
LINE
  5
386
100
AcDbEntity
100
AcDbLine
  8
drw, brush, small
 62
256
370
-1
  6
ByLayer
 10
-30.0500000000000469
 20
70.7428875000002364
 30
0.0
 11
-30.0500000000000398
 21
118.9010375000003137
 31
0.0
  0
LINE
  5
387
100
AcDbEntity
100
AcDbLine
  8
drw, brush, small
 62
256
370
-1
  6
ByLayer
 10
-26.9500000000001165
 20
70.7428875000002364
 30
0.0
 11
-26.9500000000000739
 21
118.9010375000003137
 31
0.0
  0
LINE
  5
388
100
AcDbEntity
100
AcDbLine
  8
drw, brush, small
 62
256
370
-1
  6
ByLayer
 10
-28.5000000000000355
 20
89.0381000000002842
 30
0.0
 11
-28.5000000000000711
 21
70.7428875000002364
 31
0.0
  0
CIRCLE
  5
389
100
AcDbEntity
100
AcDbCircle
  8
drw, brush, small
 62
256
370
-1
  6
ByLayer
 10
-28.5000000000000711
 20
56.5381000000001279
 30
0.0
 40
1.55
  0
CIRCLE
  5
38A
100
AcDbEntity
100
AcDbCircle
  8
drw, brush, small
 62
256
370
-1
  6
ByLayer
 10
-28.5
 20
56.5381000000001279
 30
0.0
 40
2.5
  0
LINE
  5
38B
100
AcDbEntity
100
AcDbLine
  8
drw, brush, small
 62
256
370
-1
  6
ByLayer
 10
3.0499999999998622
 20
118.9010375000003137
 30
0.0
 11
-0.0500000000001037
 21
118.9010375000003137
 31
0.0
  0
LINE
  5
38C
100
AcDbEntity
100
AcDbLine
  8
drw, brush, small
 62
256
370
-1
  6
ByLayer
 10
1.4999999999999005
 20
89.0381000000002842
 30
0.0
 11
-0.8900000000000574
 21
85.7428875000003217
 31
0.0
  0
LINE
  5
38D
100
AcDbEntity
100
AcDbLine
  8
drw, brush, small
 62
256
370
-1
  6
ByLayer
 10
3.8899999999999366
 20
85.7428875000002364
 30
0.0
 11
1.4999999999999005
 21
89.0381000000002842
 31
0.0
  0
LINE
  5
38E
100
AcDbEntity
100
AcDbLine
  8
drw, brush, small
 62
256
370
-1
  6
ByLayer
 10
3.8899999999999366
 20
85.7428875000002364
 30
0.0
 11
3.8899999999999366
 21
76.7428875000002364
 31
0.0
  0
LINE
  5
38F
100
AcDbEntity
100
AcDbLine
  8
drw, brush, small
 62
256
370
-1
  6
ByLayer
 10
3.8899999999999366
 20
76.7428875000002364
 30
0.0
 11
-0.8900000000000574
 21
76.7428875000002364
 31
0.0
  0
LINE
  5
390
100
AcDbEntity
100
AcDbLine
  8
drw, brush, small
 62
256
370
-1
  6
ByLayer
 10
-0.8900000000000574
 20
76.7428875000002364
 30
0.0
 11
-0.8900000000000574
 21
85.7428875000003359
 31
0.0
  0
LINE
  5
391
100
AcDbEntity
100
AcDbLine
  8
drw, brush, small
 62
256
370
-1
  6
ByLayer
 10
-1.0000000000000639
 20
70.7428875000002364
 30
0.0
 11
3.9999999999999289
 21
70.7428875000002364
 31
0.0
  0
LINE
  5
392
100
AcDbEntity
100
AcDbLine
  8
drw, brush, small
 62
256
370
-1
  6
ByLayer
 10
-0.8000000000000682
 20
76.7428875000002364
 30
0.0
 11
-1.0000000000000639
 21
70.7428875000002364
 31
0.0
  0
LINE
  5
393
100
AcDbEntity
100
AcDbLine
  8
drw, brush, small
 62
256
370
-1
  6
ByLayer
 10
3.7999999999999332
 20
76.7428875000002364
 30
0.0
 11
3.9999999999999289
 21
70.7428875000002364
 31
0.0
  0
LINE
  5
394
100
AcDbEntity
100
AcDbLine
  8
drw, brush, small
 62
256
370
-1
  6
ByLayer
 10
-0.0500000000001108
 20
70.7428875000002364
 30
0.0
 11
-0.0500000000001037
 21
118.9010375000003137
 31
0.0
  0
LINE
  5
395
100
AcDbEntity
100
AcDbLine
  8
drw, brush, small
 62
256
370
-1
  6
ByLayer
 10
3.0499999999998195
 20
70.7428875000002364
 30
0.0
 11
3.0499999999998622
 21
118.9010375000003137
 31
0.0
  0
LINE
  5
396
100
AcDbEntity
100
AcDbLine
  8
drw, brush, small
 62
256
370
-1
  6
ByLayer
 10
1.4999999999999005
 20
89.0381000000002842
 30
0.0
 11
1.499999999999865
 21
70.7428875000002364
 31
0.0
  0
CIRCLE
  5
397
100
AcDbEntity
100
AcDbCircle
  8
drw, brush, small
 62
256
370
-1
  6
ByLayer
 10
1.4999999999998508
 20
56.5381000000001279
 30
0.0
 40
1.55
  0
CIRCLE
  5
398
100
AcDbEntity
100
AcDbCircle
  8
drw, brush, small
 62
256
370
-1
  6
ByLayer
 10
1.4999999999999289
 20
56.5381000000001279
 30
0.0
 40
2.5
  0
LINE
  5
399
100
AcDbEntity
100
AcDbLine
  8
drw, random
 62
256
370
-1
  6
ByLayer
 10
-14.9999974048172433
 20
70.0
 30
0.0
 11
-14.9999974048172433
 21
70.0
 31
0.0
  0
CIRCLE
  5
39A
100
AcDbEntity
100
AcDbCircle
  8
2 top
 62
256
370
-1
  6
ByLayer
 10
-13.5000000000000568
 20
56.5381000000001137
 30
0.0
 40
1.5600000000000307
  0
CIRCLE
  5
39B
100
AcDbEntity
100
AcDbCircle
  8
1 bottom
 62
256
370
-1
  6
ByLayer
 10
-13.5000000000000568
 20
56.5381000000001137
 30
0.0
 40
1.5600000000000307
  0
LINE
  5
39C
100
AcDbEntity
100
AcDbLine
  8
drw, brush, small
 62
256
370
-1
  6
ByLayer
 10
-11.9500000000001165
 20
118.9010375000002995
 30
0.0
 11
-15.0500000000000824
 21
118.9010375000002995
 31
0.0
  0
LINE
  5
39D
100
AcDbEntity
100
AcDbLine
  8
drw, brush, small
 62
256
370
-1
  6
ByLayer
 10
-13.5000000000000782
 20
89.03810000000027
 30
0.0
 11
-15.8900000000000361
 21
85.7428875000003075
 31
0.0
  0
LINE
  5
39E
100
AcDbEntity
100
AcDbLine
  8
drw, brush, small
 62
256
370
-1
  6
ByLayer
 10
-11.1100000000000421
 20
85.7428875000002222
 30
0.0
 11
-13.5000000000000782
 21
89.03810000000027
 31
0.0
  0
LINE
  5
39F
100
AcDbEntity
100
AcDbLine
  8
drw, brush, small
 62
256
370
-1
  6
ByLayer
 10
-11.1100000000000421
 20
85.7428875000002222
 30
0.0
 11
-11.1100000000000421
 21
76.7428875000002222
 31
0.0
  0
LINE
  5
3A0
100
AcDbEntity
100
AcDbLine
  8
drw, brush, small
 62
256
370
-1
  6
ByLayer
 10
-11.1100000000000421
 20
76.7428875000002222
 30
0.0
 11
-15.8900000000000361
 21
76.7428875000002222
 31
0.0
  0
LINE
  5
3A1
100
AcDbEntity
100
AcDbLine
  8
drw, brush, small
 62
256
370
-1
  6
ByLayer
 10
-15.8900000000000361
 20
76.7428875000002222
 30
0.0
 11
-15.8900000000000361
 21
85.7428875000003217
 31
0.0
  0
LINE
  5
3A2
100
AcDbEntity
100
AcDbLine
  8
drw, brush, small
 62
256
370
-1
  6
ByLayer
 10
-16.0000000000000497
 20
70.7428875000002222
 30
0.0
 11
-11.0000000000000568
 21
70.7428875000002222
 31
0.0
  0
LINE
  5
3A3
100
AcDbEntity
100
AcDbLine
  8
drw, brush, small
 62
256
370
-1
  6
ByLayer
 10
-15.800000000000054
 20
76.7428875000002222
 30
0.0
 11
-16.0000000000000497
 21
70.7428875000002222
 31
0.0
  0
LINE
  5
3A4
100
AcDbEntity
100
AcDbLine
  8
drw, brush, small
 62
256
370
-1
  6
ByLayer
 10
-11.2000000000000526
 20
76.7428875000002222
 30
0.0
 11
-11.0000000000000568
 21
70.7428875000002222
 31
0.0
  0
LINE
  5
3A5
100
AcDbEntity
100
AcDbLine
  8
drw, brush, small
 62
256
370
-1
  6
ByLayer
 10
-15.0500000000000966
 20
70.7428875000002222
 30
0.0
 11
-15.0500000000000824
 21
118.9010375000002995
 31
0.0
  0
LINE
  5
3A6
100
AcDbEntity
100
AcDbLine
  8
drw, brush, small
 62
256
370
-1
  6
ByLayer
 10
-11.9500000000001663
 20
70.7428875000002222
 30
0.0
 11
-11.9500000000001165
 21
118.9010375000002995
 31
0.0
  0
LINE
  5
3A7
100
AcDbEntity
100
AcDbLine
  8
drw, brush, small
 62
256
370
-1
  6
ByLayer
 10
-13.5000000000000782
 20
89.03810000000027
 30
0.0
 11
-13.5000000000001208
 21
70.7428875000002222
 31
0.0
  0
CIRCLE
  5
3A8
100
AcDbEntity
100
AcDbCircle
  8
drw, brush, small
 62
256
370
-1
  6
ByLayer
 10
-13.500000000000135
 20
56.5381000000001137
 30
0.0
 40
1.55
  0
CIRCLE
  5
3A9
100
AcDbEntity
100
AcDbCircle
  8
drw, brush, small
 62
256
370
-1
  6
ByLayer
 10
-13.5000000000000568
 20
56.5381000000001137
 30
0.0
 40
2.5
  0
LINE
  5
3AA
100
AcDbEntity
100
AcDbLine
  8
2 top
 62
256
370
-1
  6
ByLayer
 10
-31.9999999999999183
 20
60.0000000000000711
 30
0.0
 11
50.0
 21
60.0
 31
0.0
  0
LINE
  5
3AB
100
AcDbEntity
100
AcDbLine
  8
2 top
 62
256
370
-1
  6
ByLayer
 10
-49.9999999999999574
 20
54.0381000000001279
 30
0.0
 11
-31.9999999999999183
 21
54.0381000000001208
 31
0.0
  0
LINE
  5
3AC
100
AcDbEntity
100
AcDbLine
  8
2 top
 62
256
370
-1
  6
ByLayer
 10
-31.9999999999999183
 20
54.0381000000001208
 30
0.0
 11
-31.9999999999999183
 21
60.0000000000000568
 31
0.0
  0
LINE
  5
3AD
100
AcDbEntity
100
AcDbLine
  8
2 top
 62
256
370
-1
  6
ByLayer
 10
-50.0
 20
-45.961899999999865
 30
0.0
 11
-50.0
 21
54.038100000000135
 31
0.0
  0
ENDSEC
  0
SECTION
  2
OBJECTS
  0
DICTIONARY
  5
C
100
AcDbDictionary
280
0
281
1
  3
ACAD_GROUP
350
D
  3
ACAD_LAYOUT
350
1A
  3
ACAD_MLINESTYLE
350
17
  3
ACAD_PLOTSETTINGS
350
19
  3
ACAD_PLOTSTYLENAME
350
E
  3
AcDbVariableDictionary
350
3AE
  0
DICTIONARY
  5
D
100
AcDbDictionary
280
0
281
1
  0
ACDBDICTIONARYWDFLT
  5
E
100
AcDbDictionary
281
1
  3
Normal
350
F
100
AcDbDictionaryWithDefault
340
F
  0
ACDBPLACEHOLDER
  5
F
  0
DICTIONARY
  5
17
100
AcDbDictionary
280
0
281
1
  3
Standard
350
18
  0
MLINESTYLE
  5
18
100
AcDbMlineStyle
  2
STANDARD
 70
0
  3

 62
256
 51
90.0
 52
90.0
 71
2
 49
0.5
 62
256
  6
BYLAYER
 49
-0.5
 62
256
  6
BYLAYER
  0
DICTIONARY
  5
19
100
AcDbDictionary
280
0
281
1
  0
DICTIONARY
  5
1A
100
AcDbDictionary
281
1
  3
Layout1
350
1E
  3
Layout2
350
26
  3
Model
350
22
  0
LAYOUT
  5
1E
100
AcDbPlotSettings
  1

  2
C:\Program Files\AutoCAD 2002\plotters\DWF ePlot (optimized for plotting).pc3
  4

  6

 40
0.0
 41
0.0
 42
0.0
 43
0.0
 44
0.0
 45
0.0
 46
0.0
 47
0.0
 48
0.0
 49
0.0
140
0.0
141
0.0
142
1.0
143
1.0
 70
688
 72
0
 73
0
 74
5
  7

 75
16
147
1.0
148
0.0
149
0.0
100
AcDbLayout
  1
Layout1
 70
1
 71
1
 10
0.0
 20
0.0
 11
420.0
 21
297.0
 12
0.0
 22
0.0
 32
0.0
 14
100000000000000000000.0
 24
100000000000000000000.0
 34
100000000000000000000.0
 15
-100000000000000000000.0
 25
-100000000000000000000.0
 35
-100000000000000000000.0
146
0.0
 13
0.0
 23
0.0
 33
0.0
 16
1.0
 26
0.0
 36
0.0
 17
0.0
 27
1.0
 37
0.0
 76
0
330
1B
  0
LAYOUT
  5
22
100
AcDbPlotSettings
  1

  2
C:\Program Files\AutoCAD 2002\plotters\DWF ePlot (optimized for plotting).pc3
  4

  6

 40
0.0
 41
0.0
 42
0.0
 43
0.0
 44
0.0
 45
0.0
 46
0.0
 47
0.0
 48
0.0
 49
0.0
140
0.0
141
0.0
142
1.0
143
1.0
 70
1712
 72
0
 73
0
 74
0
  7

 75
0
147
1.0
148
0.0
149
0.0
100
AcDbLayout
  1
Model
 70
1
 71
0
 10
0.0
 20
0.0
 11
12.0
 21
9.0
 12
0.0
 22
0.0
 32
0.0
 14
0.0
 24
0.0
 34
0.0
 15
0.0
 25
0.0
 35
0.0
146
0.0
 13
0.0
 23
0.0
 33
0.0
 16
1.0
 26
0.0
 36
0.0
 17
0.0
 27
1.0
 37
0.0
 76
0
330
1F
  0
LAYOUT
  5
26
100
AcDbPlotSettings
  1

  2
C:\Program Files\AutoCAD 2002\plotters\DWF ePlot (optimized for plotting).pc3
  4

  6

 40
0.0
 41
0.0
 42
0.0
 43
0.0
 44
0.0
 45
0.0
 46
0.0
 47
0.0
 48
0.0
 49
0.0
140
0.0
141
0.0
142
1.0
143
1.0
 70
688
 72
0
 73
0
 74
5
  7

 75
16
147
1.0
148
0.0
149
0.0
100
AcDbLayout
  1
Layout2
 70
1
 71
2
 10
0.0
 20
0.0
 11
12.0
 21
9.0
 12
0.0
 22
0.0
 32
0.0
 14
0.0
 24
0.0
 34
0.0
 15
0.0
 25
0.0
 35
0.0
146
0.0
 13
0.0
 23
0.0
 33
0.0
 16
1.0
 26
0.0
 36
0.0
 17
0.0
 27
1.0
 37
0.0
 76
0
330
23
  0
DICTIONARY
  5
3AE
100
AcDbDictionary
281
1
  3
DIMASSOC
350
3B0
  3
HIDETEXT
350
3AF
  0
DICTIONARYVAR
  5
3AF
100
DictionaryVariables
280
0
  1
2
  0
DICTIONARYVAR
  5
3B0
100
DictionaryVariables
280
0
  1
1
  0
ENDSEC
  0
EOF
