<?xml version="1.0" standalone="yes"?>

<svg width="317mm" height="388mm" viewBox="0 0 317 388" version="1.1"
xmlns="http://www.w3.org/2000/svg" style="stroke-linecap:round">
  <ellipse cx="41.0317" cy="64.5764" rx="2.75218" ry="2.75218" style="stroke:rgb(0,0,0);stroke-width:0.1;fill:none;"/>
  <ellipse cx="20.9158" cy="51.5661" rx="2.75218" ry="2.75218" style="stroke:rgb(0,0,0);stroke-width:0.1;fill:none;"/>
  <ellipse cx="61.1477" cy="51.5661" rx="2.75218" ry="2.75218" style="stroke:rgb(0,0,0);stroke-width:0.1;fill:none;"/>
  <path d="M47.8071,82.2204 L45.0649,82.2204" style="stroke:rgb(0,0,0);stroke-width:0.1;fill:none" />
  <path d="M47.8071,84.9626 L47.8071,82.2204" style="stroke:rgb(0,0,0);stroke-width:0.1;fill:none" />
  <path d="M45.0649,82.2204 L45.0649,84.9626" style="stroke:rgb(0,0,0);stroke-width:0.1;fill:none" />
  <path d="M45.0649,84.9626 L47.8071,84.9626" style="stroke:rgb(0,0,0);stroke-width:0.1;fill:none" />
  <path d="M36.9985,82.2204 L34.2564,82.2204" style="stroke:rgb(0,0,0);stroke-width:0.1;fill:none" />
  <path d="M36.9985,84.9626 L36.9985,82.2204" style="stroke:rgb(0,0,0);stroke-width:0.1;fill:none" />
  <path d="M34.2564,82.2204 L34.2564,84.9626" style="stroke:rgb(0,0,0);stroke-width:0.1;fill:none" />
  <path d="M34.2564,84.9626 L36.9985,84.9626" style="stroke:rgb(0,0,0);stroke-width:0.1;fill:none" />
  <path d="M42.4028,50.195 L39.6607,50.195" style="stroke:rgb(0,0,0);stroke-width:0.1;fill:none" />
  <path d="M42.4028,52.9372 L42.4028,50.195" style="stroke:rgb(0,0,0);stroke-width:0.1;fill:none" />
  <path d="M39.6607,50.195 L39.6607,52.9372" style="stroke:rgb(0,0,0);stroke-width:0.1;fill:none" />
  <path d="M39.6607,52.9372 L42.4028,52.9372" style="stroke:rgb(0,0,0);stroke-width:0.1;fill:none" />
  <path d="M47.8071,36.1839 L45.0649,36.1839" style="stroke:rgb(0,0,0);stroke-width:0.1;fill:none" />
  <path d="M47.8071,38.9261 L47.8071,36.1839" style="stroke:rgb(0,0,0);stroke-width:0.1;fill:none" />
  <path d="M45.0649,36.1839 L45.0649,38.9261" style="stroke:rgb(0,0,0);stroke-width:0.1;fill:none" />
  <path d="M45.0649,38.9261 L47.8071,38.9261" style="stroke:rgb(0,0,0);stroke-width:0.1;fill:none" />
  <path d="M36.9985,36.1839 L34.2564,36.1839" style="stroke:rgb(0,0,0);stroke-width:0.1;fill:none" />
  <path d="M36.9985,38.9261 L36.9985,36.1839" style="stroke:rgb(0,0,0);stroke-width:0.1;fill:none" />
  <path d="M34.2564,36.1839 L34.2564,38.9261" style="stroke:rgb(0,0,0);stroke-width:0.1;fill:none" />
  <path d="M34.2564,38.9261 L36.9985,38.9261" style="stroke:rgb(0,0,0);stroke-width:0.1;fill:none" />
  <ellipse cx="24.0183" cy="14.5367" rx="1.50119" ry="1.50119" style="stroke:rgb(0,0,0);stroke-width:0.25;fill:none;"/>
  <path d="M29.0222,12.0348 L34.0262,12.0348" style="stroke:rgb(0,0,0);stroke-width:0.25;fill:none" />
  <path d="M29.0222,17.0387 L34.0262,17.0387" style="stroke:rgb(0,0,0);stroke-width:0.25;fill:none" />
  <path d="M19.0143,12.0348 L14.0103,12.0348" style="stroke:rgb(0,0,0);stroke-width:0.25;fill:none" />
  <path d="M19.0143,17.0387 L14.0103,17.0387" style="stroke:rgb(0,0,0);stroke-width:0.25;fill:none" />
  <path d="M14.0103,12.0348 L14.0103,17.0387" style="stroke:rgb(0,0,0);stroke-width:0.25;fill:none" />
  <path d="M19.0143,12.0348 L19.0143,17.0387" style="stroke:rgb(0,0,0);stroke-width:0.25;fill:none" />
  <path d="M29.0222,12.0348 L29.0222,17.0387" style="stroke:rgb(0,0,0);stroke-width:0.25;fill:none" />
  <path d="M34.0262,12.0348 L34.0262,17.0387" style="stroke:rgb(0,0,0);stroke-width:0.25;fill:none" />
  <ellipse cx="56.0837" cy="51.5261" rx="2.70214" ry="2.70214" style="stroke:rgb(0,0,0);stroke-width:0.1;fill:none;"/>
  <ellipse cx="41.0718" cy="66.538" rx="2.70214" ry="2.70214" style="stroke:rgb(0,0,0);stroke-width:0.1;fill:none;"/>
  <ellipse cx="26.0599" cy="51.5261" rx="2.70214" ry="2.70214" style="stroke:rgb(0,0,0);stroke-width:0.1;fill:none;"/>
  <ellipse cx="24.0183" cy="106.533" rx="1.50119" ry="1.50119" style="stroke:rgb(0,0,0);stroke-width:0.25;fill:none;"/>
  <path d="M29.0222,104.031 L34.0262,104.031" style="stroke:rgb(0,0,0);stroke-width:0.25;fill:none" />
  <path d="M29.0222,109.035 L34.0262,109.035" style="stroke:rgb(0,0,0);stroke-width:0.25;fill:none" />
  <path d="M19.0143,104.031 L14.0103,104.031" style="stroke:rgb(0,0,0);stroke-width:0.25;fill:none" />
  <path d="M19.0143,109.035 L14.0103,109.035" style="stroke:rgb(0,0,0);stroke-width:0.25;fill:none" />
  <path d="M14.0103,104.031 L14.0103,109.035" style="stroke:rgb(0,0,0);stroke-width:0.25;fill:none" />
  <path d="M19.0143,104.031 L19.0143,109.035" style="stroke:rgb(0,0,0);stroke-width:0.25;fill:none" />
  <path d="M29.0222,104.031 L29.0222,109.035" style="stroke:rgb(0,0,0);stroke-width:0.25;fill:none" />
  <path d="M34.0262,104.031 L34.0262,109.035" style="stroke:rgb(0,0,0);stroke-width:0.25;fill:none" />
  <ellipse cx="58.0452" cy="14.5367" rx="1.50119" ry="1.50119" style="stroke:rgb(0,0,0);stroke-width:0.25;fill:none;"/>
  <path d="M63.0492,12.0348 L68.0532,12.0348" style="stroke:rgb(0,0,0);stroke-width:0.25;fill:none" />
  <path d="M63.0492,17.0387 L68.0532,17.0387" style="stroke:rgb(0,0,0);stroke-width:0.25;fill:none" />
  <path d="M53.0413,12.0348 L48.0373,12.0348" style="stroke:rgb(0,0,0);stroke-width:0.25;fill:none" />
  <path d="M53.0413,17.0387 L48.0373,17.0387" style="stroke:rgb(0,0,0);stroke-width:0.25;fill:none" />
  <path d="M48.0373,12.0348 L48.0373,17.0387" style="stroke:rgb(0,0,0);stroke-width:0.25;fill:none" />
  <path d="M53.0413,12.0348 L53.0413,17.0387" style="stroke:rgb(0,0,0);stroke-width:0.25;fill:none" />
  <path d="M63.0492,12.0348 L63.0492,17.0387" style="stroke:rgb(0,0,0);stroke-width:0.25;fill:none" />
  <path d="M68.0532,12.0348 L68.0532,17.0387" style="stroke:rgb(0,0,0);stroke-width:0.25;fill:none" />
  <ellipse cx="58.0452" cy="106.533" rx="1.50119" ry="1.50119" style="stroke:rgb(0,0,0);stroke-width:0.25;fill:none;"/>
  <path d="M63.0492,104.031 L68.0532,104.031" style="stroke:rgb(0,0,0);stroke-width:0.25;fill:none" />
  <path d="M63.0492,109.035 L68.0532,109.035" style="stroke:rgb(0,0,0);stroke-width:0.25;fill:none" />
  <path d="M53.0413,104.031 L48.0373,104.031" style="stroke:rgb(0,0,0);stroke-width:0.25;fill:none" />
  <path d="M53.0413,109.035 L48.0373,109.035" style="stroke:rgb(0,0,0);stroke-width:0.25;fill:none" />
  <path d="M48.0373,104.031 L48.0373,109.035" style="stroke:rgb(0,0,0);stroke-width:0.25;fill:none" />
  <path d="M53.0413,104.031 L53.0413,109.035" style="stroke:rgb(0,0,0);stroke-width:0.25;fill:none" />
  <path d="M63.0492,104.031 L63.0492,109.035" style="stroke:rgb(0,0,0);stroke-width:0.25;fill:none" />
  <path d="M68.0532,104.031 L68.0532,109.035" style="stroke:rgb(0,0,0);stroke-width:0.25;fill:none" />
  <path d="M73.0571,110.575 L9.00635,110.575" style="stroke:rgb(0,0,0);stroke-width:0.1;fill:none" />
  <path d="M9.00635,110.575 L9.00635,10.4956" style="stroke:rgb(0,0,0);stroke-width:0.1;fill:none" />
  <path d="M73.0571,10.4956 L73.0571,110.575" style="stroke:rgb(0,0,0);stroke-width:0.1;fill:none" />
  <path d="M47.5178,8.49405 A2.00159,2.00159 0 0,0 49.5194,10.4956 " style="stroke:rgb(0,0,0);stroke-width:0.1;fill:none" />
  <path d="M32.5441,10.4956 A2.00159,2.00159 0 0,0 34.5456,8.49405 " style="stroke:rgb(0,0,0);stroke-width:0.1;fill:none" />
  <path d="M9.00635,10.4956 L32.5441,10.4956" style="stroke:rgb(0,0,0);stroke-width:0.1;fill:none" />
  <path d="M49.5194,10.4956 L73.0571,10.4956" style="stroke:rgb(0,0,0);stroke-width:0.1;fill:none" />
  <ellipse cx="41.0317" cy="5.99206" rx="1.45115" ry="1.45115" style="stroke:rgb(0,0,0);stroke-width:0.1;fill:none;"/>
  <path d="M47.5178,3.49008 A2.00159,2.00159 0 0,0 45.5162,1.48849 " style="stroke:rgb(0,0,0);stroke-width:0.1;fill:none" />
  <path d="M36.5472,1.48849 A2.00159,2.00159 0 0,0 34.5456,3.49008 " style="stroke:rgb(0,0,0);stroke-width:0.1;fill:none" />
  <path d="M36.5472,1.48849 L45.5162,1.48849" style="stroke:rgb(0,0,0);stroke-width:0.1;fill:none" />
  <path d="M41.0317,4.54091 L41.0317,1.48849" style="stroke:rgb(0,0,0);stroke-width:0.1;fill:none" />
  <path d="M34.5456,8.49405 L34.5456,3.49008" style="stroke:rgb(0,0,0);stroke-width:0.1;fill:none" />
  <path d="M47.5178,3.49008 L47.5178,8.49405" style="stroke:rgb(0,0,0);stroke-width:0.1;fill:none" />
  <path d="M25.0127,123.147 A1.00079,1.00079 0 0,0 24.0119,122.147 " style="stroke:rgb(0,0,0);stroke-width:0.1;fill:none" />
  <ellipse cx="23.01" cy="141.462" rx="3.50278" ry="3.50278" style="stroke:rgb(0,0,0);stroke-width:0.1;fill:none;"/>
  <path d="M18.1454,125.512 A2.15771,2.15771 0 0,0 19.7085,129.157 " style="stroke:rgb(0,0,0);stroke-width:0.1;fill:none" />
  <path d="M18.1454,123.147 L18.1454,125.512" style="stroke:rgb(0,0,0);stroke-width:0.1;fill:none" />
  <ellipse cx="16.0055" cy="135.908" rx="1.00079" ry="1.00079" style="stroke:rgb(0,0,0);stroke-width:0.1;fill:none;"/>
  <path d="M18.7641,128.943 L16.3741,134.977" style="stroke:rgb(0,0,0);stroke-width:0.1;fill:none" />
  <path d="M126.267,143.189 L126.267,143.189" style="stroke:rgb(0,0,0);stroke-width:0.1;fill:none" />
  <path d="M126.267,143.189 L126.267,143.189" style="stroke:rgb(0,0,0);stroke-width:0.1;fill:none" />
  <ellipse cx="126.593" cy="141.688" rx="1.50119" ry="1.50119" style="stroke:rgb(0,0,0);stroke-width:0.1;fill:none;"/>
  <path d="M130.096,143.189 L126.593,143.189" style="stroke:rgb(0,0,0);stroke-width:0.1;fill:none" />
  <path d="M126.593,143.189 L123.09,143.189" style="stroke:rgb(0,0,0);stroke-width:0.1;fill:none" />
  <path d="M130.396,129.158 A2.15771,2.15771 0 0,0 131.959,125.513 " style="stroke:rgb(0,0,0);stroke-width:0.1;fill:none" />
  <path d="M132.96,122.148 A1.00079,1.00079 0 0,0 131.959,123.149 " style="stroke:rgb(0,0,0);stroke-width:0.1;fill:none" />
  <path d="M131.959,123.149 L131.959,125.513" style="stroke:rgb(0,0,0);stroke-width:0.1;fill:none" />
  <ellipse cx="134.099" cy="135.909" rx="1.00079" ry="1.00079" style="stroke:rgb(0,0,0);stroke-width:0.1;fill:none;"/>
  <path d="M131.341,128.944 L133.731,134.978" style="stroke:rgb(0,0,0);stroke-width:0.1;fill:none" />
  <path d="M126.093,122.148 A1.00079,1.00079 0 0,0 125.092,123.149 " style="stroke:rgb(0,0,0);stroke-width:0.1;fill:none" />
  <path d="M43.027,145.04 L43.027,150.044" style="stroke:rgb(0,0,0);stroke-width:0.1;fill:none" />
  <path d="M43.027,145.04 L48.0309,145.04" style="stroke:rgb(0,0,0);stroke-width:0.1;fill:none" />
  <path d="M68.0468,145.04 L82.0579,145.04" style="stroke:rgb(0,0,0);stroke-width:0.1;fill:none" />
  <path d="M107.078,145.04 L107.078,150.044" style="stroke:rgb(0,0,0);stroke-width:0.1;fill:none" />
  <path d="M102.074,145.04 L107.078,145.04" style="stroke:rgb(0,0,0);stroke-width:0.1;fill:none" />
  <path d="M56.5377,137.931 L59.5401,137.931" style="stroke:rgb(0,0,0);stroke-width:0.1;fill:none" />
  <path d="M55.1766,141.103 L55.1766,138.932" style="stroke:rgb(0,0,0);stroke-width:0.1;fill:none" />
  <path d="M60.9011,138.932 L60.9011,141.103" style="stroke:rgb(0,0,0);stroke-width:0.1;fill:none" />
  <path d="M56.5377,141.103 L55.1766,141.103" style="stroke:rgb(0,0,0);stroke-width:0.1;fill:none" />
  <path d="M60.9011,141.103 L59.5401,141.103" style="stroke:rgb(0,0,0);stroke-width:0.1;fill:none" />
  <path d="M59.5401,137.931 L59.5401,138.932" style="stroke:rgb(0,0,0);stroke-width:0.1;fill:none" />
  <path d="M59.5401,138.932 L60.9011,138.932" style="stroke:rgb(0,0,0);stroke-width:0.1;fill:none" />
  <path d="M55.1766,138.932 L56.5377,138.932" style="stroke:rgb(0,0,0);stroke-width:0.1;fill:none" />
  <path d="M56.5377,138.932 L56.5377,137.931" style="stroke:rgb(0,0,0);stroke-width:0.1;fill:none" />
  <path d="M56.5377,144.539 L56.5377,141.103" style="stroke:rgb(0,0,0);stroke-width:0.1;fill:none" />
  <path d="M59.5401,141.103 L59.5401,144.539" style="stroke:rgb(0,0,0);stroke-width:0.1;fill:none" />
  <path d="M48.0309,149.543 L48.0309,145.04" style="stroke:rgb(0,0,0);stroke-width:0.1;fill:none" />
  <path d="M48.0309,149.543 A0.500397,0.500397 0 0,0 48.5313,150.044 " style="stroke:rgb(0,0,0);stroke-width:0.1;fill:none" />
  <path d="M52.5345,150.044 L48.5313,150.044" style="stroke:rgb(0,0,0);stroke-width:0.1;fill:none" />
  <path d="M53.0349,145.04 L53.0349,149.543" style="stroke:rgb(0,0,0);stroke-width:0.1;fill:none" />
  <path d="M52.5345,150.044 A0.500397,0.500397 0 0,0 53.0349,149.543 " style="stroke:rgb(0,0,0);stroke-width:0.1;fill:none" />
  <path d="M56.0373,145.04 L53.0349,145.04" style="stroke:rgb(0,0,0);stroke-width:0.1;fill:none" />
  <path d="M56.0373,145.04 A0.500397,0.500397 0 0,0 56.5377,144.539 " style="stroke:rgb(0,0,0);stroke-width:0.1;fill:none" />
  <path d="M60.0405,145.04 L63.0428,145.04" style="stroke:rgb(0,0,0);stroke-width:0.1;fill:none" />
  <path d="M59.5401,144.539 A0.500397,0.500397 0 0,0 60.0405,145.04 " style="stroke:rgb(0,0,0);stroke-width:0.1;fill:none" />
  <path d="M63.0428,145.04 L63.0428,149.543" style="stroke:rgb(0,0,0);stroke-width:0.1;fill:none" />
  <path d="M63.0428,149.543 A0.500397,0.500397 0 0,0 63.5432,150.044 " style="stroke:rgb(0,0,0);stroke-width:0.1;fill:none" />
  <path d="M63.5432,150.044 L67.5464,150.044" style="stroke:rgb(0,0,0);stroke-width:0.1;fill:none" />
  <path d="M68.0468,149.543 L68.0468,145.04" style="stroke:rgb(0,0,0);stroke-width:0.1;fill:none" />
  <path d="M67.5464,150.044 A0.500397,0.500397 0 0,0 68.0468,149.543 " style="stroke:rgb(0,0,0);stroke-width:0.1;fill:none" />
  <path d="M90.5647,137.931 L93.567,137.931" style="stroke:rgb(0,0,0);stroke-width:0.1;fill:none" />
  <path d="M89.2036,141.103 L89.2036,138.932" style="stroke:rgb(0,0,0);stroke-width:0.1;fill:none" />
  <path d="M94.9281,138.932 L94.9281,141.103" style="stroke:rgb(0,0,0);stroke-width:0.1;fill:none" />
  <path d="M90.5647,141.103 L89.2036,141.103" style="stroke:rgb(0,0,0);stroke-width:0.1;fill:none" />
  <path d="M94.9281,141.103 L93.567,141.103" style="stroke:rgb(0,0,0);stroke-width:0.1;fill:none" />
  <path d="M93.567,137.931 L93.567,138.932" style="stroke:rgb(0,0,0);stroke-width:0.1;fill:none" />
  <path d="M93.567,138.932 L94.9281,138.932" style="stroke:rgb(0,0,0);stroke-width:0.1;fill:none" />
  <path d="M89.2036,138.932 L90.5647,138.932" style="stroke:rgb(0,0,0);stroke-width:0.1;fill:none" />
  <path d="M90.5647,138.932 L90.5647,137.931" style="stroke:rgb(0,0,0);stroke-width:0.1;fill:none" />
  <path d="M90.5647,144.539 L90.5647,141.103" style="stroke:rgb(0,0,0);stroke-width:0.1;fill:none" />
  <path d="M93.567,141.103 L93.567,144.539" style="stroke:rgb(0,0,0);stroke-width:0.1;fill:none" />
  <path d="M90.0643,145.04 L87.0619,145.04" style="stroke:rgb(0,0,0);stroke-width:0.1;fill:none" />
  <path d="M90.0643,145.04 A0.500397,0.500397 0 0,0 90.5647,144.539 " style="stroke:rgb(0,0,0);stroke-width:0.1;fill:none" />
  <path d="M94.0674,145.04 L97.0698,145.04" style="stroke:rgb(0,0,0);stroke-width:0.1;fill:none" />
  <path d="M93.567,144.539 A0.500397,0.500397 0 0,0 94.0674,145.04 " style="stroke:rgb(0,0,0);stroke-width:0.1;fill:none" />
  <path d="M82.0579,149.543 L82.0579,145.04" style="stroke:rgb(0,0,0);stroke-width:0.1;fill:none" />
  <path d="M82.0579,149.543 A0.500397,0.500397 0 0,0 82.5583,150.044 " style="stroke:rgb(0,0,0);stroke-width:0.1;fill:none" />
  <path d="M86.5615,150.044 L82.5583,150.044" style="stroke:rgb(0,0,0);stroke-width:0.1;fill:none" />
  <path d="M87.0619,145.04 L87.0619,149.543" style="stroke:rgb(0,0,0);stroke-width:0.1;fill:none" />
  <path d="M86.5615,150.044 A0.500397,0.500397 0 0,0 87.0619,149.543 " style="stroke:rgb(0,0,0);stroke-width:0.1;fill:none" />
  <path d="M90.0643,145.04 L87.0619,145.04" style="stroke:rgb(0,0,0);stroke-width:0.1;fill:none" />
  <path d="M90.0643,145.04 A0.500397,0.500397 0 0,0 90.5647,144.539 " style="stroke:rgb(0,0,0);stroke-width:0.1;fill:none" />
  <path d="M94.0674,145.04 L97.0698,145.04" style="stroke:rgb(0,0,0);stroke-width:0.1;fill:none" />
  <path d="M93.567,144.539 A0.500397,0.500397 0 0,0 94.0674,145.04 " style="stroke:rgb(0,0,0);stroke-width:0.1;fill:none" />
  <path d="M97.0698,145.04 L97.0698,149.543" style="stroke:rgb(0,0,0);stroke-width:0.1;fill:none" />
  <path d="M97.0698,149.543 A0.500397,0.500397 0 0,0 97.5702,150.044 " style="stroke:rgb(0,0,0);stroke-width:0.1;fill:none" />
  <path d="M97.5702,150.044 L101.573,150.044" style="stroke:rgb(0,0,0);stroke-width:0.1;fill:none" />
  <path d="M102.074,149.543 L102.074,145.04" style="stroke:rgb(0,0,0);stroke-width:0.1;fill:none" />
  <path d="M101.573,150.044 A0.500397,0.500397 0 0,0 102.074,149.543 " style="stroke:rgb(0,0,0);stroke-width:0.1;fill:none" />
  <ellipse cx="17.5056" cy="141.462" rx="1.20095" ry="1.20095" style="stroke:rgb(0,0,0);stroke-width:0.1;fill:none;"/>
  <ellipse cx="28.5144" cy="141.462" rx="1.20095" ry="1.20095" style="stroke:rgb(0,0,0);stroke-width:0.1;fill:none;"/>
  <path d="M22.5107,122.147 A1.00079,1.00079 0 0,0 21.5099,123.147 " style="stroke:rgb(0,0,0);stroke-width:0.1;fill:none" />
  <path d="M24.0119,122.147 L22.5107,122.147" style="stroke:rgb(0,0,0);stroke-width:0.1;fill:none" />
  <path d="M21.5099,123.147 L21.5099,125.812" style="stroke:rgb(0,0,0);stroke-width:0.1;fill:none" />
  <path d="M18.7641,128.943 A2.16071,2.16071 0 0,0 21.5124,125.81 " style="stroke:rgb(0,0,0);stroke-width:0.1;fill:none" />
  <path d="M128.595,123.149 A1.00079,1.00079 0 0,0 127.594,122.148 " style="stroke:rgb(0,0,0);stroke-width:0.1;fill:none" />
  <path d="M126.093,122.148 L127.594,122.148" style="stroke:rgb(0,0,0);stroke-width:0.1;fill:none" />
  <path d="M128.595,123.149 L128.595,125.813" style="stroke:rgb(0,0,0);stroke-width:0.1;fill:none" />
  <path d="M128.595,125.813 A2.15771,2.15771 0 0,0 131.339,128.941 " style="stroke:rgb(0,0,0);stroke-width:0.1;fill:none" />
  <path d="M132.96,150.044 A8.00635,8.00635 0 0,0 140.966,142.037 " style="stroke:rgb(0,0,0);stroke-width:0.1;fill:none" />
  <path d="M140.966,139.911 L140.966,142.037" style="stroke:rgb(0,0,0);stroke-width:0.1;fill:none" />
  <path d="M140.966,130.154 A8.00635,8.00635 0 0,0 132.96,122.148 " style="stroke:rgb(0,0,0);stroke-width:0.1;fill:none" />
  <path d="M140.966,130.154 L140.966,139.911" style="stroke:rgb(0,0,0);stroke-width:0.1;fill:none" />
  <path d="M107.078,150.044 L132.96,150.044" style="stroke:rgb(0,0,0);stroke-width:0.1;fill:none" />
  <path d="M25.0127,129.603 L27.0524,129.603" style="stroke:rgb(0,0,0);stroke-width:0.1;fill:none" />
  <path d="M31.0556,129.603 L34.058,129.603" style="stroke:rgb(0,0,0);stroke-width:0.1;fill:none" />
  <path d="M27.5528,130.103 A0.500397,0.500397 0 0,0 27.0524,129.603 " style="stroke:rgb(0,0,0);stroke-width:0.1;fill:none" />
  <path d="M31.0556,129.603 A0.500397,0.500397 0 0,0 30.5552,130.103 " style="stroke:rgb(0,0,0);stroke-width:0.1;fill:none" />
  <path d="M119.55,130.103 A0.500397,0.500397 0 0,0 119.049,129.603 " style="stroke:rgb(0,0,0);stroke-width:0.1;fill:none" />
  <path d="M123.052,129.603 A0.500397,0.500397 0 0,0 122.552,130.103 " style="stroke:rgb(0,0,0);stroke-width:0.1;fill:none" />
  <path d="M123.052,129.603 L125.092,129.603" style="stroke:rgb(0,0,0);stroke-width:0.1;fill:none" />
  <path d="M25.0127,123.147 L25.0127,129.603" style="stroke:rgb(0,0,0);stroke-width:0.1;fill:none" />
  <path d="M125.092,123.149 L125.092,129.604" style="stroke:rgb(0,0,0);stroke-width:0.1;fill:none" />
  <path d="M123.09,146.216 L130.096,146.216" style="stroke:rgb(0,0,0);stroke-width:0.1;fill:none" />
  <path d="M130.096,146.216 L130.096,143.189" style="stroke:rgb(0,0,0);stroke-width:0.1;fill:none" />
  <path d="M123.09,143.189 L123.09,146.216" style="stroke:rgb(0,0,0);stroke-width:0.1;fill:none" />
  <path d="M27.5528,136.211 L30.5552,136.211" style="stroke:rgb(0,0,0);stroke-width:0.1;fill:none" />
  <path d="M26.1917,133.039 L26.1917,135.21" style="stroke:rgb(0,0,0);stroke-width:0.1;fill:none" />
  <path d="M31.9163,135.21 L31.9163,133.039" style="stroke:rgb(0,0,0);stroke-width:0.1;fill:none" />
  <path d="M27.5528,133.039 L26.1917,133.039" style="stroke:rgb(0,0,0);stroke-width:0.1;fill:none" />
  <path d="M31.9163,133.039 L30.5552,133.039" style="stroke:rgb(0,0,0);stroke-width:0.1;fill:none" />
  <path d="M30.5552,136.211 L30.5552,135.21" style="stroke:rgb(0,0,0);stroke-width:0.1;fill:none" />
  <path d="M30.5552,135.21 L31.9163,135.21" style="stroke:rgb(0,0,0);stroke-width:0.1;fill:none" />
  <path d="M26.1917,135.21 L27.5528,135.21" style="stroke:rgb(0,0,0);stroke-width:0.1;fill:none" />
  <path d="M27.5528,135.21 L27.5528,136.211" style="stroke:rgb(0,0,0);stroke-width:0.1;fill:none" />
  <path d="M119.55,136.211 L122.552,136.211" style="stroke:rgb(0,0,0);stroke-width:0.1;fill:none" />
  <path d="M118.188,133.039 L118.188,135.21" style="stroke:rgb(0,0,0);stroke-width:0.1;fill:none" />
  <path d="M123.913,135.21 L123.913,133.039" style="stroke:rgb(0,0,0);stroke-width:0.1;fill:none" />
  <path d="M119.55,133.039 L118.188,133.039" style="stroke:rgb(0,0,0);stroke-width:0.1;fill:none" />
  <path d="M123.913,133.039 L122.552,133.039" style="stroke:rgb(0,0,0);stroke-width:0.1;fill:none" />
  <path d="M122.552,136.211 L122.552,135.21" style="stroke:rgb(0,0,0);stroke-width:0.1;fill:none" />
  <path d="M122.552,135.21 L123.913,135.21" style="stroke:rgb(0,0,0);stroke-width:0.1;fill:none" />
  <path d="M118.188,135.21 L119.55,135.21" style="stroke:rgb(0,0,0);stroke-width:0.1;fill:none" />
  <path d="M119.55,135.21 L119.55,136.211" style="stroke:rgb(0,0,0);stroke-width:0.1;fill:none" />
  <path d="M27.5528,130.103 L27.5528,133.039" style="stroke:rgb(0,0,0);stroke-width:0.1;fill:none" />
  <path d="M30.5552,133.039 L30.5552,130.103" style="stroke:rgb(0,0,0);stroke-width:0.1;fill:none" />
  <path d="M119.55,130.103 L119.55,133.039" style="stroke:rgb(0,0,0);stroke-width:0.1;fill:none" />
  <path d="M122.552,133.039 L122.552,130.103" style="stroke:rgb(0,0,0);stroke-width:0.1;fill:none" />
  <path d="M34.5584,123.498 A0.500397,0.500397 0 0,0 34.058,123.998 " style="stroke:rgb(0,0,0);stroke-width:0.1;fill:none" />
  <path d="M34.058,129.603 L34.058,123.998" style="stroke:rgb(0,0,0);stroke-width:0.1;fill:none" />
  <path d="M18.1454,123.147 A1.08115,1.08115 0 0,0 16.3907,122.497 " style="stroke:rgb(0,0,0);stroke-width:0.1;fill:none" />
  <path d="M12.6215,127.88 L16.3907,122.497" style="stroke:rgb(0,0,0);stroke-width:0.1;fill:none" />
  <ellipse cx="10.0693" cy="140.41" rx="1.50119" ry="1.50119" style="stroke:rgb(0,0,0);stroke-width:0.1;fill:none;"/>
  <path d="M1.56157,143.675 L12.6215,127.88" style="stroke:rgb(0,0,0);stroke-width:0.1;fill:none" />
  <path d="M2.27948,147.172 L5.14964,143.073" style="stroke:rgb(0,0,0);stroke-width:0.1;fill:none" />
  <path d="M5.14964,143.073 L9.24853,145.944" style="stroke:rgb(0,0,0);stroke-width:0.1;fill:none" />
  <path d="M1.56157,143.675 A2.52454,2.52454 0 0,0 2.27948,147.172 " style="stroke:rgb(0,0,0);stroke-width:0.1;fill:none" />
  <path d="M7.06902,149.056 A0.791714,0.791714 0 0,0 7.59887,150.043 " style="stroke:rgb(0,0,0);stroke-width:0.1;fill:none" />
  <path d="M7.06902,149.056 L9.24853,145.944" style="stroke:rgb(0,0,0);stroke-width:0.1;fill:none" />
  <path d="M7.59887,150.043 L43.027,150.044" style="stroke:rgb(0,0,0);stroke-width:0.1;fill:none" />
  <path d="M68.5663,134.607 L81.5385,134.607" style="stroke:rgb(0,0,0);stroke-width:0.1;fill:none" />
  <path d="M68.5663,123.998 A0.500397,0.500397 0 0,0 68.0659,123.498 " style="stroke:rgb(0,0,0);stroke-width:0.1;fill:none" />
  <path d="M68.5663,123.998 L68.5663,134.607" style="stroke:rgb(0,0,0);stroke-width:0.1;fill:none" />
  <path d="M81.5385,129.603 L81.5385,134.607" style="stroke:rgb(0,0,0);stroke-width:0.1;fill:none" />
  <path d="M34.5584,123.498 L68.0659,123.498" style="stroke:rgb(0,0,0);stroke-width:0.1;fill:none" />
  <path d="M119.049,129.603 L81.5385,129.603" style="stroke:rgb(0,0,0);stroke-width:0.1;fill:none" />
  <path d="M25.0127,176.94 A1.00079,1.00079 0 0,1 24.0119,177.941 " style="stroke:rgb(0,0,0);stroke-width:0.1;fill:none" />
  <ellipse cx="23.01" cy="158.626" rx="3.50278" ry="3.50278" style="stroke:rgb(0,0,0);stroke-width:0.1;fill:none;"/>
  <path d="M18.1454,174.576 A2.15771,2.15771 0 0,1 19.7085,170.931 " style="stroke:rgb(0,0,0);stroke-width:0.1;fill:none" />
  <path d="M18.1454,176.94 L18.1454,174.576" style="stroke:rgb(0,0,0);stroke-width:0.1;fill:none" />
  <ellipse cx="16.0055" cy="164.18" rx="1.00079" ry="1.00079" style="stroke:rgb(0,0,0);stroke-width:0.1;fill:none;"/>
  <path d="M18.7641,171.145 L16.3741,165.11" style="stroke:rgb(0,0,0);stroke-width:0.1;fill:none" />
  <path d="M126.267,156.899 L126.267,156.899" style="stroke:rgb(0,0,0);stroke-width:0.1;fill:none" />
  <path d="M126.267,156.899 L126.267,156.899" style="stroke:rgb(0,0,0);stroke-width:0.1;fill:none" />
  <ellipse cx="126.593" cy="158.4" rx="1.50119" ry="1.50119" style="stroke:rgb(0,0,0);stroke-width:0.1;fill:none;"/>
  <path d="M130.096,156.899 L126.593,156.899" style="stroke:rgb(0,0,0);stroke-width:0.1;fill:none" />
  <path d="M126.593,156.899 L123.09,156.899" style="stroke:rgb(0,0,0);stroke-width:0.1;fill:none" />
  <path d="M130.396,170.929 A2.15771,2.15771 0 0,1 131.959,174.575 " style="stroke:rgb(0,0,0);stroke-width:0.1;fill:none" />
  <path d="M132.96,177.94 A1.00079,1.00079 0 0,1 131.959,176.939 " style="stroke:rgb(0,0,0);stroke-width:0.1;fill:none" />
  <path d="M131.959,176.939 L131.959,174.575" style="stroke:rgb(0,0,0);stroke-width:0.1;fill:none" />
  <ellipse cx="134.099" cy="164.179" rx="1.00079" ry="1.00079" style="stroke:rgb(0,0,0);stroke-width:0.1;fill:none;"/>
  <path d="M131.341,171.144 L133.731,165.109" style="stroke:rgb(0,0,0);stroke-width:0.1;fill:none" />
  <path d="M126.093,177.94 A1.00079,1.00079 0 0,1 125.092,176.939 " style="stroke:rgb(0,0,0);stroke-width:0.1;fill:none" />
  <path d="M43.027,155.048 L43.027,150.044" style="stroke:rgb(0,0,0);stroke-width:0.1;fill:none" />
  <path d="M43.027,155.048 L48.0309,155.048" style="stroke:rgb(0,0,0);stroke-width:0.1;fill:none" />
  <path d="M68.0468,155.048 L82.0579,155.048" style="stroke:rgb(0,0,0);stroke-width:0.1;fill:none" />
  <path d="M107.078,155.048 L107.078,150.044" style="stroke:rgb(0,0,0);stroke-width:0.1;fill:none" />
  <path d="M102.074,155.048 L107.078,155.048" style="stroke:rgb(0,0,0);stroke-width:0.1;fill:none" />
  <path d="M56.5377,162.157 L59.5401,162.157" style="stroke:rgb(0,0,0);stroke-width:0.1;fill:none" />
  <path d="M55.1766,158.984 L55.1766,161.156" style="stroke:rgb(0,0,0);stroke-width:0.1;fill:none" />
  <path d="M60.9011,161.156 L60.9011,158.984" style="stroke:rgb(0,0,0);stroke-width:0.1;fill:none" />
  <path d="M56.5377,158.984 L55.1766,158.984" style="stroke:rgb(0,0,0);stroke-width:0.1;fill:none" />
  <path d="M60.9011,158.984 L59.5401,158.984" style="stroke:rgb(0,0,0);stroke-width:0.1;fill:none" />
  <path d="M59.5401,162.157 L59.5401,161.156" style="stroke:rgb(0,0,0);stroke-width:0.1;fill:none" />
  <path d="M59.5401,161.156 L60.9011,161.156" style="stroke:rgb(0,0,0);stroke-width:0.1;fill:none" />
  <path d="M55.1766,161.156 L56.5377,161.156" style="stroke:rgb(0,0,0);stroke-width:0.1;fill:none" />
  <path d="M56.5377,161.156 L56.5377,162.157" style="stroke:rgb(0,0,0);stroke-width:0.1;fill:none" />
  <path d="M56.5377,155.548 L56.5377,158.984" style="stroke:rgb(0,0,0);stroke-width:0.1;fill:none" />
  <path d="M59.5401,158.984 L59.5401,155.548" style="stroke:rgb(0,0,0);stroke-width:0.1;fill:none" />
  <path d="M48.0309,150.544 L48.0309,155.048" style="stroke:rgb(0,0,0);stroke-width:0.1;fill:none" />
  <path d="M48.0309,150.544 A0.500397,0.500397 0 0,1 48.5313,150.044 " style="stroke:rgb(0,0,0);stroke-width:0.1;fill:none" />
  <path d="M53.0349,155.048 L53.0349,150.544" style="stroke:rgb(0,0,0);stroke-width:0.1;fill:none" />
  <path d="M52.5345,150.044 A0.500397,0.500397 0 0,1 53.0349,150.544 " style="stroke:rgb(0,0,0);stroke-width:0.1;fill:none" />
  <path d="M56.0373,155.048 L53.0349,155.048" style="stroke:rgb(0,0,0);stroke-width:0.1;fill:none" />
  <path d="M56.0373,155.048 A0.500397,0.500397 0 0,1 56.5377,155.548 " style="stroke:rgb(0,0,0);stroke-width:0.1;fill:none" />
  <path d="M60.0405,155.048 L63.0428,155.048" style="stroke:rgb(0,0,0);stroke-width:0.1;fill:none" />
  <path d="M59.5401,155.548 A0.500397,0.500397 0 0,1 60.0405,155.048 " style="stroke:rgb(0,0,0);stroke-width:0.1;fill:none" />
  <path d="M63.0428,155.048 L63.0428,150.544" style="stroke:rgb(0,0,0);stroke-width:0.1;fill:none" />
  <path d="M63.0428,150.544 A0.500397,0.500397 0 0,1 63.5432,150.044 " style="stroke:rgb(0,0,0);stroke-width:0.1;fill:none" />
  <path d="M68.0468,150.544 L68.0468,155.048" style="stroke:rgb(0,0,0);stroke-width:0.1;fill:none" />
  <path d="M67.5464,150.044 A0.500397,0.500397 0 0,1 68.0468,150.544 " style="stroke:rgb(0,0,0);stroke-width:0.1;fill:none" />
  <path d="M90.5647,162.157 L93.567,162.157" style="stroke:rgb(0,0,0);stroke-width:0.1;fill:none" />
  <path d="M89.2036,158.984 L89.2036,161.156" style="stroke:rgb(0,0,0);stroke-width:0.1;fill:none" />
  <path d="M94.9281,161.156 L94.9281,158.984" style="stroke:rgb(0,0,0);stroke-width:0.1;fill:none" />
  <path d="M90.5647,158.984 L89.2036,158.984" style="stroke:rgb(0,0,0);stroke-width:0.1;fill:none" />
  <path d="M94.9281,158.984 L93.567,158.984" style="stroke:rgb(0,0,0);stroke-width:0.1;fill:none" />
  <path d="M93.567,162.157 L93.567,161.156" style="stroke:rgb(0,0,0);stroke-width:0.1;fill:none" />
  <path d="M93.567,161.156 L94.9281,161.156" style="stroke:rgb(0,0,0);stroke-width:0.1;fill:none" />
  <path d="M89.2036,161.156 L90.5647,161.156" style="stroke:rgb(0,0,0);stroke-width:0.1;fill:none" />
  <path d="M90.5647,161.156 L90.5647,162.157" style="stroke:rgb(0,0,0);stroke-width:0.1;fill:none" />
  <path d="M90.5647,155.548 L90.5647,158.984" style="stroke:rgb(0,0,0);stroke-width:0.1;fill:none" />
  <path d="M93.567,158.984 L93.567,155.548" style="stroke:rgb(0,0,0);stroke-width:0.1;fill:none" />
  <path d="M90.0643,155.048 L87.0619,155.048" style="stroke:rgb(0,0,0);stroke-width:0.1;fill:none" />
  <path d="M90.0643,155.048 A0.500397,0.500397 0 0,1 90.5647,155.548 " style="stroke:rgb(0,0,0);stroke-width:0.1;fill:none" />
  <path d="M94.0674,155.048 L97.0698,155.048" style="stroke:rgb(0,0,0);stroke-width:0.1;fill:none" />
  <path d="M93.567,155.548 A0.500397,0.500397 0 0,1 94.0674,155.048 " style="stroke:rgb(0,0,0);stroke-width:0.1;fill:none" />
  <path d="M82.0579,150.544 L82.0579,155.048" style="stroke:rgb(0,0,0);stroke-width:0.1;fill:none" />
  <path d="M82.0579,150.544 A0.500397,0.500397 0 0,1 82.5583,150.044 " style="stroke:rgb(0,0,0);stroke-width:0.1;fill:none" />
  <path d="M87.0619,155.048 L87.0619,150.544" style="stroke:rgb(0,0,0);stroke-width:0.1;fill:none" />
  <path d="M86.5615,150.044 A0.500397,0.500397 0 0,1 87.0619,150.544 " style="stroke:rgb(0,0,0);stroke-width:0.1;fill:none" />
  <path d="M90.0643,155.048 L87.0619,155.048" style="stroke:rgb(0,0,0);stroke-width:0.1;fill:none" />
  <path d="M90.0643,155.048 A0.500397,0.500397 0 0,1 90.5647,155.548 " style="stroke:rgb(0,0,0);stroke-width:0.1;fill:none" />
  <path d="M94.0674,155.048 L97.0698,155.048" style="stroke:rgb(0,0,0);stroke-width:0.1;fill:none" />
  <path d="M93.567,155.548 A0.500397,0.500397 0 0,1 94.0674,155.048 " style="stroke:rgb(0,0,0);stroke-width:0.1;fill:none" />
  <path d="M97.0698,155.048 L97.0698,150.544" style="stroke:rgb(0,0,0);stroke-width:0.1;fill:none" />
  <path d="M97.0698,150.544 A0.500397,0.500397 0 0,1 97.5702,150.044 " style="stroke:rgb(0,0,0);stroke-width:0.1;fill:none" />
  <path d="M102.074,150.544 L102.074,155.048" style="stroke:rgb(0,0,0);stroke-width:0.1;fill:none" />
  <path d="M101.573,150.044 A0.500397,0.500397 0 0,1 102.074,150.544 " style="stroke:rgb(0,0,0);stroke-width:0.1;fill:none" />
  <ellipse cx="17.5056" cy="158.626" rx="1.20095" ry="1.20095" style="stroke:rgb(0,0,0);stroke-width:0.1;fill:none;"/>
  <ellipse cx="28.5144" cy="158.626" rx="1.20095" ry="1.20095" style="stroke:rgb(0,0,0);stroke-width:0.1;fill:none;"/>
  <path d="M22.5107,177.941 A1.00079,1.00079 0 0,1 21.5099,176.94 " style="stroke:rgb(0,0,0);stroke-width:0.1;fill:none" />
  <path d="M24.0119,177.941 L22.5107,177.941" style="stroke:rgb(0,0,0);stroke-width:0.1;fill:none" />
  <path d="M21.5099,176.94 L21.5099,174.276" style="stroke:rgb(0,0,0);stroke-width:0.1;fill:none" />
  <path d="M18.7641,171.145 A2.16071,2.16071 0 0,1 21.5124,174.278 " style="stroke:rgb(0,0,0);stroke-width:0.1;fill:none" />
  <path d="M128.595,176.939 A1.00079,1.00079 0 0,1 127.594,177.94 " style="stroke:rgb(0,0,0);stroke-width:0.1;fill:none" />
  <path d="M126.093,177.94 L127.594,177.94" style="stroke:rgb(0,0,0);stroke-width:0.1;fill:none" />
  <path d="M128.595,176.939 L128.595,174.275" style="stroke:rgb(0,0,0);stroke-width:0.1;fill:none" />
  <path d="M128.595,174.275 A2.15771,2.15771 0 0,1 131.339,171.146 " style="stroke:rgb(0,0,0);stroke-width:0.1;fill:none" />
  <path d="M132.96,150.044 A8.00635,8.00635 0 0,1 140.966,158.05 " style="stroke:rgb(0,0,0);stroke-width:0.1;fill:none" />
  <path d="M140.966,160.177 L140.966,158.05" style="stroke:rgb(0,0,0);stroke-width:0.1;fill:none" />
  <path d="M140.966,169.933 A8.00635,8.00635 0 0,1 132.96,177.94 " style="stroke:rgb(0,0,0);stroke-width:0.1;fill:none" />
  <path d="M140.966,169.933 L140.966,160.177" style="stroke:rgb(0,0,0);stroke-width:0.1;fill:none" />
  <path d="M25.0127,170.485 L27.0524,170.485" style="stroke:rgb(0,0,0);stroke-width:0.1;fill:none" />
  <path d="M31.0556,170.485 L34.058,170.485" style="stroke:rgb(0,0,0);stroke-width:0.1;fill:none" />
  <path d="M27.5528,169.985 A0.500397,0.500397 0 0,1 27.0524,170.485 " style="stroke:rgb(0,0,0);stroke-width:0.1;fill:none" />
  <path d="M31.0556,170.485 A0.500397,0.500397 0 0,1 30.5552,169.985 " style="stroke:rgb(0,0,0);stroke-width:0.1;fill:none" />
  <path d="M119.55,169.985 A0.500397,0.500397 0 0,1 119.049,170.485 " style="stroke:rgb(0,0,0);stroke-width:0.1;fill:none" />
  <path d="M123.052,170.485 A0.500397,0.500397 0 0,1 122.552,169.985 " style="stroke:rgb(0,0,0);stroke-width:0.1;fill:none" />
  <path d="M123.052,170.485 L125.092,170.485" style="stroke:rgb(0,0,0);stroke-width:0.1;fill:none" />
  <path d="M25.0127,176.94 L25.0127,170.485" style="stroke:rgb(0,0,0);stroke-width:0.1;fill:none" />
  <path d="M125.092,176.939 L125.092,170.484" style="stroke:rgb(0,0,0);stroke-width:0.1;fill:none" />
  <path d="M123.09,153.872 L130.096,153.872" style="stroke:rgb(0,0,0);stroke-width:0.1;fill:none" />
  <path d="M130.096,153.872 L130.096,156.899" style="stroke:rgb(0,0,0);stroke-width:0.1;fill:none" />
  <path d="M123.09,156.899 L123.09,153.872" style="stroke:rgb(0,0,0);stroke-width:0.1;fill:none" />
  <path d="M27.5528,163.876 L30.5552,163.876" style="stroke:rgb(0,0,0);stroke-width:0.1;fill:none" />
  <path d="M26.1917,167.049 L26.1917,164.877" style="stroke:rgb(0,0,0);stroke-width:0.1;fill:none" />
  <path d="M31.9163,164.877 L31.9163,167.049" style="stroke:rgb(0,0,0);stroke-width:0.1;fill:none" />
  <path d="M27.5528,167.049 L26.1917,167.049" style="stroke:rgb(0,0,0);stroke-width:0.1;fill:none" />
  <path d="M31.9163,167.049 L30.5552,167.049" style="stroke:rgb(0,0,0);stroke-width:0.1;fill:none" />
  <path d="M30.5552,163.876 L30.5552,164.877" style="stroke:rgb(0,0,0);stroke-width:0.1;fill:none" />
  <path d="M30.5552,164.877 L31.9163,164.877" style="stroke:rgb(0,0,0);stroke-width:0.1;fill:none" />
  <path d="M26.1917,164.877 L27.5528,164.877" style="stroke:rgb(0,0,0);stroke-width:0.1;fill:none" />
  <path d="M27.5528,164.877 L27.5528,163.876" style="stroke:rgb(0,0,0);stroke-width:0.1;fill:none" />
  <path d="M119.55,163.876 L122.552,163.876" style="stroke:rgb(0,0,0);stroke-width:0.1;fill:none" />
  <path d="M118.188,167.049 L118.188,164.877" style="stroke:rgb(0,0,0);stroke-width:0.1;fill:none" />
  <path d="M123.913,164.877 L123.913,167.049" style="stroke:rgb(0,0,0);stroke-width:0.1;fill:none" />
  <path d="M119.55,167.049 L118.188,167.049" style="stroke:rgb(0,0,0);stroke-width:0.1;fill:none" />
  <path d="M123.913,167.049 L122.552,167.049" style="stroke:rgb(0,0,0);stroke-width:0.1;fill:none" />
  <path d="M122.552,163.876 L122.552,164.877" style="stroke:rgb(0,0,0);stroke-width:0.1;fill:none" />
  <path d="M122.552,164.877 L123.913,164.877" style="stroke:rgb(0,0,0);stroke-width:0.1;fill:none" />
  <path d="M118.188,164.877 L119.55,164.877" style="stroke:rgb(0,0,0);stroke-width:0.1;fill:none" />
  <path d="M119.55,164.877 L119.55,163.876" style="stroke:rgb(0,0,0);stroke-width:0.1;fill:none" />
  <path d="M27.5528,169.985 L27.5528,167.049" style="stroke:rgb(0,0,0);stroke-width:0.1;fill:none" />
  <path d="M30.5552,167.049 L30.5552,169.985" style="stroke:rgb(0,0,0);stroke-width:0.1;fill:none" />
  <path d="M119.55,169.985 L119.55,167.049" style="stroke:rgb(0,0,0);stroke-width:0.1;fill:none" />
  <path d="M122.552,167.049 L122.552,169.985" style="stroke:rgb(0,0,0);stroke-width:0.1;fill:none" />
  <path d="M34.5584,176.59 A0.500397,0.500397 0 0,1 34.058,176.089 " style="stroke:rgb(0,0,0);stroke-width:0.1;fill:none" />
  <path d="M34.058,170.485 L34.058,176.089" style="stroke:rgb(0,0,0);stroke-width:0.1;fill:none" />
  <path d="M18.1454,176.94 A1.08115,1.08115 0 0,1 16.3907,177.591 " style="stroke:rgb(0,0,0);stroke-width:0.1;fill:none" />
  <path d="M12.6215,172.208 L16.3907,177.591" style="stroke:rgb(0,0,0);stroke-width:0.1;fill:none" />
  <ellipse cx="10.0693" cy="159.678" rx="1.50119" ry="1.50119" style="stroke:rgb(0,0,0);stroke-width:0.1;fill:none;"/>
  <path d="M1.56157,156.412 L12.6215,172.208" style="stroke:rgb(0,0,0);stroke-width:0.1;fill:none" />
  <path d="M2.27948,152.915 L5.14964,157.014" style="stroke:rgb(0,0,0);stroke-width:0.1;fill:none" />
  <path d="M5.14964,157.014 L9.24853,154.144" style="stroke:rgb(0,0,0);stroke-width:0.1;fill:none" />
  <path d="M1.56157,156.412 A2.52454,2.52454 0 0,1 2.27948,152.915 " style="stroke:rgb(0,0,0);stroke-width:0.1;fill:none" />
  <path d="M7.06902,151.031 A0.791714,0.791714 0 0,1 7.59887,150.045 " style="stroke:rgb(0,0,0);stroke-width:0.1;fill:none" />
  <path d="M7.06902,151.031 L9.24853,154.144" style="stroke:rgb(0,0,0);stroke-width:0.1;fill:none" />
  <path d="M68.5663,165.481 L81.5385,165.481" style="stroke:rgb(0,0,0);stroke-width:0.1;fill:none" />
  <path d="M68.5663,176.089 A0.500397,0.500397 0 0,1 68.0659,176.59 " style="stroke:rgb(0,0,0);stroke-width:0.1;fill:none" />
  <path d="M68.5663,176.089 L68.5663,165.481" style="stroke:rgb(0,0,0);stroke-width:0.1;fill:none" />
  <path d="M81.5385,170.485 L81.5385,165.481" style="stroke:rgb(0,0,0);stroke-width:0.1;fill:none" />
  <path d="M34.5584,176.59 L68.0659,176.59" style="stroke:rgb(0,0,0);stroke-width:0.1;fill:none" />
  <path d="M119.049,170.485 L81.5385,170.485" style="stroke:rgb(0,0,0);stroke-width:0.1;fill:none" />
  <ellipse cx="77.0984" cy="14.5369" rx="1.50119" ry="1.50119" style="stroke:rgb(0,0,0);stroke-width:0.1;fill:none;"/>
  <path d="M82.1024,12.035 L82.1024,17.0389" style="stroke:rgb(0,0,0);stroke-width:0.1;fill:none" />
  <ellipse cx="169.095" cy="14.5369" rx="1.50119" ry="1.50119" style="stroke:rgb(0,0,0);stroke-width:0.1;fill:none;"/>
  <ellipse cx="77.0984" cy="106.534" rx="1.50119" ry="1.50119" style="stroke:rgb(0,0,0);stroke-width:0.1;fill:none;"/>
  <ellipse cx="169.095" cy="106.534" rx="1.50119" ry="1.50119" style="stroke:rgb(0,0,0);stroke-width:0.1;fill:none;"/>
  <path d="M102.118,12.035 L82.1024,12.035" style="stroke:rgb(0,0,0);stroke-width:0.1;fill:none" />
  <path d="M102.118,12.035 L102.118,17.0389" style="stroke:rgb(0,0,0);stroke-width:0.1;fill:none" />
  <path d="M82.1024,17.0389 L102.118,17.0389" style="stroke:rgb(0,0,0);stroke-width:0.1;fill:none" />
  <path d="M82.1024,104.032 L82.1024,109.036" style="stroke:rgb(0,0,0);stroke-width:0.1;fill:none" />
  <path d="M102.118,104.032 L82.1024,104.032" style="stroke:rgb(0,0,0);stroke-width:0.1;fill:none" />
  <path d="M102.118,104.032 L102.118,109.036" style="stroke:rgb(0,0,0);stroke-width:0.1;fill:none" />
  <path d="M82.1024,109.036 L102.118,109.036" style="stroke:rgb(0,0,0);stroke-width:0.1;fill:none" />
  <path d="M173.136,110.575 L73.0571,110.575" style="stroke:rgb(0,0,0);stroke-width:0.1;fill:none" />
  <path d="M173.136,10.4956 L173.136,110.575" style="stroke:rgb(0,0,0);stroke-width:0.1;fill:none" />
  <path d="M115.09,12.035 L115.09,17.0389" style="stroke:rgb(0,0,0);stroke-width:0.1;fill:none" />
  <path d="M115.09,104.032 L115.09,109.036" style="stroke:rgb(0,0,0);stroke-width:0.1;fill:none" />
  <path d="M164.129,10.4956 L164.129,19.5028" style="stroke:rgb(0,0,0);stroke-width:0.1;fill:none" />
  <path d="M164.129,19.5028 L135.106,19.5028" style="stroke:rgb(0,0,0);stroke-width:0.1;fill:none" />
  <path d="M164.129,10.4956 L173.136,10.4956" style="stroke:rgb(0,0,0);stroke-width:0.1;fill:none" />
  <path d="M125.098,12.035 L125.098,17.0389" style="stroke:rgb(0,0,0);stroke-width:0.1;fill:none" />
  <path d="M125.098,104.032 L125.098,109.036" style="stroke:rgb(0,0,0);stroke-width:0.1;fill:none" />
  <path d="M115.09,17.0389 L125.098,17.0389" style="stroke:rgb(0,0,0);stroke-width:0.1;fill:none" />
  <path d="M125.098,12.035 L115.09,12.035" style="stroke:rgb(0,0,0);stroke-width:0.1;fill:none" />
  <path d="M125.098,104.032 L115.09,104.032" style="stroke:rgb(0,0,0);stroke-width:0.1;fill:none" />
  <path d="M115.09,109.036 L125.098,109.036" style="stroke:rgb(0,0,0);stroke-width:0.1;fill:none" />
  <path d="M129.583,8.49405 A2.00159,2.00159 0 0,0 131.584,10.4956 " style="stroke:rgb(0,0,0);stroke-width:0.1;fill:none" />
  <path d="M114.609,10.4956 A2.00159,2.00159 0 0,0 116.611,8.49405 " style="stroke:rgb(0,0,0);stroke-width:0.1;fill:none" />
  <path d="M131.584,10.4956 L135.106,10.4956" style="stroke:rgb(0,0,0);stroke-width:0.1;fill:none" />
  <path d="M73.0571,10.4956 L114.609,10.4956" style="stroke:rgb(0,0,0);stroke-width:0.1;fill:none" />
  <ellipse cx="123.097" cy="5.99206" rx="2.4019" ry="2.4019" style="stroke:rgb(0,0,0);stroke-width:0.1;fill:none;"/>
  <path d="M129.583,3.49008 A2.00159,2.00159 0 0,0 127.581,1.48849 " style="stroke:rgb(0,0,0);stroke-width:0.1;fill:none" />
  <path d="M118.612,1.48849 A2.00159,2.00159 0 0,0 116.611,3.49008 " style="stroke:rgb(0,0,0);stroke-width:0.1;fill:none" />
  <path d="M118.612,1.48849 L127.581,1.48849" style="stroke:rgb(0,0,0);stroke-width:0.1;fill:none" />
  <path d="M116.611,8.49405 L116.611,3.49008" style="stroke:rgb(0,0,0);stroke-width:0.1;fill:none" />
  <path d="M129.583,3.49008 L129.583,8.49405" style="stroke:rgb(0,0,0);stroke-width:0.1;fill:none" />
  <ellipse cx="123.097" cy="64.5766" rx="2.50198" ry="2.50198" style="stroke:rgb(0,0,0);stroke-width:0.1;fill:none;"/>
  <path d="M173.136,13.5743 L178.14,13.5743" style="stroke:rgb(0,0,0);stroke-width:0.1;fill:none" />
  <path d="M178.14,13.5743 L178.14,18.5782" style="stroke:rgb(0,0,0);stroke-width:0.1;fill:none" />
  <path d="M173.136,110.575 L178.14,110.575" style="stroke:rgb(0,0,0);stroke-width:0.1;fill:none" />
  <path d="M178.14,110.575 L178.14,105.571" style="stroke:rgb(0,0,0);stroke-width:0.1;fill:none" />
  <path d="M181.643,98.4621 L184.646,98.4621" style="stroke:rgb(0,0,0);stroke-width:0.1;fill:none" />
  <path d="M180.282,101.635 L180.282,99.4629" style="stroke:rgb(0,0,0);stroke-width:0.1;fill:none" />
  <path d="M186.007,99.4629 L186.007,101.635" style="stroke:rgb(0,0,0);stroke-width:0.1;fill:none" />
  <path d="M181.643,101.635 L180.282,101.635" style="stroke:rgb(0,0,0);stroke-width:0.1;fill:none" />
  <path d="M186.007,101.635 L184.646,101.635" style="stroke:rgb(0,0,0);stroke-width:0.1;fill:none" />
  <path d="M184.646,98.4621 L184.646,99.4629" style="stroke:rgb(0,0,0);stroke-width:0.1;fill:none" />
  <path d="M184.646,99.4629 L186.007,99.4629" style="stroke:rgb(0,0,0);stroke-width:0.1;fill:none" />
  <path d="M180.282,99.4629 L181.643,99.4629" style="stroke:rgb(0,0,0);stroke-width:0.1;fill:none" />
  <path d="M181.643,99.4629 L181.643,98.4621" style="stroke:rgb(0,0,0);stroke-width:0.1;fill:none" />
  <path d="M181.643,105.071 L181.643,101.635" style="stroke:rgb(0,0,0);stroke-width:0.1;fill:none" />
  <path d="M184.646,101.635 L184.646,105.071" style="stroke:rgb(0,0,0);stroke-width:0.1;fill:none" />
  <path d="M181.143,105.571 L178.14,105.571" style="stroke:rgb(0,0,0);stroke-width:0.1;fill:none" />
  <path d="M181.143,105.571 A0.500397,0.500397 0 0,0 181.643,105.071 " style="stroke:rgb(0,0,0);stroke-width:0.1;fill:none" />
  <path d="M184.646,105.071 A0.500397,0.500397 0 0,0 185.146,105.571 " style="stroke:rgb(0,0,0);stroke-width:0.1;fill:none" />
  <path d="M181.143,105.571 L178.14,105.571" style="stroke:rgb(0,0,0);stroke-width:0.1;fill:none" />
  <path d="M181.143,105.571 A0.500397,0.500397 0 0,0 181.643,105.071 " style="stroke:rgb(0,0,0);stroke-width:0.1;fill:none" />
  <path d="M184.646,105.071 A0.500397,0.500397 0 0,0 185.146,105.571 " style="stroke:rgb(0,0,0);stroke-width:0.1;fill:none" />
  <path d="M181.643,25.6872 L184.646,25.6872" style="stroke:rgb(0,0,0);stroke-width:0.1;fill:none" />
  <path d="M180.282,22.5147 L180.282,24.6864" style="stroke:rgb(0,0,0);stroke-width:0.1;fill:none" />
  <path d="M186.007,24.6864 L186.007,22.5147" style="stroke:rgb(0,0,0);stroke-width:0.1;fill:none" />
  <path d="M181.643,22.5147 L180.282,22.5147" style="stroke:rgb(0,0,0);stroke-width:0.1;fill:none" />
  <path d="M186.007,22.5147 L184.646,22.5147" style="stroke:rgb(0,0,0);stroke-width:0.1;fill:none" />
  <path d="M184.646,25.6872 L184.646,24.6864" style="stroke:rgb(0,0,0);stroke-width:0.1;fill:none" />
  <path d="M184.646,24.6864 L186.007,24.6864" style="stroke:rgb(0,0,0);stroke-width:0.1;fill:none" />
  <path d="M180.282,24.6864 L181.643,24.6864" style="stroke:rgb(0,0,0);stroke-width:0.1;fill:none" />
  <path d="M181.643,24.6864 L181.643,25.6872" style="stroke:rgb(0,0,0);stroke-width:0.1;fill:none" />
  <path d="M181.643,19.0786 L181.643,22.5147" style="stroke:rgb(0,0,0);stroke-width:0.1;fill:none" />
  <path d="M184.646,22.5147 L184.646,19.0786" style="stroke:rgb(0,0,0);stroke-width:0.1;fill:none" />
  <path d="M181.643,19.0786 A0.500397,0.500397 0 0,0 181.143,18.5782 " style="stroke:rgb(0,0,0);stroke-width:0.1;fill:none" />
  <path d="M185.146,18.5782 A0.500397,0.500397 0 0,0 184.646,19.0786 " style="stroke:rgb(0,0,0);stroke-width:0.1;fill:none" />
  <path d="M181.143,18.5782 L178.14,18.5782" style="stroke:rgb(0,0,0);stroke-width:0.1;fill:none" />
  <path d="M181.643,19.0786 A0.500397,0.500397 0 0,0 181.143,18.5782 " style="stroke:rgb(0,0,0);stroke-width:0.1;fill:none" />
  <path d="M185.146,18.5782 A0.500397,0.500397 0 0,0 184.646,19.0786 " style="stroke:rgb(0,0,0);stroke-width:0.1;fill:none" />
  <path d="M185.146,105.571 L195.154,105.571" style="stroke:rgb(0,0,0);stroke-width:0.1;fill:none" />
  <path d="M185.146,18.5782 L195.154,18.5782" style="stroke:rgb(0,0,0);stroke-width:0.1;fill:none" />
  <path d="M195.154,18.5782 L195.154,105.571" style="stroke:rgb(0,0,0);stroke-width:0.1;fill:none" />
  <ellipse cx="141.592" cy="8.45592" rx="1.45115" ry="1.45115" style="stroke:rgb(0,0,0);stroke-width:0.1;fill:none;"/>
  <path d="M148.079,5.95393 A2.00159,2.00159 0 0,0 146.077,3.95235 " style="stroke:rgb(0,0,0);stroke-width:0.1;fill:none" />
  <path d="M137.108,3.95235 A2.00159,2.00159 0 0,0 135.106,5.95393 " style="stroke:rgb(0,0,0);stroke-width:0.1;fill:none" />
  <path d="M137.108,3.95235 L146.077,3.95235" style="stroke:rgb(0,0,0);stroke-width:0.1;fill:none" />
  <path d="M141.592,8.21763 L141.592,3.95235" style="stroke:rgb(0,0,0);stroke-width:0.1;fill:none" />
  <path d="M135.106,19.5028 L135.106,5.95393" style="stroke:rgb(0,0,0);stroke-width:0.1;fill:none" />
  <path d="M148.079,5.95393 L148.079,19.5028" style="stroke:rgb(0,0,0);stroke-width:0.1;fill:none" />
  <path d="M307.274,290.023 L61.0785,290.023" style="stroke:rgb(0,0,0);stroke-width:0.1;fill:none" />
  <path d="M12.6196,204.956 A6.00476,6.00476 0 0,0 7.71394,214.423 " style="stroke:rgb(0,0,0);stroke-width:0.1;fill:none" />
  <path d="M7.71394,214.423 L61.0785,290.023" style="stroke:rgb(0,0,0);stroke-width:0.1;fill:none" />
  <path d="M258.815,204.956 A6.00476,6.00476 0 0,0 253.909,214.423 " style="stroke:rgb(0,0,0);stroke-width:0.1;fill:none" />
  <path d="M12.6196,204.956 L258.815,204.956" style="stroke:rgb(0,0,0);stroke-width:0.1;fill:none" />
  <path d="M307.274,290.023 L253.909,214.423" style="stroke:rgb(0,0,0);stroke-width:0.1;fill:none" />
  <path d="M315.639,387.488 L69.4438,387.488" style="stroke:rgb(0,0,0);stroke-width:0.1;fill:none" />
  <path d="M315.639,387.488 L255.591,302.421" style="stroke:rgb(0,0,0);stroke-width:0.1;fill:none" />
  <path d="M9.39623,302.421 L255.591,302.421" style="stroke:rgb(0,0,0);stroke-width:0.1;fill:none" />
  <path d="M9.39623,302.421 L69.4438,387.488" style="stroke:rgb(0,0,0);stroke-width:0.1;fill:none" />
</svg>
