<?xml version="1.0" standalone="yes"?>

<svg width="336mm" height="397mm" viewBox="0 0 336 397" version="1.1"
xmlns="http://www.w3.org/2000/svg" style="stroke-linecap:round">
  <path d="M325.779,298.475 L79.1777,298.475" style="stroke:rgb(0,0,0);stroke-width:0.1;fill:none" />
  <path d="M30.6388,213.268 A6.01467,6.01467 0 0,0 25.725,222.751 " style="stroke:rgb(0,0,0);stroke-width:0.1;fill:none" />
  <path d="M25.725,222.751 L79.1777,298.475" style="stroke:rgb(0,0,0);stroke-width:0.1;fill:none" />
  <path d="M277.24,213.268 A6.01467,6.01467 0 0,0 272.326,222.751 " style="stroke:rgb(0,0,0);stroke-width:0.1;fill:none" />
  <path d="M30.6388,213.268 L277.24,213.268" style="stroke:rgb(0,0,0);stroke-width:0.1;fill:none" />
  <path d="M325.779,298.475 L272.326,222.751" style="stroke:rgb(0,0,0);stroke-width:0.1;fill:none" />
  <path d="M334.158,396.101 L87.5568,396.101" style="stroke:rgb(0,0,0);stroke-width:0.1;fill:none" />
  <path d="M334.158,396.101 L274.011,310.894" style="stroke:rgb(0,0,0);stroke-width:0.1;fill:none" />
  <path d="M27.4101,310.894 L274.011,310.894" style="stroke:rgb(0,0,0);stroke-width:0.1;fill:none" />
  <path d="M27.4101,310.894 L87.5568,396.101" style="stroke:rgb(0,0,0);stroke-width:0.1;fill:none" />
  <ellipse cx="59.0978" cy="71.635" rx="2.75672" ry="2.75672" style="stroke:rgb(0,0,0);stroke-width:0.1;fill:none;"/>
  <ellipse cx="38.9486" cy="58.6032" rx="2.75672" ry="2.75672" style="stroke:rgb(0,0,0);stroke-width:0.1;fill:none;"/>
  <ellipse cx="79.2469" cy="58.6032" rx="2.75672" ry="2.75672" style="stroke:rgb(0,0,0);stroke-width:0.1;fill:none;"/>
  <path d="M65.8843,89.3081 L63.1376,89.3081" style="stroke:rgb(0,0,0);stroke-width:0.1;fill:none" />
  <path d="M65.8843,92.0548 L65.8843,89.3081" style="stroke:rgb(0,0,0);stroke-width:0.1;fill:none" />
  <path d="M63.1376,89.3081 L63.1376,92.0548" style="stroke:rgb(0,0,0);stroke-width:0.1;fill:none" />
  <path d="M63.1376,92.0548 L65.8843,92.0548" style="stroke:rgb(0,0,0);stroke-width:0.1;fill:none" />
  <path d="M55.0579,89.3081 L52.3112,89.3081" style="stroke:rgb(0,0,0);stroke-width:0.1;fill:none" />
  <path d="M55.0579,92.0548 L55.0579,89.3081" style="stroke:rgb(0,0,0);stroke-width:0.1;fill:none" />
  <path d="M52.3112,89.3081 L52.3112,92.0548" style="stroke:rgb(0,0,0);stroke-width:0.1;fill:none" />
  <path d="M52.3112,92.0548 L55.0579,92.0548" style="stroke:rgb(0,0,0);stroke-width:0.1;fill:none" />
  <path d="M60.4711,57.2299 L57.7244,57.2299" style="stroke:rgb(0,0,0);stroke-width:0.1;fill:none" />
  <path d="M60.4711,59.9766 L60.4711,57.2299" style="stroke:rgb(0,0,0);stroke-width:0.1;fill:none" />
  <path d="M57.7244,57.2299 L57.7244,59.9766" style="stroke:rgb(0,0,0);stroke-width:0.1;fill:none" />
  <path d="M57.7244,59.9766 L60.4711,59.9766" style="stroke:rgb(0,0,0);stroke-width:0.1;fill:none" />
  <path d="M65.8843,43.1957 L63.1376,43.1957" style="stroke:rgb(0,0,0);stroke-width:0.1;fill:none" />
  <path d="M65.8843,45.9424 L65.8843,43.1957" style="stroke:rgb(0,0,0);stroke-width:0.1;fill:none" />
  <path d="M63.1376,43.1957 L63.1376,45.9424" style="stroke:rgb(0,0,0);stroke-width:0.1;fill:none" />
  <path d="M63.1376,45.9424 L65.8843,45.9424" style="stroke:rgb(0,0,0);stroke-width:0.1;fill:none" />
  <path d="M55.0579,43.1957 L52.3112,43.1957" style="stroke:rgb(0,0,0);stroke-width:0.1;fill:none" />
  <path d="M55.0579,45.9424 L55.0579,43.1957" style="stroke:rgb(0,0,0);stroke-width:0.1;fill:none" />
  <path d="M52.3112,43.1957 L52.3112,45.9424" style="stroke:rgb(0,0,0);stroke-width:0.1;fill:none" />
  <path d="M52.3112,45.9424 L55.0579,45.9424" style="stroke:rgb(0,0,0);stroke-width:0.1;fill:none" />
  <ellipse cx="42.0562" cy="21.5128" rx="1.50367" ry="1.50367" style="stroke:rgb(0,0,0);stroke-width:0.25;fill:none;"/>
  <path d="M47.0685,19.0067 L52.0807,19.0067" style="stroke:rgb(0,0,0);stroke-width:0.25;fill:none" />
  <path d="M47.0685,24.0189 L52.0807,24.0189" style="stroke:rgb(0,0,0);stroke-width:0.25;fill:none" />
  <path d="M37.044,19.0067 L32.0318,19.0067" style="stroke:rgb(0,0,0);stroke-width:0.25;fill:none" />
  <path d="M37.044,24.0189 L32.0318,24.0189" style="stroke:rgb(0,0,0);stroke-width:0.25;fill:none" />
  <path d="M32.0318,19.0067 L32.0318,24.0189" style="stroke:rgb(0,0,0);stroke-width:0.25;fill:none" />
  <path d="M37.044,19.0067 L37.044,24.0189" style="stroke:rgb(0,0,0);stroke-width:0.25;fill:none" />
  <path d="M47.0685,19.0067 L47.0685,24.0189" style="stroke:rgb(0,0,0);stroke-width:0.25;fill:none" />
  <path d="M52.0807,19.0067 L52.0807,24.0189" style="stroke:rgb(0,0,0);stroke-width:0.25;fill:none" />
  <ellipse cx="74.1746" cy="58.5631" rx="2.7066" ry="2.7066" style="stroke:rgb(0,0,0);stroke-width:0.1;fill:none;"/>
  <ellipse cx="59.1379" cy="73.5998" rx="2.7066" ry="2.7066" style="stroke:rgb(0,0,0);stroke-width:0.1;fill:none;"/>
  <ellipse cx="44.1012" cy="58.5631" rx="2.7066" ry="2.7066" style="stroke:rgb(0,0,0);stroke-width:0.1;fill:none;"/>
  <ellipse cx="42.0562" cy="113.661" rx="1.50367" ry="1.50367" style="stroke:rgb(0,0,0);stroke-width:0.25;fill:none;"/>
  <path d="M47.0685,111.155 L52.0807,111.155" style="stroke:rgb(0,0,0);stroke-width:0.25;fill:none" />
  <path d="M47.0685,116.167 L52.0807,116.167" style="stroke:rgb(0,0,0);stroke-width:0.25;fill:none" />
  <path d="M37.044,111.155 L32.0318,111.155" style="stroke:rgb(0,0,0);stroke-width:0.25;fill:none" />
  <path d="M37.044,116.167 L32.0318,116.167" style="stroke:rgb(0,0,0);stroke-width:0.25;fill:none" />
  <path d="M32.0318,111.155 L32.0318,116.167" style="stroke:rgb(0,0,0);stroke-width:0.25;fill:none" />
  <path d="M37.044,111.155 L37.044,116.167" style="stroke:rgb(0,0,0);stroke-width:0.25;fill:none" />
  <path d="M47.0685,111.155 L47.0685,116.167" style="stroke:rgb(0,0,0);stroke-width:0.25;fill:none" />
  <path d="M52.0807,111.155 L52.0807,116.167" style="stroke:rgb(0,0,0);stroke-width:0.25;fill:none" />
  <ellipse cx="76.1393" cy="21.5128" rx="1.50367" ry="1.50367" style="stroke:rgb(0,0,0);stroke-width:0.25;fill:none;"/>
  <path d="M81.1516,19.0067 L86.1638,19.0067" style="stroke:rgb(0,0,0);stroke-width:0.25;fill:none" />
  <path d="M81.1516,24.0189 L86.1638,24.0189" style="stroke:rgb(0,0,0);stroke-width:0.25;fill:none" />
  <path d="M71.1271,19.0067 L66.1149,19.0067" style="stroke:rgb(0,0,0);stroke-width:0.25;fill:none" />
  <path d="M71.1271,24.0189 L66.1149,24.0189" style="stroke:rgb(0,0,0);stroke-width:0.25;fill:none" />
  <path d="M66.1149,19.0067 L66.1149,24.0189" style="stroke:rgb(0,0,0);stroke-width:0.25;fill:none" />
  <path d="M71.1271,19.0067 L71.1271,24.0189" style="stroke:rgb(0,0,0);stroke-width:0.25;fill:none" />
  <path d="M81.1516,19.0067 L81.1516,24.0189" style="stroke:rgb(0,0,0);stroke-width:0.25;fill:none" />
  <path d="M86.1638,19.0067 L86.1638,24.0189" style="stroke:rgb(0,0,0);stroke-width:0.25;fill:none" />
  <ellipse cx="76.1393" cy="113.661" rx="1.50367" ry="1.50367" style="stroke:rgb(0,0,0);stroke-width:0.25;fill:none;"/>
  <path d="M81.1516,111.155 L86.1638,111.155" style="stroke:rgb(0,0,0);stroke-width:0.25;fill:none" />
  <path d="M81.1516,116.167 L86.1638,116.167" style="stroke:rgb(0,0,0);stroke-width:0.25;fill:none" />
  <path d="M71.1271,111.155 L66.1149,111.155" style="stroke:rgb(0,0,0);stroke-width:0.25;fill:none" />
  <path d="M71.1271,116.167 L66.1149,116.167" style="stroke:rgb(0,0,0);stroke-width:0.25;fill:none" />
  <path d="M66.1149,111.155 L66.1149,116.167" style="stroke:rgb(0,0,0);stroke-width:0.25;fill:none" />
  <path d="M71.1271,111.155 L71.1271,116.167" style="stroke:rgb(0,0,0);stroke-width:0.25;fill:none" />
  <path d="M81.1516,111.155 L81.1516,116.167" style="stroke:rgb(0,0,0);stroke-width:0.25;fill:none" />
  <path d="M86.1638,111.155 L86.1638,116.167" style="stroke:rgb(0,0,0);stroke-width:0.25;fill:none" />
  <path d="M65.5946,10.4479 A2.00489,2.00489 0 0,0 63.5897,8.44301 " style="stroke:rgb(0,0,0);stroke-width:0.1;fill:none" />
  <path d="M54.6059,8.44301 A2.00489,2.00489 0 0,0 52.601,10.4479 " style="stroke:rgb(0,0,0);stroke-width:0.1;fill:none" />
  <path d="M54.6059,8.44301 L63.5897,8.44301" style="stroke:rgb(0,0,0);stroke-width:0.1;fill:none" />
  <path d="M59.0978,11.5005 L59.0978,8.44301" style="stroke:rgb(0,0,0);stroke-width:0.1;fill:none" />
  <ellipse cx="59.0978" cy="12.954" rx="1.56381" ry="1.56381" style="stroke:rgb(0,0,0);stroke-width:0.1;fill:none;"/>
  <path d="M95.1858,119.753 L23.0098,119.753" style="stroke:rgb(0,0,0);stroke-width:0.1;fill:none" />
  <path d="M23.0098,15.4983 L50.5961,15.4983" style="stroke:rgb(0,0,0);stroke-width:0.1;fill:none" />
  <path d="M23.0098,119.753 L23.0098,15.4983" style="stroke:rgb(0,0,0);stroke-width:0.1;fill:none" />
  <path d="M50.5961,15.4983 A2.00489,2.00489 0 0,0 52.601,13.4934 " style="stroke:rgb(0,0,0);stroke-width:0.1;fill:none" />
  <path d="M67.5995,15.4983 L95.1858,15.4983" style="stroke:rgb(0,0,0);stroke-width:0.1;fill:none" />
  <path d="M65.5946,13.4934 A2.00489,2.00489 0 0,0 67.5995,15.4983 " style="stroke:rgb(0,0,0);stroke-width:0.1;fill:none" />
  <path d="M95.1858,15.4983 L95.1858,119.753" style="stroke:rgb(0,0,0);stroke-width:0.1;fill:none" />
  <path d="M65.5946,10.4479 L65.5946,13.4934" style="stroke:rgb(0,0,0);stroke-width:0.1;fill:none" />
  <path d="M52.601,13.4934 L52.601,10.4479" style="stroke:rgb(0,0,0);stroke-width:0.1;fill:none" />
  <ellipse cx="99.2338" cy="21.513" rx="1.50367" ry="1.50367" style="stroke:rgb(0,0,0);stroke-width:0.1;fill:none;"/>
  <path d="M104.246,19.0069 L104.246,24.0191" style="stroke:rgb(0,0,0);stroke-width:0.1;fill:none" />
  <ellipse cx="191.382" cy="21.513" rx="1.50367" ry="1.50367" style="stroke:rgb(0,0,0);stroke-width:0.1;fill:none;"/>
  <ellipse cx="99.2338" cy="113.662" rx="1.50367" ry="1.50367" style="stroke:rgb(0,0,0);stroke-width:0.1;fill:none;"/>
  <ellipse cx="191.382" cy="113.662" rx="1.50367" ry="1.50367" style="stroke:rgb(0,0,0);stroke-width:0.1;fill:none;"/>
  <path d="M104.246,111.155 L104.246,116.168" style="stroke:rgb(0,0,0);stroke-width:0.1;fill:none" />
  <path d="M186.408,17.465 L186.408,26.487" style="stroke:rgb(0,0,0);stroke-width:0.1;fill:none" />
  <path d="M186.408,17.465 L195.43,17.465" style="stroke:rgb(0,0,0);stroke-width:0.1;fill:none" />
  <ellipse cx="145.308" cy="12.954" rx="2.40587" ry="2.40587" style="stroke:rgb(0,0,0);stroke-width:0.1;fill:none;"/>
  <path d="M151.805,10.4479 A2.00489,2.00489 0 0,0 149.8,8.44301 " style="stroke:rgb(0,0,0);stroke-width:0.1;fill:none" />
  <path d="M140.816,8.44301 A2.00489,2.00489 0 0,0 138.811,10.4479 " style="stroke:rgb(0,0,0);stroke-width:0.1;fill:none" />
  <path d="M140.816,8.44301 L149.8,8.44301" style="stroke:rgb(0,0,0);stroke-width:0.1;fill:none" />
  <path d="M138.31,19.0069 L138.31,24.0191" style="stroke:rgb(0,0,0);stroke-width:0.1;fill:none" />
  <path d="M138.31,111.155 L138.31,116.168" style="stroke:rgb(0,0,0);stroke-width:0.1;fill:none" />
  <path d="M138.31,111.155 L104.246,111.155" style="stroke:rgb(0,0,0);stroke-width:0.1;fill:none" />
  <path d="M104.246,116.168 L138.31,116.168" style="stroke:rgb(0,0,0);stroke-width:0.1;fill:none" />
  <path d="M138.31,19.0069 L104.246,19.0069" style="stroke:rgb(0,0,0);stroke-width:0.1;fill:none" />
  <path d="M104.246,24.0191 L138.31,24.0191" style="stroke:rgb(0,0,0);stroke-width:0.1;fill:none" />
  <path d="M157.337,26.487 A14.5354,14.5354 0 0,0 186.408,26.487 " style="stroke:rgb(0,0,0);stroke-width:0.1;fill:none" />
  <ellipse cx="145.308" cy="71.6352" rx="3.00733" ry="3.00733" style="stroke:rgb(0,0,0);stroke-width:0.1;fill:none;"/>
  <path d="M195.43,119.753 L95.1858,119.753" style="stroke:rgb(0,0,0);stroke-width:0.1;fill:none" />
  <path d="M195.43,17.465 L195.43,119.753" style="stroke:rgb(0,0,0);stroke-width:0.1;fill:none" />
  <path d="M95.1858,15.4983 L136.806,15.4983" style="stroke:rgb(0,0,0);stroke-width:0.1;fill:none" />
  <path d="M136.806,15.4983 A2.00489,2.00489 0 0,0 138.811,13.4934 " style="stroke:rgb(0,0,0);stroke-width:0.1;fill:none" />
  <path d="M153.81,15.4983 L157.337,15.4983" style="stroke:rgb(0,0,0);stroke-width:0.1;fill:none" />
  <path d="M151.805,13.4934 A2.00489,2.00489 0 0,0 153.81,15.4983 " style="stroke:rgb(0,0,0);stroke-width:0.1;fill:none" />
  <path d="M157.337,26.487 L157.337,15.4983" style="stroke:rgb(0,0,0);stroke-width:0.1;fill:none" />
  <path d="M151.805,10.4479 L151.805,13.4934" style="stroke:rgb(0,0,0);stroke-width:0.1;fill:none" />
  <path d="M138.811,13.4934 L138.811,10.4479" style="stroke:rgb(0,0,0);stroke-width:0.1;fill:none" />
  <path d="M23.0098,112.659 L17.9976,112.659" style="stroke:rgb(0,0,0);stroke-width:0.1;fill:none" />
  <path d="M17.9976,112.659 L17.9976,107.647" style="stroke:rgb(0,0,0);stroke-width:0.1;fill:none" />
  <path d="M23.0098,15.4983 L17.9976,15.4983" style="stroke:rgb(0,0,0);stroke-width:0.1;fill:none" />
  <path d="M17.9976,15.4983 L17.9976,20.5105" style="stroke:rgb(0,0,0);stroke-width:0.1;fill:none" />
  <path d="M14.489,27.6312 L11.4817,27.6312" style="stroke:rgb(0,0,0);stroke-width:0.1;fill:none" />
  <path d="M15.8523,24.4535 L15.8523,26.6288" style="stroke:rgb(0,0,0);stroke-width:0.1;fill:none" />
  <path d="M10.1183,26.6288 L10.1183,24.4535" style="stroke:rgb(0,0,0);stroke-width:0.1;fill:none" />
  <path d="M14.489,24.4535 L15.8523,24.4535" style="stroke:rgb(0,0,0);stroke-width:0.1;fill:none" />
  <path d="M10.1183,24.4535 L11.4817,24.4535" style="stroke:rgb(0,0,0);stroke-width:0.1;fill:none" />
  <path d="M11.4817,27.6312 L11.4817,26.6288" style="stroke:rgb(0,0,0);stroke-width:0.1;fill:none" />
  <path d="M11.4817,26.6288 L10.1183,26.6288" style="stroke:rgb(0,0,0);stroke-width:0.1;fill:none" />
  <path d="M15.8523,26.6288 L14.489,26.6288" style="stroke:rgb(0,0,0);stroke-width:0.1;fill:none" />
  <path d="M14.489,26.6288 L14.489,27.6312" style="stroke:rgb(0,0,0);stroke-width:0.1;fill:none" />
  <path d="M14.489,21.0118 L14.489,24.4535" style="stroke:rgb(0,0,0);stroke-width:0.1;fill:none" />
  <path d="M11.4817,24.4535 L11.4817,21.0118" style="stroke:rgb(0,0,0);stroke-width:0.1;fill:none" />
  <path d="M14.9902,20.5105 L17.9976,20.5105" style="stroke:rgb(0,0,0);stroke-width:0.1;fill:none" />
  <path d="M14.9902,20.5105 A0.501222,0.501222 0 0,0 14.489,21.0118 " style="stroke:rgb(0,0,0);stroke-width:0.1;fill:none" />
  <path d="M11.4817,21.0118 A0.501222,0.501222 0 0,0 10.9804,20.5105 " style="stroke:rgb(0,0,0);stroke-width:0.1;fill:none" />
  <path d="M14.9902,20.5105 L17.9976,20.5105" style="stroke:rgb(0,0,0);stroke-width:0.1;fill:none" />
  <path d="M14.9902,20.5105 A0.501222,0.501222 0 0,0 14.489,21.0118 " style="stroke:rgb(0,0,0);stroke-width:0.1;fill:none" />
  <path d="M11.4817,21.0118 A0.501222,0.501222 0 0,0 10.9804,20.5105 " style="stroke:rgb(0,0,0);stroke-width:0.1;fill:none" />
  <path d="M14.489,100.526 L11.4817,100.526" style="stroke:rgb(0,0,0);stroke-width:0.1;fill:none" />
  <path d="M15.8523,103.704 L15.8523,101.529" style="stroke:rgb(0,0,0);stroke-width:0.1;fill:none" />
  <path d="M10.1183,101.529 L10.1183,103.704" style="stroke:rgb(0,0,0);stroke-width:0.1;fill:none" />
  <path d="M14.489,103.704 L15.8523,103.704" style="stroke:rgb(0,0,0);stroke-width:0.1;fill:none" />
  <path d="M10.1183,103.704 L11.4817,103.704" style="stroke:rgb(0,0,0);stroke-width:0.1;fill:none" />
  <path d="M11.4817,100.526 L11.4817,101.529" style="stroke:rgb(0,0,0);stroke-width:0.1;fill:none" />
  <path d="M11.4817,101.529 L10.1183,101.529" style="stroke:rgb(0,0,0);stroke-width:0.1;fill:none" />
  <path d="M15.8523,101.529 L14.489,101.529" style="stroke:rgb(0,0,0);stroke-width:0.1;fill:none" />
  <path d="M14.489,101.529 L14.489,100.526" style="stroke:rgb(0,0,0);stroke-width:0.1;fill:none" />
  <path d="M14.489,107.146 L14.489,103.704" style="stroke:rgb(0,0,0);stroke-width:0.1;fill:none" />
  <path d="M11.4817,103.704 L11.4817,107.146" style="stroke:rgb(0,0,0);stroke-width:0.1;fill:none" />
  <path d="M14.489,107.146 A0.501222,0.501222 0 0,0 14.9902,107.647 " style="stroke:rgb(0,0,0);stroke-width:0.1;fill:none" />
  <path d="M10.9804,107.647 A0.501222,0.501222 0 0,0 11.4817,107.146 " style="stroke:rgb(0,0,0);stroke-width:0.1;fill:none" />
  <path d="M14.9902,107.647 L17.9976,107.647" style="stroke:rgb(0,0,0);stroke-width:0.1;fill:none" />
  <path d="M14.489,107.146 A0.501222,0.501222 0 0,0 14.9902,107.647 " style="stroke:rgb(0,0,0);stroke-width:0.1;fill:none" />
  <path d="M10.9804,107.647 A0.501222,0.501222 0 0,0 11.4817,107.146 " style="stroke:rgb(0,0,0);stroke-width:0.1;fill:none" />
  <path d="M0.266816,107.647 L0.266816,20.5105" style="stroke:rgb(0,0,0);stroke-width:0.1;fill:none" />
  <path d="M10.9804,20.5105 L0.266816,20.5105" style="stroke:rgb(0,0,0);stroke-width:0.1;fill:none" />
  <path d="M10.9804,107.647 L0.266816,107.647" style="stroke:rgb(0,0,0);stroke-width:0.1;fill:none" />
  <path d="M162.87,36.6289 L175.863,36.6289" style="stroke:rgb(0,0,0);stroke-width:0.1;fill:none" />
  <path d="M175.863,23.0577 A2.00489,2.00489 0 0,0 173.859,21.0528 " style="stroke:rgb(0,0,0);stroke-width:0.1;fill:none" />
  <path d="M164.875,21.0528 A2.00489,2.00489 0 0,0 162.87,23.0577 " style="stroke:rgb(0,0,0);stroke-width:0.1;fill:none" />
  <path d="M164.875,21.0528 L173.859,21.0528" style="stroke:rgb(0,0,0);stroke-width:0.1;fill:none" />
  <path d="M162.87,36.6289 L162.87,23.0577" style="stroke:rgb(0,0,0);stroke-width:0.1;fill:none" />
  <path d="M175.863,23.0577 L175.863,36.6289" style="stroke:rgb(0,0,0);stroke-width:0.1;fill:none" />
  <path d="M169.367,24.0401 L169.367,21.0528" style="stroke:rgb(0,0,0);stroke-width:0.1;fill:none" />
  <ellipse cx="169.367" cy="25.5638" rx="1.56381" ry="1.56381" style="stroke:rgb(0,0,0);stroke-width:0.1;fill:none;"/>
  <path d="M199.089,117.246 A1.00244,1.00244 0 0,0 198.087,118.249 " style="stroke:rgb(0,0,0);stroke-width:0.1;fill:none" />
  <ellipse cx="217.434" cy="119.252" rx="3.50856" ry="3.50856" style="stroke:rgb(0,0,0);stroke-width:0.1;fill:none;"/>
  <path d="M201.457,124.125 A2.16127,2.16127 0 0,0 205.109,122.559 " style="stroke:rgb(0,0,0);stroke-width:0.1;fill:none" />
  <path d="M199.089,124.125 L201.457,124.125" style="stroke:rgb(0,0,0);stroke-width:0.1;fill:none" />
  <ellipse cx="211.87" cy="126.268" rx="1.00244" ry="1.00244" style="stroke:rgb(0,0,0);stroke-width:0.1;fill:none;"/>
  <path d="M204.894,123.505 L210.938,125.899" style="stroke:rgb(0,0,0);stroke-width:0.1;fill:none" />
  <path d="M219.164,15.8254 L219.164,15.8254" style="stroke:rgb(0,0,0);stroke-width:0.1;fill:none" />
  <path d="M219.164,15.8254 L219.164,15.8254" style="stroke:rgb(0,0,0);stroke-width:0.1;fill:none" />
  <ellipse cx="217.66" cy="15.4983" rx="1.50367" ry="1.50367" style="stroke:rgb(0,0,0);stroke-width:0.1;fill:none;"/>
  <path d="M219.164,11.9898 L219.164,15.4983" style="stroke:rgb(0,0,0);stroke-width:0.1;fill:none" />
  <path d="M219.164,15.4983 L219.164,19.0069" style="stroke:rgb(0,0,0);stroke-width:0.1;fill:none" />
  <path d="M205.11,11.689 A2.16127,2.16127 0 0,0 201.459,10.1234 " style="stroke:rgb(0,0,0);stroke-width:0.1;fill:none" />
  <path d="M198.088,9.12093 A1.00244,1.00244 0 0,0 199.09,10.1234 " style="stroke:rgb(0,0,0);stroke-width:0.1;fill:none" />
  <path d="M199.09,10.1234 L201.459,10.1234" style="stroke:rgb(0,0,0);stroke-width:0.1;fill:none" />
  <ellipse cx="211.872" cy="7.97998" rx="1.00244" ry="1.00244" style="stroke:rgb(0,0,0);stroke-width:0.1;fill:none;"/>
  <path d="M204.895,10.743 L210.94,8.34911" style="stroke:rgb(0,0,0);stroke-width:0.1;fill:none" />
  <path d="M198.088,15.9995 A1.00244,1.00244 0 0,0 199.09,17.002 " style="stroke:rgb(0,0,0);stroke-width:0.1;fill:none" />
  <ellipse cx="217.434" cy="124.766" rx="1.20293" ry="1.20293" style="stroke:rgb(0,0,0);stroke-width:0.1;fill:none;"/>
  <ellipse cx="217.434" cy="113.739" rx="1.20293" ry="1.20293" style="stroke:rgb(0,0,0);stroke-width:0.1;fill:none;"/>
  <path d="M198.087,119.753 A1.00244,1.00244 0 0,0 199.089,120.755 " style="stroke:rgb(0,0,0);stroke-width:0.1;fill:none" />
  <path d="M198.087,118.249 L198.087,119.753" style="stroke:rgb(0,0,0);stroke-width:0.1;fill:none" />
  <path d="M199.089,120.755 L201.758,120.755" style="stroke:rgb(0,0,0);stroke-width:0.1;fill:none" />
  <path d="M204.894,123.505 A2.16428,2.16428 0 0,0 201.756,120.752 " style="stroke:rgb(0,0,0);stroke-width:0.1;fill:none" />
  <path d="M199.09,13.4934 A1.00244,1.00244 0 0,0 198.088,14.4959 " style="stroke:rgb(0,0,0);stroke-width:0.1;fill:none" />
  <path d="M198.088,15.9995 L198.088,14.4959" style="stroke:rgb(0,0,0);stroke-width:0.1;fill:none" />
  <path d="M199.09,13.4934 L201.759,13.4934" style="stroke:rgb(0,0,0);stroke-width:0.1;fill:none" />
  <path d="M201.759,13.4934 A2.16127,2.16127 0 0,0 204.892,10.7444 " style="stroke:rgb(0,0,0);stroke-width:0.1;fill:none" />
  <path d="M206.108,1.10138 A8.01956,8.01956 0 0,0 198.088,9.12093 " style="stroke:rgb(0,0,0);stroke-width:0.1;fill:none" />
  <path d="M205.555,117.246 L205.555,115.203" style="stroke:rgb(0,0,0);stroke-width:0.1;fill:none" />
  <path d="M205.555,111.194 L205.555,108.186" style="stroke:rgb(0,0,0);stroke-width:0.1;fill:none" />
  <path d="M206.056,114.702 A0.501222,0.501222 0 0,0 205.555,115.203 " style="stroke:rgb(0,0,0);stroke-width:0.1;fill:none" />
  <path d="M205.555,111.194 A0.501222,0.501222 0 0,0 206.056,111.695 " style="stroke:rgb(0,0,0);stroke-width:0.1;fill:none" />
  <path d="M206.056,22.5536 A0.501222,0.501222 0 0,0 205.555,23.0548 " style="stroke:rgb(0,0,0);stroke-width:0.1;fill:none" />
  <path d="M205.555,19.0451 A0.501222,0.501222 0 0,0 206.056,19.5463 " style="stroke:rgb(0,0,0);stroke-width:0.1;fill:none" />
  <path d="M205.555,19.0451 L205.555,17.002" style="stroke:rgb(0,0,0);stroke-width:0.1;fill:none" />
  <path d="M199.089,117.246 L205.555,117.246" style="stroke:rgb(0,0,0);stroke-width:0.1;fill:none" />
  <path d="M199.09,17.002 L205.556,17.002" style="stroke:rgb(0,0,0);stroke-width:0.1;fill:none" />
  <path d="M222.196,19.0069 L222.196,11.9898" style="stroke:rgb(0,0,0);stroke-width:0.1;fill:none" />
  <path d="M222.196,11.9898 L219.164,11.9898" style="stroke:rgb(0,0,0);stroke-width:0.1;fill:none" />
  <path d="M219.164,19.0069 L222.196,19.0069" style="stroke:rgb(0,0,0);stroke-width:0.1;fill:none" />
  <path d="M212.174,114.702 L212.174,111.695" style="stroke:rgb(0,0,0);stroke-width:0.1;fill:none" />
  <path d="M208.997,116.065 L211.172,116.065" style="stroke:rgb(0,0,0);stroke-width:0.1;fill:none" />
  <path d="M211.172,110.331 L208.997,110.331" style="stroke:rgb(0,0,0);stroke-width:0.1;fill:none" />
  <path d="M208.997,114.702 L208.997,116.065" style="stroke:rgb(0,0,0);stroke-width:0.1;fill:none" />
  <path d="M208.997,110.331 L208.997,111.695" style="stroke:rgb(0,0,0);stroke-width:0.1;fill:none" />
  <path d="M212.174,111.695 L211.172,111.695" style="stroke:rgb(0,0,0);stroke-width:0.1;fill:none" />
  <path d="M211.172,111.695 L211.172,110.331" style="stroke:rgb(0,0,0);stroke-width:0.1;fill:none" />
  <path d="M211.172,116.065 L211.172,114.702" style="stroke:rgb(0,0,0);stroke-width:0.1;fill:none" />
  <path d="M211.172,114.702 L212.174,114.702" style="stroke:rgb(0,0,0);stroke-width:0.1;fill:none" />
  <path d="M212.174,22.5536 L212.174,19.5463" style="stroke:rgb(0,0,0);stroke-width:0.1;fill:none" />
  <path d="M208.997,23.9169 L211.172,23.9169" style="stroke:rgb(0,0,0);stroke-width:0.1;fill:none" />
  <path d="M211.172,18.183 L208.997,18.183" style="stroke:rgb(0,0,0);stroke-width:0.1;fill:none" />
  <path d="M208.997,22.5536 L208.997,23.9169" style="stroke:rgb(0,0,0);stroke-width:0.1;fill:none" />
  <path d="M208.997,18.183 L208.997,19.5463" style="stroke:rgb(0,0,0);stroke-width:0.1;fill:none" />
  <path d="M212.174,19.5463 L211.172,19.5463" style="stroke:rgb(0,0,0);stroke-width:0.1;fill:none" />
  <path d="M211.172,19.5463 L211.172,18.183" style="stroke:rgb(0,0,0);stroke-width:0.1;fill:none" />
  <path d="M211.172,23.9169 L211.172,22.5536" style="stroke:rgb(0,0,0);stroke-width:0.1;fill:none" />
  <path d="M211.172,22.5536 L212.174,22.5536" style="stroke:rgb(0,0,0);stroke-width:0.1;fill:none" />
  <path d="M206.056,114.702 L208.997,114.702" style="stroke:rgb(0,0,0);stroke-width:0.1;fill:none" />
  <path d="M208.997,111.695 L206.056,111.695" style="stroke:rgb(0,0,0);stroke-width:0.1;fill:none" />
  <path d="M206.056,22.5536 L208.997,22.5536" style="stroke:rgb(0,0,0);stroke-width:0.1;fill:none" />
  <path d="M208.997,19.5463 L206.056,19.5463" style="stroke:rgb(0,0,0);stroke-width:0.1;fill:none" />
  <path d="M199.44,107.685 A0.501222,0.501222 0 0,0 199.941,108.186 " style="stroke:rgb(0,0,0);stroke-width:0.1;fill:none" />
  <path d="M205.555,108.186 L199.941,108.186" style="stroke:rgb(0,0,0);stroke-width:0.1;fill:none" />
  <path d="M210.567,73.621 L210.567,60.6274" style="stroke:rgb(0,0,0);stroke-width:0.1;fill:none" />
  <path d="M199.941,73.621 A0.501222,0.501222 0 0,0 199.44,74.1222 " style="stroke:rgb(0,0,0);stroke-width:0.1;fill:none" />
  <path d="M199.941,73.621 L210.567,73.621" style="stroke:rgb(0,0,0);stroke-width:0.1;fill:none" />
  <path d="M205.555,60.6274 L210.567,60.6274" style="stroke:rgb(0,0,0);stroke-width:0.1;fill:none" />
  <path d="M199.44,107.685 L199.44,74.1222" style="stroke:rgb(0,0,0);stroke-width:0.1;fill:none" />
  <path d="M205.555,23.0548 L205.555,60.6274" style="stroke:rgb(0,0,0);stroke-width:0.1;fill:none" />
  <path d="M203.829,131.562 L198.438,127.787" style="stroke:rgb(0,0,0);stroke-width:0.1;fill:none" />
  <ellipse cx="216.38" cy="134.118" rx="1.50367" ry="1.50367" style="stroke:rgb(0,0,0);stroke-width:0.1;fill:none;"/>
  <path d="M219.651,142.64 L203.829,131.562" style="stroke:rgb(0,0,0);stroke-width:0.1;fill:none" />
  <path d="M223.154,141.921 L219.048,139.046" style="stroke:rgb(0,0,0);stroke-width:0.1;fill:none" />
  <path d="M219.048,139.046 L221.923,134.941" style="stroke:rgb(0,0,0);stroke-width:0.1;fill:none" />
  <path d="M219.651,142.64 A2.52871,2.52871 0 0,0 223.154,141.921 " style="stroke:rgb(0,0,0);stroke-width:0.1;fill:none" />
  <path d="M199.089,124.125 A2.14854,2.14854 0 0,0 198.438,127.787 " style="stroke:rgb(0,0,0);stroke-width:0.1;fill:none" />
  <path d="M227.458,9.12093 A8.01956,8.01956 0 0,0 219.439,1.10138 " style="stroke:rgb(0,0,0);stroke-width:0.1;fill:none" />
  <path d="M206.108,1.10138 L219.439,1.10138" style="stroke:rgb(0,0,0);stroke-width:0.1;fill:none" />
  <path d="M225.82,137.669 A1.3854,1.3854 0 0,0 227.457,136.593 " style="stroke:rgb(0,0,0);stroke-width:0.1;fill:none" />
  <path d="M225.82,137.669 L221.923,134.941" style="stroke:rgb(0,0,0);stroke-width:0.1;fill:none" />
  <path d="M222.446,74.1413 L222.446,60.1071" style="stroke:rgb(0,0,0);stroke-width:0.1;fill:none" />
  <path d="M215.325,85.6694 L215.325,82.6621" style="stroke:rgb(0,0,0);stroke-width:0.1;fill:none" />
  <path d="M218.503,87.0328 L216.328,87.0328" style="stroke:rgb(0,0,0);stroke-width:0.1;fill:none" />
  <path d="M216.328,81.2988 L218.503,81.2988" style="stroke:rgb(0,0,0);stroke-width:0.1;fill:none" />
  <path d="M218.503,85.6694 L218.503,87.0328" style="stroke:rgb(0,0,0);stroke-width:0.1;fill:none" />
  <path d="M218.503,81.2988 L218.503,82.6621" style="stroke:rgb(0,0,0);stroke-width:0.1;fill:none" />
  <path d="M215.325,82.6621 L216.328,82.6621" style="stroke:rgb(0,0,0);stroke-width:0.1;fill:none" />
  <path d="M216.328,82.6621 L216.328,81.2988" style="stroke:rgb(0,0,0);stroke-width:0.1;fill:none" />
  <path d="M216.328,87.0328 L216.328,85.6694" style="stroke:rgb(0,0,0);stroke-width:0.1;fill:none" />
  <path d="M216.328,85.6694 L215.325,85.6694" style="stroke:rgb(0,0,0);stroke-width:0.1;fill:none" />
  <path d="M221.945,85.6694 L218.503,85.6694" style="stroke:rgb(0,0,0);stroke-width:0.1;fill:none" />
  <path d="M218.503,82.6621 L221.945,82.6621" style="stroke:rgb(0,0,0);stroke-width:0.1;fill:none" />
  <path d="M226.957,94.1902 L222.446,94.1902" style="stroke:rgb(0,0,0);stroke-width:0.1;fill:none" />
  <path d="M226.957,94.1902 A0.501222,0.501222 0 0,0 227.458,93.689 " style="stroke:rgb(0,0,0);stroke-width:0.1;fill:none" />
  <path d="M227.458,89.6792 L227.458,93.689" style="stroke:rgb(0,0,0);stroke-width:0.1;fill:none" />
  <path d="M222.446,89.178 L226.957,89.178" style="stroke:rgb(0,0,0);stroke-width:0.1;fill:none" />
  <path d="M227.458,89.6792 A0.501222,0.501222 0 0,0 226.957,89.178 " style="stroke:rgb(0,0,0);stroke-width:0.1;fill:none" />
  <path d="M222.446,86.1707 L222.446,89.178" style="stroke:rgb(0,0,0);stroke-width:0.1;fill:none" />
  <path d="M222.446,86.1707 A0.501222,0.501222 0 0,0 221.945,85.6694 " style="stroke:rgb(0,0,0);stroke-width:0.1;fill:none" />
  <path d="M222.446,82.1609 L222.446,79.1535" style="stroke:rgb(0,0,0);stroke-width:0.1;fill:none" />
  <path d="M221.945,82.6621 A0.501222,0.501222 0 0,0 222.446,82.1609 " style="stroke:rgb(0,0,0);stroke-width:0.1;fill:none" />
  <path d="M222.446,79.1535 L226.957,79.1535" style="stroke:rgb(0,0,0);stroke-width:0.1;fill:none" />
  <path d="M226.957,79.1535 A0.501222,0.501222 0 0,0 227.458,78.6523 " style="stroke:rgb(0,0,0);stroke-width:0.1;fill:none" />
  <path d="M227.458,78.6523 L227.458,74.6425" style="stroke:rgb(0,0,0);stroke-width:0.1;fill:none" />
  <path d="M226.957,74.1413 L222.446,74.1413" style="stroke:rgb(0,0,0);stroke-width:0.1;fill:none" />
  <path d="M227.458,74.6425 A0.501222,0.501222 0 0,0 226.957,74.1413 " style="stroke:rgb(0,0,0);stroke-width:0.1;fill:none" />
  <path d="M215.325,51.5863 L215.325,48.579" style="stroke:rgb(0,0,0);stroke-width:0.1;fill:none" />
  <path d="M218.503,52.9496 L216.328,52.9496" style="stroke:rgb(0,0,0);stroke-width:0.1;fill:none" />
  <path d="M216.328,47.2157 L218.503,47.2157" style="stroke:rgb(0,0,0);stroke-width:0.1;fill:none" />
  <path d="M218.503,51.5863 L218.503,52.9496" style="stroke:rgb(0,0,0);stroke-width:0.1;fill:none" />
  <path d="M218.503,47.2157 L218.503,48.579" style="stroke:rgb(0,0,0);stroke-width:0.1;fill:none" />
  <path d="M215.325,48.579 L216.328,48.579" style="stroke:rgb(0,0,0);stroke-width:0.1;fill:none" />
  <path d="M216.328,48.579 L216.328,47.2157" style="stroke:rgb(0,0,0);stroke-width:0.1;fill:none" />
  <path d="M216.328,52.9496 L216.328,51.5863" style="stroke:rgb(0,0,0);stroke-width:0.1;fill:none" />
  <path d="M216.328,51.5863 L215.325,51.5863" style="stroke:rgb(0,0,0);stroke-width:0.1;fill:none" />
  <path d="M221.945,51.5863 L218.503,51.5863" style="stroke:rgb(0,0,0);stroke-width:0.1;fill:none" />
  <path d="M218.503,48.579 L221.945,48.579" style="stroke:rgb(0,0,0);stroke-width:0.1;fill:none" />
  <path d="M222.446,52.0875 L222.446,55.0949" style="stroke:rgb(0,0,0);stroke-width:0.1;fill:none" />
  <path d="M222.446,52.0875 A0.501222,0.501222 0 0,0 221.945,51.5863 " style="stroke:rgb(0,0,0);stroke-width:0.1;fill:none" />
  <path d="M222.446,48.0778 L222.446,45.0704" style="stroke:rgb(0,0,0);stroke-width:0.1;fill:none" />
  <path d="M221.945,48.579 A0.501222,0.501222 0 0,0 222.446,48.0778 " style="stroke:rgb(0,0,0);stroke-width:0.1;fill:none" />
  <path d="M226.957,60.1071 L222.446,60.1071" style="stroke:rgb(0,0,0);stroke-width:0.1;fill:none" />
  <path d="M226.957,60.1071 A0.501222,0.501222 0 0,0 227.458,59.6059 " style="stroke:rgb(0,0,0);stroke-width:0.1;fill:none" />
  <path d="M227.458,55.5961 L227.458,59.6059" style="stroke:rgb(0,0,0);stroke-width:0.1;fill:none" />
  <path d="M222.446,55.0949 L226.957,55.0949" style="stroke:rgb(0,0,0);stroke-width:0.1;fill:none" />
  <path d="M227.458,55.5961 A0.501222,0.501222 0 0,0 226.957,55.0949 " style="stroke:rgb(0,0,0);stroke-width:0.1;fill:none" />
  <path d="M222.446,52.0875 L222.446,55.0949" style="stroke:rgb(0,0,0);stroke-width:0.1;fill:none" />
  <path d="M222.446,52.0875 A0.501222,0.501222 0 0,0 221.945,51.5863 " style="stroke:rgb(0,0,0);stroke-width:0.1;fill:none" />
  <path d="M222.446,48.0778 L222.446,45.0704" style="stroke:rgb(0,0,0);stroke-width:0.1;fill:none" />
  <path d="M221.945,48.579 A0.501222,0.501222 0 0,0 222.446,48.0778 " style="stroke:rgb(0,0,0);stroke-width:0.1;fill:none" />
  <path d="M222.446,45.0704 L226.957,45.0704" style="stroke:rgb(0,0,0);stroke-width:0.1;fill:none" />
  <path d="M226.957,45.0704 A0.501222,0.501222 0 0,0 227.458,44.5692 " style="stroke:rgb(0,0,0);stroke-width:0.1;fill:none" />
  <path d="M227.458,44.5692 L227.458,40.5594" style="stroke:rgb(0,0,0);stroke-width:0.1;fill:none" />
  <path d="M226.957,40.0582 L222.446,40.0582" style="stroke:rgb(0,0,0);stroke-width:0.1;fill:none" />
  <path d="M227.458,40.5594 A0.501222,0.501222 0 0,0 226.957,40.0582 " style="stroke:rgb(0,0,0);stroke-width:0.1;fill:none" />
  <path d="M222.446,103.212 L227.458,103.212" style="stroke:rgb(0,0,0);stroke-width:0.1;fill:none" />
  <path d="M227.457,136.593 L227.458,103.212" style="stroke:rgb(0,0,0);stroke-width:0.1;fill:none" />
  <path d="M222.446,103.212 L222.446,94.1902" style="stroke:rgb(0,0,0);stroke-width:0.1;fill:none" />
  <path d="M222.446,31.0362 L227.458,31.0362" style="stroke:rgb(0,0,0);stroke-width:0.1;fill:none" />
  <path d="M222.446,40.0582 L222.446,31.0362" style="stroke:rgb(0,0,0);stroke-width:0.1;fill:none" />
  <path d="M227.458,31.0362 L227.458,9.12093" style="stroke:rgb(0,0,0);stroke-width:0.1;fill:none" />
  <path d="M255.828,117.246 A1.00244,1.00244 0 0,1 256.83,118.249 " style="stroke:rgb(0,0,0);stroke-width:0.1;fill:none" />
  <ellipse cx="237.483" cy="119.252" rx="3.50856" ry="3.50856" style="stroke:rgb(0,0,0);stroke-width:0.1;fill:none;"/>
  <path d="M253.459,124.125 A2.16127,2.16127 0 0,1 249.808,122.559 " style="stroke:rgb(0,0,0);stroke-width:0.1;fill:none" />
  <path d="M255.828,124.125 L253.459,124.125" style="stroke:rgb(0,0,0);stroke-width:0.1;fill:none" />
  <ellipse cx="243.046" cy="126.268" rx="1.00244" ry="1.00244" style="stroke:rgb(0,0,0);stroke-width:0.1;fill:none;"/>
  <path d="M250.023,123.505 L243.978,125.899" style="stroke:rgb(0,0,0);stroke-width:0.1;fill:none" />
  <path d="M235.753,15.8254 L235.753,15.8254" style="stroke:rgb(0,0,0);stroke-width:0.1;fill:none" />
  <path d="M235.753,15.8254 L235.753,15.8254" style="stroke:rgb(0,0,0);stroke-width:0.1;fill:none" />
  <ellipse cx="237.257" cy="15.4983" rx="1.50367" ry="1.50367" style="stroke:rgb(0,0,0);stroke-width:0.1;fill:none;"/>
  <path d="M235.753,11.9898 L235.753,15.4983" style="stroke:rgb(0,0,0);stroke-width:0.1;fill:none" />
  <path d="M235.753,15.4983 L235.753,19.0069" style="stroke:rgb(0,0,0);stroke-width:0.1;fill:none" />
  <path d="M249.807,11.689 A2.16127,2.16127 0 0,1 253.458,10.1234 " style="stroke:rgb(0,0,0);stroke-width:0.1;fill:none" />
  <path d="M256.829,9.12093 A1.00244,1.00244 0 0,1 255.826,10.1234 " style="stroke:rgb(0,0,0);stroke-width:0.1;fill:none" />
  <path d="M255.826,10.1234 L253.458,10.1234" style="stroke:rgb(0,0,0);stroke-width:0.1;fill:none" />
  <ellipse cx="243.045" cy="7.97998" rx="1.00244" ry="1.00244" style="stroke:rgb(0,0,0);stroke-width:0.1;fill:none;"/>
  <path d="M250.022,10.743 L243.977,8.34911" style="stroke:rgb(0,0,0);stroke-width:0.1;fill:none" />
  <path d="M256.829,15.9995 A1.00244,1.00244 0 0,1 255.826,17.002 " style="stroke:rgb(0,0,0);stroke-width:0.1;fill:none" />
  <ellipse cx="237.483" cy="124.766" rx="1.20293" ry="1.20293" style="stroke:rgb(0,0,0);stroke-width:0.1;fill:none;"/>
  <ellipse cx="237.483" cy="113.739" rx="1.20293" ry="1.20293" style="stroke:rgb(0,0,0);stroke-width:0.1;fill:none;"/>
  <path d="M256.83,119.753 A1.00244,1.00244 0 0,1 255.828,120.755 " style="stroke:rgb(0,0,0);stroke-width:0.1;fill:none" />
  <path d="M256.83,118.249 L256.83,119.753" style="stroke:rgb(0,0,0);stroke-width:0.1;fill:none" />
  <path d="M255.828,120.755 L253.159,120.755" style="stroke:rgb(0,0,0);stroke-width:0.1;fill:none" />
  <path d="M250.023,123.505 A2.16428,2.16428 0 0,1 253.161,120.752 " style="stroke:rgb(0,0,0);stroke-width:0.1;fill:none" />
  <path d="M255.826,13.4934 A1.00244,1.00244 0 0,1 256.829,14.4959 " style="stroke:rgb(0,0,0);stroke-width:0.1;fill:none" />
  <path d="M256.829,15.9995 L256.829,14.4959" style="stroke:rgb(0,0,0);stroke-width:0.1;fill:none" />
  <path d="M255.826,13.4934 L253.158,13.4934" style="stroke:rgb(0,0,0);stroke-width:0.1;fill:none" />
  <path d="M253.158,13.4934 A2.16127,2.16127 0 0,1 250.024,10.7444 " style="stroke:rgb(0,0,0);stroke-width:0.1;fill:none" />
  <path d="M248.809,1.10138 A8.01956,8.01956 0 0,1 256.829,9.12093 " style="stroke:rgb(0,0,0);stroke-width:0.1;fill:none" />
  <path d="M249.362,117.246 L249.362,115.203" style="stroke:rgb(0,0,0);stroke-width:0.1;fill:none" />
  <path d="M249.362,111.194 L249.362,108.186" style="stroke:rgb(0,0,0);stroke-width:0.1;fill:none" />
  <path d="M248.861,114.702 A0.501222,0.501222 0 0,1 249.362,115.203 " style="stroke:rgb(0,0,0);stroke-width:0.1;fill:none" />
  <path d="M249.362,111.194 A0.501222,0.501222 0 0,1 248.861,111.695 " style="stroke:rgb(0,0,0);stroke-width:0.1;fill:none" />
  <path d="M248.861,22.5536 A0.501222,0.501222 0 0,1 249.362,23.0548 " style="stroke:rgb(0,0,0);stroke-width:0.1;fill:none" />
  <path d="M249.362,19.0451 A0.501222,0.501222 0 0,1 248.861,19.5463 " style="stroke:rgb(0,0,0);stroke-width:0.1;fill:none" />
  <path d="M249.362,19.0451 L249.362,17.002" style="stroke:rgb(0,0,0);stroke-width:0.1;fill:none" />
  <path d="M255.828,117.246 L249.362,117.246" style="stroke:rgb(0,0,0);stroke-width:0.1;fill:none" />
  <path d="M255.826,17.002 L249.36,17.002" style="stroke:rgb(0,0,0);stroke-width:0.1;fill:none" />
  <path d="M232.721,19.0069 L232.721,11.9898" style="stroke:rgb(0,0,0);stroke-width:0.1;fill:none" />
  <path d="M232.721,11.9898 L235.753,11.9898" style="stroke:rgb(0,0,0);stroke-width:0.1;fill:none" />
  <path d="M235.753,19.0069 L232.721,19.0069" style="stroke:rgb(0,0,0);stroke-width:0.1;fill:none" />
  <path d="M242.742,114.702 L242.742,111.695" style="stroke:rgb(0,0,0);stroke-width:0.1;fill:none" />
  <path d="M245.92,116.065 L243.745,116.065" style="stroke:rgb(0,0,0);stroke-width:0.1;fill:none" />
  <path d="M243.745,110.331 L245.92,110.331" style="stroke:rgb(0,0,0);stroke-width:0.1;fill:none" />
  <path d="M245.92,114.702 L245.92,116.065" style="stroke:rgb(0,0,0);stroke-width:0.1;fill:none" />
  <path d="M245.92,110.331 L245.92,111.695" style="stroke:rgb(0,0,0);stroke-width:0.1;fill:none" />
  <path d="M242.742,111.695 L243.745,111.695" style="stroke:rgb(0,0,0);stroke-width:0.1;fill:none" />
  <path d="M243.745,111.695 L243.745,110.331" style="stroke:rgb(0,0,0);stroke-width:0.1;fill:none" />
  <path d="M243.745,116.065 L243.745,114.702" style="stroke:rgb(0,0,0);stroke-width:0.1;fill:none" />
  <path d="M243.745,114.702 L242.742,114.702" style="stroke:rgb(0,0,0);stroke-width:0.1;fill:none" />
  <path d="M242.742,22.5536 L242.742,19.5463" style="stroke:rgb(0,0,0);stroke-width:0.1;fill:none" />
  <path d="M245.92,23.9169 L243.745,23.9169" style="stroke:rgb(0,0,0);stroke-width:0.1;fill:none" />
  <path d="M243.745,18.183 L245.92,18.183" style="stroke:rgb(0,0,0);stroke-width:0.1;fill:none" />
  <path d="M245.92,22.5536 L245.92,23.9169" style="stroke:rgb(0,0,0);stroke-width:0.1;fill:none" />
  <path d="M245.92,18.183 L245.92,19.5463" style="stroke:rgb(0,0,0);stroke-width:0.1;fill:none" />
  <path d="M242.742,19.5463 L243.745,19.5463" style="stroke:rgb(0,0,0);stroke-width:0.1;fill:none" />
  <path d="M243.745,19.5463 L243.745,18.183" style="stroke:rgb(0,0,0);stroke-width:0.1;fill:none" />
  <path d="M243.745,23.9169 L243.745,22.5536" style="stroke:rgb(0,0,0);stroke-width:0.1;fill:none" />
  <path d="M243.745,22.5536 L242.742,22.5536" style="stroke:rgb(0,0,0);stroke-width:0.1;fill:none" />
  <path d="M248.861,114.702 L245.92,114.702" style="stroke:rgb(0,0,0);stroke-width:0.1;fill:none" />
  <path d="M245.92,111.695 L248.861,111.695" style="stroke:rgb(0,0,0);stroke-width:0.1;fill:none" />
  <path d="M248.861,22.5536 L245.92,22.5536" style="stroke:rgb(0,0,0);stroke-width:0.1;fill:none" />
  <path d="M245.92,19.5463 L248.861,19.5463" style="stroke:rgb(0,0,0);stroke-width:0.1;fill:none" />
  <path d="M255.477,107.685 A0.501222,0.501222 0 0,1 254.975,108.186 " style="stroke:rgb(0,0,0);stroke-width:0.1;fill:none" />
  <path d="M249.362,108.186 L254.975,108.186" style="stroke:rgb(0,0,0);stroke-width:0.1;fill:none" />
  <path d="M244.35,73.621 L244.35,60.6274" style="stroke:rgb(0,0,0);stroke-width:0.1;fill:none" />
  <path d="M254.975,73.621 A0.501222,0.501222 0 0,1 255.477,74.1222 " style="stroke:rgb(0,0,0);stroke-width:0.1;fill:none" />
  <path d="M254.975,73.621 L244.35,73.621" style="stroke:rgb(0,0,0);stroke-width:0.1;fill:none" />
  <path d="M249.362,60.6274 L244.35,60.6274" style="stroke:rgb(0,0,0);stroke-width:0.1;fill:none" />
  <path d="M255.477,107.685 L255.477,74.1222" style="stroke:rgb(0,0,0);stroke-width:0.1;fill:none" />
  <path d="M249.362,23.0548 L249.362,60.6274" style="stroke:rgb(0,0,0);stroke-width:0.1;fill:none" />
  <path d="M251.087,131.562 L256.479,127.787" style="stroke:rgb(0,0,0);stroke-width:0.1;fill:none" />
  <ellipse cx="238.537" cy="134.118" rx="1.50367" ry="1.50367" style="stroke:rgb(0,0,0);stroke-width:0.1;fill:none;"/>
  <path d="M235.266,142.64 L251.087,131.562" style="stroke:rgb(0,0,0);stroke-width:0.1;fill:none" />
  <path d="M231.763,141.921 L235.869,139.046" style="stroke:rgb(0,0,0);stroke-width:0.1;fill:none" />
  <path d="M235.869,139.046 L232.994,134.941" style="stroke:rgb(0,0,0);stroke-width:0.1;fill:none" />
  <path d="M235.266,142.64 A2.52871,2.52871 0 0,1 231.763,141.921 " style="stroke:rgb(0,0,0);stroke-width:0.1;fill:none" />
  <path d="M255.828,124.125 A2.14854,2.14854 0 0,1 256.479,127.787 " style="stroke:rgb(0,0,0);stroke-width:0.1;fill:none" />
  <path d="M227.458,9.12093 A8.01956,8.01956 0 0,1 235.478,1.10138 " style="stroke:rgb(0,0,0);stroke-width:0.1;fill:none" />
  <path d="M248.809,1.10138 L235.478,1.10138" style="stroke:rgb(0,0,0);stroke-width:0.1;fill:none" />
  <path d="M229.097,137.669 A1.3854,1.3854 0 0,1 227.46,136.593 " style="stroke:rgb(0,0,0);stroke-width:0.1;fill:none" />
  <path d="M229.097,137.669 L232.994,134.941" style="stroke:rgb(0,0,0);stroke-width:0.1;fill:none" />
  <path d="M232.471,74.1413 L232.471,60.1071" style="stroke:rgb(0,0,0);stroke-width:0.1;fill:none" />
  <path d="M239.591,85.6694 L239.591,82.6621" style="stroke:rgb(0,0,0);stroke-width:0.1;fill:none" />
  <path d="M236.413,87.0328 L238.589,87.0328" style="stroke:rgb(0,0,0);stroke-width:0.1;fill:none" />
  <path d="M238.589,81.2988 L236.413,81.2988" style="stroke:rgb(0,0,0);stroke-width:0.1;fill:none" />
  <path d="M236.413,85.6694 L236.413,87.0328" style="stroke:rgb(0,0,0);stroke-width:0.1;fill:none" />
  <path d="M236.413,81.2988 L236.413,82.6621" style="stroke:rgb(0,0,0);stroke-width:0.1;fill:none" />
  <path d="M239.591,82.6621 L238.589,82.6621" style="stroke:rgb(0,0,0);stroke-width:0.1;fill:none" />
  <path d="M238.589,82.6621 L238.589,81.2988" style="stroke:rgb(0,0,0);stroke-width:0.1;fill:none" />
  <path d="M238.589,87.0328 L238.589,85.6694" style="stroke:rgb(0,0,0);stroke-width:0.1;fill:none" />
  <path d="M238.589,85.6694 L239.591,85.6694" style="stroke:rgb(0,0,0);stroke-width:0.1;fill:none" />
  <path d="M232.972,85.6694 L236.413,85.6694" style="stroke:rgb(0,0,0);stroke-width:0.1;fill:none" />
  <path d="M236.413,82.6621 L232.972,82.6621" style="stroke:rgb(0,0,0);stroke-width:0.1;fill:none" />
  <path d="M227.96,94.1902 L232.471,94.1902" style="stroke:rgb(0,0,0);stroke-width:0.1;fill:none" />
  <path d="M227.96,94.1902 A0.501222,0.501222 0 0,1 227.458,93.689 " style="stroke:rgb(0,0,0);stroke-width:0.1;fill:none" />
  <path d="M232.471,89.178 L227.96,89.178" style="stroke:rgb(0,0,0);stroke-width:0.1;fill:none" />
  <path d="M227.458,89.6792 A0.501222,0.501222 0 0,1 227.96,89.178 " style="stroke:rgb(0,0,0);stroke-width:0.1;fill:none" />
  <path d="M232.471,86.1707 L232.471,89.178" style="stroke:rgb(0,0,0);stroke-width:0.1;fill:none" />
  <path d="M232.471,86.1707 A0.501222,0.501222 0 0,1 232.972,85.6694 " style="stroke:rgb(0,0,0);stroke-width:0.1;fill:none" />
  <path d="M232.471,82.1609 L232.471,79.1535" style="stroke:rgb(0,0,0);stroke-width:0.1;fill:none" />
  <path d="M232.972,82.6621 A0.501222,0.501222 0 0,1 232.471,82.1609 " style="stroke:rgb(0,0,0);stroke-width:0.1;fill:none" />
  <path d="M232.471,79.1535 L227.96,79.1535" style="stroke:rgb(0,0,0);stroke-width:0.1;fill:none" />
  <path d="M227.96,79.1535 A0.501222,0.501222 0 0,1 227.458,78.6523 " style="stroke:rgb(0,0,0);stroke-width:0.1;fill:none" />
  <path d="M227.96,74.1413 L232.471,74.1413" style="stroke:rgb(0,0,0);stroke-width:0.1;fill:none" />
  <path d="M227.458,74.6425 A0.501222,0.501222 0 0,1 227.96,74.1413 " style="stroke:rgb(0,0,0);stroke-width:0.1;fill:none" />
  <path d="M239.591,51.5863 L239.591,48.579" style="stroke:rgb(0,0,0);stroke-width:0.1;fill:none" />
  <path d="M236.413,52.9496 L238.589,52.9496" style="stroke:rgb(0,0,0);stroke-width:0.1;fill:none" />
  <path d="M238.589,47.2157 L236.413,47.2157" style="stroke:rgb(0,0,0);stroke-width:0.1;fill:none" />
  <path d="M236.413,51.5863 L236.413,52.9496" style="stroke:rgb(0,0,0);stroke-width:0.1;fill:none" />
  <path d="M236.413,47.2157 L236.413,48.579" style="stroke:rgb(0,0,0);stroke-width:0.1;fill:none" />
  <path d="M239.591,48.579 L238.589,48.579" style="stroke:rgb(0,0,0);stroke-width:0.1;fill:none" />
  <path d="M238.589,48.579 L238.589,47.2157" style="stroke:rgb(0,0,0);stroke-width:0.1;fill:none" />
  <path d="M238.589,52.9496 L238.589,51.5863" style="stroke:rgb(0,0,0);stroke-width:0.1;fill:none" />
  <path d="M238.589,51.5863 L239.591,51.5863" style="stroke:rgb(0,0,0);stroke-width:0.1;fill:none" />
  <path d="M232.972,51.5863 L236.413,51.5863" style="stroke:rgb(0,0,0);stroke-width:0.1;fill:none" />
  <path d="M236.413,48.579 L232.972,48.579" style="stroke:rgb(0,0,0);stroke-width:0.1;fill:none" />
  <path d="M232.471,52.0875 L232.471,55.0949" style="stroke:rgb(0,0,0);stroke-width:0.1;fill:none" />
  <path d="M232.471,52.0875 A0.501222,0.501222 0 0,1 232.972,51.5863 " style="stroke:rgb(0,0,0);stroke-width:0.1;fill:none" />
  <path d="M232.471,48.0778 L232.471,45.0704" style="stroke:rgb(0,0,0);stroke-width:0.1;fill:none" />
  <path d="M232.972,48.579 A0.501222,0.501222 0 0,1 232.471,48.0778 " style="stroke:rgb(0,0,0);stroke-width:0.1;fill:none" />
  <path d="M227.96,60.1071 L232.471,60.1071" style="stroke:rgb(0,0,0);stroke-width:0.1;fill:none" />
  <path d="M227.96,60.1071 A0.501222,0.501222 0 0,1 227.458,59.6059 " style="stroke:rgb(0,0,0);stroke-width:0.1;fill:none" />
  <path d="M232.471,55.0949 L227.96,55.0949" style="stroke:rgb(0,0,0);stroke-width:0.1;fill:none" />
  <path d="M227.458,55.5961 A0.501222,0.501222 0 0,1 227.96,55.0949 " style="stroke:rgb(0,0,0);stroke-width:0.1;fill:none" />
  <path d="M232.471,52.0875 L232.471,55.0949" style="stroke:rgb(0,0,0);stroke-width:0.1;fill:none" />
  <path d="M232.471,52.0875 A0.501222,0.501222 0 0,1 232.972,51.5863 " style="stroke:rgb(0,0,0);stroke-width:0.1;fill:none" />
  <path d="M232.471,48.0778 L232.471,45.0704" style="stroke:rgb(0,0,0);stroke-width:0.1;fill:none" />
  <path d="M232.972,48.579 A0.501222,0.501222 0 0,1 232.471,48.0778 " style="stroke:rgb(0,0,0);stroke-width:0.1;fill:none" />
  <path d="M232.471,45.0704 L227.96,45.0704" style="stroke:rgb(0,0,0);stroke-width:0.1;fill:none" />
  <path d="M227.96,45.0704 A0.501222,0.501222 0 0,1 227.458,44.5692 " style="stroke:rgb(0,0,0);stroke-width:0.1;fill:none" />
  <path d="M227.96,40.0582 L232.471,40.0582" style="stroke:rgb(0,0,0);stroke-width:0.1;fill:none" />
  <path d="M227.458,40.5594 A0.501222,0.501222 0 0,1 227.96,40.0582 " style="stroke:rgb(0,0,0);stroke-width:0.1;fill:none" />
  <path d="M232.471,103.212 L227.458,103.212" style="stroke:rgb(0,0,0);stroke-width:0.1;fill:none" />
  <path d="M232.471,103.212 L232.471,94.1902" style="stroke:rgb(0,0,0);stroke-width:0.1;fill:none" />
  <path d="M232.471,31.0362 L227.458,31.0362" style="stroke:rgb(0,0,0);stroke-width:0.1;fill:none" />
  <path d="M232.471,40.0582 L232.471,31.0362" style="stroke:rgb(0,0,0);stroke-width:0.1;fill:none" />
</svg>
