<?xml version="1.0" standalone="yes"?>

<svg width="307mm" height="446mm" viewBox="0 0 307 446" version="1.1"
xmlns="http://www.w3.org/2000/svg" style="stroke-linecap:round">
  <ellipse cx="41.2831" cy="59.4416" rx="2.75263" ry="2.75263" style="stroke:rgb(0,0,0);stroke-width:0.1;fill:none;"/>
  <ellipse cx="21.1639" cy="46.4291" rx="2.75263" ry="2.75263" style="stroke:rgb(0,0,0);stroke-width:0.1;fill:none;"/>
  <ellipse cx="61.4024" cy="46.4291" rx="2.75263" ry="2.75263" style="stroke:rgb(0,0,0);stroke-width:0.1;fill:none;"/>
  <path d="M48.0596,77.0884 L45.317,77.0884" style="stroke:rgb(0,0,0);stroke-width:0.1;fill:none" />
  <path d="M48.0596,79.8311 L48.0596,77.0884" style="stroke:rgb(0,0,0);stroke-width:0.1;fill:none" />
  <path d="M45.317,77.0884 L45.317,79.8311" style="stroke:rgb(0,0,0);stroke-width:0.1;fill:none" />
  <path d="M45.317,79.8311 L48.0596,79.8311" style="stroke:rgb(0,0,0);stroke-width:0.1;fill:none" />
  <path d="M37.2493,77.0884 L34.5066,77.0884" style="stroke:rgb(0,0,0);stroke-width:0.1;fill:none" />
  <path d="M37.2493,79.8311 L37.2493,77.0884" style="stroke:rgb(0,0,0);stroke-width:0.1;fill:none" />
  <path d="M34.5066,77.0884 L34.5066,79.8311" style="stroke:rgb(0,0,0);stroke-width:0.1;fill:none" />
  <path d="M34.5066,79.8311 L37.2493,79.8311" style="stroke:rgb(0,0,0);stroke-width:0.1;fill:none" />
  <path d="M42.6544,45.0578 L39.9118,45.0578" style="stroke:rgb(0,0,0);stroke-width:0.1;fill:none" />
  <path d="M42.6544,47.8004 L42.6544,45.0578" style="stroke:rgb(0,0,0);stroke-width:0.1;fill:none" />
  <path d="M39.9118,45.0578 L39.9118,47.8004" style="stroke:rgb(0,0,0);stroke-width:0.1;fill:none" />
  <path d="M39.9118,47.8004 L42.6544,47.8004" style="stroke:rgb(0,0,0);stroke-width:0.1;fill:none" />
  <path d="M48.0596,31.0444 L45.317,31.0444" style="stroke:rgb(0,0,0);stroke-width:0.1;fill:none" />
  <path d="M48.0596,33.787 L48.0596,31.0444" style="stroke:rgb(0,0,0);stroke-width:0.1;fill:none" />
  <path d="M45.317,31.0444 L45.317,33.787" style="stroke:rgb(0,0,0);stroke-width:0.1;fill:none" />
  <path d="M45.317,33.787 L48.0596,33.787" style="stroke:rgb(0,0,0);stroke-width:0.1;fill:none" />
  <path d="M37.2493,31.0444 L34.5066,31.0444" style="stroke:rgb(0,0,0);stroke-width:0.1;fill:none" />
  <path d="M37.2493,33.787 L37.2493,31.0444" style="stroke:rgb(0,0,0);stroke-width:0.1;fill:none" />
  <path d="M34.5066,31.0444 L34.5066,33.787" style="stroke:rgb(0,0,0);stroke-width:0.1;fill:none" />
  <path d="M34.5066,33.787 L37.2493,33.787" style="stroke:rgb(0,0,0);stroke-width:0.1;fill:none" />
  <ellipse cx="24.2669" cy="9.3937" rx="1.50144" ry="1.50144" style="stroke:rgb(0,0,0);stroke-width:0.25;fill:none;"/>
  <path d="M29.2716,6.89131 L34.2764,6.89131" style="stroke:rgb(0,0,0);stroke-width:0.25;fill:none" />
  <path d="M29.2716,11.8961 L34.2764,11.8961" style="stroke:rgb(0,0,0);stroke-width:0.25;fill:none" />
  <path d="M19.2621,6.89131 L14.2573,6.89131" style="stroke:rgb(0,0,0);stroke-width:0.25;fill:none" />
  <path d="M19.2621,11.8961 L14.2573,11.8961" style="stroke:rgb(0,0,0);stroke-width:0.25;fill:none" />
  <path d="M14.2573,6.89131 L14.2573,11.8961" style="stroke:rgb(0,0,0);stroke-width:0.25;fill:none" />
  <path d="M19.2621,6.89131 L19.2621,11.8961" style="stroke:rgb(0,0,0);stroke-width:0.25;fill:none" />
  <path d="M29.2716,6.89131 L29.2716,11.8961" style="stroke:rgb(0,0,0);stroke-width:0.25;fill:none" />
  <path d="M34.2764,6.89131 L34.2764,11.8961" style="stroke:rgb(0,0,0);stroke-width:0.25;fill:none" />
  <ellipse cx="56.3375" cy="46.3891" rx="2.70258" ry="2.70258" style="stroke:rgb(0,0,0);stroke-width:0.1;fill:none;"/>
  <ellipse cx="41.3232" cy="61.4034" rx="2.70258" ry="2.70258" style="stroke:rgb(0,0,0);stroke-width:0.1;fill:none;"/>
  <ellipse cx="26.3088" cy="46.3891" rx="2.70258" ry="2.70258" style="stroke:rgb(0,0,0);stroke-width:0.1;fill:none;"/>
  <ellipse cx="24.2669" cy="101.405" rx="1.50144" ry="1.50144" style="stroke:rgb(0,0,0);stroke-width:0.25;fill:none;"/>
  <path d="M29.2716,98.9031 L34.2764,98.9031" style="stroke:rgb(0,0,0);stroke-width:0.25;fill:none" />
  <path d="M29.2716,103.908 L34.2764,103.908" style="stroke:rgb(0,0,0);stroke-width:0.25;fill:none" />
  <path d="M19.2621,98.9031 L14.2573,98.9031" style="stroke:rgb(0,0,0);stroke-width:0.25;fill:none" />
  <path d="M19.2621,103.908 L14.2573,103.908" style="stroke:rgb(0,0,0);stroke-width:0.25;fill:none" />
  <path d="M14.2573,98.9031 L14.2573,103.908" style="stroke:rgb(0,0,0);stroke-width:0.25;fill:none" />
  <path d="M19.2621,98.9031 L19.2621,103.908" style="stroke:rgb(0,0,0);stroke-width:0.25;fill:none" />
  <path d="M29.2716,98.9031 L29.2716,103.908" style="stroke:rgb(0,0,0);stroke-width:0.25;fill:none" />
  <path d="M34.2764,98.9031 L34.2764,103.908" style="stroke:rgb(0,0,0);stroke-width:0.25;fill:none" />
  <path d="M9.25249,108.913 L9.25249,1.88653" style="stroke:rgb(0,0,0);stroke-width:0.1;fill:none" />
  <ellipse cx="58.2994" cy="9.3937" rx="1.50144" ry="1.50144" style="stroke:rgb(0,0,0);stroke-width:0.25;fill:none;"/>
  <path d="M63.3042,6.89131 L68.309,6.89131" style="stroke:rgb(0,0,0);stroke-width:0.25;fill:none" />
  <path d="M63.3042,11.8961 L68.309,11.8961" style="stroke:rgb(0,0,0);stroke-width:0.25;fill:none" />
  <path d="M53.2946,6.89131 L48.2898,6.89131" style="stroke:rgb(0,0,0);stroke-width:0.25;fill:none" />
  <path d="M53.2946,11.8961 L48.2898,11.8961" style="stroke:rgb(0,0,0);stroke-width:0.25;fill:none" />
  <path d="M48.2898,6.89131 L48.2898,11.8961" style="stroke:rgb(0,0,0);stroke-width:0.25;fill:none" />
  <path d="M53.2946,6.89131 L53.2946,11.8961" style="stroke:rgb(0,0,0);stroke-width:0.25;fill:none" />
  <path d="M63.3042,6.89131 L63.3042,11.8961" style="stroke:rgb(0,0,0);stroke-width:0.25;fill:none" />
  <path d="M68.309,6.89131 L68.309,11.8961" style="stroke:rgb(0,0,0);stroke-width:0.25;fill:none" />
  <ellipse cx="58.2994" cy="101.405" rx="1.50144" ry="1.50144" style="stroke:rgb(0,0,0);stroke-width:0.25;fill:none;"/>
  <path d="M63.3042,98.9031 L68.309,98.9031" style="stroke:rgb(0,0,0);stroke-width:0.25;fill:none" />
  <path d="M63.3042,103.908 L68.309,103.908" style="stroke:rgb(0,0,0);stroke-width:0.25;fill:none" />
  <path d="M53.2946,98.9031 L48.2898,98.9031" style="stroke:rgb(0,0,0);stroke-width:0.25;fill:none" />
  <path d="M53.2946,103.908 L48.2898,103.908" style="stroke:rgb(0,0,0);stroke-width:0.25;fill:none" />
  <path d="M48.2898,98.9031 L48.2898,103.908" style="stroke:rgb(0,0,0);stroke-width:0.25;fill:none" />
  <path d="M53.2946,98.9031 L53.2946,103.908" style="stroke:rgb(0,0,0);stroke-width:0.25;fill:none" />
  <path d="M63.3042,98.9031 L63.3042,103.908" style="stroke:rgb(0,0,0);stroke-width:0.25;fill:none" />
  <path d="M68.309,98.9031 L68.309,103.908" style="stroke:rgb(0,0,0);stroke-width:0.25;fill:none" />
  <path d="M73.3137,1.88653 L73.3137,108.913" style="stroke:rgb(0,0,0);stroke-width:0.1;fill:none" />
  <path d="M9.25249,1.88653 L73.3137,1.88653" style="stroke:rgb(0,0,0);stroke-width:0.1;fill:none" />
  <path d="M73.3137,108.913 L9.25249,108.913" style="stroke:rgb(0,0,0);stroke-width:0.1;fill:none" />
  <ellipse cx="91.7779" cy="9.64404" rx="1.50144" ry="1.50144" style="stroke:rgb(0,0,0);stroke-width:0.1;fill:none;"/>
  <path d="M96.7826,7.14165 L96.7826,12.1464" style="stroke:rgb(0,0,0);stroke-width:0.1;fill:none" />
  <ellipse cx="183.79" cy="9.64404" rx="1.50144" ry="1.50144" style="stroke:rgb(0,0,0);stroke-width:0.1;fill:none;"/>
  <path d="M178.785,7.14165 L178.785,12.1464" style="stroke:rgb(0,0,0);stroke-width:0.1;fill:none" />
  <ellipse cx="91.7779" cy="101.656" rx="1.50144" ry="1.50144" style="stroke:rgb(0,0,0);stroke-width:0.1;fill:none;"/>
  <ellipse cx="183.79" cy="101.656" rx="1.50144" ry="1.50144" style="stroke:rgb(0,0,0);stroke-width:0.1;fill:none;"/>
  <path d="M87.7359,1.63639 L187.832,1.63639" style="stroke:rgb(0,0,0);stroke-width:0.1;fill:none" />
  <path d="M187.832,109.163 L87.7359,109.163" style="stroke:rgb(0,0,0);stroke-width:0.1;fill:none" />
  <path d="M187.832,1.63639 L187.832,109.163" style="stroke:rgb(0,0,0);stroke-width:0.1;fill:none" />
  <path d="M87.7359,109.163 L87.7359,1.63639" style="stroke:rgb(0,0,0);stroke-width:0.1;fill:none" />
  <path d="M116.802,7.14165 L96.7826,7.14165" style="stroke:rgb(0,0,0);stroke-width:0.1;fill:none" />
  <path d="M158.766,12.1464 L178.785,12.1464" style="stroke:rgb(0,0,0);stroke-width:0.1;fill:none" />
  <path d="M116.802,7.14165 L116.802,12.1464" style="stroke:rgb(0,0,0);stroke-width:0.1;fill:none" />
  <path d="M158.766,7.14165 L158.766,12.1464" style="stroke:rgb(0,0,0);stroke-width:0.1;fill:none" />
  <path d="M96.7826,12.1464 L116.802,12.1464" style="stroke:rgb(0,0,0);stroke-width:0.1;fill:none" />
  <path d="M178.785,7.14165 L158.766,7.14165" style="stroke:rgb(0,0,0);stroke-width:0.1;fill:none" />
  <path d="M158.766,99.1534 L158.766,104.158" style="stroke:rgb(0,0,0);stroke-width:0.1;fill:none" />
  <path d="M178.785,99.1534 L158.766,99.1534" style="stroke:rgb(0,0,0);stroke-width:0.1;fill:none" />
  <path d="M178.785,99.1534 L178.785,104.158" style="stroke:rgb(0,0,0);stroke-width:0.1;fill:none" />
  <path d="M158.766,104.158 L178.785,104.158" style="stroke:rgb(0,0,0);stroke-width:0.1;fill:none" />
  <path d="M96.7826,99.1534 L96.7826,104.158" style="stroke:rgb(0,0,0);stroke-width:0.1;fill:none" />
  <path d="M116.802,99.1534 L96.7826,99.1534" style="stroke:rgb(0,0,0);stroke-width:0.1;fill:none" />
  <path d="M116.802,99.1534 L116.802,104.158" style="stroke:rgb(0,0,0);stroke-width:0.1;fill:none" />
  <path d="M96.7826,104.158 L116.802,104.158" style="stroke:rgb(0,0,0);stroke-width:0.1;fill:none" />
  <path d="M173.659,212.914 A8.00766,8.00766 0 0,0 157.644,212.914 " style="stroke:rgb(0,0,0);stroke-width:0.1;fill:none" />
  <ellipse cx="165.652" cy="222.923" rx="1.50144" ry="1.50144" style="stroke:rgb(0,0,0);stroke-width:0.1;fill:none;"/>
  <ellipse cx="165.652" cy="212.914" rx="3.16803" ry="3.16803" style="stroke:rgb(0,0,0);stroke-width:0.1;fill:none;"/>
  <path d="M173.659,212.013 L173.659,239.039" style="stroke:rgb(0,0,0);stroke-width:0.1;fill:none" />
  <path d="M157.644,212.914 L157.644,239.039" style="stroke:rgb(0,0,0);stroke-width:0.1;fill:none" />
  <path d="M157.644,239.039 A8.00766,8.00766 0 0,0 173.659,239.039 " style="stroke:rgb(0,0,0);stroke-width:0.1;fill:none" />
  <ellipse cx="165.652" cy="239.039" rx="1.50144" ry="1.50144" style="stroke:rgb(0,0,0);stroke-width:0.1;fill:none;"/>
  <path d="M174.929,266.243 A8.00766,8.00766 0 0,0 158.914,266.243 " style="stroke:rgb(0,0,0);stroke-width:0.1;fill:none" />
  <ellipse cx="166.921" cy="276.253" rx="1.50144" ry="1.50144" style="stroke:rgb(0,0,0);stroke-width:0.1;fill:none;"/>
  <ellipse cx="166.921" cy="266.243" rx="3.16803" ry="3.16803" style="stroke:rgb(0,0,0);stroke-width:0.1;fill:none;"/>
  <path d="M174.929,265.342 L174.929,292.368" style="stroke:rgb(0,0,0);stroke-width:0.1;fill:none" />
  <path d="M158.914,266.243 L158.914,292.368" style="stroke:rgb(0,0,0);stroke-width:0.1;fill:none" />
  <path d="M158.914,292.368 A8.00766,8.00766 0 0,0 174.929,292.368 " style="stroke:rgb(0,0,0);stroke-width:0.1;fill:none" />
  <ellipse cx="166.921" cy="292.368" rx="1.50144" ry="1.50144" style="stroke:rgb(0,0,0);stroke-width:0.1;fill:none;"/>
  <path d="M41.0692,211.908 L41.0692,207.404" style="stroke:rgb(0,0,0);stroke-width:0.1;fill:none" />
  <path d="M41.5697,206.903 A0.500479,0.500479 0 0,0 41.0692,207.404 " style="stroke:rgb(0,0,0);stroke-width:0.1;fill:none" />
  <path d="M123.071,211.908 L123.071,207.404" style="stroke:rgb(0,0,0);stroke-width:0.1;fill:none" />
  <path d="M123.071,207.404 A0.500479,0.500479 0 0,0 122.571,206.903 " style="stroke:rgb(0,0,0);stroke-width:0.1;fill:none" />
  <path d="M32.0224,202.979 L32.0224,211.908" style="stroke:rgb(0,0,0);stroke-width:0.1;fill:none" />
  <path d="M63.5526,226.352 L66.5555,226.352" style="stroke:rgb(0,0,0);stroke-width:0.25;fill:none" />
  <path d="M62.1913,229.525 L62.1913,227.353" style="stroke:rgb(0,0,0);stroke-width:0.25;fill:none" />
  <path d="M67.9168,227.353 L67.9168,229.525" style="stroke:rgb(0,0,0);stroke-width:0.25;fill:none" />
  <path d="M63.5526,229.525 L62.1913,229.525" style="stroke:rgb(0,0,0);stroke-width:0.25;fill:none" />
  <path d="M67.9168,229.525 L66.5555,229.525" style="stroke:rgb(0,0,0);stroke-width:0.25;fill:none" />
  <path d="M66.5555,226.352 L66.5555,227.353" style="stroke:rgb(0,0,0);stroke-width:0.25;fill:none" />
  <path d="M66.5555,227.353 L67.9168,227.353" style="stroke:rgb(0,0,0);stroke-width:0.25;fill:none" />
  <path d="M62.1913,227.353 L63.5526,227.353" style="stroke:rgb(0,0,0);stroke-width:0.25;fill:none" />
  <path d="M63.5526,227.353 L63.5526,226.352" style="stroke:rgb(0,0,0);stroke-width:0.25;fill:none" />
  <path d="M55.0445,242.367 L55.0445,237.863" style="stroke:rgb(0,0,0);stroke-width:0.25;fill:none" />
  <path d="M55.0445,242.367 A0.500479,0.500479 0 0,0 55.5449,242.868 " style="stroke:rgb(0,0,0);stroke-width:0.25;fill:none" />
  <path d="M59.5488,242.868 L55.5449,242.868" style="stroke:rgb(0,0,0);stroke-width:0.25;fill:none" />
  <path d="M60.0492,237.863 L60.0492,242.367" style="stroke:rgb(0,0,0);stroke-width:0.25;fill:none" />
  <path d="M59.5488,242.868 A0.500479,0.500479 0 0,0 60.0492,242.367 " style="stroke:rgb(0,0,0);stroke-width:0.25;fill:none" />
  <path d="M63.0521,237.863 L60.0492,237.863" style="stroke:rgb(0,0,0);stroke-width:0.25;fill:none" />
  <path d="M63.5526,237.362 L63.5526,229.525" style="stroke:rgb(0,0,0);stroke-width:0.25;fill:none" />
  <path d="M63.0521,237.863 A0.500479,0.500479 0 0,0 63.5526,237.362 " style="stroke:rgb(0,0,0);stroke-width:0.25;fill:none" />
  <path d="M66.5555,229.525 L66.5555,237.362" style="stroke:rgb(0,0,0);stroke-width:0.25;fill:none" />
  <path d="M67.0559,237.863 L70.0588,237.863" style="stroke:rgb(0,0,0);stroke-width:0.25;fill:none" />
  <path d="M66.5555,237.362 A0.500479,0.500479 0 0,0 67.0559,237.863 " style="stroke:rgb(0,0,0);stroke-width:0.25;fill:none" />
  <path d="M70.0588,237.863 L70.0588,242.367" style="stroke:rgb(0,0,0);stroke-width:0.25;fill:none" />
  <path d="M70.0588,242.367 A0.500479,0.500479 0 0,0 70.5593,242.868 " style="stroke:rgb(0,0,0);stroke-width:0.25;fill:none" />
  <path d="M70.5593,242.868 L74.5631,242.868" style="stroke:rgb(0,0,0);stroke-width:0.25;fill:none" />
  <path d="M75.0636,242.367 L75.0636,237.863" style="stroke:rgb(0,0,0);stroke-width:0.25;fill:none" />
  <path d="M74.5631,242.868 A0.500479,0.500479 0 0,0 75.0636,242.367 " style="stroke:rgb(0,0,0);stroke-width:0.25;fill:none" />
  <path d="M18.873,210.975 A3.16803,3.16803 0 0,0 23.3532,206.495 " style="stroke:rgb(0,0,0);stroke-width:0.1;fill:none" />
  <path d="M23.3532,202.979 A3.51537,3.51537 0 0,0 20.8675,204.009 " style="stroke:rgb(0,0,0);stroke-width:0.1;fill:none" />
  <path d="M23.3532,206.495 L20.8675,204.009" style="stroke:rgb(0,0,0);stroke-width:0.1;fill:none" />
  <path d="M32.0224,202.979 L23.3532,202.979" style="stroke:rgb(0,0,0);stroke-width:0.1;fill:none" />
  <path d="M50.0397,237.863 L50.0397,242.868" style="stroke:rgb(0,0,0);stroke-width:0.1;fill:none" />
  <path d="M50.0397,237.863 L55.0445,237.863" style="stroke:rgb(0,0,0);stroke-width:0.1;fill:none" />
  <path d="M135.622,211.908 A0.500479,0.500479 0 0,0 135.121,212.408 " style="stroke:rgb(0,0,0);stroke-width:0.1;fill:none" />
  <path d="M135.622,211.908 L137.662,211.908" style="stroke:rgb(0,0,0);stroke-width:0.1;fill:none" />
  <path d="M137.662,208.735 L137.662,211.908" style="stroke:rgb(0,0,0);stroke-width:0.1;fill:none" />
  <ellipse cx="145.669" cy="218.744" rx="1.50144" ry="1.50144" style="stroke:rgb(0,0,0);stroke-width:0.1;fill:none;"/>
  <path d="M142.501,208.735 A2.41981,2.41981 0 0,0 137.662,208.735 " style="stroke:rgb(0,0,0);stroke-width:0.1;fill:none" />
  <path d="M153.677,208.735 A2.41981,2.41981 0 0,0 148.837,208.735 " style="stroke:rgb(0,0,0);stroke-width:0.1;fill:none" />
  <path d="M142.501,208.735 A3.16803,3.16803 0 1,0 148.837,208.735 " style="stroke:rgb(0,0,0);stroke-width:0.1;fill:none" />
  <path d="M145.669,242.868 A8.00766,8.00766 0 0,0 153.677,234.86 " style="stroke:rgb(0,0,0);stroke-width:0.1;fill:none" />
  <path d="M153.677,208.735 L153.677,234.86" style="stroke:rgb(0,0,0);stroke-width:0.1;fill:none" />
  <path d="M97.5851,226.352 L100.588,226.352" style="stroke:rgb(0,0,0);stroke-width:0.25;fill:none" />
  <path d="M96.2238,229.525 L96.2238,227.353" style="stroke:rgb(0,0,0);stroke-width:0.25;fill:none" />
  <path d="M101.949,227.353 L101.949,229.525" style="stroke:rgb(0,0,0);stroke-width:0.25;fill:none" />
  <path d="M97.5851,229.525 L96.2238,229.525" style="stroke:rgb(0,0,0);stroke-width:0.25;fill:none" />
  <path d="M101.949,229.525 L100.588,229.525" style="stroke:rgb(0,0,0);stroke-width:0.25;fill:none" />
  <path d="M100.588,226.352 L100.588,227.353" style="stroke:rgb(0,0,0);stroke-width:0.25;fill:none" />
  <path d="M100.588,227.353 L101.949,227.353" style="stroke:rgb(0,0,0);stroke-width:0.25;fill:none" />
  <path d="M96.2238,227.353 L97.5851,227.353" style="stroke:rgb(0,0,0);stroke-width:0.25;fill:none" />
  <path d="M97.5851,227.353 L97.5851,226.352" style="stroke:rgb(0,0,0);stroke-width:0.25;fill:none" />
  <path d="M89.077,242.367 L89.077,237.863" style="stroke:rgb(0,0,0);stroke-width:0.25;fill:none" />
  <path d="M89.077,242.367 A0.500479,0.500479 0 0,0 89.5775,242.868 " style="stroke:rgb(0,0,0);stroke-width:0.25;fill:none" />
  <path d="M93.5813,242.868 L89.5775,242.868" style="stroke:rgb(0,0,0);stroke-width:0.25;fill:none" />
  <path d="M94.0818,237.863 L94.0818,242.367" style="stroke:rgb(0,0,0);stroke-width:0.25;fill:none" />
  <path d="M93.5813,242.868 A0.500479,0.500479 0 0,0 94.0818,242.367 " style="stroke:rgb(0,0,0);stroke-width:0.25;fill:none" />
  <path d="M97.0847,237.863 L94.0818,237.863" style="stroke:rgb(0,0,0);stroke-width:0.25;fill:none" />
  <path d="M97.5851,237.362 L97.5851,229.525" style="stroke:rgb(0,0,0);stroke-width:0.25;fill:none" />
  <path d="M97.0847,237.863 A0.500479,0.500479 0 0,0 97.5851,237.362 " style="stroke:rgb(0,0,0);stroke-width:0.25;fill:none" />
  <path d="M100.588,229.525 L100.588,237.362" style="stroke:rgb(0,0,0);stroke-width:0.25;fill:none" />
  <path d="M101.088,237.863 L104.091,237.863" style="stroke:rgb(0,0,0);stroke-width:0.25;fill:none" />
  <path d="M100.588,237.362 A0.500479,0.500479 0 0,0 101.088,237.863 " style="stroke:rgb(0,0,0);stroke-width:0.25;fill:none" />
  <path d="M104.091,237.863 L104.091,242.367" style="stroke:rgb(0,0,0);stroke-width:0.25;fill:none" />
  <path d="M104.091,242.367 A0.500479,0.500479 0 0,0 104.592,242.868 " style="stroke:rgb(0,0,0);stroke-width:0.25;fill:none" />
  <path d="M104.592,242.868 L108.596,242.868" style="stroke:rgb(0,0,0);stroke-width:0.25;fill:none" />
  <path d="M109.096,242.367 L109.096,237.863" style="stroke:rgb(0,0,0);stroke-width:0.25;fill:none" />
  <path d="M108.596,242.868 A0.500479,0.500479 0 0,0 109.096,242.367 " style="stroke:rgb(0,0,0);stroke-width:0.25;fill:none" />
  <path d="M75.0636,237.863 L89.077,237.863" style="stroke:rgb(0,0,0);stroke-width:0.1;fill:none" />
  <path d="M114.101,237.863 L114.101,242.868" style="stroke:rgb(0,0,0);stroke-width:0.1;fill:none" />
  <path d="M109.096,237.863 L114.101,237.863" style="stroke:rgb(0,0,0);stroke-width:0.1;fill:none" />
  <path d="M114.101,242.868 L145.669,242.868" style="stroke:rgb(0,0,0);stroke-width:0.1;fill:none" />
  <path d="M135.121,213.74 L135.121,212.408" style="stroke:rgb(0,0,0);stroke-width:0.1;fill:none" />
  <path d="M133.119,212.408 A0.500479,0.500479 0 0,0 132.619,211.908 " style="stroke:rgb(0,0,0);stroke-width:0.1;fill:none" />
  <path d="M133.119,212.408 L133.119,213.74" style="stroke:rgb(0,0,0);stroke-width:0.1;fill:none" />
  <path d="M132.619,211.908 L123.071,211.908" style="stroke:rgb(0,0,0);stroke-width:0.1;fill:none" />
  <path d="M133.119,213.74 A10.0595,10.0595 0 1,0 135.121,213.74 " style="stroke:rgb(0,0,0);stroke-width:0.1;fill:none" />
  <ellipse cx="8.47132" cy="217.391" rx="1.50144" ry="1.50144" style="stroke:rgb(0,0,0);stroke-width:0.1;fill:none;"/>
  <path d="M14.0648,217.544 L18.6006,215.429" style="stroke:rgb(0,0,0);stroke-width:0.1;fill:none" />
  <path d="M4.993,221.774 L0.457127,223.889" style="stroke:rgb(0,0,0);stroke-width:0.1;fill:none" />
  <path d="M2.87789,217.238 L4.993,221.774" style="stroke:rgb(0,0,0);stroke-width:0.1;fill:none" />
  <path d="M11.9496,213.008 L14.0648,217.544" style="stroke:rgb(0,0,0);stroke-width:0.1;fill:none" />
  <path d="M2.87789,217.238 L11.9496,213.008" style="stroke:rgb(0,0,0);stroke-width:0.1;fill:none" />
  <path d="M16.4855,210.893 L18.6006,215.429" style="stroke:rgb(0,0,0);stroke-width:0.1;fill:none" />
  <path d="M16.4855,210.893 L18.873,210.975" style="stroke:rgb(0,0,0);stroke-width:0.1;fill:none" />
  <path d="M15.4508,240.522 A8.00766,8.00766 0 0,0 21.1131,242.868 " style="stroke:rgb(0,0,0);stroke-width:0.1;fill:none" />
  <path d="M0.457127,223.889 L15.4508,240.522" style="stroke:rgb(0,0,0);stroke-width:0.1;fill:none" />
  <path d="M32.0224,211.908 L41.0692,211.908" style="stroke:rgb(0,0,0);stroke-width:0.1;fill:none" />
  <path d="M61.0883,207.404 L61.0883,211.908" style="stroke:rgb(0,0,0);stroke-width:0.1;fill:none" />
  <path d="M61.0883,207.404 A0.500479,0.500479 0 0,0 60.5879,206.903 " style="stroke:rgb(0,0,0);stroke-width:0.1;fill:none" />
  <path d="M41.0692,206.903 L60.5879,206.903" style="stroke:rgb(0,0,0);stroke-width:0.1;fill:none" />
  <path d="M103.052,207.404 L103.052,211.908" style="stroke:rgb(0,0,0);stroke-width:0.1;fill:none" />
  <path d="M103.553,206.903 A0.500479,0.500479 0 0,0 103.052,207.404 " style="stroke:rgb(0,0,0);stroke-width:0.1;fill:none" />
  <path d="M122.571,206.903 L103.553,206.903" style="stroke:rgb(0,0,0);stroke-width:0.1;fill:none" />
  <path d="M61.0883,211.908 L103.052,211.908" style="stroke:rgb(0,0,0);stroke-width:0.1;fill:none" />
  <path d="M109.096,233.759 L109.096,233.759" style="stroke:rgb(0,0,0);stroke-width:0.1;fill:none" />
  <path d="M109.096,233.759 L115.102,233.759" style="stroke:rgb(0,0,0);stroke-width:0.1;fill:none" />
  <ellipse cx="112.099" cy="228.754" rx="1.50144" ry="1.50144" style="stroke:rgb(0,0,0);stroke-width:0.1;fill:none;"/>
  <path d="M109.096,230.255 L109.096,233.759" style="stroke:rgb(0,0,0);stroke-width:0.1;fill:none" />
  <path d="M115.102,233.759 L115.102,230.255" style="stroke:rgb(0,0,0);stroke-width:0.1;fill:none" />
  <path d="M115.102,230.255 L112.099,230.255" style="stroke:rgb(0,0,0);stroke-width:0.1;fill:none" />
  <path d="M112.099,230.255 L112.099,230.255" style="stroke:rgb(0,0,0);stroke-width:0.1;fill:none" />
  <path d="M112.099,230.255 L112.099,230.255" style="stroke:rgb(0,0,0);stroke-width:0.1;fill:none" />
  <path d="M112.099,230.255 L109.096,230.255" style="stroke:rgb(0,0,0);stroke-width:0.1;fill:none" />
  <ellipse cx="33.5239" cy="226.752" rx="1.50144" ry="1.50144" style="stroke:rgb(0,0,0);stroke-width:0.1;fill:none;"/>
  <ellipse cx="16.5076" cy="226.752" rx="1.50144" ry="1.50144" style="stroke:rgb(0,0,0);stroke-width:0.1;fill:none;"/>
  <path d="M27.1178,229.555 L27.1178,242.868" style="stroke:rgb(0,0,0);stroke-width:0.1;fill:none" />
  <path d="M22.9137,229.555 L22.9137,242.868" style="stroke:rgb(0,0,0);stroke-width:0.1;fill:none" />
  <path d="M27.1178,229.555 A3.50335,3.50335 0 1,0 22.9137,229.555 " style="stroke:rgb(0,0,0);stroke-width:0.1;fill:none" />
  <path d="M27.1178,242.868 L50.0397,242.868" style="stroke:rgb(0,0,0);stroke-width:0.1;fill:none" />
  <path d="M21.1131,242.868 L22.9137,242.868" style="stroke:rgb(0,0,0);stroke-width:0.1;fill:none" />
  <ellipse cx="145.669" cy="234.86" rx="1.50144" ry="1.50144" style="stroke:rgb(0,0,0);stroke-width:0.1;fill:none;"/>
  <path d="M41.0692,261.956 L41.0692,257.451" style="stroke:rgb(0,0,0);stroke-width:0.1;fill:none" />
  <path d="M41.5697,256.951 A0.500479,0.500479 0 0,0 41.0692,257.451 " style="stroke:rgb(0,0,0);stroke-width:0.1;fill:none" />
  <path d="M123.071,261.956 L123.071,257.451" style="stroke:rgb(0,0,0);stroke-width:0.1;fill:none" />
  <path d="M123.071,257.451 A0.500479,0.500479 0 0,0 122.571,256.951 " style="stroke:rgb(0,0,0);stroke-width:0.1;fill:none" />
  <path d="M32.0224,253.027 L32.0224,261.956" style="stroke:rgb(0,0,0);stroke-width:0.1;fill:none" />
  <path d="M63.5526,276.4 L66.5555,276.4" style="stroke:rgb(0,0,0);stroke-width:0.25;fill:none" />
  <path d="M62.1913,279.573 L62.1913,277.401" style="stroke:rgb(0,0,0);stroke-width:0.25;fill:none" />
  <path d="M67.9168,277.401 L67.9168,279.573" style="stroke:rgb(0,0,0);stroke-width:0.25;fill:none" />
  <path d="M63.5526,279.573 L62.1913,279.573" style="stroke:rgb(0,0,0);stroke-width:0.25;fill:none" />
  <path d="M67.9168,279.573 L66.5555,279.573" style="stroke:rgb(0,0,0);stroke-width:0.25;fill:none" />
  <path d="M66.5555,276.4 L66.5555,277.401" style="stroke:rgb(0,0,0);stroke-width:0.25;fill:none" />
  <path d="M66.5555,277.401 L67.9168,277.401" style="stroke:rgb(0,0,0);stroke-width:0.25;fill:none" />
  <path d="M62.1913,277.401 L63.5526,277.401" style="stroke:rgb(0,0,0);stroke-width:0.25;fill:none" />
  <path d="M63.5526,277.401 L63.5526,276.4" style="stroke:rgb(0,0,0);stroke-width:0.25;fill:none" />
  <path d="M55.0445,292.415 L55.0445,287.911" style="stroke:rgb(0,0,0);stroke-width:0.25;fill:none" />
  <path d="M55.0445,292.415 A0.500479,0.500479 0 0,0 55.5449,292.915 " style="stroke:rgb(0,0,0);stroke-width:0.25;fill:none" />
  <path d="M59.5488,292.915 L55.5449,292.915" style="stroke:rgb(0,0,0);stroke-width:0.25;fill:none" />
  <path d="M60.0492,287.911 L60.0492,292.415" style="stroke:rgb(0,0,0);stroke-width:0.25;fill:none" />
  <path d="M59.5488,292.915 A0.500479,0.500479 0 0,0 60.0492,292.415 " style="stroke:rgb(0,0,0);stroke-width:0.25;fill:none" />
  <path d="M63.0521,287.911 L60.0492,287.911" style="stroke:rgb(0,0,0);stroke-width:0.25;fill:none" />
  <path d="M63.5526,287.41 L63.5526,279.573" style="stroke:rgb(0,0,0);stroke-width:0.25;fill:none" />
  <path d="M63.0521,287.911 A0.500479,0.500479 0 0,0 63.5526,287.41 " style="stroke:rgb(0,0,0);stroke-width:0.25;fill:none" />
  <path d="M66.5555,279.573 L66.5555,287.41" style="stroke:rgb(0,0,0);stroke-width:0.25;fill:none" />
  <path d="M67.0559,287.911 L70.0588,287.911" style="stroke:rgb(0,0,0);stroke-width:0.25;fill:none" />
  <path d="M66.5555,287.41 A0.500479,0.500479 0 0,0 67.0559,287.911 " style="stroke:rgb(0,0,0);stroke-width:0.25;fill:none" />
  <path d="M70.0588,287.911 L70.0588,292.415" style="stroke:rgb(0,0,0);stroke-width:0.25;fill:none" />
  <path d="M70.0588,292.415 A0.500479,0.500479 0 0,0 70.5593,292.915 " style="stroke:rgb(0,0,0);stroke-width:0.25;fill:none" />
  <path d="M70.5593,292.915 L74.5631,292.915" style="stroke:rgb(0,0,0);stroke-width:0.25;fill:none" />
  <path d="M75.0636,292.415 L75.0636,287.911" style="stroke:rgb(0,0,0);stroke-width:0.25;fill:none" />
  <path d="M74.5631,292.915 A0.500479,0.500479 0 0,0 75.0636,292.415 " style="stroke:rgb(0,0,0);stroke-width:0.25;fill:none" />
  <path d="M18.873,261.023 A3.16803,3.16803 0 0,0 23.3532,256.543 " style="stroke:rgb(0,0,0);stroke-width:0.1;fill:none" />
  <path d="M23.3532,253.027 A3.51537,3.51537 0 0,0 20.8675,254.057 " style="stroke:rgb(0,0,0);stroke-width:0.1;fill:none" />
  <path d="M23.3532,256.543 L20.8675,254.057" style="stroke:rgb(0,0,0);stroke-width:0.1;fill:none" />
  <path d="M32.0224,253.027 L23.3532,253.027" style="stroke:rgb(0,0,0);stroke-width:0.1;fill:none" />
  <path d="M50.0397,287.911 L50.0397,292.915" style="stroke:rgb(0,0,0);stroke-width:0.1;fill:none" />
  <path d="M50.0397,287.911 L55.0445,287.911" style="stroke:rgb(0,0,0);stroke-width:0.1;fill:none" />
  <path d="M135.622,261.956 A0.500479,0.500479 0 0,0 135.121,262.456 " style="stroke:rgb(0,0,0);stroke-width:0.1;fill:none" />
  <path d="M135.622,261.956 L137.662,261.956" style="stroke:rgb(0,0,0);stroke-width:0.1;fill:none" />
  <path d="M137.662,258.783 L137.662,261.956" style="stroke:rgb(0,0,0);stroke-width:0.1;fill:none" />
  <ellipse cx="145.669" cy="268.792" rx="1.50144" ry="1.50144" style="stroke:rgb(0,0,0);stroke-width:0.1;fill:none;"/>
  <path d="M142.501,258.783 A2.41981,2.41981 0 0,0 137.662,258.783 " style="stroke:rgb(0,0,0);stroke-width:0.1;fill:none" />
  <path d="M153.677,258.783 A2.41981,2.41981 0 0,0 148.837,258.783 " style="stroke:rgb(0,0,0);stroke-width:0.1;fill:none" />
  <path d="M142.501,258.783 A3.16803,3.16803 0 1,0 148.837,258.783 " style="stroke:rgb(0,0,0);stroke-width:0.1;fill:none" />
  <path d="M145.669,292.915 A8.00766,8.00766 0 0,0 153.677,284.908 " style="stroke:rgb(0,0,0);stroke-width:0.1;fill:none" />
  <path d="M153.677,258.783 L153.677,284.908" style="stroke:rgb(0,0,0);stroke-width:0.1;fill:none" />
  <path d="M97.5851,276.4 L100.588,276.4" style="stroke:rgb(0,0,0);stroke-width:0.25;fill:none" />
  <path d="M96.2238,279.573 L96.2238,277.401" style="stroke:rgb(0,0,0);stroke-width:0.25;fill:none" />
  <path d="M101.949,277.401 L101.949,279.573" style="stroke:rgb(0,0,0);stroke-width:0.25;fill:none" />
  <path d="M97.5851,279.573 L96.2238,279.573" style="stroke:rgb(0,0,0);stroke-width:0.25;fill:none" />
  <path d="M101.949,279.573 L100.588,279.573" style="stroke:rgb(0,0,0);stroke-width:0.25;fill:none" />
  <path d="M100.588,276.4 L100.588,277.401" style="stroke:rgb(0,0,0);stroke-width:0.25;fill:none" />
  <path d="M100.588,277.401 L101.949,277.401" style="stroke:rgb(0,0,0);stroke-width:0.25;fill:none" />
  <path d="M96.2238,277.401 L97.5851,277.401" style="stroke:rgb(0,0,0);stroke-width:0.25;fill:none" />
  <path d="M97.5851,277.401 L97.5851,276.4" style="stroke:rgb(0,0,0);stroke-width:0.25;fill:none" />
  <path d="M89.077,292.415 L89.077,287.911" style="stroke:rgb(0,0,0);stroke-width:0.25;fill:none" />
  <path d="M89.077,292.415 A0.500479,0.500479 0 0,0 89.5775,292.915 " style="stroke:rgb(0,0,0);stroke-width:0.25;fill:none" />
  <path d="M93.5813,292.915 L89.5775,292.915" style="stroke:rgb(0,0,0);stroke-width:0.25;fill:none" />
  <path d="M94.0818,287.911 L94.0818,292.415" style="stroke:rgb(0,0,0);stroke-width:0.25;fill:none" />
  <path d="M93.5813,292.915 A0.500479,0.500479 0 0,0 94.0818,292.415 " style="stroke:rgb(0,0,0);stroke-width:0.25;fill:none" />
  <path d="M97.0847,287.911 L94.0818,287.911" style="stroke:rgb(0,0,0);stroke-width:0.25;fill:none" />
  <path d="M97.5851,287.41 L97.5851,279.573" style="stroke:rgb(0,0,0);stroke-width:0.25;fill:none" />
  <path d="M97.0847,287.911 A0.500479,0.500479 0 0,0 97.5851,287.41 " style="stroke:rgb(0,0,0);stroke-width:0.25;fill:none" />
  <path d="M100.588,279.573 L100.588,287.41" style="stroke:rgb(0,0,0);stroke-width:0.25;fill:none" />
  <path d="M101.088,287.911 L104.091,287.911" style="stroke:rgb(0,0,0);stroke-width:0.25;fill:none" />
  <path d="M100.588,287.41 A0.500479,0.500479 0 0,0 101.088,287.911 " style="stroke:rgb(0,0,0);stroke-width:0.25;fill:none" />
  <path d="M104.091,287.911 L104.091,292.415" style="stroke:rgb(0,0,0);stroke-width:0.25;fill:none" />
  <path d="M104.091,292.415 A0.500479,0.500479 0 0,0 104.592,292.915 " style="stroke:rgb(0,0,0);stroke-width:0.25;fill:none" />
  <path d="M104.592,292.915 L108.596,292.915" style="stroke:rgb(0,0,0);stroke-width:0.25;fill:none" />
  <path d="M109.096,292.415 L109.096,287.911" style="stroke:rgb(0,0,0);stroke-width:0.25;fill:none" />
  <path d="M108.596,292.915 A0.500479,0.500479 0 0,0 109.096,292.415 " style="stroke:rgb(0,0,0);stroke-width:0.25;fill:none" />
  <path d="M75.0636,287.911 L89.077,287.911" style="stroke:rgb(0,0,0);stroke-width:0.1;fill:none" />
  <path d="M114.101,287.911 L114.101,292.915" style="stroke:rgb(0,0,0);stroke-width:0.1;fill:none" />
  <path d="M109.096,287.911 L114.101,287.911" style="stroke:rgb(0,0,0);stroke-width:0.1;fill:none" />
  <path d="M114.101,292.915 L145.669,292.915" style="stroke:rgb(0,0,0);stroke-width:0.1;fill:none" />
  <path d="M135.121,263.788 L135.121,262.456" style="stroke:rgb(0,0,0);stroke-width:0.1;fill:none" />
  <path d="M133.119,262.456 A0.500479,0.500479 0 0,0 132.619,261.956 " style="stroke:rgb(0,0,0);stroke-width:0.1;fill:none" />
  <path d="M133.119,262.456 L133.119,263.788" style="stroke:rgb(0,0,0);stroke-width:0.1;fill:none" />
  <path d="M132.619,261.956 L123.071,261.956" style="stroke:rgb(0,0,0);stroke-width:0.1;fill:none" />
  <path d="M133.119,263.788 A10.0595,10.0595 0 1,0 135.121,263.788 " style="stroke:rgb(0,0,0);stroke-width:0.1;fill:none" />
  <ellipse cx="8.47132" cy="267.439" rx="1.50144" ry="1.50144" style="stroke:rgb(0,0,0);stroke-width:0.1;fill:none;"/>
  <path d="M14.0648,267.592 L18.6006,265.476" style="stroke:rgb(0,0,0);stroke-width:0.1;fill:none" />
  <path d="M4.993,271.822 L0.457127,273.937" style="stroke:rgb(0,0,0);stroke-width:0.1;fill:none" />
  <path d="M2.87789,267.286 L4.993,271.822" style="stroke:rgb(0,0,0);stroke-width:0.1;fill:none" />
  <path d="M11.9496,263.056 L14.0648,267.592" style="stroke:rgb(0,0,0);stroke-width:0.1;fill:none" />
  <path d="M2.87789,267.286 L11.9496,263.056" style="stroke:rgb(0,0,0);stroke-width:0.1;fill:none" />
  <path d="M16.4855,260.941 L18.6006,265.476" style="stroke:rgb(0,0,0);stroke-width:0.1;fill:none" />
  <path d="M16.4855,260.941 L18.873,261.023" style="stroke:rgb(0,0,0);stroke-width:0.1;fill:none" />
  <path d="M15.4508,290.57 A8.00766,8.00766 0 0,0 21.1131,292.915 " style="stroke:rgb(0,0,0);stroke-width:0.1;fill:none" />
  <path d="M0.457127,273.937 L15.4508,290.57" style="stroke:rgb(0,0,0);stroke-width:0.1;fill:none" />
  <path d="M32.0224,261.956 L41.0692,261.956" style="stroke:rgb(0,0,0);stroke-width:0.1;fill:none" />
  <path d="M61.0883,257.451 L61.0883,261.956" style="stroke:rgb(0,0,0);stroke-width:0.1;fill:none" />
  <path d="M61.0883,257.451 A0.500479,0.500479 0 0,0 60.5879,256.951 " style="stroke:rgb(0,0,0);stroke-width:0.1;fill:none" />
  <path d="M41.0692,256.951 L60.5879,256.951" style="stroke:rgb(0,0,0);stroke-width:0.1;fill:none" />
  <path d="M103.052,257.451 L103.052,261.956" style="stroke:rgb(0,0,0);stroke-width:0.1;fill:none" />
  <path d="M103.553,256.951 A0.500479,0.500479 0 0,0 103.052,257.451 " style="stroke:rgb(0,0,0);stroke-width:0.1;fill:none" />
  <path d="M122.571,256.951 L103.553,256.951" style="stroke:rgb(0,0,0);stroke-width:0.1;fill:none" />
  <path d="M61.0883,261.956 L103.052,261.956" style="stroke:rgb(0,0,0);stroke-width:0.1;fill:none" />
  <path d="M109.096,283.807 L109.096,283.807" style="stroke:rgb(0,0,0);stroke-width:0.1;fill:none" />
  <path d="M109.096,283.807 L115.102,283.807" style="stroke:rgb(0,0,0);stroke-width:0.1;fill:none" />
  <ellipse cx="112.099" cy="278.802" rx="1.50144" ry="1.50144" style="stroke:rgb(0,0,0);stroke-width:0.1;fill:none;"/>
  <path d="M109.096,280.303 L109.096,283.807" style="stroke:rgb(0,0,0);stroke-width:0.1;fill:none" />
  <path d="M115.102,283.807 L115.102,280.303" style="stroke:rgb(0,0,0);stroke-width:0.1;fill:none" />
  <path d="M115.102,280.303 L112.099,280.303" style="stroke:rgb(0,0,0);stroke-width:0.1;fill:none" />
  <path d="M112.099,280.303 L112.099,280.303" style="stroke:rgb(0,0,0);stroke-width:0.1;fill:none" />
  <path d="M112.099,280.303 L112.099,280.303" style="stroke:rgb(0,0,0);stroke-width:0.1;fill:none" />
  <path d="M112.099,280.303 L109.096,280.303" style="stroke:rgb(0,0,0);stroke-width:0.1;fill:none" />
  <ellipse cx="33.5239" cy="276.8" rx="1.50144" ry="1.50144" style="stroke:rgb(0,0,0);stroke-width:0.1;fill:none;"/>
  <ellipse cx="16.5076" cy="276.8" rx="1.50144" ry="1.50144" style="stroke:rgb(0,0,0);stroke-width:0.1;fill:none;"/>
  <path d="M27.1178,279.603 L27.1178,292.915" style="stroke:rgb(0,0,0);stroke-width:0.1;fill:none" />
  <path d="M22.9137,279.603 L22.9137,292.915" style="stroke:rgb(0,0,0);stroke-width:0.1;fill:none" />
  <path d="M27.1178,279.603 A3.50335,3.50335 0 1,0 22.9137,279.603 " style="stroke:rgb(0,0,0);stroke-width:0.1;fill:none" />
  <path d="M27.1178,292.915 L50.0397,292.915" style="stroke:rgb(0,0,0);stroke-width:0.1;fill:none" />
  <path d="M21.1131,292.915 L22.9137,292.915" style="stroke:rgb(0,0,0);stroke-width:0.1;fill:none" />
  <ellipse cx="145.669" cy="284.908" rx="1.50144" ry="1.50144" style="stroke:rgb(0,0,0);stroke-width:0.1;fill:none;"/>
  <path d="M12.0048,318.014 L7,318.014" style="stroke:rgb(0,0,0);stroke-width:0.1;fill:none" />
  <path d="M7,308.005 L12.0048,308.005" style="stroke:rgb(0,0,0);stroke-width:0.1;fill:none" />
  <path d="M99.0118,308.005 L104.017,308.005" style="stroke:rgb(0,0,0);stroke-width:0.1;fill:none" />
  <path d="M104.017,318.014 L99.0118,318.014" style="stroke:rgb(0,0,0);stroke-width:0.1;fill:none" />
  <path d="M92.5056,314.511 L92.5056,311.508" style="stroke:rgb(0,0,0);stroke-width:0.1;fill:none" />
  <path d="M95.6786,315.872 L93.5065,315.872" style="stroke:rgb(0,0,0);stroke-width:0.1;fill:none" />
  <path d="M93.5065,310.147 L95.6786,310.147" style="stroke:rgb(0,0,0);stroke-width:0.1;fill:none" />
  <path d="M95.6786,314.511 L95.6786,315.872" style="stroke:rgb(0,0,0);stroke-width:0.1;fill:none" />
  <path d="M95.6786,310.147 L95.6786,311.508" style="stroke:rgb(0,0,0);stroke-width:0.1;fill:none" />
  <path d="M92.5056,311.508 L93.5065,311.508" style="stroke:rgb(0,0,0);stroke-width:0.1;fill:none" />
  <path d="M93.5065,311.508 L93.5065,310.147" style="stroke:rgb(0,0,0);stroke-width:0.1;fill:none" />
  <path d="M93.5065,315.872 L93.5065,314.511" style="stroke:rgb(0,0,0);stroke-width:0.1;fill:none" />
  <path d="M93.5065,314.511 L92.5056,314.511" style="stroke:rgb(0,0,0);stroke-width:0.1;fill:none" />
  <path d="M18.511,314.511 L18.511,311.508" style="stroke:rgb(0,0,0);stroke-width:0.1;fill:none" />
  <path d="M15.338,315.872 L17.51,315.872" style="stroke:rgb(0,0,0);stroke-width:0.1;fill:none" />
  <path d="M17.51,310.147 L15.338,310.147" style="stroke:rgb(0,0,0);stroke-width:0.1;fill:none" />
  <path d="M15.338,314.511 L15.338,315.872" style="stroke:rgb(0,0,0);stroke-width:0.1;fill:none" />
  <path d="M15.338,310.147 L15.338,311.508" style="stroke:rgb(0,0,0);stroke-width:0.1;fill:none" />
  <path d="M18.511,311.508 L17.51,311.508" style="stroke:rgb(0,0,0);stroke-width:0.1;fill:none" />
  <path d="M17.51,311.508 L17.51,310.147" style="stroke:rgb(0,0,0);stroke-width:0.1;fill:none" />
  <path d="M17.51,315.872 L17.51,314.511" style="stroke:rgb(0,0,0);stroke-width:0.1;fill:none" />
  <path d="M17.51,314.511 L18.511,314.511" style="stroke:rgb(0,0,0);stroke-width:0.1;fill:none" />
  <path d="M7,303 L104.017,303" style="stroke:rgb(0,0,0);stroke-width:0.1;fill:none" />
  <path d="M104.017,323.019 L7,323.019" style="stroke:rgb(0,0,0);stroke-width:0.1;fill:none" />
  <path d="M12.5053,314.511 A0.500479,0.500479 0 0,0 12.0048,315.011 " style="stroke:rgb(0,0,0);stroke-width:0.1;fill:none" />
  <path d="M12.0048,315.011 L12.0048,318.014" style="stroke:rgb(0,0,0);stroke-width:0.1;fill:none" />
  <path d="M12.0048,311.008 A0.500479,0.500479 0 0,0 12.5053,311.508 " style="stroke:rgb(0,0,0);stroke-width:0.1;fill:none" />
  <path d="M12.0048,311.008 L12.0048,308.005" style="stroke:rgb(0,0,0);stroke-width:0.1;fill:none" />
  <path d="M7,323.019 L7,318.014" style="stroke:rgb(0,0,0);stroke-width:0.1;fill:none" />
  <path d="M7,308.005 L7,303" style="stroke:rgb(0,0,0);stroke-width:0.1;fill:none" />
  <path d="M12.5053,314.511 L15.338,314.511" style="stroke:rgb(0,0,0);stroke-width:0.1;fill:none" />
  <path d="M15.338,311.508 L12.5053,311.508" style="stroke:rgb(0,0,0);stroke-width:0.1;fill:none" />
  <path d="M104.017,303 L104.017,308.005" style="stroke:rgb(0,0,0);stroke-width:0.1;fill:none" />
  <path d="M104.017,318.014 L104.017,323.019" style="stroke:rgb(0,0,0);stroke-width:0.1;fill:none" />
  <path d="M99.0118,315.011 A0.500479,0.500479 0 0,0 98.5113,314.511 " style="stroke:rgb(0,0,0);stroke-width:0.1;fill:none" />
  <path d="M99.0118,315.011 L99.0118,318.014" style="stroke:rgb(0,0,0);stroke-width:0.1;fill:none" />
  <path d="M98.5113,311.508 A0.500479,0.500479 0 0,0 99.0118,311.008 " style="stroke:rgb(0,0,0);stroke-width:0.1;fill:none" />
  <path d="M99.0118,311.008 L99.0118,308.005" style="stroke:rgb(0,0,0);stroke-width:0.1;fill:none" />
  <path d="M95.6786,311.508 L98.5113,311.508" style="stroke:rgb(0,0,0);stroke-width:0.1;fill:none" />
  <path d="M98.5113,314.511 L95.6786,314.511" style="stroke:rgb(0,0,0);stroke-width:0.1;fill:none" />
  <path d="M117.788,314.307 L117.788,309.975" style="stroke:rgb(0,0,0);stroke-width:0.1;fill:none" />
  <path d="M117.788,314.307 A3.16803,3.16803 0 1,0 117.788,309.975 " style="stroke:rgb(0,0,0);stroke-width:0.1;fill:none" />
  <path d="M119.098,303.878 L119.013,303.175 L119.087,302.579 L119.676,301.242 L120.524,301.242 L121.113,302.579 L121.187,303.175 L121.102,303.878 L122.576,304.191 L122.785,303.515 L123.095,303 L124.177,302.018 L124.951,302.363 L124.945,303.824 L124.77,304.399 L124.407,305.007 L125.626,305.892 L126.092,305.359 L126.585,305.015 L127.972,304.558 L128.54,305.188 L127.94,306.521 L127.546,306.975 L126.968,307.382 L127.721,308.687 L128.363,308.389 L128.953,308.275 L130.407,308.422 L130.669,309.229 L129.579,310.202 L129.035,310.457 L128.341,310.593 L128.498,312.092 L129.206,312.081 L129.791,312.217 L131.059,312.943 L130.971,313.786 L129.579,314.232 L128.978,314.243 L128.288,314.085 L127.823,315.518 L128.473,315.797 L128.953,316.159 L129.817,317.337 L129.393,318.072 L127.94,317.913 L127.387,317.679 L126.82,317.254 L125.812,318.374 L126.294,318.893 L126.585,319.419 L126.894,320.847 L126.208,321.345 L124.945,320.61 L124.535,320.171 L124.191,319.552 L122.814,320.165 L123.043,320.835 L123.095,321.434 L122.796,322.864 L121.967,323.04 L121.113,321.855 L120.917,321.287 L120.853,320.582 L119.346,320.582 L119.283,321.287 L119.087,321.855 L118.233,323.04 L117.403,322.864 L117.105,321.434 L117.157,320.835 L117.386,320.165 L116.009,319.552 L115.665,320.171 L115.254,320.61 L113.992,321.345 L113.306,320.847 L113.615,319.419 L113.906,318.893 L114.388,318.374 L113.379,317.254 L112.813,317.679 L112.26,317.913 L110.807,318.072 L110.383,317.337 L111.247,316.159 L111.726,315.797 L112.377,315.518 L111.911,314.085 L111.221,314.243 L110.621,314.232 L109.229,313.786 L109.141,312.943 L110.409,312.217 L110.994,312.081 L111.702,312.092 L111.859,310.593 L111.165,310.457 L110.621,310.202 L109.531,309.229 L109.793,308.422 L111.247,308.275 L111.837,308.389 L112.479,308.687 L113.232,307.382 L112.654,306.975 L112.26,306.521 L111.66,305.188 L112.227,304.558 L113.615,305.015 L114.108,305.359 L114.574,305.892 L115.792,305.007 L115.43,304.399 L115.254,303.824 L115.249,302.363 L116.023,302.018 L117.105,303 L117.415,303.515 L117.624,304.191 L119.098,303.878 " style="stroke:rgb(0,0,0);stroke-width:0.1;fill:none" />
  <path d="M147.724,311.836 L147.648,312.475 L147.714,313.017 L148.25,314.233 L149.021,314.233 L149.556,313.017 L149.623,312.475 L149.547,311.836 L150.886,311.551 L151.076,312.166 L151.358,312.634 L152.341,313.527 L153.046,313.213 L153.04,311.885 L152.881,311.362 L152.551,310.81 L153.659,310.005 L154.083,310.489 L154.531,310.803 L155.792,311.218 L156.308,310.645 L155.763,309.434 L155.405,309.021 L154.879,308.651 L155.564,307.464 L156.148,307.735 L156.684,307.839 L158.005,307.705 L158.244,306.972 L157.253,306.087 L156.758,305.856 L156.127,305.731 L156.27,304.369 L156.913,304.379 L157.445,304.255 L158.598,303.596 L158.518,302.829 L157.253,302.424 L156.707,302.414 L156.079,302.557 L155.656,301.254 L156.248,301.001 L156.684,300.672 L157.469,299.6 L157.083,298.933 L155.763,299.077 L155.26,299.29 L154.745,299.676 L153.829,298.658 L154.266,298.186 L154.531,297.708 L154.812,296.41 L154.188,295.957 L153.04,296.625 L152.668,297.025 L152.354,297.587 L151.103,297.029 L151.311,296.421 L151.358,295.876 L151.087,294.576 L150.333,294.416 L149.556,295.493 L149.378,296.01 L149.32,296.651 L147.95,296.651 L147.893,296.01 L147.714,295.493 L146.938,294.416 L146.184,294.576 L145.913,295.876 L145.96,296.421 L146.168,297.029 L144.917,297.587 L144.603,297.025 L144.23,296.625 L143.083,295.957 L142.459,296.41 L142.74,297.708 L143.005,298.186 L143.442,298.658 L142.526,299.676 L142.011,299.29 L141.508,299.077 L140.187,298.933 L139.802,299.6 L140.587,300.672 L141.023,301.001 L141.615,301.254 L141.191,302.557 L140.564,302.414 L140.018,302.424 L138.753,302.829 L138.673,303.596 L139.825,304.255 L140.358,304.379 L141.001,304.369 L141.144,305.731 L140.513,305.856 L140.018,306.087 L139.027,306.972 L139.266,307.705 L140.587,307.839 L141.123,307.735 L141.707,307.464 L142.392,308.651 L141.866,309.021 L141.508,309.434 L140.963,310.645 L141.479,311.218 L142.74,310.803 L143.188,310.489 L143.612,310.005 L144.72,310.81 L144.39,311.362 L144.23,311.885 L144.225,313.213 L144.929,313.527 L145.913,312.634 L146.195,312.166 L146.384,311.551 L147.724,311.836 " style="stroke:rgb(0,0,0);stroke-width:0.1;fill:none" />
  <path d="M147.134,303 L147.134,305.648" style="stroke:rgb(0,0,0);stroke-width:0.1;fill:none" />
  <path d="M147.134,305.648 A2.00191,2.00191 0 1,0 147.134,303 " style="stroke:rgb(0,0,0);stroke-width:0.1;fill:none" />
  <path d="M9.50239,360.555 L29.5215,445.636" style="stroke:rgb(0,0,0);stroke-width:0.1;fill:none" />
  <path d="M304.785,445.636 L284.766,360.555" style="stroke:rgb(0,0,0);stroke-width:0.1;fill:none" />
  <path d="M9.50239,360.555 L284.766,360.555" style="stroke:rgb(0,0,0);stroke-width:0.1;fill:none" />
  <path d="M304.785,445.636 L29.5215,445.636" style="stroke:rgb(0,0,0);stroke-width:0.1;fill:none" />
</svg>
