<?xml version="1.0" standalone="yes"?>

<svg width="319mm" height="398mm" viewBox="0 0 319 398" version="1.1"
xmlns="http://www.w3.org/2000/svg" style="stroke-linecap:round">
  <path d="M27.0122,133.145 A1.00077,1.00077 0 0,0 26.0114,132.145 " style="stroke:rgb(0,0,0);stroke-width:0.1;fill:none" />
  <ellipse cx="25.0096" cy="151.459" rx="3.50271" ry="3.50271" style="stroke:rgb(0,0,0);stroke-width:0.1;fill:none;"/>
  <path d="M20.1451,135.51 A2.15767,2.15767 0 0,0 21.7081,139.155 " style="stroke:rgb(0,0,0);stroke-width:0.1;fill:none" />
  <path d="M20.1451,133.145 L20.1451,135.51" style="stroke:rgb(0,0,0);stroke-width:0.1;fill:none" />
  <ellipse cx="18.0052" cy="145.905" rx="1.00077" ry="1.00077" style="stroke:rgb(0,0,0);stroke-width:0.1;fill:none;"/>
  <path d="M20.7637,138.94 L18.3738,144.975" style="stroke:rgb(0,0,0);stroke-width:0.1;fill:none" />
  <path d="M128.264,153.186 L128.264,153.186" style="stroke:rgb(0,0,0);stroke-width:0.1;fill:none" />
  <path d="M128.264,153.186 L128.264,153.186" style="stroke:rgb(0,0,0);stroke-width:0.1;fill:none" />
  <ellipse cx="128.591" cy="151.685" rx="1.50116" ry="1.50116" style="stroke:rgb(0,0,0);stroke-width:0.1;fill:none;"/>
  <path d="M132.093,153.186 L128.591,153.186" style="stroke:rgb(0,0,0);stroke-width:0.1;fill:none" />
  <path d="M128.591,153.186 L125.088,153.186" style="stroke:rgb(0,0,0);stroke-width:0.1;fill:none" />
  <path d="M132.394,139.156 A2.15767,2.15767 0 0,0 133.957,135.511 " style="stroke:rgb(0,0,0);stroke-width:0.1;fill:none" />
  <path d="M134.957,132.146 A1.00077,1.00077 0 0,0 133.957,133.147 " style="stroke:rgb(0,0,0);stroke-width:0.1;fill:none" />
  <path d="M133.957,133.147 L133.957,135.511" style="stroke:rgb(0,0,0);stroke-width:0.1;fill:none" />
  <ellipse cx="136.097" cy="145.906" rx="1.00077" ry="1.00077" style="stroke:rgb(0,0,0);stroke-width:0.1;fill:none;"/>
  <path d="M133.338,138.942 L135.728,144.976" style="stroke:rgb(0,0,0);stroke-width:0.1;fill:none" />
  <path d="M128.09,132.146 A1.00077,1.00077 0 0,0 127.09,133.147 " style="stroke:rgb(0,0,0);stroke-width:0.1;fill:none" />
  <path d="M45.0261,155.037 L45.0261,160.041" style="stroke:rgb(0,0,0);stroke-width:0.1;fill:none" />
  <path d="M45.0261,155.037 L50.03,155.037" style="stroke:rgb(0,0,0);stroke-width:0.1;fill:none" />
  <path d="M70.0455,155.037 L84.0563,155.037" style="stroke:rgb(0,0,0);stroke-width:0.1;fill:none" />
  <path d="M109.076,155.037 L109.076,160.041" style="stroke:rgb(0,0,0);stroke-width:0.1;fill:none" />
  <path d="M104.072,155.037 L109.076,155.037" style="stroke:rgb(0,0,0);stroke-width:0.1;fill:none" />
  <path d="M58.5366,147.928 L61.5389,147.928" style="stroke:rgb(0,0,0);stroke-width:0.1;fill:none" />
  <path d="M57.1755,151.101 L57.1755,148.929" style="stroke:rgb(0,0,0);stroke-width:0.1;fill:none" />
  <path d="M62.8999,148.929 L62.8999,151.101" style="stroke:rgb(0,0,0);stroke-width:0.1;fill:none" />
  <path d="M58.5366,151.101 L57.1755,151.101" style="stroke:rgb(0,0,0);stroke-width:0.1;fill:none" />
  <path d="M62.8999,151.101 L61.5389,151.101" style="stroke:rgb(0,0,0);stroke-width:0.1;fill:none" />
  <path d="M61.5389,147.928 L61.5389,148.929" style="stroke:rgb(0,0,0);stroke-width:0.1;fill:none" />
  <path d="M61.5389,148.929 L62.8999,148.929" style="stroke:rgb(0,0,0);stroke-width:0.1;fill:none" />
  <path d="M57.1755,148.929 L58.5366,148.929" style="stroke:rgb(0,0,0);stroke-width:0.1;fill:none" />
  <path d="M58.5366,148.929 L58.5366,147.928" style="stroke:rgb(0,0,0);stroke-width:0.1;fill:none" />
  <path d="M58.5366,154.537 L58.5366,151.101" style="stroke:rgb(0,0,0);stroke-width:0.1;fill:none" />
  <path d="M61.5389,151.101 L61.5389,154.537" style="stroke:rgb(0,0,0);stroke-width:0.1;fill:none" />
  <path d="M50.03,159.541 L50.03,155.037" style="stroke:rgb(0,0,0);stroke-width:0.1;fill:none" />
  <path d="M50.03,159.541 A0.500387,0.500387 0 0,0 50.5304,160.041 " style="stroke:rgb(0,0,0);stroke-width:0.1;fill:none" />
  <path d="M54.5335,160.041 L50.5304,160.041" style="stroke:rgb(0,0,0);stroke-width:0.1;fill:none" />
  <path d="M55.0339,155.037 L55.0339,159.541" style="stroke:rgb(0,0,0);stroke-width:0.1;fill:none" />
  <path d="M54.5335,160.041 A0.500387,0.500387 0 0,0 55.0339,159.541 " style="stroke:rgb(0,0,0);stroke-width:0.1;fill:none" />
  <path d="M58.0362,155.037 L55.0339,155.037" style="stroke:rgb(0,0,0);stroke-width:0.1;fill:none" />
  <path d="M58.0362,155.037 A0.500387,0.500387 0 0,0 58.5366,154.537 " style="stroke:rgb(0,0,0);stroke-width:0.1;fill:none" />
  <path d="M62.0393,155.037 L65.0416,155.037" style="stroke:rgb(0,0,0);stroke-width:0.1;fill:none" />
  <path d="M61.5389,154.537 A0.500387,0.500387 0 0,0 62.0393,155.037 " style="stroke:rgb(0,0,0);stroke-width:0.1;fill:none" />
  <path d="M65.0416,155.037 L65.0416,159.541" style="stroke:rgb(0,0,0);stroke-width:0.1;fill:none" />
  <path d="M65.0416,159.541 A0.500387,0.500387 0 0,0 65.542,160.041 " style="stroke:rgb(0,0,0);stroke-width:0.1;fill:none" />
  <path d="M65.542,160.041 L69.5451,160.041" style="stroke:rgb(0,0,0);stroke-width:0.1;fill:none" />
  <path d="M70.0455,159.541 L70.0455,155.037" style="stroke:rgb(0,0,0);stroke-width:0.1;fill:none" />
  <path d="M69.5451,160.041 A0.500387,0.500387 0 0,0 70.0455,159.541 " style="stroke:rgb(0,0,0);stroke-width:0.1;fill:none" />
  <path d="M92.5629,147.928 L95.5652,147.928" style="stroke:rgb(0,0,0);stroke-width:0.1;fill:none" />
  <path d="M91.2018,151.101 L91.2018,148.929" style="stroke:rgb(0,0,0);stroke-width:0.1;fill:none" />
  <path d="M96.9262,148.929 L96.9262,151.101" style="stroke:rgb(0,0,0);stroke-width:0.1;fill:none" />
  <path d="M92.5629,151.101 L91.2018,151.101" style="stroke:rgb(0,0,0);stroke-width:0.1;fill:none" />
  <path d="M96.9262,151.101 L95.5652,151.101" style="stroke:rgb(0,0,0);stroke-width:0.1;fill:none" />
  <path d="M95.5652,147.928 L95.5652,148.929" style="stroke:rgb(0,0,0);stroke-width:0.1;fill:none" />
  <path d="M95.5652,148.929 L96.9262,148.929" style="stroke:rgb(0,0,0);stroke-width:0.1;fill:none" />
  <path d="M91.2018,148.929 L92.5629,148.929" style="stroke:rgb(0,0,0);stroke-width:0.1;fill:none" />
  <path d="M92.5629,148.929 L92.5629,147.928" style="stroke:rgb(0,0,0);stroke-width:0.1;fill:none" />
  <path d="M92.5629,154.537 L92.5629,151.101" style="stroke:rgb(0,0,0);stroke-width:0.1;fill:none" />
  <path d="M95.5652,151.101 L95.5652,154.537" style="stroke:rgb(0,0,0);stroke-width:0.1;fill:none" />
  <path d="M92.0625,155.037 L89.0602,155.037" style="stroke:rgb(0,0,0);stroke-width:0.1;fill:none" />
  <path d="M92.0625,155.037 A0.500387,0.500387 0 0,0 92.5629,154.537 " style="stroke:rgb(0,0,0);stroke-width:0.1;fill:none" />
  <path d="M96.0656,155.037 L99.0679,155.037" style="stroke:rgb(0,0,0);stroke-width:0.1;fill:none" />
  <path d="M95.5652,154.537 A0.500387,0.500387 0 0,0 96.0656,155.037 " style="stroke:rgb(0,0,0);stroke-width:0.1;fill:none" />
  <path d="M84.0563,159.541 L84.0563,155.037" style="stroke:rgb(0,0,0);stroke-width:0.1;fill:none" />
  <path d="M84.0563,159.541 A0.500387,0.500387 0 0,0 84.5567,160.041 " style="stroke:rgb(0,0,0);stroke-width:0.1;fill:none" />
  <path d="M88.5598,160.041 L84.5567,160.041" style="stroke:rgb(0,0,0);stroke-width:0.1;fill:none" />
  <path d="M89.0602,155.037 L89.0602,159.541" style="stroke:rgb(0,0,0);stroke-width:0.1;fill:none" />
  <path d="M88.5598,160.041 A0.500387,0.500387 0 0,0 89.0602,159.541 " style="stroke:rgb(0,0,0);stroke-width:0.1;fill:none" />
  <path d="M92.0625,155.037 L89.0602,155.037" style="stroke:rgb(0,0,0);stroke-width:0.1;fill:none" />
  <path d="M92.0625,155.037 A0.500387,0.500387 0 0,0 92.5629,154.537 " style="stroke:rgb(0,0,0);stroke-width:0.1;fill:none" />
  <path d="M96.0656,155.037 L99.0679,155.037" style="stroke:rgb(0,0,0);stroke-width:0.1;fill:none" />
  <path d="M95.5652,154.537 A0.500387,0.500387 0 0,0 96.0656,155.037 " style="stroke:rgb(0,0,0);stroke-width:0.1;fill:none" />
  <path d="M99.0679,155.037 L99.0679,159.541" style="stroke:rgb(0,0,0);stroke-width:0.1;fill:none" />
  <path d="M99.0679,159.541 A0.500387,0.500387 0 0,0 99.5683,160.041 " style="stroke:rgb(0,0,0);stroke-width:0.1;fill:none" />
  <path d="M99.5683,160.041 L103.571,160.041" style="stroke:rgb(0,0,0);stroke-width:0.1;fill:none" />
  <path d="M104.072,159.541 L104.072,155.037" style="stroke:rgb(0,0,0);stroke-width:0.1;fill:none" />
  <path d="M103.571,160.041 A0.500387,0.500387 0 0,0 104.072,159.541 " style="stroke:rgb(0,0,0);stroke-width:0.1;fill:none" />
  <ellipse cx="19.5053" cy="151.459" rx="1.20093" ry="1.20093" style="stroke:rgb(0,0,0);stroke-width:0.1;fill:none;"/>
  <ellipse cx="30.5138" cy="151.459" rx="1.20093" ry="1.20093" style="stroke:rgb(0,0,0);stroke-width:0.1;fill:none;"/>
  <path d="M24.5103,132.145 A1.00077,1.00077 0 0,0 23.5095,133.145 " style="stroke:rgb(0,0,0);stroke-width:0.1;fill:none" />
  <path d="M26.0114,132.145 L24.5103,132.145" style="stroke:rgb(0,0,0);stroke-width:0.1;fill:none" />
  <path d="M23.5095,133.145 L23.5095,135.809" style="stroke:rgb(0,0,0);stroke-width:0.1;fill:none" />
  <path d="M20.7637,138.94 A2.16067,2.16067 0 0,0 23.512,135.808 " style="stroke:rgb(0,0,0);stroke-width:0.1;fill:none" />
  <path d="M130.592,133.147 A1.00077,1.00077 0 0,0 129.591,132.146 " style="stroke:rgb(0,0,0);stroke-width:0.1;fill:none" />
  <path d="M128.09,132.146 L129.591,132.146" style="stroke:rgb(0,0,0);stroke-width:0.1;fill:none" />
  <path d="M130.592,133.147 L130.592,135.811" style="stroke:rgb(0,0,0);stroke-width:0.1;fill:none" />
  <path d="M130.592,135.811 A2.15767,2.15767 0 0,0 133.337,138.939 " style="stroke:rgb(0,0,0);stroke-width:0.1;fill:none" />
  <path d="M134.957,160.041 A8.00619,8.00619 0 0,0 142.964,152.035 " style="stroke:rgb(0,0,0);stroke-width:0.1;fill:none" />
  <path d="M142.964,149.908 L142.964,152.035" style="stroke:rgb(0,0,0);stroke-width:0.1;fill:none" />
  <path d="M142.964,140.152 A8.00619,8.00619 0 0,0 134.957,132.146 " style="stroke:rgb(0,0,0);stroke-width:0.1;fill:none" />
  <path d="M142.964,140.152 L142.964,149.908" style="stroke:rgb(0,0,0);stroke-width:0.1;fill:none" />
  <path d="M109.076,160.041 L134.957,160.041" style="stroke:rgb(0,0,0);stroke-width:0.1;fill:none" />
  <path d="M27.0122,139.6 L29.0519,139.6" style="stroke:rgb(0,0,0);stroke-width:0.1;fill:none" />
  <path d="M33.055,139.6 L36.0573,139.6" style="stroke:rgb(0,0,0);stroke-width:0.1;fill:none" />
  <path d="M29.5523,140.101 A0.500387,0.500387 0 0,0 29.0519,139.6 " style="stroke:rgb(0,0,0);stroke-width:0.1;fill:none" />
  <path d="M33.055,139.6 A0.500387,0.500387 0 0,0 32.5546,140.101 " style="stroke:rgb(0,0,0);stroke-width:0.1;fill:none" />
  <path d="M121.547,140.101 A0.500387,0.500387 0 0,0 121.047,139.6 " style="stroke:rgb(0,0,0);stroke-width:0.1;fill:none" />
  <path d="M125.05,139.6 A0.500387,0.500387 0 0,0 124.549,140.101 " style="stroke:rgb(0,0,0);stroke-width:0.1;fill:none" />
  <path d="M125.05,139.6 L127.09,139.6" style="stroke:rgb(0,0,0);stroke-width:0.1;fill:none" />
  <path d="M27.0122,133.145 L27.0122,139.6" style="stroke:rgb(0,0,0);stroke-width:0.1;fill:none" />
  <path d="M127.09,133.147 L127.09,139.602" style="stroke:rgb(0,0,0);stroke-width:0.1;fill:none" />
  <path d="M125.088,156.213 L132.093,156.213" style="stroke:rgb(0,0,0);stroke-width:0.1;fill:none" />
  <path d="M132.093,156.213 L132.093,153.186" style="stroke:rgb(0,0,0);stroke-width:0.1;fill:none" />
  <path d="M125.088,153.186 L125.088,156.213" style="stroke:rgb(0,0,0);stroke-width:0.1;fill:none" />
  <path d="M29.5523,146.209 L32.5546,146.209" style="stroke:rgb(0,0,0);stroke-width:0.1;fill:none" />
  <path d="M28.1912,143.036 L28.1912,145.208" style="stroke:rgb(0,0,0);stroke-width:0.1;fill:none" />
  <path d="M33.9156,145.208 L33.9156,143.036" style="stroke:rgb(0,0,0);stroke-width:0.1;fill:none" />
  <path d="M29.5523,143.036 L28.1912,143.036" style="stroke:rgb(0,0,0);stroke-width:0.1;fill:none" />
  <path d="M33.9156,143.036 L32.5546,143.036" style="stroke:rgb(0,0,0);stroke-width:0.1;fill:none" />
  <path d="M32.5546,146.209 L32.5546,145.208" style="stroke:rgb(0,0,0);stroke-width:0.1;fill:none" />
  <path d="M32.5546,145.208 L33.9156,145.208" style="stroke:rgb(0,0,0);stroke-width:0.1;fill:none" />
  <path d="M28.1912,145.208 L29.5523,145.208" style="stroke:rgb(0,0,0);stroke-width:0.1;fill:none" />
  <path d="M29.5523,145.208 L29.5523,146.209" style="stroke:rgb(0,0,0);stroke-width:0.1;fill:none" />
  <path d="M121.547,146.209 L124.549,146.209" style="stroke:rgb(0,0,0);stroke-width:0.1;fill:none" />
  <path d="M120.186,143.036 L120.186,145.208" style="stroke:rgb(0,0,0);stroke-width:0.1;fill:none" />
  <path d="M125.911,145.208 L125.911,143.036" style="stroke:rgb(0,0,0);stroke-width:0.1;fill:none" />
  <path d="M121.547,143.036 L120.186,143.036" style="stroke:rgb(0,0,0);stroke-width:0.1;fill:none" />
  <path d="M125.911,143.036 L124.549,143.036" style="stroke:rgb(0,0,0);stroke-width:0.1;fill:none" />
  <path d="M124.549,146.209 L124.549,145.208" style="stroke:rgb(0,0,0);stroke-width:0.1;fill:none" />
  <path d="M124.549,145.208 L125.911,145.208" style="stroke:rgb(0,0,0);stroke-width:0.1;fill:none" />
  <path d="M120.186,145.208 L121.547,145.208" style="stroke:rgb(0,0,0);stroke-width:0.1;fill:none" />
  <path d="M121.547,145.208 L121.547,146.209" style="stroke:rgb(0,0,0);stroke-width:0.1;fill:none" />
  <path d="M29.5523,140.101 L29.5523,143.036" style="stroke:rgb(0,0,0);stroke-width:0.1;fill:none" />
  <path d="M32.5546,143.036 L32.5546,140.101" style="stroke:rgb(0,0,0);stroke-width:0.1;fill:none" />
  <path d="M121.547,140.101 L121.547,143.036" style="stroke:rgb(0,0,0);stroke-width:0.1;fill:none" />
  <path d="M124.549,143.036 L124.549,140.101" style="stroke:rgb(0,0,0);stroke-width:0.1;fill:none" />
  <path d="M36.5577,133.496 A0.500387,0.500387 0 0,0 36.0573,133.996 " style="stroke:rgb(0,0,0);stroke-width:0.1;fill:none" />
  <path d="M36.0573,139.6 L36.0573,133.996" style="stroke:rgb(0,0,0);stroke-width:0.1;fill:none" />
  <path d="M20.1451,133.145 A1.08113,1.08113 0 0,0 18.3904,132.495 " style="stroke:rgb(0,0,0);stroke-width:0.1;fill:none" />
  <path d="M14.6213,137.878 L18.3904,132.495" style="stroke:rgb(0,0,0);stroke-width:0.1;fill:none" />
  <ellipse cx="12.0691" cy="150.407" rx="1.50116" ry="1.50116" style="stroke:rgb(0,0,0);stroke-width:0.1;fill:none;"/>
  <path d="M3.56156,153.673 L14.6213,137.878" style="stroke:rgb(0,0,0);stroke-width:0.1;fill:none" />
  <path d="M4.27945,157.17 L7.14955,153.071" style="stroke:rgb(0,0,0);stroke-width:0.1;fill:none" />
  <path d="M7.14955,153.071 L11.2484,155.941" style="stroke:rgb(0,0,0);stroke-width:0.1;fill:none" />
  <path d="M3.56156,153.673 A2.52449,2.52449 0 0,0 4.27945,157.17 " style="stroke:rgb(0,0,0);stroke-width:0.1;fill:none" />
  <path d="M9.0689,159.054 A0.791698,0.791698 0 0,0 9.59874,160.04 " style="stroke:rgb(0,0,0);stroke-width:0.1;fill:none" />
  <path d="M9.0689,159.054 L11.2484,155.941" style="stroke:rgb(0,0,0);stroke-width:0.1;fill:none" />
  <path d="M9.59874,160.04 L45.0261,160.041" style="stroke:rgb(0,0,0);stroke-width:0.1;fill:none" />
  <path d="M70.5649,144.604 L83.5368,144.604" style="stroke:rgb(0,0,0);stroke-width:0.1;fill:none" />
  <path d="M70.5649,133.996 A0.500387,0.500387 0 0,0 70.0645,133.496 " style="stroke:rgb(0,0,0);stroke-width:0.1;fill:none" />
  <path d="M70.5649,133.996 L70.5649,144.604" style="stroke:rgb(0,0,0);stroke-width:0.1;fill:none" />
  <path d="M83.5368,139.6 L83.5368,144.604" style="stroke:rgb(0,0,0);stroke-width:0.1;fill:none" />
  <path d="M36.5577,133.496 L70.0645,133.496" style="stroke:rgb(0,0,0);stroke-width:0.1;fill:none" />
  <path d="M121.047,139.6 L83.5368,139.6" style="stroke:rgb(0,0,0);stroke-width:0.1;fill:none" />
  <path d="M26.0114,187.938 A1.00077,1.00077 0 0,0 27.0122,186.937 " style="stroke:rgb(0,0,0);stroke-width:0.1;fill:none" />
  <ellipse cx="25.0096" cy="168.623" rx="3.50271" ry="3.50271" style="stroke:rgb(0,0,0);stroke-width:0.1;fill:none;"/>
  <path d="M21.7081,180.928 A2.15767,2.15767 0 0,0 20.1451,184.573 " style="stroke:rgb(0,0,0);stroke-width:0.1;fill:none" />
  <path d="M20.1451,186.937 L20.1451,184.573" style="stroke:rgb(0,0,0);stroke-width:0.1;fill:none" />
  <ellipse cx="18.0052" cy="174.177" rx="1.00077" ry="1.00077" style="stroke:rgb(0,0,0);stroke-width:0.1;fill:none;"/>
  <path d="M20.7637,181.142 L18.3738,175.107" style="stroke:rgb(0,0,0);stroke-width:0.1;fill:none" />
  <path d="M128.264,166.896 L128.264,166.896" style="stroke:rgb(0,0,0);stroke-width:0.1;fill:none" />
  <path d="M128.264,166.896 L128.264,166.896" style="stroke:rgb(0,0,0);stroke-width:0.1;fill:none" />
  <ellipse cx="128.591" cy="168.397" rx="1.50116" ry="1.50116" style="stroke:rgb(0,0,0);stroke-width:0.1;fill:none;"/>
  <path d="M132.093,166.896 L128.591,166.896" style="stroke:rgb(0,0,0);stroke-width:0.1;fill:none" />
  <path d="M128.591,166.896 L125.088,166.896" style="stroke:rgb(0,0,0);stroke-width:0.1;fill:none" />
  <path d="M133.957,184.571 A2.15767,2.15767 0 0,0 132.394,180.926 " style="stroke:rgb(0,0,0);stroke-width:0.1;fill:none" />
  <path d="M133.957,186.936 A1.00077,1.00077 0 0,0 134.957,187.936 " style="stroke:rgb(0,0,0);stroke-width:0.1;fill:none" />
  <path d="M133.957,186.936 L133.957,184.571" style="stroke:rgb(0,0,0);stroke-width:0.1;fill:none" />
  <ellipse cx="136.097" cy="174.176" rx="1.00077" ry="1.00077" style="stroke:rgb(0,0,0);stroke-width:0.1;fill:none;"/>
  <path d="M133.338,181.141 L135.728,175.106" style="stroke:rgb(0,0,0);stroke-width:0.1;fill:none" />
  <path d="M127.09,186.936 A1.00077,1.00077 0 0,0 128.09,187.936 " style="stroke:rgb(0,0,0);stroke-width:0.1;fill:none" />
  <path d="M45.0261,165.045 L45.0261,160.041" style="stroke:rgb(0,0,0);stroke-width:0.1;fill:none" />
  <path d="M45.0261,165.045 L50.03,165.045" style="stroke:rgb(0,0,0);stroke-width:0.1;fill:none" />
  <path d="M70.0455,165.045 L84.0563,165.045" style="stroke:rgb(0,0,0);stroke-width:0.1;fill:none" />
  <path d="M109.076,165.045 L109.076,160.041" style="stroke:rgb(0,0,0);stroke-width:0.1;fill:none" />
  <path d="M104.072,165.045 L109.076,165.045" style="stroke:rgb(0,0,0);stroke-width:0.1;fill:none" />
  <path d="M58.5366,172.154 L61.5389,172.154" style="stroke:rgb(0,0,0);stroke-width:0.1;fill:none" />
  <path d="M57.1755,168.981 L57.1755,171.153" style="stroke:rgb(0,0,0);stroke-width:0.1;fill:none" />
  <path d="M62.8999,171.153 L62.8999,168.981" style="stroke:rgb(0,0,0);stroke-width:0.1;fill:none" />
  <path d="M58.5366,168.981 L57.1755,168.981" style="stroke:rgb(0,0,0);stroke-width:0.1;fill:none" />
  <path d="M62.8999,168.981 L61.5389,168.981" style="stroke:rgb(0,0,0);stroke-width:0.1;fill:none" />
  <path d="M61.5389,172.154 L61.5389,171.153" style="stroke:rgb(0,0,0);stroke-width:0.1;fill:none" />
  <path d="M61.5389,171.153 L62.8999,171.153" style="stroke:rgb(0,0,0);stroke-width:0.1;fill:none" />
  <path d="M57.1755,171.153 L58.5366,171.153" style="stroke:rgb(0,0,0);stroke-width:0.1;fill:none" />
  <path d="M58.5366,171.153 L58.5366,172.154" style="stroke:rgb(0,0,0);stroke-width:0.1;fill:none" />
  <path d="M58.5366,165.545 L58.5366,168.981" style="stroke:rgb(0,0,0);stroke-width:0.1;fill:none" />
  <path d="M61.5389,168.981 L61.5389,165.545" style="stroke:rgb(0,0,0);stroke-width:0.1;fill:none" />
  <path d="M50.03,160.541 L50.03,165.045" style="stroke:rgb(0,0,0);stroke-width:0.1;fill:none" />
  <path d="M50.5304,160.041 A0.500387,0.500387 0 0,0 50.03,160.541 " style="stroke:rgb(0,0,0);stroke-width:0.1;fill:none" />
  <path d="M55.0339,165.045 L55.0339,160.541" style="stroke:rgb(0,0,0);stroke-width:0.1;fill:none" />
  <path d="M55.0339,160.541 A0.500387,0.500387 0 0,0 54.5335,160.041 " style="stroke:rgb(0,0,0);stroke-width:0.1;fill:none" />
  <path d="M58.0362,165.045 L55.0339,165.045" style="stroke:rgb(0,0,0);stroke-width:0.1;fill:none" />
  <path d="M58.5366,165.545 A0.500387,0.500387 0 0,0 58.0362,165.045 " style="stroke:rgb(0,0,0);stroke-width:0.1;fill:none" />
  <path d="M62.0393,165.045 L65.0416,165.045" style="stroke:rgb(0,0,0);stroke-width:0.1;fill:none" />
  <path d="M62.0393,165.045 A0.500387,0.500387 0 0,0 61.5389,165.545 " style="stroke:rgb(0,0,0);stroke-width:0.1;fill:none" />
  <path d="M65.0416,165.045 L65.0416,160.541" style="stroke:rgb(0,0,0);stroke-width:0.1;fill:none" />
  <path d="M65.542,160.041 A0.500387,0.500387 0 0,0 65.0416,160.541 " style="stroke:rgb(0,0,0);stroke-width:0.1;fill:none" />
  <path d="M70.0455,160.541 L70.0455,165.045" style="stroke:rgb(0,0,0);stroke-width:0.1;fill:none" />
  <path d="M70.0455,160.541 A0.500387,0.500387 0 0,0 69.5451,160.041 " style="stroke:rgb(0,0,0);stroke-width:0.1;fill:none" />
  <path d="M92.5629,172.154 L95.5652,172.154" style="stroke:rgb(0,0,0);stroke-width:0.1;fill:none" />
  <path d="M91.2018,168.981 L91.2018,171.153" style="stroke:rgb(0,0,0);stroke-width:0.1;fill:none" />
  <path d="M96.9262,171.153 L96.9262,168.981" style="stroke:rgb(0,0,0);stroke-width:0.1;fill:none" />
  <path d="M92.5629,168.981 L91.2018,168.981" style="stroke:rgb(0,0,0);stroke-width:0.1;fill:none" />
  <path d="M96.9262,168.981 L95.5652,168.981" style="stroke:rgb(0,0,0);stroke-width:0.1;fill:none" />
  <path d="M95.5652,172.154 L95.5652,171.153" style="stroke:rgb(0,0,0);stroke-width:0.1;fill:none" />
  <path d="M95.5652,171.153 L96.9262,171.153" style="stroke:rgb(0,0,0);stroke-width:0.1;fill:none" />
  <path d="M91.2018,171.153 L92.5629,171.153" style="stroke:rgb(0,0,0);stroke-width:0.1;fill:none" />
  <path d="M92.5629,171.153 L92.5629,172.154" style="stroke:rgb(0,0,0);stroke-width:0.1;fill:none" />
  <path d="M92.5629,165.545 L92.5629,168.981" style="stroke:rgb(0,0,0);stroke-width:0.1;fill:none" />
  <path d="M95.5652,168.981 L95.5652,165.545" style="stroke:rgb(0,0,0);stroke-width:0.1;fill:none" />
  <path d="M92.0625,165.045 L89.0602,165.045" style="stroke:rgb(0,0,0);stroke-width:0.1;fill:none" />
  <path d="M92.5629,165.545 A0.500387,0.500387 0 0,0 92.0625,165.045 " style="stroke:rgb(0,0,0);stroke-width:0.1;fill:none" />
  <path d="M96.0656,165.045 L99.0679,165.045" style="stroke:rgb(0,0,0);stroke-width:0.1;fill:none" />
  <path d="M96.0656,165.045 A0.500387,0.500387 0 0,0 95.5652,165.545 " style="stroke:rgb(0,0,0);stroke-width:0.1;fill:none" />
  <path d="M84.0563,160.541 L84.0563,165.045" style="stroke:rgb(0,0,0);stroke-width:0.1;fill:none" />
  <path d="M84.5567,160.041 A0.500387,0.500387 0 0,0 84.0563,160.541 " style="stroke:rgb(0,0,0);stroke-width:0.1;fill:none" />
  <path d="M89.0602,165.045 L89.0602,160.541" style="stroke:rgb(0,0,0);stroke-width:0.1;fill:none" />
  <path d="M89.0602,160.541 A0.500387,0.500387 0 0,0 88.5598,160.041 " style="stroke:rgb(0,0,0);stroke-width:0.1;fill:none" />
  <path d="M92.0625,165.045 L89.0602,165.045" style="stroke:rgb(0,0,0);stroke-width:0.1;fill:none" />
  <path d="M92.5629,165.545 A0.500387,0.500387 0 0,0 92.0625,165.045 " style="stroke:rgb(0,0,0);stroke-width:0.1;fill:none" />
  <path d="M96.0656,165.045 L99.0679,165.045" style="stroke:rgb(0,0,0);stroke-width:0.1;fill:none" />
  <path d="M96.0656,165.045 A0.500387,0.500387 0 0,0 95.5652,165.545 " style="stroke:rgb(0,0,0);stroke-width:0.1;fill:none" />
  <path d="M99.0679,165.045 L99.0679,160.541" style="stroke:rgb(0,0,0);stroke-width:0.1;fill:none" />
  <path d="M99.5683,160.041 A0.500387,0.500387 0 0,0 99.0679,160.541 " style="stroke:rgb(0,0,0);stroke-width:0.1;fill:none" />
  <path d="M104.072,160.541 L104.072,165.045" style="stroke:rgb(0,0,0);stroke-width:0.1;fill:none" />
  <path d="M104.072,160.541 A0.500387,0.500387 0 0,0 103.571,160.041 " style="stroke:rgb(0,0,0);stroke-width:0.1;fill:none" />
  <ellipse cx="19.5053" cy="168.623" rx="1.20093" ry="1.20093" style="stroke:rgb(0,0,0);stroke-width:0.1;fill:none;"/>
  <ellipse cx="30.5138" cy="168.623" rx="1.20093" ry="1.20093" style="stroke:rgb(0,0,0);stroke-width:0.1;fill:none;"/>
  <path d="M23.5095,186.937 A1.00077,1.00077 0 0,0 24.5103,187.938 " style="stroke:rgb(0,0,0);stroke-width:0.1;fill:none" />
  <path d="M26.0114,187.938 L24.5103,187.938" style="stroke:rgb(0,0,0);stroke-width:0.1;fill:none" />
  <path d="M23.5095,186.937 L23.5095,184.273" style="stroke:rgb(0,0,0);stroke-width:0.1;fill:none" />
  <path d="M23.512,184.275 A2.16067,2.16067 0 0,0 20.7637,181.142 " style="stroke:rgb(0,0,0);stroke-width:0.1;fill:none" />
  <path d="M129.591,187.936 A1.00077,1.00077 0 0,0 130.592,186.936 " style="stroke:rgb(0,0,0);stroke-width:0.1;fill:none" />
  <path d="M128.09,187.936 L129.591,187.936" style="stroke:rgb(0,0,0);stroke-width:0.1;fill:none" />
  <path d="M130.592,186.936 L130.592,184.272" style="stroke:rgb(0,0,0);stroke-width:0.1;fill:none" />
  <path d="M133.337,181.143 A2.15767,2.15767 0 0,0 130.592,184.272 " style="stroke:rgb(0,0,0);stroke-width:0.1;fill:none" />
  <path d="M142.964,168.047 A8.00619,8.00619 0 0,0 134.957,160.041 " style="stroke:rgb(0,0,0);stroke-width:0.1;fill:none" />
  <path d="M142.964,170.174 L142.964,168.047" style="stroke:rgb(0,0,0);stroke-width:0.1;fill:none" />
  <path d="M134.957,187.936 A8.00619,8.00619 0 0,0 142.964,179.93 " style="stroke:rgb(0,0,0);stroke-width:0.1;fill:none" />
  <path d="M142.964,179.93 L142.964,170.174" style="stroke:rgb(0,0,0);stroke-width:0.1;fill:none" />
  <path d="M27.0122,180.482 L29.0519,180.482" style="stroke:rgb(0,0,0);stroke-width:0.1;fill:none" />
  <path d="M33.055,180.482 L36.0573,180.482" style="stroke:rgb(0,0,0);stroke-width:0.1;fill:none" />
  <path d="M29.0519,180.482 A0.500387,0.500387 0 0,0 29.5523,179.982 " style="stroke:rgb(0,0,0);stroke-width:0.1;fill:none" />
  <path d="M32.5546,179.982 A0.500387,0.500387 0 0,0 33.055,180.482 " style="stroke:rgb(0,0,0);stroke-width:0.1;fill:none" />
  <path d="M121.047,180.482 A0.500387,0.500387 0 0,0 121.547,179.982 " style="stroke:rgb(0,0,0);stroke-width:0.1;fill:none" />
  <path d="M124.549,179.982 A0.500387,0.500387 0 0,0 125.05,180.482 " style="stroke:rgb(0,0,0);stroke-width:0.1;fill:none" />
  <path d="M125.05,180.482 L127.09,180.482" style="stroke:rgb(0,0,0);stroke-width:0.1;fill:none" />
  <path d="M27.0122,186.937 L27.0122,180.482" style="stroke:rgb(0,0,0);stroke-width:0.1;fill:none" />
  <path d="M127.09,186.936 L127.09,180.481" style="stroke:rgb(0,0,0);stroke-width:0.1;fill:none" />
  <path d="M125.088,163.869 L132.093,163.869" style="stroke:rgb(0,0,0);stroke-width:0.1;fill:none" />
  <path d="M132.093,163.869 L132.093,166.896" style="stroke:rgb(0,0,0);stroke-width:0.1;fill:none" />
  <path d="M125.088,166.896 L125.088,163.869" style="stroke:rgb(0,0,0);stroke-width:0.1;fill:none" />
  <path d="M29.5523,173.873 L32.5546,173.873" style="stroke:rgb(0,0,0);stroke-width:0.1;fill:none" />
  <path d="M28.1912,177.046 L28.1912,174.874" style="stroke:rgb(0,0,0);stroke-width:0.1;fill:none" />
  <path d="M33.9156,174.874 L33.9156,177.046" style="stroke:rgb(0,0,0);stroke-width:0.1;fill:none" />
  <path d="M29.5523,177.046 L28.1912,177.046" style="stroke:rgb(0,0,0);stroke-width:0.1;fill:none" />
  <path d="M33.9156,177.046 L32.5546,177.046" style="stroke:rgb(0,0,0);stroke-width:0.1;fill:none" />
  <path d="M32.5546,173.873 L32.5546,174.874" style="stroke:rgb(0,0,0);stroke-width:0.1;fill:none" />
  <path d="M32.5546,174.874 L33.9156,174.874" style="stroke:rgb(0,0,0);stroke-width:0.1;fill:none" />
  <path d="M28.1912,174.874 L29.5523,174.874" style="stroke:rgb(0,0,0);stroke-width:0.1;fill:none" />
  <path d="M29.5523,174.874 L29.5523,173.873" style="stroke:rgb(0,0,0);stroke-width:0.1;fill:none" />
  <path d="M121.547,173.873 L124.549,173.873" style="stroke:rgb(0,0,0);stroke-width:0.1;fill:none" />
  <path d="M120.186,177.046 L120.186,174.874" style="stroke:rgb(0,0,0);stroke-width:0.1;fill:none" />
  <path d="M125.911,174.874 L125.911,177.046" style="stroke:rgb(0,0,0);stroke-width:0.1;fill:none" />
  <path d="M121.547,177.046 L120.186,177.046" style="stroke:rgb(0,0,0);stroke-width:0.1;fill:none" />
  <path d="M125.911,177.046 L124.549,177.046" style="stroke:rgb(0,0,0);stroke-width:0.1;fill:none" />
  <path d="M124.549,173.873 L124.549,174.874" style="stroke:rgb(0,0,0);stroke-width:0.1;fill:none" />
  <path d="M124.549,174.874 L125.911,174.874" style="stroke:rgb(0,0,0);stroke-width:0.1;fill:none" />
  <path d="M120.186,174.874 L121.547,174.874" style="stroke:rgb(0,0,0);stroke-width:0.1;fill:none" />
  <path d="M121.547,174.874 L121.547,173.873" style="stroke:rgb(0,0,0);stroke-width:0.1;fill:none" />
  <path d="M29.5523,179.982 L29.5523,177.046" style="stroke:rgb(0,0,0);stroke-width:0.1;fill:none" />
  <path d="M32.5546,177.046 L32.5546,179.982" style="stroke:rgb(0,0,0);stroke-width:0.1;fill:none" />
  <path d="M121.547,179.982 L121.547,177.046" style="stroke:rgb(0,0,0);stroke-width:0.1;fill:none" />
  <path d="M124.549,177.046 L124.549,179.982" style="stroke:rgb(0,0,0);stroke-width:0.1;fill:none" />
  <path d="M36.0573,186.086 A0.500387,0.500387 0 0,0 36.5577,186.587 " style="stroke:rgb(0,0,0);stroke-width:0.1;fill:none" />
  <path d="M36.0573,180.482 L36.0573,186.086" style="stroke:rgb(0,0,0);stroke-width:0.1;fill:none" />
  <path d="M18.3904,187.587 A1.08113,1.08113 0 0,0 20.1451,186.937 " style="stroke:rgb(0,0,0);stroke-width:0.1;fill:none" />
  <path d="M14.6213,182.205 L18.3904,187.587" style="stroke:rgb(0,0,0);stroke-width:0.1;fill:none" />
  <ellipse cx="12.0691" cy="169.675" rx="1.50116" ry="1.50116" style="stroke:rgb(0,0,0);stroke-width:0.1;fill:none;"/>
  <path d="M3.56156,166.41 L14.6213,182.205" style="stroke:rgb(0,0,0);stroke-width:0.1;fill:none" />
  <path d="M4.27945,162.912 L7.14955,167.011" style="stroke:rgb(0,0,0);stroke-width:0.1;fill:none" />
  <path d="M7.14955,167.011 L11.2484,164.141" style="stroke:rgb(0,0,0);stroke-width:0.1;fill:none" />
  <path d="M4.27945,162.912 A2.52449,2.52449 0 0,0 3.56156,166.41 " style="stroke:rgb(0,0,0);stroke-width:0.1;fill:none" />
  <path d="M9.59874,160.042 A0.791698,0.791698 0 0,0 9.0689,161.029 " style="stroke:rgb(0,0,0);stroke-width:0.1;fill:none" />
  <path d="M9.0689,161.029 L11.2484,164.141" style="stroke:rgb(0,0,0);stroke-width:0.1;fill:none" />
  <path d="M70.5649,175.478 L83.5368,175.478" style="stroke:rgb(0,0,0);stroke-width:0.1;fill:none" />
  <path d="M70.0645,186.587 A0.500387,0.500387 0 0,0 70.5649,186.086 " style="stroke:rgb(0,0,0);stroke-width:0.1;fill:none" />
  <path d="M70.5649,186.086 L70.5649,175.478" style="stroke:rgb(0,0,0);stroke-width:0.1;fill:none" />
  <path d="M83.5368,180.482 L83.5368,175.478" style="stroke:rgb(0,0,0);stroke-width:0.1;fill:none" />
  <path d="M36.5577,186.587 L70.0645,186.587" style="stroke:rgb(0,0,0);stroke-width:0.1;fill:none" />
  <path d="M121.047,180.482 L83.5368,180.482" style="stroke:rgb(0,0,0);stroke-width:0.1;fill:none" />
  <path d="M309.268,300.018 L63.0773,300.018" style="stroke:rgb(0,0,0);stroke-width:0.1;fill:none" />
  <path d="M14.6194,214.952 A6.00464,6.00464 0 0,0 9.71381,224.42 " style="stroke:rgb(0,0,0);stroke-width:0.1;fill:none" />
  <path d="M9.71381,224.42 L63.0773,300.018" style="stroke:rgb(0,0,0);stroke-width:0.1;fill:none" />
  <path d="M260.81,214.952 A6.00464,6.00464 0 0,0 255.904,224.42 " style="stroke:rgb(0,0,0);stroke-width:0.1;fill:none" />
  <path d="M14.6194,214.952 L260.81,214.952" style="stroke:rgb(0,0,0);stroke-width:0.1;fill:none" />
  <path d="M309.268,300.018 L255.904,224.42" style="stroke:rgb(0,0,0);stroke-width:0.1;fill:none" />
  <path d="M317.633,397.481 L71.4425,397.481" style="stroke:rgb(0,0,0);stroke-width:0.1;fill:none" />
  <path d="M317.633,397.481 L257.586,312.415" style="stroke:rgb(0,0,0);stroke-width:0.1;fill:none" />
  <path d="M11.3961,312.415 L257.586,312.415" style="stroke:rgb(0,0,0);stroke-width:0.1;fill:none" />
  <path d="M11.3961,312.415 L71.4425,397.481" style="stroke:rgb(0,0,0);stroke-width:0.1;fill:none" />
  <ellipse cx="33.0232" cy="64.5677" rx="2.75213" ry="2.75213" style="stroke:rgb(0,0,0);stroke-width:0.1;fill:none;"/>
  <ellipse cx="12.9077" cy="51.5577" rx="2.75213" ry="2.75213" style="stroke:rgb(0,0,0);stroke-width:0.1;fill:none;"/>
  <ellipse cx="53.1388" cy="51.5577" rx="2.75213" ry="2.75213" style="stroke:rgb(0,0,0);stroke-width:0.1;fill:none;"/>
  <path d="M39.7984,82.2113 L37.0563,82.2113" style="stroke:rgb(0,0,0);stroke-width:0.1;fill:none" />
  <path d="M39.7984,84.9535 L39.7984,82.2113" style="stroke:rgb(0,0,0);stroke-width:0.1;fill:none" />
  <path d="M37.0563,82.2113 L37.0563,84.9535" style="stroke:rgb(0,0,0);stroke-width:0.1;fill:none" />
  <path d="M37.0563,84.9535 L39.7984,84.9535" style="stroke:rgb(0,0,0);stroke-width:0.1;fill:none" />
  <path d="M28.9901,82.2113 L26.248,82.2113" style="stroke:rgb(0,0,0);stroke-width:0.1;fill:none" />
  <path d="M28.9901,84.9535 L28.9901,82.2113" style="stroke:rgb(0,0,0);stroke-width:0.1;fill:none" />
  <path d="M26.248,82.2113 L26.248,84.9535" style="stroke:rgb(0,0,0);stroke-width:0.1;fill:none" />
  <path d="M26.248,84.9535 L28.9901,84.9535" style="stroke:rgb(0,0,0);stroke-width:0.1;fill:none" />
  <path d="M34.3943,50.1866 L31.6521,50.1866" style="stroke:rgb(0,0,0);stroke-width:0.1;fill:none" />
  <path d="M34.3943,52.9287 L34.3943,50.1866" style="stroke:rgb(0,0,0);stroke-width:0.1;fill:none" />
  <path d="M31.6521,50.1866 L31.6521,52.9287" style="stroke:rgb(0,0,0);stroke-width:0.1;fill:none" />
  <path d="M31.6521,52.9287 L34.3943,52.9287" style="stroke:rgb(0,0,0);stroke-width:0.1;fill:none" />
  <path d="M39.7984,36.1758 L37.0563,36.1758" style="stroke:rgb(0,0,0);stroke-width:0.1;fill:none" />
  <path d="M39.7984,38.9179 L39.7984,36.1758" style="stroke:rgb(0,0,0);stroke-width:0.1;fill:none" />
  <path d="M37.0563,36.1758 L37.0563,38.9179" style="stroke:rgb(0,0,0);stroke-width:0.1;fill:none" />
  <path d="M37.0563,38.9179 L39.7984,38.9179" style="stroke:rgb(0,0,0);stroke-width:0.1;fill:none" />
  <path d="M28.9901,36.1758 L26.248,36.1758" style="stroke:rgb(0,0,0);stroke-width:0.1;fill:none" />
  <path d="M28.9901,38.9179 L28.9901,36.1758" style="stroke:rgb(0,0,0);stroke-width:0.1;fill:none" />
  <path d="M26.248,36.1758 L26.248,38.9179" style="stroke:rgb(0,0,0);stroke-width:0.1;fill:none" />
  <path d="M26.248,38.9179 L28.9901,38.9179" style="stroke:rgb(0,0,0);stroke-width:0.1;fill:none" />
  <ellipse cx="16.0101" cy="14.529" rx="1.50116" ry="1.50116" style="stroke:rgb(0,0,0);stroke-width:0.25;fill:none;"/>
  <path d="M21.0139,12.0271 L26.0178,12.0271" style="stroke:rgb(0,0,0);stroke-width:0.25;fill:none" />
  <path d="M21.0139,17.031 L26.0178,17.031" style="stroke:rgb(0,0,0);stroke-width:0.25;fill:none" />
  <path d="M11.0062,12.0271 L6.00232,12.0271" style="stroke:rgb(0,0,0);stroke-width:0.25;fill:none" />
  <path d="M11.0062,17.031 L6.00232,17.031" style="stroke:rgb(0,0,0);stroke-width:0.25;fill:none" />
  <path d="M6.00232,12.0271 L6.00232,17.031" style="stroke:rgb(0,0,0);stroke-width:0.25;fill:none" />
  <path d="M11.0062,12.0271 L11.0062,17.031" style="stroke:rgb(0,0,0);stroke-width:0.25;fill:none" />
  <path d="M21.0139,12.0271 L21.0139,17.031" style="stroke:rgb(0,0,0);stroke-width:0.25;fill:none" />
  <path d="M26.0178,12.0271 L26.0178,17.031" style="stroke:rgb(0,0,0);stroke-width:0.25;fill:none" />
  <ellipse cx="48.0748" cy="51.5176" rx="2.70209" ry="2.70209" style="stroke:rgb(0,0,0);stroke-width:0.1;fill:none;"/>
  <ellipse cx="33.0632" cy="66.5292" rx="2.70209" ry="2.70209" style="stroke:rgb(0,0,0);stroke-width:0.1;fill:none;"/>
  <ellipse cx="18.0516" cy="51.5176" rx="2.70209" ry="2.70209" style="stroke:rgb(0,0,0);stroke-width:0.1;fill:none;"/>
  <ellipse cx="16.0101" cy="106.524" rx="1.50116" ry="1.50116" style="stroke:rgb(0,0,0);stroke-width:0.25;fill:none;"/>
  <path d="M21.0139,104.022 L26.0178,104.022" style="stroke:rgb(0,0,0);stroke-width:0.25;fill:none" />
  <path d="M21.0139,109.026 L26.0178,109.026" style="stroke:rgb(0,0,0);stroke-width:0.25;fill:none" />
  <path d="M11.0062,104.022 L6.00232,104.022" style="stroke:rgb(0,0,0);stroke-width:0.25;fill:none" />
  <path d="M11.0062,109.026 L6.00232,109.026" style="stroke:rgb(0,0,0);stroke-width:0.25;fill:none" />
  <path d="M6.00232,104.022 L6.00232,109.026" style="stroke:rgb(0,0,0);stroke-width:0.25;fill:none" />
  <path d="M11.0062,104.022 L11.0062,109.026" style="stroke:rgb(0,0,0);stroke-width:0.25;fill:none" />
  <path d="M21.0139,104.022 L21.0139,109.026" style="stroke:rgb(0,0,0);stroke-width:0.25;fill:none" />
  <path d="M26.0178,104.022 L26.0178,109.026" style="stroke:rgb(0,0,0);stroke-width:0.25;fill:none" />
  <ellipse cx="50.0364" cy="14.529" rx="1.50116" ry="1.50116" style="stroke:rgb(0,0,0);stroke-width:0.25;fill:none;"/>
  <path d="M55.0402,12.0271 L60.0441,12.0271" style="stroke:rgb(0,0,0);stroke-width:0.25;fill:none" />
  <path d="M55.0402,17.031 L60.0441,17.031" style="stroke:rgb(0,0,0);stroke-width:0.25;fill:none" />
  <path d="M45.0325,12.0271 L40.0286,12.0271" style="stroke:rgb(0,0,0);stroke-width:0.25;fill:none" />
  <path d="M45.0325,17.031 L40.0286,17.031" style="stroke:rgb(0,0,0);stroke-width:0.25;fill:none" />
  <path d="M40.0286,12.0271 L40.0286,17.031" style="stroke:rgb(0,0,0);stroke-width:0.25;fill:none" />
  <path d="M45.0325,12.0271 L45.0325,17.031" style="stroke:rgb(0,0,0);stroke-width:0.25;fill:none" />
  <path d="M55.0402,12.0271 L55.0402,17.031" style="stroke:rgb(0,0,0);stroke-width:0.25;fill:none" />
  <path d="M60.0441,12.0271 L60.0441,17.031" style="stroke:rgb(0,0,0);stroke-width:0.25;fill:none" />
  <ellipse cx="50.0364" cy="106.524" rx="1.50116" ry="1.50116" style="stroke:rgb(0,0,0);stroke-width:0.25;fill:none;"/>
  <path d="M55.0402,104.022 L60.0441,104.022" style="stroke:rgb(0,0,0);stroke-width:0.25;fill:none" />
  <path d="M55.0402,109.026 L60.0441,109.026" style="stroke:rgb(0,0,0);stroke-width:0.25;fill:none" />
  <path d="M45.0325,104.022 L40.0286,104.022" style="stroke:rgb(0,0,0);stroke-width:0.25;fill:none" />
  <path d="M45.0325,109.026 L40.0286,109.026" style="stroke:rgb(0,0,0);stroke-width:0.25;fill:none" />
  <path d="M40.0286,104.022 L40.0286,109.026" style="stroke:rgb(0,0,0);stroke-width:0.25;fill:none" />
  <path d="M45.0325,104.022 L45.0325,109.026" style="stroke:rgb(0,0,0);stroke-width:0.25;fill:none" />
  <path d="M55.0402,104.022 L55.0402,109.026" style="stroke:rgb(0,0,0);stroke-width:0.25;fill:none" />
  <path d="M60.0441,104.022 L60.0441,109.026" style="stroke:rgb(0,0,0);stroke-width:0.25;fill:none" />
  <path d="M65.048,110.565 L0.998453,110.565" style="stroke:rgb(0,0,0);stroke-width:0.1;fill:none" />
  <path d="M0.998453,110.565 L0.998453,10.488" style="stroke:rgb(0,0,0);stroke-width:0.1;fill:none" />
  <path d="M39.5092,8.48646 A2.00155,2.00155 0 0,0 41.5107,10.488 " style="stroke:rgb(0,0,0);stroke-width:0.1;fill:none" />
  <path d="M24.5357,10.488 A2.00155,2.00155 0 0,0 26.5372,8.48646 " style="stroke:rgb(0,0,0);stroke-width:0.1;fill:none" />
  <path d="M0.998453,10.488 L24.5357,10.488" style="stroke:rgb(0,0,0);stroke-width:0.1;fill:none" />
  <path d="M41.5107,10.488 L65.048,10.488" style="stroke:rgb(0,0,0);stroke-width:0.1;fill:none" />
  <path d="M39.5092,3.4826 A2.00155,2.00155 0 0,0 37.5076,1.48105 " style="stroke:rgb(0,0,0);stroke-width:0.1;fill:none" />
  <path d="M28.5388,1.48105 A2.00155,2.00155 0 0,0 26.5372,3.4826 " style="stroke:rgb(0,0,0);stroke-width:0.1;fill:none" />
  <path d="M28.5388,1.48105 L37.5076,1.48105" style="stroke:rgb(0,0,0);stroke-width:0.1;fill:none" />
  <path d="M33.0232,4.53341 L33.0232,1.48105" style="stroke:rgb(0,0,0);stroke-width:0.1;fill:none" />
  <path d="M26.5372,8.48646 L26.5372,3.4826" style="stroke:rgb(0,0,0);stroke-width:0.1;fill:none" />
  <path d="M39.5092,3.4826 L39.5092,8.48646" style="stroke:rgb(0,0,0);stroke-width:0.1;fill:none" />
  <ellipse cx="33.0232" cy="5.98453" rx="1.52118" ry="1.52118" style="stroke:rgb(0,0,0);stroke-width:0.1;fill:none;"/>
  <ellipse cx="69.0892" cy="14.5292" rx="1.50116" ry="1.50116" style="stroke:rgb(0,0,0);stroke-width:0.1;fill:none;"/>
  <path d="M74.093,12.0273 L74.093,17.0312" style="stroke:rgb(0,0,0);stroke-width:0.1;fill:none" />
  <ellipse cx="161.084" cy="14.5292" rx="1.50116" ry="1.50116" style="stroke:rgb(0,0,0);stroke-width:0.1;fill:none;"/>
  <ellipse cx="69.0892" cy="106.524" rx="1.50116" ry="1.50116" style="stroke:rgb(0,0,0);stroke-width:0.1;fill:none;"/>
  <ellipse cx="161.084" cy="106.524" rx="1.50116" ry="1.50116" style="stroke:rgb(0,0,0);stroke-width:0.1;fill:none;"/>
  <path d="M74.093,104.022 L74.093,109.026" style="stroke:rgb(0,0,0);stroke-width:0.1;fill:none" />
  <path d="M165.125,110.565 L65.048,110.565" style="stroke:rgb(0,0,0);stroke-width:0.1;fill:none" />
  <path d="M65.048,110.565 L65.048,10.488" style="stroke:rgb(0,0,0);stroke-width:0.1;fill:none" />
  <path d="M165.125,10.488 L165.125,110.565" style="stroke:rgb(0,0,0);stroke-width:0.1;fill:none" />
  <path d="M156.118,10.488 L156.118,19.495" style="stroke:rgb(0,0,0);stroke-width:0.1;fill:none" />
  <path d="M127.096,19.495 L127.096,10.488" style="stroke:rgb(0,0,0);stroke-width:0.1;fill:none" />
  <path d="M156.118,10.488 L165.125,10.488" style="stroke:rgb(0,0,0);stroke-width:0.1;fill:none" />
  <path d="M121.573,8.48646 A2.00155,2.00155 0 0,0 123.574,10.488 " style="stroke:rgb(0,0,0);stroke-width:0.1;fill:none" />
  <path d="M106.599,10.488 A2.00155,2.00155 0 0,0 108.601,8.48646 " style="stroke:rgb(0,0,0);stroke-width:0.1;fill:none" />
  <path d="M123.574,10.488 L127.096,10.488" style="stroke:rgb(0,0,0);stroke-width:0.1;fill:none" />
  <path d="M65.048,10.488 L106.599,10.488" style="stroke:rgb(0,0,0);stroke-width:0.1;fill:none" />
  <ellipse cx="115.087" cy="5.98453" rx="2.40186" ry="2.40186" style="stroke:rgb(0,0,0);stroke-width:0.1;fill:none;"/>
  <path d="M121.573,3.4826 A2.00155,2.00155 0 0,0 119.571,1.48105 " style="stroke:rgb(0,0,0);stroke-width:0.1;fill:none" />
  <path d="M110.602,1.48105 A2.00155,2.00155 0 0,0 108.601,3.4826 " style="stroke:rgb(0,0,0);stroke-width:0.1;fill:none" />
  <path d="M110.602,1.48105 L119.571,1.48105" style="stroke:rgb(0,0,0);stroke-width:0.1;fill:none" />
  <path d="M108.601,8.48646 L108.601,3.4826" style="stroke:rgb(0,0,0);stroke-width:0.1;fill:none" />
  <path d="M121.573,3.4826 L121.573,8.48646" style="stroke:rgb(0,0,0);stroke-width:0.1;fill:none" />
  <ellipse cx="115.087" cy="64.5679" rx="2.50193" ry="2.50193" style="stroke:rgb(0,0,0);stroke-width:0.1;fill:none;"/>
  <path d="M108.1,12.0273 L108.1,17.0312" style="stroke:rgb(0,0,0);stroke-width:0.1;fill:none" />
  <path d="M108.1,104.022 L108.1,109.026" style="stroke:rgb(0,0,0);stroke-width:0.1;fill:none" />
  <path d="M108.1,104.022 L74.093,104.022" style="stroke:rgb(0,0,0);stroke-width:0.1;fill:none" />
  <path d="M74.093,109.026 L108.1,109.026" style="stroke:rgb(0,0,0);stroke-width:0.1;fill:none" />
  <path d="M108.1,12.0273 L74.093,12.0273" style="stroke:rgb(0,0,0);stroke-width:0.1;fill:none" />
  <path d="M74.093,17.0312 L108.1,17.0312" style="stroke:rgb(0,0,0);stroke-width:0.1;fill:none" />
  <path d="M127.096,19.495 A14.5112,14.5112 0 0,0 156.118,19.495 " style="stroke:rgb(0,0,0);stroke-width:0.1;fill:none" />
  <path d="M165.125,13.5666 L170.129,13.5666" style="stroke:rgb(0,0,0);stroke-width:0.1;fill:none" />
  <path d="M170.129,13.5666 L170.129,18.5705" style="stroke:rgb(0,0,0);stroke-width:0.1;fill:none" />
  <path d="M165.125,110.565 L170.129,110.565" style="stroke:rgb(0,0,0);stroke-width:0.1;fill:none" />
  <path d="M170.129,110.565 L170.129,105.561" style="stroke:rgb(0,0,0);stroke-width:0.1;fill:none" />
  <path d="M173.632,98.4527 L176.634,98.4527" style="stroke:rgb(0,0,0);stroke-width:0.1;fill:none" />
  <path d="M172.271,101.625 L172.271,99.4535" style="stroke:rgb(0,0,0);stroke-width:0.1;fill:none" />
  <path d="M177.995,99.4535 L177.995,101.625" style="stroke:rgb(0,0,0);stroke-width:0.1;fill:none" />
  <path d="M173.632,101.625 L172.271,101.625" style="stroke:rgb(0,0,0);stroke-width:0.1;fill:none" />
  <path d="M177.995,101.625 L176.634,101.625" style="stroke:rgb(0,0,0);stroke-width:0.1;fill:none" />
  <path d="M176.634,98.4527 L176.634,99.4535" style="stroke:rgb(0,0,0);stroke-width:0.1;fill:none" />
  <path d="M176.634,99.4535 L177.995,99.4535" style="stroke:rgb(0,0,0);stroke-width:0.1;fill:none" />
  <path d="M172.271,99.4535 L173.632,99.4535" style="stroke:rgb(0,0,0);stroke-width:0.1;fill:none" />
  <path d="M173.632,99.4535 L173.632,98.4527" style="stroke:rgb(0,0,0);stroke-width:0.1;fill:none" />
  <path d="M173.632,105.061 L173.632,101.625" style="stroke:rgb(0,0,0);stroke-width:0.1;fill:none" />
  <path d="M176.634,101.625 L176.634,105.061" style="stroke:rgb(0,0,0);stroke-width:0.1;fill:none" />
  <path d="M173.131,105.561 L170.129,105.561" style="stroke:rgb(0,0,0);stroke-width:0.1;fill:none" />
  <path d="M173.131,105.561 A0.500387,0.500387 0 0,0 173.632,105.061 " style="stroke:rgb(0,0,0);stroke-width:0.1;fill:none" />
  <path d="M176.634,105.061 A0.500387,0.500387 0 0,0 177.135,105.561 " style="stroke:rgb(0,0,0);stroke-width:0.1;fill:none" />
  <path d="M173.131,105.561 L170.129,105.561" style="stroke:rgb(0,0,0);stroke-width:0.1;fill:none" />
  <path d="M173.131,105.561 A0.500387,0.500387 0 0,0 173.632,105.061 " style="stroke:rgb(0,0,0);stroke-width:0.1;fill:none" />
  <path d="M176.634,105.061 A0.500387,0.500387 0 0,0 177.135,105.561 " style="stroke:rgb(0,0,0);stroke-width:0.1;fill:none" />
  <path d="M173.632,25.6793 L176.634,25.6793" style="stroke:rgb(0,0,0);stroke-width:0.1;fill:none" />
  <path d="M172.271,22.5068 L172.271,24.6785" style="stroke:rgb(0,0,0);stroke-width:0.1;fill:none" />
  <path d="M177.995,24.6785 L177.995,22.5068" style="stroke:rgb(0,0,0);stroke-width:0.1;fill:none" />
  <path d="M173.632,22.5068 L172.271,22.5068" style="stroke:rgb(0,0,0);stroke-width:0.1;fill:none" />
  <path d="M177.995,22.5068 L176.634,22.5068" style="stroke:rgb(0,0,0);stroke-width:0.1;fill:none" />
  <path d="M176.634,25.6793 L176.634,24.6785" style="stroke:rgb(0,0,0);stroke-width:0.1;fill:none" />
  <path d="M176.634,24.6785 L177.995,24.6785" style="stroke:rgb(0,0,0);stroke-width:0.1;fill:none" />
  <path d="M172.271,24.6785 L173.632,24.6785" style="stroke:rgb(0,0,0);stroke-width:0.1;fill:none" />
  <path d="M173.632,24.6785 L173.632,25.6793" style="stroke:rgb(0,0,0);stroke-width:0.1;fill:none" />
  <path d="M173.632,19.0708 L173.632,22.5068" style="stroke:rgb(0,0,0);stroke-width:0.1;fill:none" />
  <path d="M176.634,22.5068 L176.634,19.0708" style="stroke:rgb(0,0,0);stroke-width:0.1;fill:none" />
  <path d="M173.632,19.0708 A0.500387,0.500387 0 0,0 173.131,18.5705 " style="stroke:rgb(0,0,0);stroke-width:0.1;fill:none" />
  <path d="M177.135,18.5705 A0.500387,0.500387 0 0,0 176.634,19.0708 " style="stroke:rgb(0,0,0);stroke-width:0.1;fill:none" />
  <path d="M173.131,18.5705 L170.129,18.5705" style="stroke:rgb(0,0,0);stroke-width:0.1;fill:none" />
  <path d="M173.632,19.0708 A0.500387,0.500387 0 0,0 173.131,18.5705 " style="stroke:rgb(0,0,0);stroke-width:0.1;fill:none" />
  <path d="M177.135,18.5705 A0.500387,0.500387 0 0,0 176.634,19.0708 " style="stroke:rgb(0,0,0);stroke-width:0.1;fill:none" />
  <path d="M177.135,105.561 L187.142,105.561" style="stroke:rgb(0,0,0);stroke-width:0.1;fill:none" />
  <path d="M177.135,18.5705 L187.142,18.5705" style="stroke:rgb(0,0,0);stroke-width:0.1;fill:none" />
  <path d="M187.142,18.5705 L187.142,105.561" style="stroke:rgb(0,0,0);stroke-width:0.1;fill:none" />
  <path d="M96.5088,126.052 A2.00155,2.00155 0 0,0 94.5072,124.05 " style="stroke:rgb(0,0,0);stroke-width:0.1;fill:none" />
  <path d="M85.5384,124.05 A2.00155,2.00155 0 0,0 83.5368,126.052 " style="stroke:rgb(0,0,0);stroke-width:0.1;fill:none" />
  <path d="M85.5384,124.05 L94.5072,124.05" style="stroke:rgb(0,0,0);stroke-width:0.1;fill:none" />
  <path d="M83.5368,139.6 L83.5368,126.052" style="stroke:rgb(0,0,0);stroke-width:0.1;fill:none" />
  <path d="M96.5088,126.052 L96.5088,139.6" style="stroke:rgb(0,0,0);stroke-width:0.1;fill:none" />
  <ellipse cx="90.0228" cy="128.554" rx="1.52118" ry="1.52118" style="stroke:rgb(0,0,0);stroke-width:0.1;fill:none;"/>
  <path d="M90.0228,127.032 L90.0228,124.05" style="stroke:rgb(0,0,0);stroke-width:0.1;fill:none" />
</svg>
