<?xml version="1.0" standalone="yes"?>

<svg width="339mm" height="271mm" viewBox="0 0 339 271" version="1.1"
xmlns="http://www.w3.org/2000/svg" style="stroke-linecap:round">
  <ellipse cx="112.961" cy="14.2524" rx="1.50444" ry="1.50444" style="stroke:rgb(0,0,0);stroke-width:0.1;fill:none;"/>
  <ellipse cx="205.157" cy="14.2524" rx="1.50444" ry="1.50444" style="stroke:rgb(0,0,0);stroke-width:0.1;fill:none;"/>
  <ellipse cx="112.961" cy="106.449" rx="1.50444" ry="1.50444" style="stroke:rgb(0,0,0);stroke-width:0.1;fill:none;"/>
  <ellipse cx="205.157" cy="106.449" rx="1.50444" ry="1.50444" style="stroke:rgb(0,0,0);stroke-width:0.1;fill:none;"/>
  <path d="M200.181,10.2024 L200.181,19.229" style="stroke:rgb(0,0,0);stroke-width:0.1;fill:none" />
  <path d="M200.181,10.2024 L209.207,10.2024" style="stroke:rgb(0,0,0);stroke-width:0.1;fill:none" />
  <ellipse cx="159.059" cy="5.68903" rx="2.40711" ry="2.40711" style="stroke:rgb(0,0,0);stroke-width:0.1;fill:none;"/>
  <path d="M165.559,3.18163 A2.00593,2.00593 0 0,0 163.553,1.1757 " style="stroke:rgb(0,0,0);stroke-width:0.1;fill:none" />
  <path d="M154.565,1.1757 A2.00593,2.00593 0 0,0 152.559,3.18163 " style="stroke:rgb(0,0,0);stroke-width:0.1;fill:none" />
  <path d="M154.565,1.1757 L163.553,1.1757" style="stroke:rgb(0,0,0);stroke-width:0.1;fill:none" />
  <path d="M152.058,11.745 L152.058,16.7598" style="stroke:rgb(0,0,0);stroke-width:0.1;fill:none" />
  <path d="M152.058,103.941 L152.058,108.956" style="stroke:rgb(0,0,0);stroke-width:0.1;fill:none" />
  <path d="M171.095,19.229 A14.543,14.543 0 0,0 200.181,19.229 " style="stroke:rgb(0,0,0);stroke-width:0.1;fill:none" />
  <ellipse cx="159.059" cy="64.4006" rx="3.00889" ry="3.00889" style="stroke:rgb(0,0,0);stroke-width:0.1;fill:none;"/>
  <path d="M209.207,10.2024 L209.207,112.543" style="stroke:rgb(0,0,0);stroke-width:0.1;fill:none" />
  <path d="M150.553,8.23465 A2.00593,2.00593 0 0,0 152.559,6.22873 " style="stroke:rgb(0,0,0);stroke-width:0.1;fill:none" />
  <path d="M167.565,8.23465 L171.095,8.23465" style="stroke:rgb(0,0,0);stroke-width:0.1;fill:none" />
  <path d="M165.559,6.22873 A2.00593,2.00593 0 0,0 167.565,8.23465 " style="stroke:rgb(0,0,0);stroke-width:0.1;fill:none" />
  <path d="M171.095,19.229 L171.095,8.23465" style="stroke:rgb(0,0,0);stroke-width:0.1;fill:none" />
  <path d="M165.559,3.18163 L165.559,6.22873" style="stroke:rgb(0,0,0);stroke-width:0.1;fill:none" />
  <path d="M152.559,6.22873 L152.559,3.18163" style="stroke:rgb(0,0,0);stroke-width:0.1;fill:none" />
  <path d="M121.95,103.941 L121.95,108.956" style="stroke:rgb(0,0,0);stroke-width:0.1;fill:none" />
  <path d="M152.058,103.941 L121.95,103.941" style="stroke:rgb(0,0,0);stroke-width:0.1;fill:none" />
  <path d="M121.95,108.956 L152.058,108.956" style="stroke:rgb(0,0,0);stroke-width:0.1;fill:none" />
  <path d="M121.95,11.745 L121.95,16.7598" style="stroke:rgb(0,0,0);stroke-width:0.1;fill:none" />
  <path d="M121.95,16.7598 L152.058,16.7598" style="stroke:rgb(0,0,0);stroke-width:0.1;fill:none" />
  <path d="M152.058,11.745 L121.95,11.745" style="stroke:rgb(0,0,0);stroke-width:0.1;fill:none" />
  <path d="M111.457,17.2613 L111.457,8.23465" style="stroke:rgb(0,0,0);stroke-width:0.1;fill:none" />
  <path d="M111.457,112.543 L111.457,103.516" style="stroke:rgb(0,0,0);stroke-width:0.1;fill:none" />
  <path d="M111.457,8.23465 L150.553,8.23465" style="stroke:rgb(0,0,0);stroke-width:0.1;fill:none" />
  <path d="M209.207,112.543 L111.457,112.543" style="stroke:rgb(0,0,0);stroke-width:0.1;fill:none" />
  <path d="M108.911,17.2613 L111.457,17.2613" style="stroke:rgb(0,0,0);stroke-width:0.1;fill:none" />
  <path d="M108.911,103.516 L111.457,103.516" style="stroke:rgb(0,0,0);stroke-width:0.1;fill:none" />
  <ellipse cx="72.8044" cy="64.4004" rx="2.75815" ry="2.75815" style="stroke:rgb(0,0,0);stroke-width:0.1;fill:none;"/>
  <ellipse cx="52.6449" cy="51.3619" rx="2.75815" ry="2.75815" style="stroke:rgb(0,0,0);stroke-width:0.1;fill:none;"/>
  <ellipse cx="92.964" cy="51.3619" rx="2.75815" ry="2.75815" style="stroke:rgb(0,0,0);stroke-width:0.1;fill:none;"/>
  <path d="M79.5945,82.0826 L76.8464,82.0826" style="stroke:rgb(0,0,0);stroke-width:0.1;fill:none" />
  <path d="M79.5945,84.8307 L79.5945,82.0826" style="stroke:rgb(0,0,0);stroke-width:0.1;fill:none" />
  <path d="M76.8464,82.0826 L76.8464,84.8307" style="stroke:rgb(0,0,0);stroke-width:0.1;fill:none" />
  <path d="M76.8464,84.8307 L79.5945,84.8307" style="stroke:rgb(0,0,0);stroke-width:0.1;fill:none" />
  <path d="M68.7625,82.0826 L66.0144,82.0826" style="stroke:rgb(0,0,0);stroke-width:0.1;fill:none" />
  <path d="M68.7625,84.8307 L68.7625,82.0826" style="stroke:rgb(0,0,0);stroke-width:0.1;fill:none" />
  <path d="M66.0144,82.0826 L66.0144,84.8307" style="stroke:rgb(0,0,0);stroke-width:0.1;fill:none" />
  <path d="M66.0144,84.8307 L68.7625,84.8307" style="stroke:rgb(0,0,0);stroke-width:0.1;fill:none" />
  <path d="M74.1785,49.9878 L71.4304,49.9878" style="stroke:rgb(0,0,0);stroke-width:0.1;fill:none" />
  <path d="M74.1785,52.7359 L74.1785,49.9878" style="stroke:rgb(0,0,0);stroke-width:0.1;fill:none" />
  <path d="M71.4304,49.9878 L71.4304,52.7359" style="stroke:rgb(0,0,0);stroke-width:0.1;fill:none" />
  <path d="M71.4304,52.7359 L74.1785,52.7359" style="stroke:rgb(0,0,0);stroke-width:0.1;fill:none" />
  <path d="M79.5945,35.9463 L76.8464,35.9463" style="stroke:rgb(0,0,0);stroke-width:0.1;fill:none" />
  <path d="M79.5945,38.6944 L79.5945,35.9463" style="stroke:rgb(0,0,0);stroke-width:0.1;fill:none" />
  <path d="M76.8464,35.9463 L76.8464,38.6944" style="stroke:rgb(0,0,0);stroke-width:0.1;fill:none" />
  <path d="M76.8464,38.6944 L79.5945,38.6944" style="stroke:rgb(0,0,0);stroke-width:0.1;fill:none" />
  <path d="M68.7625,35.9463 L66.0144,35.9463" style="stroke:rgb(0,0,0);stroke-width:0.1;fill:none" />
  <path d="M68.7625,38.6944 L68.7625,35.9463" style="stroke:rgb(0,0,0);stroke-width:0.1;fill:none" />
  <path d="M66.0144,35.9463 L66.0144,38.6944" style="stroke:rgb(0,0,0);stroke-width:0.1;fill:none" />
  <path d="M66.0144,38.6944 L68.7625,38.6944" style="stroke:rgb(0,0,0);stroke-width:0.1;fill:none" />
  <ellipse cx="55.7541" cy="14.2522" rx="1.50444" ry="1.50444" style="stroke:rgb(0,0,0);stroke-width:0.25;fill:none;"/>
  <path d="M60.7689,11.7448 L65.7837,11.7448" style="stroke:rgb(0,0,0);stroke-width:0.25;fill:none" />
  <path d="M60.7689,16.7596 L65.7837,16.7596" style="stroke:rgb(0,0,0);stroke-width:0.25;fill:none" />
  <path d="M50.7393,11.7448 L45.7244,11.7448" style="stroke:rgb(0,0,0);stroke-width:0.25;fill:none" />
  <path d="M50.7393,16.7596 L45.7244,16.7596" style="stroke:rgb(0,0,0);stroke-width:0.25;fill:none" />
  <path d="M45.7244,11.7448 L45.7244,16.7596" style="stroke:rgb(0,0,0);stroke-width:0.25;fill:none" />
  <path d="M50.7393,11.7448 L50.7393,16.7596" style="stroke:rgb(0,0,0);stroke-width:0.25;fill:none" />
  <path d="M60.7689,11.7448 L60.7689,16.7596" style="stroke:rgb(0,0,0);stroke-width:0.25;fill:none" />
  <path d="M65.7837,11.7448 L65.7837,16.7596" style="stroke:rgb(0,0,0);stroke-width:0.25;fill:none" />
  <ellipse cx="87.889" cy="51.3217" rx="2.708" ry="2.708" style="stroke:rgb(0,0,0);stroke-width:0.1;fill:none;"/>
  <ellipse cx="72.8446" cy="66.3662" rx="2.708" ry="2.708" style="stroke:rgb(165,71,71);stroke-width:0.1;fill:none;"/>
  <ellipse cx="57.8001" cy="51.3217" rx="2.708" ry="2.708" style="stroke:rgb(0,0,0);stroke-width:0.1;fill:none;"/>
  <ellipse cx="55.7541" cy="106.448" rx="1.50444" ry="1.50444" style="stroke:rgb(0,0,0);stroke-width:0.25;fill:none;"/>
  <path d="M60.7689,103.941 L65.7837,103.941" style="stroke:rgb(0,0,0);stroke-width:0.25;fill:none" />
  <path d="M60.7689,108.956 L65.7837,108.956" style="stroke:rgb(0,0,0);stroke-width:0.25;fill:none" />
  <path d="M50.7393,103.941 L45.7244,103.941" style="stroke:rgb(0,0,0);stroke-width:0.25;fill:none" />
  <path d="M50.7393,108.956 L45.7244,108.956" style="stroke:rgb(0,0,0);stroke-width:0.25;fill:none" />
  <path d="M45.7244,103.941 L45.7244,108.956" style="stroke:rgb(0,0,0);stroke-width:0.25;fill:none" />
  <path d="M50.7393,103.941 L50.7393,108.956" style="stroke:rgb(0,0,0);stroke-width:0.25;fill:none" />
  <path d="M60.7689,103.941 L60.7689,108.956" style="stroke:rgb(0,0,0);stroke-width:0.25;fill:none" />
  <path d="M65.7837,103.941 L65.7837,108.956" style="stroke:rgb(0,0,0);stroke-width:0.25;fill:none" />
  <ellipse cx="89.8548" cy="14.2522" rx="1.50444" ry="1.50444" style="stroke:rgb(0,0,0);stroke-width:0.25;fill:none;"/>
  <path d="M94.8696,11.7448 L99.8844,11.7448" style="stroke:rgb(0,0,0);stroke-width:0.25;fill:none" />
  <path d="M94.8696,16.7596 L99.8844,16.7596" style="stroke:rgb(0,0,0);stroke-width:0.25;fill:none" />
  <path d="M84.84,11.7448 L79.8252,11.7448" style="stroke:rgb(0,0,0);stroke-width:0.25;fill:none" />
  <path d="M84.84,16.7596 L79.8252,16.7596" style="stroke:rgb(0,0,0);stroke-width:0.25;fill:none" />
  <path d="M79.8252,11.7448 L79.8252,16.7596" style="stroke:rgb(0,0,0);stroke-width:0.25;fill:none" />
  <path d="M84.84,11.7448 L84.84,16.7596" style="stroke:rgb(0,0,0);stroke-width:0.25;fill:none" />
  <path d="M94.8696,11.7448 L94.8696,16.7596" style="stroke:rgb(0,0,0);stroke-width:0.25;fill:none" />
  <path d="M99.8844,11.7448 L99.8844,16.7596" style="stroke:rgb(0,0,0);stroke-width:0.25;fill:none" />
  <ellipse cx="89.8548" cy="106.448" rx="1.50444" ry="1.50444" style="stroke:rgb(0,0,0);stroke-width:0.25;fill:none;"/>
  <path d="M94.8696,103.941 L99.8844,103.941" style="stroke:rgb(0,0,0);stroke-width:0.25;fill:none" />
  <path d="M94.8696,108.956 L99.8844,108.956" style="stroke:rgb(0,0,0);stroke-width:0.25;fill:none" />
  <path d="M84.84,103.941 L79.8252,103.941" style="stroke:rgb(0,0,0);stroke-width:0.25;fill:none" />
  <path d="M84.84,108.956 L79.8252,108.956" style="stroke:rgb(0,0,0);stroke-width:0.25;fill:none" />
  <path d="M79.8252,103.941 L79.8252,108.956" style="stroke:rgb(0,0,0);stroke-width:0.25;fill:none" />
  <path d="M84.84,103.941 L84.84,108.956" style="stroke:rgb(0,0,0);stroke-width:0.25;fill:none" />
  <path d="M94.8696,103.941 L94.8696,108.956" style="stroke:rgb(0,0,0);stroke-width:0.25;fill:none" />
  <path d="M99.8844,103.941 L99.8844,108.956" style="stroke:rgb(0,0,0);stroke-width:0.25;fill:none" />
  <path d="M108.911,112.543 L36.6978,112.543" style="stroke:rgb(0,0,0);stroke-width:0.1;fill:none" />
  <path d="M36.6978,112.543 L36.6978,8.23465" style="stroke:rgb(0,0,0);stroke-width:0.1;fill:none" />
  <path d="M108.911,8.23465 L108.911,112.543" style="stroke:rgb(0,0,0);stroke-width:0.1;fill:none" />
  <path d="M36.6978,8.23465 L108.911,8.23465" style="stroke:rgb(0,0,0);stroke-width:0.1;fill:none" />
  <path d="M209.207,10.2024 L214.222,10.2024" style="stroke:rgb(0,0,0);stroke-width:0.1;fill:none" />
  <path d="M214.222,10.2024 L214.222,15.2172" style="stroke:rgb(0,0,0);stroke-width:0.1;fill:none" />
  <path d="M209.207,107.413 L214.222,107.413" style="stroke:rgb(0,0,0);stroke-width:0.1;fill:none" />
  <path d="M217.733,95.2742 L220.741,95.2742" style="stroke:rgb(0,0,0);stroke-width:0.1;fill:none" />
  <path d="M216.369,98.4536 L216.369,96.2771" style="stroke:rgb(0,0,0);stroke-width:0.1;fill:none" />
  <path d="M222.106,96.2771 L222.106,98.4536" style="stroke:rgb(0,0,0);stroke-width:0.1;fill:none" />
  <path d="M217.733,98.4536 L216.369,98.4536" style="stroke:rgb(0,0,0);stroke-width:0.1;fill:none" />
  <path d="M222.106,98.4536 L220.741,98.4536" style="stroke:rgb(0,0,0);stroke-width:0.1;fill:none" />
  <path d="M220.741,95.2742 L220.741,96.2771" style="stroke:rgb(0,0,0);stroke-width:0.1;fill:none" />
  <path d="M220.741,96.2771 L222.106,96.2771" style="stroke:rgb(0,0,0);stroke-width:0.1;fill:none" />
  <path d="M216.369,96.2771 L217.733,96.2771" style="stroke:rgb(0,0,0);stroke-width:0.1;fill:none" />
  <path d="M217.733,96.2771 L217.733,95.2742" style="stroke:rgb(0,0,0);stroke-width:0.1;fill:none" />
  <path d="M217.733,101.897 L217.733,98.4536" style="stroke:rgb(0,0,0);stroke-width:0.1;fill:none" />
  <path d="M220.741,98.4536 L220.741,101.897" style="stroke:rgb(0,0,0);stroke-width:0.1;fill:none" />
  <path d="M217.231,102.399 L214.222,102.399" style="stroke:rgb(0,0,0);stroke-width:0.1;fill:none" />
  <path d="M217.231,102.399 A0.501481,0.501481 0 0,0 217.733,101.897 " style="stroke:rgb(0,0,0);stroke-width:0.1;fill:none" />
  <path d="M220.741,101.897 A0.501481,0.501481 0 0,0 221.243,102.399 " style="stroke:rgb(0,0,0);stroke-width:0.1;fill:none" />
  <path d="M217.231,102.399 A0.501481,0.501481 0 0,0 217.733,101.897 " style="stroke:rgb(0,0,0);stroke-width:0.1;fill:none" />
  <path d="M220.741,101.897 A0.501481,0.501481 0 0,0 221.243,102.399 " style="stroke:rgb(0,0,0);stroke-width:0.1;fill:none" />
  <path d="M217.733,22.3415 L220.741,22.3415" style="stroke:rgb(0,0,0);stroke-width:0.1;fill:none" />
  <path d="M216.369,19.1621 L216.369,21.3386" style="stroke:rgb(0,0,0);stroke-width:0.1;fill:none" />
  <path d="M222.106,21.3386 L222.106,19.1621" style="stroke:rgb(0,0,0);stroke-width:0.1;fill:none" />
  <path d="M217.733,19.1621 L216.369,19.1621" style="stroke:rgb(0,0,0);stroke-width:0.1;fill:none" />
  <path d="M222.106,19.1621 L220.741,19.1621" style="stroke:rgb(0,0,0);stroke-width:0.1;fill:none" />
  <path d="M220.741,22.3415 L220.741,21.3386" style="stroke:rgb(0,0,0);stroke-width:0.1;fill:none" />
  <path d="M220.741,21.3386 L222.106,21.3386" style="stroke:rgb(0,0,0);stroke-width:0.1;fill:none" />
  <path d="M216.369,21.3386 L217.733,21.3386" style="stroke:rgb(0,0,0);stroke-width:0.1;fill:none" />
  <path d="M217.733,21.3386 L217.733,22.3415" style="stroke:rgb(0,0,0);stroke-width:0.1;fill:none" />
  <path d="M217.733,15.7187 L217.733,19.1621" style="stroke:rgb(0,0,0);stroke-width:0.1;fill:none" />
  <path d="M220.741,19.1621 L220.741,15.7187" style="stroke:rgb(0,0,0);stroke-width:0.1;fill:none" />
  <path d="M217.733,15.7187 A0.501481,0.501481 0 0,0 217.231,15.2172 " style="stroke:rgb(0,0,0);stroke-width:0.1;fill:none" />
  <path d="M221.243,15.2172 A0.501481,0.501481 0 0,0 220.741,15.7187 " style="stroke:rgb(0,0,0);stroke-width:0.1;fill:none" />
  <path d="M217.231,15.2172 L214.222,15.2172" style="stroke:rgb(0,0,0);stroke-width:0.1;fill:none" />
  <path d="M217.733,15.7187 A0.501481,0.501481 0 0,0 217.231,15.2172 " style="stroke:rgb(0,0,0);stroke-width:0.1;fill:none" />
  <path d="M221.243,15.2172 A0.501481,0.501481 0 0,0 220.741,15.7187 " style="stroke:rgb(0,0,0);stroke-width:0.1;fill:none" />
  <path d="M231.962,15.2172 L231.962,102.399" style="stroke:rgb(0,0,0);stroke-width:0.1;fill:none" />
  <path d="M221.243,102.399 L231.962,102.399" style="stroke:rgb(0,0,0);stroke-width:0.1;fill:none" />
  <path d="M221.243,15.2172 L231.962,15.2172" style="stroke:rgb(0,0,0);stroke-width:0.1;fill:none" />
  <path d="M214.222,102.399 L214.222,115.399" style="stroke:rgb(0,0,0);stroke-width:0.1;fill:none" />
  <path d="M227.8,115.399 A2.00593,2.00593 0 0,0 229.806,113.393 " style="stroke:rgb(0,0,0);stroke-width:0.1;fill:none" />
  <path d="M229.806,104.404 A2.00593,2.00593 0 0,0 227.8,102.399 " style="stroke:rgb(0,0,0);stroke-width:0.1;fill:none" />
  <path d="M229.806,104.404 L229.806,113.393" style="stroke:rgb(0,0,0);stroke-width:0.1;fill:none" />
  <path d="M214.222,102.399 L227.8,102.399" style="stroke:rgb(0,0,0);stroke-width:0.1;fill:none" />
  <path d="M227.8,115.399 L214.222,115.399" style="stroke:rgb(0,0,0);stroke-width:0.1;fill:none" />
  <path d="M226.818,108.899 L229.806,108.899" style="stroke:rgb(0,0,0);stroke-width:0.1;fill:none" />
  <ellipse cx="225.293" cy="108.899" rx="1.56462" ry="1.56462" style="stroke:rgb(0,0,0);stroke-width:0.1;fill:none;"/>
  <ellipse cx="79.7928" cy="131.137" rx="3.51037" ry="3.51037" style="stroke:rgb(0,0,0);stroke-width:0.1;fill:none;"/>
  <path d="M74.9177,115.152 A2.16239,2.16239 0 0,0 76.4841,118.805 " style="stroke:rgb(0,0,0);stroke-width:0.1;fill:none" />
  <ellipse cx="72.7732" cy="125.571" rx="1.00296" ry="1.00296" style="stroke:rgb(0,0,0);stroke-width:0.1;fill:none;"/>
  <path d="M75.5377,118.59 L73.1425,124.638" style="stroke:rgb(0,0,0);stroke-width:0.1;fill:none" />
  <path d="M183.273,132.868 L183.273,132.868" style="stroke:rgb(0,0,0);stroke-width:0.1;fill:none" />
  <path d="M183.273,132.868 L183.273,132.868" style="stroke:rgb(0,0,0);stroke-width:0.1;fill:none" />
  <ellipse cx="183.601" cy="131.363" rx="1.50444" ry="1.50444" style="stroke:rgb(0,0,0);stroke-width:0.1;fill:none;"/>
  <path d="M187.111,132.868 L183.601,132.868" style="stroke:rgb(0,0,0);stroke-width:0.1;fill:none" />
  <path d="M183.601,132.868 L180.09,132.868" style="stroke:rgb(0,0,0);stroke-width:0.1;fill:none" />
  <ellipse cx="74.2765" cy="131.137" rx="1.20356" ry="1.20356" style="stroke:rgb(0,0,0);stroke-width:0.1;fill:none;"/>
  <ellipse cx="85.3091" cy="131.137" rx="1.20356" ry="1.20356" style="stroke:rgb(0,0,0);stroke-width:0.1;fill:none;"/>
  <path d="M75.5377,118.59 A2.1654,2.1654 0 0,0 78.292,115.451 " style="stroke:rgb(0,0,0);stroke-width:0.1;fill:none" />
  <path d="M87.8558,119.252 A0.501481,0.501481 0 0,0 87.3544,119.753 " style="stroke:rgb(0,0,0);stroke-width:0.1;fill:none" />
  <path d="M176.542,119.753 A0.501481,0.501481 0 0,0 176.04,119.252 " style="stroke:rgb(0,0,0);stroke-width:0.1;fill:none" />
  <path d="M180.09,135.901 L187.111,135.901" style="stroke:rgb(0,0,0);stroke-width:0.1;fill:none" />
  <path d="M187.111,135.901 L187.111,132.868" style="stroke:rgb(0,0,0);stroke-width:0.1;fill:none" />
  <path d="M180.09,132.868 L180.09,135.901" style="stroke:rgb(0,0,0);stroke-width:0.1;fill:none" />
  <path d="M84.3455,125.875 L87.3544,125.875" style="stroke:rgb(0,0,0);stroke-width:0.1;fill:none" />
  <path d="M82.9814,122.695 L82.9814,124.872" style="stroke:rgb(0,0,0);stroke-width:0.1;fill:none" />
  <path d="M88.7184,124.872 L88.7184,122.695" style="stroke:rgb(0,0,0);stroke-width:0.1;fill:none" />
  <path d="M84.3455,122.695 L82.9814,122.695" style="stroke:rgb(0,0,0);stroke-width:0.1;fill:none" />
  <path d="M88.7184,122.695 L87.3544,122.695" style="stroke:rgb(0,0,0);stroke-width:0.1;fill:none" />
  <path d="M87.3544,125.875 L87.3544,124.872" style="stroke:rgb(0,0,0);stroke-width:0.1;fill:none" />
  <path d="M87.3544,124.872 L88.7184,124.872" style="stroke:rgb(0,0,0);stroke-width:0.1;fill:none" />
  <path d="M82.9814,124.872 L84.3455,124.872" style="stroke:rgb(0,0,0);stroke-width:0.1;fill:none" />
  <path d="M84.3455,124.872 L84.3455,125.875" style="stroke:rgb(0,0,0);stroke-width:0.1;fill:none" />
  <path d="M176.542,125.875 L179.551,125.875" style="stroke:rgb(0,0,0);stroke-width:0.1;fill:none" />
  <path d="M175.178,122.695 L175.178,124.872" style="stroke:rgb(0,0,0);stroke-width:0.1;fill:none" />
  <path d="M180.915,124.872 L180.915,122.695" style="stroke:rgb(0,0,0);stroke-width:0.1;fill:none" />
  <path d="M176.542,122.695 L175.178,122.695" style="stroke:rgb(0,0,0);stroke-width:0.1;fill:none" />
  <path d="M180.915,122.695 L179.551,122.695" style="stroke:rgb(0,0,0);stroke-width:0.1;fill:none" />
  <path d="M179.551,125.875 L179.551,124.872" style="stroke:rgb(0,0,0);stroke-width:0.1;fill:none" />
  <path d="M179.551,124.872 L180.915,124.872" style="stroke:rgb(0,0,0);stroke-width:0.1;fill:none" />
  <path d="M175.178,124.872 L176.542,124.872" style="stroke:rgb(0,0,0);stroke-width:0.1;fill:none" />
  <path d="M176.542,124.872 L176.542,125.875" style="stroke:rgb(0,0,0);stroke-width:0.1;fill:none" />
  <path d="M87.3544,122.695 L87.3544,119.753" style="stroke:rgb(0,0,0);stroke-width:0.1;fill:none" />
  <path d="M176.542,119.753 L176.542,122.695" style="stroke:rgb(0,0,0);stroke-width:0.1;fill:none" />
  <path d="M125.448,124.267 L138.448,124.267" style="stroke:rgb(0,0,0);stroke-width:0.1;fill:none" />
  <path d="M138.448,119.252 L138.448,124.267" style="stroke:rgb(0,0,0);stroke-width:0.1;fill:none" />
  <path d="M176.04,119.252 L138.448,119.252" style="stroke:rgb(0,0,0);stroke-width:0.1;fill:none" />
  <ellipse cx="64.9192" cy="130.082" rx="1.50444" ry="1.50444" style="stroke:rgb(0,0,0);stroke-width:0.1;fill:none;"/>
  <path d="M56.393,133.355 L67.477,117.525" style="stroke:rgb(0,0,0);stroke-width:0.1;fill:none" />
  <path d="M57.1125,136.86 L59.9889,132.752" style="stroke:rgb(0,0,0);stroke-width:0.1;fill:none" />
  <path d="M59.9889,132.752 L64.0966,135.628" style="stroke:rgb(0,0,0);stroke-width:0.1;fill:none" />
  <path d="M56.393,133.355 A2.53002,2.53002 0 0,0 57.1125,136.86 " style="stroke:rgb(0,0,0);stroke-width:0.1;fill:none" />
  <path d="M61.3663,139.527 A1.38611,1.38611 0 0,0 62.4434,141.165 " style="stroke:rgb(0,0,0);stroke-width:0.1;fill:none" />
  <path d="M61.3663,139.527 L64.0966,135.628" style="stroke:rgb(0,0,0);stroke-width:0.1;fill:none" />
  <path d="M124.927,136.152 L138.969,136.152" style="stroke:rgb(0,0,0);stroke-width:0.1;fill:none" />
  <path d="M113.393,129.027 L116.402,129.027" style="stroke:rgb(0,0,0);stroke-width:0.1;fill:none" />
  <path d="M112.029,132.207 L112.029,130.03" style="stroke:rgb(0,0,0);stroke-width:0.1;fill:none" />
  <path d="M117.766,130.03 L117.766,132.207" style="stroke:rgb(0,0,0);stroke-width:0.1;fill:none" />
  <path d="M113.393,132.207 L112.029,132.207" style="stroke:rgb(0,0,0);stroke-width:0.1;fill:none" />
  <path d="M117.766,132.207 L116.402,132.207" style="stroke:rgb(0,0,0);stroke-width:0.1;fill:none" />
  <path d="M116.402,129.027 L116.402,130.03" style="stroke:rgb(0,0,0);stroke-width:0.1;fill:none" />
  <path d="M116.402,130.03 L117.766,130.03" style="stroke:rgb(0,0,0);stroke-width:0.1;fill:none" />
  <path d="M112.029,130.03 L113.393,130.03" style="stroke:rgb(0,0,0);stroke-width:0.1;fill:none" />
  <path d="M113.393,130.03 L113.393,129.027" style="stroke:rgb(0,0,0);stroke-width:0.1;fill:none" />
  <path d="M113.393,135.65 L113.393,132.207" style="stroke:rgb(0,0,0);stroke-width:0.1;fill:none" />
  <path d="M116.402,132.207 L116.402,135.65" style="stroke:rgb(0,0,0);stroke-width:0.1;fill:none" />
  <path d="M104.868,140.665 L104.868,136.152" style="stroke:rgb(0,0,0);stroke-width:0.1;fill:none" />
  <path d="M104.868,140.665 A0.501481,0.501481 0 0,0 105.369,141.167 " style="stroke:rgb(0,0,0);stroke-width:0.1;fill:none" />
  <path d="M109.883,136.152 L109.883,140.665" style="stroke:rgb(0,0,0);stroke-width:0.1;fill:none" />
  <path d="M109.381,141.167 A0.501481,0.501481 0 0,0 109.883,140.665 " style="stroke:rgb(0,0,0);stroke-width:0.1;fill:none" />
  <path d="M112.892,136.152 L109.883,136.152" style="stroke:rgb(0,0,0);stroke-width:0.1;fill:none" />
  <path d="M112.892,136.152 A0.501481,0.501481 0 0,0 113.393,135.65 " style="stroke:rgb(0,0,0);stroke-width:0.1;fill:none" />
  <path d="M116.904,136.152 L119.912,136.152" style="stroke:rgb(0,0,0);stroke-width:0.1;fill:none" />
  <path d="M116.402,135.65 A0.501481,0.501481 0 0,0 116.904,136.152 " style="stroke:rgb(0,0,0);stroke-width:0.1;fill:none" />
  <path d="M119.912,136.152 L119.912,140.665" style="stroke:rgb(0,0,0);stroke-width:0.1;fill:none" />
  <path d="M119.912,140.665 A0.501481,0.501481 0 0,0 120.414,141.167 " style="stroke:rgb(0,0,0);stroke-width:0.1;fill:none" />
  <path d="M120.414,141.167 L124.426,141.167" style="stroke:rgb(0,0,0);stroke-width:0.1;fill:none" />
  <path d="M124.927,140.665 L124.927,136.152" style="stroke:rgb(0,0,0);stroke-width:0.1;fill:none" />
  <path d="M124.426,141.167 A0.501481,0.501481 0 0,0 124.927,140.665 " style="stroke:rgb(0,0,0);stroke-width:0.1;fill:none" />
  <path d="M147.494,129.027 L150.503,129.027" style="stroke:rgb(0,0,0);stroke-width:0.1;fill:none" />
  <path d="M146.13,132.207 L146.13,130.03" style="stroke:rgb(0,0,0);stroke-width:0.1;fill:none" />
  <path d="M151.867,130.03 L151.867,132.207" style="stroke:rgb(0,0,0);stroke-width:0.1;fill:none" />
  <path d="M147.494,132.207 L146.13,132.207" style="stroke:rgb(0,0,0);stroke-width:0.1;fill:none" />
  <path d="M151.867,132.207 L150.503,132.207" style="stroke:rgb(0,0,0);stroke-width:0.1;fill:none" />
  <path d="M150.503,129.027 L150.503,130.03" style="stroke:rgb(0,0,0);stroke-width:0.1;fill:none" />
  <path d="M150.503,130.03 L151.867,130.03" style="stroke:rgb(0,0,0);stroke-width:0.1;fill:none" />
  <path d="M146.13,130.03 L147.494,130.03" style="stroke:rgb(0,0,0);stroke-width:0.1;fill:none" />
  <path d="M147.494,130.03 L147.494,129.027" style="stroke:rgb(0,0,0);stroke-width:0.1;fill:none" />
  <path d="M147.494,135.65 L147.494,132.207" style="stroke:rgb(0,0,0);stroke-width:0.1;fill:none" />
  <path d="M150.503,132.207 L150.503,135.65" style="stroke:rgb(0,0,0);stroke-width:0.1;fill:none" />
  <path d="M146.992,136.152 L143.984,136.152" style="stroke:rgb(0,0,0);stroke-width:0.1;fill:none" />
  <path d="M146.992,136.152 A0.501481,0.501481 0 0,0 147.494,135.65 " style="stroke:rgb(0,0,0);stroke-width:0.1;fill:none" />
  <path d="M151.004,136.152 L154.013,136.152" style="stroke:rgb(0,0,0);stroke-width:0.1;fill:none" />
  <path d="M150.503,135.65 A0.501481,0.501481 0 0,0 151.004,136.152 " style="stroke:rgb(0,0,0);stroke-width:0.1;fill:none" />
  <path d="M138.969,140.665 L138.969,136.152" style="stroke:rgb(0,0,0);stroke-width:0.1;fill:none" />
  <path d="M138.969,140.665 A0.501481,0.501481 0 0,0 139.47,141.167 " style="stroke:rgb(0,0,0);stroke-width:0.1;fill:none" />
  <path d="M143.482,141.167 L139.47,141.167" style="stroke:rgb(0,0,0);stroke-width:0.1;fill:none" />
  <path d="M143.984,136.152 L143.984,140.665" style="stroke:rgb(0,0,0);stroke-width:0.1;fill:none" />
  <path d="M143.482,141.167 A0.501481,0.501481 0 0,0 143.984,140.665 " style="stroke:rgb(0,0,0);stroke-width:0.1;fill:none" />
  <path d="M146.992,136.152 L143.984,136.152" style="stroke:rgb(0,0,0);stroke-width:0.1;fill:none" />
  <path d="M146.992,136.152 A0.501481,0.501481 0 0,0 147.494,135.65 " style="stroke:rgb(0,0,0);stroke-width:0.1;fill:none" />
  <path d="M151.004,136.152 L154.013,136.152" style="stroke:rgb(0,0,0);stroke-width:0.1;fill:none" />
  <path d="M150.503,135.65 A0.501481,0.501481 0 0,0 151.004,136.152 " style="stroke:rgb(0,0,0);stroke-width:0.1;fill:none" />
  <path d="M154.013,136.152 L154.013,140.665" style="stroke:rgb(0,0,0);stroke-width:0.1;fill:none" />
  <path d="M154.013,140.665 A0.501481,0.501481 0 0,0 154.515,141.167 " style="stroke:rgb(0,0,0);stroke-width:0.1;fill:none" />
  <path d="M154.515,141.167 L158.527,141.167" style="stroke:rgb(0,0,0);stroke-width:0.1;fill:none" />
  <path d="M159.028,140.665 L159.028,136.152" style="stroke:rgb(0,0,0);stroke-width:0.1;fill:none" />
  <path d="M158.527,141.167 A0.501481,0.501481 0 0,0 159.028,140.665 " style="stroke:rgb(0,0,0);stroke-width:0.1;fill:none" />
  <path d="M95.8413,136.152 L95.8413,141.167" style="stroke:rgb(0,0,0);stroke-width:0.1;fill:none" />
  <path d="M95.8413,136.152 L104.868,136.152" style="stroke:rgb(0,0,0);stroke-width:0.1;fill:none" />
  <path d="M168.055,136.152 L168.055,141.167" style="stroke:rgb(0,0,0);stroke-width:0.1;fill:none" />
  <path d="M159.028,136.152 L168.055,136.152" style="stroke:rgb(0,0,0);stroke-width:0.1;fill:none" />
  <path d="M125.448,114.739 A0.501481,0.501481 0 0,0 124.946,114.237 " style="stroke:rgb(0,0,0);stroke-width:0.1;fill:none" />
  <path d="M125.448,114.739 L125.448,124.267" style="stroke:rgb(0,0,0);stroke-width:0.1;fill:none" />
  <path d="M84.3455,114.739 A0.501481,0.501481 0 0,0 83.844,114.237 " style="stroke:rgb(0,0,0);stroke-width:0.1;fill:none" />
  <path d="M84.3455,114.739 L84.3455,122.695" style="stroke:rgb(0,0,0);stroke-width:0.1;fill:none" />
  <path d="M79.2924,114.237 A1.00296,1.00296 0 0,0 78.2895,115.24 " style="stroke:rgb(0,0,0);stroke-width:0.1;fill:none" />
  <path d="M78.2895,115.24 L78.2895,115.453" style="stroke:rgb(0,0,0);stroke-width:0.1;fill:none" />
  <path d="M79.2924,114.237 L83.844,114.237" style="stroke:rgb(0,0,0);stroke-width:0.1;fill:none" />
  <path d="M74.9177,114.237 A2.71116,2.71116 0 0,0 70.2794,113.523 " style="stroke:rgb(0,0,0);stroke-width:0.1;fill:none" />
  <path d="M67.477,117.525 L70.2794,113.523" style="stroke:rgb(0,0,0);stroke-width:0.1;fill:none" />
  <path d="M74.9177,114.237 L74.9177,115.152" style="stroke:rgb(0,0,0);stroke-width:0.1;fill:none" />
  <path d="M95.3399,114.237 A0.501481,0.501481 0 0,0 94.8384,114.739 " style="stroke:rgb(0,0,0);stroke-width:0.1;fill:none" />
  <path d="M94.8384,119.252 L94.8384,114.739" style="stroke:rgb(0,0,0);stroke-width:0.1;fill:none" />
  <path d="M95.3399,114.237 L124.946,114.237" style="stroke:rgb(0,0,0);stroke-width:0.1;fill:none" />
  <path d="M87.8558,119.252 L94.8384,119.252" style="stroke:rgb(0,0,0);stroke-width:0.1;fill:none" />
  <path d="M189.957,118.807 A2.16239,2.16239 0 0,0 191.524,115.153 " style="stroke:rgb(0,0,0);stroke-width:0.1;fill:none" />
  <ellipse cx="193.668" cy="125.572" rx="1.00296" ry="1.00296" style="stroke:rgb(0,0,0);stroke-width:0.1;fill:none;"/>
  <path d="M190.904,118.592 L193.299,124.639" style="stroke:rgb(0,0,0);stroke-width:0.1;fill:none" />
  <path d="M188.152,115.454 A2.16239,2.16239 0 0,0 190.903,118.589 " style="stroke:rgb(0,0,0);stroke-width:0.1;fill:none" />
  <path d="M182.598,114.237 A0.501481,0.501481 0 0,0 182.096,114.739 " style="stroke:rgb(0,0,0);stroke-width:0.1;fill:none" />
  <path d="M182.598,114.237 L187.149,114.237" style="stroke:rgb(0,0,0);stroke-width:0.1;fill:none" />
  <path d="M188.152,115.24 A1.00296,1.00296 0 0,0 187.149,114.237 " style="stroke:rgb(0,0,0);stroke-width:0.1;fill:none" />
  <path d="M188.152,115.24 L188.152,115.454" style="stroke:rgb(0,0,0);stroke-width:0.1;fill:none" />
  <path d="M200.551,122.261 A8.0237,8.0237 0 0,0 192.527,114.237 " style="stroke:rgb(0,0,0);stroke-width:0.1;fill:none" />
  <path d="M182.096,119.252 L182.096,114.71" style="stroke:rgb(0,0,0);stroke-width:0.1;fill:none" />
  <path d="M179.551,119.753 L179.551,122.695" style="stroke:rgb(0,0,0);stroke-width:0.1;fill:none" />
  <path d="M179.551,119.753 A0.501481,0.501481 0 0,1 180.052,119.252 " style="stroke:rgb(0,0,0);stroke-width:0.1;fill:none" />
  <path d="M180.052,119.252 L182.096,119.252" style="stroke:rgb(0,0,0);stroke-width:0.1;fill:none" />
  <path d="M192.527,141.167 A8.0237,8.0237 0 0,0 200.551,133.143 " style="stroke:rgb(0,0,0);stroke-width:0.1;fill:none" />
  <path d="M200.551,122.261 L200.551,133.143" style="stroke:rgb(0,0,0);stroke-width:0.1;fill:none" />
  <path d="M168.055,141.167 L192.527,141.167" style="stroke:rgb(0,0,0);stroke-width:0.1;fill:none" />
  <path d="M191.825,114.237 A0.598351,0.598351 0 0,0 191.524,115.153 " style="stroke:rgb(0,0,0);stroke-width:0.1;fill:none" />
  <path d="M192.527,114.237 L191.825,114.237" style="stroke:rgb(0,0,0);stroke-width:0.1;fill:none" />
  <ellipse cx="79.7928" cy="151.196" rx="3.51037" ry="3.51037" style="stroke:rgb(0,0,0);stroke-width:0.1;fill:none;"/>
  <path d="M74.9177,167.181 A2.16239,2.16239 0 0,1 76.4841,163.528 " style="stroke:rgb(0,0,0);stroke-width:0.1;fill:none" />
  <ellipse cx="72.7732" cy="156.763" rx="1.00296" ry="1.00296" style="stroke:rgb(0,0,0);stroke-width:0.1;fill:none;"/>
  <path d="M75.5377,163.743 L73.1425,157.695" style="stroke:rgb(0,0,0);stroke-width:0.1;fill:none" />
  <path d="M183.273,149.465 L183.273,149.465" style="stroke:rgb(0,0,0);stroke-width:0.1;fill:none" />
  <path d="M183.273,149.465 L183.273,149.465" style="stroke:rgb(0,0,0);stroke-width:0.1;fill:none" />
  <ellipse cx="183.601" cy="150.97" rx="1.50444" ry="1.50444" style="stroke:rgb(0,0,0);stroke-width:0.1;fill:none;"/>
  <path d="M187.111,149.465 L183.601,149.465" style="stroke:rgb(0,0,0);stroke-width:0.1;fill:none" />
  <path d="M183.601,149.465 L180.09,149.465" style="stroke:rgb(0,0,0);stroke-width:0.1;fill:none" />
  <ellipse cx="74.2765" cy="151.196" rx="1.20356" ry="1.20356" style="stroke:rgb(0,0,0);stroke-width:0.1;fill:none;"/>
  <ellipse cx="85.3091" cy="151.196" rx="1.20356" ry="1.20356" style="stroke:rgb(0,0,0);stroke-width:0.1;fill:none;"/>
  <path d="M75.5377,163.743 A2.1654,2.1654 0 0,1 78.292,166.882 " style="stroke:rgb(0,0,0);stroke-width:0.1;fill:none" />
  <path d="M87.8558,163.081 A0.501481,0.501481 0 0,1 87.3544,162.58 " style="stroke:rgb(0,0,0);stroke-width:0.1;fill:none" />
  <path d="M176.542,162.58 A0.501481,0.501481 0 0,1 176.04,163.081 " style="stroke:rgb(0,0,0);stroke-width:0.1;fill:none" />
  <path d="M180.09,146.432 L187.111,146.432" style="stroke:rgb(0,0,0);stroke-width:0.1;fill:none" />
  <path d="M187.111,146.432 L187.111,149.465" style="stroke:rgb(0,0,0);stroke-width:0.1;fill:none" />
  <path d="M180.09,149.465 L180.09,146.432" style="stroke:rgb(0,0,0);stroke-width:0.1;fill:none" />
  <path d="M84.3455,156.458 L87.3544,156.458" style="stroke:rgb(0,0,0);stroke-width:0.1;fill:none" />
  <path d="M82.9814,159.638 L82.9814,157.461" style="stroke:rgb(0,0,0);stroke-width:0.1;fill:none" />
  <path d="M88.7184,157.461 L88.7184,159.638" style="stroke:rgb(0,0,0);stroke-width:0.1;fill:none" />
  <path d="M84.3455,159.638 L82.9814,159.638" style="stroke:rgb(0,0,0);stroke-width:0.1;fill:none" />
  <path d="M88.7184,159.638 L87.3544,159.638" style="stroke:rgb(0,0,0);stroke-width:0.1;fill:none" />
  <path d="M87.3544,156.458 L87.3544,157.461" style="stroke:rgb(0,0,0);stroke-width:0.1;fill:none" />
  <path d="M87.3544,157.461 L88.7184,157.461" style="stroke:rgb(0,0,0);stroke-width:0.1;fill:none" />
  <path d="M82.9814,157.461 L84.3455,157.461" style="stroke:rgb(0,0,0);stroke-width:0.1;fill:none" />
  <path d="M84.3455,157.461 L84.3455,156.458" style="stroke:rgb(0,0,0);stroke-width:0.1;fill:none" />
  <path d="M176.542,156.458 L179.551,156.458" style="stroke:rgb(0,0,0);stroke-width:0.1;fill:none" />
  <path d="M175.178,159.638 L175.178,157.461" style="stroke:rgb(0,0,0);stroke-width:0.1;fill:none" />
  <path d="M180.915,157.461 L180.915,159.638" style="stroke:rgb(0,0,0);stroke-width:0.1;fill:none" />
  <path d="M176.542,159.638 L175.178,159.638" style="stroke:rgb(0,0,0);stroke-width:0.1;fill:none" />
  <path d="M180.915,159.638 L179.551,159.638" style="stroke:rgb(0,0,0);stroke-width:0.1;fill:none" />
  <path d="M179.551,156.458 L179.551,157.461" style="stroke:rgb(0,0,0);stroke-width:0.1;fill:none" />
  <path d="M179.551,157.461 L180.915,157.461" style="stroke:rgb(0,0,0);stroke-width:0.1;fill:none" />
  <path d="M175.178,157.461 L176.542,157.461" style="stroke:rgb(0,0,0);stroke-width:0.1;fill:none" />
  <path d="M176.542,157.461 L176.542,156.458" style="stroke:rgb(0,0,0);stroke-width:0.1;fill:none" />
  <path d="M87.3544,159.638 L87.3544,162.58" style="stroke:rgb(0,0,0);stroke-width:0.1;fill:none" />
  <path d="M176.542,162.58 L176.542,159.638" style="stroke:rgb(0,0,0);stroke-width:0.1;fill:none" />
  <path d="M125.448,158.067 L138.448,158.067" style="stroke:rgb(0,0,0);stroke-width:0.1;fill:none" />
  <path d="M138.448,163.081 L138.448,158.067" style="stroke:rgb(0,0,0);stroke-width:0.1;fill:none" />
  <path d="M176.04,163.081 L138.448,163.081" style="stroke:rgb(0,0,0);stroke-width:0.1;fill:none" />
  <ellipse cx="64.9192" cy="152.251" rx="1.50444" ry="1.50444" style="stroke:rgb(0,0,0);stroke-width:0.1;fill:none;"/>
  <path d="M56.393,148.978 L67.477,164.808" style="stroke:rgb(0,0,0);stroke-width:0.1;fill:none" />
  <path d="M57.1125,145.473 L59.9889,149.581" style="stroke:rgb(0,0,0);stroke-width:0.1;fill:none" />
  <path d="M59.9889,149.581 L64.0966,146.705" style="stroke:rgb(0,0,0);stroke-width:0.1;fill:none" />
  <path d="M56.393,148.978 A2.53002,2.53002 0 0,1 57.1125,145.473 " style="stroke:rgb(0,0,0);stroke-width:0.1;fill:none" />
  <path d="M61.3663,142.806 A1.38611,1.38611 0 0,1 62.4434,141.168 " style="stroke:rgb(0,0,0);stroke-width:0.1;fill:none" />
  <path d="M61.3663,142.806 L64.0966,146.705" style="stroke:rgb(0,0,0);stroke-width:0.1;fill:none" />
  <path d="M124.927,146.181 L138.969,146.181" style="stroke:rgb(0,0,0);stroke-width:0.1;fill:none" />
  <path d="M113.393,153.306 L116.402,153.306" style="stroke:rgb(0,0,0);stroke-width:0.1;fill:none" />
  <path d="M112.029,150.126 L112.029,152.303" style="stroke:rgb(0,0,0);stroke-width:0.1;fill:none" />
  <path d="M117.766,152.303 L117.766,150.126" style="stroke:rgb(0,0,0);stroke-width:0.1;fill:none" />
  <path d="M113.393,150.126 L112.029,150.126" style="stroke:rgb(0,0,0);stroke-width:0.1;fill:none" />
  <path d="M117.766,150.126 L116.402,150.126" style="stroke:rgb(0,0,0);stroke-width:0.1;fill:none" />
  <path d="M116.402,153.306 L116.402,152.303" style="stroke:rgb(0,0,0);stroke-width:0.1;fill:none" />
  <path d="M116.402,152.303 L117.766,152.303" style="stroke:rgb(0,0,0);stroke-width:0.1;fill:none" />
  <path d="M112.029,152.303 L113.393,152.303" style="stroke:rgb(0,0,0);stroke-width:0.1;fill:none" />
  <path d="M113.393,152.303 L113.393,153.306" style="stroke:rgb(0,0,0);stroke-width:0.1;fill:none" />
  <path d="M113.393,146.683 L113.393,150.126" style="stroke:rgb(0,0,0);stroke-width:0.1;fill:none" />
  <path d="M116.402,150.126 L116.402,146.683" style="stroke:rgb(0,0,0);stroke-width:0.1;fill:none" />
  <path d="M104.868,141.668 L104.868,146.181" style="stroke:rgb(0,0,0);stroke-width:0.1;fill:none" />
  <path d="M104.868,141.668 A0.501481,0.501481 0 0,1 105.369,141.167 " style="stroke:rgb(0,0,0);stroke-width:0.1;fill:none" />
  <path d="M109.381,141.167 L105.369,141.167" style="stroke:rgb(0,0,0);stroke-width:0.1;fill:none" />
  <path d="M109.883,146.181 L109.883,141.668" style="stroke:rgb(0,0,0);stroke-width:0.1;fill:none" />
  <path d="M109.381,141.167 A0.501481,0.501481 0 0,1 109.883,141.668 " style="stroke:rgb(0,0,0);stroke-width:0.1;fill:none" />
  <path d="M112.892,146.181 L109.883,146.181" style="stroke:rgb(0,0,0);stroke-width:0.1;fill:none" />
  <path d="M112.892,146.181 A0.501481,0.501481 0 0,1 113.393,146.683 " style="stroke:rgb(0,0,0);stroke-width:0.1;fill:none" />
  <path d="M116.904,146.181 L119.912,146.181" style="stroke:rgb(0,0,0);stroke-width:0.1;fill:none" />
  <path d="M116.402,146.683 A0.501481,0.501481 0 0,1 116.904,146.181 " style="stroke:rgb(0,0,0);stroke-width:0.1;fill:none" />
  <path d="M119.912,146.181 L119.912,141.668" style="stroke:rgb(0,0,0);stroke-width:0.1;fill:none" />
  <path d="M119.912,141.668 A0.501481,0.501481 0 0,1 120.414,141.167 " style="stroke:rgb(0,0,0);stroke-width:0.1;fill:none" />
  <path d="M124.927,141.668 L124.927,146.181" style="stroke:rgb(0,0,0);stroke-width:0.1;fill:none" />
  <path d="M124.426,141.167 A0.501481,0.501481 0 0,1 124.927,141.668 " style="stroke:rgb(0,0,0);stroke-width:0.1;fill:none" />
  <path d="M147.494,153.306 L150.503,153.306" style="stroke:rgb(0,0,0);stroke-width:0.1;fill:none" />
  <path d="M146.13,150.126 L146.13,152.303" style="stroke:rgb(0,0,0);stroke-width:0.1;fill:none" />
  <path d="M151.867,152.303 L151.867,150.126" style="stroke:rgb(0,0,0);stroke-width:0.1;fill:none" />
  <path d="M147.494,150.126 L146.13,150.126" style="stroke:rgb(0,0,0);stroke-width:0.1;fill:none" />
  <path d="M151.867,150.126 L150.503,150.126" style="stroke:rgb(0,0,0);stroke-width:0.1;fill:none" />
  <path d="M150.503,153.306 L150.503,152.303" style="stroke:rgb(0,0,0);stroke-width:0.1;fill:none" />
  <path d="M150.503,152.303 L151.867,152.303" style="stroke:rgb(0,0,0);stroke-width:0.1;fill:none" />
  <path d="M146.13,152.303 L147.494,152.303" style="stroke:rgb(0,0,0);stroke-width:0.1;fill:none" />
  <path d="M147.494,152.303 L147.494,153.306" style="stroke:rgb(0,0,0);stroke-width:0.1;fill:none" />
  <path d="M147.494,146.683 L147.494,150.126" style="stroke:rgb(0,0,0);stroke-width:0.1;fill:none" />
  <path d="M150.503,150.126 L150.503,146.683" style="stroke:rgb(0,0,0);stroke-width:0.1;fill:none" />
  <path d="M146.992,146.181 L143.984,146.181" style="stroke:rgb(0,0,0);stroke-width:0.1;fill:none" />
  <path d="M146.992,146.181 A0.501481,0.501481 0 0,1 147.494,146.683 " style="stroke:rgb(0,0,0);stroke-width:0.1;fill:none" />
  <path d="M151.004,146.181 L154.013,146.181" style="stroke:rgb(0,0,0);stroke-width:0.1;fill:none" />
  <path d="M150.503,146.683 A0.501481,0.501481 0 0,1 151.004,146.181 " style="stroke:rgb(0,0,0);stroke-width:0.1;fill:none" />
  <path d="M138.969,141.668 L138.969,146.181" style="stroke:rgb(0,0,0);stroke-width:0.1;fill:none" />
  <path d="M138.969,141.668 A0.501481,0.501481 0 0,1 139.47,141.167 " style="stroke:rgb(0,0,0);stroke-width:0.1;fill:none" />
  <path d="M143.984,146.181 L143.984,141.668" style="stroke:rgb(0,0,0);stroke-width:0.1;fill:none" />
  <path d="M143.482,141.167 A0.501481,0.501481 0 0,1 143.984,141.668 " style="stroke:rgb(0,0,0);stroke-width:0.1;fill:none" />
  <path d="M146.992,146.181 L143.984,146.181" style="stroke:rgb(0,0,0);stroke-width:0.1;fill:none" />
  <path d="M146.992,146.181 A0.501481,0.501481 0 0,1 147.494,146.683 " style="stroke:rgb(0,0,0);stroke-width:0.1;fill:none" />
  <path d="M151.004,146.181 L154.013,146.181" style="stroke:rgb(0,0,0);stroke-width:0.1;fill:none" />
  <path d="M150.503,146.683 A0.501481,0.501481 0 0,1 151.004,146.181 " style="stroke:rgb(0,0,0);stroke-width:0.1;fill:none" />
  <path d="M154.013,146.181 L154.013,141.668" style="stroke:rgb(0,0,0);stroke-width:0.1;fill:none" />
  <path d="M154.013,141.668 A0.501481,0.501481 0 0,1 154.515,141.167 " style="stroke:rgb(0,0,0);stroke-width:0.1;fill:none" />
  <path d="M159.028,141.668 L159.028,146.181" style="stroke:rgb(0,0,0);stroke-width:0.1;fill:none" />
  <path d="M158.527,141.167 A0.501481,0.501481 0 0,1 159.028,141.668 " style="stroke:rgb(0,0,0);stroke-width:0.1;fill:none" />
  <path d="M95.8413,146.181 L95.8413,141.167" style="stroke:rgb(0,0,0);stroke-width:0.1;fill:none" />
  <path d="M62.4434,141.168 L95.8413,141.167" style="stroke:rgb(0,0,0);stroke-width:0.1;fill:none" />
  <path d="M95.8413,146.181 L104.868,146.181" style="stroke:rgb(0,0,0);stroke-width:0.1;fill:none" />
  <path d="M168.055,146.181 L168.055,141.167" style="stroke:rgb(0,0,0);stroke-width:0.1;fill:none" />
  <path d="M159.028,146.181 L168.055,146.181" style="stroke:rgb(0,0,0);stroke-width:0.1;fill:none" />
  <path d="M125.448,167.595 A0.501481,0.501481 0 0,1 124.946,168.096 " style="stroke:rgb(0,0,0);stroke-width:0.1;fill:none" />
  <path d="M125.448,167.595 L125.448,158.067" style="stroke:rgb(0,0,0);stroke-width:0.1;fill:none" />
  <path d="M84.3455,167.595 A0.501481,0.501481 0 0,1 83.844,168.096 " style="stroke:rgb(0,0,0);stroke-width:0.1;fill:none" />
  <path d="M84.3455,167.595 L84.3455,159.638" style="stroke:rgb(0,0,0);stroke-width:0.1;fill:none" />
  <path d="M79.2924,168.096 A1.00296,1.00296 0 0,1 78.2895,167.093 " style="stroke:rgb(0,0,0);stroke-width:0.1;fill:none" />
  <path d="M78.2895,167.093 L78.2895,166.881" style="stroke:rgb(0,0,0);stroke-width:0.1;fill:none" />
  <path d="M79.2924,168.096 L83.844,168.096" style="stroke:rgb(0,0,0);stroke-width:0.1;fill:none" />
  <path d="M74.9177,168.096 A2.71116,2.71116 0 0,1 70.2794,168.81 " style="stroke:rgb(0,0,0);stroke-width:0.1;fill:none" />
  <path d="M67.477,164.808 L70.2794,168.81" style="stroke:rgb(0,0,0);stroke-width:0.1;fill:none" />
  <path d="M74.9177,168.096 L74.9177,167.181" style="stroke:rgb(0,0,0);stroke-width:0.1;fill:none" />
  <path d="M95.3399,168.096 A0.501481,0.501481 0 0,1 94.8384,167.595 " style="stroke:rgb(0,0,0);stroke-width:0.1;fill:none" />
  <path d="M94.8384,163.081 L94.8384,167.595" style="stroke:rgb(0,0,0);stroke-width:0.1;fill:none" />
  <path d="M95.3399,168.096 L124.946,168.096" style="stroke:rgb(0,0,0);stroke-width:0.1;fill:none" />
  <path d="M87.8558,163.081 L94.8384,163.081" style="stroke:rgb(0,0,0);stroke-width:0.1;fill:none" />
  <path d="M189.957,163.527 A2.16239,2.16239 0 0,1 191.524,167.18 " style="stroke:rgb(0,0,0);stroke-width:0.1;fill:none" />
  <ellipse cx="193.668" cy="156.761" rx="1.00296" ry="1.00296" style="stroke:rgb(0,0,0);stroke-width:0.1;fill:none;"/>
  <path d="M190.904,163.741 L193.299,157.694" style="stroke:rgb(0,0,0);stroke-width:0.1;fill:none" />
  <path d="M188.152,166.879 A2.16239,2.16239 0 0,1 190.903,163.744 " style="stroke:rgb(0,0,0);stroke-width:0.1;fill:none" />
  <path d="M182.598,168.096 A0.501481,0.501481 0 0,1 182.096,167.595 " style="stroke:rgb(0,0,0);stroke-width:0.1;fill:none" />
  <path d="M182.598,168.096 L187.149,168.096" style="stroke:rgb(0,0,0);stroke-width:0.1;fill:none" />
  <path d="M188.152,167.093 A1.00296,1.00296 0 0,1 187.149,168.096 " style="stroke:rgb(0,0,0);stroke-width:0.1;fill:none" />
  <path d="M188.152,167.093 L188.152,166.879" style="stroke:rgb(0,0,0);stroke-width:0.1;fill:none" />
  <path d="M200.551,160.072 A8.0237,8.0237 0 0,1 192.527,168.096 " style="stroke:rgb(0,0,0);stroke-width:0.1;fill:none" />
  <path d="M182.096,163.081 L182.096,167.623" style="stroke:rgb(0,0,0);stroke-width:0.1;fill:none" />
  <path d="M179.551,162.58 L179.551,159.638" style="stroke:rgb(0,0,0);stroke-width:0.1;fill:none" />
  <path d="M179.551,162.58 A0.501481,0.501481 0 0,0 180.052,163.081 " style="stroke:rgb(0,0,0);stroke-width:0.1;fill:none" />
  <path d="M180.052,163.081 L182.096,163.081" style="stroke:rgb(0,0,0);stroke-width:0.1;fill:none" />
  <path d="M192.527,141.167 A8.0237,8.0237 0 0,1 200.551,149.19 " style="stroke:rgb(0,0,0);stroke-width:0.1;fill:none" />
  <path d="M200.551,160.072 L200.551,149.19" style="stroke:rgb(0,0,0);stroke-width:0.1;fill:none" />
  <path d="M191.825,168.096 A0.598351,0.598351 0 0,1 191.524,167.18 " style="stroke:rgb(0,0,0);stroke-width:0.1;fill:none" />
  <path d="M192.527,168.096 L191.825,168.096" style="stroke:rgb(0,0,0);stroke-width:0.1;fill:none" />
  <path d="M0.588888,184.737 L85.8407,269.989" style="stroke:rgb(0,0,0);stroke-width:0.1;fill:none" />
  <path d="M337.589,269.989 L252.337,184.737" style="stroke:rgb(0,0,0);stroke-width:0.1;fill:none" />
  <path d="M0.593343,184.737 L252.337,184.737" style="stroke:rgb(0,0,0);stroke-width:0.1;fill:none" />
  <path d="M337.589,269.989 L85.8452,269.989" style="stroke:rgb(0,0,0);stroke-width:0.1;fill:none" />
</svg>
