999
dxflib 2.2.0.0
  0
SECTION
  2
HEADER
  9
$ACADVER
  1
AC1015
  9
$HANDSEED
  5
FFFF
  9
$DIMASZ
 40
2.5
  9
$PLIMMIN
 10
0.0
 20
0.0
  9
$DIMEXE
 40
1.25
  9
$DIMGAP
 40
0.625
  9
$PLIMMAX
 10
210.0
 20
297.0
  9
$INSUNITS
 70
4
  9
$DIMSTYLE
  2
Standard
  9
$CLAYER
  8
0
  9
$DIMEXO
 40
0.625
  9
$DIMTXT
 40
2.5
  9
$CLAYER
  8
0
  0
ENDSEC
  0
SECTION
  2
TABLES
  0
TABLE
  2
VPORT
  5
8
100
AcDbSymbolTable
 70
1
  0
VPORT
  5
30
100
AcDbSymbolTableRecord
100
AcDbViewportTableRecord
  2
*Active
 70
0
 10
0.0
 20
0.0
 11
1.0
 21
1.0
 12
286.30555555555549
 22
148.5
 13
0.0
 23
0.0
 14
10.0
 24
10.0
 15
10.0
 25
10.0
 16
0.0
 26
0.0
 36
1.0
 17
0.0
 27
0.0
 37
0.0
 40
297.0
 41
1.92798353909465
 42
50.0
 43
0.0
 44
0.0
 50
0.0
 51
0.0
 71
0
 72
100
 73
1
 74
3
 75
1
 76
1
 77
0
 78
0
281
0
 65
1
110
0.0
120
0.0
130
0.0
111
1.0
121
0.0
131
0.0
112
0.0
122
1.0
132
0.0
 79
0
146
0.0
  0
ENDTAB
  0
TABLE
  2
LTYPE
  5
5
100
AcDbSymbolTable
 70
21
  0
LTYPE
  5
14
100
AcDbSymbolTableRecord
100
AcDbLinetypeTableRecord
  2
ByBlock
 70
0
  3

 72
65
 73
0
 40
0.0
  0
LTYPE
  5
15
100
AcDbSymbolTableRecord
100
AcDbLinetypeTableRecord
  2
ByLayer
 70
0
  3

 72
65
 73
0
 40
0.0
  0
LTYPE
  5
16
100
AcDbSymbolTableRecord
100
AcDbLinetypeTableRecord
  2
CONTINUOUS
 70
0
  3
Solid line
 72
65
 73
0
 40
0.0
  0
LTYPE
  5
31
100
AcDbSymbolTableRecord
100
AcDbLinetypeTableRecord
  2
DOT
 70
0
  3
Dot . . . . . . . . . . . . . . . . . . . . . .
 72
65
 73
2
 40
6.3499999999999996
 49
0.0
 74
0
 49
-6.3499999999999996
 74
0
  0
LTYPE
  5
32
100
AcDbSymbolTableRecord
100
AcDbLinetypeTableRecord
  2
DOT2
 70
0
  3
Dot (.5x) .....................................
 72
65
 73
2
 40
3.1749999999999998
 49
0.0
 74
0
 49
-3.1749999999999998
 74
0
  0
LTYPE
  5
33
100
AcDbSymbolTableRecord
100
AcDbLinetypeTableRecord
  2
DOTX2
 70
0
  3
Dot (2x) .  .  .  .  .  .  .  .  .  .  .  .  .
 72
65
 73
2
 40
12.699999999999999
 49
0.0
 74
0
 49
-12.699999999999999
 74
0
  0
LTYPE
  5
34
100
AcDbSymbolTableRecord
100
AcDbLinetypeTableRecord
  2
DASHED
 70
0
  3
Dashed __ __ __ __ __ __ __ __ __ __ __ __ __ _
 72
65
 73
2
 40
19.050000000000001
 49
12.699999999999999
 74
0
 49
-6.3499999999999996
 74
0
  0
LTYPE
  5
35
100
AcDbSymbolTableRecord
100
AcDbLinetypeTableRecord
  2
DASHED2
 70
0
  3
Dashed (.5x) _ _ _ _ _ _ _ _ _ _ _ _ _ _ _ _ _
 72
65
 73
2
 40
9.5250000000000004
 49
6.3499999999999996
 74
0
 49
-3.1749999999999998
 74
0
  0
LTYPE
  5
36
100
AcDbSymbolTableRecord
100
AcDbLinetypeTableRecord
  2
DASHEDX2
 70
0
  3
Dashed (2x) ____  ____  ____  ____  ____  ___
 72
65
 73
2
 40
38.100000000000001
 49
25.399999999999999
 74
0
 49
-12.699999999999999
 74
0
  0
LTYPE
  5
37
100
AcDbSymbolTableRecord
100
AcDbLinetypeTableRecord
  2
DASHDOT
 70
0
  3
Dash dot __ . __ . __ . __ . __ . __ . __ . __
 72
65
 73
4
 40
25.399999999999999
 49
12.699999999999999
 74
0
 49
-6.3499999999999996
 74
0
 49
0.0
 74
0
 49
-6.3499999999999996
 74
0
  0
LTYPE
  5
38
100
AcDbSymbolTableRecord
100
AcDbLinetypeTableRecord
  2
DASHDOT2
 70
0
  3
Dash dot (.5x) _._._._._._._._._._._._._._._.
 72
65
 73
4
 40
12.699999999999999
 49
6.3499999999999996
 74
0
 49
-3.1749999999999998
 74
0
 49
0.0
 74
0
 49
-3.1749999999999998
 74
0
  0
LTYPE
  5
39
100
AcDbSymbolTableRecord
100
AcDbLinetypeTableRecord
  2
DASHDOTX2
 70
0
  3
Dash dot (2x) ____  .  ____  .  ____  .  ___
 72
65
 73
4
 40
50.799999999999997
 49
25.399999999999999
 74
0
 49
-12.699999999999999
 74
0
 49
0.0
 74
0
 49
-12.699999999999999
 74
0
  0
LTYPE
  5
3A
100
AcDbSymbolTableRecord
100
AcDbLinetypeTableRecord
  2
DIVIDE
 70
0
  3
Divide ____ . . ____ . . ____ . . ____ . . ____
 72
65
 73
6
 40
31.75
 49
12.699999999999999
 74
0
 49
-6.3499999999999996
 74
0
 49
0.0
 74
0
 49
-6.3499999999999996
 74
0
 49
0.0
 74
0
 49
-6.3499999999999996
 74
0
  0
LTYPE
  5
3B
100
AcDbSymbolTableRecord
100
AcDbLinetypeTableRecord
  2
DIVIDE2
 70
0
  3
Divide (.5x) __..__..__..__..__..__..__..__.._
 72
65
 73
6
 40
15.875
 49
6.3499999999999996
 74
0
 49
-3.1749999999999998
 74
0
 49
0.0
 74
0
 49
-3.1749999999999998
 74
0
 49
0.0
 74
0
 49
-3.1749999999999998
 74
0
  0
LTYPE
  5
3C
100
AcDbSymbolTableRecord
100
AcDbLinetypeTableRecord
  2
DIVIDEX2
 70
0
  3
Divide (2x) ________  .  .  ________  .  .  _
 72
65
 73
6
 40
63.5
 49
25.399999999999999
 74
0
 49
-12.699999999999999
 74
0
 49
0.0
 74
0
 49
-12.699999999999999
 74
0
 49
0.0
 74
0
 49
-12.699999999999999
 74
0
  0
LTYPE
  5
3D
100
AcDbSymbolTableRecord
100
AcDbLinetypeTableRecord
  2
CENTER
 70
0
  3
Center ____ _ ____ _ ____ _ ____ _ ____ _ ____
 72
65
 73
4
 40
50.799999999999997
 49
31.75
 74
0
 49
-6.3499999999999996
 74
0
 49
6.3499999999999996
 74
0
 49
-6.3499999999999996
 74
0
  0
LTYPE
  5
3E
100
AcDbSymbolTableRecord
100
AcDbLinetypeTableRecord
  2
CENTER2
 70
0
  3
Center (.5x) ___ _ ___ _ ___ _ ___ _ ___ _ ___
 72
65
 73
4
 40
28.574999999999999
 49
19.050000000000001
 74
0
 49
-3.1749999999999998
 74
0
 49
3.1749999999999998
 74
0
 49
-3.1749999999999998
 74
0
  0
LTYPE
  5
3F
100
AcDbSymbolTableRecord
100
AcDbLinetypeTableRecord
  2
CENTERX2
 70
0
  3
Center (2x) ________  __  ________  __  _____
 72
65
 73
4
 40
101.59999999999999
 49
63.5
 74
0
 49
-12.699999999999999
 74
0
 49
12.699999999999999
 74
0
 49
-12.699999999999999
 74
0
  0
LTYPE
  5
40
100
AcDbSymbolTableRecord
100
AcDbLinetypeTableRecord
  2
BORDER
 70
0
  3
Border __ __ . __ __ . __ __ . __ __ . __ __ .
 72
65
 73
6
 40
44.450000000000003
 49
12.699999999999999
 74
0
 49
-6.3499999999999996
 74
0
 49
12.699999999999999
 74
0
 49
-6.3499999999999996
 74
0
 49
0.0
 74
0
 49
-6.3499999999999996
 74
0
  0
LTYPE
  5
41
100
AcDbSymbolTableRecord
100
AcDbLinetypeTableRecord
  2
BORDER2
 70
0
  3
Border (.5x) __.__.__.__.__.__.__.__.__.__.__.
 72
65
 73
6
 40
22.225000000000001
 49
6.3499999999999996
 74
0
 49
-3.1749999999999998
 74
0
 49
6.3499999999999996
 74
0
 49
-3.1749999999999998
 74
0
 49
0.0
 74
0
 49
-3.1749999999999998
 74
0
  0
LTYPE
  5
42
100
AcDbSymbolTableRecord
100
AcDbLinetypeTableRecord
  2
BORDERX2
 70
0
  3
Border (2x) ____  ____  .  ____  ____  .  ___
 72
65
 73
6
 40
88.900000000000006
 49
25.399999999999999
 74
0
 49
-12.699999999999999
 74
0
 49
25.399999999999999
 74
0
 49
-12.699999999999999
 74
0
 49
0.0
 74
0
 49
-12.699999999999999
 74
0
  0
ENDTAB
  0
TABLE
  2
LAYER
  5
2
100
AcDbSymbolTable
 70
13
  0
LAYER
  5
10
100
AcDbSymbolTableRecord
100
AcDbLayerTableRecord
  2
0
 70
0
 62
7
420
0
  6
CONTINUOUS
370
25
390
F
  0
LAYER
  5
43
100
AcDbSymbolTableRecord
100
AcDbLayerTableRecord
  2
1 bottom
 70
0
 62
7
420
0
  6
CONTINUOUS
370
0
390
F
  0
LAYER
  5
44
100
AcDbSymbolTableRecord
100
AcDbLayerTableRecord
  2
4 side cover
 70
0
 62
7
420
0
  6
CONTINUOUS
370
0
390
F
  0
LAYER
  5
45
100
AcDbSymbolTableRecord
100
AcDbLayerTableRecord
  2
2 top
 70
0
 62
7
420
0
  6
CONTINUOUS
370
0
390
F
  0
LAYER
  5
46
100
AcDbSymbolTableRecord
100
AcDbLayerTableRecord
  2
3 side
 70
0
 62
7
420
0
  6
CONTINUOUS
370
0
390
F
  0
LAYER
  5
47
100
AcDbSymbolTableRecord
100
AcDbLayerTableRecord
  2
5 gears
 70
0
 62
7
420
0
  6
CONTINUOUS
370
0
390
F
  0
LAYER
  5
48
100
AcDbSymbolTableRecord
100
AcDbLayerTableRecord
  2
6 scraper
 70
0
 62
7
420
0
  6
CONTINUOUS
370
0
390
F
  0
LAYER
  5
49
100
AcDbSymbolTableRecord
100
AcDbLayerTableRecord
  2
7 belt
 70
0
 62
7
420
0
  6
CONTINUOUS
370
0
390
F
  0
LAYER
  5
4A
100
AcDbSymbolTableRecord
100
AcDbLayerTableRecord
  2
5a gear, shaft
 70
0
 62
7
420
0
  6
CONTINUOUS
370
0
390
F
  0
LAYER
  5
4B
100
AcDbSymbolTableRecord
100
AcDbLayerTableRecord
  2
5b gear, motor
 70
0
 62
7
420
0
  6
CONTINUOUS
370
0
390
F
  0
LAYER
  5
4C
100
AcDbSymbolTableRecord
100
AcDbLayerTableRecord
  2
5a gear, motor, A
 70
0
 62
7
420
0
  6
CONTINUOUS
370
0
390
F
  0
LAYER
  5
4D
100
AcDbSymbolTableRecord
100
AcDbLayerTableRecord
  2
5a gear, shaft, A
 70
0
 62
7
420
0
  6
CONTINUOUS
370
0
390
F
  0
LAYER
  5
4E
100
AcDbSymbolTableRecord
100
AcDbLayerTableRecord
  2
8 brush retainer
 70
0
 62
7
420
0
  6
CONTINUOUS
370
0
390
F
  0
ENDTAB
  0
TABLE
  2
STYLE
  5
3
100
AcDbSymbolTable
 70
1
  0
STYLE
  5
11
100
AcDbSymbolTableRecord
100
AcDbTextStyleTableRecord
  2
Standard
 70
0
 40
0.0
 41
0.75
 50
0.0
 71
0
 42
2.5
  3
txt
  4

  0
ENDTAB
  0
TABLE
  2
VIEW
  5
6
100
AcDbSymbolTable
 70
0
  0
ENDTAB
  0
TABLE
  2
UCS
  5
7
100
AcDbSymbolTable
 70
0
  0
ENDTAB
  0
TABLE
  2
APPID
  5
9
100
AcDbSymbolTable
 70
1
  0
APPID
  5
12
100
AcDbSymbolTableRecord
100
AcDbRegAppTableRecord
  2
ACAD
 70
0
  0
ENDTAB
  0
TABLE
  2
DIMSTYLE
  5
A
100
AcDbSymbolTable
 70
1
100
AcDbDimStyleTable
 71
0
  0
DIMSTYLE
105
27
100
AcDbSymbolTableRecord
100
AcDbDimStyleTableRecord
  2
Standard
 41
2.5
 42
0.625
 43
3.75
 44
1.25
 70
0
 73
0
 74
0
 77
1
 78
8
140
2.5
141
2.5
143
0.03937007874016
147
0.625
171
3
172
1
271
2
272
2
274
3
278
44
283
0
284
8
340
11
  0
ENDTAB
  0
TABLE
  2
BLOCK_RECORD
  5
1
100
AcDbSymbolTable
 70
1
  0
BLOCK_RECORD
  5
1F
100
AcDbSymbolTableRecord
100
AcDbBlockTableRecord
  2
*Model_Space
340
22
  0
BLOCK_RECORD
  5
1B
100
AcDbSymbolTableRecord
100
AcDbBlockTableRecord
  2
*Paper_Space
340
1E
  0
BLOCK_RECORD
  5
23
100
AcDbSymbolTableRecord
100
AcDbBlockTableRecord
  2
*Paper_Space0
340
26
  0
BLOCK_RECORD
  5
4F
100
AcDbSymbolTableRecord
100
AcDbBlockTableRecord
  2
holes-20
340
0
  0
BLOCK_RECORD
  5
50
100
AcDbSymbolTableRecord
100
AcDbBlockTableRecord
  2
tabs-with-bolt-20
340
0
  0
ENDTAB
  0
ENDSEC
  0
SECTION
  2
BLOCKS
  0
BLOCK
  5
20
100
AcDbEntity
  8
0
100
AcDbBlockBegin
  2
*Model_Space
 70
0
 10
0.0
 20
0.0
 30
0.0
  3
*Model_Space
  1

  0
ENDBLK
  5
21
100
AcDbEntity
  8
0
100
AcDbBlockEnd
  0
BLOCK
  5
1C
100
AcDbEntity
 67
1
  8
0
100
AcDbBlockBegin
  2
*Paper_Space
 70
0
 10
0.0
 20
0.0
 30
0.0
  3
*Paper_Space
  1

  0
ENDBLK
  5
1D
100
AcDbEntity
 67
1
  8
0
100
AcDbBlockEnd
  0
BLOCK
  5
24
100
AcDbEntity
  8
0
100
AcDbBlockBegin
  2
*Paper_Space0
 70
0
 10
0.0
 20
0.0
 30
0.0
  3
*Paper_Space0
  1

  0
ENDBLK
  5
25
100
AcDbEntity
  8
0
100
AcDbBlockEnd
  0
BLOCK
  5
51
100
AcDbEntity
  8
0
100
AcDbBlockBegin
  2
holes-20
 70
0
 10
0.0
 20
0.0
 30
0.0
  3
holes-20
  1

  0
CIRCLE
  5
52
100
AcDbEntity
100
AcDbCircle
  8
0
 62
256
370
-1
  6
ByLayer
 10
0.0
 20
0.0
 30
0.0
 40
1.5
  0
LINE
  5
53
100
AcDbEntity
100
AcDbLine
  8
0
 62
256
370
-1
  6
ByLayer
 10
5.0
 20
2.5000000000000004
 30
0.0
 11
10.0
 21
2.5000000000000009
 31
0.0
  0
LINE
  5
54
100
AcDbEntity
100
AcDbLine
  8
0
 62
256
370
-1
  6
ByLayer
 10
4.9999999999999991
 20
-2.5000000000000013
 30
0.0
 11
10.0
 21
-2.5000000000000031
 31
0.0
  0
LINE
  5
55
100
AcDbEntity
100
AcDbLine
  8
0
 62
256
370
-1
  6
ByLayer
 10
-4.9999999999999991
 20
2.5000000000000004
 30
0.0
 11
-10.0
 21
2.5000000000000022
 31
0.0
  0
LINE
  5
56
100
AcDbEntity
100
AcDbLine
  8
0
 62
256
370
-1
  6
ByLayer
 10
-5.0000000000000018
 20
-2.5
 30
0.0
 11
-10.0
 21
-2.4999999999999996
 31
0.0
  0
LINE
  5
57
100
AcDbEntity
100
AcDbLine
  8
0
 62
256
370
-1
  6
ByLayer
 10
-10.0
 20
2.5000000000000022
 30
0.0
 11
-10.0
 21
-2.4999999999999996
 31
0.0
  0
LINE
  5
58
100
AcDbEntity
100
AcDbLine
  8
0
 62
256
370
-1
  6
ByLayer
 10
-4.9999999999999991
 20
2.5000000000000004
 30
0.0
 11
-5.0000000000000018
 21
-2.5
 31
0.0
  0
LINE
  5
59
100
AcDbEntity
100
AcDbLine
  8
0
 62
256
370
-1
  6
ByLayer
 10
5.0
 20
2.5000000000000004
 30
0.0
 11
4.9999999999999991
 21
-2.5000000000000013
 31
0.0
  0
LINE
  5
5A
100
AcDbEntity
100
AcDbLine
  8
0
 62
256
370
-1
  6
ByLayer
 10
10.0
 20
2.5000000000000009
 30
0.0
 11
10.0
 21
-2.5000000000000031
 31
0.0
  0
ENDBLK
  5
5B
100
AcDbEntity
  8
0
100
AcDbBlockEnd
  0
BLOCK
  5
5C
100
AcDbEntity
  8
0
100
AcDbBlockBegin
  2
tabs-with-bolt-20
 70
0
 10
0.0
 20
0.0
 30
0.0
  3
tabs-with-bolt-20
  1

  0
LINE
  5
5D
100
AcDbEntity
100
AcDbLine
  8
0
 62
256
370
-1
  6
ByLayer
 10
-1.499999999999996
 20
11.500000000000004
 30
0.0
 11
1.5000000000000056
 21
11.500000000000004
 31
0.0
  0
LINE
  5
5E
100
AcDbEntity
100
AcDbLine
  8
0
 62
256
370
-1
  6
ByLayer
 10
-2.8599999999999914
 20
8.3300000000000018
 30
0.0
 11
-2.8599999999999892
 21
10.500000000000005
 31
0.0
  0
LINE
  5
5F
100
AcDbEntity
100
AcDbLine
  8
0
 62
256
370
-1
  6
ByLayer
 10
2.8600000000000017
 20
10.499999999999998
 30
0.0
 11
2.8599999999999972
 21
8.3300000000000018
 31
0.0
  0
LINE
  5
60
100
AcDbEntity
100
AcDbLine
  8
0
 62
256
370
-1
  6
ByLayer
 10
-1.4999999999999982
 20
8.3300000000000054
 30
0.0
 11
-2.8599999999999914
 21
8.3300000000000018
 31
0.0
  0
LINE
  5
61
100
AcDbEntity
100
AcDbLine
  8
0
 62
256
370
-1
  6
ByLayer
 10
2.8599999999999972
 20
8.3300000000000018
 30
0.0
 11
1.5000000000000049
 21
8.3299999999999983
 31
0.0
  0
LINE
  5
62
100
AcDbEntity
100
AcDbLine
  8
0
 62
256
370
-1
  6
ByLayer
 10
1.5000000000000056
 20
11.500000000000004
 30
0.0
 11
1.5000000000000024
 21
10.500000000000004
 31
0.0
  0
LINE
  5
63
100
AcDbEntity
100
AcDbLine
  8
0
 62
256
370
-1
  6
ByLayer
 10
1.5000000000000024
 20
10.500000000000004
 30
0.0
 11
2.8600000000000017
 21
10.499999999999998
 31
0.0
  0
LINE
  5
64
100
AcDbEntity
100
AcDbLine
  8
0
 62
256
370
-1
  6
ByLayer
 10
-2.8599999999999892
 20
10.500000000000005
 30
0.0
 11
-1.4999999999999976
 21
10.500000000000005
 31
0.0
  0
LINE
  5
65
100
AcDbEntity
100
AcDbLine
  8
0
 62
256
370
-1
  6
ByLayer
 10
-1.4999999999999976
 20
10.500000000000005
 30
0.0
 11
-1.499999999999996
 21
11.500000000000004
 31
0.0
  0
LINE
  5
66
100
AcDbEntity
100
AcDbLine
  8
0
 62
256
370
-1
  6
ByLayer
 10
-10.000000000000002
 20
-4.4999999999999947
 30
0.0
 11
-10.0
 21
0.0000000000000018
 31
0.0
  0
ARC
  5
67
100
AcDbEntity
  8
0
 62
256
370
-1
  6
ByLayer
100
AcDbCircle
 10
-9.5000000000000036
 20
-4.4999999999999929
 30
0.0
 40
0.5
100
AcDbArc
 50
180.0
 51
270.0
  0
LINE
  5
68
100
AcDbEntity
100
AcDbLine
  8
0
 62
256
370
-1
  6
ByLayer
 10
-5.4999999999999964
 20
-5.0
 30
0.0
 11
-9.5000000000000036
 21
-4.9999999999999929
 31
0.0
  0
LINE
  5
69
100
AcDbEntity
100
AcDbLine
  8
0
 62
256
370
-1
  6
ByLayer
 10
-4.9999999999999982
 20
0.0000000000000009
 30
0.0
 11
-5.0000000000000018
 21
-4.4999999999999947
 31
0.0
  0
ARC
  5
6A
100
AcDbEntity
  8
0
 62
256
370
-1
  6
ByLayer
100
AcDbCircle
 10
-5.4999999999999982
 20
-4.4999999999999982
 30
0.0
 40
0.5
100
AcDbArc
 50
270.0
 51
0.0
  0
LINE
  5
6B
100
AcDbEntity
100
AcDbLine
  8
0
 62
256
370
-1
  6
ByLayer
 10
-1.9999999999999973
 20
0.0000000000000049
 30
0.0
 11
-4.9999999999999982
 21
0.0000000000000009
 31
0.0
  0
LINE
  5
6C
100
AcDbEntity
100
AcDbLine
  8
0
 62
256
370
-1
  6
ByLayer
 10
-1.4999999999999978
 20
0.5000000000000058
 30
0.0
 11
-1.4999999999999982
 21
8.3300000000000054
 31
0.0
  0
ARC
  5
6D
100
AcDbEntity
  8
0
 62
256
370
-1
  6
ByLayer
100
AcDbCircle
 10
-1.9999999999999982
 20
0.5000000000000058
 30
0.0
 40
0.5
100
AcDbArc
 50
270.00000000000006
 51
0.0
  0
LINE
  5
6E
100
AcDbEntity
100
AcDbLine
  8
0
 62
256
370
-1
  6
ByLayer
 10
1.5000000000000049
 20
8.3299999999999983
 30
0.0
 11
1.4999999999999967
 21
0.5000000000000013
 31
0.0
  0
LINE
  5
6F
100
AcDbEntity
100
AcDbLine
  8
0
 62
256
370
-1
  6
ByLayer
 10
1.9999999999999978
 20
0.0000000000000027
 30
0.0
 11
4.9999999999999982
 21
-0.0000000000000009
 31
0.0
  0
ARC
  5
70
100
AcDbEntity
  8
0
 62
256
370
-1
  6
ByLayer
100
AcDbCircle
 10
1.9999999999999991
 20
0.500000000000004
 30
0.0
 40
0.5
100
AcDbArc
 50
180.0
 51
269.99999999999994
  0
LINE
  5
71
100
AcDbEntity
100
AcDbLine
  8
0
 62
256
370
-1
  6
ByLayer
 10
4.9999999999999982
 20
-0.0000000000000009
 30
0.0
 11
5.0
 21
-4.4999999999999982
 31
0.0
  0
ARC
  5
72
100
AcDbEntity
  8
0
 62
256
370
-1
  6
ByLayer
100
AcDbCircle
 10
5.4999999999999964
 20
-4.5
 30
0.0
 40
0.5
100
AcDbArc
 50
180.0
 51
270.0
  0
LINE
  5
73
100
AcDbEntity
100
AcDbLine
  8
0
 62
256
370
-1
  6
ByLayer
 10
5.4999999999999929
 20
-5.0000000000000018
 30
0.0
 11
9.4999999999999947
 21
-5.0000000000000053
 31
0.0
  0
LINE
  5
74
100
AcDbEntity
100
AcDbLine
  8
0
 62
256
370
-1
  6
ByLayer
 10
9.9999999999999947
 20
-4.5000000000000018
 30
0.0
 11
9.9999999999999982
 21
-0.0000000000000071
 31
0.0
  0
ARC
  5
75
100
AcDbEntity
  8
0
 62
256
370
-1
  6
ByLayer
100
AcDbCircle
 10
9.5000000000000018
 20
-4.4999999999999982
 30
0.0
 40
0.5
100
AcDbArc
 50
270.0
 51
0.0
  0
ENDBLK
  5
76
100
AcDbEntity
  8
0
100
AcDbBlockEnd
  0
ENDSEC
  0
SECTION
  2
ENTITIES
  0
LINE
  5
77
100
AcDbEntity
100
AcDbLine
  8
7 belt
 62
256
370
-1
  6
ByLayer
 10
-169.0
 20
-47.499999999999936
 30
0.0
 11
-149.00000000000006
 21
-132.49999999999991
 31
0.0
  0
LINE
  5
78
100
AcDbEntity
100
AcDbLine
  8
7 belt
 62
256
370
-1
  6
ByLayer
 10
-169.0
 20
-47.499999999999936
 30
0.0
 11
89.0
 21
-47.49999999999995
 31
0.0
  0
LINE
  5
79
100
AcDbEntity
100
AcDbLine
  8
7 belt
 62
256
370
-1
  6
ByLayer
 10
109.0
 20
-132.49999999999994
 30
0.0
 11
89.0
 21
-47.49999999999995
 31
0.0
  0
LINE
  5
7A
100
AcDbEntity
100
AcDbLine
  8
7 belt
 62
256
370
-1
  6
ByLayer
 10
109.0
 20
-132.50000000000009
 30
0.0
 11
-149.00000000000006
 21
-132.49999999999991
 31
0.0
  0
CIRCLE
  5
7B
100
AcDbEntity
100
AcDbCircle
  8
1 bottom
 62
256
370
-1
  6
ByLayer
 10
-161.49930836820505
 20
301.13684254453335
 30
0.0
 40
2.75
  0
CIRCLE
  5
7C
100
AcDbEntity
100
AcDbCircle
  8
1 bottom
 62
256
370
-1
  6
ByLayer
 10
-181.59930836820499
 20
314.13684254453335
 30
0.0
 40
2.75
  0
CIRCLE
  5
7D
100
AcDbEntity
100
AcDbCircle
  8
1 bottom
 62
256
370
-1
  6
ByLayer
 10
-141.399308368205
 20
314.13684254453335
 30
0.0
 40
2.75
  0
LINE
  5
7E
100
AcDbEntity
100
AcDbLine
  8
1 bottom
 62
256
370
-1
  6
ByLayer
 10
-154.72930836820507
 20
283.5068425445333
 30
0.0
 11
-157.46930836820505
 21
283.5068425445333
 31
0.0
  0
LINE
  5
7F
100
AcDbEntity
100
AcDbLine
  8
1 bottom
 62
256
370
-1
  6
ByLayer
 10
-154.72930836820507
 20
280.7668425445334
 30
0.0
 11
-154.72930836820507
 21
283.5068425445333
 31
0.0
  0
LINE
  5
80
100
AcDbEntity
100
AcDbLine
  8
1 bottom
 62
256
370
-1
  6
ByLayer
 10
-157.46930836820505
 20
283.5068425445333
 30
0.0
 11
-157.46930836820505
 21
280.76684254453335
 31
0.0
  0
LINE
  5
81
100
AcDbEntity
100
AcDbLine
  8
1 bottom
 62
256
370
-1
  6
ByLayer
 10
-157.46930836820505
 20
280.76684254453335
 30
0.0
 11
-154.72930836820507
 21
280.7668425445334
 31
0.0
  0
LINE
  5
82
100
AcDbEntity
100
AcDbLine
  8
1 bottom
 62
256
370
-1
  6
ByLayer
 10
-165.52930836820505
 20
283.5068425445333
 30
0.0
 11
-168.26930836820506
 21
283.5068425445333
 31
0.0
  0
LINE
  5
83
100
AcDbEntity
100
AcDbLine
  8
1 bottom
 62
256
370
-1
  6
ByLayer
 10
-165.52930836820508
 20
280.7668425445334
 30
0.0
 11
-165.52930836820505
 21
283.5068425445333
 31
0.0
  0
LINE
  5
84
100
AcDbEntity
100
AcDbLine
  8
1 bottom
 62
256
370
-1
  6
ByLayer
 10
-168.26930836820506
 20
283.5068425445333
 30
0.0
 11
-168.26930836820506
 21
280.7668425445334
 31
0.0
  0
LINE
  5
85
100
AcDbEntity
100
AcDbLine
  8
1 bottom
 62
256
370
-1
  6
ByLayer
 10
-168.26930836820506
 20
280.7668425445334
 30
0.0
 11
-165.52930836820508
 21
280.7668425445334
 31
0.0
  0
LINE
  5
86
100
AcDbEntity
100
AcDbLine
  8
1 bottom
 62
256
370
-1
  6
ByLayer
 10
-160.12930836820502
 20
315.5068425445333
 30
0.0
 11
-162.86930836820503
 21
315.5068425445333
 31
0.0
  0
LINE
  5
87
100
AcDbEntity
100
AcDbLine
  8
1 bottom
 62
256
370
-1
  6
ByLayer
 10
-160.12930836820505
 20
312.76684254453335
 30
0.0
 11
-160.12930836820502
 21
315.5068425445333
 31
0.0
  0
LINE
  5
88
100
AcDbEntity
100
AcDbLine
  8
1 bottom
 62
256
370
-1
  6
ByLayer
 10
-162.86930836820503
 20
315.5068425445333
 30
0.0
 11
-162.86930836820503
 21
312.76684254453335
 31
0.0
  0
LINE
  5
89
100
AcDbEntity
100
AcDbLine
  8
1 bottom
 62
256
370
-1
  6
ByLayer
 10
-162.86930836820503
 20
312.76684254453335
 30
0.0
 11
-160.12930836820505
 21
312.76684254453335
 31
0.0
  0
LINE
  5
8A
100
AcDbEntity
100
AcDbLine
  8
1 bottom
 62
256
370
-1
  6
ByLayer
 10
-154.72930836820504
 20
329.5068425445333
 30
0.0
 11
-157.46930836820502
 21
329.5068425445333
 31
0.0
  0
LINE
  5
8B
100
AcDbEntity
100
AcDbLine
  8
1 bottom
 62
256
370
-1
  6
ByLayer
 10
-154.72930836820504
 20
326.76684254453335
 30
0.0
 11
-154.72930836820504
 21
329.5068425445333
 31
0.0
  0
LINE
  5
8C
100
AcDbEntity
100
AcDbLine
  8
1 bottom
 62
256
370
-1
  6
ByLayer
 10
-157.46930836820502
 20
329.5068425445333
 30
0.0
 11
-157.46930836820502
 21
326.7668425445334
 31
0.0
  0
LINE
  5
8D
100
AcDbEntity
100
AcDbLine
  8
1 bottom
 62
256
370
-1
  6
ByLayer
 10
-157.46930836820502
 20
326.7668425445334
 30
0.0
 11
-154.72930836820504
 21
326.76684254453335
 31
0.0
  0
LINE
  5
8E
100
AcDbEntity
100
AcDbLine
  8
1 bottom
 62
256
370
-1
  6
ByLayer
 10
-165.52930836820502
 20
329.5068425445333
 30
0.0
 11
-168.26930836820503
 21
329.5068425445333
 31
0.0
  0
LINE
  5
8F
100
AcDbEntity
100
AcDbLine
  8
1 bottom
 62
256
370
-1
  6
ByLayer
 10
-165.52930836820502
 20
326.76684254453335
 30
0.0
 11
-165.52930836820502
 21
329.5068425445333
 31
0.0
  0
LINE
  5
90
100
AcDbEntity
100
AcDbLine
  8
1 bottom
 62
256
370
-1
  6
ByLayer
 10
-168.26930836820503
 20
329.5068425445333
 30
0.0
 11
-168.26930836820503
 21
326.76684254453335
 31
0.0
  0
LINE
  5
91
100
AcDbEntity
100
AcDbLine
  8
1 bottom
 62
256
370
-1
  6
ByLayer
 10
-168.26930836820503
 20
326.76684254453335
 30
0.0
 11
-165.52930836820502
 21
326.76684254453335
 31
0.0
  0
INSERT
  5
92
100
AcDbEntity
100
AcDbBlockReference
  8
1 bottom
 62
256
370
-1
  6
ByLayer
  2
holes-20
 10
-178.49930577302217
 20
351.13684254453335
 30
0.0
 50
360.0
 44
1.0
 45
1.0
  0
CIRCLE
  5
93
100
AcDbEntity
100
AcDbCircle
  8
1 bottom
 62
256
370
-1
  6
ByLayer
 10
-146.459308368205
 20
314.17684254453332
 30
0.0
 40
2.7000000000000002
  0
CIRCLE
  5
94
100
AcDbEntity
100
AcDbCircle
  8
1 bottom
 62
256
370
-1
  6
ByLayer
 10
-161.459308368205
 20
299.17684254453332
 30
0.0
 40
2.7000000000000002
  0
CIRCLE
  5
95
100
AcDbEntity
100
AcDbCircle
  8
1 bottom
 62
256
370
-1
  6
ByLayer
 10
-176.459308368205
 20
314.17684254453332
 30
0.0
 40
2.7000000000000002
  0
INSERT
  5
96
100
AcDbEntity
100
AcDbBlockReference
  8
1 bottom
 62
256
370
-1
  6
ByLayer
  2
holes-20
 10
-178.4993057730222
 20
259.21304254453344
 30
0.0
 50
360.0
 44
1.0
 45
1.0
  0
INSERT
  5
97
100
AcDbEntity
100
AcDbBlockReference
  8
1 bottom
 62
256
370
-1
  6
ByLayer
  2
holes-20
 10
-144.49930836820496
 20
351.13684254453335
 30
0.0
 50
360.0
 44
1.0
 45
1.0
  0
INSERT
  5
98
100
AcDbEntity
100
AcDbBlockReference
  8
1 bottom
 62
256
370
-1
  6
ByLayer
  2
holes-20
 10
-144.49930836820505
 20
259.21304254453338
 30
0.0
 50
360.0
 44
1.0
 45
1.0
  0
LINE
  5
99
100
AcDbEntity
100
AcDbLine
  8
1 bottom
 62
256
370
-1
  6
ByLayer
 10
-129.49930836820505
 20
255.17474254453344
 30
0.0
 11
-193.49930836820499
 21
255.17474254453353
 31
0.0
  0
LINE
  5
9A
100
AcDbEntity
100
AcDbLine
  8
1 bottom
 62
256
370
-1
  6
ByLayer
 10
-193.49930836820496
 20
255.17474254453344
 30
0.0
 11
-193.49930836820491
 21
355.17474254453344
 31
0.0
  0
LINE
  5
9B
100
AcDbEntity
100
AcDbLine
  8
1 bottom
 62
256
370
-1
  6
ByLayer
 10
-129.49930836820496
 20
355.17474254453339
 30
0.0
 11
-129.49930836820505
 21
255.17474254453344
 31
0.0
  0
LINE
  5
9C
100
AcDbEntity
100
AcDbLine
  8
1 bottom
 62
256
370
-1
  6
ByLayer
 10
-169.49930836820499
 20
355.17474254453344
 30
0.0
 11
-129.49930836820496
 21
355.17474254453339
 31
0.0
  0
ARC
  5
9D
100
AcDbEntity
  8
1 bottom
 62
256
370
-1
  6
ByLayer
100
AcDbCircle
 10
-171.49930836820496
 20
360.23854254453335
 30
0.0
 40
2.0
100
AcDbArc
 50
0.0
 51
90.0
  0
LINE
  5
9E
100
AcDbEntity
100
AcDbLine
  8
1 bottom
 62
256
370
-1
  6
ByLayer
 10
-169.49930836820496
 20
360.23854254453335
 30
0.0
 11
-169.49930836820496
 21
355.17474254453339
 31
0.0
  0
ARC
  5
9F
100
AcDbEntity
  8
1 bottom
 62
256
370
-1
  6
ByLayer
100
AcDbCircle
 10
-180.46120836820498
 20
360.23854254453335
 30
0.0
 40
2.0
100
AcDbArc
 50
90.0
 51
180.0
  0
LINE
  5
A0
100
AcDbEntity
100
AcDbLine
  8
1 bottom
 62
256
370
-1
  6
ByLayer
 10
-182.46120836820498
 20
355.17474254453344
 30
0.0
 11
-182.46120836820498
 21
360.23854254453335
 31
0.0
  0
LINE
  5
A1
100
AcDbEntity
100
AcDbLine
  8
1 bottom
 62
256
370
-1
  6
ByLayer
 10
-193.49930836820491
 20
355.17474254453344
 30
0.0
 11
-182.46120836820498
 21
355.17474254453344
 31
0.0
  0
LINE
  5
A2
100
AcDbEntity
100
AcDbLine
  8
1 bottom
 62
256
370
-1
  6
ByLayer
 10
-180.46120836820498
 20
362.23854254453335
 30
0.0
 11
-171.49930836820496
 21
362.23854254453335
 31
0.0
  0
CIRCLE
  5
A3
100
AcDbEntity
100
AcDbCircle
  8
1 bottom
 62
256
370
-1
  6
ByLayer
 10
-175.98025836820483
 20
358.77664254453327
 30
0.0
 40
1.5600000000000307
  0
CIRCLE
  5
A4
100
AcDbEntity
100
AcDbCircle
  8
1 bottom
 62
256
370
-1
  6
ByLayer
 10
-175.98025836820489
 20
358.77664254453339
 30
0.0
 40
1.5600000000000307
  0
CIRCLE
  5
A5
100
AcDbEntity
100
AcDbCircle
  8
2 top
 62
256
370
-1
  6
ByLayer
 10
-113.13417870181975
 20
351.13664254453329
 30
0.0
 40
1.5
  0
LINE
  5
A6
100
AcDbEntity
100
AcDbLine
  8
2 top
 62
256
370
-1
  6
ByLayer
 10
-108.13417870181975
 20
353.63664254453334
 30
0.0
 11
-108.13417870181976
 21
348.63664254453329
 31
0.0
  0
CIRCLE
  5
A7
100
AcDbEntity
100
AcDbCircle
  8
2 top
 62
256
370
-1
  6
ByLayer
 10
-21.210378701819735
 20
351.13664254453329
 30
0.0
 40
1.5
  0
CIRCLE
  5
A8
100
AcDbEntity
100
AcDbCircle
  8
2 top
 62
256
370
-1
  6
ByLayer
 10
-113.13417870181988
 20
259.21284254453337
 30
0.0
 40
1.5
  0
CIRCLE
  5
A9
100
AcDbEntity
100
AcDbCircle
  8
2 top
 62
256
370
-1
  6
ByLayer
 10
-21.210378701819813
 20
259.21284254453326
 30
0.0
 40
1.5
  0
LINE
  5
AA
100
AcDbEntity
100
AcDbLine
  8
2 top
 62
256
370
-1
  6
ByLayer
 10
-88.134178701819764
 20
353.63664254453329
 30
0.0
 11
-108.13417870181975
 21
353.63664254453334
 31
0.0
  0
LINE
  5
AB
100
AcDbEntity
100
AcDbLine
  8
2 top
 62
256
370
-1
  6
ByLayer
 10
-88.134178701819764
 20
353.63664254453329
 30
0.0
 11
-88.134178701819764
 21
348.63664254453329
 31
0.0
  0
LINE
  5
AC
100
AcDbEntity
100
AcDbLine
  8
2 top
 62
256
370
-1
  6
ByLayer
 10
-108.13417870181976
 20
348.63664254453329
 30
0.0
 11
-88.134178701819764
 21
348.63664254453329
 31
0.0
  0
LINE
  5
AD
100
AcDbEntity
100
AcDbLine
  8
2 top
 62
256
370
-1
  6
ByLayer
 10
-108.13417870181985
 20
261.71284254453337
 30
0.0
 11
-108.13417870181985
 21
256.71284254453337
 31
0.0
  0
LINE
  5
AE
100
AcDbEntity
100
AcDbLine
  8
2 top
 62
256
370
-1
  6
ByLayer
 10
-88.134178701819835
 20
261.71284254453332
 30
0.0
 11
-108.13417870181985
 21
261.71284254453337
 31
0.0
  0
LINE
  5
AF
100
AcDbEntity
100
AcDbLine
  8
2 top
 62
256
370
-1
  6
ByLayer
 10
-88.134178701819835
 20
261.71284254453332
 30
0.0
 11
-88.134178701819877
 21
256.71284254453332
 31
0.0
  0
LINE
  5
B0
100
AcDbEntity
100
AcDbLine
  8
2 top
 62
256
370
-1
  6
ByLayer
 10
-108.13417870181985
 20
256.71284254453337
 30
0.0
 11
-88.134178701819877
 21
256.71284254453332
 31
0.0
  0
LINE
  5
B1
100
AcDbEntity
100
AcDbLine
  8
2 top
 62
256
370
-1
  6
ByLayer
 10
-17.172278701819792
 20
255.17474254453344
 30
0.0
 11
-117.17227870181981
 21
255.17474254453356
 31
0.0
  0
LINE
  5
B2
100
AcDbEntity
100
AcDbLine
  8
2 top
 62
256
370
-1
  6
ByLayer
 10
-117.17227870181981
 20
255.17474254453344
 30
0.0
 11
-117.17227870181978
 21
355.17474254453344
 31
0.0
  0
LINE
  5
B3
100
AcDbEntity
100
AcDbLine
  8
2 top
 62
256
370
-1
  6
ByLayer
 10
-17.172278701819764
 20
355.17474254453339
 30
0.0
 11
-17.172278701819792
 21
255.17474254453344
 31
0.0
  0
LINE
  5
B4
100
AcDbEntity
100
AcDbLine
  8
2 top
 62
256
370
-1
  6
ByLayer
 10
-75.172278701819778
 20
353.63664254453329
 30
0.0
 11
-75.172278701819778
 21
348.63664254453329
 31
0.0
  0
LINE
  5
B5
100
AcDbEntity
100
AcDbLine
  8
2 top
 62
256
370
-1
  6
ByLayer
 10
-75.172278701819849
 20
261.71284254453332
 30
0.0
 11
-75.172278701819863
 21
256.71284254453332
 31
0.0
  0
CIRCLE
  5
B6
100
AcDbEntity
100
AcDbCircle
  8
2 top
 62
256
370
-1
  6
ByLayer
 10
-67.172278701819792
 20
301.13664254453329
 30
0.0
 40
1.5
  0
LINE
  5
B7
100
AcDbEntity
100
AcDbLine
  8
2 top
 62
256
370
-1
  6
ByLayer
 10
-26.172278701819799
 20
355.17474254453339
 30
0.0
 11
-26.172278701819799
 21
346.17474254453333
 31
0.0
  0
LINE
  5
B8
100
AcDbEntity
100
AcDbLine
  8
2 top
 62
256
370
-1
  6
ByLayer
 10
-26.172278701819799
 20
346.17474254453333
 30
0.0
 11
-55.172278701819785
 21
346.17474254453333
 31
0.0
  0
LINE
  5
B9
100
AcDbEntity
100
AcDbLine
  8
2 top
 62
256
370
-1
  6
ByLayer
 10
-55.172278701819785
 20
346.17474254453333
 30
0.0
 11
-55.172278701819792
 21
355.17474254453339
 31
0.0
  0
LINE
  5
BA
100
AcDbEntity
100
AcDbLine
  8
2 top
 62
256
370
-1
  6
ByLayer
 10
-26.172278701819799
 20
355.17474254453339
 30
0.0
 11
-17.172278701819728
 21
355.17474254453339
 31
0.0
  0
LINE
  5
BB
100
AcDbEntity
100
AcDbLine
  8
2 top
 62
256
370
-1
  6
ByLayer
 10
-75.172278701819778
 20
355.17474254453339
 30
0.0
 11
-55.172278701819792
 21
355.17474254453339
 31
0.0
  0
LINE
  5
BC
100
AcDbEntity
100
AcDbLine
  8
2 top
 62
256
370
-1
  6
ByLayer
 10
-65.172278701819778
 20
353.63664254453329
 30
0.0
 11
-65.172278701819778
 21
348.63664254453329
 31
0.0
  0
LINE
  5
BD
100
AcDbEntity
100
AcDbLine
  8
2 top
 62
256
370
-1
  6
ByLayer
 10
-65.172278701819863
 20
261.71284254453332
 30
0.0
 11
-65.172278701819835
 21
256.71284254453326
 31
0.0
  0
LINE
  5
BE
100
AcDbEntity
100
AcDbLine
  8
2 top
 62
256
370
-1
  6
ByLayer
 10
-75.172278701819778
 20
348.63664254453329
 30
0.0
 11
-65.172278701819778
 21
348.63664254453329
 31
0.0
  0
LINE
  5
BF
100
AcDbEntity
100
AcDbLine
  8
2 top
 62
256
370
-1
  6
ByLayer
 10
-65.172278701819778
 20
353.63664254453329
 30
0.0
 11
-75.172278701819778
 21
353.63664254453329
 31
0.0
  0
LINE
  5
C0
100
AcDbEntity
100
AcDbLine
  8
2 top
 62
256
370
-1
  6
ByLayer
 10
-65.172278701819863
 20
261.71284254453332
 30
0.0
 11
-75.172278701819849
 21
261.71284254453332
 31
0.0
  0
LINE
  5
C1
100
AcDbEntity
100
AcDbLine
  8
2 top
 62
256
370
-1
  6
ByLayer
 10
-75.172278701819863
 20
256.71284254453332
 30
0.0
 11
-65.172278701819835
 21
256.71284254453326
 31
0.0
  0
ARC
  5
C2
100
AcDbEntity
  8
2 top
 62
256
370
-1
  6
ByLayer
100
AcDbCircle
 10
-77.172278701819792
 20
360.23854254453335
 30
0.0
 40
2.0
100
AcDbArc
 50
0.0
 51
90.0
  0
LINE
  5
C3
100
AcDbEntity
100
AcDbLine
  8
2 top
 62
256
370
-1
  6
ByLayer
 10
-75.172278701819792
 20
360.23854254453335
 30
0.0
 11
-75.172278701819778
 21
355.17474254453339
 31
0.0
  0
ARC
  5
C4
100
AcDbEntity
  8
2 top
 62
256
370
-1
  6
ByLayer
100
AcDbCircle
 10
-86.134178701819806
 20
360.23854254453335
 30
0.0
 40
2.0
100
AcDbArc
 50
90.0
 51
180.0
  0
LINE
  5
C5
100
AcDbEntity
100
AcDbLine
  8
2 top
 62
256
370
-1
  6
ByLayer
 10
-88.134178701819806
 20
355.17474254453344
 30
0.0
 11
-88.134178701819806
 21
360.23854254453335
 31
0.0
  0
LINE
  5
C6
100
AcDbEntity
100
AcDbLine
  8
2 top
 62
256
370
-1
  6
ByLayer
 10
-86.134178701819806
 20
362.23854254453335
 30
0.0
 11
-77.172278701819792
 21
362.23854254453335
 31
0.0
  0
LINE
  5
C7
100
AcDbEntity
100
AcDbLine
  8
2 top
 62
256
370
-1
  6
ByLayer
 10
-117.17227870181974
 20
355.17474254453344
 30
0.0
 11
-88.134178701819792
 21
355.17474254453344
 31
0.0
  0
CIRCLE
  5
C8
100
AcDbEntity
100
AcDbCircle
  8
2 top
 62
256
370
-1
  6
ByLayer
 10
-81.653228701819671
 20
358.77664254453333
 30
0.0
 40
2.3999999999999999
  0
CIRCLE
  5
C9
100
AcDbEntity
100
AcDbCircle
  8
3 side
 62
256
370
-1
  6
ByLayer
 10
-63.379473764906074
 20
212.46702062058537
 30
0.0
 40
1.5
  0
LINE
  5
CA
100
AcDbEntity
100
AcDbLine
  8
3 side
 62
256
370
-1
  6
ByLayer
 10
-162.34137376490611
 20
220.717040604922
 30
0.0
 11
-162.34137376490611
 21
225.217040604922
 31
0.0
  0
ARC
  5
CB
100
AcDbEntity
  8
3 side
 62
256
370
-1
  6
ByLayer
100
AcDbCircle
 10
-161.84137376490611
 20
225.217040604922
 30
0.0
 40
0.5
100
AcDbArc
 50
90.000000000000014
 51
180.0
  0
ARC
  5
CC
100
AcDbEntity
  8
3 side
 62
256
370
-1
  6
ByLayer
100
AcDbCircle
 10
-142.84137376490611
 20
225.217040604922
 30
0.0
 40
0.5
100
AcDbArc
 50
0.0
 51
90.000000000000014
  0
ARC
  5
CD
100
AcDbEntity
  8
3 side
 62
256
370
-1
  6
ByLayer
100
AcDbCircle
 10
-128.87947376490609
 20
225.217040604922
 30
0.0
 40
0.5
100
AcDbArc
 50
90.000000000000014
 51
180.0
  0
LINE
  5
CE
100
AcDbEntity
100
AcDbLine
  8
3 side
 62
256
370
-1
  6
ByLayer
 10
-171.37947376490604
 20
228.21702062058523
 30
0.0
 11
-171.37947376490607
 21
220.71704060492198
 31
0.0
  0
LINE
  5
CF
100
AcDbEntity
100
AcDbLine
  8
3 side
 62
256
370
-1
  6
ByLayer
 10
-171.37947376490607
 20
220.71704060492198
 30
0.0
 11
-169.34137376490614
 21
220.717040604922
 31
0.0
  0
LINE
  5
D0
100
AcDbEntity
100
AcDbLine
  8
3 side
 62
256
370
-1
  6
ByLayer
 10
-165.34137376490614
 20
220.717040604922
 30
0.0
 11
-162.34137376490611
 21
220.717040604922
 31
0.0
  0
ARC
  5
D1
100
AcDbEntity
  8
3 side
 62
256
370
-1
  6
ByLayer
100
AcDbCircle
 10
-169.34137376490614
 20
220.21704060492203
 30
0.0
 40
0.5
100
AcDbArc
 50
0.0
 51
89.999999999999957
  0
ARC
  5
D2
100
AcDbEntity
  8
3 side
 62
256
370
-1
  6
ByLayer
100
AcDbCircle
 10
-165.34137376490614
 20
220.217040604922
 30
0.0
 40
0.5
100
AcDbArc
 50
90.000000000000057
 51
180.0
  0
ARC
  5
D3
100
AcDbEntity
  8
3 side
 62
256
370
-1
  6
ByLayer
100
AcDbCircle
 10
-77.417573764906081
 20
220.217040604922
 30
0.0
 40
0.5
100
AcDbArc
 50
0.0
 51
89.999999999999957
  0
ARC
  5
D4
100
AcDbEntity
  8
3 side
 62
256
370
-1
  6
ByLayer
100
AcDbCircle
 10
-73.417573764906081
 20
220.217040604922
 30
0.0
 40
0.5
100
AcDbArc
 50
90.000000000000057
 51
180.0
  0
INSERT
  5
D5
100
AcDbEntity
100
AcDbBlockReference
  8
3 side
 62
256
370
-1
  6
ByLayer
  2
tabs-with-bolt-20
 10
-138.37947116972327
 20
196.96702062058523
 30
0.0
 44
1.0
 45
1.0
  0
LINE
  5
D6
100
AcDbEntity
100
AcDbLine
  8
3 side
 62
256
370
-1
  6
ByLayer
 10
-153.37947376490609
 20
196.96702062058523
 30
0.0
 11
-153.37947376490607
 21
191.96702062058523
 31
0.0
  0
LINE
  5
D7
100
AcDbEntity
100
AcDbLine
  8
3 side
 62
256
370
-1
  6
ByLayer
 10
-153.37947376490607
 20
196.96702062058523
 30
0.0
 11
-148.37947116972327
 21
196.96702062058523
 31
0.0
  0
INSERT
  5
D8
100
AcDbEntity
100
AcDbBlockReference
  8
3 side
 62
256
370
-1
  6
ByLayer
  2
tabs-with-bolt-20
 10
-104.37947376490608
 20
196.96702062058523
 30
0.0
 44
1.0
 45
1.0
  0
LINE
  5
D9
100
AcDbEntity
100
AcDbLine
  8
3 side
 62
256
370
-1
  6
ByLayer
 10
-128.37947116972327
 20
196.96702062058523
 30
0.0
 11
-114.37947376490609
 21
196.96702062058523
 31
0.0
  0
LINE
  5
DA
100
AcDbEntity
100
AcDbLine
  8
3 side
 62
256
370
-1
  6
ByLayer
 10
-89.379473764906095
 20
196.9670206205852
 30
0.0
 11
-89.379473764906081
 21
191.96702062058523
 31
0.0
  0
LINE
  5
DB
100
AcDbEntity
100
AcDbLine
  8
3 side
 62
256
370
-1
  6
ByLayer
 10
-94.379473764906081
 20
196.96702062058523
 30
0.0
 11
-89.379473764906095
 21
196.9670206205852
 31
0.0
  0
LINE
  5
DC
100
AcDbEntity
100
AcDbLine
  8
3 side
 62
256
370
-1
  6
ByLayer
 10
-94.379473764906081
 20
201.06702062058523
 30
0.0
 11
-94.379473764906081
 21
201.06702062058523
 31
0.0
  0
LINE
  5
DD
100
AcDbEntity
100
AcDbLine
  8
3 side
 62
256
370
-1
  6
ByLayer
 10
-94.379473764906081
 20
201.06702062058523
 30
0.0
 11
-88.379473764906081
 21
201.06702062058523
 31
0.0
  0
CIRCLE
  5
DE
100
AcDbEntity
100
AcDbCircle
  8
3 side
 62
256
370
-1
  6
ByLayer
 10
-91.379473764906081
 20
206.06702062058525
 30
0.0
 40
1.5
  0
LINE
  5
DF
100
AcDbEntity
100
AcDbLine
  8
3 side
 62
256
370
-1
  6
ByLayer
 10
-94.379473764906081
 20
204.56702062058523
 30
0.0
 11
-94.379473764906081
 21
201.06702062058523
 31
0.0
  0
LINE
  5
E0
100
AcDbEntity
100
AcDbLine
  8
3 side
 62
256
370
-1
  6
ByLayer
 10
-88.379473764906081
 20
201.06702062058523
 30
0.0
 11
-88.379473764906081
 21
204.56702062058523
 31
0.0
  0
LINE
  5
E1
100
AcDbEntity
100
AcDbLine
  8
3 side
 62
256
370
-1
  6
ByLayer
 10
-88.379473764906081
 20
204.56702062058523
 30
0.0
 11
-91.379473764906081
 21
204.56702062058525
 31
0.0
  0
LINE
  5
E2
100
AcDbEntity
100
AcDbLine
  8
3 side
 62
256
370
-1
  6
ByLayer
 10
-91.379473764906081
 20
204.56702062058525
 30
0.0
 11
-91.379473764906081
 21
204.56702062058525
 31
0.0
  0
LINE
  5
E3
100
AcDbEntity
100
AcDbLine
  8
3 side
 62
256
370
-1
  6
ByLayer
 10
-91.379473764906081
 20
204.56702062058525
 30
0.0
 11
-91.379473764906081
 21
204.56702062058525
 31
0.0
  0
LINE
  5
E4
100
AcDbEntity
100
AcDbLine
  8
3 side
 62
256
370
-1
  6
ByLayer
 10
-91.379473764906081
 20
204.56702062058525
 30
0.0
 11
-94.379473764906081
 21
204.56702062058523
 31
0.0
  0
ARC
  5
E5
100
AcDbEntity
  8
3 side
 62
256
370
-1
  6
ByLayer
100
AcDbCircle
 10
-63.379473764906081
 20
199.9670206205852
 30
0.0
 40
7.9999999999999982
100
AcDbArc
 50
270.0
 51
0.0
  0
CIRCLE
  5
E6
100
AcDbEntity
100
AcDbCircle
  8
3 side
 62
256
370
-1
  6
ByLayer
 10
-63.379473764906081
 20
199.9670206205852
 30
0.0
 40
1.5
  0
LINE
  5
E7
100
AcDbEntity
100
AcDbLine
  8
3 side
 62
256
370
-1
  6
ByLayer
 10
-89.379473764906081
 20
191.96702062058523
 30
0.0
 11
-63.379473764906088
 21
191.96702062058523
 31
0.0
  0
ARC
  5
E8
100
AcDbEntity
  8
3 side
 62
256
370
-1
  6
ByLayer
100
AcDbCircle
 10
-177.27949564105273
 20
222.4670206205852
 30
0.0
 40
3.1649999999999983
100
AcDbArc
 50
225.00002412791815
 51
44.999992536536105
  0
ARC
  5
E9
100
AcDbEntity
  8
3 side
 62
256
370
-1
  6
ByLayer
100
AcDbCircle
 10
-175.04150531590921
 20
224.70501622034945
 30
0.0
 40
3.5120044002357957
100
AcDbArc
 50
90.0
 51
134.99999999996564
  0
LINE
  5
EA
100
AcDbEntity
100
AcDbLine
  8
3 side
 62
256
370
-1
  6
ByLayer
 10
-175.04150238596372
 20
224.70501329040704
 30
0.0
 11
-177.52486744287137
 21
227.18837834731471
 31
0.0
  0
CIRCLE
  5
EB
100
AcDbEntity
100
AcDbCircle
  8
3 side
 62
256
370
-1
  6
ByLayer
 10
-164.88057363997771
 20
204.46702062058526
 30
0.0
 40
1.5
  0
CIRCLE
  5
EC
100
AcDbEntity
100
AcDbCircle
  8
3 side
 62
256
370
-1
  6
ByLayer
 10
-181.88057363997771
 20
204.46702062058523
 30
0.0
 40
1.5
  0
ARC
  5
ED
100
AcDbEntity
  8
3 side
 62
256
370
-1
  6
ByLayer
100
AcDbCircle
 10
-173.38057363997771
 20
204.4670206205852
 30
0.0
 40
3.4999999999999987
100
AcDbArc
 50
306.86989764584405
 51
233.13010235415592
  0
CIRCLE
  5
EE
100
AcDbEntity
100
AcDbCircle
  8
3 side
 62
256
370
-1
  6
ByLayer
 10
-178.88057363997771
 20
204.46702062058529
 30
0.0
 40
1.5
  0
CIRCLE
  5
EF
100
AcDbEntity
100
AcDbCircle
  8
3 side
 62
256
370
-1
  6
ByLayer
 10
-167.88057363997771
 20
204.46702062058526
 30
0.0
 40
1.5
  0
ARC
  5
F0
100
AcDbEntity
  8
3 side
 62
256
370
-1
  6
ByLayer
100
AcDbCircle
 10
-177.27947363997771
 20
199.96702062058526
 30
0.0
 40
8.0
100
AcDbArc
 50
225.0
 51
270.0
  0
LINE
  5
F1
100
AcDbEntity
100
AcDbLine
  8
3 side
 62
256
370
-1
  6
ByLayer
 10
-177.27947363997771
 20
191.96702062058526
 30
0.0
 11
-175.48057363997773
 21
191.96702062058526
 31
0.0
  0
LINE
  5
F2
100
AcDbEntity
100
AcDbLine
  8
3 side
 62
256
370
-1
  6
ByLayer
 10
-171.28057363997772
 20
201.66702062058525
 30
0.0
 11
-171.28057363997772
 21
191.96702062058526
 31
0.0
  0
LINE
  5
F3
100
AcDbEntity
100
AcDbLine
  8
3 side
 62
256
370
-1
  6
ByLayer
 10
-175.48057363997771
 20
201.66702062058525
 30
0.0
 11
-175.48057363997773
 21
191.96702062058526
 31
0.0
  0
LINE
  5
F4
100
AcDbEntity
100
AcDbLine
  8
3 side
 62
256
370
-1
  6
ByLayer
 10
-181.69715877480769
 20
219.91648162112276
 30
0.0
 11
-179.19715877480766
 21
215.58635460220057
 31
0.0
  0
LINE
  5
F5
100
AcDbEntity
100
AcDbLine
  8
3 side
 62
256
370
-1
  6
ByLayer
 10
-196.51766685049643
 20
205.58635460220054
 30
0.0
 11
-182.93632788947011
 21
194.31016637109286
 31
0.0
  0
LINE
  5
F6
100
AcDbEntity
100
AcDbLine
  8
3 side
 62
256
370
-1
  6
ByLayer
 10
-181.69715877480769
 20
219.91648162112276
 30
0.0
 11
-179.51748831278098
 21
220.22902736740264
 31
0.0
  0
LINE
  5
F7
100
AcDbEntity
100
AcDbLine
  8
3 side
 62
256
370
-1
  6
ByLayer
 10
-171.37947376490604
 20
228.21702062058523
 30
0.0
 11
-175.04150531590921
 21
228.21702062058523
 31
0.0
  0
LINE
  5
F8
100
AcDbEntity
100
AcDbLine
  8
3 side
 62
256
370
-1
  6
ByLayer
 10
-171.28057363997772
 20
191.96702062058526
 30
0.0
 11
-153.37947376490607
 21
191.96702062058523
 31
0.0
  0
LINE
  5
F9
100
AcDbEntity
100
AcDbLine
  8
3 side
 62
256
370
-1
  6
ByLayer
 10
-161.84137376490611
 20
225.71704060492203
 30
0.0
 11
-142.84137376490614
 21
225.717040604922
 31
0.0
  0
LINE
  5
FA
100
AcDbEntity
100
AcDbLine
  8
3 side
 62
256
370
-1
  6
ByLayer
 10
-168.84137376490614
 20
216.1137224925381
 30
0.0
 11
-165.84137376490614
 21
216.11372249253807
 31
0.0
  0
LINE
  5
FB
100
AcDbEntity
100
AcDbLine
  8
3 side
 62
256
370
-1
  6
ByLayer
 10
-170.20137376490612
 20
219.28372249253812
 30
0.0
 11
-170.20137376490612
 21
217.1137224925381
 31
0.0
  0
LINE
  5
FC
100
AcDbEntity
100
AcDbLine
  8
3 side
 62
256
370
-1
  6
ByLayer
 10
-164.48137376490615
 20
217.1137224925381
 30
0.0
 11
-164.48137376490615
 21
219.28372249253809
 31
0.0
  0
LINE
  5
FD
100
AcDbEntity
100
AcDbLine
  8
3 side
 62
256
370
-1
  6
ByLayer
 10
-168.84137376490614
 20
219.28372249253806
 30
0.0
 11
-170.20137376490612
 21
219.28372249253812
 31
0.0
  0
LINE
  5
FE
100
AcDbEntity
100
AcDbLine
  8
3 side
 62
256
370
-1
  6
ByLayer
 10
-164.48137376490615
 20
219.28372249253809
 30
0.0
 11
-165.84137376490614
 21
219.28372249253809
 31
0.0
  0
LINE
  5
FF
100
AcDbEntity
100
AcDbLine
  8
3 side
 62
256
370
-1
  6
ByLayer
 10
-165.84137376490614
 20
216.11372249253807
 30
0.0
 11
-165.84137376490614
 21
217.1137224925381
 31
0.0
  0
LINE
  5
100
100
AcDbEntity
100
AcDbLine
  8
3 side
 62
256
370
-1
  6
ByLayer
 10
-165.84137376490614
 20
217.1137224925381
 30
0.0
 11
-164.48137376490615
 21
217.1137224925381
 31
0.0
  0
LINE
  5
101
100
AcDbEntity
100
AcDbLine
  8
3 side
 62
256
370
-1
  6
ByLayer
 10
-170.20137376490612
 20
217.1137224925381
 30
0.0
 11
-168.84137376490614
 21
217.1137224925381
 31
0.0
  0
LINE
  5
102
100
AcDbEntity
100
AcDbLine
  8
3 side
 62
256
370
-1
  6
ByLayer
 10
-168.84137376490614
 20
217.1137224925381
 30
0.0
 11
-168.84137376490614
 21
216.1137224925381
 31
0.0
  0
LINE
  5
103
100
AcDbEntity
100
AcDbLine
  8
3 side
 62
256
370
-1
  6
ByLayer
 10
-76.917573764906081
 20
216.11372249253813
 30
0.0
 11
-73.917573764906081
 21
216.1137224925381
 31
0.0
  0
LINE
  5
104
100
AcDbEntity
100
AcDbLine
  8
3 side
 62
256
370
-1
  6
ByLayer
 10
-78.277573764906066
 20
219.28372249253806
 30
0.0
 11
-78.277573764906066
 21
217.11372249253813
 31
0.0
  0
LINE
  5
105
100
AcDbEntity
100
AcDbLine
  8
3 side
 62
256
370
-1
  6
ByLayer
 10
-72.557573764906081
 20
217.11372249253807
 30
0.0
 11
-72.557573764906081
 21
219.28372249253809
 31
0.0
  0
LINE
  5
106
100
AcDbEntity
100
AcDbLine
  8
3 side
 62
256
370
-1
  6
ByLayer
 10
-76.917573764906081
 20
219.28372249253809
 30
0.0
 11
-78.277573764906066
 21
219.28372249253806
 31
0.0
  0
LINE
  5
107
100
AcDbEntity
100
AcDbLine
  8
3 side
 62
256
370
-1
  6
ByLayer
 10
-72.557573764906081
 20
219.28372249253809
 30
0.0
 11
-73.917573764906081
 21
219.28372249253809
 31
0.0
  0
LINE
  5
108
100
AcDbEntity
100
AcDbLine
  8
3 side
 62
256
370
-1
  6
ByLayer
 10
-73.917573764906081
 20
216.1137224925381
 30
0.0
 11
-73.917573764906081
 21
217.1137224925381
 31
0.0
  0
LINE
  5
109
100
AcDbEntity
100
AcDbLine
  8
3 side
 62
256
370
-1
  6
ByLayer
 10
-73.917573764906081
 20
217.1137224925381
 30
0.0
 11
-72.557573764906081
 21
217.11372249253807
 31
0.0
  0
LINE
  5
10A
100
AcDbEntity
100
AcDbLine
  8
3 side
 62
256
370
-1
  6
ByLayer
 10
-78.277573764906066
 20
217.11372249253813
 30
0.0
 11
-76.917573764906081
 21
217.11372249253807
 31
0.0
  0
LINE
  5
10B
100
AcDbEntity
100
AcDbLine
  8
3 side
 62
256
370
-1
  6
ByLayer
 10
-76.917573764906081
 20
217.11372249253807
 30
0.0
 11
-76.917573764906081
 21
216.11372249253813
 31
0.0
  0
LINE
  5
10C
100
AcDbEntity
100
AcDbLine
  8
3 side
 62
256
370
-1
  6
ByLayer
 10
-168.84137376490614
 20
220.217040604922
 30
0.0
 11
-168.84137376490614
 21
219.28372249253806
 31
0.0
  0
LINE
  5
10D
100
AcDbEntity
100
AcDbLine
  8
3 side
 62
256
370
-1
  6
ByLayer
 10
-165.84137376490614
 20
219.28372249253809
 30
0.0
 11
-165.84137376490614
 21
220.21704060492198
 31
0.0
  0
LINE
  5
10E
100
AcDbEntity
100
AcDbLine
  8
3 side
 62
256
370
-1
  6
ByLayer
 10
-76.917573764906081
 20
220.21704060492203
 30
0.0
 11
-76.917573764906081
 21
219.28372249253809
 31
0.0
  0
LINE
  5
10F
100
AcDbEntity
100
AcDbLine
  8
3 side
 62
256
370
-1
  6
ByLayer
 10
-73.917573764906081
 20
219.28372249253809
 30
0.0
 11
-73.917573764906081
 21
220.21704060492203
 31
0.0
  0
LINE
  5
110
100
AcDbEntity
100
AcDbLine
  8
3 side
 62
256
370
-1
  6
ByLayer
 10
-119.37947376490611
 20
220.717040604922
 30
0.0
 11
-119.37947376490611
 21
225.217040604922
 31
0.0
  0
ARC
  5
111
100
AcDbEntity
  8
3 side
 62
256
370
-1
  6
ByLayer
100
AcDbCircle
 10
-119.87947376490611
 20
225.217040604922
 30
0.0
 40
0.5
100
AcDbArc
 50
0.0
 51
90.000000000000014
  0
LINE
  5
112
100
AcDbEntity
100
AcDbLine
  8
3 side
 62
256
370
-1
  6
ByLayer
 10
-119.87947376490611
 20
225.717040604922
 30
0.0
 11
-128.87947376490609
 21
225.717040604922
 31
0.0
  0
LINE
  5
113
100
AcDbEntity
100
AcDbLine
  8
3 side
 62
256
370
-1
  6
ByLayer
 10
-77.417573764906081
 20
220.717040604922
 30
0.0
 11
-119.37947376490611
 21
220.717040604922
 31
0.0
  0
LINE
  5
114
100
AcDbEntity
100
AcDbLine
  8
3 side
 62
256
370
-1
  6
ByLayer
 10
-142.34137376490611
 20
225.217040604922
 30
0.0
 11
-142.34137376490611
 21
215.717040604922
 31
0.0
  0
LINE
  5
115
100
AcDbEntity
100
AcDbLine
  8
3 side
 62
256
370
-1
  6
ByLayer
 10
-142.34137376490611
 20
215.717040604922
 30
0.0
 11
-129.37947376490609
 21
215.717040604922
 31
0.0
  0
LINE
  5
116
100
AcDbEntity
100
AcDbLine
  8
3 side
 62
256
370
-1
  6
ByLayer
 10
-129.37947376490609
 20
225.217040604922
 30
0.0
 11
-129.37947376490609
 21
215.717040604922
 31
0.0
  0
CIRCLE
  5
117
100
AcDbEntity
100
AcDbCircle
  8
3 side
 62
256
370
-1
  6
ByLayer
 10
-193.43753983157427
 20
210.25141811166475
 30
0.0
 40
1.5
  0
LINE
  5
118
100
AcDbEntity
100
AcDbLine
  8
3 side
 62
256
370
-1
  6
ByLayer
 10
-199.01766685049643
 20
209.9164816211225
 30
0.0
 11
-196.51766685049643
 21
205.58635460220054
 31
0.0
  0
LINE
  5
119
100
AcDbEntity
100
AcDbLine
  8
3 side
 62
256
370
-1
  6
ByLayer
 10
-190.35741281265206
 20
214.91648162112267
 30
0.0
 11
-187.85741281265206
 21
210.5863546022006
 31
0.0
  0
LINE
  5
11A
100
AcDbEntity
100
AcDbLine
  8
3 side
 62
256
370
-1
  6
ByLayer
 10
-199.01766685049643
 20
209.9164816211225
 30
0.0
 11
-190.35741281265206
 21
214.91648162112267
 31
0.0
  0
LINE
  5
11B
100
AcDbEntity
100
AcDbLine
  8
3 side
 62
256
370
-1
  6
ByLayer
 10
-187.85741281265206
 20
210.5863546022006
 30
0.0
 11
-179.19715877480766
 21
215.58635460220057
 31
0.0
  0
ARC
  5
11C
100
AcDbEntity
  8
3 side
 62
256
370
-1
  6
ByLayer
100
AcDbCircle
 10
-63.379473764906081
 20
210.46702062058486
 30
0.0
 40
8.0
100
AcDbArc
 50
0.0
 51
89.999999999999943
  0
LINE
  5
11D
100
AcDbEntity
100
AcDbLine
  8
3 side
 62
256
370
-1
  6
ByLayer
 10
-55.379473764906081
 20
210.4670206205852
 30
0.0
 11
-55.379473764906081
 21
199.96702062058532
 31
0.0
  0
ARC
  5
11E
100
AcDbEntity
  8
3 side
 62
256
370
-1
  6
ByLayer
100
AcDbCircle
 10
-65.78259039943822
 20
222.46702062058523
 30
0.0
 40
4.0000000000000018
100
AcDbArc
 50
205.94416143574776
 51
269.99999852119811
  0
LINE
  5
11F
100
AcDbEntity
100
AcDbLine
  8
3 side
 62
256
370
-1
  6
ByLayer
 10
-65.782590502678076
 20
218.46702062058526
 30
0.0
 11
-63.379470353940903
 21
218.46702062058446
 31
0.0
  0
LINE
  5
120
100
AcDbEntity
100
AcDbLine
  8
3 side
 62
256
370
-1
  6
ByLayer
 10
-73.417573764906081
 20
220.71704060492198
 30
0.0
 11
-69.379473764906081
 21
220.717040604922
 31
0.0
  0
ARC
  5
121
100
AcDbEntity
  8
4 side cover
 62
256
370
-1
  6
ByLayer
100
AcDbCircle
 10
-27.15475096456543
 20
219.91282320139757
 30
0.0
 40
8.0
100
AcDbArc
 50
0.0
 51
180.0
  0
CIRCLE
  5
122
100
AcDbEntity
100
AcDbCircle
  8
4 side cover
 62
256
370
-1
  6
ByLayer
 10
-27.15475096456543
 20
209.91282320139757
 30
0.0
 40
1.5
  0
CIRCLE
  5
123
100
AcDbEntity
100
AcDbCircle
  8
4 side cover
 62
256
370
-1
  6
ByLayer
 10
-27.15475096456543
 20
219.91282320139757
 30
0.0
 40
3.165
  0
ARC
  5
124
100
AcDbEntity
  8
4 side cover
 62
256
370
-1
  6
ByLayer
100
AcDbCircle
 10
-27.15475096456543
 20
197.4128232013976
 30
0.0
 40
8.0
100
AcDbArc
 50
180.0
 51
0.0
  0
CIRCLE
  5
125
100
AcDbEntity
100
AcDbCircle
  8
4 side cover
 62
256
370
-1
  6
ByLayer
 10
-27.15475096456543
 20
197.41282320139757
 30
0.0
 40
1.5
  0
LINE
  5
126
100
AcDbEntity
100
AcDbLine
  8
4 side cover
 62
256
370
-1
  6
ByLayer
 10
-35.15475096456543
 20
219.91281983362811
 30
0.0
 11
-35.154750964565437
 21
197.4128232013976
 31
0.0
  0
LINE
  5
127
100
AcDbEntity
100
AcDbLine
  8
4 side cover
 62
256
370
-1
  6
ByLayer
 10
-19.154750964565437
 20
219.91282320139757
 30
0.0
 11
-19.154750964565441
 21
197.41282320139757
 31
0.0
  0
ARC
  5
128
100
AcDbEntity
  8
4 side cover
 62
256
370
-1
  6
ByLayer
100
AcDbCircle
 10
0.0000000000000082
 20
211.25
 30
0.0
 40
8.0
100
AcDbArc
 50
0.0
 51
180.0
  0
CIRCLE
  5
129
100
AcDbEntity
100
AcDbCircle
  8
4 side cover
 62
256
370
-1
  6
ByLayer
 10
0.000000000000007
 20
201.25
 30
0.0
 40
1.5
  0
CIRCLE
  5
12A
100
AcDbEntity
100
AcDbCircle
  8
4 side cover
 62
256
370
-1
  6
ByLayer
 10
0.0000000000000082
 20
211.25
 30
0.0
 40
3.165
  0
ARC
  5
12B
100
AcDbEntity
  8
4 side cover
 62
256
370
-1
  6
ByLayer
100
AcDbCircle
 10
0.0000000000000079
 20
188.75
 30
0.0
 40
8.0
100
AcDbArc
 50
180.0
 51
0.0
  0
CIRCLE
  5
12C
100
AcDbEntity
100
AcDbCircle
  8
4 side cover
 62
256
370
-1
  6
ByLayer
 10
0.0000000000000079
 20
188.75
 30
0.0
 40
1.5
  0
LINE
  5
12D
100
AcDbEntity
100
AcDbLine
  8
4 side cover
 62
256
370
-1
  6
ByLayer
 10
-7.9999999999999902
 20
211.24999663223053
 30
0.0
 11
-8.0000000000000018
 21
188.75000000000003
 31
0.0
  0
LINE
  5
12E
100
AcDbEntity
100
AcDbLine
  8
4 side cover
 62
256
370
-1
  6
ByLayer
 10
8.0
 20
211.25
 30
0.0
 11
7.9999999999999956
 21
188.75
 31
0.0
  0
CIRCLE
  5
12F
100
AcDbEntity
100
AcDbCircle
  8
3 side
 62
256
370
-1
  6
ByLayer
 10
-67.667066022469015
 20
161.01591352982979
 30
0.0
 40
1.5
  0
LINE
  5
130
100
AcDbEntity
100
AcDbLine
  8
3 side
 62
256
370
-1
  6
ByLayer
 10
-166.62896602246906
 20
169.26593351416642
 30
0.0
 11
-166.62896602246906
 21
173.76593351416642
 31
0.0
  0
ARC
  5
131
100
AcDbEntity
  8
3 side
 62
256
370
-1
  6
ByLayer
100
AcDbCircle
 10
-166.12896602246906
 20
173.76593351416642
 30
0.0
 40
0.5
100
AcDbArc
 50
90.000000000000014
 51
180.0
  0
ARC
  5
132
100
AcDbEntity
  8
3 side
 62
256
370
-1
  6
ByLayer
100
AcDbCircle
 10
-147.12896602246906
 20
173.76593351416642
 30
0.0
 40
0.5
100
AcDbArc
 50
0.0
 51
90.000000000000014
  0
ARC
  5
133
100
AcDbEntity
  8
3 side
 62
256
370
-1
  6
ByLayer
100
AcDbCircle
 10
-133.16706602246904
 20
173.76593351416642
 30
0.0
 40
0.5
100
AcDbArc
 50
90.000000000000014
 51
180.0
  0
LINE
  5
134
100
AcDbEntity
100
AcDbLine
  8
3 side
 62
256
370
-1
  6
ByLayer
 10
-175.66706602246899
 20
176.76591352982965
 30
0.0
 11
-175.66706602246902
 21
169.26593351416639
 31
0.0
  0
LINE
  5
135
100
AcDbEntity
100
AcDbLine
  8
3 side
 62
256
370
-1
  6
ByLayer
 10
-175.66706602246902
 20
169.26593351416639
 30
0.0
 11
-173.62896602246909
 21
169.26593351416642
 31
0.0
  0
LINE
  5
136
100
AcDbEntity
100
AcDbLine
  8
3 side
 62
256
370
-1
  6
ByLayer
 10
-169.62896602246909
 20
169.26593351416642
 30
0.0
 11
-166.62896602246906
 21
169.26593351416642
 31
0.0
  0
ARC
  5
137
100
AcDbEntity
  8
3 side
 62
256
370
-1
  6
ByLayer
100
AcDbCircle
 10
-173.62896602246909
 20
168.76593351416648
 30
0.0
 40
0.5
100
AcDbArc
 50
0.0
 51
89.999999999999957
  0
ARC
  5
138
100
AcDbEntity
  8
3 side
 62
256
370
-1
  6
ByLayer
100
AcDbCircle
 10
-169.62896602246909
 20
168.76593351416642
 30
0.0
 40
0.5
100
AcDbArc
 50
90.000000000000057
 51
180.0
  0
ARC
  5
139
100
AcDbEntity
  8
3 side
 62
256
370
-1
  6
ByLayer
100
AcDbCircle
 10
-81.705166022469029
 20
168.76593351416642
 30
0.0
 40
0.5
100
AcDbArc
 50
0.0
 51
89.999999999999957
  0
ARC
  5
13A
100
AcDbEntity
  8
3 side
 62
256
370
-1
  6
ByLayer
100
AcDbCircle
 10
-77.705166022469029
 20
168.76593351416642
 30
0.0
 40
0.5
100
AcDbArc
 50
90.000000000000057
 51
180.0
  0
INSERT
  5
13B
100
AcDbEntity
100
AcDbBlockReference
  8
3 side
 62
256
370
-1
  6
ByLayer
  2
tabs-with-bolt-20
 10
-142.66706342728622
 20
145.51591352982965
 30
0.0
 44
1.0
 45
1.0
  0
LINE
  5
13C
100
AcDbEntity
100
AcDbLine
  8
3 side
 62
256
370
-1
  6
ByLayer
 10
-157.66706602246904
 20
145.51591352982967
 30
0.0
 11
-157.66706602246902
 21
140.51591352982965
 31
0.0
  0
LINE
  5
13D
100
AcDbEntity
100
AcDbLine
  8
3 side
 62
256
370
-1
  6
ByLayer
 10
-157.66706602246902
 20
145.51591352982965
 30
0.0
 11
-152.66706342728622
 21
145.51591352982965
 31
0.0
  0
INSERT
  5
13E
100
AcDbEntity
100
AcDbBlockReference
  8
3 side
 62
256
370
-1
  6
ByLayer
  2
tabs-with-bolt-20
 10
-108.66706602246903
 20
145.51591352982965
 30
0.0
 44
1.0
 45
1.0
  0
LINE
  5
13F
100
AcDbEntity
100
AcDbLine
  8
3 side
 62
256
370
-1
  6
ByLayer
 10
-132.66706342728622
 20
145.51591352982965
 30
0.0
 11
-118.66706602246904
 21
145.51591352982965
 31
0.0
  0
LINE
  5
140
100
AcDbEntity
100
AcDbLine
  8
3 side
 62
256
370
-1
  6
ByLayer
 10
-93.667066022469044
 20
145.51591352982962
 30
0.0
 11
-93.667066022469029
 21
140.51591352982965
 31
0.0
  0
LINE
  5
141
100
AcDbEntity
100
AcDbLine
  8
3 side
 62
256
370
-1
  6
ByLayer
 10
-98.667066022469029
 20
145.51591352982965
 30
0.0
 11
-93.667066022469044
 21
145.51591352982962
 31
0.0
  0
LINE
  5
142
100
AcDbEntity
100
AcDbLine
  8
3 side
 62
256
370
-1
  6
ByLayer
 10
-98.667066022469029
 20
149.61591352982964
 30
0.0
 11
-98.667066022469029
 21
149.61591352982964
 31
0.0
  0
LINE
  5
143
100
AcDbEntity
100
AcDbLine
  8
3 side
 62
256
370
-1
  6
ByLayer
 10
-98.667066022469029
 20
149.61591352982964
 30
0.0
 11
-92.667066022469029
 21
149.61591352982964
 31
0.0
  0
CIRCLE
  5
144
100
AcDbEntity
100
AcDbCircle
  8
3 side
 62
256
370
-1
  6
ByLayer
 10
-95.667066022469029
 20
154.61591352982967
 30
0.0
 40
1.5
  0
LINE
  5
145
100
AcDbEntity
100
AcDbLine
  8
3 side
 62
256
370
-1
  6
ByLayer
 10
-98.667066022469029
 20
153.11591352982964
 30
0.0
 11
-98.667066022469029
 21
149.61591352982964
 31
0.0
  0
LINE
  5
146
100
AcDbEntity
100
AcDbLine
  8
3 side
 62
256
370
-1
  6
ByLayer
 10
-92.667066022469029
 20
149.61591352982964
 30
0.0
 11
-92.667066022469029
 21
153.11591352982964
 31
0.0
  0
LINE
  5
147
100
AcDbEntity
100
AcDbLine
  8
3 side
 62
256
370
-1
  6
ByLayer
 10
-92.667066022469029
 20
153.11591352982964
 30
0.0
 11
-95.667066022469029
 21
153.11591352982967
 31
0.0
  0
LINE
  5
148
100
AcDbEntity
100
AcDbLine
  8
3 side
 62
256
370
-1
  6
ByLayer
 10
-95.667066022469029
 20
153.11591352982967
 30
0.0
 11
-95.667066022469029
 21
153.11591352982967
 31
0.0
  0
LINE
  5
149
100
AcDbEntity
100
AcDbLine
  8
3 side
 62
256
370
-1
  6
ByLayer
 10
-95.667066022469029
 20
153.11591352982967
 30
0.0
 11
-95.667066022469029
 21
153.11591352982967
 31
0.0
  0
LINE
  5
14A
100
AcDbEntity
100
AcDbLine
  8
3 side
 62
256
370
-1
  6
ByLayer
 10
-95.667066022469029
 20
153.11591352982967
 30
0.0
 11
-98.667066022469029
 21
153.11591352982964
 31
0.0
  0
ARC
  5
14B
100
AcDbEntity
  8
3 side
 62
256
370
-1
  6
ByLayer
100
AcDbCircle
 10
-67.667066022469044
 20
148.51591352982956
 30
0.0
 40
7.9999999999999982
100
AcDbArc
 50
270.0
 51
0.0
  0
CIRCLE
  5
14C
100
AcDbEntity
100
AcDbCircle
  8
3 side
 62
256
370
-1
  6
ByLayer
 10
-67.667066022469044
 20
148.51591352982956
 30
0.0
 40
1.5
  0
LINE
  5
14D
100
AcDbEntity
100
AcDbLine
  8
3 side
 62
256
370
-1
  6
ByLayer
 10
-93.667066022469029
 20
140.51591352982965
 30
0.0
 11
-67.667066022469044
 21
140.51591352982965
 31
0.0
  0
ARC
  5
14E
100
AcDbEntity
  8
3 side
 62
256
370
-1
  6
ByLayer
100
AcDbCircle
 10
-181.56708789861568
 20
171.01591352982962
 30
0.0
 40
3.1649999999999983
100
AcDbArc
 50
225.00002412791815
 51
44.999992536536105
  0
ARC
  5
14F
100
AcDbEntity
  8
3 side
 62
256
370
-1
  6
ByLayer
100
AcDbCircle
 10
-179.32909757347215
 20
173.25390912959386
 30
0.0
 40
3.5120044002357957
100
AcDbArc
 50
90.0
 51
134.99999999996564
  0
LINE
  5
150
100
AcDbEntity
100
AcDbLine
  8
3 side
 62
256
370
-1
  6
ByLayer
 10
-179.32909464352667
 20
173.25390619965145
 30
0.0
 11
-181.81245970043432
 21
175.73727125655913
 31
0.0
  0
CIRCLE
  5
151
100
AcDbEntity
100
AcDbCircle
  8
3 side
 62
256
370
-1
  6
ByLayer
 10
-169.16816589754066
 20
153.01591352982967
 30
0.0
 40
1.5
  0
CIRCLE
  5
152
100
AcDbEntity
100
AcDbCircle
  8
3 side
 62
256
370
-1
  6
ByLayer
 10
-186.16816589754066
 20
153.01591352982965
 30
0.0
 40
1.5
  0
ARC
  5
153
100
AcDbEntity
  8
3 side
 62
256
370
-1
  6
ByLayer
100
AcDbCircle
 10
-177.66816589754066
 20
153.01591352982962
 30
0.0
 40
3.4999999999999987
100
AcDbArc
 50
306.86989764584405
 51
233.13010235415592
  0
CIRCLE
  5
154
100
AcDbEntity
100
AcDbCircle
  8
3 side
 62
256
370
-1
  6
ByLayer
 10
-183.16816589754066
 20
153.0159135298297
 30
0.0
 40
1.5
  0
CIRCLE
  5
155
100
AcDbEntity
100
AcDbCircle
  8
3 side
 62
256
370
-1
  6
ByLayer
 10
-172.16816589754066
 20
153.01591352982967
 30
0.0
 40
1.5
  0
ARC
  5
156
100
AcDbEntity
  8
3 side
 62
256
370
-1
  6
ByLayer
100
AcDbCircle
 10
-181.56706589754066
 20
148.5159135298297
 30
0.0
 40
8.0
100
AcDbArc
 50
225.0
 51
270.0
  0
LINE
  5
157
100
AcDbEntity
100
AcDbLine
  8
3 side
 62
256
370
-1
  6
ByLayer
 10
-181.56706589754066
 20
140.5159135298297
 30
0.0
 11
-179.76816589754068
 21
140.51591352982967
 31
0.0
  0
LINE
  5
158
100
AcDbEntity
100
AcDbLine
  8
3 side
 62
256
370
-1
  6
ByLayer
 10
-175.56816589754067
 20
150.21591352982966
 30
0.0
 11
-175.56816589754067
 21
140.51591352982967
 31
0.0
  0
LINE
  5
159
100
AcDbEntity
100
AcDbLine
  8
3 side
 62
256
370
-1
  6
ByLayer
 10
-179.76816589754065
 20
150.21591352982966
 30
0.0
 11
-179.76816589754068
 21
140.51591352982967
 31
0.0
  0
LINE
  5
15A
100
AcDbEntity
100
AcDbLine
  8
3 side
 62
256
370
-1
  6
ByLayer
 10
-185.98475103237064
 20
168.46537453036717
 30
0.0
 11
-183.48475103237061
 21
164.13524751144499
 31
0.0
  0
LINE
  5
15B
100
AcDbEntity
100
AcDbLine
  8
3 side
 62
256
370
-1
  6
ByLayer
 10
-200.80525910805937
 20
154.13524751144496
 30
0.0
 11
-187.22392014703306
 21
142.85905928033728
 31
0.0
  0
LINE
  5
15C
100
AcDbEntity
100
AcDbLine
  8
3 side
 62
256
370
-1
  6
ByLayer
 10
-185.98475103237064
 20
168.46537453036717
 30
0.0
 11
-183.80508057034393
 21
168.77792027664705
 31
0.0
  0
LINE
  5
15D
100
AcDbEntity
100
AcDbLine
  8
3 side
 62
256
370
-1
  6
ByLayer
 10
-175.66706602246899
 20
176.76591352982965
 30
0.0
 11
-179.32909757347215
 21
176.76591352982965
 31
0.0
  0
LINE
  5
15E
100
AcDbEntity
100
AcDbLine
  8
3 side
 62
256
370
-1
  6
ByLayer
 10
-175.56816589754067
 20
140.51591352982967
 30
0.0
 11
-157.66706602246902
 21
140.51591352982965
 31
0.0
  0
LINE
  5
15F
100
AcDbEntity
100
AcDbLine
  8
3 side
 62
256
370
-1
  6
ByLayer
 10
-166.12896602246906
 20
174.26593351416645
 30
0.0
 11
-147.12896602246909
 21
174.26593351416642
 31
0.0
  0
LINE
  5
160
100
AcDbEntity
100
AcDbLine
  8
3 side
 62
256
370
-1
  6
ByLayer
 10
-173.12896602246909
 20
164.66261540178252
 30
0.0
 11
-170.12896602246909
 21
164.66261540178249
 31
0.0
  0
LINE
  5
161
100
AcDbEntity
100
AcDbLine
  8
3 side
 62
256
370
-1
  6
ByLayer
 10
-174.48896602246907
 20
167.83261540178253
 30
0.0
 11
-174.48896602246907
 21
165.66261540178252
 31
0.0
  0
LINE
  5
162
100
AcDbEntity
100
AcDbLine
  8
3 side
 62
256
370
-1
  6
ByLayer
 10
-168.7689660224691
 20
165.66261540178252
 30
0.0
 11
-168.7689660224691
 21
167.8326154017825
 31
0.0
  0
LINE
  5
163
100
AcDbEntity
100
AcDbLine
  8
3 side
 62
256
370
-1
  6
ByLayer
 10
-173.12896602246909
 20
167.83261540178248
 30
0.0
 11
-174.48896602246907
 21
167.83261540178253
 31
0.0
  0
LINE
  5
164
100
AcDbEntity
100
AcDbLine
  8
3 side
 62
256
370
-1
  6
ByLayer
 10
-168.7689660224691
 20
167.8326154017825
 30
0.0
 11
-170.12896602246909
 21
167.8326154017825
 31
0.0
  0
LINE
  5
165
100
AcDbEntity
100
AcDbLine
  8
3 side
 62
256
370
-1
  6
ByLayer
 10
-170.12896602246909
 20
164.66261540178249
 30
0.0
 11
-170.12896602246909
 21
165.66261540178252
 31
0.0
  0
LINE
  5
166
100
AcDbEntity
100
AcDbLine
  8
3 side
 62
256
370
-1
  6
ByLayer
 10
-170.12896602246909
 20
165.66261540178252
 30
0.0
 11
-168.7689660224691
 21
165.66261540178252
 31
0.0
  0
LINE
  5
167
100
AcDbEntity
100
AcDbLine
  8
3 side
 62
256
370
-1
  6
ByLayer
 10
-174.48896602246907
 20
165.66261540178252
 30
0.0
 11
-173.12896602246909
 21
165.66261540178252
 31
0.0
  0
LINE
  5
168
100
AcDbEntity
100
AcDbLine
  8
3 side
 62
256
370
-1
  6
ByLayer
 10
-173.12896602246909
 20
165.66261540178252
 30
0.0
 11
-173.12896602246909
 21
164.66261540178252
 31
0.0
  0
LINE
  5
169
100
AcDbEntity
100
AcDbLine
  8
3 side
 62
256
370
-1
  6
ByLayer
 10
-81.205166022469029
 20
164.66261540178255
 30
0.0
 11
-78.205166022469029
 21
164.66261540178249
 31
0.0
  0
LINE
  5
16A
100
AcDbEntity
100
AcDbLine
  8
3 side
 62
256
370
-1
  6
ByLayer
 10
-82.565166022469015
 20
167.83261540178245
 30
0.0
 11
-82.565166022469015
 21
165.66261540178255
 31
0.0
  0
LINE
  5
16B
100
AcDbEntity
100
AcDbLine
  8
3 side
 62
256
370
-1
  6
ByLayer
 10
-76.84516602246903
 20
165.66261540178249
 30
0.0
 11
-76.84516602246903
 21
167.8326154017825
 31
0.0
  0
LINE
  5
16C
100
AcDbEntity
100
AcDbLine
  8
3 side
 62
256
370
-1
  6
ByLayer
 10
-81.205166022469029
 20
167.8326154017825
 30
0.0
 11
-82.565166022469015
 21
167.83261540178245
 31
0.0
  0
LINE
  5
16D
100
AcDbEntity
100
AcDbLine
  8
3 side
 62
256
370
-1
  6
ByLayer
 10
-76.84516602246903
 20
167.8326154017825
 30
0.0
 11
-78.205166022469029
 21
167.8326154017825
 31
0.0
  0
LINE
  5
16E
100
AcDbEntity
100
AcDbLine
  8
3 side
 62
256
370
-1
  6
ByLayer
 10
-78.205166022469029
 20
164.66261540178249
 30
0.0
 11
-78.205166022469029
 21
165.66261540178252
 31
0.0
  0
LINE
  5
16F
100
AcDbEntity
100
AcDbLine
  8
3 side
 62
256
370
-1
  6
ByLayer
 10
-78.205166022469029
 20
165.66261540178252
 30
0.0
 11
-76.84516602246903
 21
165.66261540178249
 31
0.0
  0
LINE
  5
170
100
AcDbEntity
100
AcDbLine
  8
3 side
 62
256
370
-1
  6
ByLayer
 10
-82.565166022469015
 20
165.66261540178255
 30
0.0
 11
-81.205166022469029
 21
165.66261540178249
 31
0.0
  0
LINE
  5
171
100
AcDbEntity
100
AcDbLine
  8
3 side
 62
256
370
-1
  6
ByLayer
 10
-81.205166022469029
 20
165.66261540178249
 30
0.0
 11
-81.205166022469029
 21
164.66261540178255
 31
0.0
  0
LINE
  5
172
100
AcDbEntity
100
AcDbLine
  8
3 side
 62
256
370
-1
  6
ByLayer
 10
-173.12896602246909
 20
168.76593351416642
 30
0.0
 11
-173.12896602246909
 21
167.83261540178248
 31
0.0
  0
LINE
  5
173
100
AcDbEntity
100
AcDbLine
  8
3 side
 62
256
370
-1
  6
ByLayer
 10
-170.12896602246909
 20
167.8326154017825
 30
0.0
 11
-170.12896602246909
 21
168.76593351416636
 31
0.0
  0
LINE
  5
174
100
AcDbEntity
100
AcDbLine
  8
3 side
 62
256
370
-1
  6
ByLayer
 10
-81.205166022469029
 20
168.76593351416645
 30
0.0
 11
-81.205166022469029
 21
167.8326154017825
 31
0.0
  0
LINE
  5
175
100
AcDbEntity
100
AcDbLine
  8
3 side
 62
256
370
-1
  6
ByLayer
 10
-78.205166022469029
 20
167.8326154017825
 30
0.0
 11
-78.205166022469029
 21
168.76593351416645
 31
0.0
  0
LINE
  5
176
100
AcDbEntity
100
AcDbLine
  8
3 side
 62
256
370
-1
  6
ByLayer
 10
-123.66706602246906
 20
169.26593351416642
 30
0.0
 11
-123.66706602246906
 21
173.76593351416642
 31
0.0
  0
ARC
  5
177
100
AcDbEntity
  8
3 side
 62
256
370
-1
  6
ByLayer
100
AcDbCircle
 10
-124.16706602246906
 20
173.76593351416642
 30
0.0
 40
0.5
100
AcDbArc
 50
0.0
 51
90.000000000000014
  0
LINE
  5
178
100
AcDbEntity
100
AcDbLine
  8
3 side
 62
256
370
-1
  6
ByLayer
 10
-124.16706602246906
 20
174.26593351416642
 30
0.0
 11
-133.16706602246904
 21
174.26593351416642
 31
0.0
  0
LINE
  5
179
100
AcDbEntity
100
AcDbLine
  8
3 side
 62
256
370
-1
  6
ByLayer
 10
-81.705166022469029
 20
169.26593351416642
 30
0.0
 11
-123.66706602246906
 21
169.26593351416642
 31
0.0
  0
LINE
  5
17A
100
AcDbEntity
100
AcDbLine
  8
3 side
 62
256
370
-1
  6
ByLayer
 10
-146.62896602246906
 20
173.76593351416642
 30
0.0
 11
-146.62896602246906
 21
164.26593351416642
 31
0.0
  0
LINE
  5
17B
100
AcDbEntity
100
AcDbLine
  8
3 side
 62
256
370
-1
  6
ByLayer
 10
-146.62896602246906
 20
164.26593351416642
 30
0.0
 11
-133.66706602246904
 21
164.26593351416642
 31
0.0
  0
LINE
  5
17C
100
AcDbEntity
100
AcDbLine
  8
3 side
 62
256
370
-1
  6
ByLayer
 10
-133.66706602246904
 20
173.76593351416642
 30
0.0
 11
-133.66706602246904
 21
164.26593351416642
 31
0.0
  0
CIRCLE
  5
17D
100
AcDbEntity
100
AcDbCircle
  8
3 side
 62
256
370
-1
  6
ByLayer
 10
-197.72513208913722
 20
158.80031102090916
 30
0.0
 40
1.5
  0
LINE
  5
17E
100
AcDbEntity
100
AcDbLine
  8
3 side
 62
256
370
-1
  6
ByLayer
 10
-203.30525910805937
 20
158.46537453036692
 30
0.0
 11
-200.80525910805937
 21
154.13524751144496
 31
0.0
  0
LINE
  5
17F
100
AcDbEntity
100
AcDbLine
  8
3 side
 62
256
370
-1
  6
ByLayer
 10
-194.64500507021501
 20
163.46537453036709
 30
0.0
 11
-192.14500507021501
 21
159.13524751144502
 31
0.0
  0
LINE
  5
180
100
AcDbEntity
100
AcDbLine
  8
3 side
 62
256
370
-1
  6
ByLayer
 10
-203.30525910805937
 20
158.46537453036692
 30
0.0
 11
-194.64500507021501
 21
163.46537453036709
 31
0.0
  0
LINE
  5
181
100
AcDbEntity
100
AcDbLine
  8
3 side
 62
256
370
-1
  6
ByLayer
 10
-192.14500507021501
 20
159.13524751144502
 30
0.0
 11
-183.48475103237061
 21
164.13524751144499
 31
0.0
  0
ARC
  5
182
100
AcDbEntity
  8
3 side
 62
256
370
-1
  6
ByLayer
100
AcDbCircle
 10
-67.667066022469029
 20
159.01591352982928
 30
0.0
 40
8.0
100
AcDbArc
 50
0.0
 51
89.999999999999943
  0
LINE
  5
183
100
AcDbEntity
100
AcDbLine
  8
3 side
 62
256
370
-1
  6
ByLayer
 10
-59.667066022469029
 20
159.01591352982962
 30
0.0
 11
-59.667066022469029
 21
148.51591352982973
 31
0.0
  0
ARC
  5
184
100
AcDbEntity
  8
3 side
 62
256
370
-1
  6
ByLayer
100
AcDbCircle
 10
-70.070182657001169
 20
171.01591352982965
 30
0.0
 40
4.0000000000000018
100
AcDbArc
 50
205.94416143574776
 51
269.99999852119811
  0
LINE
  5
185
100
AcDbEntity
100
AcDbLine
  8
3 side
 62
256
370
-1
  6
ByLayer
 10
-70.070182760241025
 20
167.01591352982967
 30
0.0
 11
-67.667062611503852
 21
167.01591352982888
 31
0.0
  0
LINE
  5
186
100
AcDbEntity
100
AcDbLine
  8
3 side
 62
256
370
-1
  6
ByLayer
 10
-77.705166022469029
 20
169.26593351416636
 30
0.0
 11
-73.667066022469029
 21
169.26593351416642
 31
0.0
  0
LWPOLYLINE
  5
187
  8
5a gear, motor, A
 62
256
370
-1
  6
ByLayer
100
AcDbEntity
100
AcDbPolyline
 90
97
 70
0
 10
-26.408825127128409
 20
165.2978885665803
 10
-26.211361452128415
 20
165.33472681158028
 10
-25.350242217128425
 20
165.15970403658028
 10
-24.27452681712839
 20
164.47433147658032
 10
-24.27452681712839
 20
164.24107493658022
 10
-25.350242217128425
 20
163.55570237658029
 10
-26.211361452128415
 20
163.38067960158028
 10
-26.408825127128409
 20
163.41751784658027
 10
-26.613125952128428
 20
162.65517077658029
 10
-26.423705262128351
 20
162.58833086658026
 10
-25.765439052128386
 20
162.00623461158028
 10
-25.176506217128406
 20
160.87477891158028
 10
-25.293134487128384
 20
160.67281081158026
 10
-26.567439882128383
 20
160.61707051158029
 10
-27.400729152128406
 20
160.89609377658027
 10
-27.553311027128419
 20
161.0267979115803
 10
-28.11143792712835
 20
160.46867101158026
 10
-27.980733792128433
 20
160.31608913658027
 10
-27.701710527128402
 20
159.48279986658028
 10
-27.757450827128366
 20
158.20849447158028
 10
-27.959418927128414
 20
158.09186620158027
 10
-29.090874627128418
 20
158.68079903658028
 10
-29.672970882128368
 20
159.33906524658028
 10
-29.739810792128367
 20
159.5284859365803
 10
-30.502157862128399
 20
159.32418511158028
 10
-30.465319617128387
 20
159.12672143658028
 10
-30.640342392128389
 20
158.26560220158029
 10
-31.325714952128408
 20
157.18988680158026
 10
-31.558971492128368
 20
157.18988680158026
 10
-32.244344052128383
 20
158.26560220158029
 10
-32.419366827128385
 20
159.12672143658028
 10
-32.382528582128373
 20
159.32418511158028
 10
-33.144875652128405
 20
159.5284859365803
 10
-33.211715562128404
 20
159.33906524658028
 10
-33.793811817128415
 20
158.68079903658028
 10
-34.925267517128418
 20
158.09186620158027
 10
-35.127235617128413
 20
158.20849447158028
 10
-35.182975917128374
 20
159.48279986658028
 10
-34.903952652128396
 20
160.31608913658027
 10
-34.773248517128366
 20
160.46867101158026
 10
-35.331375417128413
 20
161.0267979115803
 10
-35.483957292128395
 20
160.89609377658027
 10
-36.317246562128389
 20
160.61707051158029
 10
-37.591551957128388
 20
160.67281081158026
 10
-37.708180227128395
 20
160.87477891158028
 10
-37.119247392128386
 20
162.00623461158028
 10
-36.460981182128393
 20
162.58833086658026
 10
-36.271560492128373
 20
162.65517077658029
 10
-36.475861317128391
 20
163.41751784658027
 10
-36.673324992128386
 20
163.38067960158028
 10
-37.534444227128375
 20
163.55570237658029
 10
-38.610159627128411
 20
164.24107493658025
 10
-38.610159627128411
 20
164.47433147658032
 10
-37.534444227128375
 20
165.15970403658028
 10
-36.673324992128386
 20
165.33472681158028
 10
-36.475861317128391
 20
165.2978885665803
 10
-36.271560492128373
 20
166.06023563658027
 10
-36.460981182128393
 20
166.1270755465803
 10
-37.119247392128386
 20
166.70917180158028
 10
-37.708180227128395
 20
167.84062750158029
 10
-37.591551957128388
 20
168.0425956015803
 10
-36.317246562128389
 20
168.09833590158027
 10
-35.483957292128395
 20
167.81931263658029
 10
-35.331375417128413
 20
167.68860850158026
 10
-34.773248517128366
 20
168.24673540158031
 10
-34.903952652128396
 20
168.39931727658029
 10
-35.182975917128374
 20
169.23260654658029
 10
-35.127235617128406
 20
170.50691194158028
 10
-34.925267517128418
 20
170.62354021158029
 10
-33.793811817128415
 20
170.03460737658028
 10
-33.211715562128404
 20
169.37634116658029
 10
-33.144875652128405
 20
169.18692047658027
 10
-32.382528582128373
 20
169.39122130158029
 10
-32.419366827128385
 20
169.58868497658028
 10
-32.244344052128383
 20
170.44980421158027
 10
-31.558971492128364
 20
171.52551961158031
 10
-31.325714952128408
 20
171.52551961158031
 10
-30.640342392128389
 20
170.44980421158027
 10
-30.465319617128387
 20
169.58868497658028
 10
-30.502157862128399
 20
169.39122130158029
 10
-29.739810792128367
 20
169.18692047658027
 10
-29.672970882128368
 20
169.37634116658029
 10
-29.090874627128414
 20
170.03460737658028
 10
-27.959418927128411
 20
170.62354021158029
 10
-27.757450827128366
 20
170.50691194158028
 10
-27.701710527128398
 20
169.23260654658029
 10
-27.980733792128433
 20
168.39931727658029
 10
-28.11143792712835
 20
168.24673540158031
 10
-27.553311027128416
 20
167.68860850158026
 10
-27.400729152128406
 20
167.81931263658029
 10
-26.567439882128383
 20
168.09833590158027
 10
-25.293134487128384
 20
168.0425956015803
 10
-25.176506217128406
 20
167.84062750158029
 10
-25.765439052128386
 20
166.70917180158028
 10
-26.423705262128351
 20
166.1270755465803
 10
-26.613125952128428
 20
166.06023563658027
 10
-26.408825127128409
 20
165.2978885665803
  0
LINE
  5
188
100
AcDbEntity
100
AcDbLine
  8
5a gear, motor, A
 62
256
370
-1
  6
ByLayer
 10
-30.119467566596093
 20
165.85770320658028
 30
0.0
 11
-32.765218877660679
 21
165.85770320658028
 31
0.0
  0
ARC
  5
189
100
AcDbEntity
  8
5a gear, motor, A
 62
256
370
-1
  6
ByLayer
100
AcDbCircle
 10
-31.442343222128386
 20
164.35770320658028
 30
0.0
 40
1.9999999999999987
100
AcDbArc
 50
131.4096221092708
 51
48.590377890729194
  0
LWPOLYLINE
  5
18A
  8
5a gear, shaft, A
 62
256
370
-1
  6
ByLayer
100
AcDbEntity
100
AcDbPolyline
 90
145
 70
0
 10
11.201708969999991
 20
151.2599226197037
 10
12.263026740000008
 20
150.86949940970374
 10
13.31244062999999
 20
150.22740010970369
 10
13.31244062999999
 20
149.90405791970375
 10
12.263026740000008
 20
149.26195861970371
 10
11.201708969999991
 20
148.87153540970371
 10
11.129077859999988
 20
148.3200039797037
 10
12.053176395000001
 20
147.6681722147037
 10
12.900702270000002
 20
146.77640778470371
 10
12.816971264999999
 20
146.46400474970372
 10
11.637094635000004
 20
146.11548708470372
 10
10.510947629999995
 20
146.01301504970368
 10
10.298040659999989
 20
145.49904604970371
 10
11.021940659999977
 20
144.63028567970372
 10
11.609747459999985
 20
143.54958334970371
 10
11.448076364999979
 20
143.26943404970373
 10
10.218170264999991
 20
143.23814560970374
 10
9.103846769999981
 20
143.43070300970371
 10
8.7652225950000009
 20
142.98936511970373
 10
9.2396182049999886
 20
141.96279454970372
 10
9.5276500349999811
 20
140.76675100970371
 10
9.2989780050000004
 20
140.53807897970373
 10
8.102934464999997
 20
140.82611080970372
 10
7.0763638949999788
 20
141.30050641970371
 10
6.635026004999979
 20
140.96188224470373
 10
6.8275834049999737
 20
139.84755874970372
 10
6.79629496499998
 20
138.61765264970373
 10
6.5161456649999998
 20
138.45598155470373
 10
5.4354433349999915
 20
139.04378835470374
 10
4.5666829650000054
 20
139.76768835470372
 10
4.0527139649999988
 20
139.55478138470372
 10
3.95024192999999
 20
138.42863437970371
 10
3.601724264999993
 20
137.24875774970371
 10
3.2893212299999797
 20
137.16502674470371
 10
2.3975567999999745
 20
138.01255261970371
 10
1.7457250349999849
 20
138.93665115470372
 10
1.1941936049999728
 20
138.86402004470372
 10
0.8037703950000079
 20
137.80270227470371
 10
0.1616710949999963
 20
136.75328838470372
 10
-0.1616710950000131
 20
136.75328838470372
 10
-0.8037703950000233
 20
137.80270227470371
 10
-1.194193605000017
 20
138.86402004470372
 10
-1.7457250350000293
 20
138.93665115470372
 10
-2.3975568000000012
 20
138.01255261970371
 10
-3.2893212300000214
 20
137.16502674470371
 10
-3.6017242650000103
 20
137.24875774970371
 10
-3.9502419300000167
 20
138.42863437970371
 10
-4.0527139650000237
 20
139.55478138470372
 10
-4.5666829650000214
 20
139.76768835470372
 10
-5.4354433350000173
 20
139.04378835470374
 10
-6.5161456650000176
 20
138.45598155470373
 10
-6.7962949649999977
 20
138.61765264970373
 10
-6.8275834049999995
 20
139.84755874970372
 10
-6.6350260050000225
 20
140.96188224470373
 10
-7.0763638949999956
 20
141.30050641970371
 10
-8.1029344650000077
 20
140.82611080970372
 10
-9.2989780050000128
 20
140.53807897970373
 10
-9.5276500349999971
 20
140.76675100970371
 10
-9.2396182050000029
 20
141.96279454970372
 10
-8.7652225950000133
 20
142.98936511970373
 10
-9.1038467699999899
 20
143.43070300970371
 10
-10.218170264999999
 20
143.23814560970374
 10
-11.448076364999995
 20
143.26943404970373
 10
-11.609747459999996
 20
143.54958334970371
 10
-11.021940659999984
 20
144.63028567970372
 10
-10.298040660000028
 20
145.49904604970371
 10
-10.510947630000004
 20
146.01301504970371
 10
-11.637094635000013
 20
146.11548708470372
 10
-12.816971265000008
 20
146.46400474970372
 10
-12.900702270000012
 20
146.77640778470374
 10
-12.053176395000008
 20
147.66817221470373
 10
-11.129077859999997
 20
148.3200039797037
 10
-11.201708969999999
 20
148.87153540970374
 10
-12.263026740000015
 20
149.26195861970371
 10
-13.312440629999998
 20
149.90405791970375
 10
-13.312440629999998
 20
150.22740010970369
 10
-12.263026740000015
 20
150.86949940970374
 10
-11.201708969999999
 20
151.2599226197037
 10
-11.129077859999995
 20
151.81145404970374
 10
-12.053176395000008
 20
152.46328581470371
 10
-12.900702270000011
 20
153.3550502447037
 10
-12.816971265000006
 20
153.66745327970372
 10
-11.637094635000011
 20
154.01597094470372
 10
-10.510947630000004
 20
154.11844297970373
 10
-10.298040659999998
 20
154.63241197970373
 10
-11.021940659999983
 20
155.50117234970372
 10
-11.609747459999994
 20
156.58187467970373
 10
-11.448076364999993
 20
156.86202397970371
 10
-10.218170264999998
 20
156.8933124197037
 10
-9.1038467699999899
 20
156.70075501970373
 10
-8.7652225950000116
 20
157.14209290970371
 10
-9.2396182050000011
 20
158.16866347970372
 10
-9.5276500349999953
 20
159.36470701970373
 10
-9.298978005000011
 20
159.59337904970371
 10
-8.1029344650000059
 20
159.30534721970372
 10
-7.0763638949999939
 20
158.83095160970373
 10
-6.6350260050000207
 20
159.16957578470371
 10
-6.8275834049999924
 20
160.28389927970372
 10
-6.7962949649999951
 20
161.51380537970371
 10
-6.5161456650000149
 20
161.67547647470371
 10
-5.4354433350000102
 20
161.0876696747037
 10
-4.5666829650000205
 20
160.36376967470372
 10
-4.0527139650000166
 20
160.57667664470372
 10
-3.9502419300000113
 20
161.70282364970373
 10
-3.6017242650000099
 20
162.88270027970373
 10
-3.2893212299999903
 20
162.96643128470373
 10
-2.3975567999999958
 20
162.11890540970373
 10
-1.7457250350000266
 20
161.19480687470372
 10
-1.1941936050000168
 20
161.26743798470372
 10
-0.803770395000023
 20
162.32875575470374
 10
-0.1616710950000098
 20
163.37816964470372
 10
0.1616710949999966
 20
163.37816964470372
 10
0.8037703950000081
 20
162.32875575470374
 10
1.194193605000003
 20
161.26743798470372
 10
1.7457250350000129
 20
161.19480687470372
 10
2.3975567999999829
 20
162.11890540970373
 10
3.289321229999977
 20
162.96643128470373
 10
3.6017242649999934
 20
162.88270027970373
 10
3.950241929999998
 20
161.70282364970373
 10
4.0527139650000015
 20
160.57667664470372
 10
4.5666829650000054
 20
160.36376967470372
 10
5.4354433349999942
 20
161.0876696747037
 10
6.5161456650000025
 20
161.67547647470371
 10
6.79629496499998
 20
161.51380537970371
 10
6.8275834049999773
 20
160.28389927970372
 10
6.6350260050000074
 20
159.16957578470371
 10
7.0763638949999796
 20
158.83095160970373
 10
8.102934464999997
 20
159.30534721970372
 10
9.2989780050000022
 20
159.59337904970371
 10
9.5276500349999864
 20
159.36470701970373
 10
9.2396182049999904
 20
158.16866347970372
 10
8.7652225950000044
 20
157.14209290970371
 10
9.1038467699999828
 20
156.70075501970373
 10
10.218170264999991
 20
156.8933124197037
 10
11.448076364999984
 20
156.86202397970371
 10
11.609747459999987
 20
156.58187467970373
 10
11.021940659999977
 20
155.50117234970372
 10
10.298040659999991
 20
154.63241197970373
 10
10.510947629999997
 20
154.11844297970373
 10
11.637094635000004
 20
154.01597094470372
 10
12.816971264999999
 20
153.66745327970372
 10
12.900702270000004
 20
153.3550502447037
 10
12.053176395000001
 20
152.46328581470371
 10
11.129077859999988
 20
151.81145404970374
 10
11.201708969999991
 20
151.2599226197037
  0
LINE
  5
18B
100
AcDbEntity
100
AcDbLine
  8
5a gear, shaft, A
 62
256
370
-1
  6
ByLayer
 10
-2.16359076537131
 20
152.37572901470372
 30
0.0
 11
2.1635907653712962
 21
152.37572901470372
 31
0.0
  0
ARC
  5
18C
100
AcDbEntity
  8
5a gear, shaft, A
 62
256
370
-1
  6
ByLayer
100
AcDbCircle
 10
0.0000000000000071
 20
150.06572901470372
 30
0.0
 40
3.1649999999999987
100
AcDbArc
 50
133.12552407974306
 51
46.874475920256941
  0
LINE
  5
18D
100
AcDbEntity
100
AcDbLine
  8
6 scraper
 62
256
370
-1
  6
ByLayer
 10
-169.00807223683213
 20
127.06775805532098
 30
0.0
 11
-169.00807223683216
 21
30.143958055321001
 31
0.0
  0
LINE
  5
18E
100
AcDbEntity
100
AcDbLine
  8
6 scraper
 62
256
370
-1
  6
ByLayer
 10
-179.00807223683213
 20
35.143958055321008
 30
0.0
 11
-179.00807223683216
 21
30.143958055321008
 31
0.0
  0
LINE
  5
18F
100
AcDbEntity
100
AcDbLine
  8
6 scraper
 62
256
370
-1
  6
ByLayer
 10
-185.50807223683216
 20
41.643958055321008
 30
0.0
 11
-182.50807223683213
 21
41.643958055321001
 31
0.0
  0
LINE
  5
190
100
AcDbEntity
100
AcDbLine
  8
6 scraper
 62
256
370
-1
  6
ByLayer
 10
-186.86807223683212
 20
38.47395805532102
 30
0.0
 11
-186.86807223683215
 21
40.643958055321008
 31
0.0
  0
LINE
  5
191
100
AcDbEntity
100
AcDbLine
  8
6 scraper
 62
256
370
-1
  6
ByLayer
 10
-181.14807223683215
 20
40.643958055321008
 30
0.0
 11
-181.14807223683215
 21
38.47395805532102
 31
0.0
  0
LINE
  5
192
100
AcDbEntity
100
AcDbLine
  8
6 scraper
 62
256
370
-1
  6
ByLayer
 10
-185.50807223683213
 20
38.47395805532102
 30
0.0
 11
-186.86807223683212
 21
38.47395805532102
 31
0.0
  0
LINE
  5
193
100
AcDbEntity
100
AcDbLine
  8
6 scraper
 62
256
370
-1
  6
ByLayer
 10
-181.14807223683215
 20
38.47395805532102
 30
0.0
 11
-182.50807223683213
 21
38.47395805532102
 31
0.0
  0
LINE
  5
194
100
AcDbEntity
100
AcDbLine
  8
6 scraper
 62
256
370
-1
  6
ByLayer
 10
-182.50807223683213
 20
41.643958055321001
 30
0.0
 11
-182.50807223683213
 21
40.643958055321015
 31
0.0
  0
LINE
  5
195
100
AcDbEntity
100
AcDbLine
  8
6 scraper
 62
256
370
-1
  6
ByLayer
 10
-182.50807223683213
 20
40.643958055321015
 30
0.0
 11
-181.14807223683215
 21
40.643958055321008
 31
0.0
  0
LINE
  5
196
100
AcDbEntity
100
AcDbLine
  8
6 scraper
 62
256
370
-1
  6
ByLayer
 10
-186.86807223683215
 20
40.643958055321008
 30
0.0
 11
-185.50807223683216
 21
40.643958055321015
 31
0.0
  0
LINE
  5
197
100
AcDbEntity
100
AcDbLine
  8
6 scraper
 62
256
370
-1
  6
ByLayer
 10
-185.50807223683216
 20
40.643958055321015
 30
0.0
 11
-185.50807223683216
 21
41.643958055321008
 31
0.0
  0
ARC
  5
198
100
AcDbEntity
  8
6 scraper
 62
256
370
-1
  6
ByLayer
100
AcDbCircle
 10
-186.00807223683216
 20
35.643958055321008
 30
0.0
 40
0.5
100
AcDbArc
 50
270.00000000000006
 51
0.0
  0
LINE
  5
199
100
AcDbEntity
100
AcDbLine
  8
6 scraper
 62
256
370
-1
  6
ByLayer
 10
-186.00807223683213
 20
35.143958055321015
 30
0.0
 11
-189.00807223683213
 21
35.143958055321015
 31
0.0
  0
ARC
  5
19A
100
AcDbEntity
  8
6 scraper
 62
256
370
-1
  6
ByLayer
100
AcDbCircle
 10
-182.00807223683216
 20
35.643958055321008
 30
0.0
 40
0.5
100
AcDbArc
 50
180.0
 51
269.99999999999994
  0
LINE
  5
19B
100
AcDbEntity
100
AcDbLine
  8
6 scraper
 62
256
370
-1
  6
ByLayer
 10
-182.00807223683216
 20
35.143958055321008
 30
0.0
 11
-179.00807223683213
 21
35.143958055321008
 31
0.0
  0
LINE
  5
19C
100
AcDbEntity
100
AcDbLine
  8
6 scraper
 62
256
370
-1
  6
ByLayer
 10
-182.50807223683213
 20
38.47395805532102
 30
0.0
 11
-182.50807223683216
 21
35.643958055321008
 31
0.0
  0
LINE
  5
19D
100
AcDbEntity
100
AcDbLine
  8
6 scraper
 62
256
370
-1
  6
ByLayer
 10
-185.50807223683213
 20
35.643958055321008
 30
0.0
 11
-185.50807223683213
 21
38.47395805532102
 31
0.0
  0
LINE
  5
19E
100
AcDbEntity
100
AcDbLine
  8
6 scraper
 62
256
370
-1
  6
ByLayer
 10
-169.00807223683216
 20
30.143958055321001
 30
0.0
 11
-179.00807223683216
 21
30.143958055321008
 31
0.0
  0
LINE
  5
19F
100
AcDbEntity
100
AcDbLine
  8
6 scraper
 62
256
370
-1
  6
ByLayer
 10
-179.00807223683213
 20
127.06775805532098
 30
0.0
 11
-179.00807223683213
 21
122.06775805532098
 31
0.0
  0
LINE
  5
1A0
100
AcDbEntity
100
AcDbLine
  8
6 scraper
 62
256
370
-1
  6
ByLayer
 10
-185.50807223683213
 20
115.56775805532098
 30
0.0
 11
-182.50807223683213
 21
115.56775805532098
 31
0.0
  0
LINE
  5
1A1
100
AcDbEntity
100
AcDbLine
  8
6 scraper
 62
256
370
-1
  6
ByLayer
 10
-186.86807223683212
 20
118.73775805532097
 30
0.0
 11
-186.86807223683212
 21
116.56775805532098
 31
0.0
  0
LINE
  5
1A2
100
AcDbEntity
100
AcDbLine
  8
6 scraper
 62
256
370
-1
  6
ByLayer
 10
-181.14807223683215
 20
116.56775805532098
 30
0.0
 11
-181.14807223683212
 21
118.73775805532097
 31
0.0
  0
LINE
  5
1A3
100
AcDbEntity
100
AcDbLine
  8
6 scraper
 62
256
370
-1
  6
ByLayer
 10
-185.50807223683213
 20
118.73775805532097
 30
0.0
 11
-186.86807223683212
 21
118.73775805532097
 31
0.0
  0
LINE
  5
1A4
100
AcDbEntity
100
AcDbLine
  8
6 scraper
 62
256
370
-1
  6
ByLayer
 10
-181.14807223683212
 20
118.73775805532097
 30
0.0
 11
-182.50807223683213
 21
118.73775805532097
 31
0.0
  0
LINE
  5
1A5
100
AcDbEntity
100
AcDbLine
  8
6 scraper
 62
256
370
-1
  6
ByLayer
 10
-182.50807223683213
 20
115.56775805532098
 30
0.0
 11
-182.50807223683213
 21
116.56775805532098
 31
0.0
  0
LINE
  5
1A6
100
AcDbEntity
100
AcDbLine
  8
6 scraper
 62
256
370
-1
  6
ByLayer
 10
-182.50807223683213
 20
116.56775805532098
 30
0.0
 11
-181.14807223683215
 21
116.56775805532098
 31
0.0
  0
LINE
  5
1A7
100
AcDbEntity
100
AcDbLine
  8
6 scraper
 62
256
370
-1
  6
ByLayer
 10
-186.86807223683212
 20
116.56775805532098
 30
0.0
 11
-185.50807223683213
 21
116.56775805532098
 31
0.0
  0
LINE
  5
1A8
100
AcDbEntity
100
AcDbLine
  8
6 scraper
 62
256
370
-1
  6
ByLayer
 10
-185.50807223683213
 20
116.56775805532098
 30
0.0
 11
-185.50807223683213
 21
115.56775805532098
 31
0.0
  0
ARC
  5
1A9
100
AcDbEntity
  8
6 scraper
 62
256
370
-1
  6
ByLayer
100
AcDbCircle
 10
-186.00807223683213
 20
121.56775805532098
 30
0.0
 40
0.5
100
AcDbArc
 50
0.0
 51
89.999999999999957
  0
LINE
  5
1AA
100
AcDbEntity
100
AcDbLine
  8
6 scraper
 62
256
370
-1
  6
ByLayer
 10
-186.00807223683213
 20
122.06775805532098
 30
0.0
 11
-189.00807223683213
 21
122.06775805532098
 31
0.0
  0
ARC
  5
1AB
100
AcDbEntity
  8
6 scraper
 62
256
370
-1
  6
ByLayer
100
AcDbCircle
 10
-182.00807223683213
 20
121.56775805532098
 30
0.0
 40
0.5
100
AcDbArc
 50
90.000000000000057
 51
180.0
  0
LINE
  5
1AC
100
AcDbEntity
100
AcDbLine
  8
6 scraper
 62
256
370
-1
  6
ByLayer
 10
-182.00807223683213
 20
122.06775805532098
 30
0.0
 11
-179.00807223683213
 21
122.06775805532098
 31
0.0
  0
LINE
  5
1AD
100
AcDbEntity
100
AcDbLine
  8
6 scraper
 62
256
370
-1
  6
ByLayer
 10
-185.50807223683213
 20
121.56775805532098
 30
0.0
 11
-185.50807223683213
 21
118.73775805532097
 31
0.0
  0
LINE
  5
1AE
100
AcDbEntity
100
AcDbLine
  8
6 scraper
 62
256
370
-1
  6
ByLayer
 10
-182.50807223683213
 20
118.73775805532097
 30
0.0
 11
-182.50807223683213
 21
121.56775805532098
 31
0.0
  0
LINE
  5
1AF
100
AcDbEntity
100
AcDbLine
  8
6 scraper
 62
256
370
-1
  6
ByLayer
 10
-179.00807223683213
 20
127.06775805532098
 30
0.0
 11
-169.00807223683213
 21
127.06775805532098
 31
0.0
  0
LINE
  5
1B0
100
AcDbEntity
100
AcDbLine
  8
6 scraper
 62
256
370
-1
  6
ByLayer
 10
-194.00807223683213
 20
30.143958055321001
 30
0.0
 11
-194.00807223683213
 21
127.06775805532098
 31
0.0
  0
LINE
  5
1B1
100
AcDbEntity
100
AcDbLine
  8
6 scraper
 62
256
370
-1
  6
ByLayer
 10
-194.00807223683213
 20
127.06775805532098
 30
0.0
 11
-189.00807223683213
 21
127.06775805532098
 31
0.0
  0
LINE
  5
1B2
100
AcDbEntity
100
AcDbLine
  8
6 scraper
 62
256
370
-1
  6
ByLayer
 10
-189.00807223683213
 20
127.06775805532098
 30
0.0
 11
-189.00807223683213
 21
122.06775805532098
 31
0.0
  0
LINE
  5
1B3
100
AcDbEntity
100
AcDbLine
  8
6 scraper
 62
256
370
-1
  6
ByLayer
 10
-194.00807223683213
 20
30.143958055321001
 30
0.0
 11
-189.00807223683213
 21
30.143958055321008
 31
0.0
  0
LINE
  5
1B4
100
AcDbEntity
100
AcDbLine
  8
6 scraper
 62
256
370
-1
  6
ByLayer
 10
-189.00807223683213
 20
30.143958055321008
 30
0.0
 11
-189.00807223683213
 21
35.143958055321015
 31
0.0
  0
ARC
  5
1B5
100
AcDbEntity
  8
8 brush retainer
 62
256
370
-1
  6
ByLayer
100
AcDbCircle
 10
-138.18413646770196
 20
116.2955133739184
 30
0.0
 40
2.0
100
AcDbArc
 50
0.0
 51
90.0
  0
LINE
  5
1B6
100
AcDbEntity
100
AcDbLine
  8
8 brush retainer
 62
256
370
-1
  6
ByLayer
 10
-136.18413646770196
 20
116.29551337391838
 30
0.0
 11
-136.18413646770196
 21
104.69361337391831
 31
0.0
  0
ARC
  5
1B7
100
AcDbEntity
  8
8 brush retainer
 62
256
370
-1
  6
ByLayer
100
AcDbCircle
 10
-147.14603646770198
 20
116.29551337391838
 30
0.0
 40
2.0
100
AcDbArc
 50
90.0
 51
180.0
  0
LINE
  5
1B8
100
AcDbEntity
100
AcDbLine
  8
8 brush retainer
 62
256
370
-1
  6
ByLayer
 10
-149.14603646770198
 20
104.69361337391831
 30
0.0
 11
-149.14603646770198
 21
116.29551337391838
 31
0.0
  0
LINE
  5
1B9
100
AcDbEntity
100
AcDbLine
  8
8 brush retainer
 62
256
370
-1
  6
ByLayer
 10
-149.14603646770198
 20
104.69361337391831
 30
0.0
 11
-136.18413646770196
 21
104.69361337391831
 31
0.0
  0
LINE
  5
1BA
100
AcDbEntity
100
AcDbLine
  8
8 brush retainer
 62
256
370
-1
  6
ByLayer
 10
-147.14603646770198
 20
118.2955133739184
 30
0.0
 11
-138.18413646770196
 21
118.29551337391837
 31
0.0
  0
CIRCLE
  5
1BB
100
AcDbEntity
100
AcDbCircle
  8
8 brush retainer
 62
256
370
-1
  6
ByLayer
 10
-142.66508646770188
 20
114.83361337391845
 30
0.0
 40
1.5600000000000307
  0
ENDSEC
  0
SECTION
  2
OBJECTS
  0
DICTIONARY
  5
C
100
AcDbDictionary
280
0
281
1
  3
ACAD_GROUP
350
D
  3
ACAD_LAYOUT
350
1A
  3
ACAD_MLINESTYLE
350
17
  3
ACAD_PLOTSETTINGS
350
19
  3
ACAD_PLOTSTYLENAME
350
E
  3
AcDbVariableDictionary
350
1BC
  0
DICTIONARY
  5
D
100
AcDbDictionary
280
0
281
1
  0
ACDBDICTIONARYWDFLT
  5
E
100
AcDbDictionary
281
1
  3
Normal
350
F
100
AcDbDictionaryWithDefault
340
F
  0
ACDBPLACEHOLDER
  5
F
  0
DICTIONARY
  5
17
100
AcDbDictionary
280
0
281
1
  3
Standard
350
18
  0
MLINESTYLE
  5
18
100
AcDbMlineStyle
  2
STANDARD
 70
0
  3

 62
256
 51
90.0
 52
90.0
 71
2
 49
0.5
 62
256
  6
BYLAYER
 49
-0.5
 62
256
  6
BYLAYER
  0
DICTIONARY
  5
19
100
AcDbDictionary
280
0
281
1
  0
DICTIONARY
  5
1A
100
AcDbDictionary
281
1
  3
Layout1
350
1E
  3
Layout2
350
26
  3
Model
350
22
  0
LAYOUT
  5
1E
100
AcDbPlotSettings
  1

  2
C:\Program Files\AutoCAD 2002\plotters\DWF ePlot (optimized for plotting).pc3
  4

  6

 40
0.0
 41
0.0
 42
0.0
 43
0.0
 44
0.0
 45
0.0
 46
0.0
 47
0.0
 48
0.0
 49
0.0
140
0.0
141
0.0
142
1.0
143
1.0
 70
688
 72
0
 73
0
 74
5
  7

 75
16
147
1.0
148
0.0
149
0.0
100
AcDbLayout
  1
Layout1
 70
1
 71
1
 10
0.0
 20
0.0
 11
420.0
 21
297.0
 12
0.0
 22
0.0
 32
0.0
 14
100000000000000000000.0
 24
100000000000000000000.0
 34
100000000000000000000.0
 15
-100000000000000000000.0
 25
-100000000000000000000.0
 35
-100000000000000000000.0
146
0.0
 13
0.0
 23
0.0
 33
0.0
 16
1.0
 26
0.0
 36
0.0
 17
0.0
 27
1.0
 37
0.0
 76
0
330
1B
  0
LAYOUT
  5
22
100
AcDbPlotSettings
  1

  2
C:\Program Files\AutoCAD 2002\plotters\DWF ePlot (optimized for plotting).pc3
  4

  6

 40
0.0
 41
0.0
 42
0.0
 43
0.0
 44
0.0
 45
0.0
 46
0.0
 47
0.0
 48
0.0
 49
0.0
140
0.0
141
0.0
142
1.0
143
1.0
 70
1712
 72
0
 73
0
 74
0
  7

 75
0
147
1.0
148
0.0
149
0.0
100
AcDbLayout
  1
Model
 70
1
 71
0
 10
0.0
 20
0.0
 11
12.0
 21
9.0
 12
0.0
 22
0.0
 32
0.0
 14
0.0
 24
0.0
 34
0.0
 15
0.0
 25
0.0
 35
0.0
146
0.0
 13
0.0
 23
0.0
 33
0.0
 16
1.0
 26
0.0
 36
0.0
 17
0.0
 27
1.0
 37
0.0
 76
0
330
1F
  0
LAYOUT
  5
26
100
AcDbPlotSettings
  1

  2
C:\Program Files\AutoCAD 2002\plotters\DWF ePlot (optimized for plotting).pc3
  4

  6

 40
0.0
 41
0.0
 42
0.0
 43
0.0
 44
0.0
 45
0.0
 46
0.0
 47
0.0
 48
0.0
 49
0.0
140
0.0
141
0.0
142
1.0
143
1.0
 70
688
 72
0
 73
0
 74
5
  7

 75
16
147
1.0
148
0.0
149
0.0
100
AcDbLayout
  1
Layout2
 70
1
 71
2
 10
0.0
 20
0.0
 11
12.0
 21
9.0
 12
0.0
 22
0.0
 32
0.0
 14
0.0
 24
0.0
 34
0.0
 15
0.0
 25
0.0
 35
0.0
146
0.0
 13
0.0
 23
0.0
 33
0.0
 16
1.0
 26
0.0
 36
0.0
 17
0.0
 27
1.0
 37
0.0
 76
0
330
23
  0
DICTIONARY
  5
1BC
100
AcDbDictionary
281
1
  3
DIMASSOC
350
1BE
  3
HIDETEXT
350
1BD
  0
DICTIONARYVAR
  5
1BD
100
DictionaryVariables
280
0
  1
2
  0
DICTIONARYVAR
  5
1BE
100
DictionaryVariables
280
0
  1
1
  0
ENDSEC
  0
EOF
