999
dxflib 2.2.0.0
  0
SECTION
  2
HEADER
  9
$ACADVER
  1
AC1015
  9
$HANDSEED
  5
FFFF
  9
$DIMASZ
 40
2.5
  9
$PLIMMIN
 10
0.0
 20
0.0
  9
$DIMEXE
 40
1.25
  9
$DIMGAP
 40
0.625
  9
$PLIMMAX
 10
210.0
 20
297.0
  9
$INSUNITS
 70
4
  9
$DIMSTYLE
  2
Standard
  9
$CLAYER
  8
0
  9
$DIMEXO
 40
0.625
  9
$DIMTXT
 40
2.5
  9
$CLAYER
  8
4 side cover
  0
ENDSEC
  0
SECTION
  2
TABLES
  0
TABLE
  2
VPORT
  5
8
100
AcDbSymbolTable
 70
1
  0
VPORT
  5
30
100
AcDbSymbolTableRecord
100
AcDbViewportTableRecord
  2
*Active
 70
0
 10
0.0
 20
0.0
 11
1.0
 21
1.0
 12
286.3055555555554861
 22
148.5
 13
0.0
 23
0.0
 14
10.0
 24
10.0
 15
10.0
 25
10.0
 16
0.0
 26
0.0
 36
1.0
 17
0.0
 27
0.0
 37
0.0
 40
297.0
 41
1.92798353909465
 42
50.0
 43
0.0
 44
0.0
 50
0.0
 51
0.0
 71
0
 72
100
 73
1
 74
3
 75
1
 76
1
 77
0
 78
0
281
0
 65
1
110
0.0
120
0.0
130
0.0
111
1.0
121
0.0
131
0.0
112
0.0
122
1.0
132
0.0
 79
0
146
0.0
  0
ENDTAB
  0
TABLE
  2
LTYPE
  5
5
100
AcDbSymbolTable
 70
21
  0
LTYPE
  5
14
100
AcDbSymbolTableRecord
100
AcDbLinetypeTableRecord
  2
ByBlock
 70
0
  3

 72
65
 73
0
 40
0.0
  0
LTYPE
  5
15
100
AcDbSymbolTableRecord
100
AcDbLinetypeTableRecord
  2
ByLayer
 70
0
  3

 72
65
 73
0
 40
0.0
  0
LTYPE
  5
16
100
AcDbSymbolTableRecord
100
AcDbLinetypeTableRecord
  2
CONTINUOUS
 70
0
  3
Solid line
 72
65
 73
0
 40
0.0
  0
LTYPE
  5
31
100
AcDbSymbolTableRecord
100
AcDbLinetypeTableRecord
  2
DOT
 70
0
  3
Dot . . . . . . . . . . . . . . . . . . . . . .
 72
65
 73
2
 40
6.3499999999999996
 49
0.0
 74
0
 49
-6.3499999999999996
 74
0
  0
LTYPE
  5
32
100
AcDbSymbolTableRecord
100
AcDbLinetypeTableRecord
  2
DOT2
 70
0
  3
Dot (.5x) .....................................
 72
65
 73
2
 40
3.1749999999999998
 49
0.0
 74
0
 49
-3.1749999999999998
 74
0
  0
LTYPE
  5
33
100
AcDbSymbolTableRecord
100
AcDbLinetypeTableRecord
  2
DOTX2
 70
0
  3
Dot (2x) .  .  .  .  .  .  .  .  .  .  .  .  .
 72
65
 73
2
 40
12.6999999999999993
 49
0.0
 74
0
 49
-12.6999999999999993
 74
0
  0
LTYPE
  5
34
100
AcDbSymbolTableRecord
100
AcDbLinetypeTableRecord
  2
DASHED
 70
0
  3
Dashed __ __ __ __ __ __ __ __ __ __ __ __ __ _
 72
65
 73
2
 40
19.0500000000000007
 49
12.6999999999999993
 74
0
 49
-6.3499999999999996
 74
0
  0
LTYPE
  5
35
100
AcDbSymbolTableRecord
100
AcDbLinetypeTableRecord
  2
DASHED2
 70
0
  3
Dashed (.5x) _ _ _ _ _ _ _ _ _ _ _ _ _ _ _ _ _
 72
65
 73
2
 40
9.5250000000000004
 49
6.3499999999999996
 74
0
 49
-3.1749999999999998
 74
0
  0
LTYPE
  5
36
100
AcDbSymbolTableRecord
100
AcDbLinetypeTableRecord
  2
DASHEDX2
 70
0
  3
Dashed (2x) ____  ____  ____  ____  ____  ___
 72
65
 73
2
 40
38.1000000000000014
 49
25.3999999999999986
 74
0
 49
-12.6999999999999993
 74
0
  0
LTYPE
  5
37
100
AcDbSymbolTableRecord
100
AcDbLinetypeTableRecord
  2
DASHDOT
 70
0
  3
Dash dot __ . __ . __ . __ . __ . __ . __ . __
 72
65
 73
4
 40
25.3999999999999986
 49
12.6999999999999993
 74
0
 49
-6.3499999999999996
 74
0
 49
0.0
 74
0
 49
-6.3499999999999996
 74
0
  0
LTYPE
  5
38
100
AcDbSymbolTableRecord
100
AcDbLinetypeTableRecord
  2
DASHDOT2
 70
0
  3
Dash dot (.5x) _._._._._._._._._._._._._._._.
 72
65
 73
4
 40
12.6999999999999993
 49
6.3499999999999996
 74
0
 49
-3.1749999999999998
 74
0
 49
0.0
 74
0
 49
-3.1749999999999998
 74
0
  0
LTYPE
  5
39
100
AcDbSymbolTableRecord
100
AcDbLinetypeTableRecord
  2
DASHDOTX2
 70
0
  3
Dash dot (2x) ____  .  ____  .  ____  .  ___
 72
65
 73
4
 40
50.7999999999999972
 49
25.3999999999999986
 74
0
 49
-12.6999999999999993
 74
0
 49
0.0
 74
0
 49
-12.6999999999999993
 74
0
  0
LTYPE
  5
3A
100
AcDbSymbolTableRecord
100
AcDbLinetypeTableRecord
  2
DIVIDE
 70
0
  3
Divide ____ . . ____ . . ____ . . ____ . . ____
 72
65
 73
6
 40
31.75
 49
12.6999999999999993
 74
0
 49
-6.3499999999999996
 74
0
 49
0.0
 74
0
 49
-6.3499999999999996
 74
0
 49
0.0
 74
0
 49
-6.3499999999999996
 74
0
  0
LTYPE
  5
3B
100
AcDbSymbolTableRecord
100
AcDbLinetypeTableRecord
  2
DIVIDE2
 70
0
  3
Divide (.5x) __..__..__..__..__..__..__..__.._
 72
65
 73
6
 40
15.875
 49
6.3499999999999996
 74
0
 49
-3.1749999999999998
 74
0
 49
0.0
 74
0
 49
-3.1749999999999998
 74
0
 49
0.0
 74
0
 49
-3.1749999999999998
 74
0
  0
LTYPE
  5
3C
100
AcDbSymbolTableRecord
100
AcDbLinetypeTableRecord
  2
DIVIDEX2
 70
0
  3
Divide (2x) ________  .  .  ________  .  .  _
 72
65
 73
6
 40
63.5
 49
25.3999999999999986
 74
0
 49
-12.6999999999999993
 74
0
 49
0.0
 74
0
 49
-12.6999999999999993
 74
0
 49
0.0
 74
0
 49
-12.6999999999999993
 74
0
  0
LTYPE
  5
3D
100
AcDbSymbolTableRecord
100
AcDbLinetypeTableRecord
  2
CENTER
 70
0
  3
Center ____ _ ____ _ ____ _ ____ _ ____ _ ____
 72
65
 73
4
 40
50.7999999999999972
 49
31.75
 74
0
 49
-6.3499999999999996
 74
0
 49
6.3499999999999996
 74
0
 49
-6.3499999999999996
 74
0
  0
LTYPE
  5
3E
100
AcDbSymbolTableRecord
100
AcDbLinetypeTableRecord
  2
CENTER2
 70
0
  3
Center (.5x) ___ _ ___ _ ___ _ ___ _ ___ _ ___
 72
65
 73
4
 40
28.5749999999999993
 49
19.0500000000000007
 74
0
 49
-3.1749999999999998
 74
0
 49
3.1749999999999998
 74
0
 49
-3.1749999999999998
 74
0
  0
LTYPE
  5
3F
100
AcDbSymbolTableRecord
100
AcDbLinetypeTableRecord
  2
CENTERX2
 70
0
  3
Center (2x) ________  __  ________  __  _____
 72
65
 73
4
 40
101.5999999999999943
 49
63.5
 74
0
 49
-12.6999999999999993
 74
0
 49
12.6999999999999993
 74
0
 49
-12.6999999999999993
 74
0
  0
LTYPE
  5
40
100
AcDbSymbolTableRecord
100
AcDbLinetypeTableRecord
  2
BORDER
 70
0
  3
Border __ __ . __ __ . __ __ . __ __ . __ __ .
 72
65
 73
6
 40
44.4500000000000028
 49
12.6999999999999993
 74
0
 49
-6.3499999999999996
 74
0
 49
12.6999999999999993
 74
0
 49
-6.3499999999999996
 74
0
 49
0.0
 74
0
 49
-6.3499999999999996
 74
0
  0
LTYPE
  5
41
100
AcDbSymbolTableRecord
100
AcDbLinetypeTableRecord
  2
BORDER2
 70
0
  3
Border (.5x) __.__.__.__.__.__.__.__.__.__.__.
 72
65
 73
6
 40
22.2250000000000014
 49
6.3499999999999996
 74
0
 49
-3.1749999999999998
 74
0
 49
6.3499999999999996
 74
0
 49
-3.1749999999999998
 74
0
 49
0.0
 74
0
 49
-3.1749999999999998
 74
0
  0
LTYPE
  5
42
100
AcDbSymbolTableRecord
100
AcDbLinetypeTableRecord
  2
BORDERX2
 70
0
  3
Border (2x) ____  ____  .  ____  ____  .  ___
 72
65
 73
6
 40
88.9000000000000057
 49
25.3999999999999986
 74
0
 49
-12.6999999999999993
 74
0
 49
25.3999999999999986
 74
0
 49
-12.6999999999999993
 74
0
 49
0.0
 74
0
 49
-12.6999999999999993
 74
0
  0
ENDTAB
  0
TABLE
  2
LAYER
  5
2
100
AcDbSymbolTable
 70
13
  0
LAYER
  5
10
100
AcDbSymbolTableRecord
100
AcDbLayerTableRecord
  2
0
 70
0
 62
7
420
0
  6
CONTINUOUS
370
25
390
F
  0
LAYER
  5
43
100
AcDbSymbolTableRecord
100
AcDbLayerTableRecord
  2
1 bottom
 70
0
 62
7
420
0
  6
CONTINUOUS
370
0
390
F
  0
LAYER
  5
44
100
AcDbSymbolTableRecord
100
AcDbLayerTableRecord
  2
4 side cover
 70
0
 62
7
420
0
  6
CONTINUOUS
370
0
390
F
  0
LAYER
  5
45
100
AcDbSymbolTableRecord
100
AcDbLayerTableRecord
  2
2 top
 70
0
 62
7
420
0
  6
CONTINUOUS
370
0
390
F
  0
LAYER
  5
46
100
AcDbSymbolTableRecord
100
AcDbLayerTableRecord
  2
5 gears
 70
0
 62
7
420
0
  6
CONTINUOUS
370
0
390
F
  0
LAYER
  5
47
100
AcDbSymbolTableRecord
100
AcDbLayerTableRecord
  2
6 scraper
 70
0
 62
7
420
0
  6
CONTINUOUS
370
0
390
F
  0
LAYER
  5
48
100
AcDbSymbolTableRecord
100
AcDbLayerTableRecord
  2
7 belt
 70
0
 62
7
420
0
  6
CONTINUOUS
370
0
390
F
  0
LAYER
  5
49
100
AcDbSymbolTableRecord
100
AcDbLayerTableRecord
  2
5a gear, shaft
 70
0
 62
7
420
0
  6
CONTINUOUS
370
0
390
F
  0
LAYER
  5
4A
100
AcDbSymbolTableRecord
100
AcDbLayerTableRecord
  2
5b gear, motor
 70
0
 62
7
420
0
  6
CONTINUOUS
370
0
390
F
  0
LAYER
  5
4B
100
AcDbSymbolTableRecord
100
AcDbLayerTableRecord
  2
5a gear, motor, A
 70
0
 62
7
420
0
  6
CONTINUOUS
370
0
390
F
  0
LAYER
  5
4C
100
AcDbSymbolTableRecord
100
AcDbLayerTableRecord
  2
5a gear, shaft, A
 70
0
 62
7
420
0
  6
CONTINUOUS
370
0
390
F
  0
LAYER
  5
4D
100
AcDbSymbolTableRecord
100
AcDbLayerTableRecord
  2
8 brush retainer
 70
0
 62
7
420
0
  6
CONTINUOUS
370
0
390
F
  0
LAYER
  5
4E
100
AcDbSymbolTableRecord
100
AcDbLayerTableRecord
  2
4 side
 70
0
 62
7
420
0
  6
CONTINUOUS
370
0
390
F
  0
ENDTAB
  0
TABLE
  2
STYLE
  5
3
100
AcDbSymbolTable
 70
1
  0
STYLE
  5
11
100
AcDbSymbolTableRecord
100
AcDbTextStyleTableRecord
  2
Standard
 70
0
 40
0.0
 41
0.75
 50
0.0
 71
0
 42
2.5
  3
txt
  4

  0
ENDTAB
  0
TABLE
  2
VIEW
  5
6
100
AcDbSymbolTable
 70
0
  0
ENDTAB
  0
TABLE
  2
UCS
  5
7
100
AcDbSymbolTable
 70
0
  0
ENDTAB
  0
TABLE
  2
APPID
  5
9
100
AcDbSymbolTable
 70
1
  0
APPID
  5
12
100
AcDbSymbolTableRecord
100
AcDbRegAppTableRecord
  2
ACAD
 70
0
  0
ENDTAB
  0
TABLE
  2
DIMSTYLE
  5
A
100
AcDbSymbolTable
 70
1
100
AcDbDimStyleTable
 71
0
  0
DIMSTYLE
105
27
100
AcDbSymbolTableRecord
100
AcDbDimStyleTableRecord
  2
Standard
 41
2.5
 42
0.625
 43
3.75
 44
1.25
 70
0
 73
0
 74
0
 77
1
 78
8
140
2.5
141
2.5
143
0.03937007874016
147
0.625
171
3
172
1
271
2
272
2
274
3
278
44
283
0
284
8
340
11
  0
ENDTAB
  0
TABLE
  2
BLOCK_RECORD
  5
1
100
AcDbSymbolTable
 70
1
  0
BLOCK_RECORD
  5
1F
100
AcDbSymbolTableRecord
100
AcDbBlockTableRecord
  2
*Model_Space
340
22
  0
BLOCK_RECORD
  5
1B
100
AcDbSymbolTableRecord
100
AcDbBlockTableRecord
  2
*Paper_Space
340
1E
  0
BLOCK_RECORD
  5
23
100
AcDbSymbolTableRecord
100
AcDbBlockTableRecord
  2
*Paper_Space0
340
26
  0
BLOCK_RECORD
  5
4F
100
AcDbSymbolTableRecord
100
AcDbBlockTableRecord
  2
holes-20
340
0
  0
BLOCK_RECORD
  5
50
100
AcDbSymbolTableRecord
100
AcDbBlockTableRecord
  2
tabs-with-bolt-20
340
0
  0
ENDTAB
  0
ENDSEC
  0
SECTION
  2
BLOCKS
  0
BLOCK
  5
20
100
AcDbEntity
  8
0
100
AcDbBlockBegin
  2
*Model_Space
 70
0
 10
0.0
 20
0.0
 30
0.0
  3
*Model_Space
  1

  0
ENDBLK
  5
21
100
AcDbEntity
  8
0
100
AcDbBlockEnd
  0
BLOCK
  5
1C
100
AcDbEntity
 67
1
  8
0
100
AcDbBlockBegin
  2
*Paper_Space
 70
0
 10
0.0
 20
0.0
 30
0.0
  3
*Paper_Space
  1

  0
ENDBLK
  5
1D
100
AcDbEntity
 67
1
  8
0
100
AcDbBlockEnd
  0
BLOCK
  5
24
100
AcDbEntity
  8
0
100
AcDbBlockBegin
  2
*Paper_Space0
 70
0
 10
0.0
 20
0.0
 30
0.0
  3
*Paper_Space0
  1

  0
ENDBLK
  5
25
100
AcDbEntity
  8
0
100
AcDbBlockEnd
  0
BLOCK
  5
51
100
AcDbEntity
  8
0
100
AcDbBlockBegin
  2
holes-20
 70
0
 10
0.0
 20
0.0
 30
0.0
  3
holes-20
  1

  0
CIRCLE
  5
52
100
AcDbEntity
100
AcDbCircle
  8
0
 62
256
370
-1
  6
ByLayer
 10
0.0
 20
0.0
 30
0.0
 40
1.5
  0
LINE
  5
53
100
AcDbEntity
100
AcDbLine
  8
0
 62
256
370
-1
  6
ByLayer
 10
5.0
 20
2.5000000000000004
 30
0.0
 11
10.0
 21
2.5000000000000009
 31
0.0
  0
LINE
  5
54
100
AcDbEntity
100
AcDbLine
  8
0
 62
256
370
-1
  6
ByLayer
 10
4.9999999999999991
 20
-2.5000000000000013
 30
0.0
 11
10.0
 21
-2.5000000000000031
 31
0.0
  0
LINE
  5
55
100
AcDbEntity
100
AcDbLine
  8
0
 62
256
370
-1
  6
ByLayer
 10
-4.9999999999999991
 20
2.5000000000000004
 30
0.0
 11
-10.0
 21
2.5000000000000022
 31
0.0
  0
LINE
  5
56
100
AcDbEntity
100
AcDbLine
  8
0
 62
256
370
-1
  6
ByLayer
 10
-5.0000000000000018
 20
-2.5
 30
0.0
 11
-10.0
 21
-2.4999999999999996
 31
0.0
  0
LINE
  5
57
100
AcDbEntity
100
AcDbLine
  8
0
 62
256
370
-1
  6
ByLayer
 10
-10.0
 20
2.5000000000000022
 30
0.0
 11
-10.0
 21
-2.4999999999999996
 31
0.0
  0
LINE
  5
58
100
AcDbEntity
100
AcDbLine
  8
0
 62
256
370
-1
  6
ByLayer
 10
-4.9999999999999991
 20
2.5000000000000004
 30
0.0
 11
-5.0000000000000018
 21
-2.5
 31
0.0
  0
LINE
  5
59
100
AcDbEntity
100
AcDbLine
  8
0
 62
256
370
-1
  6
ByLayer
 10
5.0
 20
2.5000000000000004
 30
0.0
 11
4.9999999999999991
 21
-2.5000000000000013
 31
0.0
  0
LINE
  5
5A
100
AcDbEntity
100
AcDbLine
  8
0
 62
256
370
-1
  6
ByLayer
 10
10.0
 20
2.5000000000000009
 30
0.0
 11
10.0
 21
-2.5000000000000031
 31
0.0
  0
ENDBLK
  5
5B
100
AcDbEntity
  8
0
100
AcDbBlockEnd
  0
BLOCK
  5
5C
100
AcDbEntity
  8
0
100
AcDbBlockBegin
  2
tabs-with-bolt-20
 70
0
 10
0.0
 20
0.0
 30
0.0
  3
tabs-with-bolt-20
  1

  0
LINE
  5
5D
100
AcDbEntity
100
AcDbLine
  8
0
 62
256
370
-1
  6
ByLayer
 10
-1.499999999999996
 20
11.5000000000000036
 30
0.0
 11
1.5000000000000056
 21
11.5000000000000036
 31
0.0
  0
LINE
  5
5E
100
AcDbEntity
100
AcDbLine
  8
0
 62
256
370
-1
  6
ByLayer
 10
-2.8599999999999914
 20
8.3300000000000018
 30
0.0
 11
-2.8599999999999892
 21
10.5000000000000053
 31
0.0
  0
LINE
  5
5F
100
AcDbEntity
100
AcDbLine
  8
0
 62
256
370
-1
  6
ByLayer
 10
2.8600000000000017
 20
10.4999999999999982
 30
0.0
 11
2.8599999999999972
 21
8.3300000000000018
 31
0.0
  0
LINE
  5
60
100
AcDbEntity
100
AcDbLine
  8
0
 62
256
370
-1
  6
ByLayer
 10
-1.4999999999999982
 20
8.3300000000000054
 30
0.0
 11
-2.8599999999999914
 21
8.3300000000000018
 31
0.0
  0
LINE
  5
61
100
AcDbEntity
100
AcDbLine
  8
0
 62
256
370
-1
  6
ByLayer
 10
2.8599999999999972
 20
8.3300000000000018
 30
0.0
 11
1.5000000000000049
 21
8.3299999999999983
 31
0.0
  0
LINE
  5
62
100
AcDbEntity
100
AcDbLine
  8
0
 62
256
370
-1
  6
ByLayer
 10
1.5000000000000056
 20
11.5000000000000036
 30
0.0
 11
1.5000000000000024
 21
10.5000000000000036
 31
0.0
  0
LINE
  5
63
100
AcDbEntity
100
AcDbLine
  8
0
 62
256
370
-1
  6
ByLayer
 10
1.5000000000000024
 20
10.5000000000000036
 30
0.0
 11
2.8600000000000017
 21
10.4999999999999982
 31
0.0
  0
LINE
  5
64
100
AcDbEntity
100
AcDbLine
  8
0
 62
256
370
-1
  6
ByLayer
 10
-2.8599999999999892
 20
10.5000000000000053
 30
0.0
 11
-1.4999999999999976
 21
10.5000000000000053
 31
0.0
  0
LINE
  5
65
100
AcDbEntity
100
AcDbLine
  8
0
 62
256
370
-1
  6
ByLayer
 10
-1.4999999999999976
 20
10.5000000000000053
 30
0.0
 11
-1.499999999999996
 21
11.5000000000000036
 31
0.0
  0
LINE
  5
66
100
AcDbEntity
100
AcDbLine
  8
0
 62
256
370
-1
  6
ByLayer
 10
-10.0000000000000018
 20
-4.4999999999999947
 30
0.0
 11
-10.0
 21
0.0000000000000018
 31
0.0
  0
ARC
  5
67
100
AcDbEntity
  8
0
 62
256
370
-1
  6
ByLayer
100
AcDbCircle
 10
-9.5000000000000036
 20
-4.4999999999999929
 30
0.0
 40
0.5
100
AcDbArc
 50
180.0
 51
270.0
  0
LINE
  5
68
100
AcDbEntity
100
AcDbLine
  8
0
 62
256
370
-1
  6
ByLayer
 10
-5.4999999999999964
 20
-5.0
 30
0.0
 11
-9.5000000000000036
 21
-4.9999999999999929
 31
0.0
  0
LINE
  5
69
100
AcDbEntity
100
AcDbLine
  8
0
 62
256
370
-1
  6
ByLayer
 10
-4.9999999999999982
 20
0.0000000000000009
 30
0.0
 11
-5.0000000000000018
 21
-4.4999999999999947
 31
0.0
  0
ARC
  5
6A
100
AcDbEntity
  8
0
 62
256
370
-1
  6
ByLayer
100
AcDbCircle
 10
-5.4999999999999982
 20
-4.4999999999999982
 30
0.0
 40
0.5
100
AcDbArc
 50
270.0
 51
0.0
  0
LINE
  5
6B
100
AcDbEntity
100
AcDbLine
  8
0
 62
256
370
-1
  6
ByLayer
 10
-1.9999999999999973
 20
0.0000000000000049
 30
0.0
 11
-4.9999999999999982
 21
0.0000000000000009
 31
0.0
  0
LINE
  5
6C
100
AcDbEntity
100
AcDbLine
  8
0
 62
256
370
-1
  6
ByLayer
 10
-1.4999999999999978
 20
0.5000000000000058
 30
0.0
 11
-1.4999999999999982
 21
8.3300000000000054
 31
0.0
  0
ARC
  5
6D
100
AcDbEntity
  8
0
 62
256
370
-1
  6
ByLayer
100
AcDbCircle
 10
-1.9999999999999982
 20
0.5000000000000058
 30
0.0
 40
0.5
100
AcDbArc
 50
270.0000000000000568
 51
0.0
  0
LINE
  5
6E
100
AcDbEntity
100
AcDbLine
  8
0
 62
256
370
-1
  6
ByLayer
 10
1.5000000000000049
 20
8.3299999999999983
 30
0.0
 11
1.4999999999999967
 21
0.5000000000000013
 31
0.0
  0
LINE
  5
6F
100
AcDbEntity
100
AcDbLine
  8
0
 62
256
370
-1
  6
ByLayer
 10
1.9999999999999978
 20
0.0000000000000027
 30
0.0
 11
4.9999999999999982
 21
-0.0000000000000009
 31
0.0
  0
ARC
  5
70
100
AcDbEntity
  8
0
 62
256
370
-1
  6
ByLayer
100
AcDbCircle
 10
1.9999999999999991
 20
0.500000000000004
 30
0.0
 40
0.5
100
AcDbArc
 50
180.0
 51
269.9999999999999432
  0
LINE
  5
71
100
AcDbEntity
100
AcDbLine
  8
0
 62
256
370
-1
  6
ByLayer
 10
4.9999999999999982
 20
-0.0000000000000009
 30
0.0
 11
5.0
 21
-4.4999999999999982
 31
0.0
  0
ARC
  5
72
100
AcDbEntity
  8
0
 62
256
370
-1
  6
ByLayer
100
AcDbCircle
 10
5.4999999999999964
 20
-4.5
 30
0.0
 40
0.5
100
AcDbArc
 50
180.0
 51
270.0
  0
LINE
  5
73
100
AcDbEntity
100
AcDbLine
  8
0
 62
256
370
-1
  6
ByLayer
 10
5.4999999999999929
 20
-5.0000000000000018
 30
0.0
 11
9.4999999999999947
 21
-5.0000000000000053
 31
0.0
  0
LINE
  5
74
100
AcDbEntity
100
AcDbLine
  8
0
 62
256
370
-1
  6
ByLayer
 10
9.9999999999999947
 20
-4.5000000000000018
 30
0.0
 11
9.9999999999999982
 21
-0.0000000000000071
 31
0.0
  0
ARC
  5
75
100
AcDbEntity
  8
0
 62
256
370
-1
  6
ByLayer
100
AcDbCircle
 10
9.5000000000000018
 20
-4.4999999999999982
 30
0.0
 40
0.5
100
AcDbArc
 50
270.0
 51
0.0
  0
ENDBLK
  5
76
100
AcDbEntity
  8
0
100
AcDbBlockEnd
  0
ENDSEC
  0
SECTION
  2
ENTITIES
  0
CIRCLE
  5
77
100
AcDbEntity
100
AcDbCircle
  8
2 top
 62
256
370
-1
  6
ByLayer
 10
-25.9618999999999787
 20
-247.5190500000000497
 30
0.0
 40
1.5
  0
CIRCLE
  5
78
100
AcDbEntity
100
AcDbCircle
  8
2 top
 62
256
370
-1
  6
ByLayer
 10
65.9619000000000284
 20
-247.5190500000001066
 30
0.0
 40
1.5
  0
CIRCLE
  5
79
100
AcDbEntity
100
AcDbCircle
  8
2 top
 62
256
370
-1
  6
ByLayer
 10
-25.9619000000000995
 20
-339.4428500000000213
 30
0.0
 40
1.5
  0
CIRCLE
  5
7A
100
AcDbEntity
100
AcDbCircle
  8
2 top
 62
256
370
-1
  6
ByLayer
 10
65.9618999999999573
 20
-339.442850000000135
 30
0.0
 40
1.5
  0
LINE
  5
7B
100
AcDbEntity
100
AcDbLine
  8
2 top
 62
256
370
-1
  6
ByLayer
 10
60.9999999999999716
 20
-243.4809499999999503
 30
0.0
 11
60.9999999999999716
 21
-252.4809500000000639
 31
0.0
  0
LINE
  5
7C
100
AcDbEntity
100
AcDbLine
  8
2 top
 62
256
370
-1
  6
ByLayer
 10
60.9999999999999716
 20
-243.4809499999999503
 30
0.0
 11
70.0000000000000284
 21
-243.4809499999999787
 31
0.0
  0
CIRCLE
  5
7D
100
AcDbEntity
100
AcDbCircle
  8
2 top
 62
256
370
-1
  6
ByLayer
 10
20.0000000000015312
 20
-238.9809499999998366
 30
0.0
 40
2.3999999999999999
  0
ARC
  5
7E
100
AcDbEntity
  8
2 top
 62
256
370
-1
  6
ByLayer
100
AcDbCircle
 10
24.4809500000013998
 20
-236.4809499999999503
 30
0.0
 40
2.0
100
AcDbArc
 50
0.0
 51
90.0
  0
ARC
  5
7F
100
AcDbEntity
  8
2 top
 62
256
370
-1
  6
ByLayer
100
AcDbCircle
 10
15.5190500000013927
 20
-236.4809499999999503
 30
0.0
 40
2.0
100
AcDbArc
 50
90.0
 51
180.0
  0
LINE
  5
80
100
AcDbEntity
100
AcDbLine
  8
2 top
 62
256
370
-1
  6
ByLayer
 10
15.5190500000013927
 20
-234.4809499999999503
 30
0.0
 11
24.4809500000014069
 21
-234.4809499999999503
 31
0.0
  0
LINE
  5
81
100
AcDbEntity
100
AcDbLine
  8
2 top
 62
256
370
-1
  6
ByLayer
 10
13.0190512975914636
 20
-245.0190500000000782
 30
0.0
 11
13.019051297591453
 21
-250.0190500000001066
 31
0.0
  0
LINE
  5
82
100
AcDbEntity
100
AcDbLine
  8
2 top
 62
256
370
-1
  6
ByLayer
 10
13.0190512975913784
 20
-336.9428500000000213
 30
0.0
 11
13.0190512975913766
 21
-341.9428500000000213
 31
0.0
  0
ARC
  5
83
100
AcDbEntity
  8
2 top
 62
256
370
-1
  6
ByLayer
100
AcDbCircle
 10
46.4999999999999716
 20
-252.4809500000000639
 30
0.0
 40
14.5
100
AcDbArc
 50
180.0
 51
0.0
  0
CIRCLE
  5
84
100
AcDbEntity
100
AcDbCircle
  8
2 top
 62
256
370
-1
  6
ByLayer
 10
19.9999999999999716
 20
-297.5190500000000497
 30
0.0
 40
3.0
  0
LINE
  5
85
100
AcDbEntity
100
AcDbLine
  8
2 top
 62
256
370
-1
  6
ByLayer
 10
70.0
 20
-243.4809499999999503
 30
0.0
 11
69.9999999999999432
 21
-345.5190500000001066
 31
0.0
  0
ARC
  5
86
100
AcDbEntity
  8
2 top
 62
256
370
-1
  6
ByLayer
100
AcDbCircle
 10
11.5190512975913784
 20
-239.5190500000000497
 30
0.0
 40
2.0
100
AcDbArc
 50
270.0
 51
360.0
  0
LINE
  5
87
100
AcDbEntity
100
AcDbLine
  8
2 top
 62
256
370
-1
  6
ByLayer
 10
28.4809512975913854
 20
-241.5190500000000213
 30
0.0
 11
31.9999999999999716
 21
-241.5190500000000213
 31
0.0
  0
ARC
  5
88
100
AcDbEntity
  8
2 top
 62
256
370
-1
  6
ByLayer
100
AcDbCircle
 10
28.4809512975913854
 20
-239.5190500000000213
 30
0.0
 40
2.0
100
AcDbArc
 50
180.0
 51
270.0
  0
LINE
  5
89
100
AcDbEntity
100
AcDbLine
  8
2 top
 62
256
370
-1
  6
ByLayer
 10
31.9999999999999716
 20
-252.4809500000000639
 30
0.0
 11
31.9999999999999716
 21
-241.5190500000000213
 31
0.0
  0
LINE
  5
8A
100
AcDbEntity
100
AcDbLine
  8
2 top
 62
256
370
-1
  6
ByLayer
 10
26.4809501066148982
 20
-236.4809498240555286
 30
0.0
 11
26.4809508302761643
 21
-239.5190504763907029
 31
0.0
  0
LINE
  5
8B
100
AcDbEntity
100
AcDbLine
  8
2 top
 62
256
370
-1
  6
ByLayer
 10
13.5190508877743838
 20
-239.5190495822246248
 30
0.0
 11
13.5190502531525638
 21
-236.4809501542961527
 31
0.0
  0
LINE
  5
8C
100
AcDbEntity
100
AcDbLine
  8
2 top
 62
256
370
-1
  6
ByLayer
 10
-17.0000000000000426
 20
-336.9428500000000213
 30
0.0
 11
-17.0000000000000497
 21
-341.9428500000000213
 31
0.0
  0
LINE
  5
8D
100
AcDbEntity
100
AcDbLine
  8
2 top
 62
256
370
-1
  6
ByLayer
 10
13.0190512975913784
 20
-336.9428500000000213
 30
0.0
 11
-17.0000000000000426
 21
-336.9428500000000213
 31
0.0
  0
LINE
  5
8E
100
AcDbEntity
100
AcDbLine
  8
2 top
 62
256
370
-1
  6
ByLayer
 10
-17.0000000000000497
 20
-341.9428500000000213
 30
0.0
 11
13.0190512975913766
 21
-341.9428500000000213
 31
0.0
  0
LINE
  5
8F
100
AcDbEntity
100
AcDbLine
  8
2 top
 62
256
370
-1
  6
ByLayer
 10
-17.0000000000000142
 20
-245.0190500000000497
 30
0.0
 11
-17.0000000000000355
 21
-250.0190500000000782
 31
0.0
  0
LINE
  5
90
100
AcDbEntity
100
AcDbLine
  8
2 top
 62
256
370
-1
  6
ByLayer
 10
-17.0000000000000355
 20
-250.0190500000000782
 30
0.0
 11
13.019051297591453
 21
-250.0190500000001066
 31
0.0
  0
LINE
  5
91
100
AcDbEntity
100
AcDbLine
  8
2 top
 62
256
370
-1
  6
ByLayer
 10
13.0190512975914636
 20
-245.0190500000000782
 30
0.0
 11
-17.0000000000000142
 21
-245.0190500000000497
 31
0.0
  0
LINE
  5
92
100
AcDbEntity
100
AcDbLine
  8
2 top
 62
256
370
-1
  6
ByLayer
 10
-27.461899995272141
 20
-250.5190500000000497
 30
0.0
 11
-27.4618999952721552
 21
-241.5190500000000497
 31
0.0
  0
LINE
  5
93
100
AcDbEntity
100
AcDbLine
  8
2 top
 62
256
370
-1
  6
ByLayer
 10
-27.4618999952721481
 20
-345.5190499999999361
 30
0.0
 11
-27.4618999952721481
 21
-336.5190500000000497
 31
0.0
  0
LINE
  5
94
100
AcDbEntity
100
AcDbLine
  8
2 top
 62
256
370
-1
  6
ByLayer
 10
-27.4618999952721552
 20
-241.5190500000000497
 30
0.0
 11
11.5190512975913677
 21
-241.5190500000000497
 31
0.0
  0
LINE
  5
95
100
AcDbEntity
100
AcDbLine
  8
2 top
 62
256
370
-1
  6
ByLayer
 10
69.9999999999999432
 20
-345.5190500000001066
 30
0.0
 11
-27.4618999952721481
 21
-345.5190499999999361
 31
0.0
  0
LINE
  5
96
100
AcDbEntity
100
AcDbLine
  8
2 top
 62
256
370
-1
  6
ByLayer
 10
-29.9999999999999787
 20
-250.5190500000000497
 30
0.0
 11
-27.461899995272141
 21
-250.5190500000000497
 31
0.0
  0
LINE
  5
97
100
AcDbEntity
100
AcDbLine
  8
2 top
 62
256
370
-1
  6
ByLayer
 10
-30.0000000000000497
 20
-336.5190500000000497
 30
0.0
 11
-27.4618999952721481
 21
-336.5190500000000497
 31
0.0
  0
CIRCLE
  5
98
100
AcDbEntity
100
AcDbCircle
  8
1 bottom
 62
256
370
-1
  6
ByLayer
 10
-66.0000000000000853
 20
-297.5188499999998726
 30
0.0
 40
2.75
  0
CIRCLE
  5
99
100
AcDbEntity
100
AcDbCircle
  8
1 bottom
 62
256
370
-1
  6
ByLayer
 10
-86.1000000000000227
 20
-284.5188499999998726
 30
0.0
 40
2.75
  0
CIRCLE
  5
9A
100
AcDbEntity
100
AcDbCircle
  8
1 bottom
 62
256
370
-1
  6
ByLayer
 10
-45.9000000000000412
 20
-284.5188499999999294
 30
0.0
 40
2.75
  0
LINE
  5
9B
100
AcDbEntity
100
AcDbLine
  8
1 bottom
 62
256
370
-1
  6
ByLayer
 10
-59.2300000000001106
 20
-315.1488499999999249
 30
0.0
 11
-61.9700000000001054
 21
-315.1488499999999249
 31
0.0
  0
LINE
  5
9C
100
AcDbEntity
100
AcDbLine
  8
1 bottom
 62
256
370
-1
  6
ByLayer
 10
-59.2300000000001106
 20
-317.8888499999998771
 30
0.0
 11
-59.2300000000001106
 21
-315.1488499999999249
 31
0.0
  0
LINE
  5
9D
100
AcDbEntity
100
AcDbLine
  8
1 bottom
 62
256
370
-1
  6
ByLayer
 10
-61.9700000000001054
 20
-315.1488499999999249
 30
0.0
 11
-61.9700000000001197
 21
-317.8888499999998771
 31
0.0
  0
LINE
  5
9E
100
AcDbEntity
100
AcDbLine
  8
1 bottom
 62
256
370
-1
  6
ByLayer
 10
-61.9700000000001197
 20
-317.8888499999998771
 30
0.0
 11
-59.2300000000001106
 21
-317.8888499999998771
 31
0.0
  0
LINE
  5
9F
100
AcDbEntity
100
AcDbLine
  8
1 bottom
 62
256
370
-1
  6
ByLayer
 10
-70.0300000000001148
 20
-315.1488499999999249
 30
0.0
 11
-72.7700000000000955
 21
-315.1488499999999249
 31
0.0
  0
LINE
  5
A0
100
AcDbEntity
100
AcDbLine
  8
1 bottom
 62
256
370
-1
  6
ByLayer
 10
-70.0300000000001148
 20
-317.8888499999998203
 30
0.0
 11
-70.0300000000001148
 21
-315.1488499999999249
 31
0.0
  0
LINE
  5
A1
100
AcDbEntity
100
AcDbLine
  8
1 bottom
 62
256
370
-1
  6
ByLayer
 10
-72.7700000000000955
 20
-315.1488499999999249
 30
0.0
 11
-72.7700000000001239
 21
-317.8888499999998771
 31
0.0
  0
LINE
  5
A2
100
AcDbEntity
100
AcDbLine
  8
1 bottom
 62
256
370
-1
  6
ByLayer
 10
-72.7700000000001239
 20
-317.8888499999998771
 30
0.0
 11
-70.0300000000001148
 21
-317.8888499999998203
 31
0.0
  0
LINE
  5
A3
100
AcDbEntity
100
AcDbLine
  8
1 bottom
 62
256
370
-1
  6
ByLayer
 10
-64.6300000000000523
 20
-283.1488499999999249
 30
0.0
 11
-67.3700000000000614
 21
-283.1488499999999249
 31
0.0
  0
LINE
  5
A4
100
AcDbEntity
100
AcDbLine
  8
1 bottom
 62
256
370
-1
  6
ByLayer
 10
-64.6300000000000807
 20
-285.8888499999998771
 30
0.0
 11
-64.6300000000000523
 21
-283.1488499999999249
 31
0.0
  0
LINE
  5
A5
100
AcDbEntity
100
AcDbLine
  8
1 bottom
 62
256
370
-1
  6
ByLayer
 10
-67.3700000000000614
 20
-283.1488499999999249
 30
0.0
 11
-67.3700000000000614
 21
-285.8888499999998771
 31
0.0
  0
LINE
  5
A6
100
AcDbEntity
100
AcDbLine
  8
1 bottom
 62
256
370
-1
  6
ByLayer
 10
-67.3700000000000614
 20
-285.8888499999998771
 30
0.0
 11
-64.6300000000000807
 21
-285.8888499999998771
 31
0.0
  0
LINE
  5
A7
100
AcDbEntity
100
AcDbLine
  8
1 bottom
 62
256
370
-1
  6
ByLayer
 10
-59.2300000000000821
 20
-269.1488499999999249
 30
0.0
 11
-61.9700000000000628
 21
-269.1488499999999249
 31
0.0
  0
LINE
  5
A8
100
AcDbEntity
100
AcDbLine
  8
1 bottom
 62
256
370
-1
  6
ByLayer
 10
-59.2300000000000821
 20
-271.8888499999998771
 30
0.0
 11
-59.2300000000000821
 21
-269.1488499999999249
 31
0.0
  0
LINE
  5
A9
100
AcDbEntity
100
AcDbLine
  8
1 bottom
 62
256
370
-1
  6
ByLayer
 10
-61.9700000000000628
 20
-269.1488499999999249
 30
0.0
 11
-61.9700000000000628
 21
-271.8888499999998771
 31
0.0
  0
LINE
  5
AA
100
AcDbEntity
100
AcDbLine
  8
1 bottom
 62
256
370
-1
  6
ByLayer
 10
-61.9700000000000628
 20
-271.8888499999998771
 30
0.0
 11
-59.2300000000000821
 21
-271.8888499999998771
 31
0.0
  0
LINE
  5
AB
100
AcDbEntity
100
AcDbLine
  8
1 bottom
 62
256
370
-1
  6
ByLayer
 10
-70.030000000000058
 20
-269.1488499999999249
 30
0.0
 11
-72.7700000000000671
 21
-269.1488499999999249
 31
0.0
  0
LINE
  5
AC
100
AcDbEntity
100
AcDbLine
  8
1 bottom
 62
256
370
-1
  6
ByLayer
 10
-70.030000000000058
 20
-271.8888499999998771
 30
0.0
 11
-70.030000000000058
 21
-269.1488499999999249
 31
0.0
  0
LINE
  5
AD
100
AcDbEntity
100
AcDbLine
  8
1 bottom
 62
256
370
-1
  6
ByLayer
 10
-72.7700000000000671
 20
-269.1488499999999249
 30
0.0
 11
-72.7700000000000671
 21
-271.8888499999998771
 31
0.0
  0
LINE
  5
AE
100
AcDbEntity
100
AcDbLine
  8
1 bottom
 62
256
370
-1
  6
ByLayer
 10
-72.7700000000000671
 20
-271.8888499999998771
 30
0.0
 11
-70.030000000000058
 21
-271.8888499999998771
 31
0.0
  0
INSERT
  5
AF
100
AcDbEntity
100
AcDbBlockReference
  8
1 bottom
 62
256
370
-1
  6
ByLayer
  2
holes-20
 10
-82.9999974048172078
 20
-247.5188499999998726
 30
0.0
 50
360.0
 44
1.0
 45
1.0
  0
CIRCLE
  5
B0
100
AcDbEntity
100
AcDbCircle
  8
1 bottom
 62
256
370
-1
  6
ByLayer
 10
-50.9600000000000577
 20
-284.478849999999909
 30
0.0
 40
2.7000000000000002
  0
CIRCLE
  5
B1
100
AcDbEntity
100
AcDbCircle
  8
1 bottom
 62
256
370
-1
  6
ByLayer
 10
-65.9600000000000648
 20
-299.478849999999909
 30
0.0
 40
2.7000000000000002
  0
CIRCLE
  5
B2
100
AcDbEntity
100
AcDbCircle
  8
1 bottom
 62
256
370
-1
  6
ByLayer
 10
-80.9600000000000648
 20
-284.478849999999909
 30
0.0
 40
2.7000000000000002
  0
INSERT
  5
B3
100
AcDbEntity
100
AcDbBlockReference
  8
1 bottom
 62
256
370
-1
  6
ByLayer
  2
holes-20
 10
-82.9999974048172362
 20
-339.4426499999998441
 30
0.0
 50
360.0
 44
1.0
 45
1.0
  0
INSERT
  5
B4
100
AcDbEntity
100
AcDbBlockReference
  8
1 bottom
 62
256
370
-1
  6
ByLayer
  2
holes-20
 10
-49.0000000000000213
 20
-247.5188499999998726
 30
0.0
 50
360.0
 44
1.0
 45
1.0
  0
INSERT
  5
B5
100
AcDbEntity
100
AcDbBlockReference
  8
1 bottom
 62
256
370
-1
  6
ByLayer
  2
holes-20
 10
-49.0000000000000924
 20
-339.4426499999998441
 30
0.0
 50
360.0
 44
1.0
 45
1.0
  0
LINE
  5
B6
100
AcDbEntity
100
AcDbLine
  8
1 bottom
 62
256
370
-1
  6
ByLayer
 10
-30.0000000000000497
 20
-345.5190499999999361
 30
0.0
 11
-102.0000000000000284
 21
-345.5190499999999361
 31
0.0
  0
LINE
  5
B7
100
AcDbEntity
100
AcDbLine
  8
1 bottom
 62
256
370
-1
  6
ByLayer
 10
-102.0000000000000284
 20
-345.5190499999999361
 30
0.0
 11
-101.9999999999999432
 21
-241.5190499999999361
 31
0.0
  0
LINE
  5
B8
100
AcDbEntity
100
AcDbLine
  8
1 bottom
 62
256
370
-1
  6
ByLayer
 10
-29.9999999999999645
 20
-241.5190499999999361
 30
0.0
 11
-30.0000000000000497
 21
-345.5190499999999361
 31
0.0
  0
LINE
  5
B9
100
AcDbEntity
100
AcDbLine
  8
1 bottom
 62
256
370
-1
  6
ByLayer
 10
-101.9999999999999432
 20
-241.5190499999999361
 30
0.0
 11
-29.9999999999999645
 21
-241.5190499999999361
 31
0.0
  0
LINE
  5
BA
100
AcDbEntity
100
AcDbLine
  8
6 scraper
 62
256
370
-1
  6
ByLayer
 10
70.0
 20
-243.4809499999999787
 30
0.0
 11
75.0
 21
-243.4809499999999787
 31
0.0
  0
LINE
  5
BB
100
AcDbEntity
100
AcDbLine
  8
6 scraper
 62
256
370
-1
  6
ByLayer
 10
75.0
 20
-243.4809499999999787
 30
0.0
 11
75.0
 21
-248.4809499999999787
 31
0.0
  0
LINE
  5
BC
100
AcDbEntity
100
AcDbLine
  8
6 scraper
 62
256
370
-1
  6
ByLayer
 10
69.9999999999999858
 20
-340.4047499999999786
 30
0.0
 11
74.9999999999999716
 21
-340.4047499999999218
 31
0.0
  0
LINE
  5
BD
100
AcDbEntity
100
AcDbLine
  8
6 scraper
 62
256
370
-1
  6
ByLayer
 10
78.5
 20
-328.3014518719527928
 30
0.0
 11
81.5
 21
-328.3014518719527928
 31
0.0
  0
LINE
  5
BE
100
AcDbEntity
100
AcDbLine
  8
6 scraper
 62
256
370
-1
  6
ByLayer
 10
77.1400000000000006
 20
-331.4714518719528087
 30
0.0
 11
77.1400000000000006
 21
-329.3014518719527928
 31
0.0
  0
LINE
  5
BF
100
AcDbEntity
100
AcDbLine
  8
6 scraper
 62
256
370
-1
  6
ByLayer
 10
82.8599999999999852
 20
-329.3014518719527928
 30
0.0
 11
82.8599999999999852
 21
-331.4714518719528087
 31
0.0
  0
LINE
  5
C0
100
AcDbEntity
100
AcDbLine
  8
6 scraper
 62
256
370
-1
  6
ByLayer
 10
78.5
 20
-331.4714518719528087
 30
0.0
 11
77.1400000000000006
 21
-331.4714518719528087
 31
0.0
  0
LINE
  5
C1
100
AcDbEntity
100
AcDbLine
  8
6 scraper
 62
256
370
-1
  6
ByLayer
 10
82.8599999999999852
 20
-331.4714518719528087
 30
0.0
 11
81.4999999999999716
 21
-331.4714518719528087
 31
0.0
  0
LINE
  5
C2
100
AcDbEntity
100
AcDbLine
  8
6 scraper
 62
256
370
-1
  6
ByLayer
 10
81.5
 20
-328.3014518719527928
 30
0.0
 11
81.5
 21
-329.3014518719527928
 31
0.0
  0
LINE
  5
C3
100
AcDbEntity
100
AcDbLine
  8
6 scraper
 62
256
370
-1
  6
ByLayer
 10
81.5
 20
-329.3014518719527928
 30
0.0
 11
82.8599999999999852
 21
-329.3014518719527928
 31
0.0
  0
LINE
  5
C4
100
AcDbEntity
100
AcDbLine
  8
6 scraper
 62
256
370
-1
  6
ByLayer
 10
77.1400000000000006
 20
-329.3014518719527928
 30
0.0
 11
78.4999999999999858
 21
-329.3014518719527928
 31
0.0
  0
LINE
  5
C5
100
AcDbEntity
100
AcDbLine
  8
6 scraper
 62
256
370
-1
  6
ByLayer
 10
78.4999999999999858
 20
-329.3014518719527928
 30
0.0
 11
78.5
 21
-328.3014518719527928
 31
0.0
  0
LINE
  5
C6
100
AcDbEntity
100
AcDbLine
  8
6 scraper
 62
256
370
-1
  6
ByLayer
 10
78.4999999999999858
 20
-334.9047499999999218
 30
0.0
 11
78.5
 21
-331.4714518719528087
 31
0.0
  0
LINE
  5
C7
100
AcDbEntity
100
AcDbLine
  8
6 scraper
 62
256
370
-1
  6
ByLayer
 10
81.4999999999999716
 20
-331.4714518719528087
 30
0.0
 11
81.5
 21
-334.9047499999999786
 31
0.0
  0
LINE
  5
C8
100
AcDbEntity
100
AcDbLine
  8
6 scraper
 62
256
370
-1
  6
ByLayer
 10
77.9999999999999716
 20
-335.4047499999999218
 30
0.0
 11
75.0000000000000142
 21
-335.4047499999999786
 31
0.0
  0
ARC
  5
C9
100
AcDbEntity
  8
6 scraper
 62
256
370
-1
  6
ByLayer
100
AcDbCircle
 10
77.9999999999999716
 20
-334.9047499999999786
 30
0.0
 40
0.5
100
AcDbArc
 50
270.0000000000000568
 51
0.0
  0
ARC
  5
CA
100
AcDbEntity
  8
6 scraper
 62
256
370
-1
  6
ByLayer
100
AcDbCircle
 10
81.9999999999999716
 20
-334.9047499999999786
 30
0.0
 40
0.5
100
AcDbArc
 50
180.0
 51
269.9999999999999432
  0
ARC
  5
CB
100
AcDbEntity
  8
6 scraper
 62
256
370
-1
  6
ByLayer
100
AcDbCircle
 10
77.9999999999999716
 20
-334.9047499999999786
 30
0.0
 40
0.5
100
AcDbArc
 50
270.0000000000000568
 51
0.0
  0
ARC
  5
CC
100
AcDbEntity
  8
6 scraper
 62
256
370
-1
  6
ByLayer
100
AcDbCircle
 10
81.9999999999999716
 20
-334.9047499999999786
 30
0.0
 40
0.5
100
AcDbArc
 50
180.0
 51
269.9999999999999432
  0
LINE
  5
CD
100
AcDbEntity
100
AcDbLine
  8
6 scraper
 62
256
370
-1
  6
ByLayer
 10
78.5
 20
-255.5842481280471077
 30
0.0
 11
81.5
 21
-255.5842481280471077
 31
0.0
  0
LINE
  5
CE
100
AcDbEntity
100
AcDbLine
  8
6 scraper
 62
256
370
-1
  6
ByLayer
 10
77.1400000000000148
 20
-252.4142481280471202
 30
0.0
 11
77.1400000000000148
 21
-254.5842481280471077
 31
0.0
  0
LINE
  5
CF
100
AcDbEntity
100
AcDbLine
  8
6 scraper
 62
256
370
-1
  6
ByLayer
 10
82.8600000000000136
 20
-254.5842481280471077
 30
0.0
 11
82.8600000000000136
 21
-252.4142481280471202
 31
0.0
  0
LINE
  5
D0
100
AcDbEntity
100
AcDbLine
  8
6 scraper
 62
256
370
-1
  6
ByLayer
 10
78.5
 20
-252.4142481280471202
 30
0.0
 11
77.1400000000000148
 21
-252.4142481280471202
 31
0.0
  0
LINE
  5
D1
100
AcDbEntity
100
AcDbLine
  8
6 scraper
 62
256
370
-1
  6
ByLayer
 10
82.8600000000000136
 20
-252.4142481280471202
 30
0.0
 11
81.5
 21
-252.4142481280470918
 31
0.0
  0
LINE
  5
D2
100
AcDbEntity
100
AcDbLine
  8
6 scraper
 62
256
370
-1
  6
ByLayer
 10
81.5
 20
-255.5842481280471077
 30
0.0
 11
81.5
 21
-254.5842481280471077
 31
0.0
  0
LINE
  5
D3
100
AcDbEntity
100
AcDbLine
  8
6 scraper
 62
256
370
-1
  6
ByLayer
 10
81.5
 20
-254.5842481280471077
 30
0.0
 11
82.8600000000000136
 21
-254.5842481280471077
 31
0.0
  0
LINE
  5
D4
100
AcDbEntity
100
AcDbLine
  8
6 scraper
 62
256
370
-1
  6
ByLayer
 10
77.1400000000000148
 20
-254.5842481280471077
 30
0.0
 11
78.5
 21
-254.5842481280471077
 31
0.0
  0
LINE
  5
D5
100
AcDbEntity
100
AcDbLine
  8
6 scraper
 62
256
370
-1
  6
ByLayer
 10
78.5
 20
-254.5842481280471077
 30
0.0
 11
78.5
 21
-255.5842481280471077
 31
0.0
  0
LINE
  5
D6
100
AcDbEntity
100
AcDbLine
  8
6 scraper
 62
256
370
-1
  6
ByLayer
 10
78.5
 20
-248.9809499999999787
 30
0.0
 11
78.5
 21
-252.4142481280471202
 31
0.0
  0
LINE
  5
D7
100
AcDbEntity
100
AcDbLine
  8
6 scraper
 62
256
370
-1
  6
ByLayer
 10
81.5
 20
-252.4142481280470918
 30
0.0
 11
81.5
 21
-248.9809499999999787
 31
0.0
  0
ARC
  5
D8
100
AcDbEntity
  8
6 scraper
 62
256
370
-1
  6
ByLayer
100
AcDbCircle
 10
78.0
 20
-248.9809499999999787
 30
0.0
 40
0.5
100
AcDbArc
 50
0.0
 51
89.9999999999999574
  0
ARC
  5
D9
100
AcDbEntity
  8
6 scraper
 62
256
370
-1
  6
ByLayer
100
AcDbCircle
 10
82.0
 20
-248.9809499999999787
 30
0.0
 40
0.5
100
AcDbArc
 50
90.0000000000000568
 51
180.0
  0
LINE
  5
DA
100
AcDbEntity
100
AcDbLine
  8
6 scraper
 62
256
370
-1
  6
ByLayer
 10
78.0
 20
-248.4809499999999787
 30
0.0
 11
75.0
 21
-248.4809499999999787
 31
0.0
  0
ARC
  5
DB
100
AcDbEntity
  8
6 scraper
 62
256
370
-1
  6
ByLayer
100
AcDbCircle
 10
78.0
 20
-248.9809499999999787
 30
0.0
 40
0.5
100
AcDbArc
 50
0.0
 51
89.9999999999999574
  0
ARC
  5
DC
100
AcDbEntity
  8
6 scraper
 62
256
370
-1
  6
ByLayer
100
AcDbCircle
 10
82.0
 20
-248.9809499999999787
 30
0.0
 40
0.5
100
AcDbArc
 50
90.0000000000000568
 51
180.0
  0
LINE
  5
DD
100
AcDbEntity
100
AcDbLine
  8
6 scraper
 62
256
370
-1
  6
ByLayer
 10
92.6875
 20
-248.4809499999999787
 30
0.0
 11
92.6875
 21
-335.4047499999999218
 31
0.0
  0
LINE
  5
DE
100
AcDbEntity
100
AcDbLine
  8
6 scraper
 62
256
370
-1
  6
ByLayer
 10
82.0
 20
-335.4047499999999786
 30
0.0
 11
92.6875
 21
-335.4047499999999218
 31
0.0
  0
LINE
  5
DF
100
AcDbEntity
100
AcDbLine
  8
6 scraper
 62
256
370
-1
  6
ByLayer
 10
82.0
 20
-248.4809499999999787
 30
0.0
 11
92.6875
 21
-248.4809499999999787
 31
0.0
  0
LINE
  5
E0
100
AcDbEntity
100
AcDbLine
  8
8 brush retainer
 62
256
370
-1
  6
ByLayer
 10
75.0000000000000142
 20
-335.4047499999999786
 30
0.0
 11
75.0000000000000142
 21
-348.3666499999999928
 31
0.0
  0
ARC
  5
E1
100
AcDbEntity
  8
8 brush retainer
 62
256
370
-1
  6
ByLayer
100
AcDbCircle
 10
88.5381000000002274
 20
-346.3666487024099752
 30
0.0
 40
2.0
100
AcDbArc
 50
270.0
 51
360.0
  0
ARC
  5
E2
100
AcDbEntity
  8
8 brush retainer
 62
256
370
-1
  6
ByLayer
100
AcDbCircle
 10
88.5381000000001706
 20
-337.4047487024100178
 30
0.0
 40
2.0
100
AcDbArc
 50
360.0
 51
90.0
  0
LINE
  5
E3
100
AcDbEntity
100
AcDbLine
  8
8 brush retainer
 62
256
370
-1
  6
ByLayer
 10
90.5381000000002274
 20
-337.4047487024100178
 30
0.0
 11
90.5381000000001706
 21
-346.366648702410032
 31
0.0
  0
LINE
  5
E4
100
AcDbEntity
100
AcDbLine
  8
8 brush retainer
 62
256
370
-1
  6
ByLayer
 10
75.0000000000000142
 20
-335.4047499999999786
 30
0.0
 11
88.5380995822246888
 21
-335.4047489555611605
 31
0.0
  0
LINE
  5
E5
100
AcDbEntity
100
AcDbLine
  8
8 brush retainer
 62
256
370
-1
  6
ByLayer
 10
88.5381001759445923
 20
-348.3666488090235021
 30
0.0
 11
75.0000000000000142
 21
-348.3666499999999928
 31
0.0
  0
LINE
  5
E6
100
AcDbEntity
100
AcDbLine
  8
8 brush retainer
 62
256
370
-1
  6
ByLayer
 10
87.5581000000000955
 20
-341.8856987024086038
 30
0.0
 11
90.5381000000001706
 21
-341.8856987024086038
 31
0.0
  0
CIRCLE
  5
E7
100
AcDbEntity
100
AcDbCircle
  8
8 brush retainer
 62
256
370
-1
  6
ByLayer
 10
86.0381000000000569
 20
-341.8856987024086038
 30
0.0
 40
1.5600000000000001
  0
LINE
  5
E8
100
AcDbEntity
100
AcDbLine
  8
7 belt
 62
256
370
-1
  6
ByLayer
 10
-138.0022208691212313
 20
-417.4997605849102342
 30
0.0
 11
-53.0022208691212171
 21
-502.4997605849101205
 31
0.0
  0
LINE
  5
E9
100
AcDbEntity
100
AcDbLine
  8
7 belt
 62
256
370
-1
  6
ByLayer
 10
198.0022208691212313
 20
-502.4997605849103479
 30
0.0
 11
113.002220869120535
 21
-417.4997605849101774
 31
0.0
  0
LINE
  5
EA
100
AcDbEntity
100
AcDbLine
  8
7 belt
 62
256
370
-1
  6
ByLayer
 10
-137.997779130879394
 20
-417.5002394150897658
 30
0.0
 11
113.0022208691205918
 21
-417.5002394150898226
 31
0.0
  0
LINE
  5
EB
100
AcDbEntity
100
AcDbLine
  8
7 belt
 62
256
370
-1
  6
ByLayer
 10
198.002220869120606
 20
-502.5002394150898226
 30
0.0
 11
-52.9977791308794082
 21
-502.5002394150898226
 31
0.0
  0
CIRCLE
  5
EC
100
AcDbEntity
100
AcDbCircle
  8
4 side
 62
256
370
-1
  6
ByLayer
 10
141.673124158676103
 20
-281.5603473531459144
 30
0.0
 40
3.5
  0
ARC
  5
ED
100
AcDbEntity
  8
4 side
 62
256
370
-1
  6
ByLayer
100
AcDbCircle
 10
138.3742240337477369
 20
-267.1090473531460816
 30
0.0
 40
2.1560000000000001
100
AcDbArc
 50
136.4199999999999875
 51
270.0
  0
ARC
  5
EE
100
AcDbEntity
  8
4 side
 62
256
370
-1
  6
ByLayer
100
AcDbCircle
 10
134.6742240337477483
 20
-276.0103473531460168
 30
0.0
 40
1.0
100
AcDbArc
 50
89.9999999999995879
 51
89.9999999999995879
  0
LINE
  5
EF
100
AcDbEntity
100
AcDbLine
  8
4 side
 62
256
370
-1
  6
ByLayer
 10
137.4305480295889197
 20
-269.0508909614665072
 30
0.0
 11
135.0424502476117254
 21
-275.0806111241954
 31
0.0
  0
CIRCLE
  5
F0
100
AcDbEntity
100
AcDbCircle
  8
4 side
 62
256
370
-1
  6
ByLayer
 10
136.1731240337477402
 20
-281.5603473531461418
 30
0.0
 40
1.2
  0
CIRCLE
  5
F1
100
AcDbEntity
100
AcDbCircle
  8
4 side
 62
256
370
-1
  6
ByLayer
 10
147.1731240337477402
 20
-281.5603473531460281
 30
0.0
 40
1.2
  0
ARC
  5
F2
100
AcDbEntity
  8
4 side
 62
256
370
-1
  6
ByLayer
100
AcDbCircle
 10
138.3742240337477369
 20
-267.1090473531460816
 30
0.0
 40
2.1590000000000034
100
AcDbArc
 50
244.081679959216558
 51
33.3967167573164119
  0
ARC
  5
F3
100
AcDbEntity
  8
4 side
 62
256
370
-1
  6
ByLayer
100
AcDbCircle
 10
149.7123240337477057
 20
-270.2103473531460622
 30
0.0
 40
0.5
100
AcDbArc
 50
90.0000000000000568
 51
180.0
  0
ARC
  5
F4
100
AcDbEntity
  8
4 side
 62
256
370
-1
  6
ByLayer
100
AcDbCircle
 10
237.6361240337477625
 20
-270.2103473531460622
 30
0.0
 40
0.5
100
AcDbArc
 50
0.0
 51
89.9999999999999574
  0
LINE
  5
F5
100
AcDbEntity
100
AcDbLine
  8
4 side
 62
256
370
-1
  6
ByLayer
 10
146.2123240337477057
 20
-276.3136654655299367
 30
0.0
 11
149.2123240337477057
 21
-276.3136654655299935
 31
0.0
  0
LINE
  5
F6
100
AcDbEntity
100
AcDbLine
  8
4 side
 62
256
370
-1
  6
ByLayer
 10
144.8523240337477205
 20
-273.1436654655299776
 30
0.0
 11
144.8523240337477205
 21
-275.3136654655299935
 31
0.0
  0
LINE
  5
F7
100
AcDbEntity
100
AcDbLine
  8
4 side
 62
256
370
-1
  6
ByLayer
 10
150.5723240337476909
 20
-275.3136654655299935
 30
0.0
 11
150.5723240337476909
 21
-273.1436654655299776
 31
0.0
  0
LINE
  5
F8
100
AcDbEntity
100
AcDbLine
  8
4 side
 62
256
370
-1
  6
ByLayer
 10
146.2123240337477057
 20
-273.1436654655299776
 30
0.0
 11
144.8523240337477205
 21
-273.1436654655299776
 31
0.0
  0
LINE
  5
F9
100
AcDbEntity
100
AcDbLine
  8
4 side
 62
256
370
-1
  6
ByLayer
 10
150.5723240337476909
 20
-273.1436654655299776
 30
0.0
 11
149.2123240337477057
 21
-273.1436654655299776
 31
0.0
  0
LINE
  5
FA
100
AcDbEntity
100
AcDbLine
  8
4 side
 62
256
370
-1
  6
ByLayer
 10
149.2123240337477057
 20
-276.3136654655299935
 30
0.0
 11
149.2123240337477057
 21
-275.3136654655299935
 31
0.0
  0
LINE
  5
FB
100
AcDbEntity
100
AcDbLine
  8
4 side
 62
256
370
-1
  6
ByLayer
 10
149.2123240337477057
 20
-275.3136654655299935
 30
0.0
 11
150.5723240337476909
 21
-275.3136654655299935
 31
0.0
  0
LINE
  5
FC
100
AcDbEntity
100
AcDbLine
  8
4 side
 62
256
370
-1
  6
ByLayer
 10
144.8523240337477205
 20
-275.3136654655299935
 30
0.0
 11
146.2123240337477057
 21
-275.3136654655299935
 31
0.0
  0
LINE
  5
FD
100
AcDbEntity
100
AcDbLine
  8
4 side
 62
256
370
-1
  6
ByLayer
 10
146.2123240337477057
 20
-275.3136654655299935
 30
0.0
 11
146.2123240337477057
 21
-276.3136654655299367
 31
0.0
  0
LINE
  5
FE
100
AcDbEntity
100
AcDbLine
  8
4 side
 62
256
370
-1
  6
ByLayer
 10
238.1361240337477625
 20
-276.3136654655299935
 30
0.0
 11
241.1361240337477625
 21
-276.3136654655300504
 31
0.0
  0
LINE
  5
FF
100
AcDbEntity
100
AcDbLine
  8
4 side
 62
256
370
-1
  6
ByLayer
 10
236.7761240337477773
 20
-273.1436654655299776
 30
0.0
 11
236.7761240337477773
 21
-275.3136654655299935
 31
0.0
  0
LINE
  5
100
100
AcDbEntity
100
AcDbLine
  8
4 side
 62
256
370
-1
  6
ByLayer
 10
242.4961240337477761
 20
-275.3136654655300504
 30
0.0
 11
242.4961240337477761
 21
-273.1436654655299776
 31
0.0
  0
LINE
  5
101
100
AcDbEntity
100
AcDbLine
  8
4 side
 62
256
370
-1
  6
ByLayer
 10
238.1361240337477625
 20
-273.1436654655300345
 30
0.0
 11
236.7761240337477773
 21
-273.1436654655299776
 31
0.0
  0
LINE
  5
102
100
AcDbEntity
100
AcDbLine
  8
4 side
 62
256
370
-1
  6
ByLayer
 10
242.4961240337477761
 20
-273.1436654655299776
 30
0.0
 11
241.1361240337477625
 21
-273.1436654655299776
 31
0.0
  0
LINE
  5
103
100
AcDbEntity
100
AcDbLine
  8
4 side
 62
256
370
-1
  6
ByLayer
 10
241.1361240337477625
 20
-276.3136654655300504
 30
0.0
 11
241.1361240337477625
 21
-275.3136654655299935
 31
0.0
  0
LINE
  5
104
100
AcDbEntity
100
AcDbLine
  8
4 side
 62
256
370
-1
  6
ByLayer
 10
241.1361240337477625
 20
-275.3136654655299935
 30
0.0
 11
242.4961240337477761
 21
-275.3136654655300504
 31
0.0
  0
LINE
  5
105
100
AcDbEntity
100
AcDbLine
  8
4 side
 62
256
370
-1
  6
ByLayer
 10
236.7761240337477773
 20
-275.3136654655299935
 30
0.0
 11
238.1361240337477625
 21
-275.3136654655300504
 31
0.0
  0
LINE
  5
106
100
AcDbEntity
100
AcDbLine
  8
4 side
 62
256
370
-1
  6
ByLayer
 10
238.1361240337477625
 20
-275.3136654655300504
 30
0.0
 11
238.1361240337477625
 21
-276.3136654655299935
 31
0.0
  0
LINE
  5
107
100
AcDbEntity
100
AcDbLine
  8
4 side
 62
256
370
-1
  6
ByLayer
 10
149.2123240337477057
 20
-273.1436654655299776
 30
0.0
 11
149.2123240337477057
 21
-270.2103473531460622
 31
0.0
  0
LINE
  5
108
100
AcDbEntity
100
AcDbLine
  8
4 side
 62
256
370
-1
  6
ByLayer
 10
238.1361240337477625
 20
-270.2103473531460622
 30
0.0
 11
238.1361240337477625
 21
-273.1436654655300345
 31
0.0
  0
LINE
  5
109
100
AcDbEntity
100
AcDbLine
  8
4 side
 62
256
370
-1
  6
ByLayer
 10
187.1932753313391515
 20
-274.7103473531460622
 30
0.0
 11
200.1551753313391657
 21
-274.7103473531460622
 31
0.0
  0
LINE
  5
10A
100
AcDbEntity
100
AcDbLine
  8
4 side
 62
256
370
-1
  6
ByLayer
 10
200.1551753313391657
 20
-269.7103473531460622
 30
0.0
 11
200.1551753313391657
 21
-274.7103473531460622
 31
0.0
  0
LINE
  5
10B
100
AcDbEntity
100
AcDbLine
  8
4 side
 62
256
370
-1
  6
ByLayer
 10
237.6361240337477625
 20
-269.7103473531460622
 30
0.0
 11
200.1551753313391657
 21
-269.7103473531460622
 31
0.0
  0
CIRCLE
  5
10C
100
AcDbEntity
100
AcDbCircle
  8
4 side
 62
256
370
-1
  6
ByLayer
 10
126.843426686812748
 20
-280.5087205858862376
 30
0.0
 40
1.5
  0
LINE
  5
10D
100
AcDbEntity
100
AcDbLine
  8
4 side
 62
256
370
-1
  6
ByLayer
 10
118.3424399523712793
 20
-283.7717538853088968
 30
0.0
 11
129.3936415309275958
 21
-267.9890023787882569
 31
0.0
  0
LINE
  5
10E
100
AcDbEntity
100
AcDbLine
  8
4 side
 62
256
370
-1
  6
ByLayer
 10
119.0597822125798046
 20
-287.266299937898907
 30
0.0
 11
121.9276643943350393
 21
-283.1705397164537885
 31
0.0
  0
LINE
  5
10F
100
AcDbEntity
100
AcDbLine
  8
4 side
 62
256
370
-1
  6
ByLayer
 10
121.9276643943350393
 20
-283.1705397164537885
 30
0.0
 11
126.0233094728806407
 21
-286.0383412742829137
 31
0.0
  0
ARC
  5
110
100
AcDbEntity
  8
4 side
 62
256
370
-1
  6
ByLayer
100
AcDbCircle
 10
120.4483841087705969
 20
-285.1603557814995042
 30
0.0
 40
2.5225415786418957
100
AcDbArc
 50
146.6002355807795823
 51
236.6002355807798381
  0
LINE
  5
111
100
AcDbEntity
100
AcDbLine
  8
4 side
 62
256
370
-1
  6
ByLayer
 10
123.3010798558860301
 20
-289.926088075688142
 30
0.0
 11
126.0233094728806407
 21
-286.0383412742829137
 31
0.0
  0
LINE
  5
112
100
AcDbEntity
100
AcDbLine
  8
4 side
 62
256
370
-1
  6
ByLayer
 10
186.6742266289305405
 20
-286.560347353146085
 30
0.0
 11
200.6742240337477483
 21
-286.560347353146085
 31
0.0
  0
LINE
  5
113
100
AcDbEntity
100
AcDbLine
  8
4 side
 62
256
370
-1
  6
ByLayer
 10
175.1742266289305689
 20
-279.4570492250988991
 30
0.0
 11
178.1742266289305689
 21
-279.4570492250988991
 31
0.0
  0
LINE
  5
114
100
AcDbEntity
100
AcDbLine
  8
4 side
 62
256
370
-1
  6
ByLayer
 10
173.8142266289305553
 20
-282.627049225098915
 30
0.0
 11
173.8142266289305553
 21
-280.457049225098956
 31
0.0
  0
LINE
  5
115
100
AcDbEntity
100
AcDbLine
  8
4 side
 62
256
370
-1
  6
ByLayer
 10
179.5342266289305542
 20
-280.4570492250988991
 30
0.0
 11
179.5342266289305542
 21
-282.6270492250989719
 31
0.0
  0
LINE
  5
116
100
AcDbEntity
100
AcDbLine
  8
4 side
 62
256
370
-1
  6
ByLayer
 10
175.1742266289305689
 20
-282.627049225098915
 30
0.0
 11
173.8142266289305553
 21
-282.627049225098915
 31
0.0
  0
LINE
  5
117
100
AcDbEntity
100
AcDbLine
  8
4 side
 62
256
370
-1
  6
ByLayer
 10
179.5342266289305542
 20
-282.6270492250989719
 30
0.0
 11
178.1742266289305689
 21
-282.627049225098915
 31
0.0
  0
LINE
  5
118
100
AcDbEntity
100
AcDbLine
  8
4 side
 62
256
370
-1
  6
ByLayer
 10
178.1742266289305689
 20
-279.4570492250988991
 30
0.0
 11
178.1742266289305689
 21
-280.457049225098956
 31
0.0
  0
LINE
  5
119
100
AcDbEntity
100
AcDbLine
  8
4 side
 62
256
370
-1
  6
ByLayer
 10
178.1742266289305689
 20
-280.457049225098956
 30
0.0
 11
179.5342266289305542
 21
-280.4570492250988991
 31
0.0
  0
LINE
  5
11A
100
AcDbEntity
100
AcDbLine
  8
4 side
 62
256
370
-1
  6
ByLayer
 10
173.8142266289305553
 20
-280.457049225098956
 30
0.0
 11
175.1742266289305689
 21
-280.457049225098956
 31
0.0
  0
LINE
  5
11B
100
AcDbEntity
100
AcDbLine
  8
4 side
 62
256
370
-1
  6
ByLayer
 10
175.1742266289305689
 20
-280.457049225098956
 30
0.0
 11
175.1742266289305689
 21
-279.4570492250988991
 31
0.0
  0
LINE
  5
11C
100
AcDbEntity
100
AcDbLine
  8
4 side
 62
256
370
-1
  6
ByLayer
 10
175.1742266289305689
 20
-286.060347353146085
 30
0.0
 11
175.1742266289305689
 21
-282.627049225098915
 31
0.0
  0
LINE
  5
11D
100
AcDbEntity
100
AcDbLine
  8
4 side
 62
256
370
-1
  6
ByLayer
 10
178.1742266289305689
 20
-282.627049225098915
 30
0.0
 11
178.1742266289305689
 21
-286.060347353146085
 31
0.0
  0
LINE
  5
11E
100
AcDbEntity
100
AcDbLine
  8
4 side
 62
256
370
-1
  6
ByLayer
 10
166.6742266289305689
 20
-291.060347353146085
 30
0.0
 11
166.6742266289305405
 21
-286.560347353146085
 31
0.0
  0
ARC
  5
11F
100
AcDbEntity
  8
4 side
 62
256
370
-1
  6
ByLayer
100
AcDbCircle
 10
167.1742266289305405
 20
-291.060347353146085
 30
0.0
 40
0.5
100
AcDbArc
 50
180.0
 51
270.0
  0
LINE
  5
120
100
AcDbEntity
100
AcDbLine
  8
4 side
 62
256
370
-1
  6
ByLayer
 10
171.1742266289305405
 20
-291.560347353146085
 30
0.0
 11
167.1742266289305405
 21
-291.560347353146085
 31
0.0
  0
LINE
  5
121
100
AcDbEntity
100
AcDbLine
  8
4 side
 62
256
370
-1
  6
ByLayer
 10
171.6742266289305689
 20
-286.560347353146085
 30
0.0
 11
171.6742266289305405
 21
-291.060347353146085
 31
0.0
  0
ARC
  5
122
100
AcDbEntity
  8
4 side
 62
256
370
-1
  6
ByLayer
100
AcDbCircle
 10
171.1742266289305405
 20
-291.060347353146085
 30
0.0
 40
0.5
100
AcDbArc
 50
270.0
 51
0.0
  0
LINE
  5
123
100
AcDbEntity
100
AcDbLine
  8
4 side
 62
256
370
-1
  6
ByLayer
 10
174.6742266289305689
 20
-286.560347353146085
 30
0.0
 11
171.6742266289305689
 21
-286.560347353146085
 31
0.0
  0
ARC
  5
124
100
AcDbEntity
  8
4 side
 62
256
370
-1
  6
ByLayer
100
AcDbCircle
 10
174.6742266289305689
 20
-286.060347353146085
 30
0.0
 40
0.5
100
AcDbArc
 50
270.0000000000000568
 51
0.0
  0
LINE
  5
125
100
AcDbEntity
100
AcDbLine
  8
4 side
 62
256
370
-1
  6
ByLayer
 10
178.6742266289305405
 20
-286.560347353146085
 30
0.0
 11
181.6742266289305405
 21
-286.560347353146085
 31
0.0
  0
ARC
  5
126
100
AcDbEntity
  8
4 side
 62
256
370
-1
  6
ByLayer
100
AcDbCircle
 10
178.6742266289305689
 20
-286.060347353146085
 30
0.0
 40
0.5
100
AcDbArc
 50
180.0
 51
269.9999999999999432
  0
LINE
  5
127
100
AcDbEntity
100
AcDbLine
  8
4 side
 62
256
370
-1
  6
ByLayer
 10
181.6742266289305405
 20
-286.560347353146085
 30
0.0
 11
181.6742266289305405
 21
-291.060347353146085
 31
0.0
  0
ARC
  5
128
100
AcDbEntity
  8
4 side
 62
256
370
-1
  6
ByLayer
100
AcDbCircle
 10
182.1742266289305405
 20
-291.060347353146085
 30
0.0
 40
0.5
100
AcDbArc
 50
180.0
 51
270.0
  0
LINE
  5
129
100
AcDbEntity
100
AcDbLine
  8
4 side
 62
256
370
-1
  6
ByLayer
 10
182.1742266289305405
 20
-291.560347353146085
 30
0.0
 11
186.1742266289305405
 21
-291.560347353146085
 31
0.0
  0
LINE
  5
12A
100
AcDbEntity
100
AcDbLine
  8
4 side
 62
256
370
-1
  6
ByLayer
 10
186.6742266289305405
 20
-291.060347353146085
 30
0.0
 11
186.6742266289305405
 21
-286.560347353146085
 31
0.0
  0
ARC
  5
12B
100
AcDbEntity
  8
4 side
 62
256
370
-1
  6
ByLayer
100
AcDbCircle
 10
186.1742266289305405
 20
-291.060347353146085
 30
0.0
 40
0.5
100
AcDbArc
 50
270.0
 51
0.0
  0
LINE
  5
12C
100
AcDbEntity
100
AcDbLine
  8
4 side
 62
256
370
-1
  6
ByLayer
 10
209.1742240337477483
 20
-279.4570492250988991
 30
0.0
 11
212.1742240337477483
 21
-279.4570492250988423
 31
0.0
  0
LINE
  5
12D
100
AcDbEntity
100
AcDbLine
  8
4 side
 62
256
370
-1
  6
ByLayer
 10
207.8142240337477631
 20
-282.627049225098915
 30
0.0
 11
207.8142240337477631
 21
-280.4570492250988991
 31
0.0
  0
LINE
  5
12E
100
AcDbEntity
100
AcDbLine
  8
4 side
 62
256
370
-1
  6
ByLayer
 10
213.534224033747762
 20
-280.4570492250990696
 30
0.0
 11
213.534224033747762
 21
-282.6270492250989719
 31
0.0
  0
LINE
  5
12F
100
AcDbEntity
100
AcDbLine
  8
4 side
 62
256
370
-1
  6
ByLayer
 10
209.1742240337477483
 20
-282.627049225098915
 30
0.0
 11
207.8142240337477631
 21
-282.627049225098915
 31
0.0
  0
LINE
  5
130
100
AcDbEntity
100
AcDbLine
  8
4 side
 62
256
370
-1
  6
ByLayer
 10
213.534224033747762
 20
-282.6270492250989719
 30
0.0
 11
212.1742240337477483
 21
-282.6270492250989719
 31
0.0
  0
LINE
  5
131
100
AcDbEntity
100
AcDbLine
  8
4 side
 62
256
370
-1
  6
ByLayer
 10
212.1742240337477483
 20
-279.4570492250988423
 30
0.0
 11
212.1742240337477483
 21
-280.457049225098956
 31
0.0
  0
LINE
  5
132
100
AcDbEntity
100
AcDbLine
  8
4 side
 62
256
370
-1
  6
ByLayer
 10
212.1742240337477483
 20
-280.457049225098956
 30
0.0
 11
213.534224033747762
 21
-280.4570492250990696
 31
0.0
  0
LINE
  5
133
100
AcDbEntity
100
AcDbLine
  8
4 side
 62
256
370
-1
  6
ByLayer
 10
207.8142240337477631
 20
-280.4570492250988991
 30
0.0
 11
209.1742240337477483
 21
-280.4570492250988991
 31
0.0
  0
LINE
  5
134
100
AcDbEntity
100
AcDbLine
  8
4 side
 62
256
370
-1
  6
ByLayer
 10
209.1742240337477483
 20
-280.4570492250988991
 30
0.0
 11
209.1742240337477483
 21
-279.4570492250988991
 31
0.0
  0
LINE
  5
135
100
AcDbEntity
100
AcDbLine
  8
4 side
 62
256
370
-1
  6
ByLayer
 10
209.1742240337477483
 20
-286.060347353146085
 30
0.0
 11
209.1742240337477483
 21
-282.627049225098915
 31
0.0
  0
LINE
  5
136
100
AcDbEntity
100
AcDbLine
  8
4 side
 62
256
370
-1
  6
ByLayer
 10
212.1742240337477483
 20
-282.6270492250989719
 30
0.0
 11
212.1742240337477483
 21
-286.060347353146085
 31
0.0
  0
LINE
  5
137
100
AcDbEntity
100
AcDbLine
  8
4 side
 62
256
370
-1
  6
ByLayer
 10
208.6742240337477483
 20
-286.560347353146085
 30
0.0
 11
205.6742240337477483
 21
-286.560347353146085
 31
0.0
  0
ARC
  5
138
100
AcDbEntity
  8
4 side
 62
256
370
-1
  6
ByLayer
100
AcDbCircle
 10
208.6742240337477483
 20
-286.060347353146085
 30
0.0
 40
0.5
100
AcDbArc
 50
270.0000000000000568
 51
0.0
  0
LINE
  5
139
100
AcDbEntity
100
AcDbLine
  8
4 side
 62
256
370
-1
  6
ByLayer
 10
212.6742240337477483
 20
-286.560347353146085
 30
0.0
 11
215.6742240337477483
 21
-286.560347353146085
 31
0.0
  0
ARC
  5
13A
100
AcDbEntity
  8
4 side
 62
256
370
-1
  6
ByLayer
100
AcDbCircle
 10
212.6742240337477483
 20
-286.060347353146085
 30
0.0
 40
0.5
100
AcDbArc
 50
180.0
 51
269.9999999999999432
  0
LINE
  5
13B
100
AcDbEntity
100
AcDbLine
  8
4 side
 62
256
370
-1
  6
ByLayer
 10
200.6742240337477483
 20
-291.060347353146085
 30
0.0
 11
200.6742240337477483
 21
-286.560347353146085
 31
0.0
  0
ARC
  5
13C
100
AcDbEntity
  8
4 side
 62
256
370
-1
  6
ByLayer
100
AcDbCircle
 10
201.1742240337477483
 20
-291.060347353146085
 30
0.0
 40
0.5
100
AcDbArc
 50
180.0
 51
270.0
  0
LINE
  5
13D
100
AcDbEntity
100
AcDbLine
  8
4 side
 62
256
370
-1
  6
ByLayer
 10
205.1742240337477483
 20
-291.560347353146085
 30
0.0
 11
201.1742240337477483
 21
-291.560347353146085
 31
0.0
  0
LINE
  5
13E
100
AcDbEntity
100
AcDbLine
  8
4 side
 62
256
370
-1
  6
ByLayer
 10
205.6742240337477483
 20
-286.560347353146085
 30
0.0
 11
205.6742240337477483
 21
-291.060347353146085
 31
0.0
  0
ARC
  5
13F
100
AcDbEntity
  8
4 side
 62
256
370
-1
  6
ByLayer
100
AcDbCircle
 10
205.1742240337477483
 20
-291.060347353146085
 30
0.0
 40
0.5
100
AcDbArc
 50
270.0
 51
0.0
  0
LINE
  5
140
100
AcDbEntity
100
AcDbLine
  8
4 side
 62
256
370
-1
  6
ByLayer
 10
208.6742240337477483
 20
-286.560347353146085
 30
0.0
 11
205.6742240337477483
 21
-286.560347353146085
 31
0.0
  0
ARC
  5
141
100
AcDbEntity
  8
4 side
 62
256
370
-1
  6
ByLayer
100
AcDbCircle
 10
208.6742240337477483
 20
-286.060347353146085
 30
0.0
 40
0.5
100
AcDbArc
 50
270.0000000000000568
 51
0.0
  0
LINE
  5
142
100
AcDbEntity
100
AcDbLine
  8
4 side
 62
256
370
-1
  6
ByLayer
 10
212.6742240337477483
 20
-286.560347353146085
 30
0.0
 11
215.6742240337477483
 21
-286.560347353146085
 31
0.0
  0
ARC
  5
143
100
AcDbEntity
  8
4 side
 62
256
370
-1
  6
ByLayer
100
AcDbCircle
 10
212.6742240337477483
 20
-286.060347353146085
 30
0.0
 40
0.5
100
AcDbArc
 50
180.0
 51
269.9999999999999432
  0
LINE
  5
144
100
AcDbEntity
100
AcDbLine
  8
4 side
 62
256
370
-1
  6
ByLayer
 10
215.6742240337477483
 20
-286.560347353146085
 30
0.0
 11
215.6742240337477483
 21
-291.060347353146085
 31
0.0
  0
ARC
  5
145
100
AcDbEntity
  8
4 side
 62
256
370
-1
  6
ByLayer
100
AcDbCircle
 10
216.1742240337477483
 20
-291.060347353146085
 30
0.0
 40
0.5
100
AcDbArc
 50
180.0
 51
270.0
  0
LINE
  5
146
100
AcDbEntity
100
AcDbLine
  8
4 side
 62
256
370
-1
  6
ByLayer
 10
216.1742240337477483
 20
-291.560347353146085
 30
0.0
 11
220.1742240337477483
 21
-291.560347353146085
 31
0.0
  0
LINE
  5
147
100
AcDbEntity
100
AcDbLine
  8
4 side
 62
256
370
-1
  6
ByLayer
 10
220.6742240337477483
 20
-291.060347353146085
 30
0.0
 11
220.6742240337477483
 21
-286.560347353146085
 31
0.0
  0
ARC
  5
148
100
AcDbEntity
  8
4 side
 62
256
370
-1
  6
ByLayer
100
AcDbCircle
 10
220.1742240337477483
 20
-291.060347353146085
 30
0.0
 40
0.5
100
AcDbArc
 50
270.0
 51
0.0
  0
LINE
  5
149
100
AcDbEntity
100
AcDbLine
  8
4 side
 62
256
370
-1
  6
ByLayer
 10
157.6742240337477483
 20
-286.560347353146085
 30
0.0
 11
157.6742240337477483
 21
-291.560347353146085
 31
0.0
  0
LINE
  5
14A
100
AcDbEntity
100
AcDbLine
  8
4 side
 62
256
370
-1
  6
ByLayer
 10
157.6742240337477483
 20
-286.560347353146085
 30
0.0
 11
166.6742266289305405
 21
-286.560347353146085
 31
0.0
  0
LINE
  5
14B
100
AcDbEntity
100
AcDbLine
  8
4 side
 62
256
370
-1
  6
ByLayer
 10
220.6742240337477483
 20
-286.560347353146085
 30
0.0
 11
229.6742240337477199
 21
-286.560347353146085
 31
0.0
  0
ARC
  5
14C
100
AcDbEntity
  8
4 side
 62
256
370
-1
  6
ByLayer
100
AcDbCircle
 10
186.6932753313391515
 20
-265.2103473531460622
 30
0.0
 40
0.5
100
AcDbArc
 50
0.0
 51
90.0000000000000142
  0
LINE
  5
14D
100
AcDbEntity
100
AcDbLine
  8
4 side
 62
256
370
-1
  6
ByLayer
 10
187.1932753313391231
 20
-265.2103473531460622
 30
0.0
 11
187.1932753313391515
 21
-274.7103473531460622
 31
0.0
  0
ARC
  5
14E
100
AcDbEntity
  8
4 side
 62
256
370
-1
  6
ByLayer
100
AcDbCircle
 10
145.7123240432035516
 20
-265.2103473531460622
 30
0.0
 40
0.5
100
AcDbArc
 50
0.0
 51
89.9999999999999574
  0
LINE
  5
14F
100
AcDbEntity
100
AcDbLine
  8
4 side
 62
256
370
-1
  6
ByLayer
 10
146.2123240432035516
 20
-265.2103473531461191
 30
0.0
 11
146.2123240337477057
 21
-273.1436654655299776
 31
0.0
  0
ARC
  5
150
100
AcDbEntity
  8
4 side
 62
256
370
-1
  6
ByLayer
100
AcDbCircle
 10
141.1742240337477483
 20
-265.7103473531461191
 30
0.0
 40
1.0
100
AcDbArc
 50
90.0000000000000142
 51
180.0
  0
LINE
  5
151
100
AcDbEntity
100
AcDbLine
  8
4 side
 62
256
370
-1
  6
ByLayer
 10
140.1742240337477483
 20
-265.7103473531460622
 30
0.0
 11
140.1742240337477483
 21
-265.9223140216852812
 31
0.0
  0
LINE
  5
152
100
AcDbEntity
100
AcDbLine
  8
4 side
 62
256
370
-1
  6
ByLayer
 10
141.1742240337477483
 20
-264.7103473531461191
 30
0.0
 11
145.7123240432035516
 21
-264.7103473531460622
 31
0.0
  0
ARC
  5
153
100
AcDbEntity
  8
4 side
 62
256
370
-1
  6
ByLayer
100
AcDbCircle
 10
134.2940907510117654
 20
-265.6928078155718254
 30
0.0
 40
2.7031551687179127
100
AcDbArc
 50
21.3096872058939688
 51
141.1864972058946819
  0
LINE
  5
154
100
AcDbEntity
100
AcDbLine
  8
4 side
 62
256
370
-1
  6
ByLayer
 10
129.3936415309275958
 20
-267.9890023787882569
 30
0.0
 11
132.187818537978103
 21
-263.9985040556844069
 31
0.0
  0
LINE
  5
155
100
AcDbEntity
100
AcDbLine
  8
4 side
 62
256
370
-1
  6
ByLayer
 10
136.8123905976241872
 20
-264.710354891143254
 30
0.0
 11
136.8123905976241872
 21
-265.6227727090084159
 31
0.0
  0
ARC
  5
156
100
AcDbEntity
  8
4 side
 62
256
370
-1
  6
ByLayer
100
AcDbCircle
 10
157.1742240337478052
 20
-265.2103473531460622
 30
0.0
 40
0.5
100
AcDbArc
 50
90.0000000000000142
 51
180.0
  0
LINE
  5
157
100
AcDbEntity
100
AcDbLine
  8
4 side
 62
256
370
-1
  6
ByLayer
 10
156.6742240337478052
 20
-269.7103473531460622
 30
0.0
 11
156.6742240337478052
 21
-265.2103473531460622
 31
0.0
  0
LINE
  5
158
100
AcDbEntity
100
AcDbLine
  8
4 side
 62
256
370
-1
  6
ByLayer
 10
157.1742240337478052
 20
-264.7103473531460622
 30
0.0
 11
186.6932753313391515
 21
-264.7103473531460622
 31
0.0
  0
LINE
  5
159
100
AcDbEntity
100
AcDbLine
  8
4 side
 62
256
370
-1
  6
ByLayer
 10
149.7123240337477057
 20
-269.7103473531460622
 30
0.0
 11
156.6742240337478052
 21
-269.7103473531460622
 31
0.0
  0
ARC
  5
15A
100
AcDbEntity
  8
4 side
 62
256
370
-1
  6
ByLayer
100
AcDbCircle
 10
251.5123240337477455
 20
-267.1103519772072445
 30
0.0
 40
2.1560000000000001
100
AcDbArc
 50
270.0
 51
43.5800000000000267
  0
ARC
  5
15B
100
AcDbEntity
  8
4 side
 62
256
370
-1
  6
ByLayer
100
AcDbCircle
 10
255.2123240337477341
 20
-276.0116519772073502
 30
0.0
 40
1.0
100
AcDbArc
 50
90.0000000000003979
 51
90.0000000000003979
  0
LINE
  5
15C
100
AcDbEntity
100
AcDbLine
  8
4 side
 62
256
370
-1
  6
ByLayer
 10
252.4560000379065627
 20
-269.0521955855276701
 30
0.0
 11
254.844097819883757
 21
-275.081915748256506
 31
0.0
  0
ARC
  5
15D
100
AcDbEntity
  8
4 side
 62
256
370
-1
  6
ByLayer
100
AcDbCircle
 10
251.5123240337477455
 20
-267.1103519772072445
 30
0.0
 40
2.1559999999999975
100
AcDbArc
 50
146.6032832426844266
 51
295.9183200407831009
  0
ARC
  5
15E
100
AcDbEntity
  8
4 side
 62
256
370
-1
  6
ByLayer
100
AcDbCircle
 10
244.1742240337477483
 20
-265.2103473531460622
 30
0.0
 40
0.5
100
AcDbArc
 50
90.0000000000000568
 51
180.0
  0
LINE
  5
15F
100
AcDbEntity
100
AcDbLine
  8
4 side
 62
256
370
-1
  6
ByLayer
 10
244.1742240337477483
 20
-264.7103473531461191
 30
0.0
 11
248.7123240337477341
 21
-264.7103473531461191
 31
0.0
  0
ARC
  5
160
100
AcDbEntity
  8
4 side
 62
256
370
-1
  6
ByLayer
100
AcDbCircle
 10
248.7123240337477341
 20
-265.7103473531460622
 30
0.0
 40
1.0
100
AcDbArc
 50
360.0
 51
89.9999999999999858
  0
LINE
  5
161
100
AcDbEntity
100
AcDbLine
  8
4 side
 62
256
370
-1
  6
ByLayer
 10
249.7123240337477341
 20
-265.7103473531460622
 30
0.0
 11
249.7123240337477341
 21
-265.923618645746501
 31
0.0
  0
ARC
  5
162
100
AcDbEntity
  8
4 side
 62
256
370
-1
  6
ByLayer
100
AcDbCircle
 10
254.0741574698712952
 20
-272.7103473531461191
 30
0.0
 40
7.9999999999999982
100
AcDbArc
 50
0.0
 51
90.0000000000000142
  0
LINE
  5
163
100
AcDbEntity
100
AcDbLine
  8
4 side
 62
256
370
-1
  6
ByLayer
 10
243.6742240337477483
 20
-269.7103473531460622
 30
0.0
 11
243.6742240337477483
 21
-265.1818368654890605
 31
0.0
  0
LINE
  5
164
100
AcDbEntity
100
AcDbLine
  8
4 side
 62
256
370
-1
  6
ByLayer
 10
241.1361240337477625
 20
-270.2103473531460622
 30
0.0
 11
241.1361240337477625
 21
-273.1436654655299776
 31
0.0
  0
ARC
  5
165
100
AcDbEntity
  8
4 side
 62
256
370
-1
  6
ByLayer
100
AcDbCircle
 10
241.6361240337477625
 20
-270.2103473531461191
 30
0.0
 40
0.5
100
AcDbArc
 50
90.0000000000000426
 51
180.0
  0
LINE
  5
166
100
AcDbEntity
100
AcDbLine
  8
4 side
 62
256
370
-1
  6
ByLayer
 10
241.6361240337477625
 20
-269.7103473531459485
 30
0.0
 11
243.6742240337477483
 21
-269.7103473531459485
 31
0.0
  0
ARC
  5
167
100
AcDbEntity
  8
4 side
 62
256
370
-1
  6
ByLayer
100
AcDbCircle
 10
253.5596757900798366
 20
-265.2773737622325143
 30
0.0
 40
0.5965830223263899
100
AcDbArc
 50
108.1108593834559031
 51
215.52985938345563
  0
LINE
  5
168
100
AcDbEntity
100
AcDbLine
  8
4 side
 62
256
370
-1
  6
ByLayer
 10
254.0741574698712952
 20
-264.7103473531460622
 30
0.0
 11
253.3742240337477369
 21
-264.7103473531460622
 31
0.0
  0
ARC
  5
169
100
AcDbEntity
  8
4 side
 62
256
370
-1
  6
ByLayer
100
AcDbCircle
 10
149.7123240337477057
 20
-296.5103473531456189
 30
0.0
 40
0.5
100
AcDbArc
 50
180.0
 51
269.9999999999999432
  0
ARC
  5
16A
100
AcDbEntity
  8
4 side
 62
256
370
-1
  6
ByLayer
100
AcDbCircle
 10
237.6361240337477625
 20
-296.5103473531456757
 30
0.0
 40
0.5
100
AcDbArc
 50
270.0000000000000568
 51
0.0
  0
LINE
  5
16B
100
AcDbEntity
100
AcDbLine
  8
4 side
 62
256
370
-1
  6
ByLayer
 10
146.2123240337477057
 20
-290.4070292407619718
 30
0.0
 11
149.2123240337477341
 21
-290.4070292407619149
 31
0.0
  0
LINE
  5
16C
100
AcDbEntity
100
AcDbLine
  8
4 side
 62
256
370
-1
  6
ByLayer
 10
144.8523240337477205
 20
-293.5770292407619877
 30
0.0
 11
144.8523240337477205
 21
-291.4070292407619718
 31
0.0
  0
LINE
  5
16D
100
AcDbEntity
100
AcDbLine
  8
4 side
 62
256
370
-1
  6
ByLayer
 10
150.5723240337477193
 20
-291.4070292407619149
 30
0.0
 11
150.5723240337476909
 21
-293.577029240761874
 31
0.0
  0
LINE
  5
16E
100
AcDbEntity
100
AcDbLine
  8
4 side
 62
256
370
-1
  6
ByLayer
 10
146.2123240337477057
 20
-293.5770292407618172
 30
0.0
 11
144.8523240337477205
 21
-293.5770292407619877
 31
0.0
  0
LINE
  5
16F
100
AcDbEntity
100
AcDbLine
  8
4 side
 62
256
370
-1
  6
ByLayer
 10
150.5723240337476909
 20
-293.577029240761874
 30
0.0
 11
149.2123240337477057
 21
-293.5770292407619309
 31
0.0
  0
LINE
  5
170
100
AcDbEntity
100
AcDbLine
  8
4 side
 62
256
370
-1
  6
ByLayer
 10
149.2123240337477341
 20
-290.4070292407619149
 30
0.0
 11
149.2123240337477057
 21
-291.4070292407619149
 31
0.0
  0
LINE
  5
171
100
AcDbEntity
100
AcDbLine
  8
4 side
 62
256
370
-1
  6
ByLayer
 10
149.2123240337477057
 20
-291.4070292407619149
 30
0.0
 11
150.5723240337477193
 21
-291.4070292407619149
 31
0.0
  0
LINE
  5
172
100
AcDbEntity
100
AcDbLine
  8
4 side
 62
256
370
-1
  6
ByLayer
 10
144.8523240337477205
 20
-291.4070292407619718
 30
0.0
 11
146.2123240337477057
 21
-291.4070292407619718
 31
0.0
  0
LINE
  5
173
100
AcDbEntity
100
AcDbLine
  8
4 side
 62
256
370
-1
  6
ByLayer
 10
146.2123240337477057
 20
-291.4070292407619718
 30
0.0
 11
146.2123240337477057
 21
-290.4070292407619718
 31
0.0
  0
LINE
  5
174
100
AcDbEntity
100
AcDbLine
  8
4 side
 62
256
370
-1
  6
ByLayer
 10
238.1361240337477625
 20
-290.4070292407618581
 30
0.0
 11
241.1361240337477909
 21
-290.4070292407619149
 31
0.0
  0
LINE
  5
175
100
AcDbEntity
100
AcDbLine
  8
4 side
 62
256
370
-1
  6
ByLayer
 10
236.7761240337477773
 20
-293.5770292407620445
 30
0.0
 11
236.7761240337477773
 21
-291.4070292407619718
 31
0.0
  0
LINE
  5
176
100
AcDbEntity
100
AcDbLine
  8
4 side
 62
256
370
-1
  6
ByLayer
 10
242.4961240337477761
 20
-291.4070292407619149
 30
0.0
 11
242.4961240337477761
 21
-293.577029240761874
 31
0.0
  0
LINE
  5
177
100
AcDbEntity
100
AcDbLine
  8
4 side
 62
256
370
-1
  6
ByLayer
 10
238.1361240337477625
 20
-293.577029240761874
 30
0.0
 11
236.7761240337477773
 21
-293.5770292407620445
 31
0.0
  0
LINE
  5
178
100
AcDbEntity
100
AcDbLine
  8
4 side
 62
256
370
-1
  6
ByLayer
 10
242.4961240337477761
 20
-293.577029240761874
 30
0.0
 11
241.1361240337477625
 21
-293.5770292407618172
 31
0.0
  0
LINE
  5
179
100
AcDbEntity
100
AcDbLine
  8
4 side
 62
256
370
-1
  6
ByLayer
 10
241.1361240337477909
 20
-290.4070292407619149
 30
0.0
 11
241.1361240337477625
 21
-291.4070292407618581
 31
0.0
  0
LINE
  5
17A
100
AcDbEntity
100
AcDbLine
  8
4 side
 62
256
370
-1
  6
ByLayer
 10
241.1361240337477625
 20
-291.4070292407618581
 30
0.0
 11
242.4961240337477761
 21
-291.4070292407619149
 31
0.0
  0
LINE
  5
17B
100
AcDbEntity
100
AcDbLine
  8
4 side
 62
256
370
-1
  6
ByLayer
 10
236.7761240337477773
 20
-291.4070292407619718
 30
0.0
 11
238.1361240337477625
 21
-291.4070292407619718
 31
0.0
  0
LINE
  5
17C
100
AcDbEntity
100
AcDbLine
  8
4 side
 62
256
370
-1
  6
ByLayer
 10
238.1361240337477625
 20
-291.4070292407619718
 30
0.0
 11
238.1361240337477625
 21
-290.4070292407618581
 31
0.0
  0
LINE
  5
17D
100
AcDbEntity
100
AcDbLine
  8
4 side
 62
256
370
-1
  6
ByLayer
 10
149.2123240337477057
 20
-293.5770292407619309
 30
0.0
 11
149.2123240337477057
 21
-296.5103473531459599
 31
0.0
  0
LINE
  5
17E
100
AcDbEntity
100
AcDbLine
  8
4 side
 62
256
370
-1
  6
ByLayer
 10
238.1361240337477625
 20
-296.5103473531454483
 30
0.0
 11
238.1361240337477625
 21
-293.577029240761874
 31
0.0
  0
LINE
  5
17F
100
AcDbEntity
100
AcDbLine
  8
4 side
 62
256
370
-1
  6
ByLayer
 10
149.7123240337477057
 20
-297.0103473531456757
 30
0.0
 11
156.6742240337478052
 21
-297.0103473531460736
 31
0.0
  0
LINE
  5
180
100
AcDbEntity
100
AcDbLine
  8
4 side
 62
256
370
-1
  6
ByLayer
 10
241.1361240337477625
 20
-296.5103473531457325
 30
0.0
 11
241.1361240337477625
 21
-293.5770292407618172
 31
0.0
  0
ARC
  5
181
100
AcDbEntity
  8
4 side
 62
256
370
-1
  6
ByLayer
100
AcDbCircle
 10
241.6361240337477625
 20
-296.5103473531461304
 30
0.0
 40
0.5
100
AcDbArc
 50
180.0
 51
269.9999999999999432
  0
LINE
  5
182
100
AcDbEntity
100
AcDbLine
  8
4 side
 62
256
370
-1
  6
ByLayer
 10
241.6361240337477625
 20
-297.0103473531460168
 30
0.0
 11
243.6742240337477483
 21
-297.0103473531458462
 31
0.0
  0
LINE
  5
183
100
AcDbEntity
100
AcDbLine
  8
4 side
 62
256
370
-1
  6
ByLayer
 10
146.21232404320358
 20
-297.0103473531460736
 30
0.0
 11
146.2123240337477057
 21
-293.5770292407618172
 31
0.0
  0
ARC
  5
184
100
AcDbEntity
  8
4 side
 62
256
370
-1
  6
ByLayer
100
AcDbCircle
 10
254.0741574698712952
 20
-289.0103473531457894
 30
0.0
 40
7.9999999999999982
100
AcDbArc
 50
270.0
 51
0.0
  0
LINE
  5
185
100
AcDbEntity
100
AcDbLine
  8
4 side
 62
256
370
-1
  6
ByLayer
 10
262.0741574698712952
 20
-272.7103473531460622
 30
0.0
 11
262.0741574698712952
 21
-289.0103473531458462
 31
0.0
  0
LINE
  5
186
100
AcDbEntity
100
AcDbLine
  8
4 side
 62
256
370
-1
  6
ByLayer
 10
243.6742240337477483
 20
-297.0103473531458462
 30
0.0
 11
254.0741574698712952
 21
-297.0103473531458462
 31
0.0
  0
ARC
  5
187
100
AcDbEntity
  8
4 side
 62
256
370
-1
  6
ByLayer
100
AcDbCircle
 10
156.6742240337477483
 20
-296.0103473531460736
 30
0.0
 40
1.0
100
AcDbArc
 50
270.0000000000028422
 51
0.0
  0
LINE
  5
188
100
AcDbEntity
100
AcDbLine
  8
4 side
 62
256
370
-1
  6
ByLayer
 10
157.6742240337477483
 20
-296.0103473531460736
 30
0.0
 11
157.6742240337477483
 21
-286.560347353146085
 31
0.0
  0
ARC
  5
189
100
AcDbEntity
  8
4 side
 62
256
370
-1
  6
ByLayer
100
AcDbCircle
 10
230.6742240337477483
 20
-296.0103473531461304
 30
0.0
 40
1.0
100
AcDbArc
 50
180.0
 51
270.0
  0
LINE
  5
18A
100
AcDbEntity
100
AcDbLine
  8
4 side
 62
256
370
-1
  6
ByLayer
 10
229.6742240337477199
 20
-286.560347353146085
 30
0.0
 11
229.6742240337477483
 21
-296.0103473531460736
 31
0.0
  0
ARC
  5
18B
100
AcDbEntity
  8
4 side
 62
256
370
-1
  6
ByLayer
100
AcDbCircle
 10
130.0297815835457698
 20
-290.2816456254863056
 30
0.0
 40
6.73808935166561
100
AcDbArc
 50
176.9751939993220162
 51
266.9751939993230394
  0
LINE
  5
18C
100
AcDbEntity
100
AcDbLine
  8
4 side
 62
256
370
-1
  6
ByLayer
 10
250.8479724771350732
 20
-284.9859740655867881
 30
0.0
 11
250.8479724771350732
 21
-284.9859740655867881
 31
0.0
  0
LINE
  5
18D
100
AcDbEntity
100
AcDbLine
  8
4 side
 62
256
370
-1
  6
ByLayer
 10
250.8479724771350732
 20
-284.9859740655867881
 30
0.0
 11
250.8479724771350732
 21
-284.9859740655867881
 31
0.0
  0
CIRCLE
  5
18E
100
AcDbEntity
100
AcDbCircle
  8
4 side
 62
256
370
-1
  6
ByLayer
 10
251.1742240337477483
 20
-283.4859740655867313
 30
0.0
 40
1.5
  0
LINE
  5
18F
100
AcDbEntity
100
AcDbLine
  8
4 side
 62
256
370
-1
  6
ByLayer
 10
254.6742240337477483
 20
-284.9859740655867313
 30
0.0
 11
251.1742240337477483
 21
-284.9859740655867313
 31
0.0
  0
LINE
  5
190
100
AcDbEntity
100
AcDbLine
  8
4 side
 62
256
370
-1
  6
ByLayer
 10
251.1742240337477483
 20
-284.9859740655867313
 30
0.0
 11
247.6742240337477483
 21
-284.9859740655867881
 31
0.0
  0
LINE
  5
191
100
AcDbEntity
100
AcDbLine
  8
4 side
 62
256
370
-1
  6
ByLayer
 10
247.6742240337477483
 20
-288.0103473531460736
 30
0.0
 11
254.6742240337477483
 21
-288.0103473531460736
 31
0.0
  0
LINE
  5
192
100
AcDbEntity
100
AcDbLine
  8
4 side
 62
256
370
-1
  6
ByLayer
 10
254.6742240337477483
 20
-288.0103473531460736
 30
0.0
 11
254.6742240337477483
 21
-284.9859740655867313
 31
0.0
  0
LINE
  5
193
100
AcDbEntity
100
AcDbLine
  8
4 side
 62
256
370
-1
  6
ByLayer
 10
247.6742240337477483
 20
-284.9859740655867881
 30
0.0
 11
247.6742240337477483
 21
-288.0103473531460736
 31
0.0
  0
CIRCLE
  5
194
100
AcDbEntity
100
AcDbCircle
  8
4 side
 62
256
370
-1
  6
ByLayer
 10
141.673124158676103
 20
-312.4603473531462328
 30
0.0
 40
3.5
  0
ARC
  5
195
100
AcDbEntity
  8
4 side
 62
256
370
-1
  6
ByLayer
100
AcDbCircle
 10
138.3742240337477369
 20
-326.9116473531460656
 30
0.0
 40
2.1560000000000001
100
AcDbArc
 50
90.0000000000000142
 51
223.5800000000000125
  0
ARC
  5
196
100
AcDbEntity
  8
4 side
 62
256
370
-1
  6
ByLayer
100
AcDbCircle
 10
134.6742240337477483
 20
-318.0103473531461304
 30
0.0
 40
1.0
100
AcDbArc
 50
270.0000000000003979
 51
270.0000000000003979
  0
LINE
  5
197
100
AcDbEntity
100
AcDbLine
  8
4 side
 62
256
370
-1
  6
ByLayer
 10
137.4305480295889197
 20
-324.96980374482564
 30
0.0
 11
135.0424502476117254
 21
-318.9400835820967473
 31
0.0
  0
CIRCLE
  5
198
100
AcDbEntity
100
AcDbCircle
  8
4 side
 62
256
370
-1
  6
ByLayer
 10
136.1731240337477402
 20
-312.4603473531460054
 30
0.0
 40
1.2
  0
CIRCLE
  5
199
100
AcDbEntity
100
AcDbCircle
  8
4 side
 62
256
370
-1
  6
ByLayer
 10
147.1731240337477402
 20
-312.4603473531461191
 30
0.0
 40
1.2
  0
ARC
  5
19A
100
AcDbEntity
  8
4 side
 62
256
370
-1
  6
ByLayer
100
AcDbCircle
 10
138.3742240337477369
 20
-326.9116473531460656
 30
0.0
 40
2.1590000000000034
100
AcDbArc
 50
326.6032832426835739
 51
115.9183200407834846
  0
ARC
  5
19B
100
AcDbEntity
  8
4 side
 62
256
370
-1
  6
ByLayer
100
AcDbCircle
 10
149.7123240337477057
 20
-323.810347353146085
 30
0.0
 40
0.5
100
AcDbArc
 50
180.0
 51
269.9999999999999432
  0
ARC
  5
19C
100
AcDbEntity
  8
4 side
 62
256
370
-1
  6
ByLayer
100
AcDbCircle
 10
237.6361240337477625
 20
-323.810347353146085
 30
0.0
 40
0.5
100
AcDbArc
 50
270.0000000000000568
 51
0.0
  0
LINE
  5
19D
100
AcDbEntity
100
AcDbLine
  8
4 side
 62
256
370
-1
  6
ByLayer
 10
146.2123240337477057
 20
-317.7070292407622105
 30
0.0
 11
149.2123240337477057
 21
-317.7070292407621537
 31
0.0
  0
LINE
  5
19E
100
AcDbEntity
100
AcDbLine
  8
4 side
 62
256
370
-1
  6
ByLayer
 10
144.8523240337477205
 20
-320.8770292407621696
 30
0.0
 11
144.8523240337477205
 21
-318.7070292407621537
 31
0.0
  0
LINE
  5
19F
100
AcDbEntity
100
AcDbLine
  8
4 side
 62
256
370
-1
  6
ByLayer
 10
150.5723240337476909
 20
-318.7070292407621537
 30
0.0
 11
150.5723240337476909
 21
-320.8770292407621696
 31
0.0
  0
LINE
  5
1A0
100
AcDbEntity
100
AcDbLine
  8
4 side
 62
256
370
-1
  6
ByLayer
 10
146.2123240337477057
 20
-320.8770292407621696
 30
0.0
 11
144.8523240337477205
 21
-320.8770292407621696
 31
0.0
  0
LINE
  5
1A1
100
AcDbEntity
100
AcDbLine
  8
4 side
 62
256
370
-1
  6
ByLayer
 10
150.5723240337476909
 20
-320.8770292407621696
 30
0.0
 11
149.2123240337477057
 21
-320.8770292407621696
 31
0.0
  0
LINE
  5
1A2
100
AcDbEntity
100
AcDbLine
  8
4 side
 62
256
370
-1
  6
ByLayer
 10
149.2123240337477057
 20
-317.7070292407621537
 30
0.0
 11
149.2123240337477057
 21
-318.7070292407621537
 31
0.0
  0
LINE
  5
1A3
100
AcDbEntity
100
AcDbLine
  8
4 side
 62
256
370
-1
  6
ByLayer
 10
149.2123240337477057
 20
-318.7070292407621537
 30
0.0
 11
150.5723240337476909
 21
-318.7070292407621537
 31
0.0
  0
LINE
  5
1A4
100
AcDbEntity
100
AcDbLine
  8
4 side
 62
256
370
-1
  6
ByLayer
 10
144.8523240337477205
 20
-318.7070292407621537
 30
0.0
 11
146.2123240337477057
 21
-318.7070292407621537
 31
0.0
  0
LINE
  5
1A5
100
AcDbEntity
100
AcDbLine
  8
4 side
 62
256
370
-1
  6
ByLayer
 10
146.2123240337477057
 20
-318.7070292407621537
 30
0.0
 11
146.2123240337477057
 21
-317.7070292407622105
 31
0.0
  0
LINE
  5
1A6
100
AcDbEntity
100
AcDbLine
  8
4 side
 62
256
370
-1
  6
ByLayer
 10
238.1361240337477625
 20
-317.7070292407621537
 30
0.0
 11
241.1361240337477625
 21
-317.7070292407620968
 31
0.0
  0
LINE
  5
1A7
100
AcDbEntity
100
AcDbLine
  8
4 side
 62
256
370
-1
  6
ByLayer
 10
236.7761240337477773
 20
-320.8770292407621696
 30
0.0
 11
236.7761240337477773
 21
-318.7070292407621537
 31
0.0
  0
LINE
  5
1A8
100
AcDbEntity
100
AcDbLine
  8
4 side
 62
256
370
-1
  6
ByLayer
 10
242.4961240337477761
 20
-318.7070292407620968
 30
0.0
 11
242.4961240337477761
 21
-320.8770292407621696
 31
0.0
  0
LINE
  5
1A9
100
AcDbEntity
100
AcDbLine
  8
4 side
 62
256
370
-1
  6
ByLayer
 10
238.1361240337477625
 20
-320.8770292407621127
 30
0.0
 11
236.7761240337477773
 21
-320.8770292407621696
 31
0.0
  0
LINE
  5
1AA
100
AcDbEntity
100
AcDbLine
  8
4 side
 62
256
370
-1
  6
ByLayer
 10
242.4961240337477761
 20
-320.8770292407621696
 30
0.0
 11
241.1361240337477625
 21
-320.8770292407621696
 31
0.0
  0
LINE
  5
1AB
100
AcDbEntity
100
AcDbLine
  8
4 side
 62
256
370
-1
  6
ByLayer
 10
241.1361240337477625
 20
-317.7070292407620968
 30
0.0
 11
241.1361240337477625
 21
-318.7070292407621537
 31
0.0
  0
LINE
  5
1AC
100
AcDbEntity
100
AcDbLine
  8
4 side
 62
256
370
-1
  6
ByLayer
 10
241.1361240337477625
 20
-318.7070292407621537
 30
0.0
 11
242.4961240337477761
 21
-318.7070292407620968
 31
0.0
  0
LINE
  5
1AD
100
AcDbEntity
100
AcDbLine
  8
4 side
 62
256
370
-1
  6
ByLayer
 10
236.7761240337477773
 20
-318.7070292407621537
 30
0.0
 11
238.1361240337477625
 21
-318.7070292407620968
 31
0.0
  0
LINE
  5
1AE
100
AcDbEntity
100
AcDbLine
  8
4 side
 62
256
370
-1
  6
ByLayer
 10
238.1361240337477625
 20
-318.7070292407620968
 30
0.0
 11
238.1361240337477625
 21
-317.7070292407621537
 31
0.0
  0
LINE
  5
1AF
100
AcDbEntity
100
AcDbLine
  8
4 side
 62
256
370
-1
  6
ByLayer
 10
149.2123240337477057
 20
-320.8770292407621696
 30
0.0
 11
149.2123240337477057
 21
-323.810347353146085
 31
0.0
  0
LINE
  5
1B0
100
AcDbEntity
100
AcDbLine
  8
4 side
 62
256
370
-1
  6
ByLayer
 10
238.1361240337477625
 20
-323.810347353146085
 30
0.0
 11
238.1361240337477625
 21
-320.8770292407621127
 31
0.0
  0
LINE
  5
1B1
100
AcDbEntity
100
AcDbLine
  8
4 side
 62
256
370
-1
  6
ByLayer
 10
187.1932753313391515
 20
-319.310347353146085
 30
0.0
 11
200.1551753313391657
 21
-319.310347353146085
 31
0.0
  0
LINE
  5
1B2
100
AcDbEntity
100
AcDbLine
  8
4 side
 62
256
370
-1
  6
ByLayer
 10
200.1551753313391657
 20
-324.310347353146085
 30
0.0
 11
200.1551753313391657
 21
-319.310347353146085
 31
0.0
  0
LINE
  5
1B3
100
AcDbEntity
100
AcDbLine
  8
4 side
 62
256
370
-1
  6
ByLayer
 10
237.6361240337477625
 20
-324.310347353146085
 30
0.0
 11
200.1551753313391657
 21
-324.310347353146085
 31
0.0
  0
CIRCLE
  5
1B4
100
AcDbEntity
100
AcDbCircle
  8
4 side
 62
256
370
-1
  6
ByLayer
 10
126.843426686812748
 20
-313.5119741204059096
 30
0.0
 40
1.5
  0
LINE
  5
1B5
100
AcDbEntity
100
AcDbLine
  8
4 side
 62
256
370
-1
  6
ByLayer
 10
118.3424399523712793
 20
-310.2489408209832504
 30
0.0
 11
129.3936415309275958
 21
-326.0316923275038903
 31
0.0
  0
LINE
  5
1B6
100
AcDbEntity
100
AcDbLine
  8
4 side
 62
256
370
-1
  6
ByLayer
 10
119.0597822125798046
 20
-306.7543947683932402
 30
0.0
 11
121.9276643943350393
 21
-310.8501549898383587
 31
0.0
  0
LINE
  5
1B7
100
AcDbEntity
100
AcDbLine
  8
4 side
 62
256
370
-1
  6
ByLayer
 10
121.9276643943350393
 20
-310.8501549898383587
 30
0.0
 11
126.0233094728806407
 21
-307.9823534320092335
 31
0.0
  0
ARC
  5
1B8
100
AcDbEntity
  8
4 side
 62
256
370
-1
  6
ByLayer
100
AcDbCircle
 10
120.4483841087705969
 20
-308.860338924792643
 30
0.0
 40
2.5225415786418957
100
AcDbArc
 50
123.3997644192201477
 51
213.3997644192204177
  0
LINE
  5
1B9
100
AcDbEntity
100
AcDbLine
  8
4 side
 62
256
370
-1
  6
ByLayer
 10
123.3010798558860301
 20
-304.094606630604062
 30
0.0
 11
126.0233094728806407
 21
-307.9823534320092335
 31
0.0
  0
LINE
  5
1BA
100
AcDbEntity
100
AcDbLine
  8
4 side
 62
256
370
-1
  6
ByLayer
 10
186.6742266289305405
 20
-307.4603473531460622
 30
0.0
 11
200.6742240337477483
 21
-307.4603473531460622
 31
0.0
  0
LINE
  5
1BB
100
AcDbEntity
100
AcDbLine
  8
4 side
 62
256
370
-1
  6
ByLayer
 10
175.1742266289305689
 20
-314.5636454811932481
 30
0.0
 11
178.1742266289305689
 21
-314.5636454811932481
 31
0.0
  0
LINE
  5
1BC
100
AcDbEntity
100
AcDbLine
  8
4 side
 62
256
370
-1
  6
ByLayer
 10
173.8142266289305553
 20
-311.3936454811932322
 30
0.0
 11
173.8142266289305553
 21
-313.5636454811931912
 31
0.0
  0
LINE
  5
1BD
100
AcDbEntity
100
AcDbLine
  8
4 side
 62
256
370
-1
  6
ByLayer
 10
179.5342266289305542
 20
-313.5636454811932481
 30
0.0
 11
179.5342266289305542
 21
-311.3936454811931753
 31
0.0
  0
LINE
  5
1BE
100
AcDbEntity
100
AcDbLine
  8
4 side
 62
256
370
-1
  6
ByLayer
 10
175.1742266289305689
 20
-311.3936454811932322
 30
0.0
 11
173.8142266289305553
 21
-311.3936454811932322
 31
0.0
  0
LINE
  5
1BF
100
AcDbEntity
100
AcDbLine
  8
4 side
 62
256
370
-1
  6
ByLayer
 10
179.5342266289305542
 20
-311.3936454811931753
 30
0.0
 11
178.1742266289305689
 21
-311.3936454811932322
 31
0.0
  0
LINE
  5
1C0
100
AcDbEntity
100
AcDbLine
  8
4 side
 62
256
370
-1
  6
ByLayer
 10
178.1742266289305689
 20
-314.5636454811932481
 30
0.0
 11
178.1742266289305689
 21
-313.5636454811931912
 31
0.0
  0
LINE
  5
1C1
100
AcDbEntity
100
AcDbLine
  8
4 side
 62
256
370
-1
  6
ByLayer
 10
178.1742266289305689
 20
-313.5636454811931912
 30
0.0
 11
179.5342266289305542
 21
-313.5636454811932481
 31
0.0
  0
LINE
  5
1C2
100
AcDbEntity
100
AcDbLine
  8
4 side
 62
256
370
-1
  6
ByLayer
 10
173.8142266289305553
 20
-313.5636454811931912
 30
0.0
 11
175.1742266289305689
 21
-313.5636454811931912
 31
0.0
  0
LINE
  5
1C3
100
AcDbEntity
100
AcDbLine
  8
4 side
 62
256
370
-1
  6
ByLayer
 10
175.1742266289305689
 20
-313.5636454811931912
 30
0.0
 11
175.1742266289305689
 21
-314.5636454811932481
 31
0.0
  0
LINE
  5
1C4
100
AcDbEntity
100
AcDbLine
  8
4 side
 62
256
370
-1
  6
ByLayer
 10
175.1742266289305689
 20
-307.9603473531460622
 30
0.0
 11
175.1742266289305689
 21
-311.3936454811932322
 31
0.0
  0
LINE
  5
1C5
100
AcDbEntity
100
AcDbLine
  8
4 side
 62
256
370
-1
  6
ByLayer
 10
178.1742266289305689
 20
-311.3936454811932322
 30
0.0
 11
178.1742266289305689
 21
-307.9603473531460622
 31
0.0
  0
LINE
  5
1C6
100
AcDbEntity
100
AcDbLine
  8
4 side
 62
256
370
-1
  6
ByLayer
 10
166.6742266289305689
 20
-302.9603473531460622
 30
0.0
 11
166.6742266289305405
 21
-307.4603473531460622
 31
0.0
  0
ARC
  5
1C7
100
AcDbEntity
  8
4 side
 62
256
370
-1
  6
ByLayer
100
AcDbCircle
 10
167.1742266289305405
 20
-302.9603473531460622
 30
0.0
 40
0.5
100
AcDbArc
 50
90.0000000000000142
 51
180.0
  0
LINE
  5
1C8
100
AcDbEntity
100
AcDbLine
  8
4 side
 62
256
370
-1
  6
ByLayer
 10
171.1742266289305405
 20
-302.4603473531460622
 30
0.0
 11
167.1742266289305405
 21
-302.4603473531460622
 31
0.0
  0
LINE
  5
1C9
100
AcDbEntity
100
AcDbLine
  8
4 side
 62
256
370
-1
  6
ByLayer
 10
171.6742266289305689
 20
-307.4603473531460622
 30
0.0
 11
171.6742266289305405
 21
-302.9603473531460622
 31
0.0
  0
ARC
  5
1CA
100
AcDbEntity
  8
4 side
 62
256
370
-1
  6
ByLayer
100
AcDbCircle
 10
171.1742266289305405
 20
-302.9603473531460622
 30
0.0
 40
0.5
100
AcDbArc
 50
0.0
 51
90.0000000000000142
  0
LINE
  5
1CB
100
AcDbEntity
100
AcDbLine
  8
4 side
 62
256
370
-1
  6
ByLayer
 10
174.6742266289305689
 20
-307.4603473531460622
 30
0.0
 11
171.6742266289305689
 21
-307.4603473531460622
 31
0.0
  0
ARC
  5
1CC
100
AcDbEntity
  8
4 side
 62
256
370
-1
  6
ByLayer
100
AcDbCircle
 10
174.6742266289305689
 20
-307.9603473531460622
 30
0.0
 40
0.5
100
AcDbArc
 50
0.0
 51
89.9999999999999574
  0
LINE
  5
1CD
100
AcDbEntity
100
AcDbLine
  8
4 side
 62
256
370
-1
  6
ByLayer
 10
178.6742266289305405
 20
-307.4603473531460622
 30
0.0
 11
181.6742266289305405
 21
-307.4603473531460622
 31
0.0
  0
ARC
  5
1CE
100
AcDbEntity
  8
4 side
 62
256
370
-1
  6
ByLayer
100
AcDbCircle
 10
178.6742266289305689
 20
-307.9603473531460622
 30
0.0
 40
0.5
100
AcDbArc
 50
90.0000000000000568
 51
180.0
  0
LINE
  5
1CF
100
AcDbEntity
100
AcDbLine
  8
4 side
 62
256
370
-1
  6
ByLayer
 10
181.6742266289305405
 20
-307.4603473531460622
 30
0.0
 11
181.6742266289305405
 21
-302.9603473531460622
 31
0.0
  0
ARC
  5
1D0
100
AcDbEntity
  8
4 side
 62
256
370
-1
  6
ByLayer
100
AcDbCircle
 10
182.1742266289305405
 20
-302.9603473531460622
 30
0.0
 40
0.5
100
AcDbArc
 50
90.0000000000000142
 51
180.0
  0
LINE
  5
1D1
100
AcDbEntity
100
AcDbLine
  8
4 side
 62
256
370
-1
  6
ByLayer
 10
182.1742266289305405
 20
-302.4603473531460622
 30
0.0
 11
186.1742266289305405
 21
-302.4603473531460622
 31
0.0
  0
LINE
  5
1D2
100
AcDbEntity
100
AcDbLine
  8
4 side
 62
256
370
-1
  6
ByLayer
 10
186.6742266289305405
 20
-302.9603473531460622
 30
0.0
 11
186.6742266289305405
 21
-307.4603473531460622
 31
0.0
  0
ARC
  5
1D3
100
AcDbEntity
  8
4 side
 62
256
370
-1
  6
ByLayer
100
AcDbCircle
 10
186.1742266289305405
 20
-302.9603473531460622
 30
0.0
 40
0.5
100
AcDbArc
 50
0.0
 51
90.0000000000000142
  0
LINE
  5
1D4
100
AcDbEntity
100
AcDbLine
  8
4 side
 62
256
370
-1
  6
ByLayer
 10
209.1742240337477483
 20
-314.5636454811932481
 30
0.0
 11
212.1742240337477483
 21
-314.5636454811933049
 31
0.0
  0
LINE
  5
1D5
100
AcDbEntity
100
AcDbLine
  8
4 side
 62
256
370
-1
  6
ByLayer
 10
207.8142240337477631
 20
-311.3936454811932322
 30
0.0
 11
207.8142240337477631
 21
-313.5636454811932481
 31
0.0
  0
LINE
  5
1D6
100
AcDbEntity
100
AcDbLine
  8
4 side
 62
256
370
-1
  6
ByLayer
 10
213.534224033747762
 20
-313.5636454811930776
 30
0.0
 11
213.534224033747762
 21
-311.3936454811931753
 31
0.0
  0
LINE
  5
1D7
100
AcDbEntity
100
AcDbLine
  8
4 side
 62
256
370
-1
  6
ByLayer
 10
209.1742240337477483
 20
-311.3936454811932322
 30
0.0
 11
207.8142240337477631
 21
-311.3936454811932322
 31
0.0
  0
LINE
  5
1D8
100
AcDbEntity
100
AcDbLine
  8
4 side
 62
256
370
-1
  6
ByLayer
 10
213.534224033747762
 20
-311.3936454811931753
 30
0.0
 11
212.1742240337477483
 21
-311.3936454811931753
 31
0.0
  0
LINE
  5
1D9
100
AcDbEntity
100
AcDbLine
  8
4 side
 62
256
370
-1
  6
ByLayer
 10
212.1742240337477483
 20
-314.5636454811933049
 30
0.0
 11
212.1742240337477483
 21
-313.5636454811931912
 31
0.0
  0
LINE
  5
1DA
100
AcDbEntity
100
AcDbLine
  8
4 side
 62
256
370
-1
  6
ByLayer
 10
212.1742240337477483
 20
-313.5636454811931912
 30
0.0
 11
213.534224033747762
 21
-313.5636454811930776
 31
0.0
  0
LINE
  5
1DB
100
AcDbEntity
100
AcDbLine
  8
4 side
 62
256
370
-1
  6
ByLayer
 10
207.8142240337477631
 20
-313.5636454811932481
 30
0.0
 11
209.1742240337477483
 21
-313.5636454811932481
 31
0.0
  0
LINE
  5
1DC
100
AcDbEntity
100
AcDbLine
  8
4 side
 62
256
370
-1
  6
ByLayer
 10
209.1742240337477483
 20
-313.5636454811932481
 30
0.0
 11
209.1742240337477483
 21
-314.5636454811932481
 31
0.0
  0
LINE
  5
1DD
100
AcDbEntity
100
AcDbLine
  8
4 side
 62
256
370
-1
  6
ByLayer
 10
209.1742240337477483
 20
-307.9603473531460622
 30
0.0
 11
209.1742240337477483
 21
-311.3936454811932322
 31
0.0
  0
LINE
  5
1DE
100
AcDbEntity
100
AcDbLine
  8
4 side
 62
256
370
-1
  6
ByLayer
 10
212.1742240337477483
 20
-311.3936454811931753
 30
0.0
 11
212.1742240337477483
 21
-307.9603473531460622
 31
0.0
  0
LINE
  5
1DF
100
AcDbEntity
100
AcDbLine
  8
4 side
 62
256
370
-1
  6
ByLayer
 10
208.6742240337477483
 20
-307.4603473531460622
 30
0.0
 11
205.6742240337477483
 21
-307.4603473531460622
 31
0.0
  0
ARC
  5
1E0
100
AcDbEntity
  8
4 side
 62
256
370
-1
  6
ByLayer
100
AcDbCircle
 10
208.6742240337477483
 20
-307.9603473531460622
 30
0.0
 40
0.5
100
AcDbArc
 50
0.0
 51
89.9999999999999574
  0
LINE
  5
1E1
100
AcDbEntity
100
AcDbLine
  8
4 side
 62
256
370
-1
  6
ByLayer
 10
212.6742240337477483
 20
-307.4603473531460622
 30
0.0
 11
215.6742240337477483
 21
-307.4603473531460622
 31
0.0
  0
ARC
  5
1E2
100
AcDbEntity
  8
4 side
 62
256
370
-1
  6
ByLayer
100
AcDbCircle
 10
212.6742240337477483
 20
-307.9603473531460622
 30
0.0
 40
0.5
100
AcDbArc
 50
90.0000000000000568
 51
180.0
  0
LINE
  5
1E3
100
AcDbEntity
100
AcDbLine
  8
4 side
 62
256
370
-1
  6
ByLayer
 10
200.6742240337477483
 20
-302.9603473531460622
 30
0.0
 11
200.6742240337477483
 21
-307.4603473531460622
 31
0.0
  0
ARC
  5
1E4
100
AcDbEntity
  8
4 side
 62
256
370
-1
  6
ByLayer
100
AcDbCircle
 10
201.1742240337477483
 20
-302.9603473531460622
 30
0.0
 40
0.5
100
AcDbArc
 50
90.0000000000000142
 51
180.0
  0
LINE
  5
1E5
100
AcDbEntity
100
AcDbLine
  8
4 side
 62
256
370
-1
  6
ByLayer
 10
205.1742240337477483
 20
-302.4603473531460622
 30
0.0
 11
201.1742240337477483
 21
-302.4603473531460622
 31
0.0
  0
LINE
  5
1E6
100
AcDbEntity
100
AcDbLine
  8
4 side
 62
256
370
-1
  6
ByLayer
 10
205.6742240337477483
 20
-307.4603473531460622
 30
0.0
 11
205.6742240337477483
 21
-302.9603473531460622
 31
0.0
  0
ARC
  5
1E7
100
AcDbEntity
  8
4 side
 62
256
370
-1
  6
ByLayer
100
AcDbCircle
 10
205.1742240337477483
 20
-302.9603473531460622
 30
0.0
 40
0.5
100
AcDbArc
 50
0.0
 51
90.0000000000000142
  0
LINE
  5
1E8
100
AcDbEntity
100
AcDbLine
  8
4 side
 62
256
370
-1
  6
ByLayer
 10
208.6742240337477483
 20
-307.4603473531460622
 30
0.0
 11
205.6742240337477483
 21
-307.4603473531460622
 31
0.0
  0
ARC
  5
1E9
100
AcDbEntity
  8
4 side
 62
256
370
-1
  6
ByLayer
100
AcDbCircle
 10
208.6742240337477483
 20
-307.9603473531460622
 30
0.0
 40
0.5
100
AcDbArc
 50
0.0
 51
89.9999999999999574
  0
LINE
  5
1EA
100
AcDbEntity
100
AcDbLine
  8
4 side
 62
256
370
-1
  6
ByLayer
 10
212.6742240337477483
 20
-307.4603473531460622
 30
0.0
 11
215.6742240337477483
 21
-307.4603473531460622
 31
0.0
  0
ARC
  5
1EB
100
AcDbEntity
  8
4 side
 62
256
370
-1
  6
ByLayer
100
AcDbCircle
 10
212.6742240337477483
 20
-307.9603473531460622
 30
0.0
 40
0.5
100
AcDbArc
 50
90.0000000000000568
 51
180.0
  0
LINE
  5
1EC
100
AcDbEntity
100
AcDbLine
  8
4 side
 62
256
370
-1
  6
ByLayer
 10
215.6742240337477483
 20
-307.4603473531460622
 30
0.0
 11
215.6742240337477483
 21
-302.9603473531460622
 31
0.0
  0
ARC
  5
1ED
100
AcDbEntity
  8
4 side
 62
256
370
-1
  6
ByLayer
100
AcDbCircle
 10
216.1742240337477483
 20
-302.9603473531460622
 30
0.0
 40
0.5
100
AcDbArc
 50
90.0000000000000142
 51
180.0
  0
LINE
  5
1EE
100
AcDbEntity
100
AcDbLine
  8
4 side
 62
256
370
-1
  6
ByLayer
 10
216.1742240337477483
 20
-302.4603473531460622
 30
0.0
 11
220.1742240337477483
 21
-302.4603473531460622
 31
0.0
  0
LINE
  5
1EF
100
AcDbEntity
100
AcDbLine
  8
4 side
 62
256
370
-1
  6
ByLayer
 10
220.6742240337477483
 20
-302.9603473531460622
 30
0.0
 11
220.6742240337477483
 21
-307.4603473531460622
 31
0.0
  0
ARC
  5
1F0
100
AcDbEntity
  8
4 side
 62
256
370
-1
  6
ByLayer
100
AcDbCircle
 10
220.1742240337477483
 20
-302.9603473531461191
 30
0.0
 40
0.5
100
AcDbArc
 50
0.0
 51
90.0000000000000142
  0
LINE
  5
1F1
100
AcDbEntity
100
AcDbLine
  8
4 side
 62
256
370
-1
  6
ByLayer
 10
157.6742240337477483
 20
-307.4603473531460622
 30
0.0
 11
157.6742240337477483
 21
-302.4603473531460622
 31
0.0
  0
LINE
  5
1F2
100
AcDbEntity
100
AcDbLine
  8
4 side
 62
256
370
-1
  6
ByLayer
 10
157.6742240337477483
 20
-307.4603473531460622
 30
0.0
 11
166.6742266289305405
 21
-307.4603473531460622
 31
0.0
  0
LINE
  5
1F3
100
AcDbEntity
100
AcDbLine
  8
4 side
 62
256
370
-1
  6
ByLayer
 10
220.6742240337477483
 20
-307.4603473531460622
 30
0.0
 11
229.6742240337477199
 21
-307.4603473531460622
 31
0.0
  0
ARC
  5
1F4
100
AcDbEntity
  8
4 side
 62
256
370
-1
  6
ByLayer
100
AcDbCircle
 10
186.6932753313391515
 20
-328.810347353146085
 30
0.0
 40
0.5
100
AcDbArc
 50
270.0
 51
0.0
  0
LINE
  5
1F5
100
AcDbEntity
100
AcDbLine
  8
4 side
 62
256
370
-1
  6
ByLayer
 10
187.1932753313391231
 20
-328.810347353146085
 30
0.0
 11
187.1932753313391515
 21
-319.310347353146085
 31
0.0
  0
ARC
  5
1F6
100
AcDbEntity
  8
4 side
 62
256
370
-1
  6
ByLayer
100
AcDbCircle
 10
145.7123240432035516
 20
-328.810347353146085
 30
0.0
 40
0.5
100
AcDbArc
 50
270.0000000000000568
 51
0.0
  0
LINE
  5
1F7
100
AcDbEntity
100
AcDbLine
  8
4 side
 62
256
370
-1
  6
ByLayer
 10
146.2123240432035516
 20
-328.8103473531460281
 30
0.0
 11
146.2123240337477057
 21
-320.8770292407621696
 31
0.0
  0
ARC
  5
1F8
100
AcDbEntity
  8
4 side
 62
256
370
-1
  6
ByLayer
100
AcDbCircle
 10
141.1742240337477483
 20
-328.3103473531460281
 30
0.0
 40
1.0
100
AcDbArc
 50
180.0
 51
270.0
  0
LINE
  5
1F9
100
AcDbEntity
100
AcDbLine
  8
4 side
 62
256
370
-1
  6
ByLayer
 10
140.1742240337477483
 20
-328.310347353146085
 30
0.0
 11
140.1742240337477483
 21
-328.098380684606866
 31
0.0
  0
LINE
  5
1FA
100
AcDbEntity
100
AcDbLine
  8
4 side
 62
256
370
-1
  6
ByLayer
 10
141.1742240337477483
 20
-329.3103473531460281
 30
0.0
 11
145.7123240432035516
 21
-329.310347353146085
 31
0.0
  0
ARC
  5
1FB
100
AcDbEntity
  8
4 side
 62
256
370
-1
  6
ByLayer
100
AcDbCircle
 10
134.2940907510117654
 20
-328.3278868907203218
 30
0.0
 40
2.7031551687179127
100
AcDbArc
 50
218.8135027941053181
 51
338.6903127941060347
  0
LINE
  5
1FC
100
AcDbEntity
100
AcDbLine
  8
4 side
 62
256
370
-1
  6
ByLayer
 10
129.3936415309275958
 20
-326.0316923275038903
 30
0.0
 11
132.187818537978103
 21
-330.0221906506077403
 31
0.0
  0
LINE
  5
1FD
100
AcDbEntity
100
AcDbLine
  8
4 side
 62
256
370
-1
  6
ByLayer
 10
136.8123905976241872
 20
-329.3103398151488932
 30
0.0
 11
136.8123905976241872
 21
-328.3979219972837313
 31
0.0
  0
ARC
  5
1FE
100
AcDbEntity
  8
4 side
 62
256
370
-1
  6
ByLayer
100
AcDbCircle
 10
157.1742240337478052
 20
-328.810347353146085
 30
0.0
 40
0.5
100
AcDbArc
 50
180.0
 51
270.0
  0
LINE
  5
1FF
100
AcDbEntity
100
AcDbLine
  8
4 side
 62
256
370
-1
  6
ByLayer
 10
156.6742240337478052
 20
-324.310347353146085
 30
0.0
 11
156.6742240337478052
 21
-328.810347353146085
 31
0.0
  0
LINE
  5
200
100
AcDbEntity
100
AcDbLine
  8
4 side
 62
256
370
-1
  6
ByLayer
 10
157.1742240337478052
 20
-329.310347353146085
 30
0.0
 11
186.6932753313391515
 21
-329.310347353146085
 31
0.0
  0
LINE
  5
201
100
AcDbEntity
100
AcDbLine
  8
4 side
 62
256
370
-1
  6
ByLayer
 10
149.7123240337477057
 20
-324.310347353146085
 30
0.0
 11
156.6742240337478052
 21
-324.310347353146085
 31
0.0
  0
ARC
  5
202
100
AcDbEntity
  8
4 side
 62
256
370
-1
  6
ByLayer
100
AcDbCircle
 10
251.5123240337477455
 20
-326.9103427290849027
 30
0.0
 40
2.1560000000000001
100
AcDbArc
 50
316.4199999999999591
 51
90.0000000000000142
  0
ARC
  5
203
100
AcDbEntity
  8
4 side
 62
256
370
-1
  6
ByLayer
100
AcDbCircle
 10
255.2123240337477341
 20
-318.009042729084797
 30
0.0
 40
1.0
100
AcDbArc
 50
269.9999999999996021
 51
269.9999999999996021
  0
LINE
  5
204
100
AcDbEntity
100
AcDbLine
  8
4 side
 62
256
370
-1
  6
ByLayer
 10
252.4560000379065627
 20
-324.9684991207644771
 30
0.0
 11
254.844097819883757
 21
-318.9387789580356412
 31
0.0
  0
ARC
  5
205
100
AcDbEntity
  8
4 side
 62
256
370
-1
  6
ByLayer
100
AcDbCircle
 10
251.5123240337477455
 20
-326.9103427290849027
 30
0.0
 40
2.1559999999999975
100
AcDbArc
 50
64.0816799592169133
 51
213.3967167573155734
  0
ARC
  5
206
100
AcDbEntity
  8
4 side
 62
256
370
-1
  6
ByLayer
100
AcDbCircle
 10
244.1742240337477483
 20
-328.810347353146085
 30
0.0
 40
0.5
100
AcDbArc
 50
180.0
 51
269.9999999999999432
  0
LINE
  5
207
100
AcDbEntity
100
AcDbLine
  8
4 side
 62
256
370
-1
  6
ByLayer
 10
244.1742240337477483
 20
-329.3103473531460281
 30
0.0
 11
248.7123240337477341
 21
-329.3103473531460281
 31
0.0
  0
ARC
  5
208
100
AcDbEntity
  8
4 side
 62
256
370
-1
  6
ByLayer
100
AcDbCircle
 10
248.7123240337477341
 20
-328.310347353146085
 30
0.0
 40
1.0
100
AcDbArc
 50
270.0
 51
0.0
  0
LINE
  5
209
100
AcDbEntity
100
AcDbLine
  8
4 side
 62
256
370
-1
  6
ByLayer
 10
249.7123240337477341
 20
-328.310347353146085
 30
0.0
 11
249.7123240337477341
 21
-328.0970760605456462
 31
0.0
  0
ARC
  5
20A
100
AcDbEntity
  8
4 side
 62
256
370
-1
  6
ByLayer
100
AcDbCircle
 10
254.0741574698712952
 20
-321.3103473531460281
 30
0.0
 40
7.9999999999999982
100
AcDbArc
 50
270.0
 51
0.0
  0
LINE
  5
20B
100
AcDbEntity
100
AcDbLine
  8
4 side
 62
256
370
-1
  6
ByLayer
 10
243.6742240337477483
 20
-324.310347353146085
 30
0.0
 11
243.6742240337477483
 21
-328.8388578408030867
 31
0.0
  0
LINE
  5
20C
100
AcDbEntity
100
AcDbLine
  8
4 side
 62
256
370
-1
  6
ByLayer
 10
241.1361240337477625
 20
-323.810347353146085
 30
0.0
 11
241.1361240337477625
 21
-320.8770292407621696
 31
0.0
  0
ARC
  5
20D
100
AcDbEntity
  8
4 side
 62
256
370
-1
  6
ByLayer
100
AcDbCircle
 10
241.6361240337477625
 20
-323.8103473531460281
 30
0.0
 40
0.5
100
AcDbArc
 50
180.0
 51
269.9999999999999432
  0
LINE
  5
20E
100
AcDbEntity
100
AcDbLine
  8
4 side
 62
256
370
-1
  6
ByLayer
 10
241.6361240337477625
 20
-324.3103473531461987
 30
0.0
 11
243.6742240337477483
 21
-324.3103473531461987
 31
0.0
  0
ARC
  5
20F
100
AcDbEntity
  8
4 side
 62
256
370
-1
  6
ByLayer
100
AcDbCircle
 10
253.5596757900798366
 20
-328.7433209440596329
 30
0.0
 40
0.5965830223263899
100
AcDbArc
 50
144.47014061654437
 51
251.8891406165440685
  0
LINE
  5
210
100
AcDbEntity
100
AcDbLine
  8
4 side
 62
256
370
-1
  6
ByLayer
 10
254.0741574698712952
 20
-329.310347353146085
 30
0.0
 11
253.3742240337477369
 21
-329.310347353146085
 31
0.0
  0
ARC
  5
211
100
AcDbEntity
  8
4 side
 62
256
370
-1
  6
ByLayer
100
AcDbCircle
 10
149.7123240337477057
 20
-297.5103473531465283
 30
0.0
 40
0.5
100
AcDbArc
 50
90.0000000000000568
 51
180.0
  0
ARC
  5
212
100
AcDbEntity
  8
4 side
 62
256
370
-1
  6
ByLayer
100
AcDbCircle
 10
237.6361240337477625
 20
-297.5103473531464715
 30
0.0
 40
0.5
100
AcDbArc
 50
0.0
 51
89.9999999999999574
  0
LINE
  5
213
100
AcDbEntity
100
AcDbLine
  8
4 side
 62
256
370
-1
  6
ByLayer
 10
146.2123240337477057
 20
-303.6136654655301754
 30
0.0
 11
149.2123240337477341
 21
-303.6136654655302323
 31
0.0
  0
LINE
  5
214
100
AcDbEntity
100
AcDbLine
  8
4 side
 62
256
370
-1
  6
ByLayer
 10
144.8523240337477205
 20
-300.4436654655301595
 30
0.0
 11
144.8523240337477205
 21
-302.6136654655301754
 31
0.0
  0
LINE
  5
215
100
AcDbEntity
100
AcDbLine
  8
4 side
 62
256
370
-1
  6
ByLayer
 10
150.5723240337477193
 20
-302.6136654655302323
 30
0.0
 11
150.5723240337476909
 21
-300.4436654655302732
 31
0.0
  0
LINE
  5
216
100
AcDbEntity
100
AcDbLine
  8
4 side
 62
256
370
-1
  6
ByLayer
 10
146.2123240337477057
 20
-300.44366546553033
 30
0.0
 11
144.8523240337477205
 21
-300.4436654655301595
 31
0.0
  0
LINE
  5
217
100
AcDbEntity
100
AcDbLine
  8
4 side
 62
256
370
-1
  6
ByLayer
 10
150.5723240337476909
 20
-300.4436654655302732
 30
0.0
 11
149.2123240337477057
 21
-300.4436654655302164
 31
0.0
  0
LINE
  5
218
100
AcDbEntity
100
AcDbLine
  8
4 side
 62
256
370
-1
  6
ByLayer
 10
149.2123240337477341
 20
-303.6136654655302323
 30
0.0
 11
149.2123240337477057
 21
-302.6136654655302323
 31
0.0
  0
LINE
  5
219
100
AcDbEntity
100
AcDbLine
  8
4 side
 62
256
370
-1
  6
ByLayer
 10
149.2123240337477057
 20
-302.6136654655302323
 30
0.0
 11
150.5723240337477193
 21
-302.6136654655302323
 31
0.0
  0
LINE
  5
21A
100
AcDbEntity
100
AcDbLine
  8
4 side
 62
256
370
-1
  6
ByLayer
 10
144.8523240337477205
 20
-302.6136654655301754
 30
0.0
 11
146.2123240337477057
 21
-302.6136654655301754
 31
0.0
  0
LINE
  5
21B
100
AcDbEntity
100
AcDbLine
  8
4 side
 62
256
370
-1
  6
ByLayer
 10
146.2123240337477057
 20
-302.6136654655301754
 30
0.0
 11
146.2123240337477057
 21
-303.6136654655301754
 31
0.0
  0
LINE
  5
21C
100
AcDbEntity
100
AcDbLine
  8
4 side
 62
256
370
-1
  6
ByLayer
 10
238.1361240337477625
 20
-303.6136654655302891
 30
0.0
 11
241.1361240337477909
 21
-303.6136654655302323
 31
0.0
  0
LINE
  5
21D
100
AcDbEntity
100
AcDbLine
  8
4 side
 62
256
370
-1
  6
ByLayer
 10
236.7761240337477773
 20
-300.4436654655301027
 30
0.0
 11
236.7761240337477773
 21
-302.6136654655302323
 31
0.0
  0
LINE
  5
21E
100
AcDbEntity
100
AcDbLine
  8
4 side
 62
256
370
-1
  6
ByLayer
 10
242.4961240337477761
 20
-302.6136654655301754
 30
0.0
 11
242.4961240337477761
 21
-300.4436654655302164
 31
0.0
  0
LINE
  5
21F
100
AcDbEntity
100
AcDbLine
  8
4 side
 62
256
370
-1
  6
ByLayer
 10
238.1361240337477625
 20
-300.4436654655302164
 30
0.0
 11
236.7761240337477773
 21
-300.4436654655301027
 31
0.0
  0
LINE
  5
220
100
AcDbEntity
100
AcDbLine
  8
4 side
 62
256
370
-1
  6
ByLayer
 10
242.4961240337477761
 20
-300.4436654655302164
 30
0.0
 11
241.1361240337477625
 21
-300.4436654655302732
 31
0.0
  0
LINE
  5
221
100
AcDbEntity
100
AcDbLine
  8
4 side
 62
256
370
-1
  6
ByLayer
 10
241.1361240337477909
 20
-303.6136654655302323
 30
0.0
 11
241.1361240337477625
 21
-302.613665465530346
 31
0.0
  0
LINE
  5
222
100
AcDbEntity
100
AcDbLine
  8
4 side
 62
256
370
-1
  6
ByLayer
 10
241.1361240337477625
 20
-302.613665465530346
 30
0.0
 11
242.4961240337477761
 21
-302.6136654655301754
 31
0.0
  0
LINE
  5
223
100
AcDbEntity
100
AcDbLine
  8
4 side
 62
256
370
-1
  6
ByLayer
 10
236.7761240337477773
 20
-302.6136654655302323
 30
0.0
 11
238.1361240337477625
 21
-302.6136654655301754
 31
0.0
  0
LINE
  5
224
100
AcDbEntity
100
AcDbLine
  8
4 side
 62
256
370
-1
  6
ByLayer
 10
238.1361240337477625
 20
-302.6136654655301754
 30
0.0
 11
238.1361240337477625
 21
-303.6136654655302891
 31
0.0
  0
LINE
  5
225
100
AcDbEntity
100
AcDbLine
  8
4 side
 62
256
370
-1
  6
ByLayer
 10
149.2123240337477057
 20
-300.4436654655302164
 30
0.0
 11
149.2123240337477057
 21
-297.5103473531461873
 31
0.0
  0
LINE
  5
226
100
AcDbEntity
100
AcDbLine
  8
4 side
 62
256
370
-1
  6
ByLayer
 10
238.1361240337477625
 20
-297.5103473531467557
 30
0.0
 11
238.1361240337477625
 21
-300.4436654655302164
 31
0.0
  0
LINE
  5
227
100
AcDbEntity
100
AcDbLine
  8
4 side
 62
256
370
-1
  6
ByLayer
 10
241.1361240337477625
 20
-297.5103473531464147
 30
0.0
 11
241.1361240337477625
 21
-300.4436654655302732
 31
0.0
  0
ARC
  5
228
100
AcDbEntity
  8
4 side
 62
256
370
-1
  6
ByLayer
100
AcDbCircle
 10
241.6361240337477625
 20
-297.5103473531460168
 30
0.0
 40
0.5
100
AcDbArc
 50
90.0000000000000568
 51
180.0
  0
LINE
  5
229
100
AcDbEntity
100
AcDbLine
  8
4 side
 62
256
370
-1
  6
ByLayer
 10
241.6361240337477625
 20
-297.0103473531462441
 30
0.0
 11
243.6742240337477483
 21
-297.0103473531463578
 31
0.0
  0
LINE
  5
22A
100
AcDbEntity
100
AcDbLine
  8
4 side
 62
256
370
-1
  6
ByLayer
 10
146.21232404320358
 20
-297.0103473531460736
 30
0.0
 11
146.2123240337477057
 21
-300.44366546553033
 31
0.0
  0
ARC
  5
22B
100
AcDbEntity
  8
4 side
 62
256
370
-1
  6
ByLayer
100
AcDbCircle
 10
254.0741574698712952
 20
-305.0103473531463578
 30
0.0
 40
7.9999999999999982
100
AcDbArc
 50
0.0
 51
90.0000000000000142
  0
LINE
  5
22C
100
AcDbEntity
100
AcDbLine
  8
4 side
 62
256
370
-1
  6
ByLayer
 10
262.0741574698712952
 20
-321.310347353146085
 30
0.0
 11
262.0741574698712952
 21
-305.0103473531463578
 31
0.0
  0
ARC
  5
22D
100
AcDbEntity
  8
4 side
 62
256
370
-1
  6
ByLayer
100
AcDbCircle
 10
156.6742240337477483
 20
-298.0103473531460736
 30
0.0
 40
1.0
100
AcDbArc
 50
0.0
 51
89.9999999999971578
  0
LINE
  5
22E
100
AcDbEntity
100
AcDbLine
  8
4 side
 62
256
370
-1
  6
ByLayer
 10
157.6742240337477483
 20
-298.0103473531460736
 30
0.0
 11
157.6742240337477483
 21
-307.4603473531460622
 31
0.0
  0
ARC
  5
22F
100
AcDbEntity
  8
4 side
 62
256
370
-1
  6
ByLayer
100
AcDbCircle
 10
230.6742240337477483
 20
-298.0103473531460168
 30
0.0
 40
1.0
100
AcDbArc
 50
90.0000000000000142
 51
180.0
  0
LINE
  5
230
100
AcDbEntity
100
AcDbLine
  8
4 side
 62
256
370
-1
  6
ByLayer
 10
237.6361240337477625
 20
-297.010347353146301
 30
0.0
 11
230.6742240337477483
 21
-297.0103473531460736
 31
0.0
  0
LINE
  5
231
100
AcDbEntity
100
AcDbLine
  8
4 side
 62
256
370
-1
  6
ByLayer
 10
229.6742240337477199
 20
-307.4603473531460622
 30
0.0
 11
229.6742240337477483
 21
-298.0103473531461304
 31
0.0
  0
LINE
  5
232
100
AcDbEntity
100
AcDbLine
  8
4 side
 62
256
370
-1
  6
ByLayer
 10
129.6742240337477483
 20
-297.0103473531460736
 30
0.0
 11
146.21232404320358
 21
-297.0103473531460736
 31
0.0
  0
ARC
  5
233
100
AcDbEntity
  8
4 side
 62
256
370
-1
  6
ByLayer
100
AcDbCircle
 10
130.0297815835457698
 20
-303.7390490808058416
 30
0.0
 40
6.73808935166561
100
AcDbArc
 50
93.0248060006769748
 51
183.0248060006779838
  0
LINE
  5
234
100
AcDbEntity
100
AcDbLine
  8
4 side
 62
256
370
-1
  6
ByLayer
 10
250.8479724771350732
 20
-309.0347206407053591
 30
0.0
 11
250.8479724771350732
 21
-309.0347206407053591
 31
0.0
  0
LINE
  5
235
100
AcDbEntity
100
AcDbLine
  8
4 side
 62
256
370
-1
  6
ByLayer
 10
250.8479724771350732
 20
-309.0347206407053591
 30
0.0
 11
250.8479724771350732
 21
-309.0347206407053591
 31
0.0
  0
CIRCLE
  5
236
100
AcDbEntity
100
AcDbCircle
  8
4 side
 62
256
370
-1
  6
ByLayer
 10
251.1742240337477483
 20
-310.5347206407054159
 30
0.0
 40
1.5
  0
LINE
  5
237
100
AcDbEntity
100
AcDbLine
  8
4 side
 62
256
370
-1
  6
ByLayer
 10
254.6742240337477483
 20
-309.0347206407054159
 30
0.0
 11
251.1742240337477483
 21
-309.0347206407054728
 31
0.0
  0
LINE
  5
238
100
AcDbEntity
100
AcDbLine
  8
4 side
 62
256
370
-1
  6
ByLayer
 10
251.1742240337477483
 20
-309.0347206407054728
 30
0.0
 11
247.6742240337477483
 21
-309.0347206407053022
 31
0.0
  0
LINE
  5
239
100
AcDbEntity
100
AcDbLine
  8
4 side
 62
256
370
-1
  6
ByLayer
 10
247.6742240337477483
 20
-306.0103473531460736
 30
0.0
 11
254.6742240337477483
 21
-306.0103473531460736
 31
0.0
  0
LINE
  5
23A
100
AcDbEntity
100
AcDbLine
  8
4 side
 62
256
370
-1
  6
ByLayer
 10
254.6742240337477483
 20
-306.0103473531460736
 30
0.0
 11
254.6742240337477483
 21
-309.0347206407054159
 31
0.0
  0
LINE
  5
23B
100
AcDbEntity
100
AcDbLine
  8
4 side
 62
256
370
-1
  6
ByLayer
 10
247.6742240337477483
 20
-309.0347206407053022
 30
0.0
 11
247.6742240337477483
 21
-306.0103473531460736
 31
0.0
  0
ENDSEC
  0
SECTION
  2
OBJECTS
  0
DICTIONARY
  5
C
100
AcDbDictionary
280
0
281
1
  3
ACAD_GROUP
350
D
  3
ACAD_LAYOUT
350
1A
  3
ACAD_MLINESTYLE
350
17
  3
ACAD_PLOTSETTINGS
350
19
  3
ACAD_PLOTSTYLENAME
350
E
  3
AcDbVariableDictionary
350
23C
  0
DICTIONARY
  5
D
100
AcDbDictionary
280
0
281
1
  0
ACDBDICTIONARYWDFLT
  5
E
100
AcDbDictionary
281
1
  3
Normal
350
F
100
AcDbDictionaryWithDefault
340
F
  0
ACDBPLACEHOLDER
  5
F
  0
DICTIONARY
  5
17
100
AcDbDictionary
280
0
281
1
  3
Standard
350
18
  0
MLINESTYLE
  5
18
100
AcDbMlineStyle
  2
STANDARD
 70
0
  3

 62
256
 51
90.0
 52
90.0
 71
2
 49
0.5
 62
256
  6
BYLAYER
 49
-0.5
 62
256
  6
BYLAYER
  0
DICTIONARY
  5
19
100
AcDbDictionary
280
0
281
1
  0
DICTIONARY
  5
1A
100
AcDbDictionary
281
1
  3
Layout1
350
1E
  3
Layout2
350
26
  3
Model
350
22
  0
LAYOUT
  5
1E
100
AcDbPlotSettings
  1

  2
C:\Program Files\AutoCAD 2002\plotters\DWF ePlot (optimized for plotting).pc3
  4

  6

 40
0.0
 41
0.0
 42
0.0
 43
0.0
 44
0.0
 45
0.0
 46
0.0
 47
0.0
 48
0.0
 49
0.0
140
0.0
141
0.0
142
1.0
143
1.0
 70
688
 72
0
 73
0
 74
5
  7

 75
16
147
1.0
148
0.0
149
0.0
100
AcDbLayout
  1
Layout1
 70
1
 71
1
 10
0.0
 20
0.0
 11
420.0
 21
297.0
 12
0.0
 22
0.0
 32
0.0
 14
100000000000000000000.0
 24
100000000000000000000.0
 34
100000000000000000000.0
 15
-100000000000000000000.0
 25
-100000000000000000000.0
 35
-100000000000000000000.0
146
0.0
 13
0.0
 23
0.0
 33
0.0
 16
1.0
 26
0.0
 36
0.0
 17
0.0
 27
1.0
 37
0.0
 76
0
330
1B
  0
LAYOUT
  5
22
100
AcDbPlotSettings
  1

  2
C:\Program Files\AutoCAD 2002\plotters\DWF ePlot (optimized for plotting).pc3
  4

  6

 40
0.0
 41
0.0
 42
0.0
 43
0.0
 44
0.0
 45
0.0
 46
0.0
 47
0.0
 48
0.0
 49
0.0
140
0.0
141
0.0
142
1.0
143
1.0
 70
1712
 72
0
 73
0
 74
0
  7

 75
0
147
1.0
148
0.0
149
0.0
100
AcDbLayout
  1
Model
 70
1
 71
0
 10
0.0
 20
0.0
 11
12.0
 21
9.0
 12
0.0
 22
0.0
 32
0.0
 14
0.0
 24
0.0
 34
0.0
 15
0.0
 25
0.0
 35
0.0
146
0.0
 13
0.0
 23
0.0
 33
0.0
 16
1.0
 26
0.0
 36
0.0
 17
0.0
 27
1.0
 37
0.0
 76
0
330
1F
  0
LAYOUT
  5
26
100
AcDbPlotSettings
  1

  2
C:\Program Files\AutoCAD 2002\plotters\DWF ePlot (optimized for plotting).pc3
  4

  6

 40
0.0
 41
0.0
 42
0.0
 43
0.0
 44
0.0
 45
0.0
 46
0.0
 47
0.0
 48
0.0
 49
0.0
140
0.0
141
0.0
142
1.0
143
1.0
 70
688
 72
0
 73
0
 74
5
  7

 75
16
147
1.0
148
0.0
149
0.0
100
AcDbLayout
  1
Layout2
 70
1
 71
2
 10
0.0
 20
0.0
 11
12.0
 21
9.0
 12
0.0
 22
0.0
 32
0.0
 14
0.0
 24
0.0
 34
0.0
 15
0.0
 25
0.0
 35
0.0
146
0.0
 13
0.0
 23
0.0
 33
0.0
 16
1.0
 26
0.0
 36
0.0
 17
0.0
 27
1.0
 37
0.0
 76
0
330
23
  0
DICTIONARY
  5
23C
100
AcDbDictionary
281
1
  3
DIMASSOC
350
23E
  3
HIDETEXT
350
23D
  0
DICTIONARYVAR
  5
23D
100
DictionaryVariables
280
0
  1
2
  0
DICTIONARYVAR
  5
23E
100
DictionaryVariables
280
0
  1
1
  0
ENDSEC
  0
EOF
