<?xml version="1.0" standalone="yes"?>

<svg width="322mm" height="384mm" viewBox="0 0 322 384" version="1.1"
xmlns="http://www.w3.org/2000/svg" style="stroke-linecap:round">
  <path d="M189.761,150.859 A8.01252,8.01252 0 0,0 173.736,150.859 " style="stroke:rgb(0,0,0);stroke-width:0.1;fill:none" />
  <ellipse cx="181.748" cy="160.875" rx="1.50235" ry="1.50235" style="stroke:rgb(0,0,0);stroke-width:0.1;fill:none;"/>
  <ellipse cx="181.748" cy="150.859" rx="3.16995" ry="3.16995" style="stroke:rgb(0,0,0);stroke-width:0.1;fill:none;"/>
  <path d="M189.761,149.958 L189.761,177" style="stroke:rgb(0,0,0);stroke-width:0.1;fill:none" />
  <path d="M173.736,150.859 L173.736,177" style="stroke:rgb(0,0,0);stroke-width:0.1;fill:none" />
  <path d="M173.736,177 A8.01252,8.01252 0 0,0 189.761,177 " style="stroke:rgb(0,0,0);stroke-width:0.1;fill:none" />
  <ellipse cx="181.748" cy="177" rx="1.50235" ry="1.50235" style="stroke:rgb(0,0,0);stroke-width:0.1;fill:none;"/>
  <path d="M191.031,204.221 A8.01252,8.01252 0 0,0 175.006,204.221 " style="stroke:rgb(0,0,0);stroke-width:0.1;fill:none" />
  <ellipse cx="183.019" cy="214.236" rx="1.50235" ry="1.50235" style="stroke:rgb(0,0,0);stroke-width:0.1;fill:none;"/>
  <ellipse cx="183.019" cy="204.221" rx="3.16995" ry="3.16995" style="stroke:rgb(0,0,0);stroke-width:0.1;fill:none;"/>
  <path d="M191.031,203.319 L191.031,230.362" style="stroke:rgb(0,0,0);stroke-width:0.1;fill:none" />
  <path d="M175.006,204.221 L175.006,230.362" style="stroke:rgb(0,0,0);stroke-width:0.1;fill:none" />
  <path d="M175.006,230.362 A8.01252,8.01252 0 0,0 191.031,230.362 " style="stroke:rgb(0,0,0);stroke-width:0.1;fill:none" />
  <ellipse cx="183.019" cy="230.362" rx="1.50235" ry="1.50235" style="stroke:rgb(0,0,0);stroke-width:0.1;fill:none;"/>
  <path d="M57.0899,149.853 L57.0899,145.346" style="stroke:rgb(0,0,0);stroke-width:0.1;fill:none" />
  <path d="M57.5907,144.845 A0.500782,0.500782 0 0,0 57.0899,145.346 " style="stroke:rgb(0,0,0);stroke-width:0.1;fill:none" />
  <path d="M139.142,149.853 L139.142,145.346" style="stroke:rgb(0,0,0);stroke-width:0.1;fill:none" />
  <path d="M139.142,145.346 A0.500782,0.500782 0 0,0 138.641,144.845 " style="stroke:rgb(0,0,0);stroke-width:0.1;fill:none" />
  <path d="M48.0376,140.919 L48.0376,149.853" style="stroke:rgb(0,0,0);stroke-width:0.1;fill:none" />
  <path d="M79.5869,164.305 L82.5916,164.305" style="stroke:rgb(0,0,0);stroke-width:0.25;fill:none" />
  <path d="M78.2248,167.48 L78.2248,165.307" style="stroke:rgb(0,0,0);stroke-width:0.25;fill:none" />
  <path d="M83.9538,165.307 L83.9538,167.48" style="stroke:rgb(0,0,0);stroke-width:0.25;fill:none" />
  <path d="M79.5869,167.48 L78.2248,167.48" style="stroke:rgb(0,0,0);stroke-width:0.25;fill:none" />
  <path d="M83.9538,167.48 L82.5916,167.48" style="stroke:rgb(0,0,0);stroke-width:0.25;fill:none" />
  <path d="M82.5916,164.305 L82.5916,165.307" style="stroke:rgb(0,0,0);stroke-width:0.25;fill:none" />
  <path d="M82.5916,165.307 L83.9538,165.307" style="stroke:rgb(0,0,0);stroke-width:0.25;fill:none" />
  <path d="M78.2248,165.307 L79.5869,165.307" style="stroke:rgb(0,0,0);stroke-width:0.25;fill:none" />
  <path d="M79.5869,165.307 L79.5869,164.305" style="stroke:rgb(0,0,0);stroke-width:0.25;fill:none" />
  <path d="M71.0736,180.33 L71.0736,175.823" style="stroke:rgb(0,0,0);stroke-width:0.25;fill:none" />
  <path d="M71.0736,180.33 A0.500782,0.500782 0 0,0 71.5744,180.831 " style="stroke:rgb(0,0,0);stroke-width:0.25;fill:none" />
  <path d="M75.5807,180.831 L71.5744,180.831" style="stroke:rgb(0,0,0);stroke-width:0.25;fill:none" />
  <path d="M76.0815,175.823 L76.0815,180.33" style="stroke:rgb(0,0,0);stroke-width:0.25;fill:none" />
  <path d="M75.5807,180.831 A0.500782,0.500782 0 0,0 76.0815,180.33 " style="stroke:rgb(0,0,0);stroke-width:0.25;fill:none" />
  <path d="M79.0862,175.823 L76.0815,175.823" style="stroke:rgb(0,0,0);stroke-width:0.25;fill:none" />
  <path d="M79.5869,175.322 L79.5869,167.48" style="stroke:rgb(0,0,0);stroke-width:0.25;fill:none" />
  <path d="M79.0862,175.823 A0.500782,0.500782 0 0,0 79.5869,175.322 " style="stroke:rgb(0,0,0);stroke-width:0.25;fill:none" />
  <path d="M82.5916,167.48 L82.5916,175.322" style="stroke:rgb(0,0,0);stroke-width:0.25;fill:none" />
  <path d="M83.0924,175.823 L86.0971,175.823" style="stroke:rgb(0,0,0);stroke-width:0.25;fill:none" />
  <path d="M82.5916,175.322 A0.500782,0.500782 0 0,0 83.0924,175.823 " style="stroke:rgb(0,0,0);stroke-width:0.25;fill:none" />
  <path d="M86.0971,175.823 L86.0971,180.33" style="stroke:rgb(0,0,0);stroke-width:0.25;fill:none" />
  <path d="M86.0971,180.33 A0.500782,0.500782 0 0,0 86.5979,180.831 " style="stroke:rgb(0,0,0);stroke-width:0.25;fill:none" />
  <path d="M86.5979,180.831 L90.6042,180.831" style="stroke:rgb(0,0,0);stroke-width:0.25;fill:none" />
  <path d="M91.1049,180.33 L91.1049,175.823" style="stroke:rgb(0,0,0);stroke-width:0.25;fill:none" />
  <path d="M90.6042,180.831 A0.500782,0.500782 0 0,0 91.1049,180.33 " style="stroke:rgb(0,0,0);stroke-width:0.25;fill:none" />
  <path d="M34.8802,148.919 A3.16995,3.16995 0 0,0 39.3632,144.436 " style="stroke:rgb(0,0,0);stroke-width:0.1;fill:none" />
  <path d="M39.3632,140.919 A3.5175,3.5175 0 0,0 36.8759,141.949 " style="stroke:rgb(0,0,0);stroke-width:0.1;fill:none" />
  <path d="M39.3632,144.436 L36.8759,141.949" style="stroke:rgb(0,0,0);stroke-width:0.1;fill:none" />
  <path d="M48.0376,140.919 L39.3632,140.919" style="stroke:rgb(0,0,0);stroke-width:0.1;fill:none" />
  <path d="M66.0658,175.823 L66.0658,180.831" style="stroke:rgb(0,0,0);stroke-width:0.1;fill:none" />
  <path d="M66.0658,175.823 L71.0736,175.823" style="stroke:rgb(0,0,0);stroke-width:0.1;fill:none" />
  <path d="M151.7,149.853 A0.500782,0.500782 0 0,0 151.199,150.353 " style="stroke:rgb(0,0,0);stroke-width:0.1;fill:none" />
  <path d="M151.7,149.853 L153.741,149.853" style="stroke:rgb(0,0,0);stroke-width:0.1;fill:none" />
  <path d="M153.741,146.678 L153.741,149.853" style="stroke:rgb(0,0,0);stroke-width:0.1;fill:none" />
  <ellipse cx="161.753" cy="156.693" rx="1.50235" ry="1.50235" style="stroke:rgb(0,0,0);stroke-width:0.1;fill:none;"/>
  <path d="M158.583,146.678 A2.42128,2.42128 0 0,0 153.741,146.678 " style="stroke:rgb(0,0,0);stroke-width:0.1;fill:none" />
  <path d="M169.766,146.678 A2.42128,2.42128 0 0,0 164.923,146.678 " style="stroke:rgb(0,0,0);stroke-width:0.1;fill:none" />
  <path d="M158.583,146.678 A3.16995,3.16995 0 1,0 164.923,146.678 " style="stroke:rgb(0,0,0);stroke-width:0.1;fill:none" />
  <path d="M161.753,180.831 A8.01252,8.01252 0 0,0 169.766,172.818 " style="stroke:rgb(0,0,0);stroke-width:0.1;fill:none" />
  <path d="M169.766,146.678 L169.766,172.818" style="stroke:rgb(0,0,0);stroke-width:0.1;fill:none" />
  <path d="M113.64,164.305 L116.645,164.305" style="stroke:rgb(0,0,0);stroke-width:0.25;fill:none" />
  <path d="M112.278,167.48 L112.278,165.307" style="stroke:rgb(0,0,0);stroke-width:0.25;fill:none" />
  <path d="M118.007,165.307 L118.007,167.48" style="stroke:rgb(0,0,0);stroke-width:0.25;fill:none" />
  <path d="M113.64,167.48 L112.278,167.48" style="stroke:rgb(0,0,0);stroke-width:0.25;fill:none" />
  <path d="M118.007,167.48 L116.645,167.48" style="stroke:rgb(0,0,0);stroke-width:0.25;fill:none" />
  <path d="M116.645,164.305 L116.645,165.307" style="stroke:rgb(0,0,0);stroke-width:0.25;fill:none" />
  <path d="M116.645,165.307 L118.007,165.307" style="stroke:rgb(0,0,0);stroke-width:0.25;fill:none" />
  <path d="M112.278,165.307 L113.64,165.307" style="stroke:rgb(0,0,0);stroke-width:0.25;fill:none" />
  <path d="M113.64,165.307 L113.64,164.305" style="stroke:rgb(0,0,0);stroke-width:0.25;fill:none" />
  <path d="M105.127,180.33 L105.127,175.823" style="stroke:rgb(0,0,0);stroke-width:0.25;fill:none" />
  <path d="M105.127,180.33 A0.500782,0.500782 0 0,0 105.628,180.831 " style="stroke:rgb(0,0,0);stroke-width:0.25;fill:none" />
  <path d="M109.634,180.831 L105.628,180.831" style="stroke:rgb(0,0,0);stroke-width:0.25;fill:none" />
  <path d="M110.135,175.823 L110.135,180.33" style="stroke:rgb(0,0,0);stroke-width:0.25;fill:none" />
  <path d="M109.634,180.831 A0.500782,0.500782 0 0,0 110.135,180.33 " style="stroke:rgb(0,0,0);stroke-width:0.25;fill:none" />
  <path d="M113.139,175.823 L110.135,175.823" style="stroke:rgb(0,0,0);stroke-width:0.25;fill:none" />
  <path d="M113.64,175.322 L113.64,167.48" style="stroke:rgb(0,0,0);stroke-width:0.25;fill:none" />
  <path d="M113.139,175.823 A0.500782,0.500782 0 0,0 113.64,175.322 " style="stroke:rgb(0,0,0);stroke-width:0.25;fill:none" />
  <path d="M116.645,167.48 L116.645,175.322" style="stroke:rgb(0,0,0);stroke-width:0.25;fill:none" />
  <path d="M117.146,175.823 L120.15,175.823" style="stroke:rgb(0,0,0);stroke-width:0.25;fill:none" />
  <path d="M116.645,175.322 A0.500782,0.500782 0 0,0 117.146,175.823 " style="stroke:rgb(0,0,0);stroke-width:0.25;fill:none" />
  <path d="M120.15,175.823 L120.15,180.33" style="stroke:rgb(0,0,0);stroke-width:0.25;fill:none" />
  <path d="M120.15,180.33 A0.500782,0.500782 0 0,0 120.651,180.831 " style="stroke:rgb(0,0,0);stroke-width:0.25;fill:none" />
  <path d="M120.651,180.831 L124.657,180.831" style="stroke:rgb(0,0,0);stroke-width:0.25;fill:none" />
  <path d="M125.158,180.33 L125.158,175.823" style="stroke:rgb(0,0,0);stroke-width:0.25;fill:none" />
  <path d="M124.657,180.831 A0.500782,0.500782 0 0,0 125.158,180.33 " style="stroke:rgb(0,0,0);stroke-width:0.25;fill:none" />
  <path d="M91.1049,175.823 L105.127,175.823" style="stroke:rgb(0,0,0);stroke-width:0.1;fill:none" />
  <path d="M130.166,175.823 L130.166,180.831" style="stroke:rgb(0,0,0);stroke-width:0.1;fill:none" />
  <path d="M125.158,175.823 L130.166,175.823" style="stroke:rgb(0,0,0);stroke-width:0.1;fill:none" />
  <path d="M130.166,180.831 L161.753,180.831" style="stroke:rgb(0,0,0);stroke-width:0.1;fill:none" />
  <path d="M151.199,151.685 L151.199,150.353" style="stroke:rgb(0,0,0);stroke-width:0.1;fill:none" />
  <path d="M149.196,150.353 A0.500782,0.500782 0 0,0 148.695,149.853 " style="stroke:rgb(0,0,0);stroke-width:0.1;fill:none" />
  <path d="M149.196,150.353 L149.196,151.685" style="stroke:rgb(0,0,0);stroke-width:0.1;fill:none" />
  <path d="M148.695,149.853 L139.142,149.853" style="stroke:rgb(0,0,0);stroke-width:0.1;fill:none" />
  <path d="M149.196,151.685 A10.0656,10.0656 0 1,0 151.199,151.685 " style="stroke:rgb(0,0,0);stroke-width:0.1;fill:none" />
  <ellipse cx="24.4722" cy="155.339" rx="1.50235" ry="1.50235" style="stroke:rgb(0,0,0);stroke-width:0.1;fill:none;"/>
  <path d="M30.069,155.492 L34.6077,153.375" style="stroke:rgb(0,0,0);stroke-width:0.1;fill:none" />
  <path d="M20.9918,159.725 L16.4532,161.841" style="stroke:rgb(0,0,0);stroke-width:0.1;fill:none" />
  <path d="M18.8754,155.186 L20.9918,159.725" style="stroke:rgb(0,0,0);stroke-width:0.1;fill:none" />
  <path d="M27.9526,150.953 L30.069,155.492" style="stroke:rgb(0,0,0);stroke-width:0.1;fill:none" />
  <path d="M18.8754,155.186 L27.9526,150.953" style="stroke:rgb(0,0,0);stroke-width:0.1;fill:none" />
  <path d="M32.4913,148.837 L34.6077,153.375" style="stroke:rgb(0,0,0);stroke-width:0.1;fill:none" />
  <path d="M32.4913,148.837 L34.8802,148.919" style="stroke:rgb(0,0,0);stroke-width:0.1;fill:none" />
  <path d="M31.456,178.484 A8.01252,8.01252 0 0,0 37.1217,180.831 " style="stroke:rgb(0,0,0);stroke-width:0.1;fill:none" />
  <path d="M16.4532,161.841 L31.456,178.484" style="stroke:rgb(0,0,0);stroke-width:0.1;fill:none" />
  <path d="M48.0376,149.853 L57.0899,149.853" style="stroke:rgb(0,0,0);stroke-width:0.1;fill:none" />
  <path d="M77.1212,145.346 L77.1212,149.853" style="stroke:rgb(0,0,0);stroke-width:0.1;fill:none" />
  <path d="M77.1212,145.346 A0.500782,0.500782 0 0,0 76.6204,144.845 " style="stroke:rgb(0,0,0);stroke-width:0.1;fill:none" />
  <path d="M57.0899,144.845 L76.6204,144.845" style="stroke:rgb(0,0,0);stroke-width:0.1;fill:none" />
  <path d="M119.111,145.346 L119.111,149.853" style="stroke:rgb(0,0,0);stroke-width:0.1;fill:none" />
  <path d="M119.611,144.845 A0.500782,0.500782 0 0,0 119.111,145.346 " style="stroke:rgb(0,0,0);stroke-width:0.1;fill:none" />
  <path d="M138.641,144.845 L119.611,144.845" style="stroke:rgb(0,0,0);stroke-width:0.1;fill:none" />
  <path d="M77.1212,149.853 L119.111,149.853" style="stroke:rgb(0,0,0);stroke-width:0.1;fill:none" />
  <path d="M125.158,171.717 L125.158,171.717" style="stroke:rgb(0,0,0);stroke-width:0.1;fill:none" />
  <path d="M125.158,171.717 L131.168,171.717" style="stroke:rgb(0,0,0);stroke-width:0.1;fill:none" />
  <ellipse cx="128.163" cy="166.709" rx="1.50235" ry="1.50235" style="stroke:rgb(0,0,0);stroke-width:0.1;fill:none;"/>
  <path d="M125.158,168.211 L125.158,171.717" style="stroke:rgb(0,0,0);stroke-width:0.1;fill:none" />
  <path d="M131.168,171.717 L131.168,168.211" style="stroke:rgb(0,0,0);stroke-width:0.1;fill:none" />
  <path d="M131.168,168.211 L128.163,168.211" style="stroke:rgb(0,0,0);stroke-width:0.1;fill:none" />
  <path d="M128.163,168.211 L128.163,168.211" style="stroke:rgb(0,0,0);stroke-width:0.1;fill:none" />
  <path d="M128.163,168.211 L128.163,168.211" style="stroke:rgb(0,0,0);stroke-width:0.1;fill:none" />
  <path d="M128.163,168.211 L125.158,168.211" style="stroke:rgb(0,0,0);stroke-width:0.1;fill:none" />
  <ellipse cx="49.54" cy="164.706" rx="1.50235" ry="1.50235" style="stroke:rgb(0,0,0);stroke-width:0.1;fill:none;"/>
  <ellipse cx="32.5134" cy="164.706" rx="1.50235" ry="1.50235" style="stroke:rgb(0,0,0);stroke-width:0.1;fill:none;"/>
  <path d="M43.13,167.51 L43.13,180.831" style="stroke:rgb(0,0,0);stroke-width:0.1;fill:none" />
  <path d="M38.9234,167.51 L38.9234,180.831" style="stroke:rgb(0,0,0);stroke-width:0.1;fill:none" />
  <path d="M43.13,167.51 A3.50548,3.50548 0 1,0 38.9234,167.51 " style="stroke:rgb(0,0,0);stroke-width:0.1;fill:none" />
  <path d="M43.13,180.831 L66.0658,180.831" style="stroke:rgb(0,0,0);stroke-width:0.1;fill:none" />
  <path d="M37.1217,180.831 L38.9234,180.831" style="stroke:rgb(0,0,0);stroke-width:0.1;fill:none" />
  <ellipse cx="161.753" cy="172.818" rx="1.50235" ry="1.50235" style="stroke:rgb(0,0,0);stroke-width:0.1;fill:none;"/>
  <path d="M57.0899,199.931 L57.0899,195.424" style="stroke:rgb(0,0,0);stroke-width:0.1;fill:none" />
  <path d="M57.5907,194.923 A0.500782,0.500782 0 0,0 57.0899,195.424 " style="stroke:rgb(0,0,0);stroke-width:0.1;fill:none" />
  <path d="M139.142,199.931 L139.142,195.424" style="stroke:rgb(0,0,0);stroke-width:0.1;fill:none" />
  <path d="M139.142,195.424 A0.500782,0.500782 0 0,0 138.641,194.923 " style="stroke:rgb(0,0,0);stroke-width:0.1;fill:none" />
  <path d="M48.0376,190.997 L48.0376,199.931" style="stroke:rgb(0,0,0);stroke-width:0.1;fill:none" />
  <path d="M79.5869,214.383 L82.5916,214.383" style="stroke:rgb(0,0,0);stroke-width:0.25;fill:none" />
  <path d="M78.2248,217.558 L78.2248,215.385" style="stroke:rgb(0,0,0);stroke-width:0.25;fill:none" />
  <path d="M83.9538,215.385 L83.9538,217.558" style="stroke:rgb(0,0,0);stroke-width:0.25;fill:none" />
  <path d="M79.5869,217.558 L78.2248,217.558" style="stroke:rgb(0,0,0);stroke-width:0.25;fill:none" />
  <path d="M83.9538,217.558 L82.5916,217.558" style="stroke:rgb(0,0,0);stroke-width:0.25;fill:none" />
  <path d="M82.5916,214.383 L82.5916,215.385" style="stroke:rgb(0,0,0);stroke-width:0.25;fill:none" />
  <path d="M82.5916,215.385 L83.9538,215.385" style="stroke:rgb(0,0,0);stroke-width:0.25;fill:none" />
  <path d="M78.2248,215.385 L79.5869,215.385" style="stroke:rgb(0,0,0);stroke-width:0.25;fill:none" />
  <path d="M79.5869,215.385 L79.5869,214.383" style="stroke:rgb(0,0,0);stroke-width:0.25;fill:none" />
  <path d="M71.0736,230.408 L71.0736,225.901" style="stroke:rgb(0,0,0);stroke-width:0.25;fill:none" />
  <path d="M71.0736,230.408 A0.500782,0.500782 0 0,0 71.5744,230.909 " style="stroke:rgb(0,0,0);stroke-width:0.25;fill:none" />
  <path d="M75.5807,230.909 L71.5744,230.909" style="stroke:rgb(0,0,0);stroke-width:0.25;fill:none" />
  <path d="M76.0815,225.901 L76.0815,230.408" style="stroke:rgb(0,0,0);stroke-width:0.25;fill:none" />
  <path d="M75.5807,230.909 A0.500782,0.500782 0 0,0 76.0815,230.408 " style="stroke:rgb(0,0,0);stroke-width:0.25;fill:none" />
  <path d="M79.0862,225.901 L76.0815,225.901" style="stroke:rgb(0,0,0);stroke-width:0.25;fill:none" />
  <path d="M79.5869,225.401 L79.5869,217.558" style="stroke:rgb(0,0,0);stroke-width:0.25;fill:none" />
  <path d="M79.0862,225.901 A0.500782,0.500782 0 0,0 79.5869,225.401 " style="stroke:rgb(0,0,0);stroke-width:0.25;fill:none" />
  <path d="M82.5916,217.558 L82.5916,225.401" style="stroke:rgb(0,0,0);stroke-width:0.25;fill:none" />
  <path d="M83.0924,225.901 L86.0971,225.901" style="stroke:rgb(0,0,0);stroke-width:0.25;fill:none" />
  <path d="M82.5916,225.401 A0.500782,0.500782 0 0,0 83.0924,225.901 " style="stroke:rgb(0,0,0);stroke-width:0.25;fill:none" />
  <path d="M86.0971,225.901 L86.0971,230.408" style="stroke:rgb(0,0,0);stroke-width:0.25;fill:none" />
  <path d="M86.0971,230.408 A0.500782,0.500782 0 0,0 86.5979,230.909 " style="stroke:rgb(0,0,0);stroke-width:0.25;fill:none" />
  <path d="M86.5979,230.909 L90.6042,230.909" style="stroke:rgb(0,0,0);stroke-width:0.25;fill:none" />
  <path d="M91.1049,230.408 L91.1049,225.901" style="stroke:rgb(0,0,0);stroke-width:0.25;fill:none" />
  <path d="M90.6042,230.909 A0.500782,0.500782 0 0,0 91.1049,230.408 " style="stroke:rgb(0,0,0);stroke-width:0.25;fill:none" />
  <path d="M34.8802,198.997 A3.16995,3.16995 0 0,0 39.3632,194.514 " style="stroke:rgb(0,0,0);stroke-width:0.1;fill:none" />
  <path d="M39.3632,190.997 A3.5175,3.5175 0 0,0 36.8759,192.027 " style="stroke:rgb(0,0,0);stroke-width:0.1;fill:none" />
  <path d="M39.3632,194.514 L36.8759,192.027" style="stroke:rgb(0,0,0);stroke-width:0.1;fill:none" />
  <path d="M48.0376,190.997 L39.3632,190.997" style="stroke:rgb(0,0,0);stroke-width:0.1;fill:none" />
  <path d="M66.0658,225.901 L66.0658,230.909" style="stroke:rgb(0,0,0);stroke-width:0.1;fill:none" />
  <path d="M66.0658,225.901 L71.0736,225.901" style="stroke:rgb(0,0,0);stroke-width:0.1;fill:none" />
  <path d="M151.7,199.931 A0.500782,0.500782 0 0,0 151.199,200.432 " style="stroke:rgb(0,0,0);stroke-width:0.1;fill:none" />
  <path d="M151.7,199.931 L153.741,199.931" style="stroke:rgb(0,0,0);stroke-width:0.1;fill:none" />
  <path d="M153.741,196.756 L153.741,199.931" style="stroke:rgb(0,0,0);stroke-width:0.1;fill:none" />
  <ellipse cx="161.753" cy="206.772" rx="1.50235" ry="1.50235" style="stroke:rgb(0,0,0);stroke-width:0.1;fill:none;"/>
  <path d="M158.583,196.756 A2.42128,2.42128 0 0,0 153.741,196.756 " style="stroke:rgb(0,0,0);stroke-width:0.1;fill:none" />
  <path d="M169.766,196.756 A2.42128,2.42128 0 0,0 164.923,196.756 " style="stroke:rgb(0,0,0);stroke-width:0.1;fill:none" />
  <path d="M158.583,196.756 A3.16995,3.16995 0 1,0 164.923,196.756 " style="stroke:rgb(0,0,0);stroke-width:0.1;fill:none" />
  <path d="M161.753,230.909 A8.01252,8.01252 0 0,0 169.766,222.897 " style="stroke:rgb(0,0,0);stroke-width:0.1;fill:none" />
  <path d="M169.766,196.756 L169.766,222.897" style="stroke:rgb(0,0,0);stroke-width:0.1;fill:none" />
  <path d="M113.64,214.383 L116.645,214.383" style="stroke:rgb(0,0,0);stroke-width:0.25;fill:none" />
  <path d="M112.278,217.558 L112.278,215.385" style="stroke:rgb(0,0,0);stroke-width:0.25;fill:none" />
  <path d="M118.007,215.385 L118.007,217.558" style="stroke:rgb(0,0,0);stroke-width:0.25;fill:none" />
  <path d="M113.64,217.558 L112.278,217.558" style="stroke:rgb(0,0,0);stroke-width:0.25;fill:none" />
  <path d="M118.007,217.558 L116.645,217.558" style="stroke:rgb(0,0,0);stroke-width:0.25;fill:none" />
  <path d="M116.645,214.383 L116.645,215.385" style="stroke:rgb(0,0,0);stroke-width:0.25;fill:none" />
  <path d="M116.645,215.385 L118.007,215.385" style="stroke:rgb(0,0,0);stroke-width:0.25;fill:none" />
  <path d="M112.278,215.385 L113.64,215.385" style="stroke:rgb(0,0,0);stroke-width:0.25;fill:none" />
  <path d="M113.64,215.385 L113.64,214.383" style="stroke:rgb(0,0,0);stroke-width:0.25;fill:none" />
  <path d="M105.127,230.408 L105.127,225.901" style="stroke:rgb(0,0,0);stroke-width:0.25;fill:none" />
  <path d="M105.127,230.408 A0.500782,0.500782 0 0,0 105.628,230.909 " style="stroke:rgb(0,0,0);stroke-width:0.25;fill:none" />
  <path d="M109.634,230.909 L105.628,230.909" style="stroke:rgb(0,0,0);stroke-width:0.25;fill:none" />
  <path d="M110.135,225.901 L110.135,230.408" style="stroke:rgb(0,0,0);stroke-width:0.25;fill:none" />
  <path d="M109.634,230.909 A0.500782,0.500782 0 0,0 110.135,230.408 " style="stroke:rgb(0,0,0);stroke-width:0.25;fill:none" />
  <path d="M113.139,225.901 L110.135,225.901" style="stroke:rgb(0,0,0);stroke-width:0.25;fill:none" />
  <path d="M113.64,225.401 L113.64,217.558" style="stroke:rgb(0,0,0);stroke-width:0.25;fill:none" />
  <path d="M113.139,225.901 A0.500782,0.500782 0 0,0 113.64,225.401 " style="stroke:rgb(0,0,0);stroke-width:0.25;fill:none" />
  <path d="M116.645,217.558 L116.645,225.401" style="stroke:rgb(0,0,0);stroke-width:0.25;fill:none" />
  <path d="M117.146,225.901 L120.15,225.901" style="stroke:rgb(0,0,0);stroke-width:0.25;fill:none" />
  <path d="M116.645,225.401 A0.500782,0.500782 0 0,0 117.146,225.901 " style="stroke:rgb(0,0,0);stroke-width:0.25;fill:none" />
  <path d="M120.15,225.901 L120.15,230.408" style="stroke:rgb(0,0,0);stroke-width:0.25;fill:none" />
  <path d="M120.15,230.408 A0.500782,0.500782 0 0,0 120.651,230.909 " style="stroke:rgb(0,0,0);stroke-width:0.25;fill:none" />
  <path d="M120.651,230.909 L124.657,230.909" style="stroke:rgb(0,0,0);stroke-width:0.25;fill:none" />
  <path d="M125.158,230.408 L125.158,225.901" style="stroke:rgb(0,0,0);stroke-width:0.25;fill:none" />
  <path d="M124.657,230.909 A0.500782,0.500782 0 0,0 125.158,230.408 " style="stroke:rgb(0,0,0);stroke-width:0.25;fill:none" />
  <path d="M91.1049,225.901 L105.127,225.901" style="stroke:rgb(0,0,0);stroke-width:0.1;fill:none" />
  <path d="M130.166,225.901 L130.166,230.909" style="stroke:rgb(0,0,0);stroke-width:0.1;fill:none" />
  <path d="M125.158,225.901 L130.166,225.901" style="stroke:rgb(0,0,0);stroke-width:0.1;fill:none" />
  <path d="M130.166,230.909 L161.753,230.909" style="stroke:rgb(0,0,0);stroke-width:0.1;fill:none" />
  <path d="M151.199,201.764 L151.199,200.432" style="stroke:rgb(0,0,0);stroke-width:0.1;fill:none" />
  <path d="M149.196,200.432 A0.500782,0.500782 0 0,0 148.695,199.931 " style="stroke:rgb(0,0,0);stroke-width:0.1;fill:none" />
  <path d="M149.196,200.432 L149.196,201.764" style="stroke:rgb(0,0,0);stroke-width:0.1;fill:none" />
  <path d="M148.695,199.931 L139.142,199.931" style="stroke:rgb(0,0,0);stroke-width:0.1;fill:none" />
  <path d="M149.196,201.764 A10.0656,10.0656 0 1,0 151.199,201.764 " style="stroke:rgb(0,0,0);stroke-width:0.1;fill:none" />
  <ellipse cx="24.4722" cy="205.417" rx="1.50235" ry="1.50235" style="stroke:rgb(0,0,0);stroke-width:0.1;fill:none;"/>
  <path d="M30.069,205.57 L34.6077,203.454" style="stroke:rgb(0,0,0);stroke-width:0.1;fill:none" />
  <path d="M20.9918,209.803 L16.4532,211.919" style="stroke:rgb(0,0,0);stroke-width:0.1;fill:none" />
  <path d="M18.8754,205.264 L20.9918,209.803" style="stroke:rgb(0,0,0);stroke-width:0.1;fill:none" />
  <path d="M27.9526,201.031 L30.069,205.57" style="stroke:rgb(0,0,0);stroke-width:0.1;fill:none" />
  <path d="M18.8754,205.264 L27.9526,201.031" style="stroke:rgb(0,0,0);stroke-width:0.1;fill:none" />
  <path d="M32.4913,198.915 L34.6077,203.454" style="stroke:rgb(0,0,0);stroke-width:0.1;fill:none" />
  <path d="M32.4913,198.915 L34.8802,198.997" style="stroke:rgb(0,0,0);stroke-width:0.1;fill:none" />
  <path d="M31.456,228.562 A8.01252,8.01252 0 0,0 37.1217,230.909 " style="stroke:rgb(0,0,0);stroke-width:0.1;fill:none" />
  <path d="M16.4532,211.919 L31.456,228.562" style="stroke:rgb(0,0,0);stroke-width:0.1;fill:none" />
  <path d="M48.0376,199.931 L57.0899,199.931" style="stroke:rgb(0,0,0);stroke-width:0.1;fill:none" />
  <path d="M77.1212,195.424 L77.1212,199.931" style="stroke:rgb(0,0,0);stroke-width:0.1;fill:none" />
  <path d="M77.1212,195.424 A0.500782,0.500782 0 0,0 76.6204,194.923 " style="stroke:rgb(0,0,0);stroke-width:0.1;fill:none" />
  <path d="M57.0899,194.923 L76.6204,194.923" style="stroke:rgb(0,0,0);stroke-width:0.1;fill:none" />
  <path d="M119.111,195.424 L119.111,199.931" style="stroke:rgb(0,0,0);stroke-width:0.1;fill:none" />
  <path d="M119.611,194.923 A0.500782,0.500782 0 0,0 119.111,195.424 " style="stroke:rgb(0,0,0);stroke-width:0.1;fill:none" />
  <path d="M138.641,194.923 L119.611,194.923" style="stroke:rgb(0,0,0);stroke-width:0.1;fill:none" />
  <path d="M77.1212,199.931 L119.111,199.931" style="stroke:rgb(0,0,0);stroke-width:0.1;fill:none" />
  <path d="M125.158,221.795 L125.158,221.795" style="stroke:rgb(0,0,0);stroke-width:0.1;fill:none" />
  <path d="M125.158,221.795 L131.168,221.795" style="stroke:rgb(0,0,0);stroke-width:0.1;fill:none" />
  <ellipse cx="128.163" cy="216.787" rx="1.50235" ry="1.50235" style="stroke:rgb(0,0,0);stroke-width:0.1;fill:none;"/>
  <path d="M125.158,218.29 L125.158,221.795" style="stroke:rgb(0,0,0);stroke-width:0.1;fill:none" />
  <path d="M131.168,221.795 L131.168,218.29" style="stroke:rgb(0,0,0);stroke-width:0.1;fill:none" />
  <path d="M131.168,218.29 L128.163,218.29" style="stroke:rgb(0,0,0);stroke-width:0.1;fill:none" />
  <path d="M128.163,218.29 L128.163,218.29" style="stroke:rgb(0,0,0);stroke-width:0.1;fill:none" />
  <path d="M128.163,218.29 L128.163,218.29" style="stroke:rgb(0,0,0);stroke-width:0.1;fill:none" />
  <path d="M128.163,218.29 L125.158,218.29" style="stroke:rgb(0,0,0);stroke-width:0.1;fill:none" />
  <ellipse cx="49.54" cy="214.784" rx="1.50235" ry="1.50235" style="stroke:rgb(0,0,0);stroke-width:0.1;fill:none;"/>
  <ellipse cx="32.5134" cy="214.784" rx="1.50235" ry="1.50235" style="stroke:rgb(0,0,0);stroke-width:0.1;fill:none;"/>
  <path d="M43.13,217.588 L43.13,230.909" style="stroke:rgb(0,0,0);stroke-width:0.1;fill:none" />
  <path d="M38.9234,217.588 L38.9234,230.909" style="stroke:rgb(0,0,0);stroke-width:0.1;fill:none" />
  <path d="M43.13,217.588 A3.50548,3.50548 0 1,0 38.9234,217.588 " style="stroke:rgb(0,0,0);stroke-width:0.1;fill:none" />
  <path d="M43.13,230.909 L66.0658,230.909" style="stroke:rgb(0,0,0);stroke-width:0.1;fill:none" />
  <path d="M37.1217,230.909 L38.9234,230.909" style="stroke:rgb(0,0,0);stroke-width:0.1;fill:none" />
  <ellipse cx="161.753" cy="222.897" rx="1.50235" ry="1.50235" style="stroke:rgb(0,0,0);stroke-width:0.1;fill:none;"/>
  <path d="M28.0078,256.023 L23,256.023" style="stroke:rgb(0,0,0);stroke-width:0.1;fill:none" />
  <path d="M23,246.008 L28.0078,246.008" style="stroke:rgb(0,0,0);stroke-width:0.1;fill:none" />
  <path d="M115.068,246.008 L120.075,246.008" style="stroke:rgb(0,0,0);stroke-width:0.1;fill:none" />
  <path d="M120.075,256.023 L115.068,256.023" style="stroke:rgb(0,0,0);stroke-width:0.1;fill:none" />
  <path d="M108.557,252.518 L108.557,249.513" style="stroke:rgb(0,0,0);stroke-width:0.1;fill:none" />
  <path d="M111.732,253.88 L109.559,253.88" style="stroke:rgb(0,0,0);stroke-width:0.1;fill:none" />
  <path d="M109.559,248.151 L111.732,248.151" style="stroke:rgb(0,0,0);stroke-width:0.1;fill:none" />
  <path d="M111.732,252.518 L111.732,253.88" style="stroke:rgb(0,0,0);stroke-width:0.1;fill:none" />
  <path d="M111.732,248.151 L111.732,249.513" style="stroke:rgb(0,0,0);stroke-width:0.1;fill:none" />
  <path d="M108.557,249.513 L109.559,249.513" style="stroke:rgb(0,0,0);stroke-width:0.1;fill:none" />
  <path d="M109.559,249.513 L109.559,248.151" style="stroke:rgb(0,0,0);stroke-width:0.1;fill:none" />
  <path d="M109.559,253.88 L109.559,252.518" style="stroke:rgb(0,0,0);stroke-width:0.1;fill:none" />
  <path d="M109.559,252.518 L108.557,252.518" style="stroke:rgb(0,0,0);stroke-width:0.1;fill:none" />
  <path d="M34.518,252.518 L34.518,249.513" style="stroke:rgb(0,0,0);stroke-width:0.1;fill:none" />
  <path d="M31.343,253.88 L33.5164,253.88" style="stroke:rgb(0,0,0);stroke-width:0.1;fill:none" />
  <path d="M33.5164,248.151 L31.343,248.151" style="stroke:rgb(0,0,0);stroke-width:0.1;fill:none" />
  <path d="M31.343,252.518 L31.343,253.88" style="stroke:rgb(0,0,0);stroke-width:0.1;fill:none" />
  <path d="M31.343,248.151 L31.343,249.513" style="stroke:rgb(0,0,0);stroke-width:0.1;fill:none" />
  <path d="M34.518,249.513 L33.5164,249.513" style="stroke:rgb(0,0,0);stroke-width:0.1;fill:none" />
  <path d="M33.5164,249.513 L33.5164,248.151" style="stroke:rgb(0,0,0);stroke-width:0.1;fill:none" />
  <path d="M33.5164,253.88 L33.5164,252.518" style="stroke:rgb(0,0,0);stroke-width:0.1;fill:none" />
  <path d="M33.5164,252.518 L34.518,252.518" style="stroke:rgb(0,0,0);stroke-width:0.1;fill:none" />
  <path d="M23,241 L120.075,241" style="stroke:rgb(0,0,0);stroke-width:0.1;fill:none" />
  <path d="M120.075,261.031 L23,261.031" style="stroke:rgb(0,0,0);stroke-width:0.1;fill:none" />
  <path d="M28.5086,252.518 A0.500782,0.500782 0 0,0 28.0078,253.019 " style="stroke:rgb(0,0,0);stroke-width:0.1;fill:none" />
  <path d="M28.0078,253.019 L28.0078,256.023" style="stroke:rgb(0,0,0);stroke-width:0.1;fill:none" />
  <path d="M28.0078,249.013 A0.500782,0.500782 0 0,0 28.5086,249.513 " style="stroke:rgb(0,0,0);stroke-width:0.1;fill:none" />
  <path d="M28.0078,249.013 L28.0078,246.008" style="stroke:rgb(0,0,0);stroke-width:0.1;fill:none" />
  <path d="M23,261.031 L23,256.023" style="stroke:rgb(0,0,0);stroke-width:0.1;fill:none" />
  <path d="M23,246.008 L23,241" style="stroke:rgb(0,0,0);stroke-width:0.1;fill:none" />
  <path d="M28.5086,252.518 L31.343,252.518" style="stroke:rgb(0,0,0);stroke-width:0.1;fill:none" />
  <path d="M31.343,249.513 L28.5086,249.513" style="stroke:rgb(0,0,0);stroke-width:0.1;fill:none" />
  <path d="M120.075,241 L120.075,246.008" style="stroke:rgb(0,0,0);stroke-width:0.1;fill:none" />
  <path d="M120.075,256.023 L120.075,261.031" style="stroke:rgb(0,0,0);stroke-width:0.1;fill:none" />
  <path d="M115.068,253.019 A0.500782,0.500782 0 0,0 114.567,252.518 " style="stroke:rgb(0,0,0);stroke-width:0.1;fill:none" />
  <path d="M115.068,253.019 L115.068,256.023" style="stroke:rgb(0,0,0);stroke-width:0.1;fill:none" />
  <path d="M114.567,249.513 A0.500782,0.500782 0 0,0 115.068,249.013 " style="stroke:rgb(0,0,0);stroke-width:0.1;fill:none" />
  <path d="M115.068,249.013 L115.068,246.008" style="stroke:rgb(0,0,0);stroke-width:0.1;fill:none" />
  <path d="M111.732,249.513 L114.567,249.513" style="stroke:rgb(0,0,0);stroke-width:0.1;fill:none" />
  <path d="M114.567,252.518 L111.732,252.518" style="stroke:rgb(0,0,0);stroke-width:0.1;fill:none" />
  <path d="M133.855,252.314 L133.855,247.98" style="stroke:rgb(0,0,0);stroke-width:0.1;fill:none" />
  <path d="M133.855,252.314 A3.16995,3.16995 0 1,0 133.855,247.98 " style="stroke:rgb(0,0,0);stroke-width:0.1;fill:none" />
  <path d="M135.166,241.878 L135.081,241.175 L135.155,240.579 L135.744,239.241 L136.593,239.241 L137.182,240.579 L137.256,241.175 L137.171,241.878 L138.646,242.192 L138.855,241.515 L139.165,241 L140.248,240.018 L141.023,240.363 L141.017,241.825 L140.842,242.4 L140.479,243.008 L141.698,243.894 L142.164,243.361 L142.657,243.016 L144.046,242.559 L144.613,243.19 L144.014,244.523 L143.62,244.977 L143.04,245.385 L143.794,246.69 L144.437,246.393 L145.027,246.278 L146.482,246.425 L146.744,247.232 L145.654,248.206 L145.109,248.461 L144.414,248.598 L144.572,250.097 L145.28,250.087 L145.866,250.223 L147.134,250.949 L147.046,251.792 L145.654,252.239 L145.053,252.25 L144.362,252.092 L143.896,253.526 L144.547,253.804 L145.027,254.167 L145.891,255.346 L145.467,256.081 L144.014,255.922 L143.46,255.688 L142.893,255.263 L141.884,256.383 L142.366,256.903 L142.657,257.429 L142.967,258.858 L142.28,259.356 L141.017,258.62 L140.607,258.181 L140.262,257.563 L138.884,258.176 L139.113,258.846 L139.165,259.445 L138.867,260.876 L138.037,261.053 L137.182,259.866 L136.986,259.298 L136.922,258.593 L135.415,258.593 L135.351,259.298 L135.155,259.866 L134.3,261.053 L133.47,260.876 L133.172,259.445 L133.224,258.846 L133.453,258.176 L132.075,257.563 L131.731,258.181 L131.32,258.62 L130.057,259.356 L129.37,258.858 L129.68,257.429 L129.971,256.903 L130.453,256.383 L129.444,255.263 L128.877,255.688 L128.323,255.922 L126.87,256.081 L126.446,255.346 L127.31,254.167 L127.79,253.804 L128.441,253.526 L127.975,252.092 L127.285,252.25 L126.683,252.239 L125.291,251.792 L125.203,250.949 L126.472,250.223 L127.057,250.087 L127.765,250.097 L127.923,248.598 L127.228,248.461 L126.683,248.206 L125.593,247.232 L125.855,246.425 L127.31,246.278 L127.9,246.393 L128.543,246.69 L129.297,245.385 L128.718,244.977 L128.323,244.523 L127.724,243.19 L128.291,242.559 L129.68,243.016 L130.173,243.361 L130.639,243.894 L131.859,243.008 L131.495,242.4 L131.32,241.825 L131.314,240.363 L132.089,240.018 L133.172,241 L133.482,241.515 L133.691,242.192 L135.166,241.878 " style="stroke:rgb(0,0,0);stroke-width:0.1;fill:none" />
  <path d="M163.81,249.842 L163.733,250.481 L163.8,251.023 L164.336,252.239 L165.107,252.239 L165.643,251.023 L165.71,250.481 L165.633,249.842 L166.974,249.556 L167.164,250.172 L167.445,250.64 L168.43,251.533 L169.134,251.219 L169.129,249.89 L168.97,249.367 L168.64,248.815 L169.748,248.009 L170.172,248.494 L170.62,248.807 L171.883,249.223 L172.399,248.65 L171.853,247.438 L171.495,247.025 L170.969,246.654 L171.654,245.467 L172.238,245.738 L172.775,245.842 L174.097,245.708 L174.335,244.974 L173.344,244.089 L172.849,243.857 L172.217,243.733 L172.361,242.37 L173.004,242.38 L173.537,242.256 L174.69,241.596 L174.61,240.829 L173.344,240.423 L172.798,240.413 L172.17,240.556 L171.746,239.253 L172.338,239 L172.775,238.67 L173.56,237.598 L173.175,236.93 L171.853,237.074 L171.35,237.288 L170.835,237.674 L169.918,236.655 L170.355,236.183 L170.62,235.705 L170.902,234.406 L170.278,233.953 L169.129,234.621 L168.756,235.021 L168.442,235.583 L167.19,235.026 L167.398,234.417 L167.445,233.872 L167.174,232.571 L166.42,232.411 L165.643,233.489 L165.464,234.006 L165.407,234.647 L164.036,234.647 L163.978,234.006 L163.8,233.489 L163.023,232.411 L162.269,232.571 L161.997,233.872 L162.044,234.417 L162.253,235.026 L161,235.583 L160.687,235.021 L160.314,234.621 L159.165,233.953 L158.541,234.406 L158.823,235.705 L159.087,236.183 L159.525,236.655 L158.608,237.674 L158.093,237.288 L157.59,237.074 L156.268,236.93 L155.883,237.598 L156.668,238.67 L157.104,239 L157.696,239.253 L157.273,240.556 L156.645,240.413 L156.099,240.423 L154.833,240.829 L154.752,241.596 L155.906,242.256 L156.439,242.38 L157.082,242.37 L157.225,243.733 L156.594,243.857 L156.099,244.089 L155.108,244.974 L155.346,245.708 L156.668,245.842 L157.205,245.738 L157.789,245.467 L158.474,246.654 L157.948,247.025 L157.59,247.438 L157.044,248.65 L157.56,249.223 L158.823,248.807 L159.271,248.494 L159.694,248.009 L160.803,248.815 L160.473,249.367 L160.314,249.89 L160.309,251.219 L161.013,251.533 L161.997,250.64 L162.279,250.172 L162.469,249.556 L163.81,249.842 " style="stroke:rgb(0,0,0);stroke-width:0.1;fill:none" />
  <path d="M163.219,241 L163.219,243.65" style="stroke:rgb(0,0,0);stroke-width:0.1;fill:none" />
  <path d="M163.219,243.65 A2.00313,2.00313 0 1,0 163.219,241 " style="stroke:rgb(0,0,0);stroke-width:0.1;fill:none" />
  <path d="M25.5039,298.59 L45.5352,383.723" style="stroke:rgb(0,0,0);stroke-width:0.1;fill:none" />
  <path d="M320.966,383.723 L300.934,298.59" style="stroke:rgb(0,0,0);stroke-width:0.1;fill:none" />
  <path d="M25.5039,298.59 L300.934,298.59" style="stroke:rgb(0,0,0);stroke-width:0.1;fill:none" />
  <path d="M320.966,383.723 L45.5352,383.723" style="stroke:rgb(0,0,0);stroke-width:0.1;fill:none" />
  <path d="M205.781,159.963 L205.142,159.886 L204.599,159.953 L203.383,160.489 L203.383,161.26 L204.599,161.796 L205.142,161.863 L205.781,161.787 L206.066,163.127 L205.451,163.317 L204.982,163.599 L204.089,164.583 L204.403,165.288 L205.732,165.283 L206.255,165.123 L206.807,164.793 L207.613,165.902 L207.128,166.325 L206.815,166.774 L206.399,168.036 L206.973,168.552 L208.185,168.007 L208.598,167.648 L208.968,167.122 L210.155,167.807 L209.885,168.392 L209.781,168.928 L209.914,170.25 L210.648,170.489 L211.533,169.498 L211.765,169.002 L211.889,168.371 L213.252,168.514 L213.243,169.158 L213.366,169.69 L214.026,170.844 L214.793,170.763 L215.199,169.498 L215.209,168.951 L215.066,168.323 L216.37,167.9 L216.622,168.492 L216.952,168.928 L218.024,169.713 L218.692,169.328 L218.548,168.007 L218.335,167.503 L217.949,166.988 L218.967,166.071 L219.439,166.509 L219.918,166.774 L221.216,167.055 L221.67,166.431 L221.001,165.283 L220.601,164.909 L220.039,164.596 L220.596,163.344 L221.206,163.552 L221.75,163.599 L223.051,163.328 L223.212,162.573 L222.134,161.796 L221.617,161.618 L220.976,161.56 L220.976,160.189 L221.617,160.132 L222.134,159.953 L223.212,159.176 L223.051,158.422 L221.75,158.151 L221.206,158.198 L220.596,158.406 L220.039,157.154 L220.601,156.84 L221.001,156.467 L221.67,155.319 L221.216,154.695 L219.918,154.976 L219.439,155.241 L218.967,155.679 L217.949,154.761 L218.335,154.246 L218.548,153.743 L218.692,152.422 L218.024,152.036 L216.952,152.821 L216.622,153.258 L216.37,153.85 L215.066,153.426 L215.209,152.798 L215.199,152.252 L214.793,150.986 L214.026,150.906 L213.366,152.059 L213.243,152.592 L213.252,153.236 L211.889,153.379 L211.765,152.747 L211.533,152.252 L210.648,151.261 L209.914,151.499 L209.781,152.821 L209.885,153.358 L210.155,153.942 L208.968,154.628 L208.598,154.101 L208.185,153.743 L206.973,153.198 L206.399,153.714 L206.815,154.976 L207.128,155.424 L207.613,155.848 L206.807,156.957 L206.255,156.626 L205.732,156.467 L204.403,156.462 L204.089,157.166 L204.982,158.151 L205.451,158.433 L206.066,158.622 L205.781,159.963 " style="stroke:rgb(0,0,0);stroke-width:0.1;fill:none" />
  <path d="M228.817,159.963 L228.178,159.886 L227.635,159.953 L226.419,160.489 L226.419,161.26 L227.635,161.796 L228.178,161.863 L228.817,161.787 L229.102,163.127 L228.487,163.317 L228.018,163.599 L227.125,164.583 L227.439,165.288 L228.768,165.283 L229.291,165.123 L229.843,164.793 L230.649,165.902 L230.164,166.325 L229.851,166.774 L229.435,168.036 L230.009,168.552 L231.221,168.007 L231.634,167.648 L232.004,167.122 L233.191,167.807 L232.921,168.392 L232.817,168.928 L232.95,170.25 L233.684,170.489 L234.569,169.498 L234.801,169.002 L234.925,168.371 L236.288,168.514 L236.279,169.158 L236.402,169.69 L237.062,170.844 L237.829,170.763 L238.235,169.498 L238.245,168.951 L238.102,168.323 L239.406,167.9 L239.658,168.492 L239.988,168.928 L241.06,169.713 L241.728,169.328 L241.584,168.007 L241.371,167.503 L240.985,166.988 L242.003,166.071 L242.475,166.509 L242.954,166.774 L244.252,167.055 L244.706,166.431 L244.037,165.283 L243.637,164.909 L243.075,164.596 L243.632,163.344 L244.242,163.552 L244.786,163.599 L246.087,163.328 L246.248,162.573 L245.17,161.796 L244.653,161.618 L244.011,161.56 L244.011,160.189 L244.653,160.132 L245.17,159.953 L246.248,159.176 L246.087,158.422 L244.786,158.151 L244.242,158.198 L243.632,158.406 L243.075,157.154 L243.637,156.84 L244.037,156.467 L244.706,155.319 L244.252,154.695 L242.954,154.976 L242.475,155.241 L242.003,155.679 L240.985,154.761 L241.371,154.246 L241.584,153.743 L241.728,152.422 L241.06,152.036 L239.988,152.821 L239.658,153.258 L239.406,153.85 L238.102,153.426 L238.245,152.798 L238.235,152.252 L237.829,150.986 L237.062,150.906 L236.402,152.059 L236.279,152.592 L236.288,153.236 L234.925,153.379 L234.801,152.747 L234.569,152.252 L233.684,151.261 L232.95,151.499 L232.817,152.821 L232.921,153.358 L233.191,153.942 L232.004,154.628 L231.634,154.101 L231.221,153.743 L230.009,153.198 L229.435,153.714 L229.851,154.976 L230.164,155.424 L230.649,155.848 L229.843,156.957 L229.291,156.626 L228.768,156.467 L227.439,156.462 L227.125,157.166 L228.018,158.151 L228.487,158.433 L229.102,158.622 L228.817,159.963 " style="stroke:rgb(0,0,0);stroke-width:0.1;fill:none" />
  <path d="M212.105,159.523 A1.80282,1.80282 0 1,0 214.49,159.523 " style="stroke:rgb(0,0,0);stroke-width:0.1;fill:none" />
  <path d="M235.207,159.598 A1.70266,1.70266 0 1,0 237.46,159.598 " style="stroke:rgb(0,0,0);stroke-width:0.1;fill:none" />
  <path d="M214.49,159.523 L212.105,159.523" style="stroke:rgb(0,0,0);stroke-width:0.1;fill:none" />
  <path d="M237.46,159.598 L235.207,159.598" style="stroke:rgb(0,0,0);stroke-width:0.1;fill:none" />
  <path d="M198.17,135.321 L201.509,135.321" style="stroke:rgb(0,0,0);stroke-width:0.25;fill:none" />
  <path d="M199.84,135.321 L199.84,140.329" style="stroke:rgb(0,0,0);stroke-width:0.25;fill:none" />
  <path d="M203.178,138.66 L205.404,138.66" style="stroke:rgb(0,0,0);stroke-width:0.25;fill:none" />
  <path d="M205.404,138.66 L205.404,138.103" style="stroke:rgb(0,0,0);stroke-width:0.25;fill:none" />
  <path d="M205.404,138.103 A1.11285,1.11285 0 0,0 203.178,138.103 " style="stroke:rgb(0,0,0);stroke-width:0.25;fill:none" />
  <path d="M203.178,138.103 L203.178,139.494" style="stroke:rgb(0,0,0);stroke-width:0.25;fill:none" />
  <path d="M203.178,139.494 A0.834637,0.834637 0 0,0 204.013,140.329 " style="stroke:rgb(0,0,0);stroke-width:0.25;fill:none" />
  <path d="M204.013,140.329 L205.404,140.329" style="stroke:rgb(0,0,0);stroke-width:0.25;fill:none" />
  <path d="M209.299,137.303 A2.25742,2.25742 0 0,0 207.568,137.172 " style="stroke:rgb(0,0,0);stroke-width:0.25;fill:none" />
  <path d="M207.569,137.172 A0.66771,0.66771 0 0,0 207.526,138.424 " style="stroke:rgb(0,0,0);stroke-width:0.25;fill:none" />
  <path d="M207.526,138.424 L208.845,138.963" style="stroke:rgb(0,0,0);stroke-width:0.25;fill:none" />
  <path d="M208.803,140.215 A0.66771,0.66771 0 0,0 208.846,138.963 " style="stroke:rgb(0,0,0);stroke-width:0.25;fill:none" />
  <path d="M207.073,140.085 A2.25742,2.25742 0 0,0 208.804,140.215 " style="stroke:rgb(0,0,0);stroke-width:0.25;fill:none" />
  <path d="M210.968,136.99 L212.637,136.99" style="stroke:rgb(0,0,0);stroke-width:0.25;fill:none" />
  <path d="M211.524,135.321 L211.524,140.329" style="stroke:rgb(0,0,0);stroke-width:0.25;fill:none" />
  <path d="M214.306,140.329 L214.306,136.99" style="stroke:rgb(0,0,0);stroke-width:0.25;fill:none" />
  <path d="M214.306,135.599 L214.306,135.321" style="stroke:rgb(0,0,0);stroke-width:0.25;fill:none" />
  <path d="M215.976,140.329 L215.976,136.99" style="stroke:rgb(0,0,0);stroke-width:0.25;fill:none" />
  <path d="M215.976,136.99 L217.367,136.99" style="stroke:rgb(0,0,0);stroke-width:0.25;fill:none" />
  <path d="M218.201,137.825 A0.834637,0.834637 0 0,0 217.367,136.99 " style="stroke:rgb(0,0,0);stroke-width:0.25;fill:none" />
  <path d="M218.201,137.825 L218.201,140.329" style="stroke:rgb(0,0,0);stroke-width:0.25;fill:none" />
  <path d="M219.871,141.998 L221.262,141.998" style="stroke:rgb(0,0,0);stroke-width:0.25;fill:none" />
  <path d="M221.262,141.998 A0.834637,0.834637 0 0,0 222.096,141.164 " style="stroke:rgb(0,0,0);stroke-width:0.25;fill:none" />
  <path d="M222.096,141.164 L222.096,136.99" style="stroke:rgb(0,0,0);stroke-width:0.25;fill:none" />
  <path d="M222.096,136.99 L220.705,136.99" style="stroke:rgb(0,0,0);stroke-width:0.25;fill:none" />
  <path d="M220.705,136.99 A0.834637,0.834637 0 0,0 219.871,137.825 " style="stroke:rgb(0,0,0);stroke-width:0.25;fill:none" />
  <path d="M219.871,137.825 L219.871,139.494" style="stroke:rgb(0,0,0);stroke-width:0.25;fill:none" />
  <path d="M219.871,139.494 A0.834637,0.834637 0 0,0 220.705,140.329 " style="stroke:rgb(0,0,0);stroke-width:0.25;fill:none" />
  <path d="M220.705,140.329 L222.096,140.329" style="stroke:rgb(0,0,0);stroke-width:0.25;fill:none" />
  <path d="M198.17,148.341 L198.17,145.003" style="stroke:rgb(0,0,0);stroke-width:0.25;fill:none" />
  <path d="M198.17,145.003 L199.283,145.003" style="stroke:rgb(0,0,0);stroke-width:0.25;fill:none" />
  <path d="M199.84,145.559 A0.556425,0.556425 0 0,0 199.283,145.003 " style="stroke:rgb(0,0,0);stroke-width:0.25;fill:none" />
  <path d="M201.509,145.281 L203.735,145.281" style="stroke:rgb(0,0,0);stroke-width:0.25;fill:none" />
  <path d="M201.509,146.95 L203.735,146.95" style="stroke:rgb(0,0,0);stroke-width:0.25;fill:none" />
  <path d="M205.404,144.446 L206.517,143.334" style="stroke:rgb(0,0,0);stroke-width:0.25;fill:none" />
  <path d="M206.517,143.334 L206.517,148.341" style="stroke:rgb(0,0,0);stroke-width:0.25;fill:none" />
  <path d="M208.186,148.341 L208.186,148.063" style="stroke:rgb(0,0,0);stroke-width:0.25;fill:none" />
  <path d="M209.855,146.672 L209.855,147.229" style="stroke:rgb(0,0,0);stroke-width:0.25;fill:none" />
  <path d="M209.855,147.229 A1.11285,1.11285 0 0,0 212.081,147.229 " style="stroke:rgb(0,0,0);stroke-width:0.25;fill:none" />
  <path d="M212.081,147.229 L212.081,146.672" style="stroke:rgb(0,0,0);stroke-width:0.25;fill:none" />
  <path d="M212.081,146.672 A1.11285,1.11285 0 0,0 209.855,146.672 " style="stroke:rgb(0,0,0);stroke-width:0.25;fill:none" />
  <path d="M209.994,144.307 L209.994,144.586" style="stroke:rgb(0,0,0);stroke-width:0.25;fill:none" />
  <path d="M209.994,144.586 A0.973744,0.973744 0 0,0 211.942,144.586 " style="stroke:rgb(0,0,0);stroke-width:0.25;fill:none" />
  <path d="M211.942,144.586 L211.942,144.307" style="stroke:rgb(0,0,0);stroke-width:0.25;fill:none" />
  <path d="M211.942,144.307 A0.973744,0.973744 0 0,0 209.994,144.307 " style="stroke:rgb(0,0,0);stroke-width:0.25;fill:none" />
  <path d="M217.506,148.341 L217.506,145.003" style="stroke:rgb(0,0,0);stroke-width:0.25;fill:none" />
  <path d="M217.506,145.003 L220.01,145.003" style="stroke:rgb(0,0,0);stroke-width:0.25;fill:none" />
  <path d="M220.845,145.838 A0.834637,0.834637 0 0,0 220.01,145.003 " style="stroke:rgb(0,0,0);stroke-width:0.25;fill:none" />
  <path d="M220.845,145.838 L220.845,148.341" style="stroke:rgb(0,0,0);stroke-width:0.25;fill:none" />
  <path d="M219.175,145.003 L219.175,148.341" style="stroke:rgb(0,0,0);stroke-width:0.25;fill:none" />
  <path d="M222.514,148.341 L222.514,145.003" style="stroke:rgb(0,0,0);stroke-width:0.25;fill:none" />
  <path d="M222.514,145.003 L225.018,145.003" style="stroke:rgb(0,0,0);stroke-width:0.25;fill:none" />
  <path d="M225.853,145.838 A0.834637,0.834637 0 0,0 225.018,145.003 " style="stroke:rgb(0,0,0);stroke-width:0.25;fill:none" />
  <path d="M225.853,145.838 L225.853,148.341" style="stroke:rgb(0,0,0);stroke-width:0.25;fill:none" />
  <path d="M224.183,145.003 L224.183,148.341" style="stroke:rgb(0,0,0);stroke-width:0.25;fill:none" />
  <path d="M235.034,148.341 L235.034,145.003" style="stroke:rgb(0,0,0);stroke-width:0.25;fill:none" />
  <path d="M235.034,145.003 L236.146,145.003" style="stroke:rgb(0,0,0);stroke-width:0.25;fill:none" />
  <path d="M236.703,145.559 A0.556425,0.556425 0 0,0 236.146,145.003 " style="stroke:rgb(0,0,0);stroke-width:0.25;fill:none" />
  <path d="M238.372,145.281 L240.598,145.281" style="stroke:rgb(0,0,0);stroke-width:0.25;fill:none" />
  <path d="M238.372,146.95 L240.598,146.95" style="stroke:rgb(0,0,0);stroke-width:0.25;fill:none" />
  <path d="M242.267,144.446 L243.38,143.334" style="stroke:rgb(0,0,0);stroke-width:0.25;fill:none" />
  <path d="M243.38,143.334 L243.38,148.341" style="stroke:rgb(0,0,0);stroke-width:0.25;fill:none" />
  <path d="M245.049,148.341 L245.049,148.063" style="stroke:rgb(0,0,0);stroke-width:0.25;fill:none" />
  <path d="M246.718,143.334 L248.944,143.334" style="stroke:rgb(0,0,0);stroke-width:0.25;fill:none" />
  <path d="M248.944,143.334 L247.553,148.341" style="stroke:rgb(0,0,0);stroke-width:0.25;fill:none" />
  <path d="M247.831,145.559 L248.944,145.559" style="stroke:rgb(0,0,0);stroke-width:0.25;fill:none" />
  <path d="M254.369,148.341 L254.369,145.003" style="stroke:rgb(0,0,0);stroke-width:0.25;fill:none" />
  <path d="M254.369,145.003 L256.873,145.003" style="stroke:rgb(0,0,0);stroke-width:0.25;fill:none" />
  <path d="M257.708,145.838 A0.834637,0.834637 0 0,0 256.873,145.003 " style="stroke:rgb(0,0,0);stroke-width:0.25;fill:none" />
  <path d="M257.708,145.838 L257.708,148.341" style="stroke:rgb(0,0,0);stroke-width:0.25;fill:none" />
  <path d="M256.039,145.003 L256.039,148.341" style="stroke:rgb(0,0,0);stroke-width:0.25;fill:none" />
  <ellipse cx="33.0156" cy="70.0208" rx="2.7543" ry="2.7543" style="stroke:rgb(0,0,0);stroke-width:0.1;fill:none;"/>
  <ellipse cx="12.8842" cy="57.0005" rx="2.7543" ry="2.7543" style="stroke:rgb(0,0,0);stroke-width:0.1;fill:none;"/>
  <ellipse cx="53.1471" cy="57.0005" rx="2.7543" ry="2.7543" style="stroke:rgb(0,0,0);stroke-width:0.1;fill:none;"/>
  <path d="M39.7962,87.6784 L37.052,87.6784" style="stroke:rgb(0,0,0);stroke-width:0.1;fill:none" />
  <path d="M39.7962,90.4227 L39.7962,87.6784" style="stroke:rgb(0,0,0);stroke-width:0.1;fill:none" />
  <path d="M37.052,87.6784 L37.052,90.4227" style="stroke:rgb(0,0,0);stroke-width:0.1;fill:none" />
  <path d="M37.052,90.4227 L39.7962,90.4227" style="stroke:rgb(0,0,0);stroke-width:0.1;fill:none" />
  <path d="M28.9793,87.6784 L26.2351,87.6784" style="stroke:rgb(0,0,0);stroke-width:0.1;fill:none" />
  <path d="M28.9793,90.4227 L28.9793,87.6784" style="stroke:rgb(0,0,0);stroke-width:0.1;fill:none" />
  <path d="M26.2351,87.6784 L26.2351,90.4227" style="stroke:rgb(0,0,0);stroke-width:0.1;fill:none" />
  <path d="M26.2351,90.4227 L28.9793,90.4227" style="stroke:rgb(0,0,0);stroke-width:0.1;fill:none" />
  <path d="M34.3878,55.6284 L31.6435,55.6284" style="stroke:rgb(0,0,0);stroke-width:0.1;fill:none" />
  <path d="M34.3878,58.3726 L34.3878,55.6284" style="stroke:rgb(0,0,0);stroke-width:0.1;fill:none" />
  <path d="M31.6435,55.6284 L31.6435,58.3726" style="stroke:rgb(0,0,0);stroke-width:0.1;fill:none" />
  <path d="M31.6435,58.3726 L34.3878,58.3726" style="stroke:rgb(0,0,0);stroke-width:0.1;fill:none" />
  <path d="M39.7962,41.6064 L37.052,41.6064" style="stroke:rgb(0,0,0);stroke-width:0.1;fill:none" />
  <path d="M39.7962,44.3507 L39.7962,41.6064" style="stroke:rgb(0,0,0);stroke-width:0.1;fill:none" />
  <path d="M37.052,41.6064 L37.052,44.3507" style="stroke:rgb(0,0,0);stroke-width:0.1;fill:none" />
  <path d="M37.052,44.3507 L39.7962,44.3507" style="stroke:rgb(0,0,0);stroke-width:0.1;fill:none" />
  <path d="M28.9793,41.6064 L26.2351,41.6064" style="stroke:rgb(0,0,0);stroke-width:0.1;fill:none" />
  <path d="M28.9793,44.3507 L28.9793,41.6064" style="stroke:rgb(0,0,0);stroke-width:0.1;fill:none" />
  <path d="M26.2351,41.6064 L26.2351,44.3507" style="stroke:rgb(0,0,0);stroke-width:0.1;fill:none" />
  <path d="M26.2351,44.3507 L28.9793,44.3507" style="stroke:rgb(0,0,0);stroke-width:0.1;fill:none" />
  <ellipse cx="15.989" cy="19.9426" rx="1.50235" ry="1.50235" style="stroke:rgb(0,0,0);stroke-width:0.25;fill:none;"/>
  <path d="M20.9969,17.4387 L26.0047,17.4387" style="stroke:rgb(0,0,0);stroke-width:0.25;fill:none" />
  <path d="M20.9969,22.4465 L26.0047,22.4465" style="stroke:rgb(0,0,0);stroke-width:0.25;fill:none" />
  <path d="M10.9812,17.4387 L5.9734,17.4387" style="stroke:rgb(0,0,0);stroke-width:0.25;fill:none" />
  <path d="M10.9812,22.4465 L5.9734,22.4465" style="stroke:rgb(0,0,0);stroke-width:0.25;fill:none" />
  <path d="M5.9734,17.4387 L5.9734,22.4465" style="stroke:rgb(0,0,0);stroke-width:0.25;fill:none" />
  <path d="M10.9812,17.4387 L10.9812,22.4465" style="stroke:rgb(0,0,0);stroke-width:0.25;fill:none" />
  <path d="M20.9969,17.4387 L20.9969,22.4465" style="stroke:rgb(0,0,0);stroke-width:0.25;fill:none" />
  <path d="M26.0047,17.4387 L26.0047,22.4465" style="stroke:rgb(0,0,0);stroke-width:0.25;fill:none" />
  <ellipse cx="48.0792" cy="56.9604" rx="2.70423" ry="2.70423" style="stroke:rgb(0,0,0);stroke-width:0.1;fill:none;"/>
  <ellipse cx="33.0557" cy="71.9839" rx="2.70423" ry="2.70423" style="stroke:rgb(0,0,0);stroke-width:0.1;fill:none;"/>
  <ellipse cx="18.0322" cy="56.9604" rx="2.70423" ry="2.70423" style="stroke:rgb(0,0,0);stroke-width:0.1;fill:none;"/>
  <ellipse cx="15.989" cy="112.01" rx="1.50235" ry="1.50235" style="stroke:rgb(0,0,0);stroke-width:0.25;fill:none;"/>
  <path d="M20.9969,109.506 L26.0047,109.506" style="stroke:rgb(0,0,0);stroke-width:0.25;fill:none" />
  <path d="M20.9969,114.514 L26.0047,114.514" style="stroke:rgb(0,0,0);stroke-width:0.25;fill:none" />
  <path d="M10.9812,109.506 L5.9734,109.506" style="stroke:rgb(0,0,0);stroke-width:0.25;fill:none" />
  <path d="M10.9812,114.514 L5.9734,114.514" style="stroke:rgb(0,0,0);stroke-width:0.25;fill:none" />
  <path d="M5.9734,109.506 L5.9734,114.514" style="stroke:rgb(0,0,0);stroke-width:0.25;fill:none" />
  <path d="M10.9812,109.506 L10.9812,114.514" style="stroke:rgb(0,0,0);stroke-width:0.25;fill:none" />
  <path d="M20.9969,109.506 L20.9969,114.514" style="stroke:rgb(0,0,0);stroke-width:0.25;fill:none" />
  <path d="M26.0047,109.506 L26.0047,114.514" style="stroke:rgb(0,0,0);stroke-width:0.25;fill:none" />
  <ellipse cx="50.0423" cy="19.9426" rx="1.50235" ry="1.50235" style="stroke:rgb(0,0,0);stroke-width:0.25;fill:none;"/>
  <path d="M55.0501,17.4387 L60.0579,17.4387" style="stroke:rgb(0,0,0);stroke-width:0.25;fill:none" />
  <path d="M55.0501,22.4465 L60.0579,22.4465" style="stroke:rgb(0,0,0);stroke-width:0.25;fill:none" />
  <path d="M45.0344,17.4387 L40.0266,17.4387" style="stroke:rgb(0,0,0);stroke-width:0.25;fill:none" />
  <path d="M45.0344,22.4465 L40.0266,22.4465" style="stroke:rgb(0,0,0);stroke-width:0.25;fill:none" />
  <path d="M40.0266,17.4387 L40.0266,22.4465" style="stroke:rgb(0,0,0);stroke-width:0.25;fill:none" />
  <path d="M45.0344,17.4387 L45.0344,22.4465" style="stroke:rgb(0,0,0);stroke-width:0.25;fill:none" />
  <path d="M55.0501,17.4387 L55.0501,22.4465" style="stroke:rgb(0,0,0);stroke-width:0.25;fill:none" />
  <path d="M60.0579,17.4387 L60.0579,22.4465" style="stroke:rgb(0,0,0);stroke-width:0.25;fill:none" />
  <ellipse cx="50.0423" cy="112.01" rx="1.50235" ry="1.50235" style="stroke:rgb(0,0,0);stroke-width:0.25;fill:none;"/>
  <path d="M55.0501,109.506 L60.0579,109.506" style="stroke:rgb(0,0,0);stroke-width:0.25;fill:none" />
  <path d="M55.0501,114.514 L60.0579,114.514" style="stroke:rgb(0,0,0);stroke-width:0.25;fill:none" />
  <path d="M45.0344,109.506 L40.0266,109.506" style="stroke:rgb(0,0,0);stroke-width:0.25;fill:none" />
  <path d="M45.0344,114.514 L40.0266,114.514" style="stroke:rgb(0,0,0);stroke-width:0.25;fill:none" />
  <path d="M40.0266,109.506 L40.0266,114.514" style="stroke:rgb(0,0,0);stroke-width:0.25;fill:none" />
  <path d="M45.0344,109.506 L45.0344,114.514" style="stroke:rgb(0,0,0);stroke-width:0.25;fill:none" />
  <path d="M55.0501,109.506 L55.0501,114.514" style="stroke:rgb(0,0,0);stroke-width:0.25;fill:none" />
  <path d="M60.0579,109.506 L60.0579,114.514" style="stroke:rgb(0,0,0);stroke-width:0.25;fill:none" />
  <path d="M65.0657,119.522 L0.965571,119.522" style="stroke:rgb(0,0,0);stroke-width:0.1;fill:none" />
  <path d="M0.965571,1.91443 L65.0657,1.91443" style="stroke:rgb(0,0,0);stroke-width:0.1;fill:none" />
  <path d="M65.0657,1.91443 L65.0657,119.522" style="stroke:rgb(0,0,0);stroke-width:0.1;fill:none" />
  <path d="M0.965571,119.522 L0.965571,1.91443" style="stroke:rgb(0,0,0);stroke-width:0.1;fill:none" />
  <ellipse cx="17.9922" cy="5.92089" rx="1.56244" ry="1.56244" style="stroke:rgb(0,0,0);stroke-width:0.1;fill:none;"/>
  <ellipse cx="48.0391" cy="5.92089" rx="1.56244" ry="1.56244" style="stroke:rgb(0,0,0);stroke-width:0.1;fill:none;"/>
  <ellipse cx="77.1227" cy="19.9427" rx="1.50235" ry="1.50235" style="stroke:rgb(0,0,0);stroke-width:0.1;fill:none;"/>
  <path d="M82.1305,17.4388 L82.1305,22.4466" style="stroke:rgb(0,0,0);stroke-width:0.1;fill:none" />
  <ellipse cx="169.19" cy="19.9427" rx="1.50235" ry="1.50235" style="stroke:rgb(0,0,0);stroke-width:0.1;fill:none;"/>
  <path d="M164.182,17.4388 L164.182,22.4466" style="stroke:rgb(0,0,0);stroke-width:0.1;fill:none" />
  <ellipse cx="77.1227" cy="112.01" rx="1.50235" ry="1.50235" style="stroke:rgb(0,0,0);stroke-width:0.1;fill:none;"/>
  <ellipse cx="169.19" cy="112.01" rx="1.50235" ry="1.50235" style="stroke:rgb(0,0,0);stroke-width:0.1;fill:none;"/>
  <path d="M173.235,119.522 L73.0782,119.522" style="stroke:rgb(0,0,0);stroke-width:0.1;fill:none" />
  <path d="M102.162,17.4388 L82.1305,17.4388" style="stroke:rgb(0,0,0);stroke-width:0.1;fill:none" />
  <path d="M144.151,22.4466 L164.182,22.4466" style="stroke:rgb(0,0,0);stroke-width:0.1;fill:none" />
  <path d="M102.162,17.4388 L102.162,22.4466" style="stroke:rgb(0,0,0);stroke-width:0.1;fill:none" />
  <path d="M144.151,17.4388 L144.151,22.4466" style="stroke:rgb(0,0,0);stroke-width:0.1;fill:none" />
  <path d="M82.1305,22.4466 L102.162,22.4466" style="stroke:rgb(0,0,0);stroke-width:0.1;fill:none" />
  <path d="M164.182,17.4388 L144.151,17.4388" style="stroke:rgb(0,0,0);stroke-width:0.1;fill:none" />
  <path d="M144.151,109.506 L144.151,114.514" style="stroke:rgb(0,0,0);stroke-width:0.1;fill:none" />
  <path d="M164.182,109.506 L144.151,109.506" style="stroke:rgb(0,0,0);stroke-width:0.1;fill:none" />
  <path d="M164.182,109.506 L164.182,114.514" style="stroke:rgb(0,0,0);stroke-width:0.1;fill:none" />
  <path d="M144.151,114.514 L164.182,114.514" style="stroke:rgb(0,0,0);stroke-width:0.1;fill:none" />
  <path d="M82.1305,109.506 L82.1305,114.514" style="stroke:rgb(0,0,0);stroke-width:0.1;fill:none" />
  <path d="M102.162,109.506 L82.1305,109.506" style="stroke:rgb(0,0,0);stroke-width:0.1;fill:none" />
  <path d="M102.162,109.506 L102.162,114.514" style="stroke:rgb(0,0,0);stroke-width:0.1;fill:none" />
  <path d="M82.1305,114.514 L102.162,114.514" style="stroke:rgb(0,0,0);stroke-width:0.1;fill:none" />
  <path d="M73.0782,1.91453 L173.235,1.91453" style="stroke:rgb(0,0,0);stroke-width:0.1;fill:none" />
  <path d="M73.0782,119.522 L73.0782,1.91453" style="stroke:rgb(0,0,0);stroke-width:0.1;fill:none" />
  <path d="M173.235,1.91453 L173.235,119.522" style="stroke:rgb(0,0,0);stroke-width:0.1;fill:none" />
  <ellipse cx="108.133" cy="5.92079" rx="1.56244" ry="1.56244" style="stroke:rgb(0,0,0);stroke-width:0.1;fill:none;"/>
  <ellipse cx="138.18" cy="5.92079" rx="1.56244" ry="1.56244" style="stroke:rgb(0,0,0);stroke-width:0.1;fill:none;"/>
</svg>
