999
dxflib 2.2.0.0
  0
SECTION
  2
HEADER
  9
$ACADVER
  1
AC1015
  9
$HANDSEED
  5
FFFF
  9
$DIMASZ
 40
2.5
  9
$PLIMMIN
 10
0.0
 20
0.0
  9
$DIMEXE
 40
1.25
  9
$DIMGAP
 40
0.625
  9
$PLIMMAX
 10
210.0
 20
297.0
  9
$INSUNITS
 70
4
  9
$DIMSTYLE
  2
Standard
  9
$CLAYER
  8
Tube
  9
$DIMEXO
 40
0.625
  9
$DIMTXT
 40
2.5
  9
$CLAYER
  8
Arm
  0
ENDSEC
  0
SECTION
  2
TABLES
  0
TABLE
  2
VPORT
  5
8
100
AcDbSymbolTable
 70
1
  0
VPORT
  5
30
100
AcDbSymbolTableRecord
100
AcDbViewportTableRecord
  2
*Active
 70
0
 10
0.0
 20
0.0
 11
1.0
 21
1.0
 12
286.30555555555549
 22
148.5
 13
0.0
 23
0.0
 14
10.0
 24
10.0
 15
10.0
 25
10.0
 16
0.0
 26
0.0
 36
1.0
 17
0.0
 27
0.0
 37
0.0
 40
297.0
 41
1.92798353909465
 42
50.0
 43
0.0
 44
0.0
 50
0.0
 51
0.0
 71
0
 72
100
 73
1
 74
3
 75
1
 76
1
 77
0
 78
0
281
0
 65
1
110
0.0
120
0.0
130
0.0
111
1.0
121
0.0
131
0.0
112
0.0
122
1.0
132
0.0
 79
0
146
0.0
  0
ENDTAB
  0
TABLE
  2
LTYPE
  5
5
100
AcDbSymbolTable
 70
21
  0
LTYPE
  5
14
100
AcDbSymbolTableRecord
100
AcDbLinetypeTableRecord
  2
ByBlock
 70
0
  3

 72
65
 73
0
 40
0.0
  0
LTYPE
  5
15
100
AcDbSymbolTableRecord
100
AcDbLinetypeTableRecord
  2
ByLayer
 70
0
  3

 72
65
 73
0
 40
0.0
  0
LTYPE
  5
16
100
AcDbSymbolTableRecord
100
AcDbLinetypeTableRecord
  2
CONTINUOUS
 70
0
  3
Solid line
 72
65
 73
0
 40
0.0
  0
LTYPE
  5
31
100
AcDbSymbolTableRecord
100
AcDbLinetypeTableRecord
  2
DOT
 70
0
  3
Dot . . . . . . . . . . . . . . . . . . . . . .
 72
65
 73
2
 40
6.3499999999999996
 49
0.0
 74
0
 49
-6.3499999999999996
 74
0
  0
LTYPE
  5
32
100
AcDbSymbolTableRecord
100
AcDbLinetypeTableRecord
  2
DOT2
 70
0
  3
Dot (.5x) .....................................
 72
65
 73
2
 40
3.1749999999999998
 49
0.0
 74
0
 49
-3.1749999999999998
 74
0
  0
LTYPE
  5
33
100
AcDbSymbolTableRecord
100
AcDbLinetypeTableRecord
  2
DOTX2
 70
0
  3
Dot (2x) .  .  .  .  .  .  .  .  .  .  .  .  .
 72
65
 73
2
 40
12.699999999999999
 49
0.0
 74
0
 49
-12.699999999999999
 74
0
  0
LTYPE
  5
34
100
AcDbSymbolTableRecord
100
AcDbLinetypeTableRecord
  2
DASHED
 70
0
  3
Dashed __ __ __ __ __ __ __ __ __ __ __ __ __ _
 72
65
 73
2
 40
19.050000000000001
 49
12.699999999999999
 74
0
 49
-6.3499999999999996
 74
0
  0
LTYPE
  5
35
100
AcDbSymbolTableRecord
100
AcDbLinetypeTableRecord
  2
DASHED2
 70
0
  3
Dashed (.5x) _ _ _ _ _ _ _ _ _ _ _ _ _ _ _ _ _
 72
65
 73
2
 40
9.5250000000000004
 49
6.3499999999999996
 74
0
 49
-3.1749999999999998
 74
0
  0
LTYPE
  5
36
100
AcDbSymbolTableRecord
100
AcDbLinetypeTableRecord
  2
DASHEDX2
 70
0
  3
Dashed (2x) ____  ____  ____  ____  ____  ___
 72
65
 73
2
 40
38.100000000000001
 49
25.399999999999999
 74
0
 49
-12.699999999999999
 74
0
  0
LTYPE
  5
37
100
AcDbSymbolTableRecord
100
AcDbLinetypeTableRecord
  2
DASHDOT
 70
0
  3
Dash dot __ . __ . __ . __ . __ . __ . __ . __
 72
65
 73
4
 40
25.399999999999999
 49
12.699999999999999
 74
0
 49
-6.3499999999999996
 74
0
 49
0.0
 74
0
 49
-6.3499999999999996
 74
0
  0
LTYPE
  5
38
100
AcDbSymbolTableRecord
100
AcDbLinetypeTableRecord
  2
DASHDOT2
 70
0
  3
Dash dot (.5x) _._._._._._._._._._._._._._._.
 72
65
 73
4
 40
12.699999999999999
 49
6.3499999999999996
 74
0
 49
-3.1749999999999998
 74
0
 49
0.0
 74
0
 49
-3.1749999999999998
 74
0
  0
LTYPE
  5
39
100
AcDbSymbolTableRecord
100
AcDbLinetypeTableRecord
  2
DASHDOTX2
 70
0
  3
Dash dot (2x) ____  .  ____  .  ____  .  ___
 72
65
 73
4
 40
50.799999999999997
 49
25.399999999999999
 74
0
 49
-12.699999999999999
 74
0
 49
0.0
 74
0
 49
-12.699999999999999
 74
0
  0
LTYPE
  5
3A
100
AcDbSymbolTableRecord
100
AcDbLinetypeTableRecord
  2
DIVIDE
 70
0
  3
Divide ____ . . ____ . . ____ . . ____ . . ____
 72
65
 73
6
 40
31.75
 49
12.699999999999999
 74
0
 49
-6.3499999999999996
 74
0
 49
0.0
 74
0
 49
-6.3499999999999996
 74
0
 49
0.0
 74
0
 49
-6.3499999999999996
 74
0
  0
LTYPE
  5
3B
100
AcDbSymbolTableRecord
100
AcDbLinetypeTableRecord
  2
DIVIDE2
 70
0
  3
Divide (.5x) __..__..__..__..__..__..__..__.._
 72
65
 73
6
 40
15.875
 49
6.3499999999999996
 74
0
 49
-3.1749999999999998
 74
0
 49
0.0
 74
0
 49
-3.1749999999999998
 74
0
 49
0.0
 74
0
 49
-3.1749999999999998
 74
0
  0
LTYPE
  5
3C
100
AcDbSymbolTableRecord
100
AcDbLinetypeTableRecord
  2
DIVIDEX2
 70
0
  3
Divide (2x) ________  .  .  ________  .  .  _
 72
65
 73
6
 40
63.5
 49
25.399999999999999
 74
0
 49
-12.699999999999999
 74
0
 49
0.0
 74
0
 49
-12.699999999999999
 74
0
 49
0.0
 74
0
 49
-12.699999999999999
 74
0
  0
LTYPE
  5
3D
100
AcDbSymbolTableRecord
100
AcDbLinetypeTableRecord
  2
CENTER
 70
0
  3
Center ____ _ ____ _ ____ _ ____ _ ____ _ ____
 72
65
 73
4
 40
50.799999999999997
 49
31.75
 74
0
 49
-6.3499999999999996
 74
0
 49
6.3499999999999996
 74
0
 49
-6.3499999999999996
 74
0
  0
LTYPE
  5
3E
100
AcDbSymbolTableRecord
100
AcDbLinetypeTableRecord
  2
CENTER2
 70
0
  3
Center (.5x) ___ _ ___ _ ___ _ ___ _ ___ _ ___
 72
65
 73
4
 40
28.574999999999999
 49
19.050000000000001
 74
0
 49
-3.1749999999999998
 74
0
 49
3.1749999999999998
 74
0
 49
-3.1749999999999998
 74
0
  0
LTYPE
  5
3F
100
AcDbSymbolTableRecord
100
AcDbLinetypeTableRecord
  2
CENTERX2
 70
0
  3
Center (2x) ________  __  ________  __  _____
 72
65
 73
4
 40
101.59999999999999
 49
63.5
 74
0
 49
-12.699999999999999
 74
0
 49
12.699999999999999
 74
0
 49
-12.699999999999999
 74
0
  0
LTYPE
  5
40
100
AcDbSymbolTableRecord
100
AcDbLinetypeTableRecord
  2
BORDER
 70
0
  3
Border __ __ . __ __ . __ __ . __ __ . __ __ .
 72
65
 73
6
 40
44.450000000000003
 49
12.699999999999999
 74
0
 49
-6.3499999999999996
 74
0
 49
12.699999999999999
 74
0
 49
-6.3499999999999996
 74
0
 49
0.0
 74
0
 49
-6.3499999999999996
 74
0
  0
LTYPE
  5
41
100
AcDbSymbolTableRecord
100
AcDbLinetypeTableRecord
  2
BORDER2
 70
0
  3
Border (.5x) __.__.__.__.__.__.__.__.__.__.__.
 72
65
 73
6
 40
22.225000000000001
 49
6.3499999999999996
 74
0
 49
-3.1749999999999998
 74
0
 49
6.3499999999999996
 74
0
 49
-3.1749999999999998
 74
0
 49
0.0
 74
0
 49
-3.1749999999999998
 74
0
  0
LTYPE
  5
42
100
AcDbSymbolTableRecord
100
AcDbLinetypeTableRecord
  2
BORDERX2
 70
0
  3
Border (2x) ____  ____  .  ____  ____  .  ___
 72
65
 73
6
 40
88.900000000000006
 49
25.399999999999999
 74
0
 49
-12.699999999999999
 74
0
 49
25.399999999999999
 74
0
 49
-12.699999999999999
 74
0
 49
0.0
 74
0
 49
-12.699999999999999
 74
0
  0
ENDTAB
  0
TABLE
  2
LAYER
  5
2
100
AcDbSymbolTable
 70
6
  0
LAYER
  5
10
100
AcDbSymbolTableRecord
100
AcDbLayerTableRecord
  2
0
 70
0
 62
7
420
0
  6
CONTINUOUS
370
25
390
F
  0
LAYER
  5
43
100
AcDbSymbolTableRecord
100
AcDbLayerTableRecord
  2
Drawing
 70
0
 62
5
420
255
  6
CONTINUOUS
370
0
390
F
  0
LAYER
  5
44
100
AcDbSymbolTableRecord
100
AcDbLayerTableRecord
  2
Retainer
 70
0
 62
7
420
0
  6
CONTINUOUS
370
0
390
F
  0
LAYER
  5
45
100
AcDbSymbolTableRecord
100
AcDbLayerTableRecord
  2
Tube
 70
0
 62
1
420
16711680
  6
CONTINUOUS
370
0
390
F
  0
LAYER
  5
46
100
AcDbSymbolTableRecord
100
AcDbLayerTableRecord
  2
Tube Cap
 70
0
 62
7
420
0
  6
CONTINUOUS
370
0
390
F
  0
LAYER
  5
47
100
AcDbSymbolTableRecord
100
AcDbLayerTableRecord
  2
Arm
 70
0
 62
7
420
0
  6
CONTINUOUS
370
0
390
F
  0
ENDTAB
  0
TABLE
  2
STYLE
  5
3
100
AcDbSymbolTable
 70
1
  0
STYLE
  5
11
100
AcDbSymbolTableRecord
100
AcDbTextStyleTableRecord
  2
Standard
 70
0
 40
0.0
 41
0.75
 50
0.0
 71
0
 42
2.5
  3
txt
  4

  0
ENDTAB
  0
TABLE
  2
VIEW
  5
6
100
AcDbSymbolTable
 70
0
  0
ENDTAB
  0
TABLE
  2
UCS
  5
7
100
AcDbSymbolTable
 70
0
  0
ENDTAB
  0
TABLE
  2
APPID
  5
9
100
AcDbSymbolTable
 70
1
  0
APPID
  5
12
100
AcDbSymbolTableRecord
100
AcDbRegAppTableRecord
  2
ACAD
 70
0
  0
ENDTAB
  0
TABLE
  2
DIMSTYLE
  5
A
100
AcDbSymbolTable
 70
1
100
AcDbDimStyleTable
 71
0
  0
DIMSTYLE
105
27
100
AcDbSymbolTableRecord
100
AcDbDimStyleTableRecord
  2
Standard
 41
2.5
 42
0.625
 43
3.75
 44
1.25
 70
0
 73
0
 74
0
 77
1
 78
8
140
2.5
141
2.5
143
0.03937007874016
147
0.625
171
3
172
1
271
2
272
2
274
3
278
44
283
0
284
8
340
11
  0
ENDTAB
  0
TABLE
  2
BLOCK_RECORD
  5
1
100
AcDbSymbolTable
 70
1
  0
BLOCK_RECORD
  5
1F
100
AcDbSymbolTableRecord
100
AcDbBlockTableRecord
  2
*Model_Space
340
22
  0
BLOCK_RECORD
  5
1B
100
AcDbSymbolTableRecord
100
AcDbBlockTableRecord
  2
*Paper_Space
340
1E
  0
BLOCK_RECORD
  5
23
100
AcDbSymbolTableRecord
100
AcDbBlockTableRecord
  2
*Paper_Space0
340
26
  0
ENDTAB
  0
ENDSEC
  0
SECTION
  2
BLOCKS
  0
BLOCK
  5
20
100
AcDbEntity
  8
0
100
AcDbBlockBegin
  2
*Model_Space
 70
0
 10
0.0
 20
0.0
 30
0.0
  3
*Model_Space
  1

  0
ENDBLK
  5
21
100
AcDbEntity
  8
0
100
AcDbBlockEnd
  0
BLOCK
  5
1C
100
AcDbEntity
 67
1
  8
0
100
AcDbBlockBegin
  2
*Paper_Space
 70
0
 10
0.0
 20
0.0
 30
0.0
  3
*Paper_Space
  1

  0
ENDBLK
  5
1D
100
AcDbEntity
 67
1
  8
0
100
AcDbBlockEnd
  0
BLOCK
  5
24
100
AcDbEntity
  8
0
100
AcDbBlockBegin
  2
*Paper_Space0
 70
0
 10
0.0
 20
0.0
 30
0.0
  3
*Paper_Space0
  1

  0
ENDBLK
  5
25
100
AcDbEntity
  8
0
100
AcDbBlockEnd
  0
ENDSEC
  0
SECTION
  2
ENTITIES
  0
CIRCLE
  5
48
100
AcDbEntity
100
AcDbCircle
  8
Drawing
 62
256
370
-1
  6
ByLayer
 10
0.0
 20
0.0
 30
0.0
 40
4.0
  0
CIRCLE
  5
49
100
AcDbEntity
100
AcDbCircle
  8
Drawing
 62
256
370
-1
  6
ByLayer
 10
0.0
 20
0.0
 30
0.0
 40
9.0
  0
CIRCLE
  5
4A
100
AcDbEntity
100
AcDbCircle
  8
Retainer
 62
256
370
-1
  6
ByLayer
 10
0.0
 20
0.0
 30
0.0
 40
8.0
  0
CIRCLE
  5
4B
100
AcDbEntity
100
AcDbCircle
  8
Retainer
 62
256
370
-1
  6
ByLayer
 10
9.89949493661166
 20
9.89949493661166
 30
0.0
 40
1.5
  0
CIRCLE
  5
4C
100
AcDbEntity
100
AcDbCircle
  8
Retainer
 62
256
370
-1
  6
ByLayer
 10
-9.8994949366116582
 20
9.8994949366116742
 30
0.0
 40
1.5
  0
CIRCLE
  5
4D
100
AcDbEntity
100
AcDbCircle
  8
Retainer
 62
256
370
-1
  6
ByLayer
 10
-9.8994949366116618
 20
-9.89949493661166
 30
0.0
 40
1.5
  0
CIRCLE
  5
4E
100
AcDbEntity
100
AcDbCircle
  8
Retainer
 62
256
370
-1
  6
ByLayer
 10
9.8994949366116529
 20
-9.8994949366116742
 30
0.0
 40
1.5
  0
LINE
  5
4F
100
AcDbEntity
100
AcDbLine
  8
Retainer
 62
256
370
-1
  6
ByLayer
 10
-9.8994949366116618
 20
18.89949493661166
 30
0.0
 11
9.89949493661166
 21
18.899494936611674
 31
0.0
  0
LINE
  5
50
100
AcDbEntity
100
AcDbLine
  8
Retainer
 62
256
370
-1
  6
ByLayer
 10
18.899494936611688
 20
9.89949493661166
 30
0.0
 11
18.89949493661166
 21
-9.8994949366116884
 31
0.0
  0
LINE
  5
51
100
AcDbEntity
100
AcDbLine
  8
Retainer
 62
256
370
-1
  6
ByLayer
 10
9.89949493661166
 20
-18.899494936611688
 30
0.0
 11
-9.8994949366116618
 21
-18.89949493661166
 31
0.0
  0
LINE
  5
52
100
AcDbEntity
100
AcDbLine
  8
Retainer
 62
256
370
-1
  6
ByLayer
 10
-18.899494936611692
 20
-9.8994949366116316
 30
0.0
 11
-18.899494936611664
 21
9.8994949366116742
 31
0.0
  0
ARC
  5
53
100
AcDbEntity
  8
Retainer
 62
256
370
-1
  6
ByLayer
100
AcDbCircle
 10
9.89949493661166
 20
9.89949493661166
 30
0.0
 40
9.0
100
AcDbArc
 50
360.0
 51
90.000000000000014
  0
ARC
  5
54
100
AcDbEntity
  8
Retainer
 62
256
370
-1
  6
ByLayer
100
AcDbCircle
 10
9.8994949366116529
 20
-9.8994949366116742
 30
0.0
 40
9.0
100
AcDbArc
 50
270.0
 51
360.0
  0
ARC
  5
55
100
AcDbEntity
  8
Retainer
 62
256
370
-1
  6
ByLayer
100
AcDbCircle
 10
-9.8994949366116618
 20
-9.89949493661166
 30
0.0
 40
9.0
100
AcDbArc
 50
180.0
 51
270.0
  0
ARC
  5
56
100
AcDbEntity
  8
Retainer
 62
256
370
-1
  6
ByLayer
100
AcDbCircle
 10
-9.8994949366116582
 20
9.8994949366116742
 30
0.0
 40
9.0
100
AcDbArc
 50
90.000000000000014
 51
180.0
  0
CIRCLE
  5
57
100
AcDbEntity
100
AcDbCircle
  8
Tube
 62
256
370
-1
  6
ByLayer
 10
0.0
 20
0.0
 30
0.0
 40
42.5
  0
CIRCLE
  5
58
100
AcDbEntity
100
AcDbCircle
  8
Tube
 62
256
370
-1
  6
ByLayer
 10
0.0
 20
0.0
 30
0.0
 40
38.0
  0
CIRCLE
  5
59
100
AcDbEntity
100
AcDbCircle
  8
Tube
 62
256
370
-1
  6
ByLayer
 10
0.0
 20
0.0
 30
0.0
 40
38.0
  0
LINE
  5
5A
100
AcDbEntity
100
AcDbLine
  8
Tube Cap
 62
256
370
-1
  6
ByLayer
 10
-3.3119182244110084
 20
37.855398527486379
 30
0.0
 11
-3.7476969381492937
 21
42.836372017945052
 31
0.0
  0
LINE
  5
5B
100
AcDbEntity
100
AcDbLine
  8
Tube Cap
 62
256
370
-1
  6
ByLayer
 10
3.3119182244110119
 20
37.855398527486336
 30
0.0
 11
3.7476969381493026
 21
42.83637201794506
 31
0.0
  0
ARC
  5
5C
100
AcDbEntity
  8
Tube Cap
 62
256
370
-1
  6
ByLayer
100
AcDbCircle
 10
0.0
 20
0.0
 30
0.0
 40
43.0
100
AcDbArc
 50
85.0
 51
95.0
  0
LINE
  5
5D
100
AcDbEntity
100
AcDbLine
  8
Tube Cap
 62
256
370
-1
  6
ByLayer
 10
-31.127777682981737
 20
-21.795904581339769
 30
0.0
 11
-35.223537904426649
 21
-24.663786763094965
 31
0.0
  0
LINE
  5
5E
100
AcDbEntity
100
AcDbLine
  8
Tube Cap
 62
256
370
-1
  6
ByLayer
 10
-34.439695907392711
 20
-16.059493946146574
 30
0.0
 11
-38.971234842575953
 21
-18.17258525485007
 31
0.0
  0
ARC
  5
5F
100
AcDbEntity
  8
Tube Cap
 62
256
370
-1
  6
ByLayer
100
AcDbCircle
 10
0.0
 20
0.0
 30
0.0
 40
43.0
100
AcDbArc
 50
205.0
 51
214.99999999999997
  0
LINE
  5
60
100
AcDbEntity
100
AcDbLine
  8
Tube Cap
 62
256
370
-1
  6
ByLayer
 10
34.439695907392732
 20
-16.05949394614662
 30
0.0
 11
38.971234842575932
 21
-18.172585254850098
 31
0.0
  0
LINE
  5
61
100
AcDbEntity
100
AcDbLine
  8
Tube Cap
 62
256
370
-1
  6
ByLayer
 10
31.127777682981687
 20
-21.795904581339769
 30
0.0
 11
35.223537904426635
 21
-24.663786763095001
 31
0.0
  0
ARC
  5
62
100
AcDbEntity
  8
Tube Cap
 62
256
370
-1
  6
ByLayer
100
AcDbCircle
 10
0.0
 20
0.0
 30
0.0
 40
43.0
100
AcDbArc
 50
325.0
 51
335.0
  0
ARC
  5
63
100
AcDbEntity
  8
Tube Cap
 62
256
370
-1
  6
ByLayer
100
AcDbCircle
 10
0.0
 20
0.0
 30
0.0
 40
38.0
100
AcDbArc
 50
95.0
 51
204.99999999999997
  0
ARC
  5
64
100
AcDbEntity
  8
Tube Cap
 62
256
370
-1
  6
ByLayer
100
AcDbCircle
 10
0.0
 20
0.0
 30
0.0
 40
38.0
100
AcDbArc
 50
214.99999999999997
 51
325.0
  0
ARC
  5
65
100
AcDbEntity
  8
Tube Cap
 62
256
370
-1
  6
ByLayer
100
AcDbCircle
 10
0.0
 20
0.0
 30
0.0
 40
38.0
100
AcDbArc
 50
335.0
 51
85.0
  0
CIRCLE
  5
66
100
AcDbEntity
100
AcDbCircle
  8
Tube Cap
 62
256
370
-1
  6
ByLayer
 10
0.0
 20
0.0
 30
0.0
 40
4.0
  0
CIRCLE
  5
67
100
AcDbEntity
100
AcDbCircle
  8
Arm
 62
256
370
-1
  6
ByLayer
 10
0.0
 20
0.0
 30
0.0
 40
11.0
  0
CIRCLE
  5
68
100
AcDbEntity
100
AcDbCircle
  8
Arm
 62
256
370
-1
  6
ByLayer
 10
9.89949493661166
 20
9.8994949366116956
 30
0.0
 40
1.5
  0
CIRCLE
  5
69
100
AcDbEntity
100
AcDbCircle
  8
Arm
 62
256
370
-1
  6
ByLayer
 10
-9.89949493661166
 20
9.8994949366116725
 30
0.0
 40
1.5
  0
CIRCLE
  5
6A
100
AcDbEntity
100
AcDbCircle
  8
Arm
 62
256
370
-1
  6
ByLayer
 10
-9.8994949366116884
 20
-9.8994949366115979
 30
0.0
 40
1.5
  0
CIRCLE
  5
6B
100
AcDbEntity
100
AcDbCircle
  8
Arm
 62
256
370
-1
  6
ByLayer
 10
9.89949493661166
 20
-9.8994949366116245
 30
0.0
 40
1.5
  0
ARC
  5
6C
100
AcDbEntity
  8
Arm
 62
256
370
-1
  6
ByLayer
100
AcDbCircle
 10
0.0
 20
0.0
 30
0.0
 40
45.5
100
AcDbArc
 50
94.384995592768945
 51
265.61500440723051
  0
CIRCLE
  5
6D
100
AcDbEntity
100
AcDbCircle
  8
Arm
 62
256
370
-1
  6
ByLayer
 10
33.25
 20
34.207203667951326
 30
0.0
 40
1.5
  0
CIRCLE
  5
6E
100
AcDbEntity
100
AcDbCircle
  8
Arm
 62
256
370
-1
  6
ByLayer
 10
33.25
 20
-34.207203667951283
 30
0.0
 40
1.5
  0
CIRCLE
  5
6F
100
AcDbEntity
100
AcDbCircle
  8
Arm
 62
256
370
-1
  6
ByLayer
 10
86.750000000000028
 20
40.418569024909523
 30
0.0
 40
1.5
  0
CIRCLE
  5
70
100
AcDbEntity
100
AcDbCircle
  8
Arm
 62
256
370
-1
  6
ByLayer
 10
86.749999999999972
 20
-40.418569024909559
 30
0.0
 40
1.5
  0
LINE
  5
71
100
AcDbEntity
100
AcDbLine
  8
Arm
 62
256
370
-1
  6
ByLayer
 10
-4.4696414720768871
 20
45.279932697731496
 30
0.0
 11
97.017661214928125
 21
53.915918951959583
 31
0.0
  0
ARC
  5
72
100
AcDbEntity
  8
Arm
 62
256
370
-1
  6
ByLayer
100
AcDbCircle
 10
98.0
 20
43.964285392018631
 30
0.0
 40
10.0
100
AcDbArc
 50
360.0
 51
95.637478403045449
  0
LINE
  5
73
100
AcDbEntity
100
AcDbLine
  8
Arm
 62
256
370
-1
  6
ByLayer
 10
-4.4696414720769724
 20
-45.27993269773139
 30
0.0
 11
97.017661214928125
 21
-53.915918951959611
 31
0.0
  0
LINE
  5
74
100
AcDbEntity
100
AcDbLine
  8
Arm
 62
256
370
-1
  6
ByLayer
 10
108.0
 20
-43.964285392018624
 30
0.0
 11
108.0
 21
43.964285392018589
 31
0.0
  0
ARC
  5
75
100
AcDbEntity
  8
Arm
 62
256
370
-1
  6
ByLayer
100
AcDbCircle
 10
97.999999999999943
 20
-43.96428539201866
 30
0.0
 40
10.0
100
AcDbArc
 50
264.36252159695448
 51
0.0
  0
ENDSEC
  0
SECTION
  2
OBJECTS
  0
DICTIONARY
  5
C
100
AcDbDictionary
280
0
281
1
  3
ACAD_GROUP
350
D
  3
ACAD_LAYOUT
350
1A
  3
ACAD_MLINESTYLE
350
17
  3
ACAD_PLOTSETTINGS
350
19
  3
ACAD_PLOTSTYLENAME
350
E
  3
AcDbVariableDictionary
350
76
  0
DICTIONARY
  5
D
100
AcDbDictionary
280
0
281
1
  0
ACDBDICTIONARYWDFLT
  5
E
100
AcDbDictionary
281
1
  3
Normal
350
F
100
AcDbDictionaryWithDefault
340
F
  0
ACDBPLACEHOLDER
  5
F
  0
DICTIONARY
  5
17
100
AcDbDictionary
280
0
281
1
  3
Standard
350
18
  0
MLINESTYLE
  5
18
100
AcDbMlineStyle
  2
STANDARD
 70
0
  3

 62
256
 51
90.0
 52
90.0
 71
2
 49
0.5
 62
256
  6
BYLAYER
 49
-0.5
 62
256
  6
BYLAYER
  0
DICTIONARY
  5
19
100
AcDbDictionary
280
0
281
1
  0
DICTIONARY
  5
1A
100
AcDbDictionary
281
1
  3
Layout1
350
1E
  3
Layout2
350
26
  3
Model
350
22
  0
LAYOUT
  5
1E
100
AcDbPlotSettings
  1

  2
C:\Program Files\AutoCAD 2002\plotters\DWF ePlot (optimized for plotting).pc3
  4

  6

 40
0.0
 41
0.0
 42
0.0
 43
0.0
 44
0.0
 45
0.0
 46
0.0
 47
0.0
 48
0.0
 49
0.0
140
0.0
141
0.0
142
1.0
143
1.0
 70
688
 72
0
 73
0
 74
5
  7

 75
16
147
1.0
148
0.0
149
0.0
100
AcDbLayout
  1
Layout1
 70
1
 71
1
 10
0.0
 20
0.0
 11
420.0
 21
297.0
 12
0.0
 22
0.0
 32
0.0
 14
100000000000000000000.0
 24
100000000000000000000.0
 34
100000000000000000000.0
 15
-100000000000000000000.0
 25
-100000000000000000000.0
 35
-100000000000000000000.0
146
0.0
 13
0.0
 23
0.0
 33
0.0
 16
1.0
 26
0.0
 36
0.0
 17
0.0
 27
1.0
 37
0.0
 76
0
330
1B
  0
LAYOUT
  5
22
100
AcDbPlotSettings
  1

  2
C:\Program Files\AutoCAD 2002\plotters\DWF ePlot (optimized for plotting).pc3
  4

  6

 40
0.0
 41
0.0
 42
0.0
 43
0.0
 44
0.0
 45
0.0
 46
0.0
 47
0.0
 48
0.0
 49
0.0
140
0.0
141
0.0
142
1.0
143
1.0
 70
1712
 72
0
 73
0
 74
0
  7

 75
0
147
1.0
148
0.0
149
0.0
100
AcDbLayout
  1
Model
 70
1
 71
0
 10
0.0
 20
0.0
 11
12.0
 21
9.0
 12
0.0
 22
0.0
 32
0.0
 14
0.0
 24
0.0
 34
0.0
 15
0.0
 25
0.0
 35
0.0
146
0.0
 13
0.0
 23
0.0
 33
0.0
 16
1.0
 26
0.0
 36
0.0
 17
0.0
 27
1.0
 37
0.0
 76
0
330
1F
  0
LAYOUT
  5
26
100
AcDbPlotSettings
  1

  2
C:\Program Files\AutoCAD 2002\plotters\DWF ePlot (optimized for plotting).pc3
  4

  6

 40
0.0
 41
0.0
 42
0.0
 43
0.0
 44
0.0
 45
0.0
 46
0.0
 47
0.0
 48
0.0
 49
0.0
140
0.0
141
0.0
142
1.0
143
1.0
 70
688
 72
0
 73
0
 74
5
  7

 75
16
147
1.0
148
0.0
149
0.0
100
AcDbLayout
  1
Layout2
 70
1
 71
2
 10
0.0
 20
0.0
 11
12.0
 21
9.0
 12
0.0
 22
0.0
 32
0.0
 14
0.0
 24
0.0
 34
0.0
 15
0.0
 25
0.0
 35
0.0
146
0.0
 13
0.0
 23
0.0
 33
0.0
 16
1.0
 26
0.0
 36
0.0
 17
0.0
 27
1.0
 37
0.0
 76
0
330
23
  0
DICTIONARY
  5
76
100
AcDbDictionary
281
1
  3
DIMASSOC
350
78
  3
HIDETEXT
350
77
  0
DICTIONARYVAR
  5
77
100
DictionaryVariables
280
0
  1
2
  0
DICTIONARYVAR
  5
78
100
DictionaryVariables
280
0
  1
1
  0
ENDSEC
  0
EOF
