999
dxflib 2.2.0.0
  0
SECTION
  2
HEADER
  9
$ACADVER
  1
AC1015
  9
$HANDSEED
  5
FFFF
  9
$DIMASZ
 40
2.5
  9
$PLIMMIN
 10
0.0
 20
0.0
  9
$DIMEXE
 40
1.25
  9
$DIMGAP
 40
0.625
  9
$PLIMMAX
 10
210.0
 20
297.0
  9
$INSUNITS
 70
4
  9
$DIMEXO
 40
0.625
  9
$DIMTXT
 40
2.5
  9
$CLAYER
  8
0
  0
ENDSEC
  0
SECTION
  2
TABLES
  0
TABLE
  2
VPORT
  5
8
100
AcDbSymbolTable
 70
1
  0
VPORT
  5
30
100
AcDbSymbolTableRecord
100
AcDbViewportTableRecord
  2
*Active
 70
0
 10
0.0
 20
0.0
 11
1.0
 21
1.0
 12
286.3055555555554861
 22
148.5
 13
0.0
 23
0.0
 14
10.0
 24
10.0
 15
10.0
 25
10.0
 16
0.0
 26
0.0
 36
1.0
 17
0.0
 27
0.0
 37
0.0
 40
297.0
 41
1.92798353909465
 42
50.0
 43
0.0
 44
0.0
 50
0.0
 51
0.0
 71
0
 72
100
 73
1
 74
3
 75
1
 76
1
 77
0
 78
0
281
0
 65
1
110
0.0
120
0.0
130
0.0
111
1.0
121
0.0
131
0.0
112
0.0
122
1.0
132
0.0
 79
0
146
0.0
  0
ENDTAB
  0
TABLE
  2
LTYPE
  5
5
100
AcDbSymbolTable
 70
21
  0
LTYPE
  5
14
100
AcDbSymbolTableRecord
100
AcDbLinetypeTableRecord
  2
ByBlock
 70
0
  3

 72
65
 73
0
 40
0.0
  0
LTYPE
  5
15
100
AcDbSymbolTableRecord
100
AcDbLinetypeTableRecord
  2
ByLayer
 70
0
  3

 72
65
 73
0
 40
0.0
  0
LTYPE
  5
16
100
AcDbSymbolTableRecord
100
AcDbLinetypeTableRecord
  2
CONTINUOUS
 70
0
  3
Solid line
 72
65
 73
0
 40
0.0
  0
LTYPE
  5
31
100
AcDbSymbolTableRecord
100
AcDbLinetypeTableRecord
  2
DOT
 70
0
  3
Dot . . . . . . . . . . . . . . . . . . . . . .
 72
65
 73
2
 40
6.3499999999999996
 49
0.0
 74
0
 49
-6.3499999999999996
 74
0
  0
LTYPE
  5
32
100
AcDbSymbolTableRecord
100
AcDbLinetypeTableRecord
  2
DOT2
 70
0
  3
Dot (.5x) .....................................
 72
65
 73
2
 40
3.1749999999999998
 49
0.0
 74
0
 49
-3.1749999999999998
 74
0
  0
LTYPE
  5
33
100
AcDbSymbolTableRecord
100
AcDbLinetypeTableRecord
  2
DOTX2
 70
0
  3
Dot (2x) .  .  .  .  .  .  .  .  .  .  .  .  .
 72
65
 73
2
 40
12.6999999999999993
 49
0.0
 74
0
 49
-12.6999999999999993
 74
0
  0
LTYPE
  5
34
100
AcDbSymbolTableRecord
100
AcDbLinetypeTableRecord
  2
DASHED
 70
0
  3
Dashed __ __ __ __ __ __ __ __ __ __ __ __ __ _
 72
65
 73
2
 40
19.0500000000000007
 49
12.6999999999999993
 74
0
 49
-6.3499999999999996
 74
0
  0
LTYPE
  5
35
100
AcDbSymbolTableRecord
100
AcDbLinetypeTableRecord
  2
DASHED2
 70
0
  3
Dashed (.5x) _ _ _ _ _ _ _ _ _ _ _ _ _ _ _ _ _
 72
65
 73
2
 40
9.5250000000000004
 49
6.3499999999999996
 74
0
 49
-3.1749999999999998
 74
0
  0
LTYPE
  5
36
100
AcDbSymbolTableRecord
100
AcDbLinetypeTableRecord
  2
DASHEDX2
 70
0
  3
Dashed (2x) ____  ____  ____  ____  ____  ___
 72
65
 73
2
 40
38.1000000000000014
 49
25.3999999999999986
 74
0
 49
-12.6999999999999993
 74
0
  0
LTYPE
  5
37
100
AcDbSymbolTableRecord
100
AcDbLinetypeTableRecord
  2
DASHDOT
 70
0
  3
Dash dot __ . __ . __ . __ . __ . __ . __ . __
 72
65
 73
4
 40
25.3999999999999986
 49
12.6999999999999993
 74
0
 49
-6.3499999999999996
 74
0
 49
0.0
 74
0
 49
-6.3499999999999996
 74
0
  0
LTYPE
  5
38
100
AcDbSymbolTableRecord
100
AcDbLinetypeTableRecord
  2
DASHDOT2
 70
0
  3
Dash dot (.5x) _._._._._._._._._._._._._._._.
 72
65
 73
4
 40
12.6999999999999993
 49
6.3499999999999996
 74
0
 49
-3.1749999999999998
 74
0
 49
0.0
 74
0
 49
-3.1749999999999998
 74
0
  0
LTYPE
  5
39
100
AcDbSymbolTableRecord
100
AcDbLinetypeTableRecord
  2
DASHDOTX2
 70
0
  3
Dash dot (2x) ____  .  ____  .  ____  .  ___
 72
65
 73
4
 40
50.7999999999999972
 49
25.3999999999999986
 74
0
 49
-12.6999999999999993
 74
0
 49
0.0
 74
0
 49
-12.6999999999999993
 74
0
  0
LTYPE
  5
3A
100
AcDbSymbolTableRecord
100
AcDbLinetypeTableRecord
  2
DIVIDE
 70
0
  3
Divide ____ . . ____ . . ____ . . ____ . . ____
 72
65
 73
6
 40
31.75
 49
12.6999999999999993
 74
0
 49
-6.3499999999999996
 74
0
 49
0.0
 74
0
 49
-6.3499999999999996
 74
0
 49
0.0
 74
0
 49
-6.3499999999999996
 74
0
  0
LTYPE
  5
3B
100
AcDbSymbolTableRecord
100
AcDbLinetypeTableRecord
  2
DIVIDE2
 70
0
  3
Divide (.5x) __..__..__..__..__..__..__..__.._
 72
65
 73
6
 40
15.875
 49
6.3499999999999996
 74
0
 49
-3.1749999999999998
 74
0
 49
0.0
 74
0
 49
-3.1749999999999998
 74
0
 49
0.0
 74
0
 49
-3.1749999999999998
 74
0
  0
LTYPE
  5
3C
100
AcDbSymbolTableRecord
100
AcDbLinetypeTableRecord
  2
DIVIDEX2
 70
0
  3
Divide (2x) ________  .  .  ________  .  .  _
 72
65
 73
6
 40
63.5
 49
25.3999999999999986
 74
0
 49
-12.6999999999999993
 74
0
 49
0.0
 74
0
 49
-12.6999999999999993
 74
0
 49
0.0
 74
0
 49
-12.6999999999999993
 74
0
  0
LTYPE
  5
3D
100
AcDbSymbolTableRecord
100
AcDbLinetypeTableRecord
  2
CENTER
 70
0
  3
Center ____ _ ____ _ ____ _ ____ _ ____ _ ____
 72
65
 73
4
 40
50.7999999999999972
 49
31.75
 74
0
 49
-6.3499999999999996
 74
0
 49
6.3499999999999996
 74
0
 49
-6.3499999999999996
 74
0
  0
LTYPE
  5
3E
100
AcDbSymbolTableRecord
100
AcDbLinetypeTableRecord
  2
CENTER2
 70
0
  3
Center (.5x) ___ _ ___ _ ___ _ ___ _ ___ _ ___
 72
65
 73
4
 40
28.5749999999999993
 49
19.0500000000000007
 74
0
 49
-3.1749999999999998
 74
0
 49
3.1749999999999998
 74
0
 49
-3.1749999999999998
 74
0
  0
LTYPE
  5
3F
100
AcDbSymbolTableRecord
100
AcDbLinetypeTableRecord
  2
CENTERX2
 70
0
  3
Center (2x) ________  __  ________  __  _____
 72
65
 73
4
 40
101.5999999999999943
 49
63.5
 74
0
 49
-12.6999999999999993
 74
0
 49
12.6999999999999993
 74
0
 49
-12.6999999999999993
 74
0
  0
LTYPE
  5
40
100
AcDbSymbolTableRecord
100
AcDbLinetypeTableRecord
  2
BORDER
 70
0
  3
Border __ __ . __ __ . __ __ . __ __ . __ __ .
 72
65
 73
6
 40
44.4500000000000028
 49
12.6999999999999993
 74
0
 49
-6.3499999999999996
 74
0
 49
12.6999999999999993
 74
0
 49
-6.3499999999999996
 74
0
 49
0.0
 74
0
 49
-6.3499999999999996
 74
0
  0
LTYPE
  5
41
100
AcDbSymbolTableRecord
100
AcDbLinetypeTableRecord
  2
BORDER2
 70
0
  3
Border (.5x) __.__.__.__.__.__.__.__.__.__.__.
 72
65
 73
6
 40
22.2250000000000014
 49
6.3499999999999996
 74
0
 49
-3.1749999999999998
 74
0
 49
6.3499999999999996
 74
0
 49
-3.1749999999999998
 74
0
 49
0.0
 74
0
 49
-3.1749999999999998
 74
0
  0
LTYPE
  5
42
100
AcDbSymbolTableRecord
100
AcDbLinetypeTableRecord
  2
BORDERX2
 70
0
  3
Border (2x) ____  ____  .  ____  ____  .  ___
 72
65
 73
6
 40
88.9000000000000057
 49
25.3999999999999986
 74
0
 49
-12.6999999999999993
 74
0
 49
25.3999999999999986
 74
0
 49
-12.6999999999999993
 74
0
 49
0.0
 74
0
 49
-12.6999999999999993
 74
0
  0
ENDTAB
  0
TABLE
  2
LAYER
  5
2
100
AcDbSymbolTable
 70
3
  0
LAYER
  5
10
100
AcDbSymbolTableRecord
100
AcDbLayerTableRecord
  2
0
 70
0
 62
7
420
0
  6
CONTINUOUS
370
25
390
F
  0
LAYER
  5
43
100
AcDbSymbolTableRecord
100
AcDbLayerTableRecord
  2
cuts
 70
0
 62
7
420
0
  6
CONTINUOUS
370
0
390
F
  0
LAYER
  5
44
100
AcDbSymbolTableRecord
100
AcDbLayerTableRecord
  2
text
 70
0
 62
4
420
65535
  6
CONTINUOUS
370
0
390
F
  0
ENDTAB
  0
TABLE
  2
STYLE
  5
3
100
AcDbSymbolTable
 70
1
  0
STYLE
  5
11
100
AcDbSymbolTableRecord
100
AcDbTextStyleTableRecord
  2
Standard
 70
0
 40
0.0
 41
0.75
 50
0.0
 71
0
 42
2.5
  3
txt
  4

  0
ENDTAB
  0
TABLE
  2
VIEW
  5
6
100
AcDbSymbolTable
 70
0
  0
ENDTAB
  0
TABLE
  2
UCS
  5
7
100
AcDbSymbolTable
 70
0
  0
ENDTAB
  0
TABLE
  2
APPID
  5
9
100
AcDbSymbolTable
 70
1
  0
APPID
  5
12
100
AcDbSymbolTableRecord
100
AcDbRegAppTableRecord
  2
ACAD
 70
0
  0
ENDTAB
  0
TABLE
  2
DIMSTYLE
  5
A
100
AcDbSymbolTable
 70
1
100
AcDbDimStyleTable
 71
0
  0
DIMSTYLE
105
27
100
AcDbSymbolTableRecord
100
AcDbDimStyleTableRecord
  2
Standard
 41
2.5
 42
0.625
 43
3.75
 44
1.25
 70
0
 73
0
 74
0
 77
1
 78
8
140
2.5
141
2.5
143
0.03937007874016
147
0.625
171
3
172
1
271
2
272
2
274
3
278
44
283
0
284
8
340
11
  0
ENDTAB
  0
TABLE
  2
BLOCK_RECORD
  5
1
100
AcDbSymbolTable
 70
1
  0
BLOCK_RECORD
  5
1F
100
AcDbSymbolTableRecord
100
AcDbBlockTableRecord
  2
*Model_Space
340
22
  0
BLOCK_RECORD
  5
1B
100
AcDbSymbolTableRecord
100
AcDbBlockTableRecord
  2
*Paper_Space
340
1E
  0
BLOCK_RECORD
  5
23
100
AcDbSymbolTableRecord
100
AcDbBlockTableRecord
  2
*Paper_Space0
340
26
  0
BLOCK_RECORD
  5
45
100
AcDbSymbolTableRecord
100
AcDbBlockTableRecord
  2
m3-t-slot
340
0
  0
ENDTAB
  0
ENDSEC
  0
SECTION
  2
BLOCKS
  0
BLOCK
  5
20
100
AcDbEntity
  8
0
100
AcDbBlockBegin
  2
*Model_Space
 70
0
 10
0.0
 20
0.0
 30
0.0
  3
*Model_Space
  1

  0
ENDBLK
  5
21
100
AcDbEntity
  8
0
100
AcDbBlockEnd
  0
BLOCK
  5
1C
100
AcDbEntity
 67
1
  8
0
100
AcDbBlockBegin
  2
*Paper_Space
 70
0
 10
0.0
 20
0.0
 30
0.0
  3
*Paper_Space
  1

  0
ENDBLK
  5
1D
100
AcDbEntity
 67
1
  8
0
100
AcDbBlockEnd
  0
BLOCK
  5
24
100
AcDbEntity
  8
0
100
AcDbBlockBegin
  2
*Paper_Space0
 70
0
 10
0.0
 20
0.0
 30
0.0
  3
*Paper_Space0
  1

  0
ENDBLK
  5
25
100
AcDbEntity
  8
0
100
AcDbBlockEnd
  0
BLOCK
  5
46
100
AcDbEntity
  8
0
100
AcDbBlockBegin
  2
m3-t-slot
 70
0
 10
0.0
 20
0.0
 30
0.0
  3
m3-t-slot
  1

  0
LINE
  5
47
100
AcDbEntity
100
AcDbLine
  8
cuts
 62
256
370
-1
  6
ByLayer
 10
-1.4999999999999947
 20
11.5
 30
0.0
 11
1.5000000000000104
 21
11.5
 31
0.0
  0
LINE
  5
48
100
AcDbEntity
100
AcDbLine
  8
cuts
 62
256
370
-1
  6
ByLayer
 10
-2.8599999999999945
 20
6.2799999999999976
 30
0.0
 11
-2.8599999999999945
 21
8.5499999999999989
 31
0.0
  0
LINE
  5
49
100
AcDbEntity
100
AcDbLine
  8
cuts
 62
256
370
-1
  6
ByLayer
 10
2.859999999999999
 20
8.5499999999999972
 30
0.0
 11
2.8599999999999963
 21
6.2799999999999976
 31
0.0
  0
LINE
  5
4A
100
AcDbEntity
100
AcDbLine
  8
cuts
 62
256
370
-1
  6
ByLayer
 10
-2.8599999999999945
 20
8.5499999999999989
 30
0.0
 11
-1.4999999999999969
 21
8.5500000000000007
 31
0.0
  0
LINE
  5
4B
100
AcDbEntity
100
AcDbLine
  8
cuts
 62
256
370
-1
  6
ByLayer
 10
-1.4999999999999969
 20
8.5500000000000007
 30
0.0
 11
-1.4999999999999947
 21
11.5
 31
0.0
  0
LINE
  5
4C
100
AcDbEntity
100
AcDbLine
  8
cuts
 62
256
370
-1
  6
ByLayer
 10
1.5000000000000071
 20
8.5499999999999989
 30
0.0
 11
2.859999999999999
 21
8.5499999999999972
 31
0.0
  0
LINE
  5
4D
100
AcDbEntity
100
AcDbLine
  8
cuts
 62
256
370
-1
  6
ByLayer
 10
1.5000000000000104
 20
11.5
 30
0.0
 11
1.5000000000000071
 21
8.5499999999999989
 31
0.0
  0
LINE
  5
4E
100
AcDbEntity
100
AcDbLine
  8
cuts
 62
256
370
-1
  6
ByLayer
 10
1.5000000000000033
 20
6.2799999999999958
 30
0.0
 11
1.4999999999999978
 21
-0.0000000000000009
 31
0.0
  0
LINE
  5
4F
100
AcDbEntity
100
AcDbLine
  8
cuts
 62
256
370
-1
  6
ByLayer
 10
2.8599999999999963
 20
6.2799999999999976
 30
0.0
 11
1.5000000000000033
 21
6.2799999999999958
 31
0.0
  0
LINE
  5
50
100
AcDbEntity
100
AcDbLine
  8
cuts
 62
256
370
-1
  6
ByLayer
 10
-1.5000000000000029
 20
6.2800000000000011
 30
0.0
 11
-2.8599999999999945
 21
6.2799999999999976
 31
0.0
  0
LINE
  5
51
100
AcDbEntity
100
AcDbLine
  8
cuts
 62
256
370
-1
  6
ByLayer
 10
-1.4999999999999978
 20
0.0000000000000009
 30
0.0
 11
-1.5000000000000029
 21
6.2800000000000011
 31
0.0
  0
ENDBLK
  5
52
100
AcDbEntity
  8
0
100
AcDbBlockEnd
  0
ENDSEC
  0
SECTION
  2
ENTITIES
  0
ARC
  5
53
100
AcDbEntity
  8
cuts
 62
256
370
-1
  6
ByLayer
100
AcDbCircle
 10
24.4999999999999964
 20
-9.1400000000000396
 30
0.0
 40
8.0
100
AcDbArc
 50
270.0
 51
0.0
  0
LINE
  5
54
100
AcDbEntity
100
AcDbLine
  8
cuts
 62
256
370
-1
  6
ByLayer
 10
-9.5000000000000036
 20
-17.140000000000029
 30
0.0
 11
-9.5000000000000018
 21
-7.3400000000000301
 31
0.0
  0
LINE
  5
55
100
AcDbEntity
100
AcDbLine
  8
cuts
 62
256
370
-1
  6
ByLayer
 10
-9.5000000000000018
 20
-7.3400000000000301
 30
0.0
 11
3.4999999999999969
 21
-7.3400000000000327
 31
0.0
  0
LINE
  5
56
100
AcDbEntity
100
AcDbLine
  8
cuts
 62
256
370
-1
  6
ByLayer
 10
3.4999999999999969
 20
-7.3400000000000327
 30
0.0
 11
3.4999999999999978
 21
-17.140000000000029
 31
0.0
  0
LINE
  5
57
100
AcDbEntity
100
AcDbLine
  8
cuts
 62
256
370
-1
  6
ByLayer
 10
18.3000000000000078
 20
-17.1400000000000325
 30
0.0
 11
24.4999999999999929
 21
-17.1400000000000396
 31
0.0
  0
LINE
  5
58
100
AcDbEntity
100
AcDbLine
  8
cuts
 62
256
370
-1
  6
ByLayer
 10
18.3000000000000114
 20
-9.140000000000029
 30
0.0
 11
18.3000000000000078
 21
-17.1400000000000325
 31
0.0
  0
LINE
  5
59
100
AcDbEntity
100
AcDbLine
  8
cuts
 62
256
370
-1
  6
ByLayer
 10
3.4999999999999978
 20
-17.140000000000029
 30
0.0
 11
16.2000000000000064
 21
-17.1400000000000361
 31
0.0
  0
LINE
  5
5A
100
AcDbEntity
100
AcDbLine
  8
cuts
 62
256
370
-1
  6
ByLayer
 10
16.2000000000000064
 20
-17.1400000000000361
 30
0.0
 11
16.2000000000000099
 21
-9.140000000000045
 31
0.0
  0
LINE
  5
5B
100
AcDbEntity
100
AcDbLine
  8
cuts
 62
256
370
-1
  6
ByLayer
 10
16.2000000000000099
 20
-9.140000000000045
 30
0.0
 11
18.3000000000000114
 21
-9.140000000000029
 31
0.0
  0
LINE
  5
5C
100
AcDbEntity
100
AcDbLine
  8
cuts
 62
256
370
-1
  6
ByLayer
 10
-23.5
 20
7.7399999999999514
 30
0.0
 11
-34.5
 21
7.7399999999999425
 31
0.0
  0
LINE
  5
5D
100
AcDbEntity
100
AcDbLine
  8
cuts
 62
256
370
-1
  6
ByLayer
 10
-34.5
 20
-17.1400000000000325
 30
0.0
 11
-9.5000000000000036
 21
-17.140000000000029
 31
0.0
  0
LINE
  5
5E
100
AcDbEntity
100
AcDbLine
  8
cuts
 62
256
370
-1
  6
ByLayer
 10
-34.5
 20
0.9399999999999609
 30
0.0
 11
-27.5
 21
0.939999999999914
 31
0.0
  0
LINE
  5
5F
100
AcDbEntity
100
AcDbLine
  8
cuts
 62
256
370
-1
  6
ByLayer
 10
-27.5
 20
0.939999999999914
 30
0.0
 11
-27.5
 21
-1.0600000000000842
 31
0.0
  0
LINE
  5
60
100
AcDbEntity
100
AcDbLine
  8
cuts
 62
256
370
-1
  6
ByLayer
 10
-27.5
 20
-1.0600000000000842
 30
0.0
 11
-34.5
 21
-1.0600000000000431
 31
0.0
  0
LINE
  5
61
100
AcDbEntity
100
AcDbLine
  8
cuts
 62
256
370
-1
  6
ByLayer
 10
-27.5000000000000071
 20
-13.8400000000000283
 30
0.0
 11
-34.5
 21
-13.840000000000046
 31
0.0
  0
LINE
  5
62
100
AcDbEntity
100
AcDbLine
  8
cuts
 62
256
370
-1
  6
ByLayer
 10
-27.5000000000000036
 20
-11.8400000000000354
 30
0.0
 11
-27.5000000000000071
 21
-13.8400000000000283
 31
0.0
  0
LINE
  5
63
100
AcDbEntity
100
AcDbLine
  8
cuts
 62
256
370
-1
  6
ByLayer
 10
-27.5000000000000036
 20
-11.8400000000000354
 30
0.0
 11
-34.5
 21
-11.8400000000000336
 31
0.0
  0
ARC
  5
64
100
AcDbEntity
  8
cuts
 62
256
370
-1
  6
ByLayer
100
AcDbCircle
 10
24.5
 20
-2.2600000000000611
 30
0.0
 40
10.0
100
AcDbArc
 50
323.1301023541560085
 51
36.8698976458440129
  0
LINE
  5
65
100
AcDbEntity
100
AcDbLine
  8
cuts
 62
256
370
-1
  6
ByLayer
 10
32.5
 20
-9.1400000000000272
 30
0.0
 11
32.5
 21
-8.2600000000000406
 31
0.0
  0
LINE
  5
66
100
AcDbEntity
100
AcDbLine
  8
cuts
 62
256
370
-1
  6
ByLayer
 10
-34.5
 20
7.7399999999999425
 30
0.0
 11
-34.5
 21
0.9399999999999609
 31
0.0
  0
LINE
  5
67
100
AcDbEntity
100
AcDbLine
  8
cuts
 62
256
370
-1
  6
ByLayer
 10
-34.5
 20
-1.0600000000000431
 30
0.0
 11
-34.5
 21
-11.8400000000000336
 31
0.0
  0
LINE
  5
68
100
AcDbEntity
100
AcDbLine
  8
cuts
 62
256
370
-1
  6
ByLayer
 10
-34.5
 20
-13.840000000000046
 30
0.0
 11
-34.5
 21
-17.1400000000000325
 31
0.0
  0
INSERT
  5
69
100
AcDbEntity
100
AcDbBlockReference
  8
cuts
 62
256
370
-1
  6
ByLayer
  2
m3-t-slot
 10
-4.5000000000000009
 20
12.1399999999999579
 30
0.0
 50
180.0
 44
1.0
 45
1.0
  0
LINE
  5
6A
100
AcDbEntity
100
AcDbLine
  8
cuts
 62
256
370
-1
  6
ByLayer
 10
-10.5
 20
12.1399999999999579
 30
0.0
 11
-5.9999999999999991
 21
12.1399999999999597
 31
0.0
  0
LINE
  5
6B
100
AcDbEntity
100
AcDbLine
  8
cuts
 62
256
370
-1
  6
ByLayer
 10
-3.0000000000000009
 20
12.1399999999999579
 30
0.0
 11
19.5
 21
12.1399999999999562
 31
0.0
  0
LINE
  5
6C
100
AcDbEntity
100
AcDbLine
  8
cuts
 62
256
370
-1
  6
ByLayer
 10
-23.4999999999999964
 20
12.139999999999965
 30
0.0
 11
-23.5
 21
7.7399999999999514
 31
0.0
  0
LINE
  5
6D
100
AcDbEntity
100
AcDbLine
  8
cuts
 62
256
370
-1
  6
ByLayer
 10
-23.4999999999999964
 20
12.139999999999965
 30
0.0
 11
-18.5
 21
12.1399999999999597
 31
0.0
  0
LINE
  5
6E
100
AcDbEntity
100
AcDbLine
  8
cuts
 62
256
370
-1
  6
ByLayer
 10
32.5
 20
3.7399999999999451
 30
0.0
 11
32.5
 21
12.1399999999999668
 31
0.0
  0
LINE
  5
6F
100
AcDbEntity
100
AcDbLine
  8
cuts
 62
256
370
-1
  6
ByLayer
 10
27.5
 20
12.1399999999999562
 30
0.0
 11
32.5
 21
12.1399999999999668
 31
0.0
  0
LINE
  5
70
100
AcDbEntity
100
AcDbLine
  8
text
 62
256
370
-1
  6
ByLayer
 10
0.7180455953961484
 20
0.571227822687959
 30
0.0
 11
0.8847122620628198
 21
0.5712278226879589
 31
0.0
  0
LINE
  5
71
100
AcDbEntity
100
AcDbLine
  8
text
 62
256
370
-1
  6
ByLayer
 10
-6.5
 20
1.07333333333328
 30
0.0
 11
-5.5
 21
-0.2600000000000426
 31
0.0
  0
LINE
  5
72
100
AcDbEntity
100
AcDbLine
  8
text
 62
256
370
-1
  6
ByLayer
 10
-5.5
 20
-0.2600000000000426
 30
0.0
 11
-5.5000000000000009
 21
-1.9266666666667178
 31
0.0
  0
LINE
  5
73
100
AcDbEntity
100
AcDbLine
  8
text
 62
256
370
-1
  6
ByLayer
 10
-5.5
 20
-0.2600000000000426
 30
0.0
 11
-4.5
 21
1.0733333333332793
 31
0.0
  0
LINE
  5
74
100
AcDbEntity
100
AcDbLine
  8
text
 62
256
370
-1
  6
ByLayer
 10
-1.2500000000000002
 20
1.0733333333332808
 30
0.0
 11
-1.2500000000000013
 21
-1.9266666666667183
 31
0.0
  0
LINE
  5
75
100
AcDbEntity
100
AcDbLine
  8
text
 62
256
370
-1
  6
ByLayer
 10
-1.2500000000000013
 20
-1.9266666666667183
 30
0.0
 11
-0.416666666666672
 21
-1.9266666666667192
 31
0.0
  0
ARC
  5
76
100
AcDbEntity
  8
text
 62
256
370
-1
  6
ByLayer
100
AcDbCircle
 10
-0.4166666666666716
 20
-1.4266666666667189
 30
0.0
 40
0.5
100
AcDbArc
 50
270.0
 51
0.0
  0
LINE
  5
77
100
AcDbEntity
100
AcDbLine
  8
text
 62
256
370
-1
  6
ByLayer
 10
0.0833333333333281
 20
-1.4266666666667192
 30
0.0
 11
0.0833333333333285
 21
-0.4266666666667192
 31
0.0
  0
ARC
  5
78
100
AcDbEntity
  8
text
 62
256
370
-1
  6
ByLayer
100
AcDbCircle
 10
-0.4166666666666715
 20
-0.426666666666719
 30
0.0
 40
0.5
100
AcDbArc
 50
0.0
 51
90.0
  0
LINE
  5
79
100
AcDbEntity
100
AcDbLine
  8
text
 62
256
370
-1
  6
ByLayer
 10
-0.4166666666666714
 20
0.0733333333332809
 30
0.0
 11
-1.25
 21
0.0733333333332817
 31
0.0
  0
LINE
  5
7A
100
AcDbEntity
100
AcDbLine
  8
text
 62
256
370
-1
  6
ByLayer
 10
1.25
 20
0.0733333333332817
 30
0.0
 11
1.9166666666666572
 21
0.0733333333332801
 31
0.0
  0
ARC
  5
7B
100
AcDbEntity
  8
text
 62
256
370
-1
  6
ByLayer
100
AcDbCircle
 10
1.9166666666666572
 20
-0.4266666666667198
 30
0.0
 40
0.5
100
AcDbArc
 50
0.0
 51
90.0
  0
LINE
  5
7C
100
AcDbEntity
100
AcDbLine
  8
text
 62
256
370
-1
  6
ByLayer
 10
2.4166666666666572
 20
-0.4266666666667203
 30
0.0
 11
2.4166666666666563
 21
-1.9266666666667203
 31
0.0
  0
LINE
  5
7D
100
AcDbEntity
100
AcDbLine
  8
text
 62
256
370
-1
  6
ByLayer
 10
2.4166666666666563
 20
-1.9266666666667203
 30
0.0
 11
1.5833333333333279
 21
-1.9266666666667194
 31
0.0
  0
ARC
  5
7E
100
AcDbEntity
  8
text
 62
256
370
-1
  6
ByLayer
100
AcDbCircle
 10
1.5833333333333284
 20
-1.4266666666667196
 30
0.0
 40
0.5
100
AcDbArc
 50
90.0
 51
270.0
  0
LINE
  5
7F
100
AcDbEntity
100
AcDbLine
  8
text
 62
256
370
-1
  6
ByLayer
 10
1.5833333333333284
 20
-0.9266666666667197
 30
0.0
 11
2.4166666666666572
 21
-0.92666666666672
 31
0.0
  0
LINE
  5
80
100
AcDbEntity
100
AcDbLine
  8
text
 62
256
370
-1
  6
ByLayer
 10
4.4166666666666714
 20
0.0733333333332873
 30
0.0
 11
3.9166666666666714
 21
0.0733333333332781
 31
0.0
  0
ARC
  5
81
100
AcDbEntity
  8
text
 62
256
370
-1
  6
ByLayer
100
AcDbCircle
 10
3.9166666666666714
 20
-0.4266666666667192
 30
0.0
 40
0.5
100
AcDbArc
 50
90.0
 51
180.0
  0
LINE
  5
82
100
AcDbEntity
100
AcDbLine
  8
text
 62
256
370
-1
  6
ByLayer
 10
3.416666666666671
 20
-0.4266666666667209
 30
0.0
 11
3.4166666666666718
 21
-1.4266666666667183
 31
0.0
  0
ARC
  5
83
100
AcDbEntity
  8
text
 62
256
370
-1
  6
ByLayer
100
AcDbCircle
 10
3.9166666666666705
 20
-1.4266666666667223
 30
0.0
 40
0.5
100
AcDbArc
 50
180.0
 51
270.0
  0
LINE
  5
84
100
AcDbEntity
100
AcDbLine
  8
text
 62
256
370
-1
  6
ByLayer
 10
3.9166666666666714
 20
-1.9266666666667192
 30
0.0
 11
4.4166666666666705
 21
-1.9266666666667216
 31
0.0
  0
LINE
  5
85
100
AcDbEntity
100
AcDbLine
  8
text
 62
256
370
-1
  6
ByLayer
 10
5.4166666666666714
 20
1.0733333333332769
 30
0.0
 11
5.4166666666666714
 21
-1.9266666666667169
 31
0.0
  0
LINE
  5
86
100
AcDbEntity
100
AcDbLine
  8
text
 62
256
370
-1
  6
ByLayer
 10
5.4166666666666705
 20
-0.7600000000000505
 30
0.0
 11
6.75
 21
0.0733333333333419
 31
0.0
  0
LINE
  5
87
100
AcDbEntity
100
AcDbLine
  8
text
 62
256
370
-1
  6
ByLayer
 10
5.8569999999999993
 20
-0.4846666666667211
 30
0.0
 11
6.7500000000000009
 21
-1.9266666666667183
 31
0.0
  0
CIRCLE
  5
88
100
AcDbEntity
100
AcDbCircle
  8
cuts
 62
256
370
-1
  6
ByLayer
 10
8.5000000000000142
 20
-0.140000000000031
 30
0.0
 40
1.5
  0
CIRCLE
  5
89
100
AcDbEntity
100
AcDbCircle
  8
cuts
 62
256
370
-1
  6
ByLayer
 10
-15.5
 20
-2.2600000000000477
 30
0.0
 40
4.6879999999999997
  0
CIRCLE
  5
8A
100
AcDbEntity
100
AcDbCircle
  8
cuts
 62
256
370
-1
  6
ByLayer
 10
24.5
 20
-2.2600000000000611
 30
0.0
 40
4.6879999999999997
  0
LINE
  5
8B
100
AcDbEntity
100
AcDbLine
  8
cuts
 62
256
370
-1
  6
ByLayer
 10
-10.5000000000000018
 20
17.1400000000000432
 30
0.0
 11
-10.5
 21
12.1399999999999579
 31
0.0
  0
LINE
  5
8C
100
AcDbEntity
100
AcDbLine
  8
cuts
 62
256
370
-1
  6
ByLayer
 10
-18.5
 20
12.1399999999999597
 30
0.0
 11
-18.5
 21
17.1400000000000432
 31
0.0
  0
LINE
  5
8D
100
AcDbEntity
100
AcDbLine
  8
cuts
 62
256
370
-1
  6
ByLayer
 10
27.5000000000000036
 20
17.1400000000000432
 30
0.0
 11
27.5
 21
12.1399999999999562
 31
0.0
  0
LINE
  5
8E
100
AcDbEntity
100
AcDbLine
  8
cuts
 62
256
370
-1
  6
ByLayer
 10
19.5
 20
12.1399999999999562
 30
0.0
 11
19.5
 21
17.1400000000000432
 31
0.0
  0
LINE
  5
8F
100
AcDbEntity
100
AcDbLine
  8
cuts
 62
256
370
-1
  6
ByLayer
 10
-18.5
 20
17.1400000000000432
 30
0.0
 11
-10.5000000000000018
 21
17.1400000000000432
 31
0.0
  0
LINE
  5
90
100
AcDbEntity
100
AcDbLine
  8
cuts
 62
256
370
-1
  6
ByLayer
 10
19.5
 20
17.1400000000000432
 30
0.0
 11
27.5000000000000036
 21
17.1400000000000432
 31
0.0
  0
ENDSEC
  0
SECTION
  2
OBJECTS
  0
DICTIONARY
  5
C
100
AcDbDictionary
280
0
281
1
  3
ACAD_GROUP
350
D
  3
ACAD_LAYOUT
350
1A
  3
ACAD_MLINESTYLE
350
17
  3
ACAD_PLOTSETTINGS
350
19
  3
ACAD_PLOTSTYLENAME
350
E
  3
AcDbVariableDictionary
350
91
  0
DICTIONARY
  5
D
100
AcDbDictionary
280
0
281
1
  0
ACDBDICTIONARYWDFLT
  5
E
100
AcDbDictionary
281
1
  3
Normal
350
F
100
AcDbDictionaryWithDefault
340
F
  0
ACDBPLACEHOLDER
  5
F
  0
DICTIONARY
  5
17
100
AcDbDictionary
280
0
281
1
  3
Standard
350
18
  0
MLINESTYLE
  5
18
100
AcDbMlineStyle
  2
STANDARD
 70
0
  3

 62
256
 51
90.0
 52
90.0
 71
2
 49
0.5
 62
256
  6
BYLAYER
 49
-0.5
 62
256
  6
BYLAYER
  0
DICTIONARY
  5
19
100
AcDbDictionary
280
0
281
1
  0
DICTIONARY
  5
1A
100
AcDbDictionary
281
1
  3
Layout1
350
1E
  3
Layout2
350
26
  3
Model
350
22
  0
LAYOUT
  5
1E
100
AcDbPlotSettings
  1

  2
C:\Program Files\AutoCAD 2002\plotters\DWF ePlot (optimized for plotting).pc3
  4

  6

 40
0.0
 41
0.0
 42
0.0
 43
0.0
 44
0.0
 45
0.0
 46
0.0
 47
0.0
 48
0.0
 49
0.0
140
0.0
141
0.0
142
1.0
143
1.0
 70
688
 72
0
 73
0
 74
5
  7

 75
16
147
1.0
148
0.0
149
0.0
100
AcDbLayout
  1
Layout1
 70
1
 71
1
 10
0.0
 20
0.0
 11
420.0
 21
297.0
 12
0.0
 22
0.0
 32
0.0
 14
100000000000000000000.0
 24
100000000000000000000.0
 34
100000000000000000000.0
 15
-100000000000000000000.0
 25
-100000000000000000000.0
 35
-100000000000000000000.0
146
0.0
 13
0.0
 23
0.0
 33
0.0
 16
1.0
 26
0.0
 36
0.0
 17
0.0
 27
1.0
 37
0.0
 76
0
330
1B
  0
LAYOUT
  5
22
100
AcDbPlotSettings
  1

  2
C:\Program Files\AutoCAD 2002\plotters\DWF ePlot (optimized for plotting).pc3
  4

  6

 40
0.0
 41
0.0
 42
0.0
 43
0.0
 44
0.0
 45
0.0
 46
0.0
 47
0.0
 48
0.0
 49
0.0
140
0.0
141
0.0
142
1.0
143
1.0
 70
1712
 72
0
 73
0
 74
0
  7

 75
0
147
1.0
148
0.0
149
0.0
100
AcDbLayout
  1
Model
 70
1
 71
0
 10
0.0
 20
0.0
 11
12.0
 21
9.0
 12
0.0
 22
0.0
 32
0.0
 14
0.0
 24
0.0
 34
0.0
 15
0.0
 25
0.0
 35
0.0
146
0.0
 13
0.0
 23
0.0
 33
0.0
 16
1.0
 26
0.0
 36
0.0
 17
0.0
 27
1.0
 37
0.0
 76
0
330
1F
  0
LAYOUT
  5
26
100
AcDbPlotSettings
  1

  2
C:\Program Files\AutoCAD 2002\plotters\DWF ePlot (optimized for plotting).pc3
  4

  6

 40
0.0
 41
0.0
 42
0.0
 43
0.0
 44
0.0
 45
0.0
 46
0.0
 47
0.0
 48
0.0
 49
0.0
140
0.0
141
0.0
142
1.0
143
1.0
 70
688
 72
0
 73
0
 74
5
  7

 75
16
147
1.0
148
0.0
149
0.0
100
AcDbLayout
  1
Layout2
 70
1
 71
2
 10
0.0
 20
0.0
 11
12.0
 21
9.0
 12
0.0
 22
0.0
 32
0.0
 14
0.0
 24
0.0
 34
0.0
 15
0.0
 25
0.0
 35
0.0
146
0.0
 13
0.0
 23
0.0
 33
0.0
 16
1.0
 26
0.0
 36
0.0
 17
0.0
 27
1.0
 37
0.0
 76
0
330
23
  0
DICTIONARY
  5
91
100
AcDbDictionary
281
1
  3
DIMASSOC
350
93
  3
HIDETEXT
350
92
  0
DICTIONARYVAR
  5
92
100
DictionaryVariables
280
0
  1
2
  0
DICTIONARYVAR
  5
93
100
DictionaryVariables
280
0
  1
1
  0
ENDSEC
  0
EOF
