999
dxflib 2.2.0.0
  0
SECTION
  2
HEADER
  9
$ACADVER
  1
AC1015
  9
$HANDSEED
  5
FFFF
  9
$DIMASZ
 40
2.5
  9
$PLIMMIN
 10
0.0
 20
0.0
  9
$DIMEXE
 40
1.25
  9
$DIMGAP
 40
0.625
  9
$PLIMMAX
 10
210.0
 20
297.0
  9
$INSUNITS
 70
4
  9
$DIMSTYLE
  2
Standard
  9
$CLAYER
  8
0
  9
$DIMEXO
 40
0.625
  9
$DIMTXT
 40
2.5
  9
$CLAYER
  8
0
  0
ENDSEC
  0
SECTION
  2
TABLES
  0
TABLE
  2
VPORT
  5
8
100
AcDbSymbolTable
 70
1
  0
VPORT
  5
30
100
AcDbSymbolTableRecord
100
AcDbViewportTableRecord
  2
*Active
 70
0
 10
0.0
 20
0.0
 11
1.0
 21
1.0
 12
286.3055555555554861
 22
148.5
 13
0.0
 23
0.0
 14
10.0
 24
10.0
 15
10.0
 25
10.0
 16
0.0
 26
0.0
 36
1.0
 17
0.0
 27
0.0
 37
0.0
 40
297.0
 41
1.92798353909465
 42
50.0
 43
0.0
 44
0.0
 50
0.0
 51
0.0
 71
0
 72
100
 73
1
 74
3
 75
1
 76
1
 77
0
 78
0
281
0
 65
1
110
0.0
120
0.0
130
0.0
111
1.0
121
0.0
131
0.0
112
0.0
122
1.0
132
0.0
 79
0
146
0.0
  0
ENDTAB
  0
TABLE
  2
LTYPE
  5
5
100
AcDbSymbolTable
 70
21
  0
LTYPE
  5
14
100
AcDbSymbolTableRecord
100
AcDbLinetypeTableRecord
  2
ByBlock
 70
0
  3

 72
65
 73
0
 40
0.0
  0
LTYPE
  5
15
100
AcDbSymbolTableRecord
100
AcDbLinetypeTableRecord
  2
ByLayer
 70
0
  3

 72
65
 73
0
 40
0.0
  0
LTYPE
  5
16
100
AcDbSymbolTableRecord
100
AcDbLinetypeTableRecord
  2
CONTINUOUS
 70
0
  3
Solid line
 72
65
 73
0
 40
0.0
  0
LTYPE
  5
31
100
AcDbSymbolTableRecord
100
AcDbLinetypeTableRecord
  2
DOT
 70
0
  3
Dot . . . . . . . . . . . . . . . . . . . . . .
 72
65
 73
2
 40
6.3499999999999996
 49
0.0
 74
0
 49
-6.3499999999999996
 74
0
  0
LTYPE
  5
32
100
AcDbSymbolTableRecord
100
AcDbLinetypeTableRecord
  2
DOT2
 70
0
  3
Dot (.5x) .....................................
 72
65
 73
2
 40
3.1749999999999998
 49
0.0
 74
0
 49
-3.1749999999999998
 74
0
  0
LTYPE
  5
33
100
AcDbSymbolTableRecord
100
AcDbLinetypeTableRecord
  2
DOTX2
 70
0
  3
Dot (2x) .  .  .  .  .  .  .  .  .  .  .  .  .
 72
65
 73
2
 40
12.6999999999999993
 49
0.0
 74
0
 49
-12.6999999999999993
 74
0
  0
LTYPE
  5
34
100
AcDbSymbolTableRecord
100
AcDbLinetypeTableRecord
  2
DASHED
 70
0
  3
Dashed __ __ __ __ __ __ __ __ __ __ __ __ __ _
 72
65
 73
2
 40
19.0500000000000007
 49
12.6999999999999993
 74
0
 49
-6.3499999999999996
 74
0
  0
LTYPE
  5
35
100
AcDbSymbolTableRecord
100
AcDbLinetypeTableRecord
  2
DASHED2
 70
0
  3
Dashed (.5x) _ _ _ _ _ _ _ _ _ _ _ _ _ _ _ _ _
 72
65
 73
2
 40
9.5250000000000004
 49
6.3499999999999996
 74
0
 49
-3.1749999999999998
 74
0
  0
LTYPE
  5
36
100
AcDbSymbolTableRecord
100
AcDbLinetypeTableRecord
  2
DASHEDX2
 70
0
  3
Dashed (2x) ____  ____  ____  ____  ____  ___
 72
65
 73
2
 40
38.1000000000000014
 49
25.3999999999999986
 74
0
 49
-12.6999999999999993
 74
0
  0
LTYPE
  5
37
100
AcDbSymbolTableRecord
100
AcDbLinetypeTableRecord
  2
DASHDOT
 70
0
  3
Dash dot __ . __ . __ . __ . __ . __ . __ . __
 72
65
 73
4
 40
25.3999999999999986
 49
12.6999999999999993
 74
0
 49
-6.3499999999999996
 74
0
 49
0.0
 74
0
 49
-6.3499999999999996
 74
0
  0
LTYPE
  5
38
100
AcDbSymbolTableRecord
100
AcDbLinetypeTableRecord
  2
DASHDOT2
 70
0
  3
Dash dot (.5x) _._._._._._._._._._._._._._._.
 72
65
 73
4
 40
12.6999999999999993
 49
6.3499999999999996
 74
0
 49
-3.1749999999999998
 74
0
 49
0.0
 74
0
 49
-3.1749999999999998
 74
0
  0
LTYPE
  5
39
100
AcDbSymbolTableRecord
100
AcDbLinetypeTableRecord
  2
DASHDOTX2
 70
0
  3
Dash dot (2x) ____  .  ____  .  ____  .  ___
 72
65
 73
4
 40
50.7999999999999972
 49
25.3999999999999986
 74
0
 49
-12.6999999999999993
 74
0
 49
0.0
 74
0
 49
-12.6999999999999993
 74
0
  0
LTYPE
  5
3A
100
AcDbSymbolTableRecord
100
AcDbLinetypeTableRecord
  2
DIVIDE
 70
0
  3
Divide ____ . . ____ . . ____ . . ____ . . ____
 72
65
 73
6
 40
31.75
 49
12.6999999999999993
 74
0
 49
-6.3499999999999996
 74
0
 49
0.0
 74
0
 49
-6.3499999999999996
 74
0
 49
0.0
 74
0
 49
-6.3499999999999996
 74
0
  0
LTYPE
  5
3B
100
AcDbSymbolTableRecord
100
AcDbLinetypeTableRecord
  2
DIVIDE2
 70
0
  3
Divide (.5x) __..__..__..__..__..__..__..__.._
 72
65
 73
6
 40
15.875
 49
6.3499999999999996
 74
0
 49
-3.1749999999999998
 74
0
 49
0.0
 74
0
 49
-3.1749999999999998
 74
0
 49
0.0
 74
0
 49
-3.1749999999999998
 74
0
  0
LTYPE
  5
3C
100
AcDbSymbolTableRecord
100
AcDbLinetypeTableRecord
  2
DIVIDEX2
 70
0
  3
Divide (2x) ________  .  .  ________  .  .  _
 72
65
 73
6
 40
63.5
 49
25.3999999999999986
 74
0
 49
-12.6999999999999993
 74
0
 49
0.0
 74
0
 49
-12.6999999999999993
 74
0
 49
0.0
 74
0
 49
-12.6999999999999993
 74
0
  0
LTYPE
  5
3D
100
AcDbSymbolTableRecord
100
AcDbLinetypeTableRecord
  2
CENTER
 70
0
  3
Center ____ _ ____ _ ____ _ ____ _ ____ _ ____
 72
65
 73
4
 40
50.7999999999999972
 49
31.75
 74
0
 49
-6.3499999999999996
 74
0
 49
6.3499999999999996
 74
0
 49
-6.3499999999999996
 74
0
  0
LTYPE
  5
3E
100
AcDbSymbolTableRecord
100
AcDbLinetypeTableRecord
  2
CENTER2
 70
0
  3
Center (.5x) ___ _ ___ _ ___ _ ___ _ ___ _ ___
 72
65
 73
4
 40
28.5749999999999993
 49
19.0500000000000007
 74
0
 49
-3.1749999999999998
 74
0
 49
3.1749999999999998
 74
0
 49
-3.1749999999999998
 74
0
  0
LTYPE
  5
3F
100
AcDbSymbolTableRecord
100
AcDbLinetypeTableRecord
  2
CENTERX2
 70
0
  3
Center (2x) ________  __  ________  __  _____
 72
65
 73
4
 40
101.5999999999999943
 49
63.5
 74
0
 49
-12.6999999999999993
 74
0
 49
12.6999999999999993
 74
0
 49
-12.6999999999999993
 74
0
  0
LTYPE
  5
40
100
AcDbSymbolTableRecord
100
AcDbLinetypeTableRecord
  2
BORDER
 70
0
  3
Border __ __ . __ __ . __ __ . __ __ . __ __ .
 72
65
 73
6
 40
44.4500000000000028
 49
12.6999999999999993
 74
0
 49
-6.3499999999999996
 74
0
 49
12.6999999999999993
 74
0
 49
-6.3499999999999996
 74
0
 49
0.0
 74
0
 49
-6.3499999999999996
 74
0
  0
LTYPE
  5
41
100
AcDbSymbolTableRecord
100
AcDbLinetypeTableRecord
  2
BORDER2
 70
0
  3
Border (.5x) __.__.__.__.__.__.__.__.__.__.__.
 72
65
 73
6
 40
22.2250000000000014
 49
6.3499999999999996
 74
0
 49
-3.1749999999999998
 74
0
 49
6.3499999999999996
 74
0
 49
-3.1749999999999998
 74
0
 49
0.0
 74
0
 49
-3.1749999999999998
 74
0
  0
LTYPE
  5
42
100
AcDbSymbolTableRecord
100
AcDbLinetypeTableRecord
  2
BORDERX2
 70
0
  3
Border (2x) ____  ____  .  ____  ____  .  ___
 72
65
 73
6
 40
88.9000000000000057
 49
25.3999999999999986
 74
0
 49
-12.6999999999999993
 74
0
 49
25.3999999999999986
 74
0
 49
-12.6999999999999993
 74
0
 49
0.0
 74
0
 49
-12.6999999999999993
 74
0
  0
ENDTAB
  0
TABLE
  2
LAYER
  5
2
100
AcDbSymbolTable
 70
4
  0
LAYER
  5
10
100
AcDbSymbolTableRecord
100
AcDbLayerTableRecord
  2
0
 70
0
 62
7
420
0
  6
CONTINUOUS
370
0
390
F
  0
LAYER
  5
43
100
AcDbSymbolTableRecord
100
AcDbLayerTableRecord
  2
etch
 70
0
 62
1
420
16711680
  6
CONTINUOUS
370
0
390
F
  0
LAYER
  5
44
100
AcDbSymbolTableRecord
100
AcDbLayerTableRecord
  2
grid
 70
1
 62
-1
420
16711680
  6
CONTINUOUS
370
0
390
F
  0
LAYER
  5
45
100
AcDbSymbolTableRecord
100
AcDbLayerTableRecord
  2
drawings
 70
1
 62
-5
420
255
  6
CONTINUOUS
370
0
390
F
  0
ENDTAB
  0
TABLE
  2
STYLE
  5
3
100
AcDbSymbolTable
 70
1
  0
STYLE
  5
11
100
AcDbSymbolTableRecord
100
AcDbTextStyleTableRecord
  2
Standard
 70
0
 40
0.0
 41
0.75
 50
0.0
 71
0
 42
2.5
  3
txt
  4

  0
ENDTAB
  0
TABLE
  2
VIEW
  5
6
100
AcDbSymbolTable
 70
0
  0
ENDTAB
  0
TABLE
  2
UCS
  5
7
100
AcDbSymbolTable
 70
0
  0
ENDTAB
  0
TABLE
  2
APPID
  5
9
100
AcDbSymbolTable
 70
1
  0
APPID
  5
12
100
AcDbSymbolTableRecord
100
AcDbRegAppTableRecord
  2
ACAD
 70
0
  0
ENDTAB
  0
TABLE
  2
DIMSTYLE
  5
A
100
AcDbSymbolTable
 70
1
100
AcDbDimStyleTable
 71
0
  0
DIMSTYLE
105
27
100
AcDbSymbolTableRecord
100
AcDbDimStyleTableRecord
  2
Standard
 41
2.5
 42
0.625
 43
3.75
 44
1.25
 70
0
 73
0
 74
0
 77
1
 78
8
140
2.5
141
2.5
143
0.03937007874016
147
0.625
171
3
172
1
271
2
272
2
274
3
278
44
283
0
284
8
340
11
  0
ENDTAB
  0
TABLE
  2
BLOCK_RECORD
  5
1
100
AcDbSymbolTable
 70
1
  0
BLOCK_RECORD
  5
1F
100
AcDbSymbolTableRecord
100
AcDbBlockTableRecord
  2
*Model_Space
340
22
  0
BLOCK_RECORD
  5
1B
100
AcDbSymbolTableRecord
100
AcDbBlockTableRecord
  2
*Paper_Space
340
1E
  0
BLOCK_RECORD
  5
23
100
AcDbSymbolTableRecord
100
AcDbBlockTableRecord
  2
*Paper_Space0
340
26
  0
ENDTAB
  0
ENDSEC
  0
SECTION
  2
BLOCKS
  0
BLOCK
  5
20
100
AcDbEntity
  8
0
100
AcDbBlockBegin
  2
*Model_Space
 70
0
 10
0.0
 20
0.0
 30
0.0
  3
*Model_Space
  1

  0
ENDBLK
  5
21
100
AcDbEntity
  8
0
100
AcDbBlockEnd
  0
BLOCK
  5
1C
100
AcDbEntity
 67
1
  8
0
100
AcDbBlockBegin
  2
*Paper_Space
 70
0
 10
0.0
 20
0.0
 30
0.0
  3
*Paper_Space
  1

  0
ENDBLK
  5
1D
100
AcDbEntity
 67
1
  8
0
100
AcDbBlockEnd
  0
BLOCK
  5
24
100
AcDbEntity
  8
0
100
AcDbBlockBegin
  2
*Paper_Space0
 70
0
 10
0.0
 20
0.0
 30
0.0
  3
*Paper_Space0
  1

  0
ENDBLK
  5
25
100
AcDbEntity
  8
0
100
AcDbBlockEnd
  0
ENDSEC
  0
SECTION
  2
ENTITIES
  0
LINE
  5
46
100
AcDbEntity
100
AcDbLine
  8
drawings
 62
256
370
-1
  6
ByLayer
 10
-45.5000000000000284
 20
50.0000000000000213
 30
0.0
 11
-45.5000000000000284
 21
-49.9999999999999787
 31
0.0
  0
LINE
  5
47
100
AcDbEntity
100
AcDbLine
  8
drawings
 62
256
370
-1
  6
ByLayer
 10
45.4999999999999716
 20
-50.0
 30
0.0
 11
45.4999999999999716
 21
50.0000000000000213
 31
0.0
  0
LINE
  5
48
100
AcDbEntity
100
AcDbLine
  8
drawings
 62
256
370
-1
  6
ByLayer
 10
49.9999999999999716
 20
45.5000000000000213
 30
0.0
 11
-50.0000000000000284
 21
45.5000000000000213
 31
0.0
  0
LINE
  5
49
100
AcDbEntity
100
AcDbLine
  8
drawings
 62
256
370
-1
  6
ByLayer
 10
-50.0000000000000284
 20
-45.4999999999999787
 30
0.0
 11
49.9999999999999716
 21
-45.5
 31
0.0
  0
LINE
  5
4A
100
AcDbEntity
100
AcDbLine
  8
drawings
 62
256
370
-1
  6
ByLayer
 10
-50.0000000000000284
 20
0.0000000000000213
 30
0.0
 11
49.9999999999999716
 21
0.0000000000000107
 31
0.0
  0
CIRCLE
  5
4B
100
AcDbEntity
100
AcDbCircle
  8
drawings
 62
256
370
-1
  6
ByLayer
 10
-45.5000000000000284
 20
45.5000000000000213
 30
0.0
 40
4.5
  0
CIRCLE
  5
4C
100
AcDbEntity
100
AcDbCircle
  8
drawings
 62
256
370
-1
  6
ByLayer
 10
45.4999999999999716
 20
45.5000000000000213
 30
0.0
 40
4.5
  0
CIRCLE
  5
4D
100
AcDbEntity
100
AcDbCircle
  8
drawings
 62
256
370
-1
  6
ByLayer
 10
45.4999999999999716
 20
0.0000000000000142
 30
0.0
 40
4.5
  0
CIRCLE
  5
4E
100
AcDbEntity
100
AcDbCircle
  8
drawings
 62
256
370
-1
  6
ByLayer
 10
45.4999999999999716
 20
-45.5
 30
0.0
 40
4.5
  0
CIRCLE
  5
4F
100
AcDbEntity
100
AcDbCircle
  8
drawings
 62
256
370
-1
  6
ByLayer
 10
-45.5000000000000284
 20
-45.4999999999999787
 30
0.0
 40
4.5
  0
CIRCLE
  5
50
100
AcDbEntity
100
AcDbCircle
  8
drawings
 62
256
370
-1
  6
ByLayer
 10
-45.5000000000000284
 20
0.0000000000000213
 30
0.0
 40
4.5
  0
CIRCLE
  5
51
100
AcDbEntity
100
AcDbCircle
  8
0
 62
256
370
-1
  6
ByLayer
 10
45.5000000000000142
 20
45.4999999999999929
 30
0.0
 40
1.5
  0
CIRCLE
  5
52
100
AcDbEntity
100
AcDbCircle
  8
0
 62
256
370
-1
  6
ByLayer
 10
45.5000000000000142
 20
0.0
 30
0.0
 40
1.5
  0
CIRCLE
  5
53
100
AcDbEntity
100
AcDbCircle
  8
0
 62
256
370
-1
  6
ByLayer
 10
45.4999999999999929
 20
-45.5000000000000142
 30
0.0
 40
1.5
  0
CIRCLE
  5
54
100
AcDbEntity
100
AcDbCircle
  8
0
 62
256
370
-1
  6
ByLayer
 10
-45.4999999999999929
 20
-45.4999999999999787
 30
0.0
 40
1.5
  0
CIRCLE
  5
55
100
AcDbEntity
100
AcDbCircle
  8
0
 62
256
370
-1
  6
ByLayer
 10
-45.4999999999999858
 20
0.0000000000000056
 30
0.0
 40
1.5
  0
CIRCLE
  5
56
100
AcDbEntity
100
AcDbCircle
  8
0
 62
256
370
-1
  6
ByLayer
 10
-45.4999999999999929
 20
45.5
 30
0.0
 40
1.5
  0
SPLINE
  5
57
  8
etch
 62
256
370
5
  6
ByLayer
100
AcDbEntity
100
AcDbSpline
 70
8
 71
3
 72
8
 73
4
 74
0
 40
0.0
 40
0.0
 40
0.0
 40
0.0
 40
1.0
 40
1.0
 40
1.0
 40
1.0
 10
33.8131864593876443
 20
43.7378526834325854
 30
0.0
 10
34.029060459387658
 20
43.863337883431484
 30
0.0
 10
34.0497264393876407
 20
44.0443581234325805
 30
0.0
 10
34.0497264393876549
 20
45.8097882234325553
 30
0.0
  0
SPLINE
  5
58
  8
etch
 62
256
370
5
  6
ByLayer
100
AcDbEntity
100
AcDbSpline
 70
8
 71
3
 72
8
 73
4
 74
0
 40
0.0
 40
0.0
 40
0.0
 40
0.0
 40
1.0
 40
1.0
 40
1.0
 40
1.0
 10
34.0497264393876549
 20
45.8097882234325553
 30
0.0
 10
34.0497264393876193
 20
47.7527179434325291
 30
0.0
 10
34.0287531993876726
 20
47.9131204434325326
 30
0.0
 10
33.7327125993876393
 20
48.2342867034325593
 30
0.0
  0
SPLINE
  5
59
  8
etch
 62
256
370
5
  6
ByLayer
100
AcDbEntity
100
AcDbSpline
 70
8
 71
3
 72
8
 73
4
 74
0
 40
0.0
 40
0.0
 40
0.0
 40
0.0
 40
1.0
 40
1.0
 40
1.0
 40
1.0
 10
33.7327125993876393
 20
48.2342867034325593
 30
0.0
 10
33.4232157393876932
 20
48.570050783432535
 30
0.0
 10
33.2364072393876597
 20
48.6079202634325611
 30
0.0
 10
31.8895799193876215
 20
48.6079202634325895
 30
0.0
  0
SPLINE
  5
5A
  8
etch
 62
256
370
5
  6
ByLayer
100
AcDbEntity
100
AcDbSpline
 70
8
 71
3
 72
8
 73
4
 74
0
 40
0.0
 40
0.0
 40
0.0
 40
0.0
 40
1.0
 40
1.0
 40
1.0
 40
1.0
 10
31.8895799193876215
 20
48.6079202634325895
 30
0.0
 10
30.5905841793876547
 20
48.6079202634325469
 30
0.0
 10
30.3862843593876413
 20
48.5696448834325309
 30
0.0
 10
30.0778835193876759
 20
48.2685000234325088
 30
0.0
  0
SPLINE
  5
5B
  8
etch
 62
256
370
5
  6
ByLayer
100
AcDbEntity
100
AcDbSpline
 70
8
 71
3
 72
8
 73
4
 74
0
 40
0.0
 40
0.0
 40
0.0
 40
0.0
 40
1.0
 40
1.0
 40
1.0
 40
1.0
 10
30.0778835193876759
 20
48.2685000234325088
 30
0.0
 10
29.7505913193876736
 20
47.9489075034325083
 30
0.0
 10
29.7317262393876653
 20
47.8173132834325401
 30
0.0
 10
29.7317262393876582
 20
45.8538682434325366
 30
0.0
  0
SPLINE
  5
5C
  8
etch
 62
256
370
5
  6
ByLayer
100
AcDbEntity
100
AcDbSpline
 70
8
 71
3
 72
8
 73
4
 74
0
 40
0.0
 40
0.0
 40
0.0
 40
0.0
 40
1.0
 40
1.0
 40
1.0
 40
1.0
 10
29.7317262393876582
 20
45.8538682434325366
 30
0.0
 10
29.7317262393876369
 20
44.0262000834325988
 30
0.0
 10
29.7514596393876189
 20
43.8564960834682722
 30
0.0
 10
29.9780859393876362
 20
43.735209203432639
 30
0.0
  0
SPLINE
  5
5D
  8
etch
 62
256
370
5
  6
ByLayer
100
AcDbEntity
100
AcDbSpline
 70
8
 71
3
 72
8
 73
4
 74
0
 40
0.0
 40
0.0
 40
0.0
 40
0.0
 40
1.0
 40
1.0
 40
1.0
 40
1.0
 10
29.9780859393876362
 20
43.735209203432639
 30
0.0
 10
30.1910711193876331
 20
43.6212231234325429
 30
0.0
 10
30.5936549793876331
 20
43.7243089434325753
 30
0.0
 10
30.6653703993876512
 20
43.9111961034325589
 30
0.0
  0
SPLINE
  5
5E
  8
etch
 62
256
370
5
  6
ByLayer
100
AcDbEntity
100
AcDbSpline
 70
8
 71
3
 72
8
 73
4
 74
0
 40
0.0
 40
0.0
 40
0.0
 40
0.0
 40
1.0
 40
1.0
 40
1.0
 40
1.0
 10
30.6653703993876512
 20
43.9111961034325589
 30
0.0
 10
30.6827261793876396
 20
43.9564248834328524
 30
0.0
 10
30.6969263793876443
 20
44.8030901634326
 30
0.0
 10
30.6969263793876479
 20
45.792675083432556
 30
0.0
  0
LINE
  5
5F
100
AcDbEntity
100
AcDbLine
  8
etch
 62
256
370
5
  6
ByLayer
 10
30.6969263793876479
 20
45.792675083432556
 30
0.0
 11
30.6969263793876586
 21
47.5919201634325404
 31
0.0
  0
LINE
  5
60
100
AcDbEntity
100
AcDbLine
  8
etch
 62
256
370
5
  6
ByLayer
 10
30.6969263793876586
 20
47.5919201634325404
 30
0.0
 11
31.0506960393876419
 21
47.5919201634325333
 31
0.0
  0
LINE
  5
61
100
AcDbEntity
100
AcDbLine
  8
etch
 62
256
370
5
  6
ByLayer
 10
31.0506960393876419
 20
47.5919201634325333
 30
0.0
 11
31.4044653393876594
 21
47.5919201634325617
 31
0.0
  0
LINE
  5
62
100
AcDbEntity
100
AcDbLine
  8
etch
 62
256
370
5
  6
ByLayer
 10
31.4044653393876594
 20
47.5919201634325617
 30
0.0
 11
31.4189961993876565
 21
45.7586741634325449
 31
0.0
  0
LINE
  5
63
100
AcDbEntity
100
AcDbLine
  8
etch
 62
256
370
5
  6
ByLayer
 10
31.4189961993876565
 20
45.7586741634325449
 30
0.0
 11
31.4335265193876516
 21
43.9254281634328123
 31
0.0
  0
LINE
  5
64
100
AcDbEntity
100
AcDbLine
  8
etch
 62
256
370
5
  6
ByLayer
 10
31.4335265193876516
 20
43.9254281634328123
 30
0.0
 11
31.5760591593876327
 21
43.8028742634324004
 31
0.0
  0
SPLINE
  5
65
  8
etch
 62
256
370
5
  6
ByLayer
100
AcDbEntity
100
AcDbSpline
 70
8
 71
3
 72
8
 73
4
 74
0
 40
0.0
 40
0.0
 40
0.0
 40
0.0
 40
1.0
 40
1.0
 40
1.0
 40
1.0
 10
31.5760591593876327
 20
43.8028742634324004
 30
0.0
 10
31.7645142993876419
 20
43.640834843432728
 30
0.0
 10
32.0169385593876399
 20
43.6408348434325646
 30
0.0
 10
32.2053938793876355
 20
43.8028742634323578
 30
0.0
  0
LINE
  5
66
100
AcDbEntity
100
AcDbLine
  8
etch
 62
256
370
5
  6
ByLayer
 10
32.2053938793876355
 20
43.8028742634323578
 30
0.0
 11
32.3479265193876628
 21
43.9254281634326134
 31
0.0
  0
LINE
  5
67
100
AcDbEntity
100
AcDbLine
  8
etch
 62
256
370
5
  6
ByLayer
 10
32.3479265193876628
 20
43.9254281634326134
 30
0.0
 11
32.362456839387626
 21
45.7586741634325733
 31
0.0
  0
LINE
  5
68
100
AcDbEntity
100
AcDbLine
  8
etch
 62
256
370
5
  6
ByLayer
 10
32.362456839387626
 20
45.7586741634325733
 30
0.0
 11
32.3769876993876196
 21
47.5919201634325759
 31
0.0
  0
LINE
  5
69
100
AcDbEntity
100
AcDbLine
  8
etch
 62
256
370
5
  6
ByLayer
 10
32.3769876993876196
 20
47.5919201634325759
 30
0.0
 11
32.7307568193876648
 21
47.5919201634325049
 31
0.0
  0
LINE
  5
6A
100
AcDbEntity
100
AcDbLine
  8
etch
 62
256
370
5
  6
ByLayer
 10
32.7307568193876648
 20
47.5919201634325049
 30
0.0
 11
33.0845264793876623
 21
47.5919201634325191
 31
0.0
  0
LINE
  5
6B
100
AcDbEntity
100
AcDbLine
  8
etch
 62
256
370
5
  6
ByLayer
 10
33.0845264793876623
 20
47.5919201634325191
 30
0.0
 11
33.0845264793876623
 21
45.7926750834325844
 31
0.0
  0
SPLINE
  5
6C
  8
etch
 62
256
370
5
  6
ByLayer
100
AcDbEntity
100
AcDbSpline
 70
8
 71
3
 72
8
 73
4
 74
0
 40
0.0
 40
0.0
 40
0.0
 40
0.0
 40
1.0
 40
1.0
 40
1.0
 40
1.0
 10
33.0845264793876623
 20
45.7926750834325844
 30
0.0
 10
33.0845264793876623
 20
44.8030901634325716
 30
0.0
 10
33.0987264993876735
 20
43.9564248834323834
 30
0.0
 10
33.1160824593876342
 20
43.9111961034327081
 30
0.0
  0
SPLINE
  5
6D
  8
etch
 62
256
370
5
  6
ByLayer
100
AcDbEntity
100
AcDbSpline
 70
8
 71
3
 72
8
 73
4
 74
0
 40
0.0
 40
0.0
 40
0.0
 40
0.0
 40
1.0
 40
1.0
 40
1.0
 40
1.0
 10
33.1160824593876342
 20
43.9111961034327081
 30
0.0
 10
33.1880120793876188
 20
43.7237502234328019
 30
0.0
 10
33.6088850193876212
 20
43.6190949834325181
 30
0.0
 10
33.8131864593876443
 20
43.7378526834325854
 30
0.0
  0
LINE
  5
6E
100
AcDbEntity
100
AcDbLine
  8
etch
 62
256
370
5
  6
ByLayer
 10
33.8131864593876443
 20
43.7378526834325854
 30
0.0
 11
33.8131864593876443
 21
43.7378526834325854
 31
0.0
  0
LINE
  5
6F
100
AcDbEntity
100
AcDbLine
  8
etch
 62
256
370
5
  6
ByLayer
 10
29.2276338993876408
 20
43.828812623431574
 30
0.0
 11
29.3761263393876639
 21
43.9773047034324804
 31
0.0
  0
LINE
  5
70
100
AcDbEntity
100
AcDbLine
  8
etch
 62
256
370
5
  6
ByLayer
 10
29.3761263393876639
 20
43.9773047034324804
 30
0.0
 11
29.3761263393876462
 21
44.8293329034325723
 31
0.0
  0
LINE
  5
71
100
AcDbEntity
100
AcDbLine
  8
etch
 62
256
370
5
  6
ByLayer
 10
29.3761263393876462
 20
44.8293329034325723
 30
0.0
 11
29.3761263393876426
 21
45.6813607434325775
 31
0.0
  0
LINE
  5
72
100
AcDbEntity
100
AcDbLine
  8
etch
 62
256
370
5
  6
ByLayer
 10
29.3761263393876426
 20
45.6813607434325775
 30
0.0
 11
29.2396220793876509
 21
45.8238404634325462
 31
0.0
  0
LINE
  5
73
100
AcDbEntity
100
AcDbLine
  8
etch
 62
256
370
5
  6
ByLayer
 10
29.2396220793876509
 20
45.8238404634325462
 30
0.0
 11
29.1031179993876457
 21
45.966320183432579
 31
0.0
  0
LINE
  5
74
100
AcDbEntity
100
AcDbLine
  8
etch
 62
256
370
5
  6
ByLayer
 10
29.1031179993876457
 20
45.966320183432579
 30
0.0
 11
28.2213127593876472
 21
45.9663201834325861
 31
0.0
  0
SPLINE
  5
75
  8
etch
 62
256
370
5
  6
ByLayer
100
AcDbEntity
100
AcDbSpline
 70
8
 71
3
 72
8
 73
4
 74
0
 40
0.0
 40
0.0
 40
0.0
 40
0.0
 40
1.0
 40
1.0
 40
1.0
 40
1.0
 10
28.2213127593876472
 20
45.9663201834325861
 30
0.0
 10
27.352808979387639
 20
45.9663201834326003
 30
0.0
 10
27.3376274193876156
 20
45.9644395434325759
 30
0.0
 10
27.2148173793876467
 20
45.8416291434325629
 30
0.0
  0
SPLINE
  5
76
  8
etch
 62
256
370
5
  6
ByLayer
100
AcDbEntity
100
AcDbSpline
 70
8
 71
3
 72
8
 73
4
 74
0
 40
0.0
 40
0.0
 40
0.0
 40
0.0
 40
1.0
 40
1.0
 40
1.0
 40
1.0
 10
27.2148173793876467
 20
45.8416291434325629
 30
0.0
 10
27.0445044393876302
 20
45.6713165634325691
 30
0.0
 10
27.0435131793876309
 20
45.3658180434325899
 30
0.0
 10
27.2126350593876296
 20
45.16905284343256
 30
0.0
  0
SPLINE
  5
77
  8
etch
 62
256
370
5
  6
ByLayer
100
AcDbEntity
100
AcDbSpline
 70
8
 71
3
 72
8
 73
4
 74
0
 40
0.0
 40
0.0
 40
0.0
 40
0.0
 40
1.0
 40
1.0
 40
1.0
 40
1.0
 10
27.2126350593876296
 20
45.16905284343256
 30
0.0
 10
27.3303264393876368
 20
45.0321245034325699
 30
0.0
 10
27.3562934193876721
 20
45.0258390834325724
 30
0.0
 10
27.873035079387666
 20
45.0091964634325024
 30
0.0
  0
LINE
  5
78
100
AcDbEntity
100
AcDbLine
  8
etch
 62
256
370
5
  6
ByLayer
 10
27.873035079387666
 20
45.0091964634325024
 30
0.0
 11
28.4109263793876607
 21
44.9918720034325759
 31
0.0
  0
LINE
  5
79
100
AcDbEntity
100
AcDbLine
  8
etch
 62
256
370
5
  6
ByLayer
 10
28.4109263793876607
 20
44.9918720034325759
 30
0.0
 11
28.4109263793876643
 21
44.8186963434325492
 31
0.0
  0
LINE
  5
7A
100
AcDbEntity
100
AcDbLine
  8
etch
 62
256
370
5
  6
ByLayer
 10
28.4109263793876643
 20
44.8186963434325492
 30
0.0
 11
28.4109263793876679
 21
44.6455201434325986
 31
0.0
  0
LINE
  5
7B
100
AcDbEntity
100
AcDbLine
  8
etch
 62
256
370
5
  6
ByLayer
 10
28.4109263793876679
 20
44.6455201434325986
 30
0.0
 11
27.5727263193876304
 21
44.6455201434325346
 31
0.0
  0
LINE
  5
7C
100
AcDbEntity
100
AcDbLine
  8
etch
 62
256
370
5
  6
ByLayer
 10
27.5727263193876304
 20
44.6455201434325346
 30
0.0
 11
26.734526259387664
 21
44.6455201434325133
 31
0.0
  0
LINE
  5
7D
100
AcDbEntity
100
AcDbLine
  8
etch
 62
256
370
5
  6
ByLayer
 10
26.734526259387664
 20
44.6455201434325133
 30
0.0
 11
26.7345262593876321
 21
45.4811537634325802
 31
0.0
  0
LINE
  5
7E
100
AcDbEntity
100
AcDbLine
  8
etch
 62
256
370
5
  6
ByLayer
 10
26.7345262593876321
 20
45.4811537634325802
 30
0.0
 11
26.7345262593876711
 21
46.3167879234325
 31
0.0
  0
LINE
  5
7F
100
AcDbEntity
100
AcDbLine
  8
etch
 62
256
370
5
  6
ByLayer
 10
26.7345262593876711
 20
46.3167879234325
 30
0.0
 11
27.958293159387658
 21
46.3320537234325585
 31
0.0
  0
SPLINE
  5
80
  8
etch
 62
256
370
5
  6
ByLayer
100
AcDbEntity
100
AcDbSpline
 70
8
 71
3
 72
8
 73
4
 74
0
 40
0.0
 40
0.0
 40
0.0
 40
0.0
 40
1.0
 40
1.0
 40
1.0
 40
1.0
 10
27.958293159387658
 20
46.3320537234325585
 30
0.0
 10
29.174629119387621
 20
46.3472277234325816
 30
0.0
 10
29.1826493793876516
 20
46.3480487034325392
 30
0.0
 10
29.2790931993876598
 20
46.4672477634325105
 30
0.0
  0
SPLINE
  5
81
  8
etch
 62
256
370
5
  6
ByLayer
100
AcDbEntity
100
AcDbSpline
 70
8
 71
3
 72
8
 73
4
 74
0
 40
0.0
 40
0.0
 40
0.0
 40
0.0
 40
1.0
 40
1.0
 40
1.0
 40
1.0
 10
29.2790931993876598
 20
46.4672477634325105
 30
0.0
 10
29.3877375993876697
 20
46.6015270434325544
 30
0.0
 10
29.4054074793876943
 20
46.8624743034325064
 30
0.0
 10
29.3187365793876396
 20
47.0526965034325571
 30
0.0
  0
SPLINE
  5
82
  8
etch
 62
256
370
5
  6
ByLayer
100
AcDbEntity
100
AcDbSpline
 70
8
 71
3
 72
8
 73
4
 74
0
 40
0.0
 40
0.0
 40
0.0
 40
0.0
 40
1.0
 40
1.0
 40
1.0
 40
1.0
 10
29.3187365793876396
 20
47.0526965034325571
 30
0.0
 10
29.2177263393876494
 20
47.274389723432563
 30
0.0
 10
29.0739439593876448
 20
47.2949469834325527
 30
0.0
 10
27.744671679387654
 20
47.2777476234325462
 30
0.0
  0
LINE
  5
83
100
AcDbEntity
100
AcDbLine
  8
etch
 62
256
370
5
  6
ByLayer
 10
27.744671679387654
 20
47.2777476234325462
 30
0.0
 11
26.5059262593876674
 21
47.2617202434325208
 31
0.0
  0
LINE
  5
84
100
AcDbEntity
100
AcDbLine
  8
etch
 62
256
370
5
  6
ByLayer
 10
26.5059262593876674
 20
47.2617202434325208
 30
0.0
 11
26.265976539387637
 21
47.1206699034325709
 31
0.0
  0
SPLINE
  5
85
  8
etch
 62
256
370
5
  6
ByLayer
100
AcDbEntity
100
AcDbSpline
 70
8
 71
3
 72
8
 73
4
 74
0
 40
0.0
 40
0.0
 40
0.0
 40
0.0
 40
1.0
 40
1.0
 40
1.0
 40
1.0
 10
26.265976539387637
 20
47.1206699034325709
 30
0.0
 10
26.1103776993876622
 20
47.0292039834325308
 30
0.0
 10
25.976442399387647
 20
46.8952688634325057
 30
0.0
 10
25.8849766593876467
 20
46.7396700234325237
 30
0.0
  0
LINE
  5
86
100
AcDbEntity
100
AcDbLine
  8
etch
 62
256
370
5
  6
ByLayer
 10
25.8849766593876467
 20
46.7396700234325237
 30
0.0
 11
25.7439263193876258
 21
46.4997203034326105
 31
0.0
  0
LINE
  5
87
100
AcDbEntity
100
AcDbLine
  8
etch
 62
256
370
5
  6
ByLayer
 10
25.7439263193876258
 20
46.4997203034326105
 30
0.0
 11
25.7439263193876151
 21
45.4837202034325827
 31
0.0
  0
LINE
  5
88
100
AcDbEntity
100
AcDbLine
  8
etch
 62
256
370
5
  6
ByLayer
 10
25.7439263193876151
 20
45.4837202034325827
 30
0.0
 11
25.7439263193876577
 21
44.4677202834325698
 31
0.0
  0
LINE
  5
89
100
AcDbEntity
100
AcDbLine
  8
etch
 62
256
370
5
  6
ByLayer
 10
25.7439263193876577
 20
44.4677202834325698
 30
0.0
 11
25.8838223193876509
 21
44.2297399434325627
 31
0.0
  0
SPLINE
  5
8A
  8
etch
 62
256
370
5
  6
ByLayer
100
AcDbEntity
100
AcDbSpline
 70
8
 71
3
 72
8
 73
4
 74
0
 40
0.0
 40
0.0
 40
0.0
 40
0.0
 40
1.0
 40
1.0
 40
1.0
 40
1.0
 10
25.8838223193876509
 20
44.2297399434325627
 30
0.0
 10
26.178957159387668
 20
43.7276790834325553
 30
0.0
 10
26.3496117393876368
 20
43.6803201834325421
 30
0.0
 10
27.863614779387639
 20
43.6803201834326558
 30
0.0
  0
LINE
  5
8B
100
AcDbEntity
100
AcDbLine
  8
etch
 62
256
370
5
  6
ByLayer
 10
27.863614779387639
 20
43.6803201834326558
 30
0.0
 11
29.0791418193876154
 21
43.6803201834326416
 31
0.0
  0
LINE
  5
8C
100
AcDbEntity
100
AcDbLine
  8
etch
 62
256
370
5
  6
ByLayer
 10
29.0791418193876154
 20
43.6803201834326416
 30
0.0
 11
29.2276338993876408
 21
43.828812623431574
 31
0.0
  0
LINE
  5
8D
100
AcDbEntity
100
AcDbLine
  8
etch
 62
256
370
5
  6
ByLayer
 10
29.2276338993876408
 20
43.828812623431574
 30
0.0
 11
29.2276338993876408
 21
43.828812623431574
 31
0.0
  0
LINE
  5
8E
100
AcDbEntity
100
AcDbLine
  8
etch
 62
256
370
5
  6
ByLayer
 10
25.1949936393876435
 20
43.8029219634325244
 30
0.0
 11
25.3375262793876281
 21
43.9255232034325616
 31
0.0
  0
LINE
  5
8F
100
AcDbEntity
100
AcDbLine
  8
etch
 62
256
370
5
  6
ByLayer
 10
25.3375262793876281
 20
43.9255232034325616
 30
0.0
 11
25.3375262793876246
 21
46.1343885234325626
 31
0.0
  0
SPLINE
  5
90
  8
etch
 62
256
370
5
  6
ByLayer
100
AcDbEntity
100
AcDbSpline
 70
8
 71
3
 72
8
 73
4
 74
0
 40
0.0
 40
0.0
 40
0.0
 40
0.0
 40
1.0
 40
1.0
 40
1.0
 40
1.0
 10
25.3375262793876246
 20
46.1343885234325626
 30
0.0
 10
25.3375262793876495
 20
48.2279921034325767
 30
0.0
 10
25.3325235393876298
 20
48.3487818234325744
 30
0.0
 10
25.2416519793876439
 20
48.4491930234325565
 30
0.0
  0
SPLINE
  5
91
  8
etch
 62
256
370
5
  6
ByLayer
100
AcDbEntity
100
AcDbSpline
 70
8
 71
3
 72
8
 73
4
 74
0
 40
0.0
 40
0.0
 40
0.0
 40
0.0
 40
1.0
 40
1.0
 40
1.0
 40
1.0
 10
25.2416519793876439
 20
48.4491930234325565
 30
0.0
 10
25.1058021993876466
 20
48.5993060034325453
 30
0.0
 10
24.8317061193876611
 20
48.6398897034325444
 30
0.0
 10
24.623686239387645
 20
48.5406920634325161
 30
0.0
  0
SPLINE
  5
92
  8
etch
 62
256
370
5
  6
ByLayer
100
AcDbEntity
100
AcDbSpline
 70
8
 71
3
 72
8
 73
4
 74
0
 40
0.0
 40
0.0
 40
0.0
 40
0.0
 40
1.0
 40
1.0
 40
1.0
 40
1.0
 10
24.623686239387645
 20
48.5406920634325161
 30
0.0
 10
24.380930319387609
 20
48.4249295634325705
 30
0.0
 10
24.3475379793876314
 20
48.2413133634325675
 30
0.0
 10
24.3472098393876095
 20
47.0204201634325614
 30
0.0
  0
LINE
  5
93
100
AcDbEntity
100
AcDbLine
  8
etch
 62
256
370
5
  6
ByLayer
 10
24.3472098393876095
 20
47.0204201634325614
 30
0.0
 11
24.3469263393876076
 21
45.9663201834326074
 31
0.0
  0
LINE
  5
94
100
AcDbEntity
100
AcDbLine
  8
etch
 62
256
370
5
  6
ByLayer
 10
24.3469263393876076
 20
45.9663201834326074
 30
0.0
 11
23.9913262593876304
 21
45.9663201834325861
 31
0.0
  0
LINE
  5
95
100
AcDbEntity
100
AcDbLine
  8
etch
 62
256
370
5
  6
ByLayer
 10
23.9913262593876304
 20
45.9663201834325861
 30
0.0
 11
23.6357263593876503
 21
45.966320183432579
 31
0.0
  0
LINE
  5
96
100
AcDbEntity
100
AcDbLine
  8
etch
 62
256
370
5
  6
ByLayer
 10
23.6357263593876503
 20
45.966320183432579
 30
0.0
 11
23.6357263593876503
 21
46.4776598634325921
 31
0.0
  0
SPLINE
  5
97
  8
etch
 62
256
370
5
  6
ByLayer
100
AcDbEntity
100
AcDbSpline
 70
8
 71
3
 72
8
 73
4
 74
0
 40
0.0
 40
0.0
 40
0.0
 40
0.0
 40
1.0
 40
1.0
 40
1.0
 40
1.0
 10
23.6357263593876503
 20
46.4776598634325921
 30
0.0
 10
23.6357263593876539
 20
46.7588967234325636
 30
0.0
 10
23.6137400793876822
 20
47.0300813034325529
 30
0.0
 10
23.5868678793876612
 20
47.0802926634325161
 30
0.0
  0
SPLINE
  5
98
  8
etch
 62
256
370
5
  6
ByLayer
100
AcDbEntity
100
AcDbSpline
 70
8
 71
3
 72
8
 73
4
 74
0
 40
0.0
 40
0.0
 40
0.0
 40
0.0
 40
1.0
 40
1.0
 40
1.0
 40
1.0
 10
23.5868678793876612
 20
47.0802926634325161
 30
0.0
 10
23.4641899593876637
 20
47.3095179834325563
 30
0.0
 10
22.9822966593876643
 20
47.3387543034324949
 30
0.0
 10
22.7918006793876131
 20
47.128529783432576
 30
0.0
  0
SPLINE
  5
99
  8
etch
 62
256
370
5
  6
ByLayer
100
AcDbEntity
100
AcDbSpline
 70
8
 71
3
 72
8
 73
4
 74
0
 40
0.0
 40
0.0
 40
0.0
 40
0.0
 40
1.0
 40
1.0
 40
1.0
 40
1.0
 10
22.7918006793876131
 20
47.128529783432576
 30
0.0
 10
22.7136758193876602
 20
47.0423139234325802
 30
0.0
 10
22.6927193193876384
 20
46.9249391634325406
 30
0.0
 10
22.6786024593876832
 20
46.4945233434325331
 30
0.0
  0
SPLINE
  5
9A
  8
etch
 62
256
370
5
  6
ByLayer
100
AcDbEntity
100
AcDbSpline
 70
8
 71
3
 72
8
 73
4
 74
0
 40
0.0
 40
0.0
 40
0.0
 40
0.0
 40
1.0
 40
1.0
 40
1.0
 40
1.0
 10
22.6786024593876832
 20
46.4945233434325331
 30
0.0
 10
22.6621524393876292
 20
45.9929835834325473
 30
0.0
 10
22.6557419193876441
 20
45.9662638434325714
 30
0.0
 10
22.5516025593876392
 20
45.9652047234325636
 30
0.0
  0
SPLINE
  5
9B
  8
etch
 62
256
370
5
  6
ByLayer
100
AcDbEntity
100
AcDbSpline
 70
8
 71
3
 72
8
 73
4
 74
0
 40
0.0
 40
0.0
 40
0.0
 40
0.0
 40
1.0
 40
1.0
 40
1.0
 40
1.0
 10
22.5516025593876392
 20
45.9652047234325636
 30
0.0
 10
22.331124339387646
 20
45.9629619234325659
 30
0.0
 10
22.0187033793876239
 20
45.773901083432591
 30
0.0
 10
21.8737862793876552
 20
45.555026123432576
 30
0.0
  0
SPLINE
  5
9C
  8
etch
 62
256
370
5
  6
ByLayer
100
AcDbEntity
100
AcDbSpline
 70
8
 71
3
 72
8
 73
4
 74
0
 40
0.0
 40
0.0
 40
0.0
 40
0.0
 40
1.0
 40
1.0
 40
1.0
 40
1.0
 10
21.8737862793876552
 20
45.555026123432576
 30
0.0
 10
21.7379535993876267
 20
45.3498718434325596
 30
0.0
 10
21.7298343393876543
 20
45.3048111834325624
 30
0.0
 10
21.7130671593876627
 20
44.6630894034325507
 30
0.0
  0
LINE
  5
9D
100
AcDbEntity
100
AcDbLine
  8
etch
 62
256
370
5
  6
ByLayer
 10
21.7130671593876627
 20
44.6630894034325507
 30
0.0
 11
21.695408619387635
 21
43.9872223434326202
 31
0.0
  0
LINE
  5
9E
100
AcDbEntity
100
AcDbLine
  8
etch
 62
256
370
5
  6
ByLayer
 10
21.695408619387635
 20
43.9872223434326202
 30
0.0
 11
21.8488596993876527
 21
43.8337712634324745
 31
0.0
  0
SPLINE
  5
9F
  8
etch
 62
256
370
5
  6
ByLayer
100
AcDbEntity
100
AcDbSpline
 70
8
 71
3
 72
8
 73
4
 74
0
 40
0.0
 40
0.0
 40
0.0
 40
0.0
 40
1.0
 40
1.0
 40
1.0
 40
1.0
 10
21.8488596993876527
 20
43.8337712634324745
 30
0.0
 10
22.0140546993876285
 20
43.6685762634325556
 30
0.0
 10
22.2122255193876548
 20
43.6357046634325485
 30
0.0
 10
22.4339343993876348
 20
43.7367219234325759
 30
0.0
  0
SPLINE
  5
A0
  8
etch
 62
256
370
5
  6
ByLayer
100
AcDbEntity
100
AcDbSpline
 70
8
 71
3
 72
8
 73
4
 74
0
 40
0.0
 40
0.0
 40
0.0
 40
0.0
 40
1.0
 40
1.0
 40
1.0
 40
1.0
 10
22.4339343993876348
 20
43.7367219234325759
 30
0.0
 10
22.6193320593876308
 20
43.821195203432552
 30
0.0
 10
22.6705263993876507
 20
43.9908783234325327
 30
0.0
 10
22.6705263993876578
 20
44.5209102834325279
 30
0.0
  0
LINE
  5
A1
100
AcDbEntity
100
AcDbLine
  8
etch
 62
256
370
5
  6
ByLayer
 10
22.6705263993876578
 20
44.5209102834325279
 30
0.0
 11
22.6705263993876756
 21
45.0011202234324941
 31
0.0
  0
LINE
  5
A2
100
AcDbEntity
100
AcDbLine
  8
etch
 62
256
370
5
  6
ByLayer
 10
22.6705263993876756
 20
45.0011202234324941
 30
0.0
 11
23.5087262793876519
 21
45.0011202234325083
 31
0.0
  0
LINE
  5
A3
100
AcDbEntity
100
AcDbLine
  8
etch
 62
256
370
5
  6
ByLayer
 10
23.5087262793876519
 20
45.0011202234325083
 30
0.0
 11
24.346926339387668
 21
45.001120223432487
 31
0.0
  0
LINE
  5
A4
100
AcDbEntity
100
AcDbLine
  8
etch
 62
256
370
5
  6
ByLayer
 10
24.346926339387668
 20
45.001120223432487
 30
0.0
 11
24.3469263393876219
 21
44.5676885034325494
 31
0.0
  0
SPLINE
  5
A5
  8
etch
 62
256
370
5
  6
ByLayer
100
AcDbEntity
100
AcDbSpline
 70
8
 71
3
 72
8
 73
4
 74
0
 40
0.0
 40
0.0
 40
0.0
 40
0.0
 40
1.0
 40
1.0
 40
1.0
 40
1.0
 10
24.3469263393876219
 20
44.5676885034325494
 30
0.0
 10
24.3469263393876609
 20
44.3037555834325261
 30
0.0
 10
24.3757644993876568
 20
44.0652379434325496
 30
0.0
 10
24.4206690993876592
 20
43.9577655234324283
 30
0.0
  0
SPLINE
  5
A6
  8
etch
 62
256
370
5
  6
ByLayer
100
AcDbEntity
100
AcDbSpline
 70
8
 71
3
 72
8
 73
4
 74
0
 40
0.0
 40
0.0
 40
0.0
 40
0.0
 40
1.0
 40
1.0
 40
1.0
 40
1.0
 10
24.4206690993876592
 20
43.9577655234324283
 30
0.0
 10
24.5428970193876381
 20
43.6652336634325238
 30
0.0
 10
24.9421112793876887
 20
43.5854015034325712
 30
0.0
 10
25.1949936393876435
 20
43.8029219634325244
 30
0.0
  0
LINE
  5
A7
100
AcDbEntity
100
AcDbLine
  8
etch
 62
256
370
5
  6
ByLayer
 10
25.1949936393876435
 20
43.8029219634325244
 30
0.0
 11
25.1949936393876435
 21
43.8029219634325244
 31
0.0
  0
SPLINE
  5
A8
  8
etch
 62
256
370
5
  6
ByLayer
100
AcDbEntity
100
AcDbSpline
 70
8
 71
3
 72
8
 73
4
 74
0
 40
0.0
 40
0.0
 40
0.0
 40
0.0
 40
1.0
 40
1.0
 40
1.0
 40
1.0
 10
20.6639263593876485
 20
43.7766299034325641
 30
0.0
 10
20.7756863793876612
 20
43.8283732434325231
 30
0.0
 10
20.9287787193876227
 20
43.9364564034325724
 30
0.0
 10
21.0041313993876564
 20
44.0168143434325714
 30
0.0
  0
SPLINE
  5
A9
  8
etch
 62
256
370
5
  6
ByLayer
100
AcDbEntity
100
AcDbSpline
 70
8
 71
3
 72
8
 73
4
 74
0
 40
0.0
 40
0.0
 40
0.0
 40
0.0
 40
1.0
 40
1.0
 40
1.0
 40
1.0
 10
21.0041313993876564
 20
44.0168143434325714
 30
0.0
 10
21.2676369993876513
 20
44.2978231434325807
 30
0.0
 10
21.2990253993876202
 20
44.4557898834325442
 30
0.0
 10
21.297810759387648
 20
45.4947885834325518
 30
0.0
  0
SPLINE
  5
AA
  8
etch
 62
256
370
5
  6
ByLayer
100
AcDbEntity
100
AcDbSpline
 70
8
 71
3
 72
8
 73
4
 74
0
 40
0.0
 40
0.0
 40
0.0
 40
0.0
 40
1.0
 40
1.0
 40
1.0
 40
1.0
 10
21.297810759387648
 20
45.4947885834325518
 30
0.0
 10
21.2965799193876535
 20
46.5473391234325646
 30
0.0
 10
21.2591930193876308
 20
46.7140013034325534
 30
0.0
 10
20.9617124193876592
 20
46.9930466634325441
 30
0.0
  0
SPLINE
  5
AB
  8
etch
 62
256
370
5
  6
ByLayer
100
AcDbEntity
100
AcDbSpline
 70
8
 71
3
 72
8
 73
4
 74
0
 40
0.0
 40
0.0
 40
0.0
 40
0.0
 40
1.0
 40
1.0
 40
1.0
 40
1.0
 10
20.9617124193876592
 20
46.9930466634325441
 30
0.0
 10
20.7003336993876772
 20
47.2382271834325564
 30
0.0
 10
20.4592418793876547
 20
47.2871202234325523
 30
0.0
 10
19.5116343993876811
 20
47.2871202234325523
 30
0.0
  0
SPLINE
  5
AC
  8
etch
 62
256
370
5
  6
ByLayer
100
AcDbEntity
100
AcDbSpline
 70
8
 71
3
 72
8
 73
4
 74
0
 40
0.0
 40
0.0
 40
0.0
 40
0.0
 40
1.0
 40
1.0
 40
1.0
 40
1.0
 10
19.5116343993876811
 20
47.2871202234325523
 30
0.0
 10
18.4625601993876813
 20
47.2871202234325452
 30
0.0
 10
18.254245119387658
 20
47.2423126434325695
 30
0.0
 10
17.96675829938766
 20
46.9548258234325573
 30
0.0
  0
SPLINE
  5
AD
  8
etch
 62
256
370
5
  6
ByLayer
100
AcDbEntity
100
AcDbSpline
 70
8
 71
3
 72
8
 73
4
 74
0
 40
0.0
 40
0.0
 40
0.0
 40
0.0
 40
1.0
 40
1.0
 40
1.0
 40
1.0
 10
17.96675829938766
 20
46.9548258234325573
 30
0.0
 10
17.7009324993876618
 20
46.6890000234325271
 30
0.0
 10
17.6227953993876412
 20
46.3870280634325738
 30
0.0
 10
17.6485388193876531
 20
45.7250217234325191
 30
0.0
  0
SPLINE
  5
AE
  8
etch
 62
256
370
5
  6
ByLayer
100
AcDbEntity
100
AcDbSpline
 70
8
 71
3
 72
8
 73
4
 74
0
 40
0.0
 40
0.0
 40
0.0
 40
0.0
 40
1.0
 40
1.0
 40
1.0
 40
1.0
 10
17.6485388193876531
 20
45.7250217234325191
 30
0.0
 10
17.6653221993876386
 20
45.2934299634325441
 30
0.0
 10
17.6776010793876672
 20
45.2464496034325663
 30
0.0
 10
17.8075810593876298
 20
45.1165205634325588
 30
0.0
  0
LINE
  5
AF
100
AcDbEntity
100
AcDbLine
  8
etch
 62
256
370
5
  6
ByLayer
 10
17.8075810593876298
 20
45.1165205634325588
 30
0.0
 11
17.948435199387653
 21
44.9757202434325478
 31
0.0
  0
LINE
  5
B0
100
AcDbEntity
100
AcDbLine
  8
etch
 62
256
370
5
  6
ByLayer
 10
17.948435199387653
 20
44.9757202434325478
 30
0.0
 11
18.8097263793876373
 21
44.975720243432562
 31
0.0
  0
LINE
  5
B1
100
AcDbEntity
100
AcDbLine
  8
etch
 62
256
370
5
  6
ByLayer
 10
18.8097263793876373
 20
44.975720243432562
 30
0.0
 11
19.6710173793876244
 21
44.975720243432562
 31
0.0
  0
LINE
  5
B2
100
AcDbEntity
100
AcDbLine
  8
etch
 62
256
370
5
  6
ByLayer
 10
19.6710173793876244
 20
44.975720243432562
 30
0.0
 11
19.8055481193876446
 21
45.1102508034325496
 31
0.0
  0
SPLINE
  5
B3
  8
etch
 62
256
370
5
  6
ByLayer
100
AcDbEntity
100
AcDbSpline
 70
8
 71
3
 72
8
 73
4
 74
0
 40
0.0
 40
0.0
 40
0.0
 40
0.0
 40
1.0
 40
1.0
 40
1.0
 40
1.0
 10
19.8055481193876446
 20
45.1102508034325496
 30
0.0
 10
19.9991336193876634
 20
45.3038364834325336
 30
0.0
 10
20.0016060993876721
 20
45.6102893634325426
 30
0.0
 10
19.8111203793876527
 20
45.8009331234325288
 30
0.0
  0
SPLINE
  5
B4
  8
etch
 62
256
370
5
  6
ByLayer
100
AcDbEntity
100
AcDbSpline
 70
8
 71
3
 72
8
 73
4
 74
0
 40
0.0
 40
0.0
 40
0.0
 40
0.0
 40
1.0
 40
1.0
 40
1.0
 40
1.0
 10
19.8111203793876527
 20
45.8009331234325288
 30
0.0
 10
19.6791261993876319
 20
45.9330365634325801
 30
0.0
 10
19.6412689593876557
 20
45.9418956234325861
 30
0.0
 10
19.1388878793876493
 20
45.9582441234325714
 30
0.0
  0
LINE
  5
B5
100
AcDbEntity
100
AcDbLine
  8
etch
 62
256
370
5
  6
ByLayer
 10
19.1388878793876493
 20
45.9582441234325714
 30
0.0
 11
18.6065263593876686
 21
45.9755684034325327
 31
0.0
  0
LINE
  5
B6
100
AcDbEntity
100
AcDbLine
  8
etch
 62
256
370
5
  6
ByLayer
 10
18.6065263593876686
 20
45.9755684034325327
 30
0.0
 11
18.6065263593876544
 21
46.1487440634325452
 31
0.0
  0
LINE
  5
B7
100
AcDbEntity
100
AcDbLine
  8
etch
 62
256
370
5
  6
ByLayer
 10
18.6065263593876544
 20
46.1487440634325452
 30
0.0
 11
18.6065263593876615
 21
46.321920263432574
 31
0.0
  0
LINE
  5
B8
100
AcDbEntity
100
AcDbLine
  8
etch
 62
256
370
5
  6
ByLayer
 10
18.6065263593876615
 20
46.321920263432574
 30
0.0
 11
19.4701263993876523
 21
46.321920263432574
 31
0.0
  0
LINE
  5
B9
100
AcDbEntity
100
AcDbLine
  8
etch
 62
256
370
5
  6
ByLayer
 10
19.4701263993876523
 20
46.321920263432574
 30
0.0
 11
20.3337262593876495
 21
46.321920263432574
 31
0.0
  0
LINE
  5
BA
100
AcDbEntity
100
AcDbLine
  8
etch
 62
256
370
5
  6
ByLayer
 10
20.3337262593876495
 20
46.321920263432574
 30
0.0
 11
20.333726259387646
 21
45.4837202034325543
 31
0.0
  0
LINE
  5
BB
100
AcDbEntity
100
AcDbLine
  8
etch
 62
256
370
5
  6
ByLayer
 10
20.333726259387646
 20
45.4837202034325543
 30
0.0
 11
20.3337262593876389
 21
44.6455201434325346
 31
0.0
  0
LINE
  5
BC
100
AcDbEntity
100
AcDbLine
  8
etch
 62
256
370
5
  6
ByLayer
 10
20.3337262593876389
 20
44.6455201434325346
 30
0.0
 11
19.1427589593876561
 21
44.6455201434325346
 31
0.0
  0
SPLINE
  5
BD
  8
etch
 62
256
370
5
  6
ByLayer
100
AcDbEntity
100
AcDbSpline
 70
8
 71
3
 72
8
 73
4
 74
0
 40
0.0
 40
0.0
 40
0.0
 40
0.0
 40
1.0
 40
1.0
 40
1.0
 40
1.0
 10
19.1427589593876561
 20
44.6455201434325346
 30
0.0
 10
17.9570269593876652
 20
44.6455201434325204
 30
0.0
 10
17.9511650793876676
 20
44.6449812234325805
 30
0.0
 10
17.8092588393876348
 20
44.5229185434325387
 30
0.0
  0
SPLINE
  5
BE
  8
etch
 62
256
370
5
  6
ByLayer
100
AcDbEntity
100
AcDbSpline
 70
8
 71
3
 72
8
 73
4
 74
0
 40
0.0
 40
0.0
 40
0.0
 40
0.0
 40
1.0
 40
1.0
 40
1.0
 40
1.0
 10
17.8092588393876348
 20
44.5229185434325387
 30
0.0
 10
17.6909055993876621
 20
44.4211152234325723
 30
0.0
 10
17.6667263793876437
 20
44.3600450034325178
 30
0.0
 10
17.6667263793876508
 20
44.1629201634325597
 30
0.0
  0
SPLINE
  5
BF
  8
etch
 62
256
370
5
  6
ByLayer
100
AcDbEntity
100
AcDbSpline
 70
8
 71
3
 72
8
 73
4
 74
0
 40
0.0
 40
0.0
 40
0.0
 40
0.0
 40
1.0
 40
1.0
 40
1.0
 40
1.0
 10
17.6667263793876508
 20
44.1629201634325597
 30
0.0
 10
17.6667263793876472
 20
43.9657953234325447
 30
0.0
 10
17.6909055993876727
 20
43.9047251034325257
 30
0.0
 10
17.8092588393876312
 20
43.8029219634325173
 30
0.0
  0
SPLINE
  5
C0
  8
etch
 62
256
370
5
  6
ByLayer
100
AcDbEntity
100
AcDbSpline
 70
8
 71
3
 72
8
 73
4
 74
0
 40
0.0
 40
0.0
 40
0.0
 40
0.0
 40
1.0
 40
1.0
 40
1.0
 40
1.0
 10
17.8092588393876312
 20
43.8029219634325173
 30
0.0
 10
17.9516935593876354
 20
43.6804051434325871
 30
0.0
 10
17.9526596193876493
 20
43.6803212634325604
 30
0.0
 10
19.2062589993876571
 20
43.6814358234325226
 30
0.0
  0
SPLINE
  5
C1
  8
etch
 62
256
370
5
  6
ByLayer
100
AcDbEntity
100
AcDbSpline
 70
8
 71
3
 72
8
 73
4
 74
0
 40
0.0
 40
0.0
 40
0.0
 40
0.0
 40
1.0
 40
1.0
 40
1.0
 40
1.0
 10
19.2062589993876571
 20
43.6814358234325226
 30
0.0
 10
20.3188022793876328
 20
43.68242546343253
 30
0.0
 10
20.4837153993876697
 20
43.69319504343256
 30
0.0
 10
20.6639263593876485
 20
43.7766299034325641
 30
0.0
  0
LINE
  5
C2
100
AcDbEntity
100
AcDbLine
  8
etch
 62
256
370
5
  6
ByLayer
 10
20.6639263593876485
 20
43.7766299034325641
 30
0.0
 11
20.6639263593876485
 21
43.7766299034325641
 31
0.0
  0
SPLINE
  5
C3
  8
etch
 62
256
370
5
  6
ByLayer
100
AcDbEntity
100
AcDbSpline
 70
8
 71
3
 72
8
 73
4
 74
0
 40
0.0
 40
0.0
 40
0.0
 40
0.0
 40
1.0
 40
1.0
 40
1.0
 40
1.0
 10
17.0317263393876388
 20
43.7459802234325537
 30
0.0
 10
17.2590598593876585
 20
43.8608330034325178
 30
0.0
 10
17.2953330993876655
 20
44.0974862034325596
 30
0.0
 10
17.2747220193876565
 20
45.3313201434325777
 30
0.0
  0
SPLINE
  5
C4
  8
etch
 62
256
370
5
  6
ByLayer
100
AcDbEntity
100
AcDbSpline
 70
8
 71
3
 72
8
 73
4
 74
0
 40
0.0
 40
0.0
 40
0.0
 40
0.0
 40
1.0
 40
1.0
 40
1.0
 40
1.0
 10
17.2747220193876565
 20
45.3313201434325777
 30
0.0
 10
17.2601958393876558
 20
46.2009064434325651
 30
0.0
 10
17.2385218593876495
 20
46.4883770634324947
 30
0.0
 10
17.1770554593876561
 20
46.6267202034325123
 30
0.0
  0
SPLINE
  5
C5
  8
etch
 62
256
370
5
  6
ByLayer
100
AcDbEntity
100
AcDbSpline
 70
8
 71
3
 72
8
 73
4
 74
0
 40
0.0
 40
0.0
 40
0.0
 40
0.0
 40
1.0
 40
1.0
 40
1.0
 40
1.0
 10
17.1770554593876561
 20
46.6267202034325123
 30
0.0
 10
17.071497159387679
 20
46.8643005834325663
 30
0.0
 10
16.72890801938766
 20
47.166099383432524
 30
0.0
 10
16.4892219993876559
 20
47.2326565434325829
 30
0.0
  0
SPLINE
  5
C6
  8
etch
 62
256
370
5
  6
ByLayer
100
AcDbEntity
100
AcDbSpline
 70
8
 71
3
 72
8
 73
4
 74
0
 40
0.0
 40
0.0
 40
0.0
 40
0.0
 40
1.0
 40
1.0
 40
1.0
 40
1.0
 10
16.4892219993876559
 20
47.2326565434325829
 30
0.0
 10
16.2204188193876249
 20
47.3072989434325777
 30
0.0
 10
14.7193026993876579
 20
47.3036607834325622
 30
0.0
 10
14.5772866593876387
 20
47.2280226234325795
 30
0.0
  0
SPLINE
  5
C7
  8
etch
 62
256
370
5
  6
ByLayer
100
AcDbEntity
100
AcDbSpline
 70
8
 71
3
 72
8
 73
4
 74
0
 40
0.0
 40
0.0
 40
0.0
 40
0.0
 40
1.0
 40
1.0
 40
1.0
 40
1.0
 10
14.5772866593876387
 20
47.2280226234325795
 30
0.0
 10
14.4022019193876378
 20
47.1347714634325143
 30
0.0
 10
14.3426805993876361
 20
47.0243369634325319
 30
0.0
 10
14.3409417993876502
 20
46.789511303432576
 30
0.0
  0
SPLINE
  5
C8
  8
etch
 62
256
370
5
  6
ByLayer
100
AcDbEntity
100
AcDbSpline
 70
8
 71
3
 72
8
 73
4
 74
0
 40
0.0
 40
0.0
 40
0.0
 40
0.0
 40
1.0
 40
1.0
 40
1.0
 40
1.0
 10
14.3409417993876502
 20
46.789511303432576
 30
0.0
 10
14.3397179793876752
 20
46.624196423432565
 30
0.0
 10
14.369551719387637
 20
46.5410765634325685
 30
0.0
 10
14.4640175193876583
 20
46.4466113034325474
 30
0.0
  0
SPLINE
  5
C9
  8
etch
 62
256
370
5
  6
ByLayer
100
AcDbEntity
100
AcDbSpline
 70
8
 71
3
 72
8
 73
4
 74
0
 40
0.0
 40
0.0
 40
0.0
 40
0.0
 40
1.0
 40
1.0
 40
1.0
 40
1.0
 10
14.4640175193876583
 20
46.4466113034325474
 30
0.0
 10
14.5863255393876479
 20
46.3243027434325612
 30
0.0
 10
14.6047191993876435
 20
46.321920263432574
 30
0.0
 10
15.4266072993876548
 20
46.3219202634325669
 30
0.0
  0
LINE
  5
CA
100
AcDbEntity
100
AcDbLine
  8
etch
 62
256
370
5
  6
ByLayer
 10
15.4266072993876548
 20
46.3219202634325669
 30
0.0
 11
16.2645065793876675
 21
46.321920263432574
 31
0.0
  0
LINE
  5
CB
100
AcDbEntity
100
AcDbLine
  8
etch
 62
256
370
5
  6
ByLayer
 10
16.2645065793876675
 20
46.321920263432574
 30
0.0
 11
16.2798166593876559
 21
45.1236370434325451
 31
0.0
  0
LINE
  5
CC
100
AcDbEntity
100
AcDbLine
  8
etch
 62
256
370
5
  6
ByLayer
 10
16.2798166593876559
 20
45.1236370434325451
 30
0.0
 11
16.2951263793876535
 21
43.9253540034325312
 31
0.0
  0
LINE
  5
CD
100
AcDbEntity
100
AcDbLine
  8
etch
 62
256
370
5
  6
ByLayer
 10
16.2951263793876535
 20
43.9253540034325312
 30
0.0
 11
16.4376588393876197
 21
43.8028371834325867
 31
0.0
  0
SPLINE
  5
CE
  8
etch
 62
256
370
5
  6
ByLayer
100
AcDbEntity
100
AcDbSpline
 70
8
 71
3
 72
8
 73
4
 74
0
 40
0.0
 40
0.0
 40
0.0
 40
0.0
 40
1.0
 40
1.0
 40
1.0
 40
1.0
 10
16.4376588393876197
 20
43.8028371834325867
 30
0.0
 10
16.5963032793876479
 20
43.6664717034325491
 30
0.0
 10
16.8300665793876441
 20
43.6440987834325398
 30
0.0
 10
17.0317263393876388
 20
43.7459802234325537
 30
0.0
  0
LINE
  5
CF
100
AcDbEntity
100
AcDbLine
  8
etch
 62
256
370
5
  6
ByLayer
 10
17.0317263393876388
 20
43.7459802234325537
 30
0.0
 11
17.0317263393876388
 21
43.7459802234325537
 31
0.0
  0
LINE
  5
D0
100
AcDbEntity
100
AcDbLine
  8
etch
 62
256
370
5
  6
ByLayer
 10
13.7924247393876502
 20
43.8285530634325298
 30
0.0
 11
13.9583262393876648
 21
43.9767859434325743
 31
0.0
  0
LINE
  5
D1
100
AcDbEntity
100
AcDbLine
  8
etch
 62
256
370
5
  6
ByLayer
 10
13.9583262393876648
 20
43.9767859434325743
 30
0.0
 11
13.9583262393876684
 21
46.1387983434325548
 31
0.0
  0
LINE
  5
D2
100
AcDbEntity
100
AcDbLine
  8
etch
 62
256
370
5
  6
ByLayer
 10
13.9583262393876684
 20
46.1387983434325548
 30
0.0
 11
13.9583262393876772
 21
48.3008112834325374
 31
0.0
  0
LINE
  5
D3
100
AcDbEntity
100
AcDbLine
  8
etch
 62
256
370
5
  6
ByLayer
 10
13.9583262393876772
 20
48.3008112834325374
 30
0.0
 11
13.8175696593876456
 21
48.4416656034325257
 31
0.0
  0
LINE
  5
D4
100
AcDbEntity
100
AcDbLine
  8
etch
 62
256
370
5
  6
ByLayer
 10
13.8175696593876456
 20
48.4416656034325257
 30
0.0
 11
13.6768130793876423
 21
48.5825202834325438
 31
0.0
  0
LINE
  5
D5
100
AcDbEntity
100
AcDbLine
  8
etch
 62
256
370
5
  6
ByLayer
 10
13.6768130793876423
 20
48.5825202834325438
 30
0.0
 11
12.4864298793876749
 21
48.5978136234325717
 31
0.0
  0
SPLINE
  5
D6
  8
etch
 62
256
370
5
  6
ByLayer
100
AcDbEntity
100
AcDbSpline
 70
8
 71
3
 72
8
 73
4
 74
0
 40
0.0
 40
0.0
 40
0.0
 40
0.0
 40
1.0
 40
1.0
 40
1.0
 40
1.0
 10
12.4864298793876749
 20
48.5978136234325717
 30
0.0
 10
11.1483462393876511
 20
48.6150048834325617
 30
0.0
 10
10.9767228993876422
 20
48.5889885834325383
 30
0.0
 10
10.6840691793876275
 20
48.3245934234325816
 30
0.0
  0
SPLINE
  5
D7
  8
etch
 62
256
370
5
  6
ByLayer
100
AcDbEntity
100
AcDbSpline
 70
8
 71
3
 72
8
 73
4
 74
0
 40
0.0
 40
0.0
 40
0.0
 40
0.0
 40
1.0
 40
1.0
 40
1.0
 40
1.0
 10
10.6840691793876275
 20
48.3245934234325816
 30
0.0
 10
10.369678659387656
 20
48.0405604434325681
 30
0.0
 10
10.3261263993876433
 20
47.8972572234325398
 30
0.0
 10
10.3261263993876504
 20
47.1468320034325785
 30
0.0
  0
SPLINE
  5
D8
  8
etch
 62
256
370
5
  6
ByLayer
100
AcDbEntity
100
AcDbSpline
 70
8
 71
3
 72
8
 73
4
 74
0
 40
0.0
 40
0.0
 40
0.0
 40
0.0
 40
1.0
 40
1.0
 40
1.0
 40
1.0
 10
10.3261263993876504
 20
47.1468320034325785
 30
0.0
 10
10.326126399387638
 20
46.5441747234325618
 30
0.0
 10
10.3359860793876432
 20
46.4739356634325702
 30
0.0
 10
10.4427127593876605
 20
46.3163093034325613
 30
0.0
  0
LINE
  5
D9
100
AcDbEntity
100
AcDbLine
  8
etch
 62
256
370
5
  6
ByLayer
 10
10.4427127593876605
 20
46.3163093034325613
 30
0.0
 11
10.5592992993876695
 21
46.1441202234325658
 31
0.0
  0
LINE
  5
DA
100
AcDbEntity
100
AcDbLine
  8
etch
 62
256
370
5
  6
ByLayer
 10
10.5592992993876695
 20
46.1441202234325658
 30
0.0
 11
10.439190879387656
 21
45.9663201834326074
 31
0.0
  0
SPLINE
  5
DB
  8
etch
 62
256
370
5
  6
ByLayer
100
AcDbEntity
100
AcDbSpline
 70
8
 71
3
 72
8
 73
4
 74
0
 40
0.0
 40
0.0
 40
0.0
 40
0.0
 40
1.0
 40
1.0
 40
1.0
 40
1.0
 10
10.439190879387656
 20
45.9663201834326074
 30
0.0
 10
10.3247094393876591
 20
45.7968494634325225
 30
0.0
 10
10.3198427793876579
 20
45.7549892034325509
 30
0.0
 10
10.3353044193876595
 20
45.0727492434325399
 30
0.0
  0
SPLINE
  5
DC
  8
etch
 62
256
370
5
  6
ByLayer
100
AcDbEntity
100
AcDbSpline
 70
8
 71
3
 72
8
 73
4
 74
0
 40
0.0
 40
0.0
 40
0.0
 40
0.0
 40
1.0
 40
1.0
 40
1.0
 40
1.0
 10
10.3353044193876595
 20
45.0727492434325399
 30
0.0
 10
10.3510031193876664
 20
44.380065323432575
 30
0.0
 10
10.3562177193876668
 20
44.3502162834325446
 30
0.0
 10
10.4969697993876387
 20
44.1473312634325836
 30
0.0
  0
SPLINE
  5
DD
  8
etch
 62
256
370
5
  6
ByLayer
100
AcDbEntity
100
AcDbSpline
 70
8
 71
3
 72
8
 73
4
 74
0
 40
0.0
 40
0.0
 40
0.0
 40
0.0
 40
1.0
 40
1.0
 40
1.0
 40
1.0
 10
10.4969697993876387
 20
44.1473312634325836
 30
0.0
 10
10.5877117593876715
 20
44.0165324634325401
 30
0.0
 10
10.73953365938765
 20
43.8892870434324607
 30
0.0
 10
10.9006439193876314
 20
43.8090021834325896
 30
0.0
  0
SPLINE
  5
DE
  8
etch
 62
256
370
5
  6
ByLayer
100
AcDbEntity
100
AcDbSpline
 70
8
 71
3
 72
8
 73
4
 74
0
 40
0.0
 40
0.0
 40
0.0
 40
0.0
 40
1.0
 40
1.0
 40
1.0
 40
1.0
 10
10.9006439193876314
 20
43.8090021834325896
 30
0.0
 10
11.1556785393876545
 20
43.6819133634325141
 30
0.0
 10
11.174147439387653
 20
43.6803201834325705
 30
0.0
 10
12.392699199387641
 20
43.6803201834325705
 30
0.0
  0
LINE
  5
DF
100
AcDbEntity
100
AcDbLine
  8
etch
 62
256
370
5
  6
ByLayer
 10
12.392699199387641
 20
43.6803201834325705
 30
0.0
 11
13.6265235993876637
 21
43.6803201834325563
 31
0.0
  0
LINE
  5
E0
100
AcDbEntity
100
AcDbLine
  8
etch
 62
256
370
5
  6
ByLayer
 10
13.6265235993876637
 20
43.6803201834325563
 30
0.0
 11
13.7924247393876502
 21
43.8285530634325298
 31
0.0
  0
LINE
  5
E1
100
AcDbEntity
100
AcDbLine
  8
etch
 62
256
370
5
  6
ByLayer
 10
13.7924247393876502
 20
43.8285530634325298
 30
0.0
 11
13.7924247393876502
 21
43.8285530634325298
 31
0.0
  0
LINE
  5
E2
100
AcDbEntity
100
AcDbLine
  8
etch
 62
256
370
5
  6
ByLayer
 10
11.2913263593876536
 20
45.1535202834325418
 30
0.0
 11
11.2913263593876447
 21
45.6615202434325482
 31
0.0
  0
LINE
  5
E3
100
AcDbEntity
100
AcDbLine
  8
etch
 62
256
370
5
  6
ByLayer
 10
11.2913263593876447
 20
45.6615202434325482
 30
0.0
 11
12.1295262393876406
 21
45.6615202434325482
 31
0.0
  0
LINE
  5
E4
100
AcDbEntity
100
AcDbLine
  8
etch
 62
256
370
5
  6
ByLayer
 10
12.1295262393876406
 20
45.6615202434325482
 30
0.0
 11
12.9677262993876585
 21
45.6615202434325482
 31
0.0
  0
LINE
  5
E5
100
AcDbEntity
100
AcDbLine
  8
etch
 62
256
370
5
  6
ByLayer
 10
12.9677262993876585
 20
45.6615202434325482
 30
0.0
 11
12.9677262993876568
 21
45.1535202834325418
 31
0.0
  0
LINE
  5
E6
100
AcDbEntity
100
AcDbLine
  8
etch
 62
256
370
5
  6
ByLayer
 10
12.9677262993876568
 20
45.1535202834325418
 30
0.0
 11
12.9677262993876514
 21
44.6455201434325417
 31
0.0
  0
LINE
  5
E7
100
AcDbEntity
100
AcDbLine
  8
etch
 62
256
370
5
  6
ByLayer
 10
12.9677262993876514
 20
44.6455201434325417
 30
0.0
 11
12.1295262393876531
 21
44.6455201434325488
 31
0.0
  0
LINE
  5
E8
100
AcDbEntity
100
AcDbLine
  8
etch
 62
256
370
5
  6
ByLayer
 10
12.1295262393876531
 20
44.6455201434325488
 30
0.0
 11
11.2913263593876287
 21
44.6455201434325488
 31
0.0
  0
LINE
  5
E9
100
AcDbEntity
100
AcDbLine
  8
etch
 62
256
370
5
  6
ByLayer
 10
11.2913263593876287
 20
44.6455201434325488
 30
0.0
 11
11.2913263593876536
 21
45.1535202834325418
 31
0.0
  0
LINE
  5
EA
100
AcDbEntity
100
AcDbLine
  8
etch
 62
256
370
5
  6
ByLayer
 10
11.2913263593876536
 20
45.1535202834325418
 30
0.0
 11
11.2913263593876536
 21
45.1535202834325418
 31
0.0
  0
LINE
  5
EB
100
AcDbEntity
100
AcDbLine
  8
etch
 62
256
370
5
  6
ByLayer
 10
11.291326359387643
 20
47.1347201634325401
 30
0.0
 11
11.2913263593876447
 21
47.6427203034325757
 31
0.0
  0
LINE
  5
EC
100
AcDbEntity
100
AcDbLine
  8
etch
 62
256
370
5
  6
ByLayer
 10
11.2913263593876447
 20
47.6427203034325757
 30
0.0
 11
12.1295262393876477
 21
47.6427203034325686
 31
0.0
  0
LINE
  5
ED
100
AcDbEntity
100
AcDbLine
  8
etch
 62
256
370
5
  6
ByLayer
 10
12.1295262393876477
 20
47.6427203034325686
 30
0.0
 11
12.967726299387639
 21
47.6427203034325686
 31
0.0
  0
LINE
  5
EE
100
AcDbEntity
100
AcDbLine
  8
etch
 62
256
370
5
  6
ByLayer
 10
12.967726299387639
 20
47.6427203034325686
 30
0.0
 11
12.9677262993876425
 21
47.134720163432533
 31
0.0
  0
LINE
  5
EF
100
AcDbEntity
100
AcDbLine
  8
etch
 62
256
370
5
  6
ByLayer
 10
12.9677262993876425
 20
47.134720163432533
 30
0.0
 11
12.9677262993876425
 21
46.6267202034325123
 31
0.0
  0
LINE
  5
F0
100
AcDbEntity
100
AcDbLine
  8
etch
 62
256
370
5
  6
ByLayer
 10
12.9677262993876425
 20
46.6267202034325123
 30
0.0
 11
12.1295262393876566
 21
46.6267202034325265
 31
0.0
  0
LINE
  5
F1
100
AcDbEntity
100
AcDbLine
  8
etch
 62
256
370
5
  6
ByLayer
 10
12.1295262393876566
 20
46.6267202034325265
 30
0.0
 11
11.2913263593876465
 21
46.6267202034325834
 31
0.0
  0
LINE
  5
F2
100
AcDbEntity
100
AcDbLine
  8
etch
 62
256
370
5
  6
ByLayer
 10
11.2913263593876465
 20
46.6267202034325834
 30
0.0
 11
11.291326359387643
 21
47.1347201634325401
 31
0.0
  0
LINE
  5
F3
100
AcDbEntity
100
AcDbLine
  8
etch
 62
256
370
5
  6
ByLayer
 10
11.291326359387643
 20
47.1347201634325401
 30
0.0
 11
11.291326359387643
 21
47.1347201634325401
 31
0.0
  0
SPLINE
  5
F4
  8
etch
 62
256
370
5
  6
ByLayer
100
AcDbEntity
100
AcDbSpline
 70
8
 71
3
 72
8
 73
4
 74
0
 40
0.0
 40
0.0
 40
0.0
 40
0.0
 40
1.0
 40
1.0
 40
1.0
 40
1.0
 10
9.2851620993876445
 20
43.7731312434324806
 30
0.0
 10
9.5422411593876504
 20
43.8923564034323803
 30
0.0
 10
9.796808139387652
 20
44.1795338034325624
 30
0.0
 10
9.8658716193876437
 20
44.4282318834326162
 30
0.0
  0
SPLINE
  5
F5
  8
etch
 62
256
370
5
  6
ByLayer
100
AcDbEntity
100
AcDbSpline
 70
8
 71
3
 72
8
 73
4
 74
0
 40
0.0
 40
0.0
 40
0.0
 40
0.0
 40
1.0
 40
1.0
 40
1.0
 40
1.0
 10
9.8658716193876437
 20
44.4282318834326162
 30
0.0
 10
9.935586519387634
 20
44.6792728434325781
 30
0.0
 10
9.9347961393876609
 20
46.2910085034325718
 30
0.0
 10
9.8648344593876338
 20
46.5429658434325617
 30
0.0
  0
SPLINE
  5
F6
  8
etch
 62
256
370
5
  6
ByLayer
100
AcDbEntity
100
AcDbSpline
 70
8
 71
3
 72
8
 73
4
 74
0
 40
0.0
 40
0.0
 40
0.0
 40
0.0
 40
1.0
 40
1.0
 40
1.0
 40
1.0
 10
9.8648344593876338
 20
46.5429658434325617
 30
0.0
 10
9.793575159387645
 20
46.7995977834325458
 30
0.0
 10
9.4457688993876641
 20
47.1444077634325822
 30
0.0
 10
9.1772324793876479
 20
47.2246443834326044
 30
0.0
  0
SPLINE
  5
F7
  8
etch
 62
256
370
5
  6
ByLayer
100
AcDbEntity
100
AcDbSpline
 70
8
 71
3
 72
8
 73
4
 74
0
 40
0.0
 40
0.0
 40
0.0
 40
0.0
 40
1.0
 40
1.0
 40
1.0
 40
1.0
 10
9.1772324793876479
 20
47.2246443834326044
 30
0.0
 10
8.89591587938766
 20
47.3087000634325392
 30
0.0
 10
7.2859368393876451
 20
47.3087000634325463
 30
0.0
 10
7.0046200593876531
 20
47.2246443834325405
 30
0.0
  0
SPLINE
  5
F8
  8
etch
 62
256
370
5
  6
ByLayer
100
AcDbEntity
100
AcDbSpline
 70
8
 71
3
 72
8
 73
4
 74
0
 40
0.0
 40
0.0
 40
0.0
 40
0.0
 40
1.0
 40
1.0
 40
1.0
 40
1.0
 10
7.0046200593876531
 20
47.2246443834325405
 30
0.0
 10
6.7194440793876788
 20
47.1394359834325556
 30
0.0
 10
6.4001687193876666
 20
46.811319743432577
 30
0.0
 10
6.3184598793876496
 20
46.5194844834325565
 30
0.0
  0
SPLINE
  5
F9
  8
etch
 62
256
370
5
  6
ByLayer
100
AcDbEntity
100
AcDbSpline
 70
8
 71
3
 72
8
 73
4
 74
0
 40
0.0
 40
0.0
 40
0.0
 40
0.0
 40
1.0
 40
1.0
 40
1.0
 40
1.0
 10
6.3184598793876496
 20
46.5194844834325565
 30
0.0
 10
6.2735334993876775
 20
46.3590229434325636
 30
0.0
 10
6.2589569193876455
 20
46.0019594634325557
 30
0.0
 10
6.2706709593876244
 20
45.3488737434325913
 30
0.0
  0
SPLINE
  5
FA
  8
etch
 62
256
370
5
  6
ByLayer
100
AcDbEntity
100
AcDbSpline
 70
8
 71
3
 72
8
 73
4
 74
0
 40
0.0
 40
0.0
 40
0.0
 40
0.0
 40
1.0
 40
1.0
 40
1.0
 40
1.0
 10
6.2706709593876244
 20
45.3488737434325913
 30
0.0
 10
6.2873155593876433
 20
44.4208907634325527
 30
0.0
 10
6.2892768393876279
 20
44.4065067834326115
 30
0.0
 10
6.4276601193876646
 20
44.1975689034325256
 30
0.0
  0
SPLINE
  5
FB
  8
etch
 62
256
370
5
  6
ByLayer
100
AcDbEntity
100
AcDbSpline
 70
8
 71
3
 72
8
 73
4
 74
0
 40
0.0
 40
0.0
 40
0.0
 40
0.0
 40
1.0
 40
1.0
 40
1.0
 40
1.0
 10
6.4276601193876646
 20
44.1975689034325256
 30
0.0
 10
6.504733419387664
 20
44.0811992634325378
 30
0.0
 10
6.6630074193876316
 20
43.922927243432369
 30
0.0
 10
6.7793790393876616
 20
43.8458541234320975
 30
0.0
  0
LINE
  5
FC
100
AcDbEntity
100
AcDbLine
  8
etch
 62
256
370
5
  6
ByLayer
 10
6.7793790393876616
 20
43.8458541234320975
 30
0.0
 11
6.9909645393876731
 21
43.7057201634325736
 31
0.0
  0
LINE
  5
FD
100
AcDbEntity
100
AcDbLine
  8
etch
 62
256
370
5
  6
ByLayer
 10
6.9909645393876731
 20
43.7057201634325736
 30
0.0
 11
8.0362457793876452
 21
43.692205943432576
 31
0.0
  0
SPLINE
  5
FE
  8
etch
 62
256
370
5
  6
ByLayer
100
AcDbEntity
100
AcDbSpline
 70
8
 71
3
 72
8
 73
4
 74
0
 40
0.0
 40
0.0
 40
0.0
 40
0.0
 40
1.0
 40
1.0
 40
1.0
 40
1.0
 10
8.0362457793876452
 20
43.692205943432576
 30
0.0
 10
8.9659985193876466
 20
43.6801851834324921
 30
0.0
 10
9.1040327793876656
 20
43.6891290234325282
 30
0.0
 10
9.2851620993876445
 20
43.7731312434324806
 30
0.0
  0
LINE
  5
FF
100
AcDbEntity
100
AcDbLine
  8
etch
 62
256
370
5
  6
ByLayer
 10
9.2851620993876445
 20
43.7731312434324806
 30
0.0
 11
9.2851620993876445
 21
43.7731312434324806
 31
0.0
  0
LINE
  5
100
100
AcDbEntity
100
AcDbLine
  8
etch
 62
256
370
5
  6
ByLayer
 10
7.2273263193876609
 20
45.4849485234325215
 30
0.0
 11
7.2273263193876387
 21
46.3243769034325723
 31
0.0
  0
LINE
  5
101
100
AcDbEntity
100
AcDbLine
  8
etch
 62
256
370
5
  6
ByLayer
 10
7.2273263193876387
 20
46.3243769034325723
 30
0.0
 11
8.0782262793876409
 21
46.3104485034326103
 31
0.0
  0
LINE
  5
102
100
AcDbEntity
100
AcDbLine
  8
etch
 62
256
370
5
  6
ByLayer
 10
8.0782262793876409
 20
46.3104485034326103
 30
0.0
 11
8.9291262393876494
 21
46.2965202834325851
 31
0.0
  0
LINE
  5
103
100
AcDbEntity
100
AcDbLine
  8
etch
 62
256
370
5
  6
ByLayer
 10
8.9291262393876494
 20
46.2965202834325851
 30
0.0
 11
8.9430846993876347
 21
45.4710203034325531
 31
0.0
  0
LINE
  5
104
100
AcDbEntity
100
AcDbLine
  8
etch
 62
256
370
5
  6
ByLayer
 10
8.9430846993876347
 20
45.4710203034325531
 30
0.0
 11
8.9570429793876301
 21
44.6455201434325417
 31
0.0
  0
LINE
  5
105
100
AcDbEntity
100
AcDbLine
  8
etch
 62
256
370
5
  6
ByLayer
 10
8.9570429793876301
 20
44.6455201434325417
 30
0.0
 11
8.0921845593876469
 21
44.6455201434325488
 31
0.0
  0
LINE
  5
106
100
AcDbEntity
100
AcDbLine
  8
etch
 62
256
370
5
  6
ByLayer
 10
8.0921845593876469
 20
44.6455201434325488
 30
0.0
 11
7.2273263193876458
 21
44.6455201434325488
 31
0.0
  0
LINE
  5
107
100
AcDbEntity
100
AcDbLine
  8
etch
 62
256
370
5
  6
ByLayer
 10
7.2273263193876458
 20
44.6455201434325488
 30
0.0
 11
7.2273263193876609
 21
45.4849485234325215
 31
0.0
  0
LINE
  5
108
100
AcDbEntity
100
AcDbLine
  8
etch
 62
256
370
5
  6
ByLayer
 10
7.2273263193876609
 20
45.4849485234325215
 30
0.0
 11
7.2273263193876609
 21
45.4849485234325215
 31
0.0
  0
SPLINE
  5
109
  8
etch
 62
256
370
5
  6
ByLayer
100
AcDbEntity
100
AcDbSpline
 70
8
 71
3
 72
8
 73
4
 74
0
 40
0.0
 40
0.0
 40
0.0
 40
0.0
 40
1.0
 40
1.0
 40
1.0
 40
1.0
 10
5.2715262393876792
 20
43.7403663834324874
 30
0.0
 10
5.5323456993876539
 20
43.8336701034328229
 30
0.0
 10
5.7617421993876459
 20
44.0406593034324914
 30
0.0
 10
5.8744634193876326
 20
44.2844099034324898
 30
0.0
  0
SPLINE
  5
10A
  8
etch
 62
256
370
5
  6
ByLayer
100
AcDbEntity
100
AcDbSpline
 70
8
 71
3
 72
8
 73
4
 74
0
 40
0.0
 40
0.0
 40
0.0
 40
0.0
 40
1.0
 40
1.0
 40
1.0
 40
1.0
 10
5.8744634193876326
 20
44.2844099034324898
 30
0.0
 10
5.9772099393876479
 20
44.5065918234325437
 30
0.0
 10
5.9827263993876452
 20
44.5948766034325672
 30
0.0
 10
5.9827263993876505
 20
46.0171201434325496
 30
0.0
  0
SPLINE
  5
10B
  8
etch
 62
256
370
5
  6
ByLayer
100
AcDbEntity
100
AcDbSpline
 70
8
 71
3
 72
8
 73
4
 74
0
 40
0.0
 40
0.0
 40
0.0
 40
0.0
 40
1.0
 40
1.0
 40
1.0
 40
1.0
 10
5.9827263993876505
 20
46.0171201434325496
 30
0.0
 10
5.9827263993876363
 20
46.8413502234325492
 30
0.0
 10
5.9649812793876524
 20
47.5792411434325544
 30
0.0
 10
5.943292899387667
 20
47.6568782034325764
 30
0.0
  0
SPLINE
  5
10C
  8
etch
 62
256
370
5
  6
ByLayer
100
AcDbEntity
100
AcDbSpline
 70
8
 71
3
 72
8
 73
4
 74
0
 40
0.0
 40
0.0
 40
0.0
 40
0.0
 40
1.0
 40
1.0
 40
1.0
 40
1.0
 10
5.943292899387667
 20
47.6568782034325764
 30
0.0
 10
5.8629291993876489
 20
47.94454898343254
 30
0.0
 10
5.3362740393876642
 20
48.0350654034325402
 30
0.0
 10
5.1217953993876568
 20
47.7980696634325568
 30
0.0
  0
SPLINE
  5
10D
  8
etch
 62
256
370
5
  6
ByLayer
100
AcDbEntity
100
AcDbSpline
 70
8
 71
3
 72
8
 73
4
 74
0
 40
0.0
 40
0.0
 40
0.0
 40
0.0
 40
1.0
 40
1.0
 40
1.0
 40
1.0
 10
5.1217953993876568
 20
47.7980696634325568
 30
0.0
 10
5.0736815793876486
 20
47.7449045034325295
 30
0.0
 10
5.0220820593876505
 20
47.61019358343259
 30
0.0
 10
5.0071290993876669
 20
47.4987118434325382
 30
0.0
  0
LINE
  5
10E
100
AcDbEntity
100
AcDbLine
  8
etch
 62
256
370
5
  6
ByLayer
 10
5.0071290993876669
 20
47.4987118434325382
 30
0.0
 11
4.979941899387657
 21
47.2960178034325764
 31
0.0
  0
LINE
  5
10F
100
AcDbEntity
100
AcDbLine
  8
etch
 62
256
370
5
  6
ByLayer
 10
4.979941899387657
 20
47.2960178034325764
 30
0.0
 11
4.4481426993876472
 21
47.2788692034325635
 31
0.0
  0
SPLINE
  5
110
  8
etch
 62
256
370
5
  6
ByLayer
100
AcDbEntity
100
AcDbSpline
 70
8
 71
3
 72
8
 73
4
 74
0
 40
0.0
 40
0.0
 40
0.0
 40
0.0
 40
1.0
 40
1.0
 40
1.0
 40
1.0
 10
4.4481426993876472
 20
47.2788692034325635
 30
0.0
 10
3.9379992993876507
 20
47.2624186434325892
 30
0.0
 10
3.9113547993876572
 20
47.2559157834325418
 30
0.0
 10
3.7938351393876366
 20
47.1191876034325503
 30
0.0
  0
SPLINE
  5
111
  8
etch
 62
256
370
5
  6
ByLayer
100
AcDbEntity
100
AcDbSpline
 70
8
 71
3
 72
8
 73
4
 74
0
 40
0.0
 40
0.0
 40
0.0
 40
0.0
 40
1.0
 40
1.0
 40
1.0
 40
1.0
 10
3.7938351393876366
 20
47.1191876034325503
 30
0.0
 10
3.7165022793876594
 20
47.0292147834325363
 30
0.0
 10
3.6713262393876538
 20
46.9131783234325823
 30
0.0
 10
3.6713262393876405
 20
46.8045202434325489
 30
0.0
  0
SPLINE
  5
112
  8
etch
 62
256
370
5
  6
ByLayer
100
AcDbEntity
100
AcDbSpline
 70
8
 71
3
 72
8
 73
4
 74
0
 40
0.0
 40
0.0
 40
0.0
 40
0.0
 40
1.0
 40
1.0
 40
1.0
 40
1.0
 10
3.6713262393876405
 20
46.8045202434325489
 30
0.0
 10
3.6713262393876334
 20
46.6958621634325866
 30
0.0
 10
3.7165022793876474
 20
46.5798257034325474
 30
0.0
 10
3.7938351393876575
 20
46.4898528834325617
 30
0.0
  0
SPLINE
  5
113
  8
etch
 62
256
370
5
  6
ByLayer
100
AcDbEntity
100
AcDbSpline
 70
8
 71
3
 72
8
 73
4
 74
0
 40
0.0
 40
0.0
 40
0.0
 40
0.0
 40
1.0
 40
1.0
 40
1.0
 40
1.0
 10
3.7938351393876575
 20
46.4898528834325617
 30
0.0
 10
3.9115265193876527
 20
46.3529245434325716
 30
0.0
 10
3.9374934993876542
 20
46.3466389434325592
 30
0.0
 10
4.4542351593876557
 20
46.3299963234325602
 30
0.0
  0
LINE
  5
114
100
AcDbEntity
100
AcDbLine
  8
etch
 62
256
370
5
  6
ByLayer
 10
4.4542351593876557
 20
46.3299963234325602
 30
0.0
 11
4.9921262793876746
 21
46.3126720434325563
 31
0.0
  0
LINE
  5
115
100
AcDbEntity
100
AcDbLine
  8
etch
 62
256
370
5
  6
ByLayer
 10
4.9921262793876746
 20
46.3126720434325563
 30
0.0
 11
4.9921262793876462
 21
45.4817060034325777
 31
0.0
  0
LINE
  5
116
100
AcDbEntity
100
AcDbLine
  8
etch
 62
256
370
5
  6
ByLayer
 10
4.9921262793876462
 20
45.4817060034325777
 30
0.0
 11
4.9921262793876542
 21
44.6507399634325992
 31
0.0
  0
LINE
  5
117
100
AcDbEntity
100
AcDbLine
  8
etch
 62
256
370
5
  6
ByLayer
 10
4.9921262793876542
 20
44.6507399634325992
 30
0.0
 11
3.8023140393876398
 21
44.6354298834325718
 31
0.0
  0
SPLINE
  5
118
  8
etch
 62
256
370
5
  6
ByLayer
100
AcDbEntity
100
AcDbSpline
 70
8
 71
3
 72
8
 73
4
 74
0
 40
0.0
 40
0.0
 40
0.0
 40
0.0
 40
1.0
 40
1.0
 40
1.0
 40
1.0
 10
3.8023140393876398
 20
44.6354298834325718
 30
0.0
 10
2.6227522593876427
 20
44.6202522834325777
 30
0.0
 10
2.6113740993876564
 20
44.6190590634325801
 30
0.0
 10
2.4815141793876525
 20
44.4969652434325695
 30
0.0
  0
SPLINE
  5
119
  8
etch
 62
256
370
5
  6
ByLayer
100
AcDbEntity
100
AcDbSpline
 70
8
 71
3
 72
8
 73
4
 74
0
 40
0.0
 40
0.0
 40
0.0
 40
0.0
 40
1.0
 40
1.0
 40
1.0
 40
1.0
 10
2.4815141793876525
 20
44.4969652434325695
 30
0.0
 10
2.3166107793876622
 20
44.3419226034325575
 30
0.0
 10
2.2997409993876454
 20
44.0083399434327234
 30
0.0
 10
2.4475649193876392
 20
43.8256478634320885
 30
0.0
  0
SPLINE
  5
11A
  8
etch
 62
256
370
5
  6
ByLayer
100
AcDbEntity
100
AcDbSpline
 70
8
 71
3
 72
8
 73
4
 74
0
 40
0.0
 40
0.0
 40
0.0
 40
0.0
 40
1.0
 40
1.0
 40
1.0
 40
1.0
 10
2.4475649193876392
 20
43.8256478634320885
 30
0.0
 10
2.544514179387658
 20
43.7058310434325605
 30
0.0
 10
2.5457918193876443
 20
43.7057111634323334
 30
0.0
 10
3.8318649993876455
 20
43.6957843434325781
 30
0.0
  0
SPLINE
  5
11B
  8
etch
 62
256
370
5
  6
ByLayer
100
AcDbEntity
100
AcDbSpline
 70
8
 71
3
 72
8
 73
4
 74
0
 40
0.0
 40
0.0
 40
0.0
 40
0.0
 40
1.0
 40
1.0
 40
1.0
 40
1.0
 10
3.8318649993876455
 20
43.6957843434325781
 30
0.0
 10
4.6456809993876522
 20
43.6895023434325793
 30
0.0
 10
5.175177999387631
 20
43.705899623432714
 30
0.0
 10
5.2715262393876792
 20
43.7403663834324874
 30
0.0
  0
LINE
  5
11C
100
AcDbEntity
100
AcDbLine
  8
etch
 62
256
370
5
  6
ByLayer
 10
5.2715262393876792
 20
43.7403663834324874
 30
0.0
 11
5.2715262393876792
 21
43.7403663834324874
 31
0.0
  0
SPLINE
  5
11D
  8
etch
 62
256
370
5
  6
ByLayer
100
AcDbEntity
100
AcDbSpline
 70
8
 71
3
 72
8
 73
4
 74
0
 40
0.0
 40
0.0
 40
0.0
 40
0.0
 40
1.0
 40
1.0
 40
1.0
 40
1.0
 10
0.7146570319999727
 20
43.7819499260000313
 30
0.0
 10
0.7817990299999805
 20
43.8090020720000481
 30
0.0
 10
0.8635235299999996
 20
43.8811934660000347
 30
0.0
 10
0.8962669880000022
 20
43.9423742780000097
 30
0.0
  0
SPLINE
  5
11E
  8
etch
 62
256
370
5
  6
ByLayer
100
AcDbEntity
100
AcDbSpline
 70
8
 71
3
 72
8
 73
4
 74
0
 40
0.0
 40
0.0
 40
0.0
 40
0.0
 40
1.0
 40
1.0
 40
1.0
 40
1.0
 10
0.8962669880000022
 20
43.9423742780000097
 30
0.0
 10
0.9348455060000178
 20
44.0144589499999981
 30
0.0
 10
0.9557998459999929
 20
44.6851966220000278
 30
0.0
 10
0.9557998459999957
 20
45.8479860740000333
 30
0.0
  0
LINE
  5
11F
100
AcDbEntity
100
AcDbLine
  8
etch
 62
256
370
5
  6
ByLayer
 10
0.9557998459999957
 20
45.8479860740000333
 30
0.0
 11
0.9557998459999943
 21
47.6423600839999821
 31
0.0
  0
LINE
  5
120
100
AcDbEntity
100
AcDbLine
  8
etch
 62
256
370
5
  6
ByLayer
 10
0.9557998459999943
 20
47.6423600839999821
 30
0.0
 11
0.8186397019999775
 21
47.7795196339999819
 31
0.0
  0
SPLINE
  5
121
  8
etch
 62
256
370
5
  6
ByLayer
100
AcDbEntity
100
AcDbSpline
 70
8
 71
3
 72
8
 73
4
 74
0
 40
0.0
 40
0.0
 40
0.0
 40
0.0
 40
1.0
 40
1.0
 40
1.0
 40
1.0
 10
0.8186397019999775
 20
47.7795196339999819
 30
0.0
 10
0.6418314439999928
 20
47.9563284860000536
 30
0.0
 10
0.3074147899999927
 20
47.9662225460000329
 30
0.0
 10
0.097195813999998
 20
47.800864232000059
 30
0.0
  0
LINE
  5
122
100
AcDbEntity
100
AcDbLine
  8
etch
 62
256
370
5
  6
ByLayer
 10
0.097195813999998
 20
47.800864232000059
 30
0.0
 11
-0.050040153999987
 21
47.6850484880000636
 31
0.0
  0
LINE
  5
123
100
AcDbEntity
100
AcDbLine
  8
etch
 62
256
370
5
  6
ByLayer
 10
-0.050040153999987
 20
47.6850484880000636
 30
0.0
 11
-0.0500401540000111
 21
45.821180042000023
 31
0.0
  0
LINE
  5
124
100
AcDbEntity
100
AcDbLine
  8
etch
 62
256
370
5
  6
ByLayer
 10
-0.0500401540000111
 20
45.821180042000023
 30
0.0
 11
-0.0500401539999888
 21
43.9573115960000251
 31
0.0
  0
LINE
  5
125
100
AcDbEntity
100
AcDbLine
  8
etch
 62
256
370
5
  6
ByLayer
 10
-0.0500401539999888
 20
43.9573115960000251
 30
0.0
 11
0.0971958139999876
 21
43.8414956540000489
 31
0.0
  0
SPLINE
  5
126
  8
etch
 62
256
370
5
  6
ByLayer
100
AcDbEntity
100
AcDbSpline
 70
8
 71
3
 72
8
 73
4
 74
0
 40
0.0
 40
0.0
 40
0.0
 40
0.0
 40
1.0
 40
1.0
 40
1.0
 40
1.0
 10
0.0971958139999876
 20
43.8414956540000489
 30
0.0
 10
0.2500294399999857
 20
43.7212765880000163
 30
0.0
 10
0.5034199399999769
 20
43.6968408140000051
 30
0.0
 10
0.7146570319999727
 20
43.7819499260000313
 30
0.0
  0
LINE
  5
127
100
AcDbEntity
100
AcDbLine
  8
etch
 62
256
370
5
  6
ByLayer
 10
0.7146570319999727
 20
43.7819499260000313
 30
0.0
 11
0.7146570319999727
 21
43.7819499260000313
 31
0.0
  0
LINE
  5
128
100
AcDbEntity
100
AcDbLine
  8
etch
 62
256
370
5
  6
ByLayer
 10
-1.1371603420000276
 20
43.8628402520000051
 30
0.0
 11
-1.0000000000000082
 21
44.0000000000000213
 31
0.0
  0
LINE
  5
129
100
AcDbEntity
100
AcDbLine
  8
etch
 62
256
370
5
  6
ByLayer
 10
-1.0000000000000082
 20
44.0000000000000213
 30
0.0
 11
-1.0009193140000288
 21
45.6090901640000013
 31
0.0
  0
SPLINE
  5
12A
  8
etch
 62
256
370
5
  6
ByLayer
100
AcDbEntity
100
AcDbSpline
 70
8
 71
3
 72
8
 73
4
 74
0
 40
0.0
 40
0.0
 40
0.0
 40
0.0
 40
1.0
 40
1.0
 40
1.0
 40
1.0
 10
-1.0009193140000288
 20
45.6090901640000013
 30
0.0
 10
-1.0018117000000186
 20
47.1706858699999856
 30
0.0
 10
-1.0055226160000028
 20
47.2246537399999724
 30
0.0
 10
-1.1266493139999991
 20
47.4375078980000211
 30
0.0
  0
SPLINE
  5
12B
  8
etch
 62
256
370
5
  6
ByLayer
100
AcDbEntity
100
AcDbSpline
 70
8
 71
3
 72
8
 73
4
 74
0
 40
0.0
 40
0.0
 40
0.0
 40
0.0
 40
1.0
 40
1.0
 40
1.0
 40
1.0
 10
-1.1266493139999991
 20
47.4375078980000211
 30
0.0
 10
-1.2044583640000088
 20
47.57423957000006
 30
0.0
 10
-1.3442051800000199
 20
47.7057626540000328
 30
0.0
 10
-1.4977389340000118
 20
47.7867579200000065
 30
0.0
  0
SPLINE
  5
12C
  8
etch
 62
256
370
5
  6
ByLayer
100
AcDbEntity
100
AcDbSpline
 70
8
 71
3
 72
8
 73
4
 74
0
 40
0.0
 40
0.0
 40
0.0
 40
0.0
 40
1.0
 40
1.0
 40
1.0
 40
1.0
 10
-1.4977389340000118
 20
47.7867579200000065
 30
0.0
 10
-1.7221960900000242
 20
47.9051680580000294
 30
0.0
 10
-1.8147113920000106
 20
47.9166799759999833
 30
0.0
 10
-2.5418513440000159
 20
47.9166799760000188
 30
0.0
  0
SPLINE
  5
12D
  8
etch
 62
256
370
5
  6
ByLayer
100
AcDbEntity
100
AcDbSpline
 70
8
 71
3
 72
8
 73
4
 74
0
 40
0.0
 40
0.0
 40
0.0
 40
0.0
 40
1.0
 40
1.0
 40
1.0
 40
1.0
 10
-2.5418513440000159
 20
47.9166799760000188
 30
0.0
 10
-3.397686940000002
 20
47.9166799760000188
 30
0.0
 10
-3.5649700120000074
 20
47.8813330160000632
 30
0.0
 10
-3.8148523479999805
 20
47.6476947980000318
 30
0.0
  0
SPLINE
  5
12E
  8
etch
 62
256
370
5
  6
ByLayer
100
AcDbEntity
100
AcDbSpline
 70
8
 71
3
 72
8
 73
4
 74
0
 40
0.0
 40
0.0
 40
0.0
 40
0.0
 40
1.0
 40
1.0
 40
1.0
 40
1.0
 10
-3.8148523479999805
 20
47.6476947980000318
 30
0.0
 10
-4.1153939739999865
 20
47.3666910200000473
 30
0.0
 10
-4.1292803079999976
 20
47.2748869340000439
 30
0.0
 10
-4.1292803080000029
 20
45.5689745720000303
 30
0.0
  0
LINE
  5
12F
100
AcDbEntity
100
AcDbLine
  8
etch
 62
256
370
5
  6
ByLayer
 10
-4.1292803080000029
 20
45.5689745720000303
 30
0.0
 11
-4.1292803080000411
 21
44.0000000000000142
 31
0.0
  0
LINE
  5
130
100
AcDbEntity
100
AcDbLine
  8
etch
 62
256
370
5
  6
ByLayer
 10
-4.1292803080000411
 20
44.0000000000000142
 30
0.0
 11
-3.9921199660000015
 21
43.862840251999998
 31
0.0
  0
SPLINE
  5
131
  8
etch
 62
256
370
5
  6
ByLayer
100
AcDbEntity
100
AcDbSpline
 70
8
 71
3
 72
8
 73
4
 74
0
 40
0.0
 40
0.0
 40
0.0
 40
0.0
 40
1.0
 40
1.0
 40
1.0
 40
1.0
 10
-3.9921199660000015
 20
43.862840251999998
 30
0.0
 10
-3.9056606920000054
 20
43.7763803840000136
 30
0.0
 10
-3.7911151180000364
 20
43.7256799099999967
 30
0.0
 10
-3.6822402640000305
 20
43.7256799099999967
 30
0.0
  0
SPLINE
  5
132
  8
etch
 62
256
370
5
  6
ByLayer
100
AcDbEntity
100
AcDbSpline
 70
8
 71
3
 72
8
 73
4
 74
0
 40
0.0
 40
0.0
 40
0.0
 40
0.0
 40
1.0
 40
1.0
 40
1.0
 40
1.0
 10
-3.6822402640000305
 20
43.7256799099999967
 30
0.0
 10
-3.5733654100000307
 20
43.7256799099999895
 30
0.0
 10
-3.4588196380000213
 20
43.7763803840000136
 30
0.0
 10
-3.3723605620000052
 20
43.8628402520000051
 30
0.0
  0
LINE
  5
133
100
AcDbEntity
100
AcDbLine
  8
etch
 62
256
370
5
  6
ByLayer
 10
-3.3723605620000052
 20
43.8628402520000051
 30
0.0
 11
-3.2352002200000012
 21
43.9999999999999929
 31
0.0
  0
LINE
  5
134
100
AcDbEntity
100
AcDbLine
  8
etch
 62
256
370
5
  6
ByLayer
 10
-3.2352002200000012
 20
43.9999999999999929
 30
0.0
 11
-3.2352002199999932
 21
45.5113001419999961
 31
0.0
  0
LINE
  5
135
100
AcDbEntity
100
AcDbLine
  8
etch
 62
256
370
5
  6
ByLayer
 10
-3.2352002199999932
 20
45.5113001419999961
 30
0.0
 11
-3.2352002200000132
 21
47.0225998879999736
 31
0.0
  0
LINE
  5
136
100
AcDbEntity
100
AcDbLine
  8
etch
 62
256
370
5
  6
ByLayer
 10
-3.2352002200000132
 20
47.0225998879999736
 30
0.0
 11
-2.5646401540000303
 21
47.0225998880000233
 31
0.0
  0
LINE
  5
137
100
AcDbEntity
100
AcDbLine
  8
etch
 62
256
370
5
  6
ByLayer
 10
-2.5646401540000303
 20
47.0225998880000233
 30
0.0
 11
-1.8940800880000255
 21
47.0225998880000304
 31
0.0
  0
LINE
  5
138
100
AcDbEntity
100
AcDbLine
  8
etch
 62
256
370
5
  6
ByLayer
 10
-1.8940800880000255
 20
47.0225998880000304
 30
0.0
 11
-1.8940800880000188
 21
45.5113001420000032
 31
0.0
  0
LINE
  5
139
100
AcDbEntity
100
AcDbLine
  8
etch
 62
256
370
5
  6
ByLayer
 10
-1.8940800880000188
 20
45.5113001420000032
 30
0.0
 11
-1.8940800879999953
 21
44.0000000000000213
 31
0.0
  0
LINE
  5
13A
100
AcDbEntity
100
AcDbLine
  8
etch
 62
256
370
5
  6
ByLayer
 10
-1.8940800879999953
 20
44.0000000000000213
 30
0.0
 11
-1.756919746000007
 21
43.862840251999998
 31
0.0
  0
SPLINE
  5
13B
  8
etch
 62
256
370
5
  6
ByLayer
100
AcDbEntity
100
AcDbSpline
 70
8
 71
3
 72
8
 73
4
 74
0
 40
0.0
 40
0.0
 40
0.0
 40
0.0
 40
1.0
 40
1.0
 40
1.0
 40
1.0
 10
-1.756919746000007
 20
43.862840251999998
 30
0.0
 10
-1.6704606700000202
 20
43.7763803840000136
 30
0.0
 10
-1.5559150960000254
 20
43.7256799100000464
 30
0.0
 10
-1.4470400440000208
 20
43.7256799099999895
 30
0.0
  0
SPLINE
  5
13C
  8
etch
 62
256
370
5
  6
ByLayer
100
AcDbEntity
100
AcDbSpline
 70
8
 71
3
 72
8
 73
4
 74
0
 40
0.0
 40
0.0
 40
0.0
 40
0.0
 40
1.0
 40
1.0
 40
1.0
 40
1.0
 10
-1.4470400440000208
 20
43.7256799099999895
 30
0.0
 10
-1.3381651900000038
 20
43.7256799099999967
 30
0.0
 10
-1.2236196160000177
 20
43.7763803840000136
 30
0.0
 10
-1.1371603420000276
 20
43.8628402520000051
 30
0.0
  0
LINE
  5
13D
100
AcDbEntity
100
AcDbLine
  8
etch
 62
256
370
5
  6
ByLayer
 10
-1.1371603420000276
 20
43.8628402520000051
 30
0.0
 11
-1.1371603420000276
 21
43.8628402520000051
 31
0.0
  0
LINE
  5
13E
100
AcDbEntity
100
AcDbLine
  8
etch
 62
256
370
5
  6
ByLayer
 10
-5.2080860799999815
 20
43.860471973999978
 30
0.0
 11
-5.0513001760000273
 21
43.9952640380000375
 31
0.0
  0
LINE
  5
13F
100
AcDbEntity
100
AcDbLine
  8
etch
 62
256
370
5
  6
ByLayer
 10
-5.0513001760000273
 20
43.9952640380000375
 30
0.0
 11
-5.0343177160000048
 21
45.6626020400000527
 31
0.0
  0
SPLINE
  5
140
  8
etch
 62
256
370
5
  6
ByLayer
100
AcDbEntity
100
AcDbSpline
 70
8
 71
3
 72
8
 73
4
 74
0
 40
0.0
 40
0.0
 40
0.0
 40
0.0
 40
1.0
 40
1.0
 40
1.0
 40
1.0
 10
-5.0343177160000048
 20
45.6626020400000527
 30
0.0
 10
-5.0249774620000229
 20
46.5796380499999643
 30
0.0
 10
-5.0324216680000253
 20
47.4117639380000071
 30
0.0
 10
-5.0508610120000021
 20
47.511770767999991
 30
0.0
  0
SPLINE
  5
141
  8
etch
 62
256
370
5
  6
ByLayer
100
AcDbEntity
100
AcDbSpline
 70
8
 71
3
 72
8
 73
4
 74
0
 40
0.0
 40
0.0
 40
0.0
 40
0.0
 40
1.0
 40
1.0
 40
1.0
 40
1.0
 10
-5.0508610120000021
 20
47.511770767999991
 30
0.0
 10
-5.069300355999963
 20
47.6117774000000225
 30
0.0
 10
-5.1382629639999795
 20
47.7437939000000213
 30
0.0
 10
-5.2041108340000051
 20
47.805140636000047
 30
0.0
  0
SPLINE
  5
142
  8
etch
 62
256
370
5
  6
ByLayer
100
AcDbEntity
100
AcDbSpline
 70
8
 71
3
 72
8
 73
4
 74
0
 40
0.0
 40
0.0
 40
0.0
 40
0.0
 40
1.0
 40
1.0
 40
1.0
 40
1.0
 10
-5.2041108340000051
 20
47.805140636000047
 30
0.0
 10
-5.3149728159999645
 20
47.9084241680000389
 30
0.0
 10
-5.4017690860000149
 20
47.9166799759999904
 30
0.0
 10
-6.3768117699999536
 20
47.9166799760000401
 30
0.0
  0
SPLINE
  5
143
  8
etch
 62
256
370
5
  6
ByLayer
100
AcDbEntity
100
AcDbSpline
 70
8
 71
3
 72
8
 73
4
 74
0
 40
0.0
 40
0.0
 40
0.0
 40
0.0
 40
1.0
 40
1.0
 40
1.0
 40
1.0
 10
-6.3768117699999536
 20
47.9166799760000401
 30
0.0
 10
-7.5422126439999904
 20
47.9166799760000401
 30
0.0
 10
-7.6930524100000257
 20
47.8849647320000287
 30
0.0
 10
-7.9435519120000384
 20
47.5872628220000422
 30
0.0
  0
SPLINE
  5
144
  8
etch
 62
256
370
5
  6
ByLayer
100
AcDbEntity
100
AcDbSpline
 70
8
 71
3
 72
8
 73
4
 74
0
 40
0.0
 40
0.0
 40
0.0
 40
0.0
 40
1.0
 40
1.0
 40
1.0
 40
1.0
 10
-7.9435519120000384
 20
47.5872628220000422
 30
0.0
 10
-8.1735504940000432
 20
47.3139254060000098
 30
0.0
 10
-8.2078971579999855
 20
47.084456870000011
 30
0.0
 10
-8.2078971579999802
 20
45.8211800420000301
 30
0.0
  0
SPLINE
  5
145
  8
etch
 62
256
370
5
  6
ByLayer
100
AcDbEntity
100
AcDbSpline
 70
8
 71
3
 72
8
 73
4
 74
0
 40
0.0
 40
0.0
 40
0.0
 40
0.0
 40
1.0
 40
1.0
 40
1.0
 40
1.0
 10
-8.2078971579999802
 20
45.8211800420000301
 30
0.0
 10
-8.2078971580000033
 20
44.5579030160000116
 30
0.0
 10
-8.1735504940000396
 20
44.3284346779999794
 30
0.0
 10
-7.9435519119999896
 20
44.0550970640000301
 30
0.0
  0
SPLINE
  5
146
  8
etch
 62
256
370
5
  6
ByLayer
100
AcDbEntity
100
AcDbSpline
 70
8
 71
3
 72
8
 73
4
 74
0
 40
0.0
 40
0.0
 40
0.0
 40
0.0
 40
1.0
 40
1.0
 40
1.0
 40
1.0
 10
-7.9435519119999896
 20
44.0550970640000301
 30
0.0
 10
-7.693835895999972
 20
43.7583261499999736
 30
0.0
 10
-7.5405999340000287
 20
43.7256799099999824
 30
0.0
 10
-6.3973309059999881
 20
43.7256799099999895
 30
0.0
  0
SPLINE
  5
147
  8
etch
 62
256
370
5
  6
ByLayer
100
AcDbEntity
100
AcDbSpline
 70
8
 71
3
 72
8
 73
4
 74
0
 40
0.0
 40
0.0
 40
0.0
 40
0.0
 40
1.0
 40
1.0
 40
1.0
 40
1.0
 10
-6.3973309059999881
 20
43.7256799099999895
 30
0.0
 10
-5.3866523800000028
 20
43.7256799099999895
 30
0.0
 10
-5.3615649880000049
 20
43.7285231899999971
 30
0.0
 10
-5.2080860799999815
 20
43.860471973999978
 30
0.0
  0
LINE
  5
148
100
AcDbEntity
100
AcDbLine
  8
etch
 62
256
370
5
  6
ByLayer
 10
-5.2080860799999815
 20
43.860471973999978
 30
0.0
 11
-5.2080860799999815
 21
43.860471973999978
 31
0.0
  0
LINE
  5
149
100
AcDbEntity
100
AcDbLine
  8
etch
 62
256
370
5
  6
ByLayer
 10
-7.2585602199999979
 20
45.8211800420000301
 30
0.0
 11
-7.2585602199999881
 21
47.0225998880000304
 31
0.0
  0
LINE
  5
14A
100
AcDbEntity
100
AcDbLine
  8
etch
 62
256
370
5
  6
ByLayer
 10
-7.2585602199999881
 20
47.0225998880000304
 30
0.0
 11
-6.6159403299999955
 21
47.0225998879999736
 31
0.0
  0
LINE
  5
14B
100
AcDbEntity
100
AcDbLine
  8
etch
 62
256
370
5
  6
ByLayer
 10
-6.6159403299999955
 20
47.0225998879999736
 30
0.0
 11
-5.9733202420000078
 21
47.0225998880000304
 31
0.0
  0
LINE
  5
14C
100
AcDbEntity
100
AcDbLine
  8
etch
 62
256
370
5
  6
ByLayer
 10
-5.9733202420000078
 20
47.0225998880000304
 30
0.0
 11
-5.9733202420000158
 21
45.8211800420000372
 31
0.0
  0
LINE
  5
14D
100
AcDbEntity
100
AcDbLine
  8
etch
 62
256
370
5
  6
ByLayer
 10
-5.9733202420000158
 20
45.8211800420000372
 30
0.0
 11
-5.9733202420000291
 21
44.6197599980000348
 31
0.0
  0
LINE
  5
14E
100
AcDbEntity
100
AcDbLine
  8
etch
 62
256
370
5
  6
ByLayer
 10
-5.9733202420000291
 20
44.6197599980000348
 30
0.0
 11
-6.6159403299999759
 21
44.6197599980000348
 31
0.0
  0
LINE
  5
14F
100
AcDbEntity
100
AcDbLine
  8
etch
 62
256
370
5
  6
ByLayer
 10
-6.6159403299999759
 20
44.6197599980000348
 30
0.0
 11
-7.2585602199999899
 21
44.6197599980000348
 31
0.0
  0
LINE
  5
150
100
AcDbEntity
100
AcDbLine
  8
etch
 62
256
370
5
  6
ByLayer
 10
-7.2585602199999899
 20
44.6197599980000348
 30
0.0
 11
-7.2585602199999979
 21
45.8211800420000301
 31
0.0
  0
LINE
  5
151
100
AcDbEntity
100
AcDbLine
  8
etch
 62
256
370
5
  6
ByLayer
 10
-7.2585602199999979
 20
45.8211800420000301
 30
0.0
 11
-7.2585602199999979
 21
45.8211800420000301
 31
0.0
  0
SPLINE
  5
152
  8
etch
 62
256
370
5
  6
ByLayer
100
AcDbEntity
100
AcDbSpline
 70
8
 71
3
 72
8
 73
4
 74
0
 40
0.0
 40
0.0
 40
0.0
 40
0.0
 40
1.0
 40
1.0
 40
1.0
 40
1.0
 10
-9.6032861200000195
 20
43.8543571399999834
 30
0.0
 10
-9.4369688919999994
 20
43.9423077499999835
 30
0.0
 10
-9.3192279939999842
 20
44.06004864800002
 30
0.0
 10
-9.2312773839999913
 20
44.226365876000024
 30
0.0
  0
SPLINE
  5
153
  8
etch
 62
256
370
5
  6
ByLayer
100
AcDbEntity
100
AcDbSpline
 70
8
 71
3
 72
8
 73
4
 74
0
 40
0.0
 40
0.0
 40
0.0
 40
0.0
 40
1.0
 40
1.0
 40
1.0
 40
1.0
 10
-9.2312773839999913
 20
44.226365876000024
 30
0.0
 10
-9.1056976659999744
 20
44.463840740000002
 30
0.0
 10
-9.1026001539999921
 20
44.5078808900000027
 30
0.0
 10
-9.1026001539999903
 20
46.0560290300000261
 30
0.0
  0
LINE
  5
154
100
AcDbEntity
100
AcDbLine
  8
etch
 62
256
370
5
  6
ByLayer
 10
-9.1026001539999903
 20
46.0560290300000261
 30
0.0
 11
-9.1026001539999832
 21
47.6423600840000034
 31
0.0
  0
LINE
  5
155
100
AcDbEntity
100
AcDbLine
  8
etch
 62
256
370
5
  6
ByLayer
 10
-9.1026001539999832
 20
47.6423600840000034
 30
0.0
 11
-9.2397604960000113
 21
47.779519633999989
 31
0.0
  0
SPLINE
  5
156
  8
etch
 62
256
370
5
  6
ByLayer
100
AcDbEntity
100
AcDbSpline
 70
8
 71
3
 72
8
 73
4
 74
0
 40
0.0
 40
0.0
 40
0.0
 40
0.0
 40
1.0
 40
1.0
 40
1.0
 40
1.0
 10
-9.2397604960000113
 20
47.779519633999989
 30
0.0
 10
-9.3262197699999856
 20
47.8659795020000161
 30
0.0
 10
-9.4407653440000114
 20
47.9166799760000188
 30
0.0
 10
-9.5496401979999739
 20
47.9166799760000401
 30
0.0
  0
SPLINE
  5
157
  8
etch
 62
256
370
5
  6
ByLayer
100
AcDbEntity
100
AcDbSpline
 70
8
 71
3
 72
8
 73
4
 74
0
 40
0.0
 40
0.0
 40
0.0
 40
0.0
 40
1.0
 40
1.0
 40
1.0
 40
1.0
 10
-9.5496401979999739
 20
47.9166799760000401
 30
0.0
 10
-9.6585152500000575
 20
47.9166799760000259
 30
0.0
 10
-9.7730608239999679
 20
47.8659795020000089
 30
0.0
 10
-9.8595199000000271
 20
47.779519633999989
 30
0.0
  0
LINE
  5
158
100
AcDbEntity
100
AcDbLine
  8
etch
 62
256
370
5
  6
ByLayer
 10
-9.8595199000000271
 20
47.779519633999989
 30
0.0
 11
-9.9966802420000072
 21
47.6423600840000034
 31
0.0
  0
LINE
  5
159
100
AcDbEntity
100
AcDbLine
  8
etch
 62
256
370
5
  6
ByLayer
 10
-9.9966802420000072
 20
47.6423600840000034
 30
0.0
 11
-9.9966802419999947
 21
46.1310597439999981
 31
0.0
  0
LINE
  5
15A
100
AcDbEntity
100
AcDbLine
  8
etch
 62
256
370
5
  6
ByLayer
 10
-9.9966802419999947
 20
46.1310597439999981
 30
0.0
 11
-9.9966802420000249
 21
44.6197599980000206
 31
0.0
  0
LINE
  5
15B
100
AcDbEntity
100
AcDbLine
  8
etch
 62
256
370
5
  6
ByLayer
 10
-9.9966802420000249
 20
44.6197599980000206
 30
0.0
 11
-10.6672403080000198
 21
44.6197599980000277
 31
0.0
  0
LINE
  5
15C
100
AcDbEntity
100
AcDbLine
  8
etch
 62
256
370
5
  6
ByLayer
 10
-10.6672403080000198
 20
44.6197599980000277
 30
0.0
 11
-11.337800175999984
 21
44.619759998000049
 31
0.0
  0
LINE
  5
15D
100
AcDbEntity
100
AcDbLine
  8
etch
 62
256
370
5
  6
ByLayer
 10
-11.337800175999984
 20
44.619759998000049
 30
0.0
 11
-11.3378001759999751
 21
46.1310597440000123
 31
0.0
  0
LINE
  5
15E
100
AcDbEntity
100
AcDbLine
  8
etch
 62
256
370
5
  6
ByLayer
 10
-11.3378001759999751
 20
46.1310597440000123
 30
0.0
 11
-11.3378001760000195
 21
47.6423600839999821
 31
0.0
  0
LINE
  5
15F
100
AcDbEntity
100
AcDbLine
  8
etch
 62
256
370
5
  6
ByLayer
 10
-11.3378001760000195
 20
47.6423600839999821
 30
0.0
 11
-11.4749605180000049
 21
47.779519633999989
 31
0.0
  0
SPLINE
  5
160
  8
etch
 62
256
370
5
  6
ByLayer
100
AcDbEntity
100
AcDbSpline
 70
8
 71
3
 72
8
 73
4
 74
0
 40
0.0
 40
0.0
 40
0.0
 40
0.0
 40
1.0
 40
1.0
 40
1.0
 40
1.0
 10
-11.4749605180000049
 20
47.779519633999989
 30
0.0
 10
-11.5614197919999828
 20
47.8659795019999876
 30
0.0
 10
-11.6759653660000264
 20
47.916679976000033
 30
0.0
 10
-11.7848402200000368
 20
47.9166799760000259
 30
0.0
  0
SPLINE
  5
161
  8
etch
 62
256
370
5
  6
ByLayer
100
AcDbEntity
100
AcDbSpline
 70
8
 71
3
 72
8
 73
4
 74
0
 40
0.0
 40
0.0
 40
0.0
 40
0.0
 40
1.0
 40
1.0
 40
1.0
 40
1.0
 10
-11.7848402200000368
 20
47.9166799760000259
 30
0.0
 10
-11.8937150740000188
 20
47.916679976000033
 30
0.0
 10
-12.0082608460000024
 20
47.8659795020000018
 30
0.0
 10
-12.0947199219999817
 20
47.7795196339999961
 30
0.0
  0
LINE
  5
162
100
AcDbEntity
100
AcDbLine
  8
etch
 62
256
370
5
  6
ByLayer
 10
-12.0947199219999817
 20
47.7795196339999961
 30
0.0
 11
-12.2318802640000239
 21
47.642360083999975
 31
0.0
  0
LINE
  5
163
100
AcDbEntity
100
AcDbLine
  8
etch
 62
256
370
5
  6
ByLayer
 10
-12.2318802640000239
 20
47.642360083999975
 30
0.0
 11
-12.231880264000015
 21
46.0590802099999976
 31
0.0
  0
SPLINE
  5
164
  8
etch
 62
256
370
5
  6
ByLayer
100
AcDbEntity
100
AcDbSpline
 70
8
 71
3
 72
8
 73
4
 74
0
 40
0.0
 40
0.0
 40
0.0
 40
0.0
 40
1.0
 40
1.0
 40
1.0
 40
1.0
 10
-12.231880264000015
 20
46.0590802099999976
 30
0.0
 10
-12.2318802639999848
 20
44.5275652580000383
 30
0.0
 10
-12.2277697840000066
 20
44.4677288659999874
 30
0.0
 10
-12.1061502640000231
 20
44.2289151259999969
 30
0.0
  0
SPLINE
  5
165
  8
etch
 62
256
370
5
  6
ByLayer
100
AcDbEntity
100
AcDbSpline
 70
8
 71
3
 72
8
 73
4
 74
0
 40
0.0
 40
0.0
 40
0.0
 40
0.0
 40
1.0
 40
1.0
 40
1.0
 40
1.0
 10
-12.1061502640000231
 20
44.2289151259999969
 30
0.0
 10
-12.0168138519999825
 20
44.0534926699999971
 30
0.0
 10
-11.9091329380000133
 20
43.9449284780000013
 30
0.0
 10
-11.7341415280000092
 20
43.8538546160000067
 30
0.0
  0
SPLINE
  5
166
  8
etch
 62
256
370
5
  6
ByLayer
100
AcDbEntity
100
AcDbSpline
 70
8
 71
3
 72
8
 73
4
 74
0
 40
0.0
 40
0.0
 40
0.0
 40
0.0
 40
1.0
 40
1.0
 40
1.0
 40
1.0
 10
-11.7341415280000092
 20
43.8538546160000067
 30
0.0
 10
-11.5100106760000198
 20
43.7372074700000084
 30
0.0
 10
-11.4140608660000016
 20
43.7256799099999967
 30
0.0
 10
-10.6672403080000127
 20
43.7256799099999824
 30
0.0
  0
SPLINE
  5
167
  8
etch
 62
256
370
5
  6
ByLayer
100
AcDbEntity
100
AcDbSpline
 70
8
 71
3
 72
8
 73
4
 74
0
 40
0.0
 40
0.0
 40
0.0
 40
0.0
 40
1.0
 40
1.0
 40
1.0
 40
1.0
 10
-10.6672403080000127
 20
43.7256799099999824
 30
0.0
 10
-9.9183565899999877
 20
43.7256799099999967
 30
0.0
 10
-9.825346486000031
 20
43.7369286860000273
 30
0.0
 10
-9.6032861200000195
 20
43.8543571399999834
 30
0.0
  0
LINE
  5
168
100
AcDbEntity
100
AcDbLine
  8
etch
 62
256
370
5
  6
ByLayer
 10
-9.6032861200000195
 20
43.8543571399999834
 30
0.0
 11
-9.6032861200000195
 21
43.8543571399999834
 31
0.0
  0
SPLINE
  5
169
  8
etch
 62
256
370
5
  6
ByLayer
100
AcDbEntity
100
AcDbSpline
 70
8
 71
3
 72
8
 73
4
 74
0
 40
0.0
 40
0.0
 40
0.0
 40
0.0
 40
1.0
 40
1.0
 40
1.0
 40
1.0
 10
-13.3347368980000311
 20
43.7955299540000524
 30
0.0
 10
-13.0865670640000005
 20
43.9839823940000016
 30
0.0
 10
-13.1150307519999902
 20
44.4341595500000608
 30
0.0
 10
-13.3828310980000058
 20
44.5561774460000137
 30
0.0
  0
SPLINE
  5
16A
  8
etch
 62
256
370
5
  6
ByLayer
100
AcDbEntity
100
AcDbSpline
 70
8
 71
3
 72
8
 73
4
 74
0
 40
0.0
 40
0.0
 40
0.0
 40
0.0
 40
1.0
 40
1.0
 40
1.0
 40
1.0
 10
-13.3828310980000058
 20
44.5561774460000137
 30
0.0
 10
-13.4690680180000104
 20
44.5954699520000162
 30
0.0
 10
-13.8736089459999636
 20
44.6197599980000561
 30
0.0
 10
-14.4417693519999979
 20
44.6197599980000348
 30
0.0
  0
LINE
  5
16B
100
AcDbEntity
100
AcDbLine
  8
etch
 62
256
370
5
  6
ByLayer
 10
-14.4417693519999979
 20
44.6197599980000348
 30
0.0
 11
-15.3611601760000056
 21
44.6197599980000348
 31
0.0
  0
LINE
  5
16C
100
AcDbEntity
100
AcDbLine
  8
etch
 62
256
370
5
  6
ByLayer
 10
-15.3611601760000056
 20
44.6197599980000348
 30
0.0
 11
-15.361160175999947
 21
44.9829799100000827
 31
0.0
  0
LINE
  5
16D
100
AcDbEntity
100
AcDbLine
  8
etch
 62
256
370
5
  6
ByLayer
 10
-15.361160175999947
 20
44.9829799100000827
 30
0.0
 11
-15.3611601760000056
 21
45.3462000200000404
 31
0.0
  0
LINE
  5
16E
100
AcDbEntity
100
AcDbLine
  8
etch
 62
256
370
5
  6
ByLayer
 10
-15.3611601760000056
 20
45.3462000200000404
 30
0.0
 11
-14.7325101759999821
 21
45.3475333519999992
 31
0.0
  0
SPLINE
  5
16F
  8
etch
 62
256
370
5
  6
ByLayer
100
AcDbEntity
100
AcDbSpline
 70
8
 71
3
 72
8
 73
4
 74
0
 40
0.0
 40
0.0
 40
0.0
 40
0.0
 40
1.0
 40
1.0
 40
1.0
 40
1.0
 10
-14.7325101759999821
 20
45.3475333519999992
 30
0.0
 10
-13.785405687999976
 20
45.3495416660000643
 30
0.0
 10
-13.5065411020000319
 20
45.4460094440000262
 30
0.0
 10
-13.265660242000024
 20
45.854961020000033
 30
0.0
  0
SPLINE
  5
170
  8
etch
 62
256
370
5
  6
ByLayer
100
AcDbEntity
100
AcDbSpline
 70
8
 71
3
 72
8
 73
4
 74
0
 40
0.0
 40
0.0
 40
0.0
 40
0.0
 40
1.0
 40
1.0
 40
1.0
 40
1.0
 10
-13.265660242000024
 20
45.854961020000033
 30
0.0
 10
-13.1728665519999737
 20
46.0125003140000288
 30
0.0
 10
-13.1540325940000162
 20
46.1442730759999904
 30
0.0
 10
-13.154680845999998
 20
46.6314399979999621
 30
0.0
  0
SPLINE
  5
171
  8
etch
 62
256
370
5
  6
ByLayer
100
AcDbEntity
100
AcDbSpline
 70
8
 71
3
 72
8
 73
4
 74
0
 40
0.0
 40
0.0
 40
0.0
 40
0.0
 40
1.0
 40
1.0
 40
1.0
 40
1.0
 10
-13.154680845999998
 20
46.6314399979999621
 30
0.0
 10
-13.1555124459999959
 20
47.2565113460000248
 30
0.0
 10
-13.208530707999989
 20
47.4321120020000535
 30
0.0
 10
-13.4699010039999827
 20
47.6754678620000192
 30
0.0
  0
SPLINE
  5
172
  8
etch
 62
256
370
5
  6
ByLayer
100
AcDbEntity
100
AcDbSpline
 70
8
 71
3
 72
8
 73
4
 74
0
 40
0.0
 40
0.0
 40
0.0
 40
0.0
 40
1.0
 40
1.0
 40
1.0
 40
1.0
 10
-13.4699010039999827
 20
47.6754678620000192
 30
0.0
 10
-13.6980233380000254
 20
47.8878670159999942
 30
0.0
 10
-13.8769058440000119
 20
47.9166799759999762
 30
0.0
 10
-14.9674476700000003
 20
47.9166799760000259
 30
0.0
  0
SPLINE
  5
173
  8
etch
 62
256
370
5
  6
ByLayer
100
AcDbEntity
100
AcDbSpline
 70
8
 71
3
 72
8
 73
4
 74
0
 40
0.0
 40
0.0
 40
0.0
 40
0.0
 40
1.0
 40
1.0
 40
1.0
 40
1.0
 10
-14.9674476700000003
 20
47.9166799760000259
 30
0.0
 10
-15.911936973999957
 20
47.9166799760000401
 30
0.0
 10
-16.0325233299999717
 20
47.9060040140000041
 30
0.0
 10
-16.1484657940000034
 20
47.812119542000012
 30
0.0
  0
SPLINE
  5
174
  8
etch
 62
256
370
5
  6
ByLayer
100
AcDbEntity
100
AcDbSpline
 70
8
 71
3
 72
8
 73
4
 74
0
 40
0.0
 40
0.0
 40
0.0
 40
0.0
 40
1.0
 40
1.0
 40
1.0
 40
1.0
 10
-16.1484657940000034
 20
47.812119542000012
 30
0.0
 10
-16.3396995400000229
 20
47.657267702000027
 30
0.0
 10
-16.3273255299999782
 20
47.3302958480000342
 30
0.0
 10
-16.1236003600000259
 20
47.1550585220000187
 30
0.0
  0
SPLINE
  5
175
  8
etch
 62
256
370
5
  6
ByLayer
100
AcDbEntity
100
AcDbSpline
 70
8
 71
3
 72
8
 73
4
 74
0
 40
0.0
 40
0.0
 40
0.0
 40
0.0
 40
1.0
 40
1.0
 40
1.0
 40
1.0
 10
-16.1236003600000259
 20
47.1550585220000187
 30
0.0
 10
-15.9746897080000121
 20
47.0269709360000405
 30
0.0
 10
-15.9383642319999854
 20
47.0225998879999878
 30
0.0
 10
-15.0227643160000017
 20
47.0225998879999807
 30
0.0
  0
LINE
  5
176
100
AcDbEntity
100
AcDbLine
  8
etch
 62
256
370
5
  6
ByLayer
 10
-15.0227643160000017
 20
47.0225998879999807
 30
0.0
 11
-14.0759201979999862
 21
47.0225998879999736
 31
0.0
  0
LINE
  5
177
100
AcDbEntity
100
AcDbLine
  8
etch
 62
256
370
5
  6
ByLayer
 10
-14.0759201979999862
 20
47.0225998879999736
 30
0.0
 11
-14.0759201979999702
 21
46.6593799760000039
 31
0.0
  0
LINE
  5
178
100
AcDbEntity
100
AcDbLine
  8
etch
 62
256
370
5
  6
ByLayer
 10
-14.0759201979999702
 20
46.6593799760000039
 30
0.0
 11
-14.0759201979999826
 21
46.2961598659999964
 31
0.0
  0
LINE
  5
179
100
AcDbEntity
100
AcDbLine
  8
etch
 62
256
370
5
  6
ByLayer
 10
-14.0759201979999826
 20
46.2961598659999964
 30
0.0
 11
-14.732510176000007
 21
46.2958482139999816
 31
0.0
  0
SPLINE
  5
17A
  8
etch
 62
256
370
5
  6
ByLayer
100
AcDbEntity
100
AcDbSpline
 70
8
 71
3
 72
8
 73
4
 74
0
 40
0.0
 40
0.0
 40
0.0
 40
0.0
 40
1.0
 40
1.0
 40
1.0
 40
1.0
 10
-14.732510176000007
 20
46.2958482139999816
 30
0.0
 10
-15.0936346539999757
 20
46.2956771419999882
 30
0.0
 10
-15.4885040740000264
 20
46.2679389259999851
 30
0.0
 10
-15.6099984580000388
 20
46.2342086360000195
 30
0.0
  0
SPLINE
  5
17B
  8
etch
 62
256
370
5
  6
ByLayer
100
AcDbEntity
100
AcDbSpline
 70
8
 71
3
 72
8
 73
4
 74
0
 40
0.0
 40
0.0
 40
0.0
 40
0.0
 40
1.0
 40
1.0
 40
1.0
 40
1.0
 10
-15.6099984580000388
 20
46.2342086360000195
 30
0.0
 10
-15.8924723860000139
 20
46.155784400000023
 30
0.0
 10
-16.1707447540000295
 20
45.8775120319999843
 30
0.0
 10
-16.2491687920000238
 20
45.5950381040000465
 30
0.0
  0
SPLINE
  5
17C
  8
etch
 62
256
370
5
  6
ByLayer
100
AcDbEntity
100
AcDbSpline
 70
8
 71
3
 72
8
 73
4
 74
0
 40
0.0
 40
0.0
 40
0.0
 40
0.0
 40
1.0
 40
1.0
 40
1.0
 40
1.0
 10
-16.2491687920000238
 20
45.5950381040000465
 30
0.0
 10
-16.3253970099999783
 20
45.3204711080000564
 30
0.0
 10
-16.3288750779999816
 20
44.6579739979999886
 30
0.0
 10
-16.2554748939999776
 20
44.3937612140000368
 30
0.0
  0
SPLINE
  5
17D
  8
etch
 62
256
370
5
  6
ByLayer
100
AcDbEntity
100
AcDbSpline
 70
8
 71
3
 72
8
 73
4
 74
0
 40
0.0
 40
0.0
 40
0.0
 40
0.0
 40
1.0
 40
1.0
 40
1.0
 40
1.0
 10
-16.2554748939999776
 20
44.3937612140000368
 30
0.0
 10
-16.1930563840000019
 20
44.1690787340000242
 30
0.0
 10
-15.9127863940000367
 20
43.8731914940000181
 30
0.0
 10
-15.6788323659999733
 20
43.7849870479999908
 30
0.0
  0
SPLINE
  5
17E
  8
etch
 62
256
370
5
  6
ByLayer
100
AcDbEntity
100
AcDbSpline
 70
8
 71
3
 72
8
 73
4
 74
0
 40
0.0
 40
0.0
 40
0.0
 40
0.0
 40
1.0
 40
1.0
 40
1.0
 40
1.0
 10
-15.6788323659999733
 20
43.7849870479999908
 30
0.0
 10
-15.4463928400000245
 20
43.6973538320000259
 30
0.0
 10
-13.452211683999991
 20
43.7063230339999933
 30
0.0
 10
-13.3347368980000311
 20
43.7955299540000524
 30
0.0
  0
LINE
  5
17F
100
AcDbEntity
100
AcDbLine
  8
etch
 62
256
370
5
  6
ByLayer
 10
-13.3347368980000311
 20
43.7955299540000524
 30
0.0
 11
-13.3347368980000311
 21
43.7955299540000524
 31
0.0
  0
LINE
  5
180
100
AcDbEntity
100
AcDbLine
  8
etch
 62
256
370
5
  6
ByLayer
 10
-18.2364405400000003
 20
43.8628402520000478
 30
0.0
 11
-18.0992801980000131
 21
43.9999999999999929
 31
0.0
  0
LINE
  5
181
100
AcDbEntity
100
AcDbLine
  8
etch
 62
256
370
5
  6
ByLayer
 10
-18.0992801980000131
 20
43.9999999999999929
 30
0.0
 11
-18.0992801980000166
 21
45.5053831099999755
 31
0.0
  0
LINE
  5
182
100
AcDbEntity
100
AcDbLine
  8
etch
 62
256
370
5
  6
ByLayer
 10
-18.0992801980000166
 20
45.5053831099999755
 30
0.0
 11
-18.0992801980000237
 21
47.0107662200000149
 31
0.0
  0
LINE
  5
183
100
AcDbEntity
100
AcDbLine
  8
etch
 62
256
370
5
  6
ByLayer
 10
-18.0992801980000237
 20
47.0107662200000149
 30
0.0
 11
-17.6467662460000128
 21
47.0313160460000574
 31
0.0
  0
SPLINE
  5
184
  8
etch
 62
256
370
5
  6
ByLayer
100
AcDbEntity
100
AcDbSpline
 70
8
 71
3
 72
8
 73
4
 74
0
 40
0.0
 40
0.0
 40
0.0
 40
0.0
 40
1.0
 40
1.0
 40
1.0
 40
1.0
 10
-17.6467662460000128
 20
47.0313160460000574
 30
0.0
 10
-17.2527971319999871
 20
47.049207127999999
 30
0.0
 10
-17.1805011939999872
 20
47.068847341999998
 30
0.0
 10
-17.0879662899999829
 20
47.1831236360000474
 30
0.0
  0
SPLINE
  5
185
  8
etch
 62
256
370
5
  6
ByLayer
100
AcDbEntity
100
AcDbSpline
 70
8
 71
3
 72
8
 73
4
 74
0
 40
0.0
 40
0.0
 40
0.0
 40
0.0
 40
1.0
 40
1.0
 40
1.0
 40
1.0
 10
-17.0879662899999829
 20
47.1831236360000474
 30
0.0
 10
-16.9303757139999824
 20
47.3777396179999926
 30
0.0
 10
-16.9490451340000021
 20
47.6593777879999863
 30
0.0
 10
-17.128916254
 20
47.8008642320000092
 30
0.0
  0
SPLINE
  5
186
  8
etch
 62
256
370
5
  6
ByLayer
100
AcDbEntity
100
AcDbSpline
 70
8
 71
3
 72
8
 73
4
 74
0
 40
0.0
 40
0.0
 40
0.0
 40
0.0
 40
1.0
 40
1.0
 40
1.0
 40
1.0
 10
-17.128916254
 20
47.8008642320000092
 30
0.0
 10
-17.2680245200000471
 20
47.9102867540000119
 30
0.0
 10
-17.3459955340000356
 20
47.9166799759999833
 30
0.0
 10
-18.5414223160000304
 20
47.916679975999962
 30
0.0
  0
SPLINE
  5
187
  8
etch
 62
256
370
5
  6
ByLayer
100
AcDbEntity
100
AcDbSpline
 70
8
 71
3
 72
8
 73
4
 74
0
 40
0.0
 40
0.0
 40
0.0
 40
0.0
 40
1.0
 40
1.0
 40
1.0
 40
1.0
 10
-18.5414223160000304
 20
47.916679975999962
 30
0.0
 10
-19.5667835320000059
 20
47.9166799759999833
 30
0.0
 10
-19.8290305720000219
 20
47.9010342139999636
 30
0.0
 10
-19.9245016179999759
 20
47.8341636740000382
 30
0.0
  0
SPLINE
  5
188
  8
etch
 62
256
370
5
  6
ByLayer
100
AcDbEntity
100
AcDbSpline
 70
8
 71
3
 72
8
 73
4
 74
0
 40
0.0
 40
0.0
 40
0.0
 40
0.0
 40
1.0
 40
1.0
 40
1.0
 40
1.0
 10
-19.9245016179999759
 20
47.8341636740000382
 30
0.0
 10
-20.1736307620000055
 20
47.6596666699999929
 30
0.0
 10
-20.1309502779999789
 20
47.2123288339999974
 30
0.0
 10
-19.8530941059999755
 20
47.0857286240000406
 30
0.0
  0
SPLINE
  5
189
  8
etch
 62
256
370
5
  6
ByLayer
100
AcDbEntity
100
AcDbSpline
 70
8
 71
3
 72
8
 73
4
 74
0
 40
0.0
 40
0.0
 40
0.0
 40
0.0
 40
1.0
 40
1.0
 40
1.0
 40
1.0
 10
-19.8530941059999755
 20
47.0857286240000406
 30
0.0
 10
-19.7768900439999982
 20
47.0510077399999957
 30
0.0
 10
-19.5522758739999851
 20
47.0225998879999878
 30
0.0
 10
-19.3539511540000184
 20
47.0225998879999452
 30
0.0
  0
LINE
  5
18A
100
AcDbEntity
100
AcDbLine
  8
etch
 62
256
370
5
  6
ByLayer
 10
-19.3539511540000184
 20
47.0225998879999452
 30
0.0
 11
-18.9933602859999766
 21
47.0225998879999878
 31
0.0
  0
LINE
  5
18B
100
AcDbEntity
100
AcDbLine
  8
etch
 62
256
370
5
  6
ByLayer
 10
-18.9933602859999766
 20
47.0225998879999878
 30
0.0
 11
-18.9933602860000015
 21
45.5113001420000032
 31
0.0
  0
LINE
  5
18C
100
AcDbEntity
100
AcDbLine
  8
etch
 62
256
370
5
  6
ByLayer
 10
-18.9933602860000015
 20
45.5113001420000032
 30
0.0
 11
-18.9933602860000192
 21
43.9999999999999645
 31
0.0
  0
LINE
  5
18D
100
AcDbEntity
100
AcDbLine
  8
etch
 62
256
370
5
  6
ByLayer
 10
-18.9933602860000192
 20
43.9999999999999645
 30
0.0
 11
-18.8561999440000001
 21
43.8628402520000122
 31
0.0
  0
SPLINE
  5
18E
  8
etch
 62
256
370
5
  6
ByLayer
100
AcDbEntity
100
AcDbSpline
 70
8
 71
3
 72
8
 73
4
 74
0
 40
0.0
 40
0.0
 40
0.0
 40
0.0
 40
1.0
 40
1.0
 40
1.0
 40
1.0
 10
-18.8561999440000001
 20
43.8628402520000122
 30
0.0
 10
-18.7697408680000244
 20
43.7763803839999923
 30
0.0
 10
-18.6551950960000035
 20
43.7256799099999967
 30
0.0
 10
-18.5463202419999753
 20
43.7256799099999824
 30
0.0
  0
SPLINE
  5
18F
  8
etch
 62
256
370
5
  6
ByLayer
100
AcDbEntity
100
AcDbSpline
 70
8
 71
3
 72
8
 73
4
 74
0
 40
0.0
 40
0.0
 40
0.0
 40
0.0
 40
1.0
 40
1.0
 40
1.0
 40
1.0
 10
-18.5463202419999753
 20
43.7256799099999824
 30
0.0
 10
-18.4374453879999862
 20
43.7256799099999967
 30
0.0
 10
-18.3228998139999817
 20
43.7763803840000492
 30
0.0
 10
-18.2364405400000003
 20
43.8628402520000478
 30
0.0
  0
LINE
  5
190
100
AcDbEntity
100
AcDbLine
  8
etch
 62
256
370
5
  6
ByLayer
 10
-18.2364405400000003
 20
43.8628402520000478
 30
0.0
 11
-18.2364405400000003
 21
43.8628402520000478
 31
0.0
  0
LINE
  5
191
100
AcDbEntity
100
AcDbLine
  8
etch
 62
256
370
5
  6
ByLayer
 10
-20.8169963199999835
 20
43.8414956540000134
 30
0.0
 11
-20.6697601540000164
 21
43.9573115960000607
 31
0.0
  0
LINE
  5
192
100
AcDbEntity
100
AcDbLine
  8
etch
 62
256
370
5
  6
ByLayer
 10
-20.6697601540000164
 20
43.9573115960000607
 30
0.0
 11
-20.6697601539999987
 21
45.9369957859999829
 31
0.0
  0
LINE
  5
193
100
AcDbEntity
100
AcDbLine
  8
etch
 62
256
370
5
  6
ByLayer
 10
-20.6697601539999987
 20
45.9369957859999829
 30
0.0
 11
-20.6697601540000058
 21
47.9166799759999904
 31
0.0
  0
LINE
  5
194
100
AcDbEntity
100
AcDbLine
  8
etch
 62
256
370
5
  6
ByLayer
 10
-20.6697601540000058
 20
47.9166799759999904
 30
0.0
 11
-21.8623913739999871
 21
47.9166799759999975
 31
0.0
  0
SPLINE
  5
195
  8
etch
 62
256
370
5
  6
ByLayer
100
AcDbEntity
100
AcDbSpline
 70
8
 71
3
 72
8
 73
4
 74
0
 40
0.0
 40
0.0
 40
0.0
 40
0.0
 40
1.0
 40
1.0
 40
1.0
 40
1.0
 10
-21.8623913739999871
 20
47.9166799759999975
 30
0.0
 10
-22.9995863559999769
 20
47.9166799760000544
 30
0.0
 10
-23.0663327500000079
 20
47.9106985940000101
 30
0.0
 10
-23.2983542980000102
 20
47.7880029439999845
 30
0.0
  0
SPLINE
  5
196
  8
etch
 62
256
370
5
  6
ByLayer
100
AcDbEntity
100
AcDbSpline
 70
8
 71
3
 72
8
 73
4
 74
0
 40
0.0
 40
0.0
 40
0.0
 40
0.0
 40
1.0
 40
1.0
 40
1.0
 40
1.0
 10
-23.2983542980000102
 20
47.7880029439999845
 30
0.0
 10
-23.66240184999997
 20
47.5954895240000369
 30
0.0
 10
-23.7990402639999843
 20
47.2998480020000187
 30
0.0
 10
-23.7990402640000447
 20
46.7046762379999407
 30
0.0
  0
SPLINE
  5
197
  8
etch
 62
256
370
5
  6
ByLayer
100
AcDbEntity
100
AcDbSpline
 70
8
 71
3
 72
8
 73
4
 74
0
 40
0.0
 40
0.0
 40
0.0
 40
0.0
 40
1.0
 40
1.0
 40
1.0
 40
1.0
 10
-23.7990402640000447
 20
46.7046762379999407
 30
0.0
 10
-23.7990402640000447
 20
46.4115293179999782
 30
0.0
 10
-23.7671781039999566
 20
46.1604330440000012
 30
0.0
 10
-23.7137551299999814
 20
46.0325745440000347
 30
0.0
  0
SPLINE
  5
198
  8
etch
 62
256
370
5
  6
ByLayer
100
AcDbEntity
100
AcDbSpline
 70
8
 71
3
 72
8
 73
4
 74
0
 40
0.0
 40
0.0
 40
0.0
 40
0.0
 40
1.0
 40
1.0
 40
1.0
 40
1.0
 10
-23.7137551299999814
 20
46.0325745440000347
 30
0.0
 10
-23.6367461979999689
 20
45.8482656500000161
 30
0.0
 10
-23.6371598199999937
 20
45.8101470860000433
 30
0.0
 10
-23.7180204459999899
 20
45.6397459100000873
 30
0.0
  0
SPLINE
  5
199
  8
etch
 62
256
370
5
  6
ByLayer
100
AcDbEntity
100
AcDbSpline
 70
8
 71
3
 72
8
 73
4
 74
0
 40
0.0
 40
0.0
 40
0.0
 40
0.0
 40
1.0
 40
1.0
 40
1.0
 40
1.0
 10
-23.7180204459999899
 20
45.6397459100000873
 30
0.0
 10
-23.7897752500000159
 20
45.4885335079999891
 30
0.0
 10
-23.8039471000000091
 20
45.3008075299999433
 30
0.0
 10
-23.7893354919999851
 20
44.6950510820000133
 30
0.0
  0
SPLINE
  5
19A
  8
etch
 62
256
370
5
  6
ByLayer
100
AcDbEntity
100
AcDbSpline
 70
8
 71
3
 72
8
 73
4
 74
0
 40
0.0
 40
0.0
 40
0.0
 40
0.0
 40
1.0
 40
1.0
 40
1.0
 40
1.0
 10
-23.7893354919999851
 20
44.6950510820000133
 30
0.0
 10
-23.7720580120000342
 20
43.9787811319999804
 30
0.0
 10
-23.7641704839999726
 20
43.933463684000003
 30
0.0
 10
-23.6391798160000235
 20
43.8323743879999412
 30
0.0
  0
SPLINE
  5
19B
  8
etch
 62
256
370
5
  6
ByLayer
100
AcDbEntity
100
AcDbSpline
 70
8
 71
3
 72
8
 73
4
 74
0
 40
0.0
 40
0.0
 40
0.0
 40
0.0
 40
1.0
 40
1.0
 40
1.0
 40
1.0
 10
-23.6391798160000235
 20
43.8323743879999412
 30
0.0
 10
-23.4554564080000034
 20
43.6837833079999882
 30
0.0
 10
-23.2085797120000343
 20
43.6963804640000433
 30
0.0
 10
-23.0421205179999831
 20
43.8628402520000265
 30
0.0
  0
SPLINE
  5
19C
  8
etch
 62
256
370
5
  6
ByLayer
100
AcDbEntity
100
AcDbSpline
 70
8
 71
3
 72
8
 73
4
 74
0
 40
0.0
 40
0.0
 40
0.0
 40
0.0
 40
1.0
 40
1.0
 40
1.0
 40
1.0
 10
-23.0421205179999831
 20
43.8628402520000265
 30
0.0
 10
-22.911675939999995
 20
43.9932842360000151
 30
0.0
 10
-22.9049601759999817
 20
44.0329572980000208
 30
0.0
 10
-22.9049601759999959
 20
44.673100208000001
 30
0.0
  0
LINE
  5
19D
100
AcDbEntity
100
AcDbLine
  8
etch
 62
256
370
5
  6
ByLayer
 10
-22.9049601759999959
 20
44.673100208000001
 30
0.0
 11
-22.9049601759999852
 21
45.3462000199999906
 31
0.0
  0
LINE
  5
19E
100
AcDbEntity
100
AcDbLine
  8
etch
 62
256
370
5
  6
ByLayer
 10
-22.9049601759999852
 20
45.3462000199999906
 30
0.0
 11
-22.234400307999973
 21
45.3462000200000261
 31
0.0
  0
LINE
  5
19F
100
AcDbEntity
100
AcDbLine
  8
etch
 62
256
370
5
  6
ByLayer
 10
-22.234400307999973
 20
45.3462000200000261
 30
0.0
 11
-21.5638402419999764
 21
45.3462000200000546
 31
0.0
  0
LINE
  5
1A0
100
AcDbEntity
100
AcDbLine
  8
etch
 62
256
370
5
  6
ByLayer
 10
-21.5638402419999764
 20
45.3462000200000546
 30
0.0
 11
-21.5638402420000155
 21
44.6731002079999797
 31
0.0
  0
SPLINE
  5
1A1
  8
etch
 62
256
370
5
  6
ByLayer
100
AcDbEntity
100
AcDbSpline
 70
8
 71
3
 72
8
 73
4
 74
0
 40
0.0
 40
0.0
 40
0.0
 40
0.0
 40
1.0
 40
1.0
 40
1.0
 40
1.0
 10
-21.5638402420000155
 20
44.6731002079999797
 30
0.0
 10
-21.5638402420000297
 20
44.0329572979999853
 30
0.0
 10
-21.5571246759999831
 20
43.9932842359999725
 30
0.0
 10
-21.4266799000000034
 20
43.8628402520000193
 30
0.0
  0
SPLINE
  5
1A2
  8
etch
 62
256
370
5
  6
ByLayer
100
AcDbEntity
100
AcDbSpline
 70
8
 71
3
 72
8
 73
4
 74
0
 40
0.0
 40
0.0
 40
0.0
 40
0.0
 40
1.0
 40
1.0
 40
1.0
 40
1.0
 10
-21.4266799000000034
 20
43.8628402520000193
 30
0.0
 10
-21.2570047900000318
 20
43.6931645479999986
 30
0.0
 10
-21.0162827259999965
 20
43.6847372719999711
 30
0.0
 10
-20.8169963199999835
 20
43.8414956540000134
 30
0.0
  0
LINE
  5
1A3
100
AcDbEntity
100
AcDbLine
  8
etch
 62
256
370
5
  6
ByLayer
 10
-20.8169963199999835
 20
43.8414956540000134
 30
0.0
 11
-20.8169963199999835
 21
43.8414956540000134
 31
0.0
  0
LINE
  5
1A4
100
AcDbEntity
100
AcDbLine
  8
etch
 62
256
370
5
  6
ByLayer
 10
-22.893543496000035
 20
46.6454098880000032
 30
0.0
 11
-22.9100665960000356
 21
47.0225998879999594
 31
0.0
  0
LINE
  5
1A5
100
AcDbEntity
100
AcDbLine
  8
etch
 62
256
370
5
  6
ByLayer
 10
-22.9100665960000356
 20
47.0225998879999594
 30
0.0
 11
-22.2369533200000262
 21
47.0225998879999523
 31
0.0
  0
LINE
  5
1A6
100
AcDbEntity
100
AcDbLine
  8
etch
 62
256
370
5
  6
ByLayer
 10
-22.2369533200000262
 20
47.0225998879999523
 30
0.0
 11
-21.5638402420000297
 21
47.0225998879999523
 31
0.0
  0
LINE
  5
1A7
100
AcDbEntity
100
AcDbLine
  8
etch
 62
256
370
5
  6
ByLayer
 10
-21.5638402420000297
 20
47.0225998879999523
 30
0.0
 11
-21.5638402419999835
 21
46.6296663140000049
 31
0.0
  0
LINE
  5
1A8
100
AcDbEntity
100
AcDbLine
  8
etch
 62
256
370
5
  6
ByLayer
 10
-21.5638402419999835
 20
46.6296663140000049
 30
0.0
 11
-21.5638402420000261
 21
46.2367333339999931
 31
0.0
  0
LINE
  5
1A9
100
AcDbEntity
100
AcDbLine
  8
etch
 62
256
370
5
  6
ByLayer
 10
-21.5638402420000261
 20
46.2367333339999931
 30
0.0
 11
-22.2204302200000292
 21
46.2524763140000061
 31
0.0
  0
LINE
  5
1AA
100
AcDbEntity
100
AcDbLine
  8
etch
 62
256
370
5
  6
ByLayer
 10
-22.2204302200000292
 20
46.2524763140000061
 30
0.0
 11
-22.8770201980000074
 21
46.2682198880000186
 31
0.0
  0
LINE
  5
1AB
100
AcDbEntity
100
AcDbLine
  8
etch
 62
256
370
5
  6
ByLayer
 10
-22.8770201980000074
 20
46.2682198880000186
 30
0.0
 11
-22.893543496000035
 21
46.6454098880000032
 31
0.0
  0
LINE
  5
1AC
100
AcDbEntity
100
AcDbLine
  8
etch
 62
256
370
5
  6
ByLayer
 10
-22.893543496000035
 20
46.6454098880000032
 30
0.0
 11
-22.893543496000035
 21
46.6454098880000032
 31
0.0
  0
SPLINE
  5
1AD
  8
etch
 62
256
370
5
  6
ByLayer
100
AcDbEntity
100
AcDbSpline
 70
8
 71
3
 72
8
 73
4
 74
0
 40
0.0
 40
0.0
 40
0.0
 40
0.0
 40
1.0
 40
1.0
 40
1.0
 40
1.0
 10
-24.9369850719999775
 20
43.791036740000024
 30
0.0
 10
-24.8713399540000211
 20
43.8228228679999674
 30
0.0
 10
-24.7896154540000175
 20
43.9103147120000088
 30
0.0
 10
-24.7553751159999713
 20
43.9854638300000005
 30
0.0
  0
SPLINE
  5
1AE
  8
etch
 62
256
370
5
  6
ByLayer
100
AcDbEntity
100
AcDbSpline
 70
8
 71
3
 72
8
 73
4
 74
0
 40
0.0
 40
0.0
 40
0.0
 40
0.0
 40
1.0
 40
1.0
 40
1.0
 40
1.0
 10
-24.7553751159999713
 20
43.9854638300000005
 30
0.0
 10
-24.6888370180000223
 20
44.1314983339999714
 30
0.0
 10
-24.6651779980000079
 20
47.3875740799999505
 30
0.0
 10
-24.7289258800000127
 20
47.6255479039999727
 30
0.0
  0
SPLINE
  5
1AF
  8
etch
 62
256
370
5
  6
ByLayer
100
AcDbEntity
100
AcDbSpline
 70
8
 71
3
 72
8
 73
4
 74
0
 40
0.0
 40
0.0
 40
0.0
 40
0.0
 40
1.0
 40
1.0
 40
1.0
 40
1.0
 10
-24.7289258800000127
 20
47.6255479039999727
 30
0.0
 10
-24.7930331319999802
 20
47.8648635740000543
 30
0.0
 10
-25.2029564920000162
 20
47.9875144760000154
 30
0.0
 10
-25.4945893060000124
 20
47.8546380620000207
 30
0.0
  0
SPLINE
  5
1B0
  8
etch
 62
256
370
5
  6
ByLayer
100
AcDbEntity
100
AcDbSpline
 70
8
 71
3
 72
8
 73
4
 74
0
 40
0.0
 40
0.0
 40
0.0
 40
0.0
 40
1.0
 40
1.0
 40
1.0
 40
1.0
 10
-25.4945893060000124
 20
47.8546380620000207
 30
0.0
 10
-25.7395347099999867
 20
47.743033382000057
 30
0.0
 10
-25.7548403080000483
 20
47.6213944579999975
 30
0.0
 10
-25.7548403079999915
 20
45.7863120440000415
 30
0.0
  0
LINE
  5
1B1
100
AcDbEntity
100
AcDbLine
  8
etch
 62
256
370
5
  6
ByLayer
 10
-25.7548403079999915
 20
45.7863120440000415
 30
0.0
 11
-25.754840307999995
 21
44.0523628820000113
 31
0.0
  0
LINE
  5
1B2
100
AcDbEntity
100
AcDbLine
  8
etch
 62
256
370
5
  6
ByLayer
 10
-25.754840307999995
 20
44.0523628820000113
 30
0.0
 11
-25.5914986240000211
 21
43.889021593999999
 31
0.0
  0
SPLINE
  5
1B3
  8
etch
 62
256
370
5
  6
ByLayer
100
AcDbEntity
100
AcDbSpline
 70
8
 71
3
 72
8
 73
4
 74
0
 40
0.0
 40
0.0
 40
0.0
 40
0.0
 40
1.0
 40
1.0
 40
1.0
 40
1.0
 10
-25.5914986240000211
 20
43.889021593999999
 30
0.0
 10
-25.4176284879999947
 20
43.715151655999982
 30
0.0
 10
-25.1702035300000198
 20
43.6781104100000164
 30
0.0
 10
-24.9369850719999775
 20
43.791036740000024
 30
0.0
  0
LINE
  5
1B4
100
AcDbEntity
100
AcDbLine
  8
etch
 62
256
370
5
  6
ByLayer
 10
-24.9369850719999775
 20
43.791036740000024
 30
0.0
 11
-24.9369850719999775
 21
43.791036740000024
 31
0.0
  0
SPLINE
  5
1B5
  8
etch
 62
256
370
5
  6
ByLayer
100
AcDbEntity
100
AcDbSpline
 70
8
 71
3
 72
8
 73
4
 74
0
 40
0.0
 40
0.0
 40
0.0
 40
0.0
 40
1.0
 40
1.0
 40
1.0
 40
1.0
 10
-27.1496061639999908
 20
43.8543571400000189
 30
0.0
 10
-26.9832889360000046
 20
43.9423077499999835
 30
0.0
 10
-26.8655480380000178
 20
44.0600486479999915
 30
0.0
 10
-26.7775974280000213
 20
44.2263658759999601
 30
0.0
  0
SPLINE
  5
1B6
  8
etch
 62
256
370
5
  6
ByLayer
100
AcDbEntity
100
AcDbSpline
 70
8
 71
3
 72
8
 73
4
 74
0
 40
0.0
 40
0.0
 40
0.0
 40
0.0
 40
1.0
 40
1.0
 40
1.0
 40
1.0
 10
-26.7775974280000213
 20
44.2263658759999601
 30
0.0
 10
-26.6535589420000001
 20
44.4609265760000056
 30
0.0
 10
-26.6489201979999919
 20
44.5183059860000583
 30
0.0
 10
-26.6489201980000097
 20
45.8181282680000308
 30
0.0
  0
SPLINE
  5
1B7
  8
etch
 62
256
370
5
  6
ByLayer
100
AcDbEntity
100
AcDbSpline
 70
8
 71
3
 72
8
 73
4
 74
0
 40
0.0
 40
0.0
 40
0.0
 40
0.0
 40
1.0
 40
1.0
 40
1.0
 40
1.0
 10
-26.6489201980000097
 20
45.8181282680000308
 30
0.0
 10
-26.6489201979999741
 20
47.1053722040000267
 30
0.0
 10
-26.6546255680000357
 20
47.1778730719999828
 30
0.0
 10
-26.7746501979999714
 20
47.4158894660000385
 30
0.0
  0
SPLINE
  5
1B8
  8
etch
 62
256
370
5
  6
ByLayer
100
AcDbEntity
100
AcDbSpline
 70
8
 71
3
 72
8
 73
4
 74
0
 40
0.0
 40
0.0
 40
0.0
 40
0.0
 40
1.0
 40
1.0
 40
1.0
 40
1.0
 10
-26.7746501979999714
 20
47.4158894660000385
 30
0.0
 10
-26.8664996259999818
 20
47.5980332300000555
 30
0.0
 10
-26.9675669440000156
 20
47.6991005479999828
 30
0.0
 10
-27.149710708000022
 20
47.7909499760000074
 30
0.0
  0
SPLINE
  5
1B9
  8
etch
 62
256
370
5
  6
ByLayer
100
AcDbEntity
100
AcDbSpline
 70
8
 71
3
 72
8
 73
4
 74
0
 40
0.0
 40
0.0
 40
0.0
 40
0.0
 40
1.0
 40
1.0
 40
1.0
 40
1.0
 10
-27.149710708000022
 20
47.7909499760000074
 30
0.0
 10
-27.382568211999974
 20
47.9083734800000229
 30
0.0
 10
-27.4702507300000285
 20
47.9166799759999549
 30
0.0
 10
-28.4768607519999861
 20
47.9166799760000472
 30
0.0
  0
SPLINE
  5
1BA
  8
etch
 62
256
370
5
  6
ByLayer
100
AcDbEntity
100
AcDbSpline
 70
8
 71
3
 72
8
 73
4
 74
0
 40
0.0
 40
0.0
 40
0.0
 40
0.0
 40
1.0
 40
1.0
 40
1.0
 40
1.0
 10
-28.4768607519999861
 20
47.9166799760000472
 30
0.0
 10
-29.4801736779999857
 20
47.9166799759999975
 30
0.0
 10
-29.5624056519999918
 20
47.9089546100000092
 30
0.0
 10
-29.6664401980000072
 20
47.8049198660000059
 30
0.0
  0
SPLINE
  5
1BB
  8
etch
 62
256
370
5
  6
ByLayer
100
AcDbEntity
100
AcDbSpline
 70
8
 71
3
 72
8
 73
4
 74
0
 40
0.0
 40
0.0
 40
0.0
 40
0.0
 40
1.0
 40
1.0
 40
1.0
 40
1.0
 10
-29.6664401980000072
 20
47.8049198660000059
 30
0.0
 10
-29.837328652000032
 20
47.634031610000001
 30
0.0
 10
-29.8188132760000144
 20
47.2861780820000348
 30
0.0
 10
-29.6309643399999594
 20
47.1384156320000471
 30
0.0
  0
SPLINE
  5
1BC
  8
etch
 62
256
370
5
  6
ByLayer
100
AcDbEntity
100
AcDbSpline
 70
8
 71
3
 72
8
 73
4
 74
0
 40
0.0
 40
0.0
 40
0.0
 40
0.0
 40
1.0
 40
1.0
 40
1.0
 40
1.0
 10
-29.6309643399999594
 20
47.1384156320000471
 30
0.0
 10
-29.4948149860000157
 20
47.0313206000000008
 30
0.0
 10
-29.4104719359999933
 20
47.0225998879999878
 30
0.0
 10
-28.5108110199999842
 20
47.0225998879999878
 30
0.0
  0
LINE
  5
1BD
100
AcDbEntity
100
AcDbLine
  8
etch
 62
256
370
5
  6
ByLayer
 10
-28.5108110199999842
 20
47.0225998879999878
 30
0.0
 11
-27.5378938659999868
 21
47.0225998880000162
 31
0.0
  0
LINE
  5
1BE
100
AcDbEntity
100
AcDbLine
  8
etch
 62
256
370
5
  6
ByLayer
 10
-27.5378938659999868
 20
47.0225998880000162
 30
0.0
 11
-27.5544171639999895
 21
46.6454098880000316
 31
0.0
  0
LINE
  5
1BF
100
AcDbEntity
100
AcDbLine
  8
etch
 62
256
370
5
  6
ByLayer
 10
-27.5544171639999895
 20
46.6454098880000316
 30
0.0
 11
-27.5709402639999972
 21
46.2682198880000186
 31
0.0
  0
LINE
  5
1C0
100
AcDbEntity
100
AcDbLine
  8
etch
 62
256
370
5
  6
ByLayer
 10
-27.5709402639999972
 20
46.2682198880000186
 30
0.0
 11
-28.5953837500000247
 21
46.2402799100000408
 31
0.0
  0
SPLINE
  5
1C1
  8
etch
 62
256
370
5
  6
ByLayer
100
AcDbEntity
100
AcDbSpline
 70
8
 71
3
 72
8
 73
4
 74
0
 40
0.0
 40
0.0
 40
0.0
 40
0.0
 40
1.0
 40
1.0
 40
1.0
 40
1.0
 10
-28.5953837500000247
 20
46.2402799100000408
 30
0.0
 10
-29.7449426439999876
 20
46.2089279960000283
 30
0.0
 10
-29.7782003080000237
 20
46.196301338000012
 30
0.0
 10
-29.7782003080000308
 20
45.7912204639999487
 30
0.0
  0
SPLINE
  5
1C2
  8
etch
 62
256
370
5
  6
ByLayer
100
AcDbEntity
100
AcDbSpline
 70
8
 71
3
 72
8
 73
4
 74
0
 40
0.0
 40
0.0
 40
0.0
 40
0.0
 40
1.0
 40
1.0
 40
1.0
 40
1.0
 10
-29.7782003080000308
 20
45.7912204639999487
 30
0.0
 10
-29.7782003080000415
 20
45.4299567920000129
 30
0.0
 10
-29.7086704299999838
 20
45.4067614879999581
 30
0.0
 10
-28.5738550119999957
 20
45.3894444080000312
 30
0.0
  0
LINE
  5
1C3
100
AcDbEntity
100
AcDbLine
  8
etch
 62
256
370
5
  6
ByLayer
 10
-28.5738550119999957
 20
45.3894444080000312
 30
0.0
 11
-27.570940264000015
 21
45.374139998000004
 31
0.0
  0
LINE
  5
1C4
100
AcDbEntity
100
AcDbLine
  8
etch
 62
256
370
5
  6
ByLayer
 10
-27.570940264000015
 20
45.374139998000004
 30
0.0
 11
-27.5544171639999895
 21
44.9969499980000336
 31
0.0
  0
LINE
  5
1C5
100
AcDbEntity
100
AcDbLine
  8
etch
 62
256
370
5
  6
ByLayer
 10
-27.5544171639999895
 20
44.9969499980000336
 30
0.0
 11
-27.5378938659999761
 21
44.619759998000049
 31
0.0
  0
LINE
  5
1C6
100
AcDbEntity
100
AcDbLine
  8
etch
 62
256
370
5
  6
ByLayer
 10
-27.5378938659999761
 20
44.619759998000049
 30
0.0
 11
-28.5108110199999913
 21
44.619759998000049
 31
0.0
  0
SPLINE
  5
1C7
  8
etch
 62
256
370
5
  6
ByLayer
100
AcDbEntity
100
AcDbSpline
 70
8
 71
3
 72
8
 73
4
 74
0
 40
0.0
 40
0.0
 40
0.0
 40
0.0
 40
1.0
 40
1.0
 40
1.0
 40
1.0
 10
-28.5108110199999913
 20
44.619759998000049
 30
0.0
 10
-29.4104719360000288
 20
44.6197599980000064
 30
0.0
 10
-29.494814985999998
 20
44.6110392859999507
 30
0.0
 10
-29.630964340000002
 20
44.5039442540000323
 30
0.0
  0
SPLINE
  5
1C8
  8
etch
 62
256
370
5
  6
ByLayer
100
AcDbEntity
100
AcDbSpline
 70
8
 71
3
 72
8
 73
4
 74
0
 40
0.0
 40
0.0
 40
0.0
 40
0.0
 40
1.0
 40
1.0
 40
1.0
 40
1.0
 10
-29.630964340000002
 20
44.5039442540000323
 30
0.0
 10
-29.8389625479999872
 20
44.3403330919999945
 30
0.0
 10
-29.838962548000012
 20
44.005106815999973
 30
0.0
 10
-29.6309643399999736
 20
43.8414956540000276
 30
0.0
  0
SPLINE
  5
1C9
  8
etch
 62
256
370
5
  6
ByLayer
100
AcDbEntity
100
AcDbSpline
 70
8
 71
3
 72
8
 73
4
 74
0
 40
0.0
 40
0.0
 40
0.0
 40
0.0
 40
1.0
 40
1.0
 40
1.0
 40
1.0
 10
-29.6309643399999736
 20
43.8414956540000276
 30
0.0
 10
-29.4939269560000312
 20
43.7337020779999719
 30
0.0
 10
-29.411317792000041
 20
43.725679909999954
 30
0.0
 10
-28.438333713999981
 20
43.7256799100000109
 30
0.0
  0
SPLINE
  5
1CA
  8
etch
 62
256
370
5
  6
ByLayer
100
AcDbEntity
100
AcDbSpline
 70
8
 71
3
 72
8
 73
4
 74
0
 40
0.0
 40
0.0
 40
0.0
 40
0.0
 40
1.0
 40
1.0
 40
1.0
 40
1.0
 10
-28.438333713999981
 20
43.7256799100000109
 30
0.0
 10
-27.4548267279999934
 20
43.7256799100000251
 30
0.0
 10
-27.3785331700000185
 20
43.7332975639999759
 30
0.0
 10
-27.1496061639999908
 20
43.8543571400000189
 30
0.0
  0
LINE
  5
1CB
100
AcDbEntity
100
AcDbLine
  8
etch
 62
256
370
5
  6
ByLayer
 10
-27.1496061639999908
 20
43.8543571400000189
 30
0.0
 11
-27.1496061639999908
 21
43.8543571400000189
 31
0.0
  0
SPLINE
  5
1CC
  8
etch
 62
256
370
5
  6
ByLayer
100
AcDbEntity
100
AcDbSpline
 70
8
 71
3
 72
8
 73
4
 74
0
 40
0.0
 40
0.0
 40
0.0
 40
0.0
 40
1.0
 40
1.0
 40
1.0
 40
1.0
 10
-30.8753963199999966
 20
43.8414956539999991
 30
0.0
 10
-30.7618278759999768
 20
43.9308288980000583
 30
0.0
 10
-30.7281601539999762
 20
44.0065674620000209
 30
0.0
 10
-30.7281601539999727
 20
44.1727199540000015
 30
0.0
  0
SPLINE
  5
1CD
  8
etch
 62
256
370
5
  6
ByLayer
100
AcDbEntity
100
AcDbSpline
 70
8
 71
3
 72
8
 73
4
 74
0
 40
0.0
 40
0.0
 40
0.0
 40
0.0
 40
1.0
 40
1.0
 40
1.0
 40
1.0
 10
-30.7281601539999727
 20
44.1727199540000015
 30
0.0
 10
-30.7281601540000295
 20
44.3388724460000105
 30
0.0
 10
-30.7618278759999946
 20
44.4146110100000797
 30
0.0
 10
-30.8753963199999717
 20
44.5039442540000749
 30
0.0
  0
SPLINE
  5
1CE
  8
etch
 62
256
370
5
  6
ByLayer
100
AcDbEntity
100
AcDbSpline
 70
8
 71
3
 72
8
 73
4
 74
0
 40
0.0
 40
0.0
 40
0.0
 40
0.0
 40
1.0
 40
1.0
 40
1.0
 40
1.0
 10
-30.8753963199999717
 20
44.5039442540000749
 30
0.0
 10
-31.0115120140000045
 20
44.6110131499999341
 30
0.0
 10
-31.0959182260000127
 20
44.6197599980000348
 30
0.0
 10
-31.9929962319999994
 20
44.6197599980000348
 30
0.0
  0
LINE
  5
1CF
100
AcDbEntity
100
AcDbLine
  8
etch
 62
256
370
5
  6
ByLayer
 10
-31.9929962319999994
 20
44.6197599980000348
 30
0.0
 11
-32.9633601760000161
 21
44.6197599979999922
 31
0.0
  0
LINE
  5
1D0
100
AcDbEntity
100
AcDbLine
  8
etch
 62
256
370
5
  6
ByLayer
 10
-32.9633601760000161
 20
44.6197599979999922
 30
0.0
 11
-32.9633601759999806
 21
44.9767660760000609
 31
0.0
  0
LINE
  5
1D1
100
AcDbEntity
100
AcDbLine
  8
etch
 62
256
370
5
  6
ByLayer
 10
-32.9633601759999806
 20
44.9767660760000609
 30
0.0
 11
-32.963360176000009
 21
45.3337717580000259
 31
0.0
  0
LINE
  5
1D2
100
AcDbEntity
100
AcDbLine
  8
etch
 62
256
370
5
  6
ByLayer
 10
-32.963360176000009
 20
45.3337717580000259
 30
0.0
 11
-32.1670703079999925
 21
45.3544736479999671
 31
0.0
  0
SPLINE
  5
1D3
  8
etch
 62
256
370
5
  6
ByLayer
100
AcDbEntity
100
AcDbSpline
 70
8
 71
3
 72
8
 73
4
 74
0
 40
0.0
 40
0.0
 40
0.0
 40
0.0
 40
1.0
 40
1.0
 40
1.0
 40
1.0
 10
-32.1670703079999925
 20
45.3544736479999671
 30
0.0
 10
-31.2949325799999798
 20
45.3771474200000284
 30
0.0
 10
-31.1138227719999882
 20
45.4332928940000329
 30
0.0
 10
-30.8737014399999836
 20
45.7554276080000335
 30
0.0
  0
SPLINE
  5
1D4
  8
etch
 62
256
370
5
  6
ByLayer
100
AcDbEntity
100
AcDbSpline
 70
8
 71
3
 72
8
 73
4
 74
0
 40
0.0
 40
0.0
 40
0.0
 40
0.0
 40
1.0
 40
1.0
 40
1.0
 40
1.0
 10
-30.8737014399999836
 20
45.7554276080000335
 30
0.0
 10
-30.7684357300000251
 20
45.8966465540000428
 30
0.0
 10
-30.7561003300000024
 20
45.9885343940000197
 30
0.0
 10
-30.7561003300000415
 20
46.6314399979999337
 30
0.0
  0
SPLINE
  5
1D5
  8
etch
 62
256
370
5
  6
ByLayer
100
AcDbEntity
100
AcDbSpline
 70
8
 71
3
 72
8
 73
4
 74
0
 40
0.0
 40
0.0
 40
0.0
 40
0.0
 40
1.0
 40
1.0
 40
1.0
 40
1.0
 10
-30.7561003300000415
 20
46.6314399979999337
 30
0.0
 10
-30.7561003300000131
 20
47.4145220780000045
 30
0.0
 10
-30.788297704000005
 20
47.5101434060000543
 30
0.0
 10
-31.1406614739999945
 20
47.773527164000015
 30
0.0
  0
SPLINE
  5
1D6
  8
etch
 62
256
370
5
  6
ByLayer
100
AcDbEntity
100
AcDbSpline
 70
8
 71
3
 72
8
 73
4
 74
0
 40
0.0
 40
0.0
 40
0.0
 40
0.0
 40
1.0
 40
1.0
 40
1.0
 40
1.0
 10
-31.1406614739999945
 20
47.773527164000015
 30
0.0
 10
-31.2822439480000192
 20
47.879357173999999
 30
0.0
 10
-31.3858840780000392
 20
47.8901463920000197
 30
0.0
 10
-32.4132490540000404
 20
47.9060107459999927
 30
0.0
  0
SPLINE
  5
1D7
  8
etch
 62
256
370
5
  6
ByLayer
100
AcDbEntity
100
AcDbSpline
 70
8
 71
3
 72
8
 73
4
 74
0
 40
0.0
 40
0.0
 40
0.0
 40
0.0
 40
1.0
 40
1.0
 40
1.0
 40
1.0
 10
-32.4132490540000404
 20
47.9060107459999927
 30
0.0
 10
-33.3349566760000329
 20
47.9202439760000516
 30
0.0
 10
-33.5542292020000303
 20
47.9085209899999711
 30
0.0
 10
-33.6597675579999844
 20
47.8393694900000952
 30
0.0
  0
SPLINE
  5
1D8
  8
etch
 62
256
370
5
  6
ByLayer
100
AcDbEntity
100
AcDbSpline
 70
8
 71
3
 72
8
 73
4
 74
0
 40
0.0
 40
0.0
 40
0.0
 40
0.0
 40
1.0
 40
1.0
 40
1.0
 40
1.0
 10
-33.6597675579999844
 20
47.8393694900000952
 30
0.0
 10
-33.9196435479999892
 20
47.6690924600000301
 30
0.0
 10
-33.8833780660000201
 20
47.2150384639999743
 30
0.0
 10
-33.5995741720000254
 20
47.0857286240000406
 30
0.0
  0
SPLINE
  5
1D9
  8
etch
 62
256
370
5
  6
ByLayer
100
AcDbEntity
100
AcDbSpline
 70
8
 71
3
 72
8
 73
4
 74
0
 40
0.0
 40
0.0
 40
0.0
 40
0.0
 40
1.0
 40
1.0
 40
1.0
 40
1.0
 10
-33.5995741720000254
 20
47.0857286240000406
 30
0.0
 10
-33.5145353499999601
 20
47.0469825980000138
 30
0.0
 10
-33.1059219579999819
 20
47.0225998880000304
 30
0.0
 10
-32.541631066000015
 20
47.0225998880000304
 30
0.0
  0
LINE
  5
1DA
100
AcDbEntity
100
AcDbLine
  8
etch
 62
256
370
5
  6
ByLayer
 10
-32.541631066000015
 20
47.0225998880000304
 30
0.0
 11
-31.6222402420000392
 21
47.0225998879999452
 31
0.0
  0
LINE
  5
1DB
100
AcDbEntity
100
AcDbLine
  8
etch
 62
256
370
5
  6
ByLayer
 10
-31.6222402420000392
 20
47.0225998879999452
 30
0.0
 11
-31.6222402419999788
 21
46.659379976000011
 31
0.0
  0
LINE
  5
1DC
100
AcDbEntity
100
AcDbLine
  8
etch
 62
256
370
5
  6
ByLayer
 10
-31.6222402419999788
 20
46.659379976000011
 30
0.0
 11
-31.6222402419999788
 21
46.2961598660000462
 31
0.0
  0
LINE
  5
1DD
100
AcDbEntity
100
AcDbLine
  8
etch
 62
256
370
5
  6
ByLayer
 10
-31.6222402419999788
 20
46.2961598660000462
 30
0.0
 11
-32.306770198000045
 21
46.2937074379999842
 31
0.0
  0
SPLINE
  5
1DE
  8
etch
 62
256
370
5
  6
ByLayer
100
AcDbEntity
100
AcDbSpline
 70
8
 71
3
 72
8
 73
4
 74
0
 40
0.0
 40
0.0
 40
0.0
 40
0.0
 40
1.0
 40
1.0
 40
1.0
 40
1.0
 10
-32.306770198000045
 20
46.2937074379999842
 30
0.0
 10
-33.2595919359999641
 20
46.2902931260000443
 30
0.0
 10
-33.5371170519999993
 20
46.1781201859999797
 30
0.0
 10
-33.752345032000008
 20
45.7094199320000385
 30
0.0
  0
SPLINE
  5
1DF
  8
etch
 62
256
370
5
  6
ByLayer
100
AcDbEntity
100
AcDbSpline
 70
8
 71
3
 72
8
 73
4
 74
0
 40
0.0
 40
0.0
 40
0.0
 40
0.0
 40
1.0
 40
1.0
 40
1.0
 40
1.0
 10
-33.752345032000008
 20
45.7094199320000385
 30
0.0
 10
-33.8800682979999976
 20
45.4312772540000225
 30
0.0
 10
-33.8970329380000308
 20
44.596944655999998
 30
0.0
 10
-33.7805024140000043
 20
44.3245950620000002
 30
0.0
  0
SPLINE
  5
1E0
  8
etch
 62
256
370
5
  6
ByLayer
100
AcDbEntity
100
AcDbSpline
 70
8
 71
3
 72
8
 73
4
 74
0
 40
0.0
 40
0.0
 40
0.0
 40
0.0
 40
1.0
 40
1.0
 40
1.0
 40
1.0
 10
-33.7805024140000043
 20
44.3245950620000002
 30
0.0
 10
-33.6874594419999767
 20
44.1071391860000404
 30
0.0
 10
-33.4392230799999695
 20
43.8659963719999979
 30
0.0
 10
-33.2251524099999713
 20
43.7851149560000437
 30
0.0
  0
SPLINE
  5
1E1
  8
etch
 62
256
370
5
  6
ByLayer
100
AcDbEntity
100
AcDbSpline
 70
8
 71
3
 72
8
 73
4
 74
0
 40
0.0
 40
0.0
 40
0.0
 40
0.0
 40
1.0
 40
1.0
 40
1.0
 40
1.0
 10
-33.2251524099999713
 20
43.7851149560000437
 30
0.0
 10
-33.1349061879999809
 20
43.7510175740000449
 30
0.0
 10
-32.6319002560000229
 20
43.7256799099999469
 30
0.0
 10
-32.0452385320000204
 20
43.7256799099999824
 30
0.0
  0
SPLINE
  5
1E2
  8
etch
 62
256
370
5
  6
ByLayer
100
AcDbEntity
100
AcDbSpline
 70
8
 71
3
 72
8
 73
4
 74
0
 40
0.0
 40
0.0
 40
0.0
 40
0.0
 40
1.0
 40
1.0
 40
1.0
 40
1.0
 10
-32.0452385320000204
 20
43.7256799099999824
 30
0.0
 10
-31.0953085840000085
 20
43.7256799099999967
 30
0.0
 10
-31.0121681860000251
 20
43.7339111659999276
 30
0.0
 10
-30.8753963199999966
 20
43.8414956539999991
 30
0.0
  0
LINE
  5
1E3
100
AcDbEntity
100
AcDbLine
  8
etch
 62
256
370
5
  6
ByLayer
 10
-30.8753963199999966
 20
43.8414956539999991
 30
0.0
 11
-30.8753963199999966
 21
43.8414956539999991
 31
0.0
  0
LINE
  5
1E4
100
AcDbEntity
100
AcDbLine
  8
etch
 62
256
370
-1
  6
ByLayer
 10
24.0000000000000249
 20
-44.9333333333333371
 30
0.0
 11
23.3333333333333286
 21
-47.6000000000000085
 31
0.0
  0
LINE
  5
1E5
100
AcDbEntity
100
AcDbLine
  8
etch
 62
256
370
-1
  6
ByLayer
 10
23.3333333333333286
 20
-47.6000000000000085
 30
0.0
 11
22.6666666666666501
 21
-45.8222222222222229
 31
0.0
  0
LINE
  5
1E6
100
AcDbEntity
100
AcDbLine
  8
etch
 62
256
370
-1
  6
ByLayer
 10
22.6666666666666501
 20
-45.8222222222222229
 30
0.0
 11
22.0000000000000178
 21
-47.6000000000000085
 31
0.0
  0
LINE
  5
1E7
100
AcDbEntity
100
AcDbLine
  8
etch
 62
256
370
-1
  6
ByLayer
 10
22.0000000000000178
 20
-47.6000000000000085
 30
0.0
 11
21.3333333333333357
 21
-44.9333333333333371
 31
0.0
  0
LINE
  5
1E8
100
AcDbEntity
100
AcDbLine
  8
etch
 62
256
370
-1
  6
ByLayer
 10
20.0000000000000036
 20
-44.9333333333333087
 30
0.0
 11
19.3333333333333499
 21
-47.5999999999999659
 31
0.0
  0
LINE
  5
1E9
100
AcDbEntity
100
AcDbLine
  8
etch
 62
256
370
-1
  6
ByLayer
 10
19.3333333333333499
 20
-47.5999999999999659
 30
0.0
 11
18.6666666666666501
 21
-45.8222222222221944
 31
0.0
  0
LINE
  5
1EA
100
AcDbEntity
100
AcDbLine
  8
etch
 62
256
370
-1
  6
ByLayer
 10
18.6666666666666501
 20
-45.8222222222221944
 30
0.0
 11
18.0000000000000071
 21
-47.5999999999999659
 31
0.0
  0
LINE
  5
1EB
100
AcDbEntity
100
AcDbLine
  8
etch
 62
256
370
-1
  6
ByLayer
 10
18.0000000000000071
 20
-47.5999999999999659
 30
0.0
 11
17.3333333333333286
 21
-44.9333333333333087
 31
0.0
  0
LINE
  5
1EC
100
AcDbEntity
100
AcDbLine
  8
etch
 62
256
370
-1
  6
ByLayer
 10
16.0000000000000142
 20
-44.9333333333333087
 30
0.0
 11
15.3333333333333286
 21
-47.5999999999999801
 31
0.0
  0
LINE
  5
1ED
100
AcDbEntity
100
AcDbLine
  8
etch
 62
256
370
-1
  6
ByLayer
 10
15.3333333333333286
 20
-47.5999999999999801
 30
0.0
 11
14.666666666666659
 21
-45.8222222222222086
 31
0.0
  0
LINE
  5
1EE
100
AcDbEntity
100
AcDbLine
  8
etch
 62
256
370
-1
  6
ByLayer
 10
14.666666666666659
 20
-45.8222222222222086
 30
0.0
 11
14.0000000000000178
 21
-47.5999999999999659
 31
0.0
  0
LINE
  5
1EF
100
AcDbEntity
100
AcDbLine
  8
etch
 62
256
370
-1
  6
ByLayer
 10
14.0000000000000178
 20
-47.5999999999999659
 30
0.0
 11
13.3333333333333215
 21
-44.9333333333333087
 31
0.0
  0
LINE
  5
1F0
100
AcDbEntity
100
AcDbLine
  8
etch
 62
256
370
-1
  6
ByLayer
 10
12.0000000000000195
 20
-47.5999999999999801
 30
0.0
 11
12.0000000000000089
 21
-47.37777777777778
 31
0.0
  0
LINE
  5
1F1
100
AcDbEntity
100
AcDbLine
  8
etch
 62
256
370
-1
  6
ByLayer
 10
10.6666666666666821
 20
-47.5999999999999943
 30
0.0
 11
10.6666666666666785
 21
-44.9333333333333371
 31
0.0
  0
LINE
  5
1F2
100
AcDbEntity
100
AcDbLine
  8
etch
 62
256
370
-1
  6
ByLayer
 10
10.6666666666666785
 20
-44.9333333333333371
 30
0.0
 11
8.6666666666666821
 21
-44.9333333333333229
 31
0.0
  0
ARC
  5
1F3
100
AcDbEntity
  8
etch
 62
256
370
-1
  6
ByLayer
100
AcDbCircle
 10
8.666666666666698
 20
-45.5999999999999943
 30
0.0
 40
0.6666666666666666
100
AcDbArc
 50
89.9999999999999858
 51
180.0
  0
LINE
  5
1F4
100
AcDbEntity
100
AcDbLine
  8
etch
 62
256
370
-1
  6
ByLayer
 10
7.9999999999999947
 20
-45.5999999999999943
 30
0.0
 11
8.0000000000000142
 21
-47.5999999999999943
 31
0.0
  0
LINE
  5
1F5
100
AcDbEntity
100
AcDbLine
  8
etch
 62
256
370
-1
  6
ByLayer
 10
9.3333333333333393
 20
-44.9333333333333229
 30
0.0
 11
9.3333333333333215
 21
-47.5999999999999943
 31
0.0
  0
LINE
  5
1F6
100
AcDbEntity
100
AcDbLine
  8
etch
 62
256
370
-1
  6
ByLayer
 10
6.4444444444444731
 20
-44.9333333333333229
 30
0.0
 11
5.5555555555555518
 21
-44.9333333333333229
 31
0.0
  0
ARC
  5
1F7
100
AcDbEntity
  8
etch
 62
256
370
-1
  6
ByLayer
100
AcDbCircle
 10
5.5555555555555403
 20
-45.5999999999999943
 30
0.0
 40
0.6666666666666666
100
AcDbArc
 50
89.9999999999999858
 51
180.0
  0
LINE
  5
1F8
100
AcDbEntity
100
AcDbLine
  8
etch
 62
256
370
-1
  6
ByLayer
 10
4.8888888888888582
 20
-45.5999999999999943
 30
0.0
 11
4.8888888888888742
 21
-47.5999999999999943
 31
0.0
  0
LINE
  5
1F9
100
AcDbEntity
100
AcDbLine
  8
etch
 62
256
370
-1
  6
ByLayer
 10
4.8888888888888742
 20
-47.5999999999999943
 30
0.0
 11
6.0000000000000018
 21
-47.5999999999999943
 31
0.0
  0
ARC
  5
1FA
100
AcDbEntity
  8
etch
 62
256
370
-1
  6
ByLayer
100
AcDbCircle
 10
6.0000000000000329
 20
-46.9333333333333229
 30
0.0
 40
0.6666666666666666
100
AcDbArc
 50
270.0
 51
89.9999999999999858
  0
LINE
  5
1FB
100
AcDbEntity
100
AcDbLine
  8
etch
 62
256
370
-1
  6
ByLayer
 10
6.0
 20
-46.2666666666666515
 30
0.0
 11
4.8888888888888573
 21
-46.2666666666666515
 31
0.0
  0
LINE
  5
1FC
100
AcDbEntity
100
AcDbLine
  8
etch
 62
256
370
-1
  6
ByLayer
 10
3.5555555555555585
 20
-43.5999999999999943
 30
0.0
 11
3.5555555555555327
 21
-47.5999999999999943
 31
0.0
  0
LINE
  5
1FD
100
AcDbEntity
100
AcDbLine
  8
etch
 62
256
370
-1
  6
ByLayer
 10
3.55555555555557
 20
-46.0444444444444372
 30
0.0
 11
1.7777777777777575
 21
-44.9333333333333371
 31
0.0
  0
LINE
  5
1FE
100
AcDbEntity
100
AcDbLine
  8
etch
 62
256
370
-1
  6
ByLayer
 10
2.9684800000000262
 20
-45.6775333333333293
 30
0.0
 11
1.7777777777778145
 21
-47.5999999999999943
 31
0.0
  0
LINE
  5
1FF
100
AcDbEntity
100
AcDbLine
  8
etch
 62
256
370
-1
  6
ByLayer
 10
0.4444444444444234
 20
-46.2666666666666515
 30
0.0
 11
-1.333333333333329
 21
-46.2666666666666515
 31
0.0
  0
LINE
  5
200
100
AcDbEntity
100
AcDbLine
  8
etch
 62
256
370
-1
  6
ByLayer
 10
-1.333333333333329
 20
-46.2666666666666515
 30
0.0
 11
-1.3333333333333297
 21
-45.8222222222222086
 31
0.0
  0
ARC
  5
201
100
AcDbEntity
  8
etch
 62
256
370
-1
  6
ByLayer
100
AcDbCircle
 10
-0.4444444444444239
 20
-45.8222222222222229
 30
0.0
 40
0.8888888888888888
100
AcDbArc
 50
360.0
 51
180.0
  0
LINE
  5
202
100
AcDbEntity
100
AcDbLine
  8
etch
 62
256
370
-1
  6
ByLayer
 10
0.4444444444444582
 20
-45.8222222222222229
 30
0.0
 11
0.4444444444444155
 21
-46.9333333333333371
 31
0.0
  0
ARC
  5
203
100
AcDbEntity
  8
etch
 62
256
370
-1
  6
ByLayer
100
AcDbCircle
 10
-0.2222222222222394
 20
-46.9333333333333371
 30
0.0
 40
0.6666666666666666
100
AcDbArc
 50
270.0
 51
360.0
  0
LINE
  5
204
100
AcDbEntity
100
AcDbLine
  8
etch
 62
256
370
-1
  6
ByLayer
 10
-0.2222222222222283
 20
-47.5999999999999943
 30
0.0
 11
-1.3333333333333233
 21
-47.5999999999999943
 31
0.0
  0
LINE
  5
205
100
AcDbEntity
100
AcDbLine
  8
etch
 62
256
370
-1
  6
ByLayer
 10
-2.6666666666666794
 20
-47.5999999999999943
 30
0.0
 11
-2.6666666666666834
 21
-44.9333333333333371
 31
0.0
  0
LINE
  5
206
100
AcDbEntity
100
AcDbLine
  8
etch
 62
256
370
-1
  6
ByLayer
 10
-2.6666666666666834
 20
-44.9333333333333371
 30
0.0
 11
-3.5555555555555558
 21
-44.9333333333333371
 31
0.0
  0
ARC
  5
207
100
AcDbEntity
  8
etch
 62
256
370
-1
  6
ByLayer
100
AcDbCircle
 10
-3.5555555555555385
 20
-45.3777777777777658
 30
0.0
 40
0.4444444444444444
100
AcDbArc
 50
89.9999999999999858
 51
180.0
  0
LINE
  5
208
100
AcDbEntity
100
AcDbLine
  8
etch
 62
256
370
-1
  6
ByLayer
 10
-5.3333333333333055
 20
-43.5999999999999943
 30
0.0
 11
-5.3333333333333526
 21
-47.5999999999999801
 31
0.0
  0
LINE
  5
209
100
AcDbEntity
100
AcDbLine
  8
etch
 62
256
370
-1
  6
ByLayer
 10
-5.3333333333333526
 20
-47.5999999999999801
 30
0.0
 11
-6.444444444444466
 21
-47.5999999999999801
 31
0.0
  0
ARC
  5
20A
100
AcDbEntity
  8
etch
 62
256
370
-1
  6
ByLayer
100
AcDbCircle
 10
-6.4444444444444606
 20
-46.9333333333333371
 30
0.0
 40
0.6666666666666666
100
AcDbArc
 50
180.0
 51
270.0
  0
LINE
  5
20B
100
AcDbEntity
100
AcDbLine
  8
etch
 62
256
370
-1
  6
ByLayer
 10
-7.1111111111110814
 20
-46.9333333333333371
 30
0.0
 11
-7.1111111111110876
 21
-45.5999999999999943
 31
0.0
  0
ARC
  5
20C
100
AcDbEntity
  8
etch
 62
256
370
-1
  6
ByLayer
100
AcDbCircle
 10
-6.44444444444445
 20
-45.6000000000000085
 30
0.0
 40
0.6666666666666666
100
AcDbArc
 50
89.9999999999999858
 51
180.0
  0
LINE
  5
20D
100
AcDbEntity
100
AcDbLine
  8
etch
 62
256
370
-1
  6
ByLayer
 10
-6.4444444444444411
 20
-44.9333333333333371
 30
0.0
 11
-5.3333333333333286
 21
-44.9333333333333371
 31
0.0
  0
LINE
  5
20E
100
AcDbEntity
100
AcDbLine
  8
etch
 62
256
370
-1
  6
ByLayer
 10
-8.4444444444444233
 20
-45.8222222222222229
 30
0.0
 11
-8.444444444444434
 21
-46.7111111111111086
 31
0.0
  0
ARC
  5
20F
100
AcDbEntity
  8
etch
 62
256
370
-1
  6
ByLayer
100
AcDbCircle
 10
-9.3333333333333464
 20
-46.7111111111111086
 30
0.0
 40
0.8888888888888888
100
AcDbArc
 50
180.0
 51
360.0
  0
LINE
  5
210
100
AcDbEntity
100
AcDbLine
  8
etch
 62
256
370
-1
  6
ByLayer
 10
-10.222222222222225
 20
-46.7111111111110944
 30
0.0
 11
-10.222222222222241
 21
-45.8222222222222086
 31
0.0
  0
ARC
  5
211
100
AcDbEntity
  8
etch
 62
256
370
-1
  6
ByLayer
100
AcDbCircle
 10
-9.333333333333341
 20
-45.8222222222222086
 30
0.0
 40
0.8888888888888888
100
AcDbArc
 50
360.0
 51
180.0
  0
LINE
  5
212
100
AcDbEntity
100
AcDbLine
  8
etch
 62
256
370
-1
  6
ByLayer
 10
-11.5555555555555465
 20
-44.9333333333333229
 30
0.0
 11
-12.8888888888888662
 21
-44.9333333333333229
 31
0.0
  0
LINE
  5
213
100
AcDbEntity
100
AcDbLine
  8
etch
 62
256
370
-1
  6
ByLayer
 10
-12.0000000000000124
 20
-43.5999999999999801
 30
0.0
 11
-11.9999999999999876
 21
-47.5999999999999943
 31
0.0
  0
LINE
  5
214
100
AcDbEntity
100
AcDbLine
  8
etch
 62
256
370
-1
  6
ByLayer
 10
-14.2222222222222108
 20
-47.6000000000000085
 30
0.0
 11
-14.2222222222221806
 21
-47.3777777777777942
 31
0.0
  0
LINE
  5
215
100
AcDbEntity
100
AcDbLine
  8
etch
 62
256
370
-1
  6
ByLayer
 10
-16.8888888888889106
 20
-44.9333333333333229
 30
0.0
 11
-16.2222222222222356
 21
-44.9333333333333371
 31
0.0
  0
ARC
  5
216
100
AcDbEntity
  8
etch
 62
256
370
-1
  6
ByLayer
100
AcDbCircle
 10
-16.2222222222222108
 20
-45.6000000000000085
 30
0.0
 40
0.6666666666666666
100
AcDbArc
 50
360.0
 51
89.9999999999999858
  0
LINE
  5
217
100
AcDbEntity
100
AcDbLine
  8
etch
 62
256
370
-1
  6
ByLayer
 10
-15.5555555555555518
 20
-45.6000000000000085
 30
0.0
 11
-15.5555555555555625
 21
-46.9333333333333371
 31
0.0
  0
ARC
  5
218
100
AcDbEntity
  8
etch
 62
256
370
-1
  6
ByLayer
100
AcDbCircle
 10
-16.2222222222222108
 20
-46.9333333333333371
 30
0.0
 40
0.6666666666666666
100
AcDbArc
 50
270.0
 51
360.0
  0
LINE
  5
219
100
AcDbEntity
100
AcDbLine
  8
etch
 62
256
370
-1
  6
ByLayer
 10
-16.2222222222222285
 20
-47.6000000000000085
 30
0.0
 11
-16.8888888888888573
 21
-47.6000000000000085
 31
0.0
  0
LINE
  5
21A
100
AcDbEntity
100
AcDbLine
  8
etch
 62
256
370
-1
  6
ByLayer
 10
-18.2222222222222001
 20
-45.8222222222222086
 30
0.0
 11
-18.2222222222222285
 21
-46.7111111111110944
 31
0.0
  0
ARC
  5
21B
100
AcDbEntity
  8
etch
 62
256
370
-1
  6
ByLayer
100
AcDbCircle
 10
-19.1111111111111391
 20
-46.7111111111110944
 30
0.0
 40
0.8888888888888888
100
AcDbArc
 50
180.0
 51
360.0
  0
LINE
  5
21C
100
AcDbEntity
100
AcDbLine
  8
etch
 62
256
370
-1
  6
ByLayer
 10
-19.9999999999999787
 20
-46.7111111111111228
 30
0.0
 11
-20.0000000000000071
 21
-45.8222222222221944
 31
0.0
  0
ARC
  5
21D
100
AcDbEntity
  8
etch
 62
256
370
-1
  6
ByLayer
100
AcDbCircle
 10
-19.1111111111111178
 20
-45.8222222222221944
 30
0.0
 40
0.8888888888888888
100
AcDbArc
 50
360.0
 51
180.0
  0
LINE
  5
21E
100
AcDbEntity
100
AcDbLine
  8
etch
 62
256
370
-1
  6
ByLayer
 10
-21.3333333333333393
 20
-47.5999999999999943
 30
0.0
 11
-21.3333333333333606
 21
-44.9333333333333371
 31
0.0
  0
LINE
  5
21F
100
AcDbEntity
100
AcDbLine
  8
etch
 62
256
370
-1
  6
ByLayer
 10
-21.3333333333333606
 20
-44.9333333333333371
 30
0.0
 11
-23.3333333333333179
 21
-44.9333333333333371
 31
0.0
  0
ARC
  5
220
100
AcDbEntity
  8
etch
 62
256
370
-1
  6
ByLayer
100
AcDbCircle
 10
-23.3333333333333037
 20
-45.6000000000000085
 30
0.0
 40
0.6666666666666666
100
AcDbArc
 50
89.9999999999999858
 51
180.0
  0
LINE
  5
221
100
AcDbEntity
100
AcDbLine
  8
etch
 62
256
370
-1
  6
ByLayer
 10
-24.0000000000000071
 20
-45.5999999999999801
 30
0.0
 11
-23.9999999999999858
 21
-47.5999999999999943
 31
0.0
  0
LINE
  5
222
100
AcDbEntity
100
AcDbLine
  8
etch
 62
256
370
-1
  6
ByLayer
 10
-22.6666666666666465
 20
-44.9333333333333371
 30
0.0
 11
-22.6666666666666892
 21
-47.5999999999999801
 31
0.0
  0
ARC
  5
223
100
AcDbEntity
  8
0
 62
256
370
-1
  6
ByLayer
100
AcDbCircle
 10
-49.0
 20
49.0000000000000071
 30
0.0
 40
1.0
100
AcDbArc
 50
90.0
 51
180.0
  0
LINE
  5
224
100
AcDbEntity
100
AcDbLine
  8
0
 62
256
370
-1
  6
ByLayer
 10
49.0000000000000142
 20
50.0000000000000071
 30
0.0
 11
-49.0
 21
50.0000000000000071
 31
0.0
  0
ARC
  5
225
100
AcDbEntity
  8
0
 62
256
370
-1
  6
ByLayer
100
AcDbCircle
 10
49.0000000000000142
 20
49.0000000000000071
 30
0.0
 40
1.0
100
AcDbArc
 50
0.0
 51
90.0
  0
LINE
  5
226
100
AcDbEntity
100
AcDbLine
  8
0
 62
256
370
-1
  6
ByLayer
 10
50.0
 20
-49.0000000000000213
 30
0.0
 11
50.0000000000000142
 21
49.0000000000000071
 31
0.0
  0
ARC
  5
227
100
AcDbEntity
  8
0
 62
256
370
-1
  6
ByLayer
100
AcDbCircle
 10
49.0
 20
-49.0000000000000213
 30
0.0
 40
1.0
100
AcDbArc
 50
270.0
 51
0.0
  0
LINE
  5
228
100
AcDbEntity
100
AcDbLine
  8
0
 62
256
370
-1
  6
ByLayer
 10
-49.0000000000000142
 20
-49.9999999999999503
 30
0.0
 11
49.0
 21
-50.0000000000000213
 31
0.0
  0
LINE
  5
229
100
AcDbEntity
100
AcDbLine
  8
0
 62
256
370
-1
  6
ByLayer
 10
-50.0
 20
49.0000000000000071
 30
0.0
 11
-50.0000000000000142
 21
-48.9999999999999503
 31
0.0
  0
ARC
  5
22A
100
AcDbEntity
  8
0
 62
256
370
-1
  6
ByLayer
100
AcDbCircle
 10
-49.0000000000000142
 20
-48.9999999999999503
 30
0.0
 40
1.0
100
AcDbArc
 50
180.0
 51
270.0
  0
ENDSEC
  0
SECTION
  2
OBJECTS
  0
DICTIONARY
  5
C
100
AcDbDictionary
280
0
281
1
  3
ACAD_GROUP
350
D
  3
ACAD_LAYOUT
350
1A
  3
ACAD_MLINESTYLE
350
17
  3
ACAD_PLOTSETTINGS
350
19
  3
ACAD_PLOTSTYLENAME
350
E
  3
AcDbVariableDictionary
350
22B
  0
DICTIONARY
  5
D
100
AcDbDictionary
280
0
281
1
  0
ACDBDICTIONARYWDFLT
  5
E
100
AcDbDictionary
281
1
  3
Normal
350
F
100
AcDbDictionaryWithDefault
340
F
  0
ACDBPLACEHOLDER
  5
F
  0
DICTIONARY
  5
17
100
AcDbDictionary
280
0
281
1
  3
Standard
350
18
  0
MLINESTYLE
  5
18
100
AcDbMlineStyle
  2
STANDARD
 70
0
  3

 62
256
 51
90.0
 52
90.0
 71
2
 49
0.5
 62
256
  6
BYLAYER
 49
-0.5
 62
256
  6
BYLAYER
  0
DICTIONARY
  5
19
100
AcDbDictionary
280
0
281
1
  0
DICTIONARY
  5
1A
100
AcDbDictionary
281
1
  3
Layout1
350
1E
  3
Layout2
350
26
  3
Model
350
22
  0
LAYOUT
  5
1E
100
AcDbPlotSettings
  1

  2
C:\Program Files\AutoCAD 2002\plotters\DWF ePlot (optimized for plotting).pc3
  4

  6

 40
0.0
 41
0.0
 42
0.0
 43
0.0
 44
0.0
 45
0.0
 46
0.0
 47
0.0
 48
0.0
 49
0.0
140
0.0
141
0.0
142
1.0
143
1.0
 70
688
 72
0
 73
0
 74
5
  7

 75
16
147
1.0
148
0.0
149
0.0
100
AcDbLayout
  1
Layout1
 70
1
 71
1
 10
0.0
 20
0.0
 11
420.0
 21
297.0
 12
0.0
 22
0.0
 32
0.0
 14
100000000000000000000.0
 24
100000000000000000000.0
 34
100000000000000000000.0
 15
-100000000000000000000.0
 25
-100000000000000000000.0
 35
-100000000000000000000.0
146
0.0
 13
0.0
 23
0.0
 33
0.0
 16
1.0
 26
0.0
 36
0.0
 17
0.0
 27
1.0
 37
0.0
 76
0
330
1B
  0
LAYOUT
  5
22
100
AcDbPlotSettings
  1

  2
C:\Program Files\AutoCAD 2002\plotters\DWF ePlot (optimized for plotting).pc3
  4

  6

 40
0.0
 41
0.0
 42
0.0
 43
0.0
 44
0.0
 45
0.0
 46
0.0
 47
0.0
 48
0.0
 49
0.0
140
0.0
141
0.0
142
1.0
143
1.0
 70
1712
 72
0
 73
0
 74
0
  7

 75
0
147
1.0
148
0.0
149
0.0
100
AcDbLayout
  1
Model
 70
1
 71
0
 10
0.0
 20
0.0
 11
12.0
 21
9.0
 12
0.0
 22
0.0
 32
0.0
 14
0.0
 24
0.0
 34
0.0
 15
0.0
 25
0.0
 35
0.0
146
0.0
 13
0.0
 23
0.0
 33
0.0
 16
1.0
 26
0.0
 36
0.0
 17
0.0
 27
1.0
 37
0.0
 76
0
330
1F
  0
LAYOUT
  5
26
100
AcDbPlotSettings
  1

  2
C:\Program Files\AutoCAD 2002\plotters\DWF ePlot (optimized for plotting).pc3
  4

  6

 40
0.0
 41
0.0
 42
0.0
 43
0.0
 44
0.0
 45
0.0
 46
0.0
 47
0.0
 48
0.0
 49
0.0
140
0.0
141
0.0
142
1.0
143
1.0
 70
688
 72
0
 73
0
 74
5
  7

 75
16
147
1.0
148
0.0
149
0.0
100
AcDbLayout
  1
Layout2
 70
1
 71
2
 10
0.0
 20
0.0
 11
12.0
 21
9.0
 12
0.0
 22
0.0
 32
0.0
 14
0.0
 24
0.0
 34
0.0
 15
0.0
 25
0.0
 35
0.0
146
0.0
 13
0.0
 23
0.0
 33
0.0
 16
1.0
 26
0.0
 36
0.0
 17
0.0
 27
1.0
 37
0.0
 76
0
330
23
  0
DICTIONARY
  5
22B
100
AcDbDictionary
281
1
  3
DIMASSOC
350
22D
  3
HIDETEXT
350
22C
  0
DICTIONARYVAR
  5
22C
100
DictionaryVariables
280
0
  1
2
  0
DICTIONARYVAR
  5
22D
100
DictionaryVariables
280
0
  1
1
  0
ENDSEC
  0
EOF
