999
dxflib 2.2.0.0
  0
SECTION
  2
HEADER
  9
$ACADVER
  1
AC1015
  9
$HANDSEED
  5
FFFF
  9
$DIMASZ
 40
2.5
  9
$PLIMMIN
 10
0.0
 20
0.0
  9
$DIMEXE
 40
1.25
  9
$DIMGAP
 40
0.625
  9
$PLIMMAX
 10
210.0
 20
297.0
  9
$INSUNITS
 70
4
  9
$DIMSTYLE
  2
Standard
  9
$CLAYER
  8
0
  9
$DIMEXO
 40
0.625
  9
$DIMTXT
 40
2.5
  9
$CLAYER
  8
text
  0
ENDSEC
  0
SECTION
  2
TABLES
  0
TABLE
  2
VPORT
  5
8
100
AcDbSymbolTable
 70
1
  0
VPORT
  5
30
100
AcDbSymbolTableRecord
100
AcDbViewportTableRecord
  2
*Active
 70
0
 10
0.0
 20
0.0
 11
1.0
 21
1.0
 12
286.3055555555554861
 22
148.5
 13
0.0
 23
0.0
 14
10.0
 24
10.0
 15
10.0
 25
10.0
 16
0.0
 26
0.0
 36
1.0
 17
0.0
 27
0.0
 37
0.0
 40
297.0
 41
1.92798353909465
 42
50.0
 43
0.0
 44
0.0
 50
0.0
 51
0.0
 71
0
 72
100
 73
1
 74
3
 75
1
 76
1
 77
0
 78
0
281
0
 65
1
110
0.0
120
0.0
130
0.0
111
1.0
121
0.0
131
0.0
112
0.0
122
1.0
132
0.0
 79
0
146
0.0
  0
ENDTAB
  0
TABLE
  2
LTYPE
  5
5
100
AcDbSymbolTable
 70
21
  0
LTYPE
  5
14
100
AcDbSymbolTableRecord
100
AcDbLinetypeTableRecord
  2
ByBlock
 70
0
  3

 72
65
 73
0
 40
0.0
  0
LTYPE
  5
15
100
AcDbSymbolTableRecord
100
AcDbLinetypeTableRecord
  2
ByLayer
 70
0
  3

 72
65
 73
0
 40
0.0
  0
LTYPE
  5
16
100
AcDbSymbolTableRecord
100
AcDbLinetypeTableRecord
  2
CONTINUOUS
 70
0
  3
Solid line
 72
65
 73
0
 40
0.0
  0
LTYPE
  5
31
100
AcDbSymbolTableRecord
100
AcDbLinetypeTableRecord
  2
DOT
 70
0
  3
Dot . . . . . . . . . . . . . . . . . . . . . .
 72
65
 73
2
 40
6.3499999999999996
 49
0.0
 74
0
 49
-6.3499999999999996
 74
0
  0
LTYPE
  5
32
100
AcDbSymbolTableRecord
100
AcDbLinetypeTableRecord
  2
DOT2
 70
0
  3
Dot (.5x) .....................................
 72
65
 73
2
 40
3.1749999999999998
 49
0.0
 74
0
 49
-3.1749999999999998
 74
0
  0
LTYPE
  5
33
100
AcDbSymbolTableRecord
100
AcDbLinetypeTableRecord
  2
DOTX2
 70
0
  3
Dot (2x) .  .  .  .  .  .  .  .  .  .  .  .  .
 72
65
 73
2
 40
12.6999999999999993
 49
0.0
 74
0
 49
-12.6999999999999993
 74
0
  0
LTYPE
  5
34
100
AcDbSymbolTableRecord
100
AcDbLinetypeTableRecord
  2
DASHED
 70
0
  3
Dashed __ __ __ __ __ __ __ __ __ __ __ __ __ _
 72
65
 73
2
 40
19.0500000000000007
 49
12.6999999999999993
 74
0
 49
-6.3499999999999996
 74
0
  0
LTYPE
  5
35
100
AcDbSymbolTableRecord
100
AcDbLinetypeTableRecord
  2
DASHED2
 70
0
  3
Dashed (.5x) _ _ _ _ _ _ _ _ _ _ _ _ _ _ _ _ _
 72
65
 73
2
 40
9.5250000000000004
 49
6.3499999999999996
 74
0
 49
-3.1749999999999998
 74
0
  0
LTYPE
  5
36
100
AcDbSymbolTableRecord
100
AcDbLinetypeTableRecord
  2
DASHEDX2
 70
0
  3
Dashed (2x) ____  ____  ____  ____  ____  ___
 72
65
 73
2
 40
38.1000000000000014
 49
25.3999999999999986
 74
0
 49
-12.6999999999999993
 74
0
  0
LTYPE
  5
37
100
AcDbSymbolTableRecord
100
AcDbLinetypeTableRecord
  2
DASHDOT
 70
0
  3
Dash dot __ . __ . __ . __ . __ . __ . __ . __
 72
65
 73
4
 40
25.3999999999999986
 49
12.6999999999999993
 74
0
 49
-6.3499999999999996
 74
0
 49
0.0
 74
0
 49
-6.3499999999999996
 74
0
  0
LTYPE
  5
38
100
AcDbSymbolTableRecord
100
AcDbLinetypeTableRecord
  2
DASHDOT2
 70
0
  3
Dash dot (.5x) _._._._._._._._._._._._._._._.
 72
65
 73
4
 40
12.6999999999999993
 49
6.3499999999999996
 74
0
 49
-3.1749999999999998
 74
0
 49
0.0
 74
0
 49
-3.1749999999999998
 74
0
  0
LTYPE
  5
39
100
AcDbSymbolTableRecord
100
AcDbLinetypeTableRecord
  2
DASHDOTX2
 70
0
  3
Dash dot (2x) ____  .  ____  .  ____  .  ___
 72
65
 73
4
 40
50.7999999999999972
 49
25.3999999999999986
 74
0
 49
-12.6999999999999993
 74
0
 49
0.0
 74
0
 49
-12.6999999999999993
 74
0
  0
LTYPE
  5
3A
100
AcDbSymbolTableRecord
100
AcDbLinetypeTableRecord
  2
DIVIDE
 70
0
  3
Divide ____ . . ____ . . ____ . . ____ . . ____
 72
65
 73
6
 40
31.75
 49
12.6999999999999993
 74
0
 49
-6.3499999999999996
 74
0
 49
0.0
 74
0
 49
-6.3499999999999996
 74
0
 49
0.0
 74
0
 49
-6.3499999999999996
 74
0
  0
LTYPE
  5
3B
100
AcDbSymbolTableRecord
100
AcDbLinetypeTableRecord
  2
DIVIDE2
 70
0
  3
Divide (.5x) __..__..__..__..__..__..__..__.._
 72
65
 73
6
 40
15.875
 49
6.3499999999999996
 74
0
 49
-3.1749999999999998
 74
0
 49
0.0
 74
0
 49
-3.1749999999999998
 74
0
 49
0.0
 74
0
 49
-3.1749999999999998
 74
0
  0
LTYPE
  5
3C
100
AcDbSymbolTableRecord
100
AcDbLinetypeTableRecord
  2
DIVIDEX2
 70
0
  3
Divide (2x) ________  .  .  ________  .  .  _
 72
65
 73
6
 40
63.5
 49
25.3999999999999986
 74
0
 49
-12.6999999999999993
 74
0
 49
0.0
 74
0
 49
-12.6999999999999993
 74
0
 49
0.0
 74
0
 49
-12.6999999999999993
 74
0
  0
LTYPE
  5
3D
100
AcDbSymbolTableRecord
100
AcDbLinetypeTableRecord
  2
CENTER
 70
0
  3
Center ____ _ ____ _ ____ _ ____ _ ____ _ ____
 72
65
 73
4
 40
50.7999999999999972
 49
31.75
 74
0
 49
-6.3499999999999996
 74
0
 49
6.3499999999999996
 74
0
 49
-6.3499999999999996
 74
0
  0
LTYPE
  5
3E
100
AcDbSymbolTableRecord
100
AcDbLinetypeTableRecord
  2
CENTER2
 70
0
  3
Center (.5x) ___ _ ___ _ ___ _ ___ _ ___ _ ___
 72
65
 73
4
 40
28.5749999999999993
 49
19.0500000000000007
 74
0
 49
-3.1749999999999998
 74
0
 49
3.1749999999999998
 74
0
 49
-3.1749999999999998
 74
0
  0
LTYPE
  5
3F
100
AcDbSymbolTableRecord
100
AcDbLinetypeTableRecord
  2
CENTERX2
 70
0
  3
Center (2x) ________  __  ________  __  _____
 72
65
 73
4
 40
101.5999999999999943
 49
63.5
 74
0
 49
-12.6999999999999993
 74
0
 49
12.6999999999999993
 74
0
 49
-12.6999999999999993
 74
0
  0
LTYPE
  5
40
100
AcDbSymbolTableRecord
100
AcDbLinetypeTableRecord
  2
BORDER
 70
0
  3
Border __ __ . __ __ . __ __ . __ __ . __ __ .
 72
65
 73
6
 40
44.4500000000000028
 49
12.6999999999999993
 74
0
 49
-6.3499999999999996
 74
0
 49
12.6999999999999993
 74
0
 49
-6.3499999999999996
 74
0
 49
0.0
 74
0
 49
-6.3499999999999996
 74
0
  0
LTYPE
  5
41
100
AcDbSymbolTableRecord
100
AcDbLinetypeTableRecord
  2
BORDER2
 70
0
  3
Border (.5x) __.__.__.__.__.__.__.__.__.__.__.
 72
65
 73
6
 40
22.2250000000000014
 49
6.3499999999999996
 74
0
 49
-3.1749999999999998
 74
0
 49
6.3499999999999996
 74
0
 49
-3.1749999999999998
 74
0
 49
0.0
 74
0
 49
-3.1749999999999998
 74
0
  0
LTYPE
  5
42
100
AcDbSymbolTableRecord
100
AcDbLinetypeTableRecord
  2
BORDERX2
 70
0
  3
Border (2x) ____  ____  .  ____  ____  .  ___
 72
65
 73
6
 40
88.9000000000000057
 49
25.3999999999999986
 74
0
 49
-12.6999999999999993
 74
0
 49
25.3999999999999986
 74
0
 49
-12.6999999999999993
 74
0
 49
0.0
 74
0
 49
-12.6999999999999993
 74
0
  0
ENDTAB
  0
TABLE
  2
LAYER
  5
2
100
AcDbSymbolTable
 70
11
  0
LAYER
  5
10
100
AcDbSymbolTableRecord
100
AcDbLayerTableRecord
  2
0
 70
0
 62
7
420
0
  6
CONTINUOUS
370
25
390
F
  0
LAYER
  5
43
100
AcDbSymbolTableRecord
100
AcDbLayerTableRecord
  2
Usable Area
 70
0
 62
4
420
65535
  6
CONTINUOUS
370
0
390
F
  0
LAYER
  5
44
100
AcDbSymbolTableRecord
100
AcDbLayerTableRecord
  2
hole grid
 70
0
 62
3
420
65280
  6
CONTINUOUS
370
0
390
F
  0
LAYER
  5
45
100
AcDbSymbolTableRecord
100
AcDbLayerTableRecord
  2
washer
 70
0
 62
1
420
16711680
  6
CONTINUOUS
370
0
390
F
  0
LAYER
  5
46
100
AcDbSymbolTableRecord
100
AcDbLayerTableRecord
  2
washer grid
 70
0
 62
7
420
0
  6
CONTINUOUS
370
0
390
F
  0
LAYER
  5
47
100
AcDbSymbolTableRecord
100
AcDbLayerTableRecord
  2
m8 bolt heads
 70
0
 62
2
420
16776960
  6
CONTINUOUS
370
0
390
F
  0
LAYER
  5
48
100
AcDbSymbolTableRecord
100
AcDbLayerTableRecord
  2
drill
 70
0
 62
6
420
16711935
  6
CONTINUOUS
370
0
390
F
  0
LAYER
  5
49
100
AcDbSymbolTableRecord
100
AcDbLayerTableRecord
  2
washer nuts
 70
0
 62
5
420
255
  6
CONTINUOUS
370
0
390
F
  0
LAYER
  5
4A
100
AcDbSymbolTableRecord
100
AcDbLayerTableRecord
  2
m8 nuts
 70
0
 62
7
420
0
  6
CONTINUOUS
370
0
390
F
  0
LAYER
  5
4B
100
AcDbSymbolTableRecord
100
AcDbLayerTableRecord
  2
washer holes
 70
0
 62
7
420
0
  6
CONTINUOUS
370
0
390
F
  0
LAYER
  5
4C
100
AcDbSymbolTableRecord
100
AcDbLayerTableRecord
  2
text
 70
0
 62
1
420
16711680
  6
CONTINUOUS
370
0
390
F
  0
ENDTAB
  0
TABLE
  2
STYLE
  5
3
100
AcDbSymbolTable
 70
1
  0
STYLE
  5
11
100
AcDbSymbolTableRecord
100
AcDbTextStyleTableRecord
  2
Standard
 70
0
 40
0.0
 41
0.75
 50
0.0
 71
0
 42
2.5
  3
txt
  4

  0
ENDTAB
  0
TABLE
  2
VIEW
  5
6
100
AcDbSymbolTable
 70
0
  0
ENDTAB
  0
TABLE
  2
UCS
  5
7
100
AcDbSymbolTable
 70
0
  0
ENDTAB
  0
TABLE
  2
APPID
  5
9
100
AcDbSymbolTable
 70
1
  0
APPID
  5
12
100
AcDbSymbolTableRecord
100
AcDbRegAppTableRecord
  2
ACAD
 70
0
  0
ENDTAB
  0
TABLE
  2
DIMSTYLE
  5
A
100
AcDbSymbolTable
 70
1
100
AcDbDimStyleTable
 71
0
  0
DIMSTYLE
105
27
100
AcDbSymbolTableRecord
100
AcDbDimStyleTableRecord
  2
Standard
 41
2.5
 42
0.625
 43
3.75
 44
1.25
 70
0
 73
0
 74
0
 77
1
 78
8
140
2.5
141
2.5
143
0.03937007874016
147
0.625
171
3
172
1
271
2
272
2
274
3
278
44
283
0
284
8
340
11
  0
ENDTAB
  0
TABLE
  2
BLOCK_RECORD
  5
1
100
AcDbSymbolTable
 70
1
  0
BLOCK_RECORD
  5
1F
100
AcDbSymbolTableRecord
100
AcDbBlockTableRecord
  2
*Model_Space
340
22
  0
BLOCK_RECORD
  5
1B
100
AcDbSymbolTableRecord
100
AcDbBlockTableRecord
  2
*Paper_Space
340
1E
  0
BLOCK_RECORD
  5
23
100
AcDbSymbolTableRecord
100
AcDbBlockTableRecord
  2
*Paper_Space0
340
26
  0
ENDTAB
  0
ENDSEC
  0
SECTION
  2
BLOCKS
  0
BLOCK
  5
20
100
AcDbEntity
  8
0
100
AcDbBlockBegin
  2
*Model_Space
 70
0
 10
0.0
 20
0.0
 30
0.0
  3
*Model_Space
  1

  0
ENDBLK
  5
21
100
AcDbEntity
  8
0
100
AcDbBlockEnd
  0
BLOCK
  5
1C
100
AcDbEntity
 67
1
  8
0
100
AcDbBlockBegin
  2
*Paper_Space
 70
0
 10
0.0
 20
0.0
 30
0.0
  3
*Paper_Space
  1

  0
ENDBLK
  5
1D
100
AcDbEntity
 67
1
  8
0
100
AcDbBlockEnd
  0
BLOCK
  5
24
100
AcDbEntity
  8
0
100
AcDbBlockBegin
  2
*Paper_Space0
 70
0
 10
0.0
 20
0.0
 30
0.0
  3
*Paper_Space0
  1

  0
ENDBLK
  5
25
100
AcDbEntity
  8
0
100
AcDbBlockEnd
  0
ENDSEC
  0
SECTION
  2
ENTITIES
  0
LINE
  5
4D
100
AcDbEntity
100
AcDbLine
  8
Usable Area
 62
256
370
-1
  6
ByLayer
 10
386.0
 20
255.0
 30
0.0
 11
65.9999999999999858
 21
255.0
 31
0.0
  0
LINE
  5
4E
100
AcDbEntity
100
AcDbLine
  8
Usable Area
 62
256
370
-1
  6
ByLayer
 10
66.0
 20
45.0
 30
0.0
 11
386.0
 21
45.0
 31
0.0
  0
LINE
  5
4F
100
AcDbEntity
100
AcDbLine
  8
Usable Area
 62
256
370
-1
  6
ByLayer
 10
386.0
 20
255.0
 30
0.0
 11
386.0
 21
45.0000000000000071
 31
0.0
  0
LINE
  5
50
100
AcDbEntity
100
AcDbLine
  8
washer grid
 62
256
370
-1
  6
ByLayer
 10
358.5
 20
45.0000000000000142
 30
0.0
 11
358.5
 21
255.0000000000000284
 31
0.0
  0
LINE
  5
51
100
AcDbEntity
100
AcDbLine
  8
washer grid
 62
256
370
-1
  6
ByLayer
 10
305.5
 20
45.0000000000000213
 30
0.0
 11
305.5
 21
255.0000000000000284
 31
0.0
  0
LINE
  5
52
100
AcDbEntity
100
AcDbLine
  8
washer grid
 62
256
370
-1
  6
ByLayer
 10
252.5
 20
45.0000000000000284
 30
0.0
 11
252.5
 21
255.0000000000000284
 31
0.0
  0
LINE
  5
53
100
AcDbEntity
100
AcDbLine
  8
washer grid
 62
256
370
-1
  6
ByLayer
 10
199.5
 20
45.0000000000000355
 30
0.0
 11
199.5
 21
255.0000000000000284
 31
0.0
  0
LINE
  5
54
100
AcDbEntity
100
AcDbLine
  8
washer grid
 62
256
370
-1
  6
ByLayer
 10
146.5
 20
45.0000000000000426
 30
0.0
 11
146.5
 21
255.0000000000000284
 31
0.0
  0
CIRCLE
  5
55
100
AcDbEntity
100
AcDbCircle
  8
washer
 62
256
370
-1
  6
ByLayer
 10
146.5
 20
228.0
 30
0.0
 40
25.3999999999999986
  0
CIRCLE
  5
56
100
AcDbEntity
100
AcDbCircle
  8
washer
 62
256
370
-1
  6
ByLayer
 10
199.5
 20
228.0
 30
0.0
 40
25.3999999999999986
  0
CIRCLE
  5
57
100
AcDbEntity
100
AcDbCircle
  8
washer
 62
256
370
-1
  6
ByLayer
 10
252.5
 20
228.0
 30
0.0
 40
25.3999999999999986
  0
CIRCLE
  5
58
100
AcDbEntity
100
AcDbCircle
  8
washer
 62
256
370
-1
  6
ByLayer
 10
305.5
 20
228.0000000000000284
 30
0.0
 40
25.3999999999999986
  0
CIRCLE
  5
59
100
AcDbEntity
100
AcDbCircle
  8
washer
 62
256
370
-1
  6
ByLayer
 10
358.5
 20
227.9999999999999716
 30
0.0
 40
25.3999999999999986
  0
CIRCLE
  5
5A
100
AcDbEntity
100
AcDbCircle
  8
washer
 62
256
370
-1
  6
ByLayer
 10
146.5
 20
176.0
 30
0.0
 40
25.3999999999999986
  0
CIRCLE
  5
5B
100
AcDbEntity
100
AcDbCircle
  8
washer
 62
256
370
-1
  6
ByLayer
 10
199.5
 20
176.0
 30
0.0
 40
25.3999999999999986
  0
CIRCLE
  5
5C
100
AcDbEntity
100
AcDbCircle
  8
washer
 62
256
370
-1
  6
ByLayer
 10
252.5
 20
176.0
 30
0.0
 40
25.3999999999999986
  0
CIRCLE
  5
5D
100
AcDbEntity
100
AcDbCircle
  8
washer
 62
256
370
-1
  6
ByLayer
 10
305.5
 20
176.0000000000000284
 30
0.0
 40
25.3999999999999986
  0
CIRCLE
  5
5E
100
AcDbEntity
100
AcDbCircle
  8
washer
 62
256
370
-1
  6
ByLayer
 10
358.5
 20
175.9999999999999716
 30
0.0
 40
25.3999999999999986
  0
CIRCLE
  5
5F
100
AcDbEntity
100
AcDbCircle
  8
washer
 62
256
370
-1
  6
ByLayer
 10
146.5
 20
124.0
 30
0.0
 40
25.3999999999999986
  0
CIRCLE
  5
60
100
AcDbEntity
100
AcDbCircle
  8
washer
 62
256
370
-1
  6
ByLayer
 10
199.5
 20
124.0
 30
0.0
 40
25.3999999999999986
  0
CIRCLE
  5
61
100
AcDbEntity
100
AcDbCircle
  8
washer
 62
256
370
-1
  6
ByLayer
 10
252.5
 20
124.0
 30
0.0
 40
25.3999999999999986
  0
CIRCLE
  5
62
100
AcDbEntity
100
AcDbCircle
  8
washer
 62
256
370
-1
  6
ByLayer
 10
305.5
 20
124.0000000000000284
 30
0.0
 40
25.3999999999999986
  0
CIRCLE
  5
63
100
AcDbEntity
100
AcDbCircle
  8
washer
 62
256
370
-1
  6
ByLayer
 10
358.5
 20
123.9999999999999716
 30
0.0
 40
25.3999999999999986
  0
CIRCLE
  5
64
100
AcDbEntity
100
AcDbCircle
  8
washer
 62
256
370
-1
  6
ByLayer
 10
146.5
 20
72.0
 30
0.0
 40
25.3999999999999986
  0
CIRCLE
  5
65
100
AcDbEntity
100
AcDbCircle
  8
washer
 62
256
370
-1
  6
ByLayer
 10
199.5
 20
72.0
 30
0.0
 40
25.3999999999999986
  0
CIRCLE
  5
66
100
AcDbEntity
100
AcDbCircle
  8
washer
 62
256
370
-1
  6
ByLayer
 10
252.5
 20
72.0
 30
0.0
 40
25.3999999999999986
  0
CIRCLE
  5
67
100
AcDbEntity
100
AcDbCircle
  8
washer
 62
256
370
-1
  6
ByLayer
 10
305.5
 20
72.0000000000000284
 30
0.0
 40
25.3999999999999986
  0
CIRCLE
  5
68
100
AcDbEntity
100
AcDbCircle
  8
washer
 62
256
370
-1
  6
ByLayer
 10
358.5
 20
71.9999999999999716
 30
0.0
 40
25.3999999999999986
  0
LINE
  5
69
100
AcDbEntity
100
AcDbLine
  8
washer grid
 62
256
370
-1
  6
ByLayer
 10
93.5
 20
45.0000000000000497
 30
0.0
 11
93.5
 21
255.0000000000000284
 31
0.0
  0
LINE
  5
6A
100
AcDbEntity
100
AcDbLine
  8
washer grid
 62
256
370
-1
  6
ByLayer
 10
93.5
 20
45.0000000000000426
 30
0.0
 11
93.5
 21
255.0000000000000284
 31
0.0
  0
CIRCLE
  5
6B
100
AcDbEntity
100
AcDbCircle
  8
washer
 62
256
370
-1
  6
ByLayer
 10
93.5
 20
228.0
 30
0.0
 40
25.3999999999999986
  0
CIRCLE
  5
6C
100
AcDbEntity
100
AcDbCircle
  8
washer
 62
256
370
-1
  6
ByLayer
 10
93.5
 20
176.0
 30
0.0
 40
25.3999999999999986
  0
CIRCLE
  5
6D
100
AcDbEntity
100
AcDbCircle
  8
washer
 62
256
370
-1
  6
ByLayer
 10
93.5
 20
124.0
 30
0.0
 40
25.3999999999999986
  0
CIRCLE
  5
6E
100
AcDbEntity
100
AcDbCircle
  8
washer
 62
256
370
-1
  6
ByLayer
 10
93.5
 20
72.0
 30
0.0
 40
25.3999999999999986
  0
LINE
  5
6F
100
AcDbEntity
100
AcDbLine
  8
Usable Area
 62
256
370
-1
  6
ByLayer
 10
65.9999999999999858
 20
255.0
 30
0.0
 11
66.0
 21
45.0
 31
0.0
  0
LINE
  5
70
100
AcDbEntity
100
AcDbLine
  8
washer grid
 62
256
370
-1
  6
ByLayer
 10
386.0
 20
228.0
 30
0.0
 11
66.0
 21
228.0
 31
0.0
  0
LINE
  5
71
100
AcDbEntity
100
AcDbLine
  8
washer grid
 62
256
370
-1
  6
ByLayer
 10
386.0
 20
176.0
 30
0.0
 11
66.0
 21
176.0
 31
0.0
  0
LINE
  5
72
100
AcDbEntity
100
AcDbLine
  8
washer grid
 62
256
370
-1
  6
ByLayer
 10
386.0
 20
124.0
 30
0.0
 11
66.0
 21
124.0
 31
0.0
  0
LINE
  5
73
100
AcDbEntity
100
AcDbLine
  8
washer grid
 62
256
370
-1
  6
ByLayer
 10
386.0
 20
72.0
 30
0.0
 11
66.0
 21
72.0
 31
0.0
  0
CIRCLE
  5
74
100
AcDbEntity
100
AcDbCircle
  8
m8 bolt heads
 62
256
370
-1
  6
ByLayer
 10
36.3999999999997499
 20
264.3000000000000114
 30
0.0
 40
6.5
  0
CIRCLE
  5
75
100
AcDbEntity
100
AcDbCircle
  8
m8 bolt heads
 62
256
370
-1
  6
ByLayer
 10
36.3999999999997499
 20
188.1000000000000227
 30
0.0
 40
6.5
  0
CIRCLE
  5
76
100
AcDbEntity
100
AcDbCircle
  8
m8 bolt heads
 62
256
370
-1
  6
ByLayer
 10
36.3999999999997499
 20
111.9000000000000341
 30
0.0
 40
6.5
  0
CIRCLE
  5
77
100
AcDbEntity
100
AcDbCircle
  8
m8 bolt heads
 62
256
370
-1
  6
ByLayer
 10
36.3999999999997499
 20
35.7000000000000455
 30
0.0
 40
6.5
  0
CIRCLE
  5
78
100
AcDbEntity
100
AcDbCircle
  8
m8 bolt heads
 62
256
370
-1
  6
ByLayer
 10
112.5999999999997954
 20
264.3000000000000114
 30
0.0
 40
6.5
  0
CIRCLE
  5
79
100
AcDbEntity
100
AcDbCircle
  8
m8 bolt heads
 62
256
370
-1
  6
ByLayer
 10
112.5999999999997954
 20
35.7000000000000455
 30
0.0
 40
6.5
  0
CIRCLE
  5
7A
100
AcDbEntity
100
AcDbCircle
  8
m8 bolt heads
 62
256
370
-1
  6
ByLayer
 10
188.7999999999998408
 20
264.3000000000000114
 30
0.0
 40
6.5
  0
CIRCLE
  5
7B
100
AcDbEntity
100
AcDbCircle
  8
m8 bolt heads
 62
256
370
-1
  6
ByLayer
 10
188.7999999999998408
 20
35.7000000000000455
 30
0.0
 40
6.5
  0
CIRCLE
  5
7C
100
AcDbEntity
100
AcDbCircle
  8
m8 bolt heads
 62
256
370
-1
  6
ByLayer
 10
264.9999999999998863
 20
264.3000000000000114
 30
0.0
 40
6.5
  0
CIRCLE
  5
7D
100
AcDbEntity
100
AcDbCircle
  8
m8 bolt heads
 62
256
370
-1
  6
ByLayer
 10
264.9999999999998863
 20
35.7000000000000455
 30
0.0
 40
6.5
  0
CIRCLE
  5
7E
100
AcDbEntity
100
AcDbCircle
  8
m8 bolt heads
 62
256
370
-1
  6
ByLayer
 10
341.1999999999999318
 20
264.3000000000000114
 30
0.0
 40
6.5
  0
CIRCLE
  5
7F
100
AcDbEntity
100
AcDbCircle
  8
m8 bolt heads
 62
256
370
-1
  6
ByLayer
 10
341.1999999999999318
 20
35.7000000000000455
 30
0.0
 40
6.5
  0
CIRCLE
  5
80
100
AcDbEntity
100
AcDbCircle
  8
m8 bolt heads
 62
256
370
-1
  6
ByLayer
 10
417.3999999999999773
 20
264.3000000000000114
 30
0.0
 40
6.5
  0
CIRCLE
  5
81
100
AcDbEntity
100
AcDbCircle
  8
m8 bolt heads
 62
256
370
-1
  6
ByLayer
 10
417.3999999999999773
 20
188.1000000000000227
 30
0.0
 40
6.5
  0
CIRCLE
  5
82
100
AcDbEntity
100
AcDbCircle
  8
m8 bolt heads
 62
256
370
-1
  6
ByLayer
 10
417.3999999999999773
 20
111.9000000000000341
 30
0.0
 40
6.5
  0
CIRCLE
  5
83
100
AcDbEntity
100
AcDbCircle
  8
m8 bolt heads
 62
256
370
-1
  6
ByLayer
 10
417.3999999999999773
 20
35.7000000000000455
 30
0.0
 40
6.5
  0
CIRCLE
  5
84
100
AcDbEntity
100
AcDbCircle
  8
m8 bolt heads
 62
256
370
-1
  6
ByLayer
 10
493.6000000000000227
 20
264.3000000000000114
 30
0.0
 40
6.5
  0
CIRCLE
  5
85
100
AcDbEntity
100
AcDbCircle
  8
m8 bolt heads
 62
256
370
-1
  6
ByLayer
 10
493.6000000000000227
 20
188.1000000000000227
 30
0.0
 40
6.5
  0
CIRCLE
  5
86
100
AcDbEntity
100
AcDbCircle
  8
m8 bolt heads
 62
256
370
-1
  6
ByLayer
 10
493.6000000000000227
 20
111.9000000000000341
 30
0.0
 40
6.5
  0
CIRCLE
  5
87
100
AcDbEntity
100
AcDbCircle
  8
m8 bolt heads
 62
256
370
-1
  6
ByLayer
 10
493.6000000000000227
 20
35.7000000000000455
 30
0.0
 40
6.5
  0
CIRCLE
  5
88
100
AcDbEntity
100
AcDbCircle
  8
drill
 62
256
370
-1
  6
ByLayer
 10
93.5
 20
240.3999999999997215
 30
0.0
 40
1.5
  0
CIRCLE
  5
89
100
AcDbEntity
100
AcDbCircle
  8
drill
 62
256
370
-1
  6
ByLayer
 10
93.5
 20
240.3999999999997215
 30
0.0
 40
1.5
  0
CIRCLE
  5
8A
100
AcDbEntity
100
AcDbCircle
  8
drill
 62
256
370
-1
  6
ByLayer
 10
93.5
 20
211.2499999999996305
 30
0.0
 40
1.5
  0
CIRCLE
  5
8B
100
AcDbEntity
100
AcDbCircle
  8
drill
 62
256
370
-1
  6
ByLayer
 10
93.5
 20
211.2499999999996305
 30
0.0
 40
1.5
  0
CIRCLE
  5
8C
100
AcDbEntity
100
AcDbCircle
  8
drill
 62
256
370
-1
  6
ByLayer
 10
81.125
 20
227.9999999999999716
 30
0.0
 40
1.5
  0
CIRCLE
  5
8D
100
AcDbEntity
100
AcDbCircle
  8
drill
 62
256
370
-1
  6
ByLayer
 10
106.375
 20
227.9999999999999716
 30
0.0
 40
1.5
  0
CIRCLE
  5
8E
100
AcDbEntity
100
AcDbCircle
  8
drill
 62
256
370
-1
  6
ByLayer
 10
93.4999999999999432
 20
188.3999999999997215
 30
0.0
 40
1.5
  0
CIRCLE
  5
8F
100
AcDbEntity
100
AcDbCircle
  8
drill
 62
256
370
-1
  6
ByLayer
 10
93.4999999999999432
 20
188.3999999999997215
 30
0.0
 40
1.5
  0
CIRCLE
  5
90
100
AcDbEntity
100
AcDbCircle
  8
drill
 62
256
370
-1
  6
ByLayer
 10
93.4999999999999432
 20
159.2499999999996305
 30
0.0
 40
1.5
  0
CIRCLE
  5
91
100
AcDbEntity
100
AcDbCircle
  8
drill
 62
256
370
-1
  6
ByLayer
 10
93.4999999999999432
 20
159.2499999999996305
 30
0.0
 40
1.5
  0
CIRCLE
  5
92
100
AcDbEntity
100
AcDbCircle
  8
drill
 62
256
370
-1
  6
ByLayer
 10
81.1249999999999432
 20
175.9999999999999716
 30
0.0
 40
1.5
  0
CIRCLE
  5
93
100
AcDbEntity
100
AcDbCircle
  8
drill
 62
256
370
-1
  6
ByLayer
 10
106.3749999999999432
 20
175.9999999999999716
 30
0.0
 40
1.5
  0
CIRCLE
  5
94
100
AcDbEntity
100
AcDbCircle
  8
drill
 62
256
370
-1
  6
ByLayer
 10
93.4999999999998863
 20
136.3999999999997215
 30
0.0
 40
1.5
  0
CIRCLE
  5
95
100
AcDbEntity
100
AcDbCircle
  8
drill
 62
256
370
-1
  6
ByLayer
 10
93.4999999999998863
 20
136.3999999999997215
 30
0.0
 40
1.5
  0
CIRCLE
  5
96
100
AcDbEntity
100
AcDbCircle
  8
drill
 62
256
370
-1
  6
ByLayer
 10
93.4999999999998863
 20
107.2499999999996305
 30
0.0
 40
1.5
  0
CIRCLE
  5
97
100
AcDbEntity
100
AcDbCircle
  8
drill
 62
256
370
-1
  6
ByLayer
 10
93.4999999999998863
 20
107.2499999999996305
 30
0.0
 40
1.5
  0
CIRCLE
  5
98
100
AcDbEntity
100
AcDbCircle
  8
drill
 62
256
370
-1
  6
ByLayer
 10
81.1249999999998863
 20
123.9999999999999716
 30
0.0
 40
1.5
  0
CIRCLE
  5
99
100
AcDbEntity
100
AcDbCircle
  8
drill
 62
256
370
-1
  6
ByLayer
 10
106.3749999999998863
 20
123.9999999999999716
 30
0.0
 40
1.5
  0
CIRCLE
  5
9A
100
AcDbEntity
100
AcDbCircle
  8
drill
 62
256
370
-1
  6
ByLayer
 10
93.4999999999998295
 20
84.3999999999997215
 30
0.0
 40
1.5
  0
CIRCLE
  5
9B
100
AcDbEntity
100
AcDbCircle
  8
drill
 62
256
370
-1
  6
ByLayer
 10
93.4999999999998295
 20
84.3999999999997215
 30
0.0
 40
1.5
  0
CIRCLE
  5
9C
100
AcDbEntity
100
AcDbCircle
  8
drill
 62
256
370
-1
  6
ByLayer
 10
93.4999999999998295
 20
55.2499999999996305
 30
0.0
 40
1.5
  0
CIRCLE
  5
9D
100
AcDbEntity
100
AcDbCircle
  8
drill
 62
256
370
-1
  6
ByLayer
 10
93.4999999999998295
 20
55.2499999999996305
 30
0.0
 40
1.5
  0
CIRCLE
  5
9E
100
AcDbEntity
100
AcDbCircle
  8
drill
 62
256
370
-1
  6
ByLayer
 10
81.1249999999998295
 20
71.9999999999999716
 30
0.0
 40
1.5
  0
CIRCLE
  5
9F
100
AcDbEntity
100
AcDbCircle
  8
drill
 62
256
370
-1
  6
ByLayer
 10
106.3749999999998295
 20
71.9999999999999716
 30
0.0
 40
1.5
  0
CIRCLE
  5
A0
100
AcDbEntity
100
AcDbCircle
  8
drill
 62
256
370
-1
  6
ByLayer
 10
146.4999999999999432
 20
240.3999999999997215
 30
0.0
 40
1.5
  0
CIRCLE
  5
A1
100
AcDbEntity
100
AcDbCircle
  8
drill
 62
256
370
-1
  6
ByLayer
 10
146.4999999999999432
 20
240.3999999999997215
 30
0.0
 40
1.5
  0
CIRCLE
  5
A2
100
AcDbEntity
100
AcDbCircle
  8
drill
 62
256
370
-1
  6
ByLayer
 10
146.4999999999999432
 20
211.2499999999996305
 30
0.0
 40
1.5
  0
CIRCLE
  5
A3
100
AcDbEntity
100
AcDbCircle
  8
drill
 62
256
370
-1
  6
ByLayer
 10
146.4999999999999432
 20
211.2499999999996305
 30
0.0
 40
1.5
  0
CIRCLE
  5
A4
100
AcDbEntity
100
AcDbCircle
  8
drill
 62
256
370
-1
  6
ByLayer
 10
134.1249999999999432
 20
227.9999999999999716
 30
0.0
 40
1.5
  0
CIRCLE
  5
A5
100
AcDbEntity
100
AcDbCircle
  8
drill
 62
256
370
-1
  6
ByLayer
 10
159.3749999999999432
 20
227.9999999999999716
 30
0.0
 40
1.5
  0
CIRCLE
  5
A6
100
AcDbEntity
100
AcDbCircle
  8
drill
 62
256
370
-1
  6
ByLayer
 10
146.4999999999998863
 20
188.3999999999997215
 30
0.0
 40
1.5
  0
CIRCLE
  5
A7
100
AcDbEntity
100
AcDbCircle
  8
drill
 62
256
370
-1
  6
ByLayer
 10
146.4999999999998863
 20
188.3999999999997215
 30
0.0
 40
1.5
  0
CIRCLE
  5
A8
100
AcDbEntity
100
AcDbCircle
  8
drill
 62
256
370
-1
  6
ByLayer
 10
146.4999999999998863
 20
159.2499999999996305
 30
0.0
 40
1.5
  0
CIRCLE
  5
A9
100
AcDbEntity
100
AcDbCircle
  8
drill
 62
256
370
-1
  6
ByLayer
 10
146.4999999999998863
 20
159.2499999999996305
 30
0.0
 40
1.5
  0
CIRCLE
  5
AA
100
AcDbEntity
100
AcDbCircle
  8
drill
 62
256
370
-1
  6
ByLayer
 10
134.1249999999998863
 20
175.9999999999999716
 30
0.0
 40
1.5
  0
CIRCLE
  5
AB
100
AcDbEntity
100
AcDbCircle
  8
drill
 62
256
370
-1
  6
ByLayer
 10
159.3749999999998863
 20
175.9999999999999716
 30
0.0
 40
1.5
  0
CIRCLE
  5
AC
100
AcDbEntity
100
AcDbCircle
  8
drill
 62
256
370
-1
  6
ByLayer
 10
146.4999999999998295
 20
136.3999999999997215
 30
0.0
 40
1.5
  0
CIRCLE
  5
AD
100
AcDbEntity
100
AcDbCircle
  8
drill
 62
256
370
-1
  6
ByLayer
 10
146.4999999999998295
 20
136.3999999999997215
 30
0.0
 40
1.5
  0
CIRCLE
  5
AE
100
AcDbEntity
100
AcDbCircle
  8
drill
 62
256
370
-1
  6
ByLayer
 10
146.4999999999998295
 20
107.2499999999996305
 30
0.0
 40
1.5
  0
CIRCLE
  5
AF
100
AcDbEntity
100
AcDbCircle
  8
drill
 62
256
370
-1
  6
ByLayer
 10
146.4999999999998295
 20
107.2499999999996305
 30
0.0
 40
1.5
  0
CIRCLE
  5
B0
100
AcDbEntity
100
AcDbCircle
  8
drill
 62
256
370
-1
  6
ByLayer
 10
134.1249999999998295
 20
123.9999999999999716
 30
0.0
 40
1.5
  0
CIRCLE
  5
B1
100
AcDbEntity
100
AcDbCircle
  8
drill
 62
256
370
-1
  6
ByLayer
 10
159.3749999999998295
 20
123.9999999999999716
 30
0.0
 40
1.5
  0
CIRCLE
  5
B2
100
AcDbEntity
100
AcDbCircle
  8
drill
 62
256
370
-1
  6
ByLayer
 10
146.4999999999997726
 20
84.3999999999997215
 30
0.0
 40
1.5
  0
CIRCLE
  5
B3
100
AcDbEntity
100
AcDbCircle
  8
drill
 62
256
370
-1
  6
ByLayer
 10
146.4999999999997726
 20
84.3999999999997215
 30
0.0
 40
1.5
  0
CIRCLE
  5
B4
100
AcDbEntity
100
AcDbCircle
  8
drill
 62
256
370
-1
  6
ByLayer
 10
146.4999999999997726
 20
55.2499999999996305
 30
0.0
 40
1.5
  0
CIRCLE
  5
B5
100
AcDbEntity
100
AcDbCircle
  8
drill
 62
256
370
-1
  6
ByLayer
 10
146.4999999999997726
 20
55.2499999999996305
 30
0.0
 40
1.5
  0
CIRCLE
  5
B6
100
AcDbEntity
100
AcDbCircle
  8
drill
 62
256
370
-1
  6
ByLayer
 10
134.1249999999997726
 20
71.9999999999999716
 30
0.0
 40
1.5
  0
CIRCLE
  5
B7
100
AcDbEntity
100
AcDbCircle
  8
drill
 62
256
370
-1
  6
ByLayer
 10
159.3749999999997726
 20
71.9999999999999716
 30
0.0
 40
1.5
  0
CIRCLE
  5
B8
100
AcDbEntity
100
AcDbCircle
  8
drill
 62
256
370
-1
  6
ByLayer
 10
199.4999999999998863
 20
240.3999999999997215
 30
0.0
 40
1.5
  0
CIRCLE
  5
B9
100
AcDbEntity
100
AcDbCircle
  8
drill
 62
256
370
-1
  6
ByLayer
 10
199.4999999999998863
 20
240.3999999999997215
 30
0.0
 40
1.5
  0
CIRCLE
  5
BA
100
AcDbEntity
100
AcDbCircle
  8
drill
 62
256
370
-1
  6
ByLayer
 10
199.4999999999998863
 20
211.2499999999996305
 30
0.0
 40
1.5
  0
CIRCLE
  5
BB
100
AcDbEntity
100
AcDbCircle
  8
drill
 62
256
370
-1
  6
ByLayer
 10
199.4999999999998863
 20
211.2499999999996305
 30
0.0
 40
1.5
  0
CIRCLE
  5
BC
100
AcDbEntity
100
AcDbCircle
  8
drill
 62
256
370
-1
  6
ByLayer
 10
187.1249999999998863
 20
227.9999999999999716
 30
0.0
 40
1.5
  0
CIRCLE
  5
BD
100
AcDbEntity
100
AcDbCircle
  8
drill
 62
256
370
-1
  6
ByLayer
 10
212.3749999999998863
 20
227.9999999999999716
 30
0.0
 40
1.5
  0
CIRCLE
  5
BE
100
AcDbEntity
100
AcDbCircle
  8
drill
 62
256
370
-1
  6
ByLayer
 10
199.4999999999998295
 20
188.3999999999997215
 30
0.0
 40
1.5
  0
CIRCLE
  5
BF
100
AcDbEntity
100
AcDbCircle
  8
drill
 62
256
370
-1
  6
ByLayer
 10
199.4999999999998295
 20
188.3999999999997215
 30
0.0
 40
1.5
  0
CIRCLE
  5
C0
100
AcDbEntity
100
AcDbCircle
  8
drill
 62
256
370
-1
  6
ByLayer
 10
199.4999999999998295
 20
159.2499999999996305
 30
0.0
 40
1.5
  0
CIRCLE
  5
C1
100
AcDbEntity
100
AcDbCircle
  8
drill
 62
256
370
-1
  6
ByLayer
 10
199.4999999999998295
 20
159.2499999999996305
 30
0.0
 40
1.5
  0
CIRCLE
  5
C2
100
AcDbEntity
100
AcDbCircle
  8
drill
 62
256
370
-1
  6
ByLayer
 10
187.1249999999998295
 20
175.9999999999999716
 30
0.0
 40
1.5
  0
CIRCLE
  5
C3
100
AcDbEntity
100
AcDbCircle
  8
drill
 62
256
370
-1
  6
ByLayer
 10
212.3749999999998295
 20
175.9999999999999716
 30
0.0
 40
1.5
  0
CIRCLE
  5
C4
100
AcDbEntity
100
AcDbCircle
  8
drill
 62
256
370
-1
  6
ByLayer
 10
199.4999999999997726
 20
136.3999999999997215
 30
0.0
 40
1.5
  0
CIRCLE
  5
C5
100
AcDbEntity
100
AcDbCircle
  8
drill
 62
256
370
-1
  6
ByLayer
 10
199.4999999999997726
 20
136.3999999999997215
 30
0.0
 40
1.5
  0
CIRCLE
  5
C6
100
AcDbEntity
100
AcDbCircle
  8
drill
 62
256
370
-1
  6
ByLayer
 10
199.4999999999997726
 20
107.2499999999996305
 30
0.0
 40
1.5
  0
CIRCLE
  5
C7
100
AcDbEntity
100
AcDbCircle
  8
drill
 62
256
370
-1
  6
ByLayer
 10
199.4999999999997726
 20
107.2499999999996305
 30
0.0
 40
1.5
  0
CIRCLE
  5
C8
100
AcDbEntity
100
AcDbCircle
  8
drill
 62
256
370
-1
  6
ByLayer
 10
187.1249999999997726
 20
123.9999999999999716
 30
0.0
 40
1.5
  0
CIRCLE
  5
C9
100
AcDbEntity
100
AcDbCircle
  8
drill
 62
256
370
-1
  6
ByLayer
 10
212.3749999999997726
 20
123.9999999999999716
 30
0.0
 40
1.5
  0
CIRCLE
  5
CA
100
AcDbEntity
100
AcDbCircle
  8
drill
 62
256
370
-1
  6
ByLayer
 10
199.4999999999997158
 20
84.3999999999997215
 30
0.0
 40
1.5
  0
CIRCLE
  5
CB
100
AcDbEntity
100
AcDbCircle
  8
drill
 62
256
370
-1
  6
ByLayer
 10
199.4999999999997158
 20
84.3999999999997215
 30
0.0
 40
1.5
  0
CIRCLE
  5
CC
100
AcDbEntity
100
AcDbCircle
  8
drill
 62
256
370
-1
  6
ByLayer
 10
199.4999999999997158
 20
55.2499999999996305
 30
0.0
 40
1.5
  0
CIRCLE
  5
CD
100
AcDbEntity
100
AcDbCircle
  8
drill
 62
256
370
-1
  6
ByLayer
 10
199.4999999999997158
 20
55.2499999999996305
 30
0.0
 40
1.5
  0
CIRCLE
  5
CE
100
AcDbEntity
100
AcDbCircle
  8
drill
 62
256
370
-1
  6
ByLayer
 10
187.1249999999997158
 20
71.9999999999999716
 30
0.0
 40
1.5
  0
CIRCLE
  5
CF
100
AcDbEntity
100
AcDbCircle
  8
drill
 62
256
370
-1
  6
ByLayer
 10
212.3749999999997158
 20
71.9999999999999716
 30
0.0
 40
1.5
  0
CIRCLE
  5
D0
100
AcDbEntity
100
AcDbCircle
  8
drill
 62
256
370
-1
  6
ByLayer
 10
252.4999999999998295
 20
240.3999999999997215
 30
0.0
 40
1.5
  0
CIRCLE
  5
D1
100
AcDbEntity
100
AcDbCircle
  8
drill
 62
256
370
-1
  6
ByLayer
 10
252.4999999999998295
 20
240.3999999999997215
 30
0.0
 40
1.5
  0
CIRCLE
  5
D2
100
AcDbEntity
100
AcDbCircle
  8
drill
 62
256
370
-1
  6
ByLayer
 10
252.4999999999998295
 20
211.2499999999996305
 30
0.0
 40
1.5
  0
CIRCLE
  5
D3
100
AcDbEntity
100
AcDbCircle
  8
drill
 62
256
370
-1
  6
ByLayer
 10
252.4999999999998295
 20
211.2499999999996305
 30
0.0
 40
1.5
  0
CIRCLE
  5
D4
100
AcDbEntity
100
AcDbCircle
  8
drill
 62
256
370
-1
  6
ByLayer
 10
240.1249999999998295
 20
227.9999999999999716
 30
0.0
 40
1.5
  0
CIRCLE
  5
D5
100
AcDbEntity
100
AcDbCircle
  8
drill
 62
256
370
-1
  6
ByLayer
 10
265.3749999999998295
 20
227.9999999999999716
 30
0.0
 40
1.5
  0
CIRCLE
  5
D6
100
AcDbEntity
100
AcDbCircle
  8
drill
 62
256
370
-1
  6
ByLayer
 10
252.4999999999997726
 20
188.3999999999997215
 30
0.0
 40
1.5
  0
CIRCLE
  5
D7
100
AcDbEntity
100
AcDbCircle
  8
drill
 62
256
370
-1
  6
ByLayer
 10
252.4999999999997726
 20
188.3999999999997215
 30
0.0
 40
1.5
  0
CIRCLE
  5
D8
100
AcDbEntity
100
AcDbCircle
  8
drill
 62
256
370
-1
  6
ByLayer
 10
252.4999999999997726
 20
159.2499999999996305
 30
0.0
 40
1.5
  0
CIRCLE
  5
D9
100
AcDbEntity
100
AcDbCircle
  8
drill
 62
256
370
-1
  6
ByLayer
 10
252.4999999999997726
 20
159.2499999999996305
 30
0.0
 40
1.5
  0
CIRCLE
  5
DA
100
AcDbEntity
100
AcDbCircle
  8
drill
 62
256
370
-1
  6
ByLayer
 10
240.1249999999997726
 20
175.9999999999999716
 30
0.0
 40
1.5
  0
CIRCLE
  5
DB
100
AcDbEntity
100
AcDbCircle
  8
drill
 62
256
370
-1
  6
ByLayer
 10
265.3749999999997726
 20
175.9999999999999716
 30
0.0
 40
1.5
  0
CIRCLE
  5
DC
100
AcDbEntity
100
AcDbCircle
  8
drill
 62
256
370
-1
  6
ByLayer
 10
252.4999999999997158
 20
136.3999999999997215
 30
0.0
 40
1.5
  0
CIRCLE
  5
DD
100
AcDbEntity
100
AcDbCircle
  8
drill
 62
256
370
-1
  6
ByLayer
 10
252.4999999999997158
 20
136.3999999999997215
 30
0.0
 40
1.5
  0
CIRCLE
  5
DE
100
AcDbEntity
100
AcDbCircle
  8
drill
 62
256
370
-1
  6
ByLayer
 10
252.4999999999997158
 20
107.2499999999996305
 30
0.0
 40
1.5
  0
CIRCLE
  5
DF
100
AcDbEntity
100
AcDbCircle
  8
drill
 62
256
370
-1
  6
ByLayer
 10
252.4999999999997158
 20
107.2499999999996305
 30
0.0
 40
1.5
  0
CIRCLE
  5
E0
100
AcDbEntity
100
AcDbCircle
  8
drill
 62
256
370
-1
  6
ByLayer
 10
240.1249999999997158
 20
123.9999999999999716
 30
0.0
 40
1.5
  0
CIRCLE
  5
E1
100
AcDbEntity
100
AcDbCircle
  8
drill
 62
256
370
-1
  6
ByLayer
 10
265.3749999999997158
 20
123.9999999999999716
 30
0.0
 40
1.5
  0
CIRCLE
  5
E2
100
AcDbEntity
100
AcDbCircle
  8
drill
 62
256
370
-1
  6
ByLayer
 10
252.4999999999996589
 20
84.3999999999997215
 30
0.0
 40
1.5
  0
CIRCLE
  5
E3
100
AcDbEntity
100
AcDbCircle
  8
drill
 62
256
370
-1
  6
ByLayer
 10
252.4999999999996589
 20
84.3999999999997215
 30
0.0
 40
1.5
  0
CIRCLE
  5
E4
100
AcDbEntity
100
AcDbCircle
  8
drill
 62
256
370
-1
  6
ByLayer
 10
252.4999999999996589
 20
55.2499999999996305
 30
0.0
 40
1.5
  0
CIRCLE
  5
E5
100
AcDbEntity
100
AcDbCircle
  8
drill
 62
256
370
-1
  6
ByLayer
 10
252.4999999999996589
 20
55.2499999999996305
 30
0.0
 40
1.5
  0
CIRCLE
  5
E6
100
AcDbEntity
100
AcDbCircle
  8
drill
 62
256
370
-1
  6
ByLayer
 10
240.1249999999996589
 20
71.9999999999999716
 30
0.0
 40
1.5
  0
CIRCLE
  5
E7
100
AcDbEntity
100
AcDbCircle
  8
drill
 62
256
370
-1
  6
ByLayer
 10
265.3749999999996589
 20
71.9999999999999716
 30
0.0
 40
1.5
  0
CIRCLE
  5
E8
100
AcDbEntity
100
AcDbCircle
  8
drill
 62
256
370
-1
  6
ByLayer
 10
305.4999999999997726
 20
240.3999999999997215
 30
0.0
 40
1.5
  0
CIRCLE
  5
E9
100
AcDbEntity
100
AcDbCircle
  8
drill
 62
256
370
-1
  6
ByLayer
 10
305.4999999999997726
 20
240.3999999999997215
 30
0.0
 40
1.5
  0
CIRCLE
  5
EA
100
AcDbEntity
100
AcDbCircle
  8
drill
 62
256
370
-1
  6
ByLayer
 10
305.4999999999997726
 20
211.2499999999996305
 30
0.0
 40
1.5
  0
CIRCLE
  5
EB
100
AcDbEntity
100
AcDbCircle
  8
drill
 62
256
370
-1
  6
ByLayer
 10
305.4999999999997726
 20
211.2499999999996305
 30
0.0
 40
1.5
  0
CIRCLE
  5
EC
100
AcDbEntity
100
AcDbCircle
  8
drill
 62
256
370
-1
  6
ByLayer
 10
293.1249999999997726
 20
227.9999999999999716
 30
0.0
 40
1.5
  0
CIRCLE
  5
ED
100
AcDbEntity
100
AcDbCircle
  8
drill
 62
256
370
-1
  6
ByLayer
 10
318.3749999999997726
 20
227.9999999999999716
 30
0.0
 40
1.5
  0
CIRCLE
  5
EE
100
AcDbEntity
100
AcDbCircle
  8
drill
 62
256
370
-1
  6
ByLayer
 10
305.4999999999997158
 20
188.3999999999997215
 30
0.0
 40
1.5
  0
CIRCLE
  5
EF
100
AcDbEntity
100
AcDbCircle
  8
drill
 62
256
370
-1
  6
ByLayer
 10
305.4999999999997158
 20
188.3999999999997215
 30
0.0
 40
1.5
  0
CIRCLE
  5
F0
100
AcDbEntity
100
AcDbCircle
  8
drill
 62
256
370
-1
  6
ByLayer
 10
305.4999999999997158
 20
159.2499999999996305
 30
0.0
 40
1.5
  0
CIRCLE
  5
F1
100
AcDbEntity
100
AcDbCircle
  8
drill
 62
256
370
-1
  6
ByLayer
 10
305.4999999999997158
 20
159.2499999999996305
 30
0.0
 40
1.5
  0
CIRCLE
  5
F2
100
AcDbEntity
100
AcDbCircle
  8
drill
 62
256
370
-1
  6
ByLayer
 10
293.1249999999997158
 20
175.9999999999999716
 30
0.0
 40
1.5
  0
CIRCLE
  5
F3
100
AcDbEntity
100
AcDbCircle
  8
drill
 62
256
370
-1
  6
ByLayer
 10
318.3749999999997158
 20
175.9999999999999716
 30
0.0
 40
1.5
  0
CIRCLE
  5
F4
100
AcDbEntity
100
AcDbCircle
  8
drill
 62
256
370
-1
  6
ByLayer
 10
305.4999999999996589
 20
136.3999999999997215
 30
0.0
 40
1.5
  0
CIRCLE
  5
F5
100
AcDbEntity
100
AcDbCircle
  8
drill
 62
256
370
-1
  6
ByLayer
 10
305.4999999999996589
 20
136.3999999999997215
 30
0.0
 40
1.5
  0
CIRCLE
  5
F6
100
AcDbEntity
100
AcDbCircle
  8
drill
 62
256
370
-1
  6
ByLayer
 10
305.4999999999996589
 20
107.2499999999996305
 30
0.0
 40
1.5
  0
CIRCLE
  5
F7
100
AcDbEntity
100
AcDbCircle
  8
drill
 62
256
370
-1
  6
ByLayer
 10
305.4999999999996589
 20
107.2499999999996305
 30
0.0
 40
1.5
  0
CIRCLE
  5
F8
100
AcDbEntity
100
AcDbCircle
  8
drill
 62
256
370
-1
  6
ByLayer
 10
293.1249999999996589
 20
123.9999999999999716
 30
0.0
 40
1.5
  0
CIRCLE
  5
F9
100
AcDbEntity
100
AcDbCircle
  8
drill
 62
256
370
-1
  6
ByLayer
 10
318.3749999999996589
 20
123.9999999999999716
 30
0.0
 40
1.5
  0
CIRCLE
  5
FA
100
AcDbEntity
100
AcDbCircle
  8
drill
 62
256
370
-1
  6
ByLayer
 10
305.4999999999996021
 20
84.3999999999997215
 30
0.0
 40
1.5
  0
CIRCLE
  5
FB
100
AcDbEntity
100
AcDbCircle
  8
drill
 62
256
370
-1
  6
ByLayer
 10
305.4999999999996021
 20
84.3999999999997215
 30
0.0
 40
1.5
  0
CIRCLE
  5
FC
100
AcDbEntity
100
AcDbCircle
  8
drill
 62
256
370
-1
  6
ByLayer
 10
305.4999999999996021
 20
55.2499999999996305
 30
0.0
 40
1.5
  0
CIRCLE
  5
FD
100
AcDbEntity
100
AcDbCircle
  8
drill
 62
256
370
-1
  6
ByLayer
 10
305.4999999999996021
 20
55.2499999999996305
 30
0.0
 40
1.5
  0
CIRCLE
  5
FE
100
AcDbEntity
100
AcDbCircle
  8
drill
 62
256
370
-1
  6
ByLayer
 10
293.1249999999996021
 20
71.9999999999999716
 30
0.0
 40
1.5
  0
CIRCLE
  5
FF
100
AcDbEntity
100
AcDbCircle
  8
drill
 62
256
370
-1
  6
ByLayer
 10
318.3749999999996021
 20
71.9999999999999716
 30
0.0
 40
1.5
  0
CIRCLE
  5
100
100
AcDbEntity
100
AcDbCircle
  8
drill
 62
256
370
-1
  6
ByLayer
 10
358.4999999999997158
 20
240.3999999999997215
 30
0.0
 40
1.5
  0
CIRCLE
  5
101
100
AcDbEntity
100
AcDbCircle
  8
drill
 62
256
370
-1
  6
ByLayer
 10
358.4999999999997158
 20
240.3999999999997215
 30
0.0
 40
1.5
  0
CIRCLE
  5
102
100
AcDbEntity
100
AcDbCircle
  8
drill
 62
256
370
-1
  6
ByLayer
 10
358.4999999999997158
 20
211.2499999999996305
 30
0.0
 40
1.5
  0
CIRCLE
  5
103
100
AcDbEntity
100
AcDbCircle
  8
drill
 62
256
370
-1
  6
ByLayer
 10
358.4999999999997158
 20
211.2499999999996305
 30
0.0
 40
1.5
  0
CIRCLE
  5
104
100
AcDbEntity
100
AcDbCircle
  8
drill
 62
256
370
-1
  6
ByLayer
 10
346.1249999999997158
 20
227.9999999999999716
 30
0.0
 40
1.5
  0
CIRCLE
  5
105
100
AcDbEntity
100
AcDbCircle
  8
drill
 62
256
370
-1
  6
ByLayer
 10
371.3749999999997158
 20
227.9999999999999716
 30
0.0
 40
1.5
  0
CIRCLE
  5
106
100
AcDbEntity
100
AcDbCircle
  8
drill
 62
256
370
-1
  6
ByLayer
 10
358.4999999999996589
 20
188.3999999999997215
 30
0.0
 40
1.5
  0
CIRCLE
  5
107
100
AcDbEntity
100
AcDbCircle
  8
drill
 62
256
370
-1
  6
ByLayer
 10
358.4999999999996589
 20
188.3999999999997215
 30
0.0
 40
1.5
  0
CIRCLE
  5
108
100
AcDbEntity
100
AcDbCircle
  8
drill
 62
256
370
-1
  6
ByLayer
 10
358.4999999999996589
 20
159.2499999999996305
 30
0.0
 40
1.5
  0
CIRCLE
  5
109
100
AcDbEntity
100
AcDbCircle
  8
drill
 62
256
370
-1
  6
ByLayer
 10
358.4999999999996589
 20
159.2499999999996305
 30
0.0
 40
1.5
  0
CIRCLE
  5
10A
100
AcDbEntity
100
AcDbCircle
  8
drill
 62
256
370
-1
  6
ByLayer
 10
346.1249999999996589
 20
175.9999999999999716
 30
0.0
 40
1.5
  0
CIRCLE
  5
10B
100
AcDbEntity
100
AcDbCircle
  8
drill
 62
256
370
-1
  6
ByLayer
 10
371.3749999999996589
 20
175.9999999999999716
 30
0.0
 40
1.5
  0
CIRCLE
  5
10C
100
AcDbEntity
100
AcDbCircle
  8
drill
 62
256
370
-1
  6
ByLayer
 10
358.4999999999996021
 20
136.3999999999997215
 30
0.0
 40
1.5
  0
CIRCLE
  5
10D
100
AcDbEntity
100
AcDbCircle
  8
drill
 62
256
370
-1
  6
ByLayer
 10
358.4999999999996021
 20
136.3999999999997215
 30
0.0
 40
1.5
  0
CIRCLE
  5
10E
100
AcDbEntity
100
AcDbCircle
  8
drill
 62
256
370
-1
  6
ByLayer
 10
358.4999999999996021
 20
107.2499999999996305
 30
0.0
 40
1.5
  0
CIRCLE
  5
10F
100
AcDbEntity
100
AcDbCircle
  8
drill
 62
256
370
-1
  6
ByLayer
 10
358.4999999999996021
 20
107.2499999999996305
 30
0.0
 40
1.5
  0
CIRCLE
  5
110
100
AcDbEntity
100
AcDbCircle
  8
drill
 62
256
370
-1
  6
ByLayer
 10
346.1249999999996021
 20
123.9999999999999716
 30
0.0
 40
1.5
  0
CIRCLE
  5
111
100
AcDbEntity
100
AcDbCircle
  8
drill
 62
256
370
-1
  6
ByLayer
 10
371.3749999999996021
 20
123.9999999999999716
 30
0.0
 40
1.5
  0
CIRCLE
  5
112
100
AcDbEntity
100
AcDbCircle
  8
drill
 62
256
370
-1
  6
ByLayer
 10
358.4999999999995453
 20
84.3999999999997215
 30
0.0
 40
1.5
  0
CIRCLE
  5
113
100
AcDbEntity
100
AcDbCircle
  8
drill
 62
256
370
-1
  6
ByLayer
 10
358.4999999999995453
 20
84.3999999999997215
 30
0.0
 40
1.5
  0
CIRCLE
  5
114
100
AcDbEntity
100
AcDbCircle
  8
drill
 62
256
370
-1
  6
ByLayer
 10
358.4999999999995453
 20
55.2499999999996305
 30
0.0
 40
1.5
  0
CIRCLE
  5
115
100
AcDbEntity
100
AcDbCircle
  8
drill
 62
256
370
-1
  6
ByLayer
 10
358.4999999999995453
 20
55.2499999999996305
 30
0.0
 40
1.5
  0
CIRCLE
  5
116
100
AcDbEntity
100
AcDbCircle
  8
drill
 62
256
370
-1
  6
ByLayer
 10
346.1249999999995453
 20
71.9999999999999716
 30
0.0
 40
1.5
  0
CIRCLE
  5
117
100
AcDbEntity
100
AcDbCircle
  8
drill
 62
256
370
-1
  6
ByLayer
 10
371.3749999999995453
 20
71.9999999999999716
 30
0.0
 40
1.5
  0
LINE
  5
118
100
AcDbEntity
100
AcDbLine
  8
washer nuts
 62
256
370
-1
  6
ByLayer
 10
86.3550000000000182
 20
223.874832326640103
 30
0.0
 11
86.3550000000000182
 21
232.125167673359897
 31
0.0
  0
LINE
  5
119
100
AcDbEntity
100
AcDbLine
  8
washer nuts
 62
256
370
-1
  6
ByLayer
 10
86.3550000000000182
 20
232.125167673359897
 30
0.0
 11
93.5
 21
236.2503353467196803
 31
0.0
  0
LINE
  5
11A
100
AcDbEntity
100
AcDbLine
  8
washer nuts
 62
256
370
-1
  6
ByLayer
 10
93.5
 20
236.2503353467196803
 30
0.0
 11
100.6449999999999818
 21
232.1251676733597833
 31
0.0
  0
LINE
  5
11B
100
AcDbEntity
100
AcDbLine
  8
washer nuts
 62
256
370
-1
  6
ByLayer
 10
100.6449999999999818
 20
232.1251676733597833
 30
0.0
 11
100.6449999999999818
 21
223.874832326640103
 31
0.0
  0
LINE
  5
11C
100
AcDbEntity
100
AcDbLine
  8
washer nuts
 62
256
370
-1
  6
ByLayer
 10
93.5
 20
219.749664653280206
 30
0.0
 11
86.3550000000000182
 21
223.874832326640103
 31
0.0
  0
LINE
  5
11D
100
AcDbEntity
100
AcDbLine
  8
washer nuts
 62
256
370
-1
  6
ByLayer
 10
100.6449999999999818
 20
223.874832326640103
 30
0.0
 11
93.5
 21
219.749664653280206
 31
0.0
  0
LINE
  5
11E
100
AcDbEntity
100
AcDbLine
  8
washer nuts
 62
256
370
-1
  6
ByLayer
 10
86.3550000000000182
 20
171.874832326640103
 30
0.0
 11
86.3550000000000182
 21
180.125167673359897
 31
0.0
  0
LINE
  5
11F
100
AcDbEntity
100
AcDbLine
  8
washer nuts
 62
256
370
-1
  6
ByLayer
 10
86.3550000000000182
 20
180.125167673359897
 30
0.0
 11
93.5
 21
184.2503353467196803
 31
0.0
  0
LINE
  5
120
100
AcDbEntity
100
AcDbLine
  8
washer nuts
 62
256
370
-1
  6
ByLayer
 10
93.5
 20
184.2503353467196803
 30
0.0
 11
100.6449999999999818
 21
180.1251676733597833
 31
0.0
  0
LINE
  5
121
100
AcDbEntity
100
AcDbLine
  8
washer nuts
 62
256
370
-1
  6
ByLayer
 10
100.6449999999999818
 20
180.1251676733597833
 30
0.0
 11
100.6449999999999818
 21
171.874832326640103
 31
0.0
  0
LINE
  5
122
100
AcDbEntity
100
AcDbLine
  8
washer nuts
 62
256
370
-1
  6
ByLayer
 10
93.5
 20
167.749664653280206
 30
0.0
 11
86.3550000000000182
 21
171.874832326640103
 31
0.0
  0
LINE
  5
123
100
AcDbEntity
100
AcDbLine
  8
washer nuts
 62
256
370
-1
  6
ByLayer
 10
100.6449999999999818
 20
171.874832326640103
 30
0.0
 11
93.5
 21
167.749664653280206
 31
0.0
  0
LINE
  5
124
100
AcDbEntity
100
AcDbLine
  8
washer nuts
 62
256
370
-1
  6
ByLayer
 10
86.3550000000000182
 20
119.874832326640103
 30
0.0
 11
86.3550000000000182
 21
128.125167673359897
 31
0.0
  0
LINE
  5
125
100
AcDbEntity
100
AcDbLine
  8
washer nuts
 62
256
370
-1
  6
ByLayer
 10
86.3550000000000182
 20
128.125167673359897
 30
0.0
 11
93.5
 21
132.2503353467196803
 31
0.0
  0
LINE
  5
126
100
AcDbEntity
100
AcDbLine
  8
washer nuts
 62
256
370
-1
  6
ByLayer
 10
93.5
 20
132.2503353467196803
 30
0.0
 11
100.6449999999999818
 21
128.1251676733597833
 31
0.0
  0
LINE
  5
127
100
AcDbEntity
100
AcDbLine
  8
washer nuts
 62
256
370
-1
  6
ByLayer
 10
100.6449999999999818
 20
128.1251676733597833
 30
0.0
 11
100.6449999999999818
 21
119.874832326640103
 31
0.0
  0
LINE
  5
128
100
AcDbEntity
100
AcDbLine
  8
washer nuts
 62
256
370
-1
  6
ByLayer
 10
93.5
 20
115.749664653280206
 30
0.0
 11
86.3550000000000182
 21
119.874832326640103
 31
0.0
  0
LINE
  5
129
100
AcDbEntity
100
AcDbLine
  8
washer nuts
 62
256
370
-1
  6
ByLayer
 10
100.6449999999999818
 20
119.874832326640103
 30
0.0
 11
93.5
 21
115.749664653280206
 31
0.0
  0
LINE
  5
12A
100
AcDbEntity
100
AcDbLine
  8
washer nuts
 62
256
370
-1
  6
ByLayer
 10
86.3550000000000182
 20
67.874832326640103
 30
0.0
 11
86.3550000000000182
 21
76.125167673359897
 31
0.0
  0
LINE
  5
12B
100
AcDbEntity
100
AcDbLine
  8
washer nuts
 62
256
370
-1
  6
ByLayer
 10
86.3550000000000182
 20
76.125167673359897
 30
0.0
 11
93.5
 21
80.2503353467196803
 31
0.0
  0
LINE
  5
12C
100
AcDbEntity
100
AcDbLine
  8
washer nuts
 62
256
370
-1
  6
ByLayer
 10
93.5
 20
80.2503353467196803
 30
0.0
 11
100.6449999999999818
 21
76.1251676733597833
 31
0.0
  0
LINE
  5
12D
100
AcDbEntity
100
AcDbLine
  8
washer nuts
 62
256
370
-1
  6
ByLayer
 10
100.6449999999999818
 20
76.1251676733597833
 30
0.0
 11
100.6449999999999818
 21
67.874832326640103
 31
0.0
  0
LINE
  5
12E
100
AcDbEntity
100
AcDbLine
  8
washer nuts
 62
256
370
-1
  6
ByLayer
 10
93.5
 20
63.749664653280206
 30
0.0
 11
86.3550000000000182
 21
67.874832326640103
 31
0.0
  0
LINE
  5
12F
100
AcDbEntity
100
AcDbLine
  8
washer nuts
 62
256
370
-1
  6
ByLayer
 10
100.6449999999999818
 20
67.874832326640103
 30
0.0
 11
93.5
 21
63.749664653280206
 31
0.0
  0
LINE
  5
130
100
AcDbEntity
100
AcDbLine
  8
washer nuts
 62
256
370
-1
  6
ByLayer
 10
139.3549999999999613
 20
223.874832326640103
 30
0.0
 11
139.3549999999999613
 21
232.125167673359897
 31
0.0
  0
LINE
  5
131
100
AcDbEntity
100
AcDbLine
  8
washer nuts
 62
256
370
-1
  6
ByLayer
 10
139.3549999999999613
 20
232.125167673359897
 30
0.0
 11
146.4999999999999432
 21
236.2503353467196803
 31
0.0
  0
LINE
  5
132
100
AcDbEntity
100
AcDbLine
  8
washer nuts
 62
256
370
-1
  6
ByLayer
 10
146.4999999999999432
 20
236.2503353467196803
 30
0.0
 11
153.644999999999925
 21
232.1251676733597833
 31
0.0
  0
LINE
  5
133
100
AcDbEntity
100
AcDbLine
  8
washer nuts
 62
256
370
-1
  6
ByLayer
 10
153.644999999999925
 20
232.1251676733597833
 30
0.0
 11
153.644999999999925
 21
223.874832326640103
 31
0.0
  0
LINE
  5
134
100
AcDbEntity
100
AcDbLine
  8
washer nuts
 62
256
370
-1
  6
ByLayer
 10
146.4999999999999432
 20
219.749664653280206
 30
0.0
 11
139.3549999999999613
 21
223.874832326640103
 31
0.0
  0
LINE
  5
135
100
AcDbEntity
100
AcDbLine
  8
washer nuts
 62
256
370
-1
  6
ByLayer
 10
153.644999999999925
 20
223.874832326640103
 30
0.0
 11
146.4999999999999432
 21
219.749664653280206
 31
0.0
  0
LINE
  5
136
100
AcDbEntity
100
AcDbLine
  8
washer nuts
 62
256
370
-1
  6
ByLayer
 10
139.3549999999999613
 20
171.874832326640103
 30
0.0
 11
139.3549999999999613
 21
180.125167673359897
 31
0.0
  0
LINE
  5
137
100
AcDbEntity
100
AcDbLine
  8
washer nuts
 62
256
370
-1
  6
ByLayer
 10
139.3549999999999613
 20
180.125167673359897
 30
0.0
 11
146.4999999999999432
 21
184.2503353467196803
 31
0.0
  0
LINE
  5
138
100
AcDbEntity
100
AcDbLine
  8
washer nuts
 62
256
370
-1
  6
ByLayer
 10
146.4999999999999432
 20
184.2503353467196803
 30
0.0
 11
153.644999999999925
 21
180.1251676733597833
 31
0.0
  0
LINE
  5
139
100
AcDbEntity
100
AcDbLine
  8
washer nuts
 62
256
370
-1
  6
ByLayer
 10
153.644999999999925
 20
180.1251676733597833
 30
0.0
 11
153.644999999999925
 21
171.874832326640103
 31
0.0
  0
LINE
  5
13A
100
AcDbEntity
100
AcDbLine
  8
washer nuts
 62
256
370
-1
  6
ByLayer
 10
146.4999999999999432
 20
167.749664653280206
 30
0.0
 11
139.3549999999999613
 21
171.874832326640103
 31
0.0
  0
LINE
  5
13B
100
AcDbEntity
100
AcDbLine
  8
washer nuts
 62
256
370
-1
  6
ByLayer
 10
153.644999999999925
 20
171.874832326640103
 30
0.0
 11
146.4999999999999432
 21
167.749664653280206
 31
0.0
  0
LINE
  5
13C
100
AcDbEntity
100
AcDbLine
  8
washer nuts
 62
256
370
-1
  6
ByLayer
 10
139.3549999999999613
 20
119.874832326640103
 30
0.0
 11
139.3549999999999613
 21
128.125167673359897
 31
0.0
  0
LINE
  5
13D
100
AcDbEntity
100
AcDbLine
  8
washer nuts
 62
256
370
-1
  6
ByLayer
 10
139.3549999999999613
 20
128.125167673359897
 30
0.0
 11
146.4999999999999432
 21
132.2503353467196803
 31
0.0
  0
LINE
  5
13E
100
AcDbEntity
100
AcDbLine
  8
washer nuts
 62
256
370
-1
  6
ByLayer
 10
146.4999999999999432
 20
132.2503353467196803
 30
0.0
 11
153.644999999999925
 21
128.1251676733597833
 31
0.0
  0
LINE
  5
13F
100
AcDbEntity
100
AcDbLine
  8
washer nuts
 62
256
370
-1
  6
ByLayer
 10
153.644999999999925
 20
128.1251676733597833
 30
0.0
 11
153.644999999999925
 21
119.874832326640103
 31
0.0
  0
LINE
  5
140
100
AcDbEntity
100
AcDbLine
  8
washer nuts
 62
256
370
-1
  6
ByLayer
 10
146.4999999999999432
 20
115.749664653280206
 30
0.0
 11
139.3549999999999613
 21
119.874832326640103
 31
0.0
  0
LINE
  5
141
100
AcDbEntity
100
AcDbLine
  8
washer nuts
 62
256
370
-1
  6
ByLayer
 10
153.644999999999925
 20
119.874832326640103
 30
0.0
 11
146.4999999999999432
 21
115.749664653280206
 31
0.0
  0
LINE
  5
142
100
AcDbEntity
100
AcDbLine
  8
washer nuts
 62
256
370
-1
  6
ByLayer
 10
139.3549999999999613
 20
67.874832326640103
 30
0.0
 11
139.3549999999999613
 21
76.125167673359897
 31
0.0
  0
LINE
  5
143
100
AcDbEntity
100
AcDbLine
  8
washer nuts
 62
256
370
-1
  6
ByLayer
 10
139.3549999999999613
 20
76.125167673359897
 30
0.0
 11
146.4999999999999432
 21
80.2503353467196803
 31
0.0
  0
LINE
  5
144
100
AcDbEntity
100
AcDbLine
  8
washer nuts
 62
256
370
-1
  6
ByLayer
 10
146.4999999999999432
 20
80.2503353467196803
 30
0.0
 11
153.644999999999925
 21
76.1251676733597833
 31
0.0
  0
LINE
  5
145
100
AcDbEntity
100
AcDbLine
  8
washer nuts
 62
256
370
-1
  6
ByLayer
 10
153.644999999999925
 20
76.1251676733597833
 30
0.0
 11
153.644999999999925
 21
67.874832326640103
 31
0.0
  0
LINE
  5
146
100
AcDbEntity
100
AcDbLine
  8
washer nuts
 62
256
370
-1
  6
ByLayer
 10
146.4999999999999432
 20
63.749664653280206
 30
0.0
 11
139.3549999999999613
 21
67.874832326640103
 31
0.0
  0
LINE
  5
147
100
AcDbEntity
100
AcDbLine
  8
washer nuts
 62
256
370
-1
  6
ByLayer
 10
153.644999999999925
 20
67.874832326640103
 30
0.0
 11
146.4999999999999432
 21
63.749664653280206
 31
0.0
  0
LINE
  5
148
100
AcDbEntity
100
AcDbLine
  8
washer nuts
 62
256
370
-1
  6
ByLayer
 10
192.3549999999999045
 20
223.874832326640103
 30
0.0
 11
192.3549999999999045
 21
232.125167673359897
 31
0.0
  0
LINE
  5
149
100
AcDbEntity
100
AcDbLine
  8
washer nuts
 62
256
370
-1
  6
ByLayer
 10
192.3549999999999045
 20
232.125167673359897
 30
0.0
 11
199.4999999999998863
 21
236.2503353467196803
 31
0.0
  0
LINE
  5
14A
100
AcDbEntity
100
AcDbLine
  8
washer nuts
 62
256
370
-1
  6
ByLayer
 10
199.4999999999998863
 20
236.2503353467196803
 30
0.0
 11
206.6449999999998681
 21
232.1251676733597833
 31
0.0
  0
LINE
  5
14B
100
AcDbEntity
100
AcDbLine
  8
washer nuts
 62
256
370
-1
  6
ByLayer
 10
206.6449999999998681
 20
232.1251676733597833
 30
0.0
 11
206.6449999999998681
 21
223.874832326640103
 31
0.0
  0
LINE
  5
14C
100
AcDbEntity
100
AcDbLine
  8
washer nuts
 62
256
370
-1
  6
ByLayer
 10
199.4999999999998863
 20
219.749664653280206
 30
0.0
 11
192.3549999999999045
 21
223.874832326640103
 31
0.0
  0
LINE
  5
14D
100
AcDbEntity
100
AcDbLine
  8
washer nuts
 62
256
370
-1
  6
ByLayer
 10
206.6449999999998681
 20
223.874832326640103
 30
0.0
 11
199.4999999999998863
 21
219.749664653280206
 31
0.0
  0
LINE
  5
14E
100
AcDbEntity
100
AcDbLine
  8
washer nuts
 62
256
370
-1
  6
ByLayer
 10
192.3549999999999045
 20
171.874832326640103
 30
0.0
 11
192.3549999999999045
 21
180.125167673359897
 31
0.0
  0
LINE
  5
14F
100
AcDbEntity
100
AcDbLine
  8
washer nuts
 62
256
370
-1
  6
ByLayer
 10
192.3549999999999045
 20
180.125167673359897
 30
0.0
 11
199.4999999999998863
 21
184.2503353467196803
 31
0.0
  0
LINE
  5
150
100
AcDbEntity
100
AcDbLine
  8
washer nuts
 62
256
370
-1
  6
ByLayer
 10
199.4999999999998863
 20
184.2503353467196803
 30
0.0
 11
206.6449999999998681
 21
180.1251676733597833
 31
0.0
  0
LINE
  5
151
100
AcDbEntity
100
AcDbLine
  8
washer nuts
 62
256
370
-1
  6
ByLayer
 10
206.6449999999998681
 20
180.1251676733597833
 30
0.0
 11
206.6449999999998681
 21
171.874832326640103
 31
0.0
  0
LINE
  5
152
100
AcDbEntity
100
AcDbLine
  8
washer nuts
 62
256
370
-1
  6
ByLayer
 10
199.4999999999998863
 20
167.749664653280206
 30
0.0
 11
192.3549999999999045
 21
171.874832326640103
 31
0.0
  0
LINE
  5
153
100
AcDbEntity
100
AcDbLine
  8
washer nuts
 62
256
370
-1
  6
ByLayer
 10
206.6449999999998681
 20
171.874832326640103
 30
0.0
 11
199.4999999999998863
 21
167.749664653280206
 31
0.0
  0
LINE
  5
154
100
AcDbEntity
100
AcDbLine
  8
washer nuts
 62
256
370
-1
  6
ByLayer
 10
192.3549999999999045
 20
119.874832326640103
 30
0.0
 11
192.3549999999999045
 21
128.125167673359897
 31
0.0
  0
LINE
  5
155
100
AcDbEntity
100
AcDbLine
  8
washer nuts
 62
256
370
-1
  6
ByLayer
 10
192.3549999999999045
 20
128.125167673359897
 30
0.0
 11
199.4999999999998863
 21
132.2503353467196803
 31
0.0
  0
LINE
  5
156
100
AcDbEntity
100
AcDbLine
  8
washer nuts
 62
256
370
-1
  6
ByLayer
 10
199.4999999999998863
 20
132.2503353467196803
 30
0.0
 11
206.6449999999998681
 21
128.1251676733597833
 31
0.0
  0
LINE
  5
157
100
AcDbEntity
100
AcDbLine
  8
washer nuts
 62
256
370
-1
  6
ByLayer
 10
206.6449999999998681
 20
128.1251676733597833
 30
0.0
 11
206.6449999999998681
 21
119.874832326640103
 31
0.0
  0
LINE
  5
158
100
AcDbEntity
100
AcDbLine
  8
washer nuts
 62
256
370
-1
  6
ByLayer
 10
199.4999999999998863
 20
115.749664653280206
 30
0.0
 11
192.3549999999999045
 21
119.874832326640103
 31
0.0
  0
LINE
  5
159
100
AcDbEntity
100
AcDbLine
  8
washer nuts
 62
256
370
-1
  6
ByLayer
 10
206.6449999999998681
 20
119.874832326640103
 30
0.0
 11
199.4999999999998863
 21
115.749664653280206
 31
0.0
  0
LINE
  5
15A
100
AcDbEntity
100
AcDbLine
  8
washer nuts
 62
256
370
-1
  6
ByLayer
 10
192.3549999999999045
 20
67.874832326640103
 30
0.0
 11
192.3549999999999045
 21
76.125167673359897
 31
0.0
  0
LINE
  5
15B
100
AcDbEntity
100
AcDbLine
  8
washer nuts
 62
256
370
-1
  6
ByLayer
 10
192.3549999999999045
 20
76.125167673359897
 30
0.0
 11
199.4999999999998863
 21
80.2503353467196803
 31
0.0
  0
LINE
  5
15C
100
AcDbEntity
100
AcDbLine
  8
washer nuts
 62
256
370
-1
  6
ByLayer
 10
199.4999999999998863
 20
80.2503353467196803
 30
0.0
 11
206.6449999999998681
 21
76.1251676733597833
 31
0.0
  0
LINE
  5
15D
100
AcDbEntity
100
AcDbLine
  8
washer nuts
 62
256
370
-1
  6
ByLayer
 10
206.6449999999998681
 20
76.1251676733597833
 30
0.0
 11
206.6449999999998681
 21
67.874832326640103
 31
0.0
  0
LINE
  5
15E
100
AcDbEntity
100
AcDbLine
  8
washer nuts
 62
256
370
-1
  6
ByLayer
 10
199.4999999999998863
 20
63.749664653280206
 30
0.0
 11
192.3549999999999045
 21
67.874832326640103
 31
0.0
  0
LINE
  5
15F
100
AcDbEntity
100
AcDbLine
  8
washer nuts
 62
256
370
-1
  6
ByLayer
 10
206.6449999999998681
 20
67.874832326640103
 30
0.0
 11
199.4999999999998863
 21
63.749664653280206
 31
0.0
  0
LINE
  5
160
100
AcDbEntity
100
AcDbLine
  8
washer nuts
 62
256
370
-1
  6
ByLayer
 10
245.3549999999998477
 20
223.874832326640103
 30
0.0
 11
245.3549999999998477
 21
232.125167673359897
 31
0.0
  0
LINE
  5
161
100
AcDbEntity
100
AcDbLine
  8
washer nuts
 62
256
370
-1
  6
ByLayer
 10
245.3549999999998477
 20
232.125167673359897
 30
0.0
 11
252.4999999999998295
 21
236.2503353467196803
 31
0.0
  0
LINE
  5
162
100
AcDbEntity
100
AcDbLine
  8
washer nuts
 62
256
370
-1
  6
ByLayer
 10
252.4999999999998295
 20
236.2503353467196803
 30
0.0
 11
259.6449999999998113
 21
232.1251676733597833
 31
0.0
  0
LINE
  5
163
100
AcDbEntity
100
AcDbLine
  8
washer nuts
 62
256
370
-1
  6
ByLayer
 10
259.6449999999998113
 20
232.1251676733597833
 30
0.0
 11
259.6449999999998113
 21
223.874832326640103
 31
0.0
  0
LINE
  5
164
100
AcDbEntity
100
AcDbLine
  8
washer nuts
 62
256
370
-1
  6
ByLayer
 10
252.4999999999998295
 20
219.749664653280206
 30
0.0
 11
245.3549999999998477
 21
223.874832326640103
 31
0.0
  0
LINE
  5
165
100
AcDbEntity
100
AcDbLine
  8
washer nuts
 62
256
370
-1
  6
ByLayer
 10
259.6449999999998113
 20
223.874832326640103
 30
0.0
 11
252.4999999999998295
 21
219.749664653280206
 31
0.0
  0
LINE
  5
166
100
AcDbEntity
100
AcDbLine
  8
washer nuts
 62
256
370
-1
  6
ByLayer
 10
245.3549999999998477
 20
171.874832326640103
 30
0.0
 11
245.3549999999998477
 21
180.125167673359897
 31
0.0
  0
LINE
  5
167
100
AcDbEntity
100
AcDbLine
  8
washer nuts
 62
256
370
-1
  6
ByLayer
 10
245.3549999999998477
 20
180.125167673359897
 30
0.0
 11
252.4999999999998295
 21
184.2503353467196803
 31
0.0
  0
LINE
  5
168
100
AcDbEntity
100
AcDbLine
  8
washer nuts
 62
256
370
-1
  6
ByLayer
 10
252.4999999999998295
 20
184.2503353467196803
 30
0.0
 11
259.6449999999998113
 21
180.1251676733597833
 31
0.0
  0
LINE
  5
169
100
AcDbEntity
100
AcDbLine
  8
washer nuts
 62
256
370
-1
  6
ByLayer
 10
259.6449999999998113
 20
180.1251676733597833
 30
0.0
 11
259.6449999999998113
 21
171.874832326640103
 31
0.0
  0
LINE
  5
16A
100
AcDbEntity
100
AcDbLine
  8
washer nuts
 62
256
370
-1
  6
ByLayer
 10
252.4999999999998295
 20
167.749664653280206
 30
0.0
 11
245.3549999999998477
 21
171.874832326640103
 31
0.0
  0
LINE
  5
16B
100
AcDbEntity
100
AcDbLine
  8
washer nuts
 62
256
370
-1
  6
ByLayer
 10
259.6449999999998113
 20
171.874832326640103
 30
0.0
 11
252.4999999999998295
 21
167.749664653280206
 31
0.0
  0
LINE
  5
16C
100
AcDbEntity
100
AcDbLine
  8
washer nuts
 62
256
370
-1
  6
ByLayer
 10
245.3549999999998477
 20
119.874832326640103
 30
0.0
 11
245.3549999999998477
 21
128.125167673359897
 31
0.0
  0
LINE
  5
16D
100
AcDbEntity
100
AcDbLine
  8
washer nuts
 62
256
370
-1
  6
ByLayer
 10
245.3549999999998477
 20
128.125167673359897
 30
0.0
 11
252.4999999999998295
 21
132.2503353467196803
 31
0.0
  0
LINE
  5
16E
100
AcDbEntity
100
AcDbLine
  8
washer nuts
 62
256
370
-1
  6
ByLayer
 10
252.4999999999998295
 20
132.2503353467196803
 30
0.0
 11
259.6449999999998113
 21
128.1251676733597833
 31
0.0
  0
LINE
  5
16F
100
AcDbEntity
100
AcDbLine
  8
washer nuts
 62
256
370
-1
  6
ByLayer
 10
259.6449999999998113
 20
128.1251676733597833
 30
0.0
 11
259.6449999999998113
 21
119.874832326640103
 31
0.0
  0
LINE
  5
170
100
AcDbEntity
100
AcDbLine
  8
washer nuts
 62
256
370
-1
  6
ByLayer
 10
252.4999999999998295
 20
115.749664653280206
 30
0.0
 11
245.3549999999998477
 21
119.874832326640103
 31
0.0
  0
LINE
  5
171
100
AcDbEntity
100
AcDbLine
  8
washer nuts
 62
256
370
-1
  6
ByLayer
 10
259.6449999999998113
 20
119.874832326640103
 30
0.0
 11
252.4999999999998295
 21
115.749664653280206
 31
0.0
  0
LINE
  5
172
100
AcDbEntity
100
AcDbLine
  8
washer nuts
 62
256
370
-1
  6
ByLayer
 10
245.3549999999998477
 20
67.874832326640103
 30
0.0
 11
245.3549999999998477
 21
76.125167673359897
 31
0.0
  0
LINE
  5
173
100
AcDbEntity
100
AcDbLine
  8
washer nuts
 62
256
370
-1
  6
ByLayer
 10
245.3549999999998477
 20
76.125167673359897
 30
0.0
 11
252.4999999999998295
 21
80.2503353467196803
 31
0.0
  0
LINE
  5
174
100
AcDbEntity
100
AcDbLine
  8
washer nuts
 62
256
370
-1
  6
ByLayer
 10
252.4999999999998295
 20
80.2503353467196803
 30
0.0
 11
259.6449999999998113
 21
76.1251676733597833
 31
0.0
  0
LINE
  5
175
100
AcDbEntity
100
AcDbLine
  8
washer nuts
 62
256
370
-1
  6
ByLayer
 10
259.6449999999998113
 20
76.1251676733597833
 30
0.0
 11
259.6449999999998113
 21
67.874832326640103
 31
0.0
  0
LINE
  5
176
100
AcDbEntity
100
AcDbLine
  8
washer nuts
 62
256
370
-1
  6
ByLayer
 10
252.4999999999998295
 20
63.749664653280206
 30
0.0
 11
245.3549999999998477
 21
67.874832326640103
 31
0.0
  0
LINE
  5
177
100
AcDbEntity
100
AcDbLine
  8
washer nuts
 62
256
370
-1
  6
ByLayer
 10
259.6449999999998113
 20
67.874832326640103
 30
0.0
 11
252.4999999999998295
 21
63.749664653280206
 31
0.0
  0
LINE
  5
178
100
AcDbEntity
100
AcDbLine
  8
washer nuts
 62
256
370
-1
  6
ByLayer
 10
298.3549999999997908
 20
223.874832326640103
 30
0.0
 11
298.3549999999997908
 21
232.125167673359897
 31
0.0
  0
LINE
  5
179
100
AcDbEntity
100
AcDbLine
  8
washer nuts
 62
256
370
-1
  6
ByLayer
 10
298.3549999999997908
 20
232.125167673359897
 30
0.0
 11
305.4999999999997726
 21
236.2503353467196803
 31
0.0
  0
LINE
  5
17A
100
AcDbEntity
100
AcDbLine
  8
washer nuts
 62
256
370
-1
  6
ByLayer
 10
305.4999999999997726
 20
236.2503353467196803
 30
0.0
 11
312.6449999999997544
 21
232.1251676733597833
 31
0.0
  0
LINE
  5
17B
100
AcDbEntity
100
AcDbLine
  8
washer nuts
 62
256
370
-1
  6
ByLayer
 10
312.6449999999997544
 20
232.1251676733597833
 30
0.0
 11
312.6449999999997544
 21
223.874832326640103
 31
0.0
  0
LINE
  5
17C
100
AcDbEntity
100
AcDbLine
  8
washer nuts
 62
256
370
-1
  6
ByLayer
 10
305.4999999999997726
 20
219.749664653280206
 30
0.0
 11
298.3549999999997908
 21
223.874832326640103
 31
0.0
  0
LINE
  5
17D
100
AcDbEntity
100
AcDbLine
  8
washer nuts
 62
256
370
-1
  6
ByLayer
 10
312.6449999999997544
 20
223.874832326640103
 30
0.0
 11
305.4999999999997726
 21
219.749664653280206
 31
0.0
  0
LINE
  5
17E
100
AcDbEntity
100
AcDbLine
  8
washer nuts
 62
256
370
-1
  6
ByLayer
 10
298.3549999999997908
 20
171.874832326640103
 30
0.0
 11
298.3549999999997908
 21
180.125167673359897
 31
0.0
  0
LINE
  5
17F
100
AcDbEntity
100
AcDbLine
  8
washer nuts
 62
256
370
-1
  6
ByLayer
 10
298.3549999999997908
 20
180.125167673359897
 30
0.0
 11
305.4999999999997726
 21
184.2503353467196803
 31
0.0
  0
LINE
  5
180
100
AcDbEntity
100
AcDbLine
  8
washer nuts
 62
256
370
-1
  6
ByLayer
 10
305.4999999999997726
 20
184.2503353467196803
 30
0.0
 11
312.6449999999997544
 21
180.1251676733597833
 31
0.0
  0
LINE
  5
181
100
AcDbEntity
100
AcDbLine
  8
washer nuts
 62
256
370
-1
  6
ByLayer
 10
312.6449999999997544
 20
180.1251676733597833
 30
0.0
 11
312.6449999999997544
 21
171.874832326640103
 31
0.0
  0
LINE
  5
182
100
AcDbEntity
100
AcDbLine
  8
washer nuts
 62
256
370
-1
  6
ByLayer
 10
305.4999999999997726
 20
167.749664653280206
 30
0.0
 11
298.3549999999997908
 21
171.874832326640103
 31
0.0
  0
LINE
  5
183
100
AcDbEntity
100
AcDbLine
  8
washer nuts
 62
256
370
-1
  6
ByLayer
 10
312.6449999999997544
 20
171.874832326640103
 30
0.0
 11
305.4999999999997726
 21
167.749664653280206
 31
0.0
  0
LINE
  5
184
100
AcDbEntity
100
AcDbLine
  8
washer nuts
 62
256
370
-1
  6
ByLayer
 10
298.3549999999997908
 20
119.874832326640103
 30
0.0
 11
298.3549999999997908
 21
128.125167673359897
 31
0.0
  0
LINE
  5
185
100
AcDbEntity
100
AcDbLine
  8
washer nuts
 62
256
370
-1
  6
ByLayer
 10
298.3549999999997908
 20
128.125167673359897
 30
0.0
 11
305.4999999999997726
 21
132.2503353467196803
 31
0.0
  0
LINE
  5
186
100
AcDbEntity
100
AcDbLine
  8
washer nuts
 62
256
370
-1
  6
ByLayer
 10
305.4999999999997726
 20
132.2503353467196803
 30
0.0
 11
312.6449999999997544
 21
128.1251676733597833
 31
0.0
  0
LINE
  5
187
100
AcDbEntity
100
AcDbLine
  8
washer nuts
 62
256
370
-1
  6
ByLayer
 10
312.6449999999997544
 20
128.1251676733597833
 30
0.0
 11
312.6449999999997544
 21
119.874832326640103
 31
0.0
  0
LINE
  5
188
100
AcDbEntity
100
AcDbLine
  8
washer nuts
 62
256
370
-1
  6
ByLayer
 10
305.4999999999997726
 20
115.749664653280206
 30
0.0
 11
298.3549999999997908
 21
119.874832326640103
 31
0.0
  0
LINE
  5
189
100
AcDbEntity
100
AcDbLine
  8
washer nuts
 62
256
370
-1
  6
ByLayer
 10
312.6449999999997544
 20
119.874832326640103
 30
0.0
 11
305.4999999999997726
 21
115.749664653280206
 31
0.0
  0
LINE
  5
18A
100
AcDbEntity
100
AcDbLine
  8
washer nuts
 62
256
370
-1
  6
ByLayer
 10
298.3549999999997908
 20
67.874832326640103
 30
0.0
 11
298.3549999999997908
 21
76.125167673359897
 31
0.0
  0
LINE
  5
18B
100
AcDbEntity
100
AcDbLine
  8
washer nuts
 62
256
370
-1
  6
ByLayer
 10
298.3549999999997908
 20
76.125167673359897
 30
0.0
 11
305.4999999999997726
 21
80.2503353467196803
 31
0.0
  0
LINE
  5
18C
100
AcDbEntity
100
AcDbLine
  8
washer nuts
 62
256
370
-1
  6
ByLayer
 10
305.4999999999997726
 20
80.2503353467196803
 30
0.0
 11
312.6449999999997544
 21
76.1251676733597833
 31
0.0
  0
LINE
  5
18D
100
AcDbEntity
100
AcDbLine
  8
washer nuts
 62
256
370
-1
  6
ByLayer
 10
312.6449999999997544
 20
76.1251676733597833
 30
0.0
 11
312.6449999999997544
 21
67.874832326640103
 31
0.0
  0
LINE
  5
18E
100
AcDbEntity
100
AcDbLine
  8
washer nuts
 62
256
370
-1
  6
ByLayer
 10
305.4999999999997726
 20
63.749664653280206
 30
0.0
 11
298.3549999999997908
 21
67.874832326640103
 31
0.0
  0
LINE
  5
18F
100
AcDbEntity
100
AcDbLine
  8
washer nuts
 62
256
370
-1
  6
ByLayer
 10
312.6449999999997544
 20
67.874832326640103
 30
0.0
 11
305.4999999999997726
 21
63.749664653280206
 31
0.0
  0
LINE
  5
190
100
AcDbEntity
100
AcDbLine
  8
washer nuts
 62
256
370
-1
  6
ByLayer
 10
351.354999999999734
 20
223.874832326640103
 30
0.0
 11
351.354999999999734
 21
232.125167673359897
 31
0.0
  0
LINE
  5
191
100
AcDbEntity
100
AcDbLine
  8
washer nuts
 62
256
370
-1
  6
ByLayer
 10
351.354999999999734
 20
232.125167673359897
 30
0.0
 11
358.4999999999997158
 21
236.2503353467196803
 31
0.0
  0
LINE
  5
192
100
AcDbEntity
100
AcDbLine
  8
washer nuts
 62
256
370
-1
  6
ByLayer
 10
358.4999999999997158
 20
236.2503353467196803
 30
0.0
 11
365.6449999999996976
 21
232.1251676733597833
 31
0.0
  0
LINE
  5
193
100
AcDbEntity
100
AcDbLine
  8
washer nuts
 62
256
370
-1
  6
ByLayer
 10
365.6449999999996976
 20
232.1251676733597833
 30
0.0
 11
365.6449999999996976
 21
223.874832326640103
 31
0.0
  0
LINE
  5
194
100
AcDbEntity
100
AcDbLine
  8
washer nuts
 62
256
370
-1
  6
ByLayer
 10
358.4999999999997158
 20
219.749664653280206
 30
0.0
 11
351.354999999999734
 21
223.874832326640103
 31
0.0
  0
LINE
  5
195
100
AcDbEntity
100
AcDbLine
  8
washer nuts
 62
256
370
-1
  6
ByLayer
 10
365.6449999999996976
 20
223.874832326640103
 30
0.0
 11
358.4999999999997158
 21
219.749664653280206
 31
0.0
  0
LINE
  5
196
100
AcDbEntity
100
AcDbLine
  8
washer nuts
 62
256
370
-1
  6
ByLayer
 10
351.354999999999734
 20
171.874832326640103
 30
0.0
 11
351.354999999999734
 21
180.125167673359897
 31
0.0
  0
LINE
  5
197
100
AcDbEntity
100
AcDbLine
  8
washer nuts
 62
256
370
-1
  6
ByLayer
 10
351.354999999999734
 20
180.125167673359897
 30
0.0
 11
358.4999999999997158
 21
184.2503353467196803
 31
0.0
  0
LINE
  5
198
100
AcDbEntity
100
AcDbLine
  8
washer nuts
 62
256
370
-1
  6
ByLayer
 10
358.4999999999997158
 20
184.2503353467196803
 30
0.0
 11
365.6449999999996976
 21
180.1251676733597833
 31
0.0
  0
LINE
  5
199
100
AcDbEntity
100
AcDbLine
  8
washer nuts
 62
256
370
-1
  6
ByLayer
 10
365.6449999999996976
 20
180.1251676733597833
 30
0.0
 11
365.6449999999996976
 21
171.874832326640103
 31
0.0
  0
LINE
  5
19A
100
AcDbEntity
100
AcDbLine
  8
washer nuts
 62
256
370
-1
  6
ByLayer
 10
358.4999999999997158
 20
167.749664653280206
 30
0.0
 11
351.354999999999734
 21
171.874832326640103
 31
0.0
  0
LINE
  5
19B
100
AcDbEntity
100
AcDbLine
  8
washer nuts
 62
256
370
-1
  6
ByLayer
 10
365.6449999999996976
 20
171.874832326640103
 30
0.0
 11
358.4999999999997158
 21
167.749664653280206
 31
0.0
  0
LINE
  5
19C
100
AcDbEntity
100
AcDbLine
  8
washer nuts
 62
256
370
-1
  6
ByLayer
 10
351.354999999999734
 20
119.874832326640103
 30
0.0
 11
351.354999999999734
 21
128.125167673359897
 31
0.0
  0
LINE
  5
19D
100
AcDbEntity
100
AcDbLine
  8
washer nuts
 62
256
370
-1
  6
ByLayer
 10
351.354999999999734
 20
128.125167673359897
 30
0.0
 11
358.4999999999997158
 21
132.2503353467196803
 31
0.0
  0
LINE
  5
19E
100
AcDbEntity
100
AcDbLine
  8
washer nuts
 62
256
370
-1
  6
ByLayer
 10
358.4999999999997158
 20
132.2503353467196803
 30
0.0
 11
365.6449999999996976
 21
128.1251676733597833
 31
0.0
  0
LINE
  5
19F
100
AcDbEntity
100
AcDbLine
  8
washer nuts
 62
256
370
-1
  6
ByLayer
 10
365.6449999999996976
 20
128.1251676733597833
 30
0.0
 11
365.6449999999996976
 21
119.874832326640103
 31
0.0
  0
LINE
  5
1A0
100
AcDbEntity
100
AcDbLine
  8
washer nuts
 62
256
370
-1
  6
ByLayer
 10
358.4999999999997158
 20
115.749664653280206
 30
0.0
 11
351.354999999999734
 21
119.874832326640103
 31
0.0
  0
LINE
  5
1A1
100
AcDbEntity
100
AcDbLine
  8
washer nuts
 62
256
370
-1
  6
ByLayer
 10
365.6449999999996976
 20
119.874832326640103
 30
0.0
 11
358.4999999999997158
 21
115.749664653280206
 31
0.0
  0
LINE
  5
1A2
100
AcDbEntity
100
AcDbLine
  8
washer nuts
 62
256
370
-1
  6
ByLayer
 10
351.354999999999734
 20
67.874832326640103
 30
0.0
 11
351.354999999999734
 21
76.125167673359897
 31
0.0
  0
LINE
  5
1A3
100
AcDbEntity
100
AcDbLine
  8
washer nuts
 62
256
370
-1
  6
ByLayer
 10
351.354999999999734
 20
76.125167673359897
 30
0.0
 11
358.4999999999997158
 21
80.2503353467196803
 31
0.0
  0
LINE
  5
1A4
100
AcDbEntity
100
AcDbLine
  8
washer nuts
 62
256
370
-1
  6
ByLayer
 10
358.4999999999997158
 20
80.2503353467196803
 30
0.0
 11
365.6449999999996976
 21
76.1251676733597833
 31
0.0
  0
LINE
  5
1A5
100
AcDbEntity
100
AcDbLine
  8
washer nuts
 62
256
370
-1
  6
ByLayer
 10
365.6449999999996976
 20
76.1251676733597833
 30
0.0
 11
365.6449999999996976
 21
67.874832326640103
 31
0.0
  0
LINE
  5
1A6
100
AcDbEntity
100
AcDbLine
  8
washer nuts
 62
256
370
-1
  6
ByLayer
 10
358.4999999999997158
 20
63.749664653280206
 30
0.0
 11
351.354999999999734
 21
67.874832326640103
 31
0.0
  0
LINE
  5
1A7
100
AcDbEntity
100
AcDbLine
  8
washer nuts
 62
256
370
-1
  6
ByLayer
 10
365.6449999999996976
 20
67.874832326640103
 30
0.0
 11
358.4999999999997158
 21
63.749664653280206
 31
0.0
  0
CIRCLE
  5
1A8
100
AcDbEntity
100
AcDbCircle
  8
washer holes
 62
256
370
-1
  6
ByLayer
 10
146.5
 20
228.0
 30
0.0
 40
4.875
  0
CIRCLE
  5
1A9
100
AcDbEntity
100
AcDbCircle
  8
washer holes
 62
256
370
-1
  6
ByLayer
 10
199.5
 20
228.0
 30
0.0
 40
4.875
  0
CIRCLE
  5
1AA
100
AcDbEntity
100
AcDbCircle
  8
washer holes
 62
256
370
-1
  6
ByLayer
 10
252.5
 20
228.0
 30
0.0
 40
4.875
  0
CIRCLE
  5
1AB
100
AcDbEntity
100
AcDbCircle
  8
washer holes
 62
256
370
-1
  6
ByLayer
 10
305.5
 20
228.0000000000000284
 30
0.0
 40
4.875
  0
CIRCLE
  5
1AC
100
AcDbEntity
100
AcDbCircle
  8
washer holes
 62
256
370
-1
  6
ByLayer
 10
358.5
 20
227.9999999999999716
 30
0.0
 40
4.875
  0
CIRCLE
  5
1AD
100
AcDbEntity
100
AcDbCircle
  8
washer holes
 62
256
370
-1
  6
ByLayer
 10
146.5
 20
176.0
 30
0.0
 40
4.875
  0
CIRCLE
  5
1AE
100
AcDbEntity
100
AcDbCircle
  8
washer holes
 62
256
370
-1
  6
ByLayer
 10
199.5
 20
176.0
 30
0.0
 40
4.875
  0
CIRCLE
  5
1AF
100
AcDbEntity
100
AcDbCircle
  8
washer holes
 62
256
370
-1
  6
ByLayer
 10
252.5
 20
176.0
 30
0.0
 40
4.875
  0
CIRCLE
  5
1B0
100
AcDbEntity
100
AcDbCircle
  8
washer holes
 62
256
370
-1
  6
ByLayer
 10
305.5
 20
176.0000000000000284
 30
0.0
 40
4.875
  0
CIRCLE
  5
1B1
100
AcDbEntity
100
AcDbCircle
  8
washer holes
 62
256
370
-1
  6
ByLayer
 10
358.5
 20
175.9999999999999716
 30
0.0
 40
4.875
  0
CIRCLE
  5
1B2
100
AcDbEntity
100
AcDbCircle
  8
washer holes
 62
256
370
-1
  6
ByLayer
 10
146.5
 20
124.0
 30
0.0
 40
4.875
  0
CIRCLE
  5
1B3
100
AcDbEntity
100
AcDbCircle
  8
washer holes
 62
256
370
-1
  6
ByLayer
 10
199.5
 20
124.0
 30
0.0
 40
4.875
  0
CIRCLE
  5
1B4
100
AcDbEntity
100
AcDbCircle
  8
washer holes
 62
256
370
-1
  6
ByLayer
 10
252.5
 20
124.0
 30
0.0
 40
4.875
  0
CIRCLE
  5
1B5
100
AcDbEntity
100
AcDbCircle
  8
washer holes
 62
256
370
-1
  6
ByLayer
 10
305.5
 20
124.0000000000000284
 30
0.0
 40
4.875
  0
CIRCLE
  5
1B6
100
AcDbEntity
100
AcDbCircle
  8
washer holes
 62
256
370
-1
  6
ByLayer
 10
358.5
 20
123.9999999999999716
 30
0.0
 40
4.875
  0
CIRCLE
  5
1B7
100
AcDbEntity
100
AcDbCircle
  8
washer holes
 62
256
370
-1
  6
ByLayer
 10
146.5
 20
72.0
 30
0.0
 40
4.875
  0
CIRCLE
  5
1B8
100
AcDbEntity
100
AcDbCircle
  8
washer holes
 62
256
370
-1
  6
ByLayer
 10
199.5
 20
72.0
 30
0.0
 40
4.875
  0
CIRCLE
  5
1B9
100
AcDbEntity
100
AcDbCircle
  8
washer holes
 62
256
370
-1
  6
ByLayer
 10
252.5
 20
72.0
 30
0.0
 40
4.875
  0
CIRCLE
  5
1BA
100
AcDbEntity
100
AcDbCircle
  8
washer holes
 62
256
370
-1
  6
ByLayer
 10
305.5
 20
72.0000000000000284
 30
0.0
 40
4.875
  0
CIRCLE
  5
1BB
100
AcDbEntity
100
AcDbCircle
  8
washer holes
 62
256
370
-1
  6
ByLayer
 10
358.5
 20
71.9999999999999716
 30
0.0
 40
4.875
  0
CIRCLE
  5
1BC
100
AcDbEntity
100
AcDbCircle
  8
washer holes
 62
256
370
-1
  6
ByLayer
 10
93.5
 20
228.0
 30
0.0
 40
4.875
  0
CIRCLE
  5
1BD
100
AcDbEntity
100
AcDbCircle
  8
washer holes
 62
256
370
-1
  6
ByLayer
 10
93.5
 20
176.0
 30
0.0
 40
4.875
  0
CIRCLE
  5
1BE
100
AcDbEntity
100
AcDbCircle
  8
washer holes
 62
256
370
-1
  6
ByLayer
 10
93.5
 20
124.0
 30
0.0
 40
4.875
  0
CIRCLE
  5
1BF
100
AcDbEntity
100
AcDbCircle
  8
washer holes
 62
256
370
-1
  6
ByLayer
 10
93.5
 20
72.0
 30
0.0
 40
4.875
  0
LINE
  5
1C0
100
AcDbEntity
100
AcDbLine
  8
0
 62
256
370
-1
  6
ByLayer
 10
540.0
 20
285.0
 30
0.0
 11
5.0
 21
285.0
 31
0.0
  0
LINE
  5
1C1
100
AcDbEntity
100
AcDbLine
  8
0
 62
256
370
-1
  6
ByLayer
 10
540.0
 20
15.0
 30
0.0
 11
540.0
 21
285.0
 31
0.0
  0
LINE
  5
1C2
100
AcDbEntity
100
AcDbLine
  8
0
 62
256
370
-1
  6
ByLayer
 10
5.0
 20
285.0
 30
0.0
 11
5.0
 21
15.0
 31
0.0
  0
LINE
  5
1C3
100
AcDbEntity
100
AcDbLine
  8
0
 62
256
370
-1
  6
ByLayer
 10
5.0
 20
15.0
 30
0.0
 11
540.0
 21
15.0
 31
0.0
  0
CIRCLE
  5
1C4
100
AcDbEntity
100
AcDbCircle
  8
hole grid
 62
256
370
-1
  6
ByLayer
 10
36.3999999999997499
 20
264.3000000000000114
 30
0.0
 40
4.2000000000000002
  0
CIRCLE
  5
1C5
100
AcDbEntity
100
AcDbCircle
  8
hole grid
 62
256
370
-1
  6
ByLayer
 10
36.3999999999997499
 20
188.1000000000000227
 30
0.0
 40
4.2000000000000002
  0
CIRCLE
  5
1C6
100
AcDbEntity
100
AcDbCircle
  8
hole grid
 62
256
370
-1
  6
ByLayer
 10
36.3999999999997499
 20
111.9000000000000341
 30
0.0
 40
4.2000000000000002
  0
CIRCLE
  5
1C7
100
AcDbEntity
100
AcDbCircle
  8
hole grid
 62
256
370
-1
  6
ByLayer
 10
36.3999999999997499
 20
35.7000000000000455
 30
0.0
 40
4.2000000000000002
  0
CIRCLE
  5
1C8
100
AcDbEntity
100
AcDbCircle
  8
hole grid
 62
256
370
-1
  6
ByLayer
 10
112.5999999999997954
 20
264.3000000000000114
 30
0.0
 40
4.2000000000000002
  0
CIRCLE
  5
1C9
100
AcDbEntity
100
AcDbCircle
  8
hole grid
 62
256
370
-1
  6
ByLayer
 10
112.5999999999997954
 20
35.7000000000000455
 30
0.0
 40
4.2000000000000002
  0
CIRCLE
  5
1CA
100
AcDbEntity
100
AcDbCircle
  8
hole grid
 62
256
370
-1
  6
ByLayer
 10
188.7999999999998408
 20
264.3000000000000114
 30
0.0
 40
4.2000000000000002
  0
CIRCLE
  5
1CB
100
AcDbEntity
100
AcDbCircle
  8
hole grid
 62
256
370
-1
  6
ByLayer
 10
188.7999999999998408
 20
35.7000000000000455
 30
0.0
 40
4.2000000000000002
  0
CIRCLE
  5
1CC
100
AcDbEntity
100
AcDbCircle
  8
hole grid
 62
256
370
-1
  6
ByLayer
 10
264.9999999999998863
 20
264.3000000000000114
 30
0.0
 40
4.2000000000000002
  0
CIRCLE
  5
1CD
100
AcDbEntity
100
AcDbCircle
  8
hole grid
 62
256
370
-1
  6
ByLayer
 10
264.9999999999998863
 20
35.7000000000000455
 30
0.0
 40
4.2000000000000002
  0
CIRCLE
  5
1CE
100
AcDbEntity
100
AcDbCircle
  8
hole grid
 62
256
370
-1
  6
ByLayer
 10
341.1999999999999318
 20
264.3000000000000114
 30
0.0
 40
4.2000000000000002
  0
CIRCLE
  5
1CF
100
AcDbEntity
100
AcDbCircle
  8
hole grid
 62
256
370
-1
  6
ByLayer
 10
341.1999999999999318
 20
35.7000000000000455
 30
0.0
 40
4.2000000000000002
  0
CIRCLE
  5
1D0
100
AcDbEntity
100
AcDbCircle
  8
hole grid
 62
256
370
-1
  6
ByLayer
 10
417.3999999999999773
 20
264.3000000000000114
 30
0.0
 40
4.2000000000000002
  0
CIRCLE
  5
1D1
100
AcDbEntity
100
AcDbCircle
  8
hole grid
 62
256
370
-1
  6
ByLayer
 10
417.3999999999999773
 20
188.1000000000000227
 30
0.0
 40
4.2000000000000002
  0
CIRCLE
  5
1D2
100
AcDbEntity
100
AcDbCircle
  8
hole grid
 62
256
370
-1
  6
ByLayer
 10
417.3999999999999773
 20
111.9000000000000341
 30
0.0
 40
4.2000000000000002
  0
CIRCLE
  5
1D3
100
AcDbEntity
100
AcDbCircle
  8
hole grid
 62
256
370
-1
  6
ByLayer
 10
417.3999999999999773
 20
35.7000000000000455
 30
0.0
 40
4.2000000000000002
  0
CIRCLE
  5
1D4
100
AcDbEntity
100
AcDbCircle
  8
hole grid
 62
256
370
-1
  6
ByLayer
 10
493.6000000000000227
 20
264.3000000000000114
 30
0.0
 40
4.2000000000000002
  0
CIRCLE
  5
1D5
100
AcDbEntity
100
AcDbCircle
  8
hole grid
 62
256
370
-1
  6
ByLayer
 10
493.6000000000000227
 20
188.1000000000000227
 30
0.0
 40
4.2000000000000002
  0
CIRCLE
  5
1D6
100
AcDbEntity
100
AcDbCircle
  8
hole grid
 62
256
370
-1
  6
ByLayer
 10
493.6000000000000227
 20
111.9000000000000341
 30
0.0
 40
4.2000000000000002
  0
CIRCLE
  5
1D7
100
AcDbEntity
100
AcDbCircle
  8
hole grid
 62
256
370
-1
  6
ByLayer
 10
493.6000000000000227
 20
35.7000000000000455
 30
0.0
 40
4.2000000000000002
  0
LINE
  5
1D8
100
AcDbEntity
100
AcDbLine
  8
m8 nuts
 62
256
370
-1
  6
ByLayer
 10
28.7789764466966815
 20
264.3000000000000114
 30
0.0
 11
32.5894882233482335
 21
270.9000000000000341
 31
0.0
  0
LINE
  5
1D9
100
AcDbEntity
100
AcDbLine
  8
m8 nuts
 62
256
370
-1
  6
ByLayer
 10
32.5894882233482335
 20
270.9000000000000341
 30
0.0
 11
40.2105117766512663
 21
270.9000000000000341
 31
0.0
  0
LINE
  5
1DA
100
AcDbEntity
100
AcDbLine
  8
m8 nuts
 62
256
370
-1
  6
ByLayer
 10
40.2105117766512663
 20
270.9000000000000341
 30
0.0
 11
44.0210235533028182
 21
264.3000000000000114
 31
0.0
  0
LINE
  5
1DB
100
AcDbEntity
100
AcDbLine
  8
m8 nuts
 62
256
370
-1
  6
ByLayer
 10
44.0210235533028182
 20
264.3000000000000114
 30
0.0
 11
40.2105117766512663
 21
257.6999999999999886
 31
0.0
  0
LINE
  5
1DC
100
AcDbEntity
100
AcDbLine
  8
m8 nuts
 62
256
370
-1
  6
ByLayer
 10
32.5894882233482335
 20
257.6999999999999886
 30
0.0
 11
28.7789764466966815
 21
264.3000000000000114
 31
0.0
  0
LINE
  5
1DD
100
AcDbEntity
100
AcDbLine
  8
m8 nuts
 62
256
370
-1
  6
ByLayer
 10
40.2105117766512663
 20
257.6999999999999886
 30
0.0
 11
32.5894882233482335
 21
257.6999999999999886
 31
0.0
  0
LINE
  5
1DE
100
AcDbEntity
100
AcDbLine
  8
m8 nuts
 62
256
370
-1
  6
ByLayer
 10
28.7789764466966815
 20
188.1000000000000227
 30
0.0
 11
32.5894882233482335
 21
194.7000000000000455
 31
0.0
  0
LINE
  5
1DF
100
AcDbEntity
100
AcDbLine
  8
m8 nuts
 62
256
370
-1
  6
ByLayer
 10
32.5894882233482335
 20
194.7000000000000455
 30
0.0
 11
40.2105117766512663
 21
194.7000000000000455
 31
0.0
  0
LINE
  5
1E0
100
AcDbEntity
100
AcDbLine
  8
m8 nuts
 62
256
370
-1
  6
ByLayer
 10
40.2105117766512663
 20
194.7000000000000455
 30
0.0
 11
44.0210235533028182
 21
188.1000000000000227
 31
0.0
  0
LINE
  5
1E1
100
AcDbEntity
100
AcDbLine
  8
m8 nuts
 62
256
370
-1
  6
ByLayer
 10
44.0210235533028182
 20
188.1000000000000227
 30
0.0
 11
40.2105117766512663
 21
181.5
 31
0.0
  0
LINE
  5
1E2
100
AcDbEntity
100
AcDbLine
  8
m8 nuts
 62
256
370
-1
  6
ByLayer
 10
32.5894882233482335
 20
181.5
 30
0.0
 11
28.7789764466966815
 21
188.1000000000000227
 31
0.0
  0
LINE
  5
1E3
100
AcDbEntity
100
AcDbLine
  8
m8 nuts
 62
256
370
-1
  6
ByLayer
 10
40.2105117766512663
 20
181.5
 30
0.0
 11
32.5894882233482335
 21
181.5
 31
0.0
  0
LINE
  5
1E4
100
AcDbEntity
100
AcDbLine
  8
m8 nuts
 62
256
370
-1
  6
ByLayer
 10
28.7789764466966815
 20
111.9000000000000341
 30
0.0
 11
32.5894882233482335
 21
118.5000000000000568
 31
0.0
  0
LINE
  5
1E5
100
AcDbEntity
100
AcDbLine
  8
m8 nuts
 62
256
370
-1
  6
ByLayer
 10
32.5894882233482335
 20
118.5000000000000568
 30
0.0
 11
40.2105117766512663
 21
118.5000000000000568
 31
0.0
  0
LINE
  5
1E6
100
AcDbEntity
100
AcDbLine
  8
m8 nuts
 62
256
370
-1
  6
ByLayer
 10
40.2105117766512663
 20
118.5000000000000568
 30
0.0
 11
44.0210235533028182
 21
111.9000000000000341
 31
0.0
  0
LINE
  5
1E7
100
AcDbEntity
100
AcDbLine
  8
m8 nuts
 62
256
370
-1
  6
ByLayer
 10
44.0210235533028182
 20
111.9000000000000341
 30
0.0
 11
40.2105117766512663
 21
105.3000000000000114
 31
0.0
  0
LINE
  5
1E8
100
AcDbEntity
100
AcDbLine
  8
m8 nuts
 62
256
370
-1
  6
ByLayer
 10
32.5894882233482335
 20
105.3000000000000114
 30
0.0
 11
28.7789764466966815
 21
111.9000000000000341
 31
0.0
  0
LINE
  5
1E9
100
AcDbEntity
100
AcDbLine
  8
m8 nuts
 62
256
370
-1
  6
ByLayer
 10
40.2105117766512663
 20
105.3000000000000114
 30
0.0
 11
32.5894882233482335
 21
105.3000000000000114
 31
0.0
  0
LINE
  5
1EA
100
AcDbEntity
100
AcDbLine
  8
m8 nuts
 62
256
370
-1
  6
ByLayer
 10
28.7789764466966815
 20
35.7000000000000455
 30
0.0
 11
32.5894882233482335
 21
42.3000000000000682
 31
0.0
  0
LINE
  5
1EB
100
AcDbEntity
100
AcDbLine
  8
m8 nuts
 62
256
370
-1
  6
ByLayer
 10
32.5894882233482335
 20
42.3000000000000682
 30
0.0
 11
40.2105117766512663
 21
42.3000000000000682
 31
0.0
  0
LINE
  5
1EC
100
AcDbEntity
100
AcDbLine
  8
m8 nuts
 62
256
370
-1
  6
ByLayer
 10
40.2105117766512663
 20
42.3000000000000682
 30
0.0
 11
44.0210235533028182
 21
35.7000000000000455
 31
0.0
  0
LINE
  5
1ED
100
AcDbEntity
100
AcDbLine
  8
m8 nuts
 62
256
370
-1
  6
ByLayer
 10
44.0210235533028182
 20
35.7000000000000455
 30
0.0
 11
40.2105117766512663
 21
29.1000000000000227
 31
0.0
  0
LINE
  5
1EE
100
AcDbEntity
100
AcDbLine
  8
m8 nuts
 62
256
370
-1
  6
ByLayer
 10
32.5894882233482335
 20
29.1000000000000227
 30
0.0
 11
28.7789764466966815
 21
35.7000000000000455
 31
0.0
  0
LINE
  5
1EF
100
AcDbEntity
100
AcDbLine
  8
m8 nuts
 62
256
370
-1
  6
ByLayer
 10
40.2105117766512663
 20
29.1000000000000227
 30
0.0
 11
32.5894882233482335
 21
29.1000000000000227
 31
0.0
  0
LINE
  5
1F0
100
AcDbEntity
100
AcDbLine
  8
m8 nuts
 62
256
370
-1
  6
ByLayer
 10
104.9789764466967199
 20
264.3000000000000114
 30
0.0
 11
108.7894882233482861
 21
270.9000000000000341
 31
0.0
  0
LINE
  5
1F1
100
AcDbEntity
100
AcDbLine
  8
m8 nuts
 62
256
370
-1
  6
ByLayer
 10
108.7894882233482861
 20
270.9000000000000341
 30
0.0
 11
116.4105117766513047
 21
270.9000000000000341
 31
0.0
  0
LINE
  5
1F2
100
AcDbEntity
100
AcDbLine
  8
m8 nuts
 62
256
370
-1
  6
ByLayer
 10
116.4105117766513047
 20
270.9000000000000341
 30
0.0
 11
120.2210235533028708
 21
264.3000000000000114
 31
0.0
  0
LINE
  5
1F3
100
AcDbEntity
100
AcDbLine
  8
m8 nuts
 62
256
370
-1
  6
ByLayer
 10
120.2210235533028708
 20
264.3000000000000114
 30
0.0
 11
116.4105117766513047
 21
257.6999999999999886
 31
0.0
  0
LINE
  5
1F4
100
AcDbEntity
100
AcDbLine
  8
m8 nuts
 62
256
370
-1
  6
ByLayer
 10
108.7894882233482861
 20
257.6999999999999886
 30
0.0
 11
104.9789764466967199
 21
264.3000000000000114
 31
0.0
  0
LINE
  5
1F5
100
AcDbEntity
100
AcDbLine
  8
m8 nuts
 62
256
370
-1
  6
ByLayer
 10
116.4105117766513047
 20
257.6999999999999886
 30
0.0
 11
108.7894882233482861
 21
257.6999999999999886
 31
0.0
  0
LINE
  5
1F6
100
AcDbEntity
100
AcDbLine
  8
m8 nuts
 62
256
370
-1
  6
ByLayer
 10
104.9789764466967199
 20
35.7000000000000455
 30
0.0
 11
108.7894882233482861
 21
42.3000000000000682
 31
0.0
  0
LINE
  5
1F7
100
AcDbEntity
100
AcDbLine
  8
m8 nuts
 62
256
370
-1
  6
ByLayer
 10
108.7894882233482861
 20
42.3000000000000682
 30
0.0
 11
116.4105117766513047
 21
42.3000000000000682
 31
0.0
  0
LINE
  5
1F8
100
AcDbEntity
100
AcDbLine
  8
m8 nuts
 62
256
370
-1
  6
ByLayer
 10
116.4105117766513047
 20
42.3000000000000682
 30
0.0
 11
120.2210235533028708
 21
35.7000000000000455
 31
0.0
  0
LINE
  5
1F9
100
AcDbEntity
100
AcDbLine
  8
m8 nuts
 62
256
370
-1
  6
ByLayer
 10
120.2210235533028708
 20
35.7000000000000455
 30
0.0
 11
116.4105117766513047
 21
29.1000000000000227
 31
0.0
  0
LINE
  5
1FA
100
AcDbEntity
100
AcDbLine
  8
m8 nuts
 62
256
370
-1
  6
ByLayer
 10
108.7894882233482861
 20
29.1000000000000227
 30
0.0
 11
104.9789764466967199
 21
35.7000000000000455
 31
0.0
  0
LINE
  5
1FB
100
AcDbEntity
100
AcDbLine
  8
m8 nuts
 62
256
370
-1
  6
ByLayer
 10
116.4105117766513047
 20
29.1000000000000227
 30
0.0
 11
108.7894882233482861
 21
29.1000000000000227
 31
0.0
  0
LINE
  5
1FC
100
AcDbEntity
100
AcDbLine
  8
m8 nuts
 62
256
370
-1
  6
ByLayer
 10
181.1789764466967654
 20
264.3000000000000114
 30
0.0
 11
184.9894882233483315
 21
270.9000000000000341
 31
0.0
  0
LINE
  5
1FD
100
AcDbEntity
100
AcDbLine
  8
m8 nuts
 62
256
370
-1
  6
ByLayer
 10
184.9894882233483315
 20
270.9000000000000341
 30
0.0
 11
192.6105117766513501
 21
270.9000000000000341
 31
0.0
  0
LINE
  5
1FE
100
AcDbEntity
100
AcDbLine
  8
m8 nuts
 62
256
370
-1
  6
ByLayer
 10
192.6105117766513501
 20
270.9000000000000341
 30
0.0
 11
196.4210235533029163
 21
264.3000000000000114
 31
0.0
  0
LINE
  5
1FF
100
AcDbEntity
100
AcDbLine
  8
m8 nuts
 62
256
370
-1
  6
ByLayer
 10
196.4210235533029163
 20
264.3000000000000114
 30
0.0
 11
192.6105117766513501
 21
257.6999999999999886
 31
0.0
  0
LINE
  5
200
100
AcDbEntity
100
AcDbLine
  8
m8 nuts
 62
256
370
-1
  6
ByLayer
 10
184.9894882233483315
 20
257.6999999999999886
 30
0.0
 11
181.1789764466967654
 21
264.3000000000000114
 31
0.0
  0
LINE
  5
201
100
AcDbEntity
100
AcDbLine
  8
m8 nuts
 62
256
370
-1
  6
ByLayer
 10
192.6105117766513501
 20
257.6999999999999886
 30
0.0
 11
184.9894882233483315
 21
257.6999999999999886
 31
0.0
  0
LINE
  5
202
100
AcDbEntity
100
AcDbLine
  8
m8 nuts
 62
256
370
-1
  6
ByLayer
 10
181.1789764466967654
 20
35.7000000000000455
 30
0.0
 11
184.9894882233483315
 21
42.3000000000000682
 31
0.0
  0
LINE
  5
203
100
AcDbEntity
100
AcDbLine
  8
m8 nuts
 62
256
370
-1
  6
ByLayer
 10
184.9894882233483315
 20
42.3000000000000682
 30
0.0
 11
192.6105117766513501
 21
42.3000000000000682
 31
0.0
  0
LINE
  5
204
100
AcDbEntity
100
AcDbLine
  8
m8 nuts
 62
256
370
-1
  6
ByLayer
 10
192.6105117766513501
 20
42.3000000000000682
 30
0.0
 11
196.4210235533029163
 21
35.7000000000000455
 31
0.0
  0
LINE
  5
205
100
AcDbEntity
100
AcDbLine
  8
m8 nuts
 62
256
370
-1
  6
ByLayer
 10
196.4210235533029163
 20
35.7000000000000455
 30
0.0
 11
192.6105117766513501
 21
29.1000000000000227
 31
0.0
  0
LINE
  5
206
100
AcDbEntity
100
AcDbLine
  8
m8 nuts
 62
256
370
-1
  6
ByLayer
 10
184.9894882233483315
 20
29.1000000000000227
 30
0.0
 11
181.1789764466967654
 21
35.7000000000000455
 31
0.0
  0
LINE
  5
207
100
AcDbEntity
100
AcDbLine
  8
m8 nuts
 62
256
370
-1
  6
ByLayer
 10
192.6105117766513501
 20
29.1000000000000227
 30
0.0
 11
184.9894882233483315
 21
29.1000000000000227
 31
0.0
  0
LINE
  5
208
100
AcDbEntity
100
AcDbLine
  8
m8 nuts
 62
256
370
-1
  6
ByLayer
 10
257.3789764466968109
 20
264.3000000000000114
 30
0.0
 11
261.1894882233483486
 21
270.9000000000000341
 31
0.0
  0
LINE
  5
209
100
AcDbEntity
100
AcDbLine
  8
m8 nuts
 62
256
370
-1
  6
ByLayer
 10
261.1894882233483486
 20
270.9000000000000341
 30
0.0
 11
268.810511776651424
 21
270.9000000000000341
 31
0.0
  0
LINE
  5
20A
100
AcDbEntity
100
AcDbLine
  8
m8 nuts
 62
256
370
-1
  6
ByLayer
 10
268.810511776651424
 20
270.9000000000000341
 30
0.0
 11
272.6210235533029618
 21
264.3000000000000114
 31
0.0
  0
LINE
  5
20B
100
AcDbEntity
100
AcDbLine
  8
m8 nuts
 62
256
370
-1
  6
ByLayer
 10
272.6210235533029618
 20
264.3000000000000114
 30
0.0
 11
268.810511776651424
 21
257.6999999999999886
 31
0.0
  0
LINE
  5
20C
100
AcDbEntity
100
AcDbLine
  8
m8 nuts
 62
256
370
-1
  6
ByLayer
 10
261.1894882233483486
 20
257.6999999999999886
 30
0.0
 11
257.3789764466968109
 21
264.3000000000000114
 31
0.0
  0
LINE
  5
20D
100
AcDbEntity
100
AcDbLine
  8
m8 nuts
 62
256
370
-1
  6
ByLayer
 10
268.810511776651424
 20
257.6999999999999886
 30
0.0
 11
261.1894882233483486
 21
257.6999999999999886
 31
0.0
  0
LINE
  5
20E
100
AcDbEntity
100
AcDbLine
  8
m8 nuts
 62
256
370
-1
  6
ByLayer
 10
257.3789764466968109
 20
35.7000000000000455
 30
0.0
 11
261.1894882233483486
 21
42.3000000000000682
 31
0.0
  0
LINE
  5
20F
100
AcDbEntity
100
AcDbLine
  8
m8 nuts
 62
256
370
-1
  6
ByLayer
 10
261.1894882233483486
 20
42.3000000000000682
 30
0.0
 11
268.810511776651424
 21
42.3000000000000682
 31
0.0
  0
LINE
  5
210
100
AcDbEntity
100
AcDbLine
  8
m8 nuts
 62
256
370
-1
  6
ByLayer
 10
268.810511776651424
 20
42.3000000000000682
 30
0.0
 11
272.6210235533029618
 21
35.7000000000000455
 31
0.0
  0
LINE
  5
211
100
AcDbEntity
100
AcDbLine
  8
m8 nuts
 62
256
370
-1
  6
ByLayer
 10
272.6210235533029618
 20
35.7000000000000455
 30
0.0
 11
268.810511776651424
 21
29.1000000000000227
 31
0.0
  0
LINE
  5
212
100
AcDbEntity
100
AcDbLine
  8
m8 nuts
 62
256
370
-1
  6
ByLayer
 10
261.1894882233483486
 20
29.1000000000000227
 30
0.0
 11
257.3789764466968109
 21
35.7000000000000455
 31
0.0
  0
LINE
  5
213
100
AcDbEntity
100
AcDbLine
  8
m8 nuts
 62
256
370
-1
  6
ByLayer
 10
268.810511776651424
 20
29.1000000000000227
 30
0.0
 11
261.1894882233483486
 21
29.1000000000000227
 31
0.0
  0
LINE
  5
214
100
AcDbEntity
100
AcDbLine
  8
m8 nuts
 62
256
370
-1
  6
ByLayer
 10
333.5789764466968563
 20
264.3000000000000114
 30
0.0
 11
337.3894882233483941
 21
270.9000000000000341
 31
0.0
  0
LINE
  5
215
100
AcDbEntity
100
AcDbLine
  8
m8 nuts
 62
256
370
-1
  6
ByLayer
 10
337.3894882233483941
 20
270.9000000000000341
 30
0.0
 11
345.0105117766514695
 21
270.9000000000000341
 31
0.0
  0
LINE
  5
216
100
AcDbEntity
100
AcDbLine
  8
m8 nuts
 62
256
370
-1
  6
ByLayer
 10
345.0105117766514695
 20
270.9000000000000341
 30
0.0
 11
348.8210235533030072
 21
264.3000000000000114
 31
0.0
  0
LINE
  5
217
100
AcDbEntity
100
AcDbLine
  8
m8 nuts
 62
256
370
-1
  6
ByLayer
 10
348.8210235533030072
 20
264.3000000000000114
 30
0.0
 11
345.0105117766514695
 21
257.6999999999999886
 31
0.0
  0
LINE
  5
218
100
AcDbEntity
100
AcDbLine
  8
m8 nuts
 62
256
370
-1
  6
ByLayer
 10
337.3894882233483941
 20
257.6999999999999886
 30
0.0
 11
333.5789764466968563
 21
264.3000000000000114
 31
0.0
  0
LINE
  5
219
100
AcDbEntity
100
AcDbLine
  8
m8 nuts
 62
256
370
-1
  6
ByLayer
 10
345.0105117766514695
 20
257.6999999999999886
 30
0.0
 11
337.3894882233483941
 21
257.6999999999999886
 31
0.0
  0
LINE
  5
21A
100
AcDbEntity
100
AcDbLine
  8
m8 nuts
 62
256
370
-1
  6
ByLayer
 10
333.5789764466968563
 20
35.7000000000000455
 30
0.0
 11
337.3894882233483941
 21
42.3000000000000682
 31
0.0
  0
LINE
  5
21B
100
AcDbEntity
100
AcDbLine
  8
m8 nuts
 62
256
370
-1
  6
ByLayer
 10
337.3894882233483941
 20
42.3000000000000682
 30
0.0
 11
345.0105117766514695
 21
42.3000000000000682
 31
0.0
  0
LINE
  5
21C
100
AcDbEntity
100
AcDbLine
  8
m8 nuts
 62
256
370
-1
  6
ByLayer
 10
345.0105117766514695
 20
42.3000000000000682
 30
0.0
 11
348.8210235533030072
 21
35.7000000000000455
 31
0.0
  0
LINE
  5
21D
100
AcDbEntity
100
AcDbLine
  8
m8 nuts
 62
256
370
-1
  6
ByLayer
 10
348.8210235533030072
 20
35.7000000000000455
 30
0.0
 11
345.0105117766514695
 21
29.1000000000000227
 31
0.0
  0
LINE
  5
21E
100
AcDbEntity
100
AcDbLine
  8
m8 nuts
 62
256
370
-1
  6
ByLayer
 10
337.3894882233483941
 20
29.1000000000000227
 30
0.0
 11
333.5789764466968563
 21
35.7000000000000455
 31
0.0
  0
LINE
  5
21F
100
AcDbEntity
100
AcDbLine
  8
m8 nuts
 62
256
370
-1
  6
ByLayer
 10
345.0105117766514695
 20
29.1000000000000227
 30
0.0
 11
337.3894882233483941
 21
29.1000000000000227
 31
0.0
  0
LINE
  5
220
100
AcDbEntity
100
AcDbLine
  8
m8 nuts
 62
256
370
-1
  6
ByLayer
 10
409.7789764466969018
 20
264.3000000000000114
 30
0.0
 11
413.5894882233484395
 21
270.9000000000000341
 31
0.0
  0
LINE
  5
221
100
AcDbEntity
100
AcDbLine
  8
m8 nuts
 62
256
370
-1
  6
ByLayer
 10
413.5894882233484395
 20
270.9000000000000341
 30
0.0
 11
421.210511776651515
 21
270.9000000000000341
 31
0.0
  0
LINE
  5
222
100
AcDbEntity
100
AcDbLine
  8
m8 nuts
 62
256
370
-1
  6
ByLayer
 10
421.210511776651515
 20
270.9000000000000341
 30
0.0
 11
425.0210235533030527
 21
264.3000000000000114
 31
0.0
  0
LINE
  5
223
100
AcDbEntity
100
AcDbLine
  8
m8 nuts
 62
256
370
-1
  6
ByLayer
 10
425.0210235533030527
 20
264.3000000000000114
 30
0.0
 11
421.210511776651515
 21
257.6999999999999886
 31
0.0
  0
LINE
  5
224
100
AcDbEntity
100
AcDbLine
  8
m8 nuts
 62
256
370
-1
  6
ByLayer
 10
413.5894882233484395
 20
257.6999999999999886
 30
0.0
 11
409.7789764466969018
 21
264.3000000000000114
 31
0.0
  0
LINE
  5
225
100
AcDbEntity
100
AcDbLine
  8
m8 nuts
 62
256
370
-1
  6
ByLayer
 10
421.210511776651515
 20
257.6999999999999886
 30
0.0
 11
413.5894882233484395
 21
257.6999999999999886
 31
0.0
  0
LINE
  5
226
100
AcDbEntity
100
AcDbLine
  8
m8 nuts
 62
256
370
-1
  6
ByLayer
 10
409.7789764466969018
 20
188.1000000000000227
 30
0.0
 11
413.5894882233484395
 21
194.7000000000000455
 31
0.0
  0
LINE
  5
227
100
AcDbEntity
100
AcDbLine
  8
m8 nuts
 62
256
370
-1
  6
ByLayer
 10
413.5894882233484395
 20
194.7000000000000455
 30
0.0
 11
421.210511776651515
 21
194.7000000000000455
 31
0.0
  0
LINE
  5
228
100
AcDbEntity
100
AcDbLine
  8
m8 nuts
 62
256
370
-1
  6
ByLayer
 10
421.210511776651515
 20
194.7000000000000455
 30
0.0
 11
425.0210235533030527
 21
188.1000000000000227
 31
0.0
  0
LINE
  5
229
100
AcDbEntity
100
AcDbLine
  8
m8 nuts
 62
256
370
-1
  6
ByLayer
 10
425.0210235533030527
 20
188.1000000000000227
 30
0.0
 11
421.210511776651515
 21
181.5
 31
0.0
  0
LINE
  5
22A
100
AcDbEntity
100
AcDbLine
  8
m8 nuts
 62
256
370
-1
  6
ByLayer
 10
413.5894882233484395
 20
181.5
 30
0.0
 11
409.7789764466969018
 21
188.1000000000000227
 31
0.0
  0
LINE
  5
22B
100
AcDbEntity
100
AcDbLine
  8
m8 nuts
 62
256
370
-1
  6
ByLayer
 10
421.210511776651515
 20
181.5
 30
0.0
 11
413.5894882233484395
 21
181.5
 31
0.0
  0
LINE
  5
22C
100
AcDbEntity
100
AcDbLine
  8
m8 nuts
 62
256
370
-1
  6
ByLayer
 10
409.7789764466969018
 20
111.9000000000000341
 30
0.0
 11
413.5894882233484395
 21
118.5000000000000568
 31
0.0
  0
LINE
  5
22D
100
AcDbEntity
100
AcDbLine
  8
m8 nuts
 62
256
370
-1
  6
ByLayer
 10
413.5894882233484395
 20
118.5000000000000568
 30
0.0
 11
421.210511776651515
 21
118.5000000000000568
 31
0.0
  0
LINE
  5
22E
100
AcDbEntity
100
AcDbLine
  8
m8 nuts
 62
256
370
-1
  6
ByLayer
 10
421.210511776651515
 20
118.5000000000000568
 30
0.0
 11
425.0210235533030527
 21
111.9000000000000341
 31
0.0
  0
LINE
  5
22F
100
AcDbEntity
100
AcDbLine
  8
m8 nuts
 62
256
370
-1
  6
ByLayer
 10
425.0210235533030527
 20
111.9000000000000341
 30
0.0
 11
421.210511776651515
 21
105.3000000000000114
 31
0.0
  0
LINE
  5
230
100
AcDbEntity
100
AcDbLine
  8
m8 nuts
 62
256
370
-1
  6
ByLayer
 10
413.5894882233484395
 20
105.3000000000000114
 30
0.0
 11
409.7789764466969018
 21
111.9000000000000341
 31
0.0
  0
LINE
  5
231
100
AcDbEntity
100
AcDbLine
  8
m8 nuts
 62
256
370
-1
  6
ByLayer
 10
421.210511776651515
 20
105.3000000000000114
 30
0.0
 11
413.5894882233484395
 21
105.3000000000000114
 31
0.0
  0
LINE
  5
232
100
AcDbEntity
100
AcDbLine
  8
m8 nuts
 62
256
370
-1
  6
ByLayer
 10
409.7789764466969018
 20
35.7000000000000455
 30
0.0
 11
413.5894882233484395
 21
42.3000000000000682
 31
0.0
  0
LINE
  5
233
100
AcDbEntity
100
AcDbLine
  8
m8 nuts
 62
256
370
-1
  6
ByLayer
 10
413.5894882233484395
 20
42.3000000000000682
 30
0.0
 11
421.210511776651515
 21
42.3000000000000682
 31
0.0
  0
LINE
  5
234
100
AcDbEntity
100
AcDbLine
  8
m8 nuts
 62
256
370
-1
  6
ByLayer
 10
421.210511776651515
 20
42.3000000000000682
 30
0.0
 11
425.0210235533030527
 21
35.7000000000000455
 31
0.0
  0
LINE
  5
235
100
AcDbEntity
100
AcDbLine
  8
m8 nuts
 62
256
370
-1
  6
ByLayer
 10
425.0210235533030527
 20
35.7000000000000455
 30
0.0
 11
421.210511776651515
 21
29.1000000000000227
 31
0.0
  0
LINE
  5
236
100
AcDbEntity
100
AcDbLine
  8
m8 nuts
 62
256
370
-1
  6
ByLayer
 10
413.5894882233484395
 20
29.1000000000000227
 30
0.0
 11
409.7789764466969018
 21
35.7000000000000455
 31
0.0
  0
LINE
  5
237
100
AcDbEntity
100
AcDbLine
  8
m8 nuts
 62
256
370
-1
  6
ByLayer
 10
421.210511776651515
 20
29.1000000000000227
 30
0.0
 11
413.5894882233484395
 21
29.1000000000000227
 31
0.0
  0
LINE
  5
238
100
AcDbEntity
100
AcDbLine
  8
m8 nuts
 62
256
370
-1
  6
ByLayer
 10
485.9789764466969473
 20
264.3000000000000114
 30
0.0
 11
489.789488223348485
 21
270.9000000000000341
 31
0.0
  0
LINE
  5
239
100
AcDbEntity
100
AcDbLine
  8
m8 nuts
 62
256
370
-1
  6
ByLayer
 10
489.789488223348485
 20
270.9000000000000341
 30
0.0
 11
497.4105117766515605
 21
270.9000000000000341
 31
0.0
  0
LINE
  5
23A
100
AcDbEntity
100
AcDbLine
  8
m8 nuts
 62
256
370
-1
  6
ByLayer
 10
497.4105117766515605
 20
270.9000000000000341
 30
0.0
 11
501.2210235533030982
 21
264.3000000000000114
 31
0.0
  0
LINE
  5
23B
100
AcDbEntity
100
AcDbLine
  8
m8 nuts
 62
256
370
-1
  6
ByLayer
 10
501.2210235533030982
 20
264.3000000000000114
 30
0.0
 11
497.4105117766515605
 21
257.6999999999999886
 31
0.0
  0
LINE
  5
23C
100
AcDbEntity
100
AcDbLine
  8
m8 nuts
 62
256
370
-1
  6
ByLayer
 10
489.789488223348485
 20
257.6999999999999886
 30
0.0
 11
485.9789764466969473
 21
264.3000000000000114
 31
0.0
  0
LINE
  5
23D
100
AcDbEntity
100
AcDbLine
  8
m8 nuts
 62
256
370
-1
  6
ByLayer
 10
497.4105117766515605
 20
257.6999999999999886
 30
0.0
 11
489.789488223348485
 21
257.6999999999999886
 31
0.0
  0
LINE
  5
23E
100
AcDbEntity
100
AcDbLine
  8
m8 nuts
 62
256
370
-1
  6
ByLayer
 10
485.9789764466969473
 20
188.1000000000000227
 30
0.0
 11
489.789488223348485
 21
194.7000000000000455
 31
0.0
  0
LINE
  5
23F
100
AcDbEntity
100
AcDbLine
  8
m8 nuts
 62
256
370
-1
  6
ByLayer
 10
489.789488223348485
 20
194.7000000000000455
 30
0.0
 11
497.4105117766515605
 21
194.7000000000000455
 31
0.0
  0
LINE
  5
240
100
AcDbEntity
100
AcDbLine
  8
m8 nuts
 62
256
370
-1
  6
ByLayer
 10
497.4105117766515605
 20
194.7000000000000455
 30
0.0
 11
501.2210235533030982
 21
188.1000000000000227
 31
0.0
  0
LINE
  5
241
100
AcDbEntity
100
AcDbLine
  8
m8 nuts
 62
256
370
-1
  6
ByLayer
 10
501.2210235533030982
 20
188.1000000000000227
 30
0.0
 11
497.4105117766515605
 21
181.5
 31
0.0
  0
LINE
  5
242
100
AcDbEntity
100
AcDbLine
  8
m8 nuts
 62
256
370
-1
  6
ByLayer
 10
489.789488223348485
 20
181.5
 30
0.0
 11
485.9789764466969473
 21
188.1000000000000227
 31
0.0
  0
LINE
  5
243
100
AcDbEntity
100
AcDbLine
  8
m8 nuts
 62
256
370
-1
  6
ByLayer
 10
497.4105117766515605
 20
181.5
 30
0.0
 11
489.789488223348485
 21
181.5
 31
0.0
  0
LINE
  5
244
100
AcDbEntity
100
AcDbLine
  8
m8 nuts
 62
256
370
-1
  6
ByLayer
 10
485.9789764466969473
 20
111.9000000000000341
 30
0.0
 11
489.789488223348485
 21
118.5000000000000568
 31
0.0
  0
LINE
  5
245
100
AcDbEntity
100
AcDbLine
  8
m8 nuts
 62
256
370
-1
  6
ByLayer
 10
489.789488223348485
 20
118.5000000000000568
 30
0.0
 11
497.4105117766515605
 21
118.5000000000000568
 31
0.0
  0
LINE
  5
246
100
AcDbEntity
100
AcDbLine
  8
m8 nuts
 62
256
370
-1
  6
ByLayer
 10
497.4105117766515605
 20
118.5000000000000568
 30
0.0
 11
501.2210235533030982
 21
111.9000000000000341
 31
0.0
  0
LINE
  5
247
100
AcDbEntity
100
AcDbLine
  8
m8 nuts
 62
256
370
-1
  6
ByLayer
 10
501.2210235533030982
 20
111.9000000000000341
 30
0.0
 11
497.4105117766515605
 21
105.3000000000000114
 31
0.0
  0
LINE
  5
248
100
AcDbEntity
100
AcDbLine
  8
m8 nuts
 62
256
370
-1
  6
ByLayer
 10
489.789488223348485
 20
105.3000000000000114
 30
0.0
 11
485.9789764466969473
 21
111.9000000000000341
 31
0.0
  0
LINE
  5
249
100
AcDbEntity
100
AcDbLine
  8
m8 nuts
 62
256
370
-1
  6
ByLayer
 10
497.4105117766515605
 20
105.3000000000000114
 30
0.0
 11
489.789488223348485
 21
105.3000000000000114
 31
0.0
  0
LINE
  5
24A
100
AcDbEntity
100
AcDbLine
  8
m8 nuts
 62
256
370
-1
  6
ByLayer
 10
485.9789764466969473
 20
35.7000000000000455
 30
0.0
 11
489.789488223348485
 21
42.3000000000000682
 31
0.0
  0
LINE
  5
24B
100
AcDbEntity
100
AcDbLine
  8
m8 nuts
 62
256
370
-1
  6
ByLayer
 10
489.789488223348485
 20
42.3000000000000682
 30
0.0
 11
497.4105117766515605
 21
42.3000000000000682
 31
0.0
  0
LINE
  5
24C
100
AcDbEntity
100
AcDbLine
  8
m8 nuts
 62
256
370
-1
  6
ByLayer
 10
497.4105117766515605
 20
42.3000000000000682
 30
0.0
 11
501.2210235533030982
 21
35.7000000000000455
 31
0.0
  0
LINE
  5
24D
100
AcDbEntity
100
AcDbLine
  8
m8 nuts
 62
256
370
-1
  6
ByLayer
 10
501.2210235533030982
 20
35.7000000000000455
 30
0.0
 11
497.4105117766515605
 21
29.1000000000000227
 31
0.0
  0
LINE
  5
24E
100
AcDbEntity
100
AcDbLine
  8
m8 nuts
 62
256
370
-1
  6
ByLayer
 10
489.789488223348485
 20
29.1000000000000227
 30
0.0
 11
485.9789764466969473
 21
35.7000000000000455
 31
0.0
  0
LINE
  5
24F
100
AcDbEntity
100
AcDbLine
  8
m8 nuts
 62
256
370
-1
  6
ByLayer
 10
497.4105117766515605
 20
29.1000000000000227
 30
0.0
 11
489.789488223348485
 21
29.1000000000000227
 31
0.0
  0
LINE
  5
250
100
AcDbEntity
100
AcDbLine
  8
text
 62
256
370
-1
  6
ByLayer
 10
30.0
 20
70.0
 30
0.0
 11
30.0
 21
90.0
 31
0.0
  0
LINE
  5
251
100
AcDbEntity
100
AcDbLine
  8
text
 62
256
370
-1
  6
ByLayer
 10
30.0
 20
70.0
 30
0.0
 11
50.0
 21
70.0
 31
0.0
  0
LINE
  5
252
100
AcDbEntity
100
AcDbLine
  8
text
 62
256
370
-1
  6
ByLayer
 10
30.0
 20
90.0
 30
0.0
 11
29.0
 21
88.0
 31
0.0
  0
LINE
  5
253
100
AcDbEntity
100
AcDbLine
  8
text
 62
256
370
-1
  6
ByLayer
 10
30.0
 20
90.0
 30
0.0
 11
31.0
 21
88.0
 31
0.0
  0
LINE
  5
254
100
AcDbEntity
100
AcDbLine
  8
text
 62
256
370
-1
  6
ByLayer
 10
50.0
 20
70.0
 30
0.0
 11
48.0
 21
71.0
 31
0.0
  0
LINE
  5
255
100
AcDbEntity
100
AcDbLine
  8
text
 62
256
370
-1
  6
ByLayer
 10
50.0
 20
70.0
 30
0.0
 11
48.0
 21
69.0
 31
0.0
  0
MTEXT
  5
256
100
AcDbEntity
100
AcDbMText
  8
text
 62
256
370
-1
  6
ByLayer
 10
40.0
 20
60.0
 30
0.0
 40
10.0
 41
100.0
 71
5
 72
0
  1
X
  7
standard
 50
0.0
 73
1
 44
1.0
  0
MTEXT
  5
257
100
AcDbEntity
100
AcDbMText
  8
text
 62
256
370
-1
  6
ByLayer
 10
20.0
 20
80.0
 30
0.0
 40
10.0
 41
100.0
 71
5
 72
0
  1
Y
  7
standard
 50
0.0
 73
1
 44
1.0
  0
ENDSEC
  0
SECTION
  2
OBJECTS
  0
DICTIONARY
  5
C
100
AcDbDictionary
280
0
281
1
  3
ACAD_GROUP
350
D
  3
ACAD_LAYOUT
350
1A
  3
ACAD_MLINESTYLE
350
17
  3
ACAD_PLOTSETTINGS
350
19
  3
ACAD_PLOTSTYLENAME
350
E
  3
AcDbVariableDictionary
350
258
  0
DICTIONARY
  5
D
100
AcDbDictionary
280
0
281
1
  0
ACDBDICTIONARYWDFLT
  5
E
100
AcDbDictionary
281
1
  3
Normal
350
F
100
AcDbDictionaryWithDefault
340
F
  0
ACDBPLACEHOLDER
  5
F
  0
DICTIONARY
  5
17
100
AcDbDictionary
280
0
281
1
  3
Standard
350
18
  0
MLINESTYLE
  5
18
100
AcDbMlineStyle
  2
STANDARD
 70
0
  3

 62
256
 51
90.0
 52
90.0
 71
2
 49
0.5
 62
256
  6
BYLAYER
 49
-0.5
 62
256
  6
BYLAYER
  0
DICTIONARY
  5
19
100
AcDbDictionary
280
0
281
1
  0
DICTIONARY
  5
1A
100
AcDbDictionary
281
1
  3
Layout1
350
1E
  3
Layout2
350
26
  3
Model
350
22
  0
LAYOUT
  5
1E
100
AcDbPlotSettings
  1

  2
C:\Program Files\AutoCAD 2002\plotters\DWF ePlot (optimized for plotting).pc3
  4

  6

 40
0.0
 41
0.0
 42
0.0
 43
0.0
 44
0.0
 45
0.0
 46
0.0
 47
0.0
 48
0.0
 49
0.0
140
0.0
141
0.0
142
1.0
143
1.0
 70
688
 72
0
 73
0
 74
5
  7

 75
16
147
1.0
148
0.0
149
0.0
100
AcDbLayout
  1
Layout1
 70
1
 71
1
 10
0.0
 20
0.0
 11
420.0
 21
297.0
 12
0.0
 22
0.0
 32
0.0
 14
100000000000000000000.0
 24
100000000000000000000.0
 34
100000000000000000000.0
 15
-100000000000000000000.0
 25
-100000000000000000000.0
 35
-100000000000000000000.0
146
0.0
 13
0.0
 23
0.0
 33
0.0
 16
1.0
 26
0.0
 36
0.0
 17
0.0
 27
1.0
 37
0.0
 76
0
330
1B
  0
LAYOUT
  5
22
100
AcDbPlotSettings
  1

  2
C:\Program Files\AutoCAD 2002\plotters\DWF ePlot (optimized for plotting).pc3
  4

  6

 40
0.0
 41
0.0
 42
0.0
 43
0.0
 44
0.0
 45
0.0
 46
0.0
 47
0.0
 48
0.0
 49
0.0
140
0.0
141
0.0
142
1.0
143
1.0
 70
1712
 72
0
 73
0
 74
0
  7

 75
0
147
1.0
148
0.0
149
0.0
100
AcDbLayout
  1
Model
 70
1
 71
0
 10
0.0
 20
0.0
 11
12.0
 21
9.0
 12
0.0
 22
0.0
 32
0.0
 14
0.0
 24
0.0
 34
0.0
 15
0.0
 25
0.0
 35
0.0
146
0.0
 13
0.0
 23
0.0
 33
0.0
 16
1.0
 26
0.0
 36
0.0
 17
0.0
 27
1.0
 37
0.0
 76
0
330
1F
  0
LAYOUT
  5
26
100
AcDbPlotSettings
  1

  2
C:\Program Files\AutoCAD 2002\plotters\DWF ePlot (optimized for plotting).pc3
  4

  6

 40
0.0
 41
0.0
 42
0.0
 43
0.0
 44
0.0
 45
0.0
 46
0.0
 47
0.0
 48
0.0
 49
0.0
140
0.0
141
0.0
142
1.0
143
1.0
 70
688
 72
0
 73
0
 74
5
  7

 75
16
147
1.0
148
0.0
149
0.0
100
AcDbLayout
  1
Layout2
 70
1
 71
2
 10
0.0
 20
0.0
 11
12.0
 21
9.0
 12
0.0
 22
0.0
 32
0.0
 14
0.0
 24
0.0
 34
0.0
 15
0.0
 25
0.0
 35
0.0
146
0.0
 13
0.0
 23
0.0
 33
0.0
 16
1.0
 26
0.0
 36
0.0
 17
0.0
 27
1.0
 37
0.0
 76
0
330
23
  0
DICTIONARY
  5
258
100
AcDbDictionary
281
1
  3
DIMASSOC
350
25A
  3
HIDETEXT
350
259
  0
DICTIONARYVAR
  5
259
100
DictionaryVariables
280
0
  1
2
  0
DICTIONARYVAR
  5
25A
100
DictionaryVariables
280
0
  1
1
  0
ENDSEC
  0
EOF
