999
dxflib 2.2.0.0
  0
SECTION
  2
HEADER
  9
$ACADVER
  1
AC1015
  9
$HANDSEED
  5
FFFF
  9
$DIMASZ
 40
2.5
  9
$PLIMMIN
 10
0.0
 20
0.0
  9
$DIMEXE
 40
1.25
  9
$DIMGAP
 40
0.625
  9
$PLIMMAX
 10
210.0
 20
297.0
  9
$INSUNITS
 70
4
  9
$DIMSTYLE
  2
Standard
  9
$CLAYER
  8
Etch
  9
$DIMEXO
 40
0.625
  9
$DIMTXT
 40
2.5
  9
$CLAYER
  8
0
  0
ENDSEC
  0
SECTION
  2
TABLES
  0
TABLE
  2
VPORT
  5
8
100
AcDbSymbolTable
 70
1
  0
VPORT
  5
30
100
AcDbSymbolTableRecord
100
AcDbViewportTableRecord
  2
*Active
 70
0
 10
0.0
 20
0.0
 11
1.0
 21
1.0
 12
286.3055555555554861
 22
148.5
 13
0.0
 23
0.0
 14
10.0
 24
10.0
 15
10.0
 25
10.0
 16
0.0
 26
0.0
 36
1.0
 17
0.0
 27
0.0
 37
0.0
 40
297.0
 41
1.92798353909465
 42
50.0
 43
0.0
 44
0.0
 50
0.0
 51
0.0
 71
0
 72
100
 73
1
 74
3
 75
1
 76
1
 77
0
 78
0
281
0
 65
1
110
0.0
120
0.0
130
0.0
111
1.0
121
0.0
131
0.0
112
0.0
122
1.0
132
0.0
 79
0
146
0.0
  0
ENDTAB
  0
TABLE
  2
LTYPE
  5
5
100
AcDbSymbolTable
 70
21
  0
LTYPE
  5
14
100
AcDbSymbolTableRecord
100
AcDbLinetypeTableRecord
  2
ByBlock
 70
0
  3

 72
65
 73
0
 40
0.0
  0
LTYPE
  5
15
100
AcDbSymbolTableRecord
100
AcDbLinetypeTableRecord
  2
ByLayer
 70
0
  3

 72
65
 73
0
 40
0.0
  0
LTYPE
  5
16
100
AcDbSymbolTableRecord
100
AcDbLinetypeTableRecord
  2
CONTINUOUS
 70
0
  3
Solid line
 72
65
 73
0
 40
0.0
  0
LTYPE
  5
31
100
AcDbSymbolTableRecord
100
AcDbLinetypeTableRecord
  2
DOT
 70
0
  3
Dot . . . . . . . . . . . . . . . . . . . . . .
 72
65
 73
2
 40
6.3499999999999996
 49
0.0
 74
0
 49
-6.3499999999999996
 74
0
  0
LTYPE
  5
32
100
AcDbSymbolTableRecord
100
AcDbLinetypeTableRecord
  2
DOT2
 70
0
  3
Dot (.5x) .....................................
 72
65
 73
2
 40
3.1749999999999998
 49
0.0
 74
0
 49
-3.1749999999999998
 74
0
  0
LTYPE
  5
33
100
AcDbSymbolTableRecord
100
AcDbLinetypeTableRecord
  2
DOTX2
 70
0
  3
Dot (2x) .  .  .  .  .  .  .  .  .  .  .  .  .
 72
65
 73
2
 40
12.6999999999999993
 49
0.0
 74
0
 49
-12.6999999999999993
 74
0
  0
LTYPE
  5
34
100
AcDbSymbolTableRecord
100
AcDbLinetypeTableRecord
  2
DASHED
 70
0
  3
Dashed __ __ __ __ __ __ __ __ __ __ __ __ __ _
 72
65
 73
2
 40
19.0500000000000007
 49
12.6999999999999993
 74
0
 49
-6.3499999999999996
 74
0
  0
LTYPE
  5
35
100
AcDbSymbolTableRecord
100
AcDbLinetypeTableRecord
  2
DASHED2
 70
0
  3
Dashed (.5x) _ _ _ _ _ _ _ _ _ _ _ _ _ _ _ _ _
 72
65
 73
2
 40
9.5250000000000004
 49
6.3499999999999996
 74
0
 49
-3.1749999999999998
 74
0
  0
LTYPE
  5
36
100
AcDbSymbolTableRecord
100
AcDbLinetypeTableRecord
  2
DASHEDX2
 70
0
  3
Dashed (2x) ____  ____  ____  ____  ____  ___
 72
65
 73
2
 40
38.1000000000000014
 49
25.3999999999999986
 74
0
 49
-12.6999999999999993
 74
0
  0
LTYPE
  5
37
100
AcDbSymbolTableRecord
100
AcDbLinetypeTableRecord
  2
DASHDOT
 70
0
  3
Dash dot __ . __ . __ . __ . __ . __ . __ . __
 72
65
 73
4
 40
25.3999999999999986
 49
12.6999999999999993
 74
0
 49
-6.3499999999999996
 74
0
 49
0.0
 74
0
 49
-6.3499999999999996
 74
0
  0
LTYPE
  5
38
100
AcDbSymbolTableRecord
100
AcDbLinetypeTableRecord
  2
DASHDOT2
 70
0
  3
Dash dot (.5x) _._._._._._._._._._._._._._._.
 72
65
 73
4
 40
12.6999999999999993
 49
6.3499999999999996
 74
0
 49
-3.1749999999999998
 74
0
 49
0.0
 74
0
 49
-3.1749999999999998
 74
0
  0
LTYPE
  5
39
100
AcDbSymbolTableRecord
100
AcDbLinetypeTableRecord
  2
DASHDOTX2
 70
0
  3
Dash dot (2x) ____  .  ____  .  ____  .  ___
 72
65
 73
4
 40
50.7999999999999972
 49
25.3999999999999986
 74
0
 49
-12.6999999999999993
 74
0
 49
0.0
 74
0
 49
-12.6999999999999993
 74
0
  0
LTYPE
  5
3A
100
AcDbSymbolTableRecord
100
AcDbLinetypeTableRecord
  2
DIVIDE
 70
0
  3
Divide ____ . . ____ . . ____ . . ____ . . ____
 72
65
 73
6
 40
31.75
 49
12.6999999999999993
 74
0
 49
-6.3499999999999996
 74
0
 49
0.0
 74
0
 49
-6.3499999999999996
 74
0
 49
0.0
 74
0
 49
-6.3499999999999996
 74
0
  0
LTYPE
  5
3B
100
AcDbSymbolTableRecord
100
AcDbLinetypeTableRecord
  2
DIVIDE2
 70
0
  3
Divide (.5x) __..__..__..__..__..__..__..__.._
 72
65
 73
6
 40
15.875
 49
6.3499999999999996
 74
0
 49
-3.1749999999999998
 74
0
 49
0.0
 74
0
 49
-3.1749999999999998
 74
0
 49
0.0
 74
0
 49
-3.1749999999999998
 74
0
  0
LTYPE
  5
3C
100
AcDbSymbolTableRecord
100
AcDbLinetypeTableRecord
  2
DIVIDEX2
 70
0
  3
Divide (2x) ________  .  .  ________  .  .  _
 72
65
 73
6
 40
63.5
 49
25.3999999999999986
 74
0
 49
-12.6999999999999993
 74
0
 49
0.0
 74
0
 49
-12.6999999999999993
 74
0
 49
0.0
 74
0
 49
-12.6999999999999993
 74
0
  0
LTYPE
  5
3D
100
AcDbSymbolTableRecord
100
AcDbLinetypeTableRecord
  2
CENTER
 70
0
  3
Center ____ _ ____ _ ____ _ ____ _ ____ _ ____
 72
65
 73
4
 40
50.7999999999999972
 49
31.75
 74
0
 49
-6.3499999999999996
 74
0
 49
6.3499999999999996
 74
0
 49
-6.3499999999999996
 74
0
  0
LTYPE
  5
3E
100
AcDbSymbolTableRecord
100
AcDbLinetypeTableRecord
  2
CENTER2
 70
0
  3
Center (.5x) ___ _ ___ _ ___ _ ___ _ ___ _ ___
 72
65
 73
4
 40
28.5749999999999993
 49
19.0500000000000007
 74
0
 49
-3.1749999999999998
 74
0
 49
3.1749999999999998
 74
0
 49
-3.1749999999999998
 74
0
  0
LTYPE
  5
3F
100
AcDbSymbolTableRecord
100
AcDbLinetypeTableRecord
  2
CENTERX2
 70
0
  3
Center (2x) ________  __  ________  __  _____
 72
65
 73
4
 40
101.5999999999999943
 49
63.5
 74
0
 49
-12.6999999999999993
 74
0
 49
12.6999999999999993
 74
0
 49
-12.6999999999999993
 74
0
  0
LTYPE
  5
40
100
AcDbSymbolTableRecord
100
AcDbLinetypeTableRecord
  2
BORDER
 70
0
  3
Border __ __ . __ __ . __ __ . __ __ . __ __ .
 72
65
 73
6
 40
44.4500000000000028
 49
12.6999999999999993
 74
0
 49
-6.3499999999999996
 74
0
 49
12.6999999999999993
 74
0
 49
-6.3499999999999996
 74
0
 49
0.0
 74
0
 49
-6.3499999999999996
 74
0
  0
LTYPE
  5
41
100
AcDbSymbolTableRecord
100
AcDbLinetypeTableRecord
  2
BORDER2
 70
0
  3
Border (.5x) __.__.__.__.__.__.__.__.__.__.__.
 72
65
 73
6
 40
22.2250000000000014
 49
6.3499999999999996
 74
0
 49
-3.1749999999999998
 74
0
 49
6.3499999999999996
 74
0
 49
-3.1749999999999998
 74
0
 49
0.0
 74
0
 49
-3.1749999999999998
 74
0
  0
LTYPE
  5
42
100
AcDbSymbolTableRecord
100
AcDbLinetypeTableRecord
  2
BORDERX2
 70
0
  3
Border (2x) ____  ____  .  ____  ____  .  ___
 72
65
 73
6
 40
88.9000000000000057
 49
25.3999999999999986
 74
0
 49
-12.6999999999999993
 74
0
 49
25.3999999999999986
 74
0
 49
-12.6999999999999993
 74
0
 49
0.0
 74
0
 49
-12.6999999999999993
 74
0
  0
ENDTAB
  0
TABLE
  2
LAYER
  5
2
100
AcDbSymbolTable
 70
3
  0
LAYER
  5
10
100
AcDbSymbolTableRecord
100
AcDbLayerTableRecord
  2
0
 70
0
 62
7
420
0
  6
CONTINUOUS
370
25
390
F
  0
LAYER
  5
43
100
AcDbSymbolTableRecord
100
AcDbLayerTableRecord
  2
Etch
 70
0
 62
4
420
65535
  6
CONTINUOUS
370
0
390
F
  0
LAYER
  5
44
100
AcDbSymbolTableRecord
100
AcDbLayerTableRecord
  2
writing
 70
0
 62
1
420
16711680
  6
CONTINUOUS
370
0
390
F
  0
ENDTAB
  0
TABLE
  2
STYLE
  5
3
100
AcDbSymbolTable
 70
1
  0
STYLE
  5
11
100
AcDbSymbolTableRecord
100
AcDbTextStyleTableRecord
  2
Standard
 70
0
 40
0.0
 41
0.75
 50
0.0
 71
0
 42
2.5
  3
txt
  4

  0
ENDTAB
  0
TABLE
  2
VIEW
  5
6
100
AcDbSymbolTable
 70
0
  0
ENDTAB
  0
TABLE
  2
UCS
  5
7
100
AcDbSymbolTable
 70
0
  0
ENDTAB
  0
TABLE
  2
APPID
  5
9
100
AcDbSymbolTable
 70
1
  0
APPID
  5
12
100
AcDbSymbolTableRecord
100
AcDbRegAppTableRecord
  2
ACAD
 70
0
  0
ENDTAB
  0
TABLE
  2
DIMSTYLE
  5
A
100
AcDbSymbolTable
 70
1
100
AcDbDimStyleTable
 71
0
  0
DIMSTYLE
105
27
100
AcDbSymbolTableRecord
100
AcDbDimStyleTableRecord
  2
Standard
 41
2.5
 42
0.625
 43
3.75
 44
1.25
 70
0
 73
0
 74
0
 77
1
 78
8
140
2.5
141
2.5
143
0.03937007874016
147
0.625
171
3
172
1
271
2
272
2
274
3
278
44
283
0
284
8
340
11
  0
ENDTAB
  0
TABLE
  2
BLOCK_RECORD
  5
1
100
AcDbSymbolTable
 70
1
  0
BLOCK_RECORD
  5
1F
100
AcDbSymbolTableRecord
100
AcDbBlockTableRecord
  2
*Model_Space
340
22
  0
BLOCK_RECORD
  5
1B
100
AcDbSymbolTableRecord
100
AcDbBlockTableRecord
  2
*Paper_Space
340
1E
  0
BLOCK_RECORD
  5
23
100
AcDbSymbolTableRecord
100
AcDbBlockTableRecord
  2
*Paper_Space0
340
26
  0
BLOCK_RECORD
  5
45
100
AcDbSymbolTableRecord
100
AcDbBlockTableRecord
  2
m3nuthead
340
0
  0
ENDTAB
  0
ENDSEC
  0
SECTION
  2
BLOCKS
  0
BLOCK
  5
20
100
AcDbEntity
  8
0
100
AcDbBlockBegin
  2
*Model_Space
 70
0
 10
0.0
 20
0.0
 30
0.0
  3
*Model_Space
  1

  0
ENDBLK
  5
21
100
AcDbEntity
  8
0
100
AcDbBlockEnd
  0
BLOCK
  5
1C
100
AcDbEntity
 67
1
  8
0
100
AcDbBlockBegin
  2
*Paper_Space
 70
0
 10
0.0
 20
0.0
 30
0.0
  3
*Paper_Space
  1

  0
ENDBLK
  5
1D
100
AcDbEntity
 67
1
  8
0
100
AcDbBlockEnd
  0
BLOCK
  5
24
100
AcDbEntity
  8
0
100
AcDbBlockBegin
  2
*Paper_Space0
 70
0
 10
0.0
 20
0.0
 30
0.0
  3
*Paper_Space0
  1

  0
ENDBLK
  5
25
100
AcDbEntity
  8
0
100
AcDbBlockEnd
  0
BLOCK
  5
46
100
AcDbEntity
  8
0
100
AcDbBlockBegin
  2
m3nuthead
 70
0
 10
0.0
 20
0.0
 30
0.0
  3
m3nuthead
  1

  0
ARC
  5
47
100
AcDbEntity
  8
Etch
 62
256
370
-1
  6
ByLayer
100
AcDbCircle
 10
-2.0000000000000027
 20
1.1547005383792497
 30
0.0
 40
0.5
100
AcDbArc
 50
120.0000000000000142
 51
180.0
  0
LINE
  5
48
100
AcDbEntity
100
AcDbLine
  8
Etch
 62
256
370
-1
  6
ByLayer
 10
-2.5000000000000009
 20
-1.154700538379251
 30
0.0
 11
-2.5000000000000027
 21
1.1547005383792495
 31
0.0
  0
ARC
  5
49
100
AcDbEntity
  8
Etch
 62
256
370
-1
  6
ByLayer
100
AcDbCircle
 10
-2.0000000000000009
 20
-1.1547005383792506
 30
0.0
 40
0.5
100
AcDbArc
 50
180.0
 51
239.9999999999999716
  0
LINE
  5
4A
100
AcDbEntity
100
AcDbLine
  8
Etch
 62
256
370
-1
  6
ByLayer
 10
-0.2500000000000004
 20
-2.7424137786507226
 30
0.0
 11
-2.2500000000000013
 21
-1.5877132402714702
 31
0.0
  0
ARC
  5
4B
100
AcDbEntity
  8
Etch
 62
256
370
-1
  6
ByLayer
100
AcDbCircle
 10
-0.0000000000000004
 20
-2.3094010767585034
 30
0.0
 40
0.5
100
AcDbArc
 50
239.9999999999999716
 51
300.0
  0
LINE
  5
4C
100
AcDbEntity
100
AcDbLine
  8
Etch
 62
256
370
-1
  6
ByLayer
 10
0.2499999999999997
 20
-2.7424137786507226
 30
0.0
 11
2.2499999999999978
 21
-1.5877132402714715
 31
0.0
  0
ARC
  5
4D
100
AcDbEntity
  8
Etch
 62
256
370
-1
  6
ByLayer
100
AcDbCircle
 10
1.9999999999999978
 20
-1.1547005383792524
 30
0.0
 40
0.5
100
AcDbArc
 50
300.0
 51
360.0
  0
LINE
  5
4E
100
AcDbEntity
100
AcDbLine
  8
Etch
 62
256
370
-1
  6
ByLayer
 10
2.4999999999999982
 20
-1.1547005383792528
 30
0.0
 11
2.5
 21
1.1547005383792506
 31
0.0
  0
ARC
  5
4F
100
AcDbEntity
  8
Etch
 62
256
370
-1
  6
ByLayer
100
AcDbCircle
 10
2.0
 20
1.154700538379251
 30
0.0
 40
0.5
100
AcDbArc
 50
360.0
 51
60.0000000000000568
  0
LINE
  5
50
100
AcDbEntity
100
AcDbLine
  8
Etch
 62
256
370
-1
  6
ByLayer
 10
2.2499999999999996
 20
1.5877132402714706
 30
0.0
 11
0.2499999999999964
 21
2.7424137786507217
 31
0.0
  0
LINE
  5
51
100
AcDbEntity
100
AcDbLine
  8
Etch
 62
256
370
-1
  6
ByLayer
 10
-2.2500000000000027
 20
1.5877132402714689
 30
0.0
 11
-0.2500000000000029
 21
2.7424137786507208
 31
0.0
  0
ARC
  5
52
100
AcDbEntity
  8
Etch
 62
256
370
-1
  6
ByLayer
100
AcDbCircle
 10
-0.0000000000000029
 20
2.309401076758502
 30
0.0
 40
0.5
100
AcDbArc
 50
60.0000000000000995
 51
120.0000000000000142
  0
ENDBLK
  5
53
100
AcDbEntity
  8
0
100
AcDbBlockEnd
  0
ENDSEC
  0
SECTION
  2
ENTITIES
  0
CIRCLE
  5
54
100
AcDbEntity
100
AcDbCircle
  8
0
 62
256
370
-1
  6
ByLayer
 10
-20.0
 20
20.0
 30
0.0
 40
1.5
  0
INSERT
  5
55
100
AcDbEntity
100
AcDbBlockReference
  8
Etch
 62
256
370
-1
  6
ByLayer
  2
m3nuthead
 10
-20.0
 20
20.0
 30
0.0
 44
1.0
 45
1.0
  0
ARC
  5
56
100
AcDbEntity
  8
0
 62
256
370
-1
  6
ByLayer
100
AcDbCircle
 10
-13.4322356371699811
 20
24.5677643628300189
 30
0.0
 40
2.0
100
AcDbArc
 50
214.8179325968409898
 51
298.6672927688995856
  0
ARC
  5
57
100
AcDbEntity
  8
0
 62
256
370
-1
  6
ByLayer
100
AcDbCircle
 10
-24.5677643628300189
 20
13.4322356371699811
 30
0.0
 40
2.0
100
AcDbArc
 50
331.3327072311004713
 51
55.1820674031590173
  0
ARC
  5
58
100
AcDbEntity
  8
0
 62
256
370
-1
  6
ByLayer
100
AcDbCircle
 10
-20.0
 20
20.0
 30
0.0
 40
6.0
100
AcDbArc
 50
34.8179312026345613
 51
235.1820660089523187
  0
CIRCLE
  5
59
100
AcDbEntity
100
AcDbCircle
  8
0
 62
256
370
-1
  6
ByLayer
 10
20.0
 20
20.0
 30
0.0
 40
1.5
  0
INSERT
  5
5A
100
AcDbEntity
100
AcDbBlockReference
  8
Etch
 62
256
370
-1
  6
ByLayer
  2
m3nuthead
 10
20.0
 20
20.0
 30
0.0
 41
1.0
 42
-1.0
 43
1.0
 50
180.0
 44
1.0
 45
1.0
  0
ARC
  5
5B
100
AcDbEntity
  8
0
 62
256
370
-1
  6
ByLayer
100
AcDbCircle
 10
13.4322356371699811
 20
24.5677643628300189
 30
0.0
 40
2.0
100
AcDbArc
 50
241.3327072311004144
 51
325.1820674031590102
  0
ARC
  5
5C
100
AcDbEntity
  8
0
 62
256
370
-1
  6
ByLayer
100
AcDbCircle
 10
24.5677643628300189
 20
13.4322356371699811
 30
0.0
 40
2.0
100
AcDbArc
 50
124.8179325968410183
 51
208.6672927688995287
  0
ARC
  5
5D
100
AcDbEntity
  8
0
 62
256
370
-1
  6
ByLayer
100
AcDbCircle
 10
20.0
 20
20.0
 30
0.0
 40
6.0
100
AcDbArc
 50
304.8179339910477097
 51
145.1820687973654174
  0
CIRCLE
  5
5E
100
AcDbEntity
100
AcDbCircle
  8
0
 62
256
370
-1
  6
ByLayer
 10
-20.0
 20
-20.0
 30
0.0
 40
1.5
  0
INSERT
  5
5F
100
AcDbEntity
100
AcDbBlockReference
  8
Etch
 62
256
370
-1
  6
ByLayer
  2
m3nuthead
 10
-20.0
 20
-20.0
 30
0.0
 41
1.0
 42
-1.0
 43
1.0
 44
1.0
 45
1.0
  0
ARC
  5
60
100
AcDbEntity
  8
0
 62
256
370
-1
  6
ByLayer
100
AcDbCircle
 10
-13.4322356371699811
 20
-24.5677643628300189
 30
0.0
 40
2.0
100
AcDbArc
 50
61.3327072311004287
 51
145.1820674031590102
  0
ARC
  5
61
100
AcDbEntity
  8
0
 62
256
370
-1
  6
ByLayer
100
AcDbCircle
 10
-24.5677643628300189
 20
-13.4322356371699811
 30
0.0
 40
2.0
100
AcDbArc
 50
304.8179325968409898
 51
28.6672927688995429
  0
ARC
  5
62
100
AcDbEntity
  8
0
 62
256
370
-1
  6
ByLayer
100
AcDbCircle
 10
-20.0
 20
-20.0
 30
0.0
 40
6.0
100
AcDbArc
 50
124.8179339910477239
 51
325.1820687973654458
  0
CIRCLE
  5
63
100
AcDbEntity
100
AcDbCircle
  8
0
 62
256
370
-1
  6
ByLayer
 10
20.0
 20
-20.0
 30
0.0
 40
1.5
  0
INSERT
  5
64
100
AcDbEntity
100
AcDbBlockReference
  8
Etch
 62
256
370
-1
  6
ByLayer
  2
m3nuthead
 10
20.0
 20
-20.0
 30
0.0
 50
180.0
 44
1.0
 45
1.0
  0
ARC
  5
65
100
AcDbEntity
  8
0
 62
256
370
-1
  6
ByLayer
100
AcDbCircle
 10
13.4322356371699811
 20
-24.5677643628300189
 30
0.0
 40
2.0
100
AcDbArc
 50
34.8179325968410041
 51
118.6672927688995856
  0
ARC
  5
66
100
AcDbEntity
  8
0
 62
256
370
-1
  6
ByLayer
100
AcDbCircle
 10
24.5677643628300189
 20
-13.4322356371700096
 30
0.0
 40
2.0
100
AcDbArc
 50
151.3327072311004713
 51
235.1820674031590102
  0
ARC
  5
67
100
AcDbEntity
  8
0
 62
256
370
-1
  6
ByLayer
100
AcDbCircle
 10
20.0
 20
-20.0
 30
0.0
 40
6.0
100
AcDbArc
 50
214.8179312026345826
 51
55.1820660089522832
  0
ARC
  5
68
100
AcDbEntity
  8
0
 62
256
370
-1
  6
ByLayer
100
AcDbCircle
 10
0.0
 20
0.0
 30
0.0
 40
26.0000000000000071
100
AcDbArc
 50
61.3327072310999597
 51
118.6672927689000403
  0
ARC
  5
69
100
AcDbEntity
  8
0
 62
256
370
-1
  6
ByLayer
100
AcDbCircle
 10
0.0
 20
0.0
 30
0.0
 40
26.0000000000000071
100
AcDbArc
 50
151.3327072310999313
 51
208.6672927689000687
  0
ARC
  5
6A
100
AcDbEntity
  8
0
 62
256
370
-1
  6
ByLayer
100
AcDbCircle
 10
0.0
 20
0.0
 30
0.0
 40
26.0000000000000071
100
AcDbArc
 50
241.3327072310999597
 51
298.6672927689000403
  0
ARC
  5
6B
100
AcDbEntity
  8
0
 62
256
370
-1
  6
ByLayer
100
AcDbCircle
 10
0.0
 20
0.0
 30
0.0
 40
26.0000000000000071
100
AcDbArc
 50
331.332707231099846
 51
28.6672927689000971
  0
CIRCLE
  5
6C
100
AcDbEntity
100
AcDbCircle
  8
0
 62
256
370
-1
  6
ByLayer
 10
40.0
 20
20.0000000000000036
 30
0.0
 40
1.5
  0
ARC
  5
6D
100
AcDbEntity
  8
0
 62
256
370
-1
  6
ByLayer
100
AcDbCircle
 10
46.5677643628300117
 20
24.5677643628300153
 30
0.0
 40
2.0
100
AcDbArc
 50
214.8179325968409898
 51
298.6672927688995856
  0
ARC
  5
6E
100
AcDbEntity
  8
0
 62
256
370
-1
  6
ByLayer
100
AcDbCircle
 10
35.4322356371699883
 20
13.4322356371699936
 30
0.0
 40
2.0
100
AcDbArc
 50
331.3327072311004713
 51
55.1820674031590173
  0
ARC
  5
6F
100
AcDbEntity
  8
0
 62
256
370
-1
  6
ByLayer
100
AcDbCircle
 10
40.0
 20
20.0000000000000036
 30
0.0
 40
6.0
100
AcDbArc
 50
34.8179312026345613
 51
235.1820660089523187
  0
CIRCLE
  5
70
100
AcDbEntity
100
AcDbCircle
  8
0
 62
256
370
-1
  6
ByLayer
 10
80.0
 20
20.0000000000000036
 30
0.0
 40
1.5
  0
ARC
  5
71
100
AcDbEntity
  8
0
 62
256
370
-1
  6
ByLayer
100
AcDbCircle
 10
73.4322356371699811
 20
24.5677643628300153
 30
0.0
 40
2.0
100
AcDbArc
 50
241.3327072311004144
 51
325.1820674031590102
  0
ARC
  5
72
100
AcDbEntity
  8
0
 62
256
370
-1
  6
ByLayer
100
AcDbCircle
 10
84.5677643628300189
 20
13.4322356371699865
 30
0.0
 40
2.0
100
AcDbArc
 50
124.8179325968410183
 51
208.6672927688995287
  0
ARC
  5
73
100
AcDbEntity
  8
0
 62
256
370
-1
  6
ByLayer
100
AcDbCircle
 10
80.0
 20
20.0000000000000036
 30
0.0
 40
6.0
100
AcDbArc
 50
304.8179339910477097
 51
145.1820687973654174
  0
CIRCLE
  5
74
100
AcDbEntity
100
AcDbCircle
  8
0
 62
256
370
-1
  6
ByLayer
 10
40.0
 20
-20.0
 30
0.0
 40
1.5
  0
ARC
  5
75
100
AcDbEntity
  8
0
 62
256
370
-1
  6
ByLayer
100
AcDbCircle
 10
46.5677643628300046
 20
-24.5677643628300117
 30
0.0
 40
2.0
100
AcDbArc
 50
61.3327072311004287
 51
145.1820674031590102
  0
ARC
  5
76
100
AcDbEntity
  8
0
 62
256
370
-1
  6
ByLayer
100
AcDbCircle
 10
35.4322356371699811
 20
-13.4322356371699883
 30
0.0
 40
2.0
100
AcDbArc
 50
304.8179325968409898
 51
28.6672927688995429
  0
ARC
  5
77
100
AcDbEntity
  8
0
 62
256
370
-1
  6
ByLayer
100
AcDbCircle
 10
40.0
 20
-20.0
 30
0.0
 40
6.0
100
AcDbArc
 50
124.8179339910477239
 51
325.1820687973654458
  0
CIRCLE
  5
78
100
AcDbEntity
100
AcDbCircle
  8
0
 62
256
370
-1
  6
ByLayer
 10
80.0
 20
-20.0000000000000036
 30
0.0
 40
1.5
  0
ARC
  5
79
100
AcDbEntity
  8
0
 62
256
370
-1
  6
ByLayer
100
AcDbCircle
 10
73.4322356371699811
 20
-24.5677643628300189
 30
0.0
 40
2.0
100
AcDbArc
 50
34.8179325968410041
 51
118.6672927688995856
  0
ARC
  5
7A
100
AcDbEntity
  8
0
 62
256
370
-1
  6
ByLayer
100
AcDbCircle
 10
84.5677643628300189
 20
-13.4322356371700025
 30
0.0
 40
2.0
100
AcDbArc
 50
151.3327072311004713
 51
235.1820674031590102
  0
ARC
  5
7B
100
AcDbEntity
  8
0
 62
256
370
-1
  6
ByLayer
100
AcDbCircle
 10
80.0
 20
-20.0000000000000036
 30
0.0
 40
6.0
100
AcDbArc
 50
214.8179312026345826
 51
55.1820660089522832
  0
ARC
  5
7C
100
AcDbEntity
  8
0
 62
256
370
-1
  6
ByLayer
100
AcDbCircle
 10
60.0
 20
0.0
 30
0.0
 40
26.0000000000000071
100
AcDbArc
 50
61.3327072310999597
 51
118.6672927689000403
  0
ARC
  5
7D
100
AcDbEntity
  8
0
 62
256
370
-1
  6
ByLayer
100
AcDbCircle
 10
60.0
 20
0.0
 30
0.0
 40
26.0000000000000071
100
AcDbArc
 50
151.3327072310999313
 51
208.6672927689000687
  0
ARC
  5
7E
100
AcDbEntity
  8
0
 62
256
370
-1
  6
ByLayer
100
AcDbCircle
 10
60.0
 20
0.0
 30
0.0
 40
26.0000000000000071
100
AcDbArc
 50
241.3327072310999597
 51
298.6672927689000403
  0
ARC
  5
7F
100
AcDbEntity
  8
0
 62
256
370
-1
  6
ByLayer
100
AcDbCircle
 10
60.0
 20
0.0
 30
0.0
 40
26.0000000000000071
100
AcDbArc
 50
331.332707231099846
 51
28.6672927689000971
  0
ARC
  5
80
100
AcDbEntity
  8
0
 62
256
370
-1
  6
ByLayer
100
AcDbCircle
 10
46.0
 20
2.0000000000000089
 30
0.0
 40
1.0
100
AcDbArc
 50
90.0
 51
180.0
  0
ARC
  5
81
100
AcDbEntity
  8
0
 62
256
370
-1
  6
ByLayer
100
AcDbCircle
 10
74.0
 20
2.0000000000000062
 30
0.0
 40
1.0
100
AcDbArc
 50
0.0
 51
90.0
  0
ARC
  5
82
100
AcDbEntity
  8
0
 62
256
370
-1
  6
ByLayer
100
AcDbCircle
 10
74.0
 20
-14.0000000000000036
 30
0.0
 40
1.0
100
AcDbArc
 50
270.0
 51
0.0
  0
ARC
  5
83
100
AcDbEntity
  8
0
 62
256
370
-1
  6
ByLayer
100
AcDbCircle
 10
46.0
 20
-13.9999999999999982
 30
0.0
 40
1.0
100
AcDbArc
 50
180.0
 51
270.0
  0
ARC
  5
84
100
AcDbEntity
  8
0
 62
256
370
-1
  6
ByLayer
100
AcDbCircle
 10
69.0
 20
19.0
 30
0.0
 40
1.0
100
AcDbArc
 50
0.0
 51
90.0
  0
LINE
  5
85
100
AcDbEntity
100
AcDbLine
  8
0
 62
256
370
-1
  6
ByLayer
 10
70.0
 20
18.9999999999999964
 30
0.0
 11
70.0
 21
11.0000000000000018
 31
0.0
  0
ARC
  5
86
100
AcDbEntity
  8
0
 62
256
370
-1
  6
ByLayer
100
AcDbCircle
 10
69.0
 20
11.0
 30
0.0
 40
1.0
100
AcDbArc
 50
270.0
 51
0.0
  0
LINE
  5
87
100
AcDbEntity
100
AcDbLine
  8
0
 62
256
370
-1
  6
ByLayer
 10
69.0
 20
10.0
 30
0.0
 11
51.0
 21
10.0
 31
0.0
  0
ARC
  5
88
100
AcDbEntity
  8
0
 62
256
370
-1
  6
ByLayer
100
AcDbCircle
 10
51.0
 20
11.0
 30
0.0
 40
1.0
100
AcDbArc
 50
180.0
 51
270.0
  0
LINE
  5
89
100
AcDbEntity
100
AcDbLine
  8
0
 62
256
370
-1
  6
ByLayer
 10
51.0
 20
20.0
 30
0.0
 11
69.0
 21
20.0
 31
0.0
  0
LINE
  5
8A
100
AcDbEntity
100
AcDbLine
  8
0
 62
256
370
-1
  6
ByLayer
 10
50.0
 20
11.0000000000000018
 30
0.0
 11
50.0
 21
19.0
 31
0.0
  0
ARC
  5
8B
100
AcDbEntity
  8
0
 62
256
370
-1
  6
ByLayer
100
AcDbCircle
 10
51.0000000000000071
 20
19.0000000000000036
 30
0.0
 40
1.0
100
AcDbArc
 50
90.0
 51
180.0
  0
LINE
  5
8C
100
AcDbEntity
100
AcDbLine
  8
0
 62
256
370
-1
  6
ByLayer
 10
45.0
 20
2.0000000000000515
 30
0.0
 11
45.0
 21
-2.0000000000000004
 31
0.0
  0
ARC
  5
8D
100
AcDbEntity
  8
0
 62
256
370
-1
  6
ByLayer
100
AcDbCircle
 10
44.0
 20
-1.9999999999999878
 30
0.0
 40
1.0
100
AcDbArc
 50
270.0
 51
0.0
  0
LINE
  5
8E
100
AcDbEntity
100
AcDbLine
  8
0
 62
256
370
-1
  6
ByLayer
 10
45.0
 20
-9.9999999999999964
 30
0.0
 11
45.0
 21
-14.0
 31
0.0
  0
ARC
  5
8F
100
AcDbEntity
  8
0
 62
256
370
-1
  6
ByLayer
100
AcDbCircle
 10
44.0
 20
-9.9999999999999982
 30
0.0
 40
1.0
100
AcDbArc
 50
0.0
 51
90.0
  0
LINE
  5
90
100
AcDbEntity
100
AcDbLine
  8
0
 62
256
370
-1
  6
ByLayer
 10
42.0
 20
-8.9999999999999982
 30
0.0
 11
44.0
 21
-8.9999999999999982
 31
0.0
  0
ARC
  5
91
100
AcDbEntity
  8
0
 62
256
370
-1
  6
ByLayer
100
AcDbCircle
 10
42.0
 20
-7.9999999999999902
 30
0.0
 40
1.0
100
AcDbArc
 50
180.0
 51
270.0
  0
LINE
  5
92
100
AcDbEntity
100
AcDbLine
  8
0
 62
256
370
-1
  6
ByLayer
 10
41.0
 20
-4.0000000000000027
 30
0.0
 11
41.0
 21
-8.0000000000000036
 31
0.0
  0
LINE
  5
93
100
AcDbEntity
100
AcDbLine
  8
0
 62
256
370
-1
  6
ByLayer
 10
44.0
 20
-2.9999999999999973
 30
0.0
 11
42.0
 21
-2.9999999999999996
 31
0.0
  0
ARC
  5
94
100
AcDbEntity
  8
0
 62
256
370
-1
  6
ByLayer
100
AcDbCircle
 10
42.0
 20
-3.9999999999999889
 30
0.0
 40
1.0
100
AcDbArc
 50
90.0
 51
180.0
  0
LINE
  5
95
100
AcDbEntity
100
AcDbLine
  8
0
 62
256
370
-1
  6
ByLayer
 10
44.0
 20
-2.9999999999999973
 30
0.0
 11
42.0
 21
-2.9999999999999996
 31
0.0
  0
LINE
  5
96
100
AcDbEntity
100
AcDbLine
  8
0
 62
256
370
-1
  6
ByLayer
 10
75.0
 20
2.000000000000052
 30
0.0
 11
75.0
 21
-1.9999999999999993
 31
0.0
  0
ARC
  5
97
100
AcDbEntity
  8
0
 62
256
370
-1
  6
ByLayer
100
AcDbCircle
 10
76.0
 20
-1.9999999999999938
 30
0.0
 40
1.0
100
AcDbArc
 50
180.0
 51
270.0
  0
LINE
  5
98
100
AcDbEntity
100
AcDbLine
  8
0
 62
256
370
-1
  6
ByLayer
 10
75.0
 20
-10.0000000000000089
 30
0.0
 11
75.0
 21
-14.0000000000000036
 31
0.0
  0
ARC
  5
99
100
AcDbEntity
  8
0
 62
256
370
-1
  6
ByLayer
100
AcDbCircle
 10
76.0
 20
-9.9999999999999964
 30
0.0
 40
1.0
100
AcDbArc
 50
89.9999999999999858
 51
180.0
  0
LINE
  5
9A
100
AcDbEntity
100
AcDbLine
  8
0
 62
256
370
-1
  6
ByLayer
 10
78.0
 20
-9.0000000000000053
 30
0.0
 11
76.0
 21
-9.0000000000000036
 31
0.0
  0
ARC
  5
9B
100
AcDbEntity
  8
0
 62
256
370
-1
  6
ByLayer
100
AcDbCircle
 10
78.0
 20
-8.0000000000000053
 30
0.0
 40
1.0
100
AcDbArc
 50
270.0
 51
360.0
  0
LINE
  5
9C
100
AcDbEntity
100
AcDbLine
  8
0
 62
256
370
-1
  6
ByLayer
 10
79.0
 20
-3.9999999999999751
 30
0.0
 11
79.0
 21
-8.0
 31
0.0
  0
LINE
  5
9D
100
AcDbEntity
100
AcDbLine
  8
0
 62
256
370
-1
  6
ByLayer
 10
76.0
 20
-3.0000000000000031
 30
0.0
 11
78.0
 21
-3.0000000000000058
 31
0.0
  0
ARC
  5
9E
100
AcDbEntity
  8
0
 62
256
370
-1
  6
ByLayer
100
AcDbCircle
 10
78.0
 20
-3.9999999999999702
 30
0.0
 40
1.0
100
AcDbArc
 50
360.0
 51
89.9999999999999858
  0
LINE
  5
9F
100
AcDbEntity
100
AcDbLine
  8
0
 62
256
370
-1
  6
ByLayer
 10
76.0
 20
-3.0000000000000031
 30
0.0
 11
78.0
 21
-3.0000000000000058
 31
0.0
  0
CIRCLE
  5
A0
100
AcDbEntity
100
AcDbCircle
  8
0
 62
256
370
-1
  6
ByLayer
 10
100.0
 20
20.0000000000000036
 30
0.0
 40
1.5
  0
ARC
  5
A1
100
AcDbEntity
  8
0
 62
256
370
-1
  6
ByLayer
100
AcDbCircle
 10
106.5677643628300189
 20
24.5677643628300153
 30
0.0
 40
2.0
100
AcDbArc
 50
214.8179325968409898
 51
298.6672927688995856
  0
ARC
  5
A2
100
AcDbEntity
  8
0
 62
256
370
-1
  6
ByLayer
100
AcDbCircle
 10
95.4322356371699811
 20
13.4322356371699936
 30
0.0
 40
2.0
100
AcDbArc
 50
331.3327072311004713
 51
55.1820674031590173
  0
ARC
  5
A3
100
AcDbEntity
  8
0
 62
256
370
-1
  6
ByLayer
100
AcDbCircle
 10
100.0
 20
20.0000000000000036
 30
0.0
 40
6.0
100
AcDbArc
 50
34.8179312026345613
 51
235.1820660089523187
  0
CIRCLE
  5
A4
100
AcDbEntity
100
AcDbCircle
  8
0
 62
256
370
-1
  6
ByLayer
 10
140.0
 20
20.0000000000000036
 30
0.0
 40
1.5
  0
ARC
  5
A5
100
AcDbEntity
  8
0
 62
256
370
-1
  6
ByLayer
100
AcDbCircle
 10
133.432235637170038
 20
24.5677643628300153
 30
0.0
 40
2.0
100
AcDbArc
 50
241.3327072311004144
 51
325.1820674031590102
  0
ARC
  5
A6
100
AcDbEntity
  8
0
 62
256
370
-1
  6
ByLayer
100
AcDbCircle
 10
144.5677643628300757
 20
13.4322356371699847
 30
0.0
 40
2.0
100
AcDbArc
 50
124.8179325968410183
 51
208.6672927688995287
  0
ARC
  5
A7
100
AcDbEntity
  8
0
 62
256
370
-1
  6
ByLayer
100
AcDbCircle
 10
140.0
 20
20.0000000000000036
 30
0.0
 40
6.0
100
AcDbArc
 50
304.8179339910477097
 51
145.1820687973654174
  0
CIRCLE
  5
A8
100
AcDbEntity
100
AcDbCircle
  8
0
 62
256
370
-1
  6
ByLayer
 10
100.0
 20
-20.0
 30
0.0
 40
1.5
  0
ARC
  5
A9
100
AcDbEntity
  8
0
 62
256
370
-1
  6
ByLayer
100
AcDbCircle
 10
106.5677643628300046
 20
-24.5677643628300117
 30
0.0
 40
2.0
100
AcDbArc
 50
61.3327072311004287
 51
145.1820674031590102
  0
ARC
  5
AA
100
AcDbEntity
  8
0
 62
256
370
-1
  6
ByLayer
100
AcDbCircle
 10
95.4322356371699811
 20
-13.4322356371699883
 30
0.0
 40
2.0
100
AcDbArc
 50
304.8179325968409898
 51
28.6672927688995429
  0
ARC
  5
AB
100
AcDbEntity
  8
0
 62
256
370
-1
  6
ByLayer
100
AcDbCircle
 10
100.0
 20
-20.0
 30
0.0
 40
6.0
100
AcDbArc
 50
124.8179339910477239
 51
325.1820687973654458
  0
CIRCLE
  5
AC
100
AcDbEntity
100
AcDbCircle
  8
0
 62
256
370
-1
  6
ByLayer
 10
140.0
 20
-20.0000000000000036
 30
0.0
 40
1.5
  0
ARC
  5
AD
100
AcDbEntity
  8
0
 62
256
370
-1
  6
ByLayer
100
AcDbCircle
 10
133.4322356371700096
 20
-24.5677643628300295
 30
0.0
 40
2.0
100
AcDbArc
 50
34.8179325968410041
 51
118.6672927688995856
  0
ARC
  5
AE
100
AcDbEntity
  8
0
 62
256
370
-1
  6
ByLayer
100
AcDbCircle
 10
144.5677643628300757
 20
-13.4322356371700042
 30
0.0
 40
2.0
100
AcDbArc
 50
151.3327072311004713
 51
235.1820674031590102
  0
ARC
  5
AF
100
AcDbEntity
  8
0
 62
256
370
-1
  6
ByLayer
100
AcDbCircle
 10
140.0
 20
-20.0000000000000036
 30
0.0
 40
6.0
100
AcDbArc
 50
214.8179312026345826
 51
55.1820660089522832
  0
ARC
  5
B0
100
AcDbEntity
  8
0
 62
256
370
-1
  6
ByLayer
100
AcDbCircle
 10
120.0
 20
0.0
 30
0.0
 40
26.0000000000000071
100
AcDbArc
 50
61.3327072310999597
 51
118.6672927689000403
  0
ARC
  5
B1
100
AcDbEntity
  8
0
 62
256
370
-1
  6
ByLayer
100
AcDbCircle
 10
120.0
 20
0.0
 30
0.0
 40
26.0000000000000071
100
AcDbArc
 50
151.3327072310999313
 51
208.6672927689000687
  0
ARC
  5
B2
100
AcDbEntity
  8
0
 62
256
370
-1
  6
ByLayer
100
AcDbCircle
 10
120.0
 20
0.0
 30
0.0
 40
26.0000000000000071
100
AcDbArc
 50
241.3327072310999597
 51
298.6672927689000403
  0
ARC
  5
B3
100
AcDbEntity
  8
0
 62
256
370
-1
  6
ByLayer
100
AcDbCircle
 10
120.0
 20
0.0
 30
0.0
 40
26.0000000000000071
100
AcDbArc
 50
331.332707231099846
 51
28.6672927689000971
  0
CIRCLE
  5
B4
100
AcDbEntity
100
AcDbCircle
  8
0
 62
256
370
-1
  6
ByLayer
 10
120.0
 20
0.0
 30
0.0
 40
24.3000000000000007
  0
CIRCLE
  5
B5
100
AcDbEntity
100
AcDbCircle
  8
0
 62
256
370
-1
  6
ByLayer
 10
160.0
 20
20.0
 30
0.0
 40
1.5
  0
ARC
  5
B6
100
AcDbEntity
  8
0
 62
256
370
-1
  6
ByLayer
100
AcDbCircle
 10
166.5677643628300189
 20
24.5677643628300189
 30
0.0
 40
2.0
100
AcDbArc
 50
214.8179325968409898
 51
298.6672927688995856
  0
ARC
  5
B7
100
AcDbEntity
  8
0
 62
256
370
-1
  6
ByLayer
100
AcDbCircle
 10
155.4322356371699811
 20
13.4322356371699811
 30
0.0
 40
2.0
100
AcDbArc
 50
331.3327072311004713
 51
55.1820674031590173
  0
ARC
  5
B8
100
AcDbEntity
  8
0
 62
256
370
-1
  6
ByLayer
100
AcDbCircle
 10
160.0
 20
20.0
 30
0.0
 40
6.0
100
AcDbArc
 50
34.8179312026345613
 51
235.1820660089523187
  0
CIRCLE
  5
B9
100
AcDbEntity
100
AcDbCircle
  8
0
 62
256
370
-1
  6
ByLayer
 10
200.0
 20
20.0
 30
0.0
 40
1.5
  0
ARC
  5
BA
100
AcDbEntity
  8
0
 62
256
370
-1
  6
ByLayer
100
AcDbCircle
 10
193.4322356371699243
 20
24.5677643628300189
 30
0.0
 40
2.0
100
AcDbArc
 50
241.3327072311004144
 51
325.1820674031590102
  0
ARC
  5
BB
100
AcDbEntity
  8
0
 62
256
370
-1
  6
ByLayer
100
AcDbCircle
 10
204.5677643628300757
 20
13.4322356371699811
 30
0.0
 40
2.0
100
AcDbArc
 50
124.8179325968410183
 51
208.6672927688995287
  0
ARC
  5
BC
100
AcDbEntity
  8
0
 62
256
370
-1
  6
ByLayer
100
AcDbCircle
 10
200.0
 20
20.0
 30
0.0
 40
6.0
100
AcDbArc
 50
304.8179339910477097
 51
145.1820687973654174
  0
CIRCLE
  5
BD
100
AcDbEntity
100
AcDbCircle
  8
0
 62
256
370
-1
  6
ByLayer
 10
160.0
 20
-20.0
 30
0.0
 40
1.5
  0
ARC
  5
BE
100
AcDbEntity
  8
0
 62
256
370
-1
  6
ByLayer
100
AcDbCircle
 10
166.5677643628300189
 20
-24.5677643628300189
 30
0.0
 40
2.0
100
AcDbArc
 50
61.3327072311004287
 51
145.1820674031590102
  0
ARC
  5
BF
100
AcDbEntity
  8
0
 62
256
370
-1
  6
ByLayer
100
AcDbCircle
 10
155.4322356371699811
 20
-13.4322356371699811
 30
0.0
 40
2.0
100
AcDbArc
 50
304.8179325968409898
 51
28.6672927688995429
  0
ARC
  5
C0
100
AcDbEntity
  8
0
 62
256
370
-1
  6
ByLayer
100
AcDbCircle
 10
160.0
 20
-20.0
 30
0.0
 40
6.0
100
AcDbArc
 50
124.8179339910477239
 51
325.1820687973654458
  0
CIRCLE
  5
C1
100
AcDbEntity
100
AcDbCircle
  8
0
 62
256
370
-1
  6
ByLayer
 10
200.0
 20
-20.0
 30
0.0
 40
1.5
  0
ARC
  5
C2
100
AcDbEntity
  8
0
 62
256
370
-1
  6
ByLayer
100
AcDbCircle
 10
193.4322356371699243
 20
-24.5677643628300189
 30
0.0
 40
2.0
100
AcDbArc
 50
34.8179325968410041
 51
118.6672927688995856
  0
ARC
  5
C3
100
AcDbEntity
  8
0
 62
256
370
-1
  6
ByLayer
100
AcDbCircle
 10
204.567764362829962
 20
-13.4322356371700096
 30
0.0
 40
2.0
100
AcDbArc
 50
151.3327072311004713
 51
235.1820674031590102
  0
ARC
  5
C4
100
AcDbEntity
  8
0
 62
256
370
-1
  6
ByLayer
100
AcDbCircle
 10
200.0
 20
-20.0
 30
0.0
 40
6.0
100
AcDbArc
 50
214.8179312026345826
 51
55.1820660089522832
  0
ARC
  5
C5
100
AcDbEntity
  8
0
 62
256
370
-1
  6
ByLayer
100
AcDbCircle
 10
180.0
 20
0.0
 30
0.0
 40
26.0000000000000071
100
AcDbArc
 50
151.3327072310999313
 51
208.6672927689000687
  0
ARC
  5
C6
100
AcDbEntity
  8
0
 62
256
370
-1
  6
ByLayer
100
AcDbCircle
 10
180.0
 20
0.0
 30
0.0
 40
26.0000000000000071
100
AcDbArc
 50
241.3327072310999597
 51
298.6672927689000403
  0
ARC
  5
C7
100
AcDbEntity
  8
0
 62
256
370
-1
  6
ByLayer
100
AcDbCircle
 10
180.0
 20
0.0
 30
0.0
 40
26.0000000000000071
100
AcDbArc
 50
331.332707231099846
 51
28.6672927689000971
  0
ARC
  5
C8
100
AcDbEntity
  8
0
 62
256
370
-1
  6
ByLayer
100
AcDbCircle
 10
187.8740078740117951
 20
26.8700576850887956
 30
0.0
 40
2.0
100
AcDbArc
 50
169.8179325968409898
 51
253.6672927688995856
  0
ARC
  5
C9
100
AcDbEntity
  8
0
 62
256
370
-1
  6
ByLayer
100
AcDbCircle
 10
172.1259921259882049
 20
26.870057685088824
 30
0.0
 40
2.0
100
AcDbArc
 50
286.3327072311004144
 51
10.182067403159003
  0
ARC
  5
CA
100
AcDbEntity
  8
0
 62
256
370
-1
  6
ByLayer
100
AcDbCircle
 10
180.0
 20
28.284271247461902
 30
0.0
 40
6.0
100
AcDbArc
 50
349.8179312026345542
 51
190.1820660089523187
  0
ARC
  5
CB
100
AcDbEntity
  8
0
 62
256
370
-1
  6
ByLayer
100
AcDbCircle
 10
180.0
 20
0.0
 30
0.0
 40
26.0000000000000071
100
AcDbArc
 50
61.3327072310999597
 51
73.6672927689000403
  0
ARC
  5
CC
100
AcDbEntity
  8
0
 62
256
370
-1
  6
ByLayer
100
AcDbCircle
 10
180.0
 20
0.0
 30
0.0
 40
26.0000000000000071
100
AcDbArc
 50
106.3327072310998034
 51
118.6672927689001114
  0
CIRCLE
  5
CD
100
AcDbEntity
100
AcDbCircle
  8
0
 62
256
370
-1
  6
ByLayer
 10
180.0
 20
28.284271247461902
 30
0.0
 40
2.5
  0
CIRCLE
  5
CE
100
AcDbEntity
100
AcDbCircle
  8
0
 62
256
370
-1
  6
ByLayer
 10
180.0
 20
0.0
 30
0.0
 40
23.0
  0
CIRCLE
  5
CF
100
AcDbEntity
100
AcDbCircle
  8
0
 62
256
370
-1
  6
ByLayer
 10
220.0
 20
20.0000000000000036
 30
0.0
 40
1.5
  0
ARC
  5
D0
100
AcDbEntity
  8
0
 62
256
370
-1
  6
ByLayer
100
AcDbCircle
 10
226.567764362829962
 20
24.5677643628300189
 30
0.0
 40
2.0
100
AcDbArc
 50
214.8179325968409898
 51
298.6672927688995856
  0
ARC
  5
D1
100
AcDbEntity
  8
0
 62
256
370
-1
  6
ByLayer
100
AcDbCircle
 10
215.432235637170038
 20
13.4322356371699918
 30
0.0
 40
2.0
100
AcDbArc
 50
331.3327072311004713
 51
55.1820674031590173
  0
ARC
  5
D2
100
AcDbEntity
  8
0
 62
256
370
-1
  6
ByLayer
100
AcDbCircle
 10
220.0
 20
20.0000000000000036
 30
0.0
 40
6.0
100
AcDbArc
 50
34.8179312026345613
 51
235.1820660089523187
  0
CIRCLE
  5
D3
100
AcDbEntity
100
AcDbCircle
  8
0
 62
256
370
-1
  6
ByLayer
 10
260.0
 20
20.0000000000000036
 30
0.0
 40
1.5
  0
ARC
  5
D4
100
AcDbEntity
  8
0
 62
256
370
-1
  6
ByLayer
100
AcDbCircle
 10
253.432235637170038
 20
24.5677643628300153
 30
0.0
 40
2.0
100
AcDbArc
 50
241.3327072311004144
 51
325.1820674031590102
  0
ARC
  5
D5
100
AcDbEntity
  8
0
 62
256
370
-1
  6
ByLayer
100
AcDbCircle
 10
264.5677643628300757
 20
13.4322356371699847
 30
0.0
 40
2.0
100
AcDbArc
 50
124.8179325968410183
 51
208.6672927688995287
  0
ARC
  5
D6
100
AcDbEntity
  8
0
 62
256
370
-1
  6
ByLayer
100
AcDbCircle
 10
260.0
 20
20.0000000000000036
 30
0.0
 40
6.0
100
AcDbArc
 50
304.8179339910477097
 51
145.1820687973654174
  0
CIRCLE
  5
D7
100
AcDbEntity
100
AcDbCircle
  8
0
 62
256
370
-1
  6
ByLayer
 10
220.0
 20
-20.0
 30
0.0
 40
1.5
  0
ARC
  5
D8
100
AcDbEntity
  8
0
 62
256
370
-1
  6
ByLayer
100
AcDbCircle
 10
226.567764362829962
 20
-24.5677643628300224
 30
0.0
 40
2.0
100
AcDbArc
 50
61.3327072311004287
 51
145.1820674031590102
  0
ARC
  5
D9
100
AcDbEntity
  8
0
 62
256
370
-1
  6
ByLayer
100
AcDbCircle
 10
215.432235637170038
 20
-13.4322356371699847
 30
0.0
 40
2.0
100
AcDbArc
 50
304.8179325968409898
 51
28.6672927688995429
  0
ARC
  5
DA
100
AcDbEntity
  8
0
 62
256
370
-1
  6
ByLayer
100
AcDbCircle
 10
220.0
 20
-20.0
 30
0.0
 40
6.0
100
AcDbArc
 50
124.8179339910477239
 51
325.1820687973654458
  0
CIRCLE
  5
DB
100
AcDbEntity
100
AcDbCircle
  8
0
 62
256
370
-1
  6
ByLayer
 10
260.0
 20
-20.0000000000000036
 30
0.0
 40
1.5
  0
ARC
  5
DC
100
AcDbEntity
  8
0
 62
256
370
-1
  6
ByLayer
100
AcDbCircle
 10
253.4322356371700096
 20
-24.5677643628300295
 30
0.0
 40
2.0
100
AcDbArc
 50
34.8179325968410041
 51
118.6672927688995856
  0
ARC
  5
DD
100
AcDbEntity
  8
0
 62
256
370
-1
  6
ByLayer
100
AcDbCircle
 10
264.5677643628300757
 20
-13.4322356371700042
 30
0.0
 40
2.0
100
AcDbArc
 50
151.3327072311004713
 51
235.1820674031590102
  0
ARC
  5
DE
100
AcDbEntity
  8
0
 62
256
370
-1
  6
ByLayer
100
AcDbCircle
 10
260.0
 20
-20.0000000000000036
 30
0.0
 40
6.0
100
AcDbArc
 50
214.8179312026345826
 51
55.1820660089522832
  0
ARC
  5
DF
100
AcDbEntity
  8
0
 62
256
370
-1
  6
ByLayer
100
AcDbCircle
 10
240.0
 20
0.0
 30
0.0
 40
26.0000000000000071
100
AcDbArc
 50
61.3327072310999597
 51
118.6672927689000403
  0
ARC
  5
E0
100
AcDbEntity
  8
0
 62
256
370
-1
  6
ByLayer
100
AcDbCircle
 10
240.0
 20
0.0
 30
0.0
 40
26.0000000000000071
100
AcDbArc
 50
151.3327072310999313
 51
208.6672927689000687
  0
ARC
  5
E1
100
AcDbEntity
  8
0
 62
256
370
-1
  6
ByLayer
100
AcDbCircle
 10
240.0
 20
0.0
 30
0.0
 40
26.0000000000000071
100
AcDbArc
 50
241.3327072310999597
 51
298.6672927689000403
  0
ARC
  5
E2
100
AcDbEntity
  8
0
 62
256
370
-1
  6
ByLayer
100
AcDbCircle
 10
240.0
 20
0.0
 30
0.0
 40
26.0000000000000071
100
AcDbArc
 50
331.332707231099846
 51
28.6672927689000971
  0
ARC
  5
E3
100
AcDbEntity
  8
0
 62
256
370
-1
  6
ByLayer
100
AcDbCircle
 10
225.0
 20
5.0000000000000009
 30
0.0
 40
1.0
100
AcDbArc
 50
0.0
 51
90.0
  0
LINE
  5
E4
100
AcDbEntity
100
AcDbLine
  8
0
 62
256
370
-1
  6
ByLayer
 10
226.0
 20
5.0000000000000044
 30
0.0
 11
226.0
 21
-3.9999999999999996
 31
0.0
  0
ARC
  5
E5
100
AcDbEntity
  8
0
 62
256
370
-1
  6
ByLayer
100
AcDbCircle
 10
225.0
 20
-3.9999999999999956
 30
0.0
 40
1.0
100
AcDbArc
 50
270.0
 51
0.0
  0
LINE
  5
E6
100
AcDbEntity
100
AcDbLine
  8
0
 62
256
370
-1
  6
ByLayer
 10
225.0
 20
-4.9999999999999973
 30
0.0
 11
222.0
 21
-5.0000000000000053
 31
0.0
  0
ARC
  5
E7
100
AcDbEntity
  8
0
 62
256
370
-1
  6
ByLayer
100
AcDbCircle
 10
222.0
 20
-3.9999999999999889
 30
0.0
 40
1.0
100
AcDbArc
 50
180.0
 51
270.0
  0
LINE
  5
E8
100
AcDbEntity
100
AcDbLine
  8
0
 62
256
370
-1
  6
ByLayer
 10
221.0
 20
-4.0000000000000027
 30
0.0
 11
221.0
 21
4.9999999999999991
 31
0.0
  0
LINE
  5
E9
100
AcDbEntity
100
AcDbLine
  8
0
 62
256
370
-1
  6
ByLayer
 10
222.0
 20
6.0000000000000009
 30
0.0
 11
225.0
 21
5.9999999999999947
 31
0.0
  0
ARC
  5
EA
100
AcDbEntity
  8
0
 62
256
370
-1
  6
ByLayer
100
AcDbCircle
 10
222.0
 20
5.0000000000000098
 30
0.0
 40
1.0
100
AcDbArc
 50
90.0
 51
180.0
  0
LINE
  5
EB
100
AcDbEntity
100
AcDbLine
  8
0
 62
256
370
-1
  6
ByLayer
 10
233.3819660112501424
 20
-14.0
 30
0.0
 11
233.3819660112501424
 21
-14.0
 31
0.0
  0
ARC
  5
EC
100
AcDbEntity
  8
0
 62
256
370
-1
  6
ByLayer
100
AcDbCircle
 10
232.3819660112501424
 20
-14.0
 30
0.0
 40
1.0
100
AcDbArc
 50
360.0
 51
90.0
  0
LINE
  5
ED
100
AcDbEntity
100
AcDbLine
  8
0
 62
256
370
-1
  6
ByLayer
 10
233.3819660112501424
 20
-10.0
 30
0.0
 11
233.3819660112501424
 21
-10.0
 31
0.0
  0
ARC
  5
EE
100
AcDbEntity
  8
0
 62
256
370
-1
  6
ByLayer
100
AcDbCircle
 10
232.3819660112501424
 20
-9.9999999999999982
 30
0.0
 40
1.0
100
AcDbArc
 50
270.0
 51
360.0
  0
LINE
  5
EF
100
AcDbEntity
100
AcDbLine
  8
0
 62
256
370
-1
  6
ByLayer
 10
230.926005310278299
 20
-11.0
 30
0.0
 11
232.3819660112501424
 21
-11.0
 31
0.0
  0
ARC
  5
F0
100
AcDbEntity
  8
0
 62
256
370
-1
  6
ByLayer
100
AcDbCircle
 10
230.926005310278299
 20
-10.0
 30
0.0
 40
1.0
100
AcDbArc
 50
218.1727076270115617
 51
270.0
  0
LINE
  5
F1
100
AcDbEntity
100
AcDbLine
  8
0
 62
256
370
-1
  6
ByLayer
 10
230.926005310278299
 20
-13.0
 30
0.0
 11
232.3819660112501424
 21
-13.0
 31
0.0
  0
ARC
  5
F2
100
AcDbEntity
  8
0
 62
256
370
-1
  6
ByLayer
100
AcDbCircle
 10
228.3819660112501424
 20
-11.9999999999999982
 30
0.0
 40
2.2360679774997898
100
AcDbArc
 50
38.1727076270122723
 51
321.8272923729877562
  0
ARC
  5
F3
100
AcDbEntity
  8
0
 62
256
370
-1
  6
ByLayer
100
AcDbCircle
 10
230.926005310278299
 20
-14.0
 30
0.0
 40
1.0
100
AcDbArc
 50
90.0
 51
141.827292372988353
  0
LINE
  5
F4
100
AcDbEntity
100
AcDbLine
  8
0
 62
256
370
-1
  6
ByLayer
 10
246.6180339887498576
 20
-14.0000000000000036
 30
0.0
 11
246.6180339887498576
 21
-14.0000000000000036
 31
0.0
  0
ARC
  5
F5
100
AcDbEntity
  8
0
 62
256
370
-1
  6
ByLayer
100
AcDbCircle
 10
247.6180339887498576
 20
-14.0000000000000018
 30
0.0
 40
1.0
100
AcDbArc
 50
90.0
 51
180.0
  0
LINE
  5
F6
100
AcDbEntity
100
AcDbLine
  8
0
 62
256
370
-1
  6
ByLayer
 10
246.6180339887498576
 20
-10.0000000000000018
 30
0.0
 11
246.6180339887498576
 21
-10.0000000000000018
 31
0.0
  0
ARC
  5
F7
100
AcDbEntity
  8
0
 62
256
370
-1
  6
ByLayer
100
AcDbCircle
 10
247.6180339887498576
 20
-10.0000000000000018
 30
0.0
 40
1.0
100
AcDbArc
 50
180.0
 51
270.0
  0
LINE
  5
F8
100
AcDbEntity
100
AcDbLine
  8
0
 62
256
370
-1
  6
ByLayer
 10
249.073994689721701
 20
-11.0000000000000036
 30
0.0
 11
247.6180339887498576
 21
-11.0000000000000036
 31
0.0
  0
ARC
  5
F9
100
AcDbEntity
  8
0
 62
256
370
-1
  6
ByLayer
100
AcDbCircle
 10
249.073994689721701
 20
-10.0000000000000036
 30
0.0
 40
1.0
100
AcDbArc
 50
270.0
 51
321.8272923729883246
  0
LINE
  5
FA
100
AcDbEntity
100
AcDbLine
  8
0
 62
256
370
-1
  6
ByLayer
 10
249.073994689721701
 20
-13.0000000000000036
 30
0.0
 11
247.6180339887498576
 21
-13.0000000000000036
 31
0.0
  0
ARC
  5
FB
100
AcDbEntity
  8
0
 62
256
370
-1
  6
ByLayer
100
AcDbCircle
 10
251.6180339887498576
 20
-12.0000000000000036
 30
0.0
 40
2.2360679774997898
100
AcDbArc
 50
218.1727076270122438
 51
141.8272923729877277
  0
ARC
  5
FC
100
AcDbEntity
  8
0
 62
256
370
-1
  6
ByLayer
100
AcDbCircle
 10
249.073994689721701
 20
-14.0000000000000036
 30
0.0
 40
1.0
100
AcDbArc
 50
38.1727076270115546
 51
90.0
  0
LINE
  5
FD
100
AcDbEntity
100
AcDbLine
  8
0
 62
256
370
-1
  6
ByLayer
 10
236.3819660112501424
 20
5.0
 30
0.0
 11
236.3819660112501424
 21
5.0
 31
0.0
  0
ARC
  5
FE
100
AcDbEntity
  8
0
 62
256
370
-1
  6
ByLayer
100
AcDbCircle
 10
235.3819660112501424
 20
5.0
 30
0.0
 40
1.0
100
AcDbArc
 50
360.0
 51
90.0
  0
LINE
  5
FF
100
AcDbEntity
100
AcDbLine
  8
0
 62
256
370
-1
  6
ByLayer
 10
236.3819660112501424
 20
9.0
 30
0.0
 11
236.3819660112501424
 21
9.0
 31
0.0
  0
ARC
  5
100
100
AcDbEntity
  8
0
 62
256
370
-1
  6
ByLayer
100
AcDbCircle
 10
235.3819660112501424
 20
8.9999999999999982
 30
0.0
 40
1.0
100
AcDbArc
 50
270.0
 51
360.0
  0
LINE
  5
101
100
AcDbEntity
100
AcDbLine
  8
0
 62
256
370
-1
  6
ByLayer
 10
233.926005310278299
 20
8.0000000000000018
 30
0.0
 11
235.3819660112501424
 21
8.0
 31
0.0
  0
ARC
  5
102
100
AcDbEntity
  8
0
 62
256
370
-1
  6
ByLayer
100
AcDbCircle
 10
233.926005310278299
 20
9.0
 30
0.0
 40
1.0
100
AcDbArc
 50
218.1727076270115617
 51
270.0
  0
LINE
  5
103
100
AcDbEntity
100
AcDbLine
  8
0
 62
256
370
-1
  6
ByLayer
 10
233.926005310278299
 20
6.0000000000000009
 30
0.0
 11
235.3819660112501424
 21
6.0
 31
0.0
  0
ARC
  5
104
100
AcDbEntity
  8
0
 62
256
370
-1
  6
ByLayer
100
AcDbCircle
 10
231.3819660112501424
 20
7.0000000000000009
 30
0.0
 40
2.2360679774997898
100
AcDbArc
 50
38.1727076270122723
 51
321.8272923729877562
  0
ARC
  5
105
100
AcDbEntity
  8
0
 62
256
370
-1
  6
ByLayer
100
AcDbCircle
 10
233.926005310278299
 20
5.0000000000000018
 30
0.0
 40
1.0
100
AcDbArc
 50
90.0
 51
141.827292372988353
  0
LINE
  5
106
100
AcDbEntity
100
AcDbLine
  8
0
 62
256
370
-1
  6
ByLayer
 10
52.5166852264521182
 20
3.0000000000000102
 30
0.0
 11
46.0
 21
3.0000000000000302
 31
0.0
  0
ARC
  5
107
100
AcDbEntity
  8
0
 62
256
370
-1
  6
ByLayer
100
AcDbCircle
 10
52.5166852264521324
 20
7.0000000000000107
 30
0.0
 40
4.0
100
AcDbArc
 50
269.9999999999997726
 51
299.9264348666142723
  0
ARC
  5
108
100
AcDbEntity
  8
0
 62
256
370
-1
  6
ByLayer
100
AcDbCircle
 10
60.0
 20
-6.0
 30
0.0
 40
11.0
100
AcDbArc
 50
60.0735651333858129
 51
119.9264348666141444
  0
LINE
  5
109
100
AcDbEntity
100
AcDbLine
  8
0
 62
256
370
-1
  6
ByLayer
 10
74.0
 20
3.0000000000000044
 30
0.0
 11
67.4833147735478747
 21
3.0000000000000018
 31
0.0
  0
ARC
  5
10A
100
AcDbEntity
  8
0
 62
256
370
-1
  6
ByLayer
100
AcDbCircle
 10
67.4833147735478747
 20
7.0000000000000018
 30
0.0
 40
4.0
100
AcDbArc
 50
240.0735651333857561
 51
270.0
  0
LINE
  5
10B
100
AcDbEntity
100
AcDbLine
  8
0
 62
256
370
-1
  6
ByLayer
 10
67.4833147735478889
 20
-15.0
 30
0.0
 11
74.0
 21
-15.0000000000000036
 31
0.0
  0
ARC
  5
10C
100
AcDbEntity
  8
0
 62
256
370
-1
  6
ByLayer
100
AcDbCircle
 10
67.4833147735478889
 20
-19.0
 30
0.0
 40
4.0
100
AcDbArc
 50
90.0
 51
119.9264348666142439
  0
ARC
  5
10D
100
AcDbEntity
  8
0
 62
256
370
-1
  6
ByLayer
100
AcDbCircle
 10
60.0
 20
-6.0
 30
0.0
 40
11.0
100
AcDbArc
 50
240.0735651333857561
 51
299.9264348666142723
  0
LINE
  5
10E
100
AcDbEntity
100
AcDbLine
  8
0
 62
256
370
-1
  6
ByLayer
 10
46.0
 20
-14.9999999999999964
 30
0.0
 11
52.5166852264521111
 21
-14.9999999999999982
 31
0.0
  0
ARC
  5
10F
100
AcDbEntity
  8
0
 62
256
370
-1
  6
ByLayer
100
AcDbCircle
 10
52.5166852264521111
 20
-19.0
 30
0.0
 40
4.0
100
AcDbArc
 50
60.073565133385749
 51
90.0
  0
MTEXT
  5
110
100
AcDbEntity
100
AcDbMText
  8
writing
 62
256
370
-1
  6
ByLayer
 10
-0.0000000000000004
 20
7.5
 30
0.0
 40
3.0
 41
100.0
 71
5
 72
0
  1
MakerBot\~Watch
  7
standard
 50
0.0
 73
1
 44
1.0
  0
ENDSEC
  0
SECTION
  2
OBJECTS
  0
DICTIONARY
  5
C
100
AcDbDictionary
280
0
281
1
  3
ACAD_GROUP
350
D
  3
ACAD_LAYOUT
350
1A
  3
ACAD_MLINESTYLE
350
17
  3
ACAD_PLOTSETTINGS
350
19
  3
ACAD_PLOTSTYLENAME
350
E
  3
AcDbVariableDictionary
350
111
  0
DICTIONARY
  5
D
100
AcDbDictionary
280
0
281
1
  0
ACDBDICTIONARYWDFLT
  5
E
100
AcDbDictionary
281
1
  3
Normal
350
F
100
AcDbDictionaryWithDefault
340
F
  0
ACDBPLACEHOLDER
  5
F
  0
DICTIONARY
  5
17
100
AcDbDictionary
280
0
281
1
  3
Standard
350
18
  0
MLINESTYLE
  5
18
100
AcDbMlineStyle
  2
STANDARD
 70
0
  3

 62
256
 51
90.0
 52
90.0
 71
2
 49
0.5
 62
256
  6
BYLAYER
 49
-0.5
 62
256
  6
BYLAYER
  0
DICTIONARY
  5
19
100
AcDbDictionary
280
0
281
1
  0
DICTIONARY
  5
1A
100
AcDbDictionary
281
1
  3
Layout1
350
1E
  3
Layout2
350
26
  3
Model
350
22
  0
LAYOUT
  5
1E
100
AcDbPlotSettings
  1

  2
C:\Program Files\AutoCAD 2002\plotters\DWF ePlot (optimized for plotting).pc3
  4

  6

 40
0.0
 41
0.0
 42
0.0
 43
0.0
 44
0.0
 45
0.0
 46
0.0
 47
0.0
 48
0.0
 49
0.0
140
0.0
141
0.0
142
1.0
143
1.0
 70
688
 72
0
 73
0
 74
5
  7

 75
16
147
1.0
148
0.0
149
0.0
100
AcDbLayout
  1
Layout1
 70
1
 71
1
 10
0.0
 20
0.0
 11
420.0
 21
297.0
 12
0.0
 22
0.0
 32
0.0
 14
100000000000000000000.0
 24
100000000000000000000.0
 34
100000000000000000000.0
 15
-100000000000000000000.0
 25
-100000000000000000000.0
 35
-100000000000000000000.0
146
0.0
 13
0.0
 23
0.0
 33
0.0
 16
1.0
 26
0.0
 36
0.0
 17
0.0
 27
1.0
 37
0.0
 76
0
330
1B
  0
LAYOUT
  5
22
100
AcDbPlotSettings
  1

  2
C:\Program Files\AutoCAD 2002\plotters\DWF ePlot (optimized for plotting).pc3
  4

  6

 40
0.0
 41
0.0
 42
0.0
 43
0.0
 44
0.0
 45
0.0
 46
0.0
 47
0.0
 48
0.0
 49
0.0
140
0.0
141
0.0
142
1.0
143
1.0
 70
1712
 72
0
 73
0
 74
0
  7

 75
0
147
1.0
148
0.0
149
0.0
100
AcDbLayout
  1
Model
 70
1
 71
0
 10
0.0
 20
0.0
 11
12.0
 21
9.0
 12
0.0
 22
0.0
 32
0.0
 14
0.0
 24
0.0
 34
0.0
 15
0.0
 25
0.0
 35
0.0
146
0.0
 13
0.0
 23
0.0
 33
0.0
 16
1.0
 26
0.0
 36
0.0
 17
0.0
 27
1.0
 37
0.0
 76
0
330
1F
  0
LAYOUT
  5
26
100
AcDbPlotSettings
  1

  2
C:\Program Files\AutoCAD 2002\plotters\DWF ePlot (optimized for plotting).pc3
  4

  6

 40
0.0
 41
0.0
 42
0.0
 43
0.0
 44
0.0
 45
0.0
 46
0.0
 47
0.0
 48
0.0
 49
0.0
140
0.0
141
0.0
142
1.0
143
1.0
 70
688
 72
0
 73
0
 74
5
  7

 75
16
147
1.0
148
0.0
149
0.0
100
AcDbLayout
  1
Layout2
 70
1
 71
2
 10
0.0
 20
0.0
 11
12.0
 21
9.0
 12
0.0
 22
0.0
 32
0.0
 14
0.0
 24
0.0
 34
0.0
 15
0.0
 25
0.0
 35
0.0
146
0.0
 13
0.0
 23
0.0
 33
0.0
 16
1.0
 26
0.0
 36
0.0
 17
0.0
 27
1.0
 37
0.0
 76
0
330
23
  0
DICTIONARY
  5
111
100
AcDbDictionary
281
1
  3
DIMASSOC
350
113
  3
HIDETEXT
350
112
  0
DICTIONARYVAR
  5
112
100
DictionaryVariables
280
0
  1
2
  0
DICTIONARYVAR
  5
113
100
DictionaryVariables
280
0
  1
1
  0
ENDSEC
  0
EOF
