999
dxflib 2.2.0.0
  0
SECTION
  2
HEADER
  9
$ACADVER
  1
AC1015
  9
$HANDSEED
  5
FFFF
  9
$DIMASZ
 40
2.5
  9
$PLIMMIN
 10
0.0
 20
0.0
  9
$DIMEXE
 40
1.25
  9
$DIMGAP
 40
0.625
  9
$PLIMMAX
 10
210.0
 20
297.0
  9
$INSUNITS
 70
4
  9
$DIMSTYLE
  2
Standard
  9
$CLAYER
  8
Etch
  9
$DIMEXO
 40
0.625
  9
$DIMTXT
 40
2.5
  9
$CLAYER
  8
0
  0
ENDSEC
  0
SECTION
  2
TABLES
  0
TABLE
  2
VPORT
  5
8
100
AcDbSymbolTable
 70
1
  0
VPORT
  5
30
100
AcDbSymbolTableRecord
100
AcDbViewportTableRecord
  2
*Active
 70
0
 10
0.0
 20
0.0
 11
1.0
 21
1.0
 12
286.3055555555554861
 22
148.5
 13
0.0
 23
0.0
 14
10.0
 24
10.0
 15
10.0
 25
10.0
 16
0.0
 26
0.0
 36
1.0
 17
0.0
 27
0.0
 37
0.0
 40
297.0
 41
1.92798353909465
 42
50.0
 43
0.0
 44
0.0
 50
0.0
 51
0.0
 71
0
 72
100
 73
1
 74
3
 75
1
 76
1
 77
0
 78
0
281
0
 65
1
110
0.0
120
0.0
130
0.0
111
1.0
121
0.0
131
0.0
112
0.0
122
1.0
132
0.0
 79
0
146
0.0
  0
ENDTAB
  0
TABLE
  2
LTYPE
  5
5
100
AcDbSymbolTable
 70
21
  0
LTYPE
  5
14
100
AcDbSymbolTableRecord
100
AcDbLinetypeTableRecord
  2
ByBlock
 70
0
  3

 72
65
 73
0
 40
0.0
  0
LTYPE
  5
15
100
AcDbSymbolTableRecord
100
AcDbLinetypeTableRecord
  2
ByLayer
 70
0
  3

 72
65
 73
0
 40
0.0
  0
LTYPE
  5
16
100
AcDbSymbolTableRecord
100
AcDbLinetypeTableRecord
  2
CONTINUOUS
 70
0
  3
Solid line
 72
65
 73
0
 40
0.0
  0
LTYPE
  5
31
100
AcDbSymbolTableRecord
100
AcDbLinetypeTableRecord
  2
DOT
 70
0
  3
Dot . . . . . . . . . . . . . . . . . . . . . .
 72
65
 73
2
 40
6.3499999999999996
 49
0.0
 74
0
 49
-6.3499999999999996
 74
0
  0
LTYPE
  5
32
100
AcDbSymbolTableRecord
100
AcDbLinetypeTableRecord
  2
DOT2
 70
0
  3
Dot (.5x) .....................................
 72
65
 73
2
 40
3.1749999999999998
 49
0.0
 74
0
 49
-3.1749999999999998
 74
0
  0
LTYPE
  5
33
100
AcDbSymbolTableRecord
100
AcDbLinetypeTableRecord
  2
DOTX2
 70
0
  3
Dot (2x) .  .  .  .  .  .  .  .  .  .  .  .  .
 72
65
 73
2
 40
12.6999999999999993
 49
0.0
 74
0
 49
-12.6999999999999993
 74
0
  0
LTYPE
  5
34
100
AcDbSymbolTableRecord
100
AcDbLinetypeTableRecord
  2
DASHED
 70
0
  3
Dashed __ __ __ __ __ __ __ __ __ __ __ __ __ _
 72
65
 73
2
 40
19.0500000000000007
 49
12.6999999999999993
 74
0
 49
-6.3499999999999996
 74
0
  0
LTYPE
  5
35
100
AcDbSymbolTableRecord
100
AcDbLinetypeTableRecord
  2
DASHED2
 70
0
  3
Dashed (.5x) _ _ _ _ _ _ _ _ _ _ _ _ _ _ _ _ _
 72
65
 73
2
 40
9.5250000000000004
 49
6.3499999999999996
 74
0
 49
-3.1749999999999998
 74
0
  0
LTYPE
  5
36
100
AcDbSymbolTableRecord
100
AcDbLinetypeTableRecord
  2
DASHEDX2
 70
0
  3
Dashed (2x) ____  ____  ____  ____  ____  ___
 72
65
 73
2
 40
38.1000000000000014
 49
25.3999999999999986
 74
0
 49
-12.6999999999999993
 74
0
  0
LTYPE
  5
37
100
AcDbSymbolTableRecord
100
AcDbLinetypeTableRecord
  2
DASHDOT
 70
0
  3
Dash dot __ . __ . __ . __ . __ . __ . __ . __
 72
65
 73
4
 40
25.3999999999999986
 49
12.6999999999999993
 74
0
 49
-6.3499999999999996
 74
0
 49
0.0
 74
0
 49
-6.3499999999999996
 74
0
  0
LTYPE
  5
38
100
AcDbSymbolTableRecord
100
AcDbLinetypeTableRecord
  2
DASHDOT2
 70
0
  3
Dash dot (.5x) _._._._._._._._._._._._._._._.
 72
65
 73
4
 40
12.6999999999999993
 49
6.3499999999999996
 74
0
 49
-3.1749999999999998
 74
0
 49
0.0
 74
0
 49
-3.1749999999999998
 74
0
  0
LTYPE
  5
39
100
AcDbSymbolTableRecord
100
AcDbLinetypeTableRecord
  2
DASHDOTX2
 70
0
  3
Dash dot (2x) ____  .  ____  .  ____  .  ___
 72
65
 73
4
 40
50.7999999999999972
 49
25.3999999999999986
 74
0
 49
-12.6999999999999993
 74
0
 49
0.0
 74
0
 49
-12.6999999999999993
 74
0
  0
LTYPE
  5
3A
100
AcDbSymbolTableRecord
100
AcDbLinetypeTableRecord
  2
DIVIDE
 70
0
  3
Divide ____ . . ____ . . ____ . . ____ . . ____
 72
65
 73
6
 40
31.75
 49
12.6999999999999993
 74
0
 49
-6.3499999999999996
 74
0
 49
0.0
 74
0
 49
-6.3499999999999996
 74
0
 49
0.0
 74
0
 49
-6.3499999999999996
 74
0
  0
LTYPE
  5
3B
100
AcDbSymbolTableRecord
100
AcDbLinetypeTableRecord
  2
DIVIDE2
 70
0
  3
Divide (.5x) __..__..__..__..__..__..__..__.._
 72
65
 73
6
 40
15.875
 49
6.3499999999999996
 74
0
 49
-3.1749999999999998
 74
0
 49
0.0
 74
0
 49
-3.1749999999999998
 74
0
 49
0.0
 74
0
 49
-3.1749999999999998
 74
0
  0
LTYPE
  5
3C
100
AcDbSymbolTableRecord
100
AcDbLinetypeTableRecord
  2
DIVIDEX2
 70
0
  3
Divide (2x) ________  .  .  ________  .  .  _
 72
65
 73
6
 40
63.5
 49
25.3999999999999986
 74
0
 49
-12.6999999999999993
 74
0
 49
0.0
 74
0
 49
-12.6999999999999993
 74
0
 49
0.0
 74
0
 49
-12.6999999999999993
 74
0
  0
LTYPE
  5
3D
100
AcDbSymbolTableRecord
100
AcDbLinetypeTableRecord
  2
CENTER
 70
0
  3
Center ____ _ ____ _ ____ _ ____ _ ____ _ ____
 72
65
 73
4
 40
50.7999999999999972
 49
31.75
 74
0
 49
-6.3499999999999996
 74
0
 49
6.3499999999999996
 74
0
 49
-6.3499999999999996
 74
0
  0
LTYPE
  5
3E
100
AcDbSymbolTableRecord
100
AcDbLinetypeTableRecord
  2
CENTER2
 70
0
  3
Center (.5x) ___ _ ___ _ ___ _ ___ _ ___ _ ___
 72
65
 73
4
 40
28.5749999999999993
 49
19.0500000000000007
 74
0
 49
-3.1749999999999998
 74
0
 49
3.1749999999999998
 74
0
 49
-3.1749999999999998
 74
0
  0
LTYPE
  5
3F
100
AcDbSymbolTableRecord
100
AcDbLinetypeTableRecord
  2
CENTERX2
 70
0
  3
Center (2x) ________  __  ________  __  _____
 72
65
 73
4
 40
101.5999999999999943
 49
63.5
 74
0
 49
-12.6999999999999993
 74
0
 49
12.6999999999999993
 74
0
 49
-12.6999999999999993
 74
0
  0
LTYPE
  5
40
100
AcDbSymbolTableRecord
100
AcDbLinetypeTableRecord
  2
BORDER
 70
0
  3
Border __ __ . __ __ . __ __ . __ __ . __ __ .
 72
65
 73
6
 40
44.4500000000000028
 49
12.6999999999999993
 74
0
 49
-6.3499999999999996
 74
0
 49
12.6999999999999993
 74
0
 49
-6.3499999999999996
 74
0
 49
0.0
 74
0
 49
-6.3499999999999996
 74
0
  0
LTYPE
  5
41
100
AcDbSymbolTableRecord
100
AcDbLinetypeTableRecord
  2
BORDER2
 70
0
  3
Border (.5x) __.__.__.__.__.__.__.__.__.__.__.
 72
65
 73
6
 40
22.2250000000000014
 49
6.3499999999999996
 74
0
 49
-3.1749999999999998
 74
0
 49
6.3499999999999996
 74
0
 49
-3.1749999999999998
 74
0
 49
0.0
 74
0
 49
-3.1749999999999998
 74
0
  0
LTYPE
  5
42
100
AcDbSymbolTableRecord
100
AcDbLinetypeTableRecord
  2
BORDERX2
 70
0
  3
Border (2x) ____  ____  .  ____  ____  .  ___
 72
65
 73
6
 40
88.9000000000000057
 49
25.3999999999999986
 74
0
 49
-12.6999999999999993
 74
0
 49
25.3999999999999986
 74
0
 49
-12.6999999999999993
 74
0
 49
0.0
 74
0
 49
-12.6999999999999993
 74
0
  0
ENDTAB
  0
TABLE
  2
LAYER
  5
2
100
AcDbSymbolTable
 70
3
  0
LAYER
  5
10
100
AcDbSymbolTableRecord
100
AcDbLayerTableRecord
  2
0
 70
0
 62
7
420
0
  6
CONTINUOUS
370
25
390
F
  0
LAYER
  5
43
100
AcDbSymbolTableRecord
100
AcDbLayerTableRecord
  2
Etch
 70
0
 62
4
420
65535
  6
CONTINUOUS
370
0
390
F
  0
LAYER
  5
44
100
AcDbSymbolTableRecord
100
AcDbLayerTableRecord
  2
writing
 70
0
 62
1
420
16711680
  6
CONTINUOUS
370
0
390
F
  0
ENDTAB
  0
TABLE
  2
STYLE
  5
3
100
AcDbSymbolTable
 70
1
  0
STYLE
  5
11
100
AcDbSymbolTableRecord
100
AcDbTextStyleTableRecord
  2
Standard
 70
0
 40
0.0
 41
0.75
 50
0.0
 71
0
 42
2.5
  3
txt
  4

  0
ENDTAB
  0
TABLE
  2
VIEW
  5
6
100
AcDbSymbolTable
 70
0
  0
ENDTAB
  0
TABLE
  2
UCS
  5
7
100
AcDbSymbolTable
 70
0
  0
ENDTAB
  0
TABLE
  2
APPID
  5
9
100
AcDbSymbolTable
 70
1
  0
APPID
  5
12
100
AcDbSymbolTableRecord
100
AcDbRegAppTableRecord
  2
ACAD
 70
0
  0
ENDTAB
  0
TABLE
  2
DIMSTYLE
  5
A
100
AcDbSymbolTable
 70
1
100
AcDbDimStyleTable
 71
0
  0
DIMSTYLE
105
27
100
AcDbSymbolTableRecord
100
AcDbDimStyleTableRecord
  2
Standard
 41
2.5
 42
0.625
 43
3.75
 44
1.25
 70
0
 73
0
 74
0
 77
1
 78
8
140
2.5
141
2.5
143
0.03937007874016
147
0.625
171
3
172
1
271
2
272
2
274
3
278
44
283
0
284
8
340
11
  0
ENDTAB
  0
TABLE
  2
BLOCK_RECORD
  5
1
100
AcDbSymbolTable
 70
1
  0
BLOCK_RECORD
  5
1F
100
AcDbSymbolTableRecord
100
AcDbBlockTableRecord
  2
*Model_Space
340
22
  0
BLOCK_RECORD
  5
1B
100
AcDbSymbolTableRecord
100
AcDbBlockTableRecord
  2
*Paper_Space
340
1E
  0
BLOCK_RECORD
  5
23
100
AcDbSymbolTableRecord
100
AcDbBlockTableRecord
  2
*Paper_Space0
340
26
  0
BLOCK_RECORD
  5
45
100
AcDbSymbolTableRecord
100
AcDbBlockTableRecord
  2
m3nuthead
340
0
  0
ENDTAB
  0
ENDSEC
  0
SECTION
  2
BLOCKS
  0
BLOCK
  5
20
100
AcDbEntity
  8
0
100
AcDbBlockBegin
  2
*Model_Space
 70
0
 10
0.0
 20
0.0
 30
0.0
  3
*Model_Space
  1

  0
ENDBLK
  5
21
100
AcDbEntity
  8
0
100
AcDbBlockEnd
  0
BLOCK
  5
1C
100
AcDbEntity
 67
1
  8
0
100
AcDbBlockBegin
  2
*Paper_Space
 70
0
 10
0.0
 20
0.0
 30
0.0
  3
*Paper_Space
  1

  0
ENDBLK
  5
1D
100
AcDbEntity
 67
1
  8
0
100
AcDbBlockEnd
  0
BLOCK
  5
24
100
AcDbEntity
  8
0
100
AcDbBlockBegin
  2
*Paper_Space0
 70
0
 10
0.0
 20
0.0
 30
0.0
  3
*Paper_Space0
  1

  0
ENDBLK
  5
25
100
AcDbEntity
  8
0
100
AcDbBlockEnd
  0
BLOCK
  5
46
100
AcDbEntity
  8
0
100
AcDbBlockBegin
  2
m3nuthead
 70
0
 10
0.0
 20
0.0
 30
0.0
  3
m3nuthead
  1

  0
ARC
  5
47
100
AcDbEntity
  8
Etch
 62
256
370
-1
  6
ByLayer
100
AcDbCircle
 10
-2.0000000000000027
 20
1.1547005383792497
 30
0.0
 40
0.5
100
AcDbArc
 50
120.0000000000000142
 51
180.0
  0
LINE
  5
48
100
AcDbEntity
100
AcDbLine
  8
Etch
 62
256
370
-1
  6
ByLayer
 10
-2.5000000000000009
 20
-1.154700538379251
 30
0.0
 11
-2.5000000000000027
 21
1.1547005383792495
 31
0.0
  0
ARC
  5
49
100
AcDbEntity
  8
Etch
 62
256
370
-1
  6
ByLayer
100
AcDbCircle
 10
-2.0000000000000009
 20
-1.1547005383792506
 30
0.0
 40
0.5
100
AcDbArc
 50
180.0
 51
239.9999999999999716
  0
LINE
  5
4A
100
AcDbEntity
100
AcDbLine
  8
Etch
 62
256
370
-1
  6
ByLayer
 10
-0.2500000000000004
 20
-2.7424137786507226
 30
0.0
 11
-2.2500000000000013
 21
-1.5877132402714702
 31
0.0
  0
ARC
  5
4B
100
AcDbEntity
  8
Etch
 62
256
370
-1
  6
ByLayer
100
AcDbCircle
 10
-0.0000000000000004
 20
-2.3094010767585034
 30
0.0
 40
0.5
100
AcDbArc
 50
239.9999999999999716
 51
300.0
  0
LINE
  5
4C
100
AcDbEntity
100
AcDbLine
  8
Etch
 62
256
370
-1
  6
ByLayer
 10
0.2499999999999997
 20
-2.7424137786507226
 30
0.0
 11
2.2499999999999978
 21
-1.5877132402714715
 31
0.0
  0
ARC
  5
4D
100
AcDbEntity
  8
Etch
 62
256
370
-1
  6
ByLayer
100
AcDbCircle
 10
1.9999999999999978
 20
-1.1547005383792524
 30
0.0
 40
0.5
100
AcDbArc
 50
300.0
 51
360.0
  0
LINE
  5
4E
100
AcDbEntity
100
AcDbLine
  8
Etch
 62
256
370
-1
  6
ByLayer
 10
2.4999999999999982
 20
-1.1547005383792528
 30
0.0
 11
2.5
 21
1.1547005383792506
 31
0.0
  0
ARC
  5
4F
100
AcDbEntity
  8
Etch
 62
256
370
-1
  6
ByLayer
100
AcDbCircle
 10
2.0
 20
1.154700538379251
 30
0.0
 40
0.5
100
AcDbArc
 50
360.0
 51
60.0000000000000568
  0
LINE
  5
50
100
AcDbEntity
100
AcDbLine
  8
Etch
 62
256
370
-1
  6
ByLayer
 10
2.2499999999999996
 20
1.5877132402714706
 30
0.0
 11
0.2499999999999964
 21
2.7424137786507217
 31
0.0
  0
LINE
  5
51
100
AcDbEntity
100
AcDbLine
  8
Etch
 62
256
370
-1
  6
ByLayer
 10
-2.2500000000000027
 20
1.5877132402714689
 30
0.0
 11
-0.2500000000000029
 21
2.7424137786507208
 31
0.0
  0
ARC
  5
52
100
AcDbEntity
  8
Etch
 62
256
370
-1
  6
ByLayer
100
AcDbCircle
 10
-0.0000000000000029
 20
2.309401076758502
 30
0.0
 40
0.5
100
AcDbArc
 50
60.0000000000000995
 51
120.0000000000000142
  0
ENDBLK
  5
53
100
AcDbEntity
  8
0
100
AcDbBlockEnd
  0
ENDSEC
  0
SECTION
  2
ENTITIES
  0
CIRCLE
  5
54
100
AcDbEntity
100
AcDbCircle
  8
0
 62
256
370
-1
  6
ByLayer
 10
-20.0
 20
20.0
 30
0.0
 40
1.5
  0
INSERT
  5
55
100
AcDbEntity
100
AcDbBlockReference
  8
Etch
 62
256
370
-1
  6
ByLayer
  2
m3nuthead
 10
-20.0
 20
20.0
 30
0.0
 44
1.0
 45
1.0
  0
ARC
  5
56
100
AcDbEntity
  8
0
 62
256
370
-1
  6
ByLayer
100
AcDbCircle
 10
-13.4322356371699811
 20
24.5677643628300189
 30
0.0
 40
2.0
100
AcDbArc
 50
214.8179325968409898
 51
298.6672927688995856
  0
ARC
  5
57
100
AcDbEntity
  8
0
 62
256
370
-1
  6
ByLayer
100
AcDbCircle
 10
-24.5677643628300189
 20
13.4322356371699811
 30
0.0
 40
2.0
100
AcDbArc
 50
331.3327072311004713
 51
55.1820674031590173
  0
ARC
  5
58
100
AcDbEntity
  8
0
 62
256
370
-1
  6
ByLayer
100
AcDbCircle
 10
-20.0
 20
20.0
 30
0.0
 40
6.0
100
AcDbArc
 50
34.8179312026345613
 51
235.1820660089523187
  0
CIRCLE
  5
59
100
AcDbEntity
100
AcDbCircle
  8
0
 62
256
370
-1
  6
ByLayer
 10
20.0
 20
20.0
 30
0.0
 40
1.5
  0
INSERT
  5
5A
100
AcDbEntity
100
AcDbBlockReference
  8
Etch
 62
256
370
-1
  6
ByLayer
  2
m3nuthead
 10
20.0
 20
20.0
 30
0.0
 41
1.0
 42
-1.0
 43
1.0
 50
180.0
 44
1.0
 45
1.0
  0
ARC
  5
5B
100
AcDbEntity
  8
0
 62
256
370
-1
  6
ByLayer
100
AcDbCircle
 10
13.4322356371699811
 20
24.5677643628300189
 30
0.0
 40
2.0
100
AcDbArc
 50
241.3327072311004144
 51
325.1820674031590102
  0
ARC
  5
5C
100
AcDbEntity
  8
0
 62
256
370
-1
  6
ByLayer
100
AcDbCircle
 10
24.5677643628300189
 20
13.4322356371699811
 30
0.0
 40
2.0
100
AcDbArc
 50
124.8179325968410183
 51
208.6672927688995287
  0
ARC
  5
5D
100
AcDbEntity
  8
0
 62
256
370
-1
  6
ByLayer
100
AcDbCircle
 10
20.0
 20
20.0
 30
0.0
 40
6.0
100
AcDbArc
 50
304.8179339910477097
 51
145.1820687973654174
  0
CIRCLE
  5
5E
100
AcDbEntity
100
AcDbCircle
  8
0
 62
256
370
-1
  6
ByLayer
 10
-20.0
 20
-20.0
 30
0.0
 40
1.5
  0
INSERT
  5
5F
100
AcDbEntity
100
AcDbBlockReference
  8
Etch
 62
256
370
-1
  6
ByLayer
  2
m3nuthead
 10
-20.0
 20
-20.0
 30
0.0
 41
1.0
 42
-1.0
 43
1.0
 44
1.0
 45
1.0
  0
ARC
  5
60
100
AcDbEntity
  8
0
 62
256
370
-1
  6
ByLayer
100
AcDbCircle
 10
-13.4322356371699811
 20
-24.5677643628300189
 30
0.0
 40
2.0
100
AcDbArc
 50
61.3327072311004287
 51
145.1820674031590102
  0
ARC
  5
61
100
AcDbEntity
  8
0
 62
256
370
-1
  6
ByLayer
100
AcDbCircle
 10
-24.5677643628300189
 20
-13.4322356371699811
 30
0.0
 40
2.0
100
AcDbArc
 50
304.8179325968409898
 51
28.6672927688995429
  0
ARC
  5
62
100
AcDbEntity
  8
0
 62
256
370
-1
  6
ByLayer
100
AcDbCircle
 10
-20.0
 20
-20.0
 30
0.0
 40
6.0
100
AcDbArc
 50
124.8179339910477239
 51
325.1820687973654458
  0
CIRCLE
  5
63
100
AcDbEntity
100
AcDbCircle
  8
0
 62
256
370
-1
  6
ByLayer
 10
20.0
 20
-20.0
 30
0.0
 40
1.5
  0
INSERT
  5
64
100
AcDbEntity
100
AcDbBlockReference
  8
Etch
 62
256
370
-1
  6
ByLayer
  2
m3nuthead
 10
20.0
 20
-20.0
 30
0.0
 50
180.0
 44
1.0
 45
1.0
  0
ARC
  5
65
100
AcDbEntity
  8
0
 62
256
370
-1
  6
ByLayer
100
AcDbCircle
 10
13.4322356371699811
 20
-24.5677643628300189
 30
0.0
 40
2.0
100
AcDbArc
 50
34.8179325968410041
 51
118.6672927688995856
  0
ARC
  5
66
100
AcDbEntity
  8
0
 62
256
370
-1
  6
ByLayer
100
AcDbCircle
 10
24.5677643628300189
 20
-13.4322356371700096
 30
0.0
 40
2.0
100
AcDbArc
 50
151.3327072311004713
 51
235.1820674031590102
  0
ARC
  5
67
100
AcDbEntity
  8
0
 62
256
370
-1
  6
ByLayer
100
AcDbCircle
 10
20.0
 20
-20.0
 30
0.0
 40
6.0
100
AcDbArc
 50
214.8179312026345826
 51
55.1820660089522832
  0
ARC
  5
68
100
AcDbEntity
  8
0
 62
256
370
-1
  6
ByLayer
100
AcDbCircle
 10
0.0
 20
0.0
 30
0.0
 40
26.0000000000000071
100
AcDbArc
 50
61.3327072310999597
 51
118.6672927689000403
  0
ARC
  5
69
100
AcDbEntity
  8
0
 62
256
370
-1
  6
ByLayer
100
AcDbCircle
 10
0.0
 20
0.0
 30
0.0
 40
26.0000000000000071
100
AcDbArc
 50
151.3327072310999313
 51
208.6672927689000687
  0
ARC
  5
6A
100
AcDbEntity
  8
0
 62
256
370
-1
  6
ByLayer
100
AcDbCircle
 10
0.0
 20
0.0
 30
0.0
 40
26.0000000000000071
100
AcDbArc
 50
241.3327072310999597
 51
298.6672927689000403
  0
ARC
  5
6B
100
AcDbEntity
  8
0
 62
256
370
-1
  6
ByLayer
100
AcDbCircle
 10
0.0
 20
0.0
 30
0.0
 40
26.0000000000000071
100
AcDbArc
 50
331.332707231099846
 51
28.6672927689000971
  0
CIRCLE
  5
6C
100
AcDbEntity
100
AcDbCircle
  8
0
 62
256
370
-1
  6
ByLayer
 10
40.0
 20
20.0000000000000036
 30
0.0
 40
1.5
  0
ARC
  5
6D
100
AcDbEntity
  8
0
 62
256
370
-1
  6
ByLayer
100
AcDbCircle
 10
46.5677643628300117
 20
24.5677643628300153
 30
0.0
 40
2.0
100
AcDbArc
 50
214.8179325968409898
 51
298.6672927688995856
  0
ARC
  5
6E
100
AcDbEntity
  8
0
 62
256
370
-1
  6
ByLayer
100
AcDbCircle
 10
35.4322356371699883
 20
13.4322356371699936
 30
0.0
 40
2.0
100
AcDbArc
 50
331.3327072311004713
 51
55.1820674031590173
  0
ARC
  5
6F
100
AcDbEntity
  8
0
 62
256
370
-1
  6
ByLayer
100
AcDbCircle
 10
40.0
 20
20.0000000000000036
 30
0.0
 40
6.0
100
AcDbArc
 50
34.8179312026345613
 51
235.1820660089523187
  0
CIRCLE
  5
70
100
AcDbEntity
100
AcDbCircle
  8
0
 62
256
370
-1
  6
ByLayer
 10
80.0
 20
20.0000000000000036
 30
0.0
 40
1.5
  0
ARC
  5
71
100
AcDbEntity
  8
0
 62
256
370
-1
  6
ByLayer
100
AcDbCircle
 10
73.4322356371699811
 20
24.5677643628300153
 30
0.0
 40
2.0
100
AcDbArc
 50
241.3327072311004144
 51
325.1820674031590102
  0
ARC
  5
72
100
AcDbEntity
  8
0
 62
256
370
-1
  6
ByLayer
100
AcDbCircle
 10
84.5677643628300189
 20
13.4322356371699865
 30
0.0
 40
2.0
100
AcDbArc
 50
124.8179325968410183
 51
208.6672927688995287
  0
ARC
  5
73
100
AcDbEntity
  8
0
 62
256
370
-1
  6
ByLayer
100
AcDbCircle
 10
80.0
 20
20.0000000000000036
 30
0.0
 40
6.0
100
AcDbArc
 50
304.8179339910477097
 51
145.1820687973654174
  0
CIRCLE
  5
74
100
AcDbEntity
100
AcDbCircle
  8
0
 62
256
370
-1
  6
ByLayer
 10
40.0
 20
-20.0
 30
0.0
 40
1.5
  0
ARC
  5
75
100
AcDbEntity
  8
0
 62
256
370
-1
  6
ByLayer
100
AcDbCircle
 10
46.5677643628300046
 20
-24.5677643628300117
 30
0.0
 40
2.0
100
AcDbArc
 50
61.3327072311004287
 51
145.1820674031590102
  0
ARC
  5
76
100
AcDbEntity
  8
0
 62
256
370
-1
  6
ByLayer
100
AcDbCircle
 10
35.4322356371699811
 20
-13.4322356371699883
 30
0.0
 40
2.0
100
AcDbArc
 50
304.8179325968409898
 51
28.6672927688995429
  0
ARC
  5
77
100
AcDbEntity
  8
0
 62
256
370
-1
  6
ByLayer
100
AcDbCircle
 10
40.0
 20
-20.0
 30
0.0
 40
6.0
100
AcDbArc
 50
124.8179339910477239
 51
325.1820687973654458
  0
CIRCLE
  5
78
100
AcDbEntity
100
AcDbCircle
  8
0
 62
256
370
-1
  6
ByLayer
 10
80.0
 20
-20.0000000000000036
 30
0.0
 40
1.5
  0
ARC
  5
79
100
AcDbEntity
  8
0
 62
256
370
-1
  6
ByLayer
100
AcDbCircle
 10
73.4322356371699811
 20
-24.5677643628300189
 30
0.0
 40
2.0
100
AcDbArc
 50
34.8179325968410041
 51
118.6672927688995856
  0
ARC
  5
7A
100
AcDbEntity
  8
0
 62
256
370
-1
  6
ByLayer
100
AcDbCircle
 10
84.5677643628300189
 20
-13.4322356371700025
 30
0.0
 40
2.0
100
AcDbArc
 50
151.3327072311004713
 51
235.1820674031590102
  0
ARC
  5
7B
100
AcDbEntity
  8
0
 62
256
370
-1
  6
ByLayer
100
AcDbCircle
 10
80.0
 20
-20.0000000000000036
 30
0.0
 40
6.0
100
AcDbArc
 50
214.8179312026345826
 51
55.1820660089522832
  0
ARC
  5
7C
100
AcDbEntity
  8
0
 62
256
370
-1
  6
ByLayer
100
AcDbCircle
 10
60.0
 20
0.0
 30
0.0
 40
26.0000000000000071
100
AcDbArc
 50
61.3327072310999597
 51
118.6672927689000403
  0
ARC
  5
7D
100
AcDbEntity
  8
0
 62
256
370
-1
  6
ByLayer
100
AcDbCircle
 10
60.0
 20
0.0
 30
0.0
 40
26.0000000000000071
100
AcDbArc
 50
151.3327072310999313
 51
208.6672927689000687
  0
ARC
  5
7E
100
AcDbEntity
  8
0
 62
256
370
-1
  6
ByLayer
100
AcDbCircle
 10
60.0
 20
0.0
 30
0.0
 40
26.0000000000000071
100
AcDbArc
 50
241.3327072310999597
 51
298.6672927689000403
  0
ARC
  5
7F
100
AcDbEntity
  8
0
 62
256
370
-1
  6
ByLayer
100
AcDbCircle
 10
60.0
 20
0.0
 30
0.0
 40
26.0000000000000071
100
AcDbArc
 50
331.332707231099846
 51
28.6672927689000971
  0
ARC
  5
80
100
AcDbEntity
  8
0
 62
256
370
-1
  6
ByLayer
100
AcDbCircle
 10
46.0
 20
2.0000000000000089
 30
0.0
 40
1.0
100
AcDbArc
 50
90.0
 51
180.0
  0
ARC
  5
81
100
AcDbEntity
  8
0
 62
256
370
-1
  6
ByLayer
100
AcDbCircle
 10
74.0
 20
2.0000000000000062
 30
0.0
 40
1.0
100
AcDbArc
 50
0.0
 51
90.0
  0
ARC
  5
82
100
AcDbEntity
  8
0
 62
256
370
-1
  6
ByLayer
100
AcDbCircle
 10
74.0
 20
-14.0000000000000036
 30
0.0
 40
1.0
100
AcDbArc
 50
270.0
 51
0.0
  0
ARC
  5
83
100
AcDbEntity
  8
0
 62
256
370
-1
  6
ByLayer
100
AcDbCircle
 10
46.0
 20
-13.9999999999999982
 30
0.0
 40
1.0
100
AcDbArc
 50
180.0
 51
270.0
  0
ARC
  5
84
100
AcDbEntity
  8
0
 62
256
370
-1
  6
ByLayer
100
AcDbCircle
 10
69.0
 20
19.0
 30
0.0
 40
1.0
100
AcDbArc
 50
0.0
 51
90.0
  0
LINE
  5
85
100
AcDbEntity
100
AcDbLine
  8
0
 62
256
370
-1
  6
ByLayer
 10
70.0
 20
18.9999999999999964
 30
0.0
 11
70.0
 21
11.0000000000000018
 31
0.0
  0
ARC
  5
86
100
AcDbEntity
  8
0
 62
256
370
-1
  6
ByLayer
100
AcDbCircle
 10
69.0
 20
11.0
 30
0.0
 40
1.0
100
AcDbArc
 50
270.0
 51
0.0
  0
LINE
  5
87
100
AcDbEntity
100
AcDbLine
  8
0
 62
256
370
-1
  6
ByLayer
 10
69.0
 20
10.0
 30
0.0
 11
51.0
 21
10.0
 31
0.0
  0
ARC
  5
88
100
AcDbEntity
  8
0
 62
256
370
-1
  6
ByLayer
100
AcDbCircle
 10
51.0
 20
11.0
 30
0.0
 40
1.0
100
AcDbArc
 50
180.0
 51
270.0
  0
LINE
  5
89
100
AcDbEntity
100
AcDbLine
  8
0
 62
256
370
-1
  6
ByLayer
 10
51.0
 20
20.0
 30
0.0
 11
69.0
 21
20.0
 31
0.0
  0
LINE
  5
8A
100
AcDbEntity
100
AcDbLine
  8
0
 62
256
370
-1
  6
ByLayer
 10
50.0
 20
11.0000000000000018
 30
0.0
 11
50.0
 21
19.0
 31
0.0
  0
ARC
  5
8B
100
AcDbEntity
  8
0
 62
256
370
-1
  6
ByLayer
100
AcDbCircle
 10
51.0000000000000071
 20
19.0000000000000036
 30
0.0
 40
1.0
100
AcDbArc
 50
90.0
 51
180.0
  0
LINE
  5
8C
100
AcDbEntity
100
AcDbLine
  8
0
 62
256
370
-1
  6
ByLayer
 10
45.0
 20
2.0000000000000515
 30
0.0
 11
45.0
 21
-2.0000000000000004
 31
0.0
  0
ARC
  5
8D
100
AcDbEntity
  8
0
 62
256
370
-1
  6
ByLayer
100
AcDbCircle
 10
44.0
 20
-1.9999999999999878
 30
0.0
 40
1.0
100
AcDbArc
 50
270.0
 51
0.0
  0
LINE
  5
8E
100
AcDbEntity
100
AcDbLine
  8
0
 62
256
370
-1
  6
ByLayer
 10
45.0
 20
-9.9999999999999964
 30
0.0
 11
45.0
 21
-14.0
 31
0.0
  0
ARC
  5
8F
100
AcDbEntity
  8
0
 62
256
370
-1
  6
ByLayer
100
AcDbCircle
 10
44.0
 20
-9.9999999999999982
 30
0.0
 40
1.0
100
AcDbArc
 50
0.0
 51
90.0
  0
LINE
  5
90
100
AcDbEntity
100
AcDbLine
  8
0
 62
256
370
-1
  6
ByLayer
 10
42.0
 20
-8.9999999999999982
 30
0.0
 11
44.0
 21
-8.9999999999999982
 31
0.0
  0
ARC
  5
91
100
AcDbEntity
  8
0
 62
256
370
-1
  6
ByLayer
100
AcDbCircle
 10
42.0
 20
-7.9999999999999902
 30
0.0
 40
1.0
100
AcDbArc
 50
180.0
 51
270.0
  0
LINE
  5
92
100
AcDbEntity
100
AcDbLine
  8
0
 62
256
370
-1
  6
ByLayer
 10
41.0
 20
-4.0000000000000027
 30
0.0
 11
41.0
 21
-8.0000000000000036
 31
0.0
  0
LINE
  5
93
100
AcDbEntity
100
AcDbLine
  8
0
 62
256
370
-1
  6
ByLayer
 10
44.0
 20
-2.9999999999999973
 30
0.0
 11
42.0
 21
-2.9999999999999996
 31
0.0
  0
ARC
  5
94
100
AcDbEntity
  8
0
 62
256
370
-1
  6
ByLayer
100
AcDbCircle
 10
42.0
 20
-3.9999999999999889
 30
0.0
 40
1.0
100
AcDbArc
 50
90.0
 51
180.0
  0
LINE
  5
95
100
AcDbEntity
100
AcDbLine
  8
0
 62
256
370
-1
  6
ByLayer
 10
44.0
 20
-2.9999999999999973
 30
0.0
 11
42.0
 21
-2.9999999999999996
 31
0.0
  0
LINE
  5
96
100
AcDbEntity
100
AcDbLine
  8
0
 62
256
370
-1
  6
ByLayer
 10
75.0
 20
2.000000000000052
 30
0.0
 11
75.0
 21
-1.9999999999999993
 31
0.0
  0
ARC
  5
97
100
AcDbEntity
  8
0
 62
256
370
-1
  6
ByLayer
100
AcDbCircle
 10
76.0
 20
-1.9999999999999938
 30
0.0
 40
1.0
100
AcDbArc
 50
180.0
 51
270.0
  0
LINE
  5
98
100
AcDbEntity
100
AcDbLine
  8
0
 62
256
370
-1
  6
ByLayer
 10
75.0
 20
-10.0000000000000089
 30
0.0
 11
75.0
 21
-14.0000000000000036
 31
0.0
  0
ARC
  5
99
100
AcDbEntity
  8
0
 62
256
370
-1
  6
ByLayer
100
AcDbCircle
 10
76.0
 20
-9.9999999999999964
 30
0.0
 40
1.0
100
AcDbArc
 50
89.9999999999999858
 51
180.0
  0
LINE
  5
9A
100
AcDbEntity
100
AcDbLine
  8
0
 62
256
370
-1
  6
ByLayer
 10
78.0
 20
-9.0000000000000053
 30
0.0
 11
76.0
 21
-9.0000000000000036
 31
0.0
  0
ARC
  5
9B
100
AcDbEntity
  8
0
 62
256
370
-1
  6
ByLayer
100
AcDbCircle
 10
78.0
 20
-8.0000000000000053
 30
0.0
 40
1.0
100
AcDbArc
 50
270.0
 51
360.0
  0
LINE
  5
9C
100
AcDbEntity
100
AcDbLine
  8
0
 62
256
370
-1
  6
ByLayer
 10
79.0
 20
-3.9999999999999751
 30
0.0
 11
79.0
 21
-8.0
 31
0.0
  0
LINE
  5
9D
100
AcDbEntity
100
AcDbLine
  8
0
 62
256
370
-1
  6
ByLayer
 10
76.0
 20
-3.0000000000000031
 30
0.0
 11
78.0
 21
-3.0000000000000058
 31
0.0
  0
ARC
  5
9E
100
AcDbEntity
  8
0
 62
256
370
-1
  6
ByLayer
100
AcDbCircle
 10
78.0
 20
-3.9999999999999702
 30
0.0
 40
1.0
100
AcDbArc
 50
360.0
 51
89.9999999999999858
  0
LINE
  5
9F
100
AcDbEntity
100
AcDbLine
  8
0
 62
256
370
-1
  6
ByLayer
 10
76.0
 20
-3.0000000000000031
 30
0.0
 11
78.0
 21
-3.0000000000000058
 31
0.0
  0
CIRCLE
  5
A0
100
AcDbEntity
100
AcDbCircle
  8
0
 62
256
370
-1
  6
ByLayer
 10
100.0
 20
20.0000000000000036
 30
0.0
 40
1.5
  0
ARC
  5
A1
100
AcDbEntity
  8
0
 62
256
370
-1
  6
ByLayer
100
AcDbCircle
 10
106.5677643628300189
 20
24.5677643628300153
 30
0.0
 40
2.0
100
AcDbArc
 50
214.8179325968409898
 51
298.6672927688995856
  0
ARC
  5
A2
100
AcDbEntity
  8
0
 62
256
370
-1
  6
ByLayer
100
AcDbCircle
 10
95.4322356371699811
 20
13.4322356371699936
 30
0.0
 40
2.0
100
AcDbArc
 50
331.3327072311004713
 51
55.1820674031590173
  0
ARC
  5
A3
100
AcDbEntity
  8
0
 62
256
370
-1
  6
ByLayer
100
AcDbCircle
 10
100.0
 20
20.0000000000000036
 30
0.0
 40
6.0
100
AcDbArc
 50
34.8179312026345613
 51
235.1820660089523187
  0
CIRCLE
  5
A4
100
AcDbEntity
100
AcDbCircle
  8
0
 62
256
370
-1
  6
ByLayer
 10
140.0
 20
20.0000000000000036
 30
0.0
 40
1.5
  0
ARC
  5
A5
100
AcDbEntity
  8
0
 62
256
370
-1
  6
ByLayer
100
AcDbCircle
 10
133.432235637170038
 20
24.5677643628300153
 30
0.0
 40
2.0
100
AcDbArc
 50
241.3327072311004144
 51
325.1820674031590102
  0
ARC
  5
A6
100
AcDbEntity
  8
0
 62
256
370
-1
  6
ByLayer
100
AcDbCircle
 10
144.5677643628300757
 20
13.4322356371699847
 30
0.0
 40
2.0
100
AcDbArc
 50
124.8179325968410183
 51
208.6672927688995287
  0
ARC
  5
A7
100
AcDbEntity
  8
0
 62
256
370
-1
  6
ByLayer
100
AcDbCircle
 10
140.0
 20
20.0000000000000036
 30
0.0
 40
6.0
100
AcDbArc
 50
304.8179339910477097
 51
145.1820687973654174
  0
CIRCLE
  5
A8
100
AcDbEntity
100
AcDbCircle
  8
0
 62
256
370
-1
  6
ByLayer
 10
100.0
 20
-20.0
 30
0.0
 40
1.5
  0
ARC
  5
A9
100
AcDbEntity
  8
0
 62
256
370
-1
  6
ByLayer
100
AcDbCircle
 10
106.5677643628300046
 20
-24.5677643628300117
 30
0.0
 40
2.0
100
AcDbArc
 50
61.3327072311004287
 51
145.1820674031590102
  0
ARC
  5
AA
100
AcDbEntity
  8
0
 62
256
370
-1
  6
ByLayer
100
AcDbCircle
 10
95.4322356371699811
 20
-13.4322356371699883
 30
0.0
 40
2.0
100
AcDbArc
 50
304.8179325968409898
 51
28.6672927688995429
  0
ARC
  5
AB
100
AcDbEntity
  8
0
 62
256
370
-1
  6
ByLayer
100
AcDbCircle
 10
100.0
 20
-20.0
 30
0.0
 40
6.0
100
AcDbArc
 50
124.8179339910477239
 51
325.1820687973654458
  0
CIRCLE
  5
AC
100
AcDbEntity
100
AcDbCircle
  8
0
 62
256
370
-1
  6
ByLayer
 10
140.0
 20
-20.0000000000000036
 30
0.0
 40
1.5
  0
ARC
  5
AD
100
AcDbEntity
  8
0
 62
256
370
-1
  6
ByLayer
100
AcDbCircle
 10
133.4322356371700096
 20
-24.5677643628300295
 30
0.0
 40
2.0
100
AcDbArc
 50
34.8179325968410041
 51
118.6672927688995856
  0
ARC
  5
AE
100
AcDbEntity
  8
0
 62
256
370
-1
  6
ByLayer
100
AcDbCircle
 10
144.5677643628300757
 20
-13.4322356371700042
 30
0.0
 40
2.0
100
AcDbArc
 50
151.3327072311004713
 51
235.1820674031590102
  0
ARC
  5
AF
100
AcDbEntity
  8
0
 62
256
370
-1
  6
ByLayer
100
AcDbCircle
 10
140.0
 20
-20.0000000000000036
 30
0.0
 40
6.0
100
AcDbArc
 50
214.8179312026345826
 51
55.1820660089522832
  0
ARC
  5
B0
100
AcDbEntity
  8
0
 62
256
370
-1
  6
ByLayer
100
AcDbCircle
 10
120.0
 20
0.0
 30
0.0
 40
26.0000000000000071
100
AcDbArc
 50
61.3327072310999597
 51
118.6672927689000403
  0
ARC
  5
B1
100
AcDbEntity
  8
0
 62
256
370
-1
  6
ByLayer
100
AcDbCircle
 10
120.0
 20
0.0
 30
0.0
 40
26.0000000000000071
100
AcDbArc
 50
151.3327072310999313
 51
208.6672927689000687
  0
ARC
  5
B2
100
AcDbEntity
  8
0
 62
256
370
-1
  6
ByLayer
100
AcDbCircle
 10
120.0
 20
0.0
 30
0.0
 40
26.0000000000000071
100
AcDbArc
 50
241.3327072310999597
 51
298.6672927689000403
  0
ARC
  5
B3
100
AcDbEntity
  8
0
 62
256
370
-1
  6
ByLayer
100
AcDbCircle
 10
120.0
 20
0.0
 30
0.0
 40
26.0000000000000071
100
AcDbArc
 50
331.332707231099846
 51
28.6672927689000971
  0
CIRCLE
  5
B4
100
AcDbEntity
100
AcDbCircle
  8
0
 62
256
370
-1
  6
ByLayer
 10
120.0
 20
0.0
 30
0.0
 40
24.3000000000000007
  0
LINE
  5
B5
100
AcDbEntity
100
AcDbLine
  8
0
 62
256
370
-1
  6
ByLayer
 10
52.5166852264521182
 20
3.0000000000000102
 30
0.0
 11
46.0
 21
3.0000000000000302
 31
0.0
  0
ARC
  5
B6
100
AcDbEntity
  8
0
 62
256
370
-1
  6
ByLayer
100
AcDbCircle
 10
52.5166852264521324
 20
7.0000000000000107
 30
0.0
 40
4.0
100
AcDbArc
 50
269.9999999999997726
 51
299.9264348666142723
  0
ARC
  5
B7
100
AcDbEntity
  8
0
 62
256
370
-1
  6
ByLayer
100
AcDbCircle
 10
60.0
 20
-6.0
 30
0.0
 40
11.0
100
AcDbArc
 50
60.0735651333858129
 51
119.9264348666141444
  0
LINE
  5
B8
100
AcDbEntity
100
AcDbLine
  8
0
 62
256
370
-1
  6
ByLayer
 10
74.0
 20
3.0000000000000044
 30
0.0
 11
67.4833147735478747
 21
3.0000000000000018
 31
0.0
  0
ARC
  5
B9
100
AcDbEntity
  8
0
 62
256
370
-1
  6
ByLayer
100
AcDbCircle
 10
67.4833147735478747
 20
7.0000000000000018
 30
0.0
 40
4.0
100
AcDbArc
 50
240.0735651333857561
 51
270.0
  0
LINE
  5
BA
100
AcDbEntity
100
AcDbLine
  8
0
 62
256
370
-1
  6
ByLayer
 10
67.4833147735478889
 20
-15.0
 30
0.0
 11
74.0
 21
-15.0000000000000036
 31
0.0
  0
ARC
  5
BB
100
AcDbEntity
  8
0
 62
256
370
-1
  6
ByLayer
100
AcDbCircle
 10
67.4833147735478889
 20
-19.0
 30
0.0
 40
4.0
100
AcDbArc
 50
90.0
 51
119.9264348666142439
  0
ARC
  5
BC
100
AcDbEntity
  8
0
 62
256
370
-1
  6
ByLayer
100
AcDbCircle
 10
60.0
 20
-6.0
 30
0.0
 40
11.0
100
AcDbArc
 50
240.0735651333857561
 51
299.9264348666142723
  0
LINE
  5
BD
100
AcDbEntity
100
AcDbLine
  8
0
 62
256
370
-1
  6
ByLayer
 10
46.0
 20
-14.9999999999999964
 30
0.0
 11
52.5166852264521111
 21
-14.9999999999999982
 31
0.0
  0
ARC
  5
BE
100
AcDbEntity
  8
0
 62
256
370
-1
  6
ByLayer
100
AcDbCircle
 10
52.5166852264521111
 20
-19.0
 30
0.0
 40
4.0
100
AcDbArc
 50
60.073565133385749
 51
90.0
  0
MTEXT
  5
BF
100
AcDbEntity
100
AcDbMText
  8
writing
 62
256
370
-1
  6
ByLayer
 10
-0.0000000000000004
 20
7.5
 30
0.0
 40
3.0
 41
100.0
 71
5
 72
0
  1
MakerBot\~Watch
  7
standard
 50
0.0
 73
1
 44
1.0
  0
ARC
  5
C0
100
AcDbEntity
  8
0
 62
256
370
-1
  6
ByLayer
100
AcDbCircle
 10
-14.0
 20
2.0000000000000089
 30
0.0
 40
1.0
100
AcDbArc
 50
90.0
 51
180.0
  0
ARC
  5
C1
100
AcDbEntity
  8
0
 62
256
370
-1
  6
ByLayer
100
AcDbCircle
 10
14.0
 20
2.0000000000000062
 30
0.0
 40
1.0
100
AcDbArc
 50
0.0
 51
90.0
  0
ARC
  5
C2
100
AcDbEntity
  8
0
 62
256
370
-1
  6
ByLayer
100
AcDbCircle
 10
14.0
 20
-14.0000000000000036
 30
0.0
 40
1.0
100
AcDbArc
 50
270.0
 51
0.0
  0
ARC
  5
C3
100
AcDbEntity
  8
0
 62
256
370
-1
  6
ByLayer
100
AcDbCircle
 10
-14.0
 20
-13.9999999999999982
 30
0.0
 40
1.0
100
AcDbArc
 50
180.0
 51
270.0
  0
LINE
  5
C4
100
AcDbEntity
100
AcDbLine
  8
0
 62
256
370
-1
  6
ByLayer
 10
-15.0
 20
2.0000000000000515
 30
0.0
 11
-15.0
 21
-2.0000000000000004
 31
0.0
  0
ARC
  5
C5
100
AcDbEntity
  8
0
 62
256
370
-1
  6
ByLayer
100
AcDbCircle
 10
-16.0
 20
-1.9999999999999878
 30
0.0
 40
1.0
100
AcDbArc
 50
270.0
 51
0.0
  0
LINE
  5
C6
100
AcDbEntity
100
AcDbLine
  8
0
 62
256
370
-1
  6
ByLayer
 10
-15.0
 20
-9.9999999999999964
 30
0.0
 11
-15.0
 21
-14.0
 31
0.0
  0
ARC
  5
C7
100
AcDbEntity
  8
0
 62
256
370
-1
  6
ByLayer
100
AcDbCircle
 10
-16.0
 20
-9.9999999999999982
 30
0.0
 40
1.0
100
AcDbArc
 50
0.0
 51
90.0
  0
LINE
  5
C8
100
AcDbEntity
100
AcDbLine
  8
0
 62
256
370
-1
  6
ByLayer
 10
-18.0
 20
-8.9999999999999982
 30
0.0
 11
-16.0
 21
-8.9999999999999982
 31
0.0
  0
ARC
  5
C9
100
AcDbEntity
  8
0
 62
256
370
-1
  6
ByLayer
100
AcDbCircle
 10
-18.0
 20
-7.9999999999999902
 30
0.0
 40
1.0
100
AcDbArc
 50
180.0
 51
270.0
  0
LINE
  5
CA
100
AcDbEntity
100
AcDbLine
  8
0
 62
256
370
-1
  6
ByLayer
 10
-19.0
 20
-4.0000000000000027
 30
0.0
 11
-19.0
 21
-8.0000000000000036
 31
0.0
  0
LINE
  5
CB
100
AcDbEntity
100
AcDbLine
  8
0
 62
256
370
-1
  6
ByLayer
 10
-16.0
 20
-2.9999999999999973
 30
0.0
 11
-18.0
 21
-2.9999999999999996
 31
0.0
  0
ARC
  5
CC
100
AcDbEntity
  8
0
 62
256
370
-1
  6
ByLayer
100
AcDbCircle
 10
-18.0
 20
-3.9999999999999889
 30
0.0
 40
1.0
100
AcDbArc
 50
90.0
 51
180.0
  0
LINE
  5
CD
100
AcDbEntity
100
AcDbLine
  8
0
 62
256
370
-1
  6
ByLayer
 10
-16.0
 20
-2.9999999999999973
 30
0.0
 11
-18.0
 21
-2.9999999999999996
 31
0.0
  0
LINE
  5
CE
100
AcDbEntity
100
AcDbLine
  8
0
 62
256
370
-1
  6
ByLayer
 10
15.0
 20
2.000000000000052
 30
0.0
 11
15.0
 21
-1.9999999999999993
 31
0.0
  0
ARC
  5
CF
100
AcDbEntity
  8
0
 62
256
370
-1
  6
ByLayer
100
AcDbCircle
 10
16.0
 20
-1.9999999999999938
 30
0.0
 40
1.0
100
AcDbArc
 50
180.0
 51
270.0
  0
LINE
  5
D0
100
AcDbEntity
100
AcDbLine
  8
0
 62
256
370
-1
  6
ByLayer
 10
15.0
 20
-10.0000000000000089
 30
0.0
 11
15.0
 21
-14.0000000000000036
 31
0.0
  0
ARC
  5
D1
100
AcDbEntity
  8
0
 62
256
370
-1
  6
ByLayer
100
AcDbCircle
 10
16.0
 20
-9.9999999999999964
 30
0.0
 40
1.0
100
AcDbArc
 50
89.9999999999999858
 51
180.0
  0
LINE
  5
D2
100
AcDbEntity
100
AcDbLine
  8
0
 62
256
370
-1
  6
ByLayer
 10
18.0
 20
-9.0000000000000053
 30
0.0
 11
16.0
 21
-9.0000000000000036
 31
0.0
  0
ARC
  5
D3
100
AcDbEntity
  8
0
 62
256
370
-1
  6
ByLayer
100
AcDbCircle
 10
18.0
 20
-8.0000000000000053
 30
0.0
 40
1.0
100
AcDbArc
 50
270.0
 51
360.0
  0
LINE
  5
D4
100
AcDbEntity
100
AcDbLine
  8
0
 62
256
370
-1
  6
ByLayer
 10
19.0
 20
-3.9999999999999751
 30
0.0
 11
19.0
 21
-8.0
 31
0.0
  0
LINE
  5
D5
100
AcDbEntity
100
AcDbLine
  8
0
 62
256
370
-1
  6
ByLayer
 10
16.0
 20
-3.0000000000000031
 30
0.0
 11
18.0
 21
-3.0000000000000058
 31
0.0
  0
ARC
  5
D6
100
AcDbEntity
  8
0
 62
256
370
-1
  6
ByLayer
100
AcDbCircle
 10
18.0
 20
-3.9999999999999702
 30
0.0
 40
1.0
100
AcDbArc
 50
360.0
 51
89.9999999999999858
  0
LINE
  5
D7
100
AcDbEntity
100
AcDbLine
  8
0
 62
256
370
-1
  6
ByLayer
 10
16.0
 20
-3.0000000000000031
 30
0.0
 11
18.0
 21
-3.0000000000000058
 31
0.0
  0
LINE
  5
D8
100
AcDbEntity
100
AcDbLine
  8
0
 62
256
370
-1
  6
ByLayer
 10
-7.4833147735478818
 20
3.0000000000000102
 30
0.0
 11
-14.0
 21
3.0000000000000302
 31
0.0
  0
ARC
  5
D9
100
AcDbEntity
  8
0
 62
256
370
-1
  6
ByLayer
100
AcDbCircle
 10
-7.4833147735478676
 20
7.0000000000000107
 30
0.0
 40
4.0
100
AcDbArc
 50
269.9999999999997726
 51
299.9264348666142723
  0
ARC
  5
DA
100
AcDbEntity
  8
0
 62
256
370
-1
  6
ByLayer
100
AcDbCircle
 10
0.0
 20
-6.0
 30
0.0
 40
11.0
100
AcDbArc
 50
60.0735651333858129
 51
119.9264348666141444
  0
LINE
  5
DB
100
AcDbEntity
100
AcDbLine
  8
0
 62
256
370
-1
  6
ByLayer
 10
14.0
 20
3.0000000000000044
 30
0.0
 11
7.4833147735478747
 21
3.0000000000000018
 31
0.0
  0
ARC
  5
DC
100
AcDbEntity
  8
0
 62
256
370
-1
  6
ByLayer
100
AcDbCircle
 10
7.4833147735478747
 20
7.0000000000000018
 30
0.0
 40
4.0
100
AcDbArc
 50
240.0735651333857561
 51
270.0
  0
LINE
  5
DD
100
AcDbEntity
100
AcDbLine
  8
0
 62
256
370
-1
  6
ByLayer
 10
7.4833147735478889
 20
-15.0
 30
0.0
 11
14.0
 21
-15.0000000000000036
 31
0.0
  0
ARC
  5
DE
100
AcDbEntity
  8
0
 62
256
370
-1
  6
ByLayer
100
AcDbCircle
 10
7.4833147735478889
 20
-19.0
 30
0.0
 40
4.0
100
AcDbArc
 50
90.0
 51
119.9264348666142439
  0
ARC
  5
DF
100
AcDbEntity
  8
0
 62
256
370
-1
  6
ByLayer
100
AcDbCircle
 10
0.0
 20
-6.0
 30
0.0
 40
11.0
100
AcDbArc
 50
240.0735651333857561
 51
299.9264348666142723
  0
LINE
  5
E0
100
AcDbEntity
100
AcDbLine
  8
0
 62
256
370
-1
  6
ByLayer
 10
-14.0
 20
-14.9999999999999964
 30
0.0
 11
-7.4833147735478889
 21
-14.9999999999999982
 31
0.0
  0
ARC
  5
E1
100
AcDbEntity
  8
0
 62
256
370
-1
  6
ByLayer
100
AcDbCircle
 10
-7.4833147735478889
 20
-19.0
 30
0.0
 40
4.0
100
AcDbArc
 50
60.073565133385749
 51
90.0
  0
CIRCLE
  5
E2
100
AcDbEntity
100
AcDbCircle
  8
0
 62
256
370
-1
  6
ByLayer
 10
160.0
 20
-80.0
 30
0.0
 40
1.5
  0
CIRCLE
  5
E3
100
AcDbEntity
100
AcDbCircle
  8
0
 62
256
370
-1
  6
ByLayer
 10
200.0
 20
-80.0
 30
0.0
 40
1.5
  0
CIRCLE
  5
E4
100
AcDbEntity
100
AcDbCircle
  8
0
 62
256
370
-1
  6
ByLayer
 10
160.0
 20
-120.0
 30
0.0
 40
1.5
  0
CIRCLE
  5
E5
100
AcDbEntity
100
AcDbCircle
  8
0
 62
256
370
-1
  6
ByLayer
 10
200.0
 20
-120.0
 30
0.0
 40
1.5
  0
CIRCLE
  5
E6
100
AcDbEntity
100
AcDbCircle
  8
0
 62
256
370
-1
  6
ByLayer
 10
180.0
 20
-100.0
 30
0.0
 40
23.0
  0
CIRCLE
  5
E7
100
AcDbEntity
100
AcDbCircle
  8
0
 62
256
370
-1
  6
ByLayer
 10
180.0
 20
-100.0
 30
0.0
 40
34.284271247461902
  0
MTEXT
  5
E8
100
AcDbEntity
100
AcDbMText
  8
Etch
 62
256
370
-1
  6
ByLayer
 10
196.0710678118654755
 20
-72.1640940179642172
 30
0.0
 40
3.0
 41
100.0
 71
5
 72
0
  1
1
  7
standard
 50
0.0
 73
1
 44
1.0
  0
MTEXT
  5
E9
100
AcDbEntity
100
AcDbMText
  8
Etch
 62
256
370
-1
  6
ByLayer
 10
207.835905982035797
 20
-83.9289321881345529
 30
0.0
 40
3.0
 41
100.0
 71
5
 72
0
  1
2
  7
standard
 50
0.0
 73
1
 44
1.0
  0
MTEXT
  5
EA
100
AcDbEntity
100
AcDbMText
  8
Etch
 62
256
370
-1
  6
ByLayer
 10
212.142135623730951
 20
-100.0000000000000142
 30
0.0
 40
3.0
 41
100.0
 71
5
 72
0
  1
3
  7
standard
 50
0.0
 73
1
 44
1.0
  0
MTEXT
  5
EB
100
AcDbEntity
100
AcDbMText
  8
Etch
 62
256
370
-1
  6
ByLayer
 10
207.835905982035797
 20
-116.0710678118654755
 30
0.0
 40
3.0
 41
100.0
 71
5
 72
0
  1
4
  7
standard
 50
0.0
 73
1
 44
1.0
  0
MTEXT
  5
EC
100
AcDbEntity
100
AcDbMText
  8
Etch
 62
256
370
-1
  6
ByLayer
 10
196.0710678118654755
 20
-127.8359059820357828
 30
0.0
 40
3.0
 41
100.0
 71
5
 72
0
  1
5
  7
standard
 50
0.0
 73
1
 44
1.0
  0
MTEXT
  5
ED
100
AcDbEntity
100
AcDbMText
  8
Etch
 62
256
370
-1
  6
ByLayer
 10
180.0
 20
-132.142135623730951
 30
0.0
 40
3.0
 41
100.0
 71
5
 72
0
  1
6
  7
standard
 50
0.0
 73
1
 44
1.0
  0
MTEXT
  5
EE
100
AcDbEntity
100
AcDbMText
  8
Etch
 62
256
370
-1
  6
ByLayer
 10
163.9289321881345245
 20
-127.8359059820357686
 30
0.0
 40
3.0
 41
100.0
 71
5
 72
0
  1
7
  7
standard
 50
0.0
 73
1
 44
1.0
  0
MTEXT
  5
EF
100
AcDbEntity
100
AcDbMText
  8
Etch
 62
256
370
-1
  6
ByLayer
 10
152.164094017964203
 20
-116.0710678118654755
 30
0.0
 40
3.0
 41
100.0
 71
5
 72
0
  1
8
  7
standard
 50
0.0
 73
1
 44
1.0
  0
MTEXT
  5
F0
100
AcDbEntity
100
AcDbMText
  8
Etch
 62
256
370
-1
  6
ByLayer
 10
147.857864376269049
 20
-100.0
 30
0.0
 40
3.0
 41
100.0
 71
5
 72
0
  1
9
  7
standard
 50
0.0
 73
1
 44
1.0
  0
MTEXT
  5
F1
100
AcDbEntity
100
AcDbMText
  8
Etch
 62
256
370
-1
  6
ByLayer
 10
152.164094017964203
 20
-83.9289321881345245
 30
0.0
 40
3.0
 41
100.0
 71
5
 72
0
  1
10
  7
standard
 50
0.0
 73
1
 44
1.0
  0
MTEXT
  5
F2
100
AcDbEntity
100
AcDbMText
  8
Etch
 62
256
370
-1
  6
ByLayer
 10
163.9289321881345245
 20
-72.164094017964203
 30
0.0
 40
3.0
 41
100.0
 71
5
 72
0
  1
11
  7
standard
 50
0.0
 73
1
 44
1.0
  0
MTEXT
  5
F3
100
AcDbEntity
100
AcDbMText
  8
Etch
 62
256
370
-1
  6
ByLayer
 10
180.0
 20
-68.0
 30
0.0
 40
3.0
 41
100.0
 71
5
 72
0
  1
12
  7
standard
 50
0.0
 73
1
 44
1.0
  0
CIRCLE
  5
F4
100
AcDbEntity
100
AcDbCircle
  8
Etch
 62
256
370
-1
  6
ByLayer
 10
180.0
 20
-100.0
 30
0.0
 40
30.0
  0
CIRCLE
  5
F5
100
AcDbEntity
100
AcDbCircle
  8
0
 62
256
370
-1
  6
ByLayer
 10
183.0
 20
-71.715728752538098
 30
0.0
 40
1.5
  0
CIRCLE
  5
F6
100
AcDbEntity
100
AcDbCircle
  8
0
 62
256
370
-1
  6
ByLayer
 10
177.0
 20
-71.715728752538098
 30
0.0
 40
1.5
  0
CIRCLE
  5
F7
100
AcDbEntity
100
AcDbCircle
  8
0
 62
256
370
-1
  6
ByLayer
 10
40.0
 20
-80.0
 30
0.0
 40
1.5
  0
ARC
  5
F8
100
AcDbEntity
  8
0
 62
256
370
-1
  6
ByLayer
100
AcDbCircle
 10
35.4322356371699883
 20
-86.5677643628300046
 30
0.0
 40
2.0
100
AcDbArc
 50
331.3327072311004713
 51
55.1820674031590173
  0
CIRCLE
  5
F9
100
AcDbEntity
100
AcDbCircle
  8
0
 62
256
370
-1
  6
ByLayer
 10
80.0
 20
-80.0
 30
0.0
 40
1.5
  0
ARC
  5
FA
100
AcDbEntity
  8
0
 62
256
370
-1
  6
ByLayer
100
AcDbCircle
 10
84.5677643628300189
 20
-86.5677643628300046
 30
0.0
 40
2.0
100
AcDbArc
 50
124.8179325968410183
 51
208.6672927688995287
  0
CIRCLE
  5
FB
100
AcDbEntity
100
AcDbCircle
  8
0
 62
256
370
-1
  6
ByLayer
 10
40.0
 20
-120.0
 30
0.0
 40
1.5
  0
ARC
  5
FC
100
AcDbEntity
  8
0
 62
256
370
-1
  6
ByLayer
100
AcDbCircle
 10
35.4322356371699811
 20
-113.4322356371699954
 30
0.0
 40
2.0
100
AcDbArc
 50
304.8179325968409898
 51
28.6672927688995429
  0
CIRCLE
  5
FD
100
AcDbEntity
100
AcDbCircle
  8
0
 62
256
370
-1
  6
ByLayer
 10
80.0
 20
-120.0
 30
0.0
 40
1.5
  0
ARC
  5
FE
100
AcDbEntity
  8
0
 62
256
370
-1
  6
ByLayer
100
AcDbCircle
 10
84.5677643628300189
 20
-113.4322356371700096
 30
0.0
 40
2.0
100
AcDbArc
 50
151.3327072311004713
 51
235.1820674031590102
  0
ARC
  5
FF
100
AcDbEntity
  8
0
 62
256
370
-1
  6
ByLayer
100
AcDbCircle
 10
60.0
 20
-100.0
 30
0.0
 40
26.0000000000000071
100
AcDbArc
 50
151.3327072310999313
 51
208.6672927689000687
  0
ARC
  5
100
100
AcDbEntity
  8
0
 62
256
370
-1
  6
ByLayer
100
AcDbCircle
 10
60.0
 20
-100.0
 30
0.0
 40
26.0000000000000071
100
AcDbArc
 50
331.332707231099846
 51
28.6672927689000971
  0
ARC
  5
101
100
AcDbEntity
  8
0
 62
256
370
-1
  6
ByLayer
100
AcDbCircle
 10
46.0
 20
-97.9999999999999716
 30
0.0
 40
1.0
100
AcDbArc
 50
90.0
 51
180.0
  0
ARC
  5
102
100
AcDbEntity
  8
0
 62
256
370
-1
  6
ByLayer
100
AcDbCircle
 10
74.0
 20
-98.0
 30
0.0
 40
1.0
100
AcDbArc
 50
0.0
 51
90.0
  0
ARC
  5
103
100
AcDbEntity
  8
0
 62
256
370
-1
  6
ByLayer
100
AcDbCircle
 10
74.0
 20
-114.0
 30
0.0
 40
1.0
100
AcDbArc
 50
270.0
 51
0.0
  0
ARC
  5
104
100
AcDbEntity
  8
0
 62
256
370
-1
  6
ByLayer
100
AcDbCircle
 10
46.0
 20
-114.0
 30
0.0
 40
1.0
100
AcDbArc
 50
180.0
 51
270.0
  0
ARC
  5
105
100
AcDbEntity
  8
0
 62
256
370
-1
  6
ByLayer
100
AcDbCircle
 10
69.0
 20
-81.0
 30
0.0
 40
1.0
100
AcDbArc
 50
0.0
 51
90.0
  0
LINE
  5
106
100
AcDbEntity
100
AcDbLine
  8
0
 62
256
370
-1
  6
ByLayer
 10
70.0
 20
-81.0
 30
0.0
 11
70.0
 21
-89.0
 31
0.0
  0
ARC
  5
107
100
AcDbEntity
  8
0
 62
256
370
-1
  6
ByLayer
100
AcDbCircle
 10
69.0
 20
-89.0
 30
0.0
 40
1.0
100
AcDbArc
 50
270.0
 51
0.0
  0
LINE
  5
108
100
AcDbEntity
100
AcDbLine
  8
0
 62
256
370
-1
  6
ByLayer
 10
69.0
 20
-90.0
 30
0.0
 11
51.0
 21
-90.0
 31
0.0
  0
ARC
  5
109
100
AcDbEntity
  8
0
 62
256
370
-1
  6
ByLayer
100
AcDbCircle
 10
51.0
 20
-89.0
 30
0.0
 40
1.0
100
AcDbArc
 50
180.0
 51
270.0
  0
LINE
  5
10A
100
AcDbEntity
100
AcDbLine
  8
0
 62
256
370
-1
  6
ByLayer
 10
51.0
 20
-80.0
 30
0.0
 11
69.0
 21
-80.0
 31
0.0
  0
LINE
  5
10B
100
AcDbEntity
100
AcDbLine
  8
0
 62
256
370
-1
  6
ByLayer
 10
50.0
 20
-89.0
 30
0.0
 11
50.0
 21
-81.0
 31
0.0
  0
ARC
  5
10C
100
AcDbEntity
  8
0
 62
256
370
-1
  6
ByLayer
100
AcDbCircle
 10
51.0000000000000071
 20
-81.0
 30
0.0
 40
1.0
100
AcDbArc
 50
90.0
 51
180.0
  0
LINE
  5
10D
100
AcDbEntity
100
AcDbLine
  8
0
 62
256
370
-1
  6
ByLayer
 10
45.0
 20
-97.9999999999999574
 30
0.0
 11
45.0
 21
-102.0
 31
0.0
  0
ARC
  5
10E
100
AcDbEntity
  8
0
 62
256
370
-1
  6
ByLayer
100
AcDbCircle
 10
44.0
 20
-101.9999999999999858
 30
0.0
 40
1.0
100
AcDbArc
 50
270.0
 51
0.0
  0
LINE
  5
10F
100
AcDbEntity
100
AcDbLine
  8
0
 62
256
370
-1
  6
ByLayer
 10
45.0
 20
-110.0
 30
0.0
 11
45.0
 21
-114.0
 31
0.0
  0
ARC
  5
110
100
AcDbEntity
  8
0
 62
256
370
-1
  6
ByLayer
100
AcDbCircle
 10
44.0
 20
-110.0
 30
0.0
 40
1.0
100
AcDbArc
 50
0.0
 51
90.0
  0
LINE
  5
111
100
AcDbEntity
100
AcDbLine
  8
0
 62
256
370
-1
  6
ByLayer
 10
42.0
 20
-109.0
 30
0.0
 11
44.0
 21
-109.0
 31
0.0
  0
ARC
  5
112
100
AcDbEntity
  8
0
 62
256
370
-1
  6
ByLayer
100
AcDbCircle
 10
42.0
 20
-107.9999999999999858
 30
0.0
 40
1.0
100
AcDbArc
 50
180.0
 51
270.0
  0
LINE
  5
113
100
AcDbEntity
100
AcDbLine
  8
0
 62
256
370
-1
  6
ByLayer
 10
41.0
 20
-104.0
 30
0.0
 11
41.0
 21
-108.0
 31
0.0
  0
LINE
  5
114
100
AcDbEntity
100
AcDbLine
  8
0
 62
256
370
-1
  6
ByLayer
 10
44.0
 20
-103.0
 30
0.0
 11
42.0
 21
-103.0
 31
0.0
  0
ARC
  5
115
100
AcDbEntity
  8
0
 62
256
370
-1
  6
ByLayer
100
AcDbCircle
 10
42.0
 20
-103.9999999999999858
 30
0.0
 40
1.0
100
AcDbArc
 50
90.0
 51
180.0
  0
LINE
  5
116
100
AcDbEntity
100
AcDbLine
  8
0
 62
256
370
-1
  6
ByLayer
 10
44.0
 20
-103.0
 30
0.0
 11
42.0
 21
-103.0
 31
0.0
  0
LINE
  5
117
100
AcDbEntity
100
AcDbLine
  8
0
 62
256
370
-1
  6
ByLayer
 10
75.0
 20
-97.9999999999999574
 30
0.0
 11
75.0
 21
-102.0
 31
0.0
  0
ARC
  5
118
100
AcDbEntity
  8
0
 62
256
370
-1
  6
ByLayer
100
AcDbCircle
 10
76.0
 20
-102.0
 30
0.0
 40
1.0
100
AcDbArc
 50
180.0
 51
270.0
  0
LINE
  5
119
100
AcDbEntity
100
AcDbLine
  8
0
 62
256
370
-1
  6
ByLayer
 10
75.0
 20
-110.0000000000000142
 30
0.0
 11
75.0
 21
-114.0
 31
0.0
  0
ARC
  5
11A
100
AcDbEntity
  8
0
 62
256
370
-1
  6
ByLayer
100
AcDbCircle
 10
76.0
 20
-110.0
 30
0.0
 40
1.0
100
AcDbArc
 50
89.9999999999999858
 51
180.0
  0
LINE
  5
11B
100
AcDbEntity
100
AcDbLine
  8
0
 62
256
370
-1
  6
ByLayer
 10
78.0
 20
-109.0000000000000284
 30
0.0
 11
76.0
 21
-109.0
 31
0.0
  0
ARC
  5
11C
100
AcDbEntity
  8
0
 62
256
370
-1
  6
ByLayer
100
AcDbCircle
 10
78.0
 20
-108.0
 30
0.0
 40
1.0
100
AcDbArc
 50
270.0
 51
360.0
  0
LINE
  5
11D
100
AcDbEntity
100
AcDbLine
  8
0
 62
256
370
-1
  6
ByLayer
 10
79.0
 20
-103.9999999999999716
 30
0.0
 11
79.0
 21
-108.0
 31
0.0
  0
LINE
  5
11E
100
AcDbEntity
100
AcDbLine
  8
0
 62
256
370
-1
  6
ByLayer
 10
76.0
 20
-103.0
 30
0.0
 11
78.0
 21
-103.0
 31
0.0
  0
ARC
  5
11F
100
AcDbEntity
  8
0
 62
256
370
-1
  6
ByLayer
100
AcDbCircle
 10
78.0
 20
-103.9999999999999716
 30
0.0
 40
1.0
100
AcDbArc
 50
360.0
 51
89.9999999999999858
  0
LINE
  5
120
100
AcDbEntity
100
AcDbLine
  8
0
 62
256
370
-1
  6
ByLayer
 10
76.0
 20
-103.0
 30
0.0
 11
78.0
 21
-103.0
 31
0.0
  0
LINE
  5
121
100
AcDbEntity
100
AcDbLine
  8
0
 62
256
370
-1
  6
ByLayer
 10
52.5166852264521182
 20
-96.9999999999999858
 30
0.0
 11
46.0
 21
-96.9999999999999716
 31
0.0
  0
ARC
  5
122
100
AcDbEntity
  8
0
 62
256
370
-1
  6
ByLayer
100
AcDbCircle
 10
52.5166852264521324
 20
-92.9999999999999858
 30
0.0
 40
4.0
100
AcDbArc
 50
269.9999999999997726
 51
299.9264348666142723
  0
ARC
  5
123
100
AcDbEntity
  8
0
 62
256
370
-1
  6
ByLayer
100
AcDbCircle
 10
60.0
 20
-106.0
 30
0.0
 40
11.0
100
AcDbArc
 50
60.0735651333858129
 51
119.9264348666141444
  0
LINE
  5
124
100
AcDbEntity
100
AcDbLine
  8
0
 62
256
370
-1
  6
ByLayer
 10
74.0
 20
-97.0
 30
0.0
 11
67.4833147735478747
 21
-97.0
 31
0.0
  0
ARC
  5
125
100
AcDbEntity
  8
0
 62
256
370
-1
  6
ByLayer
100
AcDbCircle
 10
67.4833147735478747
 20
-93.0
 30
0.0
 40
4.0
100
AcDbArc
 50
240.0735651333857561
 51
270.0
  0
LINE
  5
126
100
AcDbEntity
100
AcDbLine
  8
0
 62
256
370
-1
  6
ByLayer
 10
67.4833147735478889
 20
-115.0
 30
0.0
 11
74.0
 21
-115.0
 31
0.0
  0
ARC
  5
127
100
AcDbEntity
  8
0
 62
256
370
-1
  6
ByLayer
100
AcDbCircle
 10
67.4833147735478889
 20
-119.0
 30
0.0
 40
4.0
100
AcDbArc
 50
90.0
 51
119.9264348666142439
  0
ARC
  5
128
100
AcDbEntity
  8
0
 62
256
370
-1
  6
ByLayer
100
AcDbCircle
 10
60.0
 20
-106.0
 30
0.0
 40
11.0
100
AcDbArc
 50
240.0735651333857561
 51
299.9264348666142723
  0
LINE
  5
129
100
AcDbEntity
100
AcDbLine
  8
0
 62
256
370
-1
  6
ByLayer
 10
46.0
 20
-115.0
 30
0.0
 11
52.5166852264521111
 21
-115.0
 31
0.0
  0
ARC
  5
12A
100
AcDbEntity
  8
0
 62
256
370
-1
  6
ByLayer
100
AcDbCircle
 10
52.5166852264521182
 20
-119.0
 30
0.0
 40
4.0
100
AcDbArc
 50
60.073565133385749
 51
90.0
  0
ARC
  5
12B
100
AcDbEntity
  8
0
 62
256
370
-1
  6
ByLayer
100
AcDbCircle
 10
80.0
 20
-80.0
 30
0.0
 40
6.0
100
AcDbArc
 50
304.8179339910477097
 51
49.6315707268589534
  0
ARC
  5
12C
100
AcDbEntity
  8
0
 62
256
370
-1
  6
ByLayer
100
AcDbCircle
 10
40.0
 20
-80.0
 30
0.0
 40
6.0
100
AcDbArc
 50
130.3684292731402365
 51
235.1820660089523187
  0
LINE
  5
12D
100
AcDbEntity
100
AcDbLine
  8
0
 62
256
370
-1
  6
ByLayer
 10
35.7573594161189945
 20
-75.7573592096424449
 30
0.0
 11
40.2766404423208542
 21
-71.5893915223228987
 31
0.0
  0
ARC
  5
12E
100
AcDbEntity
  8
0
 62
256
370
-1
  6
ByLayer
100
AcDbCircle
 10
44.3443834106809476
 20
-76.0
 30
0.0
 40
6.0
100
AcDbArc
 50
90.0
 51
132.684213939467412
  0
LINE
  5
12F
100
AcDbEntity
100
AcDbLine
  8
0
 62
256
370
-1
  6
ByLayer
 10
44.3443834106809547
 20
-70.0
 30
0.0
 11
75.6556165893190524
 21
-70.0
 31
0.0
  0
LINE
  5
130
100
AcDbEntity
100
AcDbLine
  8
0
 62
256
370
-1
  6
ByLayer
 10
79.7233595576791458
 20
-71.5893915223228987
 30
0.0
 11
84.2426405838810126
 21
-75.7573592096424449
 31
0.0
  0
ARC
  5
131
100
AcDbEntity
  8
0
 62
256
370
-1
  6
ByLayer
100
AcDbCircle
 10
75.6556165893190524
 20
-76.0
 30
0.0
 40
6.0
100
AcDbArc
 50
47.3157860605325808
 51
90.0
  0
LINE
  5
132
100
AcDbEntity
100
AcDbLine
  8
0
 62
256
370
-1
  6
ByLayer
 10
35.7573594161189874
 20
-124.2426407903575409
 30
0.0
 11
40.27664044232084
 21
-128.4106084776771013
 31
0.0
  0
ARC
  5
133
100
AcDbEntity
  8
0
 62
256
370
-1
  6
ByLayer
100
AcDbCircle
 10
44.3443834106809334
 20
-123.9999999999999858
 30
0.0
 40
6.0
100
AcDbArc
 50
227.315786060532588
 51
270.0
  0
LINE
  5
134
100
AcDbEntity
100
AcDbLine
  8
0
 62
256
370
-1
  6
ByLayer
 10
44.3443834106809476
 20
-130.0
 30
0.0
 11
75.6556165893190382
 21
-130.0
 31
0.0
  0
LINE
  5
135
100
AcDbEntity
100
AcDbLine
  8
0
 62
256
370
-1
  6
ByLayer
 10
79.7233595576791458
 20
-128.4106084776771013
 30
0.0
 11
84.2426405838809984
 21
-124.2426407903575694
 31
0.0
  0
ARC
  5
136
100
AcDbEntity
  8
0
 62
256
370
-1
  6
ByLayer
100
AcDbCircle
 10
75.6556165893190524
 20
-124.0
 30
0.0
 40
6.0
100
AcDbArc
 50
270.0
 51
312.6842139394674405
  0
ARC
  5
137
100
AcDbEntity
  8
0
 62
256
370
-1
  6
ByLayer
100
AcDbCircle
 10
40.0
 20
-120.0
 30
0.0
 40
6.0
100
AcDbArc
 50
124.8179339910477239
 51
229.6315707268597635
  0
ARC
  5
138
100
AcDbEntity
  8
0
 62
256
370
-1
  6
ByLayer
100
AcDbCircle
 10
80.0
 20
-120.0
 30
0.0
 40
6.0
100
AcDbArc
 50
310.3684292731408618
 51
55.1820660089522832
  0
ARC
  5
139
100
AcDbEntity
  8
0
 62
256
370
-1
  6
ByLayer
100
AcDbCircle
 10
47.5
 20
-72.5
 30
0.0
 40
0.5
100
AcDbArc
 50
90.0
 51
180.0
  0
LINE
  5
13A
100
AcDbEntity
100
AcDbLine
  8
0
 62
256
370
-1
  6
ByLayer
 10
72.5
 20
-72.0
 30
0.0
 11
47.5
 21
-72.0
 31
0.0
  0
ARC
  5
13B
100
AcDbEntity
  8
0
 62
256
370
-1
  6
ByLayer
100
AcDbCircle
 10
72.5
 20
-72.5
 30
0.0
 40
0.5
100
AcDbArc
 50
0.0
 51
90.0
  0
LINE
  5
13C
100
AcDbEntity
100
AcDbLine
  8
0
 62
256
370
-1
  6
ByLayer
 10
73.0
 20
-73.5
 30
0.0
 11
73.0
 21
-72.5
 31
0.0
  0
ARC
  5
13D
100
AcDbEntity
  8
0
 62
256
370
-1
  6
ByLayer
100
AcDbCircle
 10
72.5
 20
-73.5
 30
0.0
 40
0.5
100
AcDbArc
 50
270.0
 51
0.0
  0
LINE
  5
13E
100
AcDbEntity
100
AcDbLine
  8
0
 62
256
370
-1
  6
ByLayer
 10
47.0
 20
-72.5
 30
0.0
 11
47.0000000000000071
 21
-73.5
 31
0.0
  0
LINE
  5
13F
100
AcDbEntity
100
AcDbLine
  8
0
 62
256
370
-1
  6
ByLayer
 10
47.4999999999999929
 20
-74.0
 30
0.0
 11
72.5
 21
-74.0
 31
0.0
  0
ARC
  5
140
100
AcDbEntity
  8
0
 62
256
370
-1
  6
ByLayer
100
AcDbCircle
 10
47.5
 20
-73.5
 30
0.0
 40
0.5
100
AcDbArc
 50
180.0
 51
270.0
  0
ARC
  5
141
100
AcDbEntity
  8
0
 62
256
370
-1
  6
ByLayer
100
AcDbCircle
 10
47.4999999999999929
 20
-127.5
 30
0.0
 40
0.5
100
AcDbArc
 50
180.0
 51
270.0
  0
LINE
  5
142
100
AcDbEntity
100
AcDbLine
  8
0
 62
256
370
-1
  6
ByLayer
 10
72.5
 20
-128.0
 30
0.0
 11
47.4999999999999858
 21
-128.0
 31
0.0
  0
ARC
  5
143
100
AcDbEntity
  8
0
 62
256
370
-1
  6
ByLayer
100
AcDbCircle
 10
72.5
 20
-127.5
 30
0.0
 40
0.5
100
AcDbArc
 50
270.0
 51
0.0
  0
LINE
  5
144
100
AcDbEntity
100
AcDbLine
  8
0
 62
256
370
-1
  6
ByLayer
 10
72.9999999999999858
 20
-126.5
 30
0.0
 11
73.0000000000000142
 21
-127.5
 31
0.0
  0
ARC
  5
145
100
AcDbEntity
  8
0
 62
256
370
-1
  6
ByLayer
100
AcDbCircle
 10
72.5
 20
-126.5
 30
0.0
 40
0.5
100
AcDbArc
 50
0.0
 51
90.0000000000000142
  0
LINE
  5
146
100
AcDbEntity
100
AcDbLine
  8
0
 62
256
370
-1
  6
ByLayer
 10
46.9999999999999858
 20
-127.4999999999999858
 30
0.0
 11
47.0
 21
-126.5
 31
0.0
  0
LINE
  5
147
100
AcDbEntity
100
AcDbLine
  8
0
 62
256
370
-1
  6
ByLayer
 10
47.4999999999999858
 20
-126.0
 30
0.0
 11
72.5
 21
-126.0
 31
0.0
  0
ARC
  5
148
100
AcDbEntity
  8
0
 62
256
370
-1
  6
ByLayer
100
AcDbCircle
 10
47.4999999999999929
 20
-126.5
 30
0.0
 40
0.5
100
AcDbArc
 50
90.0000000000000142
 51
180.0
  0
CIRCLE
  5
149
100
AcDbEntity
100
AcDbCircle
  8
0
 62
256
370
-1
  6
ByLayer
 10
160.0
 20
20.0000000000000036
 30
0.0
 40
1.5
  0
ARC
  5
14A
100
AcDbEntity
  8
0
 62
256
370
-1
  6
ByLayer
100
AcDbCircle
 10
166.5677643628300189
 20
24.5677643628300153
 30
0.0
 40
2.0
100
AcDbArc
 50
214.8179325968409898
 51
298.6672927688995856
  0
ARC
  5
14B
100
AcDbEntity
  8
0
 62
256
370
-1
  6
ByLayer
100
AcDbCircle
 10
155.4322356371699811
 20
13.4322356371699971
 30
0.0
 40
2.0
100
AcDbArc
 50
331.3327072311004713
 51
55.1820674031590173
  0
ARC
  5
14C
100
AcDbEntity
  8
0
 62
256
370
-1
  6
ByLayer
100
AcDbCircle
 10
160.0
 20
20.0000000000000036
 30
0.0
 40
6.0
100
AcDbArc
 50
34.8179312026345613
 51
235.1820660089523187
  0
CIRCLE
  5
14D
100
AcDbEntity
100
AcDbCircle
  8
0
 62
256
370
-1
  6
ByLayer
 10
200.0
 20
20.0000000000000036
 30
0.0
 40
1.5
  0
ARC
  5
14E
100
AcDbEntity
  8
0
 62
256
370
-1
  6
ByLayer
100
AcDbCircle
 10
193.432235637170038
 20
24.5677643628300153
 30
0.0
 40
2.0
100
AcDbArc
 50
241.3327072311004144
 51
325.1820674031590102
  0
ARC
  5
14F
100
AcDbEntity
  8
0
 62
256
370
-1
  6
ByLayer
100
AcDbCircle
 10
204.5677643628300757
 20
13.4322356371699847
 30
0.0
 40
2.0
100
AcDbArc
 50
124.8179325968410183
 51
208.6672927688995287
  0
ARC
  5
150
100
AcDbEntity
  8
0
 62
256
370
-1
  6
ByLayer
100
AcDbCircle
 10
200.0
 20
20.0000000000000036
 30
0.0
 40
6.0
100
AcDbArc
 50
304.8179339910477097
 51
145.1820687973654174
  0
CIRCLE
  5
151
100
AcDbEntity
100
AcDbCircle
  8
0
 62
256
370
-1
  6
ByLayer
 10
160.0
 20
-20.0
 30
0.0
 40
1.5
  0
ARC
  5
152
100
AcDbEntity
  8
0
 62
256
370
-1
  6
ByLayer
100
AcDbCircle
 10
166.5677643628299904
 20
-24.5677643628300117
 30
0.0
 40
2.0
100
AcDbArc
 50
61.3327072311004287
 51
145.1820674031590102
  0
ARC
  5
153
100
AcDbEntity
  8
0
 62
256
370
-1
  6
ByLayer
100
AcDbCircle
 10
155.4322356371699811
 20
-13.43223563716999
 30
0.0
 40
2.0
100
AcDbArc
 50
304.8179325968409898
 51
28.6672927688995429
  0
ARC
  5
154
100
AcDbEntity
  8
0
 62
256
370
-1
  6
ByLayer
100
AcDbCircle
 10
160.0
 20
-20.0
 30
0.0
 40
6.0
100
AcDbArc
 50
124.8179339910477239
 51
325.1820687973654458
  0
CIRCLE
  5
155
100
AcDbEntity
100
AcDbCircle
  8
0
 62
256
370
-1
  6
ByLayer
 10
200.0
 20
-20.0000000000000036
 30
0.0
 40
1.5
  0
ARC
  5
156
100
AcDbEntity
  8
0
 62
256
370
-1
  6
ByLayer
100
AcDbCircle
 10
193.4322356371700096
 20
-24.567764362830026
 30
0.0
 40
2.0
100
AcDbArc
 50
34.8179325968410041
 51
118.6672927688995856
  0
ARC
  5
157
100
AcDbEntity
  8
0
 62
256
370
-1
  6
ByLayer
100
AcDbCircle
 10
204.5677643628300757
 20
-13.4322356371700042
 30
0.0
 40
2.0
100
AcDbArc
 50
151.3327072311004713
 51
235.1820674031590102
  0
ARC
  5
158
100
AcDbEntity
  8
0
 62
256
370
-1
  6
ByLayer
100
AcDbCircle
 10
200.0
 20
-20.0000000000000036
 30
0.0
 40
6.0
100
AcDbArc
 50
214.8179312026345826
 51
55.1820660089522832
  0
ARC
  5
159
100
AcDbEntity
  8
0
 62
256
370
-1
  6
ByLayer
100
AcDbCircle
 10
180.0
 20
0.0
 30
0.0
 40
26.0000000000000071
100
AcDbArc
 50
61.3327072310999597
 51
118.6672927689000403
  0
ARC
  5
15A
100
AcDbEntity
  8
0
 62
256
370
-1
  6
ByLayer
100
AcDbCircle
 10
180.0
 20
0.0
 30
0.0
 40
26.0000000000000071
100
AcDbArc
 50
151.3327072310999313
 51
208.6672927689000687
  0
ARC
  5
15B
100
AcDbEntity
  8
0
 62
256
370
-1
  6
ByLayer
100
AcDbCircle
 10
180.0
 20
0.0
 30
0.0
 40
26.0000000000000071
100
AcDbArc
 50
241.3327072310999597
 51
298.6672927689000403
  0
ARC
  5
15C
100
AcDbEntity
  8
0
 62
256
370
-1
  6
ByLayer
100
AcDbCircle
 10
180.0
 20
0.0
 30
0.0
 40
26.0000000000000071
100
AcDbArc
 50
331.332707231099846
 51
28.6672927689000971
  0
CIRCLE
  5
15D
100
AcDbEntity
100
AcDbCircle
  8
0
 62
256
370
-1
  6
ByLayer
 10
180.0
 20
0.0
 30
0.0
 40
23.0
  0
CIRCLE
  5
15E
100
AcDbEntity
100
AcDbCircle
  8
0
 62
256
370
-1
  6
ByLayer
 10
220.0
 20
20.0
 30
0.0
 40
1.5
  0
ARC
  5
15F
100
AcDbEntity
  8
0
 62
256
370
-1
  6
ByLayer
100
AcDbCircle
 10
226.5677643628300189
 20
24.5677643628300189
 30
0.0
 40
2.0
100
AcDbArc
 50
214.8179325968409898
 51
298.6672927688995856
  0
ARC
  5
160
100
AcDbEntity
  8
0
 62
256
370
-1
  6
ByLayer
100
AcDbCircle
 10
215.4322356371699811
 20
13.4322356371699811
 30
0.0
 40
2.0
100
AcDbArc
 50
331.3327072311004713
 51
55.1820674031590173
  0
ARC
  5
161
100
AcDbEntity
  8
0
 62
256
370
-1
  6
ByLayer
100
AcDbCircle
 10
220.0
 20
20.0
 30
0.0
 40
6.0
100
AcDbArc
 50
34.8179312026345613
 51
235.1820660089523187
  0
CIRCLE
  5
162
100
AcDbEntity
100
AcDbCircle
  8
0
 62
256
370
-1
  6
ByLayer
 10
260.0
 20
20.0
 30
0.0
 40
1.5
  0
ARC
  5
163
100
AcDbEntity
  8
0
 62
256
370
-1
  6
ByLayer
100
AcDbCircle
 10
253.4322356371699243
 20
24.5677643628300189
 30
0.0
 40
2.0
100
AcDbArc
 50
241.3327072311004144
 51
325.1820674031590102
  0
ARC
  5
164
100
AcDbEntity
  8
0
 62
256
370
-1
  6
ByLayer
100
AcDbCircle
 10
264.5677643628300757
 20
13.4322356371699811
 30
0.0
 40
2.0
100
AcDbArc
 50
124.8179325968410183
 51
208.6672927688995287
  0
ARC
  5
165
100
AcDbEntity
  8
0
 62
256
370
-1
  6
ByLayer
100
AcDbCircle
 10
260.0
 20
20.0
 30
0.0
 40
6.0
100
AcDbArc
 50
304.8179339910477097
 51
145.1820687973654174
  0
CIRCLE
  5
166
100
AcDbEntity
100
AcDbCircle
  8
0
 62
256
370
-1
  6
ByLayer
 10
220.0
 20
-20.0
 30
0.0
 40
1.5
  0
ARC
  5
167
100
AcDbEntity
  8
0
 62
256
370
-1
  6
ByLayer
100
AcDbCircle
 10
226.5677643628300189
 20
-24.5677643628300189
 30
0.0
 40
2.0
100
AcDbArc
 50
61.3327072311004287
 51
145.1820674031590102
  0
ARC
  5
168
100
AcDbEntity
  8
0
 62
256
370
-1
  6
ByLayer
100
AcDbCircle
 10
215.4322356371699811
 20
-13.4322356371699811
 30
0.0
 40
2.0
100
AcDbArc
 50
304.8179325968409898
 51
28.6672927688995429
  0
ARC
  5
169
100
AcDbEntity
  8
0
 62
256
370
-1
  6
ByLayer
100
AcDbCircle
 10
220.0
 20
-20.0
 30
0.0
 40
6.0
100
AcDbArc
 50
124.8179339910477239
 51
325.1820687973654458
  0
CIRCLE
  5
16A
100
AcDbEntity
100
AcDbCircle
  8
0
 62
256
370
-1
  6
ByLayer
 10
260.0
 20
-20.0
 30
0.0
 40
1.5
  0
ARC
  5
16B
100
AcDbEntity
  8
0
 62
256
370
-1
  6
ByLayer
100
AcDbCircle
 10
253.4322356371699243
 20
-24.5677643628300189
 30
0.0
 40
2.0
100
AcDbArc
 50
34.8179325968410041
 51
118.6672927688995856
  0
ARC
  5
16C
100
AcDbEntity
  8
0
 62
256
370
-1
  6
ByLayer
100
AcDbCircle
 10
264.567764362829962
 20
-13.4322356371700096
 30
0.0
 40
2.0
100
AcDbArc
 50
151.3327072311004713
 51
235.1820674031590102
  0
ARC
  5
16D
100
AcDbEntity
  8
0
 62
256
370
-1
  6
ByLayer
100
AcDbCircle
 10
260.0
 20
-20.0
 30
0.0
 40
6.0
100
AcDbArc
 50
214.8179312026345826
 51
55.1820660089522832
  0
ARC
  5
16E
100
AcDbEntity
  8
0
 62
256
370
-1
  6
ByLayer
100
AcDbCircle
 10
240.0
 20
0.0
 30
0.0
 40
26.0000000000000071
100
AcDbArc
 50
151.3327072310999313
 51
208.6672927689000687
  0
ARC
  5
16F
100
AcDbEntity
  8
0
 62
256
370
-1
  6
ByLayer
100
AcDbCircle
 10
240.0
 20
0.0
 30
0.0
 40
26.0000000000000071
100
AcDbArc
 50
241.3327072310999597
 51
298.6672927689000403
  0
ARC
  5
170
100
AcDbEntity
  8
0
 62
256
370
-1
  6
ByLayer
100
AcDbCircle
 10
240.0
 20
0.0
 30
0.0
 40
26.0000000000000071
100
AcDbArc
 50
331.332707231099846
 51
28.6672927689000971
  0
ARC
  5
171
100
AcDbEntity
  8
0
 62
256
370
-1
  6
ByLayer
100
AcDbCircle
 10
247.8740078740117951
 20
26.8700576850887956
 30
0.0
 40
2.0
100
AcDbArc
 50
169.8179325968409898
 51
253.6672927688995856
  0
ARC
  5
172
100
AcDbEntity
  8
0
 62
256
370
-1
  6
ByLayer
100
AcDbCircle
 10
232.1259921259882049
 20
26.870057685088824
 30
0.0
 40
2.0
100
AcDbArc
 50
286.3327072311004144
 51
10.182067403159003
  0
ARC
  5
173
100
AcDbEntity
  8
0
 62
256
370
-1
  6
ByLayer
100
AcDbCircle
 10
240.0
 20
28.284271247461902
 30
0.0
 40
6.0
100
AcDbArc
 50
349.8179312026345542
 51
190.1820660089523187
  0
ARC
  5
174
100
AcDbEntity
  8
0
 62
256
370
-1
  6
ByLayer
100
AcDbCircle
 10
240.0
 20
0.0
 30
0.0
 40
26.0000000000000071
100
AcDbArc
 50
61.3327072310999597
 51
73.6672927689000403
  0
ARC
  5
175
100
AcDbEntity
  8
0
 62
256
370
-1
  6
ByLayer
100
AcDbCircle
 10
240.0
 20
0.0
 30
0.0
 40
26.0000000000000071
100
AcDbArc
 50
106.3327072310998034
 51
118.6672927689001114
  0
CIRCLE
  5
176
100
AcDbEntity
100
AcDbCircle
  8
0
 62
256
370
-1
  6
ByLayer
 10
240.0
 20
28.284271247461902
 30
0.0
 40
2.5
  0
CIRCLE
  5
177
100
AcDbEntity
100
AcDbCircle
  8
0
 62
256
370
-1
  6
ByLayer
 10
240.0
 20
0.0
 30
0.0
 40
23.0
  0
CIRCLE
  5
178
100
AcDbEntity
100
AcDbCircle
  8
0
 62
256
370
-1
  6
ByLayer
 10
280.0
 20
20.0000000000000036
 30
0.0
 40
1.5
  0
ARC
  5
179
100
AcDbEntity
  8
0
 62
256
370
-1
  6
ByLayer
100
AcDbCircle
 10
286.567764362829962
 20
24.5677643628300189
 30
0.0
 40
2.0
100
AcDbArc
 50
214.8179325968409898
 51
298.6672927688995856
  0
ARC
  5
17A
100
AcDbEntity
  8
0
 62
256
370
-1
  6
ByLayer
100
AcDbCircle
 10
275.432235637170038
 20
13.4322356371699918
 30
0.0
 40
2.0
100
AcDbArc
 50
331.3327072311004713
 51
55.1820674031590173
  0
ARC
  5
17B
100
AcDbEntity
  8
0
 62
256
370
-1
  6
ByLayer
100
AcDbCircle
 10
280.0
 20
20.0000000000000036
 30
0.0
 40
6.0
100
AcDbArc
 50
34.8179312026345613
 51
235.1820660089523187
  0
CIRCLE
  5
17C
100
AcDbEntity
100
AcDbCircle
  8
0
 62
256
370
-1
  6
ByLayer
 10
320.0
 20
20.0000000000000036
 30
0.0
 40
1.5
  0
ARC
  5
17D
100
AcDbEntity
  8
0
 62
256
370
-1
  6
ByLayer
100
AcDbCircle
 10
313.432235637170038
 20
24.5677643628300153
 30
0.0
 40
2.0
100
AcDbArc
 50
241.3327072311004144
 51
325.1820674031590102
  0
ARC
  5
17E
100
AcDbEntity
  8
0
 62
256
370
-1
  6
ByLayer
100
AcDbCircle
 10
324.5677643628300757
 20
13.4322356371699847
 30
0.0
 40
2.0
100
AcDbArc
 50
124.8179325968410183
 51
208.6672927688995287
  0
ARC
  5
17F
100
AcDbEntity
  8
0
 62
256
370
-1
  6
ByLayer
100
AcDbCircle
 10
320.0
 20
20.0000000000000036
 30
0.0
 40
6.0
100
AcDbArc
 50
304.8179339910477097
 51
145.1820687973654174
  0
CIRCLE
  5
180
100
AcDbEntity
100
AcDbCircle
  8
0
 62
256
370
-1
  6
ByLayer
 10
280.0
 20
-20.0
 30
0.0
 40
1.5
  0
ARC
  5
181
100
AcDbEntity
  8
0
 62
256
370
-1
  6
ByLayer
100
AcDbCircle
 10
286.567764362829962
 20
-24.5677643628300224
 30
0.0
 40
2.0
100
AcDbArc
 50
61.3327072311004287
 51
145.1820674031590102
  0
ARC
  5
182
100
AcDbEntity
  8
0
 62
256
370
-1
  6
ByLayer
100
AcDbCircle
 10
275.432235637170038
 20
-13.4322356371699847
 30
0.0
 40
2.0
100
AcDbArc
 50
304.8179325968409898
 51
28.6672927688995429
  0
ARC
  5
183
100
AcDbEntity
  8
0
 62
256
370
-1
  6
ByLayer
100
AcDbCircle
 10
280.0
 20
-20.0
 30
0.0
 40
6.0
100
AcDbArc
 50
124.8179339910477239
 51
325.1820687973654458
  0
CIRCLE
  5
184
100
AcDbEntity
100
AcDbCircle
  8
0
 62
256
370
-1
  6
ByLayer
 10
320.0
 20
-20.0000000000000036
 30
0.0
 40
1.5
  0
ARC
  5
185
100
AcDbEntity
  8
0
 62
256
370
-1
  6
ByLayer
100
AcDbCircle
 10
313.432235637170038
 20
-24.5677643628300295
 30
0.0
 40
2.0
100
AcDbArc
 50
34.8179325968410041
 51
118.6672927688995856
  0
ARC
  5
186
100
AcDbEntity
  8
0
 62
256
370
-1
  6
ByLayer
100
AcDbCircle
 10
324.5677643628300757
 20
-13.4322356371700042
 30
0.0
 40
2.0
100
AcDbArc
 50
151.3327072311004713
 51
235.1820674031590102
  0
ARC
  5
187
100
AcDbEntity
  8
0
 62
256
370
-1
  6
ByLayer
100
AcDbCircle
 10
320.0
 20
-20.0000000000000036
 30
0.0
 40
6.0
100
AcDbArc
 50
214.8179312026345826
 51
55.1820660089522832
  0
ARC
  5
188
100
AcDbEntity
  8
0
 62
256
370
-1
  6
ByLayer
100
AcDbCircle
 10
300.0
 20
0.0
 30
0.0
 40
26.0000000000000071
100
AcDbArc
 50
61.3327072310999597
 51
118.6672927689000403
  0
ARC
  5
189
100
AcDbEntity
  8
0
 62
256
370
-1
  6
ByLayer
100
AcDbCircle
 10
300.0
 20
0.0
 30
0.0
 40
26.0000000000000071
100
AcDbArc
 50
151.3327072310999313
 51
208.6672927689000687
  0
ARC
  5
18A
100
AcDbEntity
  8
0
 62
256
370
-1
  6
ByLayer
100
AcDbCircle
 10
300.0
 20
0.0
 30
0.0
 40
26.0000000000000071
100
AcDbArc
 50
241.3327072310999597
 51
298.6672927689000403
  0
ARC
  5
18B
100
AcDbEntity
  8
0
 62
256
370
-1
  6
ByLayer
100
AcDbCircle
 10
300.0
 20
0.0
 30
0.0
 40
26.0000000000000071
100
AcDbArc
 50
331.332707231099846
 51
28.6672927689000971
  0
ARC
  5
18C
100
AcDbEntity
  8
0
 62
256
370
-1
  6
ByLayer
100
AcDbCircle
 10
285.0
 20
5.0000000000000009
 30
0.0
 40
1.0
100
AcDbArc
 50
0.0
 51
90.0
  0
LINE
  5
18D
100
AcDbEntity
100
AcDbLine
  8
0
 62
256
370
-1
  6
ByLayer
 10
286.0
 20
5.0000000000000044
 30
0.0
 11
286.0
 21
-3.9999999999999996
 31
0.0
  0
ARC
  5
18E
100
AcDbEntity
  8
0
 62
256
370
-1
  6
ByLayer
100
AcDbCircle
 10
285.0
 20
-3.9999999999999956
 30
0.0
 40
1.0
100
AcDbArc
 50
270.0
 51
0.0
  0
LINE
  5
18F
100
AcDbEntity
100
AcDbLine
  8
0
 62
256
370
-1
  6
ByLayer
 10
285.0
 20
-4.9999999999999973
 30
0.0
 11
282.0
 21
-5.0000000000000053
 31
0.0
  0
ARC
  5
190
100
AcDbEntity
  8
0
 62
256
370
-1
  6
ByLayer
100
AcDbCircle
 10
282.0
 20
-3.9999999999999889
 30
0.0
 40
1.0
100
AcDbArc
 50
180.0
 51
270.0
  0
LINE
  5
191
100
AcDbEntity
100
AcDbLine
  8
0
 62
256
370
-1
  6
ByLayer
 10
281.0
 20
-4.0000000000000027
 30
0.0
 11
281.0
 21
4.9999999999999991
 31
0.0
  0
LINE
  5
192
100
AcDbEntity
100
AcDbLine
  8
0
 62
256
370
-1
  6
ByLayer
 10
282.0
 20
6.0000000000000009
 30
0.0
 11
285.0
 21
5.9999999999999947
 31
0.0
  0
ARC
  5
193
100
AcDbEntity
  8
0
 62
256
370
-1
  6
ByLayer
100
AcDbCircle
 10
282.0
 20
5.0000000000000098
 30
0.0
 40
1.0
100
AcDbArc
 50
90.0
 51
180.0
  0
LINE
  5
194
100
AcDbEntity
100
AcDbLine
  8
0
 62
256
370
-1
  6
ByLayer
 10
293.3819660112501424
 20
-14.0
 30
0.0
 11
293.3819660112501424
 21
-14.0
 31
0.0
  0
ARC
  5
195
100
AcDbEntity
  8
0
 62
256
370
-1
  6
ByLayer
100
AcDbCircle
 10
292.3819660112501424
 20
-14.0
 30
0.0
 40
1.0
100
AcDbArc
 50
360.0
 51
90.0
  0
LINE
  5
196
100
AcDbEntity
100
AcDbLine
  8
0
 62
256
370
-1
  6
ByLayer
 10
293.3819660112501424
 20
-10.0
 30
0.0
 11
293.3819660112501424
 21
-10.0
 31
0.0
  0
ARC
  5
197
100
AcDbEntity
  8
0
 62
256
370
-1
  6
ByLayer
100
AcDbCircle
 10
292.3819660112501424
 20
-9.9999999999999982
 30
0.0
 40
1.0
100
AcDbArc
 50
270.0
 51
360.0
  0
LINE
  5
198
100
AcDbEntity
100
AcDbLine
  8
0
 62
256
370
-1
  6
ByLayer
 10
290.926005310278299
 20
-11.0
 30
0.0
 11
292.3819660112501424
 21
-11.0
 31
0.0
  0
ARC
  5
199
100
AcDbEntity
  8
0
 62
256
370
-1
  6
ByLayer
100
AcDbCircle
 10
290.926005310278299
 20
-10.0
 30
0.0
 40
1.0
100
AcDbArc
 50
218.1727076270115617
 51
270.0
  0
LINE
  5
19A
100
AcDbEntity
100
AcDbLine
  8
0
 62
256
370
-1
  6
ByLayer
 10
290.926005310278299
 20
-13.0
 30
0.0
 11
292.3819660112501424
 21
-13.0
 31
0.0
  0
ARC
  5
19B
100
AcDbEntity
  8
0
 62
256
370
-1
  6
ByLayer
100
AcDbCircle
 10
288.3819660112501424
 20
-11.9999999999999982
 30
0.0
 40
2.2360679774997898
100
AcDbArc
 50
38.1727076270122723
 51
321.8272923729877562
  0
ARC
  5
19C
100
AcDbEntity
  8
0
 62
256
370
-1
  6
ByLayer
100
AcDbCircle
 10
290.926005310278299
 20
-14.0
 30
0.0
 40
1.0
100
AcDbArc
 50
90.0
 51
141.827292372988353
  0
LINE
  5
19D
100
AcDbEntity
100
AcDbLine
  8
0
 62
256
370
-1
  6
ByLayer
 10
306.6180339887498576
 20
-14.0000000000000036
 30
0.0
 11
306.6180339887498576
 21
-14.0000000000000036
 31
0.0
  0
ARC
  5
19E
100
AcDbEntity
  8
0
 62
256
370
-1
  6
ByLayer
100
AcDbCircle
 10
307.6180339887498576
 20
-14.0000000000000018
 30
0.0
 40
1.0
100
AcDbArc
 50
90.0
 51
180.0
  0
LINE
  5
19F
100
AcDbEntity
100
AcDbLine
  8
0
 62
256
370
-1
  6
ByLayer
 10
306.6180339887498576
 20
-10.0000000000000018
 30
0.0
 11
306.6180339887498576
 21
-10.0000000000000018
 31
0.0
  0
ARC
  5
1A0
100
AcDbEntity
  8
0
 62
256
370
-1
  6
ByLayer
100
AcDbCircle
 10
307.6180339887498576
 20
-10.0000000000000018
 30
0.0
 40
1.0
100
AcDbArc
 50
180.0
 51
270.0
  0
LINE
  5
1A1
100
AcDbEntity
100
AcDbLine
  8
0
 62
256
370
-1
  6
ByLayer
 10
309.073994689721701
 20
-11.0000000000000036
 30
0.0
 11
307.6180339887498576
 21
-11.0000000000000036
 31
0.0
  0
ARC
  5
1A2
100
AcDbEntity
  8
0
 62
256
370
-1
  6
ByLayer
100
AcDbCircle
 10
309.073994689721701
 20
-10.0000000000000036
 30
0.0
 40
1.0
100
AcDbArc
 50
270.0
 51
321.8272923729883246
  0
LINE
  5
1A3
100
AcDbEntity
100
AcDbLine
  8
0
 62
256
370
-1
  6
ByLayer
 10
309.073994689721701
 20
-13.0000000000000036
 30
0.0
 11
307.6180339887498576
 21
-13.0000000000000036
 31
0.0
  0
ARC
  5
1A4
100
AcDbEntity
  8
0
 62
256
370
-1
  6
ByLayer
100
AcDbCircle
 10
311.6180339887498576
 20
-12.0000000000000036
 30
0.0
 40
2.2360679774997898
100
AcDbArc
 50
218.1727076270122438
 51
141.8272923729877277
  0
ARC
  5
1A5
100
AcDbEntity
  8
0
 62
256
370
-1
  6
ByLayer
100
AcDbCircle
 10
309.073994689721701
 20
-14.0000000000000036
 30
0.0
 40
1.0
100
AcDbArc
 50
38.1727076270115546
 51
90.0
  0
LINE
  5
1A6
100
AcDbEntity
100
AcDbLine
  8
0
 62
256
370
-1
  6
ByLayer
 10
293.4000000000000341
 20
11.9819660112501083
 30
0.0
 11
293.4000000000000341
 21
11.9819660112501083
 31
0.0
  0
ARC
  5
1A7
100
AcDbEntity
  8
0
 62
256
370
-1
  6
ByLayer
100
AcDbCircle
 10
293.4000000000000341
 20
10.9819660112501083
 30
0.0
 40
1.0
100
AcDbArc
 50
90.0
 51
180.0
  0
LINE
  5
1A8
100
AcDbEntity
100
AcDbLine
  8
0
 62
256
370
-1
  6
ByLayer
 10
289.4000000000000341
 20
11.9819660112501101
 30
0.0
 11
289.4000000000000341
 21
11.9819660112501101
 31
0.0
  0
ARC
  5
1A9
100
AcDbEntity
  8
0
 62
256
370
-1
  6
ByLayer
100
AcDbCircle
 10
289.4000000000000341
 20
10.9819660112501101
 30
0.0
 40
1.0
100
AcDbArc
 50
360.0
 51
90.0
  0
LINE
  5
1AA
100
AcDbEntity
100
AcDbLine
  8
0
 62
256
370
-1
  6
ByLayer
 10
290.4000000000000341
 20
9.5260053102782649
 30
0.0
 11
290.4000000000000341
 21
10.9819660112501083
 31
0.0
  0
ARC
  5
1AB
100
AcDbEntity
  8
0
 62
256
370
-1
  6
ByLayer
100
AcDbCircle
 10
289.4000000000000341
 20
9.5260053102782649
 30
0.0
 40
1.0
100
AcDbArc
 50
308.1727076270115617
 51
360.0
  0
LINE
  5
1AC
100
AcDbEntity
100
AcDbLine
  8
0
 62
256
370
-1
  6
ByLayer
 10
292.4000000000000341
 20
9.5260053102782649
 30
0.0
 11
292.4000000000000341
 21
10.9819660112501083
 31
0.0
  0
ARC
  5
1AD
100
AcDbEntity
  8
0
 62
256
370
-1
  6
ByLayer
100
AcDbCircle
 10
291.4000000000000341
 20
6.9819660112501092
 30
0.0
 40
2.2360679774997898
100
AcDbArc
 50
128.1727076270122723
 51
51.8272923729877277
  0
ARC
  5
1AE
100
AcDbEntity
  8
0
 62
256
370
-1
  6
ByLayer
100
AcDbCircle
 10
293.4000000000000341
 20
9.5260053102782649
 30
0.0
 40
1.0
100
AcDbArc
 50
180.0
 51
231.827292372988353
  0
ENDSEC
  0
SECTION
  2
OBJECTS
  0
DICTIONARY
  5
C
100
AcDbDictionary
280
0
281
1
  3
ACAD_GROUP
350
D
  3
ACAD_LAYOUT
350
1A
  3
ACAD_MLINESTYLE
350
17
  3
ACAD_PLOTSETTINGS
350
19
  3
ACAD_PLOTSTYLENAME
350
E
  3
AcDbVariableDictionary
350
1AF
  0
DICTIONARY
  5
D
100
AcDbDictionary
280
0
281
1
  0
ACDBDICTIONARYWDFLT
  5
E
100
AcDbDictionary
281
1
  3
Normal
350
F
100
AcDbDictionaryWithDefault
340
F
  0
ACDBPLACEHOLDER
  5
F
  0
DICTIONARY
  5
17
100
AcDbDictionary
280
0
281
1
  3
Standard
350
18
  0
MLINESTYLE
  5
18
100
AcDbMlineStyle
  2
STANDARD
 70
0
  3

 62
256
 51
90.0
 52
90.0
 71
2
 49
0.5
 62
256
  6
BYLAYER
 49
-0.5
 62
256
  6
BYLAYER
  0
DICTIONARY
  5
19
100
AcDbDictionary
280
0
281
1
  0
DICTIONARY
  5
1A
100
AcDbDictionary
281
1
  3
Layout1
350
1E
  3
Layout2
350
26
  3
Model
350
22
  0
LAYOUT
  5
1E
100
AcDbPlotSettings
  1

  2
C:\Program Files\AutoCAD 2002\plotters\DWF ePlot (optimized for plotting).pc3
  4

  6

 40
0.0
 41
0.0
 42
0.0
 43
0.0
 44
0.0
 45
0.0
 46
0.0
 47
0.0
 48
0.0
 49
0.0
140
0.0
141
0.0
142
1.0
143
1.0
 70
688
 72
0
 73
0
 74
5
  7

 75
16
147
1.0
148
0.0
149
0.0
100
AcDbLayout
  1
Layout1
 70
1
 71
1
 10
0.0
 20
0.0
 11
420.0
 21
297.0
 12
0.0
 22
0.0
 32
0.0
 14
100000000000000000000.0
 24
100000000000000000000.0
 34
100000000000000000000.0
 15
-100000000000000000000.0
 25
-100000000000000000000.0
 35
-100000000000000000000.0
146
0.0
 13
0.0
 23
0.0
 33
0.0
 16
1.0
 26
0.0
 36
0.0
 17
0.0
 27
1.0
 37
0.0
 76
0
330
1B
  0
LAYOUT
  5
22
100
AcDbPlotSettings
  1

  2
C:\Program Files\AutoCAD 2002\plotters\DWF ePlot (optimized for plotting).pc3
  4

  6

 40
0.0
 41
0.0
 42
0.0
 43
0.0
 44
0.0
 45
0.0
 46
0.0
 47
0.0
 48
0.0
 49
0.0
140
0.0
141
0.0
142
1.0
143
1.0
 70
1712
 72
0
 73
0
 74
0
  7

 75
0
147
1.0
148
0.0
149
0.0
100
AcDbLayout
  1
Model
 70
1
 71
0
 10
0.0
 20
0.0
 11
12.0
 21
9.0
 12
0.0
 22
0.0
 32
0.0
 14
0.0
 24
0.0
 34
0.0
 15
0.0
 25
0.0
 35
0.0
146
0.0
 13
0.0
 23
0.0
 33
0.0
 16
1.0
 26
0.0
 36
0.0
 17
0.0
 27
1.0
 37
0.0
 76
0
330
1F
  0
LAYOUT
  5
26
100
AcDbPlotSettings
  1

  2
C:\Program Files\AutoCAD 2002\plotters\DWF ePlot (optimized for plotting).pc3
  4

  6

 40
0.0
 41
0.0
 42
0.0
 43
0.0
 44
0.0
 45
0.0
 46
0.0
 47
0.0
 48
0.0
 49
0.0
140
0.0
141
0.0
142
1.0
143
1.0
 70
688
 72
0
 73
0
 74
5
  7

 75
16
147
1.0
148
0.0
149
0.0
100
AcDbLayout
  1
Layout2
 70
1
 71
2
 10
0.0
 20
0.0
 11
12.0
 21
9.0
 12
0.0
 22
0.0
 32
0.0
 14
0.0
 24
0.0
 34
0.0
 15
0.0
 25
0.0
 35
0.0
146
0.0
 13
0.0
 23
0.0
 33
0.0
 16
1.0
 26
0.0
 36
0.0
 17
0.0
 27
1.0
 37
0.0
 76
0
330
23
  0
DICTIONARY
  5
1AF
100
AcDbDictionary
281
1
  3
DIMASSOC
350
1B1
  3
HIDETEXT
350
1B0
  0
DICTIONARYVAR
  5
1B0
100
DictionaryVariables
280
0
  1
2
  0
DICTIONARYVAR
  5
1B1
100
DictionaryVariables
280
0
  1
1
  0
ENDSEC
  0
EOF
