999
dxflib 2.2.0.0
  0
SECTION
  2
HEADER
  9
$ACADVER
  1
AC1015
  9
$HANDSEED
  5
FFFF
  9
$DIMASZ
 40
2.5
  9
$PLIMMIN
 10
0.0
 20
0.0
  9
$DIMEXE
 40
1.25
  9
$DIMGAP
 40
0.625
  9
$PLIMMAX
 10
210.0
 20
297.0
  9
$INSUNITS
 70
4
  9
$DIMSTYLE
  2
Standard
  9
$CLAYER
  8
Drawings
  9
$DIMEXO
 40
0.625
  9
$DIMTXT
 40
2.5
  9
$CLAYER
  8
0
  0
ENDSEC
  0
SECTION
  2
TABLES
  0
TABLE
  2
VPORT
  5
8
100
AcDbSymbolTable
 70
1
  0
VPORT
  5
30
100
AcDbSymbolTableRecord
100
AcDbViewportTableRecord
  2
*Active
 70
0
 10
0.0
 20
0.0
 11
1.0
 21
1.0
 12
286.3055555555554861
 22
148.5
 13
0.0
 23
0.0
 14
10.0
 24
10.0
 15
10.0
 25
10.0
 16
0.0
 26
0.0
 36
1.0
 17
0.0
 27
0.0
 37
0.0
 40
297.0
 41
1.92798353909465
 42
50.0
 43
0.0
 44
0.0
 50
0.0
 51
0.0
 71
0
 72
100
 73
1
 74
3
 75
1
 76
1
 77
0
 78
0
281
0
 65
1
110
0.0
120
0.0
130
0.0
111
1.0
121
0.0
131
0.0
112
0.0
122
1.0
132
0.0
 79
0
146
0.0
  0
ENDTAB
  0
TABLE
  2
LTYPE
  5
5
100
AcDbSymbolTable
 70
21
  0
LTYPE
  5
14
100
AcDbSymbolTableRecord
100
AcDbLinetypeTableRecord
  2
ByBlock
 70
0
  3

 72
65
 73
0
 40
0.0
  0
LTYPE
  5
15
100
AcDbSymbolTableRecord
100
AcDbLinetypeTableRecord
  2
ByLayer
 70
0
  3

 72
65
 73
0
 40
0.0
  0
LTYPE
  5
16
100
AcDbSymbolTableRecord
100
AcDbLinetypeTableRecord
  2
CONTINUOUS
 70
0
  3
Solid line
 72
65
 73
0
 40
0.0
  0
LTYPE
  5
31
100
AcDbSymbolTableRecord
100
AcDbLinetypeTableRecord
  2
DOT
 70
0
  3
Dot . . . . . . . . . . . . . . . . . . . . . .
 72
65
 73
2
 40
6.3499999999999996
 49
0.0
 74
0
 49
-6.3499999999999996
 74
0
  0
LTYPE
  5
32
100
AcDbSymbolTableRecord
100
AcDbLinetypeTableRecord
  2
DOT2
 70
0
  3
Dot (.5x) .....................................
 72
65
 73
2
 40
3.1749999999999998
 49
0.0
 74
0
 49
-3.1749999999999998
 74
0
  0
LTYPE
  5
33
100
AcDbSymbolTableRecord
100
AcDbLinetypeTableRecord
  2
DOTX2
 70
0
  3
Dot (2x) .  .  .  .  .  .  .  .  .  .  .  .  .
 72
65
 73
2
 40
12.6999999999999993
 49
0.0
 74
0
 49
-12.6999999999999993
 74
0
  0
LTYPE
  5
34
100
AcDbSymbolTableRecord
100
AcDbLinetypeTableRecord
  2
DASHED
 70
0
  3
Dashed __ __ __ __ __ __ __ __ __ __ __ __ __ _
 72
65
 73
2
 40
19.0500000000000007
 49
12.6999999999999993
 74
0
 49
-6.3499999999999996
 74
0
  0
LTYPE
  5
35
100
AcDbSymbolTableRecord
100
AcDbLinetypeTableRecord
  2
DASHED2
 70
0
  3
Dashed (.5x) _ _ _ _ _ _ _ _ _ _ _ _ _ _ _ _ _
 72
65
 73
2
 40
9.5250000000000004
 49
6.3499999999999996
 74
0
 49
-3.1749999999999998
 74
0
  0
LTYPE
  5
36
100
AcDbSymbolTableRecord
100
AcDbLinetypeTableRecord
  2
DASHEDX2
 70
0
  3
Dashed (2x) ____  ____  ____  ____  ____  ___
 72
65
 73
2
 40
38.1000000000000014
 49
25.3999999999999986
 74
0
 49
-12.6999999999999993
 74
0
  0
LTYPE
  5
37
100
AcDbSymbolTableRecord
100
AcDbLinetypeTableRecord
  2
DASHDOT
 70
0
  3
Dash dot __ . __ . __ . __ . __ . __ . __ . __
 72
65
 73
4
 40
25.3999999999999986
 49
12.6999999999999993
 74
0
 49
-6.3499999999999996
 74
0
 49
0.0
 74
0
 49
-6.3499999999999996
 74
0
  0
LTYPE
  5
38
100
AcDbSymbolTableRecord
100
AcDbLinetypeTableRecord
  2
DASHDOT2
 70
0
  3
Dash dot (.5x) _._._._._._._._._._._._._._._.
 72
65
 73
4
 40
12.6999999999999993
 49
6.3499999999999996
 74
0
 49
-3.1749999999999998
 74
0
 49
0.0
 74
0
 49
-3.1749999999999998
 74
0
  0
LTYPE
  5
39
100
AcDbSymbolTableRecord
100
AcDbLinetypeTableRecord
  2
DASHDOTX2
 70
0
  3
Dash dot (2x) ____  .  ____  .  ____  .  ___
 72
65
 73
4
 40
50.7999999999999972
 49
25.3999999999999986
 74
0
 49
-12.6999999999999993
 74
0
 49
0.0
 74
0
 49
-12.6999999999999993
 74
0
  0
LTYPE
  5
3A
100
AcDbSymbolTableRecord
100
AcDbLinetypeTableRecord
  2
DIVIDE
 70
0
  3
Divide ____ . . ____ . . ____ . . ____ . . ____
 72
65
 73
6
 40
31.75
 49
12.6999999999999993
 74
0
 49
-6.3499999999999996
 74
0
 49
0.0
 74
0
 49
-6.3499999999999996
 74
0
 49
0.0
 74
0
 49
-6.3499999999999996
 74
0
  0
LTYPE
  5
3B
100
AcDbSymbolTableRecord
100
AcDbLinetypeTableRecord
  2
DIVIDE2
 70
0
  3
Divide (.5x) __..__..__..__..__..__..__..__.._
 72
65
 73
6
 40
15.875
 49
6.3499999999999996
 74
0
 49
-3.1749999999999998
 74
0
 49
0.0
 74
0
 49
-3.1749999999999998
 74
0
 49
0.0
 74
0
 49
-3.1749999999999998
 74
0
  0
LTYPE
  5
3C
100
AcDbSymbolTableRecord
100
AcDbLinetypeTableRecord
  2
DIVIDEX2
 70
0
  3
Divide (2x) ________  .  .  ________  .  .  _
 72
65
 73
6
 40
63.5
 49
25.3999999999999986
 74
0
 49
-12.6999999999999993
 74
0
 49
0.0
 74
0
 49
-12.6999999999999993
 74
0
 49
0.0
 74
0
 49
-12.6999999999999993
 74
0
  0
LTYPE
  5
3D
100
AcDbSymbolTableRecord
100
AcDbLinetypeTableRecord
  2
CENTER
 70
0
  3
Center ____ _ ____ _ ____ _ ____ _ ____ _ ____
 72
65
 73
4
 40
50.7999999999999972
 49
31.75
 74
0
 49
-6.3499999999999996
 74
0
 49
6.3499999999999996
 74
0
 49
-6.3499999999999996
 74
0
  0
LTYPE
  5
3E
100
AcDbSymbolTableRecord
100
AcDbLinetypeTableRecord
  2
CENTER2
 70
0
  3
Center (.5x) ___ _ ___ _ ___ _ ___ _ ___ _ ___
 72
65
 73
4
 40
28.5749999999999993
 49
19.0500000000000007
 74
0
 49
-3.1749999999999998
 74
0
 49
3.1749999999999998
 74
0
 49
-3.1749999999999998
 74
0
  0
LTYPE
  5
3F
100
AcDbSymbolTableRecord
100
AcDbLinetypeTableRecord
  2
CENTERX2
 70
0
  3
Center (2x) ________  __  ________  __  _____
 72
65
 73
4
 40
101.5999999999999943
 49
63.5
 74
0
 49
-12.6999999999999993
 74
0
 49
12.6999999999999993
 74
0
 49
-12.6999999999999993
 74
0
  0
LTYPE
  5
40
100
AcDbSymbolTableRecord
100
AcDbLinetypeTableRecord
  2
BORDER
 70
0
  3
Border __ __ . __ __ . __ __ . __ __ . __ __ .
 72
65
 73
6
 40
44.4500000000000028
 49
12.6999999999999993
 74
0
 49
-6.3499999999999996
 74
0
 49
12.6999999999999993
 74
0
 49
-6.3499999999999996
 74
0
 49
0.0
 74
0
 49
-6.3499999999999996
 74
0
  0
LTYPE
  5
41
100
AcDbSymbolTableRecord
100
AcDbLinetypeTableRecord
  2
BORDER2
 70
0
  3
Border (.5x) __.__.__.__.__.__.__.__.__.__.__.
 72
65
 73
6
 40
22.2250000000000014
 49
6.3499999999999996
 74
0
 49
-3.1749999999999998
 74
0
 49
6.3499999999999996
 74
0
 49
-3.1749999999999998
 74
0
 49
0.0
 74
0
 49
-3.1749999999999998
 74
0
  0
LTYPE
  5
42
100
AcDbSymbolTableRecord
100
AcDbLinetypeTableRecord
  2
BORDERX2
 70
0
  3
Border (2x) ____  ____  .  ____  ____  .  ___
 72
65
 73
6
 40
88.9000000000000057
 49
25.3999999999999986
 74
0
 49
-12.6999999999999993
 74
0
 49
25.3999999999999986
 74
0
 49
-12.6999999999999993
 74
0
 49
0.0
 74
0
 49
-12.6999999999999993
 74
0
  0
ENDTAB
  0
TABLE
  2
LAYER
  5
2
100
AcDbSymbolTable
 70
24
  0
LAYER
  5
10
100
AcDbSymbolTableRecord
100
AcDbLayerTableRecord
  2
0
 70
0
 62
7
420
0
  6
CONTINUOUS
370
25
390
F
  0
LAYER
  5
43
100
AcDbSymbolTableRecord
100
AcDbLayerTableRecord
  2
Drawings - Kysan 1112016 - Side
 70
0
 62
3
420
65280
  6
CONTINUOUS
370
0
390
F
  0
LAYER
  5
44
100
AcDbSymbolTableRecord
100
AcDbLayerTableRecord
  2
Drawings - Single Plastruder
 70
0
 62
4
420
65535
  6
CONTINUOUS
370
0
390
F
  0
LAYER
  5
45
100
AcDbSymbolTableRecord
100
AcDbLayerTableRecord
  2
Drawings - Flange
 70
0
 62
3
420
65280
  6
CONTINUOUS
370
0
390
F
  0
LAYER
  5
46
100
AcDbSymbolTableRecord
100
AcDbLayerTableRecord
  2
Drawings - R4 Bearing
 70
0
 62
2
420
16776960
  6
CONTINUOUS
370
0
390
F
  0
LAYER
  5
47
100
AcDbSymbolTableRecord
100
AcDbLayerTableRecord
  2
Drawings - Coupling
 70
0
 62
7
420
0
  6
CONTINUOUS
370
0
390
F
  0
LAYER
  5
48
100
AcDbSymbolTableRecord
100
AcDbLayerTableRecord
  2
Drawings - Motor Pulley
 70
0
 62
7
420
0
  6
CONTINUOUS
370
0
390
F
  0
LAYER
  5
49
100
AcDbSymbolTableRecord
100
AcDbLayerTableRecord
  2
Drawings - Shaft Pulley
 70
0
 62
7
420
0
  6
CONTINUOUS
370
0
390
F
  0
LAYER
  5
4A
100
AcDbSymbolTableRecord
100
AcDbLayerTableRecord
  2
02 -Top
 70
0
 62
7
420
0
  6
CONTINUOUS
370
0
390
F
  0
LAYER
  5
4B
100
AcDbSymbolTableRecord
100
AcDbLayerTableRecord
  2
Drawings
 70
0
 62
5
420
255
  6
CONTINUOUS
370
0
390
F
  0
LAYER
  5
4C
100
AcDbSymbolTableRecord
100
AcDbLayerTableRecord
  2
Drawings - Pulley
 70
0
 62
4
420
65535
  6
CONTINUOUS
370
0
390
F
  0
LAYER
  5
4D
100
AcDbSymbolTableRecord
100
AcDbLayerTableRecord
  2
Drawings - Belt
 70
0
 62
1
420
16711680
  6
CONTINUOUS
370
0
390
F
  0
LAYER
  5
4E
100
AcDbSymbolTableRecord
100
AcDbLayerTableRecord
  2
Drawings - Wood
 70
0
 62
5
420
255
  6
CONTINUOUS
370
0
390
F
  0
LAYER
  5
4F
100
AcDbSymbolTableRecord
100
AcDbLayerTableRecord
  2
Drawings - End Mill
 70
0
 62
1
420
16711680
  6
CONTINUOUS
370
0
390
F
  0
LAYER
  5
50
100
AcDbSymbolTableRecord
100
AcDbLayerTableRecord
  2
01 - Front
 70
0
 62
7
420
0
  6
CONTINUOUS
370
0
390
F
  0
LAYER
  5
51
100
AcDbSymbolTableRecord
100
AcDbLayerTableRecord
  2
03 - Left
 70
0
 62
7
420
0
  6
CONTINUOUS
370
0
390
F
  0
LAYER
  5
52
100
AcDbSymbolTableRecord
100
AcDbLayerTableRecord
  2
04 - Right
 70
0
 62
7
420
0
  6
CONTINUOUS
370
0
390
F
  0
LAYER
  5
53
100
AcDbSymbolTableRecord
100
AcDbLayerTableRecord
  2
05 - Bottom
 70
0
 62
7
420
0
  6
CONTINUOUS
370
0
390
F
  0
LAYER
  5
54
100
AcDbSymbolTableRecord
100
AcDbLayerTableRecord
  2
06 - Back
 70
0
 62
7
420
0
  6
CONTINUOUS
370
0
390
F
  0
LAYER
  5
55
100
AcDbSymbolTableRecord
100
AcDbLayerTableRecord
  2
07 - Mount
 70
0
 62
7
420
0
  6
CONTINUOUS
370
0
390
F
  0
LAYER
  5
56
100
AcDbSymbolTableRecord
100
AcDbLayerTableRecord
  2
08 - Support
 70
0
 62
7
420
0
  6
CONTINUOUS
370
0
390
F
  0
LAYER
  5
57
100
AcDbSymbolTableRecord
100
AcDbLayerTableRecord
  2
Drawings - Drive Shaft
 70
0
 62
1
420
16711680
  6
CONTINUOUS
370
0
390
F
  0
LAYER
  5
58
100
AcDbSymbolTableRecord
100
AcDbLayerTableRecord
  2
Drawings - R4F Bearing
 70
0
 62
2
420
16776960
  6
CONTINUOUS
370
0
390
F
  0
LAYER
  5
59
100
AcDbSymbolTableRecord
100
AcDbLayerTableRecord
  2
Drawings - O-Ring
 70
0
 62
7
420
0
  6
CONTINUOUS
370
0
390
F
  0
ENDTAB
  0
TABLE
  2
STYLE
  5
3
100
AcDbSymbolTable
 70
1
  0
STYLE
  5
11
100
AcDbSymbolTableRecord
100
AcDbTextStyleTableRecord
  2
Standard
 70
0
 40
0.0
 41
0.75
 50
0.0
 71
0
 42
2.5
  3
txt
  4

  0
ENDTAB
  0
TABLE
  2
VIEW
  5
6
100
AcDbSymbolTable
 70
0
  0
ENDTAB
  0
TABLE
  2
UCS
  5
7
100
AcDbSymbolTable
 70
0
  0
ENDTAB
  0
TABLE
  2
APPID
  5
9
100
AcDbSymbolTable
 70
1
  0
APPID
  5
12
100
AcDbSymbolTableRecord
100
AcDbRegAppTableRecord
  2
ACAD
 70
0
  0
ENDTAB
  0
TABLE
  2
DIMSTYLE
  5
A
100
AcDbSymbolTable
 70
1
100
AcDbDimStyleTable
 71
0
  0
DIMSTYLE
105
27
100
AcDbSymbolTableRecord
100
AcDbDimStyleTableRecord
  2
Standard
 41
2.5
 42
0.625
 43
3.75
 44
1.25
 70
0
 73
0
 74
0
 77
1
 78
8
140
2.5
141
2.5
143
0.03937007874016
147
0.625
171
3
172
1
271
2
272
2
274
3
278
44
283
0
284
8
340
11
  0
ENDTAB
  0
TABLE
  2
BLOCK_RECORD
  5
1
100
AcDbSymbolTable
 70
1
  0
BLOCK_RECORD
  5
1F
100
AcDbSymbolTableRecord
100
AcDbBlockTableRecord
  2
*Model_Space
340
22
  0
BLOCK_RECORD
  5
1B
100
AcDbSymbolTableRecord
100
AcDbBlockTableRecord
  2
*Paper_Space
340
1E
  0
BLOCK_RECORD
  5
23
100
AcDbSymbolTableRecord
100
AcDbBlockTableRecord
  2
*Paper_Space0
340
26
  0
BLOCK_RECORD
  5
5A
100
AcDbSymbolTableRecord
100
AcDbBlockTableRecord
  2
tcutout-10
340
0
  0
BLOCK_RECORD
  5
5B
100
AcDbSymbolTableRecord
100
AcDbBlockTableRecord
  2
tgrips-10
340
0
  0
BLOCK_RECORD
  5
5C
100
AcDbSymbolTableRecord
100
AcDbBlockTableRecord
  2
tcutout-5
340
0
  0
BLOCK_RECORD
  5
5D
100
AcDbSymbolTableRecord
100
AcDbBlockTableRecord
  2
tgrips-5
340
0
  0
ENDTAB
  0
ENDSEC
  0
SECTION
  2
BLOCKS
  0
BLOCK
  5
20
100
AcDbEntity
  8
0
100
AcDbBlockBegin
  2
*Model_Space
 70
0
 10
0.0
 20
0.0
 30
0.0
  3
*Model_Space
  1

  0
ENDBLK
  5
21
100
AcDbEntity
  8
0
100
AcDbBlockEnd
  0
BLOCK
  5
1C
100
AcDbEntity
 67
1
  8
0
100
AcDbBlockBegin
  2
*Paper_Space
 70
0
 10
0.0
 20
0.0
 30
0.0
  3
*Paper_Space
  1

  0
ENDBLK
  5
1D
100
AcDbEntity
 67
1
  8
0
100
AcDbBlockEnd
  0
BLOCK
  5
24
100
AcDbEntity
  8
0
100
AcDbBlockBegin
  2
*Paper_Space0
 70
0
 10
0.0
 20
0.0
 30
0.0
  3
*Paper_Space0
  1

  0
ENDBLK
  5
25
100
AcDbEntity
  8
0
100
AcDbBlockEnd
  0
BLOCK
  5
5E
100
AcDbEntity
  8
0
100
AcDbBlockBegin
  2
tcutout-10
 70
0
 10
0.0
 20
0.0
 30
0.0
  3
tcutout-10
  1

  0
LINE
  5
5F
100
AcDbEntity
100
AcDbLine
  8
0
 62
256
370
-1
  6
ByLayer
 10
-15.0
 20
0.0000000000000049
 30
0.0
 11
-5.0
 21
0.0000000000000004
 31
0.0
  0
LINE
  5
60
100
AcDbEntity
100
AcDbLine
  8
0
 62
256
370
-1
  6
ByLayer
 10
5.0
 20
-0.0000000000000009
 30
0.0
 11
15.0
 21
-0.0000000000000107
 31
0.0
  0
LINE
  5
61
100
AcDbEntity
100
AcDbLine
  8
0
 62
256
370
-1
  6
ByLayer
 10
5.0000000000000018
 20
6.1499999999999995
 30
0.0
 11
15.0000000000000018
 21
6.1499999999999897
 31
0.0
  0
LINE
  5
62
100
AcDbEntity
100
AcDbLine
  8
0
 62
256
370
-1
  6
ByLayer
 10
-14.9999999999999982
 20
6.1500000000000057
 30
0.0
 11
-4.9999999999999982
 21
6.1500000000000004
 31
0.0
  0
LINE
  5
63
100
AcDbEntity
100
AcDbLine
  8
0
 62
256
370
-1
  6
ByLayer
 10
-15.0
 20
0.0000000000000049
 30
0.0
 11
-14.9999999999999964
 21
6.1500000000000057
 31
0.0
  0
LINE
  5
64
100
AcDbEntity
100
AcDbLine
  8
0
 62
256
370
-1
  6
ByLayer
 10
-4.9999999999999964
 20
6.1500000000000004
 30
0.0
 11
-5.0
 21
0.0000000000000031
 31
0.0
  0
LINE
  5
65
100
AcDbEntity
100
AcDbLine
  8
0
 62
256
370
-1
  6
ByLayer
 10
5.0
 20
-0.0000000000000009
 30
0.0
 11
5.0000000000000009
 21
6.149999999999995
 31
0.0
  0
LINE
  5
66
100
AcDbEntity
100
AcDbLine
  8
0
 62
256
370
-1
  6
ByLayer
 10
15.0
 20
6.1499999999999897
 30
0.0
 11
15.0
 21
-0.0000000000000107
 31
0.0
  0
CIRCLE
  5
67
100
AcDbEntity
100
AcDbCircle
  8
0
 62
256
370
-1
  6
ByLayer
 10
0.0000000000000027
 20
3.0750000000000015
 30
0.0
 40
1.5
  0
LINE
  5
68
100
AcDbEntity
100
AcDbLine
  8
Drawings
 62
256
370
-1
  6
ByLayer
 10
-4.9999999999999982
 20
3.0750000000000015
 30
0.0
 11
5.0
 21
3.074999999999998
 31
0.0
  0
ENDBLK
  5
69
100
AcDbEntity
  8
0
100
AcDbBlockEnd
  0
BLOCK
  5
6A
100
AcDbEntity
  8
0
100
AcDbBlockBegin
  2
tgrips-10
 70
0
 10
0.0
 20
0.0
 30
0.0
  3
tgrips-10
  1

  0
LINE
  5
6B
100
AcDbEntity
100
AcDbLine
  8
0
 62
256
370
-1
  6
ByLayer
 10
15.0
 20
4.5
 30
0.0
 11
15.0
 21
0.0
 31
0.0
  0
ARC
  5
6C
100
AcDbEntity
  8
0
 62
256
370
-1
  6
ByLayer
100
AcDbCircle
 10
14.5
 20
4.5
 30
0.0
 40
0.5
100
AcDbArc
 50
0.0
 51
90.0
  0
LINE
  5
6D
100
AcDbEntity
100
AcDbLine
  8
0
 62
256
370
-1
  6
ByLayer
 10
5.5
 20
5.0
 30
0.0
 11
14.5
 21
5.0
 31
0.0
  0
LINE
  5
6E
100
AcDbEntity
100
AcDbLine
  8
0
 62
256
370
-1
  6
ByLayer
 10
5.0
 20
0.0
 30
0.0
 11
5.0
 21
4.5
 31
0.0
  0
ARC
  5
6F
100
AcDbEntity
  8
0
 62
256
370
-1
  6
ByLayer
100
AcDbCircle
 10
5.5
 20
4.5
 30
0.0
 40
0.5
100
AcDbArc
 50
90.0
 51
180.0
  0
LINE
  5
70
100
AcDbEntity
100
AcDbLine
  8
0
 62
256
370
-1
  6
ByLayer
 10
-5.0
 20
4.5
 30
0.0
 11
-5.0
 21
0.0
 31
0.0
  0
ARC
  5
71
100
AcDbEntity
  8
0
 62
256
370
-1
  6
ByLayer
100
AcDbCircle
 10
-5.5
 20
4.5
 30
0.0
 40
0.5
100
AcDbArc
 50
0.0
 51
90.0
  0
LINE
  5
72
100
AcDbEntity
100
AcDbLine
  8
0
 62
256
370
-1
  6
ByLayer
 10
-14.5
 20
5.0
 30
0.0
 11
-5.5
 21
5.0
 31
0.0
  0
LINE
  5
73
100
AcDbEntity
100
AcDbLine
  8
0
 62
256
370
-1
  6
ByLayer
 10
-15.0
 20
0.0
 30
0.0
 11
-15.0
 21
4.5
 31
0.0
  0
ARC
  5
74
100
AcDbEntity
  8
0
 62
256
370
-1
  6
ByLayer
100
AcDbCircle
 10
-14.5
 20
4.5
 30
0.0
 40
0.5
100
AcDbArc
 50
90.0
 51
180.0
  0
LINE
  5
75
100
AcDbEntity
100
AcDbLine
  8
0
 62
256
370
-1
  6
ByLayer
 10
-5.0
 20
0.0
 30
0.0
 11
-1.9171571066876898
 21
0.0
 31
0.0
  0
ARC
  5
76
100
AcDbEntity
  8
0
 62
256
370
-1
  6
ByLayer
100
AcDbCircle
 10
-1.9171571066876898
 20
-0.5
 30
0.0
 40
0.5
100
AcDbArc
 50
0.0051428662733793
 51
90.0
  0
LINE
  5
77
100
AcDbEntity
100
AcDbLine
  8
0
 62
256
370
-1
  6
ByLayer
 10
1.9014327663442394
 20
0.0038631286911689
 30
0.0
 11
5.0
 21
0.0
 31
0.0
  0
ARC
  5
78
100
AcDbEntity
  8
0
 62
256
370
-1
  6
ByLayer
100
AcDbCircle
 10
1.9008093934435593
 20
-0.4961364827149062
 30
0.0
 40
0.5
100
AcDbArc
 50
89.9285667089507115
 51
180.0
  0
LINE
  5
79
100
AcDbEntity
100
AcDbLine
  8
0
 62
256
370
-1
  6
ByLayer
 10
1.4008093934434598
 20
-6.4991939591558028
 30
0.0
 11
1.4008093934435593
 21
-0.4961364827148991
 31
0.0
  0
ARC
  5
7A
100
AcDbEntity
  8
0
 62
256
370
-1
  6
ByLayer
100
AcDbCircle
 10
1.9008093934434598
 20
-6.4991939591558099
 30
0.0
 40
0.5
100
AcDbArc
 50
180.0
 51
269.9456307850857684
  0
LINE
  5
7B
100
AcDbEntity
100
AcDbLine
  8
0
 62
256
370
-1
  6
ByLayer
 10
2.2500553445470328
 20
-6.9995255914692649
 30
0.0
 11
1.9003349326086756
 21
-6.9991937340426755
 31
0.0
  0
ARC
  5
7C
100
AcDbEntity
  8
0
 62
256
370
-1
  6
ByLayer
100
AcDbCircle
 10
2.2495808837122491
 20
-7.4995253663561297
 30
0.0
 40
0.5
100
AcDbArc
 50
359.9519473579580904
 51
89.9456307850857968
  0
LINE
  5
7D
100
AcDbEntity
100
AcDbLine
  8
0
 62
256
370
-1
  6
ByLayer
 10
2.7495807078675583
 20
-7.4999447047159791
 30
0.0
 11
2.7479029557739287
 21
-9.5004193383598494
 31
0.0
  0
ARC
  5
7E
100
AcDbEntity
  8
0
 62
256
370
-1
  6
ByLayer
100
AcDbCircle
 10
2.2479031316186195
 20
-9.5
 30
0.0
 40
0.5
100
AcDbArc
 50
270.0
 51
359.9519473579580904
  0
LINE
  5
7F
100
AcDbEntity
100
AcDbLine
  8
0
 62
256
370
-1
  6
ByLayer
 10
2.0
 20
-10.0
 30
0.0
 11
2.2479031316186195
 21
-10.0
 31
0.0
  0
ARC
  5
80
100
AcDbEntity
  8
0
 62
256
370
-1
  6
ByLayer
100
AcDbCircle
 10
2.0
 20
-10.5
 30
0.0
 40
0.5
100
AcDbArc
 50
90.0
 51
180.0
  0
ARC
  5
81
100
AcDbEntity
  8
0
 62
256
370
-1
  6
ByLayer
100
AcDbCircle
 10
-2.0
 20
-10.5
 30
0.0
 40
0.5
100
AcDbArc
 50
0.0
 51
90.0
  0
LINE
  5
82
100
AcDbEntity
100
AcDbLine
  8
0
 62
256
370
-1
  6
ByLayer
 10
-2.2539091055792051
 20
-10.0
 30
0.0
 11
-2.0
 21
-10.0
 31
0.0
  0
ARC
  5
83
100
AcDbEntity
  8
0
 62
256
370
-1
  6
ByLayer
100
AcDbCircle
 10
-2.2539091055792051
 20
-9.5
 30
0.0
 40
0.5
100
AcDbArc
 50
179.9103959594471576
 51
270.0
  0
LINE
  5
84
100
AcDbEntity
100
AcDbLine
  8
0
 62
256
370
-1
  6
ByLayer
 10
-2.7507799713406231
 20
-7.4987389993744191
 30
0.0
 11
-2.7539084941448415
 21
-9.4992180575533496
 31
0.0
  0
ARC
  5
85
100
AcDbEntity
  8
0
 62
256
370
-1
  6
ByLayer
100
AcDbCircle
 10
-2.2507805827749867
 20
-7.4995209418210678
 30
0.0
 40
0.5
100
AcDbArc
 50
90.0550082898336228
 51
179.9103959594471576
  0
LINE
  5
86
100
AcDbEntity
100
AcDbLine
  8
0
 62
256
370
-1
  6
ByLayer
 10
-1.9160488210710851
 20
-6.9991993434308375
 30
0.0
 11
-2.2512606205879853
 21
-6.9995211722574222
 31
0.0
  0
LINE
  5
87
100
AcDbEntity
100
AcDbLine
  8
0
 62
256
370
-1
  6
ByLayer
 10
-1.4171571087019019
 20
-0.499955120025194
 30
0.0
 11
-1.416528860898296
 21
-6.499154693892387
 31
0.0
  0
ARC
  5
88
100
AcDbEntity
  8
0
 62
256
370
-1
  6
ByLayer
100
AcDbCircle
 10
-1.9165288588840839
 20
-6.4991995738671928
 30
0.0
 40
0.5
100
AcDbArc
 50
270.0550082898336086
 51
0.0051428662733793
  0
LINE
  5
89
100
AcDbEntity
100
AcDbLine
  8
0
 62
256
370
-1
  6
ByLayer
 10
1.5
 20
-10.5
 30
0.0
 11
1.5
 21
-10.5
 31
0.0
  0
ARC
  5
8A
100
AcDbEntity
  8
0
 62
256
370
-1
  6
ByLayer
100
AcDbCircle
 10
1.0
 20
-10.5
 30
0.0
 40
0.5
100
AcDbArc
 50
270.0
 51
0.0
  0
LINE
  5
8B
100
AcDbEntity
100
AcDbLine
  8
0
 62
256
370
-1
  6
ByLayer
 10
-1.0
 20
-11.0
 30
0.0
 11
1.0
 21
-11.0
 31
0.0
  0
LINE
  5
8C
100
AcDbEntity
100
AcDbLine
  8
0
 62
256
370
-1
  6
ByLayer
 10
-1.5
 20
-10.5
 30
0.0
 11
-1.5
 21
-10.5
 31
0.0
  0
ARC
  5
8D
100
AcDbEntity
  8
0
 62
256
370
-1
  6
ByLayer
100
AcDbCircle
 10
-1.0
 20
-10.5
 30
0.0
 40
0.5
100
AcDbArc
 50
180.0
 51
270.0
  0
ENDBLK
  5
8E
100
AcDbEntity
  8
0
100
AcDbBlockEnd
  0
BLOCK
  5
8F
100
AcDbEntity
  8
0
100
AcDbBlockBegin
  2
tcutout-5
 70
0
 10
0.0
 20
0.0
 30
0.0
  3
tcutout-5
  1

  0
LINE
  5
90
100
AcDbEntity
100
AcDbLine
  8
0
 62
256
370
-1
  6
ByLayer
 10
-10.0
 20
0.0000000000000011
 30
0.0
 11
-5.0
 21
-0.0000000000000009
 31
0.0
  0
LINE
  5
91
100
AcDbEntity
100
AcDbLine
  8
0
 62
256
370
-1
  6
ByLayer
 10
5.0
 20
0.0000000000000004
 30
0.0
 11
10.0
 21
0.0000000000000015
 31
0.0
  0
LINE
  5
92
100
AcDbEntity
100
AcDbLine
  8
0
 62
256
370
-1
  6
ByLayer
 10
-9.9999999999999982
 20
6.1500000000000012
 30
0.0
 11
-4.9999999999999982
 21
6.1499999999999995
 31
0.0
  0
LINE
  5
93
100
AcDbEntity
100
AcDbLine
  8
0
 62
256
370
-1
  6
ByLayer
 10
5.0
 20
6.1500000000000004
 30
0.0
 11
10.0
 21
6.1500000000000021
 31
0.0
  0
LINE
  5
94
100
AcDbEntity
100
AcDbLine
  8
0
 62
256
370
-1
  6
ByLayer
 10
-10.0
 20
0.0000000000000011
 30
0.0
 11
-9.9999999999999982
 21
6.1500000000000012
 31
0.0
  0
LINE
  5
95
100
AcDbEntity
100
AcDbLine
  8
0
 62
256
370
-1
  6
ByLayer
 10
-4.9999999999999982
 20
6.1499999999999995
 30
0.0
 11
-5.0
 21
-0.0000000000000004
 31
0.0
  0
LINE
  5
96
100
AcDbEntity
100
AcDbLine
  8
0
 62
256
370
-1
  6
ByLayer
 10
5.0
 20
0.0000000000000004
 30
0.0
 11
5.0
 21
6.1499999999999968
 31
0.0
  0
LINE
  5
97
100
AcDbEntity
100
AcDbLine
  8
0
 62
256
370
-1
  6
ByLayer
 10
10.0
 20
6.1499999999999941
 30
0.0
 11
10.0
 21
0.0000000000000015
 31
0.0
  0
CIRCLE
  5
98
100
AcDbEntity
100
AcDbCircle
  8
0
 62
256
370
-1
  6
ByLayer
 10
0.0000000000000004
 20
3.0749999999999984
 30
0.0
 40
1.5
  0
LINE
  5
99
100
AcDbEntity
100
AcDbLine
  8
Drawings
 62
256
370
-1
  6
ByLayer
 10
-4.9999999999999991
 20
3.0749999999999993
 30
0.0
 11
5.0
 21
3.0749999999999975
 31
0.0
  0
ENDBLK
  5
9A
100
AcDbEntity
  8
0
100
AcDbBlockEnd
  0
BLOCK
  5
9B
100
AcDbEntity
  8
0
100
AcDbBlockBegin
  2
tgrips-5
 70
0
 10
0.0
 20
0.0
 30
0.0
  3
tgrips-5
  1

  0
LINE
  5
9C
100
AcDbEntity
100
AcDbLine
  8
0
 62
256
370
-1
  6
ByLayer
 10
-10.0
 20
0.0
 30
0.0
 11
-10.0
 21
4.5
 31
0.0
  0
ARC
  5
9D
100
AcDbEntity
  8
0
 62
256
370
-1
  6
ByLayer
100
AcDbCircle
 10
-9.5
 20
4.5
 30
0.0
 40
0.5
100
AcDbArc
 50
90.0
 51
180.0
  0
LINE
  5
9E
100
AcDbEntity
100
AcDbLine
  8
0
 62
256
370
-1
  6
ByLayer
 10
-9.5
 20
5.0
 30
0.0
 11
-5.5
 21
5.0
 31
0.0
  0
LINE
  5
9F
100
AcDbEntity
100
AcDbLine
  8
0
 62
256
370
-1
  6
ByLayer
 10
-5.0
 20
4.5
 30
0.0
 11
-5.0
 21
0.0
 31
0.0
  0
ARC
  5
A0
100
AcDbEntity
  8
0
 62
256
370
-1
  6
ByLayer
100
AcDbCircle
 10
-5.5
 20
4.5
 30
0.0
 40
0.5
100
AcDbArc
 50
0.0
 51
90.0
  0
LINE
  5
A1
100
AcDbEntity
100
AcDbLine
  8
0
 62
256
370
-1
  6
ByLayer
 10
-5.0
 20
0.0
 30
0.0
 11
-1.9171571066876898
 21
0.0
 31
0.0
  0
ARC
  5
A2
100
AcDbEntity
  8
0
 62
256
370
-1
  6
ByLayer
100
AcDbCircle
 10
-1.9171571066876898
 20
-0.5
 30
0.0
 40
0.5
100
AcDbArc
 50
0.0051428662733793
 51
90.0
  0
LINE
  5
A3
100
AcDbEntity
100
AcDbLine
  8
0
 62
256
370
-1
  6
ByLayer
 10
1.9014327663442394
 20
0.0038631286911689
 30
0.0
 11
5.0
 21
0.0
 31
0.0
  0
ARC
  5
A4
100
AcDbEntity
  8
0
 62
256
370
-1
  6
ByLayer
100
AcDbCircle
 10
1.9008093934435593
 20
-0.4961364827149068
 30
0.0
 40
0.5
100
AcDbArc
 50
89.9285667089507115
 51
180.0
  0
LINE
  5
A5
100
AcDbEntity
100
AcDbLine
  8
0
 62
256
370
-1
  6
ByLayer
 10
5.0
 20
0.0
 30
0.0
 11
5.0
 21
4.5
 31
0.0
  0
ARC
  5
A6
100
AcDbEntity
  8
0
 62
256
370
-1
  6
ByLayer
100
AcDbCircle
 10
5.5
 20
4.5
 30
0.0
 40
0.5
100
AcDbArc
 50
90.0
 51
180.0
  0
LINE
  5
A7
100
AcDbEntity
100
AcDbLine
  8
0
 62
256
370
-1
  6
ByLayer
 10
5.5
 20
5.0
 30
0.0
 11
9.5
 21
5.0
 31
0.0
  0
LINE
  5
A8
100
AcDbEntity
100
AcDbLine
  8
0
 62
256
370
-1
  6
ByLayer
 10
10.0
 20
4.5
 30
0.0
 11
10.0
 21
0.0
 31
0.0
  0
ARC
  5
A9
100
AcDbEntity
  8
0
 62
256
370
-1
  6
ByLayer
100
AcDbCircle
 10
9.5
 20
4.5
 30
0.0
 40
0.5
100
AcDbArc
 50
0.0
 51
90.0
  0
LINE
  5
AA
100
AcDbEntity
100
AcDbLine
  8
0
 62
256
370
-1
  6
ByLayer
 10
1.4008093934434598
 20
-6.4991939591558028
 30
0.0
 11
1.4008093934435593
 21
-0.4961364827149
 31
0.0
  0
ARC
  5
AB
100
AcDbEntity
  8
0
 62
256
370
-1
  6
ByLayer
100
AcDbCircle
 10
1.9008093934434598
 20
-6.4991939591558099
 30
0.0
 40
0.5
100
AcDbArc
 50
180.0
 51
269.9456307850857684
  0
LINE
  5
AC
100
AcDbEntity
100
AcDbLine
  8
0
 62
256
370
-1
  6
ByLayer
 10
2.2500553445470328
 20
-6.9995255914692649
 30
0.0
 11
1.9003349326086756
 21
-6.9991937340426755
 31
0.0
  0
ARC
  5
AD
100
AcDbEntity
  8
0
 62
256
370
-1
  6
ByLayer
100
AcDbCircle
 10
2.2495808837122491
 20
-7.4995253663561297
 30
0.0
 40
0.5
100
AcDbArc
 50
359.9519473579580904
 51
89.9456307850857968
  0
LINE
  5
AE
100
AcDbEntity
100
AcDbLine
  8
0
 62
256
370
-1
  6
ByLayer
 10
2.7495807078675583
 20
-7.4999447047159791
 30
0.0
 11
2.7479029557739287
 21
-9.5004193383598494
 31
0.0
  0
ARC
  5
AF
100
AcDbEntity
  8
0
 62
256
370
-1
  6
ByLayer
100
AcDbCircle
 10
2.2479031316186195
 20
-9.5
 30
0.0
 40
0.5
100
AcDbArc
 50
270.0
 51
359.9519473579580904
  0
LINE
  5
B0
100
AcDbEntity
100
AcDbLine
  8
0
 62
256
370
-1
  6
ByLayer
 10
2.0
 20
-10.0
 30
0.0
 11
2.2479031316186195
 21
-10.0
 31
0.0
  0
ARC
  5
B1
100
AcDbEntity
  8
0
 62
256
370
-1
  6
ByLayer
100
AcDbCircle
 10
2.0
 20
-10.5
 30
0.0
 40
0.5
100
AcDbArc
 50
90.0
 51
180.0
  0
LINE
  5
B2
100
AcDbEntity
100
AcDbLine
  8
0
 62
256
370
-1
  6
ByLayer
 10
1.5
 20
-10.5
 30
0.0
 11
1.5
 21
-10.5
 31
0.0
  0
ARC
  5
B3
100
AcDbEntity
  8
0
 62
256
370
-1
  6
ByLayer
100
AcDbCircle
 10
1.0
 20
-10.5
 30
0.0
 40
0.5
100
AcDbArc
 50
270.0
 51
0.0
  0
LINE
  5
B4
100
AcDbEntity
100
AcDbLine
  8
0
 62
256
370
-1
  6
ByLayer
 10
-1.0
 20
-11.0
 30
0.0
 11
1.0
 21
-11.0
 31
0.0
  0
ARC
  5
B5
100
AcDbEntity
  8
0
 62
256
370
-1
  6
ByLayer
100
AcDbCircle
 10
-1.0
 20
-10.5
 30
0.0
 40
0.5
100
AcDbArc
 50
180.0
 51
270.0
  0
LINE
  5
B6
100
AcDbEntity
100
AcDbLine
  8
0
 62
256
370
-1
  6
ByLayer
 10
-1.5
 20
-10.5
 30
0.0
 11
-1.5
 21
-10.5
 31
0.0
  0
ARC
  5
B7
100
AcDbEntity
  8
0
 62
256
370
-1
  6
ByLayer
100
AcDbCircle
 10
-2.0
 20
-10.5
 30
0.0
 40
0.5
100
AcDbArc
 50
0.0
 51
90.0
  0
LINE
  5
B8
100
AcDbEntity
100
AcDbLine
  8
0
 62
256
370
-1
  6
ByLayer
 10
-2.2539091055792051
 20
-10.0
 30
0.0
 11
-2.0
 21
-10.0
 31
0.0
  0
ARC
  5
B9
100
AcDbEntity
  8
0
 62
256
370
-1
  6
ByLayer
100
AcDbCircle
 10
-2.2539091055792051
 20
-9.5
 30
0.0
 40
0.5
100
AcDbArc
 50
179.9103959594471576
 51
270.0
  0
LINE
  5
BA
100
AcDbEntity
100
AcDbLine
  8
0
 62
256
370
-1
  6
ByLayer
 10
-2.7507799713406231
 20
-7.4987389993744191
 30
0.0
 11
-2.7539084941448415
 21
-9.4992180575533496
 31
0.0
  0
ARC
  5
BB
100
AcDbEntity
  8
0
 62
256
370
-1
  6
ByLayer
100
AcDbCircle
 10
-2.2507805827749867
 20
-7.4995209418210678
 30
0.0
 40
0.5
100
AcDbArc
 50
90.0550082898336228
 51
179.9103959594471576
  0
LINE
  5
BC
100
AcDbEntity
100
AcDbLine
  8
0
 62
256
370
-1
  6
ByLayer
 10
-1.9160488210710851
 20
-6.9991993434308375
 30
0.0
 11
-2.2512606205879853
 21
-6.9995211722574222
 31
0.0
  0
LINE
  5
BD
100
AcDbEntity
100
AcDbLine
  8
0
 62
256
370
-1
  6
ByLayer
 10
-1.4171571087019019
 20
-0.499955120025194
 30
0.0
 11
-1.416528860898296
 21
-6.499154693892387
 31
0.0
  0
ARC
  5
BE
100
AcDbEntity
  8
0
 62
256
370
-1
  6
ByLayer
100
AcDbCircle
 10
-1.9165288588840839
 20
-6.4991995738671928
 30
0.0
 40
0.5
100
AcDbArc
 50
270.0550082898336086
 51
0.0051428662733793
  0
ENDBLK
  5
BF
100
AcDbEntity
  8
0
100
AcDbBlockEnd
  0
ENDSEC
  0
SECTION
  2
ENTITIES
  0
INSERT
  5
C0
100
AcDbEntity
100
AcDbBlockReference
  8
01 - Front
 62
256
370
-1
  6
ByLayer
  2
tgrips-5
 10
27.1249999999999964
 20
-35.0
 30
0.0
 50
180.0
 44
1.0
 45
1.0
  0
LINE
  5
C1
100
AcDbEntity
100
AcDbLine
  8
Drawings
 62
256
370
-1
  6
ByLayer
 10
104.625
 20
34.9999999999999716
 30
0.0
 11
104.6249999999999147
 21
-35.0000000000001137
 31
0.0
  0
INSERT
  5
C2
100
AcDbEntity
100
AcDbBlockReference
  8
03 - Left
 62
256
370
-1
  6
ByLayer
  2
tgrips-5
 10
104.6249999999999147
 20
-35.0000000000001137
 30
0.0
 41
1.0
 42
-1.0
 43
1.0
 50
360.0
 44
1.0
 45
1.0
  0
INSERT
  5
C3
100
AcDbEntity
100
AcDbBlockReference
  8
03 - Left
 62
256
370
-1
  6
ByLayer
  2
tgrips-5
 10
104.625
 20
34.9999999999999716
 30
0.0
 41
1.0
 42
-1.0
 43
1.0
 50
180.0
 44
1.0
 45
1.0
  0
CIRCLE
  5
C4
100
AcDbEntity
100
AcDbCircle
  8
02 -Top
 62
256
370
-1
  6
ByLayer
 10
27.125
 20
108.5
 30
0.0
 40
10.3505000000000003
  0
CIRCLE
  5
C5
100
AcDbEntity
100
AcDbCircle
  8
Drawings
 62
256
370
-1
  6
ByLayer
 10
27.125
 20
108.5
 30
0.0
 40
14.2850000000000001
  0
CIRCLE
  5
C6
100
AcDbEntity
100
AcDbCircle
  8
Drawings - Flange
 62
256
370
-1
  6
ByLayer
 10
27.125
 20
108.5
 30
0.0
 40
14.2850000000000001
  0
CIRCLE
  5
C7
100
AcDbEntity
100
AcDbCircle
  8
02 -Top
 62
256
370
-1
  6
ByLayer
 10
15.9633194589703464
 20
97.338319458970318
 30
0.0
 40
1.5
  0
CIRCLE
  5
C8
100
AcDbEntity
100
AcDbCircle
  8
02 -Top
 62
256
370
-1
  6
ByLayer
 10
38.2866805410296465
 20
97.338319458970318
 30
0.0
 40
1.5
  0
CIRCLE
  5
C9
100
AcDbEntity
100
AcDbCircle
  8
02 -Top
 62
256
370
-1
  6
ByLayer
 10
38.2866805410296536
 20
119.661680541029682
 30
0.0
 40
1.5
  0
CIRCLE
  5
CA
100
AcDbEntity
100
AcDbCircle
  8
02 -Top
 62
256
370
-1
  6
ByLayer
 10
15.96331945897035
 20
119.661680541029682
 30
0.0
 40
1.5
  0
LINE
  5
CB
100
AcDbEntity
100
AcDbLine
  8
Drawings
 62
256
370
-1
  6
ByLayer
 10
184.625
 20
34.9999999999999716
 30
0.0
 11
184.6249999999999147
 21
-35.0000000000001137
 31
0.0
  0
INSERT
  5
CC
100
AcDbEntity
100
AcDbBlockReference
  8
03 - Left
 62
256
370
-1
  6
ByLayer
  2
tgrips-5
 10
184.6249999999999147
 20
-35.0000000000001137
 30
0.0
 41
1.0
 42
-1.0
 43
1.0
 50
360.0
 44
1.0
 45
1.0
  0
INSERT
  5
CD
100
AcDbEntity
100
AcDbBlockReference
  8
03 - Left
 62
256
370
-1
  6
ByLayer
  2
tgrips-5
 10
184.625
 20
34.9999999999999716
 30
0.0
 41
1.0
 42
-1.0
 43
1.0
 50
180.0
 44
1.0
 45
1.0
  0
CIRCLE
  5
CE
100
AcDbEntity
100
AcDbCircle
  8
Drawings - Pulley
 62
256
370
-1
  6
ByLayer
 10
27.1250000000000142
 20
108.5
 30
0.0
 40
11.90625
  0
CIRCLE
  5
CF
100
AcDbEntity
100
AcDbCircle
  8
Drawings - Pulley
 62
256
370
-1
  6
ByLayer
 10
27.1250000000000142
 20
108.5
 30
0.0
 40
12.6999999999999993
  0
CIRCLE
  5
D0
100
AcDbEntity
100
AcDbCircle
  8
05 - Bottom
 62
256
370
-1
  6
ByLayer
 10
27.1250000000000071
 20
-178.5
 30
0.0
 40
6.0
  0
CIRCLE
  5
D1
100
AcDbEntity
100
AcDbCircle
  8
0
 62
256
370
-1
  6
ByLayer
 10
27.125
 20
-230.5026371307103545
 30
0.0
 40
2.5
  0
CIRCLE
  5
D2
100
AcDbEntity
100
AcDbCircle
  8
0
 62
256
370
-1
  6
ByLayer
 10
27.125
 20
-126.497362869289617
 30
0.0
 40
2.5
  0
CIRCLE
  5
D3
100
AcDbEntity
100
AcDbCircle
  8
0
 62
256
370
-1
  6
ByLayer
 10
-24.8776371307103865
 20
-178.5
 30
0.0
 40
2.5
  0
CIRCLE
  5
D4
100
AcDbEntity
100
AcDbCircle
  8
07 - Mount
 62
256
370
-1
  6
ByLayer
 10
27.1249999999999964
 20
-178.5
 30
0.0
 40
6.0
  0
CIRCLE
  5
D5
100
AcDbEntity
100
AcDbCircle
  8
05 - Bottom
 62
256
370
-1
  6
ByLayer
 10
-24.8776371307103865
 20
-178.5
 30
0.0
 40
2.5
  0
CIRCLE
  5
D6
100
AcDbEntity
100
AcDbCircle
  8
05 - Bottom
 62
256
370
-1
  6
ByLayer
 10
27.125
 20
-126.497362869289617
 30
0.0
 40
2.5
  0
CIRCLE
  5
D7
100
AcDbEntity
100
AcDbCircle
  8
05 - Bottom
 62
256
370
-1
  6
ByLayer
 10
27.125
 20
-230.5026371307103545
 30
0.0
 40
2.5
  0
LINE
  5
D8
100
AcDbEntity
100
AcDbLine
  8
Drawings
 62
256
370
-1
  6
ByLayer
 10
-47.9999999999999858
 20
53.8125
 30
0.0
 11
52.1250000000000142
 21
53.8125
 31
0.0
  0
CIRCLE
  5
D9
100
AcDbEntity
100
AcDbCircle
  8
Drawings - Kysan 1112016 - Side
 62
256
370
-1
  6
ByLayer
 10
-20.9375
 20
108.5
 30
0.0
 40
19.0
  0
CIRCLE
  5
DA
100
AcDbEntity
100
AcDbCircle
  8
Drawings - Kysan 1112016 - Side
 62
256
370
-1
  6
ByLayer
 10
-20.9375
 20
108.5
 30
0.0
 40
1.5625
  0
CIRCLE
  5
DB
100
AcDbEntity
100
AcDbCircle
  8
02 -Top
 62
256
370
-1
  6
ByLayer
 10
-8.4375
 20
108.5
 30
0.0
 40
1.5
  0
CIRCLE
  5
DC
100
AcDbEntity
100
AcDbCircle
  8
02 -Top
 62
256
370
-1
  6
ByLayer
 10
-20.9375
 20
108.5
 30
0.0
 40
6.5
  0
CIRCLE
  5
DD
100
AcDbEntity
100
AcDbCircle
  8
Drawings - Pulley
 62
256
370
-1
  6
ByLayer
 10
-20.9374999999999858
 20
108.5
 30
0.0
 40
11.90625
  0
CIRCLE
  5
DE
100
AcDbEntity
100
AcDbCircle
  8
Drawings - Pulley
 62
256
370
-1
  6
ByLayer
 10
-20.9374999999999858
 20
108.5
 30
0.0
 40
12.6999999999999993
  0
CIRCLE
  5
DF
100
AcDbEntity
100
AcDbCircle
  8
Drawings - Kysan 1112016 - Side
 62
256
370
-1
  6
ByLayer
 10
-20.9374999999999929
 20
108.5
 30
0.0
 40
6.5
  0
LINE
  5
E0
100
AcDbEntity
100
AcDbLine
  8
Drawings - Belt
 62
256
370
-1
  6
ByLayer
 10
-20.9374999999999858
 20
120.40625
 30
0.0
 11
27.125
 21
120.40625
 31
0.0
  0
LINE
  5
E1
100
AcDbEntity
100
AcDbLine
  8
Drawings - Belt
 62
256
370
-1
  6
ByLayer
 10
27.125
 20
96.59375
 30
0.0
 11
-20.9374999999999893
 21
96.59375
 31
0.0
  0
CIRCLE
  5
E2
100
AcDbEntity
100
AcDbCircle
  8
Drawings - Kysan 1112016 - Side
 62
256
370
-1
  6
ByLayer
 10
-8.4375
 20
108.5
 30
0.0
 40
1.5
  0
LINE
  5
E3
100
AcDbEntity
100
AcDbLine
  8
Drawings - Motor Pulley
 62
256
370
-1
  6
ByLayer
 10
-33.6374999999999744
 20
55.375
 30
0.0
 11
-8.2374999999999972
 21
55.375
 31
0.0
  0
LINE
  5
E4
100
AcDbEntity
100
AcDbLine
  8
Drawings - Motor Pulley
 62
256
370
-1
  6
ByLayer
 10
-33.6374999999999744
 20
52.25
 30
0.0
 11
-8.2374999999999972
 21
52.25
 31
0.0
  0
LINE
  5
E5
100
AcDbEntity
100
AcDbLine
  8
Drawings - Motor Pulley
 62
256
370
-1
  6
ByLayer
 10
-20.9374999999999858
 20
55.375
 30
0.0
 11
-20.9374999999999858
 21
39.5
 31
0.0
  0
LINE
  5
E6
100
AcDbEntity
100
AcDbLine
  8
Drawings - Motor Pulley
 62
256
370
-1
  6
ByLayer
 10
-22.5249999999999631
 20
55.375
 30
0.0
 11
-22.5249999999999631
 21
39.5
 31
0.0
  0
LINE
  5
E7
100
AcDbEntity
100
AcDbLine
  8
Drawings - Motor Pulley
 62
256
370
-1
  6
ByLayer
 10
-19.3500000000000085
 20
55.375
 30
0.0
 11
-19.3500000000000085
 21
39.5
 31
0.0
  0
LINE
  5
E8
100
AcDbEntity
100
AcDbLine
  8
Drawings - Motor Pulley
 62
256
370
-1
  6
ByLayer
 10
-28.8749999999999858
 20
52.25
 30
0.0
 11
-28.8749999999999858
 21
39.5
 31
0.0
  0
LINE
  5
E9
100
AcDbEntity
100
AcDbLine
  8
Drawings - Motor Pulley
 62
256
370
-1
  6
ByLayer
 10
-12.9999999999999858
 20
52.25
 30
0.0
 11
-12.9999999999999858
 21
39.5
 31
0.0
  0
LINE
  5
EA
100
AcDbEntity
100
AcDbLine
  8
Drawings - Motor Pulley
 62
256
370
-1
  6
ByLayer
 10
-28.8749999999999858
 20
39.5
 30
0.0
 11
-12.9999999999999858
 21
39.5
 31
0.0
  0
ARC
  5
EB
100
AcDbEntity
  8
Drawings - Motor Pulley
 62
256
370
-1
  6
ByLayer
100
AcDbCircle
 10
-33.6374999999999744
 20
53.8125
 30
0.0
 40
0.79375
100
AcDbArc
 50
270.0
 51
90.0
  0
LINE
  5
EC
100
AcDbEntity
100
AcDbLine
  8
Drawings - Motor Pulley
 62
256
370
-1
  6
ByLayer
 10
-33.6374999999999744
 20
55.375
 30
0.0
 11
-33.6374999999999744
 21
54.6062499999999886
 31
0.0
  0
LINE
  5
ED
100
AcDbEntity
100
AcDbLine
  8
Drawings - Motor Pulley
 62
256
370
-1
  6
ByLayer
 10
-33.6374999999999744
 20
53.0187500000000114
 30
0.0
 11
-33.6374999999999744
 21
52.25
 31
0.0
  0
ARC
  5
EE
100
AcDbEntity
  8
Drawings - Motor Pulley
 62
256
370
-1
  6
ByLayer
100
AcDbCircle
 10
-8.2374999999999972
 20
53.8125
 30
0.0
 40
0.79375
100
AcDbArc
 50
90.0
 51
270.0
  0
LINE
  5
EF
100
AcDbEntity
100
AcDbLine
  8
Drawings - Motor Pulley
 62
256
370
-1
  6
ByLayer
 10
-8.2374999999999972
 20
55.375
 30
0.0
 11
-8.2374999999999972
 21
54.6062499999999886
 31
0.0
  0
LINE
  5
F0
100
AcDbEntity
100
AcDbLine
  8
Drawings - Motor Pulley
 62
256
370
-1
  6
ByLayer
 10
-8.2374999999999972
 20
53.0187500000000114
 30
0.0
 11
-8.2374999999999972
 21
52.25
 31
0.0
  0
LINE
  5
F1
100
AcDbEntity
100
AcDbLine
  8
Drawings - Motor Pulley
 62
256
370
-1
  6
ByLayer
 10
-28.8749999999999858
 20
45.8499999999999943
 30
0.0
 11
-12.9999999999999858
 21
45.8499999999999943
 31
0.0
  0
LINE
  5
F2
100
AcDbEntity
100
AcDbLine
  8
Drawings - Kysan 1112016 - Side
 62
256
370
-1
  6
ByLayer
 10
-39.9374999999999858
 20
-22.0
 30
0.0
 11
-39.9374999999999858
 21
35.0
 31
0.0
  0
LINE
  5
F3
100
AcDbEntity
100
AcDbLine
  8
Drawings - Kysan 1112016 - Side
 62
256
370
-1
  6
ByLayer
 10
-1.9374999999999858
 20
-22.0
 30
0.0
 11
-1.9374999999999858
 21
35.0
 31
0.0
  0
LINE
  5
F4
100
AcDbEntity
100
AcDbLine
  8
Drawings - Kysan 1112016 - Side
 62
256
370
-1
  6
ByLayer
 10
-39.9374999999999858
 20
35.0
 30
0.0
 11
-1.9374999999999858
 21
35.0
 31
0.0
  0
LINE
  5
F5
100
AcDbEntity
100
AcDbLine
  8
Drawings - Kysan 1112016 - Side
 62
256
370
-1
  6
ByLayer
 10
-39.9374999999999858
 20
-22.0
 30
0.0
 11
-1.9374999999999858
 21
-22.0
 31
0.0
  0
LINE
  5
F6
100
AcDbEntity
100
AcDbLine
  8
Drawings - Kysan 1112016 - Side
 62
256
370
-1
  6
ByLayer
 10
-22.8374999999999844
 20
-22.0
 30
0.0
 11
-22.8374999999999915
 21
-28.0
 31
0.0
  0
LINE
  5
F7
100
AcDbEntity
100
AcDbLine
  8
Drawings - Kysan 1112016 - Side
 62
256
370
-1
  6
ByLayer
 10
-19.0374999999999872
 20
-22.0
 30
0.0
 11
-19.0374999999999872
 21
-28.0
 31
0.0
  0
LINE
  5
F8
100
AcDbEntity
100
AcDbLine
  8
Drawings - Kysan 1112016 - Side
 62
256
370
-1
  6
ByLayer
 10
-22.8374999999999915
 20
-28.0
 30
0.0
 11
-19.0374999999999872
 21
-28.0
 31
0.0
  0
LINE
  5
F9
100
AcDbEntity
100
AcDbLine
  8
Drawings - Kysan 1112016 - Side
 62
256
370
-1
  6
ByLayer
 10
-14.4374999999999858
 20
39.5
 30
0.0
 11
-14.4374999999999858
 21
35.0
 31
0.0
  0
LINE
  5
FA
100
AcDbEntity
100
AcDbLine
  8
Drawings - Kysan 1112016 - Side
 62
256
370
-1
  6
ByLayer
 10
-27.4374999999999858
 20
39.5
 30
0.0
 11
-27.4374999999999858
 21
35.0
 31
0.0
  0
LINE
  5
FB
100
AcDbEntity
100
AcDbLine
  8
Drawings - Kysan 1112016 - Side
 62
256
370
-1
  6
ByLayer
 10
-27.4374999999999858
 20
39.5
 30
0.0
 11
-14.4374999999999858
 21
39.5
 31
0.0
  0
LINE
  5
FC
100
AcDbEntity
100
AcDbLine
  8
Drawings - Kysan 1112016 - Side
 62
256
370
-1
  6
ByLayer
 10
-20.9374999999999858
 20
49.0
 30
0.0
 11
-20.9374999999999858
 21
-28.0
 31
0.0
  0
LINE
  5
FD
100
AcDbEntity
100
AcDbLine
  8
Drawings - Kysan 1112016 - Side
 62
256
370
-1
  6
ByLayer
 10
-22.5249999999999844
 20
49.0
 30
0.0
 11
-19.3499999999999872
 21
49.0
 31
0.0
  0
LINE
  5
FE
100
AcDbEntity
100
AcDbLine
  8
Drawings - Kysan 1112016 - Side
 62
256
370
-1
  6
ByLayer
 10
-22.5249999999999844
 20
49.0
 30
0.0
 11
-22.5249999999999844
 21
39.5
 31
0.0
  0
LINE
  5
FF
100
AcDbEntity
100
AcDbLine
  8
Drawings - Kysan 1112016 - Side
 62
256
370
-1
  6
ByLayer
 10
-19.3499999999999872
 20
49.0
 30
0.0
 11
-19.3499999999999872
 21
39.5
 31
0.0
  0
LINE
  5
100
100
AcDbEntity
100
AcDbLine
  8
Drawings
 62
256
370
-1
  6
ByLayer
 10
140.0
 20
131.0
 30
0.0
 11
140.0
 21
89.0
 31
0.0
  0
LINE
  5
101
100
AcDbEntity
100
AcDbLine
  8
Drawings
 62
256
370
-1
  6
ByLayer
 10
161.0
 20
110.0
 30
0.0
 11
119.0
 21
110.0
 31
0.0
  0
CIRCLE
  5
102
100
AcDbEntity
100
AcDbCircle
  8
02 -Top
 62
256
370
-1
  6
ByLayer
 10
140.0
 20
110.0
 30
0.0
 40
10.3505000000000003
  0
LINE
  5
103
100
AcDbEntity
100
AcDbLine
  8
08 - Support
 62
256
370
-1
  6
ByLayer
 10
130.0
 20
131.0
 30
0.0
 11
130.0
 21
135.5
 31
0.0
  0
ARC
  5
104
100
AcDbEntity
  8
08 - Support
 62
256
370
-1
  6
ByLayer
100
AcDbCircle
 10
130.5
 20
135.5
 30
0.0
 40
0.5
100
AcDbArc
 50
90.0
 51
180.0
  0
LINE
  5
105
100
AcDbEntity
100
AcDbLine
  8
08 - Support
 62
256
370
-1
  6
ByLayer
 10
130.5
 20
136.0
 30
0.0
 11
134.5
 21
136.0
 31
0.0
  0
LINE
  5
106
100
AcDbEntity
100
AcDbLine
  8
08 - Support
 62
256
370
-1
  6
ByLayer
 10
135.0
 20
135.5
 30
0.0
 11
135.0
 21
131.0
 31
0.0
  0
ARC
  5
107
100
AcDbEntity
  8
08 - Support
 62
256
370
-1
  6
ByLayer
100
AcDbCircle
 10
134.5
 20
135.5
 30
0.0
 40
0.5
100
AcDbArc
 50
0.0
 51
90.0
  0
LINE
  5
108
100
AcDbEntity
100
AcDbLine
  8
08 - Support
 62
256
370
-1
  6
ByLayer
 10
145.0
 20
131.0
 30
0.0
 11
145.0
 21
135.5
 31
0.0
  0
ARC
  5
109
100
AcDbEntity
  8
08 - Support
 62
256
370
-1
  6
ByLayer
100
AcDbCircle
 10
145.5
 20
135.5
 30
0.0
 40
0.5
100
AcDbArc
 50
90.0
 51
180.0
  0
LINE
  5
10A
100
AcDbEntity
100
AcDbLine
  8
08 - Support
 62
256
370
-1
  6
ByLayer
 10
145.5
 20
136.0
 30
0.0
 11
149.5
 21
136.0
 31
0.0
  0
LINE
  5
10B
100
AcDbEntity
100
AcDbLine
  8
08 - Support
 62
256
370
-1
  6
ByLayer
 10
150.0
 20
135.5
 30
0.0
 11
150.0
 21
131.0
 31
0.0
  0
ARC
  5
10C
100
AcDbEntity
  8
08 - Support
 62
256
370
-1
  6
ByLayer
100
AcDbCircle
 10
149.5
 20
135.5
 30
0.0
 40
0.5
100
AcDbArc
 50
0.0
 51
90.0
  0
LINE
  5
10D
100
AcDbEntity
100
AcDbLine
  8
08 - Support
 62
256
370
-1
  6
ByLayer
 10
119.0
 20
100.0
 30
0.0
 11
114.5
 21
100.0
 31
0.0
  0
ARC
  5
10E
100
AcDbEntity
  8
08 - Support
 62
256
370
-1
  6
ByLayer
100
AcDbCircle
 10
114.5
 20
100.5
 30
0.0
 40
0.5
100
AcDbArc
 50
180.0
 51
270.0
  0
LINE
  5
10F
100
AcDbEntity
100
AcDbLine
  8
08 - Support
 62
256
370
-1
  6
ByLayer
 10
114.0
 20
100.5
 30
0.0
 11
114.0
 21
104.5
 31
0.0
  0
LINE
  5
110
100
AcDbEntity
100
AcDbLine
  8
08 - Support
 62
256
370
-1
  6
ByLayer
 10
114.5
 20
105.0
 30
0.0
 11
119.0
 21
105.0
 31
0.0
  0
ARC
  5
111
100
AcDbEntity
  8
08 - Support
 62
256
370
-1
  6
ByLayer
100
AcDbCircle
 10
114.5
 20
104.5
 30
0.0
 40
0.5
100
AcDbArc
 50
90.0
 51
180.0
  0
LINE
  5
112
100
AcDbEntity
100
AcDbLine
  8
08 - Support
 62
256
370
-1
  6
ByLayer
 10
119.0
 20
115.0
 30
0.0
 11
114.5
 21
115.0
 31
0.0
  0
ARC
  5
113
100
AcDbEntity
  8
08 - Support
 62
256
370
-1
  6
ByLayer
100
AcDbCircle
 10
114.5
 20
115.5
 30
0.0
 40
0.5
100
AcDbArc
 50
180.0
 51
270.0
  0
LINE
  5
114
100
AcDbEntity
100
AcDbLine
  8
08 - Support
 62
256
370
-1
  6
ByLayer
 10
114.0
 20
115.5
 30
0.0
 11
114.0
 21
119.5
 31
0.0
  0
LINE
  5
115
100
AcDbEntity
100
AcDbLine
  8
08 - Support
 62
256
370
-1
  6
ByLayer
 10
114.5
 20
120.0
 30
0.0
 11
119.0
 21
120.0
 31
0.0
  0
ARC
  5
116
100
AcDbEntity
  8
08 - Support
 62
256
370
-1
  6
ByLayer
100
AcDbCircle
 10
114.5
 20
119.5
 30
0.0
 40
0.5
100
AcDbArc
 50
90.0
 51
180.0
  0
LINE
  5
117
100
AcDbEntity
100
AcDbLine
  8
08 - Support
 62
256
370
-1
  6
ByLayer
 10
150.0
 20
89.0
 30
0.0
 11
150.0
 21
84.5
 31
0.0
  0
ARC
  5
118
100
AcDbEntity
  8
08 - Support
 62
256
370
-1
  6
ByLayer
100
AcDbCircle
 10
149.5
 20
84.5
 30
0.0
 40
0.5
100
AcDbArc
 50
270.0
 51
360.0
  0
LINE
  5
119
100
AcDbEntity
100
AcDbLine
  8
08 - Support
 62
256
370
-1
  6
ByLayer
 10
149.5
 20
84.0
 30
0.0
 11
145.5
 21
84.0
 31
0.0
  0
LINE
  5
11A
100
AcDbEntity
100
AcDbLine
  8
08 - Support
 62
256
370
-1
  6
ByLayer
 10
145.0
 20
84.5
 30
0.0
 11
145.0
 21
89.0
 31
0.0
  0
ARC
  5
11B
100
AcDbEntity
  8
08 - Support
 62
256
370
-1
  6
ByLayer
100
AcDbCircle
 10
145.5
 20
84.5
 30
0.0
 40
0.5
100
AcDbArc
 50
180.0
 51
270.0
  0
LINE
  5
11C
100
AcDbEntity
100
AcDbLine
  8
08 - Support
 62
256
370
-1
  6
ByLayer
 10
135.0
 20
89.0
 30
0.0
 11
135.0
 21
84.5
 31
0.0
  0
ARC
  5
11D
100
AcDbEntity
  8
08 - Support
 62
256
370
-1
  6
ByLayer
100
AcDbCircle
 10
134.5
 20
84.5
 30
0.0
 40
0.5
100
AcDbArc
 50
270.0
 51
360.0
  0
LINE
  5
11E
100
AcDbEntity
100
AcDbLine
  8
08 - Support
 62
256
370
-1
  6
ByLayer
 10
134.5
 20
84.0
 30
0.0
 11
130.5
 21
84.0
 31
0.0
  0
LINE
  5
11F
100
AcDbEntity
100
AcDbLine
  8
08 - Support
 62
256
370
-1
  6
ByLayer
 10
130.0
 20
84.5
 30
0.0
 11
130.0
 21
89.0
 31
0.0
  0
ARC
  5
120
100
AcDbEntity
  8
08 - Support
 62
256
370
-1
  6
ByLayer
100
AcDbCircle
 10
130.5
 20
84.5
 30
0.0
 40
0.5
100
AcDbArc
 50
180.0
 51
270.0
  0
LINE
  5
121
100
AcDbEntity
100
AcDbLine
  8
08 - Support
 62
256
370
-1
  6
ByLayer
 10
161.0
 20
120.0
 30
0.0
 11
165.5
 21
120.0
 31
0.0
  0
ARC
  5
122
100
AcDbEntity
  8
08 - Support
 62
256
370
-1
  6
ByLayer
100
AcDbCircle
 10
165.5
 20
119.5
 30
0.0
 40
0.5
100
AcDbArc
 50
360.0
 51
90.0
  0
LINE
  5
123
100
AcDbEntity
100
AcDbLine
  8
08 - Support
 62
256
370
-1
  6
ByLayer
 10
166.0
 20
119.5
 30
0.0
 11
166.0
 21
115.5
 31
0.0
  0
LINE
  5
124
100
AcDbEntity
100
AcDbLine
  8
08 - Support
 62
256
370
-1
  6
ByLayer
 10
165.5
 20
115.0
 30
0.0
 11
161.0
 21
115.0
 31
0.0
  0
ARC
  5
125
100
AcDbEntity
  8
08 - Support
 62
256
370
-1
  6
ByLayer
100
AcDbCircle
 10
165.5
 20
115.5
 30
0.0
 40
0.5
100
AcDbArc
 50
270.0
 51
360.0
  0
LINE
  5
126
100
AcDbEntity
100
AcDbLine
  8
08 - Support
 62
256
370
-1
  6
ByLayer
 10
161.0
 20
105.0
 30
0.0
 11
165.5
 21
105.0
 31
0.0
  0
ARC
  5
127
100
AcDbEntity
  8
08 - Support
 62
256
370
-1
  6
ByLayer
100
AcDbCircle
 10
165.5
 20
104.5
 30
0.0
 40
0.5
100
AcDbArc
 50
360.0
 51
90.0
  0
LINE
  5
128
100
AcDbEntity
100
AcDbLine
  8
08 - Support
 62
256
370
-1
  6
ByLayer
 10
166.0
 20
104.5
 30
0.0
 11
166.0
 21
100.5
 31
0.0
  0
LINE
  5
129
100
AcDbEntity
100
AcDbLine
  8
08 - Support
 62
256
370
-1
  6
ByLayer
 10
165.5
 20
100.0
 30
0.0
 11
161.0
 21
100.0
 31
0.0
  0
ARC
  5
12A
100
AcDbEntity
  8
08 - Support
 62
256
370
-1
  6
ByLayer
100
AcDbCircle
 10
165.5
 20
100.5
 30
0.0
 40
0.5
100
AcDbArc
 50
270.0
 51
360.0
  0
LINE
  5
12B
100
AcDbEntity
100
AcDbLine
  8
08 - Support
 62
256
370
-1
  6
ByLayer
 10
119.0
 20
89.0
 30
0.0
 11
130.0
 21
89.0
 31
0.0
  0
LINE
  5
12C
100
AcDbEntity
100
AcDbLine
  8
08 - Support
 62
256
370
-1
  6
ByLayer
 10
135.0
 20
89.0
 30
0.0
 11
145.0
 21
89.0
 31
0.0
  0
LINE
  5
12D
100
AcDbEntity
100
AcDbLine
  8
08 - Support
 62
256
370
-1
  6
ByLayer
 10
150.0
 20
89.0
 30
0.0
 11
161.0
 21
89.0
 31
0.0
  0
LINE
  5
12E
100
AcDbEntity
100
AcDbLine
  8
08 - Support
 62
256
370
-1
  6
ByLayer
 10
119.0
 20
131.0
 30
0.0
 11
119.0
 21
120.0
 31
0.0
  0
LINE
  5
12F
100
AcDbEntity
100
AcDbLine
  8
08 - Support
 62
256
370
-1
  6
ByLayer
 10
119.0
 20
115.0
 30
0.0
 11
119.0
 21
105.0
 31
0.0
  0
LINE
  5
130
100
AcDbEntity
100
AcDbLine
  8
08 - Support
 62
256
370
-1
  6
ByLayer
 10
119.0
 20
100.0
 30
0.0
 11
119.0
 21
89.0
 31
0.0
  0
LINE
  5
131
100
AcDbEntity
100
AcDbLine
  8
08 - Support
 62
256
370
-1
  6
ByLayer
 10
161.0
 20
131.0
 30
0.0
 11
161.0
 21
120.0
 31
0.0
  0
LINE
  5
132
100
AcDbEntity
100
AcDbLine
  8
08 - Support
 62
256
370
-1
  6
ByLayer
 10
161.0
 20
115.0
 30
0.0
 11
161.0
 21
105.0
 31
0.0
  0
LINE
  5
133
100
AcDbEntity
100
AcDbLine
  8
08 - Support
 62
256
370
-1
  6
ByLayer
 10
161.0
 20
100.0
 30
0.0
 11
161.0
 21
89.0
 31
0.0
  0
LINE
  5
134
100
AcDbEntity
100
AcDbLine
  8
08 - Support
 62
256
370
-1
  6
ByLayer
 10
119.0
 20
131.0
 30
0.0
 11
130.0
 21
131.0
 31
0.0
  0
LINE
  5
135
100
AcDbEntity
100
AcDbLine
  8
08 - Support
 62
256
370
-1
  6
ByLayer
 10
135.0
 20
131.0
 30
0.0
 11
145.0
 21
131.0
 31
0.0
  0
LINE
  5
136
100
AcDbEntity
100
AcDbLine
  8
08 - Support
 62
256
370
-1
  6
ByLayer
 10
150.0
 20
131.0
 30
0.0
 11
161.0
 21
131.0
 31
0.0
  0
CIRCLE
  5
137
100
AcDbEntity
100
AcDbCircle
  8
02 -Top
 62
256
370
-1
  6
ByLayer
 10
128.8383194589703464
 20
98.838319458970318
 30
0.0
 40
1.5
  0
CIRCLE
  5
138
100
AcDbEntity
100
AcDbCircle
  8
02 -Top
 62
256
370
-1
  6
ByLayer
 10
151.1616805410296536
 20
98.838319458970318
 30
0.0
 40
1.5
  0
CIRCLE
  5
139
100
AcDbEntity
100
AcDbCircle
  8
02 -Top
 62
256
370
-1
  6
ByLayer
 10
151.1616805410296536
 20
121.161680541029682
 30
0.0
 40
1.5
  0
CIRCLE
  5
13A
100
AcDbEntity
100
AcDbCircle
  8
02 -Top
 62
256
370
-1
  6
ByLayer
 10
128.8383194589703464
 20
121.161680541029682
 30
0.0
 40
1.5
  0
INSERT
  5
13B
100
AcDbEntity
100
AcDbBlockReference
  8
02 -Top
 62
256
370
-1
  6
ByLayer
  2
tcutout-5
 10
27.125
 20
87.5
 30
0.0
 50
180.0
 44
1.0
 45
1.0
  0
INSERT
  5
13C
100
AcDbEntity
100
AcDbBlockReference
  8
02 -Top
 62
256
370
-1
  6
ByLayer
  2
tcutout-5
 10
27.125
 20
129.5
 30
0.0
 44
1.0
 45
1.0
  0
LINE
  5
13D
100
AcDbEntity
100
AcDbLine
  8
Drawings
 62
256
370
-1
  6
ByLayer
 10
27.1249999999999929
 20
-232.5
 30
0.0
 11
27.1250000000000071
 21
133.4999999999999432
 31
0.0
  0
LINE
  5
13E
100
AcDbEntity
100
AcDbLine
  8
Drawings
 62
256
370
-1
  6
ByLayer
 10
-48.0
 20
-35.0
 30
0.0
 11
-48.0
 21
135.0
 31
0.0
  0
LINE
  5
13F
100
AcDbEntity
100
AcDbLine
  8
Drawings
 62
256
370
-1
  6
ByLayer
 10
-42.5
 20
-35.0
 30
0.0
 11
-42.5
 21
135.0
 31
0.0
  0
LINE
  5
140
100
AcDbEntity
100
AcDbLine
  8
Drawings
 62
256
370
-1
  6
ByLayer
 10
6.1249999999999929
 20
-232.5
 30
0.0
 11
6.1250000000000071
 21
133.4999999999999432
 31
0.0
  0
INSERT
  5
141
100
AcDbEntity
100
AcDbBlockReference
  8
02 -Top
 62
256
370
-1
  6
ByLayer
  2
tcutout-5
 10
48.1250000000000071
 20
108.5000000000000142
 30
0.0
 50
-90.0
 44
1.0
 45
1.0
  0
LINE
  5
142
100
AcDbEntity
100
AcDbLine
  8
Drawings
 62
256
370
-1
  6
ByLayer
 10
56.1250000000000071
 20
108.5000000000000142
 30
0.0
 11
-50.5
 21
108.5
 31
0.0
  0
ARC
  5
143
100
AcDbEntity
  8
02 -Top
 62
256
370
-1
  6
ByLayer
100
AcDbCircle
 10
53.6250000000000071
 20
82.0000000000000142
 30
0.0
 40
2.5
100
AcDbArc
 50
270.0
 51
0.0
  0
LINE
  5
144
100
AcDbEntity
100
AcDbLine
  8
Drawings
 62
256
370
-1
  6
ByLayer
 10
53.6250000000000142
 20
82.0000000000000142
 30
0.0
 11
-48.0
 21
82.0
 31
0.0
  0
LINE
  5
145
100
AcDbEntity
100
AcDbLine
  8
Drawings
 62
256
370
-1
  6
ByLayer
 10
53.6250000000000142
 20
87.5000000000000142
 30
0.0
 11
-48.0
 21
87.5
 31
0.0
  0
ARC
  5
146
100
AcDbEntity
  8
02 -Top
 62
256
370
-1
  6
ByLayer
100
AcDbCircle
 10
53.6250000000000071
 20
135.0
 30
0.0
 40
2.5
100
AcDbArc
 50
0.0
 51
90.0
  0
LINE
  5
147
100
AcDbEntity
100
AcDbLine
  8
Drawings
 62
256
370
-1
  6
ByLayer
 10
-48.0
 20
135.0
 30
0.0
 11
53.6250000000000071
 21
135.0
 31
0.0
  0
LINE
  5
148
100
AcDbEntity
100
AcDbLine
  8
Drawings
 62
256
370
-1
  6
ByLayer
 10
-48.0
 20
129.5
 30
0.0
 11
53.6250000000000071
 21
129.5
 31
0.0
  0
LINE
  5
149
100
AcDbEntity
100
AcDbLine
  8
02 -Top
 62
256
370
-1
  6
ByLayer
 10
56.1250000000000071
 20
135.0
 30
0.0
 11
56.1250000000000071
 21
82.0000000000000142
 31
0.0
  0
INSERT
  5
14A
100
AcDbEntity
100
AcDbBlockReference
  8
02 -Top
 62
256
370
-1
  6
ByLayer
  2
tcutout-5
 10
6.1250000000000142
 20
108.5
 30
0.0
 50
90.0
 44
1.0
 45
1.0
  0
LINE
  5
14B
100
AcDbEntity
100
AcDbLine
  8
01 - Front
 62
256
370
-1
  6
ByLayer
 10
55.6882352941176393
 20
35.0
 30
0.0
 11
55.6882352941176251
 21
-35.0
 31
0.0
  0
LINE
  5
14C
100
AcDbEntity
100
AcDbLine
  8
01 - Front
 62
256
370
-1
  6
ByLayer
 10
37.125
 20
35.0
 30
0.0
 11
55.6882352941176393
 21
35.0
 31
0.0
  0
LINE
  5
14D
100
AcDbEntity
100
AcDbLine
  8
01 - Front
 62
256
370
-1
  6
ByLayer
 10
55.6882352941176251
 20
-35.0
 30
0.0
 11
37.125
 21
-35.0
 31
0.0
  0
LINE
  5
14E
100
AcDbEntity
100
AcDbLine
  8
Drawings
 62
256
370
-1
  6
ByLayer
 10
5.8750000000000071
 20
35.0
 30
0.0
 11
47.6882352941176464
 21
35.0
 31
0.0
  0
LINE
  5
14F
100
AcDbEntity
100
AcDbLine
  8
Drawings
 62
256
370
-1
  6
ByLayer
 10
53.6250000000000071
 20
135.0
 30
0.0
 11
53.1882352941176393
 21
-35.0
 31
0.0
  0
INSERT
  5
150
100
AcDbEntity
100
AcDbBlockReference
  8
05 - Bottom
 62
256
370
-1
  6
ByLayer
  2
tcutout-5
 10
6.1249999999999929
 20
-178.5
 30
0.0
 41
1.0
 42
-1.0
 43
1.0
 50
270.0
 44
1.0
 45
1.0
  0
CIRCLE
  5
151
100
AcDbEntity
100
AcDbCircle
  8
07 - Mount
 62
256
370
-1
  6
ByLayer
 10
3.0500000000000043
 20
-178.5
 30
0.0
 40
3.0
  0
INSERT
  5
152
100
AcDbEntity
100
AcDbBlockReference
  8
05 - Bottom
 62
256
370
-1
  6
ByLayer
  2
tcutout-5
 10
48.125
 20
-178.5
 30
0.0
 41
1.0
 42
-1.0
 43
1.0
 50
90.0000000000000142
 44
1.0
 45
1.0
  0
CIRCLE
  5
153
100
AcDbEntity
100
AcDbCircle
  8
07 - Mount
 62
256
370
-1
  6
ByLayer
 10
51.1999999999999886
 20
-178.5
 30
0.0
 40
3.0
  0
LINE
  5
154
100
AcDbEntity
100
AcDbLine
  8
Drawings
 62
256
370
-1
  6
ByLayer
 10
56.1250000000000071
 20
-178.5
 30
0.0
 11
-23.8749999999999929
 21
-178.5
 31
0.0
  0
LINE
  5
155
100
AcDbEntity
100
AcDbLine
  8
Drawings
 62
256
370
-1
  6
ByLayer
 10
56.1250000000000142
 20
-157.5
 30
0.0
 11
-23.8749999999999858
 21
-157.5
 31
0.0
  0
LINE
  5
156
100
AcDbEntity
100
AcDbLine
  8
Drawings
 62
256
370
-1
  6
ByLayer
 10
56.125
 20
-199.5
 30
0.0
 11
-23.8749999999999964
 21
-199.5
 31
0.0
  0
INSERT
  5
157
100
AcDbEntity
100
AcDbBlockReference
  8
05 - Bottom
 62
256
370
-1
  6
ByLayer
  2
tcutout-5
 10
27.1250000000000071
 20
-199.4999999999999716
 30
0.0
 41
1.0
 42
-1.0
 43
1.0
 44
1.0
 45
1.0
  0
CIRCLE
  5
158
100
AcDbEntity
100
AcDbCircle
  8
07 - Mount
 62
256
370
-1
  6
ByLayer
 10
27.1249999999999929
 20
-202.5749999999999602
 30
0.0
 40
3.0
  0
LINE
  5
159
100
AcDbEntity
100
AcDbLine
  8
Drawings
 62
256
370
-1
  6
ByLayer
 10
-48.0000000000000142
 20
-205.0
 30
0.0
 11
53.8749999999999858
 21
-205.0
 31
0.0
  0
LINE
  5
15A
100
AcDbEntity
100
AcDbLine
  8
Drawings
 62
256
370
-1
  6
ByLayer
 10
-48.0
 20
-199.5
 30
0.0
 11
53.875
 21
-199.5
 31
0.0
  0
LINE
  5
15B
100
AcDbEntity
100
AcDbLine
  8
Drawings
 62
256
370
-1
  6
ByLayer
 10
0.0
 20
137.5
 30
0.0
 11
-0.0000000000000071
 21
-207.5
 31
0.0
  0
LINE
  5
15C
100
AcDbEntity
100
AcDbLine
  8
Drawings
 62
256
370
-1
  6
ByLayer
 10
48.1250000000000071
 20
-204.9999999999999716
 30
0.0
 11
48.1250000000000071
 21
135.0
 31
0.0
  0
INSERT
  5
15D
100
AcDbEntity
100
AcDbBlockReference
  8
05 - Bottom
 62
256
370
-1
  6
ByLayer
  2
tcutout-5
 10
27.125
 20
-157.5
 30
0.0
 41
1.0
 42
-1.0
 43
1.0
 50
180.0
 44
1.0
 45
1.0
  0
CIRCLE
  5
15E
100
AcDbEntity
100
AcDbCircle
  8
07 - Mount
 62
256
370
-1
  6
ByLayer
 10
27.1249999999999964
 20
-154.4250000000000114
 30
0.0
 40
3.0
  0
LINE
  5
15F
100
AcDbEntity
100
AcDbLine
  8
Drawings
 62
256
370
-1
  6
ByLayer
 10
53.875
 20
-152.0
 30
0.0
 11
-48.0
 21
-152.0
 31
0.0
  0
LINE
  5
160
100
AcDbEntity
100
AcDbLine
  8
Drawings
 62
256
370
-1
  6
ByLayer
 10
53.875
 20
-157.5
 30
0.0
 11
-48.0
 21
-157.5
 31
0.0
  0
LINE
  5
161
100
AcDbEntity
100
AcDbLine
  8
07 - Mount
 62
256
370
-1
  6
ByLayer
 10
56.1250000000000142
 20
-152.0000000000000568
 30
0.0
 11
56.125
 21
-204.9999999999999432
 31
0.0
  0
LINE
  5
162
100
AcDbEntity
100
AcDbLine
  8
03 - Left
 62
256
370
-1
  6
ByLayer
 10
94.625
 20
34.9999999999999716
 30
0.0
 11
83.6249999999998863
 21
34.9999999999999432
 31
0.0
  0
LINE
  5
163
100
AcDbEntity
100
AcDbLine
  8
03 - Left
 62
256
370
-1
  6
ByLayer
 10
83.6249999999999147
 20
-35.0000000000000284
 30
0.0
 11
94.6249999999999432
 21
-35.0000000000001137
 31
0.0
  0
LINE
  5
164
100
AcDbEntity
100
AcDbLine
  8
03 - Left
 62
256
370
-1
  6
ByLayer
 10
125.6249999999999716
 20
34.9999999999999716
 30
0.0
 11
114.625
 21
34.9999999999999716
 31
0.0
  0
LINE
  5
165
100
AcDbEntity
100
AcDbLine
  8
03 - Left
 62
256
370
-1
  6
ByLayer
 10
114.6249999999999432
 20
-35.0000000000001137
 30
0.0
 11
125.6249999999999147
 21
-35.0000000000001137
 31
0.0
  0
LINE
  5
166
100
AcDbEntity
100
AcDbLine
  8
03 - Left
 62
256
370
-1
  6
ByLayer
 10
174.625
 20
34.9999999999999716
 30
0.0
 11
163.6249999999998863
 21
34.9999999999999432
 31
0.0
  0
LINE
  5
167
100
AcDbEntity
100
AcDbLine
  8
03 - Left
 62
256
370
-1
  6
ByLayer
 10
163.6249999999999147
 20
-35.0000000000000284
 30
0.0
 11
174.6249999999999432
 21
-35.0000000000001137
 31
0.0
  0
LINE
  5
168
100
AcDbEntity
100
AcDbLine
  8
03 - Left
 62
256
370
-1
  6
ByLayer
 10
205.6249999999999716
 20
34.9999999999999716
 30
0.0
 11
194.625
 21
34.9999999999999716
 31
0.0
  0
LINE
  5
169
100
AcDbEntity
100
AcDbLine
  8
03 - Left
 62
256
370
-1
  6
ByLayer
 10
194.6249999999999432
 20
-35.0000000000001137
 30
0.0
 11
205.6249999999999147
 21
-35.0000000000001137
 31
0.0
  0
INSERT
  5
16A
100
AcDbEntity
100
AcDbBlockReference
  8
01 - Front
 62
256
370
-1
  6
ByLayer
  2
tgrips-5
 10
262.875
 20
34.9999999999999929
 30
0.0
 41
1.0
 42
-1.0
 43
1.0
 50
180.0
 44
1.0
 45
1.0
  0
INSERT
  5
16B
100
AcDbEntity
100
AcDbBlockReference
  8
01 - Front
 62
256
370
-1
  6
ByLayer
  2
tgrips-5
 10
262.875
 20
-35.0000000000000142
 30
0.0
 41
1.0
 42
-1.0
 43
1.0
 44
1.0
 45
1.0
  0
LINE
  5
16C
100
AcDbEntity
100
AcDbLine
  8
01 - Front
 62
256
370
-1
  6
ByLayer
 10
234.3117647058823536
 20
35.0
 30
0.0
 11
234.311764705882382
 21
-35.0
 31
0.0
  0
LINE
  5
16D
100
AcDbEntity
100
AcDbLine
  8
01 - Front
 62
256
370
-1
  6
ByLayer
 10
252.875
 20
34.9999999999999787
 30
0.0
 11
234.3117647058823536
 21
35.0
 31
0.0
  0
LINE
  5
16E
100
AcDbEntity
100
AcDbLine
  8
01 - Front
 62
256
370
-1
  6
ByLayer
 10
234.311764705882382
 20
-35.0
 30
0.0
 11
252.875
 21
-34.9999999999999858
 31
0.0
  0
LINE
  5
16F
100
AcDbEntity
100
AcDbLine
  8
05 - Bottom
 62
256
370
-1
  6
ByLayer
 10
56.125
 20
-230.5026371307103545
 30
0.0
 11
56.125
 21
-126.497362869289617
 31
0.0
  0
ARC
  5
170
100
AcDbEntity
  8
05 - Bottom
 62
256
370
-1
  6
ByLayer
100
AcDbCircle
 10
27.125
 20
-126.497362869289617
 30
0.0
 40
29.0
100
AcDbArc
 50
0.0
 51
180.0
  0
ARC
  5
171
100
AcDbEntity
  8
05 - Bottom
 62
256
370
-1
  6
ByLayer
100
AcDbCircle
 10
27.125
 20
-230.5026371307103545
 30
0.0
 40
29.0
100
AcDbArc
 50
180.0
 51
0.0
  0
LINE
  5
172
100
AcDbEntity
100
AcDbLine
  8
05 - Bottom
 62
256
370
-1
  6
ByLayer
 10
-1.875
 20
-126.497362869289617
 30
0.0
 11
-1.875
 21
-134.5
 31
0.0
  0
ARC
  5
173
100
AcDbEntity
  8
05 - Bottom
 62
256
370
-1
  6
ByLayer
100
AcDbCircle
 10
-16.875
 20
-134.5
 30
0.0
 40
15.0
100
AcDbArc
 50
270.0
 51
0.0
  0
LINE
  5
174
100
AcDbEntity
100
AcDbLine
  8
05 - Bottom
 62
256
370
-1
  6
ByLayer
 10
-1.875
 20
-222.5
 30
0.0
 11
-1.875
 21
-230.5026371307103545
 31
0.0
  0
ARC
  5
175
100
AcDbEntity
  8
05 - Bottom
 62
256
370
-1
  6
ByLayer
100
AcDbCircle
 10
-16.875
 20
-222.5
 30
0.0
 40
15.0
100
AcDbArc
 50
0.0
 51
89.9999999999999716
  0
ARC
  5
176
100
AcDbEntity
  8
02 -Top
 62
256
370
-1
  6
ByLayer
100
AcDbCircle
 10
-38.0
 20
82.0
 30
0.0
 40
2.5
100
AcDbArc
 50
180.0
 51
270.0
  0
ARC
  5
177
100
AcDbEntity
  8
02 -Top
 62
256
370
-1
  6
ByLayer
100
AcDbCircle
 10
-38.0
 20
135.0
 30
0.0
 40
2.5
100
AcDbArc
 50
90.0
 51
180.0
  0
LINE
  5
178
100
AcDbEntity
100
AcDbLine
  8
02 -Top
 62
256
370
-1
  6
ByLayer
 10
-40.5
 20
82.0
 30
0.0
 11
-40.5
 21
135.0
 31
0.0
  0
LINE
  5
179
100
AcDbEntity
100
AcDbLine
  8
02 -Top
 62
256
370
-1
  6
ByLayer
 10
53.6250000000000071
 20
79.5000000000000142
 30
0.0
 11
-38.0
 21
79.5
 31
0.0
  0
LINE
  5
17A
100
AcDbEntity
100
AcDbLine
  8
02 -Top
 62
256
370
-1
  6
ByLayer
 10
-38.0
 20
137.5
 30
0.0
 11
53.6250000000000071
 21
137.5
 31
0.0
  0
LINE
  5
17B
100
AcDbEntity
100
AcDbLine
  8
01 - Front
 62
256
370
-1
  6
ByLayer
 10
-40.5
 20
35.0
 30
0.0
 11
-40.5000000000000142
 21
-35.0
 31
0.0
  0
ARC
  5
17C
100
AcDbEntity
  8
05 - Bottom
 62
256
370
-1
  6
ByLayer
100
AcDbCircle
 10
-38.0000000000000142
 20
-205.0
 30
0.0
 40
2.5
100
AcDbArc
 50
180.0
 51
270.0
  0
ARC
  5
17D
100
AcDbEntity
  8
05 - Bottom
 62
256
370
-1
  6
ByLayer
100
AcDbCircle
 10
-38.0
 20
-152.0
 30
0.0
 40
2.5
100
AcDbArc
 50
90.0000000000000142
 51
180.0
  0
LINE
  5
17E
100
AcDbEntity
100
AcDbLine
  8
05 - Bottom
 62
256
370
-1
  6
ByLayer
 10
-40.5
 20
-152.0
 30
0.0
 11
-40.5
 21
-205.0
 31
0.0
  0
LINE
  5
17F
100
AcDbEntity
100
AcDbLine
  8
05 - Bottom
 62
256
370
-1
  6
ByLayer
 10
-16.875
 20
-149.5
 30
0.0
 11
-38.0
 21
-149.5
 31
0.0
  0
LINE
  5
180
100
AcDbEntity
100
AcDbLine
  8
05 - Bottom
 62
256
370
-1
  6
ByLayer
 10
-38.0000000000000142
 20
-207.5
 30
0.0
 11
-16.8749999999999929
 21
-207.5
 31
0.0
  0
LINE
  5
181
100
AcDbEntity
100
AcDbLine
  8
01 - Front
 62
256
370
-1
  6
ByLayer
 10
330.5
 20
34.9999999999999929
 30
0.0
 11
330.5
 21
-34.9999999999998863
 31
0.0
  0
INSERT
  5
182
100
AcDbEntity
100
AcDbBlockReference
  8
02 -Top
 62
256
370
-1
  6
ByLayer
  2
tcutout-5
 10
-28.9374999999999929
 20
87.5
 30
0.0
 50
180.0
 44
1.0
 45
1.0
  0
INSERT
  5
183
100
AcDbEntity
100
AcDbBlockReference
  8
02 -Top
 62
256
370
-1
  6
ByLayer
  2
tcutout-5
 10
-28.9374999999999929
 20
129.5
 30
0.0
 44
1.0
 45
1.0
  0
INSERT
  5
184
100
AcDbEntity
100
AcDbBlockReference
  8
01 - Front
 62
256
370
-1
  6
ByLayer
  2
tgrips-5
 10
-28.9374999999999858
 20
35.0
 30
0.0
 44
1.0
 45
1.0
  0
INSERT
  5
185
100
AcDbEntity
100
AcDbBlockReference
  8
01 - Front
 62
256
370
-1
  6
ByLayer
  2
tgrips-5
 10
-28.9375
 20
-35.0
 30
0.0
 50
180.0
 44
1.0
 45
1.0
  0
INSERT
  5
186
100
AcDbEntity
100
AcDbBlockReference
  8
01 - Front
 62
256
370
-1
  6
ByLayer
  2
tgrips-5
 10
318.9375
 20
34.9999999999999432
 30
0.0
 41
1.0
 42
-1.0
 43
1.0
 50
180.0
 44
1.0
 45
1.0
  0
INSERT
  5
187
100
AcDbEntity
100
AcDbBlockReference
  8
01 - Front
 62
256
370
-1
  6
ByLayer
  2
tgrips-5
 10
318.9375
 20
-34.9999999999999858
 30
0.0
 41
1.0
 42
-1.0
 43
1.0
 44
1.0
 45
1.0
  0
LINE
  5
188
100
AcDbEntity
100
AcDbLine
  8
01 - Front
 62
256
370
-1
  6
ByLayer
 10
330.5
 20
34.9999999999999929
 30
0.0
 11
328.9375
 21
34.9999999999999787
 31
0.0
  0
LINE
  5
189
100
AcDbEntity
100
AcDbLine
  8
01 - Front
 62
256
370
-1
  6
ByLayer
 10
308.9375
 20
34.9999999999999432
 30
0.0
 11
272.875
 21
34.9999999999999858
 31
0.0
  0
LINE
  5
18A
100
AcDbEntity
100
AcDbLine
  8
01 - Front
 62
256
370
-1
  6
ByLayer
 10
272.875
 20
-34.9999999999999858
 30
0.0
 11
308.9375
 21
-34.9999999999999858
 31
0.0
  0
LINE
  5
18B
100
AcDbEntity
100
AcDbLine
  8
01 - Front
 62
256
370
-1
  6
ByLayer
 10
328.9375
 20
-34.9999999999999147
 30
0.0
 11
330.5
 21
-34.9999999999998863
 31
0.0
  0
LINE
  5
18C
100
AcDbEntity
100
AcDbLine
  8
01 - Front
 62
256
370
-1
  6
ByLayer
 10
-40.5
 20
35.0
 30
0.0
 11
-38.9374999999999858
 21
35.0
 31
0.0
  0
LINE
  5
18D
100
AcDbEntity
100
AcDbLine
  8
01 - Front
 62
256
370
-1
  6
ByLayer
 10
-18.9374999999999858
 20
35.0
 30
0.0
 11
17.1250000000000036
 21
35.0
 31
0.0
  0
LINE
  5
18E
100
AcDbEntity
100
AcDbLine
  8
01 - Front
 62
256
370
-1
  6
ByLayer
 10
-38.9375
 20
-35.0
 30
0.0
 11
-40.5000000000000142
 21
-35.0
 31
0.0
  0
LINE
  5
18F
100
AcDbEntity
100
AcDbLine
  8
01 - Front
 62
256
370
-1
  6
ByLayer
 10
17.1249999999999964
 20
-35.0
 30
0.0
 11
-18.9375
 21
-35.0
 31
0.0
  0
LINE
  5
190
100
AcDbEntity
100
AcDbLine
  8
Drawings
 62
256
370
-1
  6
ByLayer
 10
262.875
 20
34.9999999999999929
 30
0.0
 11
262.875
 21
-35.0000000000000142
 31
0.0
  0
LINE
  5
191
100
AcDbEntity
100
AcDbLine
  8
Drawings
 62
256
370
-1
  6
ByLayer
 10
241.875
 20
35.0
 30
0.0
 11
241.875
 21
-35.0000000000000071
 31
0.0
  0
LINE
  5
192
100
AcDbEntity
100
AcDbLine
  8
Drawings
 62
256
370
-1
  6
ByLayer
 10
283.875
 20
34.9999999999999858
 30
0.0
 11
283.875
 21
-35.0000000000000213
 31
0.0
  0
LINE
  5
193
100
AcDbEntity
100
AcDbLine
  8
Drawings
 62
256
370
-1
  6
ByLayer
 10
-28.9375000000000107
 20
-232.5000000000000284
 30
0.0
 11
-28.9374999999999893
 21
133.4999999999999147
 31
0.0
  0
INSERT
  5
194
100
AcDbEntity
100
AcDbBlockReference
  8
05 - Bottom
 62
256
370
-1
  6
ByLayer
  2
tcutout-5
 10
-28.9374999999999964
 20
-199.5000000000000284
 30
0.0
 41
1.0
 42
-1.0
 43
1.0
 44
1.0
 45
1.0
  0
CIRCLE
  5
195
100
AcDbEntity
100
AcDbCircle
  8
07 - Mount
 62
256
370
-1
  6
ByLayer
 10
-28.9375000000000107
 20
-202.5750000000000171
 30
0.0
 40
3.0
  0
INSERT
  5
196
100
AcDbEntity
100
AcDbBlockReference
  8
05 - Bottom
 62
256
370
-1
  6
ByLayer
  2
tcutout-5
 10
-28.9374999999999964
 20
-157.5000000000000284
 30
0.0
 41
1.0
 42
-1.0
 43
1.0
 50
180.0
 44
1.0
 45
1.0
  0
CIRCLE
  5
197
100
AcDbEntity
100
AcDbCircle
  8
07 - Mount
 62
256
370
-1
  6
ByLayer
 10
-28.9375000000000036
 20
-154.4250000000000398
 30
0.0
 40
3.0
  0
LINE
  5
198
100
AcDbEntity
100
AcDbLine
  8
Drawings - Flange
 62
256
370
-1
  6
ByLayer
 10
12.8399999999999892
 20
42.9843749999999716
 30
0.0
 11
41.4100000000000392
 21
42.9843749999999716
 31
0.0
  0
LINE
  5
199
100
AcDbEntity
100
AcDbLine
  8
Drawings - Flange
 62
256
370
-1
  6
ByLayer
 10
12.8399999999999892
 20
40.9999999999999716
 30
0.0
 11
12.8399999999999892
 21
42.9843749999999716
 31
0.0
  0
LINE
  5
19A
100
AcDbEntity
100
AcDbLine
  8
Drawings - Flange
 62
256
370
-1
  6
ByLayer
 10
41.4100000000000392
 20
40.9999999999999716
 30
0.0
 11
41.4100000000000392
 21
42.9843749999999716
 31
0.0
  0
LINE
  5
19B
100
AcDbEntity
100
AcDbLine
  8
Drawings - Flange
 62
256
370
-1
  6
ByLayer
 10
16.7745000000000033
 20
-7.8156250000000114
 30
0.0
 11
16.7745000000000033
 21
40.9999999999999716
 31
0.0
  0
LINE
  5
19C
100
AcDbEntity
100
AcDbLine
  8
Drawings - Flange
 62
256
370
-1
  6
ByLayer
 10
37.4755000000000251
 20
-7.8156250000000398
 30
0.0
 11
37.4755000000000251
 21
40.9999999999999716
 31
0.0
  0
LINE
  5
19D
100
AcDbEntity
100
AcDbLine
  8
Drawings - Flange
 62
256
370
-1
  6
ByLayer
 10
16.7745000000000033
 20
-7.8156250000000114
 30
0.0
 11
37.4755000000000251
 21
-7.8156250000000398
 31
0.0
  0
LINE
  5
19E
100
AcDbEntity
100
AcDbLine
  8
Drawings - Flange
 62
256
370
-1
  6
ByLayer
 10
12.8399999999999892
 20
40.9999999999999716
 30
0.0
 11
16.7745000000000033
 21
40.9999999999999716
 31
0.0
  0
LINE
  5
19F
100
AcDbEntity
100
AcDbLine
  8
Drawings - Flange
 62
256
370
-1
  6
ByLayer
 10
37.4755000000000251
 20
40.9999999999999716
 30
0.0
 11
41.4100000000000392
 21
40.9999999999999716
 31
0.0
  0
LINE
  5
1A0
100
AcDbEntity
100
AcDbLine
  8
Drawings - Flange
 62
256
370
-1
  6
ByLayer
 10
16.7745000000000033
 20
40.9999999999999716
 30
0.0
 11
37.4755000000000251
 21
40.9999999999999716
 31
0.0
  0
LINE
  5
1A1
100
AcDbEntity
100
AcDbLine
  8
Drawings - Flange
 62
256
370
-1
  6
ByLayer
 10
27.1250000000000142
 20
-7.8156250000000114
 30
0.0
 11
27.1250000000000142
 21
42.9843749999999716
 31
0.0
  0
INSERT
  5
1A2
100
AcDbEntity
100
AcDbBlockReference
  8
01 - Front
 62
256
370
-1
  6
ByLayer
  2
tcutout-5
 10
27.125
 20
-7.8156249999999918
 30
0.0
 44
1.0
 45
1.0
  0
INSERT
  5
1A3
100
AcDbEntity
100
AcDbBlockReference
  8
01 - Front
 62
256
370
-1
  6
ByLayer
  2
tgrips-5
 10
27.1250000000000036
 20
34.9999999999999503
 30
0.0
 44
1.0
 45
1.0
  0
LINE
  5
1A4
100
AcDbEntity
100
AcDbLine
  8
Drawings
 62
256
370
-1
  6
ByLayer
 10
53.1728200692041497
 20
-41.0
 30
0.0
 11
-42.5
 21
-41.0
 31
0.0
  0
LINE
  5
1A5
100
AcDbEntity
100
AcDbLine
  8
Drawings
 62
256
370
-1
  6
ByLayer
 10
53.157404844290653
 20
-47.0
 30
0.0
 11
-42.5
 21
-47.0
 31
0.0
  0
LINE
  5
1A6
100
AcDbEntity
100
AcDbLine
  8
Drawings - R4F Bearing
 62
256
370
-1
  6
ByLayer
 10
19.1875
 20
39.0219749999999976
 30
0.0
 11
35.0625
 21
39.0219749999999976
 31
0.0
  0
LINE
  5
1A7
100
AcDbEntity
100
AcDbLine
  8
Drawings - R4F Bearing
 62
256
370
-1
  6
ByLayer
 10
19.1875
 20
42.9843749999999858
 30
0.0
 11
19.1875
 21
39.0219749999999976
 31
0.0
  0
LINE
  5
1A8
100
AcDbEntity
100
AcDbLine
  8
Drawings - R4F Bearing
 62
256
370
-1
  6
ByLayer
 10
35.0625
 20
42.9843749999999858
 30
0.0
 11
35.0625
 21
39.0219749999999976
 31
0.0
  0
LINE
  5
1A9
100
AcDbEntity
100
AcDbLine
  8
Drawings - R4F Bearing
 62
256
370
-1
  6
ByLayer
 10
27.125
 20
44.0003749999999911
 30
0.0
 11
27.125
 21
39.0219749999999976
 31
0.0
  0
LINE
  5
1AA
100
AcDbEntity
100
AcDbLine
  8
Drawings - R4F Bearing
 62
256
370
-1
  6
ByLayer
 10
18.4950000000000045
 20
44.0003749999999911
 30
0.0
 11
18.4950000000000045
 21
42.9843749999999858
 31
0.0
  0
LINE
  5
1AB
100
AcDbEntity
100
AcDbLine
  8
Drawings - R4F Bearing
 62
256
370
-1
  6
ByLayer
 10
18.4950000000000045
 20
44.0003749999999911
 30
0.0
 11
35.7549999999999955
 21
44.0003749999999911
 31
0.0
  0
LINE
  5
1AC
100
AcDbEntity
100
AcDbLine
  8
Drawings - R4F Bearing
 62
256
370
-1
  6
ByLayer
 10
18.4950000000000045
 20
42.9843749999999858
 30
0.0
 11
35.7549999999999955
 21
42.9843749999999858
 31
0.0
  0
LINE
  5
1AD
100
AcDbEntity
100
AcDbLine
  8
Drawings - R4F Bearing
 62
256
370
-1
  6
ByLayer
 10
35.7549999999999955
 20
44.0003749999999911
 30
0.0
 11
35.7549999999999955
 21
42.9843749999999858
 31
0.0
  0
LINE
  5
1AE
100
AcDbEntity
100
AcDbLine
  8
Drawings - R4 Bearing
 62
256
370
-1
  6
ByLayer
 10
202.0625
 20
-92.4891999999999967
 30
0.0
 11
217.9375
 21
-92.4891999999999967
 31
0.0
  0
LINE
  5
1AF
100
AcDbEntity
100
AcDbLine
  8
Drawings - R4 Bearing
 62
256
370
-1
  6
ByLayer
 10
202.0625
 20
-87.5108000000000033
 30
0.0
 11
217.9375
 21
-87.5108000000000033
 31
0.0
  0
LINE
  5
1B0
100
AcDbEntity
100
AcDbLine
  8
Drawings - R4 Bearing
 62
256
370
-1
  6
ByLayer
 10
202.0625
 20
-87.5108000000000033
 30
0.0
 11
202.0625
 21
-92.4891999999999967
 31
0.0
  0
LINE
  5
1B1
100
AcDbEntity
100
AcDbLine
  8
Drawings - R4 Bearing
 62
256
370
-1
  6
ByLayer
 10
217.9375
 20
-87.5108000000000033
 30
0.0
 11
217.9375
 21
-92.4891999999999967
 31
0.0
  0
LINE
  5
1B2
100
AcDbEntity
100
AcDbLine
  8
Drawings - R4 Bearing
 62
256
370
-1
  6
ByLayer
 10
210.0
 20
-87.5108000000000033
 30
0.0
 11
210.0
 21
-92.4891999999999967
 31
0.0
  0
LINE
  5
1B3
100
AcDbEntity
100
AcDbLine
  8
Drawings - R4 Bearing
 62
256
370
-1
  6
ByLayer
 10
206.8249999999999886
 20
-87.5108000000000033
 30
0.0
 11
206.8249999999999886
 21
-92.4891999999999967
 31
0.0
  0
LINE
  5
1B4
100
AcDbEntity
100
AcDbLine
  8
Drawings - R4 Bearing
 62
256
370
-1
  6
ByLayer
 10
213.1750000000000114
 20
-87.5108000000000033
 30
0.0
 11
213.1750000000000114
 21
-92.4891999999999967
 31
0.0
  0
LINE
  5
1B5
100
AcDbEntity
100
AcDbLine
  8
Drawings - R4F Bearing
 62
256
370
-1
  6
ByLayer
 10
35.0625000000000142
 20
-3.8532250000000534
 30
0.0
 11
19.1875000000000142
 21
-3.8532250000000485
 31
0.0
  0
LINE
  5
1B6
100
AcDbEntity
100
AcDbLine
  8
Drawings - R4F Bearing
 62
256
370
-1
  6
ByLayer
 10
35.0625000000000142
 20
-7.8156250000000256
 30
0.0
 11
35.0625000000000142
 21
-3.8532250000000534
 31
0.0
  0
LINE
  5
1B7
100
AcDbEntity
100
AcDbLine
  8
Drawings - R4F Bearing
 62
256
370
-1
  6
ByLayer
 10
19.1875000000000142
 20
-7.8156250000000256
 30
0.0
 11
19.1875000000000142
 21
-3.8532250000000485
 31
0.0
  0
LINE
  5
1B8
100
AcDbEntity
100
AcDbLine
  8
Drawings - R4F Bearing
 62
256
370
-1
  6
ByLayer
 10
27.1250000000000142
 20
-8.831625000000038
 30
0.0
 11
27.1250000000000142
 21
-3.8532250000000436
 31
0.0
  0
LINE
  5
1B9
100
AcDbEntity
100
AcDbLine
  8
Drawings - R4F Bearing
 62
256
370
-1
  6
ByLayer
 10
35.7550000000000097
 20
-8.8316250000000345
 30
0.0
 11
35.7550000000000097
 21
-7.8156250000000256
 31
0.0
  0
LINE
  5
1BA
100
AcDbEntity
100
AcDbLine
  8
Drawings - R4F Bearing
 62
256
370
-1
  6
ByLayer
 10
35.7550000000000097
 20
-8.8316250000000345
 30
0.0
 11
18.4950000000000188
 21
-8.8316250000000363
 31
0.0
  0
LINE
  5
1BB
100
AcDbEntity
100
AcDbLine
  8
Drawings - R4F Bearing
 62
256
370
-1
  6
ByLayer
 10
35.7550000000000097
 20
-7.8156250000000256
 30
0.0
 11
18.4950000000000188
 21
-7.8156250000000256
 31
0.0
  0
LINE
  5
1BC
100
AcDbEntity
100
AcDbLine
  8
Drawings - R4F Bearing
 62
256
370
-1
  6
ByLayer
 10
18.4950000000000188
 20
-8.8316250000000363
 30
0.0
 11
18.4950000000000188
 21
-7.8156250000000256
 31
0.0
  0
LINE
  5
1BD
100
AcDbEntity
100
AcDbLine
  8
Drawings - O-Ring
 62
256
370
-1
  6
ByLayer
 10
27.125
 20
44.6353749999999891
 30
0.0
 11
27.125
 21
44.0003749999999911
 31
0.0
  0
LINE
  5
1BE
100
AcDbEntity
100
AcDbLine
  8
Drawings - O-Ring
 62
256
370
-1
  6
ByLayer
 10
20.2669999999999995
 20
44.6353749999999891
 30
0.0
 11
20.2669999999999995
 21
44.0003749999999911
 31
0.0
  0
LINE
  5
1BF
100
AcDbEntity
100
AcDbLine
  8
Drawings - O-Ring
 62
256
370
-1
  6
ByLayer
 10
33.982999999999997
 20
44.6353749999999891
 30
0.0
 11
33.982999999999997
 21
44.0003749999999911
 31
0.0
  0
LINE
  5
1C0
100
AcDbEntity
100
AcDbLine
  8
Drawings - O-Ring
 62
256
370
-1
  6
ByLayer
 10
20.2669999999999995
 20
44.6353749999999891
 30
0.0
 11
33.982999999999997
 21
44.6353749999999891
 31
0.0
  0
LINE
  5
1C1
100
AcDbEntity
100
AcDbLine
  8
Drawings - O-Ring
 62
256
370
-1
  6
ByLayer
 10
20.2669999999999995
 20
44.0003749999999911
 30
0.0
 11
33.982999999999997
 21
44.0003749999999911
 31
0.0
  0
LINE
  5
1C2
100
AcDbEntity
100
AcDbLine
  8
Drawings - O-Ring
 62
256
370
-1
  6
ByLayer
 10
27.125
 20
-8.831625000000038
 30
0.0
 11
27.125
 21
-9.466625000000036
 31
0.0
  0
LINE
  5
1C3
100
AcDbEntity
100
AcDbLine
  8
Drawings - O-Ring
 62
256
370
-1
  6
ByLayer
 10
20.2669999999999995
 20
-8.831625000000038
 30
0.0
 11
20.2669999999999995
 21
-9.466625000000036
 31
0.0
  0
LINE
  5
1C4
100
AcDbEntity
100
AcDbLine
  8
Drawings - O-Ring
 62
256
370
-1
  6
ByLayer
 10
33.982999999999997
 20
-8.831625000000038
 30
0.0
 11
33.982999999999997
 21
-9.466625000000036
 31
0.0
  0
LINE
  5
1C5
100
AcDbEntity
100
AcDbLine
  8
Drawings - O-Ring
 62
256
370
-1
  6
ByLayer
 10
20.2669999999999995
 20
-8.831625000000038
 30
0.0
 11
33.982999999999997
 21
-8.831625000000038
 31
0.0
  0
LINE
  5
1C6
100
AcDbEntity
100
AcDbLine
  8
Drawings - O-Ring
 62
256
370
-1
  6
ByLayer
 10
20.2669999999999995
 20
-9.466625000000036
 30
0.0
 11
33.982999999999997
 21
-9.466625000000036
 31
0.0
  0
LINE
  5
1C7
100
AcDbEntity
100
AcDbLine
  8
Drawings - Shaft Pulley
 62
256
370
-1
  6
ByLayer
 10
14.4250000000000149
 20
60.5103749999999891
 30
0.0
 11
39.8249999999999886
 21
60.5103749999999891
 31
0.0
  0
LINE
  5
1C8
100
AcDbEntity
100
AcDbLine
  8
Drawings - Shaft Pulley
 62
256
370
-1
  6
ByLayer
 10
14.4250000000000149
 20
57.3853749999999891
 30
0.0
 11
39.8249999999999886
 21
57.3853749999999891
 31
0.0
  0
LINE
  5
1C9
100
AcDbEntity
100
AcDbLine
  8
Drawings - Shaft Pulley
 62
256
370
-1
  6
ByLayer
 10
27.1250000000000036
 20
60.5103749999999891
 30
0.0
 11
27.1250000000000036
 21
44.6353749999999891
 31
0.0
  0
LINE
  5
1CA
100
AcDbEntity
100
AcDbLine
  8
Drawings - Shaft Pulley
 62
256
370
-1
  6
ByLayer
 10
19.1875000000000036
 20
57.3853749999999891
 30
0.0
 11
19.1875000000000036
 21
44.6353749999999891
 31
0.0
  0
LINE
  5
1CB
100
AcDbEntity
100
AcDbLine
  8
Drawings - Shaft Pulley
 62
256
370
-1
  6
ByLayer
 10
35.0625
 20
57.3853749999999891
 30
0.0
 11
35.0625
 21
44.6353749999999891
 31
0.0
  0
LINE
  5
1CC
100
AcDbEntity
100
AcDbLine
  8
Drawings - Shaft Pulley
 62
256
370
-1
  6
ByLayer
 10
19.1875000000000036
 20
44.6353749999999891
 30
0.0
 11
35.0625
 21
44.6353749999999891
 31
0.0
  0
ARC
  5
1CD
100
AcDbEntity
  8
Drawings - Shaft Pulley
 62
256
370
-1
  6
ByLayer
100
AcDbCircle
 10
14.4250000000000149
 20
58.9478749999999891
 30
0.0
 40
0.79375
100
AcDbArc
 50
270.0
 51
90.0
  0
LINE
  5
1CE
100
AcDbEntity
100
AcDbLine
  8
Drawings - Shaft Pulley
 62
256
370
-1
  6
ByLayer
 10
14.4250000000000149
 20
60.5103749999999891
 30
0.0
 11
14.4250000000000149
 21
59.7416249999999778
 31
0.0
  0
LINE
  5
1CF
100
AcDbEntity
100
AcDbLine
  8
Drawings - Shaft Pulley
 62
256
370
-1
  6
ByLayer
 10
14.4250000000000149
 20
58.1541250000000005
 30
0.0
 11
14.4250000000000149
 21
57.3853749999999891
 31
0.0
  0
ARC
  5
1D0
100
AcDbEntity
  8
Drawings - Shaft Pulley
 62
256
370
-1
  6
ByLayer
100
AcDbCircle
 10
39.8249999999999886
 20
58.9478749999999891
 30
0.0
 40
0.79375
100
AcDbArc
 50
90.0
 51
270.0
  0
LINE
  5
1D1
100
AcDbEntity
100
AcDbLine
  8
Drawings - Shaft Pulley
 62
256
370
-1
  6
ByLayer
 10
39.8249999999999886
 20
60.5103749999999891
 30
0.0
 11
39.8249999999999886
 21
59.7416249999999778
 31
0.0
  0
LINE
  5
1D2
100
AcDbEntity
100
AcDbLine
  8
Drawings - Shaft Pulley
 62
256
370
-1
  6
ByLayer
 10
39.8249999999999886
 20
58.1541250000000005
 30
0.0
 11
39.8249999999999886
 21
57.3853749999999891
 31
0.0
  0
LINE
  5
1D3
100
AcDbEntity
100
AcDbLine
  8
Drawings - Shaft Pulley
 62
256
370
-1
  6
ByLayer
 10
19.1875000000000036
 20
50.9853749999999835
 30
0.0
 11
35.0625
 21
50.985374999999955
 31
0.0
  0
LINE
  5
1D4
100
AcDbEntity
100
AcDbLine
  8
Drawings - Shaft Pulley
 62
256
370
-1
  6
ByLayer
 10
23.9499999999999922
 20
60.5103749999999891
 30
0.0
 11
23.9499999999999922
 21
44.6353749999999891
 31
0.0
  0
LINE
  5
1D5
100
AcDbEntity
100
AcDbLine
  8
Drawings - Shaft Pulley
 62
256
370
-1
  6
ByLayer
 10
30.3000000000000149
 20
60.5103749999999891
 30
0.0
 11
30.3000000000000149
 21
44.6353749999999891
 31
0.0
  0
LINE
  5
1D6
100
AcDbEntity
100
AcDbLine
  8
Drawings - Drive Shaft
 62
256
370
-1
  6
ByLayer
 10
23.9500000000000028
 20
60.5103750000000176
 30
0.0
 11
30.3000000000000043
 21
60.5103750000000176
 31
0.0
  0
LINE
  5
1D7
100
AcDbEntity
100
AcDbLine
  8
Drawings - Drive Shaft
 62
256
370
-1
  6
ByLayer
 10
23.9499999999999851
 20
-28.3696249999999779
 30
0.0
 11
30.2999999999999865
 21
-28.3696249999999779
 31
0.0
  0
LINE
  5
1D8
100
AcDbEntity
100
AcDbLine
  8
Drawings - Drive Shaft
 62
256
370
-1
  6
ByLayer
 10
30.3000000000000043
 20
60.5103750000000176
 30
0.0
 11
30.3000000000000007
 21
-28.3696249999999885
 31
0.0
  0
LINE
  5
1D9
100
AcDbEntity
100
AcDbLine
  8
Drawings - Drive Shaft
 62
256
370
-1
  6
ByLayer
 10
27.1250000000000036
 20
60.5103750000000176
 30
0.0
 11
27.125
 21
-28.3696249999999885
 31
0.0
  0
LINE
  5
1DA
100
AcDbEntity
100
AcDbLine
  8
Drawings - Drive Shaft
 62
256
370
-1
  6
ByLayer
 10
23.9500000000000028
 20
60.5103750000000176
 30
0.0
 11
23.9499999999999993
 21
-28.3696249999999885
 31
0.0
  0
LINE
  5
1DB
100
AcDbEntity
100
AcDbLine
  8
Drawings - Coupling
 62
256
370
-1
  6
ByLayer
 10
20.7749999999999915
 20
-35.481624999999994
 30
0.0
 11
20.7749999999999915
 21
-21.257624999999976
 31
0.0
  0
LINE
  5
1DC
100
AcDbEntity
100
AcDbLine
  8
Drawings - Coupling
 62
256
370
-1
  6
ByLayer
 10
33.4749999999999801
 20
-35.481624999999994
 30
0.0
 11
33.4749999999999801
 21
-21.257624999999976
 31
0.0
  0
LINE
  5
1DD
100
AcDbEntity
100
AcDbLine
  8
Drawings - Coupling
 62
256
370
-1
  6
ByLayer
 10
20.7749999999999915
 20
-21.257624999999976
 30
0.0
 11
33.4749999999999801
 21
-21.257624999999976
 31
0.0
  0
LINE
  5
1DE
100
AcDbEntity
100
AcDbLine
  8
Drawings - Coupling
 62
256
370
-1
  6
ByLayer
 10
20.7749999999999915
 20
-35.481624999999994
 30
0.0
 11
33.4749999999999801
 21
-35.481624999999994
 31
0.0
  0
LINE
  5
1DF
100
AcDbEntity
100
AcDbLine
  8
Drawings - Coupling
 62
256
370
-1
  6
ByLayer
 10
27.1250000000000142
 20
-21.257624999999976
 30
0.0
 11
27.1250000000000142
 21
-35.481624999999994
 31
0.0
  0
LINE
  5
1E0
100
AcDbEntity
100
AcDbLine
  8
Drawings - Coupling
 62
256
370
-1
  6
ByLayer
 10
20.7749999999999915
 20
-28.3696249999999992
 30
0.0
 11
33.4749999999999801
 21
-28.3696249999999992
 31
0.0
  0
LINE
  5
1E1
100
AcDbEntity
100
AcDbLine
  8
Drawings - Coupling
 62
256
370
-1
  6
ByLayer
 10
25.5400399999999905
 20
-28.3696249999999992
 30
0.0
 11
25.5400399999999905
 21
-35.481624999999994
 31
0.0
  0
LINE
  5
1E2
100
AcDbEntity
100
AcDbLine
  8
Drawings - Coupling
 62
256
370
-1
  6
ByLayer
 10
28.7099600000000379
 20
-28.3696249999999992
 30
0.0
 11
28.7099600000000379
 21
-35.481624999999994
 31
0.0
  0
LINE
  5
1E3
100
AcDbEntity
100
AcDbLine
  8
Drawings - Coupling
 62
256
370
-1
  6
ByLayer
 10
30.2974600000000152
 20
-21.257624999999976
 30
0.0
 11
30.2974600000000152
 21
-28.3696249999999992
 31
0.0
  0
LINE
  5
1E4
100
AcDbEntity
100
AcDbLine
  8
Drawings - Coupling
 62
256
370
-1
  6
ByLayer
 10
23.9525400000000133
 20
-21.257624999999976
 30
0.0
 11
23.9525400000000133
 21
-28.3696249999999992
 31
0.0
  0
LINE
  5
1E5
100
AcDbEntity
100
AcDbLine
  8
Drawings - End Mill
 62
256
370
-1
  6
ByLayer
 10
27.1250000000000142
 20
-66.4696249999999935
 30
0.0
 11
27.1250000000000142
 21
-28.3696249999999992
 31
0.0
  0
LINE
  5
1E6
100
AcDbEntity
100
AcDbLine
  8
Drawings - End Mill
 62
256
370
-1
  6
ByLayer
 10
25.5625000000000142
 20
-28.3696249999999992
 30
0.0
 11
28.6875000000000142
 21
-28.3696249999999992
 31
0.0
  0
LINE
  5
1E7
100
AcDbEntity
100
AcDbLine
  8
Drawings - End Mill
 62
256
370
-1
  6
ByLayer
 10
25.5625000000000142
 20
-63.2946249999999822
 30
0.0
 11
28.6875000000000142
 21
-63.2946249999999822
 31
0.0
  0
LINE
  5
1E8
100
AcDbEntity
100
AcDbLine
  8
Drawings - End Mill
 62
256
370
-1
  6
ByLayer
 10
25.5625000000000142
 20
-63.2946249999999822
 30
0.0
 11
25.5625000000000142
 21
-28.3696249999999992
 31
0.0
  0
LINE
  5
1E9
100
AcDbEntity
100
AcDbLine
  8
Drawings - End Mill
 62
256
370
-1
  6
ByLayer
 10
26.7287600000000154
 20
-66.4696249999999935
 30
0.0
 11
27.521240000000013
 21
-66.4696249999999935
 31
0.0
  0
LINE
  5
1EA
100
AcDbEntity
100
AcDbLine
  8
Drawings - End Mill
 62
256
370
-1
  6
ByLayer
 10
28.6875000000000142
 20
-63.2946249999999822
 30
0.0
 11
28.6875000000000142
 21
-28.3696249999999992
 31
0.0
  0
LINE
  5
1EB
100
AcDbEntity
100
AcDbLine
  8
Drawings - End Mill
 62
256
370
-1
  6
ByLayer
 10
26.7287600000000154
 20
-66.4696249999999935
 30
0.0
 11
26.7287600000000154
 21
-63.2946249999999822
 31
0.0
  0
LINE
  5
1EC
100
AcDbEntity
100
AcDbLine
  8
Drawings - End Mill
 62
256
370
-1
  6
ByLayer
 10
27.521240000000013
 20
-66.4696249999999935
 30
0.0
 11
27.521240000000013
 21
-63.2946249999999822
 31
0.0
  0
INSERT
  5
1ED
100
AcDbEntity
100
AcDbBlockReference
  8
01 - Front
 62
256
370
-1
  6
ByLayer
  2
tcutout-5
 10
104.6249999999999716
 20
-7.815625000000006
 30
0.0
 44
1.0
 45
1.0
  0
INSERT
  5
1EE
100
AcDbEntity
100
AcDbBlockReference
  8
01 - Front
 62
256
370
-1
  6
ByLayer
  2
tcutout-5
 10
184.6249999999999432
 20
-7.815625000000006
 30
0.0
 44
1.0
 45
1.0
  0
INSERT
  5
1EF
100
AcDbEntity
100
AcDbBlockReference
  8
01 - Front
 62
256
370
-1
  6
ByLayer
  2
tcutout-5
 10
262.875
 20
-7.8156250000002601
 30
0.0
 41
1.0
 42
-1.0
 43
1.0
 50
180.0
 44
1.0
 45
1.0
  0
LINE
  5
1F0
100
AcDbEntity
100
AcDbLine
  8
Drawings
 62
256
370
-1
  6
ByLayer
 10
-112.5244999999999607
 20
-7.815625000000006
 30
0.0
 11
330.5
 21
-7.815625000000006
 31
0.0
  0
CIRCLE
  5
1F1
100
AcDbEntity
100
AcDbCircle
  8
02 -Top
 62
256
370
-1
  6
ByLayer
 10
230.0
 20
110.0
 30
0.0
 40
10.3505000000000003
  0
CIRCLE
  5
1F2
100
AcDbEntity
100
AcDbCircle
  8
02 -Top
 62
256
370
-1
  6
ByLayer
 10
218.8383194589703464
 20
98.838319458970318
 30
0.0
 40
1.5
  0
CIRCLE
  5
1F3
100
AcDbEntity
100
AcDbCircle
  8
02 -Top
 62
256
370
-1
  6
ByLayer
 10
241.1616805410296536
 20
98.838319458970318
 30
0.0
 40
1.5
  0
CIRCLE
  5
1F4
100
AcDbEntity
100
AcDbCircle
  8
02 -Top
 62
256
370
-1
  6
ByLayer
 10
241.1616805410296536
 20
121.161680541029682
 30
0.0
 40
1.5
  0
CIRCLE
  5
1F5
100
AcDbEntity
100
AcDbCircle
  8
02 -Top
 62
256
370
-1
  6
ByLayer
 10
218.8383194589703464
 20
121.161680541029682
 30
0.0
 40
1.5
  0
ARC
  5
1F6
100
AcDbEntity
  8
0
 62
256
370
-1
  6
ByLayer
100
AcDbCircle
 10
219.6494999999999891
 20
120.3505000000000109
 30
0.0
 40
10.0
100
AcDbArc
 50
90.0
 51
180.0
  0
LINE
  5
1F7
100
AcDbEntity
100
AcDbLine
  8
0
 62
256
370
-1
  6
ByLayer
 10
219.6494999999999891
 20
130.3505000000000109
 30
0.0
 11
240.3505000000000109
 21
130.3505000000000109
 31
0.0
  0
ARC
  5
1F8
100
AcDbEntity
  8
0
 62
256
370
-1
  6
ByLayer
100
AcDbCircle
 10
240.3505000000000109
 20
120.3505000000000109
 30
0.0
 40
10.0
100
AcDbArc
 50
0.0
 51
90.0
  0
LINE
  5
1F9
100
AcDbEntity
100
AcDbLine
  8
0
 62
256
370
-1
  6
ByLayer
 10
250.3505000000000109
 20
99.6495000000000033
 30
0.0
 11
250.3505000000000109
 21
120.3505000000000109
 31
0.0
  0
ARC
  5
1FA
100
AcDbEntity
  8
0
 62
256
370
-1
  6
ByLayer
100
AcDbCircle
 10
240.3505000000000109
 20
99.6495000000000033
 30
0.0
 40
10.0
100
AcDbArc
 50
270.0
 51
0.0
  0
LINE
  5
1FB
100
AcDbEntity
100
AcDbLine
  8
0
 62
256
370
-1
  6
ByLayer
 10
219.6494999999999891
 20
89.6495000000000033
 30
0.0
 11
240.3505000000000109
 21
89.6495000000000033
 31
0.0
  0
LINE
  5
1FC
100
AcDbEntity
100
AcDbLine
  8
0
 62
256
370
-1
  6
ByLayer
 10
209.6494999999999891
 20
99.6495000000000033
 30
0.0
 11
209.6494999999999891
 21
120.3505000000000109
 31
0.0
  0
ARC
  5
1FD
100
AcDbEntity
  8
0
 62
256
370
-1
  6
ByLayer
100
AcDbCircle
 10
219.6494999999999891
 20
99.6495000000000033
 30
0.0
 40
10.0
100
AcDbArc
 50
180.0
 51
270.0
  0
INSERT
  5
1FE
100
AcDbEntity
100
AcDbBlockReference
  8
01 - Front
 62
256
370
-1
  6
ByLayer
  2
tcutout-5
 10
6.1250000000000018
 20
10.0
 30
0.0
 50
90.0
 44
1.0
 45
1.0
  0
INSERT
  5
1FF
100
AcDbEntity
100
AcDbBlockReference
  8
03 - Left
 62
256
370
-1
  6
ByLayer
  2
tgrips-5
 10
83.6249999999998863
 20
9.9999999999999147
 30
0.0
 41
1.0
 42
-1.0
 43
1.0
 50
270.0
 44
1.0
 45
1.0
  0
INSERT
  5
200
100
AcDbEntity
100
AcDbBlockReference
  8
04 - Right
 62
256
370
-1
  6
ByLayer
  2
tgrips-5
 10
125.6249999999999716
 20
9.9999999999999147
 30
0.0
 41
1.0
 42
-1.0
 43
1.0
 50
89.9999999999999858
 44
1.0
 45
1.0
  0
INSERT
  5
201
100
AcDbEntity
100
AcDbBlockReference
  8
03 - Left
 62
256
370
-1
  6
ByLayer
  2
tgrips-5
 10
163.6249999999998863
 20
9.9999999999999147
 30
0.0
 41
1.0
 42
-1.0
 43
1.0
 50
270.0
 44
1.0
 45
1.0
  0
INSERT
  5
202
100
AcDbEntity
100
AcDbBlockReference
  8
04 - Right
 62
256
370
-1
  6
ByLayer
  2
tgrips-5
 10
205.6249999999999716
 20
9.9999999999999147
 30
0.0
 41
1.0
 42
-1.0
 43
1.0
 50
89.9999999999999858
 44
1.0
 45
1.0
  0
INSERT
  5
203
100
AcDbEntity
100
AcDbBlockReference
  8
01 - Front
 62
256
370
-1
  6
ByLayer
  2
tcutout-5
 10
283.875
 20
9.9999999999999289
 30
0.0
 41
1.0
 42
-1.0
 43
1.0
 50
90.0
 44
1.0
 45
1.0
  0
INSERT
  5
204
100
AcDbEntity
100
AcDbBlockReference
  8
01 - Front
 62
256
370
-1
  6
ByLayer
  2
tcutout-5
 10
48.1250000000000142
 20
9.9999999999999982
 30
0.0
 50
-90.0
 44
1.0
 45
1.0
  0
INSERT
  5
205
100
AcDbEntity
100
AcDbBlockReference
  8
01 - Front
 62
256
370
-1
  6
ByLayer
  2
tcutout-5
 10
241.875
 20
9.9999999999999964
 30
0.0
 41
1.0
 42
-1.0
 43
1.0
 50
270.0
 44
1.0
 45
1.0
  0
LINE
  5
206
100
AcDbEntity
100
AcDbLine
  8
Drawings
 62
256
370
-1
  6
ByLayer
 10
330.5
 20
10.0000000000000053
 30
0.0
 11
-122.375
 21
9.9999999999999929
 31
0.0
  0
LINE
  5
207
100
AcDbEntity
100
AcDbLine
  8
03 - Left
 62
256
370
-1
  6
ByLayer
 10
163.6249999999998863
 20
-0.0000000000000853
 30
0.0
 11
163.6249999999999147
 21
-35.0000000000000284
 31
0.0
  0
LINE
  5
208
100
AcDbEntity
100
AcDbLine
  8
03 - Left
 62
256
370
-1
  6
ByLayer
 10
205.6249999999999716
 20
-0.0000000000000853
 30
0.0
 11
205.6249999999999147
 21
-35.0000000000001137
 31
0.0
  0
LINE
  5
209
100
AcDbEntity
100
AcDbLine
  8
03 - Left
 62
256
370
-1
  6
ByLayer
 10
125.6249999999999716
 20
-0.0000000000000853
 30
0.0
 11
125.6249999999999147
 21
-35.0000000000001137
 31
0.0
  0
LINE
  5
20A
100
AcDbEntity
100
AcDbLine
  8
03 - Left
 62
256
370
-1
  6
ByLayer
 10
83.6249999999998863
 20
-0.0000000000000853
 30
0.0
 11
83.6249999999999147
 21
-35.0000000000000284
 31
0.0
  0
LINE
  5
20B
100
AcDbEntity
100
AcDbLine
  8
03 - Left
 62
256
370
-1
  6
ByLayer
 10
83.6249999999998863
 20
34.9999999999999432
 30
0.0
 11
83.6249999999998863
 21
19.9999999999999147
 31
0.0
  0
LINE
  5
20C
100
AcDbEntity
100
AcDbLine
  8
03 - Left
 62
256
370
-1
  6
ByLayer
 10
125.6249999999999716
 20
34.9999999999999716
 30
0.0
 11
125.6249999999999716
 21
19.9999999999999147
 31
0.0
  0
LINE
  5
20D
100
AcDbEntity
100
AcDbLine
  8
03 - Left
 62
256
370
-1
  6
ByLayer
 10
205.6249999999999716
 20
34.9999999999999716
 30
0.0
 11
205.6249999999999716
 21
19.9999999999999147
 31
0.0
  0
LINE
  5
20E
100
AcDbEntity
100
AcDbLine
  8
03 - Left
 62
256
370
-1
  6
ByLayer
 10
163.6249999999998863
 20
34.9999999999999432
 30
0.0
 11
163.6249999999998863
 21
19.9999999999999147
 31
0.0
  0
LINE
  5
20F
100
AcDbEntity
100
AcDbLine
  8
Drawings
 62
256
370
-1
  6
ByLayer
 10
-42.5000000000000071
 20
41.0
 30
0.0
 11
53.3834948096885782
 21
41.0
 31
0.0
  0
CIRCLE
  5
210
100
AcDbEntity
100
AcDbCircle
  8
Drawings - Kysan 1112016 - Side
 62
256
370
-1
  6
ByLayer
 10
-33.4375
 20
108.5000000000000284
 30
0.0
 40
1.5
  0
CIRCLE
  5
211
100
AcDbEntity
100
AcDbCircle
  8
02 -Top
 62
256
370
-1
  6
ByLayer
 10
-33.4375
 20
108.5
 30
0.0
 40
1.5
  0
CIRCLE
  5
212
100
AcDbEntity
100
AcDbCircle
  8
0
 62
256
370
-1
  6
ByLayer
 10
27.125
 20
9.9999999999999964
 30
0.0
 40
3.25
  0
CIRCLE
  5
213
100
AcDbEntity
100
AcDbCircle
  8
0
 62
256
370
-1
  6
ByLayer
 10
27.1250000000000142
 20
15.9000000000000057
 30
0.0
 40
0.5
  0
CIRCLE
  5
214
100
AcDbEntity
100
AcDbCircle
  8
0
 62
256
370
-1
  6
ByLayer
 10
33.0249999999999773
 20
9.9999999999999964
 30
0.0
 40
0.5
  0
CIRCLE
  5
215
100
AcDbEntity
100
AcDbCircle
  8
0
 62
256
370
-1
  6
ByLayer
 10
27.125
 20
4.099999999999973
 30
0.0
 40
0.5
  0
CIRCLE
  5
216
100
AcDbEntity
100
AcDbCircle
  8
0
 62
256
370
-1
  6
ByLayer
 10
21.2250000000000227
 20
9.9999999999999964
 30
0.0
 40
0.5
  0
CIRCLE
  5
217
100
AcDbEntity
100
AcDbCircle
  8
0
 62
256
370
-1
  6
ByLayer
 10
262.875
 20
10.0000000000000036
 30
0.0
 40
3.25
  0
CIRCLE
  5
218
100
AcDbEntity
100
AcDbCircle
  8
0
 62
256
370
-1
  6
ByLayer
 10
262.875
 20
15.9000000000000128
 30
0.0
 40
0.5
  0
CIRCLE
  5
219
100
AcDbEntity
100
AcDbCircle
  8
0
 62
256
370
-1
  6
ByLayer
 10
268.7749999999999773
 20
10.0000000000000036
 30
0.0
 40
0.5
  0
CIRCLE
  5
21A
100
AcDbEntity
100
AcDbCircle
  8
0
 62
256
370
-1
  6
ByLayer
 10
262.875
 20
4.0999999999999801
 30
0.0
 40
0.5
  0
CIRCLE
  5
21B
100
AcDbEntity
100
AcDbCircle
  8
0
 62
256
370
-1
  6
ByLayer
 10
256.9750000000000227
 20
10.0000000000000036
 30
0.0
 40
0.5
  0
ENDSEC
  0
SECTION
  2
OBJECTS
  0
DICTIONARY
  5
C
100
AcDbDictionary
280
0
281
1
  3
ACAD_GROUP
350
D
  3
ACAD_LAYOUT
350
1A
  3
ACAD_MLINESTYLE
350
17
  3
ACAD_PLOTSETTINGS
350
19
  3
ACAD_PLOTSTYLENAME
350
E
  3
AcDbVariableDictionary
350
21C
  0
DICTIONARY
  5
D
100
AcDbDictionary
280
0
281
1
  0
ACDBDICTIONARYWDFLT
  5
E
100
AcDbDictionary
281
1
  3
Normal
350
F
100
AcDbDictionaryWithDefault
340
F
  0
ACDBPLACEHOLDER
  5
F
  0
DICTIONARY
  5
17
100
AcDbDictionary
280
0
281
1
  3
Standard
350
18
  0
MLINESTYLE
  5
18
100
AcDbMlineStyle
  2
STANDARD
 70
0
  3

 62
256
 51
90.0
 52
90.0
 71
2
 49
0.5
 62
256
  6
BYLAYER
 49
-0.5
 62
256
  6
BYLAYER
  0
DICTIONARY
  5
19
100
AcDbDictionary
280
0
281
1
  0
DICTIONARY
  5
1A
100
AcDbDictionary
281
1
  3
Layout1
350
1E
  3
Layout2
350
26
  3
Model
350
22
  0
LAYOUT
  5
1E
100
AcDbPlotSettings
  1

  2
C:\Program Files\AutoCAD 2002\plotters\DWF ePlot (optimized for plotting).pc3
  4

  6

 40
0.0
 41
0.0
 42
0.0
 43
0.0
 44
0.0
 45
0.0
 46
0.0
 47
0.0
 48
0.0
 49
0.0
140
0.0
141
0.0
142
1.0
143
1.0
 70
688
 72
0
 73
0
 74
5
  7

 75
16
147
1.0
148
0.0
149
0.0
100
AcDbLayout
  1
Layout1
 70
1
 71
1
 10
0.0
 20
0.0
 11
420.0
 21
297.0
 12
0.0
 22
0.0
 32
0.0
 14
100000000000000000000.0
 24
100000000000000000000.0
 34
100000000000000000000.0
 15
-100000000000000000000.0
 25
-100000000000000000000.0
 35
-100000000000000000000.0
146
0.0
 13
0.0
 23
0.0
 33
0.0
 16
1.0
 26
0.0
 36
0.0
 17
0.0
 27
1.0
 37
0.0
 76
0
330
1B
  0
LAYOUT
  5
22
100
AcDbPlotSettings
  1

  2
C:\Program Files\AutoCAD 2002\plotters\DWF ePlot (optimized for plotting).pc3
  4

  6

 40
0.0
 41
0.0
 42
0.0
 43
0.0
 44
0.0
 45
0.0
 46
0.0
 47
0.0
 48
0.0
 49
0.0
140
0.0
141
0.0
142
1.0
143
1.0
 70
1712
 72
0
 73
0
 74
0
  7

 75
0
147
1.0
148
0.0
149
0.0
100
AcDbLayout
  1
Model
 70
1
 71
0
 10
0.0
 20
0.0
 11
12.0
 21
9.0
 12
0.0
 22
0.0
 32
0.0
 14
0.0
 24
0.0
 34
0.0
 15
0.0
 25
0.0
 35
0.0
146
0.0
 13
0.0
 23
0.0
 33
0.0
 16
1.0
 26
0.0
 36
0.0
 17
0.0
 27
1.0
 37
0.0
 76
0
330
1F
  0
LAYOUT
  5
26
100
AcDbPlotSettings
  1

  2
C:\Program Files\AutoCAD 2002\plotters\DWF ePlot (optimized for plotting).pc3
  4

  6

 40
0.0
 41
0.0
 42
0.0
 43
0.0
 44
0.0
 45
0.0
 46
0.0
 47
0.0
 48
0.0
 49
0.0
140
0.0
141
0.0
142
1.0
143
1.0
 70
688
 72
0
 73
0
 74
5
  7

 75
16
147
1.0
148
0.0
149
0.0
100
AcDbLayout
  1
Layout2
 70
1
 71
2
 10
0.0
 20
0.0
 11
12.0
 21
9.0
 12
0.0
 22
0.0
 32
0.0
 14
0.0
 24
0.0
 34
0.0
 15
0.0
 25
0.0
 35
0.0
146
0.0
 13
0.0
 23
0.0
 33
0.0
 16
1.0
 26
0.0
 36
0.0
 17
0.0
 27
1.0
 37
0.0
 76
0
330
23
  0
DICTIONARY
  5
21C
100
AcDbDictionary
281
1
  3
DIMASSOC
350
21E
  3
HIDETEXT
350
21D
  0
DICTIONARYVAR
  5
21D
100
DictionaryVariables
280
0
  1
2
  0
DICTIONARYVAR
  5
21E
100
DictionaryVariables
280
0
  1
1
  0
ENDSEC
  0
EOF
