<?xml version="1.0" standalone="yes"?>

<svg width="131mm" height="77mm" viewBox="0 0 131 77" version="1.1"
xmlns="http://www.w3.org/2000/svg" style="stroke-linecap:round">
  <ellipse cx="113" cy="17" rx="2.23607" ry="2.23607" style="stroke:rgb(0,0,0);stroke-width:0.1;fill:none;"/>
  <ellipse cx="70" cy="17" rx="2.23607" ry="2.23607" style="stroke:rgb(0,0,0);stroke-width:0.1;fill:none;"/>
  <ellipse cx="70" cy="60" rx="2.23607" ry="2.23607" style="stroke:rgb(0,0,0);stroke-width:0.1;fill:none;"/>
  <ellipse cx="113" cy="60" rx="2.23607" ry="2.23607" style="stroke:rgb(0,0,0);stroke-width:0.1;fill:none;"/>
  <ellipse cx="59" cy="6" rx="2.23607" ry="2.23607" style="stroke:rgb(0,0,0);stroke-width:0.1;fill:none;"/>
  <ellipse cx="124" cy="6" rx="2.23607" ry="2.23607" style="stroke:rgb(0,0,0);stroke-width:0.1;fill:none;"/>
  <ellipse cx="124" cy="71" rx="2.23607" ry="2.23607" style="stroke:rgb(0,0,0);stroke-width:0.1;fill:none;"/>
  <ellipse cx="59" cy="71" rx="2.23607" ry="2.23607" style="stroke:rgb(0,0,0);stroke-width:0.1;fill:none;"/>
  <path d="M54,76 L129,76" style="stroke:rgb(0,0,0);stroke-width:0.1;fill:none" />
  <path d="M129,76 L129,1" style="stroke:rgb(0,0,0);stroke-width:0.1;fill:none" />
  <path d="M129,1 L54,1" style="stroke:rgb(0,0,0);stroke-width:0.1;fill:none" />
  <path d="M54,1 L54,76" style="stroke:rgb(0,0,0);stroke-width:0.1;fill:none" />
  <path d="M99,6 L120,6" style="stroke:rgb(0,0,0);stroke-width:0.1;fill:none" />
  <path d="M120,6 L120,12" style="stroke:rgb(0,0,0);stroke-width:0.1;fill:none" />
  <path d="M120,12 L99,12" style="stroke:rgb(0,0,0);stroke-width:0.1;fill:none" />
  <path d="M99,12 L99,6" style="stroke:rgb(0,0,0);stroke-width:0.1;fill:none" />
  <path d="M59,67 L65,67" style="stroke:rgb(0,0,0);stroke-width:0.1;fill:none" />
  <path d="M59,32 L59,67" style="stroke:rgb(0,0,0);stroke-width:0.1;fill:none" />
  <path d="M65,32 L59,32" style="stroke:rgb(0,0,0);stroke-width:0.1;fill:none" />
  <path d="M65,67 L65,32" style="stroke:rgb(0,0,0);stroke-width:0.1;fill:none" />
  <ellipse cx="2.61803" cy="54.882" rx="2.23607" ry="2.23607" style="stroke:rgb(0,0,0);stroke-width:0.1;fill:none;"/>
  <path d="M76,71 L76,65" style="stroke:rgb(0,0,0);stroke-width:0.1;fill:none" />
  <path d="M76,65 L87,65" style="stroke:rgb(0,0,0);stroke-width:0.1;fill:none" />
  <path d="M103,71 L76,71" style="stroke:rgb(0,0,0);stroke-width:0.1;fill:none" />
  <path d="M103,71 L103,68" style="stroke:rgb(0,0,0);stroke-width:0.1;fill:none" />
  <path d="M87,65 L87,68" style="stroke:rgb(0,0,0);stroke-width:0.1;fill:none" />
  <path d="M103,68 L87,68" style="stroke:rgb(0,0,0);stroke-width:0.1;fill:none" />
  <path d="M58.3889,34.3611 L58.3889,33.8056" style="stroke:rgb(255,0,0);stroke-width:0.1;fill:none" />
  <path d="M58.3889,33.8056 A0.555556,0.555556 0 0,0 57.8333,33.25 " style="stroke:rgb(255,0,0);stroke-width:0.1;fill:none" />
  <path d="M57.8333,33.25 L56.4444,33.25" style="stroke:rgb(255,0,0);stroke-width:0.1;fill:none" />
  <path d="M56.4444,33.25 A0.555556,0.555556 0 0,0 55.8889,33.8056 " style="stroke:rgb(255,0,0);stroke-width:0.1;fill:none" />
  <path d="M55.8889,33.8056 L55.8889,34.3611" style="stroke:rgb(255,0,0);stroke-width:0.1;fill:none" />
  <path d="M57,35.1944 L57,36.3056" style="stroke:rgb(255,0,0);stroke-width:0.1;fill:none" />
  <path d="M58.3889,40.125 L58.3889,39.5694" style="stroke:rgb(255,0,0);stroke-width:0.1;fill:none" />
  <path d="M58.3889,39.5694 A0.555556,0.555556 0 0,0 57.8333,39.0139 " style="stroke:rgb(255,0,0);stroke-width:0.1;fill:none" />
  <path d="M57.8333,39.0139 L56.4444,39.0139" style="stroke:rgb(255,0,0);stroke-width:0.1;fill:none" />
  <path d="M56.4444,39.0139 A0.555556,0.555556 0 0,0 55.8889,39.5694 " style="stroke:rgb(255,0,0);stroke-width:0.1;fill:none" />
  <path d="M55.8889,39.5694 L55.8889,40.125" style="stroke:rgb(255,0,0);stroke-width:0.1;fill:none" />
  <path d="M57,40.9583 L57,42.0694" style="stroke:rgb(255,0,0);stroke-width:0.1;fill:none" />
  <path d="M57.5556,41.5139 L56.4444,41.5139" style="stroke:rgb(255,0,0);stroke-width:0.1;fill:none" />
  <path d="M55.8889,44.7778 L58.3889,44.7778" style="stroke:rgb(255,0,0);stroke-width:0.1;fill:none" />
  <path d="M58.3889,44.7778 L58.3889,45.4722" style="stroke:rgb(255,0,0);stroke-width:0.1;fill:none" />
  <path d="M57.2778,45.4722 A0.555556,0.555556 0 0,0 58.3889,45.4722 " style="stroke:rgb(255,0,0);stroke-width:0.1;fill:none" />
  <path d="M57.2778,44.7778 L57.2778,45.5" style="stroke:rgb(255,0,0);stroke-width:0.1;fill:none" />
  <path d="M56.6111,46.1667 A0.666667,0.666667 0 0,0 57.2778,45.5 " style="stroke:rgb(255,0,0);stroke-width:0.1;fill:none" />
  <path d="M56.6111,46.1667 L56.5556,46.1667" style="stroke:rgb(255,0,0);stroke-width:0.1;fill:none" />
  <path d="M55.8889,45.5 A0.666667,0.666667 0 0,0 56.5556,46.1667 " style="stroke:rgb(255,0,0);stroke-width:0.1;fill:none" />
  <path d="M55.8889,45.5 L55.8889,44.7778" style="stroke:rgb(255,0,0);stroke-width:0.1;fill:none" />
  <path d="M57,47 L57,48.1111" style="stroke:rgb(255,0,0);stroke-width:0.1;fill:none" />
  <path d="M55.8889,50.8194 L58.3889,50.8194" style="stroke:rgb(255,0,0);stroke-width:0.1;fill:none" />
  <path d="M58.3889,50.8194 L58.3889,51.5139" style="stroke:rgb(255,0,0);stroke-width:0.1;fill:none" />
  <path d="M57.2778,51.5139 A0.555556,0.555556 0 0,0 58.3889,51.5139 " style="stroke:rgb(255,0,0);stroke-width:0.1;fill:none" />
  <path d="M57.2778,50.8194 L57.2778,51.5417" style="stroke:rgb(255,0,0);stroke-width:0.1;fill:none" />
  <path d="M56.6111,52.2083 A0.666667,0.666667 0 0,0 57.2778,51.5417 " style="stroke:rgb(255,0,0);stroke-width:0.1;fill:none" />
  <path d="M56.6111,52.2083 L56.5556,52.2083" style="stroke:rgb(255,0,0);stroke-width:0.1;fill:none" />
  <path d="M55.8889,51.5417 A0.666667,0.666667 0 0,0 56.5556,52.2083 " style="stroke:rgb(255,0,0);stroke-width:0.1;fill:none" />
  <path d="M55.8889,51.5417 L55.8889,50.8194" style="stroke:rgb(255,0,0);stroke-width:0.1;fill:none" />
  <path d="M57,53.0417 L57,54.1528" style="stroke:rgb(255,0,0);stroke-width:0.1;fill:none" />
  <path d="M57.5556,53.5972 L56.4444,53.5972" style="stroke:rgb(255,0,0);stroke-width:0.1;fill:none" />
  <path d="M55.8889,56.8611 L58.3889,57.6944" style="stroke:rgb(255,0,0);stroke-width:0.1;fill:none" />
  <path d="M58.3889,57.6944 L55.8889,58.5278" style="stroke:rgb(255,0,0);stroke-width:0.1;fill:none" />
  <path d="M56.5833,57.0926 L56.5833,58.2963" style="stroke:rgb(255,0,0);stroke-width:0.1;fill:none" />
  <path d="M57,59.3611 L57,60.4722" style="stroke:rgb(255,0,0);stroke-width:0.1;fill:none" />
  <path d="M55.8889,63.1806 L58.3889,64.0139" style="stroke:rgb(255,0,0);stroke-width:0.1;fill:none" />
  <path d="M58.3889,64.0139 L55.8889,64.8472" style="stroke:rgb(255,0,0);stroke-width:0.1;fill:none" />
  <path d="M56.5833,63.412 L56.5833,64.6157" style="stroke:rgb(255,0,0);stroke-width:0.1;fill:none" />
  <path d="M57,65.6806 L57,66.7917" style="stroke:rgb(255,0,0);stroke-width:0.1;fill:none" />
  <path d="M57.5556,66.2361 L56.4444,66.2361" style="stroke:rgb(255,0,0);stroke-width:0.1;fill:none" />
  <path d="M71.8889,72 L73.2222,72" style="stroke:rgb(255,0,0);stroke-width:0.1;fill:none" />
  <path d="M72.5556,72 L72.5556,74" style="stroke:rgb(255,0,0);stroke-width:0.1;fill:none" />
  <path d="M73.8889,72 L73.8889,74" style="stroke:rgb(255,0,0);stroke-width:0.1;fill:none" />
  <path d="M73.8889,72.6667 L74.4444,72.6667" style="stroke:rgb(255,0,0);stroke-width:0.1;fill:none" />
  <path d="M74.7778,73 A0.333333,0.333333 0 0,0 74.4444,72.6667 " style="stroke:rgb(255,0,0);stroke-width:0.1;fill:none" />
  <path d="M74.7778,73 L74.7778,74" style="stroke:rgb(255,0,0);stroke-width:0.1;fill:none" />
  <path d="M75.4444,73.3333 L76.3333,73.3333" style="stroke:rgb(255,0,0);stroke-width:0.1;fill:none" />
  <path d="M76.3333,73.3333 L76.3333,73.1111" style="stroke:rgb(255,0,0);stroke-width:0.1;fill:none" />
  <path d="M76.3333,73.1111 A0.444444,0.444444 0 0,0 75.4444,73.1111 " style="stroke:rgb(255,0,0);stroke-width:0.1;fill:none" />
  <path d="M75.4444,73.1111 L75.4444,73.6667" style="stroke:rgb(255,0,0);stroke-width:0.1;fill:none" />
  <path d="M75.4444,73.6667 A0.333333,0.333333 0 0,0 75.7778,74 " style="stroke:rgb(255,0,0);stroke-width:0.1;fill:none" />
  <path d="M75.7778,74 L76.3333,74" style="stroke:rgb(255,0,0);stroke-width:0.1;fill:none" />
  <path d="M77,74 L77,72.6667" style="stroke:rgb(255,0,0);stroke-width:0.1;fill:none" />
  <path d="M77,72.6667 L77.4444,72.6667" style="stroke:rgb(255,0,0);stroke-width:0.1;fill:none" />
  <path d="M77.6667,72.8889 A0.222222,0.222222 0 0,0 77.4444,72.6667 " style="stroke:rgb(255,0,0);stroke-width:0.1;fill:none" />
  <path d="M78.3333,74 L78.3333,72.6667" style="stroke:rgb(255,0,0);stroke-width:0.1;fill:none" />
  <path d="M78.3333,72.6667 L79.3333,72.6667" style="stroke:rgb(255,0,0);stroke-width:0.1;fill:none" />
  <path d="M79.6667,73 A0.333333,0.333333 0 0,0 79.3333,72.6667 " style="stroke:rgb(255,0,0);stroke-width:0.1;fill:none" />
  <path d="M79.6667,73 L79.6667,74" style="stroke:rgb(255,0,0);stroke-width:0.1;fill:none" />
  <path d="M79,72.6667 L79,74" style="stroke:rgb(255,0,0);stroke-width:0.1;fill:none" />
  <path d="M80.3333,74 L80.3333,72.6667" style="stroke:rgb(255,0,0);stroke-width:0.1;fill:none" />
  <path d="M80.3333,72.1111 L80.3333,72" style="stroke:rgb(255,0,0);stroke-width:0.1;fill:none" />
  <path d="M81.8889,72.7913 A0.901622,0.901622 0 0,0 81.1982,72.7392 " style="stroke:rgb(255,0,0);stroke-width:0.1;fill:none" />
  <path d="M81.1982,72.7392 A0.266667,0.266667 0 0,0 81.181,73.2393 " style="stroke:rgb(255,0,0);stroke-width:0.1;fill:none" />
  <path d="M81.181,73.2393 L81.7079,73.4544" style="stroke:rgb(255,0,0);stroke-width:0.1;fill:none" />
  <path d="M81.6907,73.9545 A0.266664,0.266664 0 0,0 81.7079,73.4544 " style="stroke:rgb(255,0,0);stroke-width:0.1;fill:none" />
  <path d="M81,73.9024 A0.901627,0.901627 0 0,0 81.6907,73.9545 " style="stroke:rgb(255,0,0);stroke-width:0.1;fill:none" />
  <path d="M82.5556,72.6667 L83.2222,72.6667" style="stroke:rgb(255,0,0);stroke-width:0.1;fill:none" />
  <path d="M82.7778,72 L82.7778,74" style="stroke:rgb(255,0,0);stroke-width:0.1;fill:none" />
  <path d="M83.8889,73.1111 L83.8889,73.5556" style="stroke:rgb(255,0,0);stroke-width:0.1;fill:none" />
  <path d="M83.8889,73.5556 A0.444444,0.444444 0 0,0 84.7778,73.5556 " style="stroke:rgb(255,0,0);stroke-width:0.1;fill:none" />
  <path d="M84.7778,73.5556 L84.7778,73.1111" style="stroke:rgb(255,0,0);stroke-width:0.1;fill:none" />
  <path d="M84.7778,73.1111 A0.444444,0.444444 0 0,0 83.8889,73.1111 " style="stroke:rgb(255,0,0);stroke-width:0.1;fill:none" />
  <path d="M85.4444,74 L85.4444,72.6667" style="stroke:rgb(255,0,0);stroke-width:0.1;fill:none" />
  <path d="M85.4444,72.6667 L85.8889,72.6667" style="stroke:rgb(255,0,0);stroke-width:0.1;fill:none" />
  <path d="M86.1111,72.8889 A0.222222,0.222222 0 0,0 85.8889,72.6667 " style="stroke:rgb(255,0,0);stroke-width:0.1;fill:none" />
  <path d="M100.639,71.8611 L99.9722,71.8611" style="stroke:rgb(255,0,0);stroke-width:0.1;fill:none" />
  <path d="M99.9722,71.8611 A0.444444,0.444444 0 0,0 99.5278,72.3056 " style="stroke:rgb(255,0,0);stroke-width:0.1;fill:none" />
  <path d="M99.5278,72.3056 L99.5278,73.4167" style="stroke:rgb(255,0,0);stroke-width:0.1;fill:none" />
  <path d="M99.5278,73.4167 A0.444444,0.444444 0 0,0 99.9722,73.8611 " style="stroke:rgb(255,0,0);stroke-width:0.1;fill:none" />
  <path d="M99.9722,73.8611 L100.639,73.8611" style="stroke:rgb(255,0,0);stroke-width:0.1;fill:none" />
  <path d="M100.639,73.8611 L100.639,72.75" style="stroke:rgb(255,0,0);stroke-width:0.1;fill:none" />
  <path d="M100.639,72.75 L100.306,72.75" style="stroke:rgb(255,0,0);stroke-width:0.1;fill:none" />
  <path d="M101.306,73.8611 L101.306,71.8611" style="stroke:rgb(255,0,0);stroke-width:0.1;fill:none" />
  <path d="M101.306,71.8611 L101.972,71.8611" style="stroke:rgb(255,0,0);stroke-width:0.1;fill:none" />
  <path d="M102.417,72.3056 A0.444444,0.444444 0 0,0 101.972,71.8611 " style="stroke:rgb(255,0,0);stroke-width:0.1;fill:none" />
  <path d="M102.417,72.3056 L102.417,72.5278" style="stroke:rgb(255,0,0);stroke-width:0.1;fill:none" />
  <path d="M101.972,72.9722 A0.444444,0.444444 0 0,0 102.417,72.5278 " style="stroke:rgb(255,0,0);stroke-width:0.1;fill:none" />
  <path d="M101.972,72.9722 L101.306,72.9722" style="stroke:rgb(255,0,0);stroke-width:0.1;fill:none" />
  <path d="M101.972,72.9722 L102.417,73.8611" style="stroke:rgb(255,0,0);stroke-width:0.1;fill:none" />
  <path d="M103.083,73.8611 L103.083,71.8611" style="stroke:rgb(255,0,0);stroke-width:0.1;fill:none" />
  <path d="M103.083,71.8611 L104.194,73.8611" style="stroke:rgb(255,0,0);stroke-width:0.1;fill:none" />
  <path d="M104.194,73.8611 L104.194,71.8611" style="stroke:rgb(255,0,0);stroke-width:0.1;fill:none" />
  <path d="M88.7778,74 L88.7778,72" style="stroke:rgb(255,0,0);stroke-width:0.1;fill:none" />
  <path d="M88.7778,72 L89.3333,72" style="stroke:rgb(255,0,0);stroke-width:0.1;fill:none" />
  <path d="M89.3333,72.8889 A0.444444,0.444444 0 1,0 89.3333,72 " style="stroke:rgb(255,0,0);stroke-width:0.1;fill:none" />
  <path d="M88.7778,72.8889 L89.3556,72.8889" style="stroke:rgb(255,0,0);stroke-width:0.1;fill:none" />
  <path d="M89.8889,73.4222 A0.533333,0.533333 0 0,0 89.3556,72.8889 " style="stroke:rgb(255,0,0);stroke-width:0.1;fill:none" />
  <path d="M89.8889,73.4222 L89.8889,73.4667" style="stroke:rgb(255,0,0);stroke-width:0.1;fill:none" />
  <path d="M89.3556,74 A0.533333,0.533333 0 0,0 89.8889,73.4667 " style="stroke:rgb(255,0,0);stroke-width:0.1;fill:none" />
  <path d="M89.3556,74 L88.7778,74" style="stroke:rgb(255,0,0);stroke-width:0.1;fill:none" />
  <path d="M90.5556,72 L90.5556,74" style="stroke:rgb(255,0,0);stroke-width:0.1;fill:none" />
  <path d="M90.5556,74 L91.4444,74" style="stroke:rgb(255,0,0);stroke-width:0.1;fill:none" />
  <path d="M92.1111,72 L92.1111,74" style="stroke:rgb(255,0,0);stroke-width:0.1;fill:none" />
  <path d="M92.1111,73.2222 L93.2222,72" style="stroke:rgb(255,0,0);stroke-width:0.1;fill:none" />
  <path d="M92.4825,72.8137 L93.2222,74" style="stroke:rgb(255,0,0);stroke-width:0.1;fill:none" />
  <path d="M119.451,4.69444 L118.896,5.25" style="stroke:rgb(255,0,0);stroke-width:0.1;fill:none" />
  <path d="M118.896,5.25 L118.896,2.75" style="stroke:rgb(255,0,0);stroke-width:0.1;fill:none" />
  <path d="M118.062,2.75 L117.229,5.25" style="stroke:rgb(255,0,0);stroke-width:0.1;fill:none" />
  <path d="M117.229,5.25 L116.396,2.75" style="stroke:rgb(255,0,0);stroke-width:0.1;fill:none" />
  <path d="M117.831,3.44444 L116.627,3.44444" style="stroke:rgb(255,0,0);stroke-width:0.1;fill:none" />
  <path d="M113.688,4.69444 L113.132,5.25" style="stroke:rgb(255,0,0);stroke-width:0.1;fill:none" />
  <path d="M113.132,5.25 L113.132,2.75" style="stroke:rgb(255,0,0);stroke-width:0.1;fill:none" />
  <path d="M112.299,2.75 L112.299,5.25" style="stroke:rgb(255,0,0);stroke-width:0.1;fill:none" />
  <path d="M112.299,5.25 L111.604,5.25" style="stroke:rgb(255,0,0);stroke-width:0.1;fill:none" />
  <path d="M111.604,4.13889 A0.555556,0.555556 0 0,0 111.604,5.25 " style="stroke:rgb(255,0,0);stroke-width:0.1;fill:none" />
  <path d="M112.299,4.13889 L111.576,4.13889" style="stroke:rgb(255,0,0);stroke-width:0.1;fill:none" />
  <path d="M110.91,3.47222 A0.666667,0.666667 0 0,0 111.576,4.13889 " style="stroke:rgb(255,0,0);stroke-width:0.1;fill:none" />
  <path d="M110.91,3.47222 L110.91,3.41667" style="stroke:rgb(255,0,0);stroke-width:0.1;fill:none" />
  <path d="M111.576,2.75 A0.666667,0.666667 0 0,0 110.91,3.41667 " style="stroke:rgb(255,0,0);stroke-width:0.1;fill:none" />
  <path d="M111.576,2.75 L112.299,2.75" style="stroke:rgb(255,0,0);stroke-width:0.1;fill:none" />
  <path d="M107.09,2.75 L108.201,2.75" style="stroke:rgb(255,0,0);stroke-width:0.1;fill:none" />
  <path d="M108.201,2.75 L107.128,4.5963" style="stroke:rgb(255,0,0);stroke-width:0.1;fill:none" />
  <path d="M107.128,4.5963 A0.277778,0.277778 0 0,0 107.108,4.83333 " style="stroke:rgb(255,0,0);stroke-width:0.1;fill:none" />
  <path d="M107.108,4.83333 A0.555556,0.555556 0 0,0 108.184,4.83334 " style="stroke:rgb(255,0,0);stroke-width:0.1;fill:none" />
  <path d="M106.257,2.75 L105.424,5.25" style="stroke:rgb(255,0,0);stroke-width:0.1;fill:none" />
  <path d="M105.424,5.25 L104.59,2.75" style="stroke:rgb(255,0,0);stroke-width:0.1;fill:none" />
  <path d="M106.025,3.44444 L104.822,3.44444" style="stroke:rgb(255,0,0);stroke-width:0.1;fill:none" />
  <path d="M100.771,2.75 L101.882,2.75" style="stroke:rgb(255,0,0);stroke-width:0.1;fill:none" />
  <path d="M101.882,2.75 L100.808,4.5963" style="stroke:rgb(255,0,0);stroke-width:0.1;fill:none" />
  <path d="M100.808,4.5963 A0.277778,0.277778 0 0,0 100.788,4.83333 " style="stroke:rgb(255,0,0);stroke-width:0.1;fill:none" />
  <path d="M100.788,4.83333 A0.555556,0.555556 0 0,0 101.864,4.83334 " style="stroke:rgb(255,0,0);stroke-width:0.1;fill:none" />
  <path d="M99.9375,2.75 L99.9375,5.25" style="stroke:rgb(255,0,0);stroke-width:0.1;fill:none" />
  <path d="M99.9375,5.25 L99.2431,5.25" style="stroke:rgb(255,0,0);stroke-width:0.1;fill:none" />
  <path d="M99.2431,4.13889 A0.555556,0.555556 0 0,0 99.2431,5.25 " style="stroke:rgb(255,0,0);stroke-width:0.1;fill:none" />
  <path d="M99.9375,4.13889 L99.2153,4.13889" style="stroke:rgb(255,0,0);stroke-width:0.1;fill:none" />
  <path d="M98.5486,3.47222 A0.666667,0.666667 0 0,0 99.2153,4.13889 " style="stroke:rgb(255,0,0);stroke-width:0.1;fill:none" />
  <path d="M98.5486,3.47222 L98.5486,3.41667" style="stroke:rgb(255,0,0);stroke-width:0.1;fill:none" />
  <path d="M99.2153,2.75 A0.666667,0.666667 0 0,0 98.5486,3.41667 " style="stroke:rgb(255,0,0);stroke-width:0.1;fill:none" />
  <path d="M99.2153,2.75 L99.9375,2.75" style="stroke:rgb(255,0,0);stroke-width:0.1;fill:none" />
  <path d="M75,22 L108,22" style="stroke:rgb(0,0,0);stroke-width:0.1;fill:none" />
  <path d="M108,22 L108,55" style="stroke:rgb(0,0,0);stroke-width:0.1;fill:none" />
  <path d="M108,55 L75,55" style="stroke:rgb(0,0,0);stroke-width:0.1;fill:none" />
  <path d="M75,55 L75,22" style="stroke:rgb(0,0,0);stroke-width:0.1;fill:none" />
</svg>
