<?xml version="1.0" standalone="yes"?>

<svg width="78mm" height="78mm" viewBox="0 0 78 78" version="1.1"
xmlns="http://www.w3.org/2000/svg" style="stroke-linecap:round">
  <ellipse cx="17.5" cy="17.5" rx="1.5" ry="1.5" style="stroke:rgb(0,0,0);stroke-width:0.1;fill:none;"/>
  <ellipse cx="60.5" cy="17.5" rx="1.5" ry="1.5" style="stroke:rgb(0,0,0);stroke-width:0.1;fill:none;"/>
  <ellipse cx="60.5" cy="60.5" rx="1.5" ry="1.5" style="stroke:rgb(0,0,0);stroke-width:0.1;fill:none;"/>
  <ellipse cx="17.5" cy="60.5" rx="1.5" ry="1.5" style="stroke:rgb(0,0,0);stroke-width:0.1;fill:none;"/>
  <ellipse cx="39" cy="5.76598" rx="1.5" ry="1.5" style="stroke:rgb(0,0,0);stroke-width:0.1;fill:none;"/>
  <ellipse cx="5.76598" cy="39" rx="1.5" ry="1.5" style="stroke:rgb(0,0,0);stroke-width:0.1;fill:none;"/>
  <ellipse cx="39" cy="72.234" rx="1.5" ry="1.5" style="stroke:rgb(0,0,0);stroke-width:0.1;fill:none;"/>
  <ellipse cx="72.234" cy="39" rx="1.5" ry="1.5" style="stroke:rgb(0,0,0);stroke-width:0.1;fill:none;"/>
  <path d="M39,1 L12.1299,12.1299" style="stroke:rgb(0,0,0);stroke-width:0.1;fill:none" />
  <path d="M12.1299,12.1299 L1,39" style="stroke:rgb(0,0,0);stroke-width:0.1;fill:none" />
  <path d="M1,39 L12.1299,65.8701" style="stroke:rgb(0,0,0);stroke-width:0.1;fill:none" />
  <path d="M12.1299,65.8701 L39,77" style="stroke:rgb(0,0,0);stroke-width:0.1;fill:none" />
  <path d="M39,77 L65.8701,65.8701" style="stroke:rgb(0,0,0);stroke-width:0.1;fill:none" />
  <path d="M65.8701,65.8701 L77,39" style="stroke:rgb(0,0,0);stroke-width:0.1;fill:none" />
  <path d="M77,39 L65.8701,12.1299" style="stroke:rgb(0,0,0);stroke-width:0.1;fill:none" />
  <path d="M65.8701,12.1299 L39,1" style="stroke:rgb(0,0,0);stroke-width:0.1;fill:none" />
  <path d="M57,21 L39,13.5442" style="stroke:rgb(0,0,0);stroke-width:0.1;fill:none" />
  <path d="M39,13.5442 L21,21" style="stroke:rgb(0,0,0);stroke-width:0.1;fill:none" />
  <path d="M21,21 L13.5442,39" style="stroke:rgb(0,0,0);stroke-width:0.1;fill:none" />
  <path d="M13.5442,39 L21,57" style="stroke:rgb(0,0,0);stroke-width:0.1;fill:none" />
  <path d="M21,57 L39,64.4558" style="stroke:rgb(0,0,0);stroke-width:0.1;fill:none" />
  <path d="M39,64.4558 L57,57" style="stroke:rgb(0,0,0);stroke-width:0.1;fill:none" />
  <path d="M57,57 L64.4558,39" style="stroke:rgb(0,0,0);stroke-width:0.1;fill:none" />
  <path d="M64.4558,39 L57,21" style="stroke:rgb(0,0,0);stroke-width:0.1;fill:none" />
</svg>
