999
dxflib 2.2.0.0
  0
SECTION
  2
HEADER
  9
$ACADVER
  1
AC1015
  9
$HANDSEED
  5
FFFF
  9
$DIMASZ
 40
2.5
  9
$PLIMMIN
 10
0.0
 20
0.0
  9
$DIMEXE
 40
1.25
  9
$DIMGAP
 40
0.625
  9
$PLIMMAX
 10
210.0
 20
297.0
  9
$INSUNITS
 70
4
  9
$DIMSTYLE
  2
Standard
  9
$CLAYER
  8
text
  9
$DIMEXO
 40
0.625
  9
$DIMTXT
 40
2.5
  9
$CLAYER
  8
text
  0
ENDSEC
  0
SECTION
  2
TABLES
  0
TABLE
  2
VPORT
  5
8
100
AcDbSymbolTable
 70
1
  0
VPORT
  5
30
100
AcDbSymbolTableRecord
100
AcDbViewportTableRecord
  2
*Active
 70
0
 10
0.0
 20
0.0
 11
1.0
 21
1.0
 12
286.3055555555554861
 22
148.5
 13
0.0
 23
0.0
 14
10.0
 24
10.0
 15
10.0
 25
10.0
 16
0.0
 26
0.0
 36
1.0
 17
0.0
 27
0.0
 37
0.0
 40
297.0
 41
1.92798353909465
 42
50.0
 43
0.0
 44
0.0
 50
0.0
 51
0.0
 71
0
 72
100
 73
1
 74
3
 75
1
 76
1
 77
0
 78
0
281
0
 65
1
110
0.0
120
0.0
130
0.0
111
1.0
121
0.0
131
0.0
112
0.0
122
1.0
132
0.0
 79
0
146
0.0
  0
ENDTAB
  0
TABLE
  2
LTYPE
  5
5
100
AcDbSymbolTable
 70
21
  0
LTYPE
  5
14
100
AcDbSymbolTableRecord
100
AcDbLinetypeTableRecord
  2
ByBlock
 70
0
  3

 72
65
 73
0
 40
0.0
  0
LTYPE
  5
15
100
AcDbSymbolTableRecord
100
AcDbLinetypeTableRecord
  2
ByLayer
 70
0
  3

 72
65
 73
0
 40
0.0
  0
LTYPE
  5
16
100
AcDbSymbolTableRecord
100
AcDbLinetypeTableRecord
  2
CONTINUOUS
 70
0
  3
Solid line
 72
65
 73
0
 40
0.0
  0
LTYPE
  5
31
100
AcDbSymbolTableRecord
100
AcDbLinetypeTableRecord
  2
DOT
 70
0
  3
Dot . . . . . . . . . . . . . . . . . . . . . .
 72
65
 73
2
 40
6.3499999999999996
 49
0.0
 74
0
 49
-6.3499999999999996
 74
0
  0
LTYPE
  5
32
100
AcDbSymbolTableRecord
100
AcDbLinetypeTableRecord
  2
DOT2
 70
0
  3
Dot (.5x) .....................................
 72
65
 73
2
 40
3.1749999999999998
 49
0.0
 74
0
 49
-3.1749999999999998
 74
0
  0
LTYPE
  5
33
100
AcDbSymbolTableRecord
100
AcDbLinetypeTableRecord
  2
DOTX2
 70
0
  3
Dot (2x) .  .  .  .  .  .  .  .  .  .  .  .  .
 72
65
 73
2
 40
12.6999999999999993
 49
0.0
 74
0
 49
-12.6999999999999993
 74
0
  0
LTYPE
  5
34
100
AcDbSymbolTableRecord
100
AcDbLinetypeTableRecord
  2
DASHED
 70
0
  3
Dashed __ __ __ __ __ __ __ __ __ __ __ __ __ _
 72
65
 73
2
 40
19.0500000000000007
 49
12.6999999999999993
 74
0
 49
-6.3499999999999996
 74
0
  0
LTYPE
  5
35
100
AcDbSymbolTableRecord
100
AcDbLinetypeTableRecord
  2
DASHED2
 70
0
  3
Dashed (.5x) _ _ _ _ _ _ _ _ _ _ _ _ _ _ _ _ _
 72
65
 73
2
 40
9.5250000000000004
 49
6.3499999999999996
 74
0
 49
-3.1749999999999998
 74
0
  0
LTYPE
  5
36
100
AcDbSymbolTableRecord
100
AcDbLinetypeTableRecord
  2
DASHEDX2
 70
0
  3
Dashed (2x) ____  ____  ____  ____  ____  ___
 72
65
 73
2
 40
38.1000000000000014
 49
25.3999999999999986
 74
0
 49
-12.6999999999999993
 74
0
  0
LTYPE
  5
37
100
AcDbSymbolTableRecord
100
AcDbLinetypeTableRecord
  2
DASHDOT
 70
0
  3
Dash dot __ . __ . __ . __ . __ . __ . __ . __
 72
65
 73
4
 40
25.3999999999999986
 49
12.6999999999999993
 74
0
 49
-6.3499999999999996
 74
0
 49
0.0
 74
0
 49
-6.3499999999999996
 74
0
  0
LTYPE
  5
38
100
AcDbSymbolTableRecord
100
AcDbLinetypeTableRecord
  2
DASHDOT2
 70
0
  3
Dash dot (.5x) _._._._._._._._._._._._._._._.
 72
65
 73
4
 40
12.6999999999999993
 49
6.3499999999999996
 74
0
 49
-3.1749999999999998
 74
0
 49
0.0
 74
0
 49
-3.1749999999999998
 74
0
  0
LTYPE
  5
39
100
AcDbSymbolTableRecord
100
AcDbLinetypeTableRecord
  2
DASHDOTX2
 70
0
  3
Dash dot (2x) ____  .  ____  .  ____  .  ___
 72
65
 73
4
 40
50.7999999999999972
 49
25.3999999999999986
 74
0
 49
-12.6999999999999993
 74
0
 49
0.0
 74
0
 49
-12.6999999999999993
 74
0
  0
LTYPE
  5
3A
100
AcDbSymbolTableRecord
100
AcDbLinetypeTableRecord
  2
DIVIDE
 70
0
  3
Divide ____ . . ____ . . ____ . . ____ . . ____
 72
65
 73
6
 40
31.75
 49
12.6999999999999993
 74
0
 49
-6.3499999999999996
 74
0
 49
0.0
 74
0
 49
-6.3499999999999996
 74
0
 49
0.0
 74
0
 49
-6.3499999999999996
 74
0
  0
LTYPE
  5
3B
100
AcDbSymbolTableRecord
100
AcDbLinetypeTableRecord
  2
DIVIDE2
 70
0
  3
Divide (.5x) __..__..__..__..__..__..__..__.._
 72
65
 73
6
 40
15.875
 49
6.3499999999999996
 74
0
 49
-3.1749999999999998
 74
0
 49
0.0
 74
0
 49
-3.1749999999999998
 74
0
 49
0.0
 74
0
 49
-3.1749999999999998
 74
0
  0
LTYPE
  5
3C
100
AcDbSymbolTableRecord
100
AcDbLinetypeTableRecord
  2
DIVIDEX2
 70
0
  3
Divide (2x) ________  .  .  ________  .  .  _
 72
65
 73
6
 40
63.5
 49
25.3999999999999986
 74
0
 49
-12.6999999999999993
 74
0
 49
0.0
 74
0
 49
-12.6999999999999993
 74
0
 49
0.0
 74
0
 49
-12.6999999999999993
 74
0
  0
LTYPE
  5
3D
100
AcDbSymbolTableRecord
100
AcDbLinetypeTableRecord
  2
CENTER
 70
0
  3
Center ____ _ ____ _ ____ _ ____ _ ____ _ ____
 72
65
 73
4
 40
50.7999999999999972
 49
31.75
 74
0
 49
-6.3499999999999996
 74
0
 49
6.3499999999999996
 74
0
 49
-6.3499999999999996
 74
0
  0
LTYPE
  5
3E
100
AcDbSymbolTableRecord
100
AcDbLinetypeTableRecord
  2
CENTER2
 70
0
  3
Center (.5x) ___ _ ___ _ ___ _ ___ _ ___ _ ___
 72
65
 73
4
 40
28.5749999999999993
 49
19.0500000000000007
 74
0
 49
-3.1749999999999998
 74
0
 49
3.1749999999999998
 74
0
 49
-3.1749999999999998
 74
0
  0
LTYPE
  5
3F
100
AcDbSymbolTableRecord
100
AcDbLinetypeTableRecord
  2
CENTERX2
 70
0
  3
Center (2x) ________  __  ________  __  _____
 72
65
 73
4
 40
101.5999999999999943
 49
63.5
 74
0
 49
-12.6999999999999993
 74
0
 49
12.6999999999999993
 74
0
 49
-12.6999999999999993
 74
0
  0
LTYPE
  5
40
100
AcDbSymbolTableRecord
100
AcDbLinetypeTableRecord
  2
BORDER
 70
0
  3
Border __ __ . __ __ . __ __ . __ __ . __ __ .
 72
65
 73
6
 40
44.4500000000000028
 49
12.6999999999999993
 74
0
 49
-6.3499999999999996
 74
0
 49
12.6999999999999993
 74
0
 49
-6.3499999999999996
 74
0
 49
0.0
 74
0
 49
-6.3499999999999996
 74
0
  0
LTYPE
  5
41
100
AcDbSymbolTableRecord
100
AcDbLinetypeTableRecord
  2
BORDER2
 70
0
  3
Border (.5x) __.__.__.__.__.__.__.__.__.__.__.
 72
65
 73
6
 40
22.2250000000000014
 49
6.3499999999999996
 74
0
 49
-3.1749999999999998
 74
0
 49
6.3499999999999996
 74
0
 49
-3.1749999999999998
 74
0
 49
0.0
 74
0
 49
-3.1749999999999998
 74
0
  0
LTYPE
  5
42
100
AcDbSymbolTableRecord
100
AcDbLinetypeTableRecord
  2
BORDERX2
 70
0
  3
Border (2x) ____  ____  .  ____  ____  .  ___
 72
65
 73
6
 40
88.9000000000000057
 49
25.3999999999999986
 74
0
 49
-12.6999999999999993
 74
0
 49
25.3999999999999986
 74
0
 49
-12.6999999999999993
 74
0
 49
0.0
 74
0
 49
-12.6999999999999993
 74
0
  0
ENDTAB
  0
TABLE
  2
LAYER
  5
2
100
AcDbSymbolTable
 70
11
  0
LAYER
  5
10
100
AcDbSymbolTableRecord
100
AcDbLayerTableRecord
  2
0
 70
0
 62
7
420
0
  6
CONTINUOUS
370
0
390
F
  0
LAYER
  5
43
100
AcDbSymbolTableRecord
100
AcDbLayerTableRecord
  2
back
 70
0
 62
7
420
0
  6
CONTINUOUS
370
0
390
F
  0
LAYER
  5
44
100
AcDbSymbolTableRecord
100
AcDbLayerTableRecord
  2
right
 70
0
 62
7
420
0
  6
CONTINUOUS
370
0
390
F
  0
LAYER
  5
45
100
AcDbSymbolTableRecord
100
AcDbLayerTableRecord
  2
left
 70
0
 62
7
420
0
  6
CONTINUOUS
370
0
390
F
  0
LAYER
  5
46
100
AcDbSymbolTableRecord
100
AcDbLayerTableRecord
  2
bottom mount
 70
0
 62
7
420
0
  6
CONTINUOUS
370
0
390
F
  0
LAYER
  5
47
100
AcDbSymbolTableRecord
100
AcDbLayerTableRecord
  2
syringe bottom
 70
0
 62
7
420
0
  6
CONTINUOUS
370
0
390
F
  0
LAYER
  5
48
100
AcDbSymbolTableRecord
100
AcDbLayerTableRecord
  2
syringe top
 70
0
 62
7
420
0
  6
CONTINUOUS
370
0
390
F
  0
LAYER
  5
49
100
AcDbSymbolTableRecord
100
AcDbLayerTableRecord
  2
text
 70
0
 62
1
420
16711680
  6
CONTINUOUS
370
0
390
F
  0
LAYER
  5
4A
100
AcDbSymbolTableRecord
100
AcDbLayerTableRecord
  2
drawings
 70
1
 62
-5
420
255
  6
CONTINUOUS
370
0
390
F
  0
LAYER
  5
4B
100
AcDbSymbolTableRecord
100
AcDbLayerTableRecord
  2
drawing-valve
 70
1
 62
-1
420
16711680
  6
CONTINUOUS
370
0
390
F
  0
LAYER
  5
4C
100
AcDbSymbolTableRecord
100
AcDbLayerTableRecord
  2
top mount
 70
0
 62
7
420
0
  6
CONTINUOUS
370
0
390
F
  0
ENDTAB
  0
TABLE
  2
STYLE
  5
3
100
AcDbSymbolTable
 70
1
  0
STYLE
  5
11
100
AcDbSymbolTableRecord
100
AcDbTextStyleTableRecord
  2
Standard
 70
0
 40
0.0
 41
0.75
 50
0.0
 71
0
 42
2.5
  3
txt
  4

  0
ENDTAB
  0
TABLE
  2
VIEW
  5
6
100
AcDbSymbolTable
 70
0
  0
ENDTAB
  0
TABLE
  2
UCS
  5
7
100
AcDbSymbolTable
 70
0
  0
ENDTAB
  0
TABLE
  2
APPID
  5
9
100
AcDbSymbolTable
 70
1
  0
APPID
  5
12
100
AcDbSymbolTableRecord
100
AcDbRegAppTableRecord
  2
ACAD
 70
0
  0
ENDTAB
  0
TABLE
  2
DIMSTYLE
  5
A
100
AcDbSymbolTable
 70
1
100
AcDbDimStyleTable
 71
0
  0
DIMSTYLE
105
27
100
AcDbSymbolTableRecord
100
AcDbDimStyleTableRecord
  2
Standard
 41
2.5
 42
0.625
 43
3.75
 44
1.25
 70
0
 73
0
 74
0
 77
1
 78
8
140
2.5
141
2.5
143
0.03937007874016
147
0.625
171
3
172
1
271
2
272
2
274
3
278
44
283
0
284
8
340
11
  0
ENDTAB
  0
TABLE
  2
BLOCK_RECORD
  5
1
100
AcDbSymbolTable
 70
1
  0
BLOCK_RECORD
  5
1F
100
AcDbSymbolTableRecord
100
AcDbBlockTableRecord
  2
*Model_Space
340
22
  0
BLOCK_RECORD
  5
1B
100
AcDbSymbolTableRecord
100
AcDbBlockTableRecord
  2
*Paper_Space
340
1E
  0
BLOCK_RECORD
  5
23
100
AcDbSymbolTableRecord
100
AcDbBlockTableRecord
  2
*Paper_Space0
340
26
  0
BLOCK_RECORD
  5
4D
100
AcDbSymbolTableRecord
100
AcDbBlockTableRecord
  2
slots
340
0
  0
BLOCK_RECORD
  5
4E
100
AcDbSymbolTableRecord
100
AcDbBlockTableRecord
  2
tabs
340
0
  0
BLOCK_RECORD
  5
4F
100
AcDbSymbolTableRecord
100
AcDbBlockTableRecord
  2
tabs no ts
340
0
  0
ENDTAB
  0
ENDSEC
  0
SECTION
  2
BLOCKS
  0
BLOCK
  5
20
100
AcDbEntity
  8
0
100
AcDbBlockBegin
  2
*Model_Space
 70
0
 10
0.0
 20
0.0
 30
0.0
  3
*Model_Space
  1

  0
ENDBLK
  5
21
100
AcDbEntity
  8
0
100
AcDbBlockEnd
  0
BLOCK
  5
1C
100
AcDbEntity
 67
1
  8
0
100
AcDbBlockBegin
  2
*Paper_Space
 70
0
 10
0.0
 20
0.0
 30
0.0
  3
*Paper_Space
  1

  0
ENDBLK
  5
1D
100
AcDbEntity
 67
1
  8
0
100
AcDbBlockEnd
  0
BLOCK
  5
24
100
AcDbEntity
  8
0
100
AcDbBlockBegin
  2
*Paper_Space0
 70
0
 10
0.0
 20
0.0
 30
0.0
  3
*Paper_Space0
  1

  0
ENDBLK
  5
25
100
AcDbEntity
  8
0
100
AcDbBlockEnd
  0
BLOCK
  5
50
100
AcDbEntity
  8
0
100
AcDbBlockBegin
  2
slots
 70
0
 10
0.0
 20
0.0
 30
0.0
  3
slots
  1

  0
LINE
  5
51
100
AcDbEntity
100
AcDbLine
  8
0
 62
256
370
-1
  6
ByLayer
 10
5.0
 20
-1.5
 30
0.0
 11
5.0
 21
-1.5
 31
0.0
  0
CIRCLE
  5
52
100
AcDbEntity
100
AcDbCircle
  8
0
 62
256
370
-1
  6
ByLayer
 10
0.0
 20
0.0
 30
0.0
 40
1.5
  0
LINE
  5
53
100
AcDbEntity
100
AcDbLine
  8
0
 62
256
370
-1
  6
ByLayer
 10
5.0
 20
2.5
 30
0.0
 11
15.0
 21
2.5
 31
0.0
  0
LINE
  5
54
100
AcDbEntity
100
AcDbLine
  8
0
 62
256
370
-1
  6
ByLayer
 10
15.0
 20
-2.5
 30
0.0
 11
5.0
 21
-2.5
 31
0.0
  0
LINE
  5
55
100
AcDbEntity
100
AcDbLine
  8
0
 62
256
370
-1
  6
ByLayer
 10
5.0
 20
-2.5
 30
0.0
 11
5.0
 21
2.5
 31
0.0
  0
LINE
  5
56
100
AcDbEntity
100
AcDbLine
  8
0
 62
256
370
-1
  6
ByLayer
 10
15.0
 20
2.5
 30
0.0
 11
15.0
 21
-2.5
 31
0.0
  0
LINE
  5
57
100
AcDbEntity
100
AcDbLine
  8
0
 62
256
370
-1
  6
ByLayer
 10
-15.0
 20
-2.5
 30
0.0
 11
-5.0
 21
-2.5
 31
0.0
  0
LINE
  5
58
100
AcDbEntity
100
AcDbLine
  8
0
 62
256
370
-1
  6
ByLayer
 10
-5.0
 20
-2.5
 30
0.0
 11
-5.0
 21
2.5
 31
0.0
  0
LINE
  5
59
100
AcDbEntity
100
AcDbLine
  8
0
 62
256
370
-1
  6
ByLayer
 10
-5.0
 20
2.5
 30
0.0
 11
-15.0
 21
2.5
 31
0.0
  0
LINE
  5
5A
100
AcDbEntity
100
AcDbLine
  8
0
 62
256
370
-1
  6
ByLayer
 10
-15.0
 20
2.5
 30
0.0
 11
-15.0
 21
-2.5
 31
0.0
  0
ENDBLK
  5
5B
100
AcDbEntity
  8
0
100
AcDbBlockEnd
  0
BLOCK
  5
5C
100
AcDbEntity
  8
0
100
AcDbBlockBegin
  2
tabs
 70
0
 10
0.0
 20
0.0
 30
0.0
  3
tabs
  1

  0
LINE
  5
5D
100
AcDbEntity
100
AcDbLine
  8
0
 62
256
370
-1
  6
ByLayer
 10
-2.7579892769680607
 20
7.0022436396322396
 30
0.0
 11
-2.7554732459241063
 21
10.0022436396322441
 31
0.0
  0
LINE
  5
5E
100
AcDbEntity
100
AcDbLine
  8
0
 62
256
370
-1
  6
ByLayer
 10
-1.5079892769680618
 20
10.0022436396322405
 30
0.0
 11
-2.7554732459241063
 21
10.0022436396322441
 31
0.0
  0
LINE
  5
5F
100
AcDbEntity
100
AcDbLine
  8
0
 62
256
370
-1
  6
ByLayer
 10
2.7420107230319379
 20
7.0022436396322378
 30
0.0
 11
2.7467023834491227
 21
10.0022436396322387
 31
0.0
  0
LINE
  5
60
100
AcDbEntity
100
AcDbLine
  8
0
 62
256
370
-1
  6
ByLayer
 10
2.7467023834491227
 20
10.0022436396322387
 30
0.0
 11
1.4920107230319406
 21
10.0022436396322405
 31
0.0
  0
LINE
  5
61
100
AcDbEntity
100
AcDbLine
  8
0
 62
256
370
-1
  6
ByLayer
 10
1.4092127076804035
 20
0.0022436396322414
 30
0.0
 11
1.4084947429981931
 21
7.0009633628528869
 31
0.0
  0
LINE
  5
62
100
AcDbEntity
100
AcDbLine
  8
0
 62
256
370
-1
  6
ByLayer
 10
-1.4087986704115134
 20
7.0009633628528887
 30
0.0
 11
-1.408798670411628
 21
-0.0022436396322374
 31
0.0
  0
LINE
  5
63
100
AcDbEntity
100
AcDbLine
  8
0
 62
256
370
-1
  6
ByLayer
 10
-2.7579892769680607
 20
7.0022436396322396
 30
0.0
 11
-1.4087986704115134
 21
7.0009633628528887
 31
0.0
  0
LINE
  5
64
100
AcDbEntity
100
AcDbLine
  8
0
 62
256
370
-1
  6
ByLayer
 10
1.4084947429981931
 20
7.0009633628528869
 30
0.0
 11
2.7420107230319379
 21
7.0022436396322378
 31
0.0
  0
LINE
  5
65
100
AcDbEntity
100
AcDbLine
  8
0
 62
256
370
-1
  6
ByLayer
 10
1.4920107230319366
 20
11.0022436396322387
 30
0.0
 11
-1.5079892769680583
 21
11.0022436396322387
 31
0.0
  0
LINE
  5
66
100
AcDbEntity
100
AcDbLine
  8
0
 62
256
370
-1
  6
ByLayer
 10
1.4920107230319406
 20
10.0022436396322405
 30
0.0
 11
1.4920107230319366
 21
11.0022436396322387
 31
0.0
  0
LINE
  5
67
100
AcDbEntity
100
AcDbLine
  8
0
 62
256
370
-1
  6
ByLayer
 10
-1.5079892769680583
 20
11.0022436396322387
 30
0.0
 11
-1.5079892769680618
 21
10.0022436396322405
 31
0.0
  0
LINE
  5
68
100
AcDbEntity
100
AcDbLine
  8
0
 62
256
370
-1
  6
ByLayer
 10
4.9999999999999982
 20
-5.0022436396322387
 30
0.0
 11
14.9999999999999947
 21
-5.0022436396322512
 31
0.0
  0
LINE
  5
69
100
AcDbEntity
100
AcDbLine
  8
0
 62
256
370
-1
  6
ByLayer
 10
4.9999999999999982
 20
-0.0022436396322392
 30
0.0
 11
4.9999999999999982
 21
-5.0022436396322387
 31
0.0
  0
LINE
  5
6A
100
AcDbEntity
100
AcDbLine
  8
0
 62
256
370
-1
  6
ByLayer
 10
14.9999999999999947
 20
-5.0022436396322512
 30
0.0
 11
14.9999999999999982
 21
-0.0022436396322405
 31
0.0
  0
LINE
  5
6B
100
AcDbEntity
100
AcDbLine
  8
0
 62
256
370
-1
  6
ByLayer
 10
-15.0000000000000018
 20
-5.0022436396322387
 30
0.0
 11
-5.0000000000000018
 21
-5.0022436396322369
 31
0.0
  0
LINE
  5
6C
100
AcDbEntity
100
AcDbLine
  8
0
 62
256
370
-1
  6
ByLayer
 10
-5.0000000000000018
 20
-5.0022436396322369
 30
0.0
 11
-5.0
 21
-0.0022436396322374
 31
0.0
  0
LINE
  5
6D
100
AcDbEntity
100
AcDbLine
  8
0
 62
256
370
-1
  6
ByLayer
 10
-15.0
 20
-0.0022436396322281
 30
0.0
 11
-15.0000000000000018
 21
-5.0022436396322387
 31
0.0
  0
LINE
  5
6E
100
AcDbEntity
100
AcDbLine
  8
0
 62
256
370
-1
  6
ByLayer
 10
-5.0
 20
-0.0022436396322374
 30
0.0
 11
-1.408798670411628
 21
-0.0022436396322374
 31
0.0
  0
LINE
  5
6F
100
AcDbEntity
100
AcDbLine
  8
0
 62
256
370
-1
  6
ByLayer
 10
1.4092127076804035
 20
0.0022436396322414
 30
0.0
 11
4.9999999999999982
 21
-0.0022436396322392
 31
0.0
  0
ENDBLK
  5
70
100
AcDbEntity
  8
0
100
AcDbBlockEnd
  0
BLOCK
  5
71
100
AcDbEntity
  8
0
100
AcDbBlockBegin
  2
tabs no ts
 70
0
 10
0.0
 20
0.0
 30
0.0
  3
tabs no ts
  1

  0
LINE
  5
72
100
AcDbEntity
100
AcDbLine
  8
0
 62
256
370
-1
  6
ByLayer
 10
-5.0
 20
0.0000000000000009
 30
0.0
 11
5.0
 21
-0.0000000000000009
 31
0.0
  0
LINE
  5
73
100
AcDbEntity
100
AcDbLine
  8
0
 62
256
370
-1
  6
ByLayer
 10
-15.0000000000000036
 20
-4.9999999999999964
 30
0.0
 11
-5.0
 21
-5.0
 31
0.0
  0
LINE
  5
74
100
AcDbEntity
100
AcDbLine
  8
0
 62
256
370
-1
  6
ByLayer
 10
5.0
 20
-5.0
 30
0.0
 11
15.0
 21
-5.0000000000000133
 31
0.0
  0
LINE
  5
75
100
AcDbEntity
100
AcDbLine
  8
0
 62
256
370
-1
  6
ByLayer
 10
-5.0
 20
-5.0
 30
0.0
 11
-5.0
 21
0.0000000000000009
 31
0.0
  0
LINE
  5
76
100
AcDbEntity
100
AcDbLine
  8
0
 62
256
370
-1
  6
ByLayer
 10
-15.0
 20
-0.0000000000000018
 30
0.0
 11
-15.0000000000000036
 21
-4.9999999999999964
 31
0.0
  0
LINE
  5
77
100
AcDbEntity
100
AcDbLine
  8
0
 62
256
370
-1
  6
ByLayer
 10
5.0
 20
-0.0000000000000009
 30
0.0
 11
5.0
 21
-5.0
 31
0.0
  0
LINE
  5
78
100
AcDbEntity
100
AcDbLine
  8
0
 62
256
370
-1
  6
ByLayer
 10
15.0
 20
-5.0000000000000133
 30
0.0
 11
14.9999999999999982
 21
-0.0000000000000062
 31
0.0
  0
ENDBLK
  5
79
100
AcDbEntity
  8
0
100
AcDbBlockEnd
  0
ENDSEC
  0
SECTION
  2
ENTITIES
  0
LINE
  5
7A
100
AcDbEntity
100
AcDbLine
  8
drawings
 62
256
370
-1
  6
ByLayer
 10
175.0
 20
100.0
 30
0.0
 11
225.0
 21
100.0
 31
0.0
  0
LINE
  5
7B
100
AcDbEntity
100
AcDbLine
  8
drawings
 62
256
370
-1
  6
ByLayer
 10
200.0
 20
83.0
 30
0.0
 11
200.0
 21
117.0
 31
0.0
  0
LINE
  5
7C
100
AcDbEntity
100
AcDbLine
  8
drawings
 62
256
370
-1
  6
ByLayer
 10
175.0
 20
89.0
 30
0.0
 11
225.0
 21
89.0
 31
0.0
  0
LINE
  5
7D
100
AcDbEntity
100
AcDbLine
  8
drawings
 62
256
370
-1
  6
ByLayer
 10
175.0
 20
111.0
 30
0.0
 11
225.0
 21
111.0
 31
0.0
  0
LINE
  5
7E
100
AcDbEntity
100
AcDbLine
  8
drawings
 62
256
370
-1
  6
ByLayer
 10
177.0
 20
83.0
 30
0.0
 11
177.0
 21
117.0
 31
0.0
  0
LINE
  5
7F
100
AcDbEntity
100
AcDbLine
  8
drawings
 62
256
370
-1
  6
ByLayer
 10
223.0
 20
83.0
 30
0.0
 11
223.0
 21
117.0
 31
0.0
  0
MTEXT
  5
80
100
AcDbEntity
100
AcDbMText
  8
text
 62
256
370
-1
  6
ByLayer
 10
-129.9999999999999432
 20
152.0000000000001137
 30
0.0
 40
3.0
 41
100.0
 71
7
 72
2
  1
Bottom\~Mount
  7
standard
 50
0.0
 73
1
 44
1.0
  0
LINE
  5
81
100
AcDbEntity
100
AcDbLine
  8
drawings
 62
256
370
-1
  6
ByLayer
 10
-74.0000000000000711
 20
-89.0000000000000995
 30
0.0
 11
33.9999999999999716
 21
-89.0000000000000995
 31
0.0
  0
LINE
  5
82
100
AcDbEntity
100
AcDbLine
  8
drawings
 62
256
370
-1
  6
ByLayer
 10
33.5282922631150129
 20
87.476580673792526
 30
0.0
 11
18.5283020390530666
 21
87.4937060364514281
 31
0.0
  0
LINE
  5
83
100
AcDbEntity
100
AcDbLine
  8
drawings
 62
256
370
-1
  6
ByLayer
 10
18.5283020390530666
 20
87.4937060364514281
 30
0.0
 11
18.516885130613808
 21
77.4937125537434355
 31
0.0
  0
LINE
  5
84
100
AcDbEntity
100
AcDbLine
  8
drawings
 62
256
370
-1
  6
ByLayer
 10
18.516885130613808
 20
77.4937125537434355
 30
0.0
 11
33.5168753546757827
 21
77.4765871910845618
 31
0.0
  0
LINE
  5
85
100
AcDbEntity
100
AcDbLine
  8
drawings
 62
256
370
-1
  6
ByLayer
 10
33.5168753546757827
 20
77.4765871910845618
 30
0.0
 11
33.5282922631150129
 21
87.476580673792526
 31
0.0
  0
LINE
  5
86
100
AcDbEntity
100
AcDbLine
  8
drawings
 62
256
370
-1
  6
ByLayer
 10
26.0282971510840397
 20
87.4851433551219912
 30
0.0
 11
26.0168802426447812
 21
77.4851498724140271
 31
0.0
  0
LINE
  5
87
100
AcDbEntity
100
AcDbLine
  8
drawings
 62
256
370
-1
  6
ByLayer
 10
16.9175742336620871
 20
99.9955531374577475
 30
0.0
 11
16.9081658858034061
 21
91.754844387763157
 31
0.0
  0
LINE
  5
88
100
AcDbEntity
100
AcDbLine
  8
drawings
 62
256
370
-1
  6
ByLayer
 10
16.8870234019833774
 20
73.2362846976744351
 30
0.0
 11
16.8776150541246963
 21
64.9955759479798729
 31
0.0
  0
ARC
  5
89
100
AcDbEntity
  8
drawings
 62
256
370
-1
  6
ByLayer
100
AcDbCircle
 10
26.0225886968644247
 20
82.4851466137679807
 30
0.0
 40
13.0
100
AcDbArc
 50
134.5160829992005063
 51
225.3530888386467268
  0
CIRCLE
  5
8A
100
AcDbEntity
100
AcDbCircle
  8
drawings
 62
256
370
-1
  6
ByLayer
 10
33.5282922631150129
 20
87.476580673792526
 30
0.0
 40
4.0999999999999996
  0
CIRCLE
  5
8B
100
AcDbEntity
100
AcDbCircle
  8
drawings
 62
256
370
-1
  6
ByLayer
 10
33.5168753546757827
 20
77.4765871910845618
 30
0.0
 40
4.0999999999999996
  0
CIRCLE
  5
8C
100
AcDbEntity
100
AcDbCircle
  8
drawings
 62
256
370
-1
  6
ByLayer
 10
18.516885130613808
 20
77.4937125537434355
 30
0.0
 40
4.0999999999999996
  0
CIRCLE
  5
8D
100
AcDbEntity
100
AcDbCircle
  8
drawings
 62
256
370
-1
  6
ByLayer
 10
18.5283020390530666
 20
87.4937060364514281
 30
0.0
 40
4.0999999999999996
  0
ARC
  5
8E
100
AcDbEntity
  8
drawings
 62
256
370
-1
  6
ByLayer
100
AcDbCircle
 10
26.0225886968644247
 20
82.4851466137679807
 30
0.0
 40
13.0
100
AcDbArc
 50
314.5160829992005347
 51
45.3530888386466771
  0
LINE
  5
8F
100
AcDbEntity
100
AcDbLine
  8
drawings
 62
256
370
-1
  6
ByLayer
 10
33.5225838088954262
 20
82.4765839324384586
 30
0.0
 11
18.5225935848334515
 21
82.4937092950975028
 31
0.0
  0
LINE
  5
90
100
AcDbEntity
100
AcDbLine
  8
drawings
 62
256
370
-1
  6
ByLayer
 10
28.5225886968644531
 20
89.5034136791759209
 30
0.0
 11
28.5225886968644531
 21
99.5034136791759209
 31
0.0
  0
LINE
  5
91
100
AcDbEntity
100
AcDbLine
  8
drawings
 62
256
370
-1
  6
ByLayer
 10
28.5225886968644531
 20
99.5034136791759209
 30
0.0
 11
23.5225886968644247
 21
99.5034136791759209
 31
0.0
  0
LINE
  5
92
100
AcDbEntity
100
AcDbLine
  8
drawings
 62
256
370
-1
  6
ByLayer
 10
23.5225886968644247
 20
99.5034136791759209
 30
0.0
 11
23.5225886968644247
 21
89.5034136791759209
 31
0.0
  0
LINE
  5
93
100
AcDbEntity
100
AcDbLine
  8
drawings
 62
256
370
-1
  6
ByLayer
 10
23.5225886968644247
 20
89.5034136791759209
 30
0.0
 11
28.5225886968644531
 21
89.5034136791759209
 31
0.0
  0
LINE
  5
94
100
AcDbEntity
100
AcDbLine
  8
drawings
 62
256
370
-1
  6
ByLayer
 10
35.1581539917454435
 20
91.734008529861498
 30
0.0
 11
35.167562339604153
 21
99.9747172795560601
 31
0.0
  0
LINE
  5
95
100
AcDbEntity
100
AcDbLine
  8
drawings
 62
256
370
-1
  6
ByLayer
 10
35.1370115079254148
 20
73.2154488397728045
 30
0.0
 11
35.1276031600667054
 21
64.9747400900782139
 31
0.0
  0
LINE
  5
96
100
AcDbEntity
100
AcDbLine
  8
drawings
 62
256
370
-1
  6
ByLayer
 10
39.042559814153428
 20
99.970293227535862
 30
0.0
 11
13.0425767591127837
 21
99.9999771894779457
 31
0.0
  0
LINE
  5
97
100
AcDbEntity
100
AcDbLine
  8
drawings
 62
256
370
-1
  6
ByLayer
 10
39.042559814153428
 20
99.970293227535862
 30
0.0
 11
39.0026006346160941
 21
64.9703160380580158
 31
0.0
  0
LINE
  5
98
100
AcDbEntity
100
AcDbLine
  8
drawings
 62
256
370
-1
  6
ByLayer
 10
13.0425767591127837
 20
99.9999771894779457
 30
0.0
 11
13.0026175795753645
 21
65.0000000000000995
 31
0.0
  0
LINE
  5
99
100
AcDbEntity
100
AcDbLine
  8
drawings
 62
256
370
-1
  6
ByLayer
 10
39.0026006346160941
 20
64.9703160380580158
 30
0.0
 11
13.0026175795753645
 21
65.0000000000000995
 31
0.0
  0
LINE
  5
9A
100
AcDbEntity
100
AcDbLine
  8
drawings
 62
256
370
-1
  6
ByLayer
 10
93.528309208074262
 20
87.5062646357345244
 30
0.0
 11
78.5283189840123157
 21
87.5233899983934265
 31
0.0
  0
LINE
  5
9B
100
AcDbEntity
100
AcDbLine
  8
drawings
 62
256
370
-1
  6
ByLayer
 10
78.5283189840123157
 20
87.5233899983934265
 30
0.0
 11
78.5169020755730571
 21
77.5233965156854339
 31
0.0
  0
LINE
  5
9C
100
AcDbEntity
100
AcDbLine
  8
drawings
 62
256
370
-1
  6
ByLayer
 10
78.5169020755730571
 20
77.5233965156854339
 30
0.0
 11
93.5168922996350318
 21
77.5062711530265602
 31
0.0
  0
LINE
  5
9D
100
AcDbEntity
100
AcDbLine
  8
drawings
 62
256
370
-1
  6
ByLayer
 10
93.5168922996350318
 20
77.5062711530265602
 30
0.0
 11
93.528309208074262
 21
87.5062646357345244
 31
0.0
  0
LINE
  5
9E
100
AcDbEntity
100
AcDbLine
  8
drawings
 62
256
370
-1
  6
ByLayer
 10
86.0283140960432888
 20
87.5148273170639897
 30
0.0
 11
86.0168971876040303
 21
77.5148338343560255
 31
0.0
  0
LINE
  5
9F
100
AcDbEntity
100
AcDbLine
  8
drawings
 62
256
370
-1
  6
ByLayer
 10
76.9175911786213362
 20
100.0252370993997459
 30
0.0
 11
76.9081828307626552
 21
91.7845283497051554
 31
0.0
  0
LINE
  5
A0
100
AcDbEntity
100
AcDbLine
  8
drawings
 62
256
370
-1
  6
ByLayer
 10
76.8870403469426265
 20
73.2659686596164335
 30
0.0
 11
76.8776319990839454
 21
65.0252599099218713
 31
0.0
  0
ARC
  5
A1
100
AcDbEntity
  8
drawings
 62
256
370
-1
  6
ByLayer
100
AcDbCircle
 10
86.0226056418236737
 20
82.5148305757099791
 30
0.0
 40
13.0
100
AcDbArc
 50
134.5160829992005063
 51
225.3530888386467268
  0
CIRCLE
  5
A2
100
AcDbEntity
100
AcDbCircle
  8
drawings
 62
256
370
-1
  6
ByLayer
 10
93.528309208074262
 20
87.5062646357345244
 30
0.0
 40
4.0999999999999996
  0
CIRCLE
  5
A3
100
AcDbEntity
100
AcDbCircle
  8
drawings
 62
256
370
-1
  6
ByLayer
 10
93.5168922996350318
 20
77.5062711530265602
 30
0.0
 40
4.0999999999999996
  0
CIRCLE
  5
A4
100
AcDbEntity
100
AcDbCircle
  8
drawings
 62
256
370
-1
  6
ByLayer
 10
78.5169020755730571
 20
77.5233965156854339
 30
0.0
 40
4.0999999999999996
  0
CIRCLE
  5
A5
100
AcDbEntity
100
AcDbCircle
  8
drawings
 62
256
370
-1
  6
ByLayer
 10
78.5283189840123157
 20
87.5233899983934265
 30
0.0
 40
4.0999999999999996
  0
ARC
  5
A6
100
AcDbEntity
  8
drawings
 62
256
370
-1
  6
ByLayer
100
AcDbCircle
 10
86.0226056418236737
 20
82.5148305757099791
 30
0.0
 40
13.0
100
AcDbArc
 50
314.5160829992005347
 51
45.3530888386466771
  0
LINE
  5
A7
100
AcDbEntity
100
AcDbLine
  8
drawings
 62
256
370
-1
  6
ByLayer
 10
93.5226007538546753
 20
82.5062678943804571
 30
0.0
 11
78.5226105297927006
 21
82.5233932570395012
 31
0.0
  0
LINE
  5
A8
100
AcDbEntity
100
AcDbLine
  8
drawings
 62
256
370
-1
  6
ByLayer
 10
88.5226056418237022
 20
89.5330976411179194
 30
0.0
 11
88.5226056418237022
 21
99.5330976411179194
 31
0.0
  0
LINE
  5
A9
100
AcDbEntity
100
AcDbLine
  8
drawings
 62
256
370
-1
  6
ByLayer
 10
88.5226056418237022
 20
99.5330976411179194
 30
0.0
 11
83.5226056418236737
 21
99.5330976411179194
 31
0.0
  0
LINE
  5
AA
100
AcDbEntity
100
AcDbLine
  8
drawings
 62
256
370
-1
  6
ByLayer
 10
83.5226056418236737
 20
99.5330976411179194
 30
0.0
 11
83.5226056418236737
 21
89.5330976411179194
 31
0.0
  0
LINE
  5
AB
100
AcDbEntity
100
AcDbLine
  8
drawings
 62
256
370
-1
  6
ByLayer
 10
83.5226056418236737
 20
89.5330976411179194
 30
0.0
 11
88.5226056418237022
 21
89.5330976411179194
 31
0.0
  0
LINE
  5
AC
100
AcDbEntity
100
AcDbLine
  8
drawings
 62
256
370
-1
  6
ByLayer
 10
95.1581709367046926
 20
91.7636924918034964
 30
0.0
 11
95.1675792845634021
 21
100.0044012414980585
 31
0.0
  0
LINE
  5
AD
100
AcDbEntity
100
AcDbLine
  8
drawings
 62
256
370
-1
  6
ByLayer
 10
95.1370284528846639
 20
73.2451328017148029
 30
0.0
 11
95.1276201050259544
 21
65.0044240520202123
 31
0.0
  0
LINE
  5
AE
100
AcDbEntity
100
AcDbLine
  8
drawings
 62
256
370
-1
  6
ByLayer
 10
99.0425767591126771
 20
99.9999771894778604
 30
0.0
 11
73.0425937040720328
 21
100.0296611514199441
 31
0.0
  0
LINE
  5
AF
100
AcDbEntity
100
AcDbLine
  8
drawings
 62
256
370
-1
  6
ByLayer
 10
99.0425767591126771
 20
99.9999771894778604
 30
0.0
 11
99.0026175795753431
 21
65.0000000000000142
 31
0.0
  0
LINE
  5
B0
100
AcDbEntity
100
AcDbLine
  8
drawings
 62
256
370
-1
  6
ByLayer
 10
73.0425937040720328
 20
100.0296611514199441
 30
0.0
 11
73.0026345245346135
 21
65.0296839619420979
 31
0.0
  0
LINE
  5
B1
100
AcDbEntity
100
AcDbLine
  8
drawings
 62
256
370
-1
  6
ByLayer
 10
99.0026175795753431
 20
65.0000000000000142
 30
0.0
 11
73.0026345245346135
 21
65.0296839619420979
 31
0.0
  0
CIRCLE
  5
B2
100
AcDbEntity
100
AcDbCircle
  8
drawings
 62
256
370
-1
  6
ByLayer
 10
200.0
 20
100.0
 30
0.0
 40
14.4000000000000004
  0
CIRCLE
  5
B3
100
AcDbEntity
100
AcDbCircle
  8
drawings
 62
256
370
-1
  6
ByLayer
 10
200.0
 20
100.0
 30
0.0
 40
15.5
  0
ARC
  5
B4
100
AcDbEntity
  8
drawings
 62
256
370
-1
  6
ByLayer
100
AcDbCircle
 10
180.8908127930513388
 20
107.6916593920253433
 30
0.0
 40
5.0
100
AcDbArc
 50
116.8334215100468327
 51
163.1269985478409126
  0
ARC
  5
B5
100
AcDbEntity
  8
drawings
 62
256
370
-1
  6
ByLayer
100
AcDbCircle
 10
200.0
 20
69.9166666666667425
 30
0.0
 40
47.3333333333332646
100
AcDbArc
 50
63.1665784899530607
 51
116.8334215100469606
  0
ARC
  5
B6
100
AcDbEntity
  8
drawings
 62
256
370
-1
  6
ByLayer
100
AcDbCircle
 10
219.1091872069486612
 20
107.6916593920253433
 30
0.0
 40
5.0
100
AcDbArc
 50
16.8730014521589524
 51
63.1665784899531744
  0
ARC
  5
B7
100
AcDbEntity
  8
drawings
 62
256
370
-1
  6
ByLayer
100
AcDbCircle
 10
193.7499999999999432
 20
100.0
 30
0.0
 40
31.5000000000000533
100
AcDbArc
 50
343.1269985478410263
 51
16.8730014521589524
  0
ARC
  5
B8
100
AcDbEntity
  8
drawings
 62
256
370
-1
  6
ByLayer
100
AcDbCircle
 10
219.1091872069486612
 20
92.3083406079746567
 30
0.0
 40
5.0
100
AcDbArc
 50
296.8334215100468327
 51
343.1269985478409126
  0
ARC
  5
B9
100
AcDbEntity
  8
drawings
 62
256
370
-1
  6
ByLayer
100
AcDbCircle
 10
200.0
 20
130.0833333333332575
 30
0.0
 40
47.3333333333332646
100
AcDbArc
 50
243.1665784899530536
 51
296.8334215100469464
  0
ARC
  5
BA
100
AcDbEntity
  8
drawings
 62
256
370
-1
  6
ByLayer
100
AcDbCircle
 10
206.2500000000000284
 20
100.0
 30
0.0
 40
31.5000000000000284
100
AcDbArc
 50
163.1269985478410263
 51
196.8730014521589453
  0
ARC
  5
BB
100
AcDbEntity
  8
drawings
 62
256
370
-1
  6
ByLayer
100
AcDbCircle
 10
180.8908127930513388
 20
92.3083406079746567
 30
0.0
 40
5.0
100
AcDbArc
 50
196.8730014521589453
 51
243.1665784899531388
  0
CIRCLE
  5
BC
100
AcDbEntity
100
AcDbCircle
  8
drawings
 62
256
370
-1
  6
ByLayer
 10
200.0
 20
100.0
 30
0.0
 40
3.5
  0
MTEXT
  5
BD
100
AcDbEntity
100
AcDbMText
  8
text
 62
256
370
-1
  6
ByLayer
 10
-70.0
 20
71.5
 30
0.0
 40
3.0
 41
100.0
 71
2
 72
2
  1
Top\~Mount
  7
standard
 50
0.0
 73
1
 44
1.0
  0
MTEXT
  5
BE
100
AcDbEntity
100
AcDbMText
  8
text
 62
256
370
-1
  6
ByLayer
 10
-50.0
 20
-94.0
 30
0.0
 40
3.0
 41
100.0
 71
5
 72
2
  1
RELIEF\PIN
  7
standard
 50
0.0
 73
1
 44
1.0
  0
MTEXT
  5
BF
100
AcDbEntity
100
AcDbMText
  8
text
 62
256
370
-1
  6
ByLayer
 10
10.0
 20
-94.0
 30
0.0
 40
3.0
 41
100.0
 71
5
 72
2
  1
PRESSURE\POUT
  7
standard
 50
0.0
 73
1
 44
1.0
  0
LINE
  5
C0
100
AcDbEntity
100
AcDbLine
  8
drawings
 62
256
370
-1
  6
ByLayer
 10
12.2068006574577197
 20
-35.0000000000000995
 30
0.0
 11
-52.0760426008931887
 21
-35.0000000000001279
 31
0.0
  0
LINE
  5
C1
100
AcDbEntity
100
AcDbLine
  8
drawings
 62
256
370
-1
  6
ByLayer
 10
12.2068006574577197
 20
-35.0000000000000995
 30
0.0
 11
12.2068006574577232
 21
29.9999999999999432
 31
0.0
  0
LINE
  5
C2
100
AcDbEntity
100
AcDbLine
  8
drawings
 62
256
370
-1
  6
ByLayer
 10
-52.0760426008931887
 20
-35.0000000000001279
 30
0.0
 11
-52.0760426008931816
 21
29.9999999999999005
 31
0.0
  0
LINE
  5
C3
100
AcDbEntity
100
AcDbLine
  8
drawings
 62
256
370
-1
  6
ByLayer
 10
-52.0760426008931816
 20
29.9999999999999005
 30
0.0
 11
12.2068006574577232
 21
29.9999999999999432
 31
0.0
  0
MTEXT
  5
C4
100
AcDbEntity
100
AcDbMText
  8
text
 62
256
370
-1
  6
ByLayer
 10
-130.0
 20
-40.0
 30
0.0
 40
7.0
 41
100.0
 71
5
 72
2
  1
MakerBot\PFrostruder\~MK2
  7
standard
 50
90.0
 73
1
 44
1.0
  0
MTEXT
  5
C5
100
AcDbEntity
100
AcDbMText
  8
text
 62
256
370
-1
  6
ByLayer
 10
90.0
 20
-40.0
 30
0.0
 40
7.0
 41
100.0
 71
5
 72
2
  1
MakerBot\PFrostruder\~MK2
  7
standard
 50
-90.0
 73
1
 44
1.0
  0
MTEXT
  5
C6
100
AcDbEntity
100
AcDbMText
  8
text
 62
256
370
-1
  6
ByLayer
 10
75.0
 20
-40.0
 30
0.0
 40
3.0
 41
100.0
 71
5
 72
2
  1
wiki.makerbot.com/frostruder-mk2
  7
standard
 50
-90.0
 73
1
 44
1.0
  0
MTEXT
  5
C7
100
AcDbEntity
100
AcDbMText
  8
text
 62
256
370
-1
  6
ByLayer
 10
-115.0
 20
-40.0
 30
0.0
 40
3.0
 41
100.0
 71
5
 72
2
  1
wiki.makerbot.com/frostruder-mk2
  7
standard
 50
90.0
 73
1
 44
1.0
  0
LINE
  5
C8
100
AcDbEntity
100
AcDbLine
  8
drawing-valve
 62
256
370
-1
  6
ByLayer
 10
-63.0022436396360632
 20
-56.6499999999902286
 30
0.0
 11
-63.0022436396360632
 21
-89.0000000000000995
 31
0.0
  0
LINE
  5
C9
100
AcDbEntity
100
AcDbLine
  8
drawing-valve
 62
256
370
-1
  6
ByLayer
 10
-63.0022436396360632
 20
-39.0000000000000142
 30
0.0
 11
-37.0022436396360632
 21
-39.0000000000000142
 31
0.0
  0
LINE
  5
CA
100
AcDbEntity
100
AcDbLine
  8
drawing-valve
 62
256
370
-1
  6
ByLayer
 10
-63.0022436396360632
 20
-39.0000000000000142
 30
0.0
 11
-63.0022436396360632
 21
-89.0000000000000142
 31
0.0
  0
LINE
  5
CB
100
AcDbEntity
100
AcDbLine
  8
drawing-valve
 62
256
370
-1
  6
ByLayer
 10
-37.0022436396360632
 20
-39.0000000000000142
 30
0.0
 11
-37.0022436396360632
 21
-89.0000000000000142
 31
0.0
  0
LINE
  5
CC
100
AcDbEntity
100
AcDbLine
  8
drawing-valve
 62
256
370
-1
  6
ByLayer
 10
-63.0022436396360632
 20
-89.0000000000000142
 30
0.0
 11
-37.0022436396360632
 21
-89.0000000000000142
 31
0.0
  0
LINE
  5
CD
100
AcDbEntity
100
AcDbLine
  8
drawing-valve
 62
256
370
-1
  6
ByLayer
 10
-54.3180331133202827
 20
-28.0000000000000142
 30
0.0
 11
-63.0022436396360632
 21
-39.0000000000000142
 31
0.0
  0
LINE
  5
CE
100
AcDbEntity
100
AcDbLine
  8
drawing-valve
 62
256
370
-1
  6
ByLayer
 10
-45.6864541659518508
 20
-28.0000000000000142
 30
0.0
 11
-37.0022436396360632
 21
-39.0000000000000142
 31
0.0
  0
LINE
  5
CF
100
AcDbEntity
100
AcDbLine
  8
drawing-valve
 62
256
370
-1
  6
ByLayer
 10
-54.3180331133202827
 20
-28.0000000000000142
 30
0.0
 11
-45.6864541659518508
 21
-28.0000000000000142
 31
0.0
  0
LINE
  5
D0
100
AcDbEntity
100
AcDbLine
  8
drawing-valve
 62
256
370
-1
  6
ByLayer
 10
-50.0022436396360632
 20
-28.0000000000000142
 30
0.0
 11
-50.0022436396360632
 21
-89.0000000000000142
 31
0.0
  0
LINE
  5
D1
100
AcDbEntity
100
AcDbLine
  8
drawing-valve
 62
256
370
-1
  6
ByLayer
 10
-56.6072436396360672
 20
-47.0800000000000125
 30
0.0
 11
-43.3972436396360592
 21
-47.0800000000000125
 31
0.0
  0
LINE
  5
D2
100
AcDbEntity
100
AcDbLine
  8
drawing-valve
 62
256
370
-1
  6
ByLayer
 10
-43.3972436396360592
 20
-47.0800000000000125
 30
0.0
 11
-43.3972436396360592
 21
-58.0000000000000142
 31
0.0
  0
LINE
  5
D3
100
AcDbEntity
100
AcDbLine
  8
drawing-valve
 62
256
370
-1
  6
ByLayer
 10
-56.6072436396360672
 20
-47.0800000000000125
 30
0.0
 11
-56.6072436396360672
 21
-58.0000000000000142
 31
0.0
  0
LINE
  5
D4
100
AcDbEntity
100
AcDbLine
  8
drawing-valve
 62
256
370
-1
  6
ByLayer
 10
-56.6072436396360672
 20
-58.0000000000000142
 30
0.0
 11
-43.3972436396360592
 21
-58.0000000000000142
 31
0.0
  0
LINE
  5
D5
100
AcDbEntity
100
AcDbLine
  8
drawing-valve
 62
256
370
-1
  6
ByLayer
 10
-3.0022436396360845
 20
-56.6499999999901291
 30
0.0
 11
-3.0022436396360845
 21
-89.0
 31
0.0
  0
LINE
  5
D6
100
AcDbEntity
100
AcDbLine
  8
drawing-valve
 62
256
370
-1
  6
ByLayer
 10
-3.0022436396360845
 20
-38.9999999999999147
 30
0.0
 11
22.9977563603639155
 21
-38.9999999999999147
 31
0.0
  0
LINE
  5
D7
100
AcDbEntity
100
AcDbLine
  8
drawing-valve
 62
256
370
-1
  6
ByLayer
 10
-3.0022436396360845
 20
-38.9999999999999147
 30
0.0
 11
-3.0022436396360845
 21
-88.9999999999999147
 31
0.0
  0
LINE
  5
D8
100
AcDbEntity
100
AcDbLine
  8
drawing-valve
 62
256
370
-1
  6
ByLayer
 10
22.9977563603639155
 20
-38.9999999999999147
 30
0.0
 11
22.9977563603639155
 21
-88.9999999999999147
 31
0.0
  0
LINE
  5
D9
100
AcDbEntity
100
AcDbLine
  8
drawing-valve
 62
256
370
-1
  6
ByLayer
 10
-3.0022436396360845
 20
-88.9999999999999147
 30
0.0
 11
22.9977563603639155
 21
-88.9999999999999147
 31
0.0
  0
LINE
  5
DA
100
AcDbEntity
100
AcDbLine
  8
drawing-valve
 62
256
370
-1
  6
ByLayer
 10
5.681966886679696
 20
-27.9999999999999147
 30
0.0
 11
-3.0022436396360845
 21
-38.9999999999999147
 31
0.0
  0
LINE
  5
DB
100
AcDbEntity
100
AcDbLine
  8
drawing-valve
 62
256
370
-1
  6
ByLayer
 10
14.3135458340481279
 20
-27.9999999999999147
 30
0.0
 11
22.9977563603639155
 21
-38.9999999999999147
 31
0.0
  0
LINE
  5
DC
100
AcDbEntity
100
AcDbLine
  8
drawing-valve
 62
256
370
-1
  6
ByLayer
 10
5.681966886679696
 20
-27.9999999999999147
 30
0.0
 11
14.3135458340481279
 21
-27.9999999999999147
 31
0.0
  0
LINE
  5
DD
100
AcDbEntity
100
AcDbLine
  8
drawing-valve
 62
256
370
-1
  6
ByLayer
 10
9.9977563603639155
 20
-27.9999999999999147
 30
0.0
 11
9.9977563603639155
 21
-88.9999999999999147
 31
0.0
  0
LINE
  5
DE
100
AcDbEntity
100
AcDbLine
  8
drawing-valve
 62
256
370
-1
  6
ByLayer
 10
3.3927563603639115
 20
-47.079999999999913
 30
0.0
 11
16.6027563603639194
 21
-47.079999999999913
 31
0.0
  0
LINE
  5
DF
100
AcDbEntity
100
AcDbLine
  8
drawing-valve
 62
256
370
-1
  6
ByLayer
 10
16.6027563603639194
 20
-47.079999999999913
 30
0.0
 11
16.6027563603639194
 21
-57.9999999999999147
 31
0.0
  0
LINE
  5
E0
100
AcDbEntity
100
AcDbLine
  8
drawing-valve
 62
256
370
-1
  6
ByLayer
 10
3.3927563603639115
 20
-47.079999999999913
 30
0.0
 11
3.3927563603639115
 21
-57.9999999999999147
 31
0.0
  0
LINE
  5
E1
100
AcDbEntity
100
AcDbLine
  8
drawing-valve
 62
256
370
-1
  6
ByLayer
 10
3.3927563603639115
 20
-57.9999999999999147
 30
0.0
 11
16.6027563603639194
 21
-57.9999999999999147
 31
0.0
  0
MTEXT
  5
E2
100
AcDbEntity
100
AcDbMText
  8
text
 62
256
370
-1
  6
ByLayer
 10
54.9977563603639794
 20
62.5
 30
0.0
 40
3.0
 41
100.0
 71
5
 72
2
  1
Syringe\~Bottom
  7
standard
 50
0.0
 73
1
 44
1.0
  0
ARC
  5
E3
100
AcDbEntity
  8
text
 62
256
370
-1
  6
ByLayer
100
AcDbCircle
 10
44.5912733534433769
 20
150.4338926463024109
 30
0.0
 40
2.208333333333333
100
AcDbArc
 50
63.0745999999999896
 51
90.0
  0
ARC
  5
E4
100
AcDbEntity
  8
text
 62
256
370
-1
  6
ByLayer
100
AcDbCircle
 10
44.5912733534433769
 20
151.9755593129690965
 30
0.0
 40
0.6666666666666666
100
AcDbArc
 50
90.0
 51
242.9809999999999945
  0
LINE
  5
E5
100
AcDbEntity
100
AcDbLine
  8
text
 62
256
370
-1
  6
ByLayer
 10
44.2884166867767135
 20
151.3816559796357524
 30
0.0
 11
45.2274633534433761
 21
150.902795979635755
 31
0.0
  0
ARC
  5
E6
100
AcDbEntity
  8
text
 62
256
370
-1
  6
ByLayer
100
AcDbCircle
 10
44.9246066867767126
 20
150.3088926463024109
 30
0.0
 40
0.6666666666666666
100
AcDbArc
 50
270.0
 51
62.9812000000000012
  0
ARC
  5
E7
100
AcDbEntity
  8
text
 62
256
370
-1
  6
ByLayer
100
AcDbCircle
 10
44.9246066867767126
 20
151.8505593129690965
 30
0.0
 40
2.208333333333333
100
AcDbArc
 50
243.0749999999999602
 51
270.0
  0
LINE
  5
E8
100
AcDbEntity
100
AcDbLine
  8
text
 62
256
370
-1
  6
ByLayer
 10
46.5912733534433769
 20
151.6422259796357537
 30
0.0
 11
47.2579400201100484
 21
149.6422259796357537
 31
0.0
  0
LINE
  5
E9
100
AcDbEntity
100
AcDbLine
  8
text
 62
256
370
-1
  6
ByLayer
 10
47.9246066867767055
 20
151.6422259796357537
 30
0.0
 11
47.0005766867767107
 21
148.8701493129690903
 31
0.0
  0
ARC
  5
EA
100
AcDbEntity
  8
text
 62
256
370
-1
  6
ByLayer
100
AcDbCircle
 10
46.6843723534433721
 20
148.9755593129690965
 30
0.0
 40
0.3333333333333333
100
AcDbArc
 50
270.0
 51
341.5649999999999977
  0
LINE
  5
EB
100
AcDbEntity
100
AcDbLine
  8
text
 62
256
370
-1
  6
ByLayer
 10
46.6843723534433721
 20
148.6422259796357537
 30
0.0
 11
46.5912733534433769
 21
148.6422259796357537
 31
0.0
  0
LINE
  5
EC
100
AcDbEntity
100
AcDbLine
  8
text
 62
256
370
-1
  6
ByLayer
 10
48.9246066867767126
 20
149.6422259796357537
 30
0.0
 11
48.9246066867767126
 21
151.6422259796357537
 31
0.0
  0
LINE
  5
ED
100
AcDbEntity
100
AcDbLine
  8
text
 62
256
370
-1
  6
ByLayer
 10
48.9246066867767126
 20
151.6422259796357537
 30
0.0
 11
49.5912733534433769
 21
151.6422259796357537
 31
0.0
  0
ARC
  5
EE
100
AcDbEntity
  8
text
 62
256
370
-1
  6
ByLayer
100
AcDbCircle
 10
49.5912733534433769
 20
151.3088926463024109
 30
0.0
 40
0.3333333333333333
100
AcDbArc
 50
0.0
 51
90.0
  0
LINE
  5
EF
100
AcDbEntity
100
AcDbLine
  8
text
 62
256
370
-1
  6
ByLayer
 10
50.9246066867767126
 20
149.6422259796357537
 30
0.0
 11
50.9246066867767126
 21
151.6422259796357537
 31
0.0
  0
LINE
  5
F0
100
AcDbEntity
100
AcDbLine
  8
text
 62
256
370
-1
  6
ByLayer
 10
50.9246066867767126
 20
152.4755593129690965
 30
0.0
 11
50.9246066867767126
 21
152.6422259796357537
 31
0.0
  0
LINE
  5
F1
100
AcDbEntity
100
AcDbLine
  8
text
 62
256
370
-1
  6
ByLayer
 10
51.9246066867767126
 20
149.6422259796357537
 30
0.0
 11
51.9246066867767126
 21
151.6422259796357537
 31
0.0
  0
LINE
  5
F2
100
AcDbEntity
100
AcDbLine
  8
text
 62
256
370
-1
  6
ByLayer
 10
51.9246066867767126
 20
151.6422259796357537
 30
0.0
 11
52.7579400201100484
 21
151.6422259796357537
 31
0.0
  0
ARC
  5
F3
100
AcDbEntity
  8
text
 62
256
370
-1
  6
ByLayer
100
AcDbCircle
 10
52.7579400201100484
 20
151.1422259796357537
 30
0.0
 40
0.5
100
AcDbArc
 50
0.0
 51
90.0
  0
LINE
  5
F4
100
AcDbEntity
100
AcDbLine
  8
text
 62
256
370
-1
  6
ByLayer
 10
53.2579400201100484
 20
151.1422259796357537
 30
0.0
 11
53.2579400201100484
 21
149.6422259796357537
 31
0.0
  0
LINE
  5
F5
100
AcDbEntity
100
AcDbLine
  8
text
 62
256
370
-1
  6
ByLayer
 10
54.2579400201100484
 20
148.6422259796357537
 30
0.0
 11
55.0912733534433769
 21
148.6422259796357537
 31
0.0
  0
ARC
  5
F6
100
AcDbEntity
  8
text
 62
256
370
-1
  6
ByLayer
100
AcDbCircle
 10
55.0912733534433769
 20
149.1422259796357537
 30
0.0
 40
0.5
100
AcDbArc
 50
270.0
 51
0.0
  0
LINE
  5
F7
100
AcDbEntity
100
AcDbLine
  8
text
 62
256
370
-1
  6
ByLayer
 10
55.5912733534433769
 20
149.1422259796357537
 30
0.0
 11
55.5912733534433769
 21
151.6422259796357537
 31
0.0
  0
LINE
  5
F8
100
AcDbEntity
100
AcDbLine
  8
text
 62
256
370
-1
  6
ByLayer
 10
55.5912733534433769
 20
151.6422259796357537
 30
0.0
 11
54.7579400201100484
 21
151.6422259796357537
 31
0.0
  0
ARC
  5
F9
100
AcDbEntity
  8
text
 62
256
370
-1
  6
ByLayer
100
AcDbCircle
 10
54.7579400201100484
 20
151.1422259796357537
 30
0.0
 40
0.5
100
AcDbArc
 50
90.0
 51
180.0
  0
LINE
  5
FA
100
AcDbEntity
100
AcDbLine
  8
text
 62
256
370
-1
  6
ByLayer
 10
54.2579400201100484
 20
151.1422259796357537
 30
0.0
 11
54.2579400201100484
 21
150.1422259796357537
 31
0.0
  0
ARC
  5
FB
100
AcDbEntity
  8
text
 62
256
370
-1
  6
ByLayer
100
AcDbCircle
 10
54.7579400201100484
 20
150.1422259796357537
 30
0.0
 40
0.5
100
AcDbArc
 50
180.0
 51
270.0
  0
LINE
  5
FC
100
AcDbEntity
100
AcDbLine
  8
text
 62
256
370
-1
  6
ByLayer
 10
54.7579400201100484
 20
149.6422259796357537
 30
0.0
 11
55.5912733534433769
 21
149.6422259796357537
 31
0.0
  0
LINE
  5
FD
100
AcDbEntity
100
AcDbLine
  8
text
 62
256
370
-1
  6
ByLayer
 10
56.5912733534433769
 20
150.6422259796357537
 30
0.0
 11
57.9246066867767126
 21
150.6422259796357537
 31
0.0
  0
LINE
  5
FE
100
AcDbEntity
100
AcDbLine
  8
text
 62
256
370
-1
  6
ByLayer
 10
57.9246066867767126
 20
150.6422259796357537
 30
0.0
 11
57.9246066867767126
 21
150.9755593129690965
 31
0.0
  0
ARC
  5
FF
100
AcDbEntity
  8
text
 62
256
370
-1
  6
ByLayer
100
AcDbCircle
 10
57.2579400201100412
 20
150.9755593129690965
 30
0.0
 40
0.6666666666666666
100
AcDbArc
 50
0.0
 51
180.0
  0
LINE
  5
100
100
AcDbEntity
100
AcDbLine
  8
text
 62
256
370
-1
  6
ByLayer
 10
56.5912733534433769
 20
150.9755593129690965
 30
0.0
 11
56.5912733534433769
 21
150.1422259796357537
 31
0.0
  0
ARC
  5
101
100
AcDbEntity
  8
text
 62
256
370
-1
  6
ByLayer
100
AcDbCircle
 10
57.0912733534433769
 20
150.1422259796357537
 30
0.0
 40
0.5
100
AcDbArc
 50
180.0
 51
270.0
  0
LINE
  5
102
100
AcDbEntity
100
AcDbLine
  8
text
 62
256
370
-1
  6
ByLayer
 10
57.0912733534433769
 20
149.6422259796357537
 30
0.0
 11
57.9246066867767126
 21
149.6422259796357537
 31
0.0
  0
LINE
  5
103
100
AcDbEntity
100
AcDbLine
  8
text
 62
256
370
-1
  6
ByLayer
 10
61.1746066867767126
 20
152.6422259796357537
 30
0.0
 11
63.1746066867767198
 21
152.6422259796357537
 31
0.0
  0
LINE
  5
104
100
AcDbEntity
100
AcDbLine
  8
text
 62
256
370
-1
  6
ByLayer
 10
62.1746066867767126
 20
152.6422259796357537
 30
0.0
 11
62.1746066867767126
 21
149.6422259796357537
 31
0.0
  0
LINE
  5
105
100
AcDbEntity
100
AcDbLine
  8
text
 62
256
370
-1
  6
ByLayer
 10
64.1746066867767126
 20
150.9755593129690965
 30
0.0
 11
64.1746066867767126
 21
150.3088926463024109
 31
0.0
  0
ARC
  5
106
100
AcDbEntity
  8
text
 62
256
370
-1
  6
ByLayer
100
AcDbCircle
 10
64.8412733534433698
 20
150.3088926463024109
 30
0.0
 40
0.6666666666666666
100
AcDbArc
 50
180.0
 51
0.0
  0
LINE
  5
107
100
AcDbEntity
100
AcDbLine
  8
text
 62
256
370
-1
  6
ByLayer
 10
65.5079400201100555
 20
150.3088926463024109
 30
0.0
 11
65.5079400201100555
 21
150.9755593129690965
 31
0.0
  0
ARC
  5
108
100
AcDbEntity
  8
text
 62
256
370
-1
  6
ByLayer
100
AcDbCircle
 10
64.8412733534433698
 20
150.9755593129690965
 30
0.0
 40
0.6666666666666666
100
AcDbArc
 50
0.0
 51
180.0
  0
LINE
  5
109
100
AcDbEntity
100
AcDbLine
  8
text
 62
256
370
-1
  6
ByLayer
 10
66.507940020110027
 20
149.6422259796357537
 30
0.0
 11
67.3412733534433698
 21
149.6422259796357537
 31
0.0
  0
ARC
  5
10A
100
AcDbEntity
  8
text
 62
256
370
-1
  6
ByLayer
100
AcDbCircle
 10
67.3412733534433698
 20
150.1422259796357537
 30
0.0
 40
0.5
100
AcDbArc
 50
270.0
 51
0.0
  0
LINE
  5
10B
100
AcDbEntity
100
AcDbLine
  8
text
 62
256
370
-1
  6
ByLayer
 10
67.8412733534433698
 20
150.1422259796357537
 30
0.0
 11
67.8412733534433698
 21
151.1422259796357537
 31
0.0
  0
ARC
  5
10C
100
AcDbEntity
  8
text
 62
256
370
-1
  6
ByLayer
100
AcDbCircle
 10
67.3412733534433698
 20
151.1422259796357537
 30
0.0
 40
0.5
100
AcDbArc
 50
0.0
 51
90.0
  0
LINE
  5
10D
100
AcDbEntity
100
AcDbLine
  8
text
 62
256
370
-1
  6
ByLayer
 10
67.3412733534433698
 20
151.6422259796357537
 30
0.0
 11
66.5079400201100555
 21
151.6422259796357537
 31
0.0
  0
LINE
  5
10E
100
AcDbEntity
100
AcDbLine
  8
text
 62
256
370
-1
  6
ByLayer
 10
66.5079400201100555
 20
151.6422259796357537
 30
0.0
 11
66.507940020110027
 21
148.6422259796357537
 31
0.0
  0
LINE
  5
10F
100
AcDbEntity
100
AcDbLine
  8
text
 62
256
370
-1
  6
ByLayer
 10
-31.7260560946457133
 20
-74.6805523126538588
 30
0.0
 11
-31.8497998179371393
 21
-74.6051110943640765
 31
0.0
  0
LINE
  5
110
100
AcDbEntity
100
AcDbLine
  8
text
 62
256
370
-1
  6
ByLayer
 10
-31.8497998179371393
 20
-74.6051110943640765
 30
0.0
 11
-31.9663240002800535
 21
-74.5256768167326555
 31
0.0
  0
LINE
  5
111
100
AcDbEntity
100
AcDbLine
  8
text
 62
256
370
-1
  6
ByLayer
 10
-31.9663240002800535
 20
-74.5256768167326555
 30
0.0
 11
-32.0758430594787285
 21
-74.4403713191630914
 31
0.0
  0
LINE
  5
112
100
AcDbEntity
100
AcDbLine
  8
text
 62
256
370
-1
  6
ByLayer
 10
-32.0758430594787285
 20
-74.4403713191630914
 30
0.0
 11
-32.1785714133374938
 21
-74.3473164410587088
 31
0.0
  0
LINE
  5
113
100
AcDbEntity
100
AcDbLine
  8
text
 62
256
370
-1
  6
ByLayer
 10
-32.1785714133374938
 20
-74.3473164410587088
 30
0.0
 11
-32.2747234796606506
 21
-74.2446340218229039
 31
0.0
  0
LINE
  5
114
100
AcDbEntity
100
AcDbLine
  8
text
 62
256
370
-1
  6
ByLayer
 10
-32.2747234796606506
 20
-74.2446340218229039
 30
0.0
 11
-32.3645136762524999
 21
-74.1304459008591721
 31
0.0
  0
LINE
  5
115
100
AcDbEntity
100
AcDbLine
  8
text
 62
256
370
-1
  6
ByLayer
 10
-32.3645136762524999
 20
-74.1304459008591721
 30
0.0
 11
-32.4481564209173428
 21
-74.0028739175708097
 31
0.0
  0
LINE
  5
116
100
AcDbEntity
100
AcDbLine
  8
text
 62
256
370
-1
  6
ByLayer
 10
-32.4481564209173428
 20
-74.0028739175708097
 30
0.0
 11
-32.5258661314595088
 21
-73.8600399113612838
 31
0.0
  0
LINE
  5
117
100
AcDbEntity
100
AcDbLine
  8
text
 62
256
370
-1
  6
ByLayer
 10
-32.5258661314595088
 20
-73.8600399113612838
 30
0.0
 11
-32.5978572256833274
 21
-73.7000657216339334
 31
0.0
  0
LINE
  5
118
100
AcDbEntity
100
AcDbLine
  8
text
 62
256
370
-1
  6
ByLayer
 10
-32.5978572256833274
 20
-73.7000657216339334
 30
0.0
 11
-32.6643441213930998
 21
-73.5210731877922115
 31
0.0
  0
LINE
  5
119
100
AcDbEntity
100
AcDbLine
  8
text
 62
256
370
-1
  6
ByLayer
 10
-32.6643441213930998
 20
-73.5210731877922115
 30
0.0
 11
-32.7255412363930986
 21
-73.3211841492395138
 31
0.0
  0
LINE
  5
11A
100
AcDbEntity
100
AcDbLine
  8
text
 62
256
370
-1
  6
ByLayer
 10
-32.7255412363930986
 20
-73.3211841492395138
 30
0.0
 11
-32.7816629884876818
 21
-73.0985204453792221
 31
0.0
  0
LINE
  5
11B
100
AcDbEntity
100
AcDbLine
  8
text
 62
256
370
-1
  6
ByLayer
 10
-32.7816629884876818
 20
-73.0985204453792221
 30
0.0
 11
-32.8329237954811219
 21
-72.8512039156147182
 31
0.0
  0
LINE
  5
11C
100
AcDbEntity
100
AcDbLine
  8
text
 62
256
370
-1
  6
ByLayer
 10
-32.8329237954811219
 20
-72.8512039156147182
 30
0.0
 11
-32.879538075177777
 21
-72.5773563993494406
 31
0.0
  0
LINE
  5
11D
100
AcDbEntity
100
AcDbLine
  8
text
 62
256
370
-1
  6
ByLayer
 10
-32.879538075177777
 20
-72.5773563993494406
 30
0.0
 11
-32.9217202453819198
 21
-72.2750997359867995
 31
0.0
  0
LINE
  5
11E
100
AcDbEntity
100
AcDbLine
  8
text
 62
256
370
-1
  6
ByLayer
 10
-32.9217202453819198
 20
-72.2750997359867995
 30
0.0
 11
-32.9596847238978796
 21
-71.9425557649301481
 31
0.0
  0
LINE
  5
11F
100
AcDbEntity
100
AcDbLine
  8
text
 62
256
370
-1
  6
ByLayer
 10
-32.9596847238978796
 20
-71.9425557649301481
 30
0.0
 11
-32.9936459285299293
 21
-71.5778463255828967
 31
0.0
  0
LINE
  5
120
100
AcDbEntity
100
AcDbLine
  8
text
 62
256
370
-1
  6
ByLayer
 10
-32.9936459285299293
 20
-71.5778463255828967
 30
0.0
 11
-33.0238182770823983
 21
-71.1790932573485122
 31
0.0
  0
LINE
  5
121
100
AcDbEntity
100
AcDbLine
  8
text
 62
256
370
-1
  6
ByLayer
 10
-33.0238182770823983
 20
-71.1790932573485122
 30
0.0
 11
-33.0504161873596445
 21
-70.7444183996303053
 31
0.0
  0
LINE
  5
122
100
AcDbEntity
100
AcDbLine
  8
text
 62
256
370
-1
  6
ByLayer
 10
-33.0504161873596445
 20
-70.7444183996303053
 30
0.0
 11
-33.0736540771659406
 21
-70.2719435918317146
 31
0.0
  0
LINE
  5
123
100
AcDbEntity
100
AcDbLine
  8
text
 62
256
370
-1
  6
ByLayer
 10
-33.0736540771659406
 20
-70.2719435918317146
 30
0.0
 11
-33.0937463643055878
 21
-69.7597906733561501
 31
0.0
  0
LINE
  5
124
100
AcDbEntity
100
AcDbLine
  8
text
 62
256
370
-1
  6
ByLayer
 10
-33.0937463643055878
 20
-69.7597906733561501
 30
0.0
 11
-33.1109074665828871
 21
-69.2060814836069937
 31
0.0
  0
LINE
  5
125
100
AcDbEntity
100
AcDbLine
  8
text
 62
256
370
-1
  6
ByLayer
 10
-33.1109074665828871
 20
-69.2060814836069937
 30
0.0
 11
-33.125351801802168
 21
-68.6089378619876413
 31
0.0
  0
LINE
  5
126
100
AcDbEntity
100
AcDbLine
  8
text
 62
256
370
-1
  6
ByLayer
 10
-33.125351801802168
 20
-68.6089378619876413
 30
0.0
 11
-33.13729378776776
 21
-67.966481647901503
 31
0.0
  0
LINE
  5
127
100
AcDbEntity
100
AcDbLine
  8
text
 62
256
370
-1
  6
ByLayer
 10
-33.13729378776776
 20
-67.966481647901503
 30
0.0
 11
-33.1469478422839643
 21
-67.276834680751989
 31
0.0
  0
LINE
  5
128
100
AcDbEntity
100
AcDbLine
  8
text
 62
256
370
-1
  6
ByLayer
 10
-33.1469478422839643
 20
-67.276834680751989
 30
0.0
 11
-33.1545283831550535
 21
-66.5381187999425237
 31
0.0
  0
LINE
  5
129
100
AcDbEntity
100
AcDbLine
  8
text
 62
256
370
-1
  6
ByLayer
 10
-33.1545283831550535
 20
-66.5381187999425237
 30
0.0
 11
-33.160249828185357
 21
-65.7484558448764318
 31
0.0
  0
LINE
  5
12A
100
AcDbEntity
100
AcDbLine
  8
text
 62
256
370
-1
  6
ByLayer
 10
-33.160249828185357
 20
-65.7484558448764318
 30
0.0
 11
-33.164326595179233
 21
-64.9059676549571805
 31
0.0
  0
LINE
  5
12B
100
AcDbEntity
100
AcDbLine
  8
text
 62
256
370
-1
  6
ByLayer
 10
-33.164326595179233
 20
-64.9059676549571805
 30
0.0
 11
-33.1669731019409255
 21
-64.0087760695881371
 31
0.0
  0
LINE
  5
12C
100
AcDbEntity
100
AcDbLine
  8
text
 62
256
370
-1
  6
ByLayer
 10
-33.1669731019409255
 20
-64.0087760695881371
 30
0.0
 11
-33.1684037662747926
 21
-63.055002928172712
 31
0.0
  0
LINE
  5
12D
100
AcDbEntity
100
AcDbLine
  8
text
 62
256
370
-1
  6
ByLayer
 10
-33.1684037662747926
 20
-63.055002928172712
 30
0.0
 11
-33.1688330059851069
 21
-62.0427700701142868
 31
0.0
  0
LINE
  5
12E
100
AcDbEntity
100
AcDbLine
  8
text
 62
256
370
-1
  6
ByLayer
 10
-33.1688330059851069
 20
-62.0427700701142868
 30
0.0
 11
-33.1683816279504811
 21
-60.9294511999247987
 31
0.0
  0
LINE
  5
12F
100
AcDbEntity
100
AcDbLine
  8
text
 62
256
370
-1
  6
ByLayer
 10
-33.1683816279504811
 20
-60.9294511999247987
 30
0.0
 11
-33.1668193976451562
 21
-59.8816277059016926
 31
0.0
  0
LINE
  5
130
100
AcDbEntity
100
AcDbLine
  8
text
 62
256
370
-1
  6
ByLayer
 10
-33.1668193976451562
 20
-59.8816277059016926
 30
0.0
 11
-33.1638341707667621
 21
-58.8969123340339848
 31
0.0
  0
LINE
  5
131
100
AcDbEntity
100
AcDbLine
  8
text
 62
256
370
-1
  6
ByLayer
 10
-33.1638341707667621
 20
-58.8969123340339848
 30
0.0
 11
-33.1591138030130423
 21
-57.9729178303108625
 31
0.0
  0
LINE
  5
132
100
AcDbEntity
100
AcDbLine
  8
text
 62
256
370
-1
  6
ByLayer
 10
-33.1591138030130423
 20
-57.9729178303108625
 30
0.0
 11
-33.1523461500816836
 21
-57.1072569407212569
 31
0.0
  0
LINE
  5
133
100
AcDbEntity
100
AcDbLine
  8
text
 62
256
370
-1
  6
ByLayer
 10
-33.1523461500816836
 20
-57.1072569407212569
 30
0.0
 11
-33.143219067670401
 21
-56.2975424112542839
 31
0.0
  0
LINE
  5
134
100
AcDbEntity
100
AcDbLine
  8
text
 62
256
370
-1
  6
ByLayer
 10
-33.143219067670401
 20
-56.2975424112542839
 30
0.0
 11
-33.1314204114768529
 21
-55.5413869878990312
 31
0.0
  0
LINE
  5
135
100
AcDbEntity
100
AcDbLine
  8
text
 62
256
370
-1
  6
ByLayer
 10
-33.1314204114768529
 20
-55.5413869878990312
 30
0.0
 11
-33.1166380371987827
 21
-54.8364034166445009
 31
0.0
  0
LINE
  5
136
100
AcDbEntity
100
AcDbLine
  8
text
 62
256
370
-1
  6
ByLayer
 10
-33.1166380371987827
 20
-54.8364034166445009
 30
0.0
 11
-33.0985598005338204
 21
-54.1802044434797665
 31
0.0
  0
LINE
  5
137
100
AcDbEntity
100
AcDbLine
  8
text
 62
256
370
-1
  6
ByLayer
 10
-33.0985598005338204
 20
-54.1802044434797665
 30
0.0
 11
-33.0768735571797379
 21
-53.5704028143938871
 31
0.0
  0
LINE
  5
138
100
AcDbEntity
100
AcDbLine
  8
text
 62
256
370
-1
  6
ByLayer
 10
-33.0768735571797379
 20
-53.5704028143938871
 30
0.0
 11
-33.051267162834165
 21
-53.004611275375936
 31
0.0
  0
LINE
  5
139
100
AcDbEntity
100
AcDbLine
  8
text
 62
256
370
-1
  6
ByLayer
 10
-33.051267162834165
 20
-53.004611275375936
 30
0.0
 11
-33.0214284731948169
 21
-52.4804425724149581
 31
0.0
  0
LINE
  5
13A
100
AcDbEntity
100
AcDbLine
  8
text
 62
256
370
-1
  6
ByLayer
 10
-33.0214284731948169
 20
-52.4804425724149581
 30
0.0
 11
-32.9870453439594371
 21
-51.9955094515000269
 31
0.0
  0
LINE
  5
13B
100
AcDbEntity
100
AcDbLine
  8
text
 62
256
370
-1
  6
ByLayer
 10
-32.9870453439594371
 20
-51.9955094515000269
 30
0.0
 11
-32.9478056308256555
 21
-51.547424658620173
 31
0.0
  0
LINE
  5
13C
100
AcDbEntity
100
AcDbLine
  8
text
 62
256
370
-1
  6
ByLayer
 10
-32.9478056308256555
 20
-51.547424658620173
 30
0.0
 11
-32.9033971894911872
 21
-51.1338009397644697
 31
0.0
  0
LINE
  5
13D
100
AcDbEntity
100
AcDbLine
  8
text
 62
256
370
-1
  6
ByLayer
 10
-32.9033971894911872
 20
-51.1338009397644697
 30
0.0
 11
-32.8535078756537473
 21
-50.7522510409219905
 31
0.0
  0
LINE
  5
13E
100
AcDbEntity
100
AcDbLine
  8
text
 62
256
370
-1
  6
ByLayer
 10
-32.8535078756537473
 20
-50.7522510409219905
 30
0.0
 11
-32.7978255450110225
 21
-50.4003877080817659
 31
0.0
  0
LINE
  5
13F
100
AcDbEntity
100
AcDbLine
  8
text
 62
256
370
-1
  6
ByLayer
 10
-32.7978255450110225
 20
-50.4003877080817659
 30
0.0
 11
-32.7360380532606712
 21
-50.0758236872328695
 31
0.0
  0
LINE
  5
140
100
AcDbEntity
100
AcDbLine
  8
text
 62
256
370
-1
  6
ByLayer
 10
-32.7360380532606712
 20
-50.0758236872328695
 30
0.0
 11
-32.6678332561004652
 21
-49.7761717243643744
 31
0.0
  0
LINE
  5
141
100
AcDbEntity
100
AcDbLine
  8
text
 62
256
370
-1
  6
ByLayer
 10
-32.6678332561004652
 20
-49.7761717243643744
 30
0.0
 11
-32.5928990092280344
 21
-49.4990445654653115
 31
0.0
  0
LINE
  5
142
100
AcDbEntity
100
AcDbLine
  8
text
 62
256
370
-1
  6
ByLayer
 10
-32.5928990092280344
 20
-49.4990445654653115
 30
0.0
 11
-32.5109231683410655
 21
-49.2420549565247399
 31
0.0
  0
LINE
  5
143
100
AcDbEntity
100
AcDbLine
  8
text
 62
256
370
-1
  6
ByLayer
 10
-32.5109231683410655
 20
-49.2420549565247399
 30
0.0
 11
-32.4215935891373022
 21
-49.0028156435317612
 31
0.0
  0
LINE
  5
144
100
AcDbEntity
100
AcDbLine
  8
text
 62
256
370
-1
  6
ByLayer
 10
-32.4215935891373022
 20
-49.0028156435317612
 30
0.0
 11
-32.3245981273144594
 21
-48.7789393724753637
 31
0.0
  0
LINE
  5
145
100
AcDbEntity
100
AcDbLine
  8
text
 62
256
370
-1
  6
ByLayer
 10
-32.3245981273144594
 20
-48.7789393724753637
 30
0.0
 11
-32.2196246385701386
 21
-48.5680388893446633
 31
0.0
  0
LINE
  5
146
100
AcDbEntity
100
AcDbLine
  8
text
 62
256
370
-1
  6
ByLayer
 10
-32.2196246385701386
 20
-48.5680388893446633
 30
0.0
 11
-32.1063609786021402
 21
-48.3677269401286765
 31
0.0
  0
LINE
  5
147
100
AcDbEntity
100
AcDbLine
  8
text
 62
256
370
-1
  6
ByLayer
 10
-32.1063609786021402
 20
-48.3677269401286765
 30
0.0
 11
-31.9844950031080657
 21
-48.175616270816505
 31
0.0
  0
LINE
  5
148
100
AcDbEntity
100
AcDbLine
  8
text
 62
256
370
-1
  6
ByLayer
 10
-31.9844950031080657
 20
-48.175616270816505
 30
0.0
 11
-31.853714567785687
 21
-47.9893196273971796
 31
0.0
  0
LINE
  5
149
100
AcDbEntity
100
AcDbLine
  8
text
 62
256
370
-1
  6
ByLayer
 10
-31.853714567785687
 20
-47.9893196273971796
 30
0.0
 11
-31.7137075283326908
 21
-47.8064497558597594
 31
0.0
  0
LINE
  5
14A
100
AcDbEntity
100
AcDbLine
  8
text
 62
256
370
-1
  6
ByLayer
 10
-31.7137075283326908
 20
-47.8064497558597594
 30
0.0
 11
-31.5641617404466786
 21
-47.6246194021933036
 31
0.0
  0
LINE
  5
14B
100
AcDbEntity
100
AcDbLine
  8
text
 62
256
370
-1
  6
ByLayer
 10
-31.5641617404466786
 20
-47.6246194021933036
 30
0.0
 11
-31.4047650598254791
 21
-47.4414413123868854
 31
0.0
  0
LINE
  5
14C
100
AcDbEntity
100
AcDbLine
  8
text
 62
256
370
-1
  6
ByLayer
 10
-31.4047650598254791
 20
-47.4414413123868854
 30
0.0
 11
-31.2352053421666938
 21
-47.2545282324295499
 31
0.0
  0
LINE
  5
14D
100
AcDbEntity
100
AcDbLine
  8
text
 62
256
370
-1
  6
ByLayer
 10
-31.2352053421666938
 20
-47.2545282324295499
 30
0.0
 11
-31.0545906658968534
 21
-47.0619541903563317
 31
0.0
  0
LINE
  5
14E
100
AcDbEntity
100
AcDbLine
  8
text
 62
256
370
-1
  6
ByLayer
 10
-31.0545906658968534
 20
-47.0619541903563317
 30
0.0
 11
-30.8770724835984822
 21
-46.880405211770352
 31
0.0
  0
LINE
  5
14F
100
AcDbEntity
100
AcDbLine
  8
text
 62
256
370
-1
  6
ByLayer
 10
-30.8770724835984822
 20
-46.880405211770352
 30
0.0
 11
-30.7010750416187079
 21
-46.709561866376788
 31
0.0
  0
LINE
  5
150
100
AcDbEntity
100
AcDbLine
  8
text
 62
256
370
-1
  6
ByLayer
 10
-30.7010750416187079
 20
-46.709561866376788
 30
0.0
 11
-30.525022586304658
 21
-46.549104723880788
 31
0.0
  0
LINE
  5
151
100
AcDbEntity
100
AcDbLine
  8
text
 62
256
370
-1
  6
ByLayer
 10
-30.525022586304658
 20
-46.549104723880788
 30
0.0
 11
-30.3473393640034601
 21
-46.3987143539875433
 31
0.0
  0
LINE
  5
152
100
AcDbEntity
100
AcDbLine
  8
text
 62
256
370
-1
  6
ByLayer
 10
-30.3473393640034601
 20
-46.3987143539875433
 30
0.0
 11
-30.1664496210622417
 21
-46.2580713264023018
 31
0.0
  0
LINE
  5
153
100
AcDbEntity
100
AcDbLine
  8
text
 62
256
370
-1
  6
ByLayer
 10
-30.1664496210622417
 20
-46.2580713264023018
 30
0.0
 11
-29.9807776038281588
 21
-46.1268562108301268
 31
0.0
  0
LINE
  5
154
100
AcDbEntity
100
AcDbLine
  8
text
 62
256
370
-1
  6
ByLayer
 10
-29.9807776038281588
 20
-46.1268562108301268
 30
0.0
 11
-29.7887475586483674
 21
-46.004749576976252
 31
0.0
  0
LINE
  5
155
100
AcDbEntity
100
AcDbLine
  8
text
 62
256
370
-1
  6
ByLayer
 10
-29.7887475586483674
 20
-46.004749576976252
 30
0.0
 11
-29.5887837318699667
 21
-45.8914319945458686
 31
0.0
  0
LINE
  5
156
100
AcDbEntity
100
AcDbLine
  8
text
 62
256
370
-1
  6
ByLayer
 10
-29.5887837318699667
 20
-45.8914319945458686
 30
0.0
 11
-29.3793103698400841
 21
-45.7865840332441394
 31
0.0
  0
LINE
  5
157
100
AcDbEntity
100
AcDbLine
  8
text
 62
256
370
-1
  6
ByLayer
 10
-29.3793103698400841
 20
-45.7865840332441394
 30
0.0
 11
-29.1587517189058474
 21
-45.689886262776227
 31
0.0
  0
LINE
  5
158
100
AcDbEntity
100
AcDbLine
  8
text
 62
256
370
-1
  6
ByLayer
 10
-29.1587517189058474
 20
-45.689886262776227
 30
0.0
 11
-28.9255320254144124
 21
-45.601019252847351
 31
0.0
  0
LINE
  5
159
100
AcDbEntity
100
AcDbLine
  8
text
 62
256
370
-1
  6
ByLayer
 10
-28.9255320254144124
 20
-45.601019252847351
 30
0.0
 11
-28.6780755357129351
 21
-45.51966357316266
 31
0.0
  0
LINE
  5
15A
100
AcDbEntity
100
AcDbLine
  8
text
 62
256
370
-1
  6
ByLayer
 10
-28.6780755357129351
 20
-45.51966357316266
 30
0.0
 11
-28.4148064961485431
 21
-45.445499793427345
 31
0.0
  0
LINE
  5
15B
100
AcDbEntity
100
AcDbLine
  8
text
 62
256
370
-1
  6
ByLayer
 10
-28.4148064961485431
 20
-45.445499793427345
 30
0.0
 11
-28.1341491530683072
 21
-45.3782084833465831
 31
0.0
  0
LINE
  5
15C
100
AcDbEntity
100
AcDbLine
  8
text
 62
256
370
-1
  6
ByLayer
 10
-28.1341491530683072
 20
-45.3782084833465831
 30
0.0
 11
-27.8345277528194401
 21
-45.3174702126255085
 31
0.0
  0
LINE
  5
15D
100
AcDbEntity
100
AcDbLine
  8
text
 62
256
370
-1
  6
ByLayer
 10
-27.8345277528194401
 20
-45.3174702126255085
 30
0.0
 11
-27.5143665417490126
 21
-45.2629655509693833
 31
0.0
  0
LINE
  5
15E
100
AcDbEntity
100
AcDbLine
  8
text
 62
256
370
-1
  6
ByLayer
 10
-27.5143665417490126
 20
-45.2629655509693833
 30
0.0
 11
-27.1720897662041807
 21
-45.2143750680833278
 31
0.0
  0
LINE
  5
15F
100
AcDbEntity
100
AcDbLine
  8
text
 62
256
370
-1
  6
ByLayer
 10
-27.1720897662041807
 20
-45.2143750680833278
 30
0.0
 11
-26.8061216725321287
 21
-45.1713793336725473
 31
0.0
  0
LINE
  5
160
100
AcDbEntity
100
AcDbLine
  8
text
 62
256
370
-1
  6
ByLayer
 10
-26.8061216725321287
 20
-45.1713793336725473
 30
0.0
 11
-26.4148865070799275
 21
-45.1336589174421761
 31
0.0
  0
LINE
  5
161
100
AcDbEntity
100
AcDbLine
  8
text
 62
256
370
-1
  6
ByLayer
 10
-26.4148865070799275
 20
-45.1336589174421761
 30
0.0
 11
-25.9968085161947329
 21
-45.1008943890974336
 31
0.0
  0
LINE
  5
162
100
AcDbEntity
100
AcDbLine
  8
text
 62
256
370
-1
  6
ByLayer
 10
-25.9968085161947329
 20
-45.1008943890974336
 30
0.0
 11
-25.5503119462236725
 21
-45.0727663183435112
 31
0.0
  0
LINE
  5
163
100
AcDbEntity
100
AcDbLine
  8
text
 62
256
370
-1
  6
ByLayer
 10
-25.5503119462236725
 20
-45.0727663183435112
 30
0.0
 11
-25.0738210435139024
 21
-45.0489552748855573
 31
0.0
  0
LINE
  5
164
100
AcDbEntity
100
AcDbLine
  8
text
 62
256
370
-1
  6
ByLayer
 10
-25.0738210435139024
 20
-45.0489552748855573
 30
0.0
 11
-24.5657600544125216
 21
-45.0291418284287488
 31
0.0
  0
LINE
  5
165
100
AcDbEntity
100
AcDbLine
  8
text
 62
256
370
-1
  6
ByLayer
 10
-24.5657600544125216
 20
-45.0291418284287488
 30
0.0
 11
-24.0245532252666862
 21
-45.0130065486782769
 31
0.0
  0
LINE
  5
166
100
AcDbEntity
100
AcDbLine
  8
text
 62
256
370
-1
  6
ByLayer
 10
-24.0245532252666862
 20
-45.0130065486782769
 30
0.0
 11
-23.4486248024234953
 21
-45.0002300053393185
 31
0.0
  0
LINE
  5
167
100
AcDbEntity
100
AcDbLine
  8
text
 62
256
370
-1
  6
ByLayer
 10
-23.4486248024234953
 20
-45.0002300053393185
 30
0.0
 11
-22.8363990322301618
 21
-44.9904927681170363
 31
0.0
  0
LINE
  5
168
100
AcDbEntity
100
AcDbLine
  8
text
 62
256
370
-1
  6
ByLayer
 10
-22.8363990322301618
 20
-44.9904927681170363
 30
0.0
 11
-22.1863001610337562
 21
-44.9834754067166358
 31
0.0
  0
LINE
  5
169
100
AcDbEntity
100
AcDbLine
  8
text
 62
256
370
-1
  6
ByLayer
 10
-22.1863001610337562
 20
-44.9834754067166358
 30
0.0
 11
-21.4967524351814347
 21
-44.9788584908432938
 31
0.0
  0
LINE
  5
16A
100
AcDbEntity
100
AcDbLine
  8
text
 62
256
370
-1
  6
ByLayer
 10
-21.4967524351814347
 20
-44.9788584908432938
 30
0.0
 11
-20.7661801010202964
 21
-44.9763225902021446
 31
0.0
  0
LINE
  5
16B
100
AcDbEntity
100
AcDbLine
  8
text
 62
256
370
-1
  6
ByLayer
 10
-20.7661801010202964
 20
-44.9763225902021446
 30
0.0
 11
-19.9930074048975257
 21
-44.9755482744984221
 31
0.0
  0
LINE
  5
16C
100
AcDbEntity
100
AcDbLine
  8
text
 62
256
370
-1
  6
ByLayer
 10
-19.9930074048975257
 20
-44.9755482744984221
 30
0.0
 11
-19.2468418404509407
 21
-44.9763230647314742
 31
0.0
  0
LINE
  5
16D
100
AcDbEntity
100
AcDbLine
  8
text
 62
256
370
-1
  6
ByLayer
 10
-19.2468418404509407
 20
-44.9763230647314742
 30
0.0
 11
-18.5408920759027183
 21
-44.9788313719148221
 31
0.0
  0
LINE
  5
16E
100
AcDbEntity
100
AcDbLine
  8
text
 62
256
370
-1
  6
ByLayer
 10
-18.5408920759027183
 20
-44.9788313719148221
 30
0.0
 11
-17.8736854379204715
 21
-44.9833491007748734
 31
0.0
  0
LINE
  5
16F
100
AcDbEntity
100
AcDbLine
  8
text
 62
256
370
-1
  6
ByLayer
 10
-17.8736854379204715
 20
-44.9833491007748734
 30
0.0
 11
-17.2437492531717851
 21
-44.9901521560379365
 31
0.0
  0
LINE
  5
170
100
AcDbEntity
100
AcDbLine
  8
text
 62
256
370
-1
  6
ByLayer
 10
-17.2437492531717851
 20
-44.9901521560379365
 30
0.0
 11
-16.6496108483242722
 21
-44.9995164424303908
 31
0.0
  0
LINE
  5
171
100
AcDbEntity
100
AcDbLine
  8
text
 62
256
370
-1
  6
ByLayer
 10
-16.6496108483242722
 20
-44.9995164424303908
 30
0.0
 11
-16.0897975500455459
 21
-45.0117178646785874
 31
0.0
  0
LINE
  5
172
100
AcDbEntity
100
AcDbLine
  8
text
 62
256
370
-1
  6
ByLayer
 10
-16.0897975500455459
 20
-45.0117178646785874
 30
0.0
 11
-15.5628366850032194
 21
-45.0270323275088344
 31
0.0
  0
LINE
  5
173
100
AcDbEntity
100
AcDbLine
  8
text
 62
256
370
-1
  6
ByLayer
 10
-15.5628366850032194
 20
-45.0270323275088344
 30
0.0
 11
-15.0672555798649057
 21
-45.0457357356475541
 31
0.0
  0
LINE
  5
174
100
AcDbEntity
100
AcDbLine
  8
text
 62
256
370
-1
  6
ByLayer
 10
-15.0672555798649057
 20
-45.0457357356475541
 30
0.0
 11
-14.601581561298218
 21
-45.0681039938210546
 31
0.0
  0
LINE
  5
175
100
AcDbEntity
100
AcDbLine
  8
text
 62
256
370
-1
  6
ByLayer
 10
-14.601581561298218
 20
-45.0681039938210546
 30
0.0
 11
-14.1643419559707695
 21
-45.094413006755687
 31
0.0
  0
LINE
  5
176
100
AcDbEntity
100
AcDbLine
  8
text
 62
256
370
-1
  6
ByLayer
 10
-14.1643419559707695
 20
-45.094413006755687
 30
0.0
 11
-13.7540640905501448
 21
-45.1249386791778306
 31
0.0
  0
LINE
  5
177
100
AcDbEntity
100
AcDbLine
  8
text
 62
256
370
-1
  6
ByLayer
 10
-13.7540640905501448
 20
-45.1249386791778306
 30
0.0
 11
-13.369275291703957
 21
-45.1599569158137797
 31
0.0
  0
LINE
  5
178
100
AcDbEntity
100
AcDbLine
  8
text
 62
256
370
-1
  6
ByLayer
 10
-13.369275291703957
 20
-45.1599569158137797
 30
0.0
 11
-13.0085028860998193
 21
-45.1997436213899562
 31
0.0
  0
LINE
  5
179
100
AcDbEntity
100
AcDbLine
  8
text
 62
256
370
-1
  6
ByLayer
 10
-13.0085028860998193
 20
-45.1997436213899562
 30
0.0
 11
-12.6702742004053732
 21
-45.2445747006326684
 31
0.0
  0
LINE
  5
17A
100
AcDbEntity
100
AcDbLine
  8
text
 62
256
370
-1
  6
ByLayer
 10
-12.6702742004053732
 20
-45.2445747006326684
 30
0.0
 11
-12.3531165612882035
 21
-45.2947260582682816
 31
0.0
  0
LINE
  5
17B
100
AcDbEntity
100
AcDbLine
  8
text
 62
256
370
-1
  6
ByLayer
 10
-12.3531165612882035
 20
-45.2947260582682816
 30
0.0
 11
-12.0555572954158947
 21
-45.3504735990231467
 31
0.0
  0
LINE
  5
17C
100
AcDbEntity
100
AcDbLine
  8
text
 62
256
370
-1
  6
ByLayer
 10
-12.0555572954158947
 20
-45.3504735990231467
 30
0.0
 11
-11.776123729456117
 21
-45.4120932276236147
 31
0.0
  0
LINE
  5
17D
100
AcDbEntity
100
AcDbLine
  8
text
 62
256
370
-1
  6
ByLayer
 10
-11.776123729456117
 20
-45.4120932276236147
 30
0.0
 11
-11.5133431900763981
 21
-45.4798608487960223
 31
0.0
  0
LINE
  5
17E
100
AcDbEntity
100
AcDbLine
  8
text
 62
256
370
-1
  6
ByLayer
 10
-11.5133431900763981
 20
-45.4798608487960223
 30
0.0
 11
-11.2657430039444364
 21
-45.5540523672667632
 31
0.0
  0
LINE
  5
17F
100
AcDbEntity
100
AcDbLine
  8
text
 62
256
370
-1
  6
ByLayer
 10
-11.2657430039444364
 20
-45.5540523672667632
 30
0.0
 11
-11.0318504977277598
 21
-45.6349436877621457
 31
0.0
  0
LINE
  5
180
100
AcDbEntity
100
AcDbLine
  8
text
 62
256
370
-1
  6
ByLayer
 10
-11.0318504977277598
 20
-45.6349436877621457
 30
0.0
 11
-10.8101929980940383
 21
-45.7228107150085208
 31
0.0
  0
LINE
  5
181
100
AcDbEntity
100
AcDbLine
  8
text
 62
256
370
-1
  6
ByLayer
 10
-10.8101929980940383
 20
-45.7228107150085208
 30
0.0
 11
-10.599297831710885
 21
-45.817929353732282
 31
0.0
  0
LINE
  5
182
100
AcDbEntity
100
AcDbLine
  8
text
 62
256
370
-1
  6
ByLayer
 10
-10.599297831710885
 20
-45.817929353732282
 30
0.0
 11
-10.3976923252458562
 21
-45.9205755086597236
 31
0.0
  0
LINE
  5
183
100
AcDbEntity
100
AcDbLine
  8
text
 62
256
370
-1
  6
ByLayer
 10
-10.3976923252458562
 20
-45.9205755086597236
 30
0.0
 11
-10.2039038053665934
 21
-46.0310250845172675
 31
0.0
  0
LINE
  5
184
100
AcDbEntity
100
AcDbLine
  8
text
 62
256
370
-1
  6
ByLayer
 10
-10.2039038053665934
 20
-46.0310250845172675
 30
0.0
 11
-10.0164595987406813
 21
-46.1495539860312221
 31
0.0
  0
LINE
  5
185
100
AcDbEntity
100
AcDbLine
  8
text
 62
256
370
-1
  6
ByLayer
 10
-10.0164595987406813
 20
-46.1495539860312221
 30
0.0
 11
-9.8338870320357898
 21
-46.2764381179279241
 31
0.0
  0
LINE
  5
186
100
AcDbEntity
100
AcDbLine
  8
text
 62
256
370
-1
  6
ByLayer
 10
-9.8338870320357898
 20
-46.2764381179279241
 30
0.0
 11
-9.6547134319194754
 21
-46.4119533849337387
 31
0.0
  0
LINE
  5
187
100
AcDbEntity
100
AcDbLine
  8
text
 62
256
370
-1
  6
ByLayer
 10
-9.6547134319194754
 20
-46.4119533849337387
 30
0.0
 11
-9.477466125059351
 21
-46.5563756917750311
 31
0.0
  0
LINE
  5
188
100
AcDbEntity
100
AcDbLine
  8
text
 62
256
370
-1
  6
ByLayer
 10
-9.477466125059351
 20
-46.5563756917750311
 30
0.0
 11
-9.3006724381230583
 21
-46.7099809431781665
 31
0.0
  0
LINE
  5
189
100
AcDbEntity
100
AcDbLine
  8
text
 62
256
370
-1
  6
ByLayer
 10
-9.3006724381230583
 20
-46.7099809431781665
 30
0.0
 11
-9.1228596977781535
 21
-46.8730450438694533
 31
0.0
  0
LINE
  5
18A
100
AcDbEntity
100
AcDbLine
  8
text
 62
256
370
-1
  6
ByLayer
 10
-9.1228596977781535
 20
-46.8730450438694533
 30
0.0
 11
-8.9425552306922782
 21
-47.0458438985752991
 31
0.0
  0
LINE
  5
18B
100
AcDbEntity
100
AcDbLine
  8
text
 62
256
370
-1
  6
ByLayer
 10
-8.9425552306922782
 20
-47.0458438985752991
 30
0.0
 11
-8.7551764287665037
 21
-47.2313251381946202
 31
0.0
  0
LINE
  5
18C
100
AcDbEntity
100
AcDbLine
  8
text
 62
256
370
-1
  6
ByLayer
 10
-8.7551764287665037
 20
-47.2313251381946202
 30
0.0
 11
-8.5791875073809365
 21
-47.4121282839268758
 31
0.0
  0
LINE
  5
18D
100
AcDbEntity
100
AcDbLine
  8
text
 62
256
370
-1
  6
ByLayer
 10
-8.5791875073809365
 20
-47.4121282839268758
 30
0.0
 11
-8.4142327513345663
 21
-47.5907346383474135
 31
0.0
  0
LINE
  5
18E
100
AcDbEntity
100
AcDbLine
  8
text
 62
256
370
-1
  6
ByLayer
 10
-8.4142327513345663
 20
-47.5907346383474135
 30
0.0
 11
-8.2599564454265249
 21
-47.7696255040315094
 31
0.0
  0
LINE
  5
18F
100
AcDbEntity
100
AcDbLine
  8
text
 62
256
370
-1
  6
ByLayer
 10
-8.2599564454265249
 20
-47.7696255040315094
 30
0.0
 11
-8.1160028744558872
 21
-47.9512821835544543
 31
0.0
  0
LINE
  5
190
100
AcDbEntity
100
AcDbLine
  8
text
 62
256
370
-1
  6
ByLayer
 10
-8.1160028744558872
 20
-47.9512821835544543
 30
0.0
 11
-7.9820163232217283
 21
-48.1381859794915385
 31
0.0
  0
LINE
  5
191
100
AcDbEntity
100
AcDbLine
  8
text
 62
256
370
-1
  6
ByLayer
 10
-7.9820163232217283
 20
-48.1381859794915385
 30
0.0
 11
-7.8576410765230946
 21
-48.3328181944180528
 31
0.0
  0
LINE
  5
192
100
AcDbEntity
100
AcDbLine
  8
text
 62
256
370
-1
  6
ByLayer
 10
-7.8576410765230946
 20
-48.3328181944180528
 30
0.0
 11
-7.7425214191591181
 21
-48.5376601309093019
 31
0.0
  0
LINE
  5
193
100
AcDbEntity
100
AcDbLine
  8
text
 62
256
370
-1
  6
ByLayer
 10
-7.7425214191591181
 20
-48.5376601309093019
 30
0.0
 11
-7.6363016359288167
 21
-48.7551930915405478
 31
0.0
  0
LINE
  5
194
100
AcDbEntity
100
AcDbLine
  8
text
 62
256
370
-1
  6
ByLayer
 10
-7.6363016359288167
 20
-48.7551930915405478
 30
0.0
 11
-7.538626011631294
 21
-48.9878983788871096
 31
0.0
  0
LINE
  5
195
100
AcDbEntity
100
AcDbLine
  8
text
 62
256
370
-1
  6
ByLayer
 10
-7.538626011631294
 20
-48.9878983788871096
 30
0.0
 11
-7.4491388310655964
 21
-49.2382572955242637
 31
0.0
  0
LINE
  5
196
100
AcDbEntity
100
AcDbLine
  8
text
 62
256
370
-1
  6
ByLayer
 10
-7.4491388310655964
 20
-49.2382572955242637
 30
0.0
 11
-7.3674843790308273
 21
-49.5087511440273289
 31
0.0
  0
LINE
  5
197
100
AcDbEntity
100
AcDbLine
  8
text
 62
256
370
-1
  6
ByLayer
 10
-7.3674843790308273
 20
-49.5087511440273289
 30
0.0
 11
-7.2933069403260617
 21
-49.8018612269715817
 31
0.0
  0
LINE
  5
198
100
AcDbEntity
100
AcDbLine
  8
text
 62
256
370
-1
  6
ByLayer
 10
-7.2933069403260617
 20
-49.8018612269715817
 30
0.0
 11
-7.2262507997503462
 21
-50.1200688469322984
 31
0.0
  0
LINE
  5
199
100
AcDbEntity
100
AcDbLine
  8
text
 62
256
370
-1
  6
ByLayer
 10
-7.2262507997503462
 20
-50.1200688469322984
 30
0.0
 11
-7.1659602421028126
 21
-50.4658553064847979
 31
0.0
  0
LINE
  5
19A
100
AcDbEntity
100
AcDbLine
  8
text
 62
256
370
-1
  6
ByLayer
 10
-7.1659602421028126
 20
-50.4658553064847979
 30
0.0
 11
-7.1120795521824789
 21
-50.8417019082043566
 31
0.0
  0
LINE
  5
19B
100
AcDbEntity
100
AcDbLine
  8
text
 62
256
370
-1
  6
ByLayer
 10
-7.1120795521824789
 20
-50.8417019082043566
 30
0.0
 11
-7.0642530147884202
 21
-51.2500899546662652
 31
0.0
  0
LINE
  5
19C
100
AcDbEntity
100
AcDbLine
  8
text
 62
256
370
-1
  6
ByLayer
 10
-7.0642530147884202
 20
-51.2500899546662652
 30
0.0
 11
-7.0221249147197682
 21
-51.6935007484458282
 31
0.0
  0
LINE
  5
19D
100
AcDbEntity
100
AcDbLine
  8
text
 62
256
370
-1
  6
ByLayer
 10
-7.0221249147197682
 20
-51.6935007484458282
 30
0.0
 11
-6.9853395367755411
 21
-52.1744155921183221
 31
0.0
  0
LINE
  5
19E
100
AcDbEntity
100
AcDbLine
  8
text
 62
256
370
-1
  6
ByLayer
 10
-6.9853395367755411
 20
-52.1744155921183221
 30
0.0
 11
-6.9535411657548423
 21
-52.6953157882590517
 31
0.0
  0
LINE
  5
19F
100
AcDbEntity
100
AcDbLine
  8
text
 62
256
370
-1
  6
ByLayer
 10
-6.9535411657548423
 20
-52.6953157882590517
 30
0.0
 11
-6.9263740864567467
 21
-53.2586826394433075
 31
0.0
  0
LINE
  5
1A0
100
AcDbEntity
100
AcDbLine
  8
text
 62
256
370
-1
  6
ByLayer
 10
-6.9263740864567467
 20
-53.2586826394433075
 30
0.0
 11
-6.9034825836803009
 21
-53.8669974482463942
 31
0.0
  0
LINE
  5
1A1
100
AcDbEntity
100
AcDbLine
  8
text
 62
256
370
-1
  6
ByLayer
 10
-6.9034825836803009
 20
-53.8669974482463942
 30
0.0
 11
-6.8845109422246082
 21
-54.5227415172435883
 31
0.0
  0
LINE
  5
1A2
100
AcDbEntity
100
AcDbLine
  8
text
 62
256
370
-1
  6
ByLayer
 10
-6.8845109422246082
 20
-54.5227415172435883
 30
0.0
 11
-6.8691034468887437
 21
-55.228396149010166
 31
0.0
  0
LINE
  5
1A3
100
AcDbEntity
100
AcDbLine
  8
text
 62
256
370
-1
  6
ByLayer
 10
-6.8691034468887437
 20
-55.228396149010166
 30
0.0
 11
-6.8569043824717539
 21
-55.9864426461214464
 31
0.0
  0
LINE
  5
1A4
100
AcDbEntity
100
AcDbLine
  8
text
 62
256
370
-1
  6
ByLayer
 10
-6.8569043824717539
 20
-55.9864426461214464
 30
0.0
 11
-6.8475580337727706
 21
-56.7993623111527342
 31
0.0
  0
LINE
  5
1A5
100
AcDbEntity
100
AcDbLine
  8
text
 62
256
370
-1
  6
ByLayer
 10
-6.8475580337727706
 20
-56.7993623111527342
 30
0.0
 11
-6.8407086855908119
 21
-57.6696364466792772
 31
0.0
  0
LINE
  5
1A6
100
AcDbEntity
100
AcDbLine
  8
text
 62
256
370
-1
  6
ByLayer
 10
-6.8407086855908119
 20
-57.6696364466792772
 30
0.0
 11
-6.8360006227249528
 21
-58.5997463552764088
 31
0.0
  0
LINE
  5
1A7
100
AcDbEntity
100
AcDbLine
  8
text
 62
256
370
-1
  6
ByLayer
 10
-6.8360006227249528
 20
-58.5997463552764088
 30
0.0
 11
-6.8330781299742966
 21
-59.5921733395194195
 31
0.0
  0
LINE
  5
1A8
100
AcDbEntity
100
AcDbLine
  8
text
 62
256
370
-1
  6
ByLayer
 10
-6.8330781299742966
 20
-59.5921733395194195
 30
0.0
 11
-6.8315854921379469
 21
-60.6493987019835288
 31
0.0
  0
LINE
  5
1A9
100
AcDbEntity
100
AcDbLine
  8
text
 62
256
370
-1
  6
ByLayer
 10
-6.8315854921379469
 20
-60.6493987019835288
 30
0.0
 11
-6.8311669940149216
 21
-61.7739037452441266
 31
0.0
  0
LINE
  5
1AA
100
AcDbEntity
100
AcDbLine
  8
text
 62
256
370
-1
  6
ByLayer
 10
-6.8311669940149216
 20
-61.7739037452441266
 30
0.0
 11
-6.8315810596968447
 21
-62.8214901179859737
 31
0.0
  0
LINE
  5
1AB
100
AcDbEntity
100
AcDbLine
  8
text
 62
256
370
-1
  6
ByLayer
 10
-6.8315810596968447
 20
-62.8214901179859737
 30
0.0
 11
-6.8329765353034588
 21
-63.8079147640920894
 31
0.0
  0
LINE
  5
1AC
100
AcDbEntity
100
AcDbLine
  8
text
 62
256
370
-1
  6
ByLayer
 10
-6.8329765353034588
 20
-63.8079147640920894
 30
0.0
 11
-6.835583338676031
 21
-64.7351549467034744
 31
0.0
  0
LINE
  5
1AD
100
AcDbEntity
100
AcDbLine
  8
text
 62
256
370
-1
  6
ByLayer
 10
-6.835583338676031
 20
-64.7351549467034744
 30
0.0
 11
-6.8396313876558281
 21
-65.6051879289611861
 31
0.0
  0
LINE
  5
1AE
100
AcDbEntity
100
AcDbLine
  8
text
 62
256
370
-1
  6
ByLayer
 10
-6.8396313876558281
 20
-65.6051879289611861
 30
0.0
 11
-6.8453506000841173
 21
-66.4199909740061969
 31
0.0
  0
LINE
  5
1AF
100
AcDbEntity
100
AcDbLine
  8
text
 62
256
370
-1
  6
ByLayer
 10
-6.8453506000841173
 20
-66.4199909740061969
 30
0.0
 11
-6.8529708938021372
 21
-67.18154134497955
 31
0.0
  0
LINE
  5
1B0
100
AcDbEntity
100
AcDbLine
  8
text
 62
256
370
-1
  6
ByLayer
 10
-6.8529708938021372
 20
-67.18154134497955
 30
0.0
 11
-6.8627221866511263
 21
-67.8918163050222319
 31
0.0
  0
LINE
  5
1B1
100
AcDbEntity
100
AcDbLine
  8
text
 62
256
370
-1
  6
ByLayer
 10
-6.8627221866511263
 20
-67.8918163050222319
 30
0.0
 11
-6.8748343964723801
 21
-68.5527931172752574
 31
0.0
  0
LINE
  5
1B2
100
AcDbEntity
100
AcDbLine
  8
text
 62
256
370
-1
  6
ByLayer
 10
-6.8748343964723801
 20
-68.5527931172752574
 30
0.0
 11
-6.8895374411071657
 21
-69.1664490448796414
 31
0.0
  0
LINE
  5
1B3
100
AcDbEntity
100
AcDbLine
  8
text
 62
256
370
-1
  6
ByLayer
 10
-6.8895374411071657
 20
-69.1664490448796414
 30
0.0
 11
-6.9070612383967216
 21
-69.7347613509764415
 31
0.0
  0
LINE
  5
1B4
100
AcDbEntity
100
AcDbLine
  8
text
 62
256
370
-1
  6
ByLayer
 10
-6.9070612383967216
 20
-69.7347613509764415
 30
0.0
 11
-6.9276357061822864
 21
-70.2597072987066156
 31
0.0
  0
LINE
  5
1B5
100
AcDbEntity
100
AcDbLine
  8
text
 62
256
370
-1
  6
ByLayer
 10
-6.9276357061822864
 20
-70.2597072987066156
 30
0.0
 11
-6.951490762305184
 21
-70.743264151211207
 31
0.0
  0
LINE
  5
1B6
100
AcDbEntity
100
AcDbLine
  8
text
 62
256
370
-1
  6
ByLayer
 10
-6.951490762305184
 20
-70.743264151211207
 30
0.0
 11
-6.9788563246066246
 21
-71.1874091716311739
 31
0.0
  0
LINE
  5
1B7
100
AcDbEntity
100
AcDbLine
  8
text
 62
256
370
-1
  6
ByLayer
 10
-6.9788563246066246
 20
-71.1874091716311739
 30
0.0
 11
-7.0099623109278468
 21
-71.594119623107602
 31
0.0
  0
LINE
  5
1B8
100
AcDbEntity
100
AcDbLine
  8
text
 62
256
370
-1
  6
ByLayer
 10
-7.0099623109278468
 20
-71.594119623107602
 30
0.0
 11
-7.0450386391101461
 21
-71.9653727687814637
 31
0.0
  0
LINE
  5
1B9
100
AcDbEntity
100
AcDbLine
  8
text
 62
256
370
-1
  6
ByLayer
 10
-7.0450386391101461
 20
-71.9653727687814637
 30
0.0
 11
-7.0843152269947893
 21
-72.303145871793788
 31
0.0
  0
LINE
  5
1BA
100
AcDbEntity
100
AcDbLine
  8
text
 62
256
370
-1
  6
ByLayer
 10
-7.0843152269947893
 20
-72.303145871793788
 30
0.0
 11
-7.1280219924230153
 21
-72.6094161952856041
 31
0.0
  0
LINE
  5
1BB
100
AcDbEntity
100
AcDbLine
  8
text
 62
256
370
-1
  6
ByLayer
 10
-7.1280219924230153
 20
-72.6094161952856041
 30
0.0
 11
-7.1763888532360909
 21
-72.8861610023978841
 31
0.0
  0
LINE
  5
1BC
100
AcDbEntity
100
AcDbLine
  8
text
 62
256
370
-1
  6
ByLayer
 10
-7.1763888532360909
 20
-72.8861610023978841
 30
0.0
 11
-7.2296457272752832
 21
-73.1353575562716571
 31
0.0
  0
LINE
  5
1BD
100
AcDbEntity
100
AcDbLine
  8
text
 62
256
370
-1
  6
ByLayer
 10
-7.2296457272752832
 20
-73.1353575562716571
 30
0.0
 11
-7.2880225323818308
 21
-73.3589831200479097
 31
0.0
  0
LINE
  5
1BE
100
AcDbEntity
100
AcDbLine
  8
text
 62
256
370
-1
  6
ByLayer
 10
-7.2880225323818308
 20
-73.3589831200479097
 30
0.0
 11
-7.3517491863970008
 21
-73.5590149568677276
 31
0.0
  0
LINE
  5
1BF
100
AcDbEntity
100
AcDbLine
  8
text
 62
256
370
-1
  6
ByLayer
 10
-7.3517491863970008
 20
-73.5590149568677276
 30
0.0
 11
-7.4210556071620601
 21
-73.7374303298720406
 31
0.0
  0
LINE
  5
1C0
100
AcDbEntity
100
AcDbLine
  8
text
 62
256
370
-1
  6
ByLayer
 10
-7.4210556071620601
 20
-73.7374303298720406
 30
0.0
 11
-7.4961717125182759
 21
-73.8962065022019061
 31
0.0
  0
LINE
  5
1C1
100
AcDbEntity
100
AcDbLine
  8
text
 62
256
370
-1
  6
ByLayer
 10
-7.4961717125182759
 20
-73.8962065022019061
 30
0.0
 11
-7.5773274203068866
 21
-74.0373207369983533
 31
0.0
  0
LINE
  5
1C2
100
AcDbEntity
100
AcDbLine
  8
text
 62
256
370
-1
  6
ByLayer
 10
-7.5773274203068866
 20
-74.0373207369983533
 30
0.0
 11
-7.6647526483691877
 21
-74.1627502974023542
 31
0.0
  0
LINE
  5
1C3
100
AcDbEntity
100
AcDbLine
  8
text
 62
256
370
-1
  6
ByLayer
 10
-7.6647526483691877
 20
-74.1627502974023542
 30
0.0
 11
-7.758677314546361
 21
-74.274472446554924
 31
0.0
  0
LINE
  5
1C4
100
AcDbEntity
100
AcDbLine
  8
text
 62
256
370
-1
  6
ByLayer
 10
-7.758677314546361
 20
-74.274472446554924
 30
0.0
 11
-7.8593313366797872
 21
-74.3744644475971199
 31
0.0
  0
LINE
  5
1C5
100
AcDbEntity
100
AcDbLine
  8
text
 62
256
370
-1
  6
ByLayer
 10
-7.8593313366797872
 20
-74.3744644475971199
 30
0.0
 11
-7.9669446326105913
 21
-74.4647035636699286
 31
0.0
  0
LINE
  5
1C6
100
AcDbEntity
100
AcDbLine
  8
text
 62
256
370
-1
  6
ByLayer
 10
-7.9669446326105913
 20
-74.4647035636699286
 30
0.0
 11
-8.0817471201801538
 21
-74.5471670579143222
 31
0.0
  0
LINE
  5
1C7
100
AcDbEntity
100
AcDbLine
  8
text
 62
256
370
-1
  6
ByLayer
 10
-8.0817471201801538
 20
-74.5471670579143222
 30
0.0
 11
-8.2039687172296283
 21
-74.6238321934714008
 31
0.0
  0
LINE
  5
1C8
100
AcDbEntity
100
AcDbLine
  8
text
 62
256
370
-1
  6
ByLayer
 10
-8.2039687172296283
 20
-74.6238321934714008
 30
0.0
 11
-8.3338393416003385
 21
-74.6966762334820942
 31
0.0
  0
LINE
  5
1C9
100
AcDbEntity
100
AcDbLine
  8
text
 62
256
370
-1
  6
ByLayer
 10
-8.3338393416003385
 20
-74.6966762334820942
 30
0.0
 11
-8.4630627196721377
 21
-74.7598533298104826
 31
0.0
  0
LINE
  5
1CA
100
AcDbEntity
100
AcDbLine
  8
text
 62
256
370
-1
  6
ByLayer
 10
-8.4630627196721377
 20
-74.7598533298104826
 30
0.0
 11
-8.5988670675523906
 21
-74.814927559319031
 31
0.0
  0
LINE
  5
1CB
100
AcDbEntity
100
AcDbLine
  8
text
 62
256
370
-1
  6
ByLayer
 10
-8.5988670675523906
 20
-74.814927559319031
 30
0.0
 11
-8.7406130125313553
 21
-74.8620626394757664
 31
0.0
  0
LINE
  5
1CC
100
AcDbEntity
100
AcDbLine
  8
text
 62
256
370
-1
  6
ByLayer
 10
-8.7406130125313553
 20
-74.8620626394757664
 30
0.0
 11
-8.887661181899233
 21
-74.9014222877487441
 31
0.0
  0
LINE
  5
1CD
100
AcDbEntity
100
AcDbLine
  8
text
 62
256
370
-1
  6
ByLayer
 10
-8.887661181899233
 20
-74.9014222877487441
 30
0.0
 11
-9.0393722029462538
 21
-74.9331702216059909
 31
0.0
  0
LINE
  5
1CE
100
AcDbEntity
100
AcDbLine
  8
text
 62
256
370
-1
  6
ByLayer
 10
-9.0393722029462538
 20
-74.9331702216059909
 30
0.0
 11
-9.1951067029626188
 21
-74.9574701585155907
 31
0.0
  0
LINE
  5
1CF
100
AcDbEntity
100
AcDbLine
  8
text
 62
256
370
-1
  6
ByLayer
 10
-9.1951067029626188
 20
-74.9574701585155907
 30
0.0
 11
-9.3542253092385295
 21
-74.9744858159454708
 31
0.0
  0
LINE
  5
1D0
100
AcDbEntity
100
AcDbLine
  8
text
 62
256
370
-1
  6
ByLayer
 10
-9.3542253092385295
 20
-74.9744858159454708
 30
0.0
 11
-9.516088649064244
 21
-74.9843809113637292
 31
0.0
  0
LINE
  5
1D1
100
AcDbEntity
100
AcDbLine
  8
text
 62
256
370
-1
  6
ByLayer
 10
-9.516088649064244
 20
-74.9843809113637292
 30
0.0
 11
-9.6800573497299638
 21
-74.9873191622383786
 31
0.0
  0
LINE
  5
1D2
100
AcDbEntity
100
AcDbLine
  8
text
 62
256
370
-1
  6
ByLayer
 10
-9.6800573497299638
 20
-74.9873191622383786
 30
0.0
 11
-9.8454920385258902
 21
-74.9834642860374743
 31
0.0
  0
LINE
  5
1D3
100
AcDbEntity
100
AcDbLine
  8
text
 62
256
370
-1
  6
ByLayer
 10
-9.8454920385258902
 20
-74.9834642860374743
 30
0.0
 11
-10.0117533427422245
 21
-74.9729800002290432
 31
0.0
  0
LINE
  5
1D4
100
AcDbEntity
100
AcDbLine
  8
text
 62
256
370
-1
  6
ByLayer
 10
-10.0117533427422245
 20
-74.9729800002290432
 30
0.0
 11
-10.178201889669225
 21
-74.9560300222810696
 31
0.0
  0
LINE
  5
1D5
100
AcDbEntity
100
AcDbLine
  8
text
 62
256
370
-1
  6
ByLayer
 10
-10.178201889669225
 20
-74.9560300222810696
 30
0.0
 11
-10.3441983065970646
 21
-74.9327780696616514
 31
0.0
  0
LINE
  5
1D6
100
AcDbEntity
100
AcDbLine
  8
text
 62
256
370
-1
  6
ByLayer
 10
-10.3441983065970646
 20
-74.9327780696616514
 30
0.0
 11
-10.5091032208159731
 21
-74.903387859838773
 31
0.0
  0
LINE
  5
1D7
100
AcDbEntity
100
AcDbLine
  8
text
 62
256
370
-1
  6
ByLayer
 10
-10.5091032208159731
 20
-74.903387859838773
 30
0.0
 11
-10.6722772596161519
 21
-74.8680231102804754
 31
0.0
  0
LINE
  5
1D8
100
AcDbEntity
100
AcDbLine
  8
text
 62
256
370
-1
  6
ByLayer
 10
-10.6722772596161519
 20
-74.8680231102804754
 30
0.0
 11
-10.8330810502878592
 21
-74.826847538454814
 31
0.0
  0
LINE
  5
1D9
100
AcDbEntity
100
AcDbLine
  8
text
 62
256
370
-1
  6
ByLayer
 10
-10.8330810502878592
 20
-74.826847538454814
 30
0.0
 11
-10.9908752201212678
 21
-74.7800248618298014
 31
0.0
  0
LINE
  5
1DA
100
AcDbEntity
100
AcDbLine
  8
text
 62
256
370
-1
  6
ByLayer
 10
-10.9908752201212678
 20
-74.7800248618298014
 30
0.0
 11
-11.1450203964066361
 21
-74.7277187978734503
 31
0.0
  0
LINE
  5
1DB
100
AcDbEntity
100
AcDbLine
  8
text
 62
256
370
-1
  6
ByLayer
 10
-11.1450203964066361
 20
-74.7277187978734503
 30
0.0
 11
-11.294877206434137
 21
-74.6700930640538587
 31
0.0
  0
LINE
  5
1DC
100
AcDbEntity
100
AcDbLine
  8
text
 62
256
370
-1
  6
ByLayer
 10
-11.294877206434137
 20
-74.6700930640538587
 30
0.0
 11
-11.4398062774939717
 21
-74.6073113778389825
 31
0.0
  0
LINE
  5
1DD
100
AcDbEntity
100
AcDbLine
  8
text
 62
256
370
-1
  6
ByLayer
 10
-11.4398062774939717
 20
-74.6073113778389825
 30
0.0
 11
-11.5791682368763986
 21
-74.5395374566968769
 31
0.0
  0
LINE
  5
1DE
100
AcDbEntity
100
AcDbLine
  8
text
 62
256
370
-1
  6
ByLayer
 10
-11.5791682368763986
 20
-74.5395374566968769
 30
0.0
 11
-11.7123237118716474
 21
-74.4669350180956116
 31
0.0
  0
LINE
  5
1DF
100
AcDbEntity
100
AcDbLine
  8
text
 62
256
370
-1
  6
ByLayer
 10
-11.7123237118716474
 20
-74.4669350180956116
 30
0.0
 11
-11.8386333297698911
 21
-74.3896677795031707
 31
0.0
  0
LINE
  5
1E0
100
AcDbEntity
100
AcDbLine
  8
text
 62
256
370
-1
  6
ByLayer
 10
-11.8386333297698911
 20
-74.3896677795031707
 30
0.0
 11
-11.9574577178613595
 21
-74.3078994583876238
 31
0.0
  0
LINE
  5
1E1
100
AcDbEntity
100
AcDbLine
  8
text
 62
256
370
-1
  6
ByLayer
 10
-11.9574577178613595
 20
-74.3078994583876238
 30
0.0
 11
-12.0681575034362822
 21
-74.2217937722169552
 31
0.0
  0
LINE
  5
1E2
100
AcDbEntity
100
AcDbLine
  8
text
 62
256
370
-1
  6
ByLayer
 10
-12.0681575034362822
 20
-74.2217937722169552
 30
0.0
 11
-12.1700933137848324
 21
-74.1315144384592202
 31
0.0
  0
LINE
  5
1E3
100
AcDbEntity
100
AcDbLine
  8
text
 62
256
370
-1
  6
ByLayer
 10
-12.1700933137848324
 20
-74.1315144384592202
 30
0.0
 11
-12.2626257761972681
 21
-74.0372251745824883
 31
0.0
  0
LINE
  5
1E4
100
AcDbEntity
100
AcDbLine
  8
text
 62
256
370
-1
  6
ByLayer
 10
-12.2626257761972681
 20
-74.0372251745824883
 30
0.0
 11
-12.3451155179637908
 21
-73.9390896980547438
 31
0.0
  0
LINE
  5
1E5
100
AcDbEntity
100
AcDbLine
  8
text
 62
256
370
-1
  6
ByLayer
 10
-12.3451155179637908
 20
-73.9390896980547438
 30
0.0
 11
-12.4169231663746018
 21
-73.8372717263439995
 31
0.0
  0
LINE
  5
1E6
100
AcDbEntity
100
AcDbLine
  8
text
 62
256
370
-1
  6
ByLayer
 10
-12.4169231663746018
 20
-73.8372717263439995
 30
0.0
 11
-12.4774093487199593
 21
-73.7319349769183532
 31
0.0
  0
LINE
  5
1E7
100
AcDbEntity
100
AcDbLine
  8
text
 62
256
370
-1
  6
ByLayer
 10
-12.4774093487199593
 20
-73.7319349769183532
 30
0.0
 11
-12.5259346922900079
 21
-73.6232431672458176
 31
0.0
  0
LINE
  5
1E8
100
AcDbEntity
100
AcDbLine
  8
text
 62
256
370
-1
  6
ByLayer
 10
-12.5259346922900079
 20
-73.6232431672458176
 30
0.0
 11
-12.5361170234980932
 21
-73.5814203396131745
 31
0.0
  0
LINE
  5
1E9
100
AcDbEntity
100
AcDbLine
  8
text
 62
256
370
-1
  6
ByLayer
 10
-12.5361170234980932
 20
-73.5814203396131745
 30
0.0
 11
-12.5461656152830017
 21
-73.5098859756989071
 31
0.0
  0
LINE
  5
1EA
100
AcDbEntity
100
AcDbLine
  8
text
 62
256
370
-1
  6
ByLayer
 10
-12.5461656152830017
 20
-73.5098859756989071
 30
0.0
 11
-12.556066899777818
 21
-73.409449036709205
 31
0.0
  0
LINE
  5
1EB
100
AcDbEntity
100
AcDbLine
  8
text
 62
256
370
-1
  6
ByLayer
 10
-12.556066899777818
 20
-73.409449036709205
 30
0.0
 11
-12.56580730911557
 21
-73.2809184838504137
 31
0.0
  0
LINE
  5
1EC
100
AcDbEntity
100
AcDbLine
  8
text
 62
256
370
-1
  6
ByLayer
 10
-12.56580730911557
 20
-73.2809184838504137
 30
0.0
 11
-12.5753732754294276
 21
-73.1251032783287371
 31
0.0
  0
LINE
  5
1ED
100
AcDbEntity
100
AcDbLine
  8
text
 62
256
370
-1
  6
ByLayer
 10
-12.5753732754294276
 20
-73.1251032783287371
 30
0.0
 11
-12.5847512308524188
 21
-72.9428123813504925
 31
0.0
  0
LINE
  5
1EE
100
AcDbEntity
100
AcDbLine
  8
text
 62
256
370
-1
  6
ByLayer
 10
-12.5847512308524188
 20
-72.9428123813504925
 30
0.0
 11
-12.5939276075176281
 21
-72.7348547541219261
 31
0.0
  0
LINE
  5
1EF
100
AcDbEntity
100
AcDbLine
  8
text
 62
256
370
-1
  6
ByLayer
 10
-12.5939276075176281
 20
-72.7348547541219261
 30
0.0
 11
-12.6028888375581687
 21
-72.5020393578493412
 31
0.0
  0
LINE
  5
1F0
100
AcDbEntity
100
AcDbLine
  8
text
 62
256
370
-1
  6
ByLayer
 10
-12.6028888375581687
 20
-72.5020393578493412
 30
0.0
 11
-12.6116213531071253
 21
-72.2451751537388986
 31
0.0
  0
LINE
  5
1F1
100
AcDbEntity
100
AcDbLine
  8
text
 62
256
370
-1
  6
ByLayer
 10
-12.6116213531071253
 20
-72.2451751537388986
 30
0.0
 11
-12.6201115862975541
 21
-71.9650711029969727
 31
0.0
  0
LINE
  5
1F2
100
AcDbEntity
100
AcDbLine
  8
text
 62
256
370
-1
  6
ByLayer
 10
-12.6201115862975541
 20
-71.9650711029969727
 30
0.0
 11
-12.6283459692625399
 21
-71.6625361668298382
 31
0.0
  0
LINE
  5
1F3
100
AcDbEntity
100
AcDbLine
  8
text
 62
256
370
-1
  6
ByLayer
 10
-12.6283459692625399
 20
-71.6625361668298382
 30
0.0
 11
-12.6363109341352242
 21
-71.3383793064437128
 31
0.0
  0
LINE
  5
1F4
100
AcDbEntity
100
AcDbLine
  8
text
 62
256
370
-1
  6
ByLayer
 10
-12.6363109341352242
 20
-71.3383793064437128
 30
0.0
 11
-12.6439929130486064
 21
-70.9934094830448714
 31
0.0
  0
LINE
  5
1F5
100
AcDbEntity
100
AcDbLine
  8
text
 62
256
370
-1
  6
ByLayer
 10
-12.6439929130486064
 20
-70.9934094830448714
 30
0.0
 11
-12.651378338135828
 21
-70.6284356578395602
 31
0.0
  0
LINE
  5
1F6
100
AcDbEntity
100
AcDbLine
  8
text
 62
256
370
-1
  6
ByLayer
 10
-12.651378338135828
 20
-70.6284356578395602
 30
0.0
 11
-12.6584536415299738
 21
-70.2442667920340966
 31
0.0
  0
LINE
  5
1F7
100
AcDbEntity
100
AcDbLine
  8
text
 62
256
370
-1
  6
ByLayer
 10
-12.6584536415299738
 20
-70.2442667920340966
 30
0.0
 11
-12.6652052553640999
 21
-69.8417118468347269
 31
0.0
  0
LINE
  5
1F8
100
AcDbEntity
100
AcDbLine
  8
text
 62
256
370
-1
  6
ByLayer
 10
-12.6652052553640999
 20
-69.8417118468347269
 30
0.0
 11
-12.6716196117712911
 21
-69.4215797834476973
 31
0.0
  0
LINE
  5
1F9
100
AcDbEntity
100
AcDbLine
  8
text
 62
256
370
-1
  6
ByLayer
 10
-12.6716196117712911
 20
-69.4215797834476973
 30
0.0
 11
-12.6776831428846606
 21
-68.984679563079311
 31
0.0
  0
LINE
  5
1FA
100
AcDbEntity
100
AcDbLine
  8
text
 62
256
370
-1
  6
ByLayer
 10
-12.6776831428846606
 20
-68.984679563079311
 30
0.0
 11
-12.6833822808372929
 21
-68.5318201469358144
 31
0.0
  0
LINE
  5
1FB
100
AcDbEntity
100
AcDbLine
  8
text
 62
256
370
-1
  6
ByLayer
 10
-12.6833822808372929
 20
-68.5318201469358144
 30
0.0
 11
-12.6887034577622444
 21
-68.0638104962234962
 31
0.0
  0
LINE
  5
1FC
100
AcDbEntity
100
AcDbLine
  8
text
 62
256
370
-1
  6
ByLayer
 10
-12.6887034577622444
 20
-68.0638104962234962
 30
0.0
 11
-12.6936331057925997
 21
-67.5814595721485887
 31
0.0
  0
LINE
  5
1FD
100
AcDbEntity
100
AcDbLine
  8
text
 62
256
370
-1
  6
ByLayer
 10
-12.6936331057925997
 20
-67.5814595721485887
 30
0.0
 11
-12.698157657061472
 21
-67.0855763359173665
 31
0.0
  0
LINE
  5
1FE
100
AcDbEntity
100
AcDbLine
  8
text
 62
256
370
-1
  6
ByLayer
 10
-12.698157657061472
 20
-67.0855763359173665
 30
0.0
 11
-12.7022635437018891
 21
-66.5769697487361611
 31
0.0
  0
LINE
  5
1FF
100
AcDbEntity
100
AcDbLine
  8
text
 62
256
370
-1
  6
ByLayer
 10
-12.7022635437018891
 20
-66.5769697487361611
 30
0.0
 11
-12.7059371978470494
 21
-66.0564487718111479
 31
0.0
  0
LINE
  5
200
100
AcDbEntity
100
AcDbLine
  8
text
 62
256
370
-1
  6
ByLayer
 10
-12.7059371978470494
 20
-66.0564487718111479
 30
0.0
 11
-12.7091650516298955
 21
-65.5248223663486726
 31
0.0
  0
LINE
  5
201
100
AcDbEntity
100
AcDbLine
  8
text
 62
256
370
-1
  6
ByLayer
 10
-12.7091650516298955
 20
-65.5248223663486726
 30
0.0
 11
-12.7119335371836257
 21
-64.9828994935549247
 31
0.0
  0
LINE
  5
202
100
AcDbEntity
100
AcDbLine
  8
text
 62
256
370
-1
  6
ByLayer
 10
-12.7119335371836257
 20
-64.9828994935549247
 30
0.0
 11
-12.7142290866412395
 21
-64.431489114636264
 31
0.0
  0
LINE
  5
203
100
AcDbEntity
100
AcDbLine
  8
text
 62
256
370
-1
  6
ByLayer
 10
-12.7142290866412395
 20
-64.431489114636264
 30
0.0
 11
-12.7160381321359068
 21
-63.871400190798866
 31
0.0
  0
LINE
  5
204
100
AcDbEntity
100
AcDbLine
  8
text
 62
256
370
-1
  6
ByLayer
 10
-12.7160381321359068
 20
-63.871400190798866
 30
0.0
 11
-12.7173471058006555
 21
-63.3034416832490763
 31
0.0
  0
LINE
  5
205
100
AcDbEntity
100
AcDbLine
  8
text
 62
256
370
-1
  6
ByLayer
 10
-12.7173471058006555
 20
-63.3034416832490763
 30
0.0
 11
-12.7181424397685419
 21
-62.7284225531931128
 31
0.0
  0
LINE
  5
206
100
AcDbEntity
100
AcDbLine
  8
text
 62
256
370
-1
  6
ByLayer
 10
-12.7181424397685419
 20
-62.7284225531931128
 30
0.0
 11
-12.7184105661727358
 21
-62.147151761837236
 31
0.0
  0
LINE
  5
207
100
AcDbEntity
100
AcDbLine
  8
text
 62
256
370
-1
  6
ByLayer
 10
-12.7184105661727358
 20
-62.147151761837236
 30
0.0
 11
-12.7184105661727358
 21
-51.1726464825826781
 31
0.0
  0
LINE
  5
208
100
AcDbEntity
100
AcDbLine
  8
text
 62
256
370
-1
  6
ByLayer
 10
-12.7184105661727358
 20
-51.1726464825826781
 30
0.0
 11
-14.876230556604412
 21
-51.1726464825826781
 31
0.0
  0
LINE
  5
209
100
AcDbEntity
100
AcDbLine
  8
text
 62
256
370
-1
  6
ByLayer
 10
-14.876230556604412
 20
-51.1726464825826781
 30
0.0
 11
-17.0340483512143805
 21
-51.1726464825826213
 31
0.0
  0
LINE
  5
20A
100
AcDbEntity
100
AcDbLine
  8
text
 62
256
370
-1
  6
ByLayer
 10
-17.0340483512143805
 20
-51.1726464825826213
 30
0.0
 11
-17.1226794118486225
 21
-62.3545405607213468
 31
0.0
  0
LINE
  5
20B
100
AcDbEntity
100
AcDbLine
  8
text
 62
256
370
-1
  6
ByLayer
 10
-17.1226794118486225
 20
-62.3545405607213468
 30
0.0
 11
-17.2113071787506158
 21
-73.5364346388575854
 31
0.0
  0
LINE
  5
20C
100
AcDbEntity
100
AcDbLine
  8
text
 62
256
370
-1
  6
ByLayer
 10
-17.2113071787506158
 20
-73.5364346388575854
 30
0.0
 11
-18.0806858017819252
 21
-74.2839528271817642
 31
0.0
  0
LINE
  5
20D
100
AcDbEntity
100
AcDbLine
  8
text
 62
256
370
-1
  6
ByLayer
 10
-18.0806858017819252
 20
-74.2839528271817642
 30
0.0
 11
-18.1931179573069244
 21
-74.3765151894716894
 31
0.0
  0
LINE
  5
20E
100
AcDbEntity
100
AcDbLine
  8
text
 62
256
370
-1
  6
ByLayer
 10
-18.1931179573069244
 20
-74.3765151894716894
 30
0.0
 11
-18.3078290335318457
 21
-74.4629067276089955
 31
0.0
  0
LINE
  5
20F
100
AcDbEntity
100
AcDbLine
  8
text
 62
256
370
-1
  6
ByLayer
 10
-18.3078290335318457
 20
-74.4629067276089955
 30
0.0
 11
-18.4246618637482413
 21
-74.543127441593569
 31
0.0
  0
LINE
  5
210
100
AcDbEntity
100
AcDbLine
  8
text
 62
256
370
-1
  6
ByLayer
 10
-18.4246618637482413
 20
-74.543127441593569
 30
0.0
 11
-18.5434592812476922
 21
-74.6171773314255375
 31
0.0
  0
LINE
  5
211
100
AcDbEntity
100
AcDbLine
  8
text
 62
256
370
-1
  6
ByLayer
 10
-18.5434592812476922
 20
-74.6171773314255375
 30
0.0
 11
-18.6640641193216652
 21
-74.6850563971048018
 31
0.0
  0
LINE
  5
212
100
AcDbEntity
100
AcDbLine
  8
text
 62
256
370
-1
  6
ByLayer
 10
-18.6640641193216652
 20
-74.6850563971048018
 30
0.0
 11
-18.786319211261798
 21
-74.746764638631447
 31
0.0
  0
LINE
  5
213
100
AcDbEntity
100
AcDbLine
  8
text
 62
256
370
-1
  6
ByLayer
 10
-18.786319211261798
 20
-74.746764638631447
 30
0.0
 11
-18.9100673903596146
 21
-74.8023020560054164
 31
0.0
  0
LINE
  5
214
100
AcDbEntity
100
AcDbLine
  8
text
 62
256
370
-1
  6
ByLayer
 10
-18.9100673903596146
 20
-74.8023020560054164
 30
0.0
 11
-19.0351514899066387
 21
-74.8516686492267382
 31
0.0
  0
LINE
  5
215
100
AcDbEntity
100
AcDbLine
  8
text
 62
256
370
-1
  6
ByLayer
 10
-19.0351514899066387
 20
-74.8516686492267382
 30
0.0
 11
-19.1614143431944512
 21
-74.89486441829537
 31
0.0
  0
LINE
  5
216
100
AcDbEntity
100
AcDbLine
  8
text
 62
256
370
-1
  6
ByLayer
 10
-19.1614143431944512
 20
-74.89486441829537
 30
0.0
 11
-19.2886987835145476
 21
-74.9318893632113685
 31
0.0
  0
LINE
  5
217
100
AcDbEntity
100
AcDbLine
  8
text
 62
256
370
-1
  6
ByLayer
 10
-19.2886987835145476
 20
-74.9318893632113685
 30
0.0
 11
-19.4168476441585653
 21
-74.9627434839747337
 31
0.0
  0
LINE
  5
218
100
AcDbEntity
100
AcDbLine
  8
text
 62
256
370
-1
  6
ByLayer
 10
-19.4168476441585653
 20
-74.9627434839747337
 30
0.0
 11
-19.545703758418
 21
-74.9874267805854089
 31
0.0
  0
LINE
  5
219
100
AcDbEntity
100
AcDbLine
  8
text
 62
256
370
-1
  6
ByLayer
 10
-19.545703758418
 20
-74.9874267805854089
 30
0.0
 11
-19.6751099595844323
 21
-75.0059392530434366
 31
0.0
  0
LINE
  5
21A
100
AcDbEntity
100
AcDbLine
  8
text
 62
256
370
-1
  6
ByLayer
 10
-19.6751099595844323
 20
-75.0059392530434366
 30
0.0
 11
-19.8049090809493578
 21
-75.0182809013488026
 31
0.0
  0
LINE
  5
21B
100
AcDbEntity
100
AcDbLine
  8
text
 62
256
370
-1
  6
ByLayer
 10
-19.8049090809493578
 20
-75.0182809013488026
 30
0.0
 11
-19.9349439558043571
 21
-75.0244517255015353
 31
0.0
  0
LINE
  5
21C
100
AcDbEntity
100
AcDbLine
  8
text
 62
256
370
-1
  6
ByLayer
 10
-19.9349439558043571
 20
-75.0244517255015353
 30
0.0
 11
-20.065057417441011
 21
-75.0244517255015779
 31
0.0
  0
LINE
  5
21D
100
AcDbEntity
100
AcDbLine
  8
text
 62
256
370
-1
  6
ByLayer
 10
-20.065057417441011
 20
-75.0244517255015779
 30
0.0
 11
-20.1950922991507866
 21
-75.0182809013490157
 31
0.0
  0
LINE
  5
21E
100
AcDbEntity
100
AcDbLine
  8
text
 62
256
370
-1
  6
ByLayer
 10
-20.1950922991507866
 20
-75.0182809013490157
 30
0.0
 11
-20.3248914342253499
 21
-75.0059392530437634
 31
0.0
  0
LINE
  5
21F
100
AcDbEntity
100
AcDbLine
  8
text
 62
256
370
-1
  6
ByLayer
 10
-20.3248914342253499
 20
-75.0059392530437634
 30
0.0
 11
-20.454297655956168
 21
-74.9874267805858636
 31
0.0
  0
LINE
  5
220
100
AcDbEntity
100
AcDbLine
  8
text
 62
256
370
-1
  6
ByLayer
 10
-20.454297655956168
 20
-74.9874267805858636
 30
0.0
 11
-20.5831537976347931
 21
-74.9627434839753164
 31
0.0
  0
LINE
  5
221
100
AcDbEntity
100
AcDbLine
  8
text
 62
256
370
-1
  6
ByLayer
 10
-20.5831537976347931
 20
-74.9627434839753164
 30
0.0
 11
-20.7113026925528345
 21
-74.9318893632121359
 31
0.0
  0
LINE
  5
222
100
AcDbEntity
100
AcDbLine
  8
text
 62
256
370
-1
  6
ByLayer
 10
-20.7113026925528345
 20
-74.9318893632121359
 30
0.0
 11
-20.8385871740017592
 21
-74.8948644182962937
 31
0.0
  0
LINE
  5
223
100
AcDbEntity
100
AcDbLine
  8
text
 62
256
370
-1
  6
ByLayer
 10
-20.8385871740017592
 20
-74.8948644182962937
 30
0.0
 11
-20.9648500752731763
 21
-74.8516686492278041
 31
0.0
  0
LINE
  5
224
100
AcDbEntity
100
AcDbLine
  8
text
 62
256
370
-1
  6
ByLayer
 10
-20.9648500752731763
 20
-74.8516686492278041
 30
0.0
 11
-21.0899342296586383
 21
-74.8023020560066527
 31
0.0
  0
LINE
  5
225
100
AcDbEntity
100
AcDbLine
  8
text
 62
256
370
-1
  6
ByLayer
 10
-21.0899342296586383
 20
-74.8023020560066527
 30
0.0
 11
-21.2136824704496689
 21
-74.7467646386328539
 31
0.0
  0
LINE
  5
226
100
AcDbEntity
100
AcDbLine
  8
text
 62
256
370
-1
  6
ByLayer
 10
-21.2136824704496689
 20
-74.7467646386328539
 30
0.0
 11
-21.3359376309378206
 21
-74.6850563971064219
 31
0.0
  0
LINE
  5
227
100
AcDbEntity
100
AcDbLine
  8
text
 62
256
370
-1
  6
ByLayer
 10
-21.3359376309378206
 20
-74.6850563971064219
 30
0.0
 11
-21.4565425444146456
 21
-74.6171773314273565
 31
0.0
  0
LINE
  5
228
100
AcDbEntity
100
AcDbLine
  8
text
 62
256
370
-1
  6
ByLayer
 10
-21.4565425444146456
 20
-74.6171773314273565
 30
0.0
 11
-21.5753400441716963
 21
-74.5431274415956011
 31
0.0
  0
LINE
  5
229
100
AcDbEntity
100
AcDbLine
  8
text
 62
256
370
-1
  6
ByLayer
 10
-21.5753400441716963
 20
-74.5431274415956011
 30
0.0
 11
-21.6921729635005249
 21
-74.4629067276112266
 31
0.0
  0
LINE
  5
22A
100
AcDbEntity
100
AcDbLine
  8
text
 62
256
370
-1
  6
ByLayer
 10
-21.6921729635005249
 20
-74.4629067276112266
 30
0.0
 11
-21.8068841356926839
 21
-74.3765151894741905
 31
0.0
  0
LINE
  5
22B
100
AcDbEntity
100
AcDbLine
  8
text
 62
256
370
-1
  6
ByLayer
 10
-21.8068841356926839
 20
-74.3765151894741905
 30
0.0
 11
-21.9193163940397255
 21
-74.2839528271845069
 31
0.0
  0
LINE
  5
22C
100
AcDbEntity
100
AcDbLine
  8
text
 62
256
370
-1
  6
ByLayer
 10
-21.9193163940397255
 20
-74.2839528271845069
 30
0.0
 11
-22.7886950170711202
 21
-73.5364346388556527
 31
0.0
  0
LINE
  5
22D
100
AcDbEntity
100
AcDbLine
  8
text
 62
256
370
-1
  6
ByLayer
 10
-22.7886950170711202
 20
-73.5364346388556527
 30
0.0
 11
-22.8773227839722324
 21
-62.3545405607213468
 31
0.0
  0
LINE
  5
22E
100
AcDbEntity
100
AcDbLine
  8
text
 62
256
370
-1
  6
ByLayer
 10
-22.8773227839722324
 20
-62.3545405607213468
 30
0.0
 11
-22.9659538446072986
 21
-51.1726464825825929
 31
0.0
  0
LINE
  5
22F
100
AcDbEntity
100
AcDbLine
  8
text
 62
256
370
-1
  6
ByLayer
 10
-22.9659538446072986
 20
-51.1726464825825929
 30
0.0
 11
-25.123770541305845
 21
-51.1726464825824223
 31
0.0
  0
LINE
  5
230
100
AcDbEntity
100
AcDbLine
  8
text
 62
256
370
-1
  6
ByLayer
 10
-25.123770541305845
 20
-51.1726464825824223
 30
0.0
 11
-27.2815905317378622
 21
-51.1726464825827065
 31
0.0
  0
LINE
  5
231
100
AcDbEntity
100
AcDbLine
  8
text
 62
256
370
-1
  6
ByLayer
 10
-27.2815905317378622
 20
-51.1726464825827065
 30
0.0
 11
-27.2815905317378338
 21
-62.1471517618368949
 31
0.0
  0
LINE
  5
232
100
AcDbEntity
100
AcDbLine
  8
text
 62
256
370
-1
  6
ByLayer
 10
-27.2815905317378338
 20
-62.1471517618368949
 30
0.0
 11
-27.2818586548251858
 21
-62.7284225531927717
 31
0.0
  0
LINE
  5
233
100
AcDbEntity
100
AcDbLine
  8
text
 62
256
370
-1
  6
ByLayer
 10
-27.2818586548251858
 20
-62.7284225531927717
 30
0.0
 11
-27.2826539792848166
 21
-63.3034416832487921
 31
0.0
  0
LINE
  5
234
100
AcDbEntity
100
AcDbLine
  8
text
 62
256
370
-1
  6
ByLayer
 10
-27.2826539792848166
 20
-63.3034416832487921
 30
0.0
 11
-27.2839629379132305
 21
-63.8714001907986528
 31
0.0
  0
LINE
  5
235
100
AcDbEntity
100
AcDbLine
  8
text
 62
256
370
-1
  6
ByLayer
 10
-27.2839629379132305
 20
-63.8714001907986528
 30
0.0
 11
-27.2857719635068179
 21
-64.4314891146360935
 31
0.0
  0
LINE
  5
236
100
AcDbEntity
100
AcDbLine
  8
text
 62
256
370
-1
  6
ByLayer
 10
-27.2857719635068179
 20
-64.4314891146360935
 30
0.0
 11
-27.2880674888620831
 21
-64.9828994935548394
 31
0.0
  0
LINE
  5
237
100
AcDbEntity
100
AcDbLine
  8
text
 62
256
370
-1
  6
ByLayer
 10
-27.2880674888620831
 20
-64.9828994935548394
 30
0.0
 11
-27.2908359467754451
 21
-65.5248223663486442
 31
0.0
  0
LINE
  5
238
100
AcDbEntity
100
AcDbLine
  8
text
 62
256
370
-1
  6
ByLayer
 10
-27.2908359467754451
 20
-65.5248223663486442
 30
0.0
 11
-27.2940637700434081
 21
-66.0564487718112048
 31
0.0
  0
LINE
  5
239
100
AcDbEntity
100
AcDbLine
  8
text
 62
256
370
-1
  6
ByLayer
 10
-27.2940637700434081
 20
-66.0564487718112048
 30
0.0
 11
-27.2977373914623627
 21
-66.576969748736289
 31
0.0
  0
LINE
  5
23A
100
AcDbEntity
100
AcDbLine
  8
text
 62
256
370
-1
  6
ByLayer
 10
-27.2977373914623627
 20
-66.576969748736289
 30
0.0
 11
-27.3018432438287846
 21
-67.0855763359175796
 31
0.0
  0
LINE
  5
23B
100
AcDbEntity
100
AcDbLine
  8
text
 62
256
370
-1
  6
ByLayer
 10
-27.3018432438287846
 20
-67.0855763359175796
 30
0.0
 11
-27.3063677599391497
 21
-67.5814595721488161
 31
0.0
  0
LINE
  5
23C
100
AcDbEntity
100
AcDbLine
  8
text
 62
256
370
-1
  6
ByLayer
 10
-27.3063677599391497
 20
-67.5814595721488161
 30
0.0
 11
-27.3112973725898769
 21
-68.0638104962237662
 31
0.0
  0
LINE
  5
23D
100
AcDbEntity
100
AcDbLine
  8
text
 62
256
370
-1
  6
ByLayer
 10
-27.3112973725898769
 20
-68.0638104962237662
 30
0.0
 11
-27.3166185145774136
 21
-68.5318201469361412
 31
0.0
  0
LINE
  5
23E
100
AcDbEntity
100
AcDbLine
  8
text
 62
256
370
-1
  6
ByLayer
 10
-27.3166185145774136
 20
-68.5318201469361412
 30
0.0
 11
-27.3223176186982357
 21
-68.9846795630796521
 31
0.0
  0
LINE
  5
23F
100
AcDbEntity
100
AcDbLine
  8
text
 62
256
370
-1
  6
ByLayer
 10
-27.3223176186982357
 20
-68.9846795630796521
 30
0.0
 11
-27.328381117748819
 21
-69.4215797834480526
 31
0.0
  0
LINE
  5
240
100
AcDbEntity
100
AcDbLine
  8
text
 62
256
370
-1
  6
ByLayer
 10
-27.328381117748819
 20
-69.4215797834480526
 30
0.0
 11
-27.3347954445255539
 21
-69.8417118468350537
 31
0.0
  0
LINE
  5
241
100
AcDbEntity
100
AcDbLine
  8
text
 62
256
370
-1
  6
ByLayer
 10
-27.3347954445255539
 20
-69.8417118468350537
 30
0.0
 11
-27.3415470318249731
 21
-70.2442667920344093
 31
0.0
  0
LINE
  5
242
100
AcDbEntity
100
AcDbLine
  8
text
 62
256
370
-1
  6
ByLayer
 10
-27.3415470318249731
 20
-70.2442667920344093
 30
0.0
 11
-27.3486223124434673
 21
-70.628435657839816
 31
0.0
  0
LINE
  5
243
100
AcDbEntity
100
AcDbLine
  8
text
 62
256
370
-1
  6
ByLayer
 10
-27.3486223124434673
 20
-70.628435657839816
 30
0.0
 11
-27.3560077191775122
 21
-70.993409483045042
 31
0.0
  0
LINE
  5
244
100
AcDbEntity
100
AcDbLine
  8
text
 62
256
370
-1
  6
ByLayer
 10
-27.3560077191775122
 20
-70.993409483045042
 30
0.0
 11
-27.3636896848235267
 21
-71.3383793064437839
 31
0.0
  0
LINE
  5
245
100
AcDbEntity
100
AcDbLine
  8
text
 62
256
370
-1
  6
ByLayer
 10
-27.3636896848235267
 20
-71.3383793064437839
 30
0.0
 11
-27.3716546421780151
 21
-71.6625361668297813
 31
0.0
  0
LINE
  5
246
100
AcDbEntity
100
AcDbLine
  8
text
 62
256
370
-1
  6
ByLayer
 10
-27.3716546421780151
 20
-71.6625361668297813
 30
0.0
 11
-27.3798890240373964
 21
-71.965071102996788
 31
0.0
  0
LINE
  5
247
100
AcDbEntity
100
AcDbLine
  8
text
 62
256
370
-1
  6
ByLayer
 10
-27.3798890240373964
 20
-71.965071102996788
 30
0.0
 11
-27.3883792631981464
 21
-72.2451751537385007
 31
0.0
  0
LINE
  5
248
100
AcDbEntity
100
AcDbLine
  8
text
 62
256
370
-1
  6
ByLayer
 10
-27.3883792631981464
 20
-72.2451751537385007
 30
0.0
 11
-27.3971117924567125
 21
-72.5020393578486591
 31
0.0
  0
LINE
  5
249
100
AcDbEntity
100
AcDbLine
  8
text
 62
256
370
-1
  6
ByLayer
 10
-27.3971117924567125
 20
-72.5020393578486591
 30
0.0
 11
-27.4060730446095135
 21
-72.7348547541210024
 31
0.0
  0
LINE
  5
24A
100
AcDbEntity
100
AcDbLine
  8
text
 62
256
370
-1
  6
ByLayer
 10
-27.4060730446095135
 20
-72.7348547541210024
 30
0.0
 11
-27.4152494524530539
 21
-72.9428123813492419
 31
0.0
  0
LINE
  5
24B
100
AcDbEntity
100
AcDbLine
  8
text
 62
256
370
-1
  6
ByLayer
 10
-27.4152494524530539
 20
-72.9428123813492419
 30
0.0
 11
-27.4246274487837525
 21
-73.1251032783271313
 31
0.0
  0
LINE
  5
24C
100
AcDbEntity
100
AcDbLine
  8
text
 62
256
370
-1
  6
ByLayer
 10
-27.4246274487837525
 20
-73.1251032783271313
 30
0.0
 11
-27.4341934663980851
 21
-73.28091848384841
 31
0.0
  0
LINE
  5
24D
100
AcDbEntity
100
AcDbLine
  8
text
 62
256
370
-1
  6
ByLayer
 10
-27.4341934663980851
 20
-73.28091848384841
 30
0.0
 11
-27.4439339380924707
 21
-73.4094490367067607
 31
0.0
  0
LINE
  5
24E
100
AcDbEntity
100
AcDbLine
  8
text
 62
256
370
-1
  6
ByLayer
 10
-27.4439339380924707
 20
-73.4094490367067607
 30
0.0
 11
-27.4538352966634136
 21
-73.5098859756959513
 31
0.0
  0
LINE
  5
24F
100
AcDbEntity
100
AcDbLine
  8
text
 62
256
370
-1
  6
ByLayer
 10
-27.4538352966634136
 20
-73.5098859756959513
 30
0.0
 11
-27.4638839749073043
 21
-73.5814203396096929
 31
0.0
  0
LINE
  5
250
100
AcDbEntity
100
AcDbLine
  8
text
 62
256
370
-1
  6
ByLayer
 10
-27.4638839749073043
 20
-73.5814203396096929
 30
0.0
 11
-27.4740664056206469
 21
-73.6232431672417249
 31
0.0
  0
LINE
  5
251
100
AcDbEntity
100
AcDbLine
  8
text
 62
256
370
-1
  6
ByLayer
 10
-27.4740664056206469
 20
-73.6232431672417249
 30
0.0
 11
-27.5230531287886606
 21
-73.7322825148502687
 31
0.0
  0
LINE
  5
252
100
AcDbEntity
100
AcDbLine
  8
text
 62
256
370
-1
  6
ByLayer
 10
-27.5230531287886606
 20
-73.7322825148502687
 30
0.0
 11
-27.5846336833888301
 21
-73.8379962606185813
 31
0.0
  0
LINE
  5
253
100
AcDbEntity
100
AcDbLine
  8
text
 62
256
370
-1
  6
ByLayer
 10
-27.5846336833888301
 20
-73.8379962606185813
 30
0.0
 11
-27.6581133574422893
 21
-73.9402116557646991
 31
0.0
  0
LINE
  5
254
100
AcDbEntity
100
AcDbLine
  8
text
 62
256
370
-1
  6
ByLayer
 10
-27.6581133574422893
 20
-73.9402116557646991
 30
0.0
 11
-27.7427974389701717
 21
-74.0387559515067153
 31
0.0
  0
LINE
  5
255
100
AcDbEntity
100
AcDbLine
  8
text
 62
256
370
-1
  6
ByLayer
 10
-27.7427974389701717
 20
-74.0387559515067153
 30
0.0
 11
-27.8379912159934975
 21
-74.1334563990627089
 31
0.0
  0
LINE
  5
256
100
AcDbEntity
100
AcDbLine
  8
text
 62
256
370
-1
  6
ByLayer
 10
-27.8379912159934975
 20
-74.1334563990627089
 30
0.0
 11
-27.9429999765334571
 21
-74.2241402496507874
 31
0.0
  0
LINE
  5
257
100
AcDbEntity
100
AcDbLine
  8
text
 62
256
370
-1
  6
ByLayer
 10
-27.9429999765334571
 20
-74.2241402496507874
 30
0.0
 11
-28.0571290086110992
 21
-74.3106347544889871
 31
0.0
  0
LINE
  5
258
100
AcDbEntity
100
AcDbLine
  8
text
 62
256
370
-1
  6
ByLayer
 10
-28.0571290086110992
 20
-74.3106347544889871
 30
0.0
 11
-28.1796836002475288
 21
-74.3927671647953872
 31
0.0
  0
LINE
  5
259
100
AcDbEntity
100
AcDbLine
  8
text
 62
256
370
-1
  6
ByLayer
 10
-28.1796836002475288
 20
-74.3927671647953872
 30
0.0
 11
-28.3099690394638515
 21
-74.470364731788095
 31
0.0
  0
LINE
  5
25A
100
AcDbEntity
100
AcDbLine
  8
text
 62
256
370
-1
  6
ByLayer
 10
-28.3099690394638515
 20
-74.470364731788095
 30
0.0
 11
-28.4472906142811723
 21
-74.5432547066852038
 31
0.0
  0
LINE
  5
25B
100
AcDbEntity
100
AcDbLine
  8
text
 62
256
370
-1
  6
ByLayer
 10
-28.4472906142811723
 20
-74.5432547066852038
 30
0.0
 11
-28.5909536127206252
 21
-74.6112643407047642
 31
0.0
  0
LINE
  5
25C
100
AcDbEntity
100
AcDbLine
  8
text
 62
256
370
-1
  6
ByLayer
 10
-28.5909536127206252
 20
-74.6112643407047642
 30
0.0
 11
-28.74026332280323
 21
-74.6742208850648694
 31
0.0
  0
LINE
  5
25D
100
AcDbEntity
100
AcDbLine
  8
text
 62
256
370
-1
  6
ByLayer
 10
-28.74026332280323
 20
-74.6742208850648694
 30
0.0
 11
-28.8945250325501775
 21
-74.7319515909835559
 31
0.0
  0
LINE
  5
25E
100
AcDbEntity
100
AcDbLine
  8
text
 62
256
370
-1
  6
ByLayer
 10
-28.8945250325501775
 20
-74.7319515909835559
 30
0.0
 11
-29.0530440299825159
 21
-74.7842837096789594
 31
0.0
  0
LINE
  5
25F
100
AcDbEntity
100
AcDbLine
  8
text
 62
256
370
-1
  6
ByLayer
 10
-29.0530440299825159
 20
-74.7842837096789594
 30
0.0
 11
-29.2151256031213222
 21
-74.8310444923691449
 31
0.0
  0
LINE
  5
260
100
AcDbEntity
100
AcDbLine
  8
text
 62
256
370
-1
  6
ByLayer
 10
-29.2151256031213222
 20
-74.8310444923691449
 30
0.0
 11
-29.3800750399877586
 21
-74.8720611902721771
 31
0.0
  0
LINE
  5
261
100
AcDbEntity
100
AcDbLine
  8
text
 62
256
370
-1
  6
ByLayer
 10
-29.3800750399877586
 20
-74.8720611902721771
 30
0.0
 11
-29.5471976286029019
 21
-74.9071610546061351
 31
0.0
  0
LINE
  5
262
100
AcDbEntity
100
AcDbLine
  8
text
 62
256
370
-1
  6
ByLayer
 10
-29.5471976286029019
 20
-74.9071610546061351
 30
0.0
 11
-29.7157986569878574
 21
-74.9361713365891262
 31
0.0
  0
LINE
  5
263
100
AcDbEntity
100
AcDbLine
  8
text
 62
256
370
-1
  6
ByLayer
 10
-29.7157986569878574
 20
-74.9361713365891262
 30
0.0
 11
-29.885183413163702
 21
-74.958919287439187
 31
0.0
  0
LINE
  5
264
100
AcDbEntity
100
AcDbLine
  8
text
 62
256
370
-1
  6
ByLayer
 10
-29.885183413163702
 20
-74.958919287439187
 30
0.0
 11
-30.0546571851515978
 21
-74.9752321583743964
 31
0.0
  0
LINE
  5
265
100
AcDbEntity
100
AcDbLine
  8
text
 62
256
370
-1
  6
ByLayer
 10
-30.0546571851515978
 20
-74.9752321583743964
 30
0.0
 11
-30.2235252609725649
 21
-74.9849372006128903
 31
0.0
  0
LINE
  5
266
100
AcDbEntity
100
AcDbLine
  8
text
 62
256
370
-1
  6
ByLayer
 10
-30.2235252609725649
 20
-74.9849372006128903
 30
0.0
 11
-30.3910929286477369
 21
-74.9878616653726766
 31
0.0
  0
LINE
  5
267
100
AcDbEntity
100
AcDbLine
  8
text
 62
256
370
-1
  6
ByLayer
 10
-30.3910929286477369
 20
-74.9878616653726766
 30
0.0
 11
-30.5566654761982477
 21
-74.9838328038719197
 31
0.0
  0
LINE
  5
268
100
AcDbEntity
100
AcDbLine
  8
text
 62
256
370
-1
  6
ByLayer
 10
-30.5566654761982477
 20
-74.9838328038719197
 30
0.0
 11
-30.719548191645174
 21
-74.9726778673286276
 31
0.0
  0
LINE
  5
269
100
AcDbEntity
100
AcDbLine
  8
text
 62
256
370
-1
  6
ByLayer
 10
-30.719548191645174
 20
-74.9726778673286276
 30
0.0
 11
-30.8790463630095928
 21
-74.9542241069608934
 31
0.0
  0
LINE
  5
26A
100
AcDbEntity
100
AcDbLine
  8
text
 62
256
370
-1
  6
ByLayer
 10
-30.8790463630095928
 20
-74.9542241069608934
 30
0.0
 11
-31.0344652783126378
 21
-74.9282987739868105
 31
0.0
  0
LINE
  5
26B
100
AcDbEntity
100
AcDbLine
  8
text
 62
256
370
-1
  6
ByLayer
 10
-31.0344652783126378
 20
-74.9282987739868105
 30
0.0
 11
-31.1851102255754142
 21
-74.8947291196244578
 31
0.0
  0
LINE
  5
26C
100
AcDbEntity
100
AcDbLine
  8
text
 62
256
370
-1
  6
ByLayer
 10
-31.1851102255754142
 20
-74.8947291196244578
 30
0.0
 11
-31.330286492818999
 21
-74.8533423950919143
 31
0.0
  0
LINE
  5
26D
100
AcDbEntity
100
AcDbLine
  8
text
 62
256
370
-1
  6
ByLayer
 10
-31.330286492818999
 20
-74.8533423950919143
 30
0.0
 11
-31.4692993680644975
 21
-74.8039658516072308
 31
0.0
  0
LINE
  5
26E
100
AcDbEntity
100
AcDbLine
  8
text
 62
256
370
-1
  6
ByLayer
 10
-31.4692993680644975
 20
-74.8039658516072308
 30
0.0
 11
-31.6014541393330433
 21
-74.7464267403885287
 31
0.0
  0
LINE
  5
26F
100
AcDbEntity
100
AcDbLine
  8
text
 62
256
370
-1
  6
ByLayer
 10
-31.6014541393330433
 20
-74.7464267403885287
 30
0.0
 11
-31.7260560946457133
 21
-74.6805523126538588
 31
0.0
  0
LINE
  5
270
100
AcDbEntity
100
AcDbLine
  8
text
 62
256
370
-1
  6
ByLayer
 10
-31.7260560946457133
 20
-74.6805523126538588
 30
0.0
 11
-31.7260560946457133
 21
-74.6805523126538588
 31
0.0
  0
LINE
  5
271
100
AcDbEntity
100
AcDbLine
  8
bottom mount
 62
256
370
-1
  6
ByLayer
 10
-53.4116968793293267
 20
184.0750000000000455
 30
0.0
 11
-53.4116968793293267
 21
184.0750000000000455
 31
0.0
  0
CIRCLE
  5
272
100
AcDbEntity
100
AcDbCircle
  8
bottom mount
 62
256
370
-1
  6
ByLayer
 10
-17.9999999999999432
 20
187.0000000000001137
 30
0.0
 40
2.5
  0
CIRCLE
  5
273
100
AcDbEntity
100
AcDbCircle
  8
bottom mount
 62
256
370
-1
  6
ByLayer
 10
-121.9999999999999432
 20
187.0000000000001137
 30
0.0
 40
2.5
  0
LINE
  5
274
100
AcDbEntity
100
AcDbLine
  8
bottom mount
 62
256
370
-1
  6
ByLayer
 10
-54.4999999999999432
 20
187.0000000000001137
 30
0.0
 11
-54.4999999999999432
 21
187.0000000000001137
 31
0.0
  0
ARC
  5
275
100
AcDbEntity
  8
bottom mount
 62
256
370
-1
  6
ByLayer
100
AcDbCircle
 10
-69.9999999999999432
 20
187.0000000000001137
 30
0.0
 40
16.0
100
AcDbArc
 50
180.0
 51
0.0
  0
CIRCLE
  5
276
100
AcDbEntity
100
AcDbCircle
  8
bottom mount
 62
256
370
-1
  6
ByLayer
 10
-115.4999999999999432
 20
187.0057014493281713
 30
0.0
 40
3.0
  0
CIRCLE
  5
277
100
AcDbEntity
100
AcDbCircle
  8
bottom mount
 62
256
370
-1
  6
ByLayer
 10
-24.4999999999999432
 20
187.0000000000001137
 30
0.0
 40
3.0
  0
ARC
  5
278
100
AcDbEntity
  8
bottom mount
 62
256
370
-1
  6
ByLayer
100
AcDbCircle
 10
-9.9999999999999432
 20
152.0000000000000568
 30
0.0
 40
10.0
100
AcDbArc
 50
270.0
 51
360.0
  0
LINE
  5
279
100
AcDbEntity
100
AcDbLine
  8
bottom mount
 62
256
370
-1
  6
ByLayer
 10
-9.9999999999999432
 20
142.0000000000000568
 30
0.0
 11
-129.9999999999999432
 21
142.0000000000000568
 31
0.0
  0
ARC
  5
27A
100
AcDbEntity
  8
bottom mount
 62
256
370
-1
  6
ByLayer
100
AcDbCircle
 10
-129.9999999999999432
 20
152.0000000000001137
 30
0.0
 40
10.0
100
AcDbArc
 50
180.0
 51
270.0
  0
CIRCLE
  5
27B
100
AcDbEntity
100
AcDbCircle
  8
bottom mount
 62
256
370
-1
  6
ByLayer
 10
-69.9999999999999432
 20
149.5000000000000568
 30
0.0
 40
3.0
  0
ARC
  5
27C
100
AcDbEntity
  8
bottom mount
 62
256
370
-1
  6
ByLayer
100
AcDbCircle
 10
-9.9999999999999432
 20
202.0000000000001137
 30
0.0
 40
10.0
100
AcDbArc
 50
0.0
 51
90.0
  0
ARC
  5
27D
100
AcDbEntity
  8
bottom mount
 62
256
370
-1
  6
ByLayer
100
AcDbCircle
 10
-129.9999999999999147
 20
202.0000000000001137
 30
0.0
 40
10.0
100
AcDbArc
 50
90.0
 51
180.0
  0
LINE
  5
27E
100
AcDbEntity
100
AcDbLine
  8
bottom mount
 62
256
370
-1
  6
ByLayer
 10
-85.9999999999999432
 20
187.0000000000001137
 30
0.0
 11
-85.9999999999999432
 21
202.0000000000001137
 31
0.0
  0
LINE
  5
27F
100
AcDbEntity
100
AcDbLine
  8
bottom mount
 62
256
370
-1
  6
ByLayer
 10
-53.9999999999999432
 20
187.0000000000001137
 30
0.0
 11
-53.9999999999999432
 21
202.0000000000001137
 31
0.0
  0
LINE
  5
280
100
AcDbEntity
100
AcDbLine
  8
bottom mount
 62
256
370
-1
  6
ByLayer
 10
-43.9999999999999289
 20
212.0000000000001137
 30
0.0
 11
-9.9999999999999432
 21
212.0000000000000568
 31
0.0
  0
ARC
  5
281
100
AcDbEntity
  8
bottom mount
 62
256
370
-1
  6
ByLayer
100
AcDbCircle
 10
-43.9999999999999432
 20
202.0000000000001137
 30
0.0
 40
10.0
100
AcDbArc
 50
89.9999999999999289
 51
180.0
  0
LINE
  5
282
100
AcDbEntity
100
AcDbLine
  8
bottom mount
 62
256
370
-1
  6
ByLayer
 10
-129.9999999999999432
 20
212.0000000000001137
 30
0.0
 11
-95.9999999999999432
 21
212.0000000000001137
 31
0.0
  0
ARC
  5
283
100
AcDbEntity
  8
bottom mount
 62
256
370
-1
  6
ByLayer
100
AcDbCircle
 10
-95.9999999999999432
 20
202.0000000000001137
 30
0.0
 40
10.0
100
AcDbArc
 50
0.0
 51
90.0
  0
LINE
  5
284
100
AcDbEntity
100
AcDbLine
  8
bottom mount
 62
256
370
-1
  6
ByLayer
 10
0.0000000000000568
 20
202.0000000000000568
 30
0.0
 11
0.0000000000000568
 21
152.0000000000000568
 31
0.0
  0
LINE
  5
285
100
AcDbEntity
100
AcDbLine
  8
bottom mount
 62
256
370
-1
  6
ByLayer
 10
-139.9999999999999432
 20
152.0
 30
0.0
 11
-139.9999999999999432
 21
202.0000000000001137
 31
0.0
  0
LINE
  5
286
100
AcDbEntity
100
AcDbLine
  8
back
 62
256
370
-1
  6
ByLayer
 10
-39.9999999999999574
 20
-110.0000000000000853
 30
0.0
 11
-39.9999999999999574
 21
-110.0000000000000853
 31
0.0
  0
CIRCLE
  5
287
100
AcDbEntity
100
AcDbCircle
  8
back
 62
256
370
-1
  6
ByLayer
 10
-52.0760426008931887
 20
-35.0000000000001279
 30
0.0
 40
1.5
  0
CIRCLE
  5
288
100
AcDbEntity
100
AcDbCircle
  8
back
 62
256
370
-1
  6
ByLayer
 10
12.2068006574577197
 20
-35.0000000000000995
 30
0.0
 40
1.5
  0
LINE
  5
289
100
AcDbEntity
100
AcDbLine
  8
back
 62
256
370
-1
  6
ByLayer
 10
-68.0022436396360774
 20
35.9999999999997797
 30
0.0
 11
27.9977563603639652
 21
35.9999999999999645
 31
0.0
  0
LINE
  5
28A
100
AcDbEntity
100
AcDbLine
  8
back
 62
256
370
-1
  6
ByLayer
 10
-35.0000000000001705
 20
-110.0000000000000284
 30
0.0
 11
-73.0022436396360774
 21
-110.0
 31
0.0
  0
LINE
  5
28B
100
AcDbEntity
100
AcDbLine
  8
back
 62
256
370
-1
  6
ByLayer
 10
32.9977563603638799
 20
-110.0000000000000426
 30
0.0
 11
-5.0000000000000426
 21
-110.0000000000000568
 31
0.0
  0
CIRCLE
  5
28C
100
AcDbEntity
100
AcDbCircle
  8
back
 62
256
370
-1
  6
ByLayer
 10
-52.0760426008931816
 20
29.9999999999998721
 30
0.0
 40
1.5
  0
CIRCLE
  5
28D
100
AcDbEntity
100
AcDbCircle
  8
back
 62
256
370
-1
  6
ByLayer
 10
12.2068006574577232
 20
29.9999999999999005
 30
0.0
 40
1.5
  0
ARC
  5
28E
100
AcDbEntity
  8
back
 62
256
370
-1
  6
ByLayer
100
AcDbCircle
 10
-43.3972436396360592
 20
-47.0800000000000125
 30
0.0
 40
1.5
100
AcDbArc
 50
0.0
 51
90.0
  0
LINE
  5
28F
100
AcDbEntity
100
AcDbLine
  8
back
 62
256
370
-1
  6
ByLayer
 10
-41.8972436396360592
 20
-47.0800000000000125
 30
0.0
 11
-41.8972436396360592
 21
-58.0000000000000142
 31
0.0
  0
ARC
  5
290
100
AcDbEntity
  8
back
 62
256
370
-1
  6
ByLayer
100
AcDbCircle
 10
-43.3972436396360592
 20
-58.0000000000000142
 30
0.0
 40
1.5
100
AcDbArc
 50
270.0
 51
0.0
  0
LINE
  5
291
100
AcDbEntity
100
AcDbLine
  8
back
 62
256
370
-1
  6
ByLayer
 10
-56.6072436396360672
 20
-59.5000000000000142
 30
0.0
 11
-43.3972436396360592
 21
-59.5000000000000142
 31
0.0
  0
ARC
  5
292
100
AcDbEntity
  8
back
 62
256
370
-1
  6
ByLayer
100
AcDbCircle
 10
-56.6072436396360672
 20
-58.0000000000000142
 30
0.0
 40
1.5
100
AcDbArc
 50
180.0
 51
270.0
  0
LINE
  5
293
100
AcDbEntity
100
AcDbLine
  8
back
 62
256
370
-1
  6
ByLayer
 10
-58.1072436396360672
 20
-47.0800000000000125
 30
0.0
 11
-58.1072436396360672
 21
-58.0000000000000142
 31
0.0
  0
LINE
  5
294
100
AcDbEntity
100
AcDbLine
  8
back
 62
256
370
-1
  6
ByLayer
 10
-56.6072436396360672
 20
-45.5800000000000125
 30
0.0
 11
-43.3972436396360592
 21
-45.5800000000000125
 31
0.0
  0
ARC
  5
295
100
AcDbEntity
  8
back
 62
256
370
-1
  6
ByLayer
100
AcDbCircle
 10
-56.6072436396360672
 20
-47.0800000000000125
 30
0.0
 40
1.5
100
AcDbArc
 50
90.0
 51
180.0
  0
ARC
  5
296
100
AcDbEntity
  8
back
 62
256
370
-1
  6
ByLayer
100
AcDbCircle
 10
16.6027563603639194
 20
-47.079999999999913
 30
0.0
 40
1.5
100
AcDbArc
 50
0.0
 51
90.0
  0
LINE
  5
297
100
AcDbEntity
100
AcDbLine
  8
back
 62
256
370
-1
  6
ByLayer
 10
18.1027563603639194
 20
-47.079999999999913
 30
0.0
 11
18.1027563603639194
 21
-57.9999999999999147
 31
0.0
  0
ARC
  5
298
100
AcDbEntity
  8
back
 62
256
370
-1
  6
ByLayer
100
AcDbCircle
 10
16.6027563603639194
 20
-57.9999999999999147
 30
0.0
 40
1.5
100
AcDbArc
 50
270.0
 51
0.0
  0
LINE
  5
299
100
AcDbEntity
100
AcDbLine
  8
back
 62
256
370
-1
  6
ByLayer
 10
3.3927563603639115
 20
-59.4999999999999147
 30
0.0
 11
16.6027563603639194
 21
-59.4999999999999147
 31
0.0
  0
ARC
  5
29A
100
AcDbEntity
  8
back
 62
256
370
-1
  6
ByLayer
100
AcDbCircle
 10
3.3927563603639115
 20
-57.9999999999999147
 30
0.0
 40
1.5
100
AcDbArc
 50
180.0
 51
270.0
  0
LINE
  5
29B
100
AcDbEntity
100
AcDbLine
  8
back
 62
256
370
-1
  6
ByLayer
 10
1.8927563603639115
 20
-47.079999999999913
 30
0.0
 11
1.8927563603639115
 21
-57.9999999999999147
 31
0.0
  0
LINE
  5
29C
100
AcDbEntity
100
AcDbLine
  8
back
 62
256
370
-1
  6
ByLayer
 10
3.3927563603639115
 20
-45.579999999999913
 30
0.0
 11
16.6027563603639194
 21
-45.579999999999913
 31
0.0
  0
ARC
  5
29D
100
AcDbEntity
  8
back
 62
256
370
-1
  6
ByLayer
100
AcDbCircle
 10
3.3927563603639115
 20
-47.079999999999913
 30
0.0
 40
1.5
100
AcDbArc
 50
90.0
 51
180.0
  0
LINE
  5
29E
100
AcDbEntity
100
AcDbLine
  8
back
 62
256
370
-1
  6
ByLayer
 10
-14.9999999999999432
 20
6.9999999999999005
 30
0.0
 11
-14.9999999999999432
 21
6.9999999999999005
 31
0.0
  0
LINE
  5
29F
100
AcDbEntity
100
AcDbLine
  8
back
 62
256
370
-1
  6
ByLayer
 10
-14.9999999999999432
 20
10.9999999999999005
 30
0.0
 11
-4.9999999999999432
 21
10.9999999999999005
 31
0.0
  0
LINE
  5
2A0
100
AcDbEntity
100
AcDbLine
  8
back
 62
256
370
-1
  6
ByLayer
 10
-4.9999999999999432
 20
5.9999999999998934
 30
0.0
 11
-14.9999999999999432
 21
5.9999999999999005
 31
0.0
  0
LINE
  5
2A1
100
AcDbEntity
100
AcDbLine
  8
back
 62
256
370
-1
  6
ByLayer
 10
-14.9999999999999432
 20
5.9999999999999005
 30
0.0
 11
-14.9999999999999432
 21
10.9999999999999005
 31
0.0
  0
LINE
  5
2A2
100
AcDbEntity
100
AcDbLine
  8
back
 62
256
370
-1
  6
ByLayer
 10
-4.9999999999999432
 20
10.9999999999999005
 30
0.0
 11
-4.9999999999999432
 21
5.9999999999998934
 31
0.0
  0
LINE
  5
2A3
100
AcDbEntity
100
AcDbLine
  8
back
 62
256
370
-1
  6
ByLayer
 10
-34.9999999999999432
 20
5.9999999999999005
 30
0.0
 11
-24.9999999999999432
 21
5.9999999999999005
 31
0.0
  0
LINE
  5
2A4
100
AcDbEntity
100
AcDbLine
  8
back
 62
256
370
-1
  6
ByLayer
 10
-24.9999999999999432
 20
5.9999999999999005
 30
0.0
 11
-24.9999999999999432
 21
10.9999999999999005
 31
0.0
  0
LINE
  5
2A5
100
AcDbEntity
100
AcDbLine
  8
back
 62
256
370
-1
  6
ByLayer
 10
-24.9999999999999432
 20
10.9999999999999005
 30
0.0
 11
-34.9999999999999432
 21
10.9999999999999005
 31
0.0
  0
LINE
  5
2A6
100
AcDbEntity
100
AcDbLine
  8
back
 62
256
370
-1
  6
ByLayer
 10
-34.9999999999999432
 20
10.9999999999999005
 30
0.0
 11
-34.9999999999999432
 21
5.9999999999999005
 31
0.0
  0
LINE
  5
2A7
100
AcDbEntity
100
AcDbLine
  8
back
 62
256
370
-1
  6
ByLayer
 10
-22.7579892769681891
 20
-102.9977563603678163
 30
0.0
 11
-22.7554732459242359
 21
-99.9977563603678163
 31
0.0
  0
LINE
  5
2A8
100
AcDbEntity
100
AcDbLine
  8
back
 62
256
370
-1
  6
ByLayer
 10
-21.5079892769681891
 20
-99.9977563603678163
 30
0.0
 11
-22.7554732459242359
 21
-99.9977563603678163
 31
0.0
  0
LINE
  5
2A9
100
AcDbEntity
100
AcDbLine
  8
back
 62
256
370
-1
  6
ByLayer
 10
-17.2579892769681891
 20
-102.9977563603678163
 30
0.0
 11
-17.2532976165510092
 21
-99.9977563603678163
 31
0.0
  0
LINE
  5
2AA
100
AcDbEntity
100
AcDbLine
  8
back
 62
256
370
-1
  6
ByLayer
 10
-17.2532976165510092
 20
-99.9977563603678163
 30
0.0
 11
-18.5079892769681891
 21
-99.9977563603678163
 31
0.0
  0
LINE
  5
2AB
100
AcDbEntity
100
AcDbLine
  8
back
 62
256
370
-1
  6
ByLayer
 10
-18.5907872923197175
 20
-109.9977563603677595
 30
0.0
 11
-18.5915052570019412
 21
-102.999036637147185
 31
0.0
  0
LINE
  5
2AC
100
AcDbEntity
100
AcDbLine
  8
back
 62
256
370
-1
  6
ByLayer
 10
-21.4087986704116418
 20
-102.999036637147185
 30
0.0
 11
-21.4087986704117554
 21
-110.0022436396322973
 31
0.0
  0
LINE
  5
2AD
100
AcDbEntity
100
AcDbLine
  8
back
 62
256
370
-1
  6
ByLayer
 10
-22.7579892769681891
 20
-102.9977563603678163
 30
0.0
 11
-21.4087986704116418
 21
-102.999036637147185
 31
0.0
  0
LINE
  5
2AE
100
AcDbEntity
100
AcDbLine
  8
back
 62
256
370
-1
  6
ByLayer
 10
-18.5915052570019412
 20
-102.999036637147185
 30
0.0
 11
-17.2579892769681891
 21
-102.9977563603678163
 31
0.0
  0
LINE
  5
2AF
100
AcDbEntity
100
AcDbLine
  8
back
 62
256
370
-1
  6
ByLayer
 10
-18.5079892769681891
 20
-98.9977563603678163
 30
0.0
 11
-21.5079892769681891
 21
-98.9977563603678163
 31
0.0
  0
LINE
  5
2B0
100
AcDbEntity
100
AcDbLine
  8
back
 62
256
370
-1
  6
ByLayer
 10
-18.5079892769681891
 20
-99.9977563603678163
 30
0.0
 11
-18.5079892769681891
 21
-98.9977563603678163
 31
0.0
  0
LINE
  5
2B1
100
AcDbEntity
100
AcDbLine
  8
back
 62
256
370
-1
  6
ByLayer
 10
-21.5079892769681891
 20
-98.9977563603678163
 30
0.0
 11
-21.5079892769681891
 21
-99.9977563603678163
 31
0.0
  0
LINE
  5
2B2
100
AcDbEntity
100
AcDbLine
  8
back
 62
256
370
-1
  6
ByLayer
 10
-15.0000000000001279
 20
-115.0022436396322973
 30
0.0
 11
-5.0000000000001279
 21
-115.0022436396322973
 31
0.0
  0
LINE
  5
2B3
100
AcDbEntity
100
AcDbLine
  8
back
 62
256
370
-1
  6
ByLayer
 10
-15.0000000000001279
 20
-110.0022436396320131
 30
0.0
 11
-15.0000000000001279
 21
-115.0022436396322973
 31
0.0
  0
LINE
  5
2B4
100
AcDbEntity
100
AcDbLine
  8
back
 62
256
370
-1
  6
ByLayer
 10
-5.0000000000001279
 20
-115.0022436396322973
 30
0.0
 11
-5.0000000000001279
 21
-110.0022436396361059
 31
0.0
  0
LINE
  5
2B5
100
AcDbEntity
100
AcDbLine
  8
back
 62
256
370
-1
  6
ByLayer
 10
-35.0000000000001279
 20
-115.0022436396322973
 30
0.0
 11
-25.0000000000001279
 21
-115.0022436396322973
 31
0.0
  0
LINE
  5
2B6
100
AcDbEntity
100
AcDbLine
  8
back
 62
256
370
-1
  6
ByLayer
 10
-25.0000000000001279
 20
-115.0022436396322973
 30
0.0
 11
-25.0000000000001279
 21
-110.0022436396320131
 31
0.0
  0
LINE
  5
2B7
100
AcDbEntity
100
AcDbLine
  8
back
 62
256
370
-1
  6
ByLayer
 10
-35.0000000000001279
 20
-110.0022436396360774
 30
0.0
 11
-35.0000000000001279
 21
-115.0022436396322973
 31
0.0
  0
LINE
  5
2B8
100
AcDbEntity
100
AcDbLine
  8
back
 62
256
370
-1
  6
ByLayer
 10
-25.0000000000001279
 20
-110.0022436396320131
 30
0.0
 11
-21.4087986704117554
 21
-110.0022436396322973
 31
0.0
  0
LINE
  5
2B9
100
AcDbEntity
100
AcDbLine
  8
back
 62
256
370
-1
  6
ByLayer
 10
-18.5907872923197175
 20
-109.9977563603677595
 30
0.0
 11
-15.0000000000001279
 21
-110.0022436396320131
 31
0.0
  0
LINE
  5
2BA
100
AcDbEntity
100
AcDbLine
  8
back
 62
256
370
-1
  6
ByLayer
 10
-14.9999999999999432
 20
-93.0000000000000995
 30
0.0
 11
-14.9999999999999432
 21
-93.0000000000000995
 31
0.0
  0
LINE
  5
2BB
100
AcDbEntity
100
AcDbLine
  8
back
 62
256
370
-1
  6
ByLayer
 10
-14.9999999999999432
 20
-89.0000000000000995
 30
0.0
 11
-4.9999999999999432
 21
-89.0000000000000995
 31
0.0
  0
LINE
  5
2BC
100
AcDbEntity
100
AcDbLine
  8
back
 62
256
370
-1
  6
ByLayer
 10
-4.9999999999999432
 20
-94.0000000000001137
 30
0.0
 11
-14.9999999999999432
 21
-94.0000000000000995
 31
0.0
  0
LINE
  5
2BD
100
AcDbEntity
100
AcDbLine
  8
back
 62
256
370
-1
  6
ByLayer
 10
-14.9999999999999432
 20
-94.0000000000000995
 30
0.0
 11
-14.9999999999999432
 21
-89.0000000000000995
 31
0.0
  0
LINE
  5
2BE
100
AcDbEntity
100
AcDbLine
  8
back
 62
256
370
-1
  6
ByLayer
 10
-4.9999999999999432
 20
-89.0000000000000995
 30
0.0
 11
-4.9999999999999432
 21
-94.0000000000001137
 31
0.0
  0
LINE
  5
2BF
100
AcDbEntity
100
AcDbLine
  8
back
 62
256
370
-1
  6
ByLayer
 10
-34.9999999999999432
 20
-94.0000000000000995
 30
0.0
 11
-24.9999999999999432
 21
-94.0000000000000995
 31
0.0
  0
LINE
  5
2C0
100
AcDbEntity
100
AcDbLine
  8
back
 62
256
370
-1
  6
ByLayer
 10
-24.9999999999999432
 20
-94.0000000000000995
 30
0.0
 11
-24.9999999999999432
 21
-89.0000000000000995
 31
0.0
  0
LINE
  5
2C1
100
AcDbEntity
100
AcDbLine
  8
back
 62
256
370
-1
  6
ByLayer
 10
-24.9999999999999432
 20
-89.0000000000000995
 30
0.0
 11
-34.9999999999999432
 21
-89.0000000000000995
 31
0.0
  0
LINE
  5
2C2
100
AcDbEntity
100
AcDbLine
  8
back
 62
256
370
-1
  6
ByLayer
 10
-34.9999999999999432
 20
-89.0000000000000995
 30
0.0
 11
-34.9999999999999432
 21
-94.0000000000000995
 31
0.0
  0
CIRCLE
  5
2C3
100
AcDbEntity
100
AcDbCircle
  8
back
 62
256
370
-1
  6
ByLayer
 10
-50.0022436396360632
 20
-80.5000000000000142
 30
0.0
 40
8.5
  0
CIRCLE
  5
2C4
100
AcDbEntity
100
AcDbCircle
  8
back
 62
256
370
-1
  6
ByLayer
 10
9.9977563603639155
 20
-80.4999999999999147
 30
0.0
 40
8.5
  0
LINE
  5
2C5
100
AcDbEntity
100
AcDbLine
  8
back
 62
256
370
-1
  6
ByLayer
 10
-64.0022436396360632
 20
-36.507989276968118
 30
0.0
 11
-64.0022436396360632
 21
-36.507989276968118
 31
0.0
  0
CIRCLE
  5
2C6
100
AcDbEntity
100
AcDbCircle
  8
back
 62
256
370
-1
  6
ByLayer
 10
-65.5022436396360632
 20
-41.507989276968118
 30
0.0
 40
1.5
  0
LINE
  5
2C7
100
AcDbEntity
100
AcDbLine
  8
back
 62
256
370
-1
  6
ByLayer
 10
-68.0022436396360632
 20
-36.507989276968118
 30
0.0
 11
-68.0022436396360632
 21
-26.507989276968118
 31
0.0
  0
LINE
  5
2C8
100
AcDbEntity
100
AcDbLine
  8
back
 62
256
370
-1
  6
ByLayer
 10
-63.0022436396360632
 20
-26.507989276968118
 30
0.0
 11
-63.0022436396360632
 21
-36.507989276968118
 31
0.0
  0
LINE
  5
2C9
100
AcDbEntity
100
AcDbLine
  8
back
 62
256
370
-1
  6
ByLayer
 10
-63.0022436396360632
 20
-36.507989276968118
 30
0.0
 11
-68.0022436396360632
 21
-36.507989276968118
 31
0.0
  0
LINE
  5
2CA
100
AcDbEntity
100
AcDbLine
  8
back
 62
256
370
-1
  6
ByLayer
 10
-68.0022436396360632
 20
-26.507989276968118
 30
0.0
 11
-63.0022436396360632
 21
-26.507989276968118
 31
0.0
  0
LINE
  5
2CB
100
AcDbEntity
100
AcDbLine
  8
back
 62
256
370
-1
  6
ByLayer
 10
-63.0022436396360632
 20
-56.5079892769681322
 30
0.0
 11
-63.0022436396360632
 21
-46.507989276968118
 31
0.0
  0
LINE
  5
2CC
100
AcDbEntity
100
AcDbLine
  8
back
 62
256
370
-1
  6
ByLayer
 10
-63.0022436396360632
 20
-46.507989276968118
 30
0.0
 11
-68.0022436396360632
 21
-46.507989276968118
 31
0.0
  0
LINE
  5
2CD
100
AcDbEntity
100
AcDbLine
  8
back
 62
256
370
-1
  6
ByLayer
 10
-68.0022436396360632
 20
-46.507989276968118
 30
0.0
 11
-68.0022436396360632
 21
-56.5079892769681322
 31
0.0
  0
LINE
  5
2CE
100
AcDbEntity
100
AcDbLine
  8
back
 62
256
370
-1
  6
ByLayer
 10
-68.0022436396360632
 20
-56.5079892769681322
 30
0.0
 11
-63.0022436396360632
 21
-56.5079892769681322
 31
0.0
  0
LINE
  5
2CF
100
AcDbEntity
100
AcDbLine
  8
back
 62
256
370
-1
  6
ByLayer
 10
26.9977563603639439
 20
-36.507989276968118
 30
0.0
 11
26.9977563603639439
 21
-36.507989276968118
 31
0.0
  0
CIRCLE
  5
2D0
100
AcDbEntity
100
AcDbCircle
  8
back
 62
256
370
-1
  6
ByLayer
 10
25.4977563603639368
 20
-41.507989276968118
 30
0.0
 40
1.5
  0
LINE
  5
2D1
100
AcDbEntity
100
AcDbLine
  8
back
 62
256
370
-1
  6
ByLayer
 10
22.9977563603639368
 20
-36.507989276968118
 30
0.0
 11
22.9977563603639368
 21
-26.507989276968118
 31
0.0
  0
LINE
  5
2D2
100
AcDbEntity
100
AcDbLine
  8
back
 62
256
370
-1
  6
ByLayer
 10
27.9977563603639439
 20
-26.507989276968118
 30
0.0
 11
27.9977563603639368
 21
-36.507989276968118
 31
0.0
  0
LINE
  5
2D3
100
AcDbEntity
100
AcDbLine
  8
back
 62
256
370
-1
  6
ByLayer
 10
27.9977563603639368
 20
-36.507989276968118
 30
0.0
 11
22.9977563603639368
 21
-36.507989276968118
 31
0.0
  0
LINE
  5
2D4
100
AcDbEntity
100
AcDbLine
  8
back
 62
256
370
-1
  6
ByLayer
 10
22.9977563603639368
 20
-26.507989276968118
 30
0.0
 11
27.9977563603639439
 21
-26.507989276968118
 31
0.0
  0
LINE
  5
2D5
100
AcDbEntity
100
AcDbLine
  8
back
 62
256
370
-1
  6
ByLayer
 10
27.9977563603639368
 20
-56.507989276968118
 30
0.0
 11
27.9977563603639368
 21
-46.507989276968118
 31
0.0
  0
LINE
  5
2D6
100
AcDbEntity
100
AcDbLine
  8
back
 62
256
370
-1
  6
ByLayer
 10
27.9977563603639368
 20
-46.507989276968118
 30
0.0
 11
22.9977563603639368
 21
-46.507989276968118
 31
0.0
  0
LINE
  5
2D7
100
AcDbEntity
100
AcDbLine
  8
back
 62
256
370
-1
  6
ByLayer
 10
22.9977563603639368
 20
-46.507989276968118
 30
0.0
 11
22.9977563603639297
 21
-56.507989276968118
 31
0.0
  0
LINE
  5
2D8
100
AcDbEntity
100
AcDbLine
  8
back
 62
256
370
-1
  6
ByLayer
 10
22.9977563603639297
 20
-56.507989276968118
 30
0.0
 11
27.9977563603639368
 21
-56.507989276968118
 31
0.0
  0
ARC
  5
2D9
100
AcDbEntity
  8
back
 62
256
370
-1
  6
ByLayer
100
AcDbCircle
 10
-68.0022436396360632
 20
30.9999999999997762
 30
0.0
 40
5.0
100
AcDbArc
 50
90.0000000000001705
 51
180.0
  0
ARC
  5
2DA
100
AcDbEntity
  8
back
 62
256
370
-1
  6
ByLayer
100
AcDbCircle
 10
27.9977563603639794
 20
30.9999999999999609
 30
0.0
 40
5.0
100
AcDbArc
 50
0.0
 51
90.0000000000001705
  0
LINE
  5
2DB
100
AcDbEntity
100
AcDbLine
  8
back
 62
256
370
-1
  6
ByLayer
 10
-73.0022436396360774
 20
-110.0
 30
0.0
 11
-73.0022436396360632
 21
30.9999999999997726
 31
0.0
  0
LINE
  5
2DC
100
AcDbEntity
100
AcDbLine
  8
back
 62
256
370
-1
  6
ByLayer
 10
32.9977563603639865
 20
30.9999999999999645
 30
0.0
 11
32.9977563603638799
 21
-110.0000000000000426
 31
0.0
  0
LINE
  5
2DD
100
AcDbEntity
100
AcDbLine
  8
left
 62
256
370
-1
  6
ByLayer
 10
95.0000000000000853
 20
6.9999999999999716
 30
0.0
 11
95.0000000000000853
 21
6.9999999999999716
 31
0.0
  0
LINE
  5
2DE
100
AcDbEntity
100
AcDbLine
  8
left
 62
256
370
-1
  6
ByLayer
 10
95.0000000000000853
 20
10.9999999999999716
 30
0.0
 11
105.0000000000000853
 21
10.9999999999999716
 31
0.0
  0
LINE
  5
2DF
100
AcDbEntity
100
AcDbLine
  8
left
 62
256
370
-1
  6
ByLayer
 10
105.0000000000000853
 20
5.9999999999999645
 30
0.0
 11
95.0000000000000853
 21
5.9999999999999716
 31
0.0
  0
LINE
  5
2E0
100
AcDbEntity
100
AcDbLine
  8
left
 62
256
370
-1
  6
ByLayer
 10
95.0000000000000853
 20
5.9999999999999716
 30
0.0
 11
95.0000000000000853
 21
10.9999999999999716
 31
0.0
  0
LINE
  5
2E1
100
AcDbEntity
100
AcDbLine
  8
left
 62
256
370
-1
  6
ByLayer
 10
105.0000000000000853
 20
10.9999999999999716
 30
0.0
 11
105.0000000000000853
 21
5.9999999999999645
 31
0.0
  0
LINE
  5
2E2
100
AcDbEntity
100
AcDbLine
  8
left
 62
256
370
-1
  6
ByLayer
 10
75.0000000000000853
 20
5.9999999999999716
 30
0.0
 11
85.0000000000000853
 21
5.9999999999999716
 31
0.0
  0
LINE
  5
2E3
100
AcDbEntity
100
AcDbLine
  8
left
 62
256
370
-1
  6
ByLayer
 10
85.0000000000000853
 20
5.9999999999999716
 30
0.0
 11
85.0000000000000853
 21
10.9999999999999716
 31
0.0
  0
LINE
  5
2E4
100
AcDbEntity
100
AcDbLine
  8
left
 62
256
370
-1
  6
ByLayer
 10
85.0000000000000853
 20
10.9999999999999716
 30
0.0
 11
75.0000000000000853
 21
10.9999999999999716
 31
0.0
  0
LINE
  5
2E5
100
AcDbEntity
100
AcDbLine
  8
left
 62
256
370
-1
  6
ByLayer
 10
75.0000000000000853
 20
10.9999999999999716
 30
0.0
 11
75.0000000000000853
 21
5.9999999999999716
 31
0.0
  0
LINE
  5
2E6
100
AcDbEntity
100
AcDbLine
  8
left
 62
256
370
-1
  6
ByLayer
 10
95.0000000000000853
 20
-93.0000000000000284
 30
0.0
 11
95.0000000000000853
 21
-93.0000000000000284
 31
0.0
  0
LINE
  5
2E7
100
AcDbEntity
100
AcDbLine
  8
left
 62
256
370
-1
  6
ByLayer
 10
95.0000000000000853
 20
-89.0000000000000284
 30
0.0
 11
105.0000000000000853
 21
-89.0000000000000284
 31
0.0
  0
LINE
  5
2E8
100
AcDbEntity
100
AcDbLine
  8
left
 62
256
370
-1
  6
ByLayer
 10
105.0000000000000853
 20
-94.0000000000000284
 30
0.0
 11
95.0000000000000853
 21
-94.0000000000000284
 31
0.0
  0
LINE
  5
2E9
100
AcDbEntity
100
AcDbLine
  8
left
 62
256
370
-1
  6
ByLayer
 10
95.0000000000000853
 20
-94.0000000000000284
 30
0.0
 11
95.0000000000000853
 21
-89.0000000000000284
 31
0.0
  0
LINE
  5
2EA
100
AcDbEntity
100
AcDbLine
  8
left
 62
256
370
-1
  6
ByLayer
 10
105.0000000000000853
 20
-89.0000000000000284
 30
0.0
 11
105.0000000000000853
 21
-94.0000000000000284
 31
0.0
  0
LINE
  5
2EB
100
AcDbEntity
100
AcDbLine
  8
left
 62
256
370
-1
  6
ByLayer
 10
75.0000000000000853
 20
-94.0000000000000284
 30
0.0
 11
85.0000000000000853
 21
-94.0000000000000284
 31
0.0
  0
LINE
  5
2EC
100
AcDbEntity
100
AcDbLine
  8
left
 62
256
370
-1
  6
ByLayer
 10
85.0000000000000853
 20
-94.0000000000000284
 30
0.0
 11
85.0000000000000853
 21
-89.0000000000000284
 31
0.0
  0
LINE
  5
2ED
100
AcDbEntity
100
AcDbLine
  8
left
 62
256
370
-1
  6
ByLayer
 10
85.0000000000000853
 20
-89.0000000000000284
 30
0.0
 11
75.0000000000000853
 21
-89.0000000000000284
 31
0.0
  0
LINE
  5
2EE
100
AcDbEntity
100
AcDbLine
  8
left
 62
256
370
-1
  6
ByLayer
 10
75.0000000000000853
 20
-89.0000000000000284
 30
0.0
 11
75.0000000000000853
 21
-94.0000000000000284
 31
0.0
  0
LINE
  5
2EF
100
AcDbEntity
100
AcDbLine
  8
left
 62
256
370
-1
  6
ByLayer
 10
77.2420107230318536
 20
-102.9977563603678163
 30
0.0
 11
77.2445267540758067
 21
-99.9977563603678163
 31
0.0
  0
LINE
  5
2F0
100
AcDbEntity
100
AcDbLine
  8
left
 62
256
370
-1
  6
ByLayer
 10
78.4920107230318536
 20
-99.9977563603678163
 30
0.0
 11
77.2445267540758067
 21
-99.9977563603678163
 31
0.0
  0
LINE
  5
2F1
100
AcDbEntity
100
AcDbLine
  8
left
 62
256
370
-1
  6
ByLayer
 10
82.7420107230318536
 20
-102.9977563603678163
 30
0.0
 11
82.7467023834490334
 21
-99.9977563603678163
 31
0.0
  0
LINE
  5
2F2
100
AcDbEntity
100
AcDbLine
  8
left
 62
256
370
-1
  6
ByLayer
 10
82.7467023834490334
 20
-99.9977563603678163
 30
0.0
 11
81.4920107230318536
 21
-99.9977563603678163
 31
0.0
  0
LINE
  5
2F3
100
AcDbEntity
100
AcDbLine
  8
left
 62
256
370
-1
  6
ByLayer
 10
81.4092127076803109
 20
-109.9977563603677879
 30
0.0
 11
81.4084947429981014
 21
-102.999036637147185
 31
0.0
  0
LINE
  5
2F4
100
AcDbEntity
100
AcDbLine
  8
left
 62
256
370
-1
  6
ByLayer
 10
78.5912013295884009
 20
-102.999036637147185
 30
0.0
 11
78.5912013295882872
 21
-110.0022436396323258
 31
0.0
  0
LINE
  5
2F5
100
AcDbEntity
100
AcDbLine
  8
left
 62
256
370
-1
  6
ByLayer
 10
77.2420107230318536
 20
-102.9977563603678163
 30
0.0
 11
78.5912013295884009
 21
-102.999036637147185
 31
0.0
  0
LINE
  5
2F6
100
AcDbEntity
100
AcDbLine
  8
left
 62
256
370
-1
  6
ByLayer
 10
81.4084947429981014
 20
-102.999036637147185
 30
0.0
 11
82.7420107230318536
 21
-102.9977563603678163
 31
0.0
  0
LINE
  5
2F7
100
AcDbEntity
100
AcDbLine
  8
left
 62
256
370
-1
  6
ByLayer
 10
81.4920107230318536
 20
-98.9977563603678163
 30
0.0
 11
78.4920107230318536
 21
-98.9977563603678163
 31
0.0
  0
LINE
  5
2F8
100
AcDbEntity
100
AcDbLine
  8
left
 62
256
370
-1
  6
ByLayer
 10
81.4920107230318536
 20
-99.9977563603678163
 30
0.0
 11
81.4920107230318536
 21
-98.9977563603678163
 31
0.0
  0
LINE
  5
2F9
100
AcDbEntity
100
AcDbLine
  8
left
 62
256
370
-1
  6
ByLayer
 10
78.4920107230318536
 20
-98.9977563603678163
 30
0.0
 11
78.4920107230318536
 21
-99.9977563603678163
 31
0.0
  0
LINE
  5
2FA
100
AcDbEntity
100
AcDbLine
  8
left
 62
256
370
-1
  6
ByLayer
 10
84.9999999999999147
 20
-115.0022436396322973
 30
0.0
 11
94.9999999999999005
 21
-115.0022436396323258
 31
0.0
  0
LINE
  5
2FB
100
AcDbEntity
100
AcDbLine
  8
left
 62
256
370
-1
  6
ByLayer
 10
84.9999999999999147
 20
-110.0022436396320415
 30
0.0
 11
84.9999999999999147
 21
-115.0022436396322973
 31
0.0
  0
LINE
  5
2FC
100
AcDbEntity
100
AcDbLine
  8
left
 62
256
370
-1
  6
ByLayer
 10
94.9999999999999005
 20
-115.0022436396323258
 30
0.0
 11
94.9999999999999147
 21
-110.0022436396361059
 31
0.0
  0
LINE
  5
2FD
100
AcDbEntity
100
AcDbLine
  8
left
 62
256
370
-1
  6
ByLayer
 10
64.9999999999999147
 20
-115.0022436396322973
 30
0.0
 11
74.9999999999999147
 21
-115.0022436396322973
 31
0.0
  0
LINE
  5
2FE
100
AcDbEntity
100
AcDbLine
  8
left
 62
256
370
-1
  6
ByLayer
 10
74.9999999999999147
 20
-115.0022436396322973
 30
0.0
 11
74.9999999999999147
 21
-110.0022436396320415
 31
0.0
  0
LINE
  5
2FF
100
AcDbEntity
100
AcDbLine
  8
left
 62
256
370
-1
  6
ByLayer
 10
64.9999999999999147
 20
-110.0022436396361059
 30
0.0
 11
64.9999999999999147
 21
-115.0022436396322973
 31
0.0
  0
LINE
  5
300
100
AcDbEntity
100
AcDbLine
  8
left
 62
256
370
-1
  6
ByLayer
 10
74.9999999999999147
 20
-110.0022436396320415
 30
0.0
 11
78.5912013295882872
 21
-110.0022436396323258
 31
0.0
  0
LINE
  5
301
100
AcDbEntity
100
AcDbLine
  8
left
 62
256
370
-1
  6
ByLayer
 10
81.4092127076803109
 20
-109.9977563603677879
 30
0.0
 11
84.9999999999999147
 21
-110.0022436396320415
 31
0.0
  0
LINE
  5
302
100
AcDbEntity
100
AcDbLine
  8
left
 62
256
370
-1
  6
ByLayer
 10
95.0
 20
-110.0000000000000284
 30
0.0
 11
110.0
 21
-110.0
 31
0.0
  0
LINE
  5
303
100
AcDbEntity
100
AcDbLine
  8
left
 62
256
370
-1
  6
ByLayer
 10
49.9999999999999716
 20
-110.0
 30
0.0
 11
64.9999999999999147
 21
-110.0022436396361059
 31
0.0
  0
LINE
  5
304
100
AcDbEntity
100
AcDbLine
  8
left
 62
256
370
-1
  6
ByLayer
 10
49.9996496268275905
 20
36.0000000000000284
 30
0.0
 11
99.9999999999999574
 21
36.0000000000000284
 31
0.0
  0
LINE
  5
305
100
AcDbEntity
100
AcDbLine
  8
left
 62
256
370
-1
  6
ByLayer
 10
109.9999999999999574
 20
26.000000000000032
 30
0.0
 11
110.0
 21
-110.0
 31
0.0
  0
ARC
  5
306
100
AcDbEntity
  8
left
 62
256
370
-1
  6
ByLayer
100
AcDbCircle
 10
99.9999999999999574
 20
26.0000000000000284
 30
0.0
 40
10.0
100
AcDbArc
 50
0.0
 51
90.0
  0
LINE
  5
307
100
AcDbEntity
100
AcDbLine
  8
left
 62
256
370
-1
  6
ByLayer
 10
56.9999999999962625
 20
-38.7500000000000568
 30
0.0
 11
59.9999999999962625
 21
-38.7525160310440242
 31
0.0
  0
LINE
  5
308
100
AcDbEntity
100
AcDbLine
  8
left
 62
256
370
-1
  6
ByLayer
 10
59.9999999999962625
 20
-40.0000000000000568
 30
0.0
 11
59.9999999999962625
 21
-38.7525160310440242
 31
0.0
  0
LINE
  5
309
100
AcDbEntity
100
AcDbLine
  8
left
 62
256
370
-1
  6
ByLayer
 10
56.9999999999962625
 20
-44.2500000000000568
 30
0.0
 11
59.9999999999962625
 21
-44.2546916604172509
 31
0.0
  0
LINE
  5
30A
100
AcDbEntity
100
AcDbLine
  8
left
 62
256
370
-1
  6
ByLayer
 10
59.9999999999962625
 20
-44.2546916604172509
 30
0.0
 11
59.9999999999962625
 21
-43.0000000000000568
 31
0.0
  0
LINE
  5
30B
100
AcDbEntity
100
AcDbLine
  8
left
 62
256
370
-1
  6
ByLayer
 10
49.9999999999963052
 20
-42.9172019846485284
 30
0.0
 11
56.9987197232169081
 21
-42.9164840199663047
 31
0.0
  0
LINE
  5
30C
100
AcDbEntity
100
AcDbLine
  8
left
 62
256
370
-1
  6
ByLayer
 10
56.9987197232169081
 20
-40.0991906065566042
 30
0.0
 11
49.9955127207317673
 21
-40.0991906065564905
 31
0.0
  0
LINE
  5
30D
100
AcDbEntity
100
AcDbLine
  8
left
 62
256
370
-1
  6
ByLayer
 10
56.9999999999962625
 20
-38.7500000000000568
 30
0.0
 11
56.9987197232169081
 21
-40.0991906065566042
 31
0.0
  0
LINE
  5
30E
100
AcDbEntity
100
AcDbLine
  8
left
 62
256
370
-1
  6
ByLayer
 10
56.9987197232169081
 20
-42.9164840199663047
 30
0.0
 11
56.9999999999962625
 21
-44.2500000000000568
 31
0.0
  0
LINE
  5
30F
100
AcDbEntity
100
AcDbLine
  8
left
 62
256
370
-1
  6
ByLayer
 10
60.9999999999962625
 20
-43.0000000000000568
 30
0.0
 11
60.9999999999962625
 21
-40.0000000000000568
 31
0.0
  0
LINE
  5
310
100
AcDbEntity
100
AcDbLine
  8
left
 62
256
370
-1
  6
ByLayer
 10
59.9999999999962625
 20
-43.0000000000000568
 30
0.0
 11
60.9999999999962625
 21
-43.0000000000000568
 31
0.0
  0
LINE
  5
311
100
AcDbEntity
100
AcDbLine
  8
left
 62
256
370
-1
  6
ByLayer
 10
60.9999999999962625
 20
-40.0000000000000568
 30
0.0
 11
59.9999999999962625
 21
-40.0000000000000568
 31
0.0
  0
LINE
  5
312
100
AcDbEntity
100
AcDbLine
  8
left
 62
256
370
-1
  6
ByLayer
 10
44.9955127207317815
 20
-46.507989276968118
 30
0.0
 11
44.9955127207317602
 21
-56.5079892769681038
 31
0.0
  0
LINE
  5
313
100
AcDbEntity
100
AcDbLine
  8
left
 62
256
370
-1
  6
ByLayer
 10
49.9955127207320444
 20
-46.507989276968118
 30
0.0
 11
44.9955127207317815
 21
-46.507989276968118
 31
0.0
  0
LINE
  5
314
100
AcDbEntity
100
AcDbLine
  8
left
 62
256
370
-1
  6
ByLayer
 10
44.9955127207317744
 20
-26.507989276968118
 30
0.0
 11
44.9955127207317815
 21
-36.507989276968118
 31
0.0
  0
LINE
  5
315
100
AcDbEntity
100
AcDbLine
  8
left
 62
256
370
-1
  6
ByLayer
 10
44.9955127207317815
 20
-36.507989276968118
 30
0.0
 11
49.9955127207320444
 21
-36.507989276968118
 31
0.0
  0
LINE
  5
316
100
AcDbEntity
100
AcDbLine
  8
left
 62
256
370
-1
  6
ByLayer
 10
49.9955127207320444
 20
-36.507989276968118
 30
0.0
 11
49.9955127207317673
 21
-40.0991906065564905
 31
0.0
  0
LINE
  5
317
100
AcDbEntity
100
AcDbLine
  8
left
 62
256
370
-1
  6
ByLayer
 10
49.9999999999963052
 20
-42.9172019846485284
 30
0.0
 11
49.9955127207320444
 21
-46.507989276968118
 31
0.0
  0
LINE
  5
318
100
AcDbEntity
100
AcDbLine
  8
left
 62
256
370
-1
  6
ByLayer
 10
44.9955127207317602
 20
-56.5079892769681038
 30
0.0
 11
49.99280259097646
 21
-56.507989276968118
 31
0.0
  0
LINE
  5
319
100
AcDbEntity
100
AcDbLine
  8
left
 62
256
370
-1
  6
ByLayer
 10
49.99280259097646
 20
-56.507989276968118
 30
0.0
 11
49.9999999999999716
 21
-110.0
 31
0.0
  0
LINE
  5
31A
100
AcDbEntity
100
AcDbLine
  8
left
 62
256
370
-1
  6
ByLayer
 10
49.9965208950415914
 20
-26.507989276968118
 30
0.0
 11
44.9955127207317744
 21
-26.507989276968118
 31
0.0
  0
LINE
  5
31B
100
AcDbEntity
100
AcDbLine
  8
left
 62
256
370
-1
  6
ByLayer
 10
49.9996496268275905
 20
36.0000000000000284
 30
0.0
 11
49.9965208950415914
 21
-26.507989276968118
 31
0.0
  0
CIRCLE
  5
31C
100
AcDbEntity
100
AcDbCircle
  8
left
 62
256
370
-1
  6
ByLayer
 10
90.0000000000000853
 20
8.4999999999999716
 30
0.0
 40
1.5
  0
CIRCLE
  5
31D
100
AcDbEntity
100
AcDbCircle
  8
left
 62
256
370
-1
  6
ByLayer
 10
90.0000000000000853
 20
-91.5000000000000284
 30
0.0
 40
1.5
  0
LINE
  5
31E
100
AcDbEntity
100
AcDbLine
  8
left
 62
256
370
-1
  6
ByLayer
 10
102.9999999999999147
 20
-4.0000000000001448
 30
0.0
 11
104.9999999999995026
 21
-4.0000000000001688
 31
0.0
  0
LINE
  5
31F
100
AcDbEntity
100
AcDbLine
  8
left
 62
256
370
-1
  6
ByLayer
 10
104.9999999999995026
 20
-4.0000000000001688
 30
0.0
 11
105.0
 21
-0.0000000000001421
 31
0.0
  0
LINE
  5
320
100
AcDbEntity
100
AcDbLine
  8
left
 62
256
370
-1
  6
ByLayer
 10
105.0
 20
-0.0000000000001421
 30
0.0
 11
102.9999999999999716
 21
0.0000000000000515
 31
0.0
  0
LINE
  5
321
100
AcDbEntity
100
AcDbLine
  8
left
 62
256
370
-1
  6
ByLayer
 10
102.9999999999999716
 20
0.0000000000000515
 30
0.0
 11
102.9999999999999147
 21
-4.0000000000001448
 31
0.0
  0
LINE
  5
322
100
AcDbEntity
100
AcDbLine
  8
left
 62
256
370
-1
  6
ByLayer
 10
102.9999999999999289
 20
-73.9999999999998579
 30
0.0
 11
104.99999999999946
 21
-74.0000000000000426
 31
0.0
  0
LINE
  5
323
100
AcDbEntity
100
AcDbLine
  8
left
 62
256
370
-1
  6
ByLayer
 10
104.99999999999946
 20
-74.0000000000000426
 30
0.0
 11
105.0
 21
-70.0000000000000284
 31
0.0
  0
LINE
  5
324
100
AcDbEntity
100
AcDbLine
  8
left
 62
256
370
-1
  6
ByLayer
 10
105.0
 20
-70.0000000000000284
 30
0.0
 11
102.9999999999999289
 21
-70.0
 31
0.0
  0
LINE
  5
325
100
AcDbEntity
100
AcDbLine
  8
left
 62
256
370
-1
  6
ByLayer
 10
102.9999999999999289
 20
-70.0
 30
0.0
 11
102.9999999999999289
 21
-73.9999999999998579
 31
0.0
  0
LINE
  5
326
100
AcDbEntity
100
AcDbLine
  8
right
 62
256
370
-1
  6
ByLayer
 10
-135.0
 20
7.0
 30
0.0
 11
-135.0
 21
7.0
 31
0.0
  0
LINE
  5
327
100
AcDbEntity
100
AcDbLine
  8
right
 62
256
370
-1
  6
ByLayer
 10
-135.0
 20
11.0
 30
0.0
 11
-145.0
 21
11.0000000000000213
 31
0.0
  0
LINE
  5
328
100
AcDbEntity
100
AcDbLine
  8
right
 62
256
370
-1
  6
ByLayer
 10
-145.0
 20
6.0
 30
0.0
 11
-135.0
 21
6.0
 31
0.0
  0
LINE
  5
329
100
AcDbEntity
100
AcDbLine
  8
right
 62
256
370
-1
  6
ByLayer
 10
-135.0
 20
6.0
 30
0.0
 11
-135.0
 21
11.0
 31
0.0
  0
LINE
  5
32A
100
AcDbEntity
100
AcDbLine
  8
right
 62
256
370
-1
  6
ByLayer
 10
-145.0
 20
11.0000000000000213
 30
0.0
 11
-145.0
 21
6.0
 31
0.0
  0
LINE
  5
32B
100
AcDbEntity
100
AcDbLine
  8
right
 62
256
370
-1
  6
ByLayer
 10
-115.0000000000000142
 20
5.9999999999999929
 30
0.0
 11
-125.0000000000000142
 21
6.0
 31
0.0
  0
LINE
  5
32C
100
AcDbEntity
100
AcDbLine
  8
right
 62
256
370
-1
  6
ByLayer
 10
-125.0000000000000142
 20
6.0
 30
0.0
 11
-125.0000000000000142
 21
11.0
 31
0.0
  0
LINE
  5
32D
100
AcDbEntity
100
AcDbLine
  8
right
 62
256
370
-1
  6
ByLayer
 10
-125.0000000000000142
 20
11.0
 30
0.0
 11
-115.0000000000000142
 21
11.0
 31
0.0
  0
LINE
  5
32E
100
AcDbEntity
100
AcDbLine
  8
right
 62
256
370
-1
  6
ByLayer
 10
-115.0000000000000142
 20
11.0
 30
0.0
 11
-115.0000000000000142
 21
5.9999999999999929
 31
0.0
  0
LINE
  5
32F
100
AcDbEntity
100
AcDbLine
  8
right
 62
256
370
-1
  6
ByLayer
 10
-135.0
 20
-93.0
 30
0.0
 11
-135.0
 21
-93.0
 31
0.0
  0
LINE
  5
330
100
AcDbEntity
100
AcDbLine
  8
right
 62
256
370
-1
  6
ByLayer
 10
-135.0
 20
-89.0
 30
0.0
 11
-145.0
 21
-88.9999999999999716
 31
0.0
  0
LINE
  5
331
100
AcDbEntity
100
AcDbLine
  8
right
 62
256
370
-1
  6
ByLayer
 10
-145.0
 20
-94.0
 30
0.0
 11
-135.0
 21
-94.0
 31
0.0
  0
LINE
  5
332
100
AcDbEntity
100
AcDbLine
  8
right
 62
256
370
-1
  6
ByLayer
 10
-135.0
 20
-94.0
 30
0.0
 11
-135.0
 21
-89.0
 31
0.0
  0
LINE
  5
333
100
AcDbEntity
100
AcDbLine
  8
right
 62
256
370
-1
  6
ByLayer
 10
-145.0
 20
-88.9999999999999716
 30
0.0
 11
-145.0
 21
-94.0
 31
0.0
  0
LINE
  5
334
100
AcDbEntity
100
AcDbLine
  8
right
 62
256
370
-1
  6
ByLayer
 10
-115.0000000000000142
 20
-94.0
 30
0.0
 11
-125.0000000000000142
 21
-94.0
 31
0.0
  0
LINE
  5
335
100
AcDbEntity
100
AcDbLine
  8
right
 62
256
370
-1
  6
ByLayer
 10
-125.0000000000000142
 20
-94.0
 30
0.0
 11
-125.0000000000000142
 21
-89.0
 31
0.0
  0
LINE
  5
336
100
AcDbEntity
100
AcDbLine
  8
right
 62
256
370
-1
  6
ByLayer
 10
-125.0000000000000142
 20
-89.0
 30
0.0
 11
-115.0000000000000142
 21
-89.0
 31
0.0
  0
LINE
  5
337
100
AcDbEntity
100
AcDbLine
  8
right
 62
256
370
-1
  6
ByLayer
 10
-115.0000000000000142
 20
-89.0
 30
0.0
 11
-115.0000000000000142
 21
-94.0
 31
0.0
  0
LINE
  5
338
100
AcDbEntity
100
AcDbLine
  8
right
 62
256
370
-1
  6
ByLayer
 10
-117.2420107230320667
 20
-102.9977563603677595
 30
0.0
 11
-117.2445267540760341
 21
-99.9977563603677595
 31
0.0
  0
LINE
  5
339
100
AcDbEntity
100
AcDbLine
  8
right
 62
256
370
-1
  6
ByLayer
 10
-118.4920107230320667
 20
-99.9977563603677595
 30
0.0
 11
-117.2445267540760341
 21
-99.9977563603677595
 31
0.0
  0
LINE
  5
33A
100
AcDbEntity
100
AcDbLine
  8
right
 62
256
370
-1
  6
ByLayer
 10
-122.7420107230320667
 20
-102.9977563603677595
 30
0.0
 11
-122.7467023834492608
 21
-99.9977563603677595
 31
0.0
  0
LINE
  5
33B
100
AcDbEntity
100
AcDbLine
  8
right
 62
256
370
-1
  6
ByLayer
 10
-122.7467023834492608
 20
-99.9977563603677595
 30
0.0
 11
-121.4920107230320667
 21
-99.9977563603677595
 31
0.0
  0
LINE
  5
33C
100
AcDbEntity
100
AcDbLine
  8
right
 62
256
370
-1
  6
ByLayer
 10
-121.4092127076805383
 20
-109.9977563603677027
 30
0.0
 11
-121.4084947429983146
 21
-102.9990366371471282
 31
0.0
  0
LINE
  5
33D
100
AcDbEntity
100
AcDbLine
  8
right
 62
256
370
-1
  6
ByLayer
 10
-118.5912013295886283
 20
-102.9990366371471282
 30
0.0
 11
-118.5912013295884861
 21
-110.0022436396322405
 31
0.0
  0
LINE
  5
33E
100
AcDbEntity
100
AcDbLine
  8
right
 62
256
370
-1
  6
ByLayer
 10
-117.2420107230320667
 20
-102.9977563603677595
 30
0.0
 11
-118.5912013295886283
 21
-102.9990366371471282
 31
0.0
  0
LINE
  5
33F
100
AcDbEntity
100
AcDbLine
  8
right
 62
256
370
-1
  6
ByLayer
 10
-121.4084947429983146
 20
-102.9990366371471282
 30
0.0
 11
-122.7420107230320667
 21
-102.9977563603677595
 31
0.0
  0
LINE
  5
340
100
AcDbEntity
100
AcDbLine
  8
right
 62
256
370
-1
  6
ByLayer
 10
-121.4920107230320667
 20
-98.9977563603677595
 30
0.0
 11
-118.4920107230320667
 21
-98.9977563603677595
 31
0.0
  0
LINE
  5
341
100
AcDbEntity
100
AcDbLine
  8
right
 62
256
370
-1
  6
ByLayer
 10
-121.4920107230320667
 20
-99.9977563603677595
 30
0.0
 11
-121.4920107230320667
 21
-98.9977563603677595
 31
0.0
  0
LINE
  5
342
100
AcDbEntity
100
AcDbLine
  8
right
 62
256
370
-1
  6
ByLayer
 10
-118.4920107230320667
 20
-98.9977563603677595
 30
0.0
 11
-118.4920107230320667
 21
-99.9977563603677595
 31
0.0
  0
LINE
  5
343
100
AcDbEntity
100
AcDbLine
  8
right
 62
256
370
-1
  6
ByLayer
 10
-125.0000000000001137
 20
-115.0022436396322405
 30
0.0
 11
-135.0000000000001137
 21
-115.0022436396322405
 31
0.0
  0
LINE
  5
344
100
AcDbEntity
100
AcDbLine
  8
right
 62
256
370
-1
  6
ByLayer
 10
-125.0000000000001137
 20
-110.0022436396319563
 30
0.0
 11
-125.0000000000001137
 21
-115.0022436396322405
 31
0.0
  0
LINE
  5
345
100
AcDbEntity
100
AcDbLine
  8
right
 62
256
370
-1
  6
ByLayer
 10
-135.0000000000001137
 20
-115.0022436396322405
 30
0.0
 11
-135.0000000000001137
 21
-110.0022436396360206
 31
0.0
  0
LINE
  5
346
100
AcDbEntity
100
AcDbLine
  8
right
 62
256
370
-1
  6
ByLayer
 10
-105.0000000000001279
 20
-115.0022436396322405
 30
0.0
 11
-115.0000000000001279
 21
-115.0022436396322405
 31
0.0
  0
LINE
  5
347
100
AcDbEntity
100
AcDbLine
  8
right
 62
256
370
-1
  6
ByLayer
 10
-115.0000000000001279
 20
-115.0022436396322405
 30
0.0
 11
-115.0000000000001279
 21
-110.0022436396319563
 31
0.0
  0
LINE
  5
348
100
AcDbEntity
100
AcDbLine
  8
right
 62
256
370
-1
  6
ByLayer
 10
-105.0000000000001279
 20
-110.002243639636049
 30
0.0
 11
-105.0000000000001279
 21
-115.0022436396322405
 31
0.0
  0
LINE
  5
349
100
AcDbEntity
100
AcDbLine
  8
right
 62
256
370
-1
  6
ByLayer
 10
-115.0000000000001279
 20
-110.0022436396319563
 30
0.0
 11
-118.5912013295884861
 21
-110.0022436396322405
 31
0.0
  0
LINE
  5
34A
100
AcDbEntity
100
AcDbLine
  8
right
 62
256
370
-1
  6
ByLayer
 10
-121.4092127076805383
 20
-109.9977563603677027
 30
0.0
 11
-125.0000000000001137
 21
-110.0022436396319563
 31
0.0
  0
LINE
  5
34B
100
AcDbEntity
100
AcDbLine
  8
right
 62
256
370
-1
  6
ByLayer
 10
-135.0000000000001705
 20
-109.9999999999999432
 30
0.0
 11
-150.0000000000000568
 21
-110.0000000000000568
 31
0.0
  0
LINE
  5
34C
100
AcDbEntity
100
AcDbLine
  8
right
 62
256
370
-1
  6
ByLayer
 10
-90.0000000000001563
 20
-109.9999999999999432
 30
0.0
 11
-105.0000000000001279
 21
-110.002243639636049
 31
0.0
  0
ARC
  5
34D
100
AcDbEntity
  8
right
 62
256
370
-1
  6
ByLayer
100
AcDbCircle
 10
-140.0
 20
26.0000000000000853
 30
0.0
 40
10.0
100
AcDbArc
 50
89.9999999999998295
 51
180.0
  0
LINE
  5
34E
100
AcDbEntity
100
AcDbLine
  8
right
 62
256
370
-1
  6
ByLayer
 10
-150.0
 20
26.0000000000000888
 30
0.0
 11
-150.0000000000000568
 21
-110.0000000000000568
 31
0.0
  0
LINE
  5
34F
100
AcDbEntity
100
AcDbLine
  8
right
 62
256
370
-1
  6
ByLayer
 10
-90.0000000000000142
 20
36.0000000000000284
 30
0.0
 11
-140.0
 21
36.0000000000000284
 31
0.0
  0
LINE
  5
350
100
AcDbEntity
100
AcDbLine
  8
right
 62
256
370
-1
  6
ByLayer
 10
-97.004487279268389
 20
-38.75
 30
0.0
 11
-100.004487279268389
 21
-38.7525160310439674
 31
0.0
  0
LINE
  5
351
100
AcDbEntity
100
AcDbLine
  8
right
 62
256
370
-1
  6
ByLayer
 10
-100.004487279268389
 20
-40.0
 30
0.0
 11
-100.004487279268389
 21
-38.7525160310439674
 31
0.0
  0
LINE
  5
352
100
AcDbEntity
100
AcDbLine
  8
right
 62
256
370
-1
  6
ByLayer
 10
-97.004487279268389
 20
-44.25
 30
0.0
 11
-100.004487279268389
 21
-44.254691660417194
 31
0.0
  0
LINE
  5
353
100
AcDbEntity
100
AcDbLine
  8
right
 62
256
370
-1
  6
ByLayer
 10
-100.004487279268389
 20
-44.254691660417194
 30
0.0
 11
-100.004487279268389
 21
-42.9999999999999858
 31
0.0
  0
LINE
  5
354
100
AcDbEntity
100
AcDbLine
  8
right
 62
256
370
-1
  6
ByLayer
 10
-90.0044872792684174
 20
-42.9172019846484716
 30
0.0
 11
-97.0032070024890487
 21
-42.9164840199662478
 31
0.0
  0
LINE
  5
355
100
AcDbEntity
100
AcDbLine
  8
right
 62
256
370
-1
  6
ByLayer
 10
-97.0032070024890203
 20
-40.0991906065565615
 30
0.0
 11
-90.0000000000038796
 21
-40.0991906065564194
 31
0.0
  0
LINE
  5
356
100
AcDbEntity
100
AcDbLine
  8
right
 62
256
370
-1
  6
ByLayer
 10
-97.004487279268389
 20
-38.75
 30
0.0
 11
-97.0032070024890203
 21
-40.0991906065565615
 31
0.0
  0
LINE
  5
357
100
AcDbEntity
100
AcDbLine
  8
right
 62
256
370
-1
  6
ByLayer
 10
-97.0032070024890487
 20
-42.9164840199662478
 30
0.0
 11
-97.004487279268389
 21
-44.25
 31
0.0
  0
LINE
  5
358
100
AcDbEntity
100
AcDbLine
  8
right
 62
256
370
-1
  6
ByLayer
 10
-101.004487279268389
 20
-43.0
 30
0.0
 11
-101.004487279268389
 21
-40.0
 31
0.0
  0
LINE
  5
359
100
AcDbEntity
100
AcDbLine
  8
right
 62
256
370
-1
  6
ByLayer
 10
-100.004487279268389
 20
-42.9999999999999858
 30
0.0
 11
-101.004487279268389
 21
-43.0
 31
0.0
  0
LINE
  5
35A
100
AcDbEntity
100
AcDbLine
  8
right
 62
256
370
-1
  6
ByLayer
 10
-101.004487279268389
 20
-40.0
 30
0.0
 11
-100.004487279268389
 21
-40.0
 31
0.0
  0
LINE
  5
35B
100
AcDbEntity
100
AcDbLine
  8
right
 62
256
370
-1
  6
ByLayer
 10
-85.000000000003908
 20
-46.5079892769680612
 30
0.0
 11
-85.000000000003908
 21
-56.5079892769680612
 31
0.0
  0
LINE
  5
35C
100
AcDbEntity
100
AcDbLine
  8
right
 62
256
370
-1
  6
ByLayer
 10
-90.0000000000041638
 20
-46.5079892769680612
 30
0.0
 11
-85.000000000003908
 21
-46.5079892769680612
 31
0.0
  0
LINE
  5
35D
100
AcDbEntity
100
AcDbLine
  8
right
 62
256
370
-1
  6
ByLayer
 10
-85.000000000003908
 20
-26.5079892769680612
 30
0.0
 11
-85.000000000003908
 21
-36.5079892769680612
 31
0.0
  0
LINE
  5
35E
100
AcDbEntity
100
AcDbLine
  8
right
 62
256
370
-1
  6
ByLayer
 10
-85.000000000003908
 20
-36.5079892769680612
 30
0.0
 11
-90.0000000000041638
 21
-36.5079892769680612
 31
0.0
  0
LINE
  5
35F
100
AcDbEntity
100
AcDbLine
  8
right
 62
256
370
-1
  6
ByLayer
 10
-90.0000000000041638
 20
-36.5079892769680612
 30
0.0
 11
-90.0000000000038796
 21
-40.0991906065564194
 31
0.0
  0
LINE
  5
360
100
AcDbEntity
100
AcDbLine
  8
right
 62
256
370
-1
  6
ByLayer
 10
-90.0044872792684174
 20
-42.9172019846484716
 30
0.0
 11
-90.0000000000041638
 21
-46.5079892769680612
 31
0.0
  0
LINE
  5
361
100
AcDbEntity
100
AcDbLine
  8
right
 62
256
370
-1
  6
ByLayer
 10
-90.0000000000000853
 20
-26.5079892769680612
 30
0.0
 11
-85.000000000003908
 21
-26.5079892769680612
 31
0.0
  0
LINE
  5
362
100
AcDbEntity
100
AcDbLine
  8
right
 62
256
370
-1
  6
ByLayer
 10
-90.0000000000000142
 20
36.0000000000000284
 30
0.0
 11
-90.0000000000000853
 21
-26.5079892769680612
 31
0.0
  0
LINE
  5
363
100
AcDbEntity
100
AcDbLine
  8
right
 62
256
370
-1
  6
ByLayer
 10
-85.000000000003908
 20
-56.5079892769680612
 30
0.0
 11
-90.0000000000001137
 21
-56.5079892769680612
 31
0.0
  0
LINE
  5
364
100
AcDbEntity
100
AcDbLine
  8
right
 62
256
370
-1
  6
ByLayer
 10
-90.0000000000001137
 20
-56.5079892769680612
 30
0.0
 11
-90.0000000000001563
 21
-109.9999999999999432
 31
0.0
  0
CIRCLE
  5
365
100
AcDbEntity
100
AcDbCircle
  8
right
 62
256
370
-1
  6
ByLayer
 10
-130.0
 20
8.5
 30
0.0
 40
1.5
  0
CIRCLE
  5
366
100
AcDbEntity
100
AcDbCircle
  8
right
 62
256
370
-1
  6
ByLayer
 10
-130.0
 20
-91.5
 30
0.0
 40
1.5
  0
LINE
  5
367
100
AcDbEntity
100
AcDbLine
  8
right
 62
256
370
-1
  6
ByLayer
 10
-142.9999999999999147
 20
-3.9999999999999147
 30
0.0
 11
-144.9999999999994884
 21
-3.9999999999999432
 31
0.0
  0
LINE
  5
368
100
AcDbEntity
100
AcDbLine
  8
right
 62
256
370
-1
  6
ByLayer
 10
-144.9999999999994884
 20
-3.9999999999999432
 30
0.0
 11
-145.0
 21
0.0
 31
0.0
  0
LINE
  5
369
100
AcDbEntity
100
AcDbLine
  8
right
 62
256
370
-1
  6
ByLayer
 10
-145.0
 20
0.0
 30
0.0
 11
-142.9999999999999716
 21
0.0000000000000568
 31
0.0
  0
LINE
  5
36A
100
AcDbEntity
100
AcDbLine
  8
right
 62
256
370
-1
  6
ByLayer
 10
-142.9999999999999716
 20
0.0000000000000568
 30
0.0
 11
-142.9999999999999147
 21
-3.9999999999999147
 31
0.0
  0
LINE
  5
36B
100
AcDbEntity
100
AcDbLine
  8
right
 62
256
370
-1
  6
ByLayer
 10
-142.9999999999999147
 20
-73.9999999999999147
 30
0.0
 11
-144.9999999999994884
 21
-73.9999999999999432
 31
0.0
  0
LINE
  5
36C
100
AcDbEntity
100
AcDbLine
  8
right
 62
256
370
-1
  6
ByLayer
 10
-144.9999999999994884
 20
-73.9999999999999432
 30
0.0
 11
-145.0
 21
-70.0
 31
0.0
  0
LINE
  5
36D
100
AcDbEntity
100
AcDbLine
  8
right
 62
256
370
-1
  6
ByLayer
 10
-145.0
 20
-70.0
 30
0.0
 11
-142.9999999999999716
 21
-69.9999999999999432
 31
0.0
  0
LINE
  5
36E
100
AcDbEntity
100
AcDbLine
  8
right
 62
256
370
-1
  6
ByLayer
 10
-142.9999999999999716
 20
-69.9999999999999432
 30
0.0
 11
-142.9999999999999147
 21
-73.9999999999999147
 31
0.0
  0
CIRCLE
  5
36F
100
AcDbEntity
100
AcDbCircle
  8
top mount
 62
256
370
-1
  6
ByLayer
 10
-18.0
 20
96.9999999999999858
 30
0.0
 40
2.5
  0
CIRCLE
  5
370
100
AcDbEntity
100
AcDbCircle
  8
top mount
 62
256
370
-1
  6
ByLayer
 10
-122.0
 20
97.0000000000000142
 30
0.0
 40
2.5
  0
ARC
  5
371
100
AcDbEntity
  8
top mount
 62
256
370
-1
  6
ByLayer
100
AcDbCircle
 10
-70.0
 20
96.9999999999999858
 30
0.0
 40
16.0
100
AcDbArc
 50
180.0
 51
0.0
  0
CIRCLE
  5
372
100
AcDbEntity
100
AcDbCircle
  8
top mount
 62
256
370
-1
  6
ByLayer
 10
-69.9999999999999716
 20
59.4999999999999858
 30
0.0
 40
1.5
  0
LINE
  5
373
100
AcDbEntity
100
AcDbLine
  8
top mount
 62
256
370
-1
  6
ByLayer
 10
-64.9999999999999716
 20
61.9999999999999858
 30
0.0
 11
-54.9999999999999716
 21
61.9999999999999858
 31
0.0
  0
LINE
  5
374
100
AcDbEntity
100
AcDbLine
  8
top mount
 62
256
370
-1
  6
ByLayer
 10
-54.9999999999999716
 20
56.9999999999999787
 30
0.0
 11
-64.9999999999999716
 21
56.9999999999999858
 31
0.0
  0
LINE
  5
375
100
AcDbEntity
100
AcDbLine
  8
top mount
 62
256
370
-1
  6
ByLayer
 10
-64.9999999999999716
 20
56.9999999999999858
 30
0.0
 11
-64.9999999999999716
 21
61.9999999999999858
 31
0.0
  0
LINE
  5
376
100
AcDbEntity
100
AcDbLine
  8
top mount
 62
256
370
-1
  6
ByLayer
 10
-54.9999999999999716
 20
61.9999999999999858
 30
0.0
 11
-54.9999999999999716
 21
56.9999999999999787
 31
0.0
  0
LINE
  5
377
100
AcDbEntity
100
AcDbLine
  8
top mount
 62
256
370
-1
  6
ByLayer
 10
-84.9999999999999716
 20
56.9999999999999858
 30
0.0
 11
-74.9999999999999716
 21
56.9999999999999858
 31
0.0
  0
LINE
  5
378
100
AcDbEntity
100
AcDbLine
  8
top mount
 62
256
370
-1
  6
ByLayer
 10
-74.9999999999999716
 20
56.9999999999999858
 30
0.0
 11
-74.9999999999999716
 21
61.9999999999999858
 31
0.0
  0
LINE
  5
379
100
AcDbEntity
100
AcDbLine
  8
top mount
 62
256
370
-1
  6
ByLayer
 10
-74.9999999999999716
 20
61.9999999999999858
 30
0.0
 11
-84.9999999999999716
 21
61.9999999999999858
 31
0.0
  0
LINE
  5
37A
100
AcDbEntity
100
AcDbLine
  8
top mount
 62
256
370
-1
  6
ByLayer
 10
-84.9999999999999716
 20
61.9999999999999858
 30
0.0
 11
-84.9999999999999716
 21
56.9999999999999858
 31
0.0
  0
ARC
  5
37B
100
AcDbEntity
  8
top mount
 62
256
370
-1
  6
ByLayer
100
AcDbCircle
 10
-10.0
 20
61.9999999999999858
 30
0.0
 40
10.0
100
AcDbArc
 50
270.0
 51
0.0
  0
ARC
  5
37C
100
AcDbEntity
  8
top mount
 62
256
370
-1
  6
ByLayer
100
AcDbCircle
 10
-130.0000000000000284
 20
62.0
 30
0.0
 40
10.0
100
AcDbArc
 50
180.0
 51
270.0
  0
LINE
  5
37D
100
AcDbEntity
100
AcDbLine
  8
top mount
 62
256
370
-1
  6
ByLayer
 10
-9.9999999999999858
 20
51.9999999999999574
 30
0.0
 11
-130.0
 21
51.9999999999999716
 31
0.0
  0
LINE
  5
37E
100
AcDbEntity
100
AcDbLine
  8
top mount
 62
256
370
-1
  6
ByLayer
 10
-114.0
 20
101.9999999999999858
 30
0.0
 11
-114.0
 21
101.9999999999999858
 31
0.0
  0
CIRCLE
  5
37F
100
AcDbEntity
100
AcDbCircle
  8
top mount
 62
256
370
-1
  6
ByLayer
 10
-115.5
 20
96.9999999999999858
 30
0.0
 40
1.5
  0
LINE
  5
380
100
AcDbEntity
100
AcDbLine
  8
top mount
 62
256
370
-1
  6
ByLayer
 10
-118.0
 20
101.9999999999999858
 30
0.0
 11
-118.0
 21
111.9999999999999858
 31
0.0
  0
LINE
  5
381
100
AcDbEntity
100
AcDbLine
  8
top mount
 62
256
370
-1
  6
ByLayer
 10
-113.0
 20
111.9999999999999858
 30
0.0
 11
-113.0
 21
101.9999999999999858
 31
0.0
  0
LINE
  5
382
100
AcDbEntity
100
AcDbLine
  8
top mount
 62
256
370
-1
  6
ByLayer
 10
-113.0
 20
101.9999999999999858
 30
0.0
 11
-118.0
 21
101.9999999999999858
 31
0.0
  0
LINE
  5
383
100
AcDbEntity
100
AcDbLine
  8
top mount
 62
256
370
-1
  6
ByLayer
 10
-118.0
 20
111.9999999999999858
 30
0.0
 11
-113.0
 21
111.9999999999999858
 31
0.0
  0
LINE
  5
384
100
AcDbEntity
100
AcDbLine
  8
top mount
 62
256
370
-1
  6
ByLayer
 10
-113.0
 20
81.9999999999999858
 30
0.0
 11
-113.0
 21
91.9999999999999858
 31
0.0
  0
LINE
  5
385
100
AcDbEntity
100
AcDbLine
  8
top mount
 62
256
370
-1
  6
ByLayer
 10
-113.0
 20
91.9999999999999858
 30
0.0
 11
-118.0
 21
91.9999999999999858
 31
0.0
  0
LINE
  5
386
100
AcDbEntity
100
AcDbLine
  8
top mount
 62
256
370
-1
  6
ByLayer
 10
-118.0
 20
91.9999999999999858
 30
0.0
 11
-118.0
 21
81.9999999999999858
 31
0.0
  0
LINE
  5
387
100
AcDbEntity
100
AcDbLine
  8
top mount
 62
256
370
-1
  6
ByLayer
 10
-118.0
 20
81.9999999999999858
 30
0.0
 11
-113.0
 21
81.9999999999999858
 31
0.0
  0
LINE
  5
388
100
AcDbEntity
100
AcDbLine
  8
top mount
 62
256
370
-1
  6
ByLayer
 10
-23.0
 20
101.9999999999999858
 30
0.0
 11
-23.0
 21
101.9999999999999858
 31
0.0
  0
CIRCLE
  5
389
100
AcDbEntity
100
AcDbCircle
  8
top mount
 62
256
370
-1
  6
ByLayer
 10
-24.5
 20
96.9999999999999858
 30
0.0
 40
1.5
  0
LINE
  5
38A
100
AcDbEntity
100
AcDbLine
  8
top mount
 62
256
370
-1
  6
ByLayer
 10
-27.0
 20
101.9999999999999858
 30
0.0
 11
-27.0
 21
111.9999999999999858
 31
0.0
  0
LINE
  5
38B
100
AcDbEntity
100
AcDbLine
  8
top mount
 62
256
370
-1
  6
ByLayer
 10
-22.0
 20
111.9999999999999858
 30
0.0
 11
-22.0
 21
101.9999999999999858
 31
0.0
  0
LINE
  5
38C
100
AcDbEntity
100
AcDbLine
  8
top mount
 62
256
370
-1
  6
ByLayer
 10
-22.0
 20
101.9999999999999858
 30
0.0
 11
-27.0
 21
101.9999999999999858
 31
0.0
  0
LINE
  5
38D
100
AcDbEntity
100
AcDbLine
  8
top mount
 62
256
370
-1
  6
ByLayer
 10
-27.0
 20
111.9999999999999858
 30
0.0
 11
-22.0
 21
111.9999999999999858
 31
0.0
  0
LINE
  5
38E
100
AcDbEntity
100
AcDbLine
  8
top mount
 62
256
370
-1
  6
ByLayer
 10
-22.0
 20
81.9999999999999858
 30
0.0
 11
-22.0
 21
91.9999999999999858
 31
0.0
  0
LINE
  5
38F
100
AcDbEntity
100
AcDbLine
  8
top mount
 62
256
370
-1
  6
ByLayer
 10
-22.0
 20
91.9999999999999858
 30
0.0
 11
-27.0
 21
91.9999999999999858
 31
0.0
  0
LINE
  5
390
100
AcDbEntity
100
AcDbLine
  8
top mount
 62
256
370
-1
  6
ByLayer
 10
-27.0
 20
91.9999999999999858
 30
0.0
 11
-27.0
 21
81.9999999999999858
 31
0.0
  0
LINE
  5
391
100
AcDbEntity
100
AcDbLine
  8
top mount
 62
256
370
-1
  6
ByLayer
 10
-27.0
 20
81.9999999999999858
 30
0.0
 11
-22.0
 21
81.9999999999999858
 31
0.0
  0
ARC
  5
392
100
AcDbEntity
  8
top mount
 62
256
370
-1
  6
ByLayer
100
AcDbCircle
 10
-10.0
 20
112.0
 30
0.0
 40
10.0
100
AcDbArc
 50
0.0
 51
90.0
  0
ARC
  5
393
100
AcDbEntity
  8
top mount
 62
256
370
-1
  6
ByLayer
100
AcDbCircle
 10
-130.0
 20
111.9999999999999858
 30
0.0
 40
10.0
100
AcDbArc
 50
90.0
 51
180.0
  0
LINE
  5
394
100
AcDbEntity
100
AcDbLine
  8
top mount
 62
256
370
-1
  6
ByLayer
 10
-86.0
 20
96.9999999999999858
 30
0.0
 11
-86.0
 21
111.9999999999999858
 31
0.0
  0
LINE
  5
395
100
AcDbEntity
100
AcDbLine
  8
top mount
 62
256
370
-1
  6
ByLayer
 10
-130.0
 20
122.0000000000001279
 30
0.0
 11
-95.9999999999999716
 21
121.9999999999999858
 31
0.0
  0
ARC
  5
396
100
AcDbEntity
  8
top mount
 62
256
370
-1
  6
ByLayer
100
AcDbCircle
 10
-96.0
 20
111.9999999999999858
 30
0.0
 40
10.0
100
AcDbArc
 50
0.0
 51
89.9999999999998295
  0
LINE
  5
397
100
AcDbEntity
100
AcDbLine
  8
top mount
 62
256
370
-1
  6
ByLayer
 10
-54.0
 20
96.9999999999999858
 30
0.0
 11
-54.0
 21
111.9999999999999716
 31
0.0
  0
LINE
  5
398
100
AcDbEntity
100
AcDbLine
  8
top mount
 62
256
370
-1
  6
ByLayer
 10
-44.0000000000000213
 20
121.9999999999999716
 30
0.0
 11
-10.0
 21
122.0000000000000568
 31
0.0
  0
ARC
  5
399
100
AcDbEntity
  8
top mount
 62
256
370
-1
  6
ByLayer
100
AcDbCircle
 10
-44.0
 20
111.9999999999999716
 30
0.0
 40
10.0
100
AcDbArc
 50
90.0000000000001279
 51
180.0
  0
LINE
  5
39A
100
AcDbEntity
100
AcDbLine
  8
top mount
 62
256
370
-1
  6
ByLayer
 10
0.0
 20
111.9999999999999574
 30
0.0
 11
0.0000000000000142
 21
62.0
 31
0.0
  0
LINE
  5
39B
100
AcDbEntity
100
AcDbLine
  8
top mount
 62
256
370
-1
  6
ByLayer
 10
-140.0
 20
61.9999999999999005
 30
0.0
 11
-140.0
 21
111.9999999999999716
 31
0.0
  0
LINE
  5
39C
100
AcDbEntity
100
AcDbLine
  8
syringe top
 62
256
370
-1
  6
ByLayer
 10
69.5
 20
180.0
 30
0.0
 11
70.5
 21
182.0
 31
0.0
  0
LINE
  5
39D
100
AcDbEntity
100
AcDbLine
  8
syringe top
 62
256
370
-1
  6
ByLayer
 10
70.5
 20
182.0
 30
0.0
 11
70.5
 21
195.0
 31
0.0
  0
ARC
  5
39E
100
AcDbEntity
  8
syringe top
 62
256
370
-1
  6
ByLayer
100
AcDbCircle
 10
80.5
 20
195.0
 30
0.0
 40
10.0
100
AcDbArc
 50
90.0
 51
180.0
  0
LINE
  5
39F
100
AcDbEntity
100
AcDbLine
  8
syringe top
 62
256
370
-1
  6
ByLayer
 10
40.5000000000000071
 20
179.9999999999999147
 30
0.0
 11
39.5000000000000071
 21
181.9999999999999147
 31
0.0
  0
LINE
  5
3A0
100
AcDbEntity
100
AcDbLine
  8
syringe top
 62
256
370
-1
  6
ByLayer
 10
39.5000000000000142
 20
194.9999999999999147
 30
0.0
 11
39.5000000000000071
 21
181.9999999999999147
 31
0.0
  0
ARC
  5
3A1
100
AcDbEntity
  8
syringe top
 62
256
370
-1
  6
ByLayer
100
AcDbCircle
 10
29.5000000000000142
 20
194.9999999999999147
 30
0.0
 40
10.0
100
AcDbArc
 50
0.0
 51
90.0
  0
ARC
  5
3A2
100
AcDbEntity
  8
syringe top
 62
256
370
-1
  6
ByLayer
100
AcDbCircle
 10
55.0000000000000071
 20
175.0000000000000568
 30
0.0
 40
15.1999999999999993
100
AcDbArc
 50
180.0
 51
0.0
  0
LINE
  5
3A3
100
AcDbEntity
100
AcDbLine
  8
syringe top
 62
256
370
-1
  6
ByLayer
 10
39.8000000000000185
 20
175.0000000000000568
 30
0.0
 11
40.5000000000000071
 21
179.9999999999999147
 31
0.0
  0
LINE
  5
3A4
100
AcDbEntity
100
AcDbLine
  8
syringe top
 62
256
370
-1
  6
ByLayer
 10
70.1999999999999886
 20
175.0000000000000284
 30
0.0
 11
69.5
 21
180.0
 31
0.0
  0
LINE
  5
3A5
100
AcDbEntity
100
AcDbLine
  8
syringe top
 62
256
370
-1
  6
ByLayer
 10
12.0000000000000071
 20
205.0
 30
0.0
 11
29.5000000000000071
 21
205.0
 31
0.0
  0
LINE
  5
3A6
100
AcDbEntity
100
AcDbLine
  8
syringe top
 62
256
370
-1
  6
ByLayer
 10
12.0000000000000142
 20
204.9999999999999716
 30
0.0
 11
11.9977563603639652
 21
199.9999999999999716
 31
0.0
  0
LINE
  5
3A7
100
AcDbEntity
100
AcDbLine
  8
syringe top
 62
256
370
-1
  6
ByLayer
 10
80.5
 20
205.0
 30
0.0
 11
98.0
 21
205.0
 31
0.0
  0
LINE
  5
3A8
100
AcDbEntity
100
AcDbLine
  8
syringe top
 62
256
370
-1
  6
ByLayer
 10
98.0
 20
205.0
 30
0.0
 11
98.0
 21
199.9999999999999432
 31
0.0
  0
LINE
  5
3A9
100
AcDbEntity
100
AcDbLine
  8
syringe top
 62
256
370
-1
  6
ByLayer
 10
40.0
 20
140.0
 30
0.0
 11
50.0
 21
140.0
 31
0.0
  0
LINE
  5
3AA
100
AcDbEntity
100
AcDbLine
  8
syringe top
 62
256
370
-1
  6
ByLayer
 10
60.0
 20
140.0
 30
0.0
 11
70.0
 21
140.0
 31
0.0
  0
LINE
  5
3AB
100
AcDbEntity
100
AcDbLine
  8
syringe top
 62
256
370
-1
  6
ByLayer
 10
50.0
 20
140.0
 30
0.0
 11
50.0
 21
145.0
 31
0.0
  0
LINE
  5
3AC
100
AcDbEntity
100
AcDbLine
  8
syringe top
 62
256
370
-1
  6
ByLayer
 10
40.0
 20
145.0
 30
0.0
 11
40.0
 21
140.0
 31
0.0
  0
LINE
  5
3AD
100
AcDbEntity
100
AcDbLine
  8
syringe top
 62
256
370
-1
  6
ByLayer
 10
60.0
 20
145.0
 30
0.0
 11
60.0
 21
140.0
 31
0.0
  0
LINE
  5
3AE
100
AcDbEntity
100
AcDbLine
  8
syringe top
 62
256
370
-1
  6
ByLayer
 10
70.0
 20
140.0
 30
0.0
 11
70.0
 21
145.0
 31
0.0
  0
LINE
  5
3AF
100
AcDbEntity
100
AcDbLine
  8
syringe top
 62
256
370
-1
  6
ByLayer
 10
40.0000000000000213
 20
145.0000000000000284
 30
0.0
 11
11.9996260600606632
 21
145.0000000000000284
 31
0.0
  0
LINE
  5
3B0
100
AcDbEntity
100
AcDbLine
  8
syringe top
 62
256
370
-1
  6
ByLayer
 10
11.9977563603639581
 20
169.9999999999999716
 30
0.0
 11
11.9996260600606632
 21
145.0000000000000284
 31
0.0
  0
LINE
  5
3B1
100
AcDbEntity
100
AcDbLine
  8
syringe top
 62
256
370
-1
  6
ByLayer
 10
97.999626060060649
 20
144.9999999999999432
 30
0.0
 11
97.997756360363951
 21
169.9999999999999432
 31
0.0
  0
LINE
  5
3B2
100
AcDbEntity
100
AcDbLine
  8
syringe top
 62
256
370
-1
  6
ByLayer
 10
70.0
 20
145.0
 30
0.0
 11
97.999626060060649
 21
144.9999999999999432
 31
0.0
  0
LINE
  5
3B3
100
AcDbEntity
100
AcDbLine
  8
syringe top
 62
256
370
-1
  6
ByLayer
 10
50.0
 20
145.0
 30
0.0
 11
60.0
 21
145.0
 31
0.0
  0
LINE
  5
3B4
100
AcDbEntity
100
AcDbLine
  8
syringe top
 62
256
370
-1
  6
ByLayer
 10
90.9955127207317105
 20
187.7579892769680043
 30
0.0
 11
87.9955127207317105
 21
187.755473245924037
 31
0.0
  0
LINE
  5
3B5
100
AcDbEntity
100
AcDbLine
  8
syringe top
 62
256
370
-1
  6
ByLayer
 10
87.9955127207317105
 20
186.5079892769680043
 30
0.0
 11
87.9955127207317105
 21
187.755473245924037
 31
0.0
  0
LINE
  5
3B6
100
AcDbEntity
100
AcDbLine
  8
syringe top
 62
256
370
-1
  6
ByLayer
 10
90.9955127207317105
 20
182.2579892769680043
 30
0.0
 11
87.9955127207317105
 21
182.2532976165508103
 31
0.0
  0
LINE
  5
3B7
100
AcDbEntity
100
AcDbLine
  8
syringe top
 62
256
370
-1
  6
ByLayer
 10
87.9955127207317105
 20
182.2532976165508103
 30
0.0
 11
87.9955127207317105
 21
183.5079892769680328
 31
0.0
  0
LINE
  5
3B8
100
AcDbEntity
100
AcDbLine
  8
syringe top
 62
256
370
-1
  6
ByLayer
 10
97.9955127207316821
 20
183.5907872923195328
 30
0.0
 11
90.9967929975110508
 21
183.5915052570017565
 31
0.0
  0
LINE
  5
3B9
100
AcDbEntity
100
AcDbLine
  8
syringe top
 62
256
370
-1
  6
ByLayer
 10
90.9967929975110792
 20
186.4087986704114428
 30
0.0
 11
97.9999999999962199
 21
186.4087986704115849
 31
0.0
  0
LINE
  5
3BA
100
AcDbEntity
100
AcDbLine
  8
syringe top
 62
256
370
-1
  6
ByLayer
 10
90.9955127207317105
 20
187.7579892769680043
 30
0.0
 11
90.9967929975110792
 21
186.4087986704114428
 31
0.0
  0
LINE
  5
3BB
100
AcDbEntity
100
AcDbLine
  8
syringe top
 62
256
370
-1
  6
ByLayer
 10
90.9967929975110508
 20
183.5915052570017565
 30
0.0
 11
90.9955127207317105
 21
182.2579892769680043
 31
0.0
  0
LINE
  5
3BC
100
AcDbEntity
100
AcDbLine
  8
syringe top
 62
256
370
-1
  6
ByLayer
 10
86.9955127207317105
 20
183.5079892769680043
 30
0.0
 11
86.9955127207317105
 21
186.5079892769680043
 31
0.0
  0
LINE
  5
3BD
100
AcDbEntity
100
AcDbLine
  8
syringe top
 62
256
370
-1
  6
ByLayer
 10
87.9955127207317105
 20
183.5079892769680328
 30
0.0
 11
86.9955127207317105
 21
183.5079892769680043
 31
0.0
  0
LINE
  5
3BE
100
AcDbEntity
100
AcDbLine
  8
syringe top
 62
256
370
-1
  6
ByLayer
 10
86.9955127207317105
 20
186.5079892769680043
 30
0.0
 11
87.9955127207317105
 21
186.5079892769680043
 31
0.0
  0
LINE
  5
3BF
100
AcDbEntity
100
AcDbLine
  8
syringe top
 62
256
370
-1
  6
ByLayer
 10
102.9999999999961915
 20
179.9999999999999432
 30
0.0
 11
102.9999999999961915
 21
169.9999999999999432
 31
0.0
  0
LINE
  5
3C0
100
AcDbEntity
100
AcDbLine
  8
syringe top
 62
256
370
-1
  6
ByLayer
 10
97.9999999999959357
 20
179.9999999999999432
 30
0.0
 11
102.9999999999961915
 21
179.9999999999999432
 31
0.0
  0
LINE
  5
3C1
100
AcDbEntity
100
AcDbLine
  8
syringe top
 62
256
370
-1
  6
ByLayer
 10
102.9999999999961915
 20
199.9999999999999432
 30
0.0
 11
102.9999999999961915
 21
189.9999999999999432
 31
0.0
  0
LINE
  5
3C2
100
AcDbEntity
100
AcDbLine
  8
syringe top
 62
256
370
-1
  6
ByLayer
 10
102.9999999999961915
 20
189.9999999999999432
 30
0.0
 11
97.9999999999959357
 21
189.9999999999999432
 31
0.0
  0
LINE
  5
3C3
100
AcDbEntity
100
AcDbLine
  8
syringe top
 62
256
370
-1
  6
ByLayer
 10
97.9999999999959357
 20
189.9999999999999432
 30
0.0
 11
97.9999999999962199
 21
186.4087986704115849
 31
0.0
  0
LINE
  5
3C4
100
AcDbEntity
100
AcDbLine
  8
syringe top
 62
256
370
-1
  6
ByLayer
 10
97.9955127207316821
 20
183.5907872923195328
 30
0.0
 11
97.9999999999959357
 21
179.9999999999999432
 31
0.0
  0
LINE
  5
3C5
100
AcDbEntity
100
AcDbLine
  8
syringe top
 62
256
370
-1
  6
ByLayer
 10
98.0
 20
199.9999999999999432
 30
0.0
 11
102.9999999999961915
 21
199.9999999999999432
 31
0.0
  0
LINE
  5
3C6
100
AcDbEntity
100
AcDbLine
  8
syringe top
 62
256
370
-1
  6
ByLayer
 10
102.9999999999961915
 20
169.9999999999999432
 30
0.0
 11
97.9999999999999716
 21
169.9999999999999432
 31
0.0
  0
LINE
  5
3C7
100
AcDbEntity
100
AcDbLine
  8
syringe top
 62
256
370
-1
  6
ByLayer
 10
19.0012354653186364
 20
187.7579892769680328
 30
0.0
 11
22.0012354653186364
 21
187.7554732459240654
 31
0.0
  0
LINE
  5
3C8
100
AcDbEntity
100
AcDbLine
  8
syringe top
 62
256
370
-1
  6
ByLayer
 10
22.0012354653186364
 20
186.5079892769680328
 30
0.0
 11
22.0012354653186364
 21
187.7554732459240654
 31
0.0
  0
LINE
  5
3C9
100
AcDbEntity
100
AcDbLine
  8
syringe top
 62
256
370
-1
  6
ByLayer
 10
19.0012354653186364
 20
182.2579892769680328
 30
0.0
 11
22.0012354653186364
 21
182.2532976165508387
 31
0.0
  0
LINE
  5
3CA
100
AcDbEntity
100
AcDbLine
  8
syringe top
 62
256
370
-1
  6
ByLayer
 10
22.0012354653186364
 20
182.2532976165508387
 30
0.0
 11
22.0012354653186364
 21
183.5079892769680328
 31
0.0
  0
LINE
  5
3CB
100
AcDbEntity
100
AcDbLine
  8
syringe top
 62
256
370
-1
  6
ByLayer
 10
12.001235465318679
 20
183.5907872923195612
 30
0.0
 11
18.9999551885392819
 21
183.5915052570017849
 31
0.0
  0
LINE
  5
3CC
100
AcDbEntity
100
AcDbLine
  8
syringe top
 62
256
370
-1
  6
ByLayer
 10
18.9999551885392819
 20
186.4087986704114996
 30
0.0
 11
11.9967481860541412
 21
186.4087986704116133
 31
0.0
  0
LINE
  5
3CD
100
AcDbEntity
100
AcDbLine
  8
syringe top
 62
256
370
-1
  6
ByLayer
 10
19.0012354653186364
 20
187.7579892769680328
 30
0.0
 11
18.9999551885392819
 21
186.4087986704114996
 31
0.0
  0
LINE
  5
3CE
100
AcDbEntity
100
AcDbLine
  8
syringe top
 62
256
370
-1
  6
ByLayer
 10
18.9999551885392819
 20
183.5915052570017849
 30
0.0
 11
19.0012354653186364
 21
182.2579892769680328
 31
0.0
  0
LINE
  5
3CF
100
AcDbEntity
100
AcDbLine
  8
syringe top
 62
256
370
-1
  6
ByLayer
 10
23.0012354653186364
 20
183.5079892769680328
 30
0.0
 11
23.0012354653186364
 21
186.5079892769680328
 31
0.0
  0
LINE
  5
3D0
100
AcDbEntity
100
AcDbLine
  8
syringe top
 62
256
370
-1
  6
ByLayer
 10
22.0012354653186364
 20
183.5079892769680328
 30
0.0
 11
23.0012354653186364
 21
183.5079892769680328
 31
0.0
  0
LINE
  5
3D1
100
AcDbEntity
100
AcDbLine
  8
syringe top
 62
256
370
-1
  6
ByLayer
 10
23.0012354653186364
 20
186.5079892769680328
 30
0.0
 11
22.0012354653186364
 21
186.5079892769680328
 31
0.0
  0
LINE
  5
3D2
100
AcDbEntity
100
AcDbLine
  8
syringe top
 62
256
370
-1
  6
ByLayer
 10
6.9967481860541554
 20
179.9999999999999716
 30
0.0
 11
6.9967481860541341
 21
170.0
 31
0.0
  0
LINE
  5
3D3
100
AcDbEntity
100
AcDbLine
  8
syringe top
 62
256
370
-1
  6
ByLayer
 10
11.9967481860544183
 20
179.9999999999999716
 30
0.0
 11
6.9967481860541554
 21
179.9999999999999716
 31
0.0
  0
LINE
  5
3D4
100
AcDbEntity
100
AcDbLine
  8
syringe top
 62
256
370
-1
  6
ByLayer
 10
6.9967481860541483
 20
199.9999999999999716
 30
0.0
 11
6.9967481860541554
 21
189.9999999999999716
 31
0.0
  0
LINE
  5
3D5
100
AcDbEntity
100
AcDbLine
  8
syringe top
 62
256
370
-1
  6
ByLayer
 10
6.9967481860541554
 20
189.9999999999999716
 30
0.0
 11
11.9967481860544183
 21
189.9999999999999716
 31
0.0
  0
LINE
  5
3D6
100
AcDbEntity
100
AcDbLine
  8
syringe top
 62
256
370
-1
  6
ByLayer
 10
11.9967481860544183
 20
189.9999999999999716
 30
0.0
 11
11.9967481860541412
 21
186.4087986704116133
 31
0.0
  0
LINE
  5
3D7
100
AcDbEntity
100
AcDbLine
  8
syringe top
 62
256
370
-1
  6
ByLayer
 10
12.001235465318679
 20
183.5907872923195612
 30
0.0
 11
11.9967481860544183
 21
179.9999999999999716
 31
0.0
  0
LINE
  5
3D8
100
AcDbEntity
100
AcDbLine
  8
syringe top
 62
256
370
-1
  6
ByLayer
 10
6.9967481860541341
 20
170.0
 30
0.0
 11
11.9940380562988338
 21
169.9999999999999716
 31
0.0
  0
LINE
  5
3D9
100
AcDbEntity
100
AcDbLine
  8
syringe top
 62
256
370
-1
  6
ByLayer
 10
11.9977563603639652
 20
199.9999999999999716
 30
0.0
 11
6.9967481860541483
 21
199.9999999999999716
 31
0.0
  0
LINE
  5
3DA
100
AcDbEntity
100
AcDbLine
  8
syringe bottom
 62
256
370
-1
  6
ByLayer
 10
70.5000000000000284
 20
85.9999999999998579
 30
0.0
 11
70.5000000000000284
 21
85.9999999999998579
 31
0.0
  0
ARC
  5
3DB
100
AcDbEntity
  8
syringe bottom
 62
256
370
-1
  6
ByLayer
100
AcDbCircle
 10
80.5000000000000284
 20
105.0
 30
0.0
 40
10.0
100
AcDbArc
 50
90.0
 51
180.0
  0
ARC
  5
3DC
100
AcDbEntity
  8
syringe bottom
 62
256
370
-1
  6
ByLayer
100
AcDbCircle
 10
29.5000000000000284
 20
104.9999999999999147
 30
0.0
 40
10.0
100
AcDbArc
 50
0.0
 51
90.0
  0
LINE
  5
3DD
100
AcDbEntity
100
AcDbLine
  8
syringe bottom
 62
256
370
-1
  6
ByLayer
 10
12.0000000000000284
 20
115.0
 30
0.0
 11
29.5000000000000284
 21
115.0
 31
0.0
  0
LINE
  5
3DE
100
AcDbEntity
100
AcDbLine
  8
syringe bottom
 62
256
370
-1
  6
ByLayer
 10
12.0000000000000284
 20
114.9999999999999716
 30
0.0
 11
11.9977563603639794
 21
109.9999999999999716
 31
0.0
  0
LINE
  5
3DF
100
AcDbEntity
100
AcDbLine
  8
syringe bottom
 62
256
370
-1
  6
ByLayer
 10
80.5000000000000284
 20
115.0
 30
0.0
 11
98.0000000000000284
 21
115.0
 31
0.0
  0
LINE
  5
3E0
100
AcDbEntity
100
AcDbLine
  8
syringe bottom
 62
256
370
-1
  6
ByLayer
 10
98.0000000000000284
 20
115.0
 30
0.0
 11
98.0000000000000284
 21
109.9999999999999432
 31
0.0
  0
LINE
  5
3E1
100
AcDbEntity
100
AcDbLine
  8
syringe bottom
 62
256
370
-1
  6
ByLayer
 10
50.0
 20
55.0
 30
0.0
 11
60.0
 21
55.0
 31
0.0
  0
LINE
  5
3E2
100
AcDbEntity
100
AcDbLine
  8
syringe bottom
 62
256
370
-1
  6
ByLayer
 10
40.0
 20
50.0
 30
0.0
 11
50.0
 21
50.0
 31
0.0
  0
LINE
  5
3E3
100
AcDbEntity
100
AcDbLine
  8
syringe bottom
 62
256
370
-1
  6
ByLayer
 10
60.0000000000000284
 20
50.0
 30
0.0
 11
70.0
 21
50.0
 31
0.0
  0
LINE
  5
3E4
100
AcDbEntity
100
AcDbLine
  8
syringe bottom
 62
256
370
-1
  6
ByLayer
 10
50.0
 20
50.0
 30
0.0
 11
50.0
 21
55.0
 31
0.0
  0
LINE
  5
3E5
100
AcDbEntity
100
AcDbLine
  8
syringe bottom
 62
256
370
-1
  6
ByLayer
 10
40.0000000000000284
 20
55.0
 30
0.0
 11
40.0
 21
50.0
 31
0.0
  0
LINE
  5
3E6
100
AcDbEntity
100
AcDbLine
  8
syringe bottom
 62
256
370
-1
  6
ByLayer
 10
60.0
 20
55.0
 30
0.0
 11
60.0000000000000284
 21
50.0
 31
0.0
  0
LINE
  5
3E7
100
AcDbEntity
100
AcDbLine
  8
syringe bottom
 62
256
370
-1
  6
ByLayer
 10
70.0
 20
50.0
 30
0.0
 11
70.0000000000000284
 21
55.0
 31
0.0
  0
LINE
  5
3E8
100
AcDbEntity
100
AcDbLine
  8
syringe bottom
 62
256
370
-1
  6
ByLayer
 10
40.0000000000000284
 20
55.0000000000000284
 30
0.0
 11
12.0
 21
55.0000000000000426
 31
0.0
  0
LINE
  5
3E9
100
AcDbEntity
100
AcDbLine
  8
syringe bottom
 62
256
370
-1
  6
ByLayer
 10
11.9977563603639794
 20
79.9999999999999858
 30
0.0
 11
12.0
 21
55.0000000000000426
 31
0.0
  0
LINE
  5
3EA
100
AcDbEntity
100
AcDbLine
  8
syringe bottom
 62
256
370
-1
  6
ByLayer
 10
70.0000000000000284
 20
55.0
 30
0.0
 11
98.0
 21
54.9999999999999147
 31
0.0
  0
LINE
  5
3EB
100
AcDbEntity
100
AcDbLine
  8
syringe bottom
 62
256
370
-1
  6
ByLayer
 10
98.0
 20
54.9999999999999147
 30
0.0
 11
97.9977563603639794
 21
79.9999999999999716
 31
0.0
  0
LINE
  5
3EC
100
AcDbEntity
100
AcDbLine
  8
syringe bottom
 62
256
370
-1
  6
ByLayer
 10
90.9955127207317247
 20
97.7579892769680043
 30
0.0
 11
87.9955127207317247
 21
97.755473245924037
 31
0.0
  0
LINE
  5
3ED
100
AcDbEntity
100
AcDbLine
  8
syringe bottom
 62
256
370
-1
  6
ByLayer
 10
87.9955127207317247
 20
96.5079892769680043
 30
0.0
 11
87.9955127207317247
 21
97.755473245924037
 31
0.0
  0
LINE
  5
3EE
100
AcDbEntity
100
AcDbLine
  8
syringe bottom
 62
256
370
-1
  6
ByLayer
 10
90.9955127207317247
 20
92.2579892769680043
 30
0.0
 11
87.9955127207317247
 21
92.2532976165508103
 31
0.0
  0
LINE
  5
3EF
100
AcDbEntity
100
AcDbLine
  8
syringe bottom
 62
256
370
-1
  6
ByLayer
 10
87.9955127207317247
 20
92.2532976165508103
 30
0.0
 11
87.9955127207317247
 21
93.5079892769680185
 31
0.0
  0
LINE
  5
3F0
100
AcDbEntity
100
AcDbLine
  8
syringe bottom
 62
256
370
-1
  6
ByLayer
 10
97.9955127207316963
 20
93.5907872923195328
 30
0.0
 11
90.996792997511065
 21
93.5915052570017565
 31
0.0
  0
LINE
  5
3F1
100
AcDbEntity
100
AcDbLine
  8
syringe bottom
 62
256
370
-1
  6
ByLayer
 10
90.9967929975110934
 20
96.4087986704114428
 30
0.0
 11
97.9999999999962341
 21
96.4087986704115849
 31
0.0
  0
LINE
  5
3F2
100
AcDbEntity
100
AcDbLine
  8
syringe bottom
 62
256
370
-1
  6
ByLayer
 10
90.9955127207317247
 20
97.7579892769680043
 30
0.0
 11
90.9967929975110934
 21
96.4087986704114428
 31
0.0
  0
LINE
  5
3F3
100
AcDbEntity
100
AcDbLine
  8
syringe bottom
 62
256
370
-1
  6
ByLayer
 10
90.996792997511065
 20
93.5915052570017565
 30
0.0
 11
90.9955127207317247
 21
92.2579892769680043
 31
0.0
  0
LINE
  5
3F4
100
AcDbEntity
100
AcDbLine
  8
syringe bottom
 62
256
370
-1
  6
ByLayer
 10
86.9955127207317247
 20
93.5079892769680043
 30
0.0
 11
86.9955127207317247
 21
96.5079892769680043
 31
0.0
  0
LINE
  5
3F5
100
AcDbEntity
100
AcDbLine
  8
syringe bottom
 62
256
370
-1
  6
ByLayer
 10
87.9955127207317247
 20
93.5079892769680185
 30
0.0
 11
86.9955127207317247
 21
93.5079892769680043
 31
0.0
  0
LINE
  5
3F6
100
AcDbEntity
100
AcDbLine
  8
syringe bottom
 62
256
370
-1
  6
ByLayer
 10
86.9955127207317247
 20
96.5079892769680043
 30
0.0
 11
87.9955127207317247
 21
96.5079892769680043
 31
0.0
  0
LINE
  5
3F7
100
AcDbEntity
100
AcDbLine
  8
syringe bottom
 62
256
370
-1
  6
ByLayer
 10
102.9999999999962057
 20
89.9999999999999432
 30
0.0
 11
102.9999999999962057
 21
79.9999999999999432
 31
0.0
  0
LINE
  5
3F8
100
AcDbEntity
100
AcDbLine
  8
syringe bottom
 62
256
370
-1
  6
ByLayer
 10
97.9999999999959499
 20
89.9999999999999432
 30
0.0
 11
102.9999999999962057
 21
89.9999999999999432
 31
0.0
  0
LINE
  5
3F9
100
AcDbEntity
100
AcDbLine
  8
syringe bottom
 62
256
370
-1
  6
ByLayer
 10
102.9999999999962057
 20
109.9999999999999432
 30
0.0
 11
102.9999999999962057
 21
99.9999999999999432
 31
0.0
  0
LINE
  5
3FA
100
AcDbEntity
100
AcDbLine
  8
syringe bottom
 62
256
370
-1
  6
ByLayer
 10
102.9999999999962057
 20
99.9999999999999432
 30
0.0
 11
97.9999999999959499
 21
99.9999999999999432
 31
0.0
  0
LINE
  5
3FB
100
AcDbEntity
100
AcDbLine
  8
syringe bottom
 62
256
370
-1
  6
ByLayer
 10
97.9999999999959499
 20
99.9999999999999432
 30
0.0
 11
97.9999999999962341
 21
96.4087986704115849
 31
0.0
  0
LINE
  5
3FC
100
AcDbEntity
100
AcDbLine
  8
syringe bottom
 62
256
370
-1
  6
ByLayer
 10
97.9955127207316963
 20
93.5907872923195328
 30
0.0
 11
97.9999999999959499
 21
89.9999999999999432
 31
0.0
  0
LINE
  5
3FD
100
AcDbEntity
100
AcDbLine
  8
syringe bottom
 62
256
370
-1
  6
ByLayer
 10
98.0000000000000284
 20
109.9999999999999432
 30
0.0
 11
102.9999999999962057
 21
109.9999999999999432
 31
0.0
  0
LINE
  5
3FE
100
AcDbEntity
100
AcDbLine
  8
syringe bottom
 62
256
370
-1
  6
ByLayer
 10
102.9999999999962057
 20
79.9999999999999432
 30
0.0
 11
98.0
 21
79.9999999999999432
 31
0.0
  0
LINE
  5
3FF
100
AcDbEntity
100
AcDbLine
  8
syringe bottom
 62
256
370
-1
  6
ByLayer
 10
19.0012354653186506
 20
97.7579892769680328
 30
0.0
 11
22.0012354653186506
 21
97.7554732459240654
 31
0.0
  0
LINE
  5
400
100
AcDbEntity
100
AcDbLine
  8
syringe bottom
 62
256
370
-1
  6
ByLayer
 10
22.0012354653186506
 20
96.5079892769680328
 30
0.0
 11
22.0012354653186506
 21
97.7554732459240654
 31
0.0
  0
LINE
  5
401
100
AcDbEntity
100
AcDbLine
  8
syringe bottom
 62
256
370
-1
  6
ByLayer
 10
19.0012354653186506
 20
92.2579892769680328
 30
0.0
 11
22.0012354653186506
 21
92.2532976165508387
 31
0.0
  0
LINE
  5
402
100
AcDbEntity
100
AcDbLine
  8
syringe bottom
 62
256
370
-1
  6
ByLayer
 10
22.0012354653186506
 20
92.2532976165508387
 30
0.0
 11
22.0012354653186506
 21
93.5079892769680328
 31
0.0
  0
LINE
  5
403
100
AcDbEntity
100
AcDbLine
  8
syringe bottom
 62
256
370
-1
  6
ByLayer
 10
12.0012354653186932
 20
93.5907872923195612
 30
0.0
 11
18.9999551885392961
 21
93.5915052570017849
 31
0.0
  0
LINE
  5
404
100
AcDbEntity
100
AcDbLine
  8
syringe bottom
 62
256
370
-1
  6
ByLayer
 10
18.9999551885392961
 20
96.4087986704114854
 30
0.0
 11
11.9967481860541554
 21
96.4087986704115991
 31
0.0
  0
LINE
  5
405
100
AcDbEntity
100
AcDbLine
  8
syringe bottom
 62
256
370
-1
  6
ByLayer
 10
19.0012354653186506
 20
97.7579892769680328
 30
0.0
 11
18.9999551885392961
 21
96.4087986704114854
 31
0.0
  0
LINE
  5
406
100
AcDbEntity
100
AcDbLine
  8
syringe bottom
 62
256
370
-1
  6
ByLayer
 10
18.9999551885392961
 20
93.5915052570017849
 30
0.0
 11
19.0012354653186506
 21
92.2579892769680328
 31
0.0
  0
LINE
  5
407
100
AcDbEntity
100
AcDbLine
  8
syringe bottom
 62
256
370
-1
  6
ByLayer
 10
23.0012354653186506
 20
93.5079892769680328
 30
0.0
 11
23.0012354653186506
 21
96.5079892769680328
 31
0.0
  0
LINE
  5
408
100
AcDbEntity
100
AcDbLine
  8
syringe bottom
 62
256
370
-1
  6
ByLayer
 10
22.0012354653186506
 20
93.5079892769680328
 30
0.0
 11
23.0012354653186506
 21
93.5079892769680328
 31
0.0
  0
LINE
  5
409
100
AcDbEntity
100
AcDbLine
  8
syringe bottom
 62
256
370
-1
  6
ByLayer
 10
23.0012354653186506
 20
96.5079892769680328
 30
0.0
 11
22.0012354653186506
 21
96.5079892769680328
 31
0.0
  0
LINE
  5
40A
100
AcDbEntity
100
AcDbLine
  8
syringe bottom
 62
256
370
-1
  6
ByLayer
 10
6.9967481860541696
 20
89.9999999999999716
 30
0.0
 11
6.9967481860541483
 21
79.9999999999999858
 31
0.0
  0
LINE
  5
40B
100
AcDbEntity
100
AcDbLine
  8
syringe bottom
 62
256
370
-1
  6
ByLayer
 10
11.9967481860544325
 20
89.9999999999999716
 30
0.0
 11
6.9967481860541696
 21
89.9999999999999716
 31
0.0
  0
LINE
  5
40C
100
AcDbEntity
100
AcDbLine
  8
syringe bottom
 62
256
370
-1
  6
ByLayer
 10
6.9967481860541625
 20
109.9999999999999716
 30
0.0
 11
6.9967481860541696
 21
99.9999999999999716
 31
0.0
  0
LINE
  5
40D
100
AcDbEntity
100
AcDbLine
  8
syringe bottom
 62
256
370
-1
  6
ByLayer
 10
6.9967481860541696
 20
99.9999999999999716
 30
0.0
 11
11.9967481860544325
 21
99.9999999999999716
 31
0.0
  0
LINE
  5
40E
100
AcDbEntity
100
AcDbLine
  8
syringe bottom
 62
256
370
-1
  6
ByLayer
 10
11.9967481860544325
 20
99.9999999999999716
 30
0.0
 11
11.9967481860541554
 21
96.4087986704115991
 31
0.0
  0
LINE
  5
40F
100
AcDbEntity
100
AcDbLine
  8
syringe bottom
 62
256
370
-1
  6
ByLayer
 10
12.0012354653186932
 20
93.5907872923195612
 30
0.0
 11
11.9967481860544325
 21
89.9999999999999716
 31
0.0
  0
LINE
  5
410
100
AcDbEntity
100
AcDbLine
  8
syringe bottom
 62
256
370
-1
  6
ByLayer
 10
6.9967481860541483
 20
79.9999999999999858
 30
0.0
 11
11.994038056298848
 21
79.9999999999999716
 31
0.0
  0
LINE
  5
411
100
AcDbEntity
100
AcDbLine
  8
syringe bottom
 62
256
370
-1
  6
ByLayer
 10
11.9977563603639794
 20
109.9999999999999716
 30
0.0
 11
6.9967481860541625
 21
109.9999999999999716
 31
0.0
  0
CIRCLE
  5
412
100
AcDbEntity
100
AcDbCircle
  8
syringe bottom
 62
256
370
-1
  6
ByLayer
 10
17.5146414909777874
 20
67.4937125537433786
 30
0.0
 40
2.0
  0
CIRCLE
  5
413
100
AcDbEntity
100
AcDbCircle
  8
syringe bottom
 62
256
370
-1
  6
ByLayer
 10
17.526058399417046
 20
77.4937060364513712
 30
0.0
 40
2.0
  0
CIRCLE
  5
414
100
AcDbEntity
100
AcDbCircle
  8
syringe bottom
 62
256
370
-1
  6
ByLayer
 10
32.5146317150397621
 20
67.476587191084505
 30
0.0
 40
2.0
  0
CIRCLE
  5
415
100
AcDbEntity
100
AcDbCircle
  8
syringe bottom
 62
256
370
-1
  6
ByLayer
 10
32.5260486234789923
 20
77.4765806737924692
 30
0.0
 40
2.0
  0
CIRCLE
  5
416
100
AcDbEntity
100
AcDbCircle
  8
syringe bottom
 62
256
370
-1
  6
ByLayer
 10
77.5146584359370365
 20
67.523396515685377
 30
0.0
 40
2.0
  0
CIRCLE
  5
417
100
AcDbEntity
100
AcDbCircle
  8
syringe bottom
 62
256
370
-1
  6
ByLayer
 10
77.5260753443762951
 20
77.5233899983933696
 30
0.0
 40
2.0
  0
CIRCLE
  5
418
100
AcDbEntity
100
AcDbCircle
  8
syringe bottom
 62
256
370
-1
  6
ByLayer
 10
92.5146486599990112
 20
67.5062711530265034
 30
0.0
 40
2.0
  0
CIRCLE
  5
419
100
AcDbEntity
100
AcDbCircle
  8
syringe bottom
 62
256
370
-1
  6
ByLayer
 10
92.5260655684382414
 20
77.5062646357344676
 30
0.0
 40
2.0
  0
ARC
  5
41A
100
AcDbEntity
  8
syringe bottom
 62
256
370
-1
  6
ByLayer
100
AcDbCircle
 10
55.0000000000000284
 20
85.0000000000000568
 30
0.0
 40
15.2999999999999989
100
AcDbArc
 50
180.0
 51
0.0
  0
LINE
  5
41B
100
AcDbEntity
100
AcDbLine
  8
syringe bottom
 62
256
370
-1
  6
ByLayer
 10
39.7009658253326094
 20
85.0138647844535029
 30
0.0
 11
40.3966560967376012
 21
89.9830810087747892
 31
0.0
  0
LINE
  5
41C
100
AcDbEntity
100
AcDbLine
  8
syringe bottom
 62
256
370
-1
  6
ByLayer
 10
70.2990341746674545
 20
85.0138647844534745
 30
0.0
 11
69.6033439032624699
 21
89.9830810087748887
 31
0.0
  0
LINE
  5
41D
100
AcDbEntity
100
AcDbLine
  8
syringe bottom
 62
256
370
-1
  6
ByLayer
 10
70.5000000000000284
 20
91.77639320225002
 30
0.0
 11
70.5000000000000284
 21
105.0
 31
0.0
  0
LINE
  5
41E
100
AcDbEntity
100
AcDbLine
  8
syringe bottom
 62
256
370
-1
  6
ByLayer
 10
69.6033439032624699
 20
89.9830810087748887
 30
0.0
 11
70.5000000000000284
 21
91.77639320225002
 31
0.0
  0
LINE
  5
41F
100
AcDbEntity
100
AcDbLine
  8
syringe bottom
 62
256
370
-1
  6
ByLayer
 10
40.3966560967376012
 20
89.9830810087747892
 30
0.0
 11
39.5000000000000284
 21
91.7763932022499347
 31
0.0
  0
LINE
  5
420
100
AcDbEntity
100
AcDbLine
  8
syringe bottom
 62
256
370
-1
  6
ByLayer
 10
39.5000000000000284
 20
104.9999999999999147
 30
0.0
 11
39.5000000000000284
 21
91.7763932022499347
 31
0.0
  0
MTEXT
  5
421
100
AcDbEntity
100
AcDbMText
  8
text
 62
256
370
-1
  6
ByLayer
 10
53.0
 20
-107.0
 30
0.0
 40
3.0
 41
100.0
 71
7
 72
0
  1
Left
  7
standard
 50
0.0
 73
1
 44
1.0
  0
MTEXT
  5
422
100
AcDbEntity
100
AcDbMText
  8
text
 62
256
370
-1
  6
ByLayer
 10
-70.0
 20
-107.0
 30
0.0
 40
3.0
 41
100.0
 71
7
 72
0
  1
Back
  7
standard
 50
0.0
 73
1
 44
1.0
  0
MTEXT
  5
423
100
AcDbEntity
100
AcDbMText
  8
text
 62
256
370
-1
  6
ByLayer
 10
-93.0
 20
-107.0
 30
0.0
 40
3.0
 41
100.0
 71
9
 72
0
  1
Right
  7
standard
 50
0.0
 73
1
 44
1.0
  0
ENDSEC
  0
SECTION
  2
OBJECTS
  0
DICTIONARY
  5
C
100
AcDbDictionary
280
0
281
1
  3
ACAD_GROUP
350
D
  3
ACAD_LAYOUT
350
1A
  3
ACAD_MLINESTYLE
350
17
  3
ACAD_PLOTSETTINGS
350
19
  3
ACAD_PLOTSTYLENAME
350
E
  3
AcDbVariableDictionary
350
424
  0
DICTIONARY
  5
D
100
AcDbDictionary
280
0
281
1
  0
ACDBDICTIONARYWDFLT
  5
E
100
AcDbDictionary
281
1
  3
Normal
350
F
100
AcDbDictionaryWithDefault
340
F
  0
ACDBPLACEHOLDER
  5
F
  0
DICTIONARY
  5
17
100
AcDbDictionary
280
0
281
1
  3
Standard
350
18
  0
MLINESTYLE
  5
18
100
AcDbMlineStyle
  2
STANDARD
 70
0
  3

 62
256
 51
90.0
 52
90.0
 71
2
 49
0.5
 62
256
  6
BYLAYER
 49
-0.5
 62
256
  6
BYLAYER
  0
DICTIONARY
  5
19
100
AcDbDictionary
280
0
281
1
  0
DICTIONARY
  5
1A
100
AcDbDictionary
281
1
  3
Layout1
350
1E
  3
Layout2
350
26
  3
Model
350
22
  0
LAYOUT
  5
1E
100
AcDbPlotSettings
  1

  2
C:\Program Files\AutoCAD 2002\plotters\DWF ePlot (optimized for plotting).pc3
  4

  6

 40
0.0
 41
0.0
 42
0.0
 43
0.0
 44
0.0
 45
0.0
 46
0.0
 47
0.0
 48
0.0
 49
0.0
140
0.0
141
0.0
142
1.0
143
1.0
 70
688
 72
0
 73
0
 74
5
  7

 75
16
147
1.0
148
0.0
149
0.0
100
AcDbLayout
  1
Layout1
 70
1
 71
1
 10
0.0
 20
0.0
 11
420.0
 21
297.0
 12
0.0
 22
0.0
 32
0.0
 14
100000000000000000000.0
 24
100000000000000000000.0
 34
100000000000000000000.0
 15
-100000000000000000000.0
 25
-100000000000000000000.0
 35
-100000000000000000000.0
146
0.0
 13
0.0
 23
0.0
 33
0.0
 16
1.0
 26
0.0
 36
0.0
 17
0.0
 27
1.0
 37
0.0
 76
0
330
1B
  0
LAYOUT
  5
22
100
AcDbPlotSettings
  1

  2
C:\Program Files\AutoCAD 2002\plotters\DWF ePlot (optimized for plotting).pc3
  4

  6

 40
0.0
 41
0.0
 42
0.0
 43
0.0
 44
0.0
 45
0.0
 46
0.0
 47
0.0
 48
0.0
 49
0.0
140
0.0
141
0.0
142
1.0
143
1.0
 70
1712
 72
0
 73
0
 74
0
  7

 75
0
147
1.0
148
0.0
149
0.0
100
AcDbLayout
  1
Model
 70
1
 71
0
 10
0.0
 20
0.0
 11
12.0
 21
9.0
 12
0.0
 22
0.0
 32
0.0
 14
0.0
 24
0.0
 34
0.0
 15
0.0
 25
0.0
 35
0.0
146
0.0
 13
0.0
 23
0.0
 33
0.0
 16
1.0
 26
0.0
 36
0.0
 17
0.0
 27
1.0
 37
0.0
 76
0
330
1F
  0
LAYOUT
  5
26
100
AcDbPlotSettings
  1

  2
C:\Program Files\AutoCAD 2002\plotters\DWF ePlot (optimized for plotting).pc3
  4

  6

 40
0.0
 41
0.0
 42
0.0
 43
0.0
 44
0.0
 45
0.0
 46
0.0
 47
0.0
 48
0.0
 49
0.0
140
0.0
141
0.0
142
1.0
143
1.0
 70
688
 72
0
 73
0
 74
5
  7

 75
16
147
1.0
148
0.0
149
0.0
100
AcDbLayout
  1
Layout2
 70
1
 71
2
 10
0.0
 20
0.0
 11
12.0
 21
9.0
 12
0.0
 22
0.0
 32
0.0
 14
0.0
 24
0.0
 34
0.0
 15
0.0
 25
0.0
 35
0.0
146
0.0
 13
0.0
 23
0.0
 33
0.0
 16
1.0
 26
0.0
 36
0.0
 17
0.0
 27
1.0
 37
0.0
 76
0
330
23
  0
DICTIONARY
  5
424
100
AcDbDictionary
281
1
  3
DIMASSOC
350
426
  3
HIDETEXT
350
425
  0
DICTIONARYVAR
  5
425
100
DictionaryVariables
280
0
  1
2
  0
DICTIONARYVAR
  5
426
100
DictionaryVariables
280
0
  1
1
  0
ENDSEC
  0
EOF
