999
dxflib 2.2.0.0
  0
SECTION
  2
HEADER
  9
$ACADVER
  1
AC1015
  9
$HANDSEED
  5
FFFF
  9
$DIMASZ
 40
2.5
  9
$PLIMMIN
 10
0.0
 20
0.0
  9
$DIMEXE
 40
1.25
  9
$DIMGAP
 40
0.625
  9
$PLIMMAX
 10
210.0
 20
297.0
  9
$INSUNITS
 70
4
  9
$DIMSTYLE
  2
Standard
  9
$CLAYER
  8
0
  9
$DIMEXO
 40
0.625
  9
$DIMTXT
 40
2.5
  9
$CLAYER
  8
0
  0
ENDSEC
  0
SECTION
  2
TABLES
  0
TABLE
  2
VPORT
  5
8
100
AcDbSymbolTable
 70
1
  0
VPORT
  5
30
100
AcDbSymbolTableRecord
100
AcDbViewportTableRecord
  2
*Active
 70
0
 10
0.0
 20
0.0
 11
1.0
 21
1.0
 12
286.3055555555554861
 22
148.5
 13
0.0
 23
0.0
 14
10.0
 24
10.0
 15
10.0
 25
10.0
 16
0.0
 26
0.0
 36
1.0
 17
0.0
 27
0.0
 37
0.0
 40
297.0
 41
1.92798353909465
 42
50.0
 43
0.0
 44
0.0
 50
0.0
 51
0.0
 71
0
 72
100
 73
1
 74
3
 75
1
 76
1
 77
0
 78
0
281
0
 65
1
110
0.0
120
0.0
130
0.0
111
1.0
121
0.0
131
0.0
112
0.0
122
1.0
132
0.0
 79
0
146
0.0
  0
ENDTAB
  0
TABLE
  2
LTYPE
  5
5
100
AcDbSymbolTable
 70
21
  0
LTYPE
  5
14
100
AcDbSymbolTableRecord
100
AcDbLinetypeTableRecord
  2
ByBlock
 70
0
  3

 72
65
 73
0
 40
0.0
  0
LTYPE
  5
15
100
AcDbSymbolTableRecord
100
AcDbLinetypeTableRecord
  2
ByLayer
 70
0
  3

 72
65
 73
0
 40
0.0
  0
LTYPE
  5
16
100
AcDbSymbolTableRecord
100
AcDbLinetypeTableRecord
  2
CONTINUOUS
 70
0
  3
Solid line
 72
65
 73
0
 40
0.0
  0
LTYPE
  5
31
100
AcDbSymbolTableRecord
100
AcDbLinetypeTableRecord
  2
DOT
 70
0
  3
Dot . . . . . . . . . . . . . . . . . . . . . .
 72
65
 73
2
 40
6.3499999999999996
 49
0.0
 74
0
 49
-6.3499999999999996
 74
0
  0
LTYPE
  5
32
100
AcDbSymbolTableRecord
100
AcDbLinetypeTableRecord
  2
DOT2
 70
0
  3
Dot (.5x) .....................................
 72
65
 73
2
 40
3.1749999999999998
 49
0.0
 74
0
 49
-3.1749999999999998
 74
0
  0
LTYPE
  5
33
100
AcDbSymbolTableRecord
100
AcDbLinetypeTableRecord
  2
DOTX2
 70
0
  3
Dot (2x) .  .  .  .  .  .  .  .  .  .  .  .  .
 72
65
 73
2
 40
12.6999999999999993
 49
0.0
 74
0
 49
-12.6999999999999993
 74
0
  0
LTYPE
  5
34
100
AcDbSymbolTableRecord
100
AcDbLinetypeTableRecord
  2
DASHED
 70
0
  3
Dashed __ __ __ __ __ __ __ __ __ __ __ __ __ _
 72
65
 73
2
 40
19.0500000000000007
 49
12.6999999999999993
 74
0
 49
-6.3499999999999996
 74
0
  0
LTYPE
  5
35
100
AcDbSymbolTableRecord
100
AcDbLinetypeTableRecord
  2
DASHED2
 70
0
  3
Dashed (.5x) _ _ _ _ _ _ _ _ _ _ _ _ _ _ _ _ _
 72
65
 73
2
 40
9.5250000000000004
 49
6.3499999999999996
 74
0
 49
-3.1749999999999998
 74
0
  0
LTYPE
  5
36
100
AcDbSymbolTableRecord
100
AcDbLinetypeTableRecord
  2
DASHEDX2
 70
0
  3
Dashed (2x) ____  ____  ____  ____  ____  ___
 72
65
 73
2
 40
38.1000000000000014
 49
25.3999999999999986
 74
0
 49
-12.6999999999999993
 74
0
  0
LTYPE
  5
37
100
AcDbSymbolTableRecord
100
AcDbLinetypeTableRecord
  2
DASHDOT
 70
0
  3
Dash dot __ . __ . __ . __ . __ . __ . __ . __
 72
65
 73
4
 40
25.3999999999999986
 49
12.6999999999999993
 74
0
 49
-6.3499999999999996
 74
0
 49
0.0
 74
0
 49
-6.3499999999999996
 74
0
  0
LTYPE
  5
38
100
AcDbSymbolTableRecord
100
AcDbLinetypeTableRecord
  2
DASHDOT2
 70
0
  3
Dash dot (.5x) _._._._._._._._._._._._._._._.
 72
65
 73
4
 40
12.6999999999999993
 49
6.3499999999999996
 74
0
 49
-3.1749999999999998
 74
0
 49
0.0
 74
0
 49
-3.1749999999999998
 74
0
  0
LTYPE
  5
39
100
AcDbSymbolTableRecord
100
AcDbLinetypeTableRecord
  2
DASHDOTX2
 70
0
  3
Dash dot (2x) ____  .  ____  .  ____  .  ___
 72
65
 73
4
 40
50.7999999999999972
 49
25.3999999999999986
 74
0
 49
-12.6999999999999993
 74
0
 49
0.0
 74
0
 49
-12.6999999999999993
 74
0
  0
LTYPE
  5
3A
100
AcDbSymbolTableRecord
100
AcDbLinetypeTableRecord
  2
DIVIDE
 70
0
  3
Divide ____ . . ____ . . ____ . . ____ . . ____
 72
65
 73
6
 40
31.75
 49
12.6999999999999993
 74
0
 49
-6.3499999999999996
 74
0
 49
0.0
 74
0
 49
-6.3499999999999996
 74
0
 49
0.0
 74
0
 49
-6.3499999999999996
 74
0
  0
LTYPE
  5
3B
100
AcDbSymbolTableRecord
100
AcDbLinetypeTableRecord
  2
DIVIDE2
 70
0
  3
Divide (.5x) __..__..__..__..__..__..__..__.._
 72
65
 73
6
 40
15.875
 49
6.3499999999999996
 74
0
 49
-3.1749999999999998
 74
0
 49
0.0
 74
0
 49
-3.1749999999999998
 74
0
 49
0.0
 74
0
 49
-3.1749999999999998
 74
0
  0
LTYPE
  5
3C
100
AcDbSymbolTableRecord
100
AcDbLinetypeTableRecord
  2
DIVIDEX2
 70
0
  3
Divide (2x) ________  .  .  ________  .  .  _
 72
65
 73
6
 40
63.5
 49
25.3999999999999986
 74
0
 49
-12.6999999999999993
 74
0
 49
0.0
 74
0
 49
-12.6999999999999993
 74
0
 49
0.0
 74
0
 49
-12.6999999999999993
 74
0
  0
LTYPE
  5
3D
100
AcDbSymbolTableRecord
100
AcDbLinetypeTableRecord
  2
CENTER
 70
0
  3
Center ____ _ ____ _ ____ _ ____ _ ____ _ ____
 72
65
 73
4
 40
50.7999999999999972
 49
31.75
 74
0
 49
-6.3499999999999996
 74
0
 49
6.3499999999999996
 74
0
 49
-6.3499999999999996
 74
0
  0
LTYPE
  5
3E
100
AcDbSymbolTableRecord
100
AcDbLinetypeTableRecord
  2
CENTER2
 70
0
  3
Center (.5x) ___ _ ___ _ ___ _ ___ _ ___ _ ___
 72
65
 73
4
 40
28.5749999999999993
 49
19.0500000000000007
 74
0
 49
-3.1749999999999998
 74
0
 49
3.1749999999999998
 74
0
 49
-3.1749999999999998
 74
0
  0
LTYPE
  5
3F
100
AcDbSymbolTableRecord
100
AcDbLinetypeTableRecord
  2
CENTERX2
 70
0
  3
Center (2x) ________  __  ________  __  _____
 72
65
 73
4
 40
101.5999999999999943
 49
63.5
 74
0
 49
-12.6999999999999993
 74
0
 49
12.6999999999999993
 74
0
 49
-12.6999999999999993
 74
0
  0
LTYPE
  5
40
100
AcDbSymbolTableRecord
100
AcDbLinetypeTableRecord
  2
BORDER
 70
0
  3
Border __ __ . __ __ . __ __ . __ __ . __ __ .
 72
65
 73
6
 40
44.4500000000000028
 49
12.6999999999999993
 74
0
 49
-6.3499999999999996
 74
0
 49
12.6999999999999993
 74
0
 49
-6.3499999999999996
 74
0
 49
0.0
 74
0
 49
-6.3499999999999996
 74
0
  0
LTYPE
  5
41
100
AcDbSymbolTableRecord
100
AcDbLinetypeTableRecord
  2
BORDER2
 70
0
  3
Border (.5x) __.__.__.__.__.__.__.__.__.__.__.
 72
65
 73
6
 40
22.2250000000000014
 49
6.3499999999999996
 74
0
 49
-3.1749999999999998
 74
0
 49
6.3499999999999996
 74
0
 49
-3.1749999999999998
 74
0
 49
0.0
 74
0
 49
-3.1749999999999998
 74
0
  0
LTYPE
  5
42
100
AcDbSymbolTableRecord
100
AcDbLinetypeTableRecord
  2
BORDERX2
 70
0
  3
Border (2x) ____  ____  .  ____  ____  .  ___
 72
65
 73
6
 40
88.9000000000000057
 49
25.3999999999999986
 74
0
 49
-12.6999999999999993
 74
0
 49
25.3999999999999986
 74
0
 49
-12.6999999999999993
 74
0
 49
0.0
 74
0
 49
-12.6999999999999993
 74
0
  0
ENDTAB
  0
TABLE
  2
LAYER
  5
2
100
AcDbSymbolTable
 70
1
  0
LAYER
  5
10
100
AcDbSymbolTableRecord
100
AcDbLayerTableRecord
  2
0
 70
0
 62
7
420
0
  6
CONTINUOUS
370
25
390
F
  0
ENDTAB
  0
TABLE
  2
STYLE
  5
3
100
AcDbSymbolTable
 70
1
  0
STYLE
  5
11
100
AcDbSymbolTableRecord
100
AcDbTextStyleTableRecord
  2
Standard
 70
0
 40
0.0
 41
0.75
 50
0.0
 71
0
 42
2.5
  3
txt
  4

  0
ENDTAB
  0
TABLE
  2
VIEW
  5
6
100
AcDbSymbolTable
 70
0
  0
ENDTAB
  0
TABLE
  2
UCS
  5
7
100
AcDbSymbolTable
 70
0
  0
ENDTAB
  0
TABLE
  2
APPID
  5
9
100
AcDbSymbolTable
 70
1
  0
APPID
  5
12
100
AcDbSymbolTableRecord
100
AcDbRegAppTableRecord
  2
ACAD
 70
0
  0
ENDTAB
  0
TABLE
  2
DIMSTYLE
  5
A
100
AcDbSymbolTable
 70
1
100
AcDbDimStyleTable
 71
0
  0
DIMSTYLE
105
27
100
AcDbSymbolTableRecord
100
AcDbDimStyleTableRecord
  2
Standard
 41
2.5
 42
0.625
 43
3.75
 44
1.25
 70
0
 73
0
 74
0
 77
1
 78
8
140
2.5
141
2.5
143
0.03937007874016
147
0.625
171
3
172
1
271
2
272
2
274
3
278
44
283
0
284
8
340
11
  0
ENDTAB
  0
TABLE
  2
BLOCK_RECORD
  5
1
100
AcDbSymbolTable
 70
1
  0
BLOCK_RECORD
  5
1F
100
AcDbSymbolTableRecord
100
AcDbBlockTableRecord
  2
*Model_Space
340
22
  0
BLOCK_RECORD
  5
1B
100
AcDbSymbolTableRecord
100
AcDbBlockTableRecord
  2
*Paper_Space
340
1E
  0
BLOCK_RECORD
  5
23
100
AcDbSymbolTableRecord
100
AcDbBlockTableRecord
  2
*Paper_Space0
340
26
  0
ENDTAB
  0
ENDSEC
  0
SECTION
  2
BLOCKS
  0
BLOCK
  5
20
100
AcDbEntity
  8
0
100
AcDbBlockBegin
  2
*Model_Space
 70
0
 10
0.0
 20
0.0
 30
0.0
  3
*Model_Space
  1

  0
ENDBLK
  5
21
100
AcDbEntity
  8
0
100
AcDbBlockEnd
  0
BLOCK
  5
1C
100
AcDbEntity
 67
1
  8
0
100
AcDbBlockBegin
  2
*Paper_Space
 70
0
 10
0.0
 20
0.0
 30
0.0
  3
*Paper_Space
  1

  0
ENDBLK
  5
1D
100
AcDbEntity
 67
1
  8
0
100
AcDbBlockEnd
  0
BLOCK
  5
24
100
AcDbEntity
  8
0
100
AcDbBlockBegin
  2
*Paper_Space0
 70
0
 10
0.0
 20
0.0
 30
0.0
  3
*Paper_Space0
  1

  0
ENDBLK
  5
25
100
AcDbEntity
  8
0
100
AcDbBlockEnd
  0
ENDSEC
  0
SECTION
  2
ENTITIES
  0
CIRCLE
  5
43
100
AcDbEntity
100
AcDbCircle
  8
0
 62
256
370
-1
  6
ByLayer
 10
430.0
 20
-8.0000000000000071
 30
0.0
 40
2.5
  0
CIRCLE
  5
44
100
AcDbEntity
100
AcDbCircle
  8
0
 62
256
370
-1
  6
ByLayer
 10
430.0
 20
-43.0
 30
0.0
 40
2.5
  0
ARC
  5
45
100
AcDbEntity
  8
0
 62
256
370
-1
  6
ByLayer
100
AcDbCircle
 10
430.0
 20
50.0
 30
0.0
 40
4.5
100
AcDbArc
 50
180.0
 51
0.0
  0
LINE
  5
46
100
AcDbEntity
100
AcDbLine
  8
0
 62
256
370
-1
  6
ByLayer
 10
400.0
 20
-53.0
 30
0.0
 11
460.0
 21
-53.0
 31
0.0
  0
LINE
  5
47
100
AcDbEntity
100
AcDbLine
  8
0
 62
256
370
-1
  6
ByLayer
 10
425.5
 20
50.550279504986328
 30
0.0
 11
426.0
 21
52.0
 31
0.0
  0
LINE
  5
48
100
AcDbEntity
100
AcDbLine
  8
0
 62
256
370
-1
  6
ByLayer
 10
426.0
 20
52.0
 30
0.0
 11
425.5
 21
53.0325667731180133
 31
0.0
  0
LINE
  5
49
100
AcDbEntity
100
AcDbLine
  8
0
 62
256
370
-1
  6
ByLayer
 10
434.5
 20
50.5305788123821031
 30
0.0
 11
434.0
 21
52.0
 31
0.0
  0
LINE
  5
4A
100
AcDbEntity
100
AcDbLine
  8
0
 62
256
370
-1
  6
ByLayer
 10
434.0
 20
52.0
 30
0.0
 11
434.5
 21
53.0128660805137883
 31
0.0
  0
LINE
  5
4B
100
AcDbEntity
100
AcDbLine
  8
0
 62
256
370
-1
  6
ByLayer
 10
434.5
 20
50.5305788123821031
 30
0.0
 11
434.5
 21
50.0
 31
0.0
  0
LINE
  5
4C
100
AcDbEntity
100
AcDbLine
  8
0
 62
256
370
-1
  6
ByLayer
 10
425.5
 20
50.550279504986328
 30
0.0
 11
425.5
 21
50.0
 31
0.0
  0
CIRCLE
  5
4D
100
AcDbEntity
100
AcDbCircle
  8
0
 62
256
370
-1
  6
ByLayer
 10
410.073190171599947
 20
10.1147686237996961
 30
0.0
 40
4.0
  0
CIRCLE
  5
4E
100
AcDbEntity
100
AcDbCircle
  8
0
 62
256
370
-1
  6
ByLayer
 10
450.0731901715998902
 20
10.1147686237996837
 30
0.0
 40
4.0
  0
CIRCLE
  5
4F
100
AcDbEntity
100
AcDbCircle
  8
0
 62
256
370
-1
  6
ByLayer
 10
410.0
 20
89.5
 30
0.0
 40
4.0
  0
CIRCLE
  5
50
100
AcDbEntity
100
AcDbCircle
  8
0
 62
256
370
-1
  6
ByLayer
 10
450.0
 20
89.4999999999999858
 30
0.0
 40
4.0
  0
LINE
  5
51
100
AcDbEntity
100
AcDbLine
  8
0
 62
256
370
-1
  6
ByLayer
 10
425.4970448618954038
 20
100.0
 30
0.0
 11
425.5
 21
53.0325667731180133
 31
0.0
  0
LINE
  5
52
100
AcDbEntity
100
AcDbLine
  8
0
 62
256
370
-1
  6
ByLayer
 10
434.4756355162696764
 20
99.9399158637675384
 30
0.0
 11
434.5
 21
53.0128660805137883
 31
0.0
  0
LINE
  5
53
100
AcDbEntity
100
AcDbLine
  8
0
 62
256
370
-1
  6
ByLayer
 10
460.0
 20
100.0
 30
0.0
 11
460.0
 21
-53.0
 31
0.0
  0
LINE
  5
54
100
AcDbEntity
100
AcDbLine
  8
0
 62
256
370
-1
  6
ByLayer
 10
400.0
 20
-53.0
 30
0.0
 11
400.0
 21
100.0
 31
0.0
  0
LINE
  5
55
100
AcDbEntity
100
AcDbLine
  8
0
 62
256
370
-1
  6
ByLayer
 10
460.0
 20
100.0
 30
0.0
 11
433.0
 21
100.0
 31
0.0
  0
LINE
  5
56
100
AcDbEntity
100
AcDbLine
  8
0
 62
256
370
-1
  6
ByLayer
 10
399.0
 20
100.0
 30
0.0
 11
425.4970448618954038
 21
100.0
 31
0.0
  0
ARC
  5
57
100
AcDbEntity
  8
0
 62
256
370
-1
  6
ByLayer
100
AcDbCircle
 10
489.0
 20
49.0999999999996888
 30
0.0
 40
10.0
100
AcDbArc
 50
180.0
 51
270.0
  0
LINE
  5
58
100
AcDbEntity
100
AcDbLine
  8
0
 62
256
370
-1
  6
ByLayer
 10
489.0
 20
39.0999999999996817
 30
0.0
 11
491.0
 21
39.0999999999996817
 31
0.0
  0
ARC
  5
59
100
AcDbEntity
  8
0
 62
256
370
-1
  6
ByLayer
100
AcDbCircle
 10
491.0
 20
49.0999999999996888
 30
0.0
 40
10.0
100
AcDbArc
 50
270.0
 51
0.0
  0
LINE
  5
5A
100
AcDbEntity
100
AcDbLine
  8
0
 62
256
370
-1
  6
ByLayer
 10
479.0
 20
50.0999999999996248
 30
0.0
 11
479.0
 21
49.0999999999996959
 31
0.0
  0
LINE
  5
5B
100
AcDbEntity
100
AcDbLine
  8
0
 62
256
370
-1
  6
ByLayer
 10
501.0
 20
50.0999999999996177
 30
0.0
 11
501.0
 21
49.0999999999996888
 31
0.0
  0
LINE
  5
5C
100
AcDbEntity
100
AcDbLine
  8
0
 62
256
370
-1
  6
ByLayer
 10
460.0
 20
0.0
 30
0.0
 11
520.0
 21
-0.0000000000000142
 31
0.0
  0
LINE
  5
5D
100
AcDbEntity
100
AcDbLine
  8
0
 62
256
370
-1
  6
ByLayer
 10
480.0
 20
51.9999999999999929
 30
0.0
 11
479.0
 21
50.0999999999996248
 31
0.0
  0
LINE
  5
5E
100
AcDbEntity
100
AcDbLine
  8
0
 62
256
370
-1
  6
ByLayer
 10
480.0
 20
51.9999999999999929
 30
0.0
 11
479.0
 21
53.9999999999999929
 31
0.0
  0
LINE
  5
5F
100
AcDbEntity
100
AcDbLine
  8
0
 62
256
370
-1
  6
ByLayer
 10
501.0
 20
53.9999999999999929
 30
0.0
 11
500.0
 21
51.9999999999999858
 31
0.0
  0
LINE
  5
60
100
AcDbEntity
100
AcDbLine
  8
0
 62
256
370
-1
  6
ByLayer
 10
500.0
 20
51.9999999999999858
 30
0.0
 11
501.0
 21
50.0999999999996177
 31
0.0
  0
CIRCLE
  5
61
100
AcDbEntity
100
AcDbCircle
  8
0
 62
256
370
-1
  6
ByLayer
 10
470.0731901715998902
 20
10.1147686237996979
 30
0.0
 40
4.0
  0
CIRCLE
  5
62
100
AcDbEntity
100
AcDbCircle
  8
0
 62
256
370
-1
  6
ByLayer
 10
510.0731901715998902
 20
10.1147686237996766
 30
0.0
 40
4.0
  0
CIRCLE
  5
63
100
AcDbEntity
100
AcDbCircle
  8
0
 62
256
370
-1
  6
ByLayer
 10
470.0
 20
89.4999999999999858
 30
0.0
 40
4.0
  0
CIRCLE
  5
64
100
AcDbEntity
100
AcDbCircle
  8
0
 62
256
370
-1
  6
ByLayer
 10
510.0
 20
89.4999999999999858
 30
0.0
 40
4.0
  0
LINE
  5
65
100
AcDbEntity
100
AcDbLine
  8
0
 62
256
370
-1
  6
ByLayer
 10
460.0
 20
100.0
 30
0.0
 11
479.0
 21
99.9999999999999858
 31
0.0
  0
LINE
  5
66
100
AcDbEntity
100
AcDbLine
  8
0
 62
256
370
-1
  6
ByLayer
 10
479.0
 20
99.9999999999999858
 30
0.0
 11
479.0
 21
53.9999999999999929
 31
0.0
  0
LINE
  5
67
100
AcDbEntity
100
AcDbLine
  8
0
 62
256
370
-1
  6
ByLayer
 10
501.0
 20
99.9999999999999858
 30
0.0
 11
501.0
 21
53.9999999999999929
 31
0.0
  0
LINE
  5
68
100
AcDbEntity
100
AcDbLine
  8
0
 62
256
370
-1
  6
ByLayer
 10
520.0
 20
99.9999999999999858
 30
0.0
 11
501.0
 21
99.9999999999999858
 31
0.0
  0
LINE
  5
69
100
AcDbEntity
100
AcDbLine
  8
0
 62
256
370
-1
  6
ByLayer
 10
520.0
 20
0.0
 30
0.0
 11
580.0
 21
-0.0000000000000284
 31
0.0
  0
CIRCLE
  5
6A
100
AcDbEntity
100
AcDbCircle
  8
0
 62
256
370
-1
  6
ByLayer
 10
530.0731901715998902
 20
10.1147686237996837
 30
0.0
 40
4.0
  0
CIRCLE
  5
6B
100
AcDbEntity
100
AcDbCircle
  8
0
 62
256
370
-1
  6
ByLayer
 10
570.0731901715998902
 20
10.1147686237996695
 30
0.0
 40
4.0
  0
CIRCLE
  5
6C
100
AcDbEntity
100
AcDbCircle
  8
0
 62
256
370
-1
  6
ByLayer
 10
530.0
 20
89.4999999999999858
 30
0.0
 40
4.0
  0
CIRCLE
  5
6D
100
AcDbEntity
100
AcDbCircle
  8
0
 62
256
370
-1
  6
ByLayer
 10
570.0
 20
89.4999999999999858
 30
0.0
 40
4.0
  0
LINE
  5
6E
100
AcDbEntity
100
AcDbLine
  8
0
 62
256
370
-1
  6
ByLayer
 10
519.9999999999998863
 20
-0.0000000000000071
 30
0.0
 11
520.0
 21
100.0
 31
0.0
  0
LINE
  5
6F
100
AcDbEntity
100
AcDbLine
  8
0
 62
256
370
-1
  6
ByLayer
 10
520.0
 20
100.0
 30
0.0
 11
580.0
 21
99.9999999999999858
 31
0.0
  0
CIRCLE
  5
70
100
AcDbEntity
100
AcDbCircle
  8
0
 62
256
370
-1
  6
ByLayer
 10
550.0
 20
49.9999999999999858
 30
0.0
 40
10.9499999999999993
  0
LINE
  5
71
100
AcDbEntity
100
AcDbLine
  8
0
 62
256
370
-1
  6
ByLayer
 10
580.0
 20
-0.0000000000000213
 30
0.0
 11
640.0
 21
-0.0000000000000639
 31
0.0
  0
CIRCLE
  5
72
100
AcDbEntity
100
AcDbCircle
  8
0
 62
256
370
-1
  6
ByLayer
 10
590.0731901715998902
 20
10.1147686237996481
 30
0.0
 40
4.0
  0
CIRCLE
  5
73
100
AcDbEntity
100
AcDbCircle
  8
0
 62
256
370
-1
  6
ByLayer
 10
630.0731901715998902
 20
10.114768623799641
 30
0.0
 40
4.0
  0
CIRCLE
  5
74
100
AcDbEntity
100
AcDbCircle
  8
0
 62
256
370
-1
  6
ByLayer
 10
590.0
 20
89.4999999999999574
 30
0.0
 40
4.0
  0
CIRCLE
  5
75
100
AcDbEntity
100
AcDbCircle
  8
0
 62
256
370
-1
  6
ByLayer
 10
630.0
 20
89.4999999999999574
 30
0.0
 40
4.0
  0
LINE
  5
76
100
AcDbEntity
100
AcDbLine
  8
0
 62
256
370
-1
  6
ByLayer
 10
579.9999999999998863
 20
-0.0000000000000284
 30
0.0
 11
580.0
 21
99.9999999999999858
 31
0.0
  0
LINE
  5
77
100
AcDbEntity
100
AcDbLine
  8
0
 62
256
370
-1
  6
ByLayer
 10
580.0
 20
99.9999999999999858
 30
0.0
 11
640.0
 21
99.9999999999999574
 31
0.0
  0
CIRCLE
  5
78
100
AcDbEntity
100
AcDbCircle
  8
0
 62
256
370
-1
  6
ByLayer
 10
610.0
 20
49.9999999999999574
 30
0.0
 40
10.9499999999999993
  0
LINE
  5
79
100
AcDbEntity
100
AcDbLine
  8
0
 62
256
370
-1
  6
ByLayer
 10
640.0
 20
-0.0000000000000639
 30
0.0
 11
640.0
 21
99.9999999999999574
 31
0.0
  0
LINE
  5
7A
100
AcDbEntity
100
AcDbLine
  8
0
 62
256
370
-1
  6
ByLayer
 10
400.0
 20
-153.0
 30
0.0
 11
460.0
 21
-153.0000000000000568
 31
0.0
  0
CIRCLE
  5
7B
100
AcDbEntity
100
AcDbCircle
  8
0
 62
256
370
-1
  6
ByLayer
 10
410.0731901715998902
 20
-142.8852313762003519
 30
0.0
 40
4.0
  0
CIRCLE
  5
7C
100
AcDbEntity
100
AcDbCircle
  8
0
 62
256
370
-1
  6
ByLayer
 10
450.0731901715998902
 20
-142.8852313762003519
 30
0.0
 40
4.0
  0
CIRCLE
  5
7D
100
AcDbEntity
100
AcDbCircle
  8
0
 62
256
370
-1
  6
ByLayer
 10
410.0
 20
-63.5000000000000284
 30
0.0
 40
4.0
  0
CIRCLE
  5
7E
100
AcDbEntity
100
AcDbCircle
  8
0
 62
256
370
-1
  6
ByLayer
 10
450.0
 20
-63.5000000000000284
 30
0.0
 40
4.0
  0
LINE
  5
7F
100
AcDbEntity
100
AcDbLine
  8
0
 62
256
370
-1
  6
ByLayer
 10
399.9999999999998863
 20
-153.0
 30
0.0
 11
400.0
 21
-53.0
 31
0.0
  0
LINE
  5
80
100
AcDbEntity
100
AcDbLine
  8
0
 62
256
370
-1
  6
ByLayer
 10
460.0
 20
-153.0000000000000568
 30
0.0
 11
460.0
 21
-53.0000000000000284
 31
0.0
  0
CIRCLE
  5
81
100
AcDbEntity
100
AcDbCircle
  8
0
 62
256
370
-1
  6
ByLayer
 10
430.0
 20
-103.0000000000000284
 30
0.0
 40
4.0499999999999998
  0
LINE
  5
82
100
AcDbEntity
100
AcDbLine
  8
0
 62
256
370
-1
  6
ByLayer
 10
490.0
 20
-63.0
 30
0.0
 11
490.0
 21
-63.0
 31
0.0
  0
CIRCLE
  5
83
100
AcDbEntity
100
AcDbCircle
  8
0
 62
256
370
-1
  6
ByLayer
 10
470.0731901715998902
 20
-142.885231376200295
 30
0.0
 40
4.0
  0
CIRCLE
  5
84
100
AcDbEntity
100
AcDbCircle
  8
0
 62
256
370
-1
  6
ByLayer
 10
510.0731901715998902
 20
-142.8852313762003234
 30
0.0
 40
4.0
  0
CIRCLE
  5
85
100
AcDbEntity
100
AcDbCircle
  8
0
 62
256
370
-1
  6
ByLayer
 10
470.0
 20
-63.5
 30
0.0
 40
4.0
  0
CIRCLE
  5
86
100
AcDbEntity
100
AcDbCircle
  8
0
 62
256
370
-1
  6
ByLayer
 10
510.0
 20
-63.5
 30
0.0
 40
4.0
  0
CIRCLE
  5
87
100
AcDbEntity
100
AcDbCircle
  8
0
 62
256
370
-1
  6
ByLayer
 10
539.0
 20
-103.0
 30
0.0
 40
11.0
  0
CIRCLE
  5
88
100
AcDbEntity
100
AcDbCircle
  8
0
 62
256
370
-1
  6
ByLayer
 10
554.4950000000000045
 20
-87.5049999999999955
 30
0.0
 40
1.5
  0
CIRCLE
  5
89
100
AcDbEntity
100
AcDbCircle
  8
0
 62
256
370
-1
  6
ByLayer
 10
554.4950000000000045
 20
-118.495000000000033
 30
0.0
 40
1.5
  0
CIRCLE
  5
8A
100
AcDbEntity
100
AcDbCircle
  8
0
 62
256
370
-1
  6
ByLayer
 10
523.5049999999999955
 20
-118.4950000000000045
 30
0.0
 40
1.5
  0
CIRCLE
  5
8B
100
AcDbEntity
100
AcDbCircle
  8
0
 62
256
370
-1
  6
ByLayer
 10
523.5049999999999955
 20
-87.5049999999999955
 30
0.0
 40
1.5
  0
LINE
  5
8C
100
AcDbEntity
100
AcDbLine
  8
0
 62
256
370
-1
  6
ByLayer
 10
539.0
 20
-98.2137666320662106
 30
0.0
 11
534.8550000000000182
 21
-100.6068830197584703
 31
0.0
  0
LINE
  5
8D
100
AcDbEntity
100
AcDbLine
  8
0
 62
256
370
-1
  6
ByLayer
 10
534.8550000000000182
 20
-100.6068830197584703
 30
0.0
 11
534.8550000000000182
 21
-105.3931169802414729
 31
0.0
  0
LINE
  5
8E
100
AcDbEntity
100
AcDbLine
  8
0
 62
256
370
-1
  6
ByLayer
 10
534.8550000000000182
 20
-105.3931169802414729
 30
0.0
 11
539.0
 21
-107.7862333679337894
 31
0.0
  0
LINE
  5
8F
100
AcDbEntity
100
AcDbLine
  8
0
 62
256
370
-1
  6
ByLayer
 10
543.1449999999999818
 20
-105.3931169802415297
 30
0.0
 11
539.0
 21
-107.7862333679337894
 31
0.0
  0
LINE
  5
90
100
AcDbEntity
100
AcDbLine
  8
0
 62
256
370
-1
  6
ByLayer
 10
539.0
 20
-98.2137666320662106
 30
0.0
 11
543.1449999999999818
 21
-100.6068830197584703
 31
0.0
  0
LINE
  5
91
100
AcDbEntity
100
AcDbLine
  8
0
 62
256
370
-1
  6
ByLayer
 10
543.1449999999999818
 20
-100.6068830197584703
 30
0.0
 11
543.1449999999999818
 21
-105.3931169802415297
 31
0.0
  0
LINE
  5
92
100
AcDbEntity
100
AcDbLine
  8
0
 62
256
370
-1
  6
ByLayer
 10
562.0
 20
-53.0
 30
0.0
 11
562.0
 21
-153.0000000000000284
 31
0.0
  0
LINE
  5
93
100
AcDbEntity
100
AcDbLine
  8
0
 62
256
370
-1
  6
ByLayer
 10
460.0
 20
-152.9999999999999716
 30
0.0
 11
562.0
 21
-153.0000000000000284
 31
0.0
  0
LINE
  5
94
100
AcDbEntity
100
AcDbLine
  8
0
 62
256
370
-1
  6
ByLayer
 10
460.0
 20
-53.0
 30
0.0
 11
562.0
 21
-53.0
 31
0.0
  0
CIRCLE
  5
95
100
AcDbEntity
100
AcDbCircle
  8
0
 62
256
370
-1
  6
ByLayer
 10
490.0
 20
-103.0
 30
0.0
 40
4.0499999999999998
  0
LWPOLYLINE
  5
96
  8
0
 62
7
420
16777215
370
-1
  6
ByLayer
100
AcDbEntity
100
AcDbPolyline
 90
264
 70
1
 10
483.1790417625001055
 20
-17.5752537631499663
 10
482.7223406645400701
 20
-17.3585865820800294
 10
482.3632950009600791
 20
-16.9732414910099934
 10
482.1378896557200733
 20
-16.435565872409974
 10
482.0761682143499911
 20
-15.7446223759199952
 10
482.2153429808100782
 20
-14.902319392050039
 10
482.1655728197099506
 20
-14.1998518657199853
 10
481.922303637810046
 20
-13.2596640055199728
 10
481.4784783838199473
 20
-12.211482258660034
 10
480.8379379962000257
 20
-11.118584240669982
 10
480.0
 20
-11.099999999999973
 10
479.1620620037999743
 20
-11.1185842406699535
 10
478.5215216161800527
 20
-12.2114822586599772
 10
478.0776963621900677
 20
-13.2596640055199728
 10
477.8344271802900494
 20
-14.1998518657200137
 10
477.7846570191900355
 20
-14.9023193920500105
 10
477.9238317856500089
 20
-15.7446223759199952
 10
477.8621103442800404
 20
-16.4355658724100024
 10
477.6367049990400346
 20
-16.9732414910099934
 10
477.2776593354600436
 20
-17.3585865820800009
 10
476.8209582375000082
 20
-17.5752537631499663
 10
476.6806457415300429
 20
-17.6120012639999644
 10
476.5407578076000163
 20
-17.6503332420299799
 10
476.0369094643500603
 20
-17.6910445081199796
 10
475.5332942528700642
 20
-17.5368487017899852
 10
475.0692496884299771
 20
-17.1839106299099527
 10
474.6703256042700332
 20
-16.6163967297300204
 10
474.3697029956400684
 20
-15.8173535648999799
 10
473.9753670082500321
 20
-15.2338839221099889
 10
473.2945957871399969
 20
-14.5412919419700071
 10
472.3861409686199977
 20
-13.8554525484299589
 10
471.2849677119900207
 20
-13.2292452949499442
 10
470.5500000000000682
 20
-13.6321198684499691
 10
469.8336165289500741
 20
-14.0671832911499646
 10
469.8253412900400008
 20
-15.3339309322500217
 10
469.9650682186500035
 20
-16.4635955800499687
 10
470.2244848571999682
 20
-17.3994567418199608
 10
470.5326163964100488
 20
-18.032696545710003
 10
471.0742967716500971
 20
-18.6925649440799759
 10
471.366316183980075
 20
-19.3218002853599842
 10
471.4399472381400074
 20
-19.900143702749979
 10
471.3216771177300188
 20
-20.4133851726599858
 10
471.0344959555500282
 20
-20.8293750045300001
 10
470.9313555200400288
 20
-20.931355521659988
 10
470.829375004529993
 20
-21.0344959555499784
 10
470.4133851726600142
 20
-21.3216771177299762
 10
469.9001437027500288
 20
-21.439947238139986
 10
469.3218002853599273
 20
-21.3663161839799969
 10
468.6925649440800044
 20
-21.0742967716499905
 10
468.0326965457099959
 20
-20.5326163964099706
 10
467.3994567418200177
 20
-20.2244848571999754
 10
466.4635955800499687
 20
-19.9650682186499751
 10
465.3339309322500412
 20
-19.8253412900399724
 10
464.0671832911500587
 20
-19.8336165289499959
 10
463.6321198684499905
 20
-20.5499999999999758
 10
463.229245294950033
 20
-21.2849677119899994
 10
463.8554525484299802
 20
-22.3861409686200048
 10
464.5412919419700302
 20
-23.2945957871399614
 10
465.2338839221099533
 20
-23.9753670082499823
 10
465.8173535649000314
 20
-24.3697029956399867
 10
466.6163967297300132
 20
-24.6703256042699834
 10
467.183910629909974
 20
-25.0692496884299842
 10
467.5368487017900634
 20
-25.5332942528699967
 10
467.6910445081200578
 20
-26.036909464349975
 10
467.6503332420300012
 20
-26.5407578075999986
 10
467.6120012634600016
 20
-26.6806457439599889
 10
467.5752537631500445
 20
-26.820958237499962
 10
467.3585865820799654
 20
-27.2776593354599761
 10
466.9732414910099578
 20
-27.6367049990399991
 10
466.4355658724100522
 20
-27.8621103442800191
 10
465.7446223759200166
 20
-27.9238317856499521
 10
464.9023193920500034
 20
-27.7846570191899929
 10
464.1998518657200066
 20
-27.8344271802900174
 10
463.2596640055199941
 20
-28.0776963621899256
 10
462.2114822586599985
 20
-28.5215216161799461
 10
461.1185842406699749
 20
-29.1620620037999707
 10
461.1000000000000227
 20
-29.9999999999999964
 10
461.1185842406699749
 20
-30.8379379961999334
 10
462.2114822586599985
 20
-31.4784783838199544
 10
463.2596640055199941
 20
-31.9223036378100034
 10
464.1998518657200066
 20
-32.1655728197099648
 10
464.9023193920500034
 20
-32.2153429808099929
 10
465.7446223759200166
 20
-32.0761682143499769
 10
466.4355658724100522
 20
-32.137889655719988
 10
466.9732414910099578
 20
-32.3632950009599654
 10
467.3585865820799654
 20
-32.7223406645399351
 10
467.5752537631500445
 20
-33.1790417624999989
 10
467.6120012640000141
 20
-33.3193542584699713
 10
467.6503332420300012
 20
-33.4592421923999694
 10
467.6910445081199441
 20
-33.9630905356500108
 10
467.5368487017899497
 20
-34.4667057471299785
 10
467.183910629909974
 20
-34.9307503115699944
 10
466.6163967297300132
 20
-35.3296743957299952
 10
465.8173535648999177
 20
-35.6302970043599885
 10
465.2338839221099533
 20
-36.0246329917500105
 10
464.5412919419700302
 20
-36.7054042128600031
 10
463.8554525484299802
 20
-37.6138590313799881
 10
463.229245294950033
 20
-38.7150322880099935
 10
463.6321198684499905
 20
-39.4499999999999815
 10
464.0671832911500587
 20
-40.1663834710499827
 10
465.3339309322500412
 20
-40.1746587099599992
 10
466.4635955800499687
 20
-40.0349317813499823
 10
467.3994567418200177
 20
-39.7755151427999749
 10
468.0326965457099959
 20
-39.4673836035900223
 10
468.6925649440800044
 20
-38.9257032283499882
 10
469.321800285360041
 20
-38.6336838160199818
 10
469.9001437027500288
 20
-38.5600527618599642
 10
470.4133851726600142
 20
-38.6783228822699812
 10
470.829375004529993
 20
-38.9655040444500003
 10
470.9313555216599525
 20
-39.0686444799600281
 10
471.0344959555500282
 20
-39.1706249954699928
 10
471.3216771177300188
 20
-39.5866148273399716
 10
471.4399472381400074
 20
-40.099856297249957
 10
471.3663161839799614
 20
-40.6781997146400016
 10
471.0742967716500971
 20
-41.3074350559199956
 10
470.5326163964099351
 20
-41.9673034542899757
 10
470.2244848571999682
 20
-42.6005432581800108
 10
469.9650682186500035
 20
-43.5364044199500171
 10
469.8253412900400008
 20
-44.6660690677500014
 10
469.8336165289499604
 20
-45.9328167088499981
 10
470.5500000000000682
 20
-46.3678801315499953
 10
471.2849677119900207
 20
-46.7707547050499954
 10
472.3861409686199977
 20
-46.1445474515699772
 10
473.2945957871399969
 20
-45.4587080580300267
 10
473.9753670082499184
 20
-44.7661160778899898
 10
474.3697029956399547
 20
-44.182646435099997
 10
474.6703256042699195
 20
-43.3836032702700152
 10
475.0692496884299771
 20
-42.8160893700900118
 10
475.5332942528699505
 20
-42.4631512982100219
 10
476.0369094643499466
 20
-42.3089554918799706
 10
476.5407578076000163
 20
-42.3496667579699704
 10
476.6806457439599853
 20
-42.3879987365399842
 10
476.8209582375000082
 20
-42.4247462368499839
 10
477.2776593354599299
 20
-42.6414134179200062
 10
477.6367049990399209
 20
-43.0267585089900138
 10
477.8621103442799267
 20
-43.5644341275900331
 10
477.9238317856500089
 20
-44.2553776240799692
 10
477.7846570191900355
 20
-45.0976806079499966
 10
477.8344271802899357
 20
-45.800148134279965
 10
478.0776963621900677
 20
-46.7403359944799774
 10
478.5215216161800527
 20
-47.7885177413399873
 10
479.1620620037999743
 20
-48.8814157593299825
 10
480.0
 20
-48.9000000000000341
 10
480.8379379962000257
 20
-48.8814157593300251
 10
481.4784783838199473
 20
-47.7885177413399873
 10
481.922303637810046
 20
-46.7403359944800059
 10
482.1655728197100643
 20
-45.8001481342799792
 10
482.2153429808100782
 20
-45.0976806079499966
 10
482.0761682143499911
 20
-44.2553776240800119
 10
482.1378896557200733
 20
-43.5644341275900047
 10
482.3632950009599654
 20
-43.0267585089899995
 10
482.7223406645399564
 20
-42.6414134179200204
 10
483.1790417625001055
 20
-42.4247462368500408
 10
483.3193542584699571
 20
-42.3879987360000428
 10
483.4592421923999837
 20
-42.3496667579700414
 10
483.9630905356500534
 20
-42.308955491879999
 10
484.4667057471299358
 20
-42.4631512982100503
 10
484.9307503115700229
 20
-42.8160893700899976
 10
485.3296743957300805
 20
-43.383603270270001
 10
485.6302970043599316
 20
-44.1826464351000681
 10
486.0246329917499679
 20
-44.7661160778899898
 10
486.7054042128600031
 20
-45.4587080580300267
 10
487.6138590313800023
 20
-46.1445474515700198
 10
488.7150322880099793
 20
-46.7707547050499812
 10
489.4499999999999318
 20
-46.3678801315500095
 10
490.1663834710500396
 20
-45.9328167088499981
 10
490.1746587099599992
 20
-44.666069067750044
 10
490.0349317813499965
 20
-43.5364044199500668
 10
489.7755151428000318
 20
-42.6005432581800108
 10
489.4673836035899512
 20
-41.9673034542900183
 10
488.9257032283500166
 20
-41.3074350559200028
 10
488.633683816019925
 20
-40.6781997146400158
 10
488.5600527618599926
 20
-40.0998562972500352
 10
488.6783228822699812
 20
-39.5866148273400285
 10
488.9655040444499718
 20
-39.1706249954700354
 10
489.0686444799599712
 20
-39.0686444783399907
 10
489.170624995470007
 20
-38.9655040444500145
 10
489.5866148273399858
 20
-38.6783228822700096
 10
490.0998562972499712
 20
-38.5600527618600495
 10
490.678199714639959
 20
-38.633683816019996
 10
491.3074350559199956
 20
-38.9257032283500308
 10
491.9673034542900041
 20
-39.4673836035899797
 10
492.6005432581799823
 20
-39.7755151428000318
 10
493.5364044199500313
 20
-40.0349317813500249
 10
494.6660690677499588
 20
-40.1746587099600134
 10
495.932816708850055
 20
-40.1663834710500396
 10
496.3678801315500095
 20
-39.4500000000000028
 10
496.770754705049967
 20
-38.7150322880100504
 10
496.1445474515700198
 20
-37.6138590313800592
 10
495.4587080580299698
 20
-36.7054042128600173
 10
494.766116077889933
 20
-36.0246329917500461
 10
494.1826464350999686
 20
-35.630297004360024
 10
493.3836032702699868
 20
-35.3296743957300663
 10
492.816089370090026
 20
-34.93075031157003
 10
492.4631512982100503
 20
-34.466705747130014
 10
492.3089554918799422
 20
-33.9630905356501103
 10
492.3496667579699988
 20
-33.4592421923999908
 10
492.3879987365399984
 20
-33.3193542560399862
 10
492.4247462368500692
 20
-33.1790417625000345
 10
492.6414134179200346
 20
-32.7223406645400061
 10
493.0267585089900422
 20
-32.3632950009598872
 10
493.5644341275899478
 20
-32.1378896557199312
 10
494.2553776240799834
 20
-32.0761682143499485
 10
495.0976806079499966
 20
-32.2153429808099361
 10
495.8001481342799934
 20
-32.1655728197101496
 10
496.7403359944800059
 20
-31.922303637810078
 10
497.7885177413400015
 20
-31.4784783838198869
 10
498.8814157593300251
 20
-30.8379379962002744
 10
498.8999999999999773
 20
-30.0000000000000036
 10
498.8814157593300251
 20
-29.1620620037995941
 10
497.7885177413400015
 20
-28.5215216161801131
 10
496.7403359944800059
 20
-28.0776963621899256
 10
495.8001481342799934
 20
-27.8344271802898255
 10
495.0976806079499966
 20
-27.7846570191900462
 10
494.2553776240799834
 20
-27.9238317856500124
 10
493.5644341275899478
 20
-27.8621103442800191
 10
493.0267585089900422
 20
-27.6367049990400062
 10
492.6414134179200346
 20
-27.2776593354599868
 10
492.4247462368500692
 20
-26.82095823749993
 10
492.3879987359999859
 20
-26.6806457415299043
 10
492.3496667579699988
 20
-26.5407578075999808
 10
492.3089554918800559
 20
-26.0369094643499928
 10
492.4631512982100503
 20
-25.533294252869986
 10
492.816089370090026
 20
-25.0692496884299878
 10
493.3836032702699868
 20
-24.6703256042699977
 10
494.1826464350999686
 20
-24.369702995639976
 10
494.766116077889933
 20
-23.9753670082499362
 10
495.4587080580299698
 20
-23.2945957871399614
 10
496.1445474515700198
 20
-22.3861409686199906
 10
496.770754705049967
 20
-21.2849677119900136
 10
496.3678801315500095
 20
-20.5499999999999758
 10
495.932816708850055
 20
-19.8336165289499533
 10
494.6660690677500725
 20
-19.8253412900399795
 10
493.5364044199500313
 20
-19.9650682186499822
 10
492.6005432581799823
 20
-20.2244848571999469
 10
491.9673034542900041
 20
-20.5326163964099564
 10
491.3074350559199956
 20
-21.0742967716500047
 10
490.678199714639959
 20
-21.3663161839800111
 10
490.0998562972500849
 20
-21.4399472381400145
 10
489.5866148273399858
 20
-21.3216771177299833
 10
489.170624995470007
 20
-21.0344959555499926
 10
489.0686444783400475
 20
-20.931355520039979
 10
488.9655040444499718
 20
-20.8293750045300143
 10
488.6783228822699812
 20
-20.4133851726599929
 10
488.5600527618599926
 20
-19.9001437027500216
 10
488.6336838160200386
 20
-19.3218002853599877
 10
488.9257032283500166
 20
-18.692564944079983
 10
489.4673836035899512
 20
-18.032696545710003
 10
489.7755151428000318
 20
-17.3994567418199964
 10
490.0349317813499965
 20
-16.4635955800499758
 10
490.1746587099599992
 20
-15.3339309322499915
 10
490.1663834710500396
 20
-14.0671832911500072
 10
489.4500000000000455
 20
-13.6321198684499976
 10
488.7150322880099793
 20
-13.2292452949499832
 10
487.6138590313800023
 20
-13.8554525484300228
 10
486.7054042128600031
 20
-14.5412919419700071
 10
486.0246329917499679
 20
-15.2338839221099605
 10
485.6302970043600453
 20
-15.8173535648999817
 10
485.3296743957300805
 20
-16.6163967297299919
 10
484.9307503115700229
 20
-17.1839106299099527
 10
484.4667057471300495
 20
-17.5368487017899568
 10
483.9630905356500534
 20
-17.6910445081199796
 10
483.4592421923999837
 20
-17.6503332420300083
 10
483.3193542560400147
 20
-17.6120012634599803
  0
LINE
  5
97
100
AcDbEntity
100
AcDbLine
  8
0
 62
256
370
-1
  6
ByLayer
 10
480.0
 20
-25.2137666320662177
 30
0.0
 11
475.8550000000000182
 21
-27.6068830197584987
 31
0.0
  0
LINE
  5
98
100
AcDbEntity
100
AcDbLine
  8
0
 62
256
370
-1
  6
ByLayer
 10
475.8550000000000182
 20
-27.6068830197584987
 30
0.0
 11
475.8550000000000182
 21
-32.3931169802414942
 31
0.0
  0
LINE
  5
99
100
AcDbEntity
100
AcDbLine
  8
0
 62
256
370
-1
  6
ByLayer
 10
475.8550000000000182
 20
-32.3931169802414942
 30
0.0
 11
480.0
 21
-34.7862333679337894
 31
0.0
  0
LINE
  5
9A
100
AcDbEntity
100
AcDbLine
  8
0
 62
256
370
-1
  6
ByLayer
 10
484.1449999999999818
 20
-32.3931169802415155
 30
0.0
 11
480.0
 21
-34.7862333679337894
 31
0.0
  0
LINE
  5
9B
100
AcDbEntity
100
AcDbLine
  8
0
 62
256
370
-1
  6
ByLayer
 10
480.0
 20
-25.2137666320662177
 30
0.0
 11
484.1449999999999818
 21
-27.6068830197585129
 31
0.0
  0
LINE
  5
9C
100
AcDbEntity
100
AcDbLine
  8
0
 62
256
370
-1
  6
ByLayer
 10
484.1449999999999818
 20
-27.6068830197585129
 30
0.0
 11
484.1449999999999818
 21
-32.3931169802415155
 31
0.0
  0
LWPOLYLINE
  5
9D
  8
0
 62
7
420
16777215
370
-1
  6
ByLayer
100
AcDbEntity
100
AcDbPolyline
 90
264
 70
1
 10
523.1790417625001055
 20
-17.5752537631499663
 10
522.7223406645400701
 20
-17.3585865820800294
 10
522.3632950009600791
 20
-16.9732414910099791
 10
522.1378896557200733
 20
-16.4355658724099527
 10
522.0761682143499911
 20
-15.7446223759199739
 10
522.2153429808100782
 20
-14.9023193920500265
 10
522.1655728197099506
 20
-14.199851865719971
 10
521.922303637810046
 20
-13.2596640055199515
 10
521.4784783838199473
 20
-12.2114822586600198
 10
520.8379379962000257
 20
-11.1185842406699678
 10
520.0
 20
-11.0999999999999588
 10
519.1620620037999743
 20
-11.1185842406699251
 10
518.5215216161800527
 20
-12.211482258659963
 10
518.0776963621900677
 20
-13.2596640055199408
 10
517.8344271802900494
 20
-14.1998518657199622
 10
517.7846570191900355
 20
-14.9023193920499875
 10
517.9238317856500089
 20
-15.7446223759199686
 10
517.8621103442800404
 20
-16.4355658724099811
 10
517.6367049990400346
 20
-16.973241491009972
 10
517.2776593354600436
 20
-17.3585865820800009
 10
516.8209582375000082
 20
-17.575253763149945
 10
516.6806457415300429
 20
-17.6120012639999359
 10
516.5407578076000163
 20
-17.6503332420299657
 10
516.0369094643500603
 20
-17.6910445081199725
 10
515.5332942528700642
 20
-17.536848701789971
 10
515.0692496884299771
 20
-17.1839106299099313
 10
514.6703256042700332
 20
-16.6163967297300061
 10
514.3697029956400684
 20
-15.8173535648999444
 10
513.9753670082500321
 20
-15.2338839221099693
 10
513.2945957871399969
 20
-14.5412919419699964
 10
512.3861409686199977
 20
-13.8554525484299305
 10
511.2849677119900207
 20
-13.2292452949499264
 10
510.5500000000000682
 20
-13.6321198684499478
 10
509.8336165289500741
 20
-14.0671832911499486
 10
509.8253412900400008
 20
-15.3339309322499986
 10
509.9650682186500035
 20
-16.4635955800499474
 10
510.2244848571999682
 20
-17.3994567418199537
 10
510.5326163964100488
 20
-18.0326965457099817
 10
511.0742967716500971
 20
-18.6925649440799582
 10
511.366316183980075
 20
-19.3218002853599629
 10
511.4399472381400074
 20
-19.9001437027499577
 10
511.3216771177300188
 20
-20.4133851726599644
 10
511.0344959555500282
 20
-20.829375004529993
 10
510.9313555200400288
 20
-20.9313555216599667
 10
510.829375004529993
 20
-21.0344959555499571
 10
510.4133851726600142
 20
-21.3216771177299549
 10
509.9001437027500288
 20
-21.4399472381399647
 10
509.3218002853599273
 20
-21.3663161839799791
 10
508.6925649440800044
 20
-21.0742967716499763
 10
508.0326965457099959
 20
-20.5326163964099493
 10
507.3994567418200177
 20
-20.2244848571999576
 10
506.4635955800499687
 20
-19.9650682186499573
 10
505.3339309322500412
 20
-19.8253412900399439
 10
504.0671832911500587
 20
-19.8336165289499746
 10
503.6321198684499905
 20
-20.5499999999999545
 10
503.229245294950033
 20
-21.2849677119899781
 10
503.8554525484299802
 20
-22.3861409686199977
 10
504.5412919419700302
 20
-23.2945957871399543
 10
505.2338839221099533
 20
-23.9753670082499752
 10
505.8173535649000314
 20
-24.3697029956399653
 10
506.6163967297300132
 20
-24.670325604269955
 10
507.183910629909974
 20
-25.0692496884299416
 10
507.5368487017900634
 20
-25.533294252869986
 10
507.6910445081200578
 20
-26.0369094643499537
 10
507.6503332420300012
 20
-26.5407578075999986
 10
507.6120012634600016
 20
-26.6806457439599534
 10
507.5752537631500445
 20
-26.8209582374999691
 10
507.3585865820799654
 20
-27.2776593354599015
 10
506.9732414910099578
 20
-27.6367049990398961
 10
506.4355658724100522
 20
-27.8621103442800191
 10
505.7446223759200166
 20
-27.9238317856499059
 10
504.9023193920500034
 20
-27.7846570191899112
 10
504.1998518657200066
 20
-27.8344271802900032
 10
503.2596640055199941
 20
-28.0776963621898865
 10
502.2114822586599985
 20
-28.5215216161798928
 10
501.1185842406699749
 20
-29.1620620037999707
 10
501.1000000000000227
 20
-29.9999999999999964
 10
501.1185842406699749
 20
-30.8379379961999334
 10
502.2114822586599985
 20
-31.4784783838199544
 10
503.2596640055199941
 20
-31.9223036378099749
 10
504.1998518657200066
 20
-32.1655728197099222
 10
504.9023193920500034
 20
-32.2153429808099645
 10
505.7446223759200166
 20
-32.0761682143499556
 10
506.4355658724100522
 20
-32.1378896557199667
 10
506.9732414910099578
 20
-32.3632950009599725
 10
507.3585865820799654
 20
-32.7223406645399564
 10
507.5752537631500445
 20
-33.1790417624999563
 10
507.6120012640000141
 20
-33.31935425846995
 10
507.6503332420300012
 20
-33.4592421923999552
 10
507.6910445081199441
 20
-33.9630905356499895
 10
507.5368487017899497
 20
-34.4667057471299714
 10
507.183910629909974
 20
-34.9307503115699802
 10
506.6163967297300132
 20
-35.3296743957299739
 10
505.8173535648999177
 20
-35.6302970043599672
 10
505.2338839221099533
 20
-36.0246329917499821
 10
504.5412919419700302
 20
-36.705404212859996
 10
503.8554525484299802
 20
-37.6138590313799668
 10
503.229245294950033
 20
-38.7150322880099864
 10
503.6321198684499905
 20
-39.4499999999999602
 10
504.0671832911500587
 20
-40.1663834710499756
 10
505.3339309322500412
 20
-40.1746587099599779
 10
506.4635955800499687
 20
-40.0349317813499681
 10
507.3994567418200177
 20
-39.7755151427999465
 10
508.0326965457099959
 20
-39.4673836035900436
 10
508.6925649440800044
 20
-38.9257032283499953
 10
509.321800285360041
 20
-38.6336838160199605
 10
509.9001437027500288
 20
-38.5600527618599429
 10
510.4133851726600142
 20
-38.6783228822699741
 10
510.829375004529993
 20
-38.9655040444499932
 10
510.9313555216599525
 20
-39.0686444799599997
 10
511.0344959555500282
 20
-39.1706249954699572
 10
511.3216771177300188
 20
-39.5866148273399645
 10
511.4399472381400074
 20
-40.099856297249957
 10
511.3663161839799614
 20
-40.6781997146399803
 10
511.0742967716500971
 20
-41.3074350559199956
 10
510.5326163964099351
 20
-41.9673034542899615
 10
510.2244848571999682
 20
-42.6005432581800036
 10
509.9650682186500035
 20
-43.5364044199500171
 10
509.8253412900400008
 20
-44.6660690677499943
 10
509.8336165289499604
 20
-45.932816708849991
 10
510.5500000000000682
 20
-46.3678801315499669
 10
511.2849677119900207
 20
-46.770754705049967
 10
512.3861409686199977
 20
-46.1445474515699487
 10
513.2945957871399969
 20
-45.4587080580299983
 10
513.9753670082499184
 20
-44.7661160778899827
 10
514.3697029956399547
 20
-44.1826464350999828
 10
514.6703256042699195
 20
-43.3836032702699939
 10
515.0692496884299771
 20
-42.8160893700899905
 10
515.5332942528699505
 20
-42.4631512982100432
 10
516.0369094643499466
 20
-42.3089554918799493
 10
516.5407578076000163
 20
-42.3496667579699491
 10
516.6806457439599853
 20
-42.3879987365399629
 10
516.8209582375000082
 20
-42.4247462368499626
 10
517.2776593354599299
 20
-42.6414134179200133
 10
517.6367049990399209
 20
-43.0267585089900066
 10
517.8621103442799267
 20
-43.5644341275900118
 10
517.9238317856500089
 20
-44.2553776240799763
 10
517.7846570191900355
 20
-45.097680607949961
 10
517.8344271802899357
 20
-45.8001481342799437
 10
518.0776963621900677
 20
-46.7403359944799561
 10
518.5215216161800527
 20
-47.788517741339966
 10
519.1620620037999743
 20
-48.8814157593299754
 10
520.0
 20
-48.9000000000000412
 10
520.8379379962000257
 20
-48.8814157593300322
 10
521.4784783838199473
 20
-47.7885177413399873
 10
521.922303637810046
 20
-46.7403359944800414
 10
522.1655728197100643
 20
-45.8001481342799721
 10
522.2153429808100782
 20
-45.0976806079499752
 10
522.0761682143499911
 20
-44.2553776240800332
 10
522.1378896557200733
 20
-43.5644341275899833
 10
522.3632950009599654
 20
-43.0267585089900209
 10
522.7223406645399564
 20
-42.6414134179200417
 10
523.1790417625001055
 20
-42.4247462368500337
 10
523.3193542584699571
 20
-42.387998735999993
 10
523.4592421923999837
 20
-42.3496667579700201
 10
523.9630905356500534
 20
-42.3089554918800346
 10
524.4667057471299358
 20
-42.4631512982100858
 10
524.9307503115700229
 20
-42.8160893700899905
 10
525.3296743957300805
 20
-43.3836032702699654
 10
525.6302970043599316
 20
-44.1826464351000254
 10
526.0246329917499679
 20
-44.7661160778899969
 10
526.7054042128600031
 20
-45.4587080580300196
 10
527.6138590313800023
 20
-46.1445474515699843
 10
528.7150322880099793
 20
-46.7707547050499812
 10
529.4499999999999318
 20
-46.3678801315500664
 10
530.1663834710500396
 20
-45.9328167088500052
 10
530.1746587099599992
 20
-44.6660690677500867
 10
530.0349317813499965
 20
-43.5364044199500668
 10
529.7755151428000318
 20
-42.6005432581800179
 10
529.4673836035899512
 20
-41.9673034542899899
 10
528.9257032283500166
 20
-41.3074350559200454
 10
528.633683816019925
 20
-40.6781997146400158
 10
528.5600527618599926
 20
-40.0998562972500068
 10
528.6783228822699812
 20
-39.5866148273400285
 10
528.9655040444499718
 20
-39.1706249954700212
 10
529.0686444799599712
 20
-39.0686444783399551
 10
529.170624995470007
 20
-38.9655040444499932
 10
529.5866148273399858
 20
-38.6783228822700096
 10
530.0998562972499712
 20
-38.5600527618600495
 10
530.678199714639959
 20
-38.6336838160200458
 10
531.3074350559199956
 20
-38.9257032283500166
 10
531.9673034542900041
 20
-39.4673836035900507
 10
532.6005432581799823
 20
-39.7755151428000104
 10
533.5364044199500313
 20
-40.0349317813500107
 10
534.6660690677499588
 20
-40.1746587099599779
 10
535.932816708850055
 20
-40.1663834710500183
 10
536.3678801315500095
 20
-39.4499999999999602
 10
536.770754705049967
 20
-38.715032288010093
 10
536.1445474515700198
 20
-37.6138590313800734
 10
535.4587080580299698
 20
-36.7054042128600457
 10
534.766116077889933
 20
-36.0246329917500745
 10
534.1826464350999686
 20
-35.6302970043600666
 10
533.3836032702699868
 20
-35.3296743957300521
 10
532.816089370090026
 20
-34.9307503115699376
 10
532.4631512982100503
 20
-34.4667057471299998
 10
532.3089554918799422
 20
-33.9630905356500605
 10
532.3496667579699988
 20
-33.459242192400005
 10
532.3879987365399984
 20
-33.3193542560400715
 10
532.4247462368500692
 20
-33.1790417625000558
 10
532.6414134179200346
 20
-32.7223406645400559
 10
533.0267585089900422
 20
-32.3632950009598588
 10
533.5644341275899478
 20
-32.1378896557196825
 10
534.2553776240799834
 20
-32.0761682143498561
 10
535.0976806079499966
 20
-32.2153429808100782
 10
535.8001481342799934
 20
-32.1655728197101638
 10
536.7403359944800059
 20
-31.9223036378100176
 10
537.7885177413400015
 20
-31.4784783838199189
 10
538.8814157593300251
 20
-30.8379379962000719
 10
538.8999999999999773
 20
-30.0
 10
538.8814157593300251
 20
-29.1620620037994023
 10
537.7885177413400015
 20
-28.5215216161800882
 10
536.7403359944800059
 20
-28.0776963621899576
 10
535.8001481342799934
 20
-27.8344271802898255
 10
535.0976806079499966
 20
-27.7846570191899147
 10
534.2553776240799834
 20
-27.9238317856501226
 10
533.5644341275899478
 20
-27.8621103442798628
 10
533.0267585089900422
 20
-27.6367049990397575
 10
532.6414134179200346
 20
-27.2776593354599086
 10
532.4247462368500692
 20
-26.8209582374999123
 10
532.3879987359999859
 20
-26.6806457415298937
 10
532.3496667579699988
 20
-26.5407578075999808
 10
532.3089554918800559
 20
-26.0369094643499608
 10
532.4631512982100503
 20
-25.5332942528699718
 10
532.816089370090026
 20
-25.0692496884300091
 10
533.3836032702699868
 20
-24.6703256042699692
 10
534.1826464350999686
 20
-24.3697029956399049
 10
534.766116077889933
 20
-23.9753670082498367
 10
535.4587080580299698
 20
-23.2945957871399365
 10
536.1445474515700198
 20
-22.3861409686199266
 10
536.770754705049967
 20
-21.2849677119900633
 10
536.3678801315500095
 20
-20.5499999999999901
 10
535.932816708850055
 20
-19.8336165289499249
 10
534.6660690677500725
 20
-19.825341290039951
 10
533.5364044199500313
 20
-19.9650682186499679
 10
532.6005432581799823
 20
-20.2244848571999398
 10
531.9673034542900041
 20
-20.5326163964099422
 10
531.3074350559199956
 20
-21.0742967716499905
 10
530.678199714639959
 20
-21.3663161839800111
 10
530.0998562972500849
 20
-21.4399472381400074
 10
529.5866148273399858
 20
-21.3216771177299549
 10
529.170624995470007
 20
-21.0344959555499926
 10
529.0686444783400475
 20
-20.9313555200399719
 10
528.9655040444499718
 20
-20.8293750045300143
 10
528.6783228822699812
 20
-20.4133851726599787
 10
528.5600527618599926
 20
-19.9001437027499932
 10
528.6336838160200386
 20
-19.3218002853599629
 10
528.9257032283500166
 20
-18.6925649440799617
 10
529.4673836035899512
 20
-18.0326965457099675
 10
529.7755151428000318
 20
-17.3994567418199573
 10
530.0349317813499965
 20
-16.4635955800499403
 10
530.1746587099599992
 20
-15.3339309322499702
 10
530.1663834710500396
 20
-14.0671832911499806
 10
529.4500000000000455
 20
-13.6321198684499976
 10
528.7150322880099793
 20
-13.2292452949499619
 10
527.6138590313800023
 20
-13.8554525484300015
 10
526.7054042128600031
 20
-14.5412919419699893
 10
526.0246329917499679
 20
-15.2338839221099391
 10
525.6302970043600453
 20
-15.8173535648999746
 10
525.3296743957300805
 20
-16.6163967297299848
 10
524.9307503115700229
 20
-17.1839106299099385
 10
524.4667057471300495
 20
-17.5368487017899355
 10
523.9630905356500534
 20
-17.6910445081199512
 10
523.4592421923999837
 20
-17.6503332420299941
 10
523.3193542560400147
 20
-17.6120012634599732
  0
LINE
  5
9E
100
AcDbEntity
100
AcDbLine
  8
0
 62
256
370
-1
  6
ByLayer
 10
519.9000000000000909
 20
-22.6387845600884248
 30
0.0
 11
513.5250000000000909
 21
-26.3193917908576083
 31
0.0
  0
LINE
  5
9F
100
AcDbEntity
100
AcDbLine
  8
0
 62
256
370
-1
  6
ByLayer
 10
513.5250000000000909
 20
-26.3193917908576083
 30
0.0
 11
513.5250000000000909
 21
-33.6806082091423349
 31
0.0
  0
LINE
  5
A0
100
AcDbEntity
100
AcDbLine
  8
0
 62
256
370
-1
  6
ByLayer
 10
513.5250000000000909
 20
-33.6806082091423349
 30
0.0
 11
519.9000000000000909
 21
-37.3612154399115539
 31
0.0
  0
LINE
  5
A1
100
AcDbEntity
100
AcDbLine
  8
0
 62
256
370
-1
  6
ByLayer
 10
526.2750000000000909
 20
-33.680608209142342
 30
0.0
 11
519.9000000000000909
 21
-37.3612154399115539
 31
0.0
  0
LINE
  5
A2
100
AcDbEntity
100
AcDbLine
  8
0
 62
256
370
-1
  6
ByLayer
 10
519.9000000000000909
 20
-22.6387845600884248
 30
0.0
 11
526.2750000000000909
 21
-26.3193917908576438
 31
0.0
  0
LINE
  5
A3
100
AcDbEntity
100
AcDbLine
  8
0
 62
256
370
-1
  6
ByLayer
 10
526.2750000000000909
 20
-26.3193917908576438
 30
0.0
 11
526.2750000000000909
 21
-33.680608209142342
 31
0.0
  0
LWPOLYLINE
  5
A4
  8
0
 62
7
420
16777215
370
-1
  6
ByLayer
100
AcDbEntity
100
AcDbPolyline
 90
480
 70
1
 10
603.6257367581999915
 20
-11.20234976347
 10
603.1712296837500844
 20
-11.0464333078900374
 10
602.8008464112899674
 20
-10.7120880505299851
 10
602.5513572118500178
 20
-10.207979287689966
 10
602.445662217239942
 20
-9.4881170054200403
 10
602.3446496582100735
 20
-8.6087295839200522
 10
602.0652637956300168
 20
-7.4903497527100455
 10
601.6049057447698942
 20
-6.2402926438300099
 10
600.9658711544400376
 20
-4.9132917614200551
 10
600.0
 20
-4.9000000000000341
 10
599.0341288455599624
 20
-4.9132917614199982
 10
598.3950942552299921
 20
-6.2402926438300028
 10
597.9347362043699832
 20
-7.4903497527100171
 10
597.6553503417899265
 20
-8.6087295839199953
 10
597.554337782760058
 20
-9.4881170054200084
 10
597.4486427881499822
 20
-10.2079792876899944
 10
597.1991535887100326
 20
-10.7120880505299851
 10
596.8287703162500293
 20
-11.0464333078899983
 10
596.3742632418000085
 20
-11.20234976347
 10
596.2114772553300099
 20
-11.2233128788299723
 10
596.0488124386499749
 20
-11.2451961747099745
 10
595.5694381689900183
 20
-11.2122275304100185
 10
595.1251404803400646
 20
-10.9851370563099806
 10
594.7536794707500576
 20
-10.5627779392900152
 10
594.4652718770399815
 20
-9.894800247249993
 10
594.1400990248499738
 20
-9.0715211993199603
 10
593.5807750047000582
 20
-8.0635596187899488
 10
592.8125646869700631
 20
-6.975246604449957
 10
591.8518515706800827
 20
-5.8588565028699691
 10
590.9154515169900606
 20
-6.096003497139975
 10
589.9859317850100524
 20
-6.35882820258999
 10
589.7121248714099693
 20
-7.8060069489999648
 10
589.5909917279699357
 20
-9.1326188259400283
 10
589.6105837079999219
 20
-10.2852011706700637
 10
589.7406152811300899
 20
-11.1607681664199561
 10
589.8248358243899929
 20
-11.8834576138300463
 10
589.7143207120200259
 20
-12.4349618434900151
 10
589.4430928638000751
 20
-12.8537768073999814
 10
589.0444268907300511
 20
-13.1220156257500093
 10
588.8926133554199396
 20
-13.1843965537300392
 10
588.7411550215800844
 20
-13.2476349469000034
 10
588.2695821213899308
 20
-13.3398608724399956
 10
587.7816481694400181
 20
-13.2355010221600082
 10
587.3135298034198968
 20
-12.9236746269100422
 10
586.8620641118400272
 20
-12.3531031006600074
 10
586.3348909589099094
 20
-11.6420375334099617
 10
585.5337457889999087
 20
-10.8131851198300559
 10
584.5100354675699919
 20
-9.960782932839976
 10
583.2931148371500285
 20
-9.1310837528200111
 10
582.4500000000000455
 20
-9.6025083271600096
 10
581.6201769240000203
 20
-10.0969549072599492
 10
581.730257176260011
 20
-11.5656886776100123
 10
581.9566039637099948
 20
-12.8784489154600124
 10
582.2738386250099438
 20
-13.9866871916199784
 10
582.6260528935800949
 20
-14.7987653178999921
 10
582.8944494840000061
 20
-15.4750318390299881
 10
582.9304398808200176
 20
-16.0363474337199818
 10
582.7768511864999255
 20
-16.5110905561899663
 10
582.4611947418900399
 20
-16.8733717048299674
 10
582.3306994996499952
 20
-16.9729192886799609
 10
582.2007692839799802
 20
-17.0732031870999919
 10
581.7691346666100571
 20
-17.2843386384099347
 10
581.2708163442899831
 20
-17.3098213631500073
 10
580.7379421149000791
 20
-17.1297781430800171
 10
580.1541849661199421
 20
-16.6954962893800172
 10
579.4609374915900162
 20
-16.1451021458199726
 10
578.4725678908200734
 20
-15.5518438212399701
 10
577.2631217330400659
 20
-14.9934422622999577
 10
575.8729247178600872
 20
-14.5069766319099998
 10
575.1805519804200912
 20
-15.1805519804200379
 10
574.5069766319099926
 20
-15.8729247178599877
 10
574.9934422622999364
 20
-17.2631217330400055
 10
575.551843821240027
 20
-18.4725678908199633
 10
576.1451021458199193
 20
-19.460937491590002
 10
576.695496289380003
 20
-20.1541849661199812
 10
577.1297781430799887
 20
-20.7379421149000045
 10
577.309821363149922
 20
-21.2708163442899441
 10
577.2843386384099631
 20
-21.7691346666099861
 10
577.0732031871000345
 20
-22.2007692839799802
 10
576.9729192730200111
 20
-22.3306995201699579
 10
576.8733717048299923
 20
-22.4611947418899831
 10
576.5110905561900836
 20
-22.776851186499961
 10
576.0363474337200387
 20
-22.9304398808199927
 10
575.4750318390299526
 20
-22.8944494840000061
 10
574.7987653179000063
 20
-22.626052893580006
 10
573.9866871916200353
 20
-22.2738386250099758
 10
572.8784489154598987
 20
-21.9566039637099664
 10
571.5656886776099554
 20
-21.7302571762600323
 10
570.096954907259942
 20
-21.6201769239999493
 10
569.6025083271600806
 20
-22.4499999999999744
 10
569.1310837528199045
 20
-23.2931148371500605
 10
569.9607829328399475
 20
-24.5100354675699919
 10
570.8131851198299955
 20
-25.5337457889999655
 10
571.6420375334099617
 20
-26.334890958909952
 10
572.3531031006600642
 20
-26.8620641118399881
 10
572.9236746269100422
 20
-27.3135298034200034
 10
573.2355010221599514
 20
-27.781648169440011
 10
573.3398608724398855
 20
-28.2695821213900231
 10
573.247634946900007
 20
-28.7411550215800276
 10
573.1843965440100419
 20
-28.8926133791799771
 10
573.1220156257500093
 20
-29.0444268907300085
 10
572.8537768073999814
 20
-29.4430928637999934
 10
572.434961843489873
 20
-29.7143207120199477
 10
571.8834576138300463
 20
-29.8248358243899609
 10
571.1607681664199845
 20
-29.740615281129962
 10
570.2852011706700068
 20
-29.6105837079999681
 10
569.1326188259399714
 20
-29.5909917279699641
 10
567.8060069489999933
 20
-29.7121248714099409
 10
566.3588282025900753
 20
-29.9859317850099778
 10
566.0960034971399182
 20
-30.9154515169900392
 10
565.8588565028699122
 20
-31.8518515706799832
 10
566.9752466044499215
 20
-32.8125646869699708
 10
568.0635596187898955
 20
-33.5807750046999587
 10
569.0715211993199318
 20
-34.1400990248499951
 10
569.894800247250032
 20
-34.465271877039946
 10
570.562777939290072
 20
-34.753679470750015
 10
570.9851370563098953
 20
-35.1251404803400149
 10
571.2122275304100185
 20
-35.5694381689900752
 10
571.2451961747099176
 20
-36.0488124386499962
 10
571.2233128755899543
 20
-36.2114772807100067
 10
571.2023497634700107
 20
-36.3742632417999658
 10
571.0464333078900836
 20
-36.8287703162499582
 10
570.7120880505299283
 20
-37.1991535887100397
 10
570.2079792876900228
 20
-37.4486427881499964
 10
569.4881170054200084
 20
-37.5543377827600438
 10
568.6087295839199669
 20
-37.6553503417900259
 10
567.4903497527100171
 20
-37.9347362043697842
 10
566.2402926438298891
 20
-38.3950942552298642
 10
564.9132917614199414
 20
-39.0341288455598203
 10
564.9000000000000909
 20
-39.9999999999999929
 10
564.9132917614199414
 20
-40.9658711544401655
 10
566.2402926438298891
 20
-41.6049057447701287
 10
567.4903497527100171
 20
-42.0652637956302087
 10
568.6087295839199669
 20
-42.344649658209832
 10
569.4881170054200084
 20
-42.4456622172399065
 10
570.2079792876900228
 20
-42.551357211849961
 10
570.7120880505299283
 20
-42.8008464112900953
 10
571.0464333078900836
 20
-43.1712296837499707
 10
571.2023497634700107
 20
-43.6257367582000057
 10
571.2233128788300291
 20
-43.788522744670118
 10
571.2451961747099176
 20
-43.9511875613499541
 10
571.2122275304100185
 20
-44.4305618310100101
 10
570.9851370563098953
 20
-44.874859519659978
 10
570.562777939290072
 20
-45.2463205292499779
 10
569.894800247250032
 20
-45.5347281229600043
 10
569.0715211993199318
 20
-45.8599009751499977
 10
568.0635596187898955
 20
-46.4192249952999916
 10
566.9752466044499215
 20
-47.1874353130300221
 10
565.8588565028699122
 20
-48.1481484293199742
 10
566.0960034971399182
 20
-49.0845484830099394
 10
566.3588282025899616
 20
-50.0140682149899476
 10
567.8060069489999933
 20
-50.2878751285900165
 10
569.1326188259399714
 20
-50.4090082720299861
 10
570.2852011706700068
 20
-50.3894162919999786
 10
571.1607681664199845
 20
-50.2593847188700025
 10
571.8834576138299326
 20
-50.1751641756100071
 10
572.434961843489873
 20
-50.2856792879799741
 10
572.8537768073999814
 20
-50.556907136199996
 10
573.1220156257498957
 20
-50.9555731092699773
 10
573.1843965537299255
 20
-51.1073866445800178
 10
573.247634946900007
 20
-51.258844978420008
 10
573.3398608724398855
 20
-51.730417878609984
 10
573.2355010221599514
 20
-52.2183518305599677
 10
572.9236746269100422
 20
-52.6864701965800037
 10
572.3531031006600642
 20
-53.1379358881600083
 10
571.6420375334099617
 20
-53.6651090410899911
 10
570.8131851198298818
 20
-54.4662542109999919
 10
569.9607829328399475
 20
-55.4899645324299371
 10
569.1310837528199045
 20
-56.7068851628499715
 10
569.6025083271599669
 20
-57.5499999999999687
 10
570.096954907259942
 20
-58.3798230759999939
 10
571.5656886776100691
 20
-58.2697428237400032
 10
572.8784489154598987
 20
-58.043396036289991
 10
573.9866871916199216
 20
-57.726161374989978
 10
574.7987653179000063
 20
-57.3739471064200188
 10
575.4750318390299526
 20
-57.1055505159999512
 10
576.0363474337200387
 20
-57.0695601191800037
 10
576.5110905561899699
 20
-57.2231488134999893
 10
576.8733717048298786
 20
-57.5388052581099743
 10
576.9729192886799183
 20
-57.6693005003499763
 10
577.0732031870999208
 20
-57.7992307160199914
 10
577.2843386384099631
 20
-58.2308653333899713
 10
577.309821363149922
 20
-58.7291836557099813
 10
577.129778143079875
 20
-59.2620578851000062
 10
576.6954962893798893
 20
-59.8458150338800223
 10
576.1451021458199193
 20
-60.5390625084099838
 10
575.5518438212399133
 20
-61.5274321091799692
 10
574.9934422623000501
 20
-62.7368782669599909
 10
574.506976631909879
 20
-64.1270752821399839
 10
575.1805519804199776
 20
-64.8194480195799798
 10
575.8729247178599735
 20
-65.4930233680900074
 10
577.2631217330400659
 20
-65.0065577377000068
 10
578.4725678908199598
 20
-64.4481561787599873
 10
579.4609374915899025
 20
-63.854897854179967
 10
580.1541849661199421
 20
-63.3045037106199686
 10
580.7379421148998517
 20
-62.8702218569199545
 10
581.2708163442898694
 20
-62.6901786368499998
 10
581.7691346666099435
 20
-62.7156613615899658
 10
582.2007692839799802
 20
-62.9267968128999797
 10
582.330699520169901
 20
-63.0270807269799462
 10
582.4611947418899263
 20
-63.1266282951699935
 10
582.7768511864999255
 20
-63.4889094438099875
 10
582.9304398808199039
 20
-63.9636525662800111
 10
582.8944494840000061
 20
-64.5249681609700048
 10
582.6260528935798675
 20
-65.2012346820999511
 10
582.2738386250099438
 20
-66.0133128083799932
 10
581.9566039637099948
 20
-67.1215510845400161
 10
581.730257176260011
 20
-68.4343113223900303
 10
581.6201769239999066
 20
-69.9030450927399869
 10
582.4499999999999318
 20
-70.3974916728399478
 10
583.2931148371499148
 20
-70.8689162471800103
 10
584.5100354675699919
 20
-70.0392170671600098
 10
585.5337457890000223
 20
-69.1868148801699618
 10
586.3348909589099094
 20
-68.3579624665900099
 10
586.8620641118400272
 20
-67.6468968993399642
 10
587.3135298034198968
 20
-67.0763253730900288
 10
587.7816481694399044
 20
-66.7644989778399776
 10
588.2695821213899308
 20
-66.6601391275599866
 10
588.7411550215800844
 20
-66.752365053099993
 10
588.8926133791799202
 20
-66.8156034559900149
 10
589.0444268907299374
 20
-66.8779843742500191
 10
589.4430928637999614
 20
-67.1462231926000044
 10
589.7143207120200259
 20
-67.5650381565099849
 10
589.8248358243899929
 20
-68.1165423861700106
 10
589.7406152811299762
 20
-68.8392318335800155
 10
589.6105837080000356
 20
-69.714798829329979
 10
589.5909917279699357
 20
-70.8673811740599717
 10
589.7121248714099693
 20
-72.1939930510000352
 10
589.9859317850100524
 20
-73.64117179741001
 10
590.9154515169899469
 20
-73.9039965028599966
 10
591.851851570679969
 20
-74.1411434971300167
 10
592.8125646869699494
 20
-73.0247533955499932
 10
593.5807750046999445
 20
-71.9364403812100193
 10
594.1400990248499738
 20
-70.9284788006800113
 10
594.4652718770399815
 20
-70.1051997527499964
 10
594.7536794707499439
 20
-69.437222060709999
 10
595.125140480339951
 20
-69.0148629436900194
 10
595.5694381689900183
 20
-68.7877724695899815
 10
596.0488124386499749
 20
-68.7548038252899687
 10
596.2114772807099143
 20
-68.7766871244100031
 10
596.3742632417998948
 20
-68.7976502365299893
 10
596.8287703162500293
 20
-68.9535666921099875
 10
597.1991535887099189
 20
-69.2879119494699864
 10
597.4486427881499822
 20
-69.7920207123100056
 10
597.5543377827599443
 20
-70.5118829945799916
 10
597.6553503417899265
 20
-71.3912704160800047
 10
597.9347362043698695
 20
-72.5096502472899687
 10
598.3950942552298784
 20
-73.7597073561700256
 10
599.0341288455599624
 20
-75.0867082385800018
 10
600.0
 20
-75.0999999999999659
 10
600.9658711544399239
 20
-75.0867082385799733
 10
601.6049057447700079
 20
-73.7597073561700256
 10
602.0652637956299031
 20
-72.5096502472900113
 10
602.3446496582099599
 20
-71.3912704160799905
 10
602.4456622172400557
 20
-70.5118829945799916
 10
602.5513572118499042
 20
-69.7920207123099772
 10
602.8008464112899674
 20
-69.2879119494700149
 10
603.1712296837499707
 20
-68.9535666921100017
 10
603.6257367581999915
 20
-68.797650236530032
 10
603.7885227446699901
 20
-68.7766871211700277
 10
603.9511875613499114
 20
-68.7548038252899971
 10
604.430561831009868
 20
-68.7877724695900099
 10
604.8748595196599354
 20
-69.0148629436900194
 10
605.2463205292499424
 20
-69.4372220607100132
 10
605.5347281229599048
 20
-70.1051997527500106
 10
605.8599009751500262
 20
-70.9284788006800113
 10
606.4192249952999418
 20
-71.9364403812100335
 10
607.1874353130299369
 20
-73.0247533955500501
 10
608.1481484293199173
 20
-74.1411434971300025
 10
609.0845484830099394
 20
-73.903996502860025
 10
610.0140682149899476
 20
-73.6411717974100242
 10
610.287875128589917
 20
-72.193993051000021
 10
610.4090082720300643
 20
-70.8673811740599717
 10
610.3894162919999644
 20
-69.7147988293300216
 10
610.2593847188700238
 20
-68.8392318335800155
 10
610.1751641756098934
 20
-68.1165423861700106
 10
610.2856792879799741
 20
-67.5650381565100133
 10
610.5569071362000386
 20
-67.1462231926000186
 10
610.9555731092699489
 20
-66.8779843742500191
 10
611.1073866445799467
 20
-66.8156034462700177
 10
611.2588449784199156
 20
-66.7523650531000072
 10
611.7304178786099556
 20
-66.6601391275600292
 10
612.2183518305599819
 20
-66.7644989778400202
 10
612.6864701965799895
 20
-67.0763253730900146
 10
613.1379358881600865
 20
-67.6468968993400352
 10
613.6651090410899769
 20
-68.3579624665900241
 10
614.4662542109999777
 20
-69.186814880169976
 10
615.4899645324298945
 20
-70.0392170671600525
 10
616.7068851628499715
 20
-70.8689162471800387
 10
617.5499999999999545
 20
-70.3974916728400046
 10
618.379823075999866
 20
-69.903045092740058
 10
618.269742823739989
 20
-68.4343113223900446
 10
618.0433960362898915
 20
-67.1215510845400161
 10
617.7261613749899425
 20
-66.0133128083800216
 10
617.3739471064199051
 20
-65.2012346821000222
 10
617.1055505159998802
 20
-64.5249681609700332
 10
617.0695601191799824
 20
-63.9636525662800111
 10
617.2231488134999609
 20
-63.4889094438100301
 10
617.5388052581099601
 20
-63.1266282951700219
 10
617.6693005003498911
 20
-63.0270807113200178
 10
617.7992307160200198
 20
-62.9267968129000295
 10
618.2308653333899429
 20
-62.715661361590044
 10
618.7291836557100169
 20
-62.6901786368500424
 10
619.2620578850999209
 20
-62.8702218569200681
 10
619.8458150338799442
 20
-63.3045037106200255
 10
620.5390625084099838
 20
-63.8548978541800167
 10
621.5274321091799266
 20
-64.4481561787600441
 10
622.7368782669599341
 20
-65.0065577377000636
 10
624.1270752821399128
 20
-65.49302336809005
 10
624.8194480195800224
 20
-64.8194480195800224
 10
625.4930233680898937
 20
-64.1270752821400407
 10
625.0065577376999499
 20
-62.7368782669600051
 10
624.448156178759973
 20
-61.5274321091800402
 10
623.854897854179967
 20
-60.5390625084100336
 10
623.3045037106198833
 20
-59.8458150338800152
 10
622.8702218569200113
 20
-59.2620578851000275
 10
622.6901786368499643
 20
-58.7291836557100311
 10
622.7156613615899232
 20
-58.2308653333900281
 10
622.9267968128999655
 20
-57.7992307160200127
 10
623.0270807269799889
 20
-57.6693004798300421
 10
623.126628295169894
 20
-57.5388052581100311
 10
623.4889094438099164
 20
-57.2231488135000319
 10
623.9636525662799613
 20
-57.0695601191800606
 10
624.5249681609699337
 20
-57.1055505160000507
 10
625.20123468209988
 20
-57.3739471064200188
 10
626.0133128083799647
 20
-57.726161374990042
 10
627.1215510845399876
 20
-58.0433960362900336
 10
628.4343113223899309
 20
-58.2697428237400317
 10
629.903045092740058
 20
-58.3798230760000223
 10
630.3974916728399194
 20
-57.5500000000000256
 10
630.8689162471799818
 20
-56.7068851628500283
 10
630.0392170671599388
 20
-55.4899645324300437
 10
629.1868148801698908
 20
-54.4662542110000487
 10
628.3579624665899246
 20
-53.6651090410900622
 10
627.6468968993399358
 20
-53.1379358881600155
 10
627.0763253730899578
 20
-52.6864701965800322
 10
626.7644989778399349
 20
-52.2183518305600245
 10
626.6601391275598871
 20
-51.7304178786100479
 10
626.752365053099993
 20
-51.2588449784200293
 10
626.8156034559899581
 20
-51.1073866208200371
 10
626.8779843742499907
 20
-50.9555731092700483
 10
627.1462231925999049
 20
-50.5569071362000315
 10
627.5650381565098996
 20
-50.2856792879800523
 10
628.1165423861699537
 20
-50.1751641756100426
 10
628.8392318335800155
 20
-50.2593847188700096
 10
629.7147988293299932
 20
-50.3894162919999928
 10
630.8673811740600286
 20
-50.4090082720300074
 10
632.1939930510000067
 20
-50.2878751285900805
 10
633.6411717974099247
 20
-50.0140682149900258
 10
633.9039965028600818
 20
-49.0845484830100602
 10
634.1411434971299741
 20
-48.1481484293200381
 10
633.0247533955499648
 20
-47.1874353130300221
 10
631.9364403812098772
 20
-46.4192249953000911
 10
630.9284788006799545
 20
-45.8599009751500333
 10
630.105199752749968
 20
-45.5347281229600469
 10
629.437222060709928
 20
-45.2463205292500703
 10
629.014862943689991
 20
-44.8748595196599922
 10
628.7877724695899815
 20
-44.430561831010003
 10
628.7548038252899687
 20
-43.9511875613499896
 10
628.7766871244100457
 20
-43.7885227192900501
 10
628.7976502365299893
 20
-43.6257367582000768
 10
628.9535666921099164
 20
-43.1712296837500418
 10
629.287911949469958
 20
-42.8008464112900313
 10
629.7920207123099772
 20
-42.5513572118499965
 10
630.5118829945799916
 20
-42.4456622172400131
 10
631.3912704160799194
 20
-42.3446496582100735
 10
632.5096502472899829
 20
-42.0652637956299884
 10
633.7597073561701109
 20
-41.6049057447699937
 10
635.0867082385800586
 20
-40.9658711544401939
 10
635.0999999999999091
 20
-40.0
 10
635.0867082385800586
 20
-39.0341288455598274
 10
633.7597073561701109
 20
-38.3950942552300276
 10
632.5096502472899829
 20
-37.9347362043700187
 10
631.3912704160800331
 20
-37.6553503417899833
 10
630.5118829945799916
 20
-37.5543377827600082
 10
629.7920207123099772
 20
-37.4486427881500035
 10
629.2879119494700717
 20
-37.1991535887100042
 10
628.9535666921099164
 20
-36.8287703162500293
 10
628.7976502365299893
 20
-36.3742632417999943
 10
628.7766871211699709
 20
-36.2114772553300313
 10
628.7548038252899687
 20
-36.0488124386500104
 10
628.7877724695899815
 20
-35.5694381689900325
 10
629.014862943689991
 20
-35.1251404803400007
 10
629.437222060709928
 20
-34.753679470750015
 10
630.105199752749968
 20
-34.4652718770400099
 10
630.9284788006800682
 20
-34.1400990248499951
 10
631.9364403812098772
 20
-33.5807750046999871
 10
633.0247533955500785
 20
-32.8125646869700063
 10
634.1411434971300878
 20
-31.8518515706799903
 10
633.9039965028600818
 20
-30.9154515169900321
 10
633.6411717974099247
 20
-29.9859317850099885
 10
632.1939930510000067
 20
-29.7121248714099799
 10
630.8673811740600286
 20
-29.5909917279700352
 10
629.7147988293299932
 20
-29.6105837080000107
 10
628.8392318335800155
 20
-29.7406152811299869
 10
628.1165423861700674
 20
-29.8248358243900284
 10
627.5650381565098996
 20
-29.7143207120200223
 10
627.1462231926000186
 20
-29.4430928638000182
 10
626.8779843742499907
 20
-29.0444268907300156
 10
626.8156034462699608
 20
-28.8926133554200284
 10
626.752365053099993
 20
-28.7411550215800311
 10
626.6601391275600008
 20
-28.269582121390016
 10
626.7644989778400486
 20
-27.7816481694399968
 10
627.0763253730899578
 20
-27.3135298034200069
 10
627.6468968993399358
 20
-26.8620641118400592
 10
628.3579624665899246
 20
-26.3348909589099911
 10
629.1868148801700045
 20
-25.5337457889999939
 10
630.0392170671600525
 20
-24.5100354675699954
 10
630.8689162471799818
 20
-23.2931148371500534
 10
630.3974916728400331
 20
-22.4499999999999851
 10
629.903045092740058
 20
-21.6201769240000132
 10
628.4343113223899309
 20
-21.7302571762600039
 10
627.1215510845399876
 20
-21.9566039637099983
 10
626.0133128083799647
 20
-22.2738386250100007
 10
625.2012346820999937
 20
-22.6260528935799847
 10
624.5249681609700474
 20
-22.8944494840000061
 10
623.9636525662799613
 20
-22.9304398808199927
 10
623.4889094438099164
 20
-22.7768511864999752
 10
623.126628295169894
 20
-22.4611947418899902
 10
623.027080711319968
 20
-22.3306994996499952
 10
622.9267968128999655
 20
-22.2007692839799837
 10
622.7156613615900369
 20
-21.7691346666099967
 10
622.6901786368499643
 20
-21.2708163442899831
 10
622.8702218569198976
 20
-20.7379421149000081
 10
623.304503710619997
 20
-20.1541849661200025
 10
623.854897854179967
 20
-19.4609374915900482
 10
624.448156178759973
 20
-18.4725678908199633
 10
625.0065577376999499
 20
-17.2631217330400126
 10
625.4930233680900074
 20
-15.8729247178599699
 10
624.8194480195799088
 20
-15.1805519804200415
 10
624.1270752821400265
 20
-14.5069766319100175
 10
622.7368782669599341
 20
-14.9934422622999932
 10
621.5274321091800402
 20
-15.5518438212399772
 10
620.5390625084099838
 20
-16.145102145820033
 10
619.8458150338799442
 20
-16.6954962893800065
 10
619.2620578851000346
 20
-17.1297781430799922
 10
618.7291836557100169
 20
-17.3098213631499789
 10
618.2308653333900565
 20
-17.2843386384099631
 10
617.7992307160200198
 20
-17.0732031870999776
 10
617.6693004798299853
 20
-16.9729192730200147
 10
617.5388052581099601
 20
-16.8733717048299994
 10
617.2231488134999609
 20
-16.5110905561900303
 10
617.0695601191799824
 20
-16.0363474337199854
 10
617.1055505159999939
 20
-15.4750318390300095
 10
617.3739471064200188
 20
-14.7987653178999814
 10
617.7261613749900562
 20
-13.9866871916200388
 10
618.0433960362900052
 20
-12.8784489154600159
 10
618.269742823739989
 20
-11.5656886776100158
 10
618.3798230759999797
 20
-10.0969549072600024
 10
617.5499999999999545
 20
-9.6025083271600238
 10
616.7068851628499715
 20
-9.1310837528200146
 10
615.4899645324300081
 20
-9.960782932840015
 10
614.4662542109999777
 20
-10.8131851198300026
 10
613.6651090410900906
 20
-11.6420375334099617
 10
613.1379358881600865
 20
-12.3531031006600074
 10
612.6864701965799895
 20
-12.9236746269099854
 10
612.2183518305599819
 20
-13.2355010221600082
 10
611.7304178786100692
 20
-13.3398608724400276
 10
611.2588449784200293
 20
-13.2476349469000105
 10
611.1073866208199661
 20
-13.184396544010017
 10
610.9555731092699489
 20
-13.1220156257500093
 10
610.5569071362000386
 20
-12.8537768073999814
 10
610.2856792879799741
 20
-12.4349618434899867
 10
610.1751641756100071
 20
-11.883457613829993
 10
610.2593847188700238
 20
-11.1607681664199845
 10
610.3894162919999644
 20
-10.2852011706700175
 10
610.4090082720299506
 20
-9.1326188259400283
 10
610.2878751285900307
 20
-7.8060069490000004
 10
610.0140682149899476
 20
-6.3588282025900398
 10
609.0845484830100531
 20
-6.096003497139975
 10
608.1481484293199173
 20
-5.8588565028700259
 10
607.1874353130300506
 20
-6.9752466044500068
 10
606.4192249953000555
 20
-8.0635596187899488
 10
605.8599009751500262
 20
-9.0715211993199887
 10
605.5347281229600185
 20
-9.8948002472499752
 10
605.2463205292500561
 20
-10.5627779392900045
 10
604.874859519660049
 20
-10.985137056310009
 10
604.4305618310099817
 20
-11.2122275304100185
 10
603.9511875613500251
 20
-11.2451961747099745
 10
603.788522719289972
 20
-11.2233128755900218
  0
LINE
  5
A5
100
AcDbEntity
100
AcDbLine
  8
0
 62
256
370
-1
  6
ByLayer
 10
600.0
 20
-32.638784560088439
 30
0.0
 11
593.625
 21
-36.3193917908576509
 31
0.0
  0
LINE
  5
A6
100
AcDbEntity
100
AcDbLine
  8
0
 62
256
370
-1
  6
ByLayer
 10
593.625
 20
-36.3193917908576509
 30
0.0
 11
593.625
 21
-43.6806082091423207
 31
0.0
  0
LINE
  5
A7
100
AcDbEntity
100
AcDbLine
  8
0
 62
256
370
-1
  6
ByLayer
 10
593.625
 20
-43.6806082091423207
 30
0.0
 11
600.0
 21
-47.361215439911561
 31
0.0
  0
LINE
  5
A8
100
AcDbEntity
100
AcDbLine
  8
0
 62
256
370
-1
  6
ByLayer
 10
606.375
 20
-43.6806082091423491
 30
0.0
 11
600.0
 21
-47.361215439911561
 31
0.0
  0
LINE
  5
A9
100
AcDbEntity
100
AcDbLine
  8
0
 62
256
370
-1
  6
ByLayer
 10
600.0
 20
-32.638784560088439
 30
0.0
 11
606.375
 21
-36.3193917908576651
 31
0.0
  0
LINE
  5
AA
100
AcDbEntity
100
AcDbLine
  8
0
 62
256
370
-1
  6
ByLayer
 10
606.375
 20
-36.3193917908576651
 30
0.0
 11
606.375
 21
-43.6806082091423491
 31
0.0
  0
LINE
  5
AB
100
AcDbEntity
100
AcDbLine
  8
0
 62
256
370
-1
  6
ByLayer
 10
615.1387845600884248
 20
-90.0
 30
0.0
 11
618.8193917908577077
 21
-96.3749999999999858
 31
0.0
  0
LINE
  5
AC
100
AcDbEntity
100
AcDbLine
  8
0
 62
256
370
-1
  6
ByLayer
 10
618.8193917908577077
 20
-96.3749999999999858
 30
0.0
 11
626.1806082091422923
 21
-96.3750000000000142
 31
0.0
  0
LINE
  5
AD
100
AcDbEntity
100
AcDbLine
  8
0
 62
256
370
-1
  6
ByLayer
 10
626.1806082091422923
 20
-96.3750000000000142
 30
0.0
 11
629.8612154399115752
 21
-90.0
 31
0.0
  0
LINE
  5
AE
100
AcDbEntity
100
AcDbLine
  8
0
 62
256
370
-1
  6
ByLayer
 10
626.1806082091424059
 20
-83.6250000000000142
 30
0.0
 11
629.8612154399115752
 21
-90.0
 31
0.0
  0
LINE
  5
AF
100
AcDbEntity
100
AcDbLine
  8
0
 62
256
370
-1
  6
ByLayer
 10
615.1387845600884248
 20
-90.0
 30
0.0
 11
618.8193917908577077
 21
-83.6249999999999858
 31
0.0
  0
LINE
  5
B0
100
AcDbEntity
100
AcDbLine
  8
0
 62
256
370
-1
  6
ByLayer
 10
618.8193917908577077
 20
-83.6249999999999858
 30
0.0
 11
626.1806082091424059
 21
-83.6250000000000142
 31
0.0
  0
LINE
  5
B1
100
AcDbEntity
100
AcDbLine
  8
0
 62
256
370
-1
  6
ByLayer
 10
672.5
 20
-119.9999999999999858
 30
0.0
 11
672.5
 21
-59.9999999999999787
 31
0.0
  0
LINE
  5
B2
100
AcDbEntity
100
AcDbLine
  8
0
 62
256
370
-1
  6
ByLayer
 10
652.5
 20
-120.0000000000000284
 30
0.0
 11
607.5
 21
-99.9999999999999574
 31
0.0
  0
LINE
  5
B3
100
AcDbEntity
100
AcDbLine
  8
0
 62
256
370
-1
  6
ByLayer
 10
607.5
 20
-99.9999999999999574
 30
0.0
 11
607.5
 21
-79.9999999999999716
 31
0.0
  0
LINE
  5
B4
100
AcDbEntity
100
AcDbLine
  8
0
 62
256
370
-1
  6
ByLayer
 10
607.5
 20
-79.9999999999999716
 30
0.0
 11
652.5
 21
-59.9999999999999858
 31
0.0
  0
LINE
  5
B5
100
AcDbEntity
100
AcDbLine
  8
0
 62
256
370
-1
  6
ByLayer
 10
672.5
 20
-59.9999999999999787
 30
0.0
 11
652.5
 21
-59.9999999999999858
 31
0.0
  0
CIRCLE
  5
B6
100
AcDbEntity
100
AcDbCircle
  8
0
 62
256
370
-1
  6
ByLayer
 10
662.385231376200295
 20
-109.9268098284000956
 30
0.0
 40
4.2000000000000002
  0
CIRCLE
  5
B7
100
AcDbEntity
100
AcDbCircle
  8
0
 62
256
370
-1
  6
ByLayer
 10
662.385231376200295
 20
-69.9268098284000956
 30
0.0
 40
4.2000000000000002
  0
LINE
  5
B8
100
AcDbEntity
100
AcDbLine
  8
0
 62
256
370
-1
  6
ByLayer
 10
652.5
 20
-120.0000000000000284
 30
0.0
 11
672.5
 21
-119.9999999999999858
 31
0.0
  0
LWPOLYLINE
  5
B9
  8
0
 62
7
420
16777215
370
-1
  6
ByLayer
100
AcDbEntity
100
AcDbPolyline
 90
480
 70
1
 10
603.6257367581999915
 20
-111.2023497634700107
 10
603.1712296837500844
 20
-111.0464333078900552
 10
602.8008464112899674
 20
-110.7120880505299851
 10
602.5513572118500178
 20
-110.207979287689966
 10
602.445662217239942
 20
-109.4881170054200368
 10
602.3446496582100735
 20
-108.6087295839200522
 10
602.0652637956300168
 20
-107.4903497527100455
 10
601.6049057447698942
 20
-106.2402926438299744
 10
600.9658711544400376
 20
-104.9132917614200551
 10
600.0
 20
-104.9000000000000341
 10
599.0341288455599624
 20
-104.9132917614199982
 10
598.3950942552299921
 20
-106.2402926438299744
 10
597.9347362043699832
 20
-107.4903497527100171
 10
597.6553503417899265
 20
-108.6087295839199953
 10
597.554337782760058
 20
-109.4881170054200084
 10
597.4486427881499822
 20
-110.2079792876899944
 10
597.1991535887100326
 20
-110.7120880505299851
 10
596.8287703162500293
 20
-111.0464333078899983
 10
596.3742632418000085
 20
-111.2023497634699822
 10
596.2114772553300099
 20
-111.2233128788299723
 10
596.0488124386499749
 20
-111.245196174709946
 10
595.5694381689900183
 20
-111.2122275304100185
 10
595.1251404803400646
 20
-110.9851370563099806
 10
594.7536794707500576
 20
-110.5627779392900152
 10
594.4652718770399815
 20
-109.8948002472500036
 10
594.1400990248499738
 20
-109.0715211993199603
 10
593.5807750047000582
 20
-108.0635596187899523
 10
592.8125646869700631
 20
-106.9752466044499499
 10
591.8518515706800827
 20
-105.8588565028699691
 10
590.9154515169900606
 20
-106.0960034971399466
 10
589.9859317850100524
 20
-106.35882820258999
 10
589.7121248714099693
 20
-107.8060069489999648
 10
589.5909917279699357
 20
-109.1326188259400283
 10
589.6105837079999219
 20
-110.2852011706700637
 10
589.7406152811300899
 20
-111.1607681664199561
 10
589.8248358243899929
 20
-111.8834576138300463
 10
589.7143207120200259
 20
-112.4349618434900151
 10
589.4430928638000751
 20
-112.8537768073999814
 10
589.0444268907300511
 20
-113.1220156257500093
 10
588.8926133554199396
 20
-113.1843965537300107
 10
588.7411550215800844
 20
-113.2476349468999786
 10
588.2695821213899308
 20
-113.3398608724399992
 10
587.7816481694400181
 20
-113.2355010221600367
 10
587.3135298034198968
 20
-112.9236746269100138
 10
586.8620641118400272
 20
-112.353103100659979
 10
586.3348909589099094
 20
-111.6420375334099333
 10
585.5337457889999087
 20
-110.8131851198300524
 10
584.5100354675699919
 20
-109.960782932839976
 10
583.2931148371500285
 20
-109.1310837528200182
 10
582.4500000000000455
 20
-109.6025083271599954
 10
581.6201769240000203
 20
-110.0969549072599705
 10
581.730257176260011
 20
-111.5656886776100123
 10
581.9566039637099948
 20
-112.8784489154600124
 10
582.2738386250099438
 20
-113.98668719161995
 10
582.6260528935800949
 20
-114.7987653178999778
 10
582.8944494840000061
 20
-115.475031839029981
 10
582.9304398808200176
 20
-116.0363474337199818
 10
582.7768511864999255
 20
-116.5110905561899699
 10
582.4611947418900399
 20
-116.8733717048299354
 10
582.3306994996499952
 20
-116.9729192886799467
 10
582.2007692839799802
 20
-117.0732031871000061
 10
581.7691346666100571
 20
-117.2843386384099347
 10
581.2708163442899831
 20
-117.3098213631499789
 10
580.7379421149000791
 20
-117.1297781430800171
 10
580.1541849661199421
 20
-116.6954962893800314
 10
579.4609374915900162
 20
-116.1451021458199762
 10
578.4725678908200734
 20
-115.5518438212399701
 10
577.2631217330400659
 20
-114.9934422622999648
 10
575.8729247178600872
 20
-114.5069766319099926
 10
575.1805519804200912
 20
-115.1805519804200344
 10
574.5069766319099926
 20
-115.8729247178599877
 10
574.9934422622999364
 20
-117.2631217330400375
 10
575.551843821240027
 20
-118.4725678908199313
 10
576.1451021458199193
 20
-119.4609374915899878
 10
576.695496289380003
 20
-120.1541849661199706
 10
577.1297781430799887
 20
-120.7379421148999796
 10
577.309821363149922
 20
-121.2708163442899547
 10
577.2843386384099631
 20
-121.7691346666099719
 10
577.0732031871000345
 20
-122.2007692839799802
 10
576.9729192730200111
 20
-122.3306995201699294
 10
576.8733717048299923
 20
-122.4611947418899547
 10
576.5110905561900836
 20
-122.776851186499897
 10
576.0363474337200387
 20
-122.9304398808199892
 10
575.4750318390299526
 20
-122.8944494840000061
 10
574.7987653179000063
 20
-122.6260528935799385
 10
573.9866871916200353
 20
-122.2738386250099722
 10
572.8784489154598987
 20
-121.9566039637099664
 10
571.5656886776099554
 20
-121.7302571762600394
 10
570.096954907259942
 20
-121.6201769239999493
 10
569.6025083271600806
 20
-122.4499999999999602
 10
569.1310837528199045
 20
-123.2931148371500569
 10
569.9607829328399475
 20
-124.5100354675700629
 10
570.8131851198299955
 20
-125.5337457889999655
 10
571.6420375334099617
 20
-126.3348909589099378
 10
572.3531031006600642
 20
-126.8620641118400272
 10
572.9236746269100422
 20
-127.313529803419982
 10
573.2355010221599514
 20
-127.7816481694399613
 10
573.3398608724398855
 20
-128.2695821213900444
 10
573.247634946900007
 20
-128.7411550215800276
 10
573.1843965440100419
 20
-128.8926133791799202
 10
573.1220156257500093
 20
-129.0444268907299374
 10
572.8537768073999814
 20
-129.4430928637999898
 10
572.434961843489873
 20
-129.7143207120199406
 10
571.8834576138300463
 20
-129.8248358243899077
 10
571.1607681664199845
 20
-129.7406152811298909
 10
570.2852011706700068
 20
-129.6105837079998935
 10
569.1326188259399714
 20
-129.5909917279699641
 10
567.8060069489999933
 20
-129.7121248714099409
 10
566.3588282025900753
 20
-129.9859317850099387
 10
566.0960034971399182
 20
-130.9154515169900321
 10
565.8588565028699122
 20
-131.8518515706800258
 10
566.9752466044499215
 20
-132.8125646869700347
 10
568.0635596187898955
 20
-133.5807750047000013
 10
569.0715211993199318
 20
-134.1400990248499454
 10
569.894800247250032
 20
-134.4652718770398963
 10
570.562777939290072
 20
-134.753679470750086
 10
570.9851370563098953
 20
-135.1251404803400362
 10
571.2122275304100185
 20
-135.5694381689900183
 10
571.2451961747099176
 20
-136.0488124386500033
 10
571.2233128755899543
 20
-136.2114772807099996
 10
571.2023497634700107
 20
-136.3742632417999516
 10
571.0464333078900836
 20
-136.8287703162498019
 10
570.7120880505299283
 20
-137.1991535887100326
 10
570.2079792876900228
 20
-137.4486427881498685
 10
569.4881170054200084
 20
-137.5543377827597453
 10
568.6087295839199669
 20
-137.6553503417899265
 10
567.4903497527100171
 20
-137.9347362043697842
 10
566.2402926438298891
 20
-138.3950942552302479
 10
564.9132917614199414
 20
-139.0341288455596782
 10
564.9000000000000909
 20
-140.0
 10
564.9132917614199414
 20
-140.9658711544403218
 10
566.2402926438298891
 20
-141.6049057447697237
 10
567.4903497527100171
 20
-142.0652637956299884
 10
568.6087295839199669
 20
-142.3446496582098746
 10
569.4881170054200084
 20
-142.4456622172398568
 10
570.2079792876900228
 20
-142.5513572118498757
 10
570.7120880505299283
 20
-142.8008464112899389
 10
571.0464333078900836
 20
-143.1712296837499991
 10
571.2023497634700107
 20
-143.6257367581999915
 10
571.2233128788300291
 20
-143.7885227446699616
 10
571.2451961747099176
 20
-143.9511875613499683
 10
571.2122275304100185
 20
-144.4305618310100101
 10
570.9851370563098953
 20
-144.8748595196599069
 10
570.562777939290072
 20
-145.2463205292498856
 10
569.894800247250032
 20
-145.5347281229599048
 10
569.0715211993199318
 20
-145.8599009751499977
 10
568.0635596187898955
 20
-146.4192249952999987
 10
566.9752466044499215
 20
-147.1874353130299085
 10
565.8588565028699122
 20
-148.1481484293199742
 10
566.0960034971399182
 20
-149.0845484830099394
 10
566.3588282025899616
 20
-150.014068214989976
 10
567.8060069489999933
 20
-150.2878751285900591
 10
569.1326188259399714
 20
-150.4090082720299506
 10
570.2852011706700068
 20
-150.3894162919999928
 10
571.1607681664199845
 20
-150.2593847188699385
 10
571.8834576138299326
 20
-150.1751641756100071
 10
572.434961843489873
 20
-150.2856792879799741
 10
572.8537768073999814
 20
-150.5569071362000102
 10
573.1220156257498957
 20
-150.9555731092699489
 10
573.1843965537299255
 20
-151.1073866445800036
 10
573.247634946900007
 20
-151.2588449784199724
 10
573.3398608724398855
 20
-151.730417878609984
 10
573.2355010221599514
 20
-152.2183518305599534
 10
572.9236746269100422
 20
-152.686470196580018
 10
572.3531031006600642
 20
-153.1379358881599728
 10
571.6420375334099617
 20
-153.6651090410899485
 10
570.8131851198298818
 20
-154.4662542110000629
 10
569.9607829328399475
 20
-155.4899645324298945
 10
569.1310837528199045
 20
-156.7068851628499715
 10
569.6025083271599669
 20
-157.5499999999999829
 10
570.096954907259942
 20
-158.3798230759999512
 10
571.5656886776100691
 20
-158.269742823739989
 10
572.8784489154598987
 20
-158.0433960362900052
 10
573.9866871916199216
 20
-157.7261613749899993
 10
574.7987653179000063
 20
-157.3739471064200472
 10
575.4750318390299526
 20
-157.105550515999937
 10
576.0363474337200387
 20
-157.0695601191799824
 10
576.5110905561899699
 20
-157.2231488134999893
 10
576.8733717048298786
 20
-157.5388052581099885
 10
576.9729192886799183
 20
-157.6693005003499763
 10
577.0732031870999208
 20
-157.7992307160199914
 10
577.2843386384099631
 20
-158.2308653333899713
 10
577.309821363149922
 20
-158.7291836557099884
 10
577.129778143079875
 20
-159.2620578851000062
 10
576.6954962893798893
 20
-159.845815033880001
 10
576.1451021458199193
 20
-160.5390625084099838
 10
575.5518438212399133
 20
-161.5274321091799834
 10
574.9934422623000501
 20
-162.7368782669599909
 10
574.506976631909879
 20
-164.1270752821399412
 10
575.1805519804199776
 20
-164.8194480195799656
 10
575.8729247178599735
 20
-165.4930233680900074
 10
577.2631217330400659
 20
-165.0065577377000068
 10
578.4725678908199598
 20
-164.448156178759973
 10
579.4609374915899025
 20
-163.854897854179967
 10
580.1541849661199421
 20
-163.3045037106199402
 10
580.7379421148998517
 20
-162.8702218569199829
 10
581.2708163442898694
 20
-162.6901786368499927
 10
581.7691346666099435
 20
-162.7156613615899516
 10
582.2007692839799802
 20
-162.9267968128999655
 10
582.330699520169901
 20
-163.0270807269799604
 10
582.4611947418899263
 20
-163.1266282951699509
 10
582.7768511864999255
 20
-163.4889094438099733
 10
582.9304398808199039
 20
-163.9636525662800182
 10
582.8944494840000061
 20
-164.5249681609699905
 10
582.6260528935798675
 20
-165.2012346820999369
 10
582.2738386250099438
 20
-166.0133128083799932
 10
581.9566039637099948
 20
-167.1215510845399876
 10
581.730257176260011
 20
-168.4343113223899877
 10
581.6201769239999066
 20
-169.9030450927400011
 10
582.4499999999999318
 20
-170.3974916728399478
 10
583.2931148371499148
 20
-170.8689162471800103
 10
584.5100354675699919
 20
-170.0392170671599956
 10
585.5337457890000223
 20
-169.186814880169976
 10
586.3348909589099094
 20
-168.3579624665899814
 10
586.8620641118400272
 20
-167.6468968993399642
 10
587.3135298034198968
 20
-167.0763253730899862
 10
587.7816481694399044
 20
-166.7644989778399918
 10
588.2695821213899308
 20
-166.660139127559944
 10
588.7411550215800844
 20
-166.752365053099993
 10
588.8926133791799202
 20
-166.8156034559900149
 10
589.0444268907299374
 20
-166.8779843742499907
 10
589.4430928637999614
 20
-167.1462231926000186
 10
589.7143207120200259
 20
-167.5650381565099849
 10
589.8248358243899929
 20
-168.1165423861700106
 10
589.7406152811299762
 20
-168.8392318335800155
 10
589.6105837080000356
 20
-169.7147988293299647
 10
589.5909917279699357
 20
-170.8673811740599717
 10
589.7121248714099693
 20
-172.1939930510000352
 10
589.9859317850100524
 20
-173.64117179741001
 10
590.9154515169899469
 20
-173.9039965028599966
 10
591.851851570679969
 20
-174.1411434971300309
 10
592.8125646869699494
 20
-173.0247533955499932
 10
593.5807750046999445
 20
-171.9364403812100193
 10
594.1400990248499738
 20
-170.9284788006799829
 10
594.4652718770399815
 20
-170.1051997527499964
 10
594.7536794707499439
 20
-169.4372220607099848
 10
595.125140480339951
 20
-169.0148629436900194
 10
595.5694381689900183
 20
-168.7877724695899815
 10
596.0488124386499749
 20
-168.7548038252899687
 10
596.2114772807099143
 20
-168.7766871244099889
 10
596.3742632417998948
 20
-168.7976502365299893
 10
596.8287703162500293
 20
-168.9535666921099732
 10
597.1991535887099189
 20
-169.287911949469958
 10
597.4486427881499822
 20
-169.7920207123099772
 10
597.5543377827599443
 20
-170.5118829945799916
 10
597.6553503417899265
 20
-171.3912704160800047
 10
597.9347362043698695
 20
-172.5096502472899829
 10
598.3950942552298784
 20
-173.7597073561699972
 10
599.0341288455599624
 20
-175.0867082385800018
 10
600.0
 20
-175.0999999999999659
 10
600.9658711544399239
 20
-175.0867082385799449
 10
601.6049057447700079
 20
-173.7597073561700256
 10
602.0652637956299031
 20
-172.5096502472900113
 10
602.3446496582099599
 20
-171.3912704160799763
 10
602.4456622172400557
 20
-170.5118829945799916
 10
602.5513572118499042
 20
-169.7920207123100056
 10
602.8008464112899674
 20
-169.2879119494700149
 10
603.1712296837499707
 20
-168.9535666921099732
 10
603.6257367581999915
 20
-168.7976502365300462
 10
603.7885227446699901
 20
-168.7766871211700277
 10
603.9511875613499114
 20
-168.7548038252899971
 10
604.430561831009868
 20
-168.7877724695900099
 10
604.8748595196599354
 20
-169.0148629436900194
 10
605.2463205292499424
 20
-169.4372220607100132
 10
605.5347281229599048
 20
-170.1051997527500248
 10
605.8599009751500262
 20
-170.9284788006800113
 10
606.4192249952999418
 20
-171.9364403812100193
 10
607.1874353130299369
 20
-173.0247533955500217
 10
608.1481484293199173
 20
-174.1411434971300025
 10
609.0845484830099394
 20
-173.903996502860025
 10
610.0140682149899476
 20
-173.64117179741001
 10
610.287875128589917
 20
-172.1939930510000067
 10
610.4090082720300643
 20
-170.8673811740599717
 10
610.3894162919999644
 20
-169.7147988293300216
 10
610.2593847188700238
 20
-168.8392318335800155
 10
610.1751641756098934
 20
-168.1165423861700106
 10
610.2856792879799741
 20
-167.5650381565100133
 10
610.5569071362000386
 20
-167.1462231925999902
 10
610.9555731092699489
 20
-166.8779843742500191
 10
611.1073866445799467
 20
-166.8156034462700177
 10
611.2588449784199156
 20
-166.752365053099993
 10
611.7304178786099556
 20
-166.6601391275600292
 10
612.2183518305599819
 20
-166.7644989778400202
 10
612.6864701965799895
 20
-167.0763253730900146
 10
613.1379358881600865
 20
-167.646896899340021
 10
613.6651090410899769
 20
-168.3579624665900383
 10
614.4662542109999777
 20
-169.186814880169976
 10
615.4899645324298945
 20
-170.0392170671600525
 10
616.7068851628499715
 20
-170.8689162471800387
 10
617.5499999999999545
 20
-170.3974916728400046
 10
618.379823075999866
 20
-169.903045092740058
 10
618.269742823739989
 20
-168.4343113223900446
 10
618.0433960362898915
 20
-167.1215510845400161
 10
617.7261613749899425
 20
-166.0133128083800216
 10
617.3739471064199051
 20
-165.2012346821000222
 10
617.1055505159998802
 20
-164.524968160970019
 10
617.0695601191799824
 20
-163.9636525662800182
 10
617.2231488134999609
 20
-163.4889094438100301
 10
617.5388052581099601
 20
-163.1266282951700077
 10
617.6693005003498911
 20
-163.0270807113200533
 10
617.7992307160200198
 20
-162.9267968129000224
 10
618.2308653333899429
 20
-162.7156613615900369
 10
618.7291836557100169
 20
-162.6901786368500495
 10
619.2620578850999209
 20
-162.8702218569200681
 10
619.8458150338799442
 20
-163.3045037106200255
 10
620.5390625084099838
 20
-163.8548978541800238
 10
621.5274321091799266
 20
-164.4481561787600583
 10
622.7368782669599341
 20
-165.0065577377000636
 10
624.1270752821399128
 20
-165.4930233680900642
 10
624.8194480195800224
 20
-164.8194480195800224
 10
625.4930233680898937
 20
-164.1270752821400265
 10
625.0065577376999499
 20
-162.7368782669599909
 10
624.448156178759973
 20
-161.5274321091800402
 10
623.854897854179967
 20
-160.5390625084100407
 10
623.3045037106198833
 20
-159.845815033880001
 10
622.8702218569200113
 20
-159.2620578851000346
 10
622.6901786368499643
 20
-158.7291836557100453
 10
622.7156613615899232
 20
-158.2308653333900281
 10
622.9267968128999655
 20
-157.7992307160200198
 10
623.0270807269799889
 20
-157.6693004798300421
 10
623.126628295169894
 20
-157.5388052581101022
 10
623.4889094438099164
 20
-157.2231488135000177
 10
623.9636525662799613
 20
-157.0695601191800677
 10
624.5249681609699337
 20
-157.1055505160000507
 10
625.20123468209988
 20
-157.3739471064200188
 10
626.0133128083799647
 20
-157.7261613749900562
 10
627.1215510845399876
 20
-158.0433960362900336
 10
628.4343113223899309
 20
-158.2697428237400743
 10
629.903045092740058
 20
-158.3798230760000365
 10
630.3974916728399194
 20
-157.5500000000000966
 10
630.8689162471799818
 20
-156.7068851628500283
 10
630.0392170671599388
 20
-155.4899645324300366
 10
629.1868148801698908
 20
-154.4662542110000913
 10
628.3579624665899246
 20
-153.6651090410900622
 10
627.6468968993399358
 20
-153.1379358881600297
 10
627.0763253730899578
 20
-152.686470196580018
 10
626.7644989778399349
 20
-152.2183518305600387
 10
626.6601391275598871
 20
-151.7304178786100408
 10
626.752365053099993
 20
-151.2588449784200293
 10
626.8156034559899581
 20
-151.1073866208201082
 10
626.8779843742499907
 20
-150.9555731092700626
 10
627.1462231925999049
 20
-150.5569071362000386
 10
627.5650381565098996
 20
-150.2856792879800594
 10
628.1165423861699537
 20
-150.1751641756100355
 10
628.8392318335800155
 20
-150.2593847188700238
 10
629.7147988293299932
 20
-150.3894162919999928
 10
630.8673811740600286
 20
-150.4090082720300074
 10
632.1939930510000067
 20
-150.2878751285900876
 10
633.6411717974099247
 20
-150.0140682149900329
 10
633.9039965028600818
 20
-149.0845484830100531
 10
634.1411434971299741
 20
-148.148148429320031
 10
633.0247533955499648
 20
-147.1874353130300221
 10
631.9364403812098772
 20
-146.4192249953000839
 10
630.9284788006799545
 20
-145.8599009751500262
 10
630.105199752749968
 20
-145.5347281229600469
 10
629.437222060709928
 20
-145.2463205292501129
 10
629.014862943689991
 20
-144.8748595196599922
 10
628.7877724695899815
 20
-144.4305618310100101
 10
628.7548038252899687
 20
-143.9511875613499967
 10
628.7766871244100457
 20
-143.7885227192900572
 10
628.7976502365299893
 20
-143.6257367582000768
 10
628.9535666921099164
 20
-143.171229683750056
 10
629.287911949469958
 20
-142.8008464112900242
 10
629.7920207123099772
 20
-142.5513572118499894
 10
630.5118829945799916
 20
-142.4456622172400273
 10
631.3912704160799194
 20
-142.344649658210102
 10
632.5096502472899829
 20
-142.0652637956299884
 10
633.7597073561701109
 20
-141.6049057447699795
 10
635.0867082385800586
 20
-140.9658711544402081
 10
635.0999999999999091
 20
-140.0
 10
635.0867082385800586
 20
-139.0341288455598203
 10
633.7597073561701109
 20
-138.3950942552300205
 10
632.5096502472899829
 20
-137.9347362043700116
 10
631.3912704160800331
 20
-137.6553503417899833
 10
630.5118829945799916
 20
-137.5543377827600011
 10
629.7920207123099772
 20
-137.4486427881500106
 10
629.2879119494700717
 20
-137.1991535887100042
 10
628.9535666921099164
 20
-136.8287703162500293
 10
628.7976502365299893
 20
-136.3742632417999516
 10
628.7766871211699709
 20
-136.2114772553300384
 10
628.7548038252899687
 20
-136.0488124386500033
 10
628.7877724695899815
 20
-135.5694381689900467
 10
629.014862943689991
 20
-135.1251404803400078
 10
629.437222060709928
 20
-134.7536794707500007
 10
630.105199752749968
 20
-134.4652718770400099
 10
630.9284788006800682
 20
-134.1400990248500023
 10
631.9364403812098772
 20
-133.5807750047000013
 10
633.0247533955500785
 20
-132.8125646869700063
 10
634.1411434971300878
 20
-131.8518515706800258
 10
633.9039965028600818
 20
-130.9154515169900321
 10
633.6411717974099247
 20
-129.9859317850099956
 10
632.1939930510000067
 20
-129.7121248714099693
 10
630.8673811740600286
 20
-129.5909917279700494
 10
629.7147988293299932
 20
-129.6105837080000072
 10
628.8392318335800155
 20
-129.7406152811300046
 10
628.1165423861700674
 20
-129.8248358243900213
 10
627.5650381565098996
 20
-129.7143207120200259
 10
627.1462231926000186
 20
-129.4430928638000182
 10
626.8779843742499907
 20
-129.0444268907300227
 10
626.8156034462699608
 20
-128.8926133554200248
 10
626.752365053099993
 20
-128.7411550215800276
 10
626.6601391275600008
 20
-128.269582121390016
 10
626.7644989778400486
 20
-127.7816481694399897
 10
627.0763253730899578
 20
-127.3135298034200105
 10
627.6468968993399358
 20
-126.8620641118400556
 10
628.3579624665899246
 20
-126.3348909589099947
 10
629.1868148801700045
 20
-125.5337457889999939
 10
630.0392170671600525
 20
-124.5100354675699919
 10
630.8689162471799818
 20
-123.2931148371500569
 10
630.3974916728400331
 20
-122.4499999999999886
 10
629.903045092740058
 20
-121.6201769240000203
 10
628.4343113223899309
 20
-121.730257176260011
 10
627.1215510845399876
 20
-121.9566039637099948
 10
626.0133128083799647
 20
-122.2738386250100007
 10
625.2012346820999937
 20
-122.6260528935799812
 10
624.5249681609700474
 20
-122.8944494840000061
 10
623.9636525662799613
 20
-122.9304398808199892
 10
623.4889094438099164
 20
-122.7768511864999823
 10
623.126628295169894
 20
-122.4611947418899831
 10
623.027080711319968
 20
-122.3306994996499952
 10
622.9267968128999655
 20
-122.2007692839799802
 10
622.7156613615900369
 20
-121.7691346666100003
 10
622.6901786368499643
 20
-121.2708163442899831
 10
622.8702218569198976
 20
-120.7379421148999938
 10
623.304503710619997
 20
-120.154184966119999
 10
623.854897854179967
 20
-119.4609374915900446
 10
624.448156178759973
 20
-118.4725678908199598
 10
625.0065577376999499
 20
-117.2631217330400091
 10
625.4930233680900074
 20
-115.8729247178599735
 10
624.8194480195799088
 20
-115.1805519804200344
 10
624.1270752821400265
 20
-114.5069766319100211
 10
622.7368782669599341
 20
-114.9934422622999932
 10
621.5274321091800402
 20
-115.5518438212399701
 10
620.5390625084099838
 20
-116.145102145820033
 10
619.8458150338799442
 20
-116.695496289380003
 10
619.2620578851000346
 20
-117.1297781430799887
 10
618.7291836557100169
 20
-117.3098213631499789
 10
618.2308653333900565
 20
-117.2843386384099631
 10
617.7992307160200198
 20
-117.0732031870999776
 10
617.6693004798299853
 20
-116.9729192730200111
 10
617.5388052581099601
 20
-116.8733717048299923
 10
617.2231488134999609
 20
-116.5110905561900267
 10
617.0695601191799824
 20
-116.0363474337199818
 10
617.1055505159999939
 20
-115.4750318390300095
 10
617.3739471064200188
 20
-114.7987653178999778
 10
617.7261613749900562
 20
-113.9866871916200353
 10
618.0433960362900052
 20
-112.8784489154600124
 10
618.269742823739989
 20
-111.5656886776100123
 10
618.3798230759999797
 20
-110.0969549072599989
 10
617.5499999999999545
 20
-109.6025083271600238
 10
616.7068851628499715
 20
-109.1310837528200182
 10
615.4899645324300081
 20
-109.9607829328400044
 10
614.4662542109999777
 20
-110.8131851198299955
 10
613.6651090410900906
 20
-111.6420375334099617
 10
613.1379358881600865
 20
-112.3531031006600074
 10
612.6864701965799895
 20
-112.9236746269099854
 10
612.2183518305599819
 20
-113.2355010221600082
 10
611.7304178786100692
 20
-113.3398608724400276
 10
611.2588449784200293
 20
-113.247634946900007
 10
611.1073866208199661
 20
-113.1843965440100135
 10
610.9555731092699489
 20
-113.1220156257500093
 10
610.5569071362000386
 20
-112.8537768073999814
 10
610.2856792879799741
 20
-112.4349618434899867
 10
610.1751641756100071
 20
-111.8834576138299894
 10
610.2593847188700238
 20
-111.1607681664199845
 10
610.3894162919999644
 20
-110.2852011706700068
 10
610.4090082720299506
 20
-109.1326188259400283
 10
610.2878751285900307
 20
-107.8060069489999648
 10
610.0140682149899476
 20
-106.3588282025900469
 10
609.0845484830100531
 20
-106.096003497139975
 10
608.1481484293199173
 20
-105.8588565028700259
 10
607.1874353130300506
 20
-106.9752466044500068
 10
606.4192249953000555
 20
-108.0635596187899523
 10
605.8599009751500262
 20
-109.0715211993199887
 10
605.5347281229600185
 20
-109.8948002472499752
 10
605.2463205292500561
 20
-110.5627779392899868
 10
604.874859519660049
 20
-110.985137056310009
 10
604.4305618310099817
 20
-111.2122275304100185
 10
603.9511875613500251
 20
-111.2451961747099745
 10
603.788522719289972
 20
-111.2233128755900111
  0
LINE
  5
BA
100
AcDbEntity
100
AcDbLine
  8
0
 62
256
370
-1
  6
ByLayer
 10
599.9000000000000909
 20
-135.2137666320662106
 30
0.0
 11
595.7550000000001091
 21
-137.6068830197584987
 31
0.0
  0
LINE
  5
BB
100
AcDbEntity
100
AcDbLine
  8
0
 62
256
370
-1
  6
ByLayer
 10
595.7550000000001091
 20
-137.6068830197584987
 30
0.0
 11
595.7550000000001091
 21
-142.3931169802414729
 31
0.0
  0
LINE
  5
BC
100
AcDbEntity
100
AcDbLine
  8
0
 62
256
370
-1
  6
ByLayer
 10
595.7550000000001091
 20
-142.3931169802414729
 30
0.0
 11
599.9000000000000909
 21
-144.7862333679337894
 31
0.0
  0
LINE
  5
BD
100
AcDbEntity
100
AcDbLine
  8
0
 62
256
370
-1
  6
ByLayer
 10
604.0450000000000728
 20
-142.3931169802415297
 30
0.0
 11
599.9000000000000909
 21
-144.7862333679337894
 31
0.0
  0
LINE
  5
BE
100
AcDbEntity
100
AcDbLine
  8
0
 62
256
370
-1
  6
ByLayer
 10
599.9000000000000909
 20
-135.2137666320662106
 30
0.0
 11
604.0450000000000728
 21
-137.6068830197584987
 31
0.0
  0
LINE
  5
BF
100
AcDbEntity
100
AcDbLine
  8
0
 62
256
370
-1
  6
ByLayer
 10
604.0450000000000728
 20
-137.6068830197584987
 30
0.0
 11
604.0450000000000728
 21
-142.3931169802415297
 31
0.0
  0
ENDSEC
  0
SECTION
  2
OBJECTS
  0
DICTIONARY
  5
C
100
AcDbDictionary
280
0
281
1
  3
ACAD_GROUP
350
D
  3
ACAD_LAYOUT
350
1A
  3
ACAD_MLINESTYLE
350
17
  3
ACAD_PLOTSETTINGS
350
19
  3
ACAD_PLOTSTYLENAME
350
E
  3
AcDbVariableDictionary
350
C0
  0
DICTIONARY
  5
D
100
AcDbDictionary
280
0
281
1
  0
ACDBDICTIONARYWDFLT
  5
E
100
AcDbDictionary
281
1
  3
Normal
350
F
100
AcDbDictionaryWithDefault
340
F
  0
ACDBPLACEHOLDER
  5
F
  0
DICTIONARY
  5
17
100
AcDbDictionary
280
0
281
1
  3
Standard
350
18
  0
MLINESTYLE
  5
18
100
AcDbMlineStyle
  2
STANDARD
 70
0
  3

 62
256
 51
90.0
 52
90.0
 71
2
 49
0.5
 62
256
  6
BYLAYER
 49
-0.5
 62
256
  6
BYLAYER
  0
DICTIONARY
  5
19
100
AcDbDictionary
280
0
281
1
  0
DICTIONARY
  5
1A
100
AcDbDictionary
281
1
  3
Layout1
350
1E
  3
Layout2
350
26
  3
Model
350
22
  0
LAYOUT
  5
1E
100
AcDbPlotSettings
  1

  2
C:\Program Files\AutoCAD 2002\plotters\DWF ePlot (optimized for plotting).pc3
  4

  6

 40
0.0
 41
0.0
 42
0.0
 43
0.0
 44
0.0
 45
0.0
 46
0.0
 47
0.0
 48
0.0
 49
0.0
140
0.0
141
0.0
142
1.0
143
1.0
 70
688
 72
0
 73
0
 74
5
  7

 75
16
147
1.0
148
0.0
149
0.0
100
AcDbLayout
  1
Layout1
 70
1
 71
1
 10
0.0
 20
0.0
 11
420.0
 21
297.0
 12
0.0
 22
0.0
 32
0.0
 14
100000000000000000000.0
 24
100000000000000000000.0
 34
100000000000000000000.0
 15
-100000000000000000000.0
 25
-100000000000000000000.0
 35
-100000000000000000000.0
146
0.0
 13
0.0
 23
0.0
 33
0.0
 16
1.0
 26
0.0
 36
0.0
 17
0.0
 27
1.0
 37
0.0
 76
0
330
1B
  0
LAYOUT
  5
22
100
AcDbPlotSettings
  1

  2
C:\Program Files\AutoCAD 2002\plotters\DWF ePlot (optimized for plotting).pc3
  4

  6

 40
0.0
 41
0.0
 42
0.0
 43
0.0
 44
0.0
 45
0.0
 46
0.0
 47
0.0
 48
0.0
 49
0.0
140
0.0
141
0.0
142
1.0
143
1.0
 70
1712
 72
0
 73
0
 74
0
  7

 75
0
147
1.0
148
0.0
149
0.0
100
AcDbLayout
  1
Model
 70
1
 71
0
 10
0.0
 20
0.0
 11
12.0
 21
9.0
 12
0.0
 22
0.0
 32
0.0
 14
0.0
 24
0.0
 34
0.0
 15
0.0
 25
0.0
 35
0.0
146
0.0
 13
0.0
 23
0.0
 33
0.0
 16
1.0
 26
0.0
 36
0.0
 17
0.0
 27
1.0
 37
0.0
 76
0
330
1F
  0
LAYOUT
  5
26
100
AcDbPlotSettings
  1

  2
C:\Program Files\AutoCAD 2002\plotters\DWF ePlot (optimized for plotting).pc3
  4

  6

 40
0.0
 41
0.0
 42
0.0
 43
0.0
 44
0.0
 45
0.0
 46
0.0
 47
0.0
 48
0.0
 49
0.0
140
0.0
141
0.0
142
1.0
143
1.0
 70
688
 72
0
 73
0
 74
5
  7

 75
16
147
1.0
148
0.0
149
0.0
100
AcDbLayout
  1
Layout2
 70
1
 71
2
 10
0.0
 20
0.0
 11
12.0
 21
9.0
 12
0.0
 22
0.0
 32
0.0
 14
0.0
 24
0.0
 34
0.0
 15
0.0
 25
0.0
 35
0.0
146
0.0
 13
0.0
 23
0.0
 33
0.0
 16
1.0
 26
0.0
 36
0.0
 17
0.0
 27
1.0
 37
0.0
 76
0
330
23
  0
DICTIONARY
  5
C0
100
AcDbDictionary
281
1
  3
DIMASSOC
350
C2
  3
HIDETEXT
350
C1
  0
DICTIONARYVAR
  5
C1
100
DictionaryVariables
280
0
  1
2
  0
DICTIONARYVAR
  5
C2
100
DictionaryVariables
280
0
  1
1
  0
ENDSEC
  0
EOF
