999
dxflib 2.2.0.0
  0
SECTION
  2
HEADER
  9
$ACADVER
  1
AC1015
  9
$HANDSEED
  5
FFFF
  9
$DIMASZ
 40
2.5
  9
$PLIMMIN
 10
0.0
 20
0.0
  9
$DIMEXE
 40
1.25
  9
$DIMGAP
 40
0.625
  9
$PLIMMAX
 10
210.0
 20
297.0
  9
$INSUNITS
 70
4
  9
$DIMSTYLE
  2
Standard
  9
$CLAYER
  8
0
  9
$DIMEXO
 40
0.625
  9
$DIMTXT
 40
2.5
  9
$CLAYER
  8
0
  0
ENDSEC
  0
SECTION
  2
TABLES
  0
TABLE
  2
VPORT
  5
8
100
AcDbSymbolTable
 70
1
  0
VPORT
  5
30
100
AcDbSymbolTableRecord
100
AcDbViewportTableRecord
  2
*Active
 70
0
 10
0.0
 20
0.0
 11
1.0
 21
1.0
 12
286.3055555555554861
 22
148.5
 13
0.0
 23
0.0
 14
10.0
 24
10.0
 15
10.0
 25
10.0
 16
0.0
 26
0.0
 36
1.0
 17
0.0
 27
0.0
 37
0.0
 40
297.0
 41
1.92798353909465
 42
50.0
 43
0.0
 44
0.0
 50
0.0
 51
0.0
 71
0
 72
100
 73
1
 74
3
 75
1
 76
1
 77
0
 78
0
281
0
 65
1
110
0.0
120
0.0
130
0.0
111
1.0
121
0.0
131
0.0
112
0.0
122
1.0
132
0.0
 79
0
146
0.0
  0
ENDTAB
  0
TABLE
  2
LTYPE
  5
5
100
AcDbSymbolTable
 70
21
  0
LTYPE
  5
14
100
AcDbSymbolTableRecord
100
AcDbLinetypeTableRecord
  2
ByBlock
 70
0
  3

 72
65
 73
0
 40
0.0
  0
LTYPE
  5
15
100
AcDbSymbolTableRecord
100
AcDbLinetypeTableRecord
  2
ByLayer
 70
0
  3

 72
65
 73
0
 40
0.0
  0
LTYPE
  5
16
100
AcDbSymbolTableRecord
100
AcDbLinetypeTableRecord
  2
CONTINUOUS
 70
0
  3
Solid line
 72
65
 73
0
 40
0.0
  0
LTYPE
  5
31
100
AcDbSymbolTableRecord
100
AcDbLinetypeTableRecord
  2
DOT
 70
0
  3
Dot . . . . . . . . . . . . . . . . . . . . . .
 72
65
 73
2
 40
6.3499999999999996
 49
0.0
 74
0
 49
-6.3499999999999996
 74
0
  0
LTYPE
  5
32
100
AcDbSymbolTableRecord
100
AcDbLinetypeTableRecord
  2
DOT2
 70
0
  3
Dot (.5x) .....................................
 72
65
 73
2
 40
3.1749999999999998
 49
0.0
 74
0
 49
-3.1749999999999998
 74
0
  0
LTYPE
  5
33
100
AcDbSymbolTableRecord
100
AcDbLinetypeTableRecord
  2
DOTX2
 70
0
  3
Dot (2x) .  .  .  .  .  .  .  .  .  .  .  .  .
 72
65
 73
2
 40
12.6999999999999993
 49
0.0
 74
0
 49
-12.6999999999999993
 74
0
  0
LTYPE
  5
34
100
AcDbSymbolTableRecord
100
AcDbLinetypeTableRecord
  2
DASHED
 70
0
  3
Dashed __ __ __ __ __ __ __ __ __ __ __ __ __ _
 72
65
 73
2
 40
19.0500000000000007
 49
12.6999999999999993
 74
0
 49
-6.3499999999999996
 74
0
  0
LTYPE
  5
35
100
AcDbSymbolTableRecord
100
AcDbLinetypeTableRecord
  2
DASHED2
 70
0
  3
Dashed (.5x) _ _ _ _ _ _ _ _ _ _ _ _ _ _ _ _ _
 72
65
 73
2
 40
9.5250000000000004
 49
6.3499999999999996
 74
0
 49
-3.1749999999999998
 74
0
  0
LTYPE
  5
36
100
AcDbSymbolTableRecord
100
AcDbLinetypeTableRecord
  2
DASHEDX2
 70
0
  3
Dashed (2x) ____  ____  ____  ____  ____  ___
 72
65
 73
2
 40
38.1000000000000014
 49
25.3999999999999986
 74
0
 49
-12.6999999999999993
 74
0
  0
LTYPE
  5
37
100
AcDbSymbolTableRecord
100
AcDbLinetypeTableRecord
  2
DASHDOT
 70
0
  3
Dash dot __ . __ . __ . __ . __ . __ . __ . __
 72
65
 73
4
 40
25.3999999999999986
 49
12.6999999999999993
 74
0
 49
-6.3499999999999996
 74
0
 49
0.0
 74
0
 49
-6.3499999999999996
 74
0
  0
LTYPE
  5
38
100
AcDbSymbolTableRecord
100
AcDbLinetypeTableRecord
  2
DASHDOT2
 70
0
  3
Dash dot (.5x) _._._._._._._._._._._._._._._.
 72
65
 73
4
 40
12.6999999999999993
 49
6.3499999999999996
 74
0
 49
-3.1749999999999998
 74
0
 49
0.0
 74
0
 49
-3.1749999999999998
 74
0
  0
LTYPE
  5
39
100
AcDbSymbolTableRecord
100
AcDbLinetypeTableRecord
  2
DASHDOTX2
 70
0
  3
Dash dot (2x) ____  .  ____  .  ____  .  ___
 72
65
 73
4
 40
50.7999999999999972
 49
25.3999999999999986
 74
0
 49
-12.6999999999999993
 74
0
 49
0.0
 74
0
 49
-12.6999999999999993
 74
0
  0
LTYPE
  5
3A
100
AcDbSymbolTableRecord
100
AcDbLinetypeTableRecord
  2
DIVIDE
 70
0
  3
Divide ____ . . ____ . . ____ . . ____ . . ____
 72
65
 73
6
 40
31.75
 49
12.6999999999999993
 74
0
 49
-6.3499999999999996
 74
0
 49
0.0
 74
0
 49
-6.3499999999999996
 74
0
 49
0.0
 74
0
 49
-6.3499999999999996
 74
0
  0
LTYPE
  5
3B
100
AcDbSymbolTableRecord
100
AcDbLinetypeTableRecord
  2
DIVIDE2
 70
0
  3
Divide (.5x) __..__..__..__..__..__..__..__.._
 72
65
 73
6
 40
15.875
 49
6.3499999999999996
 74
0
 49
-3.1749999999999998
 74
0
 49
0.0
 74
0
 49
-3.1749999999999998
 74
0
 49
0.0
 74
0
 49
-3.1749999999999998
 74
0
  0
LTYPE
  5
3C
100
AcDbSymbolTableRecord
100
AcDbLinetypeTableRecord
  2
DIVIDEX2
 70
0
  3
Divide (2x) ________  .  .  ________  .  .  _
 72
65
 73
6
 40
63.5
 49
25.3999999999999986
 74
0
 49
-12.6999999999999993
 74
0
 49
0.0
 74
0
 49
-12.6999999999999993
 74
0
 49
0.0
 74
0
 49
-12.6999999999999993
 74
0
  0
LTYPE
  5
3D
100
AcDbSymbolTableRecord
100
AcDbLinetypeTableRecord
  2
CENTER
 70
0
  3
Center ____ _ ____ _ ____ _ ____ _ ____ _ ____
 72
65
 73
4
 40
50.7999999999999972
 49
31.75
 74
0
 49
-6.3499999999999996
 74
0
 49
6.3499999999999996
 74
0
 49
-6.3499999999999996
 74
0
  0
LTYPE
  5
3E
100
AcDbSymbolTableRecord
100
AcDbLinetypeTableRecord
  2
CENTER2
 70
0
  3
Center (.5x) ___ _ ___ _ ___ _ ___ _ ___ _ ___
 72
65
 73
4
 40
28.5749999999999993
 49
19.0500000000000007
 74
0
 49
-3.1749999999999998
 74
0
 49
3.1749999999999998
 74
0
 49
-3.1749999999999998
 74
0
  0
LTYPE
  5
3F
100
AcDbSymbolTableRecord
100
AcDbLinetypeTableRecord
  2
CENTERX2
 70
0
  3
Center (2x) ________  __  ________  __  _____
 72
65
 73
4
 40
101.5999999999999943
 49
63.5
 74
0
 49
-12.6999999999999993
 74
0
 49
12.6999999999999993
 74
0
 49
-12.6999999999999993
 74
0
  0
LTYPE
  5
40
100
AcDbSymbolTableRecord
100
AcDbLinetypeTableRecord
  2
BORDER
 70
0
  3
Border __ __ . __ __ . __ __ . __ __ . __ __ .
 72
65
 73
6
 40
44.4500000000000028
 49
12.6999999999999993
 74
0
 49
-6.3499999999999996
 74
0
 49
12.6999999999999993
 74
0
 49
-6.3499999999999996
 74
0
 49
0.0
 74
0
 49
-6.3499999999999996
 74
0
  0
LTYPE
  5
41
100
AcDbSymbolTableRecord
100
AcDbLinetypeTableRecord
  2
BORDER2
 70
0
  3
Border (.5x) __.__.__.__.__.__.__.__.__.__.__.
 72
65
 73
6
 40
22.2250000000000014
 49
6.3499999999999996
 74
0
 49
-3.1749999999999998
 74
0
 49
6.3499999999999996
 74
0
 49
-3.1749999999999998
 74
0
 49
0.0
 74
0
 49
-3.1749999999999998
 74
0
  0
LTYPE
  5
42
100
AcDbSymbolTableRecord
100
AcDbLinetypeTableRecord
  2
BORDERX2
 70
0
  3
Border (2x) ____  ____  .  ____  ____  .  ___
 72
65
 73
6
 40
88.9000000000000057
 49
25.3999999999999986
 74
0
 49
-12.6999999999999993
 74
0
 49
25.3999999999999986
 74
0
 49
-12.6999999999999993
 74
0
 49
0.0
 74
0
 49
-12.6999999999999993
 74
0
  0
ENDTAB
  0
TABLE
  2
LAYER
  5
2
100
AcDbSymbolTable
 70
1
  0
LAYER
  5
10
100
AcDbSymbolTableRecord
100
AcDbLayerTableRecord
  2
0
 70
0
 62
7
420
0
  6
CONTINUOUS
370
25
390
F
  0
ENDTAB
  0
TABLE
  2
STYLE
  5
3
100
AcDbSymbolTable
 70
1
  0
STYLE
  5
11
100
AcDbSymbolTableRecord
100
AcDbTextStyleTableRecord
  2
Standard
 70
0
 40
0.0
 41
0.75
 50
0.0
 71
0
 42
2.5
  3
txt
  4

  0
ENDTAB
  0
TABLE
  2
VIEW
  5
6
100
AcDbSymbolTable
 70
0
  0
ENDTAB
  0
TABLE
  2
UCS
  5
7
100
AcDbSymbolTable
 70
0
  0
ENDTAB
  0
TABLE
  2
APPID
  5
9
100
AcDbSymbolTable
 70
1
  0
APPID
  5
12
100
AcDbSymbolTableRecord
100
AcDbRegAppTableRecord
  2
ACAD
 70
0
  0
ENDTAB
  0
TABLE
  2
DIMSTYLE
  5
A
100
AcDbSymbolTable
 70
1
100
AcDbDimStyleTable
 71
0
  0
DIMSTYLE
105
27
100
AcDbSymbolTableRecord
100
AcDbDimStyleTableRecord
  2
Standard
 41
2.5
 42
0.625
 43
3.75
 44
1.25
 70
0
 73
0
 74
0
 77
1
 78
8
140
2.5
141
2.5
143
0.03937007874016
147
0.625
171
3
172
1
271
2
272
2
274
3
278
44
283
0
284
8
340
11
  0
ENDTAB
  0
TABLE
  2
BLOCK_RECORD
  5
1
100
AcDbSymbolTable
 70
1
  0
BLOCK_RECORD
  5
1F
100
AcDbSymbolTableRecord
100
AcDbBlockTableRecord
  2
*Model_Space
340
22
  0
BLOCK_RECORD
  5
1B
100
AcDbSymbolTableRecord
100
AcDbBlockTableRecord
  2
*Paper_Space
340
1E
  0
BLOCK_RECORD
  5
23
100
AcDbSymbolTableRecord
100
AcDbBlockTableRecord
  2
*Paper_Space0
340
26
  0
BLOCK_RECORD
  5
43
100
AcDbSymbolTableRecord
100
AcDbBlockTableRecord
  2
tgrips
340
0
  0
BLOCK_RECORD
  5
44
100
AcDbSymbolTableRecord
100
AcDbBlockTableRecord
  2
slot
340
0
  0
BLOCK_RECORD
  5
45
100
AcDbSymbolTableRecord
100
AcDbBlockTableRecord
  2
M6_c-0
340
0
  0
BLOCK_RECORD
  5
46
100
AcDbSymbolTableRecord
100
AcDbBlockTableRecord
  2
M6_c-1
340
0
  0
BLOCK_RECORD
  5
47
100
AcDbSymbolTableRecord
100
AcDbBlockTableRecord
  2
bearing hole and guides
340
0
  0
BLOCK_RECORD
  5
48
100
AcDbSymbolTableRecord
100
AcDbBlockTableRecord
  2
steppernema17
340
0
  0
BLOCK_RECORD
  5
49
100
AcDbSymbolTableRecord
100
AcDbBlockTableRecord
  2
m8 holes
340
0
  0
BLOCK_RECORD
  5
4A
100
AcDbSymbolTableRecord
100
AcDbBlockTableRecord
  2
stepperdriverboardholes
340
0
  0
BLOCK_RECORD
  5
4B
100
AcDbSymbolTableRecord
100
AcDbBlockTableRecord
  2
nut cut outs
340
0
  0
ENDTAB
  0
ENDSEC
  0
SECTION
  2
BLOCKS
  0
BLOCK
  5
20
100
AcDbEntity
  8
0
100
AcDbBlockBegin
  2
*Model_Space
 70
0
 10
0.0
 20
0.0
 30
0.0
  3
*Model_Space
  1

  0
ENDBLK
  5
21
100
AcDbEntity
  8
0
100
AcDbBlockEnd
  0
BLOCK
  5
1C
100
AcDbEntity
 67
1
  8
0
100
AcDbBlockBegin
  2
*Paper_Space
 70
0
 10
0.0
 20
0.0
 30
0.0
  3
*Paper_Space
  1

  0
ENDBLK
  5
1D
100
AcDbEntity
 67
1
  8
0
100
AcDbBlockEnd
  0
BLOCK
  5
24
100
AcDbEntity
  8
0
100
AcDbBlockBegin
  2
*Paper_Space0
 70
0
 10
0.0
 20
0.0
 30
0.0
  3
*Paper_Space0
  1

  0
ENDBLK
  5
25
100
AcDbEntity
  8
0
100
AcDbBlockEnd
  0
BLOCK
  5
4C
100
AcDbEntity
  8
0
100
AcDbBlockBegin
  2
tgrips
 70
0
 10
0.0
 20
0.0
 30
0.0
  3
tgrips
  1

  0
LINE
  5
4D
100
AcDbEntity
100
AcDbLine
  8
0
 62
256
370
-1
  6
ByLayer
 10
0.0
 20
0.0
 30
0.0
 11
10.0
 21
0.0
 31
0.0
  0
LINE
  5
4E
100
AcDbEntity
100
AcDbLine
  8
0
 62
256
370
-1
  6
ByLayer
 10
60.0
 20
0.0
 30
0.0
 11
70.0
 21
0.0
 31
0.0
  0
LINE
  5
4F
100
AcDbEntity
100
AcDbLine
  8
0
 62
256
370
-1
  6
ByLayer
 10
70.0
 20
0.0
 30
0.0
 11
70.0
 21
0.0
 31
0.0
  0
LINE
  5
50
100
AcDbEntity
100
AcDbLine
  8
0
 62
256
370
-1
  6
ByLayer
 10
40.5
 20
-10.0
 30
0.0
 11
40.5
 21
-10.0
 31
0.0
  0
LINE
  5
51
100
AcDbEntity
100
AcDbLine
  8
0
 62
256
370
-1
  6
ByLayer
 10
37.75
 20
-7.0
 30
0.0
 11
37.7474839689560469
 21
-10.0
 31
0.0
  0
LINE
  5
52
100
AcDbEntity
100
AcDbLine
  8
0
 62
256
370
-1
  6
ByLayer
 10
36.5
 20
-10.0
 30
0.0
 11
37.7474839689560469
 21
-10.0
 31
0.0
  0
LINE
  5
53
100
AcDbEntity
100
AcDbLine
  8
0
 62
256
370
-1
  6
ByLayer
 10
32.25
 20
-7.0
 30
0.0
 11
32.2453083395828202
 21
-10.0
 31
0.0
  0
LINE
  5
54
100
AcDbEntity
100
AcDbLine
  8
0
 62
256
370
-1
  6
ByLayer
 10
32.2453083395828202
 20
-10.0
 30
0.0
 11
33.5
 21
-10.0
 31
0.0
  0
LINE
  5
55
100
AcDbEntity
100
AcDbLine
  8
0
 62
256
370
-1
  6
ByLayer
 10
33.5827980153515355
 20
0.0
 30
0.0
 11
33.5835159800337451
 21
-6.9987197232206464
 31
0.0
  0
LINE
  5
56
100
AcDbEntity
100
AcDbLine
  8
0
 62
256
370
-1
  6
ByLayer
 10
36.4008093934434527
 20
-6.9987197232206464
 30
0.0
 11
36.4008093934435664
 21
0.0044872792644778
 31
0.0
  0
LINE
  5
57
100
AcDbEntity
100
AcDbLine
  8
0
 62
256
370
-1
  6
ByLayer
 10
36.4008093934435664
 20
0.0044872792644778
 30
0.0
 11
50.0
 21
0.0
 31
0.0
  0
LINE
  5
58
100
AcDbEntity
100
AcDbLine
  8
0
 62
256
370
-1
  6
ByLayer
 10
20.0
 20
0.0
 30
0.0
 11
33.5827980153515355
 21
0.0
 31
0.0
  0
LINE
  5
59
100
AcDbEntity
100
AcDbLine
  8
0
 62
256
370
-1
  6
ByLayer
 10
37.75
 20
-7.0
 30
0.0
 11
36.4008093934434527
 21
-6.9987197232206464
 31
0.0
  0
LINE
  5
5A
100
AcDbEntity
100
AcDbLine
  8
0
 62
256
370
-1
  6
ByLayer
 10
33.5835159800337451
 20
-6.9987197232206464
 30
0.0
 11
32.25
 21
-7.0
 31
0.0
  0
LINE
  5
5B
100
AcDbEntity
100
AcDbLine
  8
0
 62
256
370
-1
  6
ByLayer
 10
33.5
 20
-11.0
 30
0.0
 11
36.5
 21
-11.0
 31
0.0
  0
LINE
  5
5C
100
AcDbEntity
100
AcDbLine
  8
0
 62
256
370
-1
  6
ByLayer
 10
33.5
 20
-10.0
 30
0.0
 11
33.5
 21
-11.0
 31
0.0
  0
LINE
  5
5D
100
AcDbEntity
100
AcDbLine
  8
0
 62
256
370
-1
  6
ByLayer
 10
36.5
 20
-11.0
 30
0.0
 11
36.5
 21
-10.0
 31
0.0
  0
LINE
  5
5E
100
AcDbEntity
100
AcDbLine
  8
0
 62
256
370
-1
  6
ByLayer
 10
20.0
 20
5.0
 30
0.0
 11
20.0
 21
0.0
 31
0.0
  0
LINE
  5
5F
100
AcDbEntity
100
AcDbLine
  8
0
 62
256
370
-1
  6
ByLayer
 10
10.0
 20
5.0
 30
0.0
 11
20.0
 21
5.0
 31
0.0
  0
LINE
  5
60
100
AcDbEntity
100
AcDbLine
  8
0
 62
256
370
-1
  6
ByLayer
 10
10.0
 20
0.0
 30
0.0
 11
10.0
 21
5.0
 31
0.0
  0
LINE
  5
61
100
AcDbEntity
100
AcDbLine
  8
0
 62
256
370
-1
  6
ByLayer
 10
50.0
 20
5.0
 30
0.0
 11
60.0
 21
5.0
 31
0.0
  0
LINE
  5
62
100
AcDbEntity
100
AcDbLine
  8
0
 62
256
370
-1
  6
ByLayer
 10
60.0
 20
5.0
 30
0.0
 11
60.0
 21
0.0
 31
0.0
  0
LINE
  5
63
100
AcDbEntity
100
AcDbLine
  8
0
 62
256
370
-1
  6
ByLayer
 10
50.0
 20
0.0
 30
0.0
 11
50.0
 21
5.0
 31
0.0
  0
ENDBLK
  5
64
100
AcDbEntity
  8
0
100
AcDbBlockEnd
  0
BLOCK
  5
65
100
AcDbEntity
  8
0
100
AcDbBlockBegin
  2
slot
 70
0
 10
0.0
 20
0.0
 30
0.0
  3
slot
  1

  0
LINE
  5
66
100
AcDbEntity
100
AcDbLine
  8
0
 62
256
370
-1
  6
ByLayer
 10
5.0
 20
0.0
 30
0.0
 11
15.0
 21
0.0
 31
0.0
  0
LINE
  5
67
100
AcDbEntity
100
AcDbLine
  8
0
 62
256
370
-1
  6
ByLayer
 10
45.0
 20
-0.0000000000000019
 30
0.0
 11
55.0
 21
-0.0000000000000058
 31
0.0
  0
LINE
  5
68
100
AcDbEntity
100
AcDbLine
  8
0
 62
256
370
-1
  6
ByLayer
 10
45.0
 20
5.0
 30
0.0
 11
45.0
 21
0.0
 31
0.0
  0
LINE
  5
69
100
AcDbEntity
100
AcDbLine
  8
0
 62
256
370
-1
  6
ByLayer
 10
45.0
 20
5.0
 30
0.0
 11
55.0
 21
5.0
 31
0.0
  0
LINE
  5
6A
100
AcDbEntity
100
AcDbLine
  8
0
 62
256
370
-1
  6
ByLayer
 10
55.0
 20
0.0
 30
0.0
 11
55.0
 21
5.0
 31
0.0
  0
LINE
  5
6B
100
AcDbEntity
100
AcDbLine
  8
0
 62
256
370
-1
  6
ByLayer
 10
15.0
 20
0.0
 30
0.0
 11
15.0
 21
5.0
 31
0.0
  0
LINE
  5
6C
100
AcDbEntity
100
AcDbLine
  8
0
 62
256
370
-1
  6
ByLayer
 10
5.0
 20
5.0
 30
0.0
 11
15.0
 21
5.0
 31
0.0
  0
LINE
  5
6D
100
AcDbEntity
100
AcDbLine
  8
0
 62
256
370
-1
  6
ByLayer
 10
5.0
 20
5.0
 30
0.0
 11
5.0
 21
0.0
 31
0.0
  0
CIRCLE
  5
6E
100
AcDbEntity
100
AcDbCircle
  8
0
 62
256
370
-1
  6
ByLayer
 10
30.0
 20
2.5
 30
0.0
 40
1.5
  0
ENDBLK
  5
6F
100
AcDbEntity
  8
0
100
AcDbBlockEnd
  0
BLOCK
  5
70
100
AcDbEntity
  8
0
100
AcDbBlockBegin
  2
M6_c-0
 70
0
 10
0.0
 20
0.0
 30
0.0
  3
M6_c-0
  1

  0
ENDBLK
  5
71
100
AcDbEntity
  8
0
100
AcDbBlockEnd
  0
BLOCK
  5
72
100
AcDbEntity
  8
0
100
AcDbBlockBegin
  2
M6_c-1
 70
0
 10
0.0
 20
0.0
 30
0.0
  3
M6_c-1
  1

  0
ENDBLK
  5
73
100
AcDbEntity
  8
0
100
AcDbBlockEnd
  0
BLOCK
  5
74
100
AcDbEntity
  8
0
100
AcDbBlockBegin
  2
bearing hole and guides
 70
0
 10
0.0
 20
0.0
 30
0.0
  3
bearing hole and guides
  1

  0
CIRCLE
  5
75
100
AcDbEntity
100
AcDbCircle
  8
0
 62
256
370
-1
  6
ByLayer
 10
10.0
 20
10.0
 30
0.0
 40
1.5
  0
CIRCLE
  5
76
100
AcDbEntity
100
AcDbCircle
  8
0
 62
256
370
-1
  6
ByLayer
 10
10.0
 20
-10.0
 30
0.0
 40
1.5
  0
CIRCLE
  5
77
100
AcDbEntity
100
AcDbCircle
  8
0
 62
256
370
-1
  6
ByLayer
 10
-10.0
 20
-10.0
 30
0.0
 40
1.5
  0
CIRCLE
  5
78
100
AcDbEntity
100
AcDbCircle
  8
0
 62
256
370
-1
  6
ByLayer
 10
-10.0
 20
10.0
 30
0.0
 40
1.5
  0
CIRCLE
  5
79
100
AcDbEntity
100
AcDbCircle
  8
0
 62
256
370
-1
  6
ByLayer
 10
0.0
 20
0.0
 30
0.0
 40
11.0500000000000007
  0
ENDBLK
  5
7A
100
AcDbEntity
  8
0
100
AcDbBlockEnd
  0
BLOCK
  5
7B
100
AcDbEntity
  8
0
100
AcDbBlockBegin
  2
steppernema17
 70
0
 10
0.0
 20
0.0
 30
0.0
  3
steppernema17
  1

  0
CIRCLE
  5
7C
100
AcDbEntity
100
AcDbCircle
  8
0
 62
256
370
-1
  6
ByLayer
 10
0.0000000000000036
 20
0.0
 30
0.0
 40
11.0
  0
CIRCLE
  5
7D
100
AcDbEntity
100
AcDbCircle
  8
0
 62
256
370
-1
  6
ByLayer
 10
15.495000000000001
 20
15.4949999999999939
 30
0.0
 40
1.5
  0
CIRCLE
  5
7E
100
AcDbEntity
100
AcDbCircle
  8
0
 62
256
370
-1
  6
ByLayer
 10
15.4949999999999992
 20
-15.4950000000000045
 30
0.0
 40
1.5
  0
CIRCLE
  5
7F
100
AcDbEntity
100
AcDbCircle
  8
0
 62
256
370
-1
  6
ByLayer
 10
-15.495000000000001
 20
-15.4949999999999957
 30
0.0
 40
1.5
  0
CIRCLE
  5
80
100
AcDbEntity
100
AcDbCircle
  8
0
 62
256
370
-1
  6
ByLayer
 10
-15.4949999999999957
 20
15.4949999999999992
 30
0.0
 40
1.5
  0
ENDBLK
  5
81
100
AcDbEntity
  8
0
100
AcDbBlockEnd
  0
BLOCK
  5
82
100
AcDbEntity
  8
0
100
AcDbBlockBegin
  2
m8 holes
 70
0
 10
0.0
 20
0.0
 30
0.0
  3
m8 holes
  1

  0
CIRCLE
  5
83
100
AcDbEntity
100
AcDbCircle
  8
0
 62
256
370
-1
  6
ByLayer
 10
10.0
 20
10.0000000000000018
 30
0.0
 40
1.5
  0
CIRCLE
  5
84
100
AcDbEntity
100
AcDbCircle
  8
0
 62
256
370
-1
  6
ByLayer
 10
10.0
 20
-10.0000000000000018
 30
0.0
 40
1.5
  0
CIRCLE
  5
85
100
AcDbEntity
100
AcDbCircle
  8
0
 62
256
370
-1
  6
ByLayer
 10
-10.0000000000000018
 20
-10.0
 30
0.0
 40
1.5
  0
CIRCLE
  5
86
100
AcDbEntity
100
AcDbCircle
  8
0
 62
256
370
-1
  6
ByLayer
 10
-10.0
 20
10.0000000000000018
 30
0.0
 40
1.5
  0
CIRCLE
  5
87
100
AcDbEntity
100
AcDbCircle
  8
0
 62
256
370
-1
  6
ByLayer
 10
0.0
 20
0.0
 30
0.0
 40
3.1699999999999999
  0
ENDBLK
  5
88
100
AcDbEntity
  8
0
100
AcDbBlockEnd
  0
BLOCK
  5
89
100
AcDbEntity
  8
0
100
AcDbBlockBegin
  2
stepperdriverboardholes
 70
0
 10
0.0
 20
0.0
 30
0.0
  3
stepperdriverboardholes
  1

  0
CIRCLE
  5
8A
100
AcDbEntity
100
AcDbCircle
  8
0
 62
256
370
-1
  6
ByLayer
 10
-23.6200000000000045
 20
23.6200000000000081
 30
0.0
 40
1.5
  0
CIRCLE
  5
8B
100
AcDbEntity
100
AcDbCircle
  8
0
 62
256
370
-1
  6
ByLayer
 10
23.6200000000000045
 20
23.6200000000000081
 30
0.0
 40
1.5
  0
CIRCLE
  5
8C
100
AcDbEntity
100
AcDbCircle
  8
0
 62
256
370
-1
  6
ByLayer
 10
23.6200000000000045
 20
-23.6200000000000117
 30
0.0
 40
1.5
  0
CIRCLE
  5
8D
100
AcDbEntity
100
AcDbCircle
  8
0
 62
256
370
-1
  6
ByLayer
 10
-23.6200000000000045
 20
-23.6199999999999761
 30
0.0
 40
1.5
  0
ENDBLK
  5
8E
100
AcDbEntity
  8
0
100
AcDbBlockEnd
  0
BLOCK
  5
8F
100
AcDbEntity
  8
0
100
AcDbBlockBegin
  2
nut cut outs
 70
0
 10
0.0
 20
0.0
 30
0.0
  3
nut cut outs
  1

  0
CIRCLE
  5
90
100
AcDbEntity
100
AcDbCircle
  8
0
 62
256
370
-1
  6
ByLayer
 10
-10.0
 20
10.0
 30
0.0
 40
1.5
  0
CIRCLE
  5
91
100
AcDbEntity
100
AcDbCircle
  8
0
 62
256
370
-1
  6
ByLayer
 10
10.0
 20
10.0
 30
0.0
 40
1.5
  0
CIRCLE
  5
92
100
AcDbEntity
100
AcDbCircle
  8
0
 62
256
370
-1
  6
ByLayer
 10
10.0
 20
-10.0
 30
0.0
 40
1.5
  0
CIRCLE
  5
93
100
AcDbEntity
100
AcDbCircle
  8
0
 62
256
370
-1
  6
ByLayer
 10
-10.0
 20
-10.0
 30
0.0
 40
1.5
  0
LINE
  5
94
100
AcDbEntity
100
AcDbLine
  8
0
 62
256
370
-1
  6
ByLayer
 10
6.4750000000000005
 20
3.738343241828471
 30
0.0
 11
6.4749999999999925
 21
-15.9999999999999982
 31
0.0
  0
LINE
  5
95
100
AcDbEntity
100
AcDbLine
  8
0
 62
256
370
-1
  6
ByLayer
 10
0.0000000000000007
 20
7.476685487982313
 30
0.0
 11
6.4750000000000005
 21
3.738343241828471
 31
0.0
  0
LINE
  5
96
100
AcDbEntity
100
AcDbLine
  8
0
 62
256
370
-1
  6
ByLayer
 10
-6.4749999999999996
 20
3.7383432418284799
 30
0.0
 11
-6.4749999999999996
 21
-16.0
 31
0.0
  0
LINE
  5
97
100
AcDbEntity
100
AcDbLine
  8
0
 62
256
370
-1
  6
ByLayer
 10
0.0000000000000007
 20
7.476685487982313
 30
0.0
 11
-6.4749999999999996
 21
3.7383432418284799
 31
0.0
  0
ENDBLK
  5
98
100
AcDbEntity
  8
0
100
AcDbBlockEnd
  0
ENDSEC
  0
SECTION
  2
ENTITIES
  0
LINE
  5
99
100
AcDbEntity
100
AcDbLine
  8
0
 62
256
370
-1
  6
ByLayer
 10
-1130.0
 20
-1890.0000000001173248
 30
0.0
 11
-870.0
 21
-1890.0000000001173248
 31
0.0
  0
LINE
  5
9A
100
AcDbEntity
100
AcDbLine
  8
0
 62
256
370
-1
  6
ByLayer
 10
-870.0
 20
-1890.0000000001173248
 30
0.0
 11
-870.0
 21
-2040.0000000001175522
 31
0.0
  0
LINE
  5
9B
100
AcDbEntity
100
AcDbLine
  8
0
 62
256
370
-1
  6
ByLayer
 10
-870.0
 20
-2040.0000000001175522
 30
0.0
 11
-1130.0
 21
-2040.0000000001173248
 31
0.0
  0
LINE
  5
9C
100
AcDbEntity
100
AcDbLine
  8
0
 62
256
370
-1
  6
ByLayer
 10
-1130.0
 20
-2040.0000000001173248
 30
0.0
 11
-1130.0
 21
-1890.0000000001173248
 31
0.0
  0
INSERT
  5
9D
100
AcDbEntity
100
AcDbBlockReference
  8
0
 62
256
370
-1
  6
ByLayer
  2
tgrips
 10
-710.0
 20
-1880.0000000001175522
 30
0.0
 50
270.0
 44
1.0
 45
1.0
  0
INSERT
  5
9E
100
AcDbEntity
100
AcDbBlockReference
  8
0
 62
256
370
-1
  6
ByLayer
  2
tgrips
 10
-710.0
 20
-2050.0000000001173248
 30
0.0
 50
270.0
 44
1.0
 45
1.0
  0
INSERT
  5
9F
100
AcDbEntity
100
AcDbBlockReference
  8
0
 62
256
370
-1
  6
ByLayer
  2
tgrips
 10
-1290.0
 20
-1880.0000000001173248
 30
0.0
 41
1.0
 42
-1.0
 43
1.0
 50
270.0
 44
1.0
 45
1.0
  0
INSERT
  5
A0
100
AcDbEntity
100
AcDbBlockReference
  8
0
 62
256
370
-1
  6
ByLayer
  2
tgrips
 10
-1290.0
 20
-2050.0000000001173248
 30
0.0
 41
1.0
 42
-1.0
 43
1.0
 50
270.0
 44
1.0
 45
1.0
  0
INSERT
  5
A1
100
AcDbEntity
100
AcDbBlockReference
  8
0
 62
256
370
-1
  6
ByLayer
  2
tgrips
 10
-1034.9999999999997726
 20
-2140.0000000001177796
 30
0.0
 41
1.0
 42
-1.0
 43
1.0
 44
1.0
 45
1.0
  0
INSERT
  5
A2
100
AcDbEntity
100
AcDbBlockReference
  8
0
 62
256
370
-1
  6
ByLayer
  2
tgrips
 10
-965.0000000000002274
 20
-1860.000000000043201
 30
0.0
 41
1.0
 42
-1.0
 43
1.0
 50
180.0
 44
1.0
 45
1.0
  0
LINE
  5
A3
100
AcDbEntity
100
AcDbLine
  8
0
 62
256
370
-1
  6
ByLayer
 10
-1290.0
 20
-1860.0000000001173248
 30
0.0
 11
-1290.0
 21
-1880.0000000001173248
 31
0.0
  0
LINE
  5
A4
100
AcDbEntity
100
AcDbLine
  8
0
 62
256
370
-1
  6
ByLayer
 10
-1290.0
 20
-1950.0000000001173248
 30
0.0
 11
-1290.0
 21
-2050.0000000001173248
 31
0.0
  0
LINE
  5
A5
100
AcDbEntity
100
AcDbLine
  8
0
 62
256
370
-1
  6
ByLayer
 10
-1290.0
 20
-2120.0000000001173248
 30
0.0
 11
-1290.0
 21
-2140.0000000001173248
 31
0.0
  0
LINE
  5
A6
100
AcDbEntity
100
AcDbLine
  8
0
 62
256
370
-1
  6
ByLayer
 10
-710.0
 20
-1860.0000000001173248
 30
0.0
 11
-710.0
 21
-1880.0000000001175522
 31
0.0
  0
LINE
  5
A7
100
AcDbEntity
100
AcDbLine
  8
0
 62
256
370
-1
  6
ByLayer
 10
-710.0
 20
-1950.0000000001175522
 30
0.0
 11
-710.0
 21
-2050.0000000001173248
 31
0.0
  0
LINE
  5
A8
100
AcDbEntity
100
AcDbLine
  8
0
 62
256
370
-1
  6
ByLayer
 10
-710.0
 20
-2120.0000000001173248
 30
0.0
 11
-710.0
 21
-2140.0000000001173248
 31
0.0
  0
INSERT
  5
A9
100
AcDbEntity
100
AcDbBlockReference
  8
0
 62
256
370
-1
  6
ByLayer
  2
tgrips
 10
-1235.0000000000002274
 20
-2140.0000000001173248
 30
0.0
 41
1.0
 42
-1.0
 43
1.0
 44
1.0
 45
1.0
  0
INSERT
  5
AA
100
AcDbEntity
100
AcDbBlockReference
  8
0
 62
256
370
-1
  6
ByLayer
  2
tgrips
 10
-1165.0
 20
-1860.0000000001173248
 30
0.0
 41
1.0
 42
-1.0
 43
1.0
 50
180.0
 44
1.0
 45
1.0
  0
INSERT
  5
AB
100
AcDbEntity
100
AcDbBlockReference
  8
0
 62
256
370
-1
  6
ByLayer
  2
tgrips
 10
-835.0000000000001137
 20
-2140.0000000001173248
 30
0.0
 41
1.0
 42
-1.0
 43
1.0
 44
1.0
 45
1.0
  0
INSERT
  5
AC
100
AcDbEntity
100
AcDbBlockReference
  8
0
 62
256
370
-1
  6
ByLayer
  2
tgrips
 10
-764.9999999999997726
 20
-1859.9999999998822204
 30
0.0
 41
1.0
 42
-1.0
 43
1.0
 50
180.0
 44
1.0
 45
1.0
  0
LINE
  5
AD
100
AcDbEntity
100
AcDbLine
  8
0
 62
256
370
-1
  6
ByLayer
 10
-1290.0
 20
-1860.0000000001173248
 30
0.0
 11
-1235.0
 21
-1860.0000000001173248
 31
0.0
  0
LINE
  5
AE
100
AcDbEntity
100
AcDbLine
  8
0
 62
256
370
-1
  6
ByLayer
 10
-764.9999999999997726
 20
-1859.9999999998822204
 30
0.0
 11
-710.0
 21
-1860.0000000001173248
 31
0.0
  0
LINE
  5
AF
100
AcDbEntity
100
AcDbLine
  8
0
 62
256
370
-1
  6
ByLayer
 10
-965.0000000000002274
 20
-1860.000000000043201
 30
0.0
 11
-834.9999999999997726
 21
-1859.9999999998822204
 31
0.0
  0
LINE
  5
B0
100
AcDbEntity
100
AcDbLine
  8
0
 62
256
370
-1
  6
ByLayer
 10
-1165.0
 20
-1860.0000000001173248
 30
0.0
 11
-1035.0000000000002274
 21
-1860.000000000043201
 31
0.0
  0
LINE
  5
B1
100
AcDbEntity
100
AcDbLine
  8
0
 62
256
370
-1
  6
ByLayer
 10
-1290.0
 20
-2140.0000000001173248
 30
0.0
 11
-1235.0000000000002274
 21
-2140.0000000001173248
 31
0.0
  0
LINE
  5
B2
100
AcDbEntity
100
AcDbLine
  8
0
 62
256
370
-1
  6
ByLayer
 10
-1165.0000000000002274
 20
-2140.0000000001173248
 30
0.0
 11
-1034.9999999999997726
 21
-2140.0000000001177796
 31
0.0
  0
LINE
  5
B3
100
AcDbEntity
100
AcDbLine
  8
0
 62
256
370
-1
  6
ByLayer
 10
-964.9999999999997726
 20
-2140.0000000001177796
 30
0.0
 11
-835.0000000000001137
 21
-2140.0000000001173248
 31
0.0
  0
LINE
  5
B4
100
AcDbEntity
100
AcDbLine
  8
0
 62
256
370
-1
  6
ByLayer
 10
-765.0000000000001137
 20
-2140.0000000001173248
 30
0.0
 11
-710.0
 21
-2140.0000000001173248
 31
0.0
  0
LINE
  5
B5
100
AcDbEntity
100
AcDbLine
  8
0
 62
256
370
-1
  6
ByLayer
 10
-1290.0
 20
-2160.0
 30
0.0
 11
-710.0
 21
-2160.0
 31
0.0
  0
LINE
  5
B6
100
AcDbEntity
100
AcDbLine
  8
0
 62
256
370
-1
  6
ByLayer
 10
-710.0
 20
-2440.0
 30
0.0
 11
-1290.0
 21
-2440.0
 31
0.0
  0
INSERT
  5
B7
100
AcDbEntity
100
AcDbBlockReference
  8
0
 62
256
370
-1
  6
ByLayer
  2
slot
 10
-1170.0052742614259387
 20
-2164.9447302196595047
 30
0.0
 50
180.0
 44
1.0
 45
1.0
  0
INSERT
  5
B8
100
AcDbEntity
100
AcDbBlockReference
  8
0
 62
256
370
-1
  6
ByLayer
  2
slot
 10
-970.0052742614259387
 20
-2164.9447302196595047
 30
0.0
 50
180.0
 44
1.0
 45
1.0
  0
INSERT
  5
B9
100
AcDbEntity
100
AcDbBlockReference
  8
0
 62
256
370
-1
  6
ByLayer
  2
slot
 10
-770.0052742614259387
 20
-2164.9447302196595047
 30
0.0
 50
180.0
 44
1.0
 45
1.0
  0
INSERT
  5
BA
100
AcDbEntity
100
AcDbBlockReference
  8
0
 62
256
370
-1
  6
ByLayer
  2
slot
 10
-1170.0
 20
-2430.0
 30
0.0
 50
180.0
 44
1.0
 45
1.0
  0
INSERT
  5
BB
100
AcDbEntity
100
AcDbBlockReference
  8
0
 62
256
370
-1
  6
ByLayer
  2
slot
 10
-970.0
 20
-2429.9999999999990905
 30
0.0
 50
180.0
 44
1.0
 45
1.0
  0
INSERT
  5
BC
100
AcDbEntity
100
AcDbBlockReference
  8
0
 62
256
370
-1
  6
ByLayer
  2
slot
 10
-770.0000000000001137
 20
-2430.0000000000004547
 30
0.0
 50
180.0
 44
1.0
 45
1.0
  0
INSERT
  5
BD
100
AcDbEntity
100
AcDbBlockReference
  8
0
 62
256
370
-1
  6
ByLayer
  2
tgrips
 10
-710.0
 20
-2180.0000000000004547
 30
0.0
 50
270.0
 44
1.0
 45
1.0
  0
INSERT
  5
BE
100
AcDbEntity
100
AcDbBlockReference
  8
0
 62
256
370
-1
  6
ByLayer
  2
tgrips
 10
-710.0
 20
-2350.0
 30
0.0
 50
270.0
 44
1.0
 45
1.0
  0
INSERT
  5
BF
100
AcDbEntity
100
AcDbBlockReference
  8
0
 62
256
370
-1
  6
ByLayer
  2
tgrips
 10
-1290.0
 20
-2180.0
 30
0.0
 41
1.0
 42
-1.0
 43
1.0
 50
270.0
 44
1.0
 45
1.0
  0
INSERT
  5
C0
100
AcDbEntity
100
AcDbBlockReference
  8
0
 62
256
370
-1
  6
ByLayer
  2
tgrips
 10
-1290.0
 20
-2350.0
 30
0.0
 41
1.0
 42
-1.0
 43
1.0
 50
270.0
 44
1.0
 45
1.0
  0
LINE
  5
C1
100
AcDbEntity
100
AcDbLine
  8
0
 62
256
370
-1
  6
ByLayer
 10
-1290.0
 20
-2440.0
 30
0.0
 11
-1290.0
 21
-2420.0
 31
0.0
  0
LINE
  5
C2
100
AcDbEntity
100
AcDbLine
  8
0
 62
256
370
-1
  6
ByLayer
 10
-1290.0
 20
-2360.0
 30
0.0
 11
-1290.0
 21
-2360.0
 31
0.0
  0
LINE
  5
C3
100
AcDbEntity
100
AcDbLine
  8
0
 62
256
370
-1
  6
ByLayer
 10
-1290.0
 20
-2350.0
 30
0.0
 11
-1290.0
 21
-2250.0
 31
0.0
  0
LINE
  5
C4
100
AcDbEntity
100
AcDbLine
  8
0
 62
256
370
-1
  6
ByLayer
 10
-1290.0
 20
-2160.0
 30
0.0
 11
-1290.0
 21
-2180.0
 31
0.0
  0
LINE
  5
C5
100
AcDbEntity
100
AcDbLine
  8
0
 62
256
370
-1
  6
ByLayer
 10
-710.0
 20
-2420.0
 30
0.0
 11
-710.0
 21
-2440.0
 31
0.0
  0
LINE
  5
C6
100
AcDbEntity
100
AcDbLine
  8
0
 62
256
370
-1
  6
ByLayer
 10
-710.0
 20
-2250.0000000000004547
 30
0.0
 11
-710.0
 21
-2350.0
 31
0.0
  0
LINE
  5
C7
100
AcDbEntity
100
AcDbLine
  8
0
 62
256
370
-1
  6
ByLayer
 10
-710.0
 20
-2180.0000000000004547
 30
0.0
 11
-710.0
 21
-2160.0
 31
0.0
  0
LINE
  5
C8
100
AcDbEntity
100
AcDbLine
  8
0
 62
256
370
-1
  6
ByLayer
 10
-1290.0
 20
-2460.0
 30
0.0
 11
-710.0
 21
-2460.0
 31
0.0
  0
LINE
  5
C9
100
AcDbEntity
100
AcDbLine
  8
0
 62
256
370
-1
  6
ByLayer
 10
-710.0
 20
-2740.0
 30
0.0
 11
-1290.0
 21
-2740.0
 31
0.0
  0
INSERT
  5
CA
100
AcDbEntity
100
AcDbBlockReference
  8
0
 62
256
370
-1
  6
ByLayer
  2
slot
 10
-1170.0052742614259387
 20
-2464.9447302196595047
 30
0.0
 50
180.0
 44
1.0
 45
1.0
  0
INSERT
  5
CB
100
AcDbEntity
100
AcDbBlockReference
  8
0
 62
256
370
-1
  6
ByLayer
  2
slot
 10
-970.0052742614259387
 20
-2464.9447302196595047
 30
0.0
 50
180.0
 44
1.0
 45
1.0
  0
INSERT
  5
CC
100
AcDbEntity
100
AcDbBlockReference
  8
0
 62
256
370
-1
  6
ByLayer
  2
slot
 10
-770.0052742614259387
 20
-2464.9447302196595047
 30
0.0
 50
180.0
 44
1.0
 45
1.0
  0
INSERT
  5
CD
100
AcDbEntity
100
AcDbBlockReference
  8
0
 62
256
370
-1
  6
ByLayer
  2
slot
 10
-1170.0
 20
-2730.0
 30
0.0
 50
180.0
 44
1.0
 45
1.0
  0
INSERT
  5
CE
100
AcDbEntity
100
AcDbBlockReference
  8
0
 62
256
370
-1
  6
ByLayer
  2
slot
 10
-970.0
 20
-2729.9999999999990905
 30
0.0
 50
180.0
 44
1.0
 45
1.0
  0
INSERT
  5
CF
100
AcDbEntity
100
AcDbBlockReference
  8
0
 62
256
370
-1
  6
ByLayer
  2
slot
 10
-770.0000000000002274
 20
-2730.0000000000004547
 30
0.0
 50
180.0
 44
1.0
 45
1.0
  0
INSERT
  5
D0
100
AcDbEntity
100
AcDbBlockReference
  8
0
 62
256
370
-1
  6
ByLayer
  2
tgrips
 10
-710.0
 20
-2480.0000000000004547
 30
0.0
 50
270.0
 44
1.0
 45
1.0
  0
INSERT
  5
D1
100
AcDbEntity
100
AcDbBlockReference
  8
0
 62
256
370
-1
  6
ByLayer
  2
tgrips
 10
-710.0
 20
-2650.0
 30
0.0
 50
270.0
 44
1.0
 45
1.0
  0
INSERT
  5
D2
100
AcDbEntity
100
AcDbBlockReference
  8
0
 62
256
370
-1
  6
ByLayer
  2
tgrips
 10
-1290.0
 20
-2480.0
 30
0.0
 41
1.0
 42
-1.0
 43
1.0
 50
270.0
 44
1.0
 45
1.0
  0
INSERT
  5
D3
100
AcDbEntity
100
AcDbBlockReference
  8
0
 62
256
370
-1
  6
ByLayer
  2
tgrips
 10
-1290.0
 20
-2650.0
 30
0.0
 41
1.0
 42
-1.0
 43
1.0
 50
270.0
 44
1.0
 45
1.0
  0
LINE
  5
D4
100
AcDbEntity
100
AcDbLine
  8
0
 62
256
370
-1
  6
ByLayer
 10
-1290.0
 20
-2740.0
 30
0.0
 11
-1290.0
 21
-2720.0
 31
0.0
  0
LINE
  5
D5
100
AcDbEntity
100
AcDbLine
  8
0
 62
256
370
-1
  6
ByLayer
 10
-1290.0
 20
-2660.0
 30
0.0
 11
-1290.0
 21
-2660.0
 31
0.0
  0
LINE
  5
D6
100
AcDbEntity
100
AcDbLine
  8
0
 62
256
370
-1
  6
ByLayer
 10
-1290.0
 20
-2650.0
 30
0.0
 11
-1290.0
 21
-2550.0
 31
0.0
  0
LINE
  5
D7
100
AcDbEntity
100
AcDbLine
  8
0
 62
256
370
-1
  6
ByLayer
 10
-1290.0
 20
-2460.0
 30
0.0
 11
-1290.0
 21
-2480.0
 31
0.0
  0
LINE
  5
D8
100
AcDbEntity
100
AcDbLine
  8
0
 62
256
370
-1
  6
ByLayer
 10
-710.0
 20
-2720.0
 30
0.0
 11
-710.0
 21
-2740.0
 31
0.0
  0
LINE
  5
D9
100
AcDbEntity
100
AcDbLine
  8
0
 62
256
370
-1
  6
ByLayer
 10
-710.0
 20
-2550.0000000000004547
 30
0.0
 11
-710.0
 21
-2650.0
 31
0.0
  0
LINE
  5
DA
100
AcDbEntity
100
AcDbLine
  8
0
 62
256
370
-1
  6
ByLayer
 10
-710.0
 20
-2480.0000000000004547
 30
0.0
 11
-710.0
 21
-2460.0
 31
0.0
  0
INSERT
  5
DB
100
AcDbEntity
100
AcDbBlockReference
  8
0
 62
256
370
-1
  6
ByLayer
  2
steppernema17
 10
-733.0
 20
-2300.0
 30
0.0
 41
1.0
 42
-1.0
 43
1.0
 44
1.0
 45
1.0
  0
ARC
  5
DC
100
AcDbEntity
  8
0
 62
256
370
-1
  6
ByLayer
100
AcDbCircle
 10
-1278.5000000007919425
 20
-2292.0
 30
0.0
 40
4.0
100
AcDbArc
 50
90.0
 51
270.0
  0
ARC
  5
DD
100
AcDbEntity
  8
0
 62
256
370
-1
  6
ByLayer
100
AcDbCircle
 10
-1261.4999999992078301
 20
-2292.0
 30
0.0
 40
4.0
100
AcDbArc
 50
270.0
 51
90.0
  0
LINE
  5
DE
100
AcDbEntity
100
AcDbLine
  8
0
 62
256
370
-1
  6
ByLayer
 10
-1261.4999999992078301
 20
-2287.9999999999990905
 30
0.0
 11
-1278.5000000007921699
 21
-2288.0
 31
0.0
  0
LINE
  5
DF
100
AcDbEntity
100
AcDbLine
  8
0
 62
256
370
-1
  6
ByLayer
 10
-1278.5000000007917151
 20
-2296.0000000000009095
 30
0.0
 11
-1261.4999999992078301
 21
-2295.9999999999968168
 31
0.0
  0
LINE
  5
E0
100
AcDbEntity
100
AcDbLine
  8
0
 62
256
370
-1
  6
ByLayer
 10
-1100.0
 20
-2500.0
 30
0.0
 11
-900.0
 21
-2500.0
 31
0.0
  0
LINE
  5
E1
100
AcDbEntity
100
AcDbLine
  8
0
 62
256
370
-1
  6
ByLayer
 10
-900.0
 20
-2500.0
 30
0.0
 11
-900.0
 21
-2650.0
 31
0.0
  0
LINE
  5
E2
100
AcDbEntity
100
AcDbLine
  8
0
 62
256
370
-1
  6
ByLayer
 10
-900.0
 20
-2650.0
 30
0.0
 11
-1100.0
 21
-2650.0
 31
0.0
  0
LINE
  5
E3
100
AcDbEntity
100
AcDbLine
  8
0
 62
256
370
-1
  6
ByLayer
 10
-1100.0
 20
-2650.0
 30
0.0
 11
-1100.0
 21
-2500.0
 31
0.0
  0
INSERT
  5
E4
100
AcDbEntity
100
AcDbBlockReference
  8
0
 62
256
370
-1
  6
ByLayer
  2
tgrips
 10
-710.0
 20
-1580.0000000001175522
 30
0.0
 50
270.0
 44
1.0
 45
1.0
  0
INSERT
  5
E5
100
AcDbEntity
100
AcDbBlockReference
  8
0
 62
256
370
-1
  6
ByLayer
  2
tgrips
 10
-710.0
 20
-1750.0000000001170974
 30
0.0
 50
270.0
 44
1.0
 45
1.0
  0
INSERT
  5
E6
100
AcDbEntity
100
AcDbBlockReference
  8
0
 62
256
370
-1
  6
ByLayer
  2
tgrips
 10
-1290.0
 20
-1580.0000000001173248
 30
0.0
 41
1.0
 42
-1.0
 43
1.0
 50
270.0
 44
1.0
 45
1.0
  0
INSERT
  5
E7
100
AcDbEntity
100
AcDbBlockReference
  8
0
 62
256
370
-1
  6
ByLayer
  2
tgrips
 10
-1290.0
 20
-1750.0000000001170974
 30
0.0
 41
1.0
 42
-1.0
 43
1.0
 50
270.0
 44
1.0
 45
1.0
  0
INSERT
  5
E8
100
AcDbEntity
100
AcDbBlockReference
  8
0
 62
256
370
-1
  6
ByLayer
  2
tgrips
 10
-1034.9999999999997726
 20
-1840.0000000001177796
 30
0.0
 41
1.0
 42
-1.0
 43
1.0
 44
1.0
 45
1.0
  0
INSERT
  5
E9
100
AcDbEntity
100
AcDbBlockReference
  8
0
 62
256
370
-1
  6
ByLayer
  2
tgrips
 10
-965.0000000000002274
 20
-1560.000000000043201
 30
0.0
 41
1.0
 42
-1.0
 43
1.0
 50
180.0
 44
1.0
 45
1.0
  0
LINE
  5
EA
100
AcDbEntity
100
AcDbLine
  8
0
 62
256
370
-1
  6
ByLayer
 10
-1290.0
 20
-1560.0000000001173248
 30
0.0
 11
-1290.0
 21
-1580.0000000001173248
 31
0.0
  0
LINE
  5
EB
100
AcDbEntity
100
AcDbLine
  8
0
 62
256
370
-1
  6
ByLayer
 10
-1290.0
 20
-1650.0000000001175522
 30
0.0
 11
-1290.0
 21
-1750.0000000001170974
 31
0.0
  0
LINE
  5
EC
100
AcDbEntity
100
AcDbLine
  8
0
 62
256
370
-1
  6
ByLayer
 10
-1290.0
 20
-1820.0000000001173248
 30
0.0
 11
-1290.0
 21
-1840.0000000001173248
 31
0.0
  0
LINE
  5
ED
100
AcDbEntity
100
AcDbLine
  8
0
 62
256
370
-1
  6
ByLayer
 10
-710.0
 20
-1560.0000000001173248
 30
0.0
 11
-710.0
 21
-1580.0000000001175522
 31
0.0
  0
LINE
  5
EE
100
AcDbEntity
100
AcDbLine
  8
0
 62
256
370
-1
  6
ByLayer
 10
-710.0
 20
-1650.0000000001177796
 30
0.0
 11
-710.0
 21
-1750.0000000001170974
 31
0.0
  0
LINE
  5
EF
100
AcDbEntity
100
AcDbLine
  8
0
 62
256
370
-1
  6
ByLayer
 10
-710.0
 20
-1820.0000000001173248
 30
0.0
 11
-710.0
 21
-1840.0000000001175522
 31
0.0
  0
INSERT
  5
F0
100
AcDbEntity
100
AcDbBlockReference
  8
0
 62
256
370
-1
  6
ByLayer
  2
tgrips
 10
-1235.0000000000002274
 20
-1840.0000000001173248
 30
0.0
 41
1.0
 42
-1.0
 43
1.0
 44
1.0
 45
1.0
  0
INSERT
  5
F1
100
AcDbEntity
100
AcDbBlockReference
  8
0
 62
256
370
-1
  6
ByLayer
  2
tgrips
 10
-1165.0
 20
-1560.0000000001173248
 30
0.0
 41
1.0
 42
-1.0
 43
1.0
 50
180.0
 44
1.0
 45
1.0
  0
INSERT
  5
F2
100
AcDbEntity
100
AcDbBlockReference
  8
0
 62
256
370
-1
  6
ByLayer
  2
tgrips
 10
-835.0000000000001137
 20
-1840.0000000001173248
 30
0.0
 41
1.0
 42
-1.0
 43
1.0
 44
1.0
 45
1.0
  0
INSERT
  5
F3
100
AcDbEntity
100
AcDbBlockReference
  8
0
 62
256
370
-1
  6
ByLayer
  2
tgrips
 10
-764.9999999999997726
 20
-1559.9999999998822204
 30
0.0
 41
1.0
 42
-1.0
 43
1.0
 50
180.0
 44
1.0
 45
1.0
  0
LINE
  5
F4
100
AcDbEntity
100
AcDbLine
  8
0
 62
256
370
-1
  6
ByLayer
 10
-1290.0
 20
-1560.0000000001173248
 30
0.0
 11
-1235.0
 21
-1560.0000000001173248
 31
0.0
  0
LINE
  5
F5
100
AcDbEntity
100
AcDbLine
  8
0
 62
256
370
-1
  6
ByLayer
 10
-764.9999999999997726
 20
-1559.9999999998822204
 30
0.0
 11
-710.0
 21
-1560.0000000001173248
 31
0.0
  0
LINE
  5
F6
100
AcDbEntity
100
AcDbLine
  8
0
 62
256
370
-1
  6
ByLayer
 10
-965.0000000000002274
 20
-1560.000000000043201
 30
0.0
 11
-834.9999999999997726
 21
-1559.9999999998822204
 31
0.0
  0
LINE
  5
F7
100
AcDbEntity
100
AcDbLine
  8
0
 62
256
370
-1
  6
ByLayer
 10
-1165.0
 20
-1560.0000000001173248
 30
0.0
 11
-1035.0000000000002274
 21
-1560.000000000043201
 31
0.0
  0
LINE
  5
F8
100
AcDbEntity
100
AcDbLine
  8
0
 62
256
370
-1
  6
ByLayer
 10
-1290.0
 20
-1840.0000000001173248
 30
0.0
 11
-1235.0000000000002274
 21
-1840.0000000001173248
 31
0.0
  0
LINE
  5
F9
100
AcDbEntity
100
AcDbLine
  8
0
 62
256
370
-1
  6
ByLayer
 10
-1165.0000000000002274
 20
-1840.0000000001173248
 30
0.0
 11
-1034.9999999999997726
 21
-1840.0000000001177796
 31
0.0
  0
LINE
  5
FA
100
AcDbEntity
100
AcDbLine
  8
0
 62
256
370
-1
  6
ByLayer
 10
-964.9999999999997726
 20
-1840.0000000001177796
 30
0.0
 11
-835.0000000000001137
 21
-1840.0000000001173248
 31
0.0
  0
LINE
  5
FB
100
AcDbEntity
100
AcDbLine
  8
0
 62
256
370
-1
  6
ByLayer
 10
-765.0000000000001137
 20
-1840.0000000001173248
 30
0.0
 11
-710.0
 21
-1840.0000000001175522
 31
0.0
  0
LINE
  5
FC
100
AcDbEntity
100
AcDbLine
  8
0
 62
256
370
-1
  6
ByLayer
 10
-355.0
 20
-2455.0
 30
0.0
 11
-645.0
 21
-2455.0
 31
0.0
  0
LINE
  5
FD
100
AcDbEntity
100
AcDbLine
  8
0
 62
256
370
-1
  6
ByLayer
 10
-645.0
 20
-2455.0
 30
0.0
 11
-645.0
 21
-2745.0
 31
0.0
  0
LINE
  5
FE
100
AcDbEntity
100
AcDbLine
  8
0
 62
256
370
-1
  6
ByLayer
 10
-645.0
 20
-2745.0
 30
0.0
 11
-355.0
 21
-2745.0
 31
0.0
  0
LINE
  5
FF
100
AcDbEntity
100
AcDbLine
  8
0
 62
256
370
-1
  6
ByLayer
 10
-355.0
 20
-2745.0
 30
0.0
 11
-355.0
 21
-2455.0
 31
0.0
  0
INSERT
  5
100
100
AcDbEntity
100
AcDbBlockReference
  8
0
 62
256
370
-1
  6
ByLayer
  2
slot
 10
-640.0
 20
-2545.0
 30
0.0
 41
1.0
 42
-1.0
 43
1.0
 50
89.9999999999999858
 44
1.0
 45
1.0
  0
INSERT
  5
101
100
AcDbEntity
100
AcDbBlockReference
  8
0
 62
256
370
-1
  6
ByLayer
  2
slot
 10
-640.0
 20
-2715.0
 30
0.0
 41
1.0
 42
-1.0
 43
1.0
 50
89.9999999999999858
 44
1.0
 45
1.0
  0
INSERT
  5
102
100
AcDbEntity
100
AcDbBlockReference
  8
0
 62
256
370
-1
  6
ByLayer
  2
slot
 10
-365.0
 20
-2545.0
 30
0.0
 41
1.0
 42
-1.0
 43
1.0
 50
89.9999999999999858
 44
1.0
 45
1.0
  0
INSERT
  5
103
100
AcDbEntity
100
AcDbBlockReference
  8
0
 62
256
370
-1
  6
ByLayer
  2
slot
 10
-365.0
 20
-2715.0
 30
0.0
 41
1.0
 42
-1.0
 43
1.0
 50
89.9999999999999858
 44
1.0
 45
1.0
  0
INSERT
  5
104
100
AcDbEntity
100
AcDbBlockReference
  8
0
 62
256
370
-1
  6
ByLayer
  2
slot
 10
-445.0
 20
-2460.0
 30
0.0
 41
1.0
 42
-1.0
 43
1.0
 50
360.0
 44
1.0
 45
1.0
  0
INSERT
  5
105
100
AcDbEntity
100
AcDbBlockReference
  8
0
 62
256
370
-1
  6
ByLayer
  2
slot
 10
-615.0
 20
-2459.9999999999995453
 30
0.0
 41
1.0
 42
-1.0
 43
1.0
 50
360.0
 44
1.0
 45
1.0
  0
INSERT
  5
106
100
AcDbEntity
100
AcDbBlockReference
  8
0
 62
256
370
-1
  6
ByLayer
  2
slot
 10
-445.0
 20
-2735.0
 30
0.0
 41
1.0
 42
-1.0
 43
1.0
 50
360.0
 44
1.0
 45
1.0
  0
INSERT
  5
107
100
AcDbEntity
100
AcDbBlockReference
  8
0
 62
256
370
-1
  6
ByLayer
  2
slot
 10
-615.0
 20
-2735.0
 30
0.0
 41
1.0
 42
-1.0
 43
1.0
 50
360.0
 44
1.0
 45
1.0
  0
INSERT
  5
108
100
AcDbEntity
100
AcDbBlockReference
  8
0
 62
256
370
-1
  6
ByLayer
  2
m8 holes
 10
-580.0
 20
-2712.5
 30
0.0
 41
1.0
 42
-1.0
 43
1.0
 50
180.0
 44
1.0
 45
1.0
  0
INSERT
  5
109
100
AcDbEntity
100
AcDbBlockReference
  8
0
 62
256
370
-1
  6
ByLayer
  2
m8 holes
 10
-465.0000000000000568
 20
-2712.5
 30
0.0
 41
1.0
 42
-1.0
 43
1.0
 50
180.0
 44
1.0
 45
1.0
  0
LINE
  5
10A
100
AcDbEntity
100
AcDbLine
  8
0
 62
256
370
-1
  6
ByLayer
 10
-1645.0
 20
-2455.0
 30
0.0
 11
-1355.0
 21
-2455.0
 31
0.0
  0
LINE
  5
10B
100
AcDbEntity
100
AcDbLine
  8
0
 62
256
370
-1
  6
ByLayer
 10
-1355.0
 20
-2455.0
 30
0.0
 11
-1355.0
 21
-2745.0
 31
0.0
  0
LINE
  5
10C
100
AcDbEntity
100
AcDbLine
  8
0
 62
256
370
-1
  6
ByLayer
 10
-1645.0
 20
-2745.0
 30
0.0
 11
-1645.0
 21
-2455.0
 31
0.0
  0
INSERT
  5
10D
100
AcDbEntity
100
AcDbBlockReference
  8
0
 62
256
370
-1
  6
ByLayer
  2
slot
 10
-1360.0
 20
-2545.0
 30
0.0
 50
90.0
 44
1.0
 45
1.0
  0
INSERT
  5
10E
100
AcDbEntity
100
AcDbBlockReference
  8
0
 62
256
370
-1
  6
ByLayer
  2
slot
 10
-1360.0
 20
-2715.0
 30
0.0
 50
90.0
 44
1.0
 45
1.0
  0
INSERT
  5
10F
100
AcDbEntity
100
AcDbBlockReference
  8
0
 62
256
370
-1
  6
ByLayer
  2
slot
 10
-1635.0
 20
-2545.0
 30
0.0
 50
90.0
 44
1.0
 45
1.0
  0
INSERT
  5
110
100
AcDbEntity
100
AcDbBlockReference
  8
0
 62
256
370
-1
  6
ByLayer
  2
slot
 10
-1635.0
 20
-2715.0
 30
0.0
 50
90.0
 44
1.0
 45
1.0
  0
INSERT
  5
111
100
AcDbEntity
100
AcDbBlockReference
  8
0
 62
256
370
-1
  6
ByLayer
  2
slot
 10
-1555.0
 20
-2460.0
 30
0.0
 50
180.0
 44
1.0
 45
1.0
  0
INSERT
  5
112
100
AcDbEntity
100
AcDbBlockReference
  8
0
 62
256
370
-1
  6
ByLayer
  2
slot
 10
-1385.0
 20
-2460.0
 30
0.0
 50
180.0
 44
1.0
 45
1.0
  0
INSERT
  5
113
100
AcDbEntity
100
AcDbBlockReference
  8
0
 62
256
370
-1
  6
ByLayer
  2
slot
 10
-1555.0
 20
-2735.0
 30
0.0
 50
180.0
 44
1.0
 45
1.0
  0
INSERT
  5
114
100
AcDbEntity
100
AcDbBlockReference
  8
0
 62
256
370
-1
  6
ByLayer
  2
slot
 10
-1385.0
 20
-2735.0
 30
0.0
 50
180.0
 44
1.0
 45
1.0
  0
INSERT
  5
115
100
AcDbEntity
100
AcDbBlockReference
  8
0
 62
256
370
-1
  6
ByLayer
  2
m8 holes
 10
-1420.0
 20
-2712.5
 30
0.0
 44
1.0
 45
1.0
  0
INSERT
  5
116
100
AcDbEntity
100
AcDbBlockReference
  8
0
 62
256
370
-1
  6
ByLayer
  2
m8 holes
 10
-1535.0
 20
-2712.5
 30
0.0
 44
1.0
 45
1.0
  0
INSERT
  5
117
100
AcDbEntity
100
AcDbBlockReference
  8
0
 62
256
370
-1
  6
ByLayer
  2
stepperdriverboardholes
 10
-400.0
 20
-2660.0
 30
0.0
 44
1.0
 45
1.0
  0
INSERT
  5
118
100
AcDbEntity
100
AcDbBlockReference
  8
0
 62
256
370
-1
  6
ByLayer
  2
stepperdriverboardholes
 10
-399.9999999999999432
 20
-2600.0
 30
0.0
 44
1.0
 45
1.0
  0
INSERT
  5
119
100
AcDbEntity
100
AcDbBlockReference
  8
0
 62
256
370
-1
  6
ByLayer
  2
stepperdriverboardholes
 10
-400.0
 20
-2540.0
 30
0.0
 44
1.0
 45
1.0
  0
CIRCLE
  5
11A
100
AcDbEntity
100
AcDbCircle
  8
0
 62
256
370
-1
  6
ByLayer
 10
-490.0114572892525189
 20
-2683.5678411523776958
 30
0.0
 40
1.5
  0
CIRCLE
  5
11B
100
AcDbEntity
100
AcDbCircle
  8
0
 62
256
370
-1
  6
ByLayer
 10
-490.0114572892525189
 20
-2590.5678411523776958
 30
0.0
 40
1.5
  0
CIRCLE
  5
11C
100
AcDbEntity
100
AcDbCircle
  8
0
 62
256
370
-1
  6
ByLayer
 10
-568.0114572892530305
 20
-2683.5678411523776958
 30
0.0
 40
1.5
  0
INSERT
  5
11D
100
AcDbEntity
100
AcDbBlockReference
  8
0
 62
256
370
-1
  6
ByLayer
  2
slot
 10
-970.0
 20
-2490.0
 30
0.0
 50
180.0
 44
1.0
 45
1.0
  0
INSERT
  5
11E
100
AcDbEntity
100
AcDbBlockReference
  8
0
 62
256
370
-1
  6
ByLayer
  2
slot
 10
-970.0
 20
-2655.0
 30
0.0
 50
180.0
 44
1.0
 45
1.0
  0
ARC
  5
11F
100
AcDbEntity
  8
0
 62
256
370
-1
  6
ByLayer
100
AcDbCircle
 10
-1050.0059335440987525
 20
-2682.0211770376176901
 30
0.0
 40
4.0
100
AcDbArc
 50
0.0087313267415613
 51
179.3265263513997354
  0
LINE
  5
120
100
AcDbEntity
100
AcDbLine
  8
0
 62
256
370
-1
  6
ByLayer
 10
-1046.0059336369895391
 20
-2682.0205674760286456
 30
0.0
 11
-1046.0019779409230978
 21
-2707.978213400792356
 31
0.0
  0
ARC
  5
121
100
AcDbEntity
  8
0
 62
256
370
-1
  6
ByLayer
100
AcDbCircle
 10
-1050.0019778480318564
 20
-2707.9788229623814004
 30
0.0
 40
4.0
100
AcDbArc
 50
180.0081067157440771
 51
0.0087313267415613
  0
LINE
  5
122
100
AcDbEntity
100
AcDbLine
  8
0
 62
256
370
-1
  6
ByLayer
 10
-1054.0056572186108497
 20
-2681.9741607899227347
 30
0.0
 11
-1054.0019777679549406
 21
-2707.9793889178986319
 31
0.0
  0
LINE
  5
123
100
AcDbEntity
100
AcDbLine
  8
0
 62
256
370
-1
  6
ByLayer
 10
-954.0056437539167291
 20
-2682.0693251162720117
 30
0.0
 11
-954.0019778480318564
 21
-2707.9788229623818552
 31
0.0
  0
ARC
  5
124
100
AcDbEntity
  8
0
 62
256
370
-1
  6
ByLayer
100
AcDbCircle
 10
-950.0059335440987525
 20
-2682.0211770376181448
 30
0.0
 40
4.0
100
AcDbArc
 50
0.0087313267415613
 51
180.6896870800883903
  0
ARC
  5
125
100
AcDbEntity
  8
0
 62
256
370
-1
  6
ByLayer
100
AcDbCircle
 10
-950.0019778480318564
 20
-2707.9788229623818552
 30
0.0
 40
4.0
100
AcDbArc
 50
180.0
 51
0.0087313267415613
  0
LINE
  5
126
100
AcDbEntity
100
AcDbLine
  8
0
 62
256
370
-1
  6
ByLayer
 10
-946.0059336369899938
 20
-2682.0205674760291004
 30
0.0
 11
-946.0019779409236662
 21
-2707.9782134007928107
 31
0.0
  0
CIRCLE
  5
127
100
AcDbEntity
100
AcDbCircle
  8
0
 62
256
370
-1
  6
ByLayer
 10
-984.5049999999999955
 20
-2691.5050000000001091
 30
0.0
 40
1.5
  0
CIRCLE
  5
128
100
AcDbEntity
100
AcDbCircle
  8
0
 62
256
370
-1
  6
ByLayer
 10
-984.5049999999999955
 20
-2722.4950000000003456
 30
0.0
 40
1.5
  0
CIRCLE
  5
129
100
AcDbEntity
100
AcDbCircle
  8
0
 62
256
370
-1
  6
ByLayer
 10
-1015.4950000000000045
 20
-2722.4950000000003456
 30
0.0
 40
1.5
  0
CIRCLE
  5
12A
100
AcDbEntity
100
AcDbCircle
  8
0
 62
256
370
-1
  6
ByLayer
 10
-1015.4950000000000045
 20
-2691.5050000000001091
 30
0.0
 40
1.5
  0
CIRCLE
  5
12B
100
AcDbEntity
100
AcDbCircle
  8
0
 62
256
370
-1
  6
ByLayer
 10
-1000.0
 20
-2707.0
 30
0.0
 40
15.0
  0
INSERT
  5
12C
100
AcDbEntity
100
AcDbBlockReference
  8
0
 62
256
370
-1
  6
ByLayer
  2
slot
 10
-890.0
 20
-2605.0
 30
0.0
 50
90.0
 44
1.0
 45
1.0
  0
INSERT
  5
12D
100
AcDbEntity
100
AcDbBlockReference
  8
0
 62
256
370
-1
  6
ByLayer
  2
slot
 10
-1105.0
 20
-2605.0
 30
0.0
 50
90.0
 44
1.0
 45
1.0
  0
INSERT
  5
12E
100
AcDbEntity
100
AcDbBlockReference
  8
0
 62
256
370
-1
  6
ByLayer
  2
slot
 10
-970.0
 20
-2765.0
 30
0.0
 50
180.0
 44
1.0
 45
1.0
  0
INSERT
  5
12F
100
AcDbEntity
100
AcDbBlockReference
  8
0
 62
256
370
-1
  6
ByLayer
  2
slot
 10
-970.0
 20
-2930.0
 30
0.0
 50
180.0
 44
1.0
 45
1.0
  0
INSERT
  5
130
100
AcDbEntity
100
AcDbBlockReference
  8
0
 62
256
370
-1
  6
ByLayer
  2
tgrips
 10
-1100.0
 20
-2815.0
 30
0.0
 41
1.0
 42
-1.0
 43
1.0
 50
270.0
 44
1.0
 45
1.0
  0
INSERT
  5
131
100
AcDbEntity
100
AcDbBlockReference
  8
0
 62
256
370
-1
  6
ByLayer
  2
tgrips
 10
-900.0
 20
-2815.0
 30
0.0
 50
270.0
 44
1.0
 45
1.0
  0
LINE
  5
132
100
AcDbEntity
100
AcDbLine
  8
0
 62
256
370
-1
  6
ByLayer
 10
-900.0
 20
-2885.0
 30
0.0
 11
-900.0
 21
-2910.0
 31
0.0
  0
LINE
  5
133
100
AcDbEntity
100
AcDbLine
  8
0
 62
256
370
-1
  6
ByLayer
 10
-1100.0
 20
-2760.0
 30
0.0
 11
-1100.0
 21
-2815.0
 31
0.0
  0
LINE
  5
134
100
AcDbEntity
100
AcDbLine
  8
0
 62
256
370
-1
  6
ByLayer
 10
-900.0
 20
-2760.0
 30
0.0
 11
-900.0
 21
-2815.0
 31
0.0
  0
LINE
  5
135
100
AcDbEntity
100
AcDbLine
  8
0
 62
256
370
-1
  6
ByLayer
 10
-1100.0
 20
-2760.0
 30
0.0
 11
-900.0
 21
-2760.0
 31
0.0
  0
LINE
  5
136
100
AcDbEntity
100
AcDbLine
  8
0
 62
256
370
-1
  6
ByLayer
 10
-900.0
 20
-2885.0
 30
0.0
 11
-900.0
 21
-2940.0
 31
0.0
  0
LINE
  5
137
100
AcDbEntity
100
AcDbLine
  8
0
 62
256
370
-1
  6
ByLayer
 10
-1100.0
 20
-2940.0
 30
0.0
 11
-1100.0
 21
-2885.0
 31
0.0
  0
LINE
  5
138
100
AcDbEntity
100
AcDbLine
  8
0
 62
256
370
-1
  6
ByLayer
 10
-1100.0
 20
-2940.0
 30
0.0
 11
-900.0
 21
-2940.0
 31
0.0
  0
LINE
  5
139
100
AcDbEntity
100
AcDbLine
  8
0
 62
256
370
-1
  6
ByLayer
 10
-875.0
 20
-2912.5
 30
0.0
 11
-875.0
 21
-2782.5
 31
0.0
  0
LINE
  5
13A
100
AcDbEntity
100
AcDbLine
  8
0
 62
256
370
-1
  6
ByLayer
 10
-705.0
 20
-2912.5
 30
0.0
 11
-705.0
 21
-2782.5
 31
0.0
  0
LINE
  5
13B
100
AcDbEntity
100
AcDbLine
  8
0
 62
256
370
-1
  6
ByLayer
 10
-705.0
 20
-2782.5
 30
0.0
 11
-875.0
 21
-2782.5
 31
0.0
  0
INSERT
  5
13C
100
AcDbEntity
100
AcDbBlockReference
  8
0
 62
256
370
-1
  6
ByLayer
  2
tgrips
 10
-825.0
 20
-2912.5
 30
0.0
 41
1.0
 42
-1.0
 43
1.0
 44
1.0
 45
1.0
  0
INSERT
  5
13D
100
AcDbEntity
100
AcDbBlockReference
  8
0
 62
256
370
-1
  6
ByLayer
  2
slot
 10
-865.0
 20
-2882.5
 30
0.0
 50
90.0
 44
1.0
 45
1.0
  0
INSERT
  5
13E
100
AcDbEntity
100
AcDbBlockReference
  8
0
 62
256
370
-1
  6
ByLayer
  2
slot
 10
-710.0
 20
-2882.5
 30
0.0
 50
90.0
 44
1.0
 45
1.0
  0
INSERT
  5
13F
100
AcDbEntity
100
AcDbBlockReference
  8
0
 62
256
370
-1
  6
ByLayer
  2
slot
 10
-760.0
 20
-2787.5
 30
0.0
 50
180.0
 44
1.0
 45
1.0
  0
LINE
  5
140
100
AcDbEntity
100
AcDbLine
  8
0
 62
256
370
-1
  6
ByLayer
 10
-755.0
 20
-2912.5
 30
0.0
 11
-705.0
 21
-2912.5
 31
0.0
  0
LINE
  5
141
100
AcDbEntity
100
AcDbLine
  8
0
 62
256
370
-1
  6
ByLayer
 10
-825.0
 20
-2912.5
 30
0.0
 11
-875.0
 21
-2912.5
 31
0.0
  0
LINE
  5
142
100
AcDbEntity
100
AcDbLine
  8
0
 62
256
370
-1
  6
ByLayer
 10
-1295.0
 20
-2912.5
 30
0.0
 11
-1295.0
 21
-2782.5
 31
0.0
  0
LINE
  5
143
100
AcDbEntity
100
AcDbLine
  8
0
 62
256
370
-1
  6
ByLayer
 10
-1125.0
 20
-2912.5
 30
0.0
 11
-1125.0
 21
-2782.5
 31
0.0
  0
LINE
  5
144
100
AcDbEntity
100
AcDbLine
  8
0
 62
256
370
-1
  6
ByLayer
 10
-1125.0
 20
-2782.5
 30
0.0
 11
-1295.0
 21
-2782.5
 31
0.0
  0
INSERT
  5
145
100
AcDbEntity
100
AcDbBlockReference
  8
0
 62
256
370
-1
  6
ByLayer
  2
tgrips
 10
-1245.0
 20
-2912.5
 30
0.0
 41
1.0
 42
-1.0
 43
1.0
 44
1.0
 45
1.0
  0
INSERT
  5
146
100
AcDbEntity
100
AcDbBlockReference
  8
0
 62
256
370
-1
  6
ByLayer
  2
slot
 10
-1285.0
 20
-2882.5
 30
0.0
 50
90.0
 44
1.0
 45
1.0
  0
INSERT
  5
147
100
AcDbEntity
100
AcDbBlockReference
  8
0
 62
256
370
-1
  6
ByLayer
  2
slot
 10
-1130.0
 20
-2882.5
 30
0.0
 50
90.0
 44
1.0
 45
1.0
  0
INSERT
  5
148
100
AcDbEntity
100
AcDbBlockReference
  8
0
 62
256
370
-1
  6
ByLayer
  2
slot
 10
-1180.0
 20
-2787.5
 30
0.0
 50
180.0
 44
1.0
 45
1.0
  0
LINE
  5
149
100
AcDbEntity
100
AcDbLine
  8
0
 62
256
370
-1
  6
ByLayer
 10
-1175.0
 20
-2912.5
 30
0.0
 11
-1125.0
 21
-2912.5
 31
0.0
  0
LINE
  5
14A
100
AcDbEntity
100
AcDbLine
  8
0
 62
256
370
-1
  6
ByLayer
 10
-1245.0
 20
-2912.5
 30
0.0
 11
-1295.0
 21
-2912.5
 31
0.0
  0
INSERT
  5
14B
100
AcDbEntity
100
AcDbBlockReference
  8
0
 62
256
370
-1
  6
ByLayer
  2
tgrips
 10
-625.0
 20
-2910.0
 30
0.0
 41
1.0
 42
-1.0
 43
1.0
 44
1.0
 45
1.0
  0
INSERT
  5
14C
100
AcDbEntity
100
AcDbBlockReference
  8
0
 62
256
370
-1
  6
ByLayer
  2
tgrips
 10
-555.0
 20
-2790.0
 30
0.0
 41
1.0
 42
-1.0
 43
1.0
 50
180.0
 44
1.0
 45
1.0
  0
INSERT
  5
14D
100
AcDbEntity
100
AcDbBlockReference
  8
0
 62
256
370
-1
  6
ByLayer
  2
tgrips
 10
-690.0
 20
-2815.0
 30
0.0
 41
1.0
 42
-1.0
 43
1.0
 50
270.0
 44
1.0
 45
1.0
  0
INSERT
  5
14E
100
AcDbEntity
100
AcDbBlockReference
  8
0
 62
256
370
-1
  6
ByLayer
  2
tgrips
 10
-490.0
 20
-2815.0
 30
0.0
 50
270.0
 44
1.0
 45
1.0
  0
LINE
  5
14F
100
AcDbEntity
100
AcDbLine
  8
0
 62
256
370
-1
  6
ByLayer
 10
-690.0
 20
-2910.0
 30
0.0
 11
-690.0
 21
-2885.0
 31
0.0
  0
LINE
  5
150
100
AcDbEntity
100
AcDbLine
  8
0
 62
256
370
-1
  6
ByLayer
 10
-690.0
 20
-2790.0
 30
0.0
 11
-690.0
 21
-2815.0
 31
0.0
  0
LINE
  5
151
100
AcDbEntity
100
AcDbLine
  8
0
 62
256
370
-1
  6
ByLayer
 10
-490.0
 20
-2910.0
 30
0.0
 11
-555.0
 21
-2910.0
 31
0.0
  0
LINE
  5
152
100
AcDbEntity
100
AcDbLine
  8
0
 62
256
370
-1
  6
ByLayer
 10
-555.0
 20
-2790.0
 30
0.0
 11
-490.0
 21
-2790.0
 31
0.0
  0
LINE
  5
153
100
AcDbEntity
100
AcDbLine
  8
0
 62
256
370
-1
  6
ByLayer
 10
-490.0
 20
-2885.0
 30
0.0
 11
-490.0
 21
-2910.0
 31
0.0
  0
LINE
  5
154
100
AcDbEntity
100
AcDbLine
  8
0
 62
256
370
-1
  6
ByLayer
 10
-625.0
 20
-2790.0
 30
0.0
 11
-690.0
 21
-2790.0
 31
0.0
  0
LINE
  5
155
100
AcDbEntity
100
AcDbLine
  8
0
 62
256
370
-1
  6
ByLayer
 10
-690.0
 20
-2910.0
 30
0.0
 11
-625.0
 21
-2910.0
 31
0.0
  0
LINE
  5
156
100
AcDbEntity
100
AcDbLine
  8
0
 62
256
370
-1
  6
ByLayer
 10
-490.0
 20
-2790.0
 30
0.0
 11
-490.0
 21
-2815.0
 31
0.0
  0
LINE
  5
157
100
AcDbEntity
100
AcDbLine
  8
0
 62
256
370
-1
  6
ByLayer
 10
-490.0
 20
-2885.0
 30
0.0
 11
-490.0
 21
-2910.0
 31
0.0
  0
INSERT
  5
158
100
AcDbEntity
100
AcDbBlockReference
  8
0
 62
256
370
-1
  6
ByLayer
  2
bearing hole and guides
 10
-1130.0
 20
-2190.0
 30
0.0
 50
90.0
 44
1.0
 45
1.0
  0
INSERT
  5
159
100
AcDbEntity
100
AcDbBlockReference
  8
0
 62
256
370
-1
  6
ByLayer
  2
bearing hole and guides
 10
-870.0
 20
-2190.0
 30
0.0
 50
90.0
 44
1.0
 45
1.0
  0
INSERT
  5
15A
100
AcDbEntity
100
AcDbBlockReference
  8
0
 62
256
370
-1
  6
ByLayer
  2
bearing hole and guides
 10
-1130.0
 20
-2410.0
 30
0.0
 50
90.0
 44
1.0
 45
1.0
  0
INSERT
  5
15B
100
AcDbEntity
100
AcDbBlockReference
  8
0
 62
256
370
-1
  6
ByLayer
  2
bearing hole and guides
 10
-870.0
 20
-2410.0
 30
0.0
 50
90.0
 44
1.0
 45
1.0
  0
INSERT
  5
15C
100
AcDbEntity
100
AcDbBlockReference
  8
0
 62
256
370
-1
  6
ByLayer
  2
bearing hole and guides
 10
-1130.0
 20
-2490.0
 30
0.0
 50
90.0
 44
1.0
 45
1.0
  0
INSERT
  5
15D
100
AcDbEntity
100
AcDbBlockReference
  8
0
 62
256
370
-1
  6
ByLayer
  2
bearing hole and guides
 10
-870.0
 20
-2490.0
 30
0.0
 50
90.0
 44
1.0
 45
1.0
  0
INSERT
  5
15E
100
AcDbEntity
100
AcDbBlockReference
  8
0
 62
256
370
-1
  6
ByLayer
  2
bearing hole and guides
 10
-1130.0
 20
-2710.0
 30
0.0
 50
90.0
 44
1.0
 45
1.0
  0
INSERT
  5
15F
100
AcDbEntity
100
AcDbBlockReference
  8
0
 62
256
370
-1
  6
ByLayer
  2
bearing hole and guides
 10
-870.0
 20
-2710.0
 30
0.0
 50
90.0
 44
1.0
 45
1.0
  0
INSERT
  5
160
100
AcDbEntity
100
AcDbBlockReference
  8
0
 62
256
370
-1
  6
ByLayer
  2
nut cut outs
 10
-632.0
 20
-1892.5
 30
0.0
 50
270.0
 44
1.0
 45
1.0
  0
LINE
  5
161
100
AcDbEntity
100
AcDbLine
  8
0
 62
256
370
-1
  6
ByLayer
 10
-352.0000000000002274
 20
-1872.5
 30
0.0
 11
-352.0000000000002274
 21
-1872.5
 31
0.0
  0
INSERT
  5
162
100
AcDbEntity
100
AcDbBlockReference
  8
0
 62
256
370
-1
  6
ByLayer
  2
nut cut outs
 10
-372.0
 20
-1892.5
 30
0.0
 50
90.0
 44
1.0
 45
1.0
  0
CIRCLE
  5
163
100
AcDbEntity
100
AcDbCircle
  8
0
 62
256
370
-1
  6
ByLayer
 10
-450.0
 20
-2002.5
 30
0.0
 40
2.5
  0
CIRCLE
  5
164
100
AcDbEntity
100
AcDbCircle
  8
0
 62
256
370
-1
  6
ByLayer
 10
-415.0
 20
-2002.4999999999997726
 30
0.0
 40
2.5
  0
CIRCLE
  5
165
100
AcDbEntity
100
AcDbCircle
  8
0
 62
256
370
-1
  6
ByLayer
 10
-589.0
 20
-2002.5000000000004547
 30
0.0
 40
2.5
  0
CIRCLE
  5
166
100
AcDbEntity
100
AcDbCircle
  8
0
 62
256
370
-1
  6
ByLayer
 10
-554.0
 20
-2002.5
 30
0.0
 40
2.5
  0
LINE
  5
167
100
AcDbEntity
100
AcDbLine
  8
0
 62
256
370
-1
  6
ByLayer
 10
-467.0000000079883193
 20
-2002.5005287673766361
 30
0.0
 11
-467.0000000079883193
 21
-2002.5005287673766361
 31
0.0
  0
INSERT
  5
168
100
AcDbEntity
100
AcDbBlockReference
  8
0
 62
256
370
-1
  6
ByLayer
  2
nut cut outs
 10
-632.0
 20
-2112.5
 30
0.0
 50
270.0
 44
1.0
 45
1.0
  0
INSERT
  5
169
100
AcDbEntity
100
AcDbBlockReference
  8
0
 62
256
370
-1
  6
ByLayer
  2
nut cut outs
 10
-372.0
 20
-2112.5
 30
0.0
 50
90.0
 44
1.0
 45
1.0
  0
LINE
  5
16A
100
AcDbEntity
100
AcDbLine
  8
0
 62
256
370
-1
  6
ByLayer
 10
-648.0
 20
-1898.8700000000003456
 30
0.0
 11
-648.0
 21
-2106.0250000000000909
 31
0.0
  0
LINE
  5
16B
100
AcDbEntity
100
AcDbLine
  8
0
 62
256
370
-1
  6
ByLayer
 10
-356.0001214456099774
 20
-2106.0250000000000909
 30
0.0
 11
-356.0
 21
-1898.9749999999999091
 31
0.0
  0
ARC
  5
16C
100
AcDbEntity
  8
0
 62
256
370
-1
  6
ByLayer
100
AcDbCircle
 10
-645.0
 20
-1880.5
 30
0.0
 40
3.0
100
AcDbArc
 50
90.0
 51
180.0
  0
LINE
  5
16D
100
AcDbEntity
100
AcDbLine
  8
0
 62
256
370
-1
  6
ByLayer
 10
-356.0
 20
-1886.0250000000000909
 30
0.0
 11
-356.0
 21
-1880.5
 31
0.0
  0
LINE
  5
16E
100
AcDbEntity
100
AcDbLine
  8
0
 62
256
370
-1
  6
ByLayer
 10
-645.0
 20
-1877.5
 30
0.0
 11
-359.0
 21
-1877.5
 31
0.0
  0
ARC
  5
16F
100
AcDbEntity
  8
0
 62
256
370
-1
  6
ByLayer
100
AcDbCircle
 10
-359.0
 20
-1880.5
 30
0.0
 40
3.0
100
AcDbArc
 50
0.0
 51
90.0
  0
LINE
  5
170
100
AcDbEntity
100
AcDbLine
  8
0
 62
256
370
-1
  6
ByLayer
 10
-648.0
 20
-2118.9749999999999091
 30
0.0
 11
-648.0
 21
-2124.5
 31
0.0
  0
ARC
  5
171
100
AcDbEntity
  8
0
 62
256
370
-1
  6
ByLayer
100
AcDbCircle
 10
-645.0
 20
-2124.5
 30
0.0
 40
3.0
100
AcDbArc
 50
180.0
 51
270.0
  0
LINE
  5
172
100
AcDbEntity
100
AcDbLine
  8
0
 62
256
370
-1
  6
ByLayer
 10
-356.0
 20
-2118.9749999999999091
 30
0.0
 11
-356.0000000000001137
 21
-2124.5
 31
0.0
  0
ARC
  5
173
100
AcDbEntity
  8
0
 62
256
370
-1
  6
ByLayer
100
AcDbCircle
 10
-359.0
 20
-2124.5
 30
0.0
 40
3.0
100
AcDbArc
 50
270.0
 51
0.0
  0
LINE
  5
174
100
AcDbEntity
100
AcDbLine
  8
0
 62
256
370
-1
  6
ByLayer
 10
-464.0
 20
-2127.5
 30
0.0
 11
-359.0000000000001137
 21
-2127.5
 31
0.0
  0
LINE
  5
175
100
AcDbEntity
100
AcDbLine
  8
0
 62
256
370
-1
  6
ByLayer
 10
-467.0
 20
-2002.5
 30
0.0
 11
-467.0
 21
-2124.5
 31
0.0
  0
ARC
  5
176
100
AcDbEntity
  8
0
 62
256
370
-1
  6
ByLayer
100
AcDbCircle
 10
-464.0000000000000568
 20
-2124.5
 30
0.0
 40
3.0
100
AcDbArc
 50
180.0
 51
270.0
  0
LINE
  5
177
100
AcDbEntity
100
AcDbLine
  8
0
 62
256
370
-1
  6
ByLayer
 10
-537.0
 20
-2002.5
 30
0.0
 11
-537.0000000000001137
 21
-2124.5
 31
0.0
  0
LINE
  5
178
100
AcDbEntity
100
AcDbLine
  8
0
 62
256
370
-1
  6
ByLayer
 10
-645.0
 20
-2127.5
 30
0.0
 11
-540.0
 21
-2127.5
 31
0.0
  0
ARC
  5
179
100
AcDbEntity
  8
0
 62
256
370
-1
  6
ByLayer
100
AcDbCircle
 10
-540.0
 20
-2124.5
 30
0.0
 40
3.0
100
AcDbArc
 50
270.0
 51
0.0
  0
LINE
  5
17A
100
AcDbEntity
100
AcDbLine
  8
0
 62
256
370
-1
  6
ByLayer
 10
-648.0
 20
-1880.5
 30
0.0
 11
-648.0
 21
-1886.1200000000003456
 31
0.0
  0
ARC
  5
17B
100
AcDbEntity
  8
0
 62
256
370
-1
  6
ByLayer
100
AcDbCircle
 10
-502.0
 20
-2002.5
 30
0.0
 40
35.0
100
AcDbArc
 50
359.9991343956192509
 51
0.0
  0
LINE
  5
17C
100
AcDbEntity
100
AcDbLine
  8
0
 62
256
370
-1
  6
ByLayer
 10
-537.0
 20
-1955.5
 30
0.0
 11
-537.0
 21
-2002.5
 31
0.0
  0
ARC
  5
17D
100
AcDbEntity
  8
0
 62
256
370
-1
  6
ByLayer
100
AcDbCircle
 10
-534.0
 20
-1955.5
 30
0.0
 40
3.0
100
AcDbArc
 50
90.0
 51
180.0
  0
LINE
  5
17E
100
AcDbEntity
100
AcDbLine
  8
0
 62
256
370
-1
  6
ByLayer
 10
-470.0
 20
-1952.5
 30
0.0
 11
-534.0
 21
-1952.5
 31
0.0
  0
LINE
  5
17F
100
AcDbEntity
100
AcDbLine
  8
0
 62
256
370
-1
  6
ByLayer
 10
-467.0
 20
-2002.5
 30
0.0
 11
-467.0
 21
-1955.5
 31
0.0
  0
ARC
  5
180
100
AcDbEntity
  8
0
 62
256
370
-1
  6
ByLayer
100
AcDbCircle
 10
-470.0
 20
-1955.5
 30
0.0
 40
3.0
100
AcDbArc
 50
0.0
 51
90.0
  0
CIRCLE
  5
181
100
AcDbEntity
100
AcDbCircle
  8
0
 62
256
370
-1
  6
ByLayer
 10
-450.0
 20
-2032.5
 30
0.0
 40
2.5
  0
CIRCLE
  5
182
100
AcDbEntity
100
AcDbCircle
  8
0
 62
256
370
-1
  6
ByLayer
 10
-415.0
 20
-2032.5
 30
0.0
 40
2.5
  0
CIRCLE
  5
183
100
AcDbEntity
100
AcDbCircle
  8
0
 62
256
370
-1
  6
ByLayer
 10
-589.0
 20
-2032.5
 30
0.0
 40
2.5
  0
CIRCLE
  5
184
100
AcDbEntity
100
AcDbCircle
  8
0
 62
256
370
-1
  6
ByLayer
 10
-554.0
 20
-2032.5
 30
0.0
 40
2.5
  0
CIRCLE
  5
185
100
AcDbEntity
100
AcDbCircle
  8
0
 62
256
370
-1
  6
ByLayer
 10
-450.0
 20
-1972.5
 30
0.0
 40
2.5
  0
CIRCLE
  5
186
100
AcDbEntity
100
AcDbCircle
  8
0
 62
256
370
-1
  6
ByLayer
 10
-415.0
 20
-1972.5
 30
0.0
 40
2.5
  0
CIRCLE
  5
187
100
AcDbEntity
100
AcDbCircle
  8
0
 62
256
370
-1
  6
ByLayer
 10
-589.0
 20
-1972.5
 30
0.0
 40
2.5
  0
CIRCLE
  5
188
100
AcDbEntity
100
AcDbCircle
  8
0
 62
256
370
-1
  6
ByLayer
 10
-554.0
 20
-1972.5
 30
0.0
 40
2.5
  0
CIRCLE
  5
189
100
AcDbEntity
100
AcDbCircle
  8
0
 62
256
370
-1
  6
ByLayer
 10
-522.0
 20
-1942.5
 30
0.0
 40
2.5
  0
CIRCLE
  5
18A
100
AcDbEntity
100
AcDbCircle
  8
0
 62
256
370
-1
  6
ByLayer
 10
-482.0
 20
-1942.5
 30
0.0
 40
2.5
  0
CIRCLE
  5
18B
100
AcDbEntity
100
AcDbCircle
  8
0
 62
256
370
-1
  6
ByLayer
 10
-1600.0
 20
-2400.0
 30
0.0
 40
8.0622577482985491
  0
ARC
  5
18C
100
AcDbEntity
  8
0
 62
256
370
-1
  6
ByLayer
100
AcDbCircle
 10
-1610.0
 20
-2410.0
 30
0.0
 40
10.0
100
AcDbArc
 50
180.0
 51
270.0
  0
ARC
  5
18D
100
AcDbEntity
  8
0
 62
256
370
-1
  6
ByLayer
100
AcDbCircle
 10
-1610.0
 20
-2390.0
 30
0.0
 40
10.0
100
AcDbArc
 50
90.0
 51
180.0
  0
ARC
  5
18E
100
AcDbEntity
  8
0
 62
256
370
-1
  6
ByLayer
100
AcDbCircle
 10
-1590.0
 20
-2410.0
 30
0.0
 40
10.0
100
AcDbArc
 50
270.0
 51
360.0
  0
ARC
  5
18F
100
AcDbEntity
  8
0
 62
256
370
-1
  6
ByLayer
100
AcDbCircle
 10
-1590.0
 20
-2390.0
 30
0.0
 40
10.0
100
AcDbArc
 50
360.0
 51
90.0
  0
CIRCLE
  5
190
100
AcDbEntity
100
AcDbCircle
  8
0
 62
256
370
-1
  6
ByLayer
 10
-1610.0
 20
-2410.0
 30
0.0
 40
1.5
  0
CIRCLE
  5
191
100
AcDbEntity
100
AcDbCircle
  8
0
 62
256
370
-1
  6
ByLayer
 10
-1610.0
 20
-2390.0
 30
0.0
 40
1.5
  0
CIRCLE
  5
192
100
AcDbEntity
100
AcDbCircle
  8
0
 62
256
370
-1
  6
ByLayer
 10
-1590.0
 20
-2390.0
 30
0.0
 40
1.5
  0
CIRCLE
  5
193
100
AcDbEntity
100
AcDbCircle
  8
0
 62
256
370
-1
  6
ByLayer
 10
-1590.0
 20
-2410.0
 30
0.0
 40
1.5
  0
LINE
  5
194
100
AcDbEntity
100
AcDbLine
  8
0
 62
256
370
-1
  6
ByLayer
 10
-1610.0
 20
-2380.0
 30
0.0
 11
-1590.0
 21
-2380.0
 31
0.0
  0
LINE
  5
195
100
AcDbEntity
100
AcDbLine
  8
0
 62
256
370
-1
  6
ByLayer
 10
-1580.0
 20
-2390.0
 30
0.0
 11
-1580.0
 21
-2410.0
 31
0.0
  0
LINE
  5
196
100
AcDbEntity
100
AcDbLine
  8
0
 62
256
370
-1
  6
ByLayer
 10
-1590.0
 20
-2420.0
 30
0.0
 11
-1610.0
 21
-2420.0
 31
0.0
  0
LINE
  5
197
100
AcDbEntity
100
AcDbLine
  8
0
 62
256
370
-1
  6
ByLayer
 10
-1620.0
 20
-2410.0
 30
0.0
 11
-1620.0
 21
-2390.0
 31
0.0
  0
CIRCLE
  5
198
100
AcDbEntity
100
AcDbCircle
  8
0
 62
256
370
-1
  6
ByLayer
 10
-1390.0
 20
-2390.0
 30
0.0
 40
1.5
  0
CIRCLE
  5
199
100
AcDbEntity
100
AcDbCircle
  8
0
 62
256
370
-1
  6
ByLayer
 10
-1390.0
 20
-2410.0
 30
0.0
 40
1.5
  0
CIRCLE
  5
19A
100
AcDbEntity
100
AcDbCircle
  8
0
 62
256
370
-1
  6
ByLayer
 10
-1410.0
 20
-2410.0
 30
0.0
 40
1.5
  0
CIRCLE
  5
19B
100
AcDbEntity
100
AcDbCircle
  8
0
 62
256
370
-1
  6
ByLayer
 10
-1410.0
 20
-2390.0
 30
0.0
 40
1.5
  0
ARC
  5
19C
100
AcDbEntity
  8
0
 62
256
370
-1
  6
ByLayer
100
AcDbCircle
 10
-1390.0
 20
-2390.0
 30
0.0
 40
5.0
100
AcDbArc
 50
360.0
 51
90.0
  0
ARC
  5
19D
100
AcDbEntity
  8
0
 62
256
370
-1
  6
ByLayer
100
AcDbCircle
 10
-1390.0
 20
-2410.0
 30
0.0
 40
5.0
100
AcDbArc
 50
270.0
 51
360.0
  0
ARC
  5
19E
100
AcDbEntity
  8
0
 62
256
370
-1
  6
ByLayer
100
AcDbCircle
 10
-1410.0
 20
-2410.0
 30
0.0
 40
5.0
100
AcDbArc
 50
180.0
 51
270.0
  0
ARC
  5
19F
100
AcDbEntity
  8
0
 62
256
370
-1
  6
ByLayer
100
AcDbCircle
 10
-1410.0
 20
-2390.0
 30
0.0
 40
5.0
100
AcDbArc
 50
90.0
 51
180.0
  0
LINE
  5
1A0
100
AcDbEntity
100
AcDbLine
  8
0
 62
256
370
-1
  6
ByLayer
 10
-1415.0
 20
-2395.0
 30
0.0
 11
-1400.0
 21
-2395.0
 31
0.0
  0
LINE
  5
1A1
100
AcDbEntity
100
AcDbLine
  8
0
 62
256
370
-1
  6
ByLayer
 10
-1400.0
 20
-2395.0
 30
0.0
 11
-1400.0
 21
-2395.0
 31
0.0
  0
LINE
  5
1A2
100
AcDbEntity
100
AcDbLine
  8
0
 62
256
370
-1
  6
ByLayer
 10
-1400.0
 20
-2405.0
 30
0.0
 11
-1415.0
 21
-2405.0
 31
0.0
  0
ARC
  5
1A3
100
AcDbEntity
  8
0
 62
256
370
-1
  6
ByLayer
100
AcDbCircle
 10
-1400.0
 20
-2400.0
 30
0.0
 40
5.0
100
AcDbArc
 50
270.0
 51
90.0
  0
LINE
  5
1A4
100
AcDbEntity
100
AcDbLine
  8
0
 62
256
370
-1
  6
ByLayer
 10
-1410.0
 20
-2385.0
 30
0.0
 11
-1390.0
 21
-2385.0
 31
0.0
  0
LINE
  5
1A5
100
AcDbEntity
100
AcDbLine
  8
0
 62
256
370
-1
  6
ByLayer
 10
-1385.0
 20
-2390.0
 30
0.0
 11
-1385.0
 21
-2410.0
 31
0.0
  0
LINE
  5
1A6
100
AcDbEntity
100
AcDbLine
  8
0
 62
256
370
-1
  6
ByLayer
 10
-1390.0
 20
-2415.0
 30
0.0
 11
-1410.0
 21
-2415.0
 31
0.0
  0
LINE
  5
1A7
100
AcDbEntity
100
AcDbLine
  8
0
 62
256
370
-1
  6
ByLayer
 10
-1415.0
 20
-2410.0
 30
0.0
 11
-1415.0
 21
-2405.0
 31
0.0
  0
LINE
  5
1A8
100
AcDbEntity
100
AcDbLine
  8
0
 62
256
370
-1
  6
ByLayer
 10
-1415.0
 20
-2395.0
 30
0.0
 11
-1415.0
 21
-2390.0
 31
0.0
  0
CIRCLE
  5
1A9
100
AcDbEntity
100
AcDbCircle
  8
0
 62
256
370
-1
  6
ByLayer
 10
-1600.0
 20
-2300.0
 30
0.0
 40
8.0622577482985491
  0
ARC
  5
1AA
100
AcDbEntity
  8
0
 62
256
370
-1
  6
ByLayer
100
AcDbCircle
 10
-1610.0
 20
-2310.0
 30
0.0
 40
10.0
100
AcDbArc
 50
180.0
 51
270.0
  0
ARC
  5
1AB
100
AcDbEntity
  8
0
 62
256
370
-1
  6
ByLayer
100
AcDbCircle
 10
-1610.0
 20
-2290.0
 30
0.0
 40
10.0
100
AcDbArc
 50
90.0
 51
180.0
  0
ARC
  5
1AC
100
AcDbEntity
  8
0
 62
256
370
-1
  6
ByLayer
100
AcDbCircle
 10
-1590.0
 20
-2310.0
 30
0.0
 40
10.0
100
AcDbArc
 50
270.0
 51
360.0
  0
ARC
  5
1AD
100
AcDbEntity
  8
0
 62
256
370
-1
  6
ByLayer
100
AcDbCircle
 10
-1590.0
 20
-2290.0
 30
0.0
 40
10.0
100
AcDbArc
 50
360.0
 51
90.0
  0
CIRCLE
  5
1AE
100
AcDbEntity
100
AcDbCircle
  8
0
 62
256
370
-1
  6
ByLayer
 10
-1610.0
 20
-2310.0
 30
0.0
 40
1.5
  0
CIRCLE
  5
1AF
100
AcDbEntity
100
AcDbCircle
  8
0
 62
256
370
-1
  6
ByLayer
 10
-1610.0
 20
-2290.0
 30
0.0
 40
1.5
  0
CIRCLE
  5
1B0
100
AcDbEntity
100
AcDbCircle
  8
0
 62
256
370
-1
  6
ByLayer
 10
-1590.0
 20
-2290.0
 30
0.0
 40
1.5
  0
CIRCLE
  5
1B1
100
AcDbEntity
100
AcDbCircle
  8
0
 62
256
370
-1
  6
ByLayer
 10
-1590.0
 20
-2310.0
 30
0.0
 40
1.5
  0
LINE
  5
1B2
100
AcDbEntity
100
AcDbLine
  8
0
 62
256
370
-1
  6
ByLayer
 10
-1610.0
 20
-2280.0
 30
0.0
 11
-1590.0
 21
-2280.0
 31
0.0
  0
LINE
  5
1B3
100
AcDbEntity
100
AcDbLine
  8
0
 62
256
370
-1
  6
ByLayer
 10
-1580.0
 20
-2290.0
 30
0.0
 11
-1580.0
 21
-2310.0
 31
0.0
  0
LINE
  5
1B4
100
AcDbEntity
100
AcDbLine
  8
0
 62
256
370
-1
  6
ByLayer
 10
-1590.0
 20
-2320.0
 30
0.0
 11
-1610.0
 21
-2320.0
 31
0.0
  0
LINE
  5
1B5
100
AcDbEntity
100
AcDbLine
  8
0
 62
256
370
-1
  6
ByLayer
 10
-1620.0
 20
-2310.0
 30
0.0
 11
-1620.0
 21
-2290.0
 31
0.0
  0
CIRCLE
  5
1B6
100
AcDbEntity
100
AcDbCircle
  8
0
 62
256
370
-1
  6
ByLayer
 10
-1600.0
 20
-2200.0
 30
0.0
 40
8.0622577482985491
  0
ARC
  5
1B7
100
AcDbEntity
  8
0
 62
256
370
-1
  6
ByLayer
100
AcDbCircle
 10
-1610.0
 20
-2210.0
 30
0.0
 40
10.0
100
AcDbArc
 50
180.0
 51
270.0
  0
ARC
  5
1B8
100
AcDbEntity
  8
0
 62
256
370
-1
  6
ByLayer
100
AcDbCircle
 10
-1610.0
 20
-2190.0
 30
0.0
 40
10.0
100
AcDbArc
 50
90.0
 51
180.0
  0
ARC
  5
1B9
100
AcDbEntity
  8
0
 62
256
370
-1
  6
ByLayer
100
AcDbCircle
 10
-1590.0
 20
-2210.0
 30
0.0
 40
10.0
100
AcDbArc
 50
270.0
 51
360.0
  0
ARC
  5
1BA
100
AcDbEntity
  8
0
 62
256
370
-1
  6
ByLayer
100
AcDbCircle
 10
-1590.0
 20
-2190.0
 30
0.0
 40
10.0
100
AcDbArc
 50
360.0
 51
90.0
  0
CIRCLE
  5
1BB
100
AcDbEntity
100
AcDbCircle
  8
0
 62
256
370
-1
  6
ByLayer
 10
-1610.0
 20
-2210.0
 30
0.0
 40
1.5
  0
CIRCLE
  5
1BC
100
AcDbEntity
100
AcDbCircle
  8
0
 62
256
370
-1
  6
ByLayer
 10
-1610.0
 20
-2190.0
 30
0.0
 40
1.5
  0
CIRCLE
  5
1BD
100
AcDbEntity
100
AcDbCircle
  8
0
 62
256
370
-1
  6
ByLayer
 10
-1590.0
 20
-2190.0
 30
0.0
 40
1.5
  0
CIRCLE
  5
1BE
100
AcDbEntity
100
AcDbCircle
  8
0
 62
256
370
-1
  6
ByLayer
 10
-1590.0
 20
-2210.0
 30
0.0
 40
1.5
  0
LINE
  5
1BF
100
AcDbEntity
100
AcDbLine
  8
0
 62
256
370
-1
  6
ByLayer
 10
-1610.0
 20
-2180.0
 30
0.0
 11
-1590.0
 21
-2180.0
 31
0.0
  0
LINE
  5
1C0
100
AcDbEntity
100
AcDbLine
  8
0
 62
256
370
-1
  6
ByLayer
 10
-1580.0
 20
-2190.0
 30
0.0
 11
-1580.0
 21
-2210.0
 31
0.0
  0
LINE
  5
1C1
100
AcDbEntity
100
AcDbLine
  8
0
 62
256
370
-1
  6
ByLayer
 10
-1590.0
 20
-2220.0
 30
0.0
 11
-1610.0
 21
-2220.0
 31
0.0
  0
LINE
  5
1C2
100
AcDbEntity
100
AcDbLine
  8
0
 62
256
370
-1
  6
ByLayer
 10
-1620.0
 20
-2210.0
 30
0.0
 11
-1620.0
 21
-2190.0
 31
0.0
  0
CIRCLE
  5
1C3
100
AcDbEntity
100
AcDbCircle
  8
0
 62
256
370
-1
  6
ByLayer
 10
-1600.0
 20
-2100.0
 30
0.0
 40
8.0622577482985491
  0
ARC
  5
1C4
100
AcDbEntity
  8
0
 62
256
370
-1
  6
ByLayer
100
AcDbCircle
 10
-1610.0
 20
-2110.0
 30
0.0
 40
10.0
100
AcDbArc
 50
180.0
 51
270.0
  0
ARC
  5
1C5
100
AcDbEntity
  8
0
 62
256
370
-1
  6
ByLayer
100
AcDbCircle
 10
-1610.0
 20
-2090.0
 30
0.0
 40
10.0
100
AcDbArc
 50
90.0
 51
180.0
  0
ARC
  5
1C6
100
AcDbEntity
  8
0
 62
256
370
-1
  6
ByLayer
100
AcDbCircle
 10
-1590.0
 20
-2110.0
 30
0.0
 40
10.0
100
AcDbArc
 50
270.0
 51
360.0
  0
ARC
  5
1C7
100
AcDbEntity
  8
0
 62
256
370
-1
  6
ByLayer
100
AcDbCircle
 10
-1590.0
 20
-2090.0
 30
0.0
 40
10.0
100
AcDbArc
 50
360.0
 51
90.0
  0
CIRCLE
  5
1C8
100
AcDbEntity
100
AcDbCircle
  8
0
 62
256
370
-1
  6
ByLayer
 10
-1610.0
 20
-2110.0
 30
0.0
 40
1.5
  0
CIRCLE
  5
1C9
100
AcDbEntity
100
AcDbCircle
  8
0
 62
256
370
-1
  6
ByLayer
 10
-1610.0
 20
-2090.0
 30
0.0
 40
1.5
  0
CIRCLE
  5
1CA
100
AcDbEntity
100
AcDbCircle
  8
0
 62
256
370
-1
  6
ByLayer
 10
-1590.0
 20
-2090.0
 30
0.0
 40
1.5
  0
CIRCLE
  5
1CB
100
AcDbEntity
100
AcDbCircle
  8
0
 62
256
370
-1
  6
ByLayer
 10
-1590.0
 20
-2110.0
 30
0.0
 40
1.5
  0
LINE
  5
1CC
100
AcDbEntity
100
AcDbLine
  8
0
 62
256
370
-1
  6
ByLayer
 10
-1610.0
 20
-2080.0
 30
0.0
 11
-1590.0
 21
-2080.0
 31
0.0
  0
LINE
  5
1CD
100
AcDbEntity
100
AcDbLine
  8
0
 62
256
370
-1
  6
ByLayer
 10
-1580.0
 20
-2090.0
 30
0.0
 11
-1580.0
 21
-2110.0
 31
0.0
  0
LINE
  5
1CE
100
AcDbEntity
100
AcDbLine
  8
0
 62
256
370
-1
  6
ByLayer
 10
-1590.0
 20
-2120.0
 30
0.0
 11
-1610.0
 21
-2120.0
 31
0.0
  0
LINE
  5
1CF
100
AcDbEntity
100
AcDbLine
  8
0
 62
256
370
-1
  6
ByLayer
 10
-1620.0
 20
-2110.0
 30
0.0
 11
-1620.0
 21
-2090.0
 31
0.0
  0
CIRCLE
  5
1D0
100
AcDbEntity
100
AcDbCircle
  8
0
 62
256
370
-1
  6
ByLayer
 10
-1700.0
 20
-2100.0
 30
0.0
 40
8.0622577482985491
  0
ARC
  5
1D1
100
AcDbEntity
  8
0
 62
256
370
-1
  6
ByLayer
100
AcDbCircle
 10
-1710.0
 20
-2110.0
 30
0.0
 40
10.0
100
AcDbArc
 50
180.0
 51
270.0
  0
ARC
  5
1D2
100
AcDbEntity
  8
0
 62
256
370
-1
  6
ByLayer
100
AcDbCircle
 10
-1710.0
 20
-2090.0
 30
0.0
 40
10.0
100
AcDbArc
 50
90.0
 51
180.0
  0
ARC
  5
1D3
100
AcDbEntity
  8
0
 62
256
370
-1
  6
ByLayer
100
AcDbCircle
 10
-1690.0
 20
-2110.0
 30
0.0
 40
10.0
100
AcDbArc
 50
270.0
 51
360.0
  0
ARC
  5
1D4
100
AcDbEntity
  8
0
 62
256
370
-1
  6
ByLayer
100
AcDbCircle
 10
-1690.0
 20
-2090.0
 30
0.0
 40
10.0
100
AcDbArc
 50
360.0
 51
90.0
  0
CIRCLE
  5
1D5
100
AcDbEntity
100
AcDbCircle
  8
0
 62
256
370
-1
  6
ByLayer
 10
-1710.0
 20
-2110.0
 30
0.0
 40
1.5
  0
CIRCLE
  5
1D6
100
AcDbEntity
100
AcDbCircle
  8
0
 62
256
370
-1
  6
ByLayer
 10
-1710.0
 20
-2090.0
 30
0.0
 40
1.5
  0
CIRCLE
  5
1D7
100
AcDbEntity
100
AcDbCircle
  8
0
 62
256
370
-1
  6
ByLayer
 10
-1690.0
 20
-2090.0
 30
0.0
 40
1.5
  0
CIRCLE
  5
1D8
100
AcDbEntity
100
AcDbCircle
  8
0
 62
256
370
-1
  6
ByLayer
 10
-1690.0
 20
-2110.0
 30
0.0
 40
1.5
  0
LINE
  5
1D9
100
AcDbEntity
100
AcDbLine
  8
0
 62
256
370
-1
  6
ByLayer
 10
-1710.0
 20
-2080.0
 30
0.0
 11
-1690.0
 21
-2080.0
 31
0.0
  0
LINE
  5
1DA
100
AcDbEntity
100
AcDbLine
  8
0
 62
256
370
-1
  6
ByLayer
 10
-1680.0
 20
-2090.0
 30
0.0
 11
-1680.0
 21
-2110.0
 31
0.0
  0
LINE
  5
1DB
100
AcDbEntity
100
AcDbLine
  8
0
 62
256
370
-1
  6
ByLayer
 10
-1690.0
 20
-2120.0
 30
0.0
 11
-1710.0
 21
-2120.0
 31
0.0
  0
LINE
  5
1DC
100
AcDbEntity
100
AcDbLine
  8
0
 62
256
370
-1
  6
ByLayer
 10
-1720.0
 20
-2110.0
 30
0.0
 11
-1720.0
 21
-2090.0
 31
0.0
  0
CIRCLE
  5
1DD
100
AcDbEntity
100
AcDbCircle
  8
0
 62
256
370
-1
  6
ByLayer
 10
-1700.0
 20
-2200.0
 30
0.0
 40
8.0622577482985491
  0
ARC
  5
1DE
100
AcDbEntity
  8
0
 62
256
370
-1
  6
ByLayer
100
AcDbCircle
 10
-1710.0
 20
-2210.0
 30
0.0
 40
10.0
100
AcDbArc
 50
180.0
 51
270.0
  0
ARC
  5
1DF
100
AcDbEntity
  8
0
 62
256
370
-1
  6
ByLayer
100
AcDbCircle
 10
-1710.0
 20
-2190.0
 30
0.0
 40
10.0
100
AcDbArc
 50
90.0
 51
180.0
  0
ARC
  5
1E0
100
AcDbEntity
  8
0
 62
256
370
-1
  6
ByLayer
100
AcDbCircle
 10
-1690.0
 20
-2210.0
 30
0.0
 40
10.0
100
AcDbArc
 50
270.0
 51
360.0
  0
ARC
  5
1E1
100
AcDbEntity
  8
0
 62
256
370
-1
  6
ByLayer
100
AcDbCircle
 10
-1690.0
 20
-2190.0
 30
0.0
 40
10.0
100
AcDbArc
 50
360.0
 51
90.0
  0
CIRCLE
  5
1E2
100
AcDbEntity
100
AcDbCircle
  8
0
 62
256
370
-1
  6
ByLayer
 10
-1710.0
 20
-2210.0
 30
0.0
 40
1.5
  0
CIRCLE
  5
1E3
100
AcDbEntity
100
AcDbCircle
  8
0
 62
256
370
-1
  6
ByLayer
 10
-1710.0
 20
-2190.0
 30
0.0
 40
1.5
  0
CIRCLE
  5
1E4
100
AcDbEntity
100
AcDbCircle
  8
0
 62
256
370
-1
  6
ByLayer
 10
-1690.0
 20
-2190.0
 30
0.0
 40
1.5
  0
CIRCLE
  5
1E5
100
AcDbEntity
100
AcDbCircle
  8
0
 62
256
370
-1
  6
ByLayer
 10
-1690.0
 20
-2210.0
 30
0.0
 40
1.5
  0
LINE
  5
1E6
100
AcDbEntity
100
AcDbLine
  8
0
 62
256
370
-1
  6
ByLayer
 10
-1710.0
 20
-2180.0
 30
0.0
 11
-1690.0
 21
-2180.0
 31
0.0
  0
LINE
  5
1E7
100
AcDbEntity
100
AcDbLine
  8
0
 62
256
370
-1
  6
ByLayer
 10
-1680.0
 20
-2190.0
 30
0.0
 11
-1680.0
 21
-2210.0
 31
0.0
  0
LINE
  5
1E8
100
AcDbEntity
100
AcDbLine
  8
0
 62
256
370
-1
  6
ByLayer
 10
-1690.0
 20
-2220.0
 30
0.0
 11
-1710.0
 21
-2220.0
 31
0.0
  0
LINE
  5
1E9
100
AcDbEntity
100
AcDbLine
  8
0
 62
256
370
-1
  6
ByLayer
 10
-1720.0
 20
-2210.0
 30
0.0
 11
-1720.0
 21
-2190.0
 31
0.0
  0
CIRCLE
  5
1EA
100
AcDbEntity
100
AcDbCircle
  8
0
 62
256
370
-1
  6
ByLayer
 10
-1700.0
 20
-2300.0
 30
0.0
 40
8.0622577482985491
  0
ARC
  5
1EB
100
AcDbEntity
  8
0
 62
256
370
-1
  6
ByLayer
100
AcDbCircle
 10
-1710.0
 20
-2310.0
 30
0.0
 40
10.0
100
AcDbArc
 50
180.0
 51
270.0
  0
ARC
  5
1EC
100
AcDbEntity
  8
0
 62
256
370
-1
  6
ByLayer
100
AcDbCircle
 10
-1710.0
 20
-2290.0
 30
0.0
 40
10.0
100
AcDbArc
 50
90.0
 51
180.0
  0
ARC
  5
1ED
100
AcDbEntity
  8
0
 62
256
370
-1
  6
ByLayer
100
AcDbCircle
 10
-1690.0
 20
-2310.0
 30
0.0
 40
10.0
100
AcDbArc
 50
270.0
 51
360.0
  0
ARC
  5
1EE
100
AcDbEntity
  8
0
 62
256
370
-1
  6
ByLayer
100
AcDbCircle
 10
-1690.0
 20
-2290.0
 30
0.0
 40
10.0
100
AcDbArc
 50
360.0
 51
90.0
  0
CIRCLE
  5
1EF
100
AcDbEntity
100
AcDbCircle
  8
0
 62
256
370
-1
  6
ByLayer
 10
-1710.0
 20
-2310.0
 30
0.0
 40
1.5
  0
CIRCLE
  5
1F0
100
AcDbEntity
100
AcDbCircle
  8
0
 62
256
370
-1
  6
ByLayer
 10
-1710.0
 20
-2290.0
 30
0.0
 40
1.5
  0
CIRCLE
  5
1F1
100
AcDbEntity
100
AcDbCircle
  8
0
 62
256
370
-1
  6
ByLayer
 10
-1690.0
 20
-2290.0
 30
0.0
 40
1.5
  0
CIRCLE
  5
1F2
100
AcDbEntity
100
AcDbCircle
  8
0
 62
256
370
-1
  6
ByLayer
 10
-1690.0
 20
-2310.0
 30
0.0
 40
1.5
  0
LINE
  5
1F3
100
AcDbEntity
100
AcDbLine
  8
0
 62
256
370
-1
  6
ByLayer
 10
-1710.0
 20
-2280.0
 30
0.0
 11
-1690.0
 21
-2280.0
 31
0.0
  0
LINE
  5
1F4
100
AcDbEntity
100
AcDbLine
  8
0
 62
256
370
-1
  6
ByLayer
 10
-1680.0
 20
-2290.0
 30
0.0
 11
-1680.0
 21
-2310.0
 31
0.0
  0
LINE
  5
1F5
100
AcDbEntity
100
AcDbLine
  8
0
 62
256
370
-1
  6
ByLayer
 10
-1690.0
 20
-2320.0
 30
0.0
 11
-1710.0
 21
-2320.0
 31
0.0
  0
LINE
  5
1F6
100
AcDbEntity
100
AcDbLine
  8
0
 62
256
370
-1
  6
ByLayer
 10
-1720.0
 20
-2310.0
 30
0.0
 11
-1720.0
 21
-2290.0
 31
0.0
  0
CIRCLE
  5
1F7
100
AcDbEntity
100
AcDbCircle
  8
0
 62
256
370
-1
  6
ByLayer
 10
-1700.0
 20
-2400.0
 30
0.0
 40
8.0622577482985491
  0
ARC
  5
1F8
100
AcDbEntity
  8
0
 62
256
370
-1
  6
ByLayer
100
AcDbCircle
 10
-1710.0
 20
-2410.0
 30
0.0
 40
10.0
100
AcDbArc
 50
180.0
 51
270.0
  0
ARC
  5
1F9
100
AcDbEntity
  8
0
 62
256
370
-1
  6
ByLayer
100
AcDbCircle
 10
-1710.0
 20
-2390.0
 30
0.0
 40
10.0
100
AcDbArc
 50
90.0
 51
180.0
  0
ARC
  5
1FA
100
AcDbEntity
  8
0
 62
256
370
-1
  6
ByLayer
100
AcDbCircle
 10
-1690.0
 20
-2410.0
 30
0.0
 40
10.0
100
AcDbArc
 50
270.0
 51
360.0
  0
ARC
  5
1FB
100
AcDbEntity
  8
0
 62
256
370
-1
  6
ByLayer
100
AcDbCircle
 10
-1690.0
 20
-2390.0
 30
0.0
 40
10.0
100
AcDbArc
 50
360.0
 51
90.0
  0
CIRCLE
  5
1FC
100
AcDbEntity
100
AcDbCircle
  8
0
 62
256
370
-1
  6
ByLayer
 10
-1710.0
 20
-2410.0
 30
0.0
 40
1.5
  0
CIRCLE
  5
1FD
100
AcDbEntity
100
AcDbCircle
  8
0
 62
256
370
-1
  6
ByLayer
 10
-1710.0
 20
-2390.0
 30
0.0
 40
1.5
  0
CIRCLE
  5
1FE
100
AcDbEntity
100
AcDbCircle
  8
0
 62
256
370
-1
  6
ByLayer
 10
-1690.0
 20
-2390.0
 30
0.0
 40
1.5
  0
CIRCLE
  5
1FF
100
AcDbEntity
100
AcDbCircle
  8
0
 62
256
370
-1
  6
ByLayer
 10
-1690.0
 20
-2410.0
 30
0.0
 40
1.5
  0
LINE
  5
200
100
AcDbEntity
100
AcDbLine
  8
0
 62
256
370
-1
  6
ByLayer
 10
-1710.0
 20
-2380.0
 30
0.0
 11
-1690.0
 21
-2380.0
 31
0.0
  0
LINE
  5
201
100
AcDbEntity
100
AcDbLine
  8
0
 62
256
370
-1
  6
ByLayer
 10
-1680.0
 20
-2390.0
 30
0.0
 11
-1680.0
 21
-2410.0
 31
0.0
  0
LINE
  5
202
100
AcDbEntity
100
AcDbLine
  8
0
 62
256
370
-1
  6
ByLayer
 10
-1690.0
 20
-2420.0
 30
0.0
 11
-1710.0
 21
-2420.0
 31
0.0
  0
LINE
  5
203
100
AcDbEntity
100
AcDbLine
  8
0
 62
256
370
-1
  6
ByLayer
 10
-1720.0
 20
-2410.0
 30
0.0
 11
-1720.0
 21
-2390.0
 31
0.0
  0
CIRCLE
  5
204
100
AcDbEntity
100
AcDbCircle
  8
0
 62
256
370
-1
  6
ByLayer
 10
-1510.0
 20
-2310.0
 30
0.0
 40
1.5
  0
CIRCLE
  5
205
100
AcDbEntity
100
AcDbCircle
  8
0
 62
256
370
-1
  6
ByLayer
 10
-1510.0
 20
-2290.0
 30
0.0
 40
1.5
  0
CIRCLE
  5
206
100
AcDbEntity
100
AcDbCircle
  8
0
 62
256
370
-1
  6
ByLayer
 10
-1490.0
 20
-2290.0
 30
0.0
 40
1.5
  0
CIRCLE
  5
207
100
AcDbEntity
100
AcDbCircle
  8
0
 62
256
370
-1
  6
ByLayer
 10
-1490.0
 20
-2310.0
 30
0.0
 40
1.5
  0
ARC
  5
208
100
AcDbEntity
  8
0
 62
256
370
-1
  6
ByLayer
100
AcDbCircle
 10
-1510.0
 20
-2310.0
 30
0.0
 40
10.0
100
AcDbArc
 50
180.0
 51
270.0
  0
ARC
  5
209
100
AcDbEntity
  8
0
 62
256
370
-1
  6
ByLayer
100
AcDbCircle
 10
-1510.0
 20
-2290.0
 30
0.0
 40
10.0
100
AcDbArc
 50
90.0
 51
180.0
  0
ARC
  5
20A
100
AcDbEntity
  8
0
 62
256
370
-1
  6
ByLayer
100
AcDbCircle
 10
-1490.0
 20
-2290.0
 30
0.0
 40
10.0
100
AcDbArc
 50
360.0
 51
90.0
  0
ARC
  5
20B
100
AcDbEntity
  8
0
 62
256
370
-1
  6
ByLayer
100
AcDbCircle
 10
-1490.0
 20
-2310.0
 30
0.0
 40
10.0
100
AcDbArc
 50
270.0
 51
360.0
  0
LINE
  5
20C
100
AcDbEntity
100
AcDbLine
  8
0
 62
256
370
-1
  6
ByLayer
 10
-1510.0
 20
-2280.0
 30
0.0
 11
-1490.0
 21
-2280.0
 31
0.0
  0
LINE
  5
20D
100
AcDbEntity
100
AcDbLine
  8
0
 62
256
370
-1
  6
ByLayer
 10
-1480.0
 20
-2290.0
 30
0.0
 11
-1480.0
 21
-2310.0
 31
0.0
  0
LINE
  5
20E
100
AcDbEntity
100
AcDbLine
  8
0
 62
256
370
-1
  6
ByLayer
 10
-1490.0
 20
-2320.0
 30
0.0
 11
-1510.0
 21
-2320.0
 31
0.0
  0
LINE
  5
20F
100
AcDbEntity
100
AcDbLine
  8
0
 62
256
370
-1
  6
ByLayer
 10
-1520.0
 20
-2290.0
 30
0.0
 11
-1520.0
 21
-2310.0
 31
0.0
  0
CIRCLE
  5
210
100
AcDbEntity
100
AcDbCircle
  8
0
 62
256
370
-1
  6
ByLayer
 10
-1510.0
 20
-2210.0
 30
0.0
 40
1.5
  0
CIRCLE
  5
211
100
AcDbEntity
100
AcDbCircle
  8
0
 62
256
370
-1
  6
ByLayer
 10
-1510.0
 20
-2190.0
 30
0.0
 40
1.5
  0
CIRCLE
  5
212
100
AcDbEntity
100
AcDbCircle
  8
0
 62
256
370
-1
  6
ByLayer
 10
-1490.0
 20
-2190.0
 30
0.0
 40
1.5
  0
CIRCLE
  5
213
100
AcDbEntity
100
AcDbCircle
  8
0
 62
256
370
-1
  6
ByLayer
 10
-1490.0
 20
-2210.0
 30
0.0
 40
1.5
  0
ARC
  5
214
100
AcDbEntity
  8
0
 62
256
370
-1
  6
ByLayer
100
AcDbCircle
 10
-1510.0
 20
-2210.0
 30
0.0
 40
10.0
100
AcDbArc
 50
180.0
 51
270.0
  0
ARC
  5
215
100
AcDbEntity
  8
0
 62
256
370
-1
  6
ByLayer
100
AcDbCircle
 10
-1510.0
 20
-2190.0
 30
0.0
 40
10.0
100
AcDbArc
 50
90.0
 51
180.0
  0
ARC
  5
216
100
AcDbEntity
  8
0
 62
256
370
-1
  6
ByLayer
100
AcDbCircle
 10
-1490.0
 20
-2190.0
 30
0.0
 40
10.0
100
AcDbArc
 50
360.0
 51
90.0
  0
ARC
  5
217
100
AcDbEntity
  8
0
 62
256
370
-1
  6
ByLayer
100
AcDbCircle
 10
-1490.0
 20
-2210.0
 30
0.0
 40
10.0
100
AcDbArc
 50
270.0
 51
360.0
  0
LINE
  5
218
100
AcDbEntity
100
AcDbLine
  8
0
 62
256
370
-1
  6
ByLayer
 10
-1510.0
 20
-2180.0
 30
0.0
 11
-1490.0
 21
-2180.0
 31
0.0
  0
LINE
  5
219
100
AcDbEntity
100
AcDbLine
  8
0
 62
256
370
-1
  6
ByLayer
 10
-1480.0
 20
-2190.0
 30
0.0
 11
-1480.0
 21
-2210.0
 31
0.0
  0
LINE
  5
21A
100
AcDbEntity
100
AcDbLine
  8
0
 62
256
370
-1
  6
ByLayer
 10
-1490.0
 20
-2220.0
 30
0.0
 11
-1510.0
 21
-2220.0
 31
0.0
  0
LINE
  5
21B
100
AcDbEntity
100
AcDbLine
  8
0
 62
256
370
-1
  6
ByLayer
 10
-1520.0
 20
-2190.0
 30
0.0
 11
-1520.0
 21
-2210.0
 31
0.0
  0
CIRCLE
  5
21C
100
AcDbEntity
100
AcDbCircle
  8
0
 62
256
370
-1
  6
ByLayer
 10
-1510.0
 20
-2110.0
 30
0.0
 40
1.5
  0
CIRCLE
  5
21D
100
AcDbEntity
100
AcDbCircle
  8
0
 62
256
370
-1
  6
ByLayer
 10
-1510.0
 20
-2090.0
 30
0.0
 40
1.5
  0
CIRCLE
  5
21E
100
AcDbEntity
100
AcDbCircle
  8
0
 62
256
370
-1
  6
ByLayer
 10
-1490.0
 20
-2090.0
 30
0.0
 40
1.5
  0
CIRCLE
  5
21F
100
AcDbEntity
100
AcDbCircle
  8
0
 62
256
370
-1
  6
ByLayer
 10
-1490.0
 20
-2110.0
 30
0.0
 40
1.5
  0
ARC
  5
220
100
AcDbEntity
  8
0
 62
256
370
-1
  6
ByLayer
100
AcDbCircle
 10
-1510.0
 20
-2110.0
 30
0.0
 40
10.0
100
AcDbArc
 50
180.0
 51
270.0
  0
ARC
  5
221
100
AcDbEntity
  8
0
 62
256
370
-1
  6
ByLayer
100
AcDbCircle
 10
-1510.0
 20
-2090.0
 30
0.0
 40
10.0
100
AcDbArc
 50
90.0
 51
180.0
  0
ARC
  5
222
100
AcDbEntity
  8
0
 62
256
370
-1
  6
ByLayer
100
AcDbCircle
 10
-1490.0
 20
-2090.0
 30
0.0
 40
10.0
100
AcDbArc
 50
360.0
 51
90.0
  0
ARC
  5
223
100
AcDbEntity
  8
0
 62
256
370
-1
  6
ByLayer
100
AcDbCircle
 10
-1490.0
 20
-2110.0
 30
0.0
 40
10.0
100
AcDbArc
 50
270.0
 51
360.0
  0
LINE
  5
224
100
AcDbEntity
100
AcDbLine
  8
0
 62
256
370
-1
  6
ByLayer
 10
-1510.0
 20
-2080.0
 30
0.0
 11
-1490.0
 21
-2080.0
 31
0.0
  0
LINE
  5
225
100
AcDbEntity
100
AcDbLine
  8
0
 62
256
370
-1
  6
ByLayer
 10
-1480.0
 20
-2090.0
 30
0.0
 11
-1480.0
 21
-2110.0
 31
0.0
  0
LINE
  5
226
100
AcDbEntity
100
AcDbLine
  8
0
 62
256
370
-1
  6
ByLayer
 10
-1490.0
 20
-2120.0
 30
0.0
 11
-1510.0
 21
-2120.0
 31
0.0
  0
LINE
  5
227
100
AcDbEntity
100
AcDbLine
  8
0
 62
256
370
-1
  6
ByLayer
 10
-1520.0
 20
-2090.0
 30
0.0
 11
-1520.0
 21
-2110.0
 31
0.0
  0
CIRCLE
  5
228
100
AcDbEntity
100
AcDbCircle
  8
0
 62
256
370
-1
  6
ByLayer
 10
-1510.0
 20
-2410.0
 30
0.0
 40
1.5
  0
CIRCLE
  5
229
100
AcDbEntity
100
AcDbCircle
  8
0
 62
256
370
-1
  6
ByLayer
 10
-1510.0
 20
-2390.0
 30
0.0
 40
1.5
  0
CIRCLE
  5
22A
100
AcDbEntity
100
AcDbCircle
  8
0
 62
256
370
-1
  6
ByLayer
 10
-1490.0
 20
-2390.0
 30
0.0
 40
1.5
  0
CIRCLE
  5
22B
100
AcDbEntity
100
AcDbCircle
  8
0
 62
256
370
-1
  6
ByLayer
 10
-1490.0
 20
-2410.0
 30
0.0
 40
1.5
  0
ARC
  5
22C
100
AcDbEntity
  8
0
 62
256
370
-1
  6
ByLayer
100
AcDbCircle
 10
-1510.0
 20
-2410.0
 30
0.0
 40
10.0
100
AcDbArc
 50
180.0
 51
270.0
  0
ARC
  5
22D
100
AcDbEntity
  8
0
 62
256
370
-1
  6
ByLayer
100
AcDbCircle
 10
-1510.0
 20
-2390.0
 30
0.0
 40
10.0
100
AcDbArc
 50
90.0
 51
180.0
  0
ARC
  5
22E
100
AcDbEntity
  8
0
 62
256
370
-1
  6
ByLayer
100
AcDbCircle
 10
-1490.0
 20
-2390.0
 30
0.0
 40
10.0
100
AcDbArc
 50
360.0
 51
90.0
  0
ARC
  5
22F
100
AcDbEntity
  8
0
 62
256
370
-1
  6
ByLayer
100
AcDbCircle
 10
-1490.0
 20
-2410.0
 30
0.0
 40
10.0
100
AcDbArc
 50
270.0
 51
360.0
  0
LINE
  5
230
100
AcDbEntity
100
AcDbLine
  8
0
 62
256
370
-1
  6
ByLayer
 10
-1510.0
 20
-2380.0
 30
0.0
 11
-1490.0
 21
-2380.0
 31
0.0
  0
LINE
  5
231
100
AcDbEntity
100
AcDbLine
  8
0
 62
256
370
-1
  6
ByLayer
 10
-1480.0
 20
-2390.0
 30
0.0
 11
-1480.0
 21
-2410.0
 31
0.0
  0
LINE
  5
232
100
AcDbEntity
100
AcDbLine
  8
0
 62
256
370
-1
  6
ByLayer
 10
-1490.0
 20
-2420.0
 30
0.0
 11
-1510.0
 21
-2420.0
 31
0.0
  0
LINE
  5
233
100
AcDbEntity
100
AcDbLine
  8
0
 62
256
370
-1
  6
ByLayer
 10
-1520.0
 20
-2390.0
 30
0.0
 11
-1520.0
 21
-2410.0
 31
0.0
  0
CIRCLE
  5
234
100
AcDbEntity
100
AcDbCircle
  8
0
 62
256
370
-1
  6
ByLayer
 10
-1390.0
 20
-2290.0
 30
0.0
 40
1.5
  0
CIRCLE
  5
235
100
AcDbEntity
100
AcDbCircle
  8
0
 62
256
370
-1
  6
ByLayer
 10
-1390.0
 20
-2310.0
 30
0.0
 40
1.5
  0
CIRCLE
  5
236
100
AcDbEntity
100
AcDbCircle
  8
0
 62
256
370
-1
  6
ByLayer
 10
-1410.0
 20
-2310.0
 30
0.0
 40
1.5
  0
CIRCLE
  5
237
100
AcDbEntity
100
AcDbCircle
  8
0
 62
256
370
-1
  6
ByLayer
 10
-1410.0
 20
-2290.0
 30
0.0
 40
1.5
  0
ARC
  5
238
100
AcDbEntity
  8
0
 62
256
370
-1
  6
ByLayer
100
AcDbCircle
 10
-1390.0
 20
-2290.0
 30
0.0
 40
5.0
100
AcDbArc
 50
360.0
 51
90.0
  0
ARC
  5
239
100
AcDbEntity
  8
0
 62
256
370
-1
  6
ByLayer
100
AcDbCircle
 10
-1390.0
 20
-2310.0
 30
0.0
 40
5.0
100
AcDbArc
 50
270.0
 51
360.0
  0
ARC
  5
23A
100
AcDbEntity
  8
0
 62
256
370
-1
  6
ByLayer
100
AcDbCircle
 10
-1410.0
 20
-2310.0
 30
0.0
 40
5.0
100
AcDbArc
 50
180.0
 51
270.0
  0
ARC
  5
23B
100
AcDbEntity
  8
0
 62
256
370
-1
  6
ByLayer
100
AcDbCircle
 10
-1410.0
 20
-2290.0
 30
0.0
 40
5.0
100
AcDbArc
 50
90.0
 51
180.0
  0
LINE
  5
23C
100
AcDbEntity
100
AcDbLine
  8
0
 62
256
370
-1
  6
ByLayer
 10
-1415.0
 20
-2295.0
 30
0.0
 11
-1400.0
 21
-2295.0
 31
0.0
  0
LINE
  5
23D
100
AcDbEntity
100
AcDbLine
  8
0
 62
256
370
-1
  6
ByLayer
 10
-1400.0
 20
-2295.0
 30
0.0
 11
-1400.0
 21
-2295.0
 31
0.0
  0
LINE
  5
23E
100
AcDbEntity
100
AcDbLine
  8
0
 62
256
370
-1
  6
ByLayer
 10
-1400.0
 20
-2305.0
 30
0.0
 11
-1415.0
 21
-2305.0
 31
0.0
  0
ARC
  5
23F
100
AcDbEntity
  8
0
 62
256
370
-1
  6
ByLayer
100
AcDbCircle
 10
-1400.0
 20
-2300.0
 30
0.0
 40
5.0
100
AcDbArc
 50
270.0
 51
90.0
  0
LINE
  5
240
100
AcDbEntity
100
AcDbLine
  8
0
 62
256
370
-1
  6
ByLayer
 10
-1410.0
 20
-2285.0
 30
0.0
 11
-1390.0
 21
-2285.0
 31
0.0
  0
LINE
  5
241
100
AcDbEntity
100
AcDbLine
  8
0
 62
256
370
-1
  6
ByLayer
 10
-1385.0
 20
-2290.0
 30
0.0
 11
-1385.0
 21
-2310.0
 31
0.0
  0
LINE
  5
242
100
AcDbEntity
100
AcDbLine
  8
0
 62
256
370
-1
  6
ByLayer
 10
-1390.0
 20
-2315.0
 30
0.0
 11
-1410.0
 21
-2315.0
 31
0.0
  0
LINE
  5
243
100
AcDbEntity
100
AcDbLine
  8
0
 62
256
370
-1
  6
ByLayer
 10
-1415.0
 20
-2310.0
 30
0.0
 11
-1415.0
 21
-2305.0
 31
0.0
  0
LINE
  5
244
100
AcDbEntity
100
AcDbLine
  8
0
 62
256
370
-1
  6
ByLayer
 10
-1415.0
 20
-2295.0
 30
0.0
 11
-1415.0
 21
-2290.0
 31
0.0
  0
CIRCLE
  5
245
100
AcDbEntity
100
AcDbCircle
  8
0
 62
256
370
-1
  6
ByLayer
 10
-1390.0
 20
-2190.0
 30
0.0
 40
1.5
  0
CIRCLE
  5
246
100
AcDbEntity
100
AcDbCircle
  8
0
 62
256
370
-1
  6
ByLayer
 10
-1390.0
 20
-2210.0
 30
0.0
 40
1.5
  0
CIRCLE
  5
247
100
AcDbEntity
100
AcDbCircle
  8
0
 62
256
370
-1
  6
ByLayer
 10
-1410.0
 20
-2210.0
 30
0.0
 40
1.5
  0
CIRCLE
  5
248
100
AcDbEntity
100
AcDbCircle
  8
0
 62
256
370
-1
  6
ByLayer
 10
-1410.0
 20
-2190.0
 30
0.0
 40
1.5
  0
ARC
  5
249
100
AcDbEntity
  8
0
 62
256
370
-1
  6
ByLayer
100
AcDbCircle
 10
-1390.0
 20
-2190.0
 30
0.0
 40
5.0
100
AcDbArc
 50
360.0
 51
90.0
  0
ARC
  5
24A
100
AcDbEntity
  8
0
 62
256
370
-1
  6
ByLayer
100
AcDbCircle
 10
-1390.0
 20
-2210.0
 30
0.0
 40
5.0
100
AcDbArc
 50
270.0
 51
360.0
  0
ARC
  5
24B
100
AcDbEntity
  8
0
 62
256
370
-1
  6
ByLayer
100
AcDbCircle
 10
-1410.0
 20
-2210.0
 30
0.0
 40
5.0
100
AcDbArc
 50
180.0
 51
270.0
  0
ARC
  5
24C
100
AcDbEntity
  8
0
 62
256
370
-1
  6
ByLayer
100
AcDbCircle
 10
-1410.0
 20
-2190.0
 30
0.0
 40
5.0
100
AcDbArc
 50
90.0
 51
180.0
  0
LINE
  5
24D
100
AcDbEntity
100
AcDbLine
  8
0
 62
256
370
-1
  6
ByLayer
 10
-1415.0
 20
-2195.0
 30
0.0
 11
-1400.0
 21
-2195.0
 31
0.0
  0
LINE
  5
24E
100
AcDbEntity
100
AcDbLine
  8
0
 62
256
370
-1
  6
ByLayer
 10
-1400.0
 20
-2195.0
 30
0.0
 11
-1400.0
 21
-2195.0
 31
0.0
  0
LINE
  5
24F
100
AcDbEntity
100
AcDbLine
  8
0
 62
256
370
-1
  6
ByLayer
 10
-1400.0
 20
-2205.0
 30
0.0
 11
-1415.0
 21
-2205.0
 31
0.0
  0
ARC
  5
250
100
AcDbEntity
  8
0
 62
256
370
-1
  6
ByLayer
100
AcDbCircle
 10
-1400.0
 20
-2200.0
 30
0.0
 40
5.0
100
AcDbArc
 50
270.0
 51
90.0
  0
LINE
  5
251
100
AcDbEntity
100
AcDbLine
  8
0
 62
256
370
-1
  6
ByLayer
 10
-1410.0
 20
-2185.0
 30
0.0
 11
-1390.0
 21
-2185.0
 31
0.0
  0
LINE
  5
252
100
AcDbEntity
100
AcDbLine
  8
0
 62
256
370
-1
  6
ByLayer
 10
-1385.0
 20
-2190.0
 30
0.0
 11
-1385.0
 21
-2210.0
 31
0.0
  0
LINE
  5
253
100
AcDbEntity
100
AcDbLine
  8
0
 62
256
370
-1
  6
ByLayer
 10
-1390.0
 20
-2215.0
 30
0.0
 11
-1410.0
 21
-2215.0
 31
0.0
  0
LINE
  5
254
100
AcDbEntity
100
AcDbLine
  8
0
 62
256
370
-1
  6
ByLayer
 10
-1415.0
 20
-2210.0
 30
0.0
 11
-1415.0
 21
-2205.0
 31
0.0
  0
LINE
  5
255
100
AcDbEntity
100
AcDbLine
  8
0
 62
256
370
-1
  6
ByLayer
 10
-1415.0
 20
-2195.0
 30
0.0
 11
-1415.0
 21
-2190.0
 31
0.0
  0
CIRCLE
  5
256
100
AcDbEntity
100
AcDbCircle
  8
0
 62
256
370
-1
  6
ByLayer
 10
-1390.0
 20
-2090.0
 30
0.0
 40
1.5
  0
CIRCLE
  5
257
100
AcDbEntity
100
AcDbCircle
  8
0
 62
256
370
-1
  6
ByLayer
 10
-1390.0
 20
-2110.0
 30
0.0
 40
1.5
  0
CIRCLE
  5
258
100
AcDbEntity
100
AcDbCircle
  8
0
 62
256
370
-1
  6
ByLayer
 10
-1410.0
 20
-2110.0
 30
0.0
 40
1.5
  0
CIRCLE
  5
259
100
AcDbEntity
100
AcDbCircle
  8
0
 62
256
370
-1
  6
ByLayer
 10
-1410.0
 20
-2090.0
 30
0.0
 40
1.5
  0
ARC
  5
25A
100
AcDbEntity
  8
0
 62
256
370
-1
  6
ByLayer
100
AcDbCircle
 10
-1390.0
 20
-2090.0
 30
0.0
 40
5.0
100
AcDbArc
 50
360.0
 51
90.0
  0
ARC
  5
25B
100
AcDbEntity
  8
0
 62
256
370
-1
  6
ByLayer
100
AcDbCircle
 10
-1390.0
 20
-2110.0
 30
0.0
 40
5.0
100
AcDbArc
 50
270.0
 51
360.0
  0
ARC
  5
25C
100
AcDbEntity
  8
0
 62
256
370
-1
  6
ByLayer
100
AcDbCircle
 10
-1410.0
 20
-2110.0
 30
0.0
 40
5.0
100
AcDbArc
 50
180.0
 51
270.0
  0
ARC
  5
25D
100
AcDbEntity
  8
0
 62
256
370
-1
  6
ByLayer
100
AcDbCircle
 10
-1410.0
 20
-2090.0
 30
0.0
 40
5.0
100
AcDbArc
 50
90.0
 51
180.0
  0
LINE
  5
25E
100
AcDbEntity
100
AcDbLine
  8
0
 62
256
370
-1
  6
ByLayer
 10
-1415.0
 20
-2095.0
 30
0.0
 11
-1400.0
 21
-2095.0
 31
0.0
  0
LINE
  5
25F
100
AcDbEntity
100
AcDbLine
  8
0
 62
256
370
-1
  6
ByLayer
 10
-1400.0
 20
-2095.0
 30
0.0
 11
-1400.0
 21
-2095.0
 31
0.0
  0
LINE
  5
260
100
AcDbEntity
100
AcDbLine
  8
0
 62
256
370
-1
  6
ByLayer
 10
-1400.0
 20
-2105.0
 30
0.0
 11
-1415.0
 21
-2105.0
 31
0.0
  0
ARC
  5
261
100
AcDbEntity
  8
0
 62
256
370
-1
  6
ByLayer
100
AcDbCircle
 10
-1400.0
 20
-2100.0
 30
0.0
 40
5.0
100
AcDbArc
 50
270.0
 51
90.0
  0
LINE
  5
262
100
AcDbEntity
100
AcDbLine
  8
0
 62
256
370
-1
  6
ByLayer
 10
-1410.0
 20
-2085.0
 30
0.0
 11
-1390.0
 21
-2085.0
 31
0.0
  0
LINE
  5
263
100
AcDbEntity
100
AcDbLine
  8
0
 62
256
370
-1
  6
ByLayer
 10
-1385.0
 20
-2090.0
 30
0.0
 11
-1385.0
 21
-2110.0
 31
0.0
  0
LINE
  5
264
100
AcDbEntity
100
AcDbLine
  8
0
 62
256
370
-1
  6
ByLayer
 10
-1390.0
 20
-2115.0
 30
0.0
 11
-1410.0
 21
-2115.0
 31
0.0
  0
LINE
  5
265
100
AcDbEntity
100
AcDbLine
  8
0
 62
256
370
-1
  6
ByLayer
 10
-1415.0
 20
-2110.0
 30
0.0
 11
-1415.0
 21
-2105.0
 31
0.0
  0
LINE
  5
266
100
AcDbEntity
100
AcDbLine
  8
0
 62
256
370
-1
  6
ByLayer
 10
-1415.0
 20
-2095.0
 30
0.0
 11
-1415.0
 21
-2090.0
 31
0.0
  0
CIRCLE
  5
267
100
AcDbEntity
100
AcDbCircle
  8
0
 62
256
370
-1
  6
ByLayer
 10
-1500.0
 20
-2650.0
 30
0.0
 40
28.0
  0
LINE
  5
268
100
AcDbEntity
100
AcDbLine
  8
0
 62
256
370
-1
  6
ByLayer
 10
-1645.0
 20
-2745.0
 30
0.0
 11
-1355.0
 21
-2745.0
 31
0.0
  0
LINE
  5
269
100
AcDbEntity
100
AcDbLine
  8
0
 62
256
370
-1
  6
ByLayer
 10
-630.0
 20
-2140.0
 30
0.0
 11
-370.0
 21
-2140.0
 31
0.0
  0
LINE
  5
26A
100
AcDbEntity
100
AcDbLine
  8
0
 62
256
370
-1
  6
ByLayer
 10
-370.0
 20
-2140.0
 30
0.0
 11
-370.0
 21
-2290.0
 31
0.0
  0
LINE
  5
26B
100
AcDbEntity
100
AcDbLine
  8
0
 62
256
370
-1
  6
ByLayer
 10
-370.0
 20
-2290.0
 30
0.0
 11
-630.0
 21
-2290.0
 31
0.0
  0
LINE
  5
26C
100
AcDbEntity
100
AcDbLine
  8
0
 62
256
370
-1
  6
ByLayer
 10
-630.0
 20
-2290.0
 30
0.0
 11
-630.0
 21
-2140.0
 31
0.0
  0
MTEXT
  5
26D
100
AcDbEntity
100
AcDbMText
  8
0
 62
256
370
-1
  6
ByLayer
 10
-1000.0
 20
-2080.0
 30
0.0
 40
10.0
 41
100.0
 71
5
 72
0
  1
Prototype\~\PDoubleWide\PCupcake\~CNC
  7
normal
 50
0.0
 73
1
 44
1.0
  0
ENDSEC
  0
SECTION
  2
OBJECTS
  0
DICTIONARY
  5
C
100
AcDbDictionary
280
0
281
1
  3
ACAD_GROUP
350
D
  3
ACAD_LAYOUT
350
1A
  3
ACAD_MLINESTYLE
350
17
  3
ACAD_PLOTSETTINGS
350
19
  3
ACAD_PLOTSTYLENAME
350
E
  3
AcDbVariableDictionary
350
26E
  0
DICTIONARY
  5
D
100
AcDbDictionary
280
0
281
1
  0
ACDBDICTIONARYWDFLT
  5
E
100
AcDbDictionary
281
1
  3
Normal
350
F
100
AcDbDictionaryWithDefault
340
F
  0
ACDBPLACEHOLDER
  5
F
  0
DICTIONARY
  5
17
100
AcDbDictionary
280
0
281
1
  3
Standard
350
18
  0
MLINESTYLE
  5
18
100
AcDbMlineStyle
  2
STANDARD
 70
0
  3

 62
256
 51
90.0
 52
90.0
 71
2
 49
0.5
 62
256
  6
BYLAYER
 49
-0.5
 62
256
  6
BYLAYER
  0
DICTIONARY
  5
19
100
AcDbDictionary
280
0
281
1
  0
DICTIONARY
  5
1A
100
AcDbDictionary
281
1
  3
Layout1
350
1E
  3
Layout2
350
26
  3
Model
350
22
  0
LAYOUT
  5
1E
100
AcDbPlotSettings
  1

  2
C:\Program Files\AutoCAD 2002\plotters\DWF ePlot (optimized for plotting).pc3
  4

  6

 40
0.0
 41
0.0
 42
0.0
 43
0.0
 44
0.0
 45
0.0
 46
0.0
 47
0.0
 48
0.0
 49
0.0
140
0.0
141
0.0
142
1.0
143
1.0
 70
688
 72
0
 73
0
 74
5
  7

 75
16
147
1.0
148
0.0
149
0.0
100
AcDbLayout
  1
Layout1
 70
1
 71
1
 10
0.0
 20
0.0
 11
420.0
 21
297.0
 12
0.0
 22
0.0
 32
0.0
 14
100000000000000000000.0
 24
100000000000000000000.0
 34
100000000000000000000.0
 15
-100000000000000000000.0
 25
-100000000000000000000.0
 35
-100000000000000000000.0
146
0.0
 13
0.0
 23
0.0
 33
0.0
 16
1.0
 26
0.0
 36
0.0
 17
0.0
 27
1.0
 37
0.0
 76
0
330
1B
  0
LAYOUT
  5
22
100
AcDbPlotSettings
  1

  2
C:\Program Files\AutoCAD 2002\plotters\DWF ePlot (optimized for plotting).pc3
  4

  6

 40
0.0
 41
0.0
 42
0.0
 43
0.0
 44
0.0
 45
0.0
 46
0.0
 47
0.0
 48
0.0
 49
0.0
140
0.0
141
0.0
142
1.0
143
1.0
 70
1712
 72
0
 73
0
 74
0
  7

 75
0
147
1.0
148
0.0
149
0.0
100
AcDbLayout
  1
Model
 70
1
 71
0
 10
0.0
 20
0.0
 11
12.0
 21
9.0
 12
0.0
 22
0.0
 32
0.0
 14
0.0
 24
0.0
 34
0.0
 15
0.0
 25
0.0
 35
0.0
146
0.0
 13
0.0
 23
0.0
 33
0.0
 16
1.0
 26
0.0
 36
0.0
 17
0.0
 27
1.0
 37
0.0
 76
0
330
1F
  0
LAYOUT
  5
26
100
AcDbPlotSettings
  1

  2
C:\Program Files\AutoCAD 2002\plotters\DWF ePlot (optimized for plotting).pc3
  4

  6

 40
0.0
 41
0.0
 42
0.0
 43
0.0
 44
0.0
 45
0.0
 46
0.0
 47
0.0
 48
0.0
 49
0.0
140
0.0
141
0.0
142
1.0
143
1.0
 70
688
 72
0
 73
0
 74
5
  7

 75
16
147
1.0
148
0.0
149
0.0
100
AcDbLayout
  1
Layout2
 70
1
 71
2
 10
0.0
 20
0.0
 11
12.0
 21
9.0
 12
0.0
 22
0.0
 32
0.0
 14
0.0
 24
0.0
 34
0.0
 15
0.0
 25
0.0
 35
0.0
146
0.0
 13
0.0
 23
0.0
 33
0.0
 16
1.0
 26
0.0
 36
0.0
 17
0.0
 27
1.0
 37
0.0
 76
0
330
23
  0
DICTIONARY
  5
26E
100
AcDbDictionary
281
1
  3
DIMASSOC
350
270
  3
HIDETEXT
350
26F
  0
DICTIONARYVAR
  5
26F
100
DictionaryVariables
280
0
  1
2
  0
DICTIONARYVAR
  5
270
100
DictionaryVariables
280
0
  1
1
  0
ENDSEC
  0
EOF
